# https://github.com/mikedh/trimesh
v 5.13138803 4.89698136 10.08975449
v 5.13138803 4.89649179 8.94212310
v 4.74946496 4.88914940 10.08975449
v 4.74946496 4.88914940 10.09425616
v 4.74946496 4.88425456 10.27836178
v 5.13138803 4.88719141 10.27836178
v 10.41199407 4.88327543 10.27836178
v 4.94309101 4.88914940 8.94212310
v 10.41199407 4.88229657 8.94212310
v 4.77078139 4.88229657 8.94212310
v 4.74946496 4.88131744 8.94243337
v 4.74946496 4.86516394 10.38050441
v 5.32027720 4.87103792 10.39664835
v 10.41199407 4.87103792 10.39633808
v 10.60029109 4.86810107 10.39168128
v 10.60029109 4.87740145 10.27836178
v 10.60029109 4.87740145 10.08975449
v 10.60029109 4.87691189 8.94212310
v 4.75420185 4.88131744 8.94212310
v 4.74946496 4.78243878 8.94212310
v 4.74946496 4.76432730 10.39199155
v 5.32027720 4.57587065 10.52378367
v 5.32027720 4.76432730 10.47131503
v 10.41199407 4.76432730 10.47115990
v 10.60029109 4.76432730 10.46588201
v 10.70095322 4.86320595 10.38205686
v 10.70391423 4.86516394 10.27836178
v 10.70213807 4.86516394 8.94212310
v 10.60917301 4.87593303 8.94212310
v 4.74946496 0.73624790 8.94212310
v 4.74946496 3.06674819 10.47892160
v 5.32027720 4.38741386 10.52549125
v 10.41199407 4.57587065 10.52378367
v 10.60029109 4.57587065 10.52176582
v 10.72523039 4.76432730 10.41589719
v 10.75542959 4.76432730 10.27836178
v 10.72878271 4.77313839 8.94212310
v 4.74946496 -0.07289242 10.14765615
v 5.03250263 -0.05037539 8.94212310
v 4.74946496 0.23842848 10.47379885
v 5.32027720 0.42688513 10.52766424
v 5.32027720 3.06674819 10.52781993
v 10.41199407 4.38741386 10.52533612
v 10.60029109 4.38741386 10.52285231
v 10.74654654 4.57587065 10.44523641
v 10.79865433 4.57587065 10.27836178
v 10.73115129 4.76432730 8.94212310
v 4.74946496 -0.10030428 10.27525687
v 5.12309826 -0.07729796 8.94212310
v 4.74946496 -0.10079385 10.27836178
v 4.74946496 0.23402294 10.47364371
v 5.32027720 0.23842848 10.52704371
v 10.41199407 0.23842848 10.52502529
v 10.41199407 0.42688513 10.52533612
v 10.41199407 0.61583135 10.52549125
v 10.41199407 1.37014794 10.52564639
v 10.41199407 3.25569441 10.52564639
v 10.41199407 4.19846764 10.52549125
v 10.60029109 0.42688513 10.52285231
v 10.74654654 0.23842848 10.44523641
v 10.79865433 0.23842848 10.27836178
v 10.74950756 3.06674819 8.94212310
v 5.13138803 -0.07974524 8.94212310
v 5.32027720 -0.10373069 10.08975449
v 5.32027720 -0.10226227 10.27836178
v 5.32027720 -0.07289242 10.42505621
v 4.74946496 -0.07289242 10.41030903
v 5.32027720 -0.10373069 8.94212310
v 4.74946496 0.04997169 10.46339820
v 5.32027720 0.04997169 10.50189588
v 10.41199407 0.04997169 10.50018830
v 10.60029109 0.23842848 10.52238635
v 10.73470473 0.04997169 10.43110976
v 10.77437716 0.04997169 10.27836178
v 10.74477038 0.04997169 8.94212310
v 10.41199407 -0.10373069 10.08975449
v 10.41199407 -0.10226227 10.27836178
v 10.41199407 -0.07289242 10.42427998
v 4.74946496 0.04703457 10.46215657
v 10.41199407 -0.10373069 8.94212310
v 10.60029109 0.04997169 10.49568663
v 10.71338745 -0.05869692 10.40223706
v 10.72226937 -0.06603931 10.27836178
v 10.71575604 -0.06506045 8.94212310
v 10.60029109 -0.09491988 10.27836178
v 10.60029109 -0.06946572 10.42101995
v 10.60029109 -0.09491988 8.94212310
v 10.70569039 -0.06799730 8.94212310
f 1 2 3
f 1 3 4
f 1 4 5
f 1 5 6
f 1 6 7
f 1 7 2
f 2 8 3
f 2 7 9
f 2 9 18
f 2 18 29
f 2 29 28
f 2 28 37
f 2 37 47
f 2 47 62
f 2 62 75
f 2 75 84
f 2 84 88
f 2 88 87
f 2 87 80
f 2 80 68
f 2 68 63
f 2 63 49
f 2 49 39
f 2 39 30
f 2 30 20
f 2 20 19
f 2 19 10
f 2 10 8
f 3 8 10
f 3 10 11
f 3 11 20
f 3 20 30
f 3 30 38
f 3 38 48
f 3 48 50
f 3 50 67
f 3 67 79
f 3 79 69
f 3 69 51
f 3 51 40
f 3 40 31
f 3 31 21
f 3 21 12
f 3 12 5
f 3 5 4
f 5 12 13
f 5 13 6
f 6 13 14
f 6 14 7
f 7 14 15
f 7 15 16
f 7 16 17
f 7 17 18
f 7 18 9
f 10 19 11
f 11 19 20
f 12 21 22
f 12 22 23
f 12 23 13
f 13 23 24
f 13 24 14
f 14 24 25
f 14 25 15
f 15 25 26
f 15 26 16
f 16 26 27
f 16 27 17
f 17 27 28
f 17 28 29
f 17 29 18
f 21 31 22
f 22 31 32
f 22 32 33
f 22 33 23
f 23 33 24
f 24 33 34
f 24 34 25
f 25 34 35
f 25 35 26
f 26 35 36
f 26 36 27
f 27 36 28
f 28 36 37
f 30 39 38
f 31 40 41
f 31 41 42
f 31 42 32
f 32 42 43
f 32 43 33
f 33 43 34
f 34 43 44
f 34 44 45
f 34 45 35
f 35 45 46
f 35 46 36
f 36 46 47
f 36 47 37
f 38 39 48
f 39 49 50
f 39 50 48
f 40 51 52
f 40 52 41
f 41 52 53
f 41 53 54
f 41 54 55
f 41 55 56
f 41 56 42
f 42 56 57
f 42 57 58
f 42 58 43
f 43 58 44
f 44 58 57
f 44 57 56
f 44 56 59
f 44 59 60
f 44 60 45
f 45 60 61
f 45 61 46
f 46 61 62
f 46 62 47
f 49 63 50
f 50 64 65
f 50 65 66
f 50 66 67
f 50 63 68
f 50 68 64
f 51 69 52
f 52 69 70
f 52 70 71
f 52 71 53
f 53 71 72
f 53 72 59
f 53 59 54
f 54 59 55
f 55 59 56
f 59 72 60
f 60 73 61
f 60 72 73
f 61 73 74
f 61 74 75
f 61 75 62
f 64 76 77
f 64 77 65
f 64 68 80
f 64 80 76
f 65 77 66
f 66 70 67
f 66 77 78
f 66 78 70
f 67 70 79
f 69 79 70
f 70 78 71
f 71 78 81
f 71 81 72
f 72 81 73
f 73 82 74
f 73 81 82
f 74 82 83
f 74 83 84
f 74 84 75
f 76 80 87
f 76 87 85
f 76 85 77
f 77 85 86
f 77 86 78
f 78 86 81
f 81 86 82
f 82 86 85
f 82 85 83
f 83 85 87
f 83 87 88
f 83 88 84

