mtllib material.mtl
usemtl material_0
v -4.94827053 0.80707594 6.15174643
v -4.94827019 2.92826820 6.15174648
v -6.82975300 2.92826851 6.15174678
v -6.82975335 0.80707624 6.15174674
v -8.08562918 0.80707601 4.77729412
v -8.08562916 2.92826828 4.77729419
v -8.08562922 2.92826834 2.89581137
v -8.08562924 0.80707607 2.89581131
v -8.08562918 0.80707601 0.74604016
v -8.08562916 2.92826828 0.74604023
v -8.08562922 2.92826834 -1.13544259
v -8.08562924 0.80707607 -1.13544265
v -8.08562918 0.80707601 -3.30638030
v -8.08562916 2.92826828 -3.30638023
v -8.08562922 2.92826834 -5.18786305
v -8.08562924 0.80707607 -5.18786311
vt 0.00836641 0.71609962
vt 0.00836641 0.23495734
vt 0.24842441 0.23495734
vt 0.24842441 0.71609962
vt 0.25536215 0.71635270
vt 0.25536215 0.23521048
vt 0.49542007 0.23521048
vt 0.49542007 0.71635270
vt 0.50305188 0.71441913
vt 0.50305188 0.23327696
vt 0.74310976 0.23327696
vt 0.74310976 0.71441913
vt 0.75177431 0.71347892
vt 0.75177431 0.23233664
vt 0.99183226 0.23233664
vt 0.99183226 0.71347892
f 3/3 2/2 1/1
f 3/3 1/1 4/4
f 7/7 6/6 5/5
f 7/7 5/5 8/8
f 11/11 10/10 9/9
f 11/11 9/9 12/12
f 15/15 14/14 13/13
f 15/15 13/13 16/16

