mtllib door_mdl_0007.mtl
usemtl door_mdl_0007_mat
v -0.20908608 -0.36844624 0.62691916
v -0.20908608 -0.36844624 0.62691916
v -0.20708618 0.17319647 0.62491915
v -0.20708618 0.17319647 0.62491915
v -0.20708598 0.17397233 0.03466255
v -0.20708598 0.17397233 0.03466255
v -0.20708598 0.17397233 0.03466255
v -0.20708598 0.17397233 0.03466255
v -0.20908588 -0.37044624 0.03508094
v -0.20908588 -0.37044624 0.03508094
v -0.24508609 -0.36844624 0.62691915
v -0.24508609 -0.36844624 0.62691915
v -0.24508618 0.17519648 0.62491914
v -0.24508618 0.17519648 0.62491914
v -0.24508598 0.17319647 0.03308092
v -0.24508598 0.17319647 0.03308092
v -0.24508598 0.17319647 0.03308092
v -0.24508589 -0.37044625 0.03508093
v -0.24508589 -0.37044625 0.03508093
v -0.20908606 -0.22389006 0.47169418
v -0.20908606 -0.22389006 0.47169418
v -0.20708606 -0.22898309 0.47199601
v -0.20708606 -0.22898309 0.47199601
v -0.20708605 -0.23307104 0.46939558
v -0.20708605 -0.23307104 0.46939558
v -0.20708605 -0.23648005 0.46598655
v -0.20708605 -0.23648005 0.46598655
v -0.20708605 -0.23908050 0.46189865
v -0.20708605 -0.23908050 0.46189865
v -0.20708605 -0.24073918 0.45726305
v -0.20708605 -0.24073918 0.45726305
v -0.20708605 -0.24130740 0.45233791
v -0.20708605 -0.24130740 0.45233791
v -0.20708596 -0.24130740 0.20766218
v -0.20708596 -0.24130740 0.20766218
v -0.20708596 -0.24073915 0.20273704
v -0.20708596 -0.24073915 0.20273704
v -0.20708596 -0.23908048 0.19810148
v -0.20708596 -0.23908048 0.19810148
v -0.20708596 -0.23648005 0.19401354
v -0.20708596 -0.23648005 0.19401354
v -0.20708596 -0.23307103 0.19060455
v -0.20708596 -0.23307103 0.19060455
v -0.20708596 -0.22898310 0.18800406
v -0.20708596 -0.22898310 0.18800406
v -0.20708596 -0.22434755 0.18634543
v -0.20708596 -0.22434755 0.18634543
v -0.20708596 -0.21942238 0.18577717
v -0.20708596 -0.21942238 0.18577717
v -0.20708600 0.02417264 0.18577717
v -0.20708600 0.02417264 0.18577717
v -0.20708600 0.02909779 0.18634544
v -0.20708600 0.02909779 0.18634544
v -0.20708600 0.03373333 0.18800408
v -0.20708600 0.03373333 0.18800408
v -0.20708601 0.03782127 0.19060452
v -0.20708601 0.03782127 0.19060452
v -0.20708601 0.04123029 0.19401354
v -0.20708601 0.04123029 0.19401354
v -0.20708601 0.04383074 0.19810145
v -0.20708601 0.04383074 0.19810145
v -0.20708601 0.04475307 0.20161291
v -0.20708601 0.04475307 0.20161291
v -0.20708601 0.04605763 0.20766219
v -0.20708601 0.04605763 0.20766219
v -0.20708610 0.04605763 0.45233795
v -0.20708610 0.04605763 0.45233795
v -0.20708610 0.04548939 0.45726308
v -0.20708610 0.04548939 0.45726308
v -0.20708610 0.04383072 0.46189863
v -0.20708610 0.04383072 0.46189863
v -0.20708610 0.04123029 0.46598658
v -0.20708610 0.04123029 0.46598658
v -0.20708610 0.03782126 0.46939558
v -0.20708610 0.03782126 0.46939558
v -0.20708610 0.03373334 0.47199604
v -0.20708610 0.03373334 0.47199604
v -0.20708610 0.02909779 0.47365467
v -0.20708610 0.02909779 0.47365467
v -0.20708610 0.02417262 0.47422292
v -0.20708610 0.02417262 0.47422292
v -0.20908606 -0.21930739 0.47222292
v -0.20908606 -0.21930739 0.47222292
v -0.24508606 -0.22389007 0.47169417
v -0.24508606 -0.22389007 0.47169417
v -0.24508606 -0.22809853 0.47018833
v -0.24508606 -0.22809853 0.47018833
v -0.24508606 -0.23181219 0.46782599
v -0.24508606 -0.23181219 0.46782599
v -0.24508605 -0.23491048 0.46472769
v -0.24508605 -0.23491048 0.46472769
v -0.24508605 -0.23727284 0.46101404
v -0.24508605 -0.23727284 0.46101404
v -0.24508605 -0.23877869 0.45680557
v -0.24508605 -0.23877869 0.45680557
v -0.24508605 -0.23930740 0.45222290
v -0.24508605 -0.23930740 0.45222290
v -0.24508597 -0.23930740 0.20777717
v -0.24508597 -0.23930740 0.20777717
v -0.24508596 -0.23877867 0.20319450
v -0.24508596 -0.23877867 0.20319450
v -0.24508596 -0.23727283 0.19898603
v -0.24508596 -0.23727283 0.19898603
v -0.24508596 -0.23491048 0.19527238
v -0.24508596 -0.23491048 0.19527238
v -0.24508596 -0.23181218 0.19217410
v -0.24508596 -0.23181218 0.19217410
v -0.24508596 -0.22809853 0.18981170
v -0.24508596 -0.22809853 0.18981170
v -0.24508596 -0.22389009 0.18830589
v -0.24508596 -0.22389009 0.18830589
v -0.24508596 -0.21930738 0.18777715
v -0.24508596 -0.21930738 0.18777715
v -0.24508600 0.02405764 0.18777715
v -0.24508600 0.02405764 0.18777715
v -0.24508601 0.02864030 0.18830590
v -0.24508601 0.02864030 0.18830590
v -0.24508601 0.03284875 0.18981173
v -0.24508601 0.03284875 0.18981173
v -0.24508601 0.03656242 0.19217408
v -0.24508601 0.03656242 0.19217408
v -0.24508601 0.03966070 0.19527238
v -0.24508601 0.03966070 0.19527238
v -0.24508601 0.04202307 0.19898602
v -0.24508601 0.04202307 0.19898602
v -0.24708601 0.04475307 0.20161290
v -0.24708601 0.04475307 0.20161290
v -0.24508601 0.04405763 0.20777717
v -0.24508601 0.04405763 0.20777717
v -0.24508610 0.04405763 0.45222293
v -0.24508610 0.04405763 0.45222293
v -0.24508610 0.04352889 0.45680559
v -0.24508610 0.04352889 0.45680559
v -0.24508610 0.04202305 0.46101404
v -0.24508610 0.04202305 0.46101404
v -0.24508610 0.03966070 0.46472772
v -0.24508610 0.03966070 0.46472772
v -0.24508610 0.03656241 0.46782599
v -0.24508610 0.03656241 0.46782599
v -0.24508610 0.03284875 0.47018836
v -0.24508610 0.03284875 0.47018836
v -0.24508610 0.02864031 0.47169418
v -0.24508610 0.02864031 0.47169418
v -0.24508610 0.02405761 0.47222291
v -0.24508610 0.02405761 0.47222291
v -0.24508606 -0.21930739 0.47222291
v -0.24508606 -0.21930739 0.47222291
v -0.20908608 -0.37044624 0.62491915
v -0.20908608 -0.37044624 0.62491915
v -0.20708608 -0.36844624 0.62491915
v -0.20708608 -0.36844624 0.62491915
v -0.20908618 0.17519648 0.62491915
v -0.20908618 0.17519648 0.62491915
v -0.20908618 0.17319647 0.62691916
v -0.20908618 0.17319647 0.62691916
v -0.20908598 0.17319647 0.03308093
v -0.20908598 0.17319647 0.03308093
v -0.20908598 0.17319647 0.03308093
v -0.20908598 0.17519648 0.03508094
v -0.20908598 0.17519648 0.03508094
v -0.20908598 0.17519648 0.03508094
v -0.20908588 -0.36844624 0.03308093
v -0.20908588 -0.36844624 0.03308093
v -0.20708589 -0.36844624 0.03508094
v -0.20708589 -0.36844624 0.03508094
v -0.24708609 -0.36844624 0.62491914
v -0.24708609 -0.36844624 0.62491914
v -0.24508608 -0.37044625 0.62491914
v -0.24508608 -0.37044625 0.62491914
v -0.24708618 0.17319647 0.62491914
v -0.24708618 0.17319647 0.62491914
v -0.24508618 0.17319647 0.62691915
v -0.24508618 0.17319647 0.62691915
v -0.24708598 0.17397232 0.03466253
v -0.24708598 0.17397232 0.03466253
v -0.24708598 0.17397232 0.03466253
v -0.24708598 0.17397232 0.03466253
v -0.24508598 0.17519648 0.03508093
v -0.24508598 0.17519648 0.03508093
v -0.24508598 0.17519648 0.03508093
v -0.24708589 -0.36844624 0.03508093
v -0.24708589 -0.36844624 0.03508093
v -0.24508589 -0.36844624 0.03308092
v -0.24508589 -0.36844624 0.03308092
v -0.20708606 -0.22434754 0.47365466
v -0.20708606 -0.22434754 0.47365466
v -0.20908606 -0.22809852 0.47018835
v -0.20908606 -0.22809852 0.47018835
v -0.20908605 -0.23181219 0.46782600
v -0.20908605 -0.23181219 0.46782600
v -0.20908605 -0.23491047 0.46472770
v -0.20908605 -0.23491047 0.46472770
v -0.20908605 -0.23727284 0.46101406
v -0.20908605 -0.23727284 0.46101406
v -0.20908605 -0.23877868 0.45680559
v -0.20908605 -0.23877868 0.45680559
v -0.20908605 -0.23930740 0.45222291
v -0.20908605 -0.23930740 0.45222291
v -0.20908597 -0.23930740 0.20777719
v -0.20908597 -0.23930740 0.20777719
v -0.20908596 -0.23877866 0.20319451
v -0.20908596 -0.23877866 0.20319451
v -0.20908596 -0.23727282 0.19898605
v -0.20908596 -0.23727282 0.19898605
v -0.20908596 -0.23491047 0.19527239
v -0.20908596 -0.23491047 0.19527239
v -0.20908596 -0.23181218 0.19217411
v -0.20908596 -0.23181218 0.19217411
v -0.20908596 -0.22809852 0.18981172
v -0.20908596 -0.22809852 0.18981172
v -0.20908596 -0.22389008 0.18830590
v -0.20908596 -0.22389008 0.18830590
v -0.20908596 -0.21930738 0.18777717
v -0.20908596 -0.21930738 0.18777717
v -0.20908600 0.02405764 0.18777717
v -0.20908600 0.02405764 0.18777717
v -0.20908600 0.02864031 0.18830591
v -0.20908600 0.02864031 0.18830591
v -0.20908601 0.03284876 0.18981175
v -0.20908601 0.03284876 0.18981175
v -0.20908601 0.03656242 0.19217409
v -0.20908601 0.03656242 0.19217409
v -0.20908601 0.03966071 0.19527239
v -0.20908601 0.03966071 0.19527239
v -0.20908601 0.04202308 0.19898604
v -0.20908601 0.04202308 0.19898604
v -0.20908601 0.04352892 0.20319451
v -0.20908601 0.04352892 0.20319451
v -0.20908601 0.04405764 0.20777719
v -0.20908601 0.04405764 0.20777719
v -0.20908610 0.04405764 0.45222294
v -0.20908610 0.04405764 0.45222294
v -0.20908610 0.04352890 0.45680560
v -0.20908610 0.04352890 0.45680560
v -0.20908610 0.04202306 0.46101406
v -0.20908610 0.04202306 0.46101406
v -0.20908610 0.03966071 0.46472773
v -0.20908610 0.03966071 0.46472773
v -0.20908610 0.03656241 0.46782600
v -0.20908610 0.03656241 0.46782600
v -0.20908610 0.03284876 0.47018837
v -0.20908610 0.03284876 0.47018837
v -0.20908610 0.02864032 0.47169419
v -0.20908610 0.02864032 0.47169419
v -0.20908610 0.02405762 0.47222292
v -0.20908610 0.02405762 0.47222292
v -0.20708606 -0.21942239 0.47422292
v -0.20708606 -0.21942239 0.47422292
v -0.24708606 -0.22434754 0.47365464
v -0.24708606 -0.22434754 0.47365464
v -0.24708606 -0.22898310 0.47199599
v -0.24708606 -0.22898310 0.47199599
v -0.24708606 -0.23307104 0.46939556
v -0.24708606 -0.23307104 0.46939556
v -0.24708605 -0.23648006 0.46598654
v -0.24708605 -0.23648006 0.46598654
v -0.24708605 -0.23908051 0.46189863
v -0.24708605 -0.23908051 0.46189863
v -0.24708605 -0.24073918 0.45726304
v -0.24708605 -0.24073918 0.45726304
v -0.24708605 -0.24130740 0.45233789
v -0.24708605 -0.24130740 0.45233789
v -0.24708597 -0.24130740 0.20766217
v -0.24708597 -0.24130740 0.20766217
v -0.24708597 -0.24073916 0.20273702
v -0.24708597 -0.24073916 0.20273702
v -0.24708596 -0.23908049 0.19810147
v -0.24708596 -0.23908049 0.19810147
v -0.24708596 -0.23648006 0.19401353
v -0.24708596 -0.23648006 0.19401353
v -0.24708596 -0.23307103 0.19060453
v -0.24708596 -0.23307103 0.19060453
v -0.24708596 -0.22898311 0.18800404
v -0.24708596 -0.22898311 0.18800404
v -0.24708596 -0.22434755 0.18634541
v -0.24708596 -0.22434755 0.18634541
v -0.24708596 -0.21942239 0.18577716
v -0.24708596 -0.21942239 0.18577716
v -0.24708600 0.02417263 0.18577716
v -0.24708600 0.02417263 0.18577716
v -0.24708600 0.02909778 0.18634542
v -0.24708600 0.02909778 0.18634542
v -0.24708601 0.03373332 0.18800407
v -0.24708601 0.03373332 0.18800407
v -0.24708601 0.03782127 0.19060450
v -0.24708601 0.03782127 0.19060450
v -0.24708601 0.04123028 0.19401353
v -0.24708601 0.04123028 0.19401353
v -0.24708601 0.04383073 0.19810143
v -0.24708601 0.04383073 0.19810143
v -0.24508601 0.04352891 0.20319449
v -0.24508601 0.04352891 0.20319449
v -0.24708602 0.04605763 0.20766218
v -0.24708602 0.04605763 0.20766218
v -0.24708610 0.04605763 0.45233793
v -0.24708610 0.04605763 0.45233793
v -0.24708610 0.04548938 0.45726307
v -0.24708610 0.04548938 0.45726307
v -0.24708610 0.04383071 0.46189861
v -0.24708610 0.04383071 0.46189861
v -0.24708610 0.04123028 0.46598657
v -0.24708610 0.04123028 0.46598657
v -0.24708610 0.03782126 0.46939556
v -0.24708610 0.03782126 0.46939556
v -0.24708610 0.03373333 0.47199602
v -0.24708610 0.03373333 0.47199602
v -0.24708610 0.02909778 0.47365465
v -0.24708610 0.02909778 0.47365465
v -0.24708610 0.02417261 0.47422291
v -0.24708610 0.02417261 0.47422291
v -0.24708606 -0.21942240 0.47422291
v -0.24708606 -0.21942240 0.47422291
v -0.20908608 -0.37022402 0.62603028
v -0.20908608 -0.37022402 0.62603028
v -0.20908608 -0.36955736 0.62669693
v -0.20908608 -0.36955736 0.62669693
v -0.20730831 -0.36955736 0.62491915
v -0.20730831 -0.36955736 0.62491915
v -0.20797497 -0.37022402 0.62491915
v -0.20797497 -0.37022402 0.62491915
v -0.20797497 -0.36844624 0.62669693
v -0.20797497 -0.36844624 0.62669693
v -0.20730831 -0.36844624 0.62603028
v -0.20797506 0.17497426 0.62491915
v -0.20730840 0.17430760 0.62491915
v -0.20908618 0.17430760 0.62669693
v -0.20908618 0.17430760 0.62669693
v -0.20908618 0.17497426 0.62603028
v -0.20730840 0.17319647 0.62603028
v -0.20797506 0.17319647 0.62669693
v -0.20797506 0.17319647 0.62669693
v -0.20841931 0.17345509 0.03360812
v -0.20841931 0.17345509 0.03360812
v -0.20775264 0.17371373 0.03413535
v -0.20775264 0.17371373 0.03413535
v -0.20908598 0.17452983 0.03441428
v -0.20908598 0.17386313 0.03374759
v -0.20775264 0.17438038 0.03480201
v -0.20775264 0.17438038 0.03480201
v -0.20841931 0.17478842 0.03494148
v -0.20841931 0.17478842 0.03494148
v -0.20908588 -0.36955736 0.03330316
v -0.20908588 -0.36955736 0.03330316
v -0.20908588 -0.37022402 0.03396982
v -0.20908588 -0.37022402 0.03396982
v -0.20730811 -0.36844624 0.03396980
v -0.20797477 -0.36844624 0.03330314
v -0.20797477 -0.37022402 0.03508163
v -0.20797477 -0.37022402 0.03508163
v -0.20730811 -0.36955736 0.03508163
v -0.20730811 -0.36955736 0.03508163
v -0.24686387 -0.36844624 0.62603026
v -0.24619720 -0.36844624 0.62669692
v -0.24619720 -0.36844624 0.62669692
v -0.24619722 -0.37022403 0.62491914
v -0.24619722 -0.37022403 0.62491914
v -0.24686388 -0.36955737 0.62491914
v -0.24686388 -0.36955737 0.62491914
v -0.24508609 -0.36955737 0.62669692
v -0.24508609 -0.36955737 0.62669692
v -0.24508609 -0.37022402 0.62603026
v -0.24508609 -0.37022402 0.62603026
v -0.24686396 0.17430759 0.62491914
v -0.24619729 0.17497425 0.62491914
v -0.24619755 0.17319647 0.62669692
v -0.24619755 0.17319647 0.62669692
v -0.24686422 0.17319647 0.62603026
v -0.24508618 0.17497425 0.62603026
v -0.24508618 0.17430759 0.62669692
v -0.24508618 0.17430759 0.62669692
v -0.24641931 0.17371372 0.03413534
v -0.24641931 0.17371372 0.03413534
v -0.24575265 0.17345509 0.03360811
v -0.24575265 0.17345509 0.03360811
v -0.24575265 0.17478842 0.03494146
v -0.24575265 0.17478842 0.03494146
v -0.24641931 0.17438038 0.03480200
v -0.24641931 0.17438038 0.03480200
v -0.24508598 0.17386312 0.03374758
v -0.24508598 0.17452982 0.03441427
v -0.24686367 -0.36955737 0.03508162
v -0.24686367 -0.36955737 0.03508162
v -0.24619700 -0.37022403 0.03508162
v -0.24619700 -0.37022403 0.03508162
v -0.24619687 -0.36844624 0.03330315
v -0.24686354 -0.36844624 0.03396980
v -0.24508589 -0.37022402 0.03396980
v -0.24508589 -0.37022402 0.03396980
v -0.24508589 -0.36955737 0.03330315
v -0.24508589 -0.36955737 0.03330315
v -0.20797495 -0.22394089 0.47191201
v -0.20797495 -0.22394089 0.47191201
v -0.20730828 -0.22409338 0.47256549
v -0.20730828 -0.22409338 0.47256549
v -0.20730828 -0.22849166 0.47099175
v -0.20730828 -0.22849166 0.47099175
v -0.20797494 -0.22819681 0.47038920
v -0.20797494 -0.22819681 0.47038920
v -0.20730828 -0.23237169 0.46852358
v -0.20730828 -0.23237169 0.46852358
v -0.20797494 -0.23195207 0.46800039
v -0.20797494 -0.23195207 0.46800039
v -0.20730827 -0.23560806 0.46528719
v -0.20730827 -0.23560806 0.46528719
v -0.20797494 -0.23508486 0.46486758
v -0.20797494 -0.23508486 0.46486758
v -0.20730827 -0.23807624 0.46140720
v -0.20730827 -0.23807624 0.46140720
v -0.20797494 -0.23747369 0.46111234
v -0.20797494 -0.23747369 0.46111234
v -0.20730827 -0.23965001 0.45700890
v -0.20730827 -0.23965001 0.45700890
v -0.20797494 -0.23899652 0.45685642
v -0.20797494 -0.23899652 0.45685642
v -0.20730827 -0.24019628 0.45227402
v -0.20730827 -0.24019628 0.45227402
v -0.20797494 -0.23952962 0.45223569
v -0.20797494 -0.23952962 0.45223569
v -0.20730819 -0.24019628 0.20772608
v -0.20730819 -0.24019628 0.20772608
v -0.20797485 -0.23952962 0.20776441
v -0.20797485 -0.23952962 0.20776441
v -0.20730819 -0.23964999 0.20299119
v -0.20730819 -0.23964999 0.20299119
v -0.20797485 -0.23899650 0.20314368
v -0.20797485 -0.23899650 0.20314368
v -0.20730818 -0.23807622 0.19859290
v -0.20730818 -0.23807622 0.19859290
v -0.20797485 -0.23747367 0.19888777
v -0.20797485 -0.23747367 0.19888777
v -0.20730818 -0.23560806 0.19471290
v -0.20730818 -0.23560806 0.19471290
v -0.20797485 -0.23508486 0.19513251
v -0.20797485 -0.23508486 0.19513251
v -0.20730818 -0.23237167 0.19147653
v -0.20730818 -0.23237167 0.19147653
v -0.20797485 -0.23195205 0.19199972
v -0.20797485 -0.23195205 0.19199972
v -0.20730818 -0.22849166 0.18900831
v -0.20730818 -0.22849166 0.18900831
v -0.20797485 -0.22819681 0.18961086
v -0.20797485 -0.22819681 0.18961086
v -0.20730818 -0.22409339 0.18743458
v -0.20730818 -0.22409339 0.18743458
v -0.20797485 -0.22394090 0.18808807
v -0.20797485 -0.22394090 0.18808807
v -0.20730818 -0.21935849 0.18688829
v -0.20730818 -0.21935849 0.18688829
v -0.20797485 -0.21932016 0.18755494
v -0.20797485 -0.21932016 0.18755494
v -0.20730822 0.02410875 0.18688829
v -0.20730822 0.02410875 0.18688829
v -0.20797489 0.02407042 0.18755494
v -0.20797489 0.02407042 0.18755494
v -0.20730823 0.02884363 0.18743460
v -0.20730823 0.02884363 0.18743460
v -0.20797489 0.02869114 0.18808808
v -0.20797489 0.02869114 0.18808808
v -0.20730823 0.03324190 0.18900834
v -0.20730823 0.03324190 0.18900834
v -0.20797489 0.03294704 0.18961089
v -0.20797489 0.03294704 0.18961089
v -0.20730823 0.03712193 0.19147651
v -0.20730823 0.03712193 0.19147651
v -0.20797490 0.03670231 0.19199970
v -0.20797490 0.03670231 0.19199970
v -0.20730823 0.04035830 0.19471290
v -0.20730823 0.04035830 0.19471290
v -0.20797490 0.03983510 0.19513251
v -0.20797490 0.03983510 0.19513251
v -0.20730823 0.04282648 0.19859289
v -0.20730823 0.04282648 0.19859289
v -0.20797490 0.04222393 0.19888775
v -0.20797490 0.04222393 0.19888775
v -0.20730823 0.04407299 0.20249157
v -0.20730823 0.04407299 0.20249157
v -0.20797490 0.04366493 0.20301877
v -0.20797490 0.04366493 0.20301877
v -0.20730824 0.04494652 0.20772608
v -0.20730824 0.04494652 0.20772608
v -0.20797490 0.04427986 0.20776441
v -0.20797490 0.04427986 0.20776441
v -0.20730832 0.04494652 0.45227405
v -0.20730832 0.04494652 0.45227405
v -0.20797498 0.04427986 0.45223572
v -0.20797498 0.04427986 0.45223572
v -0.20730832 0.04440022 0.45700893
v -0.20730832 0.04440022 0.45700893
v -0.20797499 0.04374674 0.45685644
v -0.20797499 0.04374674 0.45685644
v -0.20730832 0.04282646 0.46140720
v -0.20730832 0.04282646 0.46140720
v -0.20797499 0.04222391 0.46111234
v -0.20797499 0.04222391 0.46111234
v -0.20730832 0.04035830 0.46528722
v -0.20730832 0.04035830 0.46528722
v -0.20797499 0.03983510 0.46486761
v -0.20797499 0.03983510 0.46486761
v -0.20730832 0.03712191 0.46852358
v -0.20730832 0.03712191 0.46852358
v -0.20797499 0.03670229 0.46800039
v -0.20797499 0.03670229 0.46800039
v -0.20730832 0.03324190 0.47099178
v -0.20730832 0.03324190 0.47099178
v -0.20797499 0.03294704 0.47038923
v -0.20797499 0.03294704 0.47038923
v -0.20730832 0.02884363 0.47256551
v -0.20730832 0.02884363 0.47256551
v -0.20797499 0.02869114 0.47191203
v -0.20797499 0.02869114 0.47191203
v -0.20730832 0.02410873 0.47311181
v -0.20730832 0.02410873 0.47311181
v -0.20797499 0.02407040 0.47244515
v -0.20797499 0.02407040 0.47244515
v -0.20797495 -0.21932017 0.47244515
v -0.20797495 -0.21932017 0.47244515
v -0.20730828 -0.21935849 0.47311181
v -0.20730828 -0.21935849 0.47311181
v -0.24619717 -0.22394090 0.47191199
v -0.24619717 -0.22394090 0.47191199
v -0.24686384 -0.22409339 0.47256548
v -0.24686384 -0.22409339 0.47256548
v -0.24619717 -0.22819681 0.47038919
v -0.24619717 -0.22819681 0.47038919
v -0.24686384 -0.22849167 0.47099174
v -0.24686384 -0.22849167 0.47099174
v -0.24619717 -0.23195208 0.46800038
v -0.24619717 -0.23195208 0.46800038
v -0.24686384 -0.23237169 0.46852357
v -0.24686384 -0.23237169 0.46852357
v -0.24619717 -0.23508487 0.46486756
v -0.24619717 -0.23508487 0.46486756
v -0.24686383 -0.23560806 0.46528718
v -0.24686383 -0.23560806 0.46528718
v -0.24619716 -0.23747370 0.46111233
v -0.24619716 -0.23747370 0.46111233
v -0.24686383 -0.23807625 0.46140719
v -0.24686383 -0.23807625 0.46140719
v -0.24619716 -0.23899653 0.45685640
v -0.24619716 -0.23899653 0.45685640
v -0.24686383 -0.23965001 0.45700889
v -0.24686383 -0.23965001 0.45700889
v -0.24619716 -0.23952963 0.45223568
v -0.24619716 -0.23952963 0.45223568
v -0.24686383 -0.24019629 0.45227401
v -0.24686383 -0.24019629 0.45227401
v -0.24619708 -0.23952963 0.20776440
v -0.24619708 -0.23952963 0.20776440
v -0.24686375 -0.24019629 0.20772607
v -0.24686375 -0.24019629 0.20772607
v -0.24619708 -0.23899651 0.20314367
v -0.24619708 -0.23899651 0.20314367
v -0.24686374 -0.23964999 0.20299118
v -0.24686374 -0.23964999 0.20299118
v -0.24619708 -0.23747368 0.19888776
v -0.24619708 -0.23747368 0.19888776
v -0.24686374 -0.23807623 0.19859289
v -0.24686374 -0.23807623 0.19859289
v -0.24619707 -0.23508487 0.19513250
v -0.24619707 -0.23508487 0.19513250
v -0.24686374 -0.23560806 0.19471288
v -0.24686374 -0.23560806 0.19471288
v -0.24619707 -0.23195206 0.19199971
v -0.24619707 -0.23195206 0.19199971
v -0.24686374 -0.23237167 0.19147651
v -0.24686374 -0.23237167 0.19147651
v -0.24619707 -0.22819681 0.18961085
v -0.24619707 -0.22819681 0.18961085
v -0.24686374 -0.22849167 0.18900830
v -0.24686374 -0.22849167 0.18900830
v -0.24619707 -0.22394091 0.18808805
v -0.24619707 -0.22394091 0.18808805
v -0.24686374 -0.22409340 0.18743457
v -0.24686374 -0.22409340 0.18743457
v -0.24619707 -0.21932016 0.18755493
v -0.24619707 -0.21932016 0.18755493
v -0.24686374 -0.21935850 0.18688827
v -0.24686374 -0.21935850 0.18688827
v -0.24619712 0.02407042 0.18755493
v -0.24619712 0.02407042 0.18755493
v -0.24686378 0.02410875 0.18688827
v -0.24686378 0.02410875 0.18688827
v -0.24619712 0.02869113 0.18808807
v -0.24619712 0.02869113 0.18808807
v -0.24686378 0.02884362 0.18743458
v -0.24686378 0.02884362 0.18743458
v -0.24619712 0.03294704 0.18961088
v -0.24619712 0.03294704 0.18961088
v -0.24686379 0.03324189 0.18900833
v -0.24686379 0.03324189 0.18900833
v -0.24619712 0.03670230 0.19199969
v -0.24619712 0.03670230 0.19199969
v -0.24686379 0.03712192 0.19147650
v -0.24686379 0.03712192 0.19147650
v -0.24619712 0.03983509 0.19513250
v -0.24619712 0.03983509 0.19513250
v -0.24686379 0.04035829 0.19471288
v -0.24686379 0.04035829 0.19471288
v -0.24619712 0.04222392 0.19888774
v -0.24619712 0.04222392 0.19888774
v -0.24686379 0.04282647 0.19859288
v -0.24686379 0.04282647 0.19859288
v -0.24686379 0.04407298 0.20249156
v -0.24686379 0.04407298 0.20249156
v -0.24619712 0.04366493 0.20301876
v -0.24619712 0.04366493 0.20301876
v -0.24619713 0.04427985 0.20776440
v -0.24619713 0.04427985 0.20776440
v -0.24686379 0.04494651 0.20772607
v -0.24686379 0.04494651 0.20772607
v -0.24619721 0.04427985 0.45223571
v -0.24619721 0.04427985 0.45223571
v -0.24686388 0.04494651 0.45227404
v -0.24686388 0.04494651 0.45227404
v -0.24619721 0.04374673 0.45685642
v -0.24619721 0.04374673 0.45685642
v -0.24686388 0.04440022 0.45700892
v -0.24686388 0.04440022 0.45700892
v -0.24619721 0.04222390 0.46111233
v -0.24619721 0.04222390 0.46111233
v -0.24686388 0.04282646 0.46140719
v -0.24686388 0.04282646 0.46140719
v -0.24619721 0.03983509 0.46486759
v -0.24619721 0.03983509 0.46486759
v -0.24686388 0.04035829 0.46528721
v -0.24686388 0.04035829 0.46528721
v -0.24619721 0.03670228 0.46800038
v -0.24619721 0.03670228 0.46800038
v -0.24686388 0.03712190 0.46852357
v -0.24686388 0.03712190 0.46852357
v -0.24619721 0.03294704 0.47038922
v -0.24619721 0.03294704 0.47038922
v -0.24686388 0.03324189 0.47099177
v -0.24686388 0.03324189 0.47099177
v -0.24619721 0.02869113 0.47191201
v -0.24619721 0.02869113 0.47191201
v -0.24686388 0.02884362 0.47256550
v -0.24686388 0.02884362 0.47256550
v -0.24619721 0.02407039 0.47244514
v -0.24619721 0.02407039 0.47244514
v -0.24686388 0.02410873 0.47311179
v -0.24686388 0.02410873 0.47311179
v -0.24619717 -0.21932017 0.47244514
v -0.24619717 -0.21932017 0.47244514
v -0.24686384 -0.21935850 0.47311179
v -0.24686384 -0.21935850 0.47311179
v -0.20809843 -0.37002647 0.62603028
v -0.20809843 -0.37002647 0.62603028
v -0.20809843 -0.37002647 0.62603028
v -0.20846880 -0.36943388 0.62669693
v -0.20846880 -0.36943388 0.62669693
v -0.20750584 -0.36943392 0.62603028
v -0.20750584 -0.36943392 0.62603028
v -0.20809843 -0.36906353 0.62669693
v -0.20809843 -0.36906353 0.62669693
v -0.20797506 0.17477671 0.62590683
v -0.20730840 0.17418412 0.62553644
v -0.20797506 0.17418416 0.62649939
v -0.20797506 0.17418416 0.62649939
v -0.20730840 0.17381377 0.62590679
v -0.20841931 0.17389954 0.03405258
v -0.20775264 0.17393592 0.03435754
v -0.20841931 0.17434397 0.03449701
v -0.20775264 0.17415816 0.03457977
v -0.20809750 -0.36955736 0.03350015
v -0.20809750 -0.36955736 0.03350015
v -0.20846787 -0.37022402 0.03409278
v -0.20846787 -0.37022402 0.03409278
v -0.20750491 -0.36955736 0.03409299
v -0.20750491 -0.36955736 0.03409299
v -0.20809750 -0.37022402 0.03446334
v -0.20809750 -0.37022402 0.03446334
v -0.24666635 -0.36943393 0.62603026
v -0.24666635 -0.36943393 0.62603026
v -0.24607375 -0.36906354 0.62669692
v -0.24607375 -0.36906354 0.62669692
v -0.24607376 -0.37002648 0.62603026
v -0.24607376 -0.37002648 0.62603026
v -0.24607376 -0.37002648 0.62603026
v -0.24570338 -0.36943389 0.62669692
v -0.24570338 -0.36943389 0.62669692
v -0.24666666 0.17430759 0.62590682
v -0.24607398 0.17497425 0.62553643
v -0.24607407 0.17430759 0.62649938
v -0.24607407 0.17430759 0.62649938
v -0.24570361 0.17497425 0.62590678
v -0.24597487 0.17398575 0.03422829
v -0.24553042 0.17359110 0.03365461
v -0.24553042 0.17425779 0.03432127
v -0.24530820 0.17372711 0.03370110
v -0.24666675 -0.36955737 0.03409300
v -0.24666675 -0.36955737 0.03409300
v -0.24607420 -0.37022403 0.03446337
v -0.24607420 -0.37022403 0.03446337
v -0.24607416 -0.36955737 0.03350018
v -0.24607416 -0.36955737 0.03350018
v -0.24570383 -0.37022403 0.03409277
v -0.24570383 -0.37022403 0.03409277
v -0.26763724 0.14024064 0.22968117
v -0.26799520 0.13914451 0.22915332
v -0.26781622 0.13969258 0.22941725
v -0.26640705 0.14068062 0.22925824
v -0.26702215 0.14046063 0.22946971
v -0.26850949 0.14089679 0.23063195
v -0.26807336 0.14056872 0.23015656
v -0.26763724 0.11746609 0.22968116
v -0.26799519 0.11856222 0.22915332
v -0.26781622 0.11801416 0.22941725
v -0.26850948 0.11680994 0.23063195
v -0.26807336 0.11713802 0.23015656
v -0.26640704 0.11702612 0.22925824
v -0.26702214 0.11724611 0.22946971
v -0.28672785 0.11039848 0.27206584
v -0.28598828 0.11000964 0.27068833
v -0.28635807 0.11020406 0.27137708
v -0.28760454 0.11147278 0.27194717
v -0.28716619 0.11093563 0.27200651
v -0.28659072 0.10971302 0.27356203
v -0.28665928 0.11005575 0.27281394
v -0.28497446 0.10824988 0.27230318
v -0.28672785 0.14730825 0.27206584
v -0.28760455 0.14623394 0.27194717
v -0.28716620 0.14677109 0.27200651
v -0.28598829 0.14769709 0.27068833
v -0.28635807 0.14750267 0.27137708
v -0.28497447 0.14945685 0.27230318
v -0.28659073 0.14799371 0.27356203
v -0.28665929 0.14765098 0.27281394
v -0.28667844 0.10640709 0.38475783
v -0.28820701 0.10791657 0.38475783
v -0.28744272 0.10716183 0.38475783
v -0.28514987 0.10489761 0.38475783
v -0.28591415 0.10565235 0.38475783
v -0.28667844 0.15129964 0.38475783
v -0.28514987 0.15280912 0.38475783
v -0.28591416 0.15205438 0.38475783
v -0.28820701 0.14979016 0.38475783
v -0.28744273 0.15054490 0.38475783
v -0.27776510 0.11180176 0.42742905
v -0.27845045 0.11119160 0.42644177
v -0.27810777 0.11149668 0.42693541
v -0.27818487 0.11286265 0.42793198
v -0.27797498 0.11233221 0.42768052
v -0.27665997 0.11135104 0.42791337
v -0.27721254 0.11157640 0.42767120
v -0.27776510 0.14590497 0.42742905
v -0.27818487 0.14484408 0.42793198
v -0.27797499 0.14537453 0.42768052
v -0.27845046 0.14651513 0.42644177
v -0.27810778 0.14621005 0.42693541
v -0.27665998 0.14635570 0.42791337
v -0.27721254 0.14613033 0.42767120
v -0.27044698 0.10978554 0.27182088
v -0.27194698 0.10826426 0.27182088
v -0.27119698 0.10902490 0.27182088
v -0.26894698 0.11130681 0.27182088
v -0.26969698 0.11054617 0.27182088
v -0.26517586 0.11745537 0.22975605
v -0.26481622 0.11679386 0.23074428
v -0.26499604 0.11712461 0.23025017
v -0.26459934 0.11854613 0.22926565
v -0.26488760 0.11800075 0.22951085
v -0.26611202 0.11702612 0.22925824
v -0.26564394 0.11724074 0.22950715
v -0.26517587 0.14025137 0.22975605
v -0.26459934 0.13916060 0.22926565
v -0.26488761 0.13970598 0.22951085
v -0.26481623 0.14091288 0.23074428
v -0.26499605 0.14058212 0.23025017
v -0.26611203 0.14068062 0.22925824
v -0.26564395 0.14046599 0.22950715
v -0.27044698 0.14792120 0.27182088
v -0.26894698 0.14639992 0.27182088
v -0.26969698 0.14716056 0.27182088
v -0.27194698 0.14944247 0.27182088
v -0.27119698 0.14868184 0.27182088
v -0.26894701 0.10704189 0.38475131
v -0.27044701 0.10661404 0.38474805
v -0.26969701 0.10682797 0.38474968
v -0.27194701 0.10523971 0.38773826
v -0.26894701 0.10656866 0.38624805
v -0.26894701 0.10680528 0.38549968
v -0.26744701 0.10794299 0.38325783
v -0.26819701 0.10749244 0.38400457
v -0.26894702 0.15066484 0.38475131
v -0.27044702 0.15109270 0.38474805
v -0.26969702 0.15087877 0.38474968
v -0.26744702 0.14976374 0.38325783
v -0.26819701 0.15021429 0.38400457
v -0.26894702 0.15113808 0.38624805
v -0.26894702 0.15090146 0.38549968
v -0.27194702 0.15246703 0.38773826
v -0.26894703 0.11135104 0.42791338
v -0.26894703 0.11302208 0.42940359
v -0.26894703 0.11218656 0.42865849
v -0.26894703 0.10967999 0.42642316
v -0.26894703 0.11051551 0.42716826
v -0.26894703 0.14635570 0.42791338
v -0.26894703 0.14802675 0.42642316
v -0.26894703 0.14719122 0.42716826
v -0.26894703 0.14468465 0.42940359
v -0.26894703 0.14552017 0.42865849
v -0.24184011 0.10713299 0.38675132
v -0.24134011 0.10807963 0.38625784
v -0.24159011 0.10760631 0.38650458
v -0.24284011 0.10656866 0.38624806
v -0.24234011 0.10685083 0.38649969
v -0.24134011 0.10675068 0.38774806
v -0.24159011 0.10694184 0.38724969
v -0.24184011 0.15057375 0.38675132
v -0.24134012 0.14962711 0.38625784
v -0.24159012 0.15010043 0.38650458
v -0.24134012 0.15095606 0.38774806
v -0.24159012 0.15076491 0.38724969
v -0.24284012 0.15113808 0.38624806
v -0.24234012 0.15085592 0.38649969
v -0.24184013 0.14590690 0.42741013
v -0.24134013 0.14651803 0.42641339
v -0.24159013 0.14621246 0.42691176
v -0.24134013 0.14484698 0.42790360
v -0.24159013 0.14537694 0.42765687
v -0.24284013 0.14635570 0.42791338
v -0.24234013 0.14613130 0.42766176
v -0.24184012 0.11179984 0.42741013
v -0.24134012 0.11285977 0.42790360
v -0.24159012 0.11232980 0.42765687
v -0.24134012 0.11118872 0.42641339
v -0.24159012 0.11149428 0.42691176
v -0.24284012 0.11135104 0.42791338
v -0.24234012 0.11157544 0.42766176
v -0.27009763 0.13936069 0.23052703
v -0.26904641 0.13925260 0.22984017
v -0.26930356 0.14012874 0.23057949
v -0.26855989 0.13991066 0.22999837
v -0.27009763 0.11834605 0.23052703
v -0.26930356 0.11757799 0.23057949
v -0.26904641 0.11845413 0.22984017
v -0.26855989 0.11779608 0.22999837
v -0.28700210 0.11176941 0.26907347
v -0.28730332 0.11162110 0.27051032
v -0.28649519 0.11088953 0.26988089
v -0.28683069 0.11091258 0.27094370
v -0.28700211 0.14593732 0.26907347
v -0.28649520 0.14681720 0.26988089
v -0.28730333 0.14608563 0.27051032
v -0.28683070 0.14679415 0.27094370
v -0.28820698 0.14653057 0.27482088
v -0.28790576 0.14638226 0.27338402
v -0.28739885 0.14726214 0.27419146
v -0.28728253 0.14701662 0.27309898
v -0.28820698 0.11117616 0.27482088
v -0.28739885 0.11044459 0.27419146
v -0.28790576 0.11132447 0.27338402
v -0.28728252 0.11069011 0.27309898
v -0.27997535 0.11270322 0.42646037
v -0.27908011 0.11278294 0.42719618
v -0.27921290 0.11194741 0.42645107
v -0.27859394 0.11213981 0.42706579
v -0.27997535 0.14500351 0.42646037
v -0.27921291 0.14575932 0.42645107
v -0.27908011 0.14492380 0.42719618
v -0.27859395 0.14556692 0.42706579
v -0.26330354 0.11831387 0.23075169
v -0.26395144 0.11843000 0.23000867
v -0.26405988 0.11755386 0.23074799
v -0.26447374 0.11777731 0.23012941
v -0.26330355 0.13939287 0.23075169
v -0.26405989 0.14015287 0.23074799
v -0.26395145 0.13927674 0.23000867
v -0.26447375 0.13992943 0.23012941
v -0.26894701 0.10798837 0.38175783
v -0.26969701 0.10730120 0.38325294
v -0.26819701 0.10796568 0.38250783
v -0.26894701 0.10739682 0.38362876
v -0.26894702 0.14971836 0.38175783
v -0.26819702 0.14974105 0.38250783
v -0.26969702 0.15040553 0.38325294
v -0.26894701 0.15030991 0.38362876
v -0.23984012 0.11269744 0.42640360
v -0.24059012 0.11194308 0.42640850
v -0.24059012 0.11277861 0.42715360
v -0.24109012 0.11213644 0.42703268
v -0.23984011 0.10826165 0.38775784
v -0.24059011 0.10817064 0.38700784
v -0.24059011 0.10750617 0.38775295
v -0.24109011 0.10755624 0.38712877
v -0.23984012 0.14944509 0.38775784
v -0.24059012 0.15020058 0.38775295
v -0.24059012 0.14953610 0.38700784
v -0.24109011 0.15015050 0.38712877
v -0.23984013 0.14500930 0.42640360
v -0.24059013 0.14492814 0.42715360
v -0.24059013 0.14576366 0.42640850
v -0.24109013 0.14557030 0.42703268
v -0.26589276 0.11877840 0.22777961
v -0.26694398 0.11867031 0.22846647
v -0.26614990 0.11790226 0.22851893
v -0.26698306 0.11795821 0.22896809
v -0.26589276 0.13892834 0.22777961
v -0.26614990 0.13980448 0.22851893
v -0.26694398 0.13903643 0.22846647
v -0.26698306 0.13974853 0.22896809
v -0.26589514 0.13892834 0.22777961
v -0.26524724 0.13904447 0.22852263
v -0.26600359 0.13980448 0.22851893
v -0.26544560 0.13975523 0.22901490
v -0.26589514 0.11877840 0.22777961
v -0.26600358 0.11790226 0.22851893
v -0.26524724 0.11866227 0.22852263
v -0.26544559 0.11795150 0.22901490
v -0.28548137 0.10912976 0.27149576
v -0.26692133 0.11527384 0.23073688
v -0.26666419 0.11614998 0.22999755
v -0.26771541 0.11604189 0.23068441
v -0.26736877 0.11664400 0.23007706
v -0.26632890 0.11527384 0.23073688
v -0.26557256 0.11603385 0.23074057
v -0.26622046 0.11614998 0.22999755
v -0.26560825 0.11663730 0.23012386
v -0.26692134 0.14243289 0.23073688
v -0.26771541 0.14166484 0.23068441
v -0.26666419 0.14155676 0.22999755
v -0.26736878 0.14106274 0.23007706
v -0.28548138 0.14857697 0.27149576
v -0.26632891 0.14243289 0.23073688
v -0.26622047 0.14155676 0.22999755
v -0.26557257 0.14167289 0.23074057
v -0.26560826 0.14106944 0.23012386
v -0.28578259 0.10898145 0.27293261
v -0.27119701 0.10592687 0.38624315
v -0.28578260 0.14872528 0.27293261
v -0.27119702 0.15177986 0.38624315
v -0.27692556 0.10967999 0.42642316
v -0.27768800 0.11043579 0.42643246
v -0.27679276 0.11051551 0.42716826
v -0.27745027 0.11100610 0.42705183
v -0.27639439 0.14468465 0.42940359
v -0.27728963 0.14476436 0.42866778
v -0.27652719 0.14552017 0.42865849
v -0.27725109 0.14544735 0.42816949
v -0.27639439 0.11302208 0.42940359
v -0.27652718 0.11218656 0.42865849
v -0.27728963 0.11294237 0.42866778
v -0.27725108 0.11225938 0.42816950
v -0.27692556 0.14802675 0.42642316
v -0.27679277 0.14719122 0.42716826
v -0.27768801 0.14727094 0.42643246
v -0.27745028 0.14670064 0.42705183
v -0.26594701 0.10789761 0.38475783
v -0.26669701 0.10792030 0.38400783
v -0.26744701 0.10723313 0.38550294
v -0.26782201 0.10736279 0.38475376
v -0.26594702 0.14980913 0.38475783
v -0.26744702 0.15047360 0.38550294
v -0.26669702 0.14978643 0.38400783
v -0.26782202 0.15034395 0.38475376
v -0.24284012 0.14980913 0.38475784
v -0.24209012 0.14971812 0.38550784
v -0.24284012 0.15047361 0.38550295
v -0.24221511 0.15028702 0.38600377
v -0.24284011 0.10789761 0.38475784
v -0.24284011 0.10723314 0.38550295
v -0.24209011 0.10798862 0.38550784
v -0.24221511 0.10741972 0.38600377
v -0.27044702 0.15180255 0.38699316
v -0.24284013 0.14802675 0.42642317
v -0.24209013 0.14727239 0.42641827
v -0.24284013 0.14719123 0.42716827
v -0.24221513 0.14670185 0.42704002
v -0.24284012 0.15246703 0.38773827
v -0.24284012 0.15180256 0.38699316
v -0.24209012 0.15171155 0.38774316
v -0.24221511 0.15128373 0.38712142
v -0.24284012 0.11302209 0.42940360
v -0.24209012 0.11294093 0.42865360
v -0.24284012 0.11218657 0.42865850
v -0.24221512 0.11225819 0.42815768
v -0.24284013 0.14468465 0.42940360
v -0.24284013 0.14552018 0.42865850
v -0.24209013 0.14476581 0.42865360
v -0.24221513 0.14544856 0.42815768
v -0.27044701 0.10590418 0.38699316
v -0.24284011 0.10523971 0.38773827
v -0.24209011 0.10599520 0.38774316
v -0.24284011 0.10590419 0.38699316
v -0.24221511 0.10642301 0.38712142
v -0.24284012 0.10967999 0.42642317
v -0.24284012 0.11051552 0.42716827
v -0.24209012 0.11043436 0.42641827
v -0.24221512 0.11100490 0.42704002
v -0.28607034 0.14811397 0.27215485
v -0.28607033 0.10959276 0.27215485
v -0.27044701 0.10614080 0.38624479
v -0.27044702 0.15156593 0.38624479
f 172 11 1
f 1 154 172
f 180 14 153
f 153 161 180
f 183 15 156
f 156 162 183
f 169 19 10
f 10 149 169
f 87 85 21
f 21 188 87
f 89 87 188
f 188 190 89
f 91 89 190
f 190 192 91
f 93 91 192
f 192 194 93
f 95 93 194
f 194 196 95
f 97 95 196
f 196 198 97
f 99 97 198
f 198 200 99
f 101 99 200
f 200 202 101
f 103 101 202
f 202 204 103
f 105 103 204
f 204 206 105
f 107 105 206
f 206 208 107
f 109 107 208
f 208 210 109
f 111 109 210
f 210 212 111
f 113 111 212
f 212 214 113
f 115 113 214
f 214 216 115
f 117 115 216
f 216 218 117
f 119 117 218
f 218 220 119
f 121 119 220
f 220 222 121
f 123 121 222
f 222 224 123
f 125 123 224
f 224 226 125
f 292 125 226
f 226 228 292
f 129 292 228
f 228 230 129
f 131 129 230
f 230 232 131
f 133 131 232
f 232 234 133
f 135 133 234
f 234 236 135
f 137 135 236
f 236 238 137
f 139 137 238
f 238 240 139
f 141 139 240
f 240 242 141
f 143 141 242
f 242 244 143
f 145 143 244
f 244 246 145
f 147 145 246
f 246 83 147
f 85 147 83
f 83 21 85
f 5 62 60
f 5 60 58
f 5 58 56
f 5 56 54
f 5 54 52
f 5 52 50
f 5 50 48
f 5 48 46
f 5 46 44
f 164 5 44
f 164 44 42
f 164 42 40
f 164 40 38
f 164 38 36
f 164 36 34
f 164 34 32
f 64 62 5
f 66 64 5
f 68 66 5
f 68 5 3
f 70 68 3
f 72 70 3
f 74 72 3
f 76 74 3
f 78 76 3
f 80 78 3
f 247 80 3
f 185 247 3
f 22 185 3
f 22 3 150
f 24 22 150
f 26 24 150
f 28 26 150
f 30 28 150
f 32 30 150
f 164 32 150
f 174 126 293
f 174 293 295
f 174 295 297
f 170 174 297
f 170 297 299
f 170 299 301
f 170 301 303
f 170 303 305
f 170 305 307
f 170 307 309
f 170 309 311
f 170 311 249
f 170 249 251
f 166 170 251
f 166 251 253
f 166 253 255
f 166 255 257
f 166 257 259
f 166 259 261
f 181 166 261
f 181 261 263
f 181 263 265
f 181 265 267
f 181 267 269
f 181 269 271
f 181 271 273
f 289 126 174
f 287 289 174
f 285 287 174
f 283 285 174
f 281 283 174
f 279 281 174
f 277 279 174
f 275 277 174
f 273 275 174
f 181 273 174
f 2 654 321
f 4 660 329
f 8 664 338
f 9 672 349
f 12 680 359
f 13 686 368
f 17 690 379
f 18 698 388
f 331 155 2
f 2 321 331
f 369 173 155
f 155 326 369
f 353 12 173
f 173 365 353
f 315 2 12
f 12 359 315
f 341 160 152
f 152 324 341
f 380 178 159
f 159 336 380
f 364 13 179
f 179 376 364
f 347 163 157
f 157 332 347
f 389 184 163
f 163 342 389
f 373 16 184
f 184 385 373
f 320 148 9
f 9 349 320
f 384 18 168
f 168 356 384
f 398 187 20
f 20 392 398
f 520 84 86
f 86 524 520
f 402 189 187
f 187 398 402
f 524 86 88
f 88 528 524
f 406 191 189
f 189 402 406
f 528 88 90
f 90 532 528
f 410 193 191
f 191 406 410
f 532 90 92
f 92 536 532
f 414 195 193
f 193 410 414
f 536 92 94
f 94 540 536
f 418 197 195
f 195 414 418
f 540 94 96
f 96 544 540
f 422 199 197
f 197 418 422
f 544 96 98
f 98 548 544
f 426 201 199
f 199 422 426
f 548 98 100
f 100 552 548
f 430 203 201
f 201 426 430
f 552 100 102
f 102 556 552
f 434 205 203
f 203 430 434
f 556 102 104
f 104 560 556
f 438 207 205
f 205 434 438
f 560 104 106
f 106 564 560
f 442 209 207
f 207 438 442
f 564 106 108
f 108 568 564
f 446 211 209
f 209 442 446
f 568 108 110
f 110 572 568
f 450 213 211
f 211 446 450
f 572 110 112
f 112 576 572
f 454 215 213
f 213 450 454
f 576 112 114
f 114 580 576
f 458 217 215
f 215 454 458
f 580 114 116
f 116 584 580
f 462 219 217
f 217 458 462
f 584 116 118
f 118 588 584
f 466 221 219
f 219 462 466
f 588 118 120
f 120 592 588
f 470 223 221
f 221 466 470
f 592 120 122
f 122 596 592
f 474 225 223
f 223 470 474
f 596 122 124
f 124 600 596
f 478 227 225
f 225 474 478
f 600 124 291
f 291 606 600
f 482 229 227
f 227 478 482
f 606 291 128
f 128 608 606
f 486 231 229
f 229 482 486
f 608 128 130
f 130 612 608
f 490 233 231
f 231 486 490
f 612 130 132
f 132 616 612
f 494 235 233
f 233 490 494
f 616 132 134
f 134 620 616
f 498 237 235
f 235 494 498
f 620 134 136
f 136 624 620
f 502 239 237
f 237 498 502
f 624 136 138
f 138 628 624
f 506 241 239
f 239 502 506
f 628 138 140
f 140 632 628
f 510 243 241
f 241 506 510
f 632 140 142
f 142 636 632
f 514 245 243
f 243 510 514
f 636 142 144
f 144 640 636
f 516 82 245
f 245 514 516
f 640 144 146
f 146 644 640
f 392 20 82
f 82 516 392
f 644 146 84
f 84 520 644
f 2 315 650
f 647 651 316
f 316 313 647
f 320 649 314
f 314 148 320
f 2 650 654
f 652 655 651
f 651 647 652
f 318 653 648
f 648 319 318
f 323 322 655
f 655 652 323
f 151 323 652
f 652 317 151
f 4 325 657
f 656 657 325
f 325 324 656
f 328 656 324
f 324 152 328
f 4 657 660
f 659 660 657
f 657 656 659
f 327 659 656
f 656 328 327
f 330 329 660
f 660 659 330
f 155 331 658
f 658 326 155
f 8 335 662
f 661 662 335
f 335 333 661
f 337 661 333
f 333 158 337
f 8 662 664
f 663 664 662
f 662 661 663
f 336 663 661
f 661 337 336
f 340 338 664
f 664 663 340
f 159 340 663
f 663 336 159
f 9 345 668
f 666 667 344
f 344 343 666
f 347 665 342
f 342 163 347
f 9 668 672
f 670 671 667
f 667 666 670
f 346 669 665
f 665 347 346
f 351 348 671
f 671 670 351
f 165 350 669
f 669 346 165
f 12 353 675
f 673 676 354
f 354 352 673
f 357 673 352
f 352 167 357
f 12 675 680
f 677 681 676
f 676 673 677
f 355 678 674
f 674 358 355
f 361 360 681
f 681 677 361
f 168 362 679
f 679 356 168
f 13 364 683
f 682 683 364
f 364 363 682
f 367 682 363
f 363 171 367
f 13 683 686
f 685 686 683
f 683 682 685
f 366 685 682
f 682 367 366
f 370 368 686
f 686 685 370
f 173 369 684
f 684 365 173
f 17 374 688
f 687 688 374
f 374 372 687
f 377 687 372
f 372 177 377
f 17 688 690
f 689 690 688
f 688 687 689
f 375 689 687
f 687 377 375
f 380 379 690
f 690 689 380
f 178 380 689
f 689 375 178
f 18 384 694
f 692 693 383
f 383 382 692
f 386 691 381
f 381 182 386
f 18 694 698
f 696 697 693
f 693 692 696
f 385 695 691
f 691 386 385
f 390 387 697
f 697 696 390
f 184 389 695
f 695 385 184
f 329 330 322
f 322 323 329
f 4 329 323
f 323 151 4
f 368 370 327
f 327 328 368
f 13 368 328
f 328 152 13
f 352 354 366
f 366 367 352
f 167 352 367
f 367 171 167
f 313 316 360
f 360 361 313
f 148 314 362
f 362 168 148
f 339 341 324
f 324 325 339
f 6 339 325
f 325 4 6
f 379 380 336
f 336 337 379
f 17 379 337
f 337 158 17
f 363 364 376
f 376 378 363
f 171 363 378
f 378 175 171
f 346 347 332
f 332 334 346
f 165 346 334
f 334 7 165
f 387 390 343
f 343 344 387
f 18 388 345
f 345 9 18
f 371 373 385
f 385 386 371
f 176 371 386
f 386 182 176
f 318 319 348
f 348 351 318
f 151 317 350
f 350 165 151
f 382 383 355
f 355 358 382
f 182 381 357
f 357 167 182
f 396 397 391
f 391 394 396
f 23 395 393
f 393 186 23
f 522 519 523
f 523 526 522
f 250 521 525
f 525 252 250
f 400 401 397
f 397 396 400
f 25 399 395
f 395 23 25
f 526 523 527
f 527 530 526
f 252 525 529
f 529 254 252
f 404 405 401
f 401 400 404
f 27 403 399
f 399 25 27
f 530 527 531
f 531 534 530
f 254 529 533
f 533 256 254
f 408 409 405
f 405 404 408
f 29 407 403
f 403 27 29
f 534 531 535
f 535 538 534
f 256 533 537
f 537 258 256
f 412 413 409
f 409 408 412
f 31 411 407
f 407 29 31
f 538 535 539
f 539 542 538
f 258 537 541
f 541 260 258
f 416 417 413
f 413 412 416
f 33 415 411
f 411 31 33
f 542 539 543
f 543 546 542
f 260 541 545
f 545 262 260
f 420 421 417
f 417 416 420
f 35 419 415
f 415 33 35
f 546 543 547
f 547 550 546
f 262 545 549
f 549 264 262
f 424 425 421
f 421 420 424
f 37 423 419
f 419 35 37
f 550 547 551
f 551 554 550
f 264 549 553
f 553 266 264
f 428 429 425
f 425 424 428
f 39 427 423
f 423 37 39
f 554 551 555
f 555 558 554
f 266 553 557
f 557 268 266
f 432 433 429
f 429 428 432
f 41 431 427
f 427 39 41
f 558 555 559
f 559 562 558
f 268 557 561
f 561 270 268
f 436 437 433
f 433 432 436
f 43 435 431
f 431 41 43
f 562 559 563
f 563 566 562
f 270 561 565
f 565 272 270
f 440 441 437
f 437 436 440
f 45 439 435
f 435 43 45
f 566 563 567
f 567 570 566
f 272 565 569
f 569 274 272
f 444 445 441
f 441 440 444
f 47 443 439
f 439 45 47
f 570 567 571
f 571 574 570
f 274 569 573
f 573 276 274
f 448 449 445
f 445 444 448
f 49 447 443
f 443 47 49
f 574 571 575
f 575 578 574
f 276 573 577
f 577 278 276
f 452 453 449
f 449 448 452
f 51 451 447
f 447 49 51
f 578 575 579
f 579 582 578
f 278 577 581
f 581 280 278
f 456 457 453
f 453 452 456
f 53 455 451
f 451 51 53
f 582 579 583
f 583 586 582
f 280 581 585
f 585 282 280
f 460 461 457
f 457 456 460
f 55 459 455
f 455 53 55
f 586 583 587
f 587 590 586
f 282 585 589
f 589 284 282
f 464 465 461
f 461 460 464
f 57 463 459
f 459 55 57
f 590 587 591
f 591 594 590
f 284 589 593
f 593 286 284
f 468 469 465
f 465 464 468
f 59 467 463
f 463 57 59
f 594 591 595
f 595 598 594
f 286 593 597
f 597 288 286
f 472 473 469
f 469 468 472
f 61 471 467
f 467 59 61
f 598 595 599
f 599 602 598
f 288 597 601
f 601 290 288
f 476 477 473
f 473 472 476
f 63 475 471
f 471 61 63
f 602 599 605
f 605 604 602
f 290 601 603
f 603 127 290
f 480 481 477
f 477 476 480
f 65 479 475
f 475 63 65
f 604 605 607
f 607 610 604
f 127 603 609
f 609 294 127
f 484 485 481
f 481 480 484
f 67 483 479
f 479 65 67
f 610 607 611
f 611 614 610
f 294 609 613
f 613 296 294
f 488 489 485
f 485 484 488
f 69 487 483
f 483 67 69
f 614 611 615
f 615 618 614
f 296 613 617
f 617 298 296
f 492 493 489
f 489 488 492
f 71 491 487
f 487 69 71
f 618 615 619
f 619 622 618
f 298 617 621
f 621 300 298
f 496 497 493
f 493 492 496
f 73 495 491
f 491 71 73
f 622 619 623
f 623 626 622
f 300 621 625
f 625 302 300
f 500 501 497
f 497 496 500
f 75 499 495
f 495 73 75
f 626 623 627
f 627 630 626
f 302 625 629
f 629 304 302
f 504 505 501
f 501 500 504
f 77 503 499
f 499 75 77
f 630 627 631
f 631 634 630
f 304 629 633
f 633 306 304
f 508 509 505
f 505 504 508
f 79 507 503
f 503 77 79
f 634 631 635
f 635 638 634
f 306 633 637
f 637 308 306
f 512 513 509
f 509 508 512
f 81 511 507
f 507 79 81
f 638 635 639
f 639 642 638
f 308 637 641
f 641 310 308
f 518 515 513
f 513 512 518
f 248 517 511
f 511 81 248
f 642 639 643
f 643 646 642
f 310 641 645
f 645 312 310
f 394 391 515
f 515 518 394
f 186 393 517
f 517 248 186
f 646 643 519
f 519 522 646
f 312 645 521
f 521 250 312
f 831 835 839
f 831 839 843
f 847 851 730
f 847 730 737
f 737 730 855
f 737 855 859
f 756 863 867
f 756 867 773
f 871 756 773
f 871 773 875
f 879 883 887
f 879 887 891
f 895 899 903
f 895 903 907
f 720 912 916
f 720 916 754
f 920 726 775
f 920 775 925
f 732 720 754
f 732 754 780
f 726 735 792
f 726 792 775
f 933 732 780
f 933 780 796
f 937 941 794
f 937 794 801
f 735 945 799
f 735 799 792
f 949 953 957
f 949 957 961
f 792 799 966
f 792 966 970
f 801 794 974
f 801 974 978
f 796 780 983
f 796 983 987
f 831 833 834
f 831 834 832
f 832 834 701
f 832 701 700
f 833 704 705
f 833 705 834
f 834 705 699
f 834 699 701
f 835 837 838
f 835 838 836
f 836 838 710
f 836 710 709
f 837 707 708
f 837 708 838
f 838 708 706
f 838 706 710
f 839 841 842
f 839 842 840
f 840 842 717
f 840 717 716
f 841 714 715
f 841 715 842
f 842 715 713
f 842 713 717
f 843 845 846
f 843 846 844
f 844 846 725
f 844 725 724
f 845 722 723
f 845 723 846
f 846 723 721
f 846 721 725
f 847 849 850
f 847 850 848
f 848 850 723
f 848 723 722
f 849 727 728
f 849 728 850
f 850 728 721
f 850 721 723
f 851 853 854
f 851 854 852
f 852 854 719
f 852 719 718
f 853 716 717
f 853 717 854
f 854 717 713
f 854 713 719
f 855 857 858
f 855 858 856
f 856 858 743
f 856 743 742
f 857 740 741
f 857 741 858
f 858 741 739
f 858 739 743
f 859 861 862
f 859 862 860
f 860 862 750
f 860 750 749
f 861 747 748
f 861 748 862
f 862 748 746
f 862 746 750
f 863 865 866
f 863 866 864
f 864 866 762
f 864 762 761
f 865 759 760
f 865 760 866
f 866 760 758
f 866 758 762
f 867 869 870
f 867 870 868
f 868 870 769
f 868 769 768
f 869 766 767
f 869 767 870
f 870 767 765
f 870 765 769
f 871 873 874
f 871 874 872
f 872 874 779
f 872 779 778
f 873 783 784
f 873 784 874
f 874 784 777
f 874 777 779
f 875 877 878
f 875 878 876
f 876 878 789
f 876 789 788
f 877 786 787
f 877 787 878
f 878 787 785
f 878 785 789
f 879 881 882
f 879 882 880
f 880 882 828
f 880 828 827
f 881 825 826
f 881 826 882
f 882 826 824
f 882 824 828
f 883 885 886
f 883 886 884
f 884 886 805
f 884 805 804
f 885 808 809
f 885 809 886
f 886 809 803
f 886 803 805
f 887 889 890
f 887 890 888
f 888 890 814
f 888 814 813
f 889 811 812
f 889 812 890
f 890 812 810
f 890 810 814
f 891 893 894
f 891 894 892
f 892 894 821
f 892 821 820
f 893 818 819
f 893 819 894
f 894 819 817
f 894 817 821
f 895 897 898
f 895 898 896
f 896 898 708
f 896 708 707
f 897 711 712
f 897 712 898
f 898 712 706
f 898 706 708
f 899 901 902
f 899 902 900
f 900 902 703
f 900 703 702
f 901 700 701
f 901 701 902
f 902 701 699
f 902 699 703
f 903 905 906
f 903 906 904
f 904 906 767
f 904 767 766
f 905 770 771
f 905 771 906
f 906 771 765
f 906 765 767
f 907 909 910
f 907 910 908
f 908 910 764
f 908 764 763
f 909 761 762
f 909 762 910
f 910 762 758
f 910 758 764
f 912 914 915
f 912 915 913
f 913 915 712
f 913 712 711
f 914 709 710
f 914 710 915
f 915 710 706
f 915 706 712
f 916 918 919
f 916 919 917
f 917 919 760
f 917 760 759
f 918 763 764
f 918 764 919
f 919 764 758
f 919 758 760
f 920 922 923
f 920 923 921
f 921 923 705
f 921 705 704
f 922 702 703
f 922 703 923
f 923 703 699
f 923 699 705
f 925 927 928
f 925 928 926
f 926 928 771
f 926 771 770
f 927 768 769
f 927 769 928
f 928 769 765
f 928 765 771
f 933 935 936
f 933 936 934
f 934 936 741
f 934 741 740
f 935 744 745
f 935 745 936
f 936 745 739
f 936 739 741
f 937 939 940
f 937 940 938
f 938 940 748
f 938 748 747
f 939 751 752
f 939 752 940
f 940 752 746
f 940 746 748
f 941 943 944
f 941 944 942
f 942 944 745
f 942 745 744
f 943 742 743
f 943 743 944
f 944 743 739
f 944 739 745
f 945 947 948
f 945 948 946
f 946 948 752
f 946 752 751
f 947 749 750
f 947 750 948
f 948 750 746
f 948 746 752
f 949 951 952
f 949 952 950
f 950 952 784
f 950 784 783
f 951 781 782
f 951 782 952
f 952 782 777
f 952 777 784
f 953 955 956
f 953 956 954
f 954 956 791
f 954 791 790
f 955 788 789
f 955 789 956
f 956 789 785
f 956 785 791
f 957 959 960
f 957 960 958
f 958 960 812
f 958 812 811
f 959 815 816
f 959 816 960
f 960 816 810
f 960 810 812
f 961 963 964
f 961 964 962
f 962 964 807
f 962 807 806
f 963 804 805
f 963 805 964
f 964 805 803
f 964 803 807
f 966 968 969
f 966 969 967
f 967 969 819
f 967 819 818
f 968 822 823
f 968 823 969
f 969 823 817
f 969 817 819
f 970 972 973
f 970 973 971
f 971 973 816
f 971 816 815
f 972 813 814
f 972 814 973
f 973 814 810
f 973 810 816
f 974 976 977
f 974 977 975
f 975 977 826
f 975 826 825
f 976 829 830
f 976 830 977
f 977 830 824
f 977 824 826
f 978 980 981
f 978 981 979
f 979 981 823
f 979 823 822
f 980 820 821
f 980 821 981
f 981 821 817
f 981 817 823
f 983 985 986
f 983 986 984
f 984 986 809
f 984 809 808
f 985 806 807
f 985 807 986
f 986 807 803
f 986 803 809
f 987 989 990
f 987 990 988
f 988 990 830
f 988 830 829
f 989 827 828
f 989 828 990
f 990 828 824
f 990 824 830
f 835 831 832
f 835 832 837
f 837 832 700
f 837 700 707
f 839 835 836
f 839 836 841
f 841 836 709
f 841 709 714
f 843 839 840
f 843 840 845
f 845 840 716
f 845 716 722
f 831 843 844
f 831 844 833
f 833 844 724
f 833 724 704
f 851 847 848
f 851 848 853
f 853 848 722
f 853 722 716
f 730 851 852
f 730 852 731
f 731 852 718
f 731 718 729
f 847 737 738
f 847 738 849
f 849 738 734
f 849 734 727
f 855 730 731
f 855 731 857
f 857 731 729
f 857 729 740
f 859 855 856
f 859 856 861
f 861 856 742
f 861 742 747
f 737 859 860
f 737 860 738
f 738 860 749
f 738 749 734
f 863 756 757
f 863 757 865
f 865 757 753
f 865 753 759
f 867 863 864
f 867 864 869
f 869 864 761
f 869 761 766
f 773 867 868
f 773 868 774
f 774 868 768
f 774 768 772
f 756 871 872
f 756 872 757
f 757 872 778
f 757 778 753
f 875 773 774
f 875 774 877
f 877 774 772
f 877 772 786
f 871 875 876
f 871 876 873
f 873 876 788
f 873 788 783
f 883 879 880
f 883 880 885
f 885 880 827
f 885 827 808
f 887 883 884
f 887 884 889
f 889 884 804
f 889 804 811
f 891 887 888
f 891 888 893
f 893 888 813
f 893 813 818
f 879 891 892
f 879 892 881
f 881 892 820
f 881 820 825
f 899 895 896
f 899 896 901
f 901 896 707
f 901 707 700
f 903 899 905
f 899 900 905
f 905 900 702
f 905 702 770
f 907 903 904
f 907 904 909
f 909 904 766
f 909 766 761
f 895 907 897
f 907 908 897
f 897 908 763
f 897 763 711
f 912 720 911
f 912 911 914
f 914 911 714
f 914 714 709
f 916 912 913
f 916 913 918
f 918 913 711
f 918 711 763
f 754 916 917
f 754 917 755
f 755 917 759
f 755 759 753
f 726 920 921
f 726 921 924
f 924 921 704
f 924 704 724
f 925 775 776
f 925 776 927
f 927 776 772
f 927 772 768
f 920 925 926
f 920 926 922
f 922 926 770
f 922 770 702
f 720 732 733
f 720 733 929
f 929 733 729
f 929 729 718
f 780 754 755
f 780 755 930
f 930 755 753
f 930 753 778
f 735 726 931
f 735 931 736
f 736 931 727
f 736 727 734
f 775 792 932
f 775 932 776
f 776 932 786
f 776 786 772
f 732 933 934
f 732 934 733
f 733 934 740
f 733 740 729
f 933 796 797
f 933 797 935
f 935 797 793
f 935 793 744
f 941 937 938
f 941 938 943
f 943 938 747
f 943 747 742
f 794 941 942
f 794 942 795
f 795 942 744
f 795 744 793
f 937 801 802
f 937 802 939
f 939 802 798
f 939 798 751
f 945 735 736
f 945 736 947
f 947 736 734
f 947 734 749
f 799 945 946
f 799 946 800
f 800 946 751
f 800 751 798
f 953 949 950
f 953 950 955
f 955 950 783
f 955 783 788
f 957 953 954
f 957 954 959
f 959 954 790
f 959 790 815
f 961 957 958
f 961 958 963
f 963 958 811
f 963 811 804
f 949 961 962
f 949 962 951
f 951 962 806
f 951 806 781
f 966 799 800
f 966 800 968
f 968 800 798
f 968 798 822
f 970 966 967
f 970 967 972
f 972 967 818
f 972 818 813
f 792 970 971
f 792 971 965
f 965 971 815
f 965 815 790
f 974 794 795
f 974 795 976
f 976 795 793
f 976 793 829
f 978 974 975
f 978 975 980
f 980 975 825
f 980 825 820
f 801 978 979
f 801 979 802
f 802 979 822
f 802 822 798
f 983 780 982
f 983 982 985
f 985 982 781
f 985 781 806
f 987 983 984
f 987 984 989
f 989 984 808
f 989 808 827
f 796 987 988
f 796 988 797
f 797 988 829
f 797 829 793
f 726 924 991
f 726 991 931
f 931 991 728
f 931 728 727
f 924 724 725
f 924 725 991
f 991 725 721
f 991 721 728
f 720 929 992
f 720 992 911
f 911 992 715
f 911 715 714
f 929 718 719
f 929 719 992
f 992 719 713
f 992 713 715
f 780 930 993
f 780 993 982
f 982 993 782
f 982 782 781
f 930 778 779
f 930 779 993
f 993 779 777
f 993 777 782
f 792 965 994
f 792 994 932
f 932 994 787
f 932 787 786
f 965 790 791
f 965 791 994
f 994 791 785
f 994 785 787
