# https://github.com/mikedh/trimesh
v 10.10075188 2.91374084 -1.38669700
v 10.10075188 2.88625042 -1.38669700
v 10.10075188 2.92749252 -1.42504723
v 8.00292282 2.91374084 -1.38669700
v 8.00292282 2.88625042 -1.38669700
v 10.10075188 2.88570921 -1.38803482
v 8.00292282 2.92749252 -1.42504723
v 10.10075188 2.92764899 -2.37309977
v 7.96194134 2.90915694 -1.39115632
v 7.96194134 2.89083432 -1.39115632
v 8.00292282 2.87250529 -1.42504723
v 10.10075188 2.87250529 -1.42504723
v 7.95395521 2.91374084 -1.42504723
v 8.00292282 2.92749252 -5.94145184
v 7.97034768 2.91838985 -5.94145184
v 7.95374510 2.91374084 -4.37489083
v 10.10075188 2.92764899 -5.37467149
v 7.95395521 2.88625042 -1.42504723
v 8.78934594 2.86104228 -2.82527534
v 8.78976630 2.86104228 -2.27544052
v 8.79985402 2.86104228 -2.22371233
v 8.80216578 2.86104228 -2.22103682
v 8.85281469 2.86104228 -2.19918605
v 7.95374510 2.88625042 -4.37489083
v 8.00292282 2.87250529 -5.94145184
v 8.78850529 2.86104228 -4.47477973
v 8.86689547 2.86104228 -2.20141572
v 8.89968064 2.86104228 -2.22638798
v 8.90010092 2.86104228 -2.22683397
v 8.90745658 2.86104228 -2.27499468
v 8.90913788 2.86104228 -3.92405308
v 10.10075188 2.87250529 -5.94145184
v 10.10075188 2.92764243 -5.42461602
v 10.10075188 2.92749252 -5.94145184
v 7.95374510 2.91374084 -5.94145184
v 8.90682604 2.86103572 -2.82527534
v 7.95374510 2.88625042 -5.94145184
v 8.85281469 2.86104228 -4.52695385
v 8.80868080 2.86104228 -4.51892704
v 8.78892565 2.86104228 -4.48057688
v 8.90913788 2.86104228 -3.92494495
v 8.90661594 2.86104228 -4.47477973
v 8.89652815 2.86104228 -4.51535962
v 8.89526721 2.86104228 -4.51714329
f 1 2 6
f 1 6 12
f 1 12 32
f 1 32 34
f 1 34 33
f 1 33 17
f 1 17 8
f 1 8 3
f 1 3 7
f 1 7 4
f 1 4 5
f 1 5 2
f 2 5 6
f 3 8 7
f 4 9 10
f 4 10 5
f 4 7 9
f 5 10 11
f 5 11 6
f 6 11 12
f 7 13 9
f 7 8 17
f 7 17 14
f 7 14 15
f 7 15 16
f 7 16 13
f 9 13 18
f 9 18 10
f 10 18 11
f 11 19 20
f 11 20 21
f 11 21 22
f 11 22 23
f 11 23 12
f 11 18 24
f 11 24 37
f 11 37 25
f 11 25 26
f 11 26 19
f 12 23 27
f 12 27 28
f 12 28 29
f 12 29 30
f 12 30 31
f 12 31 41
f 12 41 32
f 13 16 24
f 13 24 18
f 14 17 33
f 14 33 34
f 14 34 32
f 14 32 25
f 14 25 37
f 14 37 35
f 14 35 15
f 15 35 16
f 16 35 37
f 16 37 24
f 19 36 20
f 19 26 36
f 20 36 21
f 21 36 22
f 22 36 23
f 23 36 27
f 25 32 38
f 25 38 39
f 25 39 40
f 25 40 26
f 26 40 36
f 27 36 28
f 28 36 29
f 29 36 30
f 30 36 31
f 31 36 41
f 32 41 42
f 32 42 43
f 32 43 44
f 32 44 38
f 36 40 39
f 36 39 38
f 36 38 44
f 36 44 43
f 36 43 42
f 36 42 41

