# https://github.com/mikedh/trimesh
v 8.73915070 0.53054094 -3.78555653
v 8.73915070 0.53054094 -3.78365323
v 8.74023215 0.53054094 -3.80880914
v 8.75475028 0.25410164 -3.77896915
v 8.74634506 0.53054094 -3.76576859
v 8.74369012 0.53054094 -3.81238349
v 8.75559212 0.27502063 -3.81380290
v 8.75707501 0.25410164 -3.81231897
v 8.79901061 0.25410164 -3.77896915
v 8.80116048 0.53054094 -3.74922594
v 8.75543022 0.53054094 -3.75093569
v 8.74924609 0.53054094 -3.81351902
v 8.75541726 0.37501504 -3.81424164
v 8.75550145 0.32500428 -3.81402226
v 8.79862206 0.27502063 -3.81380290
v 8.79379133 0.53054094 -3.81513844
v 8.79704850 0.25410164 -3.81231897
v 8.79901061 0.25410164 -3.79626667
v 8.80529831 0.53054094 -3.77342698
v 8.75541726 0.47498247 -3.81424164
v 8.79874507 0.32500428 -3.81402226
v 8.79873859 0.53054094 -3.81422227
v 8.79893938 0.52499324 -3.81424164
v 8.79886167 0.37501504 -3.81424164
f 1 2 5
f 1 5 11
f 1 11 10
f 1 10 19
f 1 19 22
f 1 22 16
f 1 16 12
f 1 12 6
f 1 6 3
f 1 3 4
f 1 4 2
f 2 4 5
f 3 6 7
f 3 7 4
f 4 7 8
f 4 8 17
f 4 17 18
f 4 18 9
f 4 9 10
f 4 10 11
f 4 11 5
f 6 12 13
f 6 13 14
f 6 14 7
f 7 15 17
f 7 17 8
f 7 14 16
f 7 16 15
f 9 18 19
f 9 19 10
f 12 16 20
f 12 20 13
f 13 20 16
f 13 16 14
f 15 18 17
f 15 16 21
f 15 21 19
f 15 19 18
f 16 22 23
f 16 23 24
f 16 24 21
f 19 21 24
f 19 24 23
f 19 23 22

