# https://github.com/mikedh/trimesh
v 11.62614515 1.67785854 -6.13065429
v 11.62642678 1.63054817 -6.13065429
v 11.62614515 1.67785854 -6.32786419
v 11.00685891 1.67785854 -6.13065429
v 11.62727167 0.03947541 -6.13065429
v 11.62642678 1.62493505 -6.17502430
v 11.62586366 1.52486152 -6.37499463
v 11.62558203 1.67785854 -6.37499463
v 11.62642678 1.57489828 -6.22500235
v 11.62642678 1.42494840 -6.32498752
v 10.76973334 0.95841972 -6.13065429
v 8.85273393 1.67785854 -6.17252537
v 8.85273393 0.03947541 -6.13385059
v 11.62699004 0.03947541 -6.28947983
v 11.62699004 0.22502827 -6.27500946
v 10.74607708 0.03947541 -6.13065429
v 11.62614515 0.87486473 -6.37499463
v 11.60164406 1.12488818 -6.41346616
v 11.60136243 1.67785854 -6.41352427
v 11.62670841 0.62500165 -6.32498752
v 10.76776199 0.95088212 -6.13065429
v 8.80570302 1.67785854 -6.18191087
v 8.80288685 0.03947541 -6.13803484
v 8.82231871 0.03947541 -6.13568120
v 10.76381930 0.92490149 -6.13065429
v 11.62670841 0.03947541 -6.32498752
v 11.62614515 0.27506504 -6.37499463
v 11.60164406 1.02497502 -6.41346616
v 11.60136243 0.03947541 -6.41358238
v 11.55264188 0.03947541 -6.42723930
v 11.55264188 1.67785854 -6.42712307
v 8.80288685 1.67785854 -6.18249201
v 8.78232846 0.03947541 -6.14262574
v 11.62642678 0.03947541 -6.33945789
v 11.62586366 0.12511508 -6.37499463
v 11.60164406 0.32510181 -6.41343695
v 11.62558203 0.03947541 -6.37499463
v 11.53799761 0.03947541 -6.42729742
v 11.54982571 1.67785854 -6.42715198
v 8.77528796 1.67785854 -6.19623595
v 8.75332141 0.03947541 -6.17322275
v 11.50251332 1.67785854 -6.42729742
v 11.50251332 0.03947541 -6.42738444
v 8.77275327 1.67785854 -6.22500235
v 8.75022361 0.03947541 -6.22558350
v 11.45266625 1.67785854 -6.42741364
v 11.45266625 0.03947541 -6.42744255
v 11.45266625 0.12511508 -6.42744255
v 8.77275327 1.67785854 -6.37499463
v 8.77528796 1.67785854 -6.40376103
v 8.77528796 0.82514871 -6.40376103
v 8.77528796 0.77511195 -6.40373212
v 8.77556959 0.03947541 -6.40341234
v 11.40253754 1.67785854 -6.42747176
v 11.40253754 0.03947541 -6.42747176
v 8.80119706 1.67785854 -6.41672057
v 8.80288685 1.07485142 -6.41750497
v 8.80288685 0.97493826 -6.41747606
v 8.80288685 0.07507846 -6.41712737
v 8.80288685 0.03947541 -6.41709816
v 9.15294271 1.67785854 -6.42750067
v 9.90290149 0.03947541 -6.42747176
v 9.15294271 0.32510181 -6.42750067
v 8.80288685 1.67785854 -6.41750497
v 8.85273393 1.12488818 -6.42750067
v 8.85273393 0.27506504 -6.42747176
v 8.85273393 0.17515199 -6.42744255
v 8.85273393 0.03947541 -6.42738444
v 8.85273393 1.67785854 -6.42750067
v 9.48835426 0.03947541 -6.42744255
v 9.50299860 0.12511508 -6.42747176
v 9.10281404 0.32510181 -6.42750067
v 8.90286263 0.37513857 -6.42750067
v 9.05296697 0.22502827 -6.42747176
v 9.08845126 0.03947541 -6.42741364
v 8.95299119 0.07507846 -6.42741364
f 1 2 3
f 1 3 8
f 1 8 19
f 1 19 31
f 1 31 39
f 1 39 42
f 1 42 46
f 1 46 54
f 1 54 61
f 1 61 69
f 1 69 64
f 1 64 56
f 1 56 50
f 1 50 49
f 1 49 44
f 1 44 40
f 1 40 32
f 1 32 22
f 1 22 12
f 1 12 4
f 1 4 11
f 1 11 21
f 1 21 25
f 1 25 16
f 1 16 5
f 1 5 2
f 2 5 6
f 2 6 3
f 3 7 8
f 3 6 9
f 3 9 10
f 3 10 7
f 4 12 13
f 4 13 11
f 5 14 15
f 5 15 10
f 5 10 9
f 5 9 6
f 5 16 13
f 5 13 24
f 5 24 23
f 5 23 33
f 5 33 41
f 5 41 45
f 5 45 53
f 5 53 60
f 5 60 68
f 5 68 75
f 5 75 70
f 5 70 62
f 5 62 55
f 5 55 47
f 5 47 43
f 5 43 38
f 5 38 30
f 5 30 29
f 5 29 37
f 5 37 34
f 5 34 26
f 5 26 14
f 7 10 17
f 7 17 18
f 7 18 19
f 7 19 8
f 10 15 20
f 10 20 17
f 11 13 21
f 12 22 23
f 12 23 24
f 12 24 13
f 13 16 25
f 13 25 21
f 14 20 15
f 14 26 20
f 17 27 28
f 17 28 18
f 17 20 26
f 17 26 27
f 18 28 29
f 18 29 30
f 18 30 19
f 19 30 31
f 22 32 23
f 23 32 33
f 26 34 27
f 27 35 29
f 27 29 36
f 27 36 28
f 27 34 35
f 28 36 29
f 29 35 37
f 30 38 39
f 30 39 31
f 32 40 33
f 33 40 41
f 34 37 35
f 38 42 39
f 38 43 42
f 40 44 41
f 41 44 45
f 42 43 46
f 43 47 48
f 43 48 46
f 44 49 45
f 45 49 50
f 45 50 51
f 45 51 52
f 45 52 53
f 46 48 54
f 47 55 54
f 47 54 48
f 50 56 51
f 51 56 57
f 51 57 58
f 51 58 59
f 51 59 52
f 52 59 53
f 53 59 60
f 54 55 63
f 54 63 61
f 55 62 72
f 55 72 63
f 56 64 57
f 57 64 69
f 57 69 65
f 57 65 66
f 57 66 67
f 57 67 58
f 58 67 59
f 59 67 68
f 59 68 60
f 61 63 72
f 61 72 73
f 61 73 65
f 61 65 69
f 62 70 67
f 62 67 71
f 62 71 72
f 65 73 66
f 66 73 72
f 66 72 74
f 66 74 67
f 67 75 76
f 67 76 68
f 67 74 71
f 67 70 75
f 68 76 75
f 71 74 72

