# https://github.com/mikedh/trimesh
v 8.99581013 0.72500209 -1.77250018
v 8.99581013 0.70012929 -1.77250018
v 8.99581013 0.76716955 -1.78630104
v 8.85270338 0.72500209 -1.77250018
v 8.65274154 0.70012929 -1.77250018
v 8.65274154 0.70012072 -1.89994849
v 8.99581013 0.70012929 -1.90120317
v 8.65274154 0.76716955 -1.78630104
v 8.99581013 0.78332658 -1.81965298
v 8.65274154 0.72500209 -1.77260479
v 8.60273040 0.72500209 -1.78232810
v 8.60273040 0.70012929 -1.78232810
v 8.57514805 0.70012929 -1.79612881
v 8.57490069 0.70012929 -1.82247585
v 8.58108512 0.70012929 -2.62490886
v 8.58223952 0.70012929 -2.67498899
v 8.59333015 0.70012929 -2.72402365
v 8.61678965 0.70012929 -2.76573968
v 8.65274154 0.70012929 -2.78895011
v 8.70275260 0.70012929 -2.78874104
v 8.75276366 0.70012929 -2.77995867
v 8.79931147 0.70012929 -2.76448508
v 8.81691637 0.70012929 -2.72151437
v 8.99581013 0.70219064 -2.84059858
v 8.65274154 0.78591819 -1.82508967
v 8.60273040 0.76128486 -1.79121500
v 8.99581013 0.78591819 -1.82508967
v 8.57601388 0.75359556 -1.79738349
v 8.57514805 0.72500209 -1.79612881
v 8.57465333 0.72270984 -1.82728520
v 8.57514805 0.74151839 -2.84059858
v 8.60705949 0.70604811 -2.84059858
v 8.63629103 0.70052276 -2.84059858
v 8.65274154 0.70041152 -2.84059858
v 8.70275260 0.70030036 -2.84059858
v 8.99581013 0.78749198 -2.84059858
v 8.99581013 0.78727815 -1.86816491
v 8.65274154 0.78749198 -1.87506519
v 8.60273040 0.77339630 -1.82508967
v 8.57514805 0.75542594 -1.82508967
v 8.57510685 0.75545157 -2.52495752
v 8.57514805 0.75545157 -2.84059858
v 8.65274154 0.78749198 -2.84059858
v 8.99581013 0.78750055 -2.62490886
v 8.99581013 0.78749198 -1.87506519
v 8.60273040 0.77420886 -1.87506519
v 8.99581013 0.78750055 -2.61800843
v 8.57514805 0.75545157 -1.87506519
v 8.60273040 0.77420886 -2.84059858
f 1 2 7
f 1 7 24
f 1 24 36
f 1 36 44
f 1 44 47
f 1 47 45
f 1 45 37
f 1 37 27
f 1 27 9
f 1 9 3
f 1 3 8
f 1 8 4
f 1 4 5
f 1 5 2
f 2 5 6
f 2 6 7
f 3 9 8
f 4 8 10
f 4 10 5
f 5 10 11
f 5 11 12
f 5 12 6
f 6 12 13
f 6 13 14
f 6 14 15
f 6 15 16
f 6 16 17
f 6 17 18
f 6 18 19
f 6 19 20
f 6 20 21
f 6 21 22
f 6 22 23
f 6 23 7
f 7 23 24
f 8 9 25
f 8 25 26
f 8 26 10
f 9 27 25
f 10 26 11
f 11 26 28
f 11 28 29
f 11 29 13
f 11 13 12
f 13 29 30
f 13 30 14
f 14 30 31
f 14 31 15
f 15 31 16
f 16 31 32
f 16 32 17
f 17 32 33
f 17 33 18
f 18 33 34
f 18 34 19
f 19 34 35
f 19 35 20
f 20 35 21
f 21 35 22
f 22 35 24
f 22 24 23
f 24 35 34
f 24 34 33
f 24 33 32
f 24 32 31
f 24 31 42
f 24 42 49
f 24 49 43
f 24 43 36
f 25 27 37
f 25 37 38
f 25 38 39
f 25 39 26
f 26 39 28
f 28 39 40
f 28 40 29
f 29 40 30
f 30 40 41
f 30 41 42
f 30 42 31
f 36 43 44
f 37 45 38
f 38 46 39
f 38 45 47
f 38 47 44
f 38 44 43
f 38 43 49
f 38 49 46
f 39 46 40
f 40 46 48
f 40 48 41
f 41 49 42
f 41 48 46
f 41 46 49

