# https://github.com/mikedh/trimesh
v 8.80140456 0.22683370 -3.22355036
v 8.79935878 0.18589588 -3.17498739
v 8.79682841 0.18877628 -3.22498810
v 8.79652085 0.22499415 -3.26175634
v 8.79661406 0.22710803 -3.26188949
v 8.80139055 0.22710803 -3.22376337
v 8.80027214 0.22400576 -2.98989453
v 8.79950794 0.18595236 -2.98989453
v 8.79948931 0.18589991 -3.02501210
v 8.79944737 0.18589991 -3.07501273
v 8.75601129 0.18589588 -3.17498739
v 8.75845315 0.18877628 -3.22498810
v 8.78878521 0.19443604 -3.25589900
v 8.75869551 0.22499415 -3.26175634
v 8.75860231 0.22710803 -3.26188949
v 8.75382112 0.22710803 -3.22360356
v 8.75543812 0.22400576 -2.98989453
v 8.75618839 0.18595236 -2.98989453
v 8.75614175 0.18589991 -3.02501210
v 8.75380242 0.22683370 -3.22355036
v 8.75595072 0.18589991 -3.07501273
v 8.75590415 0.18589991 -3.12501344
v 8.76652429 0.19443604 -3.25589900
v 8.75543812 0.21499368 -2.98989453
f 1 2 3
f 1 3 4
f 1 4 5
f 1 5 6
f 1 6 7
f 1 7 8
f 1 8 9
f 1 9 10
f 1 10 2
f 2 11 12
f 2 12 3
f 2 10 9
f 2 9 19
f 2 19 11
f 3 12 23
f 3 23 13
f 3 13 4
f 4 14 15
f 4 15 5
f 4 13 23
f 4 23 14
f 5 15 16
f 5 16 6
f 6 16 7
f 7 17 24
f 7 24 18
f 7 18 8
f 7 16 17
f 8 18 19
f 8 19 9
f 11 20 12
f 11 19 21
f 11 21 22
f 11 22 20
f 12 14 23
f 12 20 14
f 14 20 15
f 15 20 16
f 16 20 17
f 17 20 24
f 18 24 20
f 18 20 21
f 18 21 19
f 20 22 21

