# https://github.com/mikedh/trimesh
v 11.18695601 0.07182375 -2.27395935
v 11.18695601 0.96875208 -2.27395935
v 10.77491679 0.95421588 -2.27395935
v 10.85273163 0.97183554 -2.27395935
v 10.80276542 0.96654961 -2.27395935
v 10.77515737 0.95389532 -3.34610531
v 10.80273964 0.96570762 -3.34610531
v 11.18695616 0.80059808 -3.34610531
v 10.85298458 0.96089522 -3.34610531
v 11.18695601 0.95254200 -2.95285277
v 11.18695601 0.96126372 -2.92498633
v 11.18695601 0.96743061 -2.87493004
v 10.85273163 0.97104265 -2.87493004
v 11.18695616 0.07191122 -3.34610531
v 10.77818178 0.11688547 -3.34610531
v 10.82076499 0.07191122 -3.34610531
v 10.80318325 0.08486108 -3.34610531
v 10.80304795 0.08451001 -2.27395935
v 10.82076469 0.07182375 -3.18460989
v 10.82048365 0.07182375 -2.27395935
v 10.77814557 0.11666582 -2.27395935
v 10.77758052 0.14150949 -2.27395935
v 10.77761718 0.14182241 -3.34610531
v 10.77467464 0.92496724 -2.27395935
v 10.77507675 0.92493334 -3.34610531
f 2 3 1
f 4 3 2
f 5 3 4
f 5 6 3
f 7 6 5
f 7 8 6
f 9 8 7
f 9 10 8
f 9 11 10
f 9 12 11
f 9 7 12
f 12 7 13
f 12 13 2
f 12 2 11
f 11 2 8
f 10 11 8
f 2 1 8
f 14 8 1
f 14 15 8
f 16 15 14
f 17 15 16
f 17 18 15
f 17 19 18
f 17 16 19
f 16 14 19
f 19 14 1
f 20 19 1
f 18 19 20
f 18 20 21
f 18 21 15
f 22 15 21
f 22 23 15
f 24 23 22
f 24 25 23
f 24 6 25
f 24 3 6
f 24 22 3
f 22 21 3
f 21 1 3
f 20 1 21
f 25 6 23
f 23 6 15
f 6 8 15
f 13 4 2
f 7 4 13
f 7 5 4

