# https://github.com/mikedh/trimesh
v 8.79896665 1.88809738 -3.37499088
v 8.80435268 1.89093847 -3.32828423
v 8.77642470 1.89802271 -3.34712790
v 8.82208275 1.89558749 -3.29675072
v 8.85271746 1.88197244 -3.32500944
v 8.85271746 1.89462815 -3.29609578
v 8.88059076 1.89728477 -3.29806065
v 8.88985906 1.89186089 -3.32500944
v 8.85271746 1.87370751 -3.37499088
v 8.81312887 1.89086467 -3.41105449
v 8.77642470 1.89802271 -3.35833037
v 8.77570020 1.92503140 -3.36269679
v 8.78093587 1.92503140 -3.38769431
v 8.77634266 1.95421701 -3.35860329
v 8.77634266 1.95421701 -3.34697777
v 8.77570020 1.92503140 -3.34558601
v 8.79433254 1.92503140 -3.32058845
v 8.81933513 1.92503140 -3.29516792
v 8.85271746 1.92503140 -3.29223425
v 8.88202611 1.92503140 -3.29709185
v 8.88059076 1.95561909 -3.29806065
v 8.90273627 1.92503140 -3.32500944
v 8.91535375 1.92503140 -3.37499088
v 8.83964690 2.77528012 -3.34811406
v 8.83955005 2.77497196 -3.34793041
v 8.82577847 2.77528012 -3.34788995
v 8.83942614 2.77528012 -3.35582694
v 8.89462989 1.92503140 -3.41531172
v 8.85271746 1.92503140 -3.43163106
v 8.82577847 2.77528012 -3.35562753
v 8.82217849 1.95949329 -3.29680530
v 8.80593846 1.92503140 -3.41630778
v 8.85271746 1.88636322 -3.41595302
v 8.88903882 1.89097535 -3.41022215
v 8.89618833 1.88713808 -3.37499088
f 2 3 1
f 2 4 3
f 5 4 2
f 5 6 4
f 5 7 6
f 5 8 7
f 5 9 8
f 5 2 9
f 2 1 9
f 1 10 9
f 1 11 10
f 1 3 11
f 12 11 3
f 12 13 11
f 12 14 13
f 12 15 14
f 16 15 12
f 16 17 15
f 16 3 17
f 16 12 3
f 4 17 3
f 4 18 17
f 4 19 18
f 6 19 4
f 6 7 19
f 20 19 7
f 20 21 19
f 20 22 21
f 20 7 22
f 8 22 7
f 23 22 8
f 24 22 23
f 24 25 22
f 24 26 25
f 24 27 26
f 24 23 27
f 27 23 28
f 27 28 29
f 27 29 30
f 27 30 26
f 26 30 14
f 26 14 15
f 26 15 17
f 26 17 18
f 26 18 31
f 26 31 19
f 26 19 25
f 21 25 19
f 21 22 25
f 31 18 19
f 14 30 13
f 32 13 30
f 32 10 13
f 32 29 10
f 32 30 29
f 33 10 29
f 33 9 10
f 34 9 33
f 34 35 9
f 34 23 35
f 34 28 23
f 34 29 28
f 34 33 29
f 35 23 8
f 35 8 9
f 11 13 10

