# https://github.com/mikedh/trimesh
v 8.75954145 0.53056799 -2.89281107
v 8.79436920 0.52496828 -2.89297267
v 8.79410805 0.53056799 -2.89297267
v 8.74652484 0.53056799 -2.92500116
v 8.76145193 0.27500678 -2.89297267
v 8.79436279 0.27500678 -2.89297267
v 8.79657897 0.53056799 -2.89654612
v 8.76301208 0.53056799 -2.98986599
v 8.75544028 0.22403615 -2.98989453
v 8.75544028 0.21499577 -2.98989453
v 8.75195050 0.22501442 -2.92500116
v 8.76938665 0.22501442 -2.89642259
v 8.78624970 0.22501442 -2.89642259
v 8.80394059 0.22501442 -2.92500116
v 8.81074185 0.53056799 -2.92500116
v 8.80031707 0.53056799 -2.98986599
v 8.80027252 0.22403615 -2.98989453
v 8.75618541 0.18595161 -2.98989453
v 8.75620449 0.18598529 -2.97499217
v 8.76678849 0.19296812 -2.92500116
v 8.77746159 0.19991713 -2.89991058
v 8.77800921 0.19991713 -2.89991058
v 8.78882887 0.19296812 -2.92500116
v 8.79951472 0.18598529 -2.97499217
v 8.79950831 0.18595161 -2.98989453
v 8.81157609 0.53056799 -2.93058000
f 1 2 3
f 1 3 7
f 1 7 15
f 1 15 26
f 1 26 16
f 1 16 8
f 1 8 4
f 1 4 5
f 1 5 6
f 1 6 2
f 2 7 3
f 2 6 7
f 4 8 9
f 4 9 10
f 4 10 11
f 4 11 5
f 5 11 12
f 5 12 13
f 5 13 6
f 6 13 14
f 6 14 15
f 6 15 7
f 8 16 17
f 8 17 9
f 9 17 25
f 9 25 18
f 9 18 10
f 10 18 11
f 11 18 19
f 11 19 20
f 11 20 21
f 11 21 12
f 12 21 22
f 12 22 13
f 13 22 14
f 14 22 23
f 14 23 24
f 14 24 25
f 14 25 26
f 14 26 15
f 16 26 17
f 17 26 25
f 18 25 24
f 18 24 19
f 19 24 23
f 19 23 20
f 20 23 22
f 20 22 21

