# https://github.com/mikedh/trimesh
v 8.90754338 2.86102872 -3.37499885
v 8.89705088 2.86102872 -3.41637495
v 8.90753198 2.86102872 -3.37470765
v 8.83965123 2.77533987 -3.34812259
v 8.83943352 2.77533987 -3.35582754
v 8.89576796 2.86102872 -3.41803729
v 8.89941055 2.86102872 -3.32750736
v 8.82577951 2.77533987 -3.34789207
v 8.89883783 2.86102872 -3.32698559
v 8.86341977 2.86102872 -3.30532686
v 8.85272104 2.86102872 -3.30406492
v 8.82577951 2.77533987 -3.35563338
v 8.85272104 2.86102872 -3.42801123
v 8.80275550 2.86102872 -3.32444964
v 8.79053327 2.86102872 -3.37499885
v 8.79085401 2.86102872 -3.37926994
v 8.80859742 2.86102872 -3.41906863
f 1 2 6
f 1 6 13
f 1 13 17
f 1 17 16
f 1 16 15
f 1 15 14
f 1 14 11
f 1 11 10
f 1 10 9
f 1 9 7
f 1 7 3
f 1 3 4
f 1 4 5
f 1 5 2
f 2 5 6
f 3 7 4
f 4 8 12
f 4 12 5
f 4 7 9
f 4 9 10
f 4 10 11
f 4 11 8
f 5 12 13
f 5 13 6
f 8 11 14
f 8 14 15
f 8 15 12
f 12 15 16
f 12 16 17
f 12 17 13

