# https://github.com/mikedh/trimesh
v 8.25443434 0.02748534 -1.51379393
v 8.00275071 0.02748534 -1.51379393
v 8.25443434 -0.02769009 -1.51379393
v 8.25443434 0.02749532 -2.47692288
v 7.99339799 0.02487034 -1.51379393
v 8.00275071 0.02748534 -5.21975468
v 7.99339799 -0.07525207 -1.51379393
v 8.25443434 -0.02749906 -5.21975468
v 8.25443434 0.02749532 -2.52517001
v 7.99339799 0.02487034 -5.21975468
v 8.25443434 0.02748534 -5.21975468
v 7.99339799 -0.07330091 -5.21975468
f 1 2 5
f 1 5 7
f 1 7 3
f 1 3 8
f 1 8 11
f 1 11 9
f 1 9 4
f 1 4 2
f 2 4 9
f 2 9 6
f 2 6 10
f 2 10 5
f 3 7 8
f 5 10 12
f 5 12 7
f 6 11 8
f 6 8 12
f 6 12 10
f 6 9 11
f 7 12 8

