# https://github.com/mikedh/trimesh
v 11.62585144 2.86092128 -6.15521767
v 11.62613397 2.50513380 -6.15521767
v 11.62585144 2.86092128 -6.32499482
v 11.30585701 2.86092128 -6.15521767
v 11.62641635 1.67797440 -6.15521767
v 11.62613397 2.32492383 -6.32499482
v 11.62528654 2.86092128 -6.37499508
v 11.00760978 2.12016072 -6.15521767
v 8.85294329 2.86092128 -6.15841606
v 11.62613397 1.67797440 -6.32784660
v 10.99348824 1.67797440 -6.15521767
v 11.62556907 2.17505761 -6.37499508
v 11.60128002 2.47490582 -6.41361457
v 11.60099750 2.86092128 -6.41364139
v 10.99518280 2.07510821 -6.15521767
v 8.80295286 2.86092128 -6.16252043
v 8.85294329 1.67797440 -6.17251524
v 10.99348824 2.02507561 -6.15521767
v 11.62556907 1.67797440 -6.37499508
v 11.60128002 1.72499580 -6.41353470
v 11.55270178 2.57497101 -6.42731410
v 11.55270178 2.86092128 -6.42734063
v 8.75578696 2.86092128 -6.17795238
v 8.80295286 1.67797440 -6.18248322
v 11.60128002 1.67797440 -6.41350818
v 11.59845566 1.67797440 -6.41430747
v 11.55270178 1.72499580 -6.42715407
v 11.55270178 2.37495642 -6.42728758
v 11.50271151 1.87509362 -6.42734063
v 11.50271151 2.37495642 -6.42739397
v 11.45272123 2.86092128 -6.42744732
v 8.74335998 2.86092128 -6.22502083
v 8.77527470 1.67797440 -6.19623610
v 11.55270178 1.67797440 -6.42712754
v 11.54959504 1.67797440 -6.42715407
v 11.50271151 1.77502839 -6.42731410
v 11.45272123 1.67797440 -6.42742080
v 11.45272123 1.92501039 -6.42744732
v 11.41656997 2.86092128 -6.42747414
v 8.74110052 2.86092128 -6.27502109
v 8.77273286 1.67797440 -6.22502083
v 11.50271151 1.67797440 -6.42728758
v 11.40244844 1.67797440 -6.42747414
v 9.15288497 1.67797440 -6.42750067
v 9.15288497 2.86092128 -6.42750067
v 8.74110052 2.86092128 -6.32499482
v 8.77273286 1.67797440 -6.37499508
v 8.85294329 1.67797440 -6.42750067
v 8.85294329 2.86092128 -6.42750067
v 8.74392489 2.86092128 -6.37499508
v 8.77527470 1.67797440 -6.40375328
v 8.80295286 1.67797440 -6.41750586
v 8.80295286 2.86092128 -6.42179710
v 8.81679202 2.86092128 -6.42435563
v 8.76002336 2.86092128 -6.41062957
v 8.80125830 1.67797440 -6.41673309
v 8.76821393 2.86092128 -6.41436082
f 1 2 3
f 1 3 7
f 1 7 14
f 1 14 22
f 1 22 31
f 1 31 39
f 1 39 45
f 1 45 49
f 1 49 54
f 1 54 53
f 1 53 57
f 1 57 55
f 1 55 50
f 1 50 46
f 1 46 40
f 1 40 32
f 1 32 23
f 1 23 16
f 1 16 9
f 1 9 4
f 1 4 8
f 1 8 15
f 1 15 18
f 1 18 11
f 1 11 5
f 1 5 2
f 2 5 6
f 2 6 3
f 3 6 7
f 4 9 8
f 5 10 6
f 5 11 17
f 5 17 24
f 5 24 33
f 5 33 41
f 5 41 47
f 5 47 51
f 5 51 56
f 5 56 52
f 5 52 48
f 5 48 44
f 5 44 43
f 5 43 37
f 5 37 42
f 5 42 35
f 5 35 34
f 5 34 26
f 5 26 25
f 5 25 19
f 5 19 10
f 6 10 12
f 6 12 7
f 7 12 13
f 7 13 14
f 8 9 15
f 9 16 17
f 9 17 11
f 9 11 18
f 9 18 15
f 10 19 12
f 12 19 13
f 13 19 20
f 13 20 21
f 13 21 22
f 13 22 14
f 16 23 24
f 16 24 17
f 19 25 20
f 20 25 26
f 20 26 27
f 20 27 28
f 20 28 21
f 21 28 29
f 21 29 38
f 21 38 30
f 21 30 22
f 22 30 38
f 22 38 31
f 23 32 33
f 23 33 24
f 26 34 27
f 27 34 35
f 27 35 29
f 27 29 28
f 29 36 37
f 29 37 38
f 29 35 36
f 31 38 39
f 32 40 41
f 32 41 33
f 35 42 36
f 36 42 37
f 37 43 38
f 38 43 39
f 39 43 44
f 39 44 45
f 40 46 47
f 40 47 41
f 44 48 49
f 44 49 45
f 46 50 47
f 47 50 51
f 48 52 53
f 48 53 54
f 48 54 49
f 50 55 51
f 51 55 56
f 52 56 55
f 52 55 57
f 52 57 53

