# https://github.com/mikedh/trimesh
v 8.60274143 0.04653946 -4.10805495
v 8.55215824 0.04653946 -4.12455380
v 8.60541358 0.04653946 -4.10883266
v 8.62859025 0.53056799 -4.14453853
v 8.60274143 0.53056799 -4.13944166
v 8.53475562 0.04653946 -4.17500863
v 8.57589892 0.45746146 -4.14834382
v 8.57055454 0.53056799 -4.16130126
v 8.56632477 0.53056799 -4.16575928
v 8.65368717 0.04653946 -4.12433158
v 8.63696933 0.53056799 -4.15351013
v 8.55103030 0.04653946 -4.22758832
v 8.56422997 0.53056799 -4.17450866
v 8.57095740 0.53056799 -4.22183874
v 8.65539253 0.04653946 -4.12826188
v 8.64593923 0.53056799 -4.17286989
v 8.60274143 0.04653946 -4.24992014
v 8.57169597 0.53056799 -4.22276921
v 8.59596028 0.53056799 -4.23593498
v 8.67192232 0.04653946 -4.17500863
v 8.64509322 0.53056799 -4.18456354
v 8.60274143 0.53056799 -4.23776816
v 8.60698468 0.04653946 -4.24933683
v 8.67147923 0.04653946 -4.17661964
v 8.63793611 0.53056799 -4.22547738
v 8.63859408 0.53056799 -4.22272756
v 8.65520448 0.04653946 -4.22829661
f 1 2 6
f 1 6 12
f 1 12 17
f 1 17 23
f 1 23 27
f 1 27 24
f 1 24 20
f 1 20 15
f 1 15 10
f 1 10 3
f 1 3 4
f 1 4 5
f 1 5 2
f 2 5 7
f 2 7 8
f 2 8 9
f 2 9 6
f 3 10 4
f 4 11 16
f 4 16 21
f 4 21 26
f 4 26 25
f 4 25 22
f 4 22 19
f 4 19 18
f 4 18 14
f 4 14 13
f 4 13 9
f 4 9 8
f 4 8 5
f 4 10 11
f 5 8 7
f 6 9 13
f 6 13 14
f 6 14 12
f 10 15 16
f 10 16 11
f 12 14 18
f 12 18 19
f 12 19 17
f 15 20 16
f 16 20 21
f 17 22 23
f 17 19 22
f 20 24 25
f 20 25 26
f 20 26 21
f 22 25 23
f 23 25 27
f 24 27 25

