mtllib material.mtl
usemtl material_0
v 8.79999924 3.19999456 -6.39999962
v 7.95545673 3.19999456 -6.39999962
v 7.95564365 2.90168762 -6.39981270
v 7.95564365 2.90168762 -6.39981270
v 8.79999924 2.90300012 -6.40000057
v 8.79999924 3.19999456 -6.39999962
v 7.95564365 2.90168762 -6.39981270
v 8.79981232 2.90168762 -6.39981270
v 8.79999924 2.90300012 -6.40000057
v 8.80299950 1.05736160 -6.40000057
v 8.80168724 1.05736160 -6.39981270
v 8.80168724 0.79999971 -6.39981270
v 8.80299950 0.35736156 -6.40000057
v 8.80168724 0.35736156 -6.39981270
v 8.80168724 -0.20000005 -6.39981270
v 8.80168724 2.90018749 -6.40000057
v 8.80168724 2.89981270 -6.39981270
v 8.80299950 2.90000010 -6.40000057
v 8.80018711 2.89831257 -6.39831257
v 8.79981232 2.89831257 -6.39812565
v 8.79999924 2.89700007 -6.39700031
v 8.79981232 2.90168762 -6.39981270
v 8.80018711 2.90168762 -6.40000057
v 8.79999924 2.90300012 -6.40000057
v 8.79831219 2.90018749 -6.39831257
v 7.95714378 2.90018749 -6.39831257
v 7.95845699 2.90000010 -6.39700031
v 8.80018616 0.79999971 -6.39831257
v 8.80074883 0.79999971 -6.39925003
v 8.80074883 1.05736160 -6.39925003
v 8.80168724 0.35736156 -6.39981270
v 8.80074978 0.35736156 -6.39925003
v 8.80074978 -0.20000005 -6.39925003
v 11.40018845 -0.20000005 -6.19831181
v 11.40000057 -0.20000005 -6.19699955
v 11.39981365 -0.20000005 -6.19831181
v 11.39831352 -0.20000005 -6.19981194
v 11.39700127 -0.20000005 -6.19999981
v 11.39831352 -0.20000005 -6.20018673
v 11.39981365 -0.20000005 -6.20168686
v 11.40000057 -0.20000005 -6.20299911
v 11.40018845 -0.20000005 -6.20168686
v 11.40168858 -0.20000005 -6.20018673
v 11.40300083 -0.20000005 -6.19999981
v 11.40168858 -0.20000005 -6.19981194
v 11.39981365 0.35736156 -6.19831181
v 11.39981365 -0.20000005 -6.19831181
v 11.40000057 -0.20000005 -6.19699955
v 11.40000057 2.90000010 -6.39999962
v 11.40000057 1.05736160 -6.39999962
v 11.59831238 3.19999456 -6.39981174
v 8.80299950 1.14263844 -6.40000057
v 8.80299950 1.05736160 -6.40000057
v 11.40000057 1.05736160 -6.39999962
v 8.80018616 1.05736160 -6.39831257
v 8.80074883 1.14263844 -6.39925003
v 8.80299950 1.05736160 -6.40000057
v 8.80168724 0.79999971 -6.39981270
v 11.40000057 1.05736160 -6.39999962
v 11.60000038 0.44263840 -4.26995564
v 11.59831238 3.19999456 -6.39981174
v 11.59925079 0.44263864 -6.39925003
v 11.39999962 1.14263833 -4.26995564
v 11.39999962 1.05736160 -4.26995564
v 11.40000057 1.14263844 -2.84605742
v 11.40000057 1.14263844 -2.36995625
v 11.40000057 1.05736160 -2.36995625
v 11.40000057 1.14263844 -1.40000081
v 11.39999962 0.44263840 -4.26995516
v 11.40000057 1.14263844 -2.84605742
v 11.39999962 1.05736160 -4.26995564
v 11.40000057 1.14263844 -2.84605742
v 11.39999962 0.44263840 -4.26995516
v 11.39999962 1.05736160 -2.43004394
v 11.39999962 1.14263844 -2.43004394
v 11.40000057 1.14263844 -2.84605742
v 11.39999962 1.05736160 -2.43004394
v 11.59831333 -0.20000005 -6.39981174
v 11.59925079 0.44263864 -6.39925003
v 11.40000057 0.35736156 -6.39999962
v 8.80299950 0.44263864 -6.40000057
v 8.80299950 0.35736156 -6.40000057
v 11.40000057 0.35736156 -6.39999962
v 8.80168724 0.79999971 -6.39981270
v 8.80168724 0.44263864 -6.39981270
v 8.80299950 0.44263864 -6.40000057
v 11.39999962 0.44263840 -4.26995516
v 11.40000057 1.05736160 -5.86995506
v 11.40000153 0.35736156 -5.86995506
v 11.39999962 0.44263840 -4.26995516
v 11.40000057 0.35736156 -2.78596902
v 11.39999962 1.05736160 -2.43004394
v 8.80074978 0.35736156 -6.39925003
v 8.80168724 0.35736156 -6.39981270
v 8.80168724 0.44263864 -6.39981270
v 11.60000038 -0.20000005 -6.19999981
v 11.60000038 0.44263840 -4.26995564
v 11.59925079 0.44263864 -6.39925003
v 11.40000057 -0.20000005 -6.39999962
v 11.40000057 0.35736156 -6.39999962
v 8.80299950 0.35736156 -6.40000057
v 8.80074978 -0.20000005 -6.39925003
v 8.80000019 -0.20000005 -6.20300007
v 8.80018711 0.35736156 -6.20168781
v 8.80299950 0.35736156 -6.20000076
v 8.80168724 0.35736156 -6.20018768
v 8.80168724 -0.20000005 -6.20018768
v 8.80000019 -0.20000005 -6.20300007
v 8.80018711 -0.20000005 -6.20168781
v 8.80018711 0.35736156 -6.20168781
v 11.40000057 -0.20000005 -5.93004417
v 11.40000057 -0.20000005 -2.78596902
v 11.40000153 0.35736156 -5.86995506
v 11.39999962 0.44263840 -4.26995516
v 11.40000153 0.35736156 -5.86995506
v 11.40000057 -0.20000005 -2.78596902
v 11.40000057 -0.20000005 -1.40000081
v 11.40000057 0.35736156 -2.78596902
v 11.40000057 -0.20000005 -2.78596902
v 11.40000057 0.35736156 -2.78596902
v 11.39999962 0.44263840 -4.26995516
v 11.40000057 -0.20000005 -2.78596902
v 11.60000038 -0.20000005 -1.40000081
v 11.40000057 -0.20000005 -1.40000081
v 11.40000057 -0.20000005 -2.78596902
v 11.40000057 1.05736160 -6.39999962
v 11.40000057 0.35736156 -6.39999962
v 11.59925079 0.44263864 -6.39925003
v 11.59831238 3.19999456 -6.39981174
v 11.40000057 2.90000010 -6.39999962
v 8.80299950 2.90000010 -6.40000057
v 8.80299950 1.14263844 -6.40000057
v 11.39700127 -0.20000005 -6.19999981
v 11.39700127 0.35736156 -6.19999981
v 8.80299950 0.35736156 -6.20000076
v 8.80168724 -0.20000005 -6.20018768
v 11.40000057 1.05736160 -6.39999962
v 8.80168724 0.79999971 -6.39981270
v 8.80299950 0.44263864 -6.40000057
v 11.40000057 0.35736156 -6.39999962
v 8.79924965 2.90075016 -6.39925003
v 8.79924965 2.89925003 -6.39850044
v 8.80074978 2.89925003 -6.39925003
v 8.80074978 2.90075016 -6.40000057
v 8.80168724 2.89981270 -6.39981270
v 8.80168724 2.90018749 -6.40000057
v 8.80074978 2.90075016 -6.40000057
v 8.80074978 2.89925003 -6.39925003
v 8.79981232 2.89831257 -6.39812565
v 8.80018711 2.89831257 -6.39831257
v 8.80074978 2.89925003 -6.39925003
v 8.79924965 2.89925003 -6.39850044
v 8.79831219 2.90018749 -6.39831257
v 8.79831219 2.89981270 -6.39812565
v 8.79924965 2.89925003 -6.39850044
v 8.79924965 2.90075016 -6.39925003
v 8.80018711 2.90168762 -6.40000057
v 8.79981232 2.90168762 -6.39981270
v 8.79924965 2.90075016 -6.39925003
v 8.80074978 2.90075016 -6.40000057
v 7.95620632 2.90075016 -6.39925003
v 8.79924965 2.90075016 -6.39925003
v 8.79981232 2.90168762 -6.39981270
v 7.95564365 2.90168762 -6.39981270
v 7.95714378 2.90018749 -6.39831257
v 8.79831219 2.90018749 -6.39831257
v 8.79924965 2.90075016 -6.39925003
v 7.95620632 2.90075016 -6.39925003
v 8.80074883 0.79999971 -6.39925003
v 8.80168724 0.79999971 -6.39981270
v 8.80168724 1.05736160 -6.39981270
v 8.80074883 1.05736160 -6.39925003
v 11.40075111 -0.20000005 -6.20074940
v 11.40075111 -0.20000005 -6.19924927
v 11.39925098 -0.20000005 -6.19924927
v 11.39925098 -0.20000005 -6.20074940
v 11.39831352 -0.20000005 -6.19981194
v 11.39831352 0.35736156 -6.19981194
v 11.39700127 0.35736156 -6.19999981
v 11.39700127 -0.20000005 -6.19999981
v 11.39925098 -0.20000005 -6.19924927
v 11.39925098 0.35736156 -6.19924927
v 11.39831352 0.35736156 -6.19981194
v 11.39831352 -0.20000005 -6.19981194
v 11.39981365 -0.20000005 -6.19831181
v 11.39981365 0.35736156 -6.19831181
v 11.39925098 0.35736156 -6.19924927
v 11.39925098 -0.20000005 -6.19924927
v 8.80168724 2.89981270 -6.39981270
v 8.80168724 1.14263844 -6.39981270
v 8.80299950 1.14263844 -6.40000057
v 8.80299950 2.90000010 -6.40000057
v 8.80074978 2.89925003 -6.39925003
v 8.80074883 1.14263844 -6.39925003
v 8.80168724 1.14263844 -6.39981270
v 8.80168724 2.89981270 -6.39981270
v 8.80018711 2.89831257 -6.39831257
v 8.80018616 1.14263844 -6.39831257
v 8.80074883 1.14263844 -6.39925003
v 8.80074978 2.89925003 -6.39925003
v 8.80168724 1.14263844 -6.39981270
v 8.80074883 1.14263844 -6.39925003
v 8.80074883 1.05736160 -6.39925003
v 8.80168724 1.05736160 -6.39981270
v 11.40000057 -0.20000005 -5.93004417
v 11.60000038 -0.20000005 -6.19999981
v 11.60000038 -0.20000005 -2.78596902
v 11.40000057 -0.20000005 -2.78596902
v 11.43000031 1.05736172 -4.26995564
v 11.43000031 1.14263844 -4.26995564
v 11.43000031 1.14263856 -4.33004475
v 11.43000031 1.05736172 -4.33004475
v 11.40000057 1.05736160 -4.33004475
v 11.40000057 1.05736160 -5.86995506
v 11.39999962 0.44263840 -4.26995516
v 11.39999962 1.05736160 -4.26995564
v 11.43000031 1.05736160 -2.36995649
v 11.43000031 1.14263844 -2.36995649
v 11.43000031 1.14263844 -2.43004417
v 11.43000031 1.05736160 -2.43004417
v 11.39999962 1.14263833 -4.26995564
v 11.39999962 1.14263844 -4.33004475
v 11.43000031 1.14263856 -4.33004475
v 11.43000031 1.14263844 -4.26995564
v 11.39999962 1.14263844 -4.33004475
v 11.40000057 1.05736160 -4.33004475
v 11.43000031 1.05736172 -4.33004475
v 11.43000031 1.14263856 -4.33004475
v 11.40000057 1.05736160 -4.33004475
v 11.39999962 1.05736160 -4.26995564
v 11.43000031 1.05736172 -4.26995564
v 11.43000031 1.05736172 -4.33004475
v 11.39999962 1.05736160 -4.26995564
v 11.39999962 1.14263833 -4.26995564
v 11.43000031 1.14263844 -4.26995564
v 11.43000031 1.05736172 -4.26995564
v 11.40000057 1.14263844 -2.36995625
v 11.39999962 1.14263844 -2.43004394
v 11.43000031 1.14263844 -2.43004417
v 11.43000031 1.14263844 -2.36995649
v 11.39999962 1.14263844 -2.43004394
v 11.39999962 1.05736160 -2.43004394
v 11.43000031 1.05736160 -2.43004417
v 11.43000031 1.14263844 -2.43004417
v 11.39999962 1.05736160 -2.43004394
v 11.40000057 1.05736160 -2.36995625
v 11.43000031 1.05736160 -2.36995649
v 11.43000031 1.05736160 -2.43004417
v 11.40000057 1.05736160 -2.36995625
v 11.40000057 1.14263844 -2.36995625
v 11.43000031 1.14263844 -2.36995649
v 11.43000031 1.05736160 -2.36995649
v 8.80074978 0.35736156 -6.39925003
v 8.80018711 0.35736156 -6.20168781
v 8.80018711 0.44263840 -6.20168781
v 8.80074978 0.44263864 -6.39925003
v 8.80168724 0.35736156 -6.20018768
v 8.80299950 0.35736156 -6.20000076
v 8.80299950 0.44263840 -6.20000076
v 8.80168724 0.44263840 -6.20018768
v 8.80168724 0.35736156 -6.20018768
v 8.80168724 0.44263840 -6.20018768
v 8.80074978 0.44263840 -6.20075035
v 8.80074978 0.35736156 -6.20075035
v 8.80074978 0.35736156 -6.20075035
v 8.80074978 0.44263840 -6.20075035
v 8.80018711 0.44263840 -6.20168781
v 8.80018711 0.35736156 -6.20168781
v 8.80074883 0.79999971 -6.39925003
v 8.80074978 0.44263864 -6.39925003
v 8.80168724 0.44263864 -6.39981270
v 8.80168724 0.79999971 -6.39981270
v 11.39981365 0.35736156 -6.19831181
v 11.40000153 0.35736156 -5.86995506
v 11.39925098 0.44263864 -6.19924927
v 11.39925098 0.35736156 -6.19924927
v 11.40000057 0.35736156 -2.78596902
v 11.40000057 -0.20000005 -1.40000081
v 11.40000057 1.05736160 -2.36995625
v 11.39999962 1.05736160 -2.43004394
v 11.39700127 0.44263864 -6.19999981
v 8.80299950 0.44263840 -6.20000076
v 8.80299950 0.35736156 -6.20000076
v 11.39700127 0.35736156 -6.19999981
v 8.80168724 0.44263864 -6.39981270
v 8.80299950 0.35736156 -6.40000057
v 8.80299950 0.44263864 -6.40000057
v 11.39831352 0.44263864 -6.19981194
v 11.39700127 0.44263864 -6.19999981
v 11.39700127 0.35736156 -6.19999981
v 11.39831352 0.35736156 -6.19981194
v 11.39831352 0.44263864 -6.19981194
v 11.39925098 0.44263864 -6.19924927
v 8.80074978 -0.20000005 -6.20075035
v 8.80168724 -0.20000005 -6.20018768
v 8.80168724 0.35736156 -6.20018768
v 8.80074978 0.35736156 -6.20075035
v 8.80018711 -0.20000005 -6.20168781
v 8.80074978 -0.20000005 -6.20075035
v 8.80074978 0.35736156 -6.20075035
v 8.80018711 0.35736156 -6.20168781
v 11.40000057 -0.20000005 -6.19699955
v 11.40000057 -0.20000005 -5.93004417
v 11.40000153 0.35736156 -5.86995506
v 11.39981365 0.35736156 -6.19831181
v 11.40000057 2.23945618 -1.40000081
v 11.39999962 2.32891250 -2.36995625
v 11.40000057 1.14263844 -2.36995625
v 11.40000057 1.14263844 -1.40000081
v 11.40000057 -0.20000005 -6.39999962
v 11.59831333 -0.20000005 -6.39981174
v 8.80168724 -0.20000005 -6.20018768
v 8.80074978 -0.20000005 -6.20075035
v 8.80018711 -0.20000005 -6.20168781
v 8.80000019 -0.20000005 -6.20300007
v 8.80074978 -0.20000005 -6.39925003
v 8.80168724 -0.20000005 -6.39981270
v 8.80168724 2.90018749 -6.40000057
v 8.80299950 2.90000010 -6.40000057
v 11.40000057 2.90000010 -6.39999962
v 11.40000057 3.19999456 -6.39999962
v 8.79999924 2.90300012 -6.40000057
v 8.80018711 2.90168762 -6.40000057
v 8.80074978 2.90075016 -6.40000057
v 11.60000038 -0.20000005 -1.40000081
v 11.40000057 3.19999504 -1.40000057
v 11.40000057 2.23945618 -1.40000081
v 11.40000057 1.14263844 -1.40000081
v 11.40000057 -0.20000005 -1.40000081
vt 0.84754527 0.89629918
vt 0.73387784 0.89629918
vt 0.73390299 0.93644845
vt 0.49539480 0.95485073
vt 0.38175255 0.95502740
vt 0.38175255 0.99500000
vt 0.49539480 0.95485073
vt 0.38177770 0.95485073
vt 0.38175255 0.95502740
vt 0.38134876 0.70662200
vt 0.38152537 0.70662200
vt 0.38152537 0.67198360
vt 0.38134876 0.61240870
vt 0.38152537 0.61240870
vt 0.38152537 0.53739309
vt 0.38152537 0.95464885
vt 0.38152537 0.95459837
vt 0.38134876 0.95462358
vt 0.85194236 0.90019226
vt 0.85199535 0.90017319
vt 0.85196000 0.89994180
vt 0.38177770 0.95485073
vt 0.38172728 0.95485073
vt 0.38175255 0.95502740
vt 0.85224479 0.90036613
vt 0.95850575 0.89643306
vt 0.95837319 0.89629918
vt 0.27634621 0.46089751
vt 0.27634621 0.46104467
vt 0.31098467 0.46104467
vt 0.38152537 0.61240870
vt 0.38165155 0.61240870
vt 0.38165155 0.53739309
vt 0.53573114 0.96810722
vt 0.53590775 0.96808195
vt 0.53573114 0.96805680
vt 0.53552926 0.96785486
vt 0.53550392 0.96767825
vt 0.53547883 0.96785486
vt 0.53527689 0.96805680
vt 0.53510028 0.96808195
vt 0.53527689 0.96810722
vt 0.53547883 0.96830910
vt 0.53550392 0.96848571
vt 0.53552926 0.96830910
vt 0.55873811 0.25885004
vt 0.55873811 0.18383449
vt 0.55857378 0.18383449
vt 0.03181715 0.95462358
vt 0.03181715 0.70662200
vt 0.00512629 0.99500000
vt 0.38134876 0.71809947
vt 0.38134876 0.70662200
vt 0.03181715 0.70662200
vt 0.31098467 0.46089751
vt 0.32246211 0.46104467
vt 0.38134876 0.70662200
vt 0.38152537 0.67198360
vt 0.03181715 0.70662200
vt 0.54707760 0.89190215
vt 0.98735785 0.73049641
vt 0.63349622 0.61865962
vt 0.33619291 0.36454082
vt 0.33619291 0.35306334
vt 0.17187496 0.36454082
vt 0.11693288 0.36454082
vt 0.11693288 0.35306334
vt 0.00500000 0.36454082
vt 0.33619288 0.27032745
vt 0.17187496 0.36454082
vt 0.33619291 0.35306334
vt 0.17187496 0.36454082
vt 0.33619288 0.27032745
vt 0.12386706 0.35306334
vt 0.12386706 0.36454082
vt 0.17187496 0.36454082
vt 0.12386706 0.35306334
vt 0.00512616 0.53739309
vt 0.00500000 0.62388617
vt 0.03181715 0.61240870
vt 0.38134876 0.62388617
vt 0.38134876 0.61240870
vt 0.03181715 0.61240870
vt 0.38152537 0.67198360
vt 0.38152537 0.62388617
vt 0.38134876 0.62388617
vt 0.33619288 0.27032745
vt 0.52083284 0.35306334
vt 0.52083278 0.25885004
vt 0.33619288 0.27032745
vt 0.16494074 0.25885004
vt 0.12386706 0.35306334
vt 0.38165155 0.61240870
vt 0.38152537 0.61240870
vt 0.38152537 0.62388617
vt 0.54294270 0.61814666
vt 0.54707760 0.89190215
vt 0.63349622 0.61865962
vt 0.03181715 0.53739309
vt 0.03181715 0.61240870
vt 0.38134876 0.61240870
vt 0.54294270 0.92761433
vt 0.54294270 0.95402789
vt 0.61795825 0.95420444
vt 0.55858254 0.44502294
vt 0.55875915 0.44502294
vt 0.55875915 0.37000734
vt 0.54294270 0.95402789
vt 0.54294270 0.95420444
vt 0.61795825 0.95420444
vt 0.52776706 0.18383449
vt 0.16494074 0.18383449
vt 0.52083278 0.25885004
vt 0.33619288 0.27032745
vt 0.52083278 0.25885004
vt 0.16494074 0.18383449
vt 0.00500000 0.18383449
vt 0.16494074 0.25885004
vt 0.16494074 0.18383449
vt 0.16494074 0.25885004
vt 0.33619288 0.27032745
vt 0.16494074 0.18383449
vt 0.72948080 0.92321724
vt 0.72948080 0.89629918
vt 0.54294270 0.89629918
vt 0.03181715 0.70662200
vt 0.03181715 0.61240870
vt 0.00500000 0.62388617
vt 0.00512629 0.99500000
vt 0.03181715 0.95462358
vt 0.38134876 0.95462358
vt 0.38134876 0.71809947
vt 0.20945458 0.37000734
vt 0.20945458 0.44502294
vt 0.55858254 0.44502294
vt 0.55875915 0.37000734
vt 0.03181715 0.70662200
vt 0.38152537 0.67198360
vt 0.38134876 0.62388617
vt 0.03181715 0.61240870
vt 0.38185346 0.95472455
vt 0.38185346 0.95452267
vt 0.38165155 0.95452267
vt 0.38165152 0.95472455
vt 0.38152537 0.95459837
vt 0.38152537 0.95464885
vt 0.38165152 0.95472455
vt 0.38165155 0.95452267
vt 0.38177776 0.95439649
vt 0.38172734 0.95439649
vt 0.38165155 0.95452267
vt 0.38185346 0.95452267
vt 0.38197967 0.95464885
vt 0.38197967 0.95459837
vt 0.38185346 0.95452267
vt 0.38185346 0.95472455
vt 0.38172728 0.95485073
vt 0.38177770 0.95485073
vt 0.38185346 0.95472455
vt 0.38165152 0.95472455
vt 0.49531907 0.95472455
vt 0.38185346 0.95472455
vt 0.38177770 0.95485073
vt 0.49539480 0.95485073
vt 0.95850575 0.89643306
vt 0.85224479 0.90036613
vt 0.85211766 0.90051228
vt 0.95861530 0.89657044
vt 0.38165170 0.67198360
vt 0.38152537 0.67198360
vt 0.38152537 0.70662200
vt 0.38165170 0.70662200
vt 0.53540307 0.96818292
vt 0.53560495 0.96818292
vt 0.53560495 0.96798104
vt 0.53540307 0.96798104
vt 0.20927796 0.37000734
vt 0.20927796 0.44502294
vt 0.20945458 0.44502294
vt 0.20945458 0.37000734
vt 0.20915177 0.37000734
vt 0.20915177 0.44502294
vt 0.20927796 0.44502294
vt 0.20927796 0.37000734
vt 0.55873811 0.18383449
vt 0.55873811 0.25885004
vt 0.55888534 0.25885004
vt 0.55888534 0.18383449
vt 0.38152537 0.95459837
vt 0.38152537 0.71809947
vt 0.38134876 0.71809947
vt 0.38134876 0.95462358
vt 0.38165155 0.95452267
vt 0.38165170 0.71809947
vt 0.38152537 0.71809947
vt 0.38152537 0.95459837
vt 0.55875915 0.46089756
vt 0.32246211 0.46089751
vt 0.32246211 0.46104467
vt 0.55888534 0.46104473
vt 0.38152537 0.71809947
vt 0.38165170 0.71809947
vt 0.38165170 0.70662200
vt 0.38152537 0.70662200
vt 0.57183743 0.96808195
vt 0.53550392 0.99500000
vt 0.99500000 0.99500000
vt 0.99500000 0.96808195
vt 0.64192021 0.93909180
vt 0.64192021 0.92761433
vt 0.63383281 0.92761433
vt 0.63383281 0.93909180
vt 0.34312710 0.35306334
vt 0.52083284 0.35306334
vt 0.33619288 0.27032745
vt 0.33619291 0.35306334
vt 0.74196512 0.95232296
vt 0.74196512 0.94084555
vt 0.73387784 0.94084555
vt 0.73387784 0.95232296
vt 0.19669330 0.38311470
vt 0.20475474 0.38246703
vt 0.20443138 0.37844217
vt 0.19636995 0.37908983
vt 0.55888534 0.27692086
vt 0.54740787 0.27692097
vt 0.54740787 0.28095865
vt 0.55888534 0.28095865
vt 0.55484748 0.29379064
vt 0.55484748 0.30187804
vt 0.55888534 0.30187804
vt 0.55888522 0.29379064
vt 0.19327730 0.37404513
vt 0.20475473 0.37404513
vt 0.20475474 0.37000734
vt 0.19327731 0.37000734
vt 0.54301077 0.46544182
vt 0.53492355 0.46544170
vt 0.53492355 0.46947950
vt 0.54301077 0.46947950
vt 0.55888534 0.28535575
vt 0.54740787 0.28535575
vt 0.54740787 0.28939360
vt 0.55888534 0.28939360
vt 0.20475471 0.38751179
vt 0.19666748 0.38751191
vt 0.19666752 0.39154959
vt 0.20475474 0.39154959
vt 0.54740787 0.46947938
vt 0.55888534 0.46947938
vt 0.55888534 0.46544170
vt 0.54740787 0.46544170
vt 0.61795825 0.92761433
vt 0.61795825 0.95420444
vt 0.62943566 0.95420444
vt 0.62943572 0.92761433
vt 0.55875915 0.44502294
vt 0.55858254 0.44502294
vt 0.55858254 0.45650041
vt 0.55875915 0.45650041
vt 0.55875915 0.44502294
vt 0.55875915 0.45650041
vt 0.55888534 0.45650035
vt 0.55888534 0.44502294
vt 0.61795825 0.95433038
vt 0.62943566 0.95433038
vt 0.62943566 0.95420444
vt 0.61795825 0.95420444
vt 0.38165170 0.67198360
vt 0.38165155 0.62388617
vt 0.38152537 0.62388617
vt 0.38152537 0.67198360
vt 0.55873811 0.25885004
vt 0.52083278 0.25885004
vt 0.55888534 0.27032751
vt 0.55888534 0.25885004
vt 0.16494074 0.25885004
vt 0.00500000 0.18383449
vt 0.11693288 0.35306334
vt 0.12386706 0.35306334
vt 0.20945458 0.45650041
vt 0.55858254 0.45650041
vt 0.55858254 0.44502294
vt 0.20945458 0.44502294
vt 0.38152537 0.62388617
vt 0.38134876 0.61240870
vt 0.38134876 0.62388617
vt 0.20927796 0.45650041
vt 0.20945458 0.45650041
vt 0.20945458 0.44502294
vt 0.20927796 0.44502294
vt 0.20927796 0.45650041
vt 0.20915177 0.45650041
vt 0.55888534 0.37000734
vt 0.55875915 0.37000734
vt 0.55875915 0.44502294
vt 0.55888534 0.44502294
vt 0.54294270 0.95420444
vt 0.54294270 0.95433038
vt 0.61795825 0.95433038
vt 0.61795825 0.95420444
vt 0.55857378 0.18383449
vt 0.52776706 0.18383449
vt 0.52083278 0.25885004
vt 0.55873811 0.25885004
vt 0.00500000 0.51216203
vt 0.11693294 0.52420199
vt 0.11693288 0.36454082
vt 0.00500000 0.36454082
vt 0.50858587 0.96808195
vt 0.50861120 0.99477291
vt 0.53547871 0.61837375
vt 0.53540289 0.61824751
vt 0.53527677 0.61817181
vt 0.53510016 0.61814666
vt 0.50868678 0.61824751
vt 0.50861108 0.61837375
vt 0.38152537 0.95464885
vt 0.38134876 0.95462358
vt 0.03181715 0.95462358
vt 0.03181715 0.99500000
vt 0.38175255 0.95502740
vt 0.38172728 0.95485073
vt 0.38165152 0.95472455
vt 0.00500000 0.17064339
vt 0.46260694 0.14372534
vt 0.33332756 0.14372534
vt 0.18570633 0.14372534
vt 0.00500000 0.14372534
f 1/1 2/2 3/3
f 4/4 5/5 6/6
f 7/7 8/8 9/9
f 10/10 11/11 12/12
f 13/13 14/14 15/15
f 16/16 17/17 18/18
f 19/19 20/20 21/21
f 22/22 23/23 24/24
f 25/25 26/26 27/27
f 28/28 29/29 30/30
f 31/31 32/32 33/33
f 34/34 35/35 36/36
f 37/37 38/38 39/39
f 40/40 41/41 42/42
f 43/43 44/44 45/45
f 46/46 47/47 48/48
f 49/49 50/50 51/51
f 52/52 53/53 54/54
f 55/55 30/30 56/56
f 57/57 58/58 59/59
f 60/60 61/61 62/62
f 63/63 64/64 65/65
f 66/66 67/67 68/68
f 69/69 70/70 71/71
f 72/72 73/73 74/74
f 75/75 76/76 77/77
f 78/78 79/79 80/80
f 81/81 82/82 83/83
f 84/84 85/85 86/86
f 87/87 88/88 89/89
f 90/90 91/91 92/92
f 93/93 94/94 95/95
f 96/96 97/97 98/98
f 99/99 100/100 101/101
f 102/102 103/103 104/104
f 105/105 106/106 107/107
f 108/108 109/109 110/110
f 111/111 112/112 113/113
f 114/114 115/115 116/116
f 117/117 118/118 119/119
f 120/120 121/121 122/122
f 123/123 124/124 125/125
f 117/117 68/68 67/67
f 126/126 127/127 128/128
f 126/126 128/128 129/129
f 130/130 131/131 132/132
f 130/130 132/132 54/54
f 133/133 134/134 135/135
f 133/133 135/135 136/136
f 137/137 138/138 139/139
f 137/137 139/139 140/140
f 141/141 142/142 143/143
f 141/141 143/143 144/144
f 145/145 146/146 147/147
f 145/145 147/147 148/148
f 149/149 150/150 151/151
f 149/149 151/151 152/152
f 153/153 154/154 155/155
f 153/153 155/155 156/156
f 157/157 158/158 159/159
f 157/157 159/159 160/160
f 161/161 162/162 163/163
f 161/161 163/163 164/164
f 165/165 166/166 167/167
f 165/165 167/167 168/168
f 169/169 170/170 171/171
f 169/169 171/171 172/172
f 173/173 174/174 175/175
f 173/173 175/175 176/176
f 177/177 178/178 179/179
f 177/177 179/179 180/180
f 36/36 175/175 174/174
f 36/36 174/174 34/34
f 39/39 176/176 175/175
f 39/39 175/175 37/37
f 42/42 173/173 176/176
f 42/42 176/176 40/40
f 45/45 174/174 173/173
f 45/45 173/173 43/43
f 181/181 182/182 183/183
f 181/181 183/183 184/184
f 185/185 186/186 187/187
f 185/185 187/187 188/188
f 189/189 190/190 191/191
f 189/189 191/191 192/192
f 193/193 194/194 195/195
f 193/193 195/195 196/196
f 197/197 198/198 199/199
f 197/197 199/199 200/200
f 190/190 11/11 10/10
f 190/190 10/10 191/191
f 201/201 202/202 203/203
f 201/201 203/203 204/204
f 205/205 206/206 207/207
f 205/205 207/207 208/208
f 209/209 210/210 211/211
f 209/209 211/211 212/212
f 213/213 214/214 215/215
f 213/213 215/215 216/216
f 217/217 218/218 219/219
f 217/217 219/219 220/220
f 221/221 222/222 223/223
f 221/221 223/223 224/224
f 225/225 226/226 227/227
f 225/225 227/227 228/228
f 229/229 230/230 231/231
f 229/229 231/231 232/232
f 233/233 234/234 235/235
f 233/233 235/235 236/236
f 237/237 238/238 239/239
f 237/237 239/239 240/240
f 241/241 242/242 243/243
f 241/241 243/243 244/244
f 245/245 246/246 247/247
f 245/245 247/247 248/248
f 249/249 250/250 251/251
f 249/249 251/251 252/252
f 253/253 254/254 255/255
f 253/253 255/255 256/256
f 257/257 258/258 259/259
f 257/257 259/259 260/260
f 261/261 262/262 263/263
f 261/261 263/263 264/264
f 265/265 266/266 267/267
f 265/265 267/267 268/268
f 269/269 270/270 271/271
f 269/269 271/271 272/272
f 273/273 274/274 275/275
f 273/273 275/275 276/276
f 277/277 278/278 279/279
f 277/277 279/279 280/280
f 281/281 282/282 283/283
f 281/281 283/283 284/284
f 285/285 14/14 286/286
f 285/285 286/286 287/287
f 288/288 289/289 290/290
f 288/288 290/290 291/291
f 292/292 183/183 182/182
f 292/292 182/182 293/293
f 294/294 295/295 296/296
f 294/294 296/296 297/297
f 298/298 299/299 300/300
f 298/298 300/300 301/301
f 302/302 303/303 304/304
f 302/302 304/304 305/305
f 306/306 307/307 308/308
f 306/306 308/308 309/309
f 311/311 41/41 310/310
f 41/41 311/311 42/42
f 42/42 311/311 173/173
f 173/173 311/311 43/43
f 43/43 311/311 44/44
f 44/44 311/311 206/206
f 316/316 314/314 315/315
f 314/314 316/316 313/313
f 313/313 316/316 317/317
f 313/313 317/317 312/312
f 312/312 317/317 310/310
f 312/312 310/310 38/38
f 38/38 310/310 39/39
f 39/39 310/310 176/176
f 176/176 310/310 40/40
f 40/40 310/310 41/41
f 321/321 319/319 320/320
f 319/319 321/321 318/318
f 318/318 321/321 324/324
f 324/324 321/321 323/323
f 323/323 321/321 322/322
f 34/34 205/205 35/35
f 205/205 34/34 206/206
f 206/206 34/34 174/174
f 206/206 174/174 45/45
f 206/206 45/45 44/44
f 326/326 329/329 325/325
f 329/329 326/326 328/328
f 328/328 326/326 327/327

