# https://github.com/mikedh/trimesh
v 10.82077393 0.07191525 -5.21975468
v 11.18699639 0.07191525 -5.21975468
v 11.18699639 0.07182375 -3.34610535
v 11.18699639 1.00127327 -5.21943326
v 11.18699639 0.99651578 -5.21975468
v 11.16856812 1.00072435 -5.21975468
v 11.00271370 1.00639674 -5.21975468
v 10.89281993 0.99679026 -5.21975468
v 10.94175170 1.00356052 -5.21975468
v 10.90273241 1.00182223 -5.20614663
v 11.00271370 1.00648823 -5.17496610
v 10.90273241 1.00182223 -5.19382442
v 10.87691480 1.00026688 -5.20132492
v 10.85821623 0.98937953 -5.21975468
v 10.80275119 0.96806230 -5.21975468
v 10.80275119 0.96760487 -4.22508604
v 10.77515685 0.95386511 -3.34610535
v 10.77513129 0.95388131 -5.21975468
v 10.72669513 0.69615329 -5.21975468
v 10.72669513 0.70274057 -5.21975468
v 10.76900356 0.92497041 -5.21975468
v 10.76864310 0.92497041 -5.07499569
v 10.72669513 0.70274057 -4.92498642
v 10.72705559 0.70182564 -4.89787763
v 10.72669513 0.69615329 -4.92498642
v 10.72705559 0.69743412 -4.89787763
v 10.77507623 0.92495439 -3.34610535
v 10.77761666 0.14189707 -3.34610535
v 10.77818119 0.11686460 -3.34610535
v 10.76553420 0.22507000 -4.87494757
v 10.77815012 0.11683689 -5.21975468
v 10.76553420 0.22507000 -5.21975468
v 10.80315673 0.08490682 -5.21975468
v 10.80318273 0.08486883 -4.12511559
v 10.82076446 0.07182375 -3.34610535
v 10.80318273 0.08486883 -3.34610535
v 10.80273920 0.96567622 -3.34610535
v 10.80273920 0.96611692 -3.47505078
v 10.92481027 1.00099879 -4.94566625
v 10.95405224 1.00282862 -4.97245363
v 10.97207497 1.00163924 -4.83808820
v 10.85274221 0.97096475 -3.47505078
v 11.18699639 0.96743906 -3.47505078
v 11.18699639 1.00264563 -4.94073740
v 11.00271370 1.00182223 -4.83690952
v 11.18699639 1.00273712 -4.96473885
v 11.18699639 0.95871294 -3.43570373
v 10.85298413 0.96091652 -3.34610535
v 11.18699639 0.80058541 -3.34610535
f 2 3 1
f 2 4 3
f 5 4 2
f 6 4 5
f 6 7 4
f 6 5 7
f 7 5 8
f 9 7 8
f 10 7 9
f 10 11 7
f 10 12 11
f 10 13 12
f 10 9 13
f 9 8 13
f 14 13 8
f 15 13 14
f 15 16 13
f 15 17 16
f 15 18 17
f 15 14 18
f 14 8 18
f 8 5 18
f 5 2 18
f 2 1 18
f 19 18 1
f 20 18 19
f 21 18 20
f 21 22 18
f 21 20 22
f 22 20 23
f 22 23 17
f 22 17 18
f 23 24 17
f 25 24 23
f 26 24 25
f 26 27 24
f 26 28 27
f 26 29 28
f 26 25 29
f 30 29 25
f 30 31 29
f 30 32 31
f 30 25 32
f 32 25 19
f 32 19 31
f 31 19 1
f 33 31 1
f 33 34 31
f 33 35 34
f 33 1 35
f 35 1 3
f 35 3 29
f 36 35 29
f 36 34 35
f 36 31 34
f 36 29 31
f 29 3 37
f 17 29 37
f 28 29 17
f 27 28 17
f 27 17 24
f 38 17 37
f 38 16 17
f 38 13 16
f 38 37 13
f 39 13 37
f 39 12 13
f 39 40 12
f 39 41 40
f 39 42 41
f 39 37 42
f 42 37 43
f 42 43 44
f 45 42 44
f 45 41 42
f 11 41 45
f 11 40 41
f 11 12 40
f 11 45 44
f 11 44 46
f 11 46 7
f 46 4 7
f 46 44 4
f 44 47 4
f 43 47 44
f 43 37 47
f 48 47 37
f 48 49 47
f 48 37 49
f 49 37 3
f 49 3 47
f 47 3 4
f 25 23 19
f 23 20 19

