# https://github.com/mikedh/trimesh
v 0.08438334 0.19389991 -0.01574219
v 0.08301143 0.19389991 -0.01569665
v 0.08438334 0.19844904 -0.03154251
v 0.08438334 0.19389991 0.01592676
v 0.07908574 0.19389991 -0.01450138
v 0.08438334 0.19922070 -0.03416072
v 0.08438334 0.19769942 0.03047490
v 0.08286522 0.19389991 0.01569909
v 0.07597152 0.19389991 -0.01304429
v 0.08438334 0.19966900 -0.03560643
v 0.08438334 0.19797134 0.03145388
v 0.07815976 0.19389991 0.01454936
v 0.07937572 0.19389991 0.01486810
v 0.07392217 0.19389991 -0.01180349
v 0.08438334 0.20062439 -0.03836124
v 0.08438334 0.19922805 0.03596176
v 0.07534282 0.19389991 0.01275076
v 0.07130505 0.19389991 -0.00976584
v 0.08438334 0.20074932 -0.03871413
v 0.08438334 0.20049945 0.03995737
v 0.07390999 0.19389991 0.01181731
v 0.06748659 0.19389991 -0.00666952
v 0.08438334 0.20088161 -0.03904425
v 0.06651430 0.19389991 -0.00582714
v 0.08438334 0.20058764 0.04021919
v 0.05948902 0.20364489 0.03152218
v 0.07335683 0.19389991 0.01140751
v 0.08438334 0.20166062 -0.04080870
v 0.05948902 0.20555567 -0.02734199
v 0.06537876 0.19389991 -0.00209335
v 0.05948902 0.19708944 -0.00094361
v 0.05948902 0.19729522 -0.00201366
v 0.05948902 0.19743485 -0.00269667
v 0.05948902 0.19803749 -0.00462049
v 0.08438334 0.20176351 0.04306507
v 0.05948902 0.20258661 0.02769732
v 0.06650699 0.19389991 0.00602310
v 0.07122707 0.19389991 0.00977966
v 0.05948902 0.20376248 0.03179539
v 0.08438334 0.20282179 -0.04315370
v 0.05948902 0.20640817 -0.02904952
v 0.06529591 0.19389991 0.00209579
v 0.05991789 0.19682487 -0.00054519
v 0.05948902 0.19706740 0.00017197
v 0.05948902 0.20412993 0.03243286
v 0.08438334 0.20448269 0.04762987
v 0.05948902 0.19730992 0.00298370
v 0.08438334 0.20901712 -0.05510640
v 0.05948902 0.20744440 -0.03101887
v 0.05948902 0.19706740 0.00117372
v 0.05991789 0.19682487 0.00080945
v 0.05948902 0.20513677 0.03381027
v 0.08438334 0.20887749 0.05490393
v 0.07225784 0.21756419 -0.05555036
v 0.07529409 0.21604291 -0.05594878
v 0.08438334 0.20924495 -0.05527716
v 0.05948902 0.20762078 -0.03133761
v 0.07215549 0.21743925 0.05560972
v 0.06006654 0.22629498 0.05476733
v 0.05948902 0.22560416 0.05304842
v 0.08438334 0.20924495 0.05526820
v 0.06006654 0.22630233 -0.05476490
v 0.06755725 0.22141515 -0.05569834
v 0.07078357 0.22003350 -0.05657487
v 0.07487983 0.22006290 -0.05814580
v 0.07908574 0.21585918 -0.05716681
v 0.08319419 0.21143499 -0.05605123
v 0.08438334 0.21064863 -0.05582357
v 0.05948902 0.22681677 -0.05434371
v 0.07524291 0.21596207 0.05601952
v 0.07072265 0.22000411 0.05660008
v 0.06754020 0.22137105 0.05568940
v 0.06225966 0.22547188 0.05543896
v 0.05948902 0.22775747 0.05494947
v 0.08438334 0.21151583 0.05601952
v 0.08319419 0.21147174 0.05601952
v 0.07908574 0.21585918 0.05716926
v 0.07487983 0.22006290 0.05814823
v 0.05948902 0.22775747 -0.05494703
v 0.05948902 0.22819841 -0.05508363
v 0.06225966 0.22548658 -0.05543651
v 0.06628037 0.22402410 -0.05650657
v 0.07067392 0.22427397 -0.05794089
v 0.07908574 0.22006290 -0.05767907
v 0.08329409 0.21585918 -0.05714405
v 0.08438334 0.21477151 -0.05685946
v 0.08438334 0.21149379 -0.05603985
v 0.06627062 0.22401675 0.05650901
v 0.06225966 0.22847768 0.05625858
v 0.05948902 0.22847768 0.05515437
v 0.08438334 0.21581509 0.05670252
v 0.08329409 0.21585918 0.05711233
v 0.07067392 0.22427397 0.05793195
v 0.07908574 0.22006290 0.05764736
v 0.07487983 0.22427397 0.05746523
v 0.05948902 0.22847768 -0.05515194
v 0.06225966 0.22847768 -0.05625613
v 0.06646801 0.22847768 -0.05701882
v 0.07487983 0.22427397 -0.05747417
v 0.07893710 0.22423722 -0.05585771
v 0.08327216 0.22001146 -0.05586909
v 0.08438334 0.21884294 -0.05578941
v 0.08438334 0.21581509 -0.05673425
v 0.06646801 0.22847768 0.05702127
v 0.05948902 0.23269610 0.05512022
v 0.08438334 0.21940148 0.05555279
v 0.08327216 0.22001146 0.05587154
v 0.07893710 0.22423722 0.05584877
v 0.07487983 0.22745615 0.05558695
v 0.07074215 0.22872755 0.05615613
v 0.08399589 0.23819326 0.04581989
v 0.05948902 0.23206407 -0.05524300
v 0.06646801 0.23154228 -0.05549344
v 0.07074215 0.22872755 -0.05615368
v 0.05948902 0.23401894 -0.05491287
v 0.05981311 0.23493024 -0.05479904
v 0.06048079 0.23493024 -0.05479904
v 0.07487983 0.22745615 -0.05558450
v 0.08399589 0.23819326 -0.04581745
v 0.08438334 0.23768617 -0.04596543
v 0.08185638 0.22281148 -0.05515194
v 0.08438334 0.23615755 -0.04680781
v 0.08438334 0.23257116 -0.04874301
v 0.08438334 0.21940148 -0.05555036
v 0.08438334 0.22988872 -0.05014318
v 0.05981311 0.23493024 0.05480148
v 0.05948902 0.23401894 0.05490393
v 0.06646801 0.23154228 0.05549588
v 0.06048079 0.23493024 0.05480148
v 0.08438334 0.23366619 0.04821042
v 0.08185638 0.22281148 0.05514298
v 0.08438334 0.23615755 0.04681025
v 0.08119114 0.23898697 0.04627523
v 0.06938485 0.23094700 0.05507469
v 0.08438334 0.23809038 0.04568328
v 0.08438334 0.23844314 0.04543284
v 0.08200259 0.24373453 0.04259835
v 0.06938485 0.23094700 -0.05507224
v 0.07908574 0.24152978 -0.04517997
v 0.08119114 0.23898697 -0.04627279
v 0.05948902 0.23537119 -0.05428678
v 0.05950364 0.24320539 -0.04628417
v 0.06355360 0.24746055 -0.04212918
v 0.06555908 0.24746055 -0.04212918
v 0.06873423 0.25163487 -0.03788313
v 0.07067392 0.24732091 -0.04199259
v 0.07487983 0.24500593 -0.04347244
v 0.07908574 0.24443270 -0.04307402
v 0.08438334 0.23809038 -0.04568085
v 0.08200259 0.24373453 -0.04259591
v 0.08438334 0.24056704 -0.04376841
v 0.06355360 0.24746055 0.04212024
v 0.05948902 0.24322009 0.04626384
v 0.05948902 0.24244108 0.04706069
v 0.05948902 0.23537119 0.05428923
v 0.05948902 0.23468037 0.05474456
v 0.07908574 0.24152978 0.04517102
v 0.07908574 0.24443270 0.04307646
v 0.07487983 0.24500593 0.04347488
v 0.07067392 0.24732091 0.04199502
v 0.06873423 0.25163487 0.03788557
v 0.06555908 0.24746055 0.04212024
v 0.08438334 0.24056704 0.04377085
v 0.07487983 0.24854822 0.03944511
v 0.07487983 0.24710779 0.04155107
v 0.08438334 0.26348905 0.00773063
v 0.07908574 0.23942792 -0.04659153
v 0.05948902 0.24322009 -0.04626140
v 0.05948902 0.24732091 -0.04196982
v 0.06827611 0.25163487 -0.03788313
v 0.07487983 0.24854822 -0.03944268
v 0.07487983 0.24710779 -0.04154863
v 0.07035226 0.24983433 -0.03949959
v 0.05948902 0.26187959 -0.02437090
v 0.05948902 0.26556887 -0.01859945
v 0.08438334 0.26235729 -0.01022118
v 0.06827611 0.25163487 0.03788557
v 0.05948902 0.24732091 0.04197225
v 0.05948902 0.24613770 0.04322444
v 0.07035226 0.24983433 0.03949065
v 0.06225966 0.25519921 0.03272884
v 0.05948902 0.26804553 0.01050821
v 0.05948902 0.26361399 0.01892063
v 0.05948902 0.26177670 0.02238122
v 0.06225966 0.25653675 0.03062289
v 0.08438334 0.26420193 0.00623939
v 0.05948902 0.24905532 -0.04000047
v 0.06225966 0.25141439 -0.03762131
v 0.05948902 0.25127476 -0.03741641
v 0.05948902 0.26697255 -0.01576496
v 0.08438334 0.26444444 -0.00628248
v 0.06225966 0.25309000 0.03551780
v 0.06225966 0.25141439 0.03762375
v 0.05948902 0.24785740 0.04136893
v 0.05948902 0.25496404 0.03238733
v 0.05948902 0.25358239 0.03436806
v 0.05948902 0.25184799 0.03670169
v 0.08438334 0.26545128 0.00209579
v 0.05948902 0.26816311 0.01003010
v 0.05948902 0.26734736 -0.01485427
v 0.08438334 0.26547333 -0.00227548
v 0.05948902 0.26828070 -0.01178072
v 0.05948902 0.26841299 -0.01132538
v 0.05948902 0.25127476 0.03741885
v 0.05948902 0.24989312 0.03905808
v 0.05948902 0.26888334 0.00556776
v 0.05948902 0.26871430 0.00732082
v 0.08438334 0.26551007 -0.00209335
v 0.05948902 0.26885394 -0.00935603
v 0.05948902 0.26892743 0.00239176
v 0.05948902 0.26894947 -0.00788756
v 0.05948902 0.26897888 -0.00630525
f 1 2 3
f 1 3 6
f 1 6 10
f 1 10 15
f 1 15 19
f 1 19 23
f 1 23 28
f 1 28 40
f 1 40 48
f 1 48 56
f 1 56 68
f 1 68 87
f 1 87 86
f 1 86 103
f 1 103 102
f 1 102 124
f 1 124 125
f 1 125 123
f 1 123 122
f 1 122 120
f 1 120 149
f 1 149 151
f 1 151 176
f 1 176 191
f 1 191 201
f 1 201 208
f 1 208 198
f 1 198 186
f 1 186 166
f 1 166 163
f 1 163 136
f 1 136 135
f 1 135 132
f 1 132 130
f 1 130 106
f 1 106 91
f 1 91 75
f 1 75 61
f 1 61 53
f 1 53 46
f 1 46 35
f 1 35 25
f 1 25 20
f 1 20 16
f 1 16 11
f 1 11 7
f 1 7 4
f 1 4 8
f 1 8 13
f 1 13 12
f 1 12 17
f 1 17 21
f 1 21 27
f 1 27 38
f 1 38 37
f 1 37 42
f 1 42 30
f 1 30 24
f 1 24 22
f 1 22 18
f 1 18 14
f 1 14 9
f 1 9 5
f 1 5 2
f 2 5 6
f 2 6 3
f 4 7 8
f 5 9 6
f 6 9 10
f 7 11 12
f 7 12 13
f 7 13 8
f 9 14 10
f 10 14 15
f 11 16 12
f 12 16 17
f 14 18 19
f 14 19 15
f 16 20 21
f 16 21 17
f 18 22 19
f 19 22 24
f 19 24 23
f 20 25 26
f 20 26 21
f 21 26 27
f 23 24 29
f 23 29 28
f 24 30 31
f 24 31 32
f 24 32 33
f 24 33 34
f 24 34 29
f 25 35 26
f 26 36 37
f 26 37 38
f 26 38 27
f 26 35 39
f 26 39 45
f 26 45 52
f 26 52 60
f 26 60 74
f 26 74 90
f 26 90 105
f 26 105 127
f 26 127 156
f 26 156 155
f 26 155 154
f 26 154 153
f 26 153 179
f 26 179 178
f 26 178 194
f 26 194 205
f 26 205 204
f 26 204 197
f 26 197 196
f 26 196 195
f 26 195 184
f 26 184 183
f 26 183 182
f 26 182 199
f 26 199 207
f 26 207 206
f 26 206 210
f 26 210 212
f 26 212 211
f 26 211 209
f 26 209 203
f 26 203 202
f 26 202 200
f 26 200 190
f 26 190 175
f 26 175 174
f 26 174 189
f 26 189 187
f 26 187 169
f 26 169 168
f 26 168 141
f 26 141 115
f 26 115 112
f 26 112 96
f 26 96 80
f 26 80 79
f 26 79 69
f 26 69 57
f 26 57 49
f 26 49 41
f 26 41 29
f 26 29 34
f 26 34 33
f 26 33 32
f 26 32 31
f 26 31 44
f 26 44 50
f 26 50 47
f 26 47 36
f 28 29 40
f 29 41 40
f 30 42 43
f 30 43 31
f 31 43 44
f 35 45 39
f 35 46 45
f 36 47 37
f 37 47 42
f 40 41 48
f 41 49 48
f 42 47 50
f 42 50 51
f 42 51 43
f 43 51 50
f 43 50 44
f 45 46 53
f 45 53 52
f 48 54 55
f 48 55 56
f 48 49 57
f 48 57 54
f 52 53 58
f 52 58 59
f 52 59 60
f 53 61 58
f 54 62 63
f 54 63 64
f 54 64 55
f 54 57 62
f 55 64 65
f 55 65 56
f 56 65 66
f 56 66 67
f 56 67 68
f 57 69 62
f 58 61 70
f 58 70 71
f 58 71 72
f 58 72 59
f 59 72 71
f 59 71 73
f 59 73 74
f 59 74 60
f 61 75 76
f 61 76 77
f 61 77 78
f 61 78 70
f 62 69 79
f 62 79 80
f 62 80 81
f 62 81 64
f 62 64 63
f 64 81 82
f 64 82 65
f 65 82 83
f 65 83 99
f 65 99 84
f 65 84 85
f 65 85 66
f 66 85 67
f 67 85 86
f 67 86 87
f 67 87 68
f 70 78 71
f 71 78 88
f 71 88 73
f 73 88 89
f 73 89 90
f 73 90 74
f 75 91 92
f 75 92 77
f 75 77 76
f 77 92 78
f 78 93 88
f 78 92 94
f 78 94 95
f 78 95 93
f 80 96 97
f 80 97 81
f 81 97 82
f 82 97 83
f 83 97 98
f 83 98 99
f 84 99 100
f 84 100 101
f 84 101 102
f 84 102 103
f 84 103 85
f 85 103 86
f 88 93 89
f 89 93 104
f 89 104 105
f 89 105 90
f 91 94 92
f 91 106 107
f 91 107 94
f 93 95 104
f 94 107 108
f 94 108 95
f 95 109 110
f 95 110 104
f 95 108 111
f 95 111 109
f 96 112 97
f 97 112 98
f 98 113 114
f 98 114 99
f 98 112 115
f 98 115 116
f 98 116 117
f 98 117 113
f 99 114 118
f 99 118 119
f 99 119 120
f 99 120 100
f 100 121 101
f 100 120 122
f 100 122 123
f 100 123 121
f 101 124 102
f 101 121 125
f 101 125 124
f 104 126 127
f 104 127 105
f 104 110 128
f 104 128 129
f 104 129 126
f 106 130 107
f 107 131 108
f 107 130 131
f 108 131 130
f 108 130 132
f 108 132 111
f 109 111 133
f 109 133 110
f 110 134 128
f 110 133 134
f 111 135 136
f 111 136 137
f 111 137 133
f 111 132 135
f 113 138 114
f 113 117 139
f 113 139 138
f 114 138 140
f 114 140 118
f 115 141 116
f 116 141 142
f 116 142 143
f 116 143 144
f 116 144 117
f 117 144 145
f 117 145 146
f 117 146 147
f 117 147 148
f 117 148 139
f 118 140 119
f 119 149 120
f 119 140 150
f 119 150 151
f 119 151 149
f 121 123 125
f 126 152 153
f 126 153 154
f 126 154 155
f 126 155 156
f 126 156 127
f 126 129 162
f 126 162 152
f 128 134 157
f 128 157 129
f 129 157 158
f 129 158 159
f 129 159 160
f 129 160 161
f 129 161 162
f 133 137 157
f 133 157 134
f 136 163 137
f 137 164 165
f 137 165 158
f 137 158 157
f 137 163 166
f 137 166 164
f 138 139 167
f 138 167 140
f 139 148 150
f 139 150 140
f 139 140 167
f 141 168 142
f 142 168 169
f 142 169 143
f 143 169 170
f 143 170 145
f 143 145 144
f 145 171 172
f 145 172 173
f 145 173 146
f 145 170 174
f 145 174 175
f 145 175 176
f 145 176 171
f 146 173 172
f 146 172 147
f 147 172 148
f 148 172 150
f 150 172 171
f 150 171 176
f 150 176 151
f 152 177 178
f 152 178 179
f 152 179 153
f 152 162 161
f 152 161 177
f 158 165 159
f 159 165 160
f 160 165 180
f 160 180 161
f 161 181 177
f 161 180 165
f 161 165 164
f 161 164 166
f 161 166 182
f 161 182 183
f 161 183 184
f 161 184 185
f 161 185 181
f 166 186 182
f 169 187 188
f 169 188 170
f 170 188 174
f 174 188 189
f 175 190 191
f 175 191 176
f 177 181 192
f 177 192 193
f 177 193 178
f 178 193 194
f 181 184 195
f 181 195 196
f 181 196 197
f 181 197 192
f 181 185 184
f 182 186 198
f 182 198 199
f 187 189 188
f 190 200 191
f 191 200 202
f 191 202 203
f 191 203 201
f 192 197 193
f 193 197 204
f 193 204 205
f 193 205 194
f 198 206 207
f 198 207 199
f 198 208 206
f 201 203 209
f 201 209 208
f 206 208 210
f 208 209 211
f 208 211 212
f 208 212 210

