# https://github.com/mikedh/trimesh
v 0.12605720 0.07041500 -0.05258956
v 0.12605720 0.07041500 -0.05679674
v 0.12574750 0.07041500 -0.05146724
v 0.12330128 0.06643836 -0.05041493
v 0.10993462 0.04468902 -0.05260810
v 0.12330128 0.06643836 -0.05898168
v 0.12404188 0.06860424 -0.05972303
v 0.12469719 0.07041500 -0.06012048
v 0.10993013 0.04468902 -0.05680704
v 0.12469719 0.07041500 -0.04939969
v 0.12404188 0.06860424 -0.04974771
v 0.10866438 0.04468902 -0.04835767
v 0.10890676 0.04468902 -0.04908049
v 0.10866438 0.04468902 -0.06113572
v 0.12115579 0.06860424 -0.06135812
v 0.12115579 0.07041500 -0.06168144
v 0.10038315 0.04468902 -0.06579594
v 0.09712901 0.04468902 -0.06740015
v 0.09591712 0.04468902 -0.06796852
v 0.12307237 0.07041500 -0.04858832
v 0.10432852 0.04468902 -0.04697176
v 0.11695010 0.07041500 -0.06216537
v 0.08291851 0.04468902 -0.06159700
v 0.10027992 0.07041500 -0.06050763
v 0.10432852 0.07041500 -0.06197180
v 0.10853421 0.07041500 -0.06216537
v 0.12115579 0.07041500 -0.04801994
v 0.11875895 0.07041500 -0.04761838
v 0.10012731 0.04468902 -0.04693057
v 0.08249211 0.04468902 -0.06122015
v 0.09720980 0.06769255 -0.05985071
v 0.09825113 0.07041500 -0.05679674
v 0.11695010 0.07041500 -0.04760396
v 0.09171143 0.04468902 -0.04693057
v 0.08020299 0.04468902 -0.05679674
v 0.08496526 0.05031021 -0.05957064
v 0.09344846 0.06283194 -0.05949444
v 0.09825113 0.07041500 -0.05675967
v 0.10613737 0.07041500 -0.04760396
v 0.08750573 0.04468902 -0.04693263
v 0.08020299 0.04468902 -0.05480950
v 0.09826011 0.07041500 -0.05258956
v 0.08020748 0.04468902 -0.05258956
v 0.10432852 0.07041500 -0.04777283
v 0.10155464 0.07041500 -0.04850594
v 0.08288709 0.04468902 -0.04822794
v 0.09344846 0.06283194 -0.04997423
v 0.09826908 0.07041500 -0.05256279
v 0.08047678 0.04468902 -0.05114186
v 0.10028889 0.07041500 -0.04906402
v 0.08496526 0.05031021 -0.04990834
v 0.09720980 0.06769255 -0.04964269
f 1 2 8
f 1 8 16
f 1 16 22
f 1 22 26
f 1 26 25
f 1 25 24
f 1 24 32
f 1 32 38
f 1 38 42
f 1 42 48
f 1 48 50
f 1 50 45
f 1 45 44
f 1 44 39
f 1 39 33
f 1 33 28
f 1 28 27
f 1 27 20
f 1 20 10
f 1 10 3
f 1 3 4
f 1 4 5
f 1 5 2
f 2 6 7
f 2 7 8
f 2 5 9
f 2 9 6
f 3 10 11
f 3 11 4
f 4 11 12
f 4 12 13
f 4 13 5
f 5 13 12
f 5 12 21
f 5 21 29
f 5 29 34
f 5 34 40
f 5 40 46
f 5 46 49
f 5 49 43
f 5 43 41
f 5 41 35
f 5 35 30
f 5 30 23
f 5 23 19
f 5 19 18
f 5 18 17
f 5 17 14
f 5 14 9
f 6 9 14
f 6 14 7
f 7 14 8
f 8 15 16
f 8 14 17
f 8 17 18
f 8 18 19
f 8 19 15
f 10 20 12
f 10 12 11
f 12 20 21
f 15 19 16
f 16 19 22
f 19 23 24
f 19 24 25
f 19 25 26
f 19 26 22
f 20 27 21
f 21 27 28
f 21 28 29
f 23 30 31
f 23 31 24
f 24 31 32
f 28 33 29
f 29 33 39
f 29 39 34
f 30 35 36
f 30 36 37
f 30 37 31
f 31 37 32
f 32 37 35
f 32 35 41
f 32 41 38
f 34 39 40
f 35 37 36
f 38 41 43
f 38 43 42
f 39 44 40
f 40 45 46
f 40 44 45
f 42 47 48
f 42 43 49
f 42 49 47
f 45 50 46
f 46 51 49
f 46 50 52
f 46 52 47
f 46 47 51
f 47 52 48
f 47 49 51
f 48 52 50

