# https://github.com/mikedh/trimesh
v 0.07379886 0.06019076 0.00210271
v 0.07328957 0.05634988 0.00210271
v 0.07379886 0.06019076 -0.00209404
v 0.07328957 0.06328551 0.00210271
v 0.07307883 0.06294096 0.00630899
v 0.07289443 0.06257808 0.00887473
v 0.07338616 0.06019076 0.00630899
v 0.07289443 0.05755881 0.00887473
v 0.07307883 0.05691459 0.00630899
v 0.07161241 0.05425002 0.00210271
v 0.07328957 0.05634988 -0.00209404
v 0.07307883 0.05691459 -0.00630986
v 0.07289443 0.05755881 -0.00887560
v 0.07338616 0.06019076 -0.00630986
v 0.07289443 0.06257808 -0.00887560
v 0.07307883 0.06294096 -0.00630986
v 0.07328957 0.06328551 -0.00209404
v 0.07067285 0.06494500 0.00210271
v 0.07067285 0.06460045 0.00630899
v 0.06994403 0.06382575 0.01472156
v 0.07295589 0.06019076 0.00911318
v 0.06910106 0.06304494 0.01892784
v 0.06859177 0.06235790 0.02108344
v 0.07131386 0.06019076 0.01472156
v 0.07239391 0.06019076 0.01121155
v 0.06859177 0.05796452 0.02108344
v 0.06902204 0.05633152 0.01860355
v 0.06861811 0.05384840 0.01698208
v 0.06950499 0.05380763 0.00210271
v 0.07161241 0.05425002 -0.00209404
v 0.06870592 0.05381985 0.01472156
v 0.02406367 0.04468652 0.04416555
v 0.06861811 0.05384840 -0.01698295
v 0.07295589 0.06019076 -0.00911405
v 0.06902204 0.05633152 -0.01860442
v 0.06859177 0.05796452 -0.02108431
v 0.07131386 0.06019076 -0.01472243
v 0.07239391 0.06019076 -0.01121242
v 0.06859177 0.06235790 -0.02108431
v 0.06910106 0.06304494 -0.01892871
v 0.06994403 0.06382575 -0.01472243
v 0.07067285 0.06460045 -0.00630986
v 0.07067285 0.06494500 -0.00209404
v 0.06645801 0.06550564 0.01051527
v 0.06645801 0.06544856 0.01472156
v 0.06645801 0.06470443 0.01892784
v 0.06637897 0.06348121 0.02274306
v 0.06492134 0.06310202 0.02604323
v 0.06860933 0.06019076 0.02110252
v 0.06962792 0.06019076 0.01892784
v 0.06520233 0.06019076 0.02644383
v 0.06730975 0.06019076 0.02321043
v 0.06492134 0.05672499 0.02604323
v 0.06405203 0.05392179 0.02493682
v 0.02347535 0.04468652 0.04705557
v 0.02372999 0.04468652 0.04649283
v 0.02425685 0.04468652 -0.04416642
v 0.06950499 0.05380763 -0.00209404
v 0.06870592 0.05381985 -0.01472243
v 0.02329095 0.04468652 -0.04681799
v 0.06405203 0.05392179 -0.02493769
v 0.06860933 0.06019076 -0.02110339
v 0.06962792 0.06019076 -0.01892871
v 0.06492134 0.05672499 -0.02604410
v 0.06520233 0.06019076 -0.02644471
v 0.06730975 0.06019076 -0.02321130
v 0.06492134 0.06310202 -0.02604410
v 0.06637897 0.06348121 -0.02274394
v 0.06645801 0.06470443 -0.01892871
v 0.06645801 0.06544856 -0.01472243
v 0.06645801 0.06550564 -0.01051615
v 0.02860341 0.06551379 0.03995926
v 0.04542767 0.06548526 0.03575298
v 0.05804587 0.06546690 0.02734041
v 0.06225194 0.06535070 0.02313412
v 0.06239243 0.06402147 0.02740717
v 0.06107529 0.06325696 0.03038305
v 0.06363933 0.06019076 0.02855174
v 0.06091724 0.05598291 0.03022090
v 0.06310369 0.05558740 0.02740717
v 0.06024989 0.05384024 0.02954370
v 0.05218899 0.05710623 0.03815656
v 0.02741798 0.04866808 0.04696020
v 0.03286216 0.05595641 0.04768509
v 0.02199137 0.04468652 0.04756109
v 0.05601748 0.05385043 0.03371183
v 0.02031421 0.04468652 -0.04742843
v 0.02860341 0.05598291 -0.04854439
v 0.03280070 0.05601349 -0.04752381
v 0.05218899 0.05710623 -0.03815744
v 0.05601748 0.05385043 -0.03371270
v 0.06024989 0.05384024 -0.02954457
v 0.06310369 0.05558740 -0.02740805
v 0.06091724 0.05598291 -0.03022177
v 0.06363933 0.06019076 -0.02855261
v 0.06107529 0.06325696 -0.03038392
v 0.06239243 0.06402147 -0.02740805
v 0.06225194 0.06535070 -0.02313500
v 0.05804587 0.06546690 -0.02734128
v 0.04542767 0.06548526 -0.03575385
v 0.02860341 0.06550360 -0.03996013
v -0.00925996 0.06550156 0.01051527
v 0.01177915 0.06548933 0.03575298
v 0.02439734 0.06545263 0.03995926
v 0.02860341 0.06504285 0.04416555
v 0.03280948 0.06548321 0.03995926
v -0.00925996 0.06550156 -0.01051615
v 0.04963374 0.06511829 0.03575298
v 0.05383981 0.06544448 0.03154669
v 0.03701554 0.06535274 0.03995926
v 0.05816881 0.06409282 0.03168977
v 0.05685166 0.06322230 0.03438903
v 0.05940692 0.06019076 0.03294879
v 0.06154068 0.06019076 0.03085041
v 0.05878347 0.05598291 0.03231927
v 0.05452472 0.06019076 0.03686893
v 0.05241730 0.06019076 0.03830918
v 0.04963374 0.06019076 0.03979711
v 0.03549644 0.05733863 0.04685528
v 0.05668483 0.05598291 0.03424596
v 0.05730827 0.06019076 0.03476102
v 0.03307291 0.06040280 0.04780908
v 0.02860341 0.05598291 0.04881058
v 0.02036690 0.04468652 0.04786631
v 0.01598521 0.04468652 -0.04773365
v 0.02860341 0.06019076 -0.04863023
v 0.03299388 0.06033144 -0.04766688
v 0.03541741 0.05743649 -0.04673215
v 0.04963374 0.06019076 -0.03979798
v 0.05241730 0.06019076 -0.03831005
v 0.05452472 0.06019076 -0.03686026
v 0.05730827 0.06019076 -0.03476189
v 0.05668483 0.05598291 -0.03424684
v 0.05878347 0.05598291 -0.03232014
v 0.06154068 0.06019076 -0.03085129
v 0.05940692 0.06019076 -0.03294966
v 0.05685166 0.06322230 -0.03438990
v 0.05816881 0.06409282 -0.03169064
v 0.05383981 0.06544448 -0.03154756
v 0.04963374 0.06511829 -0.03575385
v 0.03701554 0.06535274 -0.03996013
v 0.03280948 0.06547914 -0.03996013
v 0.02860341 0.06487568 -0.04416642
v 0.02439734 0.06545059 -0.03996013
v 0.01177915 0.06548933 -0.03575385
v -0.01346603 0.06432932 0.00210271
v -0.00925996 0.06526915 0.01472156
v -0.00505390 0.06546690 0.01892784
v -0.00083905 0.06537516 0.02734041
v 0.00336702 0.06535682 0.03154669
v 0.00757308 0.06492257 0.03575298
v 0.01598521 0.06476355 0.03995926
v 0.02019128 0.06529565 0.03995926
v 0.02860341 0.06342822 0.04725588
v 0.03184358 0.06326715 0.04712234
v 0.04122161 0.06489811 0.03995926
v -0.00505390 0.06546690 -0.01892871
v -0.00925996 0.06526915 -0.01472243
v -0.01346603 0.06432932 -0.00209404
v 0.04963374 0.06349345 0.03882423
v 0.05369053 0.06384206 0.03578159
v 0.05218899 0.06283903 0.03815656
v 0.03549644 0.05914288 0.04685528
v 0.02860341 0.06019076 0.04877242
v 0.04376808 0.06267797 0.04223885
v 0.01731114 0.04468652 0.04842905
v 0.01176158 0.04468652 -0.04709460
v 0.01284164 0.04757127 -0.04671308
v 0.02452906 0.06000932 -0.04718998
v 0.01361437 0.06255361 -0.04218250
v 0.02601304 0.06275340 -0.04667492
v 0.02860341 0.06327123 -0.04713275
v 0.03171186 0.06313668 -0.04701829
v 0.03541741 0.05902463 -0.04673215
v 0.04376808 0.06267797 -0.04223973
v 0.05218899 0.06283903 -0.03815744
v 0.05369053 0.06384206 -0.03578246
v 0.04963374 0.06349345 -0.03882510
v 0.04122161 0.06489811 -0.03996013
v 0.01598521 0.06476355 -0.03996013
v 0.02019128 0.06529565 -0.03996013
v 0.00757308 0.06492257 -0.03575385
v 0.00336702 0.06535682 -0.03154756
v -0.00083905 0.06537516 -0.02734128
v -0.01300942 0.06391138 0.01051527
v -0.01573151 0.06266981 0.00210271
v -0.01238597 0.06364228 0.01472156
v -0.00954973 0.06406429 0.01908045
v -0.00505390 0.06515906 0.02313412
v -0.00503633 0.06379721 0.02720688
v -0.00083027 0.06395216 0.03154669
v 0.00365679 0.06362597 0.03567667
v 0.00757308 0.06328346 0.03863347
v 0.01204258 0.06372790 0.04007372
v 0.02594279 0.06283291 0.04673128
v 0.01598521 0.06310406 0.04251546
v 0.01361437 0.06255361 0.04218163
v -0.01238597 0.06364228 -0.01472243
v -0.01300942 0.06391138 -0.01051615
v -0.00505390 0.06515906 -0.02313500
v -0.00954973 0.06406429 -0.01908132
v -0.01573151 0.06266981 -0.00209404
v 0.01190208 0.04468652 0.04751340
v 0.01310507 0.04468652 0.04792354
v 0.01598521 0.04468652 0.04828598
v 0.02448516 0.06005214 0.04730356
v 0.00990881 0.04468652 0.04680758
v -0.00395628 0.06019076 -0.03049838
v -0.00186642 0.06019076 -0.03259675
v 0.00024101 0.06019076 -0.03451390
v 0.00057468 0.06311017 -0.03422776
v 0.00524614 0.06258828 -0.03800483
v 0.00928536 0.04468652 -0.04416642
v -0.00606371 0.06019076 -0.02804709
v 0.00757308 0.06328346 -0.03863434
v 0.01204258 0.06372790 -0.04007459
v 0.01598521 0.06310406 -0.04251633
v 0.04526962 0.06382167 -0.04014135
v 0.00365679 0.06362597 -0.03567754
v -0.00083027 0.06395216 -0.03154756
v -0.00503633 0.06379721 -0.02720775
v -0.01561735 0.06241499 0.00464937
v -0.01589835 0.06019076 0.00210271
v -0.01180643 0.06303882 0.01778327
v -0.00829406 0.06353830 0.02313412
v -0.00748622 0.06285329 0.02570940
v -0.00362260 0.06313464 0.03014460
v 0.00057468 0.06311017 0.03422689
v 0.00524614 0.06258828 0.03800396
v -0.01180643 0.06303882 -0.01778415
v -0.01561735 0.06241499 -0.00464070
v -0.00829406 0.06353830 -0.02313500
v -0.01589835 0.06019076 -0.00209404
v 0.00932049 0.04468652 0.04648329
v -0.00362260 0.06313464 -0.03014547
v -0.01177131 0.05380763 -0.00209404
v -0.01156056 0.05380763 -0.01051615
v -0.01145519 0.05383209 -0.01341572
v -0.01075272 0.05400130 -0.01621990
v -0.01180643 0.05680450 -0.01778415
v -0.00748622 0.05708380 -0.02571027
v 0.00917121 0.04468652 0.04554856
v -0.00764427 0.06019076 -0.02593919
v -0.00748622 0.06285329 -0.02571027
v -0.01564370 0.06019076 0.00486874
v -0.01539784 0.06019076 0.00696712
v -0.01466902 0.06019076 0.01051527
v -0.01573151 0.05738960 0.00210271
v -0.01561735 0.05785850 0.00464937
v -0.01340456 0.06019076 0.01472156
v -0.01203474 0.06019076 0.01826018
v -0.01105128 0.06019076 0.02036809
v -0.00764427 0.06019076 0.02594785
v -0.00606371 0.06019076 0.02804622
v -0.00943558 0.06019076 0.02313412
v -0.00395628 0.06019076 0.03049750
v -0.00186642 0.06019076 0.03259588
v -0.01203474 0.06019076 -0.01826105
v -0.01340456 0.06019076 -0.01472243
v -0.01466902 0.06019076 -0.01051615
v -0.01105128 0.06019076 -0.02036896
v -0.01539784 0.06019076 -0.00696799
v -0.01564370 0.06019076 -0.00486961
v -0.01561735 0.05785850 -0.00464070
v -0.01573151 0.05738960 -0.00209404
v 0.00917121 0.04468652 0.04558672
v -0.00748622 0.05708380 0.02570940
v -0.01180643 0.05680450 0.01778327
v -0.01075272 0.05400130 0.01621903
v -0.01145519 0.05383209 0.01341484
v -0.01387873 0.05528568 -0.00209404
v -0.01177131 0.05380763 0.00210271
v -0.01223670 0.05563429 -0.01477966
v -0.00943558 0.06019076 -0.02313500
v -0.01387873 0.05528568 0.00210271
v -0.01223670 0.05563429 0.01477878
v -0.01156056 0.05380763 0.01051527
f 1 2 11
f 1 11 3
f 1 3 17
f 1 17 4
f 1 4 5
f 1 5 6
f 1 6 7
f 1 7 8
f 1 8 9
f 1 9 2
f 2 10 30
f 2 30 11
f 2 9 10
f 3 11 12
f 3 12 13
f 3 13 14
f 3 14 15
f 3 15 16
f 3 16 17
f 4 17 43
f 4 43 18
f 4 18 19
f 4 19 5
f 5 19 20
f 5 20 6
f 6 21 7
f 6 20 22
f 6 22 23
f 6 23 24
f 6 24 25
f 6 25 21
f 7 21 8
f 8 21 25
f 8 25 24
f 8 24 26
f 8 26 27
f 8 27 28
f 8 28 9
f 9 28 10
f 10 29 58
f 10 58 30
f 10 28 31
f 10 31 32
f 10 32 29
f 11 30 12
f 12 30 33
f 12 33 13
f 13 34 14
f 13 33 35
f 13 35 36
f 13 36 37
f 13 37 38
f 13 38 34
f 14 34 15
f 15 34 38
f 15 38 37
f 15 37 39
f 15 39 40
f 15 40 41
f 15 41 16
f 16 42 17
f 16 41 42
f 17 42 43
f 18 44 45
f 18 45 19
f 18 43 71
f 18 71 44
f 19 45 20
f 20 45 46
f 20 46 22
f 22 46 47
f 22 47 48
f 22 48 23
f 23 49 50
f 23 50 24
f 23 48 51
f 23 51 52
f 23 52 49
f 24 50 26
f 26 28 27
f 26 50 49
f 26 49 52
f 26 52 51
f 26 51 53
f 26 53 54
f 26 54 28
f 28 54 55
f 28 55 56
f 28 56 32
f 28 32 31
f 29 32 57
f 29 57 58
f 30 58 57
f 30 57 59
f 30 59 33
f 32 56 55
f 32 55 85
f 32 85 124
f 32 124 166
f 32 166 205
f 32 205 204
f 32 204 203
f 32 203 207
f 32 207 234
f 32 234 266
f 32 266 242
f 32 242 213
f 32 213 167
f 32 167 125
f 32 125 87
f 32 87 60
f 32 60 57
f 33 36 35
f 33 59 57
f 33 57 60
f 33 60 61
f 33 61 36
f 36 62 63
f 36 63 37
f 36 61 64
f 36 64 65
f 36 65 66
f 36 66 62
f 37 63 39
f 39 63 62
f 39 62 66
f 39 66 65
f 39 65 67
f 39 67 40
f 40 67 68
f 40 68 69
f 40 69 41
f 41 69 70
f 41 70 42
f 42 70 43
f 43 70 71
f 44 72 73
f 44 73 74
f 44 74 45
f 44 71 72
f 45 74 75
f 45 75 46
f 46 75 76
f 46 76 47
f 47 76 48
f 48 76 77
f 48 77 78
f 48 78 51
f 51 78 53
f 53 78 79
f 53 79 80
f 53 80 54
f 54 80 81
f 54 81 55
f 55 82 83
f 55 83 84
f 55 84 85
f 55 81 86
f 55 86 82
f 60 87 88
f 60 88 89
f 60 89 90
f 60 90 91
f 60 91 92
f 60 92 61
f 61 92 93
f 61 93 64
f 64 93 94
f 64 94 95
f 64 95 65
f 65 95 67
f 67 95 96
f 67 96 97
f 67 97 68
f 68 97 69
f 69 97 98
f 69 98 70
f 70 98 99
f 70 99 71
f 71 99 100
f 71 100 101
f 71 101 72
f 72 102 103
f 72 103 104
f 72 104 105
f 72 105 106
f 72 106 73
f 72 101 107
f 72 107 102
f 73 108 109
f 73 109 74
f 73 106 110
f 73 110 108
f 74 109 111
f 74 111 76
f 74 76 75
f 76 111 77
f 77 111 112
f 77 112 113
f 77 113 114
f 77 114 78
f 78 114 79
f 79 81 80
f 79 114 113
f 79 113 115
f 79 115 81
f 81 115 86
f 82 116 117
f 82 117 118
f 82 118 119
f 82 119 84
f 82 84 83
f 82 86 120
f 82 120 121
f 82 121 116
f 84 119 122
f 84 122 123
f 84 123 85
f 85 123 124
f 86 115 120
f 87 125 88
f 88 125 126
f 88 126 127
f 88 127 89
f 89 127 128
f 89 128 90
f 90 128 129
f 90 129 130
f 90 130 131
f 90 131 132
f 90 132 133
f 90 133 91
f 91 133 134
f 91 134 92
f 92 134 94
f 92 94 93
f 94 134 136
f 94 136 135
f 94 135 95
f 95 135 96
f 96 135 136
f 96 136 137
f 96 137 138
f 96 138 97
f 97 99 98
f 97 138 99
f 99 138 139
f 99 139 100
f 100 139 140
f 100 140 141
f 100 141 142
f 100 142 101
f 101 142 143
f 101 143 144
f 101 144 145
f 101 145 107
f 102 146 147
f 102 147 148
f 102 148 103
f 102 107 159
f 102 159 146
f 103 149 150
f 103 150 151
f 103 151 152
f 103 152 153
f 103 153 104
f 103 148 149
f 104 153 105
f 105 154 155
f 105 155 156
f 105 156 110
f 105 110 106
f 105 153 152
f 105 152 154
f 107 145 157
f 107 157 158
f 107 158 159
f 108 111 109
f 108 110 156
f 108 156 160
f 108 160 161
f 108 161 111
f 111 161 112
f 112 121 113
f 112 161 162
f 112 162 121
f 113 121 120
f 113 120 115
f 116 162 117
f 116 121 162
f 117 162 118
f 118 162 163
f 118 163 119
f 119 163 122
f 122 155 164
f 122 164 123
f 122 163 162
f 122 162 165
f 122 165 155
f 123 164 166
f 123 166 124
f 125 167 126
f 126 167 168
f 126 168 169
f 126 169 170
f 126 170 171
f 126 171 172
f 126 172 173
f 126 173 127
f 127 174 128
f 127 173 175
f 127 175 174
f 128 174 129
f 129 176 130
f 129 174 175
f 129 175 176
f 130 176 131
f 131 176 132
f 132 137 136
f 132 136 133
f 132 176 137
f 133 136 134
f 137 176 177
f 137 177 138
f 138 177 140
f 138 140 139
f 140 177 178
f 140 178 179
f 140 179 141
f 141 179 143
f 141 143 142
f 143 173 172
f 143 172 180
f 143 180 181
f 143 181 144
f 143 179 173
f 144 181 145
f 145 181 180
f 145 180 182
f 145 182 183
f 145 183 184
f 145 184 157
f 146 185 147
f 146 159 202
f 146 202 186
f 146 186 185
f 147 187 188
f 147 188 189
f 147 189 149
f 147 149 148
f 147 185 187
f 149 190 191
f 149 191 150
f 149 189 190
f 150 191 151
f 151 191 192
f 151 192 193
f 151 193 194
f 151 194 152
f 152 194 154
f 154 195 164
f 154 164 155
f 154 194 196
f 154 196 197
f 154 197 195
f 155 165 160
f 155 160 156
f 157 184 158
f 158 198 199
f 158 199 159
f 158 184 200
f 158 200 201
f 158 201 198
f 159 199 202
f 160 165 162
f 160 162 161
f 164 203 204
f 164 204 205
f 164 205 166
f 164 195 206
f 164 206 207
f 164 207 203
f 167 208 209
f 167 209 210
f 167 210 211
f 167 211 212
f 167 212 168
f 167 213 214
f 167 214 208
f 168 212 170
f 168 170 169
f 170 212 215
f 170 215 216
f 170 216 217
f 170 217 172
f 170 172 171
f 172 217 216
f 172 216 180
f 173 179 218
f 173 218 178
f 173 178 175
f 175 178 176
f 176 178 177
f 178 218 179
f 180 216 182
f 182 216 215
f 182 215 219
f 182 219 220
f 182 220 183
f 183 220 184
f 184 220 221
f 184 221 200
f 185 222 187
f 185 186 222
f 186 202 233
f 186 233 223
f 186 223 222
f 187 224 188
f 187 222 224
f 188 225 189
f 188 224 225
f 189 225 190
f 190 225 226
f 190 226 227
f 190 227 191
f 191 228 192
f 191 227 228
f 192 228 229
f 192 229 193
f 193 229 197
f 193 197 194
f 194 197 196
f 195 197 206
f 197 229 207
f 197 207 206
f 198 201 230
f 198 230 231
f 198 231 199
f 199 231 202
f 200 221 232
f 200 232 201
f 201 232 230
f 202 231 233
f 207 229 234
f 208 214 235
f 208 235 209
f 209 235 211
f 209 211 210
f 211 219 212
f 211 235 220
f 211 220 219
f 212 219 215
f 213 236 237
f 213 237 238
f 213 238 239
f 213 239 240
f 213 240 241
f 213 241 214
f 213 242 236
f 214 241 243
f 214 243 244
f 214 244 235
f 220 235 221
f 221 244 232
f 221 235 244
f 222 245 246
f 222 246 247
f 222 247 224
f 222 223 245
f 223 248 249
f 223 249 245
f 223 233 265
f 223 265 248
f 224 247 250
f 224 250 251
f 224 251 252
f 224 252 226
f 224 226 225
f 226 253 254
f 226 254 227
f 226 252 255
f 226 255 253
f 227 254 256
f 227 256 257
f 227 257 228
f 228 257 234
f 228 234 229
f 230 258 259
f 230 259 260
f 230 260 231
f 230 232 244
f 230 244 261
f 230 261 258
f 231 262 263
f 231 263 233
f 231 260 262
f 233 263 264
f 233 264 265
f 234 257 256
f 234 256 254
f 234 254 253
f 234 253 267
f 234 267 268
f 234 268 269
f 234 269 270
f 234 270 266
f 236 271 237
f 236 242 266
f 236 266 272
f 236 272 275
f 236 275 271
f 237 271 238
f 238 271 265
f 238 265 264
f 238 264 273
f 238 273 239
f 239 273 240
f 240 273 264
f 240 264 260
f 240 260 259
f 240 259 258
f 240 258 261
f 240 261 241
f 241 274 243
f 241 261 274
f 243 274 244
f 244 274 261
f 245 249 246
f 246 249 247
f 247 249 268
f 247 268 250
f 248 265 271
f 248 271 275
f 248 275 270
f 248 270 249
f 249 270 276
f 249 276 268
f 250 268 251
f 251 268 252
f 252 268 267
f 252 267 255
f 253 255 267
f 260 264 262
f 262 264 263
f 266 270 277
f 266 277 272
f 268 276 269
f 269 276 270
f 270 275 277
f 272 277 275

