# https://github.com/mikedh/trimesh
v 3.11299418 -3.17630344 11.27489818
v 3.69969327 -3.17630344 11.27489818
v 3.11299418 -3.17630344 11.34422714
v 4.38381658 0.00085116 11.27489818
v 3.93308032 -3.17630344 12.43643242
v 3.80142621 -3.04381847 11.27489818
v 4.16335573 -2.90386918 12.47041477
v 4.04678166 -3.04226340 12.45417408
v 3.11323345 -3.17630344 11.40645951
v 4.38405622 0.00085116 11.40645951
v 4.38381658 0.00085116 11.28035708
v 4.85513869 0.00085116 11.27489818
v 3.93308032 -3.17630344 12.50439675
v 4.02140852 -2.75707834 11.27489818
v 4.06976134 -2.69394561 11.27489818
v 4.13271603 -2.60904325 11.27489818
v 4.17508485 -2.54622173 11.27489818
v 4.30362731 -2.67341985 12.41459649
v 4.41134427 -2.52071975 12.47751136
v 4.30865424 -2.68088379 12.51381354
v 4.16335573 -2.90386918 12.48460795
v 4.04678166 -3.04226340 12.49866477
v 3.11634527 -3.17630344 11.46173163
v 4.39770024 0.00085116 11.50485771
v 3.12209020 -3.17630344 11.52942289
v 3.12400511 -3.17630344 11.54416223
v 5.55817258 0.00085116 12.45758622
v 4.85609652 -0.05761637 11.27489818
v 3.93260178 -3.17630344 12.51258526
v 4.21673549 -2.45758740 11.27489818
v 5.44088070 -0.41495299 12.44653172
v 4.41134427 -2.52071975 12.47778406
v 4.34599614 -2.57856563 12.53783294
v 4.27969016 -2.63610011 12.59774547
v 4.25575303 -2.71758150 12.54970629
v 4.13128003 -2.86219563 12.56867623
v 4.01494522 -3.00090068 12.58273307
v 3.89885044 -3.13960573 12.59460642
v 3.90627081 -3.17630344 12.54738647
v 4.53294489 0.00085116 11.85928195
v 3.12783512 -3.17630344 11.56913721
v 3.18312997 -3.17630344 11.92328837
v 3.20084346 -3.17630344 12.03642590
v 3.22142932 -3.17630344 12.16771416
v 3.23172206 -3.17630344 12.22394185
v 3.24416936 -3.17630344 12.28617422
v 3.25278684 -3.17630344 12.32534239
v 5.55817258 -0.06321433 12.45772257
v 4.85609652 -0.06321433 11.27489818
v 5.55817258 0.00085116 12.50275903
v 4.21888967 -2.45261137 11.27489818
v 4.32349498 -2.20008103 11.27489818
v 4.63419894 -1.44964312 11.27489818
v 4.66172663 -1.38153455 11.27489818
v 5.55003403 -0.14687282 12.47041477
v 5.44088070 -0.41495299 12.51326776
v 5.41454973 -0.36612632 12.59719932
v 4.29979749 -2.55213061 12.61589656
v 4.18992597 -2.70949553 12.62231065
v 4.16359500 -2.77822612 12.60688920
v 3.85384852 -3.17630344 12.60702592
v 3.88664241 -3.17630344 12.57317992
v 4.04726058 -2.91693137 12.61398616
v 4.62893312 0.00085116 12.03287743
v 3.26954288 -3.17630344 12.36792231
v 4.82449936 -0.30983570 11.27489818
v 4.84029794 -0.18916849 11.27489818
v 4.84101612 -0.18357053 11.27489818
v 5.55817258 -0.06321433 12.50275903
v 4.70625000 -1.19742379 11.27489818
v 4.72396351 -1.07146963 11.27489818
v 5.51987324 0.00085116 12.56581026
v 4.67920085 -1.32120094 11.27489818
v 5.55003403 -0.14687282 12.48692816
v 4.67991904 -1.31840192 11.27489818
v 4.68111576 -1.31311497 11.27489818
v 5.46098764 -0.32072061 12.54943322
v 5.43058758 -0.28215691 12.61371271
v 5.33029100 -0.44138782 12.62872474
v 4.32014370 -2.45758740 12.62927090
v 4.23157661 -2.59007237 12.63786884
v 4.09633158 -2.70949553 12.65697513
v 3.97185859 -2.96015998 12.63350189
v 3.93092614 -3.05563623 12.61985410
v 3.82129390 -3.17630344 12.62613221
v 4.66507791 0.00085116 12.09592865
v 3.29802803 -3.17630344 12.41459649
v 5.51963397 -0.06321433 12.56581026
v 5.48875498 0.00085116 12.59883702
v 5.45667928 -0.06321433 12.63268304
v 5.51077722 -0.18885757 12.53360234
v 5.36619691 -0.32072061 12.63745941
v 5.44303488 -0.18916849 12.62394836
v 4.22248022 -2.45758740 12.66393538
v 3.97018294 -2.83576080 12.66338922
v 3.76001486 -3.17630344 12.64987893
v 3.85169396 -3.09357799 12.63964328
v 4.72133040 0.00085116 12.16252834
v 3.29922476 -3.17630344 12.41637091
v 3.36960019 -3.17630344 12.51340411
v 5.45667928 0.00085116 12.63268304
v 5.35638270 -0.06321433 12.66734750
v 5.35638270 -0.18916849 12.65861283
v 5.40736863 0.00085116 12.64974219
v 5.23047334 -0.44138782 12.66338922
v 4.34815031 -2.07941382 12.66871177
v 4.22248022 -2.33163315 12.66871177
v 4.09633158 -2.58354147 12.66693808
v 3.84427359 -2.96171505 12.66680136
v 3.71812495 -3.17630344 12.65834013
v 4.78260945 0.00085116 12.23240308
v 3.43087923 -3.17630344 12.57741053
v 5.35638270 0.00085116 12.66734750
v 4.60020831 -1.44964312 12.66898522
v 3.71812495 -3.08766911 12.66721078
v 3.62979675 -3.17630344 12.66557308
v 4.84388849 0.00085116 12.29545430
v 3.43901779 -3.17630344 12.58478020
v 5.10264906 0.00085116 12.54192720
v 4.90684318 0.00085116 12.36000687
v 4.87572493 0.00085116 12.32820836
v 5.28888001 0.00085116 12.65097048
v 4.60020831 -1.32368886 12.66038727
v 3.59101848 -3.17630344 12.65615628
v 3.48952518 -3.17630344 12.62231065
v 5.17230592 0.00085116 12.59951954
v 5.22065914 0.00085116 12.63432074
v 3.50843539 -3.17630344 12.63077188
v 5.18403504 0.00085116 12.60798075
f 1 2 5
f 1 5 13
f 1 13 29
f 1 29 39
f 1 39 62
f 1 62 61
f 1 61 85
f 1 85 96
f 1 96 110
f 1 110 116
f 1 116 124
f 1 124 128
f 1 128 125
f 1 125 118
f 1 118 112
f 1 112 100
f 1 100 99
f 1 99 87
f 1 87 65
f 1 65 47
f 1 47 46
f 1 46 45
f 1 45 44
f 1 44 43
f 1 43 42
f 1 42 41
f 1 41 26
f 1 26 25
f 1 25 23
f 1 23 9
f 1 9 3
f 1 3 11
f 1 11 4
f 1 4 12
f 1 12 28
f 1 28 49
f 1 49 68
f 1 68 67
f 1 67 66
f 1 66 71
f 1 71 70
f 1 70 76
f 1 76 75
f 1 75 73
f 1 73 54
f 1 54 53
f 1 53 52
f 1 52 51
f 1 51 30
f 1 30 17
f 1 17 16
f 1 16 15
f 1 15 14
f 1 14 6
f 1 6 2
f 2 6 7
f 2 7 8
f 2 8 5
f 3 9 10
f 3 10 11
f 4 11 10
f 4 10 24
f 4 24 40
f 4 40 64
f 4 64 86
f 4 86 98
f 4 98 111
f 4 111 117
f 4 117 121
f 4 121 120
f 4 120 119
f 4 119 126
f 4 126 129
f 4 129 127
f 4 127 122
f 4 122 113
f 4 113 104
f 4 104 101
f 4 101 89
f 4 89 72
f 4 72 50
f 4 50 27
f 4 27 12
f 5 8 22
f 5 22 13
f 6 14 7
f 7 14 15
f 7 15 16
f 7 16 17
f 7 17 18
f 7 18 19
f 7 19 20
f 7 20 21
f 7 21 22
f 7 22 8
f 9 23 10
f 10 23 25
f 10 25 26
f 10 26 24
f 12 27 28
f 13 22 29
f 17 30 31
f 17 31 19
f 17 19 18
f 19 32 20
f 19 31 56
f 19 56 32
f 20 33 34
f 20 34 35
f 20 35 21
f 20 32 33
f 21 35 36
f 21 36 37
f 21 37 22
f 22 37 38
f 22 38 39
f 22 39 29
f 24 26 41
f 24 41 42
f 24 42 43
f 24 43 44
f 24 44 45
f 24 45 46
f 24 46 47
f 24 47 40
f 27 48 49
f 27 49 28
f 27 50 69
f 27 69 48
f 30 51 31
f 31 51 52
f 31 52 53
f 31 53 54
f 31 54 55
f 31 55 74
f 31 74 56
f 32 56 57
f 32 57 33
f 33 57 34
f 34 58 59
f 34 59 60
f 34 60 37
f 34 37 36
f 34 36 35
f 34 57 58
f 37 60 38
f 38 61 62
f 38 62 39
f 38 60 63
f 38 63 61
f 40 47 65
f 40 65 64
f 48 66 67
f 48 67 68
f 48 68 49
f 48 69 74
f 48 74 55
f 48 55 70
f 48 70 71
f 48 71 66
f 50 72 69
f 54 73 55
f 55 73 75
f 55 75 76
f 55 76 70
f 56 74 77
f 56 77 57
f 57 77 78
f 57 78 79
f 57 79 58
f 58 80 81
f 58 81 59
f 58 79 80
f 59 63 60
f 59 81 82
f 59 82 83
f 59 83 84
f 59 84 63
f 61 63 84
f 61 84 85
f 64 65 86
f 65 87 86
f 69 88 74
f 69 72 88
f 72 89 90
f 72 90 88
f 74 91 77
f 74 88 91
f 77 91 78
f 78 92 79
f 78 91 88
f 78 88 93
f 78 93 92
f 79 92 81
f 79 81 80
f 81 92 94
f 81 94 82
f 82 95 96
f 82 96 83
f 82 94 95
f 83 96 97
f 83 97 85
f 83 85 84
f 85 97 96
f 86 87 99
f 86 99 100
f 86 100 98
f 88 90 93
f 89 101 90
f 90 102 103
f 90 103 93
f 90 101 104
f 90 104 102
f 92 105 94
f 92 93 103
f 92 103 105
f 94 106 107
f 94 107 108
f 94 108 109
f 94 109 95
f 94 105 106
f 95 109 110
f 95 110 96
f 98 100 111
f 100 112 111
f 102 105 103
f 102 104 113
f 102 113 114
f 102 114 106
f 102 106 105
f 106 114 107
f 107 115 109
f 107 109 108
f 107 114 115
f 109 115 110
f 110 115 116
f 111 112 117
f 112 118 119
f 112 119 120
f 112 120 121
f 112 121 117
f 113 122 123
f 113 123 116
f 113 116 114
f 114 116 115
f 116 123 124
f 118 125 126
f 118 126 119
f 122 127 123
f 123 127 124
f 124 127 128
f 125 128 127
f 125 127 129
f 125 129 126

