# https://github.com/mikedh/trimesh
v -3.34125964 -4.01560218 11.41232181
v -3.34125964 -3.42811729 11.41232181
v -3.34236472 -4.01476830 11.41232181
v -3.34125964 -4.01289171 0.88185463
v -3.34125964 -3.42749188 11.40613722
v -4.44914855 -1.88602129 11.41232181
v -3.58859723 -3.82588923 11.41232181
v -3.40045024 -3.96765277 0.88185463
v -3.35909559 -3.99934083 0.88185463
v -3.35009873 -4.00622069 0.88185463
v -3.34125964 -3.42749188 0.88185463
v -4.44883266 -1.88602129 11.40613722
v -4.95376751 -1.88602129 11.41232181
v -3.65110229 -3.77793982 11.41232181
v -3.54550646 -3.85632648 0.88185463
v -4.44883266 -1.88602129 0.88185463
v -4.95139999 -1.88602129 0.88185463
v -4.93245897 -1.93188601 0.88185463
v -4.91951584 -1.96315751 0.88185463
v -4.71684738 -2.45787062 11.41232181
v -3.71755362 -3.72686300 11.41232181
v -3.75654036 -3.69434068 0.88185463
v -4.81897097 -2.20582332 0.88185463
v -4.67707146 -2.54355407 11.41232181
v -4.73957690 -2.39741268 0.88185463
v -4.71447984 -2.45787062 0.88185463
v -4.69506555 -2.49998270 0.88185463
v -4.67580863 -2.54167785 0.88185463
v -3.79173897 -3.66974057 11.41232181
v -3.79426464 -3.66515424 0.88185463
v -4.63476987 -2.60651383 11.41232181
v -4.65481597 -2.57294935 0.88185463
v -3.79584300 -3.66640506 11.41232181
v -3.79584300 -3.66640506 11.40613722
v -3.85724336 -3.60469631 0.88185463
v -3.79884195 -3.66369496 11.41232181
v -3.85897948 -3.60636406 11.41232181
v -4.57179115 -2.69198900 11.41232181
v -4.63350742 -2.60463761 0.88185463
v -4.57052870 -2.69032125 0.88185463
v -3.88739101 -3.57300787 0.88185463
v -3.91564440 -3.54632306 11.41232181
v -3.91706500 -3.54173637 0.88185463
v -4.56958138 -2.69490757 11.41232181
v -4.52222921 -2.75328082 0.88185463
v -4.45909235 -2.83896446 11.41232181
v -3.91832783 -3.54340412 11.41232181
v -4.02850098 -3.39663732 0.88185463
v -3.97830761 -3.46543440 11.41232181
v -4.10821094 -3.29281630 0.88185463
f 1 2 6
f 1 6 13
f 1 13 20
f 1 20 24
f 1 24 31
f 1 31 38
f 1 38 44
f 1 44 46
f 1 46 49
f 1 49 47
f 1 47 42
f 1 42 37
f 1 37 36
f 1 36 33
f 1 33 29
f 1 29 21
f 1 21 14
f 1 14 7
f 1 7 3
f 1 3 10
f 1 10 4
f 1 4 11
f 1 11 5
f 1 5 2
f 2 5 6
f 3 7 8
f 3 8 9
f 3 9 10
f 4 10 9
f 4 9 8
f 4 8 15
f 4 15 22
f 4 22 30
f 4 30 35
f 4 35 41
f 4 41 43
f 4 43 48
f 4 48 50
f 4 50 45
f 4 45 40
f 4 40 39
f 4 39 32
f 4 32 28
f 4 28 27
f 4 27 26
f 4 26 25
f 4 25 23
f 4 23 19
f 4 19 18
f 4 18 17
f 4 17 16
f 4 16 11
f 5 12 6
f 5 11 16
f 5 16 12
f 6 12 16
f 6 16 17
f 6 17 13
f 7 14 8
f 8 14 15
f 13 17 18
f 13 18 19
f 13 19 20
f 14 21 22
f 14 22 15
f 19 23 20
f 20 23 25
f 20 25 26
f 20 26 27
f 20 27 28
f 20 28 24
f 21 29 22
f 22 29 30
f 24 28 32
f 24 32 31
f 29 33 34
f 29 34 30
f 30 34 36
f 30 36 37
f 30 37 35
f 31 32 39
f 31 39 40
f 31 40 38
f 33 36 34
f 35 37 41
f 37 42 43
f 37 43 41
f 38 40 44
f 40 45 46
f 40 46 44
f 42 47 43
f 43 47 49
f 43 49 48
f 45 50 46
f 46 50 49
f 48 49 50

