# https://github.com/mikedh/trimesh
v 1.75341237 4.60042843 12.66441843
v 1.75341237 4.72771369 12.64068373
v 1.70130898 4.72631000 12.65017792
v 1.57540816 4.72631000 12.66679160
v 1.44931370 4.72631000 12.66679160
v 0.56723324 4.97842435 12.67153868
v -0.22516707 5.10442311 12.66679160
v 1.70130898 4.60042843 12.66204451
v 1.75341237 4.49092540 12.62881640
v 1.75341237 4.79393026 12.60745564
v 1.70130898 4.80469366 12.61576210
v 1.57540816 4.83078235 12.63237652
v 1.32321916 4.85242558 12.66085830
v 1.19731834 4.85242558 12.66797856
v 0.69332774 4.97842435 12.66916551
v -0.18894640 5.10442311 12.66679160
v -0.22516707 5.06605013 12.65729816
v -0.22516707 5.20351395 12.63237652
v -0.22536070 4.66687901 11.69604723
v -0.06285185 4.97842435 12.64543082
v -0.22516707 4.96789534 12.63237652
v -0.22516707 4.94765580 12.61932298
v -0.22516707 4.92343882 12.60270855
v 1.75341237 4.43161123 12.58134703
v 1.14521475 5.04592779 12.60745564
v 1.41464246 4.92718263 12.61338893
v 1.75341237 4.84306626 12.53625159
v 1.57540816 4.89372314 12.57303981
v 1.49870550 4.90963403 12.59558830
v 1.32321916 4.94601810 12.62644323
v 1.19131386 4.98333783 12.63237652
v 1.07122388 4.97842435 12.65017792
v 0.94512934 4.97842435 12.65848438
v 0.81922852 4.97842435 12.66441843
v 0.69332774 5.08231186 12.63475044
v -0.18894640 5.20339676 12.63237652
v -0.22516707 5.26657155 12.56354640
v -0.22516707 4.63306869 11.40529846
v -0.22516707 4.64078994 11.53227836
v -0.22516707 4.65143614 11.61772291
v -0.22516707 4.65623281 11.65569811
v -0.22516707 4.72478912 12.16243143
v -0.22516707 4.74537948 12.28822511
v -0.22516707 4.77357390 12.38316310
v -0.22516707 4.80445964 12.44724690
v -0.22516707 4.87570689 12.55049210
v -0.22516707 4.91489835 12.59558830
v -0.22516707 5.29383031 12.51845094
v -0.22516707 5.30482734 12.49946260
v -0.22516707 5.30482734 12.45318019
v -0.22516707 5.10126414 0.69387628
v -0.22516707 5.09693550 0.56808262
v -0.22516707 5.09365972 0.54790806
v -0.22516707 4.59504655 0.54790806
v 1.75341237 4.40903195 12.55405222
v 1.07122388 5.05493591 12.61576210
v 1.22927779 5.02861320 12.58609411
v 1.19131386 5.07166566 12.54218487
v 1.07122388 5.10781571 12.53981170
v 1.64920540 4.91981221 12.48640904
v 1.75341237 4.84961782 12.41757891
v 0.94512934 5.06569931 12.62406931
v 0.81922852 5.07400539 12.63000336
v -0.06285185 5.19509067 12.62644323
v -0.18894640 5.26645474 12.56235944
v -0.18894640 5.30459370 12.49946260
v 1.75341237 4.15165291 11.40529846
v 1.75341237 4.15469469 11.47768872
v 1.75341237 4.15586474 11.50260962
v 1.75341237 4.10977052 0.54790806
v 1.75341237 4.16499006 11.57381367
v 1.75341237 4.17633792 11.65807128
v 1.75341237 4.24664912 12.16243143
v 1.75341237 4.26817553 12.28822511
v 1.75341237 4.28081027 12.34400170
v 1.75341237 4.28584095 12.36061537
v 1.75341237 4.31777955 12.42113904
v 1.75341237 4.38247523 12.52082411
v -0.18894640 5.30459370 12.45318019
v -0.18894640 5.10138134 0.69387628
v -0.18894640 5.09705269 0.56808262
v -0.19669413 5.09377691 0.54790806
v 0.94474198 5.13472363 12.53150449
v 0.81922852 5.13706337 12.55642614
v 0.69332774 5.14536946 12.57066665
v 0.56723324 5.15332509 12.58372094
v 0.44113874 5.16139717 12.59558830
v 0.37121537 5.16631103 12.60152158
v 1.29571466 5.05563794 12.50183652
v 0.90251674 5.17005446 12.48284891
v 1.64920540 4.91981221 12.46742145
v 1.75341237 4.65424390 0.69387628
v 0.28715238 5.17204337 12.60745564
v 0.18914342 5.17847774 12.61338893
v 0.06304897 5.18678421 12.62050919
v 0.81922852 5.17543597 12.49352929
v -0.08841937 5.29827615 12.48759526
v 1.75341237 4.64605463 0.54790806
v -0.08841937 5.29827615 12.46623449
v -0.06285185 5.08535363 0.69387628
v 0.25848571 5.04230118 0.61911210
v -0.06285185 5.08102498 0.56808262
v 0.22032811 5.04241799 0.54790806
v 0.08571107 5.05949857 0.54790806
v -0.03805905 5.07505826 0.54790806
v -0.18894640 5.09377691 0.54790806
v 1.29571466 5.05563794 12.44843386
v 0.90251674 5.17005446 12.47098157
v 1.74779535 4.65658364 0.69387628
v 1.68484498 4.68267271 0.69387628
v 1.19731834 4.88448100 0.69387628
v 1.12584543 4.91302663 0.69387628
v 1.75341237 4.64956443 0.56808262
v 1.72610178 4.65798771 0.54790806
v 0.94512934 4.95268648 0.69387628
v 0.94512934 4.94824064 0.56808262
v 0.69332774 4.98146612 0.56808262
v 0.30632802 5.03282466 0.57282969
v 0.26158481 5.03691967 0.54790806
v 1.06270134 4.92987319 0.69387628
v 1.74217832 4.65424390 0.56808262
v 1.19731834 4.87980153 0.56808262
v 1.11751662 4.91068689 0.56808262
v 1.05456616 4.92765065 0.56808262
v 1.44466503 4.77532880 0.54790806
v 1.04991758 4.92648059 0.54790806
v 0.96449875 4.94250830 0.54790806
v 1.34181367 4.81791361 0.54790806
v 1.19731834 4.87629173 0.54790806
v 1.12971930 4.90238043 0.54790806
v 1.11093106 4.90904881 0.54790806
v 1.09911574 4.91314345 0.54790806
f 1 2 3
f 1 3 4
f 1 4 5
f 1 5 6
f 1 6 7
f 1 7 8
f 1 8 9
f 1 9 24
f 1 24 55
f 1 55 78
f 1 78 77
f 1 77 76
f 1 76 75
f 1 75 74
f 1 74 73
f 1 73 72
f 1 72 71
f 1 71 69
f 1 69 68
f 1 68 67
f 1 67 70
f 1 70 98
f 1 98 113
f 1 113 92
f 1 92 61
f 1 61 27
f 1 27 10
f 1 10 2
f 2 10 11
f 2 11 12
f 2 12 3
f 3 13 4
f 3 12 13
f 4 13 14
f 4 14 6
f 4 6 5
f 6 14 15
f 6 15 16
f 6 16 7
f 7 17 8
f 7 16 18
f 7 18 19
f 7 19 17
f 8 17 20
f 8 20 21
f 8 21 9
f 9 21 22
f 9 22 23
f 9 23 24
f 10 25 26
f 10 26 11
f 10 27 28
f 10 28 29
f 10 29 25
f 11 26 30
f 11 30 12
f 12 30 31
f 12 31 13
f 13 32 33
f 13 33 14
f 13 31 32
f 14 33 34
f 14 34 15
f 15 34 16
f 16 34 35
f 16 35 36
f 16 36 18
f 17 19 21
f 17 21 20
f 18 36 37
f 18 37 19
f 19 38 39
f 19 39 40
f 19 40 41
f 19 41 42
f 19 42 43
f 19 43 44
f 19 44 45
f 19 45 46
f 19 46 47
f 19 47 23
f 19 23 22
f 19 22 21
f 19 37 48
f 19 48 49
f 19 49 50
f 19 50 51
f 19 51 52
f 19 52 53
f 19 53 54
f 19 54 38
f 23 47 24
f 24 47 46
f 24 46 55
f 25 56 31
f 25 31 30
f 25 30 26
f 25 29 57
f 25 57 58
f 25 58 59
f 25 59 56
f 27 60 28
f 27 61 60
f 28 60 57
f 28 57 29
f 31 56 32
f 32 56 62
f 32 62 63
f 32 63 33
f 33 63 35
f 33 35 34
f 35 63 36
f 36 63 64
f 36 64 65
f 36 65 37
f 37 65 66
f 37 66 48
f 38 67 68
f 38 68 69
f 38 69 39
f 38 54 70
f 38 70 67
f 39 69 40
f 40 69 41
f 41 69 71
f 41 71 72
f 41 72 42
f 42 72 73
f 42 73 43
f 43 73 74
f 43 74 75
f 43 75 44
f 44 75 76
f 44 76 45
f 45 76 77
f 45 77 78
f 45 78 46
f 46 78 55
f 48 66 49
f 49 66 79
f 49 79 50
f 50 79 80
f 50 80 51
f 51 80 81
f 51 81 52
f 52 81 82
f 52 82 53
f 53 82 106
f 53 106 105
f 53 105 104
f 53 104 103
f 53 103 119
f 53 119 127
f 53 127 126
f 53 126 132
f 53 132 131
f 53 131 130
f 53 130 129
f 53 129 128
f 53 128 125
f 53 125 114
f 53 114 98
f 53 98 70
f 53 70 54
f 56 59 83
f 56 83 84
f 56 84 85
f 56 85 86
f 56 86 87
f 56 87 88
f 56 88 62
f 57 60 89
f 57 89 58
f 58 89 59
f 59 89 90
f 59 90 83
f 60 61 91
f 60 91 107
f 60 107 89
f 61 92 91
f 62 88 93
f 62 93 94
f 62 94 95
f 62 95 64
f 62 64 63
f 64 95 65
f 65 88 87
f 65 87 86
f 65 86 85
f 65 85 66
f 65 95 94
f 65 94 93
f 65 93 88
f 66 96 97
f 66 97 99
f 66 99 79
f 66 85 96
f 79 99 80
f 80 100 101
f 80 101 81
f 80 99 100
f 81 101 102
f 81 102 103
f 81 103 104
f 81 104 105
f 81 105 106
f 81 106 82
f 83 90 96
f 83 96 84
f 84 96 85
f 89 107 108
f 89 108 90
f 90 108 99
f 90 99 97
f 90 97 96
f 91 92 109
f 91 109 110
f 91 110 111
f 91 111 112
f 91 112 107
f 92 113 121
f 92 121 109
f 98 114 113
f 99 108 100
f 100 108 101
f 101 115 116
f 101 116 117
f 101 117 118
f 101 118 103
f 101 103 102
f 101 108 115
f 103 118 117
f 103 117 116
f 103 116 119
f 107 112 108
f 108 112 120
f 108 120 115
f 109 121 110
f 110 121 122
f 110 122 111
f 111 122 112
f 112 122 123
f 112 123 124
f 112 124 120
f 113 114 125
f 113 125 121
f 115 120 124
f 115 124 116
f 116 124 126
f 116 126 127
f 116 127 119
f 121 125 128
f 121 128 122
f 122 128 129
f 122 129 123
f 123 129 130
f 123 130 131
f 123 131 132
f 123 132 126
f 123 126 124

