# https://github.com/mikedh/trimesh
v 2.99426303 0.00446461 0.49311822
v 2.76022100 0.00446461 0.49311822
v 2.99430688 -0.02968307 0.49311822
v 2.99426303 0.00446461 0.11160095
v 2.86973542 0.00446461 0.05228627
v 2.54714522 -1.13557694 0.49311822
v 2.99430688 -0.02968307 0.11160095
v 2.98463355 -0.08905093 0.49311822
v 2.99391295 0.00446461 0.07751264
v 2.87805190 0.00446461 0.03008104
v 2.84719343 -0.17486649 0.02157155
v 2.72857484 -0.88672293 0.02157155
v 2.68103992 -1.13557694 0.05228627
v 2.81020723 -1.13557694 0.49311822
v 2.99360671 -0.02968307 0.05228627
v 2.98463355 -0.08905093 0.11160095
v 2.98397688 -0.08905093 0.05228627
v 2.97474133 -0.14841879 0.49311822
v 2.99360671 0.00446461 0.05228627
v 2.88951986 0.00446461 -0.00043227
v 2.84443589 -0.20767505 0.01673774
v 2.78512660 -0.56365905 0.01673774
v 2.72586115 -0.91953144 0.01673774
v 2.70261882 -1.13557694 -0.00058335
v 2.81020723 -1.13557694 0.11160095
v 2.93092687 -0.41133361 0.49311822
v 2.97968744 -0.02968307 0.00223634
v 2.96712538 -0.18256647 0.02096732
v 2.96997027 -0.14841879 0.01557965
v 2.97487253 -0.08905093 0.00772473
v 2.97474133 -0.14841879 0.11160095
v 2.90847258 -0.54256784 0.05228627
v 2.96778170 -0.18658384 0.05228627
v 2.97412851 -0.14841879 0.05228627
v 2.97968744 0.00446461 0.00223634
v 2.90930412 0.00446461 -0.00914321
v 2.87739522 -0.26704291 -0.01745130
v 2.81804226 -0.62291530 -0.01745130
v 2.75877663 -0.97889926 -0.01745130
v 2.72091504 -0.97889926 0.00898354
v 2.75877663 -1.03815560 -0.02112698
v 2.75877663 -1.09752351 -0.02117732
v 2.75877663 -1.13557694 -0.01941500
v 2.80955073 -1.13557694 0.05228627
v 2.85550992 -0.86016362 0.05228627
v 2.93670470 -0.08905093 -0.01735060
v 2.93670470 -0.02968307 -0.02042207
v 2.95495707 0.00446461 -0.01125796
v 2.92046567 -0.38566707 0.00218604
v 2.92541178 -0.32641077 -0.00164077
v 2.90781590 -0.53855048 0.02096732
v 2.91556341 -0.44503489 0.00772473
v 2.85130800 -0.86016362 0.01557965
v 2.93670470 0.00446461 -0.02087524
v 2.87739522 -0.32641077 -0.02112698
v 2.81804226 -0.68217160 -0.02112698
v 2.81804226 -0.74153946 -0.02117732
v 2.87739522 -0.38566707 -0.02117732
v 2.81804226 -0.80090737 -0.01810585
v 2.80674934 -1.03815560 -0.00164077
v 2.80180323 -1.09752351 0.00218604
v 2.79865175 -1.13557694 0.00571068
v 2.87739522 -0.44503489 -0.01810585
v 2.84846294 -0.89442287 0.02096732
v 2.85621026 -0.80090737 0.00772473
f 1 2 6
f 1 6 14
f 1 14 26
f 1 26 18
f 1 18 8
f 1 8 3
f 1 3 7
f 1 7 4
f 1 4 9
f 1 9 19
f 1 19 35
f 1 35 48
f 1 48 54
f 1 54 36
f 1 36 20
f 1 20 10
f 1 10 5
f 1 5 2
f 2 5 6
f 3 8 16
f 3 16 7
f 4 7 9
f 5 10 11
f 5 11 6
f 6 12 13
f 6 13 24
f 6 24 43
f 6 43 62
f 6 62 44
f 6 44 25
f 6 25 14
f 6 11 12
f 7 15 9
f 7 16 17
f 7 17 15
f 8 18 31
f 8 31 16
f 9 15 19
f 10 20 11
f 11 20 21
f 11 21 12
f 12 22 23
f 12 23 13
f 12 21 22
f 13 23 24
f 14 25 26
f 15 27 35
f 15 35 19
f 15 17 28
f 15 28 29
f 15 29 30
f 15 30 27
f 16 31 32
f 16 32 33
f 16 33 34
f 16 34 17
f 17 34 28
f 18 26 31
f 20 36 37
f 20 37 38
f 20 38 39
f 20 39 24
f 20 24 40
f 20 40 23
f 20 23 22
f 20 22 21
f 23 40 24
f 24 39 41
f 24 41 42
f 24 42 43
f 25 44 45
f 25 45 32
f 25 32 31
f 25 31 26
f 27 46 47
f 27 47 48
f 27 48 35
f 27 30 49
f 27 49 50
f 27 50 46
f 28 34 33
f 28 33 32
f 28 32 51
f 28 51 29
f 29 52 30
f 29 51 53
f 29 53 52
f 30 52 49
f 32 45 51
f 36 54 37
f 37 54 55
f 37 55 56
f 37 56 38
f 38 56 41
f 38 41 39
f 41 56 57
f 41 57 42
f 42 57 58
f 42 58 43
f 43 59 60
f 43 60 61
f 43 61 62
f 43 58 63
f 43 63 59
f 44 62 64
f 44 64 45
f 45 64 51
f 46 50 63
f 46 63 58
f 46 58 47
f 47 54 48
f 47 58 54
f 49 52 62
f 49 62 61
f 49 61 50
f 50 61 60
f 50 60 63
f 51 64 53
f 52 53 65
f 52 65 62
f 53 64 62
f 53 62 65
f 54 58 55
f 55 58 56
f 56 58 57
f 59 63 60

