# https://github.com/mikedh/trimesh
mtllib material.mtl

o petri_dish_sep.glb
usemtl lambert1
v 2.17535663 -2.17535734 0.36722857
v 1.18655813 -2.76863670 0.36722857
v 1.18655801 -2.76863622 0.28357533
v 2.17535663 -2.17535734 0.28357533
v 0.00000000 -2.96639585 0.36722860
v 0.00000000 -2.96639585 0.28357530
v 0.00000000 -2.96639585 0.20657784
v 1.18655813 -2.76863670 0.20657785
v 2.17535639 -2.17535734 0.20657778
v -1.18655801 -2.76863646 0.36722860
v -1.18655801 -2.76863646 0.28357533
v -2.17535639 -2.17535686 0.36722857
v -2.17535663 -2.17535734 0.28357533
v -2.17535639 -2.17535734 0.20657778
v -1.18655813 -2.76863670 0.20657785
v -1.18655801 -2.76863622 0.13962606
v 0.00000000 -2.96639585 0.13962609
v -2.17535663 -2.17535781 0.13962609
v -2.17535663 -2.17535734 0.08611010
v -1.18655813 -2.76863670 0.08611011
v -0.00000001 -2.96639585 0.08611010
v 1.18655801 -2.76863622 0.13962606
v 2.17535663 -2.17535781 0.13962609
v 1.18655813 -2.76863646 0.08611011
v 2.17535639 -2.17535734 0.08611010
v 2.17535663 2.17535448 0.08611010
v 1.18655813 2.76863433 0.08611011
v 1.18655801 2.76863433 0.13962607
v 2.17535663 2.17535544 0.13962609
v 0.00000000 2.96639586 0.08611010
v 0.00000000 2.96639395 0.13962609
v 0.00000000 2.96639300 0.20657784
v 1.18655813 2.76863528 0.20657785
v 2.17535639 2.17535639 0.20657779
v -1.18655813 2.76863433 0.08611011
v -1.18655801 2.76863433 0.13962609
v -2.17535615 2.17535544 0.08611010
v -2.17535663 2.17535544 0.13962609
v -2.17535639 2.17535639 0.20657779
v -1.18655813 2.76863528 0.20657785
v -1.18655801 2.76863433 0.28357533
v 0.00000000 2.96639491 0.28357530
v -2.17535663 2.17535544 0.28357533
v -2.17535663 2.17535448 0.36722857
v -1.18655813 2.76863433 0.36722857
v -0.00000001 2.96639586 0.36722860
v 1.18655801 2.76863433 0.28357533
v 2.17535663 2.17535544 0.28357533
v 1.18655801 2.76863433 0.36722860
v 2.17535639 2.17535544 0.36722857
v 1.61137533 1.61137438 0.75108701
v 0.95583826 1.89519549 0.75255811
v 1.03274512 1.03274441 0.75526315
v 1.89519691 0.95583726 0.75255817
v 0.00000000 2.03527594 0.75328428
v 0.00000006 1.10965109 0.75617421
v -0.00000007 -0.00000047 0.75714230
v 1.10965168 -0.00000142 0.75617421
v 2.03527641 -0.00000047 0.75328428
v -0.95583832 1.89519549 0.75255817
v -1.03274500 1.03274441 0.75526315
v -1.61137533 1.61137438 0.75108701
v -1.89519691 0.95583726 0.75255817
v -2.03527641 -0.00000047 0.75328428
v -1.10965168 -0.00000095 0.75617421
v -1.03274512 -1.03274583 0.75526321
v -0.00000006 -1.10965204 0.75617421
v -1.89519691 -0.95583915 0.75255811
v -1.61137533 -1.61137580 0.75108701
v -0.95583826 -1.89519786 0.75255811
v 0.00000000 -2.03527736 0.75328428
v 1.03274500 -1.03274583 0.75526315
v 1.89519691 -0.95583915 0.75255811
v 0.95583832 -1.89519786 0.75255817
v 1.61137533 -1.61137580 0.75108701
v -2.76863551 -1.18655872 0.36722857
v -2.76863527 -1.18655919 0.28357533
v -2.96639490 -0.00000142 0.36722860
v -2.96639538 -0.00000047 0.28357530
v -2.96639514 -0.00000095 0.20657784
v -2.76863575 -1.18655872 0.20657785
v -2.76863551 1.18655778 0.36722860
v -2.76863527 1.18655682 0.28357533
v -2.17535663 2.17535448 0.36722857
v -2.17535663 2.17535544 0.28357533
v -2.17535639 2.17535639 0.20657779
v -2.76863575 1.18655730 0.20657785
v -2.76863527 1.18655730 0.13962607
v -2.96639538 -0.00000047 0.13962609
v -2.17535663 2.17535544 0.13962609
v -2.17535615 2.17535544 0.08611010
v -2.76863551 1.18655778 0.08611011
v -2.96639514 -0.00000142 0.08611009
v -2.76863551 -1.18655919 0.13962607
v -2.76863551 -1.18655919 0.08611011
v 2.17535639 2.17535544 0.36722857
v 2.76863551 1.18655778 0.36722857
v 2.76863527 1.18655682 0.28357533
v 2.17535663 2.17535544 0.28357533
v 2.96639490 -0.00000142 0.36722860
v 2.96639538 -0.00000047 0.28357530
v 2.96639514 -0.00000095 0.20657784
v 2.76863575 1.18655730 0.20657785
v 2.17535639 2.17535639 0.20657779
v 2.76863551 -1.18655919 0.36722860
v 2.76863527 -1.18655919 0.28357533
v 2.76863575 -1.18655872 0.20657785
v 2.76863527 -1.18655919 0.13962606
v 2.96639538 -0.00000047 0.13962609
v 2.76863551 -1.18655872 0.08611011
v 2.96639514 -0.00000095 0.08611009
v 2.76863551 1.18655730 0.13962607
v 2.17535663 2.17535544 0.13962609
v 2.76863551 1.18655778 0.08611011
v 2.17535663 2.17535448 0.08611010
v 2.17535663 -2.17535734 0.67407346
v 1.18655813 -2.76863670 0.67407346
v 1.18655801 -2.76863622 0.61361241
v 2.17535663 -2.17535734 0.61361241
v 0.00000000 -2.96639585 0.67407346
v 0.00000000 -2.96639585 0.61361230
v 0.00000000 -2.96639585 0.53828955
v 1.18655813 -2.76863670 0.53828955
v 2.17535639 -2.17535734 0.53828960
v -1.18655801 -2.76863646 0.67407346
v -1.18655801 -2.76863646 0.61361241
v -2.17535639 -2.17535686 0.67407346
v -2.17535663 -2.17535734 0.61361241
v -2.17535639 -2.17535781 0.53828960
v -1.18655813 -2.76863670 0.53828955
v -1.18655801 -2.76863622 0.45414749
v 0.00000000 -2.96639585 0.45414740
v -2.17535663 -2.17535781 0.45414749
v 1.18655801 -2.76863622 0.45414746
v 2.17535663 -2.17535781 0.45414749
v -2.76863551 -1.18655872 0.67407346
v -2.76863527 -1.18655919 0.61361235
v -2.96639490 -0.00000142 0.67407346
v -2.96639538 -0.00000047 0.61361230
v -2.96639514 -0.00000095 0.53828955
v -2.76863575 -1.18655872 0.53828955
v -2.76863551 1.18655778 0.67407346
v -2.76863527 1.18655682 0.61361241
v -2.17535639 2.17535448 0.67407346
v -2.17535663 2.17535544 0.61361235
v -2.17535663 2.17535639 0.53828960
v -2.76863575 1.18655730 0.53828955
v -2.76863527 1.18655730 0.45414749
v -2.96639538 -0.00000047 0.45414740
v -2.17535663 2.17535544 0.45414749
v -2.76863551 -1.18655919 0.45414746
v 1.18655801 2.76863433 0.45414749
v 2.17535663 2.17535544 0.45414749
v 0.00000000 2.96639395 0.45414743
v 0.00000000 2.96639300 0.53828955
v 1.18655813 2.76863528 0.53828960
v 2.17535663 2.17535639 0.53828960
v -1.18655801 2.76863433 0.45414749
v -2.17535663 2.17535544 0.45414749
v -2.17535663 2.17535639 0.53828960
v -1.18655813 2.76863528 0.53828960
v -1.18655801 2.76863433 0.61361241
v 0.00000000 2.96639491 0.61361230
v -2.17535663 2.17535544 0.61361235
v -2.17535639 2.17535448 0.67407346
v -1.18655813 2.76863433 0.67407346
v -0.00000001 2.96639586 0.67407340
v 1.18655801 2.76863433 0.61361241
v 2.17535663 2.17535544 0.61361241
v 1.18655801 2.76863433 0.67407346
v 2.17535639 2.17535544 0.67407346
v 2.17535639 2.17535544 0.67407346
v 2.76863551 1.18655778 0.67407346
v 2.76863527 1.18655682 0.61361235
v 2.17535663 2.17535544 0.61361241
v 2.96639490 -0.00000142 0.67407346
v 2.96639538 -0.00000047 0.61361230
v 2.96639514 -0.00000095 0.53828960
v 2.76863575 1.18655730 0.53828955
v 2.17535663 2.17535639 0.53828960
v 2.76863551 -1.18655919 0.67407346
v 2.76863527 -1.18655919 0.61361241
v 2.76863575 -1.18655872 0.53828955
v 2.76863527 -1.18655919 0.45414749
v 2.96639538 -0.00000047 0.45414740
v 2.76863551 1.18655730 0.45414746
v 2.17535663 2.17535544 0.45414749
v 1.61137533 -1.61137580 0.75108701
v 0.95583832 -1.89519786 0.75255817
v 1.03274512 -2.41706323 0.74808788
v 1.89519691 -1.89519786 0.74768919
v 0.00000000 -2.03527736 0.75328428
v 0.00000006 -2.59284973 0.74848640
v 0.00000000 -2.87300920 0.73689674
v 1.14810491 -2.68074345 0.73679680
v 2.10531640 -2.10531711 0.73669720
v -0.95583826 -1.89519786 0.75255811
v -1.03274500 -2.41706347 0.74808782
v -1.61137533 -1.61137580 0.75108701
v -1.89519691 -1.89519786 0.74768919
v -2.10531640 -2.10531759 0.73669726
v -1.14810503 -2.68074345 0.73679680
v -1.18655801 -2.76863622 0.71363026
v 0.00000000 -2.96639585 0.71363008
v -2.17535663 -2.17535781 0.71363014
v 1.18655801 -2.76863622 0.71363026
v 2.17535663 -2.17535781 0.71363014
v -1.89519691 -0.95583915 0.75255811
v -2.41706276 -1.03274583 0.74808788
v -2.03527641 -0.00000047 0.75328428
v -2.59284949 -0.00000047 0.74848640
v -2.87300849 -0.00000047 0.73689674
v -2.68074250 -1.14810609 0.73679680
v -1.89519691 0.95583726 0.75255817
v -2.41706276 1.03274394 0.74808782
v -1.61137533 1.61137438 0.75108701
v -1.89519691 1.89519549 0.74768919
v -2.10531664 2.10531664 0.73669726
v -2.68074274 1.14810372 0.73679680
v -2.76863527 1.18655730 0.71363026
v -2.96639538 -0.00000047 0.71363008
v -2.17535663 2.17535544 0.71363014
v -2.76863551 -1.18655919 0.71363019
v 1.18655801 2.76863433 0.71363019
v 2.17535663 2.17535544 0.71363014
v 0.00000000 2.96639395 0.71363008
v 0.00000000 2.87300730 0.73689663
v 1.14810503 2.68074274 0.73679680
v 2.10531640 2.10531569 0.73669726
v -1.18655801 2.76863433 0.71363026
v -2.17535663 2.17535544 0.71363014
v -2.10531664 2.10531664 0.73669726
v -1.14810491 2.68074179 0.73679686
v -1.03274500 2.41706229 0.74808788
v -0.00000006 2.59285021 0.74848645
v -1.89519691 1.89519549 0.74768919
v 1.03274500 2.41706229 0.74808782
v 1.89519691 1.89519644 0.74768919
v 1.61137533 1.61137438 0.75108701
v 1.89519691 0.95583726 0.75255817
v 2.41706276 1.03274394 0.74808788
v 1.89519691 1.89519644 0.74768919
v 2.03527641 -0.00000047 0.75328428
v 2.59284949 -0.00000095 0.74848640
v 2.87300873 -0.00000047 0.73689674
v 2.68074250 1.14810372 0.73679680
v 2.10531640 2.10531569 0.73669726
v 1.89519691 -0.95583915 0.75255811
v 2.41706276 -1.03274583 0.74808782
v 2.68074274 -1.14810609 0.73679680
v 2.76863527 -1.18655919 0.71363026
v 2.96639538 -0.00000047 0.71363008
v 2.76863551 1.18655730 0.71363019
v 2.17535663 2.17535544 0.71363014
v 2.13750291 -2.13750457 0.01077372
v 2.14451313 -2.14451455 0.00307744
v 1.16973436 -2.72938132 0.00307744
v 1.16591096 -2.72045946 0.01077372
v 2.15292501 -2.15292549 0.00000000
v 1.17432272 -2.74008703 0.00000000
v 0.00000000 -2.93580770 0.00000000
v 0.00000000 -2.92433643 0.00307744
v 0.00000000 -2.91477751 0.01077372
v 2.16133690 -2.16133785 0.00094559
v 1.17891085 -2.75079321 0.00094559
v 2.16834664 -2.16834783 0.00531841
v 1.18273461 -2.75971484 0.00531841
v -0.00000003 -2.95683693 0.00531841
v 0.00000000 -2.94727826 0.00094559
v -1.17891097 -2.75079321 0.00094559
v -1.17432272 -2.74008727 0.00000000
v -1.18273449 -2.75971460 0.00531841
v -2.16834641 -2.16834735 0.00531841
v -2.16133714 -2.16133785 0.00094559
v -2.15292525 -2.15292549 0.00000000
v -1.16973436 -2.72938108 0.00307744
v -1.16591096 -2.72045922 0.01077372
v -2.14451313 -2.14451360 0.00307744
v -2.13750315 -2.13750410 0.01077372
v 2.75079179 -1.17891216 0.00094559
v 2.75971389 -1.18273544 0.00531841
v 2.74008632 -1.17432308 0.00000000
v 2.93580675 -0.00000095 0.00000000
v 2.94727778 -0.00000047 0.00094559
v 2.95683599 -0.00000142 0.00531841
v 2.72938037 -1.16973543 0.00307744
v 2.72045875 -1.16591167 0.01077372
v 2.91477704 -0.00000095 0.01077372
v 2.92433619 -0.00000095 0.00307744
v 2.72938013 1.16973305 0.00307744
v 2.74008632 1.17432166 0.00000000
v 2.72045875 1.16590977 0.01077372
v 2.13750339 2.13750125 0.01077372
v 2.14451313 2.14451265 0.00307744
v 2.15292501 2.15292407 0.00000000
v 2.75079203 1.17891026 0.00094559
v 2.75971389 1.18273402 0.00531841
v 2.16133690 2.16133547 0.00094559
v 2.16834664 2.16834498 0.00531841
v -2.72938037 -1.16973543 0.00307744
v -2.72045875 -1.16591167 0.01077372
v -2.74008632 -1.17432308 0.00000000
v -2.93580651 -0.00000095 0.00000000
v -2.92433596 -0.00000095 0.00307744
v -2.91477728 -0.00000142 0.01077372
v -2.75079203 -1.17891216 0.00094559
v -2.75971389 -1.18273496 0.00531841
v -2.95683599 -0.00000095 0.00531841
v -2.94727778 -0.00000047 0.00094559
v -2.75079203 1.17891026 0.00094559
v -2.74008632 1.17432166 0.00000000
v -2.75971389 1.18273402 0.00531841
v -2.16834664 2.16834498 0.00531841
v -2.16133690 2.16133547 0.00094559
v -2.15292501 2.15292407 0.00000000
v -2.72938013 1.16973305 0.00307744
v -2.72045875 1.16590977 0.01077372
v -2.14451313 2.14451265 0.00307744
v -2.13750339 2.13750125 0.01077372
v 1.17891085 2.75079108 0.00094559
v 1.18273461 2.75971175 0.00531841
v 1.17432284 2.74008608 0.00000000
v 0.00000002 2.93580580 0.00000000
v 0.00000000 2.94727659 0.00094559
v 0.00000002 2.95683718 0.00531841
v 1.16973424 2.72937918 0.00307744
v 1.16591084 2.72045756 0.01077372
v 0.00000004 2.91477728 0.01077372
v -0.00000003 2.92433405 0.00307744
v -1.16973436 2.72937918 0.00307744
v -1.17432261 2.74008608 0.00000000
v -1.16591096 2.72045756 0.01077372
v -1.17891085 2.75079108 0.00094559
v -1.18273461 2.75971175 0.00531841
v 1.57814336 -1.57814359 0.55466789
v 0.93612570 -1.85611200 0.55920862
v 1.01144636 -1.01144742 0.56755787
v 1.85611165 -0.93612623 0.55920862
v 0.00000000 -1.99330329 0.56144983
v 0.00000006 -1.08676814 0.57037020
v -0.00000001 -0.00000095 0.57335829
v 1.08676684 -0.00000142 0.57037020
v 1.99330246 -0.00000095 0.56144983
v -0.93612570 -1.85611200 0.55920862
v -1.01144636 -1.01144742 0.56755787
v -1.57814336 -1.57814359 0.55466789
v -1.85611165 -0.93612623 0.55920862
v -1.99330246 -0.00000095 0.56144983
v -1.08676672 -0.00000142 0.57037020
v -1.01144636 1.01144553 0.56755787
v -0.00000006 1.08676577 0.57037020
v -1.85611165 0.93612528 0.55920862
v -1.57814336 1.57814313 0.55466789
v -0.93612570 1.85611010 0.55920862
v -0.00000001 1.99330187 0.56144983
v 1.01144636 1.01144553 0.56755787
v 1.85611165 0.93612528 0.55920862
v 0.93612570 1.85611010 0.55920862
v 1.57814336 1.57814313 0.55466789
v 1.18502843 2.76506472 0.01252270
v 2.17255259 2.17255164 0.01252270
v 0.00000000 2.96256972 0.01252270
v 0.00000001 2.96543933 0.02605700
v 1.18617570 2.76774358 0.02605700
v 2.17465544 2.17465449 0.02605700
v -1.18502855 2.76506568 0.01252270
v -2.17255259 2.17255164 0.01252270
v -2.17465544 2.17465544 0.02605700
v -1.18617570 2.76774358 0.02605700
v -1.18655801 2.76863433 0.04941994
v 0.00000000 2.96639491 0.04941994
v -2.17535663 2.17535544 0.04941994
v 1.18655801 2.76863433 0.04941994
v 2.17535663 2.17535544 0.04941994
v -2.76863527 -1.18655919 0.04941994
v -2.17535663 -2.17535781 0.04941994
v -2.96639538 -0.00000047 0.04941994
v -2.96543908 -0.00000095 0.02605700
v -2.76774335 -1.18617629 0.02605700
v -2.17465568 -2.17465639 0.02605700
v -2.76863503 1.18655682 0.04941995
v -2.17535663 2.17535544 0.04941994
v -2.17465544 2.17465544 0.02605700
v -2.76774335 1.18617440 0.02605700
v -2.76506686 1.18502761 0.01252270
v -2.96257162 -0.00000095 0.01252270
v -2.17255259 2.17255164 0.01252270
v -2.16834664 2.16834498 0.00531841
v -2.75971389 1.18273402 0.00531841
v -2.95683599 -0.00000095 0.00531841
v -2.76506686 -1.18502998 0.01252270
v -2.17255259 -2.17255353 0.01252270
v -2.75971389 -1.18273496 0.00531841
v 1.18655801 -2.76863646 0.04941995
v 2.17535663 -2.17535734 0.04941994
v 0.00000000 -2.96639585 0.04941994
v 0.00000000 -2.96544027 0.02605700
v 1.18617570 -2.76774430 0.02605700
v 2.17465568 -2.17465639 0.02605700
v -1.18655801 -2.76863646 0.04941995
v -1.18617570 -2.76774430 0.02605700
v -1.18502855 -2.76506781 0.01252270
v 0.00000000 -2.96257209 0.01252270
v 1.18502855 -2.76506781 0.01252270
v 2.17255259 -2.17255353 0.01252270
v 2.76863527 1.18655682 0.04941995
v 2.17535663 2.17535544 0.04941994
v 2.96639538 -0.00000047 0.04941994
v 2.96543908 -0.00000095 0.02605700
v 2.76774335 1.18617440 0.02605700
v 2.17465544 2.17465449 0.02605700
v 2.76863503 -1.18655919 0.04941995
v 2.76774335 -1.18617629 0.02605700
v 2.76506686 -1.18502998 0.01252270
v 2.96257162 -0.00000095 0.01252270
v 2.75971389 -1.18273544 0.00531841
v 2.95683599 -0.00000142 0.00531841
v 2.76506710 1.18502761 0.01252270
v 2.17255259 2.17255164 0.01252270
v 2.75971389 1.18273402 0.00531841
v 2.16834664 2.16834498 0.00531841
v 2.13049340 -2.13049459 0.43196052
v 1.16208732 -2.71153759 0.43196052
v 1.16208720 -2.71153807 0.48505470
v 2.13049340 -2.13049411 0.48505467
v 0.00000000 -2.90521836 0.43196055
v 0.00000000 -2.90521907 0.48505473
v 0.00000000 -2.81375884 0.52236795
v 1.12442708 -2.62545680 0.52206034
v 2.06189799 -2.06189870 0.52175272
v -1.16208744 -2.71153759 0.43196052
v -1.16208732 -2.71153807 0.48505470
v -2.13049340 -2.13049411 0.43196052
v -2.13049340 -2.13049459 0.48505467
v -2.06189799 -2.06189823 0.52175272
v -1.12442696 -2.62545704 0.52206028
v -1.01144636 -2.36721539 0.54541057
v -0.00000006 -2.53937625 0.54664093
v -1.85611165 -1.85611200 0.54418010
v 1.01144636 -2.36721539 0.54541057
v 1.85611165 -1.85611200 0.54418010
v -2.71153712 -1.16208791 0.43196052
v -2.71153665 -1.16208839 0.48505470
v -2.90521836 -0.00000095 0.43196055
v -2.90521836 -0.00000047 0.48505473
v -2.81375742 -0.00000047 0.52236795
v -2.62545657 -1.12442827 0.52206034
v -2.71153712 1.16208602 0.43196052
v -2.71153688 1.16208649 0.48505470
v -2.13049340 2.13049174 0.43196052
v -2.13049340 2.13049365 0.48505467
v -2.06189799 2.06189680 0.52175272
v -2.62545633 1.12442542 0.52206028
v -2.36721492 1.01144553 0.54541057
v -2.53937602 -0.00000142 0.54664093
v -1.85611165 1.85611010 0.54418010
v -2.36721516 -1.01144742 0.54541057
v -1.16208732 2.71153594 0.43196052
v -1.16208720 2.71153498 0.48505470
v 0.00000000 2.90521956 0.43196055
v 0.00000000 2.90521670 0.48505473
v 0.00000002 2.81375743 0.52236795
v -1.12442708 2.62545729 0.52206034
v 1.16208744 2.71153594 0.43196052
v 1.16208732 2.71153594 0.48505470
v 2.13049340 2.13049269 0.43196052
v 2.13049340 2.13049269 0.48505467
v 2.06189799 2.06189776 0.52175272
v 1.12442696 2.62545634 0.52206028
v 1.01144636 2.36721469 0.54541057
v 0.00000006 2.53937483 0.54664093
v 1.85611165 1.85611010 0.54418010
v -1.01144636 2.36721373 0.54541057
v 2.71153712 1.16208602 0.43196052
v 2.71153665 1.16208602 0.48505470
v 2.90521836 -0.00000095 0.43196055
v 2.90521836 -0.00000095 0.48505473
v 2.81375742 -0.00000095 0.52236790
v 2.62545657 1.12442589 0.52206034
v 2.71153712 -1.16208791 0.43196052
v 2.71153688 -1.16208839 0.48505470
v 2.62545633 -1.12442827 0.52206028
v 2.36721492 -1.01144742 0.54541057
v 2.53937602 -0.00000190 0.54664093
v 2.36721516 1.01144505 0.54541057
v -2.13049340 -2.13049459 0.12983506
v -2.71153712 -1.16208791 0.12983507
v -2.71153712 -1.16208839 0.19973442
v -2.13049364 -2.13049459 0.19973438
v -2.90521836 -0.00000142 0.12983506
v -2.90521860 -0.00000095 0.19973442
v -2.90521836 -0.00000095 0.27975312
v -2.71153688 -1.16208791 0.27975321
v -2.13049316 -2.13049411 0.27975318
v -2.71153736 1.16208602 0.12983507
v -2.71153712 1.16208649 0.19973442
v -2.13049340 2.13049174 0.12983506
v -2.13049340 2.13049365 0.19973438
v -2.13049340 2.13049365 0.27975318
v -2.71153665 1.16208554 0.27975321
v -2.71153688 1.16208602 0.36034423
v -2.90521860 -0.00000142 0.36034429
v -2.13049340 2.13049269 0.36034429
v -2.71153688 -1.16208839 0.36034426
v -2.13049340 -2.13049411 0.36034429
v -1.16208732 2.71153594 0.12983507
v -1.16208732 2.71153498 0.19973444
v 0.00000000 2.90521956 0.12983506
v 0.00000000 2.90521670 0.19973442
v -0.00000001 2.90521670 0.27975318
v -1.16208732 2.71153689 0.27975321
v 1.16208732 2.71153594 0.12983507
v 1.16208744 2.71153594 0.19973442
v 2.13049340 2.13049269 0.12983506
v 2.13049364 2.13049269 0.19973438
v 2.13049340 2.13049365 0.27975318
v 1.16208732 2.71153689 0.27975321
v 1.16208720 2.71153594 0.36034423
v 0.00000000 2.90521670 0.36034429
v 2.13049340 2.13049269 0.36034429
v -1.16208720 2.71153594 0.36034426
v 2.71153712 1.16208602 0.12983507
v 2.71153712 1.16208602 0.19973444
v 2.90521836 -0.00000142 0.12983506
v 2.90521860 -0.00000095 0.19973442
v 2.90521812 -0.00000047 0.27975318
v 2.71153688 1.16208554 0.27975321
v 2.71153736 -1.16208791 0.12983507
v 2.71153712 -1.16208839 0.19973442
v 2.13049340 -2.13049459 0.12983506
v 2.13049340 -2.13049411 0.19973438
v 2.13049340 -2.13049411 0.27975318
v 2.71153665 -1.16208791 0.27975321
v 2.71153688 -1.16208839 0.36034426
v 2.90521860 -0.00000095 0.36034429
v 2.13049340 -2.13049459 0.36034429
v 2.71153712 1.16208602 0.36034426
v 1.16208732 -2.71153783 0.12983507
v 1.16208732 -2.71153831 0.19973444
v 0.00000000 -2.90521860 0.12983506
v 0.00000000 -2.90521931 0.19973442
v 0.00000001 -2.90521979 0.27975318
v 1.16208732 -2.71153736 0.27975321
v -1.16208732 -2.71153783 0.12983507
v -1.16208744 -2.71153807 0.19973442
v -1.16208732 -2.71153783 0.27975321
v -1.16208720 -2.71153807 0.36034423
v 0.00000000 -2.90521907 0.36034429
v 1.16208720 -2.71153807 0.36034426
v -2.71510553 -1.16361761 0.02368463
v -2.13329744 -2.13329839 0.02368463
v -2.90904212 0.00000001 0.02368463
v -2.90617442 -0.00000095 0.04542316
v -2.71242929 -1.16246986 0.04542316
v -2.13119435 -2.13119506 0.04542316
v -2.71510530 1.16361619 0.02368463
v -2.13329744 2.13329649 0.02368463
v -2.13119435 2.13119460 0.04542316
v -2.71242929 1.16246844 0.04542316
v -2.71153688 1.16208602 0.07960230
v -2.90521860 -0.00000095 0.07960230
v -2.13049340 2.13049269 0.07960231
v -2.71153688 -1.16208839 0.07960230
v -2.13049340 -2.13049411 0.07960231
v -1.16361678 2.71510459 0.02368463
v 0.00000000 2.90904093 0.02368463
v 0.00000001 2.90617228 0.04542316
v -1.16246974 2.71242858 0.04542316
v 1.16361678 2.71510459 0.02368463
v 2.13329744 2.13329649 0.02368463
v 2.13119435 2.13119460 0.04542316
v 1.16246974 2.71242858 0.04542316
v 1.16208720 2.71153594 0.07960230
v 0.00000000 2.90521670 0.07960230
v 2.13049340 2.13049269 0.07960231
v -1.16208720 2.71153594 0.07960231
v 2.71510506 1.16361619 0.02368463
v 2.90904212 -0.00000047 0.02368463
v 2.90617466 -0.00000095 0.04542316
v 2.71242929 1.16246844 0.04542316
v 2.71510530 -1.16361808 0.02368463
v 2.13329744 -2.13329839 0.02368463
v 2.13119435 -2.13119506 0.04542316
v 2.71242929 -1.16247033 0.04542316
v 2.71153688 -1.16208839 0.07960230
v 2.90521860 -0.00000095 0.07960230
v 2.13049340 -2.13049411 0.07960231
v 2.71153712 1.16208602 0.07960231
v 1.16361666 -2.71510672 0.02368463
v 0.00000000 -2.90904283 0.02368463
v 0.00000000 -2.90617585 0.04542316
v 1.16246974 -2.71243023 0.04542316
v -1.16361678 -2.71510648 0.02368463
v -1.16246974 -2.71243023 0.04542316
v -1.16208720 -2.71153807 0.07960231
v 0.00000000 -2.90521931 0.07960230
v 1.16208720 -2.71153807 0.07960231
vt 0.37500000 0.87370765
vt 0.43750000 0.87370765
vt 0.43750000 0.84936488
vt 0.37500000 0.84936488
vt 0.50000000 0.87370765
vt 0.50000000 0.84936488
vt 0.50000000 0.82601261
vt 0.43750000 0.82601261
vt 0.37500000 0.82601261
vt 0.56250000 0.87370765
vt 0.56250000 0.84936488
vt 0.62500000 0.87370765
vt 0.62500000 0.84936488
vt 0.62500000 0.82601261
vt 0.56250000 0.82601261
vt 0.56250000 0.80515844
vt 0.50000000 0.80515844
vt 0.62500000 0.80515844
vt 0.62500000 0.78830969
vt 0.56250000 0.78830975
vt 0.50000000 0.78830975
vt 0.43750000 0.80515844
vt 0.37500000 0.80515844
vt 0.43750000 0.78830975
vt 0.37500000 0.78830975
vt 0.37500000 0.47547275
vt 0.43750000 0.46582496
vt 0.43750000 0.44759804
vt 0.37500000 0.45035458
vt 0.50000000 0.46375763
vt 0.50000000 0.44621980
vt 0.50000000 0.42429960
vt 0.43750000 0.42461181
vt 0.37500000 0.42523634
vt 0.56250000 0.46582496
vt 0.56250000 0.44759804
vt 0.62500000 0.47547275
vt 0.62500000 0.45035458
vt 0.62500000 0.42523634
vt 0.56250000 0.42461181
vt 0.56250000 0.40037662
vt 0.50000000 0.40050584
vt 0.62500000 0.40011817
vt 0.62500000 0.37500000
vt 0.56250000 0.37590456
vt 0.50000000 0.37609845
vt 0.43750000 0.40037662
vt 0.37500000 0.40011817
vt 0.43750000 0.37590456
vt 0.37500000 0.37500000
vt 0.37500000 0.25000000
vt 0.43750000 0.22624356
vt 0.43750000 0.18071246
vt 0.37500000 0.18750000
vt 0.50000000 0.22115290
vt 0.50000000 0.17731869
vt 0.50000000 0.12245464
vt 0.43750000 0.12330312
vt 0.37500000 0.12500000
vt 0.56250000 0.22624362
vt 0.56250000 0.18071246
vt 0.62500000 0.25000000
vt 0.62500000 0.18750000
vt 0.62500000 0.12500000
vt 0.56250000 0.12330312
vt 0.56250000 0.06250000
vt 0.50000000 0.06250000
vt 0.62500000 0.06250000
vt 0.62500000 0.00000000
vt 0.56250000 0.00000000
vt 0.50000000 0.00000000
vt 0.43750000 0.06250000
vt 0.37500000 0.06250000
vt 0.43750000 0.00000000
vt 0.37500000 0.00000000
vt 0.68750000 0.87370765
vt 0.68750000 0.84936488
vt 0.75000000 0.87380457
vt 0.75000000 0.84942949
vt 0.75000000 0.82585651
vt 0.68750000 0.82601261
vt 0.81250000 0.87409538
vt 0.81250000 0.84962332
vt 0.87500000 0.87500000
vt 0.87500000 0.84988183
vt 0.87500000 0.82476366
vt 0.81250000 0.82538813
vt 0.81250000 0.80240190
vt 0.75000000 0.80446929
vt 0.87500000 0.79964542
vt 0.87500000 0.77452725
vt 0.81250000 0.78417498
vt 0.75000000 0.78727603
vt 0.68750000 0.80515844
vt 0.68750000 0.78830975
vt 0.12500000 0.87500000
vt 0.18750000 0.87409538
vt 0.18750000 0.84962332
vt 0.12500000 0.84988183
vt 0.25000000 0.87380457
vt 0.25000000 0.84942949
vt 0.25000000 0.82585651
vt 0.18750000 0.82538813
vt 0.12500000 0.82476366
vt 0.31250000 0.87370765
vt 0.31250000 0.84936488
vt 0.31250000 0.82601261
vt 0.31250000 0.80515844
vt 0.25000000 0.80446935
vt 0.31250000 0.78830975
vt 0.25000000 0.78727603
vt 0.18750000 0.80240196
vt 0.12500000 0.79964542
vt 0.18750000 0.78417498
vt 0.12500000 0.77452725
vt 0.37500000 0.95792001
vt 0.43750000 0.95792001
vt 0.43750000 0.94043869
vt 0.37500000 0.94043869
vt 0.50000000 0.95792001
vt 0.50000000 0.94043869
vt 0.50000000 0.92004353
vt 0.43750000 0.92004353
vt 0.37500000 0.92004353
vt 0.56250000 0.95792001
vt 0.56250000 0.94043869
vt 0.62500000 0.95792001
vt 0.62500000 0.94043869
vt 0.62500000 0.92004353
vt 0.56250000 0.92004353
vt 0.56250000 0.89753354
vt 0.50000000 0.89753354
vt 0.62500000 0.89753354
vt 0.43750000 0.89753354
vt 0.37500000 0.89753354
vt 0.68750000 0.95792001
vt 0.68750000 0.94043869
vt 0.75000000 0.95861620
vt 0.75000000 0.94090277
vt 0.75000000 0.92017567
vt 0.68750000 0.92004353
vt 0.81250000 0.96070457
vt 0.81250000 0.94229501
vt 0.87500000 0.96720189
vt 0.87500000 0.94415140
vt 0.87500000 0.92110091
vt 0.81250000 0.92057222
vt 0.81250000 0.89779198
vt 0.75000000 0.89759815
vt 0.87500000 0.89805049
vt 0.68750000 0.89753354
vt 0.43750000 0.35220802
vt 0.37500000 0.35194957
vt 0.50000000 0.35233724
vt 0.50000000 0.32969213
vt 0.43750000 0.32942784
vt 0.37500000 0.32889909
vt 0.56250000 0.35220802
vt 0.62500000 0.35194957
vt 0.62500000 0.32889909
vt 0.56250000 0.32942778
vt 0.56250000 0.30770499
vt 0.50000000 0.30863321
vt 0.62500000 0.30584860
vt 0.62500000 0.28279817
vt 0.56250000 0.28929543
vt 0.50000000 0.29068774
vt 0.43750000 0.30770504
vt 0.37500000 0.30584860
vt 0.43750000 0.28929543
vt 0.37500000 0.28279817
vt 0.12500000 0.96720189
vt 0.18750000 0.96070457
vt 0.18750000 0.94229501
vt 0.12500000 0.94415140
vt 0.25000000 0.95861620
vt 0.25000000 0.94090277
vt 0.25000000 0.92017567
vt 0.18750000 0.92057222
vt 0.12500000 0.92110091
vt 0.31250000 0.95792001
vt 0.31250000 0.94043869
vt 0.31250000 0.92004353
vt 0.31250000 0.89753354
vt 0.25000000 0.89759815
vt 0.18750000 0.89779198
vt 0.12500000 0.89805049
vt 0.37500000 1.00000000
vt 0.43750000 1.00000000
vt 0.43750000 0.99180049
vt 0.37500000 0.99180049
vt 0.50000000 1.00000000
vt 0.50000000 0.99180049
vt 0.50000000 0.98267275
vt 0.43750000 0.98267275
vt 0.37500000 0.98267275
vt 0.56250000 1.00000000
vt 0.56250000 0.99180049
vt 0.62500000 1.00000000
vt 0.62500000 0.99180049
vt 0.62500000 0.98267275
vt 0.56250000 0.98267275
vt 0.56250000 0.97168869
vt 0.50000000 0.97168869
vt 0.62500000 0.97168869
vt 0.43750000 0.97168869
vt 0.37500000 0.97168869
vt 0.68750000 1.00000000
vt 0.68750000 0.99180049
vt 0.75000000 1.00000000
vt 0.75000000 0.99180049
vt 0.75000000 0.98278880
vt 0.68750000 0.98267275
vt 0.81250000 1.00000000
vt 0.81250000 0.99180049
vt 0.87500000 1.00000000
vt 0.87500000 0.99180049
vt 0.87500000 0.98360091
vt 0.81250000 0.98313683
vt 0.81250000 0.97354501
vt 0.75000000 0.97215277
vt 0.87500000 0.97540140
vt 0.68750000 0.97168869
vt 0.43750000 0.27645504
vt 0.37500000 0.27459860
vt 0.50000000 0.27738321
vt 0.50000000 0.26454991
vt 0.43750000 0.26516628
vt 0.37500000 0.26639909
vt 0.56250000 0.27645504
vt 0.62500000 0.27459860
vt 0.62500000 0.26639909
vt 0.56250000 0.26516628
vt 0.56250000 0.25141203
vt 0.50000000 0.24801821
vt 0.62500000 0.25819957
vt 0.43750000 0.25141197
vt 0.37500000 0.25819957
vt 0.12500000 1.00000000
vt 0.18750000 1.00000000
vt 0.18750000 0.99180049
vt 0.12500000 0.99180049
vt 0.25000000 1.00000000
vt 0.25000000 0.99180049
vt 0.25000000 0.98278880
vt 0.18750000 0.98313683
vt 0.12500000 0.98360091
vt 0.31250000 1.00000000
vt 0.31250000 0.99180049
vt 0.31250000 0.98267275
vt 0.31250000 0.97168869
vt 0.25000000 0.97215277
vt 0.18750000 0.97354501
vt 0.12500000 0.97540140
vt 0.41555786 0.71075940
vt 0.41528097 0.71235353
vt 0.45378962 0.73617721
vt 0.45394063 0.73414826
vt 0.41199130 0.71763802
vt 0.45164013 0.74093950
vt 0.50000000 0.74798667
vt 0.50000000 0.74411845
vt 0.50000000 0.74194461
vt 0.40278685 0.72966540
vt 0.44555420 0.75035667
vt 0.37500000 0.76226240
vt 0.43951356 0.75995195
vt 0.50000000 0.76090598
vt 0.50000000 0.75437403
vt 0.55444580 0.75035667
vt 0.54835987 0.74093950
vt 0.56048644 0.75995195
vt 0.62500000 0.76226240
vt 0.59721315 0.72966540
vt 0.58800876 0.71763802
vt 0.54621041 0.73617721
vt 0.54605937 0.73414826
vt 0.58471906 0.71235353
vt 0.58444214 0.71075940
vt 0.38337642 0.68366098
vt 0.37500000 0.69363117
vt 0.38976446 0.67592251
vt 0.38300657 0.62500000
vt 0.37951046 0.62500000
vt 0.37500000 0.62500000
vt 0.39217579 0.67264736
vt 0.39252821 0.67177784
vt 0.38485163 0.62500000
vt 0.38447404 0.62500000
vt 0.39217579 0.57735264
vt 0.38976449 0.57407749
vt 0.39252821 0.57822216
vt 0.41555786 0.53924060
vt 0.41528097 0.53764647
vt 0.41199130 0.53236198
vt 0.38337642 0.56633896
vt 0.37500000 0.55636883
vt 0.40278685 0.52033454
vt 0.37500000 0.48773760
vt 0.60782427 0.67264736
vt 0.60747182 0.67177784
vt 0.61023557 0.67592251
vt 0.61699343 0.62500000
vt 0.61552596 0.62500000
vt 0.61514831 0.62500000
vt 0.61662358 0.68366098
vt 0.62500000 0.69363117
vt 0.62500000 0.62500000
vt 0.62048960 0.62500000
vt 0.61662358 0.56633902
vt 0.61023557 0.57407749
vt 0.62500000 0.55636883
vt 0.62500000 0.48773760
vt 0.59721315 0.52033454
vt 0.58800870 0.53236198
vt 0.60782421 0.57735264
vt 0.60747182 0.57822216
vt 0.58471906 0.53764647
vt 0.58444214 0.53924060
vt 0.44555420 0.49964327
vt 0.43951356 0.49004811
vt 0.45164013 0.50906050
vt 0.50000000 0.50201333
vt 0.50000000 0.49562597
vt 0.50000000 0.48909402
vt 0.45378962 0.51382279
vt 0.45394069 0.51585174
vt 0.50000000 0.50805539
vt 0.50000000 0.50588155
vt 0.54621041 0.51382279
vt 0.54835987 0.50906050
vt 0.54605937 0.51585174
vt 0.55444580 0.49964327
vt 0.56048644 0.49004811
vt 0.43765542 0.68734455
vt 0.46301830 0.69832575
vt 0.46004280 0.66495723
vt 0.42667428 0.66198170
vt 0.50000000 0.70374548
vt 0.50000000 0.66793275
vt 0.50000000 0.62500000
vt 0.45706728 0.62500000
vt 0.42125452 0.62500000
vt 0.53698164 0.69832575
vt 0.53995717 0.66495723
vt 0.56234455 0.68734455
vt 0.57332575 0.66198170
vt 0.57874542 0.62500000
vt 0.54293275 0.62500000
vt 0.53995723 0.58504283
vt 0.50000000 0.58206725
vt 0.57332575 0.58801830
vt 0.56234461 0.56265539
vt 0.53698170 0.55167425
vt 0.50000000 0.54625452
vt 0.46004280 0.58504277
vt 0.42667431 0.58801830
vt 0.46301836 0.55167425
vt 0.43765545 0.56265539
vt 0.43750000 0.48475188
vt 0.37500000 0.48467135
vt 0.50000000 0.48479211
vt 0.50000000 0.48060167
vt 0.43750000 0.48093617
vt 0.37500000 0.48160517
vt 0.56250000 0.48475188
vt 0.62500000 0.48467135
vt 0.62500000 0.48160517
vt 0.56250000 0.48093617
vt 0.56250000 0.47578245
vt 0.50000000 0.47440422
vt 0.62500000 0.47853899
vt 0.43750000 0.47578245
vt 0.37500000 0.47853899
vt 0.68750000 0.77697402
vt 0.62500000 0.77697402
vt 0.75000000 0.77628493
vt 0.75000000 0.76960081
vt 0.68750000 0.76977307
vt 0.62500000 0.76976806
vt 0.81250000 0.77421755
vt 0.87500000 0.77146101
vt 0.87500000 0.76839483
vt 0.81250000 0.76908398
vt 0.81250000 0.76532865
vt 0.75000000 0.76532865
vt 0.87500000 0.76532865
vt 0.87500000 0.76226240
vt 0.81250000 0.76226240
vt 0.75000000 0.76226240
vt 0.68750000 0.76532865
vt 0.62500000 0.76530850
vt 0.68750000 0.76226240
vt 0.43750000 0.77697402
vt 0.37500000 0.77697402
vt 0.50000000 0.77697402
vt 0.50000000 0.76974291
vt 0.43750000 0.76975298
vt 0.37500000 0.76976806
vt 0.56250000 0.77697402
vt 0.56250000 0.76975298
vt 0.56250000 0.76524812
vt 0.50000000 0.76520789
vt 0.43750000 0.76524812
vt 0.37500000 0.76530850
vt 0.18750000 0.77421755
vt 0.12500000 0.77146101
vt 0.25000000 0.77628493
vt 0.25000000 0.76960081
vt 0.18750000 0.76908398
vt 0.12500000 0.76839483
vt 0.31250000 0.77697402
vt 0.31250000 0.76977307
vt 0.31250000 0.76532865
vt 0.25000000 0.76532865
vt 0.31250000 0.76226240
vt 0.25000000 0.76226240
vt 0.18750000 0.76532865
vt 0.12500000 0.76532865
vt 0.18750000 0.76226240
vt 0.12500000 0.76226240
vt 0.41583478 0.70916522
vt 0.45409173 0.73211932
vt 0.45409170 0.73211932
vt 0.41583478 0.70916522
vt 0.50000000 0.73977071
vt 0.50000000 0.73977071
vt 0.50000000 0.73615754
vt 0.45557949 0.72871870
vt 0.41854465 0.70645535
vt 0.54590827 0.73211932
vt 0.54590827 0.73211932
vt 0.58416516 0.70916522
vt 0.58416516 0.70916522
vt 0.58145535 0.70645535
vt 0.54442054 0.72871870
vt 0.53995723 0.71851689
vt 0.50000000 0.72531807
vt 0.57332575 0.69832575
vt 0.46004277 0.71851689
vt 0.42667425 0.69832575
vt 0.60711932 0.67090827
vt 0.60711932 0.67090827
vt 0.61477071 0.62500000
vt 0.61477071 0.62500000
vt 0.61115754 0.62500000
vt 0.60371870 0.66942048
vt 0.60711932 0.57909173
vt 0.60711932 0.57909173
vt 0.58416516 0.54083478
vt 0.58416516 0.54083478
vt 0.58145529 0.54354465
vt 0.60371870 0.58057946
vt 0.59351683 0.58504277
vt 0.60031807 0.62500000
vt 0.57332575 0.55167425
vt 0.59351689 0.66495723
vt 0.54590827 0.51788068
vt 0.54590827 0.51788068
vt 0.50000000 0.51022929
vt 0.50000000 0.51022929
vt 0.50000000 0.51384246
vt 0.54442048 0.52128130
vt 0.45409173 0.51788068
vt 0.45409173 0.51788068
vt 0.41583478 0.54083478
vt 0.41583481 0.54083484
vt 0.41854465 0.54354465
vt 0.45557949 0.52128130
vt 0.46004280 0.53148317
vt 0.50000000 0.52468193
vt 0.42667431 0.55167425
vt 0.53995723 0.53148311
vt 0.39288068 0.57909173
vt 0.39288068 0.57909173
vt 0.38522929 0.62500000
vt 0.38522929 0.62500000
vt 0.38884243 0.62500000
vt 0.39628130 0.58057952
vt 0.39288065 0.67090827
vt 0.39288065 0.67090827
vt 0.39628130 0.66942048
vt 0.40648314 0.66495723
vt 0.39968193 0.62500000
vt 0.40648314 0.58504277
vt 0.58416516 0.70916522
vt 0.60711932 0.67090827
vt 0.60711932 0.67090827
vt 0.58416516 0.70916522
vt 0.61477071 0.62500000
vt 0.61477071 0.62500000
vt 0.61477071 0.62500000
vt 0.60711932 0.67090827
vt 0.58416516 0.70916522
vt 0.60711932 0.57909173
vt 0.60711932 0.57909167
vt 0.58416516 0.54083478
vt 0.58416516 0.54083478
vt 0.58416516 0.54083478
vt 0.60711932 0.57909173
vt 0.60711932 0.57909173
vt 0.61477071 0.62500000
vt 0.58416516 0.54083478
vt 0.60711932 0.67090827
vt 0.58416516 0.70916522
vt 0.54590827 0.51788068
vt 0.54590827 0.51788068
vt 0.50000000 0.51022923
vt 0.50000000 0.51022923
vt 0.50000000 0.51022923
vt 0.54590827 0.51788068
vt 0.45409173 0.51788068
vt 0.45409173 0.51788068
vt 0.41583478 0.54083478
vt 0.41583481 0.54083478
vt 0.41583478 0.54083478
vt 0.45409173 0.51788068
vt 0.45409173 0.51788068
vt 0.50000000 0.51022929
vt 0.41583481 0.54083478
vt 0.54590827 0.51788068
vt 0.39288068 0.57909173
vt 0.39288068 0.57909167
vt 0.38522929 0.62500000
vt 0.38522929 0.62500000
vt 0.38522929 0.62500000
vt 0.39288068 0.57909167
vt 0.39288068 0.67090827
vt 0.39288068 0.67090827
vt 0.41583481 0.70916522
vt 0.41583484 0.70916522
vt 0.41583481 0.70916522
vt 0.39288068 0.67090827
vt 0.39288065 0.67090827
vt 0.38522929 0.62500000
vt 0.41583478 0.70916522
vt 0.39288068 0.57909173
vt 0.45409173 0.73211932
vt 0.45409173 0.73211932
vt 0.50000000 0.73977071
vt 0.50000000 0.73977071
vt 0.50000000 0.73977071
vt 0.45409173 0.73211932
vt 0.54590827 0.73211932
vt 0.54590827 0.73211932
vt 0.54590827 0.73211932
vt 0.54590827 0.73211932
vt 0.50000000 0.73977071
vt 0.45409173 0.73211932
vt 0.60726035 0.67125607
vt 0.58427596 0.70980287
vt 0.61492181 0.62500000
vt 0.61480850 0.62500000
vt 0.60715461 0.67099524
vt 0.58419287 0.70932460
vt 0.60726035 0.57874393
vt 0.58427596 0.54019713
vt 0.58419287 0.54067540
vt 0.60715461 0.57900476
vt 0.60711932 0.57909173
vt 0.61477071 0.62500000
vt 0.58416516 0.54083478
vt 0.60711932 0.67090827
vt 0.58416516 0.70916522
vt 0.54596871 0.51706910
vt 0.50000000 0.50935972
vt 0.50000000 0.51001191
vt 0.54592341 0.51767778
vt 0.45403129 0.51706910
vt 0.41572401 0.54019713
vt 0.41580713 0.54067540
vt 0.45407665 0.51767778
vt 0.45409173 0.51788068
vt 0.50000000 0.51022929
vt 0.41583481 0.54083478
vt 0.54590827 0.51788068
vt 0.39273968 0.57874393
vt 0.38507822 0.62500000
vt 0.38519150 0.62500000
vt 0.39284542 0.57900476
vt 0.39273968 0.67125607
vt 0.41572404 0.70980287
vt 0.41580713 0.70932460
vt 0.39284542 0.67099524
vt 0.39288068 0.67090827
vt 0.38522929 0.62500000
vt 0.41583484 0.70916522
vt 0.39288068 0.57909173
vt 0.45403129 0.73293090
vt 0.50000000 0.74064028
vt 0.50000000 0.73998809
vt 0.45407659 0.73232222
vt 0.54596871 0.73293090
vt 0.54592335 0.73232222
vt 0.54590827 0.73211932
vt 0.50000000 0.73977071
vt 0.45409173 0.73211932
f 1/1 2/2 3/3
f 1/1 3/3 4/4
f 2/2 5/5 6/6
f 2/2 6/6 3/3
f 3/3 6/6 7/7
f 3/3 7/7 8/8
f 4/4 3/3 8/8
f 4/4 8/8 9/9
f 5/5 10/10 11/11
f 5/5 11/11 6/6
f 10/10 12/12 13/13
f 10/10 13/13 11/11
f 11/11 13/13 14/14
f 11/11 14/14 15/15
f 6/6 11/11 15/15
f 6/6 15/15 7/7
f 7/7 15/15 16/16
f 7/7 16/16 17/17
f 15/15 14/14 18/18
f 15/15 18/18 16/16
f 16/16 18/18 19/19
f 16/16 19/19 20/20
f 17/17 16/16 20/20
f 17/17 20/20 21/21
f 9/9 8/8 22/22
f 9/9 22/22 23/23
f 8/8 7/7 17/17
f 8/8 17/17 22/22
f 22/22 17/17 21/21
f 22/22 21/21 24/24
f 23/23 22/22 24/24
f 23/23 24/24 25/25
f 26/26 27/27 28/28
f 26/26 28/28 29/29
f 27/27 30/30 31/31
f 27/27 31/31 28/28
f 28/28 31/31 32/32
f 28/28 32/32 33/33
f 29/29 28/28 33/33
f 29/29 33/33 34/34
f 30/30 35/35 36/36
f 30/30 36/36 31/31
f 35/35 37/37 38/38
f 35/35 38/38 36/36
f 36/36 38/38 39/39
f 36/36 39/39 40/40
f 31/31 36/36 40/40
f 31/31 40/40 32/32
f 32/32 40/40 41/41
f 32/32 41/41 42/42
f 40/40 39/39 43/43
f 40/40 43/43 41/41
f 41/41 43/43 44/44
f 41/41 44/44 45/45
f 42/42 41/41 45/45
f 42/42 45/45 46/46
f 34/34 33/33 47/47
f 34/34 47/47 48/48
f 33/33 32/32 42/42
f 33/33 42/42 47/47
f 47/47 42/42 46/46
f 47/47 46/46 49/49
f 48/48 47/47 49/49
f 48/48 49/49 50/50
f 51/51 52/52 53/53
f 51/51 53/53 54/54
f 52/52 55/55 56/56
f 52/52 56/56 53/53
f 53/53 56/56 57/57
f 53/53 57/57 58/58
f 54/54 53/53 58/58
f 54/54 58/58 59/59
f 55/55 60/60 61/61
f 55/55 61/61 56/56
f 60/60 62/62 63/63
f 60/60 63/63 61/61
f 61/61 63/63 64/64
f 61/61 64/64 65/65
f 56/56 61/61 65/65
f 56/56 65/65 57/57
f 57/57 65/65 66/66
f 57/57 66/66 67/67
f 65/65 64/64 68/68
f 65/65 68/68 66/66
f 66/66 68/68 69/69
f 66/66 69/69 70/70
f 67/67 66/66 70/70
f 67/67 70/70 71/71
f 59/59 58/58 72/72
f 59/59 72/72 73/73
f 58/58 57/57 67/67
f 58/58 67/67 72/72
f 72/72 67/67 71/71
f 72/72 71/71 74/74
f 73/73 72/72 74/74
f 73/73 74/74 75/75
f 12/12 76/76 77/77
f 12/12 77/77 13/13
f 76/76 78/78 79/79
f 76/76 79/79 77/77
f 77/77 79/79 80/80
f 77/77 80/80 81/81
f 13/13 77/77 81/81
f 13/13 81/81 14/14
f 78/78 82/82 83/83
f 78/78 83/83 79/79
f 82/82 84/84 85/85
f 82/82 85/85 83/83
f 83/83 85/85 86/86
f 83/83 86/86 87/87
f 79/79 83/83 87/87
f 79/79 87/87 80/80
f 80/80 87/87 88/88
f 80/80 88/88 89/89
f 87/87 86/86 90/90
f 87/87 90/90 88/88
f 88/88 90/90 91/91
f 88/88 91/91 92/92
f 89/89 88/88 92/92
f 89/89 92/92 93/93
f 14/14 81/81 94/94
f 14/14 94/94 18/18
f 81/81 80/80 89/89
f 81/81 89/89 94/94
f 94/94 89/89 93/93
f 94/94 93/93 95/95
f 18/18 94/94 95/95
f 18/18 95/95 19/19
f 96/96 97/97 98/98
f 96/96 98/98 99/99
f 97/97 100/100 101/101
f 97/97 101/101 98/98
f 98/98 101/101 102/102
f 98/98 102/102 103/103
f 99/99 98/98 103/103
f 99/99 103/103 104/104
f 100/100 105/105 106/106
f 100/100 106/106 101/101
f 105/105 1/1 4/4
f 105/105 4/4 106/106
f 106/106 4/4 9/9
f 106/106 9/9 107/107
f 101/101 106/106 107/107
f 101/101 107/107 102/102
f 102/102 107/107 108/108
f 102/102 108/108 109/109
f 107/107 9/9 23/23
f 107/107 23/23 108/108
f 108/108 23/23 25/25
f 108/108 25/25 110/110
f 109/109 108/108 110/110
f 109/109 110/110 111/111
f 104/104 103/103 112/112
f 104/104 112/112 113/113
f 103/103 102/102 109/109
f 103/103 109/109 112/112
f 112/112 109/109 111/111
f 112/112 111/111 114/114
f 113/113 112/112 114/114
f 113/113 114/114 115/115
f 116/116 117/117 118/118
f 116/116 118/118 119/119
f 117/117 120/120 121/121
f 117/117 121/121 118/118
f 118/118 121/121 122/122
f 118/118 122/122 123/123
f 119/119 118/118 123/123
f 119/119 123/123 124/124
f 120/120 125/125 126/126
f 120/120 126/126 121/121
f 125/125 127/127 128/128
f 125/125 128/128 126/126
f 126/126 128/128 129/129
f 126/126 129/129 130/130
f 121/121 126/126 130/130
f 121/121 130/130 122/122
f 122/122 130/130 131/131
f 122/122 131/131 132/132
f 130/130 129/129 133/133
f 130/130 133/133 131/131
f 131/131 133/133 12/12
f 131/131 12/12 10/10
f 132/132 131/131 10/10
f 132/132 10/10 5/5
f 124/124 123/123 134/134
f 124/124 134/134 135/135
f 123/123 122/122 132/132
f 123/123 132/132 134/134
f 134/134 132/132 5/5
f 134/134 5/5 2/2
f 135/135 134/134 2/2
f 135/135 2/2 1/1
f 127/127 136/136 137/137
f 127/127 137/137 128/128
f 136/136 138/138 139/139
f 136/136 139/139 137/137
f 137/137 139/139 140/140
f 137/137 140/140 141/141
f 128/128 137/137 141/141
f 128/128 141/141 129/129
f 138/138 142/142 143/143
f 138/138 143/143 139/139
f 142/142 144/144 145/145
f 142/142 145/145 143/143
f 143/143 145/145 146/146
f 143/143 146/146 147/147
f 139/139 143/143 147/147
f 139/139 147/147 140/140
f 140/140 147/147 148/148
f 140/140 148/148 149/149
f 147/147 146/146 150/150
f 147/147 150/150 148/148
f 148/148 150/150 84/84
f 148/148 84/84 82/82
f 149/149 148/148 82/82
f 149/149 82/82 78/78
f 129/129 141/141 151/151
f 129/129 151/151 133/133
f 141/141 140/140 149/149
f 141/141 149/149 151/151
f 151/151 149/149 78/78
f 151/151 78/78 76/76
f 133/133 151/151 76/76
f 133/133 76/76 12/12
f 50/50 49/49 152/152
f 50/50 152/152 153/153
f 49/49 46/46 154/154
f 49/49 154/154 152/152
f 152/152 154/154 155/155
f 152/152 155/155 156/156
f 153/153 152/152 156/156
f 153/153 156/156 157/157
f 46/46 45/45 158/158
f 46/46 158/158 154/154
f 45/45 44/44 159/159
f 45/45 159/159 158/158
f 158/158 159/159 160/160
f 158/158 160/160 161/161
f 154/154 158/158 161/161
f 154/154 161/161 155/155
f 155/155 161/161 162/162
f 155/155 162/162 163/163
f 161/161 160/160 164/164
f 161/161 164/164 162/162
f 162/162 164/164 165/165
f 162/162 165/165 166/166
f 163/163 162/162 166/166
f 163/163 166/166 167/167
f 157/157 156/156 168/168
f 157/157 168/168 169/169
f 156/156 155/155 163/163
f 156/156 163/163 168/168
f 168/168 163/163 167/167
f 168/168 167/167 170/170
f 169/169 168/168 170/170
f 169/169 170/170 171/171
f 172/172 173/173 174/174
f 172/172 174/174 175/175
f 173/173 176/176 177/177
f 173/173 177/177 174/174
f 174/174 177/177 178/178
f 174/174 178/178 179/179
f 175/175 174/174 179/179
f 175/175 179/179 180/180
f 176/176 181/181 182/182
f 176/176 182/182 177/177
f 181/181 116/116 119/119
f 181/181 119/119 182/182
f 182/182 119/119 124/124
f 182/182 124/124 183/183
f 177/177 182/182 183/183
f 177/177 183/183 178/178
f 178/178 183/183 184/184
f 178/178 184/184 185/185
f 183/183 124/124 135/135
f 183/183 135/135 184/184
f 184/184 135/135 1/1
f 184/184 1/1 105/105
f 185/185 184/184 105/105
f 185/185 105/105 100/100
f 180/180 179/179 186/186
f 180/180 186/186 187/187
f 179/179 178/178 185/185
f 179/179 185/185 186/186
f 186/186 185/185 100/100
f 186/186 100/100 97/97
f 187/187 186/186 97/97
f 187/187 97/97 96/96
f 188/188 189/189 190/190
f 188/188 190/190 191/191
f 189/189 192/192 193/193
f 189/189 193/193 190/190
f 190/190 193/193 194/194
f 190/190 194/194 195/195
f 191/191 190/190 195/195
f 191/191 195/195 196/196
f 192/192 197/197 198/198
f 192/192 198/198 193/193
f 197/197 199/199 200/200
f 197/197 200/200 198/198
f 198/198 200/200 201/201
f 198/198 201/201 202/202
f 193/193 198/198 202/202
f 193/193 202/202 194/194
f 194/194 202/202 203/203
f 194/194 203/203 204/204
f 202/202 201/201 205/205
f 202/202 205/205 203/203
f 203/203 205/205 127/127
f 203/203 127/127 125/125
f 204/204 203/203 125/125
f 204/204 125/125 120/120
f 196/196 195/195 206/206
f 196/196 206/206 207/207
f 195/195 194/194 204/204
f 195/195 204/204 206/206
f 206/206 204/204 120/120
f 206/206 120/120 117/117
f 207/207 206/206 117/117
f 207/207 117/117 116/116
f 199/199 208/208 209/209
f 199/199 209/209 200/200
f 208/208 210/210 211/211
f 208/208 211/211 209/209
f 209/209 211/211 212/212
f 209/209 212/212 213/213
f 200/200 209/209 213/213
f 200/200 213/213 201/201
f 210/210 214/214 215/215
f 210/210 215/215 211/211
f 214/214 216/216 217/217
f 214/214 217/217 215/215
f 215/215 217/217 218/218
f 215/215 218/218 219/219
f 211/211 215/215 219/219
f 211/211 219/219 212/212
f 212/212 219/219 220/220
f 212/212 220/220 221/221
f 219/219 218/218 222/222
f 219/219 222/222 220/220
f 220/220 222/222 144/144
f 220/220 144/144 142/142
f 221/221 220/220 142/142
f 221/221 142/142 138/138
f 201/201 213/213 223/223
f 201/201 223/223 205/205
f 213/213 212/212 221/221
f 213/213 221/221 223/223
f 223/223 221/221 138/138
f 223/223 138/138 136/136
f 205/205 223/223 136/136
f 205/205 136/136 127/127
f 171/171 170/170 224/224
f 171/171 224/224 225/225
f 170/170 167/167 226/226
f 170/170 226/226 224/224
f 224/224 226/226 227/227
f 224/224 227/227 228/228
f 225/225 224/224 228/228
f 225/225 228/228 229/229
f 167/167 166/166 230/230
f 167/167 230/230 226/226
f 166/166 165/165 231/231
f 166/166 231/231 230/230
f 230/230 231/231 232/232
f 230/230 232/232 233/233
f 226/226 230/230 233/233
f 226/226 233/233 227/227
f 227/227 233/233 234/234
f 227/227 234/234 235/235
f 233/233 232/232 236/236
f 233/233 236/236 234/234
f 234/234 236/236 62/62
f 234/234 62/62 60/60
f 235/235 234/234 60/60
f 235/235 60/60 55/55
f 229/229 228/228 237/237
f 229/229 237/237 238/238
f 228/228 227/227 235/235
f 228/228 235/235 237/237
f 237/237 235/235 55/55
f 237/237 55/55 52/52
f 238/238 237/237 52/52
f 238/238 52/52 51/51
f 239/239 240/240 241/241
f 239/239 241/241 242/242
f 240/240 243/243 244/244
f 240/240 244/244 241/241
f 241/241 244/244 245/245
f 241/241 245/245 246/246
f 242/242 241/241 246/246
f 242/242 246/246 247/247
f 243/243 248/248 249/249
f 243/243 249/249 244/244
f 248/248 188/188 191/191
f 248/248 191/191 249/249
f 249/249 191/191 196/196
f 249/249 196/196 250/250
f 244/244 249/249 250/250
f 244/244 250/250 245/245
f 245/245 250/250 251/251
f 245/245 251/251 252/252
f 250/250 196/196 207/207
f 250/250 207/207 251/251
f 251/251 207/207 116/116
f 251/251 116/116 181/181
f 252/252 251/251 181/181
f 252/252 181/181 176/176
f 247/247 246/246 253/253
f 247/247 253/253 254/254
f 246/246 245/245 252/252
f 246/246 252/252 253/253
f 253/253 252/252 176/176
f 253/253 176/176 173/173
f 254/254 253/253 173/173
f 254/254 173/173 172/172
f 255/255 256/256 257/257
f 255/255 257/257 258/258
f 256/256 259/259 260/260
f 256/256 260/260 257/257
f 257/257 260/260 261/261
f 257/257 261/261 262/262
f 258/258 257/257 262/262
f 258/258 262/262 263/263
f 259/259 264/264 265/265
f 259/259 265/265 260/260
f 264/264 266/266 267/267
f 264/264 267/267 265/265
f 265/265 267/267 268/268
f 265/265 268/268 269/269
f 260/260 265/265 269/269
f 260/260 269/269 261/261
f 261/261 269/269 270/270
f 261/261 270/270 271/271
f 269/269 268/268 272/272
f 269/269 272/272 270/270
f 270/270 272/272 273/273
f 270/270 273/273 274/274
f 271/271 270/270 274/274
f 271/271 274/274 275/275
f 263/263 262/262 276/276
f 263/263 276/276 277/277
f 262/262 261/261 271/271
f 262/262 271/271 276/276
f 276/276 271/271 275/275
f 276/276 275/275 278/278
f 277/277 276/276 278/278
f 277/277 278/278 279/279
f 266/266 264/264 280/280
f 266/266 280/280 281/281
f 264/264 259/259 282/282
f 264/264 282/282 280/280
f 280/280 282/282 283/283
f 280/280 283/283 284/284
f 281/281 280/280 284/284
f 281/281 284/284 285/285
f 259/259 256/256 286/286
f 259/259 286/286 282/282
f 256/256 255/255 287/287
f 256/256 287/287 286/286
f 286/286 287/287 288/288
f 286/286 288/288 289/289
f 282/282 286/286 289/289
f 282/282 289/289 283/283
f 283/283 289/289 290/290
f 283/283 290/290 291/291
f 289/289 288/288 292/292
f 289/289 292/292 290/290
f 290/290 292/292 293/293
f 290/290 293/293 294/294
f 291/291 290/290 294/294
f 291/291 294/294 295/295
f 285/285 284/284 296/296
f 285/285 296/296 297/297
f 284/284 283/283 291/291
f 284/284 291/291 296/296
f 296/296 291/291 295/295
f 296/296 295/295 298/298
f 297/297 296/296 298/298
f 297/297 298/298 299/299
f 279/279 278/278 300/300
f 279/279 300/300 301/301
f 278/278 275/275 302/302
f 278/278 302/302 300/300
f 300/300 302/302 303/303
f 300/300 303/303 304/304
f 301/301 300/300 304/304
f 301/301 304/304 305/305
f 275/275 274/274 306/306
f 275/275 306/306 302/302
f 274/274 273/273 307/307
f 274/274 307/307 306/306
f 306/306 307/307 308/308
f 306/306 308/308 309/309
f 302/302 306/306 309/309
f 302/302 309/309 303/303
f 303/303 309/309 310/310
f 303/303 310/310 311/311
f 309/309 308/308 312/312
f 309/309 312/312 310/310
f 310/310 312/312 313/313
f 310/310 313/313 314/314
f 311/311 310/310 314/314
f 311/311 314/314 315/315
f 305/305 304/304 316/316
f 305/305 316/316 317/317
f 304/304 303/303 311/311
f 304/304 311/311 316/316
f 316/316 311/311 315/315
f 316/316 315/315 318/318
f 317/317 316/316 318/318
f 317/317 318/318 319/319
f 299/299 298/298 320/320
f 299/299 320/320 321/321
f 298/298 295/295 322/322
f 298/298 322/322 320/320
f 320/320 322/322 323/323
f 320/320 323/323 324/324
f 321/321 320/320 324/324
f 321/321 324/324 325/325
f 295/295 294/294 326/326
f 295/295 326/326 322/322
f 294/294 293/293 327/327
f 294/294 327/327 326/326
f 326/326 327/327 328/328
f 326/326 328/328 329/329
f 322/322 326/326 329/329
f 322/322 329/329 323/323
f 323/323 329/329 330/330
f 323/323 330/330 331/331
f 329/329 328/328 332/332
f 329/329 332/332 330/330
f 330/330 332/332 319/319
f 330/330 319/319 318/318
f 331/331 330/330 318/318
f 331/331 318/318 315/315
f 325/325 324/324 333/333
f 325/325 333/333 334/334
f 324/324 323/323 331/331
f 324/324 331/331 333/333
f 333/333 331/331 315/315
f 333/333 315/315 314/314
f 334/334 333/333 314/314
f 334/334 314/314 313/313
f 335/335 336/336 337/337
f 335/335 337/337 338/338
f 336/336 339/339 340/340
f 336/336 340/340 337/337
f 337/337 340/340 341/341
f 337/337 341/341 342/342
f 338/338 337/337 342/342
f 338/338 342/342 343/343
f 339/339 344/344 345/345
f 339/339 345/345 340/340
f 344/344 346/346 347/347
f 344/344 347/347 345/345
f 345/345 347/347 348/348
f 345/345 348/348 349/349
f 340/340 345/345 349/349
f 340/340 349/349 341/341
f 341/341 349/349 350/350
f 341/341 350/350 351/351
f 349/349 348/348 352/352
f 349/349 352/352 350/350
f 350/350 352/352 353/353
f 350/350 353/353 354/354
f 351/351 350/350 354/354
f 351/351 354/354 355/355
f 343/343 342/342 356/356
f 343/343 356/356 357/357
f 342/342 341/341 351/351
f 342/342 351/351 356/356
f 356/356 351/351 355/355
f 356/356 355/355 358/358
f 357/357 356/356 358/358
f 357/357 358/358 359/359
f 299/299 321/321 360/360
f 299/299 360/360 361/361
f 321/321 325/325 362/362
f 321/321 362/362 360/360
f 360/360 362/362 363/363
f 360/360 363/363 364/364
f 361/361 360/360 364/364
f 361/361 364/364 365/365
f 325/325 334/334 366/366
f 325/325 366/366 362/362
f 334/334 313/313 367/367
f 334/334 367/367 366/366
f 366/366 367/367 368/368
f 366/366 368/368 369/369
f 362/362 366/366 369/369
f 362/362 369/369 363/363
f 363/363 369/369 370/370
f 363/363 370/370 371/371
f 369/369 368/368 372/372
f 369/369 372/372 370/370
f 370/370 372/372 37/37
f 370/370 37/37 35/35
f 371/371 370/370 35/35
f 371/371 35/35 30/30
f 365/365 364/364 373/373
f 365/365 373/373 374/374
f 364/364 363/363 371/371
f 364/364 371/371 373/373
f 373/373 371/371 30/30
f 373/373 30/30 27/27
f 374/374 373/373 27/27
f 374/374 27/27 26/26
f 19/19 95/95 375/375
f 19/19 375/375 376/376
f 95/95 93/93 377/377
f 95/95 377/377 375/375
f 375/375 377/377 378/378
f 375/375 378/378 379/379
f 376/376 375/375 379/379
f 376/376 379/379 380/380
f 93/93 92/92 381/381
f 93/93 381/381 377/377
f 92/92 91/91 382/382
f 92/92 382/382 381/381
f 381/381 382/382 383/383
f 381/381 383/383 384/384
f 377/377 381/381 384/384
f 377/377 384/384 378/378
f 378/378 384/384 385/385
f 378/378 385/385 386/386
f 384/384 383/383 387/387
f 384/384 387/387 385/385
f 385/385 387/387 388/388
f 385/385 388/388 389/389
f 386/386 385/385 389/389
f 386/386 389/389 390/390
f 380/380 379/379 391/391
f 380/380 391/391 392/392
f 379/379 378/378 386/386
f 379/379 386/386 391/391
f 391/391 386/386 390/390
f 391/391 390/390 393/393
f 392/392 391/391 393/393
f 392/392 393/393 273/273
f 25/25 24/24 394/394
f 25/25 394/394 395/395
f 24/24 21/21 396/396
f 24/24 396/396 394/394
f 394/394 396/396 397/397
f 394/394 397/397 398/398
f 395/395 394/394 398/398
f 395/395 398/398 399/399
f 21/21 20/20 400/400
f 21/21 400/400 396/396
f 20/20 19/19 376/376
f 20/20 376/376 400/400
f 400/400 376/376 380/380
f 400/400 380/380 401/401
f 396/396 400/400 401/401
f 396/396 401/401 397/397
f 397/397 401/401 402/402
f 397/397 402/402 403/403
f 401/401 380/380 392/392
f 401/401 392/392 402/402
f 402/402 392/392 273/273
f 402/402 273/273 272/272
f 403/403 402/402 272/272
f 403/403 272/272 268/268
f 399/399 398/398 404/404
f 399/399 404/404 405/405
f 398/398 397/397 403/403
f 398/398 403/403 404/404
f 404/404 403/403 268/268
f 404/404 268/268 267/267
f 405/405 404/404 267/267
f 405/405 267/267 266/266
f 115/115 114/114 406/406
f 115/115 406/406 407/407
f 114/114 111/111 408/408
f 114/114 408/408 406/406
f 406/406 408/408 409/409
f 406/406 409/409 410/410
f 407/407 406/406 410/410
f 407/407 410/410 411/411
f 111/111 110/110 412/412
f 111/111 412/412 408/408
f 110/110 25/25 395/395
f 110/110 395/395 412/412
f 412/412 395/395 399/399
f 412/412 399/399 413/413
f 408/408 412/412 413/413
f 408/408 413/413 409/409
f 409/409 413/413 414/414
f 409/409 414/414 415/415
f 413/413 399/399 405/405
f 413/413 405/405 414/414
f 414/414 405/405 266/266
f 414/414 266/266 416/416
f 415/415 414/414 416/416
f 415/415 416/416 417/417
f 411/411 410/410 418/418
f 411/411 418/418 419/419
f 410/410 409/409 415/415
f 410/410 415/415 418/418
f 418/418 415/415 417/417
f 418/418 417/417 420/420
f 419/419 418/418 420/420
f 419/419 420/420 421/421
f 422/422 423/423 424/424
f 422/422 424/424 425/425
f 423/423 426/426 427/427
f 423/423 427/427 424/424
f 424/424 427/427 428/428
f 424/424 428/428 429/429
f 425/425 424/424 429/429
f 425/425 429/429 430/430
f 426/426 431/431 432/432
f 426/426 432/432 427/427
f 431/431 433/433 434/434
f 431/431 434/434 432/432
f 432/432 434/434 435/435
f 432/432 435/435 436/436
f 427/427 432/432 436/436
f 427/427 436/436 428/428
f 428/428 436/436 437/437
f 428/428 437/437 438/438
f 436/436 435/435 439/439
f 436/436 439/439 437/437
f 437/437 439/439 346/346
f 437/437 346/346 344/344
f 438/438 437/437 344/344
f 438/438 344/344 339/339
f 430/430 429/429 440/440
f 430/430 440/440 441/441
f 429/429 428/428 438/438
f 429/429 438/438 440/440
f 440/440 438/438 339/339
f 440/440 339/339 336/336
f 441/441 440/440 336/336
f 441/441 336/336 335/335
f 433/433 442/442 443/443
f 433/433 443/443 434/434
f 442/442 444/444 445/445
f 442/442 445/445 443/443
f 443/443 445/445 446/446
f 443/443 446/446 447/447
f 434/434 443/443 447/447
f 434/434 447/447 435/435
f 444/444 448/448 449/449
f 444/444 449/449 445/445
f 448/448 450/450 451/451
f 448/448 451/451 449/449
f 449/449 451/451 452/452
f 449/449 452/452 453/453
f 445/445 449/449 453/453
f 445/445 453/453 446/446
f 446/446 453/453 454/454
f 446/446 454/454 455/455
f 453/453 452/452 456/456
f 453/453 456/456 454/454
f 454/454 456/456 353/353
f 454/454 353/353 352/352
f 455/455 454/454 352/352
f 455/455 352/352 348/348
f 435/435 447/447 457/457
f 435/435 457/457 439/439
f 447/447 446/446 455/455
f 447/447 455/455 457/457
f 457/457 455/455 348/348
f 457/457 348/348 347/347
f 439/439 457/457 347/347
f 439/439 347/347 346/346
f 450/450 458/458 459/459
f 450/450 459/459 451/451
f 458/458 460/460 461/461
f 458/458 461/461 459/459
f 459/459 461/461 462/462
f 459/459 462/462 463/463
f 451/451 459/459 463/463
f 451/451 463/463 452/452
f 460/460 464/464 465/465
f 460/460 465/465 461/461
f 464/464 466/466 467/467
f 464/464 467/467 465/465
f 465/465 467/467 468/468
f 465/465 468/468 469/469
f 461/461 465/465 469/469
f 461/461 469/469 462/462
f 462/462 469/469 470/470
f 462/462 470/470 471/471
f 469/469 468/468 472/472
f 469/469 472/472 470/470
f 470/470 472/472 359/359
f 470/470 359/359 358/358
f 471/471 470/470 358/358
f 471/471 358/358 355/355
f 452/452 463/463 473/473
f 452/452 473/473 456/456
f 463/463 462/462 471/471
f 463/463 471/471 473/473
f 473/473 471/471 355/355
f 473/473 355/355 354/354
f 456/456 473/473 354/354
f 456/456 354/354 353/353
f 466/466 474/474 475/475
f 466/466 475/475 467/467
f 474/474 476/476 477/477
f 474/474 477/477 475/475
f 475/475 477/477 478/478
f 475/475 478/478 479/479
f 467/467 475/475 479/479
f 467/467 479/479 468/468
f 476/476 480/480 481/481
f 476/476 481/481 477/477
f 480/480 422/422 425/425
f 480/480 425/425 481/481
f 481/481 425/425 430/430
f 481/481 430/430 482/482
f 477/477 481/481 482/482
f 477/477 482/482 478/478
f 478/478 482/482 483/483
f 478/478 483/483 484/484
f 482/482 430/430 441/441
f 482/482 441/441 483/483
f 483/483 441/441 335/335
f 483/483 335/335 338/338
f 484/484 483/483 338/338
f 484/484 338/338 343/343
f 468/468 479/479 485/485
f 468/468 485/485 472/472
f 479/479 478/478 484/484
f 479/479 484/484 485/485
f 485/485 484/484 343/343
f 485/485 343/343 357/357
f 472/472 485/485 357/357
f 472/472 357/357 359/359
f 486/486 487/487 488/488
f 486/486 488/488 489/489
f 487/487 490/490 491/491
f 487/487 491/491 488/488
f 488/488 491/491 492/492
f 488/488 492/492 493/493
f 489/489 488/488 493/493
f 489/489 493/493 494/494
f 490/490 495/495 496/496
f 490/490 496/496 491/491
f 495/495 497/497 498/498
f 495/495 498/498 496/496
f 496/496 498/498 499/499
f 496/496 499/499 500/500
f 491/491 496/496 500/500
f 491/491 500/500 492/492
f 492/492 500/500 501/501
f 492/492 501/501 502/502
f 500/500 499/499 503/503
f 500/500 503/503 501/501
f 501/501 503/503 450/450
f 501/501 450/450 448/448
f 502/502 501/501 448/448
f 502/502 448/448 444/444
f 494/494 493/493 504/504
f 494/494 504/504 505/505
f 493/493 492/492 502/502
f 493/493 502/502 504/504
f 504/504 502/502 444/444
f 504/504 444/444 442/442
f 505/505 504/504 442/442
f 505/505 442/442 433/433
f 497/497 506/506 507/507
f 497/497 507/507 498/498
f 506/506 508/508 509/509
f 506/506 509/509 507/507
f 507/507 509/509 510/510
f 507/507 510/510 511/511
f 498/498 507/507 511/511
f 498/498 511/511 499/499
f 508/508 512/512 513/513
f 508/508 513/513 509/509
f 512/512 514/514 515/515
f 512/512 515/515 513/513
f 513/513 515/515 516/516
f 513/513 516/516 517/517
f 509/509 513/513 517/517
f 509/509 517/517 510/510
f 510/510 517/517 518/518
f 510/510 518/518 519/519
f 517/517 516/516 520/520
f 517/517 520/520 518/518
f 518/518 520/520 466/466
f 518/518 466/466 464/464
f 519/519 518/518 464/464
f 519/519 464/464 460/460
f 499/499 511/511 521/521
f 499/499 521/521 503/503
f 511/511 510/510 519/519
f 511/511 519/519 521/521
f 521/521 519/519 460/460
f 521/521 460/460 458/458
f 503/503 521/521 458/458
f 503/503 458/458 450/450
f 514/514 522/522 523/523
f 514/514 523/523 515/515
f 522/522 524/524 525/525
f 522/522 525/525 523/523
f 523/523 525/525 526/526
f 523/523 526/526 527/527
f 515/515 523/523 527/527
f 515/515 527/527 516/516
f 524/524 528/528 529/529
f 524/524 529/529 525/525
f 528/528 530/530 531/531
f 528/528 531/531 529/529
f 529/529 531/531 532/532
f 529/529 532/532 533/533
f 525/525 529/529 533/533
f 525/525 533/533 526/526
f 526/526 533/533 534/534
f 526/526 534/534 535/535
f 533/533 532/532 536/536
f 533/533 536/536 534/534
f 534/534 536/536 422/422
f 534/534 422/422 480/480
f 535/535 534/534 480/480
f 535/535 480/480 476/476
f 516/516 527/527 537/537
f 516/516 537/537 520/520
f 527/527 526/526 535/535
f 527/527 535/535 537/537
f 537/537 535/535 476/476
f 537/537 476/476 474/474
f 520/520 537/537 474/474
f 520/520 474/474 466/466
f 530/530 538/538 539/539
f 530/530 539/539 531/531
f 538/538 540/540 541/541
f 538/538 541/541 539/539
f 539/539 541/541 542/542
f 539/539 542/542 543/543
f 531/531 539/539 543/543
f 531/531 543/543 532/532
f 540/540 544/544 545/545
f 540/540 545/545 541/541
f 544/544 486/486 489/489
f 544/544 489/489 545/545
f 545/545 489/489 494/494
f 545/545 494/494 546/546
f 541/541 545/545 546/546
f 541/541 546/546 542/542
f 542/542 546/546 547/547
f 542/542 547/547 548/548
f 546/546 494/494 505/505
f 546/546 505/505 547/547
f 547/547 505/505 433/433
f 547/547 433/433 431/431
f 548/548 547/547 431/431
f 548/548 431/431 426/426
f 532/532 543/543 549/549
f 532/532 549/549 536/536
f 543/543 542/542 548/548
f 543/543 548/548 549/549
f 549/549 548/548 426/426
f 549/549 426/426 423/423
f 536/536 549/549 423/423
f 536/536 423/423 422/422
f 279/279 301/301 550/550
f 279/279 550/550 551/551
f 301/301 305/305 552/552
f 301/301 552/552 550/550
f 550/550 552/552 553/553
f 550/550 553/553 554/554
f 551/551 550/550 554/554
f 551/551 554/554 555/555
f 305/305 317/317 556/556
f 305/305 556/556 552/552
f 317/317 319/319 557/557
f 317/317 557/557 556/556
f 556/556 557/557 558/558
f 556/556 558/558 559/559
f 552/552 556/556 559/559
f 552/552 559/559 553/553
f 553/553 559/559 560/560
f 553/553 560/560 561/561
f 559/559 558/558 562/562
f 559/559 562/562 560/560
f 560/560 562/562 497/497
f 560/560 497/497 495/495
f 561/561 560/560 495/495
f 561/561 495/495 490/490
f 555/555 554/554 563/563
f 555/555 563/563 564/564
f 554/554 553/553 561/561
f 554/554 561/561 563/563
f 563/563 561/561 490/490
f 563/563 490/490 487/487
f 564/564 563/563 487/487
f 564/564 487/487 486/486
f 319/319 332/332 565/565
f 319/319 565/565 557/557
f 332/332 328/328 566/566
f 332/332 566/566 565/565
f 565/565 566/566 567/567
f 565/565 567/567 568/568
f 557/557 565/565 568/568
f 557/557 568/568 558/558
f 328/328 327/327 569/569
f 328/328 569/569 566/566
f 327/327 293/293 570/570
f 327/327 570/570 569/569
f 569/569 570/570 571/571
f 569/569 571/571 572/572
f 566/566 569/569 572/572
f 566/566 572/572 567/567
f 567/567 572/572 573/573
f 567/567 573/573 574/574
f 572/572 571/571 575/575
f 572/572 575/575 573/573
f 573/573 575/575 514/514
f 573/573 514/514 512/512
f 574/574 573/573 512/512
f 574/574 512/512 508/508
f 558/558 568/568 576/576
f 558/558 576/576 562/562
f 568/568 567/567 574/574
f 568/568 574/574 576/576
f 576/576 574/574 508/508
f 576/576 508/508 506/506
f 562/562 576/576 506/506
f 562/562 506/506 497/497
f 293/293 292/292 577/577
f 293/293 577/577 570/570
f 292/292 288/288 578/578
f 292/292 578/578 577/577
f 577/577 578/578 579/579
f 577/577 579/579 580/580
f 570/570 577/577 580/580
f 570/570 580/580 571/571
f 288/288 287/287 581/581
f 288/288 581/581 578/578
f 287/287 255/255 582/582
f 287/287 582/582 581/581
f 581/581 582/582 583/583
f 581/581 583/583 584/584
f 578/578 581/581 584/584
f 578/578 584/584 579/579
f 579/579 584/584 585/585
f 579/579 585/585 586/586
f 584/584 583/583 587/587
f 584/584 587/587 585/585
f 585/585 587/587 530/530
f 585/585 530/530 528/528
f 586/586 585/585 528/528
f 586/586 528/528 524/524
f 571/571 580/580 588/588
f 571/571 588/588 575/575
f 580/580 579/579 586/586
f 580/580 586/586 588/588
f 588/588 586/586 524/524
f 588/588 524/524 522/522
f 575/575 588/588 522/522
f 575/575 522/522 514/514
f 255/255 258/258 589/589
f 255/255 589/589 582/582
f 258/258 263/263 590/590
f 258/258 590/590 589/589
f 589/589 590/590 591/591
f 589/589 591/591 592/592
f 582/582 589/589 592/592
f 582/582 592/592 583/583
f 263/263 277/277 593/593
f 263/263 593/593 590/590
f 277/277 279/279 551/551
f 277/277 551/551 593/593
f 593/593 551/551 555/555
f 593/593 555/555 594/594
f 590/590 593/593 594/594
f 590/590 594/594 591/591
f 591/591 594/594 595/595
f 591/591 595/595 596/596
f 594/594 555/555 564/564
f 594/594 564/564 595/595
f 595/595 564/564 486/486
f 595/595 486/486 544/544
f 596/596 595/595 544/544
f 596/596 544/544 540/540
f 583/583 592/592 597/597
f 583/583 597/597 587/587
f 592/592 591/591 596/596
f 592/592 596/596 597/597
f 597/597 596/596 540/540
f 597/597 540/540 538/538
f 587/587 597/597 538/538
f 587/587 538/538 530/530

