# https://github.com/mikedh/trimesh
v -0.00047598 -2.99430723 0.49316858
v 0.02971803 -2.99430723 0.49316858
v -0.00047598 -2.99430723 0.64553773
v -0.00047598 -2.76006487 0.49316858
v 0.08922677 -2.98462046 0.49316858
v 0.02971803 -2.99430723 0.64553773
v -0.00047598 -2.98755588 0.70487142
v -0.00047598 0.00446448 0.54057168
v 2.76008291 0.00446448 0.49316858
v 0.08922677 -2.98462046 0.64553773
v 0.26716659 -2.95497333 0.49316858
v 0.02971803 -2.98755588 0.70487142
v 0.18508564 -2.96730183 0.68513223
v 0.08922677 -2.97933700 0.70487142
v -0.00047598 -2.97346617 0.74019879
v -0.00047598 0.00446448 0.78969189
v 2.99401373 0.00446448 0.49316858
v 0.26716659 -2.95497333 0.64553773
v 0.76727422 -2.87160890 0.49316858
v 0.12968095 -2.96788884 0.73598967
v 0.08922677 -2.97023725 0.73810874
v 0.02971803 -2.97346617 0.74019879
v 0.14902866 -2.97053075 0.70490047
v 0.89684492 -2.84871294 0.68513223
v 0.86108110 -2.85194186 0.70490047
v -0.00047598 -2.93648049 0.75331953
v 0.02971803 0.00446448 0.78969189
v -0.00047598 -0.05982010 0.78969189
v 0.02971803 -0.02987937 0.78972092
v 2.99401373 0.00446448 0.64553773
v 2.99430688 -0.02987937 0.49316858
v 1.03843453 -2.82640417 0.64553773
v 1.03843453 -2.82640417 0.49316858
v 0.16925575 -2.96348590 0.72469770
v 0.48556059 -2.90859458 0.73598967
v 1.15715885 -2.79235392 0.73810874
v 0.08922677 -2.93648049 0.75001034
v 0.02971803 -2.93648049 0.75331953
v 1.15715885 -2.80644380 0.64553773
v 1.15715885 -2.80145349 0.70487142
v 1.18999123 -2.78971218 0.73598967
v 0.88101503 -2.84460350 0.72469770
v 0.84144023 -2.84900645 0.73598967
v -0.00047598 -2.90742037 0.75935741
v 0.08922677 0.00446448 0.78966285
v -0.00047598 -0.59376350 0.78922745
v 0.38589083 -0.50452833 0.78899521
v 0.86049479 -0.02987937 0.78899521
v 0.36068024 0.00446448 0.78943065
v 0.12323177 0.00446448 0.78963384
v 0.02971803 -0.86029482 0.78899521
v 0.08922677 -0.80100046 0.78899521
v 2.99137571 0.00446448 0.67073422
v 2.99401373 -0.02987937 0.64553773
v 2.99430688 -0.02987937 0.58623308
v 2.98463285 -0.08917372 0.49316858
v 1.15715885 -2.80644380 0.49316858
v 1.15715885 -2.75859716 0.74957490
v 1.09765011 -2.75859716 0.75323245
v 0.80098606 -2.81789161 0.74995226
v 0.38589083 -2.87718605 0.75329049
v 0.32638218 -2.87718605 0.75581597
v 0.26716659 -2.87718605 0.75828337
v 0.20765786 -2.87718605 0.76063464
v 0.14844236 -2.87718605 0.76257956
v 0.08922677 -2.87718605 0.76414707
v 0.02971803 -2.87718605 0.76556944
v 1.20054455 -2.79499565 0.64553773
v 1.19614735 -2.79264742 0.70487142
v 1.21256354 -2.75742296 0.74228879
v 1.30314575 -2.72718864 0.73000988
v 1.48782790 -2.61270937 0.73657024
v 1.37496663 -2.67493923 0.73816679
v 1.33509867 -2.68726773 0.74188242
v -0.00047598 -2.87718605 0.76559847
v -0.00047598 -0.89052914 0.78896622
v 0.86049479 -0.44523389 0.78861785
v 0.26716659 -1.03847165 0.78861785
v 1.03843453 -0.02987937 0.78882105
v 1.01322402 0.00446448 0.78885010
v 0.95371528 0.00446448 0.78890813
v 0.65734438 0.00446448 0.78916936
v 1.03843453 -0.26705705 0.78861785
v 0.02971803 -0.97917721 0.78887914
v 2.98756437 0.00446448 0.70487142
v 2.98756437 -0.02987937 0.70487142
v 2.97935645 -0.08917372 0.70487142
v 2.96733755 -0.18486674 0.68513223
v 2.98463285 -0.08917372 0.64553773
v 2.83630117 -0.97917721 0.49316858
v 1.20054455 -2.79499565 0.49316858
v 1.21637444 -2.69930272 0.75790601
v 1.15715885 -2.69930272 0.76316012
v 1.03843453 -2.75859716 0.75575793
v 0.68255497 -2.81789161 0.75578692
v 0.97892588 -2.75859716 0.75819629
v 0.56383065 -2.81789161 0.76057660
v 0.86049479 -2.75859716 0.76246340
v 0.80098606 -2.75859716 0.76403096
v 1.09765011 -2.69930272 0.76542428
v 0.32638218 -2.81789161 0.76696280
v 0.26716659 -2.81789161 0.76838519
v 0.20765786 -2.81789161 0.76972046
v 0.14844236 -2.81789161 0.77062035
v 0.08922677 -2.81789161 0.77117186
v 0.02971803 -2.81789161 0.77160731
v 1.23015225 -2.77973191 0.64553773
v 1.30900871 -2.73100475 0.69047342
v 1.33509867 -2.64000846 0.75540956
v 1.89618079 -2.37142216 0.73000988
v 2.08086286 -2.25694289 0.73657024
v 1.45382291 -2.58071384 0.75230353
v 1.92813372 -2.33120774 0.74185339
v -0.00047598 -2.81789161 0.77160731
v -0.00047598 -1.06841247 0.78879200
v 1.03843453 -0.44523389 0.78844369
v 0.38589083 -0.97917721 0.78855982
v 0.68255497 -0.97917721 0.78826949
v 0.02971803 -1.09776610 0.78876297
v 0.08922677 -1.09776610 0.78870492
v 0.38589083 -1.03847165 0.78850173
v 1.09765011 -0.02987937 0.78876297
v 1.07243952 0.00446448 0.78879200
v 2.97349340 0.00446448 0.74019879
v 2.97349340 -0.02987937 0.74019879
v 2.97026872 -0.08917372 0.73810874
v 2.96792386 -0.12968183 0.73598967
v 2.97056223 -0.14905527 0.70490047
v 2.90812179 -0.54092682 0.68513223
v 2.83630117 -0.97917721 0.64553773
v 2.81226301 -1.12330379 0.49316858
v 1.23015225 -2.77973191 0.49316858
v 1.39431426 -2.58071384 0.76011212
v 1.27559002 -2.64000846 0.76211508
v 2.10607363 -2.16535940 0.75773184
v 0.91971038 -2.75859716 0.76051851
v 1.21637444 -2.64000846 0.76725308
v 1.15715885 -2.64000846 0.77027199
v 0.97892588 -2.69930272 0.76824004
v 0.62304624 -2.75859716 0.76832712
v 0.91971038 -2.69930272 0.76957536
v 0.86049479 -2.69930272 0.77050423
v 0.80098606 -2.69930272 0.77105580
v 0.02971803 -2.69930272 0.77651307
v -0.00047598 -2.72953704 0.77526487
v 1.24979312 -2.76828393 0.49316858
v 1.29083360 -2.74421377 0.49316858
v 1.27559002 -2.75302002 0.64553773
v 1.31076754 -2.73217895 0.64553773
v 1.45382291 -2.64646612 0.64553773
v 1.90204367 -2.37523827 0.69047342
v 2.04656471 -2.22465385 0.75227449
v 1.92813372 -2.28394829 0.75532249
v 2.08731222 -2.26075882 0.70487142
v 2.19196539 -2.19207130 0.72800692
v 2.15239068 -2.20293209 0.73900863
v 2.10284895 -2.22347964 0.74260813
v -0.00047598 -1.09776610 0.78876297
v 0.86049479 -0.97917721 0.78809532
v 1.03843453 -0.68241157 0.78821145
v 0.68255497 -1.03847165 0.78821145
v 0.02971803 -1.15706054 0.78861785
v 0.56383065 -1.09776610 0.78821145
v 1.09765011 -0.08917372 0.78870492
v 1.15715885 -0.02987937 0.78861785
v 1.09765011 0.00446448 0.78876297
v 2.93655706 0.00446448 0.75331953
v 2.93655706 -0.02987937 0.75331953
v 2.93655706 -0.08917372 0.75003934
v 2.91105331 -0.44523389 0.73810874
v 2.84919953 -0.84150847 0.73598967
v 2.84480224 -0.88113597 0.72469770
v 2.85183791 -0.86088201 0.70490047
v 2.84861323 -0.89698698 0.68513223
v 2.80640014 -1.15706054 0.64553773
v 2.80640014 -1.15706054 0.49316858
v 1.45382291 -2.52141957 0.76400192
v 1.98734930 -2.22465385 0.75999600
v 1.33509867 -2.58071384 0.76577264
v 2.16939317 -2.16946884 0.74504650
v 2.16528904 -2.10606496 0.75776085
v 2.10607363 -2.10606496 0.76649836
v 2.04656471 -2.16535940 0.76388580
v 1.92813372 -2.22465385 0.76565652
v 1.80940940 -2.28394829 0.76710796
v 1.98734930 -2.16535940 0.76829807
v 1.39431426 -2.52141957 0.76841424
v 1.27559002 -2.58071384 0.76937215
v 1.09765011 -2.64000846 0.77137511
v 2.04656471 -2.10606496 0.77009782
v 1.92813372 -2.16535940 0.77085260
v 1.33509867 -2.52141957 0.77093966
v 1.21637444 -2.58071384 0.77140410
v 1.15715885 -2.58071384 0.77262331
v 1.03843453 -2.64000846 0.77181051
v 0.02971803 -2.64000846 0.77895146
v -0.00047598 -2.69930272 0.77651307
v 1.45382291 -2.64646612 0.49316858
v 2.12131721 -2.24578842 0.64553773
v 2.19694881 -2.19676775 0.68847048
v 2.26085466 -2.08727862 0.70487142
v 2.37137106 -1.89618609 0.73000988
v 2.25675070 -2.08082077 0.73657024
v 2.20310501 -2.15244372 0.73900863
v -0.00047598 -1.15706054 0.78861785
v 0.97892588 -0.97917721 0.78797926
v 1.03843453 -0.97917721 0.78789218
v 1.09765011 -0.56382269 0.78821145
v 0.97892588 -1.03847165 0.78789218
v 0.20765786 -1.21635498 0.78824050
v 0.26716659 -1.15706054 0.78835662
v 0.02971803 -1.33494387 0.78806633
v 0.97892588 -1.09776610 0.78774701
v 0.62304624 -1.21635498 0.78777600
v 1.15715885 -0.26705705 0.78835662
v 1.21637444 -0.20776261 0.78824050
v 1.33509867 -0.02987937 0.78806633
v 1.15715885 0.00446448 0.78861785
v 2.87734147 0.00446448 0.76559847
v 2.87734147 -0.02987937 0.76559847
v 2.87734147 -0.08917372 0.76414707
v 2.87734147 -0.14846817 0.76260855
v 2.87734147 -0.20776261 0.76066369
v 2.87734147 -0.26705705 0.75834141
v 2.87734147 -0.32635150 0.75587400
v 2.87734147 -0.38564594 0.75334857
v 2.87734147 -0.44523389 0.75003934
v 2.79232899 -1.15706054 0.73810874
v 2.78969079 -1.19023019 0.73598967
v 2.80141672 -1.15706054 0.70487142
v 2.79262214 -1.19610093 0.70487142
v 2.79496736 -1.20050397 0.64553773
v 2.79496736 -1.20050397 0.49316858
v 2.22362516 -2.10283604 0.74260813
v 2.58067742 -1.39423822 0.76017021
v 2.40273768 -1.69071035 0.76011212
v 2.22450462 -1.98747607 0.76005409
v 2.16528904 -2.04677052 0.76391483
v 2.22450462 -2.04677052 0.75230353
v 2.28401336 -1.92788812 0.75535153
v 2.46195309 -1.63141591 0.75540956
v 2.69940174 -1.21635498 0.75790601
v 2.16528904 -1.98747607 0.76832712
v 2.10607363 -2.04677052 0.77012687
v 1.86862498 -2.22465385 0.76925604
v 1.09765011 -2.58071384 0.77361027
v 1.03843453 -2.46183144 0.77877731
v 1.03843453 -2.52141957 0.77651307
v 1.98734930 -2.10606496 0.77163634
v 2.04656471 -2.04677052 0.77221691
v 1.15715885 -2.40253718 0.77863214
v 1.15715885 -2.52141957 0.77462622
v 1.09765011 -2.46183144 0.77784839
v 1.09765011 -2.52141957 0.77578738
v 0.97892588 -2.46183144 0.77929978
v 0.32638218 -2.58071384 0.77921269
v 0.26716659 -2.58071384 0.77961910
v 0.20765786 -2.58071384 0.77996741
v 0.08922677 -2.58071384 0.78051897
v 0.02971803 -2.58071384 0.78078022
v -0.00047598 -2.58071384 0.78080926
v -0.00047598 -2.61065465 0.77988034
v -0.00047598 -2.64000846 0.77895146
v 2.12131721 -2.24578842 0.49316858
v 2.16528904 -2.21878301 0.64553773
v 2.19782827 -2.19764845 0.64553773
v 2.21864175 -2.16535940 0.64553773
v 2.24561108 -2.12132887 0.64553773
v 2.37518187 -1.90176324 0.69047342
v 2.72725053 -1.30324184 0.73000988
v 2.43498376 -1.78434856 0.73657024
v 2.33120987 -1.92788812 0.74188242
v -0.00047598 -1.33494387 0.78806633
v 1.03843453 -1.03847165 0.78777600
v 1.09765011 -0.97917721 0.78774701
v 0.08922677 -1.45382626 0.78763090
v 0.38589083 -1.39423822 0.78748578
v -0.00047598 -1.48376690 0.78760185
v 0.02971803 -1.80929924 0.78658590
v 1.03843453 -1.09776610 0.78763090
v 0.50432200 -1.45382626 0.78716646
v 0.14844236 -1.86859368 0.78626658
v 0.74177047 -1.39423822 0.78707938
v 0.86049479 -1.57212146 0.78635366
v 0.97892588 -1.27564942 0.78716646
v 1.39431426 -0.38564594 0.78748578
v 1.45382291 -0.08917372 0.78763090
v 1.21637444 -0.62311713 0.78777600
v 1.80940940 -0.02987937 0.78658590
v 1.33509867 0.00446448 0.78806633
v 2.85213106 0.00446448 0.76815296
v 2.81783291 -0.02987937 0.77160731
v 2.81783291 -0.08917372 0.77120091
v 2.81783291 -0.14846817 0.77067839
v 2.81783291 -0.20776261 0.76974951
v 2.81783291 -0.26705705 0.76844323
v 2.81783291 -0.32635150 0.76702088
v 2.81783291 -0.44523389 0.76414707
v 2.75861715 -0.80100046 0.76408900
v 2.75861715 -0.86029482 0.76252147
v 2.75861715 -0.91958926 0.76057660
v 2.75861715 -0.97917721 0.75822533
v 2.75861715 -1.03847165 0.75578692
v 2.75861715 -1.09776610 0.75323245
v 2.81783291 -0.80100046 0.74998130
v 2.75861715 -1.15706054 0.74957490
v 2.75744472 -1.21253905 0.74228879
v 2.67507043 -1.37486487 0.73819583
v 2.61292349 -1.48787652 0.73657024
v 2.77972378 -1.23015119 0.64553773
v 2.73106151 -1.30881907 0.69047342
v 2.77972378 -1.23015119 0.49316858
v 2.58067742 -1.45382626 0.75239065
v 2.40273768 -1.75000479 0.75236162
v 2.46195309 -1.57212146 0.76211508
v 2.63989300 -1.27564942 0.76214411
v 2.52116886 -1.45382626 0.76406000
v 2.40273768 -1.63141591 0.76574359
v 2.22450462 -1.92788812 0.76568555
v 2.63989300 -1.33494387 0.75543861
v 2.69940174 -1.15706054 0.76316012
v 2.28401336 -1.80929924 0.76713695
v 2.46195309 -1.51282720 0.76722404
v 2.52116886 -1.39423822 0.76844323
v 2.58067742 -1.27564942 0.76940120
v 2.40273768 -1.57212146 0.76934312
v 2.28401336 -1.75000479 0.77021395
v 2.16528904 -1.92788812 0.77088164
v 2.10607363 -1.98747607 0.77166535
v 1.09765011 -2.40253718 0.77970618
v 1.03843453 -2.40253718 0.78043190
v 1.33509867 -2.28394829 0.77892242
v 1.98734930 -2.04677052 0.77355218
v 1.92813372 -2.04677052 0.77474239
v 2.04656471 -1.98747607 0.77358123
v 1.98734930 -1.98747607 0.77532295
v 0.91971038 -2.46183144 0.77964814
v 0.97892588 -2.40253718 0.78083829
v 0.50432200 -2.52141957 0.78008354
v 0.38589083 -2.52141957 0.78063510
v 0.26716659 -2.52141957 0.78115762
v 0.20765786 -2.52141957 0.78133178
v 0.02971803 -2.52141957 0.78165110
v -0.00047598 -2.52141957 0.78165110
v 2.16528904 -2.21878301 0.49316858
v 2.17936001 -2.20968344 0.49316858
v 2.19782827 -2.19764845 0.49316858
v 2.21864175 -2.16535940 0.49316858
v 2.23417848 -2.14011522 0.49316858
v 2.24561108 -2.12132887 0.49316858
v 2.26349303 -2.09168156 0.64553773
v 2.29046254 -2.04677052 0.64553773
v 2.35847253 -1.93346527 0.64553773
v 2.68708969 -1.33494387 0.74188242
v 1.09765011 -1.03847165 0.78763090
v 1.27559002 -0.97917721 0.78716646
v 1.33509867 -0.91958926 0.78705034
v 1.39431426 -0.74170602 0.78707938
v 1.63146966 -0.44523389 0.78667297
v 1.86862498 -0.14846817 0.78626658
v 1.45382291 -0.50452833 0.78716646
v -0.00047598 -1.78023912 0.78667297
v -0.00047598 -1.92788812 0.78620849
v 0.02971803 -1.92788812 0.78620849
v 1.15715885 -1.03847165 0.78742770
v 0.97892588 -1.57212146 0.78617950
v 1.03843453 -1.45382626 0.78641170
v 0.08922677 -1.98747607 0.78594726
v 0.20765786 -1.92788812 0.78600534
v 0.68255497 -1.63141591 0.78638269
v 0.80098606 -1.80929924 0.78565698
v 0.86049479 -1.75000479 0.78577310
v 0.91971038 -1.86859368 0.78530862
v 1.92813372 -0.02987937 0.78620849
v 1.92813372 0.00446448 0.78620849
v 1.72469024 0.00446448 0.78684714
v 2.81783291 0.00446448 0.77160731
v 2.63989300 -0.02987937 0.77898045
v 2.79262214 0.00446448 0.77265231
v 2.69940174 -0.08917372 0.77610667
v 2.69940174 -0.44523389 0.77361027
v 2.69940174 -0.80100046 0.77111383
v 2.75861715 -0.50452833 0.77062035
v 2.75861715 -0.56382269 0.76969143
v 2.69940174 -0.91958926 0.76963340
v 2.69940174 -0.97917721 0.76829807
v 2.69940174 -1.03847165 0.76687572
v 2.69940174 -1.09776610 0.76542428
v 2.75304760 -1.27564942 0.64553773
v 2.76829118 -1.24981814 0.49316858
v 2.64634218 -1.45382626 0.64553773
v 2.68474446 -1.38983519 0.64553773
v 2.73223412 -1.31058029 0.64553773
v 2.63989300 -1.21635498 0.76725308
v 2.58067742 -1.33494387 0.76580168
v 2.63989300 -1.15706054 0.77027199
v 2.46195309 -1.45382626 0.77027199
v 2.52116886 -1.33494387 0.77099771
v 2.22450462 -1.80929924 0.77134607
v 1.98734930 -1.86859368 0.77787742
v 1.98734930 -1.92788812 0.77668727
v 2.16528904 -1.80929924 0.77331999
v 2.16528904 -1.69071035 0.77570031
v 2.10607363 -1.69071035 0.77761615
v 1.27559002 -2.28394829 0.77990937
v 1.15715885 -2.34324256 0.78022870
v 1.80940940 -1.98747607 0.77898045
v 1.86862498 -1.92788812 0.77959005
v 1.09765011 -2.34324256 0.78083829
v 1.86862498 -1.98747607 0.77784839
v 1.92813372 -1.98747607 0.77665823
v 1.92813372 -1.92788812 0.77842895
v 0.91971038 -2.40253718 0.78101246
v 0.56383065 -2.46183144 0.78118662
v 1.03843453 -2.34324256 0.78121565
v 0.97892588 -2.34324256 0.78141886
v 0.02971803 -2.28394829 0.78371210
v 0.02971803 -2.46183144 0.78217358
v -0.00047598 -2.43277150 0.78243481
v -0.00047598 -2.49206576 0.78191233
v 2.26349303 -2.09168156 0.49316858
v 2.29046254 -2.04677052 0.49316858
v 2.35847253 -1.93346527 0.49316858
v 1.57196092 -0.97917721 0.78617950
v 1.86862498 -0.91958926 0.78530862
v 1.80940940 -0.80100046 0.78565698
v 1.63146966 -0.68241157 0.78638269
v 1.92813372 -0.20776261 0.78600534
v -0.00047598 -1.98747607 0.78600534
v 0.02971803 -1.98747607 0.78600534
v 1.45382291 -1.03847165 0.78641170
v 1.63146966 -0.97917721 0.78597630
v 1.15715885 -1.45382626 0.78600534
v 0.97892588 -1.80929924 0.78536669
v 1.03843453 -1.80929924 0.78519254
v 0.20765786 -1.98747607 0.78577310
v 0.02971803 -2.04677052 0.78571502
v 0.62304624 -1.92788812 0.78545377
v 0.80098606 -1.92788812 0.78516350
v 0.91971038 -1.92788812 0.78496030
v 0.97892588 -1.86859368 0.78513445
v 1.98734930 -0.08917372 0.78594726
v 1.98734930 -0.02987937 0.78600534
v 1.96213871 0.00446448 0.78609242
v 2.58067742 -0.02987937 0.78080926
v 2.58067742 -0.20776261 0.78002550
v 2.58067742 -0.26705705 0.77967719
v 2.58067742 -0.38564594 0.77886439
v 2.63989300 -0.20776261 0.77773227
v 2.67419115 0.00446448 0.77755810
v 2.63989300 0.00446448 0.77895146
v 2.58067742 0.00446448 0.78080926
v 2.63989300 -1.03847165 0.77183955
v 2.63989300 -1.09776610 0.77137511
v 2.69940174 -0.86029482 0.77056232
v 2.63989300 -0.44523389 0.77604863
v 2.75304760 -1.27564942 0.49316858
v 2.74395987 -1.29091334 0.49316858
v 2.64634218 -1.45382626 0.49316858
v 2.68474446 -1.38983519 0.49316858
v 2.73223412 -1.31058029 0.49316858
v 2.58067742 -1.15706054 0.77265231
v 2.58067742 -1.21635498 0.77143315
v 2.34322895 -1.51282720 0.77340706
v 2.40273768 -1.21635498 0.77747103
v 2.28401336 -1.57212146 0.77419083
v 2.28401336 -1.45382626 0.77660015
v 1.92813372 -1.86859368 0.77959005
v 2.04656471 -1.75000479 0.77834186
v 1.98734930 -1.80929924 0.77900950
v 2.28401336 -1.33494387 0.77898045
v 1.74990066 -1.98747607 0.77990937
v 1.33509867 -2.22465385 0.78037382
v 1.80940940 -1.92788812 0.78028673
v 1.86862498 -1.86859368 0.78057706
v 1.15715885 -2.28394829 0.78107055
v 1.39431426 -2.16535940 0.78069314
v 1.27559002 -2.22465385 0.78089633
v 0.86049479 -2.40253718 0.78112858
v 0.74177047 -2.40253718 0.78136077
v 0.02971803 -2.16535940 0.78472806
v 1.03843453 -2.28394829 0.78170914
v 0.97892588 -2.28394829 0.78191233
v 0.14844236 -2.04677052 0.78551186
v -0.00047598 -2.13600560 0.78498933
v -0.00047598 -2.40253718 0.78269610
v 1.80940940 -0.97917721 0.78536669
v 1.86862498 -0.97917721 0.78513445
v 1.92813372 -0.91958926 0.78496030
v 1.92813372 -0.86029482 0.78507642
v 1.92813372 -0.62311713 0.78545377
v 1.92813372 -0.50452833 0.78562794
v -0.00047598 -2.01741689 0.78586018
v 1.80940940 -1.03847165 0.78519254
v 1.33509867 -1.45382626 0.78539574
v 1.03843453 -1.86859368 0.78487322
v 1.15715885 -1.80929924 0.78467001
v 1.39431426 -1.69071035 0.78423458
v 1.15715885 -1.75000479 0.78496030
v 1.45382291 -1.45382626 0.78496030
v 1.39431426 -1.45382626 0.78519254
v -0.00047598 -2.04677052 0.78571502
v 0.97892588 -1.98747607 0.78429265
v 0.97892588 -1.92788812 0.78475709
v 0.20765786 -2.04677052 0.78539574
v 0.97892588 -2.04677052 0.78382817
v 2.04656471 -0.02987937 0.78571502
v 1.98734930 -0.26705705 0.78568601
v 1.98734930 0.00446448 0.78600534
v 2.52116886 -0.02987937 0.78165110
v 2.52116886 -0.08917372 0.78156402
v 2.52116886 -0.20776261 0.78133178
v 2.52116886 -0.26705705 0.78115762
v 2.52116886 -0.32635150 0.78092538
v 2.46195309 -0.74170602 0.78048994
v 2.46195309 -0.91958926 0.77967719
v 2.46195309 -0.97917721 0.77932882
v 2.58067742 -0.97917721 0.77462622
v 2.52116886 0.00446448 0.78165110
v 2.58067742 -1.03847165 0.77419083
v 2.52116886 -1.03847165 0.77654211
v 2.46195309 -1.03847165 0.77880630
v 2.58067742 -1.09776610 0.77361027
v 2.46195309 -1.27564942 0.77424891
v 2.52116886 -1.09776610 0.77578738
v 2.46195309 -1.09776610 0.77787742
v 2.40273768 -1.15706054 0.77866119
v 1.98734930 -1.75000479 0.77993842
v 1.92813372 -1.80929924 0.78031578
v 2.40273768 -1.09776610 0.77973522
v 2.28401336 -1.27564942 0.77993842
v 2.10607363 -1.63141591 0.77877731
v 1.63146966 -2.04677052 0.78019966
v 1.51274534 -2.10606496 0.78046090
v 1.69068525 -1.98747607 0.78051897
v 1.80940940 -1.86859368 0.78089633
v 1.74990066 -1.92788812 0.78078022
v 1.57196092 -2.04677052 0.78075121
v 1.92813372 -1.75000479 0.78080926
v 1.86862498 -1.80929924 0.78092538
v 1.80940940 -1.80929924 0.78130274
v 1.45382291 -2.10606496 0.78092538
v 1.03843453 -2.22465385 0.78217358
v 1.86862498 -1.03847165 0.78490225
v 1.92813372 -0.97917721 0.78478614
v 1.98734930 -0.91958926 0.78449586
v 1.98734930 -0.56382269 0.78519254
v 2.04656471 -0.08917372 0.78562794
v 1.69068525 -1.33494387 0.78449586
v 1.03843453 -1.92788812 0.78446682
v 1.09765011 -1.86859368 0.78458294
v 1.21637444 -1.80929924 0.78437973
v 1.45382291 -1.69071035 0.78394430
v 1.51274534 -1.63141591 0.78400238
v 1.39431426 -1.63141591 0.78449586
v 1.45382291 -1.57212146 0.78449586
v 2.10607363 -0.02987937 0.78525058
v 2.04656471 0.00446448 0.78571502
v 2.40273768 -0.02987937 0.78269610
v 2.49595809 0.00446448 0.78188330
v 2.46195309 -0.44523389 0.78141886
v 2.46195309 -0.56382269 0.78118662
v 2.46195309 -0.62311713 0.78101246
v 2.40273768 -0.97917721 0.78083829
v 2.40273768 -1.03847165 0.78043190
v 2.22450462 -1.33494387 0.78040286
v 2.04656471 -1.63141591 0.78022870
v 2.34322895 -1.15706054 0.78025774
v 2.10607363 -1.51282720 0.78048994
v 2.04656471 -1.57212146 0.78078022
v 1.74990066 -1.80929924 0.78162206
v 1.86862498 -1.75000479 0.78124470
v 2.10607363 -1.45382626 0.78095438
v 2.28401336 -1.09776610 0.78141886
v 1.98734930 -1.57212146 0.78127370
v 1.92813372 -1.45382626 0.78234774
v 1.80940940 -1.75000479 0.78165110
v 1.69068525 -1.69071035 0.78272514
v 1.63146966 -1.69071035 0.78304446
v 1.69068525 -1.39423822 0.78423458
v 1.80940940 -1.21635498 0.78440874
v 1.86862498 -1.15706054 0.78432166
v 1.92813372 -1.03847165 0.78449586
v 2.28401336 -1.03847165 0.78170914
v 2.10607363 -0.97917721 0.78336373
v 2.22450462 -0.97917721 0.78240582
v 2.28401336 -0.97917721 0.78191233
v 2.10607363 -0.91958926 0.78350890
v 2.10607363 -0.44523389 0.78443777
v 1.63146966 -1.51282720 0.78400238
v 1.63146966 -1.63141591 0.78342178
v 1.63146966 -1.57212146 0.78374109
v 2.31801835 0.00446448 0.78342178
v 2.19958718 0.00446448 0.78443777
v 2.16528904 0.00446448 0.78472806
v 2.10607363 0.00446448 0.78522154
v 2.40273768 -0.86029482 0.78115762
v 2.28401336 -0.50452833 0.78284122
v 2.40273768 -0.56382269 0.78170914
v 2.40273768 -0.91958926 0.78104150
v 2.34322895 -0.97917721 0.78141886
v 2.34322895 -1.03847165 0.78121565
v 2.34322895 -1.09776610 0.78086730
v 2.28401336 -1.21635498 0.78063510
v 2.16528904 -1.39423822 0.78072218
v 2.22450462 -1.27564942 0.78092538
v 1.86862498 -1.45382626 0.78278318
v 2.28401336 -1.15706054 0.78109954
v 2.22450462 -1.09776610 0.78188330
v 1.98734930 -1.27564942 0.78281222
v 1.92813372 -1.15706054 0.78388626
v 1.80940940 -1.45382626 0.78318958
v 1.69068525 -1.63141591 0.78307346
v 1.69068525 -1.51282720 0.78368305
f 1 2 6
f 1 6 3
f 1 3 7
f 1 7 15
f 1 15 26
f 1 26 44
f 1 44 75
f 1 75 114
f 1 114 145
f 1 145 197
f 1 197 263
f 1 263 262
f 1 262 261
f 1 261 344
f 1 344 420
f 1 420 419
f 1 419 486
f 1 486 485
f 1 485 502
f 1 502 493
f 1 493 429
f 1 429 363
f 1 363 362
f 1 362 278
f 1 278 273
f 1 273 205
f 1 205 158
f 1 158 115
f 1 115 76
f 1 76 46
f 1 46 28
f 1 28 16
f 1 16 8
f 1 8 4
f 1 4 9
f 1 9 17
f 1 17 31
f 1 31 56
f 1 56 90
f 1 90 131
f 1 131 176
f 1 176 233
f 1 233 312
f 1 312 390
f 1 390 457
f 1 457 458
f 1 458 461
f 1 461 460
f 1 460 459
f 1 459 423
f 1 423 422
f 1 422 421
f 1 421 350
f 1 350 349
f 1 349 348
f 1 348 347
f 1 347 346
f 1 346 345
f 1 345 264
f 1 264 198
f 1 198 147
f 1 147 146
f 1 146 132
f 1 132 91
f 1 91 57
f 1 57 33
f 1 33 19
f 1 19 11
f 1 11 5
f 1 5 2
f 2 5 10
f 2 10 6
f 3 6 12
f 3 12 7
f 4 8 9
f 5 11 18
f 5 18 10
f 6 10 13
f 6 13 14
f 6 14 12
f 7 12 22
f 7 22 15
f 8 16 27
f 8 27 45
f 8 45 50
f 8 50 49
f 8 49 82
f 8 82 81
f 8 81 80
f 8 80 123
f 8 123 166
f 8 166 218
f 8 218 290
f 8 290 376
f 8 376 375
f 8 375 444
f 8 444 509
f 8 509 558
f 8 558 596
f 8 596 595
f 8 595 594
f 8 594 593
f 8 593 560
f 8 560 519
f 8 519 452
f 8 452 451
f 8 451 450
f 8 450 379
f 8 379 377
f 8 377 291
f 8 291 219
f 8 219 167
f 8 167 124
f 8 124 85
f 8 85 53
f 8 53 30
f 8 30 17
f 8 17 9
f 10 18 24
f 10 24 13
f 11 19 18
f 12 14 20
f 12 20 21
f 12 21 22
f 13 23 14
f 13 24 25
f 13 25 23
f 14 23 20
f 15 22 38
f 15 38 26
f 16 28 29
f 16 29 27
f 17 30 55
f 17 55 31
f 18 19 32
f 18 32 24
f 19 33 32
f 20 23 34
f 20 34 35
f 20 35 36
f 20 36 21
f 21 37 38
f 21 38 22
f 21 36 37
f 23 25 34
f 24 32 39
f 24 39 40
f 24 40 25
f 25 40 41
f 25 41 42
f 25 42 43
f 25 43 35
f 25 35 34
f 26 38 44
f 27 29 45
f 28 46 29
f 29 47 48
f 29 48 49
f 29 49 50
f 29 50 45
f 29 46 51
f 29 51 52
f 29 52 47
f 30 53 54
f 30 54 55
f 31 55 89
f 31 89 56
f 32 33 57
f 32 57 39
f 35 43 36
f 36 41 58
f 36 58 59
f 36 59 60
f 36 60 37
f 36 43 41
f 37 61 38
f 37 60 59
f 37 59 61
f 38 61 95
f 38 95 62
f 38 62 63
f 38 63 64
f 38 64 65
f 38 65 66
f 38 66 67
f 38 67 44
f 39 57 91
f 39 91 68
f 39 68 69
f 39 69 40
f 40 69 41
f 41 70 58
f 41 43 42
f 41 69 71
f 41 71 72
f 41 72 73
f 41 73 74
f 41 74 70
f 44 67 75
f 46 76 51
f 47 77 48
f 47 52 78
f 47 78 77
f 48 79 80
f 48 80 81
f 48 81 82
f 48 82 49
f 48 77 83
f 48 83 79
f 51 76 84
f 51 84 78
f 51 78 52
f 53 85 86
f 53 86 54
f 54 86 87
f 54 87 88
f 54 88 89
f 54 89 55
f 56 89 130
f 56 130 90
f 58 70 92
f 58 92 93
f 58 93 59
f 59 94 95
f 59 95 61
f 59 93 94
f 62 95 63
f 63 95 94
f 63 94 96
f 63 96 64
f 64 96 97
f 64 97 65
f 65 97 98
f 65 98 66
f 66 98 99
f 66 99 100
f 66 100 101
f 66 101 102
f 66 102 67
f 67 102 103
f 67 103 104
f 67 104 105
f 67 105 106
f 67 106 75
f 68 91 132
f 68 132 107
f 68 107 69
f 69 107 108
f 69 108 71
f 70 74 109
f 70 109 92
f 71 108 151
f 71 151 110
f 71 110 111
f 71 111 72
f 72 74 73
f 72 111 74
f 74 112 109
f 74 111 113
f 74 113 112
f 75 106 114
f 76 115 119
f 76 119 84
f 77 116 83
f 77 78 117
f 77 117 118
f 77 118 159
f 77 159 116
f 78 84 119
f 78 119 120
f 78 120 121
f 78 121 117
f 79 122 123
f 79 123 80
f 79 83 122
f 83 116 122
f 85 124 125
f 85 125 86
f 86 125 126
f 86 126 127
f 86 127 87
f 87 127 128
f 87 128 88
f 88 128 129
f 88 129 89
f 89 129 130
f 90 130 131
f 92 133 134
f 92 134 93
f 92 109 135
f 92 135 133
f 93 100 136
f 93 136 96
f 93 96 94
f 93 134 137
f 93 137 138
f 93 138 100
f 96 136 97
f 97 136 98
f 98 136 100
f 98 100 99
f 100 139 140
f 100 140 102
f 100 102 101
f 100 138 139
f 102 140 103
f 103 140 141
f 103 141 142
f 103 142 104
f 104 142 105
f 105 142 143
f 105 143 106
f 106 143 144
f 106 144 145
f 106 145 114
f 107 132 146
f 107 146 147
f 107 147 148
f 107 148 108
f 108 148 149
f 108 149 150
f 108 150 151
f 109 112 152
f 109 152 153
f 109 153 135
f 110 151 154
f 110 154 155
f 110 155 111
f 111 155 156
f 111 156 157
f 111 157 113
f 112 113 152
f 113 157 152
f 115 158 119
f 116 159 206
f 116 206 160
f 116 160 164
f 116 164 122
f 117 121 161
f 117 161 118
f 118 161 159
f 119 158 205
f 119 205 162
f 119 162 120
f 120 163 161
f 120 161 121
f 120 162 163
f 122 164 165
f 122 165 218
f 122 218 166
f 122 166 123
f 124 167 168
f 124 168 125
f 125 168 126
f 126 169 227
f 126 227 170
f 126 170 127
f 126 168 169
f 127 170 228
f 127 228 171
f 127 171 172
f 127 172 128
f 128 172 173
f 128 173 129
f 129 173 174
f 129 174 130
f 130 174 175
f 130 175 131
f 131 175 176
f 133 177 134
f 133 135 178
f 133 178 177
f 134 177 179
f 134 179 137
f 135 153 152
f 135 152 157
f 135 157 180
f 135 180 181
f 135 181 182
f 135 182 183
f 135 183 178
f 137 179 184
f 137 184 185
f 137 185 186
f 137 186 187
f 137 187 188
f 137 188 138
f 138 189 141
f 138 141 139
f 138 188 190
f 138 190 191
f 138 191 192
f 138 192 193
f 138 193 194
f 138 194 189
f 139 141 140
f 141 189 142
f 142 189 143
f 143 189 195
f 143 195 196
f 143 196 144
f 144 196 263
f 144 263 197
f 144 197 145
f 147 149 148
f 147 198 150
f 147 150 149
f 150 198 264
f 150 264 199
f 150 199 151
f 151 199 200
f 151 200 154
f 154 200 155
f 155 200 201
f 155 201 202
f 155 202 203
f 155 203 204
f 155 204 156
f 156 204 180
f 156 180 157
f 159 161 206
f 160 206 207
f 160 207 208
f 160 208 164
f 161 209 206
f 161 163 209
f 162 210 211
f 162 211 163
f 162 205 273
f 162 273 212
f 162 212 210
f 163 213 209
f 163 211 210
f 163 210 214
f 163 214 213
f 164 208 165
f 165 215 216
f 165 216 217
f 165 217 290
f 165 290 218
f 165 208 215
f 167 219 220
f 167 220 168
f 168 220 221
f 168 221 222
f 168 222 223
f 168 223 224
f 168 224 225
f 168 225 226
f 168 226 169
f 169 226 227
f 170 227 228
f 171 228 229
f 171 229 172
f 172 229 230
f 172 230 173
f 173 230 174
f 174 230 175
f 175 230 231
f 175 231 232
f 175 232 233
f 175 233 176
f 177 178 183
f 177 183 184
f 177 184 179
f 180 204 234
f 180 234 181
f 181 235 236
f 181 236 237
f 181 237 238
f 181 238 182
f 181 234 239
f 181 239 240
f 181 240 241
f 181 241 242
f 181 242 235
f 182 190 186
f 182 186 183
f 182 238 243
f 182 243 244
f 182 244 190
f 183 186 184
f 184 186 185
f 186 190 245
f 186 245 188
f 186 188 187
f 188 245 190
f 189 194 246
f 189 246 247
f 189 247 248
f 189 248 195
f 190 249 191
f 190 244 250
f 190 250 249
f 191 249 251
f 191 251 252
f 191 252 194
f 191 194 193
f 191 193 192
f 194 252 253
f 194 253 254
f 194 254 246
f 195 248 255
f 195 255 256
f 195 256 196
f 196 256 257
f 196 257 258
f 196 258 259
f 196 259 260
f 196 260 261
f 196 261 262
f 196 262 263
f 199 264 345
f 199 345 265
f 199 265 200
f 200 265 266
f 200 266 267
f 200 267 268
f 200 268 269
f 200 269 201
f 201 269 202
f 202 269 311
f 202 311 270
f 202 270 309
f 202 309 271
f 202 271 203
f 203 234 204
f 203 271 272
f 203 272 234
f 206 209 207
f 207 209 274
f 207 274 355
f 207 355 275
f 207 275 208
f 208 275 288
f 208 288 216
f 208 216 215
f 209 213 280
f 209 280 274
f 210 212 276
f 210 276 277
f 210 277 214
f 212 273 278
f 212 278 279
f 212 279 276
f 213 214 281
f 213 281 282
f 213 282 283
f 213 283 370
f 213 370 284
f 213 284 372
f 213 372 373
f 213 373 285
f 213 285 280
f 214 277 281
f 216 286 287
f 216 287 217
f 216 288 286
f 217 287 289
f 217 289 290
f 219 291 220
f 220 292 293
f 220 293 294
f 220 294 295
f 220 295 296
f 220 296 297
f 220 297 298
f 220 298 221
f 220 291 292
f 221 298 222
f 222 298 299
f 222 299 300
f 222 300 301
f 222 301 223
f 223 301 224
f 224 301 302
f 224 302 303
f 224 303 225
f 225 303 226
f 226 303 304
f 226 304 227
f 227 304 305
f 227 305 228
f 228 305 304
f 228 304 306
f 228 306 229
f 229 231 230
f 229 306 307
f 229 307 308
f 229 308 309
f 229 309 270
f 229 270 231
f 231 310 232
f 231 270 311
f 231 311 310
f 232 310 312
f 232 312 233
f 234 272 313
f 234 313 314
f 234 314 239
f 235 315 236
f 235 242 316
f 235 316 315
f 236 315 237
f 237 315 238
f 238 315 317
f 238 317 318
f 238 318 319
f 238 319 243
f 239 314 240
f 240 314 313
f 240 313 241
f 241 313 320
f 241 320 242
f 242 307 306
f 242 306 321
f 242 321 316
f 242 320 307
f 243 319 322
f 243 322 323
f 243 323 324
f 243 324 325
f 243 325 326
f 243 326 244
f 244 326 327
f 244 327 328
f 244 328 329
f 244 329 250
f 246 254 247
f 247 255 248
f 247 254 253
f 247 253 330
f 247 330 331
f 247 331 255
f 249 332 251
f 249 250 333
f 249 333 411
f 249 411 334
f 249 334 332
f 250 329 335
f 250 335 336
f 250 336 411
f 250 411 333
f 251 332 330
f 251 330 253
f 251 253 252
f 255 337 257
f 255 257 256
f 255 331 338
f 255 338 337
f 257 337 258
f 258 339 340
f 258 340 259
f 258 337 339
f 259 340 341
f 259 341 260
f 260 341 342
f 260 342 343
f 260 343 261
f 261 343 344
f 265 345 346
f 265 346 266
f 266 346 347
f 266 347 348
f 266 348 267
f 267 348 349
f 267 349 268
f 268 350 421
f 268 421 351
f 268 351 269
f 268 349 350
f 269 352 353
f 269 353 311
f 269 351 352
f 271 309 354
f 271 354 272
f 272 354 313
f 274 280 355
f 275 355 356
f 275 356 357
f 275 357 358
f 275 358 428
f 275 428 359
f 275 359 360
f 275 360 361
f 275 361 288
f 276 279 277
f 277 279 281
f 278 362 279
f 279 362 363
f 279 363 364
f 279 364 282
f 279 282 281
f 280 365 355
f 280 285 366
f 280 366 367
f 280 367 365
f 282 364 368
f 282 368 369
f 282 369 283
f 283 369 370
f 284 370 371
f 284 371 372
f 285 373 366
f 286 361 289
f 286 289 287
f 286 288 361
f 289 360 374
f 289 374 375
f 289 375 376
f 289 376 290
f 289 361 360
f 291 377 292
f 292 378 293
f 292 377 379
f 292 379 378
f 293 378 380
f 293 380 381
f 293 381 382
f 293 382 294
f 294 382 383
f 294 383 384
f 294 384 295
f 295 384 296
f 296 384 385
f 296 385 386
f 296 386 387
f 296 387 297
f 297 387 299
f 297 299 298
f 299 387 388
f 299 388 300
f 300 388 301
f 301 388 321
f 301 321 302
f 302 321 303
f 303 321 304
f 304 321 306
f 307 320 354
f 307 354 308
f 308 354 309
f 310 389 390
f 310 390 312
f 310 311 389
f 311 353 391
f 311 391 392
f 311 392 393
f 311 393 389
f 313 354 320
f 315 316 317
f 316 321 394
f 316 394 395
f 316 395 317
f 317 395 318
f 318 395 323
f 318 323 322
f 318 322 319
f 321 396 394
f 321 388 396
f 323 395 394
f 323 394 324
f 324 394 325
f 325 394 396
f 325 396 397
f 325 397 326
f 326 397 327
f 327 397 328
f 328 397 398
f 328 398 399
f 328 399 329
f 329 400 401
f 329 401 335
f 329 399 402
f 329 402 403
f 329 403 404
f 329 404 400
f 330 405 406
f 330 406 331
f 330 332 407
f 330 407 408
f 330 408 405
f 331 406 409
f 331 409 338
f 332 334 410
f 332 410 407
f 334 411 410
f 335 401 412
f 335 412 336
f 336 412 411
f 337 338 340
f 337 340 339
f 338 413 414
f 338 414 341
f 338 341 340
f 338 409 415
f 338 415 416
f 338 416 413
f 341 414 342
f 342 414 417
f 342 417 418
f 342 418 343
f 343 418 419
f 343 419 420
f 343 420 344
f 351 421 422
f 351 422 352
f 352 422 423
f 352 423 353
f 353 423 459
f 353 459 391
f 355 365 432
f 355 432 424
f 355 424 356
f 356 424 425
f 356 425 357
f 357 425 426
f 357 426 427
f 357 427 358
f 358 427 428
f 359 428 360
f 360 428 374
f 363 429 430
f 363 430 364
f 364 430 368
f 365 431 432
f 365 367 433
f 365 433 431
f 366 373 434
f 366 434 367
f 367 434 435
f 367 435 433
f 368 436 373
f 368 373 369
f 368 430 437
f 368 437 436
f 369 373 371
f 369 371 370
f 371 373 372
f 373 436 438
f 373 438 439
f 373 439 440
f 373 440 441
f 373 441 435
f 373 435 434
f 374 428 442
f 374 442 443
f 374 443 444
f 374 444 375
f 378 445 446
f 378 446 447
f 378 447 448
f 378 448 449
f 378 449 382
f 378 382 381
f 378 381 380
f 378 379 450
f 378 450 451
f 378 451 452
f 378 452 445
f 382 453 454
f 382 454 455
f 382 455 383
f 382 449 456
f 382 456 453
f 383 455 385
f 383 385 384
f 385 455 454
f 385 454 396
f 385 396 386
f 386 396 387
f 387 396 388
f 389 457 390
f 389 393 458
f 389 458 457
f 391 459 460
f 391 460 392
f 392 460 461
f 392 461 393
f 393 461 458
f 396 462 463
f 396 463 398
f 396 398 397
f 396 454 462
f 398 463 399
f 399 464 465
f 399 465 466
f 399 466 467
f 399 467 402
f 399 463 462
f 399 462 524
f 399 524 464
f 400 468 412
f 400 412 401
f 400 404 469
f 400 469 470
f 400 470 468
f 402 467 403
f 403 467 471
f 403 471 404
f 404 471 469
f 405 408 472
f 405 472 406
f 406 473 409
f 406 472 473
f 407 410 408
f 408 474 472
f 408 410 412
f 408 412 468
f 408 468 475
f 408 475 474
f 409 476 415
f 409 473 477
f 409 477 478
f 409 478 476
f 410 411 412
f 413 416 479
f 413 479 414
f 414 479 480
f 414 480 481
f 414 481 417
f 415 476 482
f 415 482 483
f 415 483 416
f 416 480 479
f 416 483 484
f 416 484 481
f 416 481 480
f 417 481 485
f 417 485 486
f 417 486 419
f 417 419 418
f 424 432 425
f 425 432 487
f 425 487 488
f 425 488 545
f 425 545 489
f 425 489 490
f 425 490 491
f 425 491 492
f 425 492 428
f 425 428 426
f 426 428 427
f 428 492 442
f 429 493 430
f 430 493 437
f 431 494 487
f 431 487 432
f 431 433 495
f 431 495 494
f 433 435 495
f 435 441 496
f 435 496 497
f 435 497 498
f 435 498 499
f 435 499 500
f 435 500 501
f 435 501 495
f 436 437 438
f 437 484 440
f 437 440 439
f 437 439 438
f 437 493 502
f 437 502 485
f 437 485 481
f 437 481 484
f 440 503 504
f 440 504 441
f 440 484 505
f 440 505 483
f 440 483 506
f 440 506 503
f 441 504 496
f 442 507 443
f 442 492 491
f 442 491 508
f 442 508 548
f 442 548 507
f 443 507 558
f 443 558 509
f 443 509 444
f 445 510 511
f 445 511 512
f 445 512 513
f 445 513 514
f 445 514 446
f 445 452 519
f 445 519 510
f 446 514 515
f 446 515 516
f 446 516 517
f 446 517 447
f 447 517 448
f 448 456 449
f 448 517 518
f 448 518 453
f 448 453 456
f 453 518 520
f 453 520 454
f 454 520 521
f 454 521 522
f 454 522 523
f 454 523 462
f 462 465 524
f 462 523 525
f 462 525 526
f 462 526 465
f 464 524 465
f 465 526 527
f 465 527 467
f 465 467 466
f 467 527 471
f 468 528 529
f 468 529 475
f 468 470 471
f 468 471 530
f 468 530 531
f 468 531 528
f 469 471 532
f 469 532 470
f 470 532 471
f 471 527 530
f 472 474 533
f 472 533 473
f 473 533 534
f 473 534 477
f 474 475 535
f 474 535 534
f 474 534 533
f 475 536 537
f 475 537 538
f 475 538 535
f 475 529 539
f 475 539 540
f 475 540 577
f 475 577 541
f 475 541 536
f 476 478 542
f 476 542 482
f 477 534 535
f 477 535 538
f 477 538 478
f 478 538 542
f 482 542 537
f 482 537 543
f 482 543 503
f 482 503 506
f 482 506 483
f 483 505 484
f 487 494 488
f 488 494 544
f 488 544 545
f 489 545 546
f 489 546 547
f 489 547 490
f 490 547 548
f 490 548 508
f 490 508 491
f 494 495 501
f 494 501 500
f 494 500 549
f 494 549 544
f 496 504 550
f 496 550 551
f 496 551 552
f 496 552 497
f 497 552 553
f 497 553 498
f 498 553 554
f 498 554 555
f 498 555 499
f 499 555 556
f 499 556 500
f 500 556 549
f 503 543 504
f 504 543 550
f 507 548 557
f 507 557 558
f 510 559 511
f 510 519 560
f 510 560 559
f 511 559 561
f 511 561 562
f 511 562 512
f 512 562 563
f 512 563 513
f 513 563 514
f 514 563 564
f 514 564 515
f 515 564 516
f 516 564 517
f 517 564 565
f 517 565 522
f 517 522 521
f 517 521 520
f 517 520 518
f 522 565 530
f 522 530 526
f 522 526 525
f 522 525 523
f 526 530 527
f 528 566 567
f 528 567 529
f 528 531 568
f 528 568 566
f 529 567 566
f 529 566 569
f 529 569 605
f 529 605 570
f 529 570 539
f 530 565 568
f 530 568 531
f 536 551 550
f 536 550 537
f 536 541 571
f 536 571 551
f 537 550 543
f 537 542 538
f 539 572 540
f 539 570 573
f 539 573 574
f 539 574 575
f 539 575 576
f 539 576 607
f 539 607 572
f 540 572 577
f 541 577 613
f 541 613 578
f 541 578 579
f 541 579 571
f 544 549 580
f 544 580 592
f 544 592 581
f 544 581 582
f 544 582 583
f 544 583 545
f 545 583 574
f 545 574 584
f 545 584 585
f 545 585 546
f 546 585 586
f 546 586 587
f 546 587 588
f 546 588 589
f 546 589 547
f 547 589 557
f 547 557 548
f 549 556 590
f 549 590 592
f 549 592 580
f 551 571 552
f 552 571 579
f 552 579 553
f 553 579 591
f 553 591 554
f 554 556 555
f 554 591 592
f 554 592 590
f 554 590 556
f 557 559 593
f 557 593 594
f 557 594 595
f 557 595 596
f 557 596 558
f 557 589 597
f 557 597 598
f 557 598 561
f 557 561 559
f 559 560 593
f 561 598 599
f 561 599 597
f 561 597 600
f 561 600 562
f 562 600 563
f 563 600 564
f 564 601 602
f 564 602 603
f 564 603 565
f 564 600 601
f 565 603 568
f 566 568 604
f 566 604 569
f 568 603 604
f 569 604 603
f 569 603 605
f 570 605 603
f 570 603 606
f 570 606 573
f 572 607 612
f 572 612 577
f 573 606 608
f 573 608 574
f 574 608 602
f 574 602 584
f 574 583 609
f 574 609 610
f 574 610 575
f 575 610 576
f 576 610 611
f 576 611 582
f 576 582 607
f 577 612 613
f 578 613 591
f 578 591 579
f 581 592 614
f 581 614 582
f 582 611 583
f 582 614 613
f 582 613 612
f 582 612 607
f 583 611 609
f 584 602 601
f 584 601 587
f 584 587 586
f 584 586 585
f 587 601 600
f 587 600 597
f 587 597 589
f 587 589 588
f 591 613 592
f 592 613 614
f 597 599 598
f 602 608 603
f 603 608 606
f 609 611 610

