# https://github.com/mikedh/trimesh
v -0.00047606 2.99430583 0.45017876
v -0.00047606 2.99423121 0.51372167
v -0.00047606 2.85517645 0.45017876
v -0.02971229 2.99430583 0.45017876
v -0.00047606 2.52151965 0.51372167
v -0.02971229 2.99423121 0.51372167
v -1.14923330 2.23259886 0.51372167
v -0.14148445 2.82557618 0.45017876
v -0.08908422 2.98461305 0.45017876
v -0.07592794 2.98677509 0.51372167
v -1.14923330 2.80790533 0.51372167
v -1.14923330 2.65684634 0.45017876
v -0.15272914 2.82363762 0.45017876
v -0.14564499 2.82483056 0.45017876
v -0.08908422 2.98461305 0.51372167
v -0.19703320 2.96664410 0.45017876
v -1.13945035 2.80954561 0.45017876
v -1.14923330 2.80790533 0.45017876
v -0.97887628 2.83631285 0.51372167
v -0.13518741 2.97693344 0.51372167
v -0.53257467 2.91072374 0.45017876
v -0.50435051 2.91542108 0.51372167
v -0.90016348 2.84943540 0.51372167
f 1 2 5
f 1 5 3
f 1 3 8
f 1 8 14
f 1 14 13
f 1 13 12
f 1 12 18
f 1 18 17
f 1 17 21
f 1 21 16
f 1 16 9
f 1 9 4
f 1 4 6
f 1 6 2
f 2 6 10
f 2 10 15
f 2 15 20
f 2 20 22
f 2 22 23
f 2 23 19
f 2 19 11
f 2 11 7
f 2 7 5
f 3 5 7
f 3 7 8
f 4 9 10
f 4 10 6
f 7 11 18
f 7 18 12
f 7 12 13
f 7 13 14
f 7 14 8
f 9 15 10
f 9 16 15
f 11 17 18
f 11 19 17
f 15 16 20
f 16 21 22
f 16 22 20
f 17 19 21
f 19 23 21
f 21 23 22

