# https://github.com/mikedh/trimesh
v -2.65666335 1.14794824 0.45250971
v -2.67758415 1.14794824 0.05227208
v -2.80816648 1.14794824 0.45250971
v -2.70428897 0.86097572 0.45250971
v -2.72858103 0.88668484 0.02157376
v -2.72583781 0.91949777 0.01670469
v -2.69986021 1.14794824 -0.00054574
v -2.76364760 0.50533270 0.45250971
v -2.82303929 0.14957691 0.45250971
v -2.86997075 -0.00400132 0.05227208
v -2.84719909 0.17483503 0.02157376
v -2.80816648 1.14794824 0.11162838
v -2.95497652 0.26707218 0.45250971
v -2.72088021 0.97880919 0.00896055
v -2.84445587 0.20764800 0.01670469
v -2.88966891 -0.00400132 -0.00036026
v -2.75875612 0.97880919 -0.01742517
v -2.75875612 1.03823332 -0.02113498
v -2.75875612 1.09754474 -0.02122771
v -2.75875612 1.14794824 -0.01886273
v -2.82383246 0.14495379 0.45250971
v -2.82432824 0.14224757 0.45250971
v -2.85149560 -0.00400132 0.45250971
v -2.80753862 1.14794824 0.05227208
v -2.84914914 0.89841174 0.05227208
v -2.90847453 0.54254328 0.05227208
v -2.95497652 0.26707218 0.11162838
v -2.97725276 0.13333957 0.45250971
v -2.93669975 -0.00400132 -0.02076398
v -2.87737418 0.26707218 -0.01742517
v -2.87737418 0.32638360 -0.02113498
v -2.93669975 0.02971375 -0.02118134
v -2.81808168 0.80087494 -0.01807438
v -2.80677834 1.03823332 -0.00161230
v -2.80185380 1.09754474 0.00219019
v -2.79765648 1.14794824 0.00687378
v -2.93669975 0.08902517 -0.01807438
v -2.99427364 -0.00400132 0.45250971
v -2.84848804 0.89435242 0.02097092
v -2.90781361 0.53859668 0.02097092
v -2.96780009 0.18656201 0.05227208
v -2.98462294 0.08902517 0.11162838
v -2.98462294 0.08902517 0.45250971
v -2.97966516 -0.00400132 0.00223661
v -2.97966516 0.02971375 0.00223661
v -2.92539640 0.32638360 -0.00161230
v -2.92047186 0.38569502 0.00219019
v -2.97487288 0.08902517 0.00770851
v -2.91554732 0.44500643 0.00770851
v -2.85622193 0.80087494 0.00770851
v -2.85133046 0.86018635 0.01559176
v -2.99427364 0.02971375 0.45250971
v -2.99427364 -0.00400132 0.11162838
v -2.91065602 0.50431785 0.01559176
v -2.96713917 0.18261542 0.02097092
v -2.98399491 0.08902517 0.05227208
v -2.99427364 0.02971375 0.11162838
v -2.98706859 0.07402815 0.45250971
v -2.99364561 -0.00400132 0.05227208
v -2.99364561 0.02971375 0.05227208
v -2.96998158 0.14833659 0.01559176
f 1 2 7
f 1 7 20
f 1 20 36
f 1 36 24
f 1 24 12
f 1 12 3
f 1 3 13
f 1 13 28
f 1 28 43
f 1 43 58
f 1 58 52
f 1 52 38
f 1 38 23
f 1 23 22
f 1 22 21
f 1 21 9
f 1 9 8
f 1 8 4
f 1 4 2
f 2 5 6
f 2 6 7
f 2 4 8
f 2 8 9
f 2 9 10
f 2 10 11
f 2 11 5
f 3 12 27
f 3 27 13
f 5 11 15
f 5 15 6
f 6 14 7
f 6 15 16
f 6 16 14
f 7 17 18
f 7 18 19
f 7 19 20
f 7 14 16
f 7 16 17
f 9 21 10
f 10 21 22
f 10 22 23
f 10 23 38
f 10 38 53
f 10 53 59
f 10 59 44
f 10 44 29
f 10 29 16
f 10 16 11
f 11 16 15
f 12 24 25
f 12 25 26
f 12 26 27
f 13 27 28
f 16 29 30
f 16 30 17
f 17 30 31
f 17 31 18
f 18 31 19
f 19 31 32
f 19 32 20
f 20 33 34
f 20 34 35
f 20 35 36
f 20 32 37
f 20 37 33
f 24 36 39
f 24 39 40
f 24 40 25
f 25 40 26
f 26 40 55
f 26 55 41
f 26 41 27
f 27 41 42
f 27 42 28
f 28 42 43
f 29 44 32
f 29 32 31
f 29 31 30
f 32 44 45
f 32 45 37
f 33 37 46
f 33 46 34
f 34 46 47
f 34 47 35
f 35 47 48
f 35 48 36
f 36 48 49
f 36 49 50
f 36 50 51
f 36 51 39
f 37 45 46
f 38 52 57
f 38 57 53
f 39 51 40
f 40 54 61
f 40 61 55
f 40 51 54
f 41 55 56
f 41 56 42
f 42 56 60
f 42 60 57
f 42 57 58
f 42 58 43
f 44 59 60
f 44 60 45
f 45 60 48
f 45 48 47
f 45 47 46
f 48 60 61
f 48 61 54
f 48 54 49
f 49 54 51
f 49 51 50
f 52 58 57
f 53 57 60
f 53 60 59
f 55 61 60
f 55 60 56

