# https://github.com/mikedh/trimesh
v -1.56795129 -10.85689023 6.31617942
v -1.56793196 -10.85628078 6.31617942
v -1.56788172 -10.85764664 6.31617942
v -1.56807885 -10.85739370 6.31643449
v -1.57149185 -10.85616034 6.32226323
v -1.57245044 -10.85385018 6.32382901
v -1.56783534 -10.85587608 6.31617942
v -1.56754931 -10.85855721 6.31617942
v -1.57050621 -10.85757437 6.32086666
v -1.57292972 -10.85570987 6.32511952
v -1.57300316 -10.85385018 6.32498567
v -1.57285628 -10.85234461 6.32534681
v -1.56718984 -10.85381405 6.31617942
v -1.56701590 -10.85956895 6.31617942
v -1.57083476 -10.85800315 6.32226323
v -1.57265142 -10.85725158 6.32582917
v -1.57244657 -10.85635305 6.32444017
v -1.56812136 -10.85968940 6.31863921
v -1.57321575 -10.85635305 6.32671308
v -1.57367958 -10.85385018 6.32688481
v -1.56615009 -10.85198810 6.31617942
v -1.57359841 -10.85154004 6.32919307
v -1.57305341 -10.85155931 6.32709442
v -1.57237699 -10.85080773 6.32646306
v -1.55746489 -10.83873666 6.31617942
v -1.56652888 -10.86018322 6.31617942
v -1.56997281 -10.85915943 6.32226323
v -1.57285242 -10.85752137 6.32736970
v -1.56839193 -10.85986525 6.31995244
v -1.57380327 -10.85616034 6.32919307
v -1.57424391 -10.85385018 6.32919307
v -1.57505561 -10.85253010 6.33448390
v -1.57409316 -10.85154004 6.33150639
v -1.57269008 -10.85037172 6.32800358
v -1.56254768 -10.83873666 6.32671560
v -1.53557216 -10.83873666 6.31617942
v -1.56436048 -10.86146236 6.31617942
v -1.57021246 -10.85951836 6.32457402
v -1.57301089 -10.85768277 6.32919307
v -1.56881710 -10.86007000 6.32226323
v -1.57407383 -10.85616034 6.33150639
v -1.57491646 -10.85406458 6.33375404
v -1.57463816 -10.85385018 6.33150639
v -1.57505561 -10.85343826 6.33448390
v -1.57505561 -10.85253010 6.33526426
v -1.57454539 -10.85167253 6.33375404
v -1.57309206 -10.84994293 6.33150639
v -1.56563215 -10.83873666 6.33775941
v -1.56523016 -10.83873666 6.33612796
v -1.56363381 -10.83873666 6.32973099
v -1.56346375 -10.83873666 6.32914004
v -1.56327821 -10.83873666 6.32851373
v -1.56306563 -10.83873666 6.32798843
v -1.53557216 -10.83873666 6.34197944
v -1.53557216 -10.85689023 6.31617942
v -1.56371112 -10.86178515 6.31617942
v -1.56905675 -10.86009168 6.32457402
v -1.57024724 -10.85957859 6.32688481
v -1.57323121 -10.85785862 6.33381718
v -1.57311526 -10.85777913 6.33150639
v -1.57432507 -10.85616034 6.33381718
v -1.56689995 -10.86084567 6.32226323
v -1.56344055 -10.86194173 6.31644711
v -1.57505561 -10.85343826 6.33526426
v -1.57374915 -10.85385018 6.34197944
v -1.57332398 -10.85147018 6.34197944
v -1.57263983 -10.84962013 6.34197944
v -1.57234607 -10.84900586 6.34197944
v -1.57112079 -10.84691010 6.34197944
v -1.56621193 -10.83873666 6.34197944
v -1.57330465 -10.84972853 6.33381718
v -1.56584087 -10.83873666 6.33910295
v -1.53557216 -10.85748765 6.34197944
v -1.53595096 -10.85717449 6.31617942
v -1.56312360 -10.86197786 6.31617942
v -1.56999600 -10.85955931 6.33150639
v -1.57016994 -10.85957377 6.32919307
v -1.57152277 -10.85890409 6.33381718
v -1.57320029 -10.85780322 6.33612796
v -1.57422072 -10.85616034 6.33612796
v -1.56689995 -10.86076377 6.32457402
v -1.56344055 -10.86194173 6.31653298
v -1.55996570 -10.86238497 6.31617942
v -1.57480823 -10.85406458 6.33607241
v -1.57359068 -10.85464754 6.34197944
v -1.56607278 -10.83873666 6.34074954
v -1.53657325 -10.85788271 6.34197944
v -1.54463615 -10.86209108 6.31617942
v -1.54348431 -10.86151294 6.31617942
v -1.54268034 -10.86109861 6.31617942
v -1.56925001 -10.85952318 6.33391062
v -1.57152277 -10.85874269 6.33612796
v -1.57323894 -10.85595076 6.34197944
v -1.57132178 -10.85774781 6.34197944
v -1.57225330 -10.85719135 6.34197944
v -1.57241178 -10.85706609 6.34197944
v -1.57253160 -10.85690710 6.34197944
v -1.56320091 -10.86190319 6.31807351
v -1.56458853 -10.86135395 6.32226323
v -1.56236988 -10.86206459 6.31743962
v -1.55765815 -10.86266681 6.31617942
v -1.53697138 -10.85800556 6.34197944
v -1.54616292 -10.86260659 6.31617942
v -1.54527392 -10.86232234 6.31617942
v -1.56850402 -10.85969662 6.33320349
v -1.56921136 -10.85929915 6.33612796
v -1.56921136 -10.85833558 6.34197944
v -1.56166254 -10.86201641 6.31932866
v -1.56689995 -10.86008205 6.33150639
v -1.55534674 -10.86294384 6.31617942
v -1.55450025 -10.86304020 6.31617942
v -1.55996570 -10.86232475 6.31764165
v -1.54730316 -10.86045062 6.34197944
v -1.54610495 -10.86092276 6.33843875
v -1.54841636 -10.86314137 6.31617942
v -1.55072777 -10.86113475 6.33843875
v -1.55072777 -10.86068669 6.34074954
v -1.55072777 -10.86044821 6.34197944
v -1.55303919 -10.86319919 6.31617942
v -1.55303919 -10.86305947 6.31764165
v -1.55303919 -10.86261141 6.32226323
v -1.55303919 -10.86237292 6.32457402
v -1.54841636 -10.86069391 6.34197944
v -1.54841636 -10.86092758 6.34074954
v -1.54841636 -10.86129132 6.33843875
v -1.55072777 -10.86334372 6.31617942
v -1.54949863 -10.86058310 6.34197944
f 1 2 7
f 1 7 13
f 1 13 21
f 1 21 25
f 1 25 36
f 1 36 55
f 1 55 74
f 1 74 90
f 1 90 89
f 1 89 88
f 1 88 104
f 1 104 103
f 1 103 115
f 1 115 126
f 1 126 119
f 1 119 111
f 1 111 110
f 1 110 101
f 1 101 83
f 1 83 75
f 1 75 56
f 1 56 37
f 1 37 26
f 1 26 14
f 1 14 8
f 1 8 3
f 1 3 4
f 1 4 5
f 1 5 6
f 1 6 2
f 2 6 7
f 3 8 9
f 3 9 4
f 4 9 5
f 5 9 10
f 5 10 6
f 6 10 11
f 6 11 12
f 6 12 13
f 6 13 7
f 8 14 9
f 9 15 16
f 9 16 17
f 9 17 10
f 9 14 18
f 9 18 15
f 10 19 20
f 10 20 11
f 10 17 16
f 10 16 19
f 11 20 12
f 12 21 13
f 12 20 22
f 12 22 23
f 12 23 24
f 12 24 25
f 12 25 21
f 14 26 18
f 15 18 27
f 15 27 16
f 16 28 19
f 16 27 28
f 18 29 27
f 18 26 29
f 19 28 30
f 19 30 31
f 19 31 20
f 20 31 22
f 22 31 32
f 22 32 33
f 22 33 34
f 22 34 23
f 23 34 24
f 24 34 35
f 24 35 25
f 25 35 53
f 25 53 52
f 25 52 51
f 25 51 50
f 25 50 49
f 25 49 48
f 25 48 72
f 25 72 86
f 25 86 70
f 25 70 54
f 25 54 36
f 26 37 29
f 27 29 38
f 27 38 28
f 28 39 30
f 28 38 39
f 29 40 38
f 29 37 40
f 30 41 42
f 30 42 43
f 30 43 31
f 30 39 41
f 31 43 32
f 32 44 64
f 32 64 45
f 32 45 46
f 32 46 33
f 32 43 44
f 33 46 47
f 33 47 34
f 34 47 48
f 34 48 49
f 34 49 50
f 34 50 51
f 34 51 52
f 34 52 53
f 34 53 35
f 36 54 73
f 36 73 55
f 37 56 40
f 38 40 57
f 38 57 58
f 38 58 59
f 38 59 60
f 38 60 39
f 39 60 59
f 39 59 61
f 39 61 41
f 40 62 57
f 40 56 63
f 40 63 62
f 41 61 42
f 42 64 44
f 42 44 43
f 42 61 64
f 45 64 65
f 45 65 66
f 45 66 67
f 45 67 68
f 45 68 69
f 45 69 70
f 45 70 46
f 46 70 71
f 46 71 47
f 47 71 48
f 48 71 72
f 54 70 69
f 54 69 68
f 54 68 67
f 54 67 66
f 54 66 65
f 54 65 85
f 54 85 93
f 54 93 97
f 54 97 96
f 54 96 95
f 54 95 94
f 54 94 107
f 54 107 118
f 54 118 127
f 54 127 123
f 54 123 113
f 54 113 102
f 54 102 87
f 54 87 73
f 55 73 74
f 56 75 63
f 57 76 77
f 57 77 58
f 57 62 76
f 58 77 78
f 58 78 59
f 59 78 79
f 59 79 61
f 61 80 64
f 61 79 80
f 62 81 76
f 62 63 82
f 62 82 81
f 63 75 83
f 63 83 82
f 64 80 84
f 64 84 65
f 65 84 85
f 70 86 71
f 71 86 72
f 73 87 88
f 73 88 89
f 73 89 90
f 73 90 74
f 76 81 91
f 76 91 92
f 76 92 78
f 76 78 77
f 78 92 79
f 79 93 80
f 79 92 94
f 79 94 95
f 79 95 96
f 79 96 97
f 79 97 93
f 80 93 84
f 81 82 98
f 81 98 99
f 81 99 91
f 82 83 100
f 82 100 98
f 83 101 100
f 84 93 85
f 87 102 103
f 87 103 104
f 87 104 88
f 91 105 106
f 91 106 92
f 91 99 105
f 92 106 107
f 92 107 94
f 98 100 108
f 98 108 99
f 99 108 109
f 99 109 106
f 99 106 105
f 100 101 110
f 100 110 111
f 100 111 112
f 100 112 108
f 102 113 114
f 102 114 103
f 103 114 115
f 106 109 116
f 106 116 107
f 107 116 117
f 107 117 118
f 108 112 111
f 108 111 119
f 108 119 120
f 108 120 121
f 108 121 122
f 108 122 116
f 108 116 109
f 113 123 114
f 114 123 124
f 114 124 125
f 114 125 115
f 115 125 126
f 116 122 121
f 116 121 125
f 116 125 124
f 116 124 123
f 116 123 127
f 116 127 117
f 117 127 118
f 119 126 120
f 120 126 121
f 121 126 125

