# https://github.com/mikedh/trimesh
v -1.51081938 -10.80704576 6.29472113
v -1.50970685 -10.80705514 6.29388142
v -1.51137081 -10.80704576 6.29388142
v -1.52809266 -10.80704576 6.31559692
v -1.50965364 -10.80720992 6.29388142
v -1.53992421 -10.80704576 6.29388142
v -1.55091410 -10.80704576 6.31559692
v -1.52712524 -10.81918625 6.31559692
v -1.52003406 -10.83100078 6.31023554
v -1.51909566 -10.83100078 6.30933631
v -1.51082905 -10.83100078 6.29994008
v -1.51070329 -10.83100078 6.29979339
v -1.50905384 -10.80994429 6.29388142
v -1.50951820 -10.80763438 6.29388142
v -1.50952787 -10.80760155 6.29388142
v -1.53981779 -10.83100078 6.29388142
v -1.54030634 -10.80704576 6.29412589
v -1.55090443 -10.80704576 6.31306717
v -1.55265545 -10.80976137 6.31559692
v -1.52696078 -10.82149616 6.31559692
v -1.52637066 -10.83100078 6.31559692
v -1.50657241 -10.83100078 6.29475302
v -1.50572591 -10.83098905 6.29388142
v -1.53985649 -10.83100078 6.29392606
v -1.54531758 -10.80704576 6.29825428
v -1.54500316 -10.80704576 6.29789927
v -1.54194128 -10.80704576 6.29539715
v -1.50732215 -10.83100078 6.29388142
v -1.55193957 -10.80871781 6.31390900
v -1.55060453 -10.80704576 6.31070748
v -1.55386957 -10.81201499 6.31559692
v -1.55514173 -10.83100078 6.31559692
v -1.54080940 -10.83100078 6.29508252
v -1.54905665 -10.83100078 6.30561396
v -1.54979673 -10.83100078 6.30663861
v -1.54988863 -10.83100078 6.30676829
v -1.54700089 -10.80704576 6.30079892
v -1.55021272 -10.80704576 6.30828614
v -1.55391310 -10.81215805 6.31559692
v -1.54980157 -10.80704576 6.30613054
v -1.54977254 -10.80704576 6.30599236
v -1.55512722 -10.83044734 6.31559692
v -1.54915339 -10.80704576 6.30437246
v -1.55492889 -10.83100078 6.31515475
v -1.55092378 -10.83100078 6.30841582
v -1.54718470 -10.80704576 6.30109441
v -1.55396631 -10.81235503 6.31559692
v -1.54950650 -10.80704576 6.30514414
v -1.55507400 -10.82843057 6.31559692
v -1.54770226 -10.80704576 6.30195538
v -1.55363255 -10.83100078 6.31279293
v -1.55424203 -10.83100078 6.31381972
v -1.55431458 -10.83100078 6.31394727
v -1.55246197 -10.83100078 6.31090093
v -1.55413077 -10.81360496 6.31559692
v -1.55505949 -10.82814681 6.31559692
v -1.55422752 -10.81456644 6.31559692
f 1 2 3
f 1 3 6
f 1 6 17
f 1 17 27
f 1 27 26
f 1 26 25
f 1 25 37
f 1 37 46
f 1 46 50
f 1 50 43
f 1 43 48
f 1 48 41
f 1 41 40
f 1 40 38
f 1 38 30
f 1 30 18
f 1 18 7
f 1 7 4
f 1 4 2
f 2 5 15
f 2 15 14
f 2 14 13
f 2 13 23
f 2 23 28
f 2 28 16
f 2 16 6
f 2 6 3
f 2 4 5
f 4 7 19
f 4 19 31
f 4 31 39
f 4 39 47
f 4 47 55
f 4 55 57
f 4 57 56
f 4 56 49
f 4 49 42
f 4 42 32
f 4 32 21
f 4 21 20
f 4 20 8
f 4 8 9
f 4 9 10
f 4 10 11
f 4 11 12
f 4 12 13
f 4 13 14
f 4 14 15
f 4 15 5
f 6 16 17
f 7 18 19
f 8 20 9
f 9 20 21
f 9 21 32
f 9 32 44
f 9 44 53
f 9 53 52
f 9 52 51
f 9 51 54
f 9 54 45
f 9 45 36
f 9 36 35
f 9 35 34
f 9 34 33
f 9 33 24
f 9 24 16
f 9 16 28
f 9 28 22
f 9 22 12
f 9 12 11
f 9 11 10
f 12 22 23
f 12 23 13
f 16 24 25
f 16 25 26
f 16 26 27
f 16 27 17
f 18 29 19
f 18 30 29
f 19 29 31
f 22 28 23
f 24 33 25
f 25 34 35
f 25 35 36
f 25 36 37
f 25 33 34
f 29 30 31
f 30 38 31
f 31 38 40
f 31 40 41
f 31 41 39
f 32 42 43
f 32 43 44
f 36 45 37
f 37 45 46
f 39 41 47
f 41 48 47
f 42 49 43
f 43 50 51
f 43 51 52
f 43 52 53
f 43 53 44
f 43 49 48
f 45 54 46
f 46 54 51
f 46 51 50
f 47 48 55
f 48 49 56
f 48 56 57
f 48 57 55

