# https://github.com/mikedh/trimesh
v -1.45102811 -10.86678441 6.30273609
v -1.47434187 -10.86651810 6.30273609
v -1.45102811 -10.84457627 6.30273609
v -1.45102811 -10.86236969 6.36187159
v -1.47434187 -10.86176843 6.36848081
v -1.47434187 -10.86293800 6.35230205
v -1.47434187 -10.84334904 6.30273609
v -1.46521810 -10.84376361 6.30273609
v -1.46521810 -10.84232773 6.30608897
v -1.46290863 -10.84248422 6.30608897
v -1.46290863 -10.84192964 6.30839931
v -1.45102811 -10.84126797 6.31716441
v -1.45102811 -10.86221045 6.36380223
v -1.45102811 -10.86217750 6.36418836
v -1.45102811 -10.86170253 6.36848081
v -1.47434187 -10.84057886 6.36848081
v -1.47434187 -10.84216574 6.30608897
v -1.47215107 -10.84197905 6.30608897
v -1.47215107 -10.84289879 6.30393309
v -1.46984160 -10.84208063 6.30608897
v -1.46521810 -10.84178687 6.30839931
v -1.45102811 -10.83873939 6.32907646
v -1.45102811 -10.84189943 6.36848081
v -1.47434187 -10.84035922 6.36617048
v -1.46984160 -10.84067495 6.36848081
v -1.47434187 -10.84158645 6.30827703
v -1.47434187 -10.84155900 6.30839931
v -1.47215107 -10.84147938 6.30839931
v -1.46984160 -10.84153978 6.30839931
v -1.45135673 -10.83873939 6.32901854
v -1.45102811 -10.83873939 6.34375575
v -1.45196833 -10.84105657 6.36304284
v -1.45366620 -10.84169627 6.36848081
v -1.47434187 -10.83873939 6.34711507
v -1.46521810 -10.83873939 6.34665815
v -1.46729251 -10.83873939 6.34703141
v -1.46752985 -10.83873939 6.34706358
v -1.45597794 -10.84152330 6.36848081
v -1.47434187 -10.84124327 6.31026559
v -1.47215107 -10.84012311 6.31764707
v -1.46984160 -10.83949165 6.32226773
v -1.46752985 -10.83922535 6.32457807
v -1.45366620 -10.83873939 6.32917299
v -1.47434187 -10.83873939 6.33155411
v -1.47434187 -10.84022470 6.31764707
v -1.47215107 -10.83983484 6.31995740
v -1.47434187 -10.83969482 6.32214546
v -1.47434187 -10.83945047 6.32445579
v -1.47434187 -10.83898100 6.32910220
v -1.47434187 -10.83874763 6.33146401
f 1 2 7
f 1 7 8
f 1 8 3
f 1 3 12
f 1 12 22
f 1 22 31
f 1 31 23
f 1 23 15
f 1 15 14
f 1 14 13
f 1 13 4
f 1 4 5
f 1 5 6
f 1 6 2
f 2 6 5
f 2 5 16
f 2 16 24
f 2 24 34
f 2 34 44
f 2 44 50
f 2 50 49
f 2 49 48
f 2 48 47
f 2 47 45
f 2 45 39
f 2 39 27
f 2 27 26
f 2 26 17
f 2 17 7
f 3 8 9
f 3 9 10
f 3 10 11
f 3 11 12
f 4 13 5
f 5 13 14
f 5 14 15
f 5 15 23
f 5 23 33
f 5 33 38
f 5 38 25
f 5 25 16
f 7 17 18
f 7 18 19
f 7 19 8
f 8 19 20
f 8 20 9
f 9 20 29
f 9 29 21
f 9 21 11
f 9 11 10
f 11 21 22
f 11 22 12
f 16 25 24
f 17 26 18
f 18 20 19
f 18 26 27
f 18 27 28
f 18 28 29
f 18 29 20
f 21 29 22
f 22 29 30
f 22 30 43
f 22 43 44
f 22 44 34
f 22 34 37
f 22 37 36
f 22 36 35
f 22 35 31
f 23 32 33
f 23 31 32
f 24 25 31
f 24 31 35
f 24 35 36
f 24 36 37
f 24 37 34
f 25 38 32
f 25 32 31
f 27 39 28
f 28 39 40
f 28 40 30
f 28 30 29
f 30 40 41
f 30 41 42
f 30 42 43
f 32 38 33
f 39 45 40
f 40 45 46
f 40 46 41
f 41 46 47
f 41 47 48
f 41 48 49
f 41 49 50
f 41 50 42
f 42 50 44
f 42 44 43
f 45 47 46

