# https://github.com/mikedh/trimesh
v -1.40921194 -10.74994323 6.39322468
v -1.40921194 -10.74994323 6.36498734
v -1.42801277 -10.74994323 6.39322468
v -1.40921194 -10.80703783 6.39322468
v -1.40921194 -10.75200589 6.36413075
v -1.42802382 -10.75217358 6.39322468
v -1.40921194 -10.75448218 6.36312335
v -1.40921194 -10.75541009 6.36283983
v -1.40921194 -10.75676843 6.36248392
v -1.41413035 -10.80703783 6.36875453
v -1.42773471 -10.80703783 6.39322468
v -1.40921194 -10.80703783 6.36383818
v -1.40921194 -10.75915529 6.36241153
v -1.41355768 -10.80703783 6.36783762
v -1.40921194 -10.78553373 6.36265886
v -1.40973675 -10.80703783 6.36425441
v -1.41317466 -10.80660183 6.36738217
v -1.41271983 -10.80703783 6.36688752
f 1 2 3
f 1 3 6
f 1 6 11
f 1 11 4
f 1 4 12
f 1 12 15
f 1 15 13
f 1 13 9
f 1 9 8
f 1 8 7
f 1 7 5
f 1 5 2
f 2 5 3
f 3 5 7
f 3 7 8
f 3 8 9
f 3 9 10
f 3 10 6
f 4 11 10
f 4 10 14
f 4 14 18
f 4 18 16
f 4 16 12
f 6 10 11
f 9 13 14
f 9 14 10
f 12 16 15
f 13 15 17
f 13 17 14
f 14 17 18
f 15 16 18
f 15 18 17

