# https://github.com/mikedh/trimesh
v -1.56268970 -10.80703783 6.34074924
v -1.56265825 -10.80703783 6.33902598
v -1.56265825 -10.80703783 6.34133678
v -1.56014889 -10.74994323 6.34638854
v -1.56024323 -10.74994323 6.34306004
v -1.56025895 -10.74994323 6.34074924
v -1.56025895 -10.74994323 6.34067055
v -1.56263309 -10.80703783 6.33843844
v -1.56015517 -10.74994323 6.33612764
v -1.56007342 -10.74994323 6.33381683
v -1.56253247 -10.80703783 6.34306004
v -1.54106452 -10.74994323 6.34638854
v -1.56248215 -10.80703783 6.34364758
v -1.56224003 -10.80531617 6.34537085
v -1.56212996 -10.80531617 6.34638854
v -1.56244756 -10.80703783 6.33671517
v -1.55987845 -10.74994323 6.33150865
v -1.53670930 -10.75447100 6.31959530
v -1.53703948 -10.75217358 6.31959530
v -1.53736652 -10.74994323 6.31959530
v -1.53851743 -10.80531617 6.34638854
v -1.53065916 -10.80300756 6.31959530
v -1.53079438 -10.80069896 6.31959530
v -1.56220543 -10.80703783 6.34596101
v -1.56215197 -10.80661301 6.34638854
v -1.56237209 -10.80703783 6.33612764
v -1.55986588 -10.74994323 6.33142734
v -1.55250131 -10.74994323 6.31959530
v -1.53850171 -10.80703783 6.34638854
v -1.53056797 -10.80703783 6.31959530
v -1.56214883 -10.80703783 6.34638854
v -1.56209852 -10.80703783 6.33440437
v -1.55951054 -10.74994323 6.32919785
v -1.55716470 -10.74994323 6.31989694
v -1.55710809 -10.74994882 6.31959530
v -1.55138813 -10.80703783 6.31959530
v -1.56199789 -10.80703783 6.33381683
v -1.55949796 -10.74994323 6.32914277
v -1.55899483 -10.74994323 6.32697361
v -1.55679364 -10.76372777 6.31959530
v -1.56060485 -10.80703783 6.32935523
v -1.56110169 -10.80703783 6.33043063
v -1.56140671 -10.80703783 6.33147456
v -1.55854516 -10.80703783 6.32635460
v -1.55653893 -10.79504763 6.32106676
v -1.55452641 -10.79601467 6.31959530
v -1.55678106 -10.76413583 6.31959530
v -1.55968035 -10.80703783 6.32769491
v -1.55672760 -10.76579601 6.31959530
v -1.55940677 -10.80703783 6.32721754
v -1.55593831 -10.78434309 6.31959530
v -1.55492262 -10.79379551 6.31959530
f 1 2 8
f 1 8 16
f 1 16 26
f 1 26 32
f 1 32 37
f 1 37 43
f 1 43 42
f 1 42 41
f 1 41 48
f 1 48 50
f 1 50 44
f 1 44 36
f 1 36 30
f 1 30 29
f 1 29 31
f 1 31 24
f 1 24 13
f 1 13 11
f 1 11 3
f 1 3 4
f 1 4 5
f 1 5 6
f 1 6 7
f 1 7 2
f 2 7 9
f 2 9 10
f 2 10 8
f 3 11 4
f 4 12 20
f 4 20 28
f 4 28 34
f 4 34 39
f 4 39 38
f 4 38 33
f 4 33 27
f 4 27 17
f 4 17 10
f 4 10 9
f 4 9 7
f 4 7 6
f 4 6 5
f 4 11 13
f 4 13 14
f 4 14 15
f 4 15 25
f 4 25 31
f 4 31 29
f 4 29 21
f 4 21 12
f 8 10 17
f 8 17 16
f 12 18 19
f 12 19 20
f 12 21 22
f 12 22 23
f 12 23 18
f 13 24 25
f 13 25 15
f 13 15 14
f 16 17 26
f 17 27 26
f 18 23 22
f 18 22 30
f 18 30 36
f 18 36 46
f 18 46 52
f 18 52 51
f 18 51 49
f 18 49 47
f 18 47 40
f 18 40 35
f 18 35 28
f 18 28 20
f 18 20 19
f 21 29 30
f 21 30 22
f 24 31 25
f 26 27 32
f 27 33 32
f 28 35 34
f 32 33 37
f 33 38 37
f 34 35 39
f 35 40 41
f 35 41 42
f 35 42 43
f 35 43 39
f 36 44 45
f 36 45 46
f 37 38 39
f 37 39 43
f 40 47 41
f 41 45 48
f 41 47 49
f 41 49 45
f 44 50 45
f 45 51 52
f 45 52 46
f 45 50 48
f 45 49 51

