# https://github.com/mikedh/trimesh
v -1.36928509 -10.86209189 6.36959198
v -1.36929309 -10.86180942 6.36959198
v -1.36930109 -10.86187342 6.36969007
v -1.36930109 -10.86202790 6.36969007
v -1.36932509 -10.86225079 6.36959198
v -1.36967716 -10.86057802 6.36959198
v -1.37157351 -10.85951654 6.37443926
v -1.37182956 -10.86033085 6.37598419
v -1.37411798 -10.86031320 6.38296493
v -1.37391793 -10.86185356 6.38355347
v -1.37391793 -10.86201686 6.38355347
v -1.37369389 -10.86291062 6.38231100
v -1.37381392 -10.86443332 6.38150993
v -1.36962915 -10.86332992 6.36959198
v -1.37062133 -10.85852127 6.36959198
v -1.38038312 -10.84577912 6.38224560
v -1.38067118 -10.84577912 6.38314476
v -1.37386993 -10.85947903 6.38142819
v -1.37623036 -10.85956730 6.38818823
v -1.37611835 -10.86078325 6.38844980
v -1.37659843 -10.86078325 6.38960236
v -1.37609434 -10.86258842 6.38849068
v -1.37416598 -10.86355722 6.38305485
v -1.37629438 -10.86412878 6.38803292
v -1.37499813 -10.86507109 6.38231100
v -1.37509416 -10.86576182 6.38003858
v -1.37360588 -10.86468269 6.38003858
v -1.37096540 -10.86495634 6.37079358
v -1.36996522 -10.86401623 6.36959198
v -1.37602233 -10.86451498 6.38649618
v -1.37566226 -10.86482614 6.38466516
v -1.37732657 -10.84577912 6.36959198
v -1.37733457 -10.84577912 6.36965737
v -1.37756661 -10.84577912 6.37084263
v -1.37807070 -10.84577912 6.37310687
v -1.37826274 -10.84577912 6.37396516
v -1.37891885 -10.84577912 6.37676073
v -1.37915090 -10.84577912 6.37773346
v -1.37939094 -10.84577912 6.37871436
v -1.37971100 -10.84577912 6.37994866
v -1.38127129 -10.84577912 6.38484499
v -1.37724655 -10.85616439 6.38697028
v -1.37648641 -10.85791660 6.38697028
v -1.37691849 -10.85866692 6.38908739
v -1.37808670 -10.85855878 6.39159686
v -1.37847077 -10.85938634 6.39292925
v -1.37756661 -10.86078325 6.39159686
v -1.38071119 -10.86238319 6.39764575
v -1.37665445 -10.86325268 6.38927539
v -1.38103125 -10.86392355 6.39709808
v -1.38062317 -10.86447746 6.39555316
v -1.37823073 -10.86453263 6.39103284
v -1.37776664 -10.86484159 6.38928357
v -1.37680647 -10.86648566 6.38003858
v -1.37639039 -10.86654745 6.37873888
v -1.37418999 -10.86649669 6.37380986
v -1.37226164 -10.86625836 6.36959198
v -1.37740658 -10.86579713 6.38466516
v -1.37153350 -10.86570445 6.36959198
v -1.37066135 -10.86501372 6.36959198
v -1.45102811 -10.84577912 6.36959198
v -1.38151934 -10.84577912 6.38548258
v -1.37806270 -10.85616439 6.38923453
v -1.37835875 -10.85693457 6.39082032
v -1.37876683 -10.85784598 6.39236523
v -1.38046314 -10.85861396 6.39616622
v -1.38081520 -10.85947903 6.39747409
v -1.37995105 -10.86078325 6.39621527
v -1.38070318 -10.86078325 6.39765392
v -1.38316764 -10.86199480 6.40202711
v -1.38544006 -10.86430974 6.40438945
v -1.38301561 -10.86443553 6.39998357
v -1.38259153 -10.86474228 6.39852856
v -1.38434386 -10.86565811 6.39852856
v -1.38434386 -10.86600458 6.39621527
v -1.38664828 -10.86589644 6.40084185
v -1.38664828 -10.86617009 6.39852856
v -1.37740658 -10.86741694 6.37079358
v -1.37509416 -10.86713005 6.36959198
v -1.37509416 -10.86701971 6.37079358
v -1.37385393 -10.86660041 6.37226493
v -1.37281374 -10.86652759 6.36959198
v -1.45102811 -10.84577912 6.44670716
v -1.45102811 -10.86161081 6.36959198
v -1.38211944 -10.84577912 6.38692123
v -1.38264755 -10.84577912 6.38813918
v -1.38103925 -10.85304837 6.39238976
v -1.38334367 -10.85071577 6.39473575
v -1.38296760 -10.85225612 6.39546325
v -1.38534404 -10.85469244 6.40228869
v -1.38071119 -10.85697429 6.39536516
v -1.38542405 -10.85714422 6.40443849
v -1.38323965 -10.86020507 6.40189632
v -1.38522401 -10.85847272 6.40478999
v -1.38588814 -10.85847272 6.40595072
v -1.38570410 -10.86078325 6.40625316
v -1.38316764 -10.86174543 6.40202711
v -1.38768047 -10.86224196 6.40909777
v -1.38522401 -10.86309378 6.40477364
v -1.38596016 -10.86309378 6.40592619
v -1.38807254 -10.86378232 6.40859097
v -1.39019293 -10.86414203 6.41114949
v -1.38752844 -10.86448849 6.40704605
v -1.38671229 -10.86471359 6.40528044
v -1.38509599 -10.86459000 6.40314697
v -1.38428784 -10.86493427 6.40079281
v -1.38664828 -10.86538005 6.40314697
v -1.38896070 -10.86562500 6.40546027
v -1.38896070 -10.86599354 6.40314697
v -1.39127313 -10.86576845 6.40777355
v -1.39358555 -10.86587658 6.41008685
v -1.38203143 -10.86773472 6.37310687
v -1.37971901 -10.86749638 6.37310687
v -1.39127313 -10.86608182 6.40546027
v -1.39358555 -10.86613478 6.40777355
v -1.37971901 -10.86767954 6.37079358
v -1.37740658 -10.86751183 6.36959198
v -1.37341385 -10.86673062 6.36959198
v -1.45102811 -10.84925044 6.44879157
v -1.43972203 -10.84577912 6.44279173
v -1.45008393 -10.86191314 6.36959198
v -1.45102811 -10.86332992 6.40084185
v -1.38379175 -10.84577912 6.39043613
v -1.38612818 -10.84577912 6.39498914
v -1.38676029 -10.84577912 6.39621527
v -1.38851262 -10.84577912 6.39950129
v -1.38573611 -10.85315209 6.40154484
v -1.38620820 -10.85389358 6.40309793
v -1.38775248 -10.85489768 6.40671092
v -1.38576011 -10.85560386 6.40382543
v -1.38747243 -10.85616439 6.40715232
v -1.38790451 -10.85764737 6.40877898
v -1.38712036 -10.85843961 6.40791252
v -1.38768047 -10.85918773 6.40910595
v -1.38667228 -10.86078325 6.40777355
v -1.38762446 -10.86078325 6.40918769
v -1.38846461 -10.86078325 6.41034842
v -1.38961682 -10.86078325 6.41189334
v -1.39164920 -10.86078325 6.41457447
v -1.39252935 -10.86078325 6.41572703
v -1.38980886 -10.86260167 6.41162360
v -1.39296944 -10.86309378 6.41522840
v -1.39239333 -10.86428326 6.41359357
v -1.38960882 -10.86457235 6.40961275
v -1.38888869 -10.86489013 6.40779808
v -1.39108909 -10.86502034 6.41025850
v -1.39358555 -10.86529398 6.41238379
v -1.39589798 -10.86615464 6.41008685
v -1.39821040 -10.86544846 6.41701038
v -1.40051483 -10.86549260 6.41931550
v -1.40051483 -10.86590968 6.41701038
v -1.38434386 -10.86792009 6.37310687
v -1.38203143 -10.86789582 6.37079358
v -1.37971901 -10.86775678 6.36959198
v -1.45102811 -10.85399510 6.45153810
v -1.44777151 -10.85030089 6.44826026
v -1.43886587 -10.84577912 6.44244024
v -1.44322667 -10.85728766 6.45053267
v -1.44021812 -10.86409568 6.36959198
v -1.43979404 -10.86505344 6.38466516
v -1.43979404 -10.86515495 6.38697028
v -1.44566712 -10.86427002 6.39669755
v -1.45102811 -10.86333874 6.40116882
v -1.38920075 -10.84577912 6.40076829
v -1.38970484 -10.84577912 6.40167562
v -1.38771247 -10.85252977 6.40447119
v -1.38741642 -10.85401716 6.40532948
v -1.39186524 -10.84577912 6.40514147
v -1.38899271 -10.85391565 6.40771634
v -1.38980886 -10.85447397 6.40935117
v -1.38942479 -10.85620411 6.41011137
v -1.38995289 -10.85700298 6.41146011
v -1.38822456 -10.85616439 6.40830488
v -1.39070502 -10.84577912 6.40336767
v -1.38847261 -10.85843961 6.40996423
v -1.38972085 -10.85847272 6.41176255
v -1.39058500 -10.85847272 6.41292329
v -1.39265738 -10.85847272 6.41557172
v -1.39467375 -10.85939958 6.41823650
v -1.39467375 -10.86020948 6.41823650
v -1.39385760 -10.86090021 6.41722290
v -1.39476177 -10.86174984 6.41813842
v -1.39174521 -10.85847272 6.41441099
v -1.39699418 -10.86203452 6.42053345
v -1.39412165 -10.86309378 6.41652810
v -1.39187324 -10.86458118 6.41238379
v -1.39460173 -10.86435388 6.41601313
v -1.39601000 -10.86465401 6.41687142
v -1.39829042 -10.86471138 6.41920923
v -1.39821040 -10.86614581 6.41238379
v -1.40282725 -10.86586334 6.41931550
v -1.40061084 -10.86470255 6.42155522
v -1.40297128 -10.86461649 6.42384399
v -1.40282725 -10.86538005 6.42162878
v -1.40282725 -10.86605312 6.41701038
v -1.38664828 -10.86804147 6.37310687
v -1.38554407 -10.86820256 6.36959198
v -1.38434386 -10.86805912 6.37079358
v -1.38323165 -10.86805029 6.36959198
v -1.38203143 -10.86795099 6.36959198
v -1.45102811 -10.85525739 6.45222473
v -1.43759363 -10.84577912 6.44187623
v -1.45102811 -10.85616439 6.45270701
v -1.45019595 -10.85733400 6.45282962
v -1.45003592 -10.85887436 6.45287866
v -1.44441889 -10.85847272 6.45098226
v -1.44315466 -10.85847272 6.45055720
v -1.43517719 -10.85847272 6.44712404
v -1.43320883 -10.85847272 6.44625758
v -1.43369692 -10.85704270 6.44605323
v -1.43961801 -10.86422809 6.36959198
v -1.43905790 -10.86433181 6.36959198
v -1.43748161 -10.86534032 6.38235187
v -1.43748161 -10.86542198 6.38466516
v -1.43748161 -10.86547715 6.38697028
v -1.43979404 -10.86518143 6.38928357
v -1.45102811 -10.86411555 6.44011878
v -1.45102811 -10.86338067 6.40314697
v -1.39304945 -10.84577912 6.40684170
v -1.39372158 -10.84577912 6.40778173
v -1.39428168 -10.84577912 6.40852558
v -1.39039297 -10.85546262 6.41089609
v -1.39207327 -10.85672933 6.41398593
v -1.39489779 -10.85785922 6.41798310
v -1.39689816 -10.85904649 6.42064788
v -1.39689016 -10.86078325 6.42064788
v -1.39929860 -10.85717732 6.42285492
v -1.39797036 -10.86078325 6.42180862
v -1.39913057 -10.86078325 6.42302657
v -1.40139499 -10.86078325 6.42538891
v -1.40153901 -10.86212941 6.42523360
v -1.39841844 -10.86283118 6.42139991
v -1.39757028 -10.86357487 6.41991221
v -1.39911457 -10.86441346 6.42072963
v -1.39821040 -10.86628484 6.41008685
v -1.38664828 -10.86825773 6.36959198
v -1.40513967 -10.86594720 6.41931550
v -1.40513967 -10.86568238 6.42162878
v -1.40144300 -10.86438919 6.42300205
v -1.40382744 -10.86433623 6.42523360
v -1.40535572 -10.86449953 6.42610006
v -1.40513967 -10.86518585 6.42394208
v -1.40513967 -10.86608623 6.41701038
v -1.38896070 -10.86832394 6.36959198
v -1.38434386 -10.86812753 6.36959198
v -1.43708955 -10.84577912 6.44163917
v -1.45102811 -10.85815494 6.45308302
v -1.45102811 -10.85830721 6.45309937
v -1.45003592 -10.85974605 6.45287866
v -1.44315466 -10.85971737 6.45055720
v -1.43326484 -10.86033748 6.44622489
v -1.43819375 -10.85999763 6.44839104
v -1.43205662 -10.85847272 6.44571809
v -1.42900806 -10.85700519 6.44378081
v -1.43507317 -10.84577912 6.44067462
v -1.43055234 -10.86578169 6.36959198
v -1.43517719 -10.86559632 6.38003858
v -1.43517719 -10.86566473 6.38235187
v -1.43517719 -10.86573534 6.38697028
v -1.43748161 -10.86549480 6.38928357
v -1.43517719 -10.86570666 6.38466516
v -1.45102811 -10.86412658 6.44243206
v -1.39560192 -10.84577912 6.41027485
v -1.39619403 -10.84577912 6.41105140
v -1.39754628 -10.84577912 6.41279250
v -1.39467375 -10.85489547 6.41593956
v -1.39430568 -10.85616439 6.41635644
v -1.39914657 -10.85847272 6.42300205
v -1.39869049 -10.85631004 6.42164513
v -1.39968267 -10.85563917 6.42242168
v -1.40157102 -10.85712436 6.42520090
v -1.40142699 -10.85847272 6.42535621
v -1.40257920 -10.85847272 6.42650877
v -1.40373142 -10.85847272 6.42763681
v -1.40261121 -10.86078325 6.42654146
v -1.40376342 -10.86078325 6.42760411
v -1.40392345 -10.86201686 6.42745698
v -1.40310730 -10.86284221 6.42601015
v -1.40229115 -10.86366977 6.42454696
v -1.39989871 -10.86362563 6.42227455
v -1.40745210 -10.86594058 6.41931550
v -1.40745210 -10.86574638 6.42162878
v -1.45102811 -10.86390810 6.44473719
v -1.40745210 -10.86545508 6.42394208
v -1.40473960 -10.86355722 6.42677852
v -1.40627588 -10.86425899 6.42742428
v -1.40745210 -10.86489455 6.42625537
v -1.40745210 -10.86606195 6.41701038
v -1.39127313 -10.86826656 6.36959198
v -1.45102811 -10.85992480 6.45296858
v -1.45102811 -10.86079208 6.45242908
v -1.44917977 -10.86062215 6.45206125
v -1.44675532 -10.86088256 6.45112122
v -1.44441889 -10.86010796 6.45078607
v -1.43415301 -10.86187783 6.44584069
v -1.42935213 -10.86195728 6.44360915
v -1.42882403 -10.86078325 6.44386254
v -1.42739976 -10.85847272 6.44342114
v -1.42449523 -10.85704050 6.44142664
v -1.42830393 -10.84577912 6.43732321
v -1.43041632 -10.84577912 6.43840219
v -1.43094441 -10.84577912 6.43866377
v -1.43292078 -10.84577912 6.43963650
v -1.42823992 -10.86614581 6.36959198
v -1.43286477 -10.86594058 6.38697028
v -1.43517719 -10.86573534 6.38928357
v -1.43286477 -10.86588762 6.38235187
v -1.43286477 -10.86593837 6.38928357
v -1.43055234 -10.86609505 6.38928357
v -1.43055234 -10.86606416 6.39159686
v -1.43055234 -10.86602223 6.39391016
v -1.42823992 -10.86612595 6.39391016
v -1.39869849 -10.84577912 6.41422298
v -1.39685015 -10.85469244 6.41839998
v -1.40122695 -10.85437908 6.42323093
v -1.40198709 -10.85558400 6.42476767
v -1.39903455 -10.85451590 6.42087677
v -1.40293127 -10.85634976 6.42614911
v -1.40388344 -10.85711332 6.42750602
v -1.40627588 -10.85727884 6.42973757
v -1.40503565 -10.85847272 6.42878936
v -1.40617986 -10.86006383 6.42981931
v -1.40529970 -10.86081415 6.42890380
v -1.40640391 -10.86160419 6.42963948
v -1.41048465 -10.86229713 6.43232878
v -1.40794819 -10.86248030 6.43021985
v -1.40535572 -10.86291062 6.42785751
v -1.45102811 -10.86348660 6.44705047
v -1.41206094 -10.86438036 6.43012176
v -1.45102811 -10.86299889 6.44936377
v -1.41314915 -10.86199259 6.43438868
v -1.41225298 -10.86257519 6.43312985
v -1.42191075 -10.86219341 6.43927683
v -1.42477528 -10.86193962 6.44127133
v -1.41206094 -10.86384852 6.43127431
v -1.41072470 -10.86430091 6.42983566
v -1.39247335 -10.86820477 6.36959198
v -1.45102811 -10.86106131 6.45224107
v -1.44753946 -10.86204113 6.45065529
v -1.43569729 -10.86207644 6.44607775
v -1.43286477 -10.86236775 6.44437752
v -1.43055234 -10.86211837 6.44386254
v -1.42384711 -10.86235009 6.44007790
v -1.42592750 -10.86212941 6.44154108
v -1.42766381 -10.86078325 6.44325766
v -1.41972635 -10.86017417 6.43919509
v -1.42592750 -10.85847272 6.44262825
v -1.41997440 -10.85712877 6.43906431
v -1.42636757 -10.84577912 6.43628509
v -1.39821040 -10.86788037 6.36959198
v -1.43055234 -10.86608623 6.38697028
v -1.40417950 -10.84577912 6.42023918
v -1.40532371 -10.84577912 6.42146530
v -1.40402747 -10.85276149 6.42505376
v -1.40353138 -10.85430405 6.42556056
v -1.40429952 -10.85557517 6.42709731
v -1.40668396 -10.85574068 6.42936973
v -1.40618787 -10.85847272 6.42980296
v -1.40745210 -10.85637183 6.43030976
v -1.40918041 -10.85616439 6.43160128
v -1.41032463 -10.85616439 6.43248410
v -1.41284509 -10.85676023 6.43460120
v -1.40993256 -10.85847272 6.43278654
v -1.40878035 -10.85847272 6.43189555
v -1.40745210 -10.85847272 6.43082474
v -1.41146084 -10.85847272 6.43393909
v -1.40892437 -10.86078325 6.43178929
v -1.40728407 -10.86081415 6.43050595
v -1.41007658 -10.86078325 6.43264758
v -1.43286477 -10.86306068 6.44243206
v -1.45102811 -10.86293048 6.44957630
v -1.41169288 -10.86078325 6.43380014
v -1.41284509 -10.86078325 6.43460120
v -1.41547758 -10.85972619 6.43668562
v -1.42036647 -10.86171453 6.43881908
v -1.42435921 -10.86078325 6.44152473
v -1.42592750 -10.86078325 6.44235033
v -1.43055234 -10.86272967 6.44243206
v -1.45102811 -10.86233906 6.45108035
v -1.44903574 -10.86218900 6.45086782
v -1.43502516 -10.86247588 6.44493336
v -1.41970235 -10.85847272 6.43921144
v -1.41855014 -10.85847272 6.43853298
v -1.41558159 -10.85765399 6.43662023
v -1.41424535 -10.85605846 6.43516522
v -1.41339719 -10.85521988 6.43422520
v -1.42387111 -10.84577912 6.43488730
v -1.42487930 -10.84577912 6.43545949
v -1.42583948 -10.84577912 6.43599899
v -1.40759613 -10.84577912 6.42380312
v -1.40583580 -10.85437025 6.42782481
v -1.40822824 -10.85450928 6.43004819
v -1.41074071 -10.85484913 6.43214895
v -1.41206895 -10.85605846 6.43371022
v -1.41262105 -10.85847272 6.43476469
v -1.41547758 -10.85919435 6.43668562
v -1.41648576 -10.85844403 6.43725781
v -1.41457341 -10.85844403 6.43604803
v -1.41243702 -10.84577912 6.42786568
v -1.41336519 -10.84577912 6.42849510
v -1.41478145 -10.84577912 6.42941060
v -1.41674181 -10.84577912 6.43066125
v -1.41900622 -10.84577912 6.43206721
v -1.42122263 -10.84577912 6.43335873
v -1.40878835 -10.84577912 6.42492298
v -1.40942046 -10.84577912 6.42549517
v -1.41135682 -10.84577912 6.42707279
v -1.40998057 -10.84577912 6.42598562
v -1.41094074 -10.84577912 6.42674582
f 1 2 3
f 1 3 4
f 1 4 5
f 1 5 14
f 1 14 29
f 1 29 60
f 1 60 59
f 1 59 57
f 1 57 82
f 1 82 118
f 1 118 79
f 1 79 117
f 1 117 154
f 1 154 200
f 1 200 199
f 1 199 245
f 1 245 197
f 1 197 236
f 1 236 244
f 1 244 289
f 1 289 337
f 1 337 350
f 1 350 304
f 1 304 256
f 1 256 212
f 1 212 211
f 1 211 159
f 1 159 121
f 1 121 84
f 1 84 61
f 1 61 32
f 1 32 15
f 1 15 6
f 1 6 2
f 2 6 3
f 3 6 7
f 3 7 8
f 3 8 9
f 3 9 10
f 3 10 11
f 3 11 4
f 4 11 12
f 4 12 13
f 4 13 5
f 5 13 14
f 6 15 7
f 7 15 16
f 7 16 17
f 7 17 18
f 7 18 8
f 8 18 9
f 9 18 19
f 9 19 10
f 10 19 20
f 10 20 21
f 10 21 22
f 10 22 11
f 11 23 13
f 11 13 12
f 11 22 24
f 11 24 23
f 13 25 26
f 13 26 27
f 13 27 28
f 13 28 29
f 13 29 14
f 13 23 24
f 13 24 30
f 13 30 31
f 13 31 25
f 15 32 33
f 15 33 34
f 15 34 35
f 15 35 36
f 15 36 37
f 15 37 38
f 15 38 39
f 15 39 40
f 15 40 16
f 16 40 39
f 16 39 38
f 16 38 37
f 16 37 36
f 16 36 35
f 16 35 34
f 16 34 33
f 16 33 32
f 16 32 61
f 16 61 83
f 16 83 120
f 16 120 157
f 16 157 202
f 16 202 246
f 16 246 255
f 16 255 303
f 16 303 302
f 16 302 301
f 16 301 300
f 16 300 349
f 16 349 389
f 16 389 388
f 16 388 387
f 16 387 404
f 16 404 403
f 16 403 402
f 16 402 401
f 16 401 400
f 16 400 399
f 16 399 407
f 16 407 409
f 16 409 408
f 16 408 406
f 16 406 405
f 16 405 390
f 16 390 353
f 16 353 352
f 16 352 313
f 16 313 265
f 16 265 264
f 16 264 263
f 16 263 221
f 16 221 220
f 16 220 219
f 16 219 168
f 16 168 174
f 16 174 165
f 16 165 164
f 16 164 126
f 16 126 125
f 16 125 124
f 16 124 123
f 16 123 86
f 16 86 85
f 16 85 62
f 16 62 41
f 16 41 17
f 17 41 42
f 17 42 18
f 18 42 43
f 18 43 44
f 18 44 19
f 19 44 45
f 19 45 46
f 19 46 21
f 19 21 20
f 21 46 47
f 21 47 22
f 22 47 48
f 22 48 49
f 22 49 24
f 24 49 48
f 24 48 50
f 24 50 51
f 24 51 52
f 24 52 30
f 25 31 53
f 25 53 26
f 26 54 55
f 26 55 56
f 26 56 57
f 26 57 27
f 26 53 58
f 26 58 54
f 27 57 59
f 27 59 28
f 28 59 60
f 28 60 29
f 30 52 53
f 30 53 31
f 41 62 63
f 41 63 42
f 42 63 44
f 42 44 43
f 44 63 64
f 44 64 45
f 45 64 65
f 45 65 66
f 45 66 67
f 45 67 46
f 46 67 68
f 46 68 47
f 47 68 48
f 48 68 69
f 48 69 70
f 48 70 71
f 48 71 50
f 50 72 51
f 50 71 72
f 51 72 73
f 51 73 52
f 52 73 53
f 53 73 74
f 53 74 58
f 54 58 74
f 54 74 75
f 54 75 76
f 54 76 77
f 54 77 55
f 55 78 79
f 55 79 80
f 55 80 81
f 55 81 56
f 55 77 78
f 56 81 57
f 57 81 82
f 61 84 122
f 61 122 163
f 61 163 218
f 61 218 217
f 61 217 262
f 61 262 283
f 61 283 328
f 61 328 330
f 61 330 371
f 61 371 379
f 61 379 338
f 61 338 291
f 61 291 290
f 61 290 248
f 61 248 247
f 61 247 203
f 61 203 201
f 61 201 155
f 61 155 119
f 61 119 83
f 62 85 63
f 63 85 64
f 64 85 86
f 64 86 87
f 64 87 88
f 64 88 89
f 64 89 90
f 64 90 91
f 64 91 65
f 65 91 92
f 65 92 66
f 66 92 67
f 67 93 69
f 67 69 68
f 67 92 94
f 67 94 95
f 67 95 93
f 69 93 96
f 69 96 97
f 69 97 70
f 70 97 96
f 70 96 98
f 70 98 99
f 70 99 71
f 71 99 100
f 71 100 98
f 71 98 101
f 71 101 102
f 71 102 103
f 71 103 104
f 71 104 105
f 71 105 72
f 72 105 73
f 73 105 106
f 73 106 74
f 74 106 107
f 74 107 108
f 74 108 76
f 74 76 75
f 76 109 77
f 76 108 110
f 76 110 111
f 76 111 109
f 77 112 113
f 77 113 78
f 77 109 114
f 77 114 115
f 77 115 112
f 78 113 116
f 78 116 117
f 78 117 79
f 79 118 81
f 79 81 80
f 81 118 82
f 83 119 120
f 84 121 122
f 86 123 88
f 86 88 87
f 88 124 125
f 88 125 126
f 88 126 127
f 88 127 90
f 88 90 89
f 88 123 124
f 90 127 128
f 90 128 129
f 90 129 130
f 90 130 91
f 91 130 92
f 92 129 131
f 92 131 132
f 92 132 95
f 92 95 94
f 92 130 129
f 93 95 96
f 95 132 133
f 95 133 134
f 95 134 96
f 96 134 135
f 96 135 98
f 98 100 99
f 98 135 136
f 98 136 137
f 98 137 138
f 98 138 139
f 98 139 140
f 98 140 141
f 98 141 102
f 98 102 101
f 102 141 142
f 102 142 143
f 102 143 144
f 102 144 103
f 103 144 145
f 103 145 104
f 104 145 107
f 104 107 105
f 105 107 106
f 107 145 108
f 108 145 146
f 108 146 147
f 108 147 110
f 109 111 114
f 110 147 111
f 111 148 115
f 111 115 114
f 111 147 149
f 111 149 150
f 111 150 151
f 111 151 148
f 112 152 153
f 112 153 116
f 112 116 113
f 112 115 148
f 112 148 152
f 116 153 154
f 116 154 117
f 119 155 156
f 119 156 120
f 120 156 155
f 120 155 158
f 120 158 157
f 121 159 160
f 121 160 122
f 122 160 161
f 122 161 162
f 122 162 163
f 126 164 127
f 127 164 165
f 127 165 128
f 128 165 166
f 128 166 167
f 128 167 129
f 129 168 169
f 129 169 170
f 129 170 171
f 129 171 172
f 129 172 173
f 129 173 131
f 129 167 166
f 129 166 165
f 129 165 174
f 129 174 168
f 131 173 132
f 132 175 134
f 132 134 133
f 132 173 172
f 132 172 175
f 134 175 176
f 134 176 137
f 134 137 136
f 134 136 135
f 137 176 177
f 137 177 138
f 138 177 139
f 139 177 140
f 140 178 179
f 140 179 180
f 140 180 181
f 140 181 182
f 140 182 141
f 140 177 183
f 140 183 178
f 141 182 142
f 142 182 184
f 142 184 185
f 142 185 143
f 143 186 144
f 143 185 187
f 143 187 186
f 144 186 146
f 144 146 145
f 146 186 147
f 147 186 188
f 147 188 189
f 147 189 149
f 148 151 190
f 148 190 152
f 149 189 150
f 150 191 151
f 150 189 192
f 150 192 193
f 150 193 194
f 150 194 191
f 151 191 195
f 151 195 190
f 152 196 197
f 152 197 198
f 152 198 153
f 152 190 196
f 153 198 199
f 153 199 200
f 153 200 154
f 155 201 158
f 157 158 202
f 158 201 203
f 158 203 204
f 158 204 205
f 158 205 206
f 158 206 207
f 158 207 208
f 158 208 209
f 158 209 210
f 158 210 202
f 159 211 160
f 160 211 212
f 160 212 213
f 160 213 161
f 161 213 214
f 161 214 215
f 161 215 216
f 161 216 217
f 161 217 162
f 162 218 163
f 162 217 218
f 168 219 170
f 168 170 169
f 170 219 220
f 170 220 221
f 170 221 222
f 170 222 172
f 170 172 171
f 172 176 175
f 172 222 223
f 172 223 178
f 172 178 183
f 172 183 177
f 172 177 176
f 178 224 179
f 178 223 224
f 179 225 226
f 179 226 180
f 179 224 227
f 179 227 225
f 180 182 181
f 180 226 182
f 182 226 184
f 184 226 228
f 184 228 229
f 184 229 230
f 184 230 231
f 184 231 232
f 184 232 233
f 184 233 185
f 185 233 187
f 186 187 188
f 187 233 234
f 187 234 189
f 187 189 188
f 189 234 192
f 190 235 236
f 190 236 196
f 190 195 235
f 191 237 195
f 191 194 238
f 191 238 237
f 192 234 239
f 192 239 193
f 193 239 240
f 193 240 241
f 193 241 194
f 194 241 242
f 194 242 238
f 195 237 243
f 195 243 244
f 195 244 236
f 195 236 235
f 196 236 197
f 197 245 198
f 198 245 199
f 202 210 246
f 203 247 204
f 204 247 248
f 204 248 205
f 205 248 249
f 205 249 250
f 205 250 207
f 205 207 206
f 207 250 208
f 208 251 209
f 208 250 252
f 208 252 251
f 209 251 253
f 209 253 210
f 210 253 254
f 210 254 255
f 210 255 246
f 212 256 213
f 213 256 257
f 213 257 214
f 214 257 258
f 214 258 215
f 215 259 260
f 215 260 217
f 215 217 216
f 215 258 261
f 215 261 259
f 217 260 262
f 221 263 222
f 222 263 264
f 222 264 265
f 222 265 266
f 222 266 223
f 223 266 267
f 223 267 224
f 224 267 227
f 225 227 268
f 225 268 228
f 225 228 226
f 227 267 269
f 227 269 270
f 227 270 271
f 227 271 268
f 228 268 229
f 229 268 230
f 230 268 272
f 230 272 273
f 230 273 274
f 230 274 275
f 230 275 231
f 231 275 276
f 231 276 277
f 231 277 278
f 231 278 279
f 231 279 280
f 231 280 233
f 231 233 232
f 233 280 234
f 234 280 279
f 234 279 239
f 237 281 243
f 237 238 282
f 237 282 283
f 237 283 262
f 237 262 281
f 238 242 284
f 238 284 282
f 239 279 240
f 240 279 285
f 240 285 286
f 240 286 241
f 241 286 242
f 242 286 287
f 242 287 284
f 243 281 288
f 243 288 244
f 244 288 262
f 244 262 289
f 248 290 249
f 249 290 291
f 249 291 292
f 249 292 293
f 249 293 294
f 249 294 250
f 250 294 295
f 250 295 251
f 250 251 252
f 251 295 296
f 251 296 297
f 251 297 298
f 251 298 253
f 253 298 254
f 254 298 299
f 254 299 300
f 254 300 301
f 254 301 302
f 254 302 303
f 254 303 255
f 256 304 257
f 257 304 258
f 258 304 261
f 259 305 306
f 259 306 262
f 259 262 260
f 259 261 307
f 259 307 305
f 261 304 307
f 262 288 281
f 262 306 308
f 262 308 309
f 262 309 310
f 262 310 311
f 262 311 312
f 262 312 289
f 265 313 266
f 266 314 270
f 266 270 267
f 266 313 314
f 267 270 269
f 268 271 272
f 270 315 316
f 270 316 271
f 270 314 317
f 270 317 313
f 270 313 315
f 271 316 318
f 271 318 319
f 271 319 273
f 271 273 272
f 273 319 274
f 274 319 320
f 274 320 321
f 274 321 322
f 274 322 276
f 274 276 275
f 276 322 323
f 276 323 277
f 277 323 324
f 277 324 325
f 277 325 326
f 277 326 327
f 277 327 285
f 277 285 278
f 278 285 279
f 282 284 283
f 283 284 328
f 284 287 329
f 284 329 330
f 284 330 328
f 285 327 286
f 286 327 326
f 286 326 325
f 286 325 331
f 286 331 332
f 286 332 333
f 286 333 334
f 286 334 335
f 286 335 336
f 286 336 287
f 287 336 329
f 289 312 311
f 289 311 310
f 289 310 309
f 289 309 337
f 291 338 339
f 291 339 292
f 292 339 293
f 293 339 294
f 294 339 295
f 295 339 340
f 295 340 341
f 295 341 342
f 295 342 296
f 296 343 344
f 296 344 334
f 296 334 297
f 296 342 336
f 296 336 343
f 297 334 345
f 297 345 298
f 298 345 346
f 298 346 347
f 298 347 348
f 298 348 299
f 299 348 300
f 300 348 349
f 304 350 351
f 304 351 305
f 304 305 307
f 305 351 309
f 305 309 308
f 305 308 306
f 309 351 350
f 309 350 337
f 313 352 315
f 313 317 314
f 315 352 353
f 315 353 354
f 315 354 355
f 315 355 316
f 316 355 356
f 316 356 318
f 318 356 319
f 319 356 357
f 319 357 320
f 320 358 321
f 320 357 359
f 320 359 360
f 320 360 361
f 320 361 362
f 320 362 363
f 320 363 364
f 320 364 365
f 320 365 358
f 321 358 322
f 322 324 323
f 322 358 365
f 322 365 364
f 322 364 363
f 322 363 366
f 322 366 367
f 322 367 368
f 322 368 324
f 324 368 367
f 324 367 369
f 324 369 325
f 325 369 331
f 329 336 370
f 329 370 330
f 330 370 371
f 331 369 372
f 331 372 373
f 331 373 374
f 331 374 346
f 331 346 375
f 331 375 334
f 331 334 333
f 331 333 332
f 334 344 343
f 334 343 336
f 334 336 335
f 334 375 346
f 334 346 376
f 334 376 377
f 334 377 345
f 336 342 341
f 336 341 378
f 336 378 370
f 338 379 380
f 338 380 339
f 339 380 381
f 339 381 341
f 339 341 340
f 341 381 370
f 341 370 378
f 345 377 346
f 346 382 347
f 346 377 376
f 346 374 383
f 346 383 382
f 347 382 348
f 348 382 384
f 348 384 385
f 348 385 386
f 348 386 387
f 348 387 388
f 348 388 389
f 348 389 349
f 353 390 354
f 354 390 391
f 354 391 355
f 355 391 356
f 356 391 357
f 357 391 392
f 357 392 359
f 359 392 360
f 360 392 361
f 361 392 393
f 361 393 394
f 361 394 362
f 362 385 384
f 362 384 395
f 362 395 366
f 362 366 363
f 362 394 386
f 362 386 385
f 366 395 374
f 366 374 369
f 366 369 367
f 369 374 372
f 370 381 371
f 371 380 379
f 371 381 380
f 372 374 373
f 374 395 396
f 374 396 383
f 382 383 384
f 383 396 397
f 383 397 384
f 384 397 396
f 384 396 398
f 384 398 395
f 386 394 393
f 386 393 399
f 386 399 400
f 386 400 401
f 386 401 402
f 386 402 403
f 386 403 404
f 386 404 387
f 390 405 391
f 391 405 406
f 391 406 392
f 392 407 393
f 392 406 408
f 392 408 409
f 392 409 407
f 393 407 399
f 395 398 396

