# https://github.com/mikedh/trimesh
v -1.42483175 -10.83873665 6.30337534
v -1.42741644 -10.83873665 6.30337924
v -1.42483175 -10.83605000 6.30337534
v -1.39256567 -10.83873665 6.30337534
v -1.41224438 -10.83873665 6.34318643
v -1.40857089 -10.83100078 6.34318643
v -1.42173579 -10.83100078 6.30337534
v -1.39524031 -10.83100078 6.30337534
v -1.39450183 -10.83100078 6.30454454
v -1.39234791 -10.83873665 6.30374169
v -1.37905520 -10.83873665 6.34318643
v -1.38157835 -10.83100078 6.34318643
v -1.39437874 -10.83100078 6.30475889
v -1.39115025 -10.83873665 6.30597095
v -1.37931556 -10.83873665 6.34074282
v -1.37968007 -10.83873665 6.33832648
v -1.38160202 -10.83100078 6.34304223
v -1.39368287 -10.83100078 6.30611515
v -1.38874070 -10.83873665 6.31054251
v -1.38990997 -10.83873665 6.30831714
v -1.38015346 -10.83873665 6.33612449
v -1.38254407 -10.83100078 6.33843171
v -1.38205174 -10.83100078 6.34074282
v -1.39359292 -10.83100078 6.30630613
v -1.38761877 -10.83873665 6.31291597
v -1.38091087 -10.83873665 6.33274942
v -1.38299378 -10.83100078 6.33663504
v -1.39262248 -10.83100078 6.30841457
v -1.38661046 -10.83873665 6.31526216
v -1.39148161 -10.83100078 6.31092445
v -1.39049697 -10.83100078 6.31310694
v -1.39006619 -10.83100078 6.31406568
v -1.38095822 -10.83873665 6.33257014
v -1.38567789 -10.83100078 6.32655268
v -1.38562582 -10.83873665 6.31771747
v -1.38957387 -10.83100078 6.31524267
v -1.38316420 -10.83873665 6.32454946
v -1.38616074 -10.83100078 6.32484176
v -1.38476425 -10.83873665 6.31996622
v -1.38865076 -10.83100078 6.31764342
v -1.38393582 -10.83873665 6.32221107
v -1.38690869 -10.83100078 6.32252676
v -1.38625068 -10.83100078 6.32455726
v -1.38750516 -10.83100078 6.32083922
v -1.38699864 -10.83100078 6.32226564
f 1 2 3
f 1 3 7
f 1 7 8
f 1 8 4
f 1 4 10
f 1 10 14
f 1 14 20
f 1 20 19
f 1 19 25
f 1 25 29
f 1 29 35
f 1 35 39
f 1 39 41
f 1 41 37
f 1 37 33
f 1 33 26
f 1 26 21
f 1 21 16
f 1 16 15
f 1 15 11
f 1 11 5
f 1 5 2
f 2 5 6
f 2 6 7
f 2 7 3
f 4 8 9
f 4 9 10
f 5 11 12
f 5 12 6
f 6 12 17
f 6 17 23
f 6 23 22
f 6 22 27
f 6 27 34
f 6 34 38
f 6 38 43
f 6 43 42
f 6 42 45
f 6 45 44
f 6 44 40
f 6 40 36
f 6 36 32
f 6 32 31
f 6 31 30
f 6 30 28
f 6 28 24
f 6 24 18
f 6 18 13
f 6 13 9
f 6 9 8
f 6 8 7
f 9 13 10
f 10 13 14
f 11 15 12
f 12 15 16
f 12 16 17
f 13 18 19
f 13 19 20
f 13 20 14
f 16 21 22
f 16 22 23
f 16 23 17
f 18 24 25
f 18 25 19
f 21 26 22
f 22 26 27
f 24 28 25
f 25 28 30
f 25 30 31
f 25 31 32
f 25 32 29
f 26 33 27
f 27 33 34
f 29 32 36
f 29 36 35
f 33 37 34
f 34 37 38
f 35 36 40
f 35 40 39
f 37 41 42
f 37 42 43
f 37 43 38
f 39 40 41
f 40 44 41
f 41 44 45
f 41 45 42

