# https://github.com/mikedh/trimesh
v -1.39588975 -10.67791978 6.39887393
v -1.39622121 -10.67793967 6.39887393
v -1.39391755 -10.67826783 6.39887393
v -1.37693563 -10.68028978 6.37294078
v -1.37728919 -10.68027653 6.37294078
v -1.37957075 -10.68025995 6.37294078
v -1.37960942 -10.68026326 6.37294078
v -1.39819894 -10.67817169 6.39887393
v -1.39358608 -10.67837721 6.39887393
v -1.37551586 -10.68071738 6.37294078
v -1.38176946 -10.68088974 6.37294078
v -1.39855250 -10.67830097 6.39887393
v -1.39223261 -10.67892745 6.39887393
v -1.37399666 -10.68174162 6.37294078
v -1.39200612 -10.67906998 6.39887393
v -1.38405102 -10.68199354 6.37294078
v -1.39951373 -10.67928543 6.39721359
v -1.40037553 -10.67907330 6.39874699
v -1.40038659 -10.67903020 6.39887393
v -1.37322878 -10.68292828 6.37294078
v -1.39084600 -10.68028647 6.39887393
v -1.39004496 -10.68125435 6.39887393
v -1.38647070 -10.68330615 6.37294078
v -1.40135335 -10.67957381 6.39887393
v -1.40055784 -10.67911638 6.39887393
v -1.40048602 -10.67907661 6.39887393
v -1.38774130 -10.68403538 6.37294078
v -1.37297465 -10.68343542 6.37294078
v -1.38993447 -10.68142672 6.39887393
v -1.40362939 -10.68098255 6.39887393
v -1.38887380 -10.68478782 6.37294078
v -1.40564578 -10.68226534 6.39887393
v -1.40436966 -10.68144330 6.39887393
v -1.38736564 -10.68769812 6.39887393
v -1.38675244 -10.68977643 6.39852358
v -1.37263767 -10.68526513 6.37294078
v -1.38926050 -10.68284210 6.39887393
v -1.38835450 -10.68507288 6.39887393
v -1.38811696 -10.68566289 6.39887393
v -1.38780759 -10.68643522 6.39887393
v -1.38749823 -10.68725395 6.39887393
v -1.39046481 -10.68589824 6.37294078
v -1.40746330 -10.68353487 6.39887393
v -1.38696789 -10.68977643 6.39887393
v -1.38698446 -10.69016093 6.39887393
v -1.37264872 -10.68540104 6.37294078
v -1.39171884 -10.68687939 6.37294078
v -1.40834168 -10.68422763 6.39887393
v -1.38731040 -10.69185142 6.39887393
v -1.38535477 -10.69141720 6.39540602
v -1.37303543 -10.68746278 6.37294078
v -1.39303917 -10.68795335 6.37294078
v -1.41093261 -10.68630595 6.39887393
v -1.40988851 -10.68546733 6.39887393
v -1.38719991 -10.69205362 6.39853373
v -1.38596798 -10.69214643 6.39619048
v -1.38758662 -10.69238177 6.39887393
v -1.37399114 -10.68975322 6.37294078
v -1.38559232 -10.69295853 6.39486019
v -1.39428768 -10.68905382 6.37294078
v -1.41344067 -10.68843729 6.39887393
v -1.41235237 -10.68748266 6.39887393
v -1.38754795 -10.69359827 6.39776957
v -1.39958003 -10.71177934 6.39887393
v -1.39888948 -10.71177934 6.39798029
v -1.39834257 -10.71177934 6.39724152
v -1.39769069 -10.71177934 6.39635296
v -1.37517336 -10.69197075 6.37294078
v -1.38523876 -10.69369108 6.39331918
v -1.39002839 -10.71177934 6.38349936
v -1.38952567 -10.71177934 6.38235694
v -1.38850918 -10.71177934 6.38000861
v -1.38771368 -10.71177934 6.37806648
v -1.38747060 -10.71177934 6.37747241
v -1.39210555 -10.71177934 6.38750041
v -1.39180723 -10.71177934 6.38695458
v -1.39126032 -10.71177934 6.38590354
v -1.39064712 -10.71177934 6.38472049
v -1.39007259 -10.71177934 6.38359330
v -1.39537598 -10.69012778 6.37294078
v -1.41477205 -10.68973333 6.39887393
v -1.39730951 -10.71177934 6.39581221
v -1.39691728 -10.71177934 6.39524862
v -1.39598918 -10.71177934 6.39389801
v -1.39498375 -10.71177934 6.39235700
v -1.39430425 -10.71177934 6.39127804
v -1.39311651 -10.71177934 6.38927752
v -1.39244254 -10.71177934 6.38809955
v -1.42906912 -10.71177934 6.39887393
v -1.38669719 -10.71177934 6.37541604
v -1.38587407 -10.71177934 6.37305248
v -1.38584092 -10.71177934 6.37294078
v -1.39545332 -10.69021065 6.37294078
v -1.41574986 -10.69073437 6.39887393
v -1.41513113 -10.69009464 6.39887393
v -1.42852221 -10.71041038 6.39887393
v -1.40507678 -10.70594880 6.37294078
v -1.40581152 -10.70805695 6.37294078
v -1.40627004 -10.70951872 6.37294078
v -1.40664017 -10.71075842 6.37294078
v -1.40667332 -10.71087112 6.37294078
v -1.40670094 -10.71097056 6.37294078
v -1.40692192 -10.71177934 6.37294078
v -1.39661344 -10.69149012 6.37294078
v -1.41699285 -10.69210997 6.39887393
v -1.42850011 -10.71035734 6.39887393
v -1.40427574 -10.70399976 6.37294078
v -1.39749734 -10.69256408 6.37294078
v -1.41789884 -10.69320713 6.39887393
v -1.42633456 -10.70596206 6.39887393
v -1.40307143 -10.70142757 6.37294078
v -1.40377855 -10.70291586 6.37294078
v -1.40419288 -10.70381746 6.37294078
v -1.39883424 -10.69433744 6.37294078
v -1.42001468 -10.69586883 6.39887393
v -1.41903133 -10.69460593 6.39887393
v -1.42620749 -10.70571678 6.39887393
v -1.40190579 -10.69915700 6.37294078
v -1.40199970 -10.69933931 6.37294078
v -1.39954136 -10.69530864 6.37294078
v -1.42063893 -10.69670413 6.39887393
v -1.42530150 -10.70397325 6.39887393
v -1.40173453 -10.69884542 6.37294078
v -1.42511920 -10.70363846 6.39887393
v -1.40048050 -10.69672070 6.37294078
v -1.42211394 -10.69876255 6.39887393
v -1.40143069 -10.69830181 6.37294078
v -1.42459990 -10.70270703 6.39887393
v -1.42398670 -10.70165296 6.39887393
v -1.42375467 -10.70126846 6.39887393
v -1.42235149 -10.69912385 6.39887393
f 1 2 8
f 1 8 12
f 1 12 19
f 1 19 26
f 1 26 25
f 1 25 24
f 1 24 30
f 1 30 33
f 1 33 32
f 1 32 43
f 1 43 48
f 1 48 54
f 1 54 53
f 1 53 62
f 1 62 61
f 1 61 81
f 1 81 95
f 1 95 94
f 1 94 105
f 1 105 109
f 1 109 116
f 1 116 115
f 1 115 121
f 1 121 126
f 1 126 131
f 1 131 130
f 1 130 129
f 1 129 128
f 1 128 124
f 1 124 122
f 1 122 117
f 1 117 110
f 1 110 106
f 1 106 96
f 1 96 89
f 1 89 64
f 1 64 57
f 1 57 49
f 1 49 45
f 1 45 44
f 1 44 34
f 1 34 41
f 1 41 40
f 1 40 39
f 1 39 38
f 1 38 37
f 1 37 29
f 1 29 22
f 1 22 21
f 1 21 15
f 1 15 13
f 1 13 9
f 1 9 3
f 1 3 4
f 1 4 5
f 1 5 6
f 1 6 2
f 2 6 7
f 2 7 8
f 3 9 10
f 3 10 4
f 4 10 14
f 4 14 20
f 4 20 28
f 4 28 36
f 4 36 46
f 4 46 51
f 4 51 58
f 4 58 68
f 4 68 92
f 4 92 103
f 4 103 102
f 4 102 101
f 4 101 100
f 4 100 99
f 4 99 98
f 4 98 97
f 4 97 107
f 4 107 113
f 4 113 112
f 4 112 111
f 4 111 119
f 4 119 118
f 4 118 123
f 4 123 127
f 4 127 125
f 4 125 120
f 4 120 114
f 4 114 108
f 4 108 104
f 4 104 93
f 4 93 80
f 4 80 60
f 4 60 52
f 4 52 47
f 4 47 42
f 4 42 31
f 4 31 27
f 4 27 23
f 4 23 16
f 4 16 11
f 4 11 7
f 4 7 6
f 4 6 5
f 7 11 8
f 8 11 12
f 9 13 10
f 10 13 15
f 10 15 14
f 11 16 17
f 11 17 18
f 11 18 19
f 11 19 12
f 14 15 21
f 14 21 22
f 14 22 20
f 16 23 17
f 17 24 25
f 17 25 26
f 17 26 18
f 17 23 27
f 17 27 24
f 18 26 19
f 20 22 29
f 20 29 28
f 24 27 30
f 27 31 32
f 27 32 33
f 27 33 30
f 28 34 35
f 28 35 36
f 28 29 37
f 28 37 38
f 28 38 39
f 28 39 40
f 28 40 41
f 28 41 34
f 31 42 32
f 32 42 43
f 34 44 35
f 35 44 45
f 35 45 46
f 35 46 36
f 42 47 43
f 43 47 48
f 45 49 50
f 45 50 46
f 46 50 51
f 47 52 53
f 47 53 54
f 47 54 48
f 49 55 56
f 49 56 50
f 49 57 55
f 50 56 51
f 51 56 59
f 51 59 58
f 52 60 61
f 52 61 62
f 52 62 53
f 55 59 56
f 55 57 63
f 55 63 59
f 57 64 65
f 57 65 66
f 57 66 67
f 57 67 63
f 58 59 69
f 58 69 70
f 58 70 71
f 58 71 72
f 58 72 73
f 58 73 74
f 58 74 68
f 59 63 75
f 59 75 76
f 59 76 77
f 59 77 78
f 59 78 79
f 59 79 69
f 60 80 81
f 60 81 61
f 63 67 82
f 63 82 83
f 63 83 84
f 63 84 85
f 63 85 86
f 63 86 87
f 63 87 88
f 63 88 75
f 64 89 103
f 64 103 92
f 64 92 91
f 64 91 90
f 64 90 74
f 64 74 73
f 64 73 72
f 64 72 71
f 64 71 70
f 64 70 79
f 64 79 78
f 64 78 77
f 64 77 76
f 64 76 75
f 64 75 88
f 64 88 87
f 64 87 86
f 64 86 85
f 64 85 84
f 64 84 83
f 64 83 82
f 64 82 67
f 64 67 66
f 64 66 65
f 68 90 91
f 68 91 92
f 68 74 90
f 69 79 70
f 80 93 94
f 80 94 95
f 80 95 81
f 89 96 97
f 89 97 98
f 89 98 99
f 89 99 100
f 89 100 101
f 89 101 102
f 89 102 103
f 93 104 94
f 94 104 105
f 96 106 107
f 96 107 97
f 104 108 109
f 104 109 105
f 106 110 111
f 106 111 112
f 106 112 113
f 106 113 107
f 108 114 115
f 108 115 116
f 108 116 109
f 110 117 118
f 110 118 119
f 110 119 111
f 114 120 121
f 114 121 115
f 117 122 118
f 118 122 124
f 118 124 123
f 120 125 126
f 120 126 121
f 123 124 128
f 123 128 127
f 125 127 129
f 125 129 130
f 125 130 131
f 125 131 126
f 127 128 129

