# https://github.com/mikedh/trimesh
v -1.53297014 -10.72753672 6.27272729
v -1.53379154 -10.72753672 6.27354324
v -1.53614523 -10.71067930 6.26749972
v -1.53496887 -10.71067930 6.26634651
v -1.53486033 -10.71067930 6.26624315
v -1.53376318 -10.71067930 6.26522592
v -1.53297014 -10.71067930 6.26453508
v -1.53297014 -10.72753672 6.30268378
v -1.53426385 -10.72753672 6.27401650
v -1.53720131 -10.71067930 6.26860399
v -1.53523485 -10.72753672 6.27499565
v -1.53542064 -10.72753672 6.27518604
v -1.53297014 -10.71067930 6.29605277
v -1.53297014 -10.72212604 6.30239548
v -1.53322634 -10.72212604 6.30293401
v -1.53386683 -10.72212604 6.30408723
v -1.54295989 -10.72753672 6.32010174
v -1.53730008 -10.71067930 6.26870734
v -1.53636916 -10.72753672 6.27621958
v -1.54295989 -10.71067930 6.31371552
v -1.53341800 -10.71878294 6.30256411
v -1.53297014 -10.71750576 6.30056229
v -1.53297014 -10.71984725 6.30199838
v -1.53327328 -10.72032248 6.30284697
v -1.53389520 -10.71965749 6.30367925
v -1.54295989 -10.72753672 6.28423772
v -1.53835714 -10.71067930 6.26986056
v -1.53724630 -10.72753672 6.27719873
v -1.54295989 -10.71067930 6.27609447
v -1.53297014 -10.71947103 6.30185695
v -1.54295989 -10.71457188 6.27747616
v -1.54276432 -10.72753672 6.28396573
v -1.53967430 -10.71067930 6.27160127
v -1.53764037 -10.72753672 6.27764479
v -1.53828184 -10.72753672 6.27840634
v -1.53937313 -10.72753672 6.27971732
v -1.54275747 -10.71429962 6.27706818
v -1.54295989 -10.71412636 6.27724769
v -1.54295989 -10.71314785 6.27684515
v -1.54295989 -10.71288383 6.27674180
v -1.54181971 -10.72753672 6.28275812
v -1.53982000 -10.72753672 6.28026129
v -1.54045267 -10.72753672 6.28104461
v -1.54070007 -10.72753672 6.28135467
f 1 2 3
f 1 3 4
f 1 4 5
f 1 5 6
f 1 6 7
f 1 7 13
f 1 13 22
f 1 22 30
f 1 30 23
f 1 23 14
f 1 14 8
f 1 8 17
f 1 17 26
f 1 26 32
f 1 32 41
f 1 41 44
f 1 44 43
f 1 43 42
f 1 42 36
f 1 36 35
f 1 35 34
f 1 34 28
f 1 28 19
f 1 19 12
f 1 12 11
f 1 11 9
f 1 9 2
f 2 9 3
f 3 10 18
f 3 18 27
f 3 27 33
f 3 33 29
f 3 29 20
f 3 20 13
f 3 13 7
f 3 7 6
f 3 6 5
f 3 5 4
f 3 9 11
f 3 11 12
f 3 12 10
f 8 14 15
f 8 15 16
f 8 16 17
f 10 12 18
f 12 19 18
f 13 20 21
f 13 21 22
f 14 23 24
f 14 24 15
f 15 24 16
f 16 24 17
f 17 24 25
f 17 25 20
f 17 20 29
f 17 29 40
f 17 40 39
f 17 39 38
f 17 38 31
f 17 31 26
f 18 19 27
f 19 28 27
f 20 25 21
f 21 25 24
f 21 24 30
f 21 30 22
f 23 30 24
f 26 31 32
f 27 28 34
f 27 34 35
f 27 35 36
f 27 36 37
f 27 37 38
f 27 38 39
f 27 39 40
f 27 40 33
f 29 33 40
f 31 38 37
f 31 37 32
f 32 37 41
f 36 42 37
f 37 42 43
f 37 43 44
f 37 44 41

