# https://github.com/mikedh/trimesh
v -1.45326989 -10.83873665 6.34319033
v -1.44210962 -10.83797911 6.34537334
v -1.44442056 -10.83810106 6.34319033
v -1.42489703 -10.83873665 6.34319033
v -1.43829324 -10.83873665 6.36705390
v -1.43828768 -10.83873611 6.36706793
v -1.43752385 -10.83862053 6.36706793
v -1.43517959 -10.83828812 6.36706793
v -1.43286865 -10.83796396 6.36706793
v -1.44210962 -10.83796494 6.34319033
v -1.43145487 -10.83786989 6.36706793
v -1.43055771 -10.83782057 6.36706793
v -1.42592473 -10.83858170 6.34319033
v -1.42814679 -10.83819791 6.36706793
v -1.42493314 -10.83873665 6.34513494
v -1.43504071 -10.83873665 6.36706793
v -1.43992645 -10.83791042 6.34319033
v -1.43055771 -10.83800996 6.34999647
v -1.43286865 -10.83785949 6.34768491
v -1.43286865 -10.83784676 6.34999647
v -1.43517959 -10.83783896 6.34537334
v -1.43749052 -10.83786469 6.34319033
v -1.42606361 -10.83856987 6.34319033
v -1.43055771 -10.83805758 6.34768491
v -1.42668856 -10.83867658 6.36706793
v -1.42660801 -10.83871441 6.36706793
v -1.42656079 -10.83873665 6.36706793
v -1.43286865 -10.83802341 6.34319033
v -1.43299642 -10.83801561 6.34319033
v -1.43517959 -10.83790199 6.34319033
f 1 2 3
f 1 3 10
f 1 10 17
f 1 17 22
f 1 22 30
f 1 30 29
f 1 29 28
f 1 28 23
f 1 23 13
f 1 13 4
f 1 4 15
f 1 15 27
f 1 27 16
f 1 16 5
f 1 5 6
f 1 6 7
f 1 7 8
f 1 8 9
f 1 9 2
f 2 10 3
f 2 9 11
f 2 11 12
f 2 12 10
f 4 13 12
f 4 12 14
f 4 14 15
f 5 16 6
f 6 16 27
f 6 27 26
f 6 26 25
f 6 25 14
f 6 14 12
f 6 12 11
f 6 11 9
f 6 9 8
f 6 8 7
f 10 12 17
f 12 13 18
f 12 18 19
f 12 19 20
f 12 20 21
f 12 21 22
f 12 22 17
f 13 23 19
f 13 19 24
f 13 24 18
f 14 25 15
f 15 25 26
f 15 26 27
f 18 24 19
f 19 23 28
f 19 28 29
f 19 29 30
f 19 30 21
f 19 21 20
f 21 30 22

