# https://github.com/mikedh/trimesh
v -1.47434700 -10.83873665 6.34197944
v -1.47434700 -10.86295284 6.34197944
v -1.47434700 -10.83873665 6.33155185
v -1.47975219 -10.83873665 6.34197944
v -1.47434700 -10.86340581 6.33843875
v -1.47677780 -10.86340026 6.34197944
v -1.47434700 -10.83898120 6.32909963
v -1.47787012 -10.83881725 6.32566754
v -1.47879320 -10.83873665 6.32541500
v -1.52673225 -10.83873665 6.31760630
v -1.52673225 -10.83978434 6.33986563
v -1.52673225 -10.83989827 6.34197944
v -1.47434700 -10.86362258 6.33612796
v -1.47909065 -10.86371150 6.34197944
v -1.47434700 -10.83945085 6.32445280
v -1.47434700 -10.83968151 6.32226323
v -1.47434700 -10.83969541 6.32214201
v -1.47434700 -10.84022342 6.31764165
v -1.48139837 -10.83936193 6.31764165
v -1.47897270 -10.83873665 6.32530388
v -1.52673225 -10.83873665 6.31723253
v -1.52673225 -10.86607643 6.34197944
v -1.47434700 -10.86382544 6.33381718
v -1.47438290 -10.86515102 6.31617942
v -1.48139837 -10.86388936 6.34197944
v -1.47434700 -10.84043462 6.31617942
v -1.48139837 -10.83962037 6.31617942
v -1.48371121 -10.83948698 6.31617942
v -1.48371121 -10.83923965 6.31764165
v -1.47909065 -10.83873665 6.32524327
v -1.52673225 -10.83874221 6.31617942
v -1.52525018 -10.83873665 6.31674007
v -1.52087577 -10.86688790 6.31758609
v -1.52193732 -10.86658499 6.33540063
v -1.52064500 -10.86661555 6.33615322
v -1.51985011 -10.86657387 6.33751949
v -1.51836804 -10.86645159 6.34074954
v -1.51836804 -10.86638212 6.34197944
v -1.52673225 -10.86567347 6.32919307
v -1.52530146 -10.86600139 6.32688481
v -1.47434700 -10.86514546 6.31617942
v -1.49526520 -10.86671004 6.31617942
v -1.50450634 -10.86694904 6.32226323
v -1.51606033 -10.86634599 6.34197944
v -1.51477826 -10.86657665 6.33760788
v -1.52470146 -10.83874777 6.31617942
v -1.48139837 -10.83873665 6.32467251
v -1.48076759 -10.83873665 6.32480636
v -1.52673225 -10.85027783 6.31617942
v -1.52054243 -10.86692958 6.31617942
v -1.51835266 -10.86712689 6.31617942
v -1.52068089 -10.86667947 6.33381718
v -1.51836804 -10.86666836 6.33612796
v -1.51606033 -10.86659054 6.33782507
v -1.51606033 -10.86643214 6.34074954
v -1.52673225 -10.86550674 6.32678127
v -1.52530146 -10.86585967 6.32457402
v -1.50450634 -10.86704908 6.31995244
v -1.49751138 -10.86681286 6.31617942
v -1.52673225 -10.86420616 6.32348555
v -1.52670148 -10.86153555 6.31617942
v -1.52118347 -10.86670726 6.31617942
v -1.50681406 -10.86707409 6.31995244
v -1.51836804 -10.86672393 6.33381718
v -1.50450634 -10.86692125 6.31617942
v -1.50450634 -10.86701573 6.31764165
v -1.52673225 -10.86500930 6.32457402
v -1.52434760 -10.86493704 6.31617942
v -1.52177834 -10.86653218 6.31677795
v -1.52673225 -10.86452297 6.32366233
v -1.52659379 -10.86221918 6.31617942
v -1.52228091 -10.86612089 6.31617942
v -1.52620404 -10.86295561 6.31617942
v -1.52582967 -10.86344194 6.31617942
v -1.52480402 -10.86449518 6.31617942
f 1 2 5
f 1 5 13
f 1 13 23
f 1 23 41
f 1 41 26
f 1 26 18
f 1 18 17
f 1 17 16
f 1 16 15
f 1 15 7
f 1 7 3
f 1 3 9
f 1 9 20
f 1 20 30
f 1 30 48
f 1 48 47
f 1 47 32
f 1 32 21
f 1 21 10
f 1 10 4
f 1 4 12
f 1 12 22
f 1 22 38
f 1 38 44
f 1 44 25
f 1 25 14
f 1 14 6
f 1 6 2
f 2 6 5
f 3 7 8
f 3 8 9
f 4 10 11
f 4 11 12
f 5 6 14
f 5 14 13
f 7 15 8
f 8 15 16
f 8 16 17
f 8 17 18
f 8 18 19
f 8 19 9
f 9 19 20
f 10 21 31
f 10 31 49
f 10 49 60
f 10 60 70
f 10 70 67
f 10 67 56
f 10 56 39
f 10 39 22
f 10 22 12
f 10 12 11
f 13 14 23
f 14 24 23
f 14 25 24
f 18 26 19
f 19 27 28
f 19 28 29
f 19 29 20
f 19 26 27
f 20 29 30
f 21 32 31
f 22 33 34
f 22 34 35
f 22 35 36
f 22 36 37
f 22 37 38
f 22 39 40
f 22 40 33
f 23 24 41
f 24 25 42
f 24 42 59
f 24 59 65
f 24 65 51
f 24 51 50
f 24 50 62
f 24 62 72
f 24 72 68
f 24 68 75
f 24 75 74
f 24 74 73
f 24 73 71
f 24 71 61
f 24 61 49
f 24 49 31
f 24 31 46
f 24 46 28
f 24 28 27
f 24 27 26
f 24 26 41
f 25 43 42
f 25 44 45
f 25 45 43
f 28 46 29
f 29 47 48
f 29 48 30
f 29 46 47
f 31 32 46
f 32 47 46
f 33 50 51
f 33 51 34
f 33 40 50
f 34 51 52
f 34 52 35
f 35 52 53
f 35 53 36
f 36 53 37
f 37 53 54
f 37 54 55
f 37 55 38
f 38 55 44
f 39 56 57
f 39 57 50
f 39 50 40
f 42 43 58
f 42 58 59
f 43 45 58
f 44 55 45
f 45 55 54
f 45 54 58
f 49 61 60
f 50 57 62
f 51 63 64
f 51 64 52
f 51 65 66
f 51 66 63
f 52 64 53
f 53 64 63
f 53 63 54
f 54 63 58
f 56 67 68
f 56 68 69
f 56 69 62
f 56 62 57
f 58 66 59
f 58 63 66
f 59 66 65
f 60 61 70
f 61 71 67
f 61 67 70
f 62 69 72
f 67 71 73
f 67 73 74
f 67 74 75
f 67 75 68
f 68 72 69

