# https://github.com/mikedh/trimesh
v -1.38197906 -10.80704342 6.34360428
v -1.38200474 -10.81456544 6.34360428
v -1.38206893 -10.80704342 6.34305440
v -1.40619455 -10.80704342 6.34360428
v -1.38201330 -10.81511404 6.34360428
v -1.38211174 -10.81456544 6.34305440
v -1.38250120 -10.80704342 6.34074638
v -1.40620739 -10.80705239 6.34360428
v -1.41581998 -10.80704342 6.32534994
v -1.38204753 -10.81687496 6.34360428
v -1.38215453 -10.81687496 6.34305440
v -1.38262104 -10.81456544 6.34074638
v -1.38324590 -10.80994340 6.33757738
v -1.38296343 -10.80704342 6.33873501
v -1.40700345 -10.81632486 6.34360428
v -1.41628221 -10.80704342 6.32446001
v -1.40704625 -10.81687496 6.34360428
v -1.38206466 -10.81742505 6.34360428
v -1.38224869 -10.82231466 6.34360428
v -1.38235996 -10.82231466 6.34305440
v -1.38267239 -10.81687496 6.34074638
v -1.38327158 -10.81225442 6.33767867
v -1.38358829 -10.80994340 6.33612311
v -1.38419603 -10.80763239 6.33381509
v -1.38421743 -10.80704342 6.33381509
v -1.40721316 -10.82231466 6.34360428
v -1.40720460 -10.82149699 6.34360428
v -1.40716180 -10.81863587 6.34360428
v -1.41703546 -10.80704342 6.32280316
v -1.38277083 -10.82231466 6.34125285
v -1.38293774 -10.82231466 6.34052209
v -1.38310895 -10.81918597 6.33924147
v -1.38337429 -10.81918597 6.33809108
v -1.38333577 -10.81687496 6.33793190
v -1.38365248 -10.81225442 6.33612311
v -1.38417463 -10.80994340 6.33381509
v -1.38479949 -10.80763239 6.33149983
v -1.38482945 -10.80704342 6.33149983
v -1.42569791 -10.81425600 6.29916585
v -1.42569791 -10.81474930 6.29897774
v -1.42569791 -10.81596610 6.29850021
v -1.42569791 -10.81687496 6.29813845
v -1.42569791 -10.82231466 6.29542527
v -1.41724946 -10.80704342 6.32226052
v -1.42569791 -10.81217071 6.29967955
v -1.38340853 -10.82231466 6.33860477
v -1.38405907 -10.82231466 6.33612311
v -1.38389216 -10.81918597 6.33612311
v -1.38380228 -10.81687496 6.33612311
v -1.38482089 -10.80994340 6.33149983
v -1.38700790 -10.81687496 6.32456854
v -1.38530452 -10.80763239 6.32977063
v -1.38531735 -10.80704342 6.32982127
v -1.42569791 -10.82231466 6.26970423
v -1.42569791 -10.80704342 6.29978807
v -1.42569791 -10.80760399 6.29988937
v -1.42569791 -10.80882527 6.30004854
v -1.42569791 -10.80994340 6.30001960
v -1.42569791 -10.81193602 6.29972296
v -1.38725614 -10.82231466 6.32456854
v -1.38710206 -10.81918597 6.32456854
v -1.38768412 -10.82231466 6.32305639
v -1.38758140 -10.81687496 6.32278145
v -1.38756001 -10.81456544 6.32272357
v -1.38697367 -10.81456544 6.32456854
v -1.38568970 -10.80763239 6.32861300
v -1.38694371 -10.81225442 6.32456854
v -1.38571110 -10.80704342 6.32866364
v -1.42569791 -10.81480461 6.26982723
v -1.42131105 -10.82149699 6.27152025
v -1.42131105 -10.82231466 6.27152025
v -1.42569791 -10.80704342 6.27019622
v -1.38808215 -10.82231466 6.32190600
v -1.38800083 -10.81687496 6.32162382
v -1.38755572 -10.81225442 6.32273080
v -1.38797944 -10.81456544 6.32157318
v -1.38632312 -10.80763239 6.32688379
v -1.38702074 -10.80994340 6.32456854
v -1.38658420 -10.80704342 6.32629051
v -1.41972322 -10.82149699 6.27228718
v -1.41972750 -10.82231466 6.27228718
v -1.42384901 -10.80704342 6.27154196
v -1.41992009 -10.81969272 6.27242465
v -1.38884825 -10.82231466 6.31994526
v -1.38972562 -10.82231466 6.31790494
v -1.39083410 -10.82231466 6.31532922
v -1.39269585 -10.80704342 6.31023566
v -1.38762420 -10.80994340 6.32292615
v -1.38798371 -10.81225442 6.32157318
v -1.38806075 -10.80994340 6.32176853
v -1.39225074 -10.80704342 6.31138605
v -1.41734789 -10.81918597 6.27445774
v -1.41856765 -10.82149699 6.27317712
v -1.41857193 -10.82231466 6.27317712
v -1.42176472 -10.80704342 6.27313370
v -1.39189551 -10.82231466 6.31290544
v -1.39284993 -10.82231466 6.31074212
v -1.39288844 -10.80704342 6.30980155
v -1.39236202 -10.80704342 6.31109665
v -1.42018972 -10.80704342 6.27434921
v -1.41895712 -10.80704342 6.27530425
v -1.41555462 -10.81124092 6.27722157
v -1.41510096 -10.81687496 6.27678746
v -1.41619233 -10.81918597 6.27549237
v -1.41724089 -10.82149699 6.27432751
v -1.41725373 -10.82231466 6.27433474
v -1.39359034 -10.82231466 6.30910698
v -1.39391561 -10.82231466 6.30839069
v -1.39353042 -10.80704342 6.30839069
v -1.41756616 -10.80704342 6.27639676
v -1.41721094 -10.80704342 6.27668617
v -1.41634640 -10.80704342 6.27739522
v -1.41506672 -10.80704342 6.27851667
v -1.41388120 -10.80704342 6.27956577
v -1.41229336 -10.80704342 6.28099110
v -1.41143311 -10.80704342 6.28177250
v -1.41317074 -10.81087469 6.27946448
v -1.41305090 -10.81225442 6.27932701
v -1.41455314 -10.81210792 6.27798850
v -1.41499824 -10.81918597 6.27664999
v -1.41293535 -10.81456544 6.27918954
v -1.41608533 -10.82149699 6.27542725
v -1.41609817 -10.82231466 6.27544896
v -1.39432648 -10.82231466 6.30755141
v -1.39460467 -10.82231466 6.30699431
v -1.39498130 -10.82231466 6.30624908
v -1.39377009 -10.80704342 6.30792041
v -1.41113780 -10.80704342 6.28204743
v -1.41097089 -10.80926923 6.28188826
v -1.41088101 -10.81081041 6.28178697
v -1.41378276 -10.82149699 6.27785103
v -1.41493832 -10.82149699 6.27658488
v -1.41084249 -10.81225442 6.28174356
v -1.41569586 -10.82231466 6.27585412
v -1.39590575 -10.82231466 6.30444752
v -1.39441635 -10.80704342 6.30666149
v -1.41033318 -10.80704342 6.28290842
v -1.41001648 -10.80763239 6.28316165
v -1.40886091 -10.80763239 6.28442780
v -1.40787226 -10.80763239 6.28558543
v -1.41379560 -10.82231466 6.27785103
v -1.41281123 -10.82149699 6.27900866
v -1.41343181 -10.82231466 6.27825620
v -1.41495116 -10.82231466 6.27660659
v -1.41454458 -10.82231466 6.27703345
v -1.40671670 -10.80763239 6.28699629
v -1.39732667 -10.82231466 6.30169816
v -1.39754922 -10.82231466 6.30128575
v -1.39829392 -10.82231466 6.29994001
v -1.40127271 -10.80704342 6.29439064
v -1.41005927 -10.80704342 6.28320506
v -1.40890371 -10.80704342 6.28447122
v -1.40790222 -10.80704342 6.28562884
v -1.40674666 -10.80704342 6.28701800
v -1.41239608 -10.82231466 6.27950789
v -1.41280267 -10.82231466 6.27900866
v -1.40582220 -10.80704342 6.28816839
v -1.40466664 -10.80704342 6.28961542
v -1.40374647 -10.80704342 6.29077305
v -1.39870479 -10.82231466 6.29924544
v -1.40176489 -10.80704342 6.29352965
v -1.41133039 -10.82231466 6.28088981
v -1.40268506 -10.80704342 6.29222732
v -1.40791934 -10.82231466 6.28552031
v -1.41040594 -10.82231466 6.28212702
v -1.39915845 -10.82231466 6.29849298
v -1.40130267 -10.82231466 6.29512862
v -1.40396474 -10.82231466 6.29105522
v -1.39992026 -10.82231466 6.29727747
v -1.40019846 -10.82231466 6.29684336
v -1.40594204 -10.82231466 6.28826244
v -1.40676378 -10.82231466 6.28711205
f 1 2 3
f 1 3 7
f 1 7 14
f 1 14 25
f 1 25 38
f 1 38 53
f 1 53 68
f 1 68 79
f 1 79 91
f 1 91 99
f 1 99 87
f 1 87 98
f 1 98 109
f 1 109 127
f 1 127 136
f 1 136 150
f 1 150 161
f 1 161 163
f 1 163 159
f 1 159 158
f 1 158 157
f 1 157 154
f 1 154 153
f 1 153 152
f 1 152 151
f 1 151 137
f 1 137 128
f 1 128 116
f 1 116 115
f 1 115 114
f 1 114 113
f 1 113 112
f 1 112 111
f 1 111 110
f 1 110 101
f 1 101 100
f 1 100 95
f 1 95 82
f 1 82 72
f 1 72 55
f 1 55 44
f 1 44 29
f 1 29 16
f 1 16 9
f 1 9 4
f 1 4 8
f 1 8 15
f 1 15 17
f 1 17 28
f 1 28 27
f 1 27 26
f 1 26 19
f 1 19 18
f 1 18 10
f 1 10 5
f 1 5 2
f 2 5 6
f 2 6 7
f 2 7 3
f 4 9 8
f 5 10 11
f 5 11 6
f 6 11 12
f 6 12 13
f 6 13 7
f 7 13 14
f 8 9 15
f 9 16 17
f 9 17 15
f 10 18 11
f 11 18 19
f 11 19 20
f 11 20 21
f 11 21 12
f 12 21 22
f 12 22 13
f 13 22 23
f 13 23 14
f 14 23 24
f 14 24 25
f 16 26 27
f 16 27 28
f 16 28 17
f 16 29 26
f 19 26 43
f 19 43 54
f 19 54 71
f 19 71 81
f 19 81 94
f 19 94 106
f 19 106 123
f 19 123 134
f 19 134 144
f 19 144 145
f 19 145 141
f 19 141 143
f 19 143 156
f 19 156 155
f 19 155 162
f 19 162 165
f 19 165 164
f 19 164 172
f 19 172 171
f 19 171 168
f 19 168 167
f 19 167 170
f 19 170 169
f 19 169 166
f 19 166 160
f 19 160 149
f 19 149 148
f 19 148 147
f 19 147 135
f 19 135 126
f 19 126 125
f 19 125 124
f 19 124 108
f 19 108 107
f 19 107 97
f 19 97 96
f 19 96 86
f 19 86 85
f 19 85 84
f 19 84 73
f 19 73 62
f 19 62 60
f 19 60 47
f 19 47 46
f 19 46 31
f 19 31 30
f 19 30 20
f 20 30 21
f 21 30 31
f 21 31 32
f 21 32 33
f 21 33 34
f 21 34 22
f 22 34 23
f 23 35 36
f 23 36 24
f 23 34 35
f 24 36 37
f 24 37 25
f 25 37 38
f 26 29 39
f 26 39 40
f 26 40 41
f 26 41 42
f 26 42 43
f 29 44 45
f 29 45 39
f 31 46 33
f 31 33 32
f 33 46 47
f 33 47 48
f 33 48 49
f 33 49 34
f 34 49 35
f 35 49 36
f 36 50 37
f 36 49 51
f 36 51 50
f 37 50 52
f 37 52 53
f 37 53 38
f 39 45 59
f 39 59 58
f 39 58 57
f 39 57 56
f 39 56 55
f 39 55 72
f 39 72 69
f 39 69 54
f 39 54 43
f 39 43 42
f 39 42 41
f 39 41 40
f 44 55 56
f 44 56 57
f 44 57 58
f 44 58 59
f 44 59 45
f 47 60 48
f 48 60 61
f 48 61 51
f 48 51 49
f 50 51 52
f 51 61 62
f 51 62 63
f 51 63 64
f 51 64 65
f 51 65 52
f 52 66 53
f 52 65 67
f 52 67 66
f 53 66 68
f 54 69 70
f 54 70 71
f 60 62 61
f 62 73 63
f 63 73 74
f 63 74 64
f 64 75 67
f 64 67 65
f 64 74 76
f 64 76 75
f 66 77 68
f 66 67 75
f 66 75 78
f 66 78 77
f 68 77 79
f 69 72 70
f 70 80 71
f 70 72 80
f 71 80 81
f 72 82 83
f 72 83 80
f 73 84 74
f 74 84 85
f 74 85 86
f 74 86 87
f 74 87 76
f 75 88 78
f 75 76 89
f 75 89 88
f 76 87 89
f 77 78 88
f 77 88 79
f 79 88 90
f 79 90 91
f 80 83 92
f 80 92 93
f 80 93 94
f 80 94 81
f 82 95 92
f 82 92 83
f 86 96 87
f 87 96 97
f 87 97 98
f 87 99 89
f 88 89 90
f 89 99 90
f 90 99 91
f 92 95 100
f 92 100 101
f 92 101 102
f 92 102 103
f 92 103 104
f 92 104 105
f 92 105 93
f 93 105 94
f 94 105 106
f 97 107 98
f 98 107 108
f 98 108 109
f 101 110 102
f 102 110 111
f 102 111 112
f 102 112 113
f 102 113 114
f 102 114 115
f 102 115 116
f 102 116 117
f 102 117 118
f 102 118 119
f 102 119 103
f 103 120 104
f 103 119 118
f 103 118 121
f 103 121 120
f 104 120 122
f 104 122 105
f 105 122 106
f 106 122 123
f 108 124 109
f 109 124 125
f 109 125 126
f 109 126 127
f 116 128 118
f 116 118 117
f 118 128 129
f 118 129 130
f 118 130 121
f 120 131 132
f 120 132 122
f 120 121 131
f 121 130 133
f 121 133 131
f 122 132 134
f 122 134 123
f 126 135 127
f 127 135 136
f 128 137 129
f 129 137 138
f 129 138 139
f 129 139 130
f 130 139 140
f 130 140 133
f 131 141 132
f 131 133 142
f 131 142 143
f 131 143 141
f 132 144 134
f 132 141 145
f 132 145 144
f 133 140 146
f 133 146 142
f 135 147 136
f 136 147 148
f 136 148 149
f 136 149 150
f 137 151 138
f 138 151 152
f 138 152 139
f 139 152 153
f 139 153 140
f 140 153 154
f 140 154 146
f 142 146 155
f 142 155 156
f 142 156 143
f 146 154 157
f 146 157 158
f 146 158 159
f 146 159 155
f 149 160 161
f 149 161 150
f 155 159 162
f 159 163 164
f 159 164 165
f 159 165 162
f 160 166 161
f 161 167 168
f 161 168 163
f 161 166 169
f 161 169 170
f 161 170 167
f 163 168 171
f 163 171 172
f 163 172 164

