mtllib material.mtl
usemtl material_0
v -7.22749600 2.42902400 0.71693100
v -7.22749600 2.42902400 4.74163400
v -4.83939000 2.42902400 4.74163400
v -4.83939000 2.42902400 0.71693100
v -4.01756000 2.42902400 0.71693100
v -4.01756000 2.42902400 4.74163400
v -1.62945300 2.42902400 4.74163400
v -1.62945300 2.42902400 0.71693100
v 8.45558600 4.80743500 3.63283800
v 6.87269900 4.80743500 3.40585100
v 6.87269900 4.80743500 3.40585100
v 6.87269900 4.80743500 3.40585100
v 8.34104000 4.80743500 3.26438400
v 8.34104000 4.80743500 3.26438400
v 8.34104000 4.80743500 3.26438400
v 8.34104000 4.98761400 3.26438400
v 8.34104000 4.98761400 3.26438400
v 8.68257200 4.80743500 3.40585100
v 8.68257200 4.80743500 3.40585100
v 8.68257200 4.80743500 3.40585100
v 8.68257200 4.98761400 3.40585100
v 8.68257200 4.98761400 3.40585100
v 8.82403900 4.80743500 3.74738400
v 8.82403900 4.80743500 3.74738400
v 8.82403900 4.80743500 3.74738400
v 8.82403900 4.98761400 3.74738400
v 8.82403900 4.98761400 3.74738400
v 8.68257200 4.80743500 4.08891600
v 8.68257200 4.80743500 4.08891600
v 8.68257200 4.80743500 4.08891600
v 8.68257200 4.98761400 4.08891600
v 8.68257200 4.98761400 4.08891600
v 8.34104000 4.80743500 4.23038300
v 8.34104000 4.80743500 4.23038300
v 8.34104000 4.80743500 4.23038300
v 8.34104000 4.98761400 4.23038300
v 8.34104000 4.98761400 4.23038300
v 7.99950800 4.80743500 4.08891600
v 7.99950800 4.80743500 4.08891600
v 7.99950800 4.80743500 4.08891600
v 7.99950800 4.98761400 4.08891600
v 7.99950800 4.98761400 4.08891600
v 7.85804000 4.80743500 3.74738400
v 7.85804000 4.80743500 3.74738400
v 7.85804000 4.80743500 3.74738400
v 7.85804000 4.98761400 3.74738400
v 7.85804000 4.98761400 3.74738400
v 7.99950800 4.80743500 3.40585100
v 7.99950800 4.80743500 3.40585100
v 7.99950800 4.80743500 3.40585100
v 7.99950800 4.98761400 3.40585100
v 7.99950800 4.98761400 3.40585100
v 6.73123200 4.98761400 3.74738400
v 6.73123200 4.98761400 3.74738400
v 6.73123200 4.80743500 3.74738400
v 6.73123200 4.80743500 3.74738400
v 6.73123200 4.80743500 3.74738400
v 6.87269900 4.98761400 4.08891600
v 6.87269900 4.98761400 4.08891600
v 6.87269900 4.80743500 4.08891600
v 6.87269900 4.80743500 4.08891600
v 6.87269900 4.80743500 4.08891600
v 7.21423100 4.98761400 4.23038300
v 7.21423100 4.98761400 4.23038300
v 8.34104100 4.80743500 3.58539100
v 7.21423100 4.80743500 4.23038300
v 7.21423100 4.80743500 4.23038300
v 7.21423100 4.80743500 4.23038300
v 7.55576400 4.98761400 4.08891600
v 7.55576400 4.98761400 4.08891600
v 7.55576400 4.80743500 4.08891600
v 7.55576400 4.80743500 4.08891600
v 7.55576400 4.80743500 4.08891600
v 7.69723100 4.98761400 3.74738400
v 7.69723100 4.98761400 3.74738400
v 7.69723100 4.80743500 3.74738400
v 7.69723100 4.80743500 3.74738400
v 7.69723100 4.80743500 3.74738400
v 7.55576400 4.98761400 3.40585100
v 7.55576400 4.98761400 3.40585100
v 7.55576400 4.80743500 3.40585100
v 7.55576400 4.80743500 3.40585100
v 7.55576400 4.80743500 3.40585100
v 7.21423100 4.98761400 3.26438400
v 7.21423100 4.98761400 3.26438400
v 7.21423100 4.80743500 3.26438400
v 7.21423100 4.80743500 3.26438400
v 7.21423100 4.80743500 3.26438400
v 7.32877800 4.80743500 3.63283800
v 8.50303300 4.80743500 3.74738400
v 8.45558600 4.80743500 3.86193000
v 8.34104100 4.80743500 3.90937600
v 8.22649400 4.80743500 3.86193000
v 8.17904900 4.80743500 3.74738400
v 8.22649400 4.80743500 3.63283800
v 7.05223900 4.80743500 3.74738400
v 7.09968600 4.80743500 3.86193000
v 7.21423200 4.80743500 3.90937600
v 7.32877800 4.80743500 3.86193000
v 7.37622500 4.80743500 3.74738400
v 7.21423200 4.80743500 3.58539100
v 6.87269900 4.98761400 3.40585100
v 6.87269900 4.98761400 3.40585100
v 7.09968600 4.80743500 3.63283800
v 5.85527500 -6.52160100 1.55274900
v 5.92818900 -6.55180300 1.55274900
v 5.92818900 -6.69763000 1.55274900
v 5.85527500 -6.72783200 1.55274900
v 5.78236100 -6.69763000 1.55274900
v 5.75215900 -6.62471600 1.55274900
v 5.78236100 -6.55180300 1.55274900
v 5.85527500 -5.90218200 1.59793500
v 6.36618400 -6.11380700 1.59793500
v 6.57781000 -6.62471600 1.59793500
v 6.36618400 -7.13562600 1.59793500
v 5.85527500 -7.34725100 1.59793500
v 5.34436500 -7.13562600 1.59793500
v 5.13274000 -6.62471600 1.59793500
v 5.34436500 -6.11380700 1.59793500
v 5.85527500 -5.90218200 1.89617000
v 6.36618400 -6.11380700 1.89617000
v 6.57781000 -6.62471600 1.89617000
v 6.36618400 -7.13562600 1.89617000
v 5.85527500 -7.34725100 1.89617000
v 5.34436500 -7.13562600 1.89617000
v 5.13274000 -6.62471600 1.89617000
v 5.34436500 -6.11380700 1.89617000
v 5.85527500 -6.62471600 1.89617000
v 5.95839100 -6.62471600 1.55274900
v 6.36618400 -6.11380700 1.59793500
v 5.85527500 -5.90218200 1.59793500
v 6.57781000 -6.62471600 1.59793500
v 6.36618400 -7.13562600 1.59793500
v 5.85527500 -7.34725100 1.59793500
v 5.34436500 -7.13562600 1.59793500
v 5.13274000 -6.62471600 1.59793500
v 5.34436500 -6.11380700 1.59793500
v 6.36618400 -6.11380700 1.89617000
v 5.85527500 -5.90218200 1.89617000
v 6.57781000 -6.62471600 1.89617000
v 6.36618400 -7.13562600 1.89617000
v 5.85527500 -7.34725100 1.89617000
v 5.34436500 -7.13562600 1.89617000
v 5.13274000 -6.62471600 1.89617000
v 5.34436500 -6.11380700 1.89617000
v -3.14756000 -6.13458300 2.60534500
v -3.14756000 -6.13458300 2.60534500
v -3.14756000 -4.13458300 2.60534500
v -3.14756000 -4.13458300 2.60534500
v 3.51849600 -6.13458300 2.60534500
v 3.51849600 -6.13458300 2.60534500
v 3.51849600 -4.13458300 2.60534500
v 3.51849600 -4.13458300 2.60534500
v -3.24905000 -6.16682700 2.63726100
v -3.24905000 -6.16682700 2.63726100
v -3.24905000 -6.16682700 2.63726100
v -3.24905000 -6.16682700 2.63726100
v -3.24905000 -4.10233800 2.63726100
v -3.24905000 -4.10233800 2.63726100
v -3.24905000 -4.10233800 2.63726100
v -3.24905000 -4.10233800 2.63726100
v 3.61998600 -4.10233800 2.63726100
v 3.61998600 -4.10233800 2.63726100
v 3.61998600 -4.10233800 2.63726100
v 3.61998600 -4.10233800 2.63726100
v 3.61998600 -6.16682700 2.63726100
v 3.61998600 -6.16682700 2.63726100
v 3.61998600 -6.16682700 2.63726100
v 3.61998600 -6.16682700 2.63726100
v -3.24905000 -6.16682700 2.78941400
v -3.24905000 -6.16682700 2.78941400
v -3.24905000 -6.16682700 2.78941400
v -3.24905000 -4.10233800 2.78941400
v -3.24905000 -4.10233800 2.78941400
v -3.24905000 -4.10233800 2.78941400
v 3.61998600 -4.10233800 2.78941400
v 3.61998600 -4.10233800 2.78941400
v 3.61998600 -4.10233800 2.78941400
v 3.61998600 -6.16682700 2.78941400
v 3.61998600 -6.16682700 2.78941400
v 3.61998600 -6.16682700 2.78941400
vn -0.00000000 -1.00000000 -0.00000000
vn -0.00000000 -1.00000000 -0.00000000
vn -0.00000000 -1.00000000 -0.00000000
vn -0.00000000 -1.00000000 -0.00000000
vn -0.00000000 -1.00000000 -0.00000000
vn -0.00000000 -1.00000000 -0.00000000
vn -0.00000000 -1.00000000 -0.00000000
vn -0.00000000 -1.00000000 -0.00000000
vn -0.00000000 -1.00000000 -0.00000000
vn -0.38270000 -0.00000000 -0.92390000
vn -0.92390000 -0.00000000 -0.38270000
vn -0.00000000 -1.00000000 -0.00000000
vn 0.38270000 -0.00000000 -0.92390000
vn -0.38270000 -0.00000000 -0.92390000
vn -0.00000000 -1.00000000 -0.00000000
vn 0.38270000 -0.00000000 -0.92390000
vn -0.38270000 -0.00000000 -0.92390000
vn 0.92390000 -0.00000000 -0.38270000
vn 0.38270000 -0.00000000 -0.92390000
vn -0.00000000 -1.00000000 -0.00000000
vn 0.92390000 -0.00000000 -0.38270000
vn 0.38270000 -0.00000000 -0.92390000
vn 0.92390000 -0.00000000 -0.38270000
vn 0.92390000 -0.00000000 0.38270000
vn -0.00000000 -1.00000000 -0.00000000
vn 0.92390000 -0.00000000 -0.38270000
vn 0.92390000 -0.00000000 0.38270000
vn 0.38270000 -0.00000000 0.92390000
vn 0.92390000 -0.00000000 0.38270000
vn -0.00000000 -1.00000000 -0.00000000
vn 0.92390000 -0.00000000 0.38270000
vn 0.38270000 -0.00000000 0.92390000
vn 0.38270000 -0.00000000 0.92390000
vn -0.38270000 -0.00000000 0.92390000
vn -0.00000000 -1.00000000 -0.00000000
vn 0.38270000 -0.00000000 0.92390000
vn -0.38270000 -0.00000000 0.92390000
vn -0.38270000 -0.00000000 0.92390000
vn -0.92390000 -0.00000000 0.38270000
vn -0.00000000 -1.00000000 -0.00000000
vn -0.92390000 -0.00000000 0.38270000
vn -0.38270000 -0.00000000 0.92390000
vn -0.92390000 -0.00000000 -0.38270000
vn -0.92390000 -0.00000000 0.38270000
vn -0.00000000 -1.00000000 -0.00000000
vn -0.92390000 -0.00000000 0.38270000
vn -0.92390000 -0.00000000 -0.38270000
vn -0.38270000 -0.00000000 -0.92390000
vn -0.00000000 -1.00000000 -0.00000000
vn -0.92390000 -0.00000000 -0.38270000
vn -0.38270000 -0.00000000 -0.92390000
vn -0.92390000 -0.00000000 -0.38270000
vn -0.92390000 -0.00000000 -0.38270000
vn -0.92390000 -0.00000000 0.38270000
vn -0.00000000 -1.00000000 -0.00000000
vn -0.92390000 -0.00000000 -0.38270000
vn -0.92390000 -0.00000000 0.38270000
vn -0.38270000 -0.00000000 0.92390000
vn -0.92390000 -0.00000000 0.38270000
vn -0.00000000 -1.00000000 -0.00000000
vn -0.38270000 -0.00000000 0.92390000
vn -0.92390000 -0.00000000 0.38270000
vn -0.38270000 -0.00000000 0.92390000
vn 0.38270000 -0.00000000 0.92390000
vn -0.00000000 -1.00000000 -0.00000000
vn -0.00000000 -1.00000000 -0.00000000
vn -0.38270000 -0.00000000 0.92390000
vn 0.38270000 -0.00000000 0.92390000
vn 0.38270000 -0.00000000 0.92390000
vn 0.92390000 -0.00000000 0.38270000
vn -0.00000000 -1.00000000 -0.00000000
vn 0.38270000 -0.00000000 0.92390000
vn 0.92390000 -0.00000000 0.38270000
vn 0.92390000 -0.00000000 -0.38270000
vn 0.92390000 -0.00000000 0.38270000
vn 0.92390000 -0.00000000 0.38270000
vn 0.92390000 -0.00000000 -0.38270000
vn -0.00000000 -1.00000000 -0.00000000
vn 0.38270000 -0.00000000 -0.92390000
vn 0.92390000 -0.00000000 -0.38270000
vn 0.38270000 -0.00000000 -0.92390000
vn 0.92390000 -0.00000000 -0.38270000
vn -0.00000000 -1.00000000 -0.00000000
vn 0.38270000 -0.00000000 -0.92390000
vn -0.38270000 -0.00000000 -0.92390000
vn -0.38270000 -0.00000000 -0.92390000
vn -0.00000000 -1.00000000 -0.00000000
vn 0.38270000 -0.00000000 -0.92390000
vn -0.00000000 -1.00000000 -0.00000000
vn -0.00000000 -1.00000000 -0.00000000
vn -0.00000000 -1.00000000 -0.00000000
vn -0.00000000 -1.00000000 -0.00000000
vn -0.00000000 -1.00000000 -0.00000000
vn -0.00000000 -1.00000000 -0.00000000
vn -0.00000000 -1.00000000 -0.00000000
vn -0.00000000 -1.00000000 -0.00000000
vn -0.00000000 -1.00000000 -0.00000000
vn -0.00000000 -1.00000000 -0.00000000
vn -0.00000000 -1.00000000 -0.00000000
vn -0.00000000 -1.00000000 -0.00000000
vn -0.00000000 -1.00000000 -0.00000000
vn -0.92390000 -0.00000000 -0.38270000
vn -0.38270000 -0.00000000 -0.92390000
vn -0.00000000 -1.00000000 -0.00000000
vn -0.00000000 0.07280000 -0.99730000
vn 0.05140000 0.05140000 -0.99730000
vn 0.05140000 -0.05140000 -0.99730000
vn -0.00000000 -0.07280000 -0.99730000
vn -0.05140000 -0.05140000 -0.99730000
vn -0.07280000 -0.00000000 -0.99730000
vn -0.05140000 0.05140000 -0.99730000
vn -0.00000000 1.00000000 -0.00000000
vn 0.70710000 0.70710000 -0.00000000
vn 1.00000000 -0.00000000 -0.00000000
vn 0.70710000 -0.70710000 -0.00000000
vn -0.00000000 -1.00000000 -0.00000000
vn -0.70710000 -0.70710000 -0.00000000
vn -1.00000000 -0.00000000 -0.00000000
vn -0.70710000 0.70710000 -0.00000000
vn -0.00000000 -0.00000000 1.00000000
vn -0.00000000 -0.00000000 1.00000000
vn -0.00000000 -0.00000000 1.00000000
vn 0.70710000 -0.70710000 -0.00000000
vn -0.00000000 -0.00000000 1.00000000
vn -0.00000000 -0.00000000 1.00000000
vn -0.00000000 -0.00000000 1.00000000
vn -0.00000000 -0.00000000 1.00000000
vn -0.00000000 -0.00000000 1.00000000
vn 0.07280000 -0.00000000 -0.99730000
vn 0.05140000 0.05140000 -0.99730000
vn -0.00000000 0.07280000 -0.99730000
vn 0.07280000 -0.00000000 -0.99730000
vn 0.05140000 -0.05140000 -0.99730000
vn -0.00000000 -0.07280000 -0.99730000
vn -0.05140000 -0.05140000 -0.99730000
vn -0.07280000 -0.00000000 -0.99730000
vn -0.05140000 0.05140000 -0.99730000
vn 0.70710000 0.70710000 -0.00000000
vn -0.00000000 1.00000000 -0.00000000
vn 1.00000000 -0.00000000 -0.00000000
vn -0.00000000 -0.00000000 1.00000000
vn -0.00000000 -1.00000000 -0.00000000
vn -0.70710000 -0.70710000 -0.00000000
vn -1.00000000 -0.00000000 -0.00000000
vn -0.70710000 0.70710000 -0.00000000
vn -0.30000000 -0.00000000 -0.95390000
vn -0.00000000 -0.70350000 -0.71070000
vn -0.30000000 -0.00000000 -0.95390000
vn -0.00000000 0.70350000 -0.71070000
vn -0.00000000 -0.70350000 -0.71070000
vn 0.30000000 -0.00000000 -0.95390000
vn 0.30000000 -0.00000000 -0.95390000
vn -0.00000000 0.70350000 -0.71070000
vn -0.00000000 -0.70350000 -0.71070000
vn -0.30000000 -0.00000000 -0.95390000
vn -0.00000000 -1.00000000 -0.00000000
vn -1.00000000 -0.00000000 -0.00000000
vn -0.30000000 -0.00000000 -0.95390000
vn -1.00000000 -0.00000000 -0.00000000
vn -0.00000000 1.00000000 -0.00000000
vn -0.00000000 0.70350000 -0.71070000
vn 0.30000000 -0.00000000 -0.95390000
vn -0.00000000 0.70350000 -0.71070000
vn -0.00000000 1.00000000 -0.00000000
vn 1.00000000 -0.00000000 -0.00000000
vn 0.30000000 -0.00000000 -0.95390000
vn -0.00000000 -0.70350000 -0.71070000
vn -0.00000000 -1.00000000 -0.00000000
vn 1.00000000 -0.00000000 -0.00000000
vn -0.00000000 -1.00000000 -0.00000000
vn -0.00000000 -0.00000000 1.00000000
vn -1.00000000 -0.00000000 -0.00000000
vn -0.00000000 1.00000000 -0.00000000
vn -1.00000000 -0.00000000 -0.00000000
vn -0.00000000 -0.00000000 1.00000000
vn -0.00000000 1.00000000 -0.00000000
vn -0.00000000 -0.00000000 1.00000000
vn 1.00000000 -0.00000000 -0.00000000
vn 1.00000000 -0.00000000 -0.00000000
vn -0.00000000 -0.00000000 1.00000000
vn -0.00000000 -1.00000000 -0.00000000
f 4//4 3//3 2//2
f 2//2 1//1 4//4
f 8//8 7//7 6//6
f 6//6 5//5 8//8
f 20//20 25//25 90//90
f 90//90 9//9 20//20
f 13//13 16//16 22//22
f 22//22 19//19 13//13
f 18//18 21//21 26//26
f 26//26 23//23 18//18
f 49//49 15//15 65//65
f 65//65 95//95 49//49
f 24//24 27//27 31//31
f 31//31 29//29 24//24
f 76//76 75//75 70//70
f 70//70 73//73 76//76
f 28//28 32//32 36//36
f 36//36 33//33 28//28
f 15//15 20//20 9//9
f 9//9 65//65 15//15
f 34//34 37//37 42//42
f 42//42 38//38 34//34
f 39//39 41//41 46//46
f 46//46 44//44 39//39
f 43//43 47//47 52//52
f 52//52 50//50 43//43
f 82//82 80//80 74//74
f 74//74 77//77 82//82
f 40//40 45//45 94//94
f 94//94 93//93 40//40
f 48//48 51//51 17//17
f 17//17 14//14 48//48
f 25//25 30//30 91//91
f 91//91 90//90 25//25
f 88//88 84//84 79//79
f 79//79 81//81 88//88
f 35//35 40//40 93//93
f 93//93 92//92 35//35
f 45//45 49//49 95//95
f 95//95 94//94 45//45
f 83//83 78//78 100//100
f 100//100 89//89 83//83
f 12//12 87//87 101//101
f 101//101 104//104 12//12
f 30//30 35//35 92//92
f 92//92 91//91 30//30
f 72//72 69//69 64//64
f 64//64 68//68 72//72
f 87//87 83//83 89//89
f 89//89 101//101 87//87
f 67//67 63//63 58//58
f 58//58 61//61 67//67
f 62//62 59//59 54//54
f 54//54 57//57 62//62
f 56//56 53//53 102//102
f 102//102 11//11 56//56
f 60//60 55//55 96//96
f 96//96 97//97 60//60
f 10//10 103//103 85//85
f 85//85 86//86 10//10
f 78//78 71//71 99//99
f 99//99 100//100 78//78
f 66//66 60//60 97//97
f 97//97 98//98 66//66
f 55//55 12//12 104//104
f 104//104 96//96 55//55
f 71//71 66//66 98//98
f 98//98 99//99 71//71
f 129//129 106//106 130//130
f 130//130 132//132 129//129
f 112//112 119//119 145//145
f 145//145 139//139 112//112
f 111//111 110//110 136//136
f 136//136 137//137 111//111
f 109//109 108//108 134//134
f 134//134 135//135 109//109
f 107//107 129//129 132//132
f 132//132 133//133 107//107
f 106//106 105//105 131//131
f 131//131 130//130 106//106
f 105//105 111//111 137//137
f 137//137 131//131 105//105
f 110//110 109//109 135//135
f 135//135 136//136 110//110
f 108//108 107//107 133//133
f 133//133 134//134 108//108
f 141//141 122//122 128//128
f 118//118 117//117 143//143
f 143//143 144//144 118//118
f 116//116 115//115 123//123
f 123//123 142//142 116//116
f 114//114 113//113 138//138
f 138//138 140//140 114//114
f 119//119 118//118 144//144
f 144//144 145//145 119//119
f 117//117 116//116 142//142
f 142//142 143//143 117//117
f 115//115 114//114 140//140
f 140//140 123//123 115//115
f 113//113 112//112 139//139
f 139//139 138//138 113//113
f 121//121 120//120 128//128
f 120//120 127//127 128//128
f 126//126 125//125 128//128
f 124//124 141//141 128//128
f 122//122 121//121 128//128
f 127//127 126//126 128//128
f 125//125 124//124 128//128
f 151//151 152//152 162//162
f 162//162 166//166 151//151
f 148//148 146//146 155//155
f 155//155 158//158 148//148
f 147//147 150//150 167//167
f 167//167 154//154 147//147
f 153//153 149//149 161//161
f 161//161 163//163 153//153
f 169//169 165//165 178//178
f 178//178 179//179 169//169
f 159//159 157//157 172//172
f 172//172 174//174 159//159
f 156//156 168//168 181//181
f 181//181 170//170 156//156
f 164//164 160//160 173//173
f 173//173 176//176 164//164
f 171//171 180//180 177//177
f 177//177 175//175 171//171

