mtllib material.mtl
usemtl material_0
v 2.45289700 -1.45262700 2.30939000
v 2.45289700 -1.45262700 2.30939000
v 2.45289700 -1.45262700 1.70741600
v 2.45289700 -1.45262700 1.70741600
v 2.45289700 -1.60245200 2.30939000
v 2.45289700 -1.60245200 2.30939000
v 2.45289700 -1.60245200 2.30939000
v 2.45289700 -1.60245200 1.70741600
v 2.45289700 -1.60245200 1.70741600
v 2.45289700 -1.60245200 1.70741600
v 0.44781100 -1.45262700 2.30939000
v 0.44781100 -1.45262700 2.30939000
v 0.44781100 -1.45262700 1.70741600
v 0.44781100 -1.45262700 1.70741600
v 0.44781100 -1.60245200 2.30939000
v 0.44781100 -1.60245200 2.30939000
v 0.44781100 -1.60245200 2.30939000
v 0.44781100 -1.60245200 1.70741600
v 0.44781100 -1.60245200 1.70741600
v 0.44781100 -1.60245200 1.70741600
v 0.44781100 -1.60245200 0.26056400
v 0.44781100 -1.60245200 0.26056400
v 0.44781100 -1.60245200 0.26056400
v 0.44781100 -1.60245200 1.58394800
v 0.44781100 -1.60245200 1.58394800
v 0.44781100 -1.60245200 1.58394800
v 0.44781100 -1.45262700 0.26056400
v 0.44781100 -1.45262700 0.26056400
v 0.44781100 -1.45262700 1.58394800
v 0.44781100 -1.45262700 1.58394800
v 2.45289700 -1.60245200 0.26056400
v 2.45289700 -1.60245200 0.26056400
v 2.45289700 -1.60245200 0.26056400
v 2.45289700 -1.60245200 1.58394800
v 2.45289700 -1.60245200 1.58394800
v 2.45289700 -1.60245200 1.58394800
v 2.45289700 -1.45262700 0.26056400
v 2.45289700 -1.45262700 0.26056400
v 2.45289700 -1.45262700 1.58394800
v 2.45289700 -1.45262700 1.58394800
v -0.22330300 -1.45485200 0.00860100
v -0.22330300 -1.45485200 0.00860100
v -0.22330300 -1.45485200 0.00860100
v -0.22330300 -1.45485200 2.78706400
v -0.22330300 -1.45485200 2.78706400
v -0.22330300 -1.45485200 2.78706400
v -0.22330300 0.54514800 0.00860100
v -0.22330300 0.54514800 0.00860100
v -0.22330300 0.54514800 0.00860100
v -0.22330300 0.54514800 2.78706400
v -0.22330300 0.54514800 2.78706400
v -0.22330300 0.54514800 2.78706400
v 3.05210500 -1.45485200 0.00860100
v 3.05210500 -1.45485200 0.00860100
v 3.05210500 -1.45485200 0.00860100
v 3.05210500 -1.45485200 2.78706400
v 3.05210500 -1.45485200 2.78706400
v 3.05210500 -1.45485200 2.78706400
v 3.05210500 0.54514800 0.00860100
v 3.05210500 0.54514800 0.00860100
v 3.05210500 0.54514800 0.00860100
v 3.05210500 0.54514800 2.78706400
v 3.05210500 0.54514800 2.78706400
v 3.05210500 0.54514800 2.78706400
v 4.00085200 -1.41424600 0.00860100
v 4.00085200 -1.41424600 0.00860100
v 4.00085200 -1.41424600 0.00860100
v 4.00085200 -1.41424600 2.79174900
v 4.00085200 -1.41424600 2.79174900
v 4.00085200 -1.41424600 2.79174900
v 4.00085200 0.58575400 0.00860100
v 4.00085200 0.58575400 0.00860100
v 4.00085200 0.58575400 0.00860100
v 4.00085200 0.58575400 2.79174900
v 4.00085200 0.58575400 2.79174900
v 4.00085200 0.58575400 2.79174900
v 10.66690800 -1.41424600 0.00860100
v 10.66690800 -1.41424600 0.00860100
v 10.66690800 -1.41424600 0.00860100
v 10.66690800 -1.41424600 2.79174900
v 10.66690800 -1.41424600 2.79174900
v 10.66690800 -1.41424600 2.79174900
v 10.66690800 0.58575400 0.00860100
v 10.66690800 0.58575400 0.00860100
v 10.66690800 0.58575400 0.00860100
v 10.66690800 0.58575400 2.79174900
v 10.66690800 0.58575400 2.79174900
v 10.66690800 0.58575400 2.79174900
v 4.25904400 -1.41424600 2.79174900
v 4.25904400 -1.41424600 2.79174900
v 4.25904400 -1.41424600 0.00860100
v 4.25904400 -1.41424600 0.00860100
v 4.25904400 -1.41424600 0.00860100
v 4.25904400 0.58575400 2.79174900
v 4.25904400 0.58575400 2.79174900
v 4.25904400 0.58575400 0.00860100
v 4.25904400 0.58575400 0.00860100
v 4.25904400 0.58575400 0.00860100
v 10.66690800 -1.41424600 2.55403800
v 10.66690800 -1.41424600 2.55403800
v 10.66690800 0.58575400 2.55403800
v 10.66690800 0.58575400 2.55403800
v 4.00085200 0.58575400 2.55403800
v 4.00085200 0.58575400 2.55403800
v 4.00085200 -1.41424600 2.55403800
v 4.00085200 -1.41424600 2.55403800
v 4.25904400 0.58575400 2.55403800
v 4.25904400 0.58575400 2.55403800
v 4.25904400 0.58575400 2.55403800
v 4.25904400 -1.41424600 2.55403800
v 4.25904400 -1.41424600 2.55403800
v 4.25904400 -1.41424600 2.55403800
v 10.37282000 0.58575400 2.79174900
v 10.37282000 0.58575400 2.79174900
v 10.37282000 -1.41424600 0.00860100
v 10.37282000 -1.41424600 0.00860100
v 10.37282000 -1.41424600 0.00860100
v 10.37282000 0.58575400 2.55403800
v 10.37282000 0.58575400 2.55403800
v 10.37282000 0.58575400 2.55403800
v 10.37282000 -1.41424600 2.55403800
v 10.37282000 -1.41424600 2.55403800
v 10.37282000 -1.41424600 2.55403800
v 10.37282000 -1.41424600 2.79174900
v 10.37282000 -1.41424600 2.79174900
v 10.37282000 0.58575400 0.00860100
v 10.37282000 0.58575400 0.00860100
v 10.37282000 0.58575400 0.00860100
v -7.92545600 -1.45485200 0.00860100
v -7.92545600 -1.45485200 0.00860100
v -7.92545600 -1.45485200 0.00860100
v -7.92545600 -1.45485200 2.78706400
v -7.92545600 -1.45485200 2.78706400
v -7.92545600 -1.45485200 2.78706400
v -7.92545600 0.54514800 0.00860100
v -7.92545600 0.54514800 0.00860100
v -7.92545600 0.54514800 0.00860100
v -7.92545600 0.54514800 2.78706400
v -7.92545600 0.54514800 2.78706400
v -7.92545600 0.54514800 2.78706400
v -1.25940000 -1.45485200 0.00860100
v -1.25940000 -1.45485200 0.00860100
v -1.25940000 -1.45485200 0.00860100
v -1.25940000 -1.45485200 2.78706400
v -1.25940000 -1.45485200 2.78706400
v -1.25940000 -1.45485200 2.78706400
v -1.25940000 0.54514800 0.00860100
v -1.25940000 0.54514800 0.00860100
v -1.25940000 0.54514800 0.00860100
v -1.25940000 0.54514800 2.78706400
v -1.25940000 0.54514800 2.78706400
v -1.25940000 0.54514800 2.78706400
v 0.47625900 4.45690100 3.63538200
v 0.47625900 4.45690100 3.63538200
v 0.47625900 4.45690100 3.63538200
v 0.47625900 4.45690100 5.44132000
v 0.47625900 4.45690100 5.44132000
v 0.47625900 4.45690100 5.44132000
v 0.47625900 6.45690200 3.63538200
v 0.47625900 6.45690200 3.63538200
v 0.47625900 6.45690200 3.63538200
v 0.47625900 6.45690200 5.44132000
v 0.47625900 6.45690200 5.44132000
v 0.47625900 6.45690200 5.44132000
v 5.05148300 4.45690100 3.63538200
v 5.05148300 4.45690100 3.63538200
v 5.05148300 4.45690100 3.63538200
v 5.05148300 4.45690100 5.44132000
v 5.05148300 4.45690100 5.44132000
v 5.05148300 4.45690100 5.44132000
v 5.05148300 6.45690200 3.63538200
v 5.05148300 6.45690200 3.63538200
v 5.05148300 6.45690200 3.63538200
v 5.05148300 6.45690200 5.44132000
v 5.05148300 6.45690200 5.44132000
v 5.05148300 6.45690200 5.44132000
v 0.71086700 4.30036900 3.88734400
v 0.71086700 4.30036900 3.88734400
v 0.71086700 4.30036900 3.88734400
v 0.71086700 4.30036900 5.21072900
v 0.71086700 4.30036900 5.21072900
v 0.71086700 4.30036900 5.21072900
v 0.71086700 4.45019400 3.88734400
v 0.71086700 4.45019400 3.88734400
v 0.71086700 4.45019400 5.21072900
v 0.71086700 4.45019400 5.21072900
v 2.71595200 4.30036900 3.88734400
v 2.71595200 4.30036900 3.88734400
v 2.71595200 4.30036900 3.88734400
v 2.71595200 4.30036900 5.21072900
v 2.71595200 4.30036900 5.21072900
v 2.71595200 4.30036900 5.21072900
v 2.71595200 4.45019400 3.88734400
v 2.71595200 4.45019400 3.88734400
v 2.71595200 4.45019400 5.21072900
v 2.71595200 4.45019400 5.21072900
v 2.86779300 4.30036900 3.88734400
v 2.86779300 4.30036900 3.88734400
v 2.86779300 4.30036900 3.88734400
v 2.86779300 4.30036900 5.21072900
v 2.86779300 4.30036900 5.21072900
v 2.86779300 4.30036900 5.21072900
v 2.86779300 4.45019400 3.88734400
v 2.86779300 4.45019400 3.88734400
v 2.86779300 4.45019400 5.21072900
v 2.86779300 4.45019400 5.21072900
v 4.87287800 4.30036900 3.88734400
v 4.87287800 4.30036900 3.88734400
v 4.87287800 4.30036900 3.88734400
v 4.87287800 4.30036900 5.21072900
v 4.87287800 4.30036900 5.21072900
v 4.87287800 4.30036900 5.21072900
v 4.87287800 4.45019400 3.88734400
v 4.87287800 4.45019400 3.88734400
v 4.87287800 4.45019400 5.21072900
v 4.87287800 4.45019400 5.21072900
v 6.11731200 4.39812000 0.00982500
v 6.11731200 4.39812000 0.00982500
v 6.11731200 4.39812000 0.00982500
v 6.11731200 4.39812000 4.63434100
v 6.11731200 4.39812000 4.63434100
v 6.11731200 4.39812000 4.63434100
v 6.11731200 6.49687200 0.00982500
v 6.11731200 6.49687200 0.00982500
v 6.11731200 6.49687200 0.00982500
v 6.11731200 6.49687200 4.63434100
v 6.11731200 6.49687200 4.63434100
v 6.11731200 6.49687200 4.63434100
v 9.39858100 4.39812000 0.00982500
v 9.39858100 4.39812000 0.00982500
v 9.39858100 4.39812000 0.00982500
v 9.39858100 4.39812000 4.63434100
v 9.39858100 4.39812000 4.63434100
v 9.39858100 4.39812000 4.63434100
v 9.39858100 6.49687200 0.00982500
v 9.39858100 6.49687200 0.00982500
v 9.39858100 6.49687200 0.00982500
v 9.39858100 6.49687200 4.63434100
v 9.39858100 6.49687200 4.63434100
v 9.39858100 6.49687200 4.63434100
v 6.11731200 4.39812000 2.32208300
v 6.11731200 4.39812000 2.32208300
v 6.11731200 6.49687200 2.32208300
v 6.11731200 6.49687200 2.32208300
v 9.39858100 6.49687200 2.32208300
v 9.39858100 6.49687200 2.32208300
v 9.39858100 4.39812000 2.32208300
v 9.39858100 4.39812000 2.32208300
v 9.01869300 6.49687200 0.00982500
v 9.01869300 6.49687200 0.00982500
v 6.49720000 6.49687200 0.00982500
v 6.49720000 6.49687200 0.00982500
v 6.49720000 6.49687200 4.63434100
v 6.49720000 6.49687200 4.63434100
v 9.01869400 6.49687200 4.63434100
v 9.01869400 6.49687200 4.63434100
v 6.49720000 4.39812000 0.00982500
v 6.49720000 4.39812000 0.00982500
v 9.01869400 4.39812000 0.00982500
v 9.01869400 4.39812000 0.00982500
v 9.01869300 4.39812000 4.63434100
v 9.01869300 4.39812000 4.63434100
v 6.49720000 4.39812000 4.63434100
v 6.49720000 4.39812000 4.63434100
v 9.01869300 4.39812000 2.32208300
v 6.49720000 4.39812000 2.32208300
v 6.49720000 6.49687200 2.32208300
v 9.01869400 6.49687200 2.32208300
v 6.11731200 4.95783100 0.00982500
v 6.11731200 4.95783100 0.00982500
v 6.11731200 4.95783100 4.63434100
v 6.11731200 4.95783100 4.63434100
v 9.39858100 4.95783100 0.00982500
v 9.39858100 4.95783100 0.00982500
v 9.39858100 4.95783100 4.63434100
v 9.39858100 4.95783100 4.63434100
v 9.39858100 4.95783100 2.32208300
v 6.11731200 4.95783100 2.32208300
v 9.01869400 4.95783100 4.63434100
v 6.49720000 4.95783100 4.63434100
v 6.49720000 4.95783100 0.00982500
v 9.01869400 4.95783100 0.00982500
v 5.38198200 -5.33913500 2.78511700
v 5.38198200 -5.33913500 2.78511700
v 5.38198200 -5.33913500 2.78511700
v 5.38198200 -5.33913500 3.10491800
v 5.38198200 -5.33913500 3.10491800
v 5.38198200 -5.33913500 3.10491800
v 5.38198200 -4.21902800 2.78511700
v 5.38198200 -4.21902800 2.78511700
v 5.38198200 -4.21902800 2.78511700
v 5.38198200 -4.21902800 3.10491800
v 5.38198200 -4.21902800 3.10491800
v 5.38198200 -4.21902800 3.10491800
v 6.50208900 -5.33913500 2.78511700
v 6.50208900 -5.33913500 2.78511700
v 6.50208900 -5.33913500 2.78511700
v 6.50208900 -5.33913500 3.10491800
v 6.50208900 -5.33913500 3.10491800
v 6.50208900 -5.33913500 3.10491800
v 6.50208900 -4.21902800 2.78511700
v 6.50208900 -4.21902800 2.78511700
v 6.50208900 -4.21902800 2.78511700
v 6.50208900 -4.21902800 3.10491800
v 6.50208900 -4.21902800 3.10491800
v 6.50208900 -4.21902800 3.10491800
v 5.62111700 -5.10000000 3.10491800
v 5.62111700 -5.10000000 3.10491800
v 5.62111700 -5.10000000 3.10491800
v 5.62111700 -4.45816200 3.10491800
v 5.62111700 -4.45816200 3.10491800
v 5.62111700 -4.45816200 3.10491800
v 6.26295400 -4.45816200 3.10491800
v 6.26295400 -4.45816200 3.10491800
v 6.26295400 -4.45816200 3.10491800
v 6.26295400 -5.10000000 3.10491800
v 6.26295400 -5.10000000 3.10491800
v 6.26295400 -5.10000000 3.10491800
v 5.62111700 -5.10000000 3.13623600
v 5.62111700 -5.10000000 3.13623600
v 5.62111700 -5.10000000 3.13623600
v 5.62111700 -5.10000000 3.13623600
v 5.62111700 -4.45816200 3.13623600
v 5.62111700 -4.45816200 3.13623600
v 5.62111700 -4.45816200 3.13623600
v 5.62111700 -4.45816200 3.13623600
v 6.26295400 -4.45816200 3.13623600
v 6.26295400 -4.45816200 3.13623600
v 6.26295400 -4.45816200 3.13623600
v 6.26295400 -4.45816200 3.13623600
v 6.26295400 -5.10000000 3.13623600
v 6.26295400 -5.10000000 3.13623600
v 6.26295400 -5.10000000 3.13623600
v 6.26295400 -5.10000000 3.13623600
v 5.48207600 -5.23904100 3.14186100
v 5.48207600 -5.23904100 3.14186100
v 5.48207600 -5.23904100 3.14186100
v 5.48207600 -5.23904100 3.14186100
v 5.48207600 -4.31912100 3.14186100
v 5.48207600 -4.31912100 3.14186100
v 5.48207600 -4.31912100 3.14186100
v 5.48207600 -4.31912100 3.14186100
v 6.40199500 -4.31912100 3.14186100
v 6.40199500 -4.31912100 3.14186100
v 6.40199500 -4.31912100 3.14186100
v 6.40199500 -4.31912100 3.14186100
v 6.40199500 -5.23904100 3.14186100
v 6.40199500 -5.23904100 3.14186100
v 6.40199500 -5.23904100 3.14186100
v 6.40199500 -5.23904100 3.14186100
v 5.48207600 -5.07245600 3.93885500
v 5.48207600 -5.07245600 3.93885500
v 5.48207600 -5.07245600 3.93885500
v 5.48207600 -4.31912100 3.93885500
v 5.48207600 -4.31912100 3.93885500
v 5.48207600 -4.31912100 3.93885500
v 6.40199500 -4.31912100 3.93885500
v 6.40199500 -4.31912100 3.93885500
v 6.40199500 -4.31912100 3.93885500
v 6.40199500 -5.07245600 3.93885500
v 6.40199500 -5.07245600 3.93885500
v 6.40199500 -5.07245600 3.93885500
v 6.36219900 -5.23183500 3.17634000
v 6.36219900 -5.23183500 3.17634000
v 6.36219900 -5.23183500 3.17634000
v 5.52187200 -5.23183500 3.17634000
v 5.52187200 -5.23183500 3.17634000
v 5.52187200 -5.23183500 3.17634000
v 6.36219900 -5.07966300 3.90437600
v 6.36219900 -5.07966300 3.90437600
v 6.36219900 -5.07966300 3.90437600
v 5.52187200 -5.07966300 3.90437600
v 5.52187200 -5.07966300 3.90437600
v 5.52187200 -5.07966300 3.90437600
v 6.36219900 -5.19607600 3.17634000
v 6.36219900 -5.19607600 3.17634000
v 6.36219900 -5.19607600 3.17634000
v 6.36219900 -5.19607600 3.17634000
v 5.52187200 -5.19607600 3.17634000
v 5.52187200 -5.19607600 3.17634000
v 5.52187200 -5.19607600 3.17634000
v 5.52187200 -5.19607600 3.17634000
v 6.36219900 -5.04390400 3.90437600
v 6.36219900 -5.04390400 3.90437600
v 6.36219900 -5.04390400 3.90437600
v 6.36219900 -5.04390400 3.90437600
v 5.52187200 -5.04390400 3.90437600
v 5.52187200 -5.04390400 3.90437600
v 5.52187200 -5.04390400 3.90437600
v 5.52187200 -5.04390400 3.90437600
v 6.17401000 -5.16052600 3.23893000
v 6.17401000 -5.16052600 3.23893000
v 6.17401000 -5.16052600 3.23893000
v 6.17401000 -5.16052600 3.23893000
v 5.55807200 -5.16052600 3.23893000
v 5.55807200 -5.16052600 3.23893000
v 5.55807200 -5.16052600 3.23893000
v 5.55807200 -5.16052600 3.23893000
v 6.17401000 -5.03452000 3.84178600
v 6.17401000 -5.03452000 3.84178600
v 6.17401000 -5.03452000 3.84178600
v 6.17401000 -5.03452000 3.84178600
v 5.55807200 -5.03452000 3.84178600
v 5.55807200 -5.03452000 3.84178600
v 5.55807200 -5.03452000 3.84178600
v 5.55807200 -5.03452000 3.84178600
v 6.13401000 -5.12427400 3.28341300
v 6.13401000 -5.12427400 3.28341300
v 5.59807200 -5.12427400 3.28341300
v 5.59807200 -5.12427400 3.28341300
v 6.13401000 -5.01686300 3.79730300
v 6.13401000 -5.01686300 3.79730300
v 5.59807200 -5.01686300 3.79730300
v 5.59807200 -5.01686300 3.79730300
v 5.43360000 -5.41266900 2.78511700
v 5.43360000 -5.41266900 2.78511700
v 5.43360000 -5.41266900 2.78511700
v 5.43360000 -5.41266900 3.05383000
v 5.43360000 -5.41266900 3.05383000
v 5.43360000 -5.41266900 3.05383000
v 6.45047000 -5.41266900 2.78511700
v 6.45047000 -5.41266900 2.78511700
v 6.45047000 -5.41266900 2.78511700
v 6.45047000 -5.41266900 3.05383000
v 6.45047000 -5.41266900 3.05383000
v 6.45047000 -5.41266900 3.05383000
v 5.43360000 -5.91112100 2.78511700
v 5.43360000 -5.91112100 2.78511700
v 5.43360000 -5.91112100 2.78511700
v 5.43360000 -5.91112100 2.90908000
v 5.43360000 -5.91112100 2.90908000
v 5.43360000 -5.91112100 2.90908000
v 6.45047000 -5.91112100 2.90908000
v 6.45047000 -5.91112100 2.90908000
v 6.45047000 -5.91112100 2.90908000
v 6.45047000 -5.91112100 2.78511700
v 6.45047000 -5.91112100 2.78511700
v 6.45047000 -5.91112100 2.78511700
v 5.43360000 -5.41266900 2.91947300
v 5.43360000 -5.41266900 2.91947300
v 6.45047000 -5.41266900 2.91947300
v 6.45047000 -5.41266900 2.91947300
v 5.43360000 -5.94363400 2.84709800
v 5.43360000 -5.94363400 2.84709800
v 5.43360000 -5.94363400 2.84709800
v 6.45047000 -5.94363400 2.84709800
v 6.45047000 -5.94363400 2.84709800
v 6.45047000 -5.94363400 2.84709800
v 6.36109500 -5.56789400 2.99839900
v 5.52297600 -5.56789400 2.99839900
v 6.36109500 -5.84512100 2.91789200
v 5.52297600 -5.84512100 2.91789200
v 6.73482300 -4.84886700 2.78511700
v 6.73482300 -4.84886700 2.78511700
v 6.73482300 -4.84886700 3.02798700
v 6.73482300 -4.84886700 3.02798700
v 6.73482300 -4.84886700 3.02798700
v 6.73482300 -4.32690800 2.78511700
v 6.73482300 -4.32690800 2.78511700
v 6.73482300 -4.32690800 3.02798700
v 6.73482300 -4.32690800 3.02798700
v 6.73482300 -4.32690800 3.02798700
v 7.09298100 -4.84886700 2.78511700
v 7.09298100 -4.84886700 2.78511700
v 7.09298100 -4.84886700 3.02798700
v 7.09298100 -4.84886700 3.02798700
v 7.09298100 -4.84886700 3.02798700
v 7.09298100 -4.32690800 2.78511700
v 7.09298100 -4.32690800 2.78511700
v 7.09298100 -4.32690800 3.02798700
v 7.09298100 -4.32690800 3.02798700
v 7.09298100 -4.32690800 3.02798700
v -7.64737200 -6.11421900 0.00860100
v -7.64737200 -6.11421900 0.00860100
v -7.64737200 -6.11421900 0.00860100
v -7.64737200 -6.11421900 2.60534500
v -7.64737200 -6.11421900 2.60534500
v -7.64737200 -6.11421900 2.60534500
v -7.64737200 -4.72656500 0.00860100
v -7.64737200 -4.72656500 0.00860100
v -7.64737200 -4.72656500 0.00860100
v -7.64737200 -4.72656500 2.60534500
v -7.64737200 -4.72656500 2.60534500
v -7.64737200 -4.72656500 2.60534500
v -4.09336900 -6.11421900 0.00860100
v -4.09336900 -6.11421900 0.00860100
v -4.09336900 -6.11421900 0.00860100
v -4.09336900 -6.11421900 2.60534500
v -4.09336900 -6.11421900 2.60534500
v -4.09336900 -6.11421900 2.60534500
v -4.09336900 -4.72656500 0.00860100
v -4.09336900 -4.72656500 0.00860100
v -4.09336900 -4.72656500 0.00860100
v -4.09336900 -4.72656500 2.60534500
v -4.09336900 -4.72656500 2.60534500
v -4.09336900 -4.72656500 2.60534500
v -6.82738500 -6.11421900 2.60534500
v -6.82738500 -6.11421900 2.60534500
v -6.82738500 -6.11421900 2.60534500
v -6.82738500 -6.11421900 2.60534500
v -4.91335400 -6.11421900 2.60534500
v -4.91335400 -6.11421900 2.60534500
v -4.91335400 -6.11421900 2.60534500
v -4.91335400 -6.11421900 2.60534500
v -4.91335400 -6.11421900 0.00860100
v -4.91335400 -6.11421900 0.00860100
v -6.82738500 -6.11421900 0.00860100
v -6.82738500 -6.11421900 0.00860100
v -4.91335400 -4.72656500 2.60534500
v -4.91335400 -4.72656500 2.60534500
v -6.82738500 -4.72656500 2.60534500
v -6.82738500 -4.72656500 2.60534500
v -6.82738500 -4.72656500 0.00860100
v -6.82738500 -4.72656500 0.00860100
v -4.91335400 -4.72656500 0.00860100
v -4.91335400 -4.72656500 0.00860100
v -7.64737200 -6.11421900 1.55091000
v -7.64737200 -6.11421900 1.55091000
v -7.64737200 -6.11421900 1.55091000
v -7.64737200 -6.11421900 1.55091000
v -7.64737200 -4.72656500 1.55091000
v -7.64737200 -4.72656500 1.55091000
v -7.64737200 -4.72656500 1.55091000
v -7.64737200 -4.72656500 1.55091000
v -4.09336900 -4.72656500 1.55091000
v -4.09336900 -4.72656500 1.55091000
v -4.09336900 -4.72656500 1.55091000
v -4.09336900 -4.72656500 1.55091000
v -4.09336900 -6.11421900 1.55091000
v -4.09336900 -6.11421900 1.55091000
v -4.09336900 -6.11421900 1.55091000
v -4.09336900 -6.11421900 1.55091000
v -4.91335400 -4.72656500 1.55091000
v -4.91335400 -4.72656500 1.55091000
v -6.82738500 -4.72656500 1.55091000
v -6.82738500 -4.72656500 1.55091000
v -6.82738500 -6.11421900 1.55091000
v -6.82738500 -6.11421900 1.55091000
v -4.91335400 -6.11421900 1.55091000
v -4.91335400 -6.11421900 1.55091000
v -7.64737200 -6.11421900 1.91703300
v -7.64737200 -6.11421900 1.91703300
v -7.64737200 -4.72656500 1.91703300
v -7.64737200 -4.72656500 1.91703300
v -4.09336900 -4.72656500 1.91703300
v -4.09336900 -4.72656500 1.91703300
v -4.09336900 -6.11421900 1.91703300
v -4.09336900 -6.11421900 1.91703300
v -4.91335400 -4.72656500 1.91703300
v -6.82738500 -4.72656500 1.91703300
v -6.82738500 -6.11421900 1.91703300
v -6.82738500 -6.11421900 1.91703300
v -6.82738500 -6.11421900 1.91703300
v -4.91335400 -6.11421900 1.91703300
v -4.91335400 -6.11421900 1.91703300
v -4.91335400 -6.11421900 1.91703300
v -7.64737200 -5.42039200 0.00860100
v -7.64737200 -5.42039200 0.00860100
v -7.64737200 -5.42039200 2.60534500
v -7.64737200 -5.42039200 2.60534500
v -4.09336900 -5.42039200 0.00860100
v -4.09336900 -5.42039200 0.00860100
v -4.09336900 -5.42039200 2.60534500
v -4.09336900 -5.42039200 2.60534500
v -4.91335400 -5.42039200 0.00860100
v -6.82738500 -5.42039200 2.60534500
v -6.82738500 -5.42039200 2.60534500
v -6.82738500 -5.42039200 2.60534500
v -6.82738500 -5.42039200 0.00860100
v -4.91335400 -5.42039200 2.60534500
v -4.91335400 -5.42039200 2.60534500
v -4.91335400 -5.42039200 2.60534500
v -4.09336900 -5.42039200 1.55091000
v -4.09336900 -5.42039200 1.55091000
v -7.64737200 -5.42039200 1.55091000
v -7.64737200 -5.42039200 1.55091000
v -4.09336900 -5.42039200 1.91703300
v -7.64737200 -5.42039200 1.91703300
v -4.91871600 -6.08425600 2.55810700
v -4.91871600 -6.08425600 2.55810700
v -6.82202300 -6.08425600 2.55810700
v -6.82202300 -6.08425600 2.55810700
v -6.82202300 -6.08425600 1.93135500
v -6.82202300 -6.08425600 1.93135500
v -4.91871600 -6.08425600 1.93135500
v -4.91871600 -6.08425600 1.93135500
v -6.82202300 -5.42512600 2.55810700
v -6.82202300 -5.42512600 2.55810700
v -4.91871600 -5.42512600 2.55810700
v -4.91871600 -5.42512600 2.55810700
v -6.43048700 -6.11421900 0.18464600
v -5.31025300 -6.11421900 0.18464600
v -6.43048700 -6.11421900 1.37486400
v -5.31025300 -6.11421900 1.37486400
v -7.64737200 -4.72656500 1.58217400
v -7.64737200 -4.72656500 1.58217400
v -7.64737200 -4.72656500 1.58217400
v -7.64737200 -4.72656500 1.58217400
v -4.09336900 -4.72656500 1.58217400
v -4.09336900 -4.72656500 1.58217400
v -4.09336900 -4.72656500 1.58217400
v -4.09336900 -4.72656500 1.58217400
v -4.09336900 -6.11421900 1.58217400
v -4.09336900 -6.11421900 1.58217400
v -4.09336900 -6.11421900 1.58217400
v -4.09336900 -6.11421900 1.58217400
v -4.91335400 -4.72656500 1.58217400
v -4.91335400 -4.72656500 1.58217400
v -6.82738500 -4.72656500 1.58217400
v -6.82738500 -4.72656500 1.58217400
v -6.82738500 -6.11421900 1.58217400
v -6.82738500 -6.11421900 1.58217400
v -4.91335400 -6.11421900 1.58217400
v -4.91335400 -6.11421900 1.58217400
v -7.64737200 -6.11421900 1.58217400
v -7.64737200 -6.11421900 1.58217400
v -7.64737200 -6.11421900 1.58217400
v -7.64737200 -6.11421900 1.58217400
v -7.64737200 -5.42039200 1.58217400
v -7.64737200 -5.42039200 1.58217400
v -4.09336900 -5.42039200 1.58217400
v -4.09336900 -5.42039200 1.58217400
v -7.60998100 -4.74116400 1.58184500
v -7.60998100 -4.74116400 1.58184500
v -7.60998100 -4.74116400 1.58184500
v -7.60998100 -4.74116400 1.58184500
v -7.60998100 -4.74116400 1.55123900
v -7.60998100 -4.74116400 1.55123900
v -7.60998100 -4.74116400 1.55123900
v -7.60998100 -4.74116400 1.55123900
v -4.13075900 -4.74116400 1.58184500
v -4.13075900 -4.74116400 1.58184500
v -4.13075900 -4.74116400 1.58184500
v -4.13075900 -4.74116400 1.58184500
v -4.13075900 -4.74116400 1.55123900
v -4.13075900 -4.74116400 1.55123900
v -4.13075900 -4.74116400 1.55123900
v -4.13075900 -4.74116400 1.55123900
v -4.13075900 -6.09962000 1.58184500
v -4.13075900 -6.09962000 1.58184500
v -4.13075900 -6.09962000 1.58184500
v -4.13075900 -6.09962000 1.58184500
v -4.13075900 -6.09962000 1.55123900
v -4.13075900 -6.09962000 1.55123900
v -4.13075900 -6.09962000 1.55123900
v -4.13075900 -6.09962000 1.55123900
v -4.93349200 -4.74116400 1.58184500
v -4.93349200 -4.74116400 1.58184500
v -4.93349200 -4.74116400 1.55123900
v -4.93349200 -4.74116400 1.55123900
v -6.80724800 -4.74116400 1.58184500
v -6.80724800 -4.74116400 1.58184500
v -6.80724800 -4.74116400 1.55123900
v -6.80724800 -4.74116400 1.55123900
v -6.80724800 -6.09962000 1.58184500
v -6.80724800 -6.09962000 1.58184500
v -6.80724800 -6.09962000 1.55123900
v -6.80724800 -6.09962000 1.55123900
v -4.93349200 -6.09962000 1.58184500
v -4.93349200 -6.09962000 1.58184500
v -4.93349200 -6.09962000 1.55123900
v -4.93349200 -6.09962000 1.55123900
v -7.60998100 -6.09962000 1.55123900
v -7.60998100 -6.09962000 1.55123900
v -7.60998100 -6.09962000 1.55123900
v -7.60998100 -6.09962000 1.55123900
v -4.13075900 -5.42039200 1.55123900
v -4.13075900 -5.42039200 1.55123900
v -7.60998100 -5.42039200 1.55123900
v -7.60998100 -5.42039200 1.55123900
v -7.60998100 -5.42039200 1.58184500
v -7.60998100 -5.42039200 1.58184500
v -4.13075900 -5.42039200 1.58184500
v -4.13075900 -5.42039200 1.58184500
v -7.60998100 -6.09962000 1.58184500
v -7.60998100 -6.09962000 1.58184500
v -7.60998100 -6.09962000 1.58184500
v -7.60998100 -6.09962000 1.58184500
v 3.86552400 -6.13458300 0.00860100
v 3.86552400 -6.13458300 0.00860100
v 3.86552400 -6.13458300 0.00860100
v 3.86552400 -6.13458300 2.79174900
v 3.86552400 -6.13458300 2.79174900
v 3.86552400 -6.13458300 2.79174900
v 3.86552400 -4.13458300 0.00860100
v 3.86552400 -4.13458300 0.00860100
v 3.86552400 -4.13458300 0.00860100
v 3.86552400 -4.13458300 2.79174900
v 3.86552400 -4.13458300 2.79174900
v 3.86552400 -4.13458300 2.79174900
v 10.53158000 -6.13458300 0.00860100
v 10.53158000 -6.13458300 0.00860100
v 10.53158000 -6.13458300 0.00860100
v 10.53158000 -6.13458300 2.79174900
v 10.53158000 -6.13458300 2.79174900
v 10.53158000 -6.13458300 2.79174900
v 10.53158000 -4.13458300 0.00860100
v 10.53158000 -4.13458300 0.00860100
v 10.53158000 -4.13458300 0.00860100
v 10.53158000 -4.13458300 2.79174900
v 10.53158000 -4.13458300 2.79174900
v 10.53158000 -4.13458300 2.79174900
v 4.12371600 -6.13458300 2.79174900
v 4.12371600 -6.13458300 2.79174900
v 4.12371600 -6.13458300 0.00860100
v 4.12371600 -6.13458300 0.00860100
v 4.12371600 -6.13458300 0.00860100
v 4.12371600 -4.13458300 2.79174900
v 4.12371600 -4.13458300 2.79174900
v 4.12371600 -4.13458300 0.00860100
v 4.12371600 -4.13458300 0.00860100
v 4.12371600 -4.13458300 0.00860100
v 10.53158000 -6.13458300 2.55403800
v 10.53158000 -6.13458300 2.55403800
v 10.53158000 -4.13458300 2.55403800
v 10.53158000 -4.13458300 2.55403800
v 3.86552400 -4.13458300 2.55403800
v 3.86552400 -4.13458300 2.55403800
v 3.86552400 -6.13458300 2.55403800
v 3.86552400 -6.13458300 2.55403800
v 4.12371600 -4.13458300 2.55403800
v 4.12371600 -4.13458300 2.55403800
v 4.12371600 -4.13458300 2.55403800
v 4.12371600 -6.13458300 2.55403800
v 4.12371600 -6.13458300 2.55403800
v 4.12371600 -6.13458300 2.55403800
v 7.77490000 -4.13458300 2.79174900
v 7.77490000 -4.13458300 2.79174900
v 7.77490000 -6.13458300 0.00860100
v 7.77490000 -6.13458300 0.00860100
v 7.77490000 -6.13458300 0.00860100
v 7.77490000 -6.13458300 2.55403800
v 7.77490000 -6.13458300 2.55403800
v 7.77490000 -6.13458300 2.55403800
v 7.77490000 -6.13458300 2.79174900
v 7.77490000 -6.13458300 2.79174900
v 7.77490000 -4.13458300 0.00860100
v 7.77490000 -4.13458300 0.00860100
v 7.77490000 -4.13458300 0.00860100
v 7.77490000 -4.13458300 2.55403800
v 7.77490000 -4.13458300 2.55403800
v 7.77490000 -4.13458300 2.55403800
v 8.17491800 -6.29111400 0.26056400
v 8.17491800 -6.29111400 0.26056400
v 8.17491800 -6.29111400 0.26056400
v 8.17491800 -6.29111400 1.58394800
v 8.17491800 -6.29111400 1.58394800
v 8.17491800 -6.29111400 1.58394800
v 8.17491800 -6.14129000 0.26056400
v 8.17491800 -6.14129000 0.26056400
v 8.17491800 -6.14129000 1.58394800
v 8.17491800 -6.14129000 1.58394800
v 10.18000400 -6.29111400 0.26056400
v 10.18000400 -6.29111400 0.26056400
v 10.18000400 -6.29111400 0.26056400
v 10.18000400 -6.29111400 1.58394800
v 10.18000400 -6.29111400 1.58394800
v 10.18000400 -6.29111400 1.58394800
v 10.18000400 -6.14129000 0.26056400
v 10.18000400 -6.14129000 0.26056400
v 10.18000400 -6.14129000 1.58394800
v 10.18000400 -6.14129000 1.58394800
v 10.18452500 -6.14129000 2.30939000
v 10.18452500 -6.14129000 2.30939000
v 10.18452500 -6.14129000 1.70741600
v 10.18452500 -6.14129000 1.70741600
v 10.18452500 -6.29111400 2.30939000
v 10.18452500 -6.29111400 2.30939000
v 10.18452500 -6.29111400 2.30939000
v 10.18452500 -6.29111400 1.70741600
v 10.18452500 -6.29111400 1.70741600
v 10.18452500 -6.29111400 1.70741600
v 8.17944000 -6.14129000 2.30939000
v 8.17944000 -6.14129000 2.30939000
v 8.17944000 -6.14129000 1.70741600
v 8.17944000 -6.14129000 1.70741600
v 8.17944000 -6.29111400 2.30939000
v 8.17944000 -6.29111400 2.30939000
v 8.17944000 -6.29111400 2.30939000
v 8.17944000 -6.29111400 1.70741600
v 8.17944000 -6.29111400 1.70741600
v 8.17944000 -6.29111400 1.70741600
v -3.14756000 -6.13458300 0.00860100
v -3.14756000 -6.13458300 0.00860100
v -3.14756000 -6.13458300 0.00860100
v -3.14756000 -6.13458300 2.60534500
v -3.14756000 -6.13458300 2.60534500
v -3.14756000 -4.13458300 0.00860100
v -3.14756000 -4.13458300 0.00860100
v -3.14756000 -4.13458300 0.00860100
v -3.14756000 -4.13458300 2.60534500
v -3.14756000 -4.13458300 2.60534500
v 3.51849600 -6.13458300 0.00860100
v 3.51849600 -6.13458300 0.00860100
v 3.51849600 -6.13458300 0.00860100
v 3.51849600 -6.13458300 2.60534500
v 3.51849600 -6.13458300 2.60534500
v 3.51849600 -4.13458300 0.00860100
v 3.51849600 -4.13458300 0.00860100
v 3.51849600 -4.13458300 0.00860100
v 3.51849600 -4.13458300 2.60534500
v 3.51849600 -4.13458300 2.60534500
v 1.18296600 -6.14129000 2.30939000
v 1.18296600 -6.14129000 2.30939000
v 1.18296600 -6.14129000 1.70741600
v 1.18296600 -6.14129000 1.70741600
v 1.18296600 -6.29111400 2.30939000
v 1.18296600 -6.29111400 2.30939000
v 1.18296600 -6.29111400 2.30939000
v 1.18296600 -6.29111400 1.70741600
v 1.18296600 -6.29111400 1.70741600
v 1.18296600 -6.29111400 1.70741600
v -0.82212000 -6.14129000 2.30939000
v -0.82212000 -6.14129000 2.30939000
v -0.82212000 -6.14129000 1.70741600
v -0.82212000 -6.14129000 1.70741600
v -0.82212000 -6.29111400 2.30939000
v -0.82212000 -6.29111400 2.30939000
v -0.82212000 -6.29111400 2.30939000
v -0.82212000 -6.29111400 1.70741600
v -0.82212000 -6.29111400 1.70741600
v -0.82212000 -6.29111400 1.70741600
v -2.97904500 -6.29111400 0.26056400
v -2.97904500 -6.29111400 0.26056400
v -2.97904500 -6.29111400 0.26056400
v -2.97904500 -6.29111400 2.30686400
v -2.97904500 -6.29111400 2.30686400
v -2.97904500 -6.29111400 2.30686400
v -2.97904500 -6.14129000 0.26056400
v -2.97904500 -6.14129000 0.26056400
v -2.97904500 -6.14129000 2.30686400
v -2.97904500 -6.14129000 2.30686400
v -0.97396000 -6.29111400 0.26056400
v -0.97396000 -6.29111400 0.26056400
v -0.97396000 -6.29111400 0.26056400
v -0.97396000 -6.29111400 2.30686400
v -0.97396000 -6.29111400 2.30686400
v -0.97396000 -6.29111400 2.30686400
v -0.97396000 -6.14129000 0.26056400
v -0.97396000 -6.14129000 0.26056400
v -0.97396000 -6.14129000 2.30686400
v -0.97396000 -6.14129000 2.30686400
v -0.82212000 -6.29111400 0.26056400
v -0.82212000 -6.29111400 0.26056400
v -0.82212000 -6.29111400 0.26056400
v -0.82212000 -6.29111400 1.58394800
v -0.82212000 -6.29111400 1.58394800
v -0.82212000 -6.29111400 1.58394800
v -0.82212000 -6.14129000 0.26056400
v -0.82212000 -6.14129000 0.26056400
v -0.82212000 -6.14129000 1.58394800
v -0.82212000 -6.14129000 1.58394800
v 1.18296600 -6.29111400 0.26056400
v 1.18296600 -6.29111400 0.26056400
v 1.18296600 -6.29111400 0.26056400
v 1.18296600 -6.29111400 1.58394800
v 1.18296600 -6.29111400 1.58394800
v 1.18296600 -6.29111400 1.58394800
v 1.18296600 -6.14129000 0.26056400
v 1.18296600 -6.14129000 0.26056400
v 1.18296600 -6.14129000 1.58394800
v 1.18296600 -6.14129000 1.58394800
v 1.33480600 -6.29111400 0.26056400
v 1.33480600 -6.29111400 0.26056400
v 1.33480600 -6.29111400 0.26056400
v 1.33480600 -6.29111400 1.58394800
v 1.33480600 -6.29111400 1.58394800
v 1.33480600 -6.29111400 1.58394800
v 1.33480600 -6.14129000 0.26056400
v 1.33480600 -6.14129000 0.26056400
v 1.33480600 -6.14129000 1.58394800
v 1.33480600 -6.14129000 1.58394800
v 3.33989100 -6.29111400 0.26056400
v 3.33989100 -6.29111400 0.26056400
v 3.33989100 -6.29111400 0.26056400
v 3.33989100 -6.29111400 1.58394800
v 3.33989100 -6.29111400 1.58394800
v 3.33989100 -6.29111400 1.58394800
v 3.33989100 -6.14129000 0.26056400
v 3.33989100 -6.14129000 0.26056400
v 3.33989100 -6.14129000 1.58394800
v 3.33989100 -6.14129000 1.58394800
v 3.34441200 -6.14129000 2.30939000
v 3.34441200 -6.14129000 2.30939000
v 3.34441200 -6.14129000 1.70741600
v 3.34441200 -6.14129000 1.70741600
v 3.34441200 -6.29111400 2.30939000
v 3.34441200 -6.29111400 2.30939000
v 3.34441200 -6.29111400 2.30939000
v 3.34441200 -6.29111400 1.70741600
v 3.34441200 -6.29111400 1.70741600
v 3.34441200 -6.29111400 1.70741600
v 1.33932700 -6.14129000 2.30939000
v 1.33932700 -6.14129000 2.30939000
v 1.33932700 -6.14129000 1.70741600
v 1.33932700 -6.14129000 1.70741600
v 1.33932700 -6.29111400 2.30939000
v 1.33932700 -6.29111400 2.30939000
v 1.33932700 -6.29111400 2.30939000
v 1.33932700 -6.29111400 1.70741600
v 1.33932700 -6.29111400 1.70741600
v 1.33932700 -6.29111400 1.70741600
vn -0.00000000 -0.00000000 1.00000000
vn 1.00000000 -0.00000000 -0.00000000
vn -0.00000000 -0.00000000 -1.00000000
vn 1.00000000 -0.00000000 -0.00000000
vn -0.00000000 -0.00000000 1.00000000
vn 1.00000000 -0.00000000 -0.00000000
vn -0.00000000 -1.00000000 -0.00000000
vn 1.00000000 -0.00000000 -0.00000000
vn -0.00000000 -1.00000000 -0.00000000
vn -0.00000000 -0.00000000 -1.00000000
vn -0.00000000 -0.00000000 1.00000000
vn -1.00000000 -0.00000000 -0.00000000
vn -1.00000000 -0.00000000 -0.00000000
vn -0.00000000 -0.00000000 -1.00000000
vn -0.00000000 -0.00000000 1.00000000
vn -0.00000000 -1.00000000 -0.00000000
vn -1.00000000 -0.00000000 -0.00000000
vn -0.00000000 -1.00000000 -0.00000000
vn -0.00000000 -0.00000000 -1.00000000
vn -1.00000000 -0.00000000 -0.00000000
vn -1.00000000 -0.00000000 -0.00000000
vn -0.00000000 -1.00000000 -0.00000000
vn -0.00000000 -0.00000000 -1.00000000
vn -0.00000000 -1.00000000 -0.00000000
vn -0.00000000 -0.00000000 1.00000000
vn -1.00000000 -0.00000000 -0.00000000
vn -1.00000000 -0.00000000 -0.00000000
vn -0.00000000 -0.00000000 -1.00000000
vn -1.00000000 -0.00000000 -0.00000000
vn -0.00000000 -0.00000000 1.00000000
vn -0.00000000 -0.00000000 -1.00000000
vn 1.00000000 -0.00000000 -0.00000000
vn -0.00000000 -1.00000000 -0.00000000
vn 1.00000000 -0.00000000 -0.00000000
vn -0.00000000 -0.00000000 1.00000000
vn -0.00000000 -1.00000000 -0.00000000
vn -0.00000000 -0.00000000 -1.00000000
vn 1.00000000 -0.00000000 -0.00000000
vn -0.00000000 -0.00000000 1.00000000
vn 1.00000000 -0.00000000 -0.00000000
vn -0.00000000 -0.00000000 -1.00000000
vn -1.00000000 -0.00000000 -0.00000000
vn -0.00000000 -1.00000000 -0.00000000
vn -0.00000000 -0.00000000 1.00000000
vn -1.00000000 -0.00000000 -0.00000000
vn -0.00000000 -1.00000000 -0.00000000
vn -0.00000000 1.00000000 -0.00000000
vn -0.00000000 -0.00000000 -1.00000000
vn -1.00000000 -0.00000000 -0.00000000
vn -0.00000000 -0.00000000 1.00000000
vn -0.00000000 1.00000000 -0.00000000
vn -1.00000000 -0.00000000 -0.00000000
vn -0.00000000 -0.00000000 -1.00000000
vn -0.00000000 -1.00000000 -0.00000000
vn 1.00000000 -0.00000000 -0.00000000
vn -0.00000000 -0.00000000 1.00000000
vn 1.00000000 -0.00000000 -0.00000000
vn -0.00000000 -1.00000000 -0.00000000
vn 1.00000000 -0.00000000 -0.00000000
vn -0.00000000 -0.00000000 -1.00000000
vn -0.00000000 1.00000000 -0.00000000
vn 1.00000000 -0.00000000 -0.00000000
vn -0.00000000 -0.00000000 1.00000000
vn -0.00000000 1.00000000 -0.00000000
vn -0.00000000 -0.00000000 -1.00000000
vn -0.00000000 -1.00000000 -0.00000000
vn -1.00000000 -0.00000000 -0.00000000
vn -0.00000000 -1.00000000 -0.00000000
vn -1.00000000 -0.00000000 -0.00000000
vn -0.00000000 -0.00000000 1.00000000
vn -0.00000000 -0.00000000 -1.00000000
vn -0.00000000 1.00000000 -0.00000000
vn -1.00000000 -0.00000000 -0.00000000
vn -0.00000000 1.00000000 -0.00000000
vn -1.00000000 -0.00000000 -0.00000000
vn -0.00000000 -0.00000000 1.00000000
vn 1.00000000 -0.00000000 -0.00000000
vn -0.00000000 -1.00000000 -0.00000000
vn -0.00000000 -0.00000000 -1.00000000
vn 1.00000000 -0.00000000 -0.00000000
vn -0.00000000 -1.00000000 -0.00000000
vn -0.00000000 -0.00000000 1.00000000
vn -0.00000000 -0.00000000 -1.00000000
vn -0.00000000 1.00000000 -0.00000000
vn 1.00000000 -0.00000000 -0.00000000
vn -0.00000000 1.00000000 -0.00000000
vn -0.00000000 -0.00000000 1.00000000
vn 1.00000000 -0.00000000 -0.00000000
vn -0.00000000 -0.00000000 1.00000000
vn -0.00000000 -1.00000000 -0.00000000
vn -0.00000000 -1.00000000 -0.00000000
vn -0.00000000 -0.00000000 -1.00000000
vn 1.00000000 -0.00000000 -0.00000000
vn -0.00000000 1.00000000 -0.00000000
vn -0.00000000 -0.00000000 1.00000000
vn -0.00000000 -0.00000000 -1.00000000
vn -0.00000000 1.00000000 -0.00000000
vn 1.00000000 -0.00000000 -0.00000000
vn 1.00000000 -0.00000000 -0.00000000
vn -0.00000000 -1.00000000 -0.00000000
vn -0.00000000 1.00000000 -0.00000000
vn 1.00000000 -0.00000000 -0.00000000
vn -0.00000000 1.00000000 -0.00000000
vn -1.00000000 -0.00000000 -0.00000000
vn -1.00000000 -0.00000000 -0.00000000
vn -0.00000000 -1.00000000 -0.00000000
vn -0.00000000 -0.00000000 -1.00000000
vn -0.00000000 1.00000000 -0.00000000
vn 1.00000000 -0.00000000 -0.00000000
vn -0.00000000 -1.00000000 -0.00000000
vn -0.00000000 -0.00000000 -1.00000000
vn 1.00000000 -0.00000000 -0.00000000
vn -0.00000000 1.00000000 -0.00000000
vn -0.00000000 -0.00000000 1.00000000
vn -1.00000000 -0.00000000 -0.00000000
vn -0.00000000 -0.00000000 -1.00000000
vn -0.00000000 -1.00000000 -0.00000000
vn -0.00000000 1.00000000 -0.00000000
vn -0.00000000 -0.00000000 -1.00000000
vn -1.00000000 -0.00000000 -0.00000000
vn -0.00000000 -0.00000000 -1.00000000
vn -0.00000000 -1.00000000 -0.00000000
vn -1.00000000 -0.00000000 -0.00000000
vn -0.00000000 -1.00000000 -0.00000000
vn -0.00000000 -0.00000000 1.00000000
vn -0.00000000 -0.00000000 -1.00000000
vn -0.00000000 1.00000000 -0.00000000
vn -1.00000000 -0.00000000 -0.00000000
vn -1.00000000 -0.00000000 -0.00000000
vn -0.00000000 -0.00000000 -1.00000000
vn -0.00000000 -1.00000000 -0.00000000
vn -0.00000000 -1.00000000 -0.00000000
vn -1.00000000 -0.00000000 -0.00000000
vn -0.00000000 -0.00000000 1.00000000
vn -1.00000000 -0.00000000 -0.00000000
vn -0.00000000 1.00000000 -0.00000000
vn -0.00000000 -0.00000000 -1.00000000
vn -0.00000000 -0.00000000 1.00000000
vn -1.00000000 -0.00000000 -0.00000000
vn -0.00000000 1.00000000 -0.00000000
vn 1.00000000 -0.00000000 -0.00000000
vn -0.00000000 -1.00000000 -0.00000000
vn -0.00000000 -0.00000000 -1.00000000
vn -0.00000000 -0.00000000 1.00000000
vn 1.00000000 -0.00000000 -0.00000000
vn -0.00000000 -1.00000000 -0.00000000
vn -0.00000000 1.00000000 -0.00000000
vn -0.00000000 -0.00000000 -1.00000000
vn 1.00000000 -0.00000000 -0.00000000
vn -0.00000000 -0.00000000 1.00000000
vn 1.00000000 -0.00000000 -0.00000000
vn -0.00000000 1.00000000 -0.00000000
vn -1.00000000 -0.00000000 -0.00000000
vn -0.00000000 -0.00000000 -1.00000000
vn -0.00000000 -1.00000000 -0.00000000
vn -1.00000000 -0.00000000 -0.00000000
vn -0.00000000 -0.00000000 1.00000000
vn -0.00000000 -1.00000000 -0.00000000
vn -1.00000000 -0.00000000 -0.00000000
vn -0.00000000 -0.00000000 -1.00000000
vn -0.00000000 1.00000000 -0.00000000
vn -0.00000000 1.00000000 -0.00000000
vn -0.00000000 -0.00000000 1.00000000
vn -1.00000000 -0.00000000 -0.00000000
vn -0.00000000 -1.00000000 -0.00000000
vn 1.00000000 -0.00000000 -0.00000000
vn -0.00000000 -0.00000000 -1.00000000
vn -0.00000000 -0.00000000 1.00000000
vn 1.00000000 -0.00000000 -0.00000000
vn -0.00000000 -1.00000000 -0.00000000
vn -0.00000000 1.00000000 -0.00000000
vn 1.00000000 -0.00000000 -0.00000000
vn -0.00000000 -0.00000000 -1.00000000
vn -0.00000000 -0.00000000 1.00000000
vn 1.00000000 -0.00000000 -0.00000000
vn -0.00000000 1.00000000 -0.00000000
vn -1.00000000 -0.00000000 -0.00000000
vn -0.00000000 -1.00000000 -0.00000000
vn -0.00000000 -0.00000000 -1.00000000
vn -1.00000000 -0.00000000 -0.00000000
vn -0.00000000 -1.00000000 -0.00000000
vn -0.00000000 -0.00000000 1.00000000
vn -0.00000000 -0.00000000 -1.00000000
vn -1.00000000 -0.00000000 -0.00000000
vn -1.00000000 -0.00000000 -0.00000000
vn -0.00000000 -0.00000000 1.00000000
vn -0.00000000 -0.00000000 -1.00000000
vn -0.00000000 -1.00000000 -0.00000000
vn 1.00000000 -0.00000000 -0.00000000
vn -0.00000000 -0.00000000 1.00000000
vn 1.00000000 -0.00000000 -0.00000000
vn -0.00000000 -1.00000000 -0.00000000
vn -0.00000000 -0.00000000 -1.00000000
vn 1.00000000 -0.00000000 -0.00000000
vn 1.00000000 -0.00000000 -0.00000000
vn -0.00000000 -0.00000000 1.00000000
vn -0.00000000 -1.00000000 -0.00000000
vn -1.00000000 -0.00000000 -0.00000000
vn -0.00000000 -0.00000000 -1.00000000
vn -1.00000000 -0.00000000 -0.00000000
vn -0.00000000 -1.00000000 -0.00000000
vn -0.00000000 -0.00000000 1.00000000
vn -0.00000000 -0.00000000 -1.00000000
vn -1.00000000 -0.00000000 -0.00000000
vn -0.00000000 -0.00000000 1.00000000
vn -1.00000000 -0.00000000 -0.00000000
vn -0.00000000 -0.00000000 -1.00000000
vn 1.00000000 -0.00000000 -0.00000000
vn -0.00000000 -1.00000000 -0.00000000
vn -0.00000000 -0.00000000 1.00000000
vn -0.00000000 -1.00000000 -0.00000000
vn 1.00000000 -0.00000000 -0.00000000
vn -0.00000000 -0.00000000 -1.00000000
vn 1.00000000 -0.00000000 -0.00000000
vn 1.00000000 -0.00000000 -0.00000000
vn -0.00000000 -0.00000000 1.00000000
vn -0.00000000 -1.00000000 -0.00000000
vn -0.00000000 -0.00000000 -1.00000000
vn -1.00000000 -0.00000000 -0.00000000
vn -0.00000000 -1.00000000 -0.00000000
vn -0.00000000 -0.00000000 1.00000000
vn -1.00000000 -0.00000000 -0.00000000
vn -1.00000000 -0.00000000 -0.00000000
vn -0.00000000 -0.00000000 -1.00000000
vn -0.00000000 1.00000000 -0.00000000
vn -0.00000000 -0.00000000 1.00000000
vn -0.00000000 1.00000000 -0.00000000
vn -1.00000000 -0.00000000 -0.00000000
vn -0.00000000 -1.00000000 -0.00000000
vn -0.00000000 -0.00000000 -1.00000000
vn 1.00000000 -0.00000000 -0.00000000
vn -0.00000000 -1.00000000 -0.00000000
vn 1.00000000 -0.00000000 -0.00000000
vn -0.00000000 -0.00000000 1.00000000
vn -0.00000000 -0.00000000 -1.00000000
vn -0.00000000 1.00000000 -0.00000000
vn 1.00000000 -0.00000000 -0.00000000
vn -0.00000000 1.00000000 -0.00000000
vn -0.00000000 -0.00000000 1.00000000
vn 1.00000000 -0.00000000 -0.00000000
vn -0.00000000 -1.00000000 -0.00000000
vn -1.00000000 -0.00000000 -0.00000000
vn -1.00000000 -0.00000000 -0.00000000
vn -0.00000000 1.00000000 -0.00000000
vn 1.00000000 -0.00000000 -0.00000000
vn -0.00000000 1.00000000 -0.00000000
vn -0.00000000 -1.00000000 -0.00000000
vn 1.00000000 -0.00000000 -0.00000000
vn -0.00000000 -0.00000000 -1.00000000
vn -0.00000000 1.00000000 -0.00000000
vn -0.00000000 -0.00000000 -1.00000000
vn -0.00000000 1.00000000 -0.00000000
vn -0.00000000 -0.00000000 1.00000000
vn -0.00000000 1.00000000 -0.00000000
vn -0.00000000 -0.00000000 1.00000000
vn -0.00000000 1.00000000 -0.00000000
vn -0.00000000 -1.00000000 -0.00000000
vn -0.00000000 -0.00000000 -1.00000000
vn -0.00000000 -0.00000000 -1.00000000
vn -0.00000000 -1.00000000 -0.00000000
vn -0.00000000 -1.00000000 -0.00000000
vn -0.00000000 -0.00000000 1.00000000
vn -0.00000000 -1.00000000 -0.00000000
vn -0.00000000 -0.00000000 1.00000000
vn -0.00000000 -1.00000000 -0.00000000
vn -0.00000000 -1.00000000 -0.00000000
vn -0.00000000 1.00000000 -0.00000000
vn -0.00000000 1.00000000 -0.00000000
vn -1.00000000 -0.00000000 -0.00000000
vn -0.00000000 -0.00000000 -1.00000000
vn -0.00000000 -0.00000000 1.00000000
vn -1.00000000 -0.00000000 -0.00000000
vn -0.00000000 -0.00000000 -1.00000000
vn 1.00000000 -0.00000000 -0.00000000
vn 1.00000000 -0.00000000 -0.00000000
vn -0.00000000 -0.00000000 1.00000000
vn 1.00000000 -0.00000000 -0.00000000
vn -1.00000000 -0.00000000 -0.00000000
vn -0.00000000 -0.00000000 1.00000000
vn -0.00000000 -0.00000000 1.00000000
vn -0.00000000 -0.00000000 -1.00000000
vn -0.00000000 -0.00000000 -1.00000000
vn -0.00000000 -1.00000000 -0.00000000
vn -1.00000000 -0.00000000 -0.00000000
vn -0.00000000 -0.00000000 -1.00000000
vn -1.00000000 -0.00000000 -0.00000000
vn -0.00000000 -1.00000000 -0.00000000
vn -0.00000000 -0.00000000 1.00000000
vn -0.00000000 -0.00000000 -1.00000000
vn -0.00000000 1.00000000 -0.00000000
vn -1.00000000 -0.00000000 -0.00000000
vn -1.00000000 -0.00000000 -0.00000000
vn -0.00000000 1.00000000 -0.00000000
vn -0.00000000 -0.00000000 1.00000000
vn 1.00000000 -0.00000000 -0.00000000
vn -0.00000000 -0.00000000 -1.00000000
vn -0.00000000 -1.00000000 -0.00000000
vn 1.00000000 -0.00000000 -0.00000000
vn -0.00000000 -0.00000000 1.00000000
vn -0.00000000 -1.00000000 -0.00000000
vn 1.00000000 -0.00000000 -0.00000000
vn -0.00000000 -0.00000000 -1.00000000
vn -0.00000000 1.00000000 -0.00000000
vn 1.00000000 -0.00000000 -0.00000000
vn -0.00000000 1.00000000 -0.00000000
vn -0.00000000 -0.00000000 1.00000000
vn -0.00000000 -1.00000000 -0.00000000
vn -0.00000000 -0.00000000 1.00000000
vn -1.00000000 -0.00000000 -0.00000000
vn -0.00000000 -0.00000000 1.00000000
vn -0.00000000 1.00000000 -0.00000000
vn -1.00000000 -0.00000000 -0.00000000
vn -0.00000000 1.00000000 -0.00000000
vn -0.00000000 -0.00000000 1.00000000
vn 1.00000000 -0.00000000 -0.00000000
vn -0.00000000 -0.00000000 1.00000000
vn -0.00000000 -1.00000000 -0.00000000
vn 1.00000000 -0.00000000 -0.00000000
vn -0.00000000 -0.04040000 -0.99920000
vn -0.00000000 -1.00000000 -0.00000000
vn -1.00000000 -0.00000000 -0.00000000
vn -0.04040000 -0.00000000 -0.99920000
vn -1.00000000 -0.00000000 -0.00000000
vn -0.00000000 1.00000000 -0.00000000
vn -0.04040000 -0.00000000 -0.99920000
vn -0.00000000 0.04040000 -0.99920000
vn 1.00000000 -0.00000000 -0.00000000
vn -0.00000000 0.04040000 -0.99920000
vn 0.04040000 -0.00000000 -0.99920000
vn -0.00000000 1.00000000 -0.00000000
vn 0.04040000 -0.00000000 -0.99920000
vn -0.00000000 -0.04040000 -0.99920000
vn -0.00000000 -1.00000000 -0.00000000
vn 1.00000000 -0.00000000 -0.00000000
vn -1.00000000 -0.00000000 -0.00000000
vn -0.00000000 -0.97880000 0.20460000
vn -0.00000000 -0.04040000 -0.99920000
vn -0.04040000 -0.00000000 -0.99920000
vn -0.00000000 1.00000000 -0.00000000
vn -0.00000000 0.04040000 -0.99920000
vn -0.04040000 -0.00000000 -0.99920000
vn -1.00000000 -0.00000000 -0.00000000
vn 1.00000000 -0.00000000 -0.00000000
vn -0.00000000 0.04040000 -0.99920000
vn -0.00000000 1.00000000 -0.00000000
vn 0.04040000 -0.00000000 -0.99920000
vn -0.00000000 -0.04040000 -0.99920000
vn -0.00000000 -0.97880000 0.20460000
vn 0.04040000 -0.00000000 -0.99920000
vn 1.00000000 -0.00000000 -0.00000000
vn -1.00000000 -0.00000000 -0.00000000
vn -0.00000000 -0.97880000 0.20460000
vn -0.00000000 -0.00000000 1.00000000
vn -0.00000000 -0.00000000 1.00000000
vn -0.00000000 1.00000000 -0.00000000
vn -1.00000000 -0.00000000 -0.00000000
vn -0.00000000 -0.00000000 1.00000000
vn -0.00000000 1.00000000 -0.00000000
vn 1.00000000 -0.00000000 -0.00000000
vn -0.00000000 -0.97880000 0.20460000
vn 1.00000000 -0.00000000 -0.00000000
vn -0.00000000 -0.00000000 1.00000000
vn -0.00000000 -0.00000000 1.00000000
vn -0.00000000 -0.97880000 0.20460000
vn -1.00000000 -0.00000000 -0.00000000
vn -0.00000000 -0.00000000 1.00000000
vn -0.00000000 -0.97880000 0.20460000
vn 1.00000000 -0.00000000 -0.00000000
vn -0.00000000 -0.97880000 0.20460000
vn -0.00000000 -0.00000000 -1.00000000
vn -1.00000000 -0.00000000 -0.00000000
vn -0.00000000 -0.00000000 -1.00000000
vn 1.00000000 -0.00000000 -0.00000000
vn -0.00000000 -0.97880000 0.20460000
vn -0.00000000 -0.00000000 1.00000000
vn -1.00000000 -0.00000000 -0.00000000
vn -0.00000000 -0.86950000 0.49390000
vn -0.11610000 -0.97220000 0.20320000
vn -0.00000000 -0.00000000 1.00000000
vn -0.00000000 -0.86950000 0.49390000
vn 1.00000000 -0.00000000 -0.00000000
vn 0.51920000 -0.83660000 0.17490000
vn -0.11610000 -0.97220000 0.20320000
vn -0.00000000 -0.00000000 -1.00000000
vn -0.00000000 -0.98890000 -0.14830000
vn -1.00000000 -0.00000000 -0.00000000
vn 0.51920000 -0.83660000 0.17490000
vn -0.00000000 -0.98890000 -0.14830000
vn 1.00000000 -0.00000000 -0.00000000
vn -0.00000000 -0.00000000 -1.00000000
vn -0.11610000 -0.97220000 0.20320000
vn -0.00000000 -0.86950000 0.49390000
vn -0.00000000 -0.77520000 0.63170000
vn -0.55060000 -0.81710000 0.17080000
vn -0.00000000 -0.77520000 0.63170000
vn 0.51920000 -0.83660000 0.17490000
vn 0.55060000 -0.81710000 0.17080000
vn -0.00000000 -0.86950000 0.49390000
vn -0.00000000 -0.98890000 -0.14830000
vn -0.55060000 -0.81710000 0.17080000
vn -0.11610000 -0.97220000 0.20320000
vn -0.00000000 -0.92950000 -0.36890000
vn 0.51920000 -0.83660000 0.17490000
vn -0.00000000 -0.92950000 -0.36890000
vn 0.55060000 -0.81710000 0.17080000
vn -0.00000000 -0.98890000 -0.14830000
vn -0.55060000 -0.81710000 0.17080000
vn -0.00000000 -0.77520000 0.63170000
vn -0.00000000 -0.77520000 0.63170000
vn 0.55060000 -0.81710000 0.17080000
vn -0.55060000 -0.81710000 0.17080000
vn -0.00000000 -0.92950000 -0.36890000
vn 0.55060000 -0.81710000 0.17080000
vn -0.00000000 -0.92950000 -0.36890000
vn -0.00000000 1.00000000 -0.00000000
vn -1.00000000 -0.00000000 -0.00000000
vn -0.00000000 -0.00000000 -1.00000000
vn -0.00000000 1.00000000 -0.00000000
vn -1.00000000 -0.00000000 -0.00000000
vn -0.00000000 -0.27890000 0.96030000
vn 1.00000000 -0.00000000 -0.00000000
vn -0.00000000 1.00000000 -0.00000000
vn -0.00000000 -0.00000000 -1.00000000
vn -0.00000000 1.00000000 -0.00000000
vn 1.00000000 -0.00000000 -0.00000000
vn -0.00000000 -0.27890000 0.96030000
vn -1.00000000 -0.00000000 -0.00000000
vn -0.00000000 -0.00000000 -1.00000000
vn -0.00000000 -0.88560000 -0.46450000
vn -1.00000000 -0.00000000 -0.00000000
vn -0.00000000 -0.27890000 0.96030000
vn -0.00000000 -0.88560000 0.46450000
vn -0.00000000 -0.27890000 0.96030000
vn -0.00000000 -0.88560000 0.46450000
vn 1.00000000 -0.00000000 -0.00000000
vn -0.00000000 -0.00000000 -1.00000000
vn -0.00000000 -0.88560000 -0.46450000
vn 1.00000000 -0.00000000 -0.00000000
vn -0.00000000 1.00000000 -0.00000000
vn -1.00000000 -0.00000000 -0.00000000
vn -0.00000000 1.00000000 -0.00000000
vn 1.00000000 -0.00000000 -0.00000000
vn -1.00000000 -0.00000000 -0.00000000
vn -0.00000000 -0.88560000 0.46450000
vn -0.00000000 -0.88560000 -0.46450000
vn -0.00000000 -0.88560000 -0.46450000
vn 1.00000000 -0.00000000 -0.00000000
vn -0.00000000 -0.88560000 0.46450000
vn -0.00000000 0.27890000 -0.96030000
vn -0.00000000 0.27890000 -0.96030000
vn -0.00000000 0.27890000 -0.96030000
vn -0.00000000 0.27890000 -0.96030000
vn -1.00000000 -0.00000000 -0.00000000
vn -0.00000000 -1.00000000 -0.00000000
vn -1.00000000 -0.00000000 -0.00000000
vn -0.00000000 -0.00000000 1.00000000
vn -0.00000000 -1.00000000 -0.00000000
vn -1.00000000 -0.00000000 -0.00000000
vn -0.00000000 1.00000000 -0.00000000
vn -1.00000000 -0.00000000 -0.00000000
vn -0.00000000 1.00000000 -0.00000000
vn -0.00000000 -0.00000000 1.00000000
vn 1.00000000 -0.00000000 -0.00000000
vn -0.00000000 -1.00000000 -0.00000000
vn 1.00000000 -0.00000000 -0.00000000
vn -0.00000000 -1.00000000 -0.00000000
vn -0.00000000 -0.00000000 1.00000000
vn 1.00000000 -0.00000000 -0.00000000
vn -0.00000000 1.00000000 -0.00000000
vn -0.00000000 -0.00000000 1.00000000
vn -0.00000000 1.00000000 -0.00000000
vn 1.00000000 -0.00000000 -0.00000000
vn -1.00000000 -0.00000000 -0.00000000
vn -0.00000000 -1.00000000 -0.00000000
vn -0.00000000 -0.00000000 -1.00000000
vn -0.00000000 -1.00000000 -0.00000000
vn -0.00000000 -0.00000000 1.00000000
vn -1.00000000 -0.00000000 -0.00000000
vn -0.00000000 -0.00000000 -1.00000000
vn -1.00000000 -0.00000000 -0.00000000
vn -0.00000000 1.00000000 -0.00000000
vn -0.00000000 1.00000000 -0.00000000
vn -0.00000000 -0.00000000 1.00000000
vn -1.00000000 -0.00000000 -0.00000000
vn 1.00000000 -0.00000000 -0.00000000
vn -0.00000000 -1.00000000 -0.00000000
vn -0.00000000 -0.00000000 -1.00000000
vn -0.00000000 -1.00000000 -0.00000000
vn -0.00000000 -0.00000000 1.00000000
vn 1.00000000 -0.00000000 -0.00000000
vn -0.00000000 -0.00000000 -1.00000000
vn 1.00000000 -0.00000000 -0.00000000
vn -0.00000000 1.00000000 -0.00000000
vn -0.00000000 1.00000000 -0.00000000
vn 1.00000000 -0.00000000 -0.00000000
vn -0.00000000 -0.00000000 1.00000000
vn 0.98440000 -0.17620000 -0.00000000
vn -0.00000000 -1.00000000 -0.00000000
vn -0.00000000 -0.00000000 1.00000000
vn 0.99360000 -0.00000000 0.11280000
vn -0.00000000 -0.00000000 1.00000000
vn -0.00000000 -1.00000000 -0.00000000
vn -0.99360000 -0.00000000 0.11280000
vn -0.98440000 -0.17620000 -0.00000000
vn -0.00000000 -1.00000000 -0.00000000
vn -0.00000000 -0.00000000 -1.00000000
vn -0.00000000 -1.00000000 -0.00000000
vn -0.00000000 -0.00000000 -1.00000000
vn -0.00000000 1.00000000 -0.00000000
vn -0.00000000 -0.00000000 1.00000000
vn -0.00000000 1.00000000 -0.00000000
vn -0.00000000 -0.00000000 1.00000000
vn -0.00000000 1.00000000 -0.00000000
vn -0.00000000 -0.00000000 -1.00000000
vn -0.00000000 -0.00000000 -1.00000000
vn -0.00000000 1.00000000 -0.00000000
vn -0.00880000 -0.00000000 1.00000000
vn -0.00000000 -1.00000000 -0.00000000
vn -1.00000000 -0.00000000 -0.00000000
vn -0.00000000 -0.02250000 0.99970000
vn -0.00000000 0.02250000 0.99970000
vn -0.00000000 1.00000000 -0.00000000
vn -0.00880000 -0.00000000 1.00000000
vn -1.00000000 -0.00000000 -0.00000000
vn -0.00000000 0.02250000 0.99970000
vn -0.00000000 1.00000000 -0.00000000
vn 1.00000000 -0.00000000 -0.00000000
vn 0.00880000 -0.00000000 1.00000000
vn -0.00000000 -1.00000000 -0.00000000
vn -0.00000000 -0.02250000 0.99970000
vn 1.00000000 -0.00000000 -0.00000000
vn 0.00880000 -0.00000000 1.00000000
vn -0.00000000 0.02250000 0.99970000
vn -0.00000000 1.00000000 -0.00000000
vn -0.00000000 0.02250000 0.99970000
vn -0.00000000 1.00000000 -0.00000000
vn -0.00000000 -1.00000000 -0.00000000
vn -0.00000000 -0.02250000 0.99970000
vn -0.00000000 -1.00000000 -0.00000000
vn -0.00000000 -0.02250000 0.99970000
vn -1.00000000 -0.00000000 -0.00000000
vn -0.00000000 -1.00000000 -0.00000000
vn -1.00000000 -0.00000000 -0.00000000
vn -0.00000000 1.00000000 -0.00000000
vn 1.00000000 -0.00000000 -0.00000000
vn -0.00000000 1.00000000 -0.00000000
vn 1.00000000 -0.00000000 -0.00000000
vn -0.00000000 -1.00000000 -0.00000000
vn -0.00000000 1.00000000 -0.00000000
vn -0.00000000 1.00000000 -0.00000000
vn -0.00000000 -0.43120000 0.90220000
vn 0.98440000 -0.17620000 -0.00000000
vn -0.00000000 -1.00000000 -0.00000000
vn -0.00000000 -1.00000000 -0.00000000
vn -0.98440000 -0.17620000 -0.00000000
vn -0.00000000 -0.43120000 0.90220000
vn -1.00000000 -0.00000000 -0.00000000
vn -0.00000000 -0.00000000 -1.00000000
vn -1.00000000 -0.00000000 -0.00000000
vn -0.00000000 -0.00000000 1.00000000
vn -0.00000000 -0.00000000 -1.00000000
vn 1.00000000 -0.00000000 -0.00000000
vn 1.00000000 -0.00000000 -0.00000000
vn -0.00000000 -0.00000000 1.00000000
vn -0.00000000 -0.00000000 -1.00000000
vn 0.99360000 -0.00000000 0.11280000
vn -0.00000000 -0.99500000 0.09970000
vn -0.00000000 -0.00000000 1.00000000
vn -0.00000000 -0.00000000 -1.00000000
vn -0.99360000 -0.00000000 0.11280000
vn -0.00000000 -0.99500000 0.09970000
vn -0.00000000 -0.00000000 1.00000000
vn 1.00000000 -0.00000000 -0.00000000
vn 0.00880000 -0.00000000 1.00000000
vn -0.00880000 -0.00000000 1.00000000
vn -1.00000000 -0.00000000 -0.00000000
vn 1.00000000 -0.00000000 -0.00000000
vn -1.00000000 -0.00000000 -0.00000000
vn -0.98440000 -0.17620000 -0.00000000
vn -0.99360000 -0.00000000 0.11280000
vn 0.98440000 -0.17620000 -0.00000000
vn 0.99360000 -0.00000000 0.11280000
vn 0.98440000 -0.17620000 -0.00000000
vn -0.00000000 -0.43120000 0.90220000
vn -0.98440000 -0.17620000 -0.00000000
vn -0.00000000 -0.43120000 0.90220000
vn 0.99360000 -0.00000000 0.11280000
vn -0.00000000 -0.99500000 0.09970000
vn -0.99360000 -0.00000000 0.11280000
vn -0.00000000 -0.99500000 0.09970000
vn -0.00000000 -1.00000000 -0.00000000
vn -0.00000000 -1.00000000 -0.00000000
vn -0.00000000 -1.00000000 -0.00000000
vn -0.00000000 -1.00000000 -0.00000000
vn -0.00880000 -0.00000000 -1.00000000
vn -1.00000000 -0.00000000 -0.00000000
vn -0.00000000 0.02250000 -0.99970000
vn -0.00000000 1.00000000 -0.00000000
vn -0.00000000 0.02250000 -0.99970000
vn 0.00880000 -0.00000000 -1.00000000
vn 1.00000000 -0.00000000 -0.00000000
vn -0.00000000 1.00000000 -0.00000000
vn 0.00880000 -0.00000000 -1.00000000
vn -0.00000000 -1.00000000 -0.00000000
vn -0.00000000 -0.02250000 -0.99970000
vn 1.00000000 -0.00000000 -0.00000000
vn -0.00000000 0.02250000 -0.99970000
vn -0.00000000 1.00000000 -0.00000000
vn -0.00000000 1.00000000 -0.00000000
vn -0.00000000 0.02250000 -0.99970000
vn -0.00000000 -1.00000000 -0.00000000
vn -0.00000000 -0.02250000 -0.99970000
vn -0.00000000 -1.00000000 -0.00000000
vn -0.00000000 -0.02250000 -0.99970000
vn -1.00000000 -0.00000000 -0.00000000
vn -0.00880000 -0.00000000 -1.00000000
vn -0.00000000 -1.00000000 -0.00000000
vn -0.00000000 -0.02250000 -0.99970000
vn -1.00000000 -0.00000000 -0.00000000
vn -0.00880000 -0.00000000 -1.00000000
vn 0.00880000 -0.00000000 -1.00000000
vn 1.00000000 -0.00000000 -0.00000000
vn -1.00000000 -0.00000000 -0.00000000
vn -0.00000000 0.02250000 -0.99970000
vn -0.00880000 -0.00000000 -1.00000000
vn -0.00000000 1.00000000 -0.00000000
vn -0.00000000 0.02250000 0.99970000
vn -1.00000000 -0.00000000 -0.00000000
vn -0.00000000 1.00000000 -0.00000000
vn -0.00880000 -0.00000000 1.00000000
vn 0.00880000 -0.00000000 -1.00000000
vn -0.00000000 0.02250000 -0.99970000
vn -0.00000000 1.00000000 -0.00000000
vn 1.00000000 -0.00000000 -0.00000000
vn -0.00000000 1.00000000 -0.00000000
vn -0.00000000 0.02250000 0.99970000
vn 0.00880000 -0.00000000 1.00000000
vn 1.00000000 -0.00000000 -0.00000000
vn 1.00000000 -0.00000000 -0.00000000
vn 0.00880000 -0.00000000 -1.00000000
vn -0.00000000 -0.02250000 -0.99970000
vn -0.00000000 -1.00000000 -0.00000000
vn -0.00000000 -1.00000000 -0.00000000
vn -0.00000000 -0.02250000 0.99970000
vn 1.00000000 -0.00000000 -0.00000000
vn 0.00880000 -0.00000000 1.00000000
vn -0.00000000 1.00000000 -0.00000000
vn -0.00000000 0.02250000 -0.99970000
vn -0.00000000 0.02250000 0.99970000
vn -0.00000000 1.00000000 -0.00000000
vn -0.00000000 1.00000000 -0.00000000
vn -0.00000000 0.02250000 -0.99970000
vn -0.00000000 1.00000000 -0.00000000
vn -0.00000000 0.02250000 0.99970000
vn -0.00000000 -0.02250000 -0.99970000
vn -0.00000000 -1.00000000 -0.00000000
vn -0.00000000 -1.00000000 -0.00000000
vn -0.00000000 -0.02250000 0.99970000
vn -0.00000000 -1.00000000 -0.00000000
vn -0.00000000 -0.02250000 -0.99970000
vn -0.00000000 -0.02250000 0.99970000
vn -0.00000000 -1.00000000 -0.00000000
vn -0.00880000 -0.00000000 1.00000000
vn -1.00000000 -0.00000000 -0.00000000
vn -0.00000000 -0.02250000 0.99970000
vn -0.00000000 -1.00000000 -0.00000000
vn 0.00880000 -0.00000000 1.00000000
vn 1.00000000 -0.00000000 -0.00000000
vn -0.00880000 -0.00000000 1.00000000
vn -1.00000000 -0.00000000 -0.00000000
vn -0.00880000 -0.00000000 -1.00000000
vn -1.00000000 -0.00000000 -0.00000000
vn 0.00880000 -0.00000000 -1.00000000
vn 1.00000000 -0.00000000 -0.00000000
vn -0.00000000 -0.02250000 -0.99970000
vn -0.00000000 -1.00000000 -0.00000000
vn -0.00880000 -0.00000000 -1.00000000
vn -1.00000000 -0.00000000 -0.00000000
vn -1.00000000 -0.00000000 -0.00000000
vn -0.00000000 -0.00000000 -1.00000000
vn -0.00000000 -1.00000000 -0.00000000
vn -1.00000000 -0.00000000 -0.00000000
vn -0.00000000 -0.00000000 1.00000000
vn -0.00000000 -1.00000000 -0.00000000
vn -0.00000000 1.00000000 -0.00000000
vn -1.00000000 -0.00000000 -0.00000000
vn -0.00000000 -0.00000000 -1.00000000
vn -0.00000000 -0.00000000 1.00000000
vn -0.00000000 1.00000000 -0.00000000
vn -1.00000000 -0.00000000 -0.00000000
vn 1.00000000 -0.00000000 -0.00000000
vn -0.00000000 -0.00000000 -1.00000000
vn -0.00000000 -1.00000000 -0.00000000
vn -0.00000000 -0.00000000 1.00000000
vn 1.00000000 -0.00000000 -0.00000000
vn -0.00000000 -1.00000000 -0.00000000
vn 1.00000000 -0.00000000 -0.00000000
vn -0.00000000 1.00000000 -0.00000000
vn -0.00000000 -0.00000000 -1.00000000
vn -0.00000000 1.00000000 -0.00000000
vn -0.00000000 -0.00000000 1.00000000
vn 1.00000000 -0.00000000 -0.00000000
vn -0.00000000 -1.00000000 -0.00000000
vn -0.00000000 -0.00000000 1.00000000
vn -0.00000000 -0.00000000 -1.00000000
vn -0.00000000 -1.00000000 -0.00000000
vn 1.00000000 -0.00000000 -0.00000000
vn -0.00000000 -0.00000000 1.00000000
vn -0.00000000 1.00000000 -0.00000000
vn 1.00000000 -0.00000000 -0.00000000
vn -0.00000000 1.00000000 -0.00000000
vn -0.00000000 -0.00000000 -1.00000000
vn -0.00000000 -1.00000000 -0.00000000
vn 1.00000000 -0.00000000 -0.00000000
vn -0.00000000 1.00000000 -0.00000000
vn 1.00000000 -0.00000000 -0.00000000
vn -1.00000000 -0.00000000 -0.00000000
vn -0.00000000 1.00000000 -0.00000000
vn -1.00000000 -0.00000000 -0.00000000
vn -0.00000000 -1.00000000 -0.00000000
vn -0.00000000 -0.00000000 -1.00000000
vn 1.00000000 -0.00000000 -0.00000000
vn -0.00000000 1.00000000 -0.00000000
vn -0.00000000 -0.00000000 -1.00000000
vn 1.00000000 -0.00000000 -0.00000000
vn -0.00000000 -1.00000000 -0.00000000
vn -0.00000000 1.00000000 -0.00000000
vn -0.00000000 -0.00000000 1.00000000
vn -0.00000000 -0.00000000 -1.00000000
vn -0.00000000 -1.00000000 -0.00000000
vn -1.00000000 -0.00000000 -0.00000000
vn -0.00000000 -0.00000000 -1.00000000
vn -0.00000000 -1.00000000 -0.00000000
vn -1.00000000 -0.00000000 -0.00000000
vn -0.00000000 -1.00000000 -0.00000000
vn -0.00000000 -0.00000000 1.00000000
vn -1.00000000 -0.00000000 -0.00000000
vn -0.00000000 -0.00000000 -1.00000000
vn -0.00000000 1.00000000 -0.00000000
vn -1.00000000 -0.00000000 -0.00000000
vn -0.00000000 1.00000000 -0.00000000
vn -0.00000000 -0.00000000 -1.00000000
vn -0.00000000 -1.00000000 -0.00000000
vn -0.00000000 -0.00000000 -1.00000000
vn -1.00000000 -0.00000000 -0.00000000
vn -0.00000000 -1.00000000 -0.00000000
vn -1.00000000 -0.00000000 -0.00000000
vn -0.00000000 -0.00000000 1.00000000
vn -0.00000000 -0.00000000 -1.00000000
vn -1.00000000 -0.00000000 -0.00000000
vn -0.00000000 -0.00000000 1.00000000
vn -1.00000000 -0.00000000 -0.00000000
vn 1.00000000 -0.00000000 -0.00000000
vn -0.00000000 -0.00000000 -1.00000000
vn -0.00000000 -1.00000000 -0.00000000
vn -0.00000000 -0.00000000 1.00000000
vn 1.00000000 -0.00000000 -0.00000000
vn -0.00000000 -1.00000000 -0.00000000
vn 1.00000000 -0.00000000 -0.00000000
vn -0.00000000 -0.00000000 -1.00000000
vn -0.00000000 -0.00000000 1.00000000
vn 1.00000000 -0.00000000 -0.00000000
vn -0.00000000 -0.00000000 1.00000000
vn 1.00000000 -0.00000000 -0.00000000
vn 1.00000000 -0.00000000 -0.00000000
vn -0.00000000 -0.00000000 -1.00000000
vn 1.00000000 -0.00000000 -0.00000000
vn -0.00000000 -0.00000000 1.00000000
vn -0.00000000 -1.00000000 -0.00000000
vn -0.00000000 -0.00000000 -1.00000000
vn 1.00000000 -0.00000000 -0.00000000
vn -0.00000000 -1.00000000 -0.00000000
vn -0.00000000 -0.00000000 1.00000000
vn -1.00000000 -0.00000000 -0.00000000
vn -0.00000000 -0.00000000 -1.00000000
vn -1.00000000 -0.00000000 -0.00000000
vn -0.00000000 -0.00000000 1.00000000
vn -0.00000000 -1.00000000 -0.00000000
vn -1.00000000 -0.00000000 -0.00000000
vn -1.00000000 -0.00000000 -0.00000000
vn -0.00000000 -0.00000000 -1.00000000
vn -0.00000000 -1.00000000 -0.00000000
vn -1.00000000 -0.00000000 -0.00000000
vn -0.00000000 -1.00000000 -0.00000000
vn -0.00000000 -0.00000000 -1.00000000
vn -1.00000000 -0.00000000 -0.00000000
vn -0.00000000 -1.00000000 -0.00000000
vn -0.00000000 -0.00000000 -1.00000000
vn -0.00000000 1.00000000 -0.00000000
vn -1.00000000 -0.00000000 -0.00000000
vn -1.00000000 -0.00000000 -0.00000000
vn -0.00000000 1.00000000 -0.00000000
vn -0.00000000 -1.00000000 -0.00000000
vn -0.00000000 -0.00000000 -1.00000000
vn 1.00000000 -0.00000000 -0.00000000
vn -0.00000000 -1.00000000 -0.00000000
vn 1.00000000 -0.00000000 -0.00000000
vn -0.00000000 -0.00000000 -1.00000000
vn 1.00000000 -0.00000000 -0.00000000
vn -0.00000000 1.00000000 -0.00000000
vn 1.00000000 -0.00000000 -0.00000000
vn -0.00000000 1.00000000 -0.00000000
vn -0.00000000 -0.00000000 1.00000000
vn 1.00000000 -0.00000000 -0.00000000
vn -0.00000000 -0.00000000 -1.00000000
vn 1.00000000 -0.00000000 -0.00000000
vn -0.00000000 -1.00000000 -0.00000000
vn 1.00000000 -0.00000000 -0.00000000
vn -0.00000000 -0.00000000 1.00000000
vn 1.00000000 -0.00000000 -0.00000000
vn -0.00000000 -1.00000000 -0.00000000
vn -0.00000000 -0.00000000 -1.00000000
vn -0.00000000 -0.00000000 1.00000000
vn -1.00000000 -0.00000000 -0.00000000
vn -1.00000000 -0.00000000 -0.00000000
vn -0.00000000 -0.00000000 -1.00000000
vn -1.00000000 -0.00000000 -0.00000000
vn -0.00000000 -0.00000000 1.00000000
vn -0.00000000 -1.00000000 -0.00000000
vn -1.00000000 -0.00000000 -0.00000000
vn -0.00000000 -1.00000000 -0.00000000
vn -0.00000000 -0.00000000 -1.00000000
vn -0.00000000 -0.00000000 -1.00000000
vn -0.00000000 -1.00000000 -0.00000000
vn -1.00000000 -0.00000000 -0.00000000
vn -0.00000000 -0.00000000 1.00000000
vn -1.00000000 -0.00000000 -0.00000000
vn -0.00000000 -1.00000000 -0.00000000
vn -0.00000000 -0.00000000 -1.00000000
vn -1.00000000 -0.00000000 -0.00000000
vn -0.00000000 -0.00000000 1.00000000
vn -1.00000000 -0.00000000 -0.00000000
vn -0.00000000 -1.00000000 -0.00000000
vn 1.00000000 -0.00000000 -0.00000000
vn -0.00000000 -0.00000000 -1.00000000
vn -0.00000000 -1.00000000 -0.00000000
vn -0.00000000 -0.00000000 1.00000000
vn 1.00000000 -0.00000000 -0.00000000
vn -0.00000000 -0.00000000 -1.00000000
vn 1.00000000 -0.00000000 -0.00000000
vn -0.00000000 -0.00000000 1.00000000
vn 1.00000000 -0.00000000 -0.00000000
vn -1.00000000 -0.00000000 -0.00000000
vn -0.00000000 -0.00000000 -1.00000000
vn -0.00000000 -1.00000000 -0.00000000
vn -0.00000000 -0.00000000 1.00000000
vn -0.00000000 -1.00000000 -0.00000000
vn -1.00000000 -0.00000000 -0.00000000
vn -0.00000000 -0.00000000 -1.00000000
vn -1.00000000 -0.00000000 -0.00000000
vn -1.00000000 -0.00000000 -0.00000000
vn -0.00000000 -0.00000000 1.00000000
vn -0.00000000 -0.00000000 -1.00000000
vn -0.00000000 -1.00000000 -0.00000000
vn 1.00000000 -0.00000000 -0.00000000
vn -0.00000000 -0.00000000 1.00000000
vn 1.00000000 -0.00000000 -0.00000000
vn -0.00000000 -1.00000000 -0.00000000
vn -0.00000000 -0.00000000 -1.00000000
vn 1.00000000 -0.00000000 -0.00000000
vn 1.00000000 -0.00000000 -0.00000000
vn -0.00000000 -0.00000000 1.00000000
vn -0.00000000 -1.00000000 -0.00000000
vn -1.00000000 -0.00000000 -0.00000000
vn -0.00000000 -0.00000000 -1.00000000
vn -0.00000000 -0.00000000 1.00000000
vn -1.00000000 -0.00000000 -0.00000000
vn -0.00000000 -1.00000000 -0.00000000
vn -0.00000000 -0.00000000 -1.00000000
vn -1.00000000 -0.00000000 -0.00000000
vn -0.00000000 -0.00000000 1.00000000
vn -1.00000000 -0.00000000 -0.00000000
vn -0.00000000 -0.00000000 -1.00000000
vn 1.00000000 -0.00000000 -0.00000000
vn -0.00000000 -1.00000000 -0.00000000
vn -0.00000000 -0.00000000 1.00000000
vn 1.00000000 -0.00000000 -0.00000000
vn -0.00000000 -1.00000000 -0.00000000
vn -0.00000000 -0.00000000 -1.00000000
vn 1.00000000 -0.00000000 -0.00000000
vn -0.00000000 -0.00000000 1.00000000
vn 1.00000000 -0.00000000 -0.00000000
vn 1.00000000 -0.00000000 -0.00000000
vn -0.00000000 -0.00000000 1.00000000
vn -0.00000000 -0.00000000 -1.00000000
vn 1.00000000 -0.00000000 -0.00000000
vn -0.00000000 -1.00000000 -0.00000000
vn -0.00000000 -0.00000000 1.00000000
vn 1.00000000 -0.00000000 -0.00000000
vn 1.00000000 -0.00000000 -0.00000000
vn -0.00000000 -0.00000000 -1.00000000
vn -0.00000000 -1.00000000 -0.00000000
vn -1.00000000 -0.00000000 -0.00000000
vn -0.00000000 -0.00000000 1.00000000
vn -0.00000000 -0.00000000 -1.00000000
vn -1.00000000 -0.00000000 -0.00000000
vn -0.00000000 -1.00000000 -0.00000000
vn -1.00000000 -0.00000000 -0.00000000
vn -0.00000000 -0.00000000 1.00000000
vn -1.00000000 -0.00000000 -0.00000000
vn -0.00000000 -1.00000000 -0.00000000
vn -0.00000000 -0.00000000 -1.00000000
f 1//1 11//11 15//15
f 15//15 5//5 1//1
f 9//9 7//7 16//16
f 16//16 18//18 9//9
f 4//4 2//2 6//6
f 6//6 8//8 4//4
f 20//20 17//17 12//12
f 12//12 13//13 20//20
f 14//14 3//3 10//10
f 10//10 19//19 14//14
f 21//21 26//26 29//29
f 29//29 27//27 21//21
f 38//38 40//40 34//34
f 34//34 32//32 38//38
f 33//33 36//36 24//24
f 24//24 22//22 33//33
f 28//28 37//37 31//31
f 31//31 23//23 28//28
f 39//39 30//30 25//25
f 25//25 35//35 39//39
f 42//42 45//45 52//52
f 52//52 49//49 42//42
f 47//47 51//51 64//64
f 64//64 61//61 47//47
f 59//59 62//62 57//57
f 57//57 55//55 59//59
f 54//54 58//58 46//46
f 46//46 43//43 54//54
f 48//48 60//60 53//53
f 53//53 41//41 48//48
f 44//44 56//56 63//63
f 63//63 50//50 44//44
f 105//105 69//69 75//75
f 75//75 104//104 105//105
f 118//118 113//113 86//86
f 86//86 101//101 118//118
f 102//102 88//88 80//80
f 80//80 99//99 102//102
f 110//110 90//90 68//68
f 68//68 106//106 110//110
f 126//126 83//83 79//79
f 79//79 116//116 126//126
f 71//71 96//96 92//92
f 92//92 65//65 71//71
f 72//72 103//103 108//108
f 108//108 97//97 72//72
f 70//70 89//89 95//95
f 95//95 76//76 70//70
f 67//67 105//105 104//104
f 104//104 73//73 67//67
f 127//127 118//118 101//101
f 101//101 84//84 127//127
f 85//85 102//102 99//99
f 99//99 77//77 85//85
f 91//91 110//110 106//106
f 106//106 66//66 91//91
f 125//125 82//82 87//87
f 87//87 114//114 125//125
f 89//89 125//125 114//114
f 114//114 95//95 89//89
f 103//103 74//74 94//94
f 94//94 108//108 103//103
f 94//94 113//113 118//118
f 118//118 108//108 94//94
f 93//93 98//98 109//109
f 109//109 112//112 93//93
f 122//122 124//124 90//90
f 90//90 110//110 122//122
f 78//78 100//100 122//122
f 122//122 117//117 78//78
f 100//100 81//81 124//124
f 124//124 122//122 100//100
f 123//123 120//120 128//128
f 128//128 115//115 123//123
f 107//107 119//119 121//121
f 121//121 111//111 107//107
f 129//129 133//133 139//139
f 139//139 135//135 129//129
f 136//136 140//140 152//152
f 152//152 147//147 136//136
f 149//149 151//151 145//145
f 145//145 141//141 149//149
f 142//142 146//146 132//132
f 132//132 131//131 142//142
f 137//137 148//148 143//143
f 143//143 130//130 137//137
f 134//134 144//144 150//150
f 150//150 138//138 134//134
f 153//153 156//156 164//164
f 164//164 159//159 153//153
f 161//161 162//162 176//176
f 176//176 171//171 161//161
f 172//172 175//175 169//169
f 169//169 166//166 172//172
f 165//165 170//170 158//158
f 158//158 155//155 165//165
f 160//160 173//173 167//167
f 167//167 154//154 160//160
f 177//177 180//180 185//185
f 185//185 184//184 177//177
f 194//194 195//195 191//191
f 191//191 189//189 194//194
f 188//188 192//192 181//181
f 181//181 178//178 188//188
f 183//183 193//193 187//187
f 187//187 179//179 183//183
f 196//196 186//186 182//182
f 182//182 190//190 196//196
f 198//198 200//200 206//206
f 206//206 204//204 198//198
f 214//214 215//215 212//212
f 212//212 208//208 214//214
f 209//209 211//211 201//201
f 201//201 197//197 209//209
f 203//203 213//213 207//207
f 207//207 199//199 203//203
f 216//216 205//205 202//202
f 202//202 210//210 216//216
f 157//157 168//168 174//174
f 174//174 163//163 157//157
f 278//278 272//272 228//228
f 228//228 243//243 278//278
f 268//268 256//256 238//238
f 238//238 246//246 268//268
f 277//277 275//275 233//233
f 233//233 248//248 277//277
f 266//266 263//263 220//220
f 220//220 241//241 266//266
f 282//282 273//273 230//230
f 230//230 259//259 282//282
f 280//280 271//271 221//221
f 221//221 264//264 280//280
f 257//257 266//266 241//241
f 241//241 217//217 257//257
f 274//274 277//277 248//248
f 248//248 231//231 274//274
f 250//250 268//268 246//246
f 246//246 236//236 250//250
f 269//269 278//278 243//243
f 243//243 223//223 269//269
f 225//225 244//244 267//267
f 267//267 252//252 225//225
f 252//252 267//267 268//268
f 268//268 250//250 252//252
f 229//229 247//247 265//265
f 265//265 260//260 229//229
f 260//260 265//265 266//266
f 266//266 257//257 260//260
f 276//276 279//279 262//262
f 262//262 234//234 276//276
f 270//270 281//281 258//258
f 258//258 218//218 270//270
f 281//281 282//282 259//259
f 259//259 258//258 281//281
f 247//247 232//232 261//261
f 261//261 265//265 247//247
f 244//244 227//227 254//254
f 254//254 267//267 244//244
f 267//267 254//254 256//256
f 256//256 268//268 267//267
f 251//251 249//249 282//282
f 282//282 281//281 251//251
f 224//224 251//251 281//281
f 281//281 270//270 224//224
f 255//255 253//253 280//280
f 280//280 279//279 255//255
f 239//239 255//255 279//279
f 279//279 276//276 239//239
f 219//219 242//242 278//278
f 278//278 269//269 219//219
f 237//237 245//245 277//277
f 277//277 274//274 237//237
f 253//253 226//226 271//271
f 271//271 280//280 253//253
f 249//249 235//235 273//273
f 273//273 282//282 249//249
f 245//245 240//240 275//275
f 275//275 277//277 245//245
f 242//242 222//222 272//272
f 272//272 278//278 242//242
f 284//284 286//286 292//292
f 292//292 291//291 284//284
f 290//290 293//293 305//305
f 305//305 303//303 290//290
f 301//301 304//304 298//298
f 298//298 295//295 301//301
f 297//297 300//300 287//287
f 287//287 283//283 297//297
f 289//289 302//302 296//296
f 296//296 285//285 289//289
f 299//299 306//306 314//314
f 314//314 316//316 299//299
f 307//307 317//317 333//333
f 333//333 320//320 307//307
f 294//294 288//288 308//308
f 308//308 310//310 294//294
f 288//288 299//299 316//316
f 316//316 308//308 288//288
f 306//306 294//294 310//310
f 310//310 314//314 306//306
f 331//331 329//329 346//346
f 346//346 349//349 331//331
f 313//313 311//311 324//324
f 324//324 330//330 313//313
f 318//318 315//315 327//327
f 327//327 334//334 318//318
f 312//312 309//309 321//321
f 321//321 323//323 312//312
f 350//350 343//343 359//359
f 359//359 361//361 350//350
f 325//325 322//322 338//338
f 338//338 341//341 325//325
f 319//319 332//332 347//347
f 347//347 337//337 319//319
f 328//328 326//326 340//340
f 340//340 344//344 328//328
f 342//342 335//335 351//351
f 351//351 356//356 342//342
f 348//348 360//360 369//369
f 369//369 364//364 348//348
f 345//345 339//339 355//355
f 355//355 358//358 345//345
f 353//353 362//362 357//357
f 357//357 354//354 353//353
f 365//365 371//371 386//386
f 386//386 376//376 365//365
f 360//360 352//352 374//374
f 374//374 369//369 360//360
f 336//336 348//348 364//364
f 364//364 367//367 336//336
f 352//352 336//336 367//367
f 367//367 374//374 352//352
f 388//388 406//406 399//399
f 399//399 385//385 388//388
f 366//366 363//363 375//375
f 375//375 379//379 366//366
f 373//373 368//368 381//381
f 381//381 389//389 373//373
f 370//370 372//372 390//390
f 390//390 384//384 370//370
f 383//383 401//401 391//391
f 391//391 378//378 383//383
f 387//387 382//382 396//396
f 396//396 403//403 387//387
f 394//394 400//400 411//411
f 411//411 407//407 394//394
f 395//395 393//393 408//408
f 408//408 409//409 395//395
f 405//405 397//397 410//410
f 410//410 413//413 405//405
f 402//402 404//404 414//414
f 414//414 412//412 402//402
f 377//377 392//392 398//398
f 398//398 380//380 377//377
f 441//441 439//439 418//418
f 418//418 424//424 441//441
f 448//448 434//434 432//432
f 432//432 444//444 448//448
f 417//417 423//423 436//436
f 436//436 428//428 417//417
f 440//440 416//416 427//427
f 427//427 443//443 440//440
f 426//426 420//420 431//431
f 431//431 433//433 426//426
f 442//442 425//425 435//435
f 435//435 447//447 442//442
f 421//421 442//442 447//447
f 447//447 438//438 421//421
f 419//419 440//440 443//443
f 443//443 430//430 419//419
f 437//437 446//446 445//445
f 445//445 429//429 437//437
f 422//422 415//415 439//439
f 439//439 441//441 422//422
f 449//449 451//451 452//452
f 452//452 450//450 449//449
f 453//453 455//455 460//460
f 460//460 458//458 453//453
f 459//459 461//461 471//471
f 471//471 469//469 459//459
f 468//468 472//472 465//465
f 465//465 463//463 468//468
f 464//464 466//466 457//457
f 457//457 454//454 464//464
f 456//456 467//467 470//470
f 470//470 462//462 456//456
f 578//578 559//559 484//484
f 484//484 543//543 578//578
f 549//549 509//509 494//494
f 494//494 546//546 549//549
f 577//577 563//563 490//490
f 490//490 547//547 577//577
f 553//553 498//498 476//476
f 476//476 542//542 553//553
f 565//565 561//561 487//487
f 487//487 506//506 565//565
f 560//560 568//568 512//512
f 512//512 483//483 560//560
f 544//544 482//482 511//511
f 511//511 550//550 544//544
f 548//548 488//488 502//502
f 502//502 554//554 548//548
f 558//558 569//569 508//508
f 508//508 475//475 558//558
f 568//568 572//572 510//510
f 510//510 512//512 568//568
f 550//550 511//511 509//509
f 509//509 549//549 550//550
f 555//555 504//504 579//579
f 579//579 585//585 555//555
f 569//569 565//565 506//506
f 506//506 508//508 569//569
f 572//572 564//564 496//496
f 496//496 510//510 572//572
f 505//505 539//539 594//594
f 594//594 592//592 505//505
f 513//513 536//536 534//534
f 534//534 516//516 513//513
f 486//486 529//529 539//539
f 539//539 505//505 486//486
f 481//481 522//522 536//536
f 536//536 513//513 481//481
f 507//507 537//537 518//518
f 518//518 474//474 507//507
f 562//562 573//573 531//531
f 531//531 485//485 562//562
f 516//516 534//534 526//526
f 526//526 493//493 516//516
f 557//557 576//576 524//524
f 524//524 480//480 557//557
f 613//613 554//554 553//553
f 553//553 611//611 613//613
f 609//609 550//550 549//549
f 549//549 608//608 609//609
f 604//604 548//548 554//554
f 554//554 613//613 604//604
f 598//598 544//544 550//550
f 550//550 609//609 598//598
f 611//611 553//553 542//542
f 542//542 617//617 611//611
f 622//622 577//577 547//547
f 547//547 606//606 622//622
f 608//608 549//549 546//546
f 546//546 602//602 608//608
f 619//619 578//578 543//543
f 543//543 596//596 619//619
f 615//615 541//541 578//578
f 578//578 619//619 615//615
f 601//601 545//545 577//577
f 577//577 622//622 601//601
f 473//473 519//519 576//576
f 576//576 557//557 473//473
f 492//492 527//527 573//573
f 573//573 562//562 492//492
f 501//501 489//489 564//564
f 564//564 572//572 501//501
f 514//514 515//515 565//565
f 565//565 569//569 514//514
f 497//497 552//552 583//583
f 583//583 581//581 497//497
f 479//479 514//514 569//569
f 569//569 558//558 479//479
f 477//477 499//499 568//568
f 568//568 560//560 477//477
f 515//515 491//491 561//561
f 561//561 565//565 515//515
f 545//545 495//495 563//563
f 563//563 577//577 545//545
f 541//541 478//478 559//559
f 559//559 578//578 541//541
f 571//571 567//567 588//588
f 588//588 590//590 571//571
f 503//503 570//570 589//589
f 589//589 580//580 503//503
f 566//566 500//500 582//582
f 582//582 587//587 566//566
f 551//551 556//556 586//586
f 586//586 584//584 551//551
f 537//537 507//507 591//591
f 591//591 593//593 537//537
f 539//539 537//537 593//593
f 593//593 594//594 539//539
f 507//507 505//505 592//592
f 592//592 591//591 507//507
f 616//616 620//620 671//671
f 671//671 677//677 616//616
f 540//540 530//530 644//644
f 644//644 661//661 540//540
f 610//610 607//607 648//648
f 648//648 652//652 610//610
f 600//600 621//621 673//673
f 673//673 631//631 600//600
f 533//533 535//535 654//654
f 654//654 649//649 533//533
f 605//605 614//614 660//660
f 660//660 641//641 605//605
f 538//538 540//540 661//661
f 661//661 658//658 538//538
f 597//597 610//610 652//652
f 652//652 624//624 597//597
f 523//523 575//575 669//669
f 669//669 630//630 523//523
f 612//612 618//618 675//675
f 675//675 655//655 612//612
f 638//638 634//634 674//674
f 674//674 668//668 638//638
f 664//664 678//678 672//672
f 672//672 670//670 664//664
f 670//670 672//672 623//623
f 623//623 628//628 670//670
f 650//650 647//647 633//633
f 633//633 635//635 650//650
f 668//668 674//674 639//639
f 639//639 645//645 668//668
f 657//657 656//656 676//676
f 676//676 666//666 657//657
f 629//629 626//626 651//651
f 651//651 653//653 629//629
f 643//643 642//642 659//659
f 659//659 662//662 643//643
f 653//653 651//651 647//647
f 647//647 650//650 653//653
f 662//662 659//659 656//656
f 656//656 657//657 662//662
f 574//574 528//528 637//637
f 637//637 667//667 574//574
f 614//614 612//612 655//655
f 655//655 660//660 614//614
f 535//535 521//521 627//627
f 627//627 654//654 535//535
f 575//575 517//517 663//663
f 663//663 669//669 575//575
f 620//620 595//595 625//625
f 625//625 671//671 620//620
f 520//520 538//538 658//658
f 658//658 665//665 520//520
f 607//607 599//599 632//632
f 632//632 648//648 607//607
f 532//532 574//574 667//667
f 667//667 646//646 532//532
f 621//621 603//603 640//640
f 640//640 673//673 621//621
f 525//525 533//533 649//649
f 649//649 636//636 525//525
f 719//719 682//682 690//690
f 690//690 717//717 719//719
f 741//741 727//727 700//700
f 700//700 715//715 741//741
f 716//716 702//702 695//695
f 695//695 714//714 716//716
f 726//726 703//703 684//684
f 684//684 720//720 726//726
f 738//738 699//699 692//692
f 692//692 729//729 738//738
f 687//687 712//712 705//705
f 705//705 680//680 687//687
f 685//685 718//718 723//723
f 723//723 711//711 685//685
f 734//734 740//740 737//737
f 737//737 731//731 734//734
f 683//683 704//704 708//708
f 708//708 688//688 683//683
f 679//679 719//719 717//717
f 717//717 686//686 679//679
f 739//739 741//741 715//715
f 715//715 698//698 739//739
f 697//697 716//716 714//714
f 714//714 691//691 697//697
f 706//706 726//726 720//720
f 720//720 681//681 706//706
f 736//736 694//694 701//701
f 701//701 728//728 736//736
f 733//733 735//735 703//703
f 703//703 726//726 733//733
f 718//718 689//689 709//709
f 709//709 723//723 718//718
f 713//713 696//696 735//735
f 735//735 733//733 713//713
f 704//704 736//736 728//728
f 728//728 708//708 704//704
f 707//707 710//710 722//722
f 722//722 725//725 707//707
f 693//693 713//713 733//733
f 733//733 730//730 693//693
f 732//732 724//724 721//721
f 721//721 742//742 732//732
f 723//723 709//709 727//727
f 727//727 741//741 723//723
f 763//763 773//773 777//777
f 777//777 768//768 763//763
f 772//772 769//769 778//778
f 778//778 782//782 772//772
f 745//745 747//747 752//752
f 752//752 750//750 745//745
f 759//759 762//762 757//757
f 757//757 753//753 759//759
f 755//755 758//758 746//746
f 746//746 743//743 755//755
f 749//749 760//760 754//754
f 754//754 744//744 749//749
f 761//761 751//751 748//748
f 748//748 756//756 761//761
f 765//765 764//764 767//767
f 767//767 771//771 765//765
f 780//780 779//779 774//774
f 774//774 776//776 780//780
f 775//775 766//766 770//770
f 770//770 781//781 775//775
f 783//783 786//786 791//791
f 791//791 790//790 783//783
f 789//789 792//792 802//802
f 802//802 800//800 789//789
f 799//799 801//801 797//797
f 797//797 795//795 799//799
f 793//793 796//796 787//787
f 787//787 784//784 793//793
f 788//788 798//798 794//794
f 794//794 785//785 788//788
f 884//884 894//894 899//899
f 899//899 888//888 884//884
f 803//803 813//813 818//818
f 818//818 809//809 803//803
f 811//811 807//807 819//819
f 819//819 821//821 811//811
f 806//806 804//804 808//808
f 808//808 810//810 806//806
f 820//820 817//817 814//814
f 814//814 815//815 820//820
f 892//892 887//887 897//897
f 897//897 901//901 892//892
f 816//816 805//805 812//812
f 812//812 822//822 816//816
f 825//825 827//827 832//832
f 832//832 830//830 825//825
f 840//840 842//842 838//838
f 838//838 834//834 840//840
f 833//833 836//836 828//828
f 828//828 824//824 833//833
f 829//829 839//839 835//835
f 835//835 823//823 829//829
f 841//841 831//831 826//826
f 826//826 837//837 841//841
f 843//843 848//848 851//851
f 851//851 850//850 843//843
f 860//860 861//861 857//857
f 857//857 855//855 860//860
f 854//854 858//858 847//847
f 847//847 845//845 854//854
f 849//849 859//859 853//853
f 853//853 844//844 849//849
f 862//862 852//852 846//846
f 846//846 856//856 862//862
f 864//864 867//867 872//872
f 872//872 870//870 864//864
f 880//880 882//882 877//877
f 877//877 874//874 880//880
f 875//875 878//878 868//868
f 868//868 863//863 875//875
f 869//869 879//879 873//873
f 873//873 865//865 869//869
f 881//881 871//871 866//866
f 866//866 876//876 881//881
f 886//886 883//883 889//889
f 889//889 890//890 886//886
f 900//900 898//898 893//893
f 893//893 896//896 900//900
f 895//895 885//885 891//891
f 891//891 902//902 895//895

