mtllib material.mtl
usemtl material_0
v 9.01869300 4.39812000 4.63434100
v 6.49720000 4.39812000 4.63434100
v 9.01869300 4.39812000 2.32208300
v 9.01869300 4.39812000 2.32208300
v 6.49720000 4.39812000 2.32208300
v 6.49720000 4.39812000 2.32208300
v 9.01869400 4.95783100 4.63434100
v 9.01869400 4.95783100 4.63434100
v 6.49720000 4.95783100 4.63434100
v 6.49720000 4.95783100 4.63434100
v 9.01869300 4.94547400 2.56250900
v 9.01869300 4.94547400 2.56250900
v 9.01869300 4.94547400 2.56250900
v 6.49720000 4.94547400 2.56250900
v 6.49720000 4.94547400 2.56250900
v 6.49720000 4.94547400 2.56250900
v 6.13401000 -5.12427400 3.28341300
v 5.59807200 -5.12427400 3.28341300
v 6.13401000 -5.01686300 3.79730300
v 5.59807200 -5.01686300 3.79730300
v -4.91871600 -6.08425600 2.55810700
v -4.91871600 -6.08425600 2.55810700
v -6.82202300 -6.08425600 2.55810700
v -6.82202300 -6.08425600 2.55810700
v -6.82202300 -6.08425600 1.93135500
v -4.91871600 -6.08425600 1.93135500
v -6.82202300 -5.42512600 2.55810700
v -4.91871600 -5.42512600 2.55810700
v -6.43048700 -6.11421900 0.18464600
v -6.43048700 -6.11421900 0.18464600
v -5.31025300 -6.11421900 0.18464600
v -5.31025300 -6.11421900 0.18464600
v -6.43048700 -6.11421900 1.37486400
v -6.43048700 -6.11421900 1.37486400
v -5.31025300 -6.11421900 1.37486400
v -5.31025300 -6.11421900 1.37486400
v -6.43048700 -6.03730000 0.18464600
v -6.43048700 -6.03730000 0.18464600
v -6.43048700 -6.03730000 0.18464600
v -5.31025300 -6.03730000 0.18464600
v -5.31025300 -6.03730000 0.18464600
v -5.31025300 -6.03730000 0.18464600
v -6.43048700 -6.03730000 1.37486400
v -6.43048700 -6.03730000 1.37486400
v -6.43048700 -6.03730000 1.37486400
v -5.31025300 -6.03730000 1.37486400
v -5.31025300 -6.03730000 1.37486400
v -5.31025300 -6.03730000 1.37486400
v -5.03772900 -6.08425600 2.03551300
v -6.70301100 -6.08425600 2.03551300
v -6.70301100 -6.08425600 1.95558300
v -5.03772900 -6.08425600 1.95558300
v 5.85527500 -6.09232100 0.00670700
v 5.85527500 -6.09232100 0.18436500
v 6.23173500 -6.24825600 0.00670700
v 6.23173500 -6.24825600 0.18436500
v 6.38767000 -6.62471600 0.00670700
v 6.38767000 -6.62471600 0.18436500
v 6.23173500 -7.00117700 0.00670700
v 6.23173500 -7.00117700 0.18436500
v 5.85527500 -7.15711200 0.00670700
v 5.85527500 -7.15711200 0.18436500
v 5.47881400 -7.00117600 0.00670700
v 5.47881400 -7.00117600 0.18436500
v 5.32287900 -6.62471600 0.00670700
v 5.32287900 -6.62471600 0.18436500
v 5.47881400 -6.24825600 0.00670700
v 5.47881400 -6.24825600 0.18436500
v 5.85527500 -6.45216200 0.33465800
v 5.97728900 -6.50270200 0.33465800
v 6.02782900 -6.62471600 0.33465800
v 5.97728900 -6.74673100 0.33465800
v 5.85527500 -6.79727100 0.33465800
v 5.73326000 -6.74673100 0.33465800
v 5.68272000 -6.62471600 0.33465800
v 5.73326000 -6.50270200 0.33465800
v 5.85527500 -6.45216200 0.91096700
v 5.97728900 -6.50270200 0.91096700
v 6.02782900 -6.62471600 0.91096700
v 5.97728900 -6.74673100 0.91096700
v 5.85527500 -6.79727100 0.91096700
v 5.73326000 -6.74673100 0.91096700
v 5.68272000 -6.62471600 0.91096700
v 5.73326000 -6.50270200 0.91096700
v 5.78236100 -6.55180300 0.91096700
v 6.19711500 -6.50611300 0.76079000
v 6.13105200 -6.50611300 0.76079000
v 6.19711500 -6.54085100 0.84465600
v 6.13105200 -6.54085100 0.84465600
v 6.19711500 -6.62471600 0.87939400
v 6.13105200 -6.62471600 0.87939400
v 6.19711500 -6.70858200 0.84465600
v 6.13105200 -6.70858200 0.84465600
v 6.19711500 -6.74332000 0.76079000
v 6.13105200 -6.74332000 0.76079000
v 6.19711500 -6.70858200 0.67692500
v 6.13105200 -6.70858200 0.67692500
v 6.19711500 -6.62471600 0.64218600
v 6.13105200 -6.62471600 0.64218600
v 6.19711500 -6.54085100 0.67692500
v 6.13105200 -6.54085100 0.67692500
v 6.13105200 -6.56270700 0.76079000
v 6.13105200 -6.58086900 0.80463700
v 6.13105200 -6.62471600 0.82279900
v 6.13105200 -6.66856300 0.80463700
v 6.13105200 -6.68672600 0.76079000
v 6.13105200 -6.66856300 0.71694300
v 6.13105200 -6.62471600 0.69878100
v 6.13105200 -6.58086900 0.71694300
v 5.99140100 -6.56270700 0.76079000
v 5.99140100 -6.58086900 0.80463700
v 5.99140100 -6.62471600 0.82279900
v 5.99140100 -6.66856300 0.80463700
v 5.99140100 -6.68672600 0.76079000
v 5.99140100 -6.66856300 0.71694300
v 5.99140100 -6.62471600 0.69878100
v 5.99140100 -6.58086900 0.71694300
v 5.85527500 -6.62471600 0.00670700
v 6.19711500 -6.62471600 0.76079000
v 5.85527500 -6.09232100 0.00670700
v 6.23173500 -6.24825600 0.00670700
v 6.23173500 -6.24825600 0.18436500
v 5.85527500 -6.09232100 0.18436500
v 6.38767000 -6.62471600 0.00670700
v 6.38767000 -6.62471600 0.18436500
v 6.23173500 -7.00117700 0.00670700
v 6.23173500 -7.00117700 0.18436500
v 5.85527500 -7.15711200 0.00670700
v 5.85527500 -7.15711200 0.18436500
v 5.47881400 -7.00117600 0.00670700
v 5.47881400 -7.00117600 0.18436500
v 5.32287900 -6.62471600 0.00670700
v 5.32287900 -6.62471600 0.18436500
v 5.47881400 -6.24825600 0.00670700
v 5.47881400 -6.24825600 0.18436500
v 5.92818900 -6.55180300 0.91096700
v 5.85527500 -6.52160100 0.91096700
v 5.95839100 -6.62471600 0.91096700
v 5.92818900 -6.69763000 0.91096700
v 5.85527500 -6.72783200 0.91096700
v 5.78236100 -6.69763000 0.91096700
v 5.75215900 -6.62471600 0.91096700
vn -1.00000000 -0.00000000 -0.00000000
vn 1.00000000 -0.00000000 -0.00000000
vn -1.00000000 -0.00000000 -0.00000000
vn -0.00000000 -0.40220000 0.91560000
vn 1.00000000 -0.00000000 -0.00000000
vn -0.00000000 -0.40220000 0.91560000
vn -1.00000000 -0.00000000 -0.00000000
vn -0.00000000 -1.00000000 0.00600000
vn 1.00000000 -0.00000000 -0.00000000
vn -0.00000000 -1.00000000 0.00600000
vn -1.00000000 -0.00000000 -0.00000000
vn -0.00000000 -1.00000000 0.00600000
vn -0.00000000 -0.40220000 0.91560000
vn -0.00000000 -1.00000000 0.00600000
vn 1.00000000 -0.00000000 -0.00000000
vn -0.00000000 -0.40220000 0.91560000
vn -0.00000000 -0.97880000 0.20460000
vn -0.00000000 -0.97880000 0.20460000
vn -0.00000000 -0.97880000 0.20460000
vn -0.00000000 -0.97880000 0.20460000
vn -0.00000000 -0.00000000 1.00000000
vn -0.00000000 -1.00000000 -0.00000000
vn -0.00000000 -1.00000000 -0.00000000
vn -0.00000000 -0.00000000 1.00000000
vn -0.00000000 -1.00000000 -0.00000000
vn -0.00000000 -1.00000000 -0.00000000
vn -0.00000000 -0.00000000 1.00000000
vn -0.00000000 -0.00000000 1.00000000
vn -0.00000000 -0.00000000 1.00000000
vn 1.00000000 -0.00000000 -0.00000000
vn -0.00000000 -0.00000000 1.00000000
vn -1.00000000 -0.00000000 -0.00000000
vn 1.00000000 -0.00000000 -0.00000000
vn -0.00000000 -0.00000000 -1.00000000
vn -1.00000000 -0.00000000 -0.00000000
vn -0.00000000 -0.00000000 -1.00000000
vn -0.00000000 -1.00000000 -0.00000000
vn 1.00000000 -0.00000000 -0.00000000
vn -0.00000000 -0.00000000 1.00000000
vn -0.00000000 -1.00000000 -0.00000000
vn -0.00000000 -0.00000000 1.00000000
vn -1.00000000 -0.00000000 -0.00000000
vn 1.00000000 -0.00000000 -0.00000000
vn -0.00000000 -1.00000000 -0.00000000
vn -0.00000000 -0.00000000 -1.00000000
vn -0.00000000 -0.00000000 -1.00000000
vn -0.00000000 -1.00000000 -0.00000000
vn -1.00000000 -0.00000000 -0.00000000
vn -0.00000000 -1.00000000 -0.00000000
vn -0.00000000 -1.00000000 -0.00000000
vn -0.00000000 -1.00000000 -0.00000000
vn -0.00000000 -1.00000000 -0.00000000
vn -0.00000000 -0.00000000 -1.00000000
vn -0.00000000 0.38540000 0.92270000
vn -0.00000000 -0.00000000 -1.00000000
vn 0.27250000 0.27250000 0.92270000
vn -0.00000000 -0.00000000 -1.00000000
vn 0.38540000 -0.00000000 0.92270000
vn -0.00000000 -0.00000000 -1.00000000
vn 0.27250000 -0.27250000 0.92270000
vn -0.00000000 -0.00000000 -1.00000000
vn -0.00000000 -0.38540000 0.92270000
vn -0.00000000 -0.00000000 -1.00000000
vn -0.27250000 -0.27250000 0.92270000
vn -0.00000000 -0.00000000 -1.00000000
vn -0.38540000 -0.00000000 0.92270000
vn -0.00000000 -0.00000000 -1.00000000
vn -0.27250000 0.27250000 0.92270000
vn -0.00000000 0.77890000 0.62710000
vn 0.55080000 0.55080000 0.62710000
vn 0.77890000 -0.00000000 0.62710000
vn 0.55080000 -0.55080000 0.62710000
vn -0.00000000 -0.77890000 0.62710000
vn -0.55080000 -0.55080000 0.62710000
vn -0.77890000 -0.00000000 0.62710000
vn -0.55080000 0.55080000 0.62710000
vn -0.00000000 0.77640000 0.63020000
vn 0.54900000 0.54900000 0.63020000
vn 0.77640000 -0.00000000 0.63020000
vn 0.54900000 -0.54900000 0.63020000
vn -0.00000000 -0.77640000 0.63020000
vn -0.54900000 -0.54900000 0.63020000
vn -0.77640000 -0.00000000 0.63020000
vn -0.54900000 0.54900000 0.63020000
vn -0.00000000 -0.00000000 1.00000000
vn 0.63020000 0.77640000 -0.00000000
vn -0.63020000 0.77640000 -0.00000000
vn 0.63020000 0.54900000 0.54900000
vn -0.63020000 0.54900000 0.54900000
vn 0.63020000 -0.00000000 0.77640000
vn -0.63020000 -0.00000000 0.77640000
vn 0.63020000 -0.54900000 0.54900000
vn -0.63020000 -0.54900000 0.54900000
vn 0.63020000 -0.77640000 -0.00000000
vn -0.63020000 -0.77640000 -0.00000000
vn 0.63020000 -0.54900000 -0.54900000
vn -0.63020000 -0.54900000 -0.54900000
vn 0.63020000 -0.00000000 -0.77640000
vn -0.63020000 -0.00000000 -0.77640000
vn 0.63020000 0.54900000 -0.54900000
vn -0.63020000 0.54900000 -0.54900000
vn -0.80420000 0.59440000 -0.00000000
vn -0.80420000 0.42030000 0.42030000
vn -0.80420000 -0.00000000 0.59440000
vn -0.80420000 -0.42030000 0.42030000
vn -0.80420000 -0.59440000 -0.00000000
vn -0.80420000 -0.42030000 -0.42030000
vn -0.80420000 -0.00000000 -0.59440000
vn -0.80420000 0.42030000 -0.42030000
vn -0.00000000 1.00000000 -0.00000000
vn -0.00000000 0.70710000 0.70710000
vn -0.00000000 -0.00000000 1.00000000
vn -0.00000000 -0.70710000 0.70710000
vn -0.00000000 -1.00000000 -0.00000000
vn -0.00000000 -0.70710000 -0.70710000
vn -0.00000000 -0.00000000 -1.00000000
vn -0.00000000 0.70710000 -0.70710000
vn -0.00000000 -0.00000000 -1.00000000
vn 1.00000000 -0.00000000 -0.00000000
vn -0.00000000 1.00000000 -0.00000000
vn 0.70710000 0.70710000 -0.00000000
vn 0.70710000 0.70710000 -0.00000000
vn -0.00000000 1.00000000 -0.00000000
vn 1.00000000 -0.00000000 -0.00000000
vn 1.00000000 -0.00000000 -0.00000000
vn 0.70710000 -0.70710000 -0.00000000
vn 0.70710000 -0.70710000 -0.00000000
vn -0.00000000 -1.00000000 -0.00000000
vn -0.00000000 -1.00000000 -0.00000000
vn -0.70710000 -0.70710000 -0.00000000
vn -0.70710000 -0.70710000 -0.00000000
vn -1.00000000 -0.00000000 -0.00000000
vn -1.00000000 -0.00000000 -0.00000000
vn -0.70710000 0.70710000 -0.00000000
vn -0.70710000 0.70710000 -0.00000000
vn -0.00000000 -0.00000000 1.00000000
vn -0.00000000 -0.00000000 1.00000000
vn -0.00000000 -0.00000000 1.00000000
vn -0.00000000 -0.00000000 1.00000000
vn -0.00000000 -0.00000000 1.00000000
vn -0.00000000 -0.00000000 1.00000000
vn -0.00000000 -0.00000000 1.00000000
f 7//7 11//11 3//3
f 3//3 1//1 7//7
f 6//6 4//4 13//13
f 13//13 16//16 6//6
f 2//2 5//5 15//15
f 15//15 9//9 2//2
f 12//12 8//8 10//10
f 10//10 14//14 12//12
f 18//18 17//17 19//19
f 19//19 20//20 18//18
f 23//23 25//25 51//51
f 51//51 50//50 23//23
f 24//24 21//21 28//28
f 28//28 27//27 24//24
f 36//36 34//34 45//45
f 45//45 46//46 36//36
f 40//40 47//47 44//44
f 44//44 37//37 40//40
f 33//33 30//30 38//38
f 38//38 43//43 33//33
f 32//32 35//35 48//48
f 48//48 42//42 32//32
f 29//29 31//31 41//41
f 41//41 39//39 29//29
f 26//26 22//22 49//49
f 49//49 52//52 26//26
f 22//22 23//23 50//50
f 50//50 49//49 22//22
f 25//25 26//26 52//52
f 52//52 51//51 25//25
f 120//120 123//123 122//122
f 122//122 121//121 120//120
f 121//121 122//122 125//125
f 125//125 124//124 121//121
f 124//124 125//125 127//127
f 127//127 126//126 124//124
f 126//126 127//127 129//129
f 129//129 128//128 126//126
f 128//128 129//129 131//131
f 131//131 130//130 128//128
f 130//130 131//131 133//133
f 133//133 132//132 130//130
f 58//58 56//56 70//70
f 70//70 71//71 58//58
f 132//132 133//133 135//135
f 135//135 134//134 132//132
f 134//134 135//135 123//123
f 123//123 120//120 134//134
f 57//57 59//59 118//118
f 75//75 74//74 82//82
f 82//82 83//83 75//75
f 64//64 62//62 73//73
f 73//73 74//74 64//64
f 54//54 68//68 76//76
f 76//76 69//69 54//54
f 56//56 54//54 69//69
f 69//69 70//70 56//56
f 60//60 58//58 71//71
f 71//71 72//72 60//60
f 66//66 64//64 74//74
f 74//74 75//75 66//66
f 62//62 60//60 72//72
f 72//72 73//73 62//62
f 68//68 66//66 75//75
f 75//75 76//76 68//68
f 78//78 77//77 137//137
f 137//137 136//136 78//78
f 73//73 72//72 80//80
f 80//80 81//81 73//73
f 71//71 70//70 78//78
f 78//78 79//79 71//71
f 76//76 75//75 83//83
f 83//83 84//84 76//76
f 74//74 73//73 81//81
f 81//81 82//82 74//74
f 72//72 71//71 79//79
f 79//79 80//80 72//72
f 70//70 69//69 77//77
f 77//77 78//78 70//70
f 69//69 76//76 84//84
f 84//84 77//77 69//69
f 77//77 84//84 85//85
f 85//85 137//137 77//77
f 83//83 82//82 141//141
f 141//141 142//142 83//83
f 81//81 80//80 139//139
f 139//139 140//140 81//81
f 79//79 78//78 136//136
f 136//136 138//138 79//79
f 84//84 83//83 142//142
f 142//142 85//85 84//84
f 82//82 81//81 140//140
f 140//140 141//141 82//82
f 80//80 79//79 138//138
f 138//138 139//139 80//80
f 86//86 87//87 89//89
f 89//89 88//88 86//86
f 88//88 89//89 91//91
f 91//91 90//90 88//88
f 90//90 91//91 93//93
f 93//93 92//92 90//90
f 92//92 93//93 95//95
f 95//95 94//94 92//92
f 94//94 95//95 97//97
f 97//97 96//96 94//94
f 96//96 97//97 99//99
f 99//99 98//98 96//96
f 98//98 99//99 101//101
f 101//101 100//100 98//98
f 100//100 101//101 87//87
f 87//87 86//86 100//100
f 100//100 86//86 119//119
f 95//95 93//93 105//105
f 105//105 106//106 95//95
f 101//101 99//99 108//108
f 108//108 109//109 101//101
f 91//91 89//89 103//103
f 103//103 104//104 91//91
f 97//97 95//95 106//106
f 106//106 107//107 97//97
f 87//87 101//101 109//109
f 109//109 102//102 87//87
f 89//89 87//87 102//102
f 102//102 103//103 89//89
f 93//93 91//91 104//104
f 104//104 105//105 93//93
f 99//99 97//97 107//107
f 107//107 108//108 99//99
f 102//102 109//109 117//117
f 117//117 110//110 102//102
f 108//108 107//107 115//115
f 115//115 116//116 108//108
f 106//106 105//105 113//113
f 113//113 114//114 106//106
f 104//104 103//103 111//111
f 111//111 112//112 104//104
f 109//109 108//108 116//116
f 116//116 117//117 109//109
f 107//107 106//106 114//114
f 114//114 115//115 107//107
f 105//105 104//104 112//112
f 112//112 113//113 105//105
f 103//103 102//102 110//110
f 110//110 111//111 103//103
f 63//63 65//65 118//118
f 59//59 61//61 118//118
f 65//65 67//67 118//118
f 55//55 57//57 118//118
f 61//61 63//63 118//118
f 67//67 53//53 118//118
f 53//53 55//55 118//118
f 86//86 88//88 119//119
f 90//90 92//92 119//119
f 96//96 98//98 119//119
f 92//92 94//94 119//119
f 98//98 100//100 119//119
f 88//88 90//90 119//119
f 94//94 96//96 119//119

