# https://github.com/mikedh/trimesh
v -0.00050597 -0.03004321 0.10063385
v 0.00003588 -0.03004321 0.10063385
v -0.00050597 -0.02969731 0.10141830
v -0.00151757 -0.02966249 0.10141496
v -0.00252861 -0.02962302 0.10140494
v -0.00353965 -0.02957891 0.10138158
v -0.00455125 -0.02953480 0.10135154
v -0.00151757 -0.02996428 0.10063385
v -0.00455125 -0.02949766 0.09982939
v -0.00050597 -0.02973445 0.09962243
v 0.00003588 -0.02969731 0.10141830
v 0.00003588 -0.02973445 0.09962243
v -0.00252861 -0.02882442 0.10161191
v -0.00353965 -0.02882442 0.10160856
v -0.00455125 -0.02882442 0.10159856
v -0.00556229 -0.02882442 0.10154515
v -0.00556229 -0.02945123 0.10127811
v -0.00455125 -0.02970427 0.10063385
v -0.00252861 -0.02988071 0.10063385
v -0.00353965 -0.02738276 0.09594724
v -0.00353965 -0.02925622 0.09924523
v -0.00252861 -0.02958820 0.09967250
v -0.00556229 -0.02941640 0.09997626
v -0.00524292 -0.02836708 0.09802017
v -0.00455125 -0.02880352 0.09861100
v -0.00289867 -0.01718202 0.07790172
v -0.00353965 -0.02334797 0.08884720
v -0.00151757 -0.02639147 0.09389100
v -0.00151757 -0.02451801 0.09059299
v -0.00017646 -0.02428818 0.08998547
v -0.00008578 -0.02832529 0.09707884
v 0.00003588 -0.02882442 0.10157518
v -0.00151757 -0.02882442 0.10159856
v 0.00003588 -0.02832529 0.09707884
v -0.00571831 -0.02774027 0.10140829
v -0.00571831 -0.02883371 0.10152177
v -0.00571831 -0.02943265 0.10125808
v -0.00556229 -0.02953944 0.10063385
v -0.00571831 -0.02939783 0.10000964
v -0.00179300 -0.01211880 0.06881222
v -0.00142745 -0.01639967 0.07628944
v -0.00395589 -0.02224060 0.08699458
v -0.00455125 -0.02812564 0.09742600
v -0.00571831 -0.02935140 0.09992953
v -0.00571831 -0.02845762 0.09839069
v -0.00571831 -0.02830440 0.09812698
v -0.00353965 -0.01711005 0.07802523
v -0.00307778 -0.01417334 0.07280118
v -0.00252861 -0.01121805 0.06751037
v -0.00050597 -0.01404798 0.07201006
v 0.00003588 -0.02428818 0.08998547
v -0.00050597 -0.01188665 0.06820802
v -0.00050597 -0.01148967 0.06751037
v 0.00003588 -0.01165217 0.06779411
v 0.00003588 -0.02810243 0.10129813
v -0.00571831 -0.02736186 0.10123137
v -0.00571831 -0.02949998 0.10063385
v -0.00571831 -0.02948605 0.10048699
v -0.00151306 -0.01139913 0.06751037
v -0.00571831 -0.02511928 0.09268930
v -0.00455125 -0.01467943 0.07434002
v -0.00353965 -0.01330973 0.07153941
v -0.00316508 -0.01116233 0.06770399
v -0.00571831 -0.02257258 0.08834316
v -0.00571831 -0.02201309 0.08738846
v -0.00334420 -0.01099518 0.06751037
v 0.00003588 -0.01148967 0.06751037
v -0.00571831 -0.02718775 0.10107782
v 0.00003588 -0.02759634 0.10076404
v -0.00571831 -0.01803866 0.08060889
v -0.00571831 -0.01711238 0.07902998
v -0.00405333 -0.01214201 0.06978359
v -0.00571831 -0.02040661 0.08464792
v -0.00351712 -0.01137359 0.06822806
v -0.00383930 -0.01106715 0.06786088
v -0.00362977 -0.01091393 0.06751037
v 0.00003588 -0.00853206 0.06751037
v -0.00571831 -0.02690221 0.10069395
v 0.00003588 -0.02740133 0.10049366
v -0.00571831 -0.01630217 0.07768142
v -0.00512464 -0.01418959 0.07378592
v -0.00423414 -0.01068874 0.06751037
v -0.00437157 -0.01126912 0.06853516
v -0.00571831 -0.00632662 0.06751037
v 0.00003588 -0.00859938 0.06763055
v 0.00003588 -0.02723186 0.10025666
v -0.00571831 -0.02640772 0.09993621
v -0.00571831 -0.01499748 0.07553171
v -0.00571831 -0.01412923 0.07411637
v -0.00571831 -0.01396904 0.07385601
v -0.00550202 -0.01378332 0.07339870
v -0.00456702 -0.01054945 0.06751037
v -0.00571831 -0.00997604 0.06751037
v 0.00003588 -0.02703685 0.09991617
v 0.00003588 -0.02663755 0.09921853
v 0.00003588 -0.01819420 0.08443430
v -0.00571831 -0.01323777 0.07267767
v -0.00556229 -0.01327491 0.07262093
v -0.00556229 -0.01131788 0.06948316
v -0.00516125 -0.01026623 0.06751037
v -0.00556229 -0.01295919 0.07211355
v -0.00556285 -0.01243917 0.07127903
v -0.00571831 -0.01226505 0.07111547
v -0.00535332 -0.01016873 0.06751037
v -0.00571831 -0.01010604 0.06770732
v -0.00571831 -0.01128073 0.06954325
v -0.00529812 -0.01023605 0.06757047
v -0.00571831 -0.01035909 0.06810122
f 1 2 11
f 1 11 3
f 1 3 4
f 1 4 5
f 1 5 6
f 1 6 7
f 1 7 8
f 1 8 9
f 1 9 10
f 1 10 12
f 1 12 2
f 2 12 34
f 2 34 51
f 2 51 54
f 2 54 67
f 2 67 77
f 2 77 85
f 2 85 96
f 2 96 95
f 2 95 94
f 2 94 86
f 2 86 79
f 2 79 69
f 2 69 55
f 2 55 32
f 2 32 11
f 3 11 13
f 3 13 14
f 3 14 15
f 3 15 4
f 4 15 5
f 5 15 6
f 6 15 7
f 7 15 16
f 7 16 17
f 7 17 18
f 7 18 19
f 7 19 8
f 8 19 9
f 9 20 21
f 9 21 22
f 9 22 10
f 9 19 18
f 9 18 23
f 9 23 24
f 9 24 25
f 9 25 26
f 9 26 27
f 9 27 20
f 10 22 28
f 10 28 29
f 10 29 30
f 10 30 31
f 10 31 34
f 10 34 12
f 11 32 33
f 11 33 13
f 13 33 35
f 13 35 14
f 14 35 15
f 15 35 16
f 16 35 36
f 16 36 17
f 17 36 37
f 17 37 18
f 18 38 39
f 18 39 23
f 18 37 38
f 20 22 21
f 20 27 40
f 20 40 41
f 20 41 22
f 22 41 29
f 22 29 28
f 23 39 24
f 24 42 43
f 24 43 25
f 24 39 44
f 24 44 45
f 24 45 46
f 24 46 47
f 24 47 48
f 24 48 49
f 24 49 42
f 25 43 42
f 25 42 26
f 26 49 40
f 26 40 27
f 26 42 49
f 29 41 50
f 29 50 30
f 30 51 34
f 30 34 31
f 30 50 52
f 30 52 53
f 30 53 54
f 30 54 51
f 32 35 33
f 32 55 35
f 35 56 68
f 35 68 78
f 35 78 87
f 35 87 84
f 35 84 93
f 35 93 105
f 35 105 108
f 35 108 106
f 35 106 103
f 35 103 97
f 35 97 90
f 35 90 89
f 35 89 88
f 35 88 80
f 35 80 71
f 35 71 70
f 35 70 73
f 35 73 65
f 35 65 64
f 35 64 60
f 35 60 46
f 35 46 45
f 35 45 44
f 35 44 39
f 35 39 58
f 35 58 57
f 35 57 37
f 35 37 36
f 35 55 56
f 37 57 38
f 38 57 58
f 38 58 39
f 40 49 59
f 40 59 53
f 40 53 52
f 40 52 50
f 40 50 41
f 46 60 48
f 46 48 47
f 48 61 62
f 48 62 63
f 48 63 49
f 48 60 64
f 48 64 65
f 48 65 61
f 49 63 66
f 49 66 76
f 49 76 82
f 49 82 92
f 49 92 100
f 49 100 104
f 49 104 93
f 49 93 84
f 49 84 77
f 49 77 67
f 49 67 53
f 49 53 59
f 53 67 54
f 55 68 56
f 55 69 68
f 61 70 71
f 61 71 72
f 61 72 63
f 61 63 62
f 61 65 73
f 61 73 70
f 63 72 74
f 63 74 75
f 63 75 66
f 66 75 76
f 68 69 78
f 69 79 78
f 71 80 81
f 71 81 72
f 72 75 74
f 72 81 75
f 75 82 76
f 75 81 83
f 75 83 82
f 77 84 85
f 78 79 86
f 78 86 87
f 80 88 81
f 81 89 90
f 81 90 91
f 81 91 92
f 81 92 83
f 81 88 89
f 82 83 92
f 84 87 86
f 84 86 94
f 84 94 95
f 84 95 96
f 84 96 85
f 90 97 98
f 90 98 91
f 91 98 92
f 92 99 100
f 92 98 101
f 92 101 102
f 92 102 103
f 92 103 99
f 93 104 105
f 97 103 101
f 97 101 98
f 99 106 100
f 99 103 106
f 100 107 104
f 100 106 107
f 101 103 102
f 104 107 105
f 105 107 108
f 106 108 107

