# https://github.com/mikedh/trimesh
v 0.04066220 -0.01601641 0.13667155
v 0.03986631 -0.01144234 0.15786162
v 0.04020058 -0.01601641 0.15328427
v 0.04050302 -0.02018087 0.13667155
v 0.04044731 -0.01144234 0.13667155
v 0.03818698 -0.01144234 0.16151841
v 0.04007324 -0.01601641 0.15786162
v 0.03990610 -0.00686827 0.13667155
v 0.03913409 -0.00686827 0.15786162
v 0.03785271 -0.00686827 0.16141360
v 0.03982651 -0.02059049 0.15786162
v 0.04047914 -0.02059049 0.13667155
v 0.03431100 -0.00686827 0.16282703
v 0.03431100 -0.01144234 0.16295166
v 0.03827453 -0.01601641 0.16150141
v 0.03816310 -0.02059049 0.16148725
v 0.03899879 -0.00219179 0.13667155
v 0.03778108 -0.00229420 0.15786162
v 0.03671459 0.00022325 0.16031742
v 0.03718416 -0.00229420 0.16084993
v 0.03431100 -0.00229420 0.16220671
v 0.03782883 -0.02516456 0.16138244
v 0.03908634 -0.02516456 0.15786162
v 0.03953999 -0.02801482 0.13667155
v 0.04011303 -0.02413198 0.13667155
v 0.02423504 -0.00314757 0.16560573
v 0.02545275 -0.00686827 0.16560573
v 0.02594620 -0.01144234 0.16560573
v 0.02612925 -0.01601641 0.16560573
v 0.02610538 -0.01813278 0.16560573
v 0.03431100 -0.02059049 0.16290634
v 0.03431100 -0.02516456 0.16279587
v 0.03761394 0.00134970 0.13667155
v 0.03557647 0.00262976 0.15786162
v 0.03329226 0.00644433 0.15786162
v 0.03287044 0.00582990 0.16094057
v 0.03436671 0.00196413 0.16124932
v 0.03005299 0.00716116 0.16166003
v 0.03718416 -0.02973863 0.16084710
v 0.02950382 -0.06199609 0.16162604
v 0.03163681 -0.06199609 0.15786162
v 0.03241678 -0.06199609 0.13667155
v 0.02062966 0.00239935 0.16560573
v 0.02597008 -0.02059049 0.16560573
v 0.02583478 -0.02268978 0.16560573
v 0.02516623 -0.06199609 0.16322075
v 0.02916160 -0.06199609 0.16175350
v 0.03713641 0.00223721 0.13667155
v 0.03417570 0.00700756 0.13667155
v 0.03168456 0.00873137 0.15786162
v 0.02873977 0.01053198 0.16099156
v 0.02553234 0.01181204 0.16171102
v -0.03240046 -0.06199609 0.13667155
v 0.01602146 0.00683688 0.16560573
v 0.02526969 -0.02535230 0.16560573
v 0.02058986 -0.06199609 0.16337654
v 0.02461706 -0.02758813 0.16560573
v 0.02122658 -0.03196593 0.16560573
v 0.01987356 -0.03360441 0.16560573
v 0.01653083 -0.03685575 0.16560573
v 0.01523353 -0.03804194 0.16560573
v 0.00583407 -0.04241120 0.16560573
v 0.03361061 0.00780119 0.13667155
v 0.02939240 0.01121468 0.15786162
v 0.02722758 0.01350171 0.15786162
v 0.02425891 0.01479031 0.16099156
v 0.02065353 0.01619837 0.16153257
v -0.03903818 -0.02990077 0.13667155
v -0.03164437 -0.06199609 0.15786162
v 0.01601350 0.01601063 0.16256927
v 0.00686077 0.01137682 0.16560573
v 0.00228440 -0.06199609 0.16341053
v 0.00382047 -0.04301709 0.16560573
v 0.00228440 -0.04345232 0.16560573
v 0.00017530 -0.04348645 0.16560573
v 0.02995748 0.01175230 0.13667155
v 0.02963117 0.01210219 0.13667155
v 0.02557213 0.01617277 0.13667155
v 0.02493542 0.01533646 0.15786162
v 0.01916522 0.01880969 0.16074796
v 0.01601350 0.01944972 0.16123799
v -0.03907798 -0.02516456 0.15786162
v -0.03993753 -0.02516456 0.13667155
v -0.03155682 -0.06199609 0.15809955
v -0.03718376 -0.02973863 0.16084710
v 0.00686077 0.02058470 0.16199144
v 0.00228440 0.01256300 0.16560573
v 0.00195013 -0.06199609 0.16341053
v -0.00228400 -0.04351205 0.16560573
v 0.02465686 0.01685547 0.13667155
v 0.02185533 0.01762350 0.15786162
v 0.01957113 0.01904010 0.15786162
v 0.01601350 0.02065297 0.15786162
v 0.00939170 0.02294854 0.16027210
v 0.00686077 0.02320455 0.16062333
v -0.03782843 -0.02516456 0.16138244
v -0.03981019 -0.02059049 0.15786162
v -0.04046282 -0.02059049 0.13667155
v -0.02950342 -0.06199609 0.16162887
v 0.00228440 0.02058470 0.16240781
v 0.00228440 0.02349470 0.16099439
v -0.00201340 0.01258007 0.16560573
v -0.00228400 -0.06199609 0.16340486
v -0.00597693 -0.04248800 0.16560573
v -0.02092373 -0.06199609 0.16336804
v -0.02058946 -0.06199609 0.16337087
v 0.02021579 0.02009828 0.13667155
v 0.01883095 0.02076391 0.13667155
v 0.01068104 0.02393845 0.13667155
v 0.00971005 0.02415179 0.13667155
v 0.00686077 0.02468942 0.13667155
v 0.00686077 0.02352883 0.15786162
v 0.00228440 0.02410912 0.15786162
v -0.03431060 -0.02516456 0.16280437
v -0.03817066 -0.02059049 0.16149291
v -0.04004896 -0.01601641 0.15786162
v -0.04064587 -0.01601641 0.13667155
v -0.02516583 -0.06199609 0.16322358
v -0.00228400 0.02058470 0.16240781
v -0.00228400 0.02349470 0.16099439
v -0.00228400 0.01258007 0.16560573
v -0.01342646 -0.03892944 0.16560573
v 0.00517348 0.02491983 0.13667155
v 0.00228440 0.02517584 0.13667155
v 0.00059712 0.02518437 0.13667155
v -0.00228400 0.02410912 0.15786162
v -0.02528521 -0.02535230 0.16560573
v -0.02597763 -0.02059049 0.16560573
v -0.03431060 -0.02059049 0.16291767
v -0.03827413 -0.01601641 0.16150707
v -0.03819453 -0.01144234 0.16152124
v -0.03984203 -0.01144234 0.15786162
v -0.04046282 -0.01197143 0.13667155
v -0.01521721 -0.03803340 0.16560573
v -0.01854403 -0.03488446 0.16560573
v -0.01988112 -0.03361294 0.16560573
v -0.02343874 -0.02968743 0.16560573
v -0.00686037 0.02058470 0.16199427
v -0.00686037 0.02320455 0.16062616
v -0.00688424 0.01140242 0.16560573
v -0.00228400 0.02517584 0.13667155
v -0.00686037 0.02469795 0.13667155
v -0.00686037 0.02353737 0.15786162
v -0.00939130 0.02294854 0.16027210
v -0.02613681 -0.01601641 0.16560573
v -0.03431060 -0.01144234 0.16295449
v -0.03431060 -0.00686827 0.16282986
v -0.03785231 -0.00686827 0.16141077
v -0.03910981 -0.00686827 0.15786162
v -0.03949184 -0.00405214 0.13667155
v -0.04007284 -0.00801179 0.13667155
v -0.04042303 -0.01144234 0.13667155
v -0.01601310 0.01944972 0.16123799
v -0.01601310 0.01601063 0.16256644
v -0.01602106 0.00683688 0.16560573
v -0.01070451 0.02395552 0.13667155
v -0.01149244 0.02370804 0.13667155
v -0.01181876 0.02222317 0.15786162
v -0.01601310 0.02069564 0.15786162
v -0.01917278 0.01880969 0.16074796
v -0.02610498 -0.01390859 0.16560573
v -0.02596967 -0.01144234 0.16560573
v -0.02581050 -0.00936011 0.16560573
v -0.02546826 -0.00686827 0.16560573
v -0.02490318 -0.00498232 0.16560573
v -0.02423464 -0.00315610 0.16560573
v -0.03431060 -0.00229420 0.16220671
v -0.03718376 -0.00229420 0.16084993
v -0.03671419 0.00022325 0.16031458
v -0.03777272 -0.00229420 0.15786162
v -0.03896655 -0.00219179 0.13667155
v -0.02065313 0.01619837 0.16152974
v -0.02063721 0.00238228 0.16560573
v -0.02553989 0.01181204 0.16169969
v -0.02025519 0.02011534 0.13667155
v -0.01961052 0.01905717 0.15786162
v -0.02189472 0.01764057 0.15786162
v -0.02496685 0.01535353 0.15786162
v -0.02425851 0.01479031 0.16099156
v -0.03005259 0.00716116 0.16166570
v -0.03287004 0.00582990 0.16094057
v -0.03436631 0.00196413 0.16124932
v -0.03329186 0.00646140 0.15786162
v -0.03557606 0.00262976 0.15786162
v -0.03761353 0.00133263 0.13667155
v -0.03800353 0.00033419 0.13667155
v -0.02873937 0.01053198 0.16099156
v -0.02113863 0.01956065 0.13667155
v -0.02627211 0.01566928 0.13667155
v -0.02725901 0.01353585 0.15786162
v -0.02560356 0.01619837 0.13667155
v -0.03169212 0.00874843 0.15786162
v -0.03419917 0.00703316 0.13667155
v -0.02940792 0.01124881 0.15786162
v -0.02997300 0.01176937 0.13667155
f 1 2 3
f 1 3 4
f 1 4 12
f 1 12 25
f 1 25 24
f 1 24 42
f 1 42 53
f 1 53 68
f 1 68 83
f 1 83 98
f 1 98 117
f 1 117 133
f 1 133 152
f 1 152 151
f 1 151 150
f 1 150 171
f 1 171 186
f 1 186 185
f 1 185 193
f 1 193 195
f 1 195 189
f 1 189 191
f 1 191 188
f 1 188 175
f 1 175 157
f 1 157 156
f 1 156 142
f 1 142 141
f 1 141 125
f 1 125 124
f 1 124 123
f 1 123 111
f 1 111 110
f 1 110 109
f 1 109 108
f 1 108 107
f 1 107 90
f 1 90 78
f 1 78 77
f 1 77 76
f 1 76 63
f 1 63 49
f 1 49 48
f 1 48 33
f 1 33 17
f 1 17 8
f 1 8 5
f 1 5 2
f 2 6 7
f 2 7 3
f 2 5 8
f 2 8 9
f 2 9 10
f 2 10 6
f 3 7 4
f 4 7 11
f 4 11 12
f 6 10 13
f 6 13 14
f 6 14 15
f 6 15 7
f 7 15 16
f 7 16 11
f 8 17 9
f 9 18 19
f 9 19 20
f 9 20 10
f 9 17 18
f 10 20 21
f 10 21 13
f 11 16 22
f 11 22 23
f 11 23 24
f 11 24 25
f 11 25 12
f 13 21 26
f 13 26 27
f 13 27 28
f 13 28 14
f 14 28 29
f 14 29 30
f 14 30 31
f 14 31 15
f 15 31 16
f 16 31 32
f 16 32 22
f 17 33 19
f 17 19 18
f 19 33 34
f 19 34 35
f 19 35 36
f 19 36 20
f 20 36 37
f 20 37 21
f 21 37 36
f 21 36 38
f 21 38 26
f 22 39 23
f 22 32 40
f 22 40 39
f 23 39 41
f 23 41 24
f 24 41 42
f 26 38 43
f 26 43 54
f 26 54 71
f 26 71 87
f 26 87 102
f 26 102 121
f 26 121 140
f 26 140 155
f 26 155 173
f 26 173 166
f 26 166 165
f 26 165 164
f 26 164 163
f 26 163 162
f 26 162 161
f 26 161 145
f 26 145 128
f 26 128 127
f 26 127 137
f 26 137 136
f 26 136 135
f 26 135 134
f 26 134 122
f 26 122 104
f 26 104 89
f 26 89 75
f 26 75 74
f 26 74 73
f 26 73 62
f 26 62 61
f 26 61 60
f 26 60 59
f 26 59 58
f 26 58 57
f 26 57 55
f 26 55 45
f 26 45 44
f 26 44 30
f 26 30 29
f 26 29 28
f 26 28 27
f 30 44 31
f 31 44 45
f 31 45 32
f 32 45 46
f 32 46 47
f 32 47 40
f 33 48 34
f 34 48 35
f 35 48 49
f 35 49 50
f 35 50 36
f 36 50 51
f 36 51 38
f 38 51 52
f 38 52 43
f 39 40 41
f 40 47 46
f 40 46 56
f 40 56 72
f 40 72 88
f 40 88 103
f 40 103 106
f 40 106 105
f 40 105 118
f 40 118 99
f 40 99 84
f 40 84 69
f 40 69 53
f 40 53 42
f 40 42 41
f 43 52 54
f 45 55 46
f 46 55 57
f 46 57 58
f 46 58 59
f 46 59 60
f 46 60 61
f 46 61 62
f 46 62 56
f 49 63 50
f 50 64 51
f 50 63 64
f 51 64 65
f 51 65 66
f 51 66 52
f 52 66 67
f 52 67 54
f 53 69 68
f 54 67 70
f 54 70 71
f 56 62 73
f 56 73 74
f 56 74 75
f 56 75 72
f 63 76 64
f 64 76 77
f 64 77 65
f 65 78 79
f 65 79 66
f 65 77 78
f 66 79 80
f 66 80 67
f 67 80 81
f 67 81 70
f 68 82 83
f 68 69 82
f 69 84 85
f 69 85 82
f 70 81 71
f 71 81 86
f 71 86 87
f 72 75 89
f 72 89 88
f 78 90 79
f 79 90 91
f 79 91 80
f 80 92 93
f 80 93 94
f 80 94 81
f 80 91 92
f 81 94 95
f 81 95 86
f 82 85 96
f 82 96 97
f 82 97 83
f 83 97 98
f 84 99 85
f 85 99 96
f 86 100 87
f 86 95 101
f 86 101 100
f 87 100 102
f 88 89 103
f 89 104 105
f 89 105 106
f 89 106 103
f 90 107 91
f 91 107 92
f 92 107 108
f 92 108 93
f 93 108 109
f 93 109 94
f 94 109 110
f 94 110 111
f 94 111 112
f 94 112 113
f 94 113 95
f 95 113 101
f 96 114 115
f 96 115 97
f 96 99 114
f 97 115 116
f 97 116 98
f 98 116 117
f 99 118 114
f 100 101 120
f 100 120 119
f 100 119 121
f 100 121 102
f 101 113 126
f 101 126 120
f 104 122 118
f 104 118 105
f 111 123 112
f 112 123 113
f 113 123 124
f 113 124 125
f 113 125 126
f 114 127 128
f 114 128 129
f 114 129 115
f 114 118 127
f 115 129 130
f 115 130 116
f 116 130 131
f 116 131 132
f 116 132 117
f 117 132 133
f 118 122 134
f 118 134 135
f 118 135 136
f 118 136 137
f 118 137 127
f 119 120 138
f 119 138 121
f 120 139 138
f 120 126 139
f 121 138 140
f 125 141 126
f 126 141 142
f 126 142 143
f 126 143 144
f 126 144 139
f 128 145 129
f 129 145 146
f 129 146 130
f 130 146 131
f 131 146 147
f 131 147 148
f 131 148 132
f 132 148 149
f 132 149 150
f 132 150 151
f 132 151 152
f 132 152 133
f 138 153 140
f 138 139 153
f 139 144 153
f 140 153 154
f 140 154 155
f 142 156 144
f 142 144 143
f 144 156 157
f 144 157 158
f 144 158 159
f 144 159 160
f 144 160 153
f 145 161 146
f 146 161 162
f 146 162 163
f 146 163 147
f 147 164 165
f 147 165 166
f 147 166 167
f 147 167 148
f 147 163 164
f 148 167 168
f 148 168 149
f 149 168 169
f 149 169 170
f 149 170 171
f 149 171 150
f 153 160 172
f 153 172 154
f 154 172 155
f 155 172 174
f 155 174 173
f 157 175 159
f 157 159 158
f 159 175 176
f 159 176 160
f 160 176 177
f 160 177 178
f 160 178 179
f 160 179 172
f 166 173 180
f 166 180 167
f 167 180 181
f 167 181 182
f 167 182 168
f 168 182 181
f 168 181 169
f 169 181 183
f 169 183 184
f 169 184 185
f 169 185 186
f 169 186 171
f 169 171 170
f 172 179 174
f 173 174 180
f 174 179 187
f 174 187 180
f 175 188 177
f 175 177 176
f 177 188 178
f 178 189 190
f 178 190 179
f 178 188 191
f 178 191 189
f 179 190 187
f 180 187 181
f 181 187 192
f 181 192 183
f 183 193 185
f 183 185 184
f 183 192 193
f 187 190 194
f 187 194 192
f 189 195 190
f 190 195 194
f 192 194 195
f 192 195 193

