# https://github.com/mikedh/trimesh
v -0.08537823 -0.04100760 0.27225549
v -0.08536985 -0.04100760 0.27436806
v -0.08537823 -0.02973844 0.27225549
v -0.08530293 -0.04100760 0.26768118
v -0.08534476 -0.04100760 0.27682980
v -0.08534476 -0.03888990 0.27682980
v -0.08530293 0.01418213 0.27682980
v -0.08532803 0.01418213 0.27408638
v -0.08534476 0.01418213 0.27225549
v -0.08530293 -0.03888990 0.26768118
v -0.08501850 -0.04100760 0.26310687
v -0.08500177 -0.04100760 0.27894530
v -0.08460024 0.01418213 0.28140704
v -0.08523601 0.01418213 0.26768118
v -0.08529457 -0.02973844 0.26768118
v -0.08424051 -0.04100760 0.26139334
v -0.08501014 0.01418213 0.26493777
v -0.08485957 0.01143777 0.26310687
v -0.08402302 0.01418213 0.26119089
v -0.08346253 0.01418213 0.25991161
v -0.08460024 -0.04100760 0.28140704
v -0.08317810 -0.02058697 0.28426488
v -0.08317810 -0.01601123 0.28426195
v -0.08317810 -0.01144090 0.28425901
v -0.08316974 0.00228630 0.28425021
v -0.08316137 0.01418213 0.28424141
v -0.08357128 -0.04100760 0.25992041
v -0.08485119 0.01418213 0.26310687
v -0.08007451 0.01418213 0.25898442
v -0.08007451 -0.03888990 0.25850029
v -0.08007451 -0.04100760 0.25849735
v -0.08312791 -0.04100760 0.28420327
v -0.08313628 -0.03888990 0.28420913
v -0.08316137 -0.02973844 0.28424434
v -0.08316974 -0.02516270 0.28425901
v -0.08007451 -0.02516270 0.28485171
v -0.08007451 -0.02058697 0.28485758
v -0.08007451 -0.01601123 0.28485171
v -0.08007451 0.00228630 0.28482823
v -0.08007451 0.01418213 0.28481063
v -0.06900698 -0.04100760 0.25721221
v -0.07338213 -0.04100760 0.25752909
v -0.07549859 -0.03888990 0.25778436
v -0.07549859 0.01418213 0.25894628
v -0.03889963 -0.00686517 0.25774328
v -0.04346718 -0.01144090 0.25767580
v -0.07549859 -0.04100760 0.25776969
v -0.07795804 -0.04100760 0.25815700
v -0.08147991 -0.04100760 0.28450255
v -0.08007451 -0.03431417 0.28480183
v -0.08007451 -0.02973844 0.28483117
v -0.05369816 -0.04100760 0.28718141
v -0.05389893 -0.02973844 0.28718141
v -0.05327989 -0.02534638 0.28718141
v -0.05321296 -0.02514649 0.28718141
v -0.05202506 -0.02174305 0.28718141
v -0.02002711 0.00171906 0.28718141
v -0.01602005 0.00430136 0.28718141
v -0.01186240 0.00673779 0.28718141
v -0.01180384 0.00676480 0.28718141
v -0.00686821 0.00807215 0.28718141
v -0.00229230 0.00895812 0.28718141
v -0.06634676 0.01418213 0.28498081
v -0.06406299 -0.04100760 0.25720634
v -0.07092268 0.01418213 0.25891400
v -0.02974780 0.01418213 0.25879957
v -0.02517188 0.01418213 0.25898442
v -0.01390358 -0.04100760 0.25886999
v -0.06157007 -0.04100760 0.25722394
v -0.05719493 0.01418213 0.25882598
v -0.05536289 0.01418213 0.25881718
v -0.05261901 0.01418213 0.25880544
v -0.05078697 0.01418213 0.25880250
v -0.04804310 0.01418213 0.25879957
v -0.08007451 -0.04100760 0.28475195
v -0.08007451 -0.03888990 0.28476955
v 0.00006677 -0.04100760 0.28718141
v -0.00148085 0.00895812 0.28718141
v -0.00229230 0.01418213 0.28539746
v -0.06177085 0.01418213 0.28503362
v -0.06360289 0.01418213 0.28501308
v -0.02183405 0.01418213 0.25999376
v 0.00006677 -0.04100760 0.25992334
v 0.00006677 0.00895272 0.28718141
v 0.00006677 0.01418213 0.28539746
v 0.00006677 0.01418213 0.27751051
v 0.00006677 0.00075205 0.26960597
f 1 2 3
f 1 3 10
f 1 10 4
f 1 4 11
f 1 11 16
f 1 16 27
f 1 27 31
f 1 31 48
f 1 48 47
f 1 47 42
f 1 42 41
f 1 41 64
f 1 64 69
f 1 69 68
f 1 68 83
f 1 83 77
f 1 77 52
f 1 52 75
f 1 75 49
f 1 49 32
f 1 32 21
f 1 21 12
f 1 12 5
f 1 5 2
f 2 5 6
f 2 6 7
f 2 7 8
f 2 8 9
f 2 9 3
f 3 9 10
f 4 10 11
f 5 12 6
f 6 12 13
f 6 13 7
f 7 13 26
f 7 26 40
f 7 40 63
f 7 63 81
f 7 81 80
f 7 80 79
f 7 79 85
f 7 85 86
f 7 86 82
f 7 82 67
f 7 67 66
f 7 66 74
f 7 74 73
f 7 73 72
f 7 72 71
f 7 71 70
f 7 70 65
f 7 65 44
f 7 44 29
f 7 29 20
f 7 20 19
f 7 19 28
f 7 28 17
f 7 17 14
f 7 14 9
f 7 9 8
f 9 14 15
f 9 15 10
f 10 15 11
f 11 15 14
f 11 14 17
f 11 17 18
f 11 18 19
f 11 19 20
f 11 20 16
f 12 21 13
f 13 21 22
f 13 22 23
f 13 23 24
f 13 24 25
f 13 25 26
f 16 20 27
f 17 28 18
f 18 28 19
f 20 29 30
f 20 30 31
f 20 31 27
f 21 32 33
f 21 33 34
f 21 34 35
f 21 35 22
f 22 35 36
f 22 36 37
f 22 37 23
f 23 37 24
f 24 37 25
f 25 37 26
f 26 37 38
f 26 38 39
f 26 39 40
f 29 41 42
f 29 42 43
f 29 43 30
f 29 44 45
f 29 45 46
f 29 46 41
f 30 43 47
f 30 47 48
f 30 48 31
f 32 49 50
f 32 50 51
f 32 51 36
f 32 36 34
f 32 34 33
f 34 36 35
f 36 51 52
f 36 52 53
f 36 53 37
f 37 53 38
f 38 53 39
f 39 53 40
f 40 53 54
f 40 54 55
f 40 55 56
f 40 56 57
f 40 57 58
f 40 58 59
f 40 59 60
f 40 60 61
f 40 61 62
f 40 62 63
f 41 46 45
f 41 45 64
f 42 47 43
f 44 65 45
f 45 66 67
f 45 67 68
f 45 68 69
f 45 69 64
f 45 65 70
f 45 70 71
f 45 71 72
f 45 72 73
f 45 73 74
f 45 74 66
f 49 75 76
f 49 76 50
f 50 76 52
f 50 52 51
f 52 76 75
f 52 77 84
f 52 84 78
f 52 78 62
f 52 62 61
f 52 61 60
f 52 60 59
f 52 59 58
f 52 58 57
f 52 57 56
f 52 56 55
f 52 55 54
f 52 54 53
f 62 78 85
f 62 85 79
f 62 79 80
f 62 80 81
f 62 81 63
f 67 82 83
f 67 83 68
f 77 83 87
f 77 87 86
f 77 86 85
f 77 85 84
f 78 84 85
f 82 86 87
f 82 87 83

