# https://github.com/mikedh/trimesh
v -0.03894094 0.07655104 0.44155403
v -0.08007347 0.07657295 0.44155403
v -0.03894094 0.07655104 0.44160257
v -0.03894094 0.07547737 0.43702582
v -0.04804635 0.07547737 0.43697729
v -0.06634478 0.07549928 0.43697729
v -0.08007347 0.07646339 0.45070754
v -0.06177504 0.07646339 0.45070754
v -0.03894094 0.07650722 0.44617933
v -0.08007347 0.07549928 0.43697729
v -0.08464808 0.07514870 0.43697729
v -0.08464808 0.07609089 0.44155403
v -0.08464808 0.07604707 0.45070754
v -0.03894094 0.07545546 0.43697729
v -0.03894094 0.07379019 0.43441955
v -0.07091939 0.07381208 0.43439528
v -0.08007347 0.07381208 0.43438557
v -0.08464808 0.07591561 0.45528429
v -0.08007347 0.07624428 0.45528429
v -0.03894094 0.07624428 0.45531827
v -0.03894094 0.07644148 0.45075607
v -0.08464808 0.07370253 0.43444867
v -0.08708137 0.07346151 0.43457486
v -0.08741717 0.07398739 0.43697729
v -0.08768970 0.07440371 0.44155403
v -0.08771890 0.07440371 0.45070754
v -0.08772377 0.07438180 0.45528429
v -0.03894094 0.07376826 0.43439043
v -0.03894094 0.07091977 0.43382258
v -0.08007347 0.07091977 0.43382743
v -0.08746097 0.07398739 0.45817691
v -0.08464808 0.07451327 0.45859431
v -0.08007347 0.07462282 0.45871565
v -0.06634478 0.07464473 0.45873506
v -0.05720043 0.07464473 0.45874960
v -0.04804635 0.07464473 0.45876417
v -0.03894094 0.07464473 0.45877387
v -0.08464808 0.07091977 0.43395847
v -0.08726631 0.07091977 0.43439528
v -0.08801090 0.07091977 0.43697729
v -0.08621999 0.03629952 0.43020194
v -0.08709111 0.03325382 0.42999325
v -0.08843916 0.07091977 0.44155403
v -0.08849756 0.07091977 0.45070754
v -0.08851702 0.07091977 0.45528429
v -0.03894094 -0.04464173 0.42084461
v -0.08007347 0.06634026 0.43331783
v -0.08316863 0.03689113 0.43008547
v -0.03894094 -0.05713132 0.41944683
v -0.03894094 -0.09374552 0.41535056
v -0.08772863 0.07091977 0.45847782
v -0.08464808 0.07091977 0.45961837
v -0.08007347 0.07091977 0.45985619
v -0.06177504 0.07091977 0.45991442
v -0.03894094 0.07091977 0.45998239
v -0.03894094 0.07460091 0.45878844
v -0.08467727 0.03459043 0.42990104
v -0.08746584 0.06634026 0.43417202
v -0.08729551 -0.01144574 0.42522237
v -0.08752911 -0.05717514 0.42040780
v -0.08750964 -0.01602525 0.42499425
v -0.08821043 0.06634026 0.43697729
v -0.08619079 -0.04595643 0.42102903
v -0.08622486 -0.08712823 0.41644743
v -0.08710571 -0.04902404 0.42083004
v -0.08731011 -0.05261754 0.42064077
v -0.08835156 0.06176075 0.43697729
v -0.08841970 0.05718123 0.43697729
v -0.08843429 0.05260172 0.43697729
v -0.08856569 -0.02976379 0.42783349
v -0.08862896 -0.07091369 0.42325674
v -0.08772863 -0.02518428 0.45850209
v -0.08772863 0.06176075 0.45848268
v -0.08864356 -0.08463031 0.42325674
v -0.08864843 -0.08920982 0.42325674
v -0.08863382 -0.08920982 0.42783349
v -0.08856082 -0.08920982 0.44613079
v -0.08852189 -0.08463031 0.45528429
v -0.08007347 -0.08920982 0.41605915
v -0.08317349 -0.08671192 0.41636977
v -0.08467727 -0.08888114 0.41617564
v -0.03894094 -0.09378934 0.41534570
v -0.08464808 -0.02060476 0.45968148
v -0.08464808 0.04346460 0.45963779
v -0.08464808 -0.08920982 0.45972515
v -0.08464808 -0.08007271 0.45972029
v -0.08464808 -0.05717514 0.45970573
v -0.08007347 -0.13498304 0.46004062
v -0.03894094 -0.11208548 0.46006489
v -0.08760697 0.06176075 0.43396332
v -0.08768484 -0.06175465 0.42018939
v -0.08766051 -0.02060476 0.42478070
v -0.08731984 -0.09378934 0.41606401
v -0.08753884 -0.09836885 0.41583105
v -0.08421981 -0.13018441 0.41164742
v -0.08464808 -0.13498304 0.41114753
v -0.08708137 -0.13158676 0.41170081
v -0.08711058 -0.09017393 0.41625330
v -0.08852189 -0.06175465 0.42325674
v -0.08860462 -0.06633417 0.42325674
v -0.08863869 -0.10752788 0.41867999
v -0.08865329 -0.11208548 0.41867999
v -0.08772863 -0.03887899 0.45850209
v -0.08772377 -0.07549319 0.45851180
v -0.08864843 -0.09378934 0.42325674
v -0.08864843 -0.12582402 0.41867999
v -0.08859489 -0.09378934 0.43697729
v -0.08863869 -0.13954067 0.41867999
v -0.08852189 -0.08920982 0.45528429
v -0.08007347 -0.09378934 0.41555440
v -0.08240944 -0.12810282 0.41181729
v -0.03894094 -0.09836885 0.41485066
v -0.08007347 -0.13498304 0.41105530
v -0.08007347 -0.12575828 0.41205996
v -0.08464808 -0.13954067 0.45972515
v -0.08007347 -0.13954067 0.46004062
v -0.03894094 -0.11215122 0.46006489
v -0.08769457 -0.10294837 0.41561264
v -0.08855109 -0.10294837 0.41867999
v -0.08728091 -0.13498304 0.41152608
v -0.08750477 -0.13954067 0.41129313
v -0.08464808 -0.13954067 0.41066704
v -0.08836130 -0.13954067 0.41410809
v -0.08865329 -0.11666499 0.41867999
v -0.08772377 -0.09378934 0.45851180
v -0.08796710 -0.14412016 0.41410809
v -0.08808390 -0.14412016 0.41867999
v -0.08804010 -0.14412016 0.42783349
v -0.08799630 -0.14412016 0.43697729
v -0.08792817 -0.14412016 0.45070754
v -0.08790383 -0.14412016 0.45528429
v -0.08843916 -0.13954067 0.45528429
v -0.08844889 -0.13498304 0.45528429
v -0.08849756 -0.10752788 0.45528429
v -0.08851216 -0.09836885 0.45528429
v -0.08768970 -0.13498304 0.45849238
v -0.08770917 -0.11208548 0.45850209
v -0.08007347 -0.13954067 0.41056512
v -0.03894094 -0.13954067 0.41048745
v -0.08768484 -0.13954067 0.45849238
v -0.08741717 -0.14412016 0.45816720
v -0.08464808 -0.14412016 0.45901170
v -0.08771890 -0.09836885 0.45851180
v -0.08007347 -0.14412016 0.45926409
v -0.07549886 -0.14412016 0.45926409
v -0.06634478 -0.14412016 0.45925923
v -0.05262096 -0.14412016 0.45924952
v -0.04347175 -0.14412016 0.45923981
v -0.03894094 -0.14412016 0.45923496
v -0.07549886 -0.13954067 0.46003091
v -0.07091939 -0.13498304 0.46004062
v -0.04347175 -0.11666499 0.46006004
v -0.03894094 -0.11670881 0.46005033
v -0.08778217 -0.10752788 0.41542822
v -0.08738797 -0.14412016 0.41138048
v -0.08007347 -0.14412016 0.41073013
v -0.08464808 -0.14412016 0.41084176
v -0.08709111 -0.14653045 0.41166199
v -0.08720304 -0.14663999 0.41410809
v -0.08717384 -0.14661809 0.44613079
v -0.08715438 -0.14659617 0.45528429
v -0.08723224 -0.14666190 0.41867999
v -0.08720304 -0.14663999 0.43241025
v -0.08707651 -0.14653045 0.45774981
v -0.03894094 -0.14412016 0.41059423
v -0.08464808 -0.14666190 0.45793423
v -0.08007347 -0.14672764 0.45803133
v -0.07091939 -0.14674955 0.45804586
v -0.05720043 -0.14677145 0.45806528
v -0.04347175 -0.14679338 0.45807985
v -0.03894094 -0.14679338 0.45808470
v -0.03894094 -0.13960639 0.45988532
v -0.06634478 -0.13954067 0.46000178
v -0.07091939 -0.13954067 0.46001634
v -0.06634478 -0.13498304 0.46003091
v -0.04347175 -0.12124450 0.46004062
v -0.03894094 -0.12128832 0.46002605
v -0.05720043 -0.13040354 0.46003091
v -0.07549886 -0.14670573 0.41147269
v -0.08007347 -0.14668381 0.41148240
v -0.08464808 -0.14663999 0.41153579
v -0.08464808 -0.14692484 0.41410809
v -0.08464808 -0.14699058 0.41867999
v -0.08464808 -0.14699058 0.42325674
v -0.08464808 -0.14696867 0.43241025
v -0.08464808 -0.14692484 0.45070754
v -0.08464808 -0.14690292 0.45528429
v -0.03894094 -0.14674955 0.41137077
v -0.04347175 -0.14677145 0.41139019
v -0.08007347 -0.14705631 0.45528429
v -0.03894094 -0.14718778 0.45528429
v -0.03894094 -0.13954067 0.45989018
v -0.04347175 -0.13954067 0.45990957
v -0.04804635 -0.13954067 0.45992899
v -0.04804635 -0.13498304 0.45996297
v -0.06177504 -0.13498304 0.46001634
v -0.03894094 -0.13502687 0.45992413
v -0.03894094 -0.14720968 0.41407897
v -0.08007347 -0.14703440 0.41410809
v -0.08007347 -0.14707823 0.41867999
v -0.08007347 -0.14707823 0.43697729
v -0.03894094 -0.14677145 0.41138048
v -0.05720043 -0.14714395 0.45070754
v -0.06634478 -0.14714395 0.43241025
v -0.03894094 -0.14727544 0.41867999
v -0.05720043 -0.14716588 0.44155403
v -0.04347175 -0.14718778 0.45070754
v -0.04347175 -0.14723161 0.43241025
v -0.03894094 -0.14725352 0.42783349
f 1 2 3
f 1 3 9
f 1 9 21
f 1 21 20
f 1 20 37
f 1 37 56
f 1 56 55
f 1 55 89
f 1 89 117
f 1 117 153
f 1 153 177
f 1 177 197
f 1 197 192
f 1 192 172
f 1 172 149
f 1 149 171
f 1 171 191
f 1 191 209
f 1 209 205
f 1 205 198
f 1 198 202
f 1 202 188
f 1 188 165
f 1 165 139
f 1 139 112
f 1 112 82
f 1 82 50
f 1 50 49
f 1 49 46
f 1 46 29
f 1 29 28
f 1 28 15
f 1 15 14
f 1 14 4
f 1 4 5
f 1 5 6
f 1 6 2
f 2 7 8
f 2 8 9
f 2 9 3
f 2 6 10
f 2 10 11
f 2 11 12
f 2 12 13
f 2 13 7
f 4 14 5
f 5 14 15
f 5 15 6
f 6 15 16
f 6 16 17
f 6 17 10
f 7 13 18
f 7 18 19
f 7 19 20
f 7 20 8
f 8 20 21
f 8 21 9
f 10 17 22
f 10 22 11
f 11 22 23
f 11 23 24
f 11 24 12
f 12 24 25
f 12 25 26
f 12 26 27
f 12 27 13
f 13 27 18
f 15 28 16
f 16 28 17
f 17 28 29
f 17 29 30
f 17 30 22
f 18 27 31
f 18 31 32
f 18 32 19
f 19 32 33
f 19 33 34
f 19 34 35
f 19 35 36
f 19 36 37
f 19 37 20
f 22 30 38
f 22 38 23
f 23 39 40
f 23 40 24
f 23 38 41
f 23 41 42
f 23 42 39
f 24 40 43
f 24 43 25
f 25 43 44
f 25 44 45
f 25 45 26
f 26 45 27
f 27 45 31
f 29 46 30
f 30 47 48
f 30 48 38
f 30 46 49
f 30 49 50
f 30 50 47
f 31 45 51
f 31 51 52
f 31 52 32
f 32 52 53
f 32 53 33
f 33 53 54
f 33 54 55
f 33 55 34
f 34 55 35
f 35 55 36
f 36 55 56
f 36 56 37
f 38 48 57
f 38 57 41
f 39 58 40
f 39 42 59
f 39 59 60
f 39 60 61
f 39 61 58
f 40 58 62
f 40 62 43
f 41 57 63
f 41 63 42
f 42 63 64
f 42 64 65
f 42 65 66
f 42 66 59
f 43 62 67
f 43 67 68
f 43 68 69
f 43 69 70
f 43 70 71
f 43 71 44
f 44 71 45
f 45 72 73
f 45 73 51
f 45 71 74
f 45 74 75
f 45 75 76
f 45 76 77
f 45 77 78
f 45 78 72
f 47 50 79
f 47 79 80
f 47 80 48
f 48 80 81
f 48 81 57
f 50 82 79
f 51 83 84
f 51 84 52
f 51 73 85
f 51 85 86
f 51 86 87
f 51 87 83
f 52 84 88
f 52 88 53
f 53 88 54
f 54 88 55
f 55 88 89
f 57 81 64
f 57 64 63
f 58 90 62
f 58 61 91
f 58 91 92
f 58 92 90
f 59 66 60
f 60 66 93
f 60 93 94
f 60 94 118
f 60 118 91
f 60 91 61
f 62 90 67
f 64 81 95
f 64 95 96
f 64 96 97
f 64 97 98
f 64 98 65
f 65 98 93
f 65 93 66
f 67 90 99
f 67 99 100
f 67 100 68
f 68 70 69
f 68 100 71
f 68 71 70
f 71 100 101
f 71 101 102
f 71 102 74
f 72 78 109
f 72 109 103
f 72 103 125
f 72 125 104
f 72 104 85
f 72 85 73
f 74 102 75
f 75 102 124
f 75 124 105
f 75 105 76
f 76 105 106
f 76 106 107
f 76 107 77
f 77 107 106
f 77 106 108
f 77 108 109
f 77 109 78
f 79 82 110
f 79 110 80
f 80 110 111
f 80 111 81
f 81 111 95
f 82 112 113
f 82 113 114
f 82 114 110
f 83 87 88
f 83 88 84
f 85 104 125
f 85 125 115
f 85 115 116
f 85 116 88
f 85 88 86
f 86 88 87
f 88 116 117
f 88 117 89
f 90 92 99
f 91 118 119
f 91 119 99
f 91 99 92
f 93 98 97
f 93 97 120
f 93 120 121
f 93 121 94
f 94 121 118
f 95 111 96
f 96 111 122
f 96 122 97
f 97 122 120
f 99 119 101
f 99 101 100
f 101 123 102
f 101 119 123
f 102 123 124
f 103 109 125
f 105 124 106
f 106 124 123
f 106 123 108
f 108 123 126
f 108 126 127
f 108 127 128
f 108 128 129
f 108 129 130
f 108 130 131
f 108 131 132
f 108 132 133
f 108 133 134
f 108 134 135
f 108 135 109
f 109 135 136
f 109 136 137
f 109 137 125
f 110 114 111
f 111 114 113
f 111 113 138
f 111 138 122
f 112 139 138
f 112 138 113
f 115 140 141
f 115 141 142
f 115 142 116
f 115 125 143
f 115 143 140
f 116 142 144
f 116 144 145
f 116 145 146
f 116 146 147
f 116 147 148
f 116 148 149
f 116 149 150
f 116 150 175
f 116 175 151
f 116 151 152
f 116 152 117
f 117 152 153
f 118 121 154
f 118 154 119
f 119 154 123
f 120 122 121
f 121 122 155
f 121 155 123
f 121 123 154
f 122 138 156
f 122 156 157
f 122 157 155
f 123 155 126
f 125 137 136
f 125 136 143
f 126 155 158
f 126 158 159
f 126 159 127
f 127 160 161
f 127 161 128
f 127 159 162
f 127 162 163
f 127 163 160
f 128 161 129
f 129 161 130
f 130 161 131
f 131 161 164
f 131 164 141
f 131 141 132
f 132 140 133
f 132 141 140
f 133 140 134
f 134 140 135
f 135 140 136
f 136 140 143
f 138 139 165
f 138 165 156
f 141 164 142
f 142 164 166
f 142 166 144
f 144 166 167
f 144 167 168
f 144 168 169
f 144 169 170
f 144 170 171
f 144 171 145
f 145 171 146
f 146 171 147
f 147 171 148
f 148 171 149
f 149 172 173
f 149 173 174
f 149 174 150
f 150 174 175
f 151 175 153
f 151 153 152
f 153 176 177
f 153 175 178
f 153 178 176
f 155 157 158
f 156 179 180
f 156 180 181
f 156 181 157
f 156 165 179
f 157 181 158
f 158 181 182
f 158 182 159
f 159 182 183
f 159 183 162
f 160 163 184
f 160 184 185
f 160 185 186
f 160 186 161
f 161 186 187
f 161 187 164
f 162 183 184
f 162 184 163
f 164 187 166
f 165 188 189
f 165 189 179
f 166 187 190
f 166 190 167
f 167 190 191
f 167 191 168
f 168 191 169
f 169 191 170
f 170 191 171
f 172 192 193
f 172 193 194
f 172 194 173
f 173 194 195
f 173 195 177
f 173 177 196
f 173 196 175
f 173 175 174
f 175 196 178
f 176 178 177
f 177 178 196
f 177 195 197
f 179 189 198
f 179 198 199
f 179 199 180
f 180 199 181
f 181 199 182
f 182 199 183
f 183 199 200
f 183 200 201
f 183 201 184
f 184 201 190
f 184 190 185
f 185 190 186
f 186 190 187
f 188 202 189
f 189 202 198
f 190 203 191
f 190 201 204
f 190 204 205
f 190 205 206
f 190 206 203
f 191 203 207
f 191 207 208
f 191 208 209
f 192 197 193
f 193 197 194
f 194 197 195
f 198 205 199
f 199 205 200
f 200 205 201
f 201 205 204
f 203 206 208
f 203 208 207
f 205 209 208
f 205 208 206

