# https://github.com/mikedh/trimesh
v -0.00008394 0.01418213 0.28539707
v -0.00008394 0.01418213 0.27751011
v 0.00229119 0.01418213 0.28539707
v 0.00229119 0.05719218 0.28484766
v -0.00008394 0.05482279 0.28487630
v -0.00008394 0.04907984 0.25993695
v 0.02184424 0.01418213 0.25999424
v 0.00503431 0.01418213 0.28538925
v 0.00686584 0.04346665 0.28501691
v 0.00686584 0.06634252 0.28472007
v 0.00229119 0.06634252 0.28472789
v -0.00008394 0.06397314 0.28475653
v -0.00008394 0.05091330 0.25946305
v 0.02517278 0.01418213 0.25898395
v -0.00008394 0.05261699 0.25902301
v 0.01144048 0.04346665 0.28500129
v 0.06176993 0.01418213 0.28503774
v 0.06176993 0.01601559 0.28503774
v 0.06176993 0.02059641 0.28503513
v 0.06176993 0.02517158 0.28502993
v 0.06176993 0.02974675 0.28499608
v 0.00686584 0.06943402 0.28419410
v 0.08006851 0.06634252 0.28443626
v 0.08006851 0.06924786 0.28405089
v -0.00008394 0.06943402 0.28419410
v -0.00008394 0.06783186 0.28447011
v -0.00008394 0.06634252 0.28472528
v 0.02974742 0.01418213 0.25879908
v -0.00008394 0.05719218 0.25897614
v 0.00686584 0.05261699 0.25887199
v 0.06634458 0.01418213 0.28499087
v 0.06634458 0.02059641 0.28498566
v 0.06634458 0.02517158 0.28498045
v 0.06634458 0.02974675 0.28495702
v 0.06634458 0.03432194 0.28491015
v 0.07549387 0.05261699 0.28463155
v 0.00686584 0.07095720 0.28140542
v 0.00229119 0.07096849 0.28140542
v 0.07549387 0.07077667 0.28140542
v 0.08006851 0.06176736 0.28449094
v 0.08289526 0.06634252 0.28406131
v 0.08270290 0.06904477 0.28393112
v 0.08006851 0.07072026 0.28140542
v -0.00008394 0.07017304 0.28285053
v 0.02059813 0.04346665 0.25881991
v 0.02974742 0.01601559 0.25879908
v 0.03157895 0.01418213 0.25879908
v -0.00008394 0.06176736 0.25895010
v -0.00008394 0.06634252 0.25892927
v 0.00686584 0.05719218 0.25887980
v 0.01601513 0.05261699 0.25883554
v 0.07091923 0.01418213 0.28493359
v 0.07549387 0.02059641 0.28486849
v 0.08006851 0.02517158 0.28480079
v 0.07091923 0.02974675 0.28489713
v 0.07549387 0.04804183 0.28467841
v 0.06176993 0.07179213 0.27683051
v 0.02974742 0.07181469 0.27683051
v 0.02517278 0.07180905 0.27683051
v -0.00008394 0.07096284 0.28140542
v 0.05719529 0.07180341 0.27683051
v 0.05262064 0.07180905 0.27683051
v 0.07549387 0.07169622 0.27683051
v 0.08006851 0.05719218 0.28453781
v 0.08307924 0.03889711 0.28418108
v 0.08457625 0.02974675 0.28140542
v 0.08447589 0.03889711 0.28140542
v 0.08427518 0.05719218 0.28140542
v 0.08416645 0.06634252 0.28140542
v 0.08006851 0.04804183 0.28461853
v 0.08006851 0.03889711 0.28469664
v 0.08006851 0.02974675 0.28477475
v 0.08324651 0.06964840 0.28140542
v 0.08006851 0.07158338 0.27683051
v 0.02974742 0.03432194 0.25880169
v 0.04803764 0.03432194 0.25880169
v 0.04987753 0.01418213 0.25880169
v -0.00008394 0.06810265 0.25941619
v 0.00686584 0.06634252 0.25890844
v 0.01601513 0.06634252 0.25889803
v 0.05262064 0.06176736 0.25890584
v 0.05719529 0.03889711 0.25880950
v 0.04803764 0.03889711 0.25880950
v 0.08006851 0.01418213 0.28481641
v 0.08006851 0.02059641 0.28480860
v 0.08315451 0.02517158 0.28423316
v 0.08313779 0.02974675 0.28422014
v 0.06176993 0.07176956 0.27225561
v 0.06634458 0.07174698 0.27225561
v 0.02517278 0.07176956 0.27225561
v -0.00008394 0.07174136 0.27225561
v 0.05719529 0.07177521 0.27225561
v 0.04346299 0.07177521 0.27225561
v -0.00008394 0.07174136 0.27683051
v -0.00008394 0.07134082 0.27920259
v 0.08006851 0.07157212 0.27225561
v 0.07549387 0.07167366 0.27225561
v 0.08460134 0.02517158 0.28140542
v 0.08529548 0.02974675 0.27683051
v 0.08521185 0.03889711 0.27683051
v 0.08500277 0.06176736 0.27683051
v 0.08495259 0.06634252 0.27683051
v 0.08364794 0.07006022 0.27683051
v 0.08367303 0.07006022 0.27225561
v 0.05262064 0.03432194 0.25880429
v 0.05262064 0.01418213 0.25880429
v -0.00008394 0.06973866 0.25986925
v 0.00686584 0.06973866 0.25986665
v 0.01144048 0.06973301 0.25986404
v 0.01601513 0.06973301 0.25986404
v 0.02059813 0.06973866 0.25986665
v 0.05262064 0.06974993 0.25987706
v 0.05262064 0.06634252 0.25892667
v 0.05719529 0.06634252 0.25893448
v 0.06176993 0.03889711 0.25882512
v 0.08192513 0.01418213 0.28447271
v 0.08316288 0.02059641 0.28423576
v 0.07091923 0.07160032 0.26768070
v 0.06634458 0.07161724 0.26768070
v 0.07549387 0.07157212 0.26768070
v 0.02974742 0.07159468 0.26768070
v -0.00008394 0.07156647 0.26768070
v 0.06176993 0.07162289 0.26768070
v 0.08006851 0.07148749 0.26768070
v 0.08367303 0.07002637 0.26768070
v 0.08316288 0.01418213 0.28424097
v 0.08460134 0.01418213 0.28140542
v 0.08531221 0.02517158 0.27683051
v 0.08532057 0.03432194 0.27225561
v 0.08528712 0.03889711 0.27225561
v 0.08524530 0.04346665 0.27225561
v 0.08511149 0.05719218 0.27225561
v 0.08501950 0.06634252 0.27225561
v 0.08501113 0.06634252 0.26768070
v 0.05445217 0.01418213 0.25881210
v -0.00008394 0.07114336 0.26310579
v 0.06176993 0.07119414 0.26310579
v 0.05719529 0.06975558 0.25988227
v 0.06176993 0.06974993 0.25989269
v 0.06176993 0.06634252 0.25895531
v 0.06176993 0.04804183 0.25886678
v 0.06634458 0.03889711 0.25885897
v 0.07549387 0.01601559 0.25894490
v 0.07275075 0.01418213 0.25892667
v 0.07091923 0.01418213 0.25891365
v 0.06634458 0.01418213 0.25888241
v 0.05902682 0.01418213 0.25883554
v 0.05719529 0.01418213 0.25882512
v 0.07549387 0.07114901 0.26310579
v 0.06634458 0.07118286 0.26310579
v 0.08006851 0.07109258 0.26310579
v -0.00008394 0.07136338 0.26547787
v 0.08352249 0.06984584 0.26310579
v 0.08531221 0.01418213 0.27683051
v 0.08535402 0.02517158 0.27225561
v 0.08520349 0.03889711 0.26768070
v 0.08518676 0.04346665 0.26768070
v 0.08513658 0.05261699 0.26768070
v 0.08510313 0.05719218 0.26768070
v 0.08470170 0.06634252 0.26310579
v 0.06634458 0.06973866 0.25991091
v 0.07549387 0.06971045 0.25994997
v 0.08006851 0.06969917 0.25997080
v 0.06634458 0.06634252 0.25899176
v 0.06634458 0.05261699 0.25892407
v 0.06634458 0.04346665 0.25887980
v 0.07091923 0.03889711 0.25889803
v 0.08006851 0.03432194 0.25897093
v 0.08006851 0.02517158 0.25897614
v 0.08006851 0.01601559 0.25898395
v 0.07732539 0.01418213 0.25896312
v 0.07549387 0.01418213 0.25894750
v 0.07091923 0.06972736 0.25993174
v 0.08303743 0.06933812 0.26025982
v 0.08532893 0.01418213 0.27499742
v 0.08534566 0.01418213 0.27225561
v 0.08530385 0.01418213 0.27042512
v 0.08523694 0.01418213 0.26768070
v 0.08523694 0.01601559 0.26768070
v 0.08522858 0.02517158 0.26768070
v 0.08522021 0.03432194 0.26768070
v 0.08479369 0.05261699 0.26310579
v 0.08476860 0.05719218 0.26310579
v 0.08338868 0.06634252 0.25997601
v 0.08006851 0.06634252 0.25911154
v 0.08006851 0.04346665 0.25899958
v 0.08006851 0.03889711 0.25897875
v 0.08345558 0.03889711 0.25990831
v 0.08345558 0.03432194 0.25990310
v 0.08346395 0.01418213 0.25991091
v 0.08143170 0.01418213 0.25935630
v 0.08006851 0.01418213 0.25898656
v 0.08508640 0.01418213 0.26584761
v 0.08484387 0.02974675 0.26310579
v 0.08482714 0.03889711 0.26310579
v 0.08481042 0.04804183 0.26310579
v 0.08339704 0.06176736 0.25996299
v 0.08343050 0.04804183 0.25992914
v 0.08485223 0.02059641 0.26310579
v 0.08346395 0.01601559 0.25991091
v 0.08485223 0.01418213 0.26310579
f 1 2 7
f 1 7 14
f 1 14 28
f 1 28 47
f 1 47 77
f 1 77 106
f 1 106 135
f 1 135 148
f 1 148 147
f 1 147 146
f 1 146 145
f 1 145 144
f 1 144 172
f 1 172 171
f 1 171 192
f 1 192 191
f 1 191 190
f 1 190 201
f 1 201 193
f 1 193 178
f 1 178 177
f 1 177 176
f 1 176 175
f 1 175 154
f 1 154 127
f 1 127 126
f 1 126 116
f 1 116 84
f 1 84 52
f 1 52 31
f 1 31 17
f 1 17 8
f 1 8 3
f 1 3 4
f 1 4 5
f 1 5 12
f 1 12 27
f 1 27 26
f 1 26 25
f 1 25 44
f 1 44 60
f 1 60 95
f 1 95 94
f 1 94 91
f 1 91 122
f 1 122 152
f 1 152 136
f 1 136 107
f 1 107 78
f 1 78 49
f 1 49 48
f 1 48 29
f 1 29 15
f 1 15 13
f 1 13 6
f 1 6 2
f 2 6 7
f 3 8 9
f 3 9 4
f 4 9 10
f 4 10 11
f 4 11 12
f 4 12 5
f 6 13 7
f 7 13 15
f 7 15 14
f 8 16 9
f 8 17 18
f 8 18 19
f 8 19 20
f 8 20 21
f 8 21 16
f 9 16 10
f 10 22 11
f 10 16 21
f 10 21 23
f 10 23 24
f 10 24 22
f 11 25 26
f 11 26 27
f 11 27 12
f 11 22 25
f 14 15 28
f 15 29 30
f 15 30 28
f 17 31 18
f 18 31 19
f 19 31 32
f 19 32 33
f 19 33 20
f 20 33 34
f 20 34 21
f 21 34 35
f 21 35 36
f 21 36 23
f 22 37 38
f 22 38 25
f 22 24 39
f 22 39 37
f 23 36 40
f 23 40 41
f 23 41 42
f 23 42 24
f 24 42 43
f 24 43 39
f 25 38 44
f 28 45 46
f 28 46 47
f 28 30 45
f 29 48 30
f 30 48 49
f 30 49 50
f 30 50 51
f 30 51 45
f 31 52 32
f 32 52 84
f 32 84 53
f 32 53 33
f 33 53 85
f 33 85 54
f 33 54 55
f 33 55 34
f 34 55 70
f 34 70 56
f 34 56 36
f 34 36 35
f 36 56 64
f 36 64 40
f 37 39 57
f 37 57 61
f 37 61 38
f 38 58 59
f 38 59 60
f 38 60 44
f 38 61 62
f 38 62 58
f 39 43 63
f 39 63 57
f 40 64 41
f 41 65 66
f 41 66 67
f 41 67 68
f 41 68 69
f 41 69 42
f 41 64 70
f 41 70 71
f 41 71 72
f 41 72 54
f 41 54 65
f 42 69 73
f 42 73 43
f 43 73 74
f 43 74 63
f 45 51 75
f 45 75 46
f 46 75 76
f 46 76 47
f 47 76 77
f 49 78 79
f 49 79 51
f 49 51 50
f 51 79 80
f 51 80 113
f 51 113 81
f 51 81 82
f 51 82 83
f 51 83 75
f 53 84 85
f 54 85 86
f 54 86 87
f 54 87 65
f 54 72 55
f 55 72 71
f 55 71 70
f 56 70 64
f 57 88 61
f 57 63 89
f 57 89 88
f 58 90 91
f 58 91 59
f 58 62 92
f 58 92 93
f 58 93 90
f 59 94 95
f 59 95 60
f 59 91 94
f 61 88 92
f 61 92 62
f 63 74 96
f 63 96 97
f 63 97 89
f 65 87 66
f 66 87 98
f 66 98 99
f 66 99 100
f 66 100 101
f 66 101 102
f 66 102 67
f 67 102 68
f 68 102 69
f 69 102 73
f 73 102 103
f 73 103 74
f 74 103 104
f 74 104 96
f 75 83 82
f 75 82 76
f 76 82 105
f 76 105 77
f 77 105 106
f 78 107 79
f 79 107 80
f 80 107 108
f 80 108 109
f 80 109 110
f 80 110 111
f 80 111 112
f 80 112 113
f 81 113 82
f 82 113 114
f 82 114 115
f 82 115 106
f 82 106 105
f 84 116 86
f 84 86 85
f 86 116 117
f 86 117 98
f 86 98 87
f 88 89 118
f 88 118 119
f 88 119 123
f 88 123 92
f 89 97 120
f 89 120 118
f 90 121 122
f 90 122 91
f 90 93 123
f 90 123 121
f 92 123 93
f 96 124 97
f 96 104 125
f 96 125 124
f 97 124 120
f 98 117 126
f 98 126 127
f 98 127 154
f 98 154 128
f 98 128 99
f 99 128 155
f 99 155 129
f 99 129 130
f 99 130 100
f 100 130 101
f 101 130 131
f 101 131 132
f 101 132 133
f 101 133 102
f 102 133 103
f 103 133 104
f 104 133 134
f 104 134 125
f 106 115 135
f 107 136 137
f 107 137 138
f 107 138 108
f 108 111 110
f 108 110 109
f 108 138 112
f 108 112 111
f 112 138 113
f 113 138 114
f 114 138 139
f 114 139 140
f 114 140 141
f 114 141 115
f 115 141 142
f 115 142 143
f 115 143 144
f 115 144 145
f 115 145 146
f 115 146 147
f 115 147 148
f 115 148 135
f 116 126 117
f 118 120 149
f 118 149 150
f 118 150 119
f 119 150 137
f 119 137 123
f 120 124 151
f 120 151 149
f 121 136 152
f 121 152 122
f 121 123 136
f 123 137 136
f 124 125 153
f 124 153 151
f 125 134 153
f 128 154 155
f 129 155 181
f 129 181 156
f 129 156 157
f 129 157 158
f 129 158 159
f 129 159 130
f 130 159 131
f 131 159 132
f 132 159 134
f 132 134 133
f 134 159 160
f 134 160 153
f 137 150 139
f 137 139 138
f 139 150 149
f 139 149 161
f 139 161 140
f 140 161 162
f 140 162 163
f 140 163 164
f 140 164 165
f 140 165 166
f 140 166 141
f 141 166 142
f 142 166 167
f 142 167 168
f 142 168 143
f 143 168 169
f 143 169 170
f 143 170 171
f 143 171 172
f 143 172 144
f 149 151 163
f 149 163 173
f 149 173 161
f 151 153 174
f 151 174 163
f 153 160 174
f 154 175 155
f 155 175 176
f 155 176 177
f 155 177 178
f 155 178 179
f 155 179 180
f 155 180 181
f 156 181 196
f 156 196 182
f 156 182 157
f 157 182 183
f 157 183 158
f 158 183 160
f 158 160 159
f 160 184 174
f 160 183 184
f 161 173 163
f 161 163 162
f 163 174 185
f 163 185 164
f 164 185 165
f 165 185 186
f 165 186 166
f 166 186 167
f 167 186 187
f 167 187 168
f 168 187 188
f 168 188 189
f 168 189 190
f 168 190 169
f 169 190 191
f 169 191 170
f 170 192 171
f 170 191 192
f 174 184 185
f 178 193 179
f 179 193 180
f 180 193 181
f 181 193 194
f 181 194 195
f 181 195 196
f 182 196 184
f 182 184 183
f 184 196 188
f 184 188 197
f 184 197 187
f 184 187 186
f 184 186 185
f 187 197 198
f 187 198 188
f 188 198 197
f 188 196 195
f 188 195 194
f 188 194 199
f 188 199 189
f 189 199 200
f 189 200 190
f 190 200 199
f 190 199 201
f 193 201 199
f 193 199 194

