# https://github.com/mikedh/trimesh
v -0.05719587 -0.07984459 0.32716609
v -0.05719587 -0.08020995 0.32259136
v -0.06176926 -0.08058048 0.32259136
v -0.06176926 -0.08027171 0.32716609
v -0.06176926 -0.08025627 0.33173566
v -0.05719587 -0.07986003 0.33173566
v -0.05262497 -0.08032831 0.32716609
v -0.05262497 -0.08072456 0.32259136
v -0.05262497 -0.08175378 0.31919771
v -0.05719587 -0.08146560 0.31872321
v -0.06176926 -0.08161998 0.31897077
v -0.06462171 -0.08166115 0.32259136
v -0.06438442 -0.08196992 0.31957421
v -0.06470663 -0.08153764 0.32716609
v -0.06472411 -0.08151706 0.33173566
v -0.06448683 -0.08184126 0.33631039
v -0.06176926 -0.08100759 0.33631039
v -0.05719587 -0.08068339 0.33631039
v -0.05262497 -0.08037463 0.33173566
v -0.04940786 -0.08159426 0.32716609
v -0.04967262 -0.08181039 0.32259136
v -0.05008975 -0.08214489 0.31988366
v -0.05030455 -0.08691530 0.31112102
v -0.05262497 -0.08304544 0.31690777
v -0.05262497 -0.08502668 0.31344191
v -0.05719587 -0.08277271 0.31643843
v -0.05719587 -0.08450178 0.31344191
v -0.06176926 -0.08653964 0.31066716
v -0.06422206 -0.08676091 0.31093535
v -0.06553089 -0.08465102 0.32259136
v -0.06566826 -0.08465102 0.32716609
v -0.06452429 -0.08615368 0.31344191
v -0.06486649 -0.08458927 0.31803210
v -0.06568325 -0.08465102 0.33173566
v -0.06536854 -0.08465102 0.33631039
v -0.06472162 -0.08472821 0.34056019
v -0.06417710 -0.08224780 0.33881694
v -0.06176926 -0.08206769 0.33911608
v -0.05719587 -0.08192874 0.33932754
v -0.05346422 -0.08206769 0.33909545
v -0.05221284 -0.08140385 0.33673330
v -0.04978502 -0.08188757 0.33549033
v -0.04947280 -0.08162513 0.33173566
v -0.04750706 -0.08465102 0.33173566
v -0.04744212 -0.08465102 0.32716609
v -0.04772437 -0.08465102 0.32259136
v -0.04888582 -0.08457898 0.31822294
v -0.04965014 -0.08625659 0.31344191
v -0.04953274 -0.08923102 0.31028550
v -0.04980750 -0.09523134 0.30608727
v -0.05262497 -0.09206136 0.30690216
v -0.05262497 -0.08923102 0.30884139
v -0.05262497 -0.08664255 0.31080125
v -0.04789172 -0.08923102 0.31344191
v -0.05719587 -0.08638524 0.31050212
v -0.05719587 -0.08923102 0.30826891
v -0.06176926 -0.08923102 0.30866088
v -0.06176926 -0.09186581 0.30685574
v -0.06444936 -0.09497404 0.30600991
v -0.06454677 -0.08923102 0.31009983
v -0.06537103 -0.08923102 0.31344191
v -0.06580564 -0.08923102 0.31801663
v -0.06595301 -0.08923102 0.32259136
v -0.06600796 -0.08923102 0.32716609
v -0.06600296 -0.08923102 0.33173566
v -0.06592554 -0.08923102 0.33631039
v -0.06574569 -0.08923102 0.34088511
v -0.06495890 -0.08894800 0.34574866
v -0.06450181 -0.08630806 0.34441286
v -0.06176926 -0.08717775 0.34751253
v -0.05719587 -0.08558760 0.34538764
v -0.05719587 -0.08330275 0.34161748
v -0.05041695 -0.08238675 0.33854359
v -0.05719587 -0.08701307 0.34767757
v -0.05262497 -0.08588093 0.34493892
v -0.04850866 -0.08420846 0.33673330
v -0.04051583 -0.09778895 0.33173566
v -0.04051583 -0.09748018 0.32910532
v -0.04051583 -0.09734123 0.32716609
v -0.04051583 -0.09893137 0.32300912
v -0.04861107 -0.09374413 0.30865056
v -0.04910563 -0.09838074 0.30542196
v -0.05262497 -0.09838074 0.30374576
v -0.05262497 -0.09434622 0.30555605
v -0.05719587 -0.09388822 0.30527754
v -0.05719587 -0.09160852 0.30662881
v -0.04051583 -0.10085600 0.32152375
v -0.06176926 -0.09415066 0.30550447
v -0.06176926 -0.09838074 0.30373544
v -0.06471412 -0.09838074 0.30541163
v -0.06566077 -0.09838074 0.30886718
v -0.06494392 -0.09358975 0.30861447
v -0.06585560 -0.09380588 0.31344191
v -0.06602544 -0.09380588 0.31801663
v -0.06603044 -0.09380588 0.32259136
v -0.06603044 -0.09380588 0.33631039
v -0.06599547 -0.09380588 0.34088511
v -0.06575069 -0.09380588 0.34545984
v -0.06547594 -0.09692954 0.34859046
v -0.06534855 -0.09838074 0.35003973
v -0.06453179 -0.09075427 0.34859046
v -0.06450681 -0.09028082 0.34839447
v -0.06415462 -0.09591577 0.35242250
v -0.06176926 -0.08946774 0.34893601
v -0.05719587 -0.08929793 0.34916294
v -0.05262497 -0.08741961 0.34722887
v -0.04984496 -0.08642641 0.34406730
v -0.04907565 -0.08543323 0.34088511
v -0.05262247 -0.08970446 0.34890507
v -0.04712241 -0.08923102 0.34088511
v -0.04051583 -0.09843220 0.33300957
v -0.04714239 -0.09838074 0.30886718
v -0.04863855 -0.10295560 0.30496293
v -0.05262497 -0.10295560 0.30286898
v -0.05719587 -0.09838074 0.30323000
v -0.04051583 -0.10409288 0.31957421
v -0.05719587 -0.10295560 0.30240480
v -0.06176926 -0.10295560 0.30296697
v -0.06479155 -0.10295560 0.30505061
v -0.06578067 -0.10295560 0.30886718
v -0.06598798 -0.09838074 0.31344191
v -0.06603044 -0.10295560 0.31344191
v -0.06603294 -0.10295560 0.32716609
v -0.06603044 -0.09838074 0.34088511
v -0.06603294 -0.10295560 0.33173566
v -0.06599547 -0.10295560 0.34545984
v -0.06592554 -0.09838074 0.34545984
v -0.06568325 -0.10296076 0.35003973
v -0.06473161 -0.10296076 0.35318582
v -0.06446934 -0.09838074 0.35284026
v -0.06470913 -0.09415582 0.34997267
v -0.06176926 -0.09564303 0.35257207
v -0.06176926 -0.09335304 0.35122595
v -0.06176926 -0.09838074 0.35368094
v -0.05719587 -0.09316262 0.35144773
v -0.04974505 -0.09056900 0.34833774
v -0.04890331 -0.08912296 0.34554236
v -0.05376644 -0.09566361 0.35255144
v -0.05239517 -0.09400659 0.35135489
v -0.05071668 -0.09629658 0.35222136
v -0.04051583 -0.09959006 0.33510868
v -0.04858110 -0.10752531 0.30486494
v -0.05262497 -0.10752531 0.30269878
v -0.04051583 -0.10688206 0.31953295
v -0.05719587 -0.10752531 0.30226039
v -0.06176926 -0.10752531 0.30281740
v -0.06479905 -0.10752531 0.30496809
v -0.06578816 -0.10752531 0.30886718
v -0.06603044 -0.10752531 0.31344191
v -0.06603294 -0.10752531 0.32716609
v -0.06603044 -0.11210532 0.34088511
v -0.06603294 -0.10752531 0.33173566
v -0.06599547 -0.10752531 0.34545984
v -0.06578316 -0.10296076 0.34859046
v -0.06567326 -0.10752531 0.35003973
v -0.06577567 -0.10752531 0.34859046
v -0.06472411 -0.10752531 0.35314455
v -0.06176926 -0.10296076 0.35448035
v -0.05719587 -0.09545263 0.35267006
v -0.05719587 -0.09838074 0.35402134
v -0.05719587 -0.10296076 0.35494969
v -0.04705746 -0.09380588 0.34545984
v -0.04970259 -0.09934820 0.35290215
v -0.04901071 -0.09380588 0.34926093
v -0.05239517 -0.09804624 0.35335602
v -0.04051583 -0.10295560 0.33698086
v -0.04888083 -0.11210532 0.30517439
v -0.05719587 -0.11210532 0.30279161
v -0.05262497 -0.11210532 0.30327642
v -0.04051583 -0.10829208 0.31981145
v -0.06176926 -0.11210532 0.30335378
v -0.06473660 -0.11210532 0.30524144
v -0.06571323 -0.11210532 0.30886718
v -0.06602295 -0.11210532 0.31344191
v -0.06603044 -0.11667503 0.31801663
v -0.06603044 -0.12125504 0.32259136
v -0.06600796 -0.11667503 0.34088511
v -0.06603044 -0.12125504 0.33173566
v -0.06594802 -0.11210532 0.34545984
v -0.06558085 -0.11210017 0.35003973
v -0.06467416 -0.11210017 0.35305687
v -0.06569824 -0.11210532 0.34859046
v -0.06176926 -0.10752531 0.35434626
v -0.05262247 -0.10296076 0.35448551
v -0.05719587 -0.10752531 0.35475370
v -0.05262247 -0.10752531 0.35429469
v -0.04846620 -0.09804624 0.35043686
v -0.04939537 -0.10296076 0.35316003
v -0.04743213 -0.10296076 0.35003973
v -0.04051583 -0.10752531 0.33743988
v -0.04692009 -0.11210532 0.30886718
v -0.04835630 -0.11708157 0.30843395
v -0.04958520 -0.11583623 0.30588097
v -0.05719587 -0.11667503 0.30455033
v -0.06176926 -0.11667503 0.30497841
v -0.05048189 -0.11888270 0.30661850
v -0.05225530 -0.11708157 0.30534975
v -0.04051583 -0.11231631 0.32245726
v -0.04723730 -0.12125504 0.31344191
v -0.06414963 -0.11916058 0.30647925
v -0.06443188 -0.11667503 0.30599444
v -0.06530110 -0.11667503 0.30886718
v -0.06556586 -0.12125504 0.31344191
v -0.06591304 -0.11667503 0.31344191
v -0.06591304 -0.12125504 0.31801663
v -0.06569074 -0.12582476 0.32259136
v -0.06575819 -0.12582476 0.32716609
v -0.06578816 -0.12582476 0.33173566
v -0.06598048 -0.12125504 0.33631039
v -0.06586559 -0.12125504 0.34088511
v -0.06581813 -0.11667503 0.34545984
v -0.06492393 -0.11668533 0.35011193
v -0.06443937 -0.11516723 0.35276806
v -0.06532358 -0.12125504 0.34545984
v -0.06176926 -0.11210017 0.35409870
v -0.04947280 -0.10752531 0.35306719
v -0.05719587 -0.11210017 0.35443393
v -0.05262247 -0.11210017 0.35395944
v -0.04967761 -0.11210017 0.35290215
v -0.04750956 -0.10752531 0.35003973
v -0.04051583 -0.10923381 0.33690866
v -0.04772936 -0.11210017 0.35003973
v -0.04910563 -0.12125504 0.30968723
v -0.05352416 -0.11954139 0.30628842
v -0.05719587 -0.11981414 0.30613885
v -0.06176926 -0.11953625 0.30628842
v -0.05225530 -0.12114183 0.30759843
v -0.04993738 -0.12393614 0.31068263
v -0.04051583 -0.11366458 0.32398905
v -0.04915309 -0.12493963 0.31344191
v -0.04832133 -0.12625702 0.31760919
v -0.06176926 -0.12181596 0.30775316
v -0.06438692 -0.12403392 0.31057948
v -0.06462171 -0.12091025 0.30898065
v -0.06460922 -0.12566523 0.31381325
v -0.06530110 -0.12582476 0.31801663
v -0.06470663 -0.12932922 0.32259136
v -0.06477407 -0.12962256 0.32716609
v -0.06479905 -0.12976150 0.33173566
v -0.06566077 -0.12582476 0.33631039
v -0.06445685 -0.12125504 0.34844604
v -0.06176926 -0.11574875 0.35312909
v -0.06410467 -0.12361195 0.34779620
v -0.06497389 -0.12614381 0.34116362
v -0.06449182 -0.12455367 0.34545984
v -0.05719587 -0.11597001 0.35327349
v -0.05262247 -0.11561494 0.35303625
v -0.04998734 -0.11495109 0.35263912
v -0.04051583 -0.11171423 0.33576369
v -0.04888582 -0.11655666 0.35010676
v -0.05719587 -0.12210928 0.30749012
v -0.05262497 -0.12442502 0.31011014
v -0.05051436 -0.12805815 0.31580921
v -0.04051583 -0.11429755 0.32529390
v -0.04946531 -0.12893813 0.31885731
v -0.04694756 -0.12582476 0.32259136
v -0.06176926 -0.12450736 0.31004310
v -0.06414214 -0.12821253 0.31558228
v -0.06443188 -0.12872714 0.31801663
v -0.06176926 -0.13117666 0.32259136
v -0.06176926 -0.13169127 0.32716609
v -0.06176926 -0.13190742 0.33173566
v -0.06472411 -0.12928807 0.33631039
v -0.05719587 -0.11826001 0.35185517
v -0.06176926 -0.12378176 0.34791998
v -0.06445685 -0.12861392 0.33981750
v -0.06176926 -0.12792950 0.34293265
v -0.06176926 -0.12588136 0.34545984
v -0.05262247 -0.11789980 0.35160761
v -0.04955273 -0.12030816 0.34862140
v -0.05079661 -0.12336493 0.34762084
v -0.04051583 -0.11453427 0.33223078
v -0.04843873 -0.12160497 0.34584149
v -0.04926548 -0.12474408 0.34457275
v -0.04954024 -0.12032359 0.34859046
v -0.05719587 -0.12473378 0.30978007
v -0.05227528 -0.12696718 0.31362757
v -0.05355913 -0.12841837 0.31528314
v -0.05719587 -0.12702379 0.31276111
v -0.05227528 -0.12949390 0.31760919
v -0.04051583 -0.11524957 0.32739817
v -0.04891330 -0.12947847 0.32259136
v -0.05262497 -0.13133620 0.32259136
v -0.06176926 -0.12679736 0.31298805
v -0.06176926 -0.12841837 0.31528314
v -0.06176926 -0.12983354 0.31801663
v -0.05719587 -0.13182508 0.32259136
v -0.05719587 -0.13224706 0.32716609
v -0.05719587 -0.13241687 0.33173566
v -0.06176926 -0.13087819 0.33631039
v -0.06018319 -0.12290693 0.34859046
v -0.05719587 -0.12124990 0.34985405
v -0.05384138 -0.12382293 0.34795092
v -0.05719587 -0.12622615 0.34545984
v -0.05719587 -0.12395158 0.34803860
v -0.06176926 -0.12901018 0.34064271
v -0.05719587 -0.12809931 0.34314411
v -0.05308206 -0.12261875 0.34859046
v -0.05185566 -0.12223279 0.34859046
v -0.05244263 -0.12534618 0.34584149
v -0.05262497 -0.12786259 0.34264899
v -0.04051583 -0.11521870 0.33079183
v -0.04868350 -0.12608720 0.34093669
v -0.04731723 -0.12582476 0.33631039
v -0.04994737 -0.12847498 0.33944100
v -0.05719587 -0.12857275 0.31505106
v -0.05719587 -0.13032242 0.31801663
v -0.04051583 -0.11524957 0.32899185
v -0.04872847 -0.12980266 0.33173566
v -0.04873346 -0.12971004 0.32716609
v -0.05262497 -0.13177362 0.32716609
v -0.05262497 -0.13195372 0.33173566
v -0.05719587 -0.13130017 0.33631039
v -0.05262497 -0.13082160 0.33631039
v -0.04927298 -0.12921601 0.33631039
f 1 2 3
f 1 3 4
f 1 4 5
f 1 5 6
f 1 6 7
f 1 7 2
f 2 7 8
f 2 8 9
f 2 9 10
f 2 10 11
f 2 11 3
f 3 12 4
f 3 11 13
f 3 13 12
f 4 12 14
f 4 14 15
f 4 15 5
f 5 15 16
f 5 16 17
f 5 17 6
f 6 17 18
f 6 18 19
f 6 19 7
f 7 19 20
f 7 20 21
f 7 21 8
f 8 21 22
f 8 22 9
f 9 22 23
f 9 23 24
f 9 24 10
f 10 24 25
f 10 25 26
f 10 26 11
f 11 26 27
f 11 27 28
f 11 28 29
f 11 29 13
f 12 30 31
f 12 31 14
f 12 13 30
f 13 29 32
f 13 32 33
f 13 33 30
f 14 31 15
f 15 31 34
f 15 34 35
f 15 35 16
f 16 35 36
f 16 36 37
f 16 37 17
f 17 37 38
f 17 38 18
f 18 38 39
f 18 39 40
f 18 40 41
f 18 41 19
f 19 41 42
f 19 42 43
f 19 43 20
f 20 43 44
f 20 44 45
f 20 45 46
f 20 46 21
f 21 46 22
f 22 46 47
f 22 47 48
f 22 48 23
f 23 49 50
f 23 50 51
f 23 51 52
f 23 52 53
f 23 53 25
f 23 25 24
f 23 48 54
f 23 54 49
f 25 53 27
f 25 27 26
f 27 53 55
f 27 55 28
f 28 55 56
f 28 56 57
f 28 57 29
f 29 57 58
f 29 58 59
f 29 59 60
f 29 60 61
f 29 61 32
f 30 33 61
f 30 61 62
f 30 62 63
f 30 63 31
f 31 63 64
f 31 64 34
f 32 61 33
f 34 65 66
f 34 66 67
f 34 67 35
f 34 64 65
f 35 67 68
f 35 68 36
f 36 68 69
f 36 69 37
f 37 69 70
f 37 70 38
f 38 70 71
f 38 71 72
f 38 72 39
f 39 72 40
f 40 73 41
f 40 72 71
f 40 71 74
f 40 74 75
f 40 75 73
f 41 73 42
f 42 44 43
f 42 73 76
f 42 76 44
f 44 76 77
f 44 77 78
f 44 78 79
f 44 79 45
f 45 79 46
f 46 80 47
f 46 79 80
f 47 80 54
f 47 54 48
f 49 54 81
f 49 81 50
f 50 82 83
f 50 83 84
f 50 84 51
f 50 81 82
f 51 84 85
f 51 85 86
f 51 86 52
f 52 86 56
f 52 56 53
f 53 56 55
f 54 80 87
f 54 87 81
f 56 86 57
f 57 86 58
f 58 86 85
f 58 85 88
f 58 88 59
f 59 88 89
f 59 89 90
f 59 90 91
f 59 91 92
f 59 92 60
f 60 92 61
f 61 92 91
f 61 91 93
f 61 93 62
f 62 94 63
f 62 93 94
f 63 94 64
f 64 94 95
f 64 95 96
f 64 96 65
f 65 96 97
f 65 97 66
f 66 97 67
f 67 97 98
f 67 98 68
f 68 99 100
f 68 100 101
f 68 101 102
f 68 102 69
f 68 98 99
f 69 102 70
f 70 74 71
f 70 102 103
f 70 103 104
f 70 104 105
f 70 105 74
f 73 75 106
f 73 106 107
f 73 107 108
f 73 108 76
f 74 106 75
f 74 105 109
f 74 109 106
f 76 108 110
f 76 110 111
f 76 111 77
f 77 111 141
f 77 141 166
f 77 166 190
f 77 190 221
f 77 221 249
f 77 249 272
f 77 272 302
f 77 302 308
f 77 308 281
f 77 281 254
f 77 254 229
f 77 229 198
f 77 198 170
f 77 170 144
f 77 144 116
f 77 116 87
f 77 87 80
f 77 80 79
f 77 79 78
f 81 87 112
f 81 112 82
f 82 112 113
f 82 113 114
f 82 114 83
f 83 114 115
f 83 115 84
f 84 115 85
f 85 115 88
f 87 116 112
f 88 115 89
f 89 115 117
f 89 117 118
f 89 118 90
f 90 118 119
f 90 119 91
f 91 120 121
f 91 121 93
f 91 119 120
f 93 121 94
f 94 121 122
f 94 122 95
f 95 122 123
f 95 123 125
f 95 125 96
f 96 124 97
f 96 125 124
f 97 124 126
f 97 126 127
f 97 127 98
f 98 127 128
f 98 128 99
f 99 128 100
f 100 128 129
f 100 129 130
f 100 130 131
f 100 131 101
f 101 131 103
f 101 103 102
f 103 132 133
f 103 133 104
f 103 131 130
f 103 130 134
f 103 134 132
f 104 133 135
f 104 135 105
f 105 135 109
f 106 136 107
f 106 109 136
f 107 136 137
f 107 137 108
f 108 137 110
f 109 135 138
f 109 138 139
f 109 139 140
f 109 140 136
f 110 137 141
f 110 141 111
f 112 116 113
f 113 142 143
f 113 143 114
f 113 116 142
f 114 143 117
f 114 117 115
f 116 144 142
f 117 145 146
f 117 146 118
f 117 143 145
f 118 146 119
f 119 146 147
f 119 147 120
f 120 148 122
f 120 122 121
f 120 147 148
f 122 148 149
f 122 149 150
f 122 150 123
f 123 150 152
f 123 152 125
f 124 125 152
f 124 152 151
f 124 151 153
f 124 153 126
f 126 153 154
f 126 154 127
f 127 154 128
f 128 155 129
f 128 154 153
f 128 153 156
f 128 156 155
f 129 155 157
f 129 157 158
f 129 158 130
f 130 158 134
f 132 159 135
f 132 135 133
f 132 134 160
f 132 160 159
f 134 158 161
f 134 161 160
f 135 159 138
f 136 162 137
f 136 140 163
f 136 163 164
f 136 164 162
f 137 162 141
f 138 140 139
f 138 159 160
f 138 160 165
f 138 165 140
f 140 165 163
f 141 162 166
f 142 167 143
f 142 144 167
f 143 168 145
f 143 167 169
f 143 169 168
f 144 170 167
f 145 168 146
f 146 168 171
f 146 171 172
f 146 172 147
f 147 172 173
f 147 173 148
f 148 173 174
f 148 174 149
f 149 174 175
f 149 175 150
f 150 175 176
f 150 176 178
f 150 178 152
f 151 177 153
f 151 152 178
f 151 178 177
f 153 177 179
f 153 179 156
f 155 180 181
f 155 181 157
f 155 156 179
f 155 179 182
f 155 182 180
f 157 181 158
f 158 183 161
f 158 181 183
f 160 161 184
f 160 184 165
f 161 185 186
f 161 186 184
f 161 183 185
f 162 164 187
f 162 187 166
f 163 165 184
f 163 184 188
f 163 188 189
f 163 189 187
f 163 187 164
f 166 187 189
f 166 189 190
f 167 170 191
f 167 191 192
f 167 192 193
f 167 193 169
f 168 169 194
f 168 194 195
f 168 195 171
f 169 193 196
f 169 196 197
f 169 197 194
f 170 198 199
f 170 199 192
f 170 192 191
f 171 195 200
f 171 200 201
f 171 201 172
f 172 201 202
f 172 202 173
f 173 202 203
f 173 203 204
f 173 204 174
f 174 204 175
f 175 204 205
f 175 205 176
f 176 205 206
f 176 206 207
f 176 207 208
f 176 208 178
f 177 209 210
f 177 210 211
f 177 211 179
f 177 178 209
f 178 208 209
f 179 211 182
f 180 212 213
f 180 213 181
f 180 182 211
f 180 211 214
f 180 214 212
f 181 213 215
f 181 215 183
f 183 215 185
f 184 186 216
f 184 216 188
f 185 215 217
f 185 217 186
f 186 217 218
f 186 218 219
f 186 219 216
f 188 216 220
f 188 220 189
f 189 220 190
f 190 220 222
f 190 222 221
f 192 199 223
f 192 223 193
f 193 223 196
f 194 197 224
f 194 224 225
f 194 225 226
f 194 226 195
f 195 226 200
f 196 227 224
f 196 224 197
f 196 223 228
f 196 228 227
f 198 229 199
f 199 230 228
f 199 228 223
f 199 229 231
f 199 231 230
f 200 226 232
f 200 232 233
f 200 233 234
f 200 234 201
f 201 234 202
f 202 234 203
f 203 234 233
f 203 233 235
f 203 235 236
f 203 236 206
f 203 206 205
f 203 205 204
f 206 236 237
f 206 237 238
f 206 238 207
f 207 238 239
f 207 239 208
f 208 239 240
f 208 240 210
f 208 210 209
f 210 240 214
f 210 214 211
f 212 214 241
f 212 241 213
f 213 242 215
f 213 241 243
f 213 243 242
f 214 240 244
f 214 244 245
f 214 245 243
f 214 243 241
f 215 242 217
f 216 219 222
f 216 222 220
f 217 242 246
f 217 246 247
f 217 247 218
f 218 247 248
f 218 248 219
f 219 248 222
f 221 222 249
f 222 248 250
f 222 250 249
f 224 227 251
f 224 251 225
f 225 251 226
f 226 251 232
f 227 228 252
f 227 252 251
f 228 230 253
f 228 253 252
f 229 254 231
f 230 231 255
f 230 255 253
f 231 254 256
f 231 256 255
f 232 251 257
f 232 257 233
f 233 257 258
f 233 258 235
f 235 258 259
f 235 259 236
f 236 259 237
f 237 259 260
f 237 260 261
f 237 261 238
f 238 261 262
f 238 262 239
f 239 262 263
f 239 263 240
f 240 263 244
f 242 264 246
f 242 243 265
f 242 265 264
f 243 245 266
f 243 266 267
f 243 267 268
f 243 268 265
f 244 263 266
f 244 266 245
f 246 264 247
f 247 264 269
f 247 269 248
f 248 270 250
f 248 269 271
f 248 271 270
f 249 250 273
f 249 273 274
f 249 274 272
f 250 270 275
f 250 275 273
f 251 252 276
f 251 276 257
f 252 253 277
f 252 277 278
f 252 278 279
f 252 279 276
f 253 278 277
f 253 255 280
f 253 280 278
f 254 281 256
f 255 256 282
f 255 282 283
f 255 283 280
f 256 281 282
f 257 276 284
f 257 284 258
f 258 284 285
f 258 285 286
f 258 286 260
f 258 260 259
f 260 286 287
f 260 287 261
f 261 287 288
f 261 288 262
f 262 288 289
f 262 289 290
f 262 290 263
f 263 290 266
f 264 265 291
f 264 291 292
f 264 292 293
f 264 293 269
f 265 268 294
f 265 294 295
f 265 295 291
f 266 290 296
f 266 296 267
f 267 296 297
f 267 297 294
f 267 294 268
f 269 293 298
f 269 298 299
f 269 299 271
f 270 271 274
f 270 274 275
f 271 293 300
f 271 300 301
f 271 301 274
f 271 299 298
f 271 298 293
f 272 274 303
f 272 303 304
f 272 304 302
f 273 275 274
f 274 301 305
f 274 305 303
f 276 279 284
f 278 306 279
f 278 280 307
f 278 307 306
f 279 306 285
f 279 285 284
f 280 283 307
f 281 308 309
f 281 309 310
f 281 310 282
f 282 310 311
f 282 311 283
f 283 287 307
f 283 311 287
f 285 306 307
f 285 307 286
f 286 307 287
f 287 311 288
f 288 311 312
f 288 312 289
f 289 312 313
f 289 313 290
f 290 313 296
f 291 295 292
f 292 295 293
f 293 295 294
f 293 294 297
f 293 297 300
f 296 313 297
f 297 313 301
f 297 301 300
f 301 313 314
f 301 314 305
f 302 304 309
f 302 309 308
f 303 305 315
f 303 315 304
f 304 315 309
f 305 314 315
f 309 312 310
f 309 315 312
f 310 312 311
f 312 315 314
f 312 314 313

