# https://github.com/mikedh/trimesh
v -0.02534860 0.07866526 0.05928164
v -0.02443342 0.07866526 0.07396286
v 0.01393785 0.07709218 0.07394275
v 0.01393785 0.07126793 0.06807744
v 0.01393785 0.06570629 0.06248090
v -0.02645122 0.07545565 0.05928164
v -0.06647643 0.07866526 0.05928164
v 0.01143490 0.07711247 0.07396286
v -0.09832018 0.07866526 0.07396286
v 0.01393785 0.06570629 0.07394849
v -0.02985833 0.06570629 0.05928164
v -0.09379943 0.07178806 0.05928164
v -0.09379943 0.07713912 0.06471866
v -0.09379943 0.07866526 0.06626941
v 0.01208545 0.06570629 0.07396286
v -0.09793426 0.07866526 0.07081248
v -0.09865097 0.07549879 0.07092314
v -0.09868405 0.07549879 0.07396286
v -0.09812171 0.06570629 0.05928164
v -0.09710730 0.07013505 0.05928164
v -0.09690883 0.07428472 0.06296812
v -0.09658907 0.07866526 0.06728697
v -0.09784606 0.06570629 0.07396286
v -0.09693088 0.07866526 0.06749537
v -0.09759245 0.07568527 0.06616737
v -0.09867302 0.06634821 0.06177235
v -0.09866200 0.07092413 0.06634847
v -0.09760348 0.07112711 0.06157544
v -0.09812171 0.06646238 0.05928164
v -0.09870610 0.07092413 0.07092314
v -0.09868405 0.07092413 0.07396286
v -0.09867302 0.06570629 0.06177235
v -0.09800043 0.06620739 0.07396286
v -0.09852968 0.06570629 0.07095189
v -0.09870610 0.06634821 0.06634847
v -0.09867302 0.06634821 0.07092314
v -0.09869508 0.06570629 0.06634847
f 1 2 3
f 1 3 4
f 1 4 5
f 1 5 6
f 1 6 11
f 1 11 19
f 1 19 29
f 1 29 20
f 1 20 12
f 1 12 7
f 1 7 14
f 1 14 22
f 1 22 24
f 1 24 16
f 1 16 9
f 1 9 2
f 2 8 3
f 2 9 18
f 2 18 31
f 2 31 33
f 2 33 23
f 2 23 15
f 2 15 8
f 3 10 5
f 3 5 4
f 3 8 10
f 5 10 15
f 5 15 23
f 5 23 34
f 5 34 37
f 5 37 32
f 5 32 19
f 5 19 11
f 5 11 6
f 7 12 13
f 7 13 14
f 8 15 10
f 9 16 17
f 9 17 18
f 12 20 21
f 12 21 22
f 12 22 13
f 13 22 14
f 16 24 25
f 16 25 17
f 17 26 27
f 17 27 18
f 17 25 28
f 17 28 29
f 17 29 26
f 18 27 26
f 18 26 30
f 18 30 31
f 19 32 26
f 19 26 29
f 20 29 28
f 20 28 21
f 21 28 25
f 21 25 24
f 21 24 22
f 23 33 34
f 26 32 35
f 26 35 30
f 30 35 36
f 30 36 31
f 31 36 33
f 32 37 35
f 33 36 34
f 34 36 37
f 35 37 36

