# https://github.com/mikedh/trimesh
v -0.03187577 -0.07973537 0.29513447
v -0.05138393 -0.06054848 0.28718141
v -0.03159044 -0.07973537 0.28718141
v -0.03186520 -0.07973537 0.29983767
v -0.05109860 -0.05634851 0.29398593
v -0.05258866 -0.05764221 0.28718141
v 0.03158389 -0.07973537 0.28718141
v -0.03349264 -0.05719579 0.29983767
v -0.04804451 -0.05261317 0.29666462
v 0.03186922 -0.07973537 0.29983767
v -0.05148961 -0.05261317 0.29457817
v -0.05365601 -0.05261317 0.28718141
v 0.05260325 -0.05764221 0.28718141
v 0.03186922 -0.07973537 0.29513447
v -0.03408444 -0.02973650 0.29983767
v -0.04804451 -0.02974561 0.29698924
v -0.04804451 -0.04803966 0.29673029
v 0.05112376 -0.05634851 0.29399336
v 0.05153590 -0.05261317 0.29459427
v 0.04803796 -0.05261317 0.29658161
v 0.04803796 -0.02974561 0.29698800
v 0.03351780 -0.05719579 0.29983767
v -0.05151074 -0.02974561 0.29483959
v -0.05389907 -0.02974561 0.28718141
v 0.05261382 -0.05760577 0.28718141
v -0.03397876 -0.02517210 0.29983767
v -0.05113031 -0.02610138 0.29419904
v -0.03261552 -0.01601596 0.29983767
v -0.03213996 -0.01327368 0.29983767
v -0.03179123 -0.01144245 0.29983767
v -0.03147419 -0.01045851 0.29983767
v -0.03001584 -0.00713314 0.29983767
v -0.02948745 -0.00606721 0.29983767
v -0.02798682 -0.00309716 0.29983767
v 0.05374457 -0.05261317 0.28718141
v 0.05402990 -0.03889263 0.28718141
v 0.05154647 -0.04803966 0.29464384
v 0.03260897 -0.01601596 0.29983767
v 0.03397221 -0.02504455 0.29983767
v 0.03406732 -0.02970916 0.29983767
v 0.05155704 -0.02974561 0.29485075
v 0.05114489 -0.02610138 0.29420152
v 0.02747301 -0.00229543 0.29983767
v 0.02947033 -0.00602165 0.29983767
v 0.03004099 -0.00715136 0.29983767
v 0.03179525 -0.01144245 0.29983767
v -0.05327557 -0.02535431 0.28718141
v -0.05202857 -0.02175563 0.28718141
v -0.05321216 -0.02515387 0.28718141
v -0.02749013 -0.00229543 0.29983767
v -0.02686663 -0.00131148 0.29983767
v -0.02490102 0.00125770 0.29983767
v -0.02459455 0.00164946 0.29983767
v 0.05405104 -0.03431001 0.28718141
v 0.05155704 -0.03889263 0.29474171
v 0.05406160 -0.02974561 0.28718141
v 0.05405104 -0.02963628 0.28718141
v 0.05324788 -0.02515387 0.28718141
v 0.05155704 -0.02166452 0.28718141
v 0.02435551 0.00190455 0.29983767
v 0.02465141 0.00154013 0.29983767
v 0.02490504 0.00121215 0.29983767
v -0.02438320 0.00190455 0.29983767
v -0.02245986 0.00418220 0.29983767
v -0.02047311 0.00575833 0.29983767
v -0.02001869 0.00171323 0.28718141
v 0.02045599 0.00574922 0.29983767
v 0.01955773 0.00204121 0.28718141
v -0.01603463 0.00869194 0.29983767
v -0.01601350 0.00430064 0.28718141
v 0.01453802 0.00546679 0.28718141
v 0.01602808 0.00868283 0.29983767
v -0.01438605 0.00959388 0.29983767
v -0.01184978 0.00673316 0.28718141
v 0.01169528 0.00673316 0.28718141
v 0.01241389 0.01044117 0.29983767
v -0.01242044 0.01045028 0.29983767
v -0.01179694 0.00676049 0.28718141
v 0.01153677 0.00678783 0.28718141
v 0.00723567 0.01265504 0.29983767
v -0.00724222 0.01265504 0.29983767
v -0.00686178 0.00807242 0.28718141
v 0.00682353 0.00805420 0.28718141
v 0.00294514 0.00885593 0.28718141
v 0.00227937 0.01333833 0.29983767
v -0.00370201 0.01327456 0.29983767
v -0.00228592 0.00895614 0.28718141
v 0.00227937 0.00894703 0.28718141
v -0.00228592 0.01332922 0.29983767
v -0.00147220 0.00895614 0.28718141
f 1 2 3
f 1 3 7
f 1 7 14
f 1 14 10
f 1 10 4
f 1 4 2
f 2 4 5
f 2 5 6
f 2 6 12
f 2 12 24
f 2 24 47
f 2 47 49
f 2 49 48
f 2 48 66
f 2 66 70
f 2 70 74
f 2 74 78
f 2 78 82
f 2 82 87
f 2 87 90
f 2 90 88
f 2 88 84
f 2 84 83
f 2 83 79
f 2 79 75
f 2 75 71
f 2 71 68
f 2 68 59
f 2 59 58
f 2 58 57
f 2 57 56
f 2 56 54
f 2 54 36
f 2 36 35
f 2 35 25
f 2 25 13
f 2 13 7
f 2 7 3
f 4 8 9
f 4 9 5
f 4 10 22
f 4 22 40
f 4 40 39
f 4 39 38
f 4 38 46
f 4 46 45
f 4 45 44
f 4 44 43
f 4 43 62
f 4 62 61
f 4 61 60
f 4 60 67
f 4 67 72
f 4 72 76
f 4 76 80
f 4 80 85
f 4 85 89
f 4 89 86
f 4 86 81
f 4 81 77
f 4 77 73
f 4 73 69
f 4 69 65
f 4 65 64
f 4 64 63
f 4 63 53
f 4 53 52
f 4 52 51
f 4 51 50
f 4 50 34
f 4 34 33
f 4 33 32
f 4 32 31
f 4 31 30
f 4 30 29
f 4 29 28
f 4 28 26
f 4 26 15
f 4 15 8
f 5 9 11
f 5 11 12
f 5 12 6
f 7 13 14
f 8 15 16
f 8 16 17
f 8 17 9
f 9 17 11
f 10 14 13
f 10 13 18
f 10 18 19
f 10 19 20
f 10 20 21
f 10 21 22
f 11 23 24
f 11 24 12
f 11 17 16
f 11 16 23
f 13 25 18
f 15 26 16
f 16 27 23
f 16 26 28
f 16 28 29
f 16 29 30
f 16 30 31
f 16 31 32
f 16 32 33
f 16 33 34
f 16 34 27
f 18 25 35
f 18 35 19
f 19 35 36
f 19 36 37
f 19 37 21
f 19 21 20
f 21 38 39
f 21 39 40
f 21 40 22
f 21 37 41
f 21 41 42
f 21 42 43
f 21 43 44
f 21 44 45
f 21 45 46
f 21 46 38
f 23 27 47
f 23 47 24
f 27 48 49
f 27 49 47
f 27 34 50
f 27 50 51
f 27 51 52
f 27 52 53
f 27 53 48
f 36 54 55
f 36 55 37
f 37 55 41
f 41 55 54
f 41 54 56
f 41 56 57
f 41 57 42
f 42 57 58
f 42 58 59
f 42 59 60
f 42 60 61
f 42 61 62
f 42 62 43
f 48 53 63
f 48 63 64
f 48 64 65
f 48 65 66
f 59 67 60
f 59 68 67
f 65 69 66
f 66 69 70
f 67 68 71
f 67 71 72
f 69 73 74
f 69 74 70
f 71 75 76
f 71 76 72
f 73 77 78
f 73 78 74
f 75 79 80
f 75 80 76
f 77 81 78
f 78 81 82
f 79 83 80
f 80 83 84
f 80 84 85
f 81 86 87
f 81 87 82
f 84 88 85
f 85 88 90
f 85 90 87
f 85 87 89
f 86 89 87

