# https://github.com/mikedh/trimesh
v 4.21993878 1.17569159 0.74492042
v 4.43925583 1.17569159 0.83393958
v 4.21993878 1.17569159 0.90726394
v 4.21993878 2.20857900 0.74006602
v 4.43826821 1.19894571 0.88571431
v 4.43809645 1.17569159 0.88553390
v 4.37890931 2.20857900 0.81061881
v 4.43826821 2.20857900 0.83715399
v 4.43826821 2.20857900 0.88571431
v 4.26534352 1.17569159 0.90726394
v 4.21993878 1.19894571 0.90759192
v 4.21993878 2.20857900 0.90759192
v 4.37326324 1.19894571 0.90759192
v 4.43264361 2.20857900 0.88761673
v 4.37326324 1.17569159 0.90721468
v 4.37326324 2.20857900 0.90759192
f 1 2 6
f 1 6 15
f 1 15 10
f 1 10 3
f 1 3 11
f 1 11 12
f 1 12 4
f 1 4 2
f 2 5 6
f 2 4 7
f 2 7 8
f 2 8 9
f 2 9 5
f 3 10 13
f 3 13 11
f 4 12 16
f 4 16 14
f 4 14 9
f 4 9 8
f 4 8 7
f 5 13 6
f 5 9 14
f 5 14 13
f 6 13 15
f 10 15 13
f 11 13 16
f 11 16 12
f 13 14 16

