# https://github.com/mikedh/trimesh
v 4.12016271 1.02725690 -1.12782563
v 4.12016271 1.02738976 -1.21254450
v 4.21993878 1.03177308 -1.21254450
v 4.12016271 1.02725690 0.65306806
v 4.12016271 1.03164022 -1.29613985
v 4.21993878 1.03642207 -1.28108366
v 4.21993878 1.03177308 0.75284306
v 4.12016271 1.02738976 0.73778693
v 4.12016271 1.03177308 -1.29726336
v 4.21993878 1.03775030 -1.29726336
v 4.21993878 1.03203874 0.82138216
v 4.12016271 1.02805387 0.82138216
v 4.12016271 1.05382252 -1.36153280
v 4.21993878 1.05395532 -1.34153298
v 4.21993878 1.03575789 0.83329220
v 4.12016271 1.05036896 0.89306736
v 4.21993878 1.05780733 -1.35164529
v 4.12016271 1.11346223 -1.37928561
v 4.21993878 1.05209571 0.88430336
v 4.21993878 1.06391740 0.88857296
v 4.12016271 1.11425921 0.91598860
v 4.12016271 1.11425921 -1.37951041
v 4.21993878 1.10363295 -1.36198215
v 4.21993878 1.11425921 0.90632576
v 4.12016271 1.11532184 0.91621340
v 4.21993878 1.18279841 -1.36422942
v 4.21993878 1.11425921 -1.36400462
v 4.12016271 2.21580115 -1.37546549
v 4.21993878 2.21580115 -1.36422942
v 4.21993878 1.13033137 0.90655044
v 4.21993878 2.21580115 0.90744940
v 4.12016271 2.21699665 0.90969654
v 4.21993878 1.19900343 0.90744940
v 4.12016271 2.29948277 -1.37231927
v 4.21993878 2.30067826 -1.36198215
v 4.21993878 2.28447324 -1.36243176
v 4.21993878 2.30067826 0.90295499
v 4.12016271 2.30067826 0.90655044
v 4.12016271 2.30067826 -1.37209472
v 4.21993878 2.35367659 -1.34962283
v 4.21993878 2.35805991 0.88115726
v 4.12016271 2.36217758 0.88340453
v 4.12016271 2.35766140 -1.35456646
v 4.12016271 2.37891386 -1.29726336
v 4.21993878 2.36629525 -1.30692632
v 4.12016271 2.35832557 -1.35434191
v 4.21993878 2.37333510 0.82138216
v 4.12016271 2.38276587 0.82138216
v 4.12016271 2.38409416 -1.21366800
v 4.21993878 2.36895177 -1.29726336
v 4.21993878 2.37346796 0.73666330
v 4.12016271 2.38409416 0.73666330
v 4.21993878 2.37346796 -1.21254450
v 4.12016271 2.38422702 -1.12894926
v 4.12016271 2.38422702 0.65194449
f 1 2 3
f 1 3 7
f 1 7 4
f 1 4 8
f 1 8 12
f 1 12 16
f 1 16 21
f 1 21 25
f 1 25 32
f 1 32 38
f 1 38 42
f 1 42 48
f 1 48 52
f 1 52 55
f 1 55 54
f 1 54 49
f 1 49 44
f 1 44 46
f 1 46 43
f 1 43 39
f 1 39 34
f 1 34 28
f 1 28 22
f 1 22 18
f 1 18 13
f 1 13 9
f 1 9 5
f 1 5 2
f 2 5 3
f 3 5 6
f 3 6 10
f 3 10 14
f 3 14 17
f 3 17 23
f 3 23 27
f 3 27 26
f 3 26 29
f 3 29 36
f 3 36 35
f 3 35 40
f 3 40 45
f 3 45 50
f 3 50 53
f 3 53 51
f 3 51 47
f 3 47 41
f 3 41 37
f 3 37 31
f 3 31 33
f 3 33 30
f 3 30 24
f 3 24 20
f 3 20 19
f 3 19 15
f 3 15 11
f 3 11 7
f 4 7 8
f 5 9 10
f 5 10 6
f 7 11 8
f 8 11 12
f 9 13 10
f 10 13 14
f 11 15 16
f 11 16 12
f 13 17 14
f 13 18 17
f 15 19 16
f 16 19 20
f 16 20 21
f 17 18 22
f 17 22 23
f 20 24 21
f 21 24 25
f 22 26 27
f 22 27 23
f 22 28 29
f 22 29 26
f 24 30 25
f 25 31 32
f 25 30 33
f 25 33 31
f 28 34 35
f 28 35 36
f 28 36 29
f 31 37 38
f 31 38 32
f 34 39 35
f 35 39 40
f 37 41 42
f 37 42 38
f 39 43 40
f 40 44 45
f 40 43 46
f 40 46 44
f 41 47 48
f 41 48 42
f 44 49 50
f 44 50 45
f 47 51 55
f 47 55 52
f 47 52 48
f 49 53 50
f 49 54 53
f 51 53 54
f 51 54 55

