# https://github.com/mikedh/trimesh
v 4.21993878 1.17838666 -1.14808107
v 4.21993878 1.17838666 -1.36427678
v 4.37491187 1.17838666 -1.25369113
v 4.43058250 2.16250004 -1.31263630
v 4.21993878 2.16250004 -1.19237468
v 4.37327183 1.17838666 -1.36224421
v 4.21993878 1.19890710 -1.36436152
v 4.37327183 1.19890710 -1.36235005
v 4.41914537 1.17838666 -1.29012955
v 4.43058250 2.16250004 -1.35104376
v 4.43199396 1.17838666 -1.30664443
v 4.21993878 2.16250004 -1.36436152
v 4.38713783 1.17838666 -1.35955530
v 4.43058250 1.19890710 -1.35104376
v 4.43052037 1.17838666 -1.35100145
v 4.37327183 2.16250004 -1.36235005
v 4.43199396 1.17838666 -1.33609580
f 1 2 6
f 1 6 13
f 1 13 15
f 1 15 17
f 1 17 11
f 1 11 9
f 1 9 3
f 1 3 4
f 1 4 5
f 1 5 12
f 1 12 7
f 1 7 2
f 2 7 8
f 2 8 6
f 3 9 4
f 4 10 16
f 4 16 12
f 4 12 5
f 4 9 11
f 4 11 17
f 4 17 10
f 6 8 13
f 7 12 16
f 7 16 8
f 8 14 15
f 8 15 13
f 8 16 10
f 8 10 14
f 10 17 14
f 14 17 15

