# https://github.com/mikedh/trimesh
v 0.12954867 -0.96999384 -0.35163729
v 0.12954867 -0.91000314 -0.35163729
v 0.12954867 -0.98953802 -0.34837846
v 0.10999847 -0.98999072 -0.34761630
v 0.10999847 -0.96999384 -0.35077004
v 0.12954867 -0.89109797 -0.34580294
v 0.10999847 -0.91000314 -0.35077004
v 0.08993760 -0.89198996 -0.34467287
v 0.10999847 -0.89141745 -0.34538243
v 0.12954867 -0.98999072 -0.34829960
v 0.08993760 -1.00160004 -0.34175570
v 0.06994972 -1.00117410 -0.34123008
v 0.04996181 -1.00068141 -0.34067817
v 0.03551799 -1.00026871 -0.34025769
v 0.08993760 -0.98999072 -0.34643368
v 0.08993760 -0.96999384 -0.34937714
v -0.03006275 -0.98212243 -0.34044166
v -0.04107797 -0.98033840 -0.34004743
v 0.12954867 -0.89087159 -0.34554015
v 0.08993760 -0.91000314 -0.34937714
v -0.04107797 -0.89981831 -0.34004743
v -0.03006275 -0.89884640 -0.34044166
v -0.01000190 -0.89719553 -0.34115122
v 0.00998601 -0.89575768 -0.34186081
v 0.02997389 -0.89451952 -0.34257041
v 0.04996181 -0.89348109 -0.34325371
v 0.06994972 -0.89265562 -0.34396328
v -0.10235475 -0.87994123 -0.32012658
v 0.10999847 -0.88141901 -0.33310930
v 0.12954867 -1.00210596 -0.34249155
v 0.10999847 -1.00193287 -0.34220247
v -0.11001435 -1.00275839 -0.32383217
v 0.02224135 -0.99948324 -0.33962695
v 0.02931738 -0.99169482 -0.34220247
v 0.06994972 -0.98999072 -0.34522478
v -0.13000225 -1.00222589 -0.32280720
v -0.03006275 -0.96999384 -0.34091471
v -0.01000190 -0.98519785 -0.34115122
v -0.11001435 -0.98999072 -0.33145360
v -0.11001435 -0.96999384 -0.33523805
v -0.09002644 -0.96999384 -0.33668349
v 0.12954867 -0.88109947 -0.33352978
v -0.03006275 -0.91000314 -0.34091471
v -0.09002644 -0.91000314 -0.33668349
v -0.11001435 -0.91000314 -0.33523805
v -0.13000225 -0.89093817 -0.32622371
v -0.10943076 -0.88811571 -0.32617114
v -0.09002644 -0.87980808 -0.32036309
v -0.15006310 -0.89265562 -0.32417382
v -0.20324257 -0.87979479 -0.30041594
v -0.36992997 -0.87056852 -0.16982649
v 0.12954867 -1.00531460 -0.33027096
v 0.10999847 -1.00520803 -0.32998188
v 0.08993760 -1.00487519 -0.32998188
v -0.07003854 -1.00318445 -0.32519875
v -0.09002644 -1.00299800 -0.32448919
v -0.11001435 -1.00603343 -0.30998216
v -0.13000225 -1.00550092 -0.30998216
v 0.00998601 -0.98794044 -0.34186081
v 0.04996181 -0.98999072 -0.34396328
v -0.15006310 -1.00118733 -0.32130919
v -0.15006310 -1.00447584 -0.30998216
v -0.21002680 -1.00281168 -0.30420039
v -0.30996630 -1.00269176 -0.28385903
v -0.23001470 -1.00206603 -0.30254469
v -0.16202664 -1.00036193 -0.32036309
v -0.13000225 -0.98999072 -0.32906206
v -0.13000225 -0.96999384 -0.33247856
v 0.12954867 -0.88105954 -0.33329327
v -0.07003854 -0.87967498 -0.32067845
v -0.05005065 -0.87962169 -0.32088871
v -0.13000225 -0.91000314 -0.33247856
v -0.17005099 -0.89554466 -0.32209764
v -0.24992964 -0.89308167 -0.30380617
v -0.30216080 -0.87984801 -0.28031109
v -0.39050150 -0.87056852 -0.16464917
v -0.34994209 -0.87056852 -0.17003674
v 0.12954867 -0.87962169 -0.32351680
v 0.12954867 -1.00538112 -0.32998188
v -0.09002644 -1.00628639 -0.30998216
v -0.19003889 -1.00649942 -0.28998245
v -0.21002680 -1.00610007 -0.28998245
v -0.30996630 -1.00596691 -0.26998274
v -0.23001470 -1.00534118 -0.28998245
v -0.32995421 -1.00186635 -0.28222961
v -0.24992964 -1.00094772 -0.30104668
v -0.32995421 -1.00514151 -0.26998274
v -0.16924855 -0.98992414 -0.32191367
v -0.15006310 -0.98999072 -0.32551412
v -0.26079899 -1.00014890 -0.30015312
v -0.18354647 -0.98321415 -0.32070474
v -0.15006310 -0.96999384 -0.32837875
v -0.15006310 -0.91000314 -0.32837875
v -0.18354647 -0.89826060 -0.32070474
v -0.26999051 -0.89625026 -0.30172999
v -0.32995421 -0.89152397 -0.28546215
v -0.32995421 -0.88151223 -0.27337296
v -0.36175975 -0.87975485 -0.26060049
v -0.40231914 -0.87974150 -0.24073217
v -0.44207609 -0.87974150 -0.22086386
v -0.47949869 -0.88003440 -0.19952383
v -0.50131035 -0.87974150 -0.18086443
v -0.52231950 -0.87974150 -0.16139035
v -0.40589363 -0.87056852 -0.15035240
v -0.07003854 -0.87056852 -0.17003674
v -0.05005065 -0.87056852 -0.17001046
v -0.03276184 -0.87056852 -0.16851244
v -0.03006275 -0.87056852 -0.16798684
v 0.12954867 -0.87960840 -0.32322772
v 0.12954867 -1.00656606 -0.30998216
v -0.03006275 -1.00656606 -0.30998216
v -0.05005065 -1.00655271 -0.30998216
v -0.07003854 -1.00645948 -0.30998216
v -0.26999051 -1.00656606 -0.26998274
v -0.28997839 -1.00644625 -0.26998274
v -0.17005099 -1.00656606 -0.28998245
v -0.34994209 -1.00653935 -0.24998302
v -0.36992997 -1.00580717 -0.24998302
v -0.34957734 -1.00315774 -0.27048207
v -0.34257430 -1.00092114 -0.28099440
v -0.26845858 -0.98927177 -0.30146716
v -0.32995421 -0.98999072 -0.28772230
v -0.28224585 -0.98213572 -0.30046849
v -0.19529119 -0.96999384 -0.31899650
v -0.19529119 -0.91000314 -0.31899650
v -0.28224585 -0.89884640 -0.30046849
v -0.34994209 -0.89599730 -0.28225587
v -0.38999084 -0.89466597 -0.26328112
v -0.42996663 -0.89352102 -0.24417497
v -0.42996663 -0.88352258 -0.23242743
v -0.41566873 -0.88071341 -0.23571254
v -0.45542568 -0.88087315 -0.21550257
v -0.44907916 -0.88910092 -0.22937886
v -0.46614912 -0.89419998 -0.22456947
v -0.48993033 -0.88306988 -0.19529262
v -0.51465988 -0.88191164 -0.17471473
v -0.53566909 -0.88074006 -0.15568740
v -0.54194266 -0.87974150 -0.14236302
v -0.56120110 -0.87974150 -0.12202166
v -0.58075130 -0.87975485 -0.10118096
v -0.58381510 -0.87962169 -0.09001161
v -0.58622241 -0.87959505 -0.08315230
v -0.41420976 -0.87056852 -0.12956427
v -0.01839098 -0.87056852 -0.16462288
v 0.12954867 -0.87922228 -0.30998216
v -0.00671922 -0.87056852 -0.15384774
v 0.12954867 -1.00656606 -0.22998331
v -0.38999084 -1.00656606 -0.22998331
v -0.40997875 -1.00598026 -0.22998331
v -0.36992997 -1.00251866 -0.26422725
v -0.43106085 -1.00347734 -0.23137620
v -0.40997875 -1.00270511 -0.24501595
v -0.34957734 -0.98824663 -0.28241358
v -0.38379020 -1.00120069 -0.26149402
v -0.43842867 -0.99831165 -0.23897136
v -0.32995421 -0.96999384 -0.29095484
v -0.30996630 -0.96999384 -0.29515977
v -0.30996630 -0.91000314 -0.29515977
v -0.32995421 -0.91000314 -0.29095484
v -0.36015490 -0.89977838 -0.28007458
v -0.40144378 -0.89846034 -0.26067932
v -0.44265968 -0.89732868 -0.24125780
v -0.46928591 -0.91000314 -0.22685590
v -0.50182092 -0.89740855 -0.20141606
v -0.52421618 -0.89523847 -0.18315087
v -0.54588187 -0.89406688 -0.16488570
v -0.55055058 -0.88752992 -0.15074659
v -0.55529225 -0.88099302 -0.13534604
v -0.57455063 -0.88231106 -0.11453162
v -0.59380907 -0.88360245 -0.09001161
v -0.59599752 -0.88169862 -0.08315230
v -0.41289669 -0.87056852 -0.08315230
v -0.41420976 -0.87056852 -0.12391388
v 0.12954867 -0.87922228 -0.22998331
v -0.00263409 -0.87056852 -0.13461017
v 0.00597383 -0.87056852 -0.08315230
v 0.12954867 -1.00327755 -0.21250656
v -0.01000190 -1.00515486 -0.08315230
v -0.03006275 -1.00656606 -0.08315230
v -0.42996663 -1.00656606 -0.21000988
v -0.44995454 -1.00591363 -0.21000988
v -0.42507911 -1.00141371 -0.24188853
v -0.44995454 -1.00263859 -0.22572583
v -0.39028263 -0.98969782 -0.26354395
v -0.40144378 -0.98284138 -0.26067932
v -0.36015490 -0.98040498 -0.28007458
v -0.46286643 -1.00132049 -0.22196766
v -0.46673271 -0.98999072 -0.22491112
v -0.44958979 -0.99098922 -0.23531831
v -0.44265968 -0.98498483 -0.24125780
v -0.34994209 -0.96999384 -0.28454230
v -0.34994209 -0.91000314 -0.28454230
v -0.36030078 -0.91000314 -0.28012715
v -0.37029475 -0.91000314 -0.27558057
v -0.40224618 -0.91000314 -0.26102097
v -0.42996663 -0.91000314 -0.24837990
v -0.44404572 -0.91000314 -0.24188853
v -0.45403967 -0.91000314 -0.23684261
v -0.46928591 -0.96999384 -0.22685590
v -0.47927985 -0.91000314 -0.21947097
v -0.53632558 -0.91000314 -0.17731653
v -0.54879982 -0.91000314 -0.16730353
v -0.55879379 -0.91000314 -0.15873597
v -0.56433785 -0.89433313 -0.14583209
v -0.58833790 -0.89013935 -0.10798769
v -0.60533494 -0.89360089 -0.09001161
v -0.60723162 -0.89139087 -0.08315230
v -0.60000968 -0.88513351 -0.08315230
v 0.12954867 -0.87962169 -0.21881397
v 0.00787050 -0.87195314 -0.08315230
v 0.12954867 -0.87970156 -0.21860371
v 0.12954867 -0.99421109 -0.20254613
v 0.00225346 -1.00186635 -0.08315230
v -0.54996699 -1.00656606 -0.08315230
v -0.50999117 -1.00656606 -0.15001075
v -0.48993033 -1.00655271 -0.17001046
v -0.46994245 -1.00631310 -0.19001017
v -0.46972358 -1.00322438 -0.21008873
v -0.52997911 -1.00598026 -0.15001075
v -0.50999117 -1.00543440 -0.17001046
v -0.44404572 -0.96999384 -0.24188853
v -0.37029475 -0.96999384 -0.27558057
v -0.36030078 -0.96999384 -0.28012715
v -0.42996663 -0.96999384 -0.24837990
v -0.40224618 -0.96999384 -0.26102097
v -0.50999117 -1.00215925 -0.18488541
v -0.52122528 -1.00068141 -0.18091701
v -0.49868417 -0.99816520 -0.19894565
v -0.45403967 -0.96999384 -0.23684261
v -0.50182092 -0.98483838 -0.20141606
v -0.47927985 -0.96999384 -0.21947097
v -0.53632558 -0.96999384 -0.17731653
v -0.54879982 -0.96999384 -0.16730353
v -0.55879379 -0.96999384 -0.15873597
v -0.56652630 -0.91000314 -0.14872299
v -0.60103095 -0.89795441 -0.10141749
v -0.58264792 -0.89565117 -0.12362479
v -0.61569363 -0.91000314 -0.08315230
v 0.01304984 -0.89000625 -0.08315230
v 0.12954867 -0.89774139 -0.19894565
v 0.12954867 -0.88796926 -0.20859071
v 0.12954867 -0.88774295 -0.20885352
v 0.12954867 -0.98419936 -0.19894565
v 0.00787050 -0.98999072 -0.08315230
v 0.00641152 -0.99385161 -0.08315230
v -0.56995487 -1.00655271 -0.08315230
v -0.54996699 -1.00656606 -0.11001132
v -0.52873898 -1.00257195 -0.16932715
v -0.56995487 -1.00653935 -0.09001161
v -0.54996699 -1.00587369 -0.13001103
v -0.54967523 -1.00291813 -0.14959025
v -0.52407027 -0.98999072 -0.18304576
v -0.54274512 -1.00140036 -0.16217877
v -0.54646546 -0.98999072 -0.16527991
v -0.53406418 -0.98999072 -0.17529291
v -0.56462968 -0.98999072 -0.14633143
v -0.60103095 -0.98377330 -0.10141749
v -0.56652630 -0.96999384 -0.14872299
v -0.55645943 -0.98999072 -0.15634442
v -0.58403397 -0.91000314 -0.12543816
v -0.61066020 -0.91000314 -0.09001161
v -0.61569363 -0.96999384 -0.08315230
v 0.01268509 -0.90959043 -0.08315230
v 0.12954867 -0.96999384 -0.19786813
v 0.12954867 -0.95044960 -0.19781558
v 0.12954867 -0.93000002 -0.19781558
v 0.12954867 -0.91045577 -0.19784186
v 0.12954867 -0.91000314 -0.19786813
v 0.12954867 -0.89811415 -0.19886681
v 0.01115319 -0.96999384 -0.08315230
v 0.01020485 -0.97683693 -0.08315230
v -0.59067226 -1.00462223 -0.08315230
v -0.56995487 -1.00524796 -0.11001132
v -0.56907952 -1.00234569 -0.12848673
v -0.56185758 -1.00126720 -0.14265211
v -0.58053243 -1.00045515 -0.12081274
v -0.58242905 -0.98999072 -0.12330941
v -0.59840483 -0.99711342 -0.09815866
v -0.60613740 -0.99027027 -0.09090516
v -0.61160851 -0.99012382 -0.08315230
v -0.61416173 -0.97766239 -0.08315230
v -0.61066020 -0.96999384 -0.09001161
v -0.58403397 -0.96999384 -0.12543816
v -0.60387600 -1.00186635 -0.08315230
v -0.59103704 -1.00366367 -0.09090516
v -0.58425284 -1.00195957 -0.11001132
v -0.60314644 -1.00175990 -0.08480800
v -0.60562671 -0.99965633 -0.08315230
f 1 2 6
f 1 6 19
f 1 19 42
f 1 42 69
f 1 69 78
f 1 78 109
f 1 109 145
f 1 145 174
f 1 174 209
f 1 209 211
f 1 211 242
f 1 242 241
f 1 241 240
f 1 240 269
f 1 269 268
f 1 268 267
f 1 267 266
f 1 266 265
f 1 265 264
f 1 264 243
f 1 243 212
f 1 212 177
f 1 177 147
f 1 147 110
f 1 110 79
f 1 79 52
f 1 52 30
f 1 30 10
f 1 10 3
f 1 3 4
f 1 4 5
f 1 5 7
f 1 7 2
f 2 7 8
f 2 8 9
f 2 9 6
f 3 10 4
f 4 11 12
f 4 12 13
f 4 13 14
f 4 14 15
f 4 15 5
f 4 10 11
f 5 16 20
f 5 20 7
f 5 15 17
f 5 17 18
f 5 18 16
f 6 9 19
f 7 20 21
f 7 21 22
f 7 22 23
f 7 23 24
f 7 24 25
f 7 25 26
f 7 26 27
f 7 27 8
f 8 27 28
f 8 28 9
f 9 29 19
f 9 28 29
f 10 30 31
f 10 31 11
f 11 31 32
f 11 32 12
f 12 32 13
f 13 32 14
f 14 33 34
f 14 34 35
f 14 35 15
f 14 32 36
f 14 36 33
f 15 35 17
f 16 18 37
f 16 37 43
f 16 43 20
f 17 38 33
f 17 33 39
f 17 39 18
f 17 35 38
f 18 39 40
f 18 40 41
f 18 41 37
f 19 29 42
f 20 43 21
f 21 43 44
f 21 44 45
f 21 45 46
f 21 46 22
f 22 46 23
f 23 46 47
f 23 47 24
f 24 47 25
f 25 47 28
f 25 28 26
f 26 28 27
f 28 48 42
f 28 42 29
f 28 47 46
f 28 46 49
f 28 49 50
f 28 50 51
f 28 51 48
f 30 52 53
f 30 53 31
f 31 53 54
f 31 54 55
f 31 55 56
f 31 56 32
f 32 56 57
f 32 57 58
f 32 58 36
f 33 59 34
f 33 36 39
f 33 38 59
f 34 60 35
f 34 59 60
f 35 60 59
f 35 59 38
f 36 61 39
f 36 58 62
f 36 62 63
f 36 63 64
f 36 64 65
f 36 65 61
f 37 41 44
f 37 44 43
f 39 61 66
f 39 66 67
f 39 67 40
f 40 45 44
f 40 44 41
f 40 67 68
f 40 68 72
f 40 72 45
f 42 48 70
f 42 70 71
f 42 71 69
f 45 72 49
f 45 49 46
f 48 51 70
f 49 72 73
f 49 73 74
f 49 74 75
f 49 75 50
f 50 75 51
f 51 75 76
f 51 76 104
f 51 104 143
f 51 143 173
f 51 173 172
f 51 172 176
f 51 176 175
f 51 175 146
f 51 146 144
f 51 144 108
f 51 108 107
f 51 107 106
f 51 106 105
f 51 105 77
f 51 77 78
f 51 78 71
f 51 71 70
f 52 79 53
f 53 79 80
f 53 80 57
f 53 57 54
f 54 57 55
f 55 57 56
f 57 80 81
f 57 81 82
f 57 82 58
f 58 82 83
f 58 83 84
f 58 84 62
f 61 65 85
f 61 85 86
f 61 86 66
f 62 84 63
f 63 84 87
f 63 87 64
f 64 87 85
f 64 85 65
f 66 88 89
f 66 89 67
f 66 86 90
f 66 90 88
f 67 89 68
f 68 89 91
f 68 91 92
f 68 92 93
f 68 93 72
f 69 71 78
f 72 93 94
f 72 94 73
f 73 94 95
f 73 95 74
f 74 95 96
f 74 96 75
f 75 96 97
f 75 97 98
f 75 98 76
f 76 98 99
f 76 99 100
f 76 100 101
f 76 101 102
f 76 102 103
f 76 103 104
f 77 105 78
f 78 105 106
f 78 106 107
f 78 107 108
f 78 108 109
f 79 110 111
f 79 111 112
f 79 112 113
f 79 113 80
f 80 113 81
f 81 114 115
f 81 115 82
f 81 113 112
f 81 112 116
f 81 116 114
f 82 115 83
f 83 115 117
f 83 117 118
f 83 118 87
f 83 87 84
f 85 87 119
f 85 119 120
f 85 120 90
f 85 90 86
f 87 118 119
f 88 90 121
f 88 121 91
f 88 91 89
f 90 120 122
f 90 122 123
f 90 123 121
f 91 121 123
f 91 123 92
f 92 123 124
f 92 124 125
f 92 125 93
f 93 125 126
f 93 126 94
f 94 126 95
f 95 126 96
f 96 127 98
f 96 98 97
f 96 126 127
f 98 127 128
f 98 128 129
f 98 129 130
f 98 130 131
f 98 131 99
f 99 131 100
f 100 131 130
f 100 130 132
f 100 132 101
f 101 132 133
f 101 133 134
f 101 134 135
f 101 135 136
f 101 136 137
f 101 137 102
f 102 137 103
f 103 137 138
f 103 138 104
f 104 138 139
f 104 139 140
f 104 140 141
f 104 141 142
f 104 142 143
f 108 144 109
f 109 144 146
f 109 146 145
f 110 147 179
f 110 179 214
f 110 214 247
f 110 247 215
f 110 215 180
f 110 180 148
f 110 148 114
f 110 114 116
f 110 116 111
f 111 116 112
f 114 148 117
f 114 117 115
f 117 148 149
f 117 149 118
f 118 150 119
f 118 149 151
f 118 151 152
f 118 152 150
f 119 150 120
f 120 153 122
f 120 150 154
f 120 154 155
f 120 155 153
f 122 153 156
f 122 156 123
f 123 156 157
f 123 157 124
f 124 157 158
f 124 158 125
f 125 158 126
f 126 158 159
f 126 159 127
f 127 160 161
f 127 161 128
f 127 159 160
f 128 161 162
f 128 162 129
f 129 162 133
f 129 133 130
f 130 133 132
f 133 162 134
f 134 162 163
f 134 163 164
f 134 164 165
f 134 165 135
f 135 165 136
f 136 165 166
f 136 166 137
f 137 166 167
f 137 167 168
f 137 168 140
f 137 140 139
f 137 139 138
f 140 168 169
f 140 169 170
f 140 170 171
f 140 171 142
f 140 142 141
f 142 171 208
f 142 208 207
f 142 207 238
f 142 238 262
f 142 262 281
f 142 281 280
f 142 280 288
f 142 288 284
f 142 284 272
f 142 272 246
f 142 246 214
f 142 214 179
f 142 179 178
f 142 178 213
f 142 213 245
f 142 245 244
f 142 244 271
f 142 271 270
f 142 270 263
f 142 263 239
f 142 239 210
f 142 210 176
f 142 176 172
f 142 172 173
f 142 173 143
f 145 146 175
f 145 175 176
f 145 176 174
f 147 177 178
f 147 178 179
f 148 180 149
f 149 180 181
f 149 181 151
f 150 152 182
f 150 182 154
f 151 181 183
f 151 183 152
f 152 183 182
f 153 155 184
f 153 184 185
f 153 185 186
f 153 186 156
f 154 182 155
f 155 182 187
f 155 187 188
f 155 188 189
f 155 189 190
f 155 190 185
f 155 185 184
f 156 186 191
f 156 191 192
f 156 192 159
f 156 159 158
f 156 158 157
f 159 192 160
f 160 192 193
f 160 193 194
f 160 194 195
f 160 195 196
f 160 196 197
f 160 197 161
f 161 197 162
f 162 197 198
f 162 198 163
f 163 198 229
f 163 229 199
f 163 199 231
f 163 231 200
f 163 200 164
f 164 201 165
f 164 200 201
f 165 201 202
f 165 202 166
f 166 202 203
f 166 203 204
f 166 204 167
f 167 204 168
f 168 204 169
f 169 204 205
f 169 205 170
f 170 205 206
f 170 206 207
f 170 207 208
f 170 208 171
f 174 176 209
f 176 210 211
f 176 211 209
f 177 212 213
f 177 213 178
f 180 215 216
f 180 216 217
f 180 217 181
f 181 218 183
f 181 217 219
f 181 219 220
f 181 220 218
f 182 183 187
f 183 218 187
f 185 190 221
f 185 221 186
f 186 222 223
f 186 223 191
f 186 221 224
f 186 224 225
f 186 225 222
f 187 218 226
f 187 226 227
f 187 227 228
f 187 228 188
f 188 199 229
f 188 229 190
f 188 190 189
f 188 228 230
f 188 230 199
f 190 229 221
f 191 223 193
f 191 193 192
f 193 223 222
f 193 222 194
f 194 222 225
f 194 225 195
f 195 225 224
f 195 224 196
f 196 224 221
f 196 221 197
f 197 221 229
f 197 229 198
f 199 230 231
f 200 231 232
f 200 232 201
f 201 232 233
f 201 233 202
f 202 233 234
f 202 234 203
f 203 234 258
f 203 258 235
f 203 235 236
f 203 236 237
f 203 237 204
f 204 237 205
f 205 237 206
f 206 238 207
f 206 237 236
f 206 236 238
f 210 239 240
f 210 240 241
f 210 241 242
f 210 242 211
f 212 243 244
f 212 244 245
f 212 245 213
f 214 246 247
f 215 247 219
f 215 219 216
f 216 219 217
f 218 220 248
f 218 248 226
f 219 247 249
f 219 249 250
f 219 250 251
f 219 251 220
f 220 251 248
f 226 248 227
f 227 252 228
f 227 248 253
f 227 253 254
f 227 254 255
f 227 255 252
f 228 252 230
f 230 252 255
f 230 255 232
f 230 232 231
f 232 255 233
f 233 255 254
f 233 254 234
f 234 256 257
f 234 257 258
f 234 254 259
f 234 259 256
f 235 258 283
f 235 283 260
f 235 260 236
f 236 261 238
f 236 260 261
f 238 261 282
f 238 282 262
f 239 263 264
f 239 264 265
f 239 265 266
f 239 266 267
f 239 267 268
f 239 268 269
f 239 269 240
f 243 264 270
f 243 270 271
f 243 271 244
f 246 272 249
f 246 249 247
f 248 251 253
f 249 272 273
f 249 273 250
f 250 273 251
f 251 273 274
f 251 274 275
f 251 275 253
f 253 275 259
f 253 259 254
f 256 276 277
f 256 277 257
f 256 259 276
f 257 278 279
f 257 279 280
f 257 280 281
f 257 281 262
f 257 262 282
f 257 282 283
f 257 283 258
f 257 277 276
f 257 276 278
f 259 275 276
f 260 283 282
f 260 282 261
f 263 270 264
f 272 284 285
f 272 285 273
f 273 285 274
f 274 285 286
f 274 286 275
f 275 286 276
f 276 286 287
f 276 287 278
f 278 287 288
f 278 288 280
f 278 280 279
f 284 288 287
f 284 287 285
f 285 287 286

