# https://github.com/mikedh/trimesh
v -0.15589911 -0.81450880 -0.00048366
v 0.07449222 -0.81450880 -0.00048366
v -0.10959122 -0.87054975 -0.00048366
v -0.36997742 -0.87054975 0.03887347
v -0.39064378 -0.87054975 0.04338000
v -0.35127250 -0.81450880 0.05336116
v 0.07449222 -0.81450880 0.04055924
v 0.07449222 -0.83171339 -0.00048366
v 0.04861146 -0.87054975 -0.00048366
v -0.39920688 -0.87054975 0.05007305
v -0.36380625 -0.81450880 0.05728352
v -0.01042153 -0.87054975 0.15515891
v -0.00654660 -0.87054975 0.15028517
v 0.04425813 -0.87054975 0.06676394
v 0.07449222 -0.82247473 0.03127911
v -0.01812357 -0.81450880 0.14330838
v 0.07449222 -0.83171339 0.01001491
v 0.04861146 -0.87054975 0.01059910
v -0.40867895 -0.87054975 0.06447729
v -0.36983392 -0.81450880 0.06908398
v -0.41274524 -0.87054975 0.07148747
v -0.03003542 -0.87054975 0.16796083
v -0.03003542 -0.81450880 0.15217124
v 0.04846795 -0.87054975 0.05052371
v 0.07449222 -0.82461978 0.02772395
v 0.07449222 -0.83053935 0.01502218
v 0.04856361 -0.87054975 0.05000629
v -0.37155611 -0.81450880 0.08407240
v -0.41422826 -0.87054975 0.12955508
v -0.37222585 -0.81450880 0.08999767
v -0.05003200 -0.81450880 0.15774601
v -0.05003200 -0.87054975 0.16998043
v -0.41408473 -0.87054975 0.13507976
v -0.37198666 -0.81450880 0.12998905
v -0.37208235 -0.81450880 0.12334607
v -0.37222585 -0.81450880 0.10999336
v -0.07007643 -0.87054975 0.17003050
v -0.31448451 -0.81450880 0.15774601
v -0.40824843 -0.87054975 0.14754786
v -0.36882931 -0.81450880 0.14005365
v -0.32998425 -0.87054975 0.17003050
v -0.32998425 -0.81450880 0.15772932
v -0.35002870 -0.87054975 0.17001381
v -0.40107262 -0.87054975 0.16086720
v -0.36600682 -0.81450880 0.14579532
v -0.33448109 -0.81450880 0.15759577
v -0.36997742 -0.87054975 0.16979682
v -0.38514233 -0.87054975 0.16730987
v -0.35481256 -0.81450880 0.15260520
v -0.34998083 -0.81450880 0.15455804
f 1 2 8
f 1 8 9
f 1 9 3
f 1 3 4
f 1 4 5
f 1 5 6
f 1 6 11
f 1 11 20
f 1 20 28
f 1 28 30
f 1 30 36
f 1 36 35
f 1 35 34
f 1 34 40
f 1 40 45
f 1 45 49
f 1 49 50
f 1 50 46
f 1 46 42
f 1 42 38
f 1 38 31
f 1 31 23
f 1 23 16
f 1 16 7
f 1 7 2
f 2 7 15
f 2 15 25
f 2 25 26
f 2 26 17
f 2 17 8
f 3 9 18
f 3 18 27
f 3 27 24
f 3 24 14
f 3 14 13
f 3 13 12
f 3 12 22
f 3 22 32
f 3 32 37
f 3 37 41
f 3 41 43
f 3 43 47
f 3 47 48
f 3 48 44
f 3 44 39
f 3 39 33
f 3 33 29
f 3 29 21
f 3 21 19
f 3 19 10
f 3 10 5
f 3 5 4
f 5 10 11
f 5 11 6
f 7 12 13
f 7 13 14
f 7 14 15
f 7 16 12
f 8 17 18
f 8 18 9
f 10 19 11
f 11 19 21
f 11 21 20
f 12 16 23
f 12 23 22
f 14 24 25
f 14 25 15
f 17 26 27
f 17 27 18
f 20 21 28
f 21 29 30
f 21 30 28
f 22 23 31
f 22 31 32
f 24 27 26
f 24 26 25
f 29 33 34
f 29 34 35
f 29 35 36
f 29 36 30
f 31 37 32
f 31 38 41
f 31 41 37
f 33 39 40
f 33 40 34
f 38 42 43
f 38 43 41
f 39 44 45
f 39 45 40
f 42 46 47
f 42 47 43
f 44 48 49
f 44 49 45
f 46 50 48
f 46 48 47
f 48 50 49

