# https://github.com/mikedh/trimesh
v 0.34094349 0.04637504 -0.18999588
v 0.34094349 0.04546109 -0.17030169
v 0.34094349 0.04203723 -0.20158316
v 0.32998726 0.04145066 -0.20124970
v 0.31957710 0.04015478 -0.20014517
v 0.32998726 0.04404244 -0.18999588
v 0.31689966 0.04071405 -0.17774172
v 0.34094349 0.03418005 -0.11407424
v 0.29146433 0.03090623 -0.11407424
v 0.29572702 0.03175197 -0.11407424
v 0.34094349 0.03518948 -0.20556368
v 0.32998726 0.02999228 -0.20735596
v 0.34094349 0.02999228 -0.20833546
v 0.31735766 0.04065949 -0.18999588
v 0.28957957 0.01107232 -0.20431324
v 0.28262183 0.01845206 -0.19919693
v 0.25586540 0.02228516 -0.18286846
v 0.23881453 0.02027995 -0.16121527
v 0.23881453 0.02027995 -0.15898534
v 0.19409128 0.00743019 -0.11407424
v 0.34094349 -0.08060834 -0.11407424
v 0.33789617 0.00153732 -0.22043331
v 0.33072707 0.00891705 -0.21629649
v 0.30999479 0.00999469 -0.21036739
v 0.34094349 0.00153732 -0.22043331
v 0.28998470 -0.01000291 -0.21170118
v 0.27564648 0.00512488 -0.20218752
v 0.26937571 0.01107232 -0.19648768
v 0.24952416 0.00936721 -0.18549434
v 0.21580997 0.00468837 -0.16351813
v 0.19662777 0.00292869 -0.14380310
v 0.17850244 0.00119629 -0.12211864
v 0.17730466 0.00176921 -0.11407424
v 0.19000471 0.00624343 -0.11407424
v 0.34027413 -0.08077203 -0.11407424
v 0.34094349 -0.08024003 -0.11616870
v 0.34094349 -0.00308696 -0.22047500
v 0.33416191 -0.01000291 -0.22052709
v 0.32417447 -0.01000291 -0.21922457
v 0.30999479 -0.01000291 -0.21630691
v 0.28998470 -0.02998686 -0.21123227
v 0.26999223 -0.02998686 -0.20615764
v 0.26937571 -0.01035757 -0.20415695
v 0.26231229 -0.00393270 -0.19874885
v 0.21998462 -0.01998807 -0.18000291
v 0.22537466 -0.00664724 -0.17684558
v 0.21359055 -0.01199448 -0.17010371
v 0.20200020 -0.01000291 -0.15769323
v 0.19400321 -0.01000291 -0.14768983
v 0.18399817 -0.01000291 -0.13469584
v 0.17656484 -0.01000291 -0.12469244
v 0.16495687 -0.02866369 -0.11407424
v 0.17140378 -0.01000291 -0.11407424
v 0.33414430 -0.08223161 -0.11407424
v 0.34094349 -0.07976260 -0.11872165
v 0.33969286 -0.07991265 -0.11960737
v 0.34094349 -0.01000291 -0.22052709
v 0.33433804 -0.02043822 -0.22025616
v 0.28998470 -0.04458266 -0.20421947
v 0.26999223 -0.04302759 -0.20260433
v 0.25847232 -0.04102237 -0.20069743
v 0.25782061 -0.02998686 -0.20110382
v 0.25861326 -0.01727352 -0.20075996
v 0.21940333 -0.02998686 -0.18047182
v 0.19916426 -0.03444744 -0.16088181
v 0.20018590 -0.02113390 -0.15978770
v 0.23000728 -0.02998686 -0.18649469
v 0.17945361 -0.03866249 -0.14058326
v 0.17455678 -0.03120091 -0.13048607
v 0.16131067 -0.04707894 -0.11407424
v 0.33092082 -0.08294093 -0.11407424
v 0.32477337 -0.08115398 -0.13000674
v 0.34094349 -0.07737544 -0.13000674
v 0.33477840 -0.07884866 -0.13000674
v 0.34094349 -0.02043822 -0.22025616
v 0.30999479 -0.04390061 -0.20380266
v 0.28998470 -0.05458145 -0.19344498
v 0.26999223 -0.05302638 -0.19248631
v 0.23939581 -0.06018787 -0.18020089
v 0.24783316 -0.02998686 -0.19601877
v 0.22606163 -0.05505888 -0.17746037
v 0.21920958 -0.04173170 -0.18061770
v 0.19916426 -0.04384605 -0.16088181
v 0.17924224 -0.04999810 -0.14078123
v 0.17131570 -0.04999810 -0.13000674
v 0.16206810 -0.04999810 -0.11616870
v 0.16099361 -0.04999810 -0.11407424
v 0.30999479 -0.08737423 -0.11407424
v 0.31999982 -0.07999449 -0.14001014
v 0.34094349 -0.07138707 -0.14917992
v 0.34094349 -0.04147252 -0.20166652
v 0.32998726 -0.04244103 -0.20265643
v 0.30999479 -0.05389941 -0.19278849
v 0.30999479 -0.06207032 -0.18278510
v 0.28998470 -0.06256140 -0.18344158
v 0.26999223 -0.06182478 -0.18248291
v 0.25001738 -0.06081535 -0.18104492
v 0.25001738 -0.06876801 -0.16999951
v 0.25001738 -0.07793472 -0.15605726
v 0.23164542 -0.06486671 -0.17046842
v 0.21434797 -0.06301155 -0.16413292
v 0.20101377 -0.05717323 -0.15927711
v 0.17955931 -0.06051525 -0.14045821
v 0.17578980 -0.06489400 -0.13000674
v 0.17022361 -0.07032309 -0.11407424
v 0.28998470 -0.09072990 -0.11407424
v 0.33048046 -0.06419831 -0.17124992
v 0.32799682 -0.07481094 -0.14801286
v 0.28998470 -0.08650122 -0.13000674
v 0.30999479 -0.08052649 -0.14142729
v 0.28998470 -0.07773010 -0.15399406
v 0.30999479 -0.07647513 -0.15142028
v 0.30999479 -0.06856340 -0.16999951
v 0.34094349 -0.06322980 -0.16818639
v 0.34094349 -0.05024364 -0.19024597
v 0.32413924 -0.06088356 -0.18124291
v 0.28998470 -0.07029580 -0.16999951
v 0.26999223 -0.07834395 -0.15601559
v 0.26999223 -0.07017303 -0.16999951
v 0.25001738 -0.08264083 -0.14605386
v 0.23000728 -0.08130402 -0.14268814
v 0.23000728 -0.07594314 -0.15269154
v 0.20649189 -0.07801656 -0.13671736
v 0.18158497 -0.07932609 -0.11837779
v 0.18894784 -0.07472910 -0.13002757
v 0.19000471 -0.06391185 -0.14480343
v 0.17425734 -0.07460633 -0.11407424
v 0.26999223 -0.09266691 -0.11407424
v 0.33747342 -0.05942398 -0.17875248
v 0.34094349 -0.06024243 -0.17509499
v 0.28998470 -0.08149499 -0.14399066
v 0.26999223 -0.08804264 -0.13000674
v 0.26999223 -0.08234074 -0.14601218
v 0.34094349 -0.05902839 -0.17786675
v 0.25001738 -0.08827454 -0.13000674
v 0.23000728 -0.08666491 -0.13000674
v 0.21189955 -0.08317283 -0.13002757
v 0.21982609 -0.08004906 -0.14010392
v 0.19491916 -0.08180874 -0.12337949
v 0.18590053 -0.08246351 -0.11407424
v 0.25001738 -0.09298066 -0.11407424
v 0.23000728 -0.09221677 -0.11407424
v 0.21038470 -0.08957042 -0.11407424
v 0.20541741 -0.08834275 -0.11407424
v 0.19042745 -0.08396401 -0.11407424
f 1 2 8
f 1 8 21
f 1 21 36
f 1 36 55
f 1 55 73
f 1 73 90
f 1 90 114
f 1 114 130
f 1 130 134
f 1 134 115
f 1 115 91
f 1 91 75
f 1 75 57
f 1 57 37
f 1 37 25
f 1 25 13
f 1 13 11
f 1 11 3
f 1 3 4
f 1 4 5
f 1 5 6
f 1 6 7
f 1 7 2
f 2 7 9
f 2 9 10
f 2 10 8
f 3 11 4
f 4 12 5
f 4 11 13
f 4 13 12
f 5 14 6
f 5 12 15
f 5 15 16
f 5 16 17
f 5 17 18
f 5 18 14
f 6 14 18
f 6 18 7
f 7 18 19
f 7 19 20
f 7 20 9
f 8 10 9
f 8 9 20
f 8 20 34
f 8 34 33
f 8 33 53
f 8 53 52
f 8 52 70
f 8 70 87
f 8 87 105
f 8 105 127
f 8 127 140
f 8 140 145
f 8 145 144
f 8 144 143
f 8 143 142
f 8 142 141
f 8 141 128
f 8 128 106
f 8 106 88
f 8 88 71
f 8 71 54
f 8 54 35
f 8 35 21
f 12 13 22
f 12 22 23
f 12 23 24
f 12 24 15
f 13 25 22
f 15 26 27
f 15 27 16
f 15 24 26
f 16 27 28
f 16 28 17
f 17 28 29
f 17 29 30
f 17 30 31
f 17 31 32
f 17 32 18
f 18 32 33
f 18 33 34
f 18 34 20
f 18 20 19
f 21 35 36
f 22 25 37
f 22 37 38
f 22 38 39
f 22 39 40
f 22 40 26
f 22 26 23
f 23 26 24
f 26 41 42
f 26 42 43
f 26 43 27
f 26 40 41
f 27 43 44
f 27 44 28
f 28 44 29
f 29 44 45
f 29 45 46
f 29 46 30
f 30 46 45
f 30 45 47
f 30 47 48
f 30 48 31
f 31 48 32
f 32 48 49
f 32 49 50
f 32 50 51
f 32 51 52
f 32 52 53
f 32 53 33
f 35 54 36
f 36 54 56
f 36 56 55
f 37 57 38
f 38 57 75
f 38 75 58
f 38 58 39
f 39 41 40
f 39 58 41
f 41 58 59
f 41 59 60
f 41 60 61
f 41 61 42
f 42 61 62
f 42 62 63
f 42 63 43
f 43 63 44
f 44 63 45
f 45 64 65
f 45 65 66
f 45 66 48
f 45 48 47
f 45 63 67
f 45 67 64
f 48 66 49
f 49 66 68
f 49 68 50
f 50 68 51
f 51 69 52
f 51 68 69
f 52 69 70
f 54 71 72
f 54 72 56
f 55 56 73
f 56 74 73
f 56 72 74
f 58 75 59
f 59 75 76
f 59 76 77
f 59 77 78
f 59 78 60
f 60 78 79
f 60 79 61
f 61 80 62
f 61 79 81
f 61 81 82
f 61 82 80
f 62 80 63
f 63 80 67
f 64 82 65
f 64 67 82
f 65 82 83
f 65 83 84
f 65 84 68
f 65 68 66
f 67 80 82
f 68 84 85
f 68 85 86
f 68 86 70
f 68 70 69
f 70 86 87
f 71 88 72
f 72 88 89
f 72 89 74
f 73 74 89
f 73 89 90
f 75 91 92
f 75 92 76
f 76 92 93
f 76 93 77
f 77 93 94
f 77 94 95
f 77 95 96
f 77 96 97
f 77 97 78
f 78 97 79
f 79 97 98
f 79 98 99
f 79 99 100
f 79 100 101
f 79 101 81
f 81 101 102
f 81 102 82
f 82 102 103
f 82 103 83
f 83 103 84
f 84 103 85
f 85 103 86
f 86 103 104
f 86 104 87
f 87 104 105
f 88 106 89
f 89 107 108
f 89 108 90
f 89 106 109
f 89 109 110
f 89 110 111
f 89 111 112
f 89 112 113
f 89 113 107
f 90 108 114
f 91 115 116
f 91 116 94
f 91 94 93
f 91 93 92
f 94 116 113
f 94 113 117
f 94 117 95
f 95 117 118
f 95 118 119
f 95 119 96
f 96 119 98
f 96 98 97
f 98 119 99
f 99 119 118
f 99 118 120
f 99 120 121
f 99 121 122
f 99 122 100
f 100 122 101
f 101 123 124
f 101 124 125
f 101 125 126
f 101 126 103
f 101 103 102
f 101 122 123
f 103 126 124
f 103 124 104
f 104 124 105
f 105 124 127
f 106 128 109
f 107 113 116
f 107 116 129
f 107 129 108
f 108 129 130
f 108 130 114
f 109 131 110
f 109 128 132
f 109 132 133
f 109 133 131
f 110 131 111
f 111 117 113
f 111 113 112
f 111 131 133
f 111 133 118
f 111 118 117
f 115 134 129
f 115 129 116
f 118 133 120
f 120 133 132
f 120 132 135
f 120 135 136
f 120 136 121
f 121 136 137
f 121 137 138
f 121 138 122
f 122 138 123
f 123 139 124
f 123 138 137
f 123 137 139
f 124 140 127
f 124 126 125
f 124 139 140
f 128 141 132
f 129 134 130
f 132 141 135
f 135 141 142
f 135 142 136
f 136 142 143
f 136 143 137
f 137 143 139
f 139 143 144
f 139 144 145
f 139 145 140

