# https://github.com/mikedh/trimesh
v -0.02722470 0.35003379 0.09023780
v 0.08596617 0.32254874 0.07585621
v -0.02517350 0.33507773 0.09023780
v -0.02017926 0.35801470 0.14048461
v -0.02017926 0.36118522 0.14048461
v -0.02692148 0.36999705 0.09023780
v 0.08596617 0.39278099 0.07585621
v 0.08739310 0.32211142 0.07585621
v 0.03327695 0.25717067 0.09023780
v 0.03209973 0.25767359 0.09023780
v 0.03110088 0.25832957 0.09023780
v 0.02432298 0.26309624 0.09023780
v 0.01433451 0.27098971 0.09023780
v 0.01249734 0.27247658 0.09023780
v 0.01101691 0.27413836 0.09023780
v -0.00323451 0.29058128 0.09023780
v -0.00396582 0.29154336 0.09023780
v -0.01502449 0.30923262 0.09023780
v -0.02126729 0.32246127 0.09023780
v -0.02440652 0.33002677 0.09023780
v -0.01167122 0.35084280 0.14676989
v -0.01668329 0.33002677 0.12999137
v -0.00491115 0.31001979 0.14614846
v -0.00831794 0.33002677 0.14793285
v -0.01143934 0.36870697 0.14676989
v -0.00708722 0.38998219 0.14764877
v -0.00300264 0.40996733 0.14414214
v -0.01422184 0.38998219 0.12999137
v -0.01015510 0.41158536 0.09023780
v -0.00776500 0.41617715 0.09023780
v 0.00140299 0.42958075 0.09023780
v 0.00409631 0.43237954 0.09023780
v 0.01565441 0.44425255 0.09023780
v 0.02999501 0.45186177 0.09023780
v 0.08999723 0.39361188 0.07585621
v 0.08999723 0.32252687 0.07585621
v 0.15499370 0.29001277 0.08353527
v 0.04970443 0.25588062 0.09023780
v 0.08999723 0.24680639 0.11000805
v 0.06998460 0.24849005 0.11000805
v 0.06998460 0.24645654 0.12999137
v 0.05000765 0.25262263 0.12999137
v 0.03823551 0.25905111 0.14197602
v 0.02737304 0.26504230 0.12999137
v 0.01503013 0.27505672 0.12999137
v 0.00502381 0.28623002 0.12999137
v -0.00241403 0.29622259 0.12999137
v -0.00161139 0.29749080 0.14301469
v -0.00985188 0.31001979 0.12999137
v 0.01001805 0.36999705 0.15575395
v 0.01001805 0.38998219 0.15565630
v 0.01001805 0.33002677 0.15584273
v 0.01001805 0.29049381 0.14752448
v 0.01001805 0.31001979 0.15421813
v 0.01001805 0.40996733 0.15221181
v 0.01156984 0.42822507 0.14443510
v -0.00030932 0.42039719 0.14071541
v -0.00601702 0.40996733 0.12999137
v 0.01925740 0.44068846 0.14131909
v 0.02999501 0.44864753 0.12999137
v 0.04499557 0.45756867 0.12999137
v 0.05500188 0.46216044 0.12999137
v 0.05576886 0.46178874 0.11000805
v 0.05769521 0.46093598 0.09788135
v 0.06998460 0.46209484 0.09678942
v 0.08594833 0.46272894 0.09670064
v 0.08999723 0.46288201 0.09668289
v 0.05054274 0.45190549 0.09023780
v 0.15499370 0.42999619 0.08360629
v 0.10988501 0.38950115 0.07585621
v 0.11152598 0.32790580 0.07585621
v 0.15499370 0.26939353 0.09253708
v 0.05036438 0.25594622 0.09023780
v 0.12873825 0.34896236 0.07585621
v 0.15499370 0.31004163 0.08349088
v 0.10999203 0.25502786 0.09625677
v 0.10999203 0.24787780 0.11000805
v 0.08999723 0.24446678 0.12999137
v 0.08596617 0.24527581 0.12595209
v 0.06998460 0.25323486 0.14774642
v 0.05000765 0.25631791 0.14524295
v 0.03095819 0.27004951 0.14690306
v 0.01668893 0.27671849 0.14412439
v 0.03418661 0.35003379 0.16319331
v 0.03438281 0.36999705 0.16292699
v 0.05000765 0.36999705 0.16620280
v 0.04929418 0.39046323 0.16361055
v 0.02999501 0.42997431 0.15293977
v 0.03556002 0.33002677 0.16202148
v 0.02999501 0.29001277 0.15519466
v 0.05000765 0.33002677 0.16528841
v 0.02999501 0.44431814 0.14488786
v 0.05666069 0.46143889 0.14298806
v 0.06998460 0.46589946 0.12999137
v 0.06998460 0.46504670 0.11000805
v 0.08594833 0.46644610 0.11000805
v 0.08999723 0.46679595 0.11000805
v 0.10999203 0.46233538 0.09712676
v 0.15499370 0.43732115 0.08692649
v 0.15499370 0.42006921 0.08355303
v 0.12873825 0.36918801 0.07585621
v 0.15499370 0.26410207 0.11007020
v 0.14227623 0.25891992 0.09887564
v 0.12998682 0.25701761 0.09731319
v 0.15499370 0.34008494 0.08346426
v 0.10999203 0.24573499 0.12999137
v 0.12998682 0.25255704 0.11000805
v 0.10999203 0.25286316 0.14786183
v 0.08999723 0.25225091 0.14801275
v 0.08594833 0.25244772 0.14795948
v 0.06998460 0.27002763 0.15578946
v 0.05000765 0.27002763 0.15333038
v 0.05000765 0.35003379 0.16646912
v 0.06998460 0.38998219 0.16649576
v 0.05546564 0.40364816 0.16211026
v 0.06998460 0.40769329 0.16321107
v 0.05000765 0.42997431 0.15563854
v 0.06998460 0.44998133 0.15353457
v 0.05000765 0.45100900 0.14815479
v 0.06998460 0.31001979 0.16464922
v 0.06998460 0.33002677 0.16654902
v 0.06998460 0.46294760 0.14542938
v 0.08594833 0.46745193 0.12999137
v 0.08999723 0.46784550 0.12999137
v 0.10999203 0.46565893 0.11000805
v 0.12328027 0.46113276 0.09842288
v 0.15499370 0.44501784 0.09262586
v 0.15499370 0.40996733 0.08349976
v 0.15499370 0.40004036 0.08349088
v 0.15499370 0.36999705 0.08346426
v 0.15499370 0.26327118 0.12999137
v 0.15486884 0.26318371 0.12999137
v 0.14413123 0.25793597 0.11000805
v 0.12998682 0.25115764 0.12999137
v 0.12998682 0.25559637 0.14613070
v 0.12998682 0.27000576 0.15420926
v 0.10999203 0.27000576 0.15586936
v 0.08999723 0.27000576 0.15601139
v 0.08999723 0.29432028 0.16262515
v 0.06998460 0.36999705 0.16654902
v 0.08999723 0.38998219 0.16654902
v 0.08596617 0.40911457 0.16321107
v 0.08832060 0.41195708 0.16272280
v 0.08594833 0.41141045 0.16278495
v 0.08999723 0.44998133 0.15459098
v 0.08594833 0.44998133 0.15438681
v 0.08594833 0.46108904 0.14792397
v 0.08594833 0.31001979 0.16565238
v 0.08999723 0.31004163 0.16590097
v 0.08596617 0.33000490 0.16654902
v 0.08999723 0.46390968 0.14649469
v 0.10999203 0.46325373 0.14579337
v 0.10999203 0.46657729 0.12999137
v 0.12583090 0.46211672 0.11000805
v 0.15499370 0.44919416 0.10452174
v 0.14323939 0.25835141 0.14307684
v 0.15499370 0.26331490 0.13014229
v 0.14488036 0.25752052 0.12999137
v 0.14994595 0.26930606 0.14797724
v 0.14998162 0.29001277 0.15558528
v 0.10999203 0.31004163 0.16508423
v 0.10999203 0.29565408 0.16180842
v 0.10999203 0.38998219 0.16654902
v 0.10833323 0.41022971 0.16272280
v 0.10999203 0.44998133 0.15390742
v 0.12998682 0.33000490 0.16589209
v 0.10999203 0.33000490 0.16654902
v 0.12447533 0.46163568 0.14330766
v 0.13068245 0.45144632 0.14842998
v 0.12672272 0.46248844 0.12999137
v 0.13672905 0.45864010 0.12999137
v 0.14998162 0.45149004 0.12999137
v 0.15499370 0.44856006 0.12332435
v 0.15499370 0.27140516 0.14689418
v 0.15499370 0.27413836 0.14817255
v 0.15499370 0.28985971 0.15395181
v 0.15499370 0.29501998 0.15554089
v 0.12907717 0.31019470 0.16246535
v 0.12998682 0.35003379 0.16654902
v 0.12998682 0.36999705 0.16649576
v 0.12998682 0.38998219 0.16488892
v 0.14998162 0.42999619 0.15440457
v 0.14323939 0.31697303 0.16130241
v 0.14521927 0.33000490 0.16262515
v 0.14628945 0.35003379 0.16326432
v 0.14998162 0.44571754 0.14635264
v 0.15499370 0.44416508 0.14503877
v 0.15499370 0.44823208 0.12999137
v 0.15499370 0.31017282 0.15699681
v 0.14625378 0.36999705 0.16322883
v 0.15499370 0.40869912 0.15646415
v 0.15499370 0.42979940 0.15249590
v 0.15499370 0.35003379 0.15858588
v 0.15499370 0.36741692 0.15858588
v 0.15499370 0.36999705 0.15857700
f 1 2 3
f 1 3 4
f 1 4 5
f 1 5 6
f 1 6 7
f 1 7 2
f 2 8 9
f 2 9 10
f 2 10 11
f 2 11 12
f 2 12 13
f 2 13 14
f 2 14 15
f 2 15 16
f 2 16 17
f 2 17 18
f 2 18 19
f 2 19 20
f 2 20 3
f 2 7 35
f 2 35 70
f 2 70 101
f 2 101 74
f 2 74 71
f 2 71 36
f 2 36 8
f 3 20 4
f 4 21 5
f 4 20 22
f 4 22 23
f 4 23 24
f 4 24 21
f 5 21 25
f 5 25 26
f 5 26 27
f 5 27 28
f 5 28 6
f 6 28 29
f 6 29 7
f 7 29 30
f 7 30 31
f 7 31 32
f 7 32 33
f 7 33 34
f 7 34 35
f 8 36 37
f 8 37 38
f 8 38 9
f 9 38 39
f 9 39 40
f 9 40 41
f 9 41 42
f 9 42 10
f 10 42 43
f 10 43 11
f 11 43 44
f 11 44 12
f 12 44 13
f 13 44 14
f 14 44 45
f 14 45 46
f 14 46 15
f 15 46 16
f 16 46 17
f 17 46 47
f 17 47 18
f 18 47 48
f 18 48 49
f 18 49 19
f 19 49 20
f 20 49 22
f 21 50 51
f 21 51 25
f 21 24 52
f 21 52 50
f 22 49 48
f 22 48 23
f 23 48 53
f 23 53 54
f 23 54 24
f 24 54 52
f 25 51 26
f 26 51 55
f 26 55 27
f 27 55 56
f 27 56 57
f 27 57 28
f 28 57 58
f 28 58 29
f 29 58 57
f 29 57 30
f 30 57 31
f 31 57 59
f 31 59 32
f 32 59 33
f 33 59 60
f 33 60 61
f 33 61 34
f 34 61 62
f 34 62 63
f 34 63 64
f 34 64 65
f 34 65 66
f 34 66 67
f 34 67 68
f 34 68 69
f 34 69 35
f 35 69 70
f 36 71 37
f 37 72 73
f 37 73 38
f 37 71 74
f 37 74 75
f 37 75 105
f 37 105 130
f 37 130 129
f 37 129 128
f 37 128 100
f 37 100 69
f 37 69 99
f 37 99 127
f 37 127 155
f 37 155 173
f 37 173 188
f 37 188 187
f 37 187 192
f 37 192 191
f 37 191 195
f 37 195 194
f 37 194 193
f 37 193 189
f 37 189 177
f 37 177 176
f 37 176 175
f 37 175 174
f 37 174 157
f 37 157 131
f 37 131 102
f 37 102 72
f 38 73 76
f 38 76 39
f 39 77 78
f 39 78 79
f 39 79 40
f 39 76 77
f 40 79 41
f 41 79 78
f 41 78 80
f 41 80 81
f 41 81 43
f 41 43 42
f 43 82 83
f 43 83 44
f 43 81 82
f 44 83 45
f 45 83 46
f 46 83 48
f 46 48 47
f 48 83 53
f 50 52 84
f 50 84 51
f 51 84 85
f 51 85 86
f 51 86 87
f 51 87 88
f 51 88 55
f 52 89 84
f 52 54 89
f 53 83 82
f 53 82 90
f 53 90 54
f 54 90 91
f 54 91 89
f 55 88 56
f 56 88 92
f 56 92 59
f 56 59 57
f 59 92 93
f 59 93 61
f 59 61 60
f 61 93 62
f 62 93 94
f 62 94 63
f 63 94 95
f 63 95 64
f 64 95 65
f 65 95 96
f 65 96 97
f 65 97 66
f 66 97 67
f 67 97 98
f 67 98 99
f 67 99 68
f 68 99 69
f 69 100 101
f 69 101 70
f 72 102 103
f 72 103 104
f 72 104 76
f 72 76 73
f 74 105 75
f 74 101 130
f 74 130 105
f 76 104 77
f 77 106 78
f 77 104 103
f 77 103 107
f 77 107 106
f 78 106 108
f 78 108 109
f 78 109 110
f 78 110 80
f 80 110 111
f 80 111 112
f 80 112 81
f 81 112 82
f 82 112 90
f 84 89 91
f 84 91 113
f 84 113 86
f 84 86 85
f 86 113 114
f 86 114 87
f 87 115 88
f 87 114 115
f 88 115 116
f 88 116 117
f 88 117 118
f 88 118 119
f 88 119 92
f 90 120 91
f 90 112 120
f 91 121 113
f 91 120 121
f 92 119 93
f 93 122 94
f 93 119 122
f 94 123 95
f 94 122 123
f 95 123 124
f 95 124 96
f 96 124 97
f 97 124 125
f 97 125 98
f 98 125 126
f 98 126 99
f 99 126 127
f 100 128 101
f 101 128 129
f 101 129 130
f 102 131 132
f 102 132 133
f 102 133 103
f 103 133 107
f 106 107 134
f 106 134 135
f 106 135 108
f 107 133 134
f 108 135 136
f 108 136 137
f 108 137 109
f 109 137 138
f 109 138 111
f 109 111 110
f 111 138 139
f 111 139 120
f 111 120 112
f 113 140 114
f 113 121 140
f 114 140 141
f 114 141 142
f 114 142 143
f 114 143 116
f 114 116 115
f 116 143 144
f 116 144 145
f 116 145 146
f 116 146 118
f 116 118 117
f 118 146 147
f 118 147 122
f 118 122 119
f 120 139 148
f 120 148 121
f 121 148 149
f 121 149 150
f 121 150 167
f 121 167 179
f 121 179 163
f 121 163 141
f 121 141 140
f 122 147 151
f 122 151 124
f 122 124 123
f 124 151 152
f 124 152 153
f 124 153 125
f 125 153 154
f 125 154 126
f 126 154 155
f 126 155 127
f 131 156 132
f 131 157 156
f 132 158 133
f 132 156 158
f 133 158 134
f 134 158 156
f 134 156 135
f 135 156 159
f 135 159 136
f 136 159 160
f 136 160 161
f 136 161 162
f 136 162 137
f 137 162 139
f 137 139 138
f 139 162 161
f 139 161 149
f 139 149 148
f 141 163 143
f 141 143 142
f 143 163 164
f 143 164 145
f 143 145 144
f 145 165 151
f 145 151 146
f 145 164 165
f 146 151 147
f 149 161 166
f 149 166 167
f 149 167 150
f 151 165 152
f 152 168 153
f 152 165 169
f 152 169 168
f 153 168 170
f 153 170 154
f 154 170 171
f 154 171 155
f 155 171 172
f 155 172 173
f 156 157 174
f 156 174 159
f 159 174 175
f 159 175 160
f 160 175 176
f 160 176 177
f 160 177 166
f 160 166 178
f 160 178 161
f 161 178 166
f 163 179 180
f 163 180 181
f 163 181 164
f 164 181 182
f 164 182 165
f 165 182 169
f 166 177 183
f 166 183 184
f 166 184 185
f 166 185 179
f 166 179 167
f 168 169 186
f 168 186 187
f 168 187 172
f 168 172 171
f 168 171 170
f 169 182 186
f 172 187 188
f 172 188 173
f 177 189 184
f 177 184 183
f 179 185 190
f 179 190 180
f 180 190 181
f 181 191 182
f 181 190 191
f 182 191 192
f 182 192 186
f 184 189 185
f 185 189 193
f 185 193 194
f 185 194 190
f 186 192 187
f 190 194 195
f 190 195 191

