# https://github.com/mikedh/trimesh
v -2.23268445 -6.62456541 16.38360484
v -2.44055996 -6.55697863 16.38360484
v -2.23268445 -5.37337496 16.38360484
v -2.23268445 -3.53972382 25.32286339
v -2.60074887 -6.50477667 16.38360484
v -5.74202816 -1.01096667 16.38360484
v -2.94890542 -1.01096667 24.63408350
v -2.83732853 -1.01096667 24.98591242
v -2.79195724 -1.01096667 25.16970391
v -2.75445631 -1.01096667 25.32286339
v -2.23268445 -2.01104000 24.98591242
v -2.23268445 -1.89619644 25.32286339
v -2.25305528 -3.52763494 25.32286339
v -3.19196680 -6.25970372 16.38360484
v -3.12900220 -6.22014063 16.58665046
v -2.92946051 -6.38498791 16.38360484
v -2.91696002 -6.38993337 16.38360484
v -2.71139983 -6.18826996 17.18966095
v -2.61000836 -6.50147970 16.38360484
v -6.96242792 -1.01096667 16.38360484
v -4.06791372 -1.01096667 25.32286339
v -2.23268445 -1.89674594 25.31323646
v -2.23268445 -1.98301604 25.06117980
v -2.25999997 -3.52323899 25.32286339
v -3.36419323 -6.15145383 16.38360484
v -3.19844853 -6.25585726 16.38360484
v -6.93233463 -1.17911066 16.38360484
v -6.89992628 -1.06371762 16.56477057
v -6.90363048 -1.01096667 16.57614818
v -6.93001957 -1.18955106 16.38360484
v -6.74853390 -1.89674594 16.38360484
v -6.66010588 -2.24017760 16.38360484
v -4.01698663 -1.20658538 25.32286339
v -2.39611434 -3.43586990 25.32286339
v -4.28041885 -5.56954342 16.38360484
v -4.26236308 -5.58108280 16.38360484
v -3.64058864 -5.97616617 16.38360484
v -6.57167786 -2.52921010 16.38360484
v -6.55223295 -2.42425719 16.55601871
v -3.90309494 -1.55111604 25.32286339
v -2.54658079 -3.32871927 25.32286339
v -4.42440383 -5.47338242 16.38360484
v -6.51334312 -2.67482508 16.38360484
v -3.90078013 -1.55661098 25.32286339
v -2.55722917 -3.32102634 25.32286339
v -4.61329740 -5.30304019 16.38360484
v -2.79473502 -3.13804575 25.32286339
v -6.40037735 -2.89956673 16.38360484
v -3.81281507 -1.76267008 25.32286339
v -4.78737568 -5.12940100 16.38360484
v -2.97020218 -2.95506541 25.32286339
v -6.24944769 -3.17431238 16.38360484
v -3.72022013 -1.93191332 25.32286339
v -4.94339767 -4.96345473 16.38360484
v -3.12900220 -2.78637167 25.32286339
v -6.24250300 -3.18695075 16.38360484
v -3.53734558 -2.26380586 25.32286339
v -5.97953400 -3.66500776 16.38360484
v -5.12256878 -4.77278121 16.38360484
v -3.31789576 -2.57261964 25.32286339
v -5.60961747 -4.24581971 16.38360484
v -5.45544733 -4.41835991 16.38360484
v -5.28877644 -4.59584557 16.38360484
v -3.45030644 -2.41656427 25.32286339
v -5.88416129 -3.83754797 16.38360484
v -5.55544965 -4.18317761 16.64178785
v -5.79989967 -3.98096497 16.38360484
f 1 2 5
f 1 5 19
f 1 19 17
f 1 17 16
f 1 16 14
f 1 14 26
f 1 26 25
f 1 25 37
f 1 37 36
f 1 36 35
f 1 35 42
f 1 42 46
f 1 46 50
f 1 50 54
f 1 54 59
f 1 59 63
f 1 63 62
f 1 62 61
f 1 61 67
f 1 67 65
f 1 65 58
f 1 58 56
f 1 56 52
f 1 52 48
f 1 48 43
f 1 43 38
f 1 38 32
f 1 32 31
f 1 31 30
f 1 30 27
f 1 27 20
f 1 20 6
f 1 6 3
f 1 3 11
f 1 11 23
f 1 23 22
f 1 22 12
f 1 12 4
f 1 4 2
f 2 4 5
f 3 6 7
f 3 7 8
f 3 8 9
f 3 9 10
f 3 10 11
f 4 12 10
f 4 10 21
f 4 21 33
f 4 33 40
f 4 40 44
f 4 44 49
f 4 49 53
f 4 53 57
f 4 57 64
f 4 64 60
f 4 60 55
f 4 55 51
f 4 51 47
f 4 47 45
f 4 45 41
f 4 41 34
f 4 34 24
f 4 24 13
f 4 13 26
f 4 26 14
f 4 14 15
f 4 15 16
f 4 16 17
f 4 17 18
f 4 18 5
f 5 18 19
f 6 20 29
f 6 29 21
f 6 21 10
f 6 10 9
f 6 9 8
f 6 8 7
f 10 12 22
f 10 22 23
f 10 23 11
f 13 24 25
f 13 25 26
f 14 16 15
f 17 19 18
f 20 27 28
f 20 28 29
f 21 29 28
f 21 28 30
f 21 30 31
f 21 31 32
f 21 32 33
f 24 34 35
f 24 35 36
f 24 36 37
f 24 37 25
f 27 30 28
f 32 38 39
f 32 39 33
f 33 39 40
f 34 41 42
f 34 42 35
f 38 43 40
f 38 40 39
f 40 43 44
f 41 45 42
f 42 45 47
f 42 47 46
f 43 48 49
f 43 49 44
f 46 47 50
f 47 51 50
f 48 52 53
f 48 53 49
f 50 51 55
f 50 55 54
f 52 56 53
f 53 56 58
f 53 58 57
f 54 55 59
f 55 60 61
f 55 61 62
f 55 62 63
f 55 63 59
f 57 58 65
f 57 65 64
f 60 64 61
f 61 64 66
f 61 66 67
f 64 65 67
f 64 67 66

