# https://github.com/mikedh/trimesh
v -0.01560179 -3.61854699 34.63610883
v -0.01560179 -3.49098187 34.59416238
v -2.92907278 -2.26828604 34.62790237
v -0.51727641 -3.61854699 34.63975706
v -0.01560179 -3.98066069 34.54947771
v -0.01560179 -3.33768938 34.54309536
v -2.92907278 -2.58494757 34.59325033
v -2.58447690 -2.92948080 34.59598445
v -2.23988077 -2.92948080 34.63246266
v -2.57019698 -2.26828604 34.56406858
v -3.29884654 -2.26828604 34.55403800
v -0.86187247 -3.61854699 34.63428677
v -0.51727641 -3.95257485 34.55677417
v -0.17944457 -3.99566831 34.53944713
v -0.01560179 -4.10093628 34.48747009
v -2.47098937 -2.26828604 34.53580095
v -0.01560179 -3.16531556 34.39627868
v -3.17934666 -2.58494757 34.50570714
v -2.89976136 -2.89582067 34.50114685
v -2.25416069 -3.29566795 34.55312594
v -1.89566055 -3.27422843 34.62334208
v -2.58447690 -3.17775057 34.50844332
v -3.30636229 -2.26828604 34.55038977
v -3.43375382 -2.39263507 34.45464012
v -1.20646854 -3.61854699 34.61422355
v -0.86187247 -3.92663307 34.55038977
v -0.51727641 -4.12494866 34.45464012
v -0.29894458 -4.13223820 34.46102452
v -0.06896334 -4.13974188 34.46649482
v -0.01560179 -4.14017069 34.46649482
v -0.01560179 -3.09778116 34.31785402
v -0.01560179 -3.01716854 34.22392849
v -2.27144691 -2.26828604 34.42090014
v -3.10268604 -2.75839342 34.46376070
v -2.76522999 -3.10978710 34.46831893
v -1.55106455 -3.61854699 34.57957151
v -2.14856469 -3.49762818 34.49750068
v -1.86371875 -3.61490235 34.52303214
v -2.37817001 -3.42473391 34.44825776
v -3.62390173 -2.26828604 34.34247548
v -3.64532148 -2.26828604 34.32515049
v -3.64156361 -2.28286484 34.32059020
v -3.55099897 -2.58494757 34.22484055
v -3.47734516 -2.79055270 34.15280029
v -3.35145652 -2.58494757 34.39719074
v -1.20646854 -3.87817974 34.52576831
v -0.86187247 -4.09900663 34.43457895
v -0.86187247 -4.25873129 34.26222876
v -0.51727641 -4.28081403 34.28228992
v -0.17944457 -4.26409116 34.32332637
v -0.01560179 -4.28317223 34.30873550
v -0.01560179 -2.91575936 33.94579806
v -2.02756154 -2.26828604 34.25037406
v -2.17486968 -2.26828604 34.35433018
v -2.99483544 -2.98822508 34.38989530
v -2.89525191 -3.24099711 34.27317140
v -2.79566864 -3.47683188 34.15735956
v -2.58447690 -3.35012413 34.39445456
v -1.55106455 -3.82222247 34.48747009
v -1.95728943 -3.72745985 34.41725190
v -1.72768411 -3.79306486 34.46467070
v -2.58447690 -3.54586711 34.22210437
v -2.16472355 -3.85245236 34.18745233
v -3.66937187 -2.26828604 34.30235212
v -3.85463441 -2.26828604 33.94579806
v -3.13988886 -3.14258960 34.16009470
v -3.78248349 -2.39842377 33.94579806
v -3.65697076 -2.58494757 33.94579806
v -3.49275232 -2.80727556 33.94579806
v -3.33153991 -2.97964938 33.94579806
v -3.15905389 -3.16295710 33.94579806
v -1.20646854 -4.05055355 34.39080736
v -1.20646854 -4.21563782 34.21845717
v -0.86187247 -4.38522437 33.94579806
v -0.51727641 -4.42960400 33.94579806
v -0.17268040 -4.45254462 33.94579806
v -0.01560179 -4.38565318 34.10264532
v -1.82764316 -2.26828604 33.95400453
v -1.90768575 -2.26828604 34.10446944
v -0.01560179 -2.89860794 33.60109768
v -2.98731970 -3.33533092 33.94579806
v -2.81520959 -3.49226830 33.94579806
v -2.58447690 -3.64663283 33.94579806
v -2.21319999 -3.88332521 33.94579806
v -1.86371875 -3.89683199 34.29779286
v -1.58263056 -4.02161008 34.28593816
v -1.48868397 -4.17125794 34.16739014
v -1.89566055 -4.05291175 33.94579806
v -3.53408893 -2.26828604 25.32373847
v -3.44953689 -2.41621865 25.32373847
v -3.32402416 -2.56500889 25.32373847
v -3.12861550 -2.78605044 25.32373847
v -2.96965782 -2.95499377 25.32373847
v -2.79416549 -3.13808735 25.32373847
v -1.20646854 -4.29732223 33.94579806
v -0.85811454 -4.10222270 25.32373847
v -0.84571368 -4.10458116 25.32373847
v -0.64654688 -4.13909866 25.32373847
v -0.51727641 -4.15239129 25.32373847
v -0.22641787 -4.17211557 25.32373847
v -0.01560179 -4.45833331 33.94579806
v -0.19222135 -4.17425963 25.32373847
v -1.82012755 -2.26828604 33.80901197
v -0.01560179 -2.89839354 33.44516248
v -1.81148444 -2.26828604 33.60109768
v -2.55666864 -3.32096652 25.32373847
v -2.54614659 -3.32847020 25.32373847
v -2.39545623 -3.43566782 25.32373847
v -2.25979737 -3.52271235 25.32373847
v -1.93925176 -3.71738331 25.32373847
v -1.93586967 -3.71931270 25.32373847
v -1.76751744 -3.81343235 25.32373847
v -1.71603470 -4.13288116 33.94579806
v -1.54354880 -4.18905284 33.94579806
v -1.84605675 -2.26828604 25.32373847
v -1.21323272 -4.00231462 25.32373847
v -1.20609263 -4.00445842 25.32373847
v -0.86375141 -4.10072187 25.32373847
v -0.01560179 -4.17919069 25.32373847
v -0.01560179 -2.89817913 33.25639730
v -1.81148444 -2.26828604 25.67573378
v -1.55106455 -3.89232973 25.32373847
v -1.84305045 -2.26828604 25.33650523
v -0.01560179 -2.91854663 25.33103391
v -0.01560179 -2.92026187 25.32373847
v -0.01560179 -2.89817913 26.02043365
v -0.01560179 -2.89839354 25.67573378
v -1.84267466 -2.26828604 25.33924089
v -0.01560179 -2.90718365 25.51888601
f 1 2 3
f 1 3 4
f 1 4 5
f 1 5 15
f 1 15 30
f 1 30 51
f 1 51 77
f 1 77 101
f 1 101 119
f 1 119 125
f 1 125 124
f 1 124 129
f 1 129 127
f 1 127 126
f 1 126 120
f 1 120 104
f 1 104 80
f 1 80 52
f 1 52 32
f 1 32 31
f 1 31 17
f 1 17 6
f 1 6 2
f 2 6 3
f 3 7 8
f 3 8 9
f 3 9 4
f 3 6 10
f 3 10 16
f 3 16 33
f 3 33 54
f 3 54 53
f 3 53 79
f 3 79 78
f 3 78 103
f 3 103 105
f 3 105 121
f 3 121 128
f 3 128 123
f 3 123 115
f 3 115 89
f 3 89 65
f 3 65 64
f 3 64 41
f 3 41 40
f 3 40 23
f 3 23 11
f 3 11 7
f 4 9 12
f 4 12 13
f 4 13 5
f 5 13 14
f 5 14 15
f 6 16 10
f 6 17 16
f 7 11 18
f 7 18 19
f 7 19 8
f 8 20 21
f 8 21 9
f 8 19 22
f 8 22 20
f 9 21 12
f 11 23 24
f 11 24 18
f 12 21 25
f 12 25 26
f 12 26 13
f 13 26 27
f 13 27 28
f 13 28 29
f 13 29 15
f 13 15 14
f 15 29 30
f 16 17 31
f 16 31 32
f 16 32 33
f 18 24 34
f 18 34 19
f 19 34 35
f 19 35 22
f 20 36 21
f 20 22 37
f 20 37 38
f 20 38 36
f 21 36 25
f 22 35 39
f 22 39 37
f 23 40 24
f 24 40 41
f 24 41 42
f 24 42 43
f 24 43 44
f 24 44 45
f 24 45 34
f 25 36 26
f 26 36 46
f 26 46 47
f 26 47 27
f 27 47 48
f 27 48 49
f 27 49 50
f 27 50 28
f 28 50 29
f 29 50 51
f 29 51 30
f 32 52 53
f 32 53 54
f 32 54 33
f 34 45 55
f 34 55 35
f 35 55 56
f 35 56 57
f 35 57 58
f 35 58 39
f 36 38 59
f 36 59 46
f 37 39 60
f 37 60 61
f 37 61 38
f 38 61 59
f 39 58 62
f 39 62 63
f 39 63 60
f 41 64 42
f 42 64 43
f 43 64 65
f 43 65 44
f 44 66 55
f 44 55 45
f 44 65 67
f 44 67 68
f 44 68 69
f 44 69 70
f 44 70 71
f 44 71 66
f 46 59 72
f 46 72 47
f 47 72 73
f 47 73 48
f 48 73 74
f 48 74 75
f 48 75 49
f 49 75 76
f 49 76 77
f 49 77 51
f 49 51 50
f 52 78 79
f 52 79 53
f 52 80 78
f 55 66 56
f 56 66 57
f 57 63 62
f 57 62 58
f 57 66 81
f 57 81 82
f 57 82 83
f 57 83 84
f 57 84 63
f 59 61 72
f 60 63 85
f 60 85 61
f 61 85 86
f 61 86 72
f 63 87 85
f 63 84 88
f 63 88 87
f 65 89 67
f 66 71 81
f 67 89 90
f 67 90 68
f 68 90 69
f 69 90 91
f 69 91 92
f 69 92 70
f 70 92 93
f 70 93 71
f 71 93 94
f 71 94 81
f 72 86 87
f 72 87 73
f 73 87 74
f 74 87 95
f 74 95 96
f 74 96 97
f 74 97 98
f 74 98 75
f 75 98 99
f 75 99 100
f 75 100 76
f 76 101 77
f 76 100 102
f 76 102 101
f 78 80 103
f 80 104 105
f 80 105 103
f 81 94 82
f 82 94 106
f 82 106 107
f 82 107 108
f 82 108 83
f 83 108 109
f 83 109 84
f 84 109 110
f 84 110 111
f 84 111 112
f 84 112 88
f 85 87 86
f 87 88 113
f 87 113 114
f 87 114 95
f 88 112 113
f 89 115 125
f 89 125 119
f 89 119 102
f 89 102 100
f 89 100 99
f 89 99 98
f 89 98 97
f 89 97 96
f 89 96 118
f 89 118 117
f 89 117 116
f 89 116 122
f 89 122 112
f 89 112 111
f 89 111 110
f 89 110 109
f 89 109 108
f 89 108 107
f 89 107 106
f 89 106 94
f 89 94 93
f 89 93 92
f 89 92 91
f 89 91 90
f 95 114 116
f 95 116 117
f 95 117 118
f 95 118 96
f 101 102 119
f 104 120 105
f 105 120 126
f 105 126 121
f 112 122 113
f 113 122 114
f 114 122 116
f 115 123 124
f 115 124 125
f 121 126 127
f 121 127 128
f 123 128 127
f 123 127 129
f 123 129 124

