# https://github.com/mikedh/trimesh
v 0.17234274 -4.46511623 33.94652114
v 0.51719873 -4.43139680 33.94652114
v 0.17234274 -4.30527680 34.29030124
v -0.01560153 -4.45810941 33.94652114
v -0.01560153 -4.17915679 25.32373847
v 0.16578656 -4.18397386 25.32373847
v 0.17234274 -4.18397386 25.32373847
v 0.49009980 -4.15507149 25.32373847
v 0.86161756 -4.36527157 33.94652114
v 1.20647355 -4.21594160 34.22191025
v 0.86161756 -4.24878544 34.25473817
v 0.83976361 -4.08850821 25.32373847
v -0.01560153 -4.28294293 34.30853932
v -0.01560153 -4.38541542 34.10245326
v 0.49272222 -4.25447861 34.31583476
v 0.36159836 -4.13843054 34.46538350
v 0.17234274 -4.14105809 34.46811968
v -0.01560153 -4.14018224 34.46720762
v -0.01560153 -2.91970904 25.32373847
v 1.20647355 -4.29783217 33.94652114
v 1.47221814 -4.17740510 34.17449248
v 1.20647355 -4.05084730 34.39425633
v 0.86161756 -4.09113551 34.42617323
v 0.59150231 -4.11653473 34.44805851
v 1.19904318 -4.00661762 25.32373847
v 0.86161756 -3.91859633 34.54927640
v 0.49272222 -3.98647352 34.53924581
v 0.17234274 -3.96326406 34.56113110
v -0.01560153 -3.98034255 34.54927640
v 2.91370722 0.00820056 25.32373847
v -0.01560153 -2.91883319 25.32829825
v 2.91195885 0.00820056 25.33103391
v 1.51942266 -4.19842505 33.94652114
v 1.20603639 -4.00486591 25.32373847
v 2.17241981 -3.84152333 34.18087586
v 1.89574837 -3.73291987 34.41705367
v 1.69906251 -3.77933905 34.45444086
v 1.46915843 -3.83320285 34.49456319
v 1.69163214 -4.11916228 33.94652114
v 1.89574837 -4.02325856 33.94652114
v 2.22443228 -3.86692229 33.94652114
v 1.20647355 -3.87830812 34.52647906
v 1.20647355 -3.61862376 34.61402019
v 0.86161756 -3.61862376 34.63408135
v 0.51719873 -3.61862376 34.63864164
v -0.01560153 -3.61862376 34.63590547
v 4.17074876 0.00820056 25.32373847
v -0.01560153 -2.91839539 25.33103391
v -0.01560153 -2.90700956 25.51888190
v 2.89229029 0.00820056 25.67572608
v 1.57230931 -3.86823594 25.32373847
v 2.58458603 -3.53760929 34.20367217
v 2.27338529 -3.63964372 34.31309858
v 2.39664176 -3.78109076 33.94652114
v 2.77340462 -3.46009798 34.13528118
v 2.14575803 -3.49556938 34.49821142
v 1.89574837 -3.56081875 34.53559964
v 1.88088763 -3.72197184 25.32373847
v 1.57099810 -3.64621249 34.55474875
v 1.89574837 -3.27398346 34.62405282
v 2.23973030 -2.92934317 34.63043518
v 2.92900499 -2.24006257 34.63134723
v 3.61827968 -0.51729926 34.63955370
v 3.61827968 0.00820056 34.63590547
v 3.48409624 0.00820056 34.59213490
v -0.01560153 -3.49075206 34.59395902
v 4.17074876 -0.17791408 25.32373847
v 4.44960560 0.00820056 33.94652114
v -0.01560153 -2.89825103 25.67572608
v 2.89185327 0.00820056 25.85627965
v 2.90496564 -3.25953228 34.21826305
v 2.61343346 -3.29150001 34.39060913
v 2.37522483 -3.41849586 34.44532234
v 2.58458603 -3.63000959 33.94652114
v 2.24847188 -3.52009249 25.32373847
v 2.28780900 -3.49337962 25.32373847
v 2.57059960 -3.27967638 25.32373847
v 2.58152658 -3.27091811 25.32373847
v 3.13749214 -3.13516398 34.15716646
v 2.78214620 -3.46710454 33.94652114
v 2.95435568 -3.32434385 33.94652114
v 3.15584936 -3.15224273 33.94652114
v 2.51771282 -3.18858973 34.51280230
v 2.25196836 -3.29150001 34.55110051
v 2.61343346 -2.95912165 34.56295521
v 2.96266024 -2.61798451 34.56295521
v 3.27386098 -1.89586033 34.62222871
v 3.61827968 -0.86193956 34.63408135
v 3.94040766 -0.51729926 34.55566080
v 3.99242012 0.00820056 34.54106993
v 3.81627688 0.00820056 34.58575255
v 3.33548934 0.00820056 34.54289405
v -0.01560153 -3.33748139 34.54289405
v 4.12791491 -0.51729926 25.32373847
v 4.44916857 -0.17265909 33.94652114
v 4.36218977 -0.86193956 33.94652114
v 4.26384672 0.00820056 34.32130505
v 4.26384672 -0.17003154 34.32130505
v -0.01560153 -2.89781323 25.86357406
v 2.89185327 0.00820056 33.25713680
v 2.74761690 -3.09356187 34.45808909
v 2.87655550 -3.01605081 25.32373847
v 3.46005714 -2.77563444 34.13619324
v 3.26118563 -2.90613371 34.22099819
v 3.09990313 -2.75505254 34.46173630
v 2.96266024 -2.95912165 34.41340647
v 3.32805884 -2.95736995 33.94652114
v 2.91632965 -2.98057941 25.32373847
v 3.11869764 -2.78439272 25.32373847
v 3.12175709 -2.78132736 25.32373847
v 2.86999931 -2.86409353 34.52009671
v 3.28872172 -2.24706939 34.54927640
v 3.18338545 -2.52514641 34.51280230
v 3.61827968 -1.20657973 34.61037401
v 3.56014831 -1.89586033 34.53468758
v 3.91767965 -0.86193956 34.54836434
v 4.14190159 -0.05354566 34.46811968
v 3.99242012 -0.17003154 34.54106993
v 4.11218011 0.00820056 34.48270849
v 3.16327986 0.00820056 34.39881560
v -0.01560153 -3.25909422 34.47632614
v 4.08814050 -0.82997170 25.32373847
v 4.26821751 -0.51729926 34.27206419
v 4.24723761 -0.86193956 34.25382612
v 4.20964885 -1.20657973 34.21370276
v 4.28526364 -1.20657973 33.94652114
v 4.17599361 0.00820056 34.42799632
v 4.12704059 -0.28345192 34.45717703
v 4.11261714 -0.51729926 34.44441028
v -0.01560153 -2.89781323 33.25713680
v 2.89229029 0.00820056 33.60182897
v 3.76295333 -2.37450304 33.94652114
v 3.87353445 -2.20283972 33.94652114
v 3.84599836 -2.15773445 34.18725924
v 3.52824143 -2.58470287 34.20093703
v 3.28872172 -2.61798451 34.39060913
v 3.46661307 -2.78526883 33.94652114
v 3.41328952 -2.36705842 34.44076205
v 3.49589753 -2.13759022 34.49638731
v 3.12612788 -2.77563444 25.32373847
v 3.64537874 -1.56698513 34.55201257
v 3.87309742 -1.20657973 34.52192082
v 3.73235779 -1.89586033 34.42070088
v 3.77825110 -1.69222914 34.45352880
v 3.82370738 -1.46232301 34.48818084
v 4.09032615 -0.86193956 34.42617323
v 4.14190159 0.00820056 34.46811968
v 3.09203586 0.00820056 34.31765887
v -0.01560153 -3.16494221 34.39608045
v 3.99679091 -1.19782146 25.32373847
v 4.16681500 -1.45794387 34.16172573
v 4.04530665 -1.20657973 34.38604987
v 4.18254980 -1.49735636 33.94652114
v 3.99460552 -1.20614193 25.32373847
v -0.01560153 -2.89825103 33.60182897
v 2.90015782 0.00820056 33.78238152
v 3.41940843 -2.37581669 25.32373847
v 3.54222812 -2.20415363 25.32373847
v 3.54616163 -2.19846071 25.32373847
v 4.02301566 -1.89586033 33.94652114
v 3.72361621 -1.88097121 25.32373847
v 3.90631538 -1.89586033 34.24835480
v 3.63357771 -2.26239644 34.31401064
v 3.26774182 -2.58426507 25.32373847
v 3.01336136 0.00820056 34.22646951
v -0.01560153 -3.09750308 34.31765887
v 3.85473995 -1.56917463 25.32373847
v 3.85779965 -1.56129221 25.32373847
v -0.01560153 -2.91533003 33.94652114
v 2.90889940 0.00820056 33.94652114
v 3.72842403 -1.86958538 25.32373847
v 2.96309726 0.00820056 34.09333473
v -0.01560153 -3.01692641 34.22373437
f 1 2 3
f 1 3 4
f 1 4 5
f 1 5 6
f 1 6 7
f 1 7 8
f 1 8 2
f 2 9 10
f 2 10 11
f 2 11 3
f 2 8 12
f 2 12 9
f 3 13 14
f 3 14 4
f 3 11 15
f 3 15 16
f 3 16 17
f 3 17 18
f 3 18 13
f 4 14 13
f 4 13 18
f 4 18 29
f 4 29 46
f 4 46 66
f 4 66 93
f 4 93 121
f 4 121 149
f 4 149 166
f 4 166 173
f 4 173 169
f 4 169 155
f 4 155 130
f 4 130 99
f 4 99 69
f 4 69 49
f 4 49 48
f 4 48 31
f 4 31 19
f 4 19 5
f 5 19 30
f 5 30 47
f 5 47 67
f 5 67 94
f 5 94 122
f 5 122 150
f 5 150 154
f 5 154 168
f 5 168 167
f 5 167 171
f 5 171 161
f 5 161 159
f 5 159 158
f 5 158 157
f 5 157 164
f 5 164 140
f 5 140 110
f 5 110 109
f 5 109 108
f 5 108 102
f 5 102 78
f 5 78 77
f 5 77 76
f 5 76 75
f 5 75 58
f 5 58 51
f 5 51 34
f 5 34 25
f 5 25 12
f 5 12 8
f 5 8 7
f 5 7 6
f 9 20 10
f 9 12 20
f 10 21 22
f 10 22 23
f 10 23 11
f 10 20 21
f 11 23 24
f 11 24 15
f 12 25 20
f 15 24 16
f 16 24 26
f 16 26 27
f 16 27 28
f 16 28 17
f 17 28 18
f 18 28 29
f 19 31 32
f 19 32 30
f 20 33 21
f 20 25 34
f 20 34 33
f 21 35 36
f 21 36 37
f 21 37 38
f 21 38 22
f 21 33 39
f 21 39 40
f 21 40 41
f 21 41 35
f 22 38 42
f 22 42 23
f 23 42 26
f 23 26 24
f 26 43 44
f 26 44 28
f 26 28 27
f 26 42 43
f 28 44 45
f 28 45 46
f 28 46 29
f 30 32 50
f 30 50 70
f 30 70 100
f 30 100 131
f 30 131 156
f 30 156 170
f 30 170 172
f 30 172 165
f 30 165 148
f 30 148 120
f 30 120 92
f 30 92 65
f 30 65 64
f 30 64 91
f 30 91 90
f 30 90 119
f 30 119 147
f 30 147 127
f 30 127 97
f 30 97 68
f 30 68 47
f 31 48 32
f 32 48 49
f 32 49 50
f 33 34 51
f 33 51 39
f 35 52 53
f 35 53 36
f 35 41 54
f 35 54 55
f 35 55 52
f 36 53 56
f 36 56 37
f 37 56 38
f 38 56 57
f 38 57 42
f 39 51 40
f 40 51 58
f 40 58 41
f 41 58 54
f 42 57 59
f 42 59 43
f 43 60 44
f 43 59 60
f 44 60 61
f 44 61 45
f 45 61 62
f 45 62 63
f 45 63 46
f 46 63 64
f 46 64 65
f 46 65 66
f 47 68 67
f 49 69 50
f 50 69 70
f 52 55 71
f 52 71 72
f 52 72 73
f 52 73 53
f 53 73 56
f 54 74 55
f 54 58 75
f 54 75 76
f 54 76 77
f 54 77 78
f 54 78 74
f 55 79 71
f 55 74 80
f 55 80 81
f 55 81 82
f 55 82 79
f 56 83 84
f 56 84 57
f 56 73 83
f 57 84 60
f 57 60 59
f 60 84 85
f 60 85 61
f 61 85 86
f 61 86 62
f 62 87 88
f 62 88 63
f 62 86 87
f 63 88 89
f 63 89 90
f 63 90 91
f 63 91 64
f 65 92 66
f 66 92 93
f 67 68 95
f 67 95 96
f 67 96 94
f 68 97 98
f 68 98 95
f 69 99 70
f 70 99 130
f 70 130 100
f 71 79 101
f 71 101 72
f 72 101 73
f 73 101 83
f 74 78 80
f 78 102 82
f 78 82 81
f 78 81 80
f 79 103 104
f 79 104 105
f 79 105 106
f 79 106 101
f 79 82 103
f 82 107 103
f 82 102 108
f 82 108 109
f 82 109 110
f 82 110 107
f 83 101 111
f 83 111 85
f 83 85 84
f 85 111 86
f 86 112 87
f 86 111 113
f 86 113 112
f 87 114 88
f 87 112 115
f 87 115 114
f 88 114 116
f 88 116 89
f 89 116 117
f 89 117 118
f 89 118 90
f 90 118 119
f 92 120 93
f 93 120 121
f 94 96 122
f 95 98 123
f 95 123 124
f 95 124 96
f 96 124 125
f 96 125 126
f 96 126 122
f 97 127 98
f 98 124 123
f 98 127 117
f 98 117 128
f 98 128 129
f 98 129 124
f 100 130 131
f 101 105 111
f 101 106 105
f 103 132 133
f 103 133 134
f 103 134 135
f 103 135 136
f 103 136 104
f 103 107 137
f 103 137 132
f 104 136 105
f 105 136 138
f 105 138 139
f 105 139 113
f 105 113 111
f 107 110 137
f 110 140 137
f 112 113 139
f 112 139 115
f 114 115 141
f 114 141 142
f 114 142 116
f 115 139 143
f 115 143 144
f 115 144 145
f 115 145 142
f 115 142 141
f 116 142 146
f 116 146 129
f 116 129 128
f 116 128 117
f 117 127 147
f 117 147 119
f 117 119 118
f 120 148 149
f 120 149 121
f 122 126 150
f 124 129 146
f 124 146 125
f 125 151 126
f 125 146 152
f 125 152 151
f 126 151 153
f 126 153 154
f 126 154 150
f 130 155 131
f 131 155 156
f 132 137 157
f 132 157 158
f 132 158 159
f 132 159 133
f 133 160 134
f 133 159 161
f 133 161 160
f 134 160 151
f 134 151 162
f 134 162 143
f 134 143 163
f 134 163 135
f 135 163 136
f 136 163 138
f 137 140 164
f 137 164 157
f 138 163 139
f 139 163 143
f 142 145 152
f 142 152 146
f 143 162 152
f 143 152 144
f 144 152 145
f 148 165 149
f 149 165 166
f 151 152 162
f 151 160 153
f 153 160 167
f 153 167 168
f 153 168 154
f 155 169 156
f 156 169 170
f 160 161 171
f 160 171 167
f 165 172 173
f 165 173 166
f 169 173 170
f 170 173 172

