# https://github.com/mikedh/trimesh
v -2.20019803 1.93167798 25.32286339
v -2.75469228 -1.01096629 25.32286339
v -2.20443428 1.93167798 25.29660732
v -3.72011434 1.93167798 25.32286339
v -4.06796764 -1.01096629 25.32286339
v -2.79187816 -1.01096629 25.16970391
v -2.83753678 -1.01096629 24.98591242
v -2.94909466 -1.01096629 24.63408350
v -2.30610742 1.93167798 24.98591242
v -3.81096116 1.76576547 25.32286339
v -6.73452899 1.93167798 16.39760822
v -4.10138794 -0.88249925 25.32286339
v -6.90351340 -1.01096629 16.57614818
v -5.74180528 -1.01096629 16.38360484
v -5.47915056 1.93167798 16.45537086
v -3.81284382 1.76230892 25.32286339
v -6.73923615 1.93167798 16.38360484
v -3.81566807 1.75683606 25.32286339
v -4.10656577 -0.86233628 25.32286339
v -6.98918213 -0.86147211 16.38360484
v -6.96235140 -1.01096629 16.38360484
v -4.11221426 -0.83900485 25.32286339
v -4.14328098 -0.70880948 25.32286339
v -5.50739303 1.93167798 16.38360484
v -6.83573095 1.55664640 16.38360484
v -4.10374152 0.87225689 25.32286339
v -4.01713119 1.20609840 25.32286339
v -3.90557331 1.54368450 25.32286339
v -3.90321973 1.55059747 25.32286339
v -6.99012295 -0.84534175 16.38360484
v -4.17152345 -0.52186986 25.32286339
v -4.19270517 -0.17218596 25.32286339
v -6.92610737 1.20465816 16.38360484
v -4.11221426 0.83913194 25.32286339
v -7.00848120 -0.51668509 16.38360484
v -4.19270517 0.17260115 25.32286339
v -7.00895161 0.51681219 16.38360484
v -6.93269720 1.17873435 16.38360484
v -4.16352137 0.56808377 25.32286339
v -6.89974705 1.06294112 16.56477057
v -4.17152345 0.52199695 25.32286339
v -6.98918213 0.86131123 16.38360484
v -6.98729896 0.87456123 16.38360484
f 1 2 3
f 1 3 9
f 1 9 15
f 1 15 24
f 1 24 17
f 1 17 11
f 1 11 4
f 1 4 10
f 1 10 16
f 1 16 18
f 1 18 29
f 1 29 28
f 1 28 27
f 1 27 26
f 1 26 34
f 1 34 39
f 1 39 41
f 1 41 36
f 1 36 32
f 1 32 31
f 1 31 23
f 1 23 22
f 1 22 19
f 1 19 12
f 1 12 5
f 1 5 2
f 2 5 13
f 2 13 21
f 2 21 14
f 2 14 8
f 2 8 7
f 2 7 6
f 2 6 3
f 3 6 7
f 3 7 8
f 3 8 9
f 4 11 10
f 5 12 13
f 8 14 9
f 9 14 15
f 10 11 16
f 11 17 18
f 11 18 16
f 12 19 13
f 13 20 21
f 13 19 22
f 13 22 23
f 13 23 20
f 14 21 20
f 14 20 30
f 14 30 35
f 14 35 37
f 14 37 42
f 14 42 43
f 14 43 38
f 14 38 33
f 14 33 25
f 14 25 17
f 14 17 24
f 14 24 15
f 17 25 26
f 17 26 27
f 17 27 28
f 17 28 29
f 17 29 18
f 20 23 31
f 20 31 32
f 20 32 30
f 25 33 26
f 26 33 34
f 30 32 35
f 32 36 37
f 32 37 35
f 33 38 34
f 34 38 40
f 34 40 39
f 36 41 42
f 36 42 37
f 38 43 40
f 39 40 41
f 40 43 41
f 41 43 42

