# https://github.com/mikedh/trimesh
v 6.48732226 2.51324009 16.38360484
v 5.21118887 2.51324009 16.38360484
v 6.31075431 2.95856213 16.38360484
v 5.89515015 2.84943178 17.67977115
v 6.23999946 2.51324009 17.08201167
v -0.02465535 4.97219219 18.93042713
v -0.02465535 5.42367474 17.54849155
v -0.02465535 5.75942607 16.52101079
v -0.02465535 5.80475062 16.38360484
v 1.60333905 2.51324009 25.00429172
v -0.02465535 2.92027855 25.32286339
v -0.02465535 2.99508579 24.98591242
v -0.02465535 3.04173016 24.84238038
v -0.02465535 3.28419275 24.09933870
v -0.02465535 3.44964859 23.59259962
v 6.22852582 3.16362136 16.38360484
v 6.20111683 3.09717517 16.53763941
v 6.16988244 3.01752776 16.71530429
v 5.84925556 3.07913352 17.55111706
v 3.31993608 2.51324009 25.32286339
v 5.27046955 2.51324009 19.81962700
v -0.02465535 6.99550286 16.38360484
v 1.59568991 2.51324009 25.02267102
v 1.47394083 2.51324009 25.32286339
v -0.02465535 4.17923743 25.32286339
v 6.16478344 3.30707508 16.38360484
v 3.26384246 2.58980751 25.32286339
v 5.91108652 3.51917503 16.71530429
v 5.96718013 3.62786527 16.38360484
v 5.85371725 3.78452021 16.38360484
v 5.23796105 4.63160018 16.38360484
v 0.15382478 7.00694364 16.38360484
v 0.17294770 4.18451771 25.32286339
v 0.17294770 7.00782385 16.38360484
v 3.12233303 2.78166552 25.32286339
v 5.12577331 4.77505364 16.38360484
v 0.17932209 4.18407759 25.32286339
v 0.51715945 6.99506276 16.38360484
v 2.91708071 2.98100436 25.32286339
v 4.98298899 4.91058617 16.38360484
v 0.49038752 4.15547512 25.32286339
v 0.84989754 6.94049796 16.38360484
v 0.49803653 4.15459491 25.32286339
v 2.77174689 3.11389674 25.32286339
v 4.75032743 5.10904506 16.38360484
v 1.08319667 6.89605362 16.38360484
v 0.84033608 4.08902893 25.32286339
v 1.88317047 6.74335890 16.38360484
v 1.38087626 6.83928828 16.38360484
v 2.58179311 3.27143164 25.32286339
v 4.37105718 5.42279452 16.38360484
v 1.20622063 4.00542105 25.32286339
v 1.89655656 6.74071875 16.38360484
v 2.38865200 3.42852643 25.32286339
v 3.96182741 5.76118650 16.38360484
v 1.57274236 3.86856794 25.32286339
v 2.05145183 6.54446042 16.87809097
v 2.15471531 6.58318385 16.64878954
v 2.22929453 6.64038930 16.38360484
v 2.24905476 3.52093521 25.32286339
v 3.81585603 5.87823753 16.38360484
v 3.77761045 5.85051477 16.52363655
v 1.88125815 3.72247408 25.32286339
v 3.27212904 6.16382413 16.38360484
v 3.14528058 6.22367024 16.38360484
v 2.58816725 6.48593465 16.38360484
v 2.43390928 6.55810176 16.38360484
v 2.25797891 6.63158866 16.38360484
v 3.64438760 5.97680707 16.38360484
v 3.29125170 6.15458338 16.38360484
f 1 2 9
f 1 9 22
f 1 22 32
f 1 32 34
f 1 34 38
f 1 38 42
f 1 42 46
f 1 46 49
f 1 49 48
f 1 48 53
f 1 53 59
f 1 59 68
f 1 68 67
f 1 67 66
f 1 66 65
f 1 65 64
f 1 64 70
f 1 70 69
f 1 69 61
f 1 61 55
f 1 55 51
f 1 51 45
f 1 45 40
f 1 40 36
f 1 36 31
f 1 31 30
f 1 30 29
f 1 29 26
f 1 26 16
f 1 16 3
f 1 3 4
f 1 4 5
f 1 5 21
f 1 21 20
f 1 20 24
f 1 24 23
f 1 23 10
f 1 10 2
f 2 6 7
f 2 7 8
f 2 8 9
f 2 10 11
f 2 11 12
f 2 12 13
f 2 13 14
f 2 14 15
f 2 15 6
f 3 16 17
f 3 17 18
f 3 18 4
f 4 18 17
f 4 17 19
f 4 19 20
f 4 20 21
f 4 21 5
f 6 15 14
f 6 14 13
f 6 13 12
f 6 12 11
f 6 11 25
f 6 25 22
f 6 22 9
f 6 9 8
f 6 8 7
f 10 23 11
f 11 23 24
f 11 24 20
f 11 20 27
f 11 27 35
f 11 35 39
f 11 39 44
f 11 44 50
f 11 50 54
f 11 54 60
f 11 60 63
f 11 63 56
f 11 56 52
f 11 52 47
f 11 47 43
f 11 43 41
f 11 41 37
f 11 37 33
f 11 33 25
f 16 26 19
f 16 19 17
f 19 26 20
f 20 26 28
f 20 28 29
f 20 29 30
f 20 30 31
f 20 31 27
f 22 25 32
f 25 33 34
f 25 34 32
f 26 29 28
f 27 31 35
f 31 36 35
f 33 37 38
f 33 38 34
f 35 36 39
f 36 40 39
f 37 41 38
f 38 41 43
f 38 43 42
f 39 40 44
f 40 45 44
f 42 43 46
f 43 47 48
f 43 48 49
f 43 49 46
f 44 45 50
f 45 51 50
f 47 52 53
f 47 53 48
f 50 51 55
f 50 55 54
f 52 56 57
f 52 57 53
f 53 58 59
f 53 57 58
f 54 55 61
f 54 61 62
f 54 62 60
f 56 63 64
f 56 64 65
f 56 65 66
f 56 66 67
f 56 67 68
f 56 68 58
f 56 58 57
f 58 68 59
f 60 62 69
f 60 69 63
f 61 69 62
f 63 69 70
f 63 70 64

