# https://github.com/mikedh/trimesh
v 4.44960560 0.17265896 33.94652114
v 4.36218977 0.86189500 33.94652114
v 4.24723761 0.86189500 34.25382612
v 4.26821751 0.51727691 34.27206419
v 4.26384672 0.17004167 34.32130505
v 4.44960560 0.00863835 33.94652114
v 4.17074876 0.17789366 25.32373847
v 4.12791491 0.51727691 25.32373847
v 4.28526364 1.20651296 33.94652114
v 4.20964885 1.20651296 34.21370276
v 4.08814050 0.83005052 25.32373847
v 4.09032615 0.86189500 34.42617323
v 4.11261714 0.51727691 34.44441028
v 4.26384672 0.00863835 34.32130505
v 4.12704059 0.28346026 34.45717703
v 4.14190159 0.05356953 34.46811968
v 4.17599361 0.00863835 34.42799632
v 4.17074876 0.00863835 25.32373847
v 4.18254980 1.49747511 33.94652114
v 4.16681500 1.45777876 34.16172573
v 3.99460552 1.20607670 25.32373847
v 4.04530665 1.20651296 34.38604987
v 3.87309742 1.20651296 34.52192082
v 3.91767965 0.86189500 34.54836434
v 4.11218011 0.00863835 34.48270849
v 4.14190159 0.00863835 34.46811968
v 3.94040766 0.51727691 34.55566080
v 3.99242012 0.17004167 34.54106993
v 2.91370722 0.00863835 25.32373847
v 4.02301566 1.89574888 33.94652114
v 3.99198310 1.21349257 25.32373847
v 3.85473995 1.56901619 25.32373847
v 3.84599836 2.15792034 34.18725924
v 3.90631538 1.89574888 34.24835480
v 3.73235779 1.89574888 34.42070088
v 3.77825110 1.69203167 34.45352880
v 3.82370738 1.46257708 34.48818084
v 3.56014831 1.89574888 34.53468758
v 3.64537874 1.56683503 34.55201257
v 3.61827968 1.20651296 34.61037401
v 3.61827968 0.86189500 34.63408135
v 3.99242012 0.00863835 34.54106993
v 3.61827968 0.51727691 34.63955370
v -0.01560153 2.92000586 25.32373847
v 2.91195885 0.00863835 25.33103391
v -0.01560153 2.91826083 25.33103391
v 3.87353445 2.20285152 33.94652114
v 3.79180050 1.72605719 25.32373847
v 3.72536432 1.87699122 25.32373847
v 3.72361621 1.88091715 25.32373847
v 3.76295333 2.37472411 33.94652114
v 3.46005714 2.77561517 34.13619324
v 3.52824143 2.58454854 34.20093703
v 3.63357771 2.26217817 34.31401064
v 3.49589753 2.13785391 34.49638731
v 3.28872172 2.24734644 34.54927640
v 3.27386098 1.89574888 34.62222871
v 2.92900499 2.23993058 34.63134723
v 3.81627688 0.00863835 34.58575255
v 0.51719873 3.61840241 34.63864164
v -0.01560153 3.61840241 34.63590547
v 3.61827968 0.00863835 34.63590547
v -0.01560153 4.17895189 25.32373847
v 2.89229029 0.00863835 25.67572608
v -0.01560153 2.89819453 25.67572608
v 3.54222812 2.20416004 25.32373847
v 3.46661307 2.78521233 33.94652114
v 3.42203111 2.37210683 25.32373847
v 3.13749214 3.13506486 34.15716646
v 3.26118563 2.90604665 34.22099819
v 3.28872172 2.61770179 34.39060913
v 3.32805884 2.95752118 33.94652114
v 3.15584936 3.15207762 33.94652114
v 3.41328952 2.36687225 34.44076205
v 3.09990313 2.75511262 34.46173630
v 3.18338545 2.52522189 34.51280230
v 2.96266024 2.61770179 34.56295521
v 2.23973030 2.92916650 34.63043518
v 0.86161756 3.61840241 34.63408135
v 0.17234274 3.96302063 34.56113110
v -0.01560153 3.77500728 34.60216754
v -0.01560153 3.46485109 34.58575255
v 3.48409624 0.00863835 34.59213490
v -0.01560153 4.45813611 33.94652114
v 0.17234274 4.46511571 33.94652114
v 0.17234274 4.18418672 25.32373847
v 2.89185327 0.00863835 25.85627965
v -0.01560153 2.89775827 26.02041824
v 3.26774182 2.58411228 25.32373847
v 3.12175709 2.78128626 25.32373847
v 2.77340462 3.46005277 34.13528118
v 2.90496564 3.25938899 34.21826305
v 2.74717987 3.09362348 34.45808909
v 2.96266024 2.95882995 34.41340647
v 2.95435568 3.32438672 33.94652114
v 2.91632965 2.98064128 25.32373847
v 2.77165625 3.11368979 25.32373847
v 2.86999931 2.86373276 34.52009671
v 2.61343346 2.95882995 34.56295521
v 1.89574837 3.27378446 34.62405282
v 1.20647355 3.61840241 34.61402019
v 0.86161756 3.91852545 34.54927640
v 0.49272222 3.98614048 34.53924581
v 0.36159836 4.13881928 34.46538350
v 0.17234274 4.14100031 34.46811968
v -0.01560153 4.14012780 34.46720762
v -0.01560153 3.98046939 34.54927640
v -0.01560153 3.33747342 34.54289405
v 3.33548934 0.00863835 34.54289405
v -0.01560153 4.28320998 34.30853932
v 0.17234274 4.30502105 34.29030124
v 0.51719873 4.43152620 33.94652114
v 0.49009980 4.15495952 25.32373847
v 2.89185327 0.00863835 33.25713680
v -0.01560153 2.89775827 33.25713680
v 2.17241981 3.84131379 34.18087586
v 2.58458603 3.53770069 34.20367217
v 2.78214620 3.46703238 33.94652114
v 2.58458603 3.62974434 33.94652114
v 2.39664176 3.78111437 33.94652114
v 2.61343346 3.29166973 34.39060913
v 2.37522483 3.41861140 34.44532234
v 2.51771282 3.18872067 34.51280230
v 2.58327495 3.26942214 25.32373847
v 2.25196836 3.29166973 34.55110051
v 1.89574837 3.56082080 34.53559964
v 1.57099810 3.64588484 34.55474875
v 1.20647355 3.87839285 34.52647906
v 0.86161756 4.09083456 34.42617323
v 0.59150231 4.11657195 34.44805851
v 0.49272222 4.25485503 34.31583476
v -0.01560153 4.17633461 34.42799632
v -0.01560153 3.24324875 34.46264733
v 3.16327986 0.00863835 34.39881560
v 0.86161756 4.24874794 34.25473817
v 1.20647355 4.21603121 34.22191025
v 0.86161756 4.36565673 33.94652114
v 0.49796720 4.15408701 25.32373847
v 2.89229029 0.00863835 33.60182897
v -0.01560153 2.89819453 33.60182897
v 1.47221814 4.17764337 34.17449248
v 1.89574837 3.73312965 34.41705367
v 2.27338529 3.63977749 34.31309858
v 2.22443228 3.86705092 33.94652114
v 2.38833720 3.42820829 25.32373847
v 2.24847188 3.52025194 25.32373847
v 1.88962921 3.71742566 25.32373847
v 1.88088763 3.72222398 25.32373847
v 2.14575803 3.49538706 34.49821142
v 1.46915843 3.83346167 34.49456319
v 1.20647355 4.05070170 34.39425633
v -0.01560153 3.16516457 34.39608045
v 3.09203586 0.00863835 34.31765887
v 1.20647355 4.29760519 33.94652114
v 0.83976361 4.08865353 25.32373847
v 2.90015782 0.00863835 33.78238152
v -0.01560153 2.90561039 33.75776109
v 1.69906251 3.77936960 34.45444086
v 1.89574837 4.02321953 33.94652114
v 1.69163214 4.11918899 33.94652114
v 1.51942266 4.19858220 33.94652114
v 1.87564278 3.72484153 25.32373847
v -0.01560153 3.01684782 34.22373437
v 3.01336136 0.00863835 34.22646951
v 1.21346689 4.00271699 25.32373847
v 1.20603639 4.00489826 25.32373847
v -0.01560153 2.91520729 33.94652114
v 2.90889940 0.00863835 33.94652114
v 1.57230931 3.86835970 25.32373847
v 2.96309726 0.00863835 34.09333473
f 1 2 3
f 1 3 4
f 1 4 5
f 1 5 14
f 1 14 6
f 1 6 18
f 1 18 7
f 1 7 8
f 1 8 2
f 2 9 10
f 2 10 3
f 2 8 11
f 2 11 9
f 3 5 4
f 3 10 12
f 3 12 13
f 3 13 5
f 5 13 15
f 5 15 16
f 5 16 17
f 5 17 14
f 6 14 17
f 6 17 26
f 6 26 25
f 6 25 42
f 6 42 59
f 6 59 62
f 6 62 83
f 6 83 109
f 6 109 134
f 6 134 153
f 6 153 164
f 6 164 170
f 6 170 168
f 6 168 156
f 6 156 139
f 6 139 114
f 6 114 87
f 6 87 64
f 6 64 45
f 6 45 29
f 6 29 18
f 7 18 29
f 7 29 44
f 7 44 63
f 7 63 86
f 7 86 113
f 7 113 138
f 7 138 155
f 7 155 166
f 7 166 165
f 7 165 169
f 7 169 162
f 7 162 148
f 7 148 147
f 7 147 146
f 7 146 145
f 7 145 124
f 7 124 97
f 7 97 96
f 7 96 90
f 7 90 89
f 7 89 68
f 7 68 66
f 7 66 50
f 7 50 49
f 7 49 48
f 7 48 32
f 7 32 31
f 7 31 21
f 7 21 11
f 7 11 8
f 9 19 20
f 9 20 10
f 9 11 21
f 9 21 19
f 10 20 22
f 10 22 12
f 12 23 24
f 12 24 13
f 12 22 23
f 13 24 15
f 15 24 16
f 16 25 26
f 16 26 17
f 16 24 27
f 16 27 28
f 16 28 25
f 19 30 20
f 19 21 31
f 19 31 32
f 19 32 30
f 20 33 34
f 20 34 22
f 20 30 33
f 22 34 35
f 22 35 36
f 22 36 37
f 22 37 23
f 23 37 38
f 23 38 39
f 23 39 40
f 23 40 24
f 24 40 41
f 24 41 27
f 25 28 42
f 27 42 28
f 27 41 43
f 27 43 42
f 29 45 46
f 29 46 44
f 30 47 33
f 30 32 48
f 30 48 49
f 30 49 50
f 30 50 47
f 33 47 51
f 33 51 52
f 33 52 53
f 33 53 54
f 33 54 55
f 33 55 35
f 33 35 34
f 35 55 38
f 35 38 36
f 36 38 37
f 38 55 56
f 38 56 57
f 38 57 40
f 38 40 39
f 40 57 41
f 41 57 58
f 41 58 43
f 42 43 59
f 43 60 61
f 43 61 62
f 43 62 59
f 43 58 60
f 44 46 65
f 44 65 88
f 44 88 115
f 44 115 140
f 44 140 157
f 44 157 167
f 44 167 163
f 44 163 152
f 44 152 133
f 44 133 108
f 44 108 82
f 44 82 61
f 44 61 81
f 44 81 107
f 44 107 106
f 44 106 132
f 44 132 110
f 44 110 84
f 44 84 63
f 45 64 65
f 45 65 46
f 47 50 66
f 47 66 51
f 51 67 52
f 51 66 68
f 51 68 67
f 52 69 70
f 52 70 71
f 52 71 53
f 52 67 72
f 52 72 73
f 52 73 69
f 53 71 54
f 54 71 74
f 54 74 55
f 55 74 75
f 55 75 76
f 55 76 56
f 56 77 57
f 56 76 77
f 57 77 58
f 58 78 60
f 58 77 78
f 60 79 80
f 60 80 81
f 60 81 61
f 60 78 79
f 61 82 62
f 62 82 83
f 63 84 85
f 63 85 86
f 64 87 65
f 65 87 88
f 67 68 89
f 67 89 90
f 67 90 72
f 69 73 91
f 69 91 92
f 69 92 93
f 69 93 94
f 69 94 75
f 69 75 70
f 70 75 71
f 71 75 74
f 72 90 73
f 73 95 91
f 73 90 96
f 73 96 97
f 73 97 95
f 75 93 98
f 75 98 76
f 75 94 93
f 76 98 77
f 77 99 78
f 77 98 99
f 78 100 79
f 78 99 100
f 79 100 101
f 79 101 102
f 79 102 80
f 80 102 103
f 80 103 104
f 80 104 105
f 80 105 106
f 80 106 107
f 80 107 81
f 82 108 109
f 82 109 83
f 84 110 111
f 84 111 85
f 85 111 112
f 85 112 113
f 85 113 86
f 87 114 115
f 87 115 88
f 91 116 117
f 91 117 92
f 91 95 118
f 91 118 119
f 91 119 120
f 91 120 116
f 92 117 121
f 92 121 93
f 93 121 122
f 93 122 123
f 93 123 98
f 95 97 118
f 97 124 118
f 98 123 99
f 99 123 125
f 99 125 100
f 100 125 126
f 100 126 127
f 100 127 101
f 101 127 128
f 101 128 102
f 102 128 129
f 102 129 130
f 102 130 104
f 102 104 103
f 104 130 131
f 104 131 111
f 104 111 105
f 105 111 132
f 105 132 106
f 108 133 134
f 108 134 109
f 110 132 111
f 111 131 135
f 111 135 112
f 112 135 136
f 112 136 137
f 112 137 138
f 112 138 113
f 114 139 115
f 115 139 140
f 116 141 142
f 116 142 143
f 116 143 117
f 116 120 144
f 116 144 141
f 117 143 122
f 117 122 121
f 118 124 119
f 119 124 145
f 119 145 120
f 120 145 146
f 120 146 147
f 120 147 148
f 120 148 162
f 120 162 144
f 122 149 123
f 122 143 149
f 123 149 125
f 125 149 126
f 126 149 150
f 126 150 128
f 126 128 127
f 128 150 151
f 128 151 129
f 129 151 136
f 129 136 135
f 129 135 130
f 130 135 131
f 133 152 134
f 134 152 153
f 136 151 141
f 136 141 137
f 137 141 154
f 137 154 155
f 137 155 138
f 139 156 140
f 140 156 157
f 141 151 150
f 141 150 158
f 141 158 142
f 141 144 159
f 141 159 160
f 141 160 161
f 141 161 154
f 142 158 149
f 142 149 143
f 144 162 159
f 149 158 150
f 152 163 153
f 153 163 164
f 154 161 165
f 154 165 166
f 154 166 155
f 156 167 157
f 156 168 167
f 159 162 169
f 159 169 160
f 160 169 161
f 161 169 165
f 163 168 170
f 163 170 164
f 163 167 168

