# https://github.com/mikedh/trimesh
v 0.17249976 -7.00826757 16.38360484
v -0.02439562 -6.99585875 16.38360484
v 0.51719636 -6.99473048 16.38360484
v 0.17249976 -4.18412356 25.32286339
v 0.16548626 -4.18412356 25.32286339
v -0.02439562 -4.17848329 25.32286339
v -0.02439562 -5.80460787 16.38360484
v 0.53096344 -6.99303886 16.38360484
v 0.49018171 -4.15479366 25.32286339
v -0.02439562 -2.92011166 25.32286339
v 2.62901522 -5.15483489 16.38360484
v -0.02439562 -5.46956883 17.40758502
v 2.62901522 -1.24660757 25.32286339
v 2.62901522 -1.26634906 25.27647785
v 0.85539903 -6.93945495 16.38360484
v 0.83981368 -4.08880093 25.32286339
v -0.02439562 -2.95113396 25.18283169
v 2.62901522 -5.87849740 16.38360484
v -0.02439562 -4.23263108 21.19456076
v -0.02439562 -4.18976410 21.32584035
v -0.02439562 -3.22018078 24.29625796
v -0.02439562 -2.99512894 24.98591242
v 2.62901522 -3.22976920 25.32286339
v 1.89624266 -6.74091340 16.38360484
v 1.19879693 -4.00701536 25.32286339
v 2.58797364 -6.48540364 16.38360484
v 2.62901522 -6.46566191 16.38447992
v 2.62407978 -3.23428173 25.32286339
v 2.62901522 -3.23089746 25.32023763
v 2.25730385 -6.63148954 16.38360484
v 2.15418070 -6.58354643 16.64878954
v 2.05131716 -6.54462733 16.87809097
v 1.20607003 -4.00532323 25.32286339
v 2.58745419 -6.48540364 16.38447992
v 2.62901522 -6.44648456 16.43786715
v 2.28795511 -3.49373961 25.32286339
v 2.24873199 -3.52081351 25.32286339
v 1.88065730 -3.72273959 25.32286339
v 2.58147985 -3.27150817 25.32286339
v 2.38380516 -6.53503891 16.50788301
v 1.57206679 -3.86882575 25.32286339
v 2.57057007 -3.27996884 25.32286339
f 1 2 7
f 1 7 11
f 1 11 18
f 1 18 26
f 1 26 30
f 1 30 24
f 1 24 15
f 1 15 8
f 1 8 3
f 1 3 4
f 1 4 5
f 1 5 6
f 1 6 2
f 2 6 10
f 2 10 17
f 2 17 22
f 2 22 21
f 2 21 20
f 2 20 19
f 2 19 12
f 2 12 7
f 3 8 9
f 3 9 4
f 4 9 16
f 4 16 25
f 4 25 33
f 4 33 41
f 4 41 38
f 4 38 37
f 4 37 36
f 4 36 42
f 4 42 39
f 4 39 28
f 4 28 23
f 4 23 13
f 4 13 10
f 4 10 6
f 4 6 5
f 7 12 13
f 7 13 14
f 7 14 11
f 8 15 9
f 9 15 16
f 10 13 17
f 11 14 13
f 11 13 23
f 11 23 29
f 11 29 35
f 11 35 27
f 11 27 18
f 12 19 13
f 13 19 20
f 13 20 21
f 13 21 22
f 13 22 17
f 15 24 16
f 16 24 25
f 18 27 26
f 23 28 29
f 24 30 31
f 24 31 32
f 24 32 33
f 24 33 25
f 26 27 34
f 26 34 30
f 27 35 36
f 27 36 37
f 27 37 38
f 27 38 34
f 28 39 35
f 28 35 29
f 30 34 40
f 30 40 41
f 30 41 31
f 31 41 32
f 32 41 33
f 34 38 41
f 34 41 40
f 35 39 42
f 35 42 36

