# https://github.com/mikedh/trimesh
v 22.88610736 0.52883349 -25.37918919
v 22.50984395 0.52883349 -23.39695876
v 22.53834870 0.31282124 -23.39695876
v 22.87755497 0.27490526 -25.37918919
v 13.48805040 0.52883349 -25.37918919
v 14.94037394 0.52883349 -23.39695876
v 22.51126935 -0.14693646 -23.39695876
v 22.76353595 -0.06373806 -25.37918919
v 8.32724344 0.44476865 -25.37918919
v 8.32724344 0.52211730 -24.24709571
v 8.32724344 0.52211730 -23.70957495
v 8.32724344 0.47141798 -23.39695876
v 22.39867412 -0.53064557 -24.51022898
v 22.73360580 -0.13826996 -25.37918919
v 22.12787734 -0.34604933 -23.39695876
v 21.92834405 -1.11238410 -24.46676155
v 8.32724344 -0.36359894 -25.37918919
v 8.32724344 -0.36533224 -23.39695876
v 21.92834405 -1.11238410 -24.57814679
v 22.10222338 -0.44094720 -25.37918919
v 21.59056158 -1.22613166 -24.41378559
v 16.12332609 -1.67548996 -23.39695876
v 8.32724344 -0.36793199 -24.24709571
v 14.06812490 -0.61319373 -25.37918919
v 21.00621089 -1.24736448 -24.79296146
v 15.79409441 -1.68437307 -23.49573083
v 8.32724344 -0.36663192 -23.53842150
v 15.79409441 -1.68437307 -23.39695876
v 21.59056158 -1.22613166 -24.64063127
v 20.79669982 -1.07186837 -25.06075209
v 20.56723637 -0.81404031 -25.37918919
v 21.05324422 -1.28744699 -24.40330732
v 16.07486737 -1.68437307 -23.49573083
v 8.32724344 -0.36793199 -23.70957495
v 20.77104586 -1.07186837 -25.06075209
f 1 2 3
f 1 3 4
f 1 4 8
f 1 8 14
f 1 14 20
f 1 20 31
f 1 31 24
f 1 24 17
f 1 17 9
f 1 9 5
f 1 5 6
f 1 6 2
f 2 6 12
f 2 12 18
f 2 18 28
f 2 28 22
f 2 22 15
f 2 15 7
f 2 7 3
f 3 7 4
f 4 7 8
f 5 9 10
f 5 10 11
f 5 11 6
f 6 11 12
f 7 13 14
f 7 14 8
f 7 15 16
f 7 16 13
f 9 17 23
f 9 23 34
f 9 34 27
f 9 27 18
f 9 18 12
f 9 12 11
f 9 11 10
f 13 16 14
f 14 16 19
f 14 19 20
f 15 21 16
f 15 22 21
f 16 21 29
f 16 29 19
f 17 24 25
f 17 25 26
f 17 26 23
f 18 27 28
f 19 29 20
f 20 29 30
f 20 30 31
f 21 32 29
f 21 22 32
f 22 28 33
f 22 33 32
f 23 26 28
f 23 28 34
f 24 31 35
f 24 35 25
f 25 35 30
f 25 30 29
f 25 29 32
f 25 32 33
f 25 33 26
f 26 33 28
f 27 34 28
f 30 35 31

