# https://github.com/mikedh/trimesh
v 3.44165639 5.18610932 -28.07059354
v 3.44165639 5.49624974 -28.07059354
v 3.74326859 4.94756237 -28.07059354
v 1.80045782 5.77294075 -27.36183604
v 1.80045782 6.08924286 -27.36596649
v 3.85747740 5.55287893 -28.07059354
v 3.79437832 4.91616688 -28.07059354
v 1.80045782 4.66500306 -24.18334199
v 3.50096936 3.18824185 -24.14144170
v 1.80045782 6.18577663 -24.23350398
v 2.24530409 6.02498484 -27.35298335
v 4.25815436 5.44490198 -28.07059354
v 2.62894454 5.96160698 -27.27803545
v 7.51720501 3.18824185 -28.07059354
v 1.80045782 4.66500306 -23.85227330
v 3.50096936 3.18824185 -23.88355118
v 1.80045782 6.17932150 -23.85758491
v 3.07252878 5.92933133 -23.96735096
v 3.07252878 5.92933133 -24.00039857
v 7.39605499 4.32464086 -28.07059354
v 8.21129132 3.18824185 -28.07059354
v 1.80045782 5.86712712 -22.55986660
v 3.79500934 4.91558011 -22.04290440
v 3.40064217 5.18757641 -22.04290440
v 1.97019349 5.92111567 -22.36571058
v 7.51783603 3.18824185 -22.04290440
v 1.80045782 6.01706257 -22.60825806
v 2.19356315 5.97510412 -22.63068365
v 2.58225135 5.94400211 -22.80713550
v 3.85747740 5.55287893 -22.04290440
v 4.21714013 5.45605177 -22.04290440
v 4.25815436 5.44490198 -22.04290440
v 7.39605499 4.32464086 -22.04290440
v 7.46609488 4.34958122 -23.71004982
v 7.46798794 4.35046148 -24.24707730
v 7.40741333 4.32933556 -27.47101191
v 7.66485622 4.22487952 -28.07059354
v 8.21129132 3.22491883 -28.07059354
v 8.21697049 3.18824185 -27.47101191
v 1.80045782 6.00180500 -22.55809646
v 3.40064217 5.49096826 -22.04290440
v 1.97019349 5.92228932 -22.36571058
v 8.21129132 3.18824185 -22.04290440
v 1.97965837 5.92228932 -22.36571058
v 7.42381902 4.31437128 -22.04290440
v 7.66485622 4.22487952 -22.04290440
v 7.73426509 4.24600544 -23.71004982
v 7.73615734 4.24600544 -24.24707730
v 8.06048502 3.95611073 -28.07059354
v 8.21507743 3.50366380 -27.47101191
v 8.20939826 3.50366380 -28.07059354
v 8.24599576 3.18824185 -24.24707730
v 8.24473372 3.18824185 -23.71004982
v 8.20939826 3.50366380 -22.04290440
v 8.02010222 3.98369178 -22.04290440
v 8.06048502 3.95611073 -22.04290440
v 8.06679521 3.97723665 -23.71004982
v 8.06679521 3.97723665 -24.24707730
v 8.23968557 3.50366380 -24.24707730
v 8.23968557 3.50366380 -23.71004982
v 8.07625969 3.90975106 -22.04290440
f 1 2 6
f 1 6 12
f 1 12 20
f 1 20 37
f 1 37 49
f 1 49 51
f 1 51 38
f 1 38 21
f 1 21 14
f 1 14 7
f 1 7 3
f 1 3 4
f 1 4 5
f 1 5 2
f 2 5 6
f 3 7 4
f 4 8 15
f 4 15 22
f 4 22 40
f 4 40 27
f 4 27 17
f 4 17 10
f 4 10 5
f 4 7 9
f 4 9 8
f 5 10 11
f 5 11 6
f 6 11 13
f 6 13 12
f 7 14 9
f 8 9 16
f 8 16 15
f 9 14 21
f 9 21 39
f 9 39 52
f 9 52 53
f 9 53 43
f 9 43 26
f 9 26 16
f 10 17 18
f 10 18 19
f 10 19 13
f 10 13 11
f 12 13 19
f 12 19 20
f 15 16 22
f 16 23 24
f 16 24 25
f 16 25 22
f 16 26 23
f 17 27 28
f 17 28 29
f 17 29 18
f 18 29 30
f 18 30 31
f 18 31 32
f 18 32 33
f 18 33 34
f 18 34 35
f 18 35 19
f 19 35 36
f 19 36 20
f 20 36 37
f 21 38 39
f 22 25 40
f 23 26 43
f 23 43 54
f 23 54 61
f 23 61 56
f 23 56 55
f 23 55 46
f 23 46 45
f 23 45 33
f 23 33 32
f 23 32 31
f 23 31 30
f 23 30 41
f 23 41 24
f 24 41 42
f 24 42 25
f 25 42 40
f 27 40 44
f 27 44 28
f 28 44 30
f 28 30 29
f 30 44 42
f 30 42 41
f 33 45 34
f 34 45 46
f 34 46 47
f 34 47 35
f 35 47 48
f 35 48 37
f 35 37 36
f 37 48 49
f 38 50 39
f 38 51 50
f 39 50 52
f 40 42 44
f 43 53 54
f 46 55 47
f 47 55 56
f 47 56 57
f 47 57 48
f 48 57 58
f 48 58 49
f 49 58 59
f 49 59 50
f 49 50 51
f 50 59 52
f 52 59 60
f 52 60 53
f 53 60 54
f 54 60 61
f 56 61 60
f 56 60 57
f 57 60 59
f 57 59 58

