# https://github.com/mikedh/trimesh
v -16.29284944 -0.46497797 -25.86593936
v -16.29284944 -0.31283796 -22.39087446
v -16.29284944 1.75317264 -25.86593936
v -14.95719392 -1.08346694 -25.86593936
v -16.29284944 0.21454246 -22.39087446
v -14.45348552 -1.19092913 -25.32027061
v -14.95168932 -0.37328484 -22.39087446
v -16.29284944 1.75317264 -23.84009416
v -11.09335974 1.75317264 -25.86593936
v -14.21126396 -1.06857393 -25.86593936
v -13.97248419 -1.22976722 -25.72952238
v -14.41426145 -1.21224604 -25.71285243
v -14.99779374 1.75317264 -22.39087446
v -13.97248419 -1.22976722 -25.49819150
v -11.72781237 -0.86095111 -23.70979997
v -14.70740334 -0.37941726 -22.39087446
v -10.22150228 1.75317264 -23.20563512
v -9.26362927 0.20286180 -25.86593936
v -13.84793324 -1.02915207 -25.86593936
v -9.26362927 -0.30612137 -25.86593936
v -10.25590883 1.75317264 -22.39087446
v -9.26362927 -0.31896998 -23.70979997
v -9.26362927 -0.32159815 -23.17229603
v -9.26362927 -0.32159815 -22.85727828
v -9.26362927 -0.31575802 -22.39087446
v -10.83118262 -0.56046722 -22.82223831
v -10.65295823 -0.42438776 -22.39087446
v -11.18556857 -0.42730783 -22.39087446
v -13.87683358 -0.39547821 -22.39087446
v -14.41426145 -0.38642573 -22.39087446
v -10.20498769 1.75317264 -23.08248555
v -9.26362927 0.26681332 -24.02515885
v -9.26362927 0.22242699 -22.39087446
v -10.21186803 1.75317264 -22.66064704
v -10.40592075 -0.41007893 -22.39087446
v -9.26362927 0.27820169 -23.18896597
v -9.26362927 0.27849398 -23.52337474
f 1 2 5
f 1 5 8
f 1 8 3
f 1 3 9
f 1 9 18
f 1 18 20
f 1 20 19
f 1 19 10
f 1 10 4
f 1 4 2
f 2 4 6
f 2 6 7
f 2 7 16
f 2 16 30
f 2 30 29
f 2 29 28
f 2 28 27
f 2 27 35
f 2 35 25
f 2 25 33
f 2 33 21
f 2 21 13
f 2 13 5
f 3 8 13
f 3 13 21
f 3 21 34
f 3 34 31
f 3 31 17
f 3 17 9
f 4 10 11
f 4 11 12
f 4 12 6
f 5 13 8
f 6 12 14
f 6 14 15
f 6 15 7
f 7 15 16
f 9 17 18
f 10 19 11
f 11 14 12
f 11 19 20
f 11 20 15
f 11 15 14
f 15 20 22
f 15 22 23
f 15 23 24
f 15 24 25
f 15 25 26
f 15 26 27
f 15 27 28
f 15 28 29
f 15 29 30
f 15 30 16
f 17 31 18
f 18 31 32
f 18 32 37
f 18 37 36
f 18 36 33
f 18 33 25
f 18 25 24
f 18 24 23
f 18 23 22
f 18 22 20
f 21 33 34
f 25 35 26
f 26 35 27
f 31 34 36
f 31 36 37
f 31 37 32
f 33 36 34

