# https://github.com/mikedh/trimesh
v 20.12996753 7.26528283 -40.19185242
v 20.16065523 7.62084564 -40.18297652
v 20.36130961 7.26528283 -40.19185242
v 15.05694426 5.14886199 -40.17040259
v 20.38413040 7.73422084 -39.93445919
v 21.66595872 7.73422084 -39.94111532
v 20.35186675 7.62084564 -40.18297652
v 14.83268272 5.43002224 -40.15856858
v 18.61364683 7.56517034 -40.13859860
v 21.94136803 7.60439611 -40.14821443
v 21.94136803 7.40194046 -40.14821443
v 15.56684273 5.14886199 -40.16300653
v 14.99556727 5.14886199 -40.16744449
v 20.05836130 7.73422084 -39.89155952
v 21.73363149 7.73422084 -39.94111532
v 14.83268272 5.24224458 -40.15856858
v 14.61393058 5.14886199 -39.07352204
v 14.61393058 5.66967913 -39.05725009
v 14.61393058 6.18239812 -38.73402909
v 14.61393058 6.59945679 -38.17634455
v 15.37405686 6.49797586 -39.65857582
v 15.68015386 6.53062183 -39.75916568
v 16.59529617 7.73422084 -38.02767715
v 18.54754840 7.73422084 -39.53727446
v 21.95002291 7.73422084 -39.90191527
v 22.42136517 7.01676851 -37.98255930
v 22.45441359 6.72776307 -38.10533892
v 22.44890578 6.41218527 -38.12456898
v 22.64405237 5.14886199 -37.12014391
v 22.08143179 5.14886199 -38.29690439
v 21.94530148 5.14886199 -38.57796724
v 21.92562939 5.14886199 -38.59349927
v 21.44641861 6.31222281 -39.73031979
v 16.90847531 5.14886199 -40.09939855
v 14.85392916 5.14886199 -40.07203091
v 14.61393058 5.14886199 -32.63720815
v 14.61393058 7.05650037 -37.53729862
v 15.18127099 7.73422084 -36.65195354
v 21.95395797 7.73422084 -39.79688747
v 22.42136517 7.01676851 -37.89824141
v 22.65192089 6.19074941 -35.53288323
v 22.64641309 5.14886199 -36.92266063
v 21.59199178 5.14886199 -38.78654299
v 19.11174333 5.14886199 -39.63712599
v 14.61393058 5.78457276 -32.63720815
v 20.73350504 5.14886199 -32.63720815
v 14.61393058 7.17569627 -37.14455184
v 15.02546859 7.73422084 -36.18450309
v 21.91618653 7.73422084 -39.45665459
v 21.89022026 7.54872081 -35.24664411
v 22.14674384 7.26528283 -35.53288323
v 22.39067748 6.97298747 -35.53288323
v 22.48824997 6.70448064 -35.53288323
v 22.53939773 6.19074941 -35.15567009
v 22.52287273 5.84024806 -35.18007802
v 22.59054389 5.14886199 -36.12089511
v 22.64405237 5.14886199 -36.59869971
v 22.46070936 6.63286195 -35.20374604
v 14.61393058 5.83063138 -32.67566987
v 14.74455149 5.86808571 -32.63720815
v 15.81943126 7.73422084 -33.57062919
v 20.71855438 5.41281356 -32.63720815
v 14.61393058 7.26022147 -36.60757561
v 14.98848512 7.73422084 -36.04693137
v 21.05061764 7.73422084 -36.06985946
v 22.01533337 7.26528283 -35.13200047
v 21.38110816 7.59148955 -34.65641565
v 21.44641861 7.08357893 -34.09207178
v 20.68707871 5.64614369 -32.63720815
v 14.61393058 6.00955160 -32.94415719
v 16.60080397 6.71738720 -32.63720815
v 15.17497682 7.73422084 -34.64901800
v 16.14283963 7.73422084 -33.48704962
v 14.61393058 7.16405506 -35.55507299
v 14.97825589 7.73422084 -35.64974664
v 17.85666764 7.73422084 -33.46338161
v 18.87961327 7.21289746 -32.63720815
v 20.30386768 6.36207753 -32.63720815
v 20.54386625 5.95767232 -32.63720815
v 14.61393058 6.46381151 -33.64533125
v 16.77077066 6.77331565 -32.63720815
v 16.21759295 7.73422084 -33.46855949
v 15.03963288 7.73422084 -35.00552283
v 14.61393058 7.10483678 -35.02179479
v 15.02704294 7.73422084 -35.13569850
v 17.66073308 7.73422084 -33.39385582
v 18.12578116 7.53859798 -33.11131472
v 18.32013978 7.26705427 -32.63720815
v 16.75818072 7.73422084 -33.43675549
f 1 2 7
f 1 7 3
f 1 3 4
f 1 4 2
f 2 5 6
f 2 6 15
f 2 15 7
f 2 4 8
f 2 8 9
f 2 9 5
f 3 7 10
f 3 10 11
f 3 11 12
f 3 12 4
f 4 12 34
f 4 34 44
f 4 44 43
f 4 43 32
f 4 32 31
f 4 31 30
f 4 30 29
f 4 29 42
f 4 42 57
f 4 57 56
f 4 56 46
f 4 46 36
f 4 36 17
f 4 17 35
f 4 35 13
f 4 13 8
f 5 9 14
f 5 14 24
f 5 24 23
f 5 23 38
f 5 38 48
f 5 48 64
f 5 64 75
f 5 75 85
f 5 85 83
f 5 83 72
f 5 72 61
f 5 61 73
f 5 73 82
f 5 82 89
f 5 89 86
f 5 86 76
f 5 76 65
f 5 65 49
f 5 49 39
f 5 39 25
f 5 25 15
f 5 15 6
f 7 15 10
f 8 13 16
f 8 16 17
f 8 17 18
f 8 18 19
f 8 19 20
f 8 20 21
f 8 21 22
f 8 22 9
f 9 22 21
f 9 21 23
f 9 23 24
f 9 24 14
f 10 15 25
f 10 25 26
f 10 26 27
f 10 27 11
f 11 27 28
f 11 28 29
f 11 29 30
f 11 30 31
f 11 31 32
f 11 32 33
f 11 33 34
f 11 34 12
f 13 35 16
f 16 35 17
f 17 36 45
f 17 45 59
f 17 59 70
f 17 70 80
f 17 80 84
f 17 84 74
f 17 74 63
f 17 63 47
f 17 47 37
f 17 37 20
f 17 20 19
f 17 19 18
f 20 37 21
f 21 37 38
f 21 38 23
f 25 39 26
f 26 40 41
f 26 41 27
f 26 39 40
f 27 41 29
f 27 29 28
f 29 41 42
f 32 43 33
f 33 43 44
f 33 44 34
f 36 46 62
f 36 62 69
f 36 69 79
f 36 79 78
f 36 78 77
f 36 77 88
f 36 88 81
f 36 81 71
f 36 71 60
f 36 60 45
f 37 47 38
f 38 47 48
f 39 49 50
f 39 50 51
f 39 51 52
f 39 52 40
f 40 52 53
f 40 53 41
f 41 54 55
f 41 55 56
f 41 56 57
f 41 57 42
f 41 53 58
f 41 58 54
f 45 60 61
f 45 61 59
f 46 56 55
f 46 55 54
f 46 54 62
f 47 63 64
f 47 64 48
f 49 65 50
f 50 66 58
f 50 58 52
f 50 52 51
f 50 65 67
f 50 67 68
f 50 68 66
f 52 58 53
f 54 58 69
f 54 69 62
f 58 66 68
f 58 68 69
f 59 61 70
f 60 71 61
f 61 72 70
f 61 71 73
f 63 74 75
f 63 75 64
f 65 76 67
f 67 76 77
f 67 77 68
f 68 78 79
f 68 79 69
f 68 77 78
f 70 72 80
f 71 81 82
f 71 82 73
f 72 83 80
f 74 84 75
f 75 84 85
f 76 86 87
f 76 87 77
f 77 87 88
f 80 83 84
f 81 88 82
f 82 88 89
f 83 85 84
f 86 88 87
f 86 89 88

