# https://github.com/mikedh/trimesh
v -20.21743600 11.25583019 -22.39053453
v -21.76236076 11.25583019 -21.39833705
v -21.78390509 11.56478238 -21.41204850
v -20.20284249 11.49041505 -22.39053453
v -15.14900123 11.25583019 -22.39053453
v -21.79363463 11.25583019 -21.23265336
v -22.22173768 12.33798349 -19.77463704
v -22.22173768 12.39020470 -19.77463704
v -21.88745464 12.10203128 -21.02240636
v -21.74081643 12.10203128 -21.34310889
v -20.08122081 12.93210096 -22.38520210
v -17.63561273 12.58295774 -22.39053453
v -15.16915540 11.53115340 -22.39053453
v -16.18381611 11.25583019 -19.55105937
v -21.82421342 11.25583019 -21.02240636
v -22.24745090 12.29505819 -19.41051393
v -21.76374932 12.44652674 -21.02240636
v -21.69564252 12.39758634 -21.30806772
v -22.24745090 12.42547409 -19.41051393
v -21.01943535 13.38568660 -19.94793820
v -21.25155579 13.00264054 -21.02240636
v -21.20707697 12.95998911 -21.34920326
v -20.09442576 14.01753507 -20.80606539
v -20.02075831 12.93210096 -22.38520210
v -16.74048845 12.74126179 -22.39053453
v -17.10187327 12.70216425 -22.39053453
v -15.45548421 12.11624882 -22.39053453
v -15.72930315 12.42875531 -21.70608967
v -16.23663271 12.41863899 -20.11133645
v -16.20188503 12.09875046 -19.93841606
v -16.25678687 11.91720682 -19.65123121
v -16.20049486 11.56478238 -19.59295626
v -20.43148753 11.25583019 -18.54019839
v -22.24675582 12.30244023 -19.07495684
v -21.77903951 11.25583019 -20.53335393
v -22.24675582 12.42438062 -19.07495684
v -20.10763071 14.03557997 -20.16732616
v -20.12291931 14.04870404 -20.48498169
v -20.00894513 14.01753507 -20.80606539
v -16.55284523 12.73606710 -22.39053453
v -15.66814557 12.49601367 -22.39053453
v -16.02188610 12.67345609 -22.39053453
v -19.99226477 14.03557997 -20.16732616
v -20.86306599 12.97666706 -19.04334344
v -20.86306599 12.63955324 -18.89213354
v -20.85889550 11.25583019 -18.49944402
v -21.58305691 11.25583019 -19.40899024
v -21.48993038 11.25583019 -19.16179781
v -21.36970046 11.25583019 -18.85214072
v -21.16815880 11.25583019 -18.55619547
v -21.21194254 12.98842339 -19.02125237
v -19.97211060 14.04870404 -20.48498169
f 1 2 3
f 1 3 4
f 1 4 12
f 1 12 26
f 1 26 25
f 1 25 40
f 1 40 42
f 1 42 41
f 1 41 27
f 1 27 13
f 1 13 5
f 1 5 14
f 1 14 33
f 1 33 46
f 1 46 50
f 1 50 49
f 1 49 48
f 1 48 47
f 1 47 35
f 1 35 15
f 1 15 6
f 1 6 2
f 2 6 7
f 2 7 3
f 3 7 8
f 3 8 9
f 3 9 10
f 3 10 11
f 3 11 4
f 4 11 12
f 5 13 14
f 6 15 7
f 7 16 19
f 7 19 8
f 7 15 16
f 8 17 18
f 8 18 9
f 8 19 20
f 8 20 21
f 8 21 22
f 8 22 17
f 9 18 10
f 10 18 11
f 11 18 22
f 11 22 23
f 11 23 39
f 11 39 24
f 11 24 25
f 11 25 26
f 11 26 12
f 13 27 28
f 13 28 29
f 13 29 30
f 13 30 31
f 13 31 32
f 13 32 14
f 14 32 33
f 15 34 16
f 15 35 34
f 16 34 36
f 16 36 19
f 17 22 18
f 19 36 20
f 20 36 37
f 20 37 38
f 20 38 23
f 20 23 21
f 21 23 22
f 23 38 52
f 23 52 39
f 24 39 40
f 24 40 25
f 27 41 28
f 28 41 42
f 28 42 29
f 29 31 30
f 29 42 43
f 29 43 31
f 31 43 44
f 31 44 45
f 31 45 33
f 31 33 32
f 33 45 46
f 34 35 47
f 34 47 48
f 34 48 49
f 34 49 50
f 34 50 36
f 36 50 51
f 36 51 37
f 37 43 52
f 37 52 38
f 37 51 43
f 39 52 42
f 39 42 40
f 42 52 43
f 43 51 44
f 44 51 45
f 45 51 46
f 46 51 50

