# https://github.com/mikedh/trimesh
v -12.75782733 5.47485661 -22.39053453
v -12.84786604 5.47485661 -22.09712037
v -12.19266106 5.46498453 -22.39053453
v -22.11215501 5.47485661 -22.39053453
v -12.97946070 5.47485661 -21.77775716
v -11.94332293 5.44594585 -22.28901857
v -11.94193757 5.45088190 -22.39053453
v -23.07210606 3.16975512 -22.39053453
v -22.54018439 5.47485661 -21.49495060
v -12.98777205 5.46851038 -21.75277306
v -13.97819699 5.47485661 -21.49495060
v -11.39755007 3.83047091 -21.49495060
v -10.26583296 2.78827459 -21.49495060
v -10.88363726 3.80508601 -22.32005220
v -10.88363726 3.80508601 -22.39053453
v -23.13444080 2.98853420 -22.39053453
v -23.38654885 1.74537299 -22.39053453
v -23.41425282 1.55286980 -22.39053453
v -22.78675261 3.51950453 -21.49495060
v -10.21596565 2.69308084 -21.49495060
v -10.45699164 3.04776589 -22.39053453
v -23.41425282 1.49152283 -22.39053453
v -22.78952333 3.49623491 -21.49495060
v -10.10930425 2.42865350 -21.49495060
v -9.26432595 0.22297673 -22.39053453
v -22.82553785 -1.14569997 -21.93397597
v -22.82553785 -1.14569997 -21.73988602
v -23.32836859 1.57684451 -22.27280066
v -22.31439495 -1.60122032 -22.39053453
v -22.77428598 3.11686966 -21.49495060
v -9.26432595 0.24060522 -21.49495060
v -9.26432595 0.23707936 -21.87506539
v -9.26432595 -0.31575002 -22.39053453
v -22.27976579 -1.67243896 -22.39053453
v -21.92376545 -0.42434172 -21.49495060
v -22.44737657 -0.27978795 -21.49495060
v -22.51386578 -0.25228778 -21.49495060
v -22.27976579 -1.67243896 -22.27455398
v -19.26277654 -1.14428899 -21.49495060
v -19.28216996 -1.14005844 -21.49495060
v -9.26432595 -0.31998097 -21.49495060
v -11.19115405 -0.61755000 -21.49495060
v -21.93069224 -1.72814480 -22.39053453
v -21.93761904 -1.68231105 -22.28516159
v -18.90816316 -1.15134071 -21.49495060
f 1 2 3
f 1 3 7
f 1 7 15
f 1 15 21
f 1 21 25
f 1 25 33
f 1 33 43
f 1 43 34
f 1 34 29
f 1 29 22
f 1 22 18
f 1 18 17
f 1 17 16
f 1 16 8
f 1 8 4
f 1 4 9
f 1 9 11
f 1 11 5
f 1 5 2
f 2 5 3
f 3 6 7
f 3 5 6
f 4 8 9
f 5 10 6
f 5 11 10
f 6 10 12
f 6 12 13
f 6 13 14
f 6 14 7
f 7 14 15
f 8 16 9
f 9 16 17
f 9 17 18
f 9 18 19
f 9 19 23
f 9 23 30
f 9 30 37
f 9 37 36
f 9 36 35
f 9 35 40
f 9 40 39
f 9 39 45
f 9 45 42
f 9 42 41
f 9 41 31
f 9 31 24
f 9 24 20
f 9 20 13
f 9 13 12
f 9 12 11
f 10 11 12
f 13 20 21
f 13 21 15
f 13 15 14
f 18 22 23
f 18 23 19
f 20 24 25
f 20 25 21
f 22 26 27
f 22 27 28
f 22 28 23
f 22 29 26
f 23 28 27
f 23 27 30
f 24 31 32
f 24 32 25
f 25 32 31
f 25 31 41
f 25 41 33
f 26 29 34
f 26 34 38
f 26 38 27
f 27 35 36
f 27 36 37
f 27 37 30
f 27 38 39
f 27 39 40
f 27 40 35
f 33 41 42
f 33 42 43
f 34 43 38
f 38 43 44
f 38 44 45
f 38 45 39
f 42 45 43
f 43 45 44

