mtllib material.mtl
usemtl material_0
v -7.89599974 -0.09754740 -0.08813056
v -7.89599974 3.83463392 -0.08813120
v -7.89599974 3.83462871 -32.08812858
v -7.89599974 -0.09755261 -32.08812794
v -3.78914827 5.26350275 -32.08812881
v -7.89599974 3.83462871 -32.08812858
v -7.89599974 3.83463392 -0.08813120
v -3.78914827 5.26350796 -0.08813143
v 7.89599974 -0.09754740 -0.08813056
v 7.89599974 -0.09755261 -32.08812794
v 7.89599974 3.83462871 -32.08812858
v 7.89599974 3.83463392 -0.08813120
v 3.78576959 5.26467806 -32.08812881
v 3.78576959 5.26468327 -0.08813143
v 7.89599974 3.83463392 -0.08813120
v 7.89599974 3.83462871 -32.08812858
v -7.89499953 -0.09754740 -0.08813056
v -7.89499953 -0.09755261 -32.08812794
v -7.89518492 3.83404926 -32.08812858
v -7.89518492 3.83405447 -0.08813120
v -3.73462747 5.28153635 -32.08812881
v -3.73462747 5.28154156 -0.08813144
v -7.89518492 3.83405447 -0.08813120
v -7.89518492 3.83404926 -32.08812858
v 7.89499953 -0.09754740 -0.08813056
v 7.89518492 3.83405447 -0.08813120
v 7.89518492 3.83404926 -32.08812858
v 7.89499953 -0.09755261 -32.08812794
v 3.76670908 5.27037493 -32.08812881
v 7.89518492 3.83404926 -32.08812858
v 7.89518492 3.83405447 -0.08813120
v 3.76670908 5.27038014 -0.08813143
vt -0.71244204 3.25451183
vt -0.02684879 3.25451231
vt -0.02684903 -2.32482433
vt -0.71244013 -2.32482433
vt 0.73129994 -2.32482457
vt -0.02684903 -2.32482433
vt -0.02684879 3.25451231
vt 0.73130012 3.25451183
vt -0.71244204 3.25451183
vt -0.71244013 -2.32482433
vt -0.02684903 -2.32482433
vt -0.02684879 3.25451231
vt 0.73192364 -2.32482457
vt 0.73192382 3.25451207
vt -0.02684879 3.25451231
vt -0.02684903 -2.32482433
vt -0.71244204 3.25451183
vt -0.71244013 -2.32482433
vt -0.02684903 -2.32482433
vt -0.02684879 3.25451231
vt 0.74129367 -2.32482433
vt 0.74129385 3.25451207
vt -0.02684879 3.25451231
vt -0.02684903 -2.32482433
vt -0.71244204 3.25451183
vt -0.02684879 3.25451231
vt -0.02684903 -2.32482433
vt -0.71244013 -2.32482433
vt 0.73537064 -2.32482457
vt -0.02684903 -2.32482433
vt -0.02684879 3.25451231
vt 0.73537076 3.25451207
f 1/1 2/2 3/3
f 1/1 3/3 4/4
f 5/5 6/6 7/7
f 5/5 7/7 8/8
f 9/9 10/10 11/11
f 9/9 11/11 12/12
f 13/13 14/14 15/15
f 13/13 15/15 16/16
f 17/17 18/18 19/19
f 17/17 19/19 20/20
f 21/21 22/22 23/23
f 21/21 23/23 24/24
f 25/25 26/26 27/27
f 25/25 27/27 28/28
f 29/29 30/30 31/31
f 29/29 31/31 32/32

