# https://github.com/mikedh/trimesh
v -16.55041084 8.43677906 -7.99910962
v -16.61623539 8.43677906 -7.16798891
v -11.52111285 6.05883373 -6.46331061
v -11.19042373 5.82723780 -6.46331061
v -11.89568501 5.99207966 -6.86954902
v -12.40347341 5.50640930 -7.44688323
v -12.38309903 3.39684284 -7.99910962
v -24.38038113 8.43677906 -7.99910962
v -16.74004802 8.43677906 -6.64011921
v -16.79803609 8.43677906 -6.46331061
v -11.00548796 5.65285968 -6.46331061
v -11.99128677 3.24562433 -7.88228945
v -12.24047996 3.00108611 -7.99910962
v -25.29565477 8.11663168 -7.99910962
v -24.40859120 8.43677906 -7.58445095
v -23.46197322 8.43677906 -6.46331061
v -10.55255336 1.47800237 -6.46331061
v -10.54785194 1.47800237 -6.48060037
v -10.55568843 1.47800237 -6.56269048
v -10.66226095 1.47800237 -6.91585604
v -11.95994242 1.68030838 -7.89085945
v -12.13547457 1.47800237 -7.99880852
v -12.18092395 1.47800237 -7.99910962
v -25.48842622 7.93612325 -7.99910962
v -25.41789945 8.05805163 -7.88018418
v -24.32239306 8.43677906 -6.95344330
v -24.00110676 8.43677906 -6.51548098
v -24.16253388 8.30940133 -6.46331061
v -22.81156574 1.47800237 -6.46331061
v -11.96307670 1.47800237 -7.88710057
v -23.10307403 1.47800237 -7.99910962
v -25.56992215 7.82168762 -7.99910962
v -26.55728889 7.05197153 -7.36509422
v -25.99934810 7.55739562 -7.36749978
v -25.99934810 7.55739562 -7.29593439
v -24.61703562 8.17793660 -6.46331061
v -24.03872125 8.43677906 -6.55893159
v -24.59822838 8.18338595 -6.46331061
v -25.42416800 2.11216631 -6.46331061
v -25.05273012 1.55701746 -7.77163373
v -22.85231451 1.47800237 -6.51277512
v -23.10307403 1.47800237 -7.85357329
v -23.68452268 1.48685746 -7.99910962
v -25.88650623 6.10923997 -7.99910962
v -26.51653852 3.79055596 -7.86845748
v -26.52907882 3.50378552 -7.88679947
v -26.52750928 2.96634684 -7.89236253
v -26.55728889 7.05197153 -7.23759958
v -24.83174860 7.99810924 -6.46331061
v -25.67806180 2.27292157 -6.46331061
v -26.08084402 2.05222393 -7.99910962
v -25.05273012 1.55701746 -7.96513069
v -25.69843699 1.85809234 -7.99910962
v -23.02001017 1.47800237 -6.91555574
v -23.04351803 1.47800237 -7.05026706
v -25.08250813 1.58017698 -7.99910962
v -26.40369826 3.29330589 -7.99910962
v -26.40683253 2.96157876 -7.99910962
v -26.51497219 2.63325736 -7.87597446
v -26.52750928 2.96634684 -7.81658741
v -26.40683253 2.67412725 -7.99910962
v -26.39429383 2.52086514 -7.99910962
v -26.54631813 6.72773735 -7.25188239
v -26.13726576 3.50378552 -6.64312616
v -26.11375630 4.04122440 -6.59892441
v -25.99151161 4.04122440 -6.46331061
v -25.84889174 6.26318314 -6.46331061
v -25.81911534 6.66030201 -6.46331061
v -25.80187443 6.73795477 -6.46331061
v -25.68589829 6.91641979 -6.46331061
v -25.55111490 7.11668220 -6.46331061
v -25.77053009 2.42618308 -6.46331061
v -25.98210719 2.66731557 -6.60794526
v -26.51497219 2.63325736 -7.84244717
v -26.04793175 2.96634684 -6.56915522
v -25.99934810 2.96634684 -6.46331061
v -25.95389712 2.80831665 -6.46331061
f 1 2 3
f 1 3 4
f 1 4 5
f 1 5 6
f 1 6 7
f 1 7 13
f 1 13 23
f 1 23 31
f 1 31 43
f 1 43 56
f 1 56 53
f 1 53 51
f 1 51 62
f 1 62 61
f 1 61 58
f 1 58 57
f 1 57 44
f 1 44 32
f 1 32 24
f 1 24 14
f 1 14 8
f 1 8 15
f 1 15 26
f 1 26 37
f 1 37 27
f 1 27 16
f 1 16 10
f 1 10 9
f 1 9 2
f 2 9 3
f 3 9 10
f 3 10 16
f 3 16 28
f 3 28 38
f 3 38 36
f 3 36 49
f 3 49 71
f 3 71 70
f 3 70 69
f 3 69 68
f 3 68 67
f 3 67 66
f 3 66 76
f 3 76 77
f 3 77 72
f 3 72 50
f 3 50 39
f 3 39 29
f 3 29 17
f 3 17 11
f 3 11 4
f 4 11 5
f 5 11 6
f 6 11 12
f 6 12 7
f 7 12 13
f 8 14 15
f 11 17 18
f 11 18 19
f 11 19 20
f 11 20 12
f 12 20 21
f 12 21 22
f 12 22 13
f 13 22 23
f 14 24 25
f 14 25 26
f 14 26 15
f 16 27 28
f 17 29 41
f 17 41 54
f 17 54 55
f 17 55 42
f 17 42 31
f 17 31 23
f 17 23 22
f 17 22 30
f 17 30 20
f 17 20 19
f 17 19 18
f 20 30 21
f 21 30 22
f 24 32 33
f 24 33 25
f 25 33 34
f 25 34 35
f 25 35 36
f 25 36 26
f 26 36 37
f 27 37 36
f 27 36 38
f 27 38 28
f 29 39 40
f 29 40 41
f 31 42 43
f 32 44 45
f 32 45 33
f 33 45 46
f 33 46 47
f 33 47 60
f 33 60 48
f 33 48 35
f 33 35 34
f 35 48 49
f 35 49 36
f 39 50 51
f 39 51 40
f 40 52 43
f 40 43 41
f 40 51 53
f 40 53 52
f 41 43 54
f 42 55 43
f 43 55 54
f 43 52 56
f 44 57 45
f 45 57 46
f 46 57 58
f 46 58 47
f 47 59 74
f 47 74 60
f 47 58 61
f 47 61 62
f 47 62 59
f 48 60 63
f 48 63 64
f 48 64 65
f 48 65 66
f 48 66 67
f 48 67 68
f 48 68 69
f 48 69 70
f 48 70 71
f 48 71 49
f 50 72 73
f 50 73 74
f 50 74 51
f 51 74 59
f 51 59 62
f 52 53 56
f 60 74 64
f 60 64 63
f 64 74 75
f 64 75 76
f 64 76 65
f 65 76 66
f 72 77 73
f 73 77 76
f 73 76 75
f 73 75 74

