# https://github.com/mikedh/trimesh
v 1.80045582 6.22587105 -0.06404826
v 2.24519339 6.01624617 -1.57222337
v 1.80045582 6.07809292 -1.58693060
v 1.80045582 6.05638703 0.24810268
v 2.62136451 5.95202058 0.22843218
v 2.69936661 5.97521312 -0.06404826
v 2.62073549 5.95826480 -1.48968162
v 3.85744537 5.56815421 -1.60365900
v 3.01829419 5.62316216 -1.60365900
v 3.01829419 5.45605687 -1.60365900
v 3.05792426 5.25475745 -1.60365900
v 1.80045582 5.78164458 -1.58233409
v 2.24519339 5.99008020 0.24516059
v 1.80045582 5.85806103 0.24810268
v 4.39465303 4.57860543 0.27016271
v 4.93186068 4.57860543 0.27200131
v 3.85744537 5.44475794 0.24240429
v 5.46906834 4.89943567 0.23891126
v 7.08069131 4.35470814 0.23504987
v 4.20908343 5.40877975 0.22475498
v 4.28582750 5.43643242 -0.06404826
v 4.28960200 5.44862338 -0.60157863
v 4.26632717 5.44654199 -1.60365900
v 3.77441074 4.90984268 -1.60365900
v 1.80045582 4.74035866 -0.38502225
v 7.51221852 3.18824205 -1.60365900
v 3.55172754 3.18824205 -0.36406570
v 6.54348365 4.04101399 0.27439086
v 6.54348365 4.41447356 0.25012546
v 1.80045582 4.76860597 0.24056568
v 4.93186068 3.50372005 0.25968363
v 7.08069131 4.04101399 0.25968363
v 7.58644652 4.03625653 0.24056568
v 7.38640873 4.32110869 0.21482844
v 5.79743157 4.86494425 0.22016007
v 7.43547445 4.33865180 -0.06404826
v 7.43107174 4.33746243 -0.60157863
v 7.40339339 4.32765021 -1.60365900
v 1.80045582 4.72400492 -0.33079146
v 8.21612406 3.18824205 -1.60365900
v 3.54354992 3.18824205 -0.24016018
v 1.80045582 4.66245546 -0.06404826
v 6.54348365 3.18824205 0.25692733
v 7.62356052 3.18824205 0.25435361
v 7.77390316 3.18824205 0.25325012
v 7.97834366 3.18824205 0.25012546
v 7.97834366 3.50372005 0.25012546
v 3.56871180 3.18824205 0.22107937
v 4.93186068 3.18824205 0.25251500
v 7.94814925 3.85368968 0.23486569
v 7.70407868 4.20336201 -0.06404826
v 7.70030378 4.23428534 -0.60157863
v 7.67199682 4.22477041 -1.60365900
v 8.21423661 3.50372005 -1.60365900
v 8.22618913 3.18824205 -0.60157863
v 3.53222722 3.18824205 -0.06404826
v 8.15510662 3.18824205 -0.06404826
v 8.15447720 3.50372005 -0.06404826
v 8.01986118 3.93456620 -0.06404826
v 8.06074928 3.96548953 -0.60157863
v 8.06074928 3.95597479 -1.60365900
v 8.00853807 3.99225017 -1.60365900
v 8.22367306 3.50372005 -0.60157863
v 8.08150804 3.89502001 -1.60365900
f 1 2 3
f 1 3 12
f 1 12 25
f 1 25 39
f 1 39 42
f 1 42 30
f 1 30 14
f 1 14 4
f 1 4 5
f 1 5 6
f 1 6 7
f 1 7 2
f 2 7 8
f 2 8 3
f 3 9 10
f 3 10 11
f 3 11 12
f 3 8 9
f 4 13 5
f 4 14 15
f 4 15 16
f 4 16 13
f 5 13 17
f 5 17 18
f 5 18 19
f 5 19 20
f 5 20 21
f 5 21 6
f 6 21 22
f 6 22 23
f 6 23 7
f 7 23 8
f 8 23 38
f 8 38 53
f 8 53 62
f 8 62 61
f 8 61 64
f 8 64 54
f 8 54 40
f 8 40 26
f 8 26 24
f 8 24 11
f 8 11 10
f 8 10 9
f 11 24 12
f 12 24 26
f 12 26 27
f 12 27 25
f 13 16 28
f 13 28 29
f 13 29 17
f 14 30 15
f 15 30 31
f 15 31 28
f 15 28 16
f 17 29 18
f 18 29 19
f 19 32 33
f 19 33 34
f 19 34 35
f 19 35 20
f 19 29 32
f 20 35 34
f 20 34 21
f 21 34 36
f 21 36 22
f 22 36 37
f 22 37 23
f 23 37 38
f 25 27 39
f 26 40 55
f 26 55 57
f 26 57 46
f 26 46 45
f 26 45 44
f 26 44 43
f 26 43 49
f 26 49 48
f 26 48 56
f 26 56 41
f 26 41 27
f 27 41 42
f 27 42 39
f 28 31 43
f 28 43 44
f 28 44 45
f 28 45 46
f 28 46 47
f 28 47 32
f 28 32 29
f 30 42 48
f 30 48 49
f 30 49 31
f 31 49 43
f 32 47 33
f 33 47 50
f 33 50 34
f 34 50 51
f 34 51 36
f 36 51 52
f 36 52 37
f 37 52 53
f 37 53 38
f 40 54 55
f 41 56 42
f 42 56 48
f 46 57 47
f 47 57 58
f 47 58 50
f 50 58 59
f 50 59 51
f 51 59 60
f 51 60 52
f 52 60 61
f 52 61 62
f 52 62 53
f 54 63 55
f 54 64 63
f 55 63 58
f 55 58 57
f 58 63 59
f 59 63 60
f 60 63 61
f 61 63 64

