# https://github.com/mikedh/trimesh
v -2.03935720 0.41448935 -38.84946550
v -2.15400604 0.41448935 -38.81566115
v -1.29841053 1.65376034 -39.06129886
v -1.29841053 1.51809169 -39.06129886
v -1.18143261 1.51809169 -39.06129886
v -0.57299189 0.41448935 -38.60908416
v -2.23112868 0.41448935 -38.78035453
v -2.23112868 1.46932706 -38.67443785
v -1.18143261 1.65376034 -39.06129886
v -2.23112868 1.71941513 -38.62110394
v -2.23112868 3.19733237 -38.19367675
v -2.07558934 3.19733237 -38.22597883
v -0.48318802 0.41448935 -38.59331029
v -2.23112868 0.41448935 -34.47755063
v -0.63769205 1.68236520 -38.58129050
v -0.67495940 3.19733237 -37.98184340
v -0.60637714 2.96604174 -38.02691320
v -2.23112868 3.19733237 -33.92317494
v -0.13846529 1.66765397 -37.99761727
v -0.13846529 1.58292928 -37.99761727
v 0.37447792 2.14685353 -36.88886428
v -0.33334231 0.41448935 -38.23048565
v -2.22776418 0.41448935 -34.47830177
v -2.23112868 1.56413164 -31.87318205
v -0.08696393 2.78160846 -37.54014461
v -0.65037328 3.19733237 -37.92850789
v -2.23112868 2.43535367 -31.95506235
v -2.15866441 3.19733237 -33.95171974
v 0.37447792 2.19888696 -36.88886428
v 0.40863962 2.09427477 -36.60641768
v -0.33101308 0.41448935 -38.21921860
v -2.11233898 0.41448935 -34.50609543
v -2.23112868 1.85535645 -31.39768051
v -0.95498182 0.41448935 -36.06105563
v -0.00647690 2.85843300 -37.14426837
v -0.43298063 3.19733237 -37.08342149
v -2.23112868 2.36070847 -31.78003470
v -1.21973508 3.19733237 -34.64957214
v 0.40863962 2.23648183 -36.60641768
v 0.41278048 2.08555742 -36.29767969
v -0.46740114 0.41448935 -37.66634358
v -2.22439968 1.89131692 -31.39167142
v -2.23112868 1.87960223 -31.38791413
v -0.41408815 3.19733237 -36.71083208
v -0.40787691 3.19733237 -36.57486674
v -0.03753295 2.82792108 -36.72360301
v 0.41278048 2.22313314 -36.29767969
v -2.23112868 2.14440153 -31.40594301
v -2.23112868 1.89131692 -31.38866687
f 1 2 3
f 1 3 4
f 1 4 5
f 1 5 6
f 1 6 13
f 1 13 22
f 1 22 31
f 1 31 41
f 1 41 34
f 1 34 32
f 1 32 23
f 1 23 14
f 1 14 7
f 1 7 2
f 2 7 8
f 2 8 3
f 3 9 5
f 3 5 4
f 3 8 10
f 3 10 11
f 3 11 12
f 3 12 9
f 5 9 13
f 5 13 6
f 7 14 24
f 7 24 33
f 7 33 43
f 7 43 49
f 7 49 48
f 7 48 37
f 7 37 27
f 7 27 18
f 7 18 11
f 7 11 10
f 7 10 8
f 9 15 13
f 9 12 16
f 9 16 17
f 9 17 15
f 11 18 28
f 11 28 38
f 11 38 45
f 11 45 44
f 11 44 36
f 11 36 26
f 11 26 16
f 11 16 12
f 13 15 19
f 13 19 20
f 13 20 21
f 13 21 22
f 14 23 24
f 15 17 25
f 15 25 19
f 16 26 25
f 16 25 17
f 18 27 28
f 19 25 29
f 19 29 21
f 19 21 20
f 21 29 39
f 21 39 30
f 21 30 31
f 21 31 22
f 23 32 24
f 24 32 34
f 24 34 33
f 25 35 29
f 25 26 35
f 26 36 35
f 27 37 38
f 27 38 28
f 29 35 39
f 30 39 47
f 30 47 40
f 30 40 31
f 31 40 41
f 33 42 43
f 33 34 40
f 33 40 42
f 34 41 40
f 35 36 44
f 35 44 45
f 35 45 46
f 35 46 47
f 35 47 39
f 37 48 38
f 38 48 47
f 38 47 45
f 40 47 42
f 42 48 49
f 42 49 43
f 42 47 48
f 45 47 46

