# https://github.com/mikedh/trimesh
v -6.76186932 2.61794755 0.07634703
v -7.25774363 2.61794755 3.16037963
v -7.19743649 2.54453515 3.16037963
v -6.80453676 1.49375702 2.60701774
v -6.76473372 1.49375702 2.08406005
v -6.76186932 2.46473889 -0.09391755
v -6.76186932 2.61794755 -0.38782820
v -7.47831596 2.61794755 3.63874478
v -7.15627692 2.19057041 3.44415554
v -7.00204166 1.49375702 3.13301520
v -6.78825359 1.49375702 -0.03817649
v -6.76186932 2.47112275 -0.37667967
v -7.47364257 1.49375702 -5.75726697
v -7.56877667 2.61794755 -5.75726697
v -7.40383731 2.41873217 3.69448585
v -8.19355662 2.61794755 4.56506765
v -7.15627692 2.14082162 3.44415554
v -7.61762538 2.28863698 4.00055882
v -7.38453919 1.49375702 3.68637870
v -8.12510869 1.49375702 -5.75726697
v -8.23667650 2.61794755 -5.75726697
v -8.30210948 2.61794755 4.59547347
v -8.30210948 2.55234962 4.59547347
v -8.30210948 1.49375702 4.53466344
v -7.63888383 1.49375702 3.99954503
v -7.56817368 1.49375702 3.91745172
v -8.30210948 1.49375702 -0.03919028
v -8.30210948 1.89141702 -0.01587942
v -8.30210948 2.42753721 0.06317251
v -8.30210948 2.52857590 0.26586890
v -8.30210948 2.61794755 0.99456435
f 1 2 3
f 1 3 4
f 1 4 5
f 1 5 6
f 1 6 12
f 1 12 7
f 1 7 14
f 1 14 21
f 1 21 31
f 1 31 22
f 1 22 16
f 1 16 8
f 1 8 2
f 2 8 3
f 3 8 9
f 3 9 4
f 4 10 19
f 4 19 26
f 4 26 25
f 4 25 24
f 4 24 27
f 4 27 20
f 4 20 13
f 4 13 11
f 4 11 5
f 4 9 10
f 5 11 12
f 5 12 6
f 7 12 13
f 7 13 14
f 8 15 9
f 8 16 15
f 9 17 10
f 9 15 18
f 9 18 17
f 10 17 19
f 11 13 12
f 13 20 21
f 13 21 14
f 15 16 18
f 16 22 23
f 16 23 24
f 16 24 25
f 16 25 18
f 17 18 26
f 17 26 19
f 18 25 26
f 20 27 21
f 21 27 28
f 21 28 29
f 21 29 30
f 21 30 31
f 22 31 30
f 22 30 29
f 22 29 28
f 22 28 27
f 22 27 24
f 22 24 23

