# https://github.com/mikedh/trimesh
v -21.51860490 3.38366371 -3.14090263
v -21.51860490 3.86667121 -4.43030638
v -21.14881984 1.00557745 -4.43030638
v -21.14041479 0.94311179 -4.43030638
v -21.40417747 2.57249257 -3.14090263
v -21.51860490 9.93109938 -3.14090263
v -21.51860490 7.03833276 -4.43030638
v -21.05335661 0.94311179 -4.26330820
v -21.15700867 1.98127034 -3.14090263
v -21.26906417 2.17746475 -3.14090263
v -21.37831851 2.42908593 -3.14090263
v -19.31735006 0.94311179 -4.43030638
v -20.31981961 9.82288445 -3.14090263
v -20.32606894 9.83608139 -3.28846174
v -19.97826544 9.74634218 -4.17103691
v -20.13169591 9.74634218 -4.17103691
v -21.24363603 9.83608139 -3.65186774
v -21.51860490 9.91174400 -3.20906467
v -21.51860490 9.33195859 -3.64732329
v -20.17199303 9.41465969 -4.22531414
v -19.66838713 8.27620458 -4.43030638
v -20.78463707 0.94311179 -3.86594730
v -20.99711265 1.76044177 -3.14090263
v -19.31735006 0.94311179 -3.14090263
v -19.31735006 7.19405648 -4.43030638
v -19.94098568 9.73050585 -3.14090263
v -19.96059531 9.75162096 -3.82568141
v -19.31735006 8.73897683 -3.14090263
v -19.48845066 8.19526339 -4.43030638
v -19.65394897 8.27620458 -4.43030638
v -21.51860490 9.38914547 -3.62472913
v -21.51860490 9.47976434 -3.56161523
v -19.82181761 0.94311179 -3.24478691
v -20.71697231 1.53521408 -3.14090263
v -19.65502683 0.94311179 -3.14090263
v -19.31735006 8.28324288 -3.62081569
v -19.85737408 9.61173377 -3.14090263
f 1 2 3
f 1 3 4
f 1 4 5
f 1 5 11
f 1 11 10
f 1 10 9
f 1 9 23
f 1 23 34
f 1 34 35
f 1 35 24
f 1 24 28
f 1 28 37
f 1 37 26
f 1 26 13
f 1 13 6
f 1 6 18
f 1 18 32
f 1 32 31
f 1 31 19
f 1 19 7
f 1 7 2
f 2 7 21
f 2 21 30
f 2 30 29
f 2 29 25
f 2 25 12
f 2 12 4
f 2 4 3
f 4 8 9
f 4 9 10
f 4 10 11
f 4 11 5
f 4 12 24
f 4 24 35
f 4 35 33
f 4 33 22
f 4 22 8
f 6 13 14
f 6 14 15
f 6 15 16
f 6 16 17
f 6 17 18
f 7 19 17
f 7 17 16
f 7 16 20
f 7 20 21
f 8 22 23
f 8 23 9
f 12 25 36
f 12 36 28
f 12 28 24
f 13 26 14
f 14 27 15
f 14 26 27
f 15 27 28
f 15 28 29
f 15 29 30
f 15 30 21
f 15 21 16
f 16 21 20
f 17 19 31
f 17 31 32
f 17 32 18
f 22 33 34
f 22 34 23
f 25 29 36
f 26 37 27
f 27 37 28
f 28 36 29
f 33 35 34

