# https://github.com/mikedh/trimesh
v 1.79982700 6.00169992 -22.55824861
v 1.79982700 5.86735379 -22.55982135
v 1.79982700 6.01697155 -22.60856596
v 0.99174184 6.48817905 -22.78467627
v 0.37384084 6.66944668 -22.35383494
v 0.56205208 6.55834001 -22.35383494
v 0.56205208 6.36379266 -22.35383494
v 0.09487788 6.27747471 -22.35383494
v -1.78407764 5.92135783 -22.36641447
v 1.79982700 4.66487834 -23.85234537
v 1.79982700 6.17920503 -23.85784837
v 1.48535239 6.47556333 -23.95533838
v 0.09487788 6.78387330 -22.35383494
v -0.42872020 6.33369204 -22.35383494
v -1.78999625 5.92135783 -22.36641447
v -2.23112868 4.61330896 -23.86335217
v 1.79982700 4.66487834 -24.18333799
v 1.79982700 6.18562358 -24.23365533
v 1.48535239 6.47556333 -24.02373826
v 0.09487788 6.87439648 -24.24702124
v 0.09487788 6.82725364 -22.63529697
v -0.14107665 6.74956746 -22.35383494
v -0.42872020 6.67143863 -22.35383494
v -1.78999625 5.92202182 -22.36641447
v -2.23112868 5.82441614 -22.67853858
v -2.23112868 4.61330896 -24.17154482
v 1.79982700 5.81910427 -29.02951638
v 1.79982700 6.04530156 -29.02951638
v 1.00121163 6.49149896 -28.92652337
v 0.09487788 6.78984916 -30.38572325
v 0.09487788 6.82614696 -29.08297841
v -1.35872829 6.49769614 -24.07326924
v -1.35872829 6.49769614 -23.93017930
v -2.23112868 5.97713251 -22.67853858
v -2.23112868 5.80228333 -29.00199979
v -2.05435992 5.79165958 -29.04052318
v 1.05684639 6.23608637 -30.38572325
v 0.84535537 6.47202211 -30.38572325
v 0.32254639 6.70176067 -30.38572325
v -0.43384963 6.67188137 -30.38572325
v -2.23112868 6.06986898 -23.85706280
v -1.27152757 6.46715288 -27.22045498
v -2.23112868 5.99506009 -29.00199979
v -2.23112868 6.02427539 -27.34074415
v -0.72583349 6.42001000 -30.38572325
v -0.58260352 6.36666994 -30.38572325
v -0.43384963 6.32572423 -30.38572325
v -0.13239604 6.28809848 -30.38572325
v 0.09487788 6.27127753 -30.38572325
v -0.72583349 6.49393355 -30.38572325
f 1 2 10
f 1 10 17
f 1 17 27
f 1 27 28
f 1 28 18
f 1 18 11
f 1 11 3
f 1 3 4
f 1 4 5
f 1 5 6
f 1 6 7
f 1 7 2
f 2 7 8
f 2 8 9
f 2 9 10
f 3 11 12
f 3 12 4
f 4 13 5
f 4 12 13
f 5 13 22
f 5 22 23
f 5 23 14
f 5 14 8
f 5 8 7
f 5 7 6
f 8 14 15
f 8 15 9
f 9 15 16
f 9 16 10
f 10 16 26
f 10 26 17
f 11 18 12
f 12 18 19
f 12 19 20
f 12 20 21
f 12 21 13
f 13 21 22
f 14 23 24
f 14 24 15
f 15 24 34
f 15 34 25
f 15 25 16
f 16 25 34
f 16 34 41
f 16 41 44
f 16 44 43
f 16 43 35
f 16 35 26
f 17 26 27
f 18 28 19
f 19 28 29
f 19 29 30
f 19 30 31
f 19 31 20
f 20 32 33
f 20 33 21
f 20 31 32
f 21 33 22
f 22 33 23
f 23 34 24
f 23 33 34
f 26 35 36
f 26 36 27
f 27 36 37
f 27 37 28
f 28 37 38
f 28 38 29
f 29 38 39
f 29 39 30
f 30 39 38
f 30 38 37
f 30 37 49
f 30 49 48
f 30 48 47
f 30 47 46
f 30 46 45
f 30 45 50
f 30 50 40
f 30 40 31
f 31 40 32
f 32 41 33
f 32 40 42
f 32 42 43
f 32 43 44
f 32 44 41
f 33 41 34
f 35 43 50
f 35 50 45
f 35 45 46
f 35 46 47
f 35 47 36
f 36 47 48
f 36 48 49
f 36 49 37
f 40 50 43
f 40 43 42

