# https://github.com/mikedh/trimesh
v -2.23112888 5.99489973 -28.76009375
v -2.46414481 5.96556987 -28.77544080
v -4.07501383 5.50273465 -28.09598804
v -3.66701089 5.52317675 -28.09598804
v -3.59278770 5.51584426 -28.09598804
v -3.32873313 5.42607687 -28.09598804
v -2.23112888 5.80225540 -28.76009375
v -2.23112888 6.07022430 -31.90203755
v -6.35344236 6.08133420 -32.02620893
v -6.82667127 6.08133420 -32.13921896
v -4.15463512 5.49006948 -28.09598804
v -3.32873313 5.33342100 -28.09598804
v -2.77228381 5.35541842 -28.78520638
v -2.23112888 4.60994937 -31.90343412
v -4.03003012 6.08133420 -32.95539861
v -4.30398119 6.08133420 -32.39732649
v -2.23112888 6.08133420 -36.82004639
v -3.36786872 6.08133420 -34.31151420
v -6.82667127 4.52329278 -28.09598804
v -6.06329660 4.83081267 -28.09598804
v -6.82667127 6.08133420 -41.55528719
v -3.66701089 5.11633504 -28.09598804
v -4.00618874 4.89924919 -28.09598804
v -3.25540962 3.81137538 -31.98295851
v -2.23112888 3.81137538 -34.48591083
v -2.23112888 6.08133420 -39.88525574
v -6.82667127 3.89469910 -28.09598804
v -6.79653211 6.08133420 -41.60132754
v -6.82667127 5.66182728 -41.66132078
v -4.27474171 4.77926302 -28.09598804
v -5.51404474 4.29376387 -28.09598804
v -3.90362575 3.81137538 -31.48208969
v -2.23112888 3.81137538 -39.24068439
v -2.23112888 4.02379511 -39.34811294
v -3.36247102 4.27154428 -41.22463010
v -3.36247102 4.37930957 -41.22463010
v -3.89058056 4.35864531 -41.74921658
v -4.46412345 4.31864988 -42.25566687
v -4.78935641 6.08133420 -41.93896107
v -5.73176626 3.81137538 -31.32861918
v -5.42632671 3.81137538 -31.34815194
v -6.82667127 3.81137538 -31.50580735
v -6.53652591 6.08133420 -41.73247536
v -6.35344236 6.03511727 -41.87199299
v -6.69216976 5.97268014 -41.76456443
v -6.14921567 4.33575906 -42.26961975
v -6.14921567 4.26665589 -42.26961975
v -6.65798263 4.17177804 -41.79665350
v -6.82667127 4.99212728 -41.53993933
v -2.23112888 3.81781910 -39.24765923
v -6.54102473 3.81137538 -41.35019485
v -4.74122361 4.13111616 -41.98081652
v -4.74122361 4.22243872 -42.34914415
v -3.89058056 4.27198862 -41.74921658
v -4.46412345 4.29976316 -42.25566687
v -4.74122361 4.39308568 -42.34914415
v -5.24279271 6.08133420 -42.07708373
v -6.82667127 3.81137538 -41.23160494
v -6.19959748 6.08133420 -41.90129052
v -5.81273687 6.08133420 -41.99616437
v -5.27877960 4.38908616 -42.34495764
v -5.27877960 4.22866043 -42.34495764
v -6.71241281 3.81137538 -41.34322001
v -6.71961027 3.81137538 -41.34182344
v -6.65348382 3.81137538 -41.35019485
f 1 2 3
f 1 3 4
f 1 4 5
f 1 5 6
f 1 6 12
f 1 12 7
f 1 7 14
f 1 14 25
f 1 25 33
f 1 33 50
f 1 50 34
f 1 34 26
f 1 26 17
f 1 17 8
f 1 8 9
f 1 9 10
f 1 10 2
f 2 11 3
f 2 10 11
f 3 11 20
f 3 20 19
f 3 19 27
f 3 27 31
f 3 31 30
f 3 30 23
f 3 23 22
f 3 22 12
f 3 12 6
f 3 6 5
f 3 5 4
f 7 12 13
f 7 13 14
f 8 15 16
f 8 16 9
f 8 17 18
f 8 18 15
f 9 16 15
f 9 15 18
f 9 18 17
f 9 17 26
f 9 26 39
f 9 39 57
f 9 57 60
f 9 60 59
f 9 59 43
f 9 43 28
f 9 28 21
f 9 21 10
f 10 19 20
f 10 20 11
f 10 21 29
f 10 29 49
f 10 49 58
f 10 58 42
f 10 42 27
f 10 27 19
f 12 22 13
f 13 22 23
f 13 23 24
f 13 24 14
f 14 24 25
f 21 28 29
f 23 30 24
f 24 30 31
f 24 31 27
f 24 27 32
f 24 32 41
f 24 41 40
f 24 40 42
f 24 42 58
f 24 58 64
f 24 64 63
f 24 63 65
f 24 65 51
f 24 51 33
f 24 33 25
f 26 34 35
f 26 35 36
f 26 36 37
f 26 37 38
f 26 38 39
f 27 40 41
f 27 41 32
f 27 42 40
f 28 43 44
f 28 44 45
f 28 45 29
f 29 45 46
f 29 46 47
f 29 47 48
f 29 48 49
f 33 51 52
f 33 52 53
f 33 53 54
f 33 54 35
f 33 35 50
f 34 50 35
f 35 54 37
f 35 37 36
f 37 54 55
f 37 55 38
f 38 55 53
f 38 53 56
f 38 56 39
f 39 56 57
f 43 59 44
f 44 59 46
f 44 46 45
f 46 59 60
f 46 60 57
f 46 57 61
f 46 61 62
f 46 62 47
f 47 62 63
f 47 63 64
f 47 64 48
f 48 64 58
f 48 58 49
f 51 65 53
f 51 53 52
f 53 65 62
f 53 62 61
f 53 61 56
f 53 55 54
f 56 61 57
f 62 65 63

