# https://github.com/mikedh/trimesh
v -24.92938035 7.95221243 -20.33471592
v -24.34545407 6.95834171 -19.94769676
v -24.34545407 6.95834171 -19.92938761
v -23.86365836 8.52503601 -17.41786828
v -24.89496580 8.05422587 -20.21539050
v -24.92938035 7.96299440 -20.33471592
v -24.28994684 6.95834171 -20.33471592
v -24.33879314 6.95834171 -20.03008837
v -22.80237913 6.95834171 -17.10976832
v -23.86365836 8.67847089 -17.41786828
v -24.89496580 8.07578982 -20.21539050
v -24.91827826 8.16453306 -20.33471592
v -14.94379838 6.95834171 -20.33471592
v -21.90983819 6.95834171 -17.10976832
v -22.64585122 7.80292462 -17.10976832
v -23.04438608 9.57889837 -18.32954099
v -23.39074496 9.31377395 -18.33553887
v -22.40495417 9.03178560 -17.10976832
v -22.20957215 9.78237232 -17.10976832
v -24.09345493 8.97621730 -20.33471592
v -14.94490827 6.96138269 -20.33471592
v -14.60076916 7.59585654 -20.24948313
v -14.59521972 7.26548783 -20.26147890
v -14.64073476 6.95834171 -20.24601093
v -20.37453407 7.31497407 -17.10976832
v -16.01395992 6.95834171 -17.78626238
v -16.25707836 7.48527288 -17.49647167
v -22.74243234 9.78237232 -18.33238217
v -22.88674828 9.71215185 -18.50442550
v -23.54283332 9.41385210 -20.33471592
v -18.35743584 9.78237232 -17.10976832
v -15.08478465 7.30861543 -20.33471592
v -14.03460591 7.67520035 -19.80469572
v -16.20823205 8.77633727 -20.33471592
v -14.03460591 7.44822735 -19.80469572
v -14.00019136 6.95834171 -19.31508194
v -19.63075022 7.79490715 -17.10976832
v -16.19046903 7.80292462 -17.42070937
v -13.87807800 6.95834171 -18.30049891
v -22.77018596 9.78237232 -18.45581142
v -22.92560238 9.78237232 -20.33471592
v -18.35632595 9.51918340 -17.10976832
v -16.19380030 8.18277955 -17.41755257
v -14.62519312 8.24415334 -18.51515863
v -16.26040802 9.18107361 -18.55398671
v -16.17603888 9.20567834 -18.87281960
v -17.99775509 9.78237232 -19.94769676
v -14.58633901 8.25023551 -18.87281960
v -13.99353043 7.67879428 -19.41010033
v -13.58944453 7.02966816 -18.67236521
v -16.21600287 9.19213185 -19.82237345
v -18.04216024 9.78099016 -20.33471592
v -13.58944453 6.95834171 -18.67236521
v -19.45757078 7.94364222 -17.10976832
v -18.46622734 9.32593828 -17.10976832
v -18.51840331 9.25046486 -17.10976832
v -18.92026943 8.68842325 -17.10976832
v -19.03905313 8.52337719 -17.10976832
v -13.70933811 6.95834171 -18.38415295
v -18.23643237 9.78237232 -20.33471592
v -15.18913659 8.12638184 -18.05521835
v -13.58944453 6.95834171 -18.47664606
v -13.58944453 7.02966816 -18.52778561
v -16.14162433 9.21397227 -19.41010033
v -18.02439722 9.78237232 -20.16582909
f 1 2 3
f 1 3 4
f 1 4 5
f 1 5 11
f 1 11 6
f 1 6 12
f 1 12 20
f 1 20 30
f 1 30 41
f 1 41 60
f 1 60 52
f 1 52 34
f 1 34 32
f 1 32 21
f 1 21 13
f 1 13 7
f 1 7 8
f 1 8 2
f 2 8 7
f 2 7 13
f 2 13 24
f 2 24 36
f 2 36 53
f 2 53 62
f 2 62 59
f 2 59 39
f 2 39 26
f 2 26 14
f 2 14 9
f 2 9 3
f 3 9 4
f 4 10 11
f 4 11 5
f 4 9 10
f 6 11 12
f 9 14 25
f 9 25 37
f 9 37 54
f 9 54 58
f 9 58 57
f 9 57 56
f 9 56 55
f 9 55 42
f 9 42 31
f 9 31 19
f 9 19 18
f 9 18 15
f 9 15 10
f 10 16 17
f 10 17 12
f 10 12 11
f 10 15 18
f 10 18 19
f 10 19 16
f 12 17 20
f 13 21 22
f 13 22 23
f 13 23 24
f 14 26 27
f 14 27 25
f 16 28 29
f 16 29 30
f 16 30 17
f 16 19 28
f 17 30 20
f 19 31 47
f 19 47 65
f 19 65 60
f 19 60 41
f 19 41 40
f 19 40 28
f 21 32 22
f 22 33 23
f 22 32 34
f 22 34 33
f 23 33 35
f 23 35 24
f 24 35 36
f 25 27 38
f 25 38 37
f 26 39 27
f 27 39 38
f 28 40 29
f 29 40 30
f 30 40 41
f 31 42 43
f 31 43 44
f 31 44 45
f 31 45 46
f 31 46 47
f 33 48 49
f 33 49 50
f 33 50 53
f 33 53 35
f 33 34 51
f 33 51 48
f 34 52 51
f 35 53 36
f 37 38 54
f 38 39 43
f 38 43 42
f 38 42 55
f 38 55 56
f 38 56 57
f 38 57 58
f 38 58 54
f 39 59 43
f 43 59 61
f 43 61 44
f 44 61 59
f 44 59 62
f 44 62 63
f 44 63 49
f 44 49 48
f 44 48 46
f 44 46 45
f 46 48 64
f 46 64 47
f 47 64 65
f 48 51 64
f 49 63 50
f 50 63 62
f 50 62 53
f 51 52 64
f 52 60 65
f 52 65 64

