# https://github.com/mikedh/trimesh
v -15.48220642 6.18273765 5.80812676
v -15.47375973 6.18273765 5.82703811
v -15.48220642 6.18273765 6.68093956
v -15.48220642 6.80368593 4.27175920
v -15.46909916 6.18273765 5.84224983
v -15.24090096 7.05110749 4.23557972
v -15.10386417 7.35719197 3.85118032
v -15.36483050 6.18273765 6.46674549
v -15.21075620 6.42776475 6.66531783
v -15.48220642 6.28170631 6.72575311
v -15.48220642 7.12014609 3.82939095
v -15.14216413 6.94056597 4.91105498
v -14.57698103 7.49287474 5.53884026
v -15.35055891 6.18273765 6.42275515
v -14.66814564 8.58591932 2.86941908
v -15.48220642 7.21672031 6.91980262
v -14.13616471 8.03121611 6.12880126
v -14.06975879 8.34009403 6.20855948
v -13.99446895 8.87723823 6.31093028
v -15.48220642 8.55598917 2.85379576
v -14.95197440 8.54641158 2.84187367
v -14.13616471 8.03121611 6.07864487
v -14.95197440 8.87723823 2.76828149
v -14.66639673 8.87723823 2.86612945
v -14.13398017 9.08595012 4.48595487
v -14.95197440 9.41478141 6.39685454
v -15.48220642 9.95192541 6.26570512
v -14.41475153 8.87723823 6.46551228
v -14.06975879 8.34009403 5.99313060
v -13.99446895 8.87723823 5.95571951
v -14.03582791 9.24278353 6.26488352
v -15.48220642 8.87284832 2.72100312
v -15.48220642 8.87723823 2.71976991
v -15.48220642 9.28269027 2.75759261
v -15.48220642 9.28707977 2.75800421
v -14.95197440 9.20407397 2.81843948
v -14.67600935 9.15259428 2.88010796
v -14.13398017 9.15937853 4.48595487
v -14.41140265 9.41917132 6.32819681
v -14.99085734 9.93875649 6.23939452
v -15.48220642 10.25960636 6.15757988
v -14.03582791 9.24278353 6.02889848
v -14.58834098 9.75079575 6.20568145
v -15.48220642 10.25960636 6.05973352
v -15.19604737 10.23725884 6.09262338
v -14.58834098 9.75079575 6.05356587
v -15.19604737 10.23725884 6.13661372
f 1 2 5
f 1 5 14
f 1 14 8
f 1 8 3
f 1 3 10
f 1 10 16
f 1 16 27
f 1 27 41
f 1 41 44
f 1 44 35
f 1 35 34
f 1 34 33
f 1 33 32
f 1 32 20
f 1 20 11
f 1 11 4
f 1 4 2
f 2 4 6
f 2 6 7
f 2 7 5
f 3 8 9
f 3 9 10
f 4 11 7
f 4 7 6
f 5 7 12
f 5 12 13
f 5 13 14
f 7 11 15
f 7 15 13
f 7 13 12
f 8 14 9
f 9 16 10
f 9 14 17
f 9 17 18
f 9 18 19
f 9 19 16
f 11 20 21
f 11 21 15
f 13 22 14
f 13 15 22
f 14 22 17
f 15 21 23
f 15 23 24
f 15 24 25
f 15 25 22
f 16 26 27
f 16 19 28
f 16 28 26
f 17 22 29
f 17 29 18
f 18 29 30
f 18 30 19
f 19 30 42
f 19 42 31
f 19 31 28
f 20 32 21
f 21 32 33
f 21 33 23
f 22 25 29
f 23 33 34
f 23 34 35
f 23 35 36
f 23 36 37
f 23 37 24
f 24 37 38
f 24 38 25
f 25 38 30
f 25 30 29
f 26 39 40
f 26 40 27
f 26 28 39
f 27 40 41
f 28 31 39
f 30 38 42
f 31 43 39
f 31 42 46
f 31 46 43
f 35 44 45
f 35 45 36
f 36 45 37
f 37 45 38
f 38 45 46
f 38 46 42
f 39 43 40
f 40 43 47
f 40 47 41
f 41 47 45
f 41 45 44
f 43 46 45
f 43 45 47

