# https://github.com/mikedh/trimesh
v 8.32724264 3.18824185 -39.35616724
v 7.31407940 3.18824185 -39.07423795
v 8.32724264 3.61167153 -39.45423142
v 8.32724264 3.18824185 -31.17352467
v 7.32031752 3.26321238 -39.04860801
v 6.69465111 3.18824185 -38.55383797
v 8.32724264 3.92671670 -39.30267959
v 8.32724264 3.49626734 -31.07991927
v 8.21156038 3.18824185 -28.07118452
v 6.75891893 3.31908958 -38.54158115
v 6.62509089 3.18824185 -38.22510598
v 6.78670539 5.02516278 -35.86157839
v 6.91089358 5.16892662 -36.05213167
v 7.78002116 4.87550230 -37.96769192
v 8.32724264 5.00494595 -38.09807099
v 8.32724264 3.50356770 -31.07991927
v 8.21137140 3.22502533 -28.07118452
v 7.51765745 3.18824185 -28.07118452
v 7.16872084 5.50699643 -36.06884727
v 7.28704889 5.42781397 -36.40426422
v 6.39618399 3.18824185 -32.41713472
v 6.39618399 4.04099778 -32.39930443
v 6.39618399 4.21255983 -32.35584581
v 6.39618399 4.54360981 -32.23326800
v 6.39618399 4.61661490 -32.05497154
v 6.39618399 4.70450180 -31.77081285
v 7.69344826 4.97911342 -37.68130545
v 7.78588051 5.97394838 -35.86826495
v 8.32724264 5.14309409 -37.85402845
v 8.32724264 3.98989426 -31.26378600
v 8.20967053 3.50356770 -28.07118452
v 6.39618399 4.06851497 -28.07118452
v 6.39618399 3.18824185 -31.75855603
v 7.17117845 5.50475013 -35.66768263
v 7.78588051 5.97394838 -35.72339968
v 6.39618399 4.63627018 -28.07118452
v 8.32724264 5.21581841 -37.68130545
v 8.32724264 6.05678112 -35.51613080
v 7.96299501 5.97394838 -35.86826495
v 8.32724264 4.06991894 -31.33510394
v 8.06090944 3.95619941 -28.07118452
v 8.32724264 4.47004316 -31.97585394
v 8.32724264 5.51766639 -33.92373069
v 8.32724264 5.96636705 -34.97790214
v 7.08139199 4.43213658 -28.07118452
v 7.66528383 4.22463368 -28.07118452
v 7.39668281 4.32459451 -28.07118452
v 7.63409565 4.23642684 -28.07118452
f 1 2 3
f 1 3 7
f 1 7 15
f 1 15 29
f 1 29 37
f 1 37 38
f 1 38 44
f 1 44 43
f 1 43 42
f 1 42 40
f 1 40 30
f 1 30 16
f 1 16 8
f 1 8 4
f 1 4 9
f 1 9 18
f 1 18 33
f 1 33 21
f 1 21 11
f 1 11 6
f 1 6 2
f 2 5 3
f 2 6 5
f 3 5 7
f 4 8 9
f 5 6 10
f 5 10 7
f 6 11 12
f 6 12 13
f 6 13 10
f 7 10 14
f 7 14 15
f 8 16 9
f 9 17 31
f 9 31 41
f 9 41 46
f 9 46 48
f 9 48 47
f 9 47 45
f 9 45 36
f 9 36 32
f 9 32 18
f 9 16 17
f 10 13 19
f 10 19 20
f 10 20 14
f 11 21 22
f 11 22 23
f 11 23 24
f 11 24 12
f 12 19 13
f 12 24 25
f 12 25 26
f 12 26 19
f 14 20 27
f 14 27 28
f 14 28 29
f 14 29 15
f 16 30 31
f 16 31 17
f 18 32 33
f 19 34 35
f 19 35 28
f 19 28 20
f 19 26 34
f 20 28 27
f 21 33 32
f 21 32 36
f 21 36 26
f 21 26 25
f 21 25 24
f 21 24 23
f 21 23 22
f 26 36 34
f 28 37 29
f 28 35 38
f 28 38 39
f 28 39 37
f 30 40 31
f 31 40 42
f 31 42 43
f 31 43 44
f 31 44 41
f 34 36 35
f 35 36 38
f 36 44 38
f 36 45 44
f 37 39 38
f 41 44 46
f 44 45 47
f 44 47 48
f 44 48 46

