# https://github.com/mikedh/trimesh
v -24.87405889 5.66203523 -20.33471592
v -24.98783288 5.47556130 -20.27126490
v -24.97506195 5.65318315 -20.26400458
v -24.75796263 6.04354493 -20.33471592
v -24.86941434 5.60384376 -20.33471592
v -25.15733351 5.47556130 -20.04966036
v -25.44757336 5.87492024 -19.71662194
v -25.44757336 5.94196379 -19.71662194
v -24.85896569 5.47628686 -20.33471592
v -24.71500691 5.47556130 -20.33471592
v -24.37252222 6.83747397 -20.33471592
v -25.38488147 5.47556130 -18.69698795
v -25.38720375 5.47556130 -18.48232823
v -25.44757336 5.87492024 -19.64969851
v -25.44757336 5.94196379 -19.64969851
v -24.34582083 6.95806534 -19.94769676
v -24.33885400 6.95806534 -20.03008837
v -24.29822055 6.95806534 -20.28610185
v -24.29009418 6.95806534 -20.33471592
v -24.33537219 6.91278923 -20.33471592
v -15.27173440 5.47556130 -20.33471592
v -25.04936362 5.47556130 -18.05521835
v -25.00176494 5.65318315 -17.94031226
v -24.98667174 6.01495710 -17.91505819
v -24.34465970 6.95806534 -19.92938761
v -14.94318178 6.95806534 -20.33471592
v -14.93621495 5.71413182 -20.33471592
v -14.93041085 5.47556130 -19.99915203
v -24.96809672 5.47556130 -18.00439451
v -23.88027466 5.47556130 -17.49426190
v -24.46540051 6.56044778 -18.44476279
v -22.82379854 6.85619393 -17.10976832
v -22.80289964 6.95806534 -17.10976832
v -14.64016941 6.95806534 -20.24601093
v -14.87004125 6.75838585 -20.33471592
v -14.80386595 5.83733523 -20.33471592
v -14.88629399 5.47556130 -19.81164053
v -14.67848058 5.91468201 -20.23306823
v -13.59530307 6.44609643 -18.10067573
v -22.60785876 5.47556130 -17.10976832
v -22.82379854 6.84618101 -17.10976832
v -21.91012007 6.95806534 -17.10976832
v -14.00047804 6.95806534 -19.31508194
v -14.78180751 6.03164543 -20.33471592
v -14.78180751 6.05602490 -20.33471592
v -14.81779641 5.47556130 -19.43440756
v -13.58833624 6.94660119 -18.67236521
v -13.59530307 6.44609643 -18.05143034
v -15.71057759 5.47556130 -17.10976832
v -18.89045459 6.87447866 -17.10976832
v -16.01358836 6.95806534 -17.78626238
v -13.58833624 6.95806534 -18.67236521
v -14.84449940 5.47556130 -19.22353576
v -13.58949898 6.95806534 -18.47664606
v -13.59181966 6.73066872 -18.31407282
v -15.67923165 5.47556130 -17.17416628
v -13.59530307 6.51473625 -18.05143034
v -15.82667385 5.61443720 -17.10976832
v -16.58362101 6.19228874 -17.10976832
v -13.87741655 6.85808048 -18.18306734
v -13.87741655 6.95806534 -18.30049891
v -13.70907705 6.95806534 -18.38415295
v -13.87741655 6.58932585 -18.00786701
f 1 2 3
f 1 3 4
f 1 4 11
f 1 11 20
f 1 20 19
f 1 19 26
f 1 26 35
f 1 35 45
f 1 45 44
f 1 44 36
f 1 36 27
f 1 27 21
f 1 21 10
f 1 10 9
f 1 9 5
f 1 5 2
f 2 6 7
f 2 7 8
f 2 8 3
f 2 5 9
f 2 9 10
f 2 10 21
f 2 21 28
f 2 28 37
f 2 37 46
f 2 46 53
f 2 53 56
f 2 56 49
f 2 49 40
f 2 40 30
f 2 30 29
f 2 29 22
f 2 22 13
f 2 13 12
f 2 12 6
f 3 8 4
f 4 8 11
f 6 12 7
f 7 12 13
f 7 13 14
f 7 14 15
f 7 15 8
f 8 15 16
f 8 16 17
f 8 17 18
f 8 18 19
f 8 19 20
f 8 20 11
f 13 15 14
f 13 22 23
f 13 23 24
f 13 24 15
f 15 24 25
f 15 25 16
f 16 25 33
f 16 33 42
f 16 42 51
f 16 51 61
f 16 61 62
f 16 62 54
f 16 54 52
f 16 52 43
f 16 43 34
f 16 34 26
f 16 26 19
f 16 19 18
f 16 18 17
f 21 27 28
f 22 29 23
f 23 29 30
f 23 30 24
f 24 31 25
f 24 30 32
f 24 32 33
f 24 33 31
f 25 31 33
f 26 34 35
f 27 36 28
f 28 36 38
f 28 38 39
f 28 39 37
f 30 40 41
f 30 41 32
f 32 41 40
f 32 40 49
f 32 49 58
f 32 58 59
f 32 59 50
f 32 50 42
f 32 42 33
f 34 43 38
f 34 38 44
f 34 44 45
f 34 45 35
f 36 44 38
f 37 39 46
f 38 43 47
f 38 47 39
f 39 47 48
f 39 48 46
f 42 50 51
f 43 52 47
f 46 48 53
f 47 52 54
f 47 54 55
f 47 55 48
f 48 49 56
f 48 56 53
f 48 55 54
f 48 54 57
f 48 57 49
f 49 57 58
f 50 59 51
f 51 59 60
f 51 60 61
f 54 62 57
f 57 62 60
f 57 60 63
f 57 63 59
f 57 59 58
f 59 63 60
f 60 62 61

