# https://github.com/mikedh/trimesh
v 16.97556831 3.64586005 -41.75570134
v 16.97556831 3.84959727 -41.75570134
v 17.09222352 3.64586005 -41.75570134
v 17.25782273 2.38474524 -41.40955066
v 17.15829953 2.38474524 -41.38927958
v 16.78631070 2.38474524 -41.29806372
v 14.61393058 3.45078093 -39.94971415
v 16.98535712 4.44376338 -41.24972832
v 17.29208513 4.47352577 -41.24777920
v 17.09222352 3.84959727 -41.75570134
v 14.85376420 5.14859143 -40.07211419
v 14.99570821 5.14859143 -40.16761746
v 19.20750124 4.34148888 -41.20568032
v 19.20505404 4.04088847 -41.20373121
v 21.61645417 2.38474524 -40.37811510
v 16.38332348 2.38474524 -40.94957475
v 14.61393058 3.02084929 -39.79924819
v 14.61393058 3.48108445 -39.94542675
v 17.41689714 4.95540627 -40.79053237
v 17.66896835 4.95540627 -40.79053237
v 14.61393058 3.90262848 -39.73726900
v 14.61393058 5.14859143 -39.07381353
v 15.05688981 5.14859143 -40.17073571
v 19.26052604 4.97542830 -40.27052798
v 21.59198057 5.14859143 -38.78691296
v 21.92562779 5.14859143 -38.59395732
v 21.42719656 4.41643598 -39.66125525
v 21.91012939 3.84202144 -39.60005603
v 22.40121902 3.24298514 -39.04418767
v 22.40121902 3.22566876 -39.04418767
v 21.78205338 2.38474524 -40.04872646
v 16.34335148 2.38474524 -40.91488152
v 14.61393058 2.76381020 -39.28352960
v 15.56674344 5.14859143 -40.16333005
v 16.90786031 5.14859143 -40.09979094
v 19.11205563 5.14859143 -39.63786751
v 14.61393058 5.14859143 -39.04808590
v 21.94520699 5.14859143 -38.57836603
v 22.50074222 4.92618501 -38.05524179
v 22.88333664 4.57228283 -37.77379937
v 22.94043905 3.26490124 -37.96090767
v 22.94043905 3.21051710 -37.96090767
v 22.00149419 2.38474524 -39.37201639
v 16.33764028 2.38474524 -40.90552675
v 14.61393058 2.72079001 -38.75689792
v 16.33356108 2.38474524 -40.89811948
v 14.61393058 5.14805030 -37.77379937
v 14.62616658 5.14859143 -37.77379937
v 22.08143980 5.14859143 -38.29770357
v 22.63126543 5.01384888 -37.77379937
v 22.94696545 3.44158171 -37.77379937
v 22.94696545 3.41993628 -37.77379937
v 22.94043905 3.21051710 -37.93946904
v 22.44608542 2.67100559 -37.97494063
v 22.03738860 2.38474524 -39.22583782
v 22.03249260 2.38474524 -39.26365091
v 14.61393058 2.73756526 -38.55458751
v 16.26911548 2.38474524 -40.37304773
v 16.41676908 2.38474524 -37.77379937
v 14.61393058 2.93778522 -37.77379937
v 22.07083420 5.14859143 -37.77379937
v 22.08225500 5.14859143 -38.26690857
v 22.12304380 5.14155663 -37.77379937
v 22.82460064 3.30359238 -37.77379937
v 22.44608542 2.67100559 -37.92699441
v 22.09122860 2.38474524 -38.21194427
v 22.08796460 2.38474524 -38.75689792
v 14.61393058 2.79519618 -38.10396797
v 21.19551815 2.38474524 -37.77379937
v 22.65002783 3.16993210 -37.77379937
v 22.12793820 2.82604083 -37.77379937
v 21.73310778 2.38474524 -38.01937941
f 1 2 10
f 1 10 3
f 1 3 4
f 1 4 5
f 1 5 6
f 1 6 7
f 1 7 2
f 2 8 9
f 2 9 10
f 2 7 11
f 2 11 12
f 2 12 8
f 3 10 13
f 3 13 14
f 3 14 15
f 3 15 4
f 4 15 31
f 4 31 43
f 4 43 56
f 4 56 55
f 4 55 67
f 4 67 66
f 4 66 72
f 4 72 69
f 4 69 59
f 4 59 58
f 4 58 46
f 4 46 44
f 4 44 32
f 4 32 16
f 4 16 6
f 4 6 5
f 6 16 17
f 6 17 7
f 7 17 33
f 7 33 45
f 7 45 57
f 7 57 68
f 7 68 60
f 7 60 47
f 7 47 37
f 7 37 22
f 7 22 21
f 7 21 18
f 7 18 11
f 8 19 9
f 8 12 19
f 9 19 20
f 9 20 13
f 9 13 10
f 11 18 21
f 11 21 22
f 11 22 37
f 11 37 48
f 11 48 61
f 11 61 62
f 11 62 49
f 11 49 38
f 11 38 26
f 11 26 25
f 11 25 36
f 11 36 35
f 11 35 34
f 11 34 23
f 11 23 12
f 12 23 19
f 13 24 25
f 13 25 26
f 13 26 27
f 13 27 28
f 13 28 15
f 13 15 14
f 13 20 24
f 15 28 29
f 15 29 30
f 15 30 31
f 16 32 17
f 17 32 33
f 19 23 20
f 20 23 34
f 20 34 35
f 20 35 36
f 20 36 24
f 24 36 25
f 26 38 27
f 27 38 28
f 28 38 39
f 28 39 40
f 28 40 29
f 29 40 41
f 29 41 42
f 29 42 30
f 30 42 31
f 31 42 43
f 32 44 33
f 33 44 46
f 33 46 45
f 37 47 48
f 38 49 50
f 38 50 39
f 39 50 40
f 40 50 63
f 40 63 61
f 40 61 48
f 40 48 47
f 40 47 60
f 40 60 59
f 40 59 69
f 40 69 71
f 40 71 70
f 40 70 64
f 40 64 52
f 40 52 51
f 40 51 41
f 41 51 52
f 41 52 42
f 42 52 53
f 42 53 65
f 42 65 54
f 42 54 55
f 42 55 56
f 42 56 43
f 45 46 58
f 45 58 59
f 45 59 57
f 49 62 50
f 50 62 63
f 52 64 65
f 52 65 53
f 54 65 66
f 54 66 67
f 54 67 55
f 57 59 68
f 59 60 68
f 61 63 62
f 64 70 65
f 65 70 71
f 65 71 69
f 65 69 72
f 65 72 66

