# https://github.com/mikedh/trimesh
v -19.24158776 12.46584608 -7.99910962
v -19.36279623 12.44967422 -7.99910962
v -19.13587288 12.38893265 -7.83297548
v -18.95542871 12.38893265 -7.83297548
v -18.84880414 12.43429194 -7.99910962
v -19.49402733 12.35698412 -7.86304498
v -19.78929931 12.38380522 -7.99910962
v -18.98368042 11.83436918 -7.31773497
v -18.97912395 11.83436918 -7.31773497
v -17.86365237 11.85606245 -7.83011908
v -17.74882296 11.89984379 -7.99910962
v -24.39973611 11.33502505 -7.80125237
v -24.29037606 11.35395762 -7.99910962
v -24.39973611 11.33502505 -7.93461036
v -22.98534577 9.50370302 -6.46331061
v -17.69140985 9.24850894 -6.46331061
v -17.25943740 9.21734938 -6.46331061
v -17.22845181 9.17553998 -6.46331061
v -16.98786066 8.83712208 -6.46331061
v -15.72384019 8.64424753 -7.84470219
v -15.62632856 8.66594100 -7.99910962
v -24.91646208 9.72418726 -7.81132545
v -24.00057184 8.43677926 -6.51548098
v -23.44010217 9.32542218 -6.46331061
v -23.43281022 9.77112409 -6.70206236
v -24.37604087 11.31727605 -7.99910962
v -24.42160716 11.23286887 -7.99910962
v -24.91646208 9.72418726 -7.88153751
v -16.79739066 8.43677926 -6.46331061
v -15.72384019 8.59178888 -7.84470219
v -15.60627850 8.47069992 -7.99910962
v -24.91646208 9.54551202 -7.81132545
v -24.32318423 8.43677926 -6.95344330
v -24.03975907 8.43677926 -6.55893159
v -23.46288451 8.43677926 -6.46331061
v -23.55948645 8.90693555 -6.46331061
v -23.55584128 8.95702768 -6.46331061
v -24.76700350 9.83817665 -7.99910962
v -24.76791479 9.56207787 -7.99910962
v -24.91646208 9.54551202 -7.88153751
v -16.73906626 8.43677926 -6.64011921
v -16.55042045 8.43677926 -7.99910962
v -16.61603680 8.43677926 -7.16798891
v -24.40793775 8.43677926 -7.58445095
v -24.76791479 9.47530437 -7.99910962
v -24.38059734 8.43677926 -7.99910962
f 1 2 3
f 1 3 4
f 1 4 5
f 1 5 11
f 1 11 21
f 1 21 31
f 1 31 42
f 1 42 46
f 1 46 45
f 1 45 39
f 1 39 38
f 1 38 27
f 1 27 26
f 1 26 13
f 1 13 7
f 1 7 2
f 2 6 3
f 2 7 6
f 3 6 8
f 3 8 9
f 3 9 4
f 4 9 10
f 4 10 11
f 4 11 5
f 6 7 12
f 6 12 8
f 7 13 14
f 7 14 12
f 8 12 15
f 8 15 9
f 9 15 16
f 9 16 17
f 9 17 10
f 10 17 18
f 10 18 19
f 10 19 11
f 11 19 20
f 11 20 21
f 12 14 28
f 12 28 22
f 12 22 23
f 12 23 24
f 12 24 25
f 12 25 15
f 13 26 14
f 14 26 27
f 14 27 28
f 15 25 24
f 15 24 37
f 15 37 36
f 15 36 35
f 15 35 29
f 15 29 19
f 15 19 18
f 15 18 17
f 15 17 16
f 19 29 20
f 20 29 30
f 20 30 31
f 20 31 21
f 22 28 40
f 22 40 32
f 22 32 33
f 22 33 34
f 22 34 23
f 23 34 33
f 23 33 44
f 23 44 46
f 23 46 42
f 23 42 43
f 23 43 41
f 23 41 29
f 23 29 35
f 23 35 36
f 23 36 37
f 23 37 24
f 27 38 28
f 28 38 39
f 28 39 45
f 28 45 40
f 29 41 31
f 29 31 30
f 31 41 43
f 31 43 42
f 32 44 33
f 32 40 44
f 40 45 46
f 40 46 44

