# https://github.com/mikedh/trimesh
v -8.28683930 -2.17589031 -36.38782410
v -8.18072563 -2.17589031 -36.38782410
v -8.28683930 -2.17589031 -36.25330177
v -8.87206765 -0.74263267 -36.55701723
v -8.87206765 -0.73277981 -36.97583918
v -8.87206765 -0.53966442 -38.04646838
v -8.87206765 -0.24013826 -38.54988690
v -8.24879799 1.61153573 -42.25826142
v -8.18072563 -2.17589031 -36.25330177
v -8.21916653 1.61153573 -42.25826142
v -7.08695053 1.54125240 -41.84775962
v -6.82667127 -0.64082002 -38.20040655
v -6.82667127 -0.68285885 -38.10194199
v -6.82667127 -0.78532815 -37.73998060
v -7.42851752 -0.38793081 -28.09598884
v -7.96569474 -0.38596047 -28.09598884
v -8.05298836 -0.38004868 -28.09598884
v -8.59036498 -0.34195091 -28.09598884
v -8.87206765 -0.32027485 -28.09598884
v -8.87206765 -0.13898266 -38.70243811
v -8.87206765 3.17090966 -42.10709716
v -8.87206765 3.34103510 -42.18198501
v -8.77256046 3.23134032 -42.24993965
v -8.26321373 1.89135616 -42.26242230
v -6.82667127 -0.78532815 -37.71917780
v -6.82667127 -0.38793081 -28.09598884
v -8.21235906 1.89135616 -42.26242230
v -6.82667127 2.92524593 -42.03082236
v -6.82667127 2.42406580 -41.97673571
v -6.99044709 1.89135616 -41.91987515
v -6.82667127 1.92616950 -41.54127184
v -8.87206765 0.26563977 -28.09598884
v -8.87206765 3.35877030 -42.18198501
v -8.77256046 3.26483998 -42.24993965
v -6.82667127 4.52271742 -28.09598884
v -8.22036771 2.23029337 -42.25826142
v -6.82667127 2.95743189 -42.03082236
v -8.76995791 3.26483998 -42.24993965
v -8.25080076 3.80871597 -28.09598884
v -8.87206765 2.94560850 -32.35909380
v -8.87206765 3.74959899 -41.98366891
v -6.82667127 4.53388397 -30.17761516
v -7.07453756 4.53388397 -30.41614989
v -7.38026540 4.53388397 -30.75176064
v -7.58448488 4.53388397 -31.11094971
v -7.89842237 4.53388397 -31.70173871
v -7.92785363 4.53388397 -31.76969175
v -7.29637592 4.35653303 -28.09598884
v -8.55572781 3.46780823 -42.11819124
v -6.82667127 4.53388397 -41.07945893
v -8.20455060 3.84352932 -28.09598884
v -8.87206765 4.53388397 -35.10223688
v -8.87206765 3.88359741 -41.89907395
v -7.56506423 4.25340689 -28.09598884
v -8.50307137 3.84615669 -41.86717707
v -8.87206765 4.53388397 -41.21120734
v -7.96569474 4.02153709 -28.09598884
f 1 2 9
f 1 9 3
f 1 3 4
f 1 4 5
f 1 5 6
f 1 6 7
f 1 7 8
f 1 8 10
f 1 10 2
f 2 10 11
f 2 11 12
f 2 12 13
f 2 13 14
f 2 14 25
f 2 25 9
f 3 9 26
f 3 26 15
f 3 15 16
f 3 16 17
f 3 17 18
f 3 18 19
f 3 19 4
f 4 19 32
f 4 32 40
f 4 40 52
f 4 52 56
f 4 56 53
f 4 53 41
f 4 41 33
f 4 33 22
f 4 22 21
f 4 21 20
f 4 20 7
f 4 7 6
f 4 6 5
f 7 20 8
f 8 20 21
f 8 21 22
f 8 22 23
f 8 23 24
f 8 24 27
f 8 27 10
f 9 25 26
f 10 27 28
f 10 28 29
f 10 29 30
f 10 30 11
f 11 30 31
f 11 31 12
f 12 31 29
f 12 29 28
f 12 28 37
f 12 37 50
f 12 50 42
f 12 42 35
f 12 35 26
f 12 26 25
f 12 25 14
f 12 14 13
f 15 26 35
f 15 35 48
f 15 48 54
f 15 54 57
f 15 57 51
f 15 51 39
f 15 39 32
f 15 32 19
f 15 19 18
f 15 18 17
f 15 17 16
f 22 33 34
f 22 34 23
f 23 34 24
f 24 34 38
f 24 38 27
f 27 36 37
f 27 37 28
f 27 38 36
f 29 31 30
f 32 39 40
f 33 41 34
f 34 41 38
f 35 42 43
f 35 43 44
f 35 44 45
f 35 45 46
f 35 46 47
f 35 47 48
f 36 38 37
f 37 38 49
f 37 49 50
f 38 41 49
f 39 51 52
f 39 52 40
f 41 53 49
f 42 50 56
f 42 56 52
f 42 52 47
f 42 47 46
f 42 46 45
f 42 45 44
f 42 44 43
f 47 52 54
f 47 54 48
f 49 53 55
f 49 55 50
f 50 55 53
f 50 53 56
f 51 57 52
f 52 57 54

