# https://github.com/mikedh/trimesh
v 18.36287289 7.76209417 -23.39695876
v 17.83602499 7.76138628 -23.39695876
v 19.84838417 6.59529145 -23.39695876
v 22.41553866 5.39592019 -23.43091766
v 22.08992812 7.31463093 -25.37918919
v 21.81462613 7.45340123 -25.37918919
v 21.59382558 7.55818699 -25.37918919
v 21.05300398 7.67500876 -25.37918919
v 13.20899913 7.60349943 -24.03868492
v 13.20899913 7.60349943 -23.90110279
v 13.53041675 7.60349943 -23.79398654
v 14.06844361 7.49658998 -23.39695876
v 20.90906441 5.57363108 -23.39695876
v 21.53932413 3.75758202 -23.39695876
v 21.62037802 3.50765391 -23.39695876
v 22.42671923 1.01545394 -23.39695876
v 22.47004011 0.81721071 -23.39695876
v 22.50916969 0.52905010 -23.39695876
v 24.07014378 3.31011878 -24.46947861
v 23.03461781 5.01784210 -23.86695009
v 23.59779894 5.11554772 -24.38720112
v 23.52652744 5.50424593 -24.44968560
v 22.13744192 7.26931829 -25.37918919
v 18.40200086 7.58933955 -25.37918919
v 11.60190700 5.96728535 -25.37918919
v 10.45598076 4.94774906 -25.37918919
v 13.16428007 7.15037244 -23.39695876
v 13.53041675 7.41375254 -23.39695876
v 10.52725145 4.91234844 -24.98701257
v 22.88648533 0.52905010 -25.37918919
v 24.61515829 2.61201954 -24.92705057
v 24.06455430 2.96673321 -24.47879335
v 14.94046523 0.52905010 -23.39695876
v 24.61515829 2.85699159 -24.92705057
v 24.60956721 3.35472333 -25.37918919
v 23.52652744 5.50424593 -24.59813439
v 22.16678910 7.22612953 -25.37918919
v 10.43362123 4.88615205 -25.37918919
v 11.47194194 4.49462176 -23.39695876
v 10.34418311 2.43006048 -25.37918919
v 10.52725145 4.75658598 -24.98701257
v 11.42023523 4.04149447 -23.39695876
v 11.42722288 4.33531923 -23.39695876
v 24.56065684 2.67432444 -25.37918919
v 24.61515829 2.61201954 -25.19406524
v 13.48849243 0.52905010 -25.37918919
v 24.61934960 2.99363760 -25.37918919
v 24.62074778 3.20604111 -25.37918919
v 11.56836771 3.66483246 -23.39695876
v 10.55659864 1.58823488 -25.37918919
v 10.70612768 1.47849325 -25.37918919
v 10.44200625 1.89480394 -25.37918919
v 10.40567142 2.43006048 -25.28371636
v 11.46355772 3.86095160 -23.39695876
f 1 2 12
f 1 12 28
f 1 28 27
f 1 27 39
f 1 39 43
f 1 43 42
f 1 42 54
f 1 54 49
f 1 49 33
f 1 33 18
f 1 18 17
f 1 17 16
f 1 16 15
f 1 15 14
f 1 14 13
f 1 13 3
f 1 3 4
f 1 4 5
f 1 5 6
f 1 6 7
f 1 7 8
f 1 8 2
f 2 8 9
f 2 9 10
f 2 10 11
f 2 11 12
f 3 13 4
f 4 13 14
f 4 14 15
f 4 15 16
f 4 16 17
f 4 17 18
f 4 18 19
f 4 19 20
f 4 20 21
f 4 21 22
f 4 22 5
f 5 23 37
f 5 37 35
f 5 35 48
f 5 48 47
f 5 47 44
f 5 44 30
f 5 30 46
f 5 46 51
f 5 51 50
f 5 50 52
f 5 52 40
f 5 40 38
f 5 38 26
f 5 26 25
f 5 25 24
f 5 24 8
f 5 8 7
f 5 7 6
f 5 22 23
f 8 24 9
f 9 25 26
f 9 26 10
f 9 24 25
f 10 27 28
f 10 28 11
f 10 26 29
f 10 29 27
f 11 28 12
f 18 30 31
f 18 31 32
f 18 32 19
f 18 33 46
f 18 46 30
f 19 32 31
f 19 31 34
f 19 34 21
f 19 21 20
f 21 34 22
f 22 34 35
f 22 35 36
f 22 36 23
f 23 36 37
f 26 38 29
f 27 29 39
f 29 38 40
f 29 40 41
f 29 41 42
f 29 42 43
f 29 43 39
f 30 44 45
f 30 45 31
f 31 45 47
f 31 47 48
f 31 48 34
f 33 49 50
f 33 50 51
f 33 51 46
f 34 48 35
f 35 37 36
f 40 52 53
f 40 53 42
f 40 42 41
f 42 53 52
f 42 52 54
f 44 47 45
f 49 54 50
f 50 54 52

