# https://github.com/mikedh/trimesh
v -2.21213065 5.51739578 -35.88769360
v -2.23112868 5.51429754 -35.88769360
v -2.04088811 5.48796256 -35.88769360
v -2.23112868 8.36364293 -37.33005377
v -2.23112868 3.19733257 -35.88769360
v -0.63893877 5.53133785 -36.31059316
v -0.97960187 5.59640083 -36.24520583
v -1.49541094 5.13166528 -35.88769360
v -1.20809856 7.58856729 -38.41277803
v -2.23112868 8.47259738 -37.57462163
v -0.45988902 5.66972577 -36.58191205
v -0.13718298 5.44975094 -36.79930605
v -2.23112868 3.19733257 -38.19368636
v -1.26821552 3.19733257 -35.88769360
v -1.23464370 4.84714389 -35.88769360
v -1.01941962 4.59205572 -35.88769360
v -0.20016270 4.75729497 -36.36961264
v -0.27381258 5.11617409 -36.43882291
v -1.17192419 7.63917162 -38.75627811
v -1.18649798 7.62006608 -39.08916298
v -2.05442098 7.12124978 -40.22496170
v -2.23112868 7.10834052 -40.21010232
v 0.42755257 4.43559467 -36.77722680
v -2.07550105 3.19733257 -38.22637923
v -2.23112868 3.74055693 -39.16728920
v -2.05442098 3.71318929 -39.18936846
v -0.95513868 3.19733257 -36.05201316
v -1.03087045 3.49476347 -35.88769360
v -0.91584134 4.04108607 -35.88769360
v -0.14264819 4.39893222 -36.32842664
v 0.42755257 4.43559467 -36.93347924
v -0.62618666 6.07559482 -39.62967548
v -1.24609453 6.46235808 -40.10097930
v -1.70048546 7.06341606 -40.17103841
v -2.05442098 6.76030519 -40.22496170
v -2.23112868 6.80264771 -40.21010232
v 0.42755257 4.21200529 -36.77722680
v -1.60835811 3.70595980 -39.11718567
v -0.67511305 3.19733257 -37.98223579
v -2.23112868 3.81801289 -39.24796192
v -2.23112868 4.02404575 -39.34816740
v -2.05442098 4.04108607 -39.34859181
v -0.40809988 3.19733257 -36.57596702
v -0.92521023 3.95175325 -35.88769360
v -0.14264819 4.25073327 -36.32842664
v 0.42755257 4.21200529 -36.93347924
v -0.62618666 5.86233284 -39.62967548
v -1.24609453 6.45719432 -40.10097930
v -0.65012945 3.19733257 -37.92958575
v -0.41408560 3.19733257 -36.71141505
v -0.43282333 3.19733257 -37.08378665
f 1 2 5
f 1 5 14
f 1 14 28
f 1 28 44
f 1 44 29
f 1 29 16
f 1 16 15
f 1 15 8
f 1 8 3
f 1 3 4
f 1 4 2
f 2 4 10
f 2 10 22
f 2 22 36
f 2 36 41
f 2 41 40
f 2 40 25
f 2 25 13
f 2 13 5
f 3 6 7
f 3 7 4
f 3 8 6
f 4 9 10
f 4 7 6
f 4 6 11
f 4 11 12
f 4 12 9
f 5 13 24
f 5 24 39
f 5 39 49
f 5 49 51
f 5 51 50
f 5 50 43
f 5 43 27
f 5 27 14
f 6 8 15
f 6 15 16
f 6 16 17
f 6 17 18
f 6 18 11
f 9 19 10
f 9 12 19
f 10 19 20
f 10 20 21
f 10 21 22
f 11 18 23
f 11 23 12
f 12 23 19
f 13 25 26
f 13 26 24
f 14 27 28
f 16 29 30
f 16 30 17
f 17 30 23
f 17 23 18
f 19 23 31
f 19 31 20
f 20 32 33
f 20 33 34
f 20 34 21
f 20 31 32
f 21 34 35
f 21 35 36
f 21 36 22
f 23 30 45
f 23 45 37
f 23 37 46
f 23 46 31
f 24 26 38
f 24 38 39
f 25 40 26
f 26 40 41
f 26 41 42
f 26 42 38
f 27 43 37
f 27 37 28
f 28 37 45
f 28 45 44
f 29 45 30
f 29 44 45
f 31 46 47
f 31 47 32
f 32 47 48
f 32 48 33
f 33 48 34
f 34 48 35
f 35 48 42
f 35 42 41
f 35 41 36
f 37 43 46
f 38 42 48
f 38 48 47
f 38 47 39
f 39 47 46
f 39 46 49
f 43 50 46
f 46 50 51
f 46 51 49

