# https://github.com/mikedh/trimesh
v 20.58436677 2.43933077 -8.11589936
v 20.58436677 2.47239320 -7.93014198
v 20.58436677 2.49030196 -8.64188240
v 22.58235026 0.55614748 -8.44879544
v 22.53992305 0.55614748 -7.93014198
v 20.58436677 7.43520818 -7.93014198
v 20.58436677 2.55367211 -8.78366145
v 22.67166986 0.55614748 -9.04763714
v 22.66218055 0.55614748 -8.98801547
v 25.83974969 0.55614748 -7.93014198
v 20.65805664 7.51924180 -7.93014198
v 20.58436677 7.39319118 -7.98834146
v 20.58436677 2.79199725 -9.04763714
v 25.11011411 0.55614748 -9.04763714
v 26.05802616 0.64224792 -7.93014198
v 20.75630820 7.54197249 -7.93014198
v 20.58436677 5.89986963 -9.04763714
v 25.49195900 0.95703024 -9.04763714
v 26.28355935 0.91019150 -7.93014198
v 21.41002132 7.58536705 -7.93014198
v 21.59145365 7.58192287 -7.94578612
v 22.66608838 7.05016816 -8.42133651
v 22.96084466 7.05292327 -8.42472783
v 23.20368442 5.29028029 -9.04763714
v 25.52824419 1.16986938 -9.04763714
v 25.63542931 1.06034997 -8.95968128
v 26.26960326 0.92259006 -7.95366265
v 26.28746718 1.35722352 -7.93014198
v 21.56912295 7.59225501 -7.93014198
v 21.96324869 7.58054512 -7.95738229
v 22.85533478 7.16450910 -7.93014198
v 23.02895145 7.07840906 -7.93014198
v 24.74780839 5.98734742 -7.93014198
v 25.10229845 5.75935402 -7.93014198
v 25.08778341 5.39842215 -8.39573780
v 23.98467916 4.93003709 -9.04763714
v 23.72788332 5.06986382 -9.04763714
v 23.45545614 5.19384801 -9.04763714
v 25.52824419 1.19742200 -9.04763714
v 25.63542931 1.10856605 -8.95968128
v 25.73312352 2.96626395 -8.56224030
v 25.71525960 3.35681438 -8.52778090
v 25.27089099 5.60506250 -7.93014198
v 21.93589386 7.58536705 -7.93014198
v 21.96213239 7.57985645 -7.93014198
v 21.98167155 7.57434624 -7.93014198
v 25.18659392 2.79061969 -9.04763714
v 24.91137680 3.34441602 -9.04763714
v 24.68528467 3.75631939 -9.04763714
f 1 2 6
f 1 6 12
f 1 12 17
f 1 17 13
f 1 13 7
f 1 7 3
f 1 3 4
f 1 4 5
f 1 5 2
f 2 5 10
f 2 10 15
f 2 15 19
f 2 19 28
f 2 28 43
f 2 43 34
f 2 34 33
f 2 33 32
f 2 32 31
f 2 31 46
f 2 46 45
f 2 45 44
f 2 44 29
f 2 29 20
f 2 20 16
f 2 16 11
f 2 11 6
f 3 7 8
f 3 8 9
f 3 9 4
f 4 9 8
f 4 8 14
f 4 14 10
f 4 10 5
f 6 11 12
f 7 13 8
f 8 13 17
f 8 17 24
f 8 24 38
f 8 38 37
f 8 37 36
f 8 36 49
f 8 49 48
f 8 48 47
f 8 47 39
f 8 39 25
f 8 25 18
f 8 18 14
f 10 14 15
f 11 16 17
f 11 17 12
f 14 18 15
f 15 18 19
f 16 20 21
f 16 21 22
f 16 22 17
f 17 22 23
f 17 23 24
f 18 25 26
f 18 26 19
f 19 26 27
f 19 27 28
f 20 29 21
f 21 29 30
f 21 30 22
f 22 30 23
f 23 30 31
f 23 31 32
f 23 32 33
f 23 33 34
f 23 34 35
f 23 35 36
f 23 36 37
f 23 37 38
f 23 38 24
f 25 39 40
f 25 40 26
f 26 40 28
f 26 28 27
f 28 40 41
f 28 41 42
f 28 42 43
f 29 44 30
f 30 44 45
f 30 45 46
f 30 46 31
f 34 43 35
f 35 43 42
f 35 42 47
f 35 47 48
f 35 48 49
f 35 49 36
f 39 47 42
f 39 42 40
f 40 42 41

