# https://github.com/mikedh/trimesh
v -13.37092462 -1.13793716 -36.58657582
v -13.02345905 -1.11583549 -36.39525378
v -13.02345905 -1.11583549 -36.26014368
v -13.34000950 -1.13382513 -36.25126777
v -13.85149032 -1.13176951 -36.62602411
v -13.87722116 -1.11737700 -36.98598673
v -13.57048193 -1.09373301 -36.90511702
v -12.53733990 -0.33506256 -38.20295465
v -12.53733990 -0.61313888 -37.01162788
v -12.53733990 -0.68664176 -36.59446516
v -12.53733990 -0.75037787 -31.37353203
v -12.80668645 -0.81000275 -31.37353203
v -13.87722116 -0.83159032 -31.77096981
v -14.20728566 -1.10555500 -36.81931928
v -14.20728566 -1.10555500 -36.99288950
v -14.42831684 -0.12997502 -38.57179318
v -12.53733990 -0.25025218 -38.39427669
v -12.53733990 4.11312952 -31.37353203
v -13.48032951 -0.75140608 -31.37353203
v -13.84593608 -0.71182806 -31.37353203
v -14.20506428 -0.66196957 -31.37353203
v -14.25615759 -0.66145546 -31.39522851
v -14.42702116 -0.73187412 -31.76801171
v -14.42831684 -0.73187412 -31.76998324
v -14.42831684 -0.79663844 -37.16350163
v -14.42831684 -0.79663844 -37.17040440
v -14.42831684 -0.67173554 -37.55403664
v -14.42831684 -0.66865132 -37.55995284
v -14.42831684 -0.32426877 -38.21873333
v -14.42831684 2.94736822 -39.43668781
v -13.88555253 4.11312952 -41.44261669
v -13.88055403 4.11312952 -41.44655975
v -13.87722116 4.11312952 -41.44853289
v -12.53733990 -0.13717088 -38.57179318
v -14.42831684 4.11312952 -31.37353203
v -12.53733990 4.11312952 -38.70985979
v -14.24042216 -0.65117538 -31.37353203
v -14.27670575 -0.63575506 -31.37353203
v -14.42702116 -0.52678619 -31.37353203
v -14.42831684 -0.50931025 -31.37353203
v -14.42831684 2.98180640 -39.43767438
v -14.42831684 4.11312952 -39.44753685
v -13.86981710 4.11312952 -41.44360165
v -12.53733990 3.02241262 -39.08461612
v -12.53733990 3.34006735 -39.08067146
f 1 2 3
f 1 3 4
f 1 4 5
f 1 5 6
f 1 6 7
f 1 7 2
f 2 7 8
f 2 8 9
f 2 9 10
f 2 10 11
f 2 11 3
f 3 11 12
f 3 12 4
f 4 12 13
f 4 13 5
f 5 14 15
f 5 15 6
f 5 13 14
f 6 15 16
f 6 16 17
f 6 17 8
f 6 8 7
f 8 17 34
f 8 34 44
f 8 44 45
f 8 45 36
f 8 36 18
f 8 18 11
f 8 11 10
f 8 10 9
f 11 18 35
f 11 35 40
f 11 40 39
f 11 39 38
f 11 38 37
f 11 37 21
f 11 21 20
f 11 20 19
f 11 19 12
f 12 19 13
f 13 19 20
f 13 20 21
f 13 21 22
f 13 22 23
f 13 23 24
f 13 24 14
f 14 25 26
f 14 26 15
f 14 24 25
f 15 26 27
f 15 27 28
f 15 28 29
f 15 29 16
f 16 30 31
f 16 31 32
f 16 32 33
f 16 33 34
f 16 34 17
f 16 29 28
f 16 28 27
f 16 27 26
f 16 26 25
f 16 25 24
f 16 24 40
f 16 40 35
f 16 35 42
f 16 42 41
f 16 41 30
f 18 36 43
f 18 43 33
f 18 33 32
f 18 32 31
f 18 31 42
f 18 42 35
f 21 37 22
f 22 37 38
f 22 38 23
f 23 38 39
f 23 39 24
f 24 39 40
f 30 41 31
f 31 41 42
f 33 43 34
f 34 43 44
f 36 45 43
f 43 45 44

