# https://github.com/mikedh/trimesh
v 18.80000239 10.32622049 -15.81990741
v 18.80000239 10.32622049 -16.01904021
v 18.46687408 10.32622049 -15.81990741
v 18.90261823 9.84372889 -15.17910306
v 19.44097982 9.83316333 -15.24884065
v 19.81723843 9.75216069 -15.32269258
v 19.72354494 9.16636158 -16.46708902
v 19.29523528 9.27436470 -16.55204955
v 18.89815786 9.43519543 -16.55204955
v 18.36574450 9.53263259 -16.55204955
v 18.46687408 10.32622049 -16.01904021
v 19.81723843 9.75216069 -15.49857948
v 21.86211750 7.53457564 -16.45680324
v 18.36574450 9.76976996 -15.21366325
v 18.90261823 9.62654870 -14.91043837
v 15.20547553 8.70030450 -16.55204955
v 10.39591865 6.12114384 -14.45045805
v 10.73499680 6.26201740 -14.45045805
v 19.44097982 9.28962547 -14.64239089
v 19.97785355 9.22036294 -14.71603711
v 20.26636690 9.17105738 -14.79503179
v 22.40196535 7.53692354 -15.30767535
v 21.90078422 7.26456783 -16.55204955
v 15.43301549 8.78013319 -16.55204955
v 22.40196535 7.53692354 -15.38255589
v 22.51350514 7.26456783 -15.46710501
v 21.95432313 7.26456783 -16.53332939
v 18.45646387 9.31075659 -14.68044821
v 18.90261823 9.35771465 -14.61153342
v 9.93340425 3.89886298 -16.55204955
v 10.52530314 5.55060580 -15.96905128
v 10.48514936 6.02722814 -15.01288474
v 10.40186689 6.09414316 -14.57388750
v 10.06725072 5.56117136 -14.45045805
v 10.84504873 6.30193175 -14.45045805
v 18.91600256 8.88696236 -14.45045805
v 19.44097982 8.87639680 -14.51711002
v 20.99657584 7.23052344 -14.45045805
v 21.98555376 7.57214188 -14.83514633
v 22.51350514 7.26456783 -15.20728610
v 21.96473334 7.03799623 -16.55204955
v 23.52032936 1.69301724 -15.44879625
v 22.61463312 1.88554446 -16.55204955
v 18.90261823 8.89048382 -14.45045805
v 9.52740207 3.40815333 -16.55204955
v 9.40842699 3.34945576 -16.52324940
v 9.40247875 3.51850415 -16.14473248
v 8.32724344 0.50615685 -16.18587563
v 8.32724344 0.50615685 -15.64834050
v 8.32724344 0.44511218 -14.45045805
v 18.93831084 8.87639680 -14.45045805
v 21.02929433 7.19647906 -14.45045805
v 21.50221894 6.66702901 -14.45045805
v 21.67175801 6.18218911 -14.45045805
v 22.96858345 1.18235042 -14.80387766
v 23.52032936 1.69301724 -15.32248688
v 23.52032936 1.53336026 -15.44879625
v 22.63396728 1.30913636 -16.55204955
v 22.62355707 1.68010378 -16.55204955
v 8.32724344 0.45802565 -16.55204955
v 8.32724344 -0.36256313 -14.45045805
v 22.54324951 0.24201940 -14.45045805
v 22.69791640 1.35844231 -14.63786505
v 22.96858345 1.00978037 -14.80387766
v 23.52032936 1.53336026 -15.32248688
v 22.51053102 -0.14655688 -16.55204955
v 8.32873050 -0.36373708 -16.55204955
v 8.32724344 -0.36725893 -16.18587563
v 8.32724344 -0.36725893 -15.64834050
v 11.38192246 -0.88614382 -16.18587563
v 13.16654469 -1.13619385 -14.45045805
v 22.54324951 0.17745208 -14.45045805
v 22.51053102 -0.14655688 -14.45045805
v 22.12832418 -0.34025805 -15.64834050
v 22.25027258 -0.27099573 -16.55204955
v 11.38192246 -0.76874869 -16.55204955
v 16.98414953 -1.64451318 -14.88678097
v 16.97373932 -1.66329640 -14.57388750
v 16.98266167 -1.65390479 -14.45045805
v 22.12832418 -0.33321434 -14.45045805
v 22.12832418 -0.32851934 -16.55204955
v 17.42138154 -1.64686108 -14.45045805
v 17.82887077 -1.10332402 -16.55204955
v 17.82887077 -1.12680304 -16.53415230
v 17.07784142 -1.64451318 -14.88678097
v 17.27117663 -1.66681825 -14.54488166
v 17.09717558 -1.65860059 -14.45045805
v 18.17835913 -1.11506353 -16.51522643
v 18.21256387 -1.06693152 -16.55204955
v 17.37974070 -1.65273084 -14.45045805
v 17.27712486 -1.66094849 -14.45045805
f 1 2 11
f 1 11 3
f 1 3 4
f 1 4 5
f 1 5 6
f 1 6 12
f 1 12 2
f 2 7 8
f 2 8 9
f 2 9 10
f 2 10 11
f 2 12 13
f 2 13 7
f 3 14 15
f 3 15 4
f 3 11 16
f 3 16 17
f 3 17 18
f 3 18 14
f 4 15 5
f 5 15 19
f 5 19 20
f 5 20 6
f 6 20 21
f 6 21 22
f 6 22 25
f 6 25 12
f 7 13 23
f 7 23 8
f 8 23 41
f 8 41 43
f 8 43 59
f 8 59 58
f 8 58 66
f 8 66 75
f 8 75 81
f 8 81 89
f 8 89 83
f 8 83 76
f 8 76 67
f 8 67 60
f 8 60 45
f 8 45 30
f 8 30 16
f 8 16 24
f 8 24 10
f 8 10 9
f 10 24 11
f 11 24 16
f 12 25 13
f 13 25 26
f 13 26 27
f 13 27 23
f 14 28 29
f 14 29 15
f 14 18 28
f 15 29 19
f 16 30 31
f 16 31 32
f 16 32 33
f 16 33 17
f 17 33 34
f 17 34 50
f 17 50 61
f 17 61 71
f 17 71 79
f 17 79 87
f 17 87 91
f 17 91 90
f 17 90 82
f 17 82 80
f 17 80 73
f 17 73 72
f 17 72 62
f 17 62 54
f 17 54 53
f 17 53 52
f 17 52 38
f 17 38 51
f 17 51 36
f 17 36 44
f 17 44 35
f 17 35 18
f 18 35 28
f 19 29 36
f 19 36 37
f 19 37 20
f 20 37 38
f 20 38 39
f 20 39 21
f 21 39 22
f 22 39 40
f 22 40 26
f 22 26 25
f 23 27 41
f 26 40 56
f 26 56 42
f 26 42 27
f 27 42 43
f 27 43 41
f 28 35 29
f 29 44 36
f 29 35 44
f 30 45 46
f 30 46 31
f 31 46 32
f 32 46 34
f 32 34 33
f 34 46 47
f 34 47 48
f 34 48 49
f 34 49 50
f 36 51 37
f 37 51 38
f 38 52 39
f 39 53 54
f 39 54 55
f 39 55 40
f 39 52 53
f 40 55 56
f 42 56 65
f 42 65 57
f 42 57 58
f 42 58 59
f 42 59 43
f 45 60 46
f 46 60 47
f 47 60 48
f 48 60 68
f 48 68 69
f 48 69 61
f 48 61 50
f 48 50 49
f 54 62 63
f 54 63 55
f 55 63 62
f 55 62 72
f 55 72 64
f 55 64 65
f 55 65 56
f 57 65 73
f 57 73 66
f 57 66 58
f 60 67 68
f 61 69 70
f 61 70 71
f 64 72 73
f 64 73 65
f 66 73 74
f 66 74 75
f 67 76 70
f 67 70 68
f 68 70 69
f 70 76 77
f 70 77 78
f 70 78 71
f 71 78 79
f 73 80 74
f 74 81 75
f 74 80 82
f 74 82 81
f 76 83 84
f 76 84 77
f 77 84 85
f 77 85 86
f 77 86 78
f 78 86 87
f 78 87 79
f 81 82 86
f 81 86 85
f 81 85 88
f 81 88 89
f 82 90 86
f 83 89 84
f 84 89 88
f 84 88 85
f 86 90 91
f 86 91 87

