# https://github.com/mikedh/trimesh
v 14.61392898 -0.98511689 -36.05162237
v 14.61392898 -0.93400916 -36.46859291
v 14.76012676 -0.79451115 -35.55329205
v 14.74544356 -0.79451115 -35.42610331
v 14.61392898 -0.84140234 -35.52844688
v 14.61392898 -0.90254951 -36.59591138
v 14.65973711 -0.79563105 -36.60698143
v 14.65998055 -0.79451115 -36.60865507
v 14.61392898 -0.79451115 -35.41915089
v 14.61392898 -0.79451115 -36.73429990
f 1 2 3
f 1 3 4
f 1 4 5
f 1 5 9
f 1 9 10
f 1 10 6
f 1 6 2
f 2 6 7
f 2 7 3
f 3 7 8
f 3 8 10
f 3 10 9
f 3 9 4
f 4 9 5
f 6 10 8
f 6 8 7

