# https://github.com/mikedh/trimesh
v 22.51897130 0.75954776 -1.04325660
v 22.52598458 0.30597413 -1.04325660
v 22.65784510 0.23094174 -2.63523070
v 22.34923844 0.75954776 -2.63523070
v 12.00247665 0.75954776 -1.04325660
v 22.65784510 0.17183217 -2.63523070
v 22.51055505 -0.14687520 -1.04325660
v 15.21058935 0.75954776 -2.63523070
v 8.32724344 0.44470018 -2.63523070
v 8.32864641 0.44590656 -1.04325660
v 22.55965280 -0.15556091 -2.63523070
v 22.19633648 -0.31382893 -1.04325660
v 8.32724344 -0.36377031 -2.63523070
v 8.32724344 0.44470018 -1.67624379
v 8.32724344 0.44421771 -1.13893764
v 8.32724344 -0.00718420 -1.04325660
v 22.12760187 -0.35001843 -1.04325660
v 22.12760187 -0.35315470 -2.63523070
v 8.32724344 -0.36401135 -1.04325660
v 16.90652620 -0.70756909 -2.63523070
v 16.93037359 -1.20818846 -2.08031528
v 17.29088235 -1.68998978 -1.51090724
v 21.58753781 -0.47016706 -1.04325660
v 17.69066964 -1.70518948 -1.30022221
v 21.59034377 -0.39030914 -2.63523070
v 17.69066964 -1.70518948 -1.50436162
v 17.18287082 -1.20818846 -2.08031528
v 17.29088235 -1.68998978 -1.31985747
v 17.95018015 -1.23279739 -1.04325660
v 18.03294291 -1.23955282 -1.04325660
f 1 2 3
f 1 3 4
f 1 4 8
f 1 8 5
f 1 5 10
f 1 10 16
f 1 16 19
f 1 19 29
f 1 29 30
f 1 30 23
f 1 23 17
f 1 17 12
f 1 12 7
f 1 7 2
f 2 6 3
f 2 7 6
f 3 6 11
f 3 11 18
f 3 18 25
f 3 25 20
f 3 20 13
f 3 13 9
f 3 9 8
f 3 8 4
f 5 8 9
f 5 9 10
f 6 7 11
f 7 12 11
f 9 13 19
f 9 19 16
f 9 16 15
f 9 15 14
f 9 14 10
f 10 14 15
f 10 15 16
f 11 12 17
f 11 17 18
f 13 20 21
f 13 21 22
f 13 22 19
f 17 23 24
f 17 24 18
f 18 24 26
f 18 26 27
f 18 27 25
f 19 28 24
f 19 24 29
f 19 22 28
f 20 25 27
f 20 27 21
f 21 27 26
f 21 26 22
f 22 26 24
f 22 24 28
f 23 30 24
f 24 30 29

