# https://github.com/mikedh/trimesh
v -22.70308335 1.47699979 -35.44478403
v -22.77551118 1.47699979 -35.37084592
v -22.70308335 1.65349768 -35.28506259
v -22.70308335 1.47699979 -34.40158974
v -22.85009953 1.47699979 -34.99482594
v -22.74437825 1.62278476 -35.26361595
v -22.70308335 1.70601799 -34.99482594
v -22.70308335 1.58541451 -34.49482838
v -22.76152146 1.47699979 -34.49482838
v -22.75249661 1.63416993 -34.99482594
v -22.85224564 1.47699979 -34.86655935
v -22.70308335 1.71150417 -34.78108032
v -22.70308335 1.63049713 -34.55651127
v -22.80309504 1.47699979 -34.60032224
v -22.75515522 1.63786595 -34.69876919
v -22.70308335 1.69421922 -34.64372481
f 1 2 3
f 1 3 7
f 1 7 12
f 1 12 16
f 1 16 13
f 1 13 8
f 1 8 4
f 1 4 9
f 1 9 14
f 1 14 11
f 1 11 5
f 1 5 2
f 2 5 6
f 2 6 3
f 3 6 7
f 4 8 9
f 5 10 6
f 5 11 10
f 6 10 7
f 7 10 12
f 8 13 14
f 8 14 9
f 10 11 15
f 10 15 12
f 11 14 15
f 12 15 16
f 13 16 15
f 13 15 14

