# https://github.com/mikedh/trimesh
v 14.61480184 2.93778522 -37.77341018
v 14.61480184 2.38474524 -37.17828252
v 14.61480184 5.14805030 -37.77341018
v 16.41653365 2.38474524 -37.77341018
v 14.61480184 2.38474524 -34.48879046
v 14.61480184 5.14859143 -37.75604756
v 14.62616178 5.14859143 -37.77341018
v 21.19522826 2.38474524 -37.77341018
v 14.61480184 5.14859143 -34.48879046
v 20.84571749 2.38474524 -34.48879046
v 22.07075412 5.14859143 -37.77341018
v 22.12842348 2.82604083 -37.77341018
v 23.10006600 3.19590637 -36.40567681
v 21.20396643 2.38474524 -37.61650911
v 20.07242310 5.14859143 -34.48879046
v 23.10006600 3.19590637 -36.28574959
v 23.51860607 3.60852184 -36.29636000
v 22.96725094 3.73568835 -35.76039116
v 23.01356196 4.04088847 -35.73081175
v 21.95891163 4.13775167 -35.11992943
v 20.83610646 2.48647861 -34.48879046
v 22.41851918 5.14859143 -37.42906447
v 22.12318154 5.14155663 -37.77341018
v 22.65006947 3.16993210 -37.77341018
v 22.82482486 3.30359238 -37.77341018
v 23.53957704 3.61068636 -36.60694620
v 20.30921693 4.78900727 -34.48879046
v 21.93706621 5.14859143 -35.19548513
v 23.51860607 3.81794082 -36.29636000
v 23.00657110 4.39506122 -35.74817277
v 21.95279523 4.57823526 -35.14275662
v 20.41057553 4.60475087 -34.48879046
v 22.62822565 5.14859143 -37.14291504
v 22.66579850 5.13939211 -37.14420110
v 22.67366221 5.04225845 -37.68177792
v 22.63172028 5.01384888 -37.77341018
v 22.94715443 3.41993628 -37.77341018
v 23.51511144 3.72053669 -36.92685514
v 23.51074236 4.08742611 -37.12137391
v 23.53433350 4.01464333 -36.64874239
v 22.82307755 4.75329245 -35.92790104
v 22.20007455 5.14859143 -35.55494166
v 23.48540231 4.32741928 -36.85547794
v 22.96200900 4.87315380 -36.28574959
v 22.64395307 5.14859143 -37.12040817
v 22.64657484 5.14859143 -36.92267504
v 22.64395307 5.14859143 -36.59858600
v 23.04763858 4.93565490 -37.14420110
v 23.05113321 4.92456162 -37.50237157
v 22.88336868 4.57228283 -37.77341018
v 22.94715443 3.44158171 -37.77341018
v 23.47841145 4.29738633 -37.42327800
v 23.47841145 4.34446510 -37.42327800
v 23.48714962 4.34906471 -37.14420110
v 22.58977834 5.14859143 -36.12081183
v 23.31588886 4.61773811 -37.14420110
f 1 2 5
f 1 5 9
f 1 9 6
f 1 6 3
f 1 3 7
f 1 7 11
f 1 11 23
f 1 23 36
f 1 36 50
f 1 50 51
f 1 51 37
f 1 37 25
f 1 25 24
f 1 24 12
f 1 12 8
f 1 8 4
f 1 4 2
f 2 4 8
f 2 8 14
f 2 14 10
f 2 10 5
f 3 6 7
f 5 10 21
f 5 21 32
f 5 32 27
f 5 27 15
f 5 15 9
f 6 9 15
f 6 15 28
f 6 28 42
f 6 42 55
f 6 55 47
f 6 47 46
f 6 46 45
f 6 45 33
f 6 33 22
f 6 22 11
f 6 11 7
f 8 12 13
f 8 13 14
f 10 14 16
f 10 16 17
f 10 17 18
f 10 18 19
f 10 19 20
f 10 20 21
f 11 22 23
f 12 24 13
f 13 24 25
f 13 25 26
f 13 26 16
f 13 16 14
f 15 27 28
f 16 26 17
f 17 26 29
f 17 29 19
f 17 19 18
f 19 29 30
f 19 30 31
f 19 31 20
f 20 31 21
f 21 31 32
f 22 33 34
f 22 34 35
f 22 35 23
f 23 35 36
f 25 37 26
f 26 38 39
f 26 39 40
f 26 40 29
f 26 37 38
f 27 32 28
f 28 31 30
f 28 30 41
f 28 41 42
f 28 32 31
f 29 40 43
f 29 43 30
f 30 43 44
f 30 44 41
f 33 45 34
f 34 45 46
f 34 46 47
f 34 47 48
f 34 48 49
f 34 49 35
f 35 49 36
f 36 49 50
f 37 51 53
f 37 53 52
f 37 52 38
f 38 52 39
f 39 52 53
f 39 53 40
f 40 53 54
f 40 54 43
f 41 44 42
f 42 44 55
f 43 54 56
f 43 56 44
f 44 56 48
f 44 48 55
f 47 55 48
f 48 56 49
f 49 56 53
f 49 53 50
f 50 53 51
f 53 56 54

