# https://github.com/mikedh/trimesh
v 19.09792337 10.34003003 -19.98443359
v 18.86715465 10.33133070 -19.98443359
v 18.86110872 10.32335648 -19.90605713
v 18.65351793 10.22258885 -19.67704653
v 19.01125918 10.19431593 -19.69933559
v 19.25613614 10.32190666 -19.98443359
v 16.21886139 9.64553172 -19.98443359
v 15.78856258 9.77747191 -18.69996307
v 15.70391477 9.78762107 -18.49644668
v 16.23397701 9.77747191 -18.49644668
v 16.38312008 9.77384716 -18.49644668
v 17.10464851 9.72817557 -18.55340794
v 19.44054900 9.81444417 -19.59823303
v 17.98842085 9.38165092 -18.49644668
v 18.34213094 9.25333548 -18.49644668
v 18.51445195 9.17214145 -18.49644668
v 19.71666459 9.16489194 -19.13147066
v 19.71364243 9.70570193 -19.66757724
v 19.40931036 10.16169313 -19.98443359
v 15.71903039 9.50924165 -19.98443359
v 15.42880656 9.54258916 -18.49644668
v 15.17586729 9.30408165 -19.98443359
v 11.69015595 7.80561726 -19.98443359
v 12.17285495 7.55406095 -19.11937921
v 17.05023194 9.67670429 -18.49644668
v 17.13790352 9.65858051 -18.49644668
v 18.60010875 9.08079826 -18.49644668
v 21.51141836 4.02937138 -18.49644668
v 21.32297435 4.84856068 -19.14050292
v 19.71364243 9.70570193 -19.75148954
v 19.58465352 9.83764253 -19.98443359
v 13.54033448 7.53448735 -18.49644668
v 11.35357706 7.25103336 -19.98443359
v 11.62666969 6.50723825 -19.66262398
v 12.17285495 7.50621452 -19.11937921
v 13.16546203 4.53610885 -18.49644668
v 13.34886750 7.13939157 -18.49644668
v 21.63637611 3.57265506 -18.49644668
v 21.52955775 4.04097035 -19.41030433
v 21.32297435 4.84856068 -19.14429064
v 21.37739252 4.57960551 -19.35800483
v 21.37940729 4.40126881 -19.72861750
v 19.72875805 9.53461454 -19.98443359
v 11.35458525 7.24595868 -19.98443359
v 11.62666969 6.43619347 -19.66262398
v 13.38413729 2.93397709 -18.49644668
v 21.64746058 3.50378512 -18.49644668
v 21.59808256 3.50378512 -19.41030433
v 21.45297064 4.04097035 -19.79563083
v 21.50335605 3.50378512 -19.84356023
v 21.15367711 3.50378512 -19.98443359
v 11.60853030 6.40864550 -19.94757624
v 11.60953849 6.40937046 -19.98443359
v 12.68175564 3.22105584 -19.98443359
v 12.95585566 2.93397709 -19.31765106
v 13.07678226 2.93397709 -19.00166876
v 21.52048806 2.93397709 -18.49644668
v 21.55172669 2.96587477 -18.49644668
v 21.44591732 3.12681261 -19.79257163
v 20.98639465 2.93397709 -19.98443359
v 12.91554653 2.93397709 -19.98443359
v 12.93267853 2.93397709 -19.42851438
v 21.43886240 2.93397709 -19.37461252
v 21.09119824 2.93397709 -19.91523533
f 1 2 3
f 1 3 4
f 1 4 5
f 1 5 6
f 1 6 19
f 1 19 31
f 1 31 43
f 1 43 51
f 1 51 60
f 1 60 61
f 1 61 54
f 1 54 53
f 1 53 44
f 1 44 33
f 1 33 23
f 1 23 22
f 1 22 20
f 1 20 7
f 1 7 2
f 2 7 8
f 2 8 9
f 2 9 3
f 3 9 10
f 3 10 11
f 3 11 4
f 4 11 12
f 4 12 5
f 5 13 6
f 5 12 14
f 5 14 15
f 5 15 16
f 5 16 17
f 5 17 13
f 6 13 18
f 6 18 19
f 7 20 8
f 8 20 9
f 9 21 32
f 9 32 37
f 9 37 36
f 9 36 46
f 9 46 57
f 9 57 58
f 9 58 47
f 9 47 38
f 9 38 28
f 9 28 27
f 9 27 16
f 9 16 15
f 9 15 14
f 9 14 26
f 9 26 25
f 9 25 11
f 9 11 10
f 9 20 22
f 9 22 23
f 9 23 24
f 9 24 21
f 11 25 12
f 12 25 26
f 12 26 14
f 13 17 18
f 16 27 17
f 17 28 18
f 17 27 28
f 18 28 29
f 18 29 40
f 18 40 30
f 18 30 19
f 19 30 31
f 21 24 32
f 23 33 24
f 24 33 34
f 24 34 45
f 24 45 35
f 24 35 36
f 24 36 37
f 24 37 32
f 28 38 29
f 29 38 39
f 29 39 40
f 30 40 41
f 30 41 42
f 30 42 43
f 30 43 31
f 33 44 45
f 33 45 34
f 35 45 36
f 36 45 46
f 38 47 39
f 39 47 48
f 39 48 49
f 39 49 42
f 39 42 41
f 39 41 40
f 42 49 43
f 43 49 50
f 43 50 51
f 44 52 45
f 44 53 52
f 45 52 54
f 45 54 55
f 45 55 56
f 45 56 46
f 46 56 55
f 46 55 62
f 46 62 61
f 46 61 60
f 46 60 64
f 46 64 63
f 46 63 57
f 47 58 48
f 48 58 59
f 48 59 50
f 48 50 49
f 50 59 60
f 50 60 51
f 52 53 54
f 54 61 62
f 54 62 55
f 57 63 58
f 58 63 59
f 59 63 64
f 59 64 60

