# https://github.com/mikedh/trimesh
v -3.69173034 2.77746800 -23.89146934
v -2.23112828 1.16963995 -23.36946299
v -3.69173034 2.77746800 -24.12940349
v -7.45611739 2.77746800 -23.36946299
v -2.23112828 -0.38737226 -23.36946299
v -2.23112828 1.14795028 -23.50997440
v -2.23112828 0.31537495 -25.31697778
v -7.55661114 2.77746800 -25.31697778
v -8.24836717 2.77746800 -23.36946299
v -2.25246601 -0.38768176 -23.36946299
v -2.23112828 -0.38396372 -23.70958696
v -2.23112828 -0.36475288 -25.31697778
v -8.24148362 2.77746800 -25.31697778
v -8.26075612 2.77746800 -23.69852972
v -9.26294139 0.27850238 -23.36946299
v -4.40206979 -0.38799167 -23.36946299
v -5.27898140 -0.38799167 -25.31697778
v -4.73727854 -0.38768176 -25.31697778
v -4.19970572 -0.38737226 -25.31697778
v -9.26294139 0.20258833 -25.31697778
v -9.26294139 0.26703794 -24.02530780
v -8.26075612 2.77746800 -24.25904744
v -9.26294139 0.27881229 -23.52331948
v -9.26294139 -0.31920420 -23.36946299
v -7.42789691 -0.38799167 -23.36946299
v -7.42789691 -0.38799167 -25.31697778
v -9.26294139 -0.30619064 -25.31697778
v -7.96546972 -0.38613264 -23.36946299
v -9.26294139 -0.31889470 -23.70958696
v -7.96546972 -0.38613264 -25.31697778
f 1 2 3
f 1 3 8
f 1 8 13
f 1 13 22
f 1 22 14
f 1 14 9
f 1 9 4
f 1 4 2
f 2 5 11
f 2 11 12
f 2 12 7
f 2 7 6
f 2 6 3
f 2 4 9
f 2 9 15
f 2 15 24
f 2 24 28
f 2 28 25
f 2 25 16
f 2 16 10
f 2 10 5
f 3 6 7
f 3 7 8
f 5 10 11
f 7 12 19
f 7 19 18
f 7 18 17
f 7 17 26
f 7 26 30
f 7 30 27
f 7 27 20
f 7 20 13
f 7 13 8
f 9 14 15
f 10 16 17
f 10 17 18
f 10 18 19
f 10 19 11
f 11 19 12
f 13 20 21
f 13 21 22
f 14 22 23
f 14 23 15
f 15 23 21
f 15 21 20
f 15 20 27
f 15 27 29
f 15 29 24
f 16 25 26
f 16 26 17
f 21 23 22
f 24 29 30
f 24 30 28
f 25 28 30
f 25 30 26
f 27 30 29

