# https://github.com/mikedh/trimesh
v -8.30211028 0.69336125 -12.87470006
v -8.30354689 0.80831839 -7.99910962
v -8.30354689 -0.36256913 -7.99910962
v -22.70569071 0.85280322 -7.99910962
v -22.42239207 -0.17035222 -7.99910962
v -21.23743314 -0.67934380 -7.99910962
v -21.39993331 -1.14633340 -8.81954144
v -21.38267639 -0.66837745 -7.99910962
v -21.71918241 -1.10412400 -8.85484006
v -21.93345335 -0.41719230 -7.99910962
v -22.21387397 -0.53347435 -8.91721243
v -21.71918241 -1.10412400 -8.97547197
v -22.40495577 -0.14676549 -12.87470006
v -22.38644001 -0.27649552 -9.15436261
v -22.38644001 -0.27690953 -8.70782067
v -22.99186257 0.85280322 -8.65675779
v -22.40495577 0.10303109 -12.87470006
v -21.16529680 0.69516862 -12.87470006
v -22.82073474 0.85280322 -9.02756305
v -21.23024369 0.85280322 -11.50016801
v -12.61915614 0.85280322 -11.50016801
v -11.80521628 0.85280322 -10.67493788
v -8.30354689 0.81142183 -8.15024184
v -11.51041356 0.85280322 -9.73730152
v -12.30134605 0.85280322 -7.99910962
v -22.90557955 0.85280322 -8.23043489
v -22.64960530 0.27760150 -7.99910962
v -8.30211028 -0.36258155 -12.87470006
v -15.48881930 -0.87067024 -12.87470006
v -21.93697841 -0.30763326 -12.87470006
v -20.15479537 -1.14071108 -12.20586691
v -19.78759044 -1.15119496 -12.21663067
v -21.39993331 -1.14633340 -9.04469746
v -13.34106013 -1.26075281 -10.36444858
v -13.34106013 -1.26075281 -10.67425281
v -12.91827189 -1.22702693 -10.66225825
v -12.91827189 -1.22702693 -10.43470308
f 2 3 1
f 4 3 2
f 5 3 4
f 6 3 5
f 6 7 3
f 8 7 6
f 8 9 7
f 10 9 8
f 10 5 9
f 10 8 5
f 8 6 5
f 11 9 5
f 11 12 9
f 11 13 12
f 11 14 13
f 11 15 14
f 11 5 15
f 15 5 16
f 15 16 14
f 14 16 13
f 17 13 16
f 17 18 13
f 19 18 17
f 19 20 18
f 19 16 20
f 19 17 16
f 20 16 21
f 20 21 18
f 21 1 18
f 22 1 21
f 22 23 1
f 24 23 22
f 24 25 23
f 24 22 25
f 22 21 25
f 25 21 4
f 25 4 2
f 25 2 23
f 23 2 1
f 4 21 16
f 26 4 16
f 26 27 4
f 26 16 27
f 27 16 5
f 27 5 4
f 18 1 28
f 13 18 28
f 29 13 28
f 30 13 29
f 30 31 13
f 30 29 31
f 32 31 29
f 33 31 32
f 33 12 31
f 33 7 12
f 33 34 7
f 33 35 34
f 33 32 35
f 35 32 29
f 35 29 28
f 36 35 28
f 36 37 35
f 36 28 37
f 37 28 3
f 37 3 34
f 35 37 34
f 34 3 7
f 28 1 3
f 9 12 7
f 12 13 31

