# https://github.com/mikedh/trimesh
v -25.36749802 4.12759771 2.22667512
v -25.36749802 4.25839258 2.22667512
v -24.99675042 6.31669072 1.16236732
v -24.94378648 3.70354703 1.18812699
v -25.01296472 2.96696544 1.69784448
v -25.05836124 2.41762669 2.06380499
v -25.09619195 2.43139459 2.22667512
v -25.16212861 6.26024236 2.22667512
v -24.99134672 6.72697350 1.16552402
v -24.47251469 2.96696544 0.52883400
v -24.50602275 2.96696544 0.56489817
v -24.46819045 2.43001804 0.60727733
v -24.40333644 1.89169409 0.67109672
v -24.36226256 1.61633604 0.72743677
v -24.97080818 2.06103857 2.22667512
v -25.11240625 6.68704664 2.22667512
v -24.92000636 7.02022940 1.24463360
v -21.78864573 12.09782355 0.52883400
v -22.04698069 11.51544199 0.52883400
v -24.09203914 5.57184833 0.52883400
v -24.42387498 3.35384286 0.52883400
v -24.38604268 2.43001804 0.52883400
v -24.18607697 1.91096899 0.52883400
v -22.40475717 -0.14595229 0.52883400
v -22.40475717 -0.14595229 2.22667512
v -25.10375937 6.71595920 2.22667512
v -22.88359478 10.86009127 2.08557674
v -22.25559328 11.88166836 1.20408183
v -21.67839361 12.19557542 0.52883400
v -19.19124719 -1.65078172 0.52883400
v -22.28153553 -0.19414035 2.22667512
v -22.86089572 10.84494682 2.22667512
v -22.23289422 11.85963956 1.83910942
v -22.26424016 11.88855191 1.54810403
v -21.45464777 12.37180426 0.52883400
v -19.15341648 -1.65078172 0.52883400
v -19.04532648 -1.64527472 0.76599299
v -21.93780962 -0.32218112 2.22667512
v -21.41141177 11.55123870 2.22667512
v -20.86339752 11.76464079 2.22667512
v -20.86339752 11.77152514 2.21869770
v -21.19523336 12.39796351 0.82283113
v -21.34871989 12.41448451 0.52883400
v -18.89832471 -1.63976772 0.52883400
v -18.88319147 -1.64527472 0.76599299
v -17.07052573 -1.15513803 2.22667512
v -18.77834464 11.45211028 2.22667512
v -20.54777437 11.87340746 1.94397867
v -21.09362811 12.39796351 0.82283113
v -21.09362811 12.39796351 0.52883400
v -16.75382313 -1.16615203 1.73640230
v -14.32504595 -0.47775850 0.52883400
v -16.75706631 -1.15513803 2.08557674
v -16.76247001 -1.14274668 2.22667512
v -16.99054009 -1.15376148 2.22667512
v -17.85741906 11.37087942 0.82715217
v -19.47336227 11.85000211 1.32174763
v -14.32504595 4.85454185 2.22667512
v -19.44201632 11.86239266 1.01096444
v -17.85741906 11.37087942 0.68007032
v -19.45174426 11.86377001 0.52883400
v -14.32504595 -0.39515109 2.22667512
v -14.32504595 5.38460520 0.52883400
v -14.58662249 6.02618842 1.01096444
v -14.57473403 6.03582592 0.65896482
v -14.32504595 5.57873228 0.93218798
v -17.79256666 11.02668265 0.62871756
v -19.42364150 11.84862476 0.52883400
v -14.32504595 5.49612502 0.59713939
v -15.94531180 7.76369494 0.52883400
v -14.32504595 5.57873228 0.92819847
v -14.32504595 5.54568938 0.65181861
v -19.13828324 11.52508025 0.52883400
f 1 2 3
f 1 3 4
f 1 4 5
f 1 5 6
f 1 6 7
f 1 7 15
f 1 15 25
f 1 25 31
f 1 31 38
f 1 38 46
f 1 46 55
f 1 55 54
f 1 54 62
f 1 62 58
f 1 58 47
f 1 47 40
f 1 40 39
f 1 39 32
f 1 32 26
f 1 26 16
f 1 16 8
f 1 8 2
f 2 8 9
f 2 9 3
f 3 9 10
f 3 10 11
f 3 11 4
f 4 11 12
f 4 12 13
f 4 13 5
f 5 13 6
f 6 13 14
f 6 14 15
f 6 15 7
f 8 16 9
f 9 16 17
f 9 17 18
f 9 18 19
f 9 19 20
f 9 20 21
f 9 21 10
f 10 21 20
f 10 20 19
f 10 19 18
f 10 18 29
f 10 29 35
f 10 35 43
f 10 43 50
f 10 50 61
f 10 61 68
f 10 68 73
f 10 73 70
f 10 70 63
f 10 63 52
f 10 52 44
f 10 44 36
f 10 36 30
f 10 30 24
f 10 24 23
f 10 23 22
f 10 22 12
f 10 12 11
f 12 22 13
f 13 23 14
f 13 22 23
f 14 23 24
f 14 24 15
f 15 24 25
f 16 26 17
f 17 26 27
f 17 27 28
f 17 28 18
f 18 28 29
f 24 30 25
f 25 30 31
f 26 32 27
f 27 32 33
f 27 33 34
f 27 34 28
f 28 34 35
f 28 35 29
f 30 36 45
f 30 45 37
f 30 37 38
f 30 38 31
f 32 39 33
f 33 39 40
f 33 40 41
f 33 41 42
f 33 42 43
f 33 43 35
f 33 35 34
f 36 44 45
f 37 45 46
f 37 46 38
f 40 47 41
f 41 48 49
f 41 49 42
f 41 47 48
f 42 49 43
f 43 49 50
f 44 51 45
f 44 52 51
f 45 51 53
f 45 53 54
f 45 54 55
f 45 55 46
f 47 56 57
f 47 57 49
f 47 49 48
f 47 58 56
f 49 57 59
f 49 59 56
f 49 56 60
f 49 60 50
f 50 60 61
f 51 52 53
f 52 62 53
f 52 63 69
f 52 69 72
f 52 72 71
f 52 71 66
f 52 66 58
f 52 58 62
f 53 62 54
f 56 59 57
f 56 58 64
f 56 64 65
f 56 65 60
f 58 66 64
f 60 67 68
f 60 68 61
f 60 65 63
f 60 63 67
f 63 70 67
f 63 65 69
f 64 66 65
f 65 71 72
f 65 72 69
f 65 66 71
f 67 73 68
f 67 70 73

