# https://github.com/mikedh/trimesh
v -13.97842761 5.47556110 -21.49495020
v -14.06012053 5.47556110 -21.32119660
v -11.76818636 5.27576635 -20.43340952
v -11.72885259 4.92677409 -20.84597133
v -11.39754286 3.83049733 -21.49495020
v -22.53952454 5.47556110 -21.49495020
v -15.35510256 5.47556110 -20.43340952
v -11.32038880 4.92093596 -20.43340952
v -11.36728599 4.94623457 -20.48516147
v -11.45503044 4.85282416 -20.76179597
v -9.26294219 2.82763119 -20.86124751
v -10.26594747 2.78806139 -21.49495020
v -22.78914055 3.49577606 -21.49495020
v -24.41694339 5.31468732 -21.38084630
v -24.41240614 5.47556110 -21.37450728
v -24.71799704 5.47556110 -20.43340952
v -9.26294219 3.21165221 -20.43340952
v -9.43086608 3.16170363 -20.68312882
v -9.26294219 2.89185098 -20.81001486
v -9.26294219 2.42869034 -21.00081158
v -10.21602411 2.69335350 -21.49495020
v -22.78914055 3.47436947 -21.49495020
v -24.71497167 5.11554122 -20.43340952
v -22.77401211 3.11694453 -21.49495020
v -22.51380652 -0.25232301 -21.49495020
v -9.26294219 -0.35351746 -20.43340952
v -9.26294219 3.07607725 -20.59791445
v -9.26294219 0.24067729 -21.49495020
v -10.10861317 2.42869034 -21.49495020
v -22.41547168 -0.14723595 -20.43340952
v -22.44724204 -0.27956733 -21.49495020
v -9.26294219 -0.32043461 -21.49495020
v -10.64566788 -0.78035207 -20.43340952
v -10.85292474 -1.12869530 -20.66390357
v -10.85292474 -1.12869530 -20.84191815
v -21.93741884 -0.33924666 -20.43340952
v -21.92380389 -0.42487304 -21.49495020
v -19.52294369 -1.06836813 -20.74839043
v -11.19028520 -0.61753238 -21.49495020
v -11.20843900 -0.88803367 -20.43340952
v -11.04505397 -1.12869530 -20.66390357
v -18.90722304 -1.15075053 -21.49495020
v -19.63186812 -0.71937546 -20.43340952
v -19.28089190 -1.13972291 -21.49495020
v -19.52445718 -1.07161131 -21.02242718
v -19.32476373 -0.73948479 -20.43340952
v -19.26273810 -1.14426417 -21.49495020
f 1 2 3
f 1 3 4
f 1 4 5
f 1 5 12
f 1 12 21
f 1 21 29
f 1 29 28
f 1 28 32
f 1 32 39
f 1 39 42
f 1 42 47
f 1 47 44
f 1 44 37
f 1 37 31
f 1 31 25
f 1 25 24
f 1 24 22
f 1 22 13
f 1 13 6
f 1 6 15
f 1 15 16
f 1 16 7
f 1 7 2
f 2 7 3
f 3 8 9
f 3 9 10
f 3 10 4
f 3 7 16
f 3 16 23
f 3 23 30
f 3 30 36
f 3 36 43
f 3 43 46
f 3 46 40
f 3 40 33
f 3 33 26
f 3 26 17
f 3 17 8
f 4 10 5
f 5 10 11
f 5 11 12
f 6 13 14
f 6 14 15
f 8 17 9
f 9 17 10
f 10 17 18
f 10 18 19
f 10 19 11
f 11 19 27
f 11 27 17
f 11 17 26
f 11 26 32
f 11 32 28
f 11 28 20
f 11 20 12
f 12 20 21
f 13 22 14
f 14 23 16
f 14 16 15
f 14 22 24
f 14 24 25
f 14 25 23
f 17 27 18
f 18 27 19
f 20 28 29
f 20 29 21
f 23 25 30
f 25 31 30
f 26 33 34
f 26 34 35
f 26 35 32
f 30 31 36
f 31 37 38
f 31 38 36
f 32 35 39
f 33 40 34
f 34 40 41
f 34 41 42
f 34 42 35
f 35 42 39
f 36 38 43
f 37 44 45
f 37 45 38
f 38 46 43
f 38 45 44
f 38 44 47
f 38 47 42
f 38 42 41
f 38 41 40
f 38 40 46

