# https://github.com/mikedh/trimesh
v -6.40591862 1.49375702 -8.31280927
v -6.40591862 2.05992468 -8.41614582
v -6.56971607 2.61794755 -8.12502511
v -7.47341115 1.49375702 -5.75939066
v -6.40591862 1.49375702 -14.99303117
v -6.40591862 2.23899830 -8.50392631
v -6.43566700 2.61794755 -8.53837209
v -7.56882392 2.61794755 -5.75939066
v -8.12515353 1.49375702 -5.75939066
v -7.45799283 1.49375702 -17.10976832
v -6.93358813 2.61794755 -16.15751441
v -6.85776657 2.61794755 -15.85861528
v -6.40591862 1.90264363 -14.61412957
v -6.40591862 2.41840225 -8.59615196
v -6.40591862 2.42555607 -8.63504210
v -6.40591862 2.43171971 -9.15616998
v -6.40591862 2.41587057 -12.42405690
v -8.23670934 2.61794755 -5.75939066
v -8.24868188 1.49375702 -7.72167833
v -8.14764599 1.49375702 -17.10976832
v -7.51204824 2.61794755 -17.10976832
v -6.93776022 2.61794755 -16.16529244
v -6.40591862 2.28049220 -14.08522326
v -6.40591862 2.27851105 -14.08855652
v -6.40591862 1.92267527 -14.59190658
v -6.40591862 1.91816245 -14.59746242
v -8.24886286 2.61794755 -7.59945206
v -8.24886286 2.45659411 -7.60056275
v -8.25902082 1.49375702 -15.74861179
v -8.24160694 2.61530616 -17.10976832
v -8.25902082 1.49375702 -16.09528979
v -8.24160694 2.61794755 -17.10976832
v -8.25702526 2.61794755 -15.64416376
v -8.25865806 1.89141702 -15.77527914
v -8.25865806 1.89141702 -16.07417828
v -8.25702526 2.61794755 -16.19418198
f 1 2 3
f 1 3 4
f 1 4 9
f 1 9 19
f 1 19 29
f 1 29 31
f 1 31 20
f 1 20 10
f 1 10 5
f 1 5 13
f 1 13 26
f 1 26 25
f 1 25 24
f 1 24 23
f 1 23 17
f 1 17 16
f 1 16 15
f 1 15 14
f 1 14 6
f 1 6 2
f 2 6 7
f 2 7 3
f 3 8 4
f 3 7 12
f 3 12 11
f 3 11 22
f 3 22 21
f 3 21 32
f 3 32 36
f 3 36 33
f 3 33 27
f 3 27 18
f 3 18 8
f 4 8 18
f 4 18 9
f 5 10 11
f 5 11 12
f 5 12 13
f 6 14 7
f 7 14 15
f 7 15 16
f 7 16 17
f 7 17 12
f 9 18 19
f 10 20 30
f 10 30 32
f 10 32 21
f 10 21 22
f 10 22 11
f 12 17 23
f 12 23 24
f 12 24 25
f 12 25 26
f 12 26 13
f 18 27 28
f 18 28 19
f 19 28 29
f 20 31 30
f 27 33 34
f 27 34 29
f 27 29 28
f 29 34 35
f 29 35 31
f 30 31 32
f 31 35 36
f 31 36 32
f 33 36 35
f 33 35 34

