# https://github.com/mikedh/trimesh
v -20.26739860 10.19782297 -22.39053453
v -20.26739860 11.04819215 -22.39053453
v -20.19296240 9.98613215 -22.39053453
v -22.46903141 9.78237232 -21.04501454
v -20.21751928 11.25555712 -22.39053453
v -21.76226787 11.25555712 -21.39858169
v -20.07785431 9.78237232 -22.39053453
v -22.78979880 9.78237232 -20.83411450
v -15.14893076 11.25555712 -22.39053453
v -22.88495452 9.78237232 -20.64750949
v -22.96399524 9.78237232 -20.48468260
v -21.79373072 11.25555712 -21.23265296
v -15.81885818 9.78237232 -22.39053453
v -16.18413482 11.25555712 -19.55114065
v -15.12437388 11.16456468 -22.39053453
v -22.77061358 9.78237232 -18.45580542
v -22.22116432 10.78848144 -17.10976832
v -21.82365927 11.25555712 -21.02227023
v -15.18039362 10.71133258 -22.39053453
v -15.80351033 9.78237232 -22.35693558
v -18.42490361 10.23877713 -17.47367381
v -18.35737338 9.92643160 -17.10976832
v -16.28236075 10.26213804 -19.13192551
v -16.17185718 11.02699416 -19.52012583
v -20.43161886 11.25555712 -18.54057876
v -21.73157216 10.80996771 -17.10976832
v -21.63641644 10.79208658 -17.10976832
v -16.28236075 10.20719656 -19.13192551
v -15.18039362 10.71133258 -22.28663543
v -15.15737104 10.81746627 -22.39053453
v -22.74222093 9.78237232 -18.33226366
v -22.23114050 10.74204790 -17.10976832
v -22.17819097 10.81126579 -17.10976832
v -21.77838287 11.25555712 -20.53327225
v -15.80351033 9.78237232 -22.31248078
v -18.35737338 9.78237232 -17.10976832
v -20.85905406 11.25555712 -18.49974291
v -21.94337188 10.82164837 -17.10976832
v -22.20965383 9.78237232 -17.10976832
v -22.24418690 9.93479581 -17.10976832
v -22.24265099 10.47397299 -17.10976832
v -22.04466642 10.82222494 -17.10976832
v -21.16831095 11.25555712 -18.55660327
v -21.37013289 11.25555712 -18.85227645
v -21.48984549 11.25555712 -19.16190631
v -21.58346691 11.25555712 -19.40899004
f 1 2 5
f 1 5 9
f 1 9 15
f 1 15 30
f 1 30 19
f 1 19 13
f 1 13 7
f 1 7 3
f 1 3 4
f 1 4 2
f 2 4 6
f 2 6 5
f 3 7 4
f 4 8 6
f 4 7 13
f 4 13 20
f 4 20 35
f 4 35 36
f 4 36 39
f 4 39 31
f 4 31 16
f 4 16 11
f 4 11 10
f 4 10 8
f 5 6 12
f 5 12 18
f 5 18 34
f 5 34 46
f 5 46 45
f 5 45 44
f 5 44 43
f 5 43 37
f 5 37 25
f 5 25 14
f 5 14 9
f 6 8 10
f 6 10 11
f 6 11 12
f 9 14 15
f 11 16 17
f 11 17 18
f 11 18 12
f 13 19 20
f 14 21 22
f 14 22 23
f 14 23 24
f 14 24 15
f 14 25 26
f 14 26 27
f 14 27 21
f 15 28 29
f 15 29 30
f 15 24 23
f 15 23 28
f 16 31 17
f 17 31 32
f 17 32 41
f 17 41 40
f 17 40 39
f 17 39 36
f 17 36 22
f 17 22 27
f 17 27 26
f 17 26 38
f 17 38 42
f 17 42 33
f 17 33 34
f 17 34 18
f 19 30 29
f 19 29 35
f 19 35 20
f 21 27 22
f 22 36 28
f 22 28 23
f 25 37 38
f 25 38 26
f 28 36 35
f 28 35 29
f 31 39 40
f 31 40 41
f 31 41 32
f 33 42 43
f 33 43 44
f 33 44 45
f 33 45 46
f 33 46 34
f 37 43 42
f 37 42 38

