# https://github.com/mikedh/trimesh
v -8.87206765 0.26535869 -28.09598884
v -9.05988385 0.81955381 -32.82230488
v -9.18320319 0.81955381 -32.47602608
v -9.26240487 0.81955381 -32.32405463
v -9.37122839 0.81955381 -32.14603044
v -9.60610274 0.81955381 -31.79215378
v -10.77333228 0.81955381 -30.30608996
v -11.01808031 0.81955381 -30.14434893
v -11.01808031 0.35073803 -28.09598884
v -8.87206765 -0.32075733 -28.09598884
v -8.87206765 0.81955381 -34.69263998
v -11.01808031 0.81955381 -38.39423184
v -11.01808031 -0.34056395 -28.09598884
v -11.01808031 -1.06532515 -36.33284698
v -10.92102112 -1.06455559 -36.33501871
v -10.78341577 -1.13358970 -37.14372383
v -8.87206765 -0.74246131 -36.55646149
v -8.87206765 0.81955381 -39.16277438
v -10.64097928 0.81955381 -38.72205735
v -10.41156709 0.59091478 -39.05313725
v -11.01808031 0.19497847 -38.62653167
v -11.01808031 -1.13282094 -37.13721024
v -11.01661007 -1.13358970 -37.14372383
v -11.01808031 -1.13455144 -37.17194671
v -10.79518091 -1.14493522 -37.49868635
v -8.87206765 -0.73303846 -36.97546922
v -8.87206765 0.64264191 -39.16386024
v -9.04769830 0.81878466 -39.18448527
v -9.04832852 0.81955381 -39.18448527
v -10.09013745 0.81955381 -39.09872917
v -10.11912908 0.30093318 -39.16603197
v -10.41156709 0.49457469 -39.05313725
v -11.01808031 -0.13384642 -38.58311148
v -11.01808031 -1.14493522 -37.49868635
v -8.87206765 -0.53958954 -38.04686877
v -9.94265841 -0.05942823 -39.17688582
v -9.57816174 -0.04269823 -39.13997922
v -8.87206765 0.33631588 -39.11284060
v -9.59559884 0.81955381 -39.15300480
v -8.87206765 -0.24076247 -38.54946088
v -8.87206765 0.04268071 -38.88488264
v -8.87206765 -0.13923050 -38.70251819
f 1 2 3
f 1 3 4
f 1 4 5
f 1 5 6
f 1 6 7
f 1 7 8
f 1 8 9
f 1 9 13
f 1 13 10
f 1 10 17
f 1 17 26
f 1 26 35
f 1 35 40
f 1 40 42
f 1 42 41
f 1 41 38
f 1 38 27
f 1 27 18
f 1 18 11
f 1 11 2
f 2 11 18
f 2 18 29
f 2 29 39
f 2 39 30
f 2 30 19
f 2 19 12
f 2 12 8
f 2 8 7
f 2 7 6
f 2 6 5
f 2 5 4
f 2 4 3
f 8 12 21
f 8 21 33
f 8 33 34
f 8 34 24
f 8 24 22
f 8 22 14
f 8 14 13
f 8 13 9
f 10 13 14
f 10 14 15
f 10 15 16
f 10 16 17
f 12 19 20
f 12 20 21
f 14 22 23
f 14 23 16
f 14 16 15
f 16 23 24
f 16 24 25
f 16 25 17
f 17 25 26
f 18 27 28
f 18 28 29
f 19 30 20
f 20 30 31
f 20 31 32
f 20 32 21
f 21 32 33
f 22 24 23
f 24 34 25
f 25 35 26
f 25 34 36
f 25 36 37
f 25 37 35
f 27 36 28
f 27 38 37
f 27 37 36
f 28 36 29
f 29 36 31
f 29 31 39
f 30 39 31
f 31 36 33
f 31 33 32
f 33 36 34
f 35 37 40
f 37 38 41
f 37 41 42
f 37 42 40

