# https://github.com/mikedh/trimesh
v 13.54052506 -1.07308316 -14.45045785
v 16.98370429 -1.65354203 -14.45045785
v 16.99692366 -1.64107060 -14.27861973
v 13.54052506 -1.04247314 -14.35414980
v 13.54052506 4.38345504 -14.45045785
v 17.09827105 -1.65807688 -14.45045785
v 17.29215400 -1.65014029 -14.25723475
v 18.95513854 -1.09689051 -12.90118443
v 13.54052506 -0.33503893 -12.90118443
v 13.54052506 5.62486573 -14.45015475
v 13.54228759 5.62599944 -14.45045785
v 17.27893464 -1.66147781 -14.45045785
v 17.59002853 -1.62633295 -14.26769982
v 22.12776363 -0.30556283 -12.90118443
v 13.54052506 4.55237760 -12.90118443
v 13.55286276 5.64527244 -14.45045785
v 13.54052506 4.92990245 -13.16993741
v 14.42180937 8.84799835 -12.90118443
v 14.69677023 9.76856958 -12.90118443
v 14.76639211 9.30148190 -13.32767050
v 17.38028363 -1.65240812 -14.45045785
v 17.42346678 -1.64787327 -14.45045785
v 17.59002853 -1.62633295 -14.34611132
v 22.12776363 -0.33730636 -14.03625663
v 22.51112360 -0.14570965 -12.90118443
v 13.54228759 4.59205742 -12.90118443
v 13.54052506 4.58979000 -12.90452090
v 14.12217310 6.24273669 -14.45045785
v 14.80164428 9.88194037 -12.90118443
v 18.90402441 8.88994589 -14.45045785
v 15.34098923 7.07374489 -14.45045785
v 14.93471719 6.83453248 -14.45045785
v 14.62714995 6.63159866 -14.45045785
v 14.42357269 6.49101879 -14.45045785
v 22.12776363 -0.33277151 -14.45045785
v 22.51112360 -0.14570965 -14.45045785
v 22.54284912 0.17739723 -14.45045785
v 22.51112360 0.11390936 -12.90118443
v 15.11802497 9.92048657 -12.90118443
v 16.21786842 9.71075048 -13.26700400
v 16.53689329 9.71755275 -13.27534558
v 18.91636291 8.88654455 -14.45045785
v 22.54284912 0.24201860 -14.45045785
v 21.67125832 6.18151645 -14.45045785
v 21.45886923 6.54883789 -13.68757527
v 21.18478923 6.71549314 -12.90118443
v 15.15327554 9.91821915 -12.90118443
v 15.22730334 9.91028337 -12.90118443
v 16.57214547 9.72322151 -12.96169898
v 18.93839412 8.87747486 -14.45045785
v 21.50205238 6.66674373 -14.45045785
v 21.06317235 7.25853932 -12.90118443
v 16.56773794 9.71868666 -12.90118443
v 20.99707553 7.23019672 -14.45045785
v 17.59884198 9.18697720 -12.90118443
v 21.02968351 7.19731908 -14.45045785
f 1 2 3
f 1 3 4
f 1 4 9
f 1 9 15
f 1 15 27
f 1 27 17
f 1 17 10
f 1 10 5
f 1 5 11
f 1 11 16
f 1 16 28
f 1 28 34
f 1 34 33
f 1 33 32
f 1 32 31
f 1 31 30
f 1 30 42
f 1 42 50
f 1 50 54
f 1 54 56
f 1 56 51
f 1 51 44
f 1 44 43
f 1 43 37
f 1 37 36
f 1 36 35
f 1 35 22
f 1 22 21
f 1 21 12
f 1 12 6
f 1 6 2
f 2 6 3
f 3 6 7
f 3 7 8
f 3 8 9
f 3 9 4
f 5 10 11
f 6 12 7
f 7 12 13
f 7 13 8
f 8 13 14
f 8 14 25
f 8 25 38
f 8 38 46
f 8 46 52
f 8 52 55
f 8 55 53
f 8 53 48
f 8 48 47
f 8 47 39
f 8 39 29
f 8 29 19
f 8 19 18
f 8 18 26
f 8 26 15
f 8 15 9
f 10 16 11
f 10 17 18
f 10 18 19
f 10 19 20
f 10 20 16
f 12 21 13
f 13 21 22
f 13 22 23
f 13 23 24
f 13 24 14
f 14 24 25
f 15 26 27
f 16 20 28
f 17 27 18
f 18 27 26
f 19 29 20
f 20 29 30
f 20 30 31
f 20 31 32
f 20 32 33
f 20 33 34
f 20 34 28
f 22 35 23
f 23 35 24
f 24 35 36
f 24 36 25
f 25 36 37
f 25 37 43
f 25 43 38
f 29 39 40
f 29 40 30
f 30 40 41
f 30 41 42
f 38 43 44
f 38 44 45
f 38 45 46
f 39 47 41
f 39 41 40
f 41 47 48
f 41 48 49
f 41 49 42
f 42 49 50
f 44 51 45
f 45 51 52
f 45 52 46
f 48 53 49
f 49 53 50
f 50 52 54
f 50 53 55
f 50 55 52
f 51 56 52
f 52 56 54

