# https://github.com/mikedh/trimesh
v -17.69316197 -0.48895629 -30.23999794
v -16.02359978 -0.76005536 -30.23999794
v -16.33680134 -1.62086438 -29.39087237
v -16.97055889 -1.16530640 -29.43767347
v -16.97055889 -1.16530640 -29.25340956
v -17.69316197 -0.45448648 -29.14029062
v -17.69316197 4.65447153 -30.23999794
v -15.48508124 -0.70602157 -30.23999794
v -16.26457371 -1.62086438 -29.39087237
v -16.33680134 -1.62086438 -29.32833184
v -17.69316197 -0.38275253 -28.09598804
v -17.69316197 4.66285595 -30.23684925
v -14.42850262 6.86332272 -30.23999794
v -14.42850262 -0.42374353 -30.23999794
v -14.42850262 -0.44144409 -28.54615433
v -16.26457371 -1.62086438 -29.32833184
v -15.48955602 -0.88396008 -28.09598804
v -17.69316197 5.96711218 -28.09598804
v -17.69316197 5.23859190 -29.97766386
v -17.69316197 5.39044462 -29.90337020
v -16.89896868 7.06455087 -28.84458701
v -16.88682397 7.57507396 -28.35454562
v -16.56403380 7.65519253 -28.42464076
v -16.58736388 7.88343718 -28.09598804
v -16.51673301 7.89647997 -28.09598804
v -15.74555109 7.54339929 -28.82401964
v -16.01592825 7.86387359 -28.09598804
v -14.42850262 7.38502517 -28.54951283
v -14.42850262 -0.42374353 -28.09598804
v -17.57107744 7.14001128 -28.09598804
v -17.69316197 5.68669717 -29.08362625
v -17.69316197 5.46217877 -29.74848710
v -17.43908399 7.07107207 -28.37448277
v -17.07218976 7.24714675 -28.54363586
v -16.96832150 7.64587619 -28.09598804
v -15.97885510 7.85455725 -28.09598804
v -14.42850262 7.39061465 -28.52999448
v -14.42850262 7.41949457 -28.09598804
f 1 2 3
f 1 3 4
f 1 4 5
f 1 5 6
f 1 6 11
f 1 11 18
f 1 18 31
f 1 31 32
f 1 32 20
f 1 20 19
f 1 19 12
f 1 12 7
f 1 7 13
f 1 13 14
f 1 14 8
f 1 8 2
f 2 8 9
f 2 9 3
f 3 9 16
f 3 16 10
f 3 10 5
f 3 5 4
f 5 10 11
f 5 11 6
f 7 12 13
f 8 14 9
f 9 15 16
f 9 14 15
f 10 16 17
f 10 17 11
f 11 17 29
f 11 29 38
f 11 38 36
f 11 36 27
f 11 27 25
f 11 25 24
f 11 24 35
f 11 35 30
f 11 30 18
f 12 19 13
f 13 19 20
f 13 20 21
f 13 21 22
f 13 22 23
f 13 23 24
f 13 24 25
f 13 25 26
f 13 26 27
f 13 27 28
f 13 28 37
f 13 37 38
f 13 38 29
f 13 29 15
f 13 15 14
f 15 29 16
f 16 29 17
f 18 30 31
f 20 32 30
f 20 30 33
f 20 33 34
f 20 34 21
f 21 34 22
f 22 35 24
f 22 24 23
f 22 34 33
f 22 33 30
f 22 30 35
f 25 27 26
f 27 36 37
f 27 37 28
f 30 32 31
f 36 38 37

