# https://github.com/mikedh/trimesh
v -11.82890751 -0.79587289 -36.56541427
v -12.53726943 -0.68688880 -36.59506414
v -11.82890751 -0.79035468 -36.68143525
v -11.82890751 -0.60894476 -31.24656271
v -12.24640657 -0.72137743 -31.22464841
v -12.53726943 -0.78414659 -31.22980547
v -12.53726943 -0.61308322 -37.01144530
v -11.82890751 -0.58204398 -38.02983927
v -11.82890751 -0.61860143 -37.80424523
v -11.82890751 -0.38132032 -28.09598804
v -12.26499360 -0.39028752 -28.09598804
v -12.35230803 -0.39166687 -28.09598804
v -12.53726943 -0.39304662 -28.09598804
v -12.53726943 -0.33510580 -38.20257988
v -11.82890751 -0.56273024 -38.08011418
v -11.82890751 4.52088262 -28.09598804
v -12.53726943 5.28376940 -28.09598804
v -12.53726943 -0.25026419 -38.39336700
v -12.53726943 -0.13714125 -38.57126306
v -11.82890751 -0.36200658 -38.36887417
v -12.32879697 5.06718119 -28.09598804
v -11.82890751 6.25082843 -32.17858717
v -12.53726943 6.25082843 -31.58817614
v -12.42526598 5.16926731 -28.09598804
v -12.53726943 4.23462748 -41.26549578
v -12.26499360 -0.14403922 -38.57126306
v -11.82890751 -0.14403922 -38.57126306
v -11.82890751 6.25082843 -39.46203587
v -12.53726943 6.25082843 -40.53844033
v -12.53726943 4.42431451 -41.26549578
v -12.40827492 4.24911268 -41.23713517
v -11.82890751 5.61485951 -39.86681525
v -11.82890751 6.16598642 -39.73146010
v -12.36631697 6.25082843 -40.34507309
v -12.40432144 6.25082843 -40.40179432
v -12.40827492 4.40017263 -41.23713517
v -11.82890751 5.77971479 -39.87068304
v -12.39475126 6.25082843 -40.39148181
f 1 2 3
f 1 3 9
f 1 9 8
f 1 8 15
f 1 15 20
f 1 20 27
f 1 27 32
f 1 32 37
f 1 37 33
f 1 33 28
f 1 28 22
f 1 22 16
f 1 16 10
f 1 10 4
f 1 4 5
f 1 5 6
f 1 6 2
f 2 7 8
f 2 8 9
f 2 9 3
f 2 6 13
f 2 13 17
f 2 17 23
f 2 23 29
f 2 29 30
f 2 30 25
f 2 25 19
f 2 19 18
f 2 18 14
f 2 14 7
f 4 10 5
f 5 10 6
f 6 10 11
f 6 11 12
f 6 12 13
f 7 14 8
f 8 14 15
f 10 16 21
f 10 21 24
f 10 24 17
f 10 17 13
f 10 13 12
f 10 12 11
f 14 18 15
f 15 18 19
f 15 19 20
f 16 22 21
f 17 24 22
f 17 22 23
f 19 25 26
f 19 26 20
f 20 26 27
f 21 22 24
f 22 28 34
f 22 34 38
f 22 38 35
f 22 35 29
f 22 29 23
f 25 30 36
f 25 36 31
f 25 31 27
f 25 27 26
f 27 31 32
f 28 33 34
f 29 35 36
f 29 36 30
f 31 36 37
f 31 37 32
f 33 37 36
f 33 36 38
f 33 38 34
f 35 38 36

