# https://github.com/mikedh/trimesh
v -22.40479721 -0.14667940 -28.09598804
v -22.41380925 -0.15831762 -25.86615718
v -22.40479721 0.10316723 -28.09598804
v -21.93751494 -0.30417106 -28.09598804
v -21.93751494 -0.35691839 -25.86615718
v -21.94395165 -0.35447840 -25.86615718
v -22.41380925 0.18219433 -25.86615718
v -22.32884753 0.11949804 -28.09598804
v -21.93236589 0.83393511 -25.86615718
v -21.13682567 0.83393511 -27.48193862
v -20.87808232 0.83393511 -27.73231698
v -20.86263517 0.75434506 -27.82028725
v -18.17607878 -0.97243084 -25.86615718
v -15.48952239 -0.88401773 -28.09598804
v -21.37497283 0.31941291 -28.09598804
v -11.42943574 0.83393511 -25.86615718
v -20.32583831 0.83393511 -27.81242915
v -18.25846358 0.83393511 -28.09598804
v -15.48952239 -0.89415408 -28.00867201
v -15.24365086 -1.07060473 -26.14404011
v -14.95787459 -1.08355743 -25.86615718
v -9.26422826 -0.30623589 -28.09598804
v -14.21253881 -1.06854030 -25.86615718
v -9.26422826 0.20246741 -25.86615718
v -11.10117861 0.83393511 -27.46338363
v -11.34447482 0.83393511 -28.09598804
v -15.21146890 -1.07060473 -26.14404011
v -9.26422826 0.20227963 -28.09598804
v -9.26422826 -0.30623589 -25.86615718
v -13.84823753 -1.02930823 -25.86615718
v -9.26422826 0.20246741 -27.47124253
v -11.09860488 0.83393511 -27.48521304
v -11.22218368 0.83393511 -27.95824655
f 1 2 7
f 1 7 3
f 1 3 8
f 1 8 15
f 1 15 18
f 1 18 26
f 1 26 28
f 1 28 22
f 1 22 14
f 1 14 4
f 1 4 5
f 1 5 6
f 1 6 2
f 2 6 5
f 2 5 13
f 2 13 21
f 2 21 23
f 2 23 30
f 2 30 29
f 2 29 24
f 2 24 16
f 2 16 9
f 2 9 7
f 3 7 9
f 3 9 10
f 3 10 11
f 3 11 12
f 3 12 8
f 4 13 5
f 4 14 13
f 8 12 15
f 9 16 25
f 9 25 32
f 9 32 33
f 9 33 26
f 9 26 18
f 9 18 17
f 9 17 11
f 9 11 10
f 11 17 12
f 12 17 18
f 12 18 15
f 13 14 19
f 13 19 20
f 13 20 21
f 14 22 23
f 14 23 19
f 16 24 25
f 19 23 27
f 19 27 20
f 20 27 21
f 21 27 23
f 22 28 31
f 22 31 24
f 22 24 29
f 22 29 30
f 22 30 23
f 24 31 32
f 24 32 25
f 26 33 28
f 28 33 32
f 28 32 31

