# https://github.com/mikedh/trimesh
v -1.60937691 -0.10231328 1.43654027
v -1.60937691 0.10309686 1.43654027
v -1.08437393 -0.10231328 1.43654027
v -1.59252261 -0.10231328 3.94649452
v -1.57157290 0.30951230 1.43654027
v -1.59252261 0.10326447 3.94649452
v -0.00018690 1.08424036 1.43654027
v -0.00018690 1.16700755 3.94649452
v -1.16754275 -0.10231328 3.94649452
v -1.53172111 0.51576020 1.43654027
v -1.55267082 0.30951230 3.94649452
v -0.00018690 1.60915880 1.43654027
v -0.00018690 1.59190165 3.94649452
v -1.51092910 0.58026502 1.43654027
v -1.50856623 0.51576020 3.94649452
v -1.46446163 0.65364972 3.94649452
v -0.10304529 1.60932634 1.43654027
v -0.10320284 1.59190165 3.94649452
v -1.47706281 0.66990158 1.43654027
v -1.44004653 0.69184998 3.94649452
v -0.30954961 1.57162870 1.43654027
v -0.23331153 1.56693753 3.94649452
v -1.30662992 0.92926123 1.43654027
v -1.39830450 0.75668987 3.94649452
v -0.51589639 1.53175308 1.43654027
v -0.30954961 1.55219342 3.94649452
v -1.13824466 1.13818979 1.43654027
v -1.29513125 0.91116640 3.94649452
v -1.22629646 1.01420654 3.94649452
v -0.58032070 1.51080983 1.43654027
v -0.65356596 1.46439984 3.94649452
v -0.51589639 1.50812925 3.94649452
v -0.92922004 1.30674012 1.43654027
v -1.12312306 1.12294323 3.94649452
v -1.08279878 1.16114348 3.94649452
v -1.01412154 1.22615091 3.94649452
v -0.66979015 1.47696567 1.43654027
v -0.75673936 1.39821966 3.94649452
f 1 2 5
f 1 5 10
f 1 10 14
f 1 14 19
f 1 19 23
f 1 23 27
f 1 27 33
f 1 33 37
f 1 37 30
f 1 30 25
f 1 25 21
f 1 21 17
f 1 17 12
f 1 12 7
f 1 7 3
f 1 3 9
f 1 9 4
f 1 4 6
f 1 6 2
f 2 6 5
f 3 7 8
f 3 8 9
f 4 9 8
f 4 8 13
f 4 13 18
f 4 18 22
f 4 22 26
f 4 26 32
f 4 32 31
f 4 31 38
f 4 38 36
f 4 36 35
f 4 35 34
f 4 34 29
f 4 29 28
f 4 28 24
f 4 24 20
f 4 20 16
f 4 16 15
f 4 15 11
f 4 11 6
f 5 6 11
f 5 11 10
f 7 12 13
f 7 13 8
f 10 11 15
f 10 15 16
f 10 16 14
f 12 17 13
f 13 17 18
f 14 16 19
f 16 20 19
f 17 21 18
f 18 21 22
f 19 20 24
f 19 24 23
f 21 25 22
f 22 25 26
f 23 24 28
f 23 28 29
f 23 29 27
f 25 30 31
f 25 31 32
f 25 32 26
f 27 29 34
f 27 34 35
f 27 35 36
f 27 36 33
f 30 37 31
f 31 37 38
f 33 36 38
f 33 38 37

