# https://github.com/mikedh/trimesh
v -0.03616507 0.03708240 0.04738747
v -0.03616507 0.03694060 0.04911288
v -0.03616507 0.03708240 0.04345201
v -0.05687897 0.03708240 0.04738747
v -0.05687897 0.03701758 0.04817814
v -0.03616507 0.03692035 0.04935580
v -0.05687897 0.03692035 0.04935580
v -0.03616507 0.03705674 0.04148488
v -0.05687897 0.03708240 0.04345201
v -0.03616507 0.03609117 0.05071088
v -0.05687897 0.03658814 0.04989998
v -0.03616507 0.03622756 0.03973327
v -0.05687897 0.03705674 0.04148488
v -0.03616507 0.03443957 0.05108240
v -0.05687897 0.03609117 0.05071088
v -0.03616507 0.03443957 0.03894261
v -0.05687897 0.03622756 0.03973327
v -0.04468502 0.02328621 0.05071088
v -0.03616507 0.03282173 0.05071088
v -0.05687897 0.03443957 0.05108240
v -0.04624830 0.02328621 0.05108240
v -0.04428153 0.03247196 0.03891760
v -0.05687897 0.03443957 0.03894261
v -0.03616507 0.03260566 0.03972613
v -0.04450051 0.02328621 0.03972136
v -0.04507026 0.02328621 0.03945820
v -0.04624830 0.02328621 0.03893070
v -0.04690118 0.02328621 0.03892594
v -0.04821506 0.02328621 0.03891760
v -0.04391453 0.02328621 0.04935580
v -0.03616507 0.03198445 0.04934746
v -0.05687897 0.03240444 0.05075256
v -0.05112466 0.02328621 0.05080614
v -0.05018386 0.02328621 0.05105382
v -0.04952894 0.02328621 0.05106454
v -0.04821506 0.02328621 0.05108240
v -0.05215062 0.03247196 0.03891760
v -0.05018386 0.02328621 0.03900453
v -0.05687897 0.03326198 0.03914503
v -0.03616507 0.03179674 0.04148488
v -0.04372800 0.02328621 0.04148488
v -0.04397131 0.02328621 0.04089902
v -0.04372394 0.02328621 0.04738747
v -0.03616507 0.03180484 0.04760538
v -0.05687897 0.03168060 0.05043701
v -0.05157884 0.02328621 0.05068231
v -0.05171874 0.02328621 0.03979519
v -0.05687897 0.03241660 0.03950107
v -0.03616507 0.03179134 0.04345201
v -0.04372394 0.02328621 0.04279829
v -0.03616507 0.03179134 0.04738747
v -0.05687897 0.03136325 0.05013932
v -0.05195800 0.02328621 0.04979400
v -0.05227431 0.02328621 0.04148488
v -0.05687897 0.03132813 0.04029055
v -0.05687897 0.03162793 0.03996190
v -0.05687897 0.03122955 0.04923910
v -0.05213034 0.02328621 0.04935580
v -0.05227836 0.02328621 0.04345201
v -0.05687897 0.03109991 0.04345201
v -0.05687897 0.03112692 0.04148488
v -0.05687897 0.03119714 0.04075732
v -0.05687897 0.03110261 0.04738747
v -0.05227431 0.02328621 0.04738747
v -0.05222970 0.02328621 0.04804120
v -0.05227836 0.02328621 0.04541915
v -0.05687897 0.03109991 0.04541915
f 1 2 6
f 1 6 10
f 1 10 14
f 1 14 19
f 1 19 31
f 1 31 44
f 1 44 51
f 1 51 49
f 1 49 40
f 1 40 24
f 1 24 16
f 1 16 12
f 1 12 8
f 1 8 3
f 1 3 9
f 1 9 4
f 1 4 5
f 1 5 2
f 2 5 7
f 2 7 6
f 3 8 13
f 3 13 9
f 4 9 13
f 4 13 17
f 4 17 23
f 4 23 39
f 4 39 48
f 4 48 56
f 4 56 55
f 4 55 62
f 4 62 61
f 4 61 60
f 4 60 67
f 4 67 63
f 4 63 57
f 4 57 52
f 4 52 45
f 4 45 32
f 4 32 20
f 4 20 15
f 4 15 11
f 4 11 7
f 4 7 5
f 6 7 11
f 6 11 10
f 8 12 17
f 8 17 13
f 10 11 15
f 10 15 20
f 10 20 14
f 12 16 23
f 12 23 17
f 14 18 19
f 14 20 36
f 14 36 21
f 14 21 18
f 16 22 37
f 16 37 23
f 16 24 25
f 16 25 26
f 16 26 27
f 16 27 28
f 16 28 29
f 16 29 22
f 18 30 19
f 18 21 36
f 18 36 35
f 18 35 34
f 18 34 33
f 18 33 46
f 18 46 53
f 18 53 58
f 18 58 65
f 18 65 64
f 18 64 66
f 18 66 59
f 18 59 54
f 18 54 47
f 18 47 38
f 18 38 29
f 18 29 28
f 18 28 27
f 18 27 26
f 18 26 25
f 18 25 42
f 18 42 41
f 18 41 50
f 18 50 43
f 18 43 30
f 19 30 31
f 20 32 33
f 20 33 34
f 20 34 35
f 20 35 36
f 22 29 37
f 23 37 29
f 23 29 38
f 23 38 39
f 24 40 41
f 24 41 42
f 24 42 25
f 30 43 31
f 31 43 44
f 32 45 46
f 32 46 33
f 38 47 39
f 39 47 48
f 40 49 50
f 40 50 41
f 43 51 44
f 43 50 49
f 43 49 51
f 45 52 46
f 46 52 53
f 47 54 55
f 47 55 56
f 47 56 48
f 52 57 58
f 52 58 53
f 54 59 60
f 54 60 61
f 54 61 62
f 54 62 55
f 57 63 64
f 57 64 65
f 57 65 58
f 59 66 67
f 59 67 60
f 63 67 66
f 63 66 64

