# https://github.com/mikedh/trimesh
v -0.03616303 0.00778418 0.04345201
v -0.03616303 0.00778418 0.04738747
v -0.03616303 0.00778639 0.04172779
v -0.02824493 0.00000284 0.04345201
v -0.03616303 0.00782628 0.04884496
v -0.02824493 0.00000284 0.04541915
v -0.02824289 0.00000284 0.04640629
v -0.02824085 0.00000284 0.04738747
v -0.03616303 0.00778861 0.04148488
v -0.02823677 0.00000284 0.04148488
v -0.03616303 0.00796591 0.04977495
v -0.02818580 0.00000284 0.04837461
v -0.02813074 0.00000284 0.04935580
v -0.03616303 0.00781742 0.04056561
v -0.02806548 0.00000284 0.04072398
v -0.03616303 0.00783293 0.04042034
v -0.03616303 0.00806121 0.04989283
v -0.02778612 0.00000284 0.05057395
v -0.02789012 0.00000284 0.03995951
v -0.03616303 0.00872166 0.03972613
v -0.03616303 0.00892112 0.05070850
v -0.02656669 0.00000284 0.05094427
v -0.02723146 0.00000284 0.03956537
v -0.03616303 0.00885685 0.03962848
v -0.03616303 0.01082490 0.05108240
v -0.02460094 0.00000284 0.05108240
v -0.02656669 0.00000284 0.03916885
v -0.03616303 0.01058111 0.03899143
v -0.03616303 0.01279074 0.05108240
v -0.02263314 0.00000284 0.05108240
v -0.02460094 0.00000284 0.03891760
v -0.03616303 0.01082490 0.03891760
v -0.02460094 0.02264428 0.05108240
v -0.02655446 0.02264428 0.05096928
v -0.03616303 0.01303453 0.05106097
v -0.02087333 0.00000284 0.05071088
v -0.01533291 0.00885685 0.05091808
v -0.01533291 0.01025310 0.05107049
v -0.01533291 0.01082490 0.05108240
v -0.02263314 0.00000284 0.03891760
v -0.03616303 0.01279074 0.03891760
v -0.02263314 0.02264428 0.05108240
v -0.02656669 0.02264428 0.05096809
v -0.03616303 0.01475879 0.05086806
v -0.01989453 0.00000284 0.04932484
v -0.01533291 0.00748941 0.05053584
v -0.01533291 0.00833824 0.05080614
v -0.01533291 0.01279074 0.05108240
v -0.01533291 0.00885685 0.03921291
v -0.02051852 0.00000284 0.03984520
v -0.01533291 0.01082490 0.03891760
v -0.03616303 0.01475879 0.03929031
v -0.02656669 0.02263099 0.03913432
v -0.02460094 0.02264428 0.03891760
v -0.02061436 0.02264428 0.05064658
v -0.01533291 0.01475879 0.05101334
v -0.02782078 0.02264428 0.05059776
v -0.03616303 0.01588687 0.05049655
v -0.03616303 0.01490506 0.05082281
v -0.01983539 0.00000284 0.04818171
v -0.01533291 0.00708827 0.04935580
v -0.01533291 0.00728995 0.05012146
v -0.01533291 0.00739411 0.04001191
v -0.02009845 0.00000284 0.04080257
v -0.01533291 0.01279074 0.03891760
v -0.03616303 0.01597774 0.04008097
v -0.02657485 0.02264428 0.03914027
v -0.02263314 0.02264428 0.03891760
v -0.02053075 0.02264428 0.05052393
v -0.01533291 0.01627250 0.05064539
v -0.02820211 0.02264428 0.04935580
v -0.03616303 0.01592454 0.05035008
v -0.01979461 0.00000284 0.04738747
v -0.01533291 0.00704616 0.04867587
v -0.01533291 0.00698188 0.04148488
v -0.01980073 0.00000284 0.04148488
v -0.01533291 0.01336475 0.03892594
v -0.03616303 0.01621709 0.04148488
v -0.02831426 0.02264428 0.04148488
v -0.02793090 0.02264428 0.03992617
v -0.02054299 0.02264428 0.03978566
v -0.01533291 0.01535496 0.03927126
v -0.01533291 0.01475879 0.03905573
v -0.01981500 0.02264428 0.04935580
v -0.01533291 0.01685760 0.04935580
v -0.02831630 0.02264428 0.04739938
v -0.03616303 0.01613731 0.04911288
v -0.03616303 0.01612401 0.04935580
v -0.01979461 0.00000284 0.04345201
v -0.01533291 0.00696415 0.04541915
v -0.01533291 0.00696637 0.04738747
v -0.01533291 0.00696415 0.04345201
v -0.03616303 0.01621931 0.04320910
v -0.02832038 0.02264428 0.04345201
v -0.02051444 0.02264428 0.03979757
v -0.01533291 0.01638775 0.03983091
v -0.01968857 0.02264428 0.04738747
v -0.01533291 0.01694625 0.04813289
v -0.02832038 0.02264428 0.04543225
v -0.03616303 0.01621931 0.04738747
v -0.01971916 0.02264428 0.04105620
v -0.01533291 0.01669138 0.04052751
v -0.01968653 0.02264428 0.04646702
v -0.01533291 0.01699501 0.04738747
v -0.01533291 0.01699944 0.04621458
v -0.01969469 0.02264428 0.04148488
v -0.01533291 0.01698614 0.04148488
v -0.01968653 0.02264428 0.04345201
v -0.01533291 0.01699944 0.04345201
v -0.01533291 0.01699279 0.04228030
f 1 2 5
f 1 5 11
f 1 11 17
f 1 17 21
f 1 21 25
f 1 25 29
f 1 29 35
f 1 35 44
f 1 44 59
f 1 59 58
f 1 58 72
f 1 72 88
f 1 88 87
f 1 87 100
f 1 100 93
f 1 93 78
f 1 78 66
f 1 66 52
f 1 52 41
f 1 41 32
f 1 32 28
f 1 28 24
f 1 24 20
f 1 20 16
f 1 16 14
f 1 14 9
f 1 9 3
f 1 3 4
f 1 4 6
f 1 6 2
f 2 6 7
f 2 7 8
f 2 8 5
f 3 9 10
f 3 10 4
f 4 10 15
f 4 15 19
f 4 19 23
f 4 23 27
f 4 27 31
f 4 31 40
f 4 40 50
f 4 50 64
f 4 64 76
f 4 76 89
f 4 89 73
f 4 73 60
f 4 60 45
f 4 45 36
f 4 36 30
f 4 30 26
f 4 26 22
f 4 22 18
f 4 18 13
f 4 13 12
f 4 12 8
f 4 8 7
f 4 7 6
f 5 8 12
f 5 12 13
f 5 13 11
f 9 14 10
f 10 14 16
f 10 16 15
f 11 13 18
f 11 18 17
f 15 16 19
f 16 20 19
f 17 18 21
f 18 22 21
f 19 20 24
f 19 24 23
f 21 22 25
f 22 26 25
f 23 24 27
f 24 28 27
f 25 26 30
f 25 30 39
f 25 39 48
f 25 48 42
f 25 42 33
f 25 33 29
f 27 28 32
f 27 32 31
f 29 33 34
f 29 34 35
f 30 36 37
f 30 37 38
f 30 38 39
f 31 32 41
f 31 41 54
f 31 54 68
f 31 68 65
f 31 65 51
f 31 51 40
f 33 42 55
f 33 55 69
f 33 69 84
f 33 84 97
f 33 97 103
f 33 103 108
f 33 108 106
f 33 106 101
f 33 101 95
f 33 95 81
f 33 81 68
f 33 68 54
f 33 54 67
f 33 67 80
f 33 80 79
f 33 79 94
f 33 94 99
f 33 99 86
f 33 86 71
f 33 71 57
f 33 57 43
f 33 43 34
f 34 43 35
f 35 43 44
f 36 45 46
f 36 46 47
f 36 47 37
f 37 47 46
f 37 46 62
f 37 62 61
f 37 61 74
f 37 74 91
f 37 91 90
f 37 90 92
f 37 92 75
f 37 75 63
f 37 63 49
f 37 49 51
f 37 51 65
f 37 65 77
f 37 77 83
f 37 83 82
f 37 82 96
f 37 96 102
f 37 102 107
f 37 107 110
f 37 110 109
f 37 109 105
f 37 105 104
f 37 104 98
f 37 98 85
f 37 85 70
f 37 70 56
f 37 56 48
f 37 48 39
f 37 39 38
f 40 49 50
f 40 51 49
f 41 52 53
f 41 53 54
f 42 48 56
f 42 56 55
f 43 57 58
f 43 58 59
f 43 59 44
f 45 60 61
f 45 61 62
f 45 62 46
f 49 63 50
f 50 63 64
f 52 66 67
f 52 67 53
f 53 67 54
f 55 56 70
f 55 70 69
f 57 71 72
f 57 72 58
f 60 73 61
f 61 73 74
f 63 75 76
f 63 76 64
f 65 68 77
f 66 78 79
f 66 79 80
f 66 80 67
f 68 81 82
f 68 82 83
f 68 83 77
f 69 70 84
f 70 85 84
f 71 86 87
f 71 87 88
f 71 88 72
f 73 89 92
f 73 92 90
f 73 90 91
f 73 91 74
f 75 92 76
f 76 92 89
f 78 93 94
f 78 94 79
f 81 95 82
f 82 95 96
f 84 85 97
f 85 98 97
f 86 99 100
f 86 100 87
f 93 100 99
f 93 99 94
f 95 101 96
f 96 101 102
f 97 98 104
f 97 104 105
f 97 105 103
f 101 106 107
f 101 107 102
f 103 105 109
f 103 109 108
f 106 108 109
f 106 109 110
f 106 110 107

