# https://github.com/mikedh/trimesh
v 0.09544742 0.03708240 0.05174566
v 0.08757383 0.03708240 0.05174566
v 0.09699178 0.03682105 0.05174566
v 0.09544742 0.03708240 0.00212886
v 0.06908311 0.03708240 0.04738642
v 0.06908311 0.03701706 0.04816726
v 0.06908311 0.03691543 0.04935144
v 0.06908311 0.03658874 0.04988923
v 0.06908311 0.03608782 0.05070627
v 0.08560693 0.03688639 0.05174566
v 0.09741432 0.03674845 0.05174566
v 0.09741432 0.03674845 0.00212886
v 0.09544742 0.03656696 0.00015867
v 0.06908311 0.03708240 0.00212886
v 0.06908311 0.03543445 0.05085623
v 0.06908311 0.03443988 0.05107859
v 0.08385427 0.03616042 0.05174566
v 0.09879801 0.03592085 0.05174566
v 0.09879801 0.03592085 0.00212886
v 0.09866409 0.03575388 0.00064992
v 0.09741730 0.03608056 0.00006042
v 0.06908311 0.03656696 0.00015867
v 0.09675968 0.03563046 -0.00091175
v 0.09544742 0.03573936 -0.00095312
v 0.08327996 0.03248702 0.05174566
v 0.08330377 0.03443988 0.05174566
v 0.06908311 -0.03443988 0.05107859
v 0.09933958 0.03443988 0.05174566
v 0.09933958 0.03443988 0.00409388
v 0.09931576 0.03443988 0.00212886
v 0.09884562 0.03443988 0.00038620
v 0.09791126 0.03443988 -0.00060148
v 0.06908311 0.03573936 -0.00095312
v 0.09692631 0.03443988 -0.00095312
v 0.09544742 0.03443988 -0.00108240
v 0.08327996 -0.03246525 0.05174566
v 0.06908311 -0.03509325 0.05093380
v 0.08560693 -0.03688639 0.05174566
v 0.08414291 -0.03634191 0.05174566
v 0.08385427 -0.03616042 0.05174566
v 0.08330377 -0.03443988 0.05174566
v 0.09948240 0.03246525 0.05174566
v 0.09948240 0.03246525 0.00409388
v 0.09943181 0.03246525 0.00212886
v 0.09889025 0.03246525 0.00036551
v 0.09791126 0.03246525 -0.00062217
v 0.06908311 0.03443988 -0.00108240
v 0.09692631 -0.03443988 -0.00095312
v 0.09544742 -0.03443988 -0.00108240
v 0.06908311 -0.03608782 0.05070627
v 0.08602947 -0.03694446 0.05174566
v 0.09948240 -0.03246525 0.05174566
v 0.09948240 -0.03246525 0.00409388
v 0.09943181 -0.03246525 0.00212886
v 0.09889025 -0.03246525 0.00036551
v 0.09791126 -0.03246525 -0.00062217
v 0.06908311 -0.03443988 -0.00108240
v 0.09791126 -0.03443988 -0.00060148
v 0.09675968 -0.03563046 -0.00091175
v 0.09544742 -0.03573936 -0.00095312
v 0.06908311 -0.03522392 -0.00100483
v 0.06908311 -0.03691543 0.04935144
v 0.08757383 -0.03708240 0.05174566
v 0.09933958 -0.03443988 0.05174566
v 0.09933958 -0.03443988 0.00409388
v 0.09931576 -0.03443988 0.00212886
v 0.09884562 -0.03443988 0.00038620
v 0.09866409 -0.03575388 0.00064992
v 0.09741730 -0.03608056 0.00006042
v 0.09544742 -0.03656696 0.00015867
v 0.06908311 -0.03573936 -0.00095312
v 0.06908311 -0.03624028 -0.00028088
v 0.06908311 -0.03708240 0.04738642
v 0.09544742 -0.03708240 0.05174566
v 0.09879801 -0.03592085 0.05174566
v 0.09879801 -0.03592085 0.00212886
v 0.09741432 -0.03674845 0.00212886
v 0.06908311 -0.03656696 0.00015867
v 0.09544742 -0.03708240 0.00212886
v 0.06908311 -0.03708240 0.00212886
v 0.09741432 -0.03674845 0.05174566
v 0.09771189 -0.03657422 0.05174566
f 1 2 10
f 1 10 17
f 1 17 26
f 1 26 25
f 1 25 36
f 1 36 41
f 1 41 40
f 1 40 39
f 1 39 38
f 1 38 51
f 1 51 63
f 1 63 74
f 1 74 81
f 1 81 82
f 1 82 75
f 1 75 64
f 1 64 52
f 1 52 42
f 1 42 28
f 1 28 18
f 1 18 11
f 1 11 3
f 1 3 4
f 1 4 14
f 1 14 5
f 1 5 2
f 2 5 6
f 2 6 7
f 2 7 8
f 2 8 9
f 2 9 10
f 3 11 12
f 3 12 4
f 4 12 13
f 4 13 22
f 4 22 14
f 5 14 22
f 5 22 33
f 5 33 47
f 5 47 57
f 5 57 61
f 5 61 71
f 5 71 72
f 5 72 78
f 5 78 80
f 5 80 73
f 5 73 62
f 5 62 50
f 5 50 37
f 5 37 27
f 5 27 16
f 5 16 15
f 5 15 9
f 5 9 8
f 5 8 7
f 5 7 6
f 9 15 10
f 10 15 16
f 10 16 17
f 11 18 19
f 11 19 12
f 12 19 20
f 12 20 21
f 12 21 13
f 13 21 23
f 13 23 24
f 13 24 33
f 13 33 22
f 16 25 26
f 16 26 17
f 16 27 36
f 16 36 25
f 18 28 29
f 18 29 19
f 19 29 30
f 19 30 20
f 20 23 21
f 20 30 31
f 20 31 32
f 20 32 23
f 23 32 34
f 23 34 35
f 23 35 24
f 24 35 47
f 24 47 33
f 27 37 38
f 27 38 39
f 27 39 40
f 27 40 41
f 27 41 36
f 28 42 43
f 28 43 29
f 29 43 30
f 30 43 44
f 30 44 31
f 31 44 45
f 31 45 32
f 32 45 46
f 32 46 34
f 34 46 56
f 34 56 48
f 34 48 49
f 34 49 35
f 35 49 57
f 35 57 47
f 37 50 38
f 38 50 51
f 42 52 53
f 42 53 43
f 43 53 54
f 43 54 44
f 44 54 55
f 44 55 45
f 45 55 56
f 45 56 46
f 48 56 58
f 48 58 59
f 48 59 49
f 49 59 60
f 49 60 61
f 49 61 57
f 50 62 63
f 50 63 51
f 52 64 65
f 52 65 53
f 53 65 66
f 53 66 54
f 54 66 67
f 54 67 55
f 55 67 58
f 55 58 56
f 58 67 68
f 58 68 59
f 59 68 69
f 59 69 70
f 59 70 60
f 60 71 61
f 60 70 72
f 60 72 71
f 62 73 63
f 63 73 80
f 63 80 79
f 63 79 74
f 64 75 76
f 64 76 65
f 65 76 66
f 66 76 68
f 66 68 67
f 68 76 77
f 68 77 69
f 69 77 70
f 70 78 72
f 70 77 79
f 70 79 80
f 70 80 78
f 74 79 77
f 74 77 81
f 75 82 76
f 76 82 77
f 77 82 81

