# https://github.com/mikedh/trimesh
v -0.01533290 0.00696457 0.04345201
v -0.01533290 0.00696457 0.04541915
v -0.01533290 0.00698211 0.04148488
v -0.00423901 0.00094792 0.04148488
v -0.00424502 0.00094792 0.04341391
v -0.01533290 0.00696676 0.04738747
v -0.00424502 0.00094792 0.04541915
v -0.00424352 0.00094792 0.04738747
v -0.01533290 0.00739213 0.04001191
v -0.00408435 0.00094792 0.04022386
v -0.00423601 0.00094792 0.04145987
v -0.01533290 0.00704569 0.04867587
v -0.00415492 0.00094792 0.04935580
v -0.01533290 0.00885683 0.03921291
v -0.00295213 0.00094792 0.03943320
v -0.01533290 0.00708735 0.04935580
v -0.00400476 0.00094792 0.05039057
v -0.01533290 0.01082583 0.03891760
v -0.00098503 0.00094792 0.03891760
v -0.00291459 0.00094792 0.03942248
v -0.01533290 0.00728908 0.05012146
v -0.00400176 0.00094792 0.05041081
v -0.01533290 0.01279045 0.03891760
v 0.00000754 0.00094792 0.03891760
v -0.01533290 0.00748861 0.05053584
v -0.00297316 0.00094792 0.05077518
v -0.01533290 0.01336273 0.03892594
v -0.00098503 0.02334589 0.03891760
v 0.00000754 0.00094792 0.05108240
v 0.00000754 0.02334589 0.03891760
v -0.01533290 0.00833936 0.05080614
v -0.00295213 0.00094792 0.05078233
v -0.01533290 0.01475945 0.03905573
v -0.00295213 0.02334589 0.03940462
v -0.01533290 0.01535366 0.03927126
v -0.00098503 0.00094792 0.05108240
v 0.00000754 0.02334589 0.05108240
v -0.01533290 0.00885683 0.05091808
v -0.00410387 0.02334589 0.04019528
v -0.01533290 0.01638859 0.03983091
v -0.01533290 0.01082583 0.05108240
v -0.01533290 0.01025135 0.05107049
v -0.00098503 0.02334589 0.05108240
v -0.00427655 0.02334589 0.04148488
v -0.01533290 0.01669118 0.04052751
v -0.01533290 0.01698500 0.04148488
v -0.01533290 0.01279045 0.05108240
v -0.00223887 0.02334589 0.05091331
v -0.01533290 0.01475945 0.05101334
v -0.00427956 0.02334589 0.04219814
v -0.01533290 0.01699157 0.04228030
v -0.01533290 0.01700035 0.04345201
v -0.00295213 0.02334589 0.05079900
v -0.01533290 0.01627238 0.05064539
v -0.00428256 0.02334589 0.04345201
v -0.01533290 0.01700035 0.04541915
v -0.00364438 0.02334589 0.05056323
v -0.01533290 0.01685782 0.04935580
v -0.00401828 0.02334589 0.05042748
v -0.00428256 0.02334589 0.04613360
v -0.01533290 0.01699596 0.04738747
v -0.00428106 0.02334589 0.04738747
v -0.00414141 0.02334589 0.04973327
v -0.00419096 0.02334589 0.04935580
v -0.01533290 0.01694553 0.04813289
v -0.00424952 0.02334589 0.04810074
f 1 2 6
f 1 6 12
f 1 12 16
f 1 16 21
f 1 21 25
f 1 25 31
f 1 31 38
f 1 38 42
f 1 42 41
f 1 41 47
f 1 47 49
f 1 49 54
f 1 54 58
f 1 58 65
f 1 65 61
f 1 61 56
f 1 56 52
f 1 52 51
f 1 51 46
f 1 46 45
f 1 45 40
f 1 40 35
f 1 35 33
f 1 33 27
f 1 27 23
f 1 23 18
f 1 18 14
f 1 14 9
f 1 9 3
f 1 3 4
f 1 4 5
f 1 5 7
f 1 7 2
f 2 7 8
f 2 8 6
f 3 9 10
f 3 10 11
f 3 11 4
f 4 11 10
f 4 10 15
f 4 15 20
f 4 20 19
f 4 19 24
f 4 24 29
f 4 29 36
f 4 36 32
f 4 32 26
f 4 26 22
f 4 22 17
f 4 17 13
f 4 13 8
f 4 8 7
f 4 7 5
f 6 8 13
f 6 13 12
f 9 14 15
f 9 15 10
f 12 13 16
f 13 17 16
f 14 18 19
f 14 19 20
f 14 20 15
f 16 17 22
f 16 22 21
f 18 23 28
f 18 28 30
f 18 30 24
f 18 24 19
f 21 22 25
f 22 26 25
f 23 27 28
f 24 30 37
f 24 37 29
f 25 26 32
f 25 32 31
f 27 33 28
f 28 34 39
f 28 39 44
f 28 44 50
f 28 50 55
f 28 55 60
f 28 60 62
f 28 62 66
f 28 66 64
f 28 64 63
f 28 63 59
f 28 59 57
f 28 57 53
f 28 53 48
f 28 48 43
f 28 43 37
f 28 37 30
f 28 33 35
f 28 35 34
f 29 37 43
f 29 43 47
f 29 47 41
f 29 41 36
f 31 32 36
f 31 36 38
f 34 35 40
f 34 40 39
f 36 41 42
f 36 42 38
f 39 40 45
f 39 45 46
f 39 46 44
f 43 48 49
f 43 49 47
f 44 46 51
f 44 51 52
f 44 52 50
f 48 53 54
f 48 54 49
f 50 52 55
f 52 56 60
f 52 60 55
f 53 57 54
f 54 57 59
f 54 59 58
f 56 61 62
f 56 62 60
f 58 59 63
f 58 63 64
f 58 64 65
f 61 65 64
f 61 64 66
f 61 66 62

