# https://github.com/mikedh/trimesh
v -0.01968246 -0.02262293 0.04738747
v -0.01968246 -0.02262293 0.04345201
v -0.01971712 -0.02262293 0.04817576
v -0.01533291 -0.03111659 0.04935699
v -0.01533291 -0.03099770 0.04773041
v -0.01533291 -0.03097930 0.04738747
v -0.01533291 -0.03097789 0.04581329
v -0.01968653 -0.02262293 0.04243629
v -0.01533291 -0.03097789 0.04345201
v -0.01980888 -0.02262293 0.04935580
v -0.01533291 -0.03132466 0.05011550
v -0.01983132 -0.02262293 0.04957014
v -0.01969061 -0.02262293 0.04148488
v -0.01533291 -0.03099346 0.04186354
v -0.01533291 -0.03150299 0.05049059
v -0.02061028 -0.02262293 0.05064539
v -0.02051240 -0.02262293 0.03979876
v -0.01533291 -0.03099770 0.04148488
v -0.01533291 -0.03124398 0.04025601
v -0.01533291 -0.03126521 0.04019171
v -0.01533291 -0.03241449 0.05078709
v -0.02263314 -0.02262293 0.05108240
v -0.01533291 -0.03443990 0.05108240
v -0.02155645 -0.02262293 0.03936533
v -0.01533291 -0.03180588 0.03977495
v -0.01533291 -0.03236637 0.03949512
v -0.01533291 -0.03386667 0.03898547
v -0.02460094 -0.02262293 0.05108240
v -0.01533291 -0.03609164 0.05071088
v -0.03616303 -0.03443990 0.05108240
v -0.02263314 -0.02263284 0.03891760
v -0.02264129 -0.02262293 0.03891760
v -0.01533291 -0.03443990 0.03894261
v -0.02656669 -0.02262293 0.05096928
v -0.01533291 -0.03633367 0.05031555
v -0.03616303 -0.03609164 0.05071088
v -0.03616303 -0.03422759 0.05103596
v -0.02066534 -0.03247111 0.03891760
v -0.01869754 -0.03247111 0.03891998
v -0.02460094 -0.02263284 0.03891760
v -0.02460909 -0.02262293 0.03891879
v -0.01533291 -0.03622751 0.03973327
v -0.03616303 -0.03443990 0.03894261
v -0.02782078 -0.02262293 0.05059776
v -0.03616303 -0.03282212 0.05071088
v -0.01533291 -0.03692105 0.04935580
v -0.03616303 -0.03681914 0.04952251
v -0.02853449 -0.03247111 0.03891760
v -0.02656669 -0.02263284 0.03913432
v -0.02657485 -0.02262293 0.03913789
v -0.01533291 -0.03681489 0.04097523
v -0.03616303 -0.03622751 0.03973327
v -0.03616303 -0.03286175 0.03961419
v -0.02820619 -0.02262293 0.04935580
v -0.03616303 -0.03198564 0.04934746
v -0.03616303 -0.03271314 0.05054775
v -0.01533291 -0.03696775 0.04878304
v -0.03616303 -0.03692105 0.04935580
v -0.02793294 -0.02262293 0.03992498
v -0.03616303 -0.03260557 0.03972613
v -0.01533291 -0.03705551 0.04148488
v -0.03616303 -0.03705551 0.04148488
v -0.02832038 -0.02262293 0.04738747
v -0.03616303 -0.03179315 0.04738747
v -0.01533291 -0.03708099 0.04738747
v -0.03616303 -0.03708099 0.04738747
v -0.02831834 -0.02262293 0.04148488
v -0.03616303 -0.03187665 0.04129912
v -0.03616303 -0.03179739 0.04148488
v -0.01533291 -0.03707391 0.04287926
v -0.03616303 -0.03705975 0.04172779
v -0.02832446 -0.02262293 0.04541915
v -0.03616303 -0.03179173 0.04541915
v -0.01533291 -0.03708099 0.04345201
v -0.03616303 -0.03708099 0.04345201
v -0.02832446 -0.02262293 0.04345201
v -0.03616303 -0.03179173 0.04319719
f 1 2 8
f 1 8 13
f 1 13 17
f 1 17 24
f 1 24 32
f 1 32 41
f 1 41 50
f 1 50 59
f 1 59 67
f 1 67 76
f 1 76 72
f 1 72 63
f 1 63 54
f 1 54 44
f 1 44 34
f 1 34 28
f 1 28 22
f 1 22 16
f 1 16 12
f 1 12 10
f 1 10 3
f 1 3 4
f 1 4 5
f 1 5 6
f 1 6 7
f 1 7 9
f 1 9 2
f 2 9 8
f 3 10 4
f 4 11 15
f 4 15 21
f 4 21 23
f 4 23 29
f 4 29 35
f 4 35 46
f 4 46 57
f 4 57 65
f 4 65 74
f 4 74 70
f 4 70 61
f 4 61 51
f 4 51 42
f 4 42 33
f 4 33 27
f 4 27 26
f 4 26 25
f 4 25 20
f 4 20 19
f 4 19 18
f 4 18 14
f 4 14 9
f 4 9 7
f 4 7 6
f 4 6 5
f 4 10 12
f 4 12 11
f 8 9 13
f 9 14 13
f 11 12 15
f 12 16 15
f 13 14 18
f 13 18 19
f 13 19 20
f 13 20 17
f 15 16 21
f 16 22 23
f 16 23 21
f 17 20 25
f 17 25 26
f 17 26 27
f 17 27 24
f 22 28 30
f 22 30 23
f 23 30 36
f 23 36 29
f 24 31 32
f 24 27 31
f 27 33 31
f 28 34 30
f 29 36 35
f 30 34 37
f 30 37 45
f 30 45 56
f 30 56 55
f 30 55 64
f 30 64 73
f 30 73 77
f 30 77 69
f 30 69 68
f 30 68 60
f 30 60 53
f 30 53 43
f 30 43 52
f 30 52 62
f 30 62 71
f 30 71 75
f 30 75 66
f 30 66 58
f 30 58 47
f 30 47 36
f 31 38 48
f 31 48 40
f 31 40 32
f 31 33 39
f 31 39 38
f 32 40 41
f 33 38 39
f 33 42 52
f 33 52 43
f 33 43 48
f 33 48 38
f 34 44 45
f 34 45 37
f 35 36 47
f 35 47 46
f 40 48 43
f 40 43 41
f 41 43 49
f 41 49 50
f 42 51 52
f 43 53 50
f 43 50 49
f 44 54 55
f 44 55 56
f 44 56 45
f 46 47 58
f 46 58 57
f 50 53 60
f 50 60 59
f 51 61 62
f 51 62 52
f 54 63 64
f 54 64 55
f 57 58 66
f 57 66 65
f 59 60 68
f 59 68 69
f 59 69 67
f 61 70 71
f 61 71 62
f 63 72 64
f 64 72 73
f 65 66 75
f 65 75 74
f 67 69 76
f 69 77 76
f 70 74 71
f 71 74 75
f 72 76 77
f 72 77 73

