# https://github.com/mikedh/trimesh
v -0.08411761 -0.02289453 0.07887470
v -0.08411761 -0.03443953 0.07887470
v -0.08411761 -0.02289453 0.07690663
v -0.08432817 -0.02289453 0.08084277
v -0.08432817 -0.03050370 0.08084277
v -0.08432967 -0.03247162 0.08084277
v -0.08440637 -0.03429371 0.08085076
v -0.08445600 -0.03570333 0.08019899
v -0.08437178 -0.03590054 0.07887470
v -0.08437178 -0.03595887 0.07690663
v -0.08411761 -0.03443953 0.06576437
v -0.08427102 -0.02289453 0.07520215
v -0.08411761 -0.03050370 0.06576437
v -0.08436125 -0.02289453 0.08098015
v -0.08458083 -0.03050370 0.08186674
v -0.08458234 -0.03247162 0.08186514
v -0.08459738 -0.03353960 0.08185237
v -0.08560806 -0.03595609 0.08048813
v -0.08560806 -0.03663938 0.07887470
v -0.08560806 -0.03470340 0.08147217
v -0.08560806 -0.03678798 0.07690663
v -0.08519146 -0.03650883 0.06576437
v -0.08437178 -0.03595887 0.06576437
v -0.08429508 -0.02289453 0.07493857
v -0.08428605 -0.02943850 0.06576437
v -0.08458083 -0.02289453 0.08186674
v -0.08560806 -0.03050370 0.08199294
v -0.08560806 -0.03247162 0.08199134
v -0.08560806 -0.03372014 0.08190827
v -0.08757679 -0.03606997 0.08060475
v -0.08757679 -0.03689908 0.07887470
v -0.08757679 -0.03484228 0.08158878
v -0.08757679 -0.03708101 0.07690663
v -0.08691353 -0.03698241 0.06576437
v -0.08560806 -0.03678798 0.06576437
v -0.08451466 -0.02289453 0.07402482
v -0.08437178 -0.02889688 0.06576437
v -0.08560806 -0.02289453 0.08199294
v -0.08587126 -0.02289453 0.08200572
v -0.08757679 -0.03050370 0.08208080
v -0.08757679 -0.03247162 0.08207920
v -0.08757679 -0.03385902 0.08195141
v -0.09544719 -0.03606997 0.08060475
v -0.09544719 -0.03689908 0.07887470
v -0.09544719 -0.03484228 0.08158878
v -0.09544719 -0.03708101 0.07690663
v -0.08757679 -0.03708101 0.06576437
v -0.08454925 -0.02289453 0.07388584
v -0.08478839 -0.02859273 0.06576437
v -0.08757679 -0.02289453 0.08208080
v -0.09544719 -0.03050370 0.08208080
v -0.09544719 -0.03247162 0.08207920
v -0.09544719 -0.03385902 0.08195141
v -0.09741592 -0.03588249 0.08039229
v -0.09741592 -0.03654633 0.07887470
v -0.09741592 -0.03675187 0.07690663
v -0.09675416 -0.03372431 0.08190987
v -0.09741291 -0.03440342 0.08138271
v -0.09675266 -0.03686297 0.06576437
v -0.09544719 -0.03708101 0.06576437
v -0.08560806 -0.02799555 0.06576437
v -0.08757679 -0.02771779 0.06576437
v -0.08560806 -0.02289453 0.07372131
v -0.09544719 -0.02289453 0.08208080
v -0.09564421 -0.02289453 0.08206483
v -0.09692712 -0.03050370 0.08195460
v -0.09692110 -0.03247162 0.08195300
v -0.09854994 -0.03560334 0.08007280
v -0.09871236 -0.03580888 0.07887470
v -0.09879959 -0.03592276 0.07690663
v -0.09741592 -0.03675187 0.06576437
v -0.09790472 -0.03247162 0.08161913
v -0.09875598 -0.03443953 0.08040667
v -0.09544719 -0.02771779 0.06576437
v -0.08757679 -0.02289453 0.07362705
v -0.09692712 -0.02289453 0.08195460
v -0.09791073 -0.03050370 0.08162233
v -0.09922673 -0.03443953 0.07887470
v -0.09934103 -0.03443953 0.07690663
v -0.09879959 -0.03592276 0.06576437
v -0.09888833 -0.03247162 0.08063510
v -0.09942977 -0.03247162 0.07887470
v -0.09741592 -0.02776640 0.06576437
v -0.09741592 -0.02289453 0.07362705
v -0.09791073 -0.02289453 0.08162233
v -0.09889133 -0.03050370 0.08063830
v -0.09948090 -0.03247162 0.07690663
v -0.09934103 -0.03443953 0.06576437
v -0.09943277 -0.03050370 0.07887470
v -0.09792878 -0.02806916 0.06576437
v -0.09863716 -0.02289453 0.07379159
v -0.09847323 -0.02289453 0.07376923
v -0.09889133 -0.02289453 0.08063830
v -0.09948090 -0.02289453 0.07690663
v -0.09948090 -0.03247162 0.06576437
v -0.09943277 -0.02289453 0.07887470
v -0.09894097 -0.02866773 0.06576437
v -0.09910640 -0.02289453 0.07478521
v -0.09944179 -0.02289453 0.07664465
v -0.09948090 -0.03050370 0.06576437
v -0.09917860 -0.02289453 0.07493857
f 1 2 11
f 1 11 13
f 1 13 3
f 1 3 12
f 1 12 24
f 1 24 36
f 1 36 48
f 1 48 63
f 1 63 75
f 1 75 84
f 1 84 92
f 1 92 91
f 1 91 98
f 1 98 101
f 1 101 99
f 1 99 94
f 1 94 96
f 1 96 93
f 1 93 85
f 1 85 76
f 1 76 65
f 1 65 64
f 1 64 50
f 1 50 39
f 1 39 38
f 1 38 26
f 1 26 14
f 1 14 4
f 1 4 5
f 1 5 2
f 2 5 6
f 2 6 7
f 2 7 8
f 2 8 9
f 2 9 10
f 2 10 23
f 2 23 11
f 3 13 12
f 4 14 5
f 5 14 15
f 5 15 6
f 6 15 16
f 6 16 17
f 6 17 7
f 7 17 8
f 8 18 19
f 8 19 9
f 8 17 20
f 8 20 18
f 9 19 21
f 9 21 10
f 10 21 22
f 10 22 23
f 11 23 22
f 11 22 35
f 11 35 34
f 11 34 47
f 11 47 60
f 11 60 59
f 11 59 71
f 11 71 80
f 11 80 88
f 11 88 95
f 11 95 100
f 11 100 97
f 11 97 90
f 11 90 83
f 11 83 74
f 11 74 62
f 11 62 61
f 11 61 49
f 11 49 37
f 11 37 25
f 11 25 13
f 12 13 24
f 13 25 24
f 14 26 15
f 15 26 38
f 15 38 27
f 15 27 28
f 15 28 16
f 16 28 17
f 17 28 29
f 17 29 20
f 18 30 31
f 18 31 19
f 18 20 32
f 18 32 30
f 19 31 33
f 19 33 21
f 20 29 32
f 21 33 34
f 21 34 35
f 21 35 22
f 24 25 37
f 24 37 36
f 27 38 39
f 27 39 40
f 27 40 41
f 27 41 28
f 28 41 29
f 29 42 32
f 29 41 42
f 30 43 44
f 30 44 31
f 30 32 45
f 30 45 43
f 31 44 46
f 31 46 33
f 32 42 53
f 32 53 45
f 33 46 60
f 33 60 47
f 33 47 34
f 36 37 48
f 37 49 48
f 39 50 40
f 40 50 64
f 40 64 51
f 40 51 52
f 40 52 41
f 41 52 53
f 41 53 42
f 43 54 44
f 43 45 54
f 44 54 55
f 44 55 56
f 44 56 46
f 45 53 57
f 45 57 58
f 45 58 54
f 46 56 59
f 46 59 60
f 48 49 61
f 48 61 62
f 48 62 63
f 51 64 65
f 51 65 66
f 51 66 52
f 52 66 67
f 52 67 57
f 52 57 53
f 54 68 55
f 54 58 68
f 55 68 69
f 55 69 56
f 56 69 70
f 56 70 80
f 56 80 71
f 56 71 59
f 57 67 72
f 57 72 58
f 58 72 73
f 58 73 68
f 62 74 84
f 62 84 75
f 62 75 63
f 65 76 66
f 66 77 67
f 66 76 85
f 66 85 77
f 67 77 72
f 68 73 78
f 68 78 69
f 69 78 70
f 70 78 79
f 70 79 88
f 70 88 80
f 72 77 81
f 72 81 73
f 73 81 82
f 73 82 78
f 74 83 84
f 77 85 93
f 77 93 86
f 77 86 81
f 78 82 79
f 79 82 87
f 79 87 95
f 79 95 88
f 81 86 82
f 82 86 89
f 82 89 87
f 83 90 91
f 83 91 92
f 83 92 84
f 86 93 96
f 86 96 89
f 87 89 96
f 87 96 94
f 87 94 100
f 87 100 95
f 90 97 91
f 91 97 98
f 94 99 100
f 97 100 101
f 97 101 98
f 99 101 100

