# https://github.com/mikedh/trimesh
v -0.08757500 0.03708240 0.05174566
v -0.09544681 0.03708240 0.05174566
v -0.08602743 0.03694446 0.05174566
v -0.06907850 0.03608782 0.05070627
v -0.06907850 0.03642177 0.05016847
v -0.06907850 0.03691543 0.04935144
v -0.06907850 0.03708240 0.04738642
v -0.09544681 0.03708240 0.00212886
v -0.09741401 0.03674845 0.05174566
v -0.08560780 0.03688639 0.05174566
v -0.06907850 0.03509325 0.05093380
v -0.06907850 0.03708240 0.00212886
v -0.09544681 0.03656696 0.00015867
v -0.09741401 0.03674845 0.00212886
v -0.09771162 0.03657422 0.05174566
v -0.08414355 0.03634191 0.05174566
v -0.06907850 0.03443988 0.05107859
v -0.06907850 0.03656696 0.00015867
v -0.09544681 0.03573936 -0.00095312
v -0.09676224 0.03563046 -0.00091175
v -0.09741699 0.03608056 0.00006042
v -0.09866398 0.03575388 0.00064992
v -0.09879790 0.03592085 0.00212886
v -0.09879790 0.03592085 0.05174566
v -0.08385190 0.03616042 0.05174566
v -0.08330429 0.03443988 0.05174566
v -0.08328048 0.03246525 0.05174566
v -0.06907850 -0.03443988 0.05107859
v -0.06907850 0.03573936 -0.00095312
v -0.09544681 0.03443988 -0.00108240
v -0.09692593 0.03443988 -0.00095312
v -0.09791102 0.03443988 -0.00060148
v -0.09884551 0.03443988 0.00038620
v -0.09931574 0.03443988 0.00212886
v -0.09933955 0.03443988 0.00409388
v -0.09933955 0.03443988 0.05174566
v -0.08328048 -0.03248702 0.05174566
v -0.08330429 -0.03443988 0.05174566
v -0.08385190 -0.03616042 0.05174566
v -0.08560780 -0.03688639 0.05174566
v -0.06907850 -0.03542719 0.05085623
v -0.06907850 0.03443988 -0.00108240
v -0.09544681 -0.03443988 -0.00108240
v -0.09791102 0.03246525 -0.00062217
v -0.09692593 -0.03443988 -0.00095312
v -0.09889016 0.03246525 0.00036551
v -0.09943181 0.03246525 0.00212886
v -0.09948240 0.03246525 0.00409388
v -0.09948240 0.03246525 0.05174566
v -0.08757500 -0.03708240 0.05174566
v -0.06907850 -0.03608782 0.05070627
v -0.06907850 -0.03443988 -0.00108240
v -0.09544681 -0.03573936 -0.00095312
v -0.09676224 -0.03563046 -0.00091175
v -0.09791102 -0.03246525 -0.00062217
v -0.09791102 -0.03443988 -0.00060148
v -0.09889016 -0.03246525 0.00036551
v -0.09943181 -0.03246525 0.00212886
v -0.09948240 -0.03246525 0.00409388
v -0.09948240 -0.03246525 0.05174566
v -0.06907850 -0.03701706 0.04817243
v -0.06907850 -0.03691543 0.04935144
v -0.06907850 -0.03658874 0.04989441
v -0.09544681 -0.03708240 0.05174566
v -0.06907850 -0.03708240 0.04738642
v -0.06907850 -0.03573936 -0.00095312
v -0.09544681 -0.03656696 0.00015867
v -0.09741699 -0.03608056 0.00006042
v -0.09866398 -0.03575388 0.00064992
v -0.09884551 -0.03443988 0.00038620
v -0.09931574 -0.03443988 0.00212886
v -0.09933955 -0.03443988 0.00409388
v -0.09933955 -0.03443988 0.05174566
v -0.09699140 -0.03682105 0.05174566
v -0.09544681 -0.03708240 0.00212886
v -0.06907850 -0.03708240 0.00212886
v -0.06907850 -0.03656696 0.00015867
v -0.09741401 -0.03674845 0.00212886
v -0.09879790 -0.03592085 0.00212886
v -0.09879790 -0.03592085 0.05174566
v -0.09741401 -0.03674845 0.05174566
f 1 2 9
f 1 9 15
f 1 15 24
f 1 24 36
f 1 36 49
f 1 49 60
f 1 60 73
f 1 73 80
f 1 80 81
f 1 81 74
f 1 74 64
f 1 64 50
f 1 50 40
f 1 40 39
f 1 39 38
f 1 38 37
f 1 37 27
f 1 27 26
f 1 26 25
f 1 25 16
f 1 16 10
f 1 10 3
f 1 3 4
f 1 4 5
f 1 5 6
f 1 6 7
f 1 7 12
f 1 12 8
f 1 8 2
f 2 8 14
f 2 14 9
f 3 10 4
f 4 10 11
f 4 11 17
f 4 17 28
f 4 28 41
f 4 41 51
f 4 51 63
f 4 63 62
f 4 62 61
f 4 61 65
f 4 65 76
f 4 76 77
f 4 77 66
f 4 66 52
f 4 52 42
f 4 42 29
f 4 29 18
f 4 18 12
f 4 12 7
f 4 7 6
f 4 6 5
f 8 12 18
f 8 18 13
f 8 13 14
f 9 14 15
f 10 16 17
f 10 17 11
f 13 18 29
f 13 29 19
f 13 19 20
f 13 20 21
f 13 21 14
f 14 21 22
f 14 22 23
f 14 23 15
f 15 23 24
f 16 25 17
f 17 25 26
f 17 26 27
f 17 27 37
f 17 37 28
f 19 29 42
f 19 42 30
f 19 30 20
f 20 22 21
f 20 30 31
f 20 31 32
f 20 32 22
f 22 32 33
f 22 33 34
f 22 34 23
f 23 34 35
f 23 35 36
f 23 36 24
f 28 37 38
f 28 38 39
f 28 39 40
f 28 40 41
f 30 42 52
f 30 52 43
f 30 43 45
f 30 45 31
f 31 44 32
f 31 45 55
f 31 55 44
f 32 44 46
f 32 46 33
f 33 46 47
f 33 47 34
f 34 47 48
f 34 48 35
f 35 48 49
f 35 49 36
f 40 50 51
f 40 51 41
f 43 52 66
f 43 66 53
f 43 53 54
f 43 54 45
f 44 55 57
f 44 57 46
f 45 54 56
f 45 56 55
f 46 57 58
f 46 58 47
f 47 58 59
f 47 59 48
f 48 59 60
f 48 60 49
f 50 61 62
f 50 62 63
f 50 63 51
f 50 64 75
f 50 75 76
f 50 76 65
f 50 65 61
f 53 66 77
f 53 77 67
f 53 67 54
f 54 67 68
f 54 68 69
f 54 69 56
f 55 56 57
f 56 70 57
f 56 69 70
f 57 70 58
f 58 70 71
f 58 71 59
f 59 71 72
f 59 72 73
f 59 73 60
f 64 74 75
f 67 78 68
f 67 77 76
f 67 76 75
f 67 75 78
f 68 78 69
f 69 78 79
f 69 79 71
f 69 71 70
f 71 79 72
f 72 79 80
f 72 80 73
f 74 81 78
f 74 78 75
f 78 81 80
f 78 80 79

