# https://github.com/mikedh/trimesh
v -0.06789509 0.01672749 0.05108240
v -0.06907850 0.01672749 0.05108240
v -0.05687897 0.01279024 0.05108240
v -0.05687897 0.01396828 0.05106183
v -0.06907850 0.02470336 0.05085007
v -0.06907850 0.00767496 0.05108240
v -0.05687897 0.01082524 0.05108240
v -0.05687897 0.01475766 0.05100496
v -0.06846470 0.02470336 0.05068550
v -0.06907850 0.02470336 0.03888126
v -0.05687897 0.01572809 0.05078230
v -0.05687897 0.01622054 0.05063346
v -0.06907850 0.00570755 0.05107998
v -0.06907850 0.00004670 0.05084765
v -0.05687897 0.00879747 0.05088153
v -0.06842410 0.02470336 0.05061289
v -0.05687897 0.01668162 0.04994493
v -0.06907850 0.02061886 0.03874573
v -0.06833574 0.02470336 0.03979728
v -0.05687897 0.01644022 0.03992555
v -0.05687897 0.01475766 0.03906761
v -0.05687897 0.01279024 0.03891877
v -0.06907850 0.00004670 0.03888489
v -0.06875608 0.00004670 0.05076294
v -0.05687897 0.00760254 0.05053424
v -0.06791420 0.02470336 0.04935563
v -0.05687897 0.01683853 0.04940887
v -0.06907850 0.01865628 0.03872153
v -0.06778284 0.02470336 0.04148412
v -0.05687897 0.01693509 0.04148412
v -0.06907850 0.01668886 0.03872032
v -0.05687897 0.01082524 0.03891877
v -0.06833454 0.00004670 0.03979970
v -0.06907850 0.00295799 0.03877356
v -0.05687897 0.00964720 0.03902405
v -0.05687897 0.00885782 0.03923702
v -0.05687897 0.00792602 0.03971016
v -0.05687897 0.00746736 0.04002841
v -0.06846351 0.00004670 0.05068429
v -0.05687897 0.00715836 0.04934111
v -0.06790584 0.02470336 0.04924914
v -0.05687897 0.01694716 0.04738685
v -0.06777328 0.02470336 0.04334642
v -0.05687897 0.01694957 0.04345291
v -0.06907850 0.00885782 0.03872032
v -0.06907850 0.00492058 0.03873000
v -0.06907850 0.00689041 0.03872153
v -0.06806944 0.00004670 0.04059956
v -0.05687897 0.00711250 0.04098436
v -0.06817213 0.00004670 0.04998971
v -0.05687897 0.00703042 0.04738685
v -0.06790823 0.00004670 0.04935563
v -0.06777568 0.02470336 0.04738685
v -0.05687897 0.01694957 0.04541927
v -0.06777328 0.02470336 0.04541927
v -0.06777687 0.00004670 0.04148412
v -0.05687897 0.00704491 0.04148412
v -0.06783180 0.00004670 0.04832707
v -0.06776612 0.00004670 0.04738685
v -0.05687897 0.00702801 0.04659667
v -0.06776493 0.00004670 0.04242435
v -0.05687897 0.00703042 0.04266152
v -0.06776374 0.00004670 0.04635950
v -0.05687897 0.00702559 0.04541927
v -0.06776254 0.00004670 0.04345291
v -0.05687897 0.00702559 0.04345291
v -0.06776254 0.00004670 0.04541927
f 1 2 6
f 1 6 7
f 1 7 3
f 1 3 4
f 1 4 5
f 1 5 2
f 2 5 10
f 2 10 18
f 2 18 28
f 2 28 31
f 2 31 45
f 2 45 47
f 2 47 46
f 2 46 34
f 2 34 23
f 2 23 14
f 2 14 13
f 2 13 6
f 3 7 15
f 3 15 25
f 3 25 40
f 3 40 51
f 3 51 60
f 3 60 64
f 3 64 66
f 3 66 62
f 3 62 57
f 3 57 49
f 3 49 38
f 3 38 37
f 3 37 36
f 3 36 35
f 3 35 32
f 3 32 22
f 3 22 21
f 3 21 20
f 3 20 30
f 3 30 44
f 3 44 54
f 3 54 42
f 3 42 27
f 3 27 17
f 3 17 12
f 3 12 11
f 3 11 8
f 3 8 4
f 4 8 5
f 5 9 16
f 5 16 26
f 5 26 41
f 5 41 53
f 5 53 55
f 5 55 43
f 5 43 29
f 5 29 19
f 5 19 10
f 5 8 11
f 5 11 12
f 5 12 9
f 6 13 7
f 7 13 14
f 7 14 15
f 9 12 17
f 9 17 16
f 10 19 20
f 10 20 21
f 10 21 22
f 10 22 18
f 14 23 33
f 14 33 48
f 14 48 56
f 14 56 61
f 14 61 65
f 14 65 67
f 14 67 63
f 14 63 59
f 14 59 58
f 14 58 52
f 14 52 50
f 14 50 39
f 14 39 24
f 14 24 25
f 14 25 15
f 16 17 27
f 16 27 26
f 18 22 28
f 19 29 30
f 19 30 20
f 22 31 28
f 22 32 45
f 22 45 31
f 23 34 32
f 23 32 35
f 23 35 36
f 23 36 37
f 23 37 38
f 23 38 33
f 24 39 25
f 25 39 40
f 26 27 41
f 27 42 41
f 29 43 44
f 29 44 30
f 32 34 46
f 32 46 47
f 32 47 45
f 33 38 49
f 33 49 48
f 39 50 40
f 40 50 52
f 40 52 51
f 41 42 53
f 42 54 53
f 43 55 54
f 43 54 44
f 48 49 56
f 49 57 56
f 51 52 58
f 51 58 59
f 51 59 60
f 53 54 55
f 56 57 62
f 56 62 61
f 59 63 64
f 59 64 60
f 61 62 66
f 61 66 65
f 63 67 64
f 64 67 65
f 64 65 66

