# https://github.com/mikedh/trimesh
v 0.08327953 -0.03247097 0.05174566
v 0.08327953 -0.02541852 0.05174566
v 0.08330332 -0.03443930 0.05174566
v 0.08411854 -0.03443930 0.06576140
v 0.08411854 -0.03050491 0.06576140
v 0.08437231 -0.02889622 0.06576140
v 0.08435803 -0.02541852 0.05731079
v 0.09948082 -0.02541852 0.05174566
v 0.08385208 -0.03615988 0.05174566
v 0.08437231 -0.03595894 0.06576140
v 0.08428666 -0.03544745 0.06576140
v 0.08451505 -0.02541852 0.05784179
v 0.08519228 -0.02829910 0.06576140
v 0.08465303 -0.02541852 0.05820402
v 0.09948082 -0.02541852 0.05526092
v 0.09948082 -0.03247097 0.05174566
v 0.08414075 -0.03634827 0.05174566
v 0.08560941 -0.03678783 0.06576140
v 0.08478784 -0.03623866 0.06576140
v 0.08560941 -0.02799540 0.06576140
v 0.08757609 -0.02771796 0.06576140
v 0.08554597 -0.02541852 0.05854703
v 0.09948082 -0.03050491 0.06576140
v 0.09937297 -0.02541852 0.05607867
v 0.09948082 -0.03247097 0.06576140
v 0.09943483 -0.03313431 0.06576140
v 0.09934125 -0.03443930 0.05174566
v 0.08560941 -0.03688602 0.05174566
v 0.08627078 -0.03688716 0.06576140
v 0.08757609 -0.02541852 0.05873226
v 0.09544755 -0.02771796 0.06576140
v 0.09912238 -0.02928555 0.06576140
v 0.09912873 -0.02541852 0.05722847
v 0.09893999 -0.02866673 0.06576140
v 0.09934125 -0.03443930 0.06576140
v 0.09922547 -0.03475784 0.05174566
v 0.08602971 -0.03694882 0.05174566
v 0.08757609 -0.03708240 0.06576140
v 0.09659742 -0.02541852 0.05873226
v 0.09741581 -0.02776591 0.06576140
v 0.09741581 -0.02541852 0.05870894
v 0.09890351 -0.02541852 0.05782395
v 0.09858788 -0.02541852 0.05844825
v 0.09915886 -0.03493938 0.06576140
v 0.09879883 -0.03592355 0.06576140
v 0.09879883 -0.03592355 0.05174566
v 0.08757609 -0.03708240 0.05174566
v 0.09544755 -0.03708240 0.06576140
v 0.09806291 -0.02541852 0.05865817
v 0.09741581 -0.03675244 0.06576140
v 0.09741581 -0.03675244 0.05174566
v 0.09544755 -0.03708240 0.05174566
f 1 2 8
f 1 8 16
f 1 16 27
f 1 27 36
f 1 36 46
f 1 46 51
f 1 51 52
f 1 52 47
f 1 47 37
f 1 37 28
f 1 28 17
f 1 17 9
f 1 9 3
f 1 3 4
f 1 4 5
f 1 5 2
f 2 5 6
f 2 6 7
f 2 7 12
f 2 12 14
f 2 14 22
f 2 22 30
f 2 30 39
f 2 39 41
f 2 41 49
f 2 49 43
f 2 43 42
f 2 42 33
f 2 33 24
f 2 24 15
f 2 15 8
f 3 9 10
f 3 10 11
f 3 11 4
f 4 11 10
f 4 10 19
f 4 19 18
f 4 18 29
f 4 29 38
f 4 38 48
f 4 48 50
f 4 50 45
f 4 45 44
f 4 44 35
f 4 35 26
f 4 26 25
f 4 25 23
f 4 23 32
f 4 32 34
f 4 34 40
f 4 40 31
f 4 31 21
f 4 21 20
f 4 20 13
f 4 13 6
f 4 6 5
f 6 12 7
f 6 13 14
f 6 14 12
f 8 15 23
f 8 23 25
f 8 25 16
f 9 17 18
f 9 18 19
f 9 19 10
f 13 20 14
f 14 20 21
f 14 21 22
f 15 24 23
f 16 25 26
f 16 26 27
f 17 28 18
f 18 28 29
f 21 30 22
f 21 31 39
f 21 39 30
f 23 24 32
f 24 33 34
f 24 34 32
f 26 35 27
f 27 35 36
f 28 37 38
f 28 38 29
f 31 40 41
f 31 41 39
f 33 42 34
f 34 42 43
f 34 43 40
f 35 44 36
f 36 44 45
f 36 45 46
f 37 47 38
f 38 47 52
f 38 52 48
f 40 43 49
f 40 49 41
f 45 50 51
f 45 51 46
f 48 52 51
f 48 51 50

