# https://github.com/mikedh/trimesh
v -2.04505720 0.69331937 2.76158388
v -2.03507823 0.72288448 2.76158388
v -1.96654028 0.69331937 2.76158388
v -2.03991831 0.69331937 2.77941142
v -1.99671602 0.82095404 2.76158388
v -1.97592162 0.69331937 2.97828741
v -1.97520458 0.75154817 2.91420734
v -1.96863160 0.79030730 2.88974402
v -1.97466675 0.80481943 2.85260331
v -1.43466831 1.51185786 2.76158388
v -1.43466831 0.69331937 3.66217120
v -1.98285302 0.85547668 2.76158388
v -1.96379152 0.69331937 3.01037695
v -1.90206536 0.78787358 3.08287557
v -1.90881775 0.80301666 3.04930039
v -1.96964746 0.72784202 2.95838000
v -1.91981238 0.82546090 2.98918201
v -1.90833972 0.86701433 2.97095830
v -1.97394970 0.86710442 2.77436028
v -1.43466831 1.61416390 2.76158388
v -1.43466831 0.69331937 3.77319709
v -1.97592162 0.87206206 2.76158388
v -1.94897246 0.69331937 3.04821093
v -1.94741878 0.69331937 3.05217261
v -1.90833972 0.75416217 3.09377017
v -1.77927068 0.69331937 3.35969747
v -1.77293671 0.72694064 3.34860479
v -1.74795947 0.75091721 3.37306811
v -1.70672910 0.79075797 3.41268484
v -1.71754452 0.81545564 3.37514799
v -1.84553790 0.80743343 3.16379274
v -1.86878244 0.81951184 3.11476704
v -1.84685258 0.88531218 3.10040597
v -1.83824788 0.92226855 3.08574778
v -1.84607573 0.93741173 3.04930039
v -1.89973503 0.85115010 3.01463574
v -1.90559096 0.92623465 2.89707310
v -1.91634659 0.88747552 2.91866423
v -1.83561873 0.98338183 3.01612137
v -1.44685811 1.60316711 2.76158388
v -1.43634141 1.56792342 2.87112414
v -1.43466831 1.56864446 2.87290690
v -1.43466831 0.73721633 3.75170500
v -1.44739594 0.73036588 3.74298935
v -1.45612005 0.69331937 3.75220023
v -1.92519029 0.97770315 2.76158388
v -1.91114808 0.94921965 2.84735409
v -1.90242398 0.98500431 2.82199942
v -1.90833972 0.99591090 2.78703763
v -1.91778086 0.69331937 3.11565841
v -1.84685258 0.69331937 3.24104536
v -1.75686279 0.69331937 3.39634294
v -1.71503478 0.75416217 3.42476795
v -1.69149182 0.75416217 3.45755079
v -1.67195209 0.81897103 3.44249643
v -1.65050045 0.88531218 3.42546124
v -1.69651111 0.83447464 3.39574869
v -1.70953746 0.86124546 3.35197221
v -1.78148161 0.93804258 3.16597166
v -1.80400890 0.95201395 3.11585649
v -1.77980831 1.01646228 3.09733568
v -1.77060618 1.04936245 3.08228131
v -1.82856772 0.97013161 3.04930039
v -1.77765719 1.06126057 3.04930039
v -1.78805439 1.08505691 2.98422990
v -1.83890532 1.05422989 2.89340854
v -1.84356618 0.99699252 2.97234489
v -1.46293204 1.58838460 2.76158388
v -1.45510419 1.58522974 2.78703763
v -1.46125894 1.52537846 2.91816900
v -1.45020441 1.51510282 2.96778897
v -1.43466831 1.54250460 2.93629367
v -1.49358591 1.56017159 2.76158388
v -1.43466831 0.77507408 3.73080717
v -1.51085490 0.72667025 3.67504663
v -1.48516052 0.69331937 3.72050685
v -1.43568407 0.77408255 3.73031199
v -1.52029605 0.80878548 3.61968227
v -1.63639834 0.84727419 3.47230802
v -1.58393422 0.80635177 3.55223478
v -1.64739308 0.80355752 3.48429209
v -1.56397637 0.76606029 3.59591221
v -1.91198453 1.00483454 2.76158388
v -1.84595632 1.06684906 2.85260331
v -1.84183329 1.12399623 2.77079476
v -1.72513336 0.69331937 3.44507152
v -1.70087316 0.71188770 3.47062431
v -1.64082010 0.92055597 3.41199156
v -1.62600114 0.88531218 3.45824408
v -1.68336515 0.88396018 3.37514799
v -1.69788539 0.90496213 3.33275809
v -1.71127036 0.92929933 3.28898161
v -1.65061986 0.94579441 3.37306811
v -1.64195556 0.98779850 3.34840670
v -1.69973789 1.04052890 3.20519222
v -1.71348129 1.06252248 3.16151478
v -1.73523174 1.07784585 3.11050824
v -1.71330207 1.12724119 3.09505772
v -1.69872203 1.17086777 3.06851450
v -1.70852160 1.18556018 3.02483707
v -1.76540768 1.10885315 3.00631623
v -1.77472922 1.12120204 2.96263879
v -1.50368439 1.50356518 2.87508583
v -1.43466831 1.52609961 2.97571232
v -1.49406394 1.49401068 2.91816900
v -1.44016573 1.50554823 3.01146641
v -1.51115362 1.54340603 2.76158388
v -1.51306573 1.51293948 2.83130933
v -1.43466831 0.77759794 3.72932154
v -1.57431376 0.72234363 3.60710394
v -1.54724520 0.69331937 3.65187087
v -1.45384942 0.81978222 3.68405944
v -1.49095676 0.82627214 3.64067913
v -1.58082704 0.93011057 3.48290549
v -1.59319615 0.88531218 3.49617711
v -1.56780059 0.97382723 3.46834635
v -1.65868673 0.75416217 3.49696944
v -1.84960133 1.11570365 2.76158388
v -1.83950275 1.13273959 2.76158388
v -1.84344658 1.12661024 2.76158388
v -1.72142855 0.69331937 3.45061786
v -1.70463758 0.69331937 3.47498215
v -1.67470085 0.69331937 3.50885445
v -1.58076723 0.69331937 3.61453208
v -1.62833158 0.96427264 3.39218319
v -1.60454941 0.94714651 3.44021847
v -1.58459155 1.00014739 3.42466890
v -1.60628230 1.01583133 3.37633650
v -1.62803276 1.03151517 3.32661750
v -1.64207497 1.05323836 3.28284101
v -1.68653213 1.08343443 3.18221452
v -1.69925986 1.10623915 3.13873515
v -1.62743523 1.09695503 3.26025948
v -1.68557608 1.14851362 3.11615362
v -1.65223316 1.19781888 3.11496512
v -1.63866907 1.24523117 3.08119186
v -1.67404361 1.21539568 3.05296494
v -1.64936499 1.25848139 3.03751440
v -1.69274649 1.22981771 2.98373470
v -1.71628965 1.19700764 2.98373470
v -1.77610370 1.18871495 2.83517196
v -1.78488741 1.20178488 2.78703763
v -1.80215640 1.18961638 2.76158388
v -1.51521695 1.45011363 2.96778897
v -1.56027155 1.49346982 2.76158388
v -1.43466831 1.51257891 3.00691049
v -1.50565630 1.44010846 3.01146641
v -1.47793031 1.47787597 2.98957817
v -1.46358928 1.46345404 3.04930039
v -1.43466831 1.50050050 3.03206711
v -1.43466831 1.50825233 3.01631946
v -1.52746656 1.52736152 2.76158388
v -1.52220816 1.52213350 2.78703763
v -1.54342088 1.51104662 2.76158388
v -1.43466831 0.81978222 3.70426398
v -1.44398995 0.85466544 3.67356101
v -1.50822565 0.85250220 3.60660874
v -1.51659123 0.93128238 3.54985778
v -1.52101309 1.01646228 3.48845184
v -1.50948052 1.05098493 3.47666587
v -1.51151214 1.11912879 3.41446760
v -1.56965299 1.04386406 3.40436533
v -1.52155082 1.07658394 3.43883189
v -1.58429274 1.06486610 3.36058884
v -1.64093970 1.18240532 3.15002593
v -1.65121749 1.14292513 3.17538064
v -1.57801858 1.31652990 3.08822382
v -1.62396952 1.27966373 3.05534194
v -1.62737552 1.23053876 3.11496512
v -1.58034901 1.25415481 3.15725598
v -1.63215580 1.30219806 2.99769959
v -1.58787804 1.32842812 3.04930039
v -1.70971667 1.25217176 2.89826160
v -1.78930926 1.20890576 2.76158388
v -1.56797990 1.43623245 2.87112414
v -1.57897463 1.38278100 2.96372826
v -1.56971270 1.37277574 3.00750473
v -1.55501315 1.48779114 2.78703763
v -1.57580765 1.47670426 2.76158388
v -1.52680922 1.39720304 3.04930039
v -1.49633457 1.43001301 3.04930039
v -1.45133977 1.45128544 3.09396825
v -1.43466831 1.48652923 3.05900649
v -1.43466831 1.49175715 3.04930039
v -1.43466831 0.86007374 3.67980063
v -1.43466831 0.88441084 3.66415203
v -1.45181780 0.93182314 3.61591868
v -1.50254902 0.97499905 3.53519959
v -1.43723776 0.97553981 3.60116143
v -1.48868612 1.01646228 3.52123468
v -1.45588103 1.01646228 3.55441370
v -1.44416916 1.05125531 3.54252867
v -1.46890739 1.07297841 3.50142633
v -1.44984588 1.12390614 3.48231126
v -1.49358591 1.09470160 3.45814505
v -1.47213417 1.14337580 3.43922806
v -1.45068243 1.19024734 3.42031107
v -1.49442246 1.16275537 3.38950906
v -1.58261964 1.19159934 3.22628813
v -1.56935418 1.10858277 3.33790827
v -1.51527666 1.38458377 3.09169029
v -1.55961431 1.36123810 3.04930039
v -1.56547015 1.23531601 3.20103247
v -1.50930131 1.18159408 3.34583161
v -1.47123782 1.20782414 3.37079015
v -1.44805318 1.25199147 3.35207125
v -1.50368439 1.30616417 3.20687593
v -1.51910098 1.32365077 3.16319849
v -1.53905883 1.34194872 3.11179578
v -1.60556526 1.34285006 2.98066440
v -1.63149856 1.36736744 2.86557777
v -1.64022266 1.37800366 2.82190033
v -1.70780456 1.32184801 2.76158388
v -1.70959726 1.31734114 2.76613980
v -1.71049352 1.31842286 2.76158388
v -1.71473616 1.31274418 2.76158388
v -1.71814215 1.26334883 2.85260331
v -1.76666255 1.24153554 2.76158388
v -1.58530860 1.45498107 2.78703763
v -1.60317503 1.44677857 2.76158388
v -1.62325248 1.42460481 2.76158388
v -1.47536086 1.40964192 3.11466799
v -1.45564202 1.39098350 3.16547645
v -1.43466831 1.43460997 3.13804187
v -1.43466831 1.46084003 3.10228776
v -1.43466831 0.89585830 3.65672389
v -1.43466831 0.94128754 3.62691231
v -1.43466831 0.97337657 3.60522215
v -1.43466831 1.05603256 3.54807502
v -1.43466831 1.13156777 3.49102693
v -1.43466831 1.16221451 3.46626647
v -1.43466831 1.16627071 3.46270097
v -1.43466831 1.22855571 3.39881898
v -1.43466831 1.23243162 3.39436211
v -1.43466831 1.19971174 3.42972004
v -1.47966320 1.34879912 3.18617619
v -1.43466831 1.26046444 3.35989555
v -1.45665788 1.32653516 3.24609649
v -1.64087990 1.40459429 2.76158388
v -1.64691505 1.38602596 2.78703763
v -1.66442306 1.37629108 2.76158388
v -1.73851833 1.28047497 2.76158388
v -1.43466831 1.35024131 3.24609649
v -1.43466831 1.36844906 3.22282167
v -1.43466831 1.28137630 3.33345138
v -1.43466831 1.31878334 3.28601035
v -1.65169552 1.39188483 2.76158388
f 1 2 5
f 1 5 12
f 1 12 22
f 1 22 46
f 1 46 83
f 1 83 118
f 1 118 120
f 1 120 119
f 1 119 143
f 1 143 174
f 1 174 218
f 1 218 242
f 1 242 216
f 1 216 215
f 1 215 213
f 1 213 241
f 1 241 247
f 1 247 239
f 1 239 221
f 1 221 220
f 1 220 179
f 1 179 145
f 1 145 154
f 1 154 152
f 1 152 107
f 1 107 73
f 1 73 68
f 1 68 40
f 1 40 20
f 1 20 10
f 1 10 3
f 1 3 11
f 1 11 21
f 1 21 45
f 1 45 76
f 1 76 111
f 1 111 124
f 1 124 123
f 1 123 122
f 1 122 121
f 1 121 86
f 1 86 52
f 1 52 26
f 1 26 51
f 1 51 50
f 1 50 24
f 1 24 23
f 1 23 13
f 1 13 6
f 1 6 4
f 1 4 2
f 2 4 6
f 2 6 7
f 2 7 8
f 2 8 9
f 2 9 5
f 3 10 11
f 5 9 12
f 6 13 14
f 6 14 15
f 6 15 16
f 6 16 7
f 7 16 8
f 8 16 15
f 8 15 17
f 8 17 18
f 8 18 19
f 8 19 9
f 9 19 12
f 10 20 42
f 10 42 72
f 10 72 104
f 10 104 146
f 10 146 151
f 10 151 150
f 10 150 184
f 10 184 183
f 10 183 225
f 10 225 224
f 10 224 244
f 10 244 243
f 10 243 246
f 10 246 245
f 10 245 237
f 10 237 234
f 10 234 233
f 10 233 235
f 10 235 232
f 10 232 231
f 10 231 230
f 10 230 229
f 10 229 228
f 10 228 227
f 10 227 226
f 10 226 186
f 10 186 185
f 10 185 155
f 10 155 109
f 10 109 74
f 10 74 43
f 10 43 21
f 10 21 11
f 12 19 22
f 13 23 14
f 14 23 24
f 14 24 25
f 14 25 26
f 14 26 27
f 14 27 28
f 14 28 29
f 14 29 30
f 14 30 31
f 14 31 32
f 14 32 33
f 14 33 34
f 14 34 15
f 15 34 35
f 15 35 36
f 15 36 18
f 15 18 17
f 18 37 38
f 18 38 19
f 18 36 35
f 18 35 39
f 18 39 37
f 19 38 22
f 20 40 41
f 20 41 42
f 21 43 44
f 21 44 45
f 22 38 37
f 22 37 47
f 22 47 48
f 22 48 49
f 22 49 46
f 24 50 25
f 25 50 51
f 25 51 26
f 26 52 27
f 27 52 53
f 27 53 28
f 28 53 29
f 29 53 54
f 29 54 55
f 29 55 56
f 29 56 57
f 29 57 30
f 30 57 34
f 30 34 33
f 30 33 31
f 31 33 32
f 34 57 58
f 34 58 59
f 34 59 60
f 34 60 61
f 34 61 62
f 34 62 63
f 34 63 35
f 35 63 39
f 37 39 48
f 37 48 47
f 39 63 62
f 39 62 64
f 39 64 65
f 39 65 66
f 39 66 67
f 39 67 48
f 40 68 69
f 40 69 41
f 41 70 71
f 41 71 72
f 41 72 42
f 41 69 73
f 41 73 70
f 43 74 44
f 44 75 76
f 44 76 45
f 44 74 77
f 44 77 78
f 44 78 79
f 44 79 80
f 44 80 81
f 44 81 82
f 44 82 75
f 46 49 83
f 48 84 49
f 48 67 66
f 48 66 84
f 49 84 85
f 49 85 83
f 52 86 53
f 53 86 87
f 53 87 54
f 54 87 81
f 54 81 79
f 54 79 55
f 55 79 56
f 56 88 57
f 56 79 89
f 56 89 88
f 57 88 90
f 57 90 58
f 58 90 59
f 59 90 91
f 59 91 92
f 59 92 61
f 59 61 60
f 61 92 93
f 61 93 62
f 62 93 94
f 62 94 95
f 62 95 96
f 62 96 97
f 62 97 98
f 62 98 99
f 62 99 64
f 64 99 100
f 64 100 101
f 64 101 102
f 64 102 65
f 65 102 66
f 66 102 85
f 66 85 84
f 68 73 69
f 70 73 103
f 70 103 71
f 71 104 72
f 71 103 105
f 71 105 106
f 71 106 104
f 73 107 108
f 73 108 103
f 74 109 77
f 75 110 76
f 75 82 81
f 75 81 110
f 76 110 111
f 77 109 112
f 77 112 113
f 77 113 78
f 78 113 114
f 78 114 115
f 78 115 79
f 79 81 80
f 79 115 114
f 79 114 116
f 79 116 89
f 81 87 117
f 81 117 110
f 83 85 118
f 85 119 120
f 85 120 118
f 85 102 119
f 86 121 87
f 87 122 123
f 87 123 124
f 87 124 117
f 87 121 122
f 88 125 93
f 88 93 92
f 88 92 91
f 88 91 90
f 88 89 126
f 88 126 127
f 88 127 125
f 89 116 126
f 93 125 94
f 94 125 128
f 94 128 129
f 94 129 95
f 95 129 130
f 95 130 96
f 96 130 131
f 96 131 98
f 96 98 97
f 98 131 132
f 98 132 130
f 98 130 133
f 98 133 134
f 98 134 135
f 98 135 99
f 99 135 136
f 99 136 137
f 99 137 100
f 100 137 138
f 100 138 139
f 100 139 140
f 100 140 102
f 100 102 101
f 102 140 141
f 102 141 142
f 102 142 143
f 102 143 119
f 103 144 105
f 103 108 145
f 103 145 144
f 104 106 146
f 105 144 147
f 105 147 148
f 105 148 106
f 106 148 147
f 106 147 149
f 106 149 150
f 106 150 151
f 106 151 146
f 107 152 153
f 107 153 108
f 108 153 154
f 108 154 145
f 109 155 112
f 110 124 111
f 110 117 124
f 112 155 156
f 112 156 114
f 112 114 157
f 112 157 113
f 113 157 114
f 114 156 158
f 114 158 116
f 116 158 159
f 116 159 160
f 116 160 127
f 116 127 126
f 125 127 128
f 127 161 162
f 127 162 128
f 127 160 163
f 127 163 161
f 128 162 164
f 128 164 130
f 128 130 129
f 130 132 131
f 130 164 133
f 133 164 165
f 133 165 166
f 133 166 134
f 134 166 165
f 134 165 135
f 135 165 136
f 136 167 168
f 136 168 138
f 136 138 137
f 136 165 169
f 136 169 170
f 136 170 167
f 138 171 139
f 138 168 172
f 138 172 171
f 139 173 140
f 139 171 173
f 140 173 174
f 140 174 142
f 140 142 141
f 142 174 143
f 144 175 176
f 144 176 177
f 144 177 147
f 144 145 178
f 144 178 179
f 144 179 175
f 145 179 178
f 147 177 180
f 147 180 181
f 147 181 149
f 149 181 182
f 149 182 183
f 149 183 184
f 149 184 150
f 152 154 153
f 155 185 156
f 156 185 158
f 158 185 186
f 158 186 187
f 158 187 188
f 158 188 159
f 159 188 187
f 159 187 189
f 159 189 190
f 159 190 160
f 160 190 191
f 160 191 192
f 160 192 193
f 160 193 194
f 160 194 195
f 160 195 161
f 160 161 163
f 161 164 162
f 161 195 196
f 161 196 197
f 161 197 198
f 161 198 199
f 161 199 165
f 161 165 200
f 161 200 164
f 164 200 165
f 165 199 169
f 167 201 202
f 167 202 172
f 167 172 168
f 167 170 203
f 167 203 204
f 167 204 198
f 167 198 205
f 167 205 206
f 167 206 207
f 167 207 208
f 167 208 209
f 167 209 201
f 169 199 170
f 170 199 203
f 171 172 177
f 171 177 210
f 171 210 211
f 171 211 212
f 171 212 213
f 171 213 214
f 171 214 173
f 172 202 177
f 173 214 215
f 173 215 216
f 173 216 217
f 173 217 218
f 173 218 174
f 175 179 219
f 175 219 176
f 176 219 220
f 176 220 221
f 176 221 212
f 176 212 177
f 177 202 180
f 177 212 211
f 177 211 210
f 179 220 219
f 180 202 201
f 180 201 181
f 181 201 182
f 182 201 222
f 182 222 223
f 182 223 224
f 182 224 225
f 182 225 183
f 186 226 187
f 187 226 227
f 187 227 189
f 189 227 228
f 189 228 192
f 189 192 191
f 189 191 190
f 192 228 229
f 192 229 194
f 192 194 193
f 194 229 230
f 194 230 231
f 194 231 195
f 195 231 232
f 195 232 196
f 196 232 197
f 197 233 234
f 197 234 205
f 197 205 198
f 197 232 235
f 197 235 233
f 198 204 199
f 199 204 203
f 201 209 208
f 201 208 207
f 201 207 236
f 201 236 222
f 205 234 206
f 206 234 237
f 206 237 207
f 207 237 238
f 207 238 236
f 212 221 239
f 212 239 240
f 212 240 241
f 212 241 213
f 213 215 214
f 216 242 217
f 217 242 218
f 222 236 238
f 222 238 223
f 223 238 243
f 223 243 244
f 223 244 224
f 237 245 238
f 238 245 246
f 238 246 243
f 239 247 240
f 240 247 241

