# https://github.com/mikedh/trimesh
v -0.81253784 0.00035378 4.29523617
v -0.82959352 0.00035378 4.22966117
v -0.81366167 0.00035378 4.32763418
v -0.51888919 -0.61615825 4.35980313
v -0.51915361 -0.61615825 4.29523617
v -0.85068175 0.00035378 4.19570508
v -0.52589657 -0.61615825 4.27598979
v -0.55478544 -0.61615825 4.22384139
v -0.81478550 0.00035378 4.35980313
v -0.62353705 -0.61615825 4.35980313
v -0.86813406 0.00035378 4.18626520
v -0.55610764 -0.61615825 4.22223757
v -0.55901636 -0.61615825 4.21939647
v -0.58638476 -0.61615825 4.19671322
v -0.87864510 0.00035378 4.35980313
v -0.65209544 -0.58797587 4.35980313
v -1.09726196 -0.61615825 4.05346546
v -0.88525589 0.00035378 4.17705447
v -0.91513634 0.00035378 4.16106165
v -1.19417533 -0.61615825 3.89170453
v -1.19417533 0.00017274 4.01181089
v -0.94442189 0.00035378 4.14538963
v -0.87864510 -0.03380302 4.35980313
v -1.19417533 0.00035378 4.09356203
v -0.65308702 -0.58688961 4.35980313
v -0.67999269 -0.55460359 4.35980313
v -0.71231916 -0.51423097 4.35980313
v -0.73558896 -0.48091907 4.35980313
v -0.76718823 -0.42714926 4.35980313
v -0.76771707 -0.42624407 4.35980313
v -1.15279213 -0.61615825 4.01483531
v -1.19417533 -0.61615825 3.98532423
v -1.19417533 0.00035378 4.05131169
v -1.17123606 0.00035378 4.02510000
v -1.10413708 0.00035378 4.06006423
v -0.87368708 -0.09837506 4.35980313
v -1.19417533 -0.03144947 4.09356203
v -1.19417533 -0.09837506 4.09117912
v -1.19417533 -0.14973094 4.08801722
v -0.78602880 -0.39353562 4.35980313
v -1.18280488 -0.59485553 4.00200439
v -1.19417533 -0.60565777 3.98954010
v -0.87355487 -0.09934062 4.35980313
v -1.19417533 -0.16324882 4.08691743
v -1.19417533 -0.22202747 4.08164759
v -0.78649158 -0.39257003 4.35980313
v -1.19159709 -0.55737961 4.00855733
v -1.19417533 -0.55737961 4.00663271
v -0.86370488 -0.16397299 4.35980313
v -1.19417533 -0.28702194 4.07426982
v -0.80156401 -0.36034438 4.35980313
v -1.19417533 -0.54537038 4.01048195
v -0.85497872 -0.20567325 4.35980313
v -1.19417533 -0.29510852 4.07317003
v -1.19417533 -0.36064612 4.06263040
v -1.18108605 -0.39546673 4.06625055
v -1.19417533 -0.47409980 4.03279857
v -1.19417533 -0.49178164 4.02743708
v -1.19417533 -0.40801906 4.05254897
f 1 2 6
f 1 6 11
f 1 11 18
f 1 18 19
f 1 19 22
f 1 22 35
f 1 35 34
f 1 34 33
f 1 33 24
f 1 24 15
f 1 15 9
f 1 9 3
f 1 3 4
f 1 4 5
f 1 5 2
f 2 5 7
f 2 7 8
f 2 8 6
f 3 9 4
f 4 10 17
f 4 17 31
f 4 31 32
f 4 32 20
f 4 20 14
f 4 14 13
f 4 13 12
f 4 12 8
f 4 8 7
f 4 7 5
f 4 9 15
f 4 15 23
f 4 23 36
f 4 36 43
f 4 43 49
f 4 49 53
f 4 53 51
f 4 51 46
f 4 46 40
f 4 40 30
f 4 30 29
f 4 29 28
f 4 28 27
f 4 27 26
f 4 26 25
f 4 25 16
f 4 16 10
f 6 8 12
f 6 12 13
f 6 13 14
f 6 14 11
f 10 16 17
f 11 14 18
f 14 19 18
f 14 20 21
f 14 21 22
f 14 22 19
f 15 24 37
f 15 37 23
f 16 25 17
f 17 25 26
f 17 26 27
f 17 27 28
f 17 28 29
f 17 29 30
f 17 30 31
f 20 32 42
f 20 42 48
f 20 48 52
f 20 52 58
f 20 58 57
f 20 57 59
f 20 59 55
f 20 55 54
f 20 54 50
f 20 50 45
f 20 45 44
f 20 44 39
f 20 39 38
f 20 38 37
f 20 37 24
f 20 24 33
f 20 33 21
f 21 33 34
f 21 34 35
f 21 35 22
f 23 37 38
f 23 38 39
f 23 39 36
f 30 40 31
f 31 40 41
f 31 41 32
f 32 41 42
f 36 39 44
f 36 44 45
f 36 45 43
f 40 46 41
f 41 47 48
f 41 48 42
f 41 46 47
f 43 45 50
f 43 50 49
f 46 51 47
f 47 52 48
f 47 51 52
f 49 50 54
f 49 54 55
f 49 55 53
f 51 53 56
f 51 56 57
f 51 57 58
f 51 58 52
f 53 55 56
f 55 59 56
f 56 59 57

