# https://github.com/mikedh/trimesh
v 2.04783860 0.68501457 2.76148480
v 2.04716963 0.68714537 2.76148480
v 2.04106608 0.68633711 2.78374856
v 2.04165121 0.68501457 2.78292833
v 1.97007897 0.68501457 2.76148480
v 2.04056421 0.70735142 2.76148480
v 2.04073150 0.68501457 2.78609218
v 2.03504598 0.72285502 2.76148480
v 1.97693513 0.68758621 2.98166174
v 1.97626617 0.68501457 2.98658320
v 1.51112958 1.43557893 2.76148480
v 1.19365275 0.68501457 3.86541598
v 2.03303928 0.72799836 2.76148480
v 1.97459405 0.80485500 2.85264913
v 1.96865759 0.79030662 2.88967725
v 1.97517937 0.75151094 2.91428454
v 1.96966094 0.72785145 2.95846055
v 1.90879097 0.80301808 3.04939046
v 1.90210191 0.78788189 3.08290329
v 1.95327276 0.68501457 3.04564077
v 1.19365275 1.43557893 3.28632378
v 1.61322055 1.43557893 2.76148480
v 1.19365275 0.68501457 3.95857227
v 1.99675139 0.82094641 2.76148480
v 1.97392508 0.86708977 2.77437435
v 1.90837294 0.86701628 2.97099856
v 1.91982782 0.82550194 2.98916112
v 1.89976082 0.85114532 3.01470585
v 1.84608160 0.93740694 3.04939046
v 1.83822189 0.92227079 3.08583272
v 1.84792101 0.68501457 3.24472569
v 1.90828930 0.75415611 3.09380082
v 1.84683401 0.88531198 3.10047994
v 1.71748531 0.81543566 3.37514448
v 1.77609783 0.79905036 3.28831580
v 1.70669939 0.79074751 3.41264135
v 1.76322138 0.77068833 3.33214026
v 1.74792039 0.75092312 3.37315246
v 1.77292049 0.72696971 3.34866232
v 1.78019488 0.68861492 3.36131751
v 1.95160064 0.68501457 3.04927328
v 1.19365275 1.43557893 3.43455358
v 1.62317040 1.42463080 2.76148480
v 1.60285256 1.43557893 2.78702957
v 1.20234851 0.68501457 3.95247908
v 1.20293373 0.68861492 3.95060419
v 1.19365275 0.68957010 3.95669748
v 1.97593178 0.87201271 2.76148480
v 1.90552999 0.92623846 2.89705942
v 1.83562987 0.98340332 3.01611198
v 1.82860642 0.97017753 3.04939046
v 1.77057941 1.04938541 3.08231738
v 1.77977685 1.01646785 3.09731613
v 1.80402434 0.95202880 3.11583020
v 1.78144897 0.93806818 3.16598228
v 1.70945851 0.86121165 3.35217765
v 1.69641495 0.83446614 3.39576776
v 1.91639974 0.68501457 3.12356395
v 1.78078020 0.68501457 3.36248929
v 1.91848989 0.68868840 3.11735353
v 1.91999492 0.68501457 3.11688481
v 1.67191652 0.81896253 3.44252166
v 1.69139820 0.75415611 3.45752041
v 1.71497693 0.75415611 3.42471065
v 1.76012788 0.68861492 3.39412726
v 1.77894059 0.68501457 3.36553591
v 1.19365275 1.43506455 3.43525665
v 1.19925482 1.43557893 3.42916341
v 1.65159878 1.39186021 2.76148480
v 1.61807010 1.41882617 2.78702957
v 1.64014371 1.37797317 2.82183140
v 1.64683277 1.38605557 2.78702957
v 1.56740083 1.43557893 2.87397543
v 1.57902300 1.38274915 2.96373356
v 1.29206469 0.68501457 3.88756258
v 1.38119575 0.72910055 3.80647562
v 1.26271671 0.75415611 3.88088348
v 1.19365275 0.72028338 3.94404226
v 1.91196812 1.00478510 2.76148480
v 1.90837294 0.99589439 2.78702957
v 1.90243629 0.98501984 2.82206572
v 1.91113206 0.94923666 2.84737607
v 1.78805439 1.08494815 2.98423964
v 1.77768650 1.06121513 3.04939046
v 1.84348958 0.99692305 2.97240470
v 1.83889086 1.05423487 2.89342691
v 1.69858894 1.17091584 3.06849041
v 1.71322117 1.12719722 3.09508977
v 1.73521122 1.07774745 3.11055722
v 1.71338846 1.06246424 3.16152952
v 1.69967594 1.04049470 3.20523681
v 1.64189967 0.98781199 3.34854514
v 1.65051179 0.94578327 3.37303528
v 1.71121447 0.92932454 3.28913605
v 1.69783653 0.90493027 3.33284333
v 1.68328795 0.88398939 3.37514448
v 1.64072903 0.92058079 3.41193829
v 1.65042814 0.88531198 3.42541372
v 1.63638124 0.84725103 3.47228480
v 1.64733445 0.80353241 3.48435409
v 1.70076293 0.71183351 3.47064431
v 1.72567940 0.68942313 3.44638853
v 1.72760245 0.68501457 3.44603700
v 1.76079665 0.68501457 3.39518186
v 1.19365275 1.42022224 3.45271612
v 1.21397058 1.41059680 3.44381062
v 1.25853611 1.38870075 3.42365605
v 1.23403758 1.43241937 3.39576776
v 1.23186369 1.43557893 3.39377573
v 1.71046186 1.31845706 2.76148480
v 1.63144804 1.36739256 2.86553859
v 1.63203336 1.30221868 2.99771508
v 1.64047829 1.31294626 2.95400781
v 1.64741809 1.32169000 2.91815141
v 1.55469176 1.43557893 2.90467600
v 1.55828713 1.42573304 2.91815141
v 1.52542732 1.43557893 2.97521697
v 1.54248437 1.41147849 2.98763780
v 1.56974201 1.37282978 3.00744084
v 1.38964058 0.68501457 3.81631857
v 1.39122925 0.68861492 3.81397495
v 1.32233249 0.81977079 3.81104551
v 1.42484148 0.68501457 3.78702413
v 1.42400532 0.68861492 3.78620390
v 1.36923910 0.77281918 3.79674983
v 1.19365275 0.73938729 3.93583976
v 1.25084370 0.79427438 3.87232950
v 1.84340593 1.12646249 2.76148480
v 1.84181726 1.12396428 2.77074184
v 1.84599795 1.06679942 2.85264913
v 1.77467645 1.12109866 2.96267895
v 1.76539537 1.10882804 3.00638624
v 1.70845515 1.18553771 3.02478313
v 1.63863878 1.24527426 3.08114562
v 1.65218391 1.19780832 3.11489279
v 1.67392322 1.21544268 3.05302296
v 1.64089632 1.18237825 3.15004610
v 1.65118056 1.14284774 3.17535649
v 1.60586261 1.08083342 3.31046239
v 1.64198331 1.05320622 3.28292562
v 1.69917426 1.10618286 3.13879706
v 1.68646510 1.08333163 3.18226997
v 1.60636429 1.01580661 3.37631626
v 1.62827080 0.96429942 3.39213524
v 1.58462507 1.00015608 3.42471065
v 1.60460843 0.94717934 3.44017810
v 1.62592961 0.88531198 3.45822348
v 1.56781896 0.97377789 3.46841794
v 1.58086251 0.93005926 3.48294797
v 1.59323719 0.88531198 3.49618903
v 1.52032702 0.80874928 3.61969436
v 1.58395611 0.80632455 3.55219999
v 1.65862223 0.75415611 3.49700931
v 1.44741686 0.73034961 3.74296531
v 1.56397275 0.76605932 3.59590728
v 1.57434073 0.72234069 3.60715634
v 1.58186586 0.68861492 3.61571032
v 1.66288637 0.68501457 3.52606938
v 1.68512736 0.68501457 3.50087616
v 1.72241861 0.68501457 3.45341919
v 1.19365275 1.38892120 3.48681482
v 1.23763295 1.36937639 3.46748051
v 1.28178036 1.34703944 3.44650570
v 1.32484086 1.32477598 3.42553090
v 1.30226548 1.36849460 3.39811131
v 1.27718173 1.40839252 3.37502730
v 1.25995749 1.43557893 3.35944267
v 1.23780015 1.43557893 3.38674507
v 1.73847221 1.28054307 2.76148480
v 1.70962580 1.25218104 2.89823123
v 1.71807063 1.26334952 2.85264913
v 1.60561178 1.34285133 2.98072433
v 1.58788596 1.32844991 3.04939046
v 1.64934115 1.25850006 3.03743833
v 1.69265249 1.22977071 2.98377095
v 1.51146407 1.43557893 3.00779238
v 1.50151421 1.43557893 3.02841565
v 1.52684880 1.39722404 3.04939046
v 1.55962487 1.36122041 3.04939046
v 1.39231615 0.68501457 3.81432653
v 1.31196450 0.85320263 3.80366335
v 1.45569449 0.68501457 3.75655788
v 1.45728316 0.68861492 3.75339412
v 1.40845340 0.75158442 3.76979901
v 1.39005861 0.81977079 3.75105059
v 1.35510865 0.81977079 3.78386028
v 1.23629512 0.83799301 3.86236939
v 1.19365275 0.86635504 3.87771963
v 1.78930848 1.20890331 2.76148480
v 1.78487705 1.20177609 2.78702957
v 1.77609783 1.18869717 2.83518959
v 1.71623122 1.19700011 2.98377095
v 1.62392291 1.27973486 3.05536652
v 1.57801965 1.31647313 3.08817627
v 1.59290271 1.27708969 3.11208054
v 1.58036083 1.25416497 3.15731113
v 1.58261837 1.19156279 3.22632879
v 1.56790250 1.17238540 3.27003608
v 1.51154771 1.11904134 3.41439900
v 1.56932398 1.10853411 3.33799915
v 1.58429059 1.06481549 3.36061444
v 1.56965837 1.04387471 3.40432173
v 1.52158121 1.07642486 3.43888915
v 1.50945737 1.05100193 3.47673755
v 1.52107954 1.01646785 3.48845533
v 1.54223343 0.95254318 3.50907858
v 1.51656446 0.93123489 3.54985644
v 1.44398878 0.85467219 3.67359611
v 1.49097894 0.82631015 3.64066917
v 1.43571104 0.77406828 3.73031013
v 1.50000918 0.77039445 3.66340165
v 1.49005923 0.68861492 3.71765491
v 1.51087875 0.72667582 3.67500222
v 1.55243422 0.68861492 3.64852008
v 1.55318674 0.68501457 3.64934031
v 1.58102970 0.68501457 3.61828822
v 1.19365275 1.32404125 3.54552087
v 1.21438871 1.34534954 3.50931296
v 1.26129533 1.32565777 3.48810380
v 1.30502470 1.30493734 3.46923818
v 1.34708175 1.28171870 3.44650570
v 1.38872088 1.25842657 3.42365605
v 1.36857023 1.30214520 3.39811131
v 1.34398816 1.34387998 3.37619908
v 1.38010876 1.38003049 3.28292562
v 1.31948963 1.38436567 3.35452120
v 1.29582726 1.42808429 3.32440653
v 1.33119535 1.43557893 3.26909866
v 1.75853921 1.25284238 2.76148480
v 1.77609783 1.22793374 2.76148480
v 1.76664965 1.24152695 2.76148480
v 1.49089539 1.43557893 3.04939046
v 1.49633017 1.42999464 3.04939046
v 1.51522663 1.38458602 3.09169161
v 1.25335207 0.92800195 3.80835050
v 1.27668006 0.87913993 3.81573267
v 1.33855328 0.87656824 3.76581493
v 1.29708144 0.89692126 3.79135970
v 1.45803568 0.68501457 3.75421435
v 1.49089539 0.68501457 3.71847514
v 1.42283478 0.81977079 3.71683468
v 1.37952344 0.85628871 3.74027025
v 1.19365275 0.87002878 3.87596201
v 1.56288575 1.29788360 3.13200075
v 1.53905619 1.34196953 3.11184617
v 1.51915638 1.32367393 3.16317001
v 1.50368810 1.30618645 3.20687729
v 1.44808572 1.25203408 3.35217765
v 1.50929017 1.18156994 3.34596723
v 1.49440711 1.16275996 3.38955734
v 1.45067774 1.19024020 3.42025790
v 1.47216612 1.14328864 3.43924069
v 1.49357096 1.09464707 3.45810629
v 1.44984159 1.12381732 3.48236208
v 1.46890524 1.07289799 3.50134488
v 1.44423961 1.05122228 3.54259143
v 1.48872150 1.01646785 3.52126507
v 1.41196512 0.95386577 3.64148940
v 1.45184829 0.93182275 3.61594467
v 1.50251756 0.97495351 3.53520922
v 1.45385499 0.81977079 3.68402492
v 1.51840387 0.68501457 3.68800896
v 1.19365275 1.31595885 3.55278587
v 1.19365275 1.25879399 3.60399254
v 1.19365275 1.19362011 3.66164398
v 1.25761641 1.25747140 3.55137974
v 1.32567692 1.26121872 3.48810380
v 1.36940629 1.23755918 3.46748051
v 1.41071093 1.21389974 3.44381062
v 1.43245025 1.23395883 3.39576776
v 1.40845340 1.27708969 3.37502730
v 1.42818591 1.29575270 3.32440653
v 1.38445654 1.31933875 3.35452120
v 1.45561085 1.39105200 3.16551356
v 1.47534346 1.40964163 3.11465844
v 1.46037676 1.43557893 3.10176889
v 1.43479133 1.43477062 3.13774245
v 1.35945644 1.42617384 3.24613183
v 1.34925574 1.43557893 3.24613183
v 1.47969135 1.34872944 3.18625402
v 1.19365275 0.99670260 3.81174858
v 1.23654596 0.97172057 3.79616402
v 1.32132914 0.93196971 3.74765242
v 1.27952282 0.95188183 3.77190822
v 1.36505851 0.90000733 3.72550582
v 1.47124642 1.20780117 3.37080891
v 1.43261744 1.16753594 3.46396518
v 1.38888807 1.19384056 3.48669766
v 1.40795172 1.14505203 3.50638352
v 1.38336965 1.12256821 3.54704416
v 1.36054343 1.09369190 3.59075145
v 1.37776757 1.05004666 3.60715634
v 1.28654627 1.02631374 3.71238195
v 1.30560992 0.97568834 3.73206776
v 1.37183112 0.97598217 3.66703415
v 1.45594533 1.01646785 3.55442638
v 1.38663053 0.93226355 3.68179853
v 1.19365275 1.16525817 3.68554822
v 1.34549318 1.21434054 3.50931296
v 1.27734893 1.21154849 3.57258892
v 1.43571104 1.43557893 3.13539890
v 1.36965723 1.43557893 3.22011838
v 1.19365275 0.99934778 3.81022528
v 1.26188055 1.00382982 3.75245673
v 1.21873650 1.02308080 3.77577504
v 1.19365275 1.03388186 3.78889892
v 1.31681406 1.12087821 3.61160910
v 1.24457286 1.04754854 3.73628616
v 1.19365275 1.12771160 3.71683468
v 1.20502408 1.13865963 3.69761751
v 1.22893729 1.16195165 3.65695687
v 1.24917148 1.11823303 3.67500222
v 1.19624477 1.08193556 3.75140208
v 1.19365275 1.07738003 3.75690946
v 1.22902083 1.08193556 3.72245922
v 1.19365275 1.08751985 3.74917571
v 1.19365275 1.08215601 3.75327696
f 1 2 3
f 1 3 4
f 1 4 7
f 1 7 10
f 1 10 20
f 1 20 41
f 1 41 61
f 1 61 58
f 1 58 31
f 1 31 59
f 1 59 66
f 1 66 104
f 1 104 103
f 1 103 160
f 1 160 159
f 1 159 158
f 1 158 216
f 1 216 215
f 1 215 262
f 1 262 240
f 1 240 239
f 1 239 182
f 1 182 123
f 1 123 180
f 1 180 120
f 1 120 75
f 1 75 45
f 1 45 23
f 1 23 12
f 1 12 5
f 1 5 11
f 1 11 22
f 1 22 43
f 1 43 69
f 1 69 110
f 1 110 169
f 1 169 229
f 1 229 231
f 1 231 230
f 1 230 189
f 1 189 128
f 1 128 79
f 1 79 48
f 1 48 24
f 1 24 13
f 1 13 8
f 1 8 6
f 1 6 2
f 2 6 3
f 3 7 4
f 3 6 8
f 3 8 9
f 3 9 10
f 3 10 7
f 5 12 11
f 8 13 14
f 8 14 15
f 8 15 16
f 8 16 17
f 8 17 9
f 9 17 10
f 10 18 19
f 10 19 20
f 10 17 18
f 11 21 42
f 11 42 68
f 11 68 109
f 11 109 168
f 11 168 167
f 11 167 228
f 11 228 279
f 11 279 302
f 11 302 301
f 11 301 276
f 11 276 232
f 11 232 177
f 11 177 176
f 11 176 117
f 11 117 115
f 11 115 73
f 11 73 44
f 11 44 22
f 11 12 21
f 12 23 47
f 12 47 78
f 12 78 126
f 12 126 188
f 12 188 243
f 12 243 281
f 12 281 303
f 12 303 306
f 12 306 314
f 12 314 317
f 12 317 316
f 12 316 309
f 12 309 298
f 12 298 265
f 12 265 264
f 12 264 263
f 12 263 217
f 12 217 161
f 12 161 105
f 12 105 67
f 12 67 42
f 12 42 21
f 13 24 14
f 14 24 25
f 14 25 15
f 15 25 26
f 15 26 27
f 15 27 18
f 15 18 17
f 15 17 16
f 18 27 26
f 18 26 28
f 18 28 29
f 18 29 30
f 18 30 19
f 19 31 32
f 19 32 20
f 19 30 33
f 19 33 34
f 19 34 35
f 19 35 36
f 19 36 37
f 19 37 38
f 19 38 39
f 19 39 40
f 19 40 31
f 20 32 41
f 22 44 43
f 23 45 46
f 23 46 47
f 24 48 25
f 25 48 49
f 25 49 26
f 26 49 50
f 26 50 29
f 26 29 28
f 29 50 51
f 29 51 30
f 30 51 52
f 30 52 53
f 30 53 54
f 30 54 55
f 30 55 56
f 30 56 57
f 30 57 34
f 30 34 33
f 31 58 32
f 31 40 59
f 32 58 60
f 32 60 61
f 32 61 41
f 34 57 36
f 34 36 35
f 36 62 63
f 36 63 64
f 36 64 38
f 36 38 37
f 36 57 62
f 38 64 39
f 39 64 65
f 39 65 40
f 40 65 66
f 40 66 59
f 42 67 68
f 43 44 70
f 43 70 71
f 43 71 72
f 43 72 69
f 44 73 74
f 44 74 70
f 45 75 76
f 45 76 46
f 46 77 78
f 46 78 47
f 46 76 77
f 48 79 80
f 48 80 81
f 48 81 82
f 48 82 49
f 49 82 81
f 49 81 50
f 50 83 84
f 50 84 52
f 50 52 51
f 50 81 85
f 50 85 86
f 50 86 83
f 52 84 87
f 52 87 88
f 52 88 89
f 52 89 90
f 52 90 91
f 52 91 92
f 52 92 93
f 52 93 94
f 52 94 53
f 53 55 54
f 53 94 55
f 55 94 95
f 55 95 56
f 56 95 96
f 56 96 57
f 57 96 97
f 57 97 98
f 57 98 62
f 58 61 60
f 62 98 99
f 62 99 63
f 63 99 100
f 63 100 101
f 63 101 64
f 64 102 103
f 64 103 65
f 64 101 102
f 65 104 66
f 65 103 104
f 67 105 68
f 68 105 106
f 68 106 107
f 68 107 108
f 68 108 109
f 69 72 110
f 70 74 71
f 71 110 72
f 71 74 111
f 71 111 112
f 71 112 113
f 71 113 114
f 71 114 110
f 73 115 116
f 73 116 74
f 74 116 117
f 74 117 118
f 74 118 119
f 74 119 111
f 75 120 121
f 75 121 76
f 76 122 77
f 76 121 123
f 76 123 124
f 76 124 125
f 76 125 122
f 77 122 78
f 78 122 127
f 78 127 126
f 79 128 129
f 79 129 80
f 80 129 130
f 80 130 81
f 81 130 86
f 81 86 85
f 83 86 131
f 83 131 84
f 84 131 132
f 84 132 133
f 84 133 87
f 86 130 129
f 86 129 131
f 87 134 135
f 87 135 88
f 87 133 136
f 87 136 134
f 88 135 137
f 88 137 138
f 88 138 139
f 88 139 140
f 88 140 141
f 88 141 90
f 88 90 89
f 90 141 142
f 90 142 140
f 90 140 91
f 91 140 143
f 91 143 92
f 92 143 144
f 92 144 93
f 93 144 97
f 93 97 94
f 94 97 95
f 95 97 96
f 97 145 146
f 97 146 147
f 97 147 98
f 97 144 145
f 98 147 99
f 99 147 148
f 99 148 149
f 99 149 150
f 99 150 151
f 99 151 152
f 99 152 100
f 100 153 101
f 100 152 154
f 100 154 155
f 100 155 156
f 100 156 153
f 101 153 157
f 101 157 158
f 101 158 159
f 101 159 160
f 101 160 103
f 101 103 102
f 105 161 162
f 105 162 106
f 106 162 107
f 107 162 163
f 107 163 164
f 107 164 165
f 107 165 108
f 108 165 166
f 108 166 167
f 108 167 168
f 108 168 109
f 110 114 113
f 110 113 112
f 110 112 170
f 110 170 171
f 110 171 169
f 111 119 172
f 111 172 112
f 112 119 173
f 112 173 174
f 112 174 175
f 112 175 170
f 112 172 119
f 115 117 116
f 117 176 118
f 118 176 119
f 119 176 177
f 119 177 178
f 119 178 179
f 119 179 173
f 120 180 121
f 121 180 123
f 122 125 181
f 122 181 127
f 123 182 183
f 123 183 124
f 124 183 154
f 124 154 184
f 124 184 125
f 125 184 185
f 125 185 186
f 125 186 181
f 126 127 187
f 126 187 188
f 127 181 187
f 128 189 129
f 129 189 190
f 129 190 131
f 131 190 191
f 131 191 192
f 131 192 133
f 131 133 132
f 133 174 136
f 133 192 175
f 133 175 174
f 134 136 174
f 134 174 193
f 134 193 173
f 134 173 194
f 134 194 195
f 134 195 196
f 134 196 197
f 134 197 137
f 134 137 135
f 137 197 198
f 137 198 199
f 137 199 200
f 137 200 201
f 137 201 139
f 137 139 138
f 139 201 140
f 140 201 143
f 140 142 141
f 143 201 202
f 143 202 145
f 143 145 144
f 145 202 199
f 145 199 203
f 145 203 204
f 145 204 148
f 145 148 146
f 146 148 147
f 148 204 205
f 148 205 206
f 148 206 149
f 149 206 207
f 149 207 208
f 149 208 209
f 149 209 151
f 149 151 150
f 151 209 210
f 151 210 154
f 151 154 211
f 151 211 152
f 152 211 154
f 153 156 157
f 154 210 185
f 154 185 184
f 154 183 212
f 154 212 213
f 154 213 155
f 155 213 156
f 156 213 212
f 156 212 214
f 156 214 157
f 157 214 215
f 157 215 216
f 157 216 158
f 161 217 218
f 161 218 219
f 161 219 162
f 162 219 220
f 162 220 163
f 163 220 164
f 164 220 221
f 164 221 222
f 164 222 223
f 164 223 224
f 164 224 165
f 165 224 225
f 165 225 226
f 165 226 227
f 165 227 166
f 166 227 167
f 167 227 228
f 169 171 229
f 170 175 192
f 170 192 190
f 170 190 189
f 170 189 230
f 170 230 231
f 170 231 229
f 170 229 171
f 173 179 194
f 173 193 174
f 177 232 233
f 177 233 178
f 178 233 234
f 178 234 179
f 179 234 194
f 181 235 236
f 181 236 187
f 181 186 237
f 181 237 238
f 181 238 235
f 182 239 183
f 183 239 240
f 183 240 212
f 185 210 241
f 185 241 242
f 185 242 186
f 186 242 237
f 187 236 188
f 188 236 235
f 188 235 243
f 190 192 191
f 194 244 196
f 194 196 195
f 194 234 245
f 194 245 246
f 194 246 247
f 194 247 248
f 194 248 244
f 196 244 249
f 196 249 197
f 197 249 250
f 197 250 199
f 197 199 198
f 199 250 251
f 199 251 252
f 199 252 253
f 199 253 204
f 199 204 203
f 199 202 201
f 199 201 200
f 204 254 255
f 204 255 256
f 204 256 257
f 204 257 205
f 204 253 254
f 205 257 258
f 205 258 259
f 205 259 260
f 205 260 207
f 205 207 206
f 207 259 242
f 207 242 208
f 207 260 259
f 208 242 241
f 208 241 261
f 208 261 209
f 209 261 210
f 210 261 241
f 212 240 262
f 212 262 214
f 214 262 215
f 217 263 218
f 218 263 264
f 218 264 219
f 219 264 265
f 219 265 266
f 219 266 220
f 220 267 268
f 220 268 221
f 220 266 267
f 221 268 222
f 222 268 269
f 222 269 251
f 222 251 270
f 222 270 223
f 223 270 271
f 223 271 272
f 223 272 273
f 223 273 225
f 223 225 224
f 225 273 274
f 225 274 275
f 225 275 276
f 225 276 277
f 225 277 278
f 225 278 226
f 226 278 227
f 227 278 228
f 228 278 279
f 232 276 233
f 233 276 234
f 234 276 275
f 234 275 274
f 234 274 280
f 234 280 247
f 234 247 246
f 234 246 245
f 235 281 243
f 235 238 282
f 235 282 281
f 237 242 283
f 237 283 238
f 238 283 284
f 238 284 282
f 242 285 283
f 242 259 285
f 244 248 286
f 244 286 249
f 247 280 272
f 247 272 248
f 248 272 271
f 248 271 270
f 248 270 286
f 249 286 250
f 250 286 251
f 251 269 287
f 251 287 252
f 251 286 270
f 252 287 253
f 253 287 254
f 254 287 288
f 254 288 289
f 254 289 290
f 254 290 256
f 254 256 255
f 256 290 291
f 256 291 292
f 256 292 293
f 256 293 294
f 256 294 295
f 256 295 296
f 256 296 257
f 257 296 258
f 258 295 297
f 258 297 285
f 258 285 259
f 258 296 295
f 265 298 266
f 266 298 267
f 267 299 288
f 267 288 268
f 267 298 300
f 267 300 299
f 268 287 269
f 268 288 287
f 272 280 273
f 273 280 274
f 276 301 277
f 277 301 302
f 277 302 278
f 278 302 279
f 281 282 303
f 282 284 304
f 282 304 305
f 282 305 306
f 282 306 303
f 283 294 304
f 283 304 284
f 283 285 295
f 283 295 294
f 285 297 295
f 288 299 307
f 288 307 289
f 289 307 290
f 290 307 308
f 290 308 291
f 291 308 293
f 291 293 292
f 293 308 294
f 294 308 304
f 298 309 310
f 298 310 311
f 298 311 300
f 299 300 311
f 299 311 312
f 299 312 307
f 304 308 305
f 305 308 306
f 306 308 313
f 306 313 314
f 307 312 308
f 308 312 315
f 308 315 313
f 309 316 313
f 309 313 315
f 309 315 312
f 309 312 310
f 310 312 311
f 313 317 314
f 313 316 317

