# https://github.com/mikedh/trimesh
v -0.68301383 1.19514292 3.86533136
v 0.00250713 1.19514292 4.01105105
v -0.68301383 1.19514292 3.95813313
v -0.68301383 1.97106629 2.76148489
v 0.00250713 1.19514292 4.09303475
v 0.00250713 2.08439814 2.76148489
v -0.63066862 1.19514292 3.97885717
v -0.68301383 1.20388969 3.95213756
v -0.68301383 2.04837643 2.76148489
v 0.00250713 1.24630673 4.06592408
v -0.00366692 1.19514292 4.09303475
v 0.00250713 2.15587716 2.76148489
v -0.60657640 1.19514292 3.98837200
v -0.66965910 1.31882037 3.87432477
v -0.68301383 1.29549561 3.88592505
v -0.68301383 2.04235711 2.78259990
v -0.66382061 2.05420774 2.76148489
v -0.00729080 1.24630673 4.06592408
v 0.00250713 1.53664319 3.82662050
v -0.03138303 1.19514292 4.09290440
v -0.03279234 2.15587716 2.76148489
v 0.00250713 2.11233130 2.91815312
v -0.58375927 1.19514292 3.99658338
v -0.62295109 1.33001249 3.88266651
v -0.68301383 1.39293284 3.81449890
v -0.68301383 2.04019406 2.78989891
v -0.66288106 2.03530337 2.82782775
v -0.62107201 2.06681059 2.76148489
v -0.03279234 1.53664319 3.82662050
v -0.03279234 1.46403565 3.88644637
v -0.03279234 1.31853817 4.00583750
v -0.09842516 1.31675123 4.00427345
v -0.05097894 1.24527221 4.06475099
v -0.09842516 1.21047322 4.08234685
v -0.03057772 1.21931400 4.08000078
v 0.00250713 1.56946714 3.79885815
v -0.05426728 1.19514292 4.09225263
v -0.05185135 2.15484254 2.76148489
v -0.16399091 2.12549856 2.85259226
v -0.09842516 2.12822601 2.85259226
v -0.03279234 2.11233130 2.91815312
v 0.00250713 2.10038686 2.95751570
v -0.55738533 1.19514292 4.00583750
v -0.55738533 1.22448690 3.98407073
v -0.59624159 1.44522537 3.80537514
v -0.68301383 1.39622460 3.81202243
v -0.68301383 1.97567479 2.99049165
v -0.62026668 2.04066427 2.85089786
v -0.53174958 2.09276871 2.76148489
v -0.66496144 1.97059608 3.02555301
v -0.03279234 1.56946714 3.79885815
v -0.09842516 1.56805641 3.79781542
v -0.09842516 1.53532646 3.82544742
v -0.09842516 1.49526067 3.85829296
v -0.16399091 1.31364757 4.00179693
v -0.16399091 1.53259901 3.82310130
v -0.09842516 1.24320307 4.06266553
v -0.16399091 1.20642904 4.08039174
v -0.09842516 1.19514292 4.09055823
v 0.00250713 1.58517375 3.78113194
v -0.16399091 2.14760059 2.76148489
v -0.19331766 2.14553155 2.76148489
v -0.22955663 2.14271009 2.76148489
v -0.26539297 2.13988844 2.76148489
v -0.22955663 2.11957324 2.85259226
v -0.15774975 2.10546576 2.92154197
v -0.13177847 2.09841182 2.95112907
v -0.09842516 2.10979204 2.91815312
v -0.03279234 2.10038686 2.95751570
v 0.00250713 2.04536677 3.10558156
v -0.54080933 1.19514292 4.01118140
v -0.49181961 1.20558253 4.01900183
v -0.55738533 1.26812667 3.95122518
v -0.53530640 1.38136451 3.87223931
v -0.55738533 1.45256132 3.81111005
v -0.49181961 1.49704760 3.79286248
v -0.55738533 1.48538527 3.78087124
v -0.61751524 1.47315863 3.76861933
v -0.63992968 1.43563208 3.79716370
v -0.68301383 1.42528648 3.78738822
v -0.68301383 1.96626980 3.01590788
v -0.59657710 2.03464496 2.89117285
v -0.55315744 2.03934765 2.91515534
v -0.50295974 2.10038686 2.76148489
v -0.52846123 2.03389254 2.95451792
v -0.68301383 1.95498357 3.04367023
v -0.63852041 1.96090869 3.06921679
v -0.61919293 1.97605099 3.04810178
v 0.00250713 1.61621066 3.74607059
v -0.03279234 1.59852901 3.76601251
v -0.09842516 1.59777660 3.76496983
v -0.16399091 1.59533125 3.76249336
v -0.16399091 1.56532886 3.79533895
v -0.19707577 1.31167243 4.00010254
v -0.16399091 1.23925299 4.05953744
v -0.22955663 1.52827262 3.81958210
v -0.22955663 1.20059783 4.07752426
v -0.16331982 1.19514292 4.08638741
v -0.29384730 2.13697278 2.76148489
v -0.30089379 2.10922763 2.85884864
v -0.28290851 2.10085707 2.89338861
v -0.22955663 2.10396093 2.90368546
v -0.22955663 2.05665299 3.04940517
v -0.09842516 2.09907023 2.95334483
v -0.16399091 2.06154369 3.04940517
v -0.09842516 2.04405014 3.10323544
v -0.03279234 2.04536677 3.10558156
v 0.00250713 1.97755582 3.23253237
v -0.49181961 1.19514292 4.02669180
v -0.40893967 1.19514292 4.05145641
v -0.49463818 1.28392728 3.95852419
v -0.47463963 1.31731554 3.93897323
v -0.49181961 1.38945287 3.87849569
v -0.49181961 1.42218282 3.85307941
v -0.49181961 1.46431775 3.82023387
v -0.49181961 1.52836672 3.76001694
v -0.55738533 1.51736270 3.74802569
v -0.44551419 1.50447765 3.79977053
v -0.59503362 1.51030886 3.74007491
v -0.68301383 1.46215461 3.75076282
v -0.68301383 1.45848654 3.75454268
v -0.48034391 2.10320851 2.76969628
v -0.48383360 2.10490135 2.76148489
v -0.49181961 2.03840703 2.96911594
v -0.68301383 1.92328815 3.11196819
v -0.59476515 1.96862104 3.08472721
v -0.45705702 2.03097708 3.01538652
v 0.00250713 1.63135296 3.72886574
v -0.03279234 1.63135296 3.72886574
v -0.09842516 1.63050645 3.72730165
v -0.16399091 1.62815520 3.72404320
v -0.22955663 1.59128707 3.75819218
v -0.22955663 1.56109657 3.79103773
v -0.26874845 1.37844895 3.93558443
v -0.29512237 1.26916129 4.01861077
v -0.22318128 1.28298686 4.01887147
v -0.22955663 1.23342168 4.05627890
v -0.22955663 1.48792462 3.85242774
v -0.29512237 1.52262961 3.81502022
v -0.29512237 1.48209341 3.84786586
v -0.27834506 1.19514292 4.07465678
v -0.23626758 1.19514292 4.07947937
v -0.22955663 1.19514292 4.08013113
v -0.33585770 2.13170608 2.76148489
v -0.36062101 2.12145447 2.78703143
v -0.32659662 2.09756540 2.88491652
v -0.30149777 2.04593118 3.05592215
v -0.32760327 2.03266992 3.08212041
v -0.28391513 2.03549157 3.08720365
v -0.22955663 2.03878324 3.09332963
v -0.16399091 2.04207510 3.09945558
v -0.09842516 1.97623920 3.23018625
v -0.03279234 1.97755582 3.23253237
v 0.00250713 1.90965088 3.35948318
v -0.38236441 1.19514292 4.05810365
v -0.41316754 1.25279626 4.00544644
v -0.42618676 1.40008068 3.88696769
v -0.39753109 1.57501615 3.73916254
v -0.44121922 1.56862072 3.73186353
v -0.49181961 1.56109657 3.72326113
v -0.54436616 1.58112947 3.68050973
v -0.62295109 1.71816228 3.49060487
v -0.62295109 1.65674686 3.56085794
v -0.40182608 1.51049697 3.80524479
v -0.63878884 1.50118588 3.72990842
v -0.66804849 1.70969771 3.48095974
v -0.67368564 1.64696547 3.54964874
v -0.68301383 1.49131049 3.71895991
v -0.42679074 2.10819321 2.78976856
v -0.43162261 2.04546097 2.98957927
v -0.42658939 2.11618757 2.76148489
v -0.68301383 1.91519979 3.12695725
v -0.66677339 1.90579460 3.15484995
v -0.55738533 1.97398195 3.09424201
v -0.62295109 1.91303674 3.16814458
v -0.55664713 1.85162113 3.31451601
v -0.53436686 1.83883008 3.34944703
v -0.54288971 1.90682922 3.22262656
v -0.41336888 2.03680820 3.02737776
v 0.00250713 1.64630706 3.71126989
v -0.03279234 1.65909811 3.69615050
v -0.09842516 1.65778129 3.69445610
v -0.16399091 1.65524203 3.69132791
v -0.22955663 1.62411092 3.71935097
v -0.29512237 1.58592616 3.75206621
v -0.29512237 1.55535946 3.78491180
v -0.33659589 1.44494317 3.87067527
v -0.36062101 1.26088472 4.01183307
v -0.36062101 1.21827948 4.04467872
v -0.29512237 1.22608573 4.05132606
v -0.36062101 1.33509129 3.95318029
v -0.36062101 1.29370867 3.98589548
v -0.29512237 1.19514292 4.07244106
v -0.36062101 1.51538766 3.80928530
v -0.36062101 2.12756760 2.76148489
v -0.36062101 2.10508935 2.84164375
v -0.36062101 2.04198110 3.04106343
v -0.48806149 1.98037728 3.11653007
v -0.46370084 1.96843284 3.15002738
v -0.42618676 1.97238292 3.15706571
v -0.36062101 1.97887265 3.16905696
v -0.36062101 1.91040309 3.29483472
v -0.29512237 1.91604621 3.30539224
v -0.26995642 1.96833884 3.21519721
v -0.22955663 1.97078409 3.21988942
v -0.21351754 1.90363156 3.34814363
v -0.16399091 1.90617081 3.35296620
v -0.16399091 1.97416996 3.22614572
v -0.09842516 1.90842805 3.35700673
v -0.03279234 1.90965088 3.35948318
v 0.00250713 1.90090410 3.37460258
v -0.34505167 1.19514292 4.06475099
v -0.36062101 1.54821152 3.77683072
v -0.36062101 1.57915443 3.74411548
v -0.42618676 1.78023611 3.48708569
v -0.47289476 1.77440500 3.48004735
v -0.49181961 1.65044534 3.61951077
v -0.49181961 1.58950003 3.69041554
v -0.53664858 1.64367361 3.61156007
v -0.57134404 1.69869370 3.53387764
v -0.55262054 1.72436961 3.51054684
v -0.55738533 1.76123774 3.46401558
v -0.68301383 1.55357242 3.64974957
v -0.68301383 1.52046637 3.68663570
v -0.68301383 1.58573806 3.61390619
v -0.60664353 1.77656824 3.41956977
v -0.68301383 1.70668806 3.47744057
v -0.68301383 1.66013254 3.53022813
v -0.68301383 1.64489623 3.54743295
v -0.40531577 2.10076307 2.82756704
v -0.68301383 1.84832926 3.24530566
v -0.65858605 1.83713724 3.28075804
v -0.62295109 1.84343857 3.29209759
v -0.49181961 1.84484939 3.36026523
v -0.49181961 1.91388316 3.23553018
v -0.55738533 1.78437440 3.43116999
v 0.00250713 1.65909811 3.69615050
v -0.03279234 1.81117912 3.51067717
v -0.09842516 1.77713245 3.54912738
v -0.09842516 1.71740987 3.62185689
v -0.13157715 1.83610262 3.47548547
v -0.22955663 1.65129176 3.68650535
v -0.16399091 1.74769447 3.57897513
v -0.21036341 1.77214775 3.54300140
v -0.22955663 1.71110835 3.61416685
v -0.29512237 1.61875001 3.71309464
v -0.27747265 1.70772267 3.60999598
v -0.42424059 1.85058651 3.38033753
v -0.40102078 1.83779565 3.41292244
v -0.41135558 1.90532439 3.28558060
v -0.36062101 1.84183973 3.41956977
v -0.29512237 1.84776505 3.42869354
v -0.23304632 1.88726663 3.37290817
v -0.23304632 1.91773924 3.31751382
v -0.16399091 1.88839525 3.38568146
v -0.09842516 1.88999409 3.38985233
v -0.03279234 1.89065250 3.39219844
v 0.00250713 1.89065250 3.39219844
v -0.33948160 1.64179257 3.67490512
v -0.36062101 1.78738406 3.49568812
v -0.36062101 1.82020791 3.45215468
v -0.52758882 1.70593564 3.54221938
v -0.51658290 1.76725706 3.47248765
v -0.68301383 1.78108273 3.36326304
v -0.68301383 1.76114374 3.39597829
v -0.68301383 1.73245816 3.43977241
v -0.68301383 1.72841389 3.44589837
v -0.49181961 1.82519261 3.39298048
v 0.00250713 1.81117912 3.51067717
v -0.03279234 1.83807766 3.47783158
v -0.09842516 1.85792265 3.44263988
v -0.15761552 1.85171513 3.44746244
v -0.22955663 1.85227954 3.43547120
v -0.22955663 1.82933089 3.46818645
v -0.16399091 1.77468720 3.54612954
v -0.29512237 1.79283896 3.50285680
v -0.25411862 1.76866788 3.53961258
v -0.29512237 1.64611905 3.68024904
v -0.29512237 1.82566301 3.46140878
v -0.03279234 1.85980369 3.44263988
v 0.00250713 1.87645062 3.41552924
v 0.00250713 1.83807766 3.47783158
v 0.00250713 1.85980369 3.44263988
f 1 2 5
f 1 5 11
f 1 11 20
f 1 20 37
f 1 37 59
f 1 59 98
f 1 98 143
f 1 143 142
f 1 142 141
f 1 141 193
f 1 193 212
f 1 212 155
f 1 155 110
f 1 110 109
f 1 109 71
f 1 71 43
f 1 43 23
f 1 23 13
f 1 13 7
f 1 7 3
f 1 3 8
f 1 8 15
f 1 15 25
f 1 25 46
f 1 46 80
f 1 80 121
f 1 121 120
f 1 120 168
f 1 168 224
f 1 224 223
f 1 223 225
f 1 225 229
f 1 229 228
f 1 228 227
f 1 227 267
f 1 267 266
f 1 266 265
f 1 265 264
f 1 264 231
f 1 231 172
f 1 172 125
f 1 125 86
f 1 86 81
f 1 81 47
f 1 47 26
f 1 26 16
f 1 16 9
f 1 9 4
f 1 4 2
f 2 4 6
f 2 6 12
f 2 12 22
f 2 22 42
f 2 42 70
f 2 70 108
f 2 108 154
f 2 154 211
f 2 211 258
f 2 258 281
f 2 281 283
f 2 283 282
f 2 282 269
f 2 269 237
f 2 237 180
f 2 180 128
f 2 128 89
f 2 89 60
f 2 60 36
f 2 36 19
f 2 19 10
f 2 10 5
f 3 7 8
f 4 9 17
f 4 17 28
f 4 28 49
f 4 49 84
f 4 84 123
f 4 123 171
f 4 171 195
f 4 195 144
f 4 144 99
f 4 99 64
f 4 64 63
f 4 63 62
f 4 62 61
f 4 61 38
f 4 38 21
f 4 21 12
f 4 12 6
f 5 10 18
f 5 18 11
f 7 13 8
f 8 13 14
f 8 14 15
f 9 16 17
f 10 19 29
f 10 29 18
f 11 18 20
f 12 21 41
f 12 41 22
f 13 23 14
f 14 24 25
f 14 25 15
f 14 23 24
f 16 26 27
f 16 27 17
f 17 27 28
f 18 29 30
f 18 30 31
f 18 31 32
f 18 32 33
f 18 33 34
f 18 34 35
f 18 35 20
f 19 36 51
f 19 51 29
f 20 35 37
f 21 38 39
f 21 39 40
f 21 40 41
f 22 41 69
f 22 69 42
f 23 43 44
f 23 44 24
f 24 45 25
f 24 44 45
f 25 45 46
f 26 47 27
f 27 48 49
f 27 49 28
f 27 47 50
f 27 50 48
f 29 51 52
f 29 52 53
f 29 53 30
f 30 53 31
f 31 53 54
f 31 54 32
f 32 55 33
f 32 54 56
f 32 56 55
f 33 57 58
f 33 58 34
f 33 55 57
f 34 59 37
f 34 37 35
f 34 58 59
f 36 60 51
f 38 61 39
f 39 61 62
f 39 62 63
f 39 63 64
f 39 64 65
f 39 65 66
f 39 66 67
f 39 67 68
f 39 68 40
f 40 68 41
f 41 68 69
f 42 69 107
f 42 107 70
f 43 71 44
f 44 71 72
f 44 72 73
f 44 73 45
f 45 73 72
f 45 72 74
f 45 74 75
f 45 75 76
f 45 76 77
f 45 77 78
f 45 78 79
f 45 79 46
f 46 79 80
f 47 81 50
f 48 50 82
f 48 82 83
f 48 83 49
f 49 83 85
f 49 85 84
f 50 81 86
f 50 86 87
f 50 87 88
f 50 88 85
f 50 85 82
f 51 60 89
f 51 89 90
f 51 90 91
f 51 91 52
f 52 56 53
f 52 91 92
f 52 92 93
f 52 93 56
f 53 56 54
f 55 94 95
f 55 95 57
f 55 56 94
f 56 93 96
f 56 96 94
f 57 95 58
f 58 97 98
f 58 98 59
f 58 95 97
f 64 99 65
f 65 100 101
f 65 101 102
f 65 102 66
f 65 99 100
f 66 102 103
f 66 103 67
f 67 104 68
f 67 103 105
f 67 105 104
f 68 104 69
f 69 104 105
f 69 105 106
f 69 106 107
f 70 107 153
f 70 153 108
f 71 109 72
f 72 109 110
f 72 110 111
f 72 111 74
f 74 111 112
f 74 112 75
f 75 112 113
f 75 113 114
f 75 114 115
f 75 115 76
f 76 116 117
f 76 117 77
f 76 115 118
f 76 118 116
f 77 117 119
f 77 119 78
f 78 119 120
f 78 120 121
f 78 121 79
f 79 121 80
f 82 85 83
f 84 122 123
f 84 85 124
f 84 124 122
f 85 88 124
f 86 125 87
f 87 126 88
f 87 125 126
f 88 127 124
f 88 126 127
f 89 128 129
f 89 129 90
f 90 129 91
f 91 129 130
f 91 130 92
f 92 130 131
f 92 131 132
f 92 132 93
f 93 132 133
f 93 133 96
f 94 134 135
f 94 135 136
f 94 136 137
f 94 137 95
f 94 96 138
f 94 138 139
f 94 139 140
f 94 140 134
f 95 137 97
f 96 139 138
f 96 133 139
f 97 141 142
f 97 142 143
f 97 143 98
f 97 137 141
f 99 144 100
f 100 145 146
f 100 146 101
f 100 144 145
f 101 146 147
f 101 147 102
f 102 147 103
f 103 147 148
f 103 148 149
f 103 149 150
f 103 150 151
f 103 151 105
f 105 151 106
f 106 151 152
f 106 152 153
f 106 153 107
f 108 153 210
f 108 210 154
f 110 155 156
f 110 156 114
f 110 114 113
f 110 113 112
f 110 112 111
f 114 156 115
f 115 157 118
f 115 156 157
f 116 158 159
f 116 159 160
f 116 160 117
f 116 118 158
f 117 160 161
f 117 161 162
f 117 162 163
f 117 163 119
f 118 157 164
f 118 164 158
f 119 165 120
f 119 163 166
f 119 166 167
f 119 167 165
f 120 165 168
f 122 169 123
f 122 124 170
f 122 170 169
f 123 169 171
f 124 127 170
f 125 172 173
f 125 173 126
f 126 174 127
f 126 173 175
f 126 175 176
f 126 176 177
f 126 177 178
f 126 178 174
f 127 174 179
f 127 179 170
f 128 180 129
f 129 180 181
f 129 181 130
f 130 181 182
f 130 182 131
f 131 182 183
f 131 183 184
f 131 184 132
f 132 184 185
f 132 185 133
f 133 185 186
f 133 186 139
f 134 140 187
f 134 187 135
f 135 188 189
f 135 189 155
f 135 155 190
f 135 190 137
f 135 137 136
f 135 187 191
f 135 191 192
f 135 192 188
f 137 190 193
f 137 193 141
f 139 194 187
f 139 187 140
f 139 186 194
f 144 195 145
f 145 169 196
f 145 196 146
f 145 195 171
f 145 171 169
f 146 196 170
f 146 170 179
f 146 179 197
f 146 197 147
f 147 197 148
f 148 197 179
f 148 179 198
f 148 198 199
f 148 199 200
f 148 200 201
f 148 201 202
f 148 202 203
f 148 203 204
f 148 204 149
f 149 204 205
f 149 205 150
f 150 205 206
f 150 206 207
f 150 207 208
f 150 208 151
f 151 208 209
f 151 209 152
f 152 209 153
f 153 209 210
f 154 210 211
f 155 189 188
f 155 188 157
f 155 157 156
f 155 212 190
f 157 188 164
f 158 213 214
f 158 214 215
f 158 215 216
f 158 216 217
f 158 217 159
f 158 164 213
f 159 218 160
f 159 217 218
f 160 218 219
f 160 219 161
f 161 219 162
f 162 166 163
f 162 219 220
f 162 220 221
f 162 221 222
f 162 222 166
f 164 188 192
f 164 192 191
f 164 191 187
f 164 187 194
f 164 194 186
f 164 186 213
f 165 223 224
f 165 224 168
f 165 167 225
f 165 225 223
f 166 222 226
f 166 226 227
f 166 227 167
f 167 228 229
f 167 229 225
f 167 227 228
f 169 230 196
f 169 170 230
f 170 196 230
f 172 231 173
f 173 231 232
f 173 232 233
f 173 233 175
f 174 178 234
f 174 234 235
f 174 235 198
f 174 198 179
f 175 233 176
f 176 233 226
f 176 226 177
f 177 234 178
f 177 226 236
f 177 236 234
f 180 237 181
f 181 238 239
f 181 239 240
f 181 240 182
f 181 237 269
f 181 269 238
f 182 240 241
f 182 241 183
f 183 242 184
f 183 241 243
f 183 243 244
f 183 244 245
f 183 245 242
f 184 246 185
f 184 242 247
f 184 247 246
f 185 214 186
f 185 246 214
f 186 214 213
f 190 212 193
f 198 235 199
f 199 235 234
f 199 234 248
f 199 248 249
f 199 249 250
f 199 250 200
f 200 250 202
f 200 202 201
f 202 250 249
f 202 249 251
f 202 251 203
f 203 251 252
f 203 252 253
f 203 253 206
f 203 206 254
f 203 254 204
f 204 254 205
f 205 254 206
f 206 253 255
f 206 255 207
f 207 255 209
f 207 209 208
f 209 255 256
f 209 256 210
f 210 256 257
f 210 257 211
f 211 257 258
f 214 246 259
f 214 259 260
f 214 260 215
f 215 260 261
f 215 261 216
f 216 262 217
f 216 261 249
f 216 249 236
f 216 236 263
f 216 263 262
f 217 262 219
f 217 219 218
f 219 262 220
f 220 262 221
f 221 262 263
f 221 263 222
f 222 263 236
f 222 236 226
f 226 264 265
f 226 265 266
f 226 266 267
f 226 267 227
f 226 233 232
f 226 232 264
f 231 264 232
f 234 236 268
f 234 268 249
f 234 249 248
f 236 249 268
f 238 270 239
f 238 269 282
f 238 282 270
f 239 270 241
f 239 241 240
f 241 270 271
f 241 271 272
f 241 272 273
f 241 273 274
f 241 274 244
f 241 244 275
f 241 275 243
f 242 245 247
f 243 275 244
f 244 276 277
f 244 277 247
f 244 247 245
f 244 274 276
f 246 247 278
f 246 278 260
f 246 260 259
f 247 277 276
f 247 276 260
f 247 260 278
f 249 261 251
f 251 261 252
f 252 261 279
f 252 279 273
f 252 273 253
f 253 273 255
f 255 273 272
f 255 272 256
f 256 272 271
f 256 271 257
f 257 271 280
f 257 280 281
f 257 281 258
f 260 276 279
f 260 279 261
f 270 282 283
f 270 283 280
f 270 280 271
f 273 279 274
f 274 279 276
f 280 283 281

