# https://github.com/mikedh/trimesh
v -2.05494530 -0.88057089 2.19684859
v -2.04621573 -0.89092812 2.12879120
v -2.05327533 -0.88532957 2.19684859
v -2.05471743 -0.88057089 2.20163649
v -2.04985937 -0.88057089 2.12913321
v -2.03445011 -0.92162684 2.14896901
v -2.04500131 -0.88057089 2.07338777
v -2.04712683 -0.89167468 2.26791544
v -2.03566472 -0.92433280 2.19684859
v -2.03498149 -0.92283989 2.24978967
v -2.05107398 -0.88057089 2.26709462
v -1.98192178 -1.01204326 2.06278586
v -1.98321222 -1.02277377 2.12598684
v -1.99118254 -1.01652208 2.19684859
v -2.02017944 -0.95708425 2.19684859
v -2.04424225 -0.88057089 2.06723185
v -2.04545667 -0.88057089 2.33084282
v -2.04576037 -0.88057089 2.32797006
v -1.98845001 -1.01652208 2.26244352
v -1.97934090 -1.00709784 2.39356500
v -1.96939711 -0.98778287 2.57701189
v -1.98176993 -0.95717756 2.59541131
v -1.96643670 -1.04880703 2.10061073
v -1.96947293 -1.05319253 2.14431792
v -2.04363504 -0.88057089 2.06278586
v -1.91375652 -1.13567772 2.06278586
v -1.97099105 -1.05599181 2.19684859
v -1.96962479 -1.05347239 2.26244352
v -2.02708700 -0.88057089 2.49848949
v -1.97994831 -1.02062763 2.32318206
v -1.95375997 -1.01241654 2.59541131
v -1.96636067 -0.98311751 2.62071903
v -1.96757529 -1.04983344 2.29807955
v -1.91504696 -1.08603730 2.58412543
v -2.01638414 -0.88057089 2.58610902
v -2.01653580 -0.88057089 2.58494620
v -2.02420261 -0.88057089 2.52461802
v -1.95262138 -1.08874326 2.19684859
v -1.91755201 -1.14239590 2.13125365
v -1.91982919 -1.14631491 2.19684859
v -1.96613299 -0.88057089 2.06278586
v -1.83974646 -1.25147416 2.06278586
v -1.95125512 -1.08622394 2.26244352
v -1.90176303 -1.11496305 2.55820210
v -1.96127494 -0.97322667 2.65580794
v -1.97759511 -0.94047523 2.65580794
v -1.91185887 -1.06746878 2.65580794
v -1.90540667 -1.05589849 2.69924143
v -1.84718540 -1.19707496 2.59021296
v -1.84217549 -1.18951700 2.64376960
v -2.00287233 -0.88057089 2.65580794
v -1.91846292 -1.14388881 2.26244352
v -1.89971372 -1.17915967 2.19684859
v -1.84376943 -1.25753921 2.13125365
v -1.88984556 -0.88057089 2.76148485
v -1.27954627 -1.73154882 2.06278586
v -1.81742944 -1.28403897 2.06278586
v -1.82145262 -1.29029066 2.13125365
v -1.83989811 -1.25175402 2.06565871
v -1.90738034 -1.12466725 2.45909153
v -1.88772023 -1.15741870 2.45909153
v -1.88384891 -1.15107369 2.52461802
v -1.91762784 -1.01885486 2.72119767
v -1.97114290 -0.92657226 2.70033585
v -1.98199781 -0.88747571 2.72188164
v -1.83526793 -1.17990613 2.68747679
v -1.85037349 -1.13773044 2.72140283
v -1.91193489 -1.00476516 2.76148485
v -1.84338990 -1.12653344 2.76148485
v -1.85492804 -1.20864534 2.45909153
v -1.84468035 -1.25884558 2.26244352
v -1.84080902 -1.25306039 2.32797006
v -1.83792464 -1.24876821 2.37646515
v -1.77127749 -1.31249823 2.56340046
v -1.78805322 -1.28375901 2.58727180
v -1.76717849 -1.30885918 2.60710760
v -1.78570001 -1.26780323 2.65580794
v -1.82152844 -1.21209775 2.66169026
v -1.98503405 -0.88057089 2.72133448
v -1.89758820 -1.17664035 2.26244352
v -1.84619846 -1.26108494 2.19684859
v -1.82395747 -1.29392971 2.19684859
v -1.27954627 -1.64551810 2.76148485
v -1.97129476 -0.88057089 2.76148485
v -1.27954627 -1.82056574 2.06278586
v -1.81583550 -1.28627843 2.06278586
v -1.78471308 -1.33004034 2.06565871
v -1.78866042 -1.33526562 2.13125365
v -1.97926508 -0.88057089 2.73973385
v -1.77742599 -1.25585967 2.70751780
v -1.79541613 -1.21881594 2.72619078
v -1.78926763 -1.20901852 2.76148485
v -1.82927109 -1.17048189 2.72140283
v -1.82236353 -1.29169034 2.26244352
v -1.81841618 -1.28581183 2.32797006
v -1.78562399 -1.33125329 2.32797006
v -1.75609591 -1.35868614 2.39356500
v -1.74782189 -1.34842213 2.52461802
v -1.71093070 -1.38462608 2.59021296
v -1.76133350 -1.30055467 2.65580794
v -1.70759076 -1.38042712 2.63166295
v -1.79116528 -1.33843807 2.19684859
v -1.78957133 -1.33647867 2.26244352
v -1.27954627 -1.73920019 2.76148485
v -1.27954627 -1.82663079 2.11292258
v -1.29032515 -1.82149874 2.13125365
v -1.28448026 -1.81748651 2.06565871
v -1.28630198 -1.81580696 2.06278586
v -1.78448540 -1.32976038 2.06278586
v -1.75746218 -1.36437801 2.06278586
v -1.70614847 -1.44406392 2.15444102
v -1.71814196 -1.32836070 2.72140283
v -1.71039932 -1.31856328 2.76148485
v -1.72368325 -1.30055467 2.76148485
v -1.73840928 -1.28058656 2.76148485
v -1.75852494 -1.25296707 2.76148485
v -1.76664711 -1.24158333 2.76148485
v -1.77605972 -1.22805354 2.76148485
v -1.70675587 -1.44481037 2.24431766
v -1.72330372 -1.40030201 2.39356500
v -1.69271288 -1.42792140 2.45909153
v -1.68405933 -1.41747084 2.59021296
v -1.70015182 -1.37174943 2.67537014
v -1.65134296 -1.45572752 2.59021296
v -1.64595352 -1.44975579 2.64288043
v -1.63836273 -1.44173114 2.68658757
v -1.70721123 -1.44527687 2.19684859
v -1.28060893 -1.73845384 2.76148485
v -1.27954627 -1.74526544 2.74568457
v -1.27954627 -1.82877684 2.13125365
v -1.27954627 -1.83176265 2.17092526
v -1.29389277 -1.82392484 2.19684859
v -1.33526259 -1.78865397 2.13125365
v -1.33002490 -1.78464175 2.06565871
v -1.32979722 -1.78445511 2.06278586
v -1.72611228 -1.40403438 2.06278586
v -1.70037950 -1.43538613 2.06278586
v -1.69772279 -1.43846537 2.06278586
v -1.63980502 -1.50863372 2.09568593
v -1.64223405 -1.51115303 2.13125365
v -1.64489076 -1.51413895 2.19684859
v -1.67760712 -1.47812163 2.19684859
v -1.69187780 -1.36101892 2.72140283
v -1.65172249 -1.39181086 2.76148485
v -1.61460362 -1.54689039 2.19684859
v -1.61293365 -1.54511753 2.26244352
v -1.64322079 -1.51227276 2.26244352
v -1.65999651 -1.46524508 2.45909153
v -1.65916163 -1.40104846 2.72140283
v -1.64048825 -1.50938017 2.30307265
v -1.62128350 -1.48847897 2.59021296
v -1.58849131 -1.52393637 2.59021296
v -1.58074867 -1.51572518 2.65580794
v -1.57482785 -1.50919363 2.69089676
v -1.58849131 -1.46281898 2.76148485
v -1.62325708 -1.42465562 2.76148485
v -1.31848696 -1.71046107 2.76148485
v -1.27954627 -1.75310325 2.72482280
v -1.27954627 -1.83362903 2.19684859
v -1.29161559 -1.82233851 2.26244352
v -1.33640127 -1.78958716 2.26244352
v -1.33845077 -1.79117329 2.19684859
v -1.27954627 -1.83185607 2.23638339
v -1.27954627 -1.83064302 2.26244352
v -1.36281719 -1.75907508 2.06565871
v -1.44411454 -1.70616879 2.15444102
v -1.36258941 -1.75888844 2.06278586
v -1.66159066 -1.47886819 2.06278586
v -1.60549471 -1.54026543 2.06278586
v -1.57589061 -1.57581615 2.08344248
v -1.61187089 -1.54399780 2.13125365
v -1.57907870 -1.57898870 2.13125365
v -1.58181143 -1.58169466 2.19684859
v -1.58014146 -1.58001511 2.26244352
v -1.57657374 -1.57646938 2.31531620
v -1.57346158 -1.57339015 2.35902329
v -1.56161994 -1.56153991 2.52461802
v -1.55683771 -1.55678113 2.59021296
v -1.54856378 -1.54847672 2.65580794
v -1.50931939 -1.57469652 2.69089676
v -1.53755713 -1.53746625 2.71278450
v -1.52746138 -1.52738878 2.76148485
v -1.56025357 -1.49351770 2.76148485
v -1.32835493 -1.71811245 2.72140283
v -1.39196584 -1.65158315 2.76148485
v -1.27954627 -1.77699037 2.65580794
v -1.28584662 -1.81841970 2.32797006
v -1.31249022 -1.77120518 2.56340046
v -1.31560248 -1.77363128 2.52461802
v -1.33123951 -1.78557494 2.32797006
v -1.35879402 -1.75608927 2.39356500
v -1.44487360 -1.70672870 2.24424925
v -1.44540498 -1.70719520 2.19684859
v -1.27954627 -1.82457797 2.31258015
v -1.40433876 -1.72632354 2.06565871
v -1.40411108 -1.72613690 2.06278586
v -1.47819717 -1.67761631 2.19684859
v -1.51417745 -1.64486477 2.19684859
v -1.51129296 -1.64215881 2.13125365
v -1.50871208 -1.63973291 2.09568593
v -1.43857325 -1.69767764 2.06278586
v -1.43690328 -1.69917075 2.06278586
v -1.60002925 -1.54614394 2.06278586
v -1.54621058 -1.59998322 2.06278586
v -1.54036569 -1.60539514 2.06278586
v -1.54408516 -1.61183346 2.13125365
v -1.54696974 -1.61453942 2.19684859
v -1.54514792 -1.61285988 2.26244352
v -1.52882775 -1.59279845 2.52461802
v -1.52404552 -1.58841294 2.59021296
v -1.51577159 -1.58066825 2.65580794
v -1.46293966 -1.58841294 2.76148485
v -1.49360643 -1.56014032 2.76148485
v -1.44988351 -1.64589118 2.64288043
v -1.44176133 -1.63823990 2.68658757
v -1.30057265 -1.76131454 2.65580794
v -1.36114722 -1.69179923 2.72140283
v -1.37177435 -1.70010374 2.67537014
v -1.42468210 -1.62312389 2.76148485
v -1.43386694 -1.63124176 2.72140283
v -1.40107475 -1.65904789 2.72140283
v -1.30884667 -1.76709954 2.60710760
v -1.27954627 -1.78744093 2.60532921
v -1.27954627 -1.79089343 2.58747700
v -1.27954627 -1.82271179 2.32797006
v -1.28372110 -1.78800084 2.58727180
v -1.38475458 -1.71092757 2.59021296
v -1.34839467 -1.74787798 2.52461802
v -1.40039152 -1.72324450 2.39356500
v -1.38999217 -1.71503321 2.52461802
v -1.42794612 -1.69273242 2.45909153
v -1.45580433 -1.65130309 2.59021296
v -1.46058646 -1.65559538 2.52461802
v -1.51235573 -1.64309200 2.26244352
v -1.47895623 -1.66147379 2.06278586
v -1.49337875 -1.62554989 2.52461802
v -1.48859652 -1.62116439 2.59021296
v -1.38050373 -1.70756848 2.63166295
v -1.41117049 -1.67295095 2.65909106
v -1.41754677 -1.68405464 2.59021296
f 1 2 3
f 1 3 4
f 1 4 11
f 1 11 18
f 1 18 17
f 1 17 29
f 1 29 37
f 1 37 36
f 1 36 35
f 1 35 51
f 1 51 79
f 1 79 89
f 1 89 84
f 1 84 55
f 1 55 41
f 1 41 25
f 1 25 16
f 1 16 7
f 1 7 5
f 1 5 2
f 2 6 3
f 2 5 7
f 2 7 6
f 3 8 4
f 3 6 9
f 3 9 10
f 3 10 8
f 4 8 11
f 6 7 12
f 6 12 13
f 6 13 14
f 6 14 15
f 6 15 9
f 7 16 12
f 8 10 17
f 8 17 18
f 8 18 11
f 9 15 10
f 10 15 14
f 10 14 19
f 10 19 20
f 10 20 21
f 10 21 22
f 10 22 17
f 12 23 24
f 12 24 13
f 12 16 25
f 12 25 41
f 12 41 56
f 12 56 85
f 12 85 108
f 12 108 135
f 12 135 167
f 12 167 196
f 12 196 202
f 12 202 201
f 12 201 235
f 12 235 205
f 12 205 204
f 12 204 203
f 12 203 169
f 12 169 168
f 12 168 138
f 12 138 137
f 12 137 136
f 12 136 110
f 12 110 109
f 12 109 86
f 12 86 57
f 12 57 42
f 12 42 26
f 12 26 23
f 13 24 14
f 14 24 27
f 14 27 28
f 14 28 19
f 17 22 29
f 19 28 30
f 19 30 20
f 20 30 28
f 20 28 21
f 21 31 32
f 21 32 22
f 21 28 33
f 21 33 34
f 21 34 31
f 22 32 35
f 22 35 36
f 22 36 37
f 22 37 29
f 23 26 24
f 24 38 27
f 24 26 39
f 24 39 40
f 24 40 38
f 26 42 39
f 27 38 43
f 27 43 28
f 28 43 44
f 28 44 34
f 28 34 33
f 31 34 32
f 32 45 46
f 32 46 35
f 32 34 47
f 32 47 48
f 32 48 45
f 34 44 49
f 34 49 50
f 34 50 47
f 35 46 51
f 38 40 52
f 38 52 43
f 39 53 40
f 39 42 54
f 39 54 53
f 40 53 52
f 41 55 56
f 42 57 58
f 42 58 59
f 42 59 54
f 43 52 60
f 43 60 44
f 44 60 61
f 44 61 62
f 44 62 49
f 45 48 63
f 45 63 64
f 45 64 46
f 46 64 65
f 46 65 51
f 47 50 66
f 47 66 67
f 47 67 48
f 48 68 63
f 48 67 69
f 48 69 68
f 49 62 61
f 49 61 70
f 49 70 71
f 49 71 72
f 49 72 73
f 49 73 74
f 49 74 75
f 49 75 76
f 49 76 50
f 50 76 77
f 50 77 78
f 50 78 66
f 51 65 79
f 52 53 80
f 52 80 61
f 52 61 60
f 53 54 81
f 53 81 71
f 53 71 80
f 54 59 58
f 54 58 82
f 54 82 81
f 55 83 56
f 55 84 68
f 55 68 69
f 55 69 92
f 55 92 118
f 55 118 117
f 55 117 116
f 55 116 115
f 55 115 114
f 55 114 113
f 55 113 144
f 55 144 156
f 55 156 155
f 55 155 183
f 55 183 182
f 55 182 213
f 55 213 212
f 55 212 219
f 55 219 185
f 55 185 157
f 55 157 128
f 55 128 104
f 55 104 83
f 56 83 104
f 56 104 129
f 56 129 158
f 56 158 186
f 56 186 223
f 56 223 224
f 56 224 225
f 56 225 194
f 56 194 164
f 56 164 163
f 56 163 159
f 56 159 131
f 56 131 130
f 56 130 105
f 56 105 85
f 57 86 58
f 58 86 87
f 58 87 88
f 58 88 82
f 61 80 70
f 63 68 64
f 64 89 65
f 64 68 89
f 65 89 79
f 66 78 77
f 66 77 90
f 66 90 91
f 66 91 92
f 66 92 93
f 66 93 69
f 66 69 67
f 68 84 89
f 69 93 92
f 70 80 71
f 71 81 82
f 71 82 94
f 71 94 72
f 72 94 73
f 73 94 95
f 73 95 74
f 74 76 75
f 74 95 94
f 74 94 96
f 74 96 97
f 74 97 98
f 74 98 99
f 74 99 76
f 76 100 77
f 76 99 101
f 76 101 100
f 77 100 90
f 82 88 102
f 82 102 103
f 82 103 94
f 85 105 106
f 85 106 107
f 85 107 108
f 86 109 87
f 87 109 110
f 87 110 88
f 88 110 111
f 88 111 102
f 90 100 112
f 90 112 113
f 90 113 114
f 90 114 115
f 90 115 116
f 90 116 117
f 90 117 118
f 90 118 92
f 90 92 91
f 94 103 96
f 96 103 97
f 97 103 119
f 97 119 120
f 97 120 98
f 98 120 99
f 99 120 119
f 99 119 121
f 99 121 122
f 99 122 101
f 100 101 123
f 100 123 112
f 101 122 124
f 101 124 125
f 101 125 126
f 101 126 123
f 102 111 127
f 102 127 119
f 102 119 103
f 104 128 129
f 105 130 106
f 106 130 131
f 106 131 132
f 106 132 133
f 106 133 134
f 106 134 135
f 106 135 107
f 107 135 108
f 110 136 111
f 111 136 137
f 111 137 138
f 111 138 139
f 111 139 140
f 111 140 141
f 111 141 142
f 111 142 127
f 112 143 144
f 112 144 113
f 112 123 143
f 119 127 142
f 119 142 141
f 119 141 145
f 119 145 146
f 119 146 147
f 119 147 148
f 119 148 124
f 119 124 121
f 121 124 122
f 123 126 149
f 123 149 143
f 124 148 150
f 124 150 151
f 124 151 125
f 125 151 152
f 125 152 153
f 125 153 154
f 125 154 126
f 126 155 156
f 126 156 144
f 126 144 149
f 126 154 155
f 128 157 129
f 129 157 158
f 131 159 132
f 132 160 161
f 132 161 162
f 132 162 133
f 132 159 163
f 132 163 164
f 132 164 160
f 133 165 134
f 133 162 166
f 133 166 165
f 134 165 167
f 134 167 135
f 138 168 139
f 139 169 170
f 139 170 171
f 139 171 140
f 139 168 169
f 140 171 141
f 141 171 145
f 143 149 144
f 145 171 172
f 145 172 173
f 145 173 174
f 145 174 146
f 146 174 175
f 146 175 152
f 146 152 151
f 146 151 150
f 146 150 147
f 147 150 148
f 152 175 176
f 152 176 177
f 152 177 178
f 152 178 153
f 153 178 179
f 153 179 154
f 154 179 180
f 154 180 181
f 154 181 182
f 154 182 183
f 154 183 155
f 157 184 158
f 157 185 184
f 158 184 186
f 160 164 187
f 160 187 188
f 160 188 189
f 160 189 190
f 160 190 161
f 161 190 191
f 161 191 192
f 161 192 162
f 162 192 193
f 162 193 166
f 164 194 187
f 165 166 195
f 165 195 196
f 165 196 167
f 166 196 195
f 166 193 197
f 166 197 198
f 166 198 199
f 166 199 200
f 166 200 201
f 166 201 202
f 166 202 196
f 169 203 170
f 170 172 171
f 170 203 204
f 170 204 205
f 170 205 200
f 170 200 206
f 170 206 172
f 172 206 207
f 172 207 173
f 173 207 174
f 174 207 208
f 174 208 175
f 175 209 210
f 175 210 176
f 175 208 209
f 176 210 177
f 177 210 178
f 178 210 211
f 178 211 179
f 179 211 180
f 180 212 213
f 180 213 182
f 180 182 181
f 180 211 214
f 180 214 215
f 180 215 212
f 184 216 186
f 184 185 217
f 184 217 218
f 184 218 216
f 185 219 220
f 185 220 215
f 185 215 221
f 185 221 217
f 186 222 223
f 186 216 222
f 187 224 188
f 187 194 225
f 187 225 224
f 188 224 226
f 188 226 222
f 188 222 227
f 188 227 228
f 188 228 189
f 189 191 190
f 189 228 191
f 191 228 230
f 191 230 229
f 191 229 192
f 192 229 230
f 192 230 227
f 192 227 231
f 192 231 232
f 192 232 233
f 192 233 234
f 192 234 208
f 192 208 207
f 192 207 198
f 192 198 197
f 192 197 193
f 198 207 206
f 198 206 199
f 199 206 200
f 200 235 201
f 200 205 235
f 208 234 236
f 208 236 209
f 209 236 237
f 209 237 210
f 210 237 214
f 210 214 211
f 212 215 220
f 212 220 219
f 214 237 232
f 214 232 238
f 214 238 239
f 214 239 215
f 215 239 218
f 215 218 221
f 216 238 222
f 216 218 238
f 217 221 218
f 218 239 238
f 222 226 224
f 222 224 223
f 222 238 227
f 227 238 240
f 227 240 231
f 227 230 228
f 231 240 232
f 232 240 238
f 232 237 236
f 232 236 234
f 232 234 233

