# https://github.com/mikedh/trimesh
v 2.09276714 0.01716522 1.42957446
v 2.09276714 0.00035378 1.42957446
v 2.06124546 0.03279691 1.34422815
v 2.05955360 0.09842047 1.34422815
v 2.05670419 0.16397032 1.34422815
v 2.08136933 0.16397032 1.42957446
v 2.01770292 0.00035378 1.42957446
v 2.06124546 0.00035378 1.34422815
v 2.05118342 0.00035378 1.31968711
v 2.04129962 0.03279691 1.29558404
v 2.04005296 0.09842047 1.29799450
v 2.04495050 0.29514375 1.34882960
v 2.06471810 0.29514375 1.40985377
v 2.07264308 0.27154875 1.42957446
v 2.07851992 0.20039510 1.42957446
v 2.03800503 0.16397032 1.30171945
v 2.03542278 0.21853375 1.30664962
v 2.04717647 0.23608251 1.33776422
v 1.87282809 0.75347650 1.42957446
v 1.18318128 0.00042753 0.38865743
v 1.19965448 0.00035378 0.40224252
v 2.04129962 0.00035378 1.29558404
v 1.97344803 0.03279691 1.16860554
v 1.97220137 0.09842047 1.17101581
v 1.90301399 0.14546299 1.04666685
v 2.03969688 0.36069357 1.36077150
v 2.05625900 0.36069357 1.40985377
v 2.03275141 0.26225821 1.31147016
v 2.07032798 0.29455386 1.42957446
v 1.96819442 0.20459795 1.17857553
v 1.95252269 0.16397032 1.14220203
v 1.98146193 0.22767681 1.20837545
v 1.87282809 0.75362395 1.42957446
v 1.18318128 0.75362395 0.56482764
v 1.18318128 0.00035378 0.36082942
v 1.97344803 0.00035378 1.16860554
v 1.88814373 0.03279691 1.00897869
v 1.90434977 0.09842047 1.04414695
v 1.88680795 0.09842047 1.01138895
v 1.88662991 0.16596114 1.02135874
v 1.91628170 0.22952016 1.08764180
v 1.91690494 0.16596114 1.07624770
v 2.03524454 0.40552405 1.37117965
v 1.98368810 0.42816052 1.27378199
v 1.97861253 0.49179327 1.29076351
v 2.04263521 0.42690702 1.40700534
v 2.04904637 0.42668584 1.42957446
v 2.06097830 0.36069357 1.42957446
v 2.06418398 0.34181758 1.42957446
v 1.98021527 0.29514375 1.22196074
v 1.97469450 0.36069357 1.23214961
v 1.95216642 0.75362395 1.42957446
v 1.18318128 0.75362395 0.47181236
v 1.18318128 0.00035378 0.31043248
v 1.88814373 0.00035378 1.00897869
v 1.87158142 0.00035378 0.98224627
v 1.85528646 0.03279691 0.95606184
v 1.85403980 0.09842047 0.95770523
v 1.85181363 0.16397032 0.96077274
v 1.84825187 0.22952016 0.96570291
v 1.84362169 0.29514375 0.97227648
v 1.91191848 0.29514375 1.09574912
v 2.03764875 0.47881602 1.42705456
v 1.97202333 0.54149022 1.30292448
v 1.98324271 0.56095607 1.33951725
v 1.97006431 0.40758862 1.24069528
v 1.91485700 0.42226174 1.14483138
v 1.84878618 0.42624343 1.02596020
v 1.84219699 0.48073312 1.03812118
v 1.90969231 0.49179327 1.16564748
v 2.03818306 0.47992202 1.42957446
v 1.90621967 0.36069357 1.10637634
v 1.96000228 0.73415810 1.42957446
v 1.94717996 0.75362395 1.41445522
v 1.21274395 0.75362395 0.49229993
v 1.18318128 0.72501499 0.45877487
v 1.18318128 0.03279691 0.31043248
v 1.19938732 0.00035378 0.31777292
v 1.85528646 0.00035378 0.95606184
v 1.82990878 0.03279691 0.92330365
v 1.82884035 0.09842047 0.92494705
v 1.82750457 0.16397032 0.92801475
v 1.82456625 0.22952016 0.93294492
v 1.81984675 0.29514375 0.93940885
v 1.83934739 0.34439829 0.97863096
v 1.97478361 0.62296668 1.35978555
v 1.96899569 0.66049747 1.37293267
v 1.90880192 0.62296668 1.23302612
v 1.91396641 0.68394497 1.27936940
v 1.95857758 0.62296668 1.32691792
v 1.84958765 0.55734311 1.09038078
v 1.90256880 0.39778195 1.11316899
v 1.83364858 0.38804902 0.98553305
v 1.82928555 0.42624343 0.99320221
v 1.82474428 0.49828187 1.01631913
v 1.83596386 0.52445755 1.04918676
v 1.99152396 0.62296668 1.40985377
v 1.99811316 0.62127077 1.42957446
v 1.97059863 0.70702382 1.42957446
v 1.94566614 0.75362395 1.41018248
v 1.33117258 0.75362395 0.57611230
v 1.18318128 0.72346658 0.45811763
v 1.18318128 0.05344253 0.31098027
v 1.19938732 0.03279691 0.31777292
v 1.21559336 0.00035378 0.32719491
v 1.82990878 0.00035378 0.92330365
v 1.77220814 0.03279691 0.85055667
v 1.77122863 0.08278879 0.85176190
v 1.77007109 0.12651327 0.85285750
v 1.79179790 0.22952016 0.89218905
v 1.78707859 0.29514375 0.89799574
v 1.78102351 0.36069357 0.90544563
v 1.77532470 0.41370859 0.91223827
v 1.76980393 0.45743303 0.91848312
v 1.78921565 0.49179327 0.95726688
v 1.91930915 0.75362395 1.34105100
v 1.97398215 0.68482979 1.41500302
v 1.98306467 0.67000917 1.42957446
v 1.90728810 0.73644383 1.30160981
v 1.90283595 0.65902274 1.24376279
v 1.84201875 0.60696629 1.10407551
v 1.84602570 0.68851652 1.16290849
v 1.80764786 0.55734311 1.01642857
v 1.77372196 0.59885555 0.97885004
v 1.78013312 0.55734311 0.96975657
v 1.97807821 0.68571461 1.42957446
v 1.33161787 0.75362395 0.57644101
v 1.37444806 0.71587198 0.59309381
v 1.34328265 0.68630447 0.55858298
v 1.31211714 0.65666328 0.52429104
v 1.30018530 0.70038777 0.53283652
v 1.19235283 0.68851652 0.45055811
v 1.18318128 0.72110712 0.45713148
v 1.18318128 0.09842047 0.31240458
v 1.19733928 0.09842047 0.31886851
v 1.23010754 0.09842047 0.33771269
v 1.23215547 0.03279691 0.33683618
v 1.23215547 0.00035378 0.33683618
v 1.77220814 0.00035378 0.85055667
v 1.71121290 0.09842047 0.77934364
v 1.66900614 0.00035378 0.72478340
v 1.65280011 0.03279691 0.70506290
v 1.62457302 0.09842047 0.67383867
v 1.62190175 0.16397032 0.67701581
v 1.70871977 0.16397032 0.78241134
v 1.64496405 0.22952016 0.71459434
v 1.64175857 0.27457185 0.71842892
v 1.75359789 0.36069357 0.87257800
v 1.72082974 0.36069357 0.83346552
v 1.66045773 0.36069357 0.76159505
v 1.57550971 0.33562389 0.65389889
v 1.57007806 0.37920089 0.65948650
v 1.62528537 0.42624343 0.73803998
v 1.71343907 0.42624343 0.84244935
v 1.72848756 0.49127713 0.88101403
v 1.76499571 0.49179327 0.92450889
v 1.70782938 0.46908305 0.84924200
v 1.90345919 0.75362395 1.30752613
v 1.83863523 0.72774318 1.17583654
v 1.85029981 0.75141190 1.21308655
v 1.84994373 0.75362395 1.21407250
v 1.77808519 0.67635036 1.03582055
v 1.75555691 0.55734311 0.93699858
v 1.70524694 0.65666328 0.91760660
v 1.69660980 0.70038777 0.92790511
v 1.71361711 0.74049920 0.97161904
v 1.75849543 0.69434153 1.01489482
v 1.36402995 0.75362395 0.60120113
v 1.44283396 0.72154949 0.65565192
v 1.40810680 0.69183457 0.61193799
v 1.42929929 0.62296668 0.60174892
v 1.38513333 0.67214749 0.58432925
v 1.39653104 0.62296668 0.57567394
v 1.35272125 0.62296668 0.54291595
v 1.18620872 0.53706617 0.38920523
v 1.18318128 0.55019087 0.39183457
v 1.23821056 0.64036798 0.46501971
v 1.18318128 0.62193436 0.41867643
v 1.18318128 0.68829529 0.44398454
v 1.18318128 0.11714901 0.31317146
v 1.19368851 0.16397032 0.32073098
v 1.22645666 0.16397032 0.33990368
v 1.27151302 0.16397032 0.37277131
v 1.27462958 0.09842047 0.37047068
v 1.27632144 0.03279691 0.36959417
v 1.27632144 0.00035378 0.36959417
v 1.62590870 0.03279691 0.67230472
v 1.62590870 0.00035378 0.67230472
v 1.59180477 0.09842047 0.63636958
v 1.58913350 0.16397032 0.63910857
v 1.58503743 0.22952016 0.64338131
v 1.61780568 0.22952016 0.68183635
v 1.57960578 0.29514375 0.64929744
v 1.54621420 0.29514375 0.61642981
v 1.50952801 0.33304320 0.58925923
v 1.50427440 0.37676766 0.59418940
v 1.49768510 0.42624343 0.59966737
v 1.53125482 0.42624343 0.63253500
v 1.52190514 0.49179327 0.64140920
v 1.56411209 0.42624343 0.66682694
v 1.59242810 0.42624343 0.69958493
v 1.63917632 0.52431010 0.78712224
v 1.64540944 0.48058561 0.77978180
v 1.72269964 0.55734311 0.89733831
v 1.83320338 0.75362395 1.18492981
v 1.76935874 0.72007480 1.04995363
v 1.71148006 0.62296668 0.91048544
v 1.68289689 0.62296668 0.87772725
v 1.58868821 0.62296668 0.77003109
v 1.64247092 0.66315188 0.84902292
v 1.63321035 0.70687637 0.85943106
v 1.65217668 0.75362395 0.90391187
v 1.68841766 0.75362395 0.94817360
v 1.57969480 0.66860821 0.78032960
v 1.69518510 0.75362395 0.95650000
v 1.71041163 0.75362395 0.97589198
v 1.72492581 0.75362395 0.99944706
v 1.40712729 0.75362395 0.63921801
v 1.40944238 0.74765144 0.63834169
v 1.51638437 0.67325349 0.71240335
v 1.45049179 0.68851652 0.64798276
v 1.43410761 0.75362395 0.66496428
v 1.55983799 0.75362395 0.80202220
v 1.59020203 0.75362395 0.83521855
v 1.62261410 0.75362395 0.87104424
v 1.43873790 0.57961088 0.59397032
v 1.46456077 0.62296668 0.63450711
v 1.33411110 0.55734311 0.50741897
v 1.29083562 0.55734311 0.47466098
v 1.25806737 0.55734311 0.44990067
v 1.19564743 0.49179327 0.38186478
v 1.18318128 0.49179327 0.37353819
v 1.18318128 0.53898326 0.38778091
v 1.18318128 0.16397032 0.31580081
v 1.18318128 0.17901213 0.31667732
v 1.18816774 0.22952016 0.32357941
v 1.22102501 0.22952016 0.34406698
v 1.26652656 0.22952016 0.37693461
v 1.37854413 0.14302976 0.45789855
v 1.47854064 0.22952016 0.54872264
v 1.51896672 0.22952016 0.58159027
v 1.45031365 0.16397032 0.51848436
v 1.38032500 0.09842047 0.45647424
v 1.38201676 0.03279691 0.45504992
v 1.38201676 0.00035378 0.45504992
v 1.60934649 0.00035378 0.65346073
v 1.59314045 0.03279691 0.63505491
v 1.56028318 0.03279691 0.60218728
v 1.55885848 0.09842047 0.60361140
v 1.55609809 0.16397032 0.60635038
v 1.55182399 0.22952016 0.61051368
v 1.51335693 0.29514375 0.58619172
v 1.44301200 0.26380665 0.52440049
v 1.33348777 0.29514375 0.44157427
v 1.29243836 0.29514375 0.40870664
v 1.39955849 0.36069357 0.50676154
v 1.46482783 0.42624343 0.57271588
v 1.48735601 0.49179327 0.60865121
v 1.45458776 0.49179327 0.58093283
v 1.51389114 0.53986808 0.64973579
v 1.55476241 0.49179327 0.67789233
v 1.57675638 0.53234716 0.71810040
v 1.78182498 0.75362395 1.09585875
v 1.73516588 0.75362395 1.01653821
v 1.54131676 0.55800670 0.68840991
v 1.50534293 0.58359252 0.65860999
v 1.52680258 0.62296668 0.70035181
v 1.49732893 0.62296668 0.66759382
v 1.44693003 0.53588639 0.58706804
v 1.27142400 0.49179327 0.43982124
v 1.23874477 0.43848331 0.39950373
v 1.21541522 0.42041842 0.37682497
v 1.18318128 0.42388393 0.35513236
v 1.18318128 0.22952016 0.32105970
v 1.18318128 0.23910563 0.32204566
v 1.18344844 0.27553040 0.32620895
v 1.18318128 0.27788990 0.32642803
v 1.20846985 0.29647095 0.34702505
v 1.25967021 0.29514375 0.38263166
v 1.52324082 0.16397032 0.57797477
v 1.52609023 0.09842047 0.57567394
v 1.41487413 0.03279691 0.48200142
v 1.47097193 0.00035378 0.52801599
v 1.59314045 0.00035378 0.63505491
v 1.57657824 0.00035378 0.61840192
v 1.56028318 0.00035378 0.60218728
v 1.54372097 0.00035378 0.58816364
v 1.52751493 0.03279691 0.57446890
v 1.35833104 0.36069357 0.47400355
v 1.42324421 0.42624343 0.53995788
v 1.32556279 0.36069357 0.44803820
v 1.25130003 0.36069357 0.38931467
v 1.24649161 0.39475885 0.39314925
v 1.38281823 0.47453942 0.52023739
v 1.21318915 0.36069357 0.36269189
v 1.18318128 0.36069357 0.34176635
v 1.18318128 0.27575160 0.32609932
v 1.18318128 0.31556815 0.33322068
v 1.18318128 0.34122771 0.33804121
v 1.48762317 0.03279691 0.54171091
v 1.52751493 0.00035378 0.57446890
f 1 2 8
f 1 8 3
f 1 3 4
f 1 4 5
f 1 5 6
f 1 6 15
f 1 15 14
f 1 14 29
f 1 29 49
f 1 49 48
f 1 48 47
f 1 47 71
f 1 71 98
f 1 98 118
f 1 118 126
f 1 126 99
f 1 99 73
f 1 73 52
f 1 52 33
f 1 33 19
f 1 19 7
f 1 7 2
f 2 7 21
f 2 21 35
f 2 35 54
f 2 54 78
f 2 78 105
f 2 105 138
f 2 138 186
f 2 186 245
f 2 245 283
f 2 283 301
f 2 301 287
f 2 287 286
f 2 286 285
f 2 285 284
f 2 284 246
f 2 246 188
f 2 188 141
f 2 141 139
f 2 139 106
f 2 106 79
f 2 79 56
f 2 56 55
f 2 55 36
f 2 36 22
f 2 22 9
f 2 9 8
f 3 8 9
f 3 9 10
f 3 10 4
f 4 10 11
f 4 11 5
f 5 12 13
f 5 13 14
f 5 14 15
f 5 15 6
f 5 11 16
f 5 16 17
f 5 17 18
f 5 18 12
f 7 19 20
f 7 20 21
f 9 22 10
f 10 22 36
f 10 36 23
f 10 23 24
f 10 24 11
f 11 24 25
f 11 25 16
f 12 26 27
f 12 27 13
f 12 18 28
f 12 28 26
f 13 27 29
f 13 29 14
f 16 30 17
f 16 25 31
f 16 31 30
f 17 28 18
f 17 30 32
f 17 32 28
f 19 33 34
f 19 34 20
f 20 34 53
f 20 53 76
f 20 76 102
f 20 102 133
f 20 133 179
f 20 179 178
f 20 178 176
f 20 176 233
f 20 233 232
f 20 232 273
f 20 273 296
f 20 296 299
f 20 299 298
f 20 298 277
f 20 277 297
f 20 297 275
f 20 275 274
f 20 274 235
f 20 235 234
f 20 234 180
f 20 180 134
f 20 134 103
f 20 103 77
f 20 77 54
f 20 54 35
f 20 35 21
f 23 36 55
f 23 55 37
f 23 37 24
f 24 37 38
f 24 38 25
f 25 38 39
f 25 39 40
f 25 40 41
f 25 41 42
f 25 42 30
f 25 30 31
f 26 43 27
f 26 28 44
f 26 44 45
f 26 45 43
f 27 43 46
f 27 46 47
f 27 47 48
f 27 48 49
f 27 49 29
f 28 32 41
f 28 41 50
f 28 50 51
f 28 51 44
f 30 42 41
f 30 41 32
f 33 52 74
f 33 74 100
f 33 100 116
f 33 116 158
f 33 158 161
f 33 161 205
f 33 205 263
f 33 263 264
f 33 264 217
f 33 217 216
f 33 216 215
f 33 215 213
f 33 213 212
f 33 212 225
f 33 225 224
f 33 224 223
f 33 223 222
f 33 222 218
f 33 218 168
f 33 168 127
f 33 127 101
f 33 101 75
f 33 75 53
f 33 53 34
f 37 55 56
f 37 56 57
f 37 57 58
f 37 58 39
f 37 39 38
f 39 58 59
f 39 59 40
f 40 59 60
f 40 60 41
f 41 60 61
f 41 61 62
f 41 62 50
f 43 63 46
f 43 45 64
f 43 64 65
f 43 65 63
f 44 51 66
f 44 66 67
f 44 67 45
f 45 67 68
f 45 68 69
f 45 69 70
f 45 70 64
f 46 63 71
f 46 71 47
f 50 62 51
f 51 62 72
f 51 72 66
f 52 73 74
f 53 75 76
f 54 77 104
f 54 104 78
f 56 79 57
f 57 79 106
f 57 106 80
f 57 80 81
f 57 81 58
f 58 81 82
f 58 82 59
f 59 82 83
f 59 83 60
f 60 83 61
f 61 83 84
f 61 84 85
f 61 85 62
f 62 85 72
f 63 65 86
f 63 86 87
f 63 87 71
f 64 88 89
f 64 89 90
f 64 90 86
f 64 86 65
f 64 70 69
f 64 69 91
f 64 91 88
f 66 72 92
f 66 92 67
f 67 92 68
f 68 92 85
f 68 85 93
f 68 93 94
f 68 94 69
f 69 94 95
f 69 95 96
f 69 96 91
f 71 87 97
f 71 97 98
f 72 85 92
f 73 99 74
f 74 87 100
f 74 99 87
f 75 101 76
f 76 101 102
f 77 103 104
f 78 104 105
f 80 106 139
f 80 139 107
f 80 107 81
f 81 107 108
f 81 108 109
f 81 109 82
f 82 110 83
f 82 109 110
f 83 110 111
f 83 111 84
f 84 111 112
f 84 112 85
f 85 112 113
f 85 113 114
f 85 114 115
f 85 115 93
f 86 90 87
f 87 116 100
f 87 99 117
f 87 117 118
f 87 118 98
f 87 98 97
f 87 90 89
f 87 89 119
f 87 119 116
f 88 120 89
f 88 91 121
f 88 121 120
f 89 120 122
f 89 122 119
f 91 96 123
f 91 123 124
f 91 124 121
f 93 115 94
f 94 115 125
f 94 125 95
f 95 123 96
f 95 125 124
f 95 124 123
f 99 126 117
f 101 127 128
f 101 128 129
f 101 129 130
f 101 130 131
f 101 131 132
f 101 132 133
f 101 133 102
f 103 134 135
f 103 135 104
f 104 135 136
f 104 136 137
f 104 137 105
f 105 137 138
f 107 140 108
f 107 139 141
f 107 141 142
f 107 142 140
f 108 140 109
f 109 140 143
f 109 143 144
f 109 144 145
f 109 145 110
f 110 145 144
f 110 144 146
f 110 146 147
f 110 147 111
f 111 147 112
f 112 147 148
f 112 148 113
f 113 148 149
f 113 149 150
f 113 150 151
f 113 151 152
f 113 152 153
f 113 153 154
f 113 154 114
f 114 155 156
f 114 156 115
f 114 154 153
f 114 153 157
f 114 157 155
f 115 156 125
f 116 119 158
f 117 126 118
f 119 159 160
f 119 160 161
f 119 161 158
f 119 122 162
f 119 162 159
f 120 121 124
f 120 124 162
f 120 162 122
f 124 125 163
f 124 163 164
f 124 164 165
f 124 165 166
f 124 166 167
f 124 167 162
f 125 156 163
f 127 168 128
f 128 168 169
f 128 169 170
f 128 170 171
f 128 171 172
f 128 172 129
f 129 172 130
f 130 172 173
f 130 173 174
f 130 174 175
f 130 175 176
f 130 176 177
f 130 177 132
f 130 132 131
f 132 177 178
f 132 178 179
f 132 179 133
f 134 180 135
f 135 180 181
f 135 181 136
f 136 181 182
f 136 182 183
f 136 183 184
f 136 184 137
f 137 184 185
f 137 185 186
f 137 186 138
f 140 142 187
f 140 187 143
f 141 188 187
f 141 187 142
f 143 187 189
f 143 189 190
f 143 190 144
f 144 190 191
f 144 191 192
f 144 192 146
f 146 192 147
f 147 192 193
f 147 193 151
f 147 151 148
f 148 151 149
f 149 151 150
f 151 193 194
f 151 194 195
f 151 195 196
f 151 196 197
f 151 197 198
f 151 198 152
f 152 198 199
f 152 199 200
f 152 200 201
f 152 201 153
f 153 202 203
f 153 203 157
f 153 201 202
f 155 204 156
f 155 157 202
f 155 202 204
f 156 204 163
f 157 203 202
f 159 205 160
f 159 162 206
f 159 206 205
f 160 205 161
f 162 167 206
f 163 204 207
f 163 207 164
f 164 207 208
f 164 208 209
f 164 209 210
f 164 210 165
f 165 211 212
f 165 212 213
f 165 213 166
f 165 210 214
f 165 214 211
f 166 213 215
f 166 215 216
f 166 216 217
f 166 217 206
f 166 206 167
f 168 218 219
f 168 219 169
f 169 220 221
f 169 221 170
f 169 219 218
f 169 218 222
f 169 222 223
f 169 223 224
f 169 224 225
f 169 225 220
f 170 221 171
f 171 226 173
f 171 173 172
f 171 221 227
f 171 227 226
f 173 228 229
f 173 229 230
f 173 230 175
f 173 175 174
f 173 226 228
f 175 230 231
f 175 231 232
f 175 232 233
f 175 233 176
f 176 178 177
f 180 234 181
f 181 234 235
f 181 235 236
f 181 236 182
f 182 236 237
f 182 237 238
f 182 238 183
f 183 239 184
f 183 238 240
f 183 240 241
f 183 241 242
f 183 242 239
f 184 239 243
f 184 243 244
f 184 244 185
f 185 244 245
f 185 245 186
f 187 188 246
f 187 246 247
f 187 247 189
f 189 247 248
f 189 248 249
f 189 249 190
f 190 249 250
f 190 250 191
f 191 193 192
f 191 250 251
f 191 251 193
f 193 251 194
f 194 251 252
f 194 252 195
f 195 252 253
f 195 253 238
f 195 238 254
f 195 254 255
f 195 255 256
f 195 256 257
f 195 257 196
f 196 257 197
f 197 258 199
f 197 199 198
f 197 257 259
f 197 259 258
f 199 258 260
f 199 260 261
f 199 261 200
f 200 261 201
f 201 261 202
f 202 261 262
f 202 262 207
f 202 207 204
f 205 206 263
f 206 217 264
f 206 264 263
f 207 262 208
f 208 262 265
f 208 265 209
f 209 265 266
f 209 266 267
f 209 267 214
f 209 214 210
f 211 214 212
f 212 214 225
f 214 267 268
f 214 268 220
f 214 220 225
f 220 268 221
f 221 268 266
f 221 266 227
f 226 227 260
f 226 260 258
f 226 258 269
f 226 269 231
f 226 231 228
f 227 266 260
f 228 231 229
f 229 231 230
f 231 269 270
f 231 270 271
f 231 271 272
f 231 272 273
f 231 273 232
f 235 274 236
f 236 275 276
f 236 276 237
f 236 274 275
f 237 276 277
f 237 277 278
f 237 278 279
f 237 279 238
f 238 279 255
f 238 255 254
f 238 253 240
f 239 242 280
f 239 280 281
f 239 281 243
f 240 253 241
f 241 280 242
f 241 253 252
f 241 252 251
f 241 251 250
f 241 250 280
f 243 281 244
f 244 281 282
f 244 282 283
f 244 283 245
f 246 284 247
f 247 284 285
f 247 285 248
f 248 285 286
f 248 286 287
f 248 287 288
f 248 288 281
f 248 281 249
f 249 281 280
f 249 280 250
f 255 279 256
f 256 289 257
f 256 279 289
f 257 290 259
f 257 289 291
f 257 291 292
f 257 292 293
f 257 293 290
f 258 259 269
f 259 290 293
f 259 293 294
f 259 294 269
f 260 266 265
f 260 265 262
f 260 262 261
f 266 268 267
f 269 294 270
f 270 294 271
f 271 293 272
f 271 294 293
f 272 293 292
f 272 292 295
f 272 295 296
f 272 296 273
f 275 297 276
f 276 297 277
f 277 298 278
f 278 298 299
f 278 299 296
f 278 296 295
f 278 295 292
f 278 292 279
f 279 292 291
f 279 291 289
f 281 288 300
f 281 300 282
f 282 300 283
f 283 300 288
f 283 288 301
f 287 301 288

