# https://github.com/mikedh/trimesh
v 0.74166759 -1.18338570 0.46657887
v 0.74166759 -1.20042653 0.47836189
v 0.74166759 -1.18338570 0.56008820
v 0.76307414 -1.18338570 0.47619376
v 0.79807667 -1.31842501 0.58525658
v 0.74166759 -1.32387816 0.56621540
v 0.75420297 -1.33107310 0.57620728
v 0.74166759 -1.87736524 1.42957446
v 1.63572703 -1.18338570 1.42957446
v 0.79421961 -1.18338570 0.49023910
v 0.84185397 -1.30464087 0.59543704
v 0.82324382 -1.34644777 0.62069962
v 0.75420297 -1.36386735 0.60137565
v 0.74166759 -1.33326947 0.57300238
v 0.74166759 -1.36727549 0.59864194
v 0.74166759 -1.95704089 1.42957446
v 1.72675291 -1.18338570 1.42957446
v 0.81977245 -1.19853308 0.51229658
v 0.87434940 -1.26094052 0.58007215
v 0.85718564 -1.18338570 0.51936634
v 0.85901772 -1.18520332 0.52144027
v 0.91812665 -1.24594460 0.59025261
v 0.89189884 -1.28116230 0.60373217
v 0.88534188 -1.32955840 0.63983519
v 0.80473002 -1.38727009 0.64596219
v 0.84841092 -1.37447053 0.65840498
v 0.74774241 -1.40946114 0.63842123
v 0.74166759 -1.40279621 0.62974892
v 0.74166759 -1.95446587 1.42212770
v 0.80376575 -1.90917500 1.36029093
v 0.82334017 -1.91743026 1.40742259
v 0.82218311 -1.92500405 1.42957446
v 1.71604966 -1.19944194 1.42957446
v 1.71344611 -1.19300430 1.40987331
v 1.72000306 -1.18338570 1.41034469
v 0.86017488 -1.18338570 0.52078030
v 0.92535863 -1.18338570 0.55358402
v 0.95091142 -1.20027507 0.57743264
v 0.98919242 -1.18505186 0.58723611
v 0.95091142 -1.23306922 0.59958471
v 0.94840441 -1.27858728 0.63427357
v 0.92487649 -1.31630437 0.65114681
v 0.82555793 -1.41317221 0.68517590
v 0.76529190 -1.43097044 0.66830265
v 0.74166759 -1.41711056 0.64238030
v 0.88534188 -1.36235255 0.67075357
v 0.92439436 -1.44687531 0.78273850
v 0.92371934 -1.51185776 0.84881732
v 0.84638595 -1.43915006 0.72504919
v 0.74166759 -1.95083044 1.41204144
v 0.74166759 -1.92424675 1.34238072
v 0.75671003 -1.91803629 1.34077818
v 0.78023789 -1.89751140 1.31655257
v 0.87261376 -1.84532859 1.29572045
v 0.91629457 -1.83434666 1.31306488
v 0.93644756 -1.84555569 1.35680305
v 0.86335691 -1.90667561 1.42768932
v 0.84272179 -1.91614275 1.42957446
v 1.69406449 -1.23110004 1.42957446
v 1.70688916 -1.18338570 1.37509025
v 1.69030398 -1.22579845 1.40987331
v 0.98755323 -1.18338570 0.58535078
v 0.99025313 -1.18338570 0.58676473
v 1.02612348 -1.18338570 0.60872821
v 1.01503455 -1.21201431 0.62315053
v 0.99719577 -1.25662351 0.64643357
v 0.92478005 -1.38158984 0.71684846
v 0.96865375 -1.30032386 0.66660591
v 1.04405871 -1.43899860 0.85607549
v 0.96855740 -1.36666965 0.73164777
v 0.80260865 -1.45149524 0.71204101
v 0.80029443 -1.51564466 0.77896802
v 0.74166759 -1.45573651 0.68168801
v 0.94647588 -1.40696176 0.75719313
v 0.99989577 -1.51912853 0.90716641
v 0.92188736 -1.57600718 0.91574433
v 0.88534188 -1.52276387 0.83712851
v 0.96566461 -1.56282888 0.93026085
v 0.82334017 -1.47754882 0.75200870
v 0.74166759 -1.91000813 1.31165093
v 0.74166759 -1.90175267 1.29590885
v 0.80096941 -1.84252629 1.23492045
v 0.85554645 -1.70650220 1.04658203
v 0.79267682 -1.77315091 1.11030414
v 0.81977245 -1.71483348 1.03234830
v 0.93259060 -1.77845260 1.23265812
v 1.00018501 -1.77974011 1.29638023
v 1.04386582 -1.76641044 1.31730675
v 1.06218673 -1.77822531 1.36095071
v 0.98012846 -1.83230166 1.38253701
v 0.99382095 -1.84176879 1.42627517
v 0.95534705 -1.85418970 1.40657422
v 0.95264705 -1.86335391 1.42957446
v 0.86412828 -1.90690290 1.42957446
v 1.66243688 -1.27260402 1.42957446
v 1.65751921 -1.26919588 1.40987331
v 1.70611778 -1.18338570 1.37311071
v 1.64729810 -1.25609331 1.36198768
v 1.05244774 -1.18338570 0.62588405
v 1.06575454 -1.19535213 0.64360566
v 1.04087668 -1.23905248 0.66217546
v 1.01966298 -1.28123813 0.68621267
v 0.99835293 -1.32289357 0.71024988
v 1.04357658 -1.50451126 0.92205992
v 1.02197719 -1.47921508 0.88162085
v 1.04319089 -1.37250136 0.79141081
v 1.08205048 -1.42422987 0.87021502
v 1.11724580 -1.44460312 0.91630991
v 1.08205048 -1.45770569 0.90301875
v 0.84127539 -1.56775183 0.85899759
v 0.83780402 -1.63197688 0.92649038
v 0.79759454 -1.57933960 0.84636641
v 0.88534188 -1.55555811 0.87200597
v 0.88534188 -1.58630735 0.90480969
v 0.74166759 -1.55631551 0.79197639
v 0.75420297 -1.55972366 0.80215686
v 0.75420297 -1.58963987 0.83496058
v 0.87136026 -1.64969938 0.97004014
v 1.01947008 -1.54306148 0.94798247
v 0.99536369 -1.58138451 0.97381062
v 0.94666867 -1.59123030 0.95156435
v 0.74166759 -1.84555569 1.19768628
v 0.75150302 -1.85032717 1.21305137
v 0.75420297 -1.78148219 1.09559902
v 0.88524554 -1.67219326 1.01651202
v 0.89922726 -1.69476296 1.06581180
v 0.81977245 -1.69461150 0.99963878
v 0.75912064 -1.72952648 1.01104460
v 0.78428779 -1.70271550 0.98568783
v 0.92381579 -1.70809282 1.10954997
v 0.96749669 -1.69589901 1.12953391
v 0.99131384 -1.70922887 1.17327208
v 1.03509110 -1.69650505 1.19344441
v 1.05765475 -1.71028909 1.23718278
v 0.93895466 -1.65106271 1.03008597
v 1.12235636 -1.70998617 1.30363840
v 1.14559503 -1.71839309 1.34869632
v 1.18291178 -1.70665385 1.37358190
v 1.10596398 -1.76428981 1.39234029
v 1.08330398 -1.78542035 1.41241862
v 0.99517080 -1.84214754 1.42957446
v 1.62801292 -1.31554707 1.42957446
v 1.63129140 -1.30199012 1.40987331
v 1.67140449 -1.21193858 1.34586841
v 1.68635058 -1.18338570 1.33587654
v 1.63524490 -1.24094593 1.31824932
v 1.56793973 -1.37053218 1.39120912
v 1.58375354 -1.32365087 1.34426606
v 1.57449669 -1.31244185 1.31042537
v 1.07019007 -1.18338570 0.63785565
v 1.10577118 -1.18338570 0.66443778
v 1.08889667 -1.21943654 0.68310197
v 1.11473880 -1.31153289 0.78698036
v 1.04213018 -1.30592838 0.72674594
v 1.08851098 -1.49398381 0.94675691
v 1.11473880 -1.50822233 0.98370830
v 1.07105789 -1.52329408 0.96570389
v 1.08860743 -1.34811403 0.80225106
v 1.13845950 -1.40264475 0.89227270
v 1.18782945 -1.38355902 0.91197385
v 1.16092671 -1.42725937 0.93440852
v 1.14250935 -1.45959914 0.95401527
v 0.81745824 -1.65939380 0.94920783
v 0.74166759 -1.71203118 0.97032294
v 0.79402677 -1.64280726 0.91433037
v 0.74166759 -1.59282082 0.83222687
v 0.75420297 -1.62243401 0.87125199
v 0.91504106 -1.63674836 0.98644181
v 0.98263557 -1.63826306 1.05016392
v 0.95679344 -1.62856873 1.01151599
v 1.03904460 -1.56699443 0.99426575
v 1.01686663 -1.59509292 1.01622923
v 0.74166759 -1.77701363 1.07891437
v 0.74166759 -1.73732736 1.01208157
v 0.74166759 -1.71460619 0.97409341
v 1.06932226 -1.65280460 1.15941533
v 1.10133555 -1.69597484 1.25990023
v 1.15012701 -1.67378388 1.27611350
v 1.19718274 -1.65166855 1.29232696
v 1.16613371 -1.69536900 1.32984374
v 1.21193594 -1.67136032 1.34586841
v 1.25600243 -1.64735165 1.36198768
v 1.22582121 -1.69029460 1.40987331
v 1.19303645 -1.71347015 1.40987331
v 1.12524915 -1.76588024 1.42957446
v 1.11657088 -1.77163631 1.42957446
v 1.10876042 -1.77633196 1.42957446
v 1.08156834 -1.79238830 1.42957446
v 1.60332795 -1.34591766 1.42957446
v 1.59542105 -1.34697788 1.41175865
v 1.65163728 -1.19724558 1.29232696
v 1.65819424 -1.18338570 1.28751933
v 1.58664633 -1.27457320 1.28459722
v 1.57912511 -1.18732396 1.17232951
v 1.54470116 -1.41317221 1.42957446
v 1.54045832 -1.40938532 1.41100447
v 1.50381660 -1.43816548 1.38715586
v 1.52271599 -1.39279897 1.34426606
v 1.55550075 -1.35644512 1.34426606
v 1.57575019 -1.37939347 1.42957446
v 1.50333447 -1.23988561 1.12180417
v 1.54132624 -1.21360483 1.14706693
v 1.51153061 -1.38068098 1.30693769
v 1.51548411 -1.31978835 1.23548603
v 1.44451478 -1.24814096 1.04648764
v 1.11801727 -1.18338570 0.67452405
v 1.20827168 -1.33985867 0.88935059
v 1.10374621 -1.56631276 1.06072157
v 1.08735383 -1.54480347 1.01085621
v 1.18609381 -1.44725396 0.97805248
v 1.23980294 -1.50337522 1.12180417
v 1.19621848 -1.52071906 1.09644740
v 1.18734731 -1.57918814 1.17232951
v 1.17780122 -1.63689982 1.24858860
v 1.25513461 -1.32009127 0.91046550
v 1.23151035 -1.36379162 0.93110923
v 1.20885025 -1.40620446 0.95458085
v 0.74166759 -1.69021877 0.94364621
v 0.75420297 -1.65204730 0.90405571
v 0.74166759 -1.64704853 0.89227270
v 1.06006540 -1.58100576 1.03790972
v 1.21675716 -1.62417600 1.27375698
v 1.24086365 -1.63523366 1.31824932
v 1.31231511 -1.57449239 1.31042537
v 1.32359693 -1.58380807 1.34426606
v 1.37045977 -1.56805475 1.39120912
v 1.30190110 -1.63129531 1.40987331
v 1.26911634 -1.65750026 1.40987331
v 1.23112466 -1.69408130 1.42957446
v 1.19949696 -1.71604516 1.42957446
v 1.64112693 -1.18338570 1.26112559
v 1.57613588 -1.18338570 1.16337440
v 1.51278421 -1.44763261 1.42957446
v 1.48038513 -1.48050259 1.42957446
v 1.43815062 -1.50390533 1.38715586
v 1.45946077 -1.45952340 1.34426606
v 1.49224553 -1.42559311 1.34426606
v 1.52059467 -1.19618526 1.09644740
v 1.44721468 -1.18611218 0.97805248
v 1.44760037 -1.44763261 1.30467536
v 1.47161041 -1.40574998 1.28393744
v 1.49562046 -1.36348860 1.26319952
v 1.40469093 -1.27320996 1.02348739
v 1.42870098 -1.22981253 1.00274947
v 1.17702975 -1.18338570 0.72354104
v 1.18233320 -1.24776222 0.78537801
v 1.25445969 -1.38507372 0.97475319
v 1.22977462 -1.42877407 1.00274947
v 1.24799908 -1.44460312 1.04648764
v 1.23102822 -1.56207149 1.19768628
v 1.27451623 -1.58668610 1.28459722
v 1.25185614 -1.25192776 0.84721478
v 1.29881552 -1.29888489 0.92941248
v 1.27663755 -1.34243369 0.95203574
v 0.74166759 -1.65507670 0.90141620
v 1.31973988 -1.51556893 1.23548603
v 1.33786790 -1.53541206 1.28685955
v 1.38058454 -1.51155484 1.30693769
v 1.35638170 -1.55555811 1.34426606
v 1.39273418 -1.52276387 1.34426606
v 1.40931936 -1.54056219 1.41100447
v 1.38694860 -1.56881214 1.42957446
v 1.37923459 -1.57577990 1.42957446
v 1.37267764 -1.58123305 1.42957446
v 1.34587125 -1.60327255 1.42957446
v 1.34683551 -1.59547157 1.41175865
v 1.31549714 -1.62803862 1.42957446
v 1.29505491 -1.64447351 1.42957446
v 1.27249126 -1.66242320 1.42957446
v 1.52705517 -1.18338570 1.09145136
v 1.44760037 -1.51284235 1.42957446
v 1.42551895 -1.49231755 1.34426606
v 1.51018076 -1.18338570 1.06675437
v 1.47546747 -1.18338570 1.01604064
v 1.38502007 -1.25457861 0.97475319
v 1.40613733 -1.20883335 0.95458085
v 1.38347723 -1.18785417 0.91197385
v 1.41732271 -1.18338570 0.94392901
v 1.44499691 -1.18338570 0.97333924
v 1.44798615 -1.18338570 0.97654433
v 1.40565519 -1.47164129 1.28393744
v 1.37624535 -1.37628825 1.11567716
v 1.43602930 -1.36992634 1.18948534
v 1.36477073 -1.29827896 1.00048715
v 1.18339391 -1.18338570 0.72910266
v 1.32108983 -1.32115159 0.97305645
v 1.29823694 -1.36485194 1.00048715
v 1.36342078 -1.49564997 1.26319952
v 1.31993277 -1.25518445 0.91046550
v 1.36371002 -1.23155452 0.93110923
v 1.34239988 -1.27669384 0.95203574
v 1.41307997 -1.54472774 1.42957446
v 1.33969998 -1.20830314 0.88935059
v 1.31491856 -1.18338570 0.84646060
v 1.37971672 -1.18338570 0.90499828
v 1.38521296 -1.18338570 0.91018271
v 1.36988129 -1.43604484 1.18948534
v 1.24877055 -1.18338570 0.78726315
f 1 2 6
f 1 6 14
f 1 14 15
f 1 15 28
f 1 28 45
f 1 45 73
f 1 73 115
f 1 115 166
f 1 166 220
f 1 220 255
f 1 255 218
f 1 218 164
f 1 164 175
f 1 175 174
f 1 174 173
f 1 173 122
f 1 122 81
f 1 81 80
f 1 80 51
f 1 51 50
f 1 50 29
f 1 29 16
f 1 16 8
f 1 8 3
f 1 3 9
f 1 9 17
f 1 17 35
f 1 35 60
f 1 60 97
f 1 97 145
f 1 145 192
f 1 192 231
f 1 231 232
f 1 232 270
f 1 270 273
f 1 273 274
f 1 274 280
f 1 280 279
f 1 279 278
f 1 278 296
f 1 296 295
f 1 295 294
f 1 294 298
f 1 298 285
f 1 285 245
f 1 245 206
f 1 206 151
f 1 151 150
f 1 150 99
f 1 99 64
f 1 64 63
f 1 63 62
f 1 62 37
f 1 37 36
f 1 36 20
f 1 20 10
f 1 10 4
f 1 4 5
f 1 5 2
f 2 5 7
f 2 7 6
f 3 8 9
f 4 10 11
f 4 11 5
f 5 11 12
f 5 12 13
f 5 13 7
f 6 7 14
f 7 13 15
f 7 15 14
f 8 16 32
f 8 32 58
f 8 58 94
f 8 94 93
f 8 93 141
f 8 141 188
f 8 188 187
f 8 187 186
f 8 186 185
f 8 185 230
f 8 230 229
f 8 229 269
f 8 269 268
f 8 268 267
f 8 267 265
f 8 265 264
f 8 264 263
f 8 263 262
f 8 262 292
f 8 292 271
f 8 271 234
f 8 234 233
f 8 233 195
f 8 195 200
f 8 200 189
f 8 189 142
f 8 142 95
f 8 95 59
f 8 59 33
f 8 33 17
f 8 17 9
f 10 18 19
f 10 19 11
f 10 20 21
f 10 21 18
f 11 19 22
f 11 22 23
f 11 23 24
f 11 24 12
f 12 25 13
f 12 24 26
f 12 26 25
f 13 25 27
f 13 27 28
f 13 28 15
f 16 29 30
f 16 30 31
f 16 31 32
f 17 33 34
f 17 34 35
f 18 21 19
f 19 21 22
f 20 36 21
f 21 36 22
f 22 37 38
f 22 38 39
f 22 39 40
f 22 40 41
f 22 41 42
f 22 42 23
f 22 36 37
f 23 42 24
f 24 42 26
f 25 26 43
f 25 43 44
f 25 44 45
f 25 45 27
f 26 42 46
f 26 46 47
f 26 47 48
f 26 48 49
f 26 49 43
f 27 45 28
f 29 50 30
f 30 50 51
f 30 51 52
f 30 52 53
f 30 53 54
f 30 54 55
f 30 55 56
f 30 56 57
f 30 57 31
f 31 57 32
f 32 57 58
f 33 59 34
f 34 60 35
f 34 59 61
f 34 61 60
f 37 62 39
f 37 39 38
f 39 62 63
f 39 63 64
f 39 64 65
f 39 65 40
f 40 65 66
f 40 66 41
f 41 66 42
f 42 67 46
f 42 66 68
f 42 68 69
f 42 69 70
f 42 70 67
f 43 49 71
f 43 71 44
f 44 71 72
f 44 72 73
f 44 73 45
f 46 67 47
f 47 67 74
f 47 74 105
f 47 105 75
f 47 75 48
f 48 76 77
f 48 77 49
f 48 75 78
f 48 78 76
f 49 79 71
f 49 77 79
f 51 80 52
f 52 80 53
f 53 80 81
f 53 81 82
f 53 82 54
f 54 83 55
f 54 82 84
f 54 84 85
f 54 85 83
f 55 83 86
f 55 86 87
f 55 87 88
f 55 88 56
f 56 88 89
f 56 89 90
f 56 90 91
f 56 91 92
f 56 92 57
f 57 92 93
f 57 93 94
f 57 94 58
f 59 95 96
f 59 96 61
f 60 61 97
f 61 96 98
f 61 98 97
f 64 99 65
f 65 99 100
f 65 100 66
f 66 100 101
f 66 101 102
f 66 102 68
f 67 70 74
f 68 102 103
f 68 103 69
f 69 104 105
f 69 105 74
f 69 74 70
f 69 103 106
f 69 106 107
f 69 107 108
f 69 108 109
f 69 109 104
f 71 79 72
f 72 110 111
f 72 111 112
f 72 112 73
f 72 79 113
f 72 113 114
f 72 114 110
f 73 112 116
f 73 116 117
f 73 117 115
f 75 105 104
f 75 104 78
f 76 118 111
f 76 111 114
f 76 114 113
f 76 113 77
f 76 78 118
f 77 113 79
f 78 104 119
f 78 119 120
f 78 120 121
f 78 121 118
f 81 122 123
f 81 123 82
f 82 123 122
f 82 122 124
f 82 124 84
f 83 118 125
f 83 125 126
f 83 126 86
f 83 85 127
f 83 127 118
f 84 124 128
f 84 128 85
f 85 128 129
f 85 129 127
f 86 126 130
f 86 130 87
f 87 131 132
f 87 132 133
f 87 133 134
f 87 134 88
f 87 130 135
f 87 135 131
f 88 134 136
f 88 136 89
f 89 91 90
f 89 136 137
f 89 137 138
f 89 138 139
f 89 139 140
f 89 140 91
f 91 140 141
f 91 141 93
f 91 93 92
f 95 142 143
f 95 143 96
f 96 143 98
f 97 98 144
f 97 144 145
f 98 146 144
f 98 143 147
f 98 147 148
f 98 148 149
f 98 149 146
f 99 150 100
f 100 150 151
f 100 151 101
f 101 151 152
f 101 152 153
f 101 153 102
f 102 153 154
f 102 154 106
f 102 106 103
f 104 109 108
f 104 108 155
f 104 155 156
f 104 156 157
f 104 157 119
f 106 154 107
f 107 158 108
f 107 154 158
f 108 156 155
f 108 158 153
f 108 153 159
f 108 159 160
f 108 160 161
f 108 161 162
f 108 162 156
f 110 114 111
f 111 163 164
f 111 164 165
f 111 165 112
f 111 118 163
f 112 165 117
f 112 117 116
f 115 117 166
f 117 165 167
f 117 167 166
f 118 121 120
f 118 120 168
f 118 168 125
f 118 127 129
f 118 129 164
f 118 164 163
f 119 157 120
f 120 169 170
f 120 170 168
f 120 157 156
f 120 156 171
f 120 171 172
f 120 172 169
f 122 173 124
f 124 173 128
f 125 168 135
f 125 135 126
f 126 135 130
f 128 173 174
f 128 174 175
f 128 175 129
f 129 175 164
f 131 135 132
f 132 135 133
f 133 135 169
f 133 169 134
f 134 169 172
f 134 172 171
f 134 171 176
f 134 176 177
f 134 177 136
f 135 168 170
f 135 170 169
f 136 177 178
f 136 178 179
f 136 179 180
f 136 180 137
f 137 180 138
f 138 180 181
f 138 181 182
f 138 182 183
f 138 183 184
f 138 184 185
f 138 185 186
f 138 186 139
f 139 186 140
f 140 186 187
f 140 187 188
f 140 188 141
f 142 189 143
f 143 189 190
f 143 190 147
f 144 146 145
f 145 146 191
f 145 191 192
f 146 193 194
f 146 194 191
f 146 149 193
f 147 195 196
f 147 196 197
f 147 197 198
f 147 198 199
f 147 199 148
f 147 190 189
f 147 189 200
f 147 200 195
f 148 199 149
f 149 201 202
f 149 202 194
f 149 194 193
f 149 199 203
f 149 203 204
f 149 204 205
f 149 205 201
f 151 206 207
f 151 207 153
f 151 153 152
f 153 207 160
f 153 160 159
f 153 158 154
f 156 208 209
f 156 209 171
f 156 162 210
f 156 210 211
f 156 211 212
f 156 212 213
f 156 213 179
f 156 179 214
f 156 214 208
f 160 207 215
f 160 215 216
f 160 216 217
f 160 217 161
f 161 217 210
f 161 210 162
f 164 218 165
f 165 219 167
f 165 218 219
f 166 167 220
f 167 219 220
f 171 221 177
f 171 177 176
f 171 209 208
f 171 208 221
f 177 221 178
f 178 208 214
f 178 214 179
f 178 221 208
f 179 222 223
f 179 223 180
f 179 213 222
f 180 223 181
f 181 223 182
f 182 223 224
f 182 224 225
f 182 225 226
f 182 226 227
f 182 227 228
f 182 228 183
f 183 228 229
f 183 229 184
f 184 229 230
f 184 230 185
f 191 231 192
f 191 194 232
f 191 232 231
f 194 202 232
f 195 233 196
f 196 233 197
f 197 233 234
f 197 234 235
f 197 235 236
f 197 236 237
f 197 237 198
f 198 237 203
f 198 203 199
f 201 238 202
f 201 205 239
f 201 239 238
f 202 238 232
f 203 237 240
f 203 240 241
f 203 241 242
f 203 242 205
f 203 205 204
f 205 243 244
f 205 244 239
f 205 242 243
f 206 245 246
f 206 246 207
f 207 246 215
f 210 217 247
f 210 247 248
f 210 248 249
f 210 249 211
f 211 249 224
f 211 224 212
f 212 224 250
f 212 250 213
f 213 250 251
f 213 251 223
f 213 223 222
f 215 252 253
f 215 253 216
f 215 246 245
f 215 245 252
f 216 253 254
f 216 254 247
f 216 247 217
f 218 255 219
f 219 255 220
f 223 251 224
f 224 256 257
f 224 257 258
f 224 258 259
f 224 259 225
f 224 251 250
f 224 249 256
f 225 259 226
f 226 260 235
f 226 235 261
f 226 261 262
f 226 262 263
f 226 263 264
f 226 264 265
f 226 265 266
f 226 266 227
f 226 259 260
f 227 267 268
f 227 268 228
f 227 266 267
f 228 268 269
f 228 269 229
f 232 238 270
f 234 271 235
f 235 271 261
f 235 260 272
f 235 272 236
f 236 272 240
f 236 240 237
f 238 273 270
f 238 239 274
f 238 274 273
f 239 244 275
f 239 275 276
f 239 276 277
f 239 277 278
f 239 278 279
f 239 279 280
f 239 280 274
f 240 272 258
f 240 258 281
f 240 281 282
f 240 282 241
f 241 282 283
f 241 283 242
f 242 283 284
f 242 284 243
f 243 284 244
f 244 284 275
f 245 285 252
f 247 254 286
f 247 286 287
f 247 287 248
f 248 287 249
f 249 287 288
f 249 288 256
f 252 289 253
f 252 285 289
f 253 289 290
f 253 290 291
f 253 291 286
f 253 286 254
f 256 288 258
f 256 258 257
f 258 260 259
f 258 288 281
f 258 272 260
f 261 271 292
f 261 292 262
f 265 267 266
f 275 284 286
f 275 286 291
f 275 291 290
f 275 290 276
f 276 290 277
f 277 290 289
f 277 289 293
f 277 293 294
f 277 294 295
f 277 295 296
f 277 296 278
f 281 288 297
f 281 297 282
f 282 284 283
f 282 297 287
f 282 287 286
f 282 286 284
f 285 298 289
f 287 297 288
f 289 298 294
f 289 294 293

