# https://github.com/mikedh/trimesh
v 0.54281452 -0.87889613 6.52462230
v 0.55479335 -0.87166660 6.52462230
v 0.54474813 -0.86529775 6.56905816
v 0.54281452 -0.86693293 6.56732389
v 0.54281452 -0.68929283 4.35984906
v 0.58757020 -0.84928949 6.52462230
v 0.66071680 -0.79102278 6.56233841
v 0.86530088 -0.54470201 6.56905816
v 1.00069988 -0.16394618 6.57426018
v 0.54281452 -0.86598626 6.56905816
v 0.62298808 -0.80444908 6.56797429
v 0.68495750 -0.75143247 6.56819083
v 0.75150156 -0.68490346 6.56819083
v 0.54281452 -0.59565305 4.35984906
v 0.55389730 -0.68051405 4.35984906
v 0.66316918 -0.79308835 6.52462230
v 0.69599318 -0.76391200 6.52462230
v 0.73117522 -0.73112089 6.52462230
v 0.72792112 -0.72785037 6.56407268
v 0.92976983 -0.42627524 6.56949163
v 0.80446330 -0.62293595 6.56797429
v 0.79106959 -0.66063286 6.56233841
v 0.92095075 -0.46448853 6.56147147
v 1.00239769 -0.09844998 6.57295977
v 1.00282208 0.00035373 6.57122551
v 0.96598942 -0.16394618 6.57426018
v 0.99555932 -0.22952846 6.57122551
v 1.01777217 -0.16394618 6.52462230
v 1.02215806 -0.09844998 6.52462230
v 1.02461045 -0.03286773 6.52462230
v 0.97103568 0.00035373 6.57122551
v 0.54281452 -0.82639595 6.56797429
v 0.81469722 0.00035373 4.35984906
v 0.54281452 -0.59565305 6.33972682
v 0.81158457 0.00035373 6.39348324
v 0.55465191 -0.67991163 4.35984906
v 0.58742876 -0.65245660 4.35984906
v 0.76395207 -0.69591989 6.52462230
v 0.65255798 -0.58739070 4.35984906
v 0.98909832 -0.28116803 6.56472269
v 0.79314469 -0.66312878 6.52462230
v 0.84931333 -0.58747679 6.52462230
v 0.87171477 -0.55468567 6.52462230
v 0.90449162 -0.49994769 6.52462230
v 0.92236558 -0.46715657 6.52462230
v 0.94151287 -0.42627524 6.52462230
v 0.96627240 -0.36069298 6.52462230
v 1.02461045 0.00035373 6.52462230
v 1.01381056 0.00035373 6.54781563
v 1.00749105 -0.22952846 6.52462230
v 0.86369735 -0.16394618 4.35984906
v 0.87369548 -0.09844998 4.35984906
v 0.87378987 -0.09741720 4.35984906
v 0.87869454 -0.03286773 4.35984906
v 0.83794757 0.00035373 6.50077876
v 0.54281452 -0.63076795 6.50077876
v 0.87869454 0.00035373 4.35984906
v 0.54281452 -0.59582517 6.39348324
v 0.54281452 -0.59677190 6.40410421
v 0.54281452 -0.60219407 6.45916104
v 0.81597056 0.00035373 6.45916104
v 0.68000563 -0.55459958 4.35984906
v 0.97994906 -0.32342641 6.52462230
v 0.99188079 -0.29063527 6.52462230
v 0.71268814 -0.51363221 4.35984906
v 0.73556121 -0.48092713 4.35984906
v 0.76767779 -0.42627524 4.35984906
v 0.78611767 -0.39305378 4.35984906
v 0.92095075 -0.46448853 6.48538885
v 0.80149214 -0.36034870 4.35984906
v 0.80191657 -0.35931591 4.35984906
v 0.85492547 -0.20568817 4.35984906
v 0.82705338 0.00035373 6.48018683
v 0.54281452 -0.60314079 6.46154551
f 1 2 3
f 1 3 4
f 1 4 10
f 1 10 32
f 1 32 56
f 1 56 74
f 1 74 60
f 1 60 59
f 1 59 58
f 1 58 34
f 1 34 14
f 1 14 5
f 1 5 2
f 2 6 7
f 2 7 3
f 2 5 6
f 3 8 9
f 3 9 10
f 3 10 4
f 3 7 11
f 3 11 12
f 3 12 13
f 3 13 8
f 5 14 33
f 5 33 57
f 5 57 54
f 5 54 53
f 5 53 52
f 5 52 51
f 5 51 72
f 5 72 71
f 5 71 70
f 5 70 68
f 5 68 67
f 5 67 66
f 5 66 65
f 5 65 62
f 5 62 39
f 5 39 37
f 5 37 36
f 5 36 15
f 5 15 16
f 5 16 6
f 6 16 7
f 7 16 17
f 7 17 18
f 7 18 19
f 7 19 12
f 7 12 11
f 8 20 9
f 8 13 21
f 8 21 22
f 8 22 23
f 8 23 20
f 9 24 25
f 9 25 31
f 9 31 26
f 9 26 10
f 9 20 27
f 9 27 28
f 9 28 29
f 9 29 30
f 9 30 24
f 10 26 31
f 10 31 32
f 12 19 13
f 13 19 22
f 13 22 21
f 14 34 35
f 14 35 33
f 15 36 16
f 16 36 37
f 16 37 17
f 17 37 18
f 18 38 22
f 18 22 19
f 18 37 39
f 18 39 38
f 20 23 40
f 20 40 27
f 22 38 41
f 22 41 42
f 22 42 43
f 22 43 23
f 23 43 44
f 23 44 45
f 23 45 46
f 23 46 47
f 23 47 40
f 24 30 48
f 24 48 49
f 24 49 25
f 25 49 48
f 25 48 57
f 25 57 33
f 25 33 35
f 25 35 61
f 25 61 73
f 25 73 55
f 25 55 31
f 27 40 50
f 27 50 28
f 28 50 51
f 28 51 52
f 28 52 53
f 28 53 54
f 28 54 29
f 29 54 30
f 30 54 57
f 30 57 48
f 31 55 32
f 32 55 56
f 34 58 35
f 35 58 59
f 35 59 60
f 35 60 61
f 38 39 41
f 39 62 41
f 40 47 63
f 40 63 64
f 40 64 50
f 41 62 65
f 41 65 42
f 42 65 66
f 42 66 43
f 43 66 44
f 44 66 67
f 44 67 68
f 44 68 69
f 44 69 45
f 45 69 46
f 46 69 70
f 46 70 71
f 46 71 47
f 47 71 63
f 50 64 72
f 50 72 51
f 55 73 56
f 56 73 61
f 56 61 74
f 60 74 61
f 63 71 64
f 64 71 72
f 68 70 69

