# https://github.com/mikedh/trimesh
v 0.51724957 11.24595475 2.92937911
v 0.51724957 11.24595475 2.24018787
v 0.17259207 11.22740957 2.92937911
v 0.17259207 11.22541291 2.98066183
v 0.46571548 11.24110482 2.98066183
v 0.51724957 11.24367255 2.98066183
v 0.86190720 11.21856529 2.98066183
v 0.86190720 11.22056297 2.92937911
v 0.51724957 11.21200319 1.96740757
v 0.44524797 11.20829437 1.96740757
v 0.17259207 11.19402907 1.96740757
v 0.17259207 11.22740957 2.24018787
v 0.86190720 11.22056297 2.24018787
v 0.78990560 11.19203240 1.96740757
v -0.03317919 11.21457093 2.92937911
v 0.12105785 11.22227411 2.98066183
v 1.20656483 11.15323091 2.98066183
v 1.20656483 11.15522759 2.92937911
v -0.03317919 11.18119043 1.96740757
v -0.03317919 11.21457093 2.24018787
v 1.20656483 11.15522759 2.24018787
v 1.77307516 11.03768201 2.02622914
v 0.86190720 11.18661141 1.96740757
v -0.03317919 11.21257425 2.98066183
v 1.49968824 11.09731087 2.98066183
v 2.92912182 10.82655704 2.92937911
v -0.03317919 9.17407136 1.96740757
v 2.92912182 10.82655704 2.24018787
v 1.83009175 11.01200470 1.96740757
v 1.65282885 11.04567073 1.96740757
v 3.27377958 10.75865390 2.24018787
v 3.47662671 10.69702838 2.01075497
v 3.39621874 10.70501710 1.96740757
v -0.03317919 9.66479550 2.98066183
v 2.92912182 10.82455934 2.98066183
v 3.27377958 10.75865390 2.92937911
v 3.70067251 8.33128053 1.96740757
v 3.49197737 10.70359046 2.24018787
v 3.66448908 10.62398978 2.24018787
v 3.70067251 10.60687226 2.24018787
v 3.70067251 10.60145128 2.19961875
v 3.70067251 10.57006744 1.96740757
v 3.52414051 10.66307680 1.96740757
v 3.70067251 8.89960766 2.98066183
v 3.27377958 10.75665724 2.98066183
v 3.48978428 10.70273489 2.98066183
v 3.49197737 10.70359046 2.92937911
v 3.66448908 10.62398978 2.92937911
v 3.70067251 10.60687226 2.92937911
v 3.70067251 10.60487458 2.98066183
v 3.70067251 10.60516010 2.97411514
f 1 2 12
f 1 12 3
f 1 3 4
f 1 4 5
f 1 5 6
f 1 6 7
f 1 7 8
f 1 8 13
f 1 13 2
f 2 9 10
f 2 10 11
f 2 11 12
f 2 13 14
f 2 14 9
f 3 12 20
f 3 20 15
f 3 15 16
f 3 16 4
f 4 16 24
f 4 24 34
f 4 34 44
f 4 44 50
f 4 50 46
f 4 46 45
f 4 45 35
f 4 35 25
f 4 25 17
f 4 17 7
f 4 7 6
f 4 6 5
f 7 17 18
f 7 18 8
f 8 18 21
f 8 21 13
f 9 14 23
f 9 23 30
f 9 30 29
f 9 29 33
f 9 33 43
f 9 43 42
f 9 42 37
f 9 37 27
f 9 27 19
f 9 19 11
f 9 11 10
f 11 19 20
f 11 20 12
f 13 21 22
f 13 22 23
f 13 23 14
f 15 20 19
f 15 19 27
f 15 27 34
f 15 34 24
f 15 24 16
f 17 25 18
f 18 25 26
f 18 26 28
f 18 28 21
f 21 28 22
f 22 29 30
f 22 30 23
f 22 28 31
f 22 31 32
f 22 32 33
f 22 33 29
f 25 35 26
f 26 35 45
f 26 45 36
f 26 36 31
f 26 31 28
f 27 37 34
f 31 36 47
f 31 47 38
f 31 38 32
f 32 38 39
f 32 39 40
f 32 40 41
f 32 41 42
f 32 42 43
f 32 43 33
f 34 37 44
f 36 45 46
f 36 46 47
f 37 42 41
f 37 41 40
f 37 40 49
f 37 49 51
f 37 51 50
f 37 50 44
f 38 47 48
f 38 48 39
f 39 48 49
f 39 49 40
f 46 50 48
f 46 48 47
f 48 50 51
f 48 51 49

