# https://github.com/mikedh/trimesh
v 3.82036419 4.87746193 15.10366556
v 3.82036419 4.87746193 16.38272976
v 3.34282072 4.87746193 16.01540870
v -0.03317932 5.80485694 16.38272976
v -0.03317932 9.66464041 2.98076043
v 3.82036419 8.84319770 2.98076043
v 3.82036419 5.87590757 16.38272976
v 3.16779675 4.87746193 16.38272976
v 3.15384011 4.87746193 16.38141816
v -0.03317932 6.99588647 16.38272976
v -0.03317932 11.21216855 2.98076043
v 3.82036419 10.54840709 2.98076043
v 3.81621500 5.87902377 16.38272976
v 3.82036419 6.20373643 15.54969836
v 0.17239834 7.00835127 16.38272976
v 0.17239834 7.01271435 16.36961122
v 0.17239834 7.61165654 14.56186720
v -0.03317932 10.46925423 5.89309186
v -0.03317932 11.20655857 3.13556069
v 0.12109829 11.22213956 2.98076043
v 3.66193752 10.62257446 2.98076043
v 3.82036419 10.54404503 3.08702134
v 3.64420863 5.97687384 16.38272976
v 3.80942515 6.21557829 15.53920353
v 3.82036419 6.22181068 15.50247111
v 0.50094538 6.99588647 16.38272976
v 0.51716535 7.26263723 15.58249495
v 0.51716535 7.89461173 13.68816782
v 0.51716535 10.44868774 6.03214885
v 0.51716535 10.70982902 5.24896738
v 0.17239834 7.69766524 14.30211865
v 0.17239834 10.01552902 7.30203033
v 0.17239834 10.70234974 5.22666612
v -0.03317932 10.66183916 5.31062578
v -0.03317932 11.20094962 3.27461666
v 0.17239834 11.21403786 3.27461666
v 0.17239834 11.22525576 2.98076043
v 3.51520404 10.69050838 2.98076043
v 3.47635171 10.69674078 3.27461666
v 3.64873528 10.61634206 3.27461666
v 3.82036419 10.53594230 3.27461666
v 3.29152055 6.15512312 16.38272976
v 3.72643969 6.17132756 15.77009079
v 3.82036419 6.56272828 14.58023315
v 3.82036419 6.57581652 14.54481285
v 0.51716535 6.99526303 16.38272976
v 0.51716535 7.11492698 16.02459193
v 0.78799970 10.70234974 5.22666612
v 0.51716535 10.79022877 4.99840205
v 0.17239834 10.77464676 4.99840205
v -0.03317932 10.76218196 4.99840205
v -0.03317932 10.69549390 5.20830068
v -0.03317932 11.16542455 3.48057947
v 0.17239834 11.15420562 3.61963647
v 0.51716535 11.23211161 3.27461666
v 0.51716535 11.24395398 2.98076043
v 3.48955395 10.70234974 2.98076043
v 3.27379191 10.74473065 3.27461666
v 3.45598267 10.68739219 3.46221301
v 3.27379191 10.75657301 2.98076043
v 3.82036419 10.51350546 3.39662084
v 3.14478706 6.22430395 16.38272976
v 3.61440960 6.26419159 15.66514199
v 3.61855854 6.38260917 15.33586493
v 3.74944938 6.52907253 14.76520528
v 3.82036419 7.16167098 12.93909531
v 3.82036419 6.87310633 13.73014739
v 0.84986159 6.94104026 16.38272976
v 0.73783125 7.24705573 15.53526771
v 1.55636974 10.28913510 6.02034140
v 1.01771858 10.68053635 5.16107293
v 0.88645066 10.74784684 5.02595072
v 0.86193224 10.86314822 4.65338327
v 0.70614584 11.03142599 4.14831681
v 0.85325645 6.94041733 16.38272976
v 0.51716535 10.89119400 4.65338327
v 0.17239834 10.87499059 4.65338327
v -0.03317932 10.86190134 4.65338327
v -0.03317932 11.14111740 3.61963647
v -0.03317932 11.03391874 4.01844202
v 0.17239834 11.02145396 4.11158388
v 0.36930027 11.02706290 4.13257354
v 0.51716535 11.17165695 3.61963647
v 0.86193224 11.20718202 3.27461666
v 0.86193224 11.21840094 2.98076043
v 2.92902476 10.81266459 3.27461666
v 3.48238716 10.35582319 4.53793913
v 3.58989085 10.58580249 3.59471099
v 3.82036419 10.47486420 3.60258263
v 1.72573558 11.02830877 3.44909499
v 3.27379191 10.70733627 3.53436624
v 3.16062996 10.35519973 4.87902312
v 3.39034865 10.32154500 4.76751479
v 2.92902476 10.82450696 2.98076043
v 2.67969118 7.20155862 14.30211865
v 2.47449073 6.57768635 16.27778096
v 2.96712270 6.30781940 16.38272976
v 3.82036419 8.60013014 8.99301810
v 3.82036419 9.89461870 5.44181114
v 2.22591154 10.03921275 6.38372767
v 2.92902476 10.13893314 5.68712905
v 1.88303066 6.74409378 16.38272976
v 2.76833489 10.34086564 5.17681517
v 2.99805358 10.31905225 5.10859878
v 2.90148893 10.37327450 4.99577886
v 1.43792687 10.69487147 4.86196928
v 1.66764568 10.67305707 4.78719285
v 0.93624192 11.00961157 4.06829297
v 0.86193224 11.14610393 3.61963647
v 0.59901909 11.03142599 4.14831681
v -0.03317932 10.89992018 4.51432525
v 1.20632193 11.14174084 3.27461666
v 1.15502175 11.16293180 2.98076043
v 2.58463508 10.87872921 3.27461666
v 3.82036419 10.32715395 4.10108905
v 3.61855854 10.14703483 4.99840205
v 3.60573375 10.26358311 4.65338327
v 1.55108881 11.04513664 3.50944077
v 2.23986819 10.88371574 3.61963647
v 2.95165725 10.74036859 3.64587354
v 3.08141650 10.67928945 3.77705993
v 2.92902476 10.46863180 4.65338327
v 3.15157666 10.01178939 5.91276889
v 3.27492325 10.28290272 4.99577886
v 3.48125530 10.01054352 5.55987848
v 3.13950627 9.66588628 6.94126828
v 1.55108881 11.08751858 2.98076043
v 2.43111200 7.24643280 14.49889771
v 3.24851876 9.20281248 8.07733915
v 3.11687378 9.31188043 7.94746539
v 2.43299800 6.55836520 16.38272976
v 2.58727573 6.48606868 16.38272976
v 3.82036419 9.98187429 5.20174065
v 3.79999516 9.99870115 5.18206258
v 3.36922521 9.61353333 6.79433965
v 2.76343104 9.99558494 6.20793775
v 2.75324665 9.30440217 8.27018291
v 2.74834280 8.95849804 9.30130549
v 2.99314998 9.97314811 6.14234456
v 2.90148893 10.26981551 5.31193635
v 1.89623290 6.74097758 16.38272976
v 2.05616863 6.89055714 15.84617881
v 2.23986819 7.72259535 13.26837236
v 2.58463508 10.53469643 4.65338327
v 1.21197992 10.98717474 3.95809727
v 1.21197992 11.07567621 3.63406712
v 3.82036419 10.22431736 4.44610886
v 3.82036419 10.05230099 4.99840205
v 3.60497935 10.04170550 5.31456057
v 3.82036419 10.16012307 4.66125388
v 2.92902476 10.56336566 4.30836346
v 2.85169755 10.70172630 3.85708274
v 2.98786893 9.62537467 7.17084394
v 2.74230760 8.61259494 10.32980437
v 2.45148129 7.59856830 13.48876505
v 2.25948308 6.63128567 16.38272976
v 2.40697071 6.89118058 15.50247111
v 3.82036419 10.00805077 5.12696525
v 2.22855194 6.64063427 16.38272976
f 1 2 8
f 1 8 9
f 1 9 3
f 1 3 4
f 1 4 5
f 1 5 6
f 1 6 12
f 1 12 22
f 1 22 41
f 1 41 61
f 1 61 89
f 1 89 115
f 1 115 147
f 1 147 150
f 1 150 148
f 1 148 158
f 1 158 133
f 1 133 99
f 1 99 98
f 1 98 66
f 1 66 67
f 1 67 45
f 1 45 44
f 1 44 25
f 1 25 14
f 1 14 7
f 1 7 2
f 2 7 13
f 2 13 23
f 2 23 42
f 2 42 62
f 2 62 97
f 2 97 132
f 2 132 131
f 2 131 156
f 2 156 159
f 2 159 141
f 2 141 102
f 2 102 75
f 2 75 68
f 2 68 46
f 2 46 26
f 2 26 15
f 2 15 10
f 2 10 4
f 2 4 8
f 3 9 4
f 4 9 8
f 4 10 18
f 4 18 34
f 4 34 52
f 4 52 51
f 4 51 78
f 4 78 111
f 4 111 80
f 4 80 79
f 4 79 53
f 4 53 35
f 4 35 19
f 4 19 11
f 4 11 5
f 5 11 20
f 5 20 37
f 5 37 56
f 5 56 85
f 5 85 113
f 5 113 127
f 5 127 94
f 5 94 60
f 5 60 57
f 5 57 38
f 5 38 21
f 5 21 12
f 5 12 6
f 7 14 13
f 10 15 16
f 10 16 17
f 10 17 18
f 11 19 20
f 12 21 22
f 13 14 24
f 13 24 23
f 14 25 24
f 15 26 27
f 15 27 28
f 15 28 29
f 15 29 30
f 15 30 16
f 16 30 17
f 17 31 18
f 17 30 31
f 18 32 33
f 18 33 34
f 18 31 32
f 19 35 36
f 19 36 20
f 20 36 37
f 21 38 39
f 21 39 40
f 21 40 22
f 22 40 41
f 23 24 43
f 23 43 42
f 24 25 44
f 24 44 45
f 24 45 43
f 26 46 47
f 26 47 27
f 27 47 48
f 27 48 28
f 28 48 29
f 29 48 30
f 30 48 49
f 30 49 33
f 30 33 32
f 30 32 31
f 33 49 50
f 33 50 51
f 33 51 52
f 33 52 34
f 35 53 36
f 36 53 54
f 36 54 55
f 36 55 56
f 36 56 37
f 38 57 39
f 39 58 59
f 39 59 40
f 39 57 60
f 39 60 58
f 40 59 41
f 41 59 61
f 42 43 63
f 42 63 64
f 42 64 65
f 42 65 66
f 42 66 62
f 43 45 63
f 45 67 65
f 45 65 63
f 46 68 69
f 46 69 48
f 46 48 47
f 48 70 71
f 48 71 72
f 48 72 73
f 48 73 74
f 48 74 49
f 48 69 75
f 48 75 70
f 49 76 50
f 49 74 76
f 50 76 77
f 50 77 51
f 51 77 78
f 53 79 54
f 54 79 80
f 54 80 81
f 54 81 82
f 54 82 83
f 54 83 55
f 55 84 56
f 55 83 84
f 56 84 85
f 58 86 59
f 58 60 94
f 58 94 86
f 59 87 88
f 59 88 89
f 59 89 61
f 59 86 90
f 59 90 91
f 59 91 92
f 59 92 93
f 59 93 87
f 62 95 96
f 62 96 97
f 62 66 98
f 62 98 99
f 62 99 95
f 63 65 64
f 65 67 66
f 68 75 69
f 70 100 101
f 70 101 71
f 70 75 102
f 70 102 100
f 71 103 104
f 71 104 105
f 71 105 106
f 71 106 72
f 71 101 103
f 72 106 73
f 73 106 107
f 73 107 108
f 73 108 74
f 74 108 109
f 74 109 83
f 74 83 110
f 74 110 76
f 76 110 82
f 76 82 77
f 77 82 81
f 77 81 111
f 77 111 78
f 80 111 81
f 82 110 83
f 83 109 84
f 84 90 112
f 84 112 113
f 84 113 85
f 84 109 90
f 86 114 90
f 86 94 114
f 87 115 88
f 87 93 116
f 87 116 117
f 87 117 115
f 88 115 89
f 90 114 112
f 90 109 118
f 90 118 119
f 90 119 120
f 90 120 91
f 91 120 121
f 91 121 122
f 91 122 92
f 92 122 105
f 92 105 104
f 92 104 123
f 92 123 124
f 92 124 93
f 93 125 116
f 93 124 126
f 93 126 125
f 94 127 114
f 95 128 96
f 95 99 129
f 95 129 130
f 95 130 128
f 96 131 132
f 96 132 97
f 96 128 131
f 99 133 134
f 99 134 125
f 99 125 135
f 99 135 130
f 99 130 129
f 100 136 101
f 100 102 136
f 101 136 137
f 101 137 138
f 101 138 139
f 101 139 104
f 101 104 140
f 101 140 103
f 102 141 142
f 102 142 138
f 102 138 143
f 102 143 137
f 102 137 136
f 103 140 104
f 104 139 123
f 105 122 107
f 105 107 106
f 107 122 144
f 107 144 119
f 107 119 145
f 107 145 108
f 108 145 118
f 108 118 146
f 108 146 109
f 109 146 118
f 112 114 127
f 112 127 113
f 115 117 147
f 116 148 117
f 116 125 149
f 116 149 134
f 116 134 148
f 117 148 150
f 117 150 147
f 118 145 119
f 119 151 152
f 119 152 120
f 119 144 151
f 120 152 151
f 120 151 121
f 121 151 122
f 122 151 144
f 123 139 126
f 123 126 124
f 125 134 149
f 125 126 130
f 125 130 135
f 126 139 153
f 126 153 154
f 126 154 128
f 126 128 130
f 128 154 155
f 128 155 142
f 128 142 156
f 128 156 157
f 128 157 131
f 131 157 156
f 133 158 134
f 134 158 148
f 137 143 138
f 138 142 154
f 138 154 139
f 139 154 153
f 141 159 142
f 142 159 156
f 142 155 154

