# https://github.com/mikedh/trimesh
v 3.25449590 2.53525369 -4.13033740
v 3.25449590 0.73154435 -4.21950970
v 3.25449590 2.53525369 -4.51161301
v 2.95953814 2.53525369 -3.65525734
v 3.25449590 0.73154435 -4.51170209
v 2.90237734 0.73154435 -3.71378505
v 3.25449590 2.36628838 -4.51170209
v 1.17636569 2.53525369 -4.51161301
v 2.90949700 2.53525369 -3.64349843
v 3.25124123 0.73154435 -4.51170209
v 2.75306768 2.53525369 -3.60768721
v 2.75306768 0.73154435 -3.68438758
v 3.25124123 2.36628838 -4.51170209
v 1.17636569 0.73154435 -4.51161301
v 1.17636569 2.53525369 -4.16543636
v 2.68715990 2.53525369 -3.60465812
v 2.50408263 1.61927446 -3.60777628
v 2.50408263 0.73154435 -3.67752806
v 1.17636569 0.73154435 -4.24623440
v 2.03642198 2.53525369 -3.64822003
v 2.50408263 2.53525369 -3.60162940
v 2.25489413 2.53525369 -3.60269836
v 2.25489413 1.61927446 -3.63993523
v 2.25489413 0.73154435 -3.67752806
v 2.08809044 0.73154435 -3.70692553
f 1 2 5
f 1 5 7
f 1 7 3
f 1 3 8
f 1 8 15
f 1 15 20
f 1 20 22
f 1 22 21
f 1 21 16
f 1 16 11
f 1 11 9
f 1 9 4
f 1 4 2
f 2 4 6
f 2 6 12
f 2 12 18
f 2 18 24
f 2 24 25
f 2 25 19
f 2 19 14
f 2 14 10
f 2 10 5
f 3 7 13
f 3 13 8
f 4 9 6
f 5 10 13
f 5 13 7
f 6 9 11
f 6 11 12
f 8 14 19
f 8 19 15
f 8 13 10
f 8 10 14
f 11 16 17
f 11 17 12
f 12 17 18
f 15 19 20
f 16 21 17
f 17 21 22
f 17 22 23
f 17 23 24
f 17 24 18
f 19 25 20
f 20 25 22
f 22 25 23
f 23 25 24

