# https://github.com/mikedh/trimesh
v 9.15888417 2.56010011 4.35231318
v 3.24368786 2.56010011 4.11424424
v 3.24368786 2.56010011 4.51127250
v 3.24368786 0.38276262 4.21679113
v 3.24368786 0.38276262 4.51138942
v 3.25141239 -1.12081717 4.51165518
v 3.24676093 -1.12081717 4.51147108
v 3.24676093 -1.27157986 4.50177065
v 3.24676093 -1.27157986 4.04203757
v 8.77615656 2.56010011 4.11397180
v 8.73099789 -1.27157986 4.04226732
v 8.97985811 -1.27157986 4.04769192
v 8.97996946 2.56010011 4.11436115
v 9.01007772 2.56010011 4.11712523
v 9.15541005 2.56010011 4.15411082
v 9.18627326 -1.27157986 4.13830545
v 9.17406264 -1.27157986 4.35194349
v 8.97985811 -1.27157986 4.46995726
v 8.97985811 -1.12081717 4.47152024
v 8.97996946 2.56010011 4.47058861
v 9.12298572 2.56010011 4.37789172
v 4.49725088 2.56010011 4.51158391
v 4.49725088 2.36615169 4.51170083
v 4.49725088 0.38276262 4.51170083
v 4.49687842 -1.12081717 4.51165518
v 4.49687842 -1.27157986 4.50190873
f 2 3 1
f 4 3 2
f 5 3 4
f 5 6 3
f 5 7 6
f 5 8 7
f 5 4 8
f 4 9 8
f 4 2 9
f 10 9 2
f 11 9 10
f 11 12 9
f 13 12 11
f 13 14 12
f 13 10 14
f 13 11 10
f 14 10 15
f 14 15 12
f 15 16 12
f 15 1 16
f 15 10 1
f 10 2 1
f 17 16 1
f 17 18 16
f 17 19 18
f 17 20 19
f 17 21 20
f 17 1 21
f 21 1 20
f 20 1 3
f 22 20 3
f 22 23 20
f 22 3 23
f 6 23 3
f 24 23 6
f 24 19 23
f 25 19 24
f 25 18 19
f 25 26 18
f 25 6 26
f 25 24 6
f 26 6 8
f 26 8 18
f 8 9 18
f 12 18 9
f 16 18 12
f 7 8 6
f 19 20 23

