# https://github.com/mikedh/trimesh
v 0.41091400 0.38276262 4.51170120
v 0.41091400 2.56010011 4.51156610
v 0.26232654 2.36615169 4.51170120
v 0.26232654 2.56010011 4.51156610
v 0.08739872 2.56010011 4.49751894
v 0.08728941 0.38276262 4.49751894
v -0.03725298 0.38276262 4.41688273
v -0.03714367 2.56010011 4.41674762
v -0.14138977 2.67438115 -1.75877479
v -0.12911586 2.56010011 4.29221395
v -0.14704040 2.56010011 4.10987041
v -0.14696821 2.61542660 -1.75877479
v -0.14138977 2.67438115 -3.40946518
v 0.41706423 2.67438115 -2.45201629
v 0.40634922 2.67438115 -1.75877479
v 0.41651193 2.67438115 -2.20784668
v 0.41091400 0.38276262 3.28905502
v 0.41706423 2.67438115 -2.61506531
v 0.40634922 2.67438115 -3.40946518
v 0.19547209 0.73154440 -3.40946518
v 0.07951107 0.38276262 -1.75861352
v -0.14731358 0.38276262 4.10987041
v -0.14713357 0.38276262 -1.75861352
v -0.14713394 0.73154440 -3.40946518
v -0.14696821 2.61542660 -3.40946518
v -0.12927992 0.38276262 4.29234906
v 0.26232654 0.38276262 4.51170120
f 2 3 1
f 4 3 2
f 5 3 4
f 5 6 3
f 5 7 6
f 5 8 7
f 9 8 5
f 9 10 8
f 9 11 10
f 9 12 11
f 9 13 12
f 9 14 13
f 15 14 9
f 16 14 15
f 16 2 14
f 16 15 2
f 15 9 2
f 9 4 2
f 9 5 4
f 14 2 1
f 14 1 17
f 18 14 17
f 18 19 14
f 18 17 19
f 17 20 19
f 17 21 20
f 17 1 21
f 21 1 22
f 23 21 22
f 23 24 21
f 23 22 24
f 25 24 22
f 25 13 24
f 12 13 25
f 12 25 11
f 25 22 11
f 10 11 22
f 10 22 26
f 10 26 8
f 8 26 7
f 26 22 7
f 7 22 1
f 6 7 1
f 27 6 1
f 27 3 6
f 27 1 3
f 24 13 20
f 24 20 21
f 13 19 20
f 14 19 13

