# https://github.com/mikedh/trimesh
v -0.22634118 -0.27457152 0.30673951
v -0.22072386 -0.28070481 0.31382379
v -0.22422874 -0.27502087 0.30673951
v -0.23448749 -0.27521520 0.30673951
v -0.21780808 -0.29622635 0.33266827
v -0.22052154 -0.27662403 0.30673951
v -0.21198845 -0.29685789 0.33209723
v -0.24093788 -0.27732845 0.30673951
v -0.22634118 -0.29759876 0.33094686
v -0.21780808 -0.36595179 0.39048452
v -0.20926310 -0.36551455 0.39080728
v -0.21544572 -0.28547787 0.30673951
v -0.21330352 -0.29005660 0.32183497
v -0.21320237 -0.28980156 0.31672867
v -0.20760290 -0.30322196 0.32526951
v -0.21154812 -0.29428313 0.32491364
v -0.20354462 -0.36630398 0.39005417
v -0.19579106 -0.36652259 0.38196022
v -0.19207791 -0.37153856 0.37651460
v -0.24390123 -0.27859156 0.30673951
v -0.24342520 -0.30572386 0.33137721
v -0.23437442 -0.30297907 0.33247792
v -0.22239002 -0.36687481 0.38962381
v -0.22395500 -0.37153856 0.39025279
v -0.21780808 -0.37153856 0.39128729
v -0.20992361 -0.37153856 0.39058383
v -0.20354462 -0.36869658 0.39005417
v -0.21323212 -0.28974083 0.30818782
v -0.21323212 -0.28975297 0.30673951
v -0.20701379 -0.30322196 0.31672867
v -0.21091735 -0.29468390 0.31672867
v -0.20359224 -0.31186933 0.31672867
v -0.20502631 -0.30759423 0.31672867
v -0.19494609 -0.37153856 0.38229954
v -0.19510081 -0.37683386 0.38162090
v -0.19322637 -0.37983371 0.37645667
v -0.19099493 -0.38007660 0.36796548
v -0.19154237 -0.37153856 0.36796548
v -0.19951610 -0.32151260 0.30673951
v -0.25177978 -0.28215010 0.30673951
v -0.25177978 -0.31126207 0.33280069
v -0.22822155 -0.37153856 0.38697549
v -0.25177978 -0.31134709 0.33285862
v -0.22425850 -0.37723465 0.39026934
v -0.21780808 -0.37699173 0.39012037
v -0.21321427 -0.37595940 0.38944174
v -0.20751960 -0.37439266 0.38838241
v -0.20246162 -0.31331459 0.30673951
v -0.19992669 -0.32031023 0.30673951
v -0.20072406 -0.37830340 0.38284575
v -0.20072406 -0.38257851 0.37931190
v -0.20150954 -0.38873611 0.37450353
v -0.19472592 -0.38596701 0.37357662
v -0.19436888 -0.38873611 0.36717926
v -0.19640992 -0.39293834 0.36364540
v -0.19514245 -0.38862681 0.36199847
v -0.19404160 -0.38034380 0.35895290
v -0.19899245 -0.32974701 0.30673951
v -0.25177978 -0.34174646 0.30673951
v -0.23163120 -0.37153856 0.38270506
v -0.23199419 -0.38007660 0.38354922
v -0.23955735 -0.34973798 0.36405920
v -0.25177978 -0.32012805 0.33592902
v -0.23135153 -0.38658643 0.38219195
v -0.22634118 -0.38754588 0.38309404
v -0.21780808 -0.38126683 0.38676859
v -0.21780808 -0.38642853 0.38249816
v -0.20926310 -0.39393424 0.37309661
v -0.20488350 -0.39293834 0.37228556
v -0.19918883 -0.39166309 0.36950482
v -0.19640992 -0.39293834 0.36381092
v -0.20926310 -0.39737134 0.36796548
v -0.20153334 -0.39429861 0.36025223
v -0.20492515 -0.39295051 0.35508800
v -0.20273535 -0.36935243 0.33616902
v -0.20399091 -0.33611109 0.30673951
v -0.24947691 -0.35997636 0.30673951
v -0.25177978 -0.36075363 0.30677262
v -0.24009290 -0.35446244 0.36463025
v -0.23451722 -0.38007660 0.37651460
v -0.24278253 -0.35446244 0.35942463
v -0.24285989 -0.36300050 0.35942463
v -0.25177978 -0.32029806 0.33596213
v -0.23229767 -0.38815314 0.37651460
v -0.22490114 -0.39496660 0.37440422
v -0.21780808 -0.39545238 0.37469388
v -0.21780808 -0.39069149 0.37896431
v -0.20150954 -0.39428646 0.36717926
v -0.21780808 -0.39863442 0.36796548
v -0.20926310 -0.39648474 0.35942463
v -0.21780808 -0.37508494 0.33030961
v -0.21202415 -0.36976536 0.32833164
v -0.20907863 -0.37240085 0.33303242
v -0.21198251 -0.34342247 0.30673951
v -0.22787643 -0.35336937 0.30673951
v -0.21792711 -0.39552526 0.35867151
v -0.22389551 -0.39477227 0.36102190
v -0.22556164 -0.39585320 0.36796548
v -0.22983415 -0.39201531 0.36796548
v -0.23283322 -0.38774021 0.36796548
v -0.24247310 -0.37153856 0.35088378
v -0.24515680 -0.36300050 0.35088378
v -0.25177978 -0.34893640 0.32855509
v -0.25177978 -0.32947984 0.33561453
v -0.25177978 -0.33909880 0.33502694
v -0.22280061 -0.35056384 0.30673951
v -0.21729040 -0.34746682 0.30673951
v -0.25177978 -0.34432124 0.33231240
f 1 2 3
f 1 3 6
f 1 6 12
f 1 12 29
f 1 29 48
f 1 48 49
f 1 49 39
f 1 39 58
f 1 58 76
f 1 76 94
f 1 94 107
f 1 107 106
f 1 106 95
f 1 95 77
f 1 77 59
f 1 59 40
f 1 40 20
f 1 20 8
f 1 8 4
f 1 4 5
f 1 5 2
f 2 6 3
f 2 5 7
f 2 7 6
f 4 8 5
f 5 8 9
f 5 9 10
f 5 10 11
f 5 11 7
f 6 7 13
f 6 13 14
f 6 14 12
f 7 15 16
f 7 16 13
f 7 11 17
f 7 17 18
f 7 18 19
f 7 19 15
f 8 20 9
f 9 20 21
f 9 21 22
f 9 22 23
f 9 23 10
f 10 23 24
f 10 24 25
f 10 25 11
f 11 25 26
f 11 26 27
f 11 27 17
f 12 14 28
f 12 28 29
f 13 16 30
f 13 30 31
f 13 31 14
f 14 31 28
f 15 32 33
f 15 33 16
f 15 19 32
f 16 33 30
f 17 27 34
f 17 34 18
f 18 34 19
f 19 34 35
f 19 35 36
f 19 36 37
f 19 37 38
f 19 38 39
f 19 39 32
f 20 40 21
f 21 41 23
f 21 23 22
f 21 40 41
f 23 42 24
f 23 41 43
f 23 43 42
f 24 42 44
f 24 44 25
f 25 44 45
f 25 45 26
f 26 45 46
f 26 46 27
f 27 46 47
f 27 47 35
f 27 35 34
f 28 31 29
f 29 31 30
f 29 30 48
f 30 33 48
f 32 39 33
f 33 39 49
f 33 49 48
f 35 47 50
f 35 50 51
f 35 51 52
f 35 52 53
f 35 53 36
f 36 53 37
f 37 53 54
f 37 54 55
f 37 55 56
f 37 56 57
f 37 57 58
f 37 58 39
f 37 39 38
f 40 59 78
f 40 78 103
f 40 103 108
f 40 108 105
f 40 105 104
f 40 104 83
f 40 83 63
f 40 63 43
f 40 43 41
f 42 60 61
f 42 61 44
f 42 43 62
f 42 62 60
f 43 63 62
f 44 61 64
f 44 64 65
f 44 65 45
f 45 65 66
f 45 66 46
f 46 50 47
f 46 66 50
f 50 66 51
f 51 66 67
f 51 67 68
f 51 68 69
f 51 69 52
f 52 69 53
f 53 69 70
f 53 70 71
f 53 71 54
f 54 71 55
f 55 71 72
f 55 72 73
f 55 73 74
f 55 74 75
f 55 75 58
f 55 58 56
f 56 58 57
f 58 75 76
f 59 77 78
f 60 62 79
f 60 79 61
f 61 80 64
f 61 79 81
f 61 81 82
f 61 82 80
f 62 63 79
f 63 83 79
f 64 84 85
f 64 85 65
f 64 80 84
f 65 67 66
f 65 85 86
f 65 86 87
f 65 87 67
f 67 87 68
f 68 87 86
f 68 86 72
f 68 72 69
f 69 72 88
f 69 88 70
f 70 88 71
f 71 88 72
f 72 89 90
f 72 90 73
f 72 86 89
f 73 90 74
f 74 90 78
f 74 78 91
f 74 91 92
f 74 92 93
f 74 93 75
f 75 93 76
f 76 93 92
f 76 92 94
f 77 95 78
f 78 95 91
f 78 90 96
f 78 96 97
f 78 97 98
f 78 98 99
f 78 99 100
f 78 100 84
f 78 84 101
f 78 101 102
f 78 102 103
f 79 83 81
f 80 82 102
f 80 102 84
f 81 83 82
f 82 83 104
f 82 104 105
f 82 105 102
f 84 100 99
f 84 99 98
f 84 98 85
f 84 102 101
f 85 98 89
f 85 89 86
f 89 98 97
f 89 97 96
f 89 96 90
f 91 95 92
f 92 95 106
f 92 106 107
f 92 107 94
f 102 105 108
f 102 108 103

