# https://github.com/mikedh/trimesh
v -0.36515000 -0.26289074 0.26548295
v -0.34603128 -0.34591391 0.29109857
v -0.35084405 -0.33473916 0.30150410
v -0.35084405 -0.33473916 0.30521198
v -0.36301651 -0.26289074 0.28256003
v -0.36258650 -0.26289074 0.25819777
v -0.34030891 -0.35444691 0.27453720
v -0.34189662 -0.35158192 0.27773588
v -0.34260778 -0.35297100 0.28256003
v -0.34670938 -0.34591391 0.29963711
v -0.34128470 -0.35723750 0.28256003
v -0.34674245 -0.34591391 0.30673951
v -0.34718901 -0.34458684 0.30673951
v -0.34952095 -0.33619025 0.30673951
v -0.35977491 -0.26289074 0.29618384
v -0.36116417 -0.26289074 0.29321363
v -0.36164380 -0.26289074 0.29109857
v -0.36260304 -0.26289074 0.28563469
v -0.34728823 -0.26289074 0.24005010
v -0.34593206 -0.26905484 0.24005010
v -0.33450383 -0.36300473 0.26853802
v -0.33744773 -0.36300473 0.27401496
v -0.34320317 -0.35369036 0.29109857
v -0.33906851 -0.36300473 0.29109857
v -0.34325279 -0.35380198 0.30673951
v -0.33900235 -0.36300473 0.28256003
v -0.34811516 -0.32974090 0.30673951
v -0.35451564 -0.26289074 0.29765262
v -0.26691030 -0.26289074 0.24005010
v -0.34313702 -0.27643442 0.24005010
v -0.34121854 -0.28071331 0.24005010
v -0.33801003 -0.28614566 0.24005010
v -0.33417306 -0.29239658 0.24005010
v -0.32992263 -0.29720881 0.24005010
v -0.32899647 -0.29823822 0.24005010
v -0.33314768 -0.36730844 0.26971958
v -0.33414000 -0.36887118 0.27401496
v -0.33475191 -0.37194702 0.28316713
v -0.33600886 -0.37009903 0.30673951
v -0.33136150 -0.38044282 0.29963711
v -0.33318075 -0.37596548 0.28641804
v -0.33323036 -0.37608950 0.29109857
v -0.34527051 -0.32620614 0.30673951
v -0.34591551 -0.26289074 0.29854695
v -0.24547619 -0.26289074 0.25714024
v -0.21167114 -0.30322408 0.26844663
v -0.21140654 -0.30952461 0.26843357
v -0.26843185 -0.26884400 0.24005010
v -0.32570528 -0.30154972 0.24005010
v -0.33301537 -0.36730844 0.26971958
v -0.32029712 -0.38681777 0.29282848
v -0.32623449 -0.38643329 0.29310265
v -0.32160368 -0.30374499 0.24005010
v -0.31356589 -0.30555576 0.24005010
v -0.31174664 -0.30580382 0.24005010
v -0.30630541 -0.30652318 0.24005010
v -0.30321267 -0.30692005 0.24005010
v -0.33327997 -0.37618872 0.30673951
v -0.32709452 -0.38758674 0.29963711
v -0.33799351 -0.32107147 0.30673951
v -0.32853339 -0.31671814 0.30673951
v -0.28604554 -0.29748167 0.30673951
v -0.26859724 -0.28964321 0.30673951
v -0.24392155 -0.27859247 0.30673951
v -0.24094460 -0.27732741 0.30673951
v -0.23449452 -0.27521896 0.30673951
v -0.22635750 -0.27456161 0.30673951
v -0.26050983 -0.26289074 0.30055756
v -0.24519504 -0.26289074 0.26541114
v -0.22185897 -0.27312292 0.30326665
v -0.21337463 -0.29013930 0.28631360
v -0.21220038 -0.29729561 0.27401496
v -0.21319271 -0.29864751 0.26933443
v -0.20852880 -0.30322408 0.27401496
v -0.20436106 -0.31359266 0.27744865
v -0.27990970 -0.29260743 0.24005010
v -0.27981047 -0.29252062 0.24005010
v -0.27516309 -0.28552552 0.24005010
v -0.27319501 -0.28187916 0.24005010
v -0.27150805 -0.27800955 0.24005010
v -0.26849801 -0.26905484 0.24005010
v -0.20436106 -0.31697860 0.27744865
v -0.21526005 -0.31521741 0.27045724
v -0.21798891 -0.31212918 0.26768938
v -0.29413295 -0.30407985 0.24005010
v -0.29360371 -0.30367058 0.24005010
v -0.32029712 -0.38247686 0.28855268
v -0.32029712 -0.36027615 0.26864247
v -0.31515359 -0.35912270 0.26943234
v -0.26906034 -0.36033818 0.28536705
v -0.26906034 -0.36461708 0.28927075
v -0.26906034 -0.36899520 0.29354003
v -0.26310640 -0.36797819 0.29468894
v -0.31326819 -0.38556510 0.29424504
v -0.32029712 -0.38959596 0.29963711
v -0.32625104 -0.38659453 0.30625645
v -0.32678027 -0.38550309 0.30673951
v -0.22424055 -0.27502052 0.30673951
v -0.22185897 -0.27312292 0.30425890
v -0.22635750 -0.27255239 0.30467016
v -0.25197589 -0.26289074 0.29928461
v -0.24613774 -0.26289074 0.29109857
v -0.21524351 -0.28552552 0.29963711
v -0.21329194 -0.28991606 0.29109857
v -0.20723878 -0.30322408 0.28256003
v -0.20513838 -0.30793708 0.28256003
v -0.20360028 -0.31220358 0.28256003
v -0.19637287 -0.33254389 0.29526340
v -0.19637287 -0.33321364 0.29526340
v -0.20927304 -0.31850412 0.27605820
v -0.22096588 -0.31654451 0.26934096
v -0.25197589 -0.36121875 0.29310265
v -0.25811173 -0.35788245 0.28758654
v -0.26077446 -0.35480659 0.28406798
v -0.22635750 -0.31774754 0.26852496
v -0.27976084 -0.34259001 0.26902109
v -0.29745723 -0.35085016 0.26921693
v -0.26380104 -0.35917231 0.28643110
v -0.26060908 -0.36295511 0.29113774
v -0.24668352 -0.35973044 0.29443435
v -0.25197589 -0.36387292 0.29963711
v -0.25778097 -0.36657668 0.29963711
v -0.26204793 -0.36841227 0.29963711
v -0.29362026 -0.38313419 0.30673951
v -0.30757888 -0.38430003 0.29559633
v -0.29882992 -0.38444887 0.30673951
v -0.30456884 -0.38585037 0.30673951
v -0.31290433 -0.38652010 0.30673951
v -0.31985059 -0.38706583 0.30673951
v -0.32029712 -0.38711544 0.30666117
v -0.32029712 -0.38705343 0.30673951
v -0.32565564 -0.38622245 0.30673951
v -0.22051932 -0.27662044 0.30673951
v -0.21544195 -0.28547593 0.30673951
v -0.24698120 -0.26289074 0.29730012
v -0.21324233 -0.28975483 0.30673951
v -0.21286193 -0.29057341 0.30673951
v -0.21325886 -0.28980444 0.29963711
v -0.21107575 -0.29467868 0.29109857
v -0.20510530 -0.30773863 0.29109857
v -0.20315373 -0.31201753 0.29109857
v -0.19931676 -0.32030249 0.29963711
v -0.19691865 -0.32743401 0.29963711
v -0.19620749 -0.33170051 0.29963711
v -0.20072256 -0.33440427 0.29417976
v -0.19620749 -0.33344927 0.29963711
v -0.21729429 -0.34746425 0.30673951
v -0.22281822 -0.35056491 0.30673951
v -0.22787905 -0.35336789 0.30673951
v -0.28601248 -0.37969867 0.30673951
v -0.20245910 -0.31331981 0.30673951
v -0.19992869 -0.32030249 0.30673951
v -0.19951522 -0.32151795 0.30673951
v -0.19619096 -0.33179974 0.30423279
v -0.19619096 -0.33344927 0.30423279
v -0.21198538 -0.34342099 0.30673951
v -0.19900253 -0.32972848 0.30673951
v -0.20399720 -0.33610345 0.30673951
f 1 2 3
f 1 3 4
f 1 4 5
f 1 5 18
f 1 18 17
f 1 17 16
f 1 16 15
f 1 15 28
f 1 28 44
f 1 44 68
f 1 68 101
f 1 101 135
f 1 135 102
f 1 102 69
f 1 69 45
f 1 45 29
f 1 29 19
f 1 19 6
f 1 6 7
f 1 7 8
f 1 8 9
f 1 9 2
f 2 10 3
f 2 9 11
f 2 11 10
f 3 10 12
f 3 12 4
f 4 12 13
f 4 13 14
f 4 14 15
f 4 15 16
f 4 16 17
f 4 17 18
f 4 18 5
f 6 19 20
f 6 20 21
f 6 21 22
f 6 22 7
f 7 22 11
f 7 11 9
f 7 9 8
f 10 11 23
f 10 23 24
f 10 24 25
f 10 25 12
f 11 22 26
f 11 26 23
f 12 25 39
f 12 39 58
f 12 58 97
f 12 97 132
f 12 132 131
f 12 131 129
f 12 129 128
f 12 128 127
f 12 127 126
f 12 126 124
f 12 124 150
f 12 150 149
f 12 149 148
f 12 148 147
f 12 147 156
f 12 156 158
f 12 158 157
f 12 157 153
f 12 153 152
f 12 152 151
f 12 151 137
f 12 137 136
f 12 136 134
f 12 134 133
f 12 133 98
f 12 98 67
f 12 67 66
f 12 66 65
f 12 65 64
f 12 64 63
f 12 63 62
f 12 62 61
f 12 61 60
f 12 60 43
f 12 43 27
f 12 27 14
f 12 14 13
f 14 27 15
f 15 27 28
f 19 29 48
f 19 48 81
f 19 81 80
f 19 80 79
f 19 79 78
f 19 78 77
f 19 77 76
f 19 76 86
f 19 86 85
f 19 85 57
f 19 57 56
f 19 56 55
f 19 55 54
f 19 54 53
f 19 53 49
f 19 49 35
f 19 35 34
f 19 34 33
f 19 33 32
f 19 32 31
f 19 31 30
f 19 30 20
f 20 30 21
f 21 30 31
f 21 31 32
f 21 32 33
f 21 33 34
f 21 34 35
f 21 35 36
f 21 36 22
f 22 36 37
f 22 37 38
f 22 38 26
f 23 26 24
f 24 39 25
f 24 26 40
f 24 40 39
f 26 38 41
f 26 41 42
f 26 42 40
f 27 43 28
f 28 43 44
f 29 45 46
f 29 46 47
f 29 47 48
f 35 49 36
f 36 50 51
f 36 51 52
f 36 52 37
f 36 49 53
f 36 53 54
f 36 54 55
f 36 55 56
f 36 56 57
f 36 57 50
f 37 52 41
f 37 41 38
f 39 40 58
f 40 42 41
f 40 41 59
f 40 59 58
f 41 52 59
f 43 60 44
f 44 60 61
f 44 61 62
f 44 62 63
f 44 63 64
f 44 64 65
f 44 65 66
f 44 66 67
f 44 67 68
f 45 69 70
f 45 70 71
f 45 71 72
f 45 72 73
f 45 73 46
f 46 73 74
f 46 74 75
f 46 75 47
f 47 76 77
f 47 77 78
f 47 78 79
f 47 79 80
f 47 80 81
f 47 81 48
f 47 75 82
f 47 82 83
f 47 83 84
f 47 84 85
f 47 85 86
f 47 86 76
f 50 87 51
f 50 57 85
f 50 85 88
f 50 88 89
f 50 89 90
f 50 90 91
f 50 91 87
f 51 87 92
f 51 92 93
f 51 93 94
f 51 94 95
f 51 95 52
f 52 95 59
f 58 59 96
f 58 96 97
f 59 95 96
f 67 98 99
f 67 99 100
f 67 100 101
f 67 101 68
f 69 99 70
f 69 102 99
f 70 99 103
f 70 103 71
f 71 103 104
f 71 104 105
f 71 105 74
f 71 74 72
f 72 74 73
f 74 105 106
f 74 106 107
f 74 107 75
f 75 107 108
f 75 108 109
f 75 109 82
f 82 109 110
f 82 110 83
f 83 111 84
f 83 110 112
f 83 112 113
f 83 113 114
f 83 114 111
f 84 111 85
f 85 111 115
f 85 115 88
f 87 91 92
f 88 115 116
f 88 116 117
f 88 117 89
f 89 117 90
f 90 111 114
f 90 114 118
f 90 118 119
f 90 119 93
f 90 93 91
f 90 117 111
f 91 93 92
f 93 119 112
f 93 112 120
f 93 120 121
f 93 121 122
f 93 122 123
f 93 123 124
f 93 124 125
f 93 125 94
f 94 125 95
f 95 125 124
f 95 124 126
f 95 126 127
f 95 127 128
f 95 128 129
f 95 129 130
f 95 130 96
f 96 130 131
f 96 131 132
f 96 132 97
f 98 133 99
f 99 133 134
f 99 134 103
f 99 102 135
f 99 135 101
f 99 101 100
f 103 134 136
f 103 136 137
f 103 137 138
f 103 138 139
f 103 139 104
f 104 139 105
f 105 140 141
f 105 141 106
f 105 139 140
f 106 141 142
f 106 142 107
f 107 142 143
f 107 143 108
f 108 143 144
f 108 144 146
f 108 146 109
f 109 145 110
f 109 146 147
f 109 147 148
f 109 148 149
f 109 149 120
f 109 120 112
f 109 112 145
f 110 145 112
f 111 117 116
f 111 116 115
f 112 119 113
f 113 119 118
f 113 118 114
f 120 149 121
f 121 149 122
f 122 150 124
f 122 124 123
f 122 149 150
f 129 131 130
f 137 139 138
f 137 151 139
f 139 151 140
f 140 151 142
f 140 142 141
f 142 152 153
f 142 153 143
f 142 151 152
f 143 154 144
f 143 153 154
f 144 154 155
f 144 155 146
f 146 155 147
f 147 155 156
f 153 157 154
f 154 157 155
f 155 157 158
f 155 158 156

