# https://github.com/mikedh/trimesh
v 0.29346386 -0.14122207 0.04462490
v 0.29466478 -0.14122207 0.04462490
v 0.28613718 -0.14122947 0.04462490
v 0.28613718 -0.14262960 0.10585587
v 0.30321440 -0.14262960 0.10585587
v 0.30321440 -0.14125170 0.04462490
v 0.28492526 -0.14128875 0.04462490
v 0.27759858 -0.14307408 0.10585587
v 0.31114704 -0.14391860 0.10585587
v 0.31225981 -0.14290369 0.04462490
v 0.27759858 -0.14172582 0.04462490
v 0.27601204 -0.14347411 0.10585587
v 0.31542187 -0.14595581 0.10585587
v 0.31621512 -0.14493349 0.04462490
v 0.27687141 -0.14191102 0.04462490
v 0.27249744 -0.14436307 0.10585587
v 0.31658972 -0.14889680 0.10585587
v 0.35024837 -0.17911413 0.08192694
v 0.34316408 -0.16954296 0.08331760
v 0.34905848 -0.17390629 0.07756315
v 0.34479468 -0.16823915 0.07756315
v 0.33604674 -0.15954212 0.07756315
v 0.31772453 -0.14903754 0.04462490
v 0.33577129 -0.15983844 0.06903338
v 0.34391327 -0.16896514 0.06903338
v 0.34815503 -0.17514343 0.06959683
v 0.34350563 -0.17509899 0.06315303
v 0.27189148 -0.14371117 0.04462490
v 0.27179233 -0.14595581 0.10585587
v 0.24749860 -0.16205345 0.07418842
v 0.23857438 -0.17018005 0.07530332
v 0.23952189 -0.17144682 0.08099785
v 0.23834302 -0.17714360 0.08282609
v 0.31711857 -0.15023023 0.10585587
v 0.33333641 -0.17893634 0.09907642
v 0.35024837 -0.17965492 0.08192694
v 0.35030346 -0.17817331 0.07756315
v 0.35027039 -0.17802515 0.07282173
v 0.31953141 -0.15801608 0.04462490
v 0.33964947 -0.17509899 0.05887915
v 0.33537467 -0.17509899 0.05423963
v 0.34832031 -0.18400344 0.06959683
v 0.34363782 -0.18363303 0.06305714
v 0.27157197 -0.14443716 0.04462490
v 0.23908119 -0.17913636 0.06468156
v 0.24043634 -0.17345440 0.06641390
v 0.23857438 -0.17018005 0.07210841
v 0.24749860 -0.16205345 0.07273781
v 0.27023883 -0.14947461 0.10585587
v 0.23780314 -0.17461747 0.07791682
v 0.23774806 -0.18431458 0.07820454
v 0.23834302 -0.18192177 0.08282609
v 0.24694772 -0.17690654 0.09128992
v 0.31829745 -0.15558624 0.10585587
v 0.32116201 -0.17216540 0.10585587
v 0.32122812 -0.18079576 0.10585587
v 0.32123914 -0.18370712 0.10585587
v 0.33333641 -0.17982531 0.09907642
v 0.31880426 -0.15801608 0.10585587
v 0.34341748 -0.18940388 0.08349744
v 0.34933390 -0.18538132 0.07756315
v 0.35030346 -0.18111430 0.07756315
v 0.31829745 -0.20729427 0.10585587
v 0.35027039 -0.18140322 0.07282173
v 0.32129422 -0.17509899 0.04462490
v 0.33970455 -0.18363303 0.05878924
v 0.33542976 -0.18363303 0.05418569
v 0.34412261 -0.18998912 0.06903338
v 0.31780166 -0.20845734 0.04462490
v 0.31849577 -0.20733131 0.04462490
v 0.26941254 -0.14947461 0.04462490
v 0.24877664 -0.17509899 0.05723076
v 0.24871054 -0.18363303 0.05714683
v 0.23908119 -0.17963270 0.06468156
v 0.23819978 -0.18294409 0.06901539
v 0.23825487 -0.17581756 0.06916524
v 0.26896081 -0.15070435 0.04462490
v 0.26826670 -0.15801608 0.10585587
v 0.23848623 -0.18867789 0.07185065
v 0.23848623 -0.18867789 0.07578885
v 0.23930153 -0.18761855 0.08148338
v 0.24694772 -0.18205512 0.09128992
v 0.26837687 -0.20361249 0.10585587
v 0.25577279 -0.17872151 0.09917234
v 0.31986194 -0.20091597 0.10585587
v 0.34507013 -0.19075215 0.07756315
v 0.33378813 -0.19698229 0.09096624
v 0.31459554 -0.21061308 0.10585587
v 0.33624506 -0.19944917 0.07756315
v 0.33496701 -0.19806387 0.08610493
v 0.32137135 -0.18189214 0.04462490
v 0.32028060 -0.19933065 0.04462490
v 0.32138235 -0.18363303 0.04462490
v 0.32008228 -0.20061224 0.04462490
v 0.33598063 -0.19916025 0.06903338
v 0.30920795 -0.21522085 0.10585587
v 0.31202845 -0.21057603 0.04462490
v 0.26590895 -0.17595090 0.04462490
v 0.26778193 -0.15806052 0.04462490
v 0.26760566 -0.15960880 0.04462490
v 0.26591997 -0.18241811 0.04462490
v 0.26719800 -0.20068631 0.04462490
v 0.24023802 -0.18532947 0.06615614
v 0.27033801 -0.20859809 0.04462490
v 0.26728615 -0.16655752 0.10585587
v 0.24732232 -0.19687118 0.07229423
v 0.24732232 -0.19687118 0.07485977
v 0.24807151 -0.19613037 0.08054826
v 0.27031596 -0.20804989 0.10585587
v 0.25577279 -0.18005495 0.09917234
v 0.26664712 -0.19483397 0.10585587
v 0.26653695 -0.18363303 0.10585587
v 0.26654795 -0.17458782 0.10585587
v 0.30563826 -0.21619133 0.10585587
v 0.31175300 -0.21067234 0.04462490
v 0.27153893 -0.20897589 0.04462490
v 0.27972497 -0.21529495 0.10585587
v 0.27744432 -0.21415411 0.10585587
v 0.25134374 -0.19923434 0.07764707
v 0.26653695 -0.18525540 0.10585587
v 0.30321440 -0.21682101 0.10585587
v 0.30321440 -0.21085013 0.04462490
v 0.27759858 -0.21082790 0.04462490
v 0.28121234 -0.21565794 0.10585587
v 0.29757341 -0.21689508 0.10585587
v 0.28613718 -0.21085013 0.04462490
v 0.27787401 -0.21084272 0.04462490
v 0.28613718 -0.21685805 0.10585587
f 1 2 6
f 1 6 10
f 1 10 14
f 1 14 23
f 1 23 39
f 1 39 65
f 1 65 91
f 1 91 93
f 1 93 92
f 1 92 94
f 1 94 70
f 1 70 69
f 1 69 97
f 1 97 115
f 1 115 122
f 1 122 126
f 1 126 127
f 1 127 123
f 1 123 116
f 1 116 104
f 1 104 102
f 1 102 101
f 1 101 98
f 1 98 100
f 1 100 99
f 1 99 77
f 1 77 71
f 1 71 44
f 1 44 28
f 1 28 15
f 1 15 11
f 1 11 7
f 1 7 3
f 1 3 4
f 1 4 5
f 1 5 2
f 2 5 6
f 3 7 4
f 4 7 8
f 4 8 12
f 4 12 16
f 4 16 29
f 4 29 49
f 4 49 78
f 4 78 105
f 4 105 113
f 4 113 112
f 4 112 120
f 4 120 111
f 4 111 83
f 4 83 109
f 4 109 118
f 4 118 117
f 4 117 124
f 4 124 128
f 4 128 125
f 4 125 121
f 4 121 114
f 4 114 96
f 4 96 88
f 4 88 63
f 4 63 85
f 4 85 57
f 4 57 56
f 4 56 55
f 4 55 59
f 4 59 54
f 4 54 34
f 4 34 17
f 4 17 13
f 4 13 9
f 4 9 5
f 5 9 6
f 6 9 10
f 7 11 8
f 8 11 12
f 9 13 10
f 10 13 14
f 11 15 16
f 11 16 12
f 13 17 18
f 13 18 19
f 13 19 20
f 13 20 21
f 13 21 22
f 13 22 14
f 14 22 24
f 14 24 25
f 14 25 26
f 14 26 27
f 14 27 23
f 15 28 16
f 16 28 30
f 16 30 31
f 16 31 32
f 16 32 33
f 16 33 29
f 17 34 18
f 18 35 58
f 18 58 36
f 18 36 62
f 18 62 37
f 18 37 20
f 18 20 19
f 18 34 35
f 20 37 38
f 20 38 26
f 20 26 25
f 20 25 21
f 21 25 24
f 21 24 22
f 23 27 40
f 23 40 41
f 23 41 39
f 26 38 42
f 26 42 43
f 26 43 27
f 27 43 40
f 28 44 45
f 28 45 46
f 28 46 47
f 28 47 48
f 28 48 30
f 29 33 49
f 30 48 47
f 30 47 31
f 31 47 50
f 31 50 32
f 32 50 33
f 33 50 51
f 33 51 52
f 33 52 82
f 33 82 53
f 33 53 49
f 34 54 35
f 35 55 56
f 35 56 57
f 35 57 58
f 35 54 59
f 35 59 55
f 36 60 61
f 36 61 62
f 36 58 63
f 36 63 60
f 37 62 64
f 37 64 38
f 38 64 42
f 39 41 65
f 40 43 41
f 41 43 66
f 41 66 67
f 41 67 65
f 42 64 61
f 42 61 68
f 42 68 69
f 42 69 70
f 42 70 43
f 43 70 66
f 44 71 45
f 45 72 73
f 45 73 74
f 45 74 75
f 45 75 76
f 45 76 47
f 45 47 46
f 45 71 77
f 45 77 72
f 47 76 50
f 49 53 78
f 50 75 51
f 50 76 75
f 51 75 79
f 51 79 80
f 51 80 81
f 51 81 52
f 52 81 83
f 52 83 82
f 53 82 110
f 53 110 84
f 53 84 78
f 57 85 58
f 58 85 63
f 60 86 61
f 60 63 87
f 60 87 86
f 61 86 68
f 61 64 62
f 63 88 89
f 63 89 90
f 63 90 87
f 65 67 91
f 66 70 67
f 67 92 93
f 67 93 91
f 67 70 94
f 67 94 92
f 68 86 95
f 68 95 69
f 69 96 97
f 69 95 89
f 69 89 96
f 72 98 73
f 72 77 99
f 72 99 100
f 72 100 98
f 73 98 101
f 73 101 102
f 73 102 74
f 74 103 79
f 74 79 75
f 74 102 104
f 74 104 103
f 78 84 105
f 79 106 107
f 79 107 80
f 79 103 104
f 79 104 106
f 80 107 108
f 80 108 81
f 81 108 109
f 81 109 83
f 82 83 110
f 83 111 110
f 84 110 120
f 84 120 112
f 84 112 113
f 84 113 105
f 86 89 95
f 86 87 90
f 86 90 89
f 88 96 89
f 96 114 115
f 96 115 97
f 104 116 117
f 104 117 118
f 104 118 119
f 104 119 106
f 106 119 107
f 107 119 118
f 107 118 108
f 108 118 109
f 110 111 120
f 114 121 115
f 115 121 122
f 116 123 117
f 117 123 124
f 121 125 122
f 122 125 126
f 123 127 128
f 123 128 124
f 125 128 127
f 125 127 126

