# https://github.com/mikedh/trimesh
v -0.30320834 -0.18495536 0.24005010
v -0.31174361 -0.18497824 0.24005010
v -0.28613784 -0.19175257 0.28255604
v -0.29722918 -0.18547411 0.24005010
v -0.32029381 -0.18630565 0.24005010
v -0.28613784 -0.19325544 0.29109751
v -0.29468805 -0.18579451 0.24005010
v -0.27993444 -0.19431584 0.29109751
v -0.27884326 -0.19330885 0.28255604
v -0.32554054 -0.19281297 0.24005010
v -0.37618404 -0.23777687 0.26042050
v -0.36921831 -0.22973617 0.25975116
v -0.37014510 -0.22929369 0.26547903
v -0.37002551 -0.22929369 0.27401457
v -0.36983119 -0.22929369 0.28255604
v -0.36885957 -0.22976667 0.29109751
v -0.36775342 -0.23035410 0.29557556
v -0.35029427 -0.22203113 0.29540970
v -0.29135465 -0.19608571 0.29565256
v -0.28613784 -0.19553644 0.29592504
v -0.28113029 -0.19559747 0.29583026
v -0.29232628 -0.18722872 0.24005010
v -0.27836493 -0.19309524 0.27401457
v -0.27695981 -0.19368265 0.26464977
v -0.22824458 -0.23641133 0.25530272
v -0.22719823 -0.23561795 0.24839609
v -0.27332747 -0.19644426 0.26124976
v -0.34438984 -0.24272032 0.24005010
v -0.34720005 -0.25196637 0.24005010
v -0.34722994 -0.25230202 0.24005010
v -0.34779797 -0.26050296 0.24005010
v -0.37618404 -0.23996634 0.26042050
v -0.37613921 -0.23790656 0.26547903
v -0.37442018 -0.23364208 0.26547903
v -0.37340373 -0.23488558 0.28255604
v -0.37125123 -0.23488558 0.29109751
v -0.36836628 -0.23488558 0.29591912
v -0.36299999 -0.23488558 0.29670099
v -0.36299999 -0.22970565 0.29586581
v -0.30896330 -0.20446209 0.29574734
v -0.28613784 -0.20072400 0.29677208
v -0.27253524 -0.21153394 0.29603758
v -0.27760258 -0.21780480 0.29777312
v -0.26051711 -0.26288313 0.30056302
v -0.25196690 -0.26288313 0.29928358
v -0.28905268 -0.19250783 0.24005010
v -0.27332747 -0.19644426 0.26120237
v -0.22843891 -0.23718183 0.24262675
v -0.23489640 -0.24342217 0.24012710
v -0.24697432 -0.26288313 0.29729926
v -0.22670496 -0.24342217 0.25635115
v -0.22349115 -0.24342217 0.24839609
v -0.34775312 -0.26076995 0.24005010
v -0.36779827 -0.25735228 0.26019541
v -0.36513753 -0.26288313 0.26547903
v -0.37613921 -0.23984428 0.26547903
v -0.34728973 -0.26288313 0.24005010
v -0.37585518 -0.23887541 0.27015847
v -0.37585518 -0.23925685 0.27015847
v -0.37047393 -0.24342217 0.29109751
v -0.36818692 -0.24342217 0.29593688
v -0.36299999 -0.24342217 0.29692016
v -0.35444979 -0.25196637 0.29783828
v -0.35444979 -0.24342217 0.29742957
v -0.35444979 -0.23488558 0.29702086
v -0.32029381 -0.21780480 0.29694385
v -0.30320834 -0.20926821 0.29687870
v -0.29468805 -0.20926821 0.29708601
v -0.28613784 -0.20926821 0.29726964
v -0.34591452 -0.26288313 0.29854908
v -0.26398503 -0.25194348 0.24005010
v -0.22742243 -0.24342217 0.24221213
v -0.22854353 -0.24870125 0.24307694
v -0.26691481 -0.26288313 0.24005010
v -0.26634680 -0.26084624 0.24005010
v -0.24613723 -0.26288313 0.29109751
v -0.22692917 -0.24968536 0.24839609
v -0.22778120 -0.24934971 0.25494733
v -0.36259640 -0.26288313 0.25819924
v -0.36301493 -0.26288313 0.28255604
v -0.36879978 -0.25086783 0.28255604
v -0.37237232 -0.24342217 0.28255604
v -0.36808227 -0.24943361 0.29109751
v -0.36751427 -0.24825115 0.29559925
v -0.36020472 -0.26050296 0.29641075
v -0.35444979 -0.26050296 0.29789752
v -0.35452452 -0.26288313 0.29765465
v -0.24547952 -0.26288313 0.25713896
v -0.24519552 -0.26288313 0.26541388
v -0.36259640 -0.26288313 0.28563618
v -0.36163972 -0.26288313 0.29109751
v -0.36116140 -0.26288313 0.29321214
v -0.35978619 -0.26288313 0.29618566
f 1 2 3
f 1 3 4
f 1 4 7
f 1 7 22
f 1 22 46
f 1 46 71
f 1 71 75
f 1 75 74
f 1 74 57
f 1 57 53
f 1 53 31
f 1 31 30
f 1 30 29
f 1 29 28
f 1 28 10
f 1 10 5
f 1 5 2
f 2 5 6
f 2 6 3
f 3 7 4
f 3 6 8
f 3 8 9
f 3 9 7
f 5 10 11
f 5 11 12
f 5 12 13
f 5 13 14
f 5 14 15
f 5 15 16
f 5 16 17
f 5 17 18
f 5 18 19
f 5 19 6
f 6 19 20
f 6 20 21
f 6 21 8
f 7 9 23
f 7 23 24
f 7 24 22
f 8 21 25
f 8 25 26
f 8 26 9
f 9 27 23
f 9 26 27
f 10 28 11
f 11 28 29
f 11 29 30
f 11 30 31
f 11 31 32
f 11 32 56
f 11 56 33
f 11 33 34
f 11 34 12
f 12 34 13
f 13 34 14
f 14 34 15
f 15 34 35
f 15 35 16
f 16 35 36
f 16 36 17
f 17 36 37
f 17 37 38
f 17 38 39
f 17 39 40
f 17 40 19
f 17 19 18
f 19 41 20
f 19 40 41
f 20 41 21
f 21 42 25
f 21 41 43
f 21 43 44
f 21 44 45
f 21 45 42
f 22 24 47
f 22 47 26
f 22 26 48
f 22 48 49
f 22 49 46
f 23 27 24
f 24 27 47
f 25 50 51
f 25 51 52
f 25 52 26
f 25 42 50
f 26 52 48
f 26 47 27
f 31 53 32
f 32 54 55
f 32 55 56
f 32 53 57
f 32 57 54
f 33 56 59
f 33 59 58
f 33 58 35
f 33 35 34
f 35 58 59
f 35 59 60
f 35 60 36
f 36 60 61
f 36 61 37
f 37 61 62
f 37 62 38
f 38 62 63
f 38 63 64
f 38 64 65
f 38 65 66
f 38 66 67
f 38 67 41
f 38 41 40
f 38 40 39
f 41 68 69
f 41 69 44
f 41 44 43
f 41 67 68
f 42 45 50
f 44 69 68
f 44 68 66
f 44 66 65
f 44 65 64
f 44 64 63
f 44 63 70
f 44 70 87
f 44 87 93
f 44 93 92
f 44 92 91
f 44 91 90
f 44 90 80
f 44 80 55
f 44 55 79
f 44 79 57
f 44 57 74
f 44 74 88
f 44 88 89
f 44 89 76
f 44 76 50
f 44 50 45
f 46 49 71
f 48 52 72
f 48 72 49
f 49 72 73
f 49 73 74
f 49 74 75
f 49 75 71
f 50 76 77
f 50 77 78
f 50 78 52
f 50 52 51
f 52 78 77
f 52 77 73
f 52 73 72
f 54 79 55
f 54 57 79
f 55 80 81
f 55 81 82
f 55 82 56
f 56 82 59
f 59 82 60
f 60 83 84
f 60 84 61
f 60 82 83
f 61 84 85
f 61 85 86
f 61 86 62
f 62 86 63
f 63 86 70
f 66 68 67
f 70 86 87
f 73 77 88
f 73 88 74
f 76 89 77
f 77 89 88
f 80 90 81
f 81 90 82
f 82 90 83
f 83 90 91
f 83 91 92
f 83 92 84
f 84 92 93
f 84 93 85
f 85 93 87
f 85 87 86

