# https://github.com/mikedh/trimesh
v -1.07504435 0.91889849 -1.76639516
v -1.15357039 0.91889849 -1.76639516
v -0.69034342 0.91881795 -1.76639516
v -0.69034342 0.91881795 -1.91951609
v -1.50118268 0.91881795 -1.91951609
v -1.50118268 0.91881795 -1.76639516
v -0.61117775 0.91680438 -1.76639516
v -0.61117775 0.91680438 -1.91951609
v -0.61821191 0.91616005 -1.98063378
v -0.69034342 0.91680438 -1.98225278
v -1.50118268 0.91680438 -1.98225278
v -1.57177943 0.91616005 -1.98063378
v -1.57804621 0.91680438 -1.91951609
v -1.52586585 0.91817362 -1.76639516
v -0.59250551 0.91221349 -1.76639516
v -0.55324248 0.90238729 -1.91951609
v -0.69034342 0.85688075 -2.02693113
v -0.50796836 0.82925465 -1.99399048
v -0.57754206 0.86348521 -2.00716056
v -1.50118268 0.85688075 -2.02693113
v -1.61296064 0.86235762 -2.00647570
v -1.68279018 0.82748273 -1.99286971
v -1.63598130 0.89964881 -1.91951609
v -1.57804621 0.91680438 -1.76639516
v -0.55324248 0.90238729 -1.76639516
v -0.50362011 0.84447719 -1.91951609
v -0.69034342 0.74098001 -2.06678371
v -0.44760303 0.09607587 -1.91758582
v -0.44952157 0.09607587 -1.93763658
v -0.50362011 0.74098001 -2.00230354
v -0.57447254 0.74098001 -2.04698206
v -1.50118268 0.74098001 -2.06678371
v -1.61705321 0.74098001 -2.04526966
v -1.68662690 0.74098001 -2.00059114
v -1.75146858 0.09607587 -1.91951609
v -1.69826516 0.74098001 -1.91951609
v -1.68662690 0.84173875 -1.91951609
v -1.63598130 0.89964881 -1.76639516
v -0.50362011 0.84447719 -1.76639516
v -0.57447254 0.09607587 -2.07226343
v -0.58854086 0.09607587 -2.07466086
v -0.69034342 0.09607587 -2.08415685
v -0.69724948 0.09607587 -2.08418810
v -0.80608620 0.09607587 -2.08446829
v -0.47036802 0.09607587 -1.83199609
v -0.46870534 0.09607587 -2.02823887
v -0.48776136 0.09607587 -2.03975869
v -1.38531180 0.09607587 -2.08446829
v -1.50118268 0.09607587 -2.08409470
v -1.61705321 0.09607587 -2.07160965
v -1.72230888 0.09607587 -2.02764723
v -1.75210803 0.09607587 -1.89507530
v -1.75402639 0.09607587 -1.80366351
v -1.69826516 0.74098001 -1.76639516
v -1.69455619 0.77335812 -1.76639516
v -1.68662690 0.84173875 -1.76639516
v -0.50362011 0.82273068 -1.76639516
v -0.47778578 0.09607587 -1.82284262
v -0.50502694 0.75636366 -1.76639516
v -1.75402639 0.09607587 -1.76639516
v -0.57281003 0.09607587 -1.79251727
v -0.76746263 0.09607587 -1.76639516
f 1 2 6
f 1 6 14
f 1 14 24
f 1 24 38
f 1 38 56
f 1 56 55
f 1 55 54
f 1 54 60
f 1 60 62
f 1 62 59
f 1 59 57
f 1 57 39
f 1 39 25
f 1 25 15
f 1 15 7
f 1 7 3
f 1 3 4
f 1 4 5
f 1 5 2
f 2 5 6
f 3 7 8
f 3 8 4
f 4 8 9
f 4 9 10
f 4 10 11
f 4 11 5
f 5 11 12
f 5 12 13
f 5 13 14
f 5 14 6
f 7 15 8
f 8 15 16
f 8 16 9
f 9 17 10
f 9 16 18
f 9 18 19
f 9 19 17
f 10 17 20
f 10 20 11
f 11 20 12
f 12 21 22
f 12 22 23
f 12 23 13
f 12 20 21
f 13 24 14
f 13 23 38
f 13 38 24
f 15 25 16
f 16 25 39
f 16 39 26
f 16 26 18
f 17 19 27
f 17 27 32
f 17 32 20
f 18 26 28
f 18 28 29
f 18 29 30
f 18 30 31
f 18 31 19
f 19 31 27
f 20 32 21
f 21 32 33
f 21 33 22
f 22 34 35
f 22 35 36
f 22 36 37
f 22 37 23
f 22 33 34
f 23 37 56
f 23 56 38
f 26 39 28
f 27 31 40
f 27 40 41
f 27 41 42
f 27 42 43
f 27 43 44
f 27 44 48
f 27 48 32
f 28 39 45
f 28 45 58
f 28 58 61
f 28 61 62
f 28 62 60
f 28 60 53
f 28 53 52
f 28 52 35
f 28 35 51
f 28 51 50
f 28 50 49
f 28 49 48
f 28 48 44
f 28 44 43
f 28 43 42
f 28 42 41
f 28 41 40
f 28 40 47
f 28 47 46
f 28 46 29
f 29 46 30
f 30 46 31
f 31 46 47
f 31 47 40
f 32 48 49
f 32 49 50
f 32 50 33
f 33 50 51
f 33 51 34
f 34 51 35
f 35 52 36
f 36 52 53
f 36 53 60
f 36 60 54
f 36 54 55
f 36 55 37
f 37 55 56
f 39 57 45
f 45 57 59
f 45 59 58
f 58 59 61
f 59 62 61

