# https://github.com/mikedh/trimesh
v -0.50504352 0.75638610 -1.76639516
v -0.50357471 0.82266965 -1.76639516
v -0.50357471 0.77685737 -1.68776967
v -0.50357471 0.84440347 -1.76639516
v -0.76737648 0.09616599 -1.76639516
v -0.50369314 0.77687731 2.06221583
v -0.50369314 0.84448694 2.06221583
v -0.55318448 0.90234202 2.06221583
v -1.68661931 0.84171195 2.06221583
v -1.71605315 0.17360415 2.06221583
v -0.81891860 0.17360415 2.06221583
v -0.78341254 0.09616599 0.11032536
v -1.75403191 0.09616599 0.11032536
v -1.75403191 0.09616599 -1.76639516
v -1.69836909 0.74105433 1.54747506
v -1.69836909 0.74105433 2.06221583
v -1.68658167 0.84169796 -1.76639516
v -1.69833353 0.74105519 -1.76639516
v -1.63602481 0.89959465 -1.76639516
v -1.63594125 0.89965106 2.06221583
v -1.21330645 1.03165902 0.92188720
v -1.57802308 0.91680576 2.06221583
v -0.92193653 0.94876056 2.06221583
v -0.92193653 1.03268398 1.90464410
v -0.99065480 1.03268398 1.87410727
v -0.82865075 1.03268398 1.88569719
v -0.89357098 1.03268398 1.90116716
v -0.80610070 0.94119230 2.06221583
v -0.61110248 0.91680576 2.06221583
v -0.82829460 1.03268398 1.80169591
v -1.21328366 1.03163576 -1.28484674
v -1.57812321 0.91681932 -1.76639516
v -1.50112501 0.91880332 -1.76639516
v -0.69025572 0.91880332 -1.76639516
v -1.20192801 1.03163576 -1.28484674
v -0.61117637 0.91681932 -1.76639516
v -1.12469399 1.02720275 -1.25281141
v -1.09286565 1.03157154 -1.17558344
v -0.55327460 0.90239027 -1.76639516
f 2 3 1
f 2 4 3
f 2 1 4
f 1 5 4
f 1 6 5
f 3 6 1
f 3 7 6
f 3 4 7
f 7 4 8
f 7 8 6
f 6 8 9
f 10 6 9
f 11 6 10
f 11 12 6
f 11 10 12
f 13 12 10
f 13 14 12
f 13 15 14
f 16 15 13
f 16 9 15
f 16 10 9
f 16 13 10
f 15 9 17
f 18 15 17
f 18 14 15
f 18 17 14
f 17 19 14
f 17 9 19
f 20 19 9
f 20 21 19
f 20 22 21
f 20 9 22
f 22 9 8
f 23 22 8
f 24 22 23
f 24 25 22
f 24 26 25
f 27 26 24
f 27 28 26
f 27 23 28
f 27 24 23
f 28 23 29
f 28 29 26
f 29 8 26
f 29 23 8
f 26 8 30
f 26 30 25
f 31 25 30
f 31 21 25
f 31 19 21
f 31 32 19
f 31 33 32
f 31 34 33
f 35 34 31
f 35 36 34
f 37 36 35
f 37 38 36
f 37 35 38
f 35 30 38
f 35 31 30
f 36 38 30
f 36 30 39
f 36 39 34
f 34 39 33
f 33 39 19
f 32 33 19
f 39 4 19
f 39 8 4
f 30 8 39
f 19 4 14
f 5 14 4
f 5 12 14
f 5 6 12
f 21 22 25

