# https://github.com/mikedh/trimesh
v 1.89309157 0.93409012 4.25147633
v 2.14860132 0.97173427 4.21907207
v 2.14860132 0.93409012 4.21852653
v 1.89309157 0.93409012 4.32854082
v 2.12128420 1.55839649 4.24496475
v 2.14860132 1.55839649 4.23066337
v 2.14860132 0.93409012 4.39266777
v 2.13454250 0.93409012 4.39140647
v 2.14860132 1.55839649 4.37959350
v 2.12128420 1.55839649 4.33518878
v 2.14860132 0.95865664 4.39261667
f 1 2 3
f 1 3 7
f 1 7 8
f 1 8 4
f 1 4 10
f 1 10 5
f 1 5 6
f 1 6 2
f 2 6 9
f 2 9 11
f 2 11 7
f 2 7 3
f 4 8 9
f 4 9 10
f 5 10 9
f 5 9 6
f 7 11 8
f 8 11 9

