# https://github.com/mikedh/trimesh
v 7.54133622 2.82647030 -0.07469720
v 7.54121952 2.83536058 -0.07469720
v 7.54133622 2.71110025 -0.07469720
v 7.54133622 2.82647030 -4.35224672
v 7.53975762 2.94231546 -0.07469720
v 7.53975762 2.94231546 -4.35224672
v 7.41381880 2.71110025 -0.07469720
v 7.54133622 2.71110025 -4.23706087
v 7.54116082 2.71110025 -4.35267003
v 7.52935027 2.71110025 -4.40094668
v 7.52935027 2.82647030 -4.40094668
v 7.52894146 2.87495965 -4.40094668
v 7.52806446 2.94231546 -4.40094668
v 7.53736070 2.94893217 -0.07469720
v 7.52075563 2.97312609 -4.40094668
v 7.50795137 3.02897865 -4.35224672
v 6.94403364 2.93580042 -0.07469720
v 6.94403364 2.71809030 -4.40094668
v 7.19515097 2.71110025 -4.40094668
v 7.50795137 3.02897865 -0.07469720
v 7.50222184 3.02354951 -4.40094668
v 7.45088707 3.04027819 -4.40094668
v 7.41966572 3.05771935 -4.35224672
v 7.41966572 3.05775335 -1.34047245
v 7.42644800 3.05554772 -0.07469720
v 6.94403364 3.05775335 -0.07469720
v 6.94403364 3.04686107 -4.40094668
v 7.41966572 3.04686107 -4.40094668
v 6.94403364 3.05771935 -4.35224672
v 6.94403364 3.05775335 -1.34047245
v 7.41966572 3.05775335 -0.07469720
f 1 2 5
f 1 5 14
f 1 14 20
f 1 20 25
f 1 25 31
f 1 31 26
f 1 26 17
f 1 17 7
f 1 7 3
f 1 3 8
f 1 8 4
f 1 4 2
f 2 4 6
f 2 6 5
f 3 7 19
f 3 19 10
f 3 10 9
f 3 9 8
f 4 8 9
f 4 9 10
f 4 10 11
f 4 11 12
f 4 12 13
f 4 13 6
f 5 6 14
f 6 13 15
f 6 15 16
f 6 16 14
f 7 17 18
f 7 18 19
f 10 19 18
f 10 18 27
f 10 27 28
f 10 28 22
f 10 22 21
f 10 21 15
f 10 15 13
f 10 13 12
f 10 12 11
f 14 16 20
f 15 21 16
f 16 21 22
f 16 22 23
f 16 23 24
f 16 24 25
f 16 25 20
f 17 26 30
f 17 30 29
f 17 29 27
f 17 27 18
f 22 28 23
f 23 28 27
f 23 27 29
f 23 29 30
f 23 30 24
f 24 30 26
f 24 26 31
f 24 31 25

