# https://github.com/mikedh/trimesh
v -4.05599313 0.17360337 -4.53002269
v -4.04980645 0.04593222 -4.53002269
v -4.11105517 0.04593222 -4.52812194
v -4.11105517 0.17360337 -4.52812194
v 2.14862618 0.17360337 -4.53002269
v -4.04980645 -0.01479557 -4.52791063
v -4.10981770 -0.01386677 -4.52727704
v 2.14862618 0.04593222 -4.53002269
v 2.14862618 0.01537786 -4.52896648
v -4.14198855 0.04593222 -4.46814246
v -4.14260729 0.16176744 -4.46814246
v -4.14260729 0.17360337 -4.46814246
v 2.14862618 0.17360337 -4.38070792
v -4.04980645 -0.04363519 -4.46814246
v 2.14862618 -0.01479557 -4.52791063
v 2.14862618 -0.02932259 -4.49792089
v -4.12404726 -0.02782218 -4.46814246
v -4.16982825 0.04593222 -4.35240796
v -4.17168446 0.16176744 -4.35240796
v -4.14570028 0.17360337 -4.45631568
v 2.14862618 0.05238605 -2.37266977
v 0.23013722 0.17360337 -3.61533890
v -4.04980645 -0.06966477 -4.35240796
v 2.14862618 -0.04363519 -4.46814246
v -4.13827613 -0.04082515 -4.35240796
v -4.16982825 0.04593222 -2.37266977
v -4.17168446 0.16176744 -2.37266977
v -4.17168446 0.17360337 -4.35240796
v 2.14862618 -0.06966477 -2.37266977
v -3.40515497 0.17360337 -2.37266977
v -4.04980645 -0.06966477 -2.37266977
v 2.14862618 -0.06966477 -4.35240796
v -4.13827613 -0.04082515 -2.37266977
v -4.17168446 0.17203167 -2.37266977
v -4.17168446 0.17360337 -2.37288073
v -4.09744435 0.17360337 -2.37266977
f 1 2 3
f 1 3 4
f 1 4 12
f 1 12 20
f 1 20 28
f 1 28 35
f 1 35 36
f 1 36 30
f 1 30 22
f 1 22 13
f 1 13 5
f 1 5 8
f 1 8 2
f 2 6 7
f 2 7 3
f 2 8 9
f 2 9 6
f 3 7 10
f 3 10 11
f 3 11 12
f 3 12 4
f 5 13 21
f 5 21 29
f 5 29 32
f 5 32 24
f 5 24 16
f 5 16 15
f 5 15 9
f 5 9 8
f 6 14 7
f 6 9 15
f 6 15 16
f 6 16 14
f 7 17 10
f 7 14 17
f 10 17 18
f 10 18 19
f 10 19 20
f 10 20 11
f 11 20 12
f 13 22 21
f 14 23 17
f 14 16 24
f 14 24 32
f 14 32 23
f 17 23 25
f 17 25 18
f 18 26 27
f 18 27 19
f 18 25 33
f 18 33 26
f 19 27 34
f 19 34 35
f 19 35 28
f 19 28 20
f 21 22 30
f 21 30 36
f 21 36 34
f 21 34 27
f 21 27 26
f 21 26 33
f 21 33 31
f 21 31 29
f 23 31 33
f 23 33 25
f 23 32 29
f 23 29 31
f 34 36 35

