# https://github.com/mikedh/trimesh
v 2.14862635 2.71811922 -4.40094668
v 2.14862635 2.93579757 -0.07469720
v 2.14862635 3.04688109 -4.40094668
v 6.94403364 2.71811922 -4.40094668
v 2.14862635 3.05775335 -0.07469720
v 6.94403364 2.93579757 -0.07469720
v 2.14862635 3.05772004 -4.35224672
v 6.94403364 3.04688109 -4.40094668
v 2.14862635 3.05775335 -1.39891234
v 6.94403364 3.05775335 -0.07469720
v 6.94403364 3.05772004 -4.35224672
v 6.94403364 3.05775335 -1.34047245
f 1 2 5
f 1 5 9
f 1 9 7
f 1 7 3
f 1 3 8
f 1 8 4
f 1 4 6
f 1 6 2
f 2 6 10
f 2 10 5
f 3 7 11
f 3 11 8
f 4 8 11
f 4 11 12
f 4 12 10
f 4 10 6
f 5 10 12
f 5 12 9
f 7 9 11
f 9 12 11

