# https://github.com/mikedh/trimesh
v -0.36283938 0.09615779 -1.34017620
v -0.36138991 0.09615779 -1.43167371
v -0.35579832 0.09615779 -1.22438768
v -0.30706296 0.50940986 -1.34017620
v -0.36083764 0.09615779 -1.45607686
v -0.34130203 0.09615779 -1.11117975
v -0.28801057 0.57023768 -1.26634981
v -0.29194535 0.57359878 -1.34017620
v -0.29111703 0.57269700 -1.42567115
v -0.30016001 0.50940986 -1.44766194
v -0.33688404 0.09615779 -1.54011327
v -0.29850320 0.09615779 -1.01401616
v -0.27441166 0.50940986 -1.18910138
v -0.17128030 0.56859813 -1.04924643
v 0.14943438 0.92594106 -1.15129060
v 0.04809794 0.92717077 -1.49321444
v 0.04809794 0.92717077 -1.53472772
v -0.27772511 0.50940986 -1.50555620
v -0.32956692 0.09615779 -1.55862591
v -0.22401949 0.09615779 -0.99567176
v -0.15768138 0.56859813 -1.04924643
v -0.21221532 0.09615779 -0.99393277
v 0.19216416 0.92594106 -1.15129060
v 0.14474034 0.93249935 -1.22438768
v 0.15102214 0.93356504 -1.34017620
v 0.11982047 0.93192549 -1.45517923
v 0.12071785 0.92684284 -1.53282032
v 0.12071785 0.85683345 -1.55251114
v 0.04029744 0.85683345 -1.54561095
v -0.21980866 0.50940986 -1.52967882
v -0.19840924 0.57425464 -1.52289084
v 0.12271977 0.09615779 -1.56698464
v -0.13759350 0.50940986 -1.04660981
v 0.19934333 0.85683345 -1.14321232
v -0.12620350 0.09615779 -1.00801360
v 0.32042254 0.09615779 -1.14057570
v 0.23233975 0.85683345 -1.22438768
v 0.20300189 0.93249935 -1.22438768
v 0.20514192 0.93356504 -1.34017620
v 0.19368286 0.92692480 -1.45607686
v 0.18229285 0.91848105 -1.51834682
v 0.23109727 0.09615779 -1.56653586
v 0.23661980 0.09615779 -1.11112364
v 0.32801588 0.09615779 -1.16262259
v 0.23855258 0.85683345 -1.34017620
v 0.34230509 0.09615779 -1.22438768
v 0.21135466 0.85683345 -1.45607686
v 0.32629010 0.09615779 -1.33389302
v 0.33982004 0.09615779 -1.25064203
f 1 2 5
f 1 5 11
f 1 11 19
f 1 19 32
f 1 32 42
f 1 42 48
f 1 48 49
f 1 49 46
f 1 46 44
f 1 44 36
f 1 36 43
f 1 43 35
f 1 35 22
f 1 22 20
f 1 20 12
f 1 12 6
f 1 6 3
f 1 3 4
f 1 4 2
f 2 4 5
f 3 6 4
f 4 7 8
f 4 8 9
f 4 9 10
f 4 10 5
f 4 6 7
f 5 10 11
f 6 12 13
f 6 13 7
f 7 13 14
f 7 14 15
f 7 15 16
f 7 16 8
f 8 16 17
f 8 17 9
f 9 18 10
f 9 17 18
f 10 18 11
f 11 18 19
f 12 20 14
f 12 14 13
f 14 21 23
f 14 23 15
f 14 20 22
f 14 22 21
f 15 23 38
f 15 38 24
f 15 24 16
f 16 24 25
f 16 25 26
f 16 26 17
f 17 26 27
f 17 27 28
f 17 28 29
f 17 29 30
f 17 30 31
f 17 31 18
f 18 31 30
f 18 30 19
f 19 30 29
f 19 29 28
f 19 28 32
f 21 22 33
f 21 33 34
f 21 34 23
f 22 35 33
f 23 34 36
f 23 36 37
f 23 37 38
f 24 38 39
f 24 39 25
f 25 39 26
f 26 39 40
f 26 40 27
f 27 40 41
f 27 41 28
f 28 41 42
f 28 42 32
f 33 35 34
f 34 35 43
f 34 43 36
f 36 44 37
f 37 45 38
f 37 44 46
f 37 46 45
f 38 45 39
f 39 45 40
f 40 45 41
f 41 45 47
f 41 47 48
f 41 48 42
f 45 46 49
f 45 49 48
f 45 48 47

