# https://github.com/mikedh/trimesh
v 7.19691119 1.27322633 -4.40094668
v 7.19511506 2.71110025 -4.40094668
v 7.52933922 1.27322633 -4.40094668
v 7.41387543 1.27322633 -0.07469720
v 7.52933922 2.71110025 -4.40094668
v 7.41384159 2.71110025 -0.07469720
v 7.54133622 1.27322633 -4.35224672
v 7.54133622 1.27322633 -0.07469720
v 7.54120087 2.71110025 -4.35267003
v 7.54133622 2.71053727 -4.35224672
v 7.54133622 2.71110025 -0.07469720
v 7.54133622 2.71110025 -4.23706087
f 1 2 5
f 1 5 3
f 1 3 7
f 1 7 8
f 1 8 4
f 1 4 2
f 2 4 6
f 2 6 11
f 2 11 12
f 2 12 9
f 2 9 5
f 3 5 10
f 3 10 7
f 4 8 11
f 4 11 6
f 5 9 10
f 7 10 12
f 7 12 11
f 7 11 8
f 9 12 10

