mtllib material.mtl
usemtl material_0
v -4.07466030 0.84765003 -0.50906779
v -3.52306223 0.84765003 -0.50906779
v -3.52306223 0.84765027 0.98103378
v -4.07466030 0.84765027 0.98103378
v -4.07466030 0.86810902 -0.50906780
v -4.07466030 0.86810927 0.98103378
v -3.52306223 0.86810927 0.98103378
v -3.52306223 0.86810902 -0.50906780
v -3.52306223 0.84765003 -0.50906779
v -4.07466030 0.84765003 -0.50906779
v -4.07466030 0.86810902 -0.50906780
v -3.52306223 0.86810902 -0.50906780
v -4.07466030 0.84765003 -0.50906779
v -4.07466030 0.84765027 0.98103378
v -4.07466030 0.86810927 0.98103378
v -4.07466030 0.86810902 -0.50906780
v -4.07466030 0.84765027 0.98103378
v -3.52306223 0.84765027 0.98103378
v -3.52306223 0.86810927 0.98103378
v -4.07466030 0.86810927 0.98103378
v -3.52306223 0.84765027 0.98103378
v -3.52306223 0.84765003 -0.50906779
v -3.52306223 0.86810902 -0.50906780
v -3.52306223 0.86810927 0.98103378
v -4.10796356 1.78801934 -0.50906795
v -3.52306223 1.78801934 -0.50906795
v -3.52306223 1.78801958 0.98103363
v -4.10796356 1.78801958 0.98103363
v -4.10796356 1.86586324 -0.50906796
v -4.10796356 1.86586348 0.98103362
v -3.52306223 1.86586348 0.98103362
v -3.52306223 1.86586324 -0.50906796
v -3.52306223 1.78801934 -0.50906795
v -4.10796356 1.78801934 -0.50906795
v -4.10796356 1.86586324 -0.50906796
v -3.52306223 1.86586324 -0.50906796
v -4.10796356 1.78801934 -0.50906795
v -4.10796356 1.78801958 0.98103363
v -4.10796356 1.86586348 0.98103362
v -4.10796356 1.86586324 -0.50906796
v -4.10796356 1.78801958 0.98103363
v -3.52306223 1.78801958 0.98103363
v -3.52306223 1.86586348 0.98103362
v -4.10796356 1.86586348 0.98103362
v -3.52306223 1.78801958 0.98103363
v -3.52306223 1.78801934 -0.50906795
v -3.52306223 1.86586324 -0.50906796
v -3.52306223 1.86586348 0.98103362
vt 0.69613886 0.99978411
vt 0.91872215 0.99978411
vt 0.91872215 0.39849174
vt 0.69613886 0.39849174
vt 0.69570684 0.99978411
vt 0.69570684 0.39849174
vt 0.47312355 0.39849174
vt 0.47312355 0.99978411
vt 0.07215899 0.39805984
vt 0.07215899 0.17547655
vt 0.06390327 0.17547655
vt 0.06390327 0.39805984
vt 0.99109674 0.99978411
vt 0.99109674 0.39849174
vt 0.98284101 0.39849174
vt 0.98284101 0.99978411
vt 0.08084649 0.39805984
vt 0.08084649 0.17547655
vt 0.07259077 0.17547655
vt 0.07259077 0.39805984
vt 0.99978411 0.99978411
vt 0.99978411 0.39849174
vt 0.99152839 0.39849174
vt 0.99152839 0.99978411
vt 0.23666954 0.99978411
vt 0.47269130 0.99978411
vt 0.47269130 0.39849174
vt 0.23666954 0.39849174
vt 0.23623776 0.99978411
vt 0.23623776 0.39849174
vt 0.00021601 0.39849174
vt 0.00021601 0.99978411
vt 0.06347144 0.39805984
vt 0.06347144 0.16203809
vt 0.03205955 0.16203809
vt 0.03205955 0.39805984
vt 0.95056546 0.99978411
vt 0.95056546 0.39849174
vt 0.91915357 0.39849174
vt 0.91915357 0.99978411
vt 0.03162777 0.39805984
vt 0.03162777 0.16203809
vt 0.00021589 0.16203809
vt 0.00021589 0.39805984
vt 0.98240912 0.99978411
vt 0.98240912 0.39849174
vt 0.95099723 0.39849174
vt 0.95099723 0.99978411
f 1/1 2/2 3/3
f 1/1 3/3 4/4
f 5/5 6/6 7/7
f 5/5 7/7 8/8
f 9/9 10/10 11/11
f 9/9 11/11 12/12
f 13/13 14/14 15/15
f 13/13 15/15 16/16
f 17/17 18/18 19/19
f 17/17 19/19 20/20
f 21/21 22/22 23/23
f 21/21 23/23 24/24
f 25/25 26/26 27/27
f 25/25 27/27 28/28
f 29/29 30/30 31/31
f 29/29 31/31 32/32
f 33/33 34/34 35/35
f 33/33 35/35 36/36
f 37/37 38/38 39/39
f 37/37 39/39 40/40
f 41/41 42/42 43/43
f 41/41 43/43 44/44
f 45/45 46/46 47/47
f 45/45 47/47 48/48

