# https://github.com/mikedh/trimesh
v -4.17084682 0.09607587 -2.37266942
v -4.17022808 0.05617633 -2.37266942
v -4.17084682 0.09607587 0.11032545
v -3.34998313 0.09607587 -2.37266942
v -4.16960935 0.04592160 -2.37266942
v -4.16960935 0.04592160 0.11032545
v -0.78347072 0.09607587 0.11032545
v -0.58861613 0.09607587 -2.07444766
v 2.14862618 0.05237940 -2.37266942
v -4.14115436 -0.03316362 -2.37266942
v -4.15476312 0.00430206 0.11032545
v 2.14862618 0.05237940 0.11032545
v 0.21121534 0.09607587 0.02452890
v -0.57438864 0.09607587 -2.07225998
v -0.48778656 0.09607587 -2.03969136
v -0.46922912 0.09607587 -2.02802514
v 0.23101008 0.09607587 -1.56647380
v 0.32627232 0.09607587 -1.33387541
v 0.33926259 0.09607587 -1.25050936
v 0.34235550 0.09607587 -1.22426001
v 2.14862618 -0.06968825 -2.37266942
v -4.13806137 -0.04083861 -2.37266942
v -4.13806137 -0.04083861 0.11032545
v 2.14862618 -0.06967202 0.11032545
v 0.32256076 0.09607587 -0.32692079
v 0.25142339 0.09607587 -0.06467026
v 0.22544283 0.09607587 0.01723743
v 2.14862618 -0.06968825 -2.20861097
v -4.04960343 -0.06968825 -2.37266942
v -4.09228590 -0.05584747 0.11032545
v -4.04960343 -0.06967202 0.11032545
v -4.04960343 -0.06968825 -2.26694279
f 1 2 3
f 1 3 7
f 1 7 13
f 1 13 27
f 1 27 26
f 1 26 25
f 1 25 20
f 1 20 19
f 1 19 18
f 1 18 17
f 1 17 16
f 1 16 15
f 1 15 14
f 1 14 8
f 1 8 4
f 1 4 9
f 1 9 21
f 1 21 29
f 1 29 22
f 1 22 10
f 1 10 5
f 1 5 2
f 2 5 6
f 2 6 3
f 3 6 11
f 3 11 23
f 3 23 30
f 3 30 31
f 3 31 24
f 3 24 12
f 3 12 7
f 4 8 9
f 5 10 11
f 5 11 6
f 7 12 13
f 8 14 9
f 9 14 15
f 9 15 16
f 9 16 17
f 9 17 18
f 9 18 19
f 9 19 20
f 9 20 12
f 9 12 24
f 9 24 28
f 9 28 21
f 10 22 23
f 10 23 11
f 12 20 25
f 12 25 26
f 12 26 27
f 12 27 13
f 21 28 32
f 21 32 29
f 22 29 30
f 22 30 23
f 24 31 28
f 28 31 32
f 29 32 30
f 30 32 31

