mtllib material.mtl
usemtl material_0
v -1.13250363 0.86174621 0.86098877
v -1.14501786 0.96823836 0.79807766
v -1.12680554 0.96823836 0.79628392
v -1.12680507 0.86174621 0.86042754
v -1.11562705 0.86174621 0.86265097
v -1.09108090 0.96823837 0.80338999
v -1.07494140 0.96823837 0.81201675
v -1.11057699 0.86174621 0.86535028
v -1.14745939 0.86174622 0.91029159
v -1.15109205 0.86174622 0.90586523
v -1.15399218 0.85518786 0.90780298
v -1.14992583 0.85518786 0.91275791
v -1.10251808 0.86174622 0.90586523
v -1.04918528 0.96823839 0.94150110
v -1.06079495 0.96823839 0.95564755
v -1.10615075 0.86174622 0.91029159
v -1.14745939 0.86174622 0.91029159
v -1.19281614 0.96823839 0.95564755
v -1.20442581 0.96823839 0.94150116
v -1.15109205 0.86174622 0.90586523
v -1.14303303 0.86174621 0.86535028
v -1.17866969 0.96823837 0.81201675
v -1.16253018 0.96823837 0.80338999
v -1.13798308 0.86174621 0.86265097
v -1.09815669 0.86174622 0.88393871
v -1.03524625 0.96823838 0.87142470
v -1.03345251 0.96823838 0.88963695
v -1.09759533 0.86174622 0.88963721
v -1.12680507 0.86174622 0.91884688
v -1.12680554 0.96823839 0.98298999
v -1.14501786 0.96823839 0.98119625
v -1.13250363 0.86174622 0.91828565
v -1.15545344 0.86174622 0.88393871
v -1.21836483 0.96823838 0.87142470
v -1.21305251 0.96823837 0.85391226
v -1.15379131 0.86174622 0.87845913
v -1.06079495 0.96823837 0.82362636
v -1.10615075 0.86174621 0.86898283
v -1.07494140 0.96823839 0.96725722
v -1.11057699 0.86174622 0.91392420
v -1.21305251 0.96823839 0.92536165
v -1.15379131 0.86174622 0.90081529
v -1.03524625 0.96823838 0.90784921
v -1.09815669 0.86174622 0.89533577
v -1.16253018 0.96823839 0.97588392
v -1.13798308 0.86174622 0.91662345
v -1.20442581 0.96823837 0.83777281
v -1.15109205 0.86174622 0.87340919
v -1.04918528 0.96823837 0.83777275
v -1.10251808 0.86174622 0.87340919
v -1.09108090 0.96823839 0.97588392
v -1.11562705 0.86174622 0.91662345
v -1.21836483 0.96823838 0.90784921
v -1.15545344 0.86174622 0.89533577
v -1.04055858 0.96823839 0.92536159
v -1.09981883 0.86174622 0.90081529
v -1.17866969 0.96823839 0.96725716
v -1.14303303 0.86174622 0.91392420
v -1.19281614 0.96823837 0.82362636
v -1.14745939 0.86174621 0.86898283
v -1.04055858 0.96823837 0.85391231
v -1.09981883 0.86174622 0.87845913
v -1.10859323 0.96823839 0.98119625
v -1.12110651 0.86174622 0.91828565
v -1.22015858 0.96823838 0.88963695
v -1.15601468 0.86174622 0.88963721
v -1.10859323 0.96823836 0.79807766
v -1.12110651 0.86174621 0.86098877
v -1.13798308 0.86174622 0.91662345
v -1.14303303 0.86174622 0.91392420
v -1.14497101 0.85518786 0.91682426
v -1.13931799 0.85518786 0.91984586
v -1.10251808 0.86174622 0.87340919
v -1.09981883 0.86174622 0.87845913
v -1.09659648 0.85518786 0.87712429
v -1.09961808 0.85518786 0.87147133
v -1.09815669 0.86174622 0.88393871
v -1.09473574 0.85518786 0.88325814
v -1.13798308 0.86174621 0.86265097
v -1.13250363 0.86174621 0.86098877
v -1.13318408 0.85518785 0.85756783
v -1.13931799 0.85518785 0.85942850
v -1.13250363 0.86174622 0.91828565
v -1.13318408 0.85518786 0.92170654
v -1.10615075 0.86174621 0.86898283
v -1.10368443 0.85518786 0.86651645
v -1.12680507 0.86174621 0.86042754
v -1.12680507 0.85518785 0.85693953
v -1.11562705 0.86174621 0.86265097
v -1.11057699 0.86174621 0.86535028
v -1.10863924 0.85518785 0.86245004
v -1.11429226 0.85518785 0.85942850
v -1.14303303 0.86174621 0.86535028
v -1.14497101 0.85518785 0.86245004
v -1.12680507 0.86174622 0.91884688
v -1.12680507 0.85518786 0.92233483
v -1.11562705 0.86174622 0.91662345
v -1.12110651 0.86174622 0.91828565
v -1.12042618 0.85518786 0.92170654
v -1.11429226 0.85518786 0.91984586
v -1.12110651 0.86174621 0.86098877
v -1.12042618 0.85518785 0.85756783
v -1.14745939 0.86174621 0.86898283
v -1.14992583 0.85518786 0.86651645
v -1.15379131 0.86174622 0.87845913
v -1.15109205 0.86174622 0.87340919
v -1.15399218 0.85518786 0.87147133
v -1.15701377 0.85518786 0.87712429
v -1.11057699 0.86174622 0.91392420
v -1.10863924 0.85518786 0.91682426
v -1.15601468 0.86174622 0.88963721
v -1.15545344 0.86174622 0.88393871
v -1.15887451 0.85518786 0.88325814
v -1.15950274 0.85518786 0.88963715
v -1.10251808 0.86174622 0.90586523
v -1.10615075 0.86174622 0.91029159
v -1.10368443 0.85518786 0.91275791
v -1.09961808 0.85518786 0.90780298
v -1.15379131 0.86174622 0.90081529
v -1.15545344 0.86174622 0.89533577
v -1.15887451 0.85518786 0.89601616
v -1.15701377 0.85518786 0.90215001
v -1.09815669 0.86174622 0.89533577
v -1.09981883 0.86174622 0.90081529
v -1.09659648 0.85518786 0.90215001
v -1.09473574 0.85518786 0.89601616
v -1.12042618 0.85518785 0.85756783
v -1.11429226 0.85518785 0.85942850
v -1.04859853 0.89574116 0.70082948
v -1.08693576 0.89574116 0.68920002
v -1.09759533 0.86174622 0.88963721
v -1.09410751 0.85518786 0.88963715
v -1.15701377 0.85518786 0.87712429
v -1.15399218 0.85518786 0.87147133
v -1.29672766 0.89574117 0.77609870
v -1.31561291 0.89574118 0.81143049
v -1.13931799 0.85518785 0.85942850
v -1.13318408 0.85518785 0.85756783
v -1.16667461 0.89574116 0.68920002
v -1.20501196 0.89574116 0.70082948
v -1.09659648 0.85518786 0.87712429
v -1.09473574 0.85518786 0.88325814
v -0.92636806 0.89574118 0.84976778
v -0.93799758 0.89574118 0.81143049
v -1.14497101 0.85518785 0.86245004
v -1.24034381 0.89574116 0.71971473
v -1.09961808 0.85518786 0.87147133
v -0.95688277 0.89574117 0.77609864
v -1.15887451 0.85518786 0.88325814
v -1.32724249 0.89574118 0.84976778
v -1.10863924 0.85518785 0.86245004
v -1.01326668 0.89574116 0.71971473
v -1.09410751 0.85518786 0.88963715
v -1.09473574 0.85518786 0.89601616
v -0.92636806 0.89574120 0.92950663
v -0.92244124 0.89574119 0.88963721
v -1.10368443 0.85518786 0.91275791
v -1.10863924 0.85518786 0.91682426
v -1.01326668 0.89574122 1.05955968
v -0.98229808 0.89574121 1.03414437
v -1.14992583 0.85518786 0.86651645
v -1.27131248 0.89574117 0.74513004
v -1.10368443 0.85518786 0.86651645
v -0.98229808 0.89574117 0.74513004
v -1.12680507 0.85518785 0.85693953
v -1.12680531 0.89574116 0.68527320
v -1.09659648 0.85518786 0.90215001
v -1.09961808 0.85518786 0.90780298
v -0.95688277 0.89574121 1.00317571
v -0.93799758 0.89574120 0.96784392
v -1.11429226 0.85518786 0.91984586
v -1.12042618 0.85518786 0.92170654
v -1.08693576 0.89574122 1.09007439
v -1.04859853 0.89574122 1.07844493
v -1.12680507 0.85518786 0.92233483
v -1.13318408 0.85518786 0.92170654
v -1.16667461 0.89574122 1.09007439
v -1.12680531 0.89574122 1.09400115
v -1.14992583 0.85518786 0.91275791
v -1.15399218 0.85518786 0.90780298
v -1.29672766 0.89574121 1.00317583
v -1.27131248 0.89574121 1.03414437
v -1.13931799 0.85518786 0.91984586
v -1.14497101 0.85518786 0.91682426
v -1.24034381 0.89574122 1.05955968
v -1.20501196 0.89574122 1.07844493
v -1.15701377 0.85518786 0.90215001
v -1.15887451 0.85518786 0.89601616
v -1.32724249 0.89574120 0.92950663
v -1.31561291 0.89574120 0.96784398
v -1.15950274 0.85518786 0.88963715
v -1.33116925 0.89574119 0.88963721
v -1.13177526 0.86167254 0.86465047
v -1.12680507 0.86167254 0.86416093
v -1.12680554 0.96986402 0.79964556
v -1.14436197 0.96986402 0.80137469
v -1.11705565 0.86167254 0.86610017
v -1.11265123 0.86167254 0.86845444
v -1.07680905 0.96986402 0.81481185
v -1.09236729 0.96986402 0.80649575
v -1.14481950 0.86167255 0.90765164
v -1.14892328 0.85173342 0.91175536
v -1.15281332 0.85173342 0.90701530
v -1.14798784 0.86167255 0.90379111
v -1.10562229 0.86167255 0.90379105
v -1.10879064 0.86167255 0.90765164
v -1.06317198 0.96986405 0.95327046
v -1.05198050 0.96986404 0.93963351
v -1.14481950 0.86167255 0.90765164
v -1.14798784 0.86167255 0.90379111
v -1.20163059 0.96986404 0.93963351
v -1.19043911 0.96986405 0.95327052
v -1.14095891 0.86167254 0.86845444
v -1.13655436 0.86167254 0.86610017
v -1.16124380 0.96986402 0.80649575
v -1.17680204 0.96986402 0.81481185
v -1.10181832 0.86167255 0.88466702
v -1.10132873 0.86167255 0.88963721
v -1.03681421 0.96986404 0.88963695
v -1.03854334 0.96986403 0.87208053
v -1.12680507 0.86167255 0.91511349
v -1.13177526 0.86167255 0.91462395
v -1.14436197 0.96986405 0.97789921
v -1.12680554 0.96986405 0.97962835
v -1.15179181 0.86167255 0.88466702
v -1.15034211 0.86167254 0.87988786
v -1.20994675 0.96986403 0.85519870
v -1.21506774 0.96986403 0.87208053
v -1.10879064 0.86167254 0.87162278
v -1.06317198 0.96986403 0.82600345
v -1.11265123 0.86167255 0.91081999
v -1.07680905 0.96986405 0.96446206
v -1.15034211 0.86167255 0.89938656
v -1.20994675 0.96986404 0.92407521
v -1.10181832 0.86167255 0.89460740
v -1.03854334 0.96986404 0.90719338
v -1.13655436 0.86167255 0.91317425
v -1.16124380 0.96986405 0.97277816
v -1.14798784 0.86167254 0.87548337
v -1.20163071 0.96986403 0.83964046
v -1.10562229 0.86167254 0.87548337
v -1.05198050 0.96986403 0.83964040
v -1.11705565 0.86167255 0.91317425
v -1.09236729 0.96986405 0.97277816
v -1.15179181 0.86167255 0.89460740
v -1.21506774 0.96986404 0.90719338
v -1.10326803 0.86167255 0.89938656
v -1.04366434 0.96986404 0.92407515
v -1.14095891 0.86167255 0.91081999
v -1.17680204 0.96986405 0.96446206
v -1.14481950 0.86167254 0.87162278
v -1.19043911 0.96986403 0.82600345
v -1.10326803 0.86167254 0.87988786
v -1.04366434 0.96986403 0.85519876
v -1.12183487 0.86167255 0.91462395
v -1.10924911 0.96986405 0.97789915
v -1.15228128 0.86167255 0.88963721
v -1.21679688 0.96986404 0.88963695
v -1.12183487 0.86167254 0.86465047
v -1.10924911 0.96986402 0.80137475
v -1.13655436 0.86167255 0.91317425
v -1.13877535 0.85173342 0.91853599
v -1.14418328 0.85173342 0.91564540
v -1.14095891 0.86167255 0.91081999
v -1.10562229 0.86167254 0.87548337
v -1.10079694 0.85173341 0.87225900
v -1.09790635 0.85173341 0.87766687
v -1.10326803 0.86167254 0.87988786
v -1.09612632 0.85173341 0.88353477
v -1.10181832 0.86167255 0.88466702
v -1.13655436 0.86167254 0.86610017
v -1.13877535 0.85173335 0.86073832
v -1.13290751 0.85173335 0.85895834
v -1.13177526 0.86167254 0.86465047
v -1.13177526 0.86167255 0.91462395
v -1.13290751 0.85173342 0.92031596
v -1.10879064 0.86167254 0.87162278
v -1.10468698 0.85173341 0.86751900
v -1.12680507 0.85173335 0.85835729
v -1.12680507 0.86167254 0.86416093
v -1.11705565 0.86167254 0.86610017
v -1.11483479 0.85173341 0.86073838
v -1.10942698 0.85173341 0.86362890
v -1.11265123 0.86167254 0.86845444
v -1.14095891 0.86167254 0.86845444
v -1.14418328 0.85173335 0.86362890
v -1.12680507 0.86167255 0.91511349
v -1.12680507 0.85173342 0.92091701
v -1.11705565 0.86167255 0.91317425
v -1.11483490 0.85173342 0.91853593
v -1.12070274 0.85173342 0.92031596
v -1.12183487 0.86167255 0.91462395
v -1.12183487 0.86167254 0.86465047
v -1.12070274 0.85173341 0.85895834
v -1.14481950 0.86167254 0.87162278
v -1.14892328 0.85173335 0.86751894
v -1.15034211 0.86167254 0.87988786
v -1.15570390 0.85173335 0.87766687
v -1.15281332 0.85173335 0.87225900
v -1.14798784 0.86167254 0.87548337
v -1.11265123 0.86167255 0.91081999
v -1.10942698 0.85173342 0.91564540
v -1.15228128 0.86167255 0.88963721
v -1.15808499 0.85173335 0.88963715
v -1.15748394 0.85173335 0.88353477
v -1.15179181 0.86167255 0.88466702
v -1.10562229 0.86167255 0.90379105
v -1.10079694 0.85173342 0.90701530
v -1.10468698 0.85173342 0.91175536
v -1.10879064 0.86167255 0.90765164
v -1.15034211 0.86167255 0.89938656
v -1.15570390 0.85173341 0.90160743
v -1.15748394 0.85173335 0.89573954
v -1.15179181 0.86167255 0.89460740
v -1.10181832 0.86167255 0.89460740
v -1.09612632 0.85173341 0.89573954
v -1.09790635 0.85173341 0.90160743
v -1.10326803 0.86167255 0.89938656
v -1.12070274 0.85173341 0.85895834
v -1.08676827 0.89210706 0.68835804
v -1.04826999 0.89210706 0.70003638
v -1.11483479 0.85173341 0.86073838
v -1.09552526 0.85173341 0.88963715
v -1.10132873 0.86167255 0.88963721
v -1.15570390 0.85173335 0.87766687
v -1.31640613 0.89210708 0.81110195
v -1.29744148 0.89210708 0.77562175
v -1.15281332 0.85173335 0.87225900
v -1.13877535 0.85173335 0.86073832
v -1.20534050 0.89210706 0.70003638
v -1.16684210 0.89210706 0.68835804
v -1.13290751 0.85173335 0.85895834
v -1.09790635 0.85173341 0.87766687
v -0.93720436 0.89210708 0.81110195
v -0.92552602 0.89210709 0.84960029
v -1.09612632 0.85173341 0.88353477
v -1.14418328 0.85173335 0.86362890
v -1.24082077 0.89210707 0.71900097
v -1.10079694 0.85173341 0.87225900
v -0.95616901 0.89210708 0.77562169
v -1.15748394 0.85173335 0.88353477
v -1.32808447 0.89210709 0.84960029
v -1.01278973 0.89210707 0.71900097
v -1.10942698 0.85173341 0.86362890
v -1.09552526 0.85173341 0.88963715
v -0.92158276 0.89210710 0.88963721
v -0.92552602 0.89210710 0.92967412
v -1.09612632 0.85173341 0.89573954
v -1.10468698 0.85173342 0.91175536
v -0.98169100 0.89210712 1.03475139
v -1.01278973 0.89210712 1.06027350
v -1.10942698 0.85173342 0.91564540
v -1.27191949 0.89210707 0.74452302
v -1.14892328 0.85173335 0.86751894
v -0.98169100 0.89210707 0.74452302
v -1.10468698 0.85173341 0.86751900
v -1.12680531 0.89210706 0.68441472
v -1.12680507 0.85173335 0.85835729
v -1.09790635 0.85173341 0.90160743
v -0.93720436 0.89210711 0.96817246
v -0.95616901 0.89210711 1.00365267
v -1.10079694 0.85173342 0.90701530
v -1.11483490 0.85173342 0.91853593
v -1.04826999 0.89210713 1.07923803
v -1.08676839 0.89210713 1.09091649
v -1.12070274 0.85173342 0.92031596
v -1.12680507 0.85173342 0.92091701
v -1.12680531 0.89210713 1.09485969
v -1.16684210 0.89210713 1.09091649
v -1.13290751 0.85173342 0.92031596
v -1.14892328 0.85173342 0.91175536
v -1.27191949 0.89210712 1.03475139
v -1.29744148 0.89210711 1.00365278
v -1.15281332 0.85173342 0.90701530
v -1.13877535 0.85173342 0.91853599
v -1.20534050 0.89210713 1.07923803
v -1.24082077 0.89210712 1.06027338
v -1.14418328 0.85173342 0.91564540
v -1.15570390 0.85173341 0.90160743
v -1.31640613 0.89210711 0.96817252
v -1.32808447 0.89210710 0.92967412
v -1.15748394 0.85173335 0.89573954
v -1.15808499 0.85173335 0.88963715
v -1.33202779 0.89210710 0.88963721
v -1.10859323 0.96823836 0.79807766
v -1.12680554 0.96823836 0.79628392
v -1.12680554 0.96986402 0.79964556
v -1.10924911 0.96986402 0.80137475
v -1.09108090 0.96823837 0.80338999
v -1.09236729 0.96986402 0.80649575
v -1.07494140 0.96823837 0.81201675
v -1.07680905 0.96986402 0.81481185
v -1.06079495 0.96823837 0.82362636
v -1.06317198 0.96986403 0.82600345
v -1.04918528 0.96823837 0.83777275
v -1.05198050 0.96986403 0.83964040
v -1.04055858 0.96823837 0.85391231
v -1.04366434 0.96986403 0.85519876
v -1.03524625 0.96823838 0.87142470
v -1.03854334 0.96986403 0.87208053
v -1.03345251 0.96823838 0.88963695
v -1.03681421 0.96986404 0.88963695
v -1.03524625 0.96823838 0.90784921
v -1.03854334 0.96986404 0.90719338
v -1.04055858 0.96823839 0.92536159
v -1.04366434 0.96986404 0.92407515
v -1.04918528 0.96823839 0.94150110
v -1.05198050 0.96986404 0.93963351
v -1.06079495 0.96823839 0.95564755
v -1.06317198 0.96986405 0.95327046
v -1.07494140 0.96823839 0.96725722
v -1.07680905 0.96986405 0.96446206
v -1.09108090 0.96823839 0.97588392
v -1.09236729 0.96986405 0.97277816
v -1.10859323 0.96823839 0.98119625
v -1.10924911 0.96986405 0.97789915
v -1.12680554 0.96823839 0.98298999
v -1.12680554 0.96986405 0.97962835
v -1.14501786 0.96823839 0.98119625
v -1.14436197 0.96986405 0.97789921
v -1.16253018 0.96823839 0.97588392
v -1.16124380 0.96986405 0.97277816
v -1.17866969 0.96823839 0.96725716
v -1.17680204 0.96986405 0.96446206
v -1.19281614 0.96823839 0.95564755
v -1.19043911 0.96986405 0.95327052
v -1.20442581 0.96823839 0.94150116
v -1.20163059 0.96986404 0.93963351
v -1.21305251 0.96823839 0.92536165
v -1.20994675 0.96986404 0.92407521
v -1.21836483 0.96823838 0.90784921
v -1.21506774 0.96986404 0.90719338
v -1.22015858 0.96823838 0.88963695
v -1.21679688 0.96986404 0.88963695
v -1.21836483 0.96823838 0.87142470
v -1.21506774 0.96986403 0.87208053
v -1.21305251 0.96823837 0.85391226
v -1.20994675 0.96986403 0.85519870
v -1.20442581 0.96823837 0.83777281
v -1.20163071 0.96986403 0.83964046
v -1.19281614 0.96823837 0.82362636
v -1.19043911 0.96986403 0.82600345
v -1.17866969 0.96823837 0.81201675
v -1.17680204 0.96986402 0.81481185
v -1.16253018 0.96823837 0.80338999
v -1.16124380 0.96986402 0.80649575
v -1.14501786 0.96823836 0.79807766
v -1.14436197 0.96986402 0.80137469
v -1.24034381 0.89574116 0.71971473
v -1.20501196 0.89574116 0.70082948
v -1.20534050 0.89210706 0.70003638
v -1.24082077 0.89210707 0.71900097
v -1.16667461 0.89574116 0.68920002
v -1.12680531 0.89574116 0.68527320
v -1.12680531 0.89210706 0.68441472
v -1.16684210 0.89210706 0.68835804
v -1.29672766 0.89574121 1.00317583
v -1.31561291 0.89574120 0.96784398
v -1.31640613 0.89210711 0.96817252
v -1.29744148 0.89210711 1.00365278
v -1.27131248 0.89574117 0.74513004
v -1.27191949 0.89210707 0.74452302
v -1.32724249 0.89574120 0.92950663
v -1.33116925 0.89574119 0.88963721
v -1.33202779 0.89210710 0.88963721
v -1.32808447 0.89210710 0.92967412
v -1.32724249 0.89574118 0.84976778
v -1.31561291 0.89574118 0.81143049
v -1.31640613 0.89210708 0.81110195
v -1.32808447 0.89210709 0.84960029
v -1.29672766 0.89574117 0.77609870
v -1.29744148 0.89210708 0.77562175
v -1.01326668 0.89574122 1.05955968
v -1.04859853 0.89574122 1.07844493
v -1.04826999 0.89210713 1.07923803
v -1.01278973 0.89210712 1.06027350
v -1.27131248 0.89574121 1.03414437
v -1.27191949 0.89210712 1.03475139
v -1.08693576 0.89574122 1.09007439
v -1.12680531 0.89574122 1.09400115
v -1.12680531 0.89210713 1.09485969
v -1.08676839 0.89210713 1.09091649
v -1.16667461 0.89574122 1.09007439
v -1.20501196 0.89574122 1.07844493
v -1.20534050 0.89210713 1.07923803
v -1.16684210 0.89210713 1.09091649
v -1.24034381 0.89574122 1.05955968
v -1.24082077 0.89210712 1.06027338
v -0.95688277 0.89574117 0.77609864
v -0.93799758 0.89574118 0.81143049
v -0.93720436 0.89210708 0.81110195
v -0.95616901 0.89210708 0.77562169
v -0.98229808 0.89574121 1.03414437
v -1.01326668 0.89574122 1.05955968
v -1.01278973 0.89210712 1.06027350
v -0.98169100 0.89210712 1.03475139
v -0.92636806 0.89574118 0.84976778
v -0.92244124 0.89574119 0.88963721
v -0.92158276 0.89210710 0.88963721
v -0.92552602 0.89210709 0.84960029
v -0.92636806 0.89574120 0.92950663
v -0.93799758 0.89574120 0.96784392
v -0.93720436 0.89210711 0.96817246
v -0.92552602 0.89210710 0.92967412
v -0.95688277 0.89574121 1.00317571
v -0.95616901 0.89210711 1.00365267
v -1.08693576 0.89574116 0.68920002
v -1.08676827 0.89210706 0.68835804
v -0.98229808 0.89574117 0.74513004
v -0.98169100 0.89210707 0.74452302
v -1.04859853 0.89574116 0.70082948
v -1.04826999 0.89210706 0.70003638
v -1.01326668 0.89574116 0.71971473
v -1.01278973 0.89210707 0.71900097
v -1.13250363 0.86174587 -1.27332499
v -1.14501786 0.96823802 -1.33623628
v -1.12680554 0.96823802 -1.33802990
v -1.12680507 0.86174587 -1.27388646
v -1.11562705 0.86174587 -1.27166273
v -1.09108090 0.96823802 -1.33092383
v -1.07494140 0.96823802 -1.32229713
v -1.11057699 0.86174587 -1.26896360
v -1.14745939 0.86174587 -1.22402241
v -1.15109205 0.86174587 -1.22844865
v -1.15399218 0.85518751 -1.22651078
v -1.14992583 0.85518752 -1.22155597
v -1.10251808 0.86174587 -1.22844865
v -1.04918528 0.96823804 -1.19281272
v -1.06079495 0.96823804 -1.17866639
v -1.10615075 0.86174587 -1.22402241
v -1.14745939 0.86174587 -1.22402241
v -1.19281614 0.96823804 -1.17866639
v -1.20442581 0.96823804 -1.19281272
v -1.15109205 0.86174587 -1.22844865
v -1.14303303 0.86174587 -1.26896360
v -1.17866969 0.96823802 -1.32229713
v -1.16253018 0.96823802 -1.33092383
v -1.13798308 0.86174587 -1.27166273
v -1.09815669 0.86174587 -1.25037529
v -1.03524625 0.96823803 -1.26288919
v -1.03345251 0.96823803 -1.24467687
v -1.09759533 0.86174587 -1.24467685
v -1.12680507 0.86174587 -1.21546700
v -1.12680554 0.96823805 -1.15132383
v -1.14501786 0.96823805 -1.15311770
v -1.13250363 0.86174587 -1.21602823
v -1.15545344 0.86174587 -1.25037529
v -1.21836483 0.96823803 -1.26288919
v -1.21305251 0.96823803 -1.28040151
v -1.15379131 0.86174587 -1.25585487
v -1.06079495 0.96823802 -1.31068758
v -1.10615075 0.86174587 -1.26533105
v -1.07494140 0.96823804 -1.16705660
v -1.11057699 0.86174587 -1.22038986
v -1.21305251 0.96823804 -1.20895223
v -1.15379131 0.86174587 -1.23349859
v -1.03524625 0.96823803 -1.22646455
v -1.09815669 0.86174587 -1.23897817
v -1.16253018 0.96823805 -1.15842990
v -1.13798308 0.86174587 -1.21769049
v -1.20442581 0.96823802 -1.29654125
v -1.15109205 0.86174587 -1.26090457
v -1.04918528 0.96823802 -1.29654125
v -1.10251808 0.86174587 -1.26090457
v -1.09108090 0.96823805 -1.15842990
v -1.11562705 0.86174587 -1.21769049
v -1.21836483 0.96823803 -1.22646455
v -1.15545344 0.86174587 -1.23897817
v -1.04055858 0.96823804 -1.20895223
v -1.09981883 0.86174587 -1.23349859
v -1.17866969 0.96823804 -1.16705660
v -1.14303303 0.86174587 -1.22038986
v -1.19281614 0.96823802 -1.31068758
v -1.14745939 0.86174587 -1.26533105
v -1.04055858 0.96823803 -1.28040151
v -1.09981883 0.86174587 -1.25585487
v -1.10859323 0.96823805 -1.15311770
v -1.12110651 0.86174587 -1.21602823
v -1.22015858 0.96823803 -1.24467687
v -1.15601468 0.86174587 -1.24467685
v -1.10859323 0.96823802 -1.33623628
v -1.12110651 0.86174587 -1.27332499
v -1.13798308 0.86174587 -1.21769049
v -1.14303303 0.86174587 -1.22038986
v -1.14497101 0.85518752 -1.21748950
v -1.13931799 0.85518752 -1.21446802
v -1.10251808 0.86174587 -1.26090457
v -1.09981883 0.86174587 -1.25585487
v -1.09659648 0.85518751 -1.25718953
v -1.09961808 0.85518751 -1.26284268
v -1.09815669 0.86174587 -1.25037529
v -1.09473574 0.85518751 -1.25105574
v -1.13798308 0.86174587 -1.27166273
v -1.13250363 0.86174587 -1.27332499
v -1.13318408 0.85518751 -1.27674605
v -1.13931799 0.85518751 -1.27488544
v -1.13250363 0.86174587 -1.21602823
v -1.13318408 0.85518752 -1.21260717
v -1.10615075 0.86174587 -1.26533105
v -1.10368443 0.85518751 -1.26779749
v -1.12680507 0.86174587 -1.27388646
v -1.12680507 0.85518751 -1.27737429
v -1.11562705 0.86174587 -1.27166273
v -1.11057699 0.86174587 -1.26896360
v -1.10863924 0.85518751 -1.27186396
v -1.11429226 0.85518751 -1.27488544
v -1.14303303 0.86174587 -1.26896360
v -1.14497101 0.85518751 -1.27186396
v -1.12680507 0.86174587 -1.21546700
v -1.12680507 0.85518752 -1.21197917
v -1.11562705 0.86174587 -1.21769049
v -1.12110651 0.86174587 -1.21602823
v -1.12042618 0.85518752 -1.21260717
v -1.11429226 0.85518752 -1.21446802
v -1.12110651 0.86174587 -1.27332499
v -1.12042618 0.85518751 -1.27674605
v -1.14745939 0.86174587 -1.26533105
v -1.14992583 0.85518751 -1.26779749
v -1.15379131 0.86174587 -1.25585487
v -1.15109205 0.86174587 -1.26090457
v -1.15399218 0.85518751 -1.26284268
v -1.15701377 0.85518751 -1.25718953
v -1.11057699 0.86174587 -1.22038986
v -1.10863924 0.85518752 -1.21748950
v -1.15601468 0.86174587 -1.24467685
v -1.15545344 0.86174587 -1.25037529
v -1.15887451 0.85518751 -1.25105574
v -1.15950274 0.85518751 -1.24467685
v -1.10251808 0.86174587 -1.22844865
v -1.10615075 0.86174587 -1.22402241
v -1.10368443 0.85518752 -1.22155597
v -1.09961808 0.85518751 -1.22651078
v -1.15379131 0.86174587 -1.23349859
v -1.15545344 0.86174587 -1.23897817
v -1.15887451 0.85518751 -1.23829772
v -1.15701377 0.85518751 -1.23216369
v -1.09815669 0.86174587 -1.23897817
v -1.09981883 0.86174587 -1.23349859
v -1.09659648 0.85518751 -1.23216393
v -1.09473574 0.85518751 -1.23829772
v -1.12042618 0.85518751 -1.27674605
v -1.11429226 0.85518751 -1.27488544
v -1.04859853 0.89574081 -1.43348458
v -1.08693576 0.89574081 -1.44511392
v -1.09759533 0.86174587 -1.24467685
v -1.09410751 0.85518751 -1.24467685
v -1.15701377 0.85518751 -1.25718953
v -1.15399218 0.85518751 -1.26284268
v -1.29672766 0.89574082 -1.35821512
v -1.31561291 0.89574083 -1.32288339
v -1.13931799 0.85518751 -1.27488544
v -1.13318408 0.85518751 -1.27674605
v -1.16667461 0.89574081 -1.44511392
v -1.20501196 0.89574081 -1.43348458
v -1.09659648 0.85518751 -1.25718953
v -1.09473574 0.85518751 -1.25105574
v -0.92636806 0.89574084 -1.28454616
v -0.93799758 0.89574083 -1.32288339
v -1.14497101 0.85518751 -1.27186396
v -1.24034381 0.89574082 -1.41459897
v -1.09961808 0.85518751 -1.26284268
v -0.95688277 0.89574082 -1.35821512
v -1.15887451 0.85518751 -1.25105574
v -1.32724249 0.89574084 -1.28454616
v -1.10863924 0.85518751 -1.27186396
v -1.01326668 0.89574082 -1.41459897
v -1.09410751 0.85518751 -1.24467685
v -1.09473574 0.85518751 -1.23829772
v -0.92636806 0.89574085 -1.20480707
v -0.92244124 0.89574084 -1.24467686
v -1.10368443 0.85518752 -1.22155597
v -1.10863924 0.85518752 -1.21748950
v -1.01326668 0.89574087 -1.07475426
v -0.98229808 0.89574087 -1.10016957
v -1.14992583 0.85518751 -1.26779749
v -1.27131248 0.89574082 -1.38918379
v -1.10368443 0.85518751 -1.26779749
v -0.98229808 0.89574082 -1.38918379
v -1.12680507 0.85518751 -1.27737429
v -1.12680531 0.89574081 -1.44904068
v -1.09659648 0.85518751 -1.23216393
v -1.09961808 0.85518751 -1.22651078
v -0.95688277 0.89574086 -1.13113811
v -0.93799758 0.89574086 -1.16646984
v -1.11429226 0.85518752 -1.21446802
v -1.12042618 0.85518752 -1.21260717
v -1.08693576 0.89574088 -1.04423943
v -1.04859853 0.89574087 -1.05586901
v -1.12680507 0.85518752 -1.21197917
v -1.13318408 0.85518752 -1.21260717
v -1.16667461 0.89574088 -1.04423943
v -1.12680531 0.89574088 -1.04031267
v -1.14992583 0.85518752 -1.22155597
v -1.15399218 0.85518751 -1.22651078
v -1.29672766 0.89574086 -1.13113811
v -1.27131248 0.89574087 -1.10016957
v -1.13931799 0.85518752 -1.21446802
v -1.14497101 0.85518752 -1.21748950
v -1.24034381 0.89574087 -1.07475426
v -1.20501196 0.89574087 -1.05586901
v -1.15701377 0.85518751 -1.23216369
v -1.15887451 0.85518751 -1.23829772
v -1.32724249 0.89574085 -1.20480707
v -1.31561291 0.89574086 -1.16646984
v -1.15950274 0.85518751 -1.24467685
v -1.33116925 0.89574084 -1.24467686
v -1.13177526 0.86167219 -1.26966336
v -1.12680507 0.86167219 -1.27015283
v -1.12680554 0.96986367 -1.33466820
v -1.14436197 0.96986367 -1.33293919
v -1.11705565 0.86167219 -1.26821377
v -1.11265123 0.86167220 -1.26585939
v -1.07680905 0.96986368 -1.31950215
v -1.09236729 0.96986368 -1.32781819
v -1.14481950 0.86167220 -1.22666218
v -1.14892328 0.85173307 -1.22255852
v -1.15281332 0.85173307 -1.22729852
v -1.14798784 0.86167220 -1.23052289
v -1.10562229 0.86167220 -1.23052289
v -1.10879064 0.86167220 -1.22666218
v -1.06317198 0.96986370 -1.18104343
v -1.05198050 0.96986370 -1.19468025
v -1.14481950 0.86167220 -1.22666218
v -1.14798784 0.86167220 -1.23052289
v -1.20163059 0.96986370 -1.19468025
v -1.19043911 0.96986370 -1.18104343
v -1.14095891 0.86167220 -1.26585939
v -1.13655436 0.86167219 -1.26821377
v -1.16124380 0.96986368 -1.32781819
v -1.17680204 0.96986368 -1.31950215
v -1.10181832 0.86167220 -1.24964692
v -1.10132873 0.86167220 -1.24467685
v -1.03681421 0.96986369 -1.24467687
v -1.03854334 0.96986369 -1.26223330
v -1.12680507 0.86167220 -1.21920039
v -1.13177526 0.86167220 -1.21968987
v -1.14436197 0.96986370 -1.15641479
v -1.12680554 0.96986370 -1.15468554
v -1.15179181 0.86167220 -1.24964692
v -1.15034211 0.86167220 -1.25442602
v -1.20994675 0.96986368 -1.27911500
v -1.21506774 0.96986369 -1.26223330
v -1.10879064 0.86167220 -1.26269104
v -1.06317198 0.96986368 -1.30831055
v -1.11265123 0.86167220 -1.22349384
v -1.07680905 0.96986370 -1.16985182
v -1.15034211 0.86167220 -1.23492720
v -1.20994675 0.96986369 -1.21023873
v -1.10181832 0.86167220 -1.23970654
v -1.03854334 0.96986369 -1.22712044
v -1.13655436 0.86167220 -1.22113969
v -1.16124380 0.96986370 -1.16153578
v -1.14798784 0.86167220 -1.25883057
v -1.20163071 0.96986368 -1.29467348
v -1.10562229 0.86167220 -1.25883057
v -1.05198050 0.96986368 -1.29467348
v -1.11705565 0.86167220 -1.22113969
v -1.09236729 0.96986370 -1.16153578
v -1.15179181 0.86167220 -1.23970654
v -1.21506774 0.96986369 -1.22712044
v -1.10326803 0.86167220 -1.23492720
v -1.04366434 0.96986369 -1.21023873
v -1.14095891 0.86167220 -1.22349384
v -1.17680204 0.96986370 -1.16985182
v -1.14481950 0.86167220 -1.26269104
v -1.19043911 0.96986368 -1.30831055
v -1.10326803 0.86167220 -1.25442602
v -1.04366434 0.96986368 -1.27911500
v -1.12183487 0.86167220 -1.21968987
v -1.10924911 0.96986370 -1.15641479
v -1.15228128 0.86167220 -1.24467685
v -1.21679688 0.96986369 -1.24467687
v -1.12183487 0.86167219 -1.26966336
v -1.10924911 0.96986367 -1.33293919
v -1.13655436 0.86167220 -1.22113969
v -1.13877535 0.85173307 -1.21577789
v -1.14418328 0.85173307 -1.21866848
v -1.14095891 0.86167220 -1.22349384
v -1.10562229 0.86167220 -1.25883057
v -1.10079694 0.85173306 -1.26205494
v -1.09790635 0.85173306 -1.25664689
v -1.10326803 0.86167220 -1.25442602
v -1.09612632 0.85173306 -1.25077917
v -1.10181832 0.86167220 -1.24964692
v -1.13655436 0.86167219 -1.26821377
v -1.13877535 0.85173300 -1.27357556
v -1.13290751 0.85173300 -1.27535560
v -1.13177526 0.86167219 -1.26966336
v -1.13177526 0.86167220 -1.21968987
v -1.13290751 0.85173307 -1.21399786
v -1.10879064 0.86167220 -1.26269104
v -1.10468698 0.85173306 -1.26679494
v -1.12680507 0.85173300 -1.27595641
v -1.12680507 0.86167219 -1.27015283
v -1.11705565 0.86167219 -1.26821377
v -1.11483479 0.85173306 -1.27357556
v -1.10942698 0.85173306 -1.27068498
v -1.11265123 0.86167220 -1.26585939
v -1.14095891 0.86167220 -1.26585939
v -1.14418328 0.85173300 -1.27068498
v -1.12680507 0.86167220 -1.21920039
v -1.12680507 0.85173307 -1.21339705
v -1.11705565 0.86167220 -1.22113969
v -1.11483490 0.85173307 -1.21577789
v -1.12070274 0.85173307 -1.21399786
v -1.12183487 0.86167220 -1.21968987
v -1.12183487 0.86167219 -1.26966336
v -1.12070274 0.85173306 -1.27535560
v -1.14481950 0.86167220 -1.26269104
v -1.14892328 0.85173300 -1.26679494
v -1.15034211 0.86167220 -1.25442602
v -1.15570390 0.85173300 -1.25664689
v -1.15281332 0.85173300 -1.26205494
v -1.14798784 0.86167220 -1.25883057
v -1.11265123 0.86167220 -1.22349384
v -1.10942698 0.85173307 -1.21866848
v -1.15228128 0.86167220 -1.24467685
v -1.15808499 0.85173300 -1.24467685
v -1.15748394 0.85173300 -1.25077917
v -1.15179181 0.86167220 -1.24964692
v -1.10562229 0.86167220 -1.23052289
v -1.10079694 0.85173307 -1.22729852
v -1.10468698 0.85173307 -1.22255852
v -1.10879064 0.86167220 -1.22666218
v -1.15034211 0.86167220 -1.23492720
v -1.15570390 0.85173307 -1.23270657
v -1.15748394 0.85173301 -1.23857429
v -1.15179181 0.86167220 -1.23970654
v -1.10181832 0.86167220 -1.23970654
v -1.09612632 0.85173307 -1.23857429
v -1.09790635 0.85173307 -1.23270657
v -1.10326803 0.86167220 -1.23492720
v -1.12070274 0.85173306 -1.27535560
v -1.08676827 0.89210671 -1.44595602
v -1.04826999 0.89210672 -1.43427756
v -1.11483479 0.85173306 -1.27357556
v -1.09552526 0.85173306 -1.24467685
v -1.10132873 0.86167220 -1.24467685
v -1.15570390 0.85173300 -1.25664689
v -1.31640613 0.89210673 -1.32321193
v -1.29744148 0.89210673 -1.35869196
v -1.15281332 0.85173300 -1.26205494
v -1.13877535 0.85173300 -1.27357556
v -1.20534050 0.89210672 -1.43427756
v -1.16684210 0.89210671 -1.44595602
v -1.13290751 0.85173300 -1.27535560
v -1.09790635 0.85173306 -1.25664689
v -0.93720436 0.89210673 -1.32321193
v -0.92552602 0.89210674 -1.28471353
v -1.09612632 0.85173306 -1.25077917
v -1.14418328 0.85173300 -1.27068498
v -1.24082077 0.89210672 -1.41531279
v -1.10079694 0.85173306 -1.26205494
v -0.95616901 0.89210673 -1.35869220
v -1.15748394 0.85173300 -1.25077917
v -1.32808447 0.89210674 -1.28471353
v -1.01278973 0.89210672 -1.41531279
v -1.10942698 0.85173306 -1.27068498
v -1.09552526 0.85173306 -1.24467685
v -0.92158276 0.89210675 -1.24467685
v -0.92552602 0.89210675 -1.20463970
v -1.09612632 0.85173307 -1.23857429
v -1.10468698 0.85173307 -1.22255852
v -0.98169100 0.89210677 -1.09956243
v -1.01278973 0.89210678 -1.07404044
v -1.10942698 0.85173307 -1.21866848
v -1.27191949 0.89210672 -1.38979104
v -1.14892328 0.85173300 -1.26679494
v -0.98169100 0.89210672 -1.38979104
v -1.10468698 0.85173306 -1.26679494
v -1.12680531 0.89210671 -1.44989922
v -1.12680507 0.85173300 -1.27595641
v -1.09790635 0.85173307 -1.23270657
v -0.93720436 0.89210676 -1.16614130
v -0.95616901 0.89210677 -1.13066128
v -1.10079694 0.85173307 -1.22729852
v -1.11483490 0.85173307 -1.21577789
v -1.04826999 0.89210678 -1.05507579
v -1.08676839 0.89210678 -1.04339757
v -1.12070274 0.85173307 -1.21399786
v -1.12680507 0.85173307 -1.21339705
v -1.12680531 0.89210678 -1.03945413
v -1.16684210 0.89210678 -1.04339757
v -1.13290751 0.85173307 -1.21399786
v -1.14892328 0.85173307 -1.22255852
v -1.27191949 0.89210677 -1.09956243
v -1.29744148 0.89210677 -1.13066104
v -1.15281332 0.85173307 -1.22729852
v -1.13877535 0.85173307 -1.21577789
v -1.20534050 0.89210678 -1.05507579
v -1.24082077 0.89210678 -1.07404044
v -1.14418328 0.85173307 -1.21866848
v -1.15570390 0.85173307 -1.23270657
v -1.31640613 0.89210676 -1.16614130
v -1.32808447 0.89210675 -1.20463970
v -1.15748394 0.85173301 -1.23857429
v -1.15808499 0.85173300 -1.24467685
v -1.33202779 0.89210675 -1.24467685
v -1.10859323 0.96823802 -1.33623628
v -1.12680554 0.96823802 -1.33802990
v -1.12680554 0.96986367 -1.33466820
v -1.10924911 0.96986367 -1.33293919
v -1.09108090 0.96823802 -1.33092383
v -1.09236729 0.96986368 -1.32781819
v -1.07494140 0.96823802 -1.32229713
v -1.07680905 0.96986368 -1.31950215
v -1.06079495 0.96823802 -1.31068758
v -1.06317198 0.96986368 -1.30831055
v -1.04918528 0.96823802 -1.29654125
v -1.05198050 0.96986368 -1.29467348
v -1.04055858 0.96823803 -1.28040151
v -1.04366434 0.96986368 -1.27911500
v -1.03524625 0.96823803 -1.26288919
v -1.03854334 0.96986369 -1.26223330
v -1.03345251 0.96823803 -1.24467687
v -1.03681421 0.96986369 -1.24467687
v -1.03524625 0.96823803 -1.22646455
v -1.03854334 0.96986369 -1.22712044
v -1.04055858 0.96823804 -1.20895223
v -1.04366434 0.96986369 -1.21023873
v -1.04918528 0.96823804 -1.19281272
v -1.05198050 0.96986370 -1.19468025
v -1.06079495 0.96823804 -1.17866639
v -1.06317198 0.96986370 -1.18104343
v -1.07494140 0.96823804 -1.16705660
v -1.07680905 0.96986370 -1.16985182
v -1.09108090 0.96823805 -1.15842990
v -1.09236729 0.96986370 -1.16153578
v -1.10859323 0.96823805 -1.15311770
v -1.10924911 0.96986370 -1.15641479
v -1.12680554 0.96823805 -1.15132383
v -1.12680554 0.96986370 -1.15468554
v -1.14501786 0.96823805 -1.15311770
v -1.14436197 0.96986370 -1.15641479
v -1.16253018 0.96823805 -1.15842990
v -1.16124380 0.96986370 -1.16153578
v -1.17866969 0.96823804 -1.16705660
v -1.17680204 0.96986370 -1.16985182
v -1.19281614 0.96823804 -1.17866639
v -1.19043911 0.96986370 -1.18104343
v -1.20442581 0.96823804 -1.19281272
v -1.20163059 0.96986370 -1.19468025
v -1.21305251 0.96823804 -1.20895223
v -1.20994675 0.96986369 -1.21023873
v -1.21836483 0.96823803 -1.22646455
v -1.21506774 0.96986369 -1.22712044
v -1.22015858 0.96823803 -1.24467687
v -1.21679688 0.96986369 -1.24467687
v -1.21836483 0.96823803 -1.26288919
v -1.21506774 0.96986369 -1.26223330
v -1.21305251 0.96823803 -1.28040151
v -1.20994675 0.96986368 -1.27911500
v -1.20442581 0.96823802 -1.29654125
v -1.20163071 0.96986368 -1.29467348
v -1.19281614 0.96823802 -1.31068758
v -1.19043911 0.96986368 -1.30831055
v -1.17866969 0.96823802 -1.32229713
v -1.17680204 0.96986368 -1.31950215
v -1.16253018 0.96823802 -1.33092383
v -1.16124380 0.96986368 -1.32781819
v -1.14501786 0.96823802 -1.33623628
v -1.14436197 0.96986367 -1.33293919
v -1.24034381 0.89574082 -1.41459897
v -1.20501196 0.89574081 -1.43348458
v -1.20534050 0.89210672 -1.43427756
v -1.24082077 0.89210672 -1.41531279
v -1.16667461 0.89574081 -1.44511392
v -1.12680531 0.89574081 -1.44904068
v -1.12680531 0.89210671 -1.44989922
v -1.16684210 0.89210671 -1.44595602
v -1.29672766 0.89574086 -1.13113811
v -1.31561291 0.89574086 -1.16646984
v -1.31640613 0.89210676 -1.16614130
v -1.29744148 0.89210677 -1.13066104
v -1.27131248 0.89574082 -1.38918379
v -1.27191949 0.89210672 -1.38979104
v -1.32724249 0.89574085 -1.20480707
v -1.33116925 0.89574084 -1.24467686
v -1.33202779 0.89210675 -1.24467685
v -1.32808447 0.89210675 -1.20463970
v -1.32724249 0.89574084 -1.28454616
v -1.31561291 0.89574083 -1.32288339
v -1.31640613 0.89210673 -1.32321193
v -1.32808447 0.89210674 -1.28471353
v -1.29672766 0.89574082 -1.35821512
v -1.29744148 0.89210673 -1.35869196
v -1.01326668 0.89574087 -1.07475426
v -1.04859853 0.89574087 -1.05586901
v -1.04826999 0.89210678 -1.05507579
v -1.01278973 0.89210678 -1.07404044
v -1.27131248 0.89574087 -1.10016957
v -1.27191949 0.89210677 -1.09956243
v -1.08693576 0.89574088 -1.04423943
v -1.12680531 0.89574088 -1.04031267
v -1.12680531 0.89210678 -1.03945413
v -1.08676839 0.89210678 -1.04339757
v -1.16667461 0.89574088 -1.04423943
v -1.20501196 0.89574087 -1.05586901
v -1.20534050 0.89210678 -1.05507579
v -1.16684210 0.89210678 -1.04339757
v -1.24034381 0.89574087 -1.07475426
v -1.24082077 0.89210678 -1.07404044
v -0.95688277 0.89574082 -1.35821512
v -0.93799758 0.89574083 -1.32288339
v -0.93720436 0.89210673 -1.32321193
v -0.95616901 0.89210673 -1.35869220
v -0.98229808 0.89574087 -1.10016957
v -1.01326668 0.89574087 -1.07475426
v -1.01278973 0.89210678 -1.07404044
v -0.98169100 0.89210677 -1.09956243
v -0.92636806 0.89574084 -1.28454616
v -0.92244124 0.89574084 -1.24467686
v -0.92158276 0.89210675 -1.24467685
v -0.92552602 0.89210674 -1.28471353
v -0.92636806 0.89574085 -1.20480707
v -0.93799758 0.89574086 -1.16646984
v -0.93720436 0.89210676 -1.16614130
v -0.92552602 0.89210675 -1.20463970
v -0.95688277 0.89574086 -1.13113811
v -0.95616901 0.89210677 -1.13066128
v -1.08693576 0.89574081 -1.44511392
v -1.08676827 0.89210671 -1.44595602
v -0.98229808 0.89574082 -1.38918379
v -0.98169100 0.89210672 -1.38979104
v -1.04859853 0.89574081 -1.43348458
v -1.04826999 0.89210672 -1.43427756
v -1.01326668 0.89574082 -1.41459897
v -1.01278973 0.89210672 -1.41531279
v -1.13177526 0.86167254 0.86465047
v -1.12680507 0.86167254 0.86416093
v -1.12183487 0.86167254 0.86465047
v -1.11705565 0.86167254 0.86610017
v -1.11265123 0.86167254 0.86845444
v -1.10879064 0.86167254 0.87162278
v -1.10562229 0.86167254 0.87548337
v -1.10326803 0.86167254 0.87988786
v -1.10181832 0.86167255 0.88466702
v -1.10132873 0.86167255 0.88963721
v -1.10181832 0.86167255 0.89460740
v -1.10326803 0.86167255 0.89938656
v -1.10562229 0.86167255 0.90379105
v -1.10879064 0.86167255 0.90765164
v -1.11265123 0.86167255 0.91081999
v -1.11705565 0.86167255 0.91317425
v -1.12183487 0.86167255 0.91462395
v -1.12680507 0.86167255 0.91511349
v -1.13177526 0.86167255 0.91462395
v -1.13655436 0.86167255 0.91317425
v -1.14095891 0.86167255 0.91081999
v -1.14481950 0.86167255 0.90765164
v -1.14798784 0.86167255 0.90379111
v -1.15034211 0.86167255 0.89938656
v -1.15179181 0.86167255 0.89460740
v -1.15228128 0.86167255 0.88963721
v -1.15179181 0.86167255 0.88466702
v -1.15034211 0.86167254 0.87988786
v -1.14798784 0.86167254 0.87548337
v -1.14481950 0.86167254 0.87162278
v -1.14095891 0.86167254 0.86845444
v -1.13655436 0.86167254 0.86610017
v -1.13177526 0.86167219 -1.26966336
v -1.12680507 0.86167219 -1.27015283
v -1.12183487 0.86167219 -1.26966336
v -1.11705565 0.86167219 -1.26821377
v -1.11265123 0.86167220 -1.26585939
v -1.10879064 0.86167220 -1.26269104
v -1.10562229 0.86167220 -1.25883057
v -1.10326803 0.86167220 -1.25442602
v -1.10181832 0.86167220 -1.24964692
v -1.10132873 0.86167220 -1.24467685
v -1.10181832 0.86167220 -1.23970654
v -1.10326803 0.86167220 -1.23492720
v -1.10562229 0.86167220 -1.23052289
v -1.10879064 0.86167220 -1.22666218
v -1.11265123 0.86167220 -1.22349384
v -1.11705565 0.86167220 -1.22113969
v -1.12183487 0.86167220 -1.21968987
v -1.12680507 0.86167220 -1.21920039
v -1.13177526 0.86167220 -1.21968987
v -1.13655436 0.86167220 -1.22113969
v -1.14095891 0.86167220 -1.22349384
v -1.14481950 0.86167220 -1.22666218
v -1.14798784 0.86167220 -1.23052289
v -1.15034211 0.86167220 -1.23492720
v -1.15179181 0.86167220 -1.23970654
v -1.15228128 0.86167220 -1.24467685
v -1.15179181 0.86167220 -1.24964692
v -1.15034211 0.86167220 -1.25442602
v -1.14798784 0.86167220 -1.25883057
v -1.14481950 0.86167220 -1.26269104
v -1.14095891 0.86167220 -1.26585939
v -1.13655436 0.86167219 -1.26821377
vt 0.71952683 0.92023188
vt 0.68319637 0.98919636
vt 0.69997752 0.99614859
vt 0.72223115 0.92144251
vt 0.72808677 0.92221600
vt 0.73591840 0.99969596
vt 0.75376290 0.99627262
vt 0.73103017 0.92166948
vt 0.48415148 0.22145915
vt 0.48774388 0.22212130
vt 0.48917931 0.21727407
vt 0.48461583 0.21642274
vt 0.74157631 0.90343881
vt 0.81589341 0.88026989
vt 0.80891353 0.86342645
vt 0.74051929 0.90070844
vt 0.72033107 0.89391750
vt 0.68309158 0.82546854
vt 0.66798425 0.83561820
vt 0.71782219 0.89545083
vt 0.71508437 0.91637659
vt 0.65522939 0.96624643
vt 0.66808558 0.97910011
vt 0.71711373 0.91852105
vt 0.74013209 0.91471314
vt 0.80889255 0.95118809
vt 0.81588918 0.93430835
vt 0.74133503 0.91206545
vt 0.73183751 0.89316273
vt 0.75384676 0.81833935
vt 0.73596621 0.81481934
vt 0.72896016 0.89250076
vt 0.71206850 0.90531391
vt 0.63459063 0.89831060
vt 0.63460398 0.91649747
vt 0.71197784 0.90824258
vt 0.77060634 0.98930633
vt 0.73378700 0.92065889
vt 0.79877520 0.84827268
vt 0.73895490 0.89821815
vt 0.65514350 0.84851074
vt 0.71566772 0.89743388
vt 0.81945288 0.91640258
vt 0.74199069 0.90923017
vt 0.71774673 0.81486011
vt 0.72600859 0.89240527
vt 0.63816088 0.93433189
vt 0.71246642 0.91113579
vt 0.78575069 0.97920382
vt 0.73628825 0.91912806
vt 0.78587055 0.83539391
vt 0.73693234 0.89607793
vt 0.64506072 0.86365390
vt 0.71394992 0.89980233
vt 0.81945288 0.89815694
vt 0.74207264 0.90631688
vt 0.69989282 0.81845725
vt 0.72309488 0.89288527
vt 0.64512455 0.95113009
vt 0.71351606 0.91388178
vt 0.79872340 0.96639359
vt 0.73842913 0.91707361
vt 0.77069902 0.82528627
vt 0.73452920 0.89437079
vt 0.63812137 0.88046837
vt 0.71273464 0.90246367
vt 0.71778071 0.99969190
vt 0.72512209 0.92211097
vt 0.47692671 0.22227132
vt 0.48049879 0.22150946
vt 0.47997203 0.21647757
vt 0.47542700 0.21743762
vt 0.47773284 0.25767076
vt 0.47433400 0.25631458
vt 0.47208098 0.26087970
vt 0.47639421 0.26254541
vt 0.47120246 0.25440204
vt 0.46814829 0.25843608
vt 0.49923405 0.24840260
vt 0.49726197 0.25144529
vt 0.50122833 0.25456476
vt 0.50370562 0.25066489
vt 0.47357309 0.22371668
vt 0.47115546 0.21926731
vt 0.48131293 0.25834012
vt 0.48093858 0.26335484
vt 0.49478287 0.25405455
vt 0.49798599 0.25782353
vt 0.48848051 0.25754130
vt 0.48494056 0.25829560
vt 0.48554558 0.26326835
vt 0.49003825 0.26228565
vt 0.50057304 0.24503452
vt 0.50536370 0.24637568
vt 0.47056806 0.22579116
vt 0.46732119 0.22189754
vt 0.46606013 0.23149616
vt 0.46802995 0.22841716
vt 0.46406931 0.22522992
vt 0.46152020 0.22914362
vt 0.49180120 0.25610912
vt 0.49424124 0.26044458
vt 0.50123966 0.24147177
vt 0.50613695 0.24187022
vt 0.50035906 0.23431641
vt 0.50114518 0.23785967
vt 0.50608832 0.23730254
vt 0.50513476 0.23280847
vt 0.46469691 0.23485404
vt 0.45988226 0.23348618
vt 0.49682480 0.22798729
vt 0.49890214 0.23098129
vt 0.50331217 0.22856396
vt 0.50069147 0.22475511
vt 0.46415415 0.24209332
vt 0.46406716 0.23844850
vt 0.45904177 0.23803061
vt 0.45910871 0.24267781
vt 0.49113801 0.22346926
vt 0.49420384 0.22545034
vt 0.49737418 0.22152388
vt 0.49348727 0.21899706
vt 0.46642855 0.24896210
vt 0.46496007 0.24564856
vt 0.46008852 0.24725670
vt 0.46203312 0.25150961
vt 0.49424124 0.26044458
vt 0.49003825 0.26228565
vt 0.52730608 0.38420963
vt 0.55446607 0.37266743
vt 0.46853563 0.25192100
vt 0.46475455 0.25527763
vt 0.50513476 0.23280847
vt 0.50608832 0.23730254
vt 0.63288462 0.22481269
vt 0.62720293 0.19582176
vt 0.50370562 0.25066489
vt 0.50122833 0.25456476
vt 0.59962928 0.33518273
vt 0.61598194 0.31056416
vt 0.47208098 0.26087970
vt 0.46814829 0.25843608
vt 0.38711280 0.35837299
vt 0.41213712 0.37447441
vt 0.50536370 0.24637568
vt 0.62719643 0.28324568
vt 0.47639421 0.26254541
vt 0.43972674 0.38535804
vt 0.50331217 0.22856396
vt 0.61598921 0.16841310
vt 0.48554558 0.26326835
vt 0.49840486 0.39029539
vt 0.46475455 0.25527763
vt 0.46203312 0.25150961
vt 0.34862268 0.31293052
vt 0.36564484 0.33760685
vt 0.45904177 0.23803061
vt 0.45988226 0.23348618
vt 0.33621868 0.19630593
vt 0.33053416 0.22577900
vt 0.50613695 0.24187022
vt 0.63288462 0.25429368
vt 0.48093858 0.26335484
vt 0.46884418 0.39068758
vt 0.49798599 0.25782353
vt 0.57887256 0.35611355
vt 0.46008852 0.24725670
vt 0.45910871 0.24267781
vt 0.33071145 0.25582397
vt 0.33680111 0.28527129
vt 0.46152020 0.22914362
vt 0.46406931 0.22522992
vt 0.36425725 0.14344376
vt 0.34760660 0.16846526
vt 0.46732119 0.22189754
vt 0.47115546 0.21926731
vt 0.41043466 0.10557002
vt 0.38548285 0.12220806
vt 0.48461583 0.21642274
vt 0.48917931 0.21727407
vt 0.52660179 0.09443200
vt 0.49736288 0.08849919
vt 0.47542700 0.21743762
vt 0.47997203 0.21647757
vt 0.46748680 0.08840060
vt 0.43813023 0.09415919
vt 0.49348727 0.21899706
vt 0.49737418 0.22152388
vt 0.57873291 0.12258893
vt 0.55407637 0.10595024
vt 0.50069147 0.22475511
vt 0.59963274 0.14368689
vt 0.92264694 0.90833169
vt 0.92274618 0.91087323
vt 0.99969590 0.91858828
vt 0.99969590 0.90093732
vt 0.92137277 0.91575694
vt 0.91996467 0.91788715
vt 0.97977024 0.96708274
vt 0.98955631 0.95230103
vt 0.49424046 0.53852123
vt 0.50078237 0.53587663
vt 0.49891251 0.53228551
vt 0.49297029 0.53610754
vt 0.90205699 0.92021543
vt 0.90022427 0.91846818
vt 0.84011066 0.96715093
vt 0.85260230 0.97964507
vt 0.90124720 0.90029329
vt 0.90329611 0.89881647
vt 0.86723679 0.83033359
vt 0.85253543 0.84018856
vt 0.92099458 0.90354294
vt 0.92205566 0.90585661
vt 0.99624753 0.88360906
vt 0.98947728 0.86727476
vt 0.91152006 0.92281115
vt 0.90901542 0.92288798
vt 0.90097982 0.99968803
vt 0.91867769 0.99969596
vt 0.89695477 0.90914434
vt 0.89734083 0.90665478
vt 0.82348996 0.88379145
vt 0.82006109 0.90113759
vt 0.91310114 0.89751542
vt 0.91548038 0.89840680
vt 0.95239025 0.83023304
vt 0.93602377 0.82347143
vt 0.91826099 0.91972929
vt 0.96719414 0.97963530
vt 0.89876163 0.91639131
vt 0.83030242 0.95246577
vt 0.90559763 0.89776868
vt 0.88358229 0.82353532
vt 0.90654218 0.92246705
vt 0.88363206 0.99623436
vt 0.89821059 0.90428990
vt 0.83023584 0.86744243
vt 0.91764253 0.89974511
vt 0.96711898 0.84005862
vt 0.91623467 0.92119956
vt 0.95243138 0.98948085
vt 0.89767796 0.91410977
vt 0.82353699 0.93614560
vt 0.90806276 0.89719039
vt 0.90094340 0.82005751
vt 0.90419072 0.92156535
vt 0.86729741 0.98946613
vt 0.89952981 0.90214169
vt 0.84004241 0.85271931
vt 0.91950446 0.90147936
vt 0.97964209 0.85256755
vt 0.91395813 0.92224061
vt 0.93604976 0.99625182
vt 0.89706826 0.91166198
vt 0.82007790 0.91881484
vt 0.91059649 0.89710474
vt 0.91865128 0.82003558
vt 0.92224652 0.91338527
vt 0.99633789 0.93593848
vt 0.49540287 0.54377902
vt 0.50233996 0.54377067
vt 0.50194097 0.53975344
vt 0.49505931 0.54111236
vt 0.47075203 0.55139554
vt 0.46504802 0.55476809
vt 0.46740177 0.55788386
vt 0.47205010 0.55324972
vt 0.47037336 0.56044894
vt 0.47387105 0.55472887
vt 0.47274625 0.53280091
vt 0.46798739 0.52821279
vt 0.46545184 0.53125882
vt 0.47120517 0.53477502
vt 0.49520355 0.54643595
vt 0.50195450 0.54777563
vt 0.47002339 0.54923725
vt 0.46337214 0.55118656
vt 0.46362305 0.53483427
vt 0.47008282 0.53708231
vt 0.46950728 0.54281592
vt 0.46205667 0.54296613
vt 0.46240067 0.54721868
vt 0.46992379 0.54680002
vt 0.47466841 0.53123784
vt 0.47106454 0.52578211
vt 0.49447784 0.54898190
vt 0.50079525 0.55161661
vt 0.49159956 0.55335373
vt 0.49635783 0.55822563
vt 0.49890527 0.55514544
vt 0.49325934 0.55131853
vt 0.46952394 0.53973871
vt 0.46245810 0.53877461
vt 0.47690988 0.53016078
vt 0.47453105 0.52399689
vt 0.48192275 0.52946681
vt 0.48221490 0.52269804
vt 0.47829840 0.52295852
vt 0.47936109 0.52956200
vt 0.48956636 0.55500555
vt 0.49325058 0.56073904
vt 0.48697308 0.53079295
vt 0.48988676 0.52449608
vt 0.48612779 0.52321893
vt 0.48449323 0.52988148
vt 0.48471648 0.55689573
vt 0.48584732 0.56370550
vt 0.48970240 0.56258881
vt 0.48724121 0.55620462
vt 0.49129263 0.53396380
vt 0.49640527 0.52911597
vt 0.49335733 0.52648664
vt 0.48926836 0.53217030
vt 0.47937700 0.55668914
vt 0.47778678 0.56355131
vt 0.48182568 0.56405020
vt 0.48209241 0.55703700
vt 0.46245810 0.53877461
vt 0.33636895 0.49917257
vt 0.33056042 0.52852714
vt 0.46205667 0.54296613
vt 0.47389469 0.56232071
vt 0.47620225 0.55585468
vt 0.48221490 0.52269804
vt 0.49679205 0.39129579
vt 0.46689808 0.39136726
vt 0.47829840 0.52295852
vt 0.46798739 0.52821279
vt 0.38529918 0.42545098
vt 0.36426175 0.44662935
vt 0.46545184 0.53125882
vt 0.46740177 0.55788386
vt 0.36426410 0.64033353
vt 0.38536650 0.66149497
vt 0.47037336 0.56044894
vt 0.47106454 0.52578211
vt 0.41006315 0.40878558
vt 0.46504802 0.55476809
vt 0.34770349 0.61545932
vt 0.48612779 0.52321893
vt 0.52615190 0.39706796
vt 0.33053416 0.55846471
vt 0.46240067 0.54721868
vt 0.47389469 0.56232071
vt 0.41021511 0.67814624
vt 0.43788469 0.68952584
vt 0.47778678 0.56355131
vt 0.48970240 0.56258881
vt 0.52641016 0.68938619
vt 0.55399823 0.67791975
vt 0.49325058 0.56073904
vt 0.43761533 0.39727366
vt 0.47453105 0.52399689
vt 0.33631679 0.58781779
vt 0.46337214 0.55118656
vt 0.34774357 0.47152269
vt 0.46362305 0.53483427
vt 0.48182568 0.56405020
vt 0.46722081 0.69530272
vt 0.49711084 0.69525558
vt 0.48584732 0.56370550
vt 0.49635783 0.55822563
vt 0.57881963 0.66129506
vt 0.59992570 0.64014781
vt 0.49890527 0.55514544
vt 0.50079525 0.55161661
vt 0.61650789 0.61528563
vt 0.62793118 0.58765781
vt 0.50195450 0.54777563
vt 0.50078237 0.53587663
vt 0.62792778 0.49902403
vt 0.61649185 0.47133970
vt 0.49891251 0.53228551
vt 0.50233996 0.54377067
vt 0.63375545 0.55831969
vt 0.63375551 0.52839297
vt 0.50194097 0.53975344
vt 0.49640527 0.52911597
vt 0.59988236 0.44640332
vt 0.57873255 0.42517364
vt 0.49335733 0.52648664
vt 0.48988676 0.52449608
vt 0.55385029 0.40847015
vt 0.31469604 0.11264366
vt 0.32217112 0.10145950
vt 0.31974703 0.10016364
vt 0.31257716 0.11090207
vt 0.30519575 0.12213796
vt 0.30345988 0.12002230
vt 0.29401875 0.12961066
vt 0.29272249 0.12718415
vt 0.28157973 0.13475960
vt 0.28078502 0.13213140
vt 0.26838604 0.13737935
vt 0.26811987 0.13464773
vt 0.25493822 0.13737518
vt 0.25520983 0.13464481
vt 0.24175107 0.13474876
vt 0.24254985 0.13212425
vt 0.22933222 0.12960202
vt 0.23062699 0.12718439
vt 0.21816096 0.12213659
vt 0.21989992 0.12001944
vt 0.20867001 0.11265063
vt 0.21078199 0.11091572
vt 0.20120357 0.10149455
vt 0.20362127 0.10019970
vt 0.19605324 0.08906215
vt 0.19868681 0.08826494
vt 0.19344546 0.07586175
vt 0.19617583 0.07559752
vt 0.19346249 0.06243056
vt 0.19618712 0.06270361
vt 0.19609401 0.04928184
vt 0.19870800 0.05007780
vt 0.20123991 0.03688097
vt 0.20365959 0.03817970
vt 0.20873281 0.02572942
vt 0.21084395 0.02747315
vt 0.21823750 0.01627707
vt 0.21996509 0.01839250
vt 0.22940812 0.00884402
vt 0.23069440 0.01126814
vt 0.24183083 0.00375593
vt 0.24261397 0.00637794
vt 0.25497860 0.00119120
vt 0.25524306 0.00391912
vt 0.26843837 0.00115991
vt 0.26817477 0.00389123
vt 0.28162342 0.00374901
vt 0.28083247 0.00637275
vt 0.29403719 0.00885797
vt 0.29274949 0.01127499
vt 0.30520847 0.01629412
vt 0.30347413 0.01841146
vt 0.31470290 0.02576256
vt 0.31258857 0.02749896
vt 0.32216257 0.03690565
vt 0.31974930 0.03819513
vt 0.32729867 0.04929072
vt 0.32467797 0.05008459
vt 0.32992604 0.06246156
vt 0.32719916 0.06272906
vt 0.32992604 0.07588845
vt 0.32720095 0.07561791
vt 0.32730544 0.08904612
vt 0.32468918 0.08825260
vt 0.16814937 0.56886309
vt 0.16880928 0.53958428
vt 0.16608220 0.53946143
vt 0.16541976 0.56886309
vt 0.17078719 0.51036406
vt 0.17407936 0.48126215
vt 0.17137450 0.48089421
vt 0.16806850 0.51011819
vt 0.20993771 0.79812360
vt 0.20022520 0.77049595
vt 0.19763023 0.77134281
vt 0.20738368 0.79908699
vt 0.16880937 0.59814191
vt 0.16608258 0.59826493
vt 0.19176726 0.74245816
vt 0.18458131 0.71406782
vt 0.18192071 0.71467793
vt 0.18913688 0.74318731
vt 0.17868182 0.68538260
vt 0.17408095 0.65646064
vt 0.17137620 0.65682852
vt 0.17599656 0.68587208
vt 0.17078795 0.62736094
vt 0.16806944 0.62760645
vt 0.32992604 0.99789369
vt 0.31109011 0.97546923
vt 0.30896097 0.97717714
vt 0.32787600 0.99969596
vt 0.22088526 0.82528573
vt 0.21837719 0.82636291
vt 0.29328367 0.95221877
vt 0.27654287 0.92818952
vt 0.27426851 0.92969900
vt 0.29107955 0.95382911
vt 0.26090232 0.90343100
vt 0.24639332 0.87799275
vt 0.24399239 0.87929142
vt 0.25856230 0.90483636
vt 0.23304549 0.85192680
vt 0.23058844 0.85311592
vt 0.20993300 0.33958709
vt 0.22088027 0.31242162
vt 0.21837191 0.31134450
vt 0.20737869 0.33862412
vt 0.31108880 0.16221792
vt 0.32992598 0.13978988
vt 0.32787558 0.13798743
vt 0.30895934 0.16050971
vt 0.23304068 0.28577715
vt 0.24638927 0.25970739
vt 0.24398814 0.25840878
vt 0.23058335 0.28458798
vt 0.26089880 0.23426580
vt 0.27654013 0.20950377
vt 0.27426556 0.20799434
vt 0.25855857 0.23286027
vt 0.29328150 0.18547159
vt 0.29107726 0.18386108
vt 0.17867956 0.45233792
vt 0.17599392 0.45184839
vt 0.20022088 0.36721772
vt 0.19762580 0.36637074
vt 0.18457839 0.42365038
vt 0.18191750 0.42304039
vt 0.19176359 0.39525777
vt 0.18913293 0.39452851
vt 0.71172804 0.60085058
vt 0.63447624 0.59293187
vt 0.63436365 0.61105108
vt 0.71168762 0.60377300
vt 0.71332866 0.60933918
vt 0.64443338 0.64584994
vt 0.65446848 0.66116953
vt 0.71485966 0.61184418
vt 0.79626948 0.25382870
vt 0.79326487 0.25590855
vt 0.79562837 0.26030970
vt 0.79951119 0.25776529
vt 0.73582524 0.61473006
vt 0.78555471 0.67471099
vt 0.79847872 0.66181248
vt 0.73796850 0.61272758
vt 0.73644060 0.59152162
vt 0.78564703 0.53090811
vt 0.77050263 0.52080011
vt 0.73403597 0.58978629
vt 0.71351117 0.59529328
vt 0.64521223 0.55843681
vt 0.63811016 0.57513112
vt 0.71234632 0.59800255
vt 0.72474808 0.61764562
vt 0.71724010 0.69523394
vt 0.73552209 0.69530272
vt 0.72768158 0.61775839
vt 0.74160832 0.60186332
vt 0.81917500 0.59365284
vt 0.81562006 0.57577294
vt 0.74109954 0.59896284
vt 0.72259450 0.58823574
vt 0.69992334 0.51386535
vt 0.68319827 0.52078640
vt 0.71983409 0.58927071
vt 0.66731089 0.67421627
vt 0.71685106 0.61400229
vt 0.80862862 0.64664006
vt 0.73967594 0.61034238
vt 0.75368881 0.51384842
vt 0.73134172 0.58855325
vt 0.75345761 0.69178975
vt 0.73057961 0.61729479
vt 0.80865413 0.55893648
vt 0.74002492 0.59621543
vt 0.66816318 0.53080583
vt 0.71733481 0.59082735
vt 0.68245816 0.68448555
vt 0.71922600 0.61573023
vt 0.81561571 0.62978208
vt 0.74088073 0.60766625
vt 0.73585874 0.51031435
vt 0.72846180 0.58786988
vt 0.77035248 0.68483496
vt 0.73332995 0.61627215
vt 0.79853153 0.54378593
vt 0.73846304 0.59369302
vt 0.65538192 0.54352438
vt 0.71519417 0.59284592
vt 0.69932026 0.69158232
vt 0.72189271 0.61696059
vt 0.81917500 0.61188984
vt 0.74153370 0.60480285
vt 0.71770370 0.51032436
vt 0.72550797 0.58776295
vt 0.63768196 0.62889135
vt 0.71222889 0.60664630
vt 0.80089813 0.24819463
vt 0.79889494 0.25126678
vt 0.80276465 0.25445426
vt 0.80538636 0.25062263
vt 0.77593476 0.22320151
vt 0.77934086 0.22180933
vt 0.77781522 0.21687317
vt 0.77349305 0.21870524
vt 0.78291649 0.22103971
vt 0.78241420 0.21599418
vt 0.76668113 0.24495971
vt 0.76599205 0.24141252
vt 0.76101261 0.24184889
vt 0.76184112 0.24639666
vt 0.80235738 0.24485308
vt 0.80713832 0.24633837
vt 0.77287573 0.22523761
vt 0.76962090 0.22132248
vt 0.76602143 0.23778480
vt 0.76109385 0.23725969
vt 0.76821750 0.23088175
vt 0.77027309 0.22783202
vt 0.76633620 0.22462809
vt 0.76375824 0.22849268
vt 0.76804811 0.24833071
vt 0.76364499 0.25065202
vt 0.80309105 0.24127203
vt 0.80811167 0.24181670
vt 0.80246037 0.23409081
vt 0.80314720 0.23765695
vt 0.80809110 0.23721206
vt 0.80725443 0.23270130
vt 0.76677209 0.23422992
vt 0.76198602 0.23276109
vt 0.77006596 0.25134373
vt 0.76616466 0.25450283
vt 0.77567923 0.25590181
vt 0.77264267 0.25390452
vt 0.76941162 0.25780421
vt 0.77327031 0.26043135
vt 0.80109000 0.23073679
vt 0.80553955 0.22842920
vt 0.78263640 0.25804895
vt 0.77905351 0.25732052
vt 0.77760619 0.26217526
vt 0.78215897 0.26303273
vt 0.79652011 0.22515541
vt 0.79908437 0.22771955
vt 0.80301195 0.22456801
vt 0.79976827 0.22126341
vt 0.78987533 0.25728852
vt 0.78627551 0.25798690
vt 0.78680670 0.26307261
vt 0.79136866 0.26212013
vt 0.79013669 0.22172600
vt 0.79350108 0.22314650
vt 0.79591954 0.21863115
vt 0.79159123 0.21688437
vt 0.76198602 0.23276109
vt 0.76375824 0.22849268
vt 0.65034419 0.16818476
vt 0.63914162 0.19570655
vt 0.78655732 0.22099233
vt 0.78704399 0.21602744
vt 0.77327031 0.26043135
vt 0.76941162 0.25780421
vt 0.68833071 0.35701489
vt 0.71313626 0.37362027
vt 0.76184112 0.24639666
vt 0.76101261 0.24184889
vt 0.63355213 0.25448918
vt 0.63935620 0.28368747
vt 0.77781522 0.21687317
vt 0.78241420 0.21599418
vt 0.76939410 0.08807725
vt 0.74006635 0.09389639
vt 0.76364499 0.25065202
vt 0.65075678 0.31119788
vt 0.77349305 0.21870524
vt 0.71242970 0.10539943
vt 0.77760619 0.26217526
vt 0.74072820 0.38496089
vt 0.76633620 0.22462809
vt 0.66670227 0.14333236
vt 0.78704399 0.21602744
vt 0.79159123 0.21688437
vt 0.82855451 0.09392363
vt 0.79924482 0.08808231
vt 0.80301195 0.22456801
vt 0.80553955 0.22842920
vt 0.91826439 0.16813487
vt 0.90186143 0.14334124
vt 0.76616466 0.25450283
vt 0.66728503 0.33592182
vt 0.76962090 0.22132248
vt 0.68766254 0.12211496
vt 0.76109385 0.23725969
vt 0.63349277 0.22483999
vt 0.79591954 0.21863115
vt 0.79976827 0.22126341
vt 0.88090599 0.12216681
vt 0.85616344 0.10545689
vt 0.80725443 0.23270130
vt 0.80809110 0.23721206
vt 0.93529040 0.22462893
vt 0.92953122 0.19558114
vt 0.80811167 0.24181670
vt 0.80713832 0.24633837
vt 0.92958486 0.28329694
vt 0.93529040 0.25423509
vt 0.79951119 0.25776529
vt 0.79562837 0.26030970
vt 0.85642415 0.37313265
vt 0.88103759 0.35652465
vt 0.80538636 0.25062263
vt 0.80276465 0.25445426
vt 0.90196162 0.33542746
vt 0.91833311 0.31070602
vt 0.79136866 0.26212013
vt 0.78680670 0.26307261
vt 0.79978347 0.39058572
vt 0.82899803 0.38465893
vt 0.78215897 0.26303273
vt 0.77000374 0.39068758
vt 0.89704621 0.60205305
vt 0.89794016 0.59965086
vt 0.82962275 0.56345558
vt 0.82304960 0.57982421
vt 0.90095782 0.59565389
vt 0.90299803 0.59418476
vt 0.86642021 0.52610576
vt 0.85179871 0.53609765
vt 0.48254037 0.86123335
vt 0.48223376 0.86815292
vt 0.48619196 0.86789763
vt 0.48517114 0.86114478
vt 0.92054671 0.59889662
vt 0.92159206 0.60120308
vt 0.99590153 0.57914197
vt 0.98909199 0.56274974
vt 0.91352391 0.61763811
vt 0.91105753 0.61822069
vt 0.91817427 0.69530272
vt 0.93554187 0.69188964
vt 0.89663422 0.60708827
vt 0.89658779 0.60454977
vt 0.81978321 0.59706044
vt 0.81982964 0.61457956
vt 0.91272604 0.59289289
vt 0.91508555 0.59378004
vt 0.95183522 0.52565610
vt 0.93540639 0.51891804
vt 0.92095345 0.61108595
vt 0.91961801 0.61324412
vt 0.97922784 0.66281521
vt 0.98909980 0.64808178
vt 0.90151364 0.61567545
vt 0.89967245 0.61394167
vt 0.83976805 0.66267103
vt 0.85221070 0.67515010
vt 0.90528131 0.59314573
vt 0.88279885 0.51918721
vt 0.92216837 0.60367107
vt 0.99937314 0.59654891
vt 0.90852660 0.61830992
vt 0.90048629 0.69526088
vt 0.91722918 0.59511286
vt 0.96662539 0.53547859
vt 0.91788805 0.61510086
vt 0.96667171 0.67533058
vt 0.89820933 0.61187786
vt 0.83000076 0.64802796
vt 0.90772730 0.59257019
vt 0.90020818 0.51561654
vt 0.92225325 0.60620546
vt 0.99937314 0.61429596
vt 0.90602845 0.61790216
vt 0.88316000 0.69177222
vt 0.91907334 0.59684050
vt 0.97920597 0.54800475
vt 0.91583049 0.61658454
vt 0.95191902 0.68514705
vt 0.89718282 0.60956335
vt 0.82327348 0.63178873
vt 0.91024125 0.59248459
vt 0.91797268 0.51552695
vt 0.92184317 0.60870934
vt 0.99590319 0.63169801
vt 0.90366012 0.61701274
vt 0.86686045 0.68497890
vt 0.89924932 0.59750015
vt 0.83937061 0.54867721
vt 0.47735286 0.85991567
vt 0.47445047 0.86638153
vt 0.47827020 0.86764038
vt 0.47990119 0.86082065
vt 0.47975558 0.83413315
vt 0.47864136 0.82725197
vt 0.47470114 0.82833421
vt 0.47717971 0.83484775
vt 0.47110215 0.83020961
vt 0.47479200 0.83602834
vt 0.49433237 0.84359974
vt 0.50104213 0.84084702
vt 0.49911803 0.83713526
vt 0.49251336 0.84011370
vt 0.47496939 0.85859913
vt 0.47095188 0.86436820
vt 0.48241782 0.83397931
vt 0.48274505 0.82695568
vt 0.49707729 0.83365947
vt 0.49159193 0.83803618
vt 0.48805121 0.83527005
vt 0.49058729 0.82912010
vt 0.48687515 0.82746029
vt 0.48519561 0.83436412
vt 0.49537042 0.84642130
vt 0.50231481 0.84483725
vt 0.47289923 0.85683513
vt 0.46785313 0.86178869
vt 0.46982941 0.85242653
vt 0.46342966 0.85507631
vt 0.46534148 0.85862470
vt 0.47113675 0.85476834
vt 0.49013022 0.83642697
vt 0.49403715 0.83106792
vt 0.49574280 0.84907973
vt 0.50235271 0.84883392
vt 0.49484646 0.85399997
vt 0.50095767 0.85645562
vt 0.50204933 0.85272920
vt 0.49556357 0.85161757
vt 0.46902257 0.84988135
vt 0.46224561 0.85122454
vt 0.49201241 0.85801268
vt 0.49658021 0.86279684
vt 0.49907064 0.85983950
vt 0.49367052 0.85617197
vt 0.46900809 0.84457791
vt 0.46222106 0.84320408
vt 0.46183777 0.84721601
vt 0.46874499 0.84723121
vt 0.48769277 0.86056495
vt 0.48999202 0.86688292
vt 0.49348408 0.86514604
vt 0.49000835 0.85952276
vt 0.47099057 0.83967459
vt 0.46539274 0.83584261
vt 0.46344185 0.83936203
vt 0.46975300 0.84201819
vt 0.49403715 0.83106792
vt 0.57859516 0.72944444
vt 0.55362129 0.71299285
vt 0.49058729 0.82912010
vt 0.46795902 0.83274412
vt 0.47270295 0.83766246
vt 0.50095767 0.85645562
vt 0.61698848 0.91945744
vt 0.62830192 0.89176720
vt 0.50204933 0.85272920
vt 0.50104213 0.84084702
vt 0.62801754 0.80309325
vt 0.61646110 0.77541447
vt 0.49911803 0.83713526
vt 0.47470114 0.82833421
vt 0.43773335 0.70189822
vt 0.41020769 0.71336013
vt 0.47110215 0.83020961
vt 0.50231481 0.84483725
vt 0.63398248 0.83245945
vt 0.47864136 0.82725197
vt 0.46695602 0.69601047
vt 0.49907064 0.85983950
vt 0.60048407 0.94437581
vt 0.52604419 0.70160013
vt 0.48687515 0.82746029
vt 0.46795902 0.83274412
vt 0.38543215 0.72996545
vt 0.36435530 0.75108808
vt 0.46539274 0.83584261
vt 0.46183777 0.84721601
vt 0.33054236 0.83281344
vt 0.33053416 0.86272305
vt 0.46224561 0.85122454
vt 0.63398248 0.86236298
vt 0.50235271 0.84883392
vt 0.49677116 0.69591093
vt 0.48274505 0.82695568
vt 0.59989017 0.75046301
vt 0.49707729 0.83365947
vt 0.46344185 0.83936203
vt 0.34779057 0.77591628
vt 0.33637244 0.80350459
vt 0.46222106 0.84320408
vt 0.46342966 0.85507631
vt 0.33635908 0.89208978
vt 0.34780625 0.91978681
vt 0.46534148 0.85862470
vt 0.46785313 0.86178869
vt 0.36443684 0.94474101
vt 0.38570821 0.96589470
vt 0.47095188 0.86436820
vt 0.48223376 0.86815292
vt 0.46776411 0.99969596
vt 0.49769452 0.99964488
vt 0.48619196 0.86789763
vt 0.47445047 0.86638153
vt 0.41067320 0.98249233
vt 0.43838057 0.99390501
vt 0.47827020 0.86764038
vt 0.48999202 0.86688292
vt 0.52702236 0.99375445
vt 0.55462110 0.98224962
vt 0.49348408 0.86514604
vt 0.49658021 0.86279684
vt 0.57942367 0.96558034
vt 0.00031339 0.07611179
vt 0.00295517 0.08930272
vt 0.00558465 0.08849996
vt 0.00304357 0.07584167
vt 0.00030407 0.06267405
vt 0.00303181 0.06294322
vt 0.00292193 0.04950207
vt 0.00554191 0.05029887
vt 0.00805865 0.03711092
vt 0.01046783 0.03839862
vt 0.01550795 0.02595538
vt 0.01762733 0.02769107
vt 0.02500272 0.01644838
vt 0.02674559 0.01856643
vt 0.03617855 0.00896764
vt 0.03747646 0.01138771
vt 0.04861656 0.00380331
vt 0.04941708 0.00643814
vt 0.06182355 0.00117624
vt 0.06209141 0.00390762
vt 0.07525820 0.00117677
vt 0.07499071 0.00389951
vt 0.08843596 0.00379068
vt 0.08764184 0.00641769
vt 0.10087863 0.00893742
vt 0.09958081 0.01136595
vt 0.11207380 0.01642281
vt 0.11032980 0.01854432
vt 0.12158199 0.02593595
vt 0.11945969 0.02767426
vt 0.12904234 0.03711289
vt 0.12663524 0.03840357
vt 0.13419418 0.04946905
vt 0.13157322 0.05026704
vt 0.13681868 0.06261992
vt 0.13409768 0.06288713
vt 0.13681868 0.07600850
vt 0.13410440 0.07574224
vt 0.13421622 0.08914781
vt 0.13159591 0.08835590
vt 0.12908340 0.10156441
vt 0.12666024 0.10026854
vt 0.12160322 0.11273396
vt 0.11948878 0.11099184
vt 0.11210243 0.12219959
vt 0.11037283 0.12008566
vt 0.10094269 0.12963891
vt 0.09965203 0.12722105
vt 0.08851170 0.13477814
vt 0.08771636 0.13214374
vt 0.07530264 0.13738388
vt 0.07503887 0.13465065
vt 0.06185443 0.13736814
vt 0.06212078 0.13464040
vt 0.04869330 0.13479704
vt 0.04947955 0.13217854
vt 0.03630763 0.12971479
vt 0.03758441 0.12730539
vt 0.02514291 0.12231869
vt 0.02686930 0.12019664
vt 0.01561966 0.11286181
vt 0.01773753 0.11111391
vt 0.00813058 0.10170269
vt 0.01054098 0.10040694
vt 0.00303378 0.56883234
vt 0.00369444 0.53955269
vt 0.00096755 0.53942966
vt 0.00030407 0.56883228
vt 0.00567339 0.51033258
vt 0.00896659 0.48123217
vt 0.00626183 0.48086423
vt 0.00295479 0.51008683
vt 0.04482031 0.79810572
vt 0.03510725 0.77047586
vt 0.03251218 0.77132279
vt 0.04226591 0.79906887
vt 0.00369303 0.59811187
vt 0.00096595 0.59823489
vt 0.02664923 0.74243641
vt 0.01946299 0.71404433
vt 0.01680229 0.71465433
vt 0.02401856 0.74316561
vt 0.01356379 0.68535757
vt 0.00896311 0.65643382
vt 0.00625816 0.65680170
vt 0.01087823 0.68584704
vt 0.00567094 0.62733197
vt 0.00295234 0.62757796
vt 0.16481161 0.99789351
vt 0.14597544 0.97546703
vt 0.14384604 0.97717512
vt 0.16276129 0.99969596
vt 0.05576853 0.82526982
vt 0.05326026 0.82634699
vt 0.12816891 0.95221442
vt 0.11142798 0.92818278
vt 0.10915349 0.92969251
vt 0.12596475 0.95382482
vt 0.09578719 0.90342206
vt 0.08127763 0.87798142
vt 0.07887650 0.87928015
vt 0.09344707 0.90482754
vt 0.06792932 0.85191298
vt 0.06547198 0.85310215
vt 0.04482417 0.33956701
vt 0.05577154 0.31240481
vt 0.05326328 0.31132746
vt 0.04227005 0.33860385
vt 0.14597620 0.16221899
vt 0.16481161 0.13979423
vt 0.16276157 0.13799196
vt 0.14384688 0.16051114
vt 0.06793176 0.28576326
vt 0.08128017 0.25969642
vt 0.07887933 0.25839782
vt 0.06547471 0.28457409
vt 0.09578954 0.23425740
vt 0.11142967 0.20949847
vt 0.10915536 0.20798904
vt 0.09344943 0.23285210
vt 0.12817024 0.18546915
vt 0.12596636 0.18385917
vt 0.01356783 0.45230955
vt 0.01088237 0.45182025
vt 0.03511187 0.36719537
vt 0.03251679 0.36634839
vt 0.01946760 0.42362410
vt 0.01680699 0.42301399
vt 0.02665384 0.39523321
vt 0.02402327 0.39450395
vt 0.66932255 0.49995130
vt 0.67071962 0.49657834
vt 0.67143202 0.49299747
vt 0.67143202 0.48934644
vt 0.67071974 0.48576581
vt 0.66932267 0.48239279
vt 0.66729426 0.47935712
vt 0.66471273 0.47677553
vt 0.66167712 0.47474718
vt 0.65830410 0.47334999
vt 0.65472335 0.47263777
vt 0.65107244 0.47263783
vt 0.64749175 0.47335005
vt 0.64411867 0.47474700
vt 0.64108300 0.47677559
vt 0.63850147 0.47935688
vt 0.63647306 0.48239261
vt 0.63507587 0.48576564
vt 0.63436365 0.48934639
vt 0.63436365 0.49299723
vt 0.63507587 0.49657810
vt 0.63647300 0.49995106
vt 0.63850141 0.50298673
vt 0.64108288 0.50556827
vt 0.64411849 0.50759661
vt 0.64749151 0.50899363
vt 0.65107226 0.50970602
vt 0.65472305 0.50970614
vt 0.65830398 0.50899392
vt 0.66167694 0.50759673
vt 0.66471255 0.50556839
vt 0.66729414 0.50298703
vt 0.66471273 0.46789181
vt 0.66729414 0.46531022
vt 0.66932255 0.46227461
vt 0.67071986 0.45890164
vt 0.67143190 0.45532095
vt 0.67143190 0.45166999
vt 0.67071974 0.44808924
vt 0.66932267 0.44471627
vt 0.66729426 0.44168067
vt 0.66471273 0.43909907
vt 0.66167706 0.43707073
vt 0.65830380 0.43567348
vt 0.65472329 0.43496138
vt 0.65107226 0.43496138
vt 0.64749146 0.43567353
vt 0.64411861 0.43707073
vt 0.64108300 0.43909901
vt 0.63850129 0.44168061
vt 0.63647300 0.44471633
vt 0.63507587 0.44808930
vt 0.63436365 0.45166993
vt 0.63436371 0.45532095
vt 0.63507587 0.45890176
vt 0.63647300 0.46227467
vt 0.63850141 0.46531034
vt 0.64108318 0.46789199
vt 0.64411861 0.46992028
vt 0.64749163 0.47131741
vt 0.65107244 0.47202969
vt 0.65472329 0.47202957
vt 0.65830398 0.47131729
vt 0.66167706 0.46992028
f 1/1 2/2 3/3
f 1/1 3/3 4/4
f 5/5 6/6 7/7
f 5/5 7/7 8/8
f 9/9 10/10 11/11
f 9/9 11/11 12/12
f 13/13 14/14 15/15
f 13/13 15/15 16/16
f 17/17 18/18 19/19
f 17/17 19/19 20/20
f 21/21 22/22 23/23
f 21/21 23/23 24/24
f 25/25 26/26 27/27
f 25/25 27/27 28/28
f 29/29 30/30 31/31
f 29/29 31/31 32/32
f 33/33 34/34 35/35
f 33/33 35/35 36/36
f 8/8 7/7 37/37
f 8/8 37/37 38/38
f 16/16 15/15 39/39
f 16/16 39/39 40/40
f 20/20 19/19 41/41
f 20/20 41/41 42/42
f 24/24 23/23 2/2
f 24/24 2/2 1/1
f 28/28 27/27 43/43
f 28/28 43/43 44/44
f 32/32 31/31 45/45
f 32/32 45/45 46/46
f 36/36 35/35 47/47
f 36/36 47/47 48/48
f 38/38 37/37 49/49
f 38/38 49/49 50/50
f 40/40 39/39 51/51
f 40/40 51/51 52/52
f 42/42 41/41 53/53
f 42/42 53/53 54/54
f 44/44 43/43 55/55
f 44/44 55/55 56/56
f 46/46 45/45 57/57
f 46/46 57/57 58/58
f 48/48 47/47 59/59
f 48/48 59/59 60/60
f 50/50 49/49 61/61
f 50/50 61/61 62/62
f 52/52 51/51 63/63
f 52/52 63/63 64/64
f 54/54 53/53 65/65
f 54/54 65/65 66/66
f 4/4 3/3 67/67
f 4/4 67/67 68/68
f 68/68 67/67 6/6
f 68/68 6/6 5/5
f 56/56 55/55 14/14
f 56/56 14/14 13/13
f 58/58 57/57 18/18
f 58/58 18/18 17/17
f 60/60 59/59 22/22
f 60/60 22/22 21/21
f 62/62 61/61 26/26
f 62/62 26/26 25/25
f 64/64 63/63 30/30
f 64/64 30/30 29/29
f 66/66 65/65 34/34
f 66/66 34/34 33/33
f 69/69 70/70 71/71
f 69/69 71/71 72/72
f 73/73 74/74 75/75
f 73/73 75/75 76/76
f 70/70 9/9 12/12
f 70/70 12/12 71/71
f 74/74 77/77 78/78
f 74/74 78/78 75/75
f 79/79 80/80 81/81
f 79/79 81/81 82/82
f 83/83 69/69 72/72
f 83/83 72/72 84/84
f 85/85 73/73 76/76
f 85/85 76/76 86/86
f 80/80 87/87 88/88
f 80/80 88/88 81/81
f 89/89 90/90 91/91
f 89/89 91/91 92/92
f 93/93 79/79 82/82
f 93/93 82/82 94/94
f 95/95 83/83 84/84
f 95/95 84/84 96/96
f 90/90 85/85 86/86
f 90/90 86/86 91/91
f 97/97 98/98 99/99
f 97/97 99/99 100/100
f 101/101 89/89 92/92
f 101/101 92/92 102/102
f 103/103 93/93 94/94
f 103/103 94/94 104/104
f 98/98 95/95 96/96
f 98/98 96/96 99/99
f 105/105 106/106 107/107
f 105/105 107/107 108/108
f 109/109 97/97 100/100
f 109/109 100/100 110/110
f 87/87 101/101 102/102
f 87/87 102/102 88/88
f 106/106 103/103 104/104
f 106/106 104/104 107/107
f 111/111 112/112 113/113
f 111/111 113/113 114/114
f 115/115 116/116 117/117
f 115/115 117/117 118/118
f 112/112 105/105 108/108
f 112/112 108/108 113/113
f 116/116 109/109 110/110
f 116/116 110/110 117/117
f 119/119 120/120 121/121
f 119/119 121/121 122/122
f 123/123 124/124 125/125
f 123/123 125/125 126/126
f 120/120 111/111 114/114
f 120/120 114/114 121/121
f 124/124 115/115 118/118
f 124/124 118/118 125/125
f 127/127 128/128 129/129
f 127/127 129/129 130/130
f 77/77 131/131 132/132
f 77/77 132/132 78/78
f 10/10 119/119 122/122
f 10/10 122/122 11/11
f 131/131 123/123 126/126
f 131/131 126/126 132/132
f 133/133 134/134 135/135
f 133/133 135/135 136/136
f 137/137 138/138 139/139
f 137/137 139/139 140/140
f 141/141 142/142 143/143
f 141/141 143/143 144/144
f 145/145 137/137 140/140
f 145/145 140/140 146/146
f 147/147 141/141 144/144
f 147/147 144/144 148/148
f 149/149 133/133 136/136
f 149/149 136/136 150/150
f 128/128 151/151 152/152
f 128/128 152/152 129/129
f 153/153 154/154 155/155
f 153/153 155/155 156/156
f 157/157 158/158 159/159
f 157/157 159/159 160/160
f 134/134 161/161 162/162
f 134/134 162/162 135/135
f 151/151 163/163 164/164
f 151/151 164/164 152/152
f 138/138 165/165 166/166
f 138/138 166/166 139/139
f 142/142 153/153 156/156
f 142/142 156/156 143/143
f 167/167 168/168 169/169
f 167/167 169/169 170/170
f 171/171 172/172 173/173
f 171/171 173/173 174/174
f 158/158 171/171 174/174
f 158/158 174/174 159/159
f 154/154 167/167 170/170
f 154/154 170/170 155/155
f 175/175 176/176 177/177
f 175/175 177/177 178/178
f 179/179 180/180 181/181
f 179/179 181/181 182/182
f 168/168 157/157 160/160
f 168/168 160/160 169/169
f 172/172 175/175 178/178
f 172/172 178/178 173/173
f 183/183 184/184 185/185
f 183/183 185/185 186/186
f 187/187 188/188 189/189
f 187/187 189/189 190/190
f 180/180 187/187 190/190
f 180/180 190/190 181/181
f 165/165 127/127 130/130
f 165/165 130/130 166/166
f 176/176 183/183 186/186
f 176/176 186/186 177/177
f 191/191 149/149 150/150
f 191/191 150/150 192/192
f 161/161 145/145 146/146
f 161/161 146/146 162/162
f 163/163 147/147 148/148
f 163/163 148/148 164/164
f 184/184 179/179 182/182
f 184/184 182/182 185/185
f 188/188 191/191 192/192
f 188/188 192/192 189/189
f 193/193 194/194 195/195
f 193/193 195/195 196/196
f 197/197 198/198 199/199
f 197/197 199/199 200/200
f 201/201 202/202 203/203
f 201/201 203/203 204/204
f 205/205 206/206 207/207
f 205/205 207/207 208/208
f 209/209 210/210 211/211
f 209/209 211/211 212/212
f 213/213 214/214 215/215
f 213/213 215/215 216/216
f 217/217 218/218 219/219
f 217/217 219/219 220/220
f 221/221 222/222 223/223
f 221/221 223/223 224/224
f 225/225 226/226 227/227
f 225/225 227/227 228/228
f 198/198 229/229 230/230
f 198/198 230/230 199/199
f 206/206 231/231 232/232
f 206/206 232/232 207/207
f 210/210 233/233 234/234
f 210/210 234/234 211/211
f 214/214 193/193 196/196
f 214/214 196/196 215/215
f 218/218 235/235 236/236
f 218/218 236/236 219/219
f 222/222 237/237 238/238
f 222/222 238/238 223/223
f 226/226 239/239 240/240
f 226/226 240/240 227/227
f 229/229 241/241 242/242
f 229/229 242/242 230/230
f 231/231 243/243 244/244
f 231/231 244/244 232/232
f 233/233 245/245 246/246
f 233/233 246/246 234/234
f 235/235 247/247 248/248
f 235/235 248/248 236/236
f 237/237 249/249 250/250
f 237/237 250/250 238/238
f 239/239 251/251 252/252
f 239/239 252/252 240/240
f 241/241 253/253 254/254
f 241/241 254/254 242/242
f 243/243 255/255 256/256
f 243/243 256/256 244/244
f 245/245 257/257 258/258
f 245/245 258/258 246/246
f 194/194 259/259 260/260
f 194/194 260/260 195/195
f 259/259 197/197 200/200
f 259/259 200/200 260/260
f 247/247 205/205 208/208
f 247/247 208/208 248/248
f 249/249 209/209 212/212
f 249/249 212/212 250/250
f 251/251 213/213 216/216
f 251/251 216/216 252/252
f 253/253 217/217 220/220
f 253/253 220/220 254/254
f 255/255 221/221 224/224
f 255/255 224/224 256/256
f 257/257 225/225 228/228
f 257/257 228/228 258/258
f 261/261 262/262 263/263
f 261/261 263/263 264/264
f 265/265 266/266 267/267
f 265/265 267/267 268/268
f 264/264 263/263 202/202
f 264/264 202/202 201/201
f 268/268 267/267 269/269
f 268/268 269/269 270/270
f 271/271 272/272 273/273
f 271/271 273/273 274/274
f 275/275 276/276 262/262
f 275/275 262/262 261/261
f 277/277 278/278 266/266
f 277/277 266/266 265/265
f 274/274 273/273 279/279
f 274/274 279/279 280/280
f 281/281 282/282 283/283
f 281/281 283/283 284/284
f 285/285 286/286 272/272
f 285/285 272/272 271/271
f 287/287 288/288 276/276
f 287/287 276/276 275/275
f 284/284 283/283 278/278
f 284/284 278/278 277/277
f 289/289 290/290 291/291
f 289/289 291/291 292/292
f 293/293 294/294 282/282
f 293/293 282/282 281/281
f 295/295 296/296 286/286
f 295/295 286/286 285/285
f 292/292 291/291 288/288
f 292/292 288/288 287/287
f 297/297 298/298 299/299
f 297/297 299/299 300/300
f 301/301 302/302 290/290
f 301/301 290/290 289/289
f 280/280 279/279 294/294
f 280/280 294/294 293/293
f 300/300 299/299 296/296
f 300/300 296/296 295/295
f 303/303 304/304 305/305
f 303/303 305/305 306/306
f 307/307 308/308 309/309
f 307/307 309/309 310/310
f 306/306 305/305 298/298
f 306/306 298/298 297/297
f 310/310 309/309 302/302
f 310/310 302/302 301/301
f 311/311 312/312 313/313
f 311/311 313/313 314/314
f 315/315 316/316 317/317
f 315/315 317/317 318/318
f 314/314 313/313 304/304
f 314/314 304/304 303/303
f 318/318 317/317 308/308
f 318/318 308/308 307/307
f 319/319 320/320 321/321
f 319/319 321/321 322/322
f 270/270 269/269 323/323
f 270/270 323/323 324/324
f 204/204 203/203 312/312
f 204/204 312/312 311/311
f 324/324 323/323 316/316
f 324/324 316/316 315/315
f 325/325 326/326 327/327
f 325/325 327/327 328/328
f 329/329 330/330 331/331
f 329/329 331/331 332/332
f 333/333 334/334 335/335
f 333/333 335/335 336/336
f 337/337 338/338 330/330
f 337/337 330/330 329/329
f 339/339 340/340 334/334
f 339/339 334/334 333/333
f 341/341 342/342 326/326
f 341/341 326/326 325/325
f 322/322 321/321 343/343
f 322/322 343/343 344/344
f 345/345 346/346 347/347
f 345/345 347/347 348/348
f 349/349 350/350 351/351
f 349/349 351/351 352/352
f 328/328 327/327 353/353
f 328/328 353/353 354/354
f 344/344 343/343 355/355
f 344/344 355/355 356/356
f 332/332 331/331 357/357
f 332/332 357/357 358/358
f 336/336 335/335 346/346
f 336/336 346/346 345/345
f 359/359 360/360 361/361
f 359/359 361/361 362/362
f 363/363 364/364 365/365
f 363/363 365/365 366/366
f 352/352 351/351 364/364
f 352/352 364/364 363/363
f 348/348 347/347 360/360
f 348/348 360/360 359/359
f 367/367 368/368 369/369
f 367/367 369/369 370/370
f 371/371 372/372 373/373
f 371/371 373/373 374/374
f 362/362 361/361 350/350
f 362/362 350/350 349/349
f 366/366 365/365 368/368
f 366/366 368/368 367/367
f 375/375 376/376 377/377
f 375/375 377/377 378/378
f 379/379 380/380 381/381
f 379/379 381/381 382/382
f 374/374 373/373 380/380
f 374/374 380/380 379/379
f 358/358 357/357 320/320
f 358/358 320/320 319/319
f 370/370 369/369 376/376
f 370/370 376/376 375/375
f 383/383 384/384 342/342
f 383/383 342/342 341/341
f 354/354 353/353 338/338
f 354/354 338/338 337/337
f 356/356 355/355 340/340
f 356/356 340/340 339/339
f 378/378 377/377 372/372
f 378/378 372/372 371/371
f 382/382 381/381 384/384
f 382/382 384/384 383/383
f 385/385 386/386 387/387
f 385/385 387/387 388/388
f 389/389 385/385 388/388
f 389/389 388/388 390/390
f 391/391 389/389 390/390
f 391/391 390/390 392/392
f 393/393 391/391 392/392
f 393/393 392/392 394/394
f 395/395 393/393 394/394
f 395/395 394/394 396/396
f 397/397 395/395 396/396
f 397/397 396/396 398/398
f 399/399 397/397 398/398
f 399/399 398/398 400/400
f 401/401 399/399 400/400
f 401/401 400/400 402/402
f 403/403 401/401 402/402
f 403/403 402/402 404/404
f 405/405 403/403 404/404
f 405/405 404/404 406/406
f 407/407 405/405 406/406
f 407/407 406/406 408/408
f 409/409 407/407 408/408
f 409/409 408/408 410/410
f 411/411 409/409 410/410
f 411/411 410/410 412/412
f 413/413 411/411 412/412
f 413/413 412/412 414/414
f 415/415 413/413 414/414
f 415/415 414/414 416/416
f 417/417 415/415 416/416
f 417/417 416/416 418/418
f 419/419 417/417 418/418
f 419/419 418/418 420/420
f 421/421 419/419 420/420
f 421/421 420/420 422/422
f 423/423 421/421 422/422
f 423/423 422/422 424/424
f 425/425 423/423 424/424
f 425/425 424/424 426/426
f 427/427 425/425 426/426
f 427/427 426/426 428/428
f 429/429 427/427 428/428
f 429/429 428/428 430/430
f 431/431 429/429 430/430
f 431/431 430/430 432/432
f 433/433 431/431 432/432
f 433/433 432/432 434/434
f 435/435 433/433 434/434
f 435/435 434/434 436/436
f 437/437 435/435 436/436
f 437/437 436/436 438/438
f 439/439 437/437 438/438
f 439/439 438/438 440/440
f 441/441 439/439 440/440
f 441/441 440/440 442/442
f 443/443 441/441 442/442
f 443/443 442/442 444/444
f 445/445 443/443 444/444
f 445/445 444/444 446/446
f 447/447 445/445 446/446
f 447/447 446/446 448/448
f 386/386 447/447 448/448
f 386/386 448/448 387/387
f 449/449 450/450 451/451
f 449/449 451/451 452/452
f 453/453 454/454 455/455
f 453/453 455/455 456/456
f 457/457 458/458 459/459
f 457/457 459/459 460/460
f 461/461 449/449 452/452
f 461/461 452/452 462/462
f 463/463 464/464 465/465
f 463/463 465/465 466/466
f 450/450 453/453 456/456
f 450/450 456/456 451/451
f 467/467 468/468 469/469
f 467/467 469/469 470/470
f 471/471 461/461 462/462
f 471/471 462/462 472/472
f 473/473 474/474 475/475
f 473/473 475/475 476/476
f 477/477 457/457 460/460
f 477/477 460/460 478/478
f 479/479 480/480 481/481
f 479/479 481/481 482/482
f 458/458 463/463 466/466
f 458/458 466/466 459/459
f 483/483 484/484 485/485
f 483/483 485/485 486/486
f 464/464 467/467 470/470
f 464/464 470/470 465/465
f 487/487 477/477 478/478
f 487/487 478/478 488/488
f 468/468 471/471 472/472
f 468/468 472/472 469/469
f 489/489 490/490 491/491
f 489/489 491/491 492/492
f 493/493 494/494 495/495
f 493/493 495/495 496/496
f 497/497 498/498 499/499
f 497/497 499/499 500/500
f 474/474 479/479 482/482
f 474/474 482/482 475/475
f 501/501 502/502 503/503
f 501/501 503/503 504/504
f 480/480 483/483 486/486
f 480/480 486/486 481/481
f 505/505 493/493 496/496
f 505/505 496/496 506/506
f 484/484 487/487 488/488
f 484/484 488/488 485/485
f 454/454 507/507 508/508
f 454/454 508/508 455/455
f 509/509 489/489 492/492
f 509/509 492/492 510/510
f 507/507 511/511 512/512
f 507/507 512/512 508/508
f 490/490 497/497 500/500
f 490/490 500/500 491/491
f 511/511 513/513 514/514
f 511/511 514/514 512/512
f 498/498 501/501 504/504
f 498/498 504/504 499/499
f 513/513 509/509 510/510
f 513/513 510/510 514/514
f 502/502 505/505 506/506
f 502/502 506/506 503/503
f 515/515 516/516 517/517
f 515/515 517/517 518/518
f 519/519 520/520 521/521
f 519/519 521/521 522/522
f 523/523 524/524 525/525
f 523/523 525/525 526/526
f 527/527 528/528 529/529
f 527/527 529/529 530/530
f 531/531 532/532 533/533
f 531/531 533/533 534/534
f 535/535 536/536 537/537
f 535/535 537/537 538/538
f 539/539 540/540 541/541
f 539/539 541/541 542/542
f 543/543 544/544 545/545
f 543/543 545/545 546/546
f 547/547 548/548 549/549
f 547/547 549/549 550/550
f 522/522 521/521 551/551
f 522/522 551/551 552/552
f 530/530 529/529 553/553
f 530/530 553/553 554/554
f 534/534 533/533 555/555
f 534/534 555/555 556/556
f 538/538 537/537 516/516
f 538/538 516/516 515/515
f 542/542 541/541 557/557
f 542/542 557/557 558/558
f 546/546 545/545 559/559
f 546/546 559/559 560/560
f 550/550 549/549 561/561
f 550/550 561/561 562/562
f 552/552 551/551 563/563
f 552/552 563/563 564/564
f 554/554 553/553 565/565
f 554/554 565/565 566/566
f 556/556 555/555 567/567
f 556/556 567/567 568/568
f 558/558 557/557 569/569
f 558/558 569/569 570/570
f 560/560 559/559 571/571
f 560/560 571/571 572/572
f 562/562 561/561 573/573
f 562/562 573/573 574/574
f 564/564 563/563 575/575
f 564/564 575/575 576/576
f 566/566 565/565 577/577
f 566/566 577/577 578/578
f 568/568 567/567 579/579
f 568/568 579/579 580/580
f 518/518 517/517 581/581
f 518/518 581/581 582/582
f 582/582 581/581 520/520
f 582/582 520/520 519/519
f 570/570 569/569 528/528
f 570/570 528/528 527/527
f 572/572 571/571 532/532
f 572/572 532/532 531/531
f 574/574 573/573 536/536
f 574/574 536/536 535/535
f 576/576 575/575 540/540
f 576/576 540/540 539/539
f 578/578 577/577 544/544
f 578/578 544/544 543/543
f 580/580 579/579 548/548
f 580/580 548/548 547/547
f 583/583 584/584 585/585
f 583/583 585/585 586/586
f 587/587 588/588 589/589
f 587/587 589/589 590/590
f 584/584 523/523 526/526
f 584/584 526/526 585/585
f 588/588 591/591 592/592
f 588/588 592/592 589/589
f 593/593 594/594 595/595
f 593/593 595/595 596/596
f 597/597 583/583 586/586
f 597/597 586/586 598/598
f 599/599 587/587 590/590
f 599/599 590/590 600/600
f 594/594 601/601 602/602
f 594/594 602/602 595/595
f 603/603 604/604 605/605
f 603/603 605/605 606/606
f 607/607 593/593 596/596
f 607/607 596/596 608/608
f 609/609 597/597 598/598
f 609/609 598/598 610/610
f 604/604 599/599 600/600
f 604/604 600/600 605/605
f 611/611 612/612 613/613
f 611/611 613/613 614/614
f 615/615 603/603 606/606
f 615/615 606/606 616/616
f 617/617 607/607 608/608
f 617/617 608/608 618/618
f 612/612 609/609 610/610
f 612/612 610/610 613/613
f 619/619 620/620 621/621
f 619/619 621/621 622/622
f 623/623 611/611 614/614
f 623/623 614/614 624/624
f 601/601 615/615 616/616
f 601/601 616/616 602/602
f 620/620 617/617 618/618
f 620/620 618/618 621/621
f 625/625 626/626 627/627
f 625/625 627/627 628/628
f 629/629 630/630 631/631
f 629/629 631/631 632/632
f 626/626 619/619 622/622
f 626/626 622/622 627/627
f 630/630 623/623 624/624
f 630/630 624/624 631/631
f 633/633 634/634 635/635
f 633/633 635/635 636/636
f 637/637 638/638 639/639
f 637/637 639/639 640/640
f 634/634 625/625 628/628
f 634/634 628/628 635/635
f 638/638 629/629 632/632
f 638/638 632/632 639/639
f 641/641 642/642 643/643
f 641/641 643/643 644/644
f 591/591 645/645 646/646
f 591/591 646/646 592/592
f 524/524 633/633 636/636
f 524/524 636/636 525/525
f 645/645 637/637 640/640
f 645/645 640/640 646/646
f 647/647 648/648 649/649
f 647/647 649/649 650/650
f 651/651 652/652 653/653
f 651/651 653/653 654/654
f 655/655 656/656 657/657
f 655/655 657/657 658/658
f 659/659 651/651 654/654
f 659/659 654/654 660/660
f 661/661 655/655 658/658
f 661/661 658/658 662/662
f 663/663 647/647 650/650
f 663/663 650/650 664/664
f 642/642 665/665 666/666
f 642/642 666/666 643/643
f 667/667 668/668 669/669
f 667/667 669/669 670/670
f 671/671 672/672 673/673
f 671/671 673/673 674/674
f 648/648 675/675 676/676
f 648/648 676/676 649/649
f 665/665 677/677 678/678
f 665/665 678/678 666/666
f 652/652 679/679 680/680
f 652/652 680/680 653/653
f 656/656 667/667 670/670
f 656/656 670/670 657/657
f 681/681 682/682 683/683
f 681/681 683/683 684/684
f 685/685 686/686 687/687
f 685/685 687/687 688/688
f 672/672 685/685 688/688
f 672/672 688/688 673/673
f 668/668 681/681 684/684
f 668/668 684/684 669/669
f 689/689 690/690 691/691
f 689/689 691/691 692/692
f 693/693 694/694 695/695
f 693/693 695/695 696/696
f 682/682 671/671 674/674
f 682/682 674/674 683/683
f 686/686 689/689 692/692
f 686/686 692/692 687/687
f 697/697 698/698 699/699
f 697/697 699/699 700/700
f 701/701 702/702 703/703
f 701/701 703/703 704/704
f 694/694 701/701 704/704
f 694/694 704/704 695/695
f 679/679 641/641 644/644
f 679/679 644/644 680/680
f 690/690 697/697 700/700
f 690/690 700/700 691/691
f 705/705 663/663 664/664
f 705/705 664/664 706/706
f 675/675 659/659 660/660
f 675/675 660/660 676/676
f 677/677 661/661 662/662
f 677/677 662/662 678/678
f 698/698 693/693 696/696
f 698/698 696/696 699/699
f 702/702 705/705 706/706
f 702/702 706/706 703/703
f 707/707 708/708 709/709
f 707/707 709/709 710/710
f 711/711 712/712 713/713
f 711/711 713/713 714/714
f 715/715 716/716 717/717
f 715/715 717/717 718/718
f 719/719 720/720 721/721
f 719/719 721/721 722/722
f 723/723 724/724 725/725
f 723/723 725/725 726/726
f 727/727 728/728 729/729
f 727/727 729/729 730/730
f 731/731 732/732 733/733
f 731/731 733/733 734/734
f 735/735 736/736 737/737
f 735/735 737/737 738/738
f 739/739 740/740 741/741
f 739/739 741/741 742/742
f 712/712 743/743 744/744
f 712/712 744/744 713/713
f 720/720 745/745 746/746
f 720/720 746/746 721/721
f 724/724 747/747 748/748
f 724/724 748/748 725/725
f 728/728 707/707 710/710
f 728/728 710/710 729/729
f 732/732 749/749 750/750
f 732/732 750/750 733/733
f 736/736 751/751 752/752
f 736/736 752/752 737/737
f 740/740 753/753 754/754
f 740/740 754/754 741/741
f 743/743 755/755 756/756
f 743/743 756/756 744/744
f 745/745 757/757 758/758
f 745/745 758/758 746/746
f 747/747 759/759 760/760
f 747/747 760/760 748/748
f 749/749 761/761 762/762
f 749/749 762/762 750/750
f 751/751 763/763 764/764
f 751/751 764/764 752/752
f 753/753 765/765 766/766
f 753/753 766/766 754/754
f 755/755 767/767 768/768
f 755/755 768/768 756/756
f 757/757 769/769 770/770
f 757/757 770/770 758/758
f 759/759 771/771 772/772
f 759/759 772/772 760/760
f 708/708 773/773 774/774
f 708/708 774/774 709/709
f 773/773 711/711 714/714
f 773/773 714/714 774/774
f 761/761 719/719 722/722
f 761/761 722/722 762/762
f 763/763 723/723 726/726
f 763/763 726/726 764/764
f 765/765 727/727 730/730
f 765/765 730/730 766/766
f 767/767 731/731 734/734
f 767/767 734/734 768/768
f 769/769 735/735 738/738
f 769/769 738/738 770/770
f 771/771 739/739 742/742
f 771/771 742/742 772/772
f 775/775 776/776 777/777
f 775/775 777/777 778/778
f 779/779 780/780 781/781
f 779/779 781/781 782/782
f 778/778 777/777 716/716
f 778/778 716/716 715/715
f 782/782 781/781 783/783
f 782/782 783/783 784/784
f 785/785 786/786 787/787
f 785/785 787/787 788/788
f 789/789 790/790 776/776
f 789/789 776/776 775/775
f 791/791 792/792 780/780
f 791/791 780/780 779/779
f 788/788 787/787 793/793
f 788/788 793/793 794/794
f 795/795 796/796 797/797
f 795/795 797/797 798/798
f 799/799 800/800 786/786
f 799/799 786/786 785/785
f 801/801 802/802 790/790
f 801/801 790/790 789/789
f 798/798 797/797 792/792
f 798/798 792/792 791/791
f 803/803 804/804 805/805
f 803/803 805/805 806/806
f 807/807 808/808 796/796
f 807/807 796/796 795/795
f 809/809 810/810 800/800
f 809/809 800/800 799/799
f 806/806 805/805 802/802
f 806/806 802/802 801/801
f 811/811 812/812 813/813
f 811/811 813/813 814/814
f 815/815 816/816 804/804
f 815/815 804/804 803/803
f 794/794 793/793 808/808
f 794/794 808/808 807/807
f 814/814 813/813 810/810
f 814/814 810/810 809/809
f 817/817 818/818 819/819
f 817/817 819/819 820/820
f 821/821 822/822 823/823
f 821/821 823/823 824/824
f 820/820 819/819 812/812
f 820/820 812/812 811/811
f 824/824 823/823 816/816
f 824/824 816/816 815/815
f 825/825 826/826 827/827
f 825/825 827/827 828/828
f 829/829 830/830 831/831
f 829/829 831/831 832/832
f 828/828 827/827 818/818
f 828/828 818/818 817/817
f 832/832 831/831 822/822
f 832/832 822/822 821/821
f 833/833 834/834 835/835
f 833/833 835/835 836/836
f 784/784 783/783 837/837
f 784/784 837/837 838/838
f 718/718 717/717 826/826
f 718/718 826/826 825/825
f 838/838 837/837 830/830
f 838/838 830/830 829/829
f 839/839 840/840 841/841
f 839/839 841/841 842/842
f 843/843 844/844 845/845
f 843/843 845/845 846/846
f 847/847 848/848 849/849
f 847/847 849/849 850/850
f 851/851 852/852 844/844
f 851/851 844/844 843/843
f 853/853 854/854 848/848
f 853/853 848/848 847/847
f 855/855 856/856 840/840
f 855/855 840/840 839/839
f 836/836 835/835 857/857
f 836/836 857/857 858/858
f 859/859 860/860 861/861
f 859/859 861/861 862/862
f 863/863 864/864 865/865
f 863/863 865/865 866/866
f 842/842 841/841 867/867
f 842/842 867/867 868/868
f 858/858 857/857 869/869
f 858/858 869/869 870/870
f 846/846 845/845 871/871
f 846/846 871/871 872/872
f 850/850 849/849 860/860
f 850/850 860/860 859/859
f 873/873 874/874 875/875
f 873/873 875/875 876/876
f 877/877 878/878 879/879
f 877/877 879/879 880/880
f 866/866 865/865 878/878
f 866/866 878/878 877/877
f 862/862 861/861 874/874
f 862/862 874/874 873/873
f 881/881 882/882 883/883
f 881/881 883/883 884/884
f 885/885 886/886 887/887
f 885/885 887/887 888/888
f 876/876 875/875 864/864
f 876/876 864/864 863/863
f 880/880 879/879 882/882
f 880/880 882/882 881/881
f 889/889 890/890 891/891
f 889/889 891/891 892/892
f 893/893 894/894 895/895
f 893/893 895/895 896/896
f 888/888 887/887 894/894
f 888/888 894/894 893/893
f 872/872 871/871 834/834
f 872/872 834/834 833/833
f 884/884 883/883 890/890
f 884/884 890/890 889/889
f 897/897 898/898 856/856
f 897/897 856/856 855/855
f 868/868 867/867 852/852
f 868/868 852/852 851/851
f 870/870 869/869 854/854
f 870/870 854/854 853/853
f 892/892 891/891 886/886
f 892/892 886/886 885/885
f 896/896 895/895 898/898
f 896/896 898/898 897/897
f 899/899 900/900 901/901
f 899/899 901/901 902/902
f 903/903 899/899 902/902
f 903/903 902/902 904/904
f 905/905 903/903 904/904
f 905/905 904/904 906/906
f 907/907 905/905 906/906
f 907/907 906/906 908/908
f 909/909 907/907 908/908
f 909/909 908/908 910/910
f 911/911 909/909 910/910
f 911/911 910/910 912/912
f 913/913 911/911 912/912
f 913/913 912/912 914/914
f 915/915 913/913 914/914
f 915/915 914/914 916/916
f 917/917 915/915 916/916
f 917/917 916/916 918/918
f 919/919 917/917 918/918
f 919/919 918/918 920/920
f 921/921 919/919 920/920
f 921/921 920/920 922/922
f 923/923 921/921 922/922
f 923/923 922/922 924/924
f 925/925 923/923 924/924
f 925/925 924/924 926/926
f 927/927 925/925 926/926
f 927/927 926/926 928/928
f 929/929 927/927 928/928
f 929/929 928/928 930/930
f 931/931 929/929 930/930
f 931/931 930/930 932/932
f 933/933 931/931 932/932
f 933/933 932/932 934/934
f 935/935 933/933 934/934
f 935/935 934/934 936/936
f 937/937 935/935 936/936
f 937/937 936/936 938/938
f 939/939 937/937 938/938
f 939/939 938/938 940/940
f 941/941 939/939 940/940
f 941/941 940/940 942/942
f 943/943 941/941 942/942
f 943/943 942/942 944/944
f 945/945 943/943 944/944
f 945/945 944/944 946/946
f 947/947 945/945 946/946
f 947/947 946/946 948/948
f 949/949 947/947 948/948
f 949/949 948/948 950/950
f 951/951 949/949 950/950
f 951/951 950/950 952/952
f 953/953 951/951 952/952
f 953/953 952/952 954/954
f 955/955 953/953 954/954
f 955/955 954/954 956/956
f 957/957 955/955 956/956
f 957/957 956/956 958/958
f 959/959 957/957 958/958
f 959/959 958/958 960/960
f 961/961 959/959 960/960
f 961/961 960/960 962/962
f 900/900 961/961 962/962
f 900/900 962/962 901/901
f 963/963 964/964 965/965
f 963/963 965/965 966/966
f 967/967 968/968 969/969
f 967/967 969/969 970/970
f 971/971 972/972 973/973
f 971/971 973/973 974/974
f 975/975 963/963 966/966
f 975/975 966/966 976/976
f 977/977 978/978 979/979
f 977/977 979/979 980/980
f 964/964 967/967 970/970
f 964/964 970/970 965/965
f 981/981 982/982 983/983
f 981/981 983/983 984/984
f 985/985 975/975 976/976
f 985/985 976/976 986/986
f 987/987 988/988 989/989
f 987/987 989/989 990/990
f 991/991 971/971 974/974
f 991/991 974/974 992/992
f 993/993 994/994 995/995
f 993/993 995/995 996/996
f 972/972 977/977 980/980
f 972/972 980/980 973/973
f 997/997 998/998 999/999
f 997/997 999/999 1000/1000
f 978/978 981/981 984/984
f 978/978 984/984 979/979
f 1001/1001 991/991 992/992
f 1001/1001 992/992 1002/1002
f 982/982 985/985 986/986
f 982/982 986/986 983/983
f 1003/1003 1004/1004 1005/1005
f 1003/1003 1005/1005 1006/1006
f 1007/1007 1008/1008 1009/1009
f 1007/1007 1009/1009 1010/1010
f 1011/1011 1012/1012 1013/1013
f 1011/1011 1013/1013 1014/1014
f 988/988 993/993 996/996
f 988/988 996/996 989/989
f 1015/1015 1016/1016 1017/1017
f 1015/1015 1017/1017 1018/1018
f 994/994 997/997 1000/1000
f 994/994 1000/1000 995/995
f 1019/1019 1007/1007 1010/1010
f 1019/1019 1010/1010 1020/1020
f 998/998 1001/1001 1002/1002
f 998/998 1002/1002 999/999
f 968/968 1021/1021 1022/1022
f 968/968 1022/1022 969/969
f 1023/1023 1003/1003 1006/1006
f 1023/1023 1006/1006 1024/1024
f 1021/1021 1025/1025 1026/1026
f 1021/1021 1026/1026 1022/1022
f 1004/1004 1011/1011 1014/1014
f 1004/1004 1014/1014 1005/1005
f 1025/1025 1027/1027 1028/1028
f 1025/1025 1028/1028 1026/1026
f 1012/1012 1015/1015 1018/1018
f 1012/1012 1018/1018 1013/1013
f 1027/1027 1023/1023 1024/1024
f 1027/1027 1024/1024 1028/1028
f 1016/1016 1019/1019 1020/1020
f 1016/1016 1020/1020 1017/1017
f 1055/1055 1053/1053 1054/1054
f 1053/1053 1055/1055 1056/1056
f 1053/1053 1056/1056 1052/1052
f 1052/1052 1056/1056 1057/1057
f 1052/1052 1057/1057 1051/1051
f 1051/1051 1057/1057 1058/1058
f 1051/1051 1058/1058 1050/1050
f 1050/1050 1058/1058 1059/1059
f 1050/1050 1059/1059 1049/1049
f 1049/1049 1059/1059 1060/1060
f 1049/1049 1060/1060 1048/1048
f 1048/1048 1060/1060 1029/1029
f 1048/1048 1029/1029 1047/1047
f 1047/1047 1029/1029 1030/1030
f 1047/1047 1030/1030 1046/1046
f 1046/1046 1030/1030 1031/1031
f 1046/1046 1031/1031 1045/1045
f 1045/1045 1031/1031 1032/1032
f 1045/1045 1032/1032 1044/1044
f 1044/1044 1032/1032 1033/1033
f 1044/1044 1033/1033 1043/1043
f 1043/1043 1033/1033 1034/1034
f 1043/1043 1034/1034 1042/1042
f 1042/1042 1034/1034 1035/1035
f 1042/1042 1035/1035 1041/1041
f 1041/1041 1035/1035 1036/1036
f 1041/1041 1036/1036 1040/1040
f 1040/1040 1036/1036 1037/1037
f 1040/1040 1037/1037 1039/1039
f 1039/1039 1037/1037 1038/1038
f 1087/1087 1085/1085 1086/1086
f 1085/1085 1087/1087 1088/1088
f 1085/1085 1088/1088 1084/1084
f 1084/1084 1088/1088 1089/1089
f 1084/1084 1089/1089 1083/1083
f 1083/1083 1089/1089 1090/1090
f 1083/1083 1090/1090 1082/1082
f 1082/1082 1090/1090 1091/1091
f 1082/1082 1091/1091 1081/1081
f 1081/1081 1091/1091 1092/1092
f 1081/1081 1092/1092 1080/1080
f 1080/1080 1092/1092 1061/1061
f 1080/1080 1061/1061 1079/1079
f 1079/1079 1061/1061 1062/1062
f 1079/1079 1062/1062 1078/1078
f 1078/1078 1062/1062 1063/1063
f 1078/1078 1063/1063 1077/1077
f 1077/1077 1063/1063 1064/1064
f 1077/1077 1064/1064 1076/1076
f 1076/1076 1064/1064 1065/1065
f 1076/1076 1065/1065 1075/1075
f 1075/1075 1065/1065 1066/1066
f 1075/1075 1066/1066 1074/1074
f 1074/1074 1066/1066 1067/1067
f 1074/1074 1067/1067 1073/1073
f 1073/1073 1067/1067 1068/1068
f 1073/1073 1068/1068 1072/1072
f 1072/1072 1068/1068 1069/1069
f 1072/1072 1069/1069 1071/1071
f 1071/1071 1069/1069 1070/1070

