# https://github.com/mikedh/trimesh
v 35.79154015 -121.32000446 1.83218050
v 53.99892211 -121.32000446 1.83218050
v 54.79507685 -121.30813122 2.62745905
v 54.79507685 -121.27251148 4.23166323
v 35.79154015 -121.18938446 4.23166323
v 35.79154015 -120.65508842 -0.26364756
v 49.19967413 -120.65508842 -0.26364756
v 51.59929991 -120.65508842 -0.25882673
v 53.99892211 -120.65508842 -0.20340157
v 54.79507685 -120.85693359 0.47137785
v 54.79507685 -121.29625797 1.83218050
v 54.79507685 -121.04690552 4.99239492
v 54.79507685 -120.59572220 6.21904421
v 35.79154015 -120.91629982 4.91045523
v 35.79154015 -119.56271410 -0.83641005
v 49.19967413 -118.79093170 -1.23966408
v 51.59929991 -118.79093170 -1.23002958
v 53.99892211 -118.79093170 -1.10953045
v 54.79507685 -119.39648151 -0.75125885
v 54.79507685 -120.64321518 -0.14475775
v 54.79507685 -119.93079185 6.50582600
v 35.79154015 -120.52448273 5.87522793
v 35.79154015 -118.79093170 -1.23966408
v 35.79154015 -117.38984585 -1.28625584
v 49.19967413 -116.39246464 -1.31919336
v 51.59929991 -116.39246464 -1.30955172
v 53.99892211 -116.39246464 -1.18021917
v 54.79507685 -117.18800068 -1.02678967
v 54.79507685 -118.79093170 -0.97939682
v 54.79507685 -118.79093170 6.87534857
v 35.79154015 -119.81205940 6.05919170
v 35.79154015 -116.39246464 -1.31919336
v 49.19967413 -30.00026822 -1.31919336
v 51.59929991 -0.01946926 -1.30955172
v 54.79507685 -116.39246464 -1.03723240
v 53.99892211 -0.01946926 -1.18021917
v 54.79507685 -117.88853645 6.88257980
v 35.79154015 -118.79093170 6.31945896
v 35.79154015 -82.79022217 -1.31919336
v 50.41808724 -0.01946926 -1.02920008
v 35.79154015 -80.39176226 -1.28545475
v 54.79507685 -0.01946926 -1.03723240
v 54.79507685 -116.39246464 6.88659239
v 35.79154015 -81.80471420 6.31945896
v 49.19967413 -0.01946926 -0.73840571
v 35.79154015 -77.99329519 -1.05008555
v 54.79507685 -0.01946926 6.88659239
v 35.79154015 -79.40625429 6.31624746
v 48.52442980 -0.01946926 -0.25882673
v 35.79154015 -73.19636822 -0.28935385
v 47.82686591 -0.01946926 0.23761797
v 49.19967413 -0.01946926 6.03267717
v 35.79154015 -77.00778723 6.19815874
v 35.79154015 -71.60531044 0.24323988
v 47.65573025 -0.01946926 1.83218050
v 48.52257013 -0.01946926 5.80694961
v 35.79154015 -73.19636822 5.83908606
v 47.86964893 -0.01946926 5.58845329
v 35.79154015 -71.48657084 0.51234770
v 47.69665360 -0.01946926 4.23166323
v 35.79154015 -71.08287334 1.83218050
v 35.79154015 -71.18973255 3.94408035
v 35.79154015 -72.85203695 5.79409647
v 35.79154015 -71.70029640 5.51374483
v 35.79154015 -71.89027548 5.63102531
v 35.79154015 -71.22535229 4.23166323
v 35.79154015 -71.47469759 4.95062399
f 1 2 3
f 1 3 4
f 1 4 5
f 1 5 14
f 1 14 22
f 1 22 31
f 1 31 38
f 1 38 44
f 1 44 48
f 1 48 53
f 1 53 57
f 1 57 63
f 1 63 65
f 1 65 64
f 1 64 67
f 1 67 66
f 1 66 62
f 1 62 61
f 1 61 59
f 1 59 54
f 1 54 50
f 1 50 46
f 1 46 41
f 1 41 39
f 1 39 32
f 1 32 24
f 1 24 23
f 1 23 15
f 1 15 6
f 1 6 7
f 1 7 2
f 2 7 8
f 2 8 9
f 2 9 10
f 2 10 11
f 2 11 3
f 3 11 10
f 3 10 20
f 3 20 19
f 3 19 29
f 3 29 28
f 3 28 35
f 3 35 42
f 3 42 47
f 3 47 43
f 3 43 37
f 3 37 30
f 3 30 21
f 3 21 13
f 3 13 12
f 3 12 4
f 4 12 5
f 5 12 13
f 5 13 14
f 6 15 7
f 7 15 16
f 7 16 8
f 8 16 17
f 8 17 9
f 9 17 18
f 9 18 19
f 9 19 20
f 9 20 10
f 13 21 22
f 13 22 14
f 15 23 16
f 16 23 24
f 16 24 25
f 16 25 26
f 16 26 17
f 17 26 18
f 18 26 27
f 18 27 28
f 18 28 29
f 18 29 19
f 21 30 22
f 22 30 31
f 24 32 25
f 25 32 39
f 25 39 33
f 25 33 34
f 25 34 26
f 26 34 36
f 26 36 27
f 27 35 28
f 27 36 42
f 27 42 35
f 30 37 38
f 30 38 31
f 33 39 34
f 34 40 45
f 34 45 49
f 34 49 51
f 34 51 55
f 34 55 60
f 34 60 58
f 34 58 56
f 34 56 52
f 34 52 47
f 34 47 42
f 34 42 36
f 34 39 41
f 34 41 40
f 37 43 38
f 38 43 47
f 38 47 44
f 40 41 45
f 41 46 45
f 44 47 48
f 45 46 49
f 46 50 51
f 46 51 49
f 47 52 48
f 48 52 53
f 50 54 51
f 51 54 55
f 52 56 53
f 53 56 58
f 53 58 57
f 54 59 55
f 55 59 61
f 55 61 62
f 55 62 60
f 57 58 63
f 58 60 64
f 58 64 65
f 58 65 63
f 60 62 66
f 60 66 67
f 60 67 64

