# https://github.com/mikedh/trimesh
v -14.67234135 121.31521225 1.83217335
v -14.67234135 121.19060040 4.23126268
v -14.67234135 120.65860748 -0.26328993
v -61.19714499 121.31521225 1.83217335
v -14.67234135 120.52920341 5.87577867
v -61.19714499 121.19060040 4.23126268
v -14.67234135 119.93968964 -0.64095211
v -61.19714499 120.65860748 -0.26328993
v -63.59658480 120.64423084 -0.25805426
v -63.59658480 121.29604340 1.83217335
v -63.59658480 121.17622375 4.23126268
v -14.67234135 118.79899979 6.31999540
v -61.19714499 120.52920341 5.87577867
v -63.59658480 120.52441120 5.87502766
v -14.67234135 118.79899979 -1.23922777
v -61.19714499 118.79899979 -1.23922777
v -63.59658480 118.79899979 -1.23399210
v -65.99602461 118.79899979 -0.84660959
v -65.99602461 120.36144733 0.09343672
v -65.99602461 120.73528290 1.83217335
v -65.99602461 120.66339970 4.23126268
v -65.99602461 120.28956413 5.68283129
v -14.67234135 109.19904470 6.31999540
v -61.19714499 118.79899979 6.31999540
v -63.59658480 118.79899979 6.31924438
v -65.99602461 118.79899979 6.12704802
v -14.67234135 117.86920309 -1.27063465
v -63.59658480 116.39781475 -1.31999445
v -65.99602461 116.39781475 -1.25567865
v -67.91451931 116.39781475 -0.27974081
v -67.59741068 118.79899979 0.08370924
v -67.26445198 120.05950928 0.50400066
v -67.30144501 120.09784698 1.83217335
v -67.28030205 120.07867813 4.23126268
v -67.23802328 120.03553391 5.47118711
v -14.67234135 107.72286415 6.28484774
v -41.99634790 72.35688686 6.31999540
v -40.44781208 72.35688686 6.29980373
v -65.99602461 116.39781475 6.31999540
v -67.50756741 118.79899979 5.68357515
v -67.76124716 116.39781475 5.87577867
v -14.67234135 116.39781475 -1.31999445
v -63.59658480 72.35688686 -1.31999445
v -65.15569210 72.35688686 -1.28260088
v -65.99602461 113.99662971 -1.26240921
v -67.93036938 113.99662971 -0.28647137
v -68.66500139 113.99662971 1.83217335
v -68.62800837 116.39781475 1.83217335
v -67.99907684 118.79899979 1.83217335
v -67.90923357 118.79899979 4.23126268
v -14.67234135 106.76909924 6.13078880
v -39.60219383 73.20041656 6.28933239
v -39.53877211 72.35688686 6.17566395
v -65.99602461 72.35688686 6.31999540
v -67.76653290 113.99662971 5.87577867
v -66.61966324 72.35688686 6.16369772
v -68.48002195 116.39781475 4.23126268
v -68.50116491 113.99662971 4.23126268
v -14.67234135 111.59544468 -1.31999445
v -41.99634790 72.35688686 -1.31999445
v -65.99602461 72.35688686 -1.26240921
v -67.93036938 72.35688686 -0.28647137
v -68.66500139 72.35688686 1.83217335
v -68.55930090 72.35688686 3.38844109
v -14.67234135 105.45108318 5.83464432
v -38.31791282 72.35688686 5.87577867
v -37.93738604 72.35688686 5.77556419
v -68.02550554 72.35688686 5.29843855
v -67.76653290 72.35688686 5.87577867
v -68.50116491 72.35688686 4.23126268
v -14.67234135 109.19904470 -1.31401491
v -15.60252070 109.19904470 -1.31999445
v -39.60219383 73.20041656 -1.21304941
v -39.52820420 72.35688686 -0.97150040
v -14.67234135 105.01494169 5.69778728
v -37.52514839 72.35688686 4.86842680
v -14.67234135 106.74513817 -0.88998270
v -15.60252070 106.79785967 -1.17790175
v -37.83696771 72.35688686 -0.08829546
v -14.67234135 104.70341206 4.97985649
v -37.37716198 72.35688686 4.16844177
v -14.67234135 104.95263577 0.04557180
v -37.27674723 72.35688686 1.81198168
v -14.67234135 104.52128649 4.23126268
v -37.28731871 72.35688686 2.54786539
v -14.67234135 104.45898056 1.83217335
f 1 2 5
f 1 5 12
f 1 12 23
f 1 23 36
f 1 36 51
f 1 51 65
f 1 65 75
f 1 75 80
f 1 80 84
f 1 84 86
f 1 86 82
f 1 82 77
f 1 77 71
f 1 71 59
f 1 59 42
f 1 42 27
f 1 27 15
f 1 15 7
f 1 7 3
f 1 3 8
f 1 8 4
f 1 4 6
f 1 6 2
f 2 6 13
f 2 13 5
f 3 7 8
f 4 8 9
f 4 9 10
f 4 10 11
f 4 11 6
f 5 13 24
f 5 24 12
f 6 11 14
f 6 14 13
f 7 15 16
f 7 16 8
f 8 16 17
f 8 17 9
f 9 17 18
f 9 18 19
f 9 19 10
f 10 19 20
f 10 20 21
f 10 21 11
f 11 21 22
f 11 22 14
f 12 24 39
f 12 39 54
f 12 54 37
f 12 37 23
f 13 14 25
f 13 25 24
f 14 22 26
f 14 26 25
f 15 27 16
f 16 28 17
f 16 27 28
f 17 28 29
f 17 29 18
f 18 29 30
f 18 30 31
f 18 31 32
f 18 32 19
f 19 32 20
f 20 32 33
f 20 33 34
f 20 34 21
f 21 34 35
f 21 35 22
f 22 35 26
f 23 37 38
f 23 38 36
f 24 25 39
f 25 26 39
f 26 35 40
f 26 40 41
f 26 41 39
f 27 42 28
f 28 43 44
f 28 44 45
f 28 45 29
f 28 42 59
f 28 59 72
f 28 72 60
f 28 60 43
f 29 45 46
f 29 46 30
f 30 46 47
f 30 47 48
f 30 48 31
f 31 48 49
f 31 49 32
f 32 49 33
f 33 49 34
f 34 49 50
f 34 50 35
f 35 50 40
f 36 38 52
f 36 52 53
f 36 53 51
f 37 54 56
f 37 56 69
f 37 69 68
f 37 68 70
f 37 70 64
f 37 64 63
f 37 63 62
f 37 62 61
f 37 61 44
f 37 44 43
f 37 43 60
f 37 60 74
f 37 74 79
f 37 79 83
f 37 83 85
f 37 85 81
f 37 81 76
f 37 76 67
f 37 67 66
f 37 66 53
f 37 53 38
f 38 53 52
f 39 41 55
f 39 55 56
f 39 56 54
f 40 50 57
f 40 57 41
f 41 57 58
f 41 58 55
f 44 61 45
f 45 61 62
f 45 62 46
f 46 62 63
f 46 63 47
f 47 63 64
f 47 64 58
f 47 58 57
f 47 57 48
f 48 57 50
f 48 50 49
f 51 53 66
f 51 66 67
f 51 67 65
f 55 58 68
f 55 68 69
f 55 69 56
f 58 64 70
f 58 70 68
f 59 71 72
f 60 72 71
f 60 71 73
f 60 73 74
f 65 67 75
f 67 76 75
f 71 77 78
f 71 78 73
f 73 78 77
f 73 77 74
f 74 77 79
f 75 76 80
f 76 81 80
f 77 82 79
f 79 82 83
f 80 81 84
f 81 85 84
f 82 86 83
f 83 86 85
f 84 85 86

