# https://github.com/mikedh/trimesh
v 9.15293455 -121.32000446 1.83217335
v 35.79154015 -120.93160629 0.60271311
v 35.79154015 -121.32000446 1.83217335
v 35.79154015 -121.26591682 2.82306719
v 9.15293455 -121.18726730 4.23126268
v 9.15293455 -120.65629005 -0.26328993
v 35.79154015 -120.65629005 -0.26328993
v 35.79154015 -121.18726730 4.23126268
v 35.79154015 -120.91685772 4.91105604
v 9.15293455 -120.52845955 5.87577867
v 9.15293455 -118.79786968 -1.23922777
v 35.79154015 -118.79786968 -1.23922777
v 35.79154015 -120.52845955 5.87577867
v 35.79154015 -119.81557846 6.05899858
v 9.15293455 -118.79786968 6.31999540
v 9.15293455 -116.39865160 -1.31999445
v 35.79154015 -116.39865160 -1.31999445
v 35.79154015 -118.79786968 6.31999540
v 9.15293455 -110.84798813 6.31999540
v 9.15293455 -111.59528732 -1.31999445
v 35.79154015 -82.80462742 -1.31999445
v 35.79154015 -81.81150913 6.31999540
v 9.15293455 -109.19606924 6.25717449
v 34.79797125 -82.80462742 6.31999540
v 35.79154015 -79.41228390 6.31625462
v 34.79797125 -80.40048838 6.31401586
v 9.15293455 -109.19606924 -1.12854910
v 34.79797125 -80.40048838 -1.26091433
v 34.79797125 -82.80462742 -1.31999445
v 35.79154015 -80.40048838 -1.28559065
v 9.15293455 -108.45368385 6.12480926
v 35.79154015 -77.01306581 6.19809437
v 35.79154015 -73.20282698 5.83912897
v 35.79154015 -72.85867453 5.79350996
v 35.79154015 -71.89505339 5.63048172
v 9.15293455 -107.22949505 -0.16532135
v 35.79154015 -71.60990238 0.24300384
v 35.79154015 -73.20282698 -0.28946114
v 35.79154015 -78.00127029 -1.05002117
v 9.15293455 -107.29341030 5.81669855
v 35.79154015 -71.70331478 5.51381636
v 9.15293455 -106.51169300 1.83217335
v 35.79154015 -71.49190664 0.51222610
v 9.15293455 -106.93450928 5.16607332
v 35.79154015 -71.48207188 4.95068836
v 9.15293455 -106.58543587 4.23126268
v 35.79154015 -71.09367371 1.83217335
v 35.79154015 -71.23133183 4.23126268
v 35.79154015 -71.20183468 3.94408750
f 1 2 3
f 1 3 4
f 1 4 5
f 1 5 10
f 1 10 15
f 1 15 19
f 1 19 23
f 1 23 31
f 1 31 40
f 1 40 44
f 1 44 46
f 1 46 42
f 1 42 36
f 1 36 27
f 1 27 20
f 1 20 16
f 1 16 11
f 1 11 6
f 1 6 2
f 2 6 7
f 2 7 12
f 2 12 17
f 2 17 21
f 2 21 30
f 2 30 39
f 2 39 38
f 2 38 37
f 2 37 43
f 2 43 47
f 2 47 49
f 2 49 48
f 2 48 45
f 2 45 41
f 2 41 35
f 2 35 34
f 2 34 33
f 2 33 32
f 2 32 25
f 2 25 22
f 2 22 18
f 2 18 14
f 2 14 13
f 2 13 9
f 2 9 8
f 2 8 4
f 2 4 3
f 4 8 5
f 5 8 9
f 5 9 10
f 6 11 12
f 6 12 7
f 9 13 10
f 10 13 14
f 10 14 15
f 11 16 17
f 11 17 12
f 14 18 15
f 15 18 22
f 15 22 24
f 15 24 19
f 16 20 29
f 16 29 21
f 16 21 17
f 19 24 25
f 19 25 26
f 19 26 23
f 20 27 28
f 20 28 29
f 21 29 30
f 22 25 24
f 23 26 32
f 23 32 33
f 23 33 34
f 23 34 35
f 23 35 31
f 25 32 26
f 27 36 37
f 27 37 38
f 27 38 28
f 28 38 39
f 28 39 30
f 28 30 29
f 31 35 40
f 35 41 40
f 36 42 43
f 36 43 37
f 40 41 44
f 41 45 44
f 42 46 47
f 42 47 43
f 44 45 46
f 45 48 46
f 46 48 49
f 46 49 47

