# https://github.com/mikedh/trimesh
v 21.21110559 -116.21562481 131.94666910
v 21.21110559 -106.80136442 131.94666910
v 21.21110559 -118.60728264 131.96336853
v -28.01338792 -118.79502296 166.78764868
v 21.21110559 -104.40154552 131.95084442
v -28.01338792 -93.52344990 166.78764868
v 21.21110559 -118.79774094 131.96754384
v -26.67379975 -120.21532059 166.04448367
v -29.50962245 -118.79502296 167.98589158
v 21.21110559 -102.00172663 132.13454712
v -29.50962245 -93.52344990 167.98589158
v -26.80883825 -93.52344990 165.95680762
v 21.21110559 -119.99221087 132.39340175
v -27.52184629 -120.62074184 167.40973163
v -29.27195370 -120.37858486 168.20299673
v 21.21110559 -120.37585258 132.89023447
v -30.70877194 -118.79502296 169.15908623
v 21.21110559 -100.52156210 133.32444298
v -25.19376934 -93.52344990 164.92138911
v -23.72994483 -93.52344990 163.99452496
v -12.68373728 -93.52344990 157.00545360
v -12.04095036 -93.52344990 156.60047221
v -11.46298170 -93.52344990 156.25811505
v -30.70877194 -93.52344990 169.15908623
v -25.19376934 -121.14858627 167.43060636
v -27.59206653 -121.27375603 169.82709933
v -30.03897429 -120.69419861 169.80205107
v -31.53521061 -120.34320831 170.58278848
v 21.21110559 -120.59625149 133.83380163
v -31.70265913 -118.79502296 170.35733271
v 21.21110559 -100.46442747 133.67932427
v -9.68586624 -93.52344990 155.51077652
v -8.37328523 -93.52344990 155.24357129
v -7.04990074 -93.52344990 155.10161805
v -6.00199655 -93.52344990 155.09327103
v -4.63539943 -93.52344990 155.08492041
v -3.60370003 -93.52344990 155.08909392
v -2.23710313 -93.52344990 155.11414576
v -1.15138784 -93.52344990 155.22687006
v 0.69594875 -93.52344990 156.00343394
v -31.70265913 -93.52344990 170.35733271
v -20.39177656 -121.27375603 165.02994347
v -15.59518218 -121.32000446 162.62509990
v -22.79547393 -121.32000446 167.43060636
v -27.59206653 -121.32000446 172.22776580
v -29.99576390 -121.31728649 174.59920693
v -29.99576390 -121.24654770 172.22776580
v -32.03755617 -120.58536530 172.22776580
v -32.97203064 -120.60985565 174.59920693
v -33.56620073 -118.79502296 173.48446298
v -32.88020253 -118.79502296 172.22776580
v 21.21110559 -120.96628189 136.17601740
v 20.39546907 -121.27919197 138.63513459
v -32.32924104 -93.52344990 171.35100174
v 21.21110559 -100.21682739 135.35770225
v 0.55550784 -93.52344990 157.14322972
v 21.21110559 -99.96378422 140.22583651
v 21.21110559 -99.97194529 137.82517004
v -8.39489132 -121.32000446 157.83211757
v 5.99488735 -121.32000446 150.63429165
v -32.60472178 -120.75678349 174.59920693
v 17.99717367 -121.27919197 143.43229222
v -27.59206653 -121.08601570 174.59920693
v -33.97131801 -118.79502296 174.59920693
v -33.57160091 -116.39520407 173.48446298
v -33.25291157 -93.52344990 172.89577532
v -32.88020253 -93.52344990 172.22776580
v 21.21110559 -121.29279613 138.63513459
v 17.99717367 -121.31456852 141.03580106
v -2.00483546 -93.52344990 159.28086805
v 19.70947087 -100.54333448 144.96871877
v 21.21110559 -100.40184259 143.19848943
v 21.21110559 -100.30661345 142.80603218
v 21.21110559 -100.06989956 141.07755232
v 10.79688191 -121.32000446 145.83295870
v 20.39546907 -121.32000446 141.03580106
v 21.21110559 -121.15130424 141.09007646
v 20.51970541 -120.75950146 143.57424545
v 15.59887648 -121.09960556 145.83295870
v -25.76633692 -120.42483330 174.59920693
v 17.86753535 -120.58536530 145.84130931
v 19.79589522 -120.38673878 145.04387069
v -33.97131801 -93.52344990 174.59920693
v -33.80386949 -93.52344990 174.11907364
v -33.57160091 -93.52344990 173.48446298
v 15.59887648 -121.32000446 143.43229222
v -25.18836737 -93.52344990 174.59920693
v 17.03569293 -102.00172663 147.18568253
v 18.24024439 -102.00172663 146.38824392
v 20.03356397 -102.00172663 145.18999743
v 21.21110559 -102.00172663 144.33828342
v 21.21110559 -120.63434601 143.29868960
v -25.73392689 -120.38130283 174.59920693
v 16.98167861 -120.14729977 147.15228368
v 21.21110559 -118.89297724 144.43431008
v -25.08033693 -97.20480680 174.59920693
v 18.27265263 -104.40154552 146.44252109
v 20.09298205 -104.40154552 145.24427463
v 21.21110559 -104.40154552 144.46771073
v -25.09113908 -118.79502296 174.59920693
v 21.21110559 -118.79774094 144.45936012
v 20.09838402 -118.79774094 145.24844813
v 18.27805459 -118.79774094 146.45086814
v -25.05332887 -116.33534431 174.59920693
v 20.09298205 -111.59828424 145.24844813
v 21.21110559 -116.39792204 144.47188604
v -25.05332887 -116.39520407 174.59920693
v 21.21110559 -116.57478333 144.47188604
f 1 2 5
f 1 5 10
f 1 10 18
f 1 18 31
f 1 31 55
f 1 55 58
f 1 58 57
f 1 57 74
f 1 74 73
f 1 73 72
f 1 72 91
f 1 91 99
f 1 99 106
f 1 106 108
f 1 108 101
f 1 101 95
f 1 95 92
f 1 92 77
f 1 77 68
f 1 68 52
f 1 52 29
f 1 29 16
f 1 16 13
f 1 13 7
f 1 7 3
f 1 3 4
f 1 4 6
f 1 6 2
f 2 6 5
f 3 7 4
f 4 8 9
f 4 9 11
f 4 11 6
f 4 7 8
f 5 6 10
f 6 11 24
f 6 24 41
f 6 41 54
f 6 54 67
f 6 67 66
f 6 66 85
f 6 85 84
f 6 84 83
f 6 83 87
f 6 87 70
f 6 70 56
f 6 56 40
f 6 40 39
f 6 39 38
f 6 38 37
f 6 37 36
f 6 36 35
f 6 35 34
f 6 34 33
f 6 33 32
f 6 32 23
f 6 23 22
f 6 22 21
f 6 21 20
f 6 20 19
f 6 19 12
f 6 12 10
f 7 13 8
f 8 14 15
f 8 15 9
f 8 13 16
f 8 16 14
f 9 17 24
f 9 24 11
f 9 15 17
f 10 12 19
f 10 19 20
f 10 20 21
f 10 21 22
f 10 22 23
f 10 23 18
f 14 25 26
f 14 26 27
f 14 27 15
f 14 16 25
f 15 27 28
f 15 28 17
f 16 29 25
f 17 28 30
f 17 30 41
f 17 41 24
f 18 23 32
f 18 32 33
f 18 33 34
f 18 34 35
f 18 35 36
f 18 36 37
f 18 37 38
f 18 38 39
f 18 39 40
f 18 40 31
f 25 42 26
f 25 29 42
f 26 42 43
f 26 43 44
f 26 44 45
f 26 45 46
f 26 46 47
f 26 47 27
f 27 47 48
f 27 48 28
f 28 48 49
f 28 49 50
f 28 50 51
f 28 51 30
f 29 52 53
f 29 53 42
f 30 54 41
f 30 51 54
f 31 40 55
f 40 56 57
f 40 57 58
f 40 58 55
f 42 59 43
f 42 53 59
f 43 59 75
f 43 75 86
f 43 86 76
f 43 76 60
f 43 60 45
f 43 45 44
f 45 60 46
f 46 61 47
f 46 60 62
f 46 62 63
f 46 63 80
f 46 80 93
f 46 93 100
f 46 100 107
f 46 107 104
f 46 104 96
f 46 96 87
f 46 87 83
f 46 83 64
f 46 64 49
f 46 49 61
f 47 61 48
f 48 61 49
f 49 64 50
f 50 64 65
f 50 65 51
f 51 65 66
f 51 66 67
f 51 67 54
f 52 68 53
f 53 68 69
f 53 69 59
f 56 70 71
f 56 71 72
f 56 72 73
f 56 73 74
f 56 74 57
f 59 69 75
f 60 76 62
f 62 76 77
f 62 77 78
f 62 78 79
f 62 79 63
f 63 79 78
f 63 78 81
f 63 81 82
f 63 82 80
f 64 83 84
f 64 84 65
f 65 85 66
f 65 84 85
f 68 77 76
f 68 76 69
f 69 76 86
f 69 86 75
f 70 87 88
f 70 88 89
f 70 89 90
f 70 90 91
f 70 91 71
f 71 91 72
f 77 92 78
f 78 82 81
f 78 92 82
f 80 82 94
f 80 94 93
f 82 92 95
f 82 95 94
f 87 96 97
f 87 97 88
f 88 97 98
f 88 98 89
f 89 98 90
f 90 98 99
f 90 99 91
f 93 94 100
f 94 95 101
f 94 101 102
f 94 102 103
f 94 103 100
f 96 104 97
f 97 103 98
f 97 104 103
f 98 103 105
f 98 105 99
f 99 105 102
f 99 102 106
f 100 103 107
f 101 108 102
f 102 105 103
f 102 108 106
f 103 104 107

