# https://github.com/mikedh/trimesh
v 12.72577286 104.42118645 1.83217335
v 12.72577286 104.49985743 4.23126268
v 12.72577286 104.49002266 1.35729361
v 35.79154015 71.09557629 1.83217335
v 12.72577286 105.08986473 5.72396564
v 35.79154015 71.22832775 4.23126268
v 35.79154015 71.48399591 4.95667505
v 12.72577286 105.01120090 -0.01575422
v 35.79154015 71.55774593 0.28637695
v 12.72577286 106.79105759 6.15621614
v 35.79154015 71.89208508 5.63048172
v 12.72577286 105.22753716 -0.17205191
v 35.79154015 71.60691261 0.24300384
v 13.20216984 106.79597139 6.22427273
v 12.72577286 109.19533968 6.31999540
v 35.79154015 73.20485115 5.83912897
v 12.72577286 106.78122282 -0.95354748
v 35.79154015 72.69351482 -0.16083670
v 12.72577286 107.27289677 -1.13901329
v 34.79810715 80.40294886 6.31401586
v 12.72577286 118.79771233 6.31999540
v 34.79810715 82.80231714 6.31999540
v 35.79154015 78.00358772 6.19809437
v 35.79154015 73.20485115 -0.29021215
v 12.72577286 109.19533968 -1.30877924
v 35.79154015 79.40977335 -1.28559065
v 34.79810715 80.40294886 -1.26091433
v 35.79154015 77.01040506 -1.03805494
v 35.79154015 80.40294886 6.31625462
v 35.79154015 118.79771233 6.31999540
v 12.72577286 120.52840233 5.87577867
v 35.79154015 82.80231714 6.31999540
v 12.72577286 109.67225790 -1.31999445
v 34.79810715 82.80231714 -1.31999445
v 35.79154015 81.80913448 -1.31999445
v 35.79154015 120.52840233 5.87577867
v 12.72577286 121.05940819 4.55657530
v 12.72577286 116.39835119 -1.31999445
v 35.79154015 116.39835119 -1.31999445
v 35.79154015 121.18725300 4.23126268
v 12.72577286 121.18725300 4.23126268
v 12.72577286 118.79771233 -1.23922777
v 35.79154015 117.80453682 -1.27288055
v 35.79154015 121.32000446 1.83217335
v 12.72577286 121.32000446 1.83217335
v 12.72577286 119.16646957 -1.04703140
v 35.79154015 118.79771233 -1.23922777
v 35.79154015 120.65624714 -0.26328993
v 12.72577286 120.78899860 0.15027094
v 12.72577286 120.65624714 -0.26328993
v 35.79154015 119.88923550 -0.66712332
f 1 2 5
f 1 5 10
f 1 10 15
f 1 15 21
f 1 21 31
f 1 31 37
f 1 37 41
f 1 41 45
f 1 45 49
f 1 49 50
f 1 50 46
f 1 46 42
f 1 42 38
f 1 38 33
f 1 33 25
f 1 25 19
f 1 19 17
f 1 17 12
f 1 12 8
f 1 8 3
f 1 3 4
f 1 4 2
f 2 4 6
f 2 6 7
f 2 7 5
f 3 8 9
f 3 9 4
f 4 9 13
f 4 13 18
f 4 18 24
f 4 24 28
f 4 28 26
f 4 26 35
f 4 35 39
f 4 39 43
f 4 43 47
f 4 47 51
f 4 51 48
f 4 48 44
f 4 44 40
f 4 40 36
f 4 36 30
f 4 30 32
f 4 32 29
f 4 29 23
f 4 23 16
f 4 16 11
f 4 11 7
f 4 7 6
f 5 7 11
f 5 11 10
f 8 12 13
f 8 13 9
f 10 14 15
f 10 11 16
f 10 16 14
f 12 17 13
f 13 17 19
f 13 19 18
f 14 16 20
f 14 20 15
f 15 20 22
f 15 22 32
f 15 32 30
f 15 30 21
f 16 23 20
f 18 19 24
f 19 25 26
f 19 26 27
f 19 27 28
f 19 28 24
f 20 23 29
f 20 29 22
f 21 30 36
f 21 36 31
f 22 29 32
f 25 33 26
f 26 34 35
f 26 28 27
f 26 33 34
f 31 36 37
f 33 38 39
f 33 39 35
f 33 35 34
f 36 40 37
f 37 40 41
f 38 42 43
f 38 43 39
f 40 44 45
f 40 45 41
f 42 46 47
f 42 47 43
f 44 48 49
f 44 49 45
f 46 50 51
f 46 51 47
f 48 51 50
f 48 50 49

