# https://github.com/mikedh/trimesh
v -33.67256284 121.32000446 195.10313559
v -32.39909649 121.32000446 193.83054542
v -32.39909649 121.32000446 181.83328915
v -34.79895115 121.30825996 195.10313559
v -32.39909649 121.28474236 195.10313559
v -27.60061026 121.08489990 174.59921051
v -30.00046492 121.30825996 179.43263340
v -30.00046492 121.32000446 177.03398752
v -30.00046492 121.32000446 174.63333178
v -32.39909649 121.30825996 179.43263340
v -34.79895115 121.29650116 193.83054542
v -35.86895943 120.95558167 195.10313559
v -31.48719907 120.97909927 195.10313559
v -27.56261587 121.07314110 174.59921051
v -29.96737361 121.32000446 174.59921051
v -32.39909649 121.22596264 177.03398752
v -32.60991096 120.75573921 174.59921051
v -34.79895115 121.21420383 191.43189956
v -36.66564345 120.63817978 193.83054542
v -36.74531221 120.64993858 195.10313559
v -30.54098368 120.62642097 195.10313559
v -25.76946437 120.42657852 174.59921051
v -34.31603909 120.64993858 179.43263340
v -34.12973642 120.56764126 177.03398752
v -32.73247719 120.70870399 174.59921051
v -36.49772644 120.55588245 191.43189956
v -37.53463984 118.79253387 195.10313559
v -29.86319125 118.79253387 195.10313559
v -25.09534836 118.79253387 174.59921051
v -33.87112141 120.32077789 175.07091093
v -36.01481438 120.01513481 185.33591795
v -36.11654520 120.16794205 186.63058806
v -36.30774736 120.39130211 189.03124381
v -32.97760963 120.60290337 174.59921051
v -37.35324025 118.79253387 193.83054542
v -37.57631421 116.39438152 195.10313559
v -29.84358072 116.39438152 195.10313559
v -25.05612552 116.39438152 174.59921051
v -33.78165007 119.86229897 174.59921051
v -34.00717020 118.79253387 174.68953658
v -34.65922594 118.79253387 177.03398752
v -36.02216721 118.79253387 185.28774548
v -36.23543501 118.79253387 186.63058806
v -36.99534774 118.79253387 191.43189956
v -35.06369591 118.79253387 179.43263340
v -35.09433746 116.39438152 179.43263340
v -37.37530231 116.39438152 193.83054542
v -37.57631421 101.99368000 195.10313559
v -29.84358072 101.99368000 195.10313559
v -25.07941425 15.60121894 174.59921051
v -33.97407889 118.79253387 174.59921051
v -33.97530198 118.61620188 174.59921051
v -34.00717020 1.22403145 174.68953658
v -34.65922594 1.22403145 177.03398752
v -34.66412902 1.22403145 177.05606747
v -36.23543501 85.19481897 186.63058806
v -35.09433746 1.22403145 179.43263340
v -37.37530231 101.99368000 193.83054542
v -37.52238393 100.86513519 195.10313559
v -35.09678721 1.22403145 179.45672321
v -35.26960731 1.22403145 181.83328915
v -29.92447436 99.59552050 195.10313559
v -28.39116633 1.22403145 183.45312881
v -27.76607573 1.22403145 181.83328915
v -25.23384690 1.22403145 174.59921051
v -25.11250734 6.00858808 174.59921051
v -25.10147631 8.40674758 174.59921051
v -33.97530198 1.22403145 174.59921051
v -37.44639158 99.59552050 195.10313559
v -34.42634940 1.22403145 183.52137852
v -30.55201650 97.18560219 195.10313559
v -30.00046492 1.22403145 183.94089031
v -37.16448784 98.44346523 195.10313559
v -32.39909649 1.22403145 184.00914001
v -36.70854092 97.18560219 195.10313559
v -32.39909649 96.45675659 195.10313559
v -33.88092756 96.44499779 195.10313559
v -34.79895115 96.44499779 195.10313559
f 1 2 8
f 1 8 15
f 1 15 9
f 1 9 3
f 1 3 4
f 1 4 12
f 1 12 20
f 1 20 27
f 1 27 36
f 1 36 48
f 1 48 59
f 1 59 69
f 1 69 73
f 1 73 75
f 1 75 78
f 1 78 77
f 1 77 76
f 1 76 71
f 1 71 62
f 1 62 49
f 1 49 37
f 1 37 28
f 1 28 21
f 1 21 13
f 1 13 5
f 1 5 2
f 2 5 6
f 2 6 7
f 2 7 8
f 3 9 10
f 3 10 4
f 4 10 11
f 4 11 12
f 5 13 14
f 5 14 6
f 6 15 8
f 6 8 7
f 6 14 22
f 6 22 29
f 6 29 38
f 6 38 50
f 6 50 67
f 6 67 66
f 6 66 65
f 6 65 68
f 6 68 52
f 6 52 51
f 6 51 39
f 6 39 34
f 6 34 25
f 6 25 17
f 6 17 15
f 9 16 10
f 9 15 17
f 9 17 16
f 10 16 18
f 10 18 11
f 11 18 19
f 11 19 20
f 11 20 12
f 13 21 22
f 13 22 14
f 16 23 18
f 16 17 24
f 16 24 23
f 17 25 24
f 18 23 26
f 18 26 19
f 19 26 27
f 19 27 20
f 21 28 29
f 21 29 22
f 23 24 26
f 24 30 31
f 24 31 32
f 24 32 33
f 24 33 26
f 24 25 30
f 25 34 30
f 26 33 27
f 27 33 32
f 27 32 31
f 27 31 35
f 27 35 36
f 28 37 38
f 28 38 29
f 30 34 39
f 30 39 40
f 30 40 41
f 30 41 31
f 31 42 43
f 31 43 44
f 31 44 35
f 31 41 45
f 31 45 46
f 31 46 42
f 35 44 36
f 36 44 47
f 36 47 58
f 36 58 48
f 37 49 38
f 38 49 50
f 39 51 40
f 40 51 52
f 40 52 68
f 40 68 53
f 40 53 54
f 40 54 41
f 41 46 45
f 41 54 55
f 41 55 46
f 42 46 43
f 43 47 44
f 43 46 57
f 43 57 56
f 43 56 58
f 43 58 47
f 46 55 57
f 48 58 57
f 48 57 60
f 48 60 61
f 48 61 59
f 49 62 63
f 49 63 64
f 49 64 65
f 49 65 66
f 49 66 67
f 49 67 50
f 53 68 65
f 53 65 64
f 53 64 63
f 53 63 72
f 53 72 74
f 53 74 70
f 53 70 61
f 53 61 60
f 53 60 57
f 53 57 55
f 53 55 54
f 56 57 58
f 59 61 69
f 61 70 69
f 62 71 63
f 63 71 72
f 69 70 73
f 70 74 75
f 70 75 73
f 71 76 72
f 72 76 74
f 74 76 77
f 74 77 78
f 74 78 75

