# https://github.com/mikedh/trimesh
v 68.57621670 -99.60326672 16.24057102
v 68.57621670 -116.39858007 16.24057102
v 68.57621670 -99.60326672 13.86266041
v 67.89927721 -97.59402752 13.86266041
v 67.88536549 -97.56982327 16.24057102
v 67.70454168 -97.69327641 18.64405203
v 68.20992708 -99.60326672 18.64405203
v 68.56230497 -118.79756212 16.24057102
v 68.57621670 -116.43004417 13.86266041
v 68.20992708 -118.79756212 18.64405203
v 67.88536549 -97.56982327 13.86266041
v 65.99364996 -96.67413712 16.24057102
v 65.99364996 -96.79517269 18.64405203
v 67.86681890 -97.55771399 13.86266041
v 67.44025469 -98.00071478 20.57451296
v 41.16019964 -96.58940792 97.66486752
v 67.56081104 -99.60326672 20.94525862
v 67.70454168 -120.55020332 18.64405203
v 67.87146091 -120.65186977 16.24057102
v 68.55767012 -118.82176638 13.86266041
v 68.56230497 -118.79756212 13.86266041
v 67.56081104 -118.79756212 20.94525862
v 67.44025469 -120.30086517 20.57451296
v 63.59654188 -96.60635233 21.04753303
v 63.59654188 -96.63540602 23.43822527
v 65.99364996 -96.67171240 13.86266041
v 67.15742826 -99.60326672 22.14700270
v 41.35029674 -96.58940792 95.33809411
v 39.65795159 -96.58940792 102.01158750
v 30.36163688 -104.40123796 129.02517486
v 60.93051910 -118.79756212 40.24981070
v 67.16206312 -102.00224876 22.14700270
v 65.13587952 -99.60326672 28.02785683
v 65.99364996 -121.21107101 18.64405203
v 65.33061504 -120.54051876 25.84171343
v 65.99364996 -121.31273746 16.24057102
v 67.87146091 -120.65428734 13.86266041
v 55.32027125 -120.16771317 56.19204569
v 65.02460718 -120.28149605 27.69545603
v 67.16206312 -116.39858007 22.14700270
v 65.13587952 -118.79756212 28.02785683
v 45.61130404 -120.02247334 84.67584658
v 48.04086328 -120.06119728 77.55489635
v 62.90105581 -120.52114964 33.03936769
v 63.59654188 -96.61603689 18.64405203
v 33.51913691 -96.58940792 96.42477322
v 34.03843403 -96.58940792 95.52986133
v 35.23930550 -96.58940792 93.56105196
v 37.20057249 -96.58940792 91.95020842
v 39.42148805 -96.58940792 90.76125312
v 39.61158514 -96.58940792 90.73568451
v 40.46935201 -96.58940792 92.37209666
v 41.16019964 -96.58940792 93.80395818
v 65.96582651 -96.67171240 13.86266041
v 39.44466949 -96.58940792 102.62524116
v 28.96139324 -104.40123796 133.06506801
v 30.36163688 -116.39858007 129.02517486
v 41.16019964 -118.79997969 97.66486752
v 63.59654188 -121.20138645 25.84171343
v 58.79769802 -121.31273746 37.84632969
v 61.19944096 -121.32000446 30.63588667
v 63.59654188 -121.32000446 23.43822527
v 38.92073750 -120.53083420 102.62524116
v 58.79769802 -121.15539551 40.24981070
v 61.19944096 -121.18201733 33.03936769
v 65.99364996 -121.31515503 13.86266041
v 50.46578765 -120.09993553 70.43394613
v 31.33531451 -120.18224716 125.80348778
v 53.14572215 -120.39284706 61.84278059
v 60.46222687 -120.49452782 40.24981070
v 41.03964686 -120.29118061 97.31968689
v 29.53168988 -118.79997969 131.41587067
v 28.96139324 -118.79997969 133.06506801
v 28.90575349 -120.15077591 132.92443800
v 36.48190498 -120.50904751 109.82289720
v 63.59654188 -96.65961027 16.24057102
v 33.02302480 -96.58940792 97.83106613
v 63.59654188 -96.71771049 13.86266041
v 63.56872559 -96.72739506 13.86266041
v 61.69554949 -97.61339664 13.86266041
v 38.90219092 -96.58940792 104.12102508
v 28.93821001 -102.00224876 133.00114561
v 28.53482902 -104.40123796 134.26680851
v 49.20000315 -121.26916409 66.63695741
v 53.99885058 -121.29338264 52.22885656
v 56.40059352 -121.30305290 45.04398394
v 39.60231185 -121.20865345 95.42758512
v 44.40115929 -121.24254227 81.03226948
v 32.40172505 -121.30790234 114.62985921
v 34.79882956 -121.31758690 107.41941798
v 49.20000315 -121.32000446 64.23347640
v 63.59654188 -121.32000446 13.86266041
v 29.55023646 -120.62766552 129.02517486
v 27.60287941 -121.07066631 131.41587067
v 32.40172505 -121.13602638 117.02055502
v 34.79882956 -121.16749763 109.82289720
v 37.20057249 -121.18928432 102.62524116
v 29.17003870 -120.40979862 131.41587067
v 34.04770732 -120.47757626 117.02055502
v 28.53482902 -116.39858007 134.26680851
v 28.50237250 -118.79997969 134.26680851
v 27.70024717 -118.79997969 136.22283268
v 26.66629314 -120.30086517 137.87202644
v 27.03721762 -120.55745602 136.22283268
v 32.19771624 -96.58940792 100.22176194
v 60.93515396 -99.60326672 13.86266041
v 38.71672869 -96.58940792 104.56848192
v 28.87329876 -100.72166204 132.82216358
v 27.58896947 -102.00224876 136.22283268
v 27.72806704 -104.40123796 136.22283268
v 27.60287941 -121.28611565 129.02517486
v 30.00462055 -121.29821777 121.82751703
v 25.20113826 -121.31758690 133.81935168
v 49.20000315 -121.32000446 61.84278059
v 22.80403376 -121.31758690 138.62631011
v 61.66309834 -120.65913677 13.86266041
v 22.80403376 -121.31758690 136.22283268
v 21.21832788 -121.29338264 138.62631011
v 25.20113826 -121.21590614 136.22283268
v 27.72806704 -116.39858007 136.22283268
v 26.79611742 -118.79997969 138.08936406
v 26.05426669 -118.79997969 139.29110098
v 24.85339522 -118.79997969 140.87637949
v 24.56592858 -120.43883801 140.51841545
v 25.30314267 -120.70754528 138.65188050
v 31.09421253 -96.58940792 103.49458623
v 60.87951422 -101.97078466 13.86266041
v 21.21832788 -104.40123796 131.94003510
v 21.21832788 -102.00224876 132.11901712
v 38.10470223 -96.58940792 105.45061040
v 26.61529005 -100.60062647 137.79532242
v 26.76366091 -102.00224876 138.03822684
v 26.79611742 -104.40123796 138.08936406
v 22.98485935 -120.78985691 141.19599152
v 21.21832788 -121.15296364 141.08092833
v 61.64918661 -120.63493252 13.86266041
v 21.21832788 -120.96656799 136.15891027
v 21.21832788 -120.59619427 133.81935168
v 21.21832788 -120.37590981 132.87330080
v 21.39915347 -120.25002480 132.06787635
v 26.05890334 -116.39858007 139.29110098
v 24.85803187 -116.39858007 140.88916112
v 23.87044251 -118.79997969 142.07811642
v 22.30791986 -120.43883801 142.85797405
v 30.94120502 -96.58940792 105.00315356
v 21.44551992 -100.63935757 132.15736914
v 21.21832788 -100.52315712 133.30797243
v 21.21832788 -100.46263933 133.66593647
v 21.21832788 -100.21572590 135.34070420
v 21.21832788 -99.97122288 137.80810404
v 60.87951422 -116.39858007 13.86266041
v 21.21832788 -118.60874176 131.94003510
v 36.80646300 -96.58940792 106.63956571
v 21.21832788 -100.30529022 142.79405166
v 22.93385625 -100.29803038 141.14485074
v 24.46392417 -100.52073956 140.42892265
v 24.77457404 -102.00224876 140.81245709
v 25.97544372 -102.00224876 139.22717857
v 26.05890334 -104.40123796 139.29110098
v 21.21832788 -120.63493252 143.27986050
v 60.89806080 -118.79756212 13.86266041
v 21.21832788 -119.99584436 132.37470674
v 24.85803187 -104.40123796 140.88916112
v 23.87507915 -116.39858007 142.07811642
v 22.67884612 -116.39858007 143.20314932
v 22.66957283 -118.79997969 143.17758609
v 21.21832788 -118.89196873 144.41767502
v 31.20549202 -96.58940792 106.51172090
v 21.21832788 -99.96153831 140.21158504
v 21.21832788 -118.79997969 131.95281672
v 35.31812668 -96.58940792 107.07423735
v 21.21832788 -100.06805420 141.06814671
v 21.21832788 -100.39970398 143.19036770
v 22.21982539 -100.52073956 142.75569248
v 23.80089462 -102.00224876 142.01419401
v 23.87507915 -104.40123796 142.07811642
v 22.67884612 -104.40123796 143.20314932
v 21.21832788 -116.57529116 144.46881580
v 21.30178571 -118.79997969 144.37932301
v 21.21832788 -118.79997969 144.44324542
v 32.03543544 -96.58940792 106.89525533
v 34.79882956 -96.58940792 107.09980595
v 32.46199965 -96.58940792 106.99753153
v 21.21832788 -102.00224876 144.32818223
v 21.23687267 -102.00224876 144.31540061
v 22.60002494 -102.00224876 143.11366367
v 21.29714906 -104.40123796 144.39210463
v 21.30178571 -109.19678450 144.39210463
v 21.21832788 -104.40123796 144.45602704
f 1 2 9
f 1 9 3
f 1 3 4
f 1 4 5
f 1 5 6
f 1 6 7
f 1 7 10
f 1 10 2
f 2 8 9
f 2 10 8
f 3 9 21
f 3 21 20
f 3 20 37
f 3 37 66
f 3 66 92
f 3 92 116
f 3 116 136
f 3 136 161
f 3 161 151
f 3 151 127
f 3 127 106
f 3 106 80
f 3 80 79
f 3 79 78
f 3 78 54
f 3 54 26
f 3 26 14
f 3 14 11
f 3 11 4
f 4 11 5
f 5 12 13
f 5 13 6
f 5 11 14
f 5 14 12
f 6 15 7
f 6 13 16
f 6 16 15
f 7 15 17
f 7 17 22
f 7 22 10
f 8 10 18
f 8 18 19
f 8 19 20
f 8 20 21
f 8 21 9
f 10 22 23
f 10 23 18
f 12 24 25
f 12 25 16
f 12 16 13
f 12 14 26
f 12 26 24
f 15 27 17
f 15 16 27
f 16 28 53
f 16 53 52
f 16 52 51
f 16 51 50
f 16 50 49
f 16 49 48
f 16 48 47
f 16 47 46
f 16 46 77
f 16 77 105
f 16 105 126
f 16 126 145
f 16 145 168
f 16 168 181
f 16 181 183
f 16 183 182
f 16 182 171
f 16 171 153
f 16 153 130
f 16 130 107
f 16 107 81
f 16 81 55
f 16 55 29
f 16 29 30
f 16 30 31
f 16 31 32
f 16 32 33
f 16 33 27
f 16 25 24
f 16 24 28
f 17 27 32
f 17 32 40
f 17 40 22
f 18 34 19
f 18 23 35
f 18 35 34
f 19 36 66
f 19 66 37
f 19 37 20
f 19 34 36
f 22 38 39
f 22 39 23
f 22 40 41
f 22 41 42
f 22 42 43
f 22 43 38
f 23 39 44
f 23 44 35
f 24 26 45
f 24 45 46
f 24 46 47
f 24 47 48
f 24 48 49
f 24 49 50
f 24 50 51
f 24 51 52
f 24 52 53
f 24 53 28
f 26 54 45
f 27 33 32
f 29 55 56
f 29 56 30
f 30 56 73
f 30 73 57
f 30 57 31
f 31 41 40
f 31 40 32
f 31 57 58
f 31 58 42
f 31 42 41
f 34 35 59
f 34 59 86
f 34 86 60
f 34 60 61
f 34 61 62
f 34 62 36
f 35 44 63
f 35 63 64
f 35 64 65
f 35 65 59
f 36 62 66
f 38 43 67
f 38 67 68
f 38 68 39
f 39 69 70
f 39 70 44
f 39 68 71
f 39 71 69
f 42 58 72
f 42 72 73
f 42 73 74
f 42 74 43
f 43 74 67
f 44 70 75
f 44 75 63
f 45 54 76
f 45 76 46
f 46 76 78
f 46 78 79
f 46 79 80
f 46 80 77
f 54 78 76
f 55 81 82
f 55 82 56
f 56 82 83
f 56 83 100
f 56 100 73
f 57 73 72
f 57 72 58
f 59 84 85
f 59 85 86
f 59 65 87
f 59 87 88
f 59 88 84
f 60 86 112
f 60 112 89
f 60 89 90
f 60 90 61
f 61 91 114
f 61 114 92
f 61 92 62
f 61 90 91
f 62 92 66
f 63 75 93
f 63 93 94
f 63 94 95
f 63 95 64
f 64 95 96
f 64 96 65
f 65 96 97
f 65 97 87
f 67 74 68
f 68 74 98
f 68 98 71
f 69 71 98
f 69 98 99
f 69 99 70
f 70 99 75
f 73 100 101
f 73 101 74
f 74 101 102
f 74 102 103
f 74 103 104
f 74 104 98
f 75 99 93
f 77 80 106
f 77 106 105
f 81 107 108
f 81 108 82
f 82 108 109
f 82 109 110
f 82 110 83
f 83 110 120
f 83 120 100
f 84 88 111
f 84 111 112
f 84 112 85
f 85 112 86
f 87 97 111
f 87 111 88
f 89 112 113
f 89 113 90
f 90 113 91
f 91 113 115
f 91 115 117
f 91 117 114
f 92 114 117
f 92 117 118
f 92 118 116
f 93 99 98
f 93 98 104
f 93 104 94
f 94 104 119
f 94 119 111
f 94 111 95
f 95 111 96
f 96 111 97
f 100 120 102
f 100 102 101
f 102 120 121
f 102 121 103
f 103 121 122
f 103 122 123
f 103 123 124
f 103 124 125
f 103 125 104
f 104 125 119
f 105 106 126
f 106 127 128
f 106 128 129
f 106 129 126
f 107 130 131
f 107 131 108
f 108 131 109
f 109 131 132
f 109 132 110
f 110 132 133
f 110 133 121
f 110 121 120
f 111 119 113
f 111 113 112
f 113 119 115
f 115 134 135
f 115 135 118
f 115 118 117
f 115 119 134
f 116 118 137
f 116 137 138
f 116 138 139
f 116 139 140
f 116 140 136
f 118 135 160
f 118 160 167
f 118 167 180
f 118 180 178
f 118 178 189
f 118 189 184
f 118 184 173
f 118 173 154
f 118 154 172
f 118 172 169
f 118 169 150
f 118 150 149
f 118 149 148
f 118 148 147
f 118 147 129
f 118 129 128
f 118 128 152
f 118 152 170
f 118 170 162
f 118 162 139
f 118 139 138
f 118 138 137
f 119 125 134
f 121 133 159
f 121 159 141
f 121 141 122
f 122 141 142
f 122 142 123
f 123 142 143
f 123 143 124
f 124 143 144
f 124 144 134
f 124 134 125
f 126 129 146
f 126 146 147
f 126 147 148
f 126 148 149
f 126 149 150
f 126 150 145
f 127 151 152
f 127 152 128
f 129 147 146
f 130 153 154
f 130 154 155
f 130 155 156
f 130 156 131
f 131 156 157
f 131 157 158
f 131 158 132
f 132 158 159
f 132 159 133
f 134 144 160
f 134 160 135
f 136 140 161
f 139 162 140
f 140 162 161
f 141 159 163
f 141 163 142
f 142 163 176
f 142 176 164
f 142 164 143
f 143 164 165
f 143 165 166
f 143 166 144
f 144 166 167
f 144 167 160
f 145 150 169
f 145 169 168
f 151 161 152
f 152 161 170
f 153 171 169
f 153 169 172
f 153 172 154
f 154 173 174
f 154 174 155
f 155 174 156
f 156 174 175
f 156 175 157
f 157 175 163
f 157 163 158
f 158 163 159
f 161 162 170
f 163 175 176
f 164 176 177
f 164 177 165
f 165 177 178
f 165 178 179
f 165 179 166
f 166 179 167
f 167 179 180
f 168 169 181
f 169 171 182
f 169 182 183
f 169 183 181
f 173 184 174
f 174 184 185
f 174 185 186
f 174 186 175
f 175 186 177
f 175 177 176
f 177 186 185
f 177 185 187
f 177 187 188
f 177 188 178
f 178 188 187
f 178 187 189
f 178 180 179
f 184 189 185
f 185 189 187

