# https://github.com/mikedh/trimesh
v 7.31526835 24.11800951 29.24677481
v 7.31226820 24.11967131 29.24700048
v 7.31526835 24.11968091 29.24700048
v 7.31735008 24.11959446 29.24701552
v 7.31857462 24.11800951 29.24688011
v 7.30466726 24.11800951 29.24682496
v 7.31526835 24.12150280 29.24739166
v 7.30604051 24.11955604 29.24702555
v 7.30821845 24.12100650 29.24732144
v 7.31128857 24.12107374 29.24731141
v 7.31870583 24.12102892 29.24740168
v 7.32255441 24.12135871 29.24768253
v 7.31978168 24.11914619 29.24707570
v 7.31883703 24.11800951 29.24689016
v 7.30408997 24.11800951 29.24684000
v 7.30434363 24.12499928 29.24828934
v 7.30799103 24.12499928 29.24826927
v 7.31162969 24.12499928 29.24826426
v 7.31526835 24.12499928 29.24831442
v 7.30408997 24.11869793 29.24694531
v 7.30408997 24.12013558 29.24720109
v 7.30408997 24.12105453 29.24737660
v 7.30463227 24.12100650 29.24735154
v 7.31890700 24.12499928 29.24845985
v 7.32255441 24.12499928 29.24865544
v 7.32619306 24.12135871 29.24790820
v 7.32255441 24.11857946 29.24715093
v 7.32109370 24.11800951 29.24700048
v 7.30408997 24.11800951 29.25825919
v 7.30408997 24.12499928 29.24829938
v 7.30408997 24.12525223 29.24837460
v 7.30434363 24.12863986 29.24945283
v 7.31162969 24.12863986 29.24948292
v 7.30799103 24.12863986 29.24944780
v 7.31526835 24.12863986 29.24955814
v 7.31890700 24.12863986 29.24969354
v 7.32619306 24.12499928 29.24888111
v 7.32983172 24.12135871 29.24819405
v 7.32954307 24.11800951 29.24757220
v 7.32456616 24.11800951 29.24721111
v 7.32314044 24.11800951 29.24711081
v 7.30408997 24.13993299 29.26977868
v 7.39344697 24.11800951 29.28332924
v 7.39344697 24.14279550 29.29695505
v 7.30408997 24.12863986 29.24945784
v 7.30434363 24.13100927 29.25039564
v 7.30799103 24.13103489 29.25039564
v 7.30408997 24.13100607 29.25039564
v 7.31162969 24.13101247 29.25042573
v 7.31526835 24.13095484 29.25046084
v 7.31890700 24.13081395 29.25051601
v 7.32160975 24.13062504 29.25059625
v 7.32271185 24.12896005 29.25004460
v 7.32619306 24.12832607 29.25006968
v 7.32983172 24.12499928 29.24920207
v 7.33347912 24.12135871 29.24857520
v 7.33318173 24.11800951 29.24788814
v 7.30408997 24.14320214 29.27142862
v 7.39344697 24.11800951 29.26632834
v 7.39344697 24.14337504 29.29724089
v 7.31162969 24.13283436 29.25127327
v 7.31526835 24.13277352 29.25128330
v 7.30408997 24.13282475 29.25134348
v 7.30434363 24.13282796 29.25133847
v 7.30799103 24.13285677 29.25130838
v 7.31890700 24.13263264 29.25136856
v 7.32271185 24.13201787 29.25135351
v 7.32403261 24.13038810 29.25069654
v 7.32619306 24.13014796 29.25079684
v 7.32983172 24.12786180 29.25024519
v 7.33347912 24.12731427 29.25047087
v 7.33347912 24.12499928 29.24964339
v 7.33711778 24.12135871 29.24906666
v 7.33711778 24.11800951 29.24837961
v 7.33682039 24.11800951 29.24833948
v 7.33347912 24.11800951 29.24792324
v 7.30408997 24.14684272 29.27200535
v 7.39344697 24.14489596 29.29798814
v 7.39344697 24.11946318 29.26679976
v 7.39223992 24.11800951 29.26566636
v 7.39014944 24.11990184 29.26510970
v 7.31162969 24.13592100 29.25297837
v 7.31526835 24.13592100 29.25304357
v 7.30408997 24.13592100 29.25305361
v 7.30434363 24.13592100 29.25304858
v 7.30799103 24.13592100 29.25300345
v 7.32255441 24.13563603 29.25332442
v 7.32619306 24.13540870 29.25348991
v 7.31866209 24.13621238 29.25340465
v 7.32619306 24.13228363 29.25179483
v 7.32983172 24.13228363 29.25218601
v 7.32983172 24.12968368 29.25098741
v 7.33347912 24.12913615 29.25121811
v 7.33570080 24.12695565 29.25061630
v 7.33813240 24.12649458 29.25078180
v 7.33699532 24.12516898 29.25017498
v 7.34075643 24.12407393 29.25037559
v 7.34322302 24.12348478 29.25056616
v 7.34075643 24.12135871 29.24960829
v 7.34046779 24.11800951 29.24886106
v 7.30408997 24.14950671 29.27047075
v 7.39344697 24.14542106 29.29800819
v 7.39344697 24.14763359 29.29773739
v 7.39344697 24.12111537 29.26734640
v 7.39066550 24.11800951 29.26483388
v 7.38291586 24.11997229 29.26145375
v 7.38425412 24.12125625 29.26254702
v 7.38811144 24.12121143 29.26449787
v 7.38933599 24.12232889 29.26554099
v 7.39151393 24.12121143 29.26631832
v 7.31162969 24.13792219 29.25419703
v 7.30434363 24.13792219 29.25419703
v 7.30799103 24.13793500 29.25418699
v 7.31526835 24.13783895 29.25424718
v 7.31728885 24.13776530 29.25429732
v 7.30408997 24.13605548 29.25312883
v 7.32255441 24.13745792 29.25449793
v 7.32619306 24.13723058 29.25464337
v 7.32983172 24.13693601 29.25482391
v 7.32983172 24.13511732 29.25368550
v 7.33347912 24.13473950 29.25393123
v 7.33347912 24.13228363 29.25266243
v 7.33699532 24.12835809 29.25138862
v 7.34075643 24.12863986 29.25211078
v 7.34075643 24.12589262 29.25098741
v 7.34442133 24.12481678 29.25123315
v 7.34565462 24.12282519 29.25076174
v 7.34075643 24.11800951 29.24890619
v 7.34442133 24.12150920 29.25023015
v 7.34740398 24.12039814 29.25046084
v 7.30408997 24.14970203 29.27035541
v 7.39344697 24.14968281 29.29596708
v 7.38594225 24.14887273 29.29458294
v 7.39344697 24.12401950 29.26849483
v 7.38777032 24.11800951 29.26336448
v 7.38084288 24.12125625 29.26090712
v 7.38208492 24.12240253 29.26185496
v 7.38498885 24.11800951 29.26198033
v 7.38340568 24.11800951 29.26121804
v 7.38080789 24.11800951 29.26004453
v 7.37530617 24.11945998 29.25796832
v 7.38691314 24.12397787 29.26489405
v 7.39179383 24.12497047 29.26796826
v 7.31162969 24.13974408 29.25540564
v 7.30799103 24.13975689 29.25538057
v 7.30434363 24.13974088 29.25538057
v 7.30408997 24.13791899 29.25420204
v 7.30408997 24.13804386 29.25428228
v 7.30408997 24.13973768 29.25538057
v 7.31526835 24.13966084 29.25549592
v 7.31866209 24.13921256 29.25540063
v 7.32255441 24.13956158 29.25592219
v 7.32619306 24.13956158 29.25622310
v 7.32998041 24.13988817 29.25683995
v 7.33347912 24.13928301 29.25686501
v 7.33347912 24.13655818 29.25504457
v 7.33620811 24.13438729 29.25414687
v 7.33730146 24.13258461 29.25340967
v 7.34075643 24.13181935 29.25361027
v 7.34439509 24.13116296 29.25395631
v 7.34439509 24.12863986 29.25276775
v 7.34804249 24.12499928 29.25198039
v 7.35167240 24.12499928 29.25271760
v 7.35167240 24.12135871 29.25155913
v 7.34838362 24.12150920 29.25093225
v 7.34981808 24.11949840 29.25067649
v 7.34410644 24.11800951 29.24944279
v 7.30408997 24.15051530 29.26728621
v 7.39172386 24.15048329 29.29253681
v 7.39344697 24.15051530 29.29253681
v 7.39344697 24.12507933 29.26893114
v 7.37965332 24.12393625 29.26128324
v 7.37716048 24.12135871 29.25932739
v 7.38084288 24.12508894 29.26233138
v 7.38459524 24.12511455 29.26419696
v 7.38051050 24.11800951 29.25991414
v 7.37453645 24.12135871 29.25825919
v 7.37713425 24.11800951 29.25843973
v 7.37564730 24.11800951 29.25782288
v 7.37386296 24.11800951 29.25712579
v 7.37386296 24.11803513 29.25713081
v 7.37356556 24.11800951 29.25701546
v 7.36988317 24.11800951 29.25567144
v 7.36988317 24.12135871 29.25652400
v 7.37271712 24.12135871 29.25755709
v 7.38590726 24.12640492 29.26542063
v 7.38811144 24.12511455 29.26602745
v 7.39304462 24.12616478 29.26915681
v 7.31162969 24.14232803 29.25722610
v 7.30799103 24.14238566 29.25720102
v 7.30408997 24.13992339 29.25550594
v 7.30408997 24.14239206 29.25720102
v 7.30434363 24.14239206 29.25720102
v 7.31526835 24.14219674 29.25731636
v 7.31890700 24.14206227 29.25743172
v 7.32255441 24.14191177 29.25755709
v 7.32619306 24.14171005 29.25770754
v 7.32886957 24.14152434 29.25784295
v 7.33130117 24.14131942 29.25799841
v 7.33347912 24.14110170 29.25815387
v 7.33711778 24.13885395 29.25716090
v 7.33730146 24.13572888 29.25516493
v 7.33863097 24.13399986 29.25436753
v 7.34075643 24.13364124 29.25455811
v 7.34439509 24.13298165 29.25490415
v 7.34806873 24.13205950 29.25512481
v 7.34929328 24.13024081 29.25441268
v 7.34806873 24.12887360 29.25357015
v 7.35167240 24.12788741 29.25384597
v 7.35439265 24.12725023 29.25412682
v 7.35682425 24.12663866 29.25437756
v 7.35549474 24.12525544 29.25360526
v 7.35531106 24.12135871 29.25232643
v 7.34838362 24.11805754 29.25019505
v 7.34783257 24.11800951 29.25008973
v 7.34440384 24.11800951 29.24949295
v 7.35531106 24.11800951 29.25159424
v 7.35502241 24.11800951 29.25152904
v 7.35239838 24.11800951 29.25093727
v 7.35192606 24.11805754 29.25084198
v 7.35047409 24.11800951 29.25056114
v 7.30408997 24.15057294 29.26705552
v 7.30434363 24.15057934 29.26705552
v 7.39344697 24.14976606 29.28891096
v 7.39172386 24.15018551 29.28889591
v 7.38808520 24.15056013 29.28889591
v 7.38079914 24.15072023 29.28525502
v 7.39344697 24.12594705 29.26930225
v 7.37726545 24.12508894 29.26071153
v 7.37855122 24.12636330 29.26178976
v 7.37188619 24.12336311 29.25788306
v 7.38347565 24.12769530 29.26479877
v 7.36664687 24.11800951 29.25458318
v 7.36455639 24.11969052 29.25426724
v 7.36595587 24.12108655 29.25511979
v 7.36623577 24.12499928 29.25651898
v 7.38459524 24.12880315 29.26593718
v 7.39062176 24.12754480 29.26849483
v 7.39179383 24.12871030 29.26978870
v 7.39344697 24.12860784 29.27069643
v 7.31162969 24.14414990 29.25867543
v 7.30799103 24.14420755 29.25862027
v 7.30408997 24.14251694 29.25729631
v 7.30434363 24.14421395 29.25861526
v 7.31526835 24.14401863 29.25877573
v 7.31890700 24.14388095 29.25888607
v 7.32255441 24.14373046 29.25901646
v 7.32619306 24.14353194 29.25915687
v 7.32998041 24.14292357 29.25910171
v 7.33554336 24.14507526 29.26154903
v 7.33689911 24.14343589 29.26051594
v 7.33711778 24.14067584 29.25845980
v 7.34075643 24.13836726 29.25750694
v 7.34346793 24.13799905 29.25776772
v 7.34075643 24.13592100 29.25593222
v 7.34804249 24.13549515 29.25707565
v 7.35167240 24.13490920 29.25744676
v 7.35167240 24.13228363 29.25596232
v 7.35167240 24.12970929 29.25464838
v 7.35549474 24.12853420 29.25494426
v 7.35895846 24.12863986 29.25586703
v 7.35895846 24.12586060 29.25464838
v 7.35895846 24.12404192 29.25401148
v 7.36091774 24.12329587 29.25427226
v 7.35895846 24.12135871 29.25322411
v 7.35866107 24.11800951 29.25243676
v 7.35196104 24.11800951 29.25084198
v 7.35188232 24.11800951 29.25082694
v 7.30408997 24.14953553 29.26399637
v 7.31162969 24.15048649 29.26705552
v 7.31162969 24.14949390 29.26401642
v 7.30799103 24.14952271 29.26397630
v 7.30434363 24.14953873 29.26399637
v 7.39344697 24.14883431 29.28684477
v 7.39172386 24.14914488 29.28636835
v 7.38801522 24.14952271 29.28513966
v 7.38444655 24.15033920 29.28525502
v 7.37716048 24.15040324 29.28161412
v 7.37352183 24.15054413 29.28161412
v 7.34075643 24.15029437 29.27069643
v 7.31526835 24.15043526 29.26705552
v 7.37326817 24.12474633 29.25895628
v 7.37611962 24.12753200 29.26125315
v 7.37726545 24.12870390 29.26235645
v 7.38094784 24.12880315 29.26412675
v 7.36956829 24.12474633 29.25758217
v 7.37057417 24.12579016 29.25835448
v 7.38225985 24.13012234 29.26541060
v 7.36509869 24.11800951 29.25411177
v 7.36231722 24.12108655 29.25404658
v 7.36334059 24.12211756 29.25461829
v 7.35895846 24.11800951 29.25251198
v 7.36231722 24.12470471 29.25517997
v 7.36623577 24.12756081 29.25758718
v 7.36815131 24.12688841 29.25791817
v 7.38816393 24.12871030 29.26778772
v 7.38942346 24.12997185 29.26915180
v 7.39344697 24.13111493 29.27215580
v 7.31162969 24.14627278 29.26049589
v 7.31526835 24.14617352 29.26059619
v 7.30799103 24.14631441 29.26044072
v 7.30408997 24.14421395 29.25861526
v 7.31890700 24.14603584 29.26070651
v 7.32255441 24.14586933 29.26083691
v 7.32619306 24.14569643 29.26097733
v 7.32983172 24.14548190 29.26117291
v 7.33347912 24.14522575 29.26140862
v 7.33843854 24.14860057 29.26531030
v 7.34075643 24.14653854 29.26386096
v 7.33797496 24.14480630 29.26177472
v 7.34075643 24.14265141 29.26063129
v 7.34439509 24.14218394 29.26098736
v 7.34075643 24.14018915 29.25881084
v 7.34457003 24.13622198 29.25686000
v 7.34457003 24.13935025 29.25896630
v 7.34804249 24.13956158 29.25983391
v 7.34804249 24.13731383 29.25823411
v 7.35167240 24.13673108 29.25862529
v 7.35427894 24.13442891 29.25774766
v 7.35542477 24.13253018 29.25696532
v 7.35895846 24.13154079 29.25734645
v 7.36152126 24.13087799 29.25771756
v 7.36267584 24.12882877 29.25704054
v 7.30408997 24.14811708 29.26217591
v 7.31526835 24.14945868 29.26409667
v 7.31162969 24.14809467 29.26219598
v 7.30799103 24.14813308 29.26215586
v 7.30434363 24.14812028 29.26217591
v 7.39344697 24.14713729 29.28502432
v 7.39172386 24.14764959 29.28454789
v 7.38917855 24.14831560 29.28385080
v 7.38675569 24.14886953 29.28316375
v 7.38444655 24.14925696 29.28254189
v 7.38082538 24.14962197 29.28142856
v 7.37716048 24.14926016 29.27891603
v 7.37344311 24.14949070 29.27781273
v 7.36623577 24.14942026 29.27485387
v 7.36988317 24.15002861 29.27797321
v 7.34075643 24.14954833 29.26740658
v 7.33717900 24.14948750 29.26673957
v 7.37348684 24.12870390 29.26077672
v 7.37468515 24.12995904 29.26184492
v 7.37982825 24.13109252 29.26483889
v 7.38094784 24.13229644 29.26615282
v 7.38435033 24.13229003 29.26786796
v 7.38700060 24.13108292 29.26847478
v 7.36394412 24.13016717 29.25810874
v 7.36623577 24.12938270 29.25848988
v 7.36956829 24.12831967 29.25913682
v 7.39344697 24.13173610 29.27256201
v 7.31526835 24.14799541 29.26227621
v 7.30408997 24.14629839 29.26043570
v 7.31890700 24.14785772 29.26243168
v 7.33600694 24.14873825 29.26514982
v 7.34439509 24.14927617 29.26790807
v 7.34075643 24.14836042 29.26558612
v 7.34075643 24.14447010 29.26204051
v 7.34439509 24.14610628 29.26424712
v 7.34439509 24.14400583 29.26242666
v 7.34804249 24.14166523 29.26137352
v 7.34987057 24.14138667 29.26158915
v 7.35131378 24.13967684 29.26067643
v 7.35531106 24.13861381 29.26091213
v 7.35542477 24.13575450 29.25893120
v 7.35671054 24.13391020 29.25806361
v 7.35895846 24.13335947 29.25838958
v 7.36267584 24.13216836 29.25884595
v 7.31890700 24.14934021 29.26425213
v 7.39344697 24.14571245 29.28349976
v 7.39172386 24.14582771 29.28262213
v 7.38803272 24.14683952 29.28163918
v 7.38444655 24.14781610 29.28072144
v 7.38204993 24.14840205 29.28008955
v 7.37962708 24.14890154 29.27949777
v 7.37217483 24.14881510 29.27595718
v 7.36988317 24.14909045 29.27552588
v 7.36362049 24.14857495 29.27263223
v 7.32983172 24.14900080 29.26485894
v 7.37702054 24.13229644 29.26431733
v 7.37225355 24.13082036 29.26138354
v 7.37348684 24.13213314 29.26268744
v 7.37814013 24.13351957 29.26561622
v 7.38307330 24.13444172 29.26863525
v 7.38550491 24.13350996 29.26927717
v 7.38816393 24.13229003 29.26993414
v 7.39255480 24.13326661 29.27306351
v 7.36647194 24.13257180 29.26036048
v 7.36988317 24.13155039 29.26095225
v 7.39344697 24.13301687 29.27340955
v 7.34439509 24.14792817 29.26608763
v 7.34804249 24.14562279 29.26468844
v 7.34804249 24.14348712 29.26286798
v 7.35057031 24.14524816 29.26502445
v 7.35143624 24.14312210 29.26347481
v 7.35229342 24.14096721 29.26192517
v 7.35811003 24.13810470 29.26130331
v 7.36054162 24.13764043 29.26166439
v 7.35917713 24.13622518 29.26031033
v 7.36259712 24.13533505 29.26077672
v 7.36541358 24.13463063 29.26124813
v 7.39344697 24.14535063 29.28311861
v 7.38930100 24.14465902 29.28011964
v 7.38687815 24.14536663 29.27947270
v 7.37959209 24.14533462 29.27584685
v 7.37716048 24.14775846 29.27709559
v 7.37459768 24.14835722 29.27649378
v 7.38444655 24.14599421 29.27886588
v 7.36988317 24.14752472 29.27370544
v 7.36623577 24.14822274 29.27303342
v 7.37571727 24.13434246 29.26506456
v 7.36988317 24.13336908 29.26204553
v 7.37352183 24.13497644 29.26459315
v 7.37890109 24.13769166 29.26891107
v 7.38079914 24.13522939 29.26807358
v 7.38369433 24.13849213 29.27193011
v 7.38460399 24.13603947 29.27060615
v 7.38079914 24.13705128 29.26937246
v 7.39323705 24.13749954 29.27633330
v 7.39344697 24.13540870 29.27502439
v 7.36784518 24.13397744 29.26166940
v 7.35895846 24.14575086 29.26811369
v 7.36175743 24.14536023 29.26853495
v 7.35300191 24.14485753 29.26538051
v 7.35531106 24.14262260 29.26418694
v 7.36128510 24.14158838 29.26506456
v 7.35531106 24.14043570 29.26236649
v 7.35917713 24.13941749 29.26268243
v 7.36253589 24.13975369 29.26400138
v 7.36623577 24.13871948 29.26446277
v 7.36259712 24.13715374 29.26200039
v 7.36647194 24.13587617 29.26248183
v 7.39344697 24.14336224 29.28136336
v 7.39172386 24.14386814 29.28080167
v 7.39172386 24.14204946 29.27921693
v 7.38903860 24.14080071 29.27662919
v 7.38661574 24.14159798 29.27596219
v 7.38444655 24.14221596 29.27539047
v 7.38184001 24.14091918 29.27289802
v 7.37941715 24.14161720 29.27231126
v 7.38071167 24.14316052 29.27437243
v 7.38201494 24.14470384 29.27645366
v 7.37716048 24.14401223 29.27345970
v 7.37716048 24.14593658 29.27528014
v 7.37453645 24.14465260 29.27286291
v 7.37335565 24.14678508 29.27441255
v 7.36988317 24.14570283 29.27186493
v 7.36623577 24.14640405 29.27115279
v 7.37647824 24.13838968 29.26836445
v 7.37352183 24.13679512 29.26592213
v 7.36992691 24.13611311 29.26397129
v 7.36875484 24.13811431 29.26494922
v 7.37117770 24.13745792 29.26545072
v 7.37747537 24.13958719 29.26977868
v 7.38792776 24.13957758 29.27506451
v 7.39080545 24.13837366 29.27566630
v 7.38612592 24.13763722 29.27259210
v 7.39190754 24.13957758 29.27725606
v 7.39344697 24.14147631 29.27971342
v 7.39344697 24.13950394 29.27809859
v 7.39344697 24.13738427 29.27637342
v 7.39344697 24.13715053 29.27621294
v 7.36418028 24.14493438 29.26896123
v 7.36273706 24.14325977 29.26700036
v 7.35895846 24.14381050 29.26629324
v 7.36371670 24.14109848 29.26546577
v 7.36623577 24.14053815 29.26590709
v 7.37426531 24.14081672 29.26933736
v 7.37716048 24.14219034 29.27179973
v 7.37318945 24.14305166 29.27083685
v 7.37211360 24.14521615 29.27233634
v 7.36988317 24.14372726 29.27004447
v 7.36623577 24.14451813 29.26933234
v 7.37324193 24.13958719 29.26793817
v 7.37184245 24.14145070 29.26881580
v 7.36623577 24.14269624 29.26772753
v 7.36988317 24.14190537 29.26841961
f 1 2 3
f 1 3 4
f 1 4 5
f 1 5 14
f 1 14 28
f 1 28 41
f 1 41 40
f 1 40 39
f 1 39 57
f 1 57 76
f 1 76 75
f 1 75 74
f 1 74 100
f 1 100 128
f 1 128 167
f 1 167 216
f 1 216 215
f 1 215 221
f 1 221 268
f 1 268 267
f 1 267 219
f 1 219 218
f 1 218 217
f 1 217 266
f 1 266 292
f 1 292 289
f 1 289 233
f 1 233 183
f 1 183 182
f 1 182 180
f 1 180 179
f 1 179 178
f 1 178 176
f 1 176 140
f 1 140 139
f 1 139 138
f 1 138 135
f 1 135 105
f 1 105 80
f 1 80 59
f 1 59 43
f 1 43 29
f 1 29 15
f 1 15 6
f 1 6 2
f 2 7 3
f 2 6 8
f 2 8 9
f 2 9 10
f 2 10 7
f 3 7 4
f 4 7 11
f 4 11 12
f 4 12 13
f 4 13 14
f 4 14 5
f 6 15 8
f 7 10 16
f 7 16 17
f 7 17 18
f 7 18 19
f 7 19 11
f 8 15 20
f 8 20 21
f 8 21 22
f 8 22 23
f 8 23 9
f 9 23 10
f 10 23 16
f 11 19 24
f 11 24 12
f 12 24 25
f 12 25 37
f 12 37 26
f 12 26 13
f 13 26 27
f 13 27 28
f 13 28 14
f 15 29 42
f 15 42 58
f 15 58 77
f 15 77 101
f 15 101 131
f 15 131 168
f 15 168 222
f 15 222 269
f 15 269 324
f 15 324 352
f 15 352 302
f 15 302 243
f 15 243 192
f 15 192 191
f 15 191 149
f 15 149 148
f 15 148 147
f 15 147 116
f 15 116 84
f 15 84 63
f 15 63 48
f 15 48 45
f 15 45 31
f 15 31 30
f 15 30 22
f 15 22 21
f 15 21 20
f 16 22 30
f 16 30 31
f 16 31 32
f 16 32 17
f 16 23 22
f 17 32 18
f 18 33 19
f 18 32 34
f 18 34 33
f 19 35 36
f 19 36 24
f 19 33 35
f 24 36 25
f 25 36 37
f 26 37 38
f 26 38 39
f 26 39 27
f 27 40 41
f 27 41 28
f 27 39 40
f 29 43 44
f 29 44 42
f 31 45 32
f 32 46 47
f 32 47 34
f 32 45 48
f 32 48 46
f 33 49 50
f 33 50 35
f 33 34 47
f 33 47 49
f 35 50 51
f 35 51 36
f 36 51 52
f 36 52 53
f 36 53 37
f 37 53 54
f 37 54 55
f 37 55 38
f 38 55 56
f 38 56 57
f 38 57 39
f 42 44 58
f 43 59 79
f 43 79 104
f 43 104 134
f 43 134 171
f 43 171 228
f 43 228 240
f 43 240 298
f 43 298 350
f 43 350 389
f 43 389 419
f 43 419 461
f 43 461 460
f 43 460 459
f 43 459 458
f 43 458 432
f 43 432 401
f 43 401 369
f 43 369 329
f 43 329 274
f 43 274 224
f 43 224 170
f 43 170 132
f 43 132 103
f 43 103 102
f 43 102 78
f 43 78 60
f 43 60 44
f 44 60 58
f 46 48 61
f 46 61 47
f 47 61 62
f 47 62 49
f 48 63 64
f 48 64 65
f 48 65 61
f 49 62 50
f 50 62 51
f 51 66 52
f 51 62 66
f 52 66 67
f 52 67 68
f 52 68 54
f 52 54 53
f 54 69 70
f 54 70 55
f 54 68 69
f 55 70 71
f 55 71 72
f 55 72 56
f 56 72 73
f 56 73 74
f 56 74 75
f 56 75 76
f 56 76 57
f 58 60 78
f 58 78 77
f 59 80 81
f 59 81 79
f 61 82 62
f 61 65 82
f 62 82 83
f 62 83 66
f 63 84 64
f 64 84 85
f 64 85 65
f 65 85 86
f 65 86 82
f 66 87 88
f 66 88 67
f 66 83 89
f 66 89 87
f 67 88 90
f 67 90 68
f 68 90 69
f 69 90 91
f 69 91 92
f 69 92 70
f 70 92 71
f 71 93 94
f 71 94 72
f 71 92 93
f 72 94 95
f 72 95 96
f 72 96 73
f 73 96 97
f 73 97 98
f 73 98 99
f 73 99 100
f 73 100 74
f 77 78 102
f 77 102 103
f 77 103 101
f 79 81 104
f 80 105 81
f 81 105 106
f 81 106 107
f 81 107 108
f 81 108 109
f 81 109 110
f 81 110 104
f 82 111 83
f 82 86 112
f 82 112 113
f 82 113 111
f 83 114 115
f 83 115 89
f 83 111 114
f 84 116 85
f 85 116 86
f 86 116 112
f 87 89 115
f 87 115 117
f 87 117 118
f 87 118 88
f 88 118 119
f 88 119 120
f 88 120 90
f 90 120 91
f 91 120 121
f 91 121 122
f 91 122 92
f 92 122 93
f 93 122 123
f 93 123 94
f 94 123 95
f 95 124 125
f 95 125 97
f 95 97 96
f 95 123 124
f 97 125 98
f 98 126 127
f 98 127 99
f 98 125 126
f 99 128 100
f 99 127 129
f 99 129 130
f 99 130 128
f 101 103 131
f 103 132 133
f 103 133 131
f 104 110 109
f 104 109 134
f 105 135 106
f 106 136 137
f 106 137 107
f 106 135 138
f 106 138 139
f 106 139 140
f 106 140 141
f 106 141 136
f 107 137 108
f 108 137 142
f 108 142 109
f 109 143 134
f 109 142 143
f 111 144 114
f 111 113 145
f 111 145 144
f 112 146 113
f 112 116 147
f 112 147 148
f 112 148 149
f 112 149 146
f 113 146 145
f 114 144 150
f 114 150 115
f 115 151 152
f 115 152 117
f 115 150 151
f 117 152 118
f 118 153 154
f 118 154 119
f 118 152 153
f 119 154 155
f 119 155 156
f 119 156 120
f 120 156 121
f 121 156 157
f 121 157 122
f 122 157 158
f 122 158 124
f 122 124 123
f 124 159 160
f 124 160 161
f 124 161 125
f 124 158 159
f 125 161 126
f 126 162 127
f 126 161 162
f 127 162 163
f 127 163 164
f 127 164 165
f 127 165 166
f 127 166 130
f 127 130 129
f 128 130 167
f 130 166 167
f 131 133 132
f 131 132 169
f 131 169 168
f 132 170 169
f 134 143 171
f 136 172 137
f 136 141 173
f 136 173 172
f 137 172 174
f 137 174 175
f 137 175 142
f 140 176 141
f 141 177 173
f 141 176 178
f 141 178 179
f 141 179 180
f 141 180 181
f 141 181 182
f 141 182 183
f 141 183 184
f 141 184 185
f 141 185 177
f 142 175 186
f 142 186 187
f 142 187 143
f 143 187 188
f 143 188 171
f 144 189 150
f 144 145 190
f 144 190 189
f 145 146 191
f 145 191 192
f 145 192 193
f 145 193 190
f 146 149 191
f 150 194 195
f 150 195 196
f 150 196 151
f 150 189 194
f 151 196 152
f 152 196 197
f 152 197 153
f 153 197 198
f 153 198 154
f 154 199 155
f 154 198 199
f 155 200 201
f 155 201 156
f 155 199 200
f 156 201 202
f 156 202 157
f 157 202 203
f 157 203 159
f 157 159 158
f 159 203 204
f 159 204 160
f 160 204 205
f 160 205 206
f 160 206 207
f 160 207 161
f 161 207 208
f 161 208 209
f 161 209 162
f 162 209 210
f 162 210 211
f 162 211 163
f 163 211 212
f 163 212 213
f 163 213 164
f 164 166 165
f 164 213 166
f 166 214 215
f 166 215 216
f 166 216 167
f 166 213 217
f 166 217 218
f 166 218 219
f 166 219 220
f 166 220 221
f 166 221 214
f 168 169 222
f 169 170 223
f 169 223 222
f 170 224 225
f 170 225 226
f 170 226 227
f 170 227 223
f 171 188 228
f 172 229 230
f 172 230 174
f 172 173 229
f 173 177 231
f 173 231 229
f 174 230 232
f 174 232 186
f 174 186 175
f 177 185 231
f 180 182 181
f 183 233 234
f 183 234 184
f 184 231 185
f 184 234 235
f 184 235 236
f 184 236 231
f 186 232 237
f 186 237 238
f 186 238 188
f 186 188 187
f 188 238 239
f 188 239 240
f 188 240 228
f 189 241 194
f 189 190 242
f 189 242 241
f 190 193 243
f 190 243 244
f 190 244 242
f 192 243 193
f 194 241 245
f 194 245 246
f 194 246 195
f 195 246 196
f 196 246 247
f 196 247 248
f 196 248 197
f 197 248 198
f 198 248 249
f 198 249 199
f 199 249 250
f 199 250 200
f 200 250 251
f 200 251 252
f 200 252 201
f 201 252 253
f 201 253 202
f 202 253 254
f 202 254 255
f 202 255 203
f 203 255 204
f 204 255 256
f 204 256 257
f 204 257 205
f 205 257 258
f 205 258 206
f 206 258 207
f 207 258 259
f 207 259 209
f 207 209 208
f 209 259 210
f 210 260 211
f 210 259 260
f 211 260 261
f 211 261 262
f 211 262 263
f 211 263 212
f 212 263 213
f 213 263 264
f 213 264 265
f 213 265 217
f 214 221 215
f 217 265 234
f 217 234 266
f 219 267 220
f 220 267 268
f 220 268 221
f 222 223 269
f 223 270 271
f 223 271 272
f 223 272 273
f 223 273 269
f 223 227 270
f 224 274 275
f 224 275 225
f 225 275 276
f 225 276 277
f 225 277 227
f 225 227 226
f 227 277 278
f 227 278 279
f 227 279 280
f 227 280 281
f 227 281 270
f 229 231 282
f 229 282 283
f 229 283 230
f 230 283 284
f 230 284 285
f 230 285 232
f 231 236 286
f 231 286 287
f 231 287 282
f 232 285 288
f 232 288 237
f 233 289 234
f 234 290 264
f 234 264 291
f 234 291 235
f 234 289 292
f 234 292 266
f 234 265 290
f 235 291 236
f 236 291 293
f 236 293 294
f 236 294 295
f 236 295 286
f 237 288 296
f 237 296 238
f 238 296 297
f 238 297 239
f 239 297 298
f 239 298 240
f 241 299 300
f 241 300 245
f 241 242 299
f 242 244 301
f 242 301 299
f 243 302 244
f 244 302 301
f 245 300 303
f 245 303 246
f 246 303 247
f 247 303 304
f 247 304 305
f 247 305 248
f 248 305 306
f 248 306 249
f 249 306 307
f 249 307 250
f 250 307 308
f 250 308 309
f 250 309 310
f 250 310 251
f 251 310 311
f 251 311 252
f 252 311 312
f 252 312 313
f 252 313 253
f 253 313 254
f 254 256 314
f 254 314 255
f 254 313 315
f 254 315 316
f 254 316 317
f 254 317 256
f 255 314 256
f 256 317 257
f 257 317 318
f 257 318 319
f 257 319 258
f 258 319 320
f 258 320 259
f 259 320 260
f 260 320 321
f 260 321 261
f 261 321 322
f 261 322 323
f 261 323 262
f 262 323 293
f 262 293 264
f 262 264 263
f 264 293 291
f 264 290 265
f 269 273 328
f 269 328 324
f 270 281 271
f 271 281 325
f 271 325 326
f 271 326 327
f 271 327 272
f 272 327 273
f 273 327 328
f 274 329 330
f 274 330 331
f 274 331 332
f 274 332 275
f 275 332 333
f 275 333 276
f 276 333 334
f 276 334 277
f 277 334 278
f 278 334 335
f 278 335 336
f 278 336 337
f 278 337 338
f 278 338 339
f 278 339 280
f 278 280 279
f 280 339 281
f 281 339 340
f 281 340 325
f 282 287 283
f 283 287 295
f 283 295 341
f 283 341 342
f 283 342 284
f 284 288 285
f 284 342 288
f 286 295 287
f 288 342 343
f 288 343 344
f 288 344 345
f 288 345 346
f 288 346 297
f 288 297 296
f 293 323 294
f 294 323 347
f 294 347 348
f 294 348 295
f 295 348 349
f 295 349 341
f 297 346 298
f 298 346 350
f 299 326 351
f 299 351 300
f 299 301 326
f 300 351 303
f 301 302 352
f 301 352 327
f 301 327 326
f 303 353 304
f 303 351 353
f 304 353 305
f 305 354 306
f 305 353 354
f 306 354 308
f 306 308 307
f 308 354 339
f 308 339 355
f 308 355 356
f 308 356 309
f 309 357 310
f 309 356 358
f 309 358 357
f 310 357 311
f 311 357 312
f 312 315 313
f 312 357 359
f 312 359 360
f 312 360 316
f 312 316 315
f 316 360 361
f 316 361 362
f 316 362 318
f 316 318 317
f 318 362 363
f 318 363 364
f 318 364 319
f 319 364 365
f 319 365 320
f 320 365 321
f 321 366 322
f 321 365 366
f 322 367 347
f 322 347 323
f 322 366 367
f 324 328 352
f 325 351 326
f 325 340 368
f 325 368 351
f 327 352 328
f 329 369 330
f 330 370 371
f 330 371 331
f 330 369 370
f 331 371 372
f 331 372 332
f 332 372 373
f 332 373 374
f 332 374 333
f 333 374 335
f 333 335 334
f 335 374 375
f 335 375 376
f 335 376 336
f 336 376 337
f 337 376 377
f 337 377 355
f 337 355 339
f 337 339 338
f 339 354 340
f 340 354 378
f 340 378 368
f 341 349 342
f 342 379 343
f 342 349 380
f 342 380 381
f 342 381 379
f 343 382 344
f 343 379 382
f 344 382 383
f 344 383 345
f 345 383 384
f 345 384 346
f 346 384 385
f 346 385 386
f 346 386 350
f 347 367 387
f 347 387 388
f 347 388 380
f 347 380 348
f 348 380 349
f 350 386 389
f 351 368 353
f 353 368 378
f 353 378 354
f 355 377 356
f 356 377 390
f 356 390 391
f 356 391 358
f 357 358 359
f 358 391 359
f 359 391 392
f 359 392 360
f 360 392 361
f 361 392 393
f 361 393 394
f 361 394 395
f 361 395 363
f 361 363 362
f 363 396 364
f 363 395 396
f 364 396 397
f 364 397 398
f 364 398 365
f 365 398 366
f 366 398 399
f 366 399 367
f 367 399 400
f 367 400 387
f 369 401 370
f 370 401 402
f 370 402 403
f 370 403 371
f 371 403 372
f 372 403 373
f 373 404 405
f 373 405 406
f 373 406 374
f 373 403 407
f 373 407 404
f 374 406 375
f 375 406 408
f 375 408 409
f 375 409 376
f 376 409 377
f 377 409 390
f 379 381 410
f 379 410 382
f 380 388 411
f 380 411 381
f 381 411 412
f 381 412 410
f 382 413 414
f 382 414 383
f 382 410 413
f 383 415 416
f 383 416 384
f 383 414 417
f 383 417 415
f 384 416 418
f 384 418 385
f 385 418 419
f 385 419 386
f 386 419 389
f 387 420 388
f 387 400 420
f 388 420 411
f 390 393 391
f 390 409 421
f 390 421 393
f 391 393 392
f 393 421 422
f 393 422 423
f 393 423 394
f 394 423 424
f 394 424 395
f 395 424 425
f 395 425 426
f 395 426 396
f 396 426 427
f 396 427 425
f 396 425 397
f 397 425 428
f 397 428 429
f 397 429 430
f 397 430 399
f 397 399 398
f 399 430 400
f 400 430 431
f 400 431 420
f 401 432 433
f 401 433 402
f 402 433 434
f 402 434 435
f 402 435 436
f 402 436 403
f 403 436 437
f 403 437 438
f 403 438 439
f 403 439 440
f 403 440 441
f 403 441 404
f 403 404 407
f 404 439 442
f 404 442 443
f 404 443 405
f 404 441 440
f 404 440 439
f 405 443 406
f 406 443 444
f 406 444 445
f 406 445 446
f 406 446 408
f 408 446 447
f 408 447 409
f 409 447 422
f 409 422 421
f 410 448 413
f 410 412 449
f 410 449 448
f 411 420 450
f 411 450 412
f 412 450 451
f 412 451 452
f 412 452 449
f 413 453 439
f 413 439 438
f 413 438 415
f 413 415 417
f 413 417 414
f 413 448 453
f 415 436 435
f 415 435 454
f 415 454 455
f 415 455 456
f 415 456 416
f 415 438 436
f 416 456 418
f 418 456 455
f 418 455 457
f 418 457 458
f 418 458 459
f 418 459 460
f 418 460 461
f 418 461 419
f 420 431 450
f 422 462 463
f 422 463 425
f 422 425 464
f 422 464 423
f 422 447 462
f 423 464 425
f 423 425 424
f 425 463 465
f 425 465 428
f 425 427 426
f 428 465 429
f 429 466 451
f 429 451 431
f 429 431 430
f 429 465 466
f 431 451 450
f 432 458 433
f 433 458 434
f 434 458 435
f 435 458 457
f 435 457 455
f 435 455 454
f 436 438 437
f 439 453 467
f 439 467 468
f 439 468 442
f 442 468 444
f 442 444 443
f 444 468 469
f 444 469 470
f 444 470 445
f 445 470 446
f 446 471 472
f 446 472 447
f 446 470 471
f 447 472 462
f 448 449 452
f 448 452 473
f 448 473 467
f 448 467 453
f 451 466 474
f 451 474 473
f 451 473 452
f 462 472 475
f 462 475 463
f 463 475 465
f 465 475 466
f 466 475 476
f 466 476 474
f 467 473 474
f 467 474 468
f 468 474 469
f 469 474 470
f 470 474 471
f 471 476 472
f 471 474 476
f 472 476 475

