# https://github.com/mikedh/trimesh
v 7.30798300 24.04455117 29.58814733
v 7.30766474 24.04455117 29.58814733
v 7.30798300 24.04163756 29.58649002
v 7.31131339 24.04455117 29.58812439
v 7.30444802 24.04455117 29.58806130
v 7.30434572 24.04168829 29.58645561
v 7.30434572 24.03986909 29.58541190
v 7.30798300 24.03981836 29.58543484
v 7.31162597 24.04455117 29.58811866
v 7.30408998 24.04455117 29.58804410
v 7.30408998 24.04169554 29.58644988
v 7.30408998 24.03970964 29.58531442
v 7.30434572 24.03760053 29.58409294
v 7.31162597 24.03988359 29.58538897
v 7.31162597 24.04170279 29.58646135
v 7.30798300 24.03760053 29.58411588
v 7.31443349 24.04455117 29.58802116
v 7.30408998 24.04455117 29.57244014
v 7.30408998 24.03760053 29.58408720
v 7.30408998 24.03742658 29.58398398
v 7.30434572 24.03496958 29.58252738
v 7.31162597 24.03760053 29.58402986
v 7.31526893 24.03516527 29.58240122
v 7.31513822 24.04455117 29.58798676
v 7.30798300 24.03497683 29.58252164
v 7.31162597 24.03503481 29.58248150
v 7.36215006 24.04455117 29.56160740
v 7.36215006 24.00814547 29.52957942
v 7.30408998 23.99096094 29.52956796
v 7.30408998 24.03496958 29.58252164
v 7.30408998 24.03484637 29.58244709
v 7.30408998 24.03295469 29.58127149
v 7.30434572 24.03032374 29.57963138
v 7.31890621 24.03533922 29.58230372
v 7.31162597 24.03321561 29.58134604
v 7.31526893 24.03334607 29.58126002
v 7.31890621 24.04207243 29.58626063
v 7.31890621 24.04455117 29.58771723
v 7.30434572 24.02841032 29.57843858
v 7.30798300 24.03315763 29.58138618
v 7.31044953 24.02846106 29.57840417
v 7.36215006 24.04455117 29.57758411
v 7.36215006 24.00331119 29.52956796
v 7.35979151 24.00688435 29.52956796
v 7.30408998 23.97051489 29.52956796
v 7.30408998 24.03032374 29.57963138
v 7.32187287 24.03554940 29.58217183
v 7.32254917 24.04231885 29.58610006
v 7.31287628 24.02854078 29.57835256
v 7.31526893 24.02867124 29.57826654
v 7.31890621 24.02890317 29.57811743
v 7.31164870 24.02998309 29.57931597
v 7.32254917 24.04455117 29.58737889
v 7.30408998 24.02841032 29.57843284
v 7.30408998 24.02639543 29.57714828
v 7.30434572 24.02659112 29.57727444
v 7.30798300 24.02660562 29.57726297
v 7.30798300 24.02843206 29.57842137
v 7.30798300 24.03032374 29.57960845
v 7.30798300 24.02380797 29.57543936
v 7.31164870 24.02701874 29.57741208
v 7.36043372 24.04455117 29.57825507
v 7.36215006 24.04439172 29.57749236
v 7.36215006 23.98649629 29.52956796
v 7.30434572 23.97050764 29.52956796
v 7.30408998 23.97090627 29.53003246
v 7.32429961 24.03580308 29.58201126
v 7.32619214 24.04268849 29.58588788
v 7.32254917 24.04049240 29.58502195
v 7.32254917 24.02919308 29.57793393
v 7.32619214 24.02955547 29.57769881
v 7.31162597 24.02390219 29.57536481
v 7.31526893 24.02225694 29.57405732
v 7.31890621 24.02667810 29.57665511
v 7.32619214 24.04455117 29.58694306
v 7.30408998 24.02377897 29.57545083
v 7.30434572 24.02377897 29.57545083
v 7.30434572 24.02195978 29.57423509
v 7.30798300 24.02198152 29.57421215
v 7.31162597 24.02208299 29.57416054
v 7.35847868 24.04455117 29.57899483
v 7.36112139 24.03920954 29.57487164
v 7.36215006 24.04078956 29.57539348
v 7.36215006 23.98727905 29.53042815
v 7.36158742 23.98798209 29.53155214
v 7.35895608 23.98542362 29.53037654
v 7.35895608 23.98469884 29.52956796
v 7.30798300 23.97058737 29.52956796
v 7.30434572 23.97101499 29.53015862
v 7.30408998 23.97101499 29.53015862
v 7.32619214 24.03602776 29.58187362
v 7.32983510 24.02714920 29.57562286
v 7.32983510 24.02996860 29.57744649
v 7.32845407 24.04296390 29.58572158
v 7.31890621 24.02248887 29.57389674
v 7.32254917 24.02667810 29.57627662
v 7.32468607 24.02479367 29.57477987
v 7.32601595 24.02336585 29.57367883
v 7.32711282 24.02504009 29.57462504
v 7.31526893 24.01954626 29.57223943
v 7.31890621 24.01976370 29.57207886
v 7.33088082 24.04327556 29.58554953
v 7.32955662 24.04455117 29.58643841
v 7.30408998 24.02195978 29.57422935
v 7.30408998 24.02175684 29.57409172
v 7.30408998 24.01937232 29.57241721
v 7.30664744 24.01755312 29.57110970
v 7.31162597 24.01763284 29.57105809
v 7.31162597 24.01945204 29.57234265
v 7.31526893 24.01772706 29.57098927
v 7.35504031 24.04455117 29.58021631
v 7.35735339 24.04292766 29.57846151
v 7.35895608 24.03857898 29.57526731
v 7.35660321 24.03608574 29.57453902
v 7.35895608 24.03675979 29.57409746
v 7.35894470 24.03382443 29.57217635
v 7.36014956 24.03251258 29.57085165
v 7.36215006 24.03491160 29.57164876
v 7.36215006 24.03814412 29.57376484
v 7.36215006 24.03955019 29.57466518
v 7.36215006 23.98889531 29.53219442
v 7.35860939 23.98747474 29.53280803
v 7.36215006 23.99106965 29.53455136
v 7.35700104 23.98488728 29.53096720
v 7.35559727 23.98288689 29.52956796
v 7.31063708 23.97068159 29.52956796
v 7.30798300 23.97106572 29.53011848
v 7.30798300 23.97288492 29.53218295
v 7.30434572 23.97283419 29.53220589
v 7.30408998 23.97271097 29.53206253
v 7.32983510 24.03396214 29.57998693
v 7.32983510 24.03649162 29.58158116
v 7.32983510 24.02533001 29.57443006
v 7.33346670 24.02580836 29.57412613
v 7.33327915 24.03063539 29.57727444
v 7.33194358 24.03206321 29.57842711
v 7.32254917 24.02278603 29.57370750
v 7.32254917 24.02003911 29.57188388
v 7.32619214 24.02036526 29.57167744
v 7.32983510 24.02303970 29.57292759
v 7.31890621 24.01794450 29.57084018
v 7.32254917 24.01821991 29.57065093
v 7.33346670 24.04124617 29.58387501
v 7.33346670 24.04366694 29.58533736
v 7.33237551 24.04455117 29.58598536
v 7.32981805 24.04455117 29.58639826
v 7.30408998 24.01754587 29.57112117
v 7.30434572 24.01754587 29.57112117
v 7.30798300 24.01327691 29.56793271
v 7.31162597 24.01575566 29.56967604
v 7.31162597 24.01335664 29.56789257
v 7.31526893 24.01575566 29.56949826
v 7.31890621 24.01575566 29.56919434
v 7.35178950 24.04455117 29.58130016
v 7.35167583 24.04439897 29.58124855
v 7.35531879 24.04233335 29.57881706
v 7.35531879 24.04051415 29.57772748
v 7.35535858 24.03741934 29.57582358
v 7.35417646 24.03541170 29.57498059
v 7.35535858 24.03409984 29.57369030
v 7.35771712 24.03180229 29.57132189
v 7.35894470 24.03048319 29.56996851
v 7.36118959 24.02826536 29.56761731
v 7.36215006 24.02855528 29.56742232
v 7.35958691 23.98911275 29.53398362
v 7.35716017 23.98843870 29.53470619
v 7.36215006 23.99164223 29.53516496
v 7.35457429 23.98423498 29.53166110
v 7.35167583 23.98167650 29.53047976
v 7.35515398 23.98266220 29.52956796
v 7.31162597 23.97071783 29.52956796
v 7.31162597 23.97113095 29.53004393
v 7.31162597 23.97295015 29.53209693
v 7.30798300 23.97453017 29.53400084
v 7.30434572 23.97451567 29.53402378
v 7.30408998 23.97451567 29.53402378
v 7.33327915 24.03375195 29.57925863
v 7.33346670 24.03701346 29.58126576
v 7.33222775 24.02106105 29.57120720
v 7.33344965 24.02278603 29.57213047
v 7.33464881 24.02140170 29.57097207
v 7.33710966 24.02636644 29.57375338
v 7.33710966 24.03281698 29.57794540
v 7.33436465 24.03239661 29.57821493
v 7.32619214 24.01853881 29.57041582
v 7.32983510 24.02076389 29.57141364
v 7.32137842 24.01384949 29.56752555
v 7.32257759 24.01543676 29.56859219
v 7.32380517 24.01401619 29.56739365
v 7.32619214 24.01603832 29.56859219
v 7.33710966 24.04100700 29.58301482
v 7.33710966 24.03464343 29.57909233
v 7.33710966 24.04429750 29.58498754
v 7.33477384 24.04455117 29.58556100
v 7.33346670 24.04455117 29.58580186
v 7.30408998 24.01328416 29.56794418
v 7.30434572 24.01327691 29.56794418
v 7.30434572 24.01572667 29.56976780
v 7.30798300 24.01145772 29.56657360
v 7.31162597 24.01153019 29.56650478
v 7.31890621 24.01369729 29.56763451
v 7.31526893 24.01168240 29.56639583
v 7.34980604 24.04455117 29.58191377
v 7.34878306 24.04363070 29.58170732
v 7.35159626 24.04110847 29.57930451
v 7.35275565 24.03980386 29.57815184
v 7.35159626 24.03782521 29.57730885
v 7.35167583 24.03476664 29.57539348
v 7.35167583 24.03294744 29.57419494
v 7.35531879 24.02933804 29.57054197
v 7.35531879 24.03115724 29.57175198
v 7.35895608 24.02765655 29.56805314
v 7.35895608 24.02583735 29.56674564
v 7.35874579 24.02298897 29.56476719
v 7.36197956 24.02417036 29.56431989
v 7.36215006 24.02725792 29.56648758
v 7.35531879 23.98796035 29.53520510
v 7.36215006 23.99214958 29.53570402
v 7.36215006 23.99306280 29.53666171
v 7.35725678 23.99202636 29.53839930
v 7.35531879 23.98969982 29.53702299
v 7.35230099 23.98538738 29.53408685
v 7.34977194 23.98120540 29.53100734
v 7.35167583 23.98090099 29.52956796
v 7.31526893 23.97100049 29.52956796
v 7.31526893 23.97128316 29.52988910
v 7.31526893 23.97310236 29.53193063
v 7.31526893 23.97474036 29.53374851
v 7.31162597 23.97460265 29.53391481
v 7.31162597 23.97642185 29.53583018
v 7.30798300 23.97634937 29.53591047
v 7.30434572 23.97633488 29.53592767
v 7.30408998 23.97621166 29.53579577
v 7.32983510 24.01894469 29.57011761
v 7.32983510 24.01642246 29.56829973
v 7.33346670 24.01688632 29.56796139
v 7.33344965 24.01966947 29.56997425
v 7.33629127 24.01727045 29.56768039
v 7.33734836 24.01907515 29.56872410
v 7.33710966 24.02180758 29.57069107
v 7.33710966 24.02362677 29.57193549
v 7.33897377 24.02848280 29.57474547
v 7.34075262 24.03343305 29.57756118
v 7.34075262 24.03525224 29.57870811
v 7.31890621 24.01187809 29.56623526
v 7.31890621 24.00952980 29.56441737
v 7.32257759 24.01242892 29.56629834
v 7.32619214 24.01421913 29.56724455
v 7.32254917 24.00977623 29.56422814
v 7.32619214 24.01211727 29.56562165
v 7.34075262 24.04187673 29.58276250
v 7.34064464 24.04455117 29.58432805
v 7.33813265 24.04455117 29.58489579
v 7.33735404 24.04455117 29.58506782
v 7.33710966 24.04455117 29.58511943
v 7.30408998 24.01146496 29.56655639
v 7.30434572 24.01145772 29.56656213
v 7.30798300 24.00916016 29.56475572
v 7.31162597 24.00921814 29.56468117
v 7.31526893 24.00934136 29.56457222
v 7.34801582 24.04455117 29.58243563
v 7.34752137 24.04455117 29.58257899
v 7.34635631 24.04300014 29.58206287
v 7.34803287 24.03678878 29.57777336
v 7.35032890 24.03918055 29.57852459
v 7.34807833 24.03373745 29.57582358
v 7.34931728 24.03238212 29.57457916
v 7.35057896 24.02814940 29.57133336
v 7.35174403 24.03009906 29.57226236
v 7.35300571 24.02874372 29.57093766
v 7.35409121 24.02454724 29.56768039
v 7.35530743 24.02651140 29.56860366
v 7.35651796 24.02518505 29.56722162
v 7.35738750 24.02107554 29.56391273
v 7.35981425 24.02174234 29.56341955
v 7.36215006 24.02396742 29.56409623
v 7.36215006 24.02422109 29.56428548
v 7.36215006 23.99519365 29.53887527
v 7.35531879 23.99152626 29.53889821
v 7.36215006 23.99665770 29.54031468
v 7.35960965 23.99635330 29.54136984
v 7.35531879 23.99340344 29.54072184
v 7.35238624 23.98897504 29.53778570
v 7.34438990 23.98182871 29.53398937
v 7.34734519 23.98071979 29.53152921
v 7.34438990 23.97832802 29.53012421
v 7.34848753 23.97948767 29.52956796
v 7.34987424 23.98480031 29.53470045
v 7.34803287 23.98441617 29.53510761
v 7.34438990 23.98365515 29.53589326
v 7.31880391 23.97144261 29.52956796
v 7.31890621 23.97149335 29.52961383
v 7.31890621 23.97331254 29.53169550
v 7.31890621 23.97495779 29.53351338
v 7.31890621 23.97678424 29.53547463
v 7.31526893 23.97656681 29.53569255
v 7.31526893 23.97834251 29.53751043
v 7.31162597 23.97820481 29.53765379
v 7.30798300 23.97811783 29.53773409
v 7.30408998 23.97633488 29.53592193
v 7.30434572 23.97811783 29.53774556
v 7.32983510 24.01460326 29.56695209
v 7.33346670 24.01506712 29.56659655
v 7.33346670 24.01270434 29.56477292
v 7.33734836 24.01593685 29.56641877
v 7.33871802 24.01764734 29.56740512
v 7.34075262 24.02245988 29.57024377
v 7.34075262 24.02427907 29.57149392
v 7.34075262 24.01983617 29.56842589
v 7.34140051 24.02890317 29.57446448
v 7.34041163 24.03020053 29.57554258
v 7.34292931 24.03563638 29.57846725
v 7.31890621 24.00771060 29.56296078
v 7.32827221 24.01024008 29.56386112
v 7.32619214 24.01005889 29.56401021
v 7.32254917 24.00795703 29.56274859
v 7.34438990 24.04257977 29.58231520
v 7.34438990 24.04455117 29.58342772
v 7.30408998 24.01130551 29.56643023
v 7.30408998 24.00905145 29.56463530
v 7.30434572 24.00917466 29.56473852
v 7.30798300 24.00327495 29.55995582
v 7.31162597 24.00740620 29.56319589
v 7.31526893 24.00752216 29.56310414
v 7.34535606 24.03615097 29.57815759
v 7.34689054 24.03183853 29.57493471
v 7.34807833 24.03050493 29.57369603
v 7.34803287 24.02756233 29.57173478
v 7.34803287 24.02574313 29.57049036
v 7.35174403 24.02683030 29.57005453
v 7.35167583 24.02396017 29.56809328
v 7.35167583 24.02214097 29.56679725
v 7.35531879 24.02053196 29.56431415
v 7.35530743 24.02321365 29.56625820
v 7.35531879 24.01871276 29.56296651
v 7.35809790 24.01705302 29.56059237
v 7.36215006 24.02267006 29.56311561
v 7.36052465 24.01771982 29.56005905
v 7.35116434 23.99051157 29.53991325
v 7.35236919 23.99264968 29.54145014
v 7.36215006 23.99844792 29.54205800
v 7.36187158 23.99878131 29.54253398
v 7.35718290 23.99571550 29.54199492
v 7.35531879 23.99522264 29.54244223
v 7.34995949 23.98840246 29.53838210
v 7.34198021 23.98135760 29.53448255
v 7.34438990 23.98014722 29.53216575
v 7.34162784 23.97782792 29.53070342
v 7.34438990 23.97786416 29.52956796
v 7.34803287 23.98617014 29.53692550
v 7.34438990 23.98541637 29.53771115
v 7.34215638 23.98497426 29.53816992
v 7.31890621 23.97145710 29.52956796
v 7.31915627 23.97149335 29.52956796
v 7.32254917 23.97358071 29.53139730
v 7.32254917 23.97523321 29.53321519
v 7.32254917 23.97705241 29.53519363
v 7.32254917 23.97879913 29.53701725
v 7.31890621 23.97853821 29.53729252
v 7.31890621 23.98035740 29.53913334
v 7.31526893 23.98016896 29.53930537
v 7.31162597 23.98002401 29.53943728
v 7.30798300 23.97993703 29.53952329
v 7.30408998 23.97812508 29.53774556
v 7.30434572 23.97993703 29.53950609
v 7.32962482 24.01188533 29.56489908
v 7.33070464 24.01051550 29.56363746
v 7.33346670 24.01088514 29.56333927
v 7.33710966 24.01323343 29.56437150
v 7.33993992 24.01363930 29.56403889
v 7.34236667 24.01400169 29.56376363
v 7.34075262 24.01800973 29.56714133
v 7.34297477 24.02469945 29.57120146
v 7.34427056 24.02650415 29.57209033
v 7.34438990 24.02054646 29.56793271
v 7.34427056 24.02330787 29.56988822
v 7.34438990 24.02948299 29.57408025
v 7.34438990 24.03130944 29.57528453
v 7.34424214 24.03423755 29.57722856
v 7.31890621 24.00551452 29.56113716
v 7.32619214 24.00604361 29.56067839
v 7.32983510 24.00639875 29.56039165
v 7.33185265 24.00661618 29.56021388
v 7.32254917 24.00576095 29.56092498
v 7.30408998 24.00330394 29.55993288
v 7.30434572 24.00329669 29.55993862
v 7.31162597 24.00337642 29.55986980
v 7.31162597 24.00519561 29.56137228
v 7.30434572 23.99356290 29.55164632
v 7.30798300 23.99355565 29.55164632
v 7.31162597 23.99546907 29.55312013
v 7.31526893 24.00533332 29.56128627
v 7.34540152 24.02517780 29.57088032
v 7.34794193 24.02287300 29.56851191
v 7.34909563 24.02154665 29.56722162
v 7.35012430 24.01745165 29.56390699
v 7.35147123 24.01929984 29.56480160
v 7.35255105 24.01801698 29.56347690
v 7.35531879 24.01634273 29.56114863
v 7.35531879 24.01452353 29.55969777
v 7.35895608 24.01324067 29.55711718
v 7.35917204 24.01580639 29.55911283
v 7.36215006 24.02005361 29.56111995
v 7.36101341 24.01379876 29.55665267
v 7.36215006 24.01540777 29.55742684
v 7.36215006 24.01819817 29.55968056
v 7.36215006 24.01961874 29.56078734
v 7.34994244 23.99205535 29.54201213
v 7.35703513 23.99942636 29.54556761
v 7.36215006 23.99886104 29.54245943
v 7.36215006 23.99931040 29.54288953
v 7.36215006 24.00029610 29.54381854
v 7.35895608 23.99994096 29.54509163
v 7.35862077 23.99756368 29.54302142
v 7.34803287 23.98798934 29.53880073
v 7.33972395 23.98452489 29.53861149
v 7.33710966 23.98229982 29.53712621
v 7.33710966 23.98059658 29.53530833
v 7.33710966 23.97877738 29.53331268
v 7.33920110 23.97745103 29.53113925
v 7.33773482 23.97568257 29.52956796
v 7.34040594 23.97650883 29.52956796
v 7.34070147 23.97660304 29.52956796
v 7.34438990 23.98723557 29.53952903
v 7.34438990 23.98911275 29.54135264
v 7.32257759 23.97203693 29.52956796
v 7.32480542 23.97378365 29.53116792
v 7.32537943 23.97731333 29.53492411
v 7.32619214 23.98096622 29.53853119
v 7.32254917 23.98061832 29.53888101
v 7.31890621 23.98223459 29.54095695
v 7.31526893 23.98206064 29.54112326
v 7.31162597 23.98193018 29.54126089
v 7.30798300 23.98185045 29.54134690
v 7.30408998 23.97994428 29.53950036
v 7.30434572 23.98186495 29.54132970
v 7.30408998 23.98173449 29.54119781
v 7.33322232 24.00826144 29.56127480
v 7.33710966 24.01140698 29.56292637
v 7.33427372 24.00692059 29.55995582
v 7.33710966 24.00913117 29.56110275
v 7.34438990 24.01440032 29.56346543
v 7.34438990 24.01621952 29.56481307
v 7.34099132 24.01230571 29.56272566
v 7.34075262 24.00969650 29.56066692
v 7.34318505 24.01008788 29.56034578
v 7.34561180 24.01050100 29.55999596
v 7.34438990 24.01872001 29.56663095
v 7.34666889 24.02101756 29.56759437
v 7.31890621 24.00369532 29.55961748
v 7.32254917 24.00176741 29.55759315
v 7.32619214 24.00422441 29.55914150
v 7.32983510 23.99280188 29.54865284
v 7.30408998 23.99341794 29.55151443
v 7.31526893 23.99954958 29.55638314
v 7.31526893 24.00137603 29.55793722
v 7.31526893 24.00351413 29.55975511
v 7.30434572 23.99144654 29.54982271
v 7.30798300 23.99144654 29.54982845
v 7.31162597 23.99153351 29.54973669
v 7.31890621 24.00152098 29.55779960
v 7.34794193 24.01964048 29.56620659
v 7.34803287 24.01698779 29.56425107
v 7.34803287 24.01516859 29.56286902
v 7.34803287 24.01282030 29.56105114
v 7.35086312 24.01345811 29.56054076
v 7.35328987 24.01403069 29.56009346
v 7.35385251 24.01012412 29.55668707
v 7.35516534 24.01200855 29.55770211
v 7.35627926 24.01071844 29.55615949
v 7.35895608 24.01142148 29.55555162
v 7.36215006 24.01413215 29.55637168
v 7.36133735 24.00999366 29.55317174
v 7.36215006 24.01171864 29.55428427
v 7.36215006 24.01250865 29.55497242
v 7.34963554 23.99582421 29.54553894
v 7.34803287 23.99165672 29.54236194
v 7.34803287 23.98983753 29.54062435
v 7.35136325 23.99388180 29.54304436
v 7.35654638 24.00694234 29.55263269
v 7.35519945 24.00852961 29.55466275
v 7.36215006 24.00260815 29.54598050
v 7.35895608 24.00937035 29.55372800
v 7.33710966 23.98411901 29.53899571
v 7.34198021 23.98866338 29.54177700
v 7.33955346 23.98824301 29.54217269
v 7.33346670 23.98181421 29.53766526
v 7.33346670 23.98008199 29.53584165
v 7.33346670 23.97825554 29.53388040
v 7.33710966 23.97713213 29.53149480
v 7.33722333 23.97553037 29.52956796
v 7.34438990 23.99093194 29.54300422
v 7.32320843 23.97215290 29.52956796
v 7.32599891 23.97273272 29.52956796
v 7.32983510 23.97361695 29.52956796
v 7.32983510 23.97438521 29.53047403
v 7.33346670 23.97663929 29.53205679
v 7.32983510 23.97780618 29.53437931
v 7.32780618 23.97757424 29.53463738
v 7.32643083 23.97884986 29.53628895
v 7.32802214 23.98116916 29.53833049
v 7.32799373 23.98481480 29.54196625
v 7.32254917 23.98250276 29.54070463
v 7.32254917 23.98432195 29.54242502
v 7.31890621 23.98405378 29.54266588
v 7.31526893 23.98387984 29.54282645
v 7.31162597 23.98374937 29.54293540
v 7.30798300 23.98366965 29.54299275
v 7.30434572 23.98368414 29.54299275
v 7.30408998 23.98356093 29.54287232
v 7.33562633 23.99927416 29.55298249
v 7.33710966 24.00731922 29.55961748
v 7.33346670 23.99325849 29.54825142
v 7.34075262 24.00787730 29.55912430
v 7.34363971 24.00627554 29.55688206
v 7.33918973 23.99199737 29.54569377
v 7.34606646 24.00671041 29.55648637
v 7.34803287 24.00889924 29.55777666
v 7.34803287 24.01100110 29.55958880
v 7.31890621 23.99970178 29.55625124
v 7.32254917 23.99994821 29.55603333
v 7.32619214 23.99243949 29.54895105
v 7.32467471 23.98838796 29.54567083
v 7.33346670 23.99118561 29.54643354
v 7.30408998 23.99145378 29.54981698
v 7.31526893 23.98774291 29.54622135
v 7.30408998 23.98963459 29.54823421
v 7.30434572 23.98753273 29.54641634
v 7.30798300 23.98753997 29.54641060
v 7.31162597 23.98761245 29.54634751
v 7.31162597 23.98971432 29.54816540
v 7.35191453 24.01218974 29.55913003
v 7.35167583 24.00964577 29.55711145
v 7.35167583 24.00781932 29.55548281
v 7.36215006 24.01021834 29.55296529
v 7.33710966 23.98606142 29.54081932
v 7.33346670 23.98554683 29.54129529
v 7.33346670 23.98363341 29.53947742
v 7.34161648 23.99245399 29.54530381
v 7.34058781 23.99033038 29.54373825
v 7.33710966 23.98987377 29.54431746
v 7.33710966 23.98788062 29.54249957
v 7.33044889 23.98145182 29.53804375
v 7.32947706 23.97993703 29.53670185
v 7.33346670 23.97482009 29.52996938
v 7.33346670 23.97447944 29.52956796
v 7.33236983 23.97421852 29.52956796
v 7.32556130 23.98459012 29.54217843
v 7.32983510 23.98505398 29.54174833
v 7.32254917 23.98638033 29.54424290
v 7.31890621 23.98611216 29.54448949
v 7.31526893 23.98592371 29.54465006
v 7.31162597 23.98579325 29.54475329
v 7.30798300 23.98572077 29.54481637
v 7.30434572 23.98571353 29.54481064
v 7.30408998 23.98572077 29.54480490
v 7.33710966 23.99169296 29.54596904
v 7.34075262 24.00579718 29.55730642
v 7.32254917 23.98819952 29.54582566
v 7.33346670 23.98936642 29.54477623
v 7.30408998 23.98948963 29.54810806
v 7.30408998 23.98753997 29.54641060
f 1 2 3
f 1 3 4
f 1 4 9
f 1 9 17
f 1 17 24
f 1 24 38
f 1 38 53
f 1 53 75
f 1 75 103
f 1 103 146
f 1 146 145
f 1 145 195
f 1 195 194
f 1 194 255
f 1 255 254
f 1 254 253
f 1 253 252
f 1 252 318
f 1 318 262
f 1 262 261
f 1 261 203
f 1 203 154
f 1 154 111
f 1 111 81
f 1 81 62
f 1 62 42
f 1 42 27
f 1 27 18
f 1 18 10
f 1 10 5
f 1 5 2
f 2 5 6
f 2 6 3
f 3 6 7
f 3 7 8
f 3 8 4
f 4 8 9
f 5 10 11
f 5 11 6
f 6 11 12
f 6 12 7
f 7 12 13
f 7 13 8
f 8 14 15
f 8 15 9
f 8 13 16
f 8 16 14
f 9 15 17
f 10 18 29
f 10 29 45
f 10 45 66
f 10 66 90
f 10 90 130
f 10 130 176
f 10 176 233
f 10 233 300
f 10 300 364
f 10 364 435
f 10 435 437
f 10 437 510
f 10 510 556
f 10 556 562
f 10 562 561
f 10 561 527
f 10 527 525
f 10 525 454
f 10 454 385
f 10 385 320
f 10 320 319
f 10 319 256
f 10 256 196
f 10 196 147
f 10 147 106
f 10 106 105
f 10 105 104
f 10 104 76
f 10 76 55
f 10 55 54
f 10 54 46
f 10 46 32
f 10 32 31
f 10 31 30
f 10 30 20
f 10 20 19
f 10 19 12
f 10 12 11
f 12 19 13
f 13 19 20
f 13 20 21
f 13 21 16
f 14 16 22
f 14 22 23
f 14 23 24
f 14 24 17
f 14 17 15
f 16 21 25
f 16 25 26
f 16 26 22
f 18 27 28
f 18 28 29
f 20 30 21
f 21 30 31
f 21 31 32
f 21 32 33
f 21 33 25
f 22 26 23
f 23 34 24
f 23 26 35
f 23 35 36
f 23 36 34
f 24 37 38
f 24 34 37
f 25 33 39
f 25 39 40
f 25 40 41
f 25 41 26
f 26 41 35
f 27 42 63
f 27 63 83
f 27 83 120
f 27 120 119
f 27 119 118
f 27 118 164
f 27 164 216
f 27 216 277
f 27 277 276
f 27 276 337
f 27 337 403
f 27 403 407
f 27 407 406
f 27 406 405
f 27 405 472
f 27 472 475
f 27 475 474
f 27 474 535
f 27 535 482
f 27 482 412
f 27 412 411
f 27 411 410
f 27 410 341
f 27 341 280
f 27 280 278
f 27 278 219
f 27 219 218
f 27 218 167
f 27 167 123
f 27 123 121
f 27 121 84
f 27 84 64
f 27 64 43
f 27 43 28
f 28 43 44
f 28 44 29
f 29 44 43
f 29 43 64
f 29 64 87
f 29 87 125
f 29 125 170
f 29 170 224
f 29 224 287
f 29 287 349
f 29 349 423
f 29 423 422
f 29 422 421
f 29 421 491
f 29 491 546
f 29 546 547
f 29 547 495
f 29 495 494
f 29 494 493
f 29 493 426
f 29 426 354
f 29 354 353
f 29 353 291
f 29 291 225
f 29 225 171
f 29 171 126
f 29 126 88
f 29 88 65
f 29 65 45
f 32 46 39
f 32 39 33
f 34 47 48
f 34 48 37
f 34 36 49
f 34 49 50
f 34 50 51
f 34 51 47
f 35 41 52
f 35 52 36
f 36 52 49
f 37 48 38
f 38 48 53
f 39 54 55
f 39 55 56
f 39 56 57
f 39 57 58
f 39 58 59
f 39 59 40
f 39 46 54
f 40 59 41
f 41 49 52
f 41 59 58
f 41 58 57
f 41 57 60
f 41 60 61
f 41 61 49
f 42 62 63
f 45 65 66
f 47 67 68
f 47 68 69
f 47 69 48
f 47 51 70
f 47 70 71
f 47 71 67
f 48 68 53
f 48 69 68
f 49 61 72
f 49 72 73
f 49 73 50
f 50 73 51
f 51 73 74
f 51 74 70
f 53 68 75
f 55 76 77
f 55 77 56
f 56 77 57
f 57 77 60
f 60 77 78
f 60 78 79
f 60 79 80
f 60 80 72
f 60 72 61
f 62 81 82
f 62 82 83
f 62 83 63
f 64 84 85
f 64 85 86
f 64 86 87
f 65 88 89
f 65 89 66
f 66 89 90
f 67 91 68
f 67 71 92
f 67 92 93
f 67 93 91
f 68 94 75
f 68 91 94
f 70 74 95
f 70 95 96
f 70 96 97
f 70 97 98
f 70 98 71
f 71 98 99
f 71 99 92
f 72 80 73
f 73 95 74
f 73 80 100
f 73 100 101
f 73 101 95
f 75 94 102
f 75 102 103
f 76 104 78
f 76 78 77
f 78 104 105
f 78 105 106
f 78 106 79
f 79 106 107
f 79 107 108
f 79 108 109
f 79 109 80
f 80 109 110
f 80 110 100
f 81 111 112
f 81 112 82
f 82 113 114
f 82 114 115
f 82 115 116
f 82 116 117
f 82 117 118
f 82 118 119
f 82 119 120
f 82 120 83
f 82 112 113
f 84 121 85
f 85 122 86
f 85 121 123
f 85 123 122
f 86 124 87
f 86 122 124
f 87 124 125
f 88 126 127
f 88 127 89
f 89 127 128
f 89 128 129
f 89 129 90
f 90 129 130
f 91 131 132
f 91 132 102
f 91 102 94
f 91 93 131
f 92 99 133
f 92 133 134
f 92 134 93
f 93 134 135
f 93 135 136
f 93 136 131
f 95 137 96
f 95 101 138
f 95 138 137
f 96 137 97
f 97 137 139
f 97 139 98
f 98 140 99
f 98 139 140
f 99 140 133
f 100 110 141
f 100 141 101
f 101 141 142
f 101 142 138
f 102 143 144
f 102 144 145
f 102 145 146
f 102 146 103
f 102 132 143
f 106 147 148
f 106 148 107
f 107 148 149
f 107 149 108
f 108 149 150
f 108 150 110
f 108 110 109
f 110 150 151
f 110 151 152
f 110 152 153
f 110 153 141
f 111 154 155
f 111 155 156
f 111 156 112
f 112 156 157
f 112 157 113
f 113 158 114
f 113 157 158
f 114 158 159
f 114 159 160
f 114 160 161
f 114 161 115
f 115 161 116
f 116 161 117
f 117 161 162
f 117 162 163
f 117 163 118
f 118 163 164
f 122 123 165
f 122 165 166
f 122 166 124
f 123 167 165
f 124 168 125
f 124 166 168
f 125 168 169
f 125 169 170
f 126 171 172
f 126 172 127
f 127 172 128
f 128 173 174
f 128 174 129
f 128 172 173
f 129 174 175
f 129 175 176
f 129 176 130
f 131 136 132
f 132 136 177
f 132 177 178
f 132 178 143
f 133 140 134
f 134 140 179
f 134 179 180
f 134 180 181
f 134 181 182
f 134 182 183
f 134 183 184
f 134 184 135
f 135 184 136
f 136 184 177
f 137 138 139
f 138 142 139
f 139 142 185
f 139 185 186
f 139 186 140
f 140 186 179
f 141 153 187
f 141 187 188
f 141 188 142
f 142 188 189
f 142 189 190
f 142 190 185
f 143 191 144
f 143 178 192
f 143 192 191
f 144 191 193
f 144 193 194
f 144 194 195
f 144 195 145
f 147 196 197
f 147 197 198
f 147 198 148
f 148 198 149
f 149 151 150
f 149 198 197
f 149 197 199
f 149 199 151
f 151 199 200
f 151 200 152
f 152 201 153
f 152 200 202
f 152 202 201
f 153 201 187
f 154 203 204
f 154 204 155
f 155 204 205
f 155 205 206
f 155 206 156
f 156 206 157
f 157 206 158
f 158 206 159
f 159 206 207
f 159 207 208
f 159 208 209
f 159 209 210
f 159 210 211
f 159 211 160
f 160 211 161
f 161 211 210
f 161 210 212
f 161 212 162
f 162 212 163
f 163 212 213
f 163 213 214
f 163 214 215
f 163 215 216
f 163 216 164
f 165 167 166
f 166 217 168
f 166 167 218
f 166 218 219
f 166 219 220
f 166 220 221
f 166 221 217
f 168 222 223
f 168 223 169
f 168 217 222
f 169 223 224
f 169 224 170
f 171 225 172
f 172 225 226
f 172 226 173
f 173 227 228
f 173 228 229
f 173 229 174
f 173 226 227
f 174 229 230
f 174 230 231
f 174 231 175
f 175 231 232
f 175 232 176
f 176 232 233
f 177 184 178
f 178 184 192
f 179 186 234
f 179 234 235
f 179 235 236
f 179 236 237
f 179 237 181
f 179 181 180
f 181 237 238
f 181 238 239
f 181 239 240
f 181 240 241
f 181 241 182
f 182 241 242
f 182 242 183
f 183 243 244
f 183 244 192
f 183 192 184
f 183 242 243
f 185 234 186
f 185 190 235
f 185 235 234
f 187 189 188
f 187 201 245
f 187 245 246
f 187 246 247
f 187 247 189
f 189 248 190
f 189 247 249
f 189 249 250
f 189 250 248
f 190 248 302
f 190 302 235
f 191 251 193
f 191 192 244
f 191 244 251
f 193 251 252
f 193 252 253
f 193 253 254
f 193 254 255
f 193 255 194
f 196 256 257
f 196 257 197
f 197 257 199
f 199 257 258
f 199 258 259
f 199 259 200
f 200 259 260
f 200 260 202
f 201 202 245
f 202 260 246
f 202 246 245
f 203 261 204
f 204 261 262
f 204 262 263
f 204 263 264
f 204 264 265
f 204 265 205
f 205 265 207
f 205 207 206
f 207 265 264
f 207 264 208
f 208 266 267
f 208 267 209
f 208 264 266
f 209 267 268
f 209 268 269
f 209 269 270
f 209 270 210
f 210 270 271
f 210 271 272
f 210 272 212
f 212 272 271
f 212 271 273
f 212 273 213
f 213 273 274
f 213 274 214
f 214 275 215
f 214 274 275
f 215 275 276
f 215 276 277
f 215 277 216
f 217 221 222
f 219 278 220
f 220 279 221
f 220 278 280
f 220 280 281
f 220 281 282
f 220 282 279
f 221 283 222
f 221 279 283
f 222 283 223
f 223 284 285
f 223 285 286
f 223 286 287
f 223 287 224
f 223 283 288
f 223 288 289
f 223 289 290
f 223 290 284
f 225 291 292
f 225 292 293
f 225 293 226
f 226 293 227
f 227 293 228
f 228 293 294
f 228 294 295
f 228 295 296
f 228 296 229
f 229 296 230
f 230 296 297
f 230 297 298
f 230 298 299
f 230 299 231
f 231 299 232
f 232 300 233
f 232 299 301
f 232 301 300
f 235 302 236
f 236 302 303
f 236 303 238
f 236 238 237
f 238 303 304
f 238 304 305
f 238 305 306
f 238 306 239
f 239 306 240
f 240 307 308
f 240 308 241
f 240 306 309
f 240 309 307
f 241 308 310
f 241 310 242
f 242 310 311
f 242 311 243
f 243 312 244
f 243 311 310
f 243 310 312
f 244 312 251
f 246 249 247
f 246 260 313
f 246 313 249
f 248 250 314
f 248 314 302
f 249 315 250
f 249 313 316
f 249 316 315
f 250 315 314
f 251 317 252
f 251 312 317
f 252 317 318
f 256 319 257
f 257 319 320
f 257 320 321
f 257 321 258
f 258 321 322
f 258 322 259
f 259 322 323
f 259 323 324
f 259 324 260
f 260 324 313
f 262 318 263
f 263 318 317
f 263 317 325
f 263 325 264
f 264 325 266
f 266 326 267
f 266 325 326
f 267 326 327
f 267 327 328
f 267 328 268
f 268 328 329
f 268 329 330
f 268 330 270
f 268 270 269
f 270 330 271
f 271 331 332
f 271 332 333
f 271 333 334
f 271 334 273
f 271 330 331
f 273 334 333
f 273 333 274
f 274 333 335
f 274 335 336
f 274 336 275
f 275 337 276
f 275 336 338
f 275 338 337
f 279 339 283
f 279 282 340
f 279 340 339
f 280 341 342
f 280 342 281
f 281 343 282
f 281 342 343
f 282 343 344
f 282 344 340
f 283 339 345
f 283 345 288
f 284 346 347
f 284 347 285
f 284 290 346
f 285 347 286
f 286 348 349
f 286 349 287
f 286 347 348
f 288 350 289
f 288 345 350
f 289 350 290
f 290 350 351
f 290 351 352
f 290 352 346
f 291 353 292
f 292 353 354
f 292 354 355
f 292 355 293
f 293 355 294
f 294 356 357
f 294 357 295
f 294 355 356
f 295 357 358
f 295 358 359
f 295 359 296
f 296 359 297
f 297 359 360
f 297 360 361
f 297 361 298
f 298 361 362
f 298 362 363
f 298 363 299
f 299 363 301
f 300 301 364
f 301 363 365
f 301 365 364
f 302 314 366
f 302 366 367
f 302 367 303
f 303 367 304
f 304 367 368
f 304 368 369
f 304 369 305
f 305 370 371
f 305 371 306
f 305 369 370
f 306 372 309
f 306 371 372
f 307 373 308
f 307 309 373
f 308 373 374
f 308 374 310
f 309 372 375
f 309 375 376
f 309 376 373
f 310 374 377
f 310 377 378
f 310 378 379
f 310 379 312
f 312 379 325
f 312 325 317
f 313 324 380
f 313 380 384
f 313 384 316
f 314 367 366
f 314 315 381
f 314 381 382
f 314 382 383
f 314 383 367
f 315 316 381
f 316 384 381
f 320 385 386
f 320 386 321
f 321 386 322
f 322 387 388
f 322 388 323
f 322 386 389
f 322 389 390
f 322 390 391
f 322 391 387
f 323 388 324
f 324 388 387
f 324 387 392
f 324 392 380
f 325 379 326
f 326 378 377
f 326 377 327
f 326 379 378
f 327 377 328
f 328 377 393
f 328 393 329
f 329 393 394
f 329 394 395
f 329 395 331
f 329 331 330
f 331 395 332
f 332 395 396
f 332 396 397
f 332 397 333
f 333 397 398
f 333 398 335
f 335 398 399
f 335 399 336
f 336 399 400
f 336 400 401
f 336 401 402
f 336 402 338
f 337 338 403
f 338 402 404
f 338 404 405
f 338 405 406
f 338 406 407
f 338 407 403
f 339 340 408
f 339 408 345
f 340 344 409
f 340 409 408
f 341 410 342
f 342 410 411
f 342 411 412
f 342 412 413
f 342 413 414
f 342 414 343
f 343 414 409
f 343 409 344
f 345 408 415
f 345 415 350
f 346 352 416
f 346 416 417
f 346 417 418
f 346 418 419
f 346 419 420
f 346 420 348
f 346 348 347
f 348 420 421
f 348 421 422
f 348 422 423
f 348 423 349
f 350 415 351
f 351 415 424
f 351 424 352
f 352 424 425
f 352 425 416
f 354 426 355
f 355 426 427
f 355 427 356
f 356 428 357
f 356 427 428
f 357 428 358
f 358 428 429
f 358 429 430
f 358 430 359
f 359 430 360
f 360 430 431
f 360 431 361
f 361 431 432
f 361 432 362
f 362 432 433
f 362 433 363
f 363 433 434
f 363 434 365
f 364 365 435
f 365 434 436
f 365 436 437
f 365 437 435
f 367 383 438
f 367 438 368
f 368 439 369
f 368 438 440
f 368 440 441
f 368 441 439
f 369 439 370
f 370 439 371
f 371 442 443
f 371 443 372
f 371 439 441
f 371 441 444
f 371 444 445
f 371 445 446
f 371 446 447
f 371 447 442
f 372 448 375
f 372 443 448
f 373 376 393
f 373 393 374
f 374 393 377
f 375 448 449
f 375 449 393
f 375 393 376
f 380 392 450
f 380 450 451
f 380 451 384
f 381 384 451
f 381 451 452
f 381 452 382
f 382 452 453
f 382 453 383
f 383 440 438
f 383 453 440
f 385 454 386
f 386 454 389
f 387 455 456
f 387 456 457
f 387 457 392
f 387 391 455
f 389 454 458
f 389 458 390
f 390 458 459
f 390 459 460
f 390 460 391
f 391 460 455
f 392 457 461
f 392 461 450
f 393 449 394
f 394 449 395
f 395 449 462
f 395 462 463
f 395 463 396
f 396 398 397
f 396 463 464
f 396 464 465
f 396 465 466
f 396 466 398
f 398 466 467
f 398 467 399
f 399 467 400
f 400 467 468
f 400 468 469
f 400 469 401
f 401 469 470
f 401 470 471
f 401 471 404
f 401 404 402
f 404 472 405
f 404 471 473
f 404 473 474
f 404 474 475
f 404 475 472
f 408 476 477
f 408 477 425
f 408 425 478
f 408 478 415
f 408 409 479
f 408 479 480
f 408 480 481
f 408 481 468
f 408 468 476
f 409 414 413
f 409 413 482
f 409 482 473
f 409 473 483
f 409 483 480
f 409 480 479
f 412 482 413
f 415 478 424
f 416 484 417
f 416 425 485
f 416 485 486
f 416 486 484
f 417 487 488
f 417 488 418
f 417 484 487
f 418 488 489
f 418 489 419
f 419 489 490
f 419 490 420
f 420 490 491
f 420 491 421
f 424 478 425
f 425 477 492
f 425 492 485
f 426 493 427
f 427 493 494
f 427 494 495
f 427 495 496
f 427 496 497
f 427 497 498
f 427 498 499
f 427 499 428
f 428 499 500
f 428 500 429
f 429 501 502
f 429 502 430
f 429 500 501
f 430 502 503
f 430 503 431
f 431 503 504
f 431 504 505
f 431 505 432
f 432 505 506
f 432 506 433
f 433 506 507
f 433 507 434
f 434 507 508
f 434 508 509
f 434 509 436
f 436 509 510
f 436 510 437
f 440 511 512
f 440 512 441
f 440 453 513
f 440 513 511
f 441 512 445
f 441 445 444
f 442 464 463
f 442 463 443
f 442 447 465
f 442 465 464
f 443 463 448
f 445 512 514
f 445 514 446
f 446 514 515
f 446 515 447
f 447 515 516
f 447 516 517
f 447 517 518
f 447 518 519
f 447 519 465
f 448 462 449
f 448 463 462
f 450 461 451
f 451 461 520
f 451 520 521
f 451 521 452
f 452 521 522
f 452 522 453
f 453 522 523
f 453 523 502
f 453 502 524
f 453 524 513
f 454 525 458
f 455 520 461
f 455 461 456
f 455 460 526
f 455 526 520
f 456 461 457
f 458 525 527
f 458 527 561
f 458 561 528
f 458 528 459
f 459 528 529
f 459 529 530
f 459 530 531
f 459 531 460
f 460 531 552
f 460 552 526
f 465 519 466
f 466 519 532
f 466 532 467
f 467 532 468
f 468 481 470
f 468 470 469
f 468 532 533
f 468 533 534
f 468 534 476
f 470 481 480
f 470 480 483
f 470 483 471
f 471 483 473
f 473 482 535
f 473 535 474
f 476 492 477
f 476 534 533
f 476 533 518
f 476 518 492
f 484 486 536
f 484 536 537
f 484 537 538
f 484 538 487
f 485 492 539
f 485 539 540
f 485 540 486
f 486 540 516
f 486 516 541
f 486 541 542
f 486 542 536
f 487 543 544
f 487 544 498
f 487 498 488
f 487 538 543
f 488 498 489
f 489 498 497
f 489 497 490
f 490 497 545
f 490 545 546
f 490 546 491
f 492 518 539
f 495 547 496
f 496 547 545
f 496 545 497
f 498 544 499
f 499 544 501
f 499 501 500
f 501 544 543
f 501 543 502
f 502 548 503
f 502 543 538
f 502 538 549
f 502 549 524
f 502 523 548
f 503 548 504
f 504 548 550
f 504 550 551
f 504 551 505
f 505 551 552
f 505 552 506
f 506 552 507
f 507 552 553
f 507 553 508
f 508 553 554
f 508 554 555
f 508 555 509
f 509 555 510
f 510 555 556
f 511 513 557
f 511 557 516
f 511 516 512
f 512 516 514
f 513 524 557
f 514 558 515
f 514 516 558
f 515 558 516
f 516 557 541
f 516 540 539
f 516 539 517
f 517 539 518
f 518 533 519
f 519 533 532
f 520 526 552
f 520 552 551
f 520 551 521
f 521 551 559
f 521 559 523
f 521 523 522
f 523 559 550
f 523 550 548
f 524 560 541
f 524 541 557
f 524 549 560
f 528 561 562
f 528 562 556
f 528 556 555
f 528 555 554
f 528 554 529
f 529 554 553
f 529 553 530
f 530 553 552
f 530 552 531
f 536 542 537
f 537 549 538
f 537 542 541
f 537 541 560
f 537 560 549
f 545 547 546
f 550 559 551

