# https://github.com/mikedh/trimesh
v 7.39075195 23.97362938 29.38600279
v 7.39075195 23.97421342 29.38430225
v 7.40099622 23.98101973 29.38502309
v 7.39889078 23.97927885 29.38600279
v 7.39075195 23.99075748 29.38600279
v 7.39075195 23.97467391 29.38305969
v 7.40116266 23.98086249 29.38600279
v 7.39075195 23.97490978 29.38243044
v 7.39075195 23.97580830 29.38004091
v 7.39075195 23.97726840 29.37628934
v 7.39725136 23.98114328 29.37801777
v 7.39656064 23.98162624 29.37559239
v 7.40034711 23.98157008 29.38259771
v 7.41531821 24.00308971 29.36374429
v 7.42274136 24.00660518 29.37071774
v 7.42672754 24.00629070 29.38083344
v 7.42724350 24.00579651 29.38356946
v 7.42573724 24.00355020 29.38600279
v 7.39075195 24.01241189 29.34532099
v 7.46234531 24.07882398 29.38600279
v 7.45141032 24.08837078 29.34532099
v 7.39075195 23.98057047 29.36818086
v 7.39075195 23.98141284 29.36611790
v 7.39365630 23.98471491 29.36333807
v 7.41596732 24.00615592 29.35904886
v 7.41672462 24.00542587 29.36172912
v 7.42275800 24.01023297 29.36341772
v 7.41969554 24.00606607 29.36601435
v 7.39364797 23.98835393 29.35606593
v 7.42573724 24.00723415 29.37628934
v 7.43009792 24.01745485 29.36332214
v 7.43056395 24.01697189 29.36536918
v 7.42905769 24.00760479 29.38356946
v 7.43027268 24.00994095 29.38102460
v 7.42787597 24.00558311 29.38600279
v 7.42948210 24.00716676 29.38600279
v 7.39075195 23.99422803 29.34532099
v 7.46336057 24.07996959 29.38600279
v 7.46441746 24.08091304 29.38600279
v 7.45463922 24.08837078 29.35077311
v 7.46416780 24.08837078 29.34532099
v 7.39075195 23.98196318 29.36483153
v 7.39172562 23.98391747 29.36196409
v 7.39075195 23.98429934 29.35961438
v 7.39075195 23.98470368 29.35879397
v 7.39075195 23.98545619 29.35728459
v 7.39172562 23.98590546 29.35791781
v 7.39290733 23.98906151 29.35364055
v 7.41514346 24.00688597 29.35661950
v 7.42258324 24.01404046 29.35642834
v 7.41966226 24.00970508 29.35898912
v 7.42209225 24.01088440 29.36099235
v 7.42086893 24.00918844 29.36201586
v 7.42576221 24.01448972 29.36093659
v 7.39170897 23.98751156 29.35469195
v 7.42696889 24.01691573 29.35885769
v 7.43360976 24.02121741 29.36353322
v 7.43238645 24.01893741 29.36536918
v 7.43073039 24.00942430 29.38356946
v 7.43479979 24.02000441 29.36900525
v 7.43661398 24.02201485 29.36900525
v 7.43094676 24.00877287 29.38600279
v 7.40329306 24.00407808 29.34532099
v 7.39075195 23.99155492 29.34803311
v 7.46819561 24.08200250 29.38600279
v 7.45622038 24.08837078 29.35248959
v 7.46368513 24.08666359 29.34532099
v 7.46543274 24.08837078 29.34780610
v 7.47016789 24.07922831 29.35969005
v 7.46559917 24.08121629 29.35092046
v 7.46368513 24.08129491 29.34767069
v 7.39075195 23.98327727 29.36188842
v 7.39075195 23.98792713 29.35250951
v 7.39075195 23.98848871 29.35165724
v 7.40478269 24.00279769 29.34865041
v 7.40854419 24.00626823 29.34843136
v 7.41232233 24.00980617 29.34822427
v 7.41475233 24.01089563 29.34991686
v 7.42190084 24.01468065 29.35444502
v 7.42299934 24.01726391 29.35217098
v 7.42374831 24.01651140 29.35444502
v 7.42621992 24.01771317 29.35643232
v 7.42478022 24.01547809 29.35764302
v 7.42333221 24.01331041 29.35885769
v 7.42595361 24.02531692 29.34532099
v 7.42955700 24.02900087 29.34603387
v 7.43710497 24.02508106 29.36393546
v 7.43403419 24.02075692 29.36536918
v 7.44771540 24.02897841 29.38356946
v 7.44718279 24.02746215 29.38600279
v 7.43604809 24.02319417 29.36523775
v 7.44856423 24.03159535 29.37992940
v 7.40543179 24.00579651 29.34532099
v 7.39075195 23.98956694 29.35018369
v 7.39075195 23.99111689 29.34850305
v 7.46649793 24.08837078 29.35219090
v 7.46556588 24.08837078 29.35443706
v 7.46472537 24.08837078 29.35529729
v 7.46073085 24.08837078 29.35540482
v 7.46003181 24.08837078 29.35513002
v 7.45799295 24.08837078 29.35384764
v 7.45747699 24.08837078 29.35350514
v 7.47113323 24.08046378 29.38600279
v 7.46226209 24.08209235 29.34532099
v 7.46570735 24.08837078 29.34858668
v 7.47020951 24.08331659 29.35959447
v 7.47027608 24.08129491 29.35951084
v 7.46320246 24.07866674 29.34833180
v 7.47481983 24.07401688 29.37992940
v 7.47392940 24.07157963 29.37742039
v 7.47289748 24.07036663 29.37623757
v 7.46662277 24.07169195 29.35941127
v 7.46600694 24.07311835 29.35698191
v 7.46287790 24.07195027 29.35243782
v 7.46197914 24.08126122 29.34532099
v 7.40638049 24.00656025 29.34532099
v 7.41117391 24.01070469 29.34532099
v 7.41141524 24.01059238 29.34579890
v 7.41375370 24.01196262 29.34694189
v 7.41603390 24.01332164 29.34808489
v 7.42256659 24.02134096 29.34552410
v 7.42419769 24.02329525 29.34532099
v 7.42681077 24.02631653 29.34532099
v 7.42938223 24.02933782 29.34532099
v 7.43090514 24.03114609 29.34532099
v 7.43368466 24.03203338 29.34882564
v 7.43686363 24.03268481 29.35340159
v 7.45570442 24.05366533 29.35946305
v 7.45175151 24.04316384 29.36732063
v 7.46276140 24.05393489 29.37441356
v 7.46185431 24.05155380 29.37628934
v 7.44921334 24.03080915 29.38356946
v 7.44972930 24.03049466 29.38600279
v 7.44922999 24.02988816 29.38600279
v 7.46243684 24.05079006 29.37908908
v 7.45200117 24.03552639 29.38125957
v 7.45241727 24.03498728 29.38356946
v 7.45103584 24.03316777 29.38356946
v 7.46657283 24.08837078 29.35132669
v 7.47295573 24.07875659 29.38600279
v 7.46626492 24.08837078 29.35029122
v 7.47446199 24.07693708 29.38600279
v 7.47441206 24.07681353 29.38356946
v 7.47537741 24.07494910 29.38600279
v 7.47576022 24.07401688 29.38600279
v 7.47553552 24.07401688 29.38356946
v 7.46648961 24.08837078 29.35098419
v 7.47020951 24.08331659 29.36028345
v 7.46057273 24.07761097 29.34532099
v 7.47506118 24.07037786 29.38356946
v 7.47421234 24.07036663 29.38021614
v 7.47335519 24.06915362 29.37918865
v 7.47100008 24.06660406 29.37624951
v 7.47048412 24.06772721 29.37362103
v 7.46598198 24.06926594 29.36084499
v 7.46293616 24.06457115 29.35953075
v 7.46529126 24.07043402 29.35815278
v 7.46341883 24.07059126 29.35464415
v 7.45833414 24.07319697 29.34532099
v 7.45942432 24.07521865 29.34532099
v 7.46225376 24.06581785 29.35710537
v 7.45912473 24.06122415 29.35622125
v 7.44867241 24.05681016 29.34532099
v 7.41317948 24.01254666 29.34532099
v 7.41518507 24.01417524 29.34565951
v 7.42249170 24.02140835 29.34532099
v 7.43258618 24.03332501 29.34532099
v 7.43301059 24.03299930 29.34639628
v 7.45960740 24.06050534 29.35808508
v 7.45892500 24.05787715 29.36025558
v 7.45815939 24.05579932 29.36157380
v 7.46596533 24.05828149 29.37554859
v 7.46499167 24.05612504 29.37657211
v 7.46312756 24.05337331 29.37628934
v 7.46275308 24.06124662 29.36350932
v 7.45217594 24.03359457 29.38600279
v 7.45141864 24.03262866 29.38600279
v 7.46642304 24.05755144 29.37797795
v 7.46556588 24.05527144 29.37992940
v 7.46357695 24.05207045 29.38015242
v 7.46280301 24.05025094 29.38151445
v 7.46182935 24.04798217 29.38356946
v 7.45468083 24.03702019 29.38600279
v 7.45268357 24.03426846 29.38600279
v 7.47349665 24.07815008 29.38600279
v 7.47569364 24.07157963 29.38600279
v 7.47553552 24.07037786 29.38600279
v 7.47457018 24.06813155 29.38600279
v 7.47393771 24.06800800 29.38356946
v 7.47368805 24.06847973 29.38161800
v 7.47253132 24.06705332 29.38021614
v 7.47027608 24.06444760 29.37743632
v 7.46980173 24.06530120 29.37501094
v 7.46524133 24.06696347 29.36192426
v 7.46330232 24.06325706 29.36206764
v 7.46217886 24.06214514 29.36107996
v 7.43390104 24.03523437 29.34532099
v 7.41506024 24.01429879 29.34532099
v 7.46708879 24.05947203 29.37657211
v 7.46673095 24.06070750 29.37389184
v 7.46911101 24.06317844 29.37624951
v 7.46669767 24.05709095 29.37992940
v 7.46961032 24.06197667 29.37992940
v 7.46812071 24.05944957 29.37992940
v 7.46608184 24.05445154 29.38356946
v 7.46463382 24.05217153 29.38356946
v 7.46310259 24.04980168 29.38356946
v 7.46218719 24.04747675 29.38600279
v 7.46084736 24.04558985 29.38600279
v 7.47412911 24.06721057 29.38600279
v 7.47328861 24.06559322 29.38600279
v 7.47297238 24.06618850 29.38356946
v 7.47065888 24.06379618 29.37992940
v 7.46720529 24.05627105 29.38356946
v 7.47105001 24.06284150 29.38345794
v 7.47022615 24.06090967 29.38460094
v 7.46915263 24.05959558 29.38345794
v 7.46634814 24.05403597 29.38550099
v 7.46533287 24.05222769 29.38600279
v 7.46343547 24.04929626 29.38600279
v 7.47193214 24.06321214 29.38600279
v 7.46938564 24.05886553 29.38600279
v 7.46747992 24.05568700 29.38600279
v 7.47072547 24.06114553 29.38600279
v 7.47040922 24.06060642 29.38600279
v 7.46640639 24.05392365 29.38600279
v 7.46608184 24.05340700 29.38600279
f 1 2 3
f 1 3 4
f 1 4 7
f 1 7 18
f 1 18 35
f 1 35 36
f 1 36 62
f 1 62 90
f 1 90 134
f 1 134 133
f 1 133 177
f 1 177 176
f 1 176 184
f 1 184 183
f 1 183 209
f 1 209 208
f 1 208 220
f 1 220 219
f 1 219 227
f 1 227 226
f 1 226 223
f 1 223 222
f 1 222 225
f 1 225 224
f 1 224 221
f 1 221 211
f 1 211 210
f 1 210 188
f 1 188 187
f 1 187 186
f 1 186 145
f 1 145 144
f 1 144 142
f 1 142 185
f 1 185 140
f 1 140 103
f 1 103 65
f 1 65 39
f 1 39 38
f 1 38 20
f 1 20 5
f 1 5 19
f 1 19 37
f 1 37 64
f 1 64 95
f 1 95 94
f 1 94 74
f 1 74 73
f 1 73 46
f 1 46 45
f 1 45 44
f 1 44 72
f 1 72 42
f 1 42 23
f 1 23 22
f 1 22 10
f 1 10 9
f 1 9 8
f 1 8 6
f 1 6 2
f 2 6 3
f 3 7 4
f 3 6 8
f 3 8 9
f 3 9 10
f 3 10 11
f 3 11 12
f 3 12 13
f 3 13 14
f 3 14 15
f 3 15 16
f 3 16 17
f 3 17 18
f 3 18 7
f 5 20 21
f 5 21 19
f 10 22 12
f 10 12 11
f 12 22 23
f 12 23 24
f 12 24 13
f 13 24 14
f 14 25 26
f 14 26 27
f 14 27 28
f 14 28 15
f 14 24 29
f 14 29 25
f 15 30 16
f 15 28 27
f 15 27 31
f 15 31 32
f 15 32 30
f 16 33 17
f 16 30 32
f 16 32 34
f 16 34 33
f 17 35 18
f 17 33 36
f 17 36 35
f 19 21 41
f 19 41 67
f 19 67 104
f 19 104 115
f 19 115 149
f 19 149 160
f 19 160 159
f 19 159 163
f 19 163 197
f 19 197 167
f 19 167 125
f 19 125 124
f 19 124 123
f 19 123 85
f 19 85 122
f 19 122 166
f 19 166 198
f 19 198 164
f 19 164 117
f 19 117 116
f 19 116 93
f 19 93 63
f 19 63 37
f 20 38 21
f 21 38 39
f 21 39 40
f 21 40 66
f 21 66 102
f 21 102 101
f 21 101 100
f 21 100 99
f 21 99 98
f 21 98 97
f 21 97 96
f 21 96 139
f 21 139 147
f 21 147 141
f 21 141 105
f 21 105 68
f 21 68 41
f 23 42 24
f 24 42 43
f 24 43 44
f 24 44 45
f 24 45 46
f 24 46 47
f 24 47 29
f 25 29 48
f 25 48 49
f 25 49 50
f 25 50 51
f 25 51 52
f 25 52 26
f 26 52 53
f 26 53 27
f 27 53 52
f 27 52 54
f 27 54 31
f 29 47 55
f 29 55 48
f 31 54 56
f 31 56 57
f 31 57 58
f 31 58 32
f 32 58 34
f 33 34 59
f 33 59 36
f 34 58 60
f 34 60 61
f 34 61 59
f 36 59 62
f 37 63 64
f 39 65 66
f 39 66 40
f 41 68 69
f 41 69 70
f 41 70 71
f 41 71 67
f 42 72 43
f 43 72 44
f 46 73 55
f 46 55 47
f 48 55 73
f 48 73 74
f 48 74 75
f 48 75 76
f 48 76 49
f 49 76 77
f 49 77 78
f 49 78 79
f 49 79 50
f 50 79 80
f 50 80 81
f 50 81 82
f 50 82 83
f 50 83 84
f 50 84 51
f 51 84 52
f 52 84 54
f 54 84 56
f 56 84 83
f 56 83 82
f 56 82 57
f 57 85 86
f 57 86 87
f 57 87 88
f 57 88 58
f 57 82 85
f 58 88 60
f 59 61 89
f 59 89 90
f 59 90 62
f 60 88 61
f 61 88 91
f 61 91 87
f 61 87 92
f 61 92 89
f 63 93 94
f 63 94 95
f 63 95 64
f 65 96 97
f 65 97 98
f 65 98 99
f 65 99 100
f 65 100 101
f 65 101 102
f 65 102 66
f 65 103 96
f 67 71 104
f 68 105 106
f 68 106 107
f 68 107 69
f 69 108 70
f 69 107 109
f 69 109 110
f 69 110 111
f 69 111 112
f 69 112 113
f 69 113 114
f 69 114 108
f 70 108 71
f 71 108 115
f 71 115 104
f 74 94 116
f 74 116 117
f 74 117 75
f 75 117 118
f 75 118 76
f 76 118 77
f 77 118 119
f 77 119 78
f 78 119 120
f 78 120 79
f 79 120 80
f 80 82 81
f 80 120 121
f 80 121 82
f 82 121 122
f 82 122 85
f 85 123 86
f 86 124 125
f 86 125 87
f 86 123 124
f 87 91 88
f 87 125 126
f 87 126 127
f 87 127 128
f 87 128 129
f 87 129 130
f 87 130 131
f 87 131 92
f 89 92 132
f 89 132 133
f 89 133 134
f 89 134 90
f 92 131 135
f 92 135 136
f 92 136 137
f 92 137 138
f 92 138 132
f 93 116 94
f 96 103 140
f 96 140 139
f 105 141 106
f 106 142 143
f 106 143 144
f 106 144 145
f 106 145 146
f 106 146 109
f 106 109 107
f 106 141 147
f 106 147 139
f 106 139 148
f 106 148 142
f 108 149 115
f 108 114 149
f 109 150 110
f 109 146 150
f 110 150 151
f 110 151 152
f 110 152 111
f 111 152 153
f 111 153 154
f 111 154 112
f 112 154 155
f 112 155 156
f 112 156 157
f 112 157 113
f 113 157 158
f 113 158 114
f 114 159 160
f 114 160 149
f 114 158 161
f 114 161 162
f 114 162 163
f 114 163 159
f 117 164 118
f 118 164 119
f 119 164 165
f 119 165 120
f 120 165 166
f 120 166 121
f 121 166 122
f 125 167 168
f 125 168 126
f 126 168 127
f 127 168 128
f 128 168 162
f 128 162 169
f 128 169 170
f 128 170 171
f 128 171 130
f 128 130 129
f 130 172 173
f 130 173 174
f 130 174 131
f 130 171 175
f 130 175 172
f 131 174 135
f 132 138 176
f 132 176 177
f 132 177 133
f 135 174 178
f 135 178 179
f 135 179 180
f 135 180 181
f 135 181 182
f 135 182 183
f 135 183 184
f 135 184 137
f 135 137 136
f 137 184 176
f 137 176 138
f 139 140 185
f 139 185 142
f 139 142 148
f 142 144 143
f 145 186 146
f 146 186 150
f 150 186 187
f 150 187 188
f 150 188 189
f 150 189 190
f 150 190 151
f 151 190 152
f 152 190 191
f 152 191 192
f 152 192 153
f 153 192 193
f 153 193 194
f 153 194 155
f 153 155 154
f 155 194 156
f 156 195 175
f 156 175 196
f 156 196 162
f 156 162 161
f 156 161 157
f 156 194 195
f 157 161 158
f 162 196 169
f 162 168 167
f 162 167 197
f 162 197 163
f 164 198 165
f 165 198 166
f 169 196 170
f 170 196 175
f 170 175 171
f 172 199 178
f 172 178 173
f 172 175 200
f 172 200 199
f 173 178 174
f 175 195 201
f 175 201 200
f 178 202 179
f 178 199 192
f 178 192 203
f 178 203 204
f 178 204 202
f 179 202 205
f 179 205 206
f 179 206 180
f 180 206 181
f 181 206 207
f 181 207 182
f 182 207 208
f 182 208 209
f 182 209 183
f 188 210 189
f 189 210 211
f 189 211 190
f 190 211 212
f 190 212 191
f 191 212 213
f 191 213 192
f 192 213 203
f 192 199 201
f 192 201 193
f 193 201 195
f 193 195 194
f 199 200 201
f 202 204 214
f 202 214 205
f 203 213 215
f 203 215 216
f 203 216 217
f 203 217 204
f 204 217 214
f 205 214 218
f 205 218 206
f 206 219 207
f 206 218 219
f 207 219 220
f 207 220 208
f 211 221 215
f 211 215 213
f 211 213 212
f 214 217 222
f 214 222 223
f 214 223 218
f 215 221 216
f 216 224 225
f 216 225 222
f 216 222 217
f 216 221 224
f 218 223 226
f 218 226 227
f 218 227 219

