# https://github.com/mikedh/trimesh
v 7.20291022 24.08910931 29.55166960
v 7.20291022 24.08910931 29.57250044
v 7.20291022 24.12977518 29.56374702
v 7.25882649 24.12682086 29.59293957
v 7.26496853 24.08910931 29.58587265
v 7.20323220 24.08910931 29.57270173
v 7.20839613 24.09508829 29.57804952
v 7.20291022 24.09234939 29.57364290
v 7.20291022 24.13253166 29.56543351
v 7.24838319 24.13067642 29.58910417
v 7.25260547 24.13088304 29.59219426
v 7.25926390 24.12719893 29.59476207
v 7.26496853 24.12156287 29.59815137
v 7.26496853 24.11998020 29.59660632
v 7.26496853 24.11784359 29.59567060
v 7.26496853 24.11407156 29.59429965
v 7.26496853 24.08910931 29.60039820
v 7.21380915 24.08910931 29.57921918
v 7.20963548 24.09613022 29.57912126
v 7.20776431 24.09751506 29.57843578
v 7.20291022 24.09246369 29.57368098
v 7.21695611 24.08910931 29.58115593
v 7.21939227 24.08910931 29.58262480
v 7.20291022 24.13396486 29.56859432
v 7.24964684 24.13128311 29.59103548
v 7.24971974 24.13162162 29.59476207
v 7.25259939 24.13083908 29.59476207
v 7.25442196 24.13021041 29.59476207
v 7.25700392 24.12876842 29.59476207
v 7.24608069 24.13228107 29.59112252
v 7.25940363 24.12732203 29.59727548
v 7.26496853 24.12205525 29.60204661
v 7.26496853 24.08928956 29.60045804
v 7.26478627 24.08910931 29.60035468
v 7.22040683 24.08910931 29.58322323
v 7.22075919 24.08910931 29.58342996
v 7.21404001 24.09951098 29.58273905
v 7.21614203 24.10315112 29.58508925
v 7.21141552 24.11572017 29.58572032
v 7.20291022 24.10695833 29.57786455
v 7.20291022 24.10630768 29.57768502
v 7.20291022 24.09587084 29.57468743
v 7.20291022 24.09326382 29.57392579
v 7.20291022 24.09268351 29.57375171
v 7.20291022 24.13402201 29.56927979
v 7.23879651 24.13326145 29.59112252
v 7.24243556 24.13290095 29.59112252
v 7.25188859 24.13054013 29.59669881
v 7.24608069 24.13216237 29.59476207
v 7.25700392 24.12793752 29.59784127
v 7.26496853 24.12057809 29.60513669
v 7.26496853 24.08967204 29.60056685
v 7.26403294 24.09197571 29.60095855
v 7.26264779 24.09059527 29.60017515
v 7.26355908 24.08910931 29.60000106
v 7.21795852 24.10315112 29.58612290
v 7.22513335 24.08910931 29.58588897
v 7.21324416 24.11433094 29.58640580
v 7.21102062 24.11771170 29.58595425
v 7.20431966 24.11993623 29.58193932
v 7.20291022 24.11830960 29.58057382
v 7.20291022 24.13392529 29.57297374
v 7.23515138 24.13339773 29.59112252
v 7.24243556 24.13231624 29.59476207
v 7.24971974 24.13075115 29.59694363
v 7.24608069 24.13098416 29.59721019
v 7.26496853 24.11774687 29.60695374
v 7.24243556 24.13101493 29.59721564
v 7.24243556 24.12863653 29.59881508
v 7.26496853 24.09203726 29.60122512
v 7.26428203 24.09587084 29.60210645
v 7.26116544 24.08910931 29.59927751
v 7.26150566 24.09302203 29.60051245
v 7.25907557 24.09433213 29.60014795
v 7.22531560 24.08927198 29.58603586
v 7.22806768 24.10676929 29.59225411
v 7.22406411 24.10680885 29.59023032
v 7.22423422 24.11043581 29.59127485
v 7.21695611 24.11043581 29.58741225
v 7.22566797 24.08910931 29.58615011
v 7.22763026 24.11397923 29.59389707
v 7.21331098 24.11771170 29.58717831
v 7.21331098 24.12135624 29.58771146
v 7.21055891 24.12135624 29.58622083
v 7.20873634 24.12135624 29.58511101
v 7.20573518 24.12123315 29.58312530
v 7.20399160 24.12236739 29.58217325
v 7.20291022 24.12147055 29.58124841
v 7.20291022 24.12101333 29.58116137
v 7.20291022 24.13298448 29.57656432
v 7.23151840 24.13319990 29.59112252
v 7.23879651 24.13237339 29.59476207
v 7.26496853 24.11704786 29.60717135
v 7.23879651 24.12863653 29.59841250
v 7.23907597 24.12483372 29.59965833
v 7.23879651 24.13092261 29.59703611
v 7.26496853 24.09591480 29.60229686
v 7.26064297 24.11043581 29.60504965
v 7.26061260 24.08910931 29.59910342
v 7.25785445 24.11043581 29.60422272
v 7.25101984 24.10441726 29.60039820
v 7.25672446 24.08910931 29.59780319
v 7.23035196 24.09143056 29.58901713
v 7.22817096 24.09247688 29.58831533
v 7.22994492 24.10553832 29.59284709
v 7.23167635 24.11405837 29.59589365
v 7.22829246 24.08910931 29.58736328
v 7.22787934 24.11771170 29.59477295
v 7.22520018 24.11771170 29.59339112
v 7.21561956 24.12499639 29.58905521
v 7.21331098 24.12499639 29.58781483
v 7.22288552 24.12135624 29.59270564
v 7.21051031 24.12499639 29.58624258
v 7.20869382 24.12499639 29.58515453
v 7.20603287 24.12499639 29.58354965
v 7.20388833 24.12499639 29.58223854
v 7.20291022 24.12499639 29.58156395
v 7.20291022 24.13132268 29.57945312
v 7.21404609 24.13112484 29.58642212
v 7.21713837 24.13147654 29.58757546
v 7.22059516 24.13237779 29.58748298
v 7.23151840 24.13166998 29.59432685
v 7.23481724 24.13181067 29.59512113
v 7.22787934 24.13245692 29.59112252
v 7.26496853 24.11502116 29.60724208
v 7.24047934 24.12351043 29.60026764
v 7.23580142 24.13072917 29.59681306
v 7.23338349 24.13042583 29.59657368
v 7.23270914 24.12799907 29.59686202
v 7.23515138 24.12499639 29.59826562
v 7.26496853 24.11115241 29.60635532
v 7.26496853 24.11394846 29.60708431
v 7.26443998 24.11420345 29.60701359
v 7.26064297 24.11407156 29.60598538
v 7.25603189 24.11043581 29.60362429
v 7.24428850 24.11227786 29.60021867
v 7.23879043 24.08910931 29.59160126
v 7.24717423 24.09691276 29.59683482
v 7.23213807 24.08910931 29.58905521
v 7.23278204 24.08972479 29.58953396
v 7.23373585 24.11283620 29.59644856
v 7.23299467 24.11526296 29.59673145
v 7.23074077 24.11771170 29.59614391
v 7.22787934 24.12135624 29.59515921
v 7.22470809 24.12135624 29.59360873
v 7.21744213 24.12499639 29.58998007
v 7.21610558 24.12863653 29.58881584
v 7.21087482 24.12781882 29.58603042
v 7.22059516 24.12499639 29.59156862
v 7.22289767 24.12499639 29.59271109
v 7.20399768 24.12727367 29.58215150
v 7.20291022 24.12598556 29.58149322
v 7.20291022 24.12869368 29.58100904
v 7.20484821 24.12970044 29.58176524
v 7.21847491 24.13062366 29.58943603
v 7.21162207 24.13024558 29.58552991
v 7.22059516 24.13108527 29.58992022
v 7.22787934 24.13103252 29.59348361
v 7.26496853 24.11471781 29.60724208
v 7.24044897 24.12135624 29.60028396
v 7.23862640 24.12135624 29.59964201
v 7.22588667 24.13055772 29.59302663
v 7.22787934 24.12863653 29.59449006
v 7.23150625 24.12898384 29.59607862
v 7.23039448 24.12499639 29.59627991
v 7.23221705 24.12499639 29.59706331
v 7.23515138 24.12135624 29.59830913
v 7.24052794 24.11932954 29.60025675
v 7.24233836 24.11795350 29.60063757
v 7.24348657 24.11470463 29.60052333
v 7.23703469 24.10868168 29.59656824
v 7.23396064 24.08910931 29.58979510
v 7.23502380 24.11011048 29.59619831
v 7.23515138 24.11771170 29.59793376
v 7.23255726 24.11771170 29.59690554
v 7.24105648 24.11690278 29.60005002
v 7.23034588 24.12135624 29.59631255
v 7.22787934 24.12499639 29.59509393
v 7.21792815 24.12863653 29.58971893
v 7.21302545 24.12887393 29.58694983
v 7.22532776 24.12863653 29.59329319
v 7.20291022 24.12828483 29.58115593
f 1 2 8
f 1 8 21
f 1 21 44
f 1 44 43
f 1 43 42
f 1 42 41
f 1 41 40
f 1 40 61
f 1 61 89
f 1 89 88
f 1 88 117
f 1 117 152
f 1 152 182
f 1 182 153
f 1 153 118
f 1 118 90
f 1 90 62
f 1 62 45
f 1 45 24
f 1 24 9
f 1 9 3
f 1 3 4
f 1 4 5
f 1 5 17
f 1 17 34
f 1 34 55
f 1 55 72
f 1 72 99
f 1 99 102
f 1 102 137
f 1 137 172
f 1 172 139
f 1 139 107
f 1 107 80
f 1 80 57
f 1 57 36
f 1 36 35
f 1 35 23
f 1 23 22
f 1 22 18
f 1 18 6
f 1 6 2
f 2 6 7
f 2 7 8
f 3 9 10
f 3 10 4
f 4 10 11
f 4 11 12
f 4 12 13
f 4 13 14
f 4 14 15
f 4 15 16
f 4 16 5
f 5 16 15
f 5 15 14
f 5 14 13
f 5 13 32
f 5 32 51
f 5 51 67
f 5 67 93
f 5 93 125
f 5 125 159
f 5 159 132
f 5 132 131
f 5 131 97
f 5 97 70
f 5 70 52
f 5 52 33
f 5 33 17
f 6 18 7
f 7 19 20
f 7 20 21
f 7 21 8
f 7 18 22
f 7 22 23
f 7 23 19
f 9 24 25
f 9 25 10
f 10 25 11
f 11 26 27
f 11 27 28
f 11 28 29
f 11 29 12
f 11 25 30
f 11 30 26
f 12 29 31
f 12 31 32
f 12 32 13
f 17 33 34
f 19 23 35
f 19 35 36
f 19 36 37
f 19 37 38
f 19 38 20
f 20 39 40
f 20 40 41
f 20 41 42
f 20 42 43
f 20 43 44
f 20 44 21
f 20 38 39
f 24 45 46
f 24 46 47
f 24 47 30
f 24 30 25
f 26 48 27
f 26 30 47
f 26 47 49
f 26 49 48
f 27 48 28
f 28 31 29
f 28 48 31
f 31 48 50
f 31 50 51
f 31 51 32
f 33 52 53
f 33 53 54
f 33 54 34
f 34 54 55
f 36 56 38
f 36 38 37
f 36 57 56
f 38 56 58
f 38 58 39
f 39 58 59
f 39 59 40
f 40 60 61
f 40 59 60
f 45 62 63
f 45 63 46
f 46 63 64
f 46 64 49
f 46 49 47
f 48 49 65
f 48 65 51
f 48 51 50
f 49 64 66
f 49 66 65
f 51 65 66
f 51 66 68
f 51 68 69
f 51 69 67
f 52 70 53
f 53 71 54
f 53 70 71
f 54 72 55
f 54 71 73
f 54 73 74
f 54 74 72
f 56 57 75
f 56 75 76
f 56 76 77
f 56 77 78
f 56 78 79
f 56 79 58
f 57 80 75
f 58 79 78
f 58 78 81
f 58 81 82
f 58 82 59
f 59 82 83
f 59 83 84
f 59 84 85
f 59 85 86
f 59 86 60
f 60 87 88
f 60 88 89
f 60 89 61
f 60 86 87
f 62 90 91
f 62 91 63
f 63 91 92
f 63 92 64
f 64 92 66
f 66 92 68
f 67 69 94
f 67 94 95
f 67 95 93
f 68 92 96
f 68 96 69
f 69 96 94
f 70 97 71
f 71 98 73
f 71 97 98
f 72 74 99
f 73 98 100
f 73 100 74
f 74 100 101
f 74 101 102
f 74 102 99
f 75 80 103
f 75 103 104
f 75 104 105
f 75 105 76
f 76 105 106
f 76 106 81
f 76 81 78
f 76 78 77
f 80 107 103
f 81 108 109
f 81 109 82
f 81 106 108
f 82 109 83
f 83 110 111
f 83 111 84
f 83 109 112
f 83 112 110
f 84 113 114
f 84 114 115
f 84 115 85
f 84 111 113
f 85 115 116
f 85 116 87
f 85 87 86
f 87 116 117
f 87 117 88
f 90 118 119
f 90 119 120
f 90 120 121
f 90 121 91
f 91 122 123
f 91 123 92
f 91 121 124
f 91 124 122
f 92 123 96
f 93 95 126
f 93 126 125
f 94 96 127
f 94 127 128
f 94 128 95
f 95 128 129
f 95 129 130
f 95 130 126
f 96 123 127
f 97 131 98
f 98 131 132
f 98 132 133
f 98 133 134
f 98 134 100
f 100 135 101
f 100 134 136
f 100 136 135
f 101 135 136
f 101 136 137
f 101 137 138
f 101 138 102
f 102 138 137
f 103 105 104
f 103 107 139
f 103 139 140
f 103 140 105
f 105 140 141
f 105 141 106
f 106 141 142
f 106 142 143
f 106 143 108
f 108 143 144
f 108 144 145
f 108 145 112
f 108 112 109
f 110 146 147
f 110 147 111
f 110 112 146
f 111 147 148
f 111 148 113
f 112 149 146
f 112 145 150
f 112 150 149
f 113 148 151
f 113 151 114
f 114 151 115
f 115 151 116
f 116 151 117
f 117 151 152
f 118 153 154
f 118 154 119
f 119 155 120
f 119 154 156
f 119 156 155
f 120 155 157
f 120 157 122
f 120 122 124
f 120 124 121
f 122 128 123
f 122 157 158
f 122 158 128
f 123 128 127
f 125 126 160
f 125 160 159
f 126 130 161
f 126 161 160
f 128 158 162
f 128 162 163
f 128 163 164
f 128 164 129
f 129 164 163
f 129 163 165
f 129 165 166
f 129 166 130
f 130 167 161
f 130 166 167
f 132 159 133
f 133 159 134
f 134 159 160
f 134 160 168
f 134 168 169
f 134 169 170
f 134 170 136
f 136 170 141
f 136 141 171
f 136 171 137
f 137 171 140
f 137 140 172
f 139 172 140
f 140 171 173
f 140 173 141
f 141 173 171
f 141 170 142
f 142 174 175
f 142 175 143
f 142 170 176
f 142 176 168
f 142 168 174
f 143 177 144
f 143 175 177
f 144 177 165
f 144 165 178
f 144 178 150
f 144 150 145
f 146 149 147
f 147 149 150
f 147 150 179
f 147 179 155
f 147 155 180
f 147 180 148
f 148 180 151
f 150 178 181
f 150 181 179
f 151 182 152
f 151 180 182
f 153 182 180
f 153 180 154
f 154 180 155
f 154 155 156
f 155 179 181
f 155 181 162
f 155 162 158
f 155 158 157
f 160 161 168
f 161 167 168
f 162 181 163
f 163 181 165
f 165 181 178
f 165 177 166
f 166 177 167
f 167 177 175
f 167 175 168
f 168 175 174
f 168 176 170
f 168 170 169

