# https://github.com/mikedh/trimesh
v -0.45069158 1.01165817 0.19065388
v -0.45069158 1.01127614 0.17065136
v -0.47062736 1.01098953 0.17065136
v -0.47062736 1.01108506 0.19065388
v -0.45069158 1.01108506 0.21065639
v -0.17052022 1.01108506 0.21065639
v 0.28960841 1.01098953 0.21065639
v 0.30967799 1.01146710 0.19065388
v 0.02950662 1.01118060 0.17065136
v -0.47062736 1.00984331 0.15064885
v 0.46969944 1.00984331 0.15064885
v -0.49069696 1.00812399 0.15064885
v -0.49069696 1.00907925 0.17065136
v -0.49069696 1.00917479 0.19065388
v -0.47062736 1.01051196 0.21065639
v -0.45069158 1.00984331 0.23065890
v -0.43062201 1.00993885 0.23065890
v -0.17052022 1.00993885 0.23065890
v 0.22953345 1.00984331 0.23065890
v 0.42969409 1.00965236 0.23065890
v 0.42969409 1.01070303 0.21065639
v 0.42969409 1.01118060 0.19065388
v 0.44962987 1.01098953 0.17065136
v -0.47062736 1.00745547 0.13060314
v -0.49069696 1.00611818 0.13060314
v 0.46969944 1.00774196 0.13060314
v 0.46969944 1.01070303 0.17065136
v 0.48976905 1.00841060 0.15064885
v -0.50648504 1.00277507 0.13060314
v -0.51183689 1.00325264 0.15181531
v -0.51063271 1.00468547 0.17065136
v -0.51063271 1.00497196 0.19065388
v -0.51063271 1.00449439 0.21065639
v -0.49069696 1.00860156 0.21065639
v -0.47062736 1.00917479 0.23065890
v -0.45069158 1.00802857 0.25070461
v -0.41068623 1.00802857 0.25070461
v 0.44962987 1.00783750 0.25070461
v 0.44962987 1.00955682 0.23065890
v 0.44962987 1.01060749 0.21065639
v 0.44962987 1.01108506 0.19065388
v -0.46995838 1.00506750 0.11837699
v -0.49123214 1.00420790 0.11837699
v 0.46969944 1.00573614 0.11837699
v -0.50394286 1.00191547 0.11837699
v 0.48976905 1.00630925 0.13060314
v 0.48187499 1.00506750 0.11837699
v 0.46969944 1.01060749 0.19065388
v 0.48976905 1.00917479 0.17065136
v 0.50970479 1.00506750 0.17065136
v 0.51117656 1.00363479 0.15043285
v 0.50609231 1.00287061 0.13060314
v -0.50862576 1.00048270 0.11837699
v -0.51290730 0.99914547 0.11837699
v -0.51651979 0.99962304 0.13060314
v -0.51919574 1.00048270 0.14589663
v -0.52106892 1.00105587 0.15924606
v -0.52173792 1.00134236 0.17065136
v -0.52227310 1.00153344 0.19065388
v -0.52173792 1.00134236 0.21065639
v -0.52106892 1.00105587 0.22193210
v -0.51143553 1.00296615 0.22944924
v -0.49069696 1.00726439 0.23065890
v -0.47062736 1.00716885 0.25070461
v -0.45069158 1.00573614 0.27070713
v -0.43062201 1.00583168 0.27070713
v 0.42969409 1.00564061 0.27070713
v 0.44962987 1.00325264 0.29070964
v 0.46969944 1.00497196 0.27070713
v 0.46969944 1.00716885 0.25070461
v 0.46969944 1.00898371 0.23065890
v 0.46969944 1.01012993 0.21065639
v 0.49980382 1.00277507 0.11837699
v 0.49030422 1.00439885 0.11837699
v 0.48976905 1.00898371 0.19065388
v 0.50970479 1.00506750 0.19065388
v 0.52161278 1.00162886 0.19065388
v 0.52134519 1.00162886 0.17065136
v 0.52054236 1.00134236 0.15699955
v 0.51880300 1.00067372 0.14365015
v 0.50328254 1.00201101 0.11837699
v 0.51612711 0.99981412 0.13060314
v -0.53070231 0.99236378 0.11837699
v -0.53070231 0.99408305 0.13060314
v -0.52882918 0.99713966 0.15181531
v -0.53177266 0.99742615 0.17065136
v -0.53230790 0.99780824 0.19065388
v -0.53177266 0.99761723 0.21065639
v -0.52120269 0.98109278 0.38225461
v -0.51852679 1.00029169 0.23528150
v -0.52896295 0.99733061 0.22944924
v -0.53070231 0.99408305 0.25070461
v -0.51531566 0.99943203 0.25070461
v -0.50233732 1.00143790 0.26470205
v -0.50528086 1.00220196 0.25070461
v -0.49069696 1.00506750 0.25070461
v -0.48521126 1.00162886 0.28617343
v -0.47865521 1.00076926 0.29947964
v -0.47062736 1.00487642 0.27070713
v -0.46540928 1.00124682 0.30358382
v -0.45069158 1.00334818 0.29070964
v -0.43062201 1.00162886 0.30608954
v -0.15045063 1.00162886 0.30630555
v -0.13051485 1.00162886 0.30630555
v -0.03043453 1.00344372 0.29070964
v 0.42969409 1.00334818 0.29070964
v 0.44962987 1.00153344 0.30531191
v 0.47103742 1.00229750 0.29235131
v 0.47853006 1.00086479 0.30012767
v 0.46515034 1.00124682 0.30345422
v 0.48455094 1.00172439 0.28682146
v 0.48976905 1.00516304 0.25070461
v 0.48976905 1.00716885 0.23065890
v 0.48976905 1.00841060 0.21065639
v 0.50970479 1.00449439 0.21065639
v 0.52094378 1.00134236 0.21065639
v 0.53097858 0.99752169 0.21065639
v 0.53164758 0.99771276 0.19065388
v 0.53137999 0.99752169 0.17065136
v 0.52830263 0.99723513 0.15043285
v 0.52977440 0.99408305 0.13060314
v 0.51224698 0.99914547 0.11837699
v 0.52977440 0.99217277 0.11837699
v 0.52442249 0.99436966 0.11837699
v -0.53779357 0.98902074 0.11837699
v -0.54903255 0.98529554 0.13060314
v -0.55264503 0.98586865 0.14896397
v -0.55077191 0.98892520 0.17065136
v -0.55077191 0.98968932 0.19065388
v -0.55077191 0.98940277 0.21065639
v -0.55077191 0.98797006 0.23065890
v -0.52923054 0.96428184 0.49077796
v -0.51839297 0.98032871 0.39560402
v -0.54782837 0.98434034 0.27070713
v -0.54515242 0.98300317 0.29070964
v -0.54087093 0.98099730 0.32121023
v -0.53926534 0.96036568 0.49077796
v -0.51063271 0.99580237 0.29070964
v -0.51063271 0.97039494 0.49077796
v -0.50180215 0.98118832 0.42295087
v -0.49069696 0.97497973 0.49077796
v -0.49845719 1.00057818 0.27805146
v -0.49136593 1.00000513 0.29196250
v -0.47062736 0.97755872 0.49077796
v -0.47143015 1.00000513 0.31040974
v -0.45069158 0.99847683 0.33071466
v -0.45069158 1.00153344 0.30561432
v -0.21052558 0.99866790 0.33071466
v -0.43062201 1.00038722 0.31611240
v 0.16959230 0.97918250 0.49077796
v -0.07043990 0.99866790 0.33071466
v -0.09050949 1.00162886 0.30626235
v 0.34968334 0.97918250 0.49077796
v 0.42969409 0.99608898 0.35067397
v 0.44962987 0.99847683 0.33071466
v -0.07043990 1.00162886 0.30621915
v -0.05050412 1.00162886 0.30617594
v 0.46969944 0.99771276 0.33071466
v 0.46969944 0.97765425 0.49077796
v 0.48976905 0.97507527 0.49077796
v 0.48976905 0.99542034 0.33071466
v 0.49070561 1.00010061 0.29235131
v 0.49070561 1.00267965 0.27131195
v 0.49793066 1.00067372 0.27839708
v 0.50167700 1.00143790 0.26504767
v 0.50475431 1.00229750 0.25070461
v 0.51050762 1.00296615 0.22966526
v 0.52027477 1.00115129 0.22232092
v 0.52803504 0.99733061 0.22966526
v 0.54971017 0.98768345 0.23065890
v 0.54971017 0.98921170 0.21065639
v 0.54971017 0.98959385 0.19065388
v 0.54971017 0.98892520 0.17065136
v 0.55144953 0.98586865 0.14961201
v 0.54770323 0.98520006 0.13060314
v 0.54583004 0.98424487 0.11837699
v 0.53887261 0.98768345 0.11837699
v -0.54729319 0.98443588 0.11837699
v -0.56053912 0.98090182 0.14123081
v -0.56187707 0.98166588 0.15453704
v -0.56308125 0.98243007 0.17065136
v -0.56375025 0.98281210 0.19065388
v -0.56361643 0.98281210 0.21065639
v -0.56254607 0.98204798 0.23065890
v -0.56134189 0.98128385 0.24357629
v -0.55210986 0.98491345 0.25040220
v -0.52548423 0.96284913 0.50512101
v -0.54073711 0.96093879 0.48075510
v -0.55077191 0.95444366 0.49077796
v -0.56415160 0.94326819 0.50512101
v -0.50982994 0.96456845 0.51138530
v -0.49069696 0.96886669 0.51078046
v -0.47062736 0.97115912 0.51078046
v -0.45069158 0.97201872 0.51078046
v -0.45069158 0.97832284 0.49077796
v -0.41068623 0.97851386 0.49077796
v -0.43062201 0.99857236 0.33071466
v 0.04944240 0.97908696 0.49077796
v 0.06951199 0.97354697 0.51078046
v 0.08944777 0.97354697 0.51078046
v 0.36961914 0.97345149 0.51078046
v 0.42969409 0.97899142 0.49077796
v 0.44962987 0.97860939 0.49077796
v 0.46969944 0.97173217 0.51078046
v 0.49686028 0.98051967 0.43712111
v 0.48976905 0.96915319 0.51078046
v 0.50903585 0.96456845 0.51138530
v 0.52455632 0.96275359 0.50512101
v 0.50970479 0.97039494 0.49077796
v 0.50100800 0.98128385 0.42377171
v 0.50970479 0.99599344 0.29070964
v 0.50890203 0.99866790 0.27131195
v 0.51465534 0.99952750 0.25070461
v 0.51773265 1.00038722 0.23567033
v 0.52977440 0.99169520 0.27070713
v 0.52977440 0.99417858 0.25070461
v 0.55104818 0.98481797 0.24975417
v 0.56014639 0.98118832 0.24249624
v 0.56135057 0.98185696 0.23065890
v 0.54663287 0.98434034 0.27070713
v 0.56255469 0.98262108 0.21065639
v 0.56268851 0.98271656 0.19065388
v 0.56201951 0.98233453 0.17065136
v 0.56094916 0.98166588 0.15561708
v 0.55934356 0.98071075 0.14231086
v 0.54971017 0.98214351 0.11837699
v -0.55732793 0.97899142 0.11837699
v -0.57070769 0.97211426 0.13060314
v -0.58355220 0.96313568 0.13060314
v -0.58569298 0.96466393 0.15064885
v -0.56936968 0.97583940 0.14896397
v -0.57177804 0.96934426 0.11837699
v -0.57311605 0.97574386 0.17065136
v -0.57378499 0.97631696 0.19065388
v -0.57365123 0.97631696 0.21065639
v -0.57258087 0.97555284 0.23065890
v -0.56067289 0.96093879 0.40052905
v -0.55946871 0.96027020 0.41072471
v -0.56910209 0.97536183 0.25040220
v -0.58194667 0.96179845 0.29070964
v -0.57953831 0.96017467 0.31507555
v -0.53163890 0.95683156 0.51138530
v -0.51585084 0.95931501 0.51847042
v -0.55103950 0.94718440 0.51138530
v -0.56669379 0.94498751 0.49077796
v -0.55799694 0.93906548 0.51847042
v -0.57672853 0.93782373 0.49077796
v -0.58542539 0.92502454 0.50719470
v -0.57231322 0.93199724 0.51285417
v -0.50260491 0.96141636 0.52127855
v -0.49069696 0.96237156 0.52222901
v -0.47062736 0.96342223 0.52322264
v -0.45069158 0.96389980 0.52365465
v -0.43062201 0.96409088 0.52382748
v -0.43062201 0.97220980 0.51078046
v -0.41068623 0.97230527 0.51078046
v -0.09050949 0.97316494 0.51078046
v -0.33054167 0.97870493 0.49077796
v -0.05050412 0.97899142 0.49077796
v 0.06951199 0.96495048 0.52430269
v -0.09050949 0.96466393 0.52417307
v 0.08944777 0.96495048 0.52430269
v 0.36961914 0.96475946 0.52417307
v 0.38968871 0.96475946 0.52412989
v 0.38968871 0.97335595 0.51078046
v 0.40962449 0.97326047 0.51078046
v 0.42969409 0.97306940 0.51078046
v 0.44962987 0.97268737 0.51078046
v 0.46969944 0.96389980 0.52343865
v 0.48976905 0.96265805 0.52244501
v 0.50194459 0.96151190 0.52140817
v 0.51532429 0.95941048 0.51847042
v 0.53071099 0.95702264 0.51138530
v 0.55037918 0.94737541 0.51164451
v 0.53793601 0.96017467 0.49462294
v 0.52014101 0.98109278 0.38186580
v 0.53071099 0.96361325 0.48909308
v 0.53994296 0.98099730 0.32146944
v 0.54128097 0.98176142 0.31071215
v 0.54114714 0.96160738 0.47077545
v 0.55827320 0.96007913 0.41413766
v 0.55974497 0.96093879 0.40078826
v 0.57125155 0.97545736 0.23065890
v 0.54783705 0.95587642 0.48909308
v 0.57245573 0.97622143 0.21065639
v 0.57272332 0.97631696 0.19065388
v 0.57205431 0.97583940 0.17065136
v 0.56844177 0.97574386 0.14961201
v 0.55760420 0.97975561 0.13060314
v 0.56977978 0.97173217 0.13060314
v 0.55586484 0.97870493 0.11837699
v -0.58221426 0.96208500 0.11837699
v -0.58703092 0.95826433 0.11837699
v -0.59358701 0.95511224 0.13060314
v -0.59572778 0.95673602 0.15064885
v -0.59719955 0.95807331 0.17065136
v -0.58729851 0.96571466 0.17065136
v -0.58810134 0.96628777 0.19065388
v -0.58823510 0.96628777 0.21065639
v -0.58729851 0.96561912 0.23065890
v -0.58555915 0.96437737 0.25070461
v -0.57793271 0.95912399 0.33071466
v -0.59559395 0.95673602 0.25070461
v -0.58127767 0.94126237 0.44351501
v -0.54461724 0.94307717 0.52253139
v -0.53070231 0.94632474 0.52473470
v -0.57860172 0.93935197 0.47077545
v -0.58047490 0.92063075 0.52054413
v -0.56709514 0.92569312 0.52382748
v -0.58863652 0.92779453 0.49077796
v -0.59853749 0.91881590 0.49077796
v -0.60495975 0.90563461 0.50732432
v -0.59305183 0.91308494 0.51393422
v -0.49069696 0.95090954 0.52974613
v -0.50982994 0.95196021 0.52603078
v -0.47062736 0.95090954 0.53151743
v -0.45069158 0.95090954 0.53225185
v -0.43062201 0.95090954 0.53251106
v -0.41068623 0.95090954 0.53255427
v -0.07043990 0.96466393 0.52421628
v 0.04944240 0.95090954 0.53324549
v 0.06951199 0.95090954 0.53324549
v 0.30967799 0.95090954 0.53315910
v 0.34968334 0.95090954 0.53307269
v 0.36961914 0.95090954 0.53302948
v 0.40962449 0.96466393 0.52404348
v 0.42969409 0.96456845 0.52391386
v 0.44962987 0.96428184 0.52374106
v 0.44962987 0.95090954 0.53216544
v 0.46969944 0.95090954 0.53160381
v 0.48976905 0.95090954 0.52991896
v 0.50903585 0.95205575 0.52611716
v 0.52977440 0.94661129 0.52495073
v 0.54422451 0.94326819 0.52274743
v 0.55747044 0.93935197 0.51885925
v 0.56322369 0.94336372 0.50550984
v 0.53980920 0.96093879 0.48127352
v 0.56589964 0.94517852 0.49077796
v 0.55118194 0.95644953 0.47077545
v 0.58396230 0.96409088 0.25070461
v 0.58570166 0.96542805 0.23065890
v 0.58677201 0.96619223 0.21065639
v 0.58690584 0.96628777 0.19065388
v 0.58623684 0.96581014 0.17065136
v 0.58449748 0.96466393 0.15064885
v 0.57071637 0.96886669 0.11837699
v 0.58088493 0.96179845 0.11837699
v -0.59117864 0.95492123 0.11837699
v -0.60402316 0.94403237 0.11837699
v -0.60509358 0.94508305 0.13060314
v -0.60669911 0.94670683 0.15064885
v -0.60803712 0.94804400 0.17065136
v -0.59813614 0.95874190 0.19065388
v -0.59826990 0.95883738 0.21065639
v -0.59719955 0.95807331 0.23065890
v -0.60388940 0.94393683 0.29070964
v -0.60121344 0.94145339 0.32393195
v -0.59224906 0.92779453 0.46986821
v -0.60107968 0.92120386 0.46256708
v -0.53070231 0.93094656 0.53289989
v -0.55103950 0.93180616 0.52663558
v -0.57258087 0.91270285 0.52797487
v -0.60067827 0.90076326 0.52067372
v -0.58729851 0.90735387 0.52421628
v -0.60776953 0.90878670 0.49077796
v -0.61780433 0.89684711 0.49077796
v -0.62288858 0.88414333 0.50490500
v -0.61191725 0.89245333 0.51281097
v -0.49069696 0.93266588 0.53834334
v -0.50929476 0.92913170 0.53730650
v -0.47062736 0.93457616 0.53907776
v -0.45069158 0.93553130 0.53938018
v -0.43062201 0.93600893 0.53950980
v -0.31060590 0.93658204 0.53963939
v 0.00943704 0.93696413 0.53972580
v 0.28960841 0.93686859 0.53981218
v 0.36961914 0.93658204 0.53959618
v 0.38968871 0.95090954 0.53285669
v 0.34968334 0.93667751 0.53968259
v 0.42969409 0.95090954 0.53251106
v 0.42969409 0.93591345 0.53938018
v 0.44962987 0.93543582 0.53925056
v 0.46969944 0.93467170 0.53894817
v 0.48976905 0.93276136 0.53825692
v 0.50836685 0.92913170 0.53739288
v 0.52977440 0.93094656 0.53328869
v 0.55037918 0.93199724 0.52689482
v 0.56616723 0.92607521 0.52400027
v 0.57954699 0.92072629 0.52058733
v 0.57138531 0.93228373 0.51307018
v 0.58463124 0.92512001 0.50723790
v 0.57593444 0.93801480 0.49077796
v 0.58021593 0.94126237 0.44303979
v 0.58128635 0.94212197 0.43072722
v 0.59573640 0.95750021 0.23065890
v 0.59680681 0.95845535 0.21065639
v 0.59694058 0.95855088 0.19065388
v 0.59627164 0.95788224 0.17065136
v 0.59453228 0.95635399 0.15064885
v 0.59225768 0.95453913 0.13060314
v 0.58984932 0.95415710 0.11837699
v -0.61405796 0.93381204 0.11837699
v -0.61512838 0.93495825 0.13060314
v -0.61673391 0.93667751 0.15064885
v -0.60870612 0.94880818 0.19065388
v -0.61807192 0.93801480 0.17065136
v -0.60870612 0.94880818 0.21065639
v -0.60803712 0.94804400 0.23065890
v -0.60669911 0.94670683 0.25070461
v -0.60536117 0.94527406 0.27070713
v -0.61673391 0.93658204 0.25070461
v -0.61526214 0.93514927 0.27070713
v -0.61338902 0.90916873 0.45042732
v -0.60776953 0.91241630 0.46986821
v -0.62302241 0.92359177 0.29070964
v -0.62168440 0.92196798 0.31071215
v -0.62088163 0.92110832 0.32185826
v -0.55077191 0.91088805 0.53583762
v -0.53230790 0.91079252 0.53929376
v -0.59265041 0.89283536 0.52797487
v -0.56923592 0.88939678 0.53739288
v -0.61887468 0.87793475 0.51825441
v -0.62288858 0.86456239 0.52248822
v -0.60549493 0.88739090 0.52387068
v -0.62021263 0.90019015 0.45690761
v -0.61927610 0.89885292 0.47077545
v -0.62609971 0.88891915 0.47077545
v -0.62462794 0.88681779 0.49077796
v -0.64001464 0.85940455 0.49587579
v -0.64309195 0.84603219 0.50563944
v -0.62690254 0.87115307 0.51125571
v -0.50166832 0.92129934 0.54089223
v -0.49069696 0.92263657 0.54123785
v -0.51491425 0.91747873 0.54011460
v -0.47062736 0.92454697 0.54171307
v -0.45069158 0.85854489 0.55972831
v -0.43102339 0.85969104 0.55972831
v -0.29053632 0.92664832 0.54227470
v -0.27060055 0.92655278 0.54231790
v 0.02950662 0.93686859 0.53976901
v 0.34968334 0.86055076 0.55972831
v 0.39035769 0.86055076 0.55972831
v 0.41002591 0.86026415 0.55972831
v 0.42969409 0.92588414 0.54210190
v 0.44962987 0.92540657 0.54197231
v 0.46969944 0.92464244 0.54179948
v 0.48976905 0.92273211 0.54132427
v 0.50074041 0.92129934 0.54089223
v 0.51412010 0.91766968 0.54020101
v 0.52977440 0.91356251 0.53912097
v 0.54783705 0.90897766 0.53709046
v 0.57165290 0.91279833 0.52823408
v 0.58971555 0.90573009 0.52348185
v 0.59975035 0.90085874 0.52080334
v 0.59065215 0.91566387 0.51263817
v 0.58784237 0.92798549 0.49077796
v 0.60309525 0.90458394 0.51078046
v 0.59774341 0.91900697 0.49077796
v 0.60082071 0.94183548 0.31071215
v 0.60523602 0.94613372 0.25070461
v 0.60657403 0.94747089 0.23065890
v 0.60737679 0.94842609 0.21065639
v 0.60751056 0.94852163 0.19065388
v 0.60684162 0.94785304 0.17065136
v 0.60536985 0.94642022 0.15064885
v 0.60349666 0.94450994 0.13060314
v 0.60229248 0.94336372 0.11837699
v 0.59787717 0.94727994 0.11837699
v -0.62315617 0.92378278 0.11837699
v -0.62422659 0.92492900 0.13060314
v -0.62556453 0.92664832 0.15064885
v -0.61874086 0.93868339 0.19065388
v -0.62663489 0.92808103 0.17065136
v -0.61874086 0.93868339 0.21065639
v -0.61793809 0.93791927 0.23065890
v -0.62543077 0.92655278 0.25070461
v -0.62422659 0.92512001 0.27070713
v -0.62114922 0.90133637 0.44355821
v -0.62195199 0.90238704 0.43072722
v -0.63426139 0.91193873 0.27070713
v -0.55077191 0.89617846 0.53985539
v -0.54006811 0.90038117 0.54071943
v -0.61164966 0.87115307 0.52659240
v -0.58877028 0.86895618 0.53687446
v -0.56160948 0.88175543 0.54097864
v -0.57485541 0.87430510 0.53959618
v -0.63680351 0.85195422 0.51168771
v -0.63934564 0.83743564 0.51894566
v -0.62623353 0.85090354 0.52482111
v -0.62636730 0.89245333 0.45042732
v -0.62984608 0.89092508 0.43072722
v -0.63867664 0.87726617 0.43072722
v -0.63747252 0.87506928 0.45072973
v -0.63613451 0.87277685 0.47077545
v -0.63546551 0.86914725 0.48982752
v -0.64095123 0.86131483 0.48252638
v -0.64429613 0.85195422 0.48982752
v -0.65232398 0.83084503 0.49077796
v -0.66021801 0.79770077 0.49635101
v -0.64550031 0.83084503 0.51168771
v -0.49069696 0.84889767 0.55972831
v -0.47062736 0.85529732 0.55972831
v -0.37068085 0.85988212 0.55972831
v 0.42969409 0.85978658 0.55972831
v 0.44762292 0.85864037 0.55972831
v 0.44962987 0.85844935 0.55972831
v 0.46474896 0.85606144 0.55972831
v 0.46969944 0.85481969 0.55972831
v 0.48321296 0.85042591 0.55972831
v 0.48816345 0.84822908 0.55972831
v 0.53994296 0.90104981 0.54084905
v 0.55332272 0.89570089 0.53972580
v 0.56870936 0.88977887 0.53773850
v 0.58971555 0.89092508 0.53030776
v 0.60376425 0.89092508 0.52330906
v 0.61834813 0.87879441 0.51907525
v 0.61353146 0.89111604 0.51177413
v 0.59894759 0.92015319 0.47561407
v 0.60001794 0.92110832 0.46226466
v 0.60684162 0.90897766 0.49077796
v 0.62236208 0.88452543 0.50572584
v 0.60082071 0.92196798 0.45072973
v 0.61527082 0.93600893 0.25070461
v 0.61660877 0.93744170 0.23065890
v 0.61741159 0.93839684 0.21065639
v 0.61754536 0.93849237 0.19065388
v 0.61687636 0.93772819 0.17065136
v 0.61540459 0.93619995 0.15064885
v 0.61353146 0.93419413 0.13060314
v 0.60617261 0.93935197 0.11837699
v -0.63385997 0.90993286 0.11837699
v -0.63412756 0.91193873 0.13060314
v -0.63559933 0.91356251 0.15064885
v -0.62703630 0.92874967 0.19065388
v -0.63666969 0.91489974 0.17065136
v -0.62703630 0.92874967 0.21065639
v -0.62636730 0.92789001 0.23065890
v -0.63640210 0.91480421 0.23065890
v -0.63546551 0.91337144 0.25070461
v -0.64081741 0.90104981 0.28155082
v -0.63225438 0.89092508 0.41072471
v -0.64148641 0.90190948 0.27070713
v -0.51210448 0.83170469 0.55972831
v -0.61071307 0.85090354 0.53311590
v -0.58074249 0.86102833 0.54080585
v -0.59358701 0.85090354 0.53907776
v -0.53016713 0.81212375 0.55972831
v -0.64175400 0.82406334 0.52179697
v -0.63198679 0.83084503 0.52659240
v -0.63988082 0.87927198 0.41072471
v -0.64416236 0.86723685 0.43072722
v -0.64295818 0.86504002 0.45072973
v -0.64175400 0.86274765 0.47077545
v -0.64710590 0.85090354 0.47077545
v -0.65473234 0.83084503 0.47077545
v -0.66021801 0.81842787 0.45526594
v -0.65928142 0.81489375 0.47077545
v -0.65834489 0.80954483 0.49012993
v -0.66102078 0.80199902 0.48300161
v -0.66209119 0.79091903 0.49012993
v -0.66142219 0.78432836 0.50222649
v -0.65152121 0.81088200 0.51078046
v 0.49150841 0.84593671 0.55972831
v 0.56135057 0.88232853 0.54106506
v 0.57473026 0.87535583 0.53985539
v 0.58824378 0.86952928 0.53739288
v 0.61098934 0.87163064 0.52711082
v 0.62222826 0.86542211 0.52274743
v 0.63868532 0.83810429 0.51933446
v 0.63627696 0.85224077 0.51190372
v 0.62650980 0.87163064 0.51177413
v 0.61968613 0.92072629 0.31982777
v 0.61687636 0.89713360 0.49077796
v 0.64243163 0.84650976 0.50602827
v 0.63935432 0.85988212 0.49587579
v 0.62423521 0.88719989 0.49077796
v 0.62289726 0.92454697 0.27070713
v 0.62410144 0.92607521 0.25070461
v 0.62530562 0.92750792 0.23065890
v 0.62610839 0.92836758 0.21065639
v 0.62610839 0.92846312 0.19065388
v 0.62543939 0.92779453 0.17065136
v 0.62423521 0.92626623 0.15064885
v 0.62262967 0.92426035 0.13060314
v 0.61232728 0.93295238 0.11837699
v 0.62155932 0.92292312 0.11837699
v -0.63921188 0.90276914 0.11837699
v -0.64081741 0.90095428 0.12019146
v -0.64148641 0.90190948 0.13060314
v -0.64255677 0.90362874 0.15064885
v -0.63707110 0.91556833 0.19065388
v -0.64335960 0.90487049 0.17065136
v -0.63707110 0.91556833 0.21065639
v -0.64335960 0.90477495 0.23065890
v -0.64242300 0.90343772 0.25070461
v -0.64054982 0.88041820 0.39854176
v -0.64991562 0.89092508 0.25070461
v -0.64804250 0.89092508 0.27070713
v -0.60924130 0.82998537 0.53769530
v -0.63078261 0.81088200 0.53151743
v -0.59786849 0.83609847 0.54028743
v -0.54635660 0.78719389 0.55972831
v -0.64349336 0.81088200 0.52335223
v -0.65834489 0.87564238 0.25070461
v -0.65459852 0.87086657 0.31071215
v -0.65714071 0.86952928 0.29209210
v -0.66061942 0.86064624 0.29965245
v -0.65727447 0.85233631 0.37071969
v -0.65379575 0.85090354 0.41072471
v -0.64951427 0.85090354 0.45072973
v -0.65941524 0.83648050 0.41072471
v -0.65834489 0.83313740 0.43072722
v -0.66088701 0.82129335 0.44191653
v -0.66637268 0.81088200 0.41072471
v -0.66168978 0.80495997 0.47077545
v -0.66623891 0.79082349 0.45072973
v -0.66423191 0.79082349 0.47077545
v -0.66436573 0.77086052 0.49077796
v -0.65673929 0.77086052 0.51376140
v -0.65633788 0.79091903 0.50965721
v -0.66209119 0.77086052 0.50373856
v 0.50943720 0.83046294 0.55972831
v 0.58061734 0.86198347 0.54097864
v 0.51197939 0.82778848 0.55972831
v 0.52576050 0.81298341 0.55972831
v 0.59386327 0.85090354 0.53946659
v 0.60978516 0.85090354 0.53385032
v 0.62584080 0.85090354 0.52516673
v 0.64109368 0.82473199 0.52196980
v 0.64497381 0.83122712 0.51190372
v 0.62075649 0.90200495 0.43072722
v 0.65193125 0.83084503 0.49077796
v 0.64711458 0.87086657 0.37071969
v 0.64390340 0.86886064 0.41072471
v 0.63868532 0.87879441 0.41072471
v 0.63507283 0.86905171 0.48982752
v 0.64336822 0.85224077 0.48982752
v 0.65233266 0.85090354 0.41072471
v 0.63534042 0.87249036 0.47077545
v 0.64015709 0.88146887 0.38398269
v 0.63922050 0.89990360 0.29070964
v 0.62196067 0.90362874 0.41072471
v 0.63413624 0.91327596 0.25070461
v 0.63534042 0.91480421 0.23065890
v 0.63600937 0.91566387 0.21065639
v 0.63600937 0.91556833 0.19065388
v 0.63547419 0.91470873 0.17065136
v 0.63427001 0.91308494 0.15064885
v 0.63386865 0.90945529 0.13025751
v 0.63119270 0.91031495 0.11837699
v -0.64068365 0.90076326 0.11837699
v -0.64175400 0.89894846 0.11837699
v -0.64777491 0.89092508 0.13060314
v -0.65004944 0.89092508 0.15064885
v -0.65165498 0.89092508 0.17065136
v -0.64376095 0.90553913 0.19065388
v -0.65259157 0.89092508 0.19065388
v -0.64376095 0.90553913 0.21065639
v -0.65259157 0.89092508 0.21065639
v -0.65165498 0.89092508 0.23065890
v -0.65914765 0.87745718 0.23065890
v -0.61379037 0.81088200 0.53894817
v -0.64550031 0.79082349 0.52503711
v -0.63078261 0.79082349 0.53428236
v -0.60148103 0.82272611 0.54097864
v -0.55023673 0.77086052 0.55972831
v -0.61726909 0.79082349 0.54002822
v -0.61954369 0.77649605 0.54058984
v -0.66289396 0.86561307 0.25070461
v -0.66128843 0.86207901 0.28630303
v -0.66423191 0.84937524 0.31071215
v -0.66142219 0.84240253 0.37071969
v -0.66088701 0.84106536 0.38164979
v -0.66021801 0.83905943 0.39499919
v -0.66302779 0.83180023 0.38929653
v -0.66249255 0.82645125 0.41072471
v -0.66824586 0.81088200 0.39072220
v -0.66637268 0.77086052 0.47077545
v -0.66811204 0.79082349 0.43072722
v -0.66530232 0.75080201 0.49077796
v -0.65740829 0.75080201 0.51492786
v -0.64670449 0.77086052 0.52594436
v -0.66249255 0.75080201 0.50490500
v 0.59787717 0.83753118 0.54046022
v 0.52803504 0.81002240 0.55972831
v 0.53084475 0.80543754 0.55972831
v 0.60844715 0.83084503 0.53799771
v 0.62985470 0.81088200 0.53181984
v 0.63119270 0.83122712 0.52689482
v 0.64283304 0.81088200 0.52361147
v 0.65112848 0.81088200 0.51078046
v 0.63427001 0.90955076 0.27247841
v 0.65942392 0.79827382 0.49604861
v 0.65768456 0.80935375 0.48995712
v 0.65848733 0.81451166 0.47077545
v 0.65929010 0.81814132 0.45487712
v 0.65982528 0.82110233 0.44152772
v 0.65821974 0.83590740 0.41072471
v 0.65915633 0.83886847 0.39072220
v 0.65969151 0.84049225 0.37944648
v 0.64417104 0.87249036 0.39067900
v 0.65955769 0.86026415 0.29792437
v 0.65313543 0.87086657 0.31071215
v 0.65607897 0.87306340 0.27070713
v 0.65701556 0.87516482 0.25070461
v 0.65433961 0.85090354 0.39072220
v 0.64510758 0.88987435 0.29070964
v 0.63975573 0.90085874 0.28029796
v 0.64136127 0.90324671 0.25070461
v 0.64229786 0.90477495 0.23065890
v 0.64283304 0.90563461 0.21065639
v 0.64283304 0.90553913 0.19065388
v 0.64229786 0.90467941 0.17065136
v 0.64122750 0.90315117 0.15064885
v 0.64042468 0.90171846 0.13665141
v 0.63935432 0.90028569 0.12330201
v 0.63560801 0.90439292 0.11837699
v -0.64590172 0.89168914 0.11837699
v -0.65714071 0.87315894 0.13060314
v -0.65821106 0.87554685 0.15064885
v -0.65914765 0.87726617 0.17065136
v -0.65954901 0.87812577 0.19065388
v -0.65954901 0.87831684 0.21065639
v -0.66369673 0.86742793 0.23065890
v -0.62890949 0.77019193 0.53678804
v -0.55237744 0.75080201 0.55972831
v -0.62101546 0.76312369 0.54089223
v -0.66878104 0.85090354 0.25070461
v -0.66717545 0.85090354 0.27070713
v -0.67199217 0.83084503 0.29070964
v -0.66851345 0.83084503 0.33071466
v -0.66677409 0.83084503 0.35067397
v -0.67466812 0.81088200 0.31071215
v -0.66985140 0.79082349 0.41072471
v -0.67159076 0.77086052 0.41072471
v -0.66704168 0.75080201 0.47077545
v -0.66583750 0.73083904 0.49077796
v -0.65767588 0.73083904 0.51553269
v -0.64737349 0.75080201 0.52641958
v -0.63145161 0.75080201 0.53644245
v -0.66276014 0.73083904 0.50550984
v 0.60095454 0.82425442 0.54110826
v 0.61313005 0.81088200 0.53903455
v 0.54609763 0.77458565 0.55972831
v 0.62985470 0.79082349 0.53441195
v 0.64483999 0.79082349 0.52525315
v 0.65607897 0.77086052 0.51432302
v 0.65554379 0.79130112 0.50978683
v 0.66049428 0.78499700 0.50248570
v 0.66116328 0.79130112 0.48995712
v 0.66303641 0.79082349 0.47077545
v 0.66062810 0.80448240 0.47077545
v 0.66303641 0.81088200 0.43072722
v 0.66664895 0.81088200 0.39072220
v 0.66036045 0.82272611 0.43072722
v 0.66129705 0.82587820 0.41072471
v 0.66223364 0.82883916 0.39072220
v 0.66196605 0.84631874 0.33071466
v 0.65674797 0.84956631 0.37192934
v 0.66852213 0.83084503 0.31071215
v 0.67360638 0.83084503 0.25070461
v 0.66731795 0.85090354 0.25070461
v 0.66557859 0.85090354 0.27070713
v 0.66169846 0.86513550 0.25070461
v 0.65795215 0.87697961 0.23065890
v 0.64858635 0.89092508 0.25070461
v 0.65045948 0.89092508 0.23065890
v 0.65152983 0.89092508 0.21065639
v 0.65126225 0.89092508 0.19065388
v 0.65019189 0.89092508 0.17065136
v 0.64831871 0.89092508 0.15064885
v 0.64457240 0.89025644 0.11837699
v 0.64136127 0.89579643 0.11837699
v 0.63895291 0.89961705 0.11837699
v -0.65687312 0.87077103 0.11837699
v -0.66182360 0.86322522 0.13060314
v -0.66289396 0.86551759 0.15064885
v -0.66356296 0.86733239 0.17065136
v -0.66396432 0.86819205 0.19065388
v -0.66409814 0.86828759 0.21065639
v -0.67105558 0.85090354 0.21065639
v -0.67025281 0.85090354 0.23065890
v -0.55277886 0.73704762 0.55972831
v -0.62141681 0.75080201 0.54110826
v -0.62195199 0.73083904 0.54128106
v -0.62221964 0.71078053 0.54136747
v -0.67506953 0.83084503 0.25070461
v -0.67359776 0.83084503 0.27070713
v -0.67306253 0.79082349 0.37071969
v -0.67774543 0.81088200 0.27070713
v -0.67453430 0.77086052 0.37071969
v -0.67359776 0.75080201 0.39072220
v -0.66878104 0.75080201 0.45072973
v -0.66744310 0.73083904 0.47077545
v -0.66771068 0.71078053 0.47077545
v -0.66610509 0.69081755 0.49077796
v -0.66302779 0.69081755 0.50598506
v -0.66289396 0.71078053 0.50581223
v -0.65780965 0.71078053 0.51583511
v -0.64764108 0.73083904 0.52672199
v -0.63198679 0.73083904 0.53670166
v 0.61593982 0.79082349 0.53998501
v 0.54690046 0.77162470 0.55972831
v 0.61808054 0.77429916 0.54050343
v 0.62784775 0.76885470 0.53691766
v 0.64604417 0.77086052 0.52616037
v 0.65648038 0.75080201 0.51535989
v 0.66183222 0.75080201 0.50533703
v 0.66129705 0.77086052 0.50430017
v 0.66357158 0.77086052 0.49077796
v 0.66531100 0.77086052 0.47077545
v 0.66651512 0.79082349 0.43072722
v 0.66986008 0.79082349 0.39072220
v 0.67307121 0.81088200 0.31071215
v 0.66892349 0.85090354 0.23065890
v 0.67614857 0.81088200 0.27070713
v 0.67869070 0.81288787 0.23065890
v 0.67507815 0.83084503 0.23065890
v 0.66250123 0.86695036 0.23065890
v 0.65835351 0.87793475 0.21065639
v 0.65835351 0.87764820 0.19065388
v 0.65781833 0.87650199 0.17065136
v 0.65688174 0.87459171 0.15064885
v 0.65487479 0.87048442 0.11837699
v -0.66115460 0.86160144 0.11837699
v -0.66664027 0.85090354 0.13060314
v -0.66864722 0.85090354 0.15064885
v -0.66998522 0.85090354 0.17065136
v -0.67078799 0.85090354 0.19065388
v -0.67680889 0.83084503 0.19065388
v -0.67694266 0.83084503 0.21065639
v -0.67640748 0.83084503 0.23065890
v -0.55291268 0.73083904 0.55972831
v -0.63212061 0.71078053 0.53683125
v -0.63225438 0.69081755 0.53691766
v -0.62235340 0.69081755 0.54141068
v -0.67975243 0.81422510 0.23065890
v -0.68055520 0.79770077 0.25662329
v -0.67453430 0.79082349 0.35067397
v -0.67935102 0.80954483 0.25027259
v -0.68095661 0.80199902 0.24331708
v -0.67881584 0.79082349 0.29070964
v -0.68109038 0.78432836 0.26530688
v -0.68068897 0.77086052 0.27874269
v -0.67493571 0.75080201 0.37071969
v -0.67373153 0.73083904 0.39072220
v -0.67225976 0.73083904 0.41072471
v -0.66623891 0.67075905 0.49077796
v -0.67252735 0.69081755 0.41072471
v -0.66958381 0.65079601 0.45072973
v -0.66797827 0.65079601 0.47077545
v -0.66316155 0.63073750 0.50633068
v -0.65807724 0.67075905 0.51618073
v -0.65794347 0.69081755 0.51600790
v -0.64777491 0.71078053 0.52685161
v 0.54783705 0.76646674 0.55972831
v 0.61981990 0.76092680 0.54080585
v 0.62998852 0.75080201 0.53648566
v 0.64644558 0.75080201 0.52646278
v 0.65661415 0.71078053 0.51579190
v 0.66223364 0.69081755 0.50589865
v 0.66209981 0.71078053 0.50576905
v 0.66196605 0.73083904 0.50555303
v 0.66544477 0.69081755 0.49077796
v 0.66504335 0.73083904 0.49077796
v 0.66464200 0.75080201 0.49077796
v 0.66624753 0.75080201 0.47077545
v 0.67012767 0.77086052 0.41072471
v 0.67293744 0.79082349 0.35067397
v 0.66972631 0.85090354 0.21065639
v 0.67976105 0.80085280 0.24081136
v 0.67802169 0.80887618 0.24876052
v 0.67895829 0.81518030 0.21065639
v 0.68016247 0.80295416 0.23065890
v 0.67574716 0.83084503 0.21065639
v 0.66290264 0.86790550 0.21065639
v 0.66276882 0.86761900 0.19065388
v 0.66236746 0.86656827 0.17065136
v 0.66143087 0.86456239 0.15064885
v 0.65982528 0.86074172 0.12096909
v 0.65648038 0.86991137 0.12883187
v 0.65821974 0.86332070 0.11837699
v -0.66490091 0.85166766 0.11837699
v -0.66904863 0.83867740 0.11837699
v -0.67145699 0.83084503 0.11837699
v -0.67279494 0.83084503 0.13060314
v -0.67466812 0.83084503 0.15064885
v -0.67600607 0.83084503 0.17065136
v -0.67988620 0.81479821 0.19065388
v -0.68002002 0.81565787 0.21065639
v -0.55304645 0.69693060 0.55972831
v -0.62235340 0.67075905 0.54145386
v -0.62248723 0.61077453 0.54149706
v -0.64790867 0.69081755 0.52693800
v -0.63238820 0.67075905 0.53696087
v -0.63238820 0.65079601 0.53700408
v -0.68122420 0.80419591 0.23065890
v -0.68149179 0.79091903 0.25027259
v -0.68015379 0.79091903 0.27144156
v -0.68256215 0.79082349 0.23065890
v -0.68349874 0.77086052 0.23065890
v -0.68242838 0.77086052 0.25070461
v -0.67881584 0.75080201 0.31071215
v -0.67627366 0.75080201 0.35067397
v -0.67506953 0.73083904 0.37071969
v -0.67399912 0.69081755 0.39072220
v -0.66637268 0.63073750 0.49077796
v -0.67266117 0.65079601 0.41072471
v -0.66971763 0.61077453 0.45072973
v -0.66811204 0.61077453 0.47077545
v -0.66316155 0.61077453 0.50637386
v -0.65821106 0.61077453 0.51639673
v -0.64804250 0.67075905 0.52698120
v 0.55051294 0.75080201 0.55972831
v 0.61995372 0.75080201 0.54089223
v 0.62035513 0.73083904 0.54097864
v 0.63025611 0.73083904 0.53657204
v 0.64657935 0.73083904 0.52659240
v 0.65728315 0.47074703 0.51682874
v 0.66250123 0.47074703 0.50684910
v 0.66597995 0.49080554 0.49077796
v 0.66571236 0.61077453 0.49077796
v 0.66718413 0.63073750 0.47077545
v 0.66691654 0.69081755 0.47077545
v 0.66664895 0.73083904 0.47077545
v 0.66932490 0.75080201 0.43072722
v 0.67307121 0.77086052 0.37071969
v 0.67440921 0.79082349 0.33071466
v 0.66945866 0.85090354 0.19065388
v 0.68123282 0.79082349 0.23065890
v 0.67588098 0.79082349 0.31071215
v 0.67935970 0.79531281 0.25411757
v 0.67882452 0.81451166 0.19065388
v 0.67547957 0.83084503 0.19065388
v 0.68043006 0.80524659 0.21065639
v 0.68190183 0.79082349 0.21065639
v 0.66838831 0.85090354 0.17065136
v 0.66678277 0.85090354 0.15064885
v 0.66049428 0.85787624 0.11837699
v 0.65955769 0.86035969 0.11837699
v 0.66317023 0.85061699 0.11837699
v -0.67399912 0.81861889 0.11837699
v -0.67667507 0.81088200 0.13060314
v -0.67841443 0.81088200 0.15064885
v -0.67988620 0.81011794 0.16900969
v -0.68135797 0.80476896 0.19065388
v -0.68149179 0.80562862 0.21065639
v -0.55344786 0.57075305 0.55972831
v -0.63252197 0.61077453 0.53700408
v -0.62262099 0.05056903 0.54158348
v -0.55371545 0.39643504 0.55972831
v -0.68282974 0.79082349 0.21065639
v -0.68363251 0.77086052 0.21065639
v -0.68376633 0.75080201 0.21065639
v -0.68349874 0.75080201 0.23065890
v -0.68242838 0.75080201 0.25070461
v -0.68135797 0.75080201 0.26967028
v -0.67640748 0.73083904 0.35067397
v -0.67533712 0.69081755 0.37071969
v -0.67413294 0.65079601 0.39072220
v -0.66637268 0.51076854 0.49077796
v -0.67279494 0.59071602 0.41072471
v -0.67132317 0.57075305 0.43072722
v -0.66811204 0.49080554 0.47077545
v -0.66316155 0.57075305 0.50637386
v -0.65821106 0.59071602 0.51639673
v -0.64817626 0.63073750 0.52698120
v 0.55078059 0.74430687 0.55972831
v 0.55131577 0.73083904 0.55972831
v 0.62089031 0.65079601 0.54119465
v 0.63038988 0.71078053 0.53665845
v 0.63105888 0.61077453 0.53683125
v 0.64671317 0.69081755 0.52667879
v 0.65728315 0.45078402 0.51691515
v 0.66250123 0.45078402 0.50689231
v 0.66250123 0.31066101 0.50693549
v 0.66597995 0.45078402 0.49077796
v 0.67280362 0.57075305 0.39072220
v 0.66731795 0.59071602 0.47077545
v 0.67387397 0.71078053 0.37071969
v 0.67507815 0.75080201 0.35067397
v 0.67093043 0.73083904 0.41072471
v 0.67079667 0.75080201 0.41072471
v 0.67454298 0.77086052 0.35067397
v 0.67454298 0.83084503 0.17065136
v 0.68230324 0.77086052 0.23065890
v 0.67882452 0.78948632 0.26962708
v 0.67989488 0.78203599 0.26223954
v 0.67869070 0.80992686 0.16939852
v 0.68029629 0.80448240 0.19065388
v 0.68002864 0.80257213 0.17523076
v 0.68163424 0.79082349 0.19065388
v 0.68283842 0.77086052 0.21065639
v 0.67293744 0.83084503 0.15064885
v 0.67093043 0.83084503 0.13060314
v 0.66959249 0.83084503 0.11837699
v -0.67547089 0.81088200 0.11837699
v -0.67694266 0.79865591 0.11837699
v -0.67787925 0.79082349 0.11837699
v -0.68068897 0.80047071 0.16123332
v -0.68109038 0.80295416 0.17458275
v -0.68256215 0.79082349 0.19065388
v -0.63265579 0.05056903 0.53696087
v -0.62997984 0.03585944 0.53821372
v -0.62262099 0.03585944 0.54158348
v -0.55371545 0.27063953 0.55972831
v -0.68336492 0.77086052 0.19065388
v -0.68216074 0.03585944 0.23065890
v -0.68336492 0.75080201 0.19065388
v -0.68149179 0.03585944 0.25070461
v -0.68042138 0.03585944 0.27256481
v -0.67894961 0.49080554 0.31071215
v -0.67787925 0.51076854 0.33071466
v -0.67560471 0.49080554 0.37071969
v -0.67560471 0.55069454 0.37071969
v -0.67547089 0.65079601 0.37071969
v -0.67426671 0.57075305 0.39072220
v -0.66610509 0.03585944 0.49077796
v -0.66530232 0.03585944 0.49483894
v -0.66316155 0.55069454 0.50633068
v -0.67132317 0.47074703 0.43072722
v -0.66784445 0.03585944 0.47077545
v -0.66971763 0.47074703 0.45072973
v -0.66302779 0.11055351 0.50581223
v -0.64817626 0.57075305 0.52698120
v -0.65794347 0.05056903 0.51587831
v -0.64790867 0.03585944 0.52698120
v 0.55185095 0.65079601 0.55972831
v 0.62102408 0.61077453 0.54128106
v 0.62102408 0.63073750 0.54123785
v 0.64724835 0.47074703 0.52689482
v 0.62115790 0.55069454 0.54132427
v 0.63132647 0.31066101 0.53704728
v 0.64738217 0.35068252 0.52702441
v 0.65741691 0.33071952 0.51691515
v 0.66223364 0.03585944 0.50641707
v 0.66250123 0.29069804 0.50684910
v 0.65741691 0.31066101 0.51691515
v 0.65741691 0.29069804 0.51687195
v 0.66584618 0.31066101 0.49077796
v 0.67427539 0.03585944 0.36531944
v 0.67280362 0.47074703 0.39072220
v 0.67414156 0.57075305 0.37071969
v 0.67400780 0.67075905 0.37071969
v 0.67641616 0.75080201 0.33071466
v 0.67588098 0.77086052 0.33071466
v 0.67721893 0.81088200 0.15064885
v 0.68257083 0.75080201 0.23065890
v 0.68109906 0.77086052 0.25070461
v 0.68150041 0.75080201 0.25070461
v 0.68016247 0.77086052 0.26547969
v 0.67855687 0.77086052 0.29070964
v 0.67976105 0.80018416 0.16192457
v 0.68257083 0.77086052 0.19065388
v 0.68203565 0.77086052 0.17065136
v 0.68069765 0.79244727 0.16939852
v 0.68310601 0.75080201 0.21065639
v 0.67534574 0.81088200 0.13060314
v 0.67133185 0.82310820 0.11837699
v -0.67894961 0.79082349 0.13060314
v -0.68042138 0.79263835 0.14892077
v -0.67854825 0.77859740 0.11837699
v -0.68068897 0.77907497 0.14114443
v -0.68122420 0.78709835 0.15449383
v -0.68162556 0.79263835 0.16900969
v -0.68269597 0.77086052 0.17065136
v -0.63265579 0.03585944 0.53696087
v -0.55344786 0.03585944 0.55972831
v -0.55358163 0.09059051 0.55972831
v -0.68282974 0.75080201 0.17065136
v -0.68175938 0.03585944 0.21065639
v -0.68282974 0.73083904 0.17065136
v -0.68015379 0.03585944 0.27748984
v -0.67801307 0.03585944 0.31611240
v -0.67480189 0.03585944 0.37071969
v -0.67359776 0.03585944 0.39072220
v -0.67426671 0.47074703 0.39072220
v -0.67600607 0.03585944 0.35067397
v -0.66289396 0.03585944 0.50585544
v -0.67279494 0.45078402 0.41072471
v -0.67078799 0.03585944 0.43072722
v -0.66155602 0.03585944 0.50853398
v -0.65780965 0.03585944 0.51587831
v 0.55198471 0.63073750 0.55972831
v 0.62155932 0.09059051 0.54154027
v 0.55225236 0.56502204 0.55972831
v 0.63146029 0.27063953 0.53700408
v 0.64738217 0.29069804 0.52702441
v 0.66531100 0.03585944 0.49077796
v 0.66544477 0.09059051 0.49077796
v 0.65714933 0.03585944 0.51639673
v 0.64711458 0.03585944 0.52689482
v 0.67695134 0.03585944 0.32535762
v 0.67414156 0.45078402 0.37071969
v 0.66571236 0.03585944 0.48537771
v 0.67668375 0.43072552 0.33071466
v 0.67534574 0.67075905 0.35067397
v 0.68257083 0.73083904 0.23065890
v 0.68150041 0.73083904 0.25070461
v 0.68029629 0.78681186 0.15423462
v 0.67802169 0.79082349 0.13060314
v 0.68283842 0.75080201 0.19065388
v 0.68230324 0.75080201 0.17065136
v 0.68109906 0.75080201 0.15064885
v 0.68056388 0.77229329 0.14879118
v 0.67976105 0.77983910 0.14088522
v 0.68216942 0.03585944 0.23065890
v 0.68216942 0.03585944 0.22530187
v 0.68216942 0.05056903 0.21065639
v 0.67507815 0.80304969 0.11837699
v 0.67400780 0.81088200 0.11837699
v -0.67894961 0.77114707 0.11837699
v -0.68149179 0.77181572 0.14892077
v -0.68015379 0.77181572 0.13181280
v -0.68189315 0.75080201 0.15064885
v 0.55198471 0.03585944 0.55972831
v -0.68189315 0.73083904 0.15064885
v -0.68109038 0.73083904 0.13721304
v -0.68095661 0.03585944 0.19864624
v -0.67185841 0.03585944 0.41612495
v 0.62155932 0.07053200 0.54154027
v 0.55225236 0.54496353 0.55972831
v 0.63159406 0.07053200 0.53691766
v 0.63574178 0.03585944 0.53419594
v 0.67788793 0.03585944 0.31071215
v 0.67668375 0.41076254 0.33071466
v 0.68136665 0.03585944 0.25070461
v 0.68163424 0.03585944 0.24530438
v 0.67909211 0.03585944 0.29070964
v 0.67976105 0.03585944 0.27956353
v 0.67788793 0.77133809 0.11837699
v 0.67668375 0.79082349 0.11837699
v 0.67989488 0.76656227 0.13911393
v 0.68176806 0.03585944 0.20525615
v 0.68083147 0.03585944 0.19065388
v 0.68002864 0.73083904 0.13799067
v 0.67922588 0.73083904 0.12796783
v 0.67922588 0.75080201 0.12814062
v 0.67909211 0.77229329 0.13168318
v 0.68203565 0.03585944 0.21065639
v -0.67921720 0.75853889 0.11837699
v -0.68095661 0.75080201 0.13790429
v -0.67935102 0.75080201 0.11837699
v -0.68015379 0.75080201 0.12788141
v 0.62155932 0.03585944 0.54149706
v 0.55211854 0.10482250 0.55972831
v -0.67948484 0.73083904 0.11837699
v -0.67935102 0.71078053 0.11837699
v -0.68042138 0.03585944 0.19130192
v 0.63146029 0.03585944 0.53687446
v 0.67828928 0.75080201 0.11837699
v 0.67989488 0.03585944 0.18032861
v 0.67828928 0.72233803 0.11837699
v -0.67894961 0.69053100 0.11837699
v -0.67721025 0.03585944 0.17065136
v -0.67801307 0.03585944 0.17544680
v -0.68015379 0.03585944 0.18862337
v 0.67748652 0.03585944 0.17034895
v 0.67815552 0.71078053 0.11837699
v -0.67801307 0.67075905 0.11837699
v -0.66784445 0.03585944 0.15358658
v -0.67038664 0.03585944 0.15816601
v 0.67481057 0.03585944 0.16572634
v 0.67748652 0.68298513 0.11837699
v 0.67775411 0.69119959 0.11837699
v 0.67802169 0.70409438 0.11837699
v -0.67573848 0.65079601 0.11837699
v -0.65540135 0.03585944 0.14671746
v 0.66745172 0.03585944 0.15324099
v 0.67681751 0.67075905 0.11837699
v -0.67052040 0.63073750 0.11837699
v -0.65071839 0.03585944 0.14416857
v 0.66276882 0.03585944 0.15069206
v 0.67628234 0.66302216 0.11837699
v -0.66463332 0.61373555 0.11837699
v -0.63613451 0.03585944 0.14226768
v 0.64979048 0.03585944 0.14369333
v 0.67374021 0.64296365 0.11837699
v -0.66249255 0.60905521 0.11837699
v -0.63078261 0.03585944 0.14157644
v 0.66705036 0.62099480 0.11837699
v 0.62985470 0.03585944 0.14140364
v -0.65821106 0.60332420 0.11837699
v -0.64550031 0.59071602 0.11837699
v -0.63078261 0.58259710 0.11837699
v -0.61071307 0.03585944 0.14114443
v 0.66370541 0.61344899 0.11837699
v 0.62436903 0.03585944 0.14131723
v 0.63681219 0.58355224 0.11837699
v 0.64470622 0.58976082 0.11837699
v 0.65353684 0.59749771 0.11837699
v 0.65755074 0.60303771 0.11837699
v -0.59077729 0.03585944 0.14088522
v -0.61512838 0.57973163 0.11837699
v -0.55398304 0.03585944 0.14053960
v -0.56482061 0.03585944 0.14062601
v 0.62985470 0.58097332 0.11837699
v 0.60443325 0.03585944 0.14101481
v -0.61071307 0.57896745 0.11837699
v -0.53070231 0.03585944 0.14036680
v 0.58971555 0.03585944 0.14084201
v 0.62624221 0.58011366 0.11837699
v -0.15593633 0.03585944 0.13954596
v -0.21587747 0.03585944 0.13958914
v -0.25588285 0.03585944 0.13963235
v -0.29053632 0.03585944 0.13967555
v -0.37054705 0.03585944 0.13980517
v -0.41068623 0.03585944 0.13989156
v -0.45069158 0.03585944 0.13997797
v -0.47611305 0.03585944 0.14006438
v -0.49604883 0.03585944 0.14015077
v -0.51063271 0.03585944 0.14023718
v 0.60804580 0.57696163 0.11837699
v 0.58530024 0.03585944 0.14079881
v 0.56255469 0.03585944 0.14058280
v 0.60978516 0.57696163 0.11837699
v -0.01036495 0.03585944 0.13954596
v 0.54435827 0.03585944 0.14045318
v 0.50435295 0.03585944 0.14019397
v 0.48976905 0.03585944 0.14010756
v 0.46969944 0.03585944 0.14002118
v 0.44427797 0.03585944 0.13993476
v 0.42434219 0.03585944 0.13989156
v 0.40427262 0.03585944 0.13984835
v 0.34968334 0.03585944 0.13976197
v 0.30967799 0.03585944 0.13971876
v 0.26953881 0.03585944 0.13967555
v 0.20959767 0.03585944 0.13963235
f 1 2 3
f 1 3 4
f 1 4 15
f 1 15 5
f 1 5 6
f 1 6 7
f 1 7 8
f 1 8 9
f 1 9 2
f 2 10 3
f 2 9 11
f 2 11 10
f 3 10 12
f 3 12 13
f 3 13 14
f 3 14 4
f 4 14 34
f 4 34 15
f 5 15 16
f 5 16 17
f 5 17 18
f 5 18 6
f 6 18 7
f 7 19 20
f 7 20 21
f 7 21 8
f 7 18 19
f 8 21 22
f 8 22 23
f 8 23 9
f 9 23 11
f 10 24 25
f 10 25 12
f 10 11 26
f 10 26 24
f 11 23 27
f 11 27 28
f 11 28 46
f 11 46 26
f 12 25 29
f 12 29 30
f 12 30 31
f 12 31 13
f 13 31 32
f 13 32 14
f 14 32 33
f 14 33 34
f 15 34 63
f 15 63 35
f 15 35 16
f 16 35 36
f 16 36 17
f 17 36 37
f 17 37 18
f 18 37 38
f 18 38 19
f 19 38 20
f 20 38 39
f 20 39 40
f 20 40 21
f 21 40 41
f 21 41 22
f 22 41 23
f 23 41 27
f 24 42 43
f 24 43 25
f 24 26 44
f 24 44 42
f 25 43 45
f 25 45 29
f 26 46 47
f 26 47 44
f 27 41 48
f 27 48 49
f 27 49 28
f 28 49 50
f 28 50 51
f 28 51 52
f 28 52 46
f 29 45 53
f 29 53 54
f 29 54 55
f 29 55 56
f 29 56 30
f 30 56 57
f 30 57 31
f 31 57 58
f 31 58 59
f 31 59 32
f 32 59 60
f 32 60 33
f 33 60 61
f 33 61 62
f 33 62 63
f 33 63 34
f 35 63 64
f 35 64 36
f 36 64 99
f 36 99 65
f 36 65 66
f 36 66 37
f 37 66 67
f 37 67 38
f 38 67 106
f 38 106 68
f 38 68 69
f 38 69 70
f 38 70 71
f 38 71 39
f 39 71 72
f 39 72 40
f 40 72 48
f 40 48 41
f 42 44 47
f 42 47 74
f 42 74 73
f 42 73 81
f 42 81 122
f 42 122 124
f 42 124 123
f 42 123 177
f 42 177 176
f 42 176 226
f 42 226 291
f 42 291 346
f 42 346 347
f 42 347 401
f 42 401 468
f 42 468 467
f 42 467 530
f 42 530 585
f 42 585 586
f 42 586 650
f 42 650 717
f 42 717 774
f 42 774 773
f 42 773 772
f 42 772 824
f 42 824 882
f 42 882 940
f 42 940 939
f 42 939 941
f 42 941 996
f 42 996 1059
f 42 1059 1111
f 42 1111 1110
f 42 1110 1132
f 42 1132 1131
f 42 1131 1151
f 42 1151 1153
f 42 1153 1159
f 42 1159 1166
f 42 1166 1165
f 42 1165 1164
f 42 1164 1170
f 42 1170 1174
f 42 1174 1178
f 42 1178 1181
f 42 1181 1187
f 42 1187 1192
f 42 1192 1191
f 42 1191 1190
f 42 1190 1189
f 42 1189 1197
f 42 1197 1202
f 42 1202 1216
f 42 1216 1213
f 42 1213 1199
f 42 1199 1194
f 42 1194 1185
f 42 1185 1184
f 42 1184 1183
f 42 1183 1179
f 42 1179 1175
f 42 1175 1171
f 42 1171 1167
f 42 1167 1160
f 42 1160 1154
f 42 1154 1148
f 42 1148 1147
f 42 1147 1143
f 42 1143 1141
f 42 1141 1112
f 42 1112 1062
f 42 1062 999
f 42 999 998
f 42 998 997
f 42 997 942
f 42 942 885
f 42 885 884
f 42 884 883
f 42 883 825
f 42 825 775
f 42 775 718
f 42 718 652
f 42 652 651
f 42 651 587
f 42 587 531
f 42 531 469
f 42 469 402
f 42 402 349
f 42 349 348
f 42 348 293
f 42 293 292
f 42 292 232
f 42 232 227
f 42 227 178
f 42 178 125
f 42 125 83
f 42 83 54
f 42 54 53
f 42 53 45
f 42 45 43
f 46 52 73
f 46 73 74
f 46 74 47
f 48 72 75
f 48 75 49
f 49 75 76
f 49 76 50
f 50 76 77
f 50 77 78
f 50 78 79
f 50 79 51
f 51 79 80
f 51 80 52
f 52 81 73
f 52 80 82
f 52 82 81
f 54 83 55
f 55 83 84
f 55 84 56
f 56 84 85
f 56 85 57
f 57 85 86
f 57 86 58
f 58 86 87
f 58 87 59
f 59 87 88
f 59 88 60
f 60 88 61
f 61 89 90
f 61 90 62
f 61 88 91
f 61 91 92
f 61 92 89
f 62 90 93
f 62 93 94
f 62 94 95
f 62 95 63
f 63 95 94
f 63 94 96
f 63 96 64
f 64 96 97
f 64 97 98
f 64 98 99
f 65 99 100
f 65 100 101
f 65 101 102
f 65 102 66
f 66 102 103
f 66 103 104
f 66 104 105
f 66 105 106
f 66 106 67
f 68 106 107
f 68 107 69
f 69 108 109
f 69 109 70
f 69 107 110
f 69 110 108
f 70 109 111
f 70 111 112
f 70 112 113
f 70 113 71
f 71 113 114
f 71 114 72
f 72 114 75
f 75 114 115
f 75 115 76
f 76 115 116
f 76 116 77
f 77 116 117
f 77 117 118
f 77 118 78
f 78 118 119
f 78 119 79
f 79 119 120
f 79 120 80
f 80 120 121
f 80 121 82
f 81 82 122
f 82 121 123
f 82 123 124
f 82 124 122
f 83 125 84
f 84 125 126
f 84 126 127
f 84 127 85
f 85 127 128
f 85 128 86
f 86 128 129
f 86 129 87
f 87 129 130
f 87 130 88
f 88 130 131
f 88 131 91
f 89 92 132
f 89 132 133
f 89 133 93
f 89 93 90
f 91 131 92
f 92 131 134
f 92 134 135
f 92 135 136
f 92 136 137
f 92 137 132
f 93 133 138
f 93 138 94
f 94 138 133
f 94 133 139
f 94 139 140
f 94 140 141
f 94 141 142
f 94 142 96
f 96 142 143
f 96 143 97
f 97 144 98
f 97 143 141
f 97 141 144
f 98 144 145
f 98 145 99
f 99 145 100
f 100 145 144
f 100 144 146
f 100 146 147
f 100 147 101
f 101 147 102
f 102 148 103
f 102 147 146
f 102 146 149
f 102 149 150
f 102 150 148
f 103 148 151
f 103 151 104
f 104 151 152
f 104 152 105
f 105 152 106
f 106 153 154
f 106 154 155
f 106 155 107
f 106 152 156
f 106 156 157
f 106 157 153
f 107 155 110
f 108 110 158
f 108 158 109
f 109 158 159
f 109 159 160
f 109 160 111
f 110 155 158
f 111 160 161
f 111 161 162
f 111 162 163
f 111 163 112
f 112 163 164
f 112 164 165
f 112 165 166
f 112 166 113
f 113 166 167
f 113 167 115
f 113 115 114
f 115 167 168
f 115 168 116
f 116 168 117
f 117 168 169
f 117 169 170
f 117 170 171
f 117 171 118
f 118 171 172
f 118 172 119
f 119 172 173
f 119 173 120
f 120 173 174
f 120 174 121
f 121 174 175
f 121 175 176
f 121 176 177
f 121 177 123
f 125 178 126
f 126 178 179
f 126 179 127
f 127 179 180
f 127 180 128
f 128 180 181
f 128 181 129
f 129 181 182
f 129 182 183
f 129 183 130
f 130 183 184
f 130 184 131
f 131 184 185
f 131 185 186
f 131 186 134
f 132 187 139
f 132 139 133
f 132 137 187
f 134 137 135
f 134 186 137
f 135 137 136
f 137 186 188
f 137 188 189
f 137 189 190
f 137 190 187
f 139 141 140
f 139 187 141
f 141 143 142
f 141 187 191
f 141 191 192
f 141 192 144
f 144 193 194
f 144 194 195
f 144 195 146
f 144 192 193
f 146 195 196
f 146 196 197
f 146 197 149
f 148 150 153
f 148 153 151
f 149 197 198
f 149 198 150
f 150 198 199
f 150 199 200
f 150 200 153
f 151 157 156
f 151 156 152
f 151 153 157
f 153 200 201
f 153 201 202
f 153 202 154
f 154 202 155
f 155 202 203
f 155 203 158
f 158 203 159
f 159 203 268
f 159 268 204
f 159 204 206
f 159 206 160
f 160 205 164
f 160 164 161
f 160 206 207
f 160 207 208
f 160 208 209
f 160 209 205
f 161 164 162
f 162 164 163
f 164 210 165
f 164 205 210
f 165 210 209
f 165 209 211
f 165 211 212
f 165 212 166
f 166 212 213
f 166 213 214
f 166 214 168
f 166 168 167
f 168 214 215
f 168 215 216
f 168 216 169
f 169 216 170
f 170 217 218
f 170 218 219
f 170 219 171
f 170 216 220
f 170 220 217
f 171 219 221
f 171 221 172
f 172 221 222
f 172 222 173
f 173 222 223
f 173 223 224
f 173 224 174
f 174 224 225
f 174 225 175
f 175 225 226
f 175 226 176
f 178 227 179
f 179 228 229
f 179 229 230
f 179 230 231
f 179 231 180
f 179 227 232
f 179 232 228
f 180 231 233
f 180 233 181
f 181 233 234
f 181 234 182
f 182 234 235
f 182 235 183
f 183 235 236
f 183 236 184
f 184 236 185
f 185 237 238
f 185 238 189
f 185 189 188
f 185 188 186
f 185 236 239
f 185 239 240
f 185 240 241
f 185 241 237
f 187 242 243
f 187 243 191
f 187 190 244
f 187 244 242
f 189 238 245
f 189 245 190
f 190 246 244
f 190 245 247
f 190 247 248
f 190 248 249
f 190 249 246
f 191 243 250
f 191 250 192
f 192 251 193
f 192 250 251
f 193 252 194
f 193 251 252
f 194 252 253
f 194 253 254
f 194 254 255
f 194 255 195
f 195 255 256
f 195 256 196
f 196 256 257
f 196 257 199
f 196 199 258
f 196 258 197
f 197 258 259
f 197 259 198
f 198 259 199
f 199 260 262
f 199 262 200
f 199 259 258
f 199 257 254
f 199 254 261
f 199 261 260
f 200 262 201
f 201 263 264
f 201 264 265
f 201 265 202
f 201 262 263
f 202 265 266
f 202 266 267
f 202 267 268
f 202 268 203
f 204 268 269
f 204 269 270
f 204 270 206
f 205 209 210
f 206 270 271
f 206 271 207
f 207 271 272
f 207 272 208
f 208 273 274
f 208 274 275
f 208 275 209
f 208 272 273
f 209 276 211
f 209 275 277
f 209 277 276
f 211 276 213
f 211 213 212
f 213 276 214
f 214 276 215
f 215 277 275
f 215 275 278
f 215 278 279
f 215 279 216
f 215 276 277
f 216 279 220
f 217 220 275
f 217 275 280
f 217 280 218
f 218 281 282
f 218 282 283
f 218 283 219
f 218 280 284
f 218 284 281
f 219 283 285
f 219 285 221
f 220 279 275
f 221 285 286
f 221 286 222
f 222 286 223
f 223 286 287
f 223 287 224
f 224 287 288
f 224 288 225
f 225 289 226
f 225 288 290
f 225 290 289
f 226 289 291
f 228 232 292
f 228 292 229
f 229 292 293
f 229 293 294
f 229 294 295
f 229 295 230
f 230 295 296
f 230 296 297
f 230 297 233
f 230 233 231
f 233 297 298
f 233 298 234
f 234 298 299
f 234 299 235
f 235 299 300
f 235 300 236
f 236 300 301
f 236 301 240
f 236 240 239
f 237 245 238
f 237 241 302
f 237 302 245
f 240 301 303
f 240 303 304
f 240 304 241
f 241 304 245
f 241 245 302
f 242 305 243
f 242 244 305
f 243 305 306
f 243 306 250
f 244 246 305
f 245 304 307
f 245 307 247
f 246 249 308
f 246 308 309
f 246 309 305
f 247 307 310
f 247 310 248
f 248 308 249
f 248 310 311
f 248 311 312
f 248 312 313
f 248 313 308
f 250 314 251
f 250 306 315
f 250 315 314
f 251 314 316
f 251 316 252
f 252 316 253
f 253 316 317
f 253 317 254
f 254 256 255
f 254 317 318
f 254 318 319
f 254 319 320
f 254 320 261
f 254 257 256
f 260 321 322
f 260 322 262
f 260 261 320
f 260 320 319
f 260 319 321
f 262 322 323
f 262 323 263
f 263 323 264
f 264 323 324
f 264 324 325
f 264 325 326
f 264 326 266
f 264 266 265
f 266 326 327
f 266 327 267
f 267 327 268
f 268 327 328
f 268 328 269
f 269 328 329
f 269 329 330
f 269 330 331
f 269 331 270
f 270 331 271
f 271 331 332
f 271 332 333
f 271 333 272
f 272 333 334
f 272 334 273
f 273 334 274
f 274 335 336
f 274 336 275
f 274 334 335
f 275 284 337
f 275 337 280
f 275 279 278
f 275 336 284
f 280 337 284
f 281 338 282
f 281 284 339
f 281 339 338
f 282 338 283
f 283 338 340
f 283 340 341
f 283 341 285
f 284 336 338
f 284 338 339
f 285 341 342
f 285 342 286
f 286 342 343
f 286 343 344
f 286 344 287
f 287 344 345
f 287 345 288
f 288 345 290
f 289 290 291
f 290 346 291
f 290 345 347
f 290 347 346
f 293 348 294
f 294 349 295
f 294 348 349
f 295 349 350
f 295 350 351
f 295 351 296
f 296 351 352
f 296 352 353
f 296 353 297
f 297 353 298
f 298 353 354
f 298 354 299
f 299 354 300
f 300 354 355
f 300 355 303
f 300 303 301
f 303 355 356
f 303 356 357
f 303 357 304
f 304 358 310
f 304 310 307
f 304 357 359
f 304 359 358
f 305 360 306
f 305 309 361
f 305 361 360
f 306 360 315
f 308 362 309
f 308 313 363
f 308 363 364
f 308 364 362
f 309 362 361
f 310 358 359
f 310 359 311
f 311 359 365
f 311 365 312
f 312 363 313
f 312 365 366
f 312 366 367
f 312 367 368
f 312 368 363
f 314 369 316
f 314 315 360
f 314 360 370
f 314 370 369
f 316 371 372
f 316 372 317
f 316 369 371
f 317 372 373
f 317 373 318
f 318 373 374
f 318 374 319
f 319 374 321
f 321 375 376
f 321 376 322
f 321 374 375
f 322 376 323
f 323 376 324
f 324 376 325
f 325 377 378
f 325 378 326
f 325 376 379
f 325 379 377
f 326 378 380
f 326 380 327
f 327 380 329
f 327 329 328
f 329 380 381
f 329 381 382
f 329 382 330
f 330 382 383
f 330 383 384
f 330 384 331
f 331 384 385
f 331 385 386
f 331 386 332
f 332 386 333
f 333 386 334
f 334 386 387
f 334 387 388
f 334 388 335
f 335 388 389
f 335 389 390
f 335 390 336
f 336 390 391
f 336 391 392
f 336 392 338
f 338 392 340
f 340 392 393
f 340 393 394
f 340 394 341
f 341 394 395
f 341 395 396
f 341 396 342
f 342 396 397
f 342 397 343
f 343 397 344
f 344 397 398
f 344 398 345
f 345 398 399
f 345 399 347
f 347 399 400
f 347 400 401
f 349 402 403
f 349 403 350
f 350 403 404
f 350 404 351
f 351 404 406
f 351 406 352
f 352 405 353
f 352 406 405
f 353 405 354
f 354 405 407
f 354 407 408
f 354 408 355
f 355 408 409
f 355 409 410
f 355 410 356
f 356 359 357
f 356 410 411
f 356 411 412
f 356 412 359
f 359 413 414
f 359 414 365
f 359 412 415
f 359 415 416
f 359 416 417
f 359 417 413
f 360 361 418
f 360 418 419
f 360 419 370
f 361 362 418
f 362 364 420
f 362 420 421
f 362 421 418
f 363 420 364
f 363 368 422
f 363 422 423
f 363 423 424
f 363 424 420
f 365 414 425
f 365 425 426
f 365 426 366
f 366 426 427
f 366 427 428
f 366 428 367
f 367 422 368
f 367 428 429
f 367 429 430
f 367 430 431
f 367 431 422
f 369 370 432
f 369 432 433
f 369 433 371
f 370 434 432
f 370 419 434
f 371 435 436
f 371 436 372
f 371 433 435
f 372 436 437
f 372 437 373
f 373 437 374
f 374 437 438
f 374 438 439
f 374 439 440
f 374 440 375
f 375 440 376
f 376 441 442
f 376 442 379
f 376 440 441
f 377 443 444
f 377 444 381
f 377 381 380
f 377 380 378
f 377 379 443
f 379 442 443
f 381 444 445
f 381 445 382
f 382 445 446
f 382 446 383
f 383 446 447
f 383 447 384
f 384 447 448
f 384 448 385
f 385 448 449
f 385 449 450
f 385 450 386
f 386 450 451
f 386 451 387
f 387 451 452
f 387 452 388
f 388 452 389
f 389 391 390
f 389 452 453
f 389 453 454
f 389 454 455
f 389 455 391
f 391 456 392
f 391 455 457
f 391 457 458
f 391 458 456
f 392 456 393
f 393 456 394
f 394 456 395
f 395 459 460
f 395 460 461
f 395 461 396
f 395 456 459
f 396 461 462
f 396 462 463
f 396 463 397
f 397 463 464
f 397 464 398
f 398 464 465
f 398 465 399
f 399 465 466
f 399 466 467
f 399 467 468
f 399 468 400
f 400 468 401
f 402 469 470
f 402 470 403
f 403 470 404
f 404 470 471
f 404 471 406
f 405 406 472
f 405 472 474
f 405 474 407
f 406 471 473
f 406 473 472
f 407 474 408
f 408 474 475
f 408 475 411
f 408 411 409
f 409 411 410
f 411 475 476
f 411 476 477
f 411 477 415
f 411 415 412
f 413 417 416
f 413 416 478
f 413 478 425
f 413 425 414
f 415 479 478
f 415 478 416
f 415 477 480
f 415 480 479
f 418 421 481
f 418 481 482
f 418 482 419
f 419 482 434
f 420 424 483
f 420 483 484
f 420 484 421
f 421 485 481
f 421 484 486
f 421 486 485
f 422 431 487
f 422 487 488
f 422 488 423
f 423 488 489
f 423 489 483
f 423 483 424
f 425 478 490
f 425 490 427
f 425 427 426
f 427 490 491
f 427 491 492
f 427 492 493
f 427 493 494
f 427 494 428
f 428 494 495
f 428 495 429
f 429 495 496
f 429 496 497
f 429 497 430
f 430 497 498
f 430 498 499
f 430 499 500
f 430 500 488
f 430 488 487
f 430 487 431
f 432 501 502
f 432 502 433
f 432 434 501
f 433 502 435
f 434 482 501
f 435 502 436
f 436 502 501
f 436 501 543
f 436 543 547
f 436 547 602
f 436 602 666
f 436 666 726
f 436 726 783
f 436 783 833
f 436 833 891
f 436 891 948
f 436 948 951
f 436 951 1006
f 436 1006 1069
f 436 1069 1068
f 436 1068 1116
f 436 1116 1146
f 436 1146 1122
f 436 1122 1086
f 436 1086 1084
f 436 1084 1028
f 436 1028 969
f 436 969 968
f 436 968 914
f 436 914 856
f 436 856 803
f 436 803 744
f 436 744 686
f 436 686 685
f 436 685 625
f 436 625 624
f 436 624 622
f 436 622 563
f 436 563 510
f 436 510 509
f 436 509 508
f 436 508 507
f 436 507 506
f 436 506 505
f 436 505 504
f 436 504 443
f 436 443 442
f 436 442 441
f 436 441 503
f 436 503 437
f 437 503 439
f 437 439 438
f 439 503 440
f 440 503 441
f 443 504 444
f 444 504 445
f 445 504 505
f 445 505 446
f 446 505 506
f 446 506 507
f 446 507 447
f 447 507 508
f 447 508 448
f 448 508 509
f 448 509 510
f 448 510 449
f 449 511 450
f 449 510 511
f 450 511 451
f 451 511 512
f 451 512 513
f 451 513 452
f 452 514 453
f 452 513 514
f 453 514 454
f 454 515 516
f 454 516 517
f 454 517 457
f 454 457 455
f 454 514 515
f 456 458 518
f 456 518 519
f 456 519 459
f 457 520 458
f 457 517 521
f 457 521 520
f 458 520 518
f 459 519 460
f 460 519 522
f 460 522 523
f 460 523 524
f 460 524 461
f 461 524 525
f 461 525 462
f 462 525 526
f 462 526 463
f 463 526 464
f 464 526 527
f 464 527 465
f 465 527 528
f 465 528 466
f 466 528 467
f 467 528 529
f 467 529 530
f 469 531 470
f 470 531 532
f 470 532 533
f 470 533 471
f 471 533 473
f 472 473 534
f 472 534 536
f 472 536 474
f 473 533 535
f 473 535 591
f 473 591 534
f 474 536 537
f 474 537 475
f 475 537 476
f 476 537 538
f 476 538 539
f 476 539 480
f 476 480 477
f 478 479 540
f 478 540 541
f 478 541 491
f 478 491 490
f 479 480 540
f 480 539 542
f 480 542 540
f 481 543 501
f 481 501 482
f 481 485 543
f 483 544 484
f 483 489 544
f 484 545 486
f 484 544 546
f 484 546 545
f 485 547 543
f 485 486 545
f 485 545 547
f 488 500 548
f 488 548 489
f 489 548 549
f 489 549 544
f 491 541 550
f 491 550 492
f 492 550 551
f 492 551 552
f 492 552 493
f 493 552 553
f 493 553 494
f 494 553 496
f 494 496 495
f 496 553 497
f 497 553 554
f 497 554 498
f 498 555 556
f 498 556 557
f 498 557 558
f 498 558 499
f 498 554 555
f 499 558 559
f 499 559 560
f 499 560 561
f 499 561 562
f 499 562 500
f 500 562 548
f 510 563 511
f 511 563 512
f 512 564 565
f 512 565 513
f 512 563 564
f 513 565 566
f 513 566 514
f 514 566 567
f 514 567 515
f 515 567 568
f 515 568 516
f 516 568 569
f 516 569 570
f 516 570 571
f 516 571 521
f 516 521 517
f 518 520 519
f 519 520 572
f 519 572 522
f 520 521 573
f 520 573 572
f 521 571 574
f 521 574 575
f 521 575 576
f 521 576 573
f 522 572 523
f 523 572 577
f 523 577 524
f 524 577 578
f 524 578 579
f 524 579 525
f 525 579 580
f 525 580 526
f 526 580 581
f 526 581 582
f 526 582 527
f 527 582 583
f 527 583 528
f 528 583 584
f 528 584 529
f 529 585 530
f 529 584 586
f 529 586 585
f 531 587 532
f 532 587 588
f 532 588 533
f 533 588 589
f 533 589 590
f 533 590 535
f 534 591 593
f 534 593 536
f 535 590 592
f 535 592 656
f 535 656 591
f 536 593 538
f 536 538 537
f 538 593 594
f 538 594 595
f 538 595 539
f 539 595 542
f 540 542 596
f 540 596 550
f 540 550 541
f 542 595 597
f 542 597 598
f 542 598 596
f 544 599 546
f 544 549 600
f 544 600 599
f 545 546 601
f 545 601 602
f 545 602 547
f 546 599 601
f 548 562 603
f 548 603 600
f 548 600 549
f 550 596 551
f 551 596 604
f 551 604 605
f 551 605 606
f 551 606 607
f 551 607 608
f 551 608 609
f 551 609 610
f 551 610 552
f 552 610 553
f 553 610 554
f 554 610 555
f 555 610 611
f 555 611 612
f 555 612 613
f 555 613 556
f 556 613 614
f 556 614 615
f 556 615 559
f 556 559 558
f 556 558 557
f 559 615 616
f 559 616 617
f 559 617 560
f 560 617 618
f 560 618 561
f 561 619 620
f 561 620 562
f 561 618 621
f 561 621 619
f 562 620 603
f 563 622 564
f 564 622 565
f 565 623 566
f 565 622 624
f 565 624 625
f 565 625 623
f 566 623 626
f 566 626 627
f 566 627 567
f 567 627 628
f 567 628 568
f 568 628 569
f 569 629 630
f 569 630 574
f 569 574 570
f 569 628 629
f 570 574 571
f 572 573 631
f 572 631 577
f 573 576 631
f 574 630 632
f 574 632 575
f 575 633 634
f 575 634 635
f 575 635 636
f 575 636 576
f 575 632 637
f 575 637 638
f 575 638 633
f 576 636 639
f 576 639 635
f 576 635 640
f 576 640 641
f 576 641 631
f 577 631 642
f 577 642 643
f 577 643 578
f 578 643 644
f 578 644 579
f 579 644 580
f 580 644 645
f 580 645 581
f 581 645 646
f 581 646 582
f 582 646 647
f 582 647 583
f 583 647 648
f 583 648 649
f 583 649 584
f 584 649 650
f 584 650 586
f 587 651 588
f 588 651 652
f 588 652 589
f 589 652 653
f 589 653 654
f 589 654 590
f 590 654 655
f 590 655 592
f 591 656 658
f 591 658 593
f 592 655 657
f 592 657 656
f 593 658 594
f 594 658 659
f 594 659 660
f 594 660 595
f 595 660 597
f 596 598 604
f 597 660 661
f 597 661 604
f 597 604 598
f 599 600 662
f 599 662 601
f 600 603 663
f 600 663 664
f 600 664 662
f 601 662 665
f 601 665 602
f 602 665 662
f 602 662 667
f 602 667 668
f 602 668 666
f 603 620 619
f 603 619 663
f 604 661 724
f 604 724 669
f 604 669 670
f 604 670 606
f 604 606 605
f 606 670 607
f 607 670 671
f 607 671 672
f 607 672 608
f 608 672 673
f 608 673 609
f 609 673 610
f 610 673 674
f 610 674 611
f 611 674 675
f 611 675 676
f 611 676 613
f 611 613 612
f 613 676 677
f 613 677 614
f 614 616 615
f 614 677 679
f 614 679 616
f 616 678 617
f 616 679 678
f 617 678 618
f 618 678 680
f 618 680 621
f 619 621 681
f 619 681 682
f 619 682 663
f 621 680 683
f 621 683 681
f 623 684 626
f 623 625 685
f 623 685 686
f 623 686 684
f 626 684 687
f 626 687 627
f 627 687 688
f 627 688 689
f 627 689 628
f 628 689 629
f 629 689 688
f 629 688 690
f 629 690 691
f 629 691 630
f 630 691 632
f 631 641 692
f 631 692 643
f 631 643 642
f 632 691 693
f 632 693 694
f 632 694 695
f 632 695 696
f 632 696 697
f 632 697 698
f 632 698 699
f 632 699 700
f 632 700 638
f 632 638 637
f 633 640 701
f 633 701 634
f 633 638 702
f 633 702 703
f 633 703 704
f 633 704 705
f 633 705 640
f 634 701 635
f 635 639 636
f 635 701 640
f 638 700 706
f 638 706 702
f 640 705 707
f 640 707 641
f 641 707 708
f 641 708 643
f 641 643 692
f 643 708 644
f 644 708 709
f 644 709 710
f 644 710 645
f 645 710 711
f 645 711 712
f 645 712 646
f 646 712 713
f 646 713 647
f 647 713 714
f 647 714 648
f 648 714 715
f 648 715 649
f 649 715 716
f 649 716 717
f 649 717 650
f 652 718 653
f 653 718 719
f 653 719 720
f 653 720 654
f 654 720 721
f 654 721 655
f 655 721 657
f 656 657 659
f 656 659 658
f 657 721 722
f 657 722 723
f 657 723 659
f 659 723 661
f 659 661 660
f 661 723 780
f 661 780 724
f 662 664 667
f 663 682 664
f 664 725 668
f 664 668 667
f 664 682 725
f 666 668 727
f 666 727 726
f 668 725 727
f 669 724 728
f 669 728 729
f 669 729 670
f 670 729 671
f 671 729 672
f 672 729 730
f 672 730 731
f 672 731 673
f 673 731 732
f 673 732 675
f 673 675 674
f 675 732 676
f 676 732 677
f 677 731 730
f 677 730 788
f 677 788 733
f 677 733 789
f 677 789 734
f 677 734 679
f 677 732 731
f 678 679 734
f 678 734 735
f 678 735 736
f 678 736 680
f 680 736 737
f 680 737 683
f 681 683 741
f 681 741 738
f 681 738 739
f 681 739 682
f 682 739 740
f 682 740 725
f 683 737 741
f 684 742 743
f 684 743 687
f 684 686 744
f 684 744 742
f 687 743 688
f 688 745 746
f 688 746 690
f 688 743 745
f 690 746 747
f 690 747 748
f 690 748 691
f 691 748 749
f 691 749 693
f 693 749 750
f 693 750 751
f 693 751 752
f 693 752 694
f 694 752 695
f 695 752 696
f 696 752 753
f 696 753 754
f 696 754 697
f 697 755 698
f 697 754 755
f 698 755 756
f 698 756 757
f 698 757 699
f 699 757 700
f 700 758 702
f 700 702 759
f 700 759 706
f 700 757 760
f 700 760 761
f 700 761 762
f 700 762 758
f 702 706 759
f 702 758 763
f 702 763 762
f 702 762 764
f 702 764 705
f 702 705 704
f 702 704 703
f 705 764 765
f 705 765 766
f 705 766 707
f 707 766 708
f 708 766 709
f 709 766 767
f 709 767 710
f 710 767 768
f 710 768 711
f 711 768 712
f 712 768 769
f 712 769 713
f 713 769 770
f 713 770 771
f 713 771 714
f 714 771 715
f 715 772 773
f 715 773 716
f 715 771 772
f 716 774 717
f 716 773 774
f 718 775 719
f 719 775 776
f 719 776 720
f 720 776 777
f 720 777 721
f 721 777 778
f 721 778 779
f 721 779 722
f 722 779 780
f 722 780 723
f 724 780 781
f 724 781 782
f 724 782 728
f 725 740 727
f 726 727 784
f 726 784 785
f 726 785 786
f 726 786 783
f 727 740 784
f 728 782 787
f 728 787 788
f 728 788 730
f 728 730 729
f 733 788 790
f 733 790 789
f 734 789 735
f 735 789 791
f 735 791 792
f 735 792 793
f 735 793 736
f 736 793 737
f 737 793 792
f 737 792 794
f 737 794 795
f 737 795 796
f 737 796 797
f 737 797 798
f 737 798 741
f 738 741 798
f 738 798 799
f 738 799 800
f 738 800 739
f 739 800 801
f 739 801 740
f 740 801 784
f 742 744 743
f 743 744 802
f 743 802 745
f 744 803 802
f 745 802 804
f 745 804 805
f 745 805 806
f 745 806 746
f 746 806 747
f 747 807 808
f 747 808 809
f 747 809 749
f 747 749 748
f 747 806 807
f 749 809 810
f 749 810 750
f 750 810 751
f 751 810 811
f 751 811 812
f 751 812 754
f 751 754 752
f 752 754 753
f 754 756 755
f 754 812 813
f 754 813 814
f 754 814 761
f 754 761 756
f 756 761 760
f 756 760 757
f 758 762 763
f 761 815 762
f 761 814 816
f 761 816 817
f 761 817 818
f 761 818 815
f 762 815 764
f 764 819 765
f 764 815 819
f 765 820 768
f 765 768 767
f 765 767 766
f 765 819 876
f 765 876 820
f 768 820 821
f 768 821 769
f 769 821 770
f 770 821 822
f 770 822 771
f 771 822 823
f 771 823 772
f 772 823 824
f 775 825 776
f 776 825 826
f 776 826 827
f 776 827 777
f 777 827 778
f 778 827 828
f 778 828 829
f 778 829 779
f 779 829 781
f 779 781 780
f 781 829 830
f 781 830 831
f 781 831 832
f 781 832 782
f 782 832 787
f 783 786 833
f 784 801 785
f 785 801 786
f 786 801 834
f 786 834 835
f 786 835 836
f 786 836 833
f 787 832 837
f 787 837 790
f 787 790 788
f 789 790 838
f 789 838 839
f 789 839 791
f 790 837 840
f 790 840 841
f 790 841 838
f 791 839 842
f 791 842 843
f 791 843 844
f 791 844 792
f 792 844 845
f 792 845 905
f 792 905 846
f 792 846 847
f 792 847 794
f 794 847 795
f 795 848 796
f 795 847 849
f 795 849 850
f 795 850 851
f 795 851 848
f 796 848 797
f 797 848 852
f 797 852 853
f 797 853 854
f 797 854 799
f 797 799 798
f 799 854 800
f 800 855 834
f 800 834 801
f 800 854 853
f 800 853 855
f 802 803 804
f 803 856 857
f 803 857 804
f 804 857 805
f 805 858 806
f 805 857 858
f 806 858 859
f 806 859 807
f 807 860 861
f 807 861 862
f 807 862 863
f 807 863 808
f 807 859 860
f 808 863 864
f 808 864 865
f 808 865 866
f 808 866 809
f 809 866 810
f 810 866 811
f 811 866 867
f 811 867 868
f 811 868 813
f 811 813 812
f 813 868 869
f 813 869 816
f 813 816 814
f 815 870 819
f 815 818 870
f 816 871 872
f 816 872 817
f 816 869 871
f 817 873 818
f 817 872 874
f 817 874 935
f 817 935 873
f 818 873 875
f 818 875 870
f 819 870 876
f 820 876 821
f 821 876 877
f 821 877 878
f 821 878 822
f 822 878 823
f 823 878 879
f 823 879 880
f 823 880 881
f 823 881 824
f 824 881 880
f 824 880 882
f 825 883 826
f 826 883 884
f 826 884 885
f 826 885 886
f 826 886 827
f 827 886 887
f 827 887 888
f 827 888 828
f 828 888 830
f 828 830 829
f 830 888 889
f 830 889 890
f 830 890 831
f 831 890 832
f 832 890 837
f 833 836 892
f 833 892 893
f 833 893 891
f 834 855 894
f 834 894 835
f 835 894 913
f 835 913 895
f 835 895 836
f 836 895 896
f 836 896 892
f 837 890 947
f 837 947 897
f 837 897 841
f 837 841 840
f 838 841 898
f 838 898 843
f 838 843 899
f 838 899 842
f 838 842 839
f 841 897 900
f 841 900 898
f 842 899 843
f 843 898 900
f 843 900 901
f 843 901 902
f 843 902 844
f 844 902 903
f 844 903 904
f 844 904 845
f 845 904 958
f 845 958 905
f 846 905 959
f 846 959 906
f 846 906 849
f 846 849 847
f 848 907 852
f 848 851 910
f 848 910 907
f 849 906 960
f 849 960 908
f 849 908 909
f 849 909 850
f 850 909 910
f 850 910 851
f 852 907 911
f 852 911 912
f 852 912 853
f 853 912 913
f 853 913 894
f 853 894 855
f 856 914 857
f 857 915 858
f 857 914 915
f 858 915 916
f 858 916 917
f 858 917 859
f 859 917 918
f 859 918 860
f 860 919 861
f 860 918 919
f 861 919 920
f 861 920 921
f 861 921 922
f 861 922 864
f 861 864 862
f 862 864 863
f 864 922 979
f 864 979 923
f 864 923 924
f 864 924 925
f 864 925 865
f 865 925 867
f 865 867 866
f 867 925 926
f 867 926 868
f 868 926 983
f 868 983 927
f 868 927 931
f 868 931 928
f 868 928 869
f 869 928 871
f 870 929 877
f 870 877 876
f 870 875 934
f 870 934 929
f 871 930 874
f 871 874 872
f 871 928 931
f 871 931 932
f 871 932 930
f 873 933 934
f 873 934 875
f 873 935 933
f 874 930 936
f 874 936 935
f 877 929 878
f 878 929 937
f 878 937 938
f 878 938 879
f 879 938 880
f 880 939 940
f 880 940 882
f 880 938 941
f 880 941 939
f 885 942 886
f 886 942 943
f 886 943 887
f 887 943 944
f 887 944 945
f 887 945 888
f 888 945 889
f 889 945 946
f 889 946 947
f 889 947 890
f 891 893 948
f 892 896 893
f 893 896 949
f 893 949 950
f 893 950 951
f 893 951 948
f 895 913 896
f 896 913 967
f 896 967 949
f 897 947 900
f 900 952 901
f 900 947 952
f 901 952 953
f 901 953 954
f 901 954 955
f 901 955 956
f 901 956 902
f 902 956 957
f 902 957 903
f 903 958 904
f 903 957 959
f 903 959 958
f 905 958 959
f 906 959 1016
f 906 1016 960
f 907 961 965
f 907 965 911
f 907 910 964
f 907 964 961
f 908 960 962
f 908 962 963
f 908 963 909
f 909 963 910
f 910 963 1021
f 910 1021 964
f 911 965 966
f 911 966 912
f 912 966 1025
f 912 1025 967
f 912 967 913
f 914 968 915
f 915 968 969
f 915 969 916
f 916 970 971
f 916 971 917
f 916 969 970
f 917 971 918
f 918 971 972
f 918 972 973
f 918 973 919
f 919 974 920
f 919 973 974
f 920 975 921
f 920 974 975
f 921 975 976
f 921 976 977
f 921 977 1042
f 921 1042 978
f 921 978 979
f 921 979 922
f 923 979 1044
f 923 1044 980
f 923 980 924
f 924 980 981
f 924 981 982
f 924 982 925
f 925 982 981
f 925 981 983
f 925 983 926
f 927 983 984
f 927 984 931
f 929 934 985
f 929 985 937
f 930 986 936
f 930 932 987
f 930 987 988
f 930 988 986
f 931 984 988
f 931 988 987
f 931 987 932
f 933 989 985
f 933 985 934
f 933 935 990
f 933 990 991
f 933 991 989
f 935 936 990
f 936 992 990
f 936 986 993
f 936 993 1054
f 936 1054 992
f 937 985 994
f 937 994 938
f 938 994 995
f 938 995 996
f 938 996 941
f 942 997 943
f 943 998 999
f 943 999 1000
f 943 1000 944
f 943 997 998
f 944 1000 945
f 945 1000 1001
f 945 1001 946
f 946 1001 1002
f 946 1002 952
f 946 952 947
f 949 967 1003
f 949 1003 1004
f 949 1004 950
f 950 1004 1005
f 950 1005 1006
f 950 1006 951
f 952 1002 1007
f 952 1007 953
f 953 1007 954
f 954 1008 955
f 954 1007 1009
f 954 1009 1071
f 954 1071 1008
f 955 1008 1010
f 955 1010 1011
f 955 1011 1012
f 955 1012 956
f 956 1012 1013
f 956 1013 957
f 957 1013 1014
f 957 1014 1015
f 957 1015 1016
f 957 1016 959
f 960 1017 962
f 960 1016 1017
f 961 1018 1019
f 961 1019 1020
f 961 1020 965
f 961 964 1018
f 962 1017 1077
f 962 1077 1080
f 962 1080 1021
f 962 1021 963
f 964 1022 1018
f 964 1021 1023
f 964 1023 1022
f 965 1020 1024
f 965 1024 966
f 966 1024 1026
f 966 1026 1027
f 966 1027 1025
f 967 1025 1067
f 967 1067 1003
f 969 1028 1029
f 969 1029 1030
f 969 1030 970
f 970 1030 971
f 971 1030 972
f 972 1031 973
f 972 1030 1029
f 972 1029 1032
f 972 1032 1033
f 972 1033 1034
f 972 1034 1031
f 973 1031 974
f 974 1031 1034
f 974 1034 1035
f 974 1035 975
f 975 1035 976
f 976 1036 1037
f 976 1037 977
f 976 1035 1038
f 976 1038 1039
f 976 1039 1036
f 977 1037 1040
f 977 1040 1041
f 977 1041 1042
f 978 1042 1094
f 978 1094 1043
f 978 1043 1044
f 978 1044 979
f 980 1044 1045
f 980 1045 981
f 981 1045 1046
f 981 1046 984
f 981 984 983
f 984 1046 988
f 985 989 1047
f 985 1047 994
f 986 1048 1057
f 986 1057 993
f 986 988 1049
f 986 1049 1050
f 986 1050 1048
f 988 1051 1049
f 988 1046 1052
f 988 1052 1051
f 989 991 1053
f 989 1053 1047
f 990 992 991
f 991 992 1053
f 992 1054 1055
f 992 1055 1056
f 992 1056 1053
f 993 1057 1102
f 993 1102 1054
f 994 1047 1058
f 994 1058 995
f 995 1059 996
f 995 1058 1059
f 999 1060 1061
f 999 1061 1000
f 999 1062 1063
f 999 1063 1060
f 1000 1064 1065
f 1000 1065 1001
f 1000 1061 1064
f 1001 1065 1002
f 1002 1066 1007
f 1002 1065 1066
f 1003 1067 1004
f 1004 1067 1027
f 1004 1027 1083
f 1004 1083 1082
f 1004 1082 1079
f 1004 1079 1019
f 1004 1019 1018
f 1004 1018 1022
f 1004 1022 1081
f 1004 1081 1120
f 1004 1120 1076
f 1004 1076 1075
f 1004 1075 1078
f 1004 1078 1074
f 1004 1074 1073
f 1004 1073 1011
f 1004 1011 1010
f 1004 1010 1008
f 1004 1008 1071
f 1004 1071 1119
f 1004 1119 1149
f 1004 1149 1157
f 1004 1157 1156
f 1004 1156 1155
f 1004 1155 1162
f 1004 1162 1161
f 1004 1161 1168
f 1004 1168 1172
f 1004 1172 1176
f 1004 1176 1180
f 1004 1180 1186
f 1004 1186 1193
f 1004 1193 1196
f 1004 1196 1195
f 1004 1195 1200
f 1004 1200 1212
f 1004 1212 1211
f 1004 1211 1210
f 1004 1210 1209
f 1004 1209 1208
f 1004 1208 1207
f 1004 1207 1206
f 1004 1206 1205
f 1004 1205 1204
f 1004 1204 1203
f 1004 1203 1217
f 1004 1217 1228
f 1004 1228 1227
f 1004 1227 1226
f 1004 1226 1225
f 1004 1225 1224
f 1004 1224 1223
f 1004 1223 1222
f 1004 1222 1221
f 1004 1221 1220
f 1004 1220 1219
f 1004 1219 1218
f 1004 1218 1215
f 1004 1215 1214
f 1004 1214 1201
f 1004 1201 1198
f 1004 1198 1188
f 1004 1188 1182
f 1004 1182 1177
f 1004 1177 1173
f 1004 1173 1169
f 1004 1169 1163
f 1004 1163 1158
f 1004 1158 1152
f 1004 1152 1135
f 1004 1135 1134
f 1004 1134 1140
f 1004 1140 1108
f 1004 1108 1107
f 1004 1107 1128
f 1004 1128 1127
f 1004 1127 1130
f 1004 1130 1129
f 1004 1129 1125
f 1004 1125 1093
f 1004 1093 1041
f 1004 1041 1095
f 1004 1095 1089
f 1004 1089 1036
f 1004 1036 1091
f 1004 1091 1092
f 1004 1092 1124
f 1004 1124 1150
f 1004 1150 1145
f 1004 1145 1116
f 1004 1116 1068
f 1004 1068 1005
f 1005 1068 1069
f 1005 1069 1006
f 1007 1066 1070
f 1007 1070 1072
f 1007 1072 1009
f 1009 1072 1071
f 1011 1073 1012
f 1012 1073 1013
f 1013 1073 1074
f 1013 1074 1014
f 1014 1075 1076
f 1014 1076 1077
f 1014 1077 1017
f 1014 1017 1015
f 1014 1074 1078
f 1014 1078 1075
f 1015 1017 1016
f 1019 1079 1024
f 1019 1024 1020
f 1021 1022 1023
f 1021 1080 1022
f 1022 1080 1081
f 1024 1079 1026
f 1025 1027 1067
f 1026 1079 1082
f 1026 1082 1083
f 1026 1083 1027
f 1028 1084 1029
f 1029 1084 1032
f 1032 1085 1033
f 1032 1084 1086
f 1032 1086 1085
f 1033 1085 1087
f 1033 1087 1034
f 1034 1087 1088
f 1034 1088 1038
f 1034 1038 1035
f 1036 1089 1090
f 1036 1090 1040
f 1036 1040 1037
f 1036 1039 1091
f 1038 1088 1092
f 1038 1092 1039
f 1039 1092 1091
f 1040 1090 1041
f 1041 1093 1094
f 1041 1094 1042
f 1041 1090 1095
f 1043 1094 1126
f 1043 1126 1096
f 1043 1096 1097
f 1043 1097 1044
f 1044 1097 1045
f 1045 1052 1046
f 1045 1097 1050
f 1045 1050 1051
f 1045 1051 1052
f 1047 1053 1058
f 1048 1050 1099
f 1048 1099 1098
f 1048 1098 1057
f 1049 1051 1050
f 1050 1097 1096
f 1050 1096 1126
f 1050 1126 1125
f 1050 1125 1129
f 1050 1129 1099
f 1053 1056 1100
f 1053 1100 1101
f 1053 1101 1058
f 1054 1102 1103
f 1054 1103 1055
f 1055 1103 1104
f 1055 1104 1105
f 1055 1105 1106
f 1055 1106 1100
f 1055 1100 1056
f 1057 1098 1107
f 1057 1107 1108
f 1057 1108 1109
f 1057 1109 1102
f 1058 1101 1110
f 1058 1110 1111
f 1058 1111 1059
f 1060 1063 1061
f 1061 1063 1064
f 1062 1112 1063
f 1063 1113 1064
f 1063 1112 1114
f 1063 1114 1113
f 1064 1113 1066
f 1064 1066 1065
f 1066 1113 1115
f 1066 1115 1070
f 1070 1115 1117
f 1070 1117 1072
f 1071 1072 1117
f 1071 1117 1118
f 1071 1118 1119
f 1076 1120 1077
f 1077 1120 1080
f 1080 1120 1081
f 1085 1121 1087
f 1085 1086 1122
f 1085 1122 1121
f 1087 1121 1123
f 1087 1123 1088
f 1088 1123 1092
f 1089 1095 1090
f 1092 1123 1124
f 1093 1125 1094
f 1094 1125 1126
f 1098 1099 1127
f 1098 1127 1128
f 1098 1128 1107
f 1099 1129 1130
f 1099 1130 1127
f 1100 1106 1101
f 1101 1131 1132
f 1101 1132 1110
f 1101 1106 1131
f 1102 1109 1103
f 1103 1109 1104
f 1104 1133 1105
f 1104 1109 1134
f 1104 1134 1135
f 1104 1135 1136
f 1104 1136 1137
f 1104 1137 1138
f 1104 1138 1133
f 1105 1133 1106
f 1106 1133 1139
f 1106 1139 1131
f 1108 1140 1109
f 1109 1140 1134
f 1112 1141 1114
f 1113 1142 1115
f 1113 1114 1142
f 1114 1141 1143
f 1114 1143 1144
f 1114 1144 1142
f 1115 1142 1118
f 1115 1118 1117
f 1116 1145 1121
f 1116 1121 1146
f 1118 1142 1144
f 1118 1144 1143
f 1118 1143 1147
f 1118 1147 1148
f 1118 1148 1149
f 1118 1149 1119
f 1121 1145 1123
f 1121 1122 1146
f 1123 1150 1124
f 1123 1145 1150
f 1131 1139 1138
f 1131 1138 1151
f 1133 1138 1139
f 1135 1152 1137
f 1135 1137 1136
f 1137 1153 1151
f 1137 1151 1138
f 1137 1152 1153
f 1148 1154 1155
f 1148 1155 1156
f 1148 1156 1157
f 1148 1157 1149
f 1152 1158 1159
f 1152 1159 1153
f 1154 1160 1161
f 1154 1161 1162
f 1154 1162 1155
f 1158 1163 1164
f 1158 1164 1165
f 1158 1165 1166
f 1158 1166 1159
f 1160 1167 1161
f 1161 1167 1168
f 1163 1169 1164
f 1164 1169 1170
f 1167 1171 1172
f 1167 1172 1168
f 1169 1173 1174
f 1169 1174 1170
f 1171 1175 1172
f 1172 1175 1176
f 1173 1177 1174
f 1174 1177 1178
f 1175 1179 1180
f 1175 1180 1176
f 1177 1181 1178
f 1177 1182 1181
f 1179 1183 1180
f 1180 1183 1184
f 1180 1184 1185
f 1180 1185 1186
f 1181 1182 1187
f 1182 1188 1189
f 1182 1189 1190
f 1182 1190 1191
f 1182 1191 1192
f 1182 1192 1187
f 1185 1193 1186
f 1185 1194 1195
f 1185 1195 1196
f 1185 1196 1193
f 1188 1197 1189
f 1188 1198 1197
f 1194 1199 1200
f 1194 1200 1195
f 1197 1198 1201
f 1197 1201 1202
f 1199 1203 1204
f 1199 1204 1205
f 1199 1205 1206
f 1199 1206 1207
f 1199 1207 1208
f 1199 1208 1209
f 1199 1209 1210
f 1199 1210 1211
f 1199 1211 1212
f 1199 1212 1200
f 1199 1213 1203
f 1201 1214 1202
f 1202 1214 1215
f 1202 1215 1216
f 1203 1213 1216
f 1203 1216 1217
f 1215 1218 1216
f 1216 1218 1219
f 1216 1219 1220
f 1216 1220 1221
f 1216 1221 1222
f 1216 1222 1223
f 1216 1223 1224
f 1216 1224 1225
f 1216 1225 1226
f 1216 1226 1227
f 1216 1227 1228
f 1216 1228 1217

