# https://github.com/mikedh/trimesh
v 0.68215445 0.03585943 0.23069426
v 0.68268963 -0.36974014 0.23069426
v 0.68295715 -0.53059376 0.21065182
v 0.68215445 0.03585943 0.22528135
v 0.68161939 0.03585943 0.24527504
v 0.68268963 -0.53059376 0.23142575
v 0.68175321 -0.28967374 0.25068795
v 0.68268963 -0.52981747 0.19065814
v 0.68202074 0.03585943 0.21065182
v 0.68242198 -0.53059376 0.17066445
v 0.68068298 0.03585943 0.26448847
v 0.68175321 -0.53059376 0.25146820
v 0.68054927 -0.26965712 0.27068163
v 0.68242198 -0.52981747 0.17066445
v 0.68188692 -0.52981747 0.15062202
v 0.68095050 -0.53059376 0.13062833
v 0.68175321 0.03585943 0.20528767
v 0.68188692 -0.53059376 0.15062202
v 0.67814139 -0.28967374 0.31066900
v 0.67787386 0.03585943 0.31066900
v 0.67814139 -0.36974014 0.31066900
v 0.68054927 -0.53059376 0.27068163
v 0.68081680 0.03585943 0.19065814
v 0.68001421 -0.53059376 0.11936359
v 0.68001421 -0.52981747 0.11941237
v 0.67693744 0.03585943 0.32529852
v 0.67680362 -0.24964054 0.33066268
v 0.67546597 -0.24964054 0.35070513
v 0.67546597 -0.42973449 0.35070513
v 0.67680362 -0.42973449 0.33066268
v 0.67988039 -0.53059376 0.28101983
v 0.67988039 0.03585943 0.18031994
v 0.67733880 -0.53059376 0.10936674
v 0.67747250 0.03585943 0.17032309
v 0.67426203 0.03585943 0.36533465
v 0.67412820 -0.26965712 0.37069881
v 0.67412820 -0.34972355 0.37069881
v 0.67399450 -0.46976772 0.37069881
v 0.67533215 -0.48978430 0.35070513
v 0.67653609 -0.53059376 0.33144292
v 0.67787386 -0.53059376 0.31144924
v 0.67800756 -0.48978430 0.31066900
v 0.66784096 -0.53059376 0.08976320
v 0.66636949 -0.53059376 0.08698357
v 0.67479709 0.03585943 0.16573919
v 0.66570073 0.03585943 0.48539427
v 0.66529937 0.01040894 0.49075843
v 0.67238920 -0.48978430 0.39069249
v 0.67225550 -0.53059376 0.39069249
v 0.67386068 -0.50980089 0.37069881
v 0.67519844 -0.53059376 0.35070513
v 0.66503184 -0.16968503 0.49075843
v 0.66463049 -0.42973449 0.49075843
v 0.66034990 -0.53059376 0.07874228
v 0.66743973 0.03585943 0.15325533
v 0.66529937 0.03585943 0.49075843
v 0.66222261 0.03585943 0.50641203
v 0.66222261 -0.04958541 0.50616820
v 0.66208890 -0.20966277 0.50582684
v 0.67372697 -0.53059376 0.37147905
v 0.66436296 -0.48978430 0.49075843
v 0.66556690 -0.53059376 0.47154500
v 0.66182137 -0.44975110 0.50504660
v 0.66168755 -0.48978430 0.50494908
v 0.64978195 -0.53059376 0.07084235
v 0.64938071 -0.53059376 0.07054974
v 0.66275778 0.03585943 0.15067077
v 0.65713931 0.03585943 0.51640887
v 0.65713931 0.03042555 0.51640887
v 0.65713931 -0.10963521 0.51626258
v 0.66208890 -0.14966841 0.50611942
v 0.66208890 -0.18970161 0.50592438
v 0.65713931 -0.12965181 0.51616505
v 0.66155384 -0.50980089 0.50485154
v 0.66142002 -0.53059376 0.50470525
v 0.66396173 -0.53059376 0.49075843
v 0.65633672 -0.48978430 0.51494593
v 0.65620301 -0.53059376 0.51470207
v 0.66128619 -0.53059376 0.50509536
v 0.63426452 -0.53059376 0.06416154
v 0.64978195 0.03585943 0.14369738
v 0.64710653 0.03585943 0.52689336
v 0.64710653 -0.00955220 0.52699090
v 0.64710653 -0.12965181 0.52684458
v 0.64643765 -0.40971790 0.52689336
v 0.64630394 -0.46976772 0.52655200
v 0.64630394 -0.48978430 0.52635693
v 0.64617012 -0.53059376 0.52596682
v 0.62985011 -0.53059376 0.06284488
v 0.64443112 0.03585943 0.14306341
v 0.63573599 0.03585943 0.53420811
v 0.63172293 0.01040894 0.53698774
v 0.63185664 -0.00955220 0.53698774
v 0.63199046 -0.04958541 0.53693896
v 0.63185664 -0.40971790 0.53689020
v 0.63185664 -0.42973449 0.53684142
v 0.64630394 -0.44975110 0.52669829
v 0.63132158 -0.46976772 0.53654884
v 0.63105405 -0.48978430 0.53635377
v 0.63065269 -0.50980089 0.53615873
v 0.63011764 -0.53059376 0.53601241
v 0.62985011 0.03585943 0.14140540
v 0.60978456 -0.53059376 0.06079672
v 0.63145540 0.03585943 0.53689020
v 0.63158911 0.03042555 0.53689020
v 0.62182386 0.01040894 0.54162042
v 0.62195769 -0.02956881 0.54171793
v 0.62195769 -0.40971790 0.54171793
v 0.62182386 -0.42973449 0.54166918
v 0.62169016 -0.44975110 0.54157164
v 0.62102127 -0.48978430 0.54132782
v 0.62061992 -0.50980089 0.54118153
v 0.62008486 -0.53059376 0.54093770
v 0.52978966 -0.08961861 0.11395068
v 0.53045843 -0.06849306 0.11712039
v 0.50972400 -0.06960201 0.11512104
v 0.48965839 -0.05546286 0.11780311
v 0.62436557 0.03585943 0.14130789
v 0.48965839 -0.06960201 0.11487722
v -0.61073972 -0.53059376 0.05952885
v 0.62423175 0.03585943 0.54025499
v 0.62155633 0.03585943 0.54147410
v 0.55293198 0.03585943 0.55771289
v 0.55333321 -0.02956881 0.55771289
v 0.55346704 -0.14966841 0.55771289
v 0.55346704 -0.17256831 0.55771289
v 0.55293198 -0.33297836 0.55771289
v 0.55279815 -0.37306702 0.55771289
v 0.55253062 -0.38970129 0.55771289
v 0.62128880 -0.46976772 0.54147410
v 0.55132668 -0.40971790 0.55771289
v 0.60978456 -0.53059376 0.54240065
v 0.54744733 -0.42951270 0.55771289
v 0.46972655 -0.05540742 0.11780311
v 0.24418906 0.03585943 0.13964988
v 0.30425213 0.03585943 0.13969863
v 0.34424958 0.03585943 0.13974738
v 0.40431267 0.03585943 0.13984492
v 0.44431011 0.03585943 0.13994246
v 0.48430756 0.03585943 0.14008874
v 0.50437317 0.03585943 0.14018628
v 0.52978966 0.03585943 0.14033257
v 0.54972150 0.03585943 0.14047889
v 0.57259629 0.03585943 0.14067393
v 0.60978456 0.03585943 0.14106407
v 0.12954755 -0.06960201 0.11482844
v 0.02948703 -0.05501927 0.11775436
v 0.10948194 -0.05507473 0.11775436
v 0.16954500 -0.05513018 0.11775436
v -0.62104015 -0.53059376 0.06084551
v -0.63080539 0.03585943 0.14155172
v -0.53074483 -0.06960201 0.11565745
v -0.51067928 -0.06960201 0.11541362
v -0.31055822 -0.06960201 0.11502351
v -0.11043717 -0.06960201 0.11487722
v -0.55428850 0.03585943 0.55771289
v 0.60898185 -0.53059376 0.54249818
v 0.52724795 -0.46760524 0.55771289
v 0.00407059 0.03585943 0.13955234
v -0.11043717 -0.05490838 0.11780311
v -0.15591922 0.03585943 0.13955234
v -0.63080539 -0.53059376 0.06225970
v -0.65073723 0.03585943 0.14418503
v -0.61609055 0.03585943 0.14125911
v -0.61073972 0.03585943 0.14116158
v -0.59615871 0.03585943 0.14096653
v -0.56485633 0.03585943 0.14062517
v -0.55402097 0.03585943 0.14052764
v -0.47068177 -0.05596189 0.11829076
v -0.45061617 -0.05574010 0.11819322
v -0.43068433 -0.05562920 0.11809571
v -0.33062382 -0.05501927 0.11790064
v -0.19056584 -0.05501927 0.11780311
v -0.62264532 0.03585943 0.54157164
v -0.55428850 0.03369698 0.55771289
v 0.58971889 -0.53059376 0.54381484
v 0.50798500 -0.48784361 0.55771289
v 0.48404000 -0.50403433 0.55771289
v 0.46986031 -0.51035539 0.55771289
v -0.23591414 0.03585943 0.13960110
v -0.65073723 -0.53059376 0.07054974
v -0.65541918 0.03585943 0.14672080
v -0.51067928 0.03585943 0.14023506
v -0.47068177 0.03585943 0.14003999
v -0.43603515 0.03585943 0.13994246
v -0.39068688 0.03585943 0.13984492
v -0.33597465 0.03585943 0.13974738
v -0.27591157 0.03585943 0.13964988
v -0.63267810 0.03585943 0.53698774
v -0.62264532 0.03042555 0.54157164
v -0.55415467 -0.34972355 0.55771289
v 0.44966094 -0.51418125 0.55771289
v 0.42972910 -0.51540112 0.55771289
v 0.42972910 -0.53059376 0.54854506
v -0.65180735 -0.53059376 0.07157382
v -0.66785984 0.03585943 0.15359669
v -0.64792799 0.03585943 0.52699090
v -0.63267810 0.03042555 0.53698774
v -0.62211026 -0.32970694 0.54137660
v -0.55402097 -0.36974014 0.55771289
v 0.40966349 -0.51584469 0.55771289
v 0.40966349 -0.53059376 0.54893517
v -0.66705725 -0.53059376 0.08630088
v -0.66812736 -0.53059376 0.08805640
v -0.67040154 0.03585943 0.15818059
v -0.64792799 -0.02956881 0.52694211
v -0.65782706 0.03585943 0.51587244
v -0.65796077 -0.02956881 0.51587244
v -0.64752676 -0.30969032 0.52664954
v -0.63214304 -0.30969032 0.53664638
v -0.62184274 -0.44975110 0.54123028
v -0.62170891 -0.46976772 0.54123028
v -0.55388714 -0.38970129 0.55771289
v 0.39053427 -0.51601102 0.55771289
v 0.38959786 -0.53059376 0.54913024
v -0.66879625 -0.53059376 0.08956813
v -0.67722384 0.03585943 0.17066445
v -0.64752676 -0.34972355 0.52655200
v -0.65755953 -0.30969032 0.51567740
v -0.65755953 -0.32970694 0.51562862
v -0.66157259 0.03585943 0.50855769
v -0.66304407 0.01040894 0.50587560
v -0.66304407 -0.00955220 0.50592438
v -0.66304407 -0.28967374 0.50568055
v -0.66304407 -0.38970129 0.50558301
v -0.66304407 -0.40971790 0.50553424
v -0.64725911 -0.48978430 0.52640571
v -0.63214304 -0.32970694 0.53659760
v -0.63187551 -0.44975110 0.53640255
v -0.63174180 -0.46976772 0.53640255
v -0.63147427 -0.48978430 0.53640255
v -0.62144138 -0.48978430 0.54108399
v -0.55335208 -0.40600291 0.55771289
v 0.37046867 -0.51612194 0.55771289
v 0.36966602 -0.53059376 0.54922775
v -0.67749137 -0.53059376 0.10985439
v -0.67802643 0.03585943 0.17544343
v -0.68043432 -0.53059376 0.12424010
v -0.64739293 -0.42973449 0.52645446
v -0.65742571 -0.40971790 0.51553108
v -0.66291036 0.03585943 0.50587560
v -0.66612083 0.03585943 0.49075843
v -0.66625466 -0.00955220 0.49075843
v -0.66625466 -0.40971790 0.49075843
v -0.66291036 -0.48978430 0.50519290
v -0.64712541 -0.50980089 0.52625942
v -0.65729200 -0.46976772 0.51523850
v -0.65715818 -0.48978430 0.51518975
v -0.63107292 -0.50980089 0.53630502
v -0.62104015 -0.50980089 0.54093770
v -0.55308456 -0.40971790 0.55771289
v -0.62077262 -0.52138946 0.54084017
v 0.35040303 -0.51617741 0.55771289
v 0.34960041 -0.53059376 0.54927653
v -0.68016679 0.03585943 0.18861001
v -0.68123691 -0.53059376 0.13365176
v -0.68043432 0.03585943 0.19134086
v -0.66785984 0.03585943 0.47076474
v -0.66799366 -0.02956881 0.47076474
v -0.66772613 -0.46976772 0.47076474
v -0.66598713 -0.46976772 0.49075843
v -0.66785984 -0.42973449 0.47076474
v -0.66571948 -0.50980089 0.49075843
v -0.66277654 -0.50980089 0.50494908
v -0.65702447 -0.50980089 0.51494593
v -0.64725911 -0.53059376 0.52562546
v -0.64685788 -0.53059376 0.52606435
v -0.63040404 -0.53059376 0.53601241
v -0.62893256 -0.53059376 0.53684142
v -0.54947273 -0.42729482 0.55771289
v -0.62612345 -0.53059376 0.53806057
v -0.61461908 -0.53059376 0.54157164
v -0.54880384 -0.43023353 0.55771289
v 0.02988834 -0.51645460 0.55771289
v 0.02948703 -0.53059376 0.54971543
v -0.68230714 -0.53059376 0.15062202
v -0.68230714 -0.52981747 0.15062202
v -0.68096938 0.03585943 0.19860685
v -0.67080278 0.03585943 0.43072862
v -0.67093660 -0.02956881 0.43072862
v -0.67093660 -0.26965712 0.43072862
v -0.66732478 -0.53059376 0.47076474
v -0.67214055 -0.53059376 0.41073494
v -0.67227425 -0.48978430 0.41073494
v -0.66545195 -0.53059376 0.49075843
v -0.66264283 -0.53059376 0.50407130
v -0.66250901 -0.53059376 0.50460772
v -0.65689065 -0.53059376 0.51460457
v -0.61207749 -0.53059376 0.54196175
v -0.54813508 -0.43195240 0.55771289
v 0.00942142 -0.51645460 0.55771289
v 0.00875256 -0.53059376 0.54971543
v -0.68297591 -0.53059376 0.16988423
v -0.68163826 0.03585943 0.21065182
v -0.67187302 0.03585943 0.41609910
v -0.67227425 -0.00955220 0.41073494
v -0.67374572 -0.20966277 0.39069249
v -0.67374572 -0.26965712 0.39069249
v -0.67361202 -0.52981747 0.39069249
v -0.67361202 -0.53059376 0.38996101
v -0.59147677 -0.53059376 0.54361977
v -0.48539655 -0.50819291 0.55771289
v -0.48833953 -0.50697304 0.55771289
v -0.49074738 -0.50519874 0.55771289
v -0.50974287 -0.48873079 0.55771289
v -0.51161558 -0.48679013 0.55771289
v -0.52699930 -0.47037762 0.55771289
v -0.52873830 -0.46827060 0.55771289
v -0.53061112 -0.46538736 0.55771289
v -0.27056074 -0.51639919 0.55771289
v -0.25129775 -0.53059376 0.54961789
v -0.68337726 -0.53059376 0.18987790
v -0.68217332 0.01040894 0.23069426
v -0.68177197 0.03585943 0.21606475
v -0.67321066 0.03585943 0.39610542
v -0.67361202 0.01040894 0.39069249
v -0.67494967 -0.10963521 0.37069881
v -0.68016679 -0.52981747 0.29072408
v -0.67896285 -0.53059376 0.30988876
v -0.67494967 -0.53059376 0.37069881
v -0.59067418 -0.53059376 0.54366855
v -0.46787260 -0.51340502 0.55771289
v -0.47068177 -0.51285052 0.55771289
v -0.41061872 -0.51628827 0.55771289
v -0.43068433 -0.51623281 0.55771289
v -0.43135318 -0.53059376 0.54927653
v -0.68364479 -0.53059376 0.21065182
v -0.68150444 0.01040894 0.25068795
v -0.68190579 0.03585943 0.23605842
v -0.68203961 0.03585943 0.23069426
v -0.68337726 -0.50980089 0.23069426
v -0.67481596 0.03585943 0.37069881
v -0.68083567 -0.53059376 0.28004453
v -0.68016679 -0.53059376 0.29072408
v -0.45061617 -0.53059376 0.54883764
v -0.45061617 -0.51562291 0.55771289
v -0.44941223 -0.51567837 0.55771289
v -0.68337726 -0.53059376 0.23069426
v -0.68137073 0.03585943 0.25068795
v -0.68244085 -0.48978430 0.25068795
v -0.68096938 -0.02956881 0.26331811
v -0.68043432 0.01040894 0.27282729
v -0.68083567 0.03585943 0.26253787
v -0.68123691 0.03585943 0.25385769
v -0.67601990 0.03585943 0.35070513
v -0.68137073 -0.48978430 0.26970634
v -0.68137073 -0.52981747 0.27038904
v -0.68137073 -0.53059376 0.27038904
v -0.67842779 -0.04958541 0.31066900
v -0.68244085 -0.53059376 0.25068795
v -0.67949790 -0.00955220 0.29072408
v -0.67909655 0.03585943 0.29608824
v -0.68070185 0.03585943 0.26526871
v -0.67829396 0.03585943 0.31066900
f 1 2 3
f 1 3 4
f 1 4 9
f 1 9 17
f 1 17 23
f 1 23 32
f 1 32 34
f 1 34 45
f 1 45 55
f 1 55 67
f 1 67 81
f 1 81 90
f 1 90 102
f 1 102 118
f 1 118 145
f 1 145 144
f 1 144 143
f 1 143 142
f 1 142 141
f 1 141 140
f 1 140 139
f 1 139 138
f 1 138 137
f 1 137 136
f 1 136 135
f 1 135 159
f 1 159 161
f 1 161 180
f 1 180 188
f 1 188 187
f 1 187 186
f 1 186 185
f 1 185 184
f 1 184 183
f 1 183 168
f 1 168 167
f 1 167 166
f 1 166 165
f 1 165 164
f 1 164 151
f 1 151 163
f 1 163 182
f 1 182 196
f 1 196 205
f 1 205 217
f 1 217 237
f 1 237 255
f 1 255 257
f 1 257 278
f 1 278 294
f 1 294 314
f 1 314 330
f 1 330 329
f 1 329 339
f 1 339 344
f 1 344 343
f 1 343 353
f 1 353 352
f 1 352 354
f 1 354 345
f 1 345 332
f 1 332 315
f 1 315 295
f 1 295 279
f 1 279 258
f 1 258 242
f 1 242 241
f 1 241 221
f 1 221 207
f 1 207 197
f 1 197 189
f 1 189 174
f 1 174 156
f 1 156 123
f 1 123 122
f 1 122 121
f 1 121 104
f 1 104 91
f 1 91 82
f 1 82 68
f 1 68 57
f 1 57 56
f 1 56 46
f 1 46 35
f 1 35 26
f 1 26 20
f 1 20 11
f 1 11 5
f 1 5 2
f 2 6 3
f 2 5 7
f 2 7 6
f 3 8 9
f 3 9 4
f 3 6 12
f 3 12 22
f 3 22 31
f 3 31 41
f 3 41 40
f 3 40 51
f 3 51 60
f 3 60 49
f 3 49 62
f 3 62 76
f 3 76 75
f 3 75 79
f 3 79 78
f 3 78 88
f 3 88 101
f 3 101 113
f 3 113 132
f 3 132 157
f 3 157 176
f 3 176 194
f 3 194 202
f 3 202 215
f 3 215 235
f 3 235 254
f 3 254 275
f 3 275 292
f 3 292 311
f 3 311 326
f 3 326 335
f 3 335 321
f 3 321 301
f 3 301 289
f 3 289 272
f 3 272 271
f 3 271 269
f 3 269 268
f 3 268 267
f 3 267 266
f 3 266 288
f 3 288 287
f 3 287 286
f 3 286 285
f 3 285 282
f 3 282 283
f 3 283 300
f 3 300 320
f 3 320 319
f 3 319 334
f 3 334 333
f 3 333 348
f 3 348 350
f 3 350 338
f 3 338 327
f 3 327 312
f 3 312 293
f 3 293 276
f 3 276 256
f 3 256 238
f 3 238 236
f 3 236 216
f 3 216 204
f 3 204 203
f 3 203 195
f 3 195 181
f 3 181 162
f 3 162 150
f 3 150 120
f 3 120 103
f 3 103 89
f 3 89 80
f 3 80 66
f 3 66 65
f 3 65 54
f 3 54 44
f 3 44 43
f 3 43 33
f 3 33 24
f 3 24 16
f 3 16 18
f 3 18 10
f 3 10 14
f 3 14 8
f 5 11 7
f 6 7 12
f 7 11 13
f 7 13 12
f 8 14 9
f 9 14 15
f 9 15 16
f 9 16 17
f 10 18 15
f 10 15 14
f 11 19 13
f 11 20 19
f 12 13 19
f 12 19 21
f 12 21 22
f 15 18 16
f 16 23 17
f 16 24 25
f 16 25 23
f 19 20 26
f 19 26 27
f 19 27 28
f 19 28 29
f 19 29 21
f 21 29 30
f 21 30 22
f 22 30 31
f 23 25 32
f 24 33 25
f 25 33 34
f 25 34 32
f 26 28 27
f 26 35 28
f 28 35 36
f 28 36 37
f 28 37 29
f 29 37 38
f 29 38 39
f 29 39 40
f 29 40 41
f 29 41 30
f 30 41 42
f 30 42 31
f 31 42 41
f 33 43 34
f 34 43 44
f 34 44 45
f 35 46 36
f 36 46 37
f 37 46 47
f 37 47 38
f 38 48 49
f 38 49 50
f 38 50 51
f 38 51 39
f 38 47 52
f 38 52 53
f 38 53 48
f 39 51 40
f 44 54 55
f 44 55 45
f 46 56 47
f 47 56 57
f 47 57 58
f 47 58 59
f 47 59 52
f 48 53 49
f 49 60 50
f 49 53 61
f 49 61 62
f 50 60 51
f 52 59 53
f 53 59 63
f 53 63 64
f 53 64 61
f 54 65 55
f 55 65 66
f 55 66 67
f 57 68 69
f 57 69 70
f 57 70 58
f 58 70 71
f 58 71 72
f 58 72 59
f 59 72 73
f 59 73 63
f 61 64 74
f 61 74 75
f 61 75 76
f 61 76 62
f 63 73 77
f 63 77 64
f 64 77 78
f 64 78 79
f 64 79 74
f 66 80 81
f 66 81 67
f 68 82 83
f 68 83 69
f 69 83 70
f 70 73 72
f 70 72 71
f 70 83 84
f 70 84 85
f 70 85 73
f 73 85 77
f 74 79 75
f 77 85 86
f 77 86 78
f 78 86 87
f 78 87 88
f 80 89 81
f 81 89 90
f 82 91 92
f 82 92 93
f 82 93 83
f 83 93 94
f 83 94 95
f 83 95 84
f 84 95 85
f 85 95 96
f 85 96 97
f 85 97 86
f 86 97 96
f 86 96 87
f 87 96 88
f 88 96 98
f 88 98 99
f 88 99 100
f 88 100 101
f 89 102 90
f 89 103 102
f 91 104 105
f 91 105 92
f 92 105 106
f 92 106 107
f 92 107 93
f 93 107 94
f 94 107 108
f 94 108 95
f 95 108 96
f 96 108 109
f 96 109 110
f 96 110 98
f 98 110 111
f 98 111 99
f 99 111 112
f 99 112 100
f 100 112 101
f 101 112 113
f 102 103 114
f 102 114 115
f 102 115 116
f 102 116 117
f 102 117 118
f 103 119 116
f 103 116 114
f 103 120 119
f 104 121 105
f 105 121 106
f 106 121 122
f 106 122 123
f 106 123 107
f 107 124 125
f 107 125 126
f 107 126 108
f 107 123 124
f 108 126 127
f 108 127 128
f 108 128 129
f 108 129 109
f 109 129 110
f 110 130 111
f 110 129 130
f 111 130 129
f 111 129 112
f 112 129 131
f 112 131 113
f 113 131 133
f 113 133 132
f 114 116 115
f 116 119 117
f 117 119 134
f 117 134 135
f 117 135 136
f 117 136 137
f 117 137 138
f 117 138 139
f 117 139 140
f 117 140 141
f 117 141 142
f 117 142 143
f 117 143 144
f 117 144 145
f 117 145 118
f 119 146 147
f 119 147 148
f 119 148 149
f 119 149 134
f 119 120 146
f 120 150 151
f 120 151 152
f 120 152 153
f 120 153 154
f 120 154 155
f 120 155 146
f 123 156 175
f 123 175 191
f 123 191 200
f 123 200 213
f 123 213 233
f 123 233 251
f 123 251 270
f 123 270 273
f 123 273 290
f 123 290 309
f 123 309 308
f 123 308 307
f 123 307 306
f 123 306 305
f 123 305 304
f 123 304 303
f 123 303 302
f 123 302 323
f 123 323 322
f 123 322 336
f 123 336 337
f 123 337 325
f 123 325 324
f 123 324 310
f 123 310 291
f 123 291 274
f 123 274 253
f 123 253 234
f 123 234 214
f 123 214 201
f 123 201 193
f 123 193 192
f 123 192 179
f 123 179 178
f 123 178 177
f 123 177 158
f 123 158 133
f 123 133 131
f 123 131 129
f 123 129 128
f 123 128 127
f 123 127 126
f 123 126 125
f 123 125 124
f 132 133 158
f 132 158 157
f 134 149 159
f 134 159 135
f 146 155 160
f 146 160 147
f 147 159 148
f 147 160 161
f 147 161 159
f 148 159 149
f 150 162 163
f 150 163 151
f 151 164 152
f 152 164 165
f 152 165 166
f 152 166 153
f 153 166 167
f 153 167 168
f 153 168 169
f 153 169 170
f 153 170 171
f 153 171 172
f 153 172 154
f 154 172 155
f 155 172 173
f 155 173 160
f 156 174 190
f 156 190 175
f 157 158 177
f 157 177 178
f 157 178 179
f 157 179 176
f 160 173 161
f 161 173 180
f 162 181 163
f 163 181 182
f 168 183 170
f 168 170 169
f 170 183 171
f 171 183 184
f 171 184 172
f 172 184 185
f 172 185 186
f 172 186 187
f 172 187 188
f 172 188 180
f 172 180 173
f 174 189 198
f 174 198 190
f 175 190 191
f 176 179 192
f 176 192 193
f 176 193 194
f 181 195 196
f 181 196 182
f 189 197 198
f 190 199 191
f 190 198 199
f 191 199 200
f 193 201 202
f 193 202 194
f 195 203 196
f 196 203 204
f 196 204 205
f 197 206 198
f 197 207 208
f 197 208 206
f 198 206 209
f 198 209 210
f 198 210 199
f 199 210 211
f 199 211 212
f 199 212 213
f 199 213 200
f 201 214 215
f 201 215 202
f 204 216 217
f 204 217 205
f 206 218 209
f 206 208 219
f 206 219 220
f 206 220 218
f 207 221 222
f 207 222 208
f 208 222 223
f 208 223 224
f 208 224 225
f 208 225 226
f 208 226 220
f 208 220 219
f 209 218 227
f 209 227 210
f 210 227 228
f 210 228 211
f 211 228 229
f 211 229 230
f 211 230 212
f 212 230 231
f 212 231 232
f 212 232 233
f 212 233 213
f 214 234 235
f 214 235 215
f 216 236 217
f 217 236 238
f 217 238 237
f 218 239 227
f 218 220 240
f 218 240 239
f 220 226 240
f 221 241 222
f 222 242 243
f 222 243 223
f 222 241 242
f 223 243 244
f 223 244 224
f 224 244 225
f 225 244 226
f 226 245 240
f 226 244 245
f 227 246 231
f 227 231 230
f 227 230 229
f 227 229 228
f 227 239 240
f 227 240 247
f 227 247 248
f 227 248 246
f 231 246 249
f 231 249 232
f 232 249 250
f 232 250 233
f 233 250 252
f 233 252 251
f 234 253 254
f 234 254 235
f 237 238 255
f 238 256 257
f 238 257 255
f 240 245 247
f 242 258 243
f 243 258 259
f 243 259 244
f 244 260 261
f 244 261 245
f 244 259 262
f 244 262 260
f 245 261 263
f 245 263 264
f 245 264 265
f 245 265 248
f 245 248 247
f 246 248 265
f 246 265 266
f 246 266 267
f 246 267 249
f 249 267 268
f 249 268 269
f 249 269 252
f 249 252 250
f 251 252 270
f 252 269 271
f 252 271 272
f 252 272 273
f 252 273 270
f 253 274 275
f 253 275 254
f 256 276 277
f 256 277 278
f 256 278 257
f 258 279 280
f 258 280 259
f 259 280 281
f 259 281 262
f 260 282 261
f 260 262 283
f 260 283 282
f 261 282 263
f 262 281 284
f 262 284 283
f 263 285 264
f 263 282 285
f 264 286 287
f 264 287 288
f 264 288 265
f 264 285 286
f 265 288 266
f 272 289 290
f 272 290 273
f 274 291 292
f 274 292 275
f 276 293 277
f 277 293 294
f 277 294 278
f 279 295 280
f 280 295 296
f 280 296 297
f 280 297 298
f 280 298 281
f 281 298 284
f 283 284 299
f 283 299 300
f 284 298 299
f 289 301 302
f 289 302 303
f 289 303 304
f 289 304 305
f 289 305 306
f 289 306 307
f 289 307 308
f 289 308 309
f 289 309 290
f 291 310 292
f 292 310 311
f 293 312 313
f 293 313 314
f 293 314 294
f 295 315 316
f 295 316 296
f 296 316 297
f 297 316 317
f 297 317 318
f 297 318 319
f 297 319 298
f 298 320 299
f 298 319 320
f 299 320 300
f 301 321 322
f 301 322 323
f 301 323 302
f 310 324 311
f 311 324 325
f 311 325 326
f 312 327 313
f 313 328 329
f 313 329 330
f 313 330 314
f 313 327 331
f 313 331 328
f 315 332 316
f 316 332 317
f 317 332 333
f 317 333 318
f 318 333 334
f 318 334 319
f 321 335 336
f 321 336 322
f 325 337 326
f 326 337 335
f 327 338 331
f 328 339 329
f 328 331 340
f 328 340 341
f 328 341 342
f 328 342 343
f 328 343 344
f 328 344 339
f 331 338 350
f 331 350 340
f 332 345 333
f 333 346 340
f 333 340 347
f 333 347 348
f 333 345 349
f 333 349 346
f 335 337 336
f 340 350 348
f 340 348 347
f 340 346 351
f 340 351 342
f 340 342 341
f 342 351 352
f 342 352 353
f 342 353 343
f 345 354 349
f 346 349 351
f 349 354 351
f 351 354 352

