# https://github.com/mikedh/trimesh
v 0.40847908 0.89092621 0.11837699
v 0.40892824 0.90007613 0.11837699
v 0.41870421 0.89092621 0.01458345
v 0.41891560 0.87552246 0.01601151
v 0.40906036 0.87090557 0.11837699
v 0.40972089 0.91090493 0.11837699
v 0.41917982 0.90410547 0.01713625
v 0.42095007 0.89092621 0.00457438
v 0.42163702 0.86968833 0.00981903
v 0.42021025 0.86406407 0.03055751
v 0.41178178 0.85050714 0.11837699
v 0.41051355 0.91950923 0.11837699
v 0.41199314 0.93134535 0.11837699
v 0.41386906 0.94167046 0.11837699
v 0.41624701 0.95241530 0.11837699
v 0.42676278 0.93092563 0.01053938
v 0.42200692 0.91086295 0.01050145
v 0.43450432 0.93092563 -0.00345058
v 0.43212637 0.91090493 -0.00439841
v 0.43096382 0.89092621 -0.00463854
v 0.43194141 0.87090557 -0.00436048
v 0.43579897 0.85088487 -0.00232583
v 0.42863871 0.85088487 0.01053938
v 0.48475809 0.65105579 0.11837699
v 0.41688113 0.83615268 0.11837699
v 0.43836185 0.96286636 0.01623899
v 0.43482138 0.95191167 0.00995804
v 0.42409422 0.97096697 0.11837699
v 0.43722571 0.94586768 -0.00165603
v 0.44977595 0.93092563 -0.00872051
v 0.44977595 0.91090493 -0.00982000
v 0.44977595 0.89092621 -0.01011067
v 0.44977595 0.87090557 -0.00978207
v 0.44977595 0.85088487 -0.00744411
v 0.53596306 0.71476944 -0.00198459
v 0.43894312 0.83997210 -0.00020268
v 0.49374141 0.63317574 0.11837699
v 0.44147959 0.95921476 0.00290620
v 0.42824239 0.97915149 0.11837699
v 0.43334176 0.98897297 0.11837699
v 0.43960366 0.99505894 0.11837699
v 0.44346122 0.99858459 0.11837699
v 0.44731875 0.97453461 0.03055751
v 0.45952551 0.98108222 0.02021985
v 0.45482248 0.96395765 -0.00164338
v 0.44879836 0.95191167 -0.00414564
v 0.46977706 0.95094627 -0.00831608
v 0.46977706 0.93092563 -0.01011067
v 0.46977706 0.91090493 -0.01038869
v 0.46977706 0.89092621 -0.01043923
v 0.46977706 0.87090557 -0.01037605
v 0.46977706 0.85088487 -0.01002220
v 0.54980792 0.75086540 -0.01050242
v 0.54980792 0.73088669 -0.00956723
v 0.54811698 0.70922914 -0.00485335
v 0.55363909 0.69546229 -0.00227526
v 0.54032261 0.70142230 0.00093470
v 0.50206422 0.62310242 0.11837699
v 0.45310507 1.00324346 0.11837699
v 0.45889140 1.00135477 0.09877589
v 0.46977706 0.99090370 0.05056301
v 0.46977706 0.98553129 0.03055751
v 0.46977706 0.98183776 0.01850112
v 0.46977706 0.97612953 0.00849205
v 0.46977706 0.96614017 -0.00309673
v 0.48980462 0.96639201 -0.00326102
v 0.48980462 0.95094627 -0.00855621
v 0.48980462 0.93092563 -0.01023704
v 0.48980462 0.91090493 -0.01045188
v 0.48980462 0.89092621 -0.01047713
v 0.52980684 0.83086417 -0.01062879
v 0.52980684 0.81088546 -0.01064143
v 0.54980792 0.77088610 -0.01064143
v 0.56980906 0.73088669 -0.01059089
v 0.56980906 0.71086605 -0.00979471
v 0.56962412 0.68958618 -0.00389290
v 0.56280731 0.68211515 0.00181935
v 0.54721862 0.68853687 0.00804973
v 0.51226290 0.61445619 0.11837699
v 0.46977706 1.00576179 0.11837699
v 0.45572082 1.00257195 0.11057951
v 0.46977706 1.00450262 0.11057951
v 0.46977706 1.00181647 0.09643793
v 0.46977706 0.99967588 0.08644148
v 0.46977706 0.99594037 0.07055589
v 0.48980462 0.99153329 0.05056301
v 0.48980462 0.98641271 0.03055751
v 0.48980462 0.98225748 0.01765440
v 0.48980462 0.97638137 0.00764534
v 0.50980570 0.96467114 -0.00228790
v 0.50980570 0.95094627 -0.00751994
v 0.52980684 0.93092563 -0.00970624
v 0.50980570 0.93092563 -0.01014857
v 0.52980684 0.91090493 -0.01033812
v 0.50980570 0.91090493 -0.01041395
v 0.52980684 0.89092621 -0.01047713
v 0.52980684 0.87090557 -0.01054035
v 0.54980792 0.83086417 -0.01062879
v 0.54980792 0.81088546 -0.01066672
v 0.54980792 0.79090674 -0.01069200
v 0.58981014 0.73088669 -0.01069200
v 0.60983770 0.71086605 -0.01070462
v 0.58981014 0.71086605 -0.01052771
v 0.58981014 0.69084535 -0.00683749
v 0.57615021 0.67993258 -0.00044281
v 0.56352074 0.58440415 0.11837699
v 0.55363909 0.58860137 0.11837699
v 0.54980792 0.59036423 0.11837699
v 0.53572523 0.59884251 0.11837699
v 0.52547371 0.60547416 0.11837699
v 0.48193099 1.00504830 0.11837699
v 0.48502231 1.00169052 0.09686761
v 0.48980462 0.99585640 0.07055589
v 0.50980570 0.98762990 0.05056301
v 0.50938300 0.98322282 0.03103774
v 0.50240767 0.98158591 0.01909510
v 0.50938300 0.97533207 0.01166412
v 0.52396765 0.96257253 -0.00083456
v 0.53030886 0.95216345 -0.00417093
v 0.54980792 0.93092563 -0.00784850
v 0.56980906 0.91090493 -0.00882162
v 0.54980792 0.91090493 -0.01013592
v 0.56980906 0.89092621 -0.01019911
v 0.54980792 0.89092621 -0.01038869
v 0.54980792 0.87090557 -0.01050242
v 0.56980906 0.85088487 -0.01050242
v 0.60983770 0.73088669 -0.01072990
v 0.62983877 0.71086605 -0.01031286
v 0.60983770 0.69084535 -0.00734300
v 0.60983770 0.67863149 -0.00176975
v 0.58981014 0.67900922 -0.00139064
v 0.58981014 0.57806634 0.11837699
v 0.58510714 0.57907372 0.11837699
v 0.57142073 0.58201177 0.11837699
v 0.49043873 1.00446064 0.11837699
v 0.49836518 1.00076711 0.10182159
v 0.49094073 0.99963390 0.09034654
v 0.49094073 1.00303365 0.10932840
v 0.50980570 0.99153329 0.07055589
v 0.52132551 0.98158591 0.03802639
v 0.51575057 0.97990702 0.02468099
v 0.53030886 0.96702160 0.00942725
v 0.53731055 0.95963448 0.00202155
v 0.56204110 0.94246792 -0.00064501
v 0.54980792 0.94607754 -0.00260386
v 0.56914852 0.93084166 -0.00342529
v 0.59010081 0.91128267 -0.00404456
v 0.58981014 0.89092621 -0.00896064
v 0.58981014 0.87090557 -0.01018647
v 0.56980906 0.87090557 -0.01041395
v 0.58981014 0.85088487 -0.01040134
v 0.58981014 0.83086417 -0.01047713
v 0.62983877 0.73088669 -0.01033812
v 0.60983770 0.83086417 -0.01031286
v 0.64986633 0.75086540 -0.00516930
v 0.64986633 0.73088669 -0.00501765
v 0.65110814 0.71267083 -0.00365278
v 0.64421213 0.69084535 -0.00222472
v 0.62983877 0.69084535 -0.00614242
v 0.62983877 0.67955484 -0.00078402
v 0.60983770 0.57701709 0.11837699
v 0.60806744 0.57705908 0.11837699
v 0.49995046 1.00278175 0.11837699
v 0.50948867 0.99871048 0.10932840
v 0.50980570 0.99531078 0.09057402
v 0.50261908 1.00181647 0.11516702
v 0.52420548 0.98284508 0.05056301
v 0.53419281 0.97847998 0.05056301
v 0.52872354 0.97667514 0.03103774
v 0.54489351 0.96378971 0.01536698
v 0.55086480 0.95648662 0.00942725
v 0.57538400 0.93743126 0.00557276
v 0.58360108 0.92408419 -0.00147908
v 0.56914852 0.94574173 0.01156304
v 0.60315304 0.90481896 -0.00161813
v 0.60983770 0.89050649 -0.00372860
v 0.60983770 0.87090557 -0.00830347
v 0.60983770 0.85088487 -0.00999691
v 0.62983877 0.77088610 -0.01007274
v 0.62983877 0.79090674 -0.00989580
v 0.66035568 0.75086540 -0.00001313
v 0.64986633 0.77088610 -0.00485335
v 0.66014433 0.73088669 0.00022700
v 0.65990650 0.72056157 0.00049238
v 0.65861185 0.70725643 0.00266607
v 0.64024893 0.68056216 0.00026490
v 0.62624549 0.58020693 0.11837699
v 0.50335887 1.00206826 0.11837699
v 0.50544615 1.00139675 0.11837699
v 0.51234216 0.99917219 0.11837699
v 0.52452250 0.99438737 0.11837699
v 0.52980684 0.98750394 0.09057402
v 0.53749548 0.97990702 0.06672665
v 0.54980792 0.97025348 0.05056301
v 0.55086480 0.96563654 0.03098719
v 0.55823641 0.95997029 0.02460516
v 0.58080043 0.94175437 0.01891819
v 0.59694398 0.91816610 0.00427107
v 0.61649594 0.89688623 0.00563594
v 0.62172737 0.88358108 -0.00096096
v 0.62563780 0.87090557 -0.00302090
v 0.63134484 0.85201809 -0.00463854
v 0.62983877 0.83086417 -0.00834137
v 0.62983877 0.81088546 -0.00947876
v 0.66453030 0.75086540 0.01053938
v 0.66011791 0.77088610 0.00025228
v 0.64709210 0.81088546 -0.00405720
v 0.65118740 0.78897607 -0.00346322
v 0.65988008 0.78104334 0.00051767
v 0.66418679 0.73088669 0.01053938
v 0.66244302 0.71267083 0.00981903
v 0.66154466 0.69630173 0.01601151
v 0.65462223 0.69013179 0.00981903
v 0.65863827 0.68295460 0.02326555
v 0.65361819 0.59754142 0.11837699
v 0.64471415 0.58981855 0.11837699
v 0.63691978 0.58364868 0.11837699
v 0.62983877 0.58100439 0.11837699
v 0.52980684 0.99216287 0.11837699
v 0.52980684 0.99094569 0.11057951
v 0.53997910 0.98104030 0.08005944
v 0.54790557 0.97520617 0.07226197
v 0.55163101 0.97633939 0.09057402
v 0.56064078 0.96152329 0.03795056
v 0.56832942 0.95426206 0.03098719
v 0.59261085 0.93432533 0.03055751
v 0.60132995 0.92240530 0.01760386
v 0.58262352 0.94330737 0.03055751
v 0.60891291 0.90998158 0.01162622
v 0.62059130 0.90183898 0.01898138
v 0.62466018 0.89050649 0.01160094
v 0.63573080 0.87153510 0.00923769
v 0.63903354 0.85944719 0.00170560
v 0.64193986 0.84610006 -0.00128953
v 0.64447632 0.83086417 -0.00298297
v 0.66944471 0.75086540 0.03055751
v 0.66931261 0.73088669 0.03055751
v 0.66405470 0.77088610 0.01053938
v 0.65877037 0.79430650 0.00235015
v 0.66239018 0.78897607 0.00962944
v 0.66801796 0.71086605 0.03055751
v 0.67372500 0.64303915 0.11837699
v 0.66709318 0.62104579 0.11837699
v 0.66371125 0.61353278 0.11837699
v 0.65766071 0.60308172 0.11837699
v 0.53894870 0.98771386 0.11837699
v 0.54473500 0.98364254 0.11057951
v 0.54164368 0.98196365 0.09057402
v 0.55474875 0.97806026 0.11057951
v 0.56238461 0.96274047 0.05056301
v 0.57239836 0.95539534 0.05056301
v 0.59506805 0.93650791 0.05056301
v 0.60320587 0.92433597 0.03055751
v 0.61319326 0.91350717 0.03055751
v 0.58505430 0.94536399 0.05056301
v 0.62193878 0.90347589 0.03055751
v 0.63089565 0.89092621 0.03055751
v 0.63879571 0.87904811 0.03055751
v 0.64217769 0.86532324 0.01505103
v 0.64553320 0.85201809 0.00923769
v 0.65459581 0.82977289 0.01175259
v 0.65707943 0.81088546 0.00591397
v 0.67171698 0.75086540 0.05056301
v 0.67176982 0.73088669 0.05056301
v 0.66894269 0.77088610 0.03055751
v 0.67105645 0.71086605 0.05056301
v 0.66741027 0.79090674 0.03055751
v 0.66149182 0.81088546 0.01592304
v 0.67203401 0.69084535 0.07055589
v 0.67639356 0.66305985 0.11837699
v 0.54589755 0.98427212 0.11837699
v 0.54978150 0.98213153 0.11837699
v 0.55591130 0.97873183 0.11837699
v 0.58072117 0.96164918 0.11683518
v 0.57908302 0.96039001 0.10348977
v 0.56494749 0.96454525 0.07055589
v 0.60029949 0.94137664 0.09834621
v 0.60526679 0.92651855 0.05056301
v 0.61528054 0.91573173 0.05056301
v 0.58994229 0.95422008 0.11837699
v 0.62368261 0.90574237 0.05056301
v 0.61993070 0.92102018 0.10009022
v 0.63485892 0.88970903 0.04904648
v 0.63972049 0.88068501 0.04136276
v 0.64405362 0.86905875 0.03055751
v 0.65240279 0.85088487 0.03055751
v 0.66030285 0.82238583 0.01923412
v 0.67372500 0.75086540 0.07055589
v 0.67385710 0.73088669 0.07055589
v 0.67116212 0.77088610 0.05056301
v 0.67319656 0.77088610 0.07055589
v 0.67726550 0.77088610 0.11057951
v 0.67562735 0.71086605 0.09057402
v 0.67346075 0.71086605 0.07055589
v 0.66968248 0.79090674 0.05056301
v 0.67486114 0.69084535 0.09057402
v 0.66437179 0.81088546 0.03055751
v 0.66669690 0.81088546 0.05056301
v 0.67681632 0.67082465 0.11837699
v 0.56595153 0.97210018 0.11837699
v 0.57950578 0.96278245 0.11837699
v 0.58090610 0.96177507 0.11837699
v 0.58201582 0.96085172 0.11837699
v 0.57076020 0.96891035 0.11837699
v 0.60156772 0.94263580 0.11057951
v 0.60624436 0.93936199 0.11837699
v 0.61234774 0.93298226 0.11837699
v 0.59797444 0.94725274 0.11837699
v 0.63123916 0.91031733 0.11837699
v 0.63559871 0.90439924 0.11837699
v 0.63905989 0.89969839 0.11837699
v 0.63847868 0.89873305 0.11057951
v 0.63689336 0.89638260 0.09057402
v 0.62088190 0.92215345 0.11057951
v 0.62156886 0.92295091 0.11837699
v 0.61802836 0.92685430 0.11837699
v 0.64067163 0.88223801 0.05469555
v 0.64857168 0.87090557 0.07055589
v 0.64479341 0.87275234 0.04904648
v 0.65964231 0.86037054 0.11837699
v 0.65591688 0.84903811 0.05200370
v 0.65921955 0.83871294 0.04630409
v 0.65818915 0.83539715 0.03055751
v 0.66114831 0.82540779 0.03055751
v 0.67568019 0.75086540 0.09057402
v 0.67581228 0.73088669 0.09057402
v 0.67602369 0.79090674 0.11057951
v 0.67678990 0.79090674 0.11837699
v 0.67797888 0.77143172 0.11837699
v 0.67760895 0.75086540 0.11057951
v 0.67755611 0.71086605 0.11057951
v 0.67702767 0.69084535 0.11057951
v 0.67330224 0.81088546 0.11057951
v 0.67747686 0.68303857 0.11837699
v 0.66960322 0.83086417 0.11837699
v 0.60236041 0.94339134 0.11837699
v 0.64135859 0.89579500 0.11837699
v 0.64460848 0.89025465 0.11837699
v 0.64442349 0.88874370 0.11057951
v 0.65372386 0.87090557 0.11057951
v 0.65829482 0.86330860 0.11837699
v 0.66059345 0.85785221 0.11837699
v 0.65995940 0.84114736 0.05963688
v 0.66873134 0.83086417 0.11057951
v 0.66188816 0.83157773 0.05200370
v 0.67768821 0.73088669 0.11057951
v 0.67412129 0.81088546 0.11837699
v 0.67813739 0.76198803 0.11837699
v 0.67832232 0.75086540 0.11837699
v 0.67832232 0.72240834 0.11837699
v 0.67824307 0.71086605 0.11837699
v 0.67808455 0.70415049 0.11837699
v 0.67774111 0.69130705 0.11837699
v 0.66603630 0.84198681 0.11837699
v 0.65491284 0.87048585 0.11837699
v 0.66323565 0.85067501 0.11837699
v 0.67834880 0.74188336 0.11837699
v 0.67837516 0.73088669 0.11837699
f 1 2 3
f 1 3 4
f 1 4 5
f 1 5 11
f 1 11 25
f 1 25 24
f 1 24 37
f 1 37 58
f 1 58 79
f 1 79 110
f 1 110 109
f 1 109 108
f 1 108 107
f 1 107 106
f 1 106 134
f 1 134 133
f 1 133 132
f 1 132 162
f 1 162 161
f 1 161 187
f 1 187 218
f 1 218 217
f 1 217 216
f 1 216 215
f 1 215 245
f 1 245 244
f 1 244 243
f 1 243 242
f 1 242 270
f 1 270 299
f 1 299 334
f 1 334 353
f 1 353 352
f 1 352 351
f 1 351 350
f 1 350 358
f 1 358 357
f 1 357 349
f 1 349 348
f 1 348 329
f 1 329 328
f 1 328 347
f 1 347 335
f 1 335 354
f 1 354 356
f 1 356 342
f 1 342 320
f 1 320 341
f 1 341 355
f 1 355 338
f 1 338 337
f 1 337 311
f 1 311 310
f 1 310 309
f 1 309 315
f 1 315 316
f 1 316 307
f 1 307 306
f 1 306 336
f 1 336 308
f 1 308 280
f 1 280 303
f 1 303 302
f 1 302 301
f 1 301 304
f 1 304 300
f 1 300 273
f 1 273 272
f 1 272 271
f 1 271 246
f 1 246 219
f 1 219 191
f 1 191 190
f 1 190 189
f 1 189 188
f 1 188 163
f 1 163 135
f 1 135 111
f 1 111 80
f 1 80 59
f 1 59 42
f 1 42 41
f 1 41 40
f 1 40 39
f 1 39 28
f 1 28 15
f 1 15 14
f 1 14 13
f 1 13 12
f 1 12 6
f 1 6 2
f 2 6 7
f 2 7 3
f 3 7 8
f 3 8 4
f 4 8 9
f 4 9 10
f 4 10 11
f 4 11 5
f 6 12 7
f 7 12 13
f 7 13 14
f 7 14 15
f 7 15 16
f 7 16 17
f 7 17 8
f 8 17 18
f 8 18 19
f 8 19 20
f 8 20 21
f 8 21 9
f 9 22 23
f 9 23 24
f 9 24 10
f 9 21 22
f 10 25 11
f 10 24 25
f 15 26 27
f 15 27 16
f 15 28 26
f 16 27 29
f 16 29 18
f 16 18 17
f 18 29 30
f 18 30 19
f 19 31 20
f 19 30 31
f 20 31 32
f 20 32 33
f 20 33 21
f 21 33 34
f 21 34 22
f 22 34 35
f 22 35 36
f 22 36 23
f 23 36 37
f 23 37 24
f 26 38 27
f 26 28 39
f 26 39 40
f 26 40 41
f 26 41 42
f 26 42 43
f 26 43 44
f 26 44 38
f 27 38 29
f 29 38 45
f 29 45 46
f 29 46 30
f 30 46 47
f 30 47 48
f 30 48 31
f 31 48 32
f 32 48 49
f 32 49 50
f 32 50 51
f 32 51 33
f 33 51 52
f 33 52 53
f 33 53 54
f 33 54 34
f 34 54 55
f 34 55 35
f 35 55 56
f 35 56 57
f 35 57 36
f 36 57 37
f 37 57 58
f 38 44 45
f 42 59 60
f 42 60 44
f 42 44 43
f 44 60 61
f 44 61 62
f 44 62 63
f 44 63 64
f 44 64 45
f 45 47 46
f 45 64 65
f 45 65 47
f 47 65 66
f 47 66 67
f 47 67 48
f 48 67 68
f 48 68 49
f 49 69 50
f 49 68 69
f 50 69 70
f 50 70 71
f 50 71 72
f 50 72 51
f 51 72 73
f 51 73 53
f 51 53 52
f 53 73 74
f 53 74 75
f 53 75 54
f 54 75 55
f 55 75 56
f 56 75 76
f 56 76 77
f 56 77 57
f 57 77 78
f 57 78 58
f 58 78 79
f 59 80 81
f 59 81 60
f 60 81 80
f 60 80 82
f 60 82 83
f 60 83 84
f 60 84 85
f 60 85 61
f 61 85 86
f 61 86 87
f 61 87 62
f 62 87 63
f 63 88 64
f 63 87 88
f 64 88 89
f 64 89 65
f 65 89 66
f 66 90 91
f 66 91 67
f 66 89 90
f 67 91 92
f 67 92 93
f 67 93 68
f 68 93 94
f 68 94 95
f 68 95 69
f 69 95 96
f 69 96 97
f 69 97 71
f 69 71 70
f 71 97 98
f 71 98 99
f 71 99 100
f 71 100 72
f 72 100 73
f 73 100 101
f 73 101 74
f 74 101 102
f 74 102 103
f 74 103 75
f 75 103 104
f 75 104 76
f 76 104 105
f 76 105 77
f 77 105 106
f 77 106 107
f 77 107 108
f 77 108 109
f 77 109 110
f 77 110 79
f 77 79 78
f 80 111 112
f 80 112 82
f 82 112 83
f 83 112 84
f 84 112 86
f 84 86 85
f 86 112 113
f 86 113 114
f 86 114 115
f 86 115 116
f 86 116 87
f 87 116 88
f 88 116 89
f 89 116 117
f 89 117 90
f 90 117 118
f 90 118 119
f 90 119 91
f 91 119 120
f 91 120 92
f 92 120 121
f 92 121 122
f 92 122 93
f 93 122 94
f 94 122 123
f 94 123 124
f 94 124 96
f 94 96 95
f 96 124 150
f 96 150 125
f 96 125 98
f 96 98 97
f 98 125 126
f 98 126 127
f 98 127 99
f 99 127 100
f 100 127 101
f 101 127 102
f 102 127 153
f 102 153 128
f 102 128 129
f 102 129 103
f 103 129 104
f 104 129 130
f 104 130 131
f 104 131 105
f 105 131 132
f 105 132 133
f 105 133 134
f 105 134 106
f 111 135 112
f 112 136 137
f 112 137 113
f 112 135 138
f 112 138 136
f 113 137 136
f 113 136 114
f 114 136 139
f 114 139 140
f 114 140 115
f 115 140 141
f 115 141 116
f 116 141 142
f 116 142 117
f 117 142 118
f 118 143 144
f 118 144 145
f 118 145 119
f 118 142 143
f 119 145 120
f 120 145 146
f 120 146 121
f 121 146 147
f 121 147 148
f 121 148 122
f 122 148 123
f 123 148 149
f 123 149 151
f 123 151 150
f 123 150 124
f 125 150 126
f 126 151 152
f 126 152 127
f 126 150 151
f 127 152 151
f 127 151 154
f 127 154 153
f 128 153 155
f 128 155 156
f 128 156 157
f 128 157 158
f 128 158 159
f 128 159 129
f 129 159 130
f 130 159 160
f 130 160 161
f 130 161 162
f 130 162 131
f 131 162 132
f 135 163 136
f 135 136 138
f 136 164 165
f 136 165 139
f 136 163 166
f 136 166 164
f 139 165 140
f 140 165 167
f 140 167 168
f 140 168 169
f 140 169 141
f 141 169 170
f 141 170 142
f 142 170 143
f 143 170 171
f 143 171 144
f 144 172 173
f 144 173 146
f 144 146 145
f 144 171 174
f 144 174 172
f 146 173 147
f 147 175 176
f 147 176 148
f 147 173 175
f 148 176 177
f 148 177 178
f 148 178 149
f 149 178 154
f 149 154 151
f 153 179 155
f 153 154 179
f 154 178 180
f 154 180 179
f 155 181 156
f 155 179 180
f 155 180 182
f 155 182 181
f 156 183 184
f 156 184 157
f 156 181 183
f 157 184 185
f 157 185 158
f 158 185 186
f 158 186 159
f 159 186 160
f 160 186 161
f 161 186 187
f 163 188 166
f 164 166 189
f 164 189 190
f 164 190 167
f 164 167 165
f 166 188 189
f 167 190 191
f 167 191 192
f 167 192 168
f 168 192 193
f 168 193 194
f 168 194 195
f 168 195 169
f 169 195 170
f 170 196 174
f 170 174 171
f 170 195 196
f 172 174 197
f 172 197 198
f 172 198 173
f 173 198 175
f 174 196 197
f 175 199 200
f 175 200 176
f 175 198 199
f 176 200 201
f 176 201 177
f 177 201 202
f 177 202 203
f 177 203 178
f 178 203 204
f 178 204 180
f 180 204 182
f 181 205 183
f 181 182 206
f 181 206 205
f 182 204 207
f 182 207 208
f 182 208 209
f 182 209 206
f 183 205 210
f 183 210 184
f 184 210 211
f 184 211 185
f 185 212 213
f 185 213 186
f 185 211 212
f 186 213 214
f 186 214 215
f 186 215 216
f 186 216 217
f 186 217 218
f 186 218 187
f 191 219 220
f 191 220 192
f 192 220 193
f 193 221 194
f 193 220 221
f 194 221 222
f 194 222 223
f 194 223 224
f 194 224 195
f 195 224 196
f 196 224 225
f 196 225 197
f 197 226 227
f 197 227 198
f 197 225 228
f 197 228 226
f 198 227 229
f 198 229 199
f 199 229 230
f 199 230 231
f 199 231 200
f 200 231 232
f 200 232 233
f 200 233 234
f 200 234 201
f 201 234 202
f 202 234 235
f 202 235 203
f 203 235 207
f 203 207 204
f 205 236 237
f 205 237 210
f 205 206 238
f 205 238 236
f 206 209 238
f 207 209 208
f 207 235 209
f 209 235 239
f 209 239 240
f 209 240 238
f 210 237 241
f 210 241 211
f 211 241 212
f 212 242 243
f 212 243 214
f 212 214 213
f 212 241 242
f 214 243 244
f 214 244 245
f 214 245 215
f 219 246 220
f 220 246 247
f 220 247 248
f 220 248 221
f 221 248 222
f 222 248 223
f 223 248 249
f 223 249 224
f 224 250 251
f 224 251 225
f 224 249 250
f 225 251 228
f 226 228 252
f 226 252 253
f 226 253 227
f 227 253 254
f 227 254 230
f 227 230 229
f 228 251 255
f 228 255 252
f 230 254 256
f 230 256 257
f 230 257 258
f 230 258 259
f 230 259 231
f 231 259 232
f 232 259 233
f 233 259 260
f 233 260 261
f 233 261 234
f 234 261 262
f 234 262 239
f 234 239 235
f 236 263 264
f 236 264 237
f 236 238 265
f 236 265 263
f 237 264 266
f 237 266 241
f 238 240 267
f 238 267 265
f 239 262 268
f 239 268 240
f 240 268 267
f 241 266 269
f 241 269 270
f 241 270 242
f 246 271 247
f 247 271 272
f 247 272 273
f 247 273 249
f 247 249 248
f 249 273 250
f 250 274 275
f 250 275 251
f 250 273 276
f 250 276 274
f 251 275 255
f 252 277 278
f 252 278 253
f 252 255 277
f 253 278 279
f 253 279 254
f 254 279 256
f 255 275 274
f 255 274 280
f 255 280 277
f 256 281 257
f 256 279 282
f 256 282 281
f 257 281 283
f 257 283 284
f 257 284 258
f 258 284 285
f 258 285 259
f 259 285 286
f 259 286 287
f 259 287 260
f 260 287 261
f 261 287 262
f 262 287 268
f 263 288 289
f 263 289 264
f 263 265 290
f 263 290 291
f 263 291 292
f 263 292 288
f 264 289 293
f 264 293 294
f 264 294 266
f 265 267 295
f 265 295 290
f 266 294 296
f 266 296 270
f 266 270 269
f 267 268 297
f 267 297 298
f 267 298 295
f 268 287 297
f 270 296 299
f 273 300 276
f 274 276 301
f 274 301 302
f 274 302 303
f 274 303 280
f 276 300 304
f 276 304 301
f 277 305 278
f 277 280 305
f 278 305 306
f 278 306 307
f 278 307 282
f 278 282 279
f 280 308 305
f 281 309 310
f 281 310 311
f 281 311 312
f 281 312 313
f 281 313 283
f 281 282 314
f 281 314 315
f 281 315 309
f 282 307 316
f 282 316 314
f 283 313 312
f 283 312 311
f 283 311 284
f 284 311 317
f 284 317 318
f 284 318 319
f 284 319 285
f 285 319 318
f 285 318 286
f 286 320 321
f 286 321 322
f 286 322 323
f 286 323 287
f 286 318 320
f 287 323 324
f 287 324 297
f 288 325 326
f 288 326 289
f 288 292 325
f 289 326 293
f 290 295 327
f 290 327 291
f 291 327 292
f 292 327 328
f 292 328 329
f 292 329 330
f 292 330 325
f 293 326 331
f 293 331 332
f 293 332 294
f 294 332 296
f 295 298 333
f 295 333 327
f 296 332 334
f 296 334 299
f 297 324 298
f 298 324 335
f 298 335 333
f 305 308 336
f 305 336 306
f 311 337 317
f 314 316 315
f 317 338 339
f 317 339 340
f 317 340 318
f 317 337 338
f 318 340 341
f 318 341 320
f 320 342 343
f 320 343 321
f 321 343 322
f 322 343 335
f 322 335 344
f 322 344 345
f 322 345 324
f 322 324 323
f 324 345 344
f 324 344 335
f 325 330 326
f 326 330 346
f 326 346 331
f 327 333 347
f 327 347 328
f 329 348 330
f 330 348 349
f 330 349 346
f 331 346 350
f 331 350 351
f 331 351 352
f 331 352 332
f 332 352 353
f 332 353 334
f 333 335 347
f 335 343 354
f 338 355 340
f 338 340 339
f 340 355 341
f 342 356 343
f 343 356 354
f 346 349 357
f 346 357 358
f 346 358 350

