# https://github.com/mikedh/trimesh
v -0.17057599 -0.91791158 0.19888443
v -0.19058791 -0.91790270 0.19888443
v -0.16793412 -0.91790270 0.19888443
v -0.16793412 -0.86604104 0.31327249
v -0.21058818 -0.91784920 0.19888443
v -0.18996526 -0.82687749 0.39956938
v -0.16793412 -0.82687749 0.19888443
v -0.16793412 -0.86165686 0.32287850
v -0.22737630 -0.91776010 0.19888443
v -0.16793412 -0.82687749 0.39868538
v -0.20221448 -0.82687749 0.39925507
v -0.22737630 -0.82687749 0.19888443
v -0.22282576 -0.82687749 0.39839072
v -0.22737630 -0.82687749 0.39762460
f 1 2 5
f 1 5 9
f 1 9 12
f 1 12 7
f 1 7 3
f 1 3 4
f 1 4 2
f 2 4 6
f 2 6 5
f 3 7 10
f 3 10 8
f 3 8 4
f 4 8 6
f 5 6 9
f 6 10 7
f 6 7 12
f 6 12 14
f 6 14 13
f 6 13 11
f 6 11 9
f 6 8 10
f 9 11 13
f 9 13 14
f 9 14 12

