# https://github.com/mikedh/trimesh
v 1.66891700 0.00249012 16.50363734
v 1.66891700 -0.02562621 16.50363734
v 1.66891700 0.00249012 16.47580532
v 1.64102133 0.00249012 16.56195049
v 1.64118262 -0.08200022 16.56195049
v 1.66891700 -0.02562621 16.47580532
v 1.55572182 -0.26087117 16.57520397
v 1.39399121 0.00249012 3.18559437
v 1.55572182 0.00249012 16.68918016
v 1.55572182 -0.08327180 16.68918016
v 1.53105107 -0.21269187 16.67327657
v 1.51105645 -0.35129567 16.45460054
v 1.26547767 -0.58286712 3.18559437
v 1.28627849 -0.53355756 3.18559437
v 1.32175275 -0.44920844 3.18559437
v 1.33868362 -0.36584837 3.18559437
v 1.34722970 -0.32289672 3.18559437
v 1.36174198 -0.24985070 3.18559437
v 1.37367426 -0.18824900 3.18559437
v 1.39399121 -0.08327180 3.18559437
v 1.49186803 -0.32374445 16.63616821
v 1.51105645 -0.35129567 16.52484212
v 1.00925656 0.00249012 3.18559437
v 1.41527589 0.00249012 16.72496347
v 1.41527589 -0.08327180 16.72363842
v 1.42785320 -0.26087117 16.69580740
v 1.24790177 -0.57396596 16.68387896
v 1.03715222 -0.91574229 16.67460262
v 1.00554790 -1.00546031 16.65604794
v 1.17405067 -0.84552199 16.47050413
v 1.05376064 -0.91291651 3.18559437
v 1.13712518 -0.78985442 3.18559437
v 1.19275535 -0.70677691 3.18559437
v 1.21968353 -0.66099951 3.18559437
v 1.15437863 -0.81585146 16.62424077
v 1.11229326 -0.90698238 16.56857772
v 1.17405067 -0.84552199 16.51291468
v 0.02162029 -1.00927511 3.18559437
v 1.00925656 0.00249012 3.21872758
v 0.02162029 -1.24890002 16.71833723
v 0.58292016 -1.08232119 16.72231337
v 1.24886926 0.00249012 16.69580740
v 1.08230134 -0.58286712 16.72098832
v 1.24886926 -0.41642957 16.71568712
v 0.91573348 -0.91574229 16.71171098
v 1.09229865 -0.75594522 16.69315630
v 0.91573348 -1.03710892 16.67460262
v 0.81592175 -1.15437814 16.62556582
v 0.90734863 -1.11241547 16.56857772
v 1.02409129 -1.02425165 16.56857772
v 0.70482271 -1.19139568 16.66930043
v 1.02602626 -1.02622974 16.43737191
v 0.99619557 -0.99627658 3.18559437
v 0.02162029 -1.00927511 3.29692045
v 0.02162029 -1.39414431 3.18559437
v 0.02162029 -1.01351372 12.07047433
v 1.01393270 0.00249012 10.73323623
v 0.08337782 -1.24890002 16.71833723
v 0.02162029 -1.15480195 16.69845750
v 0.02162029 -1.29496005 16.70508473
v 0.24978445 -1.24890002 16.71038593
v 0.41635233 -1.24890002 16.70110859
v 0.56647303 -1.24776964 16.67990381
v 0.75593796 -1.09221130 16.69315630
v 1.20323640 0.00249012 16.67857777
v 0.02162029 -1.09969957 16.68653006
v 0.49987813 -1.33226010 16.65207179
v 0.61162215 -1.30343727 16.56857772
v 0.75593796 -1.21456695 16.56857772
v 0.84623613 -1.17458243 16.51423973
v 0.84623613 -1.17458243 16.46917908
v 0.94379037 -1.03258762 3.18559437
v 0.08337782 -1.39414431 3.18559437
v 0.02162029 -1.44091065 16.56857772
v 0.02162029 -1.01732857 16.40158859
v 1.01506147 0.00249012 11.73782136
v 0.08337782 -1.37323369 16.68255391
v 0.02162029 -1.37323369 16.68255391
v 0.24978445 -1.35642031 16.67195152
v 1.15486237 0.00249012 16.66002408
v 0.02162029 -1.05250929 16.61231233
v 0.08337782 -1.44076946 16.56857772
v 0.24978445 -1.40784927 16.56857772
v 0.41635233 -1.37436396 16.56857772
v 0.52841877 -1.34483481 16.56857772
v 0.53777111 -1.34893204 16.45062440
v 0.58292016 -1.26571328 3.18559437
v 0.70691897 -1.19280857 3.18559437
v 0.79012228 -1.13714094 3.18559437
v 0.86752068 -1.08472303 3.18559437
v 0.91299225 -1.05392218 3.18559437
v 0.24978445 -1.36193069 3.18559437
v 0.02162029 -1.02015429 16.46387788
v 1.02328503 0.00249012 16.06893538
v 1.02312381 0.00249012 15.98809141
v 1.02280129 0.00249012 15.82110228
v 1.02264007 0.00249012 15.73628217
v 1.01522270 0.00249012 11.83059327
v 1.13357782 0.00249012 16.61628848
v 0.02162029 -1.02495810 16.56857772
v 0.32331297 -1.34737796 3.18559437
v 0.36636582 -1.33875930 3.18559437
v 0.44973040 -1.32180473 3.18559437
v 0.53373994 -1.28648270 3.18559437
v 1.03070240 0.00249012 16.15508054
v 1.11084203 0.00249012 16.56857772
v 1.08842870 0.00249012 16.48773376
v 1.06472543 0.00249012 16.40158859
v 1.05166450 0.00249012 16.32074462
v 1.03779725 0.00249012 16.23459946
f 1 2 6
f 1 6 3
f 1 3 8
f 1 8 23
f 1 23 39
f 1 39 57
f 1 57 76
f 1 76 98
f 1 98 97
f 1 97 96
f 1 96 95
f 1 95 94
f 1 94 105
f 1 105 110
f 1 110 109
f 1 109 108
f 1 108 107
f 1 107 106
f 1 106 99
f 1 99 80
f 1 80 65
f 1 65 42
f 1 42 24
f 1 24 9
f 1 9 4
f 1 4 5
f 1 5 2
f 2 5 7
f 2 7 6
f 3 6 20
f 3 20 8
f 4 9 5
f 5 9 10
f 5 10 11
f 5 11 7
f 6 7 12
f 6 12 13
f 6 13 14
f 6 14 15
f 6 15 16
f 6 16 17
f 6 17 18
f 6 18 19
f 6 19 20
f 7 21 22
f 7 22 12
f 7 11 21
f 8 20 19
f 8 19 18
f 8 18 17
f 8 17 16
f 8 16 15
f 8 15 14
f 8 14 13
f 8 13 34
f 8 34 33
f 8 33 32
f 8 32 31
f 8 31 53
f 8 53 72
f 8 72 91
f 8 91 90
f 8 90 89
f 8 89 88
f 8 88 87
f 8 87 104
f 8 104 103
f 8 103 102
f 8 102 101
f 8 101 92
f 8 92 73
f 8 73 55
f 8 55 38
f 8 38 23
f 9 24 10
f 10 24 25
f 10 25 26
f 10 26 11
f 11 26 27
f 11 27 28
f 11 28 29
f 11 29 21
f 12 22 37
f 12 37 30
f 12 30 31
f 12 31 32
f 12 32 33
f 12 33 34
f 12 34 13
f 21 29 35
f 21 35 36
f 21 36 37
f 21 37 22
f 23 38 54
f 23 54 39
f 24 40 41
f 24 41 25
f 24 42 40
f 25 41 43
f 25 43 44
f 25 44 26
f 26 44 45
f 26 45 46
f 26 46 27
f 27 46 28
f 28 46 45
f 28 45 47
f 28 47 29
f 29 48 49
f 29 49 50
f 29 50 36
f 29 36 35
f 29 47 51
f 29 51 48
f 30 37 52
f 30 52 53
f 30 53 31
f 36 50 37
f 37 50 52
f 38 55 74
f 38 74 78
f 38 78 60
f 38 60 40
f 38 40 59
f 38 59 66
f 38 66 81
f 38 81 100
f 38 100 93
f 38 93 75
f 38 75 56
f 38 56 54
f 39 54 56
f 39 56 57
f 40 58 41
f 40 42 59
f 40 60 58
f 41 58 61
f 41 61 62
f 41 62 63
f 41 63 64
f 41 64 45
f 41 45 43
f 42 65 66
f 42 66 59
f 43 45 44
f 45 64 47
f 47 64 51
f 48 51 67
f 48 67 68
f 48 68 69
f 48 69 70
f 48 70 49
f 49 70 50
f 50 70 52
f 51 64 63
f 51 63 67
f 52 70 71
f 52 71 53
f 53 71 72
f 55 73 74
f 56 75 57
f 57 75 76
f 58 60 77
f 58 77 61
f 60 78 77
f 61 77 62
f 62 77 79
f 62 79 67
f 62 67 63
f 65 80 66
f 66 80 81
f 67 82 83
f 67 83 84
f 67 84 85
f 67 85 68
f 67 79 82
f 68 85 86
f 68 86 70
f 68 70 69
f 70 86 71
f 71 86 87
f 71 87 88
f 71 88 89
f 71 89 90
f 71 90 91
f 71 91 72
f 73 92 82
f 73 82 74
f 74 82 77
f 74 77 78
f 75 93 94
f 75 94 95
f 75 95 96
f 75 96 97
f 75 97 98
f 75 98 76
f 77 82 79
f 80 99 100
f 80 100 81
f 82 92 83
f 83 92 101
f 83 101 102
f 83 102 84
f 84 86 85
f 84 102 103
f 84 103 86
f 86 103 104
f 86 104 87
f 93 100 94
f 94 100 105
f 99 106 100
f 100 106 107
f 100 107 108
f 100 108 109
f 100 109 110
f 100 110 105

