# https://github.com/mikedh/trimesh
v -0.47359720 11.18636119 -3.00335388
v -0.46281070 11.36228955 -3.00252967
v -0.25496318 11.21175465 -3.00005643
v -0.32507542 11.07648897 -2.99263734
v -0.41178227 11.07648897 -2.99263734
v -0.55117702 11.10935098 -2.98398193
v -0.60013111 11.24876596 -2.99263734
v -0.60013111 11.32876360 -2.99263734
v -0.46281070 11.46668482 -2.96996825
v -0.25413345 11.45141552 -2.96625870
v -0.25413345 11.34702033 -2.99840802
v -0.14294954 11.30818330 -2.98727906
v -0.14294954 11.29092240 -2.98727906
v -0.06205082 11.21175465 -2.96172495
v -0.18609553 11.15150742 -2.97862366
v 0.16405076 11.19781308 -2.91473775
v 0.16405076 10.98869065 -2.85456076
v -0.25496318 10.99964471 -2.94358931
v -0.47359720 10.99964471 -2.94935968
v -0.67065821 11.18636119 -2.97079246
v -0.67190281 10.98869065 -2.91144030
v -0.88099493 10.98869065 -2.86981137
v -1.09008706 10.97707281 -2.82035093
v -1.09008706 11.19781308 -2.88671008
v -0.88099493 11.19781308 -2.93040015
v -0.88099493 11.40643767 -2.91020368
v -0.67065821 11.40162451 -2.95513006
v -1.09008706 11.40643767 -2.86568972
v -1.21288718 11.52162097 -2.78737771
v -1.09008706 11.53921376 -2.80468852
v -0.88099493 11.56195168 -2.82694582
v -0.67190281 11.58269801 -2.84837828
v -0.46281070 11.59962693 -2.86568972
v -0.25413345 11.59564358 -2.86156807
v -0.04504133 11.57489733 -2.84054739
v 0.16405076 11.55415108 -2.81911431
v 0.32750772 11.53274097 -2.79809394
v 0.16405076 11.40643767 -2.89454128
v 0.37231316 11.19781308 -2.85827062
v 0.35654828 10.99632530 -2.80592514
v 0.27689414 10.88014621 -2.77995861
v -0.04504133 10.84429665 -2.81251972
v -0.25413345 10.82521010 -2.83354040
v -0.46281070 10.82172471 -2.83724995
v 0.16405076 10.86637070 -2.79191115
v -0.67190281 10.83682798 -2.82035093
v -0.88099493 10.85774026 -2.79974267
v -1.02038966 10.87400531 -2.78531689
v -1.16019930 10.89956473 -2.76759366
v -1.23653450 11.03897966 -2.80180349
v -1.26847909 11.19781308 -2.82035093
v -1.25146965 11.40643767 -2.80963469
v -1.10958571 12.04492495 -2.26804524
v -0.88099493 12.04492495 -2.36284385
v -1.35601568 11.40643767 -2.74492395
v -1.59663757 11.48709917 -2.55697514
v -1.83435536 11.52145494 -2.37067505
v -1.45724284 11.54137138 -2.60355055
v -1.49043208 12.04492495 -2.02898741
v -0.67190281 12.04492495 -2.40983105
v -0.53084861 12.04492495 -2.43621000
v -0.48147964 12.04492495 -2.44527751
v -0.24956994 12.04492495 -2.43785841
v 0.05411146 12.04492495 -2.36737792
v -0.08694274 12.04492495 -2.40158775
v -0.04504133 12.04492495 -2.39210783
v 0.16405076 12.04492495 -2.33646490
v 0.19641026 12.04492495 -2.32492447
v 0.46690245 11.50120661 -2.77253952
v 0.38724831 11.42170689 -2.82777002
v 0.50838895 11.36212361 -2.79726943
v 0.51253763 11.19781308 -2.80015477
v 0.49345381 11.07101186 -2.78737771
v 0.41587404 10.93176299 -2.74987012
v 0.54157819 10.84579040 -2.61096934
v 0.35654828 10.82006501 -2.67732849
v 0.22711029 10.68015215 -2.55079266
v 0.15990213 10.74770198 -2.65465941
v -0.04504133 10.73973543 -2.68680841
v -0.25413345 10.72064889 -2.69917337
v -0.46281070 10.71716353 -2.70123419
v -0.67190281 10.73226681 -2.69134248
v -0.89219627 10.73857365 -2.65672023
v -1.09008706 10.80711931 -2.68763262
v -1.29917912 10.83599813 -2.62333460
v -1.42405361 10.87018799 -2.58170536
v -1.30332779 10.97707281 -2.72678893
v -1.61945516 11.08329365 -2.57263754
v -1.37302520 11.19781308 -2.75646470
v -1.63439031 11.34785014 -2.58252988
v -1.91525414 12.31396256 -0.31560276
v -1.70906612 11.41324243 -2.50751501
v -1.71694856 11.55630871 -2.41189188
v -1.86049197 11.40643767 -2.39622948
v -1.97457983 11.41888540 -2.25032186
v -2.02394885 11.49672542 -2.13986069
v -1.87833107 11.55879822 -2.25444366
v -2.06999893 11.54469078 -2.00054780
v -2.25502876 11.52510632 -1.75695607
v -1.73810660 12.04492495 -1.65679918
v 1.12736801 12.31396256 -0.31560276
v 0.36816449 12.04492495 -2.25238268
v 0.71416215 11.52660008 -2.58541491
v 1.09127475 11.48958869 -2.34429642
v 0.86102449 11.40643767 -2.54461018
v 0.57974583 11.42170689 -2.72761314
v 1.11990048 11.35033974 -2.37562122
v 0.87803394 11.19781308 -2.55615093
v 0.77348791 11.19781308 -2.62621964
v 0.61708366 11.19781308 -2.73049817
v 1.10994366 11.08130205 -2.36490468
v 0.73697974 11.02951937 -2.60148973
v 0.80045417 10.97126381 -2.52771116
v 0.68097292 10.89010443 -2.56398213
v 0.92200964 10.86487695 -2.37809415
v 0.79091226 10.82969129 -2.42260842
v 0.58928774 10.76861425 -2.46794690
v 0.37231316 10.70239215 -2.51287328
v 0.49760248 10.66953006 -2.37191167
v 0.37231316 10.66073363 -2.40818264
v 0.15990213 10.65459274 -2.47412938
v 0.08771556 10.67218560 -2.57304995
v -0.04504133 10.66787036 -2.58170536
v -0.25413345 10.66305720 -2.59448242
v -0.46281070 10.66222739 -2.59695566
v -0.67190281 10.66571274 -2.58706363
v -0.82996648 10.67035988 -2.57675919
v -0.96936125 10.67666679 -2.56233341
v -1.09008706 10.69110620 -2.52936020
v -1.30374270 10.72413424 -2.45681826
v -1.50785643 10.70687334 -2.29772132
v -1.49955908 10.81740950 -2.46464977
v -1.66757954 10.85027159 -2.39581737
v -1.80697435 10.90022859 -2.34553304
v -1.56344834 10.94404478 -2.53513026
v -1.71321472 10.99167817 -2.46093991
v -1.85095006 11.03947758 -2.38633776
v -1.73852151 11.19781308 -2.51246118
v -1.63397548 11.19781308 -2.58252988
v -1.50785643 11.19781308 -2.66661195
v -1.87376757 11.19781308 -2.40818264
v -1.74184045 12.04492495 -1.64979234
v -1.85095006 12.04492495 -1.41856572
v -2.27826133 11.54884008 -1.62753521
v -2.30439778 11.57605919 -1.41856572
v -2.45582362 11.51863345 -0.93674076
v -2.45582362 11.51863345 -0.85678011
v -2.44296277 11.49622750 -0.71705497
v -2.27660186 11.54767830 -0.16433694
v -2.25336929 11.52361256 -0.03738901
v -1.86754459 12.31396256 -0.19648611
v -1.97831367 11.19781308 -2.28494426
v -2.04925564 11.35747647 -2.17778022
v -2.21395708 11.40643767 -1.90245174
v -2.28116536 11.40643767 -1.79776079
v -2.35210733 11.40643767 -1.62753521
v 1.11077332 12.31396256 -0.25748703
v 1.51153324 11.48660126 -0.09344396
v 1.53186162 11.52079108 -0.23275692
v 1.69490375 11.39316004 -0.80361035
v 1.58911308 11.57771882 -0.79165742
v 1.58952799 11.57788484 -1.00021480
v 1.56878470 11.55780246 -1.20959639
v 1.54721175 11.53705613 -1.41856572
v 1.53227653 11.52145494 -1.56282478
v 1.05393692 12.04492495 -1.43711347
v 0.99336652 12.04492495 -1.61517025
v 0.80626224 12.04492495 -1.85793747
v 0.71623653 12.04492495 -1.97293255
v 0.60837148 12.04492495 -2.06567033
v 0.95187994 11.54618454 -2.40035113
v 1.14105852 11.54220127 -2.20498337
v 1.32650341 11.52261673 -1.96139180
v 1.51319270 11.49041858 -1.70172556
v 1.46465350 11.41523402 -1.82949785
v 1.17341809 11.41473618 -2.26639651
v 1.01286524 11.41473618 -2.43414917
v 1.20619242 11.19781308 -2.25444366
v 1.11990048 11.19781308 -2.37603332
v 1.00000439 11.19781308 -2.46877142
v 1.53725493 11.35116955 -1.75571976
v 1.14811130 11.00246620 -2.24661246
v 1.11948557 10.86919219 -2.17201001
v 1.06140445 10.94188708 -2.31132289
v 0.99502599 11.00246620 -2.40818264
v 1.52812793 11.08063819 -1.74046946
v 1.34268304 11.03731996 -1.98406104
v 0.87139614 10.68098204 -2.12461054
v 0.79755006 10.71882324 -2.25073411
v 0.99502599 10.82537605 -2.24661246
v 0.63699721 10.69143810 -2.31791747
v 0.73200141 10.66554679 -2.17819248
v 0.57310795 10.65542263 -2.25073411
v 0.37231316 10.63351452 -2.25444366
v -0.04504133 10.64048530 -2.46341315
v -0.25413345 10.63467630 -2.46341315
v -0.46281070 10.63401243 -2.46341315
v -0.67190281 10.63766381 -2.46341315
v -0.89219627 10.65143928 -2.48072396
v -1.09008706 10.65658441 -2.42466925
v -1.23694933 10.66637660 -2.38262790
v -1.37634406 10.68164590 -2.33770153
v -1.62277410 10.67069185 -2.15923264
v -1.71487419 10.77907039 -2.25238268
v -1.86256619 10.84728412 -2.20621984
v -2.04801108 10.86637070 -1.96716217
v -2.00154609 10.93591221 -2.10688716
v -1.92645552 10.98769490 -2.25403140
v -2.03929882 11.07532711 -2.16253008
v -2.44337768 11.49738929 -1.07646598
v -2.47988585 11.41938332 -1.00392420
v -2.47947094 11.41871946 -0.78877223
v -2.46163169 11.34917795 -0.58268801
v -2.42968717 11.45357314 -0.58268801
v -2.34920330 11.40676956 -0.16433694
v -2.27950589 11.40676956 0.00259135
v -2.02228938 11.49290810 0.34592771
v -1.76507286 12.31396256 -0.03079435
v -1.79743244 12.31396256 -0.08149103
v -2.05091511 11.19781308 -2.18025331
v -2.14094090 11.19781308 -2.04547418
v -2.22515846 11.19781308 -1.91935061
v -2.29278149 11.19781308 -1.81465981
v -2.37326537 11.19781308 -1.62753521
v -2.45084521 11.31183460 -1.32500357
v -2.41018845 11.39133432 -1.40413994
v -2.43010192 11.45589679 -1.20959639
v 1.10745453 12.31396256 -0.25048015
v 1.46174946 11.41291046 0.03680134
v 1.53559546 11.34735222 -0.03821337
v 1.55509419 11.41291046 -0.16351258
v 1.09500844 12.31396256 -0.22533790
v 1.06140445 12.31396256 -0.16969514
v 1.32484394 11.52112305 0.16704656
v 1.59077255 11.40842927 -0.31560276
v 1.60446306 11.40643767 -0.37371861
v 1.64636454 11.40643767 -0.58268801
v 1.73473086 11.31482211 -0.88109800
v 1.69531866 11.39316004 -0.98908616
v 1.64760911 11.40643767 -1.20959639
v 1.60570777 11.40643767 -1.41856572
v 1.55633875 11.41523402 -1.63042039
v 1.36881964 11.55796841 -1.83609259
v 1.29497364 11.19781308 -2.12172536
v 1.53766984 11.19781308 -1.75613186
v 1.46921700 11.19781308 -1.86082266
v 1.73473086 11.31482211 -0.91159851
v 1.57915626 11.19781308 -1.62753521
v 1.30451555 10.89790502 -1.92841827
v 1.41694395 10.98918857 -1.83444387
v 1.35181020 10.84927576 -1.78869313
v 1.16097215 10.83500233 -2.04547418
v 0.99378142 10.72297246 -2.05083245
v 1.49244942 10.93906559 -1.62753521
v 1.62645091 11.19781308 -1.41856572
v 1.54430756 11.04362680 -1.62753521
v 0.92035025 10.66621066 -1.98529750
v 0.79755006 10.65276709 -2.05083245
v 1.05933008 10.69425958 -1.88678934
v 1.11492207 10.67035988 -1.74747630
v 0.58182013 10.62654381 -2.04547418
v 0.16405076 10.62339035 -2.25444366
v -0.04504133 10.61940708 -2.25444366
v -0.25413345 10.61841124 -2.25444366
v -0.46281070 10.61841124 -2.25444366
v -0.67190281 10.61874321 -2.25444366
v -0.88099493 10.62090083 -2.25444366
v -1.09008706 10.62820351 -2.25444366
v -1.30374270 10.65110738 -2.26268697
v -1.50785643 10.66239333 -2.19344263
v -1.50785643 10.63849362 -2.04547418
v -1.66094166 10.66189541 -2.04547418
v -2.03639479 10.67168769 -1.53562163
v -1.80655944 10.67932234 -1.92141143
v -1.76548777 10.70305602 -2.04547418
v -1.92977446 10.81209842 -2.04011591
v -2.09198678 10.83151694 -1.83609259
v -2.23387072 10.89292591 -1.71738796
v -2.19611798 10.97308946 -1.84433589
v -2.27037889 11.03217491 -1.77962546
v -2.46246150 11.35150152 -1.20959639
v -2.50353317 11.19781308 -1.00021480
v -2.50270336 11.19781308 -0.79165742
v -2.45043031 11.30984300 -0.46934166
v -2.40935863 11.39033856 -0.38938101
v -2.37077624 11.19764714 -0.16433694
v -2.21146796 11.40676956 0.10686997
v -2.29070727 11.19764714 0.01949022
v -2.04718126 11.35399104 0.38384725
v -1.97084614 11.41672778 0.45680106
v -1.83186623 11.51946334 0.57674215
v -1.65015519 12.31396256 0.13489740
v -1.68790792 12.31396256 0.08213982
v -2.29817481 10.97308946 -1.63990032
v -2.36123433 10.98869065 -1.41856572
v -2.45623853 11.07449729 -1.14282498
v -2.44213312 11.14453672 -1.28172576
v -2.42595333 11.20760535 -1.40413994
v -2.45084521 11.28395162 -1.32500357
v 1.08878546 11.48560542 0.55036336
v 1.17009915 11.41241254 0.47328782
v 1.11865576 11.34668836 0.58210027
v 1.20121401 11.19764714 0.46257144
v 1.29248436 11.19764714 0.32655576
v 1.46672787 11.19764714 0.06565314
v 1.53518056 11.19764714 -0.03862555
v 1.57625223 11.19764714 -0.16433694
v 1.62520635 11.19781308 -0.37371861
v 1.03858679 12.31396256 -0.13424860
v 0.90541511 12.31396256 0.06606524
v 1.73473086 11.27864061 -0.88109800
v 1.73473086 11.27864061 -0.91159851
v 1.38790346 10.81525188 -1.62753521
v 1.24518972 10.71085662 -1.62753521
v 1.20992626 10.77160168 -1.83774131
v 1.51402252 10.90022859 -1.48121533
v 1.66793749 11.19781308 -1.20959639
v 1.64760911 10.98869065 -1.00021480
v 1.60778199 10.98869065 -1.20959639
v 1.56214682 10.97740471 -1.41403197
v 0.99378142 10.65708233 -1.82496394
v 0.79091226 10.62770559 -1.83609259
v 1.00000439 10.63534024 -1.62753521
v 1.28086823 10.68712293 -1.41856572
v 1.14064377 10.66206144 -1.62753521
v 0.58182013 10.61841124 -1.83609259
v 0.37231316 10.61957303 -2.04547418
v 0.16405076 10.61841124 -2.04547418
v -1.09008706 10.61841124 -2.04547418
v -1.29917912 10.62322440 -2.04547418
v -1.50785643 10.62289243 -1.83609259
v -1.71694856 10.62704173 -1.62753521
v -1.72897960 10.65027749 -1.84557251
v -1.92147712 10.65724828 -1.61434589
v -2.04552179 10.66737244 -1.41856572
v -2.17827872 10.70388591 -1.00021480
v -2.16251384 10.71948710 -1.20959639
v -2.15006790 10.73840770 -1.41856572
v -2.25751804 10.86338323 -1.57848718
v -2.13513268 10.77790860 -1.62671100
v -1.98785558 10.69243393 -1.67493467
v -1.92604062 10.64048530 -1.41856572
v -1.92147712 10.71932108 -1.84557251
v -2.46412097 11.20760535 -1.21124496
v -2.46951413 11.04362680 -1.00021480
v -2.46909938 11.04445669 -0.79165742
v -2.45582362 11.07565908 -0.65193228
v -2.44171821 11.14835404 -0.51261939
v -2.46329116 11.20992892 -0.58227583
v -2.45043031 11.28760299 -0.46934166
v -2.42512352 11.20992892 -0.38938101
v -2.40728441 11.20577970 -0.31560276
v -2.35998977 10.98869065 -0.37371861
v -2.34339508 10.98487341 -0.31560276
v -2.29693024 10.97441727 -0.15403273
v -2.26871942 11.03499639 -0.01430759
v -2.03763935 11.07831462 0.36859695
v -2.22266934 11.19764714 0.12418101
v -2.04842583 11.19764714 0.38508371
v -1.97499473 11.19764714 0.48936233
v -1.85758778 11.40676956 0.60064786
v -1.70699174 11.40959105 0.71152113
v -1.59290381 11.48112423 0.76304224
v -1.29876429 12.31396256 0.44443595
v -1.36929135 12.31396256 0.39621228
v -1.44562663 12.31396256 0.34139388
v -1.52942937 12.31396256 0.27791991
v -1.60493484 12.31396256 0.19218881
v -2.42180473 10.93889964 -1.00021480
v -2.40769917 10.99831698 -1.21124496
v 1.01162053 11.41241254 0.63815514
v 0.86641773 12.31396256 0.12129583
v 0.75025541 12.31396256 0.25360195
v 0.72453379 12.31396256 0.27915638
v 0.66520804 12.31396256 0.33521132
v 0.71001348 11.52460840 0.79148186
v 0.46109431 11.49622750 0.97819421
v 0.85521635 11.40676956 0.74944067
v 0.50465519 11.35714450 1.00292443
v 0.87264070 11.19764714 0.76098142
v 0.99958949 11.19764714 0.67071656
v 1.11782610 11.19764714 0.58127591
v 1.10828419 11.08445551 0.57138388
v 1.52646846 11.08379157 -0.05346359
v 1.60238884 11.15582267 -0.31560276
v 1.66669293 11.19781308 -0.58268801
v 1.71066863 11.20445189 -0.80361035
v 1.64719420 10.98869065 -0.79165742
v 1.71108354 11.20445189 -0.98908616
v 1.52812793 10.87732472 -1.34190244
v 1.43353864 10.80595753 -1.41403197
v 1.56131716 10.84130921 -0.79165742
v 1.56131716 10.84114323 -1.00021480
v 1.54140353 10.86222145 -1.20959639
v 0.79091226 10.62023689 -1.62753521
v 1.00000439 10.62554797 -1.41856572
v 1.17673703 10.65376292 -1.41856572
v 1.20909645 10.63899154 -1.00021480
v 1.30244118 10.67849244 -1.28419885
v 1.32069519 10.67118977 -1.14488581
v 0.79091226 10.61841124 -1.41856572
v -1.50785643 10.61841124 -1.62753521
v -1.71694856 10.61990500 -1.41856572
v -2.07331787 10.65874203 -1.00021480
v -2.07331787 10.65874203 -0.79165742
v -2.17786382 10.70405186 -0.79165742
v -2.31725863 10.80844712 -1.00021480
v -2.29734499 10.82404828 -1.20959639
v -2.27660186 10.84296888 -1.41856572
v -1.92604062 10.63434441 -1.20959639
v -2.42138983 10.93972953 -0.79165742
v -2.40686951 10.99898084 -0.58227583
v -2.25668823 10.86388115 -0.21709452
v -2.23221125 10.89541547 -0.07778156
v -2.19321395 10.97441727 0.05122720
v -1.99988662 10.93889964 0.31254208
v -1.92396624 10.99118025 0.45968625
v -1.84846077 11.04346086 0.59240455
v -1.87044863 11.19764714 0.61260071
v -1.63065654 11.34220717 0.78859667
v -1.35062244 11.40676956 0.94975459
v -1.20956824 11.51962929 0.99344450
v -1.16227359 12.31396256 0.53511307
v -2.31684372 10.80861307 -0.79165742
v 0.45902001 12.31396256 0.47699737
v 0.41089563 12.31396256 0.50790992
v 0.31464687 12.31396256 0.56849869
v 0.28975499 12.31396256 0.58168817
v 0.16363589 12.31396256 0.62826311
v 0.32169958 11.53058335 1.00374863
v 0.38392937 11.41888540 1.03177615
v 0.57725662 11.41888540 0.93161926
v 0.50714439 11.19764714 1.00457299
v 0.61127559 11.19764714 0.93532865
v 0.37272799 11.19764714 1.05980366
v 0.48930513 11.07565908 0.99344450
v 0.73324597 11.03317067 0.80755652
v 0.99295161 11.00429185 0.61260071
v 0.91910561 10.86686858 0.58416110
v 1.05850042 10.94520648 0.51697758
v 1.11741119 10.87051996 0.37807688
v 1.14479236 11.00429185 0.45350377
v 1.34102357 11.03980948 0.19012799
v 1.41528448 10.99217609 0.04051081
v 1.34973582 10.85043754 -0.00523985
v 1.49078995 10.94221905 -0.16433694
v 1.54264825 11.04678026 -0.16433694
v 1.60612253 10.98869065 -0.58268801
v 1.56131716 10.97790262 -0.37948890
v 1.51526708 10.90421190 -0.31560276
v 1.52771302 10.87765665 -0.45244272
v 1.54057387 10.86288531 -0.58268801
v 1.40159397 10.74322079 -1.21248158
v 1.43353864 10.80678742 -0.37948890
v 1.40117906 10.74405068 -0.58103937
v 1.43395339 10.73691395 -0.79165742
v 1.43436830 10.73641603 -1.00021480
v 1.00000439 10.62156470 -1.20959639
v 1.00000439 10.61907511 -1.00021480
v 1.22320186 10.65260114 -1.21248158
v 1.32982235 10.66687452 -1.00021480
v 1.32940744 10.66687452 -0.79165742
v 1.20909645 10.63932352 -0.79165742
v 1.00000439 10.61924113 -0.79165742
v 0.79091226 10.61841124 -0.37371861
v -1.71694856 10.61841124 -1.20959639
v -1.92604062 10.63036113 -1.00021480
v -1.92604062 10.63052708 -0.79165742
v -1.92604062 10.63451035 -0.58268801
v -1.92604062 10.64081719 -0.37371861
v -2.04469214 10.66770441 -0.37371861
v -2.16209894 10.72015097 -0.58268801
v -2.04054339 10.66969601 -0.31560276
v -2.03597988 10.67185363 -0.25707484
v -2.29693024 10.82454620 -0.58268801
v -2.27618695 10.84363278 -0.37371861
v -2.26913417 10.85110144 -0.31560276
v -2.13430302 10.77857247 -0.16763431
v -2.08949750 10.83334263 0.04463254
v -2.04635161 10.86769844 0.17322912
v -1.80324050 10.90404592 0.55077547
v -1.70989578 10.99615936 0.66659491
v -1.61572139 11.08827284 0.77829254
v -1.73354310 11.19764714 0.71729150
v -1.36804679 11.19764714 0.96129534
v -1.26308585 11.19764714 1.02518141
v -1.24607641 11.40676956 1.01487728
v -1.10917081 12.31396256 0.56602577
v -1.08967216 11.40676956 1.06722260
v -0.88058006 11.40676956 1.11132461
v -0.46239583 11.45573076 1.17479858
v -1.08967216 11.53622632 1.00910690
v -0.67148795 12.31396256 0.69627099
v -0.88058006 12.31396256 0.65216897
v -1.04694101 12.31396256 0.59858703
v -2.14965299 10.73907157 -0.37371861
v 0.02258169 12.31396256 0.66535829
v -0.13714144 12.31396256 0.70121700
v -0.23629424 11.41407224 1.17479858
v 0.16363589 11.40676956 1.09566221
v 0.16363589 11.19764714 1.11627078
v 0.35281451 10.99898084 1.00993127
v 0.27025626 10.88313368 0.98602541
v 0.40965107 10.93624410 0.95593707
v 0.58347959 10.98487341 0.88174687
v 0.67723915 10.89375577 0.77004908
v 0.79796497 10.97342143 0.73171744
v 0.79091226 10.83218085 0.62743875
v 0.79547576 10.72114681 0.45762542
v 0.86849203 10.68181185 0.33026531
v 0.99295161 10.82786560 0.45350377
v 0.53784442 10.84745011 0.81662418
v 1.15931268 10.83666204 0.25360195
v 1.30368574 10.90039458 0.13407312
v 0.99295161 10.72479811 0.25772368
v 1.38624400 10.81641367 -0.16433694
v 1.20868155 10.77259752 0.04422036
v 1.24353025 10.71185245 -0.16433694
v 1.51319270 10.90122443 -0.31312983
v 1.55592385 10.99831698 -0.31560276
v 1.51028867 10.89757309 -0.31560276
v 1.30949381 10.72330443 -0.31560276
v 1.28003842 10.68778680 -0.37371861
v 1.30119662 10.67882442 -0.51014631
v 1.32028044 10.67135571 -0.64945935
v 1.22237221 10.65276709 -0.58103937
v 1.17507756 10.65409482 -0.37371861
v 1.00000439 10.62587994 -0.37371861
v 1.00000439 10.62173065 -0.58268801
v 0.79091226 10.62040292 -0.16433694
v 0.58140530 10.61841124 0.04463254
v -1.71694856 10.61841124 -0.58268801
v -1.71694856 10.62007094 -0.37371861
v -1.86795950 10.63699987 -0.31560276
v -1.92064730 10.65758017 -0.17835070
v -1.65762280 10.66255928 0.25360195
v -1.62069972 10.67135571 0.36612395
v -1.80365541 10.68015215 0.12665402
v -1.98619611 10.69326383 -0.11776192
v -1.92064730 10.72114681 0.05205156
v -1.92852974 10.81409010 0.24741940
v -1.86090672 10.84844590 0.41146258
v -1.71197015 10.78056414 0.45844978
v -1.66426060 10.85193130 0.60147222
v -1.42073467 10.87217963 0.78736021
v -1.55971457 10.94885786 0.74078511
v -1.30083859 10.97939638 0.93079490
v -1.23238583 11.04296294 1.00745818
v -1.08967216 11.19764714 1.08824327
v -0.58851488 11.31996716 1.19829218
v -0.66360550 11.39664540 1.15913618
v -0.46529989 12.31396256 0.73089308
v -0.46239583 11.35100360 1.20694774
v -0.29396052 11.34950985 1.20694774
v -0.25537805 12.31396256 0.72388624
v -0.29396052 11.19764714 1.20736000
v -0.33710651 11.08229789 1.19870444
v 0.16363589 10.98869065 1.05568201
v 0.21632382 10.68164590 0.75521104
v 0.35281451 10.82371634 0.88380770
v -0.26243076 11.00296412 1.14718333
v 0.16363589 10.87035398 0.99674179
v 0.15367916 10.75168533 0.86196266
v 0.58638363 10.77010801 0.67442611
v 0.63450801 10.69276591 0.52398458
v 0.49552818 10.66969601 0.57880298
v 0.72909730 10.66587869 0.38467153
v 0.79547576 10.65309898 0.25772368
v 0.91869078 10.66654263 0.19054017
v 1.11367751 10.67069185 -0.04563239
v 1.05808551 10.69492353 0.09368057
v 0.37272799 10.70471572 0.71687940
v 1.27008160 10.69425958 -0.31560276
v 1.24104112 10.68065007 -0.31560276
v 1.13898430 10.66239333 -0.16433694
v 1.16553565 10.65641839 -0.31560276
v 0.99958949 10.63600411 -0.16433694
v 1.00000439 10.62870143 -0.31560276
v 0.79091226 10.62803749 0.04463254
v 0.58140530 10.62704173 0.25360195
v 0.37272799 10.61990500 0.25360195
v -0.04504133 10.61973897 0.46257144
v 0.16363589 10.61841124 0.25360195
v -1.65928219 10.61957303 -0.31560276
v -1.50785643 10.61841124 -0.16433694
v -1.71694856 10.62206262 -0.31560276
v -1.50785643 10.62289243 0.04463254
v -1.71694856 10.62737362 -0.16433694
v -1.72732013 10.65060946 0.05205156
v -1.50785643 10.63932352 0.25360195
v -1.76258374 10.70438383 0.25360195
v -1.50785643 10.66305720 0.39786093
v -1.23280073 10.66670858 0.58910711
v -1.37219546 10.68280769 0.54253216
v -1.30083859 10.72695573 0.66412182
v -1.50785643 10.70903097 0.50213954
v -1.49748478 10.82056292 0.67154092
v -1.29876429 10.83865367 0.82816493
v -1.15065739 10.90354800 0.97324819
v -1.08469375 10.97939638 1.02476931
v -0.53250806 11.12793969 1.19004888
v -0.88058006 11.19764714 1.13193318
v -0.58851488 11.26718864 1.19829218
v -0.46239583 11.19764714 1.20694774
v -0.39352819 11.08229789 1.19870444
v -0.46239583 11.00296412 1.15336580
v 0.37272799 10.66123155 0.61260071
v 0.07734391 10.67301542 0.77952901
v -0.25454832 10.82803159 1.03837088
v -0.04504133 10.84761605 1.01735021
v -0.04504133 10.74305484 0.89246326
v 0.57186339 10.65608649 0.45762542
v 0.99295161 10.65741422 0.03226743
v 0.37272799 10.63434441 0.46257144
v 0.16363589 10.62388827 0.46257144
v -0.25454832 10.63534024 0.67154092
v -0.25454832 10.61841124 0.46257144
v -1.08967216 10.61841124 0.25360195
v -1.29876429 10.62355630 0.25360195
v -1.08967216 10.62886738 0.46257144
v -1.30083859 10.65143928 0.46875391
v -1.08967216 10.65708233 0.62826311
v -0.95733013 10.67816047 0.76592743
v -1.08967216 10.69309780 0.73254180
v -1.08469375 10.81043872 0.89452408
v -1.01126262 10.87666086 0.99097142
v -0.88058006 10.98869065 1.07134441
v -0.66360550 11.19764714 1.17479858
v -0.67148795 10.98869065 1.11297334
v -0.46239583 10.82454620 1.04208043
v -0.67148795 10.83998144 1.02518141
v 0.15367916 10.65558857 0.67978422
v -0.25454832 10.72347037 0.90524047
v -0.04504133 10.66886620 0.78777231
v -0.04504133 10.64181303 0.67154092
v -0.25454832 10.66355512 0.80054968
v -0.46239583 10.66289125 0.80261050
v -0.46239583 10.63451035 0.67154092
v -0.46239583 10.61841124 0.46257144
v -0.67148795 10.61907511 0.46257144
v -0.88058006 10.62139868 0.46257144
v -0.67148795 10.63865957 0.67154092
v -0.88472870 10.65226917 0.68637896
v -0.81793540 10.67085780 0.78365066
v -0.67148795 10.73542019 0.89740927
v -0.88472870 10.74239097 0.86402349
v -0.88058006 10.86139160 1.00457299
v -0.46239583 10.71998502 0.90730130
v -0.67148795 10.66654263 0.79271848
f 1 2 3
f 1 3 4
f 1 4 5
f 1 5 6
f 1 6 7
f 1 7 8
f 1 8 2
f 2 8 9
f 2 9 10
f 2 10 11
f 2 11 3
f 3 11 12
f 3 12 13
f 3 13 14
f 3 14 15
f 3 15 4
f 4 15 16
f 4 16 17
f 4 17 18
f 4 18 19
f 4 19 5
f 5 19 6
f 6 20 7
f 6 19 21
f 6 21 22
f 6 22 23
f 6 23 24
f 6 24 25
f 6 25 20
f 7 20 25
f 7 25 24
f 7 24 8
f 8 26 27
f 8 27 9
f 8 24 28
f 8 28 26
f 9 27 26
f 9 26 29
f 9 29 30
f 9 30 31
f 9 31 32
f 9 32 33
f 9 33 34
f 9 34 10
f 10 34 35
f 10 35 36
f 10 36 37
f 10 37 38
f 10 38 11
f 11 38 12
f 12 38 16
f 12 16 13
f 13 16 14
f 14 16 15
f 16 38 39
f 16 39 40
f 16 40 17
f 17 40 41
f 17 41 18
f 18 42 43
f 18 43 44
f 18 44 19
f 18 41 45
f 18 45 42
f 19 44 46
f 19 46 21
f 21 46 47
f 21 47 48
f 21 48 22
f 22 48 23
f 23 48 49
f 23 49 50
f 23 50 24
f 24 50 51
f 24 51 52
f 24 52 28
f 26 28 29
f 28 52 29
f 29 53 54
f 29 54 30
f 29 52 55
f 29 55 56
f 29 56 57
f 29 57 58
f 29 58 59
f 29 59 53
f 30 54 60
f 30 60 31
f 31 60 32
f 32 60 61
f 32 61 62
f 32 62 33
f 33 62 63
f 33 63 34
f 34 63 35
f 35 63 36
f 36 64 37
f 36 63 65
f 36 65 66
f 36 66 64
f 37 64 67
f 37 67 68
f 37 68 69
f 37 69 70
f 37 70 38
f 38 70 39
f 39 70 71
f 39 71 72
f 39 72 73
f 39 73 40
f 40 73 74
f 40 74 41
f 41 74 75
f 41 75 76
f 41 76 77
f 41 77 78
f 41 78 45
f 42 45 78
f 42 78 43
f 43 78 79
f 43 79 80
f 43 80 44
f 44 81 82
f 44 82 46
f 44 80 81
f 46 82 83
f 46 83 47
f 47 83 48
f 48 84 49
f 48 83 84
f 49 85 86
f 49 86 87
f 49 87 50
f 49 84 85
f 50 87 88
f 50 88 89
f 50 89 51
f 51 89 90
f 51 90 52
f 52 90 55
f 53 59 91
f 53 91 54
f 54 91 60
f 55 90 56
f 56 90 92
f 56 92 57
f 57 93 58
f 57 92 94
f 57 94 95
f 57 95 96
f 57 96 97
f 57 97 59
f 57 59 93
f 58 93 59
f 59 97 98
f 59 98 99
f 59 99 100
f 59 100 91
f 60 91 61
f 61 91 62
f 62 91 101
f 62 101 63
f 63 101 65
f 64 66 101
f 64 101 67
f 65 101 66
f 67 101 68
f 68 102 69
f 68 101 102
f 69 103 104
f 69 104 105
f 69 105 106
f 69 106 71
f 69 71 70
f 69 102 103
f 71 106 105
f 71 105 107
f 71 107 108
f 71 108 109
f 71 109 110
f 71 110 72
f 72 110 73
f 73 110 109
f 73 109 108
f 73 108 111
f 73 111 112
f 73 112 113
f 73 113 114
f 73 114 74
f 74 114 75
f 75 114 115
f 75 115 116
f 75 116 117
f 75 117 118
f 75 118 76
f 76 118 77
f 77 118 119
f 77 119 120
f 77 120 121
f 77 121 122
f 77 122 78
f 78 122 79
f 79 122 80
f 80 122 123
f 80 123 124
f 80 124 81
f 81 125 126
f 81 126 127
f 81 127 82
f 81 124 125
f 82 127 128
f 82 128 83
f 83 128 84
f 84 128 129
f 84 129 85
f 85 129 130
f 85 130 131
f 85 131 132
f 85 132 133
f 85 133 86
f 86 133 134
f 86 134 135
f 86 135 87
f 87 135 136
f 87 136 88
f 88 136 137
f 88 137 138
f 88 138 139
f 88 139 140
f 88 140 89
f 89 140 90
f 90 139 138
f 90 138 141
f 90 141 94
f 90 94 92
f 90 140 139
f 91 100 142
f 91 142 143
f 91 143 144
f 91 144 145
f 91 145 146
f 91 146 147
f 91 147 148
f 91 148 149
f 91 149 150
f 91 150 151
f 91 151 219
f 91 219 218
f 91 218 293
f 91 293 292
f 91 292 368
f 91 368 367
f 91 367 366
f 91 366 365
f 91 365 364
f 91 364 423
f 91 423 488
f 91 488 495
f 91 495 494
f 91 494 493
f 91 493 552
f 91 552 555
f 91 555 498
f 91 498 497
f 91 497 429
f 91 429 428
f 91 428 427
f 91 427 426
f 91 426 425
f 91 425 375
f 91 375 374
f 91 374 373
f 91 373 372
f 91 372 310
f 91 310 309
f 91 309 233
f 91 233 232
f 91 232 228
f 91 228 157
f 91 157 101
f 94 141 152
f 94 152 153
f 94 153 95
f 95 153 96
f 96 153 154
f 96 154 155
f 96 155 99
f 96 99 98
f 96 98 97
f 99 155 156
f 99 156 144
f 99 144 143
f 99 143 142
f 99 142 100
f 101 157 158
f 101 158 159
f 101 159 160
f 101 160 161
f 101 161 162
f 101 162 163
f 101 163 164
f 101 164 165
f 101 165 166
f 101 166 167
f 101 167 168
f 101 168 169
f 101 169 170
f 101 170 102
f 102 170 171
f 102 171 103
f 103 171 104
f 104 172 173
f 104 173 174
f 104 174 175
f 104 175 176
f 104 176 107
f 104 107 177
f 104 177 105
f 104 171 169
f 104 169 172
f 105 177 107
f 107 178 179
f 107 179 180
f 107 180 108
f 107 176 181
f 107 181 178
f 108 180 111
f 111 182 183
f 111 183 184
f 111 184 115
f 111 115 185
f 111 185 112
f 111 180 179
f 111 179 178
f 111 178 186
f 111 186 187
f 111 187 182
f 112 185 113
f 113 185 115
f 113 115 114
f 115 188 189
f 115 189 116
f 115 184 183
f 115 183 190
f 115 190 188
f 116 189 117
f 117 189 191
f 117 191 118
f 118 191 119
f 119 191 188
f 119 188 192
f 119 192 193
f 119 193 120
f 120 194 121
f 120 193 194
f 121 194 195
f 121 195 122
f 122 195 123
f 123 195 124
f 124 195 196
f 124 196 125
f 125 197 198
f 125 198 126
f 125 196 197
f 126 198 127
f 127 199 128
f 127 198 199
f 128 200 201
f 128 201 129
f 128 199 200
f 129 201 202
f 129 202 130
f 130 202 131
f 131 203 133
f 131 133 132
f 131 202 203
f 133 203 204
f 133 204 134
f 134 205 206
f 134 206 207
f 134 207 208
f 134 208 137
f 134 137 136
f 134 136 135
f 134 204 205
f 137 141 138
f 137 208 209
f 137 209 152
f 137 152 141
f 144 156 210
f 144 210 145
f 145 210 146
f 146 210 211
f 146 211 147
f 147 211 212
f 147 212 148
f 148 212 213
f 148 213 214
f 148 214 215
f 148 215 149
f 149 215 150
f 150 215 216
f 150 216 217
f 150 217 218
f 150 218 219
f 150 219 151
f 152 209 220
f 152 220 153
f 153 220 221
f 153 221 222
f 153 222 223
f 153 223 155
f 153 155 154
f 155 223 224
f 155 224 156
f 156 224 225
f 156 225 226
f 156 226 227
f 156 227 210
f 157 228 158
f 158 229 230
f 158 230 231
f 158 231 159
f 158 228 232
f 158 232 233
f 158 233 234
f 158 234 229
f 159 231 235
f 159 235 236
f 159 236 237
f 159 237 160
f 160 237 236
f 160 236 238
f 160 238 239
f 160 239 162
f 160 162 161
f 162 239 163
f 163 239 164
f 164 239 165
f 165 239 240
f 165 240 241
f 165 241 242
f 165 242 174
f 165 174 167
f 165 167 166
f 167 174 243
f 167 243 173
f 167 173 172
f 167 172 168
f 168 172 169
f 169 171 170
f 173 243 174
f 174 242 181
f 174 181 175
f 175 181 176
f 178 244 186
f 178 181 244
f 181 245 246
f 181 246 244
f 181 242 247
f 181 247 248
f 181 248 245
f 182 249 183
f 182 187 250
f 182 250 249
f 183 249 251
f 183 251 252
f 183 252 253
f 183 253 190
f 186 254 251
f 186 251 250
f 186 250 187
f 186 244 246
f 186 246 245
f 186 245 248
f 186 248 255
f 186 255 256
f 186 256 254
f 188 257 258
f 188 258 192
f 188 191 189
f 188 190 253
f 188 253 259
f 188 259 260
f 188 260 257
f 192 258 193
f 193 261 194
f 193 258 261
f 194 262 195
f 194 261 262
f 195 262 196
f 196 262 263
f 196 263 264
f 196 264 197
f 197 265 266
f 197 266 267
f 197 267 198
f 197 264 265
f 198 267 268
f 198 268 199
f 199 268 200
f 200 268 269
f 200 269 270
f 200 270 201
f 201 270 203
f 201 203 202
f 203 270 271
f 203 271 272
f 203 272 273
f 203 273 274
f 203 274 275
f 203 275 205
f 203 205 204
f 205 275 276
f 205 276 206
f 206 276 277
f 206 277 278
f 206 278 207
f 207 278 279
f 207 279 209
f 207 209 208
f 209 279 280
f 209 280 223
f 209 223 222
f 209 222 221
f 209 221 220
f 210 281 211
f 210 227 281
f 211 282 212
f 211 281 282
f 212 282 283
f 212 283 213
f 213 283 284
f 213 284 214
f 214 284 285
f 214 285 215
f 215 285 284
f 215 284 286
f 215 286 216
f 216 287 217
f 216 286 288
f 216 288 289
f 216 289 287
f 217 289 290
f 217 290 291
f 217 291 292
f 217 292 293
f 217 293 218
f 217 287 289
f 223 280 224
f 224 280 294
f 224 294 295
f 224 295 296
f 224 296 297
f 224 297 298
f 224 298 299
f 224 299 225
f 225 299 282
f 225 282 281
f 225 281 226
f 226 281 227
f 229 234 300
f 229 300 301
f 229 301 230
f 230 301 302
f 230 302 303
f 230 303 304
f 230 304 305
f 230 305 306
f 230 306 307
f 230 307 308
f 230 308 238
f 230 238 231
f 231 238 236
f 231 236 235
f 233 309 234
f 234 309 310
f 234 310 300
f 238 308 311
f 238 311 312
f 238 312 247
f 238 247 239
f 239 247 240
f 240 247 241
f 241 247 242
f 247 312 255
f 247 255 248
f 249 250 251
f 251 254 313
f 251 313 314
f 251 314 315
f 251 315 252
f 252 315 253
f 253 315 259
f 254 256 316
f 254 316 313
f 255 312 317
f 255 317 256
f 256 317 318
f 256 318 319
f 256 319 320
f 256 320 316
f 257 260 321
f 257 321 258
f 258 322 261
f 258 321 323
f 258 323 322
f 259 315 260
f 260 323 321
f 260 315 314
f 260 314 324
f 260 324 325
f 260 325 323
f 261 322 326
f 261 326 327
f 261 327 262
f 262 327 263
f 263 327 326
f 263 326 328
f 263 328 264
f 264 328 326
f 264 326 401
f 264 401 465
f 264 465 531
f 264 531 583
f 264 583 617
f 264 617 639
f 264 639 618
f 264 618 585
f 264 585 532
f 264 532 466
f 264 466 402
f 264 402 329
f 264 329 265
f 265 329 266
f 266 329 267
f 267 329 330
f 267 330 268
f 268 330 271
f 268 271 269
f 269 271 270
f 271 331 332
f 271 332 333
f 271 333 272
f 271 330 331
f 272 333 334
f 272 334 273
f 273 335 336
f 273 336 337
f 273 337 338
f 273 338 339
f 273 339 340
f 273 340 341
f 273 341 274
f 273 334 342
f 273 342 335
f 274 341 275
f 275 341 343
f 275 343 276
f 276 343 277
f 277 343 341
f 277 341 340
f 277 340 278
f 278 339 294
f 278 294 280
f 278 280 279
f 278 340 339
f 282 299 344
f 282 344 297
f 282 297 296
f 282 296 345
f 282 345 346
f 282 346 283
f 283 346 347
f 283 347 348
f 283 348 349
f 283 349 350
f 283 350 284
f 284 350 286
f 286 350 351
f 286 351 352
f 286 352 348
f 286 348 347
f 286 347 353
f 286 353 354
f 286 354 355
f 286 355 356
f 286 356 288
f 288 356 357
f 288 357 358
f 288 358 289
f 289 359 360
f 289 360 361
f 289 361 290
f 289 358 359
f 290 361 291
f 291 361 362
f 291 362 363
f 291 363 364
f 291 364 365
f 291 365 366
f 291 366 367
f 291 367 368
f 291 368 292
f 294 339 295
f 295 369 370
f 295 370 296
f 295 339 369
f 296 370 369
f 296 369 345
f 297 344 298
f 298 344 299
f 300 371 302
f 300 302 301
f 300 310 372
f 300 372 373
f 300 373 374
f 300 374 375
f 300 375 376
f 300 376 377
f 300 377 378
f 300 378 371
f 302 371 378
f 302 378 379
f 302 379 380
f 302 380 381
f 302 381 382
f 302 382 303
f 303 382 383
f 303 383 304
f 304 383 384
f 304 384 305
f 305 384 306
f 306 384 307
f 307 384 308
f 308 384 385
f 308 385 386
f 308 386 311
f 311 386 387
f 311 387 388
f 311 388 318
f 311 318 312
f 312 389 317
f 312 318 389
f 313 316 390
f 313 390 391
f 313 391 324
f 313 324 314
f 316 320 319
f 316 319 318
f 316 318 390
f 317 389 318
f 318 388 392
f 318 392 393
f 318 393 394
f 318 394 390
f 322 395 326
f 322 323 396
f 322 396 395
f 323 325 397
f 323 397 398
f 323 398 396
f 324 399 325
f 324 391 399
f 325 399 400
f 325 400 397
f 326 395 401
f 329 402 331
f 329 331 330
f 331 402 403
f 331 403 332
f 332 403 342
f 332 342 334
f 332 334 333
f 335 342 404
f 335 404 336
f 336 404 405
f 336 405 406
f 336 406 424
f 336 424 407
f 336 407 337
f 337 407 338
f 338 407 408
f 338 408 409
f 338 409 339
f 339 409 369
f 342 410 404
f 342 403 410
f 345 369 411
f 345 411 346
f 346 411 347
f 347 411 412
f 347 412 353
f 348 352 351
f 348 351 349
f 349 351 350
f 353 412 411
f 353 411 413
f 353 413 354
f 354 413 355
f 355 413 414
f 355 414 356
f 356 414 415
f 356 415 357
f 357 416 417
f 357 417 418
f 357 418 360
f 357 360 359
f 357 359 358
f 357 415 416
f 360 418 419
f 360 419 361
f 361 419 420
f 361 420 362
f 362 420 363
f 363 420 421
f 363 421 422
f 363 422 423
f 363 423 364
f 369 409 408
f 369 408 407
f 369 407 424
f 369 424 411
f 375 425 376
f 376 425 377
f 377 425 426
f 377 426 427
f 377 427 428
f 377 428 429
f 377 429 430
f 377 430 431
f 377 431 379
f 377 379 432
f 377 432 378
f 378 432 379
f 379 433 434
f 379 434 380
f 379 431 435
f 379 435 433
f 380 434 436
f 380 436 383
f 380 383 381
f 381 383 382
f 383 436 437
f 383 437 438
f 383 438 439
f 383 439 440
f 383 440 441
f 383 441 442
f 383 442 443
f 383 443 384
f 384 443 444
f 384 444 445
f 384 445 446
f 384 446 447
f 384 447 385
f 385 447 386
f 386 447 388
f 386 388 387
f 388 448 449
f 388 449 450
f 388 450 451
f 388 451 452
f 388 452 392
f 388 447 448
f 390 394 391
f 391 453 399
f 391 394 393
f 391 393 453
f 392 452 454
f 392 454 455
f 392 455 456
f 392 456 457
f 392 457 393
f 393 457 453
f 395 396 458
f 395 458 459
f 395 459 401
f 396 398 458
f 397 400 460
f 397 460 398
f 398 460 400
f 398 400 461
f 398 461 462
f 398 462 463
f 398 463 464
f 398 464 459
f 398 459 458
f 399 453 400
f 400 453 457
f 400 457 461
f 401 459 465
f 402 466 403
f 403 467 410
f 403 466 467
f 404 410 467
f 404 467 405
f 405 467 468
f 405 468 469
f 405 469 470
f 405 470 471
f 405 471 406
f 406 472 424
f 406 471 473
f 406 473 474
f 406 474 472
f 411 424 475
f 411 475 476
f 411 476 477
f 411 477 413
f 413 477 474
f 413 474 478
f 413 478 414
f 414 478 479
f 414 479 480
f 414 480 416
f 414 416 415
f 416 480 481
f 416 481 417
f 417 481 418
f 418 481 482
f 418 482 483
f 418 483 484
f 418 484 419
f 419 484 420
f 420 484 485
f 420 485 486
f 420 486 487
f 420 487 421
f 421 487 422
f 422 488 423
f 422 487 489
f 422 489 490
f 422 490 491
f 422 491 492
f 422 492 493
f 422 493 494
f 422 494 495
f 422 495 488
f 424 472 496
f 424 496 475
f 429 497 430
f 430 497 498
f 430 498 499
f 430 499 500
f 430 500 431
f 431 500 435
f 433 435 436
f 433 436 434
f 435 501 502
f 435 502 436
f 435 500 501
f 436 502 503
f 436 503 504
f 436 504 505
f 436 505 437
f 437 505 506
f 437 506 507
f 437 507 438
f 438 507 506
f 438 506 439
f 439 508 509
f 439 509 510
f 439 510 511
f 439 511 441
f 439 441 440
f 439 506 512
f 439 512 508
f 441 513 445
f 441 445 514
f 441 514 442
f 441 511 515
f 441 515 513
f 442 514 443
f 443 514 444
f 444 514 445
f 445 516 446
f 445 513 517
f 445 517 518
f 445 518 516
f 446 519 447
f 446 516 519
f 447 520 448
f 447 519 450
f 447 450 520
f 448 520 449
f 449 520 450
f 450 519 451
f 451 519 521
f 451 521 516
f 451 516 454
f 451 454 452
f 454 516 522
f 454 522 523
f 454 523 524
f 454 524 455
f 455 524 525
f 455 525 456
f 456 525 462
f 456 462 457
f 457 462 461
f 459 464 465
f 462 525 463
f 463 525 526
f 463 526 527
f 463 527 528
f 463 528 529
f 463 529 464
f 464 529 530
f 464 530 465
f 465 530 531
f 466 532 467
f 467 532 468
f 468 532 533
f 468 533 469
f 469 533 470
f 470 474 473
f 470 473 471
f 470 533 534
f 470 534 535
f 470 535 474
f 472 474 496
f 474 479 478
f 474 477 496
f 474 535 536
f 474 536 537
f 474 537 538
f 474 538 539
f 474 539 479
f 475 496 476
f 476 496 477
f 479 539 540
f 479 540 541
f 479 541 480
f 480 541 542
f 480 542 481
f 481 542 543
f 481 543 544
f 481 544 545
f 481 545 546
f 481 546 482
f 482 546 547
f 482 547 483
f 483 547 548
f 483 548 485
f 483 485 484
f 485 548 486
f 486 548 549
f 486 549 487
f 487 549 489
f 489 549 550
f 489 550 490
f 490 550 551
f 490 551 491
f 491 552 493
f 491 493 492
f 491 551 550
f 491 550 553
f 491 553 554
f 491 554 499
f 491 499 555
f 491 555 552
f 498 555 499
f 499 554 500
f 500 554 501
f 501 554 556
f 501 556 557
f 501 557 558
f 501 558 502
f 502 558 503
f 503 559 560
f 503 560 512
f 503 512 504
f 503 558 557
f 503 557 561
f 503 561 562
f 503 562 563
f 503 563 559
f 504 512 506
f 504 506 505
f 508 512 564
f 508 564 509
f 509 564 565
f 509 565 510
f 510 515 511
f 510 565 566
f 510 566 567
f 510 567 568
f 510 568 569
f 510 569 570
f 510 570 571
f 510 571 515
f 512 560 572
f 512 572 564
f 513 515 517
f 515 571 517
f 516 521 519
f 516 518 573
f 516 573 522
f 517 571 570
f 517 570 518
f 518 570 573
f 522 573 523
f 523 573 570
f 523 570 574
f 523 574 524
f 524 574 575
f 524 575 525
f 525 575 576
f 525 576 527
f 525 527 526
f 527 576 577
f 527 577 578
f 527 578 528
f 528 578 577
f 528 577 579
f 528 579 530
f 528 530 529
f 530 579 531
f 531 579 580
f 531 580 581
f 531 581 582
f 531 582 583
f 532 584 533
f 532 585 584
f 533 586 534
f 533 584 587
f 533 587 586
f 534 586 588
f 534 588 535
f 535 588 589
f 535 589 536
f 536 590 537
f 536 589 590
f 537 544 543
f 537 543 542
f 537 542 591
f 537 591 538
f 537 590 592
f 537 592 593
f 537 593 594
f 537 594 595
f 537 595 596
f 537 596 544
f 538 591 539
f 539 591 540
f 540 591 541
f 541 591 542
f 544 596 597
f 544 597 598
f 544 598 545
f 545 598 599
f 545 599 547
f 545 547 546
f 547 599 548
f 548 599 600
f 548 600 549
f 549 600 601
f 549 601 602
f 549 602 603
f 549 603 550
f 550 603 604
f 550 604 553
f 553 604 556
f 553 556 554
f 556 604 605
f 556 605 557
f 557 605 606
f 557 606 561
f 559 607 566
f 559 566 572
f 559 572 560
f 559 563 608
f 559 608 607
f 561 606 609
f 561 609 610
f 561 610 562
f 562 610 563
f 563 610 609
f 563 609 611
f 563 611 608
f 564 572 565
f 565 572 566
f 566 612 567
f 566 607 612
f 567 612 568
f 568 612 580
f 568 580 579
f 568 579 613
f 568 613 569
f 569 613 570
f 570 613 577
f 570 577 575
f 570 575 574
f 575 577 576
f 577 613 579
f 580 612 614
f 580 614 615
f 580 615 581
f 581 615 582
f 582 616 617
f 582 617 583
f 582 615 616
f 584 585 587
f 585 618 587
f 586 587 588
f 587 618 619
f 587 619 590
f 587 590 588
f 588 590 589
f 590 619 620
f 590 620 621
f 590 621 592
f 592 621 593
f 593 621 622
f 593 622 623
f 593 623 624
f 593 624 594
f 594 624 595
f 595 598 597
f 595 597 596
f 595 624 598
f 598 624 625
f 598 625 599
f 599 625 626
f 599 626 600
f 600 626 627
f 600 627 601
f 601 603 628
f 601 628 602
f 601 627 629
f 601 629 605
f 601 605 604
f 601 604 603
f 602 628 603
f 605 629 606
f 606 630 609
f 606 629 631
f 606 631 630
f 607 608 632
f 607 632 614
f 607 614 612
f 608 611 633
f 608 633 634
f 608 634 635
f 608 635 632
f 609 633 611
f 609 630 633
f 614 632 635
f 614 635 615
f 615 635 616
f 616 635 636
f 616 636 637
f 616 637 638
f 616 638 617
f 617 638 639
f 618 639 640
f 618 640 641
f 618 641 619
f 619 641 620
f 620 641 642
f 620 642 643
f 620 643 622
f 620 622 621
f 622 643 623
f 623 625 624
f 623 643 644
f 623 644 645
f 623 645 646
f 623 646 625
f 625 646 626
f 626 646 647
f 626 647 629
f 626 629 627
f 629 647 631
f 630 631 645
f 630 645 648
f 630 648 633
f 631 647 646
f 631 646 645
f 633 636 634
f 633 648 636
f 634 636 635
f 636 648 637
f 637 648 649
f 637 649 642
f 637 642 638
f 638 642 641
f 638 641 640
f 638 640 639
f 642 649 644
f 642 644 643
f 644 649 648
f 644 648 645

