# https://github.com/mikedh/trimesh
v -6.61394829 19.34964271 0.04477649
v -6.61193294 18.51340905 0.46297743
v -6.60823865 19.97707697 -0.16414214
v -6.61294093 19.76775986 -0.16414214
v -6.61327671 17.05077528 1.08991520
v -6.61361250 16.63265814 1.29883376
v -6.61294093 16.21454162 1.50793422
v -6.61092558 18.09580898 0.67171425
v -6.59077397 20.18587700 -0.16414214
v -6.59883473 20.18587700 -0.31542178
v -6.60958243 17.67820891 0.88081473
v -6.60823865 17.26009177 1.08991520
v -6.60655972 19.55895982 0.04477649
v -6.53132774 19.76775986 -0.31542178
v -6.56927920 19.55895982 -0.16414214
v -6.58338539 19.14084268 0.04477649
v -6.59379668 18.72272616 0.25387696
v -6.60152166 18.30460902 0.46297743
v -6.60723129 17.88700895 0.67171425
v -6.61092558 17.46889180 0.88081473
v -6.59480466 16.00574159 1.50793422
v -6.59581202 16.00574159 1.54211774
v -6.60723129 16.21454162 1.54211774
v -6.60420858 16.42385811 1.50793422
v -6.60655972 16.84197525 1.29883376
v -6.60454437 19.14084268 0.25387696
v -6.58875924 19.76775986 0.04477649
v -6.55685257 19.97707697 0.04477649
v -6.49438301 20.20448237 0.06459559
v -6.53804473 20.39519349 -0.16414214
v -6.55349407 20.39519349 -0.31542178
v -6.49001715 19.65095626 -0.31542178
v -6.49471942 18.72272616 0.10768845
v -6.50311535 18.30460902 0.30842491
v -6.50949656 17.88700895 0.50934318
v -6.58472854 16.42385811 1.29883376
v -6.50916078 15.65429602 1.54211774
v -6.59413246 16.42385811 1.54211774
v -6.58372118 16.63265814 1.50793422
v -6.58842345 17.05077528 1.29883376
v -6.59245353 17.46889180 1.08991520
v -6.59614781 17.88700895 0.88081473
v -6.59917052 18.30460902 0.67171425
v -6.60185745 18.72272616 0.46297743
v -6.58439276 19.34964271 0.25387696
v -6.57935532 18.93152619 0.46297743
v -6.57398147 18.51340905 0.67171425
v -6.56256221 17.67820891 1.08991520
v -6.55618100 17.26009177 1.29883376
v -6.54341858 19.14084268 0.46297743
v -6.46885817 19.97707697 0.21532977
v -6.44299693 20.14763149 0.17660070
v -6.41847946 20.28665873 0.14750847
v -6.46516389 20.39519349 0.00641109
v -6.53636517 18.72272616 0.67171425
v -6.52830503 18.30460902 0.88081473
v -6.51990847 17.88700895 1.08991520
v -6.43493678 20.51923302 -0.03922735
v -6.45979004 20.55024322 -0.16414214
v -6.53199931 20.43809081 -0.31542178
v -6.34022476 19.55895982 -0.31542178
v -6.46919396 19.55895982 -0.29396623
v -6.48363594 19.14084268 -0.09322984
v -6.46516389 18.16248056 0.34115368
v -6.47322404 17.73350982 0.54479935
v -6.49572678 16.00574159 1.36065479
v -6.43157828 15.58762444 1.54211774
v -6.45575997 15.87446611 1.39101989
v -6.56827184 16.63317522 1.54211774
v -6.54946400 16.84197525 1.50793422
v -6.46415590 19.55895982 0.41588437
v -6.43292143 18.85710222 0.78990147
v -6.43661572 19.28607296 0.58571032
v -6.47994165 18.92894206 0.67953277
v -6.47322404 17.67820891 1.26810515
v -6.24887187 18.66742526 1.00809323
v -6.26600077 19.97707697 0.39242876
v -6.22368282 20.09646469 0.36533661
v -6.27271777 20.39519349 0.18860125
v -6.22536176 20.51148063 0.15787256
v -6.37716949 20.39519349 0.11096133
v -6.42855557 18.42813210 0.99391077
v -6.42385330 17.99916136 1.19773827
v -6.41780788 17.56812356 1.40065665
v -6.48934557 17.06059473 1.52302582
v -6.46852239 17.26009177 1.46829603
v -6.29051824 20.58487107 0.02241185
v -6.21629363 20.71149412 -0.05522807
v -6.34996509 20.65464324 -0.16414214
v -6.39396198 20.63552017 -0.31542178
v -6.46818660 20.56006329 -0.31542178
v -6.36373488 20.66446269 -0.31542178
v -6.31604308 19.55017390 -0.31542178
v -6.42318173 19.45249275 -0.26960154
v -6.44031063 19.02248848 -0.06595583
v -6.45441620 18.59248421 0.13768984
v -6.31604308 15.51940288 1.54211774
v -6.44232535 16.30395330 1.18737418
v -6.53132774 16.84197525 1.54211774
v -6.45911847 19.14084268 0.61680265
v -6.23174359 17.80793379 1.41520282
v -6.21427890 19.66646105 0.56898228
v -6.10680447 20.23187491 0.33078957
v -6.10680447 20.39519349 0.25024042
v -6.10680447 20.53318783 0.17350966
v -6.10680447 20.63810430 0.06968672
v -6.44266114 17.42857923 1.43011251
v -6.47020132 17.07920073 1.54211774
v -6.39832847 17.26009177 1.54211774
v -6.34559861 17.36139120 1.54211774
v -6.29018246 17.44408402 1.54211774
v -6.27674784 17.67820891 1.44465868
v -6.48061323 17.04974176 1.54211774
v -6.10680447 20.72389895 -0.03486352
v -6.10680447 20.76679627 -0.16414214
v -6.24551337 20.72700015 -0.16414214
v -6.33485154 20.68461928 -0.31542178
v -3.18283523 19.54913975 -0.31542178
v -3.18283523 19.14291036 -0.13159520
v -3.18283523 19.01266841 -0.07231975
v -6.31604308 19.45145860 -0.26996513
v -6.31604308 18.47516354 0.17987358
v -6.31604308 15.58762444 1.51066164
v -6.42553286 16.73395695 0.98391034
v -3.30240020 15.51940288 1.54211774
v -6.10680447 17.60326849 1.54211774
v -6.19244835 19.23697385 0.77208246
v -6.10680447 20.12747489 0.37951908
v -6.05306725 19.26746697 0.78662859
v -5.89790164 20.25513209 0.34206281
v -5.89790164 20.39519349 0.27278693
v -5.89790164 20.54920969 0.18460108
v -5.89790164 20.65360971 0.08786939
v -5.89790164 20.73475255 -0.01668084
v -5.89790164 20.78798639 -0.16414214
v -6.10680447 20.78023400 -0.31542178
v -6.14542813 20.76938040 -0.31542178
v -6.25928315 20.73526962 -0.31542178
v -3.18283523 20.79883875 -0.31542178
v -3.18283523 15.58762444 1.51066164
v -3.18283523 15.52043579 1.54175407
v -3.18283523 15.64344242 1.54211774
v -5.94592922 17.63996340 1.54211774
v -6.02619864 18.83746270 0.99009243
v -6.10680447 17.84411225 1.43174893
v -3.18283523 20.25513209 0.34206281
v -5.89790164 17.86736943 1.44247668
v -3.18283523 20.39519349 0.27278693
v -3.18283523 20.54920969 0.18460108
v -3.18283523 20.65257618 0.08896035
v -3.18283523 20.65360971 0.08786939
v -3.18283523 20.73475255 -0.01668084
v -3.18283523 20.78746932 -0.16250572
v -3.18283523 20.78798639 -0.16414214
v -3.18283523 20.79883875 -0.31360345
v -5.89790164 20.79883875 -0.31542178
v -3.18283523 17.65081700 1.54211774
v -5.89790164 17.65081700 1.54211774
v -5.89790164 17.67820891 1.52957165
v -3.18283523 17.86736943 1.44247668
v -3.18283523 17.67769184 1.52975340
v -3.38972302 17.67820891 1.52957165
f 1 2 3
f 1 3 4
f 1 4 5
f 1 5 6
f 1 6 7
f 1 7 2
f 2 7 8
f 2 8 3
f 3 9 10
f 3 10 4
f 3 8 11
f 3 11 12
f 3 12 25
f 3 25 13
f 3 13 9
f 4 10 14
f 4 14 15
f 4 15 16
f 4 16 17
f 4 17 18
f 4 18 19
f 4 19 20
f 4 20 5
f 5 20 21
f 5 21 6
f 6 21 7
f 7 21 22
f 7 22 23
f 7 23 24
f 7 24 25
f 7 25 12
f 7 12 11
f 7 11 8
f 9 13 26
f 9 26 27
f 9 27 28
f 9 28 29
f 9 29 30
f 9 30 31
f 9 31 10
f 10 31 60
f 10 60 91
f 10 91 90
f 10 90 92
f 10 92 117
f 10 117 138
f 10 138 137
f 10 137 136
f 10 136 156
f 10 156 139
f 10 139 118
f 10 118 93
f 10 93 61
f 10 61 32
f 10 32 14
f 13 25 26
f 14 32 33
f 14 33 34
f 14 34 16
f 14 16 15
f 16 34 35
f 16 35 36
f 16 36 17
f 17 36 21
f 17 21 18
f 18 21 19
f 19 21 20
f 21 37 22
f 21 36 37
f 22 37 67
f 22 67 97
f 22 97 125
f 22 125 142
f 22 142 157
f 22 157 158
f 22 158 143
f 22 143 126
f 22 126 111
f 22 111 110
f 22 110 109
f 22 109 108
f 22 108 113
f 22 113 99
f 22 99 69
f 22 69 38
f 22 38 23
f 23 38 24
f 24 38 39
f 24 39 40
f 24 40 41
f 24 41 42
f 24 42 43
f 24 43 44
f 24 44 26
f 24 26 25
f 26 44 27
f 27 44 43
f 27 43 42
f 27 42 41
f 27 41 40
f 27 40 45
f 27 45 28
f 28 45 46
f 28 46 47
f 28 47 48
f 28 48 49
f 28 49 70
f 28 70 50
f 28 50 29
f 29 51 52
f 29 52 53
f 29 53 54
f 29 54 30
f 29 50 55
f 29 55 56
f 29 56 57
f 29 57 51
f 30 54 58
f 30 58 59
f 30 59 60
f 30 60 31
f 32 61 62
f 32 62 63
f 32 63 33
f 33 63 64
f 33 64 65
f 33 65 66
f 33 66 34
f 34 66 35
f 35 66 37
f 35 37 36
f 37 66 68
f 37 68 67
f 38 69 39
f 39 69 70
f 39 70 49
f 39 49 48
f 39 48 47
f 39 47 46
f 39 46 45
f 39 45 40
f 50 70 55
f 51 71 72
f 51 72 73
f 51 73 52
f 51 57 74
f 51 74 75
f 51 75 71
f 52 73 53
f 53 76 77
f 53 77 78
f 53 78 79
f 53 79 80
f 53 80 81
f 53 81 58
f 53 58 54
f 53 73 72
f 53 72 82
f 53 82 83
f 53 83 84
f 53 84 76
f 55 70 56
f 56 70 57
f 57 70 85
f 57 85 86
f 57 86 75
f 57 75 74
f 58 80 87
f 58 87 88
f 58 88 89
f 58 89 59
f 58 81 80
f 59 90 91
f 59 91 60
f 59 89 92
f 59 92 90
f 61 93 94
f 61 94 62
f 62 94 95
f 62 95 96
f 62 96 64
f 62 64 63
f 64 68 65
f 64 96 68
f 65 68 66
f 67 68 97
f 68 98 97
f 68 96 98
f 69 99 70
f 70 99 85
f 71 100 72
f 71 75 100
f 72 100 75
f 72 75 86
f 72 86 82
f 76 78 77
f 76 84 101
f 76 101 78
f 78 102 103
f 78 103 104
f 78 104 80
f 78 80 79
f 78 101 102
f 80 105 106
f 80 106 88
f 80 88 87
f 80 104 105
f 82 86 83
f 83 86 107
f 83 107 84
f 84 107 108
f 84 108 109
f 84 109 110
f 84 110 111
f 84 111 112
f 84 112 101
f 85 99 113
f 85 113 86
f 86 113 107
f 88 114 115
f 88 115 116
f 88 116 89
f 88 106 114
f 89 116 117
f 89 117 92
f 93 118 119
f 93 119 120
f 93 120 121
f 93 121 94
f 94 121 122
f 94 122 123
f 94 123 124
f 94 124 98
f 94 98 95
f 95 98 96
f 97 98 124
f 97 124 123
f 97 123 120
f 97 120 125
f 101 112 111
f 101 111 126
f 101 126 127
f 101 127 102
f 102 127 128
f 102 128 103
f 103 128 129
f 103 129 130
f 103 130 104
f 104 130 131
f 104 131 105
f 105 132 133
f 105 133 106
f 105 131 132
f 106 133 114
f 107 113 108
f 114 134 135
f 114 135 115
f 114 133 134
f 115 135 136
f 115 136 137
f 115 137 116
f 116 137 138
f 116 138 117
f 118 139 155
f 118 155 154
f 118 154 153
f 118 153 152
f 118 152 151
f 118 151 150
f 118 150 149
f 118 149 148
f 118 148 146
f 118 146 160
f 118 160 161
f 118 161 157
f 118 157 142
f 118 142 141
f 118 141 140
f 118 140 120
f 118 120 119
f 120 140 125
f 120 123 122
f 120 122 121
f 125 140 141
f 125 141 142
f 126 143 144
f 126 144 145
f 126 145 127
f 127 145 128
f 128 145 129
f 129 144 130
f 129 145 144
f 130 146 148
f 130 148 131
f 130 144 147
f 130 147 160
f 130 160 146
f 131 148 149
f 131 149 132
f 132 149 150
f 132 150 133
f 133 150 151
f 133 151 152
f 133 152 134
f 134 152 153
f 134 153 135
f 135 153 154
f 135 154 155
f 135 155 156
f 135 156 136
f 139 156 155
f 143 158 144
f 144 158 159
f 144 159 147
f 147 159 162
f 147 162 160
f 157 161 162
f 157 162 159
f 157 159 158
f 160 162 161

