# https://github.com/mikedh/trimesh
v -23.22999871 80.09909484 -23.02839571
v -22.74278975 75.00259945 -23.02839571
v -24.73503482 80.09909484 -22.84395647
v -21.27634633 80.09909484 -23.02839571
v -43.17654145 80.09909484 -20.16837984
v -41.67633116 80.09909484 -20.40937847
v -40.16646922 80.09909484 -20.64791769
v -38.65178609 80.09909484 -20.88154042
v -37.13228178 80.09909484 -21.11516082
v -35.60795164 80.09909484 -21.34386241
v -34.07879567 80.09909484 -21.57010692
v -32.53999269 80.09909484 -21.79389203
v -30.94812882 80.09909484 -22.02013421
v -29.44309270 80.09909484 -22.22670579
v -27.89946854 80.09909484 -22.43573678
v -26.34619272 80.09909484 -22.63984662
v -1.08860970 75.00259945 -23.02839571
v -35.60795164 75.00259945 -20.74382526
v -47.49869561 80.09909484 -19.45275986
v -44.99512637 80.09909484 -19.86836010
v -21.33905423 80.09909484 -22.46278560
v -1.08860970 79.99981895 -7.41511515
v -1.08860970 79.99981895 -23.02839571
v -1.08860970 75.00259945 -7.41511515
v -37.05992222 75.00259945 -20.48315370
v -47.58069754 80.09909484 -19.43800575
v -21.40176445 80.09909484 -22.15784937
v -7.19558191 79.99981895 2.09450108
v -1.08860970 77.50046068 -7.40773809
v -21.50788856 80.09909484 -21.88242137
v -21.60436565 80.09909484 -21.71519798
v -21.65260535 80.09909484 -21.63404453
v -7.19558191 75.00259945 2.09450108
v -38.50225043 75.00259945 -20.21756333
v -47.27197456 78.96515486 -19.28061765
v -47.70611799 80.09909484 -19.40849519
v -39.93492699 75.00259945 -19.94951355
v -41.36277771 75.00259945 -19.67900437
v -42.78581190 75.00259945 -19.40603578
v -21.67189938 80.09909484 -21.60945511
v -21.83591020 80.09909484 -21.40780234
v -21.86967707 80.09909484 -21.37583238
v -21.98544818 80.09909484 -21.26763010
v -48.34286261 80.09909484 2.09450108
v -45.93095160 75.00259945 2.09450108
v -46.13355279 75.00259945 -18.74205986
v -46.50980949 76.17245886 -18.89206856
v -46.50980949 75.73843864 -18.80353922
v -47.84118545 80.09909484 -19.37160757
v -50.36404872 80.09909484 2.09450108
v -49.96849799 78.74964061 2.09450108
v -48.87348545 75.00259945 2.09204167
v -46.18660903 75.00259945 -18.72976398
v -46.26862025 75.00259945 -18.71009105
v -46.30720830 75.00259945 -18.70025343
v -46.41815591 75.00259945 -18.66828462
v -47.96178007 80.09909484 -19.33226055
v -50.36887455 80.09909484 -0.01300836
v -48.88313246 75.00259945 -0.01300836
v -48.87831128 75.00259945 1.54610565
v -46.52910352 75.00259945 -18.63139701
v -48.14508724 80.09909484 -19.26094472
v -47.32021427 77.69801521 -18.99043554
v -50.36404872 80.09909484 -1.69016401
v -48.87348545 75.00259945 -1.98526436
v -46.56769156 75.00259945 -18.61664289
v -48.21262097 79.71196839 -19.12569129
v -48.32356858 80.09909484 -19.17733303
v -46.71723652 75.00259945 -18.55516237
v -46.76065040 75.00259945 -18.53548944
v -50.34475470 80.09909484 -4.41246705
v -50.05049992 79.08139205 -4.07801968
v -49.96367216 78.73617083 -2.03936608
v -48.85901260 75.00259945 -3.96243860
v -46.88606620 75.00259945 -18.47401008
v -48.52134395 80.09909484 -19.06912959
v -48.39592814 80.09909484 -19.13798600
v -50.30616665 80.09909484 -7.22821824
v -48.82042456 75.00259945 -6.62818050
v -47.07419920 75.00259945 -18.36826605
v -47.48904395 76.45531970 -18.56745940
v -48.59852934 80.09909484 -19.01994610
v -48.36698246 79.12329727 -18.85764152
v -50.28686798 80.09909484 -8.24385622
v -48.77701068 75.00259945 -8.59059946
v -47.18996799 75.00259945 -18.29449081
v -47.95695889 77.68504405 -18.66090757
v -48.64194322 80.09909484 -18.99043554
v -48.76253784 80.09909484 -18.90682501
v -48.02449262 77.51642475 -18.55516237
v -50.23863292 80.09909484 -10.27267277
v -50.21933424 80.03025004 -10.26775396
v -50.20004022 79.88158610 -9.22998422
v -48.73841798 75.00259945 -9.90871543
v -50.18074155 80.09909484 -12.32854047
v -47.30092025 75.00259945 -18.21333736
v -47.60964322 76.07717428 -18.36088783
v -48.91690397 80.09909484 -18.78632569
v -48.67088425 75.00259945 -11.93753198
v -50.11320782 80.09909484 -14.38932583
v -47.34915531 75.00259945 -18.17645091
v -48.55028963 78.77408591 -18.59450939
v -48.95549202 80.09909484 -18.75189632
v -48.59370351 75.00259945 -13.88027743
v -50.07461977 80.09909484 -15.41971850
v -47.46010292 75.00259945 -18.08300158
v -48.13544023 77.33084413 -18.39777660
v -49.09538531 80.09909484 -18.62401879
v -48.26086068 77.22408426 -18.24038851
v -48.55028963 75.00259945 -14.87378249
v -50.05532575 80.09909484 -15.89188045
v -50.03120589 80.09909484 -16.45011234
v -47.61446905 75.00259945 -17.94282818
v -49.18703425 80.09211063 -18.52811122
v -49.16291904 80.09909484 -18.55516237
v -48.34286261 77.19864172 -18.14448094
v -48.49722409 75.00259945 -15.97795039
v -49.26904082 77.55483845 -16.15993023
v -50.02638006 80.09909484 -16.55093873
v -47.70129681 75.00259945 -17.85183942
v -47.92319202 75.75490132 -17.95020640
v -48.85419142 78.64787045 -18.23792911
v -49.27386665 80.09610194 -18.42974424
v -49.28350902 80.09909484 -18.41990894
v -47.78812456 75.00259945 -17.75593185
v -48.48275590 75.00259945 -16.15009260
v -49.78519082 79.30937767 -16.53126463
v -48.95066619 76.52765718 -16.21157196
v -50.01673770 80.09909484 -16.69848803
v -49.15809321 79.40466225 -18.23546970
v -49.36069441 80.09909484 -18.32645962
v -47.86048412 75.00259945 -17.66740251
v -48.46346188 75.00259945 -16.27059191
v -50.01191187 80.09909484 -16.74521327
v -49.51505589 78.50419506 -16.68373275
v -49.44269633 80.09909484 -18.22071558
v -47.94248605 75.00259945 -17.55673850
v -48.52616978 75.28296602 -16.43535706
v -48.43934202 75.00259945 -16.41322356
v -49.99261785 80.09909484 -16.87308964
v -49.96849799 80.09909484 -17.01080364
v -49.37034142 78.10110456 -16.77226326
v -48.75289083 77.42762575 -17.72888070
v -49.17738724 78.86937049 -17.91577819
v -49.53917575 80.09909484 -18.07316512
v -48.03413963 75.00259945 -17.41656625
v -48.42004800 75.00259945 -16.49683642
v -49.93472648 80.09909484 -17.16081235
v -48.89278412 77.60572353 -17.60346258
v -49.63082933 80.09909484 -17.92315525
v -48.12096739 75.00259945 -17.27147520
v -48.37180829 75.00259945 -16.67143804
v -49.88649142 80.09909484 -17.32311809
v -49.53917575 79.39518377 -17.60100433
v -49.74660277 80.09909484 -17.68953484
v -48.23191500 75.00259945 -17.05014950
v -48.30910039 75.00259945 -16.86571258
v -49.88167024 80.09909484 -17.33787221
v -49.72730410 79.75586927 -17.45345387
v -49.76589680 80.09909484 -17.64772841
v -49.82860470 80.09909484 -17.49771971
f 1 2 3
f 1 3 16
f 1 16 15
f 1 15 14
f 1 14 13
f 1 13 12
f 1 12 11
f 1 11 10
f 1 10 9
f 1 9 8
f 1 8 7
f 1 7 6
f 1 6 5
f 1 5 20
f 1 20 19
f 1 19 26
f 1 26 36
f 1 36 49
f 1 49 57
f 1 57 62
f 1 62 68
f 1 68 77
f 1 77 76
f 1 76 82
f 1 82 88
f 1 88 89
f 1 89 98
f 1 98 103
f 1 103 108
f 1 108 115
f 1 115 124
f 1 124 131
f 1 131 136
f 1 136 145
f 1 145 150
f 1 150 155
f 1 155 160
f 1 160 161
f 1 161 158
f 1 158 153
f 1 153 148
f 1 148 141
f 1 141 140
f 1 140 134
f 1 134 129
f 1 129 119
f 1 119 112
f 1 112 111
f 1 111 105
f 1 105 100
f 1 100 95
f 1 95 91
f 1 91 84
f 1 84 78
f 1 78 71
f 1 71 64
f 1 64 58
f 1 58 50
f 1 50 44
f 1 44 43
f 1 43 42
f 1 42 41
f 1 41 40
f 1 40 32
f 1 32 31
f 1 31 30
f 1 30 27
f 1 27 21
f 1 21 4
f 1 4 23
f 1 23 17
f 1 17 2
f 2 5 6
f 2 6 7
f 2 7 8
f 2 8 9
f 2 9 10
f 2 10 11
f 2 11 12
f 2 12 13
f 2 13 14
f 2 14 15
f 2 15 16
f 2 16 3
f 2 17 24
f 2 24 33
f 2 33 45
f 2 45 52
f 2 52 60
f 2 60 59
f 2 59 65
f 2 65 74
f 2 74 79
f 2 79 85
f 2 85 94
f 2 94 99
f 2 99 104
f 2 104 110
f 2 110 117
f 2 117 126
f 2 126 133
f 2 133 139
f 2 139 147
f 2 147 152
f 2 152 157
f 2 157 156
f 2 156 151
f 2 151 146
f 2 146 137
f 2 137 132
f 2 132 125
f 2 125 120
f 2 120 113
f 2 113 106
f 2 106 101
f 2 101 96
f 2 96 86
f 2 86 80
f 2 80 75
f 2 75 70
f 2 70 69
f 2 69 66
f 2 66 61
f 2 61 56
f 2 56 55
f 2 55 54
f 2 54 53
f 2 53 46
f 2 46 39
f 2 39 38
f 2 38 37
f 2 37 34
f 2 34 25
f 2 25 18
f 2 18 19
f 2 19 20
f 2 20 5
f 4 21 22
f 4 22 23
f 17 23 22
f 17 22 29
f 17 29 24
f 18 25 19
f 19 25 26
f 21 27 22
f 22 28 29
f 22 27 30
f 22 30 31
f 22 31 32
f 22 32 28
f 24 29 33
f 25 34 26
f 26 35 36
f 26 34 37
f 26 37 38
f 26 38 39
f 26 39 35
f 28 33 29
f 28 32 40
f 28 40 41
f 28 41 42
f 28 42 43
f 28 43 44
f 28 44 50
f 28 50 51
f 28 51 45
f 28 45 33
f 35 46 47
f 35 47 48
f 35 48 36
f 35 39 46
f 36 48 49
f 45 51 52
f 46 53 47
f 47 53 48
f 48 53 54
f 48 54 55
f 48 55 56
f 48 56 49
f 49 56 57
f 50 58 59
f 50 59 60
f 50 60 52
f 50 52 51
f 56 61 57
f 57 61 63
f 57 63 62
f 58 64 59
f 59 64 65
f 61 66 63
f 62 67 68
f 62 63 66
f 62 66 69
f 62 69 70
f 62 70 67
f 64 71 72
f 64 72 73
f 64 73 65
f 65 73 72
f 65 72 74
f 67 70 75
f 67 75 76
f 67 76 77
f 67 77 68
f 71 78 74
f 71 74 72
f 74 78 79
f 75 80 81
f 75 81 76
f 76 81 83
f 76 83 82
f 78 84 79
f 79 84 85
f 80 86 81
f 81 86 87
f 81 87 83
f 82 83 88
f 83 89 88
f 83 87 90
f 83 90 89
f 84 91 92
f 84 92 93
f 84 93 85
f 85 93 92
f 85 92 95
f 85 95 94
f 86 96 97
f 86 97 90
f 86 90 87
f 89 90 98
f 90 97 98
f 91 95 92
f 94 95 100
f 94 100 99
f 96 101 97
f 97 101 98
f 98 102 103
f 98 101 102
f 99 100 105
f 99 105 104
f 101 106 107
f 101 107 102
f 102 108 103
f 102 107 109
f 102 109 108
f 104 105 111
f 104 111 112
f 104 112 110
f 106 113 107
f 107 113 109
f 108 114 115
f 108 109 114
f 109 113 116
f 109 116 114
f 110 112 118
f 110 118 117
f 112 119 118
f 113 120 121
f 113 121 116
f 114 116 122
f 114 122 123
f 114 123 124
f 114 124 115
f 116 121 125
f 116 125 122
f 117 118 119
f 117 119 127
f 117 127 128
f 117 128 126
f 119 129 127
f 120 125 121
f 122 130 131
f 122 131 124
f 122 124 123
f 122 125 132
f 122 132 130
f 126 128 129
f 126 129 134
f 126 134 135
f 126 135 133
f 127 129 128
f 130 136 131
f 130 132 136
f 132 137 136
f 133 138 139
f 133 135 138
f 134 140 135
f 135 140 141
f 135 141 142
f 135 142 138
f 136 143 144
f 136 144 145
f 136 137 143
f 137 146 143
f 138 147 139
f 138 142 148
f 138 148 147
f 141 148 142
f 143 149 150
f 143 150 144
f 143 146 151
f 143 151 149
f 144 150 145
f 147 148 152
f 148 153 152
f 149 154 150
f 149 151 154
f 150 154 155
f 151 156 154
f 152 153 157
f 153 158 157
f 154 159 160
f 154 160 155
f 154 156 159
f 156 157 159
f 157 158 159
f 158 161 159
f 159 161 160

