# https://github.com/mikedh/trimesh
v 82.00023317 0.00000620 -4.32089134
v 82.00023317 9.99902463 -4.32089134
v 83.99980533 0.00000620 -4.32089134
v 80.52150202 0.00000620 2.33768278
v 80.52150202 0.55403757 2.33552934
v 83.99980533 9.99902463 -4.32089134
v 80.52150202 9.44596958 2.33552934
v 80.52150202 9.99902463 2.33768278
v 84.07351780 0.41601789 1.79500437
v 84.07351780 0.00000620 1.79715809
v 80.52150202 0.00000620 11.01407236
v 84.07351780 9.99902463 1.79715809
v 84.07351780 9.58398926 1.79500437
v 80.52150202 9.99902463 11.01407236
v 84.07351780 0.00000620 11.55675048
v 82.00023317 0.00000620 17.67479932
v 80.52150202 0.75470006 11.01837981
v 84.07351780 9.99902463 11.55675048
v 80.52150202 9.24530709 11.01837981
v 82.00023317 9.99902463 17.67479932
v 84.07351780 0.39546394 11.55890420
v 83.99980533 0.00000620 17.67479932
v 83.99980533 9.99902463 17.67479932
v 84.07351780 9.60454321 11.55890420
f 1 2 6
f 1 6 3
f 1 3 10
f 1 10 15
f 1 15 22
f 1 22 16
f 1 16 11
f 1 11 4
f 1 4 5
f 1 5 7
f 1 7 2
f 2 7 8
f 2 8 14
f 2 14 20
f 2 20 23
f 2 23 18
f 2 18 12
f 2 12 6
f 3 6 13
f 3 13 9
f 3 9 10
f 4 11 17
f 4 17 19
f 4 19 14
f 4 14 8
f 4 8 7
f 4 7 5
f 6 12 13
f 9 13 12
f 9 12 18
f 9 18 24
f 9 24 21
f 9 21 15
f 9 15 10
f 11 16 17
f 14 19 20
f 15 21 22
f 16 22 23
f 16 23 20
f 16 20 19
f 16 19 17
f 18 23 24
f 21 24 23
f 21 23 22

