# https://github.com/mikedh/trimesh
v 20.59563184 80.09909368 -25.03404897
v 22.80632246 80.09909368 -25.03404897
v 20.85722800 80.09909368 -22.93887609
v 20.90873374 80.96616477 -22.93887609
v 22.98523791 119.44929183 -24.73272282
v 22.99743673 119.72269511 -24.76698714
v 23.00692451 119.99999905 -24.84105992
v 23.00285824 119.99999905 -24.92117894
v 23.00014719 119.99999905 -24.99978465
v 23.00014719 119.99999905 -25.03404897
v 34.44260615 80.09909368 -21.48717284
v 22.89849094 81.45047498 -25.03404897
v 34.44260615 119.99999905 -24.99978465
v 34.44260615 118.32834625 -24.88389033
v 34.44260615 114.45776987 -24.59213912
v 34.44260615 106.65022707 -23.98394269
v 34.44260615 99.90893942 -23.41152620
v 34.44260615 96.78045303 -23.13690484
v 34.44260615 89.39472407 -22.44859171
v 34.44260615 84.26259866 -21.93512893
v 20.85993904 80.09909368 -22.92073739
v 20.90331224 80.75916198 -22.89806110
v 20.95481798 81.53640079 -22.87790698
v 23.03403261 119.99999905 -24.63396066
v 22.99879196 119.43757129 -24.63748705
v 22.98930418 119.44538653 -24.70097834
v 23.01505706 119.99999905 -24.76043648
v 24.99532589 119.99999905 -25.03404897
v 34.44260615 80.09909368 -19.88631517
v 23.35933392 89.21115422 -25.03404897
v 24.44638070 108.94679236 -25.03404897
v 24.55481428 111.00901663 -25.03404897
v 24.70662163 114.07110834 -25.03404897
v 24.98854916 119.76565337 -25.03404897
v 34.44260615 119.99999905 -22.99984753
v 23.36068973 89.23458833 -25.03404897
v 23.85135186 97.72173405 -25.03404897
v 20.91551106 80.09909368 -22.65720195
v 20.94804125 81.15754637 -22.79728353
v 23.05436456 119.99999905 -24.53670949
v 23.01370183 119.43366599 -24.55737036
v 22.46475664 80.09909368 -21.33902729
v 25.00074798 119.99999905 -22.99984753
v 24.92348936 119.99999905 -23.00135851
v 24.84487435 119.99999905 -23.00589377
v 24.76219365 119.99999905 -23.01395541
v 20.92364360 80.09909368 -22.62394649
v 20.94261916 80.60683799 -22.67383200
v 23.00014719 118.85171640 -24.45407295
v 23.05978607 119.71097457 -24.44349146
v 23.08282790 119.99999905 -24.43089223
v 22.49050951 80.97007123 -21.37883574
v 22.44849154 80.76697373 -21.37480491
v 22.34954575 81.16145167 -21.41360450
v 22.25737727 80.76697373 -21.41310006
v 22.19773839 80.09909368 -21.39294362
v 24.67138040 118.89467931 -22.97112501
v 24.68357980 119.44538653 -22.99682325
v 24.67273621 119.99999905 -23.02655464
v 20.93584242 80.09909368 -22.59169757
v 21.08087246 82.23552671 -22.60026366
v 21.07273991 82.61438230 -22.69902581
v 23.03945470 118.83218527 -24.31550235
v 23.06114130 119.41804481 -24.37344950
v 23.07062966 119.41413951 -24.34372044
v 23.12213540 119.99999905 -24.31248039
v 22.52168389 81.94259694 -21.42317712
v 22.43764795 81.55202430 -21.41713089
v 24.55617009 118.87124288 -22.98876160
v 24.55481428 119.43366599 -23.01899511
v 24.57785669 119.99999905 -23.04469335
v 22.20858198 80.56778154 -21.41461104
v 22.17334133 80.09909368 -21.39798331
v 24.51821840 119.42976069 -23.02705675
v 24.48297775 119.71097457 -23.05124402
v 24.47484520 119.99999905 -23.06988716
v 24.59141132 119.43366599 -23.01194000
v 21.03207718 80.09909368 -22.34831858
v 21.03343241 80.63808385 -22.43397939
v 21.46174520 89.43377936 -22.94895548
v 21.09713756 81.84885937 -22.49092001
v 21.35331163 86.68414855 -22.72169977
v 23.10315984 119.41023421 -24.25150895
v 23.17635219 119.99999905 -24.18096489
v 22.15978670 80.09909368 -21.40150970
v 24.38403195 119.41804481 -23.06232995
v 24.36370000 119.99999905 -23.10415149
v 24.37318836 119.70706928 -23.08298850
v 21.04156496 80.09909368 -22.33118641
v 21.06054109 80.25922942 -22.31707853
v 21.25436583 83.91108364 -22.48789573
v 23.17906323 119.39851832 -24.07816958
v 23.14382200 119.40242362 -24.15325123
v 23.02183437 117.62922382 -24.13460577
v 23.13026795 119.40632892 -24.18600225
v 23.25090034 119.99999905 -24.03181279
v 22.20451571 82.38784954 -21.52546799
v 22.16114251 80.37249464 -21.41763532
v 21.95376314 80.09909368 -21.48011774
v 24.23900133 119.99999905 -23.15051061
v 24.25255597 119.70316398 -23.12581891
v 24.29728439 119.41023421 -23.09054804
v 24.32845935 119.41413951 -23.07996655
v 24.34201398 119.41413951 -23.07543129
v 21.13779971 80.09909368 -22.17195725
v 21.18795022 80.09909368 -22.08982283
v 21.17032990 81.12239406 -22.24351019
v 21.43192606 86.00845790 -22.46773928
v 23.12078017 117.58235562 -23.92045373
v 23.19803879 119.39461303 -24.04088330
v 23.37288797 119.99999905 -23.83731276
v 23.21837015 119.39461303 -24.00359470
v 23.17770800 117.56672978 -23.82269812
v 23.24412361 118.78141177 -23.87812775
v 22.09608214 82.00899395 -21.54209572
v 24.26611002 119.41023421 -23.10213608
v 21.88463649 80.09909368 -21.50682253
v 24.09803757 119.99999905 -23.21500844
v 24.16852003 119.40242362 -23.14093566
v 24.16852003 118.81265879 -23.10163397
v 24.21867055 119.40632892 -23.11977267
v 21.19337231 80.09909368 -22.08125675
v 21.20963740 80.93101361 -22.15986478
v 21.27469720 82.15741149 -22.21579653
v 21.60406478 88.28159142 -22.49293542
v 22.19502793 99.28402460 -22.99279243
v 23.04216516 113.88363087 -23.56319582
v 23.40406293 119.38289249 -23.72494483
v 23.50707442 119.99999905 -23.67001963
v 21.97680497 81.63013837 -21.56880283
v 23.95842962 115.25454330 -22.95500171
v 21.83990748 80.22017181 -21.53756046
v 21.86159466 80.09909368 -21.51841289
v 24.09803757 119.39851832 -23.17318457
v 24.13327880 119.40242362 -23.15706128
v 23.91912270 119.99999905 -23.31729698
v 23.97198367 119.39461303 -23.23869127
v 23.53824937 110.37238359 -22.81592900
v 24.06279692 118.80094290 -23.14849520
v 24.02755627 117.60969269 -23.08298850
v 21.25301060 80.09909368 -22.00517088
v 21.22048041 80.16939598 -22.05303866
v 21.71791986 89.37910056 -22.46522176
v 22.24788949 99.19028586 -22.90461177
v 23.43930358 118.76969588 -23.61610329
v 23.47318900 119.38289249 -23.64281040
v 22.33599170 99.74099308 -22.85422415
v 23.65888177 119.99999905 -23.51683903
v 23.54638192 119.38289249 -23.56470680
v 22.55421408 93.44105738 -22.11401010
v 22.41325031 91.01169574 -22.01323253
v 21.98900379 83.70407969 -21.71039540
v 21.84804003 81.26690629 -21.60911340
v 21.71791986 80.09909368 -21.60205829
v 23.92861047 119.39070773 -23.26438951
v 23.71580960 118.77360117 -23.35962528
v 23.71038809 116.34423721 -23.16411638
v 23.89336982 118.78531706 -23.23919570
v 21.26927570 80.09909368 -21.98451000
v 21.30045065 80.68495321 -22.01071268
v 21.50105271 84.37586504 -22.17397267
v 22.23569067 97.89749098 -22.77259415
v 22.22755812 96.62422490 -22.64510947
v 23.62364054 119.38289249 -23.49063635
v 22.02560025 92.93331075 -22.48336047
v 22.46069036 99.68631428 -22.71011174
v 21.68945594 80.90757951 -21.67864859
v 21.63523915 80.09909368 -21.65194380
v 23.57755688 116.32080543 -23.25582343
v 23.16415337 108.96241355 -22.94341135
v 21.61084151 80.09909368 -21.66806710
v 21.38719705 80.09909368 -21.85601878
v 21.35331163 80.62636679 -21.94470388
v 21.41972724 81.85667112 -21.99862021
v 22.46204560 98.46772701 -22.59169757
v 22.32514811 97.22570562 -22.60328561
v 21.62575138 80.09909368 -21.65799004
v 21.99035960 88.09411627 -22.05908722
v 21.78298023 84.40711090 -21.90288001
v 21.64472693 81.94650224 -21.79857606
v 21.57560086 80.71619907 -21.74667513
v 21.47123356 80.61855504 -21.82578528
v 21.39804064 80.09909368 -21.84644383
v 21.64201647 83.69626793 -21.95780522
v 22.15572043 94.14799273 -22.46975702
f 1 2 11
f 1 11 29
f 1 29 42
f 1 42 56
f 1 56 73
f 1 73 85
f 1 85 99
f 1 99 117
f 1 117 133
f 1 133 154
f 1 154 168
f 1 168 177
f 1 177 171
f 1 171 183
f 1 183 172
f 1 172 159
f 1 159 141
f 1 141 122
f 1 122 106
f 1 106 105
f 1 105 89
f 1 89 78
f 1 78 60
f 1 60 47
f 1 47 38
f 1 38 21
f 1 21 3
f 1 3 4
f 1 4 5
f 1 5 6
f 1 6 7
f 1 7 8
f 1 8 9
f 1 9 10
f 1 10 28
f 1 28 34
f 1 34 33
f 1 33 32
f 1 32 31
f 1 31 37
f 1 37 36
f 1 36 30
f 1 30 12
f 1 12 2
f 2 12 13
f 2 13 14
f 2 14 15
f 2 15 16
f 2 16 17
f 2 17 18
f 2 18 19
f 2 19 20
f 2 20 11
f 3 21 4
f 4 21 22
f 4 22 23
f 4 23 24
f 4 24 25
f 4 25 26
f 4 26 5
f 5 26 27
f 5 27 6
f 6 27 7
f 7 27 24
f 7 24 40
f 7 40 51
f 7 51 66
f 7 66 84
f 7 84 96
f 7 96 111
f 7 111 129
f 7 129 148
f 7 148 136
f 7 136 118
f 7 118 100
f 7 100 87
f 7 87 76
f 7 76 71
f 7 71 59
f 7 59 46
f 7 46 45
f 7 45 44
f 7 44 43
f 7 43 35
f 7 35 13
f 7 13 28
f 7 28 10
f 7 10 9
f 7 9 8
f 11 20 19
f 11 19 18
f 11 18 17
f 11 17 16
f 11 16 15
f 11 15 14
f 11 14 13
f 11 13 35
f 11 35 29
f 12 30 13
f 13 31 32
f 13 32 33
f 13 33 34
f 13 34 28
f 13 30 36
f 13 36 37
f 13 37 31
f 21 38 22
f 22 39 23
f 22 38 39
f 23 39 40
f 23 40 41
f 23 41 24
f 24 41 40
f 24 27 26
f 24 26 25
f 29 35 43
f 29 43 44
f 29 44 45
f 29 45 46
f 29 46 42
f 38 47 48
f 38 48 39
f 39 48 40
f 40 49 50
f 40 50 51
f 40 48 49
f 42 52 53
f 42 53 54
f 42 54 55
f 42 55 56
f 42 46 57
f 42 57 58
f 42 58 52
f 46 59 58
f 46 58 57
f 47 60 61
f 47 61 62
f 47 62 63
f 47 63 64
f 47 64 48
f 48 64 51
f 48 51 50
f 48 50 49
f 51 64 65
f 51 65 66
f 52 67 53
f 52 58 67
f 53 67 68
f 53 68 54
f 54 68 69
f 54 69 70
f 54 70 71
f 54 71 55
f 55 72 73
f 55 73 56
f 55 71 74
f 55 74 75
f 55 75 76
f 55 76 72
f 58 59 67
f 59 71 77
f 59 77 69
f 59 69 68
f 59 68 67
f 60 78 79
f 60 79 61
f 61 80 62
f 61 79 81
f 61 81 82
f 61 82 83
f 61 83 66
f 61 66 80
f 62 80 63
f 63 66 65
f 63 65 64
f 63 80 66
f 66 83 84
f 69 77 71
f 69 71 70
f 71 76 75
f 71 75 74
f 72 85 73
f 72 76 86
f 72 86 85
f 76 87 88
f 76 88 86
f 78 81 79
f 78 89 90
f 78 90 91
f 78 91 92
f 78 92 93
f 78 93 81
f 81 93 82
f 82 93 94
f 82 94 83
f 83 94 95
f 83 95 84
f 84 95 93
f 84 93 92
f 84 92 96
f 85 97 98
f 85 98 99
f 85 86 88
f 85 88 97
f 87 100 101
f 87 101 102
f 87 102 103
f 87 103 104
f 87 104 88
f 88 104 97
f 89 105 90
f 90 105 106
f 90 106 107
f 90 107 108
f 90 108 109
f 90 109 91
f 91 109 110
f 91 110 92
f 92 110 96
f 93 95 94
f 96 110 112
f 96 112 113
f 96 113 114
f 96 114 111
f 97 115 98
f 97 104 103
f 97 103 102
f 97 102 116
f 97 116 115
f 98 115 99
f 99 115 117
f 100 118 135
f 100 135 119
f 100 119 120
f 100 120 121
f 100 121 101
f 101 116 102
f 101 121 115
f 101 115 116
f 106 122 107
f 107 122 123
f 107 123 124
f 107 124 125
f 107 125 126
f 107 126 113
f 107 113 108
f 108 113 109
f 109 113 112
f 109 112 110
f 111 127 128
f 111 128 129
f 111 114 113
f 111 113 126
f 111 126 125
f 111 125 124
f 111 124 127
f 115 130 117
f 115 121 120
f 115 120 131
f 115 131 119
f 115 119 130
f 117 132 133
f 117 130 118
f 117 118 132
f 118 134 135
f 118 136 137
f 118 137 138
f 118 138 132
f 118 130 139
f 118 139 134
f 119 131 120
f 119 135 140
f 119 140 130
f 122 124 123
f 122 141 142
f 122 142 143
f 122 143 144
f 122 144 124
f 124 144 127
f 127 144 128
f 128 145 146
f 128 146 129
f 128 144 147
f 128 147 145
f 129 146 149
f 129 149 148
f 130 140 139
f 132 150 151
f 132 151 152
f 132 152 153
f 132 153 154
f 132 154 133
f 132 138 150
f 134 139 140
f 134 140 135
f 136 155 137
f 136 148 156
f 136 156 157
f 136 157 158
f 136 158 155
f 137 155 158
f 137 158 153
f 137 153 152
f 137 152 151
f 137 151 150
f 137 150 138
f 141 159 142
f 142 159 160
f 142 160 161
f 142 161 162
f 142 162 143
f 143 162 147
f 143 147 144
f 145 149 146
f 145 147 162
f 145 162 163
f 145 163 149
f 148 149 164
f 148 164 156
f 149 163 165
f 149 165 166
f 149 166 164
f 153 167 168
f 153 168 154
f 153 158 167
f 156 164 169
f 156 169 170
f 156 170 171
f 156 171 167
f 156 167 157
f 157 167 158
f 159 172 173
f 159 173 174
f 159 174 160
f 160 174 165
f 160 165 161
f 161 165 162
f 162 165 163
f 164 170 169
f 164 166 175
f 164 175 170
f 165 176 166
f 165 174 176
f 166 176 175
f 167 171 177
f 167 177 168
f 170 175 178
f 170 178 171
f 171 178 179
f 171 179 180
f 171 180 181
f 171 181 182
f 171 182 183
f 172 174 173
f 172 183 182
f 172 182 184
f 172 184 185
f 172 185 174
f 174 185 176
f 175 176 185
f 175 185 184
f 175 184 180
f 175 180 179
f 175 179 178
f 180 184 182
f 180 182 181

