# https://github.com/mikedh/trimesh
v -59.99894011 119.99999905 18.90979815
v -59.99894011 119.99999905 2.09450166
v -62.00000000 119.99999905 18.90979815
v -48.51527214 86.39392924 18.90979815
v -62.00000000 119.99999905 2.09450166
v -48.51527214 80.68202773 2.09450166
v -60.36852527 114.53703344 18.90979815
v -61.29382014 117.57402897 2.09450166
v -51.54590297 84.14899755 2.09450166
v -49.97118986 78.75392249 2.09450166
v -48.51527214 73.76619309 2.09450166
v -48.51527214 73.79334885 3.32075366
v -48.51527214 73.81597865 3.90178388
v -48.51527214 73.87029248 5.14449567
v -48.51527214 73.94723612 6.47938290
v -48.51527214 79.63650551 18.90979815
v -60.09133291 113.60918617 18.90979815
v -48.51527214 74.09659511 8.44467911
v -48.84922147 80.32899475 18.90979815
v -48.51527214 79.16579410 18.75013894
v -59.83790243 112.76281548 18.90979815
v -48.51527214 74.34100389 11.01404795
v -57.11746371 103.69709545 18.90979815
v -58.26186895 107.50352037 18.90979815
v -58.45722210 108.15527248 18.90979815
v -49.21617055 81.12558338 18.90979815
v -48.51527214 78.69508269 18.57895678
v -48.51527214 74.73024571 13.96692967
v -56.34528434 101.13986558 18.90979815
v -56.53139961 101.75541002 18.90979815
v -49.47224641 81.70039418 18.90979815
v -48.51527214 78.36015356 18.44727856
v -48.82942533 79.44188461 18.59377018
v -48.51527214 74.89771086 15.10594654
v -55.60346401 98.67315722 18.69088304
v -56.25420725 100.84114528 18.90979815
v -49.61876011 82.03984928 18.90979815
v -48.51527214 78.09764209 18.34028971
v -49.33100951 80.84044096 18.69088304
v -48.51527214 75.01538813 15.84498900
v -48.72910571 75.72598004 15.92564267
v -49.86163235 79.51882824 16.47539914
v -52.34051919 87.78795731 17.43171090
v -53.87695575 92.94315302 18.15594113
v -55.98097599 99.94950801 18.90979815
v -56.17104769 100.56958073 18.90979815
v -49.80355501 82.46982589 18.90979815
v -49.75207484 82.28878286 18.88510877
v -48.51527214 78.03427750 18.31395453
v -50.02794683 82.99937594 18.90979815
v -48.51527214 75.03349197 15.95526946
v -48.89674056 76.33247489 16.21862590
v -51.39806890 84.67402279 17.19139802
v -54.59633458 95.39628118 18.58389419
v -55.70510399 99.05787307 18.90979815
v -55.80805969 99.38827509 18.90979815
v -49.91707361 82.73686332 18.90979815
v -48.51527214 77.72197816 18.17733890
v -49.20693266 80.09363905 18.49501151
v -50.11110640 83.19852281 18.90979815
v -48.51527214 75.04706985 16.00958794
v -48.51527214 75.06517601 16.07048848
v -48.51527214 75.11043561 16.19393653
v -50.43581784 81.51482520 16.94779354
v -55.11903989 97.19313127 18.90979815
v -55.41998947 98.14813197 18.90979815
v -48.66178584 77.93017694 18.10820702
v -48.51527214 77.43230978 18.04072210
v -50.42921603 83.97248048 18.90979815
v -48.51527214 75.17832732 16.32890636
v -48.61295104 75.49967742 16.36676449
v -50.29722166 81.12105626 17.03667623
v -53.64992321 92.31402838 18.36991766
v -55.00684166 96.84462541 18.90979815
v -48.60502887 77.28294963 17.85308075
v -48.51527214 76.97970337 17.81357682
v -50.75392747 84.78717411 18.90979815
v -48.51527214 75.23716480 16.42272645
v -49.30592728 77.90754715 16.79471755
v -52.68107033 89.18198770 18.15100256
v -54.56333482 95.47322482 18.90979815
v -48.77134335 77.44136170 17.69671315
v -48.51527214 76.57688135 17.58478689
v -49.88011277 81.62345055 18.42258918
v -51.10107577 85.67428309 18.90979815
v -51.53666508 86.80580086 18.90979815
v -50.97172213 85.33935511 18.90979815
v -48.51527214 75.27337480 16.47704494
v -48.51527214 75.28242671 16.49021253
v -48.51527214 75.39557803 16.63999575
v -49.14621460 77.50472629 16.89676899
v -52.53719735 88.84253144 18.27774221
v -54.14358985 94.19687402 18.90979815
v -50.16918373 81.91311893 18.14606398
v -48.88882303 77.59072185 17.59137011
v -48.51527214 76.37320852 17.45640028
v -51.86269689 87.67933196 18.90979815
v -48.51527214 75.56304318 16.82269970
v -53.56280720 92.47244161 18.90979815
v -49.82599187 79.95333081 17.36422598
v -52.32732022 88.94663084 18.90979815
v -48.51527214 76.10616994 17.27698910
v -48.51527214 76.33247489 17.43006510
v -48.51527214 75.69882429 16.94779354
v -50.49389517 82.43361706 17.86460254
v -53.40837133 92.02436000 18.90979815
v -52.98070419 90.78421688 18.90979815
v -48.51527214 75.79387176 17.03173882
v -52.20324337 88.17267549 18.58224839
f 1 2 5
f 1 5 3
f 1 3 7
f 1 7 17
f 1 17 21
f 1 21 25
f 1 25 24
f 1 24 23
f 1 23 30
f 1 30 29
f 1 29 36
f 1 36 46
f 1 46 45
f 1 45 56
f 1 56 55
f 1 55 66
f 1 66 65
f 1 65 74
f 1 74 81
f 1 81 93
f 1 93 99
f 1 99 106
f 1 106 107
f 1 107 101
f 1 101 97
f 1 97 86
f 1 86 85
f 1 85 87
f 1 87 77
f 1 77 69
f 1 69 60
f 1 60 50
f 1 50 57
f 1 57 47
f 1 47 37
f 1 37 31
f 1 31 26
f 1 26 19
f 1 19 16
f 1 16 4
f 1 4 2
f 2 4 6
f 2 6 11
f 2 11 10
f 2 10 9
f 2 9 8
f 2 8 5
f 3 5 8
f 3 8 9
f 3 9 10
f 3 10 11
f 3 11 12
f 3 12 13
f 3 13 14
f 3 14 15
f 3 15 7
f 4 16 20
f 4 20 27
f 4 27 32
f 4 32 38
f 4 38 49
f 4 49 58
f 4 58 68
f 4 68 76
f 4 76 83
f 4 83 96
f 4 96 103
f 4 103 102
f 4 102 108
f 4 108 104
f 4 104 98
f 4 98 90
f 4 90 89
f 4 89 88
f 4 88 78
f 4 78 70
f 4 70 63
f 4 63 62
f 4 62 61
f 4 61 51
f 4 51 40
f 4 40 34
f 4 34 28
f 4 28 22
f 4 22 18
f 4 18 15
f 4 15 14
f 4 14 13
f 4 13 12
f 4 12 11
f 4 11 6
f 7 15 17
f 15 18 17
f 16 19 20
f 17 18 21
f 18 22 23
f 18 23 24
f 18 24 25
f 18 25 21
f 19 26 27
f 19 27 20
f 22 28 29
f 22 29 30
f 22 30 23
f 26 31 27
f 27 31 33
f 27 33 32
f 28 34 35
f 28 35 29
f 29 35 36
f 31 37 33
f 32 33 38
f 33 37 39
f 33 39 38
f 34 40 41
f 34 41 42
f 34 42 43
f 34 43 35
f 35 43 44
f 35 44 45
f 35 45 46
f 35 46 36
f 37 47 48
f 37 48 39
f 38 39 49
f 39 48 50
f 39 50 49
f 40 51 41
f 41 51 42
f 42 51 52
f 42 52 53
f 42 53 44
f 42 44 43
f 44 53 54
f 44 54 55
f 44 55 56
f 44 56 45
f 47 57 48
f 48 57 50
f 49 50 59
f 49 59 58
f 50 60 59
f 51 61 52
f 52 61 62
f 52 62 63
f 52 63 64
f 52 64 54
f 52 54 53
f 54 65 66
f 54 66 55
f 54 64 65
f 58 67 68
f 58 59 67
f 59 60 69
f 59 69 67
f 63 70 71
f 63 71 64
f 64 71 72
f 64 72 65
f 65 73 74
f 65 72 73
f 67 75 76
f 67 76 68
f 67 69 77
f 67 77 75
f 70 78 71
f 71 78 79
f 71 79 72
f 72 79 80
f 72 80 73
f 73 80 74
f 74 80 81
f 75 82 83
f 75 83 76
f 75 77 84
f 75 84 85
f 75 85 86
f 75 86 82
f 77 87 84
f 78 88 79
f 79 88 89
f 79 89 90
f 79 90 91
f 79 91 92
f 79 92 93
f 79 93 80
f 80 93 81
f 82 94 95
f 82 95 96
f 82 96 83
f 82 86 97
f 82 97 94
f 84 87 85
f 90 98 91
f 91 98 92
f 92 99 93
f 92 98 100
f 92 100 99
f 94 97 101
f 94 101 95
f 95 102 103
f 95 103 96
f 95 101 102
f 98 104 105
f 98 105 100
f 99 100 105
f 99 105 106
f 101 107 102
f 102 105 108
f 102 107 105
f 104 108 105
f 105 107 109
f 105 109 106
f 106 109 107

