# https://github.com/mikedh/trimesh
v 2.03013438 73.09542358 48.32138443
v 2.03013438 79.79870084 50.27757525
v 2.03013438 80.00989950 48.32138443
v 3.11242217 73.12296987 48.32138443
v 18.60682946 119.99999905 61.99866199
v 2.03013438 106.25827944 57.99389219
v 18.60682946 84.71137649 48.32138443
v 2.03013438 119.99999905 59.99962449
v 3.88154471 73.15051848 48.32138443
v 18.60682946 113.59974837 60.09067369
v 18.60682946 119.99999905 59.99962449
v 2.03013438 119.99999905 61.99866199
v 2.03013438 116.99270701 61.12299693
v 5.02711457 73.20102233 48.32138443
v 6.95803371 73.31580549 48.32138443
v 18.60682946 78.34785420 48.32138443
v 18.60682946 112.27286816 59.69434655
v 8.90517901 73.47649914 48.32138443
v 18.60682946 78.50395796 48.39368355
v 18.48837811 78.02187237 48.32138443
v 18.60682946 107.90196288 58.38486350
v 10.86692791 73.67392582 48.32138443
v 18.60682946 102.98928607 56.90801060
v 18.60682946 78.89421678 48.57310402
v 18.35694571 77.68670961 48.32138443
v 18.49649148 78.71515661 48.61996758
v 13.80062632 74.06877685 48.32138443
v 18.60682946 97.94805294 55.38563311
v 18.60682946 99.13260603 55.74580836
v 18.60682946 79.44976261 48.81946778
v 18.39913395 78.66465276 48.70030046
v 18.22389075 77.36531883 48.32138443
v 18.60682946 79.53240612 48.85561967
v 18.60682946 79.82624829 48.98282075
v 14.76446333 74.21110630 48.32138443
v 18.60682946 97.30527371 55.18881083
v 17.11401832 85.04194820 51.51743245
v 18.10868509 77.20003298 48.36288750
v 18.15574101 77.20921507 48.32138443
v 18.60682946 80.21191606 49.14884698
v 18.60682946 80.87306181 49.42734575
v 15.85486478 74.38098437 48.32138443
v 16.47470562 79.51863182 49.86116374
v 18.60682946 96.79104847 55.03081369
v 18.01132756 77.20921507 48.45125878
v 17.95291317 76.76845241 48.32138443
v 18.08921324 77.05770236 48.32138443
v 18.60682946 81.54798070 49.70451021
v 15.88082628 74.38557541 48.32138443
v 16.86900282 81.90150997 50.56678569
v 18.60682946 95.51467210 54.63047433
v 17.85393366 77.28267649 48.60523903
v 17.72736894 76.31850648 48.32138443
v 18.39588884 80.10172510 49.29747140
v 18.60682946 82.08057013 49.91740000
v 15.99440996 74.41771275 48.32138443
v 16.28972708 75.91906440 48.75787568
v 17.60567246 87.08507138 52.10523069
v 18.60682946 95.34020299 54.57557702
v 17.50993808 76.00170791 48.34548104
v 18.60682946 83.02637479 50.29230380
v 18.60682946 83.08146968 50.31372714
v 18.60682946 84.55527389 50.87875843
v 18.44456731 83.21920809 50.47707546
v 17.49857959 75.91906440 48.32138443
v 16.11772899 74.46362555 48.32138443
v 16.36761275 75.50125813 48.61327279
v 18.60682946 94.56886744 54.33054757
v 17.40771288 76.15321946 48.46330941
v 17.48722111 75.90069789 48.32138443
v 18.60682946 85.49648750 51.22956097
v 16.25240651 74.53249592 48.32138443
v 16.45361179 75.08344954 48.46063149
v 18.60682946 92.95732599 53.81104088
v 17.37039231 83.92626664 51.13717282
v 18.60682946 94.30257273 54.24485886
v 18.03728965 89.52304327 52.81353056
v 17.48884366 77.77394301 49.01093888
v 17.19352655 75.45534301 48.32138443
v 17.27628048 75.57471722 48.32138443
v 17.34605336 75.67572492 48.32138443
v 18.60682946 85.83624130 51.35408413
v 16.39844251 74.62432152 48.32138443
v 16.56070466 74.74828678 48.32138443
v 16.89658688 77.50305724 49.14616907
v 18.60682946 91.71767801 53.40266311
v 17.14647064 76.70876414 48.78867173
v 16.95175616 75.14313781 48.32138443
v 17.13024448 75.37270182 48.32138443
v 18.60682946 86.49738705 51.59509206
v 18.58735819 86.41474354 51.57500768
v 18.58249052 88.17320549 52.20297003
v 16.74243809 74.91357148 48.32138443
v 17.01179312 77.10361633 48.97612596
v 18.06811941 85.65259010 51.52814412
v 18.60682946 90.51476073 52.99830222
v 18.60682946 88.24666691 52.21769857
v 18.60682946 88.36603880 52.25920630
v 18.60682946 89.41285348 52.62205946
v 18.60682946 90.01890200 52.83093703
f 1 2 6
f 1 6 13
f 1 13 12
f 1 12 8
f 1 8 3
f 1 3 7
f 1 7 16
f 1 16 20
f 1 20 25
f 1 25 32
f 1 32 39
f 1 39 47
f 1 47 46
f 1 46 53
f 1 53 65
f 1 65 70
f 1 70 81
f 1 81 80
f 1 80 79
f 1 79 89
f 1 89 88
f 1 88 93
f 1 93 84
f 1 84 83
f 1 83 72
f 1 72 66
f 1 66 56
f 1 56 49
f 1 49 42
f 1 42 35
f 1 35 27
f 1 27 22
f 1 22 18
f 1 18 15
f 1 15 14
f 1 14 9
f 1 9 4
f 1 4 5
f 1 5 2
f 2 5 6
f 3 8 7
f 4 9 5
f 5 10 17
f 5 17 21
f 5 21 23
f 5 23 29
f 5 29 28
f 5 28 36
f 5 36 44
f 5 44 51
f 5 51 59
f 5 59 68
f 5 68 76
f 5 76 74
f 5 74 86
f 5 86 96
f 5 96 100
f 5 100 99
f 5 99 98
f 5 98 97
f 5 97 90
f 5 90 82
f 5 82 71
f 5 71 63
f 5 63 62
f 5 62 61
f 5 61 55
f 5 55 48
f 5 48 41
f 5 41 40
f 5 40 34
f 5 34 33
f 5 33 30
f 5 30 24
f 5 24 19
f 5 19 16
f 5 16 7
f 5 7 11
f 5 11 8
f 5 8 12
f 5 12 13
f 5 13 6
f 5 9 14
f 5 14 15
f 5 15 10
f 7 8 11
f 10 15 17
f 15 18 17
f 16 19 20
f 17 18 21
f 18 22 23
f 18 23 21
f 19 24 20
f 20 24 26
f 20 26 25
f 22 27 28
f 22 28 29
f 22 29 23
f 24 30 26
f 25 31 32
f 25 26 31
f 26 30 33
f 26 33 34
f 26 34 31
f 27 35 28
f 28 35 37
f 28 37 36
f 31 38 39
f 31 39 32
f 31 34 40
f 31 40 41
f 31 41 38
f 35 42 43
f 35 43 37
f 36 37 44
f 37 43 44
f 38 45 46
f 38 46 47
f 38 47 39
f 38 41 48
f 38 48 45
f 42 49 43
f 43 49 50
f 43 50 44
f 44 50 51
f 45 52 53
f 45 53 46
f 45 48 54
f 45 54 52
f 48 55 54
f 49 56 50
f 50 56 57
f 50 57 58
f 50 58 51
f 51 58 59
f 52 60 53
f 52 54 55
f 52 55 61
f 52 61 62
f 52 62 63
f 52 63 64
f 52 64 60
f 53 60 65
f 56 66 57
f 57 66 67
f 57 67 58
f 58 68 59
f 58 67 68
f 60 69 70
f 60 70 65
f 60 64 63
f 60 63 69
f 63 71 69
f 66 72 67
f 67 72 73
f 67 73 74
f 67 74 75
f 67 75 68
f 68 75 77
f 68 77 76
f 69 78 79
f 69 79 80
f 69 80 81
f 69 81 70
f 69 71 82
f 69 82 78
f 72 83 73
f 73 83 84
f 73 84 85
f 73 85 86
f 73 86 74
f 74 76 77
f 74 77 75
f 78 87 88
f 78 88 89
f 78 89 79
f 78 82 90
f 78 90 91
f 78 91 92
f 78 92 87
f 84 93 85
f 85 93 94
f 85 94 95
f 85 95 96
f 85 96 86
f 87 94 93
f 87 93 88
f 87 92 95
f 87 95 94
f 90 97 91
f 91 97 92
f 92 97 98
f 92 98 99
f 92 99 95
f 95 99 100
f 95 100 96

