# https://github.com/mikedh/trimesh
v 21.15696414 119.99999905 61.99638391
v 18.60682976 119.99999905 61.99638391
v 21.00176580 119.67340934 61.90231740
v 21.09939007 119.66481769 61.89870036
v 21.15884124 119.32963169 61.79378271
v 21.31529136 119.99999905 61.98553276
v 20.98236601 119.67340934 61.90231740
v 18.60682976 119.99999905 59.99928975
v 18.60682976 117.62794065 61.29089212
v 18.60682976 112.27361667 59.69538796
v 20.80401281 118.28111541 61.48625922
v 20.96484332 119.34682429 61.80463386
v 20.88974714 118.69364488 61.60926676
v 20.77772906 117.37870371 61.21491551
v 21.00489469 118.67645693 61.60203266
v 21.24207287 118.65067267 61.57670403
v 21.27899477 119.32963169 61.78292692
v 18.69131288 98.66866148 55.60351610
v 18.79644729 98.41082823 55.51668835
v 21.48488292 119.99999905 61.96743822
v 21.36347760 119.32104003 61.77207112
v 22.99994437 119.99999905 25.03931880
v 18.60682976 79.99299979 25.03931880
v 18.60682976 107.64982486 58.30972373
v 18.60682976 102.98305619 56.90596962
v 18.60682976 99.10697520 55.73737943
v 21.28400134 118.64208102 61.56946993
v 18.60682976 98.28191161 55.48774266
v 18.60682976 97.30214715 55.18745792
v 18.60682976 96.78648531 55.02826595
v 18.60682976 96.41692340 54.91249251
v 18.60682976 95.57467186 54.64838755
v 19.23450705 100.89461529 56.24389172
v 19.55804545 103.64482725 57.06877398
v 21.66761650 119.99999905 61.94211423
v 21.45922536 118.62489307 61.54052424
v 24.99937415 119.99999905 25.03931880
v 18.60682976 32.19946265 25.03931880
v 20.84594157 114.56832695 60.34299302
v 21.16572490 117.28416300 61.15702415
v 18.60682976 95.33402890 54.57241094
v 19.36467343 100.65397000 56.14982522
v 21.86286621 119.99999905 61.90231740
v 21.68263562 119.30385208 61.71780610
v 21.77963458 119.29525578 61.69609451
v 21.43356721 117.22400284 61.09552038
v 24.99937415 119.99999905 57.99857855
v 24.98685861 119.74216580 25.03931880
v 19.83715239 86.34427154 50.42265236
v 18.84713711 79.13355798 48.36767614
v 18.60682976 77.38889241 47.86840260
v 18.85589816 34.11601937 25.03931880
v 24.95744568 119.99999905 58.57745039
v 24.92553034 119.99999905 58.76196170
v 24.88047241 119.99999905 58.96818459
v 24.81851825 119.99999905 59.18887568
v 24.73528662 119.99999905 59.42766130
v 24.62264323 119.99999905 59.69176626
v 24.45680645 119.99999905 60.01014555
v 24.35542682 119.25228357 59.80030560
v 19.03425107 97.87797379 55.31770420
v 18.60682976 94.29410428 54.24318051
v 18.82961471 94.80117446 54.36257100
v 22.07501213 119.99999905 61.85166478
v 21.62881692 117.18103063 61.03763366
v 21.85035008 118.58192086 61.44284534
v 24.99249049 119.99999905 58.23736417
v 21.73895790 64.84964144 25.03931880
v 21.95548449 67.82330899 25.03931880
v 22.70581803 78.87572473 25.03931880
v 23.21584508 87.05760646 25.03931880
v 23.35289541 89.33512878 25.03931880
v 23.96555330 100.12111557 25.03931880
v 24.43740666 108.87882626 25.03931880
v 24.70274539 114.05266047 25.03931880
v 24.12513231 118.50456810 59.78945446
v 18.72135112 78.93588606 48.45088685
v 18.60682976 78.10222849 48.21210587
v 22.50556234 106.64427614 56.39222324
v 19.28957754 37.77723932 25.03931880
v 24.97934905 119.99999905 58.40017319
v 24.18708646 119.99999905 60.41535258
v 18.60682976 93.58936334 54.01525068
v 18.60682976 92.95337653 53.80902779
v 18.60682976 92.60100490 53.69325435
v 18.60682976 91.57827055 53.35678983
v 22.01618686 118.57332456 61.39219272
v 22.16137265 119.27806783 61.58394277
v 22.30718374 119.99999905 61.77930987
v 21.73019655 117.16384268 61.00507557
v 20.35030804 105.83640051 57.61870015
v 21.04056539 111.50012159 59.31188786
v 20.08872379 45.39188838 25.03931880
v 20.45544216 49.24218628 25.03931880
v 21.07936497 56.42711559 25.03931880
v 23.98370130 118.49597645 59.98482156
v 18.88843969 80.95557398 49.16723442
v 18.60682976 78.88431987 48.57027733
v 23.95053418 119.99999905 60.69755208
v 23.97055987 119.24368727 60.34299302
v 18.60682976 90.01408547 52.82857060
v 18.77329272 91.35481322 53.23016059
v 21.95298092 117.12087047 60.92186022
v 22.21832024 119.27806783 61.56585288
v 22.56689060 119.99999905 61.67800927
v 22.34723511 119.26947153 61.51520026
v 20.85970891 96.20206237 53.67878151
v 18.79018923 80.87822354 49.24682808
v 18.69256438 80.15629348 49.03698814
v 18.60682976 79.44295740 48.81629705
v 23.68769786 119.99999905 60.96165705
v 23.74840081 118.48738015 60.26339936
v 18.60682976 89.40388292 52.61873066
v 18.60682976 88.35536432 52.25693750
v 22.85726216 119.99999905 61.54052424
v 22.41169226 119.26947153 61.48987627
v 22.62070930 119.26087987 61.39580977
v 20.38723023 102.57911837 56.49352384
v 19.86468735 89.56717777 51.86620331
v 18.60682976 80.15629348 49.12743759
v 23.45427504 119.99999905 61.15702415
v 23.47367483 119.24368727 60.83864951
v 23.58819591 119.24368727 60.74096596
v 23.48806806 118.48738015 60.52027488
v 20.73892948 96.88961768 54.10207844
v 18.60682976 86.55913258 51.61656654
v 19.14001138 90.74461067 52.86113334
v 23.20708373 119.99999905 61.33430600
v 22.69267659 119.26087987 61.35962999
v 22.67014791 118.52176070 61.10275912
v 22.65325111 117.02632976 60.56368876
v 22.84412014 118.51316440 61.00145388
v 21.47549626 111.26807261 59.08034098
v 21.36222640 108.22565150 58.04923117
v 18.60682976 80.92119575 49.44943392
v 23.23461898 119.24368727 61.02678251
v 23.35539840 119.24368727 60.93633306
v 23.37417230 118.48738015 60.61795378
v 21.90041400 106.51535952 57.02174306
v 18.60682976 86.37864745 51.55144572
v 18.60682976 85.82860506 51.35246158
v 23.11071067 119.25228357 61.11361027
v 22.48240776 117.04351771 60.66498935
v 19.82338448 94.96446931 54.03334057
v 18.63311350 84.65976614 50.90383601
v 21.28525254 105.14025354 56.94938350
v 22.62821886 115.52230716 60.01376259
v 18.89031707 87.69359326 51.88067615
v 18.78142788 82.99244985 50.14407456
v 18.60682976 81.53999460 49.70268774
v 22.47239521 112.50566566 58.95732880
v 19.76017883 91.81031954 52.87560618
v 18.60682976 85.48482972 51.22583234
v 18.60682976 85.18402660 51.11367595
v 18.60682976 84.54803979 50.87489498
v 18.60682976 84.46209538 50.84233224
v 18.60682976 83.06979913 50.31050062
v 18.60682976 82.07284671 49.91614473
f 1 2 7
f 1 7 3
f 1 3 4
f 1 4 5
f 1 5 6
f 1 6 20
f 1 20 35
f 1 35 43
f 1 43 64
f 1 64 89
f 1 89 105
f 1 105 115
f 1 115 128
f 1 128 121
f 1 121 111
f 1 111 99
f 1 99 82
f 1 82 59
f 1 59 58
f 1 58 57
f 1 57 56
f 1 56 55
f 1 55 54
f 1 54 53
f 1 53 81
f 1 81 67
f 1 67 47
f 1 47 37
f 1 37 22
f 1 22 8
f 1 8 2
f 2 8 23
f 2 23 38
f 2 38 51
f 2 51 78
f 2 78 98
f 2 98 110
f 2 110 120
f 2 120 135
f 2 135 150
f 2 150 158
f 2 158 157
f 2 157 156
f 2 156 155
f 2 155 154
f 2 154 153
f 2 153 141
f 2 141 140
f 2 140 126
f 2 126 114
f 2 114 113
f 2 113 101
f 2 101 86
f 2 86 85
f 2 85 84
f 2 84 83
f 2 83 62
f 2 62 41
f 2 41 32
f 2 32 31
f 2 31 30
f 2 30 29
f 2 29 28
f 2 28 26
f 2 26 25
f 2 25 24
f 2 24 10
f 2 10 9
f 2 9 7
f 3 7 10
f 3 10 11
f 3 11 12
f 3 12 4
f 4 12 13
f 4 13 14
f 4 14 15
f 4 15 5
f 5 16 17
f 5 17 6
f 5 15 18
f 5 18 19
f 5 19 16
f 6 17 21
f 6 21 20
f 7 9 10
f 8 22 23
f 10 24 11
f 11 24 25
f 11 25 14
f 11 14 13
f 11 13 12
f 14 25 26
f 14 26 18
f 14 18 15
f 16 27 21
f 16 21 17
f 16 19 27
f 18 26 28
f 18 28 29
f 18 29 30
f 18 30 19
f 19 30 31
f 19 31 32
f 19 32 33
f 19 33 34
f 19 34 27
f 20 21 35
f 21 27 36
f 21 36 35
f 22 37 48
f 22 48 75
f 22 75 74
f 22 74 73
f 22 73 72
f 22 72 71
f 22 71 70
f 22 70 69
f 22 69 68
f 22 68 95
f 22 95 94
f 22 94 93
f 22 93 80
f 22 80 52
f 22 52 38
f 22 38 23
f 27 39 40
f 27 40 36
f 27 34 39
f 32 41 33
f 33 42 34
f 33 41 42
f 34 42 36
f 34 36 39
f 35 36 44
f 35 44 45
f 35 45 43
f 36 46 44
f 36 40 39
f 36 42 46
f 37 47 48
f 38 49 50
f 38 50 51
f 38 52 53
f 38 53 54
f 38 54 55
f 38 55 56
f 38 56 57
f 38 57 58
f 38 58 59
f 38 59 60
f 38 60 49
f 41 61 42
f 41 62 61
f 42 61 63
f 42 63 45
f 42 45 46
f 43 45 64
f 44 46 45
f 45 65 66
f 45 66 64
f 45 63 65
f 47 67 68
f 47 68 69
f 47 69 70
f 47 70 71
f 47 71 72
f 47 72 73
f 47 73 74
f 47 74 75
f 47 75 48
f 49 60 76
f 49 76 50
f 50 77 78
f 50 78 51
f 50 76 79
f 50 79 77
f 52 80 81
f 52 81 53
f 59 82 76
f 59 76 60
f 61 62 83
f 61 83 63
f 63 83 84
f 63 84 85
f 63 85 86
f 63 86 65
f 64 87 88
f 64 88 89
f 64 66 90
f 64 90 87
f 65 91 92
f 65 92 90
f 65 90 66
f 65 86 91
f 67 81 93
f 67 93 94
f 67 94 95
f 67 95 68
f 76 82 96
f 76 96 79
f 77 97 78
f 77 79 96
f 77 96 97
f 78 97 98
f 80 93 81
f 82 99 100
f 82 100 96
f 86 101 102
f 86 102 91
f 87 103 104
f 87 104 88
f 87 90 92
f 87 92 91
f 87 91 102
f 87 102 103
f 88 104 89
f 89 104 106
f 89 106 105
f 96 100 97
f 97 107 108
f 97 108 98
f 97 100 107
f 98 109 110
f 98 108 109
f 99 111 112
f 99 112 100
f 100 112 107
f 101 113 102
f 102 113 114
f 102 114 106
f 102 106 103
f 103 106 104
f 105 106 116
f 105 116 117
f 105 117 115
f 106 114 118
f 106 118 116
f 107 112 108
f 108 119 120
f 108 120 109
f 108 112 119
f 109 120 110
f 111 121 122
f 111 122 138
f 111 138 123
f 111 123 112
f 112 123 124
f 112 124 125
f 112 125 119
f 114 126 127
f 114 127 117
f 114 117 118
f 115 117 129
f 115 129 130
f 115 130 131
f 115 131 132
f 115 132 128
f 116 118 133
f 116 133 117
f 117 134 129
f 117 133 118
f 117 127 134
f 119 125 120
f 120 125 135
f 121 128 136
f 121 136 137
f 121 137 122
f 122 137 138
f 123 138 124
f 124 138 139
f 124 139 135
f 124 135 125
f 126 140 127
f 127 140 141
f 127 141 134
f 128 132 131
f 128 131 142
f 128 142 136
f 129 134 143
f 129 143 130
f 130 143 131
f 131 143 134
f 131 134 144
f 131 144 145
f 131 145 146
f 131 146 147
f 131 147 142
f 134 141 148
f 134 148 144
f 135 149 150
f 135 139 149
f 136 151 137
f 136 142 147
f 136 147 146
f 136 146 152
f 136 152 151
f 137 151 138
f 138 151 149
f 138 149 139
f 141 153 148
f 144 148 145
f 145 148 153
f 145 153 154
f 145 154 155
f 145 155 156
f 145 156 157
f 145 157 146
f 146 157 152
f 149 152 158
f 149 158 150
f 149 151 152
f 152 157 158

