# https://github.com/mikedh/trimesh
v -0.16651188 -0.05704293 2.18842656
v -0.16651188 -0.05514454 2.18036385
v -0.16651188 -0.05414481 2.21233795
v -0.19335361 -0.04867430 2.20500824
v -0.19602848 -0.04908992 2.18842656
v -0.26275588 -0.02550051 2.11746674
v -0.26062838 -0.02388295 2.10537962
v -0.16651188 -0.05125791 2.17004699
v -0.17784138 -0.05093215 2.21257309
v -0.16651188 -0.04912363 2.22605698
v -0.17021953 -0.04866308 2.22562822
v -0.22614411 -0.03380174 2.18951909
v -0.20786406 -0.04546165 2.18842656
v -0.18598995 -0.04587728 2.22078789
v -0.20305133 -0.03777824 2.21437092
v -0.26268359 -0.02556791 2.14111541
v -0.27158607 -0.01181865 2.11746674
v -0.26476979 -0.01181865 2.10262754
v -0.25976084 -0.02388295 2.10537962
v -0.16651188 -0.04283312 2.16602258
v -0.16651188 -0.03628425 2.23418879
v -0.17784138 -0.03699193 2.23171324
v -0.19696831 -0.03010607 2.22897497
v -0.24021048 -0.02727534 2.18235537
v -0.24822478 -0.02871317 2.16273111
v -0.21919357 -0.02966798 2.20794012
v -0.26053541 -0.02396158 2.15347906
v -0.21273873 -0.02316404 2.22371977
v -0.26911775 -0.01181865 2.14111541
v -0.27201984 0.01182693 2.11746674
v -0.25597057 -0.01181865 2.10262754
v -0.26500732 0.01182693 2.10247545
v -0.16651188 -0.03548670 2.16267576
v -0.16651188 -0.01181865 2.24360674
v -0.17744893 -0.01181865 2.24299825
v -0.20335084 -0.01389677 2.23197602
v -0.23496400 -0.02067030 2.19813494
v -0.25670384 -0.01181865 2.17014380
v -0.26229114 -0.01181865 2.15831946
v -0.21516576 -0.00738160 2.22576656
v -0.23877492 -0.00488786 2.20268492
v -0.26940692 0.01182693 2.14111541
v -0.26317932 0.02582331 2.11746674
v -0.26094852 0.02409342 2.10515837
v -0.26297276 0.02585701 2.14111541
v -0.25568140 0.01182693 2.10247545
v -0.16651188 -0.01181865 2.15959179
v -0.16651188 -0.02389419 2.16064286
v -0.16651188 0.01182693 2.24374501
v -0.17744893 0.01182693 2.24316423
v -0.20109940 0.01182693 2.23409198
v -0.24452746 -0.01239154 2.18951909
v -0.25679679 0.01182693 2.17035123
v -0.26240473 0.01182693 2.15851308
v -0.21461838 0.01182693 2.22531016
v -0.23877492 0.00519942 2.20268492
v -0.26068001 0.02412712 2.15374185
v -0.20918601 0.04582939 2.18842656
v -0.19735045 0.04943520 2.18842656
v -0.16651188 0.05771396 2.18842656
v -0.16651188 0.05160317 2.16982566
v -0.25936839 0.02409342 2.10515837
v -0.16651188 0.03548374 2.16242686
v -0.16651188 0.01182693 2.15956415
v -0.16651188 -0.00154041 2.15957797
v -0.16651188 0.02275669 2.24049506
v -0.16651188 0.03635992 2.23457602
v -0.17824416 0.03715747 2.23198984
v -0.20109940 0.02872144 2.22782717
v -0.21295562 0.02367780 2.22392720
v -0.24461008 0.01257954 2.18969889
v -0.23519119 0.02097063 2.19843918
v -0.24034472 0.02747457 2.18267343
v -0.24829707 0.02913706 2.16288319
v -0.22627838 0.03422564 2.18969889
v -0.19400426 0.04890724 2.20568590
v -0.16651188 0.05632106 2.20120509
v -0.16651188 0.04380743 2.23001222
v -0.17089082 0.04888477 2.22587719
v -0.18667157 0.04616637 2.22145165
v -0.20157448 0.04094300 2.21297414
v -0.21781998 0.02838445 2.21207523
v -0.16651188 0.05473720 2.21254538
v -0.17824416 0.05134481 2.21297414
v -0.16651188 0.04942396 2.22637505
v -0.16651188 0.05132234 2.22233682
f 1 2 8
f 1 8 20
f 1 20 33
f 1 33 48
f 1 48 47
f 1 47 65
f 1 65 64
f 1 64 63
f 1 63 61
f 1 61 60
f 1 60 77
f 1 77 83
f 1 83 86
f 1 86 85
f 1 85 78
f 1 78 67
f 1 67 66
f 1 66 49
f 1 49 34
f 1 34 21
f 1 21 10
f 1 10 3
f 1 3 4
f 1 4 5
f 1 5 6
f 1 6 7
f 1 7 2
f 2 7 8
f 3 9 4
f 3 10 11
f 3 11 9
f 4 12 13
f 4 13 5
f 4 9 14
f 4 14 15
f 4 15 12
f 5 13 6
f 6 16 17
f 6 17 7
f 6 13 16
f 7 17 18
f 7 18 31
f 7 31 19
f 7 19 8
f 8 19 20
f 9 11 14
f 10 21 22
f 10 22 11
f 11 22 23
f 11 23 14
f 12 24 25
f 12 25 13
f 12 15 26
f 12 26 24
f 13 25 27
f 13 27 16
f 14 23 28
f 14 28 15
f 15 28 26
f 16 27 29
f 16 29 17
f 17 30 18
f 17 29 30
f 18 30 32
f 18 32 46
f 18 46 31
f 19 31 33
f 19 33 20
f 21 34 35
f 21 35 22
f 22 35 23
f 23 35 36
f 23 36 28
f 24 26 37
f 24 37 27
f 24 27 25
f 26 28 37
f 27 37 38
f 27 38 39
f 27 39 29
f 28 36 40
f 28 40 41
f 28 41 37
f 29 42 30
f 29 39 42
f 30 43 44
f 30 44 32
f 30 42 45
f 30 45 43
f 31 46 47
f 31 47 48
f 31 48 33
f 32 44 62
f 32 62 46
f 34 49 50
f 34 50 35
f 35 50 51
f 35 51 36
f 36 51 40
f 37 41 52
f 37 52 38
f 38 53 54
f 38 54 39
f 38 52 41
f 38 41 53
f 39 54 42
f 40 51 55
f 40 55 56
f 40 56 41
f 41 56 53
f 42 54 57
f 42 57 45
f 43 45 58
f 43 58 59
f 43 59 60
f 43 60 44
f 44 61 62
f 44 60 61
f 45 57 58
f 46 62 63
f 46 63 64
f 46 64 65
f 46 65 47
f 49 66 50
f 50 66 67
f 50 67 68
f 50 68 69
f 50 69 51
f 51 69 70
f 51 70 55
f 53 57 54
f 53 56 71
f 53 71 72
f 53 72 57
f 55 70 56
f 56 72 71
f 56 70 72
f 57 72 73
f 57 73 74
f 57 74 58
f 58 73 75
f 58 75 76
f 58 76 59
f 58 74 73
f 59 76 60
f 60 76 77
f 61 63 62
f 67 78 68
f 68 78 79
f 68 79 80
f 68 80 69
f 69 80 70
f 70 80 81
f 70 81 82
f 70 82 72
f 72 82 73
f 73 82 81
f 73 81 75
f 75 81 76
f 76 83 77
f 76 81 80
f 76 80 84
f 76 84 83
f 78 85 79
f 79 85 86
f 79 86 80
f 80 86 83
f 80 83 84

