# https://github.com/mikedh/trimesh
v 0.49244594 1.00024215 0.36333660
v 0.66126081 0.91785544 0.36333660
v 0.49244594 1.23200208 0.36333660
v 0.49244594 1.00024215 0.71427459
v 1.02545369 0.91785544 0.36333660
v 0.66126081 0.91785544 0.83849819
v 0.90061917 1.23200208 0.36333660
v 1.07764764 1.23959197 0.68970705
v 1.02393916 1.23959197 0.71332967
v 0.99970617 1.23959197 0.76328366
v 0.49244594 1.23200208 1.00681741
v 0.49244594 1.00663531 0.77626039
v 0.66335790 0.91785544 0.90061001
v 1.02830809 1.15789812 0.36333660
v 1.08749230 0.91785544 0.60164181
v 0.96277431 1.23049037 0.36333660
v 1.08749230 1.23959197 0.69128188
v 0.99970617 1.23959197 0.77638637
v 1.02452163 1.23959197 0.83818321
v 1.02522072 1.23959197 0.83887610
v 1.08696805 1.23959197 0.86495553
v 1.08749230 1.23200208 1.00681741
v 0.49244594 1.07144873 1.00681741
v 0.67442585 0.91785544 0.94174484
v 1.01724009 1.19112364 0.36333660
v 1.08749230 1.09576162 0.59975201
v 1.08749230 1.09632852 0.59975201
v 1.08749230 1.15789812 0.60031893
v 1.08749230 1.15827602 0.60038196
v 1.08749230 1.20157946 0.61127983
v 1.08749230 0.91785544 0.96083198
v 1.01129842 1.20894893 0.36333660
v 1.08749230 1.22327839 0.65222576
v 1.08749230 1.23959197 0.86495553
v 1.08749230 1.06080395 1.00681741
v 0.65660065 1.06108739 1.00681741
v 0.77648374 0.91785544 0.96083198
v 0.71432860 0.91785544 0.95629645
v 0.70891113 0.91785544 0.95434366
v 1.08749230 1.20176840 0.61159481
v 0.77590118 1.06080395 1.00681741
f 1 2 5
f 1 5 14
f 1 14 25
f 1 25 32
f 1 32 16
f 1 16 7
f 1 7 3
f 1 3 11
f 1 11 23
f 1 23 12
f 1 12 4
f 1 4 6
f 1 6 2
f 2 6 13
f 2 13 24
f 2 24 39
f 2 39 38
f 2 38 37
f 2 37 31
f 2 31 15
f 2 15 5
f 3 7 8
f 3 8 9
f 3 9 10
f 3 10 18
f 3 18 11
f 4 12 13
f 4 13 6
f 5 15 14
f 7 16 17
f 7 17 8
f 8 17 34
f 8 34 21
f 8 21 20
f 8 20 19
f 8 19 18
f 8 18 10
f 8 10 9
f 11 18 19
f 11 19 20
f 11 20 21
f 11 21 34
f 11 34 22
f 11 22 35
f 11 35 41
f 11 41 36
f 11 36 23
f 12 23 24
f 12 24 13
f 14 15 26
f 14 26 27
f 14 27 28
f 14 28 29
f 14 29 30
f 14 30 25
f 15 31 35
f 15 35 22
f 15 22 34
f 15 34 17
f 15 17 33
f 15 33 40
f 15 40 30
f 15 30 29
f 15 29 28
f 15 28 27
f 15 27 26
f 16 32 17
f 17 32 33
f 23 36 37
f 23 37 38
f 23 38 39
f 23 39 24
f 25 30 32
f 30 40 32
f 31 37 41
f 31 41 35
f 32 40 33
f 36 41 37

