# https://github.com/mikedh/trimesh
v 0.08672164 -0.02337416 0.20564434
v 0.11405460 -0.00631501 0.16793956
v 0.11407677 -0.00631501 0.16623240
v 0.08937016 -0.02519392 0.16625347
v 0.08937016 -0.02524567 0.16623240
v 0.08672164 -0.04195984 0.20564434
v 0.08672164 -0.02340866 0.21167205
v 0.11440922 -0.00603471 0.25013557
v 0.11425407 -0.00603471 0.22705746
v 0.11420421 -0.00603471 0.21936477
v 0.11417097 -0.00603471 0.21167205
v 0.11414880 -0.00603471 0.20564434
v 0.08937571 -0.02519823 0.16623240
v 0.12977951 -0.00631501 0.16623240
v 0.08937016 -0.04104996 0.16623240
v 0.08937016 -0.05006251 0.18855178
v 0.08672164 -0.04226170 0.34012971
v 0.08672164 -0.02375795 0.26554206
v 0.08672164 -0.02382263 0.27321370
v 0.08672164 -0.02396062 0.28857804
v 0.08672164 -0.02440047 0.33475536
v 0.11592187 -0.00603471 0.34012971
v 0.13001776 -0.00603471 0.20564434
v 0.14120472 -0.00631501 0.18309311
v 0.12891514 -0.01148105 0.16623240
v 0.09620756 -0.04196416 0.16623240
v 0.09620756 -0.04811770 0.18254513
v 0.09620756 -0.05008838 0.18855178
v 0.09143135 -0.04310689 0.38154387
v 0.08672164 -0.02446515 0.34012971
v 0.11604931 -0.00686266 0.38154387
v 0.13103173 -0.00603471 0.34012971
v 0.13099295 -0.00603471 0.33427060
v 0.14332132 -0.00631501 0.18855178
v 0.14278939 -0.00631501 0.18627559
v 0.14052874 -0.00917401 0.18364109
v 0.12590092 -0.01924305 0.16623240
v 0.09713287 -0.04177442 0.16623240
v 0.10390379 -0.04757005 0.18294560
v 0.10907893 -0.04675504 0.18387293
v 0.10390379 -0.04860498 0.18855178
v 0.09688354 -0.04297753 0.38154387
v 0.09620756 -0.04305515 0.38154387
v 0.09143135 -0.02572001 0.38154387
v 0.13200138 -0.00686266 0.38154387
v 0.13242249 -0.02617711 0.18855178
v 0.13185732 -0.02519823 0.18364109
v 0.13176313 -0.01060998 0.38154387
v 0.13168002 -0.01127838 0.38154387
v 0.13107606 -0.01482302 0.38154387
v 0.12901487 -0.01924736 0.38154387
v 0.12355161 -0.02369758 0.16623240
v 0.10465734 -0.03993741 0.16623240
v 0.10549400 -0.03948463 0.16623240
v 0.10999871 -0.03681105 0.16623240
v 0.12325794 -0.03858768 0.18454735
v 0.11320132 -0.04493959 0.18855178
v 0.10935598 -0.04688009 0.18855178
v 0.10445787 -0.04132163 0.38154387
v 0.10390379 -0.04146394 0.38154387
v 0.13025048 -0.03001498 0.18855178
v 0.12530805 -0.02590975 0.38154387
v 0.12043212 -0.02754839 0.16623240
v 0.11090187 -0.03624615 0.16623240
v 0.12325794 -0.03858768 0.18579085
v 0.11658677 -0.03184337 0.16623240
v 0.11361134 -0.03682398 0.38154387
v 0.10930056 -0.03946307 0.38154387
v 0.12250993 -0.02945008 0.38154387
v 0.11835429 -0.03334402 0.38154387
f 1 2 3
f 1 3 4
f 1 4 5
f 1 5 15
f 1 15 6
f 1 6 17
f 1 17 30
f 1 30 21
f 1 21 20
f 1 20 19
f 1 19 18
f 1 18 7
f 1 7 8
f 1 8 9
f 1 9 10
f 1 10 11
f 1 11 12
f 1 12 2
f 2 12 3
f 3 13 4
f 3 12 23
f 3 23 14
f 3 14 25
f 3 25 37
f 3 37 52
f 3 52 63
f 3 63 66
f 3 66 64
f 3 64 55
f 3 55 54
f 3 54 53
f 3 53 38
f 3 38 26
f 3 26 15
f 3 15 5
f 3 5 13
f 4 13 5
f 6 15 16
f 6 16 17
f 7 18 8
f 8 18 19
f 8 19 20
f 8 20 21
f 8 21 22
f 8 22 32
f 8 32 33
f 8 33 23
f 8 23 12
f 8 12 11
f 8 11 10
f 8 10 9
f 14 23 24
f 14 24 25
f 15 26 16
f 16 26 27
f 16 27 28
f 16 28 29
f 16 29 17
f 17 29 44
f 17 44 30
f 21 30 22
f 22 30 31
f 22 31 45
f 22 45 32
f 23 33 34
f 23 34 35
f 23 35 24
f 24 36 25
f 24 35 36
f 25 36 37
f 26 38 39
f 26 39 27
f 27 39 28
f 28 39 40
f 28 40 41
f 28 41 42
f 28 42 43
f 28 43 29
f 29 43 42
f 29 42 60
f 29 60 59
f 29 59 68
f 29 68 67
f 29 67 70
f 29 70 69
f 29 69 62
f 29 62 51
f 29 51 50
f 29 50 49
f 29 49 48
f 29 48 45
f 29 45 31
f 29 31 44
f 30 44 31
f 32 45 34
f 32 34 33
f 34 46 47
f 34 47 35
f 34 45 48
f 34 48 49
f 34 49 50
f 34 50 51
f 34 51 46
f 35 47 36
f 36 47 52
f 36 52 37
f 38 53 40
f 38 40 39
f 40 53 54
f 40 54 55
f 40 55 56
f 40 56 57
f 40 57 58
f 40 58 41
f 41 58 59
f 41 59 60
f 41 60 42
f 46 61 47
f 46 51 62
f 46 62 61
f 47 56 52
f 47 61 56
f 52 56 63
f 55 64 56
f 56 61 65
f 56 65 57
f 56 64 66
f 56 66 63
f 57 65 67
f 57 67 68
f 57 68 58
f 58 68 59
f 61 62 69
f 61 69 65
f 65 69 70
f 65 70 67

