# https://github.com/mikedh/trimesh
v 0.14366792 -0.00697128 0.07087172
v 0.14366792 -0.00697128 -0.00369047
v 0.14366792 -0.00419671 0.07183842
v 0.14198454 -0.00564061 0.07252033
v 0.14127402 -0.00697128 0.07252033
v 0.14366792 -0.00384281 -0.00369047
v 0.12697623 -0.00697128 -0.00389281
v 0.11928077 0.07310899 -0.00402020
v 0.14366792 -0.00363047 0.07183842
v 0.14250924 -0.00439489 0.07252033
v 0.05064480 -0.00697128 0.07252033
v 0.14366792 0.02694641 -0.00363801
v 0.11928077 0.08849652 -0.00402020
v 0.12241798 -0.00697128 -0.00388530
v 0.11928077 0.05772146 -0.00400520
v 0.11928077 0.06540815 -0.00401267
v 0.03199645 0.10388405 -0.00375043
v 0.11158532 0.09619737 -0.00400520
v 0.14221409 0.00317854 0.07252033
v 0.14366792 0.00407037 0.07163611
v 0.03642352 -0.00697128 0.05675362
v 0.05016383 -0.00384281 0.07252033
v 0.03199645 0.02694641 0.05938392
v 0.14366792 0.03463309 -0.00362301
v 0.11928077 0.09619737 -0.00396772
v 0.14366792 0.06540815 -0.00355556
v 0.14366792 0.06413411 -0.00356304
v 0.11928077 -0.00697128 -0.00387029
v 0.05003266 0.10388405 -0.00370543
v 0.11472253 -0.00697128 -0.00363052
v 0.09619442 -0.00697128 -0.00263383
v 0.06542356 -0.00697128 -0.00097774
v 0.04901607 -0.00697128 -0.00009350
v 0.04674242 -0.00697128 0.00003390
v 0.03199645 0.09883037 -0.00352561
v 0.03199645 0.10651706 -0.00352561
v 0.09619442 0.10388405 -0.00357804
v 0.10388988 0.10388405 -0.00354809
v 0.14213756 0.00429687 0.07252033
v 0.14366792 0.05772146 0.06407495
v 0.03436848 -0.00697128 0.05001680
v 0.03199645 0.02002414 0.05664872
v 0.03199645 0.04679306 0.06118239
v 0.03199645 0.03970093 0.06068780
v 0.03199645 0.03463309 0.06032811
v 0.05016383 -0.00324826 0.07252033
v 0.03199645 0.10388405 0.06494424
v 0.03199645 0.09619737 0.06462198
v 0.03199645 0.09355020 0.06444215
v 0.03199645 0.08849652 0.06408996
v 0.11158532 0.10388405 -0.00345066
v 0.11158532 0.11158490 -0.00188448
v 0.11575005 0.11586000 -0.00027335
v 0.12701995 0.09604164 -0.00202686
v 0.14366792 0.07241535 -0.00187700
v 0.04415176 -0.00697128 0.00024374
v 0.03199645 0.09619737 -0.00338323
v 0.04233721 -0.00697128 0.00041610
v 0.03199645 0.11158490 -0.00304598
v 0.03464176 0.11158490 -0.00301603
v 0.08081446 0.11158490 -0.00247649
v 0.09619442 0.11158490 -0.00229663
v 0.13683602 0.01237992 0.07252033
v 0.12488839 0.10388405 0.06311576
v 0.11928077 0.10388405 0.06470442
v 0.14366792 0.06295917 0.06252378
v 0.12321594 0.11553441 0.06163952
v 0.12388274 0.11158490 0.06220903
v 0.03341748 -0.00697128 0.01154421
v 0.03199645 0.01753269 0.05001680
v 0.05036059 0.00390050 0.07252033
v 0.03199645 0.11158490 0.06426979
v 0.05046990 0.00443843 0.07252033
v 0.05203303 0.01154472 0.07252033
v 0.05217514 0.01211096 0.07252033
v 0.05727994 0.02771083 0.07252033
v 0.06023132 0.03398192 0.07252033
v 0.06542356 0.03851182 0.07252033
v 0.10388988 0.11158490 -0.00217672
v 0.11158532 0.11629883 -0.00054311
v 0.11158532 0.12014925 0.00221457
v 0.11158532 0.12487734 0.00606631
v 0.11629660 0.12414123 0.00674823
v 0.13154540 0.09338033 -0.00077542
v 0.12448395 0.10168987 -0.00120256
v 0.14366792 0.07354783 -0.00157724
v 0.03199645 0.03260879 0.00010135
v 0.03841297 -0.00697128 0.00267916
v 0.03199645 0.02694641 0.00055846
v 0.03199645 0.02901318 0.00034113
v 0.03199645 0.11474167 -0.00226668
v 0.03199645 0.11939898 -0.00109013
v 0.12072367 0.02778161 0.07252033
v 0.11928077 0.11158490 0.06301086
v 0.11158532 0.11158490 0.06324314
v 0.10388988 0.11158490 0.06340054
v 0.09619442 0.11158490 0.06352041
v 0.08849898 0.11158490 0.06361785
v 0.03464176 0.11158490 0.06423982
v 0.11158532 0.10388405 0.06476438
v 0.08081446 0.04241887 0.07252033
v 0.08849898 0.04132886 0.07252033
v 0.08918763 0.04122977 0.07252033
v 0.09619442 0.04004067 0.07252033
v 0.10116804 0.03909222 0.07252033
v 0.10548580 0.03736519 0.07252033
v 0.11223026 0.03430750 0.07252033
v 0.11652615 0.03173112 0.07252033
v 0.14366792 0.06419074 0.05771281
v 0.12319409 0.12323526 0.05397346
v 0.11928077 0.12398551 0.05470036
v 0.11158532 0.12480656 0.05547220
v 0.11158532 0.11999354 0.05931647
v 0.11928077 0.11580337 0.06179688
v 0.03479479 -0.00697128 0.00719787
v 0.03199645 0.01673995 0.01161165
v 0.03199645 0.01675411 0.01153671
v 0.03199645 0.01955699 0.00379575
v 0.03199645 0.02138311 0.00265669
v 0.03199645 0.11849300 0.06254624
v 0.06950083 0.04036625 0.07252033
v 0.07275829 0.04171107 0.07252033
v 0.10388988 0.11663857 -0.00071545
v 0.10388988 0.12048900 0.00190732
v 0.10388988 0.12524540 0.00575159
v 0.06285476 0.13090778 0.00759505
v 0.06798142 0.13069544 0.00792476
v 0.11158532 0.12831724 0.01154421
v 0.11578284 0.13096441 0.02217776
v 0.11712736 0.12547189 0.01154421
v 0.14366792 0.07703019 0.00384819
v 0.03574579 -0.00697128 0.00423038
v 0.03199645 0.12167809 -0.00039325
v 0.11158532 0.11614312 0.06199172
v 0.10388988 0.11635545 0.06209663
v 0.09619442 0.11652532 0.06217155
v 0.14366792 0.07595434 0.01110958
v 0.14366792 0.07698773 0.00569165
v 0.12319409 0.12323526 0.05314916
v 0.11595774 0.13103519 0.03462476
v 0.11578284 0.13096441 0.03929334
v 0.11158532 0.13041232 0.04435158
v 0.11158532 0.12824646 0.05001680
v 0.06157583 0.13082285 0.05386856
v 0.05772811 0.13095026 0.05400343
v 0.05003266 0.13119090 0.05426572
v 0.04233721 0.13143156 0.05449802
v 0.04233721 0.12697242 0.05779523
v 0.03464176 0.12697242 0.05817742
v 0.03199645 0.12234343 0.06124984
v 0.03199645 0.12302292 0.00004139
v 0.03464176 0.12697242 0.00291895
v 0.04233721 0.12697242 0.00330864
v 0.05003266 0.12697242 0.00374328
v 0.05003266 0.13134662 0.00712293
v 0.05772811 0.13109181 0.00740020
v 0.03199645 0.13465911 0.01154421
v 0.04233721 0.13396547 0.01154421
v 0.05003266 0.13342754 0.01154421
v 0.05772811 0.13287546 0.01154421
v 0.06541263 0.13206857 0.01091474
v 0.07311900 0.13202609 0.01224861
v 0.08849898 0.13144571 0.01373985
v 0.09619442 0.13114843 0.01451921
v 0.10158343 0.13093609 0.01507374
v 0.10404290 0.12939309 0.01212122
v 0.09619442 0.12939309 0.01067494
v 0.10672101 0.13075207 0.01585306
v 0.11158532 0.13042648 0.01697714
v 0.11736784 0.12746788 0.01946503
v 0.11158532 0.13117674 0.02082140
v 0.03464176 0.13741952 0.02693625
v 0.08081446 0.13389469 0.02693625
v 0.11158532 0.13154479 0.02693625
v 0.11595774 0.13103519 0.02693625
v 0.03199645 0.12697242 0.05830482
v 0.03199645 0.12548605 0.05927151
v 0.11158532 0.13154479 0.03462476
v 0.08849898 0.13331429 0.03462476
v 0.07311900 0.13448924 0.03462476
v 0.04233721 0.13683913 0.03462476
v 0.03464176 0.13741952 0.03462476
v 0.03199645 0.13761771 0.03462476
v 0.11158532 0.13117674 0.04050731
v 0.10599956 0.13069544 0.04549063
v 0.10087291 0.13087948 0.04633740
v 0.09619442 0.13106349 0.04680201
v 0.08081446 0.13164390 0.04830074
v 0.07311900 0.13192701 0.04901266
v 0.06464745 0.13194116 0.05052638
v 0.05772811 0.13263480 0.05001680
v 0.04233721 0.13368234 0.05001680
v 0.03464176 0.13419197 0.05001680
v 0.03199645 0.13436183 0.05001680
v 0.03199645 0.13172883 0.05476779
v 0.03199645 0.12671761 0.00261922
v 0.03199645 0.12869945 0.00414043
v 0.03199645 0.13188454 0.00660585
v 0.03464176 0.13181376 0.00667331
v 0.04233721 0.13158727 0.00688315
v 0.03199645 0.13290377 0.00833691
v 0.03199645 0.13546600 0.01418198
v 0.03199645 0.13699483 0.01924022
v 0.06542356 0.13444677 0.01924022
v 0.03199645 0.13761771 0.02693625
v 0.03199645 0.13736291 0.03726256
v 0.10361660 0.13138908 0.04268796
v 0.03199645 0.13686744 0.04232079
v 0.03464176 0.13666926 0.04232079
v 0.05772811 0.13492806 0.04232079
f 1 2 6
f 1 6 12
f 1 12 24
f 1 24 27
f 1 27 26
f 1 26 55
f 1 55 86
f 1 86 131
f 1 131 138
f 1 138 137
f 1 137 109
f 1 109 66
f 1 66 40
f 1 40 20
f 1 20 9
f 1 9 3
f 1 3 4
f 1 4 5
f 1 5 11
f 1 11 21
f 1 21 41
f 1 41 69
f 1 69 115
f 1 115 132
f 1 132 88
f 1 88 58
f 1 58 56
f 1 56 34
f 1 34 33
f 1 33 32
f 1 32 31
f 1 31 30
f 1 30 28
f 1 28 14
f 1 14 7
f 1 7 2
f 2 7 8
f 2 8 13
f 2 13 6
f 3 9 10
f 3 10 4
f 4 10 19
f 4 19 39
f 4 39 63
f 4 63 93
f 4 93 108
f 4 108 107
f 4 107 106
f 4 106 105
f 4 105 104
f 4 104 103
f 4 103 102
f 4 102 101
f 4 101 122
f 4 122 121
f 4 121 78
f 4 78 77
f 4 77 76
f 4 76 75
f 4 75 74
f 4 74 73
f 4 73 71
f 4 71 46
f 4 46 22
f 4 22 11
f 4 11 5
f 6 13 12
f 7 14 15
f 7 15 16
f 7 16 8
f 8 17 18
f 8 18 13
f 8 16 17
f 9 19 10
f 9 20 19
f 11 22 23
f 11 23 21
f 12 13 24
f 13 18 25
f 13 25 26
f 13 26 27
f 13 27 24
f 14 28 17
f 14 17 15
f 15 17 16
f 17 29 18
f 17 28 30
f 17 30 31
f 17 31 32
f 17 32 33
f 17 33 34
f 17 34 35
f 17 35 57
f 17 57 87
f 17 87 90
f 17 90 89
f 17 89 119
f 17 119 118
f 17 118 117
f 17 117 116
f 17 116 70
f 17 70 42
f 17 42 23
f 17 23 45
f 17 45 44
f 17 44 43
f 17 43 50
f 17 50 49
f 17 49 48
f 17 48 47
f 17 47 72
f 17 72 120
f 17 120 150
f 17 150 177
f 17 177 176
f 17 176 195
f 17 195 194
f 17 194 208
f 17 208 206
f 17 206 183
f 17 183 205
f 17 205 203
f 17 203 202
f 17 202 157
f 17 157 201
f 17 201 198
f 17 198 197
f 17 197 196
f 17 196 151
f 17 151 133
f 17 133 92
f 17 92 91
f 17 91 59
f 17 59 36
f 17 36 29
f 18 29 37
f 18 37 38
f 18 38 25
f 19 20 39
f 20 40 39
f 21 23 42
f 21 42 41
f 22 43 44
f 22 44 45
f 22 45 23
f 22 46 47
f 22 47 48
f 22 48 49
f 22 49 50
f 22 50 43
f 25 38 51
f 25 51 52
f 25 52 53
f 25 53 54
f 25 54 26
f 26 54 55
f 29 36 37
f 34 56 35
f 35 56 58
f 35 58 57
f 36 59 37
f 37 59 38
f 38 59 60
f 38 60 61
f 38 61 62
f 38 62 51
f 39 40 64
f 39 64 65
f 39 65 63
f 40 66 67
f 40 67 68
f 40 68 64
f 41 42 70
f 41 70 69
f 46 71 47
f 47 71 73
f 47 73 74
f 47 74 75
f 47 75 76
f 47 76 77
f 47 77 78
f 47 78 72
f 51 62 79
f 51 79 52
f 52 79 80
f 52 80 53
f 53 80 81
f 53 81 82
f 53 82 83
f 53 83 84
f 53 84 85
f 53 85 54
f 54 85 84
f 54 84 86
f 54 86 55
f 57 58 87
f 58 88 89
f 58 89 90
f 58 90 87
f 59 91 60
f 60 91 61
f 61 91 62
f 62 91 92
f 62 92 79
f 63 65 93
f 64 68 65
f 65 68 67
f 65 67 94
f 65 94 95
f 65 95 96
f 65 96 97
f 65 97 98
f 65 98 99
f 65 99 72
f 65 72 100
f 65 100 101
f 65 101 102
f 65 102 103
f 65 103 104
f 65 104 105
f 65 105 106
f 65 106 107
f 65 107 108
f 65 108 93
f 66 109 110
f 66 110 67
f 67 110 111
f 67 111 112
f 67 112 113
f 67 113 114
f 67 114 94
f 69 70 116
f 69 116 117
f 69 117 118
f 69 118 119
f 69 119 115
f 72 99 120
f 72 78 121
f 72 121 122
f 72 122 101
f 72 101 100
f 79 92 123
f 79 123 80
f 80 123 124
f 80 124 81
f 81 124 125
f 81 125 82
f 82 125 126
f 82 126 127
f 82 127 128
f 82 128 83
f 83 128 129
f 83 129 130
f 83 130 131
f 83 131 86
f 83 86 84
f 88 132 89
f 89 132 119
f 92 133 123
f 94 114 134
f 94 134 95
f 95 134 135
f 95 135 96
f 96 135 136
f 96 136 97
f 97 136 120
f 97 120 98
f 98 120 99
f 109 137 110
f 110 137 138
f 110 138 131
f 110 131 139
f 110 139 175
f 110 175 140
f 110 140 141
f 110 141 142
f 110 142 143
f 110 143 111
f 111 143 112
f 112 143 144
f 112 144 113
f 113 134 114
f 113 144 145
f 113 145 146
f 113 146 147
f 113 147 148
f 113 148 149
f 113 149 134
f 115 119 132
f 120 136 150
f 123 133 151
f 123 151 124
f 124 151 152
f 124 152 153
f 124 153 154
f 124 154 155
f 124 155 156
f 124 156 125
f 125 156 126
f 126 156 157
f 126 157 158
f 126 158 127
f 127 158 159
f 127 159 160
f 127 160 161
f 127 161 162
f 127 162 163
f 127 163 164
f 127 164 165
f 127 165 166
f 127 166 167
f 127 167 128
f 128 167 166
f 128 166 168
f 128 168 169
f 128 169 129
f 129 170 130
f 129 169 171
f 129 171 172
f 129 172 173
f 129 173 174
f 129 174 175
f 129 175 139
f 129 139 131
f 129 131 170
f 130 170 131
f 134 149 176
f 134 176 177
f 134 177 150
f 134 150 135
f 135 150 136
f 140 175 174
f 140 174 178
f 140 178 141
f 141 178 179
f 141 179 180
f 141 180 181
f 141 181 182
f 141 182 183
f 141 183 184
f 141 184 142
f 142 184 185
f 142 185 143
f 143 185 186
f 143 186 144
f 144 186 187
f 144 187 188
f 144 188 189
f 144 189 190
f 144 190 191
f 144 191 192
f 144 192 193
f 144 193 194
f 144 194 145
f 145 194 146
f 146 194 147
f 147 176 149
f 147 149 148
f 147 194 195
f 147 195 176
f 151 196 152
f 152 196 197
f 152 197 198
f 152 198 199
f 152 199 200
f 152 200 153
f 153 200 155
f 153 155 154
f 155 200 201
f 155 201 157
f 155 157 156
f 157 202 158
f 158 202 203
f 158 203 163
f 158 163 159
f 159 163 162
f 159 162 160
f 160 162 161
f 163 203 164
f 164 203 165
f 165 168 166
f 165 203 168
f 168 171 169
f 168 203 204
f 168 204 171
f 171 204 203
f 171 203 205
f 171 205 172
f 172 205 183
f 172 183 182
f 172 182 181
f 172 181 180
f 172 180 173
f 173 180 174
f 174 180 179
f 174 179 178
f 183 206 184
f 184 207 185
f 184 206 208
f 184 208 209
f 184 209 210
f 184 210 207
f 185 207 210
f 185 210 209
f 185 209 208
f 185 208 186
f 186 208 187
f 187 208 188
f 188 208 192
f 188 192 189
f 189 192 191
f 189 191 190
f 192 208 193
f 193 208 194
f 198 201 199
f 199 201 200

