# https://github.com/mikedh/trimesh
v -1.40738549 -10.79838477 6.34431002
v -1.40806253 -10.79838477 6.34336430
v -1.40881895 -10.80014556 6.34221543
v -1.40738549 -10.79945242 6.34412438
v -1.40738549 -10.79730593 6.34398778
v -1.40880308 -10.79838477 6.34220842
v -1.40865338 -10.79716059 6.34199826
v -1.41756035 -10.80300756 6.32511893
v -1.41555986 -10.80422056 6.32806817
v -1.40854111 -10.80168836 6.34179160
v -1.40738549 -10.80238709 6.34318566
v -1.40800469 -10.80082753 6.34301754
v -1.40738549 -10.80079958 6.34385818
v -1.40738549 -10.80076604 6.34387219
v -1.40738549 -10.76271601 6.32789304
v -1.40954249 -10.79838477 6.34074781
v -1.41806615 -10.80300756 6.32396305
v -1.41793460 -10.80442738 6.32364081
v -1.41750932 -10.80069896 6.32497532
v -1.41719745 -10.80524350 6.32447794
v -1.41595111 -10.80512052 6.32678970
v -1.40738549 -10.80319203 6.34264976
v -1.40738549 -10.74994323 6.32089822
v -1.41800718 -10.80069896 6.32381944
v -1.41840750 -10.80300756 6.32226426
v -1.41836214 -10.80069896 6.32226426
v -1.41804573 -10.80493047 6.32226426
v -1.41784160 -10.80646208 6.32092624
v -1.41768737 -10.80608197 6.32226426
v -1.41725189 -10.80703783 6.32226426
v -1.41703641 -10.80703783 6.32281068
v -1.41568461 -10.80670803 6.32596307
v -1.41628339 -10.80703783 6.32446043
v -1.40738549 -10.80579689 6.34074781
v -1.40738549 -10.74994323 6.30853383
v -1.41161103 -10.74994323 6.30853383
v -1.41897113 -10.80531617 6.30853383
v -1.41881690 -10.80689809 6.30853383
v -1.41880216 -10.80703783 6.30853383
v -1.41858215 -10.80069896 6.31995251
v -1.41162350 -10.75001031 6.30853383
v -1.41201589 -10.75218476 6.30853383
v -1.41242529 -10.75448218 6.30853383
v -1.41448249 -10.76603638 6.30853383
v -1.41765561 -10.80703783 6.32041135
v -1.41582296 -10.80703783 6.32535711
v -1.40738549 -10.80703783 6.33928720
v -1.40738549 -10.80703783 6.30853383
v -1.41879082 -10.80300756 6.30853383
f 1 2 3
f 1 3 4
f 1 4 14
f 1 14 13
f 1 13 11
f 1 11 22
f 1 22 34
f 1 34 47
f 1 47 48
f 1 48 35
f 1 35 23
f 1 23 15
f 1 15 5
f 1 5 2
f 2 6 3
f 2 5 7
f 2 7 6
f 3 6 8
f 3 8 9
f 3 9 10
f 3 10 11
f 3 11 12
f 3 12 13
f 3 13 14
f 3 14 4
f 5 15 7
f 6 16 8
f 6 7 16
f 7 15 16
f 8 17 18
f 8 18 9
f 8 16 19
f 8 19 17
f 9 18 20
f 9 20 21
f 9 21 10
f 10 21 22
f 10 22 11
f 11 13 12
f 15 23 24
f 15 24 19
f 15 19 16
f 17 25 18
f 17 19 24
f 17 24 26
f 17 26 25
f 18 25 27
f 18 27 28
f 18 28 29
f 18 29 30
f 18 30 31
f 18 31 20
f 20 32 21
f 20 31 33
f 20 33 32
f 21 32 34
f 21 34 22
f 23 35 36
f 23 36 24
f 24 36 26
f 25 37 38
f 25 38 39
f 25 39 27
f 25 26 40
f 25 40 37
f 26 36 41
f 26 41 42
f 26 42 43
f 26 43 44
f 26 44 40
f 27 39 28
f 28 39 45
f 28 45 30
f 28 30 29
f 30 45 39
f 30 39 48
f 30 48 47
f 30 47 46
f 30 46 33
f 30 33 31
f 32 33 46
f 32 46 34
f 34 46 47
f 35 48 39
f 35 39 38
f 35 38 37
f 35 37 49
f 35 49 44
f 35 44 43
f 35 43 42
f 35 42 41
f 35 41 36
f 37 40 49
f 40 44 49

