# https://github.com/mikedh/trimesh
v -1.47434187 -10.83873665 6.34712327
v -1.48163467 -10.83906410 6.36594404
v -1.47434187 -10.84035768 6.36617034
v -1.47434187 -10.83873665 6.34198210
v -1.48833804 -10.83873665 6.36090670
v -1.48391242 -10.83881784 6.36594404
v -1.48255376 -10.83883137 6.36502283
v -1.48140489 -10.83948899 6.36917890
v -1.47434187 -10.84061748 6.36917890
v -1.48327305 -10.83888550 6.36656172
v -1.47434187 -10.86295468 6.34198210
v -1.56621113 -10.83873665 6.34198210
v -1.48508126 -10.83881242 6.36617034
v -1.52452230 -10.83873665 6.36917890
v -1.48481153 -10.83882866 6.36735247
v -1.48384249 -10.83916424 6.36917890
v -1.47434187 -10.85964767 6.36917890
v -1.47434187 -10.86304670 6.34537404
v -1.47677946 -10.86339851 6.34198210
v -1.57111628 -10.84690946 6.34198210
v -1.57502243 -10.85032472 6.34646564
v -1.57524221 -10.84995938 6.34768504
v -1.57447297 -10.84880382 6.34768504
v -1.57473271 -10.84838977 6.34999604
v -1.56721014 -10.83873665 6.34896833
v -1.56449282 -10.83873665 6.36917890
v -1.48590045 -10.83913447 6.36917890
v -1.47435186 -10.86177477 6.36917890
v -1.47434187 -10.86177206 6.36899785
v -1.47434187 -10.86309812 6.34768504
v -1.47908718 -10.86371243 6.34198210
v -1.57234507 -10.84900679 6.34198210
v -1.57332410 -10.85147216 6.34198210
v -1.57522222 -10.85154252 6.34608225
v -1.57581164 -10.85154252 6.34768504
v -1.57263478 -10.84962110 6.34198210
v -1.57627119 -10.85154252 6.34999604
v -1.57551194 -10.84954532 6.34999604
v -1.57559186 -10.84946684 6.35230703
v -1.57477267 -10.84831129 6.35230703
v -1.56751984 -10.83873665 6.35230703
v -1.56743992 -10.83873665 6.35105036
v -1.56733002 -10.83873665 6.34999604
v -1.56465267 -10.83873665 6.36862245
v -1.57273468 -10.84800007 6.36756546
v -1.57250491 -10.84835459 6.36910701
v -1.57244497 -10.84831941 6.36917890
v -1.47462160 -10.86180995 6.36917890
v -1.47434187 -10.86293844 6.35230703
v -1.47434187 -10.86304670 6.34999604
v -1.47677946 -10.86338768 6.34768504
v -1.47908718 -10.86364207 6.34537404
v -1.51144522 -10.86581787 6.36154835
v -1.48140489 -10.86386938 6.34306305
v -1.48140489 -10.86388833 6.34198210
v -1.57374368 -10.85385093 6.34198210
v -1.57537207 -10.85385093 6.34563230
v -1.57597149 -10.85385093 6.34768504
v -1.57625121 -10.85385093 6.34999604
v -1.57640106 -10.85154252 6.35230703
v -1.57557189 -10.84951556 6.35461803
v -1.57472272 -10.84836000 6.35461803
v -1.56744990 -10.83873665 6.35461803
v -1.56588146 -10.83873665 6.36402442
v -1.57288454 -10.84784582 6.36617034
v -1.57438305 -10.84935319 6.36404306
v -1.57497247 -10.85042756 6.36493497
v -1.56600134 -10.83873665 6.36348394
v -1.56609124 -10.83873665 6.36307659
v -1.56642092 -10.83873665 6.36154835
v -1.57249492 -10.84838977 6.36917890
v -1.57319423 -10.84916916 6.36839348
v -1.57306436 -10.84951014 6.36917890
v -1.47634989 -10.86202644 6.36917890
v -1.47447174 -10.86295468 6.35230703
v -1.47677946 -10.86322801 6.35230703
v -1.47677946 -10.86333085 6.34999604
v -1.51837838 -10.86638347 6.34198210
v -1.51607065 -10.86634559 6.34198210
v -1.51144522 -10.86585034 6.35923736
v -1.47677946 -10.86307105 6.35461803
v -1.47839786 -10.86222942 6.36917890
v -1.47908718 -10.86228624 6.36917890
v -1.51837838 -10.86503306 6.36917890
v -1.52230449 -10.86529286 6.36917890
v -1.52461222 -10.86537405 6.36917890
v -1.52760926 -10.86583952 6.35923736
v -1.52760926 -10.86594777 6.35692636
v -1.52531153 -10.86595589 6.35692636
v -1.52760926 -10.86632393 6.34537404
v -1.57358385 -10.85464927 6.34198210
v -1.57521224 -10.85541243 6.34586127
v -1.57541204 -10.85571282 6.34768504
v -1.57626120 -10.85385093 6.35230703
v -1.57549196 -10.85579671 6.34999604
v -1.57634112 -10.85154252 6.35461803
v -1.57546199 -10.84965899 6.35692636
v -1.57461283 -10.84850342 6.35692636
v -1.56714021 -10.83873665 6.35700623
v -1.57436308 -10.84888501 6.36154835
v -1.56680054 -10.83873665 6.35926931
v -1.57510234 -10.85020294 6.36339342
v -1.57538207 -10.85133414 6.36404306
v -1.57516229 -10.85210271 6.36617034
v -1.57482262 -10.85094715 6.36617034
v -1.57361382 -10.85080643 6.36917890
v -1.52760926 -10.86622652 6.34306305
v -1.52760926 -10.86613992 6.34198210
v -1.52531153 -10.86532805 6.36917890
v -1.53454240 -10.86540382 6.35923736
v -1.53685013 -10.86535511 6.35692636
v -1.53916784 -10.86520356 6.35230703
v -1.53454240 -10.86561491 6.34768504
v -1.57323419 -10.85595097 6.34198210
v -1.57464280 -10.85686838 6.34768504
v -1.57448295 -10.85617288 6.34520365
v -1.57615131 -10.85385093 6.35461803
v -1.57545200 -10.85571553 6.35230703
v -1.57468276 -10.85695227 6.34999604
v -1.57571174 -10.85385093 6.36154835
v -1.57615131 -10.85154252 6.35692636
v -1.57520225 -10.85003786 6.36154835
v -1.57574171 -10.85154252 6.36154835
v -1.57500244 -10.85263313 6.36736312
v -1.57548197 -10.85385093 6.36385935
v -1.57433310 -10.85173466 6.36827367
v -1.57388355 -10.85174549 6.36917890
v -1.52991698 -10.86588824 6.34306305
v -1.56458274 -10.86117128 6.34999604
v -1.56458274 -10.86086547 6.34768504
v -1.52991698 -10.86574481 6.34198210
v -1.53454240 -10.86455136 6.36917890
v -1.53454240 -10.86522792 6.36154835
v -1.53685013 -10.86523604 6.35923736
v -1.53916784 -10.86502766 6.35692636
v -1.53916784 -10.86512237 6.35461803
v -1.56458274 -10.86130659 6.35230703
v -1.57252489 -10.85690627 6.34198210
v -1.57290451 -10.85751246 6.34371801
v -1.57323419 -10.85778849 6.34537404
v -1.57349393 -10.85798064 6.34768504
v -1.57538207 -10.85561810 6.35461803
v -1.57531214 -10.85552068 6.35692636
v -1.57517228 -10.85528794 6.36154835
v -1.57462282 -10.85687109 6.35230703
v -1.57352390 -10.85797523 6.34999604
v -1.57346397 -10.85796169 6.35230703
v -1.57339404 -10.85792651 6.35461803
v -1.57507237 -10.85514181 6.36385935
v -1.57500244 -10.85274680 6.36736312
v -1.57499245 -10.85501191 6.36502549
v -1.57512232 -10.85365068 6.36594404
v -1.57381362 -10.85297953 6.36917890
v -1.56690044 -10.86065709 6.35230703
v -1.57151589 -10.85899818 6.34768504
v -1.56975762 -10.85949071 6.34768504
v -1.56851885 -10.85969639 6.34632986
v -1.56920817 -10.85833515 6.34198210
v -1.53619078 -10.86435921 6.36917890
v -1.53916784 -10.86468937 6.36154835
v -1.53916784 -10.86490316 6.35923736
v -1.56458274 -10.86117940 6.35461803
v -1.56690044 -10.86063003 6.35461803
v -1.57240501 -10.85706593 6.34198210
v -1.57245496 -10.85712276 6.34217646
v -1.57224517 -10.85719312 6.34198210
v -1.57131609 -10.85774790 6.34198210
v -1.57151589 -10.85867613 6.34537404
v -1.57455289 -10.85677366 6.35461803
v -1.57444299 -10.85667623 6.35692636
v -1.57422321 -10.85644350 6.36154835
v -1.57151589 -10.85892241 6.35461803
v -1.57296445 -10.85755576 6.36385935
v -1.57151589 -10.85882498 6.35692636
v -1.57151589 -10.85871673 6.35923736
v -1.57151589 -10.85858413 6.36154835
v -1.57412331 -10.85629736 6.36385935
v -1.57472272 -10.85428664 6.36656438
v -1.57421322 -10.85365068 6.36827367
v -1.57375368 -10.85363985 6.36917890
v -1.57282460 -10.85743668 6.36537427
v -1.57377366 -10.85607816 6.36597066
v -1.57312430 -10.85553150 6.36848134
v -1.57294448 -10.85531230 6.36917890
v -1.56925812 -10.85928774 6.34548587
v -1.56602132 -10.85972615 6.36917890
v -1.56976762 -10.85947989 6.35923736
v -1.57151589 -10.85835951 6.36385935
v -1.57161579 -10.85786697 6.36615437
v -1.57245496 -10.85714712 6.36691583
v -1.57262479 -10.85560457 6.36917890
v -1.56711024 -10.85925527 6.36917890
v -1.56917820 -10.85944471 6.36169745
v -1.57091648 -10.85763695 6.36798080
v -1.56875861 -10.85840552 6.36917890
v -1.57121618 -10.85683861 6.36917890
v -1.57160580 -10.85650845 6.36917890
v -1.56925812 -10.85810242 6.36917890
f 1 2 3
f 1 3 9
f 1 9 17
f 1 17 29
f 1 29 49
f 1 49 50
f 1 50 30
f 1 30 18
f 1 18 11
f 1 11 4
f 1 4 12
f 1 12 25
f 1 25 43
f 1 43 42
f 1 42 41
f 1 41 63
f 1 63 99
f 1 99 101
f 1 101 70
f 1 70 69
f 1 69 68
f 1 68 64
f 1 64 44
f 1 44 26
f 1 26 14
f 1 14 5
f 1 5 6
f 1 6 7
f 1 7 2
f 2 8 9
f 2 9 3
f 2 7 10
f 2 10 8
f 4 11 19
f 4 19 31
f 4 31 55
f 4 55 79
f 4 79 78
f 4 78 108
f 4 108 131
f 4 131 158
f 4 158 167
f 4 167 166
f 4 166 164
f 4 164 138
f 4 138 114
f 4 114 91
f 4 91 56
f 4 56 33
f 4 33 36
f 4 36 32
f 4 32 20
f 4 20 12
f 5 13 6
f 5 14 13
f 6 13 15
f 6 15 7
f 7 15 10
f 8 10 16
f 8 16 27
f 8 27 14
f 8 14 26
f 8 26 47
f 8 47 71
f 8 71 73
f 8 73 106
f 8 106 127
f 8 127 153
f 8 153 180
f 8 180 184
f 8 184 191
f 8 191 197
f 8 197 196
f 8 196 198
f 8 198 195
f 8 195 192
f 8 192 186
f 8 186 159
f 8 159 132
f 8 132 109
f 8 109 86
f 8 86 85
f 8 85 84
f 8 84 83
f 8 83 82
f 8 82 74
f 8 74 48
f 8 48 28
f 8 28 17
f 8 17 9
f 10 15 16
f 11 18 19
f 12 20 21
f 12 21 22
f 12 22 23
f 12 23 24
f 12 24 25
f 13 14 15
f 14 27 15
f 15 27 16
f 17 28 29
f 18 30 19
f 19 30 31
f 20 32 21
f 21 33 34
f 21 34 35
f 21 35 22
f 21 32 36
f 21 36 33
f 22 35 37
f 22 37 38
f 22 38 23
f 23 38 24
f 24 38 39
f 24 39 40
f 24 40 41
f 24 41 42
f 24 42 43
f 24 43 25
f 26 44 45
f 26 45 46
f 26 46 47
f 28 48 49
f 28 49 29
f 30 50 51
f 30 51 31
f 31 51 52
f 31 52 53
f 31 53 54
f 31 54 55
f 33 56 34
f 34 57 35
f 34 56 57
f 35 57 58
f 35 58 37
f 37 59 60
f 37 60 38
f 37 58 59
f 38 60 39
f 39 60 61
f 39 61 40
f 40 61 62
f 40 62 63
f 40 63 41
f 44 64 45
f 45 65 66
f 45 66 67
f 45 67 46
f 45 64 68
f 45 68 69
f 45 69 70
f 45 70 65
f 46 71 47
f 46 67 72
f 46 72 73
f 46 73 71
f 48 74 49
f 49 74 75
f 49 75 50
f 50 75 76
f 50 76 77
f 50 77 51
f 51 77 52
f 52 77 53
f 53 78 79
f 53 79 80
f 53 80 55
f 53 55 54
f 53 77 76
f 53 76 81
f 53 81 82
f 53 82 83
f 53 83 84
f 53 84 85
f 53 85 86
f 53 86 87
f 53 87 88
f 53 88 89
f 53 89 90
f 53 90 78
f 55 80 79
f 56 91 92
f 56 92 57
f 57 92 58
f 58 92 93
f 58 93 59
f 59 94 60
f 59 93 95
f 59 95 94
f 60 96 61
f 60 94 96
f 61 97 98
f 61 98 62
f 61 96 97
f 62 98 63
f 63 98 100
f 63 100 99
f 65 70 101
f 65 101 66
f 66 100 102
f 66 102 67
f 66 101 99
f 66 99 100
f 67 102 103
f 67 103 104
f 67 104 105
f 67 105 72
f 72 105 73
f 73 105 106
f 74 82 81
f 74 81 75
f 75 81 76
f 78 90 107
f 78 107 108
f 86 109 110
f 86 110 87
f 87 110 88
f 88 90 89
f 88 110 111
f 88 111 90
f 90 111 112
f 90 112 113
f 90 113 107
f 91 114 92
f 92 115 93
f 92 114 116
f 92 116 115
f 93 115 95
f 94 117 96
f 94 95 118
f 94 118 117
f 95 119 118
f 95 115 119
f 96 117 120
f 96 120 121
f 96 121 97
f 97 121 122
f 97 122 100
f 97 100 98
f 100 122 102
f 102 122 121
f 102 121 123
f 102 123 103
f 103 123 104
f 104 124 105
f 104 123 125
f 104 125 124
f 105 124 126
f 105 126 106
f 106 126 127
f 107 113 108
f 108 113 128
f 108 128 129
f 108 129 130
f 108 130 131
f 109 132 133
f 109 133 134
f 109 134 110
f 110 134 111
f 111 134 135
f 111 135 136
f 111 136 112
f 112 136 137
f 112 137 129
f 112 129 113
f 113 129 128
f 114 138 139
f 114 139 116
f 115 116 140
f 115 140 141
f 115 141 119
f 116 139 140
f 117 118 142
f 117 142 143
f 117 143 144
f 117 144 120
f 118 119 145
f 118 145 169
f 118 169 142
f 119 141 146
f 119 146 147
f 119 147 148
f 119 148 145
f 120 125 123
f 120 123 121
f 120 144 149
f 120 149 125
f 124 125 150
f 124 150 127
f 124 127 126
f 125 149 151
f 125 151 152
f 125 152 150
f 127 150 153
f 129 137 154
f 129 154 155
f 129 155 156
f 129 156 157
f 129 157 130
f 130 157 158
f 130 158 131
f 132 159 134
f 132 134 133
f 134 159 160
f 134 160 161
f 134 161 135
f 135 161 137
f 135 137 136
f 137 161 162
f 137 162 163
f 137 163 154
f 138 164 139
f 139 164 165
f 139 165 166
f 139 166 167
f 139 167 168
f 139 168 140
f 140 168 141
f 141 168 155
f 141 155 146
f 142 169 143
f 143 169 144
f 144 169 170
f 144 170 171
f 144 171 177
f 144 177 149
f 145 148 169
f 146 155 172
f 146 172 147
f 147 172 148
f 148 173 169
f 148 172 174
f 148 174 175
f 148 175 176
f 148 176 173
f 149 177 151
f 150 152 151
f 150 151 178
f 150 178 179
f 150 179 180
f 150 180 153
f 151 177 181
f 151 181 182
f 151 182 183
f 151 183 184
f 151 184 178
f 154 163 172
f 154 172 155
f 155 168 157
f 155 157 156
f 157 168 185
f 157 185 158
f 158 185 168
f 158 168 167
f 159 186 160
f 160 186 161
f 161 186 162
f 162 186 163
f 163 186 187
f 163 187 172
f 164 166 165
f 169 173 170
f 170 173 171
f 171 173 177
f 172 187 174
f 173 176 188
f 173 188 181
f 173 181 177
f 174 187 175
f 175 187 176
f 176 187 188
f 178 184 179
f 179 184 180
f 181 188 189
f 181 189 190
f 181 190 182
f 182 190 183
f 183 190 184
f 184 190 191
f 186 192 188
f 186 188 193
f 186 193 187
f 187 193 188
f 188 192 189
f 189 194 190
f 189 192 195
f 189 195 194
f 190 194 196
f 190 196 197
f 190 197 191
f 194 198 196
f 194 195 198

