# https://github.com/mikedh/trimesh
v -1.45779350 -10.83873017 6.44373495
v -1.45779350 -10.83743947 6.44273689
v -1.46522075 -10.83792926 6.44429437
v -1.46522075 -10.83873665 6.44490465
v -1.45828137 -10.83873665 6.44374767
v -1.45779350 -10.83873665 6.40383166
v -1.46522075 -10.83743947 6.44391294
v -1.45779350 -10.83743947 6.39985214
v -1.46758982 -10.83743947 6.44419266
v -1.46758982 -10.83748493 6.44422444
v -1.46755080 -10.83873665 6.44509536
v -1.45779350 -10.83873665 6.39289751
v -1.45779350 -10.83791111 6.39621589
v -1.48601550 -10.83794793 6.38235114
v -1.48601550 -10.83783199 6.38465875
v -1.49766571 -10.83743947 6.38986519
v -1.46984571 -10.83743947 6.44427530
v -1.46984571 -10.83873665 6.44508265
v -1.47215624 -10.83743947 6.44432616
v -1.47446677 -10.83743947 6.44435794
v -1.48399379 -10.83873665 6.38061566
v -1.48414600 -10.83863341 6.38079366
v -1.45779350 -10.83849068 6.39361586
v -1.45779350 -10.83840153 6.39390828
v -1.48601550 -10.83853461 6.38057752
v -1.48832603 -10.83865741 6.38081273
v -1.48832603 -10.83822400 6.38235114
v -1.49766571 -10.83755465 6.38938205
v -1.49766571 -10.83743947 6.43915786
v -1.47446677 -10.83873665 6.44505086
v -1.47677729 -10.83743947 6.44432616
v -1.48507490 -10.83873665 6.38036774
v -1.48601550 -10.83873665 6.38015795
v -1.48832603 -10.83873665 6.38063473
v -1.48905977 -10.83873665 6.38098437
v -1.49766571 -10.83873500 6.38537074
v -1.49766571 -10.83823022 6.38706172
v -1.49766571 -10.83757992 6.38928670
v -1.49766571 -10.83873665 6.43985078
v -1.49286122 -10.83873665 6.44222197
v -1.49259191 -10.83743947 6.44161805
v -1.47677729 -10.83873665 6.44494915
v -1.47908392 -10.83743947 6.44424351
v -1.48139444 -10.83743947 6.44415452
v -1.49757204 -10.83873665 6.38539618
v -1.49766571 -10.83873665 6.38551696
v -1.49165521 -10.83873665 6.44271146
v -1.49244751 -10.83743947 6.44168162
v -1.48136322 -10.83873665 6.44471394
v -1.48358008 -10.83743947 6.44397016
v -1.49064046 -10.83873665 6.44304838
v -1.49061704 -10.83743947 6.44240632
v -1.48371278 -10.83873665 6.44450415
v -1.48378303 -10.83743947 6.44394474
v -1.48485243 -10.83873665 6.44438337
v -1.48984036 -10.83873665 6.44327724
v -1.48842360 -10.83743947 6.44305475
v -1.49040238 -10.83743947 6.44247625
v -1.48531688 -10.83743947 6.44372859
v -1.48601550 -10.83873665 6.44419266
v -1.48914564 -10.83873665 6.44347431
v -1.48785377 -10.83873665 6.44381123
v -1.48814259 -10.83743947 6.44312467
v -1.48601550 -10.83743947 6.44359509
v -1.48690146 -10.83873665 6.44402102
v -1.48654239 -10.83743947 6.44348703
f 1 2 3
f 1 3 4
f 1 4 5
f 1 5 6
f 1 6 12
f 1 12 23
f 1 23 24
f 1 24 13
f 1 13 8
f 1 8 2
f 2 7 3
f 2 8 16
f 2 16 29
f 2 29 41
f 2 41 48
f 2 48 52
f 2 52 58
f 2 58 57
f 2 57 63
f 2 63 66
f 2 66 64
f 2 64 59
f 2 59 54
f 2 54 50
f 2 50 44
f 2 44 43
f 2 43 31
f 2 31 20
f 2 20 19
f 2 19 17
f 2 17 9
f 2 9 7
f 3 9 4
f 3 7 9
f 4 9 10
f 4 10 11
f 4 11 18
f 4 18 30
f 4 30 42
f 4 42 49
f 4 49 53
f 4 53 55
f 4 55 60
f 4 60 65
f 4 65 62
f 4 62 61
f 4 61 56
f 4 56 51
f 4 51 47
f 4 47 40
f 4 40 39
f 4 39 46
f 4 46 45
f 4 45 35
f 4 35 34
f 4 34 33
f 4 33 32
f 4 32 21
f 4 21 12
f 4 12 6
f 4 6 5
f 8 13 14
f 8 14 15
f 8 15 16
f 9 17 10
f 10 17 11
f 11 17 19
f 11 19 20
f 11 20 18
f 12 21 22
f 12 22 23
f 13 24 14
f 14 24 22
f 14 22 25
f 14 25 26
f 14 26 27
f 14 27 28
f 14 28 16
f 14 16 15
f 16 28 38
f 16 38 37
f 16 37 36
f 16 36 46
f 16 46 39
f 16 39 29
f 18 20 30
f 20 31 30
f 21 32 22
f 22 32 25
f 22 24 23
f 25 32 33
f 25 33 34
f 25 34 26
f 26 34 35
f 26 35 36
f 26 36 37
f 26 37 38
f 26 38 27
f 27 38 28
f 29 39 40
f 29 40 41
f 30 31 43
f 30 43 44
f 30 44 42
f 35 45 36
f 36 45 46
f 40 47 48
f 40 48 41
f 42 44 49
f 44 50 49
f 47 51 52
f 47 52 48
f 49 50 53
f 50 54 55
f 50 55 53
f 51 56 57
f 51 57 58
f 51 58 52
f 54 59 55
f 55 59 60
f 56 61 57
f 57 61 62
f 57 62 63
f 59 64 60
f 60 64 65
f 62 65 66
f 62 66 63
f 64 66 65

