# https://github.com/mikedh/trimesh
v -1.52548837 -10.70992994 6.39282534
v -1.52516250 -10.71057219 6.39282534
v -1.54259003 -10.70992994 6.36942902
v -1.55020913 -10.70992994 6.39282534
v -1.52452910 -10.71197027 6.39282534
v -1.54219531 -10.71083849 6.36942902
v -1.56113749 -10.70992994 6.36942902
v -1.52441435 -10.71222873 6.39282534
v -1.52383145 -10.71356024 6.39282534
v -1.55038813 -10.70992994 6.39253446
v -1.54767096 -10.74993373 6.38643973
v -1.54687692 -10.74993373 6.38759638
v -1.54572028 -10.74993373 6.38910804
v -1.54483904 -10.74993373 6.39022346
v -1.54373749 -10.74993373 6.39159082
v -1.54273232 -10.74993373 6.39282534
v -1.54140586 -10.71275350 6.36942902
v -1.52314298 -10.71519720 6.39282534
v -1.55567101 -10.74993373 6.36942902
v -1.56090340 -10.70992994 6.37017111
v -1.55253617 -10.70992994 6.38898436
v -1.55364231 -10.70992994 6.38707417
v -1.54869449 -10.74993373 6.38465781
v -1.51424791 -10.74993373 6.39282534
v -1.54064854 -10.71484083 6.36942902
v -1.52176144 -10.71858078 6.39282534
v -1.52125656 -10.71981829 6.39282534
v -1.55519367 -10.74993373 6.37079409
v -1.55985692 -10.70992994 6.37324023
v -1.56067391 -10.70992994 6.37088342
v -1.53455785 -10.74993373 6.36942902
v -1.55464289 -10.70992994 6.38520979
v -1.54872203 -10.74993373 6.38460742
v -1.53503520 -10.74292376 6.36942902
v -1.51456920 -10.74567684 6.39282534
v -1.53966173 -10.71763698 6.36942902
v -1.51895706 -10.72674994 6.39282534
v -1.55448225 -10.74993373 6.37261266
v -1.55915468 -10.70992994 6.37505880
v -1.55950351 -10.70992994 6.37415867
v -1.55493664 -10.70992994 6.38464407
v -1.55008061 -10.74993373 6.38202845
v -1.54943804 -10.74993373 6.38325380
v -1.53601741 -10.73368158 6.36942902
v -1.51472525 -10.74410645 6.39282534
v -1.51461051 -10.74523431 6.39282534
v -1.53941388 -10.71844763 6.36942902
v -1.51819975 -10.72906048 6.39282534
v -1.55326595 -10.74993373 6.37535884
v -1.55630899 -10.70992994 6.38169634
v -1.55707550 -10.70992994 6.37996252
v -1.55802559 -10.70992994 6.37779581
v -1.55859014 -10.70992994 6.37647426
v -1.55597394 -10.70992994 6.38243614
v -1.55179720 -10.74993373 6.37862951
v -1.55177885 -10.74993373 6.37866845
v -1.55112251 -10.74993373 6.37999229
v -1.55109955 -10.74993373 6.38003810
v -1.53627903 -10.73136711 6.36942902
v -1.51477115 -10.74385190 6.39282534
v -1.53904210 -10.71975563 6.36942902
v -1.51752963 -10.73136711 6.39282534
v -1.55230209 -10.74993373 6.37751409
v -1.53680227 -10.72908006 6.36942902
v -1.51685034 -10.73401054 6.39282534
v -1.51731850 -10.73212294 6.39282534
v -1.51716245 -10.73270645 6.39282534
f 1 2 3
f 1 3 7
f 1 7 20
f 1 20 30
f 1 30 29
f 1 29 40
f 1 40 39
f 1 39 53
f 1 53 52
f 1 52 51
f 1 51 50
f 1 50 54
f 1 54 41
f 1 41 32
f 1 32 22
f 1 22 21
f 1 21 10
f 1 10 4
f 1 4 16
f 1 16 24
f 1 24 35
f 1 35 46
f 1 46 45
f 1 45 60
f 1 60 65
f 1 65 67
f 1 67 66
f 1 66 62
f 1 62 48
f 1 48 37
f 1 37 27
f 1 27 26
f 1 26 18
f 1 18 9
f 1 9 8
f 1 8 5
f 1 5 2
f 2 5 3
f 3 6 17
f 3 17 25
f 3 25 36
f 3 36 47
f 3 47 61
f 3 61 64
f 3 64 59
f 3 59 44
f 3 44 34
f 3 34 31
f 3 31 19
f 3 19 7
f 3 5 8
f 3 8 9
f 3 9 6
f 4 10 11
f 4 11 12
f 4 12 13
f 4 13 14
f 4 14 15
f 4 15 16
f 6 9 18
f 6 18 17
f 7 19 20
f 10 21 11
f 11 21 22
f 11 22 23
f 11 23 33
f 11 33 43
f 11 43 42
f 11 42 58
f 11 58 57
f 11 57 56
f 11 56 55
f 11 55 63
f 11 63 49
f 11 49 38
f 11 38 28
f 11 28 19
f 11 19 31
f 11 31 24
f 11 24 16
f 11 16 15
f 11 15 14
f 11 14 13
f 11 13 12
f 17 18 26
f 17 26 27
f 17 27 25
f 19 28 29
f 19 29 30
f 19 30 20
f 22 32 33
f 22 33 23
f 24 31 34
f 24 34 35
f 25 27 36
f 27 37 36
f 28 38 39
f 28 39 40
f 28 40 29
f 32 41 42
f 32 42 43
f 32 43 33
f 34 44 45
f 34 45 46
f 34 46 35
f 36 37 48
f 36 48 47
f 38 49 50
f 38 50 51
f 38 51 52
f 38 52 53
f 38 53 39
f 41 54 55
f 41 55 56
f 41 56 57
f 41 57 58
f 41 58 42
f 44 59 45
f 45 59 60
f 47 48 62
f 47 62 61
f 49 63 50
f 50 63 55
f 50 55 54
f 59 64 65
f 59 65 60
f 61 62 66
f 61 66 67
f 61 67 64
f 64 67 65

