# https://github.com/mikedh/trimesh
v -1.52553816 -10.83100078 6.42175682
v -1.52553816 -10.81456644 6.41956147
v -1.52716909 -10.81456644 6.41859766
v -1.52854853 -10.81687635 6.41803161
v -1.52992796 -10.81687635 6.41714429
v -1.53146363 -10.81687635 6.41611929
v -1.52683757 -10.83100078 6.42079301
v -1.52553816 -10.83100078 6.37997631
v -1.52553816 -10.81215570 6.41895718
v -1.52683376 -10.81279825 6.41841408
v -1.52832370 -10.81456644 6.41785568
v -1.53131883 -10.81520665 6.41601219
v -1.53262205 -10.81687635 6.41521667
v -1.52815984 -10.83100078 6.41965326
v -1.52553816 -10.82380841 6.37854589
v -1.52576679 -10.83100078 6.37310724
v -1.52571345 -10.82843057 6.37310724
v -1.52553816 -10.81204548 6.41891128
v -1.52634219 -10.81125753 6.41807751
v -1.53309456 -10.81155301 6.41335023
v -1.53354802 -10.81309373 6.41367151
v -1.53096825 -10.81366593 6.41576742
v -1.53214954 -10.81448906 6.41516313
v -1.53376141 -10.81456644 6.41389334
v -1.53389479 -10.81687635 6.41406162
v -1.52949736 -10.83100078 6.41849057
v -1.52553816 -10.82149616 6.37811753
v -1.52609832 -10.83100078 6.37099603
v -1.52574774 -10.82611832 6.37310724
v -1.52553816 -10.80955500 6.37907369
v -1.52553816 -10.81214163 6.37857649
v -1.52553816 -10.81456644 6.37813283
v -1.52553816 -10.81687635 6.37790335
v -1.52553816 -10.81919798 6.37788040
v -1.52553816 -10.82122882 6.37808693
v -1.52553816 -10.81096205 6.41834524
v -1.53272112 -10.80704576 6.41089481
v -1.53431395 -10.80704576 6.40980096
v -1.53816646 -10.80704576 6.40673359
v -1.53875329 -10.80704576 6.40621344
v -1.53584581 -10.81298820 6.41139966
v -1.54058619 -10.80704576 6.40457648
v -1.53491984 -10.81456644 6.41270770
v -1.53597156 -10.81456644 6.41155265
v -1.53504940 -10.81687635 6.41275359
v -1.53762535 -10.83100078 6.41005338
v -1.53743483 -10.83100078 6.41026757
v -1.53613922 -10.83100078 6.41171328
v -1.53508369 -10.83100078 6.41286833
v -1.53411961 -10.83100078 6.41390098
v -1.53392908 -10.83100078 6.41409987
v -1.53294214 -10.83100078 6.41512487
v -1.53281639 -10.83100078 6.41525491
v -1.53185612 -10.83100078 6.41622638
v -1.53060624 -10.83100078 6.41744262
v -1.52617072 -10.82611832 6.37143204
v -1.53665746 -10.83100078 6.34361151
v -1.52626979 -10.82380841 6.37161562
v -1.52638411 -10.82149616 6.37181450
v -1.52553816 -10.80732483 6.37970094
v -1.52553816 -10.80704576 6.41516313
v -1.54066239 -10.80763438 6.40466062
v -1.54182082 -10.80763438 6.40334495
v -1.54280395 -10.80763438 6.40218990
v -1.54126447 -10.80704576 6.40379625
v -1.54155026 -10.83100078 6.40549440
v -1.54297543 -10.80994429 6.40239643
v -1.55185410 -10.82524126 6.39272006
v -1.55191127 -10.82678197 6.39278125
v -1.54113872 -10.83100078 6.40598395
v -1.54046806 -10.83100078 6.40677183
v -1.53941633 -10.83100078 6.40799572
v -1.56413183 -10.83100078 6.34361151
v -1.53843701 -10.80763438 6.34361151
v -1.52644889 -10.82028141 6.37192924
v -1.52553816 -10.80704576 6.37986157
v -1.52828179 -10.80994429 6.37093483
v -1.53849417 -10.80704576 6.34361151
v -1.54272774 -10.80704576 6.40209810
v -1.54312404 -10.80704576 6.40141732
v -1.55260860 -10.82380841 6.39132788
v -1.54259437 -10.83100078 6.40422462
v -1.55252477 -10.82605500 6.39180214
v -1.55191127 -10.82737997 6.39278125
v -1.56434522 -10.83100078 6.34511842
v -1.56248566 -10.80704576 6.34361151
v -1.53847892 -10.80718412 6.34361151
v -1.54358512 -10.80763438 6.40082832
v -1.55381656 -10.82380137 6.38915548
v -1.54687366 -10.80704576 6.39418107
v -1.54694606 -10.80763438 6.39435701
v -1.55150353 -10.83100078 6.39186333
v -1.55424335 -10.82456822 6.38830641
v -1.55424335 -10.82513573 6.38830641
v -1.55377083 -10.82599168 6.38915548
v -1.55220849 -10.83100078 6.39064709
v -1.56437952 -10.83100078 6.34537850
v -1.56446335 -10.83100078 6.34768859
v -1.56432998 -10.83100078 6.34999868
v -1.56400989 -10.83100078 6.35430524
v -1.56397560 -10.83100078 6.35472595
v -1.56248185 -10.80704576 6.34365740
v -1.54959443 -10.80704576 6.38816872
v -1.54984211 -10.80704576 6.38758737
v -1.55413284 -10.82302750 6.38788569
v -1.56115957 -10.83100078 6.36968035
v -1.56077851 -10.83100078 6.37057531
v -1.56345736 -10.83100078 6.35839762
v -1.56112527 -10.80878347 6.35578156
v -1.56198266 -10.80704576 6.34768859
v -1.56220368 -10.80704576 6.34596750
v -1.55746711 -10.80704576 6.36848705
v -1.55804632 -10.80704576 6.36676596
v -1.55823304 -10.80704576 6.36617696
v -1.56011547 -10.80994429 6.36154913
v -1.56140345 -10.83100078 6.36886187
v -1.56301533 -10.83100078 6.36146499
v -1.56103763 -10.80994429 6.35738026
v -1.56099190 -10.80704576 6.35502427
v -1.56115195 -10.80704576 6.35396867
v -1.55956674 -10.80704576 6.36157973
v -1.55970393 -10.80763438 6.36154913
v -1.56033648 -10.80763438 6.35923904
v -1.56070992 -10.80994429 6.35923904
v -1.56153301 -10.83100078 6.36835701
v -1.56264951 -10.83100078 6.36353795
v -1.56083948 -10.80786185 6.35670712
v -1.56069087 -10.80704576 6.35677596
v -1.56004307 -10.80704576 6.35985099
v -1.56021073 -10.80704576 6.35923904
v -1.56257330 -10.83100078 6.36388982
f 1 2 3
f 1 3 4
f 1 4 5
f 1 5 6
f 1 6 7
f 1 7 14
f 1 14 26
f 1 26 55
f 1 55 54
f 1 54 53
f 1 53 52
f 1 52 51
f 1 51 50
f 1 50 49
f 1 49 48
f 1 48 47
f 1 47 46
f 1 46 72
f 1 72 71
f 1 71 70
f 1 70 66
f 1 66 82
f 1 82 92
f 1 92 96
f 1 96 107
f 1 107 106
f 1 106 116
f 1 116 125
f 1 125 131
f 1 131 126
f 1 126 117
f 1 117 108
f 1 108 101
f 1 101 100
f 1 100 99
f 1 99 98
f 1 98 97
f 1 97 85
f 1 85 73
f 1 73 57
f 1 57 28
f 1 28 16
f 1 16 8
f 1 8 15
f 1 15 27
f 1 27 35
f 1 35 34
f 1 34 33
f 1 33 32
f 1 32 31
f 1 31 30
f 1 30 60
f 1 60 76
f 1 76 61
f 1 61 36
f 1 36 18
f 1 18 9
f 1 9 2
f 2 9 10
f 2 10 3
f 3 10 11
f 3 11 4
f 4 11 5
f 5 11 12
f 5 12 6
f 6 12 13
f 6 13 7
f 7 13 14
f 8 16 17
f 8 17 15
f 9 18 10
f 10 12 11
f 10 18 19
f 10 19 20
f 10 20 21
f 10 21 22
f 10 22 12
f 12 22 23
f 12 23 24
f 12 24 13
f 13 24 25
f 13 25 26
f 13 26 14
f 15 17 27
f 16 28 17
f 17 28 29
f 17 29 30
f 17 30 31
f 17 31 32
f 17 32 33
f 17 33 34
f 17 34 35
f 17 35 27
f 18 36 19
f 19 36 37
f 19 37 38
f 19 38 20
f 20 38 39
f 20 39 40
f 20 40 21
f 21 41 24
f 21 24 23
f 21 23 22
f 21 40 42
f 21 42 41
f 24 41 43
f 24 43 25
f 25 43 44
f 25 44 45
f 25 45 46
f 25 46 47
f 25 47 48
f 25 48 49
f 25 49 50
f 25 50 51
f 25 51 52
f 25 52 53
f 25 53 54
f 25 54 55
f 25 55 26
f 28 56 29
f 28 57 56
f 29 56 58
f 29 58 59
f 29 59 60
f 29 60 30
f 36 61 37
f 37 61 76
f 37 76 78
f 37 78 86
f 37 86 102
f 37 102 111
f 37 111 110
f 37 110 120
f 37 120 119
f 37 119 128
f 37 128 130
f 37 130 129
f 37 129 121
f 37 121 114
f 37 114 113
f 37 113 112
f 37 112 104
f 37 104 103
f 37 103 90
f 37 90 80
f 37 80 79
f 37 79 65
f 37 65 42
f 37 42 40
f 37 40 39
f 37 39 38
f 41 44 43
f 41 42 62
f 41 62 63
f 41 63 64
f 41 64 44
f 42 65 63
f 42 63 62
f 44 66 45
f 44 64 67
f 44 67 68
f 44 68 69
f 44 69 66
f 45 66 70
f 45 70 71
f 45 71 72
f 45 72 46
f 56 57 58
f 57 73 86
f 57 86 78
f 57 78 87
f 57 87 74
f 57 74 58
f 58 74 59
f 59 75 60
f 59 74 75
f 60 75 77
f 60 77 78
f 60 78 76
f 63 65 79
f 63 79 64
f 64 79 80
f 64 80 81
f 64 81 68
f 64 68 67
f 66 69 82
f 68 81 83
f 68 83 69
f 69 83 84
f 69 84 82
f 73 85 86
f 74 87 75
f 75 87 78
f 75 78 77
f 80 88 89
f 80 89 81
f 80 90 91
f 80 91 88
f 81 89 83
f 82 84 92
f 83 89 93
f 83 93 94
f 83 94 95
f 83 95 84
f 84 95 96
f 84 96 92
f 85 97 86
f 86 97 98
f 86 98 99
f 86 99 100
f 86 100 101
f 86 101 102
f 88 91 89
f 89 91 90
f 89 90 103
f 89 103 104
f 89 104 105
f 89 105 93
f 93 105 106
f 93 106 94
f 94 106 95
f 95 106 107
f 95 107 96
f 101 108 109
f 101 109 110
f 101 110 111
f 101 111 102
f 104 112 105
f 105 112 113
f 105 113 114
f 105 114 106
f 106 114 115
f 106 115 116
f 108 117 118
f 108 118 109
f 109 119 120
f 109 120 110
f 109 118 119
f 114 121 122
f 114 122 115
f 115 122 123
f 115 123 124
f 115 124 116
f 116 124 125
f 117 126 124
f 117 124 118
f 118 124 127
f 118 127 119
f 119 127 128
f 121 129 122
f 122 129 130
f 122 130 123
f 123 130 128
f 123 128 127
f 123 127 124
f 124 126 131
f 124 131 125

