# https://github.com/mikedh/trimesh
v -177.57942356 101.25864644 906.54033097
v -200.07889458 108.36065746 895.49978640
v -200.07889458 111.56202153 860.66606836
v -200.07889458 112.30172855 854.76177670
v -200.07889458 113.58712613 850.74558057
v -200.06423819 113.59116502 850.74558057
v -194.95571734 120.31321209 845.64132789
v -188.49224718 125.59626926 850.95359203
v -177.15463503 137.88028592 857.43390999
v -172.15597541 142.55297744 862.20214586
v -170.21144571 142.55297744 866.58636125
v -169.63650409 142.55297744 872.50665413
v -165.06997002 142.55297744 919.82098580
v -162.67134781 142.55297744 949.40644348
v -177.57942356 101.25864644 1009.10538808
v -200.07889458 101.25864644 972.89560036
v -200.07889458 103.41310123 949.40644348
v -200.07889458 117.82731290 850.10554938
v -195.80898056 120.31321209 845.64132789
v -194.95571734 121.17419151 845.64132789
v -177.15463503 138.95548505 857.43390999
v -174.73770555 142.55297744 861.70612125
v -162.70796235 142.55297744 953.80666229
v -164.46573324 142.55297744 959.07092056
v -164.49868809 142.55297744 959.15092446
v -164.53531144 142.55297744 959.18292690
v -167.04745457 142.55297744 959.90296199
v -170.98779371 138.80997051 964.52719127
v -172.17428268 138.80997051 964.52719127
v -189.64944981 120.91953004 976.36777263
v -200.07889458 109.22566696 982.14405893
v -200.07889458 104.31044826 987.58432843
v -200.07889458 103.06143593 988.51237276
v -200.07889458 101.25864644 988.73638544
v -195.80898056 121.17419151 845.64132789
v -200.07889458 121.33183154 851.09759860
v -180.45777374 138.89889655 857.38590633
v -179.01860747 142.55297744 862.44215535
v -167.93000411 142.55297744 959.90296199
v -171.10131464 142.55297744 956.57479849
v -172.91401615 139.63456469 961.24702704
v -189.96804562 121.27119533 973.08761059
v -200.07889458 109.87645675 980.95999948
v -171.37596772 142.55297744 955.31073514
v -197.56307413 122.87995955 849.65752403
v -195.37318650 126.66339061 851.51362152
v -192.28977025 127.87602651 850.95359203
v -183.53753911 138.49468165 857.56191535
v -200.07889458 121.71178667 852.98568972
v -179.13211957 142.55297744 865.99433372
v -184.49699505 127.66179799 967.16732212
v -192.93063038 118.21535463 973.08761059
v -195.77234839 115.26056544 973.08761059
v -200.07889458 110.49085247 975.58373487
v -171.73483775 142.55297744 951.32653924
v -173.48162958 140.37427170 955.31073514
v -178.99296318 134.02814088 961.24702704
v -195.37318650 126.66339061 853.20969799
v -183.53753911 138.49468165 859.41800843
v -200.07889458 119.94134355 872.50665413
v -177.58309207 142.55297744 884.33123426
v -189.38212492 132.51234160 858.31395508
v -174.38249521 142.55297744 921.29305841
v -200.07889458 112.22896687 956.67080141
v -173.99430357 142.55297744 925.74127758
v -178.14338612 135.10334001 959.27893202
v -200.07889458 117.77476329 896.18782124
v -177.07773745 142.55297744 890.25152714
v -184.14910409 135.10334001 890.26752836
v -176.97519560 142.55297744 891.45158782
f 1 2 3
f 1 3 4
f 1 4 5
f 1 5 6
f 1 6 7
f 1 7 8
f 1 8 9
f 1 9 10
f 1 10 11
f 1 11 12
f 1 12 13
f 1 13 14
f 1 14 15
f 1 15 34
f 1 34 16
f 1 16 17
f 1 17 2
f 2 17 16
f 2 16 34
f 2 34 33
f 2 33 32
f 2 32 31
f 2 31 43
f 2 43 54
f 2 54 64
f 2 64 67
f 2 67 60
f 2 60 49
f 2 49 36
f 2 36 18
f 2 18 5
f 2 5 4
f 2 4 3
f 5 18 19
f 5 19 7
f 5 7 6
f 7 19 35
f 7 35 20
f 7 20 21
f 7 21 9
f 7 9 8
f 9 21 10
f 10 22 38
f 10 38 50
f 10 50 61
f 10 61 68
f 10 68 70
f 10 70 63
f 10 63 65
f 10 65 55
f 10 55 44
f 10 44 40
f 10 40 39
f 10 39 27
f 10 27 26
f 10 26 25
f 10 25 24
f 10 24 23
f 10 23 14
f 10 14 13
f 10 13 12
f 10 12 11
f 10 21 22
f 14 23 15
f 15 23 24
f 15 24 25
f 15 25 26
f 15 26 27
f 15 27 28
f 15 28 29
f 15 29 30
f 15 30 31
f 15 31 32
f 15 32 33
f 15 33 34
f 18 35 19
f 18 36 35
f 20 35 37
f 20 37 21
f 21 37 22
f 22 37 38
f 27 39 29
f 27 29 28
f 29 39 40
f 29 40 41
f 29 41 30
f 30 42 43
f 30 43 31
f 30 41 40
f 30 40 44
f 30 44 42
f 35 36 45
f 35 45 46
f 35 46 47
f 35 47 48
f 35 48 37
f 36 49 46
f 36 46 45
f 37 48 38
f 38 48 50
f 42 44 51
f 42 51 43
f 43 51 52
f 43 52 53
f 43 53 54
f 44 55 56
f 44 56 57
f 44 57 51
f 46 49 58
f 46 58 59
f 46 59 48
f 46 48 47
f 48 59 50
f 49 60 58
f 50 59 62
f 50 62 61
f 51 53 52
f 51 57 53
f 53 57 63
f 53 63 64
f 53 64 54
f 55 65 56
f 56 65 66
f 56 66 57
f 57 66 65
f 57 65 63
f 58 60 62
f 58 62 59
f 60 67 62
f 61 62 68
f 62 67 69
f 62 69 70
f 62 70 68
f 63 70 69
f 63 69 67
f 63 67 64

