# https://github.com/mikedh/trimesh
v -88.14535210 106.97867935 766.86588596
v -102.20341867 106.97867935 779.07653247
v -85.06224010 109.40982430 766.86588596
v -74.50143010 106.97867935 766.86588596
v -104.32018306 106.97867935 780.96856547
v -104.89539806 107.65476069 782.26497739
v -100.96097615 109.05514307 780.42548519
v -84.60207603 110.18692188 767.33889421
v -84.32597671 109.97686452 766.86588596
v -41.27744633 118.70511808 766.86588596
v 8.09836528 106.97867935 767.05860609
v -106.34491728 106.97867935 782.80805767
v -108.34663515 106.97867935 784.78768512
v -106.89711592 109.09187224 786.22423228
v -81.91010546 114.13208476 769.87914199
v -80.64464658 112.63184136 766.86588596
v -83.31360960 110.72411138 766.86588596
v 56.25473307 118.70511808 788.60679595
v 57.47417688 118.69823081 788.86957929
v 57.47417688 117.99689321 788.09875169
v 57.47417688 115.68512469 785.62859357
v 57.47417688 109.95276348 779.51451352
v 57.47417688 108.94609314 778.44586656
v 57.47417688 107.17725499 776.57134716
v 57.47417688 106.97867935 776.36111343
v 56.78392417 106.97867935 776.22096937
v 46.79832477 106.97867935 774.22381950
v 38.60736653 106.97867935 772.59456103
v 27.14924037 106.97867935 770.31710541
v 14.63272319 106.97867935 767.82943369
v 12.14782490 106.97867935 767.46152467
v 8.97268273 106.97867935 767.11116452
v -67.41487356 118.70511808 766.86588596
v -133.14958527 106.97867935 818.75675522
v -101.05300631 115.00559532 791.97042095
v -99.30438023 114.06091923 788.01115724
v -87.70819117 114.14471289 775.92315001
v -138.80962573 106.97867935 826.51760734
v -130.25053801 114.80472687 827.93664091
v -132.43633384 118.70511808 837.57201244
v -131.37795164 118.70511808 836.13546528
v -127.25946058 118.70511808 831.00243774
v -83.75076612 115.19269804 773.82088329
v -77.95267601 115.26271716 768.00462259
v -79.03406574 113.67638728 766.86588596
v 56.34677206 118.70511808 788.64183197
v 57.47417688 118.70511808 789.07981302
v 57.47417688 106.97867935 945.83856812
v -67.78300745 118.57656157 766.86588596
v -67.92105711 118.70511808 767.12867812
v -97.27964601 118.67068172 795.80704538
v -97.44070321 115.88944119 789.85064063
v -95.36995831 115.07332162 785.90889933
v -89.57186378 115.13185901 779.86489131
v -136.25570923 118.70511808 843.00285934
v -134.06991340 118.70511808 839.88450408
v -132.89649349 118.70511808 838.22020959
v -145.11390381 106.97867935 835.53982656
v -97.23363092 118.70511808 795.84209022
v -80.48358497 118.70511808 777.78013818
v -79.81634862 118.70511808 777.07938260
v -74.80053697 118.70511808 771.84124702
v -79.88537124 116.18787784 771.87629185
v -73.97223901 118.70511808 771.14049144
v -75.42176264 115.63691380 766.86588596
v -77.14738559 114.87244435 766.86588596
v 57.47417688 118.70511808 945.83856812
v -177.57861226 106.97867935 945.83856812
v -73.55809003 116.38990152 766.86588596
v -91.82668224 118.70511808 789.81559579
v -139.06271751 118.70511808 847.48768973
v -145.87317914 106.97867935 836.64350954
v -142.28387917 114.98723514 845.38542300
v -171.78051773 118.70511808 945.83856812
v -177.57861226 112.03840728 945.83856812
v -177.57861226 106.97867935 928.86278987
v -139.54589352 118.70511808 848.31107577
v -149.62353191 106.97867935 842.49480625
v -150.15272301 106.97867935 843.35323712
v -155.23755728 118.70511808 877.58509056
v -171.75750137 118.70511808 945.57578478
v -177.57861226 111.57582253 943.49104047
v -171.52742595 118.70511808 943.49104047
v -173.25305331 116.67571886 943.49104047
v -177.57861226 110.74822124 940.81065745
v -176.08306031 106.97867935 921.73261688
v -150.35979088 106.97867935 843.77368694
v -152.77566213 106.97867935 848.81912003
v -162.09402519 106.97867935 868.31761042
v -155.92780117 118.70511808 879.14426819
v -173.20703823 106.97867935 908.36572455
v -170.56108274 118.70511808 938.18282404
v -170.44603621 118.70511808 937.56966291
v -169.15757860 118.70511808 931.64829417
v -166.81072998 118.70511808 920.97930287
v -165.24616423 118.70511808 913.90168390
v -163.93469026 118.70511808 907.98031075
v -167.04081421 116.48058245 913.90168390
v -163.63558339 106.97867935 872.27687413
v -159.17197038 114.10108763 876.91937100
v -156.27292312 118.70511808 880.09028469
v -171.73450264 106.97867935 902.05893319
v -159.37904708 118.70511808 890.23370490
v -161.15068952 116.51731162 890.23370490
v -167.84610463 106.97867935 886.44963008
v -169.04253207 106.97867935 891.12716737
v -170.40002113 106.97867935 896.61056829
v -163.70460602 106.97867935 872.46958103
v -159.88523063 114.89770062 880.87863471
v -157.74545870 118.70511808 884.31233174
v -160.36840664 115.51524455 884.31233174
v -167.54699777 106.97867935 885.29338426
v -157.83748887 118.70511808 884.59262868
v -165.63730126 106.97867935 878.39095418
f 1 2 3
f 1 3 9
f 1 9 17
f 1 17 16
f 1 16 45
f 1 45 66
f 1 66 65
f 1 65 69
f 1 69 49
f 1 49 33
f 1 33 10
f 1 10 4
f 1 4 11
f 1 11 32
f 1 32 31
f 1 31 30
f 1 30 29
f 1 29 28
f 1 28 27
f 1 27 26
f 1 26 25
f 1 25 48
f 1 48 68
f 1 68 76
f 1 76 86
f 1 86 91
f 1 91 102
f 1 102 107
f 1 107 106
f 1 106 105
f 1 105 112
f 1 112 114
f 1 114 108
f 1 108 99
f 1 99 89
f 1 89 88
f 1 88 87
f 1 87 79
f 1 79 78
f 1 78 72
f 1 72 58
f 1 58 38
f 1 38 34
f 1 34 13
f 1 13 12
f 1 12 5
f 1 5 2
f 2 5 6
f 2 6 7
f 2 7 8
f 2 8 3
f 3 8 9
f 4 10 11
f 5 12 6
f 6 12 13
f 6 13 14
f 6 14 7
f 7 14 15
f 7 15 16
f 7 16 8
f 8 16 17
f 8 17 9
f 10 18 19
f 10 19 20
f 10 20 21
f 10 21 22
f 10 22 23
f 10 23 24
f 10 24 25
f 10 25 26
f 10 26 27
f 10 27 28
f 10 28 29
f 10 29 30
f 10 30 31
f 10 31 32
f 10 32 11
f 10 33 50
f 10 50 64
f 10 64 62
f 10 62 61
f 10 61 60
f 10 60 70
f 10 70 59
f 10 59 42
f 10 42 41
f 10 41 40
f 10 40 57
f 10 57 56
f 10 56 55
f 10 55 71
f 10 71 77
f 10 77 80
f 10 80 90
f 10 90 101
f 10 101 110
f 10 110 113
f 10 113 103
f 10 103 97
f 10 97 96
f 10 96 95
f 10 95 94
f 10 94 93
f 10 93 92
f 10 92 83
f 10 83 81
f 10 81 74
f 10 74 67
f 10 67 47
f 10 47 46
f 10 46 18
f 13 34 14
f 14 35 36
f 14 36 37
f 14 37 15
f 14 34 38
f 14 38 39
f 14 39 40
f 14 40 41
f 14 41 42
f 14 42 35
f 15 43 44
f 15 44 16
f 15 37 43
f 16 44 45
f 18 46 19
f 19 47 67
f 19 67 48
f 19 48 25
f 19 25 24
f 19 24 23
f 19 23 22
f 19 22 21
f 19 21 20
f 19 46 47
f 33 49 50
f 35 51 52
f 35 52 36
f 35 42 51
f 36 52 53
f 36 53 54
f 36 54 43
f 36 43 37
f 38 55 56
f 38 56 57
f 38 57 40
f 38 40 39
f 38 58 55
f 42 59 51
f 43 60 61
f 43 61 62
f 43 62 63
f 43 63 44
f 43 54 60
f 44 63 62
f 44 62 64
f 44 64 65
f 44 65 66
f 44 66 45
f 48 67 74
f 48 74 75
f 48 75 68
f 49 69 50
f 50 69 64
f 51 59 70
f 51 70 52
f 52 70 53
f 53 70 54
f 54 70 60
f 55 58 72
f 55 72 73
f 55 73 71
f 64 69 65
f 68 75 82
f 68 82 85
f 68 85 76
f 71 73 77
f 72 78 73
f 73 78 79
f 73 79 80
f 73 80 77
f 74 81 75
f 75 81 83
f 75 83 84
f 75 84 82
f 76 85 86
f 79 87 80
f 80 88 89
f 80 89 90
f 80 87 88
f 82 91 85
f 82 84 92
f 82 92 93
f 82 93 94
f 82 94 95
f 82 95 96
f 82 96 97
f 82 97 98
f 82 98 91
f 83 92 84
f 85 91 86
f 89 99 100
f 89 100 90
f 90 100 101
f 91 98 97
f 91 97 102
f 97 103 104
f 97 104 105
f 97 105 106
f 97 106 107
f 97 107 102
f 99 108 100
f 100 108 109
f 100 109 101
f 101 109 110
f 103 111 112
f 103 112 104
f 103 113 111
f 104 112 105
f 108 114 109
f 109 114 111
f 109 111 113
f 109 113 110
f 111 114 112

