# https://github.com/mikedh/trimesh
v 230.83361411 76.35267827 963.20331404
v 213.61584220 96.56388215 963.20331404
v 101.11630008 76.35267827 963.20331404
v 230.33841844 76.35267827 958.97934455
v 226.55456408 81.11663273 961.23371326
v 101.11630008 96.56388215 963.20331404
v 220.72643365 87.14082552 955.30116262
v 214.88560453 93.16105879 949.39234265
v 211.93979261 96.56388215 949.39234265
v 101.11630008 76.35267827 763.94081522
v 229.90669854 76.35267827 955.30116262
v 229.15754688 77.23305846 955.30116262
v 101.11630008 96.56388215 735.55947364
v 228.78932039 76.78396606 949.39234265
v 211.93979261 95.59645426 943.48352267
v 211.11444886 96.56388215 943.48352267
v 101.11630008 83.35616868 722.43669142
v 111.23617922 78.85929218 727.04035149
v 120.89895874 78.50120700 730.59986247
v 150.96654413 77.20338411 754.14023737
v 156.88356533 77.01543480 760.07279682
v 180.86908193 76.35267827 784.04028834
v 229.08135479 76.35267827 948.89400758
v 126.90485308 96.56388215 757.98453392
v 136.91046173 91.38050963 756.48951109
v 146.76368619 84.52341562 752.24181975
v 101.11630008 96.18996771 734.91877225
v 222.85960050 82.68549311 943.48352267
v 219.36779818 85.56207076 937.55097204
v 208.37179820 96.56388215 928.08261463
v 210.06056411 96.56388215 937.55097204
v 101.11630008 84.04662422 720.79930226
v 115.45173584 78.84544709 727.08779518
v 118.61340771 79.06504609 727.39630259
v 125.58431366 78.53484086 732.64068169
v 150.96654413 78.09563404 749.86880655
v 156.48994148 77.99869195 754.44872714
v 162.50855214 77.80283242 760.35754712
v 190.54456013 76.35267827 791.06442294
v 138.76429286 78.09959356 742.34631926
v 225.36101148 79.72582728 943.48352267
v 228.02747004 76.35267827 942.96145695
v 225.04356208 79.34201845 939.92398524
v 128.14920041 96.56388215 759.12357038
v 128.54282427 96.20183745 758.72017559
v 131.17120442 96.56388215 762.06611944
v 138.98015281 92.11646878 760.28634632
v 148.98574382 85.57987537 756.18103895
v 150.96654413 83.40364764 754.18769869
v 154.25520281 79.51413849 750.93665985
v 140.18640409 84.19698013 746.68895088
v 107.47773105 91.56053990 732.66440353
v 101.11630008 94.86642999 732.78304802
v 219.07576378 85.20596093 934.22874121
v 213.10794785 91.06396854 928.55721903
v 207.47028000 96.56388215 923.24165676
v 101.11630008 86.05073190 720.79930226
v 101.96702356 84.14356630 720.98914755
v 118.61340771 79.48050462 727.39630259
v 136.55493392 78.90479579 739.09528042
v 143.47504514 78.31128234 744.33965952
v 154.25520281 78.82368296 750.93665985
v 160.33728924 78.60605930 756.63191269
v 174.34259455 77.61290777 772.17518707
v 190.58265617 76.35267827 791.13562374
v 180.25961576 77.52586007 778.10774653
v 183.99265775 78.40030539 780.29091444
v 183.99265775 79.58931645 780.29091444
v 227.02438003 76.35267827 938.07302894
v 225.93239924 76.35267827 932.92358131
v 220.53597106 81.12652712 925.70960143
v 162.43236005 96.56388215 795.85792829
v 171.66341967 91.03429419 792.60688945
v 178.03755814 85.32664250 786.22347389
v 180.22151972 83.34429894 784.04028834
v 154.78849453 85.51656715 762.11358077
v 162.50855214 80.54685877 760.35754712
v 180.25961576 80.46178642 778.10774653
v 174.34259455 80.49739564 772.17518707
v 160.33728924 79.65064932 756.63191269
v 156.48994148 80.47959103 754.44872714
v 136.55493392 79.57151184 739.09528042
v 112.75987991 85.25343989 727.34882363
v 103.19868984 92.34002730 730.59986247
v 101.11630008 93.38659267 730.59986247
v 208.54956210 92.77131509 913.89195707
v 205.46408232 96.56388215 913.89195707
v 207.33059450 96.56388215 922.55348523
v 101.11630008 86.63040026 721.41628181
v 101.96702356 85.84497798 720.98914755
v 166.25429281 78.55264547 762.51699319
v 192.44916835 76.35267827 794.90871949
v 172.18401270 78.50120700 768.42581316
v 178.10103391 78.44976852 774.35837262
v 185.26240245 80.44991668 783.73179857
v 178.10103391 79.61701545 774.35837262
v 225.65304588 76.35267827 931.64215206
v 223.49448166 77.41111337 925.70960143
v 219.86299385 80.27779663 919.80078145
v 213.86979819 86.10217038 913.89195707
v 165.31469620 96.56388215 799.27507295
v 172.37447529 91.57439381 795.57316918
v 178.97715475 86.05073190 789.66434039
v 166.25429281 79.64471445 762.51699319
v 172.18401270 79.63482006 768.42581316
v 103.43993834 88.01527084 724.69106013
v 101.11630008 89.62369996 725.28430021
v 101.11630008 90.96900180 727.13527414
v 101.11630008 91.14112185 727.37256311
v 104.90014562 90.19149857 728.72518434
v 213.38730120 85.49282767 909.92901162
v 189.42718197 79.21936153 792.27466901
v 204.98156770 96.56388215 912.04100077
v 101.11630008 88.74925464 724.09778479
v 219.34241846 79.63482006 915.31577028
v 221.51368135 76.35267827 913.58346288
v 181.93566535 84.20291500 789.66434039
v 186.97656572 80.84559525 790.04403096
v 224.33250646 76.35267827 925.70960143
v 224.02777338 76.35267827 924.35698020
v 167.04154052 96.56388215 802.52611179
v 175.33298589 89.73844665 795.57316918
v 203.90228559 96.56388215 907.95940643
v 202.96267134 96.56388215 905.25416397
f 1 2 6
f 1 6 3
f 1 3 10
f 1 10 22
f 1 22 39
f 1 39 65
f 1 65 92
f 1 92 116
f 1 116 120
f 1 120 119
f 1 119 97
f 1 97 70
f 1 70 69
f 1 69 42
f 1 42 23
f 1 23 11
f 1 11 4
f 1 4 5
f 1 5 2
f 2 5 7
f 2 7 8
f 2 8 9
f 2 9 16
f 2 16 31
f 2 31 30
f 2 30 56
f 2 56 88
f 2 88 87
f 2 87 113
f 2 113 123
f 2 123 124
f 2 124 121
f 2 121 101
f 2 101 72
f 2 72 46
f 2 46 44
f 2 44 24
f 2 24 13
f 2 13 6
f 3 6 13
f 3 13 27
f 3 27 53
f 3 53 85
f 3 85 109
f 3 109 108
f 3 108 107
f 3 107 114
f 3 114 89
f 3 89 57
f 3 57 32
f 3 32 17
f 3 17 10
f 4 11 5
f 5 11 12
f 5 12 7
f 7 12 8
f 8 12 11
f 8 11 14
f 8 14 15
f 8 15 16
f 8 16 9
f 10 17 18
f 10 18 19
f 10 19 20
f 10 20 21
f 10 21 22
f 11 23 14
f 13 24 25
f 13 25 26
f 13 26 27
f 14 23 15
f 15 23 28
f 15 28 29
f 15 29 30
f 15 30 31
f 15 31 16
f 17 32 18
f 18 32 33
f 18 33 19
f 19 33 34
f 19 34 35
f 19 35 20
f 20 36 37
f 20 37 38
f 20 38 39
f 20 39 21
f 20 35 40
f 20 40 36
f 21 39 22
f 23 41 28
f 23 42 43
f 23 43 41
f 24 44 45
f 24 45 25
f 25 45 46
f 25 46 47
f 25 47 48
f 25 48 26
f 26 48 49
f 26 49 50
f 26 50 51
f 26 51 52
f 26 52 53
f 26 53 27
f 28 54 29
f 28 41 54
f 29 54 30
f 30 54 55
f 30 55 56
f 32 57 90
f 32 90 58
f 32 58 34
f 32 34 33
f 34 59 82
f 34 82 60
f 34 60 61
f 34 61 35
f 34 58 90
f 34 90 59
f 35 61 40
f 36 62 37
f 36 40 61
f 36 61 62
f 37 63 38
f 37 62 63
f 38 63 64
f 38 64 39
f 39 64 66
f 39 66 67
f 39 67 68
f 39 68 65
f 41 43 54
f 42 69 43
f 43 69 70
f 43 70 71
f 43 71 54
f 44 46 45
f 46 72 73
f 46 73 74
f 46 74 75
f 46 75 47
f 47 75 76
f 47 76 48
f 48 77 49
f 48 76 75
f 48 75 78
f 48 78 79
f 48 79 77
f 49 77 80
f 49 80 81
f 49 81 50
f 50 81 80
f 50 80 63
f 50 63 62
f 50 62 60
f 50 60 82
f 50 82 83
f 50 83 51
f 51 83 52
f 52 83 84
f 52 84 53
f 53 84 85
f 54 71 55
f 55 71 86
f 55 86 87
f 55 87 88
f 55 88 56
f 57 89 90
f 59 90 83
f 59 83 82
f 60 62 61
f 63 80 104
f 63 104 91
f 63 91 66
f 63 66 64
f 65 68 92
f 66 91 93
f 66 93 94
f 66 94 67
f 67 94 96
f 67 96 68
f 68 75 95
f 68 95 92
f 68 96 78
f 68 78 75
f 70 97 71
f 71 97 98
f 71 98 99
f 71 99 100
f 71 100 86
f 72 101 73
f 73 101 102
f 73 102 103
f 73 103 74
f 74 103 75
f 75 103 95
f 77 104 80
f 77 79 105
f 77 105 104
f 78 96 79
f 79 96 105
f 83 90 89
f 83 89 106
f 83 106 107
f 83 107 108
f 83 108 109
f 83 109 110
f 83 110 84
f 84 110 85
f 85 110 109
f 86 100 111
f 86 111 92
f 86 92 87
f 87 92 112
f 87 112 113
f 89 114 106
f 91 104 105
f 91 105 93
f 92 95 112
f 92 111 115
f 92 115 116
f 93 105 96
f 93 96 94
f 95 103 117
f 95 117 118
f 95 118 112
f 97 119 98
f 98 120 99
f 98 119 120
f 99 120 115
f 99 115 100
f 100 115 111
f 101 121 102
f 102 121 103
f 103 121 122
f 103 122 117
f 106 114 107
f 112 118 123
f 112 123 113
f 115 120 116
f 117 122 124
f 117 124 123
f 117 123 118
f 121 124 122

