# https://github.com/mikedh/trimesh
v -104.57413024 118.70511808 1055.98629237
v -104.57413024 129.01032742 1043.80002028
v -104.63130076 129.01032742 1074.05752150
v -105.24592576 129.01032742 1078.85986303
v -106.37512075 126.43906488 1076.94447856
v -109.51256812 125.50599398 1079.19297414
v -111.53510653 126.03859785 1083.24581126
v -119.59668812 120.95357838 1080.66420458
v -123.54171873 120.46938823 1082.85717869
v -127.20087027 119.59381414 1079.60934979
v -133.11841177 119.36179865 1079.60934979
v -133.11841177 118.70511808 1061.42709539
v -104.57413024 118.70511808 811.73334374
v -104.57413024 129.01032742 824.16944476
v -105.59611836 129.01032742 1079.55384597
v -107.59007592 127.42359189 1080.88627277
v -110.21295332 129.01032742 1084.88360607
v -114.35094215 128.24368862 1087.18760546
v -118.29597276 126.52582156 1088.49228917
v -115.93752777 125.24372211 1085.32774246
v -106.84681503 129.01032742 1081.91336682
v -121.45484916 122.76930465 1085.10567426
v -121.28332877 126.01741574 1088.85316101
v -127.20087027 122.56351546 1086.02172540
v -127.20087027 120.35237517 1083.05148616
v -133.11841177 120.27369626 1083.19028980
v -137.14205956 120.36347770 1083.02372543
v -139.08598960 119.88432294 1079.72039271
v -144.48181812 118.70511808 1060.45552279
v -139.03596209 118.70511808 1062.25986434
v -137.70665705 118.70511808 1062.23212125
v -109.39820944 118.70511808 813.14907036
v -104.57413024 118.70612339 807.15308805
v -121.06892388 129.01032742 840.29752870
v -112.14973153 129.01032742 1086.27155432
v -113.92213237 129.01032742 1087.46519511
v -116.58074244 129.01032742 1088.93644319
v -121.28332877 129.01032742 1090.21336617
v -127.20087027 125.52112657 1089.21403284
v -133.11841177 122.57864805 1086.16051141
v -137.79956907 125.87821526 1088.93644319
v -139.44332521 123.36748310 1085.71637502
v -144.94636058 124.51440332 1084.74480243
v -141.07993834 120.85674211 1081.80232391
v -143.35262314 120.31001096 1077.83276897
v -161.72702447 118.70511808 1033.61241484
v -127.21516511 118.70511808 830.94269220
v -124.36359680 126.67813519 839.82563158
v -123.51312906 129.01032742 842.87913538
v -127.20087027 129.01032742 1090.74078474
v -133.11841177 125.53625035 1089.18627211
v -133.11841177 129.01032742 1090.57422037
v -133.75448344 129.01032742 1090.51871655
v -139.47905789 129.00932211 1089.74145142
v -141.73744785 126.70840038 1088.40900698
v -150.86390208 125.71984330 1083.44011872
v -154.04422514 126.40880850 1082.69063196
v -150.86390208 123.48247671 1079.60934979
v -145.16790848 121.46097889 1079.72039271
v -150.86390208 122.13379737 1073.69664967
v -162.30590798 118.70511808 1032.36325259
v -157.21025337 124.96833709 1073.80769258
v -131.38889544 118.70511808 836.16140939
v -129.21626567 119.92669597 835.18983679
v -127.65826972 129.01032742 847.76474145
v -126.95788453 129.01032742 846.87645104
v -139.47905789 129.01032742 1089.74145142
v -144.94636058 129.01032742 1088.10365660
v -144.94636058 128.06514868 1087.71504167
v -147.55493432 129.01032742 1087.07658019
v -151.39276689 129.01032742 1085.38326391
v -158.42520854 129.01032742 1080.10902527
v -158.66105128 129.01032742 1079.80367489
v -159.47578634 126.75883355 1075.86186305
v -155.26632332 125.56954030 1079.60934979
v -155.15912529 129.01032742 1083.49564018
v -160.20475239 126.27565754 1071.92006885
v -163.44939779 129.01032742 1072.55853033
v -171.97553067 118.70511808 984.92282146
v -132.44661624 118.70511808 837.57713601
v -127.92984514 129.01032742 848.12561329
v -162.44884751 129.01032742 1074.64046153
v -163.04917768 129.01032742 1073.77993185
v -162.38452516 128.48073949 1073.80769258
v -164.28557952 129.01032742 1067.56188134
v -172.51153849 118.70511808 981.81379180
v -132.91830171 118.70511808 838.24335822
v -129.85232852 126.28170705 846.32127174
v -128.48729080 129.01032742 848.98616061
v -136.05574909 120.60758340 845.90487844
v -177.57861226 129.01032742 968.51714788
v -177.57861226 128.86608275 968.71146416
v -177.57861226 127.34894305 970.32149383
v -177.57861226 127.10886742 970.37701088
v -177.57861226 126.19495918 970.37701088
v -172.85457927 118.70511808 978.98235620
v -177.57861226 126.06785772 969.98838713
v -136.26300215 118.70511808 843.01793902
v -131.08157853 127.44074393 850.26308358
v -145.90402636 129.01032742 877.27275150
v -139.07169477 118.70511808 847.48715180
v -177.57861226 129.01032742 928.87704943
v -177.57861226 125.82576265 967.15695153
v -172.66875523 118.70511808 967.15695153
v -139.55767507 118.70511808 848.31993839
v -155.25202849 118.70511808 877.60585820
v -155.93811885 118.70511808 879.16037523
v -156.27401661 118.70511808 880.10418710
v -157.75340419 118.70511808 884.32357978
v -157.83916439 118.70511808 884.60116943
v -159.37573131 118.70511808 890.26404063
v -161.09096162 118.70511808 896.92624517
v -163.93537810 118.70511808 908.00215425
v -165.25754013 118.70511808 913.91485658
v -169.15968623 118.70511808 931.68072651
v -170.44610676 118.70511808 937.59343105
v -170.57475146 118.70511808 938.20413181
v -171.52527423 118.70511808 943.50613448
v -171.76825997 118.70511808 945.61583192
v -172.08987172 118.70511808 949.39107940
v -177.57861226 128.57152625 933.62386840
v -177.57861226 126.04061729 961.24424479
v -172.60443288 118.70511808 964.32551372
v -172.50437785 118.70511808 961.24424479
v -177.57861226 128.20737392 937.59343105
f 1 2 3
f 1 3 4
f 1 4 5
f 1 5 6
f 1 6 7
f 1 7 8
f 1 8 9
f 1 9 10
f 1 10 11
f 1 11 12
f 1 12 31
f 1 31 30
f 1 30 29
f 1 29 46
f 1 46 61
f 1 61 79
f 1 79 86
f 1 86 96
f 1 96 104
f 1 104 123
f 1 123 124
f 1 124 120
f 1 120 119
f 1 119 118
f 1 118 117
f 1 117 116
f 1 116 115
f 1 115 114
f 1 114 113
f 1 113 112
f 1 112 111
f 1 111 110
f 1 110 109
f 1 109 108
f 1 108 107
f 1 107 106
f 1 106 105
f 1 105 101
f 1 101 98
f 1 98 87
f 1 87 80
f 1 80 63
f 1 63 47
f 1 47 32
f 1 32 13
f 1 13 33
f 1 33 14
f 1 14 2
f 2 14 34
f 2 34 49
f 2 49 66
f 2 66 65
f 2 65 81
f 2 81 89
f 2 89 100
f 2 100 102
f 2 102 91
f 2 91 85
f 2 85 78
f 2 78 83
f 2 83 82
f 2 82 73
f 2 73 72
f 2 72 76
f 2 76 71
f 2 71 70
f 2 70 68
f 2 68 67
f 2 67 53
f 2 53 52
f 2 52 50
f 2 50 38
f 2 38 37
f 2 37 36
f 2 36 35
f 2 35 17
f 2 17 21
f 2 21 15
f 2 15 4
f 2 4 3
f 4 15 5
f 5 15 16
f 5 16 7
f 5 7 6
f 7 17 18
f 7 18 19
f 7 19 20
f 7 20 8
f 7 16 21
f 7 21 17
f 8 20 9
f 9 20 22
f 9 22 23
f 9 23 24
f 9 24 25
f 9 25 10
f 10 25 11
f 11 25 26
f 11 26 27
f 11 27 28
f 11 28 29
f 11 29 30
f 11 30 31
f 11 31 12
f 13 32 33
f 14 33 34
f 15 21 16
f 17 35 18
f 18 35 36
f 18 36 19
f 19 36 37
f 19 37 38
f 19 38 23
f 19 23 22
f 19 22 20
f 23 38 39
f 23 39 24
f 24 39 40
f 24 40 26
f 24 26 25
f 26 40 27
f 27 40 41
f 27 41 42
f 27 42 43
f 27 43 44
f 27 44 28
f 28 44 45
f 28 45 29
f 29 45 46
f 32 47 33
f 33 47 48
f 33 48 34
f 34 48 49
f 38 50 39
f 39 50 51
f 39 51 40
f 40 51 41
f 41 51 52
f 41 52 53
f 41 53 54
f 41 54 55
f 41 55 42
f 42 55 43
f 43 56 44
f 43 55 56
f 44 57 58
f 44 58 59
f 44 59 45
f 44 56 57
f 45 59 58
f 45 58 60
f 45 60 46
f 46 60 62
f 46 62 61
f 47 63 64
f 47 64 48
f 48 64 65
f 48 65 66
f 48 66 49
f 50 52 51
f 53 67 54
f 54 67 68
f 54 68 55
f 55 68 69
f 55 69 70
f 55 70 71
f 55 71 57
f 55 57 56
f 57 72 73
f 57 73 74
f 57 74 75
f 57 75 58
f 57 71 76
f 57 76 72
f 58 75 62
f 58 62 60
f 61 62 77
f 61 77 78
f 61 78 79
f 62 75 74
f 62 74 77
f 63 80 64
f 64 80 81
f 64 81 65
f 68 70 69
f 73 82 74
f 74 82 83
f 74 83 84
f 74 84 77
f 77 84 78
f 78 85 86
f 78 86 79
f 78 84 83
f 80 87 88
f 80 88 81
f 81 88 90
f 81 90 89
f 85 91 92
f 85 92 93
f 85 93 94
f 85 94 95
f 85 95 86
f 86 95 97
f 86 97 96
f 87 98 88
f 88 98 90
f 89 90 99
f 89 99 100
f 90 98 101
f 90 101 102
f 90 102 100
f 90 100 99
f 91 102 121
f 91 121 125
f 91 125 122
f 91 122 103
f 91 103 97
f 91 97 95
f 91 95 94
f 91 94 93
f 91 93 92
f 96 97 103
f 96 103 104
f 101 105 102
f 102 105 106
f 102 106 107
f 102 107 108
f 102 108 109
f 102 109 110
f 102 110 111
f 102 111 112
f 102 112 113
f 102 113 114
f 102 114 115
f 102 115 116
f 102 116 117
f 102 117 118
f 102 118 119
f 102 119 120
f 102 120 121
f 103 122 123
f 103 123 104
f 120 124 122
f 120 122 125
f 120 125 121
f 122 124 123

