# https://github.com/mikedh/trimesh
v -114.04081213 188.68163476 1088.86543640
v -114.04081213 187.38716291 1088.69111172
v -114.04081213 192.49263255 1087.96892712
v -116.53995675 192.97736944 1089.07295402
v -115.60761779 188.68163476 1089.38839280
v -114.04081213 187.16800483 1088.65790114
v -115.79330955 185.25879334 1088.98164697
v -114.04081213 194.83829067 1087.29654957
v -114.88418095 194.80857223 1087.70329539
v -119.42209889 196.92022187 1088.15155885
v -121.34868289 194.80857223 1089.72873510
v -121.27904296 188.68163476 1091.23949018
v -116.32718328 185.25879334 1089.15595401
v -114.04081213 185.25879334 1087.92742712
v -114.04081213 195.59045827 1086.88151433
v -123.36810835 197.85812532 1088.74091877
v -114.04081213 199.26030668 1084.32482881
v -115.36002877 199.49061138 1084.59874995
v -127.19806598 194.60056077 1090.81614789
v -127.19806598 188.68163476 1092.33521003
v -124.70279269 185.25879334 1091.25610429
v -114.04081213 185.25879334 1045.52628257
v -127.19806598 198.08469097 1088.93183992
v -121.34868289 199.63361265 1085.91860153
v -127.19806598 200.73121966 1085.52845217
v -115.36002877 202.45100915 1080.31546703
v -114.04081213 202.92087801 1078.94582605
v -131.22919188 197.96026153 1088.82391876
v -133.16738106 194.92744600 1090.05246329
v -133.11708899 188.68163476 1092.35182414
v -133.11708899 185.25879334 1092.25221004
v -130.61794437 185.25879334 1092.24390298
v -127.19806598 185.25879334 1091.71265717
v -123.23270866 185.25879334 1014.75474930
v -114.04081213 186.48827263 1046.27337070
v -121.27904296 202.88745578 1080.55619524
v -127.19806598 203.16231169 1080.10794941
v -133.16738106 199.48688996 1085.85219800
v -115.36002877 203.73433438 1077.36034275
v -114.04081213 203.68047081 1077.19432512
v -135.17133883 197.11895624 1088.03533064
v -139.02836934 193.30238514 1089.62081394
v -139.02836934 188.68163476 1091.47191133
v -139.02836934 185.25879334 1091.74585011
v -136.53309605 185.25879334 1092.11109594
v -127.76675527 185.25879334 1009.08521129
v -130.53283675 191.30959163 1011.84112501
v -129.00085547 193.10365077 1015.79236386
v -129.27939752 198.42642660 1022.10936708
v -124.54031130 196.89979816 1030.14466947
v -114.04081213 198.86657701 1061.30635209
v -114.04081213 198.56757597 1060.82489569
v -121.27904296 203.71948398 1077.59276389
v -127.19806598 203.55789326 1077.14451807
v -130.16531574 203.47805030 1076.69627225
v -132.52905185 202.34143011 1079.04544015
v -139.02836934 198.44499842 1083.96787240
v -114.89192362 203.80119647 1073.29288450
v -121.40283747 203.79004985 1073.74943738
v -114.04081213 203.73990769 1073.81584972
v -142.65328735 192.32176473 1089.01483991
v -139.02836934 196.25906149 1086.92301432
v -143.79840859 188.68163476 1089.61250689
v -142.76934800 185.25879334 1090.45090206
v -128.51340247 185.25879334 1008.50414079
v -130.14596789 185.25879334 1007.55784209
v -134.47498370 192.66720414 1010.72049282
v -132.74956798 194.85686249 1014.25668761
v -131.02028093 197.04652084 1018.16642647
v -133.04358655 199.49618469 1020.25826088
v -133.24088350 202.50115131 1026.26813237
v -131.35298639 203.10844811 1030.56801176
v -128.24646560 199.41445457 1026.35943942
v -114.04081213 202.13156676 1067.13360067
v -114.04081213 199.14887575 1061.77950143
v -139.02836934 204.23206979 1032.27800387
v -139.26822450 204.08906852 1038.27957713
v -142.30510537 203.63032865 1036.36205858
v -139.02836934 199.64290738 1079.60989654
v -142.28576634 197.75782338 1082.91367019
v -133.24088350 204.04635157 1032.43572326
v -132.93525975 204.09649372 1038.24637537
v -114.04081213 203.67119371 1072.45449815
v -144.44060032 194.08054976 1084.85607462
v -148.11968173 191.89461283 1082.85555608
v -146.75791569 188.68163476 1087.08903195
v -147.58967051 185.25879334 1088.18475179
v -147.28791809 185.25879334 1088.44207647
v -144.74235274 185.25879334 1089.67892805
v -145.62827096 185.25879334 1007.55784209
v -132.52905185 186.93214446 1007.55784209
v -139.02836934 193.19093657 1010.28054524
v -139.02836934 196.14948245 1013.31868716
v -134.96242788 198.10141090 1016.67225903
v -134.03008892 187.70103199 1007.55784209
v -139.02836934 189.23323374 1007.55784209
v -139.02836934 201.11567224 1020.44088379
v -139.02836934 203.26074411 1024.91507904
v -135.29513334 203.66189898 1028.17734387
v -129.90998406 203.64332716 1034.51095238
v -114.04081213 203.53376576 1070.77770780
v -114.04081213 202.50300320 1068.05500466
v -142.35539744 203.64519669 1032.27800387
v -139.02836934 203.66747229 1027.87021214
v -142.15810050 203.54676427 1028.53428264
v -145.31491336 201.87341315 1032.27800387
v -142.61460046 197.99370139 1079.60989654
v -145.57410756 195.24874028 1079.60989654
v -149.17194386 188.68163476 1084.12560061
v -148.50654177 192.29204629 1079.60989654
v -151.04823579 188.68163476 1079.60989654
v -149.67100205 185.25879334 1085.23791692
v -145.75593680 185.27551327 1007.55784209
v -147.65543910 185.25879334 1008.90259719
v -143.57402112 192.68207218 1010.69558930
v -142.93570073 198.09955901 1016.68055727
v -139.02836934 198.37256302 1016.27381144
v -139.33786442 189.15707693 1007.55784209
v -144.92418198 199.34946201 1020.46578731
v -144.45993935 201.99784259 1026.47564999
v -149.00946247 198.77001412 1026.35943942
v -149.09844143 198.91486727 1032.27800387
v -151.84517506 185.25879334 1081.52741509
v -152.53766767 185.25879334 1079.85893180
v -153.55512308 185.26807043 1073.69133209
v -145.71337858 185.33122874 1007.55784209
v -147.51616807 191.19073550 1011.89092324
v -148.94369388 185.25879334 1010.21414171
v -148.62646494 187.24601354 1010.75369458
v -145.22593440 194.77142859 1014.28988937
v -143.79453726 187.50416715 1007.55784209
v -146.88171020 196.86265451 1018.51506701
v -148.43690185 198.15897825 1022.45800762
v -151.54342264 194.60056077 1026.35943942
v -151.40802295 194.60056077 1032.27800387
v -153.55512308 185.25879334 1073.69133209
v -153.26109569 188.68163476 1026.35943942
v -153.34621213 185.25879334 1022.93115697
v -150.07333861 189.00479857 1014.12387175
v -148.95143655 192.91978445 1015.84216210
v -149.63231516 185.25879334 1011.37626508
v -149.83348344 194.77329811 1020.46578731
v -152.73496462 188.68163476 1020.44088379
v -153.12183348 185.25879334 1020.44088379
v -151.24167022 185.25879334 1014.36459995
v -152.32488539 185.25879334 1017.02089957
f 1 2 6
f 1 6 14
f 1 14 22
f 1 22 35
f 1 35 52
f 1 52 51
f 1 51 75
f 1 75 74
f 1 74 102
f 1 102 101
f 1 101 83
f 1 83 60
f 1 60 40
f 1 40 27
f 1 27 17
f 1 17 15
f 1 15 8
f 1 8 3
f 1 3 4
f 1 4 5
f 1 5 2
f 2 5 7
f 2 7 6
f 3 8 4
f 4 8 9
f 4 9 10
f 4 10 11
f 4 11 12
f 4 12 5
f 5 12 13
f 5 13 7
f 6 7 14
f 7 13 21
f 7 21 33
f 7 33 32
f 7 32 31
f 7 31 45
f 7 45 44
f 7 44 64
f 7 64 89
f 7 89 88
f 7 88 87
f 7 87 112
f 7 112 123
f 7 123 124
f 7 124 136
f 7 136 138
f 7 138 144
f 7 144 146
f 7 146 145
f 7 145 141
f 7 141 128
f 7 128 114
f 7 114 90
f 7 90 66
f 7 66 65
f 7 65 46
f 7 46 34
f 7 34 22
f 7 22 14
f 8 15 9
f 9 15 10
f 10 16 11
f 10 15 17
f 10 17 18
f 10 18 16
f 11 19 20
f 11 20 12
f 11 16 19
f 12 20 21
f 12 21 13
f 16 23 19
f 16 18 24
f 16 24 25
f 16 25 23
f 17 26 18
f 17 27 26
f 18 26 24
f 19 23 28
f 19 28 29
f 19 29 30
f 19 30 20
f 20 30 31
f 20 31 32
f 20 32 33
f 20 33 21
f 22 34 35
f 23 25 28
f 24 26 25
f 25 26 36
f 25 36 37
f 25 37 38
f 25 38 28
f 26 27 39
f 26 39 36
f 27 40 39
f 28 38 41
f 28 41 42
f 28 42 29
f 29 42 43
f 29 43 30
f 30 43 44
f 30 44 45
f 30 45 31
f 34 46 47
f 34 47 48
f 34 48 49
f 34 49 50
f 34 50 51
f 34 51 52
f 34 52 35
f 36 39 37
f 37 39 53
f 37 53 54
f 37 54 55
f 37 55 56
f 37 56 38
f 38 56 57
f 38 57 41
f 39 40 58
f 39 58 59
f 39 59 53
f 40 60 58
f 41 61 42
f 41 57 62
f 41 62 61
f 42 61 43
f 43 61 63
f 43 63 64
f 43 64 44
f 46 65 47
f 47 65 66
f 47 66 67
f 47 67 68
f 47 68 69
f 47 69 48
f 48 69 49
f 49 69 70
f 49 70 71
f 49 71 72
f 49 72 73
f 49 73 50
f 50 73 74
f 50 74 75
f 50 75 51
f 53 59 76
f 53 76 77
f 53 77 54
f 54 77 55
f 55 77 78
f 55 78 56
f 56 79 80
f 56 80 57
f 56 78 79
f 57 80 62
f 58 60 81
f 58 81 82
f 58 82 76
f 58 76 59
f 60 83 81
f 61 62 80
f 61 80 84
f 61 84 85
f 61 85 86
f 61 86 87
f 61 87 88
f 61 88 63
f 63 89 64
f 63 88 89
f 66 90 113
f 66 113 126
f 66 126 131
f 66 131 118
f 66 118 96
f 66 96 95
f 66 95 91
f 66 91 67
f 67 92 93
f 67 93 94
f 67 94 68
f 67 91 95
f 67 95 96
f 67 96 92
f 68 94 69
f 69 94 70
f 70 94 97
f 70 97 71
f 71 97 98
f 71 98 99
f 71 99 72
f 72 100 73
f 72 99 100
f 73 100 101
f 73 101 102
f 73 102 74
f 76 103 78
f 76 78 77
f 76 82 81
f 76 81 99
f 76 99 104
f 76 104 105
f 76 105 103
f 78 103 106
f 78 106 107
f 78 107 80
f 78 80 79
f 80 85 84
f 80 107 108
f 80 108 85
f 81 83 100
f 81 100 99
f 83 101 100
f 85 109 86
f 85 108 110
f 85 110 111
f 85 111 109
f 86 109 87
f 87 109 112
f 90 114 113
f 92 115 93
f 92 96 115
f 93 115 116
f 93 116 117
f 93 117 94
f 94 117 97
f 96 118 115
f 97 117 116
f 97 116 119
f 97 119 98
f 98 120 105
f 98 105 104
f 98 104 99
f 98 119 120
f 103 105 106
f 105 120 106
f 106 120 121
f 106 121 122
f 106 122 107
f 107 122 108
f 108 122 110
f 109 111 123
f 109 123 112
f 110 122 111
f 111 124 123
f 111 122 125
f 111 125 124
f 113 114 127
f 113 127 126
f 114 128 129
f 114 129 127
f 115 127 130
f 115 130 116
f 115 118 131
f 115 131 127
f 116 132 119
f 116 130 132
f 119 132 133
f 119 133 120
f 120 133 121
f 121 133 134
f 121 134 122
f 122 134 135
f 122 135 125
f 124 125 136
f 125 135 134
f 125 134 137
f 125 137 138
f 125 138 136
f 126 127 131
f 127 129 139
f 127 139 140
f 127 140 132
f 127 132 130
f 128 141 139
f 128 139 129
f 132 140 133
f 133 140 142
f 133 142 134
f 134 142 143
f 134 143 137
f 137 143 138
f 138 143 144
f 139 141 145
f 139 145 146
f 139 146 143
f 139 143 140
f 140 143 142
f 143 146 144

