# https://github.com/mikedh/trimesh
v -91.62972040 135.10547410 996.26830856
v -91.62972040 135.10547410 1049.31703302
v -91.62972040 160.05348020 996.26830856
v 149.64328860 135.10547410 996.26830856
v -87.63497093 135.10547410 1052.08796469
v -91.62972040 135.13233533 1049.39907179
v -91.62972040 160.05348020 1057.38372936
v 151.44814162 160.05348020 996.26830856
v 152.81982851 142.12950286 996.26830856
v 148.89727633 142.79868811 1007.13326521
v 147.66996640 138.85194671 1004.85453972
v 149.47483706 135.10547410 996.56909976
v -80.00644964 135.10547410 1056.72745445
v -90.64305930 142.54957349 1054.08413570
v -91.62972040 141.50183526 1052.78070423
v -91.62972040 146.87243396 1054.79509432
v -83.27925262 143.87818186 1059.17024867
v -53.29459667 144.21765995 1076.69819469
v -50.23837677 147.25587241 1078.43914865
v -53.39085974 150.36489767 1076.75288721
v -49.87740793 160.05348020 1075.95989864
v 151.30374703 160.05348020 996.83343075
v 153.97493233 149.50278065 996.26830856
v 154.16745845 147.25587241 996.26830856
v 153.42144619 147.25587241 998.38296532
v 151.83317623 147.25587241 1002.68519926
v 149.37857400 147.25587241 1007.93538095
v 147.47745792 147.25587241 1010.88860926
v 142.01476732 145.90772218 1017.42399452
v 136.40768212 143.92947042 1023.72239065
v 143.38645420 141.33819863 1013.13087895
v 146.46673105 141.03046725 1008.90155661
v 142.20727580 138.20717997 1011.73629034
v 143.41051115 137.24491974 1008.60077423
v 145.19130723 135.10547410 1002.72165506
v -73.79774678 135.10547410 1060.24580054
v -91.62972040 145.23853694 1054.32111603
v -62.22261637 135.10547410 1066.56243338
v -50.23837677 142.87928064 1077.50942879
v -44.34252003 147.25587241 1080.58115167
v -44.77568617 160.05348020 1077.94695128
v 149.61921402 160.05348020 1001.42734194
v 149.21012246 160.05348020 1002.43909616
v 148.22345255 160.05348020 1004.86365807
v 148.92135092 151.80586292 1007.20619444
v 142.06289885 150.22568837 1017.49691494
v 142.06289885 149.85202085 1017.49691494
v 144.03620341 147.62953994 1015.08146698
v 134.12153143 147.25587241 1026.89438020
v 131.16157459 147.25587241 1030.42184465
v 117.78158234 147.25587241 1046.34557681
v 130.82467151 143.50207160 1030.02078677
v 109.55144338 135.10547410 1048.91598396
v 113.88309593 135.10547410 1043.73871387
v -50.28650830 135.10547410 1072.66030497
v -46.89337650 138.53932986 1076.55236268
v -44.67942311 140.84241212 1078.41181121
v -30.69781318 143.94411800 1082.76872885
v -38.42259312 147.25587241 1081.68404980
v -30.93846202 150.64088235 1082.81430300
v -43.42805623 160.05348020 1078.22951459
v 145.76886795 160.05348020 1008.70103208
v 142.85702500 160.05348020 1012.63867276
v 140.76340044 160.05348020 1015.14526903
v 116.96338160 160.05348020 1043.44704102
v 116.50614969 160.05348020 1043.98482137
v 113.64244709 160.05348020 1047.23884087
v 113.16114943 160.05348020 1047.76750286
v 114.82161668 147.25587241 1049.51756636
v 119.61050113 142.64726515 1042.60846948
v 125.21756868 143.07466397 1036.31919172
v 107.98723037 142.99895690 1053.81068194
v 102.57267130 135.10547410 1054.63102559
v 113.69057863 141.33819863 1048.34173900
v -45.13665501 135.10547410 1075.20335705
v -38.18194870 135.10547410 1077.65526962
v -32.79144657 135.10547410 1078.92224530
v -32.50267062 135.10547410 1078.98603854
v -9.11175215 135.10547410 1083.83517118
v 4.17198145 143.74385803 1088.80278957
v 0.22536571 145.64640271 1088.45643303
v -14.74289870 147.25587241 1085.85867080
v -0.01528312 149.58825865 1088.50200719
v -0.01528312 150.23545930 1088.50200719
v -38.37446600 160.05348020 1079.21390932
v 111.74133101 147.25587241 1052.47990421
v 109.59957491 160.05348020 1050.47463248
v 92.27296472 135.10547410 1062.98027641
v -3.26402033 135.10547410 1084.82870191
v 2.63183861 135.10547410 1085.44850339
v 8.55176112 135.10547410 1085.70372925
v 8.93679793 143.57777867 1088.90305624
v 8.93679793 147.25587241 1089.37703453
v 2.51151420 147.47323151 1088.90305624
v 3.01687322 150.69950793 1088.76633377
v 3.01687322 160.05348020 1086.38734161
v -2.92711505 160.05348020 1085.45762175
v -7.93257816 160.05348020 1084.58259441
v 108.78137417 147.25587241 1054.26643233
v 85.58297300 135.10547410 1067.62887571
v 108.08349343 151.59337165 1053.86537446
v 100.71968675 150.28674786 1058.94237788
v 106.68774078 160.05348020 1052.49814093
v 8.93679793 135.10547410 1085.70372925
v 14.85672264 135.10547410 1085.51231427
v 13.22032115 143.89039552 1088.72075961
v 8.93679793 151.04141993 1088.95774876
v 14.06258766 147.25587241 1088.86660044
v 13.46096998 150.69217091 1088.75721541
v 8.93679793 160.05348020 1086.73371578
v 100.71968675 148.24987935 1058.94237788
v 74.00783378 147.25587241 1074.34655760
v 70.51844774 147.25587241 1076.35183815
v 67.55848208 147.25587241 1078.04721796
v 79.92775628 135.10547410 1070.43626318
v 98.74637337 160.05348020 1057.26523479
v 93.37994583 160.05348020 1060.38253183
v 68.97830049 160.05348020 1074.38301340
v 78.09883749 151.21726139 1071.39332930
v 103.12615744 160.05348020 1054.64925349
v 20.77664514 135.10547410 1085.09302849
v 26.69656764 135.10547410 1084.49144609
v 32.35177996 135.10547410 1083.71668542
v 56.24805745 135.10547410 1079.59673930
v 48.06605002 144.08822158 1082.68669889
v 20.77664514 147.25587241 1087.69077308
v 48.30669885 150.49435367 1082.73227305
v 20.72851802 160.05348020 1085.22063261
v 15.72305491 160.05348020 1086.06832251
v 14.85672264 160.05348020 1086.16858918
v 10.04377463 160.05348020 1086.66078655
v 66.78841286 151.73014703 1077.60057711
v 62.16797995 147.25587241 1080.17098426
v 68.52107741 135.10547410 1075.92343402
v 65.24827444 160.05348020 1076.27891774
v 56.24805745 147.25587241 1081.42884157
v 62.21611148 135.10547410 1078.28418946
v 56.17586897 160.05348020 1078.95870110
v 61.71075687 160.05348020 1077.59145875
f 1 2 6
f 1 6 15
f 1 15 37
f 1 37 16
f 1 16 7
f 1 7 3
f 1 3 8
f 1 8 23
f 1 23 24
f 1 24 9
f 1 9 4
f 1 4 12
f 1 12 35
f 1 35 54
f 1 54 53
f 1 53 73
f 1 73 88
f 1 88 100
f 1 100 115
f 1 115 134
f 1 134 137
f 1 137 124
f 1 124 123
f 1 123 122
f 1 122 121
f 1 121 105
f 1 105 104
f 1 104 91
f 1 91 90
f 1 90 89
f 1 89 79
f 1 79 78
f 1 78 77
f 1 77 76
f 1 76 75
f 1 75 55
f 1 55 38
f 1 38 36
f 1 36 13
f 1 13 5
f 1 5 2
f 2 5 6
f 3 7 21
f 3 21 41
f 3 41 61
f 3 61 85
f 3 85 98
f 3 98 97
f 3 97 96
f 3 96 110
f 3 110 131
f 3 131 130
f 3 130 129
f 3 129 128
f 3 128 138
f 3 138 139
f 3 139 135
f 3 135 118
f 3 118 117
f 3 117 116
f 3 116 120
f 3 120 103
f 3 103 87
f 3 87 68
f 3 68 67
f 3 67 66
f 3 66 65
f 3 65 64
f 3 64 63
f 3 63 62
f 3 62 44
f 3 44 43
f 3 43 42
f 3 42 22
f 3 22 8
f 4 9 10
f 4 10 11
f 4 11 12
f 5 13 14
f 5 14 6
f 6 14 15
f 7 16 17
f 7 17 18
f 7 18 19
f 7 19 20
f 7 20 21
f 8 22 23
f 9 24 25
f 9 25 26
f 9 26 10
f 10 26 27
f 10 27 28
f 10 28 29
f 10 29 30
f 10 30 31
f 10 31 32
f 10 32 11
f 11 32 33
f 11 33 34
f 11 34 12
f 12 34 35
f 13 17 14
f 13 36 18
f 13 18 17
f 14 17 37
f 14 37 15
f 16 37 17
f 18 36 38
f 18 38 39
f 18 39 40
f 18 40 19
f 19 40 20
f 20 40 41
f 20 41 21
f 22 42 23
f 23 25 24
f 23 42 43
f 23 43 44
f 23 44 26
f 23 26 25
f 26 45 27
f 26 44 45
f 27 45 28
f 28 46 47
f 28 47 48
f 28 48 29
f 28 45 46
f 29 48 49
f 29 49 50
f 29 50 51
f 29 51 30
f 30 51 52
f 30 52 53
f 30 53 54
f 30 54 31
f 31 33 32
f 31 54 33
f 33 54 34
f 34 54 35
f 38 55 56
f 38 56 39
f 39 56 57
f 39 57 40
f 40 57 58
f 40 58 59
f 40 59 60
f 40 60 41
f 41 60 61
f 44 62 45
f 45 62 46
f 46 62 63
f 46 63 64
f 46 64 65
f 46 65 66
f 46 66 51
f 46 51 47
f 47 51 50
f 47 50 49
f 47 49 48
f 51 66 67
f 51 67 68
f 51 68 69
f 51 69 70
f 51 70 71
f 51 71 52
f 52 71 53
f 53 72 73
f 53 71 70
f 53 70 74
f 53 74 72
f 55 75 56
f 56 75 76
f 56 76 57
f 57 76 77
f 57 77 58
f 58 77 78
f 58 78 79
f 58 79 80
f 58 80 81
f 58 81 59
f 59 81 82
f 59 82 83
f 59 83 84
f 59 84 60
f 60 85 61
f 60 84 85
f 68 86 69
f 68 87 86
f 69 86 74
f 69 74 70
f 72 74 86
f 72 86 88
f 72 88 73
f 79 89 80
f 80 89 90
f 80 90 91
f 80 91 92
f 80 92 93
f 80 93 94
f 80 94 81
f 81 94 82
f 82 94 83
f 83 94 84
f 84 94 95
f 84 95 96
f 84 96 97
f 84 97 98
f 84 98 85
f 86 99 100
f 86 100 88
f 86 87 101
f 86 101 102
f 86 102 99
f 87 103 101
f 91 104 92
f 92 104 105
f 92 105 106
f 92 106 93
f 93 107 95
f 93 95 94
f 93 106 108
f 93 108 109
f 93 109 107
f 95 107 110
f 95 110 96
f 99 111 100
f 99 102 111
f 100 111 112
f 100 112 113
f 100 113 114
f 100 114 115
f 101 103 102
f 102 116 117
f 102 117 118
f 102 118 119
f 102 119 114
f 102 114 113
f 102 113 112
f 102 112 111
f 102 103 120
f 102 120 116
f 105 121 106
f 106 121 122
f 106 122 123
f 106 123 124
f 106 124 125
f 106 125 108
f 107 109 110
f 108 125 126
f 108 126 127
f 108 127 109
f 109 128 129
f 109 129 130
f 109 130 131
f 109 131 110
f 109 127 128
f 114 132 133
f 114 133 134
f 114 134 115
f 114 119 132
f 118 135 132
f 118 132 119
f 124 136 125
f 124 137 133
f 124 133 136
f 125 136 126
f 126 136 127
f 127 136 133
f 127 133 138
f 127 138 128
f 132 135 139
f 132 139 133
f 133 137 134
f 133 139 138

