# https://github.com/mikedh/trimesh
v 32.58547538 96.56489628 711.96676960
v 30.54082451 96.56489628 712.18218862
v 26.66534564 106.97867054 722.83283737
v 27.25334751 106.97867054 722.78114316
v 32.58547538 106.97867054 722.33305607
v 36.54113672 96.56489628 712.10033503
v 26.66534564 96.56489628 712.59150945
v -2.92194739 96.56489628 717.01204395
v -2.92194739 98.94635763 719.48943326
v -2.92194739 106.97867054 727.89534314
v 33.57438961 106.97867054 722.38907137
v 38.50560512 96.56489628 712.17788518
v -8.84207823 96.56489628 718.05039045
v -8.84207823 98.42642599 720.01939157
v -8.84207823 106.97867054 729.08018303
v 38.50560512 106.97867054 722.69066505
v 38.50560512 104.37293636 720.05815782
v 38.50560512 98.48351715 714.11240585
v 42.04699402 96.56489628 712.50533479
v -14.76220907 96.56489628 719.85997021
v -13.53274632 103.50334123 726.81821275
v -14.68202660 106.97867054 731.02763167
v 44.57273973 106.97867054 723.25508617
v 47.67312283 106.97867054 723.54375190
v 44.42573927 104.09972070 720.33389558
v 47.67312283 98.06044823 714.53895809
v 47.67312283 96.56489628 713.03097202
v -17.23449851 96.56489628 720.83369452
v -26.58910738 106.97867054 735.67653079
v 47.67312283 106.97867054 733.11294918
v 47.67312283 96.56489628 722.30289670
v -17.83586651 96.99510821 721.53166344
v -26.82965480 106.97867054 735.77131234
v -22.52653446 96.56489628 722.92763656
v -51.72627864 106.97867054 755.98255150
v -74.52479480 96.56489628 755.98255150
v 47.67312283 106.74012051 732.86737079
v -33.05715105 106.97867054 738.23147024
v -26.58910738 96.56489628 724.55193902
v -30.34431474 103.17201147 733.08711090
v -73.70960999 106.97867054 755.98255150
v -88.85071095 96.56489628 755.98255150
v -36.91926875 106.97867054 739.78684709
v -29.00794220 96.56489628 725.52566334
v -38.41600568 106.97867054 740.39003446
v -72.62714880 106.97867054 755.39659553
v -71.54468321 103.19138577 750.82526419
v -74.32434082 106.65958089 755.98255150
v -85.76369234 98.97082023 755.98255150
v -85.76369234 98.47434588 755.43968287
v -87.60788482 96.56489628 754.92697360
v -44.05549897 96.56489628 731.68253090
v -30.63831677 97.37536318 727.04657737
v -38.41600568 101.62753432 734.72434132
v -43.05321805 103.52474380 738.63647000
v -44.25595515 106.97867054 742.82865751
v -68.07011670 106.97867054 753.17339150
v -70.27513252 96.56489628 743.55248236
v -71.50459417 97.27239803 744.92690299
v -75.48698448 102.03327484 751.99287268
v -68.00329871 103.98248718 749.98078423
v -63.53981357 96.56489628 740.08413733
v -64.12781543 96.56489628 740.36849961
v -68.00329871 96.56489628 742.35471450
v -82.73012282 96.89927726 751.21303254
v -78.61409653 104.02632408 755.93516073
v -78.62746102 104.05282376 755.98255150
v -83.62549451 96.56489628 751.58355185
v -81.90157354 101.88443571 755.98255150
v -85.76369234 96.56489628 753.36297224
v -46.78169865 96.56489628 732.79842754
v -47.28952025 96.94923423 733.41456051
v -56.91140384 106.97867054 748.27462818
v -68.00329871 106.97867054 753.14323213
v -71.89214206 96.56489628 744.45728106
v -73.48242705 96.56489628 745.39222148
v -78.78782596 98.08898499 750.03679953
v -67.82956928 106.97867054 753.06568199
v -63.36608414 102.17906276 745.98248089
v -59.71778821 97.19186723 739.07162912
v -58.63532261 96.56489628 737.92987656
v -82.44948637 96.56489628 750.71323360
v -49.18717065 96.56489628 733.82816715
v -50.25626736 96.56489628 734.28918220
v -56.17639930 103.65319449 744.40989028
v -56.17639930 100.87618685 741.44993344
v -61.93616410 106.97867054 750.47195865
v -79.62973973 96.56489628 749.02861240
v -56.17639930 96.56489628 736.85704961
v -51.07145437 96.56489628 734.64248774
f 1 2 3
f 1 3 4
f 1 4 5
f 1 5 6
f 1 6 12
f 1 12 19
f 1 19 27
f 1 27 31
f 1 31 36
f 1 36 42
f 1 42 51
f 1 51 70
f 1 70 68
f 1 68 82
f 1 82 88
f 1 88 76
f 1 76 75
f 1 75 58
f 1 58 64
f 1 64 63
f 1 63 62
f 1 62 81
f 1 81 89
f 1 89 90
f 1 90 84
f 1 84 83
f 1 83 71
f 1 71 52
f 1 52 44
f 1 44 39
f 1 39 34
f 1 34 28
f 1 28 20
f 1 20 13
f 1 13 8
f 1 8 7
f 1 7 2
f 2 7 3
f 3 7 8
f 3 8 9
f 3 9 10
f 3 10 15
f 3 15 22
f 3 22 29
f 3 29 33
f 3 33 38
f 3 38 43
f 3 43 45
f 3 45 56
f 3 56 73
f 3 73 87
f 3 87 78
f 3 78 74
f 3 74 57
f 3 57 46
f 3 46 41
f 3 41 35
f 3 35 30
f 3 30 24
f 3 24 23
f 3 23 16
f 3 16 11
f 3 11 5
f 3 5 4
f 5 11 12
f 5 12 6
f 8 13 9
f 9 13 10
f 10 13 14
f 10 14 15
f 11 16 17
f 11 17 18
f 11 18 12
f 12 18 19
f 13 20 21
f 13 21 14
f 14 21 15
f 15 21 22
f 16 23 17
f 17 23 24
f 17 24 25
f 17 25 26
f 17 26 18
f 18 26 19
f 19 26 27
f 20 28 29
f 20 29 21
f 21 29 22
f 24 30 37
f 24 37 31
f 24 31 27
f 24 27 26
f 24 26 25
f 28 32 33
f 28 33 29
f 28 34 32
f 30 35 36
f 30 36 37
f 31 37 36
f 32 34 38
f 32 38 33
f 34 39 40
f 34 40 38
f 35 41 48
f 35 48 67
f 35 67 69
f 35 69 49
f 35 49 42
f 35 42 36
f 38 40 43
f 39 44 40
f 40 44 45
f 40 45 43
f 41 46 47
f 41 47 48
f 42 49 50
f 42 50 51
f 44 52 53
f 44 53 45
f 45 54 55
f 45 55 56
f 45 53 54
f 46 57 47
f 47 58 59
f 47 59 60
f 47 60 48
f 47 57 61
f 47 61 62
f 47 62 63
f 47 63 64
f 47 64 58
f 48 60 65
f 48 65 66
f 48 66 67
f 49 68 50
f 49 69 68
f 50 68 70
f 50 70 51
f 52 71 53
f 53 71 54
f 54 71 55
f 55 71 72
f 55 72 56
f 56 72 73
f 57 74 62
f 57 62 61
f 58 75 59
f 59 75 76
f 59 76 60
f 60 76 77
f 60 77 65
f 62 74 78
f 62 78 79
f 62 79 80
f 62 80 81
f 65 69 66
f 65 77 82
f 65 82 68
f 65 68 69
f 66 69 67
f 71 83 72
f 72 83 84
f 72 84 85
f 72 85 73
f 73 85 86
f 73 86 81
f 73 81 87
f 76 88 77
f 77 88 82
f 78 87 79
f 79 87 81
f 79 81 80
f 81 86 89
f 84 90 86
f 84 86 85
f 86 90 89

