# https://github.com/mikedh/trimesh
v -139.54232202 170.92799613 994.77450710
v -137.33771626 175.83979323 994.77450710
v -139.28756354 165.00965214 994.77450710
v -148.10597774 170.92799613 1005.42452533
v -148.10597774 175.37599153 1005.42452533
v -147.79244376 179.32073112 1005.73944381
v -136.49507056 176.93514270 994.77450710
v -147.65526273 185.25634179 1008.90772958
v -137.76883650 160.05593175 994.77450710
v -145.31348476 160.05593175 1003.78312374
v -147.82183592 163.17668565 1005.83487793
v -147.96880552 167.12387679 1005.56766769
v -173.53242430 160.05593175 1038.90145979
v -172.90532108 165.00965214 1039.63627252
v -149.33076557 182.76219728 1009.54710819
v -148.93883487 185.25634179 1010.21512057
v -135.13311051 178.56829897 994.77450710
v -145.72501022 185.25634179 1007.52398776
v -133.49680602 180.14963756 994.77450710
v -78.69524905 160.05593175 994.77450710
v -147.56707744 160.05593175 1006.55059855
v -176.44250355 160.05593175 1043.51073726
v -175.69783170 164.51133471 1044.57001012
v -151.24142330 185.25634179 1014.36633720
v -149.62470477 185.25634179 1011.37936920
v -142.36421597 185.25634179 1005.42452533
v -132.35041491 181.18331024 994.77450710
v -78.69524905 185.25634179 994.77450710
v -78.69524905 160.05593175 1059.32353233
v -176.90300712 160.05593175 1044.37915070
v -177.55949368 162.20714131 1046.85079915
v -177.93182961 162.73261981 1050.01907610
v -176.07995619 165.69301758 1050.01907610
v -172.68976096 169.09007362 1044.10240763
v -171.91570578 168.34751822 1040.71462868
v -152.31922390 185.25634179 1017.01929460
v -127.19654037 182.87075337 994.77450710
v -111.00004229 185.25634179 994.77450710
v -78.69524905 185.25634179 1046.03009394
v -78.69524905 161.78529817 1059.97245260
v -105.19948739 160.05593175 1077.62705033
v -177.82404955 160.05593175 1046.42136325
v -178.76466911 160.05593175 1050.01907610
v -178.79407009 160.05593175 1051.27875885
v -178.02001490 162.80662490 1054.86693887
v -173.12088120 169.47740105 1050.01907610
v -153.12268006 185.25634179 1020.43569849
v -78.69524905 184.61244809 1049.18883806
v -82.30099998 185.25634179 1059.68616788
v -78.69524905 164.99979303 1061.14624288
v -104.94472891 183.84521844 1083.52463550
v -115.79138711 185.25634179 1088.97371030
v -116.48706321 184.50636119 1089.10731101
v -108.49169995 160.05593175 1078.89626591
v -78.69524905 170.92799613 1063.07393801
v -94.66638081 179.84127124 1076.64411947
v -178.67648382 160.05593175 1056.26976398
v -177.47130840 161.98757758 1058.81774561
v -152.53478402 185.25634179 1079.86011348
v -153.55380030 185.25634179 1073.69532689
v -153.33824018 185.25634179 1022.93598070
v -78.69524905 182.88308167 1056.01209539
v -78.69524905 182.73752303 1056.46062340
v -88.53267953 185.25634179 1070.97556031
v -104.73897500 185.25634179 1083.65823621
v -97.02775355 182.19232631 1078.48592213
v -116.33028741 185.25634179 1089.15503689
v -124.70778398 185.25634179 1091.25448168
v -127.19654037 182.76219728 1091.26404097
v -121.42537763 182.62404620 1089.74668962
v -109.44212571 160.05593175 1079.12530075
v -94.29404488 183.78599320 1076.97813007
v -78.69524905 177.32986005 1061.76654702
v -94.29404488 185.25634179 1076.97813007
v -178.53932042 160.05593175 1056.89005930
v -177.79464857 160.05593175 1059.74342658
v -176.65806367 160.05593175 1061.72837160
v -149.67370052 185.25634179 1085.23283745
v -151.83910791 185.25634179 1081.53014883
v -127.19654037 185.25634179 1091.71255135
v -130.61612776 185.25634179 1092.24697183
v -133.10487533 182.76219728 1092.18016266
v -133.30084068 176.64649461 1089.85166539
v -135.39766637 173.54300740 1088.70650887
v -139.02301649 173.07922333 1088.89735947
v -140.98266115 161.68168045 1082.78028112
v -139.54232202 160.05593175 1081.59695801
v -175.81540032 160.05593175 1062.77810282
v -147.68465488 184.87148355 1088.30570674
v -147.58667221 185.25634179 1088.18164767
v -133.10487533 185.25634179 1092.25651348
v -139.02301649 182.76219728 1091.94158618
v -139.02301649 176.84387093 1090.50060329
v -143.20686168 173.15322842 1088.82102629
v -143.16767213 161.68168045 1082.78028112
v -144.55901552 160.05593175 1081.47289895
v -172.71916194 160.05593175 1066.58577602
v -148.12558133 180.92674396 1088.64924134
v -145.40167004 182.84360994 1089.72760633
v -144.73538610 185.25634179 1089.67989808
v -147.28292680 185.25634179 1088.43928981
v -136.53426010 185.25634179 1092.11337112
v -148.12558133 178.94574964 1088.64924134
v -145.07832987 176.92034521 1089.34588749
v -139.02301649 185.25634179 1091.74119393
v -147.14575459 175.00101004 1088.25798086
v -145.07832987 171.08094469 1087.38956741
v -145.06852366 164.58780900 1084.10676423
v -147.11636243 162.33296408 1082.37947898
v -145.48985533 160.05593175 1081.28203071
v -168.77047164 160.05593175 1069.05741565
v -142.76594405 185.25634179 1090.44333576
v -149.23278290 166.27770368 1083.54373644
v -148.94863226 160.05593175 1079.52612052
f 1 2 7
f 1 7 17
f 1 17 19
f 1 19 27
f 1 27 37
f 1 37 38
f 1 38 28
f 1 28 20
f 1 20 9
f 1 9 3
f 1 3 4
f 1 4 5
f 1 5 6
f 1 6 2
f 2 6 8
f 2 8 7
f 3 9 10
f 3 10 11
f 3 11 12
f 3 12 4
f 4 12 13
f 4 13 5
f 5 13 6
f 6 13 14
f 6 14 15
f 6 15 16
f 6 16 8
f 7 8 17
f 8 16 25
f 8 25 24
f 8 24 36
f 8 36 47
f 8 47 61
f 8 61 60
f 8 60 59
f 8 59 79
f 8 79 78
f 8 78 90
f 8 90 101
f 8 101 100
f 8 100 112
f 8 112 105
f 8 105 102
f 8 102 91
f 8 91 81
f 8 81 80
f 8 80 68
f 8 68 67
f 8 67 52
f 8 52 65
f 8 65 74
f 8 74 64
f 8 64 49
f 8 49 39
f 8 39 28
f 8 28 38
f 8 38 26
f 8 26 18
f 8 18 19
f 8 19 17
f 9 20 29
f 9 29 41
f 9 41 54
f 9 54 71
f 9 71 87
f 9 87 96
f 9 96 110
f 9 110 114
f 9 114 111
f 9 111 97
f 9 97 88
f 9 88 77
f 9 77 76
f 9 76 75
f 9 75 57
f 9 57 44
f 9 44 43
f 9 43 42
f 9 42 30
f 9 30 22
f 9 22 13
f 9 13 21
f 9 21 10
f 10 21 11
f 11 21 13
f 11 13 12
f 13 22 14
f 14 22 23
f 14 23 24
f 14 24 25
f 14 25 16
f 14 16 15
f 18 26 27
f 18 27 19
f 20 28 39
f 20 39 48
f 20 48 62
f 20 62 63
f 20 63 73
f 20 73 55
f 20 55 50
f 20 50 40
f 20 40 29
f 22 30 23
f 23 30 31
f 23 31 32
f 23 32 33
f 23 33 34
f 23 34 35
f 23 35 24
f 24 35 36
f 26 37 27
f 26 38 37
f 29 40 41
f 30 42 31
f 31 42 43
f 31 43 32
f 32 43 44
f 32 44 45
f 32 45 33
f 33 45 46
f 33 46 34
f 34 46 47
f 34 47 36
f 34 36 35
f 39 49 48
f 40 50 41
f 41 51 52
f 41 52 53
f 41 53 54
f 41 50 55
f 41 55 56
f 41 56 51
f 44 57 45
f 45 57 58
f 45 58 59
f 45 59 46
f 46 59 60
f 46 60 61
f 46 61 47
f 48 49 62
f 49 63 62
f 49 64 63
f 51 65 52
f 51 56 66
f 51 66 65
f 52 67 53
f 53 67 68
f 53 68 69
f 53 69 70
f 53 70 54
f 54 70 69
f 54 69 71
f 55 72 56
f 55 73 64
f 55 64 74
f 55 74 72
f 56 72 66
f 57 75 58
f 58 75 76
f 58 76 77
f 58 77 78
f 58 78 79
f 58 79 59
f 63 64 73
f 65 66 72
f 65 72 74
f 68 80 69
f 69 80 81
f 69 81 82
f 69 82 83
f 69 83 71
f 71 83 84
f 71 84 85
f 71 85 86
f 71 86 87
f 77 88 89
f 77 89 78
f 78 89 90
f 81 91 82
f 82 91 92
f 82 92 93
f 82 93 83
f 83 93 85
f 83 85 84
f 85 93 94
f 85 94 95
f 85 95 86
f 86 95 87
f 87 95 96
f 88 97 89
f 89 98 99
f 89 99 100
f 89 100 101
f 89 101 90
f 89 97 98
f 91 102 92
f 92 99 103
f 92 103 104
f 92 104 94
f 92 94 93
f 92 102 105
f 92 105 99
f 94 104 106
f 94 106 107
f 94 107 108
f 94 108 95
f 95 108 109
f 95 109 110
f 95 110 96
f 97 111 106
f 97 106 103
f 97 103 98
f 98 103 99
f 99 112 100
f 99 105 112
f 103 106 104
f 106 111 113
f 106 113 107
f 107 113 109
f 107 109 108
f 109 113 111
f 109 111 114
f 109 114 110

