# https://github.com/mikedh/trimesh
v -165.69453351 135.10546528 1078.05753564
v -166.47566997 135.10546528 1077.37674521
v -165.69453351 132.54250097 1076.68449070
v -165.69453351 135.10546528 1054.63998521
v -169.14468591 135.10546528 1073.69310462
v -165.69453351 132.43317766 1076.56298901
v -165.69453351 132.02551471 1058.32361699
v -166.18860040 132.09498708 1058.41301923
v -168.36889348 135.10546528 1055.89383892
v -166.49405661 131.76191125 1073.69539743
v -169.63044576 135.10546528 1072.55386533
v -165.69453351 131.12282364 1073.72060961
v -165.69453351 131.72257179 1058.90126590
v -167.13224472 131.47327198 1061.86284535
v -170.97563296 135.10546528 1059.70125638
v -168.58300736 135.10546528 1056.00157488
v -170.52308370 133.66331834 1067.77682417
v -167.56462601 131.05232833 1067.77682417
v -165.69453351 131.03802467 1073.40198734
v -171.59009042 135.10546528 1067.77682417
v -165.69453351 130.82244692 1061.86284535
v -165.69453351 130.36829268 1063.55451256
v -165.69453351 130.00200627 1066.67196832
v -165.69453351 129.88655409 1067.65534011
v -170.09070241 133.68579677 1061.86284535
v -171.51833405 135.10546528 1061.86284535
v -171.75379759 135.10546528 1064.91840386
v -165.69453351 130.12308467 1069.96133249
f 1 2 3
f 1 3 6
f 1 6 12
f 1 12 19
f 1 19 28
f 1 28 24
f 1 24 23
f 1 23 22
f 1 22 21
f 1 21 13
f 1 13 7
f 1 7 4
f 1 4 9
f 1 9 16
f 1 16 15
f 1 15 26
f 1 26 27
f 1 27 20
f 1 20 11
f 1 11 5
f 1 5 2
f 2 5 3
f 3 5 6
f 4 7 8
f 4 8 9
f 5 10 6
f 5 11 10
f 6 10 12
f 7 13 8
f 8 13 14
f 8 14 15
f 8 15 16
f 8 16 9
f 10 11 17
f 10 17 18
f 10 18 19
f 10 19 12
f 11 20 17
f 13 21 14
f 14 21 22
f 14 22 23
f 14 23 24
f 14 24 18
f 14 18 25
f 14 25 15
f 15 25 26
f 17 20 27
f 17 27 25
f 17 25 18
f 18 24 28
f 18 28 19
f 25 27 26

