# https://github.com/mikedh/trimesh
v -177.57861226 68.12343880 979.38763374
v -177.57861226 68.12343880 1052.92920825
v -177.57861226 72.29847427 979.38763374
v 196.99601946 68.12343880 979.38763374
v -176.99196844 68.12343880 1082.28432706
v -177.57861226 75.11700396 1048.77142182
v -177.57861226 76.35267827 1021.93375490
v -174.31540384 76.35267827 979.38763374
v 191.12954606 75.40376929 979.38763374
v 195.85938164 68.12343880 985.06044783
v -177.57861226 76.35267827 1047.59812538
v -176.29533994 68.12343880 1083.24119035
v -171.52881046 73.26993664 1082.15901576
v 190.35954739 76.35267827 979.38763374
v 189.95622316 76.35267827 981.41526484
v 188.37961130 76.35267827 989.28658227
v 187.35299344 75.78075699 996.71364427
v 194.06276512 68.12343880 994.01393103
v 193.29280173 69.87142554 990.83578615
v -168.37558674 76.35267827 1079.43652427
v -175.34202170 68.12343880 1084.01579228
v -175.08536723 68.12343880 1084.20942954
v -174.53537323 68.12343880 1084.60813287
v -171.56547790 68.12343880 1086.23707388
v -167.60560571 74.37914442 1083.35509047
v -165.18567794 76.35267827 1082.43240779
v -168.19224952 76.35267827 1079.63017916
v 187.02300409 76.35267827 996.01878388
v 186.87633432 76.35267827 996.72503781
v 189.18625977 73.01297353 998.65014911
v 193.51277111 68.12343880 996.74782048
v -169.54887436 68.12343880 1087.12557593
v -162.69243292 75.41343440 1084.18666010
v -161.70246487 76.35267827 1083.70821964
v -125.99028027 76.35267827 1095.74872145
v 185.22638758 76.35267827 1002.20420142
v 192.11951410 68.12343880 1002.68263307
v 192.81614261 68.12343880 999.93735449
v -165.55233473 68.12343880 1088.39001187
v -131.45343825 73.05324775 1095.74872145
v 97.70586633 76.35267827 1095.74872145
v 185.15305269 76.35267827 1002.37506924
v 190.24956270 68.31193044 1006.99989377
v 190.35954739 68.12343880 1007.09102445
v -137.86989684 68.12343880 1095.72593437
v -137.86989684 68.13552018 1095.74872145
v -137.86989684 68.45773159 1095.74872145
v -137.83322940 68.67602986 1095.74872145
v 98.40251247 75.86694488 1095.74872145
v 103.27901782 76.35267827 1092.04657958
v 184.49307399 74.33484013 1007.14798333
v 181.37650008 76.35267827 1008.92501389
v 190.10289293 68.12343880 1007.52389076
v -134.82665781 68.12343880 1095.74872145
v 100.16245273 74.63691002 1095.74872145
v 101.37241661 73.79111169 1095.74872145
v 137.19459473 68.12343880 1077.18106205
v 132.42809170 75.70020414 1073.18275872
v 132.09810235 76.35267827 1072.78406421
v 180.60653669 76.35267827 1010.08690798
v 174.26340417 76.35267827 1019.59856437
v 188.26962660 68.12343880 1010.32612821
v 109.40215451 68.12343880 1095.74872145
v 108.52218879 68.74691320 1095.74872145
v 140.31115100 68.12343880 1075.09647648
v 139.28453315 76.35267827 1067.97697831
v 165.79366578 76.35267827 1032.27696328
v 173.60342547 68.12343880 1032.27696328
v 144.30770827 68.12343880 1072.40815678
v 144.01436873 68.73724809 1072.03224053
v 139.43120292 76.35267827 1067.87446292
v 151.09081484 76.35267827 1054.27336369
v 160.55052127 68.12343880 1051.80147715
v 147.46093199 68.12343880 1070.20965345
v 143.64772957 74.76257406 1066.22273483
v 145.22434144 76.35267827 1062.63451072
v 149.99086210 76.35267827 1055.87952644
v 148.96420897 74.30664730 1060.35627025
v 156.66398397 68.12343880 1057.61099167
v 148.70755450 68.12343880 1068.83131739
v 147.57091669 72.91792301 1064.29762353
v 145.62766567 76.35267827 1062.15607907
v 152.70409414 68.12343880 1063.52302159
v 149.99086210 68.12343880 1067.21376992
v 149.51420297 68.97326719 1066.76951007
f 1 2 6
f 1 6 11
f 1 11 7
f 1 7 3
f 1 3 8
f 1 8 14
f 1 14 9
f 1 9 4
f 1 4 10
f 1 10 18
f 1 18 31
f 1 31 38
f 1 38 37
f 1 37 44
f 1 44 53
f 1 53 62
f 1 62 68
f 1 68 73
f 1 73 79
f 1 79 83
f 1 83 84
f 1 84 80
f 1 80 74
f 1 74 69
f 1 69 65
f 1 65 57
f 1 57 63
f 1 63 54
f 1 54 45
f 1 45 39
f 1 39 32
f 1 32 24
f 1 24 23
f 1 23 22
f 1 22 21
f 1 21 12
f 1 12 5
f 1 5 2
f 2 5 6
f 3 7 8
f 4 9 10
f 5 11 6
f 5 12 13
f 5 13 11
f 7 11 20
f 7 20 27
f 7 27 26
f 7 26 34
f 7 34 35
f 7 35 41
f 7 41 50
f 7 50 59
f 7 59 66
f 7 66 71
f 7 71 76
f 7 76 82
f 7 82 77
f 7 77 72
f 7 72 67
f 7 67 61
f 7 61 60
f 7 60 52
f 7 52 42
f 7 42 36
f 7 36 29
f 7 29 28
f 7 28 16
f 7 16 15
f 7 15 14
f 7 14 8
f 9 14 15
f 9 15 16
f 9 16 17
f 9 17 10
f 10 17 19
f 10 19 18
f 11 13 20
f 12 21 13
f 13 22 23
f 13 23 24
f 13 24 25
f 13 25 26
f 13 26 27
f 13 27 20
f 13 21 22
f 16 28 17
f 17 28 29
f 17 29 30
f 17 30 31
f 17 31 18
f 17 18 19
f 24 32 25
f 25 33 34
f 25 34 26
f 25 32 35
f 25 35 33
f 29 36 30
f 30 37 38
f 30 38 31
f 30 36 37
f 32 39 35
f 33 35 34
f 35 40 48
f 35 48 47
f 35 47 46
f 35 46 54
f 35 54 63
f 35 63 64
f 35 64 56
f 35 56 55
f 35 55 49
f 35 49 41
f 35 39 40
f 36 42 43
f 36 43 37
f 37 43 44
f 39 45 46
f 39 46 47
f 39 47 48
f 39 48 40
f 41 49 50
f 42 51 43
f 42 52 51
f 43 53 44
f 43 51 53
f 45 54 46
f 49 55 50
f 50 55 56
f 50 56 57
f 50 57 58
f 50 58 59
f 51 52 60
f 51 60 61
f 51 61 62
f 51 62 53
f 56 64 57
f 57 64 63
f 57 65 58
f 58 65 66
f 58 66 59
f 61 67 62
f 62 67 68
f 65 69 70
f 65 70 66
f 66 70 71
f 67 72 68
f 68 72 73
f 69 74 70
f 70 74 71
f 71 74 75
f 71 75 76
f 72 77 78
f 72 78 73
f 73 78 79
f 74 80 81
f 74 81 76
f 74 76 75
f 76 81 82
f 77 82 78
f 78 82 81
f 78 81 83
f 78 83 79
f 80 84 85
f 80 85 81
f 81 85 83
f 83 85 84

