# https://github.com/mikedh/trimesh
v -91.65377735 160.05348020 1057.38364118
v -99.47212628 160.05348020 1071.48712317
v -99.79141876 151.87912725 1077.65564000
v -99.32542124 147.25587241 1078.53419476
v -97.36652174 147.25587241 1073.69284006
v -91.65377735 146.87243396 1054.79472394
v -91.65377735 160.05348020 996.26853784
v -101.44828805 160.05348020 1074.00125929
v -100.74929618 155.82342592 1076.42193664
v -103.26048691 153.42265199 1079.82397515
v -101.81072958 147.25587241 1081.49695589
v -101.25844276 141.33819863 1081.65583051
v -99.44623508 141.33819863 1078.70241701
v -97.84978153 141.33819863 1073.69284006
v -91.65377735 145.23853694 1054.32741246
v -91.65377735 135.10547410 996.26853784
v -133.30850398 160.05348020 996.26853784
v -102.25083590 160.05348020 1074.86111876
v -101.88839437 159.08876842 1075.21627619
v -105.19349961 160.05348020 1077.62759708
v -104.83969141 159.08876842 1077.89864338
v -105.78031098 151.01944415 1082.99234910
v -104.77065115 147.25587241 1083.77742745
v -104.21836433 141.33819863 1084.50643759
v -104.84832475 135.42052486 1084.29147713
v -99.95538166 137.15211354 1077.87994810
v -91.65377735 141.50183526 1052.78528104
v -91.65377735 135.13233533 1049.40194663
v -146.11471865 135.10547410 996.26853784
v -91.65377735 135.10547410 1049.30847904
v -138.11514895 160.04614318 996.26853784
v -138.14966467 160.05348020 996.39003953
v -108.48998033 160.05348020 1078.89869983
v -112.29560763 144.38373048 1088.53467102
v -108.61942752 141.33819863 1087.46919873
v -108.49861367 135.42052486 1087.24489063
v -104.91735620 135.10547410 1084.22604365
v -102.06098180 135.10547410 1079.91743392
v -101.98331701 135.10547410 1079.73984638
v -177.77644713 149.73479614 1046.60741657
v -178.11299747 153.17109464 1046.04663750
v -176.61146656 159.08876842 1043.28015037
v -173.65154499 159.08876842 1038.75657136
v -173.53073115 160.05348020 1038.89675951
v -147.57310931 160.05348020 1006.55875569
v -145.31217080 160.05348020 1003.78291209
v -170.96774920 135.10547410 1059.69215566
v -172.51243798 137.57462690 1055.93496853
v -175.47235955 140.69098917 1055.93496853
v -177.54344396 144.21521721 1052.87874863
v -109.44785775 160.05348020 1079.12300793
v -109.44785775 159.08876842 1079.67443054
v -115.36771853 144.42281420 1088.56271394
v -121.27893714 141.33819863 1089.99269130
v -121.27893714 135.42052486 1091.50677979
v -111.57934909 141.33819863 1088.84310788
v -139.54764841 160.05348020 1081.59976230
v -111.45853524 135.42052486 1088.90852373
v -108.85242187 135.10547410 1087.38508760
v -178.09573079 147.56115224 1050.55153005
v -179.32976044 153.17109464 1050.01879391
v -177.94041886 159.08876842 1046.22421622
v -176.90487665 160.05348020 1044.37366558
v -176.44751247 160.05348020 1043.50445847
v -171.51141150 135.10547410 1061.86049080
v -173.06472481 136.64655610 1061.86049080
v -177.86274525 143.64860910 1055.93496853
v -178.97596106 147.25587241 1055.93496853
v -126.76731612 141.78025385 1089.72164500
v -127.19879792 135.42052486 1091.74043553
v -121.59822962 135.10547410 1091.47873687
v -121.27893714 135.10547410 1091.45071159
v -115.36771853 135.42052486 1090.21699940
v -144.56140534 160.05348020 1081.47826061
v -111.51894216 135.10547410 1088.88048081
v -179.81301582 153.17109464 1055.93496853
v -179.06224155 159.08876842 1050.01879391
v -177.81960501 160.05348020 1046.42049022
v -171.75303919 135.10547410 1064.91671071
v -176.02464638 140.58596931 1061.86049080
v -177.91452766 143.54603197 1061.86049080
v -178.88966294 147.25587241 1061.86049080
v -133.11864987 140.76426232 1089.80575613
v -127.19879792 135.10547410 1091.69369733
v -133.11864987 135.42052486 1091.39462574
v -133.11864987 135.10547410 1091.36658282
v -127.50945705 135.10547410 1091.68436733
v -115.67837766 135.10547410 1090.22634704
v -115.39360091 135.10547410 1090.15156592
v -145.49339156 160.05348020 1081.28199543
v -148.17716972 138.56864265 1088.56271394
v -144.94110474 139.28667372 1088.93656665
v -139.02987730 140.23672029 1089.48798926
v -178.65665977 153.63757718 1062.35583639
v -178.76884909 159.64317169 1056.47705232
v -178.67390881 160.05348020 1056.27143068
v -178.78609814 160.05348020 1051.28054019
v -178.76022457 160.05348020 1050.01879391
v -171.58908510 135.10547410 1067.77666543
v -172.71092543 136.62457151 1067.77666543
v -177.62111756 144.07600792 1065.03821240
v -177.97491694 151.97438500 1065.68310259
v -177.94904338 147.25587241 1065.63637321
v -139.02987730 135.42052486 1090.72170144
v -139.04713517 135.10547410 1090.67496324
v -148.95382637 160.05348020 1079.52488592
v -171.90836876 156.45843055 1071.00111641
v -166.35958286 150.87534939 1077.13226032
v -160.13769629 144.68901913 1082.78673628
v -156.78080865 141.33819863 1084.68402513
v -151.18024917 135.42052486 1087.60004806
v -148.22031878 135.42052486 1088.58140922
v -144.94110474 135.42052486 1089.44125106
v -177.42263012 155.92111759 1064.65501205
v -178.13026415 158.04102137 1060.71089857
v -178.54447045 160.05348020 1056.88828678
v -169.63017238 135.10547410 1072.55259546
v -172.13274741 137.44518853 1071.71143127
v -172.74544115 141.33819863 1072.60867249
v -176.10231998 147.25587241 1068.59913434
v -173.14239841 147.25587241 1072.62736777
v -175.93836589 153.63757718 1067.70189313
v -139.45272576 135.10547410 1090.59085211
v -145.26039721 135.10547410 1089.34779229
v -168.77585094 160.05348020 1069.05709818
v -172.71954995 160.05348020 1066.58969145
v -173.15102293 158.69556786 1067.40281272
v -172.64187635 153.17109464 1071.69273599
v -167.35197600 147.25587241 1077.85190518
v -160.55191141 141.33819863 1083.02039202
v -163.51184180 141.33819863 1081.25395251
v -160.42247304 136.76623236 1082.96430618
v -157.41076907 135.10547410 1084.41297882
v -156.28029541 135.10547410 1084.98309671
v -151.12847558 135.10547410 1087.53461457
v -148.20306092 135.10547410 1088.57206158
v -176.49065272 159.64317169 1062.35583639
v -176.66324896 160.05348020 1061.72964147
v -177.79371381 160.05348020 1059.73889386
v -169.13829248 135.10547410 1073.69284006
v -169.41443589 135.44983765 1073.69284006
v -166.47177218 135.10547410 1077.37524606
v -166.56669483 135.42052486 1077.45937483
v -170.69160579 141.33819863 1075.56208598
v -170.31190639 147.25587241 1075.59012009
v -175.81755205 160.05348020 1062.77641848
v -167.73168422 141.33819863 1078.29119138
v -162.44178387 135.10547410 1080.86140452
v -163.19254932 135.10547410 1080.22585314
f 1 2 3
f 1 3 4
f 1 4 5
f 1 5 6
f 1 6 15
f 1 15 27
f 1 27 28
f 1 28 30
f 1 30 16
f 1 16 7
f 1 7 17
f 1 17 32
f 1 32 46
f 1 46 45
f 1 45 44
f 1 44 64
f 1 64 63
f 1 63 78
f 1 78 98
f 1 98 97
f 1 97 96
f 1 96 116
f 1 116 139
f 1 139 138
f 1 138 146
f 1 146 126
f 1 126 125
f 1 125 106
f 1 106 90
f 1 90 74
f 1 74 57
f 1 57 51
f 1 51 33
f 1 33 20
f 1 20 18
f 1 18 8
f 1 8 2
f 2 8 9
f 2 9 3
f 3 9 10
f 3 10 11
f 3 11 4
f 4 11 12
f 4 12 13
f 4 13 5
f 5 14 6
f 5 13 14
f 6 14 15
f 7 16 29
f 7 29 31
f 7 31 17
f 8 18 19
f 8 19 9
f 9 20 21
f 9 21 10
f 9 19 20
f 10 21 22
f 10 22 11
f 11 22 23
f 11 23 24
f 11 24 12
f 12 24 25
f 12 25 26
f 12 26 13
f 13 26 14
f 14 27 15
f 14 26 28
f 14 28 27
f 16 30 39
f 16 39 38
f 16 38 37
f 16 37 59
f 16 59 75
f 16 75 89
f 16 89 88
f 16 88 72
f 16 72 71
f 16 71 84
f 16 84 87
f 16 87 86
f 16 86 105
f 16 105 123
f 16 123 124
f 16 124 136
f 16 136 135
f 16 135 134
f 16 134 133
f 16 133 148
f 16 148 149
f 16 149 142
f 16 142 140
f 16 140 117
f 16 117 99
f 16 99 79
f 16 79 65
f 16 65 47
f 16 47 29
f 17 31 32
f 18 20 19
f 20 33 22
f 20 22 21
f 22 34 23
f 22 33 34
f 23 34 35
f 23 35 24
f 24 35 36
f 24 36 25
f 25 37 26
f 25 36 37
f 26 37 38
f 26 38 39
f 26 39 28
f 28 39 30
f 29 40 41
f 29 41 42
f 29 42 43
f 29 43 44
f 29 44 45
f 29 45 46
f 29 46 31
f 29 47 48
f 29 48 49
f 29 49 50
f 29 50 40
f 31 46 32
f 33 51 52
f 33 52 34
f 34 53 54
f 34 54 55
f 34 55 56
f 34 56 35
f 34 52 51
f 34 51 57
f 34 57 53
f 35 56 58
f 35 58 36
f 36 58 59
f 36 59 37
f 40 60 61
f 40 61 41
f 40 50 60
f 41 61 62
f 41 62 42
f 42 62 63
f 42 63 64
f 42 64 44
f 42 44 43
f 47 65 66
f 47 66 48
f 48 66 49
f 49 66 67
f 49 67 50
f 50 67 68
f 50 68 60
f 53 57 54
f 54 69 70
f 54 70 55
f 54 57 69
f 55 70 71
f 55 71 72
f 55 72 73
f 55 73 56
f 56 73 58
f 57 74 69
f 58 75 59
f 58 73 75
f 60 68 61
f 61 76 77
f 61 77 62
f 61 68 76
f 62 78 63
f 62 77 78
f 65 79 66
f 66 79 80
f 66 80 67
f 67 80 81
f 67 81 68
f 68 81 82
f 68 82 76
f 69 83 70
f 69 74 83
f 70 84 71
f 70 83 85
f 70 85 86
f 70 86 87
f 70 87 84
f 72 88 73
f 73 88 89
f 73 89 75
f 74 90 91
f 74 91 92
f 74 92 93
f 74 93 83
f 76 82 94
f 76 94 95
f 76 95 77
f 77 95 96
f 77 96 97
f 77 97 98
f 77 98 78
f 79 99 80
f 80 99 100
f 80 100 81
f 81 100 101
f 81 101 82
f 82 102 94
f 82 101 103
f 82 103 102
f 83 93 85
f 85 93 104
f 85 104 86
f 86 104 105
f 90 106 107
f 90 107 108
f 90 108 109
f 90 109 91
f 91 109 110
f 91 110 111
f 91 111 112
f 91 112 113
f 91 113 104
f 91 104 92
f 92 104 93
f 94 102 114
f 94 114 115
f 94 115 95
f 95 115 116
f 95 116 96
f 99 117 118
f 99 118 100
f 100 118 101
f 101 118 119
f 101 119 103
f 102 120 121
f 102 121 122
f 102 122 114
f 102 103 120
f 103 119 120
f 104 123 105
f 104 113 124
f 104 124 123
f 106 125 107
f 107 125 126
f 107 126 127
f 107 127 114
f 107 114 122
f 107 122 128
f 107 128 129
f 107 129 108
f 108 129 109
f 109 130 110
f 109 129 131
f 109 131 130
f 110 130 111
f 111 130 132
f 111 132 133
f 111 133 134
f 111 134 135
f 111 135 136
f 111 136 112
f 112 136 124
f 112 124 113
f 114 137 138
f 114 138 139
f 114 139 115
f 114 127 137
f 115 139 116
f 117 140 118
f 118 140 141
f 118 141 142
f 118 142 143
f 118 143 144
f 118 144 119
f 119 144 120
f 120 144 121
f 121 144 145
f 121 145 128
f 121 128 122
f 126 146 137
f 126 137 127
f 128 145 129
f 129 145 147
f 129 147 131
f 130 131 132
f 131 147 132
f 132 147 148
f 132 148 133
f 137 146 138
f 140 142 141
f 142 149 143
f 143 149 147
f 143 147 144
f 144 147 145
f 147 149 148

