# https://github.com/mikedh/trimesh
v -200.08254546 61.28435221 850.75573951
v -201.71541953 61.28435221 850.81188709
v -200.08254546 63.16223147 850.25048190
v -200.08254546 61.28435221 921.23982757
v -201.71541953 62.49851372 850.81188709
v -202.45949172 61.28435221 854.74170132
v -200.08254546 66.59009946 854.74170132
v -204.27365711 61.28435221 929.84332099
v -200.08254546 81.58530227 981.85726274
v -201.12016883 81.58530227 993.63267957
v -202.45949172 63.30133054 854.74170132
v -200.36394471 66.26023357 854.74170132
v -205.74014318 61.28435221 872.49605867
v -213.14019402 73.43392159 951.68187745
v -207.05375124 79.16890191 946.58715099
v -205.23417127 81.58530227 948.74855036
v -203.87050924 81.58530227 943.68189107
v -203.52552840 81.58530227 942.76961206
v -202.83422628 81.58530227 940.95909092
v -201.53820237 81.58530227 937.57663947
v -200.14884316 81.58530227 933.99769906
v -200.08254546 81.58530227 933.82927839
v -211.32197211 61.28435221 936.81874644
v -203.95573151 81.58530227 992.66425960
v -207.81538994 78.42370976 983.87831082
v -207.31754871 73.19148700 970.43272194
v -206.97392591 73.19148700 970.43272194
v -213.74219971 61.28435221 924.14508556
v -213.65831786 62.34550343 925.74508250
v -213.90319077 68.75214699 941.53452859
v -213.90319077 69.45957819 943.49943571
v -213.30252550 73.66642210 955.33099350
v -208.75562148 81.58530227 976.01867353
v -205.27339609 81.58530227 949.01521606
v -212.76004488 61.28435221 936.81874644
v -209.46180927 81.58530227 985.47830941
v -209.45775275 81.57934094 985.47830941
v -213.22271781 67.18625405 952.81871810
v -213.90319077 61.28435221 927.85034174
v -213.90319077 63.00524402 928.83279640
v -213.90319077 70.03983298 946.98013109
v -213.26871526 73.64058822 959.96256201
v -213.75436928 61.28435221 936.58015012
v -213.26871526 72.66886130 959.96256201
v -213.82878003 66.49272967 949.40819836
v -213.90319077 61.28435221 934.62927659
v -213.90319077 66.19465458 947.87837541
f 1 2 3
f 1 3 7
f 1 7 22
f 1 22 9
f 1 9 4
f 1 4 8
f 1 8 23
f 1 23 35
f 1 35 43
f 1 43 46
f 1 46 39
f 1 39 28
f 1 28 13
f 1 13 6
f 1 6 2
f 2 5 3
f 2 6 11
f 2 11 5
f 3 5 7
f 4 9 10
f 4 10 8
f 5 11 12
f 5 12 7
f 6 13 11
f 7 12 14
f 7 14 15
f 7 15 16
f 7 16 17
f 7 17 18
f 7 18 19
f 7 19 20
f 7 20 21
f 7 21 22
f 8 10 23
f 9 22 21
f 9 21 20
f 9 20 19
f 9 19 18
f 9 18 17
f 9 17 16
f 9 16 34
f 9 34 33
f 9 33 36
f 9 36 24
f 9 24 10
f 10 24 25
f 10 25 26
f 10 26 27
f 10 27 23
f 11 13 28
f 11 28 29
f 11 29 30
f 11 30 31
f 11 31 14
f 11 14 12
f 14 31 32
f 14 32 33
f 14 33 34
f 14 34 16
f 14 16 15
f 23 27 26
f 23 26 35
f 24 36 37
f 24 37 25
f 25 37 38
f 25 38 26
f 26 38 35
f 28 39 40
f 28 40 29
f 29 40 30
f 30 40 39
f 30 39 46
f 30 46 47
f 30 47 41
f 30 41 31
f 31 41 32
f 32 42 36
f 32 36 33
f 32 41 42
f 35 38 43
f 36 42 44
f 36 44 38
f 36 38 37
f 38 45 43
f 38 44 45
f 41 47 42
f 42 47 45
f 42 45 44
f 43 45 47
f 43 47 46

