# https://github.com/mikedh/trimesh
v -136.69032160 142.55430022 856.42633134
v -136.52650861 142.28305991 856.42633134
v -137.34560003 135.10546528 866.65099224
v -143.30858341 135.10546528 878.83298735
v -145.37270118 135.10546528 883.95216098
v -147.20746665 135.10546528 888.90708510
v -141.76869190 142.55430022 870.29190266
v 153.13720736 142.55430022 856.42633134
v -135.28149107 140.25606814 856.42633134
v -132.33276022 135.92064126 856.42633134
v -131.64472096 135.11713219 856.42633134
v -133.44671678 135.10546528 860.32730458
v -149.43539741 135.10546528 894.99808265
v -142.98095742 142.55430022 873.61800041
v 166.43925264 142.55430022 891.75411407
v 173.51619258 135.10546528 908.32983755
v 169.02759667 135.10546528 896.44897095
v 164.08026090 135.10546528 883.99322446
v 161.91785180 135.10546528 878.60029724
v 156.64290768 135.10546528 866.91105948
v 156.34803371 135.10546528 866.30880246
v 153.33379001 135.10546528 860.55999469
v 150.84373729 135.10546528 856.42633134
v -131.02221219 135.10546528 856.42633134
v -149.63198006 135.10546528 895.72352791
v -151.43397588 142.55430022 898.43367787
v -150.68041495 142.55430022 895.79196410
v -148.91117115 142.55430022 889.90628174
v 168.92928771 142.55430022 900.87007645
v 174.56464511 135.10546528 913.91439140
v 170.10878358 142.55430022 906.74207246
v -150.81147593 135.10546528 901.73239850
v -152.08926312 142.55430022 902.08827685
v -150.87699760 135.10546528 902.08827685
v 176.89086720 135.10546528 943.49336746
v 170.37090554 142.55430022 913.21632217
v -156.18471137 135.10546528 931.77675368
v -156.97104195 135.10546528 937.10124250
v -157.03656362 135.10546528 937.58031018
v -157.82289420 135.10546528 943.58918077
v -157.20039425 142.55430022 943.49336746
v 170.56748818 142.55430022 943.28805337
v 170.56748818 142.55430022 943.49336746
v 170.46917922 142.55430022 949.40642584
v 170.17432289 142.55430022 954.22447316
v 176.39939295 135.10546528 949.40642584
v -157.46249857 142.55430022 949.40642584
v -157.36420724 142.55430022 945.56020024
v -156.74168965 135.10546528 973.08603208
v 170.04324428 142.55430022 955.60692307
v 175.12162339 135.10546528 955.41529643
v -156.44683332 135.10546528 975.70036873
v -156.08642005 135.10546528 978.54739549
v -156.02089838 135.10546528 978.99908936
v -148.84564948 142.55430022 978.50633201
v 168.17572679 142.55430022 961.24622896
v 173.31960994 135.10546528 961.24622896
v 174.92504075 135.10546528 956.23655500
v -154.31719388 135.10546528 982.72212673
v -139.83563510 142.55430022 996.25919461
v 153.20271140 142.55430022 995.86225499
v 170.37090554 135.10546528 967.35091066
v -153.00663704 135.10546528 985.14483675
v -147.92827556 135.10546528 993.34372725
v -146.09351009 135.10546528 996.25919461
v 152.87508541 142.55430022 996.25919461
v 152.80954611 142.12702486 996.25919461
v 167.02900057 135.10546528 972.82596484
v 168.66716576 135.10546528 970.22531455
v 149.63148941 135.10546528 996.25919461
f 1 2 3
f 1 3 4
f 1 4 5
f 1 5 6
f 1 6 7
f 1 7 14
f 1 14 28
f 1 28 27
f 1 27 26
f 1 26 33
f 1 33 41
f 1 41 48
f 1 48 47
f 1 47 55
f 1 55 60
f 1 60 66
f 1 66 61
f 1 61 56
f 1 56 50
f 1 50 45
f 1 45 44
f 1 44 43
f 1 43 42
f 1 42 36
f 1 36 31
f 1 31 29
f 1 29 15
f 1 15 8
f 1 8 23
f 1 23 24
f 1 24 11
f 1 11 10
f 1 10 9
f 1 9 2
f 2 9 3
f 3 9 10
f 3 10 11
f 3 11 12
f 3 12 24
f 3 24 23
f 3 23 22
f 3 22 21
f 3 21 20
f 3 20 19
f 3 19 18
f 3 18 17
f 3 17 16
f 3 16 30
f 3 30 35
f 3 35 46
f 3 46 51
f 3 51 58
f 3 58 57
f 3 57 62
f 3 62 69
f 3 69 68
f 3 68 70
f 3 70 65
f 3 65 64
f 3 64 63
f 3 63 59
f 3 59 54
f 3 54 53
f 3 53 52
f 3 52 49
f 3 49 40
f 3 40 39
f 3 39 38
f 3 38 37
f 3 37 34
f 3 34 32
f 3 32 25
f 3 25 13
f 3 13 6
f 3 6 5
f 3 5 4
f 6 13 7
f 7 13 14
f 8 15 16
f 8 16 17
f 8 17 18
f 8 18 19
f 8 19 20
f 8 20 21
f 8 21 22
f 8 22 23
f 11 24 12
f 13 25 26
f 13 26 27
f 13 27 28
f 13 28 14
f 15 29 16
f 16 29 31
f 16 31 30
f 25 32 26
f 26 32 34
f 26 34 33
f 30 31 35
f 31 36 35
f 33 34 37
f 33 37 38
f 33 38 39
f 33 39 40
f 33 40 41
f 35 42 43
f 35 43 44
f 35 44 45
f 35 45 46
f 35 36 42
f 40 47 48
f 40 48 41
f 40 49 47
f 45 50 46
f 46 50 51
f 47 49 52
f 47 52 53
f 47 53 54
f 47 54 55
f 50 56 57
f 50 57 58
f 50 58 51
f 54 59 55
f 55 59 60
f 56 61 57
f 57 61 62
f 59 63 60
f 60 63 64
f 60 64 65
f 60 65 70
f 60 70 67
f 60 67 66
f 61 66 67
f 61 67 68
f 61 68 69
f 61 69 62
f 67 70 68

