# https://github.com/mikedh/trimesh
v -207.68267108 -42.12105558 1136.15305124
v -204.30281117 -41.52904128 1136.08906399
v -207.52153892 -38.49261898 1136.04475970
v -210.64051147 -42.12105558 1134.19902398
v -207.44864496 -45.34844313 1136.03983896
v -206.38980420 -45.34844313 1136.03983896
v -201.16082225 -39.18011149 1135.83311501
v -201.16082225 -39.13236797 1135.83311501
v -204.12633477 -38.64539558 1135.99555231
v -204.12633477 -35.67580890 1135.04560275
v -204.12633477 -30.28090193 1132.87008932
v -210.15713263 -29.96580046 1131.56577599
v -209.71211439 -36.39194840 1134.37130276
v -214.33494594 -36.19142829 1131.39349721
v -214.06255923 -42.12105558 1131.24091903
v -213.48709731 -46.12187220 1130.57153978
v -209.28626764 -47.70693221 1132.23023450
v -207.17625824 -51.01071467 1129.94152644
v -204.12633477 -51.05845819 1130.02519664
v -201.04574045 -51.05845819 1130.03503812
v -202.44601701 -43.11409248 1135.40490489
v -198.72856617 -47.65918870 1131.10802380
v -194.99959834 -45.43437969 1130.23192059
v -194.93439414 -42.12105558 1130.29590784
v -200.33216273 -25.91723371 1130.56661904
v -195.08400930 -38.55945902 1130.10394610
v -177.57861226 12.87835171 1104.78533251
v -177.57861226 20.25934791 1103.25459463
v -177.57861226 32.53872824 1100.57212162
v -177.57861226 45.94482994 1095.34007082
v -198.21065398 1.21007586 1117.56768424
v -204.12633477 -25.74536058 1130.69457589
v -208.26196024 -26.63337321 1130.30082858
v -204.67495308 -0.67098000 1117.10502894
v -207.01512608 -3.68830854 1118.04511939
v -212.20574743 -27.77919332 1129.37550035
v -213.84772223 -31.72272698 1130.77826373
v -216.25696194 -36.19142829 1126.95387942
v -215.76973822 -42.12105558 1126.95387942
v -214.05104223 -46.74252908 1126.95387942
v -210.55227327 -49.70256529 1126.95387942
v -207.59058800 -51.18258780 1126.95387942
v -204.12633477 -51.60272015 1126.95387942
v -200.60454945 -51.40220444 1126.95387942
v -197.64286418 -48.50900387 1126.95387942
v -194.94973838 -45.54896766 1126.95387942
v -177.57861226 -2.49474491 1097.37282990
v -177.57861226 -0.86195020 1103.28903981
v -177.57861226 1.43923994 1105.78941020
v -177.57861226 2.00260173 1106.38003999
v -177.57861226 2.35589680 1106.38003999
v -177.57861226 2.59460942 1106.36035703
v -177.57861226 45.94482994 1085.87018780
v -179.13619373 45.94482994 1095.07428036
v -203.06751165 -2.63797270 1118.61114548
v -204.12633477 -22.79487263 1129.17369713
v -204.12633477 4.25604946 1113.92542018
v -207.87447408 3.32984434 1113.04931698
v -214.60348779 -29.96580046 1127.21966988
v -215.98457522 -30.28090193 1121.03766951
v -216.76720202 -36.19142829 1121.03766951
v -215.07536726 -42.67486801 1120.48148490
v -213.91294407 -46.24601063 1122.08605150
v -207.66732684 -51.23033132 1123.04092180
v -204.12633477 -51.52633406 1122.48965793
v -200.53932761 -51.46904007 1122.94247174
v -195.10318078 -45.33890148 1122.76036912
v -177.57861226 -1.75950999 1091.44185778
v -186.60178388 45.94482994 1085.87018780
v -177.57861226 0.19793390 1085.87018780
v -179.63876169 45.94482994 1094.86755641
v -208.40005840 4.12237049 1109.21017045
v -210.02286171 -0.70917415 1109.21017045
v -181.72190985 45.94482994 1093.99635631
v -185.29357276 45.94482994 1090.90043539
v -187.29232760 45.94482994 1085.87510854
v -213.04592395 -20.70375032 1112.10922653
v -214.84901327 -36.19142829 1116.22398736
v -214.18915803 -41.07071588 1116.96229223
v -212.96151299 -45.00469687 1118.13863107
v -210.31441991 -48.44215942 1120.58977643
v -204.12633477 -50.32322217 1119.53155297
v -209.01772580 -46.71388650 1116.34212037
v -199.36156017 -46.48471939 1116.94751238
v -195.41777298 -44.69915249 1118.81786943
v -177.57861226 -0.00258456 1086.08183250
v -192.53665379 11.31239704 1085.87510854
v -192.52898167 11.59885151 1085.87510854
v -192.15301251 17.04150201 1085.87510854
v -190.91386811 28.89119952 1085.87510854
v -189.85502735 34.87811198 1085.87510854
v -188.83071995 39.51868861 1085.87510854
v -186.60178388 2.05034470 1085.87018780
v -186.49435656 1.95485932 1085.87018780
v -204.12633477 -47.36318596 1115.92867247
v -207.90133532 -40.61239049 1111.67115729
v -208.04712324 3.67359059 1104.52938353
v -208.55351844 -0.70917415 1103.95351595
v -213.04592395 -21.67769731 1112.10922653
v -206.58545208 -0.70917415 1100.99541100
v -203.62378444 -0.70917415 1097.72721130
v -200.57386097 -0.70917415 1094.76910635
v -211.53054795 -36.19142829 1113.26588241
v -210.42950171 -42.80854809 1114.67848727
v -192.37169439 10.46257966 1085.87510854
v -195.26431294 8.12319482 1088.49359431
v -195.26431294 9.13533706 1088.49359431
v -195.24896870 13.07887072 1088.53297786
v -203.40894745 5.22044874 1097.49096292
v -190.81411291 5.53554965 1085.87510854
v -190.87166263 1.22917294 1087.45507144
v -194.81544982 4.17966171 1088.78892684
v -192.62489199 5.77426227 1086.83982032
v -201.05723981 5.22044874 1094.53285796
f 1 2 3
f 1 3 4
f 1 4 5
f 1 5 6
f 1 6 2
f 2 6 7
f 2 7 8
f 2 8 9
f 2 9 3
f 3 9 10
f 3 10 11
f 3 11 12
f 3 12 13
f 3 13 14
f 3 14 4
f 4 15 5
f 4 14 15
f 5 16 17
f 5 17 18
f 5 18 19
f 5 19 20
f 5 20 6
f 5 15 16
f 6 21 7
f 6 20 22
f 6 22 21
f 7 21 23
f 7 23 24
f 7 24 8
f 8 25 10
f 8 10 9
f 8 24 26
f 8 26 27
f 8 27 28
f 8 28 29
f 8 29 25
f 10 25 11
f 11 25 30
f 11 30 31
f 11 31 32
f 11 32 12
f 12 32 33
f 12 33 34
f 12 34 35
f 12 35 36
f 12 36 37
f 12 37 13
f 13 37 14
f 14 37 38
f 14 38 15
f 15 39 16
f 15 38 39
f 16 39 40
f 16 40 41
f 16 41 18
f 16 18 17
f 18 41 42
f 18 42 43
f 18 43 19
f 19 43 20
f 20 43 44
f 20 44 23
f 20 23 22
f 21 22 23
f 23 44 45
f 23 45 46
f 23 46 47
f 23 47 48
f 23 48 49
f 23 49 50
f 23 50 24
f 24 50 51
f 24 51 52
f 24 52 26
f 25 29 30
f 26 52 27
f 27 52 51
f 27 51 50
f 27 50 49
f 27 49 48
f 27 48 47
f 27 47 68
f 27 68 86
f 27 86 70
f 27 70 53
f 27 53 30
f 27 30 29
f 27 29 28
f 30 53 69
f 30 69 76
f 30 76 75
f 30 75 74
f 30 74 71
f 30 71 54
f 30 54 31
f 31 54 34
f 31 34 55
f 31 55 56
f 31 56 32
f 32 56 33
f 33 56 55
f 33 55 34
f 34 54 57
f 34 57 58
f 34 58 35
f 35 58 37
f 35 37 36
f 37 58 59
f 37 59 38
f 38 59 60
f 38 60 61
f 38 61 39
f 39 62 63
f 39 63 40
f 39 61 62
f 40 63 41
f 41 63 64
f 41 64 42
f 42 64 43
f 43 65 66
f 43 66 44
f 43 64 65
f 44 66 45
f 45 66 46
f 46 66 67
f 46 67 68
f 46 68 47
f 53 70 94
f 53 94 93
f 53 93 69
f 54 71 58
f 54 58 57
f 58 72 73
f 58 73 59
f 58 71 74
f 58 74 75
f 58 75 76
f 58 76 72
f 59 73 60
f 60 73 61
f 61 73 77
f 61 77 78
f 61 78 79
f 61 79 62
f 62 79 80
f 62 80 63
f 63 81 64
f 63 80 81
f 64 82 65
f 64 81 83
f 64 83 82
f 65 82 66
f 66 82 84
f 66 84 85
f 66 85 67
f 67 85 68
f 68 85 86
f 69 87 88
f 69 88 89
f 69 89 90
f 69 90 91
f 69 91 92
f 69 92 76
f 69 93 87
f 70 86 84
f 70 84 95
f 70 95 96
f 70 96 94
f 72 97 73
f 72 76 97
f 73 97 98
f 73 98 77
f 76 92 97
f 77 99 78
f 77 98 99
f 78 99 100
f 78 100 101
f 78 101 102
f 78 102 103
f 78 103 79
f 79 96 104
f 79 104 80
f 79 103 96
f 80 104 83
f 80 83 81
f 82 95 84
f 82 83 95
f 83 104 96
f 83 96 95
f 84 86 85
f 87 93 105
f 87 105 106
f 87 106 107
f 87 107 108
f 87 108 88
f 88 108 89
f 89 108 90
f 90 108 109
f 90 109 91
f 91 109 97
f 91 97 92
f 93 94 110
f 93 110 105
f 94 111 110
f 94 96 111
f 96 103 112
f 96 112 113
f 96 113 110
f 96 110 111
f 97 109 98
f 98 109 100
f 98 100 99
f 100 109 114
f 100 114 101
f 101 114 106
f 101 106 102
f 102 106 112
f 102 112 103
f 105 110 113
f 105 113 112
f 105 112 106
f 106 114 107
f 107 114 108
f 108 114 109

