# https://github.com/mikedh/trimesh
v -81.47985826 185.25879334 1050.48385666
v -81.64557606 185.25879334 1056.07551825
v -114.03376612 185.25879334 1050.48385666
v -83.19757981 186.38770613 1050.48385666
v -88.67900097 191.67586041 1052.91517797
v -88.31569963 191.99066425 1055.94399871
v -88.26152299 192.05216467 1061.86259843
v -82.60482035 185.98607505 1059.38993586
v -82.29888354 185.25879334 1059.69432502
v -114.03376612 189.13219104 1050.48385666
v -114.03376612 185.25879334 1087.92698620
v -86.02114929 188.19504598 1050.48385666
v -91.68741122 191.43343905 1050.48385666
v -91.68741122 192.35430510 1051.91934560
v -99.73744936 197.89031295 1058.38283341
v -98.53281187 198.46563378 1061.86259843
v -95.57539476 197.16846346 1061.86259843
v -91.68741122 194.62117849 1061.86259843
v -95.14516960 197.16846346 1067.78119816
v -88.60888925 191.75908968 1065.06427997
v -89.51396132 190.03496147 1069.01001606
v -87.72294016 188.31083326 1067.33401938
v -88.55152913 186.09099791 1070.95281733
v -88.52603036 185.25879334 1070.97536631
v -101.44243255 191.98884763 1050.48385666
v -114.03376612 195.61439176 1057.29306607
v -112.44988780 197.57914235 1058.88263235
v -109.16741090 185.25879334 1085.73993813
v -114.03376612 187.16925707 1088.65977067
v -96.03749449 192.35792070 1050.48385666
v -97.60543774 193.04359659 1051.02874474
v -103.52027195 198.04047486 1058.17991906
v -103.52027195 199.67232599 1061.86259843
v -103.52027195 200.97492852 1067.78119816
v -98.09939881 198.83830481 1067.78119816
v -91.56631077 193.76906169 1067.33401938
v -99.43470045 198.23044361 1073.69604119
v -96.13947196 194.91245450 1074.25596486
v -93.45931381 193.15033607 1072.65511968
v -94.69581706 191.45153467 1076.60085577
v -94.29427416 187.50757111 1076.97664856
v -94.29427416 185.25879334 1076.97664856
v -97.60543774 192.60938987 1050.48385666
v -109.43829847 197.80710132 1058.55569421
v -114.03376612 198.56875765 1060.83294700
v -104.73446873 185.25879334 1083.66183417
v -112.64429226 188.68172295 1088.40424498
v -114.03376612 188.68172295 1088.87021604
v -109.43829847 199.78992989 1061.86259843
v -114.03376612 202.13278372 1067.13485290
v -114.03376612 202.50365577 1068.06303834
v -114.03376612 203.53307792 1070.77995653
v -109.43829847 202.16534173 1067.78119816
v -112.59967051 203.45166526 1071.05052663
v -112.12164452 203.60182717 1074.99625390
v -112.12164452 203.60182717 1076.95784745
v -103.52027195 200.22411898 1073.69604119
v -100.46086856 197.62436376 1076.73988869
v -99.04271684 194.59765066 1077.87476281
v -106.74857662 197.26435614 1082.32028902
v -103.25576018 195.01556074 1081.03135521
v -105.04996924 193.32219156 1083.49650440
v -101.28945753 188.68172295 1082.05349325
v -97.04454403 189.16113345 1078.79919155
v -104.25006694 188.68172295 1083.98501562
v -114.03376612 198.86726485 1061.31771035
v -114.03376612 199.14949305 1061.78744693
v -109.43829847 188.68172295 1086.85976784
v -114.03376612 194.83827303 1087.30319874
v -114.03376612 192.49360259 1087.96832746
v -109.00806890 195.01556074 1084.90944436
v -114.03376612 203.67055878 1072.45595321
v -114.03376612 203.74112465 1073.81629946
v -114.03376612 203.67960659 1077.19834637
v -114.03376612 202.92158349 1078.94575550
v -110.69392470 198.67549713 1083.63553732
v -109.43510616 200.64384567 1079.64095540
v -114.03376612 195.58906494 1086.88230800
v -114.03376612 199.25984812 1084.32322384
f 1 2 9
f 1 9 24
f 1 24 42
f 1 42 46
f 1 46 28
f 1 28 11
f 1 11 3
f 1 3 10
f 1 10 25
f 1 25 43
f 1 43 30
f 1 30 13
f 1 13 12
f 1 12 4
f 1 4 5
f 1 5 6
f 1 6 7
f 1 7 2
f 2 8 9
f 2 7 8
f 3 11 29
f 3 29 48
f 3 48 70
f 3 70 69
f 3 69 78
f 3 78 79
f 3 79 75
f 3 75 74
f 3 74 73
f 3 73 72
f 3 72 52
f 3 52 51
f 3 51 50
f 3 50 67
f 3 67 66
f 3 66 45
f 3 45 26
f 3 26 10
f 4 12 5
f 5 12 13
f 5 13 14
f 5 14 15
f 5 15 16
f 5 16 17
f 5 17 6
f 6 17 18
f 6 18 7
f 7 18 19
f 7 19 20
f 7 20 8
f 8 20 9
f 9 20 21
f 9 21 22
f 9 22 23
f 9 23 24
f 10 26 27
f 10 27 25
f 11 28 29
f 13 30 31
f 13 31 14
f 14 31 15
f 15 31 32
f 15 32 33
f 15 33 16
f 16 33 34
f 16 34 35
f 16 35 17
f 17 35 19
f 17 19 18
f 19 36 20
f 19 35 37
f 19 37 38
f 19 38 39
f 19 39 36
f 20 36 39
f 20 39 21
f 21 39 40
f 21 40 23
f 21 23 22
f 23 40 41
f 23 41 24
f 24 41 42
f 25 27 44
f 25 44 43
f 26 45 27
f 27 45 44
f 28 46 29
f 29 47 48
f 29 46 47
f 30 43 31
f 31 44 32
f 31 43 44
f 32 44 49
f 32 49 33
f 33 49 50
f 33 50 51
f 33 51 52
f 33 52 53
f 33 53 34
f 34 53 54
f 34 54 55
f 34 55 56
f 34 56 35
f 35 57 37
f 35 56 57
f 37 57 56
f 37 56 58
f 37 58 38
f 38 58 40
f 38 40 39
f 40 58 59
f 40 59 60
f 40 60 61
f 40 61 62
f 40 62 63
f 40 63 64
f 40 64 41
f 41 64 63
f 41 63 42
f 42 63 65
f 42 65 46
f 44 45 66
f 44 66 67
f 44 67 49
f 46 65 68
f 46 68 47
f 47 69 70
f 47 70 48
f 47 68 62
f 47 62 71
f 47 71 69
f 49 67 50
f 52 72 54
f 52 54 53
f 54 72 73
f 54 73 55
f 55 73 56
f 56 74 75
f 56 75 76
f 56 76 77
f 56 77 58
f 56 73 74
f 58 77 76
f 58 76 60
f 58 60 59
f 60 76 71
f 60 71 62
f 60 62 61
f 62 68 65
f 62 65 63
f 69 71 76
f 69 76 78
f 75 79 76
f 76 79 78

