# https://github.com/mikedh/trimesh
v -0.13848361 1.66321571 -0.55279115
v -0.13848361 1.66325830 -0.60714562
v 0.16268050 1.68387537 -0.60714562
v -0.13848361 1.66321571 0.63974984
v -0.13848361 1.67664875 -0.65035489
v 0.16268050 1.68795636 -0.75306262
v 0.16268050 1.68774376 -0.74826155
v 0.16268050 1.68642601 -0.71568317
v 0.16268050 1.68387537 0.66924185
v -0.13848361 1.66325830 0.64232181
v -0.13848361 1.71716047 -0.66835878
v 0.16268050 1.73484444 -0.80261606
v 0.16268050 1.70921110 -0.77843947
v 0.16268050 1.68523570 0.72308196
v -0.13848361 1.67588358 0.68347350
v 0.16268050 1.68795636 0.78841020
v -0.13848361 1.71979604 -0.66853018
v 0.16268050 2.04312416 -0.85799936
v 0.16268050 2.03755540 -0.85714205
v 0.16268050 2.00975409 -0.85285541
v 0.16268050 1.97570389 -0.84719703
v 0.16268050 1.94692488 -0.84239596
v 0.16268050 1.77148770 -0.81290395
v -0.13848361 1.67664875 0.68570252
v 0.16268050 1.69071945 0.79475441
v -0.13848361 1.77148770 -0.67041636
v 0.16268050 2.06939508 -0.85817083
v -0.13848361 1.71511998 0.70284906
v 0.16268050 1.70921110 0.81378705
v 0.16268050 1.73484444 0.83796372
v 0.16268050 1.74122088 0.84087861
v -0.13848361 1.98879685 -0.67041636
v 0.16268050 2.07317845 -0.85645613
v -0.13848361 2.04312416 -0.65995695
v -0.13848361 1.71716047 0.70370637
v 0.16268050 1.77148770 0.84808013
v 0.16268050 2.07972491 -0.83708054
v -0.13848361 2.07470880 -0.64178162
v -0.13848361 1.76885213 0.70576395
v 0.16268050 1.78942678 0.85116650
v 0.16268050 1.82581501 0.85733924
v 0.16268050 1.97570389 0.88254469
v 0.16268050 2.01043425 0.88837447
v 0.16268050 2.04312416 0.89317554
v 0.16268050 2.08210545 -0.82439211
v -0.13848361 2.07912979 -0.60714562
v 0.16268050 2.09451828 -0.74260325
v 0.16268050 2.08724915 -0.79524305
v -0.13848361 1.98879685 0.70576395
v 0.16268050 2.07317845 0.89163232
v -0.02713897 2.08818435 -0.60714562
v -0.13848361 2.07912979 0.64232181
v 0.16268050 2.09736641 -0.68824873
v 0.02716255 2.09256283 -0.60714562
v 0.13582453 2.09728140 -0.66132866
v -0.13848361 2.04044604 0.69599045
v 0.16268050 2.08210545 0.85973977
v -0.13848361 2.07470880 0.67712925
v -0.13848361 2.07326346 0.67798660
v -0.13848361 2.04312416 0.69530457
v -0.02713897 2.08818435 0.64232181
v -0.13848361 2.07904474 0.64386499
v 0.13582453 2.09749397 -0.60714562
v 0.16268050 2.09749397 -0.63389422
v 0.08149354 2.09613364 -0.60714562
v 0.02716255 2.09256283 0.64232181
v 0.16268050 2.08975720 0.80349916
v 0.13582453 2.09728140 0.69667632
v 0.13582453 2.09749397 0.64232181
v 0.16268050 2.09749397 0.64232181
v 0.08149354 2.09613364 0.64232181
v 0.16268050 2.09451828 0.75103083
v 0.16268050 2.09736641 0.69667632
f 1 2 3
f 1 3 9
f 1 9 4
f 1 4 10
f 1 10 15
f 1 15 24
f 1 24 28
f 1 28 35
f 1 35 39
f 1 39 49
f 1 49 56
f 1 56 60
f 1 60 59
f 1 59 58
f 1 58 62
f 1 62 52
f 1 52 46
f 1 46 38
f 1 38 34
f 1 34 32
f 1 32 26
f 1 26 17
f 1 17 11
f 1 11 5
f 1 5 2
f 2 5 6
f 2 6 7
f 2 7 8
f 2 8 3
f 3 8 7
f 3 7 6
f 3 6 13
f 3 13 12
f 3 12 23
f 3 23 22
f 3 22 21
f 3 21 20
f 3 20 19
f 3 19 18
f 3 18 27
f 3 27 33
f 3 33 37
f 3 37 45
f 3 45 48
f 3 48 47
f 3 47 53
f 3 53 64
f 3 64 70
f 3 70 73
f 3 73 72
f 3 72 67
f 3 67 57
f 3 57 50
f 3 50 44
f 3 44 43
f 3 43 42
f 3 42 41
f 3 41 40
f 3 40 36
f 3 36 31
f 3 31 30
f 3 30 29
f 3 29 25
f 3 25 16
f 3 16 14
f 3 14 9
f 4 9 10
f 5 11 12
f 5 12 13
f 5 13 6
f 9 14 10
f 10 14 16
f 10 16 15
f 11 17 18
f 11 18 19
f 11 19 20
f 11 20 21
f 11 21 22
f 11 22 23
f 11 23 12
f 15 16 24
f 16 25 24
f 17 26 18
f 18 26 27
f 24 25 29
f 24 29 30
f 24 30 31
f 24 31 28
f 26 32 27
f 27 32 34
f 27 34 33
f 28 31 35
f 31 36 35
f 33 34 38
f 33 38 37
f 35 36 40
f 35 40 41
f 35 41 42
f 35 42 43
f 35 43 44
f 35 44 39
f 37 38 45
f 38 46 47
f 38 47 48
f 38 48 45
f 39 44 49
f 44 50 49
f 46 51 47
f 46 52 61
f 46 61 51
f 47 51 54
f 47 54 55
f 47 55 53
f 49 50 56
f 50 57 58
f 50 58 59
f 50 59 60
f 50 60 56
f 51 61 66
f 51 66 54
f 52 62 61
f 53 55 63
f 53 63 64
f 54 65 55
f 54 66 71
f 54 71 65
f 55 65 63
f 57 67 58
f 58 67 62
f 61 62 68
f 61 68 66
f 62 67 68
f 63 65 71
f 63 71 69
f 63 69 70
f 63 70 64
f 66 68 71
f 67 72 68
f 68 73 69
f 68 69 71
f 68 72 73
f 69 73 70

