# https://github.com/mikedh/trimesh
v -0.04809977 0.10074619 -0.00049221
v -0.04138444 0.10074619 -0.00049221
v -0.04809391 0.10074619 -0.00140834
v -0.03688021 0.02411716 -0.00140834
v -0.03687826 0.02411716 -0.00117144
v -0.03687240 0.02411716 -0.00049221
v -0.03653253 0.10074619 -0.01939965
v -0.04103481 0.09972607 -0.00049221
v -0.03619657 0.09998861 -0.01939965
v -0.04788491 0.10074619 -0.00421780
v -0.03669856 0.02411716 -0.00438807
v -0.03403626 0.02411716 -0.00049221
v -0.04391783 0.10074619 -0.01939965
v -0.04032382 0.09692075 -0.00049221
v -0.03538010 0.09699575 -0.01939965
v -0.03600124 0.09939603 -0.01939965
v -0.04786538 0.10074619 -0.00440103
v -0.03662043 0.02411716 -0.00517095
v -0.02814716 0.02411716 -0.01939965
v -0.03505977 0.04073912 -0.00049221
v -0.04438075 0.10074619 -0.01837803
v -0.03174313 0.02411716 -0.01939965
v -0.03407532 0.02411716 -0.01490414
v -0.03565942 0.04825500 -0.00049221
v -0.02975861 0.04458707 -0.01939965
v -0.02993440 0.04635728 -0.01939965
v -0.03000667 0.04705486 -0.01939965
v -0.04773646 0.10074619 -0.00558182
v -0.03653839 0.02411716 -0.00583908
v -0.02919216 0.03793378 -0.01939965
v -0.03525900 0.04355195 -0.00049221
v -0.04451553 0.10074619 -0.01806340
v -0.03488983 0.02411716 -0.01264435
v -0.04552146 0.10074619 -0.01538164
v -0.04496673 0.10074619 -0.01690667
v -0.03547777 0.04635728 -0.00049221
v -0.02952617 0.04210428 -0.01939965
v -0.04766614 0.10074619 -0.00610374
v -0.04755871 0.10074619 -0.00687736
v -0.04748449 0.10074619 -0.00731229
v -0.04725010 0.10074619 -0.00860968
v -0.04702742 0.10074619 -0.00983673
v -0.04638480 0.10074619 -0.01255551
v -0.02929959 0.03933645 -0.01939965
v -0.03540550 0.04544217 -0.00049221
v -0.02940311 0.04067911 -0.01939965
f 1 2 7
f 1 7 13
f 1 13 21
f 1 21 32
f 1 32 35
f 1 35 34
f 1 34 43
f 1 43 42
f 1 42 41
f 1 41 40
f 1 40 39
f 1 39 38
f 1 38 28
f 1 28 17
f 1 17 10
f 1 10 3
f 1 3 4
f 1 4 5
f 1 5 6
f 1 6 12
f 1 12 20
f 1 20 31
f 1 31 45
f 1 45 36
f 1 36 24
f 1 24 14
f 1 14 8
f 1 8 2
f 2 8 9
f 2 9 7
f 3 10 11
f 3 11 4
f 4 11 18
f 4 18 29
f 4 29 33
f 4 33 23
f 4 23 22
f 4 22 19
f 4 19 12
f 4 12 6
f 4 6 5
f 7 9 16
f 7 16 15
f 7 15 27
f 7 27 26
f 7 26 25
f 7 25 37
f 7 37 46
f 7 46 44
f 7 44 30
f 7 30 19
f 7 19 22
f 7 22 13
f 8 14 15
f 8 15 16
f 8 16 9
f 10 17 18
f 10 18 11
f 12 19 20
f 13 22 23
f 13 23 21
f 14 24 25
f 14 25 26
f 14 26 27
f 14 27 15
f 17 28 18
f 18 28 29
f 19 30 31
f 19 31 20
f 21 23 32
f 23 33 34
f 23 34 35
f 23 35 32
f 24 36 25
f 25 36 37
f 28 38 29
f 29 38 39
f 29 39 40
f 29 40 41
f 29 41 42
f 29 42 43
f 29 43 33
f 30 44 31
f 31 44 46
f 31 46 45
f 33 43 34
f 36 45 46
f 36 46 37

