# https://github.com/mikedh/trimesh
v -0.02478741 -0.01660601 -0.03788875
v -0.02478741 -0.01660601 -0.03404513
v -0.02478741 -0.01548588 -0.03766469
v -0.02257454 -0.01651831 -0.03939709
v -0.02258449 -0.01660601 -0.03940402
v 0.00061337 -0.01660601 -0.04309519
v -0.02478741 0.00305001 -0.02282150
v -0.02478741 -0.01422225 -0.03738289
v -0.02121698 -0.01552973 -0.03995839
v -0.02250244 -0.01660601 -0.03944791
v -0.02056804 0.02411715 -0.03154586
v -0.01837008 0.02411715 -0.03295026
v -0.01696529 0.02411715 -0.03377950
v 0.00061337 -0.01660601 -0.04580697
v 0.00061337 0.00140769 -0.03549342
v -0.02478741 0.00417811 -0.02250966
v -0.02478741 0.02411715 -0.02810878
v -0.02377049 0.02411715 -0.02900501
v -0.02365363 0.02411715 -0.02910433
v -0.02197284 0.02411715 -0.03050873
v -0.01701999 -0.01643061 -0.04221743
v -0.01704982 -0.01660601 -0.04223129
v -0.02023238 -0.01660601 -0.04062363
v -0.02115482 -0.01660601 -0.04014780
v -0.02042134 -0.01263972 -0.03975281
v -0.01544611 0.02411715 -0.03451865
v -0.00140059 -0.01660601 -0.04577694
v 0.00061337 -0.01544602 -0.04562911
v 0.00061337 0.00342073 -0.03497832
v 0.00061337 0.00421399 -0.03477736
v -0.02478741 0.00470429 -0.02244961
v -0.02478741 0.02411715 -0.02375237
v -0.01558038 -0.01547392 -0.04261011
v -0.01687080 -0.01660601 -0.04230059
v -0.00943158 0.02411715 -0.03682159
v -0.00421019 -0.01660601 -0.04555519
v -0.00140059 -0.01544602 -0.04559908
v 0.00061337 -0.01478829 -0.04550438
v 0.00061337 0.00702427 -0.03478198
v -0.02478741 0.00702427 -0.02220938
v -0.02478741 0.02402946 -0.02374313
v 0.00061337 0.02411715 -0.03503837
v -0.01263651 -0.01544602 -0.04351789
v -0.01552567 -0.01660601 -0.04280414
v -0.01464799 -0.01263972 -0.04237451
v -0.01263651 -0.01263972 -0.04303744
v -0.00701979 0.02411715 -0.03741522
v -0.00806407 -0.01660601 -0.04497311
v -0.00421019 -0.01544602 -0.04537733
v -0.00588103 -0.01660601 -0.04531728
v -0.00566223 -0.01400301 -0.04495925
v -0.00421019 -0.01363229 -0.04504240
v -0.00421019 0.02411715 -0.03786334
v -0.00163680 0.02411715 -0.03803427
v -0.00140059 -0.01312206 -0.04515559
v -0.00140059 0.02411715 -0.03804351
v 0.00061337 0.02411715 -0.03806661
v 0.00061337 0.02106770 -0.03495984
v -0.02478741 0.00732722 -0.02223017
v 0.00061337 0.02387798 -0.03502682
v -0.02478741 0.01561057 -0.02290927
v -0.02478741 0.00983056 -0.02241496
v -0.00867075 -0.01660601 -0.04481142
v -0.00444640 0.02411715 -0.03782638
v -0.00676618 -0.01572505 -0.04505857
v -0.00685569 -0.01660601 -0.04517637
f 1 2 7
f 1 7 16
f 1 16 31
f 1 31 40
f 1 40 59
f 1 59 62
f 1 62 61
f 1 61 41
f 1 41 32
f 1 32 17
f 1 17 8
f 1 8 3
f 1 3 4
f 1 4 5
f 1 5 10
f 1 10 24
f 1 24 23
f 1 23 22
f 1 22 34
f 1 34 44
f 1 44 63
f 1 63 48
f 1 48 66
f 1 66 50
f 1 50 36
f 1 36 27
f 1 27 14
f 1 14 6
f 1 6 2
f 2 6 7
f 3 8 4
f 4 9 10
f 4 10 5
f 4 8 11
f 4 11 12
f 4 12 13
f 4 13 9
f 6 14 28
f 6 28 38
f 6 38 57
f 6 57 42
f 6 42 60
f 6 60 58
f 6 58 39
f 6 39 30
f 6 30 29
f 6 29 15
f 6 15 7
f 7 15 16
f 8 17 18
f 8 18 19
f 8 19 20
f 8 20 11
f 9 21 22
f 9 22 23
f 9 23 24
f 9 24 10
f 9 13 25
f 9 25 21
f 11 20 19
f 11 19 18
f 11 18 17
f 11 17 32
f 11 32 42
f 11 42 57
f 11 57 56
f 11 56 54
f 11 54 53
f 11 53 64
f 11 64 47
f 11 47 35
f 11 35 26
f 11 26 13
f 11 13 12
f 13 26 21
f 13 21 25
f 14 27 37
f 14 37 28
f 15 29 16
f 16 29 30
f 16 30 31
f 21 33 34
f 21 34 22
f 21 26 33
f 26 35 33
f 27 36 49
f 27 49 37
f 28 37 38
f 30 39 40
f 30 40 31
f 32 41 42
f 33 43 44
f 33 44 34
f 33 35 45
f 33 45 46
f 33 46 43
f 35 47 48
f 35 48 46
f 35 46 45
f 36 50 51
f 36 51 49
f 37 49 52
f 37 52 53
f 37 53 54
f 37 54 55
f 37 55 38
f 38 55 56
f 38 56 57
f 39 58 40
f 40 58 60
f 40 60 42
f 40 42 59
f 41 61 42
f 42 61 62
f 42 62 59
f 43 63 44
f 43 46 63
f 46 48 63
f 47 64 51
f 47 51 48
f 48 65 66
f 48 51 65
f 49 51 52
f 50 66 65
f 50 65 51
f 51 64 53
f 51 53 52
f 54 56 55

