# https://github.com/mikedh/trimesh
v -0.04117177 -0.02099394 -0.00130626
v -0.02478742 -0.02099394 -0.03474516
v -0.04379995 -0.02099394 -0.00130626
v -0.03579161 -0.05758792 -0.00130626
v -0.02478742 -0.02099394 -0.03856306
v -0.03546332 -0.06039409 -0.00130626
v -0.02478742 -0.05758792 -0.02750406
v -0.04379995 -0.02099394 -0.00140955
v -0.04380183 -0.02106978 -0.00130626
v -0.02482493 -0.02099394 -0.03853724
v -0.02478742 -0.02106978 -0.03857044
v -0.03545770 -0.06049522 -0.00130626
v -0.02478742 -0.06039409 -0.02709461
v -0.04378307 -0.02099394 -0.00421672
v -0.04380183 -0.02106978 -0.00140955
v -0.04386936 -0.02388016 -0.00140955
v -0.04386561 -0.02377904 -0.00130626
v -0.02643261 -0.02099394 -0.03738634
v -0.02643823 -0.02106978 -0.03739372
v -0.02478742 -0.02367370 -0.03878808
v -0.03532451 -0.06320448 -0.00130626
v -0.02478742 -0.06320448 -0.02694337
v -0.04372116 -0.02099394 -0.00695380
v -0.04378494 -0.02106978 -0.00421672
v -0.04392564 -0.02668633 -0.00140955
v -0.04392189 -0.02658521 -0.00130626
v -0.02783580 -0.02099394 -0.03626495
v -0.02784330 -0.02106978 -0.03626863
v -0.02659956 -0.02388016 -0.03748962
v -0.02807404 -0.02552763 -0.03650103
v -0.02800276 -0.02388016 -0.03641250
v -0.02478742 -0.02388016 -0.03880283
v -0.03532451 -0.06330560 -0.00130626
v -0.02478742 -0.06389127 -0.02693968
v -0.04371553 -0.02099394 -0.00702758
v -0.04372116 -0.02106978 -0.00702758
v -0.04384122 -0.02388016 -0.00421672
v -0.04392376 -0.02668633 -0.00130626
v -0.04388437 -0.02668633 -0.00421672
v -0.04395003 -0.02949672 -0.00140955
v -0.04395003 -0.02949672 -0.00130626
v -0.02787895 -0.02099394 -0.03622806
v -0.03091420 -0.02234646 -0.03372706
v -0.02478742 -0.02668633 -0.03893194
v -0.02812469 -0.02740262 -0.03654898
v -0.02923337 -0.02655571 -0.03551612
v -0.03106427 -0.02668633 -0.03387830
v -0.03097798 -0.02388016 -0.03378977
v -0.03532638 -0.06403874 -0.00130626
v -0.02478742 -0.06403874 -0.02693968
v -0.04338725 -0.02099394 -0.00976466
v -0.04338349 -0.02106978 -0.00983844
v -0.04352419 -0.02388016 -0.00983844
v -0.04360486 -0.02668633 -0.00983844
v -0.04377556 -0.02388016 -0.00702758
v -0.04379432 -0.02668633 -0.00702758
v -0.04389562 -0.02949672 -0.00421672
v -0.04393502 -0.03230710 -0.00140955
v -0.04393314 -0.03230710 -0.00130626
v -0.02964982 -0.02099394 -0.03464925
v -0.03368119 -0.02566246 -0.03088300
v -0.03357989 -0.02388016 -0.03080184
v -0.03343357 -0.02106978 -0.03063216
v -0.03194783 -0.02099394 -0.03231794
v -0.03144884 -0.02099394 -0.03288601
v -0.03007003 -0.02099394 -0.03427300
v -0.02478742 -0.02949672 -0.03899096
v -0.02815283 -0.02949672 -0.03657480
v -0.02955790 -0.02949672 -0.03532062
v -0.03110367 -0.02949672 -0.03391518
v -0.03250874 -0.02949672 -0.03235851
v -0.03372622 -0.02753745 -0.03092357
v -0.03270008 -0.02663577 -0.03204128
v -0.03811401 -0.06403874 -0.00130626
v -0.02478742 -0.06403874 -0.03115228
v -0.04337599 -0.02099394 -0.00983844
v -0.04274193 -0.02106978 -0.01264561
v -0.04295391 -0.02388016 -0.01264561
v -0.04309835 -0.02668633 -0.01264561
v -0.04273443 -0.02099394 -0.01264930
v -0.04315838 -0.02949672 -0.01264561
v -0.04363487 -0.02949672 -0.00983844
v -0.04379432 -0.02949672 -0.00702758
v -0.04387686 -0.03230710 -0.00421672
v -0.04383372 -0.03511749 -0.00421672
v -0.04377556 -0.03792366 -0.00421672
v -0.04387499 -0.03511749 -0.00140955
v -0.04387311 -0.03511749 -0.00130626
v -0.03607300 -0.02388016 -0.02749669
v -0.03599234 -0.02106978 -0.02736758
v -0.03458727 -0.02106978 -0.02922673
v -0.03458351 -0.02099394 -0.02921935
v -0.03345983 -0.02099394 -0.03058789
v -0.03342794 -0.02099394 -0.03062478
v -0.02478742 -0.03230710 -0.03897252
v -0.02482118 -0.03230710 -0.03895039
v -0.02813970 -0.03230710 -0.03656374
v -0.02954477 -0.03230710 -0.03530586
v -0.03108866 -0.03230710 -0.03390043
v -0.03249373 -0.03230710 -0.03235483
v -0.03375060 -0.02949672 -0.03095677
v -0.03374497 -0.03230710 -0.03094940
v -0.03610677 -0.02668633 -0.02758153
v -0.03715354 -0.02949672 -0.02623143
v -0.03811401 -0.06403874 -0.00140955
v -0.04282822 -0.04635060 -0.00130626
v -0.04283197 -0.04635060 -0.00140955
v -0.02478742 -0.04583656 -0.03697688
v -0.02479304 -0.06403874 -0.03114859
v -0.02547401 -0.04539414 -0.03667071
v -0.04226357 -0.02106978 -0.01450107
v -0.04236674 -0.02388016 -0.01478511
v -0.04243427 -0.02668633 -0.01494004
v -0.04246429 -0.02949672 -0.01505070
v -0.04225981 -0.02099394 -0.01449000
v -0.04247367 -0.03230710 -0.01510234
v -0.04315276 -0.03230710 -0.01264561
v -0.04361236 -0.03230710 -0.00983844
v -0.04377556 -0.03230710 -0.00702758
v -0.04375305 -0.03511749 -0.00702758
v -0.04368739 -0.03792366 -0.00702758
v -0.04368364 -0.04073404 -0.00421672
v -0.04373617 -0.04073404 -0.00140955
v -0.04373429 -0.04073404 -0.00130626
v -0.03711227 -0.02668633 -0.02617610
v -0.03705411 -0.02388016 -0.02609125
v -0.03696969 -0.02106978 -0.02596584
v -0.03601297 -0.02099394 -0.02732700
v -0.03598671 -0.02099394 -0.02736389
v -0.02478742 -0.03510906 -0.03886923
v -0.02810593 -0.03390401 -0.03653423
v -0.03372059 -0.03387451 -0.03091620
v -0.03100987 -0.03511749 -0.03382296
v -0.03716854 -0.03230710 -0.02624250
v -0.03855861 -0.02949672 -0.02397020
v -0.03857361 -0.03230710 -0.02399233
v -0.03810276 -0.06403874 -0.00421672
v -0.04345478 -0.04354021 -0.00130626
v -0.04345853 -0.04354021 -0.00140955
v -0.04334973 -0.04354021 -0.00421672
v -0.04270629 -0.04635060 -0.00421672
v -0.02478742 -0.04348122 -0.03760767
v -0.02520950 -0.06403874 -0.03081660
v -0.02840045 -0.04578178 -0.03401109
v -0.02720549 -0.04354021 -0.03577434
v -0.02580042 -0.04354021 -0.03691786
v -0.03987551 -0.02106978 -0.02077940
v -0.03989427 -0.02099394 -0.02071300
v -0.03982673 -0.02414982 -0.02127369
v -0.04002371 -0.02668633 -0.02107081
v -0.04009312 -0.02949672 -0.02107081
v -0.04011938 -0.03230710 -0.02107081
v -0.04242865 -0.03511749 -0.01497324
v -0.04305333 -0.03511749 -0.01264561
v -0.04355045 -0.03511749 -0.00983844
v -0.04340225 -0.03792366 -0.00983844
v -0.04348667 -0.04073404 -0.00702758
v -0.04346604 -0.04343909 -0.00130626
v -0.03851733 -0.02668633 -0.02391487
v -0.03932586 -0.02526639 -0.02247624
v -0.03696594 -0.02099394 -0.02595846
v -0.02692035 -0.03495316 -0.03732363
v -0.02478742 -0.03792366 -0.03862578
v -0.02646825 -0.03792366 -0.03741585
v -0.02801589 -0.03577900 -0.03642356
v -0.03093671 -0.03682816 -0.03374919
v -0.03360428 -0.03574530 -0.03082398
v -0.03460040 -0.03792366 -0.02927468
v -0.03600547 -0.03792366 -0.02740078
v -0.03610302 -0.03511749 -0.02757415
v -0.03712540 -0.03511749 -0.02616872
v -0.03937464 -0.02949672 -0.02256477
v -0.03934462 -0.02668633 -0.02250944
v -0.03938589 -0.03230710 -0.02258690
v -0.03936526 -0.03439277 -0.02255002
v -0.03805961 -0.06403874 -0.00505038
v -0.04305521 -0.04354021 -0.00702758
v -0.04240614 -0.04638852 -0.00686158
v -0.04216227 -0.04784638 -0.00581396
v -0.03795456 -0.06403874 -0.00702758
v -0.02478742 -0.04073404 -0.03820894
v -0.02804965 -0.06403874 -0.02805738
v -0.03019759 -0.04354021 -0.03300774
v -0.02879252 -0.04354021 -0.03436891
v -0.02759943 -0.04073404 -0.03609895
v -0.02619624 -0.04073404 -0.03721297
v -0.03987176 -0.02099394 -0.02077202
v -0.03989802 -0.03524389 -0.02133271
v -0.03989614 -0.03792366 -0.02087161
v -0.04231797 -0.03792366 -0.01463018
v -0.04284323 -0.03792366 -0.01264561
v -0.04310773 -0.04073404 -0.00983844
v -0.02787144 -0.03792366 -0.03629446
v -0.03347484 -0.03792366 -0.03067643
v -0.03079789 -0.03870315 -0.03361270
v -0.03327974 -0.04073404 -0.03041083
v -0.03440530 -0.04073404 -0.02900540
v -0.03700721 -0.03792366 -0.02599904
v -0.03581037 -0.04073404 -0.02713150
v -0.03682150 -0.04073404 -0.02572607
v -0.03865803 -0.03524389 -0.02364559
v -0.03927334 -0.03626776 -0.02244304
v -0.04264250 -0.04354021 -0.00983844
v -0.04213975 -0.04496858 -0.01126600
v -0.04225044 -0.04536465 -0.00983844
v -0.03782324 -0.06403874 -0.00786124
v -0.03058028 -0.06403874 -0.02494773
v -0.03385190 -0.04534358 -0.02827502
v -0.03295333 -0.04354021 -0.03000875
v -0.03118996 -0.04573543 -0.03121130
v -0.03154826 -0.04354021 -0.03160231
v -0.03059154 -0.04073404 -0.03340244
v -0.02918647 -0.04073404 -0.03469352
v -0.03971793 -0.04073404 -0.02049167
v -0.04059024 -0.04073404 -0.01826364
v -0.04221291 -0.03989977 -0.01429819
v -0.04247742 -0.04079724 -0.01280792
v -0.04227857 -0.04354021 -0.01181563
v -0.03187655 -0.04073404 -0.03199701
v -0.03410891 -0.04354021 -0.02860332
v -0.03664516 -0.04268067 -0.02547154
v -0.04047205 -0.04635060 -0.01545647
v -0.03685902 -0.06403874 -0.01240584
v -0.03731674 -0.06403874 -0.01060202
v -0.03750996 -0.06403874 -0.00983844
v -0.03131190 -0.06403874 -0.02395913
v -0.03635627 -0.04455566 -0.02513217
v -0.03161955 -0.06403874 -0.02354230
v -0.03724358 -0.04358656 -0.02406980
v -0.03951533 -0.04301774 -0.02007115
v -0.04000307 -0.04378881 -0.01852923
v -0.03699783 -0.04635060 -0.02329146
v -0.03969354 -0.04635060 -0.01775090
v -0.03462103 -0.06403874 -0.01826364
v -0.03302462 -0.06403874 -0.02129951
v -0.03882687 -0.04378881 -0.02103023
v -0.03928271 -0.04489274 -0.01964325
v -0.03383314 -0.06403874 -0.01989777
v -0.03438654 -0.06403874 -0.01875056
f 1 2 5
f 1 5 10
f 1 10 18
f 1 18 27
f 1 27 42
f 1 42 60
f 1 60 66
f 1 66 65
f 1 65 64
f 1 64 94
f 1 94 93
f 1 93 92
f 1 92 129
f 1 129 128
f 1 128 161
f 1 161 187
f 1 187 148
f 1 148 115
f 1 115 80
f 1 80 76
f 1 76 51
f 1 51 35
f 1 35 23
f 1 23 14
f 1 14 8
f 1 8 3
f 1 3 9
f 1 9 17
f 1 17 26
f 1 26 38
f 1 38 41
f 1 41 59
f 1 59 88
f 1 88 124
f 1 124 158
f 1 158 138
f 1 138 106
f 1 106 74
f 1 74 49
f 1 49 33
f 1 33 21
f 1 21 12
f 1 12 6
f 1 6 4
f 1 4 2
f 2 4 6
f 2 6 7
f 2 7 13
f 2 13 22
f 2 22 34
f 2 34 50
f 2 50 75
f 2 75 108
f 2 108 142
f 2 142 181
f 2 181 163
f 2 163 130
f 2 130 95
f 2 95 67
f 2 67 44
f 2 44 32
f 2 32 20
f 2 20 11
f 2 11 5
f 3 8 15
f 3 15 9
f 5 11 10
f 6 12 13
f 6 13 7
f 8 14 24
f 8 24 15
f 9 15 16
f 9 16 17
f 10 11 19
f 10 19 18
f 11 20 19
f 12 21 13
f 13 21 22
f 14 23 24
f 15 24 16
f 16 25 26
f 16 26 17
f 16 24 25
f 18 19 27
f 19 28 27
f 19 20 29
f 19 29 30
f 19 30 31
f 19 31 28
f 20 32 29
f 21 33 50
f 21 50 34
f 21 34 22
f 23 35 36
f 23 36 24
f 24 36 37
f 24 37 25
f 25 38 26
f 25 37 39
f 25 39 40
f 25 40 41
f 25 41 38
f 27 28 42
f 28 31 43
f 28 43 42
f 29 32 30
f 30 44 45
f 30 45 46
f 30 46 47
f 30 47 48
f 30 48 43
f 30 43 31
f 30 32 44
f 33 49 50
f 35 51 36
f 36 52 53
f 36 53 54
f 36 54 55
f 36 55 37
f 36 51 52
f 37 55 39
f 39 56 57
f 39 57 40
f 39 55 56
f 40 57 58
f 40 58 41
f 41 58 59
f 42 43 60
f 43 48 61
f 43 61 62
f 43 62 63
f 43 63 64
f 43 64 65
f 43 65 66
f 43 66 60
f 44 67 68
f 44 68 45
f 45 47 46
f 45 68 69
f 45 69 47
f 47 69 70
f 47 70 71
f 47 71 72
f 47 72 73
f 47 73 61
f 47 61 48
f 49 74 105
f 49 105 137
f 49 137 176
f 49 176 180
f 49 180 206
f 49 206 225
f 49 225 224
f 49 224 223
f 49 223 234
f 49 234 239
f 49 239 238
f 49 238 235
f 49 235 228
f 49 228 226
f 49 226 207
f 49 207 182
f 49 182 143
f 49 143 109
f 49 109 75
f 49 75 50
f 51 76 52
f 52 77 78
f 52 78 79
f 52 79 53
f 52 76 80
f 52 80 77
f 53 79 54
f 54 79 81
f 54 81 82
f 54 82 55
f 55 82 56
f 56 82 83
f 56 83 57
f 57 83 119
f 57 119 84
f 57 84 58
f 58 84 85
f 58 85 86
f 58 86 87
f 58 87 88
f 58 88 59
f 61 73 72
f 61 72 89
f 61 89 90
f 61 90 91
f 61 91 62
f 62 91 63
f 63 91 92
f 63 92 93
f 63 93 94
f 63 94 64
f 67 95 96
f 67 96 68
f 68 96 97
f 68 97 69
f 69 97 98
f 69 98 70
f 70 98 99
f 70 99 100
f 70 100 71
f 71 101 72
f 71 100 102
f 71 102 101
f 72 103 89
f 72 101 104
f 72 104 103
f 74 106 107
f 74 107 105
f 75 109 110
f 75 110 108
f 77 111 78
f 77 80 111
f 78 112 79
f 78 111 112
f 79 112 113
f 79 113 114
f 79 114 81
f 80 115 111
f 81 114 116
f 81 116 117
f 81 117 82
f 82 117 118
f 82 118 120
f 82 120 119
f 82 119 83
f 84 119 120
f 84 120 85
f 85 120 86
f 86 121 122
f 86 122 123
f 86 123 87
f 86 120 121
f 87 123 124
f 87 124 88
f 89 103 125
f 89 125 126
f 89 126 90
f 90 126 127
f 90 127 128
f 90 128 129
f 90 129 91
f 91 129 92
f 95 130 96
f 96 130 131
f 96 131 97
f 97 131 98
f 98 131 99
f 99 132 100
f 99 131 133
f 99 133 132
f 100 132 102
f 101 102 134
f 101 134 104
f 102 132 134
f 103 104 125
f 104 135 159
f 104 159 125
f 104 134 136
f 104 136 135
f 105 107 137
f 106 138 139
f 106 139 107
f 107 139 140
f 107 140 141
f 107 141 137
f 108 110 142
f 109 143 110
f 110 144 145
f 110 145 146
f 110 146 142
f 110 143 144
f 111 147 112
f 111 115 148
f 111 148 147
f 112 149 150
f 112 150 113
f 112 147 149
f 113 150 114
f 114 150 151
f 114 151 116
f 116 151 152
f 116 152 153
f 116 153 117
f 117 153 154
f 117 154 155
f 117 155 118
f 118 155 120
f 120 155 121
f 121 156 157
f 121 157 122
f 121 155 156
f 122 157 140
f 122 140 139
f 122 139 123
f 123 139 124
f 124 139 158
f 125 159 126
f 126 159 160
f 126 160 127
f 127 160 147
f 127 147 187
f 127 187 161
f 127 161 128
f 130 162 131
f 130 163 164
f 130 164 162
f 131 162 164
f 131 164 165
f 131 165 166
f 131 166 133
f 132 133 166
f 132 166 167
f 132 167 168
f 132 168 169
f 132 169 170
f 132 170 171
f 132 171 134
f 134 171 136
f 135 172 173
f 135 173 159
f 135 136 172
f 136 174 172
f 136 171 175
f 136 175 174
f 137 141 176
f 138 158 139
f 140 177 141
f 140 157 177
f 141 177 178
f 141 178 179
f 141 179 180
f 141 180 176
f 142 146 181
f 143 182 144
f 144 183 184
f 144 184 145
f 144 182 183
f 145 184 213
f 145 213 185
f 145 185 146
f 146 185 186
f 146 186 181
f 147 160 149
f 147 148 187
f 149 160 150
f 150 160 151
f 151 160 173
f 151 173 172
f 151 172 152
f 152 174 175
f 152 175 188
f 152 188 153
f 152 172 174
f 153 188 189
f 153 189 190
f 153 190 154
f 154 190 191
f 154 191 156
f 154 156 155
f 156 191 192
f 156 192 157
f 157 192 177
f 159 173 160
f 163 181 186
f 163 186 164
f 164 186 185
f 164 185 193
f 164 193 165
f 165 193 166
f 166 194 167
f 166 193 195
f 166 195 194
f 167 194 168
f 168 194 196
f 168 196 197
f 168 197 199
f 168 199 169
f 169 198 171
f 169 171 170
f 169 199 200
f 169 200 198
f 171 198 201
f 171 201 175
f 175 201 202
f 175 202 188
f 177 203 204
f 177 204 205
f 177 205 178
f 177 192 203
f 178 205 180
f 178 180 179
f 180 205 204
f 180 204 206
f 182 207 208
f 182 208 209
f 182 209 210
f 182 210 183
f 183 210 211
f 183 211 212
f 183 212 184
f 184 212 213
f 185 213 195
f 185 195 193
f 188 202 189
f 189 202 214
f 189 214 215
f 189 215 190
f 190 215 216
f 190 216 191
f 191 216 217
f 191 217 192
f 192 217 218
f 192 218 203
f 194 195 196
f 195 213 212
f 195 212 219
f 195 219 196
f 196 219 211
f 196 211 209
f 196 209 220
f 196 220 197
f 197 220 221
f 197 221 199
f 198 202 201
f 198 200 202
f 199 221 200
f 200 214 202
f 200 221 214
f 203 218 204
f 204 218 222
f 204 222 223
f 204 223 224
f 204 224 225
f 204 225 206
f 207 226 208
f 208 227 221
f 208 221 220
f 208 220 209
f 208 226 228
f 208 228 227
f 209 211 210
f 211 219 212
f 214 221 229
f 214 229 230
f 214 230 231
f 214 231 215
f 215 231 216
f 216 231 218
f 216 218 217
f 218 231 222
f 221 227 232
f 221 232 229
f 222 231 233
f 222 233 223
f 223 233 234
f 227 228 232
f 228 235 232
f 229 236 230
f 229 232 236
f 230 236 237
f 230 237 231
f 231 237 233
f 232 237 236
f 232 235 238
f 232 238 237
f 233 237 234
f 234 237 239
f 237 238 239

