# https://github.com/mikedh/trimesh
v 0.00141127 -0.13115636 -0.05083145
v 0.00080489 -0.13115636 -0.05082055
v 0.00078560 -0.12415816 -0.04685026
v 0.00123211 -0.12415816 -0.04685208
v 0.00351979 -0.13115636 -0.05074609
v 0.00078560 -0.13115636 -0.05081874
v 0.00078560 -0.12415816 -0.04365006
v 0.00421987 -0.12415816 -0.04661234
v 0.00421987 -0.13115636 -0.05071521
v 0.00078560 -0.13115636 -0.04644524
v 0.00078560 -0.12501110 -0.04382805
v 0.02894057 -0.12415816 -0.03227862
v 0.00702848 -0.12415816 -0.04625091
v 0.00702848 -0.13115636 -0.05042280
v 0.00606104 -0.13115636 -0.05052450
v 0.00078560 -0.12708487 -0.04463446
v 0.02894057 -0.13115636 -0.03655222
v 0.02894057 -0.13044523 -0.03599827
v 0.02894057 -0.12781996 -0.03428737
v 0.02894057 -0.12513578 -0.03269272
v 0.00078560 -0.12547970 -0.04400786
v 0.02894057 -0.12417528 -0.03228407
v 0.02894057 -0.12415816 -0.03664121
v 0.00898541 -0.12415816 -0.04596031
v 0.00814200 -0.13115636 -0.05025389
v 0.02894057 -0.13115636 -0.04154323
v 0.02859604 -0.12415816 -0.03693363
v 0.00977369 -0.12415816 -0.04581138
v 0.00968274 -0.13115636 -0.04997963
v 0.02810543 -0.13115636 -0.04216257
v 0.02822395 -0.12415816 -0.03722241
v 0.01166723 -0.12415816 -0.04537730
v 0.01055646 -0.13115636 -0.04979619
v 0.01021745 -0.13115636 -0.04987248
v 0.02692025 -0.13115636 -0.04298169
v 0.02620638 -0.12415816 -0.03868992
v 0.02676039 -0.12415816 -0.03829944
v 0.01208066 -0.12415816 -0.04525561
v 0.01349461 -0.13115636 -0.04909876
v 0.01263191 -0.13115636 -0.04932034
v 0.02651232 -0.13115636 -0.04325049
v 0.02386634 -0.12415816 -0.04024099
v 0.01553974 -0.12415816 -0.04406416
v 0.01545430 -0.13115636 -0.04850122
v 0.02454713 -0.13115636 -0.04446191
v 0.02365135 -0.13115636 -0.04496138
v 0.02144360 -0.12415816 -0.04158137
v 0.01741123 -0.12415816 -0.04336491
v 0.01814714 -0.13115636 -0.04754406
v 0.02305600 -0.13115636 -0.04528649
v 0.02097229 -0.13115636 -0.04634535
v 0.01962449 -0.12415816 -0.04247677
v 0.02163654 -0.13115636 -0.04601116
v 0.01822707 -0.12415816 -0.04305797
v 0.01891338 -0.13115636 -0.04724620
f 1 2 3
f 1 3 4
f 1 4 5
f 1 5 9
f 1 9 15
f 1 15 14
f 1 14 25
f 1 25 29
f 1 29 34
f 1 34 33
f 1 33 40
f 1 40 39
f 1 39 44
f 1 44 49
f 1 49 55
f 1 55 51
f 1 51 53
f 1 53 50
f 1 50 46
f 1 46 45
f 1 45 41
f 1 41 35
f 1 35 30
f 1 30 26
f 1 26 17
f 1 17 10
f 1 10 6
f 1 6 2
f 2 6 3
f 3 6 10
f 3 10 16
f 3 16 21
f 3 21 11
f 3 11 7
f 3 7 12
f 3 12 23
f 3 23 27
f 3 27 31
f 3 31 37
f 3 37 36
f 3 36 42
f 3 42 47
f 3 47 52
f 3 52 54
f 3 54 48
f 3 48 43
f 3 43 38
f 3 38 32
f 3 32 28
f 3 28 24
f 3 24 13
f 3 13 8
f 3 8 4
f 4 8 9
f 4 9 5
f 7 11 12
f 8 13 14
f 8 14 15
f 8 15 9
f 10 17 18
f 10 18 19
f 10 19 20
f 10 20 16
f 11 21 22
f 11 22 12
f 12 22 20
f 12 20 19
f 12 19 18
f 12 18 17
f 12 17 26
f 12 26 23
f 13 24 14
f 14 24 25
f 16 20 22
f 16 22 21
f 23 26 27
f 24 28 29
f 24 29 25
f 26 30 31
f 26 31 27
f 28 32 33
f 28 33 34
f 28 34 29
f 30 35 36
f 30 36 37
f 30 37 31
f 32 38 39
f 32 39 40
f 32 40 33
f 35 41 42
f 35 42 36
f 38 43 44
f 38 44 39
f 41 45 42
f 42 45 46
f 42 46 47
f 43 48 49
f 43 49 44
f 46 50 47
f 47 51 52
f 47 50 53
f 47 53 51
f 48 54 49
f 49 54 55
f 51 55 52
f 52 55 54

