# https://github.com/mikedh/trimesh
v -0.36966849 -0.88996031 0.66848998
v -0.36959672 -0.90999695 0.50393908
v -0.36959672 -0.90999695 0.66848998
v -0.36966849 0.88996028 0.66848998
v -0.36945325 -0.91444953 0.50393908
v -0.36959672 0.90999692 0.50393908
v -0.36880744 -0.92984803 0.66848998
v -0.36959672 0.90999692 0.66848998
v -0.36880744 -0.92984803 0.50393908
v -0.36880744 0.92984800 0.50393908
v -0.36773110 -0.93300196 0.50393908
v -0.36399991 -0.94357683 0.66848998
v -0.36880744 0.92984800 0.66848998
v -0.36399991 0.94357680 0.50393908
v -0.36399991 -0.94357683 0.50393908
v -0.34993607 -0.94747283 0.66848998
v -0.36399991 0.94357680 0.66848998
v -0.35000777 0.94747280 0.66848998
v -0.34993607 0.94728731 0.50393908
v -0.34993607 -0.94728734 0.50393908
v -0.34993607 -0.94747283 0.66840942
v -0.32998836 -0.94765838 0.66848998
v -0.31004059 0.94765835 0.66848998
v 0.28996927 0.94728731 0.50393908
v 0.28996927 -0.94728734 0.50393908
v 0.28996927 -0.94765838 0.66848998
v 0.28989750 0.94765835 0.66848998
v 0.29441804 0.94691627 0.50393908
v 0.30998874 -0.94543209 0.50393908
v 0.30998874 -0.94561764 0.66840942
v 0.30998874 -0.94561764 0.66848998
v 0.30998874 0.94561761 0.66840942
v 0.30998874 0.94543206 0.50393908
v 0.30991697 0.94561761 0.66848998
v 0.32154119 -0.94172158 0.50393908
v 0.32161296 -0.94172158 0.66840942
v 0.32161296 -0.94172158 0.66848998
v 0.32168472 0.94172155 0.66848998
v 0.32154119 0.94172155 0.50393908
v 0.32197172 -0.93912425 0.50393908
v 0.36201066 -0.74209740 0.63315083
v 0.36201066 -0.74209740 0.64149435
v 0.32369381 -0.93003358 0.66848998
v 0.36222589 0.74469470 0.63286092
v 0.32369381 0.92984800 0.66848998
v 0.36222589 0.74469470 0.64171986
v 0.32347852 0.92984800 0.50393908
v 0.32347852 -0.92984803 0.50393908
v 0.36323047 -0.72985281 0.63029988
v 0.36323047 -0.72985281 0.64321782
v 0.32821435 -0.73003830 0.66848998
v 0.36337400 0.72985278 0.63009046
v 0.32828611 0.72985278 0.66848998
v 0.36337400 0.72985278 0.64337890
v 0.32376558 0.91444950 0.50393908
v 0.32383734 -0.90999695 0.50393908
v 0.36337400 -0.70981618 0.63009046
v 0.36337400 -0.70981618 0.64337890
v 0.32828611 -0.66992845 0.66848998
v 0.32383734 0.90999692 0.50393908
f 1 2 3
f 1 3 7
f 1 7 12
f 1 12 16
f 1 16 22
f 1 22 26
f 1 26 31
f 1 31 37
f 1 37 43
f 1 43 51
f 1 51 59
f 1 59 53
f 1 53 45
f 1 45 38
f 1 38 34
f 1 34 27
f 1 27 23
f 1 23 18
f 1 18 17
f 1 17 13
f 1 13 8
f 1 8 4
f 1 4 6
f 1 6 2
f 2 5 3
f 2 6 10
f 2 10 14
f 2 14 19
f 2 19 24
f 2 24 28
f 2 28 33
f 2 33 39
f 2 39 47
f 2 47 55
f 2 55 60
f 2 60 56
f 2 56 48
f 2 48 40
f 2 40 35
f 2 35 29
f 2 29 25
f 2 25 20
f 2 20 15
f 2 15 11
f 2 11 9
f 2 9 5
f 3 5 7
f 4 8 6
f 5 9 7
f 6 8 13
f 6 13 10
f 7 9 11
f 7 11 12
f 10 13 17
f 10 17 14
f 11 15 12
f 12 15 21
f 12 21 16
f 14 17 18
f 14 18 19
f 15 20 21
f 16 21 22
f 18 23 19
f 19 23 27
f 19 27 24
f 20 22 21
f 20 25 26
f 20 26 22
f 24 27 28
f 25 29 26
f 26 29 30
f 26 30 31
f 27 32 33
f 27 33 28
f 27 34 32
f 29 35 30
f 30 35 36
f 30 36 37
f 30 37 31
f 32 34 38
f 32 38 39
f 32 39 33
f 35 40 41
f 35 41 36
f 36 41 42
f 36 42 37
f 37 42 43
f 38 44 39
f 38 45 46
f 38 46 44
f 39 44 47
f 40 48 41
f 41 48 49
f 41 49 50
f 41 50 42
f 42 50 43
f 43 50 51
f 44 46 54
f 44 54 52
f 44 52 47
f 45 53 54
f 45 54 46
f 47 52 55
f 48 56 49
f 49 56 57
f 49 57 58
f 49 58 50
f 50 58 51
f 51 58 59
f 52 57 56
f 52 56 60
f 52 60 55
f 52 54 58
f 52 58 57
f 53 59 58
f 53 58 54

