# https://github.com/mikedh/trimesh
mtllib lab_table.mtl
usemtl surface
v -0.74999852 2.25000037 0.85692527
v -0.74999852 2.25000037 0.85692527
v -0.74999852 2.25000037 0.85692527
v -0.75000155 -2.24999936 0.85692527
v -0.75000155 -2.24999936 0.85692527
v -0.75000155 -2.24999936 0.85692527
v 0.75000155 2.24999936 0.85692527
v 0.75000155 2.24999936 0.85692527
v 0.75000155 2.24999936 0.85692527
v 0.74999852 -2.25000037 0.85692527
v 0.74999852 -2.25000037 0.85692527
v 0.74999852 -2.25000037 0.85692527
v -0.74999852 2.25000037 0.84192527
v -0.74999852 2.25000037 0.84192527
v -0.74999852 2.25000037 0.84192527
v -0.75000155 -2.24999936 0.84192527
v -0.75000155 -2.24999936 0.84192527
v -0.75000155 -2.24999936 0.84192527
v 0.75000155 2.24999936 0.84192527
v 0.75000155 2.24999936 0.84192527
v 0.75000155 2.24999936 0.84192527
v 0.74999852 -2.25000037 0.84192527
v 0.74999852 -2.25000037 0.84192527
v 0.74999852 -2.25000037 0.84192527
vt 0.00000000 0.00000000
vt 0.00000000 1.00000000
vt 1.00000000 0.00000000
vt 1.00000000 0.00000000
vt 1.00000000 1.00000000
vt 0.00000000 0.00000000
vt 0.00000000 1.00000000
vt 0.00000000 0.00000000
vt 1.00000000 1.00000000
vt 1.00000000 1.00000000
vt 1.00000000 0.00000000
vt 0.00000000 1.00000000
vt 1.00000000 0.00000000
vt 0.00000000 0.00000000
vt 0.00000000 0.00000000
vt 0.00000000 0.00000000
vt 1.00000000 0.00000000
vt 1.00000000 0.00000000
vt 1.00000000 1.00000000
vt 0.00000000 1.00000000
vt 0.00000000 1.00000000
vt 0.00000000 1.00000000
vt 1.00000000 1.00000000
vt 1.00000000 1.00000000
f 1/1 4/4 10/10
f 1/1 10/10 7/7
f 13/13 19/19 22/22
f 13/13 22/22 16/16
f 20/20 8/8 11/11
f 20/20 11/11 23/23
f 14/14 17/17 5/5
f 14/14 5/5 2/2
f 15/15 3/3 9/9
f 15/15 9/9 21/21
f 18/18 24/24 12/12
f 18/18 12/12 6/6

