# https://github.com/mikedh/trimesh
v 7.16551211 24.15412444 29.50369336
v 7.16550375 24.15416411 29.50369336
v 7.16511109 24.15020590 29.50369336
v 7.16536172 24.15412444 29.50009143
v 7.16531160 24.15776902 29.49280536
v 7.16514868 24.15776902 29.49644839
v 7.16470588 24.15684616 29.50369336
v 7.16504425 24.14999681 29.50369336
v 7.16450120 24.15537897 29.48916232
v 7.16501919 24.15776902 29.48916232
v 7.16466829 24.16038981 29.48916232
v 7.16471424 24.16041864 29.49280536
v 7.16420044 24.15964719 29.49844672
v 7.16384119 24.15747342 29.50369336
v 7.16445525 24.16000047 29.49644839
v 7.16493564 24.14969760 29.50369336
v 7.16425892 24.15577550 29.48706531
v 7.15054066 24.15060243 29.41968142
v 7.16443854 24.16003652 29.48651433
v 7.15094168 24.15414968 29.41968142
v 7.16232900 24.16209854 29.48916232
v 7.16232900 24.16199039 29.49280536
v 7.16220368 24.16003652 29.49982828
v 7.16090454 24.15972289 29.50232002
v 7.16220368 24.15865223 29.50369336
v 7.16232900 24.16113963 29.49644839
v 7.16441348 24.14831691 29.50369336
v 7.13801293 24.12596278 29.41968142
v 7.15358173 24.12596278 29.50369336
v 7.16260052 24.16113963 29.48538770
v 7.15003938 24.15651451 29.41999392
v 7.15051977 24.15712014 29.42362873
v 7.14998090 24.15643881 29.41968142
v 7.14776275 24.15888655 29.42362873
v 7.15869057 24.16241578 29.48188446
v 7.15869057 24.16278708 29.48552750
v 7.15869057 24.16265009 29.48916232
v 7.15869057 24.16205888 29.49280536
v 7.16020693 24.15972289 29.50232002
v 7.15886601 24.15844315 29.50369336
v 7.12330046 24.12596278 29.41968142
v 7.13937472 24.12596278 29.50369336
v 7.14776275 24.15808987 29.41999392
v 7.14779199 24.15798892 29.41968142
v 7.14412850 24.15826650 29.41968142
v 7.14412850 24.15830977 29.41999392
v 7.14580777 24.15964719 29.43534731
v 7.14637589 24.15964719 29.43534731
v 7.15504797 24.16217424 29.47459839
v 7.15504797 24.16236531 29.47824142
v 7.15504797 24.16222831 29.48188446
v 7.15504797 24.16179573 29.48552750
v 7.15478897 24.16082240 29.48926100
v 7.15569962 24.16048714 29.49280536
v 7.15634710 24.16000408 29.49579051
v 7.15834386 24.16075030 29.49678556
v 7.15887019 24.15847920 29.50361112
v 7.15690268 24.15956788 29.49821646
v 7.15879500 24.15839989 29.50369336
v 7.12320856 24.12596278 29.42094785
v 7.12372654 24.12857274 29.41968142
v 7.13949586 24.12671981 29.50369336
v 7.13864787 24.12689645 29.50194996
v 7.13859774 24.12596278 29.50206509
v 7.14140907 24.15671999 29.41968142
v 7.14139237 24.15673441 29.41999392
v 7.14412850 24.15858374 29.42362873
v 7.14563232 24.15973371 29.43819267
v 7.14776275 24.16049435 29.44912178
v 7.14776275 24.16029247 29.44547874
v 7.15140535 24.16143163 29.46367749
v 7.15140535 24.16158303 29.46732053
v 7.15140535 24.16162268 29.47095535
v 7.15140535 24.16141721 29.47459839
v 7.15111712 24.16071785 29.47836478
v 7.15188575 24.16059889 29.48188446
v 7.15247474 24.16020235 29.48552750
v 7.15293007 24.15984186 29.48810970
v 7.15340211 24.15943450 29.49054388
v 7.15387832 24.15900551 29.49280536
v 7.15509809 24.15852245 29.49678556
v 7.15267943 24.15645323 29.49644839
v 7.15618418 24.15659383 29.50369336
v 7.15621343 24.15661545 29.50369336
v 7.12302059 24.12596278 29.42362873
v 7.12345503 24.12864124 29.42362873
v 7.12376413 24.12878183 29.41968142
v 7.12375580 24.12885753 29.41994458
v 7.13975904 24.12834563 29.50369336
v 7.13816330 24.12596278 29.50102892
v 7.13983841 24.12870613 29.50369336
v 7.14056943 24.13179915 29.50369336
v 7.13840141 24.13155041 29.49886612
v 7.13494260 24.13077896 29.49118532
v 7.13476298 24.12864124 29.49163761
v 7.13457500 24.12596278 29.49210635
v 7.14125450 24.15658301 29.41968142
v 7.13957105 24.15508697 29.41999392
v 7.13947916 24.15518430 29.42362873
v 7.14129628 24.15682093 29.42362873
v 7.14381520 24.15873155 29.43819267
v 7.14541092 24.15988872 29.44547874
v 7.14546941 24.15983104 29.44183570
v 7.14776275 24.16063494 29.45276482
v 7.14776275 24.16062773 29.45639964
v 7.14554877 24.15987431 29.45276482
v 7.14802174 24.16050877 29.46367749
v 7.14828074 24.16043307 29.46732053
v 7.14858985 24.16030329 29.47095535
v 7.14898670 24.16005454 29.47459839
v 7.14934177 24.15978418 29.47722992
v 7.14971354 24.15947776 29.47965588
v 7.15006444 24.15915693 29.48188446
v 7.15065344 24.15861618 29.48552750
v 7.14920392 24.15633066 29.48839753
v 7.15128839 24.15788077 29.48946659
v 7.14965089 24.15588365 29.49082347
v 7.15188157 24.15718503 29.49280536
v 7.15006444 24.15545827 29.49280536
v 7.15085813 24.15464356 29.49644839
v 7.15313894 24.15602785 29.49844672
v 7.15436706 24.15480577 29.50369336
v 7.12283678 24.12596278 29.42727177
v 7.12330046 24.12864124 29.42727177
v 7.12396049 24.13093036 29.42362873
v 7.12403150 24.13067081 29.42113699
v 7.12383934 24.12914232 29.41968142
v 7.14068640 24.13228582 29.50369336
v 7.13869800 24.13397652 29.49819179
v 7.13774557 24.13257060 29.49676911
v 7.13586161 24.13210917 29.49255865
v 7.13526008 24.13320868 29.49037941
v 7.13454159 24.13210917 29.48917054
v 7.13129164 24.13082943 29.48035488
v 7.13258661 24.12864124 29.48552750
v 7.13385233 24.12864124 29.48916232
v 7.13347219 24.12596278 29.48916232
v 7.13371448 24.12596278 29.48982020
v 7.13958776 24.15507254 29.41968142
v 7.13774557 24.15326648 29.41999392
v 7.13762861 24.15336381 29.42362873
v 7.13753253 24.15341788 29.42727177
v 7.13747823 24.15345393 29.43091481
v 7.13944574 24.15523837 29.42727177
v 7.13940397 24.15527442 29.43091481
v 7.14122109 24.15688221 29.43091481
v 7.14365228 24.15871351 29.44183570
v 7.14544434 24.15990674 29.44912178
v 7.14373165 24.15834942 29.45276482
v 7.14572422 24.15975534 29.45639964
v 7.14359797 24.15864863 29.44547874
v 7.14362722 24.15852606 29.44912178
v 7.14587461 24.15964359 29.45880914
v 7.14676855 24.15889016 29.47095535
v 7.14620043 24.15939845 29.46367749
v 7.14645943 24.15918216 29.46732053
v 7.14716540 24.15850443 29.47459839
v 7.14558637 24.15628740 29.47757531
v 7.14809275 24.15733644 29.48188446
v 7.14596233 24.15592691 29.48000127
v 7.14870264 24.15679569 29.48552750
v 7.14627563 24.15561328 29.48188446
v 7.14688134 24.15496800 29.48552750
v 7.14517700 24.15314751 29.48552750
v 7.14564485 24.15263562 29.48814260
v 7.14610436 24.15213092 29.49056855
v 7.14837263 24.15363778 29.49280536
v 7.14912037 24.15282307 29.49644839
v 7.14952975 24.15236525 29.49838916
v 7.15257083 24.15298530 29.50369336
v 7.12284095 24.12596278 29.42823393
v 7.12330881 24.12864124 29.43091481
v 7.12388528 24.13119713 29.43091481
v 7.12390200 24.13115026 29.42727177
v 7.12452859 24.13275085 29.42362873
v 7.12444086 24.13297075 29.42727177
v 7.12459125 24.13204428 29.41994458
v 7.12462467 24.13206231 29.41968142
v 7.12410668 24.13039683 29.41968142
v 7.14168895 24.13577538 29.50369336
v 7.13714405 24.13592318 29.49280536
v 7.14170984 24.13583667 29.50369336
v 7.14205655 24.13831325 29.50248449
v 7.13479640 24.13471193 29.48795345
v 7.13335523 24.13228221 29.48552750
v 7.13110367 24.12864124 29.48096342
v 7.13168014 24.12864124 29.48278083
v 7.13207280 24.13213802 29.48169532
v 7.13160493 24.13325554 29.47931049
v 7.13096164 24.13213802 29.47815919
v 7.13000085 24.13228221 29.47459839
v 7.12926983 24.12864124 29.47459839
v 7.13028073 24.12864124 29.47824142
v 7.13147544 24.12596278 29.48340582
v 7.13776228 24.15325206 29.41968142
v 7.13592427 24.15129819 29.41999392
v 7.13580731 24.15146041 29.42362873
v 7.13571123 24.15156134 29.42727177
v 7.13565692 24.15161902 29.43091481
v 7.13747823 24.15347916 29.43455785
v 7.13936637 24.15529965 29.43455785
v 7.14118767 24.15690024 29.43455785
v 7.14118767 24.15691106 29.43819267
v 7.14390710 24.15816197 29.45639964
v 7.14148008 24.15670558 29.44912178
v 7.14125450 24.15689303 29.44183570
v 7.14135059 24.15682814 29.44547874
v 7.14444597 24.15825569 29.46003445
v 7.14380684 24.15729678 29.46369394
v 7.14437495 24.15736167 29.46732053
v 7.14471331 24.15706967 29.47095535
v 7.14516029 24.15668394 29.47459839
v 7.14334316 24.15488869 29.47459839
v 7.14398647 24.15427946 29.47870194
v 7.14238238 24.15222465 29.47982035
v 7.14454623 24.15379279 29.48188446
v 7.14272910 24.15181369 29.48188446
v 7.14414938 24.15046545 29.48910475
v 7.14335987 24.15107108 29.48552750
v 7.14219858 24.14880358 29.48764096
v 7.14498067 24.14981295 29.49280536
v 7.14655133 24.15163344 29.49280536
v 7.14553207 24.14915686 29.49558492
v 7.14856062 24.15050150 29.49979539
v 7.14913291 24.14912802 29.50369336
v 7.14915796 24.14915686 29.50369336
v 7.15074952 24.15097374 29.50369336
v 7.12285766 24.12596278 29.43091481
v 7.12289527 24.12596278 29.43187697
v 7.12345503 24.12864124 29.43455785
v 7.12394377 24.13102770 29.43455785
v 7.12443251 24.13301761 29.43091481
v 7.12445340 24.13284819 29.43455785
v 7.12569823 24.13592318 29.42362873
v 7.12597393 24.13592318 29.41999392
v 7.12551861 24.13592318 29.42727177
v 7.12548937 24.13592318 29.43091481
v 7.12589457 24.13562037 29.41968142
v 7.13864370 24.13779774 29.49467211
v 7.13832204 24.13923251 29.49245174
v 7.13570705 24.13592318 29.48917054
v 7.14315936 24.13952451 29.50369336
v 7.14317189 24.13955334 29.50369336
v 7.14260378 24.14074297 29.50125096
v 7.14158034 24.13954253 29.50005854
v 7.13913662 24.14022386 29.49342212
v 7.13526426 24.13713804 29.48666235
v 7.13442461 24.13592318 29.48547816
v 7.13329675 24.13592318 29.48188446
v 7.13124986 24.13447400 29.47688454
v 7.13098252 24.13578259 29.47435990
v 7.13015124 24.13592318 29.47095535
v 7.12910691 24.13228221 29.47095535
v 7.12836335 24.12596278 29.47236158
v 7.12894400 24.12596278 29.47459839
v 7.12920717 24.12596278 29.47556055
v 7.12994655 24.12596278 29.47824142
v 7.12790803 24.12945595 29.46838137
v 7.12826728 24.12839971 29.47068397
v 7.12770752 24.12702623 29.46927774
v 7.13594098 24.15128016 29.41968142
v 7.13434108 24.14947770 29.41999392
v 7.13419069 24.14963992 29.42362873
v 7.13448728 24.14961108 29.41968142
v 7.13411968 24.14974085 29.42727177
v 7.13407372 24.14979854 29.43091481
v 7.13406120 24.14979493 29.43455785
v 7.13565692 24.15161542 29.43455785
v 7.13750747 24.15347196 29.43819267
v 7.13936637 24.15529244 29.43819267
v 7.14167224 24.15652893 29.45276482
v 7.14187693 24.15634148 29.45639964
v 7.14208580 24.15615041 29.46004268
v 7.14222783 24.15602063 29.46249330
v 7.13952928 24.15513022 29.44547874
v 7.13965878 24.15500044 29.44912178
v 7.13985093 24.15483102 29.45276482
v 7.13943320 24.15522395 29.44183570
v 7.14237821 24.15588005 29.46491925
v 7.14255783 24.15570340 29.46732053
v 7.14289619 24.15536454 29.47095535
v 7.14114172 24.15354406 29.47095535
v 7.14160123 24.15306820 29.47459839
v 7.14201060 24.15262840 29.47739440
v 7.13977992 24.15098456 29.47459839
v 7.13856433 24.14879276 29.47672829
v 7.14124616 24.14999320 29.48188446
v 7.14184769 24.14925059 29.48552750
v 7.13896535 24.14822679 29.47915424
v 7.13819255 24.14572858 29.48188446
v 7.13855597 24.14518784 29.48401436
v 7.14141324 24.14691460 29.48898140
v 7.14264973 24.14817271 29.49006691
v 7.14414938 24.14679203 29.49635794
v 7.14606258 24.14851158 29.49801088
v 7.14316353 24.14742290 29.49280536
v 7.14652627 24.14790235 29.50009143
v 7.14724058 24.14668388 29.50369336
v 7.12301640 24.12596278 29.43455785
v 7.12324199 24.12596278 29.43822556
v 7.12374325 24.12889719 29.43829957
v 7.12403150 24.13073930 29.43715650
v 7.12447429 24.13208394 29.43829957
v 7.12555620 24.13592318 29.43455785
v 7.12568987 24.13592318 29.43819267
v 7.12709346 24.13907388 29.42362873
v 7.12722295 24.13878910 29.41999392
v 7.12714358 24.13855117 29.41968142
v 7.12600318 24.13592318 29.41968142
v 7.12699738 24.13925053 29.42727177
v 7.12698066 24.13926495 29.43091481
v 7.13866040 24.14139185 29.49099617
v 7.14503915 24.14324479 29.50369336
v 7.14206491 24.14182445 29.49882501
v 7.13484236 24.13814382 29.48423640
v 7.13211039 24.13578259 29.47815919
v 7.13132088 24.13787345 29.47297834
v 7.13107024 24.13846105 29.47095535
v 7.12937008 24.13592318 29.46732053
v 7.12825474 24.13214522 29.46723007
v 7.12764068 24.13084024 29.46595542
v 7.12810018 24.12596278 29.47131718
v 7.12747776 24.12839971 29.46723007
v 7.12764904 24.12596278 29.46952445
v 7.12662559 24.12596278 29.46468077
v 7.12736080 24.12596278 29.46824979
v 7.13251976 24.14715252 29.41999392
v 7.13236939 24.14733998 29.42362873
v 7.13435778 24.14945967 29.41968142
v 7.13229838 24.14744453 29.42727177
v 7.13225242 24.14752023 29.43091481
v 7.13223990 24.14755988 29.43455785
v 7.13226495 24.14755628 29.43819267
v 7.13408626 24.14975167 29.43819267
v 7.13568617 24.15157577 29.43819267
v 7.13574465 24.15151449 29.44183570
v 7.13756595 24.15340346 29.44183570
v 7.14005563 24.15463634 29.45639964
v 7.14026449 24.15442366 29.46004268
v 7.13765786 24.15330973 29.44547874
v 7.13779989 24.15317635 29.44912178
v 7.13796697 24.15301053 29.45276482
v 7.13815912 24.15281586 29.45639964
v 7.13838052 24.15260317 29.46004268
v 7.13854344 24.15243374 29.46260843
v 7.13874395 24.15221744 29.46504260
v 7.14077412 24.15388291 29.46732053
v 7.13895281 24.15197952 29.46732053
v 7.13932042 24.15153611 29.47095535
v 7.13828027 24.14916407 29.47459839
v 7.13774975 24.14694705 29.47806051
v 7.13671796 24.14684250 29.47459839
v 7.13577806 24.14372785 29.47824142
v 7.13499691 24.14143151 29.48014107
v 7.13945409 24.14372785 29.48916232
v 7.14192288 24.14560241 29.49280536
v 7.14227377 24.14507609 29.49471322
v 7.14520206 24.14608186 29.50009143
v 7.14571169 24.14537169 29.50245160
v 7.12332553 24.12596278 29.43936041
v 7.12385605 24.12800316 29.44183570
v 7.12423200 24.12982365 29.44183570
v 7.12485025 24.13228221 29.44183570
v 7.12595305 24.13592318 29.44183570
v 7.12702244 24.13919285 29.43455785
v 7.12715612 24.13903783 29.44183570
v 7.12707257 24.13913156 29.43819267
v 7.12730649 24.13876747 29.44547874
v 7.12799993 24.14089437 29.42362873
v 7.12816702 24.14060959 29.41999392
v 7.12723549 24.13876026 29.41968142
v 7.12790803 24.14107102 29.42727177
v 7.12790385 24.14108544 29.43091481
v 7.12796233 24.14095205 29.43819267
v 7.14169730 24.14310419 29.49613590
v 7.14334734 24.14310419 29.50005854
v 7.14276252 24.14425056 29.49713917
v 7.13457500 24.13944159 29.48156374
v 7.13191406 24.14028154 29.47095535
v 7.13155899 24.14099892 29.46817578
v 7.13079037 24.13969754 29.46710672
v 7.12870590 24.13592318 29.46367749
v 7.12774511 24.13408828 29.46182719
v 7.12791638 24.13346823 29.46367749
v 7.12743182 24.13164774 29.46367749
v 7.12618281 24.12864124 29.46004268
v 7.12680105 24.12864124 29.46367749
v 7.12642508 24.12596278 29.46367749
v 7.13116215 24.14533204 29.41999392
v 7.13251560 24.14710566 29.41968142
v 7.13103265 24.14551949 29.42362873
v 7.13094911 24.14562404 29.42727177
v 7.13090315 24.14569974 29.43091481
v 7.13087391 24.14573939 29.43455785
v 7.13086556 24.14573579 29.43819267
v 7.13089480 24.14569614 29.44183570
v 7.13230672 24.14751662 29.44183570
v 7.13412803 24.14969400 29.44183570
v 7.13420740 24.14960387 29.44547874
v 7.13583654 24.15142436 29.44547874
v 7.13597857 24.15126574 29.44912178
v 7.13614567 24.15106026 29.45276482
v 7.13633782 24.15081873 29.45639964
v 7.13627516 24.15019868 29.46021537
v 7.13506374 24.14861252 29.46153936
v 7.13746152 24.15015903 29.46732053
v 7.13783330 24.14971562 29.47095535
v 7.13564021 24.14777978 29.46732053
v 7.13583237 24.14675598 29.47126784
v 7.13472121 24.14548344 29.47025634
v 7.13528096 24.14456780 29.47459839
v 7.13474210 24.14190736 29.47824142
v 7.12352186 24.12596278 29.44183570
v 7.12399389 24.12736509 29.44466461
v 7.12434479 24.12860519 29.44571723
v 7.12556038 24.13228221 29.44912178
v 7.12518861 24.13228221 29.44547874
v 7.12628723 24.13592318 29.44547874
v 7.12749030 24.13835290 29.44912178
v 7.12810018 24.14058795 29.44547874
v 7.12799993 24.14085832 29.44183570
v 7.12827563 24.14017339 29.44912178
v 7.12947034 24.14320514 29.42362873
v 7.12976693 24.14320514 29.41999392
v 7.12964996 24.14295999 29.41968142
v 7.12818373 24.14058074 29.41968142
v 7.12929489 24.14320514 29.42727177
v 7.12924476 24.14320514 29.43091481
v 7.12933249 24.14320514 29.44183570
v 7.12926565 24.14320514 29.43819267
v 7.12924894 24.14320514 29.43455785
v 7.13381055 24.14354399 29.47126784
v 7.13243623 24.14289151 29.46710672
v 7.13133759 24.14146755 29.46574983
v 7.13013870 24.13956416 29.46367749
v 7.12814614 24.13584027 29.46038807
v 7.12718953 24.13615390 29.45283061
v 7.12603660 24.13228221 29.45276482
v 7.12716865 24.13263910 29.46038807
v 7.12797486 24.13701908 29.45639964
v 7.12763233 24.13801044 29.45167109
v 7.12576924 24.12596278 29.46004268
v 7.12593216 24.12596278 29.46100483
v 7.12565646 24.12864124 29.45639964
v 7.12534734 24.12596278 29.45736180
v 7.13117886 24.14531041 29.41968142
v 7.13101176 24.14554833 29.44547874
v 7.13238609 24.14736882 29.44547874
v 7.13434526 24.14944525 29.44912178
v 7.13454159 24.14923977 29.45276482
v 7.13475463 24.14899824 29.45639964
v 7.13130835 24.14513016 29.45148195
v 7.13147962 24.14487061 29.45390790
v 7.13165925 24.14457140 29.45639964
v 7.13193495 24.14409195 29.46004268
v 7.13405284 24.14648562 29.46367749
v 7.13438702 24.14595929 29.46732053
v 7.12362211 24.12596278 29.44298700
v 7.12385186 24.12596278 29.44537184
v 7.12395213 24.12596278 29.44640801
v 7.12412339 24.12665492 29.44709879
v 7.12471239 24.12864124 29.44912178
v 7.12517190 24.12864124 29.45276482
v 7.12665066 24.13592318 29.44912178
v 7.12990478 24.14320514 29.44912178
v 7.12954971 24.14320514 29.44547874
v 7.12839259 24.13935868 29.45283061
v 7.13058986 24.14275451 29.45639964
v 7.13048542 24.14347910 29.45272371
v 7.12981706 24.14323037 29.41968142
v 7.13223571 24.14358004 29.46367749
v 7.13117050 24.14175956 29.46367749
v 7.12900248 24.13956416 29.45639964
v 7.12955807 24.13956416 29.46004268
v 7.12520949 24.12596278 29.45639964
v 7.13119138 24.14531041 29.44912178
v 7.13252395 24.14713090 29.44912178
v 7.13087809 24.14227146 29.46004268
v 7.12421529 24.12596278 29.44882573
v 7.12425289 24.12596278 29.44912178
v 7.12469569 24.12596278 29.45254278
f 1 2 7
f 1 7 14
f 1 14 25
f 1 25 40
f 1 40 59
f 1 59 84
f 1 84 83
f 1 83 122
f 1 122 170
f 1 170 227
f 1 227 226
f 1 226 225
f 1 225 298
f 1 298 313
f 1 313 243
f 1 243 242
f 1 242 182
f 1 182 180
f 1 180 128
f 1 128 92
f 1 92 91
f 1 91 89
f 1 89 62
f 1 62 42
f 1 42 29
f 1 29 27
f 1 27 16
f 1 16 8
f 1 8 3
f 1 3 4
f 1 4 5
f 1 5 6
f 1 6 2
f 2 6 7
f 3 8 9
f 3 9 10
f 3 10 5
f 3 5 4
f 5 10 11
f 5 11 12
f 5 12 6
f 6 12 7
f 7 13 14
f 7 12 15
f 7 15 13
f 8 16 9
f 9 17 10
f 9 16 18
f 9 18 17
f 10 19 11
f 10 17 18
f 10 18 20
f 10 20 19
f 11 21 12
f 11 19 21
f 12 21 22
f 12 22 15
f 13 23 24
f 13 24 25
f 13 25 14
f 13 15 26
f 13 26 23
f 15 22 26
f 16 27 18
f 18 28 41
f 18 41 61
f 18 61 87
f 18 87 127
f 18 127 179
f 18 179 178
f 18 178 238
f 18 238 309
f 18 309 308
f 18 308 371
f 18 371 426
f 18 426 425
f 18 425 470
f 18 470 446
f 18 446 390
f 18 390 329
f 18 329 264
f 18 264 261
f 18 261 195
f 18 195 139
f 18 139 97
f 18 97 65
f 18 65 45
f 18 45 44
f 18 44 33
f 18 33 20
f 18 27 29
f 18 29 28
f 19 30 21
f 19 20 31
f 19 31 32
f 19 32 30
f 20 33 31
f 21 30 32
f 21 32 34
f 21 34 35
f 21 35 36
f 21 36 22
f 22 36 37
f 22 37 38
f 22 38 26
f 23 26 24
f 24 39 25
f 24 26 38
f 24 38 39
f 25 39 40
f 28 29 42
f 28 42 64
f 28 64 90
f 28 90 96
f 28 96 138
f 28 138 137
f 28 137 194
f 28 194 257
f 28 257 256
f 28 256 255
f 28 255 254
f 28 254 322
f 28 322 324
f 28 324 326
f 28 326 325
f 28 325 388
f 28 388 443
f 28 443 442
f 28 442 445
f 28 445 475
f 28 475 481
f 28 481 480
f 28 480 479
f 28 479 460
f 28 460 459
f 28 459 458
f 28 458 413
f 28 413 360
f 28 360 300
f 28 300 299
f 28 299 229
f 28 229 228
f 28 228 171
f 28 171 123
f 28 123 85
f 28 85 60
f 28 60 41
f 31 43 32
f 31 33 44
f 31 44 43
f 32 43 34
f 34 43 45
f 34 45 46
f 34 46 47
f 34 47 48
f 34 48 49
f 34 49 36
f 34 36 35
f 36 49 50
f 36 50 51
f 36 51 37
f 37 51 52
f 37 52 38
f 38 52 53
f 38 53 54
f 38 54 55
f 38 55 56
f 38 56 39
f 39 57 40
f 39 56 58
f 39 58 57
f 40 57 58
f 40 58 59
f 41 60 61
f 42 62 63
f 42 63 64
f 43 44 45
f 45 65 46
f 46 66 67
f 46 67 47
f 46 65 66
f 47 67 68
f 47 68 69
f 47 69 70
f 47 70 49
f 47 49 48
f 49 70 69
f 49 69 71
f 49 71 50
f 50 71 72
f 50 72 73
f 50 73 51
f 51 73 74
f 51 74 52
f 52 74 75
f 52 75 76
f 52 76 77
f 52 77 53
f 53 78 54
f 53 77 78
f 54 78 79
f 54 79 55
f 55 79 80
f 55 80 58
f 55 58 56
f 58 80 81
f 58 81 82
f 58 82 83
f 58 83 84
f 58 84 59
f 60 85 86
f 60 86 61
f 61 86 88
f 61 88 87
f 62 89 63
f 63 90 64
f 63 89 91
f 63 91 92
f 63 92 93
f 63 93 94
f 63 94 95
f 63 95 96
f 63 96 90
f 65 97 66
f 66 98 99
f 66 99 100
f 66 100 67
f 66 97 98
f 67 100 101
f 67 101 102
f 67 102 103
f 67 103 68
f 68 103 104
f 68 104 69
f 69 104 72
f 69 72 71
f 72 104 73
f 73 104 105
f 73 105 106
f 73 106 107
f 73 107 108
f 73 108 74
f 74 108 109
f 74 109 110
f 74 110 75
f 75 110 76
f 76 110 111
f 76 111 77
f 77 111 112
f 77 112 113
f 77 113 114
f 77 114 78
f 78 115 116
f 78 116 79
f 78 114 115
f 79 116 117
f 79 117 118
f 79 118 80
f 80 118 82
f 80 82 81
f 82 118 117
f 82 117 119
f 82 119 120
f 82 120 121
f 82 121 83
f 83 121 122
f 85 123 86
f 86 123 124
f 86 124 125
f 86 125 126
f 86 126 88
f 87 88 127
f 88 126 127
f 92 128 93
f 93 128 129
f 93 129 130
f 93 130 94
f 94 130 129
f 94 129 131
f 94 131 132
f 94 132 133
f 94 133 134
f 94 134 135
f 94 135 136
f 94 136 95
f 95 136 137
f 95 137 138
f 95 138 96
f 97 139 98
f 98 140 141
f 98 141 99
f 98 139 195
f 98 195 140
f 99 141 142
f 99 142 143
f 99 143 144
f 99 144 100
f 100 144 145
f 100 145 146
f 100 146 147
f 100 147 101
f 101 147 102
f 102 147 148
f 102 148 104
f 102 104 103
f 104 148 105
f 105 148 106
f 106 149 150
f 106 150 108
f 106 108 107
f 106 148 151
f 106 151 152
f 106 152 149
f 108 150 153
f 108 153 109
f 109 154 110
f 109 153 155
f 109 155 156
f 109 156 154
f 110 154 157
f 110 157 111
f 111 158 112
f 111 157 158
f 112 158 113
f 113 159 114
f 113 158 160
f 113 160 159
f 114 159 160
f 114 160 161
f 114 161 115
f 115 117 116
f 115 161 162
f 115 162 163
f 115 163 117
f 117 163 164
f 117 164 165
f 117 165 166
f 117 166 167
f 117 167 119
f 119 167 168
f 119 168 120
f 120 168 169
f 120 169 170
f 120 170 121
f 121 170 122
f 123 171 172
f 123 172 124
f 124 172 173
f 124 173 174
f 124 174 125
f 125 175 126
f 125 174 176
f 125 176 175
f 126 177 178
f 126 178 179
f 126 179 127
f 126 175 177
f 128 180 129
f 129 181 132
f 129 132 131
f 129 180 182
f 129 182 183
f 129 183 181
f 132 181 184
f 132 184 133
f 133 184 185
f 133 185 134
f 134 186 187
f 134 187 135
f 134 185 188
f 134 188 189
f 134 189 190
f 134 190 191
f 134 191 192
f 134 192 193
f 134 193 186
f 135 187 194
f 135 194 137
f 135 137 136
f 140 196 197
f 140 197 141
f 140 195 196
f 141 197 198
f 141 198 142
f 142 198 199
f 142 199 143
f 143 145 144
f 143 199 200
f 143 200 201
f 143 201 145
f 145 201 146
f 146 201 202
f 146 202 147
f 147 151 148
f 147 202 203
f 147 203 151
f 149 204 150
f 149 152 205
f 149 205 204
f 150 204 153
f 151 203 206
f 151 206 207
f 151 207 152
f 152 207 205
f 153 204 208
f 153 208 209
f 153 209 155
f 154 156 210
f 154 210 211
f 154 211 157
f 155 209 210
f 155 210 156
f 157 211 212
f 157 212 158
f 158 212 213
f 158 213 160
f 160 213 214
f 160 214 215
f 160 215 162
f 160 162 161
f 162 215 216
f 162 216 163
f 163 216 164
f 164 216 215
f 164 215 217
f 164 217 165
f 165 218 166
f 165 217 219
f 165 219 220
f 165 220 218
f 166 221 222
f 166 222 167
f 166 218 221
f 167 222 168
f 168 222 223
f 168 223 169
f 169 223 224
f 169 224 225
f 169 225 226
f 169 226 227
f 169 227 170
f 171 228 172
f 172 228 229
f 172 229 230
f 172 230 231
f 172 231 173
f 173 232 176
f 173 176 174
f 173 231 233
f 173 233 232
f 175 234 235
f 175 235 177
f 175 176 236
f 175 236 234
f 176 232 237
f 176 237 236
f 177 235 238
f 177 238 178
f 181 239 240
f 181 240 241
f 181 241 184
f 181 183 239
f 182 242 183
f 183 242 243
f 183 243 244
f 183 244 245
f 183 245 246
f 183 246 240
f 183 240 239
f 184 241 247
f 184 247 248
f 184 248 249
f 184 249 189
f 184 189 188
f 184 188 185
f 186 193 194
f 186 194 187
f 189 249 250
f 189 250 190
f 190 250 191
f 191 251 252
f 191 252 253
f 191 253 192
f 191 250 251
f 192 254 255
f 192 255 256
f 192 256 257
f 192 257 193
f 192 253 258
f 192 258 259
f 192 259 260
f 192 260 254
f 193 257 194
f 195 261 196
f 196 262 263
f 196 263 197
f 196 261 264
f 196 264 262
f 197 263 198
f 198 263 265
f 198 265 199
f 199 265 266
f 199 266 267
f 199 267 268
f 199 268 200
f 200 268 269
f 200 269 270
f 200 270 201
f 201 270 203
f 201 203 202
f 203 270 206
f 204 205 271
f 204 271 272
f 204 272 273
f 204 273 274
f 204 274 208
f 205 207 275
f 205 275 276
f 205 276 277
f 205 277 271
f 206 278 207
f 206 270 278
f 207 278 275
f 208 274 209
f 209 274 279
f 209 279 210
f 210 279 280
f 210 280 211
f 211 280 281
f 211 281 212
f 212 281 213
f 213 281 282
f 213 282 283
f 213 283 284
f 213 284 214
f 214 284 215
f 215 284 285
f 215 285 286
f 215 286 217
f 217 286 287
f 217 287 288
f 217 288 220
f 217 220 219
f 218 220 221
f 220 288 286
f 220 286 289
f 220 289 290
f 220 290 291
f 220 291 292
f 220 292 293
f 220 293 223
f 220 223 221
f 221 223 222
f 223 294 295
f 223 295 224
f 223 293 296
f 223 296 294
f 224 295 225
f 225 295 297
f 225 297 298
f 229 299 230
f 230 299 300
f 230 300 301
f 230 301 302
f 230 302 231
f 231 302 303
f 231 303 233
f 232 233 304
f 232 304 237
f 233 303 305
f 233 305 304
f 234 306 307
f 234 307 235
f 234 236 306
f 235 307 308
f 235 308 309
f 235 309 238
f 236 310 306
f 236 237 310
f 237 311 310
f 237 304 311
f 240 246 312
f 240 312 241
f 241 312 247
f 243 313 244
f 244 314 245
f 244 313 314
f 245 314 246
f 246 314 312
f 247 315 248
f 247 312 315
f 248 315 249
f 249 316 250
f 249 315 316
f 250 316 317
f 250 317 251
f 251 317 252
f 252 317 318
f 252 318 319
f 252 319 320
f 252 320 253
f 253 320 321
f 253 321 258
f 254 260 322
f 258 260 259
f 258 321 323
f 258 323 260
f 260 324 322
f 260 323 325
f 260 325 326
f 260 326 324
f 262 327 328
f 262 328 263
f 262 264 329
f 262 329 327
f 263 328 330
f 263 330 265
f 265 330 331
f 265 331 266
f 266 331 332
f 266 332 267
f 267 332 333
f 267 333 334
f 267 334 268
f 268 334 335
f 268 335 269
f 269 335 336
f 269 336 337
f 269 337 270
f 270 337 278
f 271 277 272
f 272 277 273
f 273 277 338
f 273 338 274
f 274 338 339
f 274 339 279
f 275 340 276
f 275 278 340
f 276 340 341
f 276 341 342
f 276 342 277
f 277 342 343
f 277 343 338
f 278 337 340
f 279 339 344
f 279 344 345
f 279 345 280
f 280 345 346
f 280 346 347
f 280 347 281
f 281 347 282
f 282 347 346
f 282 346 348
f 282 348 349
f 282 349 283
f 283 349 285
f 283 285 284
f 285 349 350
f 285 350 286
f 286 351 289
f 286 288 287
f 286 350 352
f 286 352 351
f 289 351 290
f 290 351 353
f 290 353 291
f 291 353 354
f 291 354 312
f 291 312 355
f 291 355 356
f 291 356 292
f 292 356 293
f 293 356 357
f 293 357 296
f 294 296 357
f 294 357 358
f 294 358 295
f 295 358 359
f 295 359 297
f 297 359 298
f 298 359 313
f 300 360 301
f 301 360 361
f 301 361 362
f 301 362 302
f 302 362 303
f 303 362 363
f 303 363 364
f 303 364 305
f 304 365 311
f 304 305 366
f 304 366 367
f 304 367 365
f 305 364 368
f 305 368 366
f 306 369 307
f 306 310 369
f 307 369 370
f 307 370 371
f 307 371 308
f 310 372 369
f 310 311 372
f 311 373 372
f 311 365 374
f 311 374 373
f 312 314 375
f 312 375 357
f 312 357 355
f 312 354 315
f 313 359 376
f 313 376 314
f 314 376 377
f 314 377 375
f 315 354 378
f 315 378 317
f 315 317 316
f 317 379 318
f 317 378 354
f 317 354 379
f 318 379 380
f 318 380 381
f 318 381 319
f 319 381 382
f 319 382 383
f 319 383 384
f 319 384 320
f 320 384 321
f 321 384 385
f 321 385 386
f 321 386 387
f 321 387 323
f 323 387 325
f 325 387 388
f 327 389 328
f 327 329 390
f 327 390 389
f 328 389 391
f 328 391 392
f 328 392 330
f 330 392 393
f 330 393 331
f 331 393 394
f 331 394 332
f 332 394 395
f 332 395 333
f 333 395 396
f 333 396 397
f 333 397 334
f 334 397 398
f 334 398 335
f 335 398 336
f 336 398 399
f 336 399 400
f 336 400 337
f 337 400 340
f 338 343 339
f 339 343 344
f 340 400 341
f 341 400 401
f 341 401 342
f 342 401 402
f 342 402 343
f 343 402 403
f 343 403 344
f 344 403 345
f 345 403 404
f 345 404 405
f 345 405 346
f 346 405 348
f 348 405 406
f 348 406 349
f 349 406 407
f 349 407 350
f 350 407 408
f 350 408 409
f 350 409 410
f 350 410 352
f 351 352 411
f 351 411 353
f 352 410 411
f 353 412 354
f 353 411 412
f 354 412 379
f 355 357 356
f 357 375 377
f 357 377 359
f 357 359 358
f 359 377 376
f 360 413 361
f 361 413 414
f 361 414 415
f 361 415 362
f 362 415 416
f 362 416 417
f 362 417 363
f 363 417 418
f 363 418 364
f 364 418 419
f 364 419 368
f 365 367 374
f 366 368 420
f 366 420 421
f 366 421 367
f 367 421 374
f 368 419 422
f 368 422 420
f 369 423 424
f 369 424 370
f 369 372 423
f 370 424 425
f 370 425 426
f 370 426 371
f 372 427 423
f 372 373 428
f 372 428 427
f 373 374 429
f 373 429 430
f 373 430 431
f 373 431 428
f 374 421 429
f 379 412 380
f 380 432 410
f 380 410 433
f 380 433 434
f 380 434 381
f 380 412 432
f 381 434 435
f 381 435 382
f 382 435 436
f 382 436 383
f 383 437 416
f 383 416 438
f 383 438 439
f 383 439 385
f 383 385 384
f 383 436 440
f 383 440 441
f 383 441 437
f 385 439 386
f 386 442 443
f 386 443 387
f 386 439 444
f 386 444 445
f 386 445 442
f 387 443 388
f 389 424 423
f 389 423 391
f 389 390 446
f 389 446 424
f 391 423 427
f 391 427 392
f 392 427 393
f 393 427 394
f 394 427 428
f 394 428 395
f 395 428 431
f 395 431 430
f 395 430 396
f 396 429 447
f 396 447 448
f 396 448 397
f 396 430 429
f 397 448 399
f 397 399 398
f 399 448 449
f 399 449 400
f 400 449 401
f 401 449 402
f 402 449 450
f 402 450 403
f 403 451 404
f 403 450 451
f 404 451 405
f 405 451 452
f 405 452 453
f 405 453 454
f 405 454 455
f 405 455 456
f 405 456 457
f 405 457 408
f 405 408 407
f 405 407 406
f 408 457 410
f 408 410 409
f 410 457 433
f 410 432 411
f 411 432 412
f 413 458 414
f 414 458 459
f 414 459 460
f 414 460 461
f 414 461 462
f 414 462 415
f 415 462 416
f 416 462 463
f 416 463 438
f 416 437 464
f 416 464 417
f 417 464 418
f 418 464 419
f 419 464 441
f 419 441 422
f 420 422 465
f 420 465 466
f 420 466 421
f 421 466 429
f 422 441 467
f 422 467 468
f 422 468 469
f 422 469 465
f 424 446 470
f 424 470 425
f 429 466 447
f 433 457 471
f 433 471 434
f 434 471 455
f 434 455 472
f 434 472 473
f 434 473 474
f 434 474 435
f 435 474 436
f 436 474 440
f 437 441 464
f 438 463 444
f 438 444 439
f 440 474 441
f 441 474 473
f 441 473 467
f 444 475 445
f 444 463 475
f 447 466 476
f 447 476 477
f 447 477 448
f 448 477 449
f 449 477 450
f 450 477 451
f 451 477 452
f 452 477 476
f 452 476 466
f 452 466 465
f 452 465 469
f 452 469 453
f 453 469 454
f 454 469 468
f 454 468 455
f 455 478 472
f 455 471 456
f 455 468 478
f 456 471 457
f 460 479 461
f 461 479 462
f 462 479 463
f 463 479 480
f 463 480 481
f 463 481 475
f 467 473 468
f 468 473 478
f 472 478 473

