# https://github.com/mikedh/trimesh
v 7.34713451 23.96594393 29.47614616
v 7.30408998 23.95485552 29.47614616
v 7.34713451 23.94052891 29.47614616
v 7.34713451 23.95915801 29.41923004
v 7.30408998 23.93740900 29.47614616
v 7.30408998 23.94754439 29.41923004
v 7.34713451 23.94051153 29.47568932
v 7.33164589 23.93816028 29.47614616
v 7.32901249 23.93364561 29.45178299
v 7.32965294 23.93346823 29.44911435
v 7.33147314 23.93386821 29.44911435
v 7.33347031 23.93455342 29.44911435
v 7.33711073 23.93569078 29.44547631
v 7.34713451 23.94185062 29.41923004
v 7.30408998 23.93695336 29.47498734
v 7.32464315 23.93760378 29.47614616
v 7.30408998 23.93107177 29.41923004
v 7.34713451 23.94047327 29.47456392
v 7.34029609 23.93687684 29.44547631
v 7.32840576 23.93776378 29.47614616
v 7.32611786 23.93349257 29.45290281
v 7.31890866 23.93261955 29.45275239
v 7.32618527 23.93289085 29.44911435
v 7.32618527 23.93276564 29.44547631
v 7.32953496 23.93342301 29.44547631
v 7.34057840 23.93687336 29.43819465
v 7.32618527 23.93282824 29.42726939
v 7.32893665 23.93355866 29.42726939
v 7.33075686 23.93410473 29.42726939
v 7.34054047 23.93684901 29.44183826
v 7.33636495 23.93696379 29.41998773
v 7.33650821 23.93717944 29.41923004
v 7.34713451 23.94033066 29.43091300
v 7.34439156 23.93899157 29.43091300
v 7.34177501 23.93778464 29.43091300
v 7.30408998 23.93685248 29.47469763
v 7.30408998 23.93577773 29.47095931
v 7.30434278 23.93362127 29.46263025
v 7.30798320 23.93365952 29.46241855
v 7.30798320 23.93099524 29.41923004
v 7.30408998 23.93095003 29.41998773
v 7.34236490 23.93756204 29.44183826
v 7.34439156 23.93847332 29.44183826
v 7.34713451 23.93976372 29.44204440
v 7.31162783 23.93267520 29.45639600
v 7.31526824 23.93222652 29.45275239
v 7.32254907 23.93252912 29.44911435
v 7.32254907 23.93234826 29.44547631
v 7.31890866 23.93163871 29.43455104
v 7.31890866 23.93155523 29.43091300
v 7.32254907 23.93209435 29.43091300
v 7.32254907 23.93210130 29.42726939
v 7.32618527 23.93281086 29.43091300
v 7.34039300 23.93698814 29.43455104
v 7.34221321 23.93760029 29.43455104
v 7.34239860 23.93753769 29.43819465
v 7.32618527 23.93305780 29.42363135
v 7.32858272 23.93366996 29.42363135
v 7.33040293 23.93419517 29.42363135
v 7.33347031 23.93523514 29.42363135
v 7.33347031 23.93576382 29.41998773
v 7.33621327 23.93705422 29.41923004
v 7.34713451 23.94002806 29.43365407
v 7.34439156 23.93861940 29.43455104
v 7.30408998 23.93362474 29.46261911
v 7.30408998 23.93358301 29.46245197
v 7.30434278 23.93304042 29.46003961
v 7.30798320 23.93318649 29.46003961
v 7.31086941 23.93114481 29.41923004
v 7.31162783 23.93107872 29.41998773
v 7.30798320 23.93089090 29.41998773
v 7.30434278 23.93061265 29.42363135
v 7.30408998 23.93064047 29.42338064
v 7.34439156 23.93845593 29.43819465
v 7.34713451 23.93973241 29.43819465
v 7.30434278 23.93240043 29.45639600
v 7.31162783 23.93206652 29.45275239
v 7.31526824 23.93188914 29.44911435
v 7.31890866 23.93216739 29.44911435
v 7.31890866 23.93201087 29.44547631
v 7.31526824 23.93139524 29.43819465
v 7.31526824 23.93125611 29.43455104
v 7.31526824 23.93114133 29.43091300
v 7.31526824 23.93114481 29.42726939
v 7.31890866 23.93157958 29.42726939
v 7.31890866 23.93183001 29.42363135
v 7.32254907 23.93235521 29.42363135
v 7.34713451 23.93977416 29.43729211
v 7.32254907 23.93283868 29.41998773
v 7.32615578 23.93351345 29.42018273
v 7.32818666 23.93378126 29.42152540
v 7.32956867 23.93443168 29.42018273
v 7.32963608 23.93465080 29.41923004
v 7.33271190 23.93566991 29.41923004
v 7.33350824 23.93595860 29.41923004
v 7.34713451 23.93992024 29.43472375
v 7.30408998 23.93304389 29.46003961
v 7.30408998 23.93299171 29.45978333
v 7.30408998 23.93239348 29.45639600
v 7.31162783 23.93118655 29.41923004
v 7.31526824 23.93172218 29.41923004
v 7.31526824 23.93161784 29.41998773
v 7.31526824 23.93131524 29.42363135
v 7.31162783 23.93085612 29.42363135
v 7.30798320 23.93063352 29.42363135
v 7.30408998 23.93061961 29.42363135
v 7.30434278 23.93048048 29.42726939
v 7.30408998 23.93048396 29.42726939
v 7.30408998 23.93188565 29.45275239
v 7.30408998 23.93185783 29.45250168
v 7.30408998 23.93155871 29.44886364
v 7.30434278 23.93051526 29.43455104
v 7.30798320 23.93066483 29.43455104
v 7.31162783 23.93093612 29.43455104
v 7.31162783 23.93078656 29.43091300
v 7.31162783 23.93079351 29.42726939
v 7.32179486 23.93281433 29.41923004
v 7.32571337 23.93357605 29.41923004
v 7.32739453 23.93398995 29.41923004
v 7.32762206 23.93405604 29.41923004
v 7.30798320 23.93056395 29.42726939
v 7.30434278 23.93041439 29.43091300
v 7.30408998 23.93041439 29.43091300
v 7.30408998 23.93051526 29.43455104
v 7.30408998 23.93050830 29.43430033
v 7.30798320 23.93053961 29.43091300
f 1 2 5
f 1 5 16
f 1 16 20
f 1 20 8
f 1 8 3
f 1 3 7
f 1 7 18
f 1 18 44
f 1 44 75
f 1 75 88
f 1 88 96
f 1 96 63
f 1 63 33
f 1 33 14
f 1 14 4
f 1 4 2
f 2 4 6
f 2 6 17
f 2 17 41
f 2 41 73
f 2 73 106
f 2 106 108
f 2 108 123
f 2 123 125
f 2 125 124
f 2 124 111
f 2 111 110
f 2 110 109
f 2 109 99
f 2 99 98
f 2 98 97
f 2 97 66
f 2 66 65
f 2 65 37
f 2 37 36
f 2 36 15
f 2 15 5
f 3 8 9
f 3 9 10
f 3 10 11
f 3 11 12
f 3 12 13
f 3 13 7
f 4 14 32
f 4 32 62
f 4 62 95
f 4 95 94
f 4 94 93
f 4 93 120
f 4 120 119
f 4 119 118
f 4 118 117
f 4 117 101
f 4 101 100
f 4 100 69
f 4 69 40
f 4 40 17
f 4 17 6
f 5 15 16
f 7 13 19
f 7 19 18
f 8 20 9
f 9 20 21
f 9 21 22
f 9 22 23
f 9 23 10
f 10 23 24
f 10 24 25
f 10 25 11
f 11 26 13
f 11 13 12
f 11 25 27
f 11 27 28
f 11 28 29
f 11 29 26
f 13 26 30
f 13 30 19
f 14 31 32
f 14 33 34
f 14 34 35
f 14 35 31
f 15 36 16
f 16 36 37
f 16 37 38
f 16 38 39
f 16 39 20
f 17 40 41
f 18 19 30
f 18 30 42
f 18 42 43
f 18 43 44
f 20 39 45
f 20 45 46
f 20 46 22
f 20 22 21
f 22 46 23
f 23 46 47
f 23 47 48
f 23 48 24
f 24 48 49
f 24 49 50
f 24 50 51
f 24 51 52
f 24 52 25
f 25 53 27
f 25 52 53
f 26 54 55
f 26 55 56
f 26 56 30
f 26 29 54
f 27 52 57
f 27 57 58
f 27 58 28
f 27 53 52
f 28 58 59
f 28 59 29
f 29 59 60
f 29 60 55
f 29 55 54
f 30 56 42
f 31 60 61
f 31 61 62
f 31 62 32
f 31 35 60
f 33 63 34
f 34 63 64
f 34 64 55
f 34 55 35
f 35 55 60
f 37 65 38
f 38 65 66
f 38 66 67
f 38 67 39
f 39 67 68
f 39 68 45
f 40 69 70
f 40 70 71
f 40 71 41
f 41 71 72
f 41 72 73
f 42 56 43
f 43 56 74
f 43 74 75
f 43 75 44
f 45 68 67
f 45 67 76
f 45 76 77
f 45 77 46
f 46 77 78
f 46 78 79
f 46 79 47
f 47 79 48
f 48 79 80
f 48 80 81
f 48 81 82
f 48 82 83
f 48 83 49
f 49 83 50
f 50 83 84
f 50 84 85
f 50 85 52
f 50 52 51
f 52 85 86
f 52 86 87
f 52 87 57
f 55 64 88
f 55 88 75
f 55 75 74
f 55 74 56
f 57 87 89
f 57 89 90
f 57 90 91
f 57 91 58
f 58 91 59
f 59 91 92
f 59 92 61
f 59 61 60
f 61 93 94
f 61 94 95
f 61 95 62
f 61 92 93
f 63 96 64
f 64 96 88
f 66 97 67
f 67 97 98
f 67 98 99
f 67 99 76
f 69 100 70
f 70 100 101
f 70 101 102
f 70 102 87
f 70 87 86
f 70 86 103
f 70 103 104
f 70 104 105
f 70 105 71
f 71 105 72
f 72 106 73
f 72 105 107
f 72 107 108
f 72 108 106
f 76 99 77
f 77 109 110
f 77 110 111
f 77 111 78
f 77 99 109
f 78 111 112
f 78 112 113
f 78 113 114
f 78 114 79
f 79 114 81
f 79 81 80
f 81 114 115
f 81 115 82
f 82 115 83
f 83 115 84
f 84 115 116
f 84 116 104
f 84 104 85
f 85 104 103
f 85 103 86
f 87 102 89
f 89 102 117
f 89 117 118
f 89 118 90
f 90 118 119
f 90 119 91
f 91 119 92
f 92 119 120
f 92 120 93
f 101 117 102
f 104 116 121
f 104 121 105
f 105 121 107
f 107 121 122
f 107 122 123
f 107 123 108
f 111 124 112
f 112 124 125
f 112 125 122
f 112 122 126
f 112 126 113
f 113 126 115
f 113 115 114
f 115 126 116
f 116 126 121
f 121 126 122
f 122 125 123

