# https://github.com/mikedh/trimesh
v 7.12532560 24.09856617 29.42726928
v 7.12534078 24.09856617 29.43091192
v 7.12538635 24.09856617 29.42363247
v 7.12614573 24.09586364 29.42726928
v 7.12613054 24.09586364 29.43091192
v 7.12547747 24.09856617 29.43455456
v 7.12625204 24.09586364 29.43455456
v 7.12549266 24.09856617 29.41990836
v 7.12626723 24.09586364 29.42363247
v 7.12723924 24.09272634 29.42726928
v 7.12721646 24.09263234 29.43091192
v 7.12728481 24.09274984 29.43455456
v 7.12572048 24.09856617 29.43819720
v 7.12648745 24.09586364 29.43819720
v 7.12739871 24.09304359 29.43819720
v 7.12550785 24.09856617 29.41968142
v 7.12644188 24.09586364 29.41968142
v 7.12642670 24.09586364 29.41998983
v 7.12793787 24.09090506 29.42726928
v 7.12789991 24.09081106 29.43091192
v 7.12651782 24.09566388 29.41968142
v 7.12793787 24.09092856 29.43455456
v 7.12802900 24.09122232 29.43819720
v 7.12594070 24.09856617 29.44089136
v 7.12679880 24.09586364 29.44183402
v 7.12755059 24.09346660 29.44183402
v 7.13967034 24.09856617 29.41968142
v 7.12805178 24.09117532 29.42363247
v 7.12917567 24.08857853 29.42363247
v 7.12894785 24.08857853 29.42726928
v 7.13358009 24.07765087 29.43091192
v 7.12884913 24.08857853 29.43091192
v 7.12887950 24.08857853 29.43455456
v 7.12745187 24.09332560 29.41968142
v 7.12906936 24.08857853 29.43819720
v 7.12818087 24.09164533 29.44183402
v 7.12935032 24.08857853 29.44183402
v 7.12602423 24.09856617 29.44183402
v 7.12766449 24.09381911 29.44423723
v 7.12725442 24.09565213 29.44546502
v 7.12639633 24.09856617 29.44547666
v 7.12629761 24.09856617 29.44453400
v 7.14907150 24.09856617 29.47912743
v 7.20289655 23.99954750 29.41968142
v 7.12814290 24.09165707 29.41968142
v 7.13488623 24.07553584 29.42363247
v 7.13750609 24.07017776 29.41968142
v 7.13477232 24.07527734 29.42726928
v 7.13470397 24.07514809 29.43091192
v 7.13356490 24.07765087 29.43455456
v 7.13206132 24.08110542 29.43455456
v 7.13042865 24.08493598 29.43455456
v 7.13133232 24.08299720 29.43718471
v 7.13072481 24.08460697 29.43831940
v 7.13233470 24.08129342 29.44183402
v 7.13073241 24.08518273 29.44183402
v 7.12971483 24.08857853 29.44547666
v 7.13010971 24.08857853 29.44911930
v 7.13163607 24.08373746 29.44547666
v 7.13089947 24.08555874 29.44547666
v 7.13108171 24.08599349 29.44911930
v 7.12884154 24.09222108 29.44911930
v 7.12932754 24.09222108 29.45275612
v 7.12783157 24.09430086 29.44666372
v 7.12741390 24.09665090 29.44911930
v 7.12673805 24.09856617 29.44822319
v 7.20289655 24.01306020 29.47912743
v 7.13316243 24.09856617 29.47912743
v 7.20289655 23.97885545 29.41968142
v 7.13844014 24.06805099 29.41968142
v 7.13938178 24.06595945 29.41968142
v 7.13699731 24.07037752 29.42726928
v 7.13470397 24.07514809 29.43455456
v 7.13690618 24.07037752 29.43091192
v 7.13557726 24.07339731 29.43819720
v 7.13474954 24.07521859 29.43819720
v 7.13367122 24.07765087 29.43819720
v 7.13199297 24.08158718 29.43831940
v 7.13263845 24.08129342 29.44547666
v 7.13386865 24.07765087 29.44183402
v 7.13124118 24.08640475 29.45184837
v 7.13071721 24.08829652 29.45293650
v 7.13181073 24.08417222 29.44911930
v 7.12991227 24.09222108 29.45639294
v 7.12872004 24.09586364 29.45639294
v 7.12816569 24.09596939 29.45294814
v 7.12799103 24.09482962 29.44911930
v 7.13095262 24.08921304 29.45639294
v 7.12761134 24.09726190 29.45186582
v 7.12685195 24.09856617 29.44911930
v 7.20289655 23.98939536 29.47912743
v 7.13286626 24.09856617 29.47824295
v 7.13399775 24.09594589 29.47912743
v 7.20289655 23.97879671 29.42030987
v 7.20051209 23.98112324 29.42133981
v 7.20188657 23.97988947 29.41968142
v 7.13824270 24.06768673 29.42726928
v 7.14083220 24.06288091 29.41968142
v 7.13691378 24.07037752 29.43455456
v 7.13819714 24.06759273 29.43091192
v 7.13566839 24.07359706 29.44183402
v 7.13820472 24.06761623 29.43455456
v 7.13700490 24.07037752 29.43819720
v 7.13717197 24.07037752 29.44183402
v 7.13484066 24.07541834 29.44183402
v 7.13301814 24.08129342 29.44911930
v 7.13432429 24.07734537 29.44559304
v 7.13494698 24.07566509 29.44445835
v 7.13143103 24.08688650 29.45427485
v 7.13347377 24.08129342 29.45275612
v 7.13193223 24.08508873 29.45293650
v 7.13120322 24.08989455 29.45913365
v 7.12931236 24.09586364 29.46003558
v 7.12793787 24.09835467 29.45639294
v 7.12778600 24.09782591 29.45429231
v 7.13161329 24.08739176 29.45639294
v 7.12747465 24.09856617 29.45358822
v 7.19658608 23.99542319 29.47912743
v 7.20289655 23.98930136 29.47893540
v 7.13187907 24.09856617 29.47487380
v 7.13373197 24.09586364 29.47824295
v 7.13482547 24.09346660 29.47912743
v 7.20289655 23.97863220 29.42274217
v 7.19880348 23.98306202 29.41968142
v 7.20289655 23.97857345 29.42363247
v 7.20045134 23.98106449 29.42363247
v 7.19692022 23.98481279 29.42177041
v 7.19654052 23.98541205 29.41968142
v 7.19762643 23.98428403 29.41968142
v 7.13909320 24.06577145 29.43091192
v 7.14195608 24.06055438 29.41968142
v 7.13750609 24.07037752 29.44547666
v 7.13827307 24.06774548 29.43819720
v 7.13910840 24.06579495 29.43455456
v 7.13916914 24.06592421 29.43819720
v 7.13835660 24.06792173 29.44183402
v 7.13850849 24.06823899 29.44547666
v 7.13506847 24.07593535 29.44688483
v 7.13519758 24.07622910 29.44911930
v 7.13255492 24.08493598 29.45639294
v 7.13422556 24.08098792 29.45663151
v 7.13542539 24.07678136 29.45275612
v 7.13556208 24.07778012 29.45663151
v 7.13187907 24.08863728 29.46022178
v 7.13144622 24.09055256 29.46156013
v 7.13099819 24.09297309 29.46367822
v 7.13069444 24.09195083 29.46022178
v 7.13000339 24.09586364 29.46367822
v 7.12916807 24.09856617 29.46367822
v 7.12849222 24.09856617 29.46010540
v 7.12797584 24.09856617 29.45700392
v 7.12787712 24.09856617 29.45639294
v 7.13325355 24.08493598 29.46003558
v 7.19476356 23.99717397 29.47912743
v 7.19457372 23.99697422 29.47824295
v 7.19638864 23.99523519 29.47824295
v 7.20289655 23.98898410 29.47819640
v 7.13155254 24.09856617 29.47369256
v 7.13267642 24.09586364 29.47460031
v 7.13412684 24.09186857 29.47494363
v 7.13503810 24.09042330 29.47639254
v 7.13468878 24.09306709 29.47824295
v 7.13532667 24.09124582 29.47824295
v 7.13550132 24.09158657 29.47912743
v 7.20289655 23.97852645 29.42726928
v 7.20042856 23.98104099 29.42726928
v 7.19688223 23.98477754 29.42363247
v 7.19556851 23.98642257 29.41968142
v 7.18820249 23.99421292 29.41998983
v 7.19007058 23.99223890 29.41968142
v 7.14278381 24.05888585 29.41968142
v 7.14285975 24.05873310 29.41968142
v 7.14043731 24.06309241 29.43091192
v 7.14046010 24.06309241 29.43455456
v 7.13809082 24.07096503 29.45275612
v 7.14060438 24.06309241 29.43819720
v 7.13926786 24.06611221 29.44183402
v 7.14109038 24.06309241 29.44547666
v 7.13941975 24.06641771 29.44547666
v 7.14314071 24.05976712 29.44891564
v 7.13950327 24.06706397 29.44888654
v 7.14013357 24.06673497 29.45275612
v 7.13894892 24.06914375 29.45275612
v 7.13667078 24.07402007 29.45275612
v 7.13523554 24.08001266 29.46003558
v 7.13449894 24.08183393 29.46003558
v 7.13717197 24.07402007 29.45639294
v 7.13622274 24.07765087 29.46003558
v 7.13260048 24.08857853 29.46367822
v 7.13165125 24.09115182 29.46367822
v 7.13124878 24.09366635 29.46607561
v 7.13084631 24.09576963 29.46730340
v 7.12977558 24.09856617 29.46637819
v 7.13479511 24.08252719 29.46293921
v 7.13418760 24.08461872 29.46396334
v 7.19288029 23.99898350 29.47912743
v 7.19379915 23.99624570 29.47460031
v 7.20289655 23.98750358 29.47460031
v 7.20289655 23.98795009 29.47569427
v 7.19269044 23.99879549 29.47824295
v 7.13108171 24.09856617 29.47186542
v 7.13145381 24.09789641 29.47251714
v 7.13178794 24.09576963 29.47116715
v 7.13292702 24.09222108 29.47096349
v 7.13468878 24.08954204 29.47396023
v 7.13540261 24.08842578 29.47494363
v 7.13666318 24.08493598 29.47460031
v 7.13630627 24.08857853 29.47824295
v 7.13662521 24.08850803 29.47912743
v 7.20289655 23.97860870 29.42966086
v 7.20047412 23.98108799 29.43091192
v 7.19692780 23.98482454 29.43225609
v 7.19687465 23.98476579 29.42726928
v 7.18631922 23.99608120 29.42363247
v 7.18637997 23.99616345 29.41998983
v 7.18821009 23.99422467 29.41968142
v 7.14435573 24.05580731 29.41968142
v 7.14183458 24.06035462 29.43091192
v 7.14184217 24.06038987 29.43455456
v 7.13918434 24.06968426 29.45639294
v 7.14202443 24.06071888 29.44183402
v 7.14080942 24.06309241 29.44183402
v 7.14561630 24.05335152 29.43819720
v 7.14307996 24.05915611 29.44547666
v 7.14525180 24.05558406 29.44876434
v 7.14530495 24.05640657 29.45275612
v 7.14377101 24.05944986 29.45275612
v 7.14061957 24.06673497 29.45639294
v 7.13549373 24.08130517 29.46396334
v 7.13854645 24.07194029 29.45882524
v 7.13792376 24.07380857 29.46003558
v 7.13698213 24.07765087 29.46367822
v 7.13336746 24.08857853 29.46732085
v 7.13453691 24.08553524 29.46732085
v 7.13200057 24.09236208 29.46730340
v 7.13153735 24.09450062 29.46850209
v 7.13114247 24.09693290 29.47009066
v 7.12998821 24.09856617 29.46731503
v 7.19108055 24.00088702 29.47912743
v 7.19087552 24.00069902 29.47824295
v 7.19196903 23.99806698 29.47460031
v 7.19338908 23.99584620 29.47246477
v 7.20289655 23.98623456 29.47126026
v 7.19014652 23.99992351 29.47460031
v 7.13083112 24.09856617 29.47084129
v 7.13432429 24.08842578 29.47102168
v 7.13516719 24.08710976 29.47227275
v 7.13565320 24.08500648 29.47102168
v 7.13712640 24.08129342 29.47096349
v 7.13809082 24.08128167 29.47444902
v 7.13840976 24.08249194 29.47723628
v 7.13784782 24.08475972 29.47837097
v 7.13796933 24.08505348 29.47912743
v 7.20289655 23.97866745 29.43091192
v 7.20052728 23.98113499 29.43307074
v 7.18634960 23.99610470 29.43091192
v 7.19699615 23.98489504 29.43455456
v 7.18290960 23.99997051 29.43455456
v 7.18631163 23.99608120 29.42726928
v 7.18279569 23.99985301 29.42726928
v 7.18463340 23.99790248 29.42363247
v 7.18281088 23.99988826 29.42363247
v 7.18473971 23.99798473 29.41968142
v 7.18625088 23.99632796 29.41968142
v 7.14562390 24.05337502 29.41968142
v 7.14562390 24.05336327 29.41998983
v 7.14557075 24.05329277 29.42726928
v 7.14421905 24.05580731 29.43091192
v 7.14557075 24.05326927 29.43455456
v 7.14141692 24.06642946 29.46022760
v 7.13940455 24.07057727 29.46003558
v 7.14296606 24.05889760 29.44183402
v 7.14654275 24.05144800 29.43455456
v 7.14659591 24.05153025 29.43819720
v 7.14573021 24.05357478 29.44183402
v 7.14456835 24.05580731 29.44183402
v 7.14482655 24.05580731 29.44547666
v 7.14595043 24.05398603 29.44730962
v 7.14607194 24.05422104 29.44973028
v 7.14558593 24.05693532 29.45639294
v 7.14429498 24.05944986 29.45639294
v 7.14284456 24.06231690 29.45639294
v 7.14192570 24.06413818 29.45639294
v 7.14627697 24.05458529 29.45275612
v 7.14213833 24.06458468 29.45913946
v 7.13623033 24.08129342 29.46732085
v 7.13878945 24.07245730 29.46125173
v 7.13904765 24.07305656 29.46367822
v 7.13789338 24.07743937 29.46737322
v 7.13483307 24.08627550 29.46984626
v 7.18935675 24.00272005 29.47912743
v 7.18918209 24.00252029 29.47824295
v 7.18974404 23.99950050 29.47243568
v 7.19136153 23.99746772 29.47123698
v 7.19297901 23.99544670 29.47003828
v 7.20289655 23.98488329 29.46732085
v 7.20289655 23.98598781 29.47056781
v 7.18849865 24.00174478 29.47460031
v 7.13827307 24.07856738 29.47096349
v 7.13856924 24.07923714 29.47313394
v 7.13891096 24.08007141 29.47556043
v 7.13928306 24.08128167 29.47837097
v 7.13899449 24.08252719 29.47912743
v 7.13840217 24.08398421 29.47912743
v 7.20289655 23.97887896 29.43385047
v 7.20064878 23.98126424 29.43549723
v 7.18465617 23.99792598 29.43091192
v 7.19719358 23.98509479 29.43819720
v 7.18912135 23.99519994 29.45275612
v 7.18336522 24.00045227 29.44547666
v 7.18320575 24.00028776 29.44183402
v 7.18134527 24.00194454 29.43819720
v 7.18121617 24.00179178 29.43455456
v 7.18115542 24.00170953 29.43091192
v 7.18113263 24.00167428 29.42726928
v 7.18117061 24.00169778 29.42363247
v 7.18290960 23.99999401 29.41998983
v 7.18291719 24.00000576 29.41968142
v 7.14658831 24.05155375 29.41968142
v 7.14658831 24.05154200 29.41998983
v 7.14656553 24.05151850 29.42363247
v 7.14556315 24.05325752 29.43091192
v 7.14236615 24.06501944 29.46156595
v 7.14170548 24.06732247 29.46367822
v 7.14026266 24.07037752 29.46367822
v 7.14655795 24.05144800 29.43091192
v 7.14819061 24.04852220 29.43455456
v 7.14866143 24.04869846 29.44547666
v 7.14670982 24.05175350 29.44183402
v 7.14831212 24.04852220 29.43819720
v 7.14968660 24.04687718 29.44547666
v 7.14683891 24.05202376 29.44547666
v 7.14687688 24.05252901 29.44876434
v 7.14883609 24.04898046 29.44911930
v 7.14580615 24.05735833 29.45890089
v 7.14656553 24.05511405 29.45639294
v 7.14760588 24.05216476 29.45275612
v 7.13936658 24.07417282 29.46737322
v 7.13878187 24.07608810 29.46861847
v 7.18666095 24.00571634 29.47912743
v 7.18712417 24.00492908 29.47851062
v 7.18559022 24.00619810 29.47748068
v 7.18937953 23.99910099 29.47000919
v 7.18668373 24.00378931 29.47460031
v 7.18624328 24.00329581 29.47198762
v 7.18780762 24.00118078 29.47099841
v 7.19075402 23.99688021 29.46732085
v 7.19257654 23.99504719 29.46732085
v 7.20289655 23.98374353 29.46367822
v 7.13906283 24.07675786 29.47096349
v 7.13953365 24.07787413 29.47444902
v 7.14080182 24.07765087 29.47824295
v 7.14107520 24.07769787 29.47912743
v 7.20289655 23.97901996 29.43514227
v 7.20289655 23.97941946 29.43866853
v 7.20289655 23.98060623 29.44911930
v 7.19900852 23.98325002 29.43819720
v 7.20144614 23.98208675 29.44911930
v 7.20169673 23.98233351 29.45275612
v 7.18938713 23.99548194 29.45639294
v 7.18725327 23.99780847 29.45674789
v 7.18729883 23.99715047 29.45275612
v 7.18186924 24.00249679 29.44911930
v 7.18166421 24.00227354 29.44547666
v 7.17952275 24.00394207 29.43819720
v 7.17940125 24.00381281 29.43455456
v 7.17933291 24.00373056 29.43091192
v 7.17931012 24.00371881 29.42726928
v 7.17935568 24.00378931 29.42363247
v 7.17946200 24.00390682 29.41998983
v 7.18129211 24.00182703 29.41968142
v 7.18278050 24.00015851 29.41968142
v 7.14827415 24.04852220 29.41968142
v 7.14826655 24.04852220 29.41998983
v 7.14261674 24.06550120 29.46367822
v 7.14606434 24.05784009 29.46132737
v 7.14940562 24.05363353 29.46620362
v 7.14203961 24.06801573 29.46650621
v 7.14131819 24.07007201 29.46755943
v 7.14824377 24.04852220 29.42363247
v 7.15047636 24.04459765 29.43091192
v 7.14942082 24.04640717 29.43455456
v 7.14984607 24.04715918 29.44911930
v 7.15054471 24.04470340 29.43819720
v 7.15245835 24.04176586 29.44183402
v 7.15085604 24.04487965 29.44547666
v 7.15115980 24.04487965 29.44911930
v 7.15162303 24.04487965 29.45275612
v 7.14676297 24.05600706 29.46008213
v 7.15311142 24.04285862 29.45517097
v 7.14870700 24.05247026 29.46003558
v 7.14029303 24.07402007 29.47096349
v 7.18590916 24.00656235 29.47912743
v 7.18508903 24.00561059 29.47460031
v 7.18303109 24.00995815 29.47912743
v 7.18254510 24.01053391 29.47912743
v 7.18215781 24.01006390 29.47697443
v 7.18326650 24.00774912 29.47460031
v 7.18899225 23.99870149 29.46732085
v 7.18716974 24.00068727 29.46732085
v 7.18665335 24.00009976 29.46367822
v 7.18269697 24.00706761 29.47096349
v 7.18473211 24.00464708 29.47084711
v 7.18587119 24.00287280 29.46956113
v 7.19024524 23.99636321 29.46367822
v 7.18847587 23.99818448 29.46367822
v 7.19206775 23.99453018 29.46367822
v 7.20289655 23.98269776 29.46001230
v 7.14143211 24.07383207 29.47469341
v 7.14194849 24.07506583 29.47824295
v 7.14208518 24.07535959 29.47912743
v 7.20289655 23.98111149 29.45275612
v 7.18957698 23.99568169 29.45846447
v 7.18600028 23.99938300 29.45819098
v 7.18582563 23.99919500 29.45576450
v 7.18212743 24.00276705 29.45275612
v 7.17520186 24.01045166 29.44995140
v 7.17504239 24.01027541 29.44753073
v 7.17984169 24.00436507 29.44547666
v 7.17968221 24.00414182 29.44183402
v 7.17814067 24.00596310 29.44183402
v 7.17493608 24.01014615 29.44547666
v 7.17799639 24.00576334 29.43819720
v 7.17787489 24.00563409 29.43455456
v 7.17778377 24.00555184 29.43091192
v 7.17777617 24.00554009 29.42726928
v 7.17792804 24.00572809 29.41998983
v 7.17934050 24.00407132 29.41968142
v 7.17451841 24.00962915 29.42363247
v 7.17458676 24.00972315 29.41998983
v 7.17627259 24.00772562 29.41968142
v 7.14945119 24.04647768 29.41968142
v 7.14945119 24.04646593 29.41998983
v 7.14630735 24.06196440 29.47096349
v 7.14536571 24.06378567 29.47096349
v 7.14909427 24.05310477 29.46367822
v 7.15247353 24.04841645 29.46709391
v 7.15040802 24.05231751 29.46737904
v 7.14972457 24.05424454 29.46863011
v 7.14571502 24.06445543 29.47366929
v 7.14260915 24.06917900 29.47096349
v 7.14172067 24.07100028 29.47096349
v 7.15050674 24.04463290 29.42363247
v 7.15229888 24.04151910 29.43091192
v 7.15049154 24.04458590 29.43455456
v 7.15293676 24.04256487 29.45275612
v 7.15236722 24.04164836 29.43819720
v 7.15354427 24.03994458 29.44183402
v 7.15257984 24.04196561 29.44547666
v 7.15272413 24.04223586 29.44911930
v 7.15403026 24.04075534 29.45275612
v 7.15611098 24.03826431 29.45639294
v 7.15415177 24.04148385 29.45638712
v 7.15500987 24.04124885 29.46003558
v 7.15335441 24.04328163 29.45759745
v 7.15165340 24.04852220 29.46367822
v 7.14206999 24.07170529 29.47353545
v 7.18107948 24.01193218 29.47820804
v 7.17924937 24.01461122 29.47912743
v 7.17874818 24.01398846 29.47632271
v 7.17970500 24.01220243 29.47490871
v 7.18174774 24.00957040 29.47460031
v 7.18555225 24.00250854 29.46732085
v 7.18505106 24.00192104 29.46367822
v 7.18460302 24.00141578 29.46003558
v 7.18619773 23.99960625 29.46003558
v 7.18117820 24.00888889 29.47096349
v 7.18240841 24.00672685 29.46895015
v 7.18988073 23.99598720 29.46089096
v 7.18830881 23.99733847 29.45982028
v 7.19715561 23.98869034 29.46094915
v 7.20289655 23.98254501 29.45942459
v 7.14412791 24.07037752 29.47824295
v 7.14279140 24.07324456 29.47824295
v 7.14393807 24.07139978 29.47912743
v 7.20289655 23.98140524 29.45427485
v 7.20289655 23.98181650 29.45639294
v 7.19684427 23.98838484 29.45851684
v 7.18249953 24.00319005 29.45738797
v 7.18228690 24.00294330 29.45496148
v 7.17539170 24.01068666 29.45275612
v 7.17393370 24.01250794 29.45275612
v 7.17394888 24.01184993 29.44889236
v 7.17017475 24.01603299 29.44547666
v 7.17164035 24.01421171 29.44547666
v 7.17332619 24.01212018 29.44547666
v 7.17150366 24.01403546 29.44276505
v 7.17140494 24.01391796 29.44033856
v 7.17596125 24.00777262 29.43091192
v 7.17595365 24.00774912 29.42726928
v 7.17793564 24.00573984 29.41968142
v 7.17269590 24.01187343 29.42363247
v 7.17293130 24.01179118 29.41968142
v 7.17460195 24.00973490 29.41968142
v 7.15055229 24.04465640 29.41968142
v 7.15054471 24.04464465 29.41998983
v 7.15232925 24.04157786 29.42363247
v 7.15317217 24.04660693 29.46573229
v 7.15283044 24.04965022 29.47096349
v 7.15348352 24.04713568 29.46815878
v 7.15147115 24.05216476 29.47096349
v 7.14975494 24.05793409 29.47583974
v 7.14870700 24.05927361 29.47461195
v 7.14667944 24.06318642 29.47476906
v 7.14604156 24.06508994 29.47609577
v 7.14497842 24.06647646 29.47476906
v 7.15231406 24.04154260 29.42726928
v 7.15231406 24.04156610 29.43455456
v 7.15339998 24.03969783 29.43091192
v 7.15348352 24.03982708 29.43819720
v 7.15643751 24.03510351 29.43819720
v 7.15500987 24.03761805 29.44183402
v 7.15662736 24.03542077 29.44547666
v 7.15524528 24.03761805 29.44547666
v 7.15366576 24.04014433 29.44547666
v 7.15384042 24.04041459 29.44911930
v 7.15687036 24.03578502 29.45097553
v 7.15605023 24.03741830 29.45241862
v 7.15706021 24.03606703 29.45340784
v 7.16027998 24.03180171 29.45639294
v 7.15646788 24.03878132 29.46003558
v 7.15360501 24.04372814 29.46003558
v 7.15672608 24.03919257 29.46247370
v 7.14301921 24.07044802 29.47469341
v 7.17908990 24.01441147 29.47824295
v 7.17780654 24.01643250 29.47912743
v 7.17764708 24.01623274 29.47824295
v 7.17684213 24.01570398 29.47473415
v 7.17833051 24.01347145 29.47389622
v 7.17785211 24.01290744 29.47096349
v 7.17935568 24.01108617 29.47096349
v 7.18348673 24.00501133 29.46757107
v 7.18323613 24.00407132 29.46367822
v 7.18278050 24.00353081 29.46003558
v 7.17896839 24.01060441 29.46817623
v 7.18208946 24.00633910 29.46651784
v 7.14441648 24.07037752 29.47912743
v 7.14546443 24.06758098 29.47824295
v 7.14560872 24.06786298 29.47912743
v 7.18124655 24.00535208 29.46003558
v 7.17751039 24.00887714 29.45639294
v 7.17904433 24.00705586 29.45639294
v 7.18112505 24.00457657 29.45625910
v 7.17568787 24.01106267 29.45639294
v 7.17423744 24.01288394 29.45639294
v 7.17241492 24.01521048 29.45639294
v 7.16766119 24.02105031 29.45522915
v 7.17211876 24.01483447 29.45275612
v 7.16859523 24.01865327 29.44911930
v 7.17041775 24.01632674 29.44911930
v 7.16835223 24.01833602 29.44547666
v 7.16817757 24.01810102 29.44183402
v 7.17027347 24.01545723 29.44166527
v 7.16809403 24.01797177 29.43819720
v 7.17128345 24.01376521 29.43455456
v 7.17265793 24.01182643 29.42726928
v 7.17448044 24.00957040 29.42726928
v 7.17120751 24.01367121 29.43091192
v 7.17123029 24.01369471 29.42363247
v 7.17131382 24.01380046 29.41998983
v 7.17132142 24.01381221 29.41968142
v 7.15237481 24.04166011 29.41968142
v 7.15236722 24.04164836 29.41998983
v 7.15344555 24.03975658 29.42363247
v 7.15341517 24.03972133 29.42726928
v 7.15702224 24.03966258 29.46490019
v 7.15388599 24.04782895 29.47096349
v 7.15435681 24.04880421 29.47440829
v 7.15351389 24.05083699 29.47549061
v 7.15250391 24.05210601 29.47440829
v 7.15627045 24.04202436 29.46732085
v 7.15662736 24.04264712 29.46998592
v 7.15166099 24.05580731 29.47824295
v 7.15013464 24.05863910 29.47824295
v 7.14916262 24.06046038 29.47824295
v 7.15293676 24.05344553 29.47824295
v 7.14639087 24.06575970 29.47824295
v 7.14778054 24.06309241 29.47824295
v 7.15343035 24.03974483 29.43455456
v 7.16046984 24.02844117 29.42363247
v 7.16046224 24.02842942 29.42726928
v 7.15639194 24.03503301 29.43455456
v 7.15476687 24.03761805 29.43455456
v 7.15651345 24.03523276 29.44183402
v 7.16058374 24.02861742 29.43819720
v 7.16065208 24.02873492 29.44183402
v 7.15677923 24.03565577 29.44911930
v 7.16079637 24.02895817 29.44547666
v 7.15556422 24.03761805 29.44911930
v 7.15803222 24.03432800 29.45241862
v 7.16000662 24.03137871 29.45275612
v 7.16123681 24.02955743 29.45275612
v 7.16152538 24.02998044 29.45639294
v 7.16047743 24.03209547 29.45837719
v 7.15764493 24.03697179 29.46003558
v 7.16075081 24.03250673 29.46080367
v 7.15987751 24.03483326 29.46367822
v 7.15790312 24.03784130 29.46368403
v 7.17595365 24.01881778 29.47912743
v 7.17583214 24.01855928 29.47824295
v 7.17536133 24.01796002 29.47557789
v 7.17494367 24.01743126 29.47314558
v 7.17602959 24.01517523 29.47096349
v 7.17551321 24.01451722 29.46732085
v 7.17837608 24.00989940 29.46367822
v 7.17943162 24.00751412 29.46003558
v 7.17757114 24.01194393 29.46710555
v 7.14654275 24.06605346 29.47912743
v 7.17791286 24.00933539 29.46003558
v 7.17609034 24.01155617 29.46003558
v 7.17461713 24.01337745 29.46003558
v 7.17125307 24.01736076 29.45897653
v 7.17099487 24.01703175 29.45639294
v 7.16434268 24.02513937 29.45275612
v 7.16417562 24.02490437 29.45070786
v 7.16747135 24.02081531 29.45275612
v 7.16887620 24.01899403 29.45275612
v 7.17069872 24.01665575 29.45275612
v 7.16895974 24.01966379 29.45642203
v 7.16790419 24.02137931 29.45765564
v 7.16334790 24.02741890 29.45639294
v 7.16723594 24.02047455 29.44911930
v 7.16702331 24.02015730 29.44547666
v 7.16501094 24.02240158 29.44183402
v 7.16683347 24.01992230 29.44183402
v 7.16489704 24.02224883 29.43819720
v 7.16671956 24.01979304 29.43819720
v 7.16665121 24.01971079 29.43455456
v 7.16802569 24.01790127 29.43455456
v 7.17119991 24.01364770 29.42726928
v 7.16957483 24.01576273 29.43091192
v 7.16959002 24.01576273 29.42363247
v 7.16976468 24.01576273 29.41998983
v 7.16980265 24.01573924 29.41968142
v 7.15349110 24.03983883 29.41968142
v 7.16049261 24.02847642 29.42128744
v 7.16023443 24.03536202 29.46658185
v 7.16054578 24.03584377 29.46901416
v 7.15734877 24.04020309 29.46732085
v 7.15579203 24.04463290 29.47110315
v 7.15698427 24.04324638 29.47241240
v 7.15625526 24.04564341 29.47460031
v 7.15664254 24.04632492 29.47710245
v 7.15585278 24.04834595 29.47828950
v 7.15395433 24.05162425 29.47824295
v 7.15774364 24.04135460 29.47110315
v 7.15308103 24.05370403 29.47912743
v 7.14930691 24.06073063 29.47912743
v 7.14807670 24.06309241 29.47912743
v 7.16169244 24.02660814 29.42726928
v 7.16350737 24.02392910 29.42726928
v 7.16352256 24.02394085 29.43091192
v 7.16048502 24.02845292 29.42976560
v 7.16184431 24.02669039 29.43819720
v 7.16201138 24.02669039 29.44183402
v 7.16368962 24.02422286 29.44183402
v 7.16234551 24.02669039 29.44547666
v 7.16100900 24.02926368 29.44911930
v 7.16305933 24.02696064 29.45275612
v 7.16372758 24.02792416 29.46003558
v 7.16177597 24.03066195 29.45976791
v 7.16400856 24.02831191 29.46245624
v 7.16306692 24.03009794 29.46367240
v 7.16108494 24.03301198 29.46367822
v 7.17457916 24.02059205 29.47912743
v 7.17441969 24.02038055 29.47824295
v 7.17396407 24.01926429 29.47446066
v 7.17157960 24.02142632 29.47227857
v 7.17122270 24.02096806 29.46985208
v 7.17153404 24.01772501 29.46140302
v 7.17490570 24.01374170 29.46250861
v 7.17634093 24.01236694 29.46370731
v 7.17017475 24.01912328 29.46012868
v 7.16403893 24.02470461 29.44828719
v 7.16816998 24.02175532 29.46003558
v 7.16387946 24.02449311 29.44547666
v 7.16482869 24.02217833 29.43455456
v 7.16359090 24.02407010 29.43819720
v 7.16659046 24.01964029 29.43091192
v 7.16797254 24.01783076 29.43091192
v 7.16955205 24.01576273 29.42726928
v 7.16797254 24.01783076 29.42363247
v 7.16806366 24.01794826 29.41998983
v 7.16824592 24.01773676 29.41968142
v 7.15988511 24.02956918 29.41968142
v 7.16125959 24.02748940 29.41968142
v 7.16155575 24.02703115 29.42003638
v 7.16482110 24.02217833 29.42363247
v 7.16477553 24.02210783 29.42726928
v 7.16336308 24.03099095 29.46732085
v 7.16135832 24.03408125 29.46760598
v 7.16085711 24.03632553 29.47096349
v 7.16015849 24.03886357 29.47388459
v 7.15970286 24.03814681 29.47096349
v 7.16379593 24.03161371 29.47031177
v 7.16416044 24.03216597 29.47273826
v 7.15921685 24.04090810 29.47490289
v 7.15733359 24.04382214 29.47460031
v 7.15975601 24.04182461 29.47824295
v 7.15783478 24.04502065 29.47828950
v 7.15731080 24.04636017 29.47912743
v 7.15597429 24.04861621 29.47912743
v 7.15411380 24.05187100 29.47912743
v 7.16476794 24.02211958 29.43091192
v 7.16356052 24.02399960 29.43455456
v 7.16728149 24.02416411 29.46367822
v 7.16528432 24.02693715 29.46367240
v 7.16429713 24.02872317 29.46488273
v 7.17197448 24.02405835 29.47912743
v 7.17242252 24.02314184 29.47845243
v 7.17196689 24.02194332 29.47460031
v 7.17062278 24.02376460 29.47460031
v 7.16860282 24.02672564 29.47494945
v 7.16823832 24.02551538 29.47096349
v 7.17021272 24.02280109 29.47102168
v 7.16791937 24.02505712 29.46865338
v 7.16759284 24.02459886 29.46622690
v 7.16861801 24.02234283 29.46367822
v 7.16659046 24.01962854 29.42726928
v 7.16796494 24.01781901 29.42726928
v 7.16664361 24.01965204 29.42363247
v 7.16671956 24.01976954 29.41998983
v 7.16795735 24.01812452 29.41968142
v 7.16160131 24.02699590 29.41968142
v 7.16362128 24.02411710 29.41968142
v 7.16361368 24.02410535 29.41998983
v 7.16490463 24.02228408 29.41998983
v 7.16460847 24.02916968 29.46732085
v 7.16055336 24.03947457 29.47631689
v 7.16494260 24.03036819 29.47130099
v 7.16779788 24.02852342 29.47639254
v 7.15990789 24.04207136 29.47912743
v 7.16088750 24.04000333 29.47824295
v 7.16658287 24.02643189 29.46739068
v 7.17140494 24.02483387 29.47912743
v 7.17109360 24.02441086 29.47737593
v 7.16741818 24.02797116 29.47396605
v 7.16694737 24.02733665 29.47096349
v 7.16506410 24.02208433 29.41968142
v 7.16673474 24.01979304 29.41968142
v 7.16491222 24.02229583 29.41968142
v 7.16811682 24.02899342 29.47824295
v 7.16707646 24.03103795 29.47912743
v 7.17003806 24.02639664 29.47845243
v 7.16100900 24.04030884 29.47912743
v 7.17077466 24.02570338 29.47912743
v 7.17014438 24.02658464 29.47912743
v 7.16822313 24.02929893 29.47912743
f 1 2 6
f 1 6 13
f 1 13 24
f 1 24 38
f 1 38 42
f 1 42 41
f 1 41 66
f 1 66 90
f 1 90 117
f 1 117 152
f 1 152 151
f 1 151 150
f 1 150 149
f 1 149 193
f 1 193 238
f 1 238 245
f 1 245 201
f 1 201 158
f 1 158 120
f 1 120 92
f 1 92 68
f 1 68 43
f 1 43 27
f 1 27 16
f 1 16 8
f 1 8 3
f 1 3 4
f 1 4 5
f 1 5 2
f 2 5 7
f 2 7 6
f 3 8 4
f 4 8 9
f 4 9 10
f 4 10 11
f 4 11 5
f 5 11 12
f 5 12 7
f 6 7 14
f 6 14 13
f 7 12 15
f 7 15 14
f 8 16 17
f 8 17 18
f 8 18 9
f 9 18 10
f 10 19 20
f 10 20 11
f 10 18 17
f 10 17 21
f 10 21 19
f 11 20 22
f 11 22 12
f 12 22 23
f 12 23 15
f 13 14 24
f 14 25 24
f 14 15 26
f 14 26 25
f 15 23 36
f 15 36 26
f 16 27 44
f 16 44 69
f 16 69 96
f 16 96 124
f 16 124 129
f 16 129 128
f 16 128 168
f 16 168 170
f 16 170 216
f 16 216 264
f 16 264 263
f 16 263 318
f 16 318 372
f 16 372 371
f 16 371 428
f 16 428 491
f 16 491 431
f 16 431 494
f 16 494 493
f 16 493 561
f 16 561 634
f 16 634 684
f 16 684 723
f 16 723 740
f 16 740 739
f 16 739 741
f 16 741 725
f 16 725 724
f 16 724 686
f 16 686 685
f 16 685 635
f 16 635 562
f 16 562 495
f 16 495 432
f 16 432 373
f 16 373 319
f 16 319 265
f 16 265 217
f 16 217 172
f 16 172 171
f 16 171 131
f 16 131 98
f 16 98 71
f 16 71 70
f 16 70 47
f 16 47 45
f 16 45 34
f 16 34 21
f 16 21 17
f 19 28 29
f 19 29 30
f 19 30 31
f 19 31 32
f 19 32 20
f 19 21 28
f 20 32 33
f 20 33 22
f 21 34 28
f 22 33 35
f 22 35 23
f 23 35 37
f 23 37 36
f 24 25 38
f 25 26 39
f 25 39 40
f 25 40 41
f 25 41 42
f 25 42 38
f 26 36 39
f 27 43 44
f 28 34 45
f 28 45 29
f 29 46 30
f 29 45 47
f 29 47 46
f 30 46 48
f 30 48 31
f 31 48 49
f 31 49 50
f 31 50 51
f 31 51 32
f 32 51 52
f 32 52 33
f 33 52 53
f 33 53 35
f 35 53 54
f 35 54 55
f 35 55 56
f 35 56 37
f 36 37 57
f 36 57 58
f 36 58 39
f 37 56 59
f 37 59 60
f 37 60 61
f 37 61 57
f 39 58 62
f 39 62 63
f 39 63 64
f 39 64 65
f 39 65 40
f 40 65 41
f 41 65 66
f 43 67 44
f 43 68 93
f 43 93 122
f 43 122 164
f 43 164 209
f 43 209 253
f 43 253 304
f 43 304 303
f 43 303 353
f 43 353 411
f 43 411 475
f 43 475 537
f 43 537 539
f 43 539 608
f 43 608 649
f 43 649 648
f 43 648 647
f 43 647 703
f 43 703 702
f 43 702 701
f 43 701 732
f 43 732 745
f 43 745 743
f 43 743 748
f 43 748 747
f 43 747 746
f 43 746 735
f 43 735 709
f 43 709 665
f 43 665 599
f 43 599 526
f 43 526 459
f 43 459 396
f 43 396 395
f 43 395 393
f 43 393 340
f 43 340 291
f 43 291 239
f 43 239 196
f 43 196 154
f 43 154 118
f 43 118 91
f 43 91 67
f 44 67 91
f 44 91 119
f 44 119 157
f 44 157 199
f 44 199 198
f 44 198 243
f 44 243 297
f 44 297 296
f 44 296 349
f 44 349 408
f 44 408 472
f 44 472 477
f 44 477 476
f 44 476 412
f 44 412 356
f 44 356 355
f 44 355 354
f 44 354 305
f 44 305 254
f 44 254 210
f 44 210 165
f 44 165 125
f 44 125 123
f 44 123 94
f 44 94 69
f 46 47 70
f 46 70 48
f 48 70 71
f 48 71 72
f 48 72 49
f 49 73 50
f 49 72 74
f 49 74 73
f 50 73 75
f 50 75 76
f 50 76 77
f 50 77 51
f 51 77 53
f 51 53 52
f 53 77 78
f 53 78 54
f 54 78 55
f 55 79 56
f 55 78 80
f 55 80 79
f 56 79 59
f 57 61 58
f 58 61 81
f 58 81 82
f 58 82 62
f 59 83 60
f 59 79 83
f 60 83 61
f 61 83 81
f 62 82 63
f 63 84 85
f 63 85 86
f 63 86 87
f 63 87 64
f 63 82 88
f 63 88 84
f 64 87 65
f 65 89 90
f 65 90 66
f 65 87 86
f 65 86 89
f 68 92 93
f 69 94 95
f 69 95 96
f 71 97 72
f 71 98 97
f 72 97 74
f 73 74 99
f 73 99 75
f 74 97 100
f 74 100 99
f 75 101 105
f 75 105 76
f 75 99 102
f 75 102 103
f 75 103 104
f 75 104 101
f 76 105 77
f 77 105 80
f 77 80 78
f 79 106 83
f 79 80 107
f 79 107 106
f 80 105 108
f 80 108 107
f 81 109 82
f 81 83 110
f 81 110 111
f 81 111 109
f 82 109 88
f 83 106 110
f 84 88 112
f 84 112 113
f 84 113 85
f 85 113 114
f 85 114 115
f 85 115 86
f 86 115 89
f 88 109 116
f 88 116 112
f 89 115 90
f 90 115 117
f 91 118 119
f 92 120 121
f 92 121 93
f 93 121 122
f 94 123 95
f 95 124 96
f 95 123 125
f 95 125 126
f 95 126 127
f 95 127 128
f 95 128 129
f 95 129 124
f 97 130 100
f 97 98 131
f 97 131 130
f 99 100 102
f 100 130 102
f 101 108 105
f 101 104 132
f 101 132 108
f 102 133 103
f 102 130 134
f 102 134 135
f 102 135 133
f 103 133 104
f 104 133 136
f 104 136 137
f 104 137 132
f 106 107 138
f 106 138 139
f 106 139 110
f 107 108 138
f 108 132 138
f 109 111 140
f 109 140 116
f 110 141 111
f 110 139 142
f 110 142 143
f 110 143 141
f 111 141 140
f 112 116 144
f 112 144 145
f 112 145 146
f 112 146 147
f 112 147 113
f 113 148 149
f 113 149 150
f 113 150 114
f 113 147 146
f 113 146 148
f 114 150 151
f 114 151 152
f 114 152 115
f 115 152 117
f 116 140 153
f 116 153 144
f 118 154 155
f 118 155 156
f 118 156 157
f 118 157 119
f 120 158 159
f 120 159 121
f 121 159 160
f 121 160 161
f 121 161 162
f 121 162 122
f 122 162 163
f 122 163 164
f 125 165 126
f 126 165 166
f 126 166 167
f 126 167 127
f 127 168 128
f 127 167 169
f 127 169 170
f 127 170 168
f 130 131 171
f 130 171 172
f 130 172 173
f 130 173 174
f 130 174 134
f 132 137 175
f 132 175 138
f 133 135 136
f 134 174 135
f 135 174 176
f 135 176 177
f 135 177 136
f 136 177 178
f 136 178 179
f 136 179 137
f 137 179 180
f 137 180 181
f 137 181 182
f 137 182 183
f 137 183 175
f 138 175 139
f 139 175 184
f 139 184 142
f 140 141 185
f 140 185 186
f 140 186 153
f 141 143 185
f 142 184 187
f 142 187 143
f 143 187 188
f 143 188 185
f 144 189 190
f 144 190 145
f 144 153 189
f 145 190 146
f 146 190 191
f 146 191 148
f 148 191 192
f 148 192 149
f 149 192 193
f 153 186 194
f 153 194 195
f 153 195 189
f 154 196 155
f 155 197 198
f 155 198 199
f 155 199 156
f 155 196 200
f 155 200 197
f 156 199 157
f 158 201 202
f 158 202 159
f 159 203 204
f 159 204 160
f 159 202 203
f 160 204 205
f 160 205 161
f 161 205 206
f 161 206 207
f 161 207 208
f 161 208 163
f 161 163 162
f 163 208 209
f 163 209 164
f 165 210 211
f 165 211 166
f 166 211 212
f 166 212 213
f 166 213 167
f 167 213 214
f 167 214 169
f 169 214 215
f 169 215 216
f 169 216 170
f 172 217 218
f 172 218 173
f 173 218 174
f 174 218 219
f 174 219 176
f 175 183 220
f 175 220 184
f 176 221 222
f 176 222 177
f 176 219 223
f 176 223 221
f 177 222 224
f 177 224 178
f 178 224 180
f 178 180 179
f 180 224 225
f 180 225 226
f 180 226 227
f 180 227 182
f 180 182 181
f 182 228 183
f 182 227 228
f 183 228 220
f 184 220 187
f 185 229 194
f 185 194 186
f 185 188 229
f 187 230 231
f 187 231 188
f 187 220 230
f 188 232 229
f 188 231 232
f 189 233 190
f 189 195 234
f 189 234 233
f 190 233 191
f 191 233 235
f 191 235 236
f 191 236 192
f 192 237 238
f 192 238 193
f 192 236 237
f 194 229 234
f 194 234 195
f 196 239 240
f 196 240 200
f 197 200 241
f 197 241 242
f 197 242 243
f 197 243 198
f 200 240 244
f 200 244 241
f 201 245 237
f 201 237 202
f 202 237 203
f 203 237 236
f 203 236 204
f 204 236 235
f 204 235 233
f 204 233 246
f 204 246 205
f 205 246 247
f 205 247 207
f 205 207 206
f 207 248 249
f 207 249 250
f 207 250 251
f 207 251 252
f 207 252 208
f 207 247 248
f 208 252 253
f 208 253 209
f 210 254 255
f 210 255 211
f 211 255 212
f 212 256 213
f 212 255 257
f 212 257 258
f 212 258 256
f 213 256 259
f 213 259 214
f 214 259 260
f 214 260 261
f 214 261 215
f 215 261 262
f 215 262 263
f 215 263 264
f 215 264 216
f 217 265 266
f 217 266 218
f 218 266 267
f 218 267 268
f 218 268 269
f 218 269 219
f 219 269 223
f 220 228 270
f 220 270 271
f 220 271 230
f 221 272 224
f 221 224 222
f 221 223 272
f 223 269 273
f 223 273 274
f 223 274 329
f 223 329 275
f 223 275 276
f 223 276 272
f 224 272 276
f 224 276 275
f 224 275 277
f 224 277 225
f 225 277 278
f 225 278 279
f 225 279 226
f 226 280 281
f 226 281 282
f 226 282 283
f 226 283 227
f 226 279 284
f 226 284 280
f 227 283 228
f 228 283 285
f 228 285 270
f 229 286 234
f 229 232 286
f 230 271 231
f 231 271 287
f 231 287 232
f 232 287 288
f 232 288 289
f 232 289 286
f 233 234 290
f 233 290 246
f 234 286 290
f 237 245 238
f 239 291 240
f 240 291 292
f 240 292 244
f 241 244 293
f 241 293 242
f 242 293 294
f 242 294 295
f 242 295 296
f 242 296 297
f 242 297 243
f 244 292 298
f 244 298 293
f 246 290 247
f 247 290 248
f 248 290 249
f 249 286 299
f 249 299 300
f 249 300 250
f 249 290 286
f 250 300 301
f 250 301 251
f 251 301 302
f 251 302 303
f 251 303 304
f 251 304 252
f 252 304 253
f 254 305 255
f 255 305 306
f 255 306 257
f 256 307 260
f 256 260 259
f 256 258 313
f 256 313 307
f 257 306 308
f 257 308 309
f 257 309 310
f 257 310 311
f 257 311 312
f 257 312 258
f 258 312 313
f 260 262 261
f 260 307 314
f 260 314 315
f 260 315 262
f 262 315 316
f 262 316 263
f 263 316 317
f 263 317 318
f 265 319 320
f 265 320 266
f 266 320 267
f 267 320 321
f 267 321 322
f 267 322 268
f 268 322 269
f 269 322 273
f 270 285 323
f 270 323 324
f 270 324 271
f 271 324 325
f 271 325 287
f 273 326 327
f 273 327 274
f 273 322 326
f 274 328 329
f 274 327 330
f 274 330 331
f 274 331 328
f 275 329 332
f 275 332 277
f 277 332 278
f 278 332 333
f 278 333 279
f 279 333 334
f 279 334 284
f 280 335 281
f 280 284 336
f 280 336 335
f 281 335 285
f 281 285 282
f 282 285 283
f 284 334 337
f 284 337 336
f 285 335 323
f 286 289 299
f 287 325 288
f 288 338 289
f 288 325 338
f 289 338 339
f 289 339 299
f 291 340 292
f 292 340 341
f 292 341 342
f 292 342 298
f 293 343 294
f 293 298 344
f 293 344 345
f 293 345 346
f 293 346 343
f 294 343 295
f 295 343 347
f 295 347 348
f 295 348 349
f 295 349 296
f 298 342 344
f 299 339 350
f 299 350 300
f 300 350 351
f 300 351 301
f 301 351 352
f 301 352 302
f 302 352 303
f 303 352 353
f 305 354 306
f 306 354 355
f 306 355 356
f 306 356 357
f 306 357 308
f 307 313 314
f 308 357 356
f 308 356 358
f 308 358 309
f 309 358 359
f 309 359 360
f 309 360 361
f 309 361 362
f 309 362 363
f 309 363 310
f 310 363 364
f 310 364 312
f 310 312 311
f 312 364 365
f 312 365 313
f 313 365 366
f 313 366 367
f 313 367 314
f 314 367 315
f 315 367 368
f 315 368 316
f 316 368 369
f 316 369 370
f 316 370 371
f 316 371 372
f 316 372 318
f 316 318 317
f 319 373 374
f 319 374 320
f 320 374 321
f 321 374 326
f 321 326 322
f 323 375 324
f 323 335 376
f 323 376 377
f 323 377 375
f 324 378 325
f 324 375 378
f 325 378 379
f 325 379 338
f 326 374 380
f 326 380 327
f 327 380 381
f 327 381 382
f 327 382 330
f 328 334 332
f 328 332 329
f 328 331 383
f 328 383 334
f 330 382 384
f 330 384 385
f 330 385 331
f 331 385 386
f 331 386 387
f 331 387 383
f 332 334 333
f 334 383 388
f 334 388 337
f 335 336 389
f 335 389 376
f 336 337 390
f 336 390 391
f 336 391 389
f 337 388 390
f 338 392 339
f 338 379 392
f 339 392 350
f 340 342 341
f 340 393 342
f 342 394 344
f 342 393 395
f 342 395 396
f 342 396 397
f 342 397 398
f 342 398 394
f 343 399 347
f 343 346 400
f 343 400 401
f 343 401 399
f 344 394 345
f 345 394 402
f 345 402 403
f 345 403 404
f 345 404 346
f 346 404 400
f 347 405 407
f 347 407 348
f 347 399 406
f 347 406 405
f 348 407 408
f 348 408 349
f 350 392 351
f 351 392 409
f 351 409 410
f 351 410 411
f 351 411 352
f 352 411 353
f 356 412 359
f 356 359 358
f 359 412 360
f 360 413 414
f 360 414 361
f 360 412 413
f 361 414 415
f 361 415 362
f 362 415 363
f 363 416 417
f 363 417 418
f 363 418 419
f 363 419 364
f 363 415 416
f 364 419 420
f 364 420 365
f 365 420 421
f 365 421 422
f 365 422 423
f 365 423 424
f 365 424 366
f 366 424 425
f 366 425 367
f 367 425 368
f 368 425 426
f 368 426 369
f 369 427 428
f 369 428 370
f 369 426 429
f 369 429 430
f 369 430 431
f 369 431 427
f 370 428 371
f 373 432 374
f 374 432 433
f 374 433 380
f 375 434 435
f 375 435 378
f 375 377 434
f 376 389 436
f 376 436 377
f 377 436 437
f 377 437 438
f 377 438 439
f 377 439 440
f 377 440 434
f 378 441 442
f 378 442 379
f 378 435 440
f 378 440 441
f 379 442 392
f 380 433 381
f 381 433 443
f 381 443 444
f 381 444 445
f 381 445 382
f 382 445 384
f 383 387 446
f 383 446 388
f 384 445 447
f 384 447 448
f 384 448 385
f 385 449 386
f 385 448 515
f 385 515 449
f 386 449 387
f 387 449 450
f 387 450 446
f 388 446 390
f 389 391 436
f 390 446 451
f 390 451 452
f 390 452 453
f 390 453 454
f 390 454 455
f 390 455 391
f 391 456 436
f 391 455 456
f 392 442 457
f 392 457 409
f 394 398 402
f 396 458 397
f 396 459 458
f 397 458 460
f 397 460 461
f 397 461 462
f 397 462 398
f 398 462 467
f 398 467 402
f 399 401 406
f 400 404 463
f 400 463 401
f 401 463 464
f 401 464 465
f 401 465 466
f 401 466 406
f 402 467 468
f 402 468 404
f 402 404 403
f 404 468 463
f 405 406 469
f 405 469 407
f 406 466 470
f 406 470 469
f 407 469 471
f 407 471 408
f 408 471 472
f 409 457 473
f 409 473 474
f 409 474 410
f 410 474 411
f 411 474 473
f 411 473 475
f 412 476 413
f 413 469 470
f 413 470 466
f 413 466 414
f 413 476 477
f 413 477 478
f 413 478 469
f 414 466 465
f 414 465 479
f 414 479 480
f 414 480 416
f 414 416 415
f 416 480 481
f 416 481 417
f 417 481 482
f 417 482 483
f 417 483 418
f 418 483 484
f 418 484 485
f 418 485 486
f 418 486 422
f 418 422 419
f 419 422 420
f 420 422 421
f 422 486 487
f 422 487 488
f 422 488 423
f 423 488 424
f 424 489 425
f 424 488 489
f 425 489 490
f 425 490 426
f 426 490 429
f 427 491 428
f 427 431 491
f 429 490 492
f 429 492 430
f 430 492 493
f 430 493 494
f 430 494 431
f 432 495 496
f 432 496 433
f 433 496 497
f 433 497 443
f 434 440 435
f 436 456 498
f 436 498 437
f 437 499 438
f 437 498 500
f 437 500 499
f 438 501 439
f 438 499 501
f 439 501 502
f 439 502 503
f 439 503 504
f 439 504 440
f 440 504 505
f 440 505 506
f 440 506 441
f 441 506 457
f 441 457 442
f 443 497 507
f 443 507 444
f 444 508 445
f 444 507 565
f 444 565 509
f 444 509 508
f 445 508 447
f 446 450 451
f 447 508 579
f 447 579 510
f 447 510 448
f 448 510 511
f 448 511 512
f 448 512 513
f 448 513 514
f 448 514 515
f 449 515 450
f 450 515 516
f 450 516 517
f 450 517 451
f 451 517 518
f 451 518 452
f 452 518 517
f 452 517 519
f 452 519 520
f 452 520 521
f 452 521 453
f 453 521 454
f 454 498 456
f 454 456 522
f 454 522 455
f 454 521 523
f 454 523 498
f 455 522 456
f 457 506 524
f 457 524 473
f 458 459 525
f 458 525 460
f 459 526 527
f 459 527 525
f 460 525 527
f 460 527 528
f 460 528 529
f 460 529 461
f 461 529 462
f 462 529 530
f 462 530 531
f 462 531 467
f 463 468 532
f 463 532 464
f 464 532 468
f 464 468 533
f 464 533 534
f 464 534 465
f 465 534 479
f 467 531 535
f 467 535 468
f 468 535 536
f 468 536 533
f 469 478 471
f 471 478 472
f 472 478 477
f 473 537 475
f 473 524 538
f 473 538 539
f 473 539 537
f 479 534 540
f 479 540 541
f 479 541 542
f 479 542 543
f 479 543 480
f 480 543 542
f 480 542 481
f 481 542 541
f 481 541 544
f 481 544 482
f 482 545 546
f 482 546 547
f 482 547 548
f 482 548 549
f 482 549 550
f 482 550 483
f 482 544 545
f 483 550 484
f 484 550 551
f 484 551 552
f 484 552 487
f 484 487 485
f 485 487 486
f 487 552 553
f 487 553 488
f 488 553 552
f 488 552 554
f 488 554 555
f 488 555 489
f 489 556 557
f 489 557 490
f 489 555 558
f 489 558 556
f 490 557 492
f 492 557 556
f 492 556 559
f 492 559 493
f 493 559 560
f 493 560 561
f 495 562 563
f 495 563 496
f 496 563 497
f 497 563 564
f 497 564 565
f 497 565 507
f 498 523 566
f 498 566 500
f 499 500 567
f 499 567 568
f 499 568 569
f 499 569 570
f 499 570 502
f 499 502 501
f 500 566 571
f 500 571 572
f 500 572 567
f 502 573 574
f 502 574 575
f 502 575 505
f 502 505 504
f 502 504 503
f 502 570 569
f 502 569 576
f 502 576 573
f 505 577 538
f 505 538 524
f 505 524 506
f 505 575 578
f 505 578 577
f 508 509 579
f 509 565 580
f 509 580 581
f 509 581 582
f 509 582 583
f 509 583 579
f 510 579 511
f 511 584 512
f 511 579 583
f 511 583 582
f 511 582 585
f 511 585 586
f 511 586 584
f 512 584 513
f 513 587 514
f 513 584 586
f 513 586 588
f 513 588 587
f 514 587 515
f 515 587 589
f 515 589 516
f 516 589 517
f 517 590 519
f 517 589 587
f 517 587 588
f 517 588 591
f 517 591 590
f 519 590 520
f 520 591 592
f 520 592 593
f 520 593 594
f 520 594 521
f 520 590 591
f 521 594 595
f 521 595 523
f 523 595 594
f 523 594 596
f 523 596 597
f 523 597 598
f 523 598 566
f 526 599 600
f 526 600 527
f 527 600 601
f 527 601 528
f 528 601 602
f 528 602 529
f 529 602 603
f 529 603 530
f 530 603 604
f 530 604 535
f 530 535 531
f 533 536 605
f 533 605 609
f 533 609 606
f 533 606 540
f 533 540 534
f 535 604 607
f 535 607 605
f 535 605 536
f 538 577 539
f 539 577 608
f 540 606 541
f 541 606 609
f 541 609 544
f 544 609 610
f 544 610 611
f 544 611 545
f 545 611 612
f 545 612 546
f 546 612 613
f 546 613 547
f 547 614 615
f 547 615 616
f 547 616 617
f 547 617 618
f 547 618 548
f 547 613 619
f 547 619 620
f 547 620 621
f 547 621 593
f 547 593 614
f 548 618 549
f 549 551 550
f 549 618 617
f 549 617 616
f 549 616 622
f 549 622 551
f 551 622 615
f 551 615 623
f 551 623 624
f 551 624 625
f 551 625 552
f 552 625 626
f 552 626 627
f 552 627 554
f 554 627 628
f 554 628 629
f 554 629 558
f 554 558 555
f 556 558 630
f 556 630 559
f 558 629 631
f 558 631 630
f 559 630 632
f 559 632 560
f 560 632 633
f 560 633 561
f 561 633 634
f 562 635 563
f 563 635 564
f 564 635 636
f 564 636 580
f 564 580 565
f 566 598 637
f 566 637 638
f 566 638 639
f 566 639 571
f 567 572 640
f 567 640 641
f 567 641 568
f 568 641 642
f 568 642 643
f 568 643 569
f 569 643 644
f 569 644 645
f 569 645 576
f 571 639 572
f 572 639 646
f 572 646 641
f 572 641 640
f 573 576 647
f 573 647 574
f 574 648 575
f 574 647 648
f 575 648 578
f 576 645 647
f 577 578 648
f 577 648 649
f 577 649 608
f 580 650 581
f 580 636 651
f 580 651 650
f 581 650 652
f 581 652 653
f 581 653 582
f 582 653 585
f 585 653 654
f 585 654 586
f 586 654 655
f 586 655 588
f 588 655 656
f 588 656 657
f 588 657 658
f 588 658 591
f 591 658 592
f 592 659 593
f 592 658 615
f 592 615 659
f 593 659 614
f 593 621 660
f 593 660 594
f 594 660 661
f 594 661 596
f 596 661 662
f 596 662 663
f 596 663 664
f 596 664 597
f 597 637 598
f 597 664 637
f 599 665 666
f 599 666 600
f 600 666 601
f 601 666 667
f 601 667 602
f 602 667 668
f 602 668 603
f 603 668 669
f 603 669 604
f 604 670 671
f 604 671 672
f 604 672 607
f 604 669 670
f 605 607 672
f 605 672 609
f 609 672 671
f 609 671 610
f 610 671 611
f 611 671 612
f 612 670 673
f 612 673 620
f 612 620 619
f 612 619 613
f 612 671 670
f 614 659 615
f 615 674 623
f 615 622 616
f 615 658 657
f 615 657 674
f 620 673 675
f 620 675 660
f 620 660 621
f 623 674 676
f 623 676 656
f 623 656 624
f 624 626 625
f 624 656 626
f 626 677 628
f 626 628 627
f 626 656 678
f 626 678 677
f 628 677 679
f 628 679 629
f 629 680 631
f 629 679 680
f 630 631 681
f 630 681 682
f 630 682 632
f 631 680 681
f 632 682 633
f 633 682 683
f 633 683 684
f 633 684 634
f 635 685 636
f 636 685 686
f 636 686 687
f 636 687 688
f 636 688 689
f 636 689 651
f 637 664 690
f 637 690 691
f 637 691 638
f 638 692 693
f 638 693 694
f 638 694 646
f 638 646 639
f 638 691 690
f 638 690 695
f 638 695 696
f 638 696 692
f 641 646 693
f 641 693 697
f 641 697 698
f 641 698 642
f 642 698 643
f 643 698 699
f 643 699 700
f 643 700 701
f 643 701 702
f 643 702 644
f 644 702 645
f 645 702 703
f 645 703 647
f 646 694 693
f 650 651 652
f 651 689 704
f 651 704 652
f 652 704 705
f 652 705 653
f 653 705 678
f 653 678 654
f 654 678 655
f 655 678 656
f 656 676 657
f 657 676 674
f 660 662 661
f 660 675 662
f 662 675 706
f 662 706 707
f 662 707 708
f 662 708 663
f 663 708 664
f 664 708 690
f 665 709 666
f 666 709 710
f 666 710 711
f 666 711 667
f 667 711 668
f 668 711 712
f 668 712 713
f 668 713 714
f 668 714 715
f 668 715 669
f 669 715 716
f 669 716 717
f 669 717 718
f 669 718 670
f 670 718 675
f 670 675 673
f 675 718 706
f 677 704 679
f 677 678 704
f 678 705 704
f 679 704 719
f 679 719 720
f 679 720 680
f 680 720 681
f 681 720 682
f 682 720 719
f 682 719 689
f 682 689 721
f 682 721 722
f 682 722 683
f 683 722 723
f 683 723 684
f 686 724 687
f 687 724 725
f 687 725 726
f 687 726 688
f 688 726 727
f 688 727 721
f 688 721 689
f 689 719 704
f 690 708 728
f 690 728 695
f 692 729 693
f 692 696 729
f 693 729 697
f 695 728 730
f 695 730 696
f 696 730 731
f 696 731 729
f 697 729 698
f 698 729 699
f 699 732 700
f 699 729 733
f 699 733 732
f 700 732 701
f 706 718 717
f 706 717 707
f 707 717 708
f 708 717 734
f 708 734 728
f 709 735 736
f 709 736 710
f 710 736 711
f 711 736 712
f 712 736 713
f 713 731 737
f 713 737 714
f 713 736 731
f 714 716 715
f 714 737 738
f 714 738 728
f 714 728 734
f 714 734 716
f 716 734 717
f 721 727 722
f 722 727 739
f 722 739 740
f 722 740 723
f 725 741 727
f 725 727 726
f 727 741 739
f 728 738 730
f 729 731 742
f 729 742 743
f 729 743 733
f 730 738 737
f 730 737 731
f 731 736 744
f 731 744 742
f 732 733 745
f 733 743 745
f 735 746 736
f 736 746 744
f 742 744 747
f 742 747 748
f 742 748 743
f 744 746 747

