# https://github.com/mikedh/trimesh
v 7.24167354 23.97854597 29.37904260
v 7.24167354 23.95954767 29.37904260
v 7.24167354 23.96747837 29.41968142
v 7.30408998 23.96063209 29.37904260
v 7.24167354 23.95938478 29.37942846
v 7.24302989 23.95879370 29.37904260
v 7.25854235 23.93728681 29.40682864
v 7.24167354 23.94791226 29.41968142
v 7.30408998 23.94746081 29.41968142
v 7.30408998 23.93990709 29.37904260
v 7.24167354 23.95804437 29.38275802
v 7.24524770 23.95760223 29.37904260
v 7.26192711 23.93719372 29.40297400
v 7.26068685 23.93676088 29.40553580
v 7.26065019 23.93561131 29.40906027
v 7.25791306 23.93690051 29.40906027
v 7.25609237 23.93815713 29.40906027
v 7.24167354 23.95635492 29.38715366
v 7.24167354 23.95765343 29.38374455
v 7.24838807 23.94160587 29.41968142
v 7.24167354 23.94836371 29.41634391
v 7.30408998 23.93099903 29.41968142
v 7.30408998 23.93932067 29.37993367
v 7.30069911 23.93919967 29.37993367
v 7.30069911 23.93985125 29.37904260
v 7.24617026 23.95713682 29.37904260
v 7.26310017 23.93778481 29.40054744
v 7.26552571 23.93723095 29.39942964
v 7.26430378 23.93675623 29.40176868
v 7.26429156 23.93549961 29.40542044
v 7.26429156 23.93463393 29.40906027
v 7.26065019 23.93484337 29.41270010
v 7.25681331 23.93657007 29.41273591
v 7.25496208 23.93732404 29.41397305
v 7.25546919 23.93767775 29.41154650
v 7.24167354 23.95633164 29.38721731
v 7.25020876 23.93993037 29.41968142
v 7.24167354 23.94902926 29.41270010
v 7.30408998 23.93153426 29.41634391
v 7.30069911 23.93105953 29.41968142
v 7.28249228 23.93596037 29.39085714
v 7.30408998 23.93830142 29.38271028
v 7.30069911 23.93771033 29.38347802
v 7.29705774 23.93778481 29.38316377
v 7.29341638 23.93785927 29.38289725
v 7.29705774 23.93939979 29.37993367
v 7.29705774 23.94006534 29.37904260
v 7.24822922 23.95611290 29.37904260
v 7.24877909 23.95584295 29.37904260
v 7.27693858 23.93743574 29.38897954
v 7.27551503 23.93708668 29.39118731
v 7.26793292 23.93568112 29.40177663
v 7.26793292 23.93481079 29.40542044
v 7.26429156 23.93420575 29.41270010
v 7.26793292 23.93435002 29.40906027
v 7.26065019 23.93443846 29.41634391
v 7.25700883 23.93543445 29.41968142
v 7.25700883 23.93587194 29.41634391
v 7.25469326 23.93716114 29.41634391
v 7.25266485 23.93799889 29.41968142
v 7.25251210 23.93810593 29.41968142
v 7.25287258 23.93844104 29.41634391
v 7.25059366 23.94026082 29.41634391
v 7.25107633 23.94067038 29.41335647
v 7.24167354 23.95289222 29.39794188
v 7.24167354 23.95387890 29.39463620
v 7.24167354 23.95420469 29.39357806
v 7.24167354 23.95494936 29.39124300
v 7.24167354 23.95507037 29.39086907
v 7.24167354 23.95525188 29.39031216
v 7.24167354 23.95570799 29.38898750
v 7.25231660 23.93825953 29.41968142
v 7.24167354 23.94990425 29.40883751
v 7.28977501 23.93719372 29.38469926
v 7.29341638 23.93728215 29.38471517
v 7.30397389 23.93784996 29.38393549
v 7.30408998 23.93786857 29.38392754
v 7.28613364 23.93662592 29.38721731
v 7.30039362 23.93106884 29.41968142
v 7.27885091 23.93556942 29.39450095
v 7.27885091 23.93625824 29.39085714
v 7.29705774 23.93118985 29.41968142
v 7.28977501 23.93808732 29.38287735
v 7.29360577 23.93993037 29.37968305
v 7.29413121 23.94037252 29.37904260
v 7.25027596 23.95514484 29.37904260
v 7.28172246 23.93783134 29.38591253
v 7.28414800 23.93743108 29.38532777
v 7.27885091 23.93717511 29.38847036
v 7.25248155 23.95413022 29.37904260
v 7.25354464 23.95366016 29.37904260
v 7.25619624 23.95249661 29.37904260
v 7.25632454 23.95244076 29.37904260
v 7.25975207 23.95105848 29.37904260
v 7.26065019 23.95070942 29.37904260
v 7.26307573 23.94977858 29.37904260
v 7.26408383 23.94939694 29.37904260
v 7.27157429 23.93454550 29.40542044
v 7.26065019 23.93418248 29.41968142
v 7.25681331 23.93554150 29.41968142
v 7.25433279 23.93696567 29.41968142
v 7.24167354 23.95022539 29.40748898
v 7.24167354 23.95096539 29.40462485
v 7.24167354 23.95152855 29.40261996
v 7.24167354 23.95168213 29.40207498
v 7.24167354 23.95184503 29.40151807
v 7.28613364 23.93727284 29.38501352
v 7.28276110 23.93696101 29.38716162
v 7.28613364 23.93860393 29.38319161
v 7.28977501 23.93990709 29.38045478
v 7.29309867 23.94056799 29.37904260
v 7.26720587 23.94822409 29.37904260
v 7.28613364 23.94042371 29.38103556
v 7.26843391 23.94779590 29.37904260
v 7.27057841 23.94705124 29.37904260
v 7.28613364 23.94225280 29.37904260
v 7.28977501 23.94121958 29.37904260
f 1 2 5
f 1 5 11
f 1 11 19
f 1 19 18
f 1 18 36
f 1 36 71
f 1 71 70
f 1 70 69
f 1 69 68
f 1 68 67
f 1 67 66
f 1 66 65
f 1 65 106
f 1 106 105
f 1 105 104
f 1 104 103
f 1 103 102
f 1 102 73
f 1 73 38
f 1 38 21
f 1 21 8
f 1 8 3
f 1 3 4
f 1 4 10
f 1 10 25
f 1 25 47
f 1 47 85
f 1 85 111
f 1 111 117
f 1 117 116
f 1 116 115
f 1 115 114
f 1 114 112
f 1 112 97
f 1 97 96
f 1 96 95
f 1 95 94
f 1 94 93
f 1 93 92
f 1 92 91
f 1 91 90
f 1 90 86
f 1 86 49
f 1 49 48
f 1 48 26
f 1 26 12
f 1 12 6
f 1 6 2
f 2 6 7
f 2 7 5
f 3 8 20
f 3 20 37
f 3 37 72
f 3 72 61
f 3 61 60
f 3 60 101
f 3 101 100
f 3 100 57
f 3 57 99
f 3 99 82
f 3 82 79
f 3 79 40
f 3 40 22
f 3 22 9
f 3 9 4
f 4 9 22
f 4 22 39
f 4 39 77
f 4 77 42
f 4 42 23
f 4 23 10
f 5 7 11
f 6 12 13
f 6 13 7
f 7 13 14
f 7 14 15
f 7 15 16
f 7 16 17
f 7 17 18
f 7 18 19
f 7 19 11
f 8 21 20
f 10 23 24
f 10 24 25
f 12 26 27
f 12 27 13
f 13 27 28
f 13 28 29
f 13 29 30
f 13 30 14
f 14 30 15
f 15 30 31
f 15 31 32
f 15 32 33
f 15 33 16
f 16 33 34
f 16 34 35
f 16 35 17
f 17 35 18
f 18 35 36
f 20 21 37
f 21 38 37
f 22 40 41
f 22 41 39
f 23 42 43
f 23 43 24
f 24 43 44
f 24 44 45
f 24 45 46
f 24 46 25
f 25 46 47
f 26 48 27
f 27 48 49
f 27 49 28
f 28 49 50
f 28 50 29
f 29 50 51
f 29 51 30
f 30 51 52
f 30 52 53
f 30 53 31
f 31 54 32
f 31 53 55
f 31 55 54
f 32 54 56
f 32 56 57
f 32 57 58
f 32 58 33
f 33 58 34
f 34 58 59
f 34 59 60
f 34 60 61
f 34 61 62
f 34 62 63
f 34 63 64
f 34 64 65
f 34 65 66
f 34 66 67
f 34 67 35
f 35 67 68
f 35 68 69
f 35 69 70
f 35 70 71
f 35 71 36
f 37 38 63
f 37 63 62
f 37 62 72
f 38 73 63
f 39 74 75
f 39 75 43
f 39 43 76
f 39 76 77
f 39 41 78
f 39 78 74
f 40 79 41
f 41 80 81
f 41 81 78
f 41 79 82
f 41 82 80
f 42 77 76
f 42 76 43
f 43 75 74
f 43 74 44
f 44 74 45
f 45 74 83
f 45 83 46
f 46 83 84
f 46 84 47
f 47 84 85
f 49 86 50
f 50 87 88
f 50 88 89
f 50 89 81
f 50 81 51
f 50 86 90
f 50 90 91
f 50 91 92
f 50 92 93
f 50 93 94
f 50 94 95
f 50 95 96
f 50 96 97
f 50 97 87
f 51 81 52
f 52 81 53
f 53 81 80
f 53 80 98
f 53 98 55
f 54 99 56
f 54 55 82
f 54 82 99
f 55 98 82
f 56 99 57
f 57 100 58
f 58 100 59
f 59 100 101
f 59 101 60
f 61 72 62
f 63 73 102
f 63 102 103
f 63 103 64
f 64 103 104
f 64 104 105
f 64 105 106
f 64 106 65
f 74 78 107
f 74 107 83
f 78 81 108
f 78 108 107
f 80 82 98
f 81 89 108
f 83 107 88
f 83 88 109
f 83 109 110
f 83 110 84
f 84 110 85
f 85 110 111
f 87 97 112
f 87 112 88
f 88 113 109
f 88 107 108
f 88 108 89
f 88 112 114
f 88 114 115
f 88 115 113
f 109 113 110
f 110 113 116
f 110 116 117
f 110 117 111
f 113 115 116

