# https://github.com/mikedh/trimesh
v 6.95696507 8.70345530 12.71452412
v 6.99362033 8.63889785 12.71452412
v 7.64673496 7.10386924 12.19079334
v 7.56422969 6.99340482 11.99780618
v 7.37125526 7.07876437 11.93767098
v 6.95696507 6.50061751 11.33887817
v 6.95696507 1.37548748 12.71452412
v 7.10131803 8.43661822 12.71452412
v 7.89928902 6.46188313 12.25071524
v 7.83958344 6.57736894 12.13556286
v 7.88379561 6.43247377 12.05772830
v 7.92586739 6.23951918 11.92551626
v 7.69724578 6.89585173 12.09973753
v 7.64119205 6.80045023 11.93767098
v 7.58917021 7.30399726 12.39742814
v 7.64597923 7.15910166 12.39742814
v 6.95696507 6.33850739 11.24121163
v 6.95696507 1.37548748 10.61832204
v 8.00194892 1.37548748 12.71452412
v 7.35538398 7.79678414 12.71452412
v 7.89928902 6.46188313 12.25284786
v 7.92234063 6.32774767 12.13556286
v 7.95975119 6.02648027 11.87519007
v 7.87737187 5.81774498 11.69051965
v 7.82333430 6.02648027 11.73039670
v 6.95696507 6.05947634 11.08618264
v 6.95696507 5.94901149 11.02604743
v 7.62103828 7.13399593 12.55203096
v 6.95696507 3.13216269 10.53643576
v 8.20462194 1.37548748 11.94428193
v 8.23119945 1.37548748 12.30722534
v 7.90810678 6.31555327 12.26095108
v 7.41370447 7.46539047 12.71452412
v 8.19252934 3.61203825 11.97712142
v 7.96995446 6.02648027 12.10784097
v 8.01416662 5.44761692 11.81846688
v 7.97121402 5.72736489 11.79948812
v 7.90709913 5.62479082 11.66684947
v 6.95696507 5.70799791 10.93349892
v 6.95696507 5.73668992 10.94288132
v 6.95696507 5.89521376 11.00386975
v 6.95696507 5.44761692 10.85971607
v 6.95696507 3.19098161 10.53643576
v 7.95584656 3.42195303 11.62036191
v 7.95534274 3.13216269 11.61993573
v 8.24366993 1.37548748 12.08971500
v 8.10007270 3.13216269 11.80460615
v 8.10057739 3.42195303 11.80439263
v 8.19542632 3.42195303 11.94918643
v 8.19252934 3.61203825 11.95494416
v 8.03406848 5.15782658 11.81846688
v 7.91629389 5.44761692 11.65831986
v 6.95696507 5.16141287 10.79680855
v 6.95696507 3.47431608 10.54304627
v 6.95696507 3.74115316 10.57481988
v 6.95696507 4.27195709 10.63836711
v 6.95696507 4.28988981 10.64071281
v 6.95696507 4.60622056 10.69146518
v 6.95696507 4.79702312 10.72622420
v 6.95696507 4.86947049 10.73965876
v 6.95696507 3.42195303 10.53878147
v 7.94173866 4.28988981 11.63017136
v 7.93846382 4.57968015 11.63550247
v 8.06190641 4.57968015 11.81846688
v 8.04905807 4.86947049 11.81846688
f 1 2 3
f 1 3 4
f 1 4 5
f 1 5 6
f 1 6 17
f 1 17 26
f 1 26 27
f 1 27 41
f 1 41 40
f 1 40 39
f 1 39 42
f 1 42 53
f 1 53 60
f 1 60 59
f 1 59 58
f 1 58 57
f 1 57 56
f 1 56 55
f 1 55 54
f 1 54 61
f 1 61 43
f 1 43 29
f 1 29 18
f 1 18 7
f 1 7 19
f 1 19 33
f 1 33 20
f 1 20 8
f 1 8 2
f 2 8 3
f 3 9 10
f 3 10 11
f 3 11 12
f 3 12 13
f 3 13 14
f 3 14 4
f 3 8 15
f 3 15 16
f 3 16 9
f 4 14 17
f 4 17 6
f 4 6 5
f 7 18 30
f 7 30 46
f 7 46 31
f 7 31 19
f 8 20 15
f 9 21 22
f 9 22 12
f 9 12 11
f 9 11 10
f 9 16 21
f 12 14 13
f 12 22 23
f 12 23 24
f 12 24 25
f 12 25 14
f 14 26 17
f 14 25 27
f 14 27 26
f 15 20 16
f 16 20 28
f 16 28 21
f 18 29 30
f 19 31 32
f 19 32 28
f 19 28 33
f 20 33 28
f 21 32 34
f 21 34 35
f 21 35 22
f 21 28 32
f 22 35 23
f 23 36 37
f 23 37 38
f 23 38 24
f 23 35 36
f 24 39 40
f 24 40 41
f 24 41 25
f 24 38 42
f 24 42 39
f 25 41 27
f 29 43 44
f 29 44 45
f 29 45 30
f 30 45 47
f 30 47 48
f 30 48 49
f 30 49 46
f 31 46 34
f 31 34 32
f 34 46 50
f 34 50 35
f 35 50 36
f 36 51 52
f 36 52 38
f 36 38 37
f 36 50 51
f 38 53 42
f 38 52 54
f 38 54 55
f 38 55 56
f 38 56 57
f 38 57 58
f 38 58 59
f 38 59 60
f 38 60 53
f 43 61 44
f 44 48 45
f 44 61 62
f 44 62 48
f 45 48 47
f 46 49 50
f 48 50 49
f 48 62 63
f 48 63 64
f 48 64 50
f 50 64 65
f 50 65 51
f 51 65 52
f 52 65 64
f 52 64 63
f 52 63 61
f 52 61 54
f 61 63 62

