# https://github.com/mikedh/trimesh
v -2.16607676 10.41237606 15.32605575
v -2.16494402 10.41237606 15.29229041
v -2.11736664 10.41237606 16.39630467
v -1.74845371 13.55288909 15.58161609
v -1.75260723 13.55288909 15.29229041
v -2.11208017 10.41237606 15.00280472
v -1.72749697 13.55288909 15.00280472
v -1.68766048 13.54422576 14.76148660
v -0.23730772 10.41237606 16.39630467
v -1.56324194 13.55288909 16.39630467
v -1.62743361 13.55288909 16.23099864
v -1.66651502 13.72428628 16.05113020
v -1.71730190 13.55288909 15.87110178
v -1.68048618 13.76120251 15.87110178
v -1.69238036 13.79284499 15.58161609
v -1.69615644 13.79849488 15.29229041
v -1.68558372 13.77363330 15.00280472
v -2.05317498 10.41237606 14.76148660
v -1.66840306 13.73407977 14.80821399
v -1.67387825 13.64065948 14.76148660
v -0.23730772 10.41237606 14.76148660
v -0.23730772 14.24035943 16.39630467
v -1.46789868 13.85047919 16.39630467
v -1.57022752 13.82938421 16.15274623
v -1.60402246 13.90585310 15.87110178
v -1.62422411 13.93787258 15.58161609
v -1.62516813 13.94314633 15.29229041
v -1.61214099 13.91828475 15.00280472
v -1.66103983 13.70921819 14.76148660
v -1.59363867 13.84934904 14.76148660
v -1.63007674 13.78342764 14.76148660
v -0.23730772 13.38940381 14.76148660
v -0.23730772 14.23621584 16.37934206
v -0.92585709 14.11265937 14.76148660
v -0.97815436 14.12584416 14.76148660
v -0.35096464 14.26032427 16.39630467
v -1.40540623 13.96198102 16.39630467
v -1.38860312 14.01095189 16.36766021
v -1.42258688 14.03958006 16.16058751
v -1.45940271 14.06105205 15.87110178
v -1.47960414 14.07084640 15.58161609
v -1.48035945 14.06820909 15.29229041
v -1.46752103 14.06180520 15.00280472
v -1.44505390 14.05464815 14.76148660
v -0.74140063 14.02451283 14.76148660
v -0.23730772 14.21210740 16.28620733
v -0.76103569 14.03619047 14.76148660
v -1.21925055 14.14543199 14.76148660
v -0.39797555 14.25768696 16.39630467
v -1.34102574 14.02903257 16.39630467
v -1.23378807 14.08252404 16.39630467
v -1.21925055 14.13488450 16.16058751
v -1.21925055 14.16049923 15.87110178
v -1.21925055 14.16690398 15.58161609
v -1.21925055 14.16087623 15.29229041
v -1.21925055 14.15371919 15.00280472
v -1.26059744 14.13036390 14.76148660
v -0.91226359 14.19477901 16.39630467
f 1 2 6
f 1 6 18
f 1 18 21
f 1 21 9
f 1 9 3
f 1 3 4
f 1 4 5
f 1 5 2
f 2 5 7
f 2 7 8
f 2 8 6
f 3 9 22
f 3 22 36
f 3 36 49
f 3 49 58
f 3 58 51
f 3 51 50
f 3 50 37
f 3 37 23
f 3 23 10
f 3 10 11
f 3 11 12
f 3 12 13
f 3 13 4
f 4 13 14
f 4 14 15
f 4 15 16
f 4 16 5
f 5 16 17
f 5 17 7
f 6 8 18
f 7 17 19
f 7 19 20
f 7 20 8
f 8 20 29
f 8 29 31
f 8 31 30
f 8 30 44
f 8 44 57
f 8 57 48
f 8 48 35
f 8 35 34
f 8 34 47
f 8 47 45
f 8 45 32
f 8 32 21
f 8 21 18
f 9 21 32
f 9 32 46
f 9 46 33
f 9 33 22
f 10 23 12
f 10 12 11
f 12 23 24
f 12 24 25
f 12 25 14
f 12 14 13
f 14 25 26
f 14 26 15
f 15 26 16
f 16 26 27
f 16 27 17
f 17 27 28
f 17 28 19
f 19 29 20
f 19 28 30
f 19 30 31
f 19 31 29
f 22 33 34
f 22 34 35
f 22 35 36
f 23 37 24
f 24 37 38
f 24 38 25
f 25 38 39
f 25 39 40
f 25 40 26
f 26 40 41
f 26 41 27
f 27 41 42
f 27 42 43
f 27 43 44
f 27 44 28
f 28 44 30
f 32 45 46
f 33 46 34
f 34 46 47
f 35 48 36
f 36 48 49
f 37 50 38
f 38 50 39
f 39 50 51
f 39 51 52
f 39 52 40
f 40 52 53
f 40 53 41
f 41 53 54
f 41 54 42
f 42 54 55
f 42 55 56
f 42 56 57
f 42 57 43
f 43 57 44
f 45 47 46
f 48 57 56
f 48 56 49
f 49 56 55
f 49 55 54
f 49 54 58
f 51 58 52
f 52 58 53
f 53 58 54

