mtllib material.mtl
usemtl material_0
v 94.19893600 88.81354500 -53.57698800
v 94.19893600 88.81354500 -53.57698800
v 94.19893600 88.81691000 -30.81686400
v 115.24126400 88.81691000 -30.81686400
v 115.24126400 88.81354500 -53.57698800
v 115.24126400 88.81354500 -53.57698800
v 115.24108100 81.76857800 -59.82717900
v 115.24108100 45.81633400 -59.82717500
v 94.19893600 45.81633400 -59.82717500
v 94.19893600 81.76857800 -59.82717900
v 115.24108100 88.44638800 -56.24486500
v 94.19893600 88.44638800 -56.24486500
v 115.24108100 87.00260200 -58.27848100
v 94.19893600 87.00260200 -58.27848100
v 115.24126400 84.57625600 -59.48279600
v 94.19893600 84.57625600 -59.48279600
v 133.78408800 81.55802200 -58.97079500
v 133.78408800 45.81633400 -58.97079100
v 113.44152800 45.81633400 -58.97079100
v 113.44152800 81.55802200 -58.97079500
v 133.78408800 87.91852600 -53.57698800
v 133.78408800 87.91852600 -53.57698800
v 133.78408800 87.52095800 -55.93669900
v 113.44152800 87.52095800 -55.93669900
v 113.44152800 87.91852600 -53.57698800
v 113.44152800 87.91852600 -53.57698800
v 133.78408800 86.32840700 -57.62239100
v 113.44152800 86.32840700 -57.62239100
v 133.78408800 84.34070600 -58.63369000
v 113.44152800 84.34070600 -58.63369000
v 113.44152800 87.91853300 -30.81686200
v 133.78408800 87.91853300 -30.81686200
v 93.17046400 45.81633400 -59.82717500
v 93.17046400 45.81633400 -30.81686000
v 93.17046400 88.81691000 -30.81686400
v 93.17046400 88.81354500 -53.57698800
v 93.17046400 88.44638800 -56.24486500
v 93.17046400 87.00260200 -58.27848100
v 93.17046400 84.57625600 -59.48279600
v 93.17046400 81.76857800 -59.82717900
v 134.81257600 45.81633400 -58.97079100
v 134.81257600 81.55802200 -58.97079500
v 134.81257600 84.34070600 -58.63369000
v 134.81257600 86.32840700 -57.62239100
v 134.81257600 87.52095800 -55.93669900
v 134.81257600 87.91852600 -53.57698800
v 134.81257600 45.81633400 -30.81686000
v 134.81257600 87.91853300 -30.81686200
v 46.80373400 88.81354500 -53.57698800
v 46.80373400 88.81354500 -53.57698800
v 46.80373400 88.81691000 -30.81686400
v 67.84587100 88.81691000 -30.81686400
v 67.84587100 88.81354500 -53.57698800
v 67.84587100 88.81354500 -53.57698800
v 67.84587100 81.76857800 -59.82717900
v 67.84587100 45.81633400 -59.82717500
v 46.80373400 45.81633400 -59.82717500
v 46.80373400 81.76857800 -59.82717900
v 67.84587100 88.44638800 -56.24486500
v 46.80373400 88.44638800 -56.24486500
v 67.84587100 87.00260200 -58.27848100
v 46.80373400 87.00260200 -58.27848100
v 67.84587100 84.57625600 -59.48279600
v 46.80373400 84.57625600 -59.48279600
v 86.38868000 81.55802200 -58.97079500
v 86.38868000 45.81633400 -58.97079100
v 66.04631800 45.81633400 -58.97079100
v 66.04631800 81.55802200 -58.97079500
v 86.38868000 87.91852600 -53.57698800
v 86.38868000 87.91852600 -53.57698800
v 86.38868000 87.52095800 -55.93669900
v 66.04631800 87.52095800 -55.93669900
v 66.04631800 87.91852600 -53.57698800
v 66.04631800 87.91852600 -53.57698800
v 86.38868000 86.32840700 -57.62239100
v 66.04631800 86.32840700 -57.62239100
v 86.38868000 84.34070600 -58.63369000
v 66.04631800 84.34070600 -58.63369000
v 66.04631800 87.91853300 -30.81686200
v 86.38868000 87.91853300 -30.81686200
v 45.77507000 45.81633400 -59.82717500
v 45.77507000 45.81633400 -30.81686000
v 45.77507000 88.81691000 -30.81686400
v 45.77507000 88.81354500 -53.57698800
v 45.77507000 88.44638800 -56.24486500
v 45.77507000 87.00260200 -58.27848100
v 45.77507000 84.57625600 -59.48279600
v 45.77507000 81.76857800 -59.82717900
v 87.41734300 45.81633400 -58.97079100
v 87.41734300 81.55802200 -58.97079500
v 87.41734300 84.34070600 -58.63369000
v 87.41734300 86.32840700 -57.62239100
v 87.41734300 87.52095800 -55.93669900
v 87.41734300 87.91852600 -53.57698800
v 87.41734300 45.81633400 -30.81686000
v 87.41734300 87.91853300 -30.81686200
vn -0.00000000 0.99770000 -0.06840000
vn -0.00000000 0.99770000 -0.06840000
vn -0.00000000 1.00000000 -0.00010000
vn -0.00000000 1.00000000 -0.00010000
vn -0.00000000 0.99770000 -0.06840000
vn -0.00000000 0.99770000 -0.06840000
vn -0.00000000 0.06100000 -0.99810000
vn -0.00000000 -0.00000000 -1.00000000
vn -0.00000000 -0.00000000 -1.00000000
vn -0.00000000 0.06100000 -0.99810000
vn -0.00000000 0.92970000 -0.36820000
vn -0.00000000 0.92970000 -0.36820000
vn -0.00000000 0.64960000 -0.76030000
vn -0.00000000 0.64960000 -0.76030000
vn -0.00000000 0.28730000 -0.95780000
vn -0.00000000 0.28730000 -0.95780000
vn -0.00000000 0.06020000 -0.99820000
vn -0.00000000 -0.00000000 -1.00000000
vn -0.00000000 -0.00000000 -1.00000000
vn -0.00000000 0.06020000 -0.99820000
vn -0.00000000 0.99650000 -0.08340000
vn -0.00000000 0.99650000 -0.08340000
vn -0.00000000 0.92440000 -0.38140000
vn -0.00000000 0.92440000 -0.38140000
vn -0.00000000 0.99650000 -0.08340000
vn -0.00000000 0.99650000 -0.08340000
vn -0.00000000 0.65400000 -0.75650000
vn -0.00000000 0.65400000 -0.75650000
vn -0.00000000 0.29130000 -0.95660000
vn -0.00000000 0.29130000 -0.95660000
vn -0.00000000 1.00000000 -0.00000000
vn -0.00000000 1.00000000 -0.00000000
vn -1.00000000 -0.00000000 -0.00000000
vn -1.00000000 -0.00000000 -0.00000000
vn -1.00000000 -0.00000000 -0.00000000
vn -1.00000000 -0.00000000 -0.00000000
vn -1.00000000 -0.00000000 -0.00000000
vn -1.00000000 -0.00000000 -0.00000000
vn -1.00000000 -0.00000000 -0.00000000
vn -1.00000000 -0.00000000 -0.00000000
vn 1.00000000 -0.00000000 -0.00000000
vn 1.00000000 -0.00000000 -0.00000000
vn 1.00000000 -0.00000000 -0.00000000
vn 1.00000000 -0.00000000 -0.00000000
vn 1.00000000 -0.00000000 -0.00000000
vn 1.00000000 -0.00000000 -0.00000000
vn 1.00000000 -0.00000000 -0.00000000
vn 1.00000000 -0.00000000 -0.00000000
vn -0.00000000 0.99770000 -0.06840000
vn -0.00000000 0.99770000 -0.06840000
vn -0.00000000 1.00000000 -0.00010000
vn -0.00000000 1.00000000 -0.00010000
vn -0.00000000 0.99770000 -0.06840000
vn -0.00000000 0.99770000 -0.06840000
vn -0.00000000 0.06100000 -0.99810000
vn -0.00000000 -0.00000000 -1.00000000
vn -0.00000000 -0.00000000 -1.00000000
vn -0.00000000 0.06100000 -0.99810000
vn -0.00000000 0.92970000 -0.36820000
vn -0.00000000 0.92970000 -0.36820000
vn -0.00000000 0.64960000 -0.76030000
vn -0.00000000 0.64960000 -0.76030000
vn -0.00000000 0.28730000 -0.95780000
vn -0.00000000 0.28730000 -0.95780000
vn -0.00000000 0.06020000 -0.99820000
vn -0.00000000 -0.00000000 -1.00000000
vn -0.00000000 -0.00000000 -1.00000000
vn -0.00000000 0.06020000 -0.99820000
vn -0.00000000 0.99650000 -0.08340000
vn -0.00000000 0.99650000 -0.08340000
vn -0.00000000 0.92440000 -0.38140000
vn -0.00000000 0.92440000 -0.38140000
vn -0.00000000 0.99650000 -0.08340000
vn -0.00000000 0.99650000 -0.08340000
vn -0.00000000 0.65400000 -0.75650000
vn -0.00000000 0.65400000 -0.75650000
vn -0.00000000 0.29130000 -0.95660000
vn -0.00000000 0.29130000 -0.95660000
vn -0.00000000 1.00000000 -0.00000000
vn -0.00000000 1.00000000 -0.00000000
vn -1.00000000 -0.00000000 -0.00000000
vn -1.00000000 -0.00000000 -0.00000000
vn -1.00000000 -0.00000000 -0.00000000
vn -1.00000000 -0.00000000 -0.00000000
vn -1.00000000 -0.00000000 -0.00000000
vn -1.00000000 -0.00000000 -0.00000000
vn -1.00000000 -0.00000000 -0.00000000
vn -1.00000000 -0.00000000 -0.00000000
vn 1.00000000 -0.00000000 -0.00000000
vn 1.00000000 -0.00000000 -0.00000000
vn 1.00000000 -0.00000000 -0.00000000
vn 1.00000000 -0.00000000 -0.00000000
vn 1.00000000 -0.00000000 -0.00000000
vn 1.00000000 -0.00000000 -0.00000000
vn 1.00000000 -0.00000000 -0.00000000
vn 1.00000000 -0.00000000 -0.00000000
vt 0.97530000 1.03490000
vt 0.02470000 0.73100000
vt 0.02470000 0.00000000
vt 0.50000000 0.00000000
vt 0.50000000 1.03490000
vt 0.50000000 0.73100000
vt 0.50000000 0.84890000
vt 0.50000000 0.00000000
vt 0.97530000 0.00000000
vt 0.97530000 0.84890000
vt 0.50000000 0.98840000
vt 0.97530000 0.98840000
vt 0.50000000 0.94190000
vt 0.97530000 0.94190000
vt 0.50000000 0.89540000
vt 0.97530000 0.89540000
vt 0.02470000 0.84890000
vt 0.02470000 0.00000000
vt 0.50000000 0.00000000
vt 0.50000000 0.84890000
vt 0.02470000 1.03490000
vt 0.97530000 0.73100000
vt 0.02470000 0.98840000
vt 0.50000000 0.98840000
vt 0.50000000 1.03490000
vt 0.50000000 0.73100000
vt 0.02470000 0.94190000
vt 0.50000000 0.94190000
vt 0.02470000 0.89540000
vt 0.50000000 0.89540000
vt 0.50000000 0.00000000
vt 0.97530000 0.00000000
vt -0.00000000 -0.00000000
vt 1.00000000 -0.00000000
vt 1.00000000 1.00000000
vt 0.26900000 1.00000000
vt 0.15130000 0.99060000
vt 0.06730000 0.96220000
vt 0.01680000 0.91500000
vt 0.00000000 0.84890000
vt 1.00000000 -0.00000000
vt 1.00000000 0.84890000
vt 0.98320000 0.91500000
vt 0.93270000 0.96220000
vt 0.84870000 0.99060000
vt 0.73100000 1.00000000
vt -0.00000000 -0.00000000
vt 0.00000000 1.00000000
vt 0.97530000 1.03490000
vt 0.02470000 0.73100000
vt 0.02470000 0.00000000
vt 0.50000000 0.00000000
vt 0.50000000 1.03490000
vt 0.50000000 0.73100000
vt 0.50000000 0.84890000
vt 0.50000000 0.00000000
vt 0.97530000 0.00000000
vt 0.97530000 0.84890000
vt 0.50000000 0.98840000
vt 0.97530000 0.98840000
vt 0.50000000 0.94190000
vt 0.97530000 0.94190000
vt 0.50000000 0.89540000
vt 0.97530000 0.89540000
vt 0.02470000 0.84890000
vt 0.02470000 0.00000000
vt 0.50000000 0.00000000
vt 0.50000000 0.84890000
vt 0.02470000 1.03490000
vt 0.97530000 0.73100000
vt 0.02470000 0.98840000
vt 0.50000000 0.98840000
vt 0.50000000 1.03490000
vt 0.50000000 0.73100000
vt 0.02470000 0.94190000
vt 0.50000000 0.94190000
vt 0.02470000 0.89540000
vt 0.50000000 0.89540000
vt 0.50000000 0.00000000
vt 0.97530000 0.00000000
vt -0.00000000 -0.00000000
vt 1.00000000 -0.00000000
vt 1.00000000 1.00000000
vt 0.26900000 1.00000000
vt 0.15130000 0.99060000
vt 0.06730000 0.96220000
vt 0.01680000 0.91500000
vt 0.00000000 0.84890000
vt 1.00000000 -0.00000000
vt 1.00000000 0.84890000
vt 0.98320000 0.91500000
vt 0.93270000 0.96220000
vt 0.84870000 0.99060000
vt 0.73100000 1.00000000
vt -0.00000000 -0.00000000
vt 0.00000000 1.00000000
f 2/2/2 3/3/3 4/4/4
f 4/4/4 6/6/6 2/2/2
f 7/7/7 8/8/8 9/9/9
f 9/9/9 10/10/10 7/7/7
f 5/5/5 11/11/11 12/12/12
f 12/12/12 1/1/1 5/5/5
f 11/11/11 13/13/13 14/14/14
f 14/14/14 12/12/12 11/11/11
f 13/13/13 15/15/15 16/16/16
f 16/16/16 14/14/14 13/13/13
f 15/15/15 7/7/7 10/10/10
f 10/10/10 16/16/16 15/15/15
f 17/17/17 18/18/18 19/19/19
f 19/19/19 20/20/20 17/17/17
f 21/21/21 23/23/23 24/24/24
f 24/24/24 25/25/25 21/21/21
f 23/23/23 27/27/27 28/28/28
f 28/28/28 24/24/24 23/23/23
f 27/27/27 29/29/29 30/30/30
f 30/30/30 28/28/28 27/27/27
f 29/29/29 17/17/17 20/20/20
f 20/20/20 30/30/30 29/29/29
f 26/26/26 31/31/31 32/32/32
f 32/32/32 22/22/22 26/26/26
f 33/33/33 34/34/34 35/35/35
f 35/35/35 36/36/36 37/37/37
f 35/35/35 37/37/37 38/38/38
f 35/35/35 38/38/38 39/39/39
f 35/35/35 39/39/39 40/40/40
f 33/33/33 35/35/35 40/40/40
f 41/41/41 42/42/42 43/43/43
f 41/41/41 43/43/43 44/44/44
f 41/41/41 44/44/44 45/45/45
f 41/41/41 45/45/45 46/46/46
f 47/47/47 41/41/41 46/46/46
f 47/47/47 46/46/46 48/48/48
f 50/50/50 51/51/51 52/52/52
f 52/52/52 54/54/54 50/50/50
f 55/55/55 56/56/56 57/57/57
f 57/57/57 58/58/58 55/55/55
f 53/53/53 59/59/59 60/60/60
f 60/60/60 49/49/49 53/53/53
f 59/59/59 61/61/61 62/62/62
f 62/62/62 60/60/60 59/59/59
f 61/61/61 63/63/63 64/64/64
f 64/64/64 62/62/62 61/61/61
f 63/63/63 55/55/55 58/58/58
f 58/58/58 64/64/64 63/63/63
f 65/65/65 66/66/66 67/67/67
f 67/67/67 68/68/68 65/65/65
f 69/69/69 71/71/71 72/72/72
f 72/72/72 73/73/73 69/69/69
f 71/71/71 75/75/75 76/76/76
f 76/76/76 72/72/72 71/71/71
f 75/75/75 77/77/77 78/78/78
f 78/78/78 76/76/76 75/75/75
f 77/77/77 65/65/65 68/68/68
f 68/68/68 78/78/78 77/77/77
f 74/74/74 79/79/79 80/80/80
f 80/80/80 70/70/70 74/74/74
f 81/81/81 82/82/82 83/83/83
f 83/83/83 84/84/84 85/85/85
f 83/83/83 85/85/85 86/86/86
f 83/83/83 86/86/86 87/87/87
f 83/83/83 87/87/87 88/88/88
f 81/81/81 83/83/83 88/88/88
f 89/89/89 90/90/90 91/91/91
f 89/89/89 91/91/91 92/92/92
f 89/89/89 92/92/92 93/93/93
f 89/89/89 93/93/93 94/94/94
f 95/95/95 89/89/89 94/94/94
f 95/95/95 94/94/94 96/96/96

