mtllib material.mtl
usemtl material_0
v 158.07312000 -11.00782600 -73.25260900
v 158.07312000 -11.00782600 -73.25260900
v 158.07312000 -11.00782600 -73.25260900
v 143.99960300 -11.00782500 -61.44361100
v 143.99960300 -11.00782500 -61.44361100
v 165.95767200 -11.00782300 -35.27495600
v 165.95767200 -11.00782300 -35.27495600
v 180.03118900 -11.00782400 -47.08395400
v 180.03118900 -11.00782400 -47.08395400
v 180.03118900 -11.00782400 -47.08395400
v 158.07312000 -32.39247900 -73.25260900
v 158.07312000 -32.39247900 -73.25260900
v 143.99960300 -32.39247900 -61.44360700
v 165.95767200 -32.39247900 -35.27495200
v 180.03118900 -32.39247900 -47.08395000
v 180.03118900 -32.39247900 -47.08395000
v 161.13185100 -11.25700900 -56.48938000
v 161.13185100 -11.25700900 -56.48938000
v 161.13185100 -11.25700900 -56.48938000
v 152.25711100 -11.25701000 -67.06607100
v 152.25711100 -11.25701000 -67.06607100
v 152.25711100 -11.25701000 -67.06607100
v 155.06291200 -11.25701000 -69.42055500
v 155.06291200 -11.25701000 -69.42055500
v 155.06291200 -11.25701000 -69.42055500
v 163.93786600 -11.25701000 -58.84386400
v 163.93786600 -11.25701000 -58.84386400
v 163.93786600 -11.25701000 -58.84386400
v 161.13185100 -2.05205200 -56.48938000
v 161.13185100 -2.05205200 -56.48938000
v 161.13185100 -2.05205200 -56.48938000
v 163.93786600 -2.05205200 -58.84386400
v 163.93786600 -2.05205200 -58.84386400
v 163.93786600 -2.05205200 -58.84386400
v 155.06291200 -2.05205300 -69.42055500
v 155.06291200 -2.05205300 -69.42055500
v 155.06291200 -2.05205300 -69.42055500
v 152.25711100 -2.05205300 -67.06607100
v 152.25711100 -2.05205300 -67.06607100
v 152.25711100 -2.05205300 -67.06607100
v 164.20982400 -11.25701000 -59.07214400
v 164.20982400 -11.25701000 -59.07214400
v 164.20982400 -11.25701000 -59.07214400
v 155.33486900 -11.25701000 -69.64865100
v 155.33486900 -11.25701000 -69.64865100
v 155.33486900 -11.25701000 -69.64865100
v 158.14088400 -11.25701000 -72.00313600
v 158.14088400 -11.25701000 -72.00313600
v 158.14088400 -11.25701000 -72.00313600
v 167.01564000 -11.25701000 -61.42662800
v 167.01564000 -11.25701000 -61.42662800
v 167.01564000 -11.25701000 -61.42662800
v 164.20982400 -2.05205200 -59.07214400
v 164.20982400 -2.05205200 -59.07214400
v 164.20982400 -2.05205200 -59.07214400
v 167.01564000 -2.05205200 -61.42662800
v 167.01564000 -2.05205200 -61.42662800
v 167.01564000 -2.05205200 -61.42662800
v 158.14088400 -2.05205300 -72.00313600
v 158.14088400 -2.05205300 -72.00313600
v 158.14088400 -2.05205300 -72.00313600
v 155.33486900 -2.05205300 -69.64865100
v 155.33486900 -2.05205300 -69.64865100
v 155.33486900 -2.05205300 -69.64865100
v 167.69003300 -11.95192900 -58.96425600
v 167.69003300 -11.95192900 -58.96425600
v 167.69003300 -11.95192900 -58.96425600
v 178.51236000 -11.95192800 -46.06668100
v 178.51236000 -11.95192800 -46.06668100
v 178.51236000 -11.95192800 -46.06668100
v 174.74134800 -13.74364400 -42.90229000
v 174.74134800 -13.74364400 -42.90229000
v 174.74134800 -13.74364400 -42.90229000
v 163.91900600 -13.74364500 -55.79987300
v 163.91900600 -13.74364500 -55.79987300
v 163.91900600 -13.74364500 -55.79987300
v 163.27485700 3.88362100 -55.25931500
v 163.27485700 3.88362100 -55.25931500
v 163.27485700 3.88362100 -55.25931500
v 159.50384500 2.09190800 -52.09511600
v 159.50384500 2.09190800 -52.09511600
v 159.50384500 2.09190800 -52.09511600
v 170.32598900 2.09190800 -39.19754000
v 170.32598900 2.09190800 -39.19754000
v 170.32598900 2.09190800 -39.19754000
v 174.09719800 3.88362200 -42.36192300
v 174.09719800 3.88362200 -42.36192300
v 174.09719800 3.88362200 -42.36192300
v 156.93135100 5.36455000 -72.03169300
v 156.93135100 5.36455000 -72.03169300
v 156.93135100 5.36455000 -72.03169300
v 167.75367700 5.36455100 -59.13411700
v 167.75367700 5.36455100 -59.13411700
v 167.75367700 5.36455100 -59.13411700
v 163.74057000 5.36455100 -55.76683800
v 163.74057000 5.36455100 -55.76683800
v 163.74057000 5.36455100 -55.76683800
v 152.91822800 5.36455000 -68.66422300
v 152.91822800 5.36455000 -68.66422300
v 152.91822800 5.36455000 -68.66422300
v 156.93135100 20.58301200 -72.03169300
v 156.93135100 20.58301200 -72.03169300
v 156.93135100 20.58301200 -72.03169300
v 152.91822800 20.58301200 -68.66422300
v 152.91822800 20.58301200 -68.66422300
v 152.91822800 20.58301200 -68.66422300
v 163.74057000 20.58301400 -55.76683800
v 163.74057000 20.58301400 -55.76683800
v 163.74057000 20.58301400 -55.76683800
v 167.75367700 20.58301400 -59.13411700
v 167.75367700 20.58301400 -59.13411700
v 167.75367700 20.58301400 -59.13411700
v 167.81115700 5.36455100 -59.06579600
v 167.81115700 5.36455100 -59.06579600
v 167.81115700 5.36455100 -59.06579600
v 178.63331600 5.36455200 -46.16822100
v 178.63331600 5.36455200 -46.16822100
v 178.63331600 5.36455200 -46.16822100
v 174.62020900 5.36455200 -42.80075100
v 174.62020900 5.36455200 -42.80075100
v 174.62020900 5.36455200 -42.80075100
v 163.79806500 5.36455100 -55.69832600
v 163.79806500 5.36455100 -55.69832600
v 163.79806500 5.36455100 -55.69832600
v 167.81115700 20.58301400 -59.06579600
v 167.81115700 20.58301400 -59.06579600
v 167.81115700 20.58301400 -59.06579600
v 163.79806500 20.58301400 -55.69832600
v 163.79806500 20.58301400 -55.69832600
v 163.79806500 20.58301400 -55.69832600
v 174.62020900 20.58301400 -42.80075100
v 174.62020900 20.58301400 -42.80075100
v 174.62020900 20.58301400 -42.80075100
v 178.63331600 20.58301400 -46.16822100
v 178.63331600 20.58301400 -46.16822100
v 178.63331600 20.58301400 -46.16822100
v 158.07312000 3.20176100 -73.25260900
v 158.07312000 3.20176100 -73.25260900
v 158.07312000 3.20176100 -73.25260900
v 180.03118900 3.20176300 -47.08395400
v 180.03118900 3.20176300 -47.08395400
v 180.03118900 3.20176300 -47.08395400
v 165.95767200 3.20176400 -35.27495600
v 165.95767200 3.20176400 -35.27495600
v 143.99960300 3.20176200 -61.44361100
v 143.99960300 3.20176200 -61.44361100
v 158.01283300 4.05329000 -72.56440700
v 158.01283300 4.05329000 -72.56440700
v 158.01283300 4.05329000 -72.56440700
v 144.68780500 4.05329000 -61.38332400
v 144.68780500 4.05329000 -61.38332400
v 144.68780500 4.05329000 -61.38332400
v 166.01777600 4.05329200 -35.96315800
v 166.01777600 4.05329200 -35.96315800
v 166.01777600 4.05329200 -35.96315800
v 179.34278900 4.05329200 -47.14424900
v 179.34278900 4.05329200 -47.14424900
v 179.34278900 4.05329200 -47.14424900
v 143.99960300 6.87609000 -61.44361100
v 143.99960300 6.87609000 -61.44361100
v 143.99960300 6.87609000 -61.44361100
v 158.07312000 6.87608900 -73.25260900
v 158.07312000 6.87608900 -73.25260900
v 158.07312000 6.87608900 -73.25260900
v 158.07312000 6.87608900 -73.25260900
v 180.03118900 6.87609100 -47.08395400
v 180.03118900 6.87609100 -47.08395400
v 180.03118900 6.87609100 -47.08395400
v 180.03118900 6.87609100 -47.08395400
v 165.95767200 6.87609200 -35.27495600
v 165.95767200 6.87609200 -35.27495600
v 165.95767200 6.87609200 -35.27495600
v 144.68780500 6.87609000 -61.38332400
v 144.68780500 6.87609000 -61.38332400
v 144.68780500 6.87609000 -61.38332400
v 144.68780500 6.87609000 -61.38332400
v 158.01283300 6.87609000 -72.56440700
v 158.01283300 6.87609000 -72.56440700
v 158.01283300 6.87609000 -72.56440700
v 158.01283300 6.87609000 -72.56440700
v 166.01777600 6.87609200 -35.96315800
v 166.01777600 6.87609200 -35.96315800
v 166.01777600 6.87609200 -35.96315800
v 166.01777600 6.87609200 -35.96315800
v 179.34278900 6.87609100 -47.14424900
v 179.34278900 6.87609100 -47.14424900
v 179.34278900 6.87609100 -47.14424900
v 179.34278900 6.87609100 -47.14424900
vn -0.00000000 1.00000000 -0.00000000
vn 0.76600000 -0.00000000 -0.64280000
vn -0.64280000 -0.00000000 -0.76600000
vn -0.00000000 1.00000000 -0.00000000
vn -0.64280000 -0.00000000 -0.76600000
vn -0.00000000 1.00000000 -0.00000000
vn 0.64280000 -0.00000000 0.76600000
vn 0.76600000 -0.00000000 -0.64280000
vn -0.00000000 1.00000000 -0.00000000
vn 0.64280000 -0.00000000 0.76600000
vn -0.64280000 -0.00000000 -0.76600000
vn 0.76600000 -0.00000000 -0.64280000
vn -0.64280000 -0.00000000 -0.76600000
vn 0.64280000 -0.00000000 0.76600000
vn 0.76600000 -0.00000000 -0.64280000
vn 0.64280000 -0.00000000 0.76600000
vn 0.64280000 -0.00000000 0.76610000
vn -0.76610000 -0.00000000 0.64280000
vn -0.00000000 -1.00000000 -0.00000000
vn -0.00000000 -1.00000000 -0.00000000
vn -0.64280000 -0.00000000 -0.76600000
vn -0.76610000 -0.00000000 0.64280000
vn -0.00000000 -1.00000000 -0.00000000
vn -0.64280000 -0.00000000 -0.76600000
vn 0.76600000 -0.00000000 -0.64280000
vn -0.00000000 -1.00000000 -0.00000000
vn 0.64280000 -0.00000000 0.76610000
vn 0.76600000 -0.00000000 -0.64280000
vn 0.64280000 -0.00000000 0.76600000
vn -0.76610000 -0.00000000 0.64280000
vn -0.00000000 1.00000000 -0.00000000
vn 0.64280000 -0.00000000 0.76600000
vn 0.76600000 -0.00000000 -0.64280000
vn -0.00000000 1.00000000 -0.00000000
vn -0.64280000 -0.00000000 -0.76600000
vn 0.76600000 -0.00000000 -0.64280000
vn -0.00000000 1.00000000 -0.00000000
vn -0.64280000 -0.00000000 -0.76600000
vn -0.00000000 1.00000000 -0.00000000
vn -0.76600000 -0.00000000 0.64280000
vn -0.76600000 -0.00000000 0.64280000
vn -0.00000000 -1.00000000 -0.00000000
vn 0.64280000 -0.00000000 0.76600000
vn -0.00000000 -1.00000000 -0.00000000
vn -0.64280000 -0.00000000 -0.76600000
vn -0.76600000 -0.00000000 0.64280000
vn -0.00000000 -1.00000000 -0.00000000
vn 0.76600000 -0.00000000 -0.64280000
vn -0.64280000 -0.00000000 -0.76600000
vn 0.64280000 -0.00000000 0.76600000
vn 0.76600000 -0.00000000 -0.64280000
vn -0.00000000 -1.00000000 -0.00000000
vn 0.64280000 -0.00000000 0.76600000
vn -0.00000000 1.00000000 -0.00000000
vn -0.76600000 -0.00000000 0.64280000
vn -0.00000000 1.00000000 -0.00000000
vn 0.64280000 -0.00000000 0.76600000
vn 0.76600000 -0.00000000 -0.64280000
vn -0.00000000 1.00000000 -0.00000000
vn -0.64280000 -0.00000000 -0.76610000
vn 0.76600000 -0.00000000 -0.64280000
vn -0.64280000 -0.00000000 -0.76610000
vn -0.00000000 1.00000000 -0.00000000
vn -0.76600000 -0.00000000 0.64280000
vn 0.71980000 0.34200000 -0.60400000
vn 0.26200000 -0.93970000 -0.21980000
vn -0.64280000 -0.00000000 -0.76600000
vn 0.64280000 -0.00000000 0.76600000
vn 0.71980000 0.34200000 -0.60400000
vn 0.26200000 -0.93970000 -0.21980000
vn 0.26200000 -0.93970000 -0.21980000
vn 0.64280000 -0.00000000 0.76600000
vn -0.71980000 -0.34200000 0.60400000
vn 0.26200000 -0.93970000 -0.21980000
vn -0.71980000 -0.34200000 0.60400000
vn -0.64280000 -0.00000000 -0.76600000
vn -0.26200000 0.93970000 0.21980000
vn 0.71980000 0.34200000 -0.60400000
vn -0.64280000 -0.00000000 -0.76600000
vn -0.64280000 -0.00000000 -0.76600000
vn -0.26200000 0.93970000 0.21980000
vn -0.71990000 -0.34200000 0.60400000
vn -0.26200000 0.93970000 0.21980000
vn 0.64280000 -0.00000000 0.76600000
vn -0.71980000 -0.34200000 0.60400000
vn 0.64280000 -0.00000000 0.76600000
vn 0.71980000 0.34200000 -0.60400000
vn -0.26200000 0.93970000 0.21980000
vn -0.00000000 -1.00000000 -0.00000000
vn -0.64280000 -0.00000000 -0.76600000
vn 0.76600000 -0.00000000 -0.64280000
vn 0.64280000 -0.00000000 0.76610000
vn -0.00000000 -1.00000000 -0.00000000
vn 0.76600000 -0.00000000 -0.64280000
vn 0.64280000 -0.00000000 0.76610000
vn -0.76600000 -0.00000000 0.64280000
vn -0.00000000 -1.00000000 -0.00000000
vn -0.76600000 -0.00000000 0.64280000
vn -0.64280000 -0.00000000 -0.76600000
vn -0.00000000 -1.00000000 -0.00000000
vn -0.64280000 -0.00000000 -0.76600000
vn -0.00000000 1.00000000 -0.00000000
vn 0.76600000 -0.00000000 -0.64280000
vn -0.76600000 -0.00000000 0.64280000
vn -0.64280000 -0.00000000 -0.76600000
vn -0.00000000 1.00000000 -0.00000000
vn -0.76600000 -0.00000000 0.64280000
vn -0.00000000 1.00000000 -0.00000000
vn 0.64280000 -0.00000000 0.76610000
vn 0.64280000 -0.00000000 0.76610000
vn 0.76600000 -0.00000000 -0.64280000
vn -0.00000000 1.00000000 -0.00000000
vn -0.64280000 -0.00000000 -0.76600000
vn 0.76610000 -0.00000000 -0.64280000
vn -0.00000000 -1.00000000 -0.00000000
vn -0.00000000 -1.00000000 -0.00000000
vn 0.76610000 -0.00000000 -0.64280000
vn 0.64280000 -0.00000000 0.76600000
vn -0.00000000 -1.00000000 -0.00000000
vn 0.64280000 -0.00000000 0.76600000
vn -0.76610000 -0.00000000 0.64280000
vn -0.76610000 -0.00000000 0.64280000
vn -0.64280000 -0.00000000 -0.76600000
vn -0.00000000 -1.00000000 -0.00000000
vn 0.76610000 -0.00000000 -0.64280000
vn -0.64280000 -0.00000000 -0.76600000
vn -0.00000000 1.00000000 -0.00000000
vn -0.64280000 -0.00000000 -0.76600000
vn -0.76610000 -0.00000000 0.64280000
vn -0.00000000 1.00000000 -0.00000000
vn 0.64280000 -0.00000000 0.76600000
vn -0.00000000 1.00000000 -0.00000000
vn -0.76610000 -0.00000000 0.64280000
vn -0.00000000 1.00000000 -0.00000000
vn 0.76610000 -0.00000000 -0.64280000
vn 0.64280000 -0.00000000 0.76600000
vn 0.76600000 -0.00000000 -0.64280000
vn -0.64280000 -0.00000000 -0.76600000
vn -0.00000000 -1.00000000 -0.00000000
vn -0.00000000 -1.00000000 -0.00000000
vn 0.64280000 -0.00000000 0.76600000
vn 0.76600000 -0.00000000 -0.64280000
vn 0.64280000 -0.00000000 0.76600000
vn -0.00000000 -1.00000000 -0.00000000
vn -0.64280000 -0.00000000 -0.76600000
vn -0.00000000 -1.00000000 -0.00000000
vn 0.64280000 -0.00000000 0.76600000
vn -0.76600000 -0.00000000 0.64280000
vn -0.00000000 1.00000000 -0.00000000
vn 0.64280000 -0.00000000 0.76600000
vn -0.00000000 1.00000000 -0.00000000
vn 0.76600000 -0.00000000 -0.64280000
vn -0.64280000 -0.00000000 -0.76600000
vn -0.00000000 1.00000000 -0.00000000
vn 0.76600000 -0.00000000 -0.64280000
vn -0.00000000 1.00000000 -0.00000000
vn -0.76600000 -0.00000000 0.64280000
vn -0.64280000 -0.00000000 -0.76600000
vn -0.64280000 -0.00000000 -0.76600000
vn -0.00000000 1.00000000 -0.00000000
vn -0.00000000 1.00000000 -0.00000000
vn -0.64280000 -0.00000000 -0.76600000
vn -0.00000000 1.00000000 -0.00000000
vn -0.00000000 1.00000000 -0.00000000
vn 0.76600000 -0.00000000 -0.64280000
vn -0.00000000 1.00000000 -0.00000000
vn -0.00000000 1.00000000 -0.00000000
vn 0.76600000 -0.00000000 -0.64280000
vn 0.64280000 -0.00000000 0.76600000
vn 0.64280000 -0.00000000 0.76600000
vn -0.00000000 1.00000000 -0.00000000
vn -0.00000000 1.00000000 -0.00000000
vn 0.64280000 -0.00000000 0.76600000
vn 0.76600000 -0.00000000 -0.64280000
vn -0.00000000 1.00000000 -0.00000000
vn -0.00000000 1.00000000 -0.00000000
vn -0.00000000 1.00000000 -0.00000000
vn -0.00000000 1.00000000 -0.00000000
vn -0.76600000 -0.00000000 0.64280000
vn 0.64280000 -0.00000000 0.76600000
vn -0.00000000 1.00000000 -0.00000000
vn -0.64280000 -0.00000000 -0.76600000
vn 0.76600000 -0.00000000 -0.64280000
vn -0.00000000 1.00000000 -0.00000000
vn -0.64280000 -0.00000000 -0.76600000
vn -0.00000000 1.00000000 -0.00000000
vn -0.00000000 1.00000000 -0.00000000
vn -0.76600000 -0.00000000 0.64280000
vt 0.61300000 0.47400000
vt 0.52750000 0.33090000
vt 0.31230000 0.79740000
vt 0.61300000 0.63570000
vt 0.31230000 0.95920000
vt 0.31230000 0.63570000
vt 0.61300000 0.63570000
vt 0.00200000 0.33090000
vt 0.31230000 0.47400000
vt 0.61300000 0.79740000
vt 0.50060000 0.79740000
vt 0.52750000 0.00200000
vt 0.50060000 0.95920000
vt 0.80130000 0.63570000
vt 0.00200000 0.00200000
vt 0.80130000 0.79740000
vt 0.89310000 0.91390000
vt 0.83490000 0.30900000
vt 0.81210000 0.91390000
vt 0.69060000 0.91390000
vt 0.88230000 0.78120000
vt 0.71340000 0.30900000
vt 0.69060000 0.88160000
vt 0.88230000 0.74900000
vt 0.23870000 0.98040000
vt 0.81210000 0.88160000
vt 0.89310000 0.94610000
vt 0.23870000 0.85890000
vt 0.81210000 0.91390000
vt 0.83490000 0.39000000
vt 0.80130000 0.74900000
vt 0.81210000 0.94610000
vt 0.15760000 0.85890000
vt 0.80130000 0.71670000
vt 0.80130000 0.74900000
vt 0.15760000 0.98040000
vt 0.92280000 0.71670000
vt 0.80130000 0.78120000
vt 0.92280000 0.74900000
vt 0.71340000 0.39000000
vt 0.92280000 0.63570000
vt 0.81210000 0.94610000
vt 0.99270000 0.08860000
vt 0.69060000 0.94610000
vt 0.92820000 0.08860000
vt 0.80130000 0.63570000
vt 0.69060000 0.91390000
vt 0.46570000 0.33090000
vt 0.96040000 0.08860000
vt 0.96040000 0.08860000
vt 0.25330000 0.33090000
vt 0.81210000 0.91390000
vt 0.99270000 0.00760000
vt 0.85230000 0.88150000
vt 0.92280000 0.71670000
vt 0.85230000 0.84930000
vt 0.96040000 0.00760000
vt 0.25330000 0.47250000
vt 0.97380000 0.84930000
vt 0.96040000 0.00760000
vt 0.46570000 0.47250000
vt 0.92820000 0.00760000
vt 0.97380000 0.88150000
vt 0.80130000 0.71670000
vt 0.25330000 0.59810000
vt 0.94850000 0.31000000
vt 0.64540000 0.79740000
vt 0.76940000 0.30770000
vt 0.25330000 0.33090000
vt 0.94850000 0.46290000
vt 0.90380000 0.46290000
vt 0.81550000 0.30610000
vt 0.90950000 0.15620000
vt 0.90380000 0.31000000
vt 0.90950000 0.00330000
vt 0.69140000 0.80080000
vt 0.00470000 0.90360000
vt 0.00200000 0.59810000
vt 0.63450000 0.94540000
vt 0.68050000 0.94870000
vt 0.00470000 0.85890000
vt 0.76570000 0.00330000
vt 0.15760000 0.85890000
vt 0.81050000 0.15790000
vt 0.76570000 0.15620000
vt 0.76440000 0.15950000
vt 0.00200000 0.33090000
vt 0.15760000 0.90360000
vt 0.86160000 0.15790000
vt 0.90770000 0.29190000
vt 0.23610000 0.85710000
vt 0.93570000 0.77230000
vt 0.86160000 0.30610000
vt 0.23610000 0.59810000
vt 0.98190000 0.77230000
vt 0.63450000 0.94560000
vt 0.81550000 0.30610000
vt 0.63450000 0.79740000
vt 0.86160000 0.29190000
vt 0.81550000 0.15790000
vt 0.90770000 0.15790000
vt 0.00940000 0.94970000
vt 0.00200000 0.85710000
vt 0.50060000 0.79740000
vt 0.86160000 0.15790000
vt 0.00940000 0.90360000
vt 0.50060000 0.94560000
vt 0.15760000 0.90360000
vt 0.98190000 0.63840000
vt 0.93570000 0.63840000
vt 0.00200000 0.59810000
vt 0.15760000 0.94970000
vt 0.99460000 0.44400000
vt 0.76160000 0.26100000
vt 0.99500000 0.15480000
vt 0.99500000 0.30300000
vt 0.76160000 0.00200000
vt 0.94850000 0.57790000
vt 0.94890000 0.30300000
vt 0.99460000 0.57790000
vt 0.66410000 0.41210000
vt 0.66410000 0.26380000
vt 0.94850000 0.44400000
vt 0.94890000 0.15480000
vt 0.52750000 0.26100000
vt 0.99460000 0.31000000
vt 0.71020000 0.41210000
vt 0.94850000 0.31000000
vt 0.53010000 0.26380000
vt 0.66410000 0.41210000
vt 0.99460000 0.44400000
vt 0.66410000 0.26380000
vt 0.53010000 0.41210000
vt 0.71020000 0.26380000
vt 0.52750000 0.00200000
vt 0.94850000 0.44400000
vt 0.30980000 0.99800000
vt 0.85230000 0.88160000
vt 0.31230000 0.63570000
vt 0.61300000 0.63570000
vt 0.71340000 0.42240000
vt 0.30980000 0.47250000
vt 0.87510000 0.42240000
vt 0.61300000 0.79740000
vt 0.69060000 0.88160000
vt 0.31230000 0.79740000
vt 0.96520000 0.88160000
vt 0.69140000 0.82230000
vt 0.90510000 0.47400000
vt 0.81210000 0.88160000
vt 0.90510000 0.62710000
vt 0.98350000 0.79740000
vt 0.71340000 0.44720000
vt 0.61300000 0.62710000
vt 0.69140000 0.79740000
vt 0.61300000 0.47400000
vt 0.98350000 0.82230000
vt 0.86650000 0.44720000
vt 0.69060000 0.84930000
vt 0.92390000 0.30830000
vt 0.81210000 0.91080000
vt 0.85230000 0.84930000
vt 0.92390000 0.30830000
vt 0.97380000 0.91080000
vt 0.25330000 0.99800000
vt 0.77480000 0.62710000
vt 0.92390000 0.00760000
vt 0.25330000 0.47250000
vt 0.71340000 0.39000000
vt 0.87510000 0.39000000
vt 0.61300000 0.62710000
vt 0.92390000 0.00760000
vt 0.81210000 0.90650000
vt 0.98350000 0.82230000
vt 0.81640000 0.90650000
vt 0.92820000 0.30400000
vt 0.96950000 0.90650000
vt 0.91960000 0.30400000
vt 0.69140000 0.84710000
vt 0.96520000 0.90650000
vt 0.61740000 0.63140000
vt 0.71340000 0.42240000
vt 0.69140000 0.82230000
vt 0.92820000 0.01190000
vt 0.86650000 0.42240000
vt 0.77050000 0.63140000
vt 0.91960000 0.01190000
vt 0.98350000 0.84710000
f 1/1/1 4/4/4 6/6/6
f 6/6/6 9/9/9 1/1/1
f 11/11/11 13/13/13 5/5/5
f 5/5/5 3/3/3 11/11/11
f 14/14/14 16/16/16 10/10/10
f 10/10/10 7/7/7 14/14/14
f 15/15/15 12/12/12 2/2/2
f 2/2/2 8/8/8 15/15/15
f 19/19/19 20/20/20 23/23/23
f 23/23/23 26/26/26 19/19/19
f 31/31/31 34/34/34 37/37/37
f 37/37/37 39/39/39 31/31/31
f 38/38/38 35/35/35 24/24/24
f 24/24/24 21/21/21 38/38/38
f 30/30/30 40/40/40 22/22/22
f 22/22/22 18/18/18 30/30/30
f 32/32/32 29/29/29 17/17/17
f 17/17/17 27/27/27 32/32/32
f 36/36/36 33/33/33 28/28/28
f 28/28/28 25/25/25 36/36/36
f 42/42/42 44/44/44 47/47/47
f 47/47/47 52/52/52 42/42/42
f 54/54/54 56/56/56 59/59/59
f 59/59/59 63/63/63 54/54/54
f 62/62/62 60/60/60 49/49/49
f 49/49/49 45/45/45 62/62/62
f 55/55/55 64/64/64 46/46/46
f 46/46/46 41/41/41 55/55/55
f 57/57/57 53/53/53 43/43/43
f 43/43/43 50/50/50 57/57/57
f 61/61/61 58/58/58 51/51/51
f 51/51/51 48/48/48 61/61/61
f 66/66/66 70/70/70 71/71/71
f 71/71/71 74/74/74 66/66/66
f 77/77/77 81/81/81 83/83/83
f 83/83/83 88/88/88 77/77/77
f 67/67/67 76/76/76 80/80/80
f 80/80/80 79/79/79 67/67/67
f 75/75/75 73/73/73 85/85/85
f 85/85/85 82/82/82 75/75/75
f 72/72/72 68/68/68 86/86/86
f 86/86/86 84/84/84 72/72/72
f 69/69/69 65/65/65 78/78/78
f 78/78/78 87/87/87 69/69/69
f 89/89/89 93/93/93 97/97/97
f 97/97/97 100/100/100 89/89/89
f 102/102/102 106/106/106 108/108/108
f 108/108/108 112/112/112 102/102/102
f 90/90/90 99/99/99 105/105/105
f 105/105/105 101/101/101 90/90/90
f 98/98/98 96/96/96 107/107/107
f 107/107/107 104/104/104 98/98/98
f 95/95/95 92/92/92 110/110/110
f 110/110/110 109/109/109 95/95/95
f 94/94/94 91/91/91 103/103/103
f 103/103/103 111/111/111 94/94/94
f 115/115/115 116/116/116 119/119/119
f 119/119/119 124/124/124 115/115/115
f 127/127/127 130/130/130 132/132/132
f 132/132/132 134/134/134 127/127/127
f 113/113/113 123/123/123 128/128/128
f 128/128/128 126/126/126 113/113/113
f 122/122/122 121/121/121 133/133/133
f 133/133/133 129/129/129 122/122/122
f 120/120/120 118/118/118 136/136/136
f 136/136/136 131/131/131 120/120/120
f 117/117/117 114/114/114 125/125/125
f 125/125/125 135/135/135 117/117/117
f 139/139/139 140/140/140 144/144/144
f 144/144/144 146/146/146 139/139/139
f 149/149/149 151/151/151 154/154/154
f 154/154/154 156/156/156 149/149/149
f 138/138/138 145/145/145 159/159/159
f 159/159/159 162/162/162 138/138/138
f 143/143/143 141/141/141 169/169/169
f 169/169/169 170/170/170 143/143/143
f 142/142/142 137/137/137 165/165/165
f 165/165/165 168/168/168 142/142/142
f 164/164/164 161/161/161 175/175/175
f 175/175/175 177/177/177 164/164/164
f 160/160/160 172/172/172 184/184/184
f 184/184/184 176/176/176 160/160/160
f 171/171/171 166/166/166 186/186/186
f 186/186/186 181/181/181 171/171/171
f 167/167/167 163/163/163 178/178/178
f 178/178/178 187/187/187 167/167/167
f 180/180/180 173/173/173 150/150/150
f 150/150/150 147/147/147 180/180/180
f 174/174/174 183/183/183 155/155/155
f 155/155/155 152/152/152 174/174/174
f 182/182/182 185/185/185 158/158/158
f 158/158/158 153/153/153 182/182/182
f 188/188/188 179/179/179 148/148/148
f 148/148/148 157/157/157 188/188/188

