mtllib material.mtl
usemtl material_0
v -50.96012900 -17.89617300 114.26530500
v -50.96012900 -17.89617300 114.26530500
v -50.96012900 -17.89617300 114.26530500
v -50.96012900 -17.89617300 114.26530500
v -50.96012900 -17.89617300 114.26530500
v -50.96012900 -17.89617000 176.76586900
v -50.96012900 -17.89617000 176.76586900
v -50.96012900 88.65958400 176.76586900
v -50.96012900 88.65957600 114.26529700
v -50.96012900 88.65957600 114.26529700
v -50.96012900 88.65957600 114.26529700
v -50.96012900 88.65957600 114.26529700
v -50.96012900 88.65957600 114.26529700
v -50.96012900 88.65957600 114.26529700
v -4.86292200 -17.89617300 114.26530500
v -4.86292200 -17.89617300 114.26530500
v -4.86292200 -17.89617300 114.26530500
v -4.86292200 -17.89617300 114.26530500
v -48.30550000 -15.14541900 114.26530500
v -48.30550000 -15.14541900 114.26530500
v -48.30550000 -15.14541900 114.26530500
v -48.30550000 -15.14541900 114.26530500
v -7.51754800 -15.14541900 114.26530500
v -7.51754800 -15.14541900 114.26530500
v -7.51754800 -15.14541900 114.26530500
v -7.51754800 -15.14541900 114.26530500
v -48.30550000 85.90882100 114.26529700
v -48.30550000 85.90882100 114.26529700
v -48.30550000 85.90882100 114.26529700
v -48.30550000 85.90882100 114.26529700
v -4.86292200 88.65957600 114.26529700
v -4.86292200 88.65957600 114.26529700
v -4.86292200 88.65957600 114.26529700
v -4.86292200 88.65957600 114.26529700
v -7.51754800 85.90882100 114.26529700
v -7.51754800 85.90882100 114.26529700
v -7.51754800 85.90882100 114.26529700
v -7.51754800 85.90882100 114.26529700
v -48.30550000 -15.14541900 119.40937800
v -48.30550000 -15.14541900 119.40937800
v -7.51754800 -15.14541900 119.40937800
v -7.51754800 -15.14541900 119.40937800
v -48.30550000 85.90882100 119.40937000
v -48.30550000 85.90882100 119.40937000
v -7.51754800 85.90882100 119.40937000
v -7.51754800 85.90882100 119.40937000
v -189.77362100 88.65957600 127.45910600
v -189.77362100 88.65957600 127.45910600
v -189.77362100 88.65957600 127.45910600
v -189.77362100 88.65957600 114.26529700
v -189.77362100 88.65957600 114.26529700
v -189.77362100 88.65957600 114.26529700
v -51.62891800 88.65957600 114.26529700
v -51.62891800 88.65957600 114.26529700
v -51.62891800 88.65957600 114.26529700
v -51.62891800 88.65957600 127.45910600
v -51.62891800 88.65957600 127.45910600
v -51.62891800 88.65957600 127.45910600
v -189.77362100 93.06876400 127.45910600
v -189.77362100 93.06876400 127.45910600
v -189.77362100 93.06876400 127.45910600
v -51.62891800 93.06876400 127.45910600
v -51.62891800 93.06876400 127.45910600
v -51.62891800 93.06876400 127.45910600
v -51.62891800 93.06876400 114.26529700
v -51.62891800 93.06876400 114.26529700
v -51.62891800 93.06876400 114.26529700
v -189.77362100 93.06876400 114.26529700
v -189.77362100 93.06876400 114.26529700
v -189.77362100 93.06876400 114.26529700
v -51.55556100 -32.59349100 176.76586900
v -51.55556100 -32.59349400 114.26530500
v -51.55556100 -32.59349400 114.26530500
v -51.55556100 -17.89617300 114.26530500
v -51.55556100 -17.89617300 114.26530500
v -51.55556100 -17.89617300 114.26530500
v -51.55556100 -17.89617300 114.26530500
v -51.55556100 -17.89617300 114.26530500
v -51.55556100 -17.89617000 176.76586900
v -51.55556100 -17.89617000 176.76586900
v -189.70027200 -32.59349400 114.26530500
v -189.70027200 -32.59349400 114.26530500
v -189.70027200 -17.89617300 114.26530500
v -189.70027200 -17.89617300 114.26530500
v -189.70027200 -17.89617300 114.26530500
v -189.70027200 -17.89617300 114.26530500
v -189.70027200 -17.89617300 114.26530500
v -189.70027200 -32.59349100 176.76586900
v -189.70027200 -17.89617000 176.76586900
v -189.70027200 -17.89617000 176.76586900
v -189.70027200 88.65958400 176.76586900
v -189.70027200 88.65957600 114.26529700
v -189.70027200 88.65957600 114.26529700
v -189.70027200 88.65957600 114.26529700
v -143.65196200 -17.89617300 114.26530500
v -143.65196200 -17.89617300 114.26530500
v -186.87167400 -14.96193900 114.26530500
v -186.87167400 -14.96193900 114.26530500
v -186.87167400 -14.96193900 114.26530500
v -186.87167400 -14.96193900 114.26530500
v -146.48056000 -14.96193900 114.26530500
v -146.48056000 -14.96193900 114.26530500
v -146.48056000 -14.96193900 114.26530500
v -146.48056000 -14.96193900 114.26530500
v -186.87167400 85.72551700 114.26529700
v -186.87167400 85.72551700 114.26529700
v -186.87167400 85.72551700 114.26529700
v -186.87167400 85.72551700 114.26529700
v -143.65196200 88.65957600 114.26529700
v -143.65196200 88.65957600 114.26529700
v -146.48056000 85.72551700 114.26529700
v -146.48056000 85.72551700 114.26529700
v -146.48056000 85.72551700 114.26529700
v -146.48056000 85.72551700 114.26529700
v -186.87167400 -14.96193900 119.40937800
v -186.87167400 -14.96193900 119.40937800
v -146.48056000 -14.96193900 119.40937800
v -146.48056000 -14.96193900 119.40937800
v -186.87167400 85.72551700 119.40937000
v -186.87167400 85.72551700 119.40937000
v -146.48056000 85.72551700 119.40937000
v -146.48056000 85.72551700 119.40937000
v -97.60386700 -17.89617300 114.26530500
v -97.60386700 -17.89617300 114.26530500
v -97.60386700 -17.89617300 114.26530500
v -97.60386700 -17.89617300 114.26530500
v -143.65214500 -17.89617300 114.26530500
v -143.65214500 -17.89617300 114.26530500
v -140.96205100 -15.56875800 114.26530500
v -140.96205100 -15.56875800 114.26530500
v -140.96205100 -15.56875800 114.26530500
v -140.96205100 -15.56875800 114.26530500
v -100.29377000 -15.56875800 114.26530500
v -100.29377000 -15.56875800 114.26530500
v -100.29377000 -15.56875800 114.26530500
v -100.29377000 -15.56875800 114.26530500
v -143.65214500 88.65957600 114.26529700
v -143.65214500 88.65957600 114.26529700
v -140.96205100 86.33233600 114.26529700
v -140.96205100 86.33233600 114.26529700
v -140.96205100 86.33233600 114.26529700
v -140.96205100 86.33233600 114.26529700
v -97.60386700 88.65957600 114.26529700
v -97.60386700 88.65957600 114.26529700
v -97.60386700 88.65957600 114.26529700
v -97.60386700 88.65957600 114.26529700
v -100.29377000 86.33233600 114.26529700
v -100.29377000 86.33233600 114.26529700
v -100.29377000 86.33233600 114.26529700
v -100.29377000 86.33233600 114.26529700
v -140.96205100 -15.56875800 119.40937800
v -140.96205100 -15.56875800 119.40937800
v -100.29377000 -15.56875800 119.40937800
v -100.29377000 -15.56875800 119.40937800
v -140.96205100 86.33233600 119.40937000
v -140.96205100 86.33233600 119.40937000
v -100.29377000 86.33233600 119.40937000
v -100.29377000 86.33233600 119.40937000
v -51.55556100 88.65957600 114.26529700
v -51.55556100 88.65957600 114.26529700
v -51.55556100 88.65957600 114.26529700
v -51.55556100 88.65958400 176.76586900
v -94.42156200 -14.59515700 114.26530500
v -94.42156200 -14.59515700 114.26530500
v -94.42156200 -14.59515700 114.26530500
v -94.42156200 -14.59515700 114.26530500
v -54.73786200 -14.59515700 114.26530500
v -54.73786200 -14.59515700 114.26530500
v -54.73786200 -14.59515700 114.26530500
v -54.73786200 -14.59515700 114.26530500
v -94.42156200 85.35874200 114.26529700
v -94.42156200 85.35874200 114.26529700
v -94.42156200 85.35874200 114.26529700
v -94.42156200 85.35874200 114.26529700
v -54.73786200 85.35874200 114.26529700
v -54.73786200 85.35874200 114.26529700
v -54.73786200 85.35874200 114.26529700
v -54.73786200 85.35874200 114.26529700
v -94.42156200 -14.59515700 119.40937800
v -94.42156200 -14.59515700 119.40937800
v -54.73786200 -14.59515700 119.40937800
v -54.73786200 -14.59515700 119.40937800
v -94.42156200 85.35874200 119.40937000
v -94.42156200 85.35874200 119.40937000
v -54.73786200 85.35874200 119.40937000
v -54.73786200 85.35874200 119.40937000
v 87.33129900 -32.59349100 176.76586900
v 87.33129900 -32.59349400 114.26530500
v 87.33129900 -32.59349400 114.26530500
v 87.33129900 -17.89617300 114.26530500
v 87.33129900 -17.89617300 114.26530500
v 87.33129900 -17.89617300 114.26530500
v 87.33129900 -17.89617300 114.26530500
v 87.33129900 -17.89617300 114.26530500
v 87.33129900 -17.89617000 176.76586900
v 87.33129900 -17.89617000 176.76586900
v -50.96012900 -32.59349400 114.26530500
v -50.96012900 -32.59349400 114.26530500
v -50.96012900 -32.59349100 176.76586900
v 87.33129900 88.65957600 114.26529700
v 87.33129900 88.65957600 114.26529700
v 87.33129900 88.65957600 114.26529700
v 87.33129900 88.65957600 114.26529700
v 87.33129900 88.65957600 114.26529700
v 87.33129900 88.65957600 114.26529700
v 87.33129900 88.65958400 176.76586900
v 41.23428300 -17.89617300 114.26530500
v 41.23428300 -17.89617300 114.26530500
v 41.23428300 -17.89617300 114.26530500
v 41.23428300 -17.89617300 114.26530500
v 44.22992700 -14.79208200 114.26530500
v 44.22992700 -14.79208200 114.26530500
v 44.22992700 -14.79208200 114.26530500
v 44.22992700 -14.79208200 114.26530500
v 84.33564800 -14.79208200 114.26530500
v 84.33564800 -14.79208200 114.26530500
v 84.33564800 -14.79208200 114.26530500
v 84.33564800 -14.79208200 114.26530500
v 41.23428300 88.65957600 114.26529700
v 41.23428300 88.65957600 114.26529700
v 41.23428300 88.65957600 114.26529700
v 41.23428300 88.65957600 114.26529700
v 44.22992700 85.55547300 114.26529700
v 44.22992700 85.55547300 114.26529700
v 44.22992700 85.55547300 114.26529700
v 44.22992700 85.55547300 114.26529700
v 84.33564800 85.55547300 114.26529700
v 84.33564800 85.55547300 114.26529700
v 84.33564800 85.55547300 114.26529700
v 84.33564800 85.55547300 114.26529700
v 44.22992700 -14.79208200 119.40937800
v 44.22992700 -14.79208200 119.40937800
v 84.33564800 -14.79208200 119.40937800
v 84.33564800 -14.79208200 119.40937800
v 44.22992700 85.55547300 119.40937000
v 44.22992700 85.55547300 119.40937000
v 84.33564800 85.55547300 119.40937000
v 84.33564800 85.55547300 119.40937000
v -1.85439500 -14.77864100 114.26530500
v -1.85439500 -14.77864100 114.26530500
v -1.85439500 -14.77864100 114.26530500
v -1.85439500 -14.77864100 114.26530500
v 38.22557100 -14.77864100 114.26530500
v 38.22557100 -14.77864100 114.26530500
v 38.22557100 -14.77864100 114.26530500
v 38.22557100 -14.77864100 114.26530500
v -1.85439500 85.54204600 114.26529700
v -1.85439500 85.54204600 114.26529700
v -1.85439500 85.54204600 114.26529700
v -1.85439500 85.54204600 114.26529700
v 38.22557100 85.54204600 114.26529700
v 38.22557100 85.54204600 114.26529700
v 38.22557100 85.54204600 114.26529700
v 38.22557100 85.54204600 114.26529700
v -1.85439500 -14.77864100 119.40937800
v -1.85439500 -14.77864100 119.40937800
v 38.22557100 -14.77864100 119.40937800
v 38.22557100 -14.77864100 119.40937800
v -1.85439500 85.54204600 119.40937000
v -1.85439500 85.54204600 119.40937000
v 38.22557100 85.54204600 119.40937000
v 38.22557100 85.54204600 119.40937000
v -50.96012900 88.65957600 127.45910600
v -50.96012900 88.65957600 127.45910600
v -50.96012900 88.65957600 127.45910600
v 87.33129900 88.65957600 127.45910600
v 87.33129900 88.65957600 127.45910600
v 87.33129900 88.65957600 127.45910600
v -50.96012900 93.06876400 127.45910600
v -50.96012900 93.06876400 127.45910600
v -50.96012900 93.06876400 127.45910600
v 87.33129900 93.06876400 127.45910600
v 87.33129900 93.06876400 127.45910600
v 87.33129900 93.06876400 127.45910600
v 87.33129900 93.06876400 114.26529700
v 87.33129900 93.06876400 114.26529700
v 87.33129900 93.06876400 114.26529700
v -50.96012900 93.06876400 114.26529700
v -50.96012900 93.06876400 114.26529700
v -50.96012900 93.06876400 114.26529700
vn -1.00000000 -0.00000000 -0.00000000
vn -0.00000000 -0.00000000 -1.00000000
vn -1.00000000 -0.00000000 -0.00000000
vn -0.00000000 -0.00000000 -1.00000000
vn -0.00000000 -0.00000000 -1.00000000
vn -1.00000000 -0.00000000 -0.00000000
vn -1.00000000 -0.00000000 -0.00000000
vn -1.00000000 -0.00000000 -0.00000000
vn -0.00000000 -0.00000000 -1.00000000
vn -1.00000000 -0.00000000 -0.00000000
vn -0.00000000 -0.00000000 -1.00000000
vn -0.00000000 -0.00000000 -1.00000000
vn -1.00000000 -0.00000000 -0.00000000
vn -0.00000000 -1.00000000 -0.00000000
vn -0.00000000 -0.00000000 -1.00000000
vn -0.00000000 -0.00000000 -1.00000000
vn -0.00000000 -0.00000000 -1.00000000
vn -0.00000000 -0.00000000 -1.00000000
vn -0.00000000 -0.00000000 -1.00000000
vn -0.00000000 1.00000000 -0.00000000
vn -0.00000000 -0.00000000 -1.00000000
vn 1.00000000 -0.00000000 -0.00000000
vn -1.00000000 -0.00000000 -0.00000000
vn -0.00000000 -0.00000000 -1.00000000
vn -0.00000000 1.00000000 -0.00000000
vn -0.00000000 -0.00000000 -1.00000000
vn -0.00000000 -1.00000000 -0.00000000
vn -0.00000000 -0.00000000 -1.00000000
vn -0.00000000 -0.00000000 -1.00000000
vn 1.00000000 -0.00000000 -0.00000000
vn -0.00000000 -0.00000000 -1.00000000
vn -0.00000000 -0.00000000 -1.00000000
vn -0.00000000 -0.00000000 -1.00000000
vn -0.00000000 -0.00000000 -1.00000000
vn -0.00000000 -0.00000000 -1.00000000
vn -0.00000000 -1.00000000 -0.00000000
vn -1.00000000 -0.00000000 -0.00000000
vn -0.00000000 -0.00000000 -1.00000000
vn -0.00000000 1.00000000 -0.00000000
vn 1.00000000 -0.00000000 -0.00000000
vn -1.00000000 -0.00000000 -0.00000000
vn -0.00000000 1.00000000 -0.00000000
vn -0.00000000 -1.00000000 -0.00000000
vn 1.00000000 -0.00000000 -0.00000000
vn -1.00000000 -0.00000000 -0.00000000
vn -0.00000000 -1.00000000 -0.00000000
vn -0.00000000 -0.00000000 1.00000000
vn -1.00000000 -0.00000000 -0.00000000
vn -0.00000000 -1.00000000 -0.00000000
vn -1.00000000 -0.00000000 -0.00000000
vn -0.00000000 -1.00000000 -0.00000000
vn -0.00000000 -0.00000000 -1.00000000
vn -0.00000000 -1.00000000 -0.00000000
vn 1.00000000 -0.00000000 -0.00000000
vn -0.00000000 -0.00000000 -1.00000000
vn -0.00000000 -0.00000000 1.00000000
vn 1.00000000 -0.00000000 -0.00000000
vn -0.00000000 -1.00000000 -0.00000000
vn -0.00000000 1.00000000 -0.00000000
vn -1.00000000 -0.00000000 -0.00000000
vn -0.00000000 -0.00000000 1.00000000
vn -0.00000000 1.00000000 -0.00000000
vn 1.00000000 -0.00000000 -0.00000000
vn -0.00000000 -0.00000000 1.00000000
vn -0.00000000 1.00000000 -0.00000000
vn 1.00000000 -0.00000000 -0.00000000
vn -0.00000000 -0.00000000 -1.00000000
vn -1.00000000 -0.00000000 -0.00000000
vn -0.00000000 1.00000000 -0.00000000
vn -0.00000000 -0.00000000 -1.00000000
vn 1.00000000 -0.00000000 -0.00000000
vn 1.00000000 -0.00000000 -0.00000000
vn -0.00000000 -0.00000000 -1.00000000
vn 1.00000000 -0.00000000 -0.00000000
vn -0.00000000 -0.00000000 -1.00000000
vn -0.00000000 -0.00000000 -1.00000000
vn 1.00000000 -0.00000000 -0.00000000
vn -0.00000000 -0.00000000 -1.00000000
vn 1.00000000 -0.00000000 -0.00000000
vn 1.00000000 -0.00000000 -0.00000000
vn -1.00000000 -0.00000000 -0.00000000
vn -0.00000000 -0.00000000 -1.00000000
vn -0.00000000 -0.00000000 -1.00000000
vn -1.00000000 -0.00000000 -0.00000000
vn -0.00000000 -0.00000000 -1.00000000
vn -1.00000000 -0.00000000 -0.00000000
vn -0.00000000 -0.00000000 -1.00000000
vn -1.00000000 -0.00000000 -0.00000000
vn -1.00000000 -0.00000000 -0.00000000
vn -1.00000000 -0.00000000 -0.00000000
vn -1.00000000 -0.00000000 -0.00000000
vn -0.00000000 -0.00000000 -1.00000000
vn -1.00000000 -0.00000000 -0.00000000
vn -0.00000000 -0.00000000 -1.00000000
vn -0.00000000 -0.00000000 -1.00000000
vn -0.00000000 -0.00000000 -1.00000000
vn 1.00000000 -0.00000000 -0.00000000
vn -0.00000000 -0.00000000 -1.00000000
vn -0.00000000 1.00000000 -0.00000000
vn -0.00000000 -0.00000000 -1.00000000
vn -0.00000000 1.00000000 -0.00000000
vn -0.00000000 -0.00000000 -1.00000000
vn -1.00000000 -0.00000000 -0.00000000
vn -0.00000000 -0.00000000 -1.00000000
vn -0.00000000 -0.00000000 -1.00000000
vn -0.00000000 -1.00000000 -0.00000000
vn -0.00000000 -0.00000000 -1.00000000
vn 1.00000000 -0.00000000 -0.00000000
vn -0.00000000 -0.00000000 -1.00000000
vn -0.00000000 -0.00000000 -1.00000000
vn -0.00000000 -0.00000000 -1.00000000
vn -0.00000000 -1.00000000 -0.00000000
vn -1.00000000 -0.00000000 -0.00000000
vn -0.00000000 -0.00000000 -1.00000000
vn 1.00000000 -0.00000000 -0.00000000
vn -0.00000000 1.00000000 -0.00000000
vn -0.00000000 1.00000000 -0.00000000
vn -1.00000000 -0.00000000 -0.00000000
vn 1.00000000 -0.00000000 -0.00000000
vn -0.00000000 -1.00000000 -0.00000000
vn -0.00000000 -1.00000000 -0.00000000
vn -1.00000000 -0.00000000 -0.00000000
vn -0.00000000 -0.00000000 -1.00000000
vn -0.00000000 -0.00000000 -1.00000000
vn -0.00000000 -0.00000000 -1.00000000
vn -0.00000000 -0.00000000 -1.00000000
vn -0.00000000 -0.00000000 -1.00000000
vn -0.00000000 -0.00000000 -1.00000000
vn 1.00000000 -0.00000000 -0.00000000
vn -0.00000000 1.00000000 -0.00000000
vn -0.00000000 -0.00000000 -1.00000000
vn -0.00000000 -0.00000000 -1.00000000
vn -1.00000000 -0.00000000 -0.00000000
vn -0.00000000 -0.00000000 -1.00000000
vn -0.00000000 1.00000000 -0.00000000
vn -0.00000000 -0.00000000 -1.00000000
vn -0.00000000 -0.00000000 -1.00000000
vn -0.00000000 -0.00000000 -1.00000000
vn -0.00000000 -1.00000000 -0.00000000
vn 1.00000000 -0.00000000 -0.00000000
vn -0.00000000 -0.00000000 -1.00000000
vn -0.00000000 -0.00000000 -1.00000000
vn -0.00000000 -0.00000000 -1.00000000
vn -0.00000000 -0.00000000 -1.00000000
vn -0.00000000 -0.00000000 -1.00000000
vn -0.00000000 -0.00000000 -1.00000000
vn -0.00000000 -0.00000000 -1.00000000
vn -1.00000000 -0.00000000 -0.00000000
vn -0.00000000 -1.00000000 -0.00000000
vn -0.00000000 -0.00000000 -1.00000000
vn 1.00000000 -0.00000000 -0.00000000
vn -0.00000000 1.00000000 -0.00000000
vn -0.00000000 1.00000000 -0.00000000
vn -1.00000000 -0.00000000 -0.00000000
vn -0.00000000 -1.00000000 -0.00000000
vn 1.00000000 -0.00000000 -0.00000000
vn -0.00000000 -1.00000000 -0.00000000
vn -1.00000000 -0.00000000 -0.00000000
vn -0.00000000 -0.00000000 -1.00000000
vn 1.00000000 -0.00000000 -0.00000000
vn -0.00000000 -0.00000000 -1.00000000
vn 1.00000000 -0.00000000 -0.00000000
vn -0.00000000 1.00000000 -0.00000000
vn -0.00000000 -0.00000000 -1.00000000
vn 1.00000000 -0.00000000 -0.00000000
vn -0.00000000 -0.00000000 -1.00000000
vn -1.00000000 -0.00000000 -0.00000000
vn -0.00000000 -0.00000000 -1.00000000
vn -0.00000000 1.00000000 -0.00000000
vn -0.00000000 -0.00000000 -1.00000000
vn -0.00000000 -0.00000000 -1.00000000
vn 1.00000000 -0.00000000 -0.00000000
vn -0.00000000 -0.00000000 -1.00000000
vn -0.00000000 -1.00000000 -0.00000000
vn -0.00000000 -1.00000000 -0.00000000
vn -0.00000000 -0.00000000 -1.00000000
vn -0.00000000 -0.00000000 -1.00000000
vn -1.00000000 -0.00000000 -0.00000000
vn 1.00000000 -0.00000000 -0.00000000
vn -0.00000000 1.00000000 -0.00000000
vn -0.00000000 1.00000000 -0.00000000
vn -1.00000000 -0.00000000 -0.00000000
vn 1.00000000 -0.00000000 -0.00000000
vn -0.00000000 -1.00000000 -0.00000000
vn -1.00000000 -0.00000000 -0.00000000
vn -0.00000000 -1.00000000 -0.00000000
vn 1.00000000 -0.00000000 -0.00000000
vn 1.00000000 -0.00000000 -0.00000000
vn -0.00000000 -0.00000000 -1.00000000
vn -0.00000000 -0.00000000 -1.00000000
vn 1.00000000 -0.00000000 -0.00000000
vn -0.00000000 -0.00000000 -1.00000000
vn 1.00000000 -0.00000000 -0.00000000
vn -0.00000000 -0.00000000 -1.00000000
vn 1.00000000 -0.00000000 -0.00000000
vn 1.00000000 -0.00000000 -0.00000000
vn -1.00000000 -0.00000000 -0.00000000
vn -0.00000000 -0.00000000 -1.00000000
vn -1.00000000 -0.00000000 -0.00000000
vn -0.00000000 -1.00000000 -0.00000000
vn 1.00000000 -0.00000000 -0.00000000
vn 1.00000000 -0.00000000 -0.00000000
vn -0.00000000 -0.00000000 -1.00000000
vn -0.00000000 -0.00000000 -1.00000000
vn -0.00000000 -0.00000000 -1.00000000
vn 1.00000000 -0.00000000 -0.00000000
vn -0.00000000 -0.00000000 -1.00000000
vn -0.00000000 -0.00000000 -1.00000000
vn -0.00000000 -0.00000000 -1.00000000
vn -0.00000000 -0.00000000 -1.00000000
vn -0.00000000 -0.00000000 -1.00000000
vn -0.00000000 1.00000000 -0.00000000
vn 1.00000000 -0.00000000 -0.00000000
vn -0.00000000 -0.00000000 -1.00000000
vn -0.00000000 1.00000000 -0.00000000
vn -1.00000000 -0.00000000 -0.00000000
vn -0.00000000 -0.00000000 -1.00000000
vn -0.00000000 -0.00000000 -1.00000000
vn -0.00000000 -0.00000000 -1.00000000
vn -0.00000000 -0.00000000 -1.00000000
vn -0.00000000 -0.00000000 -1.00000000
vn -0.00000000 -0.00000000 -1.00000000
vn 1.00000000 -0.00000000 -0.00000000
vn -0.00000000 -0.00000000 -1.00000000
vn -0.00000000 -1.00000000 -0.00000000
vn -0.00000000 -0.00000000 -1.00000000
vn -0.00000000 -0.00000000 -1.00000000
vn -1.00000000 -0.00000000 -0.00000000
vn -0.00000000 -0.00000000 -1.00000000
vn -0.00000000 -1.00000000 -0.00000000
vn 1.00000000 -0.00000000 -0.00000000
vn -0.00000000 1.00000000 -0.00000000
vn -1.00000000 -0.00000000 -0.00000000
vn -0.00000000 1.00000000 -0.00000000
vn 1.00000000 -0.00000000 -0.00000000
vn -0.00000000 -1.00000000 -0.00000000
vn -0.00000000 -1.00000000 -0.00000000
vn -1.00000000 -0.00000000 -0.00000000
vn 1.00000000 -0.00000000 -0.00000000
vn -0.00000000 1.00000000 -0.00000000
vn -0.00000000 -0.00000000 -1.00000000
vn -0.00000000 -0.00000000 -1.00000000
vn -1.00000000 -0.00000000 -0.00000000
vn -0.00000000 1.00000000 -0.00000000
vn -0.00000000 -0.00000000 -1.00000000
vn -0.00000000 -0.00000000 -1.00000000
vn 1.00000000 -0.00000000 -0.00000000
vn -0.00000000 -1.00000000 -0.00000000
vn -0.00000000 -0.00000000 -1.00000000
vn -0.00000000 -0.00000000 -1.00000000
vn -1.00000000 -0.00000000 -0.00000000
vn -0.00000000 -1.00000000 -0.00000000
vn -0.00000000 -0.00000000 -1.00000000
vn -0.00000000 -0.00000000 -1.00000000
vn 1.00000000 -0.00000000 -0.00000000
vn -0.00000000 1.00000000 -0.00000000
vn -0.00000000 1.00000000 -0.00000000
vn -1.00000000 -0.00000000 -0.00000000
vn -0.00000000 -1.00000000 -0.00000000
vn 1.00000000 -0.00000000 -0.00000000
vn -1.00000000 -0.00000000 -0.00000000
vn -0.00000000 -1.00000000 -0.00000000
vn -0.00000000 -0.00000000 1.00000000
vn -0.00000000 -1.00000000 -0.00000000
vn -1.00000000 -0.00000000 -0.00000000
vn -0.00000000 -1.00000000 -0.00000000
vn 1.00000000 -0.00000000 -0.00000000
vn -0.00000000 -0.00000000 1.00000000
vn -1.00000000 -0.00000000 -0.00000000
vn -0.00000000 1.00000000 -0.00000000
vn -0.00000000 -0.00000000 1.00000000
vn -0.00000000 1.00000000 -0.00000000
vn 1.00000000 -0.00000000 -0.00000000
vn -0.00000000 -0.00000000 1.00000000
vn -0.00000000 -0.00000000 -1.00000000
vn 1.00000000 -0.00000000 -0.00000000
vn -0.00000000 1.00000000 -0.00000000
vn -0.00000000 -0.00000000 -1.00000000
vn -0.00000000 1.00000000 -0.00000000
vn -1.00000000 -0.00000000 -0.00000000
vt 0.89080000 0.49370000
vt 0.99800000 0.10420000
vt 0.01560000 0.97720000
vt 0.00200000 0.49850000
vt 0.66560000 0.55970000
vt 0.14660000 0.97720000
vt 0.75980000 0.49370000
vt 0.75980000 0.27040000
vt 0.00200000 0.60560000
vt 0.65700000 0.90400000
vt 0.99800000 0.20630000
vt 0.74260000 0.49850000
vt 0.89080000 0.27040000
vt 0.36610000 0.66720000
vt 0.00200000 0.58520000
vt 0.74260000 0.33510000
vt 0.99760000 0.55970000
vt 0.00200000 0.49850000
vt 0.68480000 0.54060000
vt 0.16530000 0.98190000
vt 0.02110000 0.51770000
vt 0.90950000 0.48450000
vt 0.90950000 0.48450000
vt 0.97850000 0.54060000
vt 0.25390000 0.98190000
vt 0.02110000 0.47940000
vt 0.16530000 0.96030000
vt 0.72350000 0.51770000
vt 0.02110000 0.62470000
vt 0.90950000 0.27280000
vt 0.33400000 0.60560000
vt 0.74260000 0.49850000
vt 0.33360000 0.51770000
vt 0.00200000 0.33510000
vt 0.31490000 0.62470000
vt 0.25390000 0.96030000
vt 0.90950000 0.27280000
vt 0.72350000 0.47940000
vt 0.16530000 0.97110000
vt 0.92030000 0.48450000
vt 0.89870000 0.48450000
vt 0.25390000 0.97110000
vt 0.16530000 0.97110000
vt 0.92030000 0.27280000
vt 0.89870000 0.27280000
vt 0.25390000 0.97110000
vt 0.36610000 0.87670000
vt 0.69470000 0.88930000
vt 0.36610000 0.78020000
vt 0.65700000 0.88930000
vt 0.36610000 0.74250000
vt 0.99690000 0.23700000
vt 0.77470000 0.74250000
vt 0.77830000 0.91870000
vt 0.00200000 0.23700000
vt 0.77470000 0.87670000
vt 0.74060000 0.91870000
vt 0.77470000 0.78020000
vt 0.36610000 0.70490000
vt 0.69470000 0.90190000
vt 0.36610000 0.88930000
vt 0.77470000 0.70490000
vt 0.74060000 0.93130000
vt 0.77470000 0.88930000
vt 0.77470000 0.74250000
vt 0.77830000 0.93130000
vt 0.00200000 0.26760000
vt 0.65700000 0.90190000
vt 0.36610000 0.74250000
vt 0.99690000 0.26760000
vt 0.36610000 0.82220000
vt 0.54450000 0.82220000
vt 0.00200000 0.10420000
vt 0.78360000 0.89080000
vt 0.00200000 0.20630000
vt 0.00200000 0.31340000
vt 0.54450000 0.86410000
vt 0.33360000 0.56350000
vt 0.96200000 0.89080000
vt 0.36610000 0.86410000
vt 0.36610000 0.78020000
vt 0.99690000 0.10420000
vt 0.33400000 0.58390000
vt 0.36610000 0.93370000
vt 0.99690000 0.20630000
vt 0.36610000 0.82220000
vt 0.00200000 0.42030000
vt 0.54450000 0.78020000
vt 0.54450000 0.82220000
vt 0.18760000 0.93370000
vt 0.18760000 0.62950000
vt 0.74260000 0.42030000
vt 0.36610000 0.62950000
vt 0.00200000 0.58520000
vt 0.66560000 0.58390000
vt 0.00200000 0.42030000
vt 0.93100000 0.48380000
vt 0.35440000 0.56350000
vt 0.26710000 0.97030000
vt 0.02240000 0.44070000
vt 0.35480000 0.97030000
vt 0.02240000 0.39990000
vt 0.93100000 0.48380000
vt 0.64530000 0.56350000
vt 0.72220000 0.44070000
vt 0.26710000 0.94870000
vt 0.02240000 0.60560000
vt 0.93100000 0.27280000
vt 0.33360000 0.58520000
vt 0.74260000 0.42030000
vt 0.31330000 0.60560000
vt 0.35480000 0.94870000
vt 0.93100000 0.27280000
vt 0.72220000 0.39990000
vt 0.94180000 0.48380000
vt 0.26710000 0.95950000
vt 0.35480000 0.95950000
vt 0.92030000 0.48380000
vt 0.94180000 0.27280000
vt 0.26710000 0.95950000
vt 0.35480000 0.95950000
vt 0.92030000 0.27280000
vt 0.00200000 0.56350000
vt 0.00200000 0.26760000
vt 0.74260000 0.46000000
vt 0.99730000 0.57970000
vt 0.74260000 0.46000000
vt 0.66560000 0.57970000
vt 0.65700000 0.90400000
vt 0.90390000 0.93270000
vt 0.72640000 0.44070000
vt 0.68500000 0.56350000
vt 0.65700000 0.90400000
vt 0.72640000 0.47940000
vt 0.78360000 0.93270000
vt 0.97790000 0.56350000
vt 0.00200000 0.46000000
vt 0.33360000 0.58520000
vt 0.10390000 0.98800000
vt 0.36610000 0.90400000
vt 0.01820000 0.44070000
vt 0.35300000 0.60140000
vt 0.00200000 0.46000000
vt 0.66530000 0.58520000
vt 0.74260000 0.26760000
vt 0.00200000 0.51770000
vt 0.64590000 0.60140000
vt 0.36610000 0.90400000
vt 0.01560000 0.98800000
vt 0.01820000 0.47940000
vt 0.65700000 0.88930000
vt 0.90390000 0.94740000
vt 0.78360000 0.94740000
vt 0.65700000 0.91870000
vt 0.10390000 0.97720000
vt 0.36610000 0.88930000
vt 0.01560000 0.97720000
vt 0.36610000 0.91870000
vt 0.74260000 0.31340000
vt 0.78360000 0.58650000
vt 0.33360000 0.51770000
vt 0.96200000 0.58650000
vt 0.16840000 0.99260000
vt 0.02490000 0.54060000
vt 0.97410000 0.50380000
vt 0.02490000 0.29050000
vt 0.97410000 0.50380000
vt 0.31070000 0.54060000
vt 0.25460000 0.99260000
vt 0.02490000 0.29050000
vt 0.02490000 0.54060000
vt 0.97410000 0.29440000
vt 0.71970000 0.29050000
vt 0.98490000 0.38050000
vt 0.98490000 0.29440000
vt 0.31070000 0.54060000
vt 0.71970000 0.29050000
vt 0.97410000 0.29440000
vt 0.98490000 0.50380000
vt 0.16840000 0.98190000
vt 0.25460000 0.98190000
vt 0.96340000 0.50380000
vt 0.98490000 0.29440000
vt 0.99570000 0.38050000
vt 0.96340000 0.29440000
vt 0.99570000 0.29440000
vt 0.78360000 0.89080000
vt 0.96200000 0.89080000
vt 0.00200000 0.00200000
vt 0.99760000 0.53920000
vt 0.00920000 0.93370000
vt 0.00200000 0.10420000
vt 0.96200000 0.93270000
vt 0.00200000 0.37830000
vt 0.18760000 0.93370000
vt 0.78360000 0.93270000
vt 0.01560000 0.94640000
vt 0.99800000 0.00200000
vt 0.14660000 0.94640000
vt 0.77520000 0.66720000
vt 0.00920000 0.62950000
vt 0.77830000 0.93340000
vt 0.66560000 0.54060000
vt 0.00200000 0.20630000
vt 0.74260000 0.37830000
vt 0.18760000 0.62950000
vt 0.33400000 0.58520000
vt 0.74260000 0.33510000
vt 0.00200000 0.37830000
vt 0.66560000 0.53920000
vt 0.68720000 0.51770000
vt 0.16600000 0.94950000
vt 0.95260000 0.48300000
vt 0.02360000 0.39990000
vt 0.25310000 0.94950000
vt 0.95260000 0.48300000
vt 0.97610000 0.51770000
vt 0.02360000 0.35680000
vt 0.66560000 0.51770000
vt 0.00200000 0.33510000
vt 0.33360000 0.54060000
vt 0.74260000 0.37830000
vt 0.95260000 0.27280000
vt 0.72100000 0.39990000
vt 0.16600000 0.94950000
vt 0.35520000 0.56220000
vt 0.72100000 0.35680000
vt 0.95260000 0.27280000
vt 0.64410000 0.56220000
vt 0.25310000 0.94950000
vt 0.96340000 0.48300000
vt 0.16600000 0.93880000
vt 0.94180000 0.48300000
vt 0.25310000 0.93880000
vt 0.96340000 0.27280000
vt 0.16600000 0.96030000
vt 0.25310000 0.96030000
vt 0.94180000 0.27280000
vt 0.74060000 0.93340000
vt 0.66310000 0.82220000
vt 0.02370000 0.56350000
vt 0.72090000 0.31340000
vt 0.74060000 0.93340000
vt 0.54450000 0.82220000
vt 0.31230000 0.56350000
vt 0.72090000 0.35680000
vt 0.45420000 0.93340000
vt 0.66310000 0.79490000
vt 0.02370000 0.31340000
vt 0.35530000 0.53930000
vt 0.45420000 0.93340000
vt 0.54450000 0.79490000
vt 0.64400000 0.53930000
vt 0.02370000 0.35680000
vt 0.74060000 0.91870000
vt 0.66310000 0.83680000
vt 0.54450000 0.83680000
vt 0.74060000 0.94800000
vt 0.66310000 0.78020000
vt 0.45420000 0.91870000
vt 0.45420000 0.94800000
vt 0.54450000 0.78020000
vt 0.36610000 0.86410000
vt 0.36610000 0.70490000
vt 0.69470000 0.90400000
vt 0.77520000 0.70490000
vt 0.74060000 0.93340000
vt 0.77520000 0.86410000
vt 0.69470000 0.91660000
vt 0.36610000 0.62950000
vt 0.36610000 0.87670000
vt 0.77520000 0.62950000
vt 0.74060000 0.94590000
vt 0.77520000 0.87670000
vt 0.00200000 0.23700000
vt 0.77830000 0.94590000
vt 0.77520000 0.66720000
vt 0.99800000 0.23700000
vt 0.36610000 0.66720000
vt 0.65700000 0.91660000
f 1/1/1 7/7/7 8/8/8
f 8/8/8 13/13/13 1/1/1
f 17/17/17 5/5/5 19/19/19
f 19/19/19 24/24/24 17/17/17
f 4/4/4 12/12/12 28/28/28
f 28/28/28 21/21/21 4/4/4
f 9/9/9 31/31/31 35/35/35
f 35/35/35 29/29/29 9/9/9
f 32/32/32 18/18/18 26/26/26
f 26/26/26 38/38/38 32/32/32
f 25/25/25 20/20/20 39/39/39
f 39/39/39 42/42/42 25/25/25
f 22/22/22 30/30/30 44/44/44
f 44/44/44 40/40/40 22/22/22
f 27/27/27 36/36/36 46/46/46
f 46/46/46 43/43/43 27/27/27
f 37/37/37 23/23/23 41/41/41
f 41/41/41 45/45/45 37/37/37
f 49/49/49 51/51/51 53/53/53
f 53/53/53 58/58/58 49/49/49
f 59/59/59 62/62/62 65/65/65
f 65/65/65 69/69/69 59/59/59
f 47/47/47 56/56/56 64/64/64
f 64/64/64 61/61/61 47/47/47
f 57/57/57 54/54/54 66/66/66
f 66/66/66 63/63/63 57/57/57
f 55/55/55 52/52/52 70/70/70
f 70/70/70 67/67/67 55/55/55
f 50/50/50 48/48/48 60/60/60
f 60/60/60 68/68/68 50/50/50
f 71/71/71 72/72/72 77/77/77
f 77/77/77 80/80/80 71/71/71
f 73/73/73 82/82/82 85/85/85
f 85/85/85 75/75/75 73/73/73
f 81/81/81 88/88/88 89/89/89
f 89/89/89 86/86/86 81/81/81
f 84/84/84 90/90/90 91/91/91
f 91/91/91 93/93/93 84/84/84
f 95/95/95 83/83/83 98/98/98
f 98/98/98 104/104/104 95/95/95
f 87/87/87 92/92/92 105/105/105
f 105/105/105 100/100/100 87/87/87
f 94/94/94 109/109/109 111/111/111
f 111/111/111 107/107/107 94/94/94
f 110/110/110 96/96/96 102/102/102
f 102/102/102 114/114/114 110/110/110
f 101/101/101 99/99/99 116/116/116
f 116/116/116 117/117/117 101/101/101
f 97/97/97 108/108/108 119/119/119
f 119/119/119 115/115/115 97/97/97
f 106/106/106 112/112/112 121/121/121
f 121/121/121 120/120/120 106/106/106
f 113/113/113 103/103/103 118/118/118
f 118/118/118 122/122/122 113/113/113
f 126/126/126 128/128/128 132/132/132
f 132/132/132 136/136/136 126/126/126
f 127/127/127 137/137/137 141/141/141
f 141/141/141 131/131/131 127/127/127
f 138/138/138 144/144/144 147/147/147
f 147/147/147 142/142/142 138/138/138
f 143/143/143 125/125/125 134/134/134
f 134/134/134 150/150/150 143/143/143
f 135/135/135 130/130/130 152/152/152
f 152/152/152 153/153/153 135/135/135
f 129/129/129 140/140/140 156/156/156
f 156/156/156 151/151/151 129/129/129
f 139/139/139 149/149/149 157/157/157
f 157/157/157 155/155/155 139/139/139
f 148/148/148 133/133/133 154/154/154
f 154/154/154 158/158/158 148/148/148
f 79/79/79 74/74/74 160/160/160
f 160/160/160 162/162/162 79/79/79
f 78/78/78 123/123/123 164/164/164
f 164/164/164 168/168/168 78/78/78
f 124/124/124 145/145/145 173/173/173
f 173/173/173 166/166/166 124/124/124
f 146/146/146 161/161/161 176/176/176
f 176/176/176 171/171/171 146/146/146
f 159/159/159 76/76/76 170/170/170
f 170/170/170 177/177/177 159/159/159
f 169/169/169 163/163/163 180/180/180
f 180/180/180 181/181/181 169/169/169
f 165/165/165 172/172/172 183/183/183
f 183/183/183 179/179/179 165/165/165
f 174/174/174 175/175/175 186/186/186
f 186/186/186 184/184/184 174/174/174
f 178/178/178 167/167/167 182/182/182
f 182/182/182 185/185/185 178/178/178
f 187/187/187 188/188/188 193/193/193
f 193/193/193 196/196/196 187/187/187
f 189/189/189 198/198/198 2/2/2
f 2/2/2 192/192/192 189/189/189
f 197/197/197 199/199/199 6/6/6
f 6/6/6 3/3/3 197/197/197
f 195/195/195 191/191/191 201/201/201
f 201/201/201 206/206/206 195/195/195
f 190/190/190 210/210/210 211/211/211
f 211/211/211 217/217/217 190/190/190
f 209/209/209 222/222/222 224/224/224
f 224/224/224 214/214/214 209/209/209
f 221/221/221 203/203/203 229/229/229
f 229/229/229 226/226/226 221/221/221
f 205/205/205 194/194/194 218/218/218
f 218/218/218 227/227/227 205/205/205
f 215/215/215 212/212/212 232/232/232
f 232/232/232 234/234/234 215/215/215
f 213/213/213 223/223/223 235/235/235
f 235/235/235 231/231/231 213/213/213
f 225/225/225 230/230/230 237/237/237
f 237/237/237 236/236/236 225/225/225
f 228/228/228 216/216/216 233/233/233
f 233/233/233 238/238/238 228/228/228
f 207/207/207 15/15/15 241/241/241
f 241/241/241 245/245/245 207/207/207
f 16/16/16 34/34/34 249/249/249
f 249/249/249 242/242/242 16/16/16
f 33/33/33 219/219/219 253/253/253
f 253/253/253 250/250/250 33/33/33
f 220/220/220 208/208/208 246/246/246
f 246/246/246 254/254/254 220/220/220
f 244/244/244 240/240/240 256/256/256
f 256/256/256 257/257/257 244/244/244
f 239/239/239 247/247/247 260/260/260
f 260/260/260 255/255/255 239/239/239
f 248/248/248 252/252/252 262/262/262
f 262/262/262 259/259/259 248/248/248
f 251/251/251 243/243/243 258/258/258
f 258/258/258 261/261/261 251/251/251
f 264/264/264 14/14/14 200/200/200
f 200/200/200 266/266/266 264/264/264
f 270/270/270 272/272/272 277/277/277
f 277/277/277 279/279/279 270/270/270
f 263/263/263 268/268/268 274/274/274
f 274/274/274 271/271/271 263/263/263
f 267/267/267 202/202/202 276/276/276
f 276/276/276 273/273/273 267/267/267
f 204/204/204 11/11/11 278/278/278
f 278/278/278 275/275/275 204/204/204
f 10/10/10 265/265/265 269/269/269
f 269/269/269 280/280/280 10/10/10

