mtllib material.mtl
usemtl material_0
v 82.47338100 123.69104000 -11.13657200
v 82.47338100 123.69104000 -11.13657200
v 82.47338100 123.69104000 -11.13657200
v 82.47338100 123.69104000 -8.38115100
v 82.47338100 123.69104000 -8.38115100
v 82.47338100 123.69104000 -8.38115100
v 42.28235600 123.69104000 -8.38115100
v 42.28235600 123.69104000 -8.38115100
v 42.28235600 123.69104000 -8.38115100
v 42.28235600 123.69104000 -11.13657200
v 42.28235600 123.69104000 -11.13657200
v 42.28235600 123.69104000 -11.13657200
v 42.28235600 124.83599900 -9.12273800
v 42.28235600 124.83599900 -9.12273800
v 42.28235600 124.83599900 -9.12273800
v 82.47338100 124.83599900 -9.12273800
v 82.47338100 124.83599900 -9.12273800
v 82.47338100 124.83599900 -9.12273800
v 82.47338100 124.83599900 -10.39479800
v 82.47338100 124.83599900 -10.39479800
v 82.47338100 124.83599900 -10.39479800
v 42.28235600 124.83599900 -10.39479800
v 42.28235600 124.83599900 -10.39479800
v 42.28235600 124.83599900 -10.39479800
v 42.28235600 154.97445700 3.25817600
v 42.28235600 154.97445700 3.25817600
v 42.28235600 154.97445700 3.25817600
v 82.47338100 154.97445700 3.25817600
v 82.47338100 154.97445700 3.25817600
v 82.47338100 154.97445700 3.25817600
v 82.47338100 154.97445700 -22.77571700
v 82.47338100 154.97445700 -22.77571700
v 82.47338100 154.97445700 -22.77571700
v 42.28235600 154.97445700 -22.77571700
v 42.28235600 154.97445700 -22.77571700
v 42.28235600 154.97445700 -22.77571700
v 82.47338100 154.44097900 4.49383900
v 82.47338100 154.44097900 4.49383900
v 82.47338100 154.44097900 4.49383900
v 42.28235600 154.44097900 4.49383900
v 42.28235600 154.44097900 4.49383900
v 42.28235600 154.44097900 4.49383900
v 42.28235600 154.44097900 -24.01156800
v 42.28235600 154.44097900 -24.01156800
v 42.28235600 154.44097900 -24.01156800
v 82.47338100 154.44097900 -24.01156800
v 82.47338100 154.44097900 -24.01156800
v 82.47338100 154.44097900 -24.01156800
v 44.15657400 125.54602100 -11.91324800
v 44.15657400 125.54602100 -11.91324800
v 80.87317700 125.54602100 -11.91324800
v 80.87317700 125.54602100 -11.91324800
v 44.15657400 152.58599900 -23.23489200
v 44.15657400 152.58599900 -23.23489200
v 80.87317700 152.58599900 -23.23489200
v 80.87317700 152.58599900 -23.23489200
v 80.85824600 125.66995200 -7.55258200
v 80.85824600 125.66995200 -7.55258200
v 44.18718300 125.66995200 -7.55258200
v 44.18718300 125.66995200 -7.55258200
v 80.85824600 152.46205100 3.66527200
v 80.85824600 152.46205100 3.66527200
v 44.18718300 152.46205100 3.66527200
v 44.18718300 152.46205100 3.66527200
v 125.12883000 123.69104000 -11.13657200
v 125.12883000 123.69104000 -11.13657200
v 125.12883000 123.69104000 -11.13657200
v 125.12883000 123.69104000 -8.38115100
v 125.12883000 123.69104000 -8.38115100
v 125.12883000 123.69104000 -8.38115100
v 84.93798800 123.69104000 -8.38115100
v 84.93798800 123.69104000 -8.38115100
v 84.93798800 123.69104000 -8.38115100
v 84.93798800 123.69104000 -11.13657200
v 84.93798800 123.69104000 -11.13657200
v 84.93798800 123.69104000 -11.13657200
v 84.93798800 124.83599900 -9.12273800
v 84.93798800 124.83599900 -9.12273800
v 84.93798800 124.83599900 -9.12273800
v 125.12883000 124.83599900 -9.12273800
v 125.12883000 124.83599900 -9.12273800
v 125.12883000 124.83599900 -9.12273800
v 125.12883000 124.83599900 -10.39479800
v 125.12883000 124.83599900 -10.39479800
v 125.12883000 124.83599900 -10.39479800
v 84.93798800 124.83599900 -10.39479800
v 84.93798800 124.83599900 -10.39479800
v 84.93798800 124.83599900 -10.39479800
v 84.93798800 154.97445700 3.25817600
v 84.93798800 154.97445700 3.25817600
v 84.93798800 154.97445700 3.25817600
v 125.12883000 154.97445700 3.25817600
v 125.12883000 154.97445700 3.25817600
v 125.12883000 154.97445700 3.25817600
v 125.12883000 154.97445700 -22.77571700
v 125.12883000 154.97445700 -22.77571700
v 125.12883000 154.97445700 -22.77571700
v 84.93798800 154.97445700 -22.77571700
v 84.93798800 154.97445700 -22.77571700
v 84.93798800 154.97445700 -22.77571700
v 125.12883000 154.44097900 4.49383900
v 125.12883000 154.44097900 4.49383900
v 125.12883000 154.44097900 4.49383900
v 84.93798800 154.44097900 4.49383900
v 84.93798800 154.44097900 4.49383900
v 84.93798800 154.44097900 4.49383900
v 84.93798800 154.44097900 -24.01156800
v 84.93798800 154.44097900 -24.01156800
v 84.93798800 154.44097900 -24.01156800
v 125.12883000 154.44097900 -24.01156800
v 125.12883000 154.44097900 -24.01156800
v 125.12883000 154.44097900 -24.01156800
v 86.81201900 125.54602100 -11.91324800
v 86.81201900 125.54602100 -11.91324800
v 123.52881600 125.54602100 -11.91324800
v 123.52881600 125.54602100 -11.91324800
v 86.81201900 152.58599900 -23.23489200
v 86.81201900 152.58599900 -23.23489200
v 123.52881600 152.58599900 -23.23489200
v 123.52881600 152.58599900 -23.23489200
v 123.51388500 125.66995200 -7.55258200
v 123.51388500 125.66995200 -7.55258200
v 86.84281900 125.66995200 -7.55258200
v 86.84281900 125.66995200 -7.55258200
v 123.51388500 152.46205100 3.66527200
v 123.51388500 152.46205100 3.66527200
v 86.84281900 152.46205100 3.66527200
v 86.84281900 152.46205100 3.66527200
v 39.81774500 123.69104000 -11.13657200
v 39.81774500 123.69104000 -11.13657200
v 39.81774500 123.69104000 -11.13657200
v 39.81774500 123.69104000 -8.38115100
v 39.81774500 123.69104000 -8.38115100
v 39.81774500 123.69104000 -8.38115100
v 39.81774500 123.69104000 -8.38115100
v 39.81774500 123.69104000 -8.38115100
v -0.37309100 123.69104000 -8.38115100
v -0.37309100 123.69104000 -8.38115100
v -0.37309100 123.69104000 -8.38115100
v -0.37309100 123.69104000 -8.38115100
v -0.37309100 123.69104000 -11.13657200
v -0.37309100 123.69104000 -11.13657200
v -0.37309100 123.69104000 -11.13657200
v -0.37309100 124.83599900 -9.12273800
v -0.37309100 124.83599900 -9.12273800
v -0.37309100 124.83599900 -9.12273800
v 39.81774500 124.83599900 -9.12273800
v 39.81774500 124.83599900 -9.12273800
v 39.81774500 124.83599900 -9.12273800
v 39.81774500 124.83599900 -10.39479800
v 39.81774500 124.83599900 -10.39479800
v 39.81774500 124.83599900 -10.39479800
v -0.37309100 124.83599900 -10.39479800
v -0.37309100 124.83599900 -10.39479800
v -0.37309100 124.83599900 -10.39479800
v -0.37309100 154.97445700 3.25817600
v -0.37309100 154.97445700 3.25817600
v -0.37309100 154.97445700 3.25817600
v 39.81774500 154.97445700 3.25817600
v 39.81774500 154.97445700 3.25817600
v 39.81774500 154.97445700 3.25817600
v 39.81774500 154.97445700 -22.77571700
v 39.81774500 154.97445700 -22.77571700
v 39.81774500 154.97445700 -22.77571700
v -0.37309100 154.97445700 -22.77571700
v -0.37309100 154.97445700 -22.77571700
v -0.37309100 154.97445700 -22.77571700
v 39.81774500 154.44097900 4.49383900
v 39.81774500 154.44097900 4.49383900
v 39.81774500 154.44097900 4.49383900
v -0.37309100 154.44097900 4.49383900
v -0.37309100 154.44097900 4.49383900
v -0.37309100 154.44097900 4.49383900
v -0.37309100 154.44097900 4.49383900
v -0.37309100 154.44097900 -24.01156800
v -0.37309100 154.44097900 -24.01156800
v -0.37309100 154.44097900 -24.01156800
v 39.81774500 154.44097900 -24.01156800
v 39.81774500 154.44097900 -24.01156800
v 39.81774500 154.44097900 -24.01156800
v 1.50093900 125.54602100 -11.91324800
v 1.50093900 125.54602100 -11.91324800
v 38.21773100 125.54602100 -11.91324800
v 38.21773100 125.54602100 -11.91324800
v 1.50093900 152.58599900 -23.23489200
v 1.50093900 152.58599900 -23.23489200
v 38.21773100 152.58599900 -23.23489200
v 38.21773100 152.58599900 -23.23489200
v 38.20279700 125.66995200 -7.55239700
v 38.20279700 125.66995200 -7.55239700
v 1.53173700 125.66995200 -7.55239700
v 1.53173700 125.66995200 -7.55239700
v 1.53173700 125.66995200 -7.55239700
v 38.20279700 152.46205100 3.66527200
v 38.20279700 152.46205100 3.66527200
v 38.20279700 152.46205100 3.66527200
v 1.53173700 152.46205100 3.66527200
v 1.53173700 152.46205100 3.66527200
v 19.21499600 140.17240900 -8.65646800
v 19.21499600 140.17240900 -8.65646800
v 19.21499600 140.17240900 -8.65646800
v 19.21499600 140.17240900 -10.86106800
v 19.21499600 140.17240900 -10.86106800
v 19.21499600 140.17240900 -10.86106800
v 21.41959400 140.17240900 -10.86106800
v 21.41959400 140.17240900 -10.86106800
v 21.41959400 140.17240900 -10.86106800
v 21.41959400 140.17240900 -8.65646800
v 21.41959400 140.17240900 -8.65646800
v 21.41959400 140.17240900 -8.65646800
v 19.21499600 179.60504200 -8.65647100
v 19.21499600 179.60504200 -8.65647100
v 19.21499600 179.60504200 -8.65647100
v 21.41959400 179.60504200 -8.65647100
v 21.41959400 179.60504200 -8.65647100
v 21.41959400 179.60504200 -8.65647100
v 21.41959400 179.60504200 -10.86107100
v 21.41959400 179.60504200 -10.86107100
v 21.41959400 179.60504200 -10.86107100
v 19.21499600 179.60504200 -10.86107100
v 19.21499600 179.60504200 -10.86107100
v 19.21499600 179.60504200 -10.86107100
v 103.65961500 140.17240900 -8.65646800
v 103.65961500 140.17240900 -8.65646800
v 103.65961500 140.17240900 -8.65646800
v 103.65961500 140.17240900 -10.86106800
v 103.65961500 140.17240900 -10.86106800
v 103.65961500 140.17240900 -10.86106800
v 105.86422000 140.17240900 -10.86106800
v 105.86422000 140.17240900 -10.86106800
v 105.86422000 140.17240900 -10.86106800
v 105.86422000 140.17240900 -8.65646800
v 105.86422000 140.17240900 -8.65646800
v 105.86422000 140.17240900 -8.65646800
v 103.65961500 179.60504200 -8.65647100
v 103.65961500 179.60504200 -8.65647100
v 103.65961500 179.60504200 -8.65647100
v 105.86422000 179.60504200 -8.65647100
v 105.86422000 179.60504200 -8.65647100
v 105.86422000 179.60504200 -8.65647100
v 105.86422000 179.60504200 -10.86107100
v 105.86422000 179.60504200 -10.86107100
v 105.86422000 179.60504200 -10.86107100
v 103.65961500 179.60504200 -10.86107100
v 103.65961500 179.60504200 -10.86107100
v 103.65961500 179.60504200 -10.86107100
v -0.30757400 124.90522800 -11.37101400
v -0.30757400 124.90522800 -11.37101400
v -0.30757400 124.90522800 -11.37101400
v -0.30757400 124.90522800 -8.44032300
v -0.30757400 124.90522800 -8.44032300
v -0.30757400 124.90522800 -8.44032300
v -0.30757400 154.26551800 3.44539100
v -0.30757400 154.26551800 3.44539100
v -0.30757400 154.26551800 3.44539100
v -0.30757400 154.26551800 -23.25672700
v -0.30757400 154.26551800 -23.25672700
v -0.30757400 154.26551800 -23.25672700
v 0.52771300 124.90522800 -11.37101400
v 0.52771300 124.90522800 -11.37101400
v 0.52771300 124.90522800 -11.37101400
v 0.52771300 154.26551800 -23.25672700
v 0.52771300 154.26551800 -23.25672700
v 0.52771300 154.26551800 -23.25672700
v 0.52771300 154.26551800 3.44539100
v 0.52771300 154.26551800 3.44539100
v 0.52771300 154.26551800 3.44539100
v 0.52771300 124.90522800 -8.44032300
v 0.52771300 124.90522800 -8.44032300
v 0.52771300 124.90522800 -8.44032300
v 124.11229700 124.90522800 -11.37101400
v 124.11229700 124.90522800 -11.37101400
v 124.11229700 124.90522800 -11.37101400
v 124.11229700 124.90522800 -8.44032300
v 124.11229700 124.90522800 -8.44032300
v 124.11229700 124.90522800 -8.44032300
v 124.11229700 154.26551800 3.44539100
v 124.11229700 154.26551800 3.44539100
v 124.11229700 154.26551800 3.44539100
v 124.11229700 154.26551800 -23.25672700
v 124.11229700 154.26551800 -23.25672700
v 124.11229700 154.26551800 -23.25672700
v 124.94777700 124.90522800 -11.37101400
v 124.94777700 124.90522800 -11.37101400
v 124.94777700 124.90522800 -11.37101400
v 124.94777700 154.26551800 -23.25672700
v 124.94777700 154.26551800 -23.25672700
v 124.94777700 154.26551800 -23.25672700
v 124.94758600 154.26551800 3.44539100
v 124.94758600 154.26551800 3.44539100
v 124.94758600 154.26551800 3.44539100
v 124.94777700 124.90522800 -8.44032300
v 124.94777700 124.90522800 -8.44032300
v 124.94777700 124.90522800 -8.44032300
v 16.35355600 82.70802300 22.01434100
v 35.60155500 82.70802300 22.01434100
v 35.60155500 82.70802300 2.76634100
v 16.35355600 82.70802300 2.76634100
v 12.88100100 77.39952100 27.50782400
v 39.07410800 77.39952100 27.50782400
v 36.46707900 81.15654000 25.28474600
v 36.46707900 81.15654000 25.28474600
v 15.48802900 81.15654000 25.28474600
v 15.48802900 81.15654000 25.28474600
v 41.09522200 77.39952100 25.48689500
v 41.09522200 77.39952100 -0.70640000
v 38.87214700 81.15654000 1.90062800
v 38.87214700 81.15654000 1.90062800
v 38.87214700 81.15654000 22.87986600
v 38.87214700 81.15654000 22.87986600
v 39.07410800 77.39952100 -2.72732800
v 12.88100100 77.39952100 -2.72732800
v 15.48802900 81.15654000 -0.50425200
v 15.48802900 81.15654000 -0.50425200
v 36.46707900 81.15654000 -0.50425200
v 36.46707900 81.15654000 -0.50425200
v 10.86007300 77.39952100 -0.70640000
v 10.86007300 77.39952100 25.48689500
v 13.08315000 81.15654000 22.87986600
v 13.08315000 81.15654000 22.87986600
v 13.08315000 81.15654000 1.90062800
v 13.08315000 81.15654000 1.90062800
v 14.68223500 81.95822900 24.08492100
v 13.68437000 81.15654000 24.68352700
v 13.68437000 81.15654000 24.68352700
v 13.68437000 81.15654000 24.68352700
v 37.67232100 81.95785500 23.68585000
v 38.27092700 81.15654000 24.68352700
v 38.27092700 81.15654000 24.68352700
v 38.27092700 81.15654000 24.68352700
v 14.28297700 81.95822900 1.09483300
v 13.68437000 81.15654000 0.09696700
v 13.68437000 81.15654000 0.09696700
v 13.68437000 81.15654000 0.09696700
v 37.27324700 81.95785500 0.69538800
v 38.27092700 81.15654000 0.09696700
v 38.27092700 81.15654000 0.09696700
v 38.27092700 81.15654000 0.09696700
v 35.67733800 82.23223900 23.94903200
v 16.13722000 82.32016000 23.88295900
v 37.53643400 82.23223900 2.69055900
v 37.47016900 82.32016000 22.23067700
v 16.27795800 82.23223900 0.83146000
v 35.81789000 82.32016000 0.89753900
v 14.41867500 82.23223900 22.08993900
v 14.48494000 82.32016000 2.54981900
v 40.58994300 77.39952100 27.00254400
v 40.58994300 77.39952100 27.00254400
v 11.36535200 77.39952100 27.00254400
v 11.36535200 77.39952100 27.00254400
v 40.58994300 77.39952100 -2.22204900
v 40.58994300 77.39952100 -2.22204900
v 11.36535200 77.39952100 -2.22204900
v 11.36535200 77.39952100 -2.22204900
v 1.53173700 125.66995200 -7.55258200
v 38.20279700 125.66995200 -7.55258200
vn -0.00000000 -1.00000000 -0.00000000
vn -0.00000000 -0.38620000 -0.92240000
vn 1.00000000 -0.00000000 -0.00000000
vn 1.00000000 -0.00000000 -0.00000000
vn -0.00000000 -0.38620000 0.92240000
vn -0.00000000 -1.00000000 -0.00000000
vn -0.00000000 -1.00000000 -0.00000000
vn -0.00000000 -0.38620000 0.92240000
vn -1.00000000 -0.00000000 -0.00000000
vn -1.00000000 -0.00000000 -0.00000000
vn -0.00000000 -1.00000000 -0.00000000
vn -0.00000000 -0.38620000 -0.92240000
vn -1.00000000 -0.00000000 -0.00000000
vn -0.00000000 0.38000000 -0.92500000
vn -0.00000000 1.00000000 -0.00000000
vn -0.00000000 0.38000000 -0.92500000
vn 1.00000000 -0.00000000 -0.00000000
vn -0.00000000 1.00000000 -0.00000000
vn -0.00000000 1.00000000 -0.00000000
vn -0.00000000 0.38000000 0.92500000
vn 1.00000000 -0.00000000 -0.00000000
vn -1.00000000 -0.00000000 -0.00000000
vn -0.00000000 0.38000000 0.92500000
vn -0.00000000 1.00000000 -0.00000000
vn -0.00000000 0.38000000 -0.92500000
vn -1.00000000 -0.00000000 -0.00000000
vn -0.00000000 0.91810000 0.39640000
vn 1.00000000 -0.00000000 -0.00000000
vn -0.00000000 0.38000000 -0.92500000
vn -0.00000000 0.91810000 0.39640000
vn 1.00000000 -0.00000000 -0.00000000
vn -0.00000000 0.38000000 0.92500000
vn -0.00000000 0.91810000 -0.39630000
vn -1.00000000 -0.00000000 -0.00000000
vn -0.00000000 0.38000000 0.92500000
vn -0.00000000 0.91810000 -0.39630000
vn -0.00000000 -0.38620000 0.92240000
vn 1.00000000 -0.00000000 -0.00000000
vn -0.00000000 0.91810000 0.39640000
vn -0.00000000 -0.38620000 0.92240000
vn -1.00000000 -0.00000000 -0.00000000
vn -0.00000000 0.91810000 0.39640000
vn -0.00000000 -0.38620000 -0.92240000
vn -1.00000000 -0.00000000 -0.00000000
vn -0.00000000 0.91810000 -0.39630000
vn -0.00000000 -0.38620000 -0.92240000
vn 1.00000000 -0.00000000 -0.00000000
vn -0.00000000 0.91810000 -0.39630000
vn -0.00000000 -0.38620000 -0.92240000
vn -0.00000000 -0.38620000 -0.92240000
vn -0.00000000 -0.38620000 -0.92240000
vn -0.00000000 -0.38620000 -0.92240000
vn -0.00000000 -0.38620000 -0.92240000
vn -0.00000000 -0.38620000 -0.92240000
vn -0.00000000 -0.38620000 -0.92240000
vn -0.00000000 -0.38620000 -0.92240000
vn -0.00000000 -0.38620000 0.92240000
vn -0.00000000 -0.38620000 0.92240000
vn -0.00000000 -0.38620000 0.92240000
vn -0.00000000 -0.38620000 0.92240000
vn -0.00000000 -0.38620000 0.92240000
vn -0.00000000 -0.38620000 0.92240000
vn -0.00000000 -0.38620000 0.92240000
vn -0.00000000 -0.38620000 0.92240000
vn 1.00000000 -0.00000000 -0.00000000
vn -0.00000000 -1.00000000 -0.00000000
vn -0.00000000 -0.38620000 -0.92240000
vn -0.00000000 -0.38620000 0.92240000
vn -0.00000000 -1.00000000 -0.00000000
vn 1.00000000 -0.00000000 -0.00000000
vn -0.00000000 -0.38620000 0.92240000
vn -1.00000000 -0.00000000 -0.00000000
vn -0.00000000 -1.00000000 -0.00000000
vn -1.00000000 -0.00000000 -0.00000000
vn -0.00000000 -1.00000000 -0.00000000
vn -0.00000000 -0.38620000 -0.92240000
vn -1.00000000 -0.00000000 -0.00000000
vn -0.00000000 0.38000000 -0.92500000
vn -0.00000000 1.00000000 -0.00000000
vn 1.00000000 -0.00000000 -0.00000000
vn -0.00000000 0.38000000 -0.92500000
vn -0.00000000 1.00000000 -0.00000000
vn -0.00000000 0.38000000 0.92500000
vn 1.00000000 -0.00000000 -0.00000000
vn -0.00000000 1.00000000 -0.00000000
vn -0.00000000 1.00000000 -0.00000000
vn -0.00000000 0.38000000 0.92500000
vn -1.00000000 -0.00000000 -0.00000000
vn -0.00000000 0.38000000 -0.92500000
vn -1.00000000 -0.00000000 -0.00000000
vn -0.00000000 0.91810000 0.39640000
vn 1.00000000 -0.00000000 -0.00000000
vn -0.00000000 0.38000000 -0.92500000
vn -0.00000000 0.91810000 0.39640000
vn 1.00000000 -0.00000000 -0.00000000
vn -0.00000000 0.91810000 -0.39630000
vn -0.00000000 0.38000000 0.92500000
vn -1.00000000 -0.00000000 -0.00000000
vn -0.00000000 0.38000000 0.92500000
vn -0.00000000 0.91810000 -0.39630000
vn 1.00000000 -0.00000000 -0.00000000
vn -0.00000000 0.91810000 0.39640000
vn -0.00000000 -0.38620000 0.92240000
vn -0.00000000 -0.38620000 0.92240000
vn -0.00000000 0.91810000 0.39640000
vn -1.00000000 -0.00000000 -0.00000000
vn -0.00000000 0.91810000 -0.39630000
vn -1.00000000 -0.00000000 -0.00000000
vn -0.00000000 -0.38620000 -0.92240000
vn -0.00000000 0.91810000 -0.39630000
vn 1.00000000 -0.00000000 -0.00000000
vn -0.00000000 -0.38620000 -0.92240000
vn -0.00000000 -0.38620000 -0.92240000
vn -0.00000000 -0.38620000 -0.92240000
vn -0.00000000 -0.38620000 -0.92240000
vn -0.00000000 -0.38620000 -0.92240000
vn -0.00000000 -0.38620000 -0.92240000
vn -0.00000000 -0.38620000 -0.92240000
vn -0.00000000 -0.38620000 -0.92240000
vn -0.00000000 -0.38620000 -0.92240000
vn -0.00000000 -0.38620000 0.92240000
vn -0.00000000 -0.38620000 0.92240000
vn -0.00000000 -0.38620000 0.92240000
vn -0.00000000 -0.38620000 0.92240000
vn -0.00000000 -0.38620000 0.92240000
vn -0.00000000 -0.38620000 0.92240000
vn -0.00000000 -0.38620000 0.92240000
vn -0.00000000 -0.38620000 0.92240000
vn 1.00000000 -0.00000000 -0.00000000
vn -0.00000000 -0.38620000 -0.92240000
vn -0.00000000 -1.00000000 -0.00000000
vn 0.00010000 -0.38620000 0.92240000
vn -0.00000000 -1.00000000 -0.00000000
vn 1.00000000 -0.00000000 -0.00000000
vn -0.00000000 -0.38630000 0.92240000
vn -0.00000000 -0.38620000 0.92240000
vn -0.00000000 -1.00000000 -0.00000000
vn -1.00000000 -0.00000000 -0.00000000
vn -0.00000000 -0.38630000 0.92240000
vn -0.00010000 -0.38620000 0.92240000
vn -0.00000000 -1.00000000 -0.00000000
vn -1.00000000 -0.00000000 -0.00000000
vn -0.00000000 -0.38620000 -0.92240000
vn -1.00000000 -0.00000000 -0.00000000
vn -0.00000000 1.00000000 -0.00000000
vn -0.00000000 0.38000000 -0.92500000
vn -0.00000000 1.00000000 -0.00000000
vn -0.00000000 0.38000000 -0.92500000
vn 1.00000000 -0.00000000 -0.00000000
vn 1.00000000 -0.00000000 -0.00000000
vn -0.00000000 1.00000000 -0.00000000
vn -0.00000000 0.38000000 0.92500000
vn -1.00000000 -0.00000000 -0.00000000
vn -0.00000000 1.00000000 -0.00000000
vn -0.00000000 0.38000000 0.92500000
vn -1.00000000 -0.00000000 -0.00000000
vn -0.00000000 0.38000000 -0.92500000
vn -0.00000000 0.91810000 0.39640000
vn 1.00000000 -0.00000000 -0.00000000
vn -0.00000000 0.38000000 -0.92500000
vn -0.00000000 0.91810000 0.39640000
vn -0.00000000 0.38000000 0.92500000
vn -0.00000000 0.91810000 -0.39630000
vn 1.00000000 -0.00000000 -0.00000000
vn -0.00000000 0.38000000 0.92500000
vn -1.00000000 -0.00000000 -0.00000000
vn -0.00000000 0.91810000 -0.39630000
vn 1.00000000 -0.00000000 -0.00000000
vn -0.00000000 0.91810000 0.39640000
vn -0.00000000 -0.38620000 0.92240000
vn -0.00000000 0.91810000 0.39640000
vn -1.00000000 -0.00000000 -0.00000000
vn -0.00010000 -0.38620000 0.92240000
vn -0.00000000 -0.38620000 0.92240000
vn -0.00000000 -0.38620000 -0.92240000
vn -0.00000000 0.91810000 -0.39630000
vn -1.00000000 -0.00000000 -0.00000000
vn -0.00000000 0.91810000 -0.39630000
vn -0.00000000 -0.38620000 -0.92240000
vn 1.00000000 -0.00000000 -0.00000000
vn -0.00000000 -0.38620000 -0.92240000
vn -0.00000000 -0.38620000 -0.92240000
vn -0.00000000 -0.38620000 -0.92240000
vn -0.00000000 -0.38620000 -0.92240000
vn -0.00000000 -0.38620000 -0.92240000
vn -0.00000000 -0.38620000 -0.92240000
vn -0.00000000 -0.38620000 -0.92240000
vn -0.00000000 -0.38620000 -0.92240000
vn 0.00010000 -0.38620000 0.92240000
vn -0.00000000 -0.38630000 0.92240000
vn -0.00010000 -0.38620000 0.92240000
vn -0.00000000 -0.38630000 0.92240000
vn -0.00000000 -0.38620000 0.92240000
vn -0.00000000 -0.38620000 0.92240000
vn -0.00000000 -0.38620000 0.92240000
vn 0.00010000 -0.38620000 0.92240000
vn -0.00000000 -0.38620000 0.92240000
vn -0.00000000 -0.38620000 0.92240000
vn -1.00000000 -0.00000000 -0.00000000
vn -0.00000000 -1.00000000 -0.00000000
vn -0.00000000 -0.00000000 1.00000000
vn -0.00000000 -0.00000000 -1.00000000
vn -0.00000000 -1.00000000 -0.00000000
vn -1.00000000 -0.00000000 -0.00000000
vn -0.00000000 -1.00000000 -0.00000000
vn 1.00000000 -0.00000000 -0.00000000
vn -0.00000000 -0.00000000 -1.00000000
vn -0.00000000 -0.00000000 1.00000000
vn 1.00000000 -0.00000000 -0.00000000
vn -0.00000000 -1.00000000 -0.00000000
vn -0.00000000 1.00000000 -0.00000000
vn -0.00000000 -0.00000000 1.00000000
vn -1.00000000 -0.00000000 -0.00000000
vn 1.00000000 -0.00000000 -0.00000000
vn -0.00000000 1.00000000 -0.00000000
vn -0.00000000 -0.00000000 1.00000000
vn -0.00000000 1.00000000 -0.00000000
vn -0.00000000 -0.00000000 -1.00000000
vn 1.00000000 -0.00000000 -0.00000000
vn -1.00000000 -0.00000000 -0.00000000
vn -0.00000000 1.00000000 -0.00000000
vn -0.00000000 -0.00000000 -1.00000000
vn -0.00000000 -0.00000000 1.00000000
vn -0.00000000 -1.00000000 -0.00000000
vn -1.00000000 -0.00000000 -0.00000000
vn -0.00000000 -1.00000000 -0.00000000
vn -1.00000000 -0.00000000 -0.00000000
vn -0.00000000 -0.00000000 -1.00000000
vn 1.00000000 -0.00000000 -0.00000000
vn -0.00000000 -1.00000000 -0.00000000
vn -0.00000000 -0.00000000 -1.00000000
vn -0.00000000 -1.00000000 -0.00000000
vn -0.00000000 -0.00000000 1.00000000
vn 1.00000000 -0.00000000 -0.00000000
vn -0.00000000 -0.00000000 1.00000000
vn -1.00000000 -0.00000000 -0.00000000
vn -0.00000000 1.00000000 -0.00000000
vn -0.00000000 -0.00000000 1.00000000
vn 1.00000000 -0.00000000 -0.00000000
vn -0.00000000 1.00000000 -0.00000000
vn -0.00000000 -0.00000000 -1.00000000
vn -0.00000000 1.00000000 -0.00000000
vn 1.00000000 -0.00000000 -0.00000000
vn -0.00000000 -0.00000000 -1.00000000
vn -1.00000000 -0.00000000 -0.00000000
vn -0.00000000 1.00000000 -0.00000000
vn -0.00000000 -0.37520000 -0.92690000
vn -0.00000000 -1.00000000 -0.00000000
vn -1.00000000 -0.00000000 -0.00000000
vn -1.00000000 -0.00000000 -0.00000000
vn -0.00000000 -0.37520000 0.92690000
vn -0.00000000 -1.00000000 -0.00000000
vn -1.00000000 -0.00000000 -0.00000000
vn -0.00000000 -0.37520000 0.92690000
vn -0.00000000 1.00000000 -0.00000000
vn -0.00000000 1.00000000 -0.00000000
vn -0.00000000 -0.37520000 -0.92690000
vn -1.00000000 -0.00000000 -0.00000000
vn -0.00000000 -0.37520000 -0.92690000
vn -0.00000000 -1.00000000 -0.00000000
vn 1.00000000 -0.00000000 -0.00000000
vn -0.00000000 -0.37520000 -0.92690000
vn 1.00000000 -0.00000000 -0.00000000
vn -0.00000000 1.00000000 -0.00000000
vn 1.00000000 -0.00000000 -0.00000000
vn -0.00000000 -0.37520000 0.92690000
vn -0.00000000 1.00000000 -0.00000000
vn -0.00000000 -1.00000000 -0.00000000
vn 1.00000000 -0.00000000 -0.00000000
vn -0.00000000 -0.37520000 0.92690000
vn -1.00000000 -0.00000000 -0.00000000
vn -0.00000000 -0.37520000 -0.92690000
vn -0.00000000 -1.00000000 -0.00000000
vn -0.00000000 -0.37520000 0.92690000
vn -1.00000000 -0.00000000 -0.00000000
vn -0.00000000 -1.00000000 -0.00000000
vn -0.00000000 -0.37520000 0.92690000
vn -1.00000000 -0.00000000 -0.00000000
vn -0.00000000 1.00000000 -0.00000000
vn -0.00000000 -0.37520000 -0.92690000
vn -0.00000000 1.00000000 -0.00000000
vn -1.00000000 -0.00000000 -0.00000000
vn -0.00000000 -0.37520000 -0.92690000
vn 1.00000000 -0.00000000 -0.00000000
vn -0.00000000 -1.00000000 -0.00000000
vn -0.00000000 -0.37520000 -0.92690000
vn 1.00000000 -0.00000000 -0.00000000
vn -0.00000000 1.00000000 -0.00000000
vn -0.00000000 1.00000000 -0.00000000
vn -0.00000000 -0.37520000 0.92690000
vn 1.00000000 -0.00000000 -0.00000000
vn -0.00000000 -1.00000000 -0.00000000
vn -0.00000000 -0.37520000 0.92690000
vn 1.00000000 -0.00000000 -0.00000000
vn -0.11240000 0.98910000 0.09470000
vn 0.09460000 0.98910000 0.11240000
vn 0.11240000 0.98910000 -0.09460000
vn -0.09460000 0.98910000 -0.11240000
vn -0.16390000 0.58410000 0.79490000
vn 0.16390000 0.58410000 0.79500000
vn 0.10300000 0.68150000 0.72450000
vn 0.10300000 0.68150000 0.72450000
vn -0.09350000 0.66200000 0.74370000
vn -0.09350000 0.66200000 0.74370000
vn 0.79490000 0.58410000 0.16390000
vn 0.79500000 0.58410000 -0.16390000
vn 0.72450000 0.68150000 -0.10300000
vn 0.72450000 0.68150000 -0.10300000
vn 0.74360000 0.66200000 0.09350000
vn 0.74360000 0.66200000 0.09350000
vn 0.16390000 0.58410000 -0.79500000
vn -0.16390000 0.58410000 -0.79500000
vn -0.10300000 0.68150000 -0.72460000
vn -0.10300000 0.68150000 -0.72460000
vn 0.09350000 0.66200000 -0.74360000
vn 0.09350000 0.66200000 -0.74360000
vn -0.79490000 0.58410000 -0.16390000
vn -0.79500000 0.58410000 0.16390000
vn -0.72460000 0.68150000 0.10300000
vn -0.72460000 0.68150000 0.10300000
vn -0.74370000 0.66200000 -0.09350000
vn -0.74370000 0.66200000 -0.09350000
vn -0.31410000 0.86910000 0.38220000
vn -0.49300000 0.72630000 0.47900000
vn -0.49300000 0.72630000 0.47900000
vn -0.49300000 0.72630000 0.47900000
vn 0.38220000 0.86910000 0.31420000
vn 0.47900000 0.72630000 0.49290000
vn 0.47900000 0.72630000 0.49290000
vn 0.47900000 0.72630000 0.49290000
vn -0.38220000 0.86910000 -0.31410000
vn -0.47900000 0.72630000 -0.49300000
vn -0.47900000 0.72630000 -0.49300000
vn -0.47900000 0.72630000 -0.49300000
vn 0.31420000 0.86900000 -0.38220000
vn 0.49290000 0.72630000 -0.47900000
vn 0.49290000 0.72630000 -0.47900000
vn 0.49290000 0.72630000 -0.47900000
vn 0.07780000 0.90010000 0.42860000
vn -0.08670000 0.91120000 0.40280000
vn 0.42860000 0.90010000 -0.07780000
vn 0.40270000 0.91120000 0.08670000
vn -0.07780000 0.90010000 -0.42860000
vn 0.08670000 0.91120000 -0.40280000
vn -0.42860000 0.90010000 0.07780000
vn -0.40280000 0.91120000 -0.08670000
vn 0.53270000 0.65760000 0.53270000
vn 0.53270000 0.65760000 0.53270000
vn -0.53270000 0.65760000 0.53270000
vn -0.53270000 0.65760000 0.53270000
vn 0.53270000 0.65760000 -0.53270000
vn 0.53270000 0.65760000 -0.53270000
vn -0.53270000 0.65760000 -0.53270000
vn -0.53270000 0.65760000 -0.53270000
vn -0.00000000 -0.38620000 0.92240000
vn -0.00000000 -0.38620000 0.92240000
vt 0.18850000 0.58940000
vt 0.33720000 0.02930000
vt 0.42140000 0.63250000
vt 0.42140000 0.64380000
vt 0.19170000 0.45010000
vt 0.18850000 0.60070000
vt 0.02300000 0.60070000
vt 0.01980000 0.45010000
vt 0.38970000 0.63250000
vt 0.38970000 0.64380000
vt 0.02300000 0.58940000
vt 0.33720000 0.19490000
vt 0.39430000 0.63550000
vt 0.37500000 0.34090000
vt 0.68700000 0.02930000
vt 0.20340000 0.34090000
vt 0.42600000 0.64070000
vt 0.68700000 0.19490000
vt 0.68180000 0.19490000
vt 0.19150000 0.01980000
vt 0.42600000 0.63550000
vt 0.39430000 0.64070000
vt 0.02000000 0.01980000
vt 0.68180000 0.02930000
vt 0.37500000 0.46630000
vt 0.51540000 0.58450000
vt 0.72410000 0.02910000
vt 0.54710000 0.69170000
vt 0.20340000 0.46630000
vt 0.72410000 0.19510000
vt 0.54710000 0.58450000
vt 0.19150000 0.14530000
vt 0.20640000 0.66540000
vt 0.51540000 0.69170000
vt 0.02000000 0.14530000
vt 0.37200000 0.66540000
vt 0.19170000 0.57840000
vt 0.54500000 0.69680000
vt 0.72920000 0.19510000
vt 0.01980000 0.57840000
vt 0.51320000 0.57940000
vt 0.72920000 0.02910000
vt 0.20270000 0.19490000
vt 0.51320000 0.69680000
vt 0.37200000 0.65990000
vt 0.20270000 0.02930000
vt 0.54500000 0.57940000
vt 0.20640000 0.65990000
vt 0.32910000 0.18710000
vt 0.82330000 0.73800000
vt 0.98010000 0.73800000
vt 0.32910000 0.03590000
vt 0.82330000 0.62530000
vt 0.21080000 0.18710000
vt 0.98010000 0.62530000
vt 0.21080000 0.03590000
vt 0.18480000 0.45830000
vt 0.70060000 0.54610000
vt 0.70060000 0.69720000
vt 0.02790000 0.45830000
vt 0.81780000 0.54610000
vt 0.18480000 0.57010000
vt 0.02790000 0.57010000
vt 0.81780000 0.69720000
vt 0.48490000 0.63250000
vt 0.65710000 0.02930000
vt 0.47680000 0.02620000
vt 0.18850000 0.30430000
vt 0.66850000 0.02930000
vt 0.48490000 0.64380000
vt 0.02300000 0.30430000
vt 0.54710000 0.54850000
vt 0.66850000 0.19490000
vt 0.54710000 0.53720000
vt 0.65710000 0.19490000
vt 0.47680000 0.19800000
vt 0.54250000 0.54550000
vt 0.55840000 0.20680000
vt 0.63940000 0.19490000
vt 0.48950000 0.64070000
vt 0.38690000 0.20680000
vt 0.63940000 0.02930000
vt 0.37500000 0.20680000
vt 0.48950000 0.63550000
vt 0.64470000 0.02930000
vt 0.64470000 0.19490000
vt 0.20340000 0.20680000
vt 0.54250000 0.54020000
vt 0.55840000 0.33230000
vt 0.42140000 0.59650000
vt 0.38990000 0.34790000
vt 0.61060000 0.69170000
vt 0.38690000 0.33230000
vt 0.55540000 0.34790000
vt 0.61060000 0.58450000
vt 0.38990000 0.36550000
vt 0.37500000 0.33230000
vt 0.42140000 0.48920000
vt 0.20340000 0.33230000
vt 0.55540000 0.36550000
vt 0.60850000 0.69680000
vt 0.55540000 0.34240000
vt 0.18850000 0.43880000
vt 0.02300000 0.43880000
vt 0.38990000 0.34240000
vt 0.42360000 0.60160000
vt 0.55540000 0.36000000
vt 0.42360000 0.48420000
vt 0.34850000 0.19800000
vt 0.38990000 0.36000000
vt 0.60850000 0.57940000
vt 0.34850000 0.02620000
vt 0.97730000 0.74440000
vt 0.46900000 0.19000000
vt 0.46900000 0.03300000
vt 0.82610000 0.74440000
vt 0.97730000 0.86270000
vt 0.35620000 0.19000000
vt 0.35620000 0.03300000
vt 0.82610000 0.86270000
vt 0.18190000 0.31300000
vt 0.58330000 0.70500000
vt 0.03080000 0.31300000
vt 0.58330000 0.86160000
vt 0.18190000 0.43010000
vt 0.69490000 0.70500000
vt 0.69490000 0.86160000
vt 0.03080000 0.43010000
vt 0.51540000 0.54850000
vt 0.02300000 0.15610000
vt 0.71080000 0.19490000
vt 0.37200000 0.47720000
vt 0.69950000 0.19490000
vt 0.51540000 0.53720000
vt 0.37200000 0.47720000
vt 0.37200000 0.47720000
vt 0.69950000 0.02930000
vt 0.45320000 0.63250000
vt 0.20640000 0.47720000
vt 0.20640000 0.47720000
vt 0.71080000 0.02930000
vt 0.45320000 0.64380000
vt 0.18850000 0.15610000
vt 0.45780000 0.63550000
vt 0.49300000 0.02930000
vt 0.02000000 0.73800000
vt 0.49300000 0.19490000
vt 0.19150000 0.73800000
vt 0.51080000 0.54020000
vt 0.51080000 0.54550000
vt 0.48770000 0.19490000
vt 0.62940000 0.19780000
vt 0.45780000 0.64070000
vt 0.48770000 0.02930000
vt 0.62940000 0.02630000
vt 0.57890000 0.58450000
vt 0.02000000 0.61250000
vt 0.20640000 0.64780000
vt 0.38970000 0.48920000
vt 0.19150000 0.61250000
vt 0.37200000 0.64780000
vt 0.50390000 0.19780000
vt 0.20640000 0.63010000
vt 0.38970000 0.59650000
vt 0.50390000 0.02630000
vt 0.57890000 0.69170000
vt 0.37200000 0.63010000
vt 0.39180000 0.48420000
vt 0.37200000 0.64230000
vt 0.37200000 0.61170000
vt 0.20640000 0.64230000
vt 0.57670000 0.57940000
vt 0.20640000 0.61170000
vt 0.20640000 0.61170000
vt 0.18850000 0.29060000
vt 0.37200000 0.62460000
vt 0.57670000 0.69680000
vt 0.20640000 0.62460000
vt 0.02300000 0.29060000
vt 0.39180000 0.60160000
vt 0.82610000 0.62020000
vt 0.18080000 0.16420000
vt 0.02950000 0.16420000
vt 0.97730000 0.62020000
vt 0.82610000 0.50200000
vt 0.18080000 0.28250000
vt 0.97730000 0.50200000
vt 0.02950000 0.28250000
vt 0.36530000 0.48590000
vt 0.36530000 0.48590000
vt 0.21430000 0.48590000
vt 0.21430000 0.48590000
vt 0.21430000 0.48590000
vt 0.36530000 0.60300000
vt 0.81780000 0.70770000
vt 0.36530000 0.60300000
vt 0.81780000 0.85880000
vt 0.21430000 0.60300000
vt 0.36480000 0.70780000
vt 0.07610000 0.46890000
vt 0.36480000 0.71990000
vt 0.54830000 0.42910000
vt 0.08520000 0.46890000
vt 0.36480000 0.69870000
vt 0.08520000 0.47790000
vt 0.54830000 0.45030000
vt 0.54830000 0.42000000
vt 0.36480000 0.72900000
vt 0.54830000 0.44120000
vt 0.07610000 0.47790000
vt 0.10090000 0.46890000
vt 0.20640000 0.71990000
vt 0.20640000 0.70780000
vt 0.38980000 0.44120000
vt 0.10090000 0.47790000
vt 0.20640000 0.72900000
vt 0.09190000 0.47790000
vt 0.38980000 0.42000000
vt 0.38980000 0.45030000
vt 0.20640000 0.69870000
vt 0.09190000 0.46890000
vt 0.38980000 0.42910000
vt 0.54830000 0.46230000
vt 0.04470000 0.46890000
vt 0.54830000 0.38670000
vt 0.05370000 0.46890000
vt 0.54830000 0.37770000
vt 0.36480000 0.68660000
vt 0.54830000 0.40790000
vt 0.05370000 0.47790000
vt 0.36480000 0.67760000
vt 0.04470000 0.47790000
vt 0.54830000 0.47140000
vt 0.54830000 0.39880000
vt 0.38980000 0.46230000
vt 0.38980000 0.38670000
vt 0.06950000 0.46890000
vt 0.38980000 0.47140000
vt 0.38980000 0.39880000
vt 0.06950000 0.47790000
vt 0.20640000 0.67760000
vt 0.06040000 0.47790000
vt 0.38980000 0.40790000
vt 0.20640000 0.68660000
vt 0.38980000 0.37770000
vt 0.06040000 0.46890000
vt 0.34980000 0.51720000
vt 0.42920000 0.06130000
vt 0.60840000 0.33340000
vt 0.60840000 0.32140000
vt 0.34980000 0.50340000
vt 0.42920000 0.04930000
vt 0.72640000 0.27240000
vt 0.22230000 0.50340000
vt 0.44930000 0.15980000
vt 0.44930000 0.04990000
vt 0.22230000 0.51720000
vt 0.72640000 0.38240000
vt 0.34980000 0.51350000
vt 0.42580000 0.06130000
vt 0.69110000 0.39340000
vt 0.22230000 0.51350000
vt 0.57310000 0.44240000
vt 0.44590000 0.04990000
vt 0.57310000 0.33240000
vt 0.22230000 0.50710000
vt 0.44590000 0.15980000
vt 0.42580000 0.04930000
vt 0.69110000 0.38140000
vt 0.34980000 0.50710000
vt 0.51660000 0.64390000
vt 0.34980000 0.52720000
vt 0.43930000 0.06130000
vt 0.34980000 0.49340000
vt 0.51660000 0.63190000
vt 0.43930000 0.04930000
vt 0.22230000 0.49340000
vt 0.63460000 0.58290000
vt 0.45930000 0.15980000
vt 0.22230000 0.52720000
vt 0.45930000 0.04990000
vt 0.63460000 0.69290000
vt 0.34980000 0.52350000
vt 0.69110000 0.26990000
vt 0.43580000 0.06130000
vt 0.22230000 0.52350000
vt 0.57310000 0.31890000
vt 0.45590000 0.04990000
vt 0.45590000 0.15980000
vt 0.22230000 0.49710000
vt 0.57310000 0.20890000
vt 0.43580000 0.04930000
vt 0.34980000 0.49710000
vt 0.69110000 0.25790000
vt 0.67470000 0.55440000
vt 0.59390000 0.55440000
vt 0.59390000 0.47350000
vt 0.67470000 0.47350000
vt 0.80980000 0.53820000
vt 0.70160000 0.53820000
vt 0.71240000 0.52050000
vt 0.59020000 0.56810000
vt 0.67840000 0.56810000
vt 0.79900000 0.52050000
vt 0.97370000 0.49450000
vt 0.86100000 0.49450000
vt 0.58010000 0.46990000
vt 0.87220000 0.47870000
vt 0.96250000 0.47870000
vt 0.58010000 0.55800000
vt 0.67140000 0.58310000
vt 0.67140000 0.69130000
vt 0.65370000 0.68050000
vt 0.67840000 0.45980000
vt 0.65370000 0.59380000
vt 0.59020000 0.45980000
vt 0.69380000 0.58080000
vt 0.69380000 0.69350000
vt 0.67800000 0.68230000
vt 0.68850000 0.55800000
vt 0.67800000 0.59200000
vt 0.68850000 0.46990000
vt 0.68180000 0.56310000
vt 0.80650000 0.51920000
vt 0.67800000 0.69010000
vt 0.68600000 0.56560000
vt 0.58520000 0.56140000
vt 0.70490000 0.51920000
vt 0.97020000 0.47870000
vt 0.58270000 0.56560000
vt 0.68340000 0.46650000
vt 0.68600000 0.46230000
vt 0.65240000 0.68800000
vt 0.67800000 0.58430000
vt 0.58690000 0.46480000
vt 0.86440000 0.47870000
vt 0.65240000 0.58640000
vt 0.58270000 0.46230000
vt 0.59360000 0.56250000
vt 0.67570000 0.56220000
vt 0.58570000 0.47320000
vt 0.58600000 0.55530000
vt 0.67510000 0.46540000
vt 0.59300000 0.46570000
vt 0.68290000 0.55470000
vt 0.68260000 0.47260000
vt 0.98020000 0.49450000
vt 0.69530000 0.53710000
vt 0.69380000 0.70010000
vt 0.81610000 0.53710000
vt 0.85440000 0.49450000
vt 0.67040000 0.57680000
vt 0.69380000 0.57430000
vt 0.67040000 0.69760000
vt 0.70060000 0.85880000
vt 0.70060000 0.70770000
f 1/1/1 6/6/6 7/7/7
f 7/7/7 11/11/11 1/1/1
f 15/15/15 18/18/18 19/19/19
f 19/19/19 24/24/24 15/15/15
f 14/14/14 25/25/25 29/29/29
f 29/29/29 16/16/16 14/14/14
f 20/20/20 32/32/32 35/35/35
f 35/35/35 23/23/23 20/20/20
f 13/13/13 22/22/22 10/10/10
f 10/10/10 9/9/9 13/13/13
f 21/21/21 17/17/17 4/4/4
f 4/4/4 3/3/3 21/21/21
f 17/17/17 28/28/28 38/38/38
f 38/38/38 4/4/4 17/17/17
f 30/30/30 27/27/27 42/42/42
f 42/42/42 39/39/39 30/30/30
f 26/26/26 13/13/13 9/9/9
f 9/9/9 41/41/41 26/26/26
f 22/22/22 34/34/34 44/44/44
f 44/44/44 10/10/10 22/22/22
f 36/36/36 33/33/33 48/48/48
f 48/48/48 45/45/45 36/36/36
f 31/31/31 21/21/21 3/3/3
f 3/3/3 47/47/47 31/31/31
f 2/2/2 12/12/12 49/49/49
f 49/49/49 52/52/52 2/2/2
f 12/12/12 43/43/43 54/54/54
f 54/54/54 49/49/49 12/12/12
f 43/43/43 46/46/46 56/56/56
f 56/56/56 54/54/54 43/43/43
f 46/46/46 2/2/2 52/52/52
f 52/52/52 56/56/56 46/46/46
f 8/8/8 5/5/5 57/57/57
f 57/57/57 60/60/60 8/8/8
f 5/5/5 37/37/37 62/62/62
f 62/62/62 57/57/57 5/5/5
f 37/37/37 40/40/40 63/63/63
f 63/63/63 62/62/62 37/37/37
f 40/40/40 8/8/8 60/60/60
f 60/60/60 63/63/63 40/40/40
f 66/66/66 69/69/69 73/73/73
f 73/73/73 75/75/75 66/66/66
f 79/79/79 82/82/82 85/85/85
f 85/85/85 86/86/86 79/79/79
f 78/78/78 89/89/89 93/93/93
f 93/93/93 81/81/81 78/78/78
f 83/83/83 97/97/97 99/99/99
f 99/99/99 87/87/87 83/83/83
f 77/77/77 88/88/88 74/74/74
f 74/74/74 72/72/72 77/77/77
f 84/84/84 80/80/80 70/70/70
f 70/70/70 65/65/65 84/84/84
f 80/80/80 92/92/92 101/101/101
f 101/101/101 70/70/70 80/80/80
f 94/94/94 91/91/91 105/105/105
f 105/105/105 102/102/102 94/94/94
f 90/90/90 77/77/77 72/72/72
f 72/72/72 106/106/106 90/90/90
f 88/88/88 98/98/98 108/108/108
f 108/108/108 74/74/74 88/88/88
f 100/100/100 96/96/96 110/110/110
f 110/110/110 107/107/107 100/100/100
f 95/95/95 84/84/84 65/65/65
f 65/65/65 111/111/111 95/95/95
f 67/67/67 76/76/76 114/114/114
f 114/114/114 115/115/115 67/67/67
f 76/76/76 109/109/109 118/118/118
f 118/118/118 114/114/114 76/76/76
f 109/109/109 112/112/112 119/119/119
f 119/119/119 118/118/118 109/109/109
f 112/112/112 67/67/67 115/115/115
f 115/115/115 119/119/119 112/112/112
f 71/71/71 68/68/68 121/121/121
f 121/121/121 123/123/123 71/71/71
f 68/68/68 103/103/103 125/125/125
f 125/125/125 121/121/121 68/68/68
f 103/103/103 104/104/104 128/128/128
f 128/128/128 125/125/125 103/103/103
f 104/104/104 71/71/71 123/123/123
f 123/123/123 128/128/128 104/104/104
f 131/131/131 133/133/133 137/137/137
f 137/137/137 141/141/141 131/131/131
f 145/145/145 147/147/147 151/151/151
f 151/151/151 154/154/154 145/145/145
f 146/146/146 157/157/157 160/160/160
f 160/160/160 148/148/148 146/146/146
f 152/152/152 162/162/162 165/165/165
f 165/165/165 155/155/155 152/152/152
f 144/144/144 153/153/153 142/142/142
f 142/142/142 138/138/138 144/144/144
f 150/150/150 149/149/149 134/134/134
f 134/134/134 129/129/129 150/150/150
f 149/149/149 159/159/159 168/168/168
f 168/168/168 134/134/134 149/149/149
f 161/161/161 158/158/158 171/171/171
f 171/171/171 169/169/169 161/161/161
f 156/156/156 144/144/144 138/138/138
f 138/138/138 172/172/172 156/156/156
f 153/153/153 166/166/166 177/177/177
f 177/177/177 142/142/142 153/153/153
f 167/167/167 163/163/163 178/178/178
f 178/178/178 176/176/176 167/167/167
f 164/164/164 150/150/150 129/129/129
f 129/129/129 180/180/180 164/164/164
f 130/130/130 143/143/143 182/182/182
f 182/182/182 183/183/183 130/130/130
f 143/143/143 175/175/175 186/186/186
f 186/186/186 182/182/182 143/143/143
f 175/175/175 179/179/179 188/188/188
f 188/188/188 186/186/186 175/175/175
f 179/179/179 130/130/130 183/183/183
f 183/183/183 188/188/188 179/179/179
f 139/139/139 135/135/135 190/190/190
f 190/190/190 192/192/192 139/139/139
f 136/136/136 170/170/170 194/194/194
f 196/196/196 189/189/189 132/132/132
f 170/170/170 174/174/174 198/198/198
f 198/198/198 194/194/194 170/170/170
f 173/173/173 140/140/140 191/191/191
f 193/193/193 198/198/198 174/174/174
f 200/200/200 203/203/203 205/205/205
f 205/205/205 210/210/210 200/200/200
f 211/211/211 215/215/215 217/217/217
f 217/217/217 221/221/221 211/211/211
f 201/201/201 208/208/208 216/216/216
f 216/216/216 212/212/212 201/201/201
f 209/209/209 206/206/206 219/219/219
f 219/219/219 214/214/214 209/209/209
f 207/207/207 202/202/202 222/222/222
f 222/222/222 218/218/218 207/207/207
f 204/204/204 199/199/199 213/213/213
f 213/213/213 220/220/220 204/204/204
f 224/224/224 226/226/226 230/230/230
f 230/230/230 232/232/232 224/224/224
f 237/237/237 240/240/240 242/242/242
f 242/242/242 246/246/246 237/237/237
f 223/223/223 233/233/233 238/238/238
f 238/238/238 235/235/235 223/223/223
f 234/234/234 229/229/229 243/243/243
f 243/243/243 239/239/239 234/234/234
f 231/231/231 228/228/228 244/244/244
f 244/244/244 241/241/241 231/231/231
f 227/227/227 225/225/225 236/236/236
f 236/236/236 245/245/245 227/227/227
f 249/249/249 250/250/250 253/253/253
f 253/253/253 258/258/258 249/249/249
f 261/261/261 263/263/263 265/265/265
f 265/265/265 269/269/269 261/261/261
f 248/248/248 260/260/260 268/268/268
f 268/268/268 252/252/252 248/248/248
f 251/251/251 270/270/270 266/266/266
f 266/266/266 254/254/254 251/251/251
f 255/255/255 267/267/267 264/264/264
f 264/264/264 256/256/256 255/255/255
f 257/257/257 262/262/262 259/259/259
f 259/259/259 247/247/247 257/257/257
f 271/271/271 275/275/275 278/278/278
f 278/278/278 282/282/282 271/271/271
f 284/284/284 287/287/287 291/291/291
f 291/291/291 294/294/294 284/284/284
f 273/273/273 285/285/285 292/292/292
f 292/292/292 276/276/276 273/273/273
f 274/274/274 293/293/293 290/290/290
f 290/290/290 277/277/277 274/274/274
f 279/279/279 289/289/289 288/288/288
f 288/288/288 281/281/281 279/279/279
f 280/280/280 286/286/286 283/283/283
f 283/283/283 272/272/272 280/280/280
f 295/295/295 296/296/296 297/297/297
f 297/297/297 298/298/298 295/295/295
f 299/299/299 300/300/300 301/301/301
f 301/301/301 304/304/304 299/299/299
f 305/305/305 306/306/306 308/308/308
f 308/308/308 309/309/309 305/305/305
f 311/311/311 312/312/312 313/313/313
f 313/313/313 315/315/315 311/311/311
f 317/317/317 318/318/318 319/319/319
f 319/319/319 321/321/321 317/317/317
f 303/303/303 323/323/323 326/326/326
f 310/310/310 327/327/327 330/330/330
f 322/322/322 331/331/331 332/332/332
f 316/316/316 335/335/335 338/338/338
f 339/339/339 296/296/296 295/295/295
f 295/295/295 340/340/340 339/339/339
f 341/341/341 297/297/297 296/296/296
f 296/296/296 342/342/342 341/341/341
f 343/343/343 298/298/298 297/297/297
f 297/297/297 344/344/344 343/343/343
f 345/345/345 295/295/295 298/298/298
f 298/298/298 346/346/346 345/345/345
f 328/328/328 301/301/301 300/300/300
f 300/300/300 348/348/348 328/328/328
f 350/350/350 299/299/299 304/304/304
f 304/304/304 324/324/324 350/350/350
f 336/336/336 308/308/308 306/306/306
f 306/306/306 351/351/351 336/336/336
f 333/333/333 313/313/313 312/312/312
f 312/312/312 354/354/354 333/333/333
f 303/303/303 340/340/340 323/323/323
f 345/345/345 323/323/323 340/340/340
f 340/340/340 295/295/295 345/345/345
f 320/320/320 326/326/326 323/323/323
f 323/323/323 345/345/345 320/320/320
f 310/310/310 342/342/342 327/327/327
f 339/339/339 327/327/327 342/342/342
f 342/342/342 296/296/296 339/339/339
f 302/302/302 330/330/330 327/327/327
f 327/327/327 339/339/339 302/302/302
f 322/322/322 346/346/346 331/331/331
f 343/343/343 331/331/331 346/346/346
f 346/346/346 298/298/298 343/343/343
f 314/314/314 332/332/332 331/331/331
f 331/331/331 343/343/343 314/314/314
f 316/316/316 344/344/344 335/335/335
f 341/341/341 335/335/335 344/344/344
f 344/344/344 297/297/297 341/341/341
f 307/307/307 338/338/338 335/335/335
f 335/335/335 341/341/341 307/307/307
f 302/302/302 339/339/339 340/340/340
f 340/340/340 303/303/303 302/302/302
f 307/307/307 341/341/341 342/342/342
f 342/342/342 310/310/310 307/307/307
f 314/314/314 343/343/343 344/344/344
f 344/344/344 316/316/316 314/314/314
f 320/320/320 345/345/345 346/346/346
f 346/346/346 322/322/322 320/320/320
f 309/309/309 329/329/329 347/347/347
f 347/347/347 305/305/305 309/309/309
f 318/318/318 349/349/349 325/325/325
f 325/325/325 319/319/319 318/318/318
f 315/315/315 337/337/337 352/352/352
f 352/352/352 311/311/311 315/315/315
f 321/321/321 334/334/334 353/353/353
f 353/353/353 317/317/317 321/321/321
f 126/126/126 127/127/127 124/124/124
f 124/124/124 122/122/122 126/126/126
f 117/117/117 120/120/120 116/116/116
f 116/116/116 113/113/113 117/117/117
f 61/61/61 64/64/64 59/59/59
f 59/59/59 58/58/58 61/61/61
f 53/53/53 55/55/55 51/51/51
f 51/51/51 50/50/50 53/53/53
f 195/195/195 197/197/197 355/355/355
f 355/355/355 356/356/356 195/195/195
f 185/185/185 187/187/187 184/184/184
f 184/184/184 181/181/181 185/185/185

