mtllib material.mtl
usemtl material_0
v -258.11428800 67.78073100 -154.87686200
v -258.11428800 67.78073100 -154.87686200
v -258.11428800 51.26930600 -166.43835400
v -258.11428800 51.26930600 -166.43835400
v -258.11428800 51.26930600 -166.43835400
v -230.18919400 51.26930600 -166.43835400
v -230.18919400 51.26930600 -166.43835400
v -230.18919400 51.26930600 -166.43835400
v -230.18919400 67.78073100 -154.87686200
v -230.18919400 67.78073100 -154.87686200
v -258.24960300 55.52656200 -172.51831100
v -258.24960300 55.52656200 -172.51831100
v -230.32470700 55.52656200 -172.51831100
v -230.32470700 55.52656200 -172.51831100
v -258.24960300 72.03798700 -160.95701600
v -230.32470700 72.03798700 -160.95701600
v -230.53208900 51.73986400 -166.51973000
v -230.53208900 51.73986400 -166.51973000
v -230.53208900 51.73986400 -166.51973000
v -257.77813700 51.74415600 -166.52366600
v -257.77813700 51.74415600 -166.52366600
v -257.77813700 51.74415600 -166.52366600
v -257.70233200 68.02133200 -155.22049000
v -257.70233200 68.02133200 -155.22049000
v -230.60879500 68.01704400 -155.21434000
v -230.60879500 68.01704400 -155.21434000
v -230.73796100 55.86478000 -172.27247600
v -230.73796100 55.86478000 -172.27247600
v -257.83169600 55.86945000 -172.28759800
v -257.83169600 55.86945000 -172.28759800
v -257.66183500 72.04414400 -160.96579000
v -230.91249100 72.03183000 -160.94824200
v -258.11428800 0.62963500 -154.87686200
v -258.11428800 0.62963500 -154.87686200
v -258.11428800 -15.88198600 -166.43835400
v -258.11428800 -15.88198600 -166.43835400
v -258.11428800 -15.88198600 -166.43835400
v -230.18919400 -15.88198600 -166.43835400
v -230.18919400 -15.88198600 -166.43835400
v -230.18919400 -15.88198600 -166.43835400
v -230.18919400 0.62963500 -154.87686200
v -230.18919400 0.62963500 -154.87686200
v -258.24960300 -11.62473100 -172.51831100
v -258.24960300 -11.62473100 -172.51831100
v -230.32470700 -11.62473100 -172.51831100
v -230.32470700 -11.62473100 -172.51831100
v -258.24960300 4.88689000 -160.95701600
v -230.32470700 4.88689000 -160.95701600
v -230.53208900 -15.41124000 -166.51973000
v -230.53208900 -15.41124000 -166.51973000
v -230.53208900 -15.41124000 -166.51973000
v -257.77813700 -15.40713200 -166.52366600
v -257.77813700 -15.40713200 -166.52366600
v -257.77813700 -15.40713200 -166.52366600
v -257.70233200 0.87023100 -155.22049000
v -257.70233200 0.87023100 -155.22049000
v -230.60879500 0.86575300 -155.21434000
v -230.60879500 0.86575300 -155.21434000
v -230.73796100 -11.28650900 -172.27247600
v -230.73796100 -11.28650900 -172.27247600
v -257.83169600 -11.28165600 -172.28759800
v -257.83169600 -11.28165600 -172.28759800
v -257.66183500 4.89305100 -160.96579000
v -230.91249100 4.88072500 -160.94824200
v -258.11428800 12.36807400 -154.87686200
v -258.11428800 12.36807400 -154.87686200
v -258.11428800 -4.14335800 -166.43835400
v -258.11428800 -4.14335800 -166.43835400
v -258.11428800 -4.14335800 -166.43835400
v -230.18919400 -4.14335800 -166.43835400
v -230.18919400 -4.14335800 -166.43835400
v -230.18919400 -4.14335800 -166.43835400
v -230.18919400 12.36807400 -154.87686200
v -230.18919400 12.36807400 -154.87686200
v -258.24960300 0.11389800 -172.51831100
v -258.24960300 0.11389800 -172.51831100
v -230.32470700 0.11389800 -172.51831100
v -230.32470700 0.11389800 -172.51831100
v -258.24960300 16.62533200 -160.95701600
v -230.32470700 16.62533200 -160.95701600
v -230.53208900 -3.67279800 -166.51973000
v -230.53208900 -3.67279800 -166.51973000
v -230.53208900 -3.67279800 -166.51973000
v -257.77813700 -3.66869100 -166.52366600
v -257.77813700 -3.66869100 -166.52366600
v -257.77813700 -3.66869100 -166.52366600
v -257.70233200 12.60867500 -155.22049000
v -257.70233200 12.60867500 -155.22049000
v -230.60879500 12.60419300 -155.21434000
v -230.60879500 12.60419300 -155.21434000
v -230.73796100 0.45193300 -172.27247600
v -230.73796100 0.45193300 -172.27247600
v -257.83169600 0.45678600 -172.28759800
v -257.83169600 0.45678600 -172.28759800
v -257.66183500 16.63149100 -160.96579000
v -230.91249100 16.61917300 -160.94824200
v -258.11428800 26.59707300 -154.87686200
v -258.11428800 26.59707300 -154.87686200
v -258.11428800 10.08564100 -166.43835400
v -258.11428800 10.08564100 -166.43835400
v -258.11428800 10.08564100 -166.43835400
v -230.18919400 10.08564100 -166.43835400
v -230.18919400 10.08564100 -166.43835400
v -230.18919400 10.08564100 -166.43835400
v -230.18919400 26.59707300 -154.87686200
v -230.18919400 26.59707300 -154.87686200
v -258.24960300 14.34289700 -172.51831100
v -258.24960300 14.34289700 -172.51831100
v -230.32470700 14.34289700 -172.51831100
v -230.32470700 14.34289700 -172.51831100
v -258.24960300 30.85432600 -160.95701600
v -230.32470700 30.85432600 -160.95701600
v -230.53208900 10.55620300 -166.51973000
v -230.53208900 10.55620300 -166.51973000
v -230.53208900 10.55620300 -166.51973000
v -257.77813700 10.56049300 -166.52366600
v -257.77813700 10.56049300 -166.52366600
v -257.77813700 10.56049300 -166.52366600
v -257.70233200 26.83766900 -155.22049000
v -257.70233200 26.83766900 -155.22049000
v -230.60879500 26.83338200 -155.21434000
v -230.60879500 26.83338200 -155.21434000
v -230.73796100 14.68111800 -172.27229300
v -230.73796100 14.68111800 -172.27229300
v -257.83169600 14.68578300 -172.28759800
v -257.83169600 14.68578300 -172.28759800
v -257.66183500 30.86048500 -160.96579000
v -230.91249100 30.84816700 -160.94824200
v -258.11428800 38.98153700 -154.87686200
v -258.11428800 38.98153700 -154.87686200
v -258.11428800 22.47009800 -166.43835400
v -258.11428800 22.47009800 -166.43835400
v -258.11428800 22.47009800 -166.43835400
v -230.18919400 22.47009800 -166.43835400
v -230.18919400 22.47009800 -166.43835400
v -230.18919400 22.47009800 -166.43835400
v -230.18919400 38.98153700 -154.87686200
v -230.18919400 38.98153700 -154.87686200
v -258.24960300 26.72735600 -172.51831100
v -258.24960300 26.72735600 -172.51831100
v -230.32470700 26.72735600 -172.51831100
v -230.32470700 26.72735600 -172.51831100
v -258.24960300 43.23879200 -160.95701600
v -230.32470700 43.23879200 -160.95701600
v -230.53208900 22.94066000 -166.51973000
v -230.53208900 22.94066000 -166.51973000
v -230.53208900 22.94066000 -166.51973000
v -257.77813700 22.94476500 -166.52366600
v -257.77813700 22.94476500 -166.52366600
v -257.77813700 22.94476500 -166.52366600
v -257.70233200 39.22213400 -155.22049000
v -257.70233200 39.22213400 -155.22049000
v -230.60879500 39.21783800 -155.21434000
v -230.60879500 39.21783800 -155.21434000
v -230.73796100 27.06539300 -172.27247600
v -230.73796100 27.06539300 -172.27247600
v -257.83169600 27.07024600 -172.28759800
v -257.83169600 27.07024600 -172.28759800
v -257.66183500 43.24495300 -160.96579000
v -230.91249100 43.23263200 -160.94824200
v -258.11428800 53.17805100 -154.87686200
v -258.11428800 53.17805100 -154.87686200
v -258.11428800 36.66662200 -166.43835400
v -258.11428800 36.66662200 -166.43835400
v -258.11428800 36.66662200 -166.43835400
v -230.18919400 36.66662200 -166.43835400
v -230.18919400 36.66662200 -166.43835400
v -230.18919400 36.66662200 -166.43835400
v -230.18919400 53.17805100 -154.87686200
v -230.18919400 53.17805100 -154.87686200
v -258.24960300 40.92388200 -172.51831100
v -258.24960300 40.92388200 -172.51831100
v -230.32470700 40.92388200 -172.51831100
v -230.32470700 40.92388200 -172.51831100
v -258.24960300 57.43530700 -160.95701600
v -230.32470700 57.43530700 -160.95701600
v -230.53208900 37.13718000 -166.51973000
v -230.53208900 37.13718000 -166.51973000
v -230.53208900 37.13718000 -166.51973000
v -257.77813700 37.14147600 -166.52366600
v -257.77813700 37.14147600 -166.52366600
v -257.77813700 37.14147600 -166.52366600
v -257.70233200 53.41865500 -155.22049000
v -257.70233200 53.41865500 -155.22049000
v -230.60879500 53.41436400 -155.21434000
v -230.60879500 53.41436400 -155.21434000
v -230.73796100 41.26209600 -172.27247600
v -230.73796100 41.26209600 -172.27247600
v -257.83169600 41.26676900 -172.28759800
v -257.83169600 41.26676900 -172.28759800
v -257.66183500 57.44146700 -160.96579000
v -230.91249100 57.42915000 -160.94824200
vn -0.00000000 -0.57360000 0.81920000
vn -0.99980000 -0.01050000 0.01490000
vn -0.99980000 -0.01050000 0.01490000
vn -0.00000000 -0.57360000 0.81920000
vn -0.00000000 -0.81920000 -0.57360000
vn -0.00000000 -0.57360000 0.81920000
vn -0.00000000 -0.81910000 -0.57360000
vn 0.99980000 0.01050000 -0.01500000
vn 0.99980000 0.01050000 -0.01500000
vn -0.00000000 -0.57360000 0.81920000
vn -0.99980000 -0.01050000 0.01490000
vn -0.00000000 -0.81920000 -0.57360000
vn -0.00000000 -0.81910000 -0.57360000
vn 0.99980000 0.01050000 -0.01500000
vn -0.99980000 -0.01050000 0.01490000
vn 0.99980000 0.01050000 -0.01500000
vn 0.00020000 0.57040000 -0.82130000
vn -0.00010000 0.81280000 0.58260000
vn -0.99960000 -0.01970000 0.02160000
vn 1.00000000 -0.00350000 -0.00820000
vn -0.00000000 0.81320000 0.58200000
vn 0.00020000 0.57040000 -0.82140000
vn 1.00000000 -0.00640000 0.00250000
vn 0.00020000 0.57040000 -0.82140000
vn -0.99920000 -0.02940000 0.02850000
vn 0.00030000 0.57050000 -0.82130000
vn -0.99950000 -0.02240000 0.02350000
vn -0.00020000 0.81270000 0.58270000
vn 0.99990000 -0.00270000 -0.01120000
vn -0.00000000 0.81310000 0.58210000
vn 1.00000000 -0.00560000 -0.00050000
vn -0.99900000 -0.03210000 0.03040000
vn -0.99980000 -0.01050000 0.01490000
vn -0.00000000 -0.57360000 0.81920000
vn -0.00000000 -0.57360000 0.81920000
vn -0.99980000 -0.01050000 0.01490000
vn -0.00000000 -0.81920000 -0.57360000
vn -0.00000000 -0.57360000 0.81920000
vn 0.99980000 0.01050000 -0.01500000
vn -0.00000000 -0.81920000 -0.57360000
vn -0.00000000 -0.57360000 0.81920000
vn 0.99980000 0.01050000 -0.01500000
vn -0.99980000 -0.01050000 0.01490000
vn -0.00000000 -0.81920000 -0.57360000
vn -0.00000000 -0.81920000 -0.57360000
vn 0.99980000 0.01050000 -0.01500000
vn -0.99980000 -0.01050000 0.01490000
vn 0.99980000 0.01050000 -0.01500000
vn -0.99960000 -0.01970000 0.02160000
vn 0.00020000 0.57040000 -0.82130000
vn -0.00010000 0.81280000 0.58260000
vn -0.00000000 0.81320000 0.58200000
vn 1.00000000 -0.00350000 -0.00820000
vn 0.00020000 0.57040000 -0.82140000
vn 0.00020000 0.57040000 -0.82140000
vn 1.00000000 -0.00640000 0.00250000
vn 0.00030000 0.57050000 -0.82130000
vn -0.99920000 -0.02940000 0.02850000
vn -0.99950000 -0.02240000 0.02350000
vn -0.00020000 0.81270000 0.58270000
vn -0.00000000 0.81310000 0.58210000
vn 0.99990000 -0.00270000 -0.01120000
vn 1.00000000 -0.00560000 -0.00050000
vn -0.99900000 -0.03210000 0.03040000
vn -0.00000000 -0.57360000 0.81920000
vn -0.99980000 -0.01050000 0.01490000
vn -0.00000000 -0.57360000 0.81920000
vn -0.00000000 -0.81920000 -0.57360000
vn -0.99980000 -0.01050000 0.01490000
vn -0.00000000 -0.81920000 -0.57360000
vn 0.99980000 0.01050000 -0.01500000
vn -0.00000000 -0.57360000 0.81920000
vn 0.99980000 0.01050000 -0.01500000
vn -0.00000000 -0.57360000 0.81920000
vn -0.99980000 -0.01050000 0.01490000
vn -0.00000000 -0.81920000 -0.57360000
vn 0.99980000 0.01050000 -0.01500000
vn -0.00000000 -0.81920000 -0.57360000
vn -0.99980000 -0.01050000 0.01490000
vn 0.99980000 0.01050000 -0.01500000
vn -0.99960000 -0.01970000 0.02160000
vn -0.00010000 0.81280000 0.58260000
vn 0.00030000 0.57040000 -0.82130000
vn -0.00000000 0.81320000 0.58200000
vn 0.00020000 0.57040000 -0.82140000
vn 1.00000000 -0.00350000 -0.00820000
vn 1.00000000 -0.00640000 0.00250000
vn 0.00020000 0.57040000 -0.82140000
vn 0.00030000 0.57050000 -0.82130000
vn -0.99920000 -0.02940000 0.02850000
vn -0.99950000 -0.02240000 0.02350000
vn -0.00020000 0.81270000 0.58270000
vn 0.99990000 -0.00270000 -0.01120000
vn -0.00000000 0.81310000 0.58210000
vn 1.00000000 -0.00560000 -0.00050000
vn -0.99900000 -0.03210000 0.03040000
vn -0.99980000 -0.01050000 0.01490000
vn -0.00000000 -0.57360000 0.81920000
vn -0.00000000 -0.81920000 -0.57360000
vn -0.99980000 -0.01050000 0.01490000
vn -0.00000000 -0.57360000 0.81920000
vn -0.00000000 -0.81920000 -0.57360000
vn 0.99980000 0.01050000 -0.01500000
vn -0.00000000 -0.57360000 0.81920000
vn 0.99980000 0.01050000 -0.01500000
vn -0.00000000 -0.57360000 0.81920000
vn -0.99980000 -0.01050000 0.01490000
vn -0.00000000 -0.81920000 -0.57360000
vn -0.00000000 -0.81920000 -0.57360000
vn 0.99980000 0.01050000 -0.01500000
vn -0.99980000 -0.01050000 0.01490000
vn 0.99980000 0.01050000 -0.01500000
vn -0.99960000 -0.01970000 0.02160000
vn -0.00020000 0.81270000 0.58260000
vn 0.00020000 0.57040000 -0.82130000
vn 0.00020000 0.57040000 -0.82140000
vn 1.00000000 -0.00350000 -0.00820000
vn -0.00000000 0.81320000 0.58200000
vn 0.00020000 0.57040000 -0.82140000
vn 1.00000000 -0.00640000 0.00250000
vn 0.00030000 0.57050000 -0.82130000
vn -0.99920000 -0.02940000 0.02850000
vn -0.99950000 -0.02240000 0.02350000
vn -0.00020000 0.81270000 0.58270000
vn 0.99990000 -0.00270000 -0.01120000
vn -0.00000000 0.81310000 0.58210000
vn 1.00000000 -0.00560000 -0.00050000
vn -0.99900000 -0.03210000 0.03040000
vn -0.99980000 -0.01050000 0.01490000
vn -0.00000000 -0.57360000 0.81920000
vn -0.99980000 -0.01050000 0.01490000
vn -0.00000000 -0.81920000 -0.57360000
vn -0.00000000 -0.57360000 0.81920000
vn 0.99980000 0.01050000 -0.01500000
vn -0.00000000 -0.81920000 -0.57360000
vn -0.00000000 -0.57360000 0.81920000
vn 0.99980000 0.01050000 -0.01500000
vn -0.00000000 -0.57360000 0.81920000
vn -0.99980000 -0.01050000 0.01490000
vn -0.00000000 -0.81920000 -0.57360000
vn 0.99980000 0.01050000 -0.01500000
vn -0.00000000 -0.81920000 -0.57360000
vn -0.99980000 -0.01050000 0.01490000
vn 0.99980000 0.01050000 -0.01500000
vn -0.99960000 -0.01970000 0.02160000
vn -0.00010000 0.81280000 0.58260000
vn 0.00020000 0.57040000 -0.82130000
vn 0.00020000 0.57040000 -0.82140000
vn 1.00000000 -0.00350000 -0.00820000
vn -0.00000000 0.81320000 0.58200000
vn 0.00020000 0.57040000 -0.82140000
vn 1.00000000 -0.00640000 0.00250000
vn -0.99920000 -0.02940000 0.02850000
vn 0.00030000 0.57050000 -0.82130000
vn -0.00020000 0.81270000 0.58270000
vn -0.99950000 -0.02240000 0.02350000
vn 0.99990000 -0.00270000 -0.01120000
vn -0.00000000 0.81310000 0.58210000
vn 1.00000000 -0.00560000 -0.00050000
vn -0.99900000 -0.03210000 0.03040000
vn -0.00000000 -0.57360000 0.81920000
vn -0.99980000 -0.01050000 0.01490000
vn -0.00000000 -0.57360000 0.81920000
vn -0.99980000 -0.01050000 0.01490000
vn -0.00000000 -0.81910000 -0.57360000
vn -0.00000000 -0.57360000 0.81920000
vn 0.99980000 0.01050000 -0.01500000
vn -0.00000000 -0.81920000 -0.57360000
vn -0.00000000 -0.57360000 0.81920000
vn 0.99980000 0.01050000 -0.01500000
vn -0.00000000 -0.81920000 -0.57360000
vn -0.99980000 -0.01050000 0.01490000
vn 0.99980000 0.01050000 -0.01500000
vn -0.00000000 -0.81920000 -0.57360000
vn -0.99980000 -0.01050000 0.01490000
vn 0.99980000 0.01050000 -0.01500000
vn -0.99960000 -0.01970000 0.02160000
vn 0.00030000 0.57040000 -0.82130000
vn -0.00010000 0.81280000 0.58260000
vn 0.00020000 0.57040000 -0.82140000
vn 1.00000000 -0.00350000 -0.00820000
vn -0.00000000 0.81320000 0.58200000
vn 1.00000000 -0.00640000 0.00250000
vn 0.00020000 0.57040000 -0.82140000
vn -0.99920000 -0.02940000 0.02850000
vn 0.00030000 0.57050000 -0.82130000
vn -0.99950000 -0.02240000 0.02350000
vn -0.00020000 0.81270000 0.58270000
vn -0.00000000 0.81310000 0.58210000
vn 0.99990000 -0.00270000 -0.01120000
vn 1.00000000 -0.00560000 -0.00050000
vn -0.99900000 -0.03210000 0.03040000
vt 0.00000000 1.00000000
vt 1.00000000 0.00000000
vt 0.00000000 0.00000000
vt 0.00000000 0.00000000
vt 1.00000000 0.00000000
vt 1.00000000 0.00000000
vt 0.00000000 0.00000000
vt 1.00000000 0.00000000
vt 0.00000000 0.00000000
vt 1.00000000 1.00000000
vt 0.00000000 1.00000000
vt 1.00000000 1.00000000
vt 0.00000000 1.00000000
vt 1.00000000 1.00000000
vt 1.00000000 1.00000000
vt 0.00000000 1.00000000
vt 1.00000000 0.00000000
vt 0.00000000 0.00000000
vt 1.00000000 0.00000000
vt 0.00000000 0.00000000
vt 1.00000000 0.00000000
vt 0.00000000 0.00000000
vt 1.00000000 0.00000000
vt 0.00000000 1.00000000
vt 0.00000000 0.00000000
vt 1.00000000 1.00000000
vt 1.00000000 1.00000000
vt 0.00000000 1.00000000
vt 0.00000000 1.00000000
vt 1.00000000 1.00000000
vt 1.00000000 1.00000000
vt 0.00000000 1.00000000
vt 1.00000000 0.00000000
vt 0.00000000 1.00000000
vt 0.00000000 0.00000000
vt 0.00000000 0.00000000
vt 1.00000000 0.00000000
vt 1.00000000 0.00000000
vt 1.00000000 0.00000000
vt 0.00000000 0.00000000
vt 1.00000000 1.00000000
vt 0.00000000 0.00000000
vt 0.00000000 1.00000000
vt 1.00000000 1.00000000
vt 0.00000000 1.00000000
vt 1.00000000 1.00000000
vt 1.00000000 1.00000000
vt 0.00000000 1.00000000
vt 1.00000000 0.00000000
vt 1.00000000 0.00000000
vt 0.00000000 0.00000000
vt 1.00000000 0.00000000
vt 0.00000000 0.00000000
vt 0.00000000 0.00000000
vt 0.00000000 1.00000000
vt 1.00000000 0.00000000
vt 1.00000000 1.00000000
vt 0.00000000 0.00000000
vt 1.00000000 1.00000000
vt 0.00000000 1.00000000
vt 1.00000000 1.00000000
vt 0.00000000 1.00000000
vt 1.00000000 1.00000000
vt 0.00000000 1.00000000
vt 0.00000000 1.00000000
vt 1.00000000 0.00000000
vt 0.00000000 0.00000000
vt 1.00000000 0.00000000
vt 0.00000000 0.00000000
vt 0.00000000 0.00000000
vt 1.00000000 0.00000000
vt 1.00000000 0.00000000
vt 0.00000000 0.00000000
vt 1.00000000 1.00000000
vt 0.00000000 1.00000000
vt 1.00000000 1.00000000
vt 1.00000000 1.00000000
vt 0.00000000 1.00000000
vt 1.00000000 1.00000000
vt 0.00000000 1.00000000
vt 1.00000000 0.00000000
vt 0.00000000 0.00000000
vt 1.00000000 0.00000000
vt 1.00000000 0.00000000
vt 0.00000000 0.00000000
vt 0.00000000 0.00000000
vt 1.00000000 0.00000000
vt 0.00000000 1.00000000
vt 1.00000000 1.00000000
vt 0.00000000 0.00000000
vt 1.00000000 1.00000000
vt 0.00000000 1.00000000
vt 0.00000000 1.00000000
vt 1.00000000 1.00000000
vt 1.00000000 1.00000000
vt 0.00000000 1.00000000
vt 1.00000000 0.00000000
vt 0.00000000 1.00000000
vt 1.00000000 0.00000000
vt 0.00000000 0.00000000
vt 0.00000000 0.00000000
vt 0.00000000 0.00000000
vt 1.00000000 0.00000000
vt 1.00000000 0.00000000
vt 0.00000000 0.00000000
vt 1.00000000 1.00000000
vt 0.00000000 1.00000000
vt 1.00000000 1.00000000
vt 0.00000000 1.00000000
vt 1.00000000 1.00000000
vt 1.00000000 1.00000000
vt 0.00000000 1.00000000
vt 1.00000000 0.00000000
vt 0.00000000 0.00000000
vt 1.00000000 0.00000000
vt 0.00000000 0.00000000
vt 0.00000000 0.00000000
vt 1.00000000 0.00000000
vt 0.00000000 1.00000000
vt 1.00000000 0.00000000
vt 1.00000000 1.00000000
vt 0.00000000 0.00000000
vt 1.00000000 1.00000000
vt 0.00000000 1.00000000
vt 0.00000000 1.00000000
vt 1.00000000 1.00000000
vt 1.00000000 1.00000000
vt 0.00000000 1.00000000
vt 1.00000000 0.00000000
vt 0.00000000 1.00000000
vt 0.00000000 0.00000000
vt 1.00000000 0.00000000
vt 0.00000000 0.00000000
vt 1.00000000 0.00000000
vt 0.00000000 0.00000000
vt 1.00000000 0.00000000
vt 0.00000000 0.00000000
vt 1.00000000 1.00000000
vt 0.00000000 1.00000000
vt 1.00000000 1.00000000
vt 1.00000000 1.00000000
vt 0.00000000 1.00000000
vt 1.00000000 1.00000000
vt 0.00000000 1.00000000
vt 1.00000000 0.00000000
vt 0.00000000 0.00000000
vt 1.00000000 0.00000000
vt 0.00000000 0.00000000
vt 0.00000000 0.00000000
vt 1.00000000 0.00000000
vt 0.00000000 1.00000000
vt 1.00000000 0.00000000
vt 0.00000000 0.00000000
vt 1.00000000 1.00000000
vt 0.00000000 1.00000000
vt 1.00000000 1.00000000
vt 0.00000000 1.00000000
vt 1.00000000 1.00000000
vt 1.00000000 1.00000000
vt 0.00000000 1.00000000
vt 0.00000000 1.00000000
vt 1.00000000 0.00000000
vt 0.00000000 0.00000000
vt 0.00000000 0.00000000
vt 1.00000000 0.00000000
vt 1.00000000 0.00000000
vt 1.00000000 0.00000000
vt 0.00000000 0.00000000
vt 1.00000000 1.00000000
vt 0.00000000 0.00000000
vt 1.00000000 1.00000000
vt 0.00000000 1.00000000
vt 1.00000000 1.00000000
vt 0.00000000 1.00000000
vt 1.00000000 1.00000000
vt 0.00000000 1.00000000
vt 1.00000000 0.00000000
vt 1.00000000 0.00000000
vt 0.00000000 0.00000000
vt 0.00000000 0.00000000
vt 0.00000000 0.00000000
vt 1.00000000 0.00000000
vt 1.00000000 0.00000000
vt 0.00000000 1.00000000
vt 0.00000000 0.00000000
vt 1.00000000 1.00000000
vt 1.00000000 1.00000000
vt 0.00000000 1.00000000
vt 1.00000000 1.00000000
vt 0.00000000 1.00000000
vt 1.00000000 1.00000000
vt 0.00000000 1.00000000
f 1/1/1 4/4/4 6/6/6
f 6/6/6 10/10/10 1/1/1
f 12/12/12 13/13/13 7/7/7
f 7/7/7 5/5/5 12/12/12
f 15/15/15 11/11/11 3/3/3
f 3/3/3 2/2/2 15/15/15
f 14/14/14 16/16/16 9/9/9
f 9/9/9 8/8/8 14/14/14
f 17/17/17 22/22/22 24/24/24
f 24/24/24 26/26/26 17/17/17
f 18/18/18 28/28/28 30/30/30
f 30/30/30 21/21/21 18/18/18
f 20/20/20 29/29/29 31/31/31
f 31/31/31 23/23/23 20/20/20
f 25/25/25 32/32/32 27/27/27
f 27/27/27 19/19/19 25/25/25
f 34/34/34 35/35/35 38/38/38
f 38/38/38 41/41/41 34/34/34
f 44/44/44 45/45/45 40/40/40
f 40/40/40 37/37/37 44/44/44
f 47/47/47 43/43/43 36/36/36
f 36/36/36 33/33/33 47/47/47
f 46/46/46 48/48/48 42/42/42
f 42/42/42 39/39/39 46/46/46
f 50/50/50 54/54/54 55/55/55
f 55/55/55 57/57/57 50/50/50
f 51/51/51 60/60/60 61/61/61
f 61/61/61 52/52/52 51/51/51
f 53/53/53 62/62/62 63/63/63
f 63/63/63 56/56/56 53/53/53
f 58/58/58 64/64/64 59/59/59
f 59/59/59 49/49/49 58/58/58
f 65/65/65 67/67/67 72/72/72
f 72/72/72 74/74/74 65/65/65
f 76/76/76 78/78/78 70/70/70
f 70/70/70 68/68/68 76/76/76
f 79/79/79 75/75/75 69/69/69
f 69/69/69 66/66/66 79/79/79
f 77/77/77 80/80/80 73/73/73
f 73/73/73 71/71/71 77/77/77
f 83/83/83 85/85/85 88/88/88
f 88/88/88 89/89/89 83/83/83
f 82/82/82 92/92/92 94/94/94
f 94/94/94 84/84/84 82/82/82
f 86/86/86 93/93/93 95/95/95
f 95/95/95 87/87/87 86/86/86
f 90/90/90 96/96/96 91/91/91
f 91/91/91 81/81/81 90/90/90
f 98/98/98 101/101/101 104/104/104
f 104/104/104 106/106/106 98/98/98
f 108/108/108 109/109/109 102/102/102
f 102/102/102 99/99/99 108/108/108
f 111/111/111 107/107/107 100/100/100
f 100/100/100 97/97/97 111/111/111
f 110/110/110 112/112/112 105/105/105
f 105/105/105 103/103/103 110/110/110
f 115/115/115 116/116/116 119/119/119
f 119/119/119 121/121/121 115/115/115
f 114/114/114 124/124/124 126/126/126
f 126/126/126 118/118/118 114/114/114
f 117/117/117 125/125/125 127/127/127
f 127/127/127 120/120/120 117/117/117
f 122/122/122 128/128/128 123/123/123
f 123/123/123 113/113/113 122/122/122
f 130/130/130 133/133/133 136/136/136
f 136/136/136 138/138/138 130/130/130
f 140/140/140 142/142/142 135/135/135
f 135/135/135 132/132/132 140/140/140
f 143/143/143 139/139/139 131/131/131
f 131/131/131 129/129/129 143/143/143
f 141/141/141 144/144/144 137/137/137
f 137/137/137 134/134/134 141/141/141
f 147/147/147 148/148/148 151/151/151
f 151/151/151 154/154/154 147/147/147
f 146/146/146 155/155/155 158/158/158
f 158/158/158 150/150/150 146/146/146
f 149/149/149 157/157/157 159/159/159
f 159/159/159 152/152/152 149/149/149
f 153/153/153 160/160/160 156/156/156
f 156/156/156 145/145/145 153/153/153
f 161/161/161 163/163/163 166/166/166
f 166/166/166 169/169/169 161/161/161
f 171/171/171 174/174/174 168/168/168
f 168/168/168 165/165/165 171/171/171
f 175/175/175 172/172/172 164/164/164
f 164/164/164 162/162/162 175/175/175
f 173/173/173 176/176/176 170/170/170
f 170/170/170 167/167/167 173/173/173
f 178/178/178 180/180/180 184/184/184
f 184/184/184 186/186/186 178/178/178
f 179/179/179 188/188/188 189/189/189
f 189/189/189 182/182/182 179/179/179
f 181/181/181 190/190/190 191/191/191
f 191/191/191 183/183/183 181/181/181
f 185/185/185 192/192/192 187/187/187
f 187/187/187 177/177/177 185/185/185

