mtllib material.mtl
usemtl material_0
v 363.41149900 -32.59352100 -267.11462400
v 560.35907000 -32.59352100 -267.11462400
v 560.35907000 -32.59352900 -336.73593100
v 363.41149900 -32.59352900 -336.73593100
v 560.32006800 -32.59349100 153.91803000
v 560.32006800 -32.59349100 153.91803000
v 560.35925300 -32.59349100 157.53933700
v 560.35925300 -32.59352100 -267.11462400
v 560.10687300 -32.59349100 143.91380300
v 560.10687300 -32.59349100 143.91380300
v 559.72180200 -32.59349100 131.01696800
v 559.72180200 -32.59349100 131.01696800
v 559.12207000 -32.59349400 114.50403600
v 559.12207000 -32.59349400 114.50403600
v 558.26483200 -32.59349400 93.65210700
v 558.26483200 -32.59349400 93.65210700
v 556.86669900 -32.59349800 65.35072300
v 556.86669900 -32.59349800 65.35072300
v 554.09063700 -32.59349800 28.82767700
v 554.09063700 -32.59349800 28.82767700
v 549.06207300 -32.59350200 -13.13303500
v 549.06207300 -32.59350200 -13.13303500
v 540.90704300 -32.59350600 -57.74725000
v 528.75085400 -32.59351000 -102.23100300
v 528.75085400 -32.59351000 -102.23100300
v 511.71981800 -32.59351300 -143.80011000
v 488.93917800 -32.59351700 -179.67079200
v 488.93917800 -32.59351700 -179.67079200
v 464.66693100 -32.59351700 -207.75604200
v 443.40866100 -32.59352100 -228.62643400
v 443.40866100 -32.59352100 -228.62643400
v 424.66238400 -32.59352100 -243.48484800
v 424.66238400 -32.59352100 -243.48484800
v 407.92547600 -32.59352100 -253.53331000
v 392.69543500 -32.59352100 -259.97467000
v 392.69543500 -32.59352100 -259.97467000
v 378.47015400 -32.59352100 -264.01107800
v 378.47015400 -32.59352100 -264.01107800
v 363.72937000 -32.59352100 -267.11444100
v 363.72937000 -32.59352100 -267.11444100
v 560.35907000 -32.59349100 173.80587800
v 560.35907000 -32.59349100 157.53468300
v 542.93469200 -32.59350600 -46.65427000
v 542.93469200 -32.59350600 -46.65427000
v 363.41149900 -32.59350600 -46.65427000
v 363.41149900 -32.59350600 -46.65427000
v 363.41149900 -32.59349100 173.80587800
v 540.90686000 -32.59350600 -57.74725000
v 523.05804400 -32.59351000 -116.12570200
v 511.71963500 -32.59351300 -143.80011000
v 464.66693100 -32.59351700 -207.75584400
v 529.94677700 -32.59351000 -97.85466800
v 531.79113800 -32.59351000 -91.10534700
v 533.15502900 -32.59351000 -86.11416600
v 534.25817900 -32.59351000 -82.07791100
v 407.92529300 -32.59352100 -253.53331000
v 535.18603500 -32.59351000 -78.68225900
v 535.97576900 -32.59351000 -75.79244200
v 363.41149900 -32.59352100 -267.11444100
v 363.41149900 -32.59347200 394.26620500
v 560.35907000 -32.59347200 394.26620500
v 560.35907000 -32.59349100 173.80607600
v 363.41149900 -32.59349100 173.80607600
vn -0.00000000 1.00000000 -0.00000000
vn -0.00000000 1.00000000 -0.00000000
vn -0.00000000 1.00000000 -0.00000000
vn -0.00000000 1.00000000 -0.00000000
vn -0.00000000 1.00000000 -0.00000000
vn -0.00000000 1.00000000 -0.00000000
vn -0.00000000 1.00000000 -0.00000000
vn -0.00000000 1.00000000 -0.00000000
vn -0.00000000 1.00000000 -0.00000000
vn -0.00000000 1.00000000 -0.00000000
vn -0.00000000 1.00000000 -0.00000000
vn -0.00000000 1.00000000 -0.00000000
vn -0.00000000 1.00000000 -0.00000000
vn -0.00000000 1.00000000 -0.00000000
vn -0.00000000 1.00000000 -0.00000000
vn -0.00000000 1.00000000 -0.00000000
vn -0.00000000 1.00000000 -0.00000000
vn -0.00000000 1.00000000 -0.00000000
vn -0.00000000 1.00000000 -0.00000000
vn -0.00000000 1.00000000 -0.00000000
vn -0.00000000 1.00000000 -0.00000000
vn -0.00000000 1.00000000 -0.00000000
vn -0.00000000 1.00000000 -0.00000000
vn -0.00000000 1.00000000 -0.00000000
vn -0.00000000 1.00000000 -0.00000000
vn -0.00000000 1.00000000 -0.00000000
vn -0.00000000 1.00000000 -0.00000000
vn -0.00000000 1.00000000 -0.00000000
vn -0.00000000 1.00000000 -0.00000000
vn -0.00000000 1.00000000 -0.00000000
vn -0.00000000 1.00000000 -0.00000000
vn -0.00000000 1.00000000 -0.00000000
vn -0.00000000 1.00000000 -0.00000000
vn -0.00000000 1.00000000 -0.00000000
vn -0.00000000 1.00000000 -0.00000000
vn -0.00000000 1.00000000 -0.00000000
vn -0.00000000 1.00000000 -0.00000000
vn -0.00000000 1.00000000 -0.00000000
vn -0.00000000 1.00000000 -0.00000000
vn -0.00000000 1.00000000 -0.00000000
vn -0.00000000 1.00000000 -0.00000000
vn -0.00000000 1.00000000 -0.00000000
vn -0.00000000 1.00000000 -0.00000000
vn -0.00000000 1.00000000 -0.00000000
vn -0.00000000 1.00000000 -0.00000000
vn -0.00000000 1.00000000 -0.00000000
vn -0.00000000 1.00000000 -0.00000000
vn -0.00000000 1.00000000 -0.00000000
vn -0.00000000 1.00000000 -0.00000000
vn -0.00000000 1.00000000 -0.00000000
vn -0.00000000 1.00000000 -0.00000000
vn -0.00000000 1.00000000 -0.00000000
vn -0.00000000 1.00000000 -0.00000000
vn -0.00000000 1.00000000 -0.00000000
vn -0.00000000 1.00000000 -0.00000000
vn -0.00000000 1.00000000 -0.00000000
vn -0.00000000 1.00000000 -0.00000000
vn -0.00000000 1.00000000 -0.00000000
vn -0.00000000 1.00000000 -0.00000000
vn -0.00000000 1.00000000 -0.00000000
vn -0.00000000 1.00000000 -0.00000000
vn -0.00000000 1.00000000 -0.00000000
vn -0.00000000 1.00000000 -0.00000000
vt 0.52850000 0.98020000
vt 0.15770000 0.98020000
vt 0.15770000 0.84910000
vt 0.52850000 0.84910000
vt 0.96010000 0.18760000
vt 0.39240000 0.05720000
vt 0.96010000 0.18070000
vt 0.96010000 0.98020000
vt 0.95970000 0.20640000
vt 0.39200000 0.07610000
vt 0.95890000 0.23070000
vt 0.39130000 0.10040000
vt 0.95780000 0.26180000
vt 0.39020000 0.13140000
vt 0.38860000 0.17070000
vt 0.95620000 0.30100000
vt 0.95360000 0.35430000
vt 0.38590000 0.22400000
vt 0.38070000 0.29270000
vt 0.94830000 0.42310000
vt 0.37120000 0.37170000
vt 0.93890000 0.50200000
vt 0.92350000 0.58600000
vt 0.81680000 0.12540000
vt 0.90060000 0.66980000
vt 0.86860000 0.74800000
vt 0.82570000 0.81560000
vt 0.81450000 0.28930000
vt 0.78000000 0.86850000
vt 0.74000000 0.90770000
vt 0.77880000 0.41000000
vt 0.70470000 0.93570000
vt 0.75960000 0.45070000
vt 0.67320000 0.95460000
vt 0.64450000 0.96680000
vt 0.71950000 0.50530000
vt 0.69890000 0.52400000
vt 0.61770000 0.97440000
vt 0.67670000 0.54160000
vt 0.59000000 0.98020000
vt 0.39250000 0.01980000
vt 0.39250000 0.05040000
vt 0.35970000 0.43480000
vt 0.79410000 0.01980000
vt 0.49150000 0.17020000
vt 0.02170000 0.43480000
vt 0.02170000 0.01980000
vt 0.80000000 0.04020000
vt 0.81880000 0.15360000
vt 0.82290000 0.20970000
vt 0.79710000 0.35700000
vt 0.81510000 0.11700000
vt 0.81260000 0.10410000
vt 0.81070000 0.09450000
vt 0.80920000 0.08680000
vt 0.73980000 0.48170000
vt 0.80790000 0.08030000
vt 0.80680000 0.07480000
vt 0.67610000 0.54190000
vt 0.43480000 0.45020000
vt 0.43480000 0.82090000
vt 0.01980000 0.82090000
vt 0.01980000 0.45020000
f 1/1/1 2/2/2 3/3/3
f 3/3/3 4/4/4 1/1/1
f 5/5/5 7/7/7 8/8/8
f 9/9/9 5/5/5 8/8/8
f 11/11/11 9/9/9 8/8/8
f 13/13/13 11/11/11 8/8/8
f 16/16/16 13/13/13 8/8/8
f 17/17/17 16/16/16 8/8/8
f 20/20/20 17/17/17 8/8/8
f 22/22/22 20/20/20 8/8/8
f 23/23/23 22/22/22 8/8/8
f 25/25/25 23/23/23 8/8/8
f 26/26/26 25/25/25 8/8/8
f 27/27/27 26/26/26 8/8/8
f 29/29/29 27/27/27 8/8/8
f 30/30/30 29/29/29 8/8/8
f 32/32/32 30/30/30 8/8/8
f 34/34/34 32/32/32 8/8/8
f 35/35/35 34/34/34 8/8/8
f 38/38/38 35/35/35 8/8/8
f 38/38/38 8/8/8 40/40/40
f 41/41/41 42/42/42 6/6/6
f 41/41/41 6/6/6 10/10/10
f 41/41/41 10/10/10 12/12/12
f 41/41/41 12/12/12 14/14/14
f 41/41/41 14/14/14 15/15/15
f 41/41/41 15/15/15 18/18/18
f 41/41/41 18/18/18 19/19/19
f 41/41/41 19/19/19 21/21/21
f 21/21/21 43/43/43 46/46/46
f 41/41/41 21/21/21 46/46/46
f 47/47/47 41/41/41 46/46/46
f 45/45/45 44/44/44 48/48/48
f 49/49/49 50/50/50 28/28/28
f 24/24/24 49/49/49 28/28/28
f 24/24/24 28/28/28 51/51/51
f 52/52/52 24/24/24 51/51/51
f 53/53/53 52/52/52 51/51/51
f 53/53/53 51/51/51 31/31/31
f 54/54/54 53/53/53 31/31/31
f 54/54/54 31/31/31 33/33/33
f 55/55/55 54/54/54 33/33/33
f 55/55/55 33/33/33 56/56/56
f 57/57/57 55/55/55 56/56/56
f 57/57/57 56/56/56 36/36/36
f 58/58/58 57/57/57 36/36/36
f 58/58/58 36/36/36 37/37/37
f 48/48/48 58/58/58 37/37/37
f 37/37/37 39/39/39 59/59/59
f 48/48/48 37/37/37 59/59/59
f 45/45/45 48/48/48 59/59/59
f 60/60/60 61/61/61 62/62/62
f 62/62/62 63/63/63 60/60/60

