mtllib material.mtl
usemtl material_0
v -47.20871000 79.54586000 -312.22796600
v -126.60016600 79.54586000 -312.22796600
v -126.60016600 53.36282700 -309.45257600
v -47.20871000 53.36282700 -309.45257600
v -47.20871000 79.37506900 -307.99160800
v -126.60016600 79.37506900 -307.99160800
v -126.60016600 53.53343200 -302.94461100
v -47.20871000 53.53343200 -302.94461100
v -47.20871000 79.37506900 -302.61926300
v -126.60016600 79.37506900 -302.61926300
v -126.60016600 53.53343200 -297.57244900
v -47.20871000 53.53343200 -297.57244900
v -47.20871000 79.37506900 -297.24710100
v -126.60016600 79.37506900 -297.24710100
v -126.60016600 53.53343200 -292.20031700
v -47.20871000 53.53343200 -292.20031700
vn -0.00000000 0.10540000 0.99440000
vn -0.00000000 0.10540000 0.99440000
vn -0.00000000 0.10540000 0.99440000
vn -0.00000000 0.10540000 0.99440000
vn -0.00000000 0.19170000 0.98150000
vn -0.00000000 0.19170000 0.98150000
vn -0.00000000 0.19170000 0.98150000
vn -0.00000000 0.19170000 0.98150000
vn -0.00000000 0.19170000 0.98150000
vn -0.00000000 0.19170000 0.98150000
vn -0.00000000 0.19170000 0.98150000
vn -0.00000000 0.19170000 0.98150000
vn -0.00000000 0.19170000 0.98150000
vn -0.00000000 0.19170000 0.98150000
vn -0.00000000 0.19170000 0.98150000
vn -0.00000000 0.19170000 0.98150000
vt 0.99950000 0.99950000
vt 0.00050000 0.99950000
vt 0.00050000 0.00050000
vt 0.99950000 0.00050000
vt 0.99950000 0.99950000
vt 0.00050000 0.99950000
vt 0.00050000 0.00050000
vt 0.99950000 0.00050000
vt 0.99950000 0.99950000
vt 0.00050000 0.99950000
vt 0.00050000 0.00050000
vt 0.99950000 0.00050000
vt 0.99950000 0.99950000
vt 0.00050000 0.99950000
vt 0.00050000 0.00050000
vt 0.99950000 0.00050000
f 1/1/1 2/2/2 3/3/3
f 3/3/3 4/4/4 1/1/1
f 5/5/5 6/6/6 7/7/7
f 7/7/7 8/8/8 5/5/5
f 9/9/9 10/10/10 11/11/11
f 11/11/11 12/12/12 9/9/9
f 13/13/13 14/14/14 15/15/15
f 15/15/15 16/16/16 13/13/13

