mtllib material.mtl
usemtl material_0
v 279.73513800 114.38005800 125.09100300
v 279.73513800 114.38005800 114.01537300
v 279.73513800 114.38005800 114.01537300
v 189.15196200 114.38005800 114.01537300
v 189.15196200 114.38005800 114.01537300
v 189.15196200 114.38005800 125.09100300
v 282.08871500 101.78356200 114.01537300
v 282.08871500 101.78356200 114.01537300
v 282.08871500 101.78356200 114.01537300
v 282.08871500 101.78356200 125.09100300
v 282.08871500 10.90247000 125.09101100
v 282.08871500 10.90246900 114.01538100
v 282.08871500 10.90246900 114.01538100
v 282.08871500 10.90246900 114.01538100
v 186.79821800 101.78356200 125.09100300
v 186.79821800 101.78356200 114.01537300
v 186.79821800 101.78356200 114.01537300
v 186.79821800 101.78356200 114.01537300
v 186.79821800 10.90246900 114.01538100
v 186.79821800 10.90246900 114.01538100
v 186.79821800 10.90246900 114.01538100
v 186.79821800 10.90247000 125.09101100
v 282.08871500 114.38005800 114.01537300
v 282.08871500 114.38005800 114.01537300
v 282.08871500 114.38005800 114.01537300
v 282.08871500 114.38005800 125.09100300
v 282.08871500 114.38005800 125.09100300
v 282.08871500 -6.71340500 125.09101100
v 282.08871500 -6.71340600 114.01538100
v 282.08871500 -6.71340600 114.01538100
v 279.73513800 101.78356200 114.01537300
v 279.73513800 101.78356200 114.01537300
v 189.15196200 101.78356200 114.01537300
v 189.15196200 101.78356200 114.01537300
v 189.15196200 -32.59349400 114.01538100
v 189.15196200 -8.26620300 114.01538100
v 189.15196200 -8.26620300 114.01538100
v 189.15196200 -8.26620300 114.01538100
v 279.73513800 -8.26620300 114.01538100
v 279.73513800 -8.26620300 114.01538100
v 279.73513800 -8.26620300 114.01538100
v 279.73513800 -32.59349400 114.01538100
v 186.79821800 114.38005800 125.09100300
v 186.79821800 114.38005800 125.09100300
v 186.79821800 114.38005800 114.01537300
v 186.79821800 114.38005800 114.01537300
v 186.79821800 114.38005800 114.01537300
v 186.79821800 -6.71340600 114.01538100
v 186.79821800 -6.71340600 114.01538100
v 186.79821800 -6.71340500 125.09101100
v 279.73513800 10.90246900 114.01538100
v 279.73513800 10.90246900 114.01538100
v 189.15196200 10.90246900 114.01538100
v 189.15196200 10.90246900 114.01538100
v 186.79821800 -32.59349400 114.01538100
v 186.79821800 -32.59349400 114.01538100
v 186.79821800 -8.26620300 114.01538100
v 186.79821800 -8.26620300 114.01538100
v 279.73513800 -6.71340600 114.01538100
v 279.73513800 -6.71340600 114.01538100
v 279.73513800 -6.71340600 114.01538100
v 282.08871500 -8.26620200 125.09101100
v 282.08871500 -8.26620300 114.01538100
v 282.08871500 -8.26620300 114.01538100
v 189.15196200 -6.71340600 114.01538100
v 189.15196200 -6.71340600 114.01538100
v 189.15196200 -6.71340600 114.01538100
v 186.79821800 -8.26620200 125.09101100
v 189.15196200 -6.71340600 115.78170800
v 189.15196200 -6.71340600 115.78170800
v 189.15196200 -6.71340600 115.78170800
v 279.73513800 -6.71340600 115.78170800
v 279.73513800 -6.71340600 115.78170800
v 279.73513800 -6.71340600 115.78170800
v 279.73513800 -8.26620300 115.78170800
v 279.73513800 -8.26620300 115.78170800
v 279.73513800 -8.26620300 115.78170800
v 189.15196200 -8.26620300 115.78170800
v 189.15196200 -8.26620300 115.78170800
v 189.15196200 -8.26620300 115.78170800
v 282.08871500 -32.59349400 125.09101100
v 282.08871500 -32.59349400 114.01538100
v 282.08871500 -32.59349400 114.01538100
v 186.79821800 -32.59349400 125.09101100
v 183.72361800 -32.59349100 176.76586900
v 183.72361800 -32.59349400 114.26549500
v 183.72361800 -32.59349400 114.26549500
v 183.72361800 -17.89617300 114.26549500
v 183.72361800 -17.89617300 114.26549500
v 183.72361800 -17.89617000 176.76586900
v 183.72361800 -17.89617000 176.76586900
v 88.19084900 -32.59349400 114.26549500
v 88.19084900 -32.59349400 114.26549500
v 88.19084900 -17.89617300 114.26549500
v 88.19084900 -17.89617300 114.26549500
v 88.19084900 -32.59349100 176.76586900
v 88.19084900 -17.89617000 176.76586900
v 88.19084900 -17.89617000 176.76586900
v 88.19084900 -17.89617300 114.26530500
v 88.19084900 -17.89617300 114.26530500
v 88.19084900 -17.89617300 114.26530500
v 88.19084900 88.65958400 176.76586900
v 88.19084900 88.65957600 114.26529700
v 88.19084900 88.65957600 114.26529700
v 88.19084900 88.65957600 114.26529700
v 88.19084900 88.65957600 114.26529700
v 88.19084900 88.65957600 114.26529700
v 88.19084900 88.65957600 114.26529700
v 135.95715300 -17.89617300 114.26530500
v 135.95715300 -17.89617300 114.26530500
v 135.95715300 -17.89617300 114.26530500
v 135.95715300 -17.89617300 114.26530500
v 90.81076000 -15.27626600 114.26530500
v 90.81076000 -15.27626600 114.26530500
v 90.81076000 -15.27626600 114.26530500
v 90.81076000 -15.27626600 114.26530500
v 133.33723400 -15.27626600 114.26530500
v 133.33723400 -15.27626600 114.26530500
v 133.33723400 -15.27626600 114.26530500
v 133.33723400 -15.27626600 114.26530500
v 90.81076000 86.03966500 114.26529700
v 90.81076000 86.03966500 114.26529700
v 90.81076000 86.03966500 114.26529700
v 90.81076000 86.03966500 114.26529700
v 135.95715300 88.65957600 114.26529700
v 135.95715300 88.65957600 114.26529700
v 135.95715300 88.65957600 114.26529700
v 135.95715300 88.65957600 114.26529700
v 133.33723400 86.03966500 114.26529700
v 133.33723400 86.03966500 114.26529700
v 133.33723400 86.03966500 114.26529700
v 133.33723400 86.03966500 114.26529700
v 90.81076000 -15.27626600 119.40937800
v 90.81076000 -15.27626600 119.40937800
v 133.33723400 -15.27626600 119.40937800
v 133.33723400 -15.27626600 119.40937800
v 90.81076000 86.03966500 119.40937000
v 90.81076000 86.03966500 119.40937000
v 133.33723400 86.03966500 119.40937000
v 133.33723400 86.03966500 119.40937000
v 88.19084900 88.65957600 127.45910600
v 88.19084900 88.65957600 127.45910600
v 88.19084900 88.65957600 127.45910600
v 183.72361800 88.65957600 114.26529700
v 183.72361800 88.65957600 114.26529700
v 183.72361800 88.65957600 114.26529700
v 183.72361800 88.65957600 114.26529700
v 183.72361800 88.65957600 114.26529700
v 183.72361800 88.65957600 114.26529700
v 183.72361800 88.65957600 127.45910600
v 183.72361800 88.65957600 127.45910600
v 183.72361800 88.65957600 127.45910600
v 88.19084900 93.06876400 127.45910600
v 88.19084900 93.06876400 127.45910600
v 88.19084900 93.06876400 127.45910600
v 183.72361800 93.06876400 127.45910600
v 183.72361800 93.06876400 127.45910600
v 183.72361800 93.06876400 127.45910600
v 183.72361800 93.06876400 114.26529700
v 183.72361800 93.06876400 114.26529700
v 183.72361800 93.06876400 114.26529700
v 88.19084900 93.06876400 114.26529700
v 88.19084900 93.06876400 114.26529700
v 88.19084900 93.06876400 114.26529700
v 183.72361800 -17.89617300 114.26530500
v 183.72361800 -17.89617300 114.26530500
v 183.72361800 -17.89617300 114.26530500
v 183.72361800 88.65958400 176.76586900
v 138.72283900 -15.13048800 114.26530500
v 138.72283900 -15.13048800 114.26530500
v 138.72283900 -15.13048800 114.26530500
v 138.72283900 -15.13048800 114.26530500
v 180.95793200 -15.13048800 114.26530500
v 180.95793200 -15.13048800 114.26530500
v 180.95793200 -15.13048800 114.26530500
v 180.95793200 -15.13048800 114.26530500
v 138.72283900 85.89388300 114.26529700
v 138.72283900 85.89388300 114.26529700
v 138.72283900 85.89388300 114.26529700
v 138.72283900 85.89388300 114.26529700
v 180.95793200 85.89388300 114.26529700
v 180.95793200 85.89388300 114.26529700
v 180.95793200 85.89388300 114.26529700
v 180.95793200 85.89388300 114.26529700
v 138.72283900 -15.13048800 119.21413400
v 138.72283900 -15.13048800 119.21413400
v 180.95793200 -15.13048800 119.21413400
v 180.95793200 -15.13048800 119.21413400
v 138.72283900 85.89388300 119.21412700
v 138.72283900 85.89388300 119.21412700
v 180.95793200 85.89388300 119.21412700
v 180.95793200 85.89388300 119.21412700
vn -0.00000000 1.00000000 -0.00000000
vn -0.00000000 1.00000000 -0.00000000
vn -0.00000000 -0.00000000 -1.00000000
vn -0.00000000 1.00000000 -0.00000000
vn -0.00000000 -0.00000000 -1.00000000
vn -0.00000000 1.00000000 -0.00000000
vn 1.00000000 -0.00000000 -0.00000000
vn -0.00000000 -0.00000000 -1.00000000
vn -0.00000000 -0.00000000 -1.00000000
vn 1.00000000 -0.00000000 -0.00000000
vn 1.00000000 -0.00000000 -0.00000000
vn 1.00000000 -0.00000000 -0.00000000
vn -0.00000000 -0.00000000 -1.00000000
vn -0.00000000 -0.00000000 -1.00000000
vn -1.00000000 -0.00000000 -0.00000000
vn -0.00000000 -0.00000000 -1.00000000
vn -1.00000000 -0.00000000 -0.00000000
vn -0.00000000 -0.00000000 -1.00000000
vn -1.00000000 -0.00000000 -0.00000000
vn -0.00000000 -0.00000000 -1.00000000
vn -0.00000000 -0.00000000 -1.00000000
vn -1.00000000 -0.00000000 -0.00000000
vn -0.00000000 -0.00000000 -1.00000000
vn -0.00000000 1.00000000 -0.00000000
vn 1.00000000 -0.00000000 -0.00000000
vn -0.00000000 1.00000000 -0.00000000
vn 1.00000000 -0.00000000 -0.00000000
vn 1.00000000 -0.00000000 -0.00000000
vn -0.00000000 -0.00000000 -1.00000000
vn 1.00000000 -0.00000000 -0.00000000
vn -0.00000000 -0.00000000 -1.00000000
vn -0.00000000 -0.00000000 -1.00000000
vn -0.00000000 -0.00000000 -1.00000000
vn -0.00000000 -0.00000000 -1.00000000
vn -0.00000000 -0.00000000 -1.00000000
vn -0.00000000 -0.00000000 -1.00000000
vn 1.00000000 -0.00000000 -0.00000000
vn -0.00000000 1.00000000 -0.00000000
vn -1.00000000 -0.00000000 -0.00000000
vn -0.00000000 1.00000000 -0.00000000
vn -0.00000000 -0.00000000 -1.00000000
vn -0.00000000 -0.00000000 -1.00000000
vn -1.00000000 -0.00000000 -0.00000000
vn -0.00000000 1.00000000 -0.00000000
vn -0.00000000 1.00000000 -0.00000000
vn -1.00000000 -0.00000000 -0.00000000
vn -0.00000000 -0.00000000 -1.00000000
vn -1.00000000 -0.00000000 -0.00000000
vn -0.00000000 -0.00000000 -1.00000000
vn -1.00000000 -0.00000000 -0.00000000
vn -0.00000000 -0.00000000 -1.00000000
vn -0.00000000 -0.00000000 -1.00000000
vn -0.00000000 -0.00000000 -1.00000000
vn -0.00000000 -0.00000000 -1.00000000
vn -1.00000000 -0.00000000 -0.00000000
vn -0.00000000 -0.00000000 -1.00000000
vn -1.00000000 -0.00000000 -0.00000000
vn -0.00000000 -0.00000000 -1.00000000
vn -1.00000000 -0.00000000 -0.00000000
vn -0.00000000 -1.00000000 -0.00000000
vn -0.00000000 -0.00000000 -1.00000000
vn 1.00000000 -0.00000000 -0.00000000
vn 1.00000000 -0.00000000 -0.00000000
vn -0.00000000 -0.00000000 -1.00000000
vn -0.00000000 -1.00000000 -0.00000000
vn -0.00000000 -0.00000000 -1.00000000
vn 1.00000000 -0.00000000 -0.00000000
vn -1.00000000 -0.00000000 -0.00000000
vn -0.00000000 -0.00000000 -1.00000000
vn 1.00000000 -0.00000000 -0.00000000
vn -0.00000000 -1.00000000 -0.00000000
vn -0.00000000 -1.00000000 -0.00000000
vn -0.00000000 -0.00000000 -1.00000000
vn -1.00000000 -0.00000000 -0.00000000
vn -0.00000000 -0.00000000 -1.00000000
vn -1.00000000 -0.00000000 -0.00000000
vn -0.00000000 1.00000000 -0.00000000
vn 1.00000000 -0.00000000 -0.00000000
vn -0.00000000 1.00000000 -0.00000000
vn -0.00000000 -0.00000000 -1.00000000
vn 1.00000000 -0.00000000 -0.00000000
vn 1.00000000 -0.00000000 -0.00000000
vn -0.00000000 -0.00000000 -1.00000000
vn -1.00000000 -0.00000000 -0.00000000
vn 1.00000000 -0.00000000 -0.00000000
vn -0.00000000 -0.00000000 -1.00000000
vn 1.00000000 -0.00000000 -0.00000000
vn 1.00000000 -0.00000000 -0.00000000
vn -0.00000000 -0.00000000 -1.00000000
vn 1.00000000 -0.00000000 -0.00000000
vn 1.00000000 -0.00000000 -0.00000000
vn -0.00000000 -0.00000000 -1.00000000
vn -1.00000000 -0.00000000 -0.00000000
vn -1.00000000 -0.00000000 -0.00000000
vn -0.00000000 -0.00000000 -1.00000000
vn -1.00000000 -0.00000000 -0.00000000
vn -1.00000000 -0.00000000 -0.00000000
vn -1.00000000 -0.00000000 -0.00000000
vn -1.00000000 -0.00000000 -0.00000000
vn -0.00000000 -0.00000000 -1.00000000
vn -0.00000000 -0.00000000 -1.00000000
vn -1.00000000 -0.00000000 -0.00000000
vn -1.00000000 -0.00000000 -0.00000000
vn -0.00000000 -0.00000000 -1.00000000
vn -0.00000000 -1.00000000 -0.00000000
vn -0.00000000 -0.00000000 -1.00000000
vn -1.00000000 -0.00000000 -0.00000000
vn -0.00000000 -0.00000000 -1.00000000
vn -0.00000000 -0.00000000 -1.00000000
vn -0.00000000 -0.00000000 -1.00000000
vn -0.00000000 -0.00000000 -1.00000000
vn -0.00000000 -0.00000000 -1.00000000
vn -0.00000000 1.00000000 -0.00000000
vn 1.00000000 -0.00000000 -0.00000000
vn -0.00000000 -0.00000000 -1.00000000
vn -0.00000000 -0.00000000 -1.00000000
vn -0.00000000 1.00000000 -0.00000000
vn -0.00000000 -0.00000000 -1.00000000
vn -0.00000000 -0.00000000 -1.00000000
vn -1.00000000 -0.00000000 -0.00000000
vn 1.00000000 -0.00000000 -0.00000000
vn -0.00000000 -1.00000000 -0.00000000
vn -0.00000000 -0.00000000 -1.00000000
vn -0.00000000 -0.00000000 -1.00000000
vn -0.00000000 -0.00000000 -1.00000000
vn -0.00000000 -0.00000000 -1.00000000
vn -0.00000000 -0.00000000 -1.00000000
vn -0.00000000 -0.00000000 -1.00000000
vn -0.00000000 -0.00000000 -1.00000000
vn -1.00000000 -0.00000000 -0.00000000
vn -0.00000000 -1.00000000 -0.00000000
vn -0.00000000 -0.00000000 -1.00000000
vn 1.00000000 -0.00000000 -0.00000000
vn -0.00000000 1.00000000 -0.00000000
vn -1.00000000 -0.00000000 -0.00000000
vn -0.00000000 1.00000000 -0.00000000
vn -0.00000000 -1.00000000 -0.00000000
vn 1.00000000 -0.00000000 -0.00000000
vn -1.00000000 -0.00000000 -0.00000000
vn -0.00000000 -1.00000000 -0.00000000
vn -0.00000000 -1.00000000 -0.00000000
vn -1.00000000 -0.00000000 -0.00000000
vn -0.00000000 -0.00000000 1.00000000
vn -0.00000000 -0.00000000 -1.00000000
vn -0.00000000 -0.00000000 -1.00000000
vn -0.00000000 -0.00000000 -1.00000000
vn 1.00000000 -0.00000000 -0.00000000
vn 1.00000000 -0.00000000 -0.00000000
vn -0.00000000 -1.00000000 -0.00000000
vn 1.00000000 -0.00000000 -0.00000000
vn -0.00000000 -0.00000000 1.00000000
vn -0.00000000 -1.00000000 -0.00000000
vn -0.00000000 -0.00000000 1.00000000
vn -0.00000000 1.00000000 -0.00000000
vn -1.00000000 -0.00000000 -0.00000000
vn -0.00000000 -0.00000000 1.00000000
vn -0.00000000 1.00000000 -0.00000000
vn 1.00000000 -0.00000000 -0.00000000
vn -0.00000000 1.00000000 -0.00000000
vn 1.00000000 -0.00000000 -0.00000000
vn -0.00000000 -0.00000000 -1.00000000
vn -0.00000000 1.00000000 -0.00000000
vn -0.00000000 -0.00000000 -1.00000000
vn -1.00000000 -0.00000000 -0.00000000
vn -0.00000000 -0.00000000 -1.00000000
vn 1.00000000 -0.00000000 -0.00000000
vn -0.00000000 -0.00000000 -1.00000000
vn 1.00000000 -0.00000000 -0.00000000
vn -0.00000000 1.00000000 -0.00000000
vn 1.00000000 -0.00000000 -0.00000000
vn -0.00000000 -0.00000000 -1.00000000
vn -0.00000000 -0.00000000 -1.00000000
vn -1.00000000 -0.00000000 -0.00000000
vn -0.00000000 -0.00000000 -1.00000000
vn -0.00000000 -0.00000000 -1.00000000
vn -0.00000000 1.00000000 -0.00000000
vn -0.00000000 -0.00000000 -1.00000000
vn 1.00000000 -0.00000000 -0.00000000
vn -0.00000000 -1.00000000 -0.00000000
vn -0.00000000 -0.00000000 -1.00000000
vn -0.00000000 -0.00000000 -1.00000000
vn -0.00000000 -0.00000000 -1.00000000
vn -0.00000000 -1.00000000 -0.00000000
vn -1.00000000 -0.00000000 -0.00000000
vn -0.00000000 1.00000000 -0.00000000
vn 1.00000000 -0.00000000 -0.00000000
vn -1.00000000 -0.00000000 -0.00000000
vn -0.00000000 1.00000000 -0.00000000
vn -0.00000000 -1.00000000 -0.00000000
vn 1.00000000 -0.00000000 -0.00000000
vn -0.00000000 -1.00000000 -0.00000000
vn -1.00000000 -0.00000000 -0.00000000
vt 0.31570000 0.93100000
vt 0.31570000 0.96790000
vt 0.46570000 0.02080000
vt 0.01390000 0.96790000
vt 0.46570000 0.74260000
vt 0.01390000 0.93100000
vt 0.04810000 0.80610000
vt 0.56610000 0.00200000
vt 0.70580000 0.00200000
vt 0.04810000 0.76920000
vt 0.35080000 0.76920000
vt 0.35080000 0.80610000
vt 0.00200000 0.00200000
vt 0.70580000 0.72620000
vt 0.04810000 0.84300000
vt 0.56610000 0.76130000
vt 0.04810000 0.80610000
vt 0.70580000 0.00200000
vt 0.35080000 0.80610000
vt 0.70580000 0.72620000
vt 0.00200000 0.76130000
vt 0.35080000 0.84300000
vt 0.46570000 0.00200000
vt 0.32360000 0.96790000
vt 0.00610000 0.80610000
vt 0.32360000 0.93100000
vt 0.00610000 0.76920000
vt 0.40950000 0.76920000
vt 0.14240000 0.00200000
vt 0.40950000 0.80610000
vt 0.56610000 0.02080000
vt 0.68710000 0.00200000
vt 0.72460000 0.00200000
vt 0.56610000 0.74260000
vt 0.34860000 0.74260000
vt 0.15480000 0.74260000
vt 0.49570000 0.77440000
vt 0.47850000 0.98630000
vt 0.50160000 0.81130000
vt 0.78030000 0.98630000
vt 0.15480000 0.02080000
vt 0.34860000 0.02080000
vt 0.00610000 0.84300000
vt 0.00610000 0.93100000
vt 0.00610000 0.96790000
vt 0.00610000 0.80610000
vt 0.46570000 0.76130000
vt 0.40950000 0.80610000
vt 0.14240000 0.76130000
vt 0.40950000 0.84300000
vt 0.00200000 0.02080000
vt 0.68710000 0.72620000
vt 0.72460000 0.72620000
vt 0.00200000 0.74260000
vt 0.49570000 0.80610000
vt 0.34860000 0.76130000
vt 0.41470000 0.80610000
vt 0.15480000 0.76130000
vt 0.50160000 0.80610000
vt 0.78030000 0.97450000
vt 0.14240000 0.02080000
vt 0.41470000 0.76920000
vt 0.41470000 0.80610000
vt 0.15480000 0.00200000
vt 0.47850000 0.97450000
vt 0.14240000 0.74260000
vt 0.49570000 0.76920000
vt 0.41470000 0.84300000
vt 0.78030000 0.99140000
vt 0.50160000 0.76920000
vt 0.47850000 0.98040000
vt 0.78030000 0.98040000
vt 0.47850000 0.99140000
vt 0.49570000 0.80610000
vt 0.47850000 0.98630000
vt 0.49570000 0.81130000
vt 0.78030000 0.98040000
vt 0.50160000 0.77440000
vt 0.47850000 0.98040000
vt 0.78030000 0.98630000
vt 0.49570000 0.76920000
vt 0.49570000 0.80610000
vt 0.34860000 0.00200000
vt 0.49570000 0.84300000
vt 0.37770000 0.86190000
vt 0.46570000 0.00200000
vt 0.58590000 0.86190000
vt 0.58590000 0.91080000
vt 0.34860000 0.00200000
vt 0.98620000 0.71390000
vt 0.37770000 0.91080000
vt 0.46570000 0.76330000
vt 0.37770000 0.91080000
vt 0.37770000 0.95980000
vt 0.34860000 0.76330000
vt 0.58590000 0.91080000
vt 0.77800000 0.35890000
vt 0.58590000 0.95980000
vt 0.98620000 0.35890000
vt 0.66620000 0.85110000
vt 0.74660000 0.38260000
vt 0.77800000 0.00390000
vt 0.98620000 0.00390000
vt 0.74550000 0.38260000
vt 0.00610000 0.84300000
vt 0.66620000 0.00200000
vt 0.32440000 0.88700000
vt 0.60120000 0.76330000
vt 0.60120000 0.85110000
vt 0.66620000 0.85110000
vt 0.74660000 0.76330000
vt 0.72460000 0.00200000
vt 0.83650000 0.93950000
vt 0.65530000 0.85510000
vt 0.68710000 0.83020000
vt 0.76750000 0.40350000
vt 0.97820000 0.93950000
vt 0.76750000 0.74240000
vt 0.64530000 0.83020000
vt 0.65530000 0.88940000
vt 0.99290000 0.85510000
vt 0.69480000 0.92240000
vt 0.68710000 0.02290000
vt 0.72460000 0.40350000
vt 0.66620000 0.00200000
vt 0.74550000 0.76330000
vt 0.60120000 0.00200000
vt 0.76870000 0.00200000
vt 0.72460000 0.74240000
vt 0.99290000 0.88940000
vt 0.83650000 0.92240000
vt 0.64530000 0.02290000
vt 0.65530000 0.87230000
vt 0.83650000 0.92240000
vt 0.65530000 0.87230000
vt 0.97820000 0.92240000
vt 0.69480000 0.93950000
vt 0.99290000 0.87230000
vt 0.99290000 0.87230000
vt 0.83650000 0.93950000
vt 0.00610000 0.88700000
vt 0.36830000 0.88700000
vt 0.44490000 0.95980000
vt 0.76870000 0.38260000
vt 0.64530000 0.00200000
vt 0.60120000 0.00200000
vt 0.77800000 0.35890000
vt 0.36830000 0.84300000
vt 0.32440000 0.84300000
vt 0.32440000 0.84300000
vt 0.76320000 0.95980000
vt 0.32440000 0.88700000
vt 0.44490000 0.97450000
vt 0.00610000 0.88700000
vt 0.36830000 0.90170000
vt 0.76320000 0.97450000
vt 0.32440000 0.88700000
vt 0.32440000 0.85770000
vt 0.32440000 0.93100000
vt 0.36830000 0.85770000
vt 0.56610000 0.00200000
vt 0.00610000 0.93100000
vt 0.56610000 0.76330000
vt 0.32440000 0.90170000
vt 0.72460000 0.38260000
vt 0.77800000 0.71390000
vt 0.64530000 0.85110000
vt 0.98620000 0.35890000
vt 0.69680000 0.95600000
vt 0.65630000 0.88940000
vt 0.62330000 0.82910000
vt 0.74660000 0.02400000
vt 0.65630000 0.92240000
vt 0.62330000 0.82910000
vt 0.74660000 0.36060000
vt 0.83750000 0.95600000
vt 0.62330000 0.02400000
vt 0.99290000 0.88940000
vt 0.83750000 0.93950000
vt 0.74660000 0.02400000
vt 0.62330000 0.02400000
vt 0.74660000 0.36060000
vt 0.97820000 0.93950000
vt 0.99290000 0.92240000
vt 0.69680000 0.93950000
vt 0.65630000 0.90590000
vt 0.65630000 0.90590000
vt 0.83750000 0.93950000
vt 0.83750000 0.95600000
vt 0.99290000 0.90590000
vt 0.97820000 0.95600000
vt 0.99290000 0.90590000
f 1/1/1 2/2/2 4/4/4
f 4/4/4 6/6/6 1/1/1
f 7/7/7 10/10/10 11/11/11
f 11/11/11 12/12/12 7/7/7
f 15/15/15 17/17/17 19/19/19
f 19/19/19 22/22/22 15/15/15
f 25/25/25 27/27/27 10/10/10
f 10/10/10 7/7/7 25/25/25
f 28/28/28 30/30/30 12/12/12
f 12/12/12 11/11/11 28/28/28
f 3/3/3 31/31/31 34/34/34
f 34/34/34 5/5/5 3/3/3
f 35/35/35 36/36/36 41/41/41
f 41/41/41 42/42/42 35/35/35
f 43/43/43 46/46/46 17/17/17
f 17/17/17 15/15/15 43/43/43
f 48/48/48 50/50/50 22/22/22
f 22/22/22 19/19/19 48/48/48
f 26/26/26 24/24/24 2/2/2
f 2/2/2 1/1/1 26/26/26
f 45/45/45 44/44/44 6/6/6
f 6/6/6 4/4/4 45/45/45
f 9/9/9 14/14/14 52/52/52
f 52/52/52 32/32/32 9/9/9
f 20/20/20 18/18/18 33/33/33
f 33/33/33 53/53/53 20/20/20
f 23/23/23 8/8/8 31/31/31
f 31/31/31 3/3/3 23/23/23
f 16/16/16 47/47/47 5/5/5
f 5/5/5 34/34/34 16/16/16
f 56/56/56 58/58/58 36/36/36
f 36/36/36 35/35/35 56/56/56
f 13/13/13 29/29/29 61/61/61
f 61/61/61 51/51/51 13/13/13
f 62/62/62 63/63/63 30/30/30
f 30/30/30 28/28/28 62/62/62
f 54/54/54 51/51/51 61/61/61
f 61/61/61 66/66/66 54/54/54
f 57/57/57 68/68/68 50/50/50
f 50/50/50 48/48/48 57/57/57
f 21/21/21 54/54/54 66/66/66
f 66/66/66 49/49/49 21/21/21
f 64/64/64 41/41/41 61/61/61
f 61/61/61 29/29/29 64/64/64
f 69/69/69 73/73/73 75/75/75
f 75/75/75 80/80/80 69/69/69
f 49/49/49 66/66/66 36/36/36
f 36/36/36 58/58/58 49/49/49
f 81/81/81 82/82/82 63/63/63
f 63/63/63 62/62/62 81/81/81
f 55/55/55 84/84/84 68/68/68
f 68/68/68 57/57/57 55/55/55
f 83/83/83 42/42/42 41/41/41
f 41/41/41 64/64/64 83/83/83
f 59/59/59 39/39/39 76/76/76
f 76/76/76 74/74/74 59/59/59
f 40/40/40 38/38/38 79/79/79
f 79/79/79 77/77/77 40/40/40
f 37/37/37 67/67/67 70/70/70
f 70/70/70 78/78/78 37/37/37
f 65/65/65 60/60/60 72/72/72
f 72/72/72 71/71/71 65/65/65
f 85/85/85 87/87/87 88/88/88
f 88/88/88 91/91/91 85/85/85
f 86/86/86 92/92/92 95/95/95
f 95/95/95 89/89/89 86/86/86
f 93/93/93 96/96/96 98/98/98
f 98/98/98 94/94/94 93/93/93
f 99/99/99 97/97/97 102/102/102
f 102/102/102 103/103/103 99/99/99
f 111/111/111 101/101/101 116/116/116
f 116/116/116 118/118/118 111/111/111
f 100/100/100 106/106/106 123/123/123
f 123/123/123 115/115/115 100/100/100
f 104/104/104 126/126/126 129/129/129
f 129/129/129 124/124/124 104/104/104
f 125/125/125 110/110/110 119/119/119
f 119/119/119 132/132/132 125/125/125
f 117/117/117 113/113/113 134/134/134
f 134/134/134 136/136/136 117/117/117
f 114/114/114 121/121/121 138/138/138
f 138/138/138 133/133/133 114/114/114
f 122/122/122 131/131/131 140/140/140
f 140/140/140 137/137/137 122/122/122
f 130/130/130 120/120/120 135/135/135
f 135/135/135 139/139/139 130/130/130
f 141/141/141 105/105/105 149/149/149
f 149/149/149 152/152/152 141/141/141
f 154/154/154 157/157/157 159/159/159
f 159/159/159 162/162/162 154/154/154
f 143/143/143 151/151/151 156/156/156
f 156/156/156 153/153/153 143/143/143
f 150/150/150 148/148/148 160/160/160
f 160/160/160 158/158/158 150/150/150
f 146/146/146 108/108/108 163/163/163
f 163/163/163 161/161/161 146/146/146
f 107/107/107 142/142/142 155/155/155
f 155/155/155 164/164/164 107/107/107
f 90/90/90 166/166/166 147/147/147
f 147/147/147 168/168/168 90/90/90
f 165/165/165 112/112/112 172/172/172
f 172/172/172 175/175/175 165/165/165
f 109/109/109 127/127/127 177/177/177
f 177/177/177 171/171/171 109/109/109
f 128/128/128 144/144/144 182/182/182
f 182/182/182 180/180/180 128/128/128
f 145/145/145 167/167/167 174/174/174
f 174/174/174 181/181/181 145/145/145
f 176/176/176 169/169/169 185/185/185
f 185/185/185 188/188/188 176/176/176
f 170/170/170 178/178/178 190/190/190
f 190/190/190 186/186/186 170/170/170
f 179/179/179 183/183/183 191/191/191
f 191/191/191 189/189/189 179/179/179
f 184/184/184 173/173/173 187/187/187
f 187/187/187 192/192/192 184/184/184

