mtllib material.mtl
usemtl material_0
v -230.73535200 33.56065800 -165.83825700
v -257.44924900 33.56065800 -165.83825700
v -257.44924900 35.59390300 -165.46960400
v -230.73535200 35.59390300 -165.46960400
v -230.73535200 27.05605900 -171.72615100
v -257.44924900 27.05605900 -171.72615100
v -257.44924900 28.35705400 -170.54852300
v -230.73535200 28.35705400 -170.54852300
v -257.44924900 30.39029700 -170.18006900
v -230.73535200 30.39029700 -170.18006900
v -257.44924900 30.95885300 -168.19329800
v -230.73535200 30.95885300 -168.19329800
v -257.44924900 32.99210400 -167.82484400
v -230.73535200 32.99210400 -167.82484400
v -257.44924900 41.36607000 -158.77275100
v -230.73535200 41.36607000 -158.77275100
v -230.73535200 40.79751600 -160.75933800
v -257.44924900 40.79751600 -160.75933800
v -230.73535200 38.76426300 -161.12779200
v -257.44924900 38.76426300 -161.12779200
v -230.73535200 38.19570900 -163.11456300
v -257.44924900 38.19570900 -163.11456300
v -230.73535200 36.16246400 -163.48301700
v -257.44924900 36.16246400 -163.48301700
v -230.73535200 -5.11509100 -165.58439600
v -257.44924900 -5.11509100 -165.58439600
v -257.44924900 -3.08184400 -165.21594200
v -230.73535200 -3.08184400 -165.21594200
v -230.73535200 -11.61950500 -171.47247300
v -257.44924900 -11.61950500 -171.47247300
v -257.44924900 -10.31869300 -170.29486100
v -230.73535200 -10.31869300 -170.29486100
v -257.44924900 -8.28545100 -169.92622400
v -230.73535200 -8.28545100 -169.92622400
v -257.44924900 -7.71689300 -167.93963600
v -230.73535200 -7.71689300 -167.93963600
v -257.44924900 -5.68364900 -167.57116700
v -230.73535200 -5.68364900 -167.57116700
v -257.44924900 2.69031500 -158.51889000
v -230.73535200 2.69031500 -158.51889000
v -230.73535200 2.12176100 -160.50566100
v -257.44924900 2.12176100 -160.50566100
v -230.73535200 0.08851200 -160.87413000
v -257.44924900 0.08851200 -160.87413000
v -230.73535200 -0.48004200 -162.86071800
v -257.44924900 -0.48004200 -162.86071800
v -230.73535200 -2.51329100 -163.22937000
v -257.44924900 -2.51329100 -163.22937000
vn -0.00000000 0.67110000 -0.74140000
vn -0.00000000 0.67110000 -0.74140000
vn -0.00000000 0.67110000 -0.74140000
vn -0.00000000 0.67110000 -0.74140000
vn -0.00000000 0.67110000 -0.74140000
vn -0.00000000 0.67110000 -0.74140000
vn -0.00000000 0.44170000 -0.89720000
vn -0.00000000 0.44170000 -0.89720000
vn -0.00000000 0.67110000 -0.74140000
vn -0.00000000 0.67110000 -0.74140000
vn -0.00000000 0.67110000 -0.74140000
vn -0.00000000 0.67110000 -0.74140000
vn -0.00000000 0.67110000 -0.74140000
vn -0.00000000 0.67110000 -0.74140000
vn -0.00000000 0.96140000 -0.27510000
vn -0.00000000 0.96140000 -0.27520000
vn -0.00000000 0.67110000 -0.74140000
vn -0.00000000 0.67110000 -0.74140000
vn -0.00000000 0.67110000 -0.74140000
vn -0.00000000 0.67110000 -0.74140000
vn -0.00000000 0.67110000 -0.74140000
vn -0.00000000 0.67110000 -0.74140000
vn -0.00000000 0.67110000 -0.74140000
vn -0.00000000 0.67110000 -0.74140000
vn -0.00000000 0.67110000 -0.74140000
vn -0.00000000 0.67110000 -0.74140000
vn -0.00000000 0.67110000 -0.74140000
vn -0.00000000 0.67110000 -0.74140000
vn -0.00000000 0.67110000 -0.74130000
vn -0.00000000 0.67110000 -0.74130000
vn -0.00000000 0.44170000 -0.89710000
vn -0.00000000 0.44170000 -0.89710000
vn -0.00000000 0.67110000 -0.74140000
vn -0.00000000 0.67110000 -0.74140000
vn -0.00000000 0.67110000 -0.74140000
vn -0.00000000 0.67110000 -0.74140000
vn -0.00000000 0.67110000 -0.74140000
vn -0.00000000 0.67110000 -0.74140000
vn -0.00000000 0.96140000 -0.27510000
vn -0.00000000 0.96140000 -0.27510000
vn -0.00000000 0.67110000 -0.74140000
vn -0.00000000 0.67110000 -0.74140000
vn -0.00000000 0.67110000 -0.74140000
vn -0.00000000 0.67110000 -0.74140000
vn -0.00000000 0.67110000 -0.74140000
vn -0.00000000 0.67110000 -0.74140000
vn -0.00000000 0.67110000 -0.74140000
vn -0.00000000 0.67110000 -0.74140000
vt 0.00000000 0.45450000
vt 1.00000000 0.45450000
vt 1.00000000 0.54550000
vt 0.00000000 0.54550000
vt 0.00000000 0.00000000
vt 1.00000000 0.00000000
vt 1.00000000 0.09090000
vt 0.00000000 0.09090000
vt 1.00000000 0.18180000
vt 0.00000000 0.18180000
vt 1.00000000 0.27270000
vt 0.00000000 0.27270000
vt 1.00000000 0.36360000
vt 0.00000000 0.36360000
vt 1.00000000 1.00000000
vt 0.00000000 1.00000000
vt 0.00000000 0.90910000
vt 1.00000000 0.90910000
vt 0.00000000 0.81820000
vt 1.00000000 0.81820000
vt 0.00000000 0.72730000
vt 1.00000000 0.72730000
vt 0.00000000 0.63640000
vt 1.00000000 0.63640000
vt 0.00000000 0.45450000
vt 1.00000000 0.45450000
vt 1.00000000 0.54550000
vt 0.00000000 0.54550000
vt 0.00000000 0.00000000
vt 1.00000000 0.00000000
vt 1.00000000 0.09090000
vt 0.00000000 0.09090000
vt 1.00000000 0.18180000
vt 0.00000000 0.18180000
vt 1.00000000 0.27270000
vt 0.00000000 0.27270000
vt 1.00000000 0.36360000
vt 0.00000000 0.36360000
vt 1.00000000 1.00000000
vt 0.00000000 1.00000000
vt 0.00000000 0.90910000
vt 1.00000000 0.90910000
vt 0.00000000 0.81820000
vt 1.00000000 0.81820000
vt 0.00000000 0.72730000
vt 1.00000000 0.72730000
vt 0.00000000 0.63640000
vt 1.00000000 0.63640000
f 1/1/1 2/2/2 3/3/3
f 3/3/3 4/4/4 1/1/1
f 5/5/5 6/6/6 7/7/7
f 7/7/7 8/8/8 5/5/5
f 8/8/8 7/7/7 9/9/9
f 9/9/9 10/10/10 8/8/8
f 10/10/10 9/9/9 11/11/11
f 11/11/11 12/12/12 10/10/10
f 12/12/12 11/11/11 13/13/13
f 13/13/13 14/14/14 12/12/12
f 14/14/14 13/13/13 2/2/2
f 2/2/2 1/1/1 14/14/14
f 15/15/15 16/16/16 17/17/17
f 17/17/17 18/18/18 15/15/15
f 18/18/18 17/17/17 19/19/19
f 19/19/19 20/20/20 18/18/18
f 20/20/20 19/19/19 21/21/21
f 21/21/21 22/22/22 20/20/20
f 22/22/22 21/21/21 23/23/23
f 23/23/23 24/24/24 22/22/22
f 24/24/24 23/23/23 4/4/4
f 4/4/4 3/3/3 24/24/24
f 25/25/25 26/26/26 27/27/27
f 27/27/27 28/28/28 25/25/25
f 29/29/29 30/30/30 31/31/31
f 31/31/31 32/32/32 29/29/29
f 32/32/32 31/31/31 33/33/33
f 33/33/33 34/34/34 32/32/32
f 34/34/34 33/33/33 35/35/35
f 35/35/35 36/36/36 34/34/34
f 36/36/36 35/35/35 37/37/37
f 37/37/37 38/38/38 36/36/36
f 38/38/38 37/37/37 26/26/26
f 26/26/26 25/25/25 38/38/38
f 39/39/39 40/40/40 41/41/41
f 41/41/41 42/42/42 39/39/39
f 42/42/42 41/41/41 43/43/43
f 43/43/43 44/44/44 42/42/42
f 44/44/44 43/43/43 45/45/45
f 45/45/45 46/46/46 44/44/44
f 46/46/46 45/45/45 47/47/47
f 47/47/47 48/48/48 46/46/46
f 48/48/48 47/47/47 28/28/28
f 28/28/28 27/27/27 48/48/48

