# https://github.com/mikedh/trimesh
v -0.09891140 0.08418594 0.13602749
v -0.09891140 0.08573475 0.13571008
v -0.10055633 0.08573475 0.13678132
v -0.10034300 0.08418594 0.13694002
v -0.09891140 0.07934451 0.13544859
v -0.09891140 0.08573475 0.12082103
v -0.10292455 0.08573475 0.13814470
v -0.10271289 0.08418594 0.13821143
v -0.09891140 0.07537217 0.13387239
v -0.10303954 0.08122399 0.13792289
v -0.11581730 0.08573475 0.13193913
v -0.09891140 0.08177088 0.12155683
v -0.10670938 0.08573475 0.13924300
v -0.09891140 0.07325386 0.13140532
v -0.10526945 0.08122399 0.13792289
v -0.10675938 0.08390473 0.13884263
v -0.11593563 0.08573475 0.13215374
v -0.09891140 0.07734915 0.12238280
v -0.09891140 0.07586252 0.12266053
v -0.09891140 0.07290764 0.12362355
v -0.10490446 0.07641507 0.12736025
v -0.11134251 0.08573475 0.13905724
v -0.09891140 0.07268436 0.13045671
v -0.10842763 0.08213830 0.13688050
v -0.11136084 0.08537298 0.13881197
v -0.11258078 0.08573475 0.13845670
v -0.11586896 0.08573475 0.13472542
v -0.09989802 0.07207247 0.12701759
v -0.09989802 0.07207247 0.12839902
v -0.09891140 0.07129807 0.12648018
v -0.10420783 0.07710609 0.13261722
v -0.09891140 0.07180822 0.12897069
v -0.10984591 0.08120138 0.13372091
f 1 2 3
f 1 3 4
f 1 4 5
f 1 5 9
f 1 9 14
f 1 14 23
f 1 23 32
f 1 32 30
f 1 30 20
f 1 20 19
f 1 19 18
f 1 18 12
f 1 12 6
f 1 6 2
f 2 6 11
f 2 11 17
f 2 17 27
f 2 27 26
f 2 26 22
f 2 22 13
f 2 13 7
f 2 7 3
f 3 7 4
f 4 7 8
f 4 8 5
f 5 8 10
f 5 10 9
f 6 12 11
f 7 13 8
f 8 13 10
f 9 10 15
f 9 15 14
f 10 13 16
f 10 16 15
f 11 12 18
f 11 18 19
f 11 19 20
f 11 20 21
f 11 21 17
f 13 22 16
f 14 15 24
f 14 24 23
f 15 16 22
f 15 22 25
f 15 25 26
f 15 26 24
f 17 21 28
f 17 28 29
f 17 29 27
f 20 30 21
f 21 30 28
f 22 26 25
f 23 24 31
f 23 31 32
f 24 26 33
f 24 33 31
f 26 27 33
f 27 29 33
f 28 30 29
f 29 30 32
f 29 32 31
f 29 31 33

