# https://github.com/mikedh/trimesh
v 0.11913103 0.09664958 0.14228985
v 0.11913103 0.09366530 0.14228610
v 0.12372746 0.09649276 0.13794208
v 0.12043315 0.09807519 0.13938510
v 0.11913103 0.10028013 0.13808414
v 0.12125792 0.09366530 0.14021129
v 0.11913103 0.09181201 0.14174777
v 0.13794209 0.09649276 0.12372492
v 0.13938600 0.09807519 0.12043512
v 0.12517372 0.09807519 0.13464854
v 0.12362820 0.09366530 0.13784115
v 0.14021075 0.09366530 0.12125757
v 0.12187943 0.09965286 0.13609157
v 0.11913103 0.10120203 0.13699625
v 0.12325008 0.09127027 0.13746356
v 0.11913103 0.09108019 0.14125057
v 0.14261413 0.09649276 0.11898836
v 0.13767269 0.10097868 0.11871919
v 0.13609406 0.09965286 0.12187815
v 0.12661764 0.09965286 0.13135500
v 0.13272414 0.09127027 0.12798671
v 0.13746236 0.09127027 0.12324640
v 0.14219584 0.09127027 0.11850984
v 0.14252669 0.09366530 0.11888742
v 0.12051587 0.10194810 0.13473079
v 0.11913103 0.11287302 0.12315294
v 0.11913103 0.10464250 0.13291765
v 0.12039061 0.09069052 0.13934397
v 0.13796336 0.08623787 0.11427049
v 0.13934346 0.09069052 0.12039026
v 0.11913103 0.09001099 0.13942622
v 0.13261544 0.07710921 0.10421044
v 0.14279846 0.09727684 0.11610231
v 0.13283995 0.11526330 0.10470765
v 0.13737728 0.10546935 0.11358636
v 0.14327346 0.09366530 0.11610231
v 0.13550091 0.10464250 0.11654718
v 0.13061854 0.11287302 0.11166482
v 0.13091393 0.10838235 0.11670045
v 0.13076505 0.10464250 0.12128748
v 0.12588033 0.11287302 0.11640512
v 0.13688101 0.08214162 0.10843110
v 0.13792318 0.08122447 0.10527215
v 0.14263775 0.09063350 0.11610231
v 0.11913103 0.11818105 0.11685373
v 0.11913103 0.08919364 0.13795329
v 0.13251382 0.07699041 0.10410203
v 0.14255977 0.09723408 0.11312654
v 0.13283995 0.11526330 0.10410203
v 0.12855073 0.12043351 0.10410203
v 0.12850584 0.12027194 0.10490579
v 0.14290953 0.09366530 0.11246858
v 0.14276065 0.09043867 0.11265176
v 0.12701702 0.11894137 0.10806473
v 0.13705825 0.08048315 0.10410203
v 0.13792318 0.08122447 0.10410203
v 0.11913103 0.12025293 0.11439385
v 0.11913103 0.08775852 0.13532145
v 0.12975361 0.07593546 0.10410203
v 0.14144672 0.09366530 0.11009843
v 0.13810278 0.10314086 0.10794884
v 0.13771049 0.10614414 0.10854326
v 0.13288011 0.11514925 0.10410203
v 0.12333280 0.12442047 0.10410203
v 0.12324772 0.12448224 0.10429268
v 0.12513356 0.12184962 0.10617684
v 0.12385979 0.12027194 0.10964234
v 0.13994135 0.08892752 0.10662545
v 0.13844781 0.08892752 0.10410203
v 0.13842890 0.08409470 0.10410203
v 0.11913103 0.12028620 0.11434900
v 0.11913103 0.08656576 0.13269336
v 0.12696268 0.07605901 0.10410203
v 0.13775539 0.09253431 0.10410203
v 0.13888264 0.09386013 0.10623665
v 0.13859196 0.09840308 0.10721238
v 0.13655489 0.10314086 0.10557870
v 0.13508971 0.10557390 0.10410203
v 0.13372142 0.11170402 0.10410203
v 0.12323590 0.12442047 0.10410203
v 0.12324772 0.12448224 0.10419175
v 0.11913103 0.12448224 0.10837876
v 0.12166674 0.12343205 0.10745164
v 0.11913103 0.12242461 0.11138070
v 0.11913103 0.08647072 0.13238681
v 0.12563692 0.07945196 0.10410203
v 0.11913103 0.08624262 0.13093631
v 0.13752380 0.09367480 0.10410203
v 0.13706771 0.09590826 0.10410203
v 0.13634220 0.09945803 0.10410203
v 0.12314374 0.12448224 0.10419175
v 0.12305866 0.12441572 0.10410203
v 0.11913103 0.12448224 0.10823296
v 0.12014957 0.10109748 0.10410203
v 0.11913103 0.10639125 0.10410203
v 0.11937917 0.10500841 0.10410203
v 0.11998415 0.12398328 0.10576935
v 0.11913103 0.12424940 0.10747407
v 0.12060803 0.12352709 0.10410203
v 0.11913103 0.12285705 0.10410203
v 0.11913103 0.12375043 0.10608712
v 0.11913103 0.12335126 0.10517495
v 0.11949260 0.12303763 0.10410203
v 0.11913103 0.12303763 0.10446465
f 1 2 3
f 1 3 4
f 1 4 5
f 1 5 14
f 1 14 27
f 1 27 26
f 1 26 45
f 1 45 57
f 1 57 71
f 1 71 84
f 1 84 82
f 1 82 93
f 1 93 98
f 1 98 101
f 1 101 102
f 1 102 104
f 1 104 100
f 1 100 95
f 1 95 87
f 1 87 85
f 1 85 72
f 1 72 58
f 1 58 46
f 1 46 31
f 1 31 16
f 1 16 7
f 1 7 2
f 2 6 3
f 2 7 6
f 3 8 9
f 3 9 10
f 3 10 4
f 3 6 11
f 3 11 12
f 3 12 8
f 4 10 13
f 4 13 5
f 5 13 14
f 6 7 15
f 6 15 11
f 7 16 15
f 8 17 9
f 8 12 17
f 9 17 18
f 9 18 19
f 9 19 10
f 10 19 20
f 10 20 13
f 11 15 12
f 12 15 21
f 12 21 22
f 12 22 23
f 12 23 24
f 12 24 17
f 13 25 14
f 13 20 26
f 13 26 25
f 14 25 27
f 15 16 28
f 15 28 29
f 15 29 30
f 15 30 21
f 16 31 32
f 16 32 28
f 17 33 34
f 17 34 35
f 17 35 18
f 17 24 36
f 17 36 33
f 18 35 37
f 18 37 19
f 19 37 38
f 19 38 39
f 19 39 40
f 19 40 20
f 20 40 41
f 20 41 26
f 21 30 22
f 22 30 23
f 23 30 29
f 23 29 42
f 23 42 43
f 23 43 44
f 23 44 36
f 23 36 24
f 25 26 27
f 26 41 45
f 28 32 29
f 29 32 42
f 31 46 47
f 31 47 32
f 32 47 43
f 32 43 42
f 33 36 48
f 33 48 49
f 33 49 34
f 34 49 50
f 34 50 51
f 34 51 35
f 35 51 37
f 36 52 48
f 36 44 53
f 36 53 52
f 37 51 38
f 38 51 54
f 38 54 39
f 39 54 41
f 39 41 40
f 41 54 45
f 43 47 55
f 43 55 56
f 43 56 53
f 43 53 44
f 45 54 57
f 46 58 47
f 47 59 73
f 47 73 86
f 47 86 94
f 47 94 96
f 47 96 95
f 47 95 100
f 47 100 103
f 47 103 99
f 47 99 92
f 47 92 80
f 47 80 64
f 47 64 50
f 47 50 49
f 47 49 63
f 47 63 79
f 47 79 78
f 47 78 90
f 47 90 89
f 47 89 88
f 47 88 74
f 47 74 69
f 47 69 70
f 47 70 56
f 47 56 55
f 47 58 59
f 48 52 60
f 48 60 61
f 48 61 62
f 48 62 49
f 49 62 63
f 50 64 65
f 50 65 51
f 51 65 66
f 51 66 67
f 51 67 54
f 52 53 68
f 52 68 69
f 52 69 60
f 53 56 70
f 53 70 68
f 54 67 57
f 57 67 71
f 58 72 59
f 59 72 73
f 60 69 74
f 60 74 75
f 60 75 76
f 60 76 61
f 61 76 77
f 61 77 78
f 61 78 79
f 61 79 63
f 61 63 62
f 64 80 91
f 64 91 81
f 64 81 65
f 65 82 83
f 65 83 66
f 65 81 91
f 65 91 93
f 65 93 82
f 66 83 67
f 67 83 71
f 68 70 69
f 71 83 84
f 72 85 73
f 73 85 87
f 73 87 86
f 74 88 75
f 75 88 89
f 75 89 90
f 75 90 76
f 76 90 77
f 77 90 78
f 80 92 91
f 82 84 83
f 86 87 94
f 87 95 96
f 87 96 94
f 91 92 97
f 91 97 98
f 91 98 93
f 92 99 97
f 97 101 98
f 97 99 101
f 99 102 101
f 99 103 102
f 100 104 103
f 102 103 104

