# https://github.com/mikedh/trimesh
v 0.10548076 0.08379327 0.07763590
v 0.12220955 0.08379327 0.07763590
v 0.10548076 0.08379327 0.08809798
v 0.10548076 0.09829794 0.07763590
v 0.13800895 0.08892777 0.10336101
v 0.13490134 0.08418700 0.09714284
v 0.13305550 0.08379327 0.09420734
v 0.12212886 0.08418700 0.07763590
v 0.12880877 0.11735645 0.09819475
v 0.12904110 0.11221797 0.09694334
v 0.13370091 0.10787890 0.10270033
v 0.13396229 0.10304268 0.10158884
v 0.13655681 0.09840532 0.10410202
v 0.10548076 0.09323502 0.08226843
v 0.12473952 0.08379327 0.10410202
v 0.11254144 0.11388042 0.10410202
v 0.11214775 0.11517697 0.10410202
v 0.11217357 0.11735645 0.10410202
v 0.10548076 0.09829794 0.07766180
v 0.11339660 0.11991376 0.10410202
v 0.10819467 0.10163079 0.07911530
v 0.10863354 0.10119330 0.07763590
v 0.13775402 0.09253504 0.10410202
v 0.13844783 0.08892777 0.10410202
v 0.13693758 0.08418700 0.10034002
v 0.13494330 0.08379327 0.09714284
v 0.11936333 0.09764966 0.07763590
v 0.11954082 0.09796386 0.07800380
v 0.12190299 0.10319779 0.08324003
v 0.12378110 0.11261568 0.08921725
v 0.12836022 0.12072907 0.09888134
v 0.13283930 0.11526447 0.10399060
v 0.13318780 0.11261568 0.10346465
v 0.13508851 0.10557215 0.10410202
v 0.11931493 0.10314211 0.07935107
v 0.13559515 0.10310631 0.10410202
v 0.10548076 0.09554575 0.08022162
v 0.13835423 0.08379327 0.10410202
v 0.10548076 0.09823828 0.07772657
v 0.10548076 0.09777693 0.07821366
v 0.11451314 0.12057794 0.10410202
v 0.11346436 0.11988592 0.10398542
v 0.11080532 0.10268474 0.07763590
v 0.13842846 0.08409155 0.10410202
v 0.13821226 0.08418700 0.10271070
v 0.13706990 0.08379327 0.10070015
v 0.11921166 0.09824226 0.07763590
v 0.12340354 0.11522867 0.08981057
v 0.12350680 0.11987796 0.09458302
v 0.12528165 0.12107906 0.09723870
v 0.12512353 0.12321082 0.10231688
v 0.12867646 0.12088816 0.10188161
v 0.13287802 0.11515311 0.10410202
v 0.13372026 0.11170492 0.10410202
v 0.13283930 0.11526447 0.10410202
v 0.11887283 0.10608520 0.08005062
v 0.13817353 0.08379327 0.10275474
v 0.11646225 0.12154439 0.10410202
v 0.11641707 0.12057794 0.10219770
v 0.11978606 0.11895129 0.09608057
v 0.11337079 0.10572328 0.08020089
v 0.11138618 0.10300291 0.07763590
v 0.11655583 0.10317790 0.07763590
v 0.11926651 0.11075040 0.08465985
v 0.12294208 0.11987796 0.09458302
v 0.12332931 0.12442385 0.10410202
v 0.12854737 0.12043476 0.10410202
v 0.11629768 0.10336881 0.07763590
v 0.11610083 0.10610509 0.07990812
v 0.11949241 0.12303582 0.10410202
v 0.12127694 0.12303582 0.10231688
v 0.12115431 0.12057396 0.09745375
v 0.11761429 0.11075040 0.08465985
v 0.12305502 0.12441192 0.10410202
v 0.12323250 0.12442385 0.10410202
v 0.12060895 0.12352501 0.10410202
f 1 2 7
f 1 7 26
f 1 26 46
f 1 46 57
f 1 57 38
f 1 38 15
f 1 15 3
f 1 3 14
f 1 14 37
f 1 37 40
f 1 40 39
f 1 39 19
f 1 19 4
f 1 4 22
f 1 22 43
f 1 43 62
f 1 62 68
f 1 68 63
f 1 63 47
f 1 47 27
f 1 27 8
f 1 8 2
f 2 5 6
f 2 6 7
f 2 8 9
f 2 9 10
f 2 10 11
f 2 11 12
f 2 12 13
f 2 13 5
f 3 15 16
f 3 16 17
f 3 17 18
f 3 18 14
f 4 19 18
f 4 18 20
f 4 20 21
f 4 21 22
f 5 23 24
f 5 24 25
f 5 25 6
f 5 13 23
f 6 25 26
f 6 26 7
f 8 27 28
f 8 28 29
f 8 29 9
f 9 30 31
f 9 31 32
f 9 32 33
f 9 33 34
f 9 34 11
f 9 11 10
f 9 29 35
f 9 35 30
f 11 34 36
f 11 36 13
f 11 13 12
f 13 36 34
f 13 34 54
f 13 54 53
f 13 53 55
f 13 55 67
f 13 67 66
f 13 66 75
f 13 75 74
f 13 74 76
f 13 76 70
f 13 70 58
f 13 58 41
f 13 41 20
f 13 20 18
f 13 18 17
f 13 17 16
f 13 16 15
f 13 15 38
f 13 38 44
f 13 44 24
f 13 24 23
f 14 18 37
f 18 19 39
f 18 39 40
f 18 40 37
f 20 41 42
f 20 42 43
f 20 43 22
f 20 22 21
f 24 44 45
f 24 45 25
f 25 45 46
f 25 46 26
f 27 47 35
f 27 35 29
f 27 29 28
f 30 48 31
f 30 35 48
f 31 49 50
f 31 50 51
f 31 51 52
f 31 52 32
f 31 48 49
f 32 53 54
f 32 54 33
f 32 52 55
f 32 55 53
f 33 54 34
f 35 47 56
f 35 56 48
f 38 57 44
f 41 58 59
f 41 59 60
f 41 60 43
f 41 43 42
f 43 61 62
f 43 60 61
f 44 57 45
f 45 57 46
f 47 63 56
f 48 56 64
f 48 64 49
f 49 65 75
f 49 75 66
f 49 66 50
f 49 64 73
f 49 73 65
f 50 66 51
f 51 66 52
f 52 67 55
f 52 66 67
f 56 63 68
f 56 68 69
f 56 69 64
f 58 70 71
f 58 71 72
f 58 72 59
f 59 72 60
f 60 72 61
f 61 72 65
f 61 65 73
f 61 73 62
f 62 73 69
f 62 69 68
f 64 69 73
f 65 72 71
f 65 71 74
f 65 74 75
f 70 76 71
f 71 76 74

