# https://github.com/mikedh/trimesh
v -0.01658797 0.11404067 0.14725072
v -0.02132639 0.11379272 0.14725072
v -0.01617970 0.11376888 0.14725072
v -0.01046886 0.10273996 0.12143787
v -0.02435996 0.11196649 0.14725072
v -0.02499587 0.10020803 0.12143787
v -0.03080073 0.09914471 0.12143787
v -0.03554410 0.09806709 0.12143787
v -0.03568019 0.09800987 0.12143787
v -0.01347027 0.11170901 0.14725072
v -0.01046886 0.08770572 0.13362537
v -0.01046886 0.06533317 0.12143787
v -0.02480782 0.11089364 0.14725072
v -0.03574699 0.09797173 0.12145051
v -0.03574699 0.09052374 0.12143787
v -0.01046886 0.07085001 0.14725072
v -0.01046886 0.06533317 0.14725072
v -0.03574699 0.06533317 0.12143787
v -0.02641368 0.10585838 0.14725072
v -0.03574699 0.09414760 0.12531422
v -0.03574699 0.06533317 0.14725072
v -0.03574699 0.09391396 0.12554924
v -0.03574699 0.09132481 0.12804334
v -0.03574699 0.08880718 0.13022410
v -0.03574699 0.08859738 0.13040099
v -0.03574699 0.08355736 0.13454771
v -0.03574699 0.08309484 0.13492424
v -0.03574699 0.07072127 0.14492087
v -0.03574699 0.06789848 0.14719512
v -0.03574699 0.06780311 0.14725072
f 1 2 5
f 1 5 13
f 1 13 19
f 1 19 30
f 1 30 21
f 1 21 17
f 1 17 16
f 1 16 10
f 1 10 3
f 1 3 4
f 1 4 2
f 2 4 6
f 2 6 7
f 2 7 8
f 2 8 9
f 2 9 5
f 3 10 4
f 4 10 11
f 4 11 16
f 4 16 17
f 4 17 12
f 4 12 18
f 4 18 15
f 4 15 9
f 4 9 8
f 4 8 7
f 4 7 6
f 5 9 14
f 5 14 13
f 9 15 14
f 10 16 11
f 12 17 21
f 12 21 18
f 13 14 19
f 14 15 18
f 14 18 21
f 14 21 30
f 14 30 29
f 14 29 28
f 14 28 27
f 14 27 26
f 14 26 25
f 14 25 24
f 14 24 23
f 14 23 22
f 14 22 20
f 14 20 19
f 19 20 22
f 19 22 23
f 19 23 24
f 19 24 25
f 19 25 26
f 19 26 27
f 19 27 28
f 19 28 29
f 19 29 30

