# https://github.com/mikedh/trimesh
v -0.06249084 0.26188188 0.16617011
v -0.06249084 0.26310598 0.16580922
v -0.07154137 0.26266699 0.16134816
v -0.07175308 0.26188188 0.16146058
v -0.06249084 0.26188188 0.16005245
v -0.06249084 0.26512410 0.16511698
v -0.06890560 0.26425246 0.16220606
v -0.07834779 0.26419266 0.15742552
v -0.08096238 0.26256646 0.15657946
v -0.09979381 0.26236668 0.14704204
v -0.09053159 0.26188188 0.15189358
v -0.06249614 0.27488131 0.14452752
v -0.06249084 0.27488003 0.14453344
v -0.11655580 0.26188188 0.12525154
v -0.11655580 0.27488131 0.10573297
v -0.06249084 0.26911326 0.16309353
v -0.06745011 0.26759902 0.16167948
v -0.07060986 0.26582522 0.16075651
v -0.09570256 0.26746542 0.14737336
v -0.08778996 0.26413285 0.15263314
v -0.09722685 0.26407177 0.14783485
v -0.09886230 0.26552620 0.14646222
v -0.10157745 0.26407177 0.14549192
v -0.10222846 0.26188188 0.14579366
v -0.10032838 0.26188188 0.14688230
v -0.09992084 0.26188188 0.14710712
v -0.06249084 0.27488131 0.15104160
v -0.11655580 0.26188188 0.13293709
v -0.11655580 0.27488131 0.12225186
v -0.06249084 0.27157800 0.16136591
v -0.06539125 0.27075600 0.16063227
v -0.07481226 0.27071273 0.15586356
v -0.07687112 0.26755449 0.15691078
v -0.09364369 0.27062366 0.14632615
v -0.09986262 0.27154493 0.14235617
v -0.10161979 0.26891094 0.14318448
v -0.10469486 0.26727455 0.14253366
v -0.10536174 0.26426137 0.14309573
v -0.10579045 0.26188188 0.14342705
v -0.06249084 0.27488131 0.15765626
v -0.11570368 0.26188188 0.13379497
v -0.11655580 0.26426137 0.13208511
v -0.11655580 0.27454920 0.12272519
v -0.11466631 0.27488131 0.12414516
v -0.06249084 0.27201318 0.16089851
v -0.07165252 0.27162509 0.15666820
v -0.08106823 0.27159837 0.15189950
v -0.09048395 0.27157165 0.14712487
v -0.09714217 0.27454028 0.14040371
v -0.10028074 0.27488131 0.13826786
v -0.10127048 0.27328436 0.13935650
v -0.10302236 0.27043152 0.14127936
v -0.09714217 0.27217097 0.14306023
v -0.10640440 0.26885240 0.13957540
v -0.10943182 0.26727455 0.13786554
v -0.10773286 0.26426137 0.14090662
v -0.10816157 0.26188188 0.14133261
v -0.10698130 0.26188188 0.14242124
v -0.06274490 0.27488131 0.15754384
v -0.06249084 0.27386715 0.15881590
v -0.11408940 0.26188188 0.13541019
v -0.11484096 0.26426137 0.13380089
v -0.11416879 0.26727455 0.13313233
v -0.11655580 0.26490778 0.13179519
v -0.11655580 0.27304515 0.12484922
v -0.11442814 0.27186304 0.12865354
v -0.11208347 0.27488131 0.12673066
v -0.06362349 0.27357703 0.15856740
v -0.06871507 0.27466117 0.15475717
v -0.07400247 0.27488131 0.15181667
v -0.08246021 0.27352359 0.14902999
v -0.08766823 0.27221169 0.14784668
v -0.09564434 0.27488131 0.14078237
v -0.09714217 0.27488131 0.14000140
v -0.09390833 0.27488131 0.14166986
v -0.10494890 0.27186304 0.13811994
v -0.10277890 0.27488131 0.13599001
v -0.10810865 0.27043152 0.13654025
v -0.11285091 0.27043152 0.13180703
v -0.11114137 0.26885240 0.13484220
v -0.06456558 0.27488131 0.15662088
v -0.11587834 0.26885240 0.13010308
v -0.11655580 0.26849865 0.12971850
v -0.11655580 0.27089851 0.12758856
v -0.10969117 0.27186304 0.13338674
v -0.10620327 0.27344343 0.13464104
v -0.10755821 0.27488131 0.13125679
v -0.06572998 0.27488131 0.15602922
v -0.08451908 0.27488131 0.14645630
v -0.10299590 0.27488131 0.13578293
v -0.10518707 0.27488131 0.13362339
v -0.11655580 0.26947972 0.12889611
f 1 2 3
f 1 3 4
f 1 4 11
f 1 11 26
f 1 26 25
f 1 25 24
f 1 24 39
f 1 39 58
f 1 58 57
f 1 57 61
f 1 61 41
f 1 41 28
f 1 28 14
f 1 14 5
f 1 5 13
f 1 13 27
f 1 27 40
f 1 40 60
f 1 60 45
f 1 45 30
f 1 30 16
f 1 16 6
f 1 6 2
f 2 6 7
f 2 7 3
f 3 7 8
f 3 8 9
f 3 9 4
f 4 9 10
f 4 10 11
f 5 12 13
f 5 14 15
f 5 15 12
f 6 16 17
f 6 17 18
f 6 18 7
f 7 18 8
f 8 18 19
f 8 19 20
f 8 20 9
f 9 20 10
f 10 21 22
f 10 22 23
f 10 23 24
f 10 24 25
f 10 25 26
f 10 26 11
f 10 20 21
f 12 27 13
f 12 15 29
f 12 29 44
f 12 44 67
f 12 67 87
f 12 87 91
f 12 91 90
f 12 90 77
f 12 77 50
f 12 50 74
f 12 74 73
f 12 73 75
f 12 75 89
f 12 89 70
f 12 70 88
f 12 88 81
f 12 81 59
f 12 59 40
f 12 40 27
f 14 28 42
f 14 42 64
f 14 64 83
f 14 83 92
f 14 92 84
f 14 84 65
f 14 65 43
f 14 43 29
f 14 29 15
f 16 30 31
f 16 31 17
f 17 31 32
f 17 32 33
f 17 33 18
f 18 33 19
f 19 34 35
f 19 35 36
f 19 36 37
f 19 37 22
f 19 22 21
f 19 21 20
f 19 33 32
f 19 32 34
f 22 37 23
f 23 37 38
f 23 38 24
f 24 38 39
f 28 41 42
f 29 43 44
f 30 45 46
f 30 46 31
f 31 46 47
f 31 47 48
f 31 48 32
f 32 48 34
f 34 48 35
f 35 49 50
f 35 50 51
f 35 51 52
f 35 52 37
f 35 37 36
f 35 48 53
f 35 53 49
f 37 52 54
f 37 54 55
f 37 55 56
f 37 56 38
f 38 56 57
f 38 57 58
f 38 58 39
f 40 59 60
f 41 61 42
f 42 61 62
f 42 62 63
f 42 63 64
f 43 65 66
f 43 66 67
f 43 67 44
f 45 60 68
f 45 68 46
f 46 68 69
f 46 69 70
f 46 70 71
f 46 71 47
f 47 71 72
f 47 72 53
f 47 53 48
f 49 73 74
f 49 74 50
f 49 53 72
f 49 72 75
f 49 75 73
f 50 76 51
f 50 77 76
f 51 76 52
f 52 76 78
f 52 78 54
f 54 78 79
f 54 79 80
f 54 80 63
f 54 63 55
f 55 63 56
f 56 63 62
f 56 62 61
f 56 61 57
f 59 81 60
f 60 81 68
f 63 80 82
f 63 82 83
f 63 83 64
f 65 84 66
f 66 84 79
f 66 79 85
f 66 85 86
f 66 86 87
f 66 87 67
f 68 81 88
f 68 88 69
f 69 88 70
f 70 89 71
f 71 89 75
f 71 75 72
f 76 77 90
f 76 90 91
f 76 91 86
f 76 86 85
f 76 85 79
f 76 79 78
f 79 84 92
f 79 92 82
f 79 82 80
f 82 92 83
f 86 91 87

