# https://github.com/mikedh/trimesh
v 0.15162776 0.11263090 -0.01107861
v 0.15268267 0.11743300 0.00931039
v 0.15253524 0.11749298 -0.01107861
v 0.15183415 0.11132541 -0.01107861
v 0.15319703 0.11261679 0.00931039
v 0.15497270 0.12090844 0.00931039
v 0.15273509 0.11782818 -0.01107861
v 0.15522496 0.10907784 0.00931039
v 0.17188740 0.08774536 -0.01107861
v 0.15699407 0.12216807 0.00931039
v 0.15497270 0.12090844 -0.01107861
v 0.17311595 0.08888855 0.00931039
v 0.17278505 0.08757953 -0.01107861
v 0.17780410 0.08737136 0.00931039
v 0.15875007 0.12326186 0.00931039
v 0.15875007 0.12326186 -0.01107861
v 0.17788599 0.08721611 -0.01107861
v 0.17837742 0.08742781 -0.01107861
v 0.18222688 0.08948837 0.00931039
v 0.16334650 0.12207633 0.00931039
v 0.16334650 0.12207633 -0.01107861
v 0.18222688 0.08948837 -0.01107861
v 0.18349802 0.09091383 0.00931039
v 0.16444728 0.12090491 0.00931039
v 0.16571514 0.11955355 -0.01107861
v 0.18459881 0.09215229 -0.01107861
v 0.18459881 0.09215229 0.00931039
v 0.16571514 0.11955355 0.00931039
v 0.18045122 0.10199289 -0.01107861
v 0.18509350 0.09451982 -0.01107861
v 0.18509677 0.09451982 -0.00236898
v 0.18509677 0.09451982 0.00931039
v 0.18077227 0.10160830 0.00931039
v 0.18187305 0.10029575 0.00931039
v 0.18314092 0.09878208 -0.01107861
v 0.18509350 0.09641455 -0.01107861
v 0.18509677 0.09641455 -0.00236898
v 0.18509677 0.09641455 0.00931039
v 0.18314092 0.09878208 0.00931039
v 0.18477898 0.09679914 -0.01107861
f 1 2 3
f 1 3 7
f 1 7 11
f 1 11 16
f 1 16 21
f 1 21 25
f 1 25 29
f 1 29 35
f 1 35 40
f 1 40 36
f 1 36 30
f 1 30 26
f 1 26 22
f 1 22 18
f 1 18 17
f 1 17 13
f 1 13 9
f 1 9 4
f 1 4 5
f 1 5 2
f 2 6 7
f 2 7 3
f 2 5 8
f 2 8 12
f 2 12 14
f 2 14 19
f 2 19 23
f 2 23 27
f 2 27 32
f 2 32 38
f 2 38 39
f 2 39 34
f 2 34 33
f 2 33 28
f 2 28 24
f 2 24 20
f 2 20 15
f 2 15 10
f 2 10 6
f 4 8 5
f 4 9 8
f 6 10 11
f 6 11 7
f 8 9 12
f 9 13 14
f 9 14 12
f 10 15 16
f 10 16 11
f 13 17 14
f 14 17 18
f 14 18 19
f 15 20 21
f 15 21 16
f 18 22 19
f 19 22 23
f 20 24 21
f 21 24 25
f 22 26 23
f 23 26 27
f 24 28 25
f 25 28 29
f 26 30 31
f 26 31 32
f 26 32 27
f 28 33 29
f 29 33 34
f 29 34 35
f 30 36 37
f 30 37 31
f 31 37 38
f 31 38 32
f 34 39 35
f 35 39 38
f 35 38 37
f 35 37 40
f 36 40 37

