# https://github.com/mikedh/trimesh
v 0.01187921 0.06532840 0.14725411
v 0.03543468 0.06532840 0.14725411
v 0.01348679 0.06532840 0.15171572
v 0.01187921 0.06534541 0.15149762
v 0.01163994 0.06533407 0.14725411
v 0.01163994 0.06533407 0.12144410
v 0.03543717 0.06533407 0.12144410
v 0.03543468 0.06532840 0.14873716
v 0.01697363 0.06532840 0.15302429
v 0.00997503 0.08949191 0.18222413
v 0.00997503 0.08731998 0.17783107
v 0.01163994 0.10251220 0.12144410
v 0.00997503 0.08875471 0.17293327
v 0.00997503 0.09376207 0.16842181
v 0.00997503 0.10878416 0.15493729
v 0.00997503 0.10958376 0.15428302
v 0.00997503 0.11261199 0.15293082
v 0.00997503 0.11311670 0.15280619
v 0.00997503 0.11745490 0.15263795
v 0.03543717 0.09809460 0.12144410
v 0.03543717 0.06533407 0.14725411
v 0.03543468 0.06534541 0.14879325
v 0.03531255 0.06532840 0.14885556
v 0.02132782 0.06532840 0.15400261
v 0.02151225 0.06532840 0.15402129
v 0.01185179 0.08949191 0.18222413
v 0.00997503 0.09215155 0.18459202
v 0.02606084 0.10000568 0.12144410
v 0.00997503 0.11867981 0.15336077
v 0.00997503 0.12090845 0.15496845
v 0.00997503 0.12326186 0.15874461
v 0.01185179 0.12326186 0.15874461
v 0.01658980 0.12319381 0.15874461
v 0.03543717 0.09804924 0.12151887
v 0.03540975 0.09810595 0.12144410
v 0.01979500 0.12050582 0.15544203
v 0.02012400 0.12142450 0.15874461
v 0.02185869 0.11735283 0.15874461
v 0.03543717 0.06782358 0.14725411
v 0.03543468 0.06588415 0.14857515
v 0.02218519 0.09367701 0.17770021
v 0.02376038 0.08699107 0.17546317
v 0.02376038 0.08639563 0.17546317
v 0.02423891 0.08116710 0.17130690
v 0.02899936 0.06532840 0.15267534
v 0.01658980 0.08949191 0.18221166
v 0.02603093 0.06532840 0.15394029
v 0.01185179 0.09215155 0.18459202
v 0.00997503 0.09451629 0.18509676
v 0.02683348 0.09986958 0.12144410
v 0.00997503 0.12207665 0.16334954
v 0.01185179 0.12207665 0.16334954
v 0.01658980 0.12201427 0.16325607
v 0.01967786 0.12120334 0.16248962
v 0.03092596 0.09911536 0.12144410
v 0.03543717 0.09394921 0.12579355
v 0.02038570 0.11769308 0.16383558
v 0.02185869 0.11261199 0.16349287
v 0.03543717 0.07042083 0.14556543
v 0.02126800 0.09839516 0.17770021
v 0.01911209 0.09621755 0.18494720
v 0.01911209 0.09520247 0.18494720
v 0.01998193 0.09009870 0.18148260
v 0.02132782 0.08080984 0.17174932
v 0.01658980 0.09228765 0.18457332
v 0.01185179 0.09451629 0.18509676
v 0.00997503 0.09641036 0.18509676
v 0.00997503 0.11955312 0.16571121
v 0.01185179 0.11955312 0.16571121
v 0.01658980 0.11946238 0.16563020
v 0.01962303 0.11633774 0.16693254
v 0.03543717 0.08889081 0.13032369
v 0.02028849 0.11277078 0.16839688
v 0.02149979 0.10313599 0.17295820
v 0.02169918 0.10787116 0.16822241
v 0.01973269 0.09803790 0.18220543
v 0.02016138 0.10786549 0.17300805
v 0.01997445 0.10295453 0.17760675
v 0.01658980 0.09635932 0.18505937
v 0.01931148 0.10124760 0.18046691
v 0.01658980 0.09872974 0.18308405
v 0.01658980 0.09465239 0.18505937
v 0.01185179 0.09641036 0.18509676
v 0.00997503 0.09878078 0.18313390
v 0.01185179 0.09878078 0.18313390
v 0.01946352 0.10627198 0.17596791
v 0.01956820 0.11129635 0.17145023
f 1 2 8
f 1 8 23
f 1 23 45
f 1 45 47
f 1 47 25
f 1 25 24
f 1 24 9
f 1 9 3
f 1 3 4
f 1 4 5
f 1 5 6
f 1 6 7
f 1 7 2
f 2 7 21
f 2 21 8
f 3 9 4
f 4 9 10
f 4 10 11
f 4 11 5
f 5 11 6
f 6 12 28
f 6 28 50
f 6 50 55
f 6 55 35
f 6 35 20
f 6 20 7
f 6 11 13
f 6 13 14
f 6 14 15
f 6 15 16
f 6 16 17
f 6 17 18
f 6 18 19
f 6 19 12
f 7 20 34
f 7 34 56
f 7 56 72
f 7 72 59
f 7 59 39
f 7 39 21
f 8 22 23
f 8 21 22
f 9 24 10
f 10 24 25
f 10 25 26
f 10 26 48
f 10 48 27
f 10 27 49
f 10 49 67
f 10 67 84
f 10 84 68
f 10 68 51
f 10 51 31
f 10 31 30
f 10 30 29
f 10 29 19
f 10 19 18
f 10 18 17
f 10 17 16
f 10 16 15
f 10 15 14
f 10 14 13
f 10 13 11
f 12 19 29
f 12 29 30
f 12 30 31
f 12 31 32
f 12 32 33
f 12 33 28
f 20 35 36
f 20 36 37
f 20 37 38
f 20 38 34
f 21 39 22
f 22 39 40
f 22 40 41
f 22 41 42
f 22 42 43
f 22 43 44
f 22 44 23
f 23 44 45
f 25 46 26
f 25 47 46
f 26 46 48
f 27 48 66
f 27 66 49
f 28 33 50
f 31 51 52
f 31 52 32
f 32 52 33
f 33 52 53
f 33 53 54
f 33 54 37
f 33 37 36
f 33 36 35
f 33 35 55
f 33 55 50
f 34 38 56
f 37 54 38
f 38 54 57
f 38 57 58
f 38 58 56
f 39 59 40
f 40 59 41
f 41 60 61
f 41 61 42
f 41 59 60
f 42 61 62
f 42 62 43
f 43 62 63
f 43 63 44
f 44 63 46
f 44 46 64
f 44 64 47
f 44 47 45
f 46 63 65
f 46 65 48
f 46 47 64
f 48 65 66
f 49 66 83
f 49 83 67
f 51 68 69
f 51 69 52
f 52 69 53
f 53 69 70
f 53 70 54
f 54 70 71
f 54 71 57
f 56 58 72
f 57 71 73
f 57 73 74
f 57 74 75
f 57 75 58
f 58 75 72
f 59 72 74
f 59 74 60
f 60 76 61
f 60 74 77
f 60 77 78
f 60 78 76
f 61 79 82
f 61 82 62
f 61 76 80
f 61 80 70
f 61 70 81
f 61 81 79
f 62 82 65
f 62 65 63
f 65 82 66
f 66 82 79
f 66 79 83
f 67 83 85
f 67 85 84
f 68 84 85
f 68 85 69
f 69 85 81
f 69 81 70
f 70 80 86
f 70 86 87
f 70 87 71
f 71 87 77
f 71 77 73
f 72 75 74
f 73 77 74
f 76 78 80
f 77 86 78
f 77 87 86
f 78 86 80
f 79 81 85
f 79 85 83

