# https://github.com/mikedh/trimesh
v 0.11432551 0.27250835 0.11647281
v 0.12548558 0.27250835 0.11647281
v 0.12730712 0.24056959 0.11647281
v 0.12705986 0.23669618 0.11759355
v 0.05047246 0.27250835 0.15700913
v 0.12442231 0.27250835 0.11774515
v 0.12573284 0.27234800 0.11647281
v 0.13059580 0.23669618 0.11647281
v 0.09714033 0.23610822 0.14559052
v 0.08766993 0.23611178 0.15037129
v 0.07819130 0.23611891 0.15515206
v 0.06871266 0.23612959 0.15992740
v 0.05924226 0.23614741 0.16470275
v 0.05047246 0.23643961 0.16895292
v 0.05047246 0.24056959 0.16729617
v 0.05047246 0.27250835 0.16529289
v 0.12390305 0.27186338 0.11917451
v 0.12762856 0.27094044 0.11647281
v 0.12593889 0.27220546 0.11647281
v 0.10546504 0.27250835 0.13670037
v 0.13065350 0.23669618 0.11647281
v 0.09714033 0.23610822 0.14820019
v 0.08766993 0.23611178 0.15298094
v 0.07819130 0.23611891 0.15777254
v 0.06871266 0.23612959 0.16256413
v 0.05924226 0.23614741 0.16736655
v 0.05047246 0.23649306 0.17118899
v 0.05047246 0.27169232 0.16618083
v 0.05252479 0.27150347 0.16599133
v 0.05328308 0.27250835 0.16465402
v 0.10494578 0.27186338 0.13812972
v 0.12706809 0.27043088 0.11759355
v 0.12905449 0.26939394 0.11647281
v 0.11285014 0.27043088 0.13181132
v 0.10327259 0.27250835 0.13868739
v 0.13466750 0.24056959 0.11647281
v 0.12951605 0.23669618 0.12004621
v 0.12477673 0.23669618 0.12478907
v 0.11056702 0.23669618 0.13900141
v 0.10582771 0.23669262 0.14335987
v 0.10062682 0.23681020 0.14746927
v 0.09121412 0.23677814 0.15223920
v 0.07238047 0.23672468 0.16177365
v 0.06295953 0.23670330 0.16654359
v 0.05339847 0.23715586 0.17091288
v 0.05047246 0.24056959 0.17177915
v 0.05047246 0.26964694 0.16736655
v 0.05426392 0.26913025 0.16688468
v 0.05568159 0.27079792 0.16540119
v 0.05465130 0.27250835 0.16408553
v 0.10173952 0.27250835 0.13988393
v 0.10301708 0.27043088 0.14128621
v 0.10811082 0.27043088 0.13654876
v 0.11890822 0.26727015 0.12839494
v 0.12950782 0.26885230 0.11647281
v 0.10639642 0.26885230 0.13958074
v 0.13467573 0.25478043 0.11647281
v 0.13030732 0.24056959 0.12083668
v 0.10898450 0.24056959 0.14215791
v 0.11846314 0.24056959 0.13268301
v 0.10355283 0.24056959 0.14634852
v 0.10118729 0.24056959 0.14775081
v 0.09179932 0.24056959 0.15253698
v 0.06363540 0.24056959 0.16689010
v 0.05639867 0.24056959 0.17023068
v 0.05403313 0.24056959 0.17106988
v 0.05047246 0.25478043 0.17177915
v 0.05047246 0.26901978 0.16769141
v 0.05450294 0.26425907 0.16879050
v 0.05803064 0.26763718 0.16644613
v 0.05047246 0.26476151 0.16946727
v 0.05047246 0.26419850 0.16969466
v 0.06539101 0.27075515 0.16063125
v 0.06223422 0.27164957 0.16143256
v 0.05924226 0.27233018 0.16219596
v 0.05845100 0.27250835 0.16236922
v 0.10064330 0.27250835 0.14069607
v 0.09986028 0.27154267 0.14236365
v 0.10161589 0.26890931 0.14319202
v 0.10469027 0.26727015 0.14253691
v 0.12194963 0.26425907 0.12669487
v 0.13217008 0.26425907 0.11647281
v 0.12838687 0.26727015 0.11891464
v 0.10942959 0.26727015 0.13786984
v 0.12976333 0.26854585 0.11647281
v 0.11846314 0.25478043 0.13268301
v 0.13386798 0.25951975 0.11647281
v 0.13227723 0.25951975 0.11806460
v 0.11095441 0.25951975 0.13939124
v 0.10898450 0.25478043 0.14215791
v 0.10661072 0.25478043 0.14402040
v 0.10661072 0.24530892 0.14401499
v 0.10355283 0.24530892 0.14637559
v 0.10355283 0.25478043 0.14638642
v 0.10118729 0.25478043 0.14775081
v 0.09179932 0.25478043 0.15253698
v 0.06363540 0.25478043 0.16689010
v 0.05639867 0.25478043 0.17025234
v 0.05639867 0.24530892 0.17024151
v 0.05403313 0.25478043 0.17106988
v 0.05339847 0.25846142 0.17091288
v 0.05047246 0.25550380 0.17171959
v 0.05047246 0.26345019 0.16995455
v 0.05170881 0.26161860 0.17031188
v 0.05946481 0.26430896 0.16699297
v 0.06119569 0.26592318 0.16552030
v 0.06745159 0.26759442 0.16168161
v 0.07481196 0.27071239 0.15586132
v 0.09048880 0.27157118 0.14712816
v 0.07165515 0.27162462 0.15666803
v 0.05924226 0.27250835 0.16199563
v 0.09714033 0.27250835 0.14268309
v 0.09714033 0.27216983 0.14306750
v 0.08423290 0.27066607 0.15109138
v 0.09363735 0.27062330 0.14632145
v 0.09569792 0.26746257 0.14737181
v 0.10535789 0.26425907 0.14310539
v 0.10773167 0.26425907 0.14090722
v 0.09885472 0.26552408 0.14646222
v 0.10157468 0.26407022 0.14548765
v 0.13302727 0.26186804 0.11647281
v 0.13184038 0.26499670 0.11647281
v 0.10858063 0.25951975 0.14175725
v 0.10621509 0.25951975 0.14375511
v 0.10292642 0.25951975 0.14612113
v 0.10056088 0.25951975 0.14743136
v 0.08178494 0.25951975 0.15700372
v 0.06300899 0.25951975 0.16657066
v 0.05924226 0.25951975 0.16836819
v 0.05047246 0.25963378 0.17118899
v 0.05047246 0.26034647 0.17096701
v 0.06212707 0.26276602 0.16611587
v 0.07834790 0.26419136 0.15742603
v 0.08628523 0.26750889 0.15214174
v 0.07687253 0.26755165 0.15691168
v 0.09578859 0.27250835 0.14337611
v 0.09722275 0.26407022 0.14783743
v 0.08779357 0.26413079 0.15262902
v 0.09979434 0.26236335 0.14704153
v 0.09038165 0.26246313 0.15181147
v 0.07153976 0.26266268 0.16135134
f 1 2 7
f 1 7 19
f 1 19 18
f 1 18 33
f 1 33 55
f 1 55 85
f 1 85 122
f 1 122 82
f 1 82 121
f 1 121 87
f 1 87 57
f 1 57 36
f 1 36 21
f 1 21 8
f 1 8 3
f 1 3 4
f 1 4 5
f 1 5 16
f 1 16 30
f 1 30 50
f 1 50 76
f 1 76 111
f 1 111 136
f 1 136 112
f 1 112 77
f 1 77 51
f 1 51 35
f 1 35 20
f 1 20 6
f 1 6 2
f 2 6 7
f 3 8 4
f 4 8 9
f 4 9 10
f 4 10 11
f 4 11 12
f 4 12 13
f 4 13 14
f 4 14 15
f 4 15 5
f 5 15 14
f 5 14 27
f 5 27 46
f 5 46 67
f 5 67 102
f 5 102 130
f 5 130 131
f 5 131 103
f 5 103 72
f 5 72 71
f 5 71 68
f 5 68 47
f 5 47 28
f 5 28 16
f 6 17 18
f 6 18 19
f 6 19 7
f 6 20 31
f 6 31 17
f 8 21 9
f 9 21 22
f 9 22 23
f 9 23 10
f 10 23 24
f 10 24 11
f 11 24 25
f 11 25 12
f 12 25 26
f 12 26 13
f 13 26 14
f 14 26 27
f 16 28 29
f 16 29 30
f 17 31 18
f 18 32 33
f 18 31 34
f 18 34 32
f 20 35 31
f 21 36 37
f 21 37 22
f 22 37 38
f 22 38 39
f 22 39 40
f 22 40 41
f 22 41 42
f 22 42 43
f 22 43 44
f 22 44 24
f 22 24 23
f 24 44 26
f 24 26 25
f 26 44 45
f 26 45 27
f 27 45 46
f 28 47 29
f 29 48 49
f 29 49 30
f 29 47 48
f 30 49 50
f 31 35 51
f 31 51 52
f 31 52 53
f 31 53 34
f 32 54 55
f 32 55 33
f 32 34 54
f 34 53 56
f 34 56 54
f 36 57 58
f 36 58 37
f 37 58 38
f 38 58 39
f 39 59 40
f 39 58 60
f 39 60 59
f 40 59 41
f 41 59 61
f 41 61 62
f 41 62 63
f 41 63 64
f 41 64 42
f 42 64 43
f 43 64 44
f 44 64 65
f 44 65 45
f 45 65 66
f 45 66 46
f 46 66 100
f 46 100 67
f 47 68 48
f 48 69 70
f 48 70 49
f 48 68 71
f 48 71 72
f 48 72 69
f 49 70 73
f 49 73 74
f 49 74 75
f 49 75 76
f 49 76 50
f 51 77 52
f 52 77 78
f 52 78 79
f 52 79 80
f 52 80 56
f 52 56 53
f 54 81 82
f 54 82 83
f 54 83 55
f 54 56 84
f 54 84 118
f 54 118 81
f 55 83 85
f 56 80 84
f 57 86 60
f 57 60 58
f 57 87 88
f 57 88 89
f 57 89 86
f 59 90 91
f 59 91 92
f 59 92 93
f 59 93 61
f 59 60 86
f 59 86 90
f 61 93 62
f 62 93 94
f 62 94 95
f 62 95 96
f 62 96 63
f 63 96 97
f 63 97 64
f 64 97 98
f 64 98 99
f 64 99 65
f 65 99 66
f 66 99 98
f 66 98 100
f 67 100 101
f 67 101 102
f 69 72 103
f 69 103 104
f 69 104 101
f 69 101 105
f 69 105 70
f 70 105 106
f 70 106 107
f 70 107 73
f 73 107 135
f 73 135 108
f 73 108 109
f 73 109 110
f 73 110 74
f 74 110 75
f 75 111 76
f 75 110 111
f 77 112 78
f 78 112 113
f 78 113 109
f 78 109 114
f 78 114 115
f 78 115 116
f 78 116 79
f 79 116 80
f 80 117 118
f 80 118 84
f 80 116 119
f 80 119 120
f 80 120 117
f 81 118 89
f 81 89 82
f 82 122 83
f 82 89 121
f 83 122 85
f 86 89 90
f 87 121 88
f 88 121 89
f 89 118 123
f 89 123 90
f 90 123 124
f 90 124 91
f 91 124 94
f 91 94 92
f 92 94 93
f 94 125 95
f 94 124 125
f 95 125 126
f 95 126 127
f 95 127 96
f 96 127 97
f 97 128 129
f 97 129 98
f 97 127 128
f 98 129 101
f 98 101 100
f 101 104 130
f 101 130 102
f 101 129 105
f 103 131 104
f 104 131 130
f 105 129 128
f 105 128 132
f 105 132 133
f 105 133 106
f 106 133 116
f 106 116 134
f 106 134 135
f 106 135 107
f 108 135 114
f 108 114 109
f 109 113 110
f 110 113 136
f 110 136 111
f 112 136 113
f 114 135 134
f 114 134 116
f 114 116 115
f 116 137 119
f 116 133 138
f 116 138 137
f 117 124 123
f 117 123 118
f 117 120 125
f 117 125 124
f 119 137 139
f 119 139 120
f 120 139 125
f 125 139 126
f 126 139 127
f 127 140 128
f 127 139 140
f 128 140 141
f 128 141 132
f 132 141 133
f 133 141 140
f 133 140 138
f 137 138 139
f 138 140 139

