# https://github.com/mikedh/trimesh
v -0.02430512 0.10229742 -0.13290580
v -0.02604355 0.10210740 -0.13290580
v -0.02606194 0.10142690 -0.13187666
v -0.02606194 0.09955286 -0.12947254
v -0.02132037 0.10223566 -0.13290580
v -0.02816829 0.10175112 -0.13290580
v -0.02880755 0.10116563 -0.13217948
v -0.02610333 0.09954217 -0.12947254
v -0.02132037 0.09925358 -0.12947254
v -0.01853797 0.10148390 -0.13290580
v 0.01184308 0.09255310 -0.12947254
v -0.02883974 0.10131170 -0.13290580
v -0.03511739 0.09016601 -0.12947254
v -0.03000789 0.09809804 -0.12947254
v -0.01817464 0.10046019 -0.13290580
v 0.01186148 0.09254003 -0.12948666
v 0.01186148 0.09016601 -0.13141217
v 0.00236913 0.09016601 -0.13288159
v 0.01186148 0.09016601 -0.12947254
v -0.02992971 0.09838781 -0.13290580
v -0.03157616 0.09368964 -0.13290580
v -0.03249136 0.09016601 -0.13290580
v -0.01685933 0.09629525 -0.13290580
v -0.01559920 0.09016601 -0.13290580
f 1 2 3
f 1 3 4
f 1 4 5
f 1 5 10
f 1 10 15
f 1 15 23
f 1 23 24
f 1 24 22
f 1 22 21
f 1 21 20
f 1 20 12
f 1 12 6
f 1 6 2
f 2 6 3
f 3 6 7
f 3 7 4
f 4 7 8
f 4 8 14
f 4 14 13
f 4 13 19
f 4 19 11
f 4 11 9
f 4 9 5
f 5 9 11
f 5 11 10
f 6 12 7
f 7 12 13
f 7 13 14
f 7 14 8
f 10 11 16
f 10 16 17
f 10 17 18
f 10 18 15
f 11 19 16
f 12 20 13
f 13 20 21
f 13 21 22
f 13 22 24
f 13 24 18
f 13 18 17
f 13 17 19
f 15 18 23
f 16 19 17
f 18 24 23

