# https://github.com/mikedh/trimesh
v -0.18509680 0.09452102 -0.01184831
v -0.18458313 0.09228482 -0.01658643
v -0.18459751 0.09215103 -0.01184831
v -0.18509680 0.09452102 -0.01128664
v -0.18509680 0.09641318 -0.01184831
v -0.18505729 0.09465481 -0.01658643
v -0.18149034 0.09009163 -0.01997853
v -0.18221235 0.08948958 -0.01658643
v -0.18495312 0.09520430 -0.01910994
v -0.18251050 0.08980494 -0.01128664
v -0.18459751 0.09215103 -0.01128664
v -0.18509680 0.09641318 -0.01128664
v -0.18314270 0.09878317 -0.01184831
v -0.18505729 0.09636540 -0.01658643
v -0.17547001 0.08639331 -0.02376380
v -0.17130677 0.08116596 -0.02424323
v -0.17940334 0.08711959 -0.01658643
v -0.18222673 0.08948958 -0.01184831
v -0.17175219 0.08080759 -0.02132654
v -0.16901861 0.07843761 -0.02132654
v -0.16665143 0.07641643 -0.02132654
v -0.18495312 0.09622206 -0.01910994
v -0.18222673 0.08948958 -0.01128664
v -0.18314270 0.09878317 -0.01128664
v -0.18309242 0.09873539 -0.01658643
v -0.16595097 0.11927208 -0.01128664
v -0.16571389 0.11955399 -0.01184831
v -0.17547001 0.08698102 -0.02376380
v -0.16126689 0.07636865 -0.02847383
v -0.16110882 0.07444781 -0.02820905
v -0.16236606 0.07444781 -0.02672864
v -0.16638920 0.07663623 -0.02442377
v -0.16430578 0.07444781 -0.02132654
v -0.18047379 0.10124872 -0.01930853
v -0.18220876 0.09804255 -0.01972979
v -0.17770428 0.09840569 -0.02126637
v -0.17770428 0.09366572 -0.02218109
v -0.16562767 0.11946798 -0.01658643
v -0.17789467 0.08720082 -0.01128664
v -0.16638920 0.07663623 -0.01816713
v -0.16284021 0.07444781 -0.01789231
v -0.17106611 0.08150521 -0.01398467
v -0.16571389 0.11955399 -0.01128664
v -0.16334670 0.12207688 -0.01184831
v -0.16325689 0.12201476 -0.01658643
v -0.17440675 0.09013941 -0.02350102
v -0.16126689 0.07731473 -0.02847383
v -0.15915832 0.07475840 -0.02906560
v -0.15905415 0.07444781 -0.02906560
v -0.16422317 0.07444781 -0.02180798
v -0.17597289 0.10627538 -0.01946099
v -0.17761449 0.10295453 -0.01997251
v -0.17300942 0.10786652 -0.02015706
v -0.17296273 0.10314089 -0.02150106
v -0.16822476 0.10787608 -0.02169564
v -0.17296273 0.09840569 -0.02236765
v -0.16248819 0.12120725 -0.01967362
v -0.16693520 0.11633826 -0.01962147
v -0.17145764 0.11129727 -0.01956530
v -0.17278312 0.08720082 -0.01128664
v -0.15875242 0.07444781 -0.01714609
v -0.14840001 0.07444781 -0.01693346
v -0.16334670 0.12207688 -0.01128664
v -0.15929842 0.12311853 -0.01128664
v -0.15875242 0.12325709 -0.01184831
v -0.15875242 0.12319498 -0.01658643
v -0.17288370 0.09366094 -0.02321216
v -0.14840001 0.07444781 -0.03177567
v -0.15374864 0.07444781 -0.03056005
v -0.15887814 0.07444781 -0.02912578
v -0.16840077 0.11277373 -0.02028544
v -0.16383523 0.11769527 -0.02038374
v -0.16349038 0.11261605 -0.02185612
v -0.15875242 0.12142704 -0.02012095
v -0.15875242 0.11735602 -0.02185612
v -0.17081825 0.08875373 -0.01128664
v -0.14840001 0.10787608 -0.01333875
v -0.15131679 0.11263516 -0.01128664
v -0.15429464 0.10822011 -0.01128664
v -0.15875242 0.12325709 -0.01128664
v -0.15496995 0.12091100 -0.01184831
v -0.15496995 0.12090622 -0.01658643
v -0.15544051 0.12050963 -0.01979197
v -0.15513518 0.11351435 -0.02343683
v -0.14927290 0.10787608 -0.02564140
v -0.14840001 0.10700645 -0.02597439
v -0.15137067 0.11510549 -0.02376180
v -0.15197774 0.11510549 -0.02376180
v -0.14840001 0.11232458 -0.01303184
v -0.15252013 0.11749937 -0.01128664
v -0.15496995 0.12091100 -0.01128664
v -0.15260275 0.11891849 -0.01658643
v -0.14840001 0.11455122 -0.02132654
v -0.14840001 0.11444610 -0.02152514
v -0.14840001 0.11182287 -0.02458224
v -0.14840001 0.11236758 -0.02435356
v -0.14840001 0.11517238 -0.01658643
v -0.15045110 0.11602768 -0.01283525
v -0.14981889 0.11654851 -0.01658643
f 1 2 3
f 1 3 11
f 1 11 4
f 1 4 12
f 1 12 5
f 1 5 14
f 1 14 6
f 1 6 2
f 2 7 8
f 2 8 3
f 2 6 9
f 2 9 7
f 3 8 10
f 3 10 11
f 4 11 10
f 4 10 23
f 4 23 39
f 4 39 60
f 4 60 76
f 4 76 79
f 4 79 78
f 4 78 90
f 4 90 91
f 4 91 80
f 4 80 64
f 4 64 63
f 4 63 43
f 4 43 26
f 4 26 24
f 4 24 12
f 5 12 24
f 5 24 13
f 5 13 14
f 6 14 22
f 6 22 9
f 7 15 16
f 7 16 8
f 7 9 15
f 8 17 18
f 8 18 10
f 8 16 19
f 8 19 20
f 8 20 21
f 8 21 17
f 9 22 28
f 9 28 15
f 10 18 23
f 13 25 14
f 13 24 26
f 13 26 27
f 13 27 25
f 14 25 22
f 15 28 47
f 15 47 29
f 15 29 30
f 15 30 16
f 16 30 31
f 16 31 32
f 16 32 19
f 17 23 18
f 17 21 23
f 19 32 20
f 20 32 21
f 21 32 33
f 21 33 23
f 22 34 35
f 22 35 36
f 22 36 37
f 22 37 28
f 22 25 38
f 22 38 34
f 23 33 40
f 23 40 41
f 23 41 42
f 23 42 39
f 25 27 38
f 26 43 27
f 27 43 63
f 27 63 44
f 27 44 45
f 27 45 38
f 28 37 46
f 28 46 47
f 29 47 48
f 29 48 49
f 29 49 30
f 30 49 70
f 30 70 69
f 30 69 68
f 30 68 62
f 30 62 61
f 30 61 41
f 30 41 33
f 30 33 50
f 30 50 31
f 31 50 32
f 32 50 33
f 33 41 40
f 34 51 52
f 34 52 35
f 34 38 51
f 35 52 36
f 36 52 53
f 36 53 54
f 36 54 37
f 37 54 55
f 37 55 56
f 37 56 46
f 38 45 57
f 38 57 58
f 38 58 59
f 38 59 51
f 39 42 61
f 39 61 62
f 39 62 60
f 41 61 42
f 44 63 64
f 44 64 65
f 44 65 66
f 44 66 45
f 45 66 57
f 46 56 67
f 46 67 68
f 46 68 47
f 47 68 69
f 47 69 48
f 48 69 70
f 48 70 49
f 51 53 52
f 51 59 53
f 53 59 58
f 53 58 71
f 53 71 54
f 54 71 72
f 54 72 55
f 55 72 73
f 55 73 68
f 55 68 56
f 56 68 67
f 57 66 74
f 57 74 75
f 57 75 72
f 57 72 58
f 58 72 71
f 60 62 76
f 62 68 86
f 62 86 95
f 62 95 96
f 62 96 94
f 62 94 93
f 62 93 97
f 62 97 89
f 62 89 77
f 62 77 78
f 62 78 79
f 62 79 76
f 64 80 65
f 65 81 82
f 65 82 66
f 65 80 91
f 65 91 81
f 66 82 83
f 66 83 74
f 68 73 84
f 68 84 85
f 68 85 86
f 72 75 73
f 73 75 84
f 74 83 87
f 74 87 88
f 74 88 75
f 75 88 84
f 77 89 78
f 78 89 90
f 81 92 82
f 81 91 92
f 82 92 93
f 82 93 83
f 83 93 94
f 83 94 87
f 84 88 85
f 85 88 86
f 86 88 87
f 86 87 95
f 87 94 96
f 87 96 95
f 89 97 98
f 89 98 90
f 90 98 91
f 91 98 97
f 91 97 99
f 91 99 92
f 92 99 93
f 93 99 97

