# https://github.com/mikedh/trimesh
v -0.10418824 0.12448224 -0.12314610
v -0.10232232 0.12303671 -0.12127625
v -0.09925410 0.12148216 -0.12119893
v -0.09925410 0.12185497 -0.12369875
v -0.09925410 0.12192179 -0.12522212
v -0.10418824 0.12448224 -0.12324632
v -0.10892845 0.12448224 -0.11840704
v -0.10576974 0.12398281 -0.11998482
v -0.11096674 0.12364869 -0.11402019
v -0.10705822 0.12303671 -0.11653718
v -0.10699789 0.12176704 -0.11402019
v -0.09925410 0.12057475 -0.11936344
v -0.10459331 0.12057826 -0.11402019
v -0.09925410 0.12099328 -0.12801687
v -0.10232232 0.12321257 -0.12512763
v -0.10429166 0.12448224 -0.12324632
v -0.10188708 0.12088777 -0.12867548
v -0.11332823 0.12448224 -0.11402019
v -0.11050996 0.12398281 -0.11524576
v -0.10957484 0.12303671 -0.11402019
v -0.09925410 0.11988891 -0.11820087
v -0.10365389 0.12001904 -0.11402019
v -0.09925410 0.12074708 -0.12840345
v -0.10490358 0.12027227 -0.12850653
v -0.10617912 0.12185145 -0.12513335
v -0.10745037 0.12343063 -0.12166855
v -0.10903187 0.12448224 -0.11850726
v -0.10399432 0.11526393 -0.13283897
v -0.10470536 0.11526393 -0.13283897
v -0.11350922 0.12448224 -0.11402019
v -0.09925410 0.11736012 -0.11601890
v -0.10216718 0.11735660 -0.11402019
v -0.09925410 0.11727571 -0.12935125
v -0.10806228 0.11894281 -0.12701752
v -0.10964379 0.12027227 -0.12385911
v -0.11358678 0.10547234 -0.13737759
v -0.11654726 0.10464582 -0.13550201
v -0.11438400 0.12027227 -0.11912005
v -0.11625854 0.12259708 -0.11402019
v -0.11219057 0.12343063 -0.11692949
v -0.11364281 0.12439783 -0.11402019
v -0.10346859 0.11261908 -0.13318831
v -0.11313000 0.09723530 -0.14255762
v -0.11610341 0.09727751 -0.14279815
v -0.11899063 0.09649320 -0.14261489
v -0.09925410 0.11251356 -0.11492505
v -0.10214995 0.11586887 -0.11402019
v -0.09925410 0.11243971 -0.13049665
v -0.10109848 0.11261908 -0.13166495
v -0.11754271 0.11894281 -0.11754227
v -0.11871915 0.10098453 -0.13767253
v -0.12999223 0.10195173 -0.12525648
v -0.11911991 0.12027227 -0.11438099
v -0.11925350 0.12043758 -0.11402019
v -0.10795024 0.10314402 -0.13810204
v -0.11010057 0.09366545 -0.14144659
v -0.11247068 0.09366545 -0.14290983
v -0.11610341 0.09366545 -0.14327349
v -0.11889152 0.09366545 -0.14252611
v -0.12125731 0.09366545 -0.14020956
v -0.12372222 0.09649320 -0.13794169
v -0.12043424 0.09807237 -0.13938775
v -0.09925410 0.08855160 -0.12052602
v -0.10255933 0.11338229 -0.11402019
v -0.12930705 0.08855160 -0.11402019
v -0.09925410 0.10787803 -0.13143873
v -0.10033574 0.10787803 -0.13214888
v -0.10270585 0.10787803 -0.13370088
v -0.13549950 0.10464582 -0.11654864
v -0.12187785 0.09965155 -0.13609189
v -0.13135396 0.09965155 -0.12661949
v -0.13609418 0.09965155 -0.12188045
v -0.12959578 0.11174684 -0.11402019
v -0.12573896 0.11499663 -0.11402019
v -0.12174857 0.11835898 -0.11402019
v -0.10558014 0.10314402 -0.13655576
v -0.10623946 0.09386241 -0.13888378
v -0.10336517 0.08892793 -0.13800755
v -0.10312815 0.08855160 -0.13792451
v -0.11265167 0.09043676 -0.14276093
v -0.10631703 0.08855160 -0.13980296
v -0.11610341 0.09063372 -0.14263780
v -0.11851229 0.09127031 -0.14219681
v -0.13310354 0.09366545 -0.12836622
v -0.13320265 0.09649320 -0.12846644
v -0.09925410 0.08855160 -0.13538747
v -0.14029573 0.08855160 -0.11402019
v -0.09925410 0.09907123 -0.13323986
v -0.09981432 0.10455086 -0.13248963
v -0.13767138 0.10098453 -0.11871916
v -0.13710254 0.10535276 -0.11402019
v -0.13421964 0.10680180 -0.11526580
v -0.13206930 0.10966120 -0.11402019
v -0.13938647 0.09807237 -0.12043438
v -0.10099506 0.08892793 -0.13645555
v -0.10390813 0.09241337 -0.13765248
v -0.10069341 0.08855160 -0.13633241
v -0.11089348 0.08855160 -0.14103138
v -0.11596982 0.08855160 -0.13997476
v -0.11617666 0.08855160 -0.13986594
v -0.11643522 0.08855160 -0.13961110
v -0.12039114 0.09068999 -0.13934193
v -0.13272431 0.09127031 -0.12798824
v -0.14020954 0.09366545 -0.12125906
v -0.13793855 0.09649320 -0.12372739
v -0.09925410 0.08879779 -0.13533879
v -0.14202374 0.08989513 -0.11402019
v -0.14263567 0.09063372 -0.11610194
v -0.13997684 0.08855160 -0.11596735
v -0.09925410 0.09372173 -0.13433371
v -0.14261412 0.09649320 -0.11898832
v -0.14104986 0.09964803 -0.11610194
v -0.13998545 0.10153320 -0.11402019
v -0.13961055 0.08855160 -0.11643410
v -0.13934338 0.09068999 -0.12039143
v -0.14219613 0.09127031 -0.11851013
v -0.14252363 0.09366545 -0.11888811
v -0.14271323 0.09051414 -0.11402019
v -0.14327344 0.09366545 -0.11610194
v -0.13986480 0.08855160 -0.11617639
v -0.14279511 0.09727751 -0.11610194
v -0.14263136 0.09724937 -0.11402019
v -0.14306229 0.09366545 -0.11402019
v -0.14277356 0.09616259 -0.11402019
f 1 2 3
f 1 3 4
f 1 4 5
f 1 5 6
f 1 6 16
f 1 16 27
f 1 27 30
f 1 30 18
f 1 18 7
f 1 7 19
f 1 19 8
f 1 8 2
f 2 8 9
f 2 9 10
f 2 10 11
f 2 11 3
f 3 12 21
f 3 21 31
f 3 31 46
f 3 46 63
f 3 63 86
f 3 86 106
f 3 106 110
f 3 110 88
f 3 88 66
f 3 66 48
f 3 48 33
f 3 33 23
f 3 23 14
f 3 14 5
f 3 5 4
f 3 11 13
f 3 13 12
f 5 14 15
f 5 15 6
f 6 15 17
f 6 17 16
f 7 18 19
f 8 19 9
f 9 18 30
f 9 30 41
f 9 41 39
f 9 39 54
f 9 54 75
f 9 75 74
f 9 74 73
f 9 73 93
f 9 93 91
f 9 91 113
f 9 113 122
f 9 122 124
f 9 124 123
f 9 123 118
f 9 118 107
f 9 107 87
f 9 87 65
f 9 65 64
f 9 64 47
f 9 47 32
f 9 32 22
f 9 22 13
f 9 13 11
f 9 11 20
f 9 20 10
f 9 19 18
f 10 20 11
f 12 13 21
f 13 22 21
f 14 23 15
f 15 23 17
f 16 17 24
f 16 24 25
f 16 25 26
f 16 26 40
f 16 40 27
f 17 28 29
f 17 29 24
f 17 23 28
f 21 22 31
f 22 32 31
f 23 33 28
f 24 34 35
f 24 35 25
f 24 29 36
f 24 36 37
f 24 37 34
f 25 35 38
f 25 38 39
f 25 39 40
f 25 40 26
f 27 40 41
f 27 41 30
f 28 33 42
f 28 42 43
f 28 43 44
f 28 44 29
f 29 44 45
f 29 45 36
f 31 32 46
f 32 47 46
f 33 48 49
f 33 49 42
f 34 37 50
f 34 50 35
f 35 50 38
f 36 45 51
f 36 51 37
f 37 51 52
f 37 52 50
f 38 50 53
f 38 53 54
f 38 54 39
f 39 41 40
f 42 49 55
f 42 55 43
f 43 55 56
f 43 56 57
f 43 57 58
f 43 58 44
f 44 58 45
f 45 58 59
f 45 59 60
f 45 60 61
f 45 61 62
f 45 62 51
f 46 47 64
f 46 64 65
f 46 65 63
f 48 66 67
f 48 67 68
f 48 68 49
f 49 68 55
f 50 52 69
f 50 69 53
f 51 62 70
f 51 70 71
f 51 71 72
f 51 72 52
f 52 72 69
f 53 69 73
f 53 73 74
f 53 74 75
f 53 75 54
f 55 76 56
f 55 68 76
f 56 76 77
f 56 77 78
f 56 78 79
f 56 79 57
f 57 80 58
f 57 79 81
f 57 81 80
f 58 82 83
f 58 83 59
f 58 80 82
f 59 83 60
f 60 83 84
f 60 84 85
f 60 85 61
f 61 85 62
f 62 85 72
f 62 72 71
f 62 71 70
f 63 65 87
f 63 87 109
f 63 109 120
f 63 120 114
f 63 114 101
f 63 101 100
f 63 100 99
f 63 99 98
f 63 98 81
f 63 81 79
f 63 79 97
f 63 97 86
f 66 88 89
f 66 89 67
f 67 89 76
f 67 76 68
f 69 72 90
f 69 90 91
f 69 91 92
f 69 92 93
f 69 93 73
f 72 85 94
f 72 94 90
f 76 89 95
f 76 95 96
f 76 96 77
f 77 96 95
f 77 95 78
f 78 95 97
f 78 97 79
f 80 81 98
f 80 98 82
f 82 98 99
f 82 99 100
f 82 100 83
f 83 100 101
f 83 101 102
f 83 102 103
f 83 103 84
f 84 103 104
f 84 104 85
f 85 104 105
f 85 105 94
f 86 97 106
f 87 107 108
f 87 108 109
f 88 110 89
f 89 110 95
f 90 94 111
f 90 111 91
f 91 111 112
f 91 112 113
f 91 93 92
f 94 105 111
f 95 110 106
f 95 106 97
f 101 114 115
f 101 115 102
f 102 115 103
f 103 115 116
f 103 116 104
f 104 116 117
f 104 117 111
f 104 111 105
f 107 118 108
f 108 118 119
f 108 119 116
f 108 116 109
f 109 116 120
f 111 117 119
f 111 119 121
f 111 121 112
f 112 121 113
f 113 121 122
f 114 120 116
f 114 116 115
f 116 119 117
f 118 123 119
f 119 123 124
f 119 124 122
f 119 122 121

