# https://github.com/mikedh/trimesh
v -0.10419177 0.12448224 0.12324845
v -0.10419177 0.12448224 0.12314537
v -0.10429164 0.12448224 0.12324845
v -0.10188595 0.12088665 0.12867389
v -0.10232019 0.12321165 0.12512794
v -0.09891140 0.12178175 0.12523446
v -0.09891140 0.12131144 0.12119029
v -0.10232019 0.12303718 0.12127618
v -0.10576807 0.12398538 0.11998425
v -0.11840449 0.12448224 0.10892720
v -0.10617625 0.12185382 0.12513137
v -0.10490393 0.12027221 0.12850209
v -0.10903356 0.12448224 0.11851020
v -0.10745292 0.12343163 0.12166789
v -0.10470852 0.11526568 0.13283833
v -0.10399637 0.11526568 0.13283833
v -0.09891140 0.12073114 0.12836464
v -0.09891140 0.12001430 0.11875073
v -0.10219860 0.12057943 0.11641768
v -0.11170849 0.12120524 0.10817128
v -0.10705776 0.12303718 0.11653794
v -0.11612038 0.12334440 0.10817128
v -0.11524756 0.12398538 0.11050776
v -0.11919482 0.12448224 0.10817128
v -0.11091817 0.12185382 0.12039313
v -0.10964150 0.12027221 0.12386006
v -0.11358875 0.10546881 0.13737727
v -0.10806521 0.11894093 0.12701430
v -0.11655028 0.10464577 0.13550122
v -0.11850871 0.12448224 0.10903028
v -0.11692807 0.12343163 0.11219140
v -0.11610301 0.09728011 0.14279585
v -0.11899071 0.09649499 0.14261374
v -0.10347093 0.11261829 0.13318880
v -0.09891140 0.12069700 0.12838183
v -0.11312846 0.09723459 0.14255876
v -0.09891140 0.11979052 0.11836933
v -0.10694052 0.12057943 0.11167601
v -0.10964150 0.12010153 0.10817128
v -0.11179968 0.12303718 0.11179970
v -0.11932942 0.12448224 0.10817128
v -0.11438342 0.12027221 0.11912182
v -0.12039331 0.12185382 0.11091665
v -0.11872149 0.10098190 0.13767277
v -0.12084927 0.11736311 0.11610844
v -0.13550057 0.10464577 0.11654825
v -0.13609114 0.09965441 0.12188092
v -0.12661600 0.09965441 0.13135397
v -0.12022397 0.12390953 0.10817128
v -0.12140076 0.12310166 0.10817128
v -0.12238648 0.12239240 0.10817128
v -0.11610301 0.09366554 0.14327345
v -0.12043674 0.09807281 0.13938733
v -0.12372395 0.09649499 0.13794078
v -0.12125312 0.09366554 0.14020854
v -0.11889084 0.09366554 0.14252441
v -0.09891140 0.11618734 0.12951227
v -0.10794796 0.10314381 0.13810228
v -0.11246841 0.09366554 0.14290924
v -0.09891140 0.11835304 0.11680251
v -0.10872960 0.11988913 0.10872792
v -0.10817376 0.11750345 0.10817128
v -0.11912098 0.12027221 0.11438357
v -0.12439702 0.12094354 0.10817128
v -0.12187408 0.09965441 0.13609222
v -0.12889142 0.11578150 0.10993739
v -0.13737649 0.10546881 0.11358642
v -0.13767177 0.10098570 0.11871980
v -0.13938703 0.09807281 0.12043437
v -0.13794101 0.09649499 0.12372605
v -0.13320344 0.09649499 0.12846429
v -0.11610301 0.09063508 0.14263779
v -0.11265513 0.09043785 0.14276149
v -0.11851306 0.09127227 0.14219455
v -0.12362407 0.09366554 0.13784113
v -0.09891140 0.10969781 0.13084544
v -0.10558135 0.10314381 0.13655608
v -0.11010180 0.09366554 0.14144550
v -0.10720975 0.09840657 0.13859362
v -0.10292813 0.08573475 0.13814350
v -0.10055717 0.08573475 0.13677941
v -0.09891140 0.11736311 0.11620122
v -0.09891140 0.11489398 0.11494708
v -0.10810429 0.11735553 0.10817128
v -0.12385421 0.12027221 0.10964189
v -0.12696774 0.11888783 0.10817128
v -0.12679403 0.11903195 0.10817128
v -0.12712406 0.11875508 0.10817128
v -0.13771086 0.10614394 0.11042530
v -0.14105018 0.09964683 0.11610157
v -0.14261344 0.09649499 0.11898781
v -0.13371149 0.11129080 0.11023288
v -0.13226548 0.11404060 0.10817128
v -0.14020775 0.09366554 0.12125901
v -0.13784113 0.09366554 0.12362641
v -0.13310357 0.09366554 0.12836464
v -0.11258132 0.08573475 0.13845618
v -0.11134807 0.08573475 0.13905748
v -0.10671037 0.08573475 0.13923959
v -0.12324629 0.09127227 0.13746318
v -0.12039331 0.09068818 0.13934267
v -0.11427051 0.08623919 0.13796140
v -0.09891140 0.09840657 0.13315444
v -0.10336237 0.08892831 0.13800607
v -0.10623705 0.09386277 0.13888224
v -0.10215084 0.09386277 0.13620559
v -0.09891140 0.08573475 0.13570739
v -0.09891140 0.11249692 0.11490928
v -0.10809560 0.11420369 0.10817128
v -0.13771086 0.10614394 0.10854237
v -0.14279583 0.09728011 0.11610157
v -0.13370716 0.11209109 0.10817128
v -0.14327349 0.09366554 0.11610157
v -0.14252660 0.09366554 0.11888817
v -0.14219658 0.09127227 0.11851020
v -0.13746335 0.09127227 0.12324845
v -0.13796273 0.08623919 0.11427362
v -0.13845341 0.08573475 0.11258311
v -0.13934361 0.09068818 0.12038970
v -0.09891140 0.08877280 0.13511982
v -0.09891140 0.08573475 0.12082263
v -0.09891140 0.10996710 0.11509482
v -0.12715879 0.08573475 0.10817128
v -0.13734175 0.10649667 0.10817128
v -0.13756322 0.10576845 0.10817128
v -0.13795403 0.10427407 0.10817128
v -0.14255699 0.09723459 0.11312943
v -0.14290873 0.09366554 0.11246972
v -0.14276109 0.09043785 0.11265183
v -0.14263516 0.09063508 0.11610157
v -0.13891371 0.08573475 0.11193370
v -0.13964323 0.08573475 0.10817128
v -0.14016867 0.09376416 0.10817128
v -0.14144533 0.09366554 0.11009888
v -0.14061159 0.09103712 0.10817128
v -0.13970403 0.08573475 0.10838775
v -0.14036407 0.08891313 0.10817128
v -0.13987773 0.08676640 0.10817128
v -0.13905701 0.08573475 0.11134615
f 1 2 10
f 1 10 24
f 1 24 41
f 1 41 30
f 1 30 13
f 1 13 3
f 1 3 4
f 1 4 5
f 1 5 6
f 1 6 2
f 2 6 7
f 2 7 8
f 2 8 9
f 2 9 10
f 3 11 12
f 3 12 4
f 3 13 14
f 3 14 11
f 4 12 15
f 4 15 16
f 4 16 17
f 4 17 5
f 5 17 6
f 6 17 35
f 6 35 57
f 6 57 76
f 6 76 103
f 6 103 120
f 6 120 107
f 6 107 121
f 6 121 122
f 6 122 108
f 6 108 83
f 6 83 82
f 6 82 60
f 6 60 37
f 6 37 18
f 6 18 7
f 7 18 19
f 7 19 8
f 8 19 20
f 8 20 21
f 8 21 22
f 8 22 9
f 9 22 23
f 9 23 10
f 10 23 24
f 11 14 25
f 11 25 42
f 11 42 26
f 11 26 12
f 12 27 15
f 12 26 28
f 12 28 29
f 12 29 27
f 13 30 31
f 13 31 14
f 14 31 43
f 14 43 25
f 15 32 16
f 15 27 33
f 15 33 32
f 16 34 35
f 16 35 17
f 16 32 36
f 16 36 34
f 18 37 19
f 19 37 38
f 19 38 20
f 20 38 39
f 20 39 62
f 20 62 84
f 20 84 109
f 20 109 123
f 20 123 132
f 20 132 138
f 20 138 137
f 20 137 135
f 20 135 133
f 20 133 126
f 20 126 125
f 20 125 124
f 20 124 112
f 20 112 93
f 20 93 88
f 20 88 86
f 20 86 87
f 20 87 64
f 20 64 51
f 20 51 50
f 20 50 49
f 20 49 41
f 20 41 24
f 20 24 22
f 20 22 40
f 20 40 21
f 21 40 22
f 22 24 23
f 25 43 63
f 25 63 42
f 26 42 29
f 26 29 28
f 27 29 44
f 27 44 33
f 29 45 46
f 29 46 47
f 29 47 48
f 29 48 44
f 29 42 45
f 30 41 49
f 30 49 31
f 31 49 50
f 31 50 51
f 31 51 43
f 32 52 36
f 32 33 52
f 33 44 53
f 33 53 54
f 33 54 55
f 33 55 56
f 33 56 52
f 34 57 35
f 34 36 58
f 34 58 57
f 36 52 59
f 36 59 58
f 37 60 61
f 37 61 39
f 37 39 38
f 39 61 62
f 42 63 45
f 43 51 64
f 43 64 63
f 44 48 65
f 44 65 53
f 45 63 46
f 46 66 67
f 46 67 68
f 46 68 47
f 46 63 66
f 47 68 69
f 47 69 70
f 47 70 71
f 47 71 53
f 47 53 48
f 48 53 65
f 52 72 73
f 52 73 59
f 52 56 74
f 52 74 72
f 53 71 54
f 54 75 55
f 54 71 96
f 54 96 75
f 55 74 56
f 55 75 74
f 57 58 77
f 57 77 76
f 58 59 78
f 58 78 79
f 58 79 77
f 59 73 80
f 59 80 81
f 59 81 78
f 60 82 61
f 61 82 83
f 61 83 62
f 62 83 84
f 63 64 85
f 63 85 86
f 63 86 66
f 64 87 85
f 66 86 88
f 66 88 67
f 67 89 90
f 67 90 91
f 67 91 68
f 67 88 92
f 67 92 93
f 67 93 89
f 68 91 69
f 69 91 70
f 70 91 94
f 70 94 95
f 70 95 96
f 70 96 71
f 72 97 98
f 72 98 73
f 72 74 97
f 73 98 99
f 73 99 80
f 74 75 100
f 74 100 101
f 74 101 102
f 74 102 97
f 75 96 100
f 76 77 79
f 76 79 103
f 78 81 104
f 78 104 105
f 78 105 79
f 79 105 104
f 79 104 106
f 79 106 103
f 80 99 98
f 80 98 97
f 80 97 118
f 80 118 131
f 80 131 139
f 80 139 136
f 80 136 132
f 80 132 123
f 80 123 121
f 80 121 107
f 80 107 81
f 81 107 104
f 83 108 84
f 84 108 109
f 85 87 86
f 88 93 92
f 89 110 111
f 89 111 90
f 89 93 112
f 89 112 110
f 90 111 91
f 91 111 113
f 91 113 114
f 91 114 94
f 94 114 115
f 94 115 116
f 94 116 95
f 95 116 96
f 96 116 100
f 97 102 117
f 97 117 118
f 100 116 101
f 101 116 119
f 101 119 117
f 101 117 102
f 103 106 120
f 104 107 120
f 104 120 106
f 108 122 109
f 109 122 121
f 109 121 123
f 110 124 125
f 110 125 126
f 110 126 127
f 110 127 111
f 110 112 124
f 111 127 113
f 113 128 129
f 113 129 130
f 113 130 115
f 113 115 114
f 113 127 128
f 115 119 116
f 115 130 131
f 115 131 118
f 115 118 117
f 115 117 119
f 126 133 134
f 126 134 127
f 127 134 128
f 128 134 135
f 128 135 129
f 129 136 130
f 129 135 137
f 129 137 138
f 129 138 132
f 129 132 136
f 130 136 139
f 130 139 131
f 133 135 134

