# https://github.com/mikedh/trimesh
v -0.09924980 0.06533576 -0.10174112
v -0.06116627 0.06533576 -0.10174112
v -0.09924980 0.06533576 -0.06808292
v -0.09924980 0.07704375 -0.10174112
v -0.06116627 0.06533576 -0.06808292
v -0.06116627 0.10668537 -0.10174112
v -0.09924980 0.10516208 -0.06808292
v -0.09924980 0.09499945 -0.08189082
v -0.07740098 0.09738373 -0.10174112
v -0.06116627 0.14049948 -0.06808292
v -0.07353149 0.09976801 -0.10174112
v -0.06116627 0.10725936 -0.10122715
v -0.09756109 0.10724465 -0.06808292
v -0.09924980 0.10547851 -0.06809939
v -0.09924980 0.09830359 -0.07822057
v -0.07368433 0.09967970 -0.10174112
v -0.06116627 0.14042589 -0.06817187
v -0.06116627 0.14018304 -0.06844862
v -0.06116627 0.13404573 -0.07538388
v -0.06155397 0.12915943 -0.08051365
v -0.06172545 0.12456748 -0.08538974
v -0.06136012 0.14033022 -0.06808292
v -0.06116627 0.12472937 -0.08553471
v -0.06146823 0.11964438 -0.08996602
v -0.06116627 0.11472128 -0.09453571
v -0.09656577 0.10834112 -0.06808292
v -0.09924980 0.10526510 -0.06846510
v -0.09924980 0.10044503 -0.07535093
v -0.09178669 0.11320535 -0.06808292
v -0.08996378 0.11497148 -0.06808292
v -0.08703743 0.11761332 -0.06808292
v -0.07993218 0.12390518 -0.06808292
v -0.07251380 0.13046931 -0.06808292
v -0.06334706 0.13857881 -0.06808292
v -0.06116627 0.12982172 -0.08011170
v -0.06116627 0.12004176 -0.08975846
v -0.06116627 0.11929851 -0.09042727
v -0.09472049 0.11025443 -0.06808292
v -0.09883229 0.10485301 -0.06992792
v -0.09924980 0.10455129 -0.06966765
v -0.09924980 0.10231419 -0.07281074
f 1 2 5
f 1 5 3
f 1 3 7
f 1 7 14
f 1 14 27
f 1 27 40
f 1 40 41
f 1 41 28
f 1 28 15
f 1 15 8
f 1 8 4
f 1 4 9
f 1 9 16
f 1 16 11
f 1 11 6
f 1 6 2
f 2 6 12
f 2 12 25
f 2 25 37
f 2 37 36
f 2 36 23
f 2 23 35
f 2 35 19
f 2 19 18
f 2 18 17
f 2 17 10
f 2 10 5
f 3 5 10
f 3 10 22
f 3 22 34
f 3 34 33
f 3 33 32
f 3 32 31
f 3 31 30
f 3 30 29
f 3 29 38
f 3 38 26
f 3 26 13
f 3 13 7
f 4 8 9
f 6 11 12
f 7 13 14
f 8 15 9
f 9 15 17
f 9 17 18
f 9 18 19
f 9 19 20
f 9 20 21
f 9 21 16
f 10 17 22
f 11 16 21
f 11 21 23
f 11 23 24
f 11 24 25
f 11 25 12
f 13 26 14
f 14 26 27
f 15 28 29
f 15 29 30
f 15 30 31
f 15 31 32
f 15 32 33
f 15 33 34
f 15 34 17
f 17 34 22
f 19 35 20
f 20 35 21
f 21 35 23
f 23 36 24
f 24 36 37
f 24 37 25
f 26 38 39
f 26 39 27
f 27 39 40
f 28 41 39
f 28 39 29
f 29 39 38
f 39 41 40

