# https://github.com/mikedh/trimesh
v -0.07040869 0.26102936 -0.16231449
v -0.07095153 0.26102936 -0.16206155
v -0.07040869 0.26334683 -0.16171512
v -0.07040869 0.26102936 -0.15636480
v -0.07198722 0.26102936 -0.16157765
v -0.07040869 0.26425266 -0.16141819
v -0.07154438 0.26266610 -0.16134670
v -0.07834419 0.26419299 -0.15742607
v -0.07040869 0.27488131 -0.14022037
v -0.13598552 0.26102936 -0.10614440
v -0.08137983 0.26102936 -0.15679371
v -0.09980077 0.26236641 -0.14704437
v -0.07040869 0.26564260 -0.16092329
v -0.09722941 0.26407231 -0.14783619
v -0.09570802 0.26746511 -0.14737429
v -0.11307185 0.27488131 -0.10833841
v -0.07040869 0.27488131 -0.15364290
v -0.11580034 0.27488131 -0.10632586
v -0.11612891 0.27488131 -0.10614440
v -0.14337818 0.26102936 -0.10614440
v -0.10015790 0.26102936 -0.14722582
v -0.10248641 0.26102936 -0.14591161
v -0.10157929 0.26407231 -0.14548820
v -0.09886508 0.26552598 -0.14646150
v -0.07060868 0.26582566 -0.16075283
v -0.07040869 0.26620671 -0.16064836
v -0.10470064 0.26727392 -0.14253536
v -0.10162215 0.26891066 -0.14318971
v -0.09986505 0.27154543 -0.14235940
v -0.09365094 0.27062333 -0.14632402
v -0.07687280 0.26755462 -0.15690919
v -0.07040869 0.27477010 -0.15376938
v -0.07215151 0.27488131 -0.15275760
v -0.13266418 0.27488131 -0.10614440
v -0.14277106 0.26311630 -0.10614440
v -0.14217822 0.26102936 -0.10756308
v -0.10370781 0.26102936 -0.14515828
v -0.10537205 0.26426079 -0.14309623
v -0.07040869 0.26909643 -0.15907021
v -0.10302926 0.27043213 -0.14128163
v -0.10772913 0.26426079 -0.14090221
v -0.10942909 0.26727392 -0.13786689
v -0.10640774 0.26885234 -0.13957151
v -0.10127930 0.27328388 -0.13935706
v -0.10028647 0.27488131 -0.13826830
v -0.09766511 0.27488131 -0.13975847
v -0.09715084 0.27217058 -0.14306324
v -0.09048673 0.27157121 -0.14712685
v -0.07480858 0.27071283 -0.15585891
v -0.07040869 0.27190750 -0.15698066
v -0.07165152 0.27162545 -0.15666724
v -0.07400146 0.27488131 -0.15181731
v -0.13146421 0.27488131 -0.10734863
v -0.13463556 0.27344254 -0.10621038
v -0.13480698 0.27336525 -0.10614440
v -0.14237821 0.26426079 -0.10614440
v -0.14148537 0.26102936 -0.10831642
v -0.10595061 0.26102936 -0.14354164
v -0.10831483 0.26102936 -0.14148509
v -0.07040869 0.27048773 -0.15809692
v -0.10810769 0.27043213 -0.13654168
v -0.10495778 0.27186276 -0.13812533
v -0.11484322 0.26426079 -0.13380329
v -0.11417182 0.26727392 -0.13313244
v -0.12232875 0.27043213 -0.12233282
v -0.11285042 0.27043213 -0.13180722
v -0.10257213 0.27488131 -0.13617326
v -0.09565088 0.27488131 -0.14078675
v -0.09287952 0.27488131 -0.14219994
v -0.07819420 0.27225194 -0.15263113
v -0.12989997 0.27344254 -0.11095033
v -0.10519349 0.27488131 -0.13362733
v -0.13338560 0.27186276 -0.10969661
v -0.13752834 0.27132440 -0.10614440
v -0.14175680 0.26583786 -0.10614440
v -0.14090682 0.26426079 -0.10773905
v -0.13437842 0.26102936 -0.11542635
v -0.12490010 0.26102936 -0.12490625
v -0.10300069 0.27488131 -0.13577735
v -0.13312846 0.26727392 -0.11417812
v -0.13654266 0.27043213 -0.10811846
v -0.13970686 0.26897439 -0.10614440
v -0.14002113 0.26861233 -0.10614440
v -0.13786404 0.26727392 -0.10943817
v -0.13957114 0.26885234 -0.10640834
f 1 2 3
f 1 3 6
f 1 6 13
f 1 13 26
f 1 26 39
f 1 39 60
f 1 60 50
f 1 50 32
f 1 32 17
f 1 17 9
f 1 9 4
f 1 4 10
f 1 10 20
f 1 20 36
f 1 36 57
f 1 57 77
f 1 77 78
f 1 78 59
f 1 59 58
f 1 58 37
f 1 37 22
f 1 22 21
f 1 21 11
f 1 11 5
f 1 5 2
f 2 5 3
f 3 5 7
f 3 7 8
f 3 8 6
f 4 9 10
f 5 11 12
f 5 12 7
f 6 8 13
f 7 12 8
f 8 12 14
f 8 14 15
f 8 15 13
f 9 16 10
f 9 17 33
f 9 33 52
f 9 52 69
f 9 69 68
f 9 68 46
f 9 46 45
f 9 45 67
f 9 67 79
f 9 79 72
f 9 72 53
f 9 53 34
f 9 34 19
f 9 19 18
f 9 18 16
f 10 16 18
f 10 18 19
f 10 19 34
f 10 34 55
f 10 55 74
f 10 74 82
f 10 82 83
f 10 83 75
f 10 75 56
f 10 56 35
f 10 35 20
f 11 21 12
f 12 21 22
f 12 22 23
f 12 23 24
f 12 24 14
f 13 25 26
f 13 15 25
f 14 24 15
f 15 24 27
f 15 27 28
f 15 28 29
f 15 29 30
f 15 30 31
f 15 31 25
f 17 32 33
f 20 35 36
f 22 37 38
f 22 38 23
f 23 38 27
f 23 27 24
f 25 31 26
f 26 31 39
f 27 40 29
f 27 29 28
f 27 38 41
f 27 41 42
f 27 42 43
f 27 43 40
f 29 40 44
f 29 44 45
f 29 45 46
f 29 46 47
f 29 47 48
f 29 48 30
f 30 48 49
f 30 49 31
f 31 49 39
f 32 50 51
f 32 51 52
f 32 52 33
f 34 53 54
f 34 54 55
f 35 56 57
f 35 57 36
f 37 58 38
f 38 58 59
f 38 59 41
f 39 49 60
f 40 43 61
f 40 61 62
f 40 62 44
f 41 59 63
f 41 63 42
f 42 63 64
f 42 64 43
f 43 64 65
f 43 65 66
f 43 66 61
f 44 62 45
f 45 62 67
f 46 68 47
f 47 68 69
f 47 69 70
f 47 70 51
f 47 51 48
f 48 51 49
f 49 51 60
f 50 60 51
f 51 70 69
f 51 69 52
f 53 71 54
f 53 72 71
f 54 73 55
f 54 71 73
f 55 73 74
f 56 75 76
f 56 76 57
f 57 76 77
f 59 78 63
f 61 66 62
f 62 79 67
f 62 66 65
f 62 65 81
f 62 81 73
f 62 73 72
f 62 72 79
f 63 78 76
f 63 76 80
f 63 80 64
f 64 80 65
f 65 80 81
f 71 72 73
f 73 81 74
f 74 81 82
f 75 83 84
f 75 84 76
f 76 78 77
f 76 84 80
f 80 84 81
f 81 84 85
f 81 85 82
f 82 85 83
f 83 85 84

