# https://github.com/mikedh/trimesh
v -0.00002867 0.27488131 0.17053443
v -0.00002867 0.27488131 0.15875756
v -0.00237039 0.27488131 0.17053443
v -0.00002867 0.27309721 0.17234804
v -0.00002867 0.23645031 0.17474068
v -0.06249084 0.27487724 0.14453814
v -0.05923200 0.27488131 0.14603228
v -0.00237039 0.27309721 0.17234804
v -0.00339757 0.27488131 0.17038467
v -0.00002867 0.27179968 0.17354603
v -0.00002867 0.23645031 0.17690704
v -0.04258317 0.23346195 0.17059432
v -0.05923200 0.23615026 0.16470423
v -0.06249084 0.24050101 0.16190893
v -0.06249084 0.27488131 0.15104719
v -0.00710886 0.27488131 0.16983893
v -0.00710886 0.27275256 0.17199530
v -0.00237039 0.27053055 0.17471740
v -0.00002867 0.27053055 0.17471740
v -0.00002867 0.23848579 0.17768906
v -0.00237039 0.23645031 0.17690704
v -0.00710886 0.23597185 0.17672069
v -0.04258317 0.23346195 0.17059766
v -0.04266876 0.23346195 0.17059432
v -0.06249084 0.23658411 0.16396547
v -0.06249084 0.27488131 0.15766274
v -0.01019650 0.27488131 0.16935308
v -0.01659191 0.27201054 0.17124657
v -0.00710886 0.26990611 0.17436465
v -0.00237039 0.26816256 0.17615164
v -0.00002867 0.26933439 0.17544284
v -0.02406952 0.27142665 0.17065422
v -0.03080731 0.27072112 0.17008850
v -0.03553966 0.27011696 0.16974575
v -0.00002867 0.24056994 0.17848772
v -0.00237039 0.24056994 0.17848772
v -0.01184733 0.23585020 0.17655763
v -0.04266876 0.23346195 0.17059766
v -0.06249084 0.23658411 0.16487394
v -0.06249084 0.27386355 0.15882079
v -0.05923200 0.27469884 0.15954291
v -0.05843105 0.27488131 0.15974590
v -0.01184733 0.27475155 0.16922330
v -0.04011305 0.27488131 0.16461438
v -0.00710886 0.26753407 0.17578560
v -0.00237039 0.26425784 0.17750271
v -0.00002867 0.26816256 0.17615164
v -0.04975507 0.27412711 0.16385233
v -0.04501660 0.27212812 0.16662433
v -0.04975507 0.27175509 0.16624830
v -0.05251866 0.27150369 0.16599207
v -0.04027813 0.26940333 0.16936971
v -0.04027813 0.26703129 0.17079066
v -0.03553966 0.26774492 0.17116337
v -0.00002867 0.25478186 0.17853098
v -0.00237039 0.25478186 0.17853098
v -0.01184733 0.24056994 0.17778224
v -0.01659191 0.23601240 0.17625481
v -0.04975507 0.23632867 0.17125655
v -0.05339299 0.23715584 0.17091046
v -0.05923200 0.23615026 0.16736975
v -0.06249084 0.23663277 0.16664763
v -0.02133038 0.23654762 0.17587878
v -0.06249084 0.27201054 0.16090063
v -0.06222794 0.27164966 0.16143972
v -0.05923200 0.27233085 0.16219844
v -0.05629110 0.27488131 0.16082076
v -0.04975507 0.27488131 0.16307697
v -0.01059393 0.26700290 0.17550940
v -0.00710886 0.26425784 0.17688042
v -0.01184733 0.25952188 0.17728308
v -0.00710886 0.25952188 0.17783548
v -0.00237039 0.25952188 0.17830136
v -0.00002867 0.26425784 0.17750271
v -0.04267488 0.26663797 0.17060097
v -0.05320345 0.27488131 0.16226500
v -0.05403497 0.27351485 0.16331656
v -0.05567968 0.27079816 0.16539973
v -0.05425508 0.26913165 0.16688722
v -0.00002867 0.25712146 0.17841785
v -0.01184733 0.25478186 0.17778889
v -0.01659191 0.24056994 0.17717327
v -0.02520063 0.23735452 0.17557262
v -0.04975507 0.24056994 0.17191877
v -0.05402886 0.24056994 0.17107019
v -0.05639504 0.24056994 0.17023159
v -0.06249084 0.23718422 0.16683731
v -0.06249084 0.27157667 0.16137316
v -0.01204298 0.26457005 0.17601522
v -0.01659191 0.26315899 0.17567911
v -0.01961841 0.26227505 0.17543952
v -0.01659191 0.25952188 0.17659757
v -0.02520063 0.25814327 0.17557262
v -0.01659191 0.25478186 0.17717327
v -0.00002867 0.25952188 0.17830136
v -0.05449353 0.26425784 0.16879401
v -0.04853835 0.26256294 0.17077735
v -0.05802751 0.26763950 0.16644796
v -0.02133038 0.24056994 0.17642452
v -0.02595267 0.24056994 0.17569241
v -0.04501660 0.24056994 0.17267083
v -0.04975507 0.25478186 0.17191877
v -0.05402886 0.25478186 0.17107019
v -0.05639504 0.25478186 0.17025156
v -0.05639504 0.24530590 0.17024491
v -0.06249084 0.24056994 0.16740968
v -0.06249084 0.26911138 0.16309360
v -0.02125089 0.25963947 0.17583219
v -0.04997517 0.25983410 0.17123325
v -0.02595267 0.25478186 0.17569241
v -0.02133038 0.25478186 0.17642452
v -0.05339299 0.25845953 0.17091046
v -0.04501660 0.25478186 0.17267083
v -0.05945823 0.26431055 0.16699371
v -0.06118242 0.26592434 0.16552285
v -0.05923200 0.25952188 0.16836807
v -0.06249084 0.25601045 0.16727324
v -0.06249084 0.25478186 0.16741633
v -0.06249084 0.25127450 0.16741633
v -0.06249084 0.24179853 0.16741301
v -0.06249084 0.26512150 0.16511687
v -0.06249084 0.26310223 0.16580904
v -0.06211788 0.26276569 0.16611852
v -0.06249084 0.26140734 0.16630820
v -0.06249084 0.26021524 0.16663099
v -0.06249084 0.25952188 0.16681401
f 1 2 7
f 1 7 15
f 1 15 26
f 1 26 42
f 1 42 67
f 1 67 76
f 1 76 68
f 1 68 44
f 1 44 27
f 1 27 16
f 1 16 9
f 1 9 3
f 1 3 8
f 1 8 4
f 1 4 10
f 1 10 19
f 1 19 31
f 1 31 47
f 1 47 74
f 1 74 95
f 1 95 80
f 1 80 55
f 1 55 35
f 1 35 20
f 1 20 11
f 1 11 5
f 1 5 2
f 2 5 6
f 2 6 7
f 3 9 8
f 4 8 10
f 5 11 23
f 5 23 12
f 5 12 13
f 5 13 14
f 5 14 6
f 6 14 25
f 6 25 39
f 6 39 62
f 6 62 87
f 6 87 106
f 6 106 120
f 6 120 119
f 6 119 118
f 6 118 117
f 6 117 126
f 6 126 125
f 6 125 124
f 6 124 122
f 6 122 121
f 6 121 107
f 6 107 88
f 6 88 64
f 6 64 40
f 6 40 26
f 6 26 15
f 6 15 7
f 8 9 16
f 8 16 17
f 8 17 18
f 8 18 10
f 10 18 19
f 11 20 21
f 11 21 22
f 11 22 23
f 12 23 38
f 12 38 24
f 12 24 13
f 13 24 25
f 13 25 14
f 16 27 17
f 17 27 28
f 17 28 18
f 18 29 30
f 18 30 31
f 18 31 19
f 18 28 32
f 18 32 33
f 18 33 34
f 18 34 29
f 20 35 36
f 20 36 21
f 21 36 22
f 22 36 37
f 22 37 23
f 23 37 38
f 24 38 39
f 24 39 25
f 26 40 41
f 26 41 42
f 27 43 28
f 27 44 43
f 28 43 32
f 29 45 30
f 29 34 45
f 30 45 46
f 30 46 74
f 30 74 47
f 30 47 31
f 32 43 48
f 32 48 49
f 32 49 50
f 32 50 51
f 32 51 33
f 33 51 34
f 34 51 52
f 34 52 53
f 34 53 54
f 34 54 45
f 35 55 56
f 35 56 36
f 36 56 57
f 36 57 58
f 36 58 37
f 37 58 38
f 38 59 60
f 38 60 61
f 38 61 62
f 38 62 39
f 38 58 63
f 38 63 59
f 40 64 65
f 40 65 41
f 41 65 42
f 42 65 66
f 42 66 67
f 43 44 48
f 44 68 48
f 45 69 46
f 45 54 53
f 45 53 69
f 46 69 70
f 46 70 71
f 46 71 72
f 46 72 73
f 46 73 95
f 46 95 74
f 48 68 51
f 48 51 50
f 48 50 49
f 51 75 53
f 51 53 52
f 51 68 76
f 51 76 77
f 51 77 78
f 51 78 79
f 51 79 75
f 53 75 69
f 55 80 56
f 56 80 73
f 56 73 81
f 56 81 57
f 57 82 83
f 57 83 63
f 57 63 58
f 57 81 82
f 59 63 83
f 59 83 60
f 60 84 85
f 60 85 86
f 60 86 87
f 60 87 62
f 60 62 61
f 60 83 84
f 64 88 65
f 65 88 78
f 65 78 66
f 66 78 77
f 66 77 76
f 66 76 67
f 69 89 70
f 69 75 89
f 70 89 90
f 70 90 91
f 70 91 92
f 70 92 71
f 71 81 72
f 71 92 93
f 71 93 94
f 71 94 81
f 72 81 73
f 73 80 95
f 75 79 96
f 75 96 97
f 75 97 91
f 75 91 90
f 75 90 89
f 78 98 79
f 78 88 98
f 79 98 96
f 81 94 82
f 82 94 111
f 82 111 99
f 82 99 83
f 83 99 100
f 83 100 101
f 83 101 84
f 84 101 113
f 84 113 102
f 84 102 103
f 84 103 85
f 85 103 104
f 85 104 105
f 85 105 86
f 86 105 106
f 86 106 87
f 88 107 98
f 91 108 92
f 91 97 109
f 91 109 108
f 92 108 93
f 93 110 111
f 93 111 94
f 93 108 109
f 93 109 112
f 93 112 102
f 93 102 113
f 93 113 110
f 96 112 97
f 96 98 114
f 96 114 112
f 97 112 109
f 98 107 115
f 98 115 114
f 99 111 110
f 99 110 100
f 100 110 113
f 100 113 101
f 102 112 103
f 103 112 104
f 104 112 116
f 104 116 117
f 104 117 118
f 104 118 119
f 104 119 120
f 104 120 105
f 105 120 106
f 107 121 115
f 112 114 116
f 114 115 121
f 114 121 122
f 114 122 123
f 114 123 124
f 114 124 125
f 114 125 116
f 116 125 126
f 116 126 117
f 122 124 123

