# https://github.com/mikedh/trimesh
v -0.09890772 0.06532840 0.07552709
v -0.06132027 0.06532840 0.07552709
v -0.09890772 0.06532840 0.10322212
v -0.09890772 0.10032962 0.07552709
v -0.06132027 0.06532840 0.10322212
v -0.06132027 0.13360223 0.07552709
v -0.09890772 0.07602843 0.10322212
v -0.09890772 0.10057083 0.07553522
v -0.09663003 0.10250715 0.07552709
v -0.06132027 0.10494598 0.10322212
v -0.06134234 0.13376303 0.07552709
v -0.06132027 0.13377643 0.07553793
v -0.09890772 0.07608873 0.10315705
v -0.08247080 0.09279873 0.10322212
v -0.09890772 0.09842680 0.07833048
v -0.06144537 0.13367592 0.07552709
v -0.07079164 0.12540802 0.07552709
v -0.09448480 0.10444347 0.07552709
v -0.06132027 0.10722401 0.10118329
v -0.07483556 0.09927101 0.10322212
v -0.06132027 0.12955537 0.08027171
v -0.07747017 0.09769649 0.10322212
v -0.07915913 0.09609517 0.10322212
v -0.06132027 0.11222897 0.09669352
v -0.06132027 0.11947845 0.09018932
v -0.06132027 0.11984026 0.08986398
v -0.06132027 0.12468442 0.08549622
v -0.06172503 0.12456382 0.08539048
v -0.06132027 0.12522712 0.08493770
f 1 2 5
f 1 5 3
f 1 3 7
f 1 7 13
f 1 13 15
f 1 15 8
f 1 8 4
f 1 4 9
f 1 9 18
f 1 18 17
f 1 17 16
f 1 16 11
f 1 11 6
f 1 6 2
f 2 6 12
f 2 12 21
f 2 21 29
f 2 29 27
f 2 27 26
f 2 26 25
f 2 25 24
f 2 24 19
f 2 19 10
f 2 10 5
f 3 5 10
f 3 10 20
f 3 20 22
f 3 22 23
f 3 23 14
f 3 14 7
f 4 8 9
f 6 11 12
f 7 14 13
f 8 15 16
f 8 16 17
f 8 17 18
f 8 18 9
f 10 19 20
f 11 16 12
f 12 16 22
f 12 22 21
f 13 14 15
f 14 23 15
f 15 23 22
f 15 22 16
f 19 24 20
f 20 24 25
f 20 25 26
f 20 26 27
f 20 27 28
f 20 28 22
f 21 28 29
f 21 22 28
f 27 29 28

