# https://github.com/mikedh/trimesh
v 0.07345925 0.14532727 0.03554471
v 0.07530336 0.14531161 0.03369084
v 0.07345925 0.14532727 0.03369084
v 0.06872046 0.14532727 0.04502056
v 0.07345925 0.14528029 0.04028048
v 0.07819804 0.14501404 0.03369084
v 0.03543717 0.14532727 0.03369084
v 0.06398167 0.14532727 0.04976064
v 0.06872046 0.14525680 0.04976064
v 0.07819804 0.14483394 0.03554471
v 0.07990803 0.14459901 0.03369084
v 0.03543717 0.06532840 0.03369084
v 0.03543717 0.14532727 0.07344810
v 0.04502651 0.14532727 0.06871233
v 0.06879870 0.14445023 0.05457383
v 0.07283337 0.14430145 0.04976064
v 0.04976530 0.14525680 0.06871233
v 0.08183037 0.14398822 0.03369084
v 0.07662216 0.14399605 0.04422481
v 0.03543717 0.06532840 0.07763331
v 0.14961517 0.06532840 0.03369084
v 0.03543717 0.14531944 0.07355134
v 0.03554893 0.14532727 0.07344810
v 0.04028773 0.14528029 0.07344810
v 0.05458233 0.14445023 0.06878545
v 0.06252874 0.14395689 0.06251841
v 0.06726753 0.14395689 0.05777833
v 0.07183867 0.14395689 0.05304256
v 0.03610775 0.14488875 0.07763331
v 0.04976530 0.14430145 0.07282010
v 0.08120449 0.14387859 0.03554471
v 0.11654423 0.10318221 0.07763331
v 0.08421094 0.14183476 0.03369084
v 0.07581746 0.14341657 0.04738630
v 0.11628718 0.10337015 0.07763331
v 0.08058979 0.14344006 0.03796637
v 0.13063766 0.06532840 0.07763331
v 0.03543717 0.14490441 0.07763331
v 0.14916812 0.06803784 0.03369084
v 0.14619520 0.06532840 0.04502056
v 0.05305116 0.14395689 0.07182650
v 0.05778995 0.14395689 0.06725418
v 0.04140536 0.14410568 0.07763331
v 0.04423299 0.14399605 0.07661819
v 0.11920422 0.09824101 0.07763331
v 0.14912340 0.06828842 0.03369084
v 0.14778224 0.07029309 0.03369084
v 0.13888584 0.08133444 0.03369084
v 0.13279471 0.08885978 0.03369084
v 0.04976530 0.14274313 0.07519014
v 0.04738473 0.14341657 0.07581384
v 0.04621121 0.14205402 0.07763331
v 0.14454109 0.06532840 0.04991118
v 0.14456344 0.06532840 0.04985957
v 0.04323829 0.14353403 0.07763331
f 1 2 3
f 1 3 7
f 1 7 13
f 1 13 23
f 1 23 14
f 1 14 8
f 1 8 4
f 1 4 2
f 2 4 5
f 2 5 6
f 2 6 11
f 2 11 18
f 2 18 33
f 2 33 49
f 2 49 48
f 2 48 47
f 2 47 46
f 2 46 39
f 2 39 21
f 2 21 12
f 2 12 7
f 2 7 3
f 4 8 9
f 4 9 5
f 5 10 6
f 5 9 10
f 6 10 11
f 7 12 20
f 7 20 38
f 7 38 22
f 7 22 13
f 8 14 17
f 8 17 9
f 9 15 16
f 9 16 10
f 9 17 15
f 10 16 11
f 11 16 19
f 11 19 18
f 12 21 40
f 12 40 54
f 12 54 53
f 12 53 37
f 12 37 20
f 13 22 23
f 14 23 24
f 14 24 17
f 15 17 25
f 15 25 26
f 15 26 27
f 15 27 28
f 15 28 16
f 16 28 19
f 17 24 29
f 17 29 30
f 17 30 25
f 18 31 32
f 18 32 33
f 18 19 31
f 19 28 34
f 19 34 35
f 19 35 36
f 19 36 31
f 20 37 45
f 20 45 32
f 20 32 35
f 20 35 52
f 20 52 55
f 20 55 43
f 20 43 29
f 20 29 38
f 21 39 40
f 22 38 24
f 22 24 23
f 24 38 29
f 25 41 42
f 25 42 26
f 25 30 41
f 26 42 35
f 26 35 27
f 27 35 28
f 28 35 34
f 29 43 44
f 29 44 30
f 30 44 41
f 31 36 35
f 31 35 32
f 32 45 46
f 32 46 47
f 32 47 48
f 32 48 49
f 32 49 33
f 35 42 41
f 35 41 50
f 35 50 51
f 35 51 52
f 37 53 45
f 39 46 40
f 40 46 54
f 41 44 51
f 41 51 50
f 43 55 44
f 44 55 51
f 45 53 54
f 45 54 46
f 51 55 52

