# https://github.com/mikedh/trimesh
v -0.02478741 -0.06403874 -0.03115716
v -0.02380281 -0.06403874 -0.03193816
v -0.02478741 -0.06403874 -0.02694128
v -0.02478741 -0.04583824 -0.03697727
v -0.02202008 -0.06403874 -0.03334282
v -0.02478741 -0.06340730 -0.02694512
v 0.00061337 -0.06403874 -0.03776787
v 0.00061337 -0.06400160 -0.03776787
v 0.00061337 -0.06320300 -0.03776978
v -0.02220407 -0.04427356 -0.03910536
v -0.02061528 -0.06403874 -0.03434258
v -0.02478741 -0.04348425 -0.03761051
v -0.02256460 -0.04240243 -0.03939320
v -0.02478741 -0.06320300 -0.02694703
v 0.00061337 -0.06403874 -0.04075372
v 0.00061337 -0.06039400 -0.03783695
v -0.02028956 -0.04634897 -0.03969255
v -0.02118715 -0.04341925 -0.03995544
v -0.01820350 -0.06403874 -0.03578945
v -0.02478741 -0.04073095 -0.03820730
v -0.02420312 -0.04073095 -0.03861987
v -0.02280080 -0.04073095 -0.03953903
v -0.02106283 -0.04073095 -0.04047163
v -0.01882012 -0.04073095 -0.04166713
v -0.02478741 -0.06039400 -0.02709479
v -0.00057014 -0.06403874 -0.04072493
v -0.00140059 -0.04596824 -0.04521714
v 0.00061337 -0.04599610 -0.04522674
v 0.00061337 -0.05758499 -0.03809408
v -0.01688075 -0.06403874 -0.03653975
v -0.01767639 -0.06403874 -0.03609264
v -0.01707966 -0.04263922 -0.04224856
v -0.02478741 -0.03792659 -0.03862562
v -0.02451640 -0.03792659 -0.03882136
v -0.02311160 -0.03792659 -0.03973477
v -0.01779325 -0.03792659 -0.04257286
v -0.01741532 -0.04073095 -0.04240208
v 0.00061337 -0.01661065 -0.04309481
v -0.02478741 -0.05758499 -0.02750736
v -0.00140059 -0.06403874 -0.04070382
v -0.00421019 -0.04549466 -0.04509241
v -0.00140059 -0.04353996 -0.04575636
v 0.00061337 -0.04353996 -0.04577555
v -0.01552319 -0.06403874 -0.03715765
v -0.01544611 -0.04073095 -0.04317924
v -0.01558783 -0.04356318 -0.04265346
v -0.01459826 -0.04634897 -0.04235986
v -0.02478741 -0.03511294 -0.03886933
v -0.02471531 -0.03511759 -0.03891922
v -0.02331051 -0.03511759 -0.03985950
v -0.01804188 -0.03511759 -0.04268416
v -0.01544611 -0.03792659 -0.04343638
v 0.00061337 -0.01661065 -0.04580626
v -0.02478741 -0.01661065 -0.03404707
v -0.00421019 -0.06403874 -0.04043326
v -0.00582882 -0.04509072 -0.04498879
v -0.00421019 -0.04353996 -0.04551074
v -0.00421019 -0.04073095 -0.04596744
v -0.00140059 -0.04073095 -0.04620731
v 0.00061337 -0.04073095 -0.04623801
v -0.00901386 -0.06403874 -0.03949682
v -0.01407861 -0.04779758 -0.04215645
v -0.01138089 -0.03701657 -0.04499455
v -0.00918791 -0.04073095 -0.04513463
v -0.01263651 -0.04353996 -0.04358413
v -0.01263651 -0.04634897 -0.04301997
v -0.02478741 -0.03230858 -0.03897487
v -0.02341494 -0.03230858 -0.03992474
v -0.01956852 -0.03230858 -0.04200486
v -0.01816372 -0.03230858 -0.04273789
v -0.01176131 -0.03230858 -0.04510968
v -0.01158477 -0.03511759 -0.04505595
v 0.00061337 -0.01746496 -0.04593674
v -0.00057263 -0.01661065 -0.04578898
v -0.02478741 -0.01661065 -0.03788876
v -0.00701979 -0.06403874 -0.03995544
v -0.00867075 -0.04243029 -0.04500990
v -0.00686813 -0.04343782 -0.04514230
v -0.00701979 -0.04073095 -0.04555871
v -0.00701979 -0.03792659 -0.04587342
v -0.00421019 -0.03792659 -0.04626296
v -0.00140059 -0.03792659 -0.04645485
v 0.00061337 -0.03993701 -0.04630709
v -0.01001090 -0.03794052 -0.04524977
v -0.00982939 -0.03511759 -0.04549923
v -0.02478741 -0.02959244 -0.03899022
v -0.02342986 -0.02949957 -0.03993625
v -0.02106283 -0.02949957 -0.04121810
v -0.01958095 -0.02949957 -0.04201829
v -0.01817615 -0.02949957 -0.04274556
v -0.01178120 -0.02949957 -0.04511544
v -0.00982939 -0.03230858 -0.04560477
v 0.00061337 -0.01825891 -0.04605763
v -0.00140059 -0.01661065 -0.04577555
v -0.00140059 -0.01825891 -0.04602693
v -0.02258449 -0.01661065 -0.03940471
v -0.02478741 -0.01725602 -0.03801924
v -0.00701979 -0.03511759 -0.04607298
v -0.00421019 -0.03511759 -0.04641647
v 0.00061337 -0.03792659 -0.04647596
v -0.00140059 -0.03511759 -0.04652777
v -0.02478741 -0.02949957 -0.03899022
v -0.02478741 -0.02708522 -0.03894033
v -0.02478741 -0.02668593 -0.03893074
v -0.02337267 -0.02669057 -0.03989979
v -0.01810653 -0.02669057 -0.04271102
v -0.00982939 -0.02949957 -0.04561244
v -0.01165688 -0.02669057 -0.04507706
v -0.00701979 -0.03230858 -0.04617277
v 0.00061337 -0.02106791 -0.04636850
v -0.00421019 -0.01661065 -0.04555487
v -0.00421019 -0.01825891 -0.04580817
v -0.00140059 -0.02106791 -0.04633588
v -0.00421019 -0.02106791 -0.04612480
v -0.02250244 -0.01661065 -0.03944885
v -0.02279086 -0.01825891 -0.03953328
v -0.02419566 -0.01825891 -0.03861603
v -0.02478741 -0.01825891 -0.03820154
v -0.00421019 -0.03230858 -0.04646828
v 0.00061337 -0.03712800 -0.04649515
v 0.00061337 -0.03431899 -0.04653545
v 0.00061337 -0.03511759 -0.04653161
v -0.00140059 -0.03230858 -0.04653928
v 0.00061337 -0.03230858 -0.04654504
v -0.02478741 -0.02387692 -0.03880409
v -0.02465812 -0.02387692 -0.03889620
v -0.02325332 -0.02387692 -0.03982304
v -0.01794243 -0.02387692 -0.04263427
v -0.00701979 -0.02949957 -0.04617660
v -0.00982939 -0.02669057 -0.04553377
v -0.00701979 -0.02669057 -0.04610177
v -0.01145051 -0.02435515 -0.04501565
v 0.00061337 -0.02387692 -0.04650666
v -0.00140059 -0.02387692 -0.04648939
v -0.00588103 -0.01661065 -0.04531885
v -0.00701979 -0.01825891 -0.04539752
v -0.00701979 -0.02106791 -0.04572182
v -0.00421019 -0.02387692 -0.04632820
v -0.00701979 -0.02387692 -0.04595017
v -0.02106283 -0.01825891 -0.04044093
v -0.02115482 -0.01661065 -0.04014925
v -0.02306685 -0.02106791 -0.03970407
v -0.02446916 -0.02106791 -0.03879833
v -0.02478741 -0.02055254 -0.03850665
v -0.00421019 -0.02949957 -0.04647020
v -0.00140059 -0.02949957 -0.04653737
v 0.00061337 -0.02949957 -0.04654312
v -0.02478741 -0.02367727 -0.03878873
v -0.01768385 -0.02106791 -0.04251529
v -0.01544611 -0.02106791 -0.04335578
v -0.00421019 -0.02669057 -0.04642990
v -0.01010787 -0.02360298 -0.04529198
v -0.01123171 -0.02248402 -0.04494657
v 0.00061337 -0.02669057 -0.04652969
v -0.00140059 -0.02669057 -0.04652777
v -0.00685569 -0.01661065 -0.04517493
v -0.00883733 -0.01825891 -0.04504636
v -0.00842708 -0.01685208 -0.04495041
v -0.00953600 -0.02106791 -0.04521330
v -0.01872315 -0.01825891 -0.04164410
v -0.02023238 -0.01661065 -0.04062323
v -0.02478741 -0.02106791 -0.03857190
v -0.01731835 -0.01825891 -0.04235218
v -0.01544611 -0.01825891 -0.04309097
v -0.00806407 -0.01661065 -0.04497344
v -0.01552567 -0.01661065 -0.04280505
v -0.00867075 -0.01661065 -0.04481225
v -0.01704982 -0.01661065 -0.04223129
v -0.01687080 -0.01661065 -0.04230037
f 1 2 5
f 1 5 11
f 1 11 19
f 1 19 31
f 1 31 30
f 1 30 44
f 1 44 61
f 1 61 76
f 1 76 55
f 1 55 40
f 1 40 26
f 1 26 15
f 1 15 7
f 1 7 3
f 1 3 6
f 1 6 14
f 1 14 25
f 1 25 39
f 1 39 54
f 1 54 75
f 1 75 97
f 1 97 118
f 1 118 144
f 1 144 162
f 1 162 148
f 1 148 125
f 1 125 104
f 1 104 103
f 1 103 102
f 1 102 86
f 1 86 67
f 1 67 48
f 1 48 33
f 1 33 20
f 1 20 12
f 1 12 4
f 1 4 2
f 2 4 5
f 3 7 8
f 3 8 9
f 3 9 6
f 4 10 11
f 4 11 5
f 4 12 13
f 4 13 10
f 6 9 14
f 7 15 28
f 7 28 43
f 7 43 60
f 7 60 83
f 7 83 100
f 7 100 120
f 7 120 122
f 7 122 121
f 7 121 124
f 7 124 147
f 7 147 154
f 7 154 133
f 7 133 110
f 7 110 93
f 7 93 73
f 7 73 53
f 7 53 38
f 7 38 29
f 7 29 16
f 7 16 9
f 7 9 8
f 9 16 14
f 10 17 11
f 10 13 18
f 10 18 17
f 11 17 19
f 12 20 21
f 12 21 13
f 13 21 22
f 13 22 23
f 13 23 24
f 13 24 18
f 14 16 25
f 15 26 27
f 15 27 28
f 16 29 25
f 17 30 31
f 17 31 19
f 17 18 32
f 17 32 30
f 18 24 32
f 20 33 34
f 20 34 21
f 21 34 22
f 22 34 35
f 22 35 23
f 23 35 36
f 23 36 24
f 24 37 32
f 24 36 37
f 25 29 38
f 25 38 39
f 26 40 27
f 27 41 42
f 27 42 43
f 27 43 28
f 27 40 41
f 30 32 44
f 32 37 45
f 32 45 46
f 32 46 47
f 32 47 44
f 33 48 34
f 34 48 49
f 34 49 50
f 34 50 35
f 35 50 51
f 35 51 36
f 36 52 45
f 36 45 37
f 36 51 52
f 38 53 74
f 38 74 94
f 38 94 111
f 38 111 135
f 38 135 156
f 38 156 165
f 38 165 167
f 38 167 166
f 38 166 169
f 38 169 168
f 38 168 161
f 38 161 141
f 38 141 115
f 38 115 96
f 38 96 75
f 38 75 54
f 38 54 39
f 40 55 41
f 41 56 57
f 41 57 42
f 41 55 56
f 42 57 58
f 42 58 59
f 42 59 60
f 42 60 43
f 44 47 62
f 44 62 61
f 45 52 63
f 45 63 64
f 45 64 65
f 45 65 46
f 46 65 66
f 46 66 47
f 47 66 62
f 48 67 49
f 49 67 68
f 49 68 50
f 50 68 69
f 50 69 51
f 51 69 70
f 51 70 71
f 51 71 72
f 51 72 52
f 52 72 63
f 53 73 74
f 55 76 56
f 56 76 77
f 56 77 78
f 56 78 57
f 57 78 58
f 58 78 79
f 58 79 80
f 58 80 81
f 58 81 59
f 59 81 82
f 59 82 60
f 60 82 83
f 61 62 66
f 61 66 77
f 61 77 76
f 63 84 64
f 63 72 85
f 63 85 84
f 64 79 77
f 64 77 65
f 64 84 80
f 64 80 79
f 65 77 66
f 67 86 87
f 67 87 68
f 68 87 88
f 68 88 69
f 69 88 89
f 69 89 70
f 70 89 90
f 70 90 91
f 70 91 71
f 71 91 92
f 71 92 72
f 72 92 85
f 73 93 74
f 74 93 95
f 74 95 94
f 75 96 97
f 77 79 78
f 80 84 85
f 80 85 98
f 80 98 81
f 81 98 99
f 81 99 82
f 82 100 83
f 82 99 101
f 82 101 100
f 85 92 98
f 86 102 87
f 87 102 103
f 87 103 104
f 87 104 105
f 87 105 88
f 88 105 89
f 89 105 106
f 89 106 90
f 90 106 91
f 91 107 92
f 91 106 108
f 91 108 107
f 92 107 109
f 92 109 98
f 93 110 95
f 94 95 112
f 94 112 111
f 95 110 113
f 95 113 114
f 95 114 112
f 96 115 116
f 96 116 117
f 96 117 97
f 97 117 118
f 98 109 99
f 99 109 119
f 99 119 101
f 100 101 120
f 101 121 122
f 101 122 120
f 101 119 123
f 101 123 124
f 101 124 121
f 104 125 126
f 104 126 105
f 105 126 127
f 105 127 106
f 106 127 128
f 106 128 108
f 107 129 109
f 107 108 130
f 107 130 131
f 107 131 129
f 108 128 132
f 108 132 130
f 109 129 119
f 110 133 134
f 110 134 113
f 111 112 135
f 112 136 135
f 112 114 137
f 112 137 136
f 113 134 138
f 113 138 114
f 114 138 139
f 114 139 137
f 115 140 116
f 115 141 140
f 116 140 142
f 116 142 143
f 116 143 117
f 117 143 118
f 118 143 144
f 119 129 145
f 119 145 123
f 123 145 146
f 123 146 147
f 123 147 124
f 125 148 126
f 126 148 143
f 126 143 127
f 127 143 142
f 127 142 128
f 128 142 149
f 128 149 150
f 128 150 132
f 129 131 151
f 129 151 145
f 130 132 152
f 130 152 139
f 130 139 131
f 131 139 138
f 131 138 151
f 132 150 153
f 132 153 152
f 133 154 155
f 133 155 134
f 134 155 145
f 134 145 151
f 134 151 138
f 135 136 156
f 136 157 158
f 136 158 156
f 136 137 157
f 137 139 159
f 137 159 157
f 139 152 159
f 140 141 160
f 140 160 149
f 140 149 142
f 141 161 160
f 143 162 144
f 143 148 162
f 145 155 146
f 146 155 147
f 147 155 154
f 149 160 163
f 149 163 164
f 149 164 150
f 150 164 153
f 152 153 159
f 153 164 157
f 153 157 159
f 156 158 165
f 157 164 158
f 158 164 166
f 158 166 167
f 158 167 165
f 160 161 168
f 160 168 163
f 163 168 164
f 164 168 169
f 164 169 166

