# https://github.com/mikedh/trimesh
v -0.02644468 -0.13100161 -0.00893894
v -0.02668375 -0.13100061 -0.00893894
v -0.02644468 -0.13366012 -0.00893894
v -0.02644468 -0.13098552 -0.03757514
v -0.04348412 -0.13098552 -0.00893894
v -0.04475676 -0.14061668 -0.00893894
v -0.02644468 -0.14077259 -0.03866186
v -0.02644468 -0.13098552 -0.04257258
v -0.04811587 -0.13098552 -0.00893894
v -0.04634817 -0.14102304 -0.00893894
v -0.02644468 -0.14123427 -0.04072989
v -0.02644468 -0.13127622 -0.04284153
v -0.02668375 -0.13098552 -0.04242719
v -0.04978214 -0.13301838 -0.00893894
v -0.04799995 -0.13098552 -0.00983666
v -0.04832113 -0.13137479 -0.00983666
v -0.04853847 -0.14086814 -0.00893894
v -0.04634817 -0.14105121 -0.00983666
v -0.02668375 -0.14125943 -0.04073715
v -0.02644468 -0.14089530 -0.04351028
v -0.02644468 -0.13146934 -0.04301962
v -0.02668375 -0.13134864 -0.04276157
v -0.02827033 -0.13190890 -0.04226364
v -0.02911313 -0.13098552 -0.04077713
v -0.05083262 -0.13442256 -0.00893894
v -0.04972418 -0.13309884 -0.00983666
v -0.05077707 -0.13450404 -0.00983666
v -0.04781643 -0.13098552 -0.01083614
v -0.04805550 -0.13168460 -0.01264612
v -0.04898764 -0.14056136 -0.00893894
v -0.04847327 -0.14085606 -0.00983666
v -0.04634817 -0.14105725 -0.01545559
v -0.04634817 -0.14112666 -0.01264612
v -0.04072873 -0.14109546 -0.02669346
v -0.03528558 -0.14097879 -0.03528541
v -0.03249397 -0.14098985 -0.03812395
v -0.02956954 -0.14097276 -0.04083165
v -0.04353725 -0.14111559 -0.02107452
v -0.02651713 -0.14088322 -0.04350664
v -0.02644468 -0.14086110 -0.04361204
v -0.02644468 -0.13388643 -0.04517851
v -0.03014187 -0.13258485 -0.04159126
v -0.02931115 -0.13098552 -0.04063902
v -0.02932081 -0.13348811 -0.04296147
v -0.05111516 -0.13624720 -0.00893894
v -0.04961069 -0.13365106 -0.01259161
v -0.05063218 -0.13472935 -0.01162120
v -0.04748075 -0.13098552 -0.01264612
v -0.04785506 -0.13191796 -0.01444884
v -0.04994153 -0.13965306 -0.00893894
v -0.04826318 -0.14079672 -0.01264612
v -0.04799030 -0.14064384 -0.01545559
v -0.04640130 -0.14082790 -0.01808697
v -0.04552711 -0.14078667 -0.02107452
v -0.04364109 -0.14089831 -0.02390216
v -0.04069492 -0.14082993 -0.02936118
v -0.03801923 -0.14093152 -0.03237418
v -0.03714745 -0.14073939 -0.03446038
v -0.03446693 -0.14076052 -0.03731709
v -0.03168498 -0.14074240 -0.03995937
v -0.02868569 -0.14071424 -0.04254714
v -0.02644468 -0.14007954 -0.04472420
v -0.02644468 -0.13470924 -0.04561465
v -0.02808922 -0.13485709 -0.04494954
v -0.03228388 -0.13342374 -0.04071898
v -0.03138312 -0.13165945 -0.03971950
v -0.03131309 -0.13445777 -0.04244900
v -0.02960094 -0.13098552 -0.04041368
v -0.05096785 -0.13751761 -0.00893894
v -0.05098959 -0.13624720 -0.00983666
v -0.05061528 -0.13778416 -0.01154851
v -0.04865439 -0.13325073 -0.01541198
v -0.04841773 -0.13392969 -0.01826506
v -0.04805791 -0.13440747 -0.02048573
v -0.04985942 -0.13624720 -0.01545559
v -0.05038345 -0.13624720 -0.01315859
v -0.05065392 -0.13624720 -0.01175567
v -0.04682874 -0.13098552 -0.01526660
v -0.04669109 -0.13098552 -0.01578996
v -0.04758701 -0.13218854 -0.01632060
v -0.05084228 -0.13824887 -0.00893894
v -0.04987874 -0.13952028 -0.00983666
v -0.04780676 -0.14050905 -0.01703296
v -0.04516246 -0.14062070 -0.02298264
v -0.04272343 -0.14075146 -0.02669346
v -0.03973622 -0.14068709 -0.03148372
v -0.04228151 -0.14056638 -0.02833261
v -0.03633847 -0.14030184 -0.03633214
v -0.03355894 -0.14034207 -0.03918886
v -0.03055723 -0.14012179 -0.04183114
v -0.02734060 -0.13964501 -0.04441890
v -0.02651713 -0.13884737 -0.04544746
v -0.02644468 -0.13896304 -0.04541839
v -0.02644468 -0.13603094 -0.04606533
v -0.02696388 -0.13597562 -0.04574549
v -0.02817374 -0.13672800 -0.04500769
v -0.02926285 -0.13597562 -0.04420083
v -0.03152802 -0.13624720 -0.04261256
v -0.03427616 -0.13426364 -0.03984307
v -0.03325707 -0.13239071 -0.03893808
v -0.03246982 -0.13098552 -0.03810941
v -0.03200375 -0.13098552 -0.03849467
v -0.03293348 -0.13624720 -0.04150767
v -0.05077466 -0.13811509 -0.00983666
v -0.04798305 -0.13813320 -0.02026403
v -0.04904802 -0.13905658 -0.01545559
v -0.04977248 -0.13885440 -0.01254799
v -0.04728756 -0.13252449 -0.01826506
v -0.04815692 -0.13624720 -0.02072925
v -0.04903594 -0.13624720 -0.01826506
v -0.04693982 -0.13345794 -0.02128533
v -0.04578309 -0.13338753 -0.02371680
v -0.04536773 -0.13428878 -0.02604652
v -0.04677078 -0.13624720 -0.02388399
v -0.04760874 -0.13624720 -0.02213580
v -0.04657759 -0.13098552 -0.01615341
v -0.04828008 -0.13906463 -0.01808697
v -0.04737209 -0.14000612 -0.01890473
v -0.04575170 -0.13915213 -0.02390216
v -0.04464568 -0.14015096 -0.02485440
v -0.03901899 -0.14016404 -0.03335549
v -0.04417478 -0.13915213 -0.02676978
v -0.04274758 -0.13892582 -0.02936118
v -0.04161017 -0.13977376 -0.03020438
v -0.03703154 -0.13842892 -0.03706268
v -0.03530007 -0.13938549 -0.03812395
v -0.03972172 -0.13829112 -0.03418779
v -0.03425925 -0.13846915 -0.03985034
v -0.03244084 -0.13929497 -0.04083892
v -0.03132275 -0.13824887 -0.04245990
v -0.02936669 -0.13894695 -0.04344122
v -0.02817374 -0.13777209 -0.04500769
v -0.02644468 -0.13885239 -0.04548381
v -0.03595450 -0.13624720 -0.03876362
v -0.03707018 -0.13423044 -0.03709902
v -0.03521555 -0.13331008 -0.03801855
v -0.03454904 -0.13624720 -0.04010475
v -0.03615252 -0.13235752 -0.03614315
v -0.03427857 -0.13155283 -0.03706631
v -0.03300110 -0.13098552 -0.03761876
v -0.04527355 -0.13827904 -0.02588660
v -0.04701227 -0.13906463 -0.02115085
v -0.04588693 -0.13098552 -0.01826506
v -0.04587727 -0.13098552 -0.01829413
v -0.04483404 -0.13098552 -0.02107452
v -0.04537256 -0.13158402 -0.02107452
v -0.04503206 -0.13194210 -0.02266643
v -0.04457565 -0.13241586 -0.02453820
v -0.04410716 -0.13338753 -0.02686428
v -0.04276931 -0.13354847 -0.02923761
v -0.04234429 -0.13455735 -0.03120023
v -0.04471571 -0.13624720 -0.02770385
v -0.04551021 -0.13624720 -0.02630457
v -0.04066594 -0.13903244 -0.03222516
v -0.04226702 -0.13790084 -0.03109483
v -0.03872196 -0.13624720 -0.03586693
v -0.03731650 -0.13624720 -0.03736070
v -0.03995838 -0.13624720 -0.03446401
v -0.03977244 -0.13430890 -0.03423504
v -0.03798059 -0.13333321 -0.03519091
v -0.03889100 -0.13243598 -0.03318104
v -0.03702188 -0.13158703 -0.03426775
v -0.03583859 -0.13098552 -0.03482746
v -0.03535078 -0.13098552 -0.03535447
v -0.03481468 -0.13098552 -0.03588510
v -0.04374976 -0.13098552 -0.02349146
v -0.04360003 -0.13098552 -0.02380040
v -0.04200862 -0.13098552 -0.02669346
v -0.04257612 -0.13158200 -0.02669346
v -0.04215352 -0.13201352 -0.02812545
v -0.04150874 -0.13268443 -0.02999721
v -0.04063938 -0.13349616 -0.03219245
v -0.04136385 -0.13624720 -0.03267584
v -0.04239017 -0.13624720 -0.03127292
v -0.04356864 -0.13624720 -0.02949929
v -0.03963479 -0.13174193 -0.03130927
v -0.03801440 -0.13098552 -0.03237054
v -0.03760870 -0.13098552 -0.03283576
v -0.04051139 -0.13098552 -0.02904498
v -0.04046793 -0.13098552 -0.02910676
v -0.04039789 -0.13098552 -0.02920490
v -0.03830902 -0.13098552 -0.03199255
f 1 2 5
f 1 5 9
f 1 9 14
f 1 14 25
f 1 25 45
f 1 45 69
f 1 69 81
f 1 81 50
f 1 50 30
f 1 30 17
f 1 17 10
f 1 10 6
f 1 6 3
f 1 3 7
f 1 7 11
f 1 11 20
f 1 20 40
f 1 40 62
f 1 62 93
f 1 93 133
f 1 133 94
f 1 94 63
f 1 63 41
f 1 41 21
f 1 21 12
f 1 12 8
f 1 8 4
f 1 4 2
f 2 4 5
f 3 6 7
f 4 8 13
f 4 13 24
f 4 24 43
f 4 43 68
f 4 68 102
f 4 102 101
f 4 101 140
f 4 140 165
f 4 165 164
f 4 164 163
f 4 163 178
f 4 178 177
f 4 177 182
f 4 182 181
f 4 181 180
f 4 180 179
f 4 179 168
f 4 168 167
f 4 167 166
f 4 166 145
f 4 145 144
f 4 144 143
f 4 143 116
f 4 116 79
f 4 79 78
f 4 78 48
f 4 48 28
f 4 28 15
f 4 15 9
f 4 9 5
f 6 10 11
f 6 11 7
f 8 12 13
f 9 15 16
f 9 16 14
f 10 17 18
f 10 18 19
f 10 19 11
f 11 19 20
f 12 21 13
f 13 21 22
f 13 22 23
f 13 23 24
f 14 16 26
f 14 26 27
f 14 27 25
f 15 28 16
f 16 28 29
f 16 29 26
f 17 30 31
f 17 31 32
f 17 32 33
f 17 33 18
f 18 33 19
f 19 34 35
f 19 35 36
f 19 36 37
f 19 37 20
f 19 33 38
f 19 38 34
f 20 39 40
f 20 37 39
f 21 41 22
f 22 41 23
f 23 42 43
f 23 43 24
f 23 41 44
f 23 44 42
f 25 27 45
f 26 29 46
f 26 46 47
f 26 47 27
f 27 47 45
f 28 48 29
f 29 48 49
f 29 49 46
f 30 50 51
f 30 51 31
f 31 51 32
f 32 52 53
f 32 53 54
f 32 54 55
f 32 55 38
f 32 38 33
f 32 51 52
f 34 55 56
f 34 56 57
f 34 57 35
f 34 38 55
f 35 58 59
f 35 59 36
f 35 57 58
f 36 59 60
f 36 60 37
f 37 60 61
f 37 61 39
f 39 61 40
f 40 61 62
f 41 63 64
f 41 64 44
f 42 65 66
f 42 66 43
f 42 44 67
f 42 67 65
f 43 66 68
f 44 64 67
f 45 47 70
f 45 70 71
f 45 71 69
f 46 49 72
f 46 72 47
f 47 72 73
f 47 73 74
f 47 74 75
f 47 75 76
f 47 76 77
f 47 77 70
f 48 78 49
f 49 78 79
f 49 79 80
f 49 80 72
f 50 81 82
f 50 82 83
f 50 83 52
f 50 52 51
f 52 83 54
f 52 54 53
f 54 83 84
f 54 84 55
f 55 85 56
f 55 84 85
f 56 86 57
f 56 85 87
f 56 87 86
f 57 86 58
f 58 88 59
f 58 86 88
f 59 88 89
f 59 89 60
f 60 89 61
f 61 89 90
f 61 90 62
f 62 91 92
f 62 92 93
f 62 90 91
f 63 94 64
f 64 94 95
f 64 95 96
f 64 96 97
f 64 97 98
f 64 98 67
f 65 99 100
f 65 100 66
f 65 67 99
f 66 100 101
f 66 101 102
f 66 102 68
f 67 98 103
f 67 103 99
f 69 71 104
f 69 104 81
f 70 77 71
f 71 77 76
f 71 76 75
f 71 75 105
f 71 105 106
f 71 106 107
f 71 107 104
f 72 80 73
f 73 80 108
f 73 108 74
f 74 109 110
f 74 110 75
f 74 108 111
f 74 111 112
f 74 112 113
f 74 113 114
f 74 114 115
f 74 115 109
f 75 110 105
f 79 116 108
f 79 108 80
f 81 104 82
f 82 104 107
f 82 107 83
f 83 107 106
f 83 106 117
f 83 117 118
f 83 118 84
f 84 118 119
f 84 119 120
f 84 120 87
f 84 87 85
f 86 121 88
f 86 87 121
f 87 120 122
f 87 122 123
f 87 123 124
f 87 124 121
f 88 125 126
f 88 126 89
f 88 121 127
f 88 127 125
f 89 128 129
f 89 129 90
f 89 126 128
f 90 129 130
f 90 130 131
f 90 131 91
f 91 131 132
f 91 132 92
f 92 133 93
f 92 132 133
f 94 96 95
f 94 133 132
f 94 132 96
f 96 98 97
f 96 132 98
f 98 130 103
f 98 132 130
f 99 134 135
f 99 135 136
f 99 136 100
f 99 103 137
f 99 137 134
f 100 136 138
f 100 138 139
f 100 139 140
f 100 140 101
f 103 130 137
f 105 118 117
f 105 117 106
f 105 110 109
f 105 109 115
f 105 115 141
f 105 141 119
f 105 119 142
f 105 142 118
f 108 143 144
f 108 144 145
f 108 145 146
f 108 146 111
f 108 116 143
f 111 146 147
f 111 147 112
f 112 148 113
f 112 147 148
f 113 148 149
f 113 149 150
f 113 150 151
f 113 151 152
f 113 152 153
f 113 153 114
f 114 153 141
f 114 141 115
f 118 142 119
f 119 141 120
f 120 141 122
f 121 124 154
f 121 154 127
f 122 141 123
f 123 155 124
f 123 141 155
f 124 155 154
f 125 127 156
f 125 156 157
f 125 157 134
f 125 134 128
f 125 128 126
f 127 158 156
f 127 154 155
f 127 155 158
f 128 134 137
f 128 137 130
f 128 130 129
f 130 132 131
f 134 157 135
f 135 138 136
f 135 157 156
f 135 156 159
f 135 159 160
f 135 160 138
f 138 160 161
f 138 161 162
f 138 162 163
f 138 163 164
f 138 164 165
f 138 165 139
f 139 165 140
f 141 153 152
f 141 152 155
f 145 166 147
f 145 147 146
f 147 166 148
f 148 166 167
f 148 167 168
f 148 168 169
f 148 169 170
f 148 170 149
f 149 170 150
f 150 171 151
f 150 170 171
f 151 172 159
f 151 159 158
f 151 158 173
f 151 173 174
f 151 174 175
f 151 175 152
f 151 171 172
f 152 175 155
f 155 175 174
f 155 174 173
f 155 173 158
f 156 158 159
f 159 172 161
f 159 161 160
f 161 172 176
f 161 176 177
f 161 177 162
f 162 177 178
f 162 178 163
f 168 170 169
f 168 179 170
f 170 179 171
f 171 179 180
f 171 180 181
f 171 181 176
f 171 176 172
f 176 182 177
f 176 181 182

