# https://github.com/mikedh/trimesh
v 0.00077133 0.02411716 -0.03806788
v 0.00117499 0.02411716 -0.03807306
v 0.00077133 0.02411716 -0.03504094
v 0.00077133 0.10074619 -0.04824657
v 0.00141134 0.10074619 -0.04825693
v 0.00141134 0.02411716 -0.03807306
v 0.02790158 0.02411716 -0.02180425
v 0.00077133 0.02669746 -0.03515487
v 0.00077133 0.10074619 -0.04144438
v 0.00422103 0.10074619 -0.04812487
v 0.00422103 0.02411716 -0.03797726
v 0.00077133 0.02950279 -0.03528952
v 0.00077133 0.02886522 -0.03525845
v 0.02790158 0.02411716 -0.02648836
v 0.02790158 0.03449088 -0.02251372
v 0.00077133 0.04635728 -0.03622686
v 0.00077133 0.04355195 -0.03604043
v 0.00077133 0.04073912 -0.03586953
v 0.00077133 0.03793378 -0.03571158
v 0.00077133 0.03729621 -0.03567792
v 0.00077133 0.03512095 -0.03556917
v 0.00077133 0.03231562 -0.03542935
v 0.00077133 0.10051367 -0.04136670
v 0.02790158 0.09920101 -0.03043710
v 0.02790158 0.10074619 -0.03110515
v 0.00642789 0.10074619 -0.04789960
v 0.00702807 0.02411716 -0.03765618
v 0.02718721 0.02411716 -0.02720820
v 0.02790158 0.10074619 -0.03974318
v 0.02790158 0.03632109 -0.02268462
v 0.00077133 0.09908850 -0.04104562
v 0.00077133 0.04878007 -0.03643142
v 0.00077133 0.04814249 -0.03637704
v 0.00077133 0.09972607 -0.04111036
v 0.02790158 0.09692075 -0.03012120
v 0.00651818 0.10074619 -0.04788924
v 0.00983776 0.02411716 -0.03707875
v 0.00726973 0.10074619 -0.04779862
v 0.00803988 0.10074619 -0.04768209
v 0.00879674 0.10074619 -0.04755263
v 0.00983776 0.10074619 -0.04735584
v 0.02578236 0.02411716 -0.02854688
v 0.02409867 0.02411716 -0.02995031
v 0.02269383 0.02411716 -0.03106631
v 0.02672247 0.10074619 -0.04052258
v 0.02790158 0.04500712 -0.02362714
v 0.02790158 0.04752742 -0.02393009
v 0.01139132 0.02411716 -0.03666964
v 0.01261824 0.10074619 -0.04672404
v 0.01899980 0.02411716 -0.03338636
v 0.02587531 0.10074619 -0.04104562
v 0.01155598 0.02411716 -0.03662562
v 0.01555009 0.10074619 -0.04586697
v 0.01771180 0.02411716 -0.03415798
v 0.02466964 0.10074619 -0.04178876
v 0.01708507 0.10074619 -0.04533098
v 0.01749404 0.10074619 -0.04518597
v 0.01828543 0.10074619 -0.04488302
v 0.01880859 0.10074619 -0.04467069
v 0.02011783 0.10074619 -0.04409586
v 0.02103138 0.10074619 -0.04368934
v 0.02226361 0.10074619 -0.04308343
v 0.02332588 0.10074619 -0.04254485
f 1 2 6
f 1 6 11
f 1 11 27
f 1 27 37
f 1 37 48
f 1 48 52
f 1 52 54
f 1 54 50
f 1 50 44
f 1 44 43
f 1 43 42
f 1 42 28
f 1 28 14
f 1 14 7
f 1 7 3
f 1 3 8
f 1 8 13
f 1 13 12
f 1 12 22
f 1 22 21
f 1 21 20
f 1 20 19
f 1 19 18
f 1 18 17
f 1 17 16
f 1 16 33
f 1 33 32
f 1 32 31
f 1 31 34
f 1 34 23
f 1 23 9
f 1 9 4
f 1 4 5
f 1 5 2
f 2 5 6
f 3 7 8
f 4 9 25
f 4 25 29
f 4 29 45
f 4 45 51
f 4 51 55
f 4 55 63
f 4 63 62
f 4 62 61
f 4 61 60
f 4 60 59
f 4 59 58
f 4 58 57
f 4 57 56
f 4 56 53
f 4 53 49
f 4 49 41
f 4 41 40
f 4 40 39
f 4 39 38
f 4 38 36
f 4 36 26
f 4 26 10
f 4 10 5
f 5 10 11
f 5 11 6
f 7 12 13
f 7 13 8
f 7 14 29
f 7 29 25
f 7 25 24
f 7 24 35
f 7 35 47
f 7 47 46
f 7 46 30
f 7 30 15
f 7 15 16
f 7 16 17
f 7 17 18
f 7 18 19
f 7 19 20
f 7 20 21
f 7 21 22
f 7 22 12
f 9 23 24
f 9 24 25
f 10 26 11
f 11 26 27
f 14 28 29
f 15 30 31
f 15 31 32
f 15 32 33
f 15 33 16
f 23 34 24
f 24 34 35
f 26 36 27
f 27 36 38
f 27 38 39
f 27 39 40
f 27 40 41
f 27 41 37
f 28 42 29
f 29 42 43
f 29 43 44
f 29 44 45
f 30 46 34
f 30 34 31
f 34 46 47
f 34 47 35
f 37 41 49
f 37 49 48
f 44 50 45
f 45 50 51
f 48 49 52
f 49 53 52
f 50 54 55
f 50 55 51
f 52 53 56
f 52 56 57
f 52 57 58
f 52 58 54
f 54 58 59
f 54 59 60
f 54 60 61
f 54 61 62
f 54 62 63
f 54 63 55

