# https://github.com/mikedh/trimesh
v -0.03645283 -0.02949853 0.02419973
v -0.03644195 -0.03230829 0.02419973
v -0.03609363 -0.03230829 0.02470302
v -0.03609726 -0.02949853 0.02471065
v -0.03609363 -0.02668877 0.02470302
v -0.03644558 -0.02769718 0.02419973
v -0.03639841 -0.03324344 0.02419973
v -0.03468950 -0.03230829 0.02650078
v -0.03469313 -0.02949853 0.02652557
v -0.03602470 -0.03511805 0.02460198
v -0.03462056 -0.03511805 0.02642262
v -0.03468950 -0.02668877 0.02652938
v -0.03643832 -0.02668877 0.02419973
v -0.03466410 -0.02387901 0.02648934
v -0.03606824 -0.02387901 0.02465346
v -0.03630407 -0.03511805 0.02419973
v -0.03348855 -0.03230829 0.02790582
v -0.03351032 -0.02949853 0.02792869
v -0.03343775 -0.03511805 0.02782765
v -0.03351395 -0.02668877 0.02793442
v -0.03622788 -0.03581187 0.02419973
v -0.03586868 -0.03792350 0.02437893
v -0.03446092 -0.03792350 0.02624151
v -0.03331439 -0.03792350 0.02764654
v -0.03639841 -0.02481847 0.02419973
v -0.03347767 -0.02387901 0.02789247
v -0.03340510 -0.02106925 0.02777618
v -0.03456977 -0.02106925 0.02637115
v -0.03597390 -0.02106925 0.02450666
v -0.03618434 -0.02106925 0.02419973
v -0.03623150 -0.02175445 0.02419973
v -0.03637664 -0.02387901 0.02419973
v -0.03076373 -0.03230829 0.03076736
v -0.03082541 -0.02949853 0.03083027
v -0.03084718 -0.02668877 0.03085124
v -0.03069117 -0.03511805 0.03069301
v -0.03191026 -0.03792350 0.02915834
v -0.03599204 -0.03792350 0.02419973
v -0.03575621 -0.03959987 0.02419973
v -0.03559293 -0.04073326 0.02419973
v -0.03427588 -0.04073326 0.02600892
v -0.03311847 -0.04073326 0.02741205
v -0.03171433 -0.04073326 0.02894291
v -0.03079276 -0.02387901 0.03079405
v -0.03200097 -0.02106925 0.02928416
v -0.03194291 -0.02001775 0.02921934
v -0.03282095 -0.02001775 0.02827566
v -0.03334705 -0.02001775 0.02769421
v -0.03407633 -0.02001775 0.02681534
v -0.03450446 -0.02001775 0.02628917
v -0.03538249 -0.02001775 0.02512434
v -0.03590859 -0.02001775 0.02441134
v -0.03603921 -0.02001775 0.02421879
v -0.03605009 -0.02001775 0.02419973
v -0.02786839 -0.03230829 0.03346686
v -0.02928704 -0.03511805 0.03201226
v -0.02778494 -0.03511805 0.03341729
v -0.02787927 -0.02668877 0.03347258
v -0.02781760 -0.02387901 0.03343254
v -0.02789016 -0.02949853 0.03348211
v -0.03055330 -0.03792350 0.03056337
v -0.03507047 -0.04336633 0.02419973
v -0.03402190 -0.04353871 0.02568674
v -0.03283184 -0.04353871 0.02709177
v -0.03142770 -0.04353871 0.02863789
v -0.03031746 -0.04073326 0.03034795
v -0.02928341 -0.02106925 0.03195697
v -0.03068754 -0.02106925 0.03068920
v -0.03061860 -0.02001775 0.03062438
v -0.03218601 -0.02001775 0.02419973
v -0.02646426 -0.03230829 0.03461453
v -0.02648603 -0.02949853 0.03463168
v -0.02914916 -0.03792350 0.03188071
v -0.02637718 -0.03511805 0.03455161
v -0.02759627 -0.03792350 0.03328575
v -0.02647514 -0.02668877 0.03461453
v -0.02641346 -0.02387901 0.03456305
v -0.02768698 -0.02106925 0.03336200
v -0.03434844 -0.04611576 0.02419973
v -0.03380784 -0.04527110 0.02541793
v -0.03113744 -0.04559862 0.02833858
v -0.02999454 -0.04353871 0.03004292
v -0.02891332 -0.04073326 0.03165385
v -0.02859041 -0.04353871 0.03135263
v -0.02921447 -0.02001775 0.03190168
v -0.03009251 -0.02001775 0.03110861
v 0.00060974 -0.02001775 0.04051872
v 0.00060974 -0.05758751 0.03515786
v -0.02536127 -0.05758751 0.02419973
v -0.02453040 -0.03230829 0.03601956
v -0.02455580 -0.02949853 0.03603672
v -0.02619214 -0.03792350 0.03441435
v -0.02442881 -0.03511805 0.03595665
v -0.02730964 -0.04073326 0.03305888
v -0.02590551 -0.04073326 0.03419320
v -0.02452677 -0.02668877 0.03601956
v -0.02445058 -0.02387901 0.03596809
v -0.02628284 -0.02106925 0.03446392
v -0.02760716 -0.02001775 0.03330672
v -0.02888793 -0.06403443 0.02419973
v -0.02804617 -0.06403443 0.02524445
v -0.02830015 -0.04554260 0.03108955
v -0.02732415 -0.06403443 0.02595555
v -0.02521251 -0.06403443 0.02801448
v -0.02693230 -0.04353871 0.03275767
v 0.00060974 -0.02001775 0.04333642
v 0.00060974 -0.05960002 0.03500534
v 0.00060974 -0.06039726 0.03494815
v -0.02506738 -0.05948797 0.02419973
v -0.02312627 -0.03230829 0.03693274
v -0.02315167 -0.02949853 0.03694799
v -0.02422563 -0.03792350 0.03581939
v -0.02302468 -0.03511805 0.03686792
v -0.02282149 -0.03792350 0.03673828
v -0.02552817 -0.04353871 0.03390343
v -0.02261468 -0.03985844 0.03661055
v -0.02312264 -0.02668877 0.03692893
v -0.02304645 -0.02387901 0.03688127
v -0.02289769 -0.02106925 0.03678785
v -0.02430182 -0.02106925 0.03586895
v -0.02619939 -0.02001775 0.03440101
v -0.02471544 -0.06403443 0.02419973
v -0.02530322 -0.04500392 0.03372994
v -0.02380838 -0.06403443 0.02911830
v -0.00034811 -0.02001775 0.04332689
v 0.00060974 -0.02106925 0.04342983
v 0.00060974 -0.06240978 0.03493290
v -0.02472270 -0.06320271 0.02419973
v -0.02476624 -0.06260801 0.02419973
v -0.02493314 -0.06039726 0.02419973
v -0.01781088 -0.03230829 0.03976187
v -0.01783991 -0.02949853 0.03977712
v -0.01780362 -0.02668877 0.03976378
v -0.01768752 -0.03511805 0.03970659
v -0.01882679 -0.03792350 0.03885251
v -0.02126860 -0.04077204 0.03720536
v -0.02200877 -0.04353871 0.03617970
v -0.02060463 -0.04353871 0.03704903
v -0.01770929 -0.02387901 0.03971993
v -0.01752425 -0.02106925 0.03963414
v -0.02220832 -0.02001775 0.03705475
v -0.02280698 -0.02001775 0.03673066
v -0.02368502 -0.02001775 0.03615491
v -0.02421111 -0.02001775 0.03580604
v -0.02471544 -0.06387499 0.02419973
v 0.00060974 -0.06403443 0.03492718
v -0.02200514 -0.06403443 0.03052334
v -0.02060101 -0.06403443 0.03151277
v -0.02011119 -0.04581841 0.03677451
v -0.00140031 -0.02001775 0.04330973
v -0.00140031 -0.02106925 0.04340886
v 0.00060974 -0.02186650 0.04347368
v 0.00060974 -0.06320271 0.03492718
v -0.01544889 -0.03511805 0.04054923
v -0.01544889 -0.03230829 0.04061976
v -0.01128366 -0.03148949 0.04215062
v -0.01130906 -0.02949853 0.04215825
v -0.01128366 -0.02737397 0.04215062
v -0.01544889 -0.02668877 0.04062167
v -0.01544889 -0.02387901 0.04056638
v -0.01742629 -0.03792350 0.03958839
v -0.01544889 -0.03792350 0.04037574
v -0.01712514 -0.04009977 0.03945112
v -0.01504253 -0.04353871 0.03973518
v -0.01678771 -0.04197438 0.03923379
v -0.01544889 -0.02106925 0.04044819
v -0.01674780 -0.02001775 0.03984194
v -0.01740452 -0.02001775 0.03957886
v 0.00060974 -0.06403443 0.03775631
v -0.01882679 -0.06403443 0.03253843
v -0.01851476 -0.04659411 0.03735406
v -0.01450192 -0.04568050 0.03951404
v -0.01807211 -0.06403443 0.03295784
v -0.01680586 -0.06403443 0.03363462
v -0.01559765 -0.06403443 0.03424277
v -0.00315638 -0.02001775 0.04317247
v -0.00421220 -0.02106925 0.04318962
v -0.00421220 -0.02387901 0.04336120
v -0.00140031 -0.02387901 0.04356328
v 0.00060974 -0.02387901 0.04357853
v -0.01119658 -0.03335979 0.04208199
v -0.00982873 -0.02949853 0.04250903
v -0.00960015 -0.03511805 0.04241752
v -0.01008634 -0.03237724 0.04241371
v -0.01010085 -0.02653794 0.04241561
v -0.01121472 -0.02549936 0.04210868
v -0.01569198 -0.04091425 0.03991057
v -0.01264062 -0.04353871 0.04052825
v -0.00873300 -0.03990154 0.04220972
v -0.00915751 -0.03792350 0.04231267
v -0.00928086 -0.02106925 0.04233745
v -0.01544889 -0.02001775 0.04035096
v -0.00140031 -0.06403443 0.03772391
v 0.00060974 -0.04531420 0.04222307
v -0.00140031 -0.04530127 0.04222116
v -0.01282204 -0.04650791 0.03987626
v -0.00883096 -0.06403443 0.03662771
v -0.00421220 -0.02001775 0.04308477
v -0.00702046 -0.02106925 0.04278546
v -0.00702046 -0.02387901 0.04296657
v -0.00596464 -0.02001775 0.04283312
v -0.00702046 -0.02668877 0.04305808
v -0.00421220 -0.02668877 0.04345080
v -0.00140031 -0.02668877 0.04363954
v 0.00060974 -0.02668877 0.04365670
v -0.00702046 -0.03230829 0.04304855
v -0.00702046 -0.02949853 0.04308286
v -0.00702046 -0.03511805 0.04293607
v -0.00966909 -0.02387901 0.04242896
v -0.00982873 -0.04634847 0.04066933
v -0.00712931 -0.04079790 0.04238320
v -0.00702046 -0.03792350 0.04272446
v -0.00626942 -0.04274146 0.04224404
v -0.00905591 -0.02001775 0.04228407
v -0.00421220 -0.06403443 0.03747416
v -0.00317452 -0.04510304 0.04217350
v 0.00060974 -0.04353871 0.04253572
v -0.00140031 -0.04353871 0.04255288
v -0.00753930 -0.06403443 0.03690795
v -0.00708940 -0.02001775 0.04266155
v -0.00421220 -0.02949853 0.04347749
v -0.00140031 -0.02949853 0.04365670
v 0.00060974 -0.02949853 0.04367576
v 0.00060974 -0.02748602 0.04366242
v -0.00421220 -0.03230829 0.04343937
v -0.00421220 -0.03511805 0.04331926
v -0.00702046 -0.06403443 0.03702043
v -0.00421220 -0.04073326 0.04279309
v -0.00421220 -0.03792350 0.04310383
v -0.00415052 -0.04362059 0.04234889
v 0.00060974 -0.04073326 0.04295323
v -0.00140031 -0.04073326 0.04297801
v -0.00140031 -0.03230829 0.04363382
v 0.00060974 -0.03230829 0.04364907
v -0.00140031 -0.03511805 0.04352515
v -0.00140031 -0.03792350 0.04329829
v 0.00060974 -0.03872074 0.04320869
v 0.00060974 -0.03792350 0.04330020
v 0.00060974 -0.03310123 0.04361857
v 0.00060974 -0.03591099 0.04347749
v 0.00060974 -0.03511805 0.04354041
f 1 2 3
f 1 3 4
f 1 4 5
f 1 5 6
f 1 6 13
f 1 13 25
f 1 25 32
f 1 32 31
f 1 31 30
f 1 30 54
f 1 54 70
f 1 70 89
f 1 89 109
f 1 109 130
f 1 130 129
f 1 129 128
f 1 128 145
f 1 145 122
f 1 122 100
f 1 100 79
f 1 79 62
f 1 62 40
f 1 40 39
f 1 39 38
f 1 38 21
f 1 21 16
f 1 16 7
f 1 7 2
f 2 7 3
f 3 8 9
f 3 9 4
f 3 7 10
f 3 10 11
f 3 11 8
f 4 9 12
f 4 12 5
f 5 13 6
f 5 12 14
f 5 14 15
f 5 15 13
f 7 16 10
f 8 17 18
f 8 18 9
f 8 11 19
f 8 19 17
f 9 18 20
f 9 20 12
f 10 16 21
f 10 21 22
f 10 22 23
f 10 23 11
f 11 23 24
f 11 24 19
f 12 20 14
f 13 15 25
f 14 20 26
f 14 26 27
f 14 27 28
f 14 28 15
f 15 28 29
f 15 29 30
f 15 30 31
f 15 31 32
f 15 32 25
f 17 33 34
f 17 34 18
f 17 19 33
f 18 34 35
f 18 35 20
f 19 36 33
f 19 24 37
f 19 37 36
f 20 35 26
f 21 38 22
f 22 38 39
f 22 39 40
f 22 40 41
f 22 41 23
f 23 41 24
f 24 41 42
f 24 42 43
f 24 43 37
f 26 35 44
f 26 44 27
f 27 45 46
f 27 46 47
f 27 47 48
f 27 48 49
f 27 49 28
f 27 44 45
f 28 49 50
f 28 50 51
f 28 51 29
f 29 51 52
f 29 52 30
f 30 52 53
f 30 53 54
f 33 55 34
f 33 36 56
f 33 56 57
f 33 57 55
f 34 55 35
f 35 58 59
f 35 59 44
f 35 55 60
f 35 60 58
f 36 37 61
f 36 61 56
f 37 43 61
f 40 62 63
f 40 63 41
f 41 63 42
f 42 63 64
f 42 64 65
f 42 65 43
f 43 66 61
f 43 65 66
f 44 59 67
f 44 67 68
f 44 68 45
f 45 68 46
f 46 69 86
f 46 86 85
f 46 85 99
f 46 99 121
f 46 121 144
f 46 144 143
f 46 143 142
f 46 142 141
f 46 141 168
f 46 168 167
f 46 167 192
f 46 192 214
f 46 214 220
f 46 220 201
f 46 201 198
f 46 198 176
f 46 176 150
f 46 150 125
f 46 125 106
f 46 106 87
f 46 87 70
f 46 70 54
f 46 54 53
f 46 53 52
f 46 52 51
f 46 51 50
f 46 50 49
f 46 49 48
f 46 48 47
f 46 68 69
f 55 71 72
f 55 72 60
f 55 57 71
f 56 61 73
f 56 73 57
f 57 74 71
f 57 73 75
f 57 75 74
f 58 76 59
f 58 60 72
f 58 72 76
f 59 77 78
f 59 78 67
f 59 76 77
f 61 66 73
f 62 79 80
f 62 80 63
f 63 80 64
f 64 80 81
f 64 81 65
f 65 81 82
f 65 82 66
f 66 83 73
f 66 82 84
f 66 84 83
f 67 78 85
f 67 85 68
f 68 85 86
f 68 86 69
f 70 87 88
f 70 88 89
f 71 90 91
f 71 91 72
f 71 74 90
f 72 91 76
f 73 83 75
f 74 75 92
f 74 92 93
f 74 93 90
f 75 83 94
f 75 94 95
f 75 95 92
f 76 96 77
f 76 91 96
f 77 96 97
f 77 97 98
f 77 98 78
f 78 98 99
f 78 99 85
f 79 100 80
f 80 100 101
f 80 101 81
f 81 102 82
f 81 101 103
f 81 103 104
f 81 104 102
f 82 102 84
f 83 84 94
f 84 102 105
f 84 105 94
f 87 106 126
f 87 126 152
f 87 152 180
f 87 180 205
f 87 205 224
f 87 224 223
f 87 223 234
f 87 234 239
f 87 239 241
f 87 241 240
f 87 240 238
f 87 238 237
f 87 237 231
f 87 231 217
f 87 217 194
f 87 194 169
f 87 169 146
f 87 146 153
f 87 153 127
f 87 127 108
f 87 108 107
f 87 107 88
f 88 107 89
f 89 107 108
f 89 108 109
f 90 110 91
f 90 93 110
f 91 111 96
f 91 110 111
f 92 95 112
f 92 112 93
f 93 113 110
f 93 112 114
f 93 114 113
f 94 105 115
f 94 115 95
f 95 116 112
f 95 115 116
f 96 117 118
f 96 118 97
f 96 111 117
f 97 118 119
f 97 119 120
f 97 120 98
f 98 120 121
f 98 121 99
f 100 122 146
f 100 146 169
f 100 169 193
f 100 193 215
f 100 215 227
f 100 227 219
f 100 219 197
f 100 197 175
f 100 175 174
f 100 174 173
f 100 173 170
f 100 170 148
f 100 148 147
f 100 147 124
f 100 124 104
f 100 104 103
f 100 103 101
f 102 123 105
f 102 104 123
f 104 124 123
f 105 123 115
f 106 125 126
f 108 127 128
f 108 128 129
f 108 129 130
f 108 130 109
f 110 131 132
f 110 132 111
f 110 113 131
f 111 132 133
f 111 133 117
f 112 116 114
f 113 114 134
f 113 134 131
f 114 116 135
f 114 135 134
f 115 123 116
f 116 136 135
f 116 123 137
f 116 137 138
f 116 138 136
f 117 133 118
f 118 133 139
f 118 139 119
f 119 139 140
f 119 140 141
f 119 141 142
f 119 142 120
f 120 142 143
f 120 143 144
f 120 144 121
f 122 145 153
f 122 153 146
f 123 124 147
f 123 147 148
f 123 148 149
f 123 149 137
f 125 150 151
f 125 151 126
f 126 151 152
f 127 153 128
f 128 153 145
f 131 134 154
f 131 154 155
f 131 155 156
f 131 156 132
f 132 156 157
f 132 157 158
f 132 158 133
f 133 158 159
f 133 159 160
f 133 160 139
f 134 135 161
f 134 161 162
f 134 162 154
f 135 136 161
f 136 163 161
f 136 138 163
f 137 149 138
f 138 149 164
f 138 164 165
f 138 165 163
f 139 160 166
f 139 166 140
f 140 166 167
f 140 167 168
f 140 168 141
f 148 170 149
f 149 171 172
f 149 172 164
f 149 170 173
f 149 173 174
f 149 174 175
f 149 175 171
f 150 176 177
f 150 177 151
f 151 177 178
f 151 178 179
f 151 179 152
f 152 179 180
f 154 181 156
f 154 156 155
f 154 162 181
f 156 182 157
f 156 181 183
f 156 183 184
f 156 184 182
f 157 182 158
f 158 185 186
f 158 186 160
f 158 160 159
f 158 182 185
f 160 186 166
f 161 163 162
f 162 163 187
f 162 187 188
f 162 188 189
f 162 189 190
f 162 190 181
f 163 165 164
f 163 164 187
f 164 188 187
f 164 172 188
f 166 186 191
f 166 191 192
f 166 192 167
f 169 194 195
f 169 195 193
f 171 175 172
f 172 196 188
f 172 175 197
f 172 197 196
f 176 198 177
f 177 199 200
f 177 200 178
f 177 198 201
f 177 201 199
f 178 200 202
f 178 202 203
f 178 203 179
f 179 203 204
f 179 204 205
f 179 205 180
f 181 190 183
f 182 184 206
f 182 206 207
f 182 207 202
f 182 202 185
f 183 208 206
f 183 206 184
f 183 190 208
f 185 202 209
f 185 209 186
f 186 209 191
f 188 196 210
f 188 210 189
f 189 211 212
f 189 212 190
f 189 210 213
f 189 213 211
f 190 212 208
f 191 209 200
f 191 200 199
f 191 199 214
f 191 214 192
f 193 195 216
f 193 216 215
f 194 217 218
f 194 218 195
f 195 218 216
f 196 197 210
f 197 219 210
f 199 201 220
f 199 220 214
f 200 209 202
f 202 221 203
f 202 207 221
f 203 221 204
f 204 221 222
f 204 222 223
f 204 223 224
f 204 224 205
f 206 225 221
f 206 221 207
f 206 208 225
f 208 212 226
f 208 226 225
f 210 219 227
f 210 227 213
f 211 228 212
f 211 213 228
f 212 228 229
f 212 229 226
f 213 227 215
f 213 215 216
f 213 216 230
f 213 230 228
f 216 218 230
f 217 231 232
f 217 232 218
f 218 232 228
f 218 228 230
f 221 225 233
f 221 233 222
f 222 233 223
f 223 233 234
f 225 226 235
f 225 235 233
f 226 229 235
f 228 232 236
f 228 236 229
f 229 236 235
f 231 237 232
f 232 237 238
f 232 238 236
f 233 235 239
f 233 239 234
f 235 236 240
f 235 240 241
f 235 241 239
f 236 238 240

