# https://github.com/mikedh/trimesh
v -0.04810366 0.10074620 -0.00025045
v -0.04139056 0.10074620 -0.00025045
v -0.04811014 0.10074620 0.00140386
v -0.07078830 0.13666158 0.00140386
v -0.07077859 0.13666939 -0.00025045
v -0.03770532 0.10074620 0.01732888
v -0.04181802 0.10199584 -0.00025045
v -0.03770532 0.13497847 0.04758346
v -0.03770532 0.13355310 0.04621173
v -0.03770532 0.13069065 0.04350359
v -0.03770532 0.12779696 0.04076602
v -0.03770532 0.12632473 0.03938841
v -0.03770532 0.12522739 0.03836403
v -0.03770532 0.12476659 0.03793425
v -0.03770532 0.12339589 0.03668616
v -0.03770532 0.12238056 0.03576186
v -0.03770532 0.12194709 0.03537330
v -0.03770532 0.11951811 0.03321268
v -0.03770532 0.11896358 0.03272993
v -0.03770532 0.11653460 0.03061640
v -0.03770532 0.11387521 0.02832626
v -0.03770532 0.11100494 0.02589483
v -0.04808099 0.10074620 0.00189839
v -0.07074620 0.13670844 0.00421208
v -0.07078830 0.13882110 0.00140386
v -0.07077859 0.13881330 -0.00025045
v -0.03770532 0.10074620 0.02988050
v -0.04234264 0.10340168 -0.00025045
v -0.03770532 0.13634526 0.04910237
v -0.04279601 0.10453807 -0.00025045
v -0.04312308 0.10535033 -0.00025045
v -0.04793851 0.10074620 0.00421208
v -0.07060695 0.13689979 0.00702619
v -0.07074620 0.13875472 0.00421208
v -0.06963545 0.14022695 0.00140386
v -0.06961278 0.14021914 -0.00025045
v -0.03770532 0.13590008 0.05966999
v -0.03881932 0.13525183 0.05864561
v -0.04203823 0.13490818 0.05610820
v -0.04508228 0.13477151 0.05348838
v -0.04695729 0.13574387 0.05262295
v -0.04983294 0.13561892 0.04983828
v -0.05264059 0.13574778 0.04691231
v -0.05345018 0.13479493 0.04504017
v -0.03794820 0.10074620 0.02958613
v -0.03770532 0.13649365 0.04927310
v -0.04442813 0.10843147 -0.00025045
v -0.04545469 0.11072378 -0.00025045
v -0.04787374 0.10074620 0.00486557
v -0.07060695 0.13850089 0.00702619
v -0.04773125 0.10074620 0.00621375
v -0.04754343 0.10074620 0.00752072
v -0.07040294 0.13725516 0.00983441
v -0.06950915 0.14015666 0.00421208
v -0.06823000 0.14062527 0.00140386
v -0.06903635 0.14038316 -0.00025045
v -0.06772482 0.14061747 0.01264263
v -0.06786407 0.14063699 0.00983441
v -0.03770532 0.13620077 0.05989370
v -0.03970986 0.13712238 0.05924610
v -0.04087243 0.13601724 0.05768598
v -0.04289316 0.13678263 0.05673225
v -0.04371246 0.13600552 0.05556069
v -0.04615094 0.13650928 0.05392991
v -0.04777659 0.13761833 0.05338829
v -0.05065872 0.13748946 0.05065660
v -0.05164965 0.13661862 0.04880801
v -0.05338865 0.13762224 0.04777185
v -0.05389707 0.13651319 0.04612342
v -0.05548386 0.13604066 0.04369787
v -0.05603762 0.13496285 0.04193759
v -0.03886789 0.10074620 0.02837925
v -0.03770532 0.13760662 0.05059773
v -0.04689252 0.11378148 -0.00025045
v -0.07040294 0.13808304 0.00983441
v -0.06745280 0.14048860 0.01705218
v -0.04712244 0.10074620 0.00983441
v -0.06943143 0.13645852 0.01257787
v -0.07027340 0.13753242 0.01159470
v -0.06756290 0.14054717 0.01545084
v -0.06707067 0.14062527 0.00140386
v -0.06820733 0.14061747 -0.00025045
v -0.06481031 0.14055107 0.02388139
v -0.06224553 0.14059404 0.02949783
v -0.06690552 0.14063699 0.00983441
v -0.05947027 0.14058622 0.03510837
v -0.03770532 0.13862585 0.05986427
v -0.03792229 0.13858290 0.05979951
v -0.03970986 0.13804790 0.05924610
v -0.04777659 0.13769253 0.05338829
v -0.05065872 0.13781359 0.05065660
v -0.05338865 0.13768862 0.04777185
v -0.05926625 0.13715753 0.03972987
v -0.05674034 0.13683731 0.04287366
v -0.05765031 0.13606019 0.04083667
v -0.03920792 0.10074620 0.02792593
v -0.03770532 0.13845793 0.05195180
v -0.04766649 0.11535525 -0.00025045
v -0.04840483 0.11676109 -0.00025045
v -0.04923061 0.11826066 -0.00025045
v -0.04981027 0.11929942 -0.00025045
v -0.05062310 0.12069745 -0.00025045
v -0.05116714 0.12157219 -0.00025045
v -0.05156546 0.12220483 -0.00025045
v -0.05236533 0.12346228 -0.00025045
v -0.05290937 0.12431360 -0.00025045
v -0.05384202 0.12571553 -0.00025045
v -0.05475199 0.12706279 -0.00025045
v -0.05534461 0.12793364 -0.00025045
v -0.05574940 0.12852331 -0.00025045
v -0.05668205 0.12985495 -0.00025045
v -0.05712570 0.13047978 -0.00025045
v -0.05902661 0.13312744 -0.00025045
v -0.05962895 0.13395533 -0.00025045
v -0.06103439 0.13581027 -0.00025045
v -0.07027340 0.13777844 0.01159470
v -0.06870604 0.13905932 0.01545084
v -0.06808751 0.13924287 0.01810011
v -0.06782521 0.13845013 0.02106728
v -0.06464839 0.14048860 0.02545328
v -0.04691843 0.10074620 0.01071161
v -0.06808751 0.13609143 0.01807656
v -0.06876109 0.13625154 0.01545084
v -0.06782521 0.13689589 0.02106728
v -0.06754347 0.13737621 0.02282168
v -0.06707715 0.14061747 -0.00025045
v -0.04198965 0.14049250 0.05326466
v -0.06195408 0.14053937 0.03134642
v -0.05834008 0.14058622 0.03510837
v -0.04198965 0.14049250 0.05355902
v -0.05907195 0.14050422 0.03665672
v -0.05339188 0.14047298 0.04496952
v -0.05379668 0.14052375 0.04353892
v -0.04263733 0.14049250 0.05355902
v -0.03770532 0.13992236 0.05758590
v -0.03792229 0.13991064 0.05758590
v -0.04067813 0.13890312 0.05763300
v -0.04289316 0.13840326 0.05673225
v -0.04889058 0.13830564 0.05173986
v -0.04634848 0.13835640 0.05398290
v -0.05061338 0.14048470 0.04780129
v -0.05386469 0.13879768 0.04608221
v -0.05674034 0.13849699 0.04287366
v -0.05926625 0.13813772 0.03972987
v -0.06221639 0.13696618 0.03447844
v -0.05975200 0.13623202 0.03779885
v -0.05856029 0.13528698 0.03865250
v -0.04024095 0.10074620 0.02640113
v -0.03770532 0.13977005 0.05475413
v -0.06152338 0.13638822 -0.00025045
v -0.06222934 0.13721220 -0.00025045
v -0.06754347 0.13793855 0.02282168
v -0.06528310 0.13920381 0.02650710
v -0.06411082 0.14023867 0.02732543
v -0.06142299 0.14029334 0.03321857
v -0.04645210 0.10074620 0.01257787
v -0.06721316 0.13504876 0.01888311
v -0.04612179 0.10074620 0.01365523
v -0.04557775 0.10074620 0.01538020
v -0.04528630 0.10074620 0.01619264
v -0.04506285 0.10074620 0.01681080
v -0.06434722 0.13511125 0.02742551
v -0.06497222 0.13698180 0.02891499
v -0.06567171 0.13987550 -0.00025045
v -0.03792229 0.13984815 0.05477768
v -0.05971314 0.13906713 0.03772231
v -0.05578826 0.14037144 0.04174331
v -0.04450909 0.14042612 0.05252875
v -0.04370275 0.13941468 0.05480123
v -0.06221639 0.13841888 0.03447844
v -0.06153957 0.13509172 0.03321268
v -0.04234588 0.10074620 0.02289822
v -0.04160429 0.10074620 0.02421107
v -0.06363155 0.13847355 -0.00025045
v -0.06446380 0.13905151 -0.00025045
v -0.06497222 0.13836421 0.02891499
v -0.06267300 0.13923896 0.03228838
v -0.04491389 0.10074620 0.01720525
v -0.04443137 0.10074620 0.01845334
v -0.04326557 0.10074620 0.02107906
v -0.06398453 0.13612658 0.02970977
f 1 2 6
f 1 6 27
f 1 27 45
f 1 45 72
f 1 72 96
f 1 96 148
f 1 148 173
f 1 173 172
f 1 172 180
f 1 180 179
f 1 179 178
f 1 178 161
f 1 161 160
f 1 160 159
f 1 159 158
f 1 158 156
f 1 156 121
f 1 121 77
f 1 77 52
f 1 52 51
f 1 51 49
f 1 49 32
f 1 32 23
f 1 23 3
f 1 3 4
f 1 4 5
f 1 5 26
f 1 26 36
f 1 36 56
f 1 56 82
f 1 82 126
f 1 126 164
f 1 164 175
f 1 175 174
f 1 174 151
f 1 151 150
f 1 150 115
f 1 115 114
f 1 114 113
f 1 113 112
f 1 112 111
f 1 111 110
f 1 110 109
f 1 109 108
f 1 108 107
f 1 107 106
f 1 106 105
f 1 105 104
f 1 104 103
f 1 103 102
f 1 102 101
f 1 101 100
f 1 100 99
f 1 99 98
f 1 98 74
f 1 74 48
f 1 48 47
f 1 47 31
f 1 31 30
f 1 30 28
f 1 28 7
f 1 7 2
f 2 7 8
f 2 8 9
f 2 9 10
f 2 10 11
f 2 11 12
f 2 12 13
f 2 13 14
f 2 14 15
f 2 15 16
f 2 16 17
f 2 17 18
f 2 18 19
f 2 19 20
f 2 20 21
f 2 21 22
f 2 22 6
f 3 23 24
f 3 24 4
f 4 25 26
f 4 26 5
f 4 24 34
f 4 34 25
f 6 22 21
f 6 21 20
f 6 20 19
f 6 19 18
f 6 18 17
f 6 17 16
f 6 16 15
f 6 15 14
f 6 14 13
f 6 13 12
f 6 12 11
f 6 11 10
f 6 10 9
f 6 9 8
f 6 8 29
f 6 29 46
f 6 46 73
f 6 73 97
f 6 97 149
f 6 149 135
f 6 135 87
f 6 87 59
f 6 59 37
f 6 37 27
f 7 28 8
f 8 28 30
f 8 30 31
f 8 31 29
f 23 32 24
f 24 32 33
f 24 33 50
f 24 50 34
f 25 34 35
f 25 35 26
f 26 35 36
f 27 37 38
f 27 38 39
f 27 39 40
f 27 40 41
f 27 41 42
f 27 42 43
f 27 43 44
f 27 44 45
f 29 31 47
f 29 47 48
f 29 48 46
f 32 49 33
f 33 49 51
f 33 51 52
f 33 52 53
f 33 53 75
f 33 75 50
f 34 54 35
f 34 50 54
f 35 55 56
f 35 56 36
f 35 54 57
f 35 57 58
f 35 58 55
f 37 59 38
f 38 59 60
f 38 60 61
f 38 61 39
f 39 61 62
f 39 62 63
f 39 63 64
f 39 64 40
f 40 64 41
f 41 64 65
f 41 65 66
f 41 66 42
f 42 66 67
f 42 67 43
f 43 67 68
f 43 68 69
f 43 69 44
f 44 69 70
f 44 70 71
f 44 71 45
f 45 71 72
f 46 48 74
f 46 74 73
f 50 75 76
f 50 76 54
f 52 77 78
f 52 78 53
f 53 78 79
f 53 79 116
f 53 116 75
f 54 76 80
f 54 80 57
f 55 81 126
f 55 126 82
f 55 82 56
f 55 58 85
f 55 85 81
f 57 80 83
f 57 83 84
f 57 84 58
f 58 84 86
f 58 86 129
f 58 129 85
f 59 87 88
f 59 88 89
f 59 89 60
f 60 89 90
f 60 90 65
f 60 65 62
f 60 62 61
f 62 65 63
f 63 65 64
f 65 90 91
f 65 91 66
f 66 91 92
f 66 92 68
f 66 68 67
f 68 92 144
f 68 144 93
f 68 93 94
f 68 94 69
f 69 94 70
f 70 94 71
f 71 94 95
f 71 95 96
f 71 96 72
f 73 74 98
f 73 98 99
f 73 99 100
f 73 100 101
f 73 101 102
f 73 102 103
f 73 103 104
f 73 104 105
f 73 105 106
f 73 106 107
f 73 107 108
f 73 108 109
f 73 109 110
f 73 110 111
f 73 111 112
f 73 112 113
f 73 113 114
f 73 114 115
f 73 115 97
f 75 116 117
f 75 117 76
f 76 117 118
f 76 118 119
f 76 119 120
f 76 120 83
f 76 83 80
f 77 121 122
f 77 122 123
f 77 123 78
f 78 123 79
f 79 123 124
f 79 124 125
f 79 125 152
f 79 152 116
f 81 85 127
f 81 127 126
f 83 120 128
f 83 128 84
f 84 128 86
f 85 129 130
f 85 130 127
f 86 128 131
f 86 131 132
f 86 132 133
f 86 133 134
f 86 134 130
f 86 130 129
f 87 135 136
f 87 136 137
f 87 137 88
f 88 137 89
f 89 137 138
f 89 138 90
f 90 139 91
f 90 138 140
f 90 140 139
f 91 139 141
f 91 141 132
f 91 132 92
f 92 132 142
f 92 142 143
f 92 143 144
f 93 144 170
f 93 170 145
f 93 145 146
f 93 146 147
f 93 147 96
f 93 96 95
f 93 95 94
f 96 147 148
f 97 115 150
f 97 150 151
f 97 151 149
f 116 152 119
f 116 119 118
f 116 118 117
f 119 152 153
f 119 153 120
f 120 153 154
f 120 154 155
f 120 155 128
f 121 156 157
f 121 157 122
f 122 157 124
f 122 124 123
f 124 157 156
f 124 156 158
f 124 158 159
f 124 159 125
f 125 159 160
f 125 160 161
f 125 161 162
f 125 162 163
f 125 163 176
f 125 176 152
f 126 127 165
f 126 165 149
f 126 149 164
f 127 130 135
f 127 135 165
f 128 155 131
f 130 134 135
f 131 166 144
f 131 144 167
f 131 167 132
f 131 155 166
f 132 167 143
f 132 143 142
f 132 141 133
f 133 141 134
f 134 141 168
f 134 168 136
f 134 136 135
f 135 149 165
f 136 168 137
f 137 169 138
f 137 168 169
f 138 169 140
f 139 140 141
f 140 169 141
f 141 169 168
f 143 167 144
f 144 166 170
f 145 170 176
f 145 176 163
f 145 163 171
f 145 171 172
f 145 172 173
f 145 173 146
f 146 173 147
f 147 173 148
f 149 151 174
f 149 174 175
f 149 175 164
f 152 176 153
f 153 176 154
f 154 176 155
f 155 176 177
f 155 177 170
f 155 170 166
f 161 178 162
f 162 178 179
f 162 179 180
f 162 180 163
f 163 181 171
f 163 180 181
f 170 177 176
f 171 181 180
f 171 180 172

