mtllib material.mtl
usemtl material_0
v 1.78098500 2.94067600 0.89384500
v 1.78098500 2.94067600 0.89384500
v 1.78098500 2.94067600 0.89384500
v 1.78098500 3.00877700 0.89384500
v 1.78098500 3.00877700 0.89384500
v 1.78098500 3.00877700 0.89384500
v 1.78098500 2.94067600 -0.36265200
v 1.78098500 2.94067600 -0.36265200
v 1.78098500 2.94067600 -0.36265200
v 1.78098500 3.00877700 -0.36265200
v 1.78098500 3.00877700 -0.36265200
v 1.78098500 3.00877700 -0.36265200
v 2.00566500 2.94067600 0.89384500
v 2.00566500 2.94067600 0.89384500
v 2.00566500 2.94067600 0.89384500
v 2.00566500 3.00877700 0.89384500
v 2.00566500 3.00877700 0.89384500
v 2.00566500 3.00877700 0.89384500
v 2.00566500 2.94067600 -0.36265200
v 2.00566500 2.94067600 -0.36265200
v 2.00566500 2.94067600 -0.36265200
v 2.00566500 3.00877700 -0.36265200
v 2.00566500 3.00877700 -0.36265200
v 2.00566500 3.00877700 -0.36265200
vn -0.00000000 -1.00000000 -0.00000000
vn -0.00000000 -0.00000000 1.00000000
vn -1.00000000 -0.00000000 -0.00000000
vn -0.00000000 -0.00000000 1.00000000
vn -0.00000000 1.00000000 -0.00000000
vn -1.00000000 -0.00000000 -0.00000000
vn -0.00000000 -1.00000000 -0.00000000
vn -1.00000000 -0.00000000 -0.00000000
vn -0.00000000 -0.00000000 -1.00000000
vn -1.00000000 -0.00000000 -0.00000000
vn -0.00000000 -0.00000000 -1.00000000
vn -0.00000000 1.00000000 -0.00000000
vn -0.00000000 -0.00000000 1.00000000
vn -0.00000000 -1.00000000 -0.00000000
vn 1.00000000 -0.00000000 -0.00000000
vn -0.00000000 1.00000000 -0.00000000
vn -0.00000000 -0.00000000 1.00000000
vn 1.00000000 -0.00000000 -0.00000000
vn -0.00000000 -1.00000000 -0.00000000
vn -0.00000000 -0.00000000 -1.00000000
vn 1.00000000 -0.00000000 -0.00000000
vn 1.00000000 -0.00000000 -0.00000000
vn -0.00000000 1.00000000 -0.00000000
vn -0.00000000 -0.00000000 -1.00000000
vt 0.02456600 1.00000000
vt 0.85708700 0.01751700
vt 0.21076000 0.00000000
vt 0.83944400 0.01751700
vt 0.19547200 1.00000000
vt 0.22136100 0.00000000
vt 0.02456600 0.00000000
vt 0.21076000 0.99999900
vt 0.82322100 0.31513100
vt 0.22136100 0.99999900
vt 0.80557800 0.31513100
vt 0.19547200 0.00000000
vt 0.85708700 0.31513100
vt 0.09994500 1.00000000
vt 0.23696700 1.00000000
vt 0.12865300 1.00000000
vt 0.83944400 0.31513100
vt 0.24756800 1.00000000
vt 0.09994500 0.00000000
vt 0.82322100 0.01751700
vt 0.23696700 0.00000000
vt 0.24756800 0.00000000
vt 0.12865300 0.00000000
vt 0.80557800 0.01751700
f 6/6/6 8/8/8 3/3/3
f 11/11/11 20/20/20 9/9/9
f 22/22/22 15/15/15 21/21/21
f 17/17/17 2/2/2 13/13/13
f 19/19/19 1/1/1 7/7/7
f 12/12/12 16/16/16 23/23/23
f 6/6/6 10/10/10 8/8/8
f 11/11/11 24/24/24 20/20/20
f 22/22/22 18/18/18 15/15/15
f 17/17/17 4/4/4 2/2/2
f 19/19/19 14/14/14 1/1/1
f 12/12/12 5/5/5 16/16/16

