# https://github.com/mikedh/trimesh
v 0.50478127 -0.13241442 0.02346314
v 0.54762397 -0.13241442 0.02338631
v 0.50478127 -0.13241442 0.11987171
v 0.50478127 0.20757599 0.02342474
v 0.54884870 0.20757599 -0.00476963
v 0.56350006 0.20757599 -0.01020887
v 0.58327712 0.20757599 -0.01087435
v 0.64256287 -0.13241442 0.02338631
v 0.56350006 -0.13241442 0.11987171
v 0.50478127 0.20757599 0.11987171
v 0.50478127 0.24712889 0.02342474
v 0.54884870 0.22733078 -0.00476963
v 0.56350006 0.22733078 -0.01020887
v 0.58327712 0.28668179 -0.01087435
v 0.70187130 0.20757599 -0.01087435
v 0.64646384 -0.13241442 0.02339915
v 0.57495351 -0.13241442 0.11937258
v 0.56350006 0.20757599 0.11987171
v 0.50478127 0.22733078 0.11985892
v 0.50478127 0.26688369 0.02345030
v 0.54887139 0.28668179 -0.00475678
v 0.56350006 0.28668179 -0.01019602
v 0.56350006 0.30461707 -0.00508959
v 0.58327712 0.30509362 -0.00543511
v 0.70187130 0.28668179 -0.01087435
v 0.72164836 0.20757599 -0.01054155
v 0.66233993 -0.13241442 0.02346314
v 0.57776581 -0.13241442 0.11924459
v 0.57776581 0.20757599 0.11924459
v 0.57774313 0.22733078 0.11924459
v 0.56350006 0.22733078 0.11985892
v 0.50478127 0.22767735 0.11984614
v 0.50478127 0.28494890 0.03124442
v 0.55045897 0.30162788 -0.00316985
v 0.56350006 0.30929584 0.00989704
v 0.58327712 0.31016228 0.00989704
v 0.66233993 0.30509362 -0.00543511
v 0.70187130 0.30505028 -0.00543511
v 0.72164836 0.30440047 -0.00517915
v 0.72164836 0.28668179 -0.01037527
v 0.72164836 0.24712889 -0.01046483
v 0.73648114 0.20757599 -0.00510242
v 0.73482551 0.18782119 -0.00342582
v 0.72164836 0.18782119 -0.00757238
v 0.68209424 -0.13241442 0.02920949
v 0.58765431 -0.13241442 0.11768323
v 0.58765431 0.20757599 0.11768323
v 0.58763169 0.22733078 0.11768323
v 0.57629160 0.23816125 0.11903983
v 0.56350006 0.23863779 0.11924459
v 0.50478127 0.23863779 0.11924459
v 0.50478127 0.28551209 0.03151317
v 0.50478127 0.28893455 0.04943060
v 0.56350006 0.30119464 0.02792967
v 0.68209424 0.31011895 0.00989704
v 0.58327712 0.30158454 0.02842881
v 0.66233993 0.30158454 0.02842881
v 0.70187130 0.30964243 0.00989704
v 0.73464408 0.30136794 -0.00327226
v 0.73623166 0.28668179 -0.00493603
v 0.73627703 0.26688369 -0.00498718
v 0.73634509 0.24712889 -0.00502559
v 0.73648114 0.20757599 0.00685111
v 0.69300342 -0.13241442 0.03720837
v 0.73482551 0.18782119 0.00470104
v 0.60001501 -0.13241442 0.11125855
v 0.60303143 0.22733078 0.10968435
v 0.61285193 0.25691965 0.09883150
v 0.58302763 0.24569927 0.11252559
v 0.56350006 0.24851520 0.11165528
v 0.50478127 0.24851520 0.11165528
v 0.50478127 0.28018351 0.06517234
v 0.68209424 0.30158454 0.02785289
v 0.50478127 0.26636381 0.08896416
v 0.60303143 0.27446504 0.07506532
v 0.66233993 0.29582272 0.03832179
v 0.72194322 0.30448709 0.01060095
v 0.73464408 0.30136794 0.00448345
v 0.70187130 0.30110799 0.02533167
v 0.73623166 0.28668179 0.00673591
v 0.72793074 0.26688369 0.01665453
v 0.72793074 0.24712889 0.01668009
v 0.72793074 0.20757599 0.01673131
v 0.69300342 -0.13241442 0.04090701
v 0.60303143 -0.13241442 0.10968435
v 0.61546013 0.22733078 0.10073845
v 0.63859383 0.24712889 0.08342252
v 0.61462100 0.24374978 0.10011133
v 0.61301067 -0.13241442 0.10250462
v 0.59967479 0.25821930 0.10055926
v 0.62183325 0.24903505 0.09440334
v 0.69391061 0.28040012 0.04097100
v 0.71557010 0.29928849 0.02219611
v 0.58327712 0.25882583 0.10159590
v 0.56350006 0.25882583 0.10177509
v 0.50478127 0.24886179 0.11136090
v 0.64256287 0.28014021 0.06411012
v 0.50478127 0.25882583 0.10177509
v 0.58327712 0.26636381 0.08896416
v 0.72763588 0.28668179 0.01661610
v 0.71804224 0.26688369 0.02444858
v 0.71804224 0.20757599 0.02444858
v 0.67168409 -0.13241442 0.05891406
v 0.68005307 -0.13241442 0.05207981
v 0.68209424 -0.13241442 0.05039047
v 0.69486316 0.26688369 0.04168774
v 0.64848239 0.24712889 0.07615316
v 0.61546013 -0.13241442 0.10073845
v 0.63600832 -0.13241442 0.08545744
v 0.68209424 0.26688369 0.05092797
v 0.71774738 0.28668179 0.02392387
v 0.67093564 0.26688369 0.05865810
v 0.69486316 0.20757599 0.04168774
v 0.65918740 -0.13241442 0.06821833
f 1 2 8
f 1 8 16
f 1 16 27
f 1 27 45
f 1 45 64
f 1 64 84
f 1 84 105
f 1 105 104
f 1 104 103
f 1 103 114
f 1 114 109
f 1 109 108
f 1 108 89
f 1 89 85
f 1 85 66
f 1 66 46
f 1 46 28
f 1 28 17
f 1 17 9
f 1 9 3
f 1 3 10
f 1 10 19
f 1 19 32
f 1 32 51
f 1 51 71
f 1 71 96
f 1 96 98
f 1 98 74
f 1 74 72
f 1 72 53
f 1 53 52
f 1 52 33
f 1 33 20
f 1 20 11
f 1 11 4
f 1 4 5
f 1 5 6
f 1 6 7
f 1 7 2
f 2 7 15
f 2 15 8
f 3 9 18
f 3 18 10
f 4 11 12
f 4 12 5
f 5 12 13
f 5 13 6
f 6 13 14
f 6 14 7
f 7 14 25
f 7 25 15
f 8 15 16
f 9 17 18
f 10 18 31
f 10 31 19
f 11 20 21
f 11 21 12
f 12 21 22
f 12 22 13
f 13 22 14
f 14 22 23
f 14 23 24
f 14 24 37
f 14 37 25
f 15 25 26
f 15 26 27
f 15 27 16
f 17 28 29
f 17 29 18
f 18 29 30
f 18 30 31
f 19 31 32
f 20 33 34
f 20 34 21
f 21 34 22
f 22 34 23
f 23 34 35
f 23 35 36
f 23 36 24
f 24 36 37
f 25 37 38
f 25 38 39
f 25 39 40
f 25 40 41
f 25 41 26
f 26 41 42
f 26 42 43
f 26 43 44
f 26 44 27
f 27 44 45
f 28 46 47
f 28 47 29
f 29 47 48
f 29 48 30
f 30 48 49
f 30 49 31
f 31 49 50
f 31 50 32
f 32 50 51
f 33 52 34
f 34 53 35
f 34 52 53
f 35 53 54
f 35 54 36
f 36 55 37
f 36 54 56
f 36 56 57
f 36 57 55
f 37 55 38
f 38 55 58
f 38 58 39
f 39 58 59
f 39 59 40
f 40 59 60
f 40 60 61
f 40 61 62
f 40 62 42
f 40 42 41
f 42 63 65
f 42 65 43
f 42 62 60
f 42 60 80
f 42 80 63
f 43 64 45
f 43 45 44
f 43 65 84
f 43 84 64
f 46 66 47
f 47 67 48
f 47 66 67
f 48 67 68
f 48 68 49
f 49 69 70
f 49 70 50
f 49 68 69
f 50 70 71
f 50 71 51
f 53 56 54
f 53 72 56
f 55 57 73
f 55 73 58
f 56 72 74
f 56 74 75
f 56 75 57
f 57 76 73
f 57 75 76
f 58 77 78
f 58 78 59
f 58 73 79
f 58 79 77
f 59 78 80
f 59 80 60
f 60 62 61
f 63 80 81
f 63 81 82
f 63 82 83
f 63 83 84
f 63 84 65
f 66 85 67
f 67 86 87
f 67 87 88
f 67 88 68
f 67 85 89
f 67 89 86
f 68 90 69
f 68 88 91
f 68 91 92
f 68 92 93
f 68 93 79
f 68 79 90
f 69 90 94
f 69 94 70
f 70 94 95
f 70 95 96
f 70 96 71
f 73 76 97
f 73 97 79
f 74 98 95
f 74 95 99
f 74 99 75
f 75 99 76
f 76 99 94
f 76 94 97
f 77 79 93
f 77 93 78
f 78 93 100
f 78 100 80
f 79 97 90
f 80 100 81
f 81 100 101
f 81 101 82
f 82 101 83
f 83 101 102
f 83 102 103
f 83 103 104
f 83 104 105
f 83 105 84
f 86 106 107
f 86 107 87
f 86 89 108
f 86 108 109
f 86 109 106
f 87 107 106
f 87 106 110
f 87 110 111
f 87 111 112
f 87 112 88
f 88 112 91
f 90 97 94
f 91 112 92
f 92 112 111
f 92 111 93
f 93 111 100
f 94 99 95
f 95 98 96
f 100 111 106
f 100 106 101
f 101 106 113
f 101 113 102
f 102 113 109
f 102 109 114
f 102 114 103
f 106 111 110
f 106 109 113

