# https://github.com/mikedh/trimesh
v 0.23532127 1.58305057 1.23259663
v 0.03522525 1.58305057 1.23259663
v 0.22048063 1.58305057 1.25248568
v 0.52960982 1.34741868 1.55697719
v 0.52960982 1.34772848 1.55589481
v 0.52960982 1.35354703 1.48604646
v 0.52960982 1.34617924 1.41910708
v 0.52960982 1.33746860 1.37036543
v 0.52960982 1.33230435 1.34543649
v 0.52960982 1.32999761 1.33552581
v 0.52960982 1.31298965 1.27964707
v 0.52960982 1.31057961 1.27382915
v 0.52960982 1.31026980 1.27311891
v 0.52960982 1.29054200 1.23259663
v 0.03482142 1.58305057 1.23300251
v -0.50176302 1.33901795 1.23259663
v 0.00746218 1.58305057 1.52920698
v 0.51951417 1.34490533 1.57811773
v 0.52960982 1.33454214 1.57811773
v 0.52960982 1.23132411 1.23259663
v 0.01452914 1.58305057 1.25898010
v -0.50176302 1.35488967 1.27673811
v -0.50176302 1.23132411 1.23259663
v 0.00695739 1.58305057 1.52984964
v -0.02403629 1.58305057 1.56502757
v -0.03736256 1.58305057 1.57811773
v 0.52960982 1.23132411 1.57811773
v -0.01222436 1.58305057 1.29415792
v -0.50176302 1.36208543 1.48604646
v -0.12509387 1.58305057 1.48604646
v -0.09470593 1.58305057 1.41677310
v -0.09420114 1.58305057 1.41572456
v -0.07249547 1.58305057 1.37729947
v -0.04776109 1.58305057 1.34269663
v -0.50176302 1.23132411 1.57811773
v -0.10732550 1.58305057 1.57811773
v -0.50176302 1.35740301 1.55548893
v -0.12398334 1.58305057 1.55633453
v -0.12509387 1.58305057 1.48709501
v -0.50176302 1.35106805 1.57811773
f 1 2 15
f 1 15 21
f 1 21 28
f 1 28 34
f 1 34 33
f 1 33 32
f 1 32 31
f 1 31 30
f 1 30 39
f 1 39 38
f 1 38 36
f 1 36 26
f 1 26 25
f 1 25 24
f 1 24 17
f 1 17 3
f 1 3 4
f 1 4 5
f 1 5 6
f 1 6 7
f 1 7 8
f 1 8 9
f 1 9 10
f 1 10 11
f 1 11 12
f 1 12 13
f 1 13 14
f 1 14 20
f 1 20 23
f 1 23 16
f 1 16 2
f 2 16 15
f 3 17 18
f 3 18 4
f 4 18 19
f 4 19 27
f 4 27 20
f 4 20 14
f 4 14 13
f 4 13 12
f 4 12 11
f 4 11 10
f 4 10 9
f 4 9 8
f 4 8 7
f 4 7 6
f 4 6 5
f 15 16 22
f 15 22 21
f 16 23 35
f 16 35 40
f 16 40 37
f 16 37 29
f 16 29 22
f 17 24 18
f 18 24 25
f 18 25 26
f 18 26 36
f 18 36 40
f 18 40 35
f 18 35 27
f 18 27 19
f 20 27 35
f 20 35 23
f 21 22 28
f 22 29 30
f 22 30 31
f 22 31 32
f 22 32 33
f 22 33 34
f 22 34 28
f 29 37 38
f 29 38 39
f 29 39 30
f 36 38 40
f 37 40 38

