# https://github.com/mikedh/trimesh
v -0.46566767 -2.20938405 1.10086755
v -0.46566767 -2.20906303 1.09635214
v -0.45699564 -2.21106939 1.10086755
v -0.46566767 -1.84285349 1.10086755
v -0.38669911 -2.21564410 0.99387458
v -0.38669911 -2.22447229 1.10086755
v -0.46566767 -2.20047560 0.99329195
v -0.45699564 -2.19983357 0.96559031
v -0.29806744 -1.43563291 1.10086755
v -0.46566767 -1.79365630 0.96559031
v -0.41498053 -2.20785922 0.96559031
v -0.38669911 -2.21323626 0.96559031
v -0.31636720 -2.22655891 0.96559031
v -0.31303997 -2.23835651 1.10086755
v -0.46566767 -2.19814823 0.96559031
v -0.13924546 -1.43563291 1.10086755
v -0.29863378 -1.43563291 1.07066320
v -0.29810286 -1.43563291 1.06417480
v -0.28245781 -1.43563291 1.02823681
v -0.27714840 -1.43563291 1.02823681
v -0.30765978 -1.80425008 0.96559031
v -0.27438750 -2.23185591 0.96559031
v -0.24610608 -2.23538710 0.96559031
v -0.24610608 -2.23771448 0.99387458
v -0.24610608 -2.24349300 1.06417480
v -0.24610608 -2.24646241 1.10086755
v -0.10406180 -1.84943435 0.96559031
v -0.15004125 -1.43563291 1.09071118
v -0.10406180 -1.87022086 1.10086755
v -0.24200015 -1.43563291 1.03579780
v -0.20409099 -2.23811575 0.96559031
v -0.20801995 -2.24895030 1.10086755
v -0.10406180 -2.23474506 0.96559031
v -0.16989842 -1.43563291 1.07445035
v -0.15308531 -1.43563291 1.08785094
v -0.10406180 -2.25545111 1.10086755
v -0.13453779 -2.24252995 0.96559031
v -0.10491131 -2.25545111 1.10086755
v -0.17874744 -2.24774648 1.06352595
v -0.10406180 -2.24445605 0.96570948
v -0.10476972 -2.24437580 0.96559031
f 1 2 3
f 1 3 6
f 1 6 14
f 1 14 26
f 1 26 32
f 1 32 38
f 1 38 36
f 1 36 29
f 1 29 16
f 1 16 9
f 1 9 4
f 1 4 10
f 1 10 15
f 1 15 7
f 1 7 2
f 2 5 6
f 2 6 3
f 2 7 8
f 2 8 5
f 4 9 10
f 5 8 11
f 5 11 12
f 5 12 13
f 5 13 14
f 5 14 6
f 7 15 8
f 8 15 10
f 8 10 21
f 8 21 27
f 8 27 33
f 8 33 41
f 8 41 37
f 8 37 31
f 8 31 23
f 8 23 22
f 8 22 13
f 8 13 12
f 8 12 11
f 9 16 28
f 9 28 35
f 9 35 34
f 9 34 30
f 9 30 20
f 9 20 19
f 9 19 18
f 9 18 17
f 9 17 10
f 10 17 18
f 10 18 19
f 10 19 20
f 10 20 21
f 13 22 14
f 14 22 23
f 14 23 24
f 14 24 25
f 14 25 26
f 16 27 28
f 16 29 27
f 20 30 27
f 20 27 21
f 23 31 24
f 24 31 25
f 25 32 26
f 25 31 32
f 27 29 36
f 27 36 40
f 27 40 33
f 27 30 34
f 27 34 35
f 27 35 28
f 31 37 32
f 32 37 39
f 32 39 38
f 33 40 41
f 36 38 40
f 37 41 40
f 37 40 38
f 37 38 39

