# https://github.com/mikedh/trimesh
v 0.37657807 -1.88798411 2.63014245
v 0.45708993 -1.87209081 2.63014245
v 0.39174039 -1.81553976 2.74919783
v 0.37657807 -1.81812718 2.74961901
v 0.37657807 1.88799417 2.63014245
v 0.52516875 -1.85397972 2.63014245
v 0.45708993 -1.80075535 2.74961901
v 0.39219525 -1.81517013 2.74961901
v 0.37657807 1.81813682 2.74961901
v 0.39174039 1.81554982 2.74919783
v 0.44647634 1.87468787 2.63014245
v 0.66754290 -1.80703866 2.63014245
v 0.59764458 -1.75788023 2.74961901
v 0.52971742 -1.78005685 2.74961901
v 0.39007249 1.81554982 2.74961901
v 0.45708993 1.80076499 2.74961901
v 0.45708993 1.87210045 2.63014245
v 0.67830815 -1.80297314 2.63014245
v 0.66435881 -1.73496394 2.74961901
v 0.65586788 -1.73792089 2.74961901
v 0.52971742 1.78006690 2.74961901
v 0.49863467 1.86175162 2.63014245
v 0.73213432 -1.78227463 2.63014245
v 0.66723964 -1.73385515 2.74961901
v 0.53456935 1.77858838 2.74961901
v 0.52516875 1.85398936 2.63014245
v 0.80612645 -1.74827003 2.63014245
v 0.73728956 -1.70502518 2.74961901
v 0.59188292 1.83255201 2.63014245
v 0.58339204 1.76269466 2.74961901
v 0.87693444 -1.71500480 2.63014245
v 0.80764269 -1.67175995 2.74961901
v 0.65783898 1.81037498 2.63014245
v 0.61371667 1.75271525 2.74961901
v 0.89846498 -1.70428602 2.63014245
v 0.87905715 -1.63701619 2.74961901
v 0.66754290 1.80704872 2.63014245
v 0.66435881 1.73497379 2.74961901
v 0.94925867 -1.67656494 2.63014245
v 0.94652950 -1.59820670 2.74961901
v 0.71863985 1.78782874 2.63014245
v 0.70848112 1.71686270 2.74961901
v 0.73971553 1.77932764 2.63014245
v 1.00899821 -1.63997314 2.63014245
v 1.09148117 -1.58785756 2.63014245
v 1.01187909 -1.55680990 2.74961901
v 0.73728956 1.70503503 2.74961901
v 0.86525947 1.72092844 2.63014245
v 0.73895741 1.70429587 2.74961901
v 1.11028249 -1.57492099 2.63014245
v 1.07738029 -1.51319542 2.74961901
v 0.88330256 1.71242734 2.63014245
v 0.80946214 1.67103054 2.74961901
v 1.13954579 -1.55459222 2.63014245
v 1.08511299 -1.50765126 2.74961901
v 0.92378597 1.69135931 2.63014245
v 0.87905715 1.63702604 2.74961901
v 1.17290280 -1.52798003 2.63014245
v 1.15667916 -1.45257874 2.74961901
v 1.08905520 -1.50469432 2.74961901
v 0.94925867 1.67657479 2.63014245
v 0.91484023 1.61780606 2.74961901
v 1.21368942 -1.49471470 2.63014245
v 1.16486678 -1.44592569 2.74961901
v 0.99762650 1.64774482 2.63014245
v 0.94652950 1.59821655 2.74961901
v 1.29056243 -1.43040192 2.63014245
v 1.22521284 -1.39565816 2.74961901
v 1.01187909 1.55681975 2.74961901
v 1.07601565 1.59784692 2.63014245
v 1.31967403 -1.40415926 2.63014245
v 1.27903901 -1.34871710 2.74961901
v 1.23491670 -1.38752659 2.74961901
v 1.01475987 1.55497170 2.74961901
v 1.09148117 1.58786740 2.63014245
v 1.04114229 1.53796940 2.74961901
v 1.33407822 -1.39048353 2.63014245
v 1.28055525 -1.34723868 2.74961901
v 1.13954579 1.55460207 2.63014245
v 1.08329355 1.50913953 2.74961901
v 1.36197688 -1.36202330 2.63014245
v 1.31937082 -1.30732040 2.74961901
v 1.12635453 1.47735272 2.74961901
v 1.15455640 1.54314403 2.63014245
v 1.43020736 -1.28957884 2.63014245
v 1.38153632 -1.24115947 2.74961901
v 1.16820247 1.44334823 2.74961901
v 1.19958854 1.50692185 2.63014245
v 1.46674856 -1.24892130 2.63014245
v 1.39685024 -1.22415717 2.74961901
v 1.22627416 1.48474503 2.63014245
v 1.23173262 1.39049338 2.74961901
v 1.49570855 -1.21454718 2.63014245
v 1.43596901 -1.17832500 2.74961901
v 1.27934232 1.44039128 2.63014245
v 1.23810079 1.38494923 2.74961901
v 1.52845915 -1.17130232 2.63014245
v 1.44673421 -1.16538854 2.74961901
v 1.30056950 1.42154104 2.63014245
v 1.27903901 1.34872695 2.74961901
v 1.58744057 -1.09109603 2.63014245
v 1.50374457 -1.08887835 2.74961901
v 1.31967403 1.40416911 2.63014245
v 1.37152915 1.35279279 2.63014245
v 1.35303114 1.37164303 2.63014245
v 1.33407822 1.39049338 2.63014245
v 1.32695192 1.39751606 2.63014245
v 1.31588352 1.31102635 2.74961901
v 1.60669670 -1.06263580 2.63014245
v 1.55802566 -1.01273790 2.74961901
v 1.55287042 -1.02013020 2.74961901
v 1.51314523 -1.07594189 2.74961901
v 1.42095830 1.29993794 2.63014245
v 1.32361623 1.30289489 2.74961901
v 1.37668439 1.24671347 2.74961901
v 1.62367846 -1.03713240 2.63014245
v 1.64081193 -1.00978095 2.63014245
v 1.59684112 -0.94879464 2.74961901
v 1.44036603 1.27886991 2.63014245
v 1.38653986 1.23599469 2.74961901
v 1.67523038 -0.94842501 2.63014245
v 1.71571379 -0.87598066 2.63014245
v 1.63671812 -0.87671987 2.74961901
v 1.41474173 1.20494714 2.74961901
v 1.46447420 1.25151846 2.63014245
v 1.74876749 -0.80834125 2.63014245
v 1.67356243 -0.80723241 2.74961901
v 1.48600458 1.22675433 2.63014245
v 1.46674856 1.24893115 2.63014245
v 1.44900857 1.16281107 2.74961901
v 1.70237081 -0.74328915 2.74961901
v 1.78136648 -0.73109190 2.63014245
v 1.70510009 -0.73700574 2.74961901
v 1.49570855 1.21455703 2.63014245
v 1.54210522 1.15357071 2.63014245
v 1.50738347 1.19977251 2.63014245
v 1.47705884 1.12548001 2.74961901
v 1.80653597 -0.66714865 2.63014245
v 1.71965589 -0.70004430 2.74961901
v 1.56014832 1.12880658 2.63014245
v 1.50859651 1.08223515 2.74961901
v 1.73390848 -0.66382212 2.74961901
v 1.81669475 -0.63942757 2.63014245
v 1.75953268 -0.59729156 2.74961901
v 1.58744057 1.09110588 2.63014245
v 1.51314523 1.07595174 2.74961901
v 1.82821807 -0.60727113 2.63014245
v 1.83746702 -0.57955010 2.63014245
v 1.78076007 -0.53076099 2.74961901
v 1.61503592 1.05081797 2.63014245
v 1.53770810 1.04194724 2.74961901
v 1.55802566 1.01274774 2.74961901
v 1.84656447 -0.54739366 2.63014245
v 1.85323585 -0.52373836 2.63014245
v 1.87067263 -0.45683816 2.63014245
v 1.81608834 -0.39215570 2.74961901
v 1.63565669 1.01866153 2.63014245
v 1.59714443 0.94843486 2.74961901
v 1.88750279 -0.38661150 2.63014245
v 1.88750279 -0.38661150 2.63018918
v 1.81654304 -0.39030762 2.74961901
v 1.64793823 0.99796313 2.63014245
v 1.63535338 0.87931698 2.74961901
v 1.71222639 0.88264355 2.63014245
v 1.90023914 -0.31638480 2.63014245
v 1.83125055 -0.31638480 2.74961901
v 1.67068165 0.81278646 2.74961901
v 1.71571379 0.87599051 2.63014245
v 1.91843384 -0.17556180 2.63014245
v 1.84899054 -0.17962756 2.74961901
v 1.67356243 0.80724226 2.74961901
v 1.72132384 0.86490204 2.63014245
v 1.92419560 -0.10533511 2.63014245
v 1.85520701 -0.10533511 2.74961901
v 1.68902805 0.77545545 2.74961901
v 1.74876749 0.80835110 2.63014245
v 1.92556013 -0.03510842 2.63014245
v 1.85672325 -0.03510842 2.74961901
v 1.76089742 0.78026044 2.63014245
v 1.70388706 0.73997248 2.74961901
v 1.77863741 0.73886364 2.63014245
v 1.92556013 0.03511827 2.63014245
v 1.85672325 0.03511827 2.74961901
v 1.70510009 0.73701559 2.74961901
v 1.78743145 0.71705640 2.63014245
v 1.92480201 0.07725428 2.63014245
v 1.85520701 0.10534496 2.74961901
v 1.73481831 0.66124466 2.74961901
v 1.80668768 0.66715850 2.63014245
v 1.75331621 0.61393402 2.74961901
v 1.92419560 0.10534496 2.63014245
v 1.85505551 0.10756264 2.74961901
v 1.82366934 0.62058712 2.63014245
v 1.75953268 0.59730141 2.74961901
v 1.76392991 0.58547373 2.74961901
v 1.92085991 0.14711136 2.63014245
v 1.84899054 0.17963741 2.74961901
v 1.83367641 0.59249641 2.63014245
v 1.77909212 0.53668467 2.74961901
v 1.91843384 0.17557165 2.63014245
v 1.84823242 0.18702969 2.74961901
v 1.83746702 0.57955995 2.63014245
v 1.78076007 0.53077084 2.74961901
v 1.85323585 0.52374821 2.63014245
v 1.90979130 0.24579835 2.63014245
v 1.83125055 0.31639465 2.74961901
v 1.86096877 0.49565750 2.63014245
v 1.81593663 0.39290479 2.74961901
v 1.90023914 0.31639465 2.63014245
v 1.89766157 0.33117921 2.63014245
v 1.82655033 0.34300686 2.74961901
v 1.87385662 0.44502039 2.63014245
v 1.81654304 0.39031747 2.74961901
v 1.88750279 0.38662134 2.63014245
v 1.88750279 0.38662134 2.63018918
f 1 2 3
f 1 3 4
f 1 4 9
f 1 9 5
f 1 5 11
f 1 11 17
f 1 17 22
f 1 22 26
f 1 26 29
f 1 29 33
f 1 33 37
f 1 37 41
f 1 41 43
f 1 43 48
f 1 48 52
f 1 52 56
f 1 56 61
f 1 61 65
f 1 65 70
f 1 70 75
f 1 75 79
f 1 79 84
f 1 84 88
f 1 88 91
f 1 91 95
f 1 95 99
f 1 99 103
f 1 103 107
f 1 107 106
f 1 106 105
f 1 105 104
f 1 104 113
f 1 113 119
f 1 119 125
f 1 125 129
f 1 129 128
f 1 128 134
f 1 134 136
f 1 136 135
f 1 135 140
f 1 140 145
f 1 145 150
f 1 150 157
f 1 157 162
f 1 162 164
f 1 164 168
f 1 168 172
f 1 172 176
f 1 176 179
f 1 179 181
f 1 181 185
f 1 185 189
f 1 189 193
f 1 193 198
f 1 198 202
f 1 202 204
f 1 204 207
f 1 207 212
f 1 212 214
f 1 214 210
f 1 210 209
f 1 209 205
f 1 205 200
f 1 200 196
f 1 196 191
f 1 191 186
f 1 186 182
f 1 182 177
f 1 177 173
f 1 173 169
f 1 169 165
f 1 165 159
f 1 159 155
f 1 155 154
f 1 154 153
f 1 153 148
f 1 148 147
f 1 147 143
f 1 143 138
f 1 138 132
f 1 132 126
f 1 126 122
f 1 122 121
f 1 121 117
f 1 117 116
f 1 116 109
f 1 109 101
f 1 101 97
f 1 97 93
f 1 93 89
f 1 89 85
f 1 85 81
f 1 81 77
f 1 77 71
f 1 71 67
f 1 67 63
f 1 63 58
f 1 58 54
f 1 54 50
f 1 50 45
f 1 45 44
f 1 44 39
f 1 39 35
f 1 35 31
f 1 31 27
f 1 27 23
f 1 23 18
f 1 18 12
f 1 12 6
f 1 6 2
f 2 6 7
f 2 7 3
f 3 7 8
f 3 8 4
f 4 8 7
f 4 7 14
f 4 14 13
f 4 13 20
f 4 20 19
f 4 19 24
f 4 24 28
f 4 28 32
f 4 32 36
f 4 36 40
f 4 40 46
f 4 46 51
f 4 51 55
f 4 55 60
f 4 60 59
f 4 59 64
f 4 64 68
f 4 68 73
f 4 73 72
f 4 72 78
f 4 78 82
f 4 82 86
f 4 86 90
f 4 90 94
f 4 94 98
f 4 98 102
f 4 102 112
f 4 112 111
f 4 111 110
f 4 110 118
f 4 118 123
f 4 123 127
f 4 127 131
f 4 131 133
f 4 133 139
f 4 139 142
f 4 142 144
f 4 144 149
f 4 149 156
f 4 156 161
f 4 161 166
f 4 166 170
f 4 170 174
f 4 174 178
f 4 178 183
f 4 183 187
f 4 187 192
f 4 192 197
f 4 197 201
f 4 201 206
f 4 206 211
f 4 211 213
f 4 213 208
f 4 208 203
f 4 203 199
f 4 199 195
f 4 195 194
f 4 194 190
f 4 190 188
f 4 188 184
f 4 184 180
f 4 180 175
f 4 175 171
f 4 171 167
f 4 167 163
f 4 163 158
f 4 158 152
f 4 152 151
f 4 151 146
f 4 146 141
f 4 141 137
f 4 137 130
f 4 130 124
f 4 124 120
f 4 120 115
f 4 115 114
f 4 114 108
f 4 108 100
f 4 100 96
f 4 96 92
f 4 92 87
f 4 87 83
f 4 83 80
f 4 80 76
f 4 76 74
f 4 74 69
f 4 69 66
f 4 66 62
f 4 62 57
f 4 57 53
f 4 53 49
f 4 49 47
f 4 47 42
f 4 42 38
f 4 38 34
f 4 34 30
f 4 30 25
f 4 25 21
f 4 21 16
f 4 16 15
f 4 15 9
f 5 9 10
f 5 10 11
f 6 12 13
f 6 13 14
f 6 14 7
f 9 15 10
f 10 15 16
f 10 16 11
f 11 16 17
f 12 18 19
f 12 19 20
f 12 20 13
f 16 21 22
f 16 22 17
f 18 23 19
f 19 23 24
f 21 25 26
f 21 26 22
f 23 27 28
f 23 28 24
f 25 29 26
f 25 30 29
f 27 31 28
f 28 31 32
f 29 30 34
f 29 34 33
f 31 35 36
f 31 36 32
f 33 34 37
f 34 38 37
f 35 39 36
f 36 39 40
f 37 38 41
f 38 42 43
f 38 43 41
f 39 44 40
f 40 45 46
f 40 44 45
f 42 47 43
f 43 47 49
f 43 49 48
f 45 50 51
f 45 51 46
f 48 49 52
f 49 53 52
f 50 54 51
f 51 54 55
f 52 53 57
f 52 57 56
f 54 58 59
f 54 59 60
f 54 60 55
f 56 57 62
f 56 62 61
f 58 63 64
f 58 64 59
f 61 62 65
f 62 66 65
f 63 67 68
f 63 68 64
f 65 66 69
f 65 69 70
f 67 71 72
f 67 72 73
f 67 73 68
f 69 74 70
f 70 74 76
f 70 76 75
f 71 77 72
f 72 77 78
f 75 76 80
f 75 80 79
f 77 81 78
f 78 81 82
f 79 80 83
f 79 83 84
f 81 85 82
f 82 85 86
f 83 87 88
f 83 88 84
f 85 89 90
f 85 90 86
f 87 91 88
f 87 92 91
f 89 93 94
f 89 94 90
f 91 92 95
f 92 96 95
f 93 97 98
f 93 98 94
f 95 96 100
f 95 100 99
f 97 101 102
f 97 102 98
f 99 100 103
f 100 104 105
f 100 105 106
f 100 106 107
f 100 107 103
f 100 108 104
f 101 109 110
f 101 110 111
f 101 111 112
f 101 112 102
f 104 108 114
f 104 114 115
f 104 115 113
f 109 116 110
f 110 116 117
f 110 117 118
f 113 115 119
f 115 120 119
f 117 121 118
f 118 121 122
f 118 122 123
f 119 120 124
f 119 124 125
f 122 126 127
f 122 127 123
f 124 128 129
f 124 129 125
f 124 130 128
f 126 131 127
f 126 132 133
f 126 133 131
f 128 130 134
f 130 135 136
f 130 136 134
f 130 137 135
f 132 138 139
f 132 139 133
f 135 137 141
f 135 141 140
f 138 142 139
f 138 143 144
f 138 144 142
f 140 141 146
f 140 146 145
f 143 147 144
f 144 147 148
f 144 148 149
f 145 146 151
f 145 151 152
f 145 152 150
f 148 153 149
f 149 153 154
f 149 154 155
f 149 155 156
f 150 152 157
f 152 158 157
f 155 159 160
f 155 160 161
f 155 161 156
f 157 158 162
f 158 163 164
f 158 164 162
f 159 165 160
f 160 165 166
f 160 166 161
f 163 167 164
f 164 167 168
f 165 169 170
f 165 170 166
f 167 171 168
f 168 171 172
f 169 173 174
f 169 174 170
f 171 175 172
f 172 175 176
f 173 177 178
f 173 178 174
f 175 179 176
f 175 180 181
f 175 181 179
f 177 182 183
f 177 183 178
f 180 184 181
f 181 184 185
f 182 186 183
f 183 186 191
f 183 191 187
f 184 188 185
f 185 188 190
f 185 190 189
f 187 191 192
f 189 190 194
f 189 194 195
f 189 195 193
f 191 196 192
f 192 196 197
f 193 195 198
f 195 199 198
f 196 200 197
f 197 200 201
f 198 199 202
f 199 203 204
f 199 204 202
f 200 205 201
f 201 205 206
f 203 207 204
f 203 208 207
f 205 209 206
f 206 209 210
f 206 210 211
f 207 208 212
f 208 213 212
f 210 214 215
f 210 215 211
f 211 215 213
f 212 213 215
f 212 215 214

