# https://github.com/mikedh/trimesh
v -0.47887475 2.15196864 0.44085041
v -0.47887475 2.13943303 0.29078718
v -0.52746600 2.14206550 0.44085041
v -0.47887475 1.26381876 0.44085041
v -0.47887475 2.13654974 0.25650145
v -0.49310398 2.13366645 0.25650145
v -0.52746600 2.12652130 0.25650145
v -0.57696551 2.11398548 0.25650145
v -0.60269925 2.12138166 0.44085041
v -1.02927302 0.87145331 0.43137672
v -0.47887475 1.26381876 0.25650145
v -1.02987849 0.87145331 0.44085041
v -1.02957571 0.87145331 0.43900980
v -0.61223584 2.10257825 0.25650145
v -0.61102485 2.11874919 0.44085041
v -1.03184640 0.87145331 0.36107293
v -1.04441040 0.87145331 0.31698870
v -1.08588715 0.87145331 0.25650145
v -2.02531822 0.87145331 0.44085041
v -0.73833093 2.07738152 0.44085041
v -0.66657932 2.10069783 0.44085041
v -0.73833093 2.06158670 0.25650145
v -2.00912108 0.87145331 0.25650145
v -2.02244205 0.87834790 0.44085041
v -2.02138240 0.87897469 0.43137672
v -2.01532749 0.87897469 0.36107293
v -2.01214875 0.87145331 0.29078718
v -0.78783044 2.04453820 0.25650145
v -0.79161481 2.04604250 0.29078718
v -0.74786753 2.07399700 0.44085041
v -2.00609363 0.87897469 0.25650145
v -2.01805216 0.88837640 0.44085041
v -1.98036005 0.93789220 0.25650145
v -0.82310072 2.03049829 0.25650145
v -0.84020606 2.03751835 0.41250153
v -0.81310999 2.05055518 0.44085041
v -0.79933490 2.04905109 0.36107293
v -0.81356412 2.04980314 0.43411958
v -1.99095614 0.94929964 0.44085041
v -1.99019928 0.94929964 0.43137672
v -1.97067190 0.98828545 0.43137672
v -1.96673629 0.98088937 0.34598721
v -1.96264918 0.97299197 0.25650145
v -0.87895793 2.00542707 0.25650145
v -0.84323352 2.03877183 0.44085041
v -1.97112597 0.98903760 0.44085041
v -1.95447497 1.01949917 0.44085041
v -1.95114452 1.01285534 0.36607143
v -1.93721818 1.01962458 0.25650145
v -1.96885538 0.98502614 0.39285039
v -0.87895793 2.00856098 0.29078718
v -0.90968697 1.99101104 0.25650145
v -0.87275162 2.02435579 0.43411958
v -0.87396256 2.02435579 0.44085041
v -1.89876900 1.08969870 0.25650145
v -1.89740656 1.12329428 0.44085041
v -1.89634691 1.12141396 0.41795115
v -0.93890229 1.98035565 0.29078718
v -0.98431475 1.96857229 0.39716317
v -0.95282884 1.97070333 0.25650145
v -0.95479664 1.98637284 0.44085041
v -1.89044329 1.11063326 0.29078718
v -1.88877827 1.10775007 0.25650145
v -1.88060406 1.15200083 0.44085041
v -1.86819124 1.16014895 0.36107293
v -0.97402123 1.96380879 0.29078718
v -1.01958498 1.93886287 0.25650145
v -1.01519519 1.95628730 0.42491657
v -0.98325510 1.97295967 0.44085041
v -0.97084238 1.96217897 0.25650145
v -1.86137947 1.16014895 0.29078718
v -1.87394358 1.13307201 0.25650145
v -1.87757661 1.15688975 0.44085041
v -1.84109523 1.21367622 0.43137672
v -1.83246694 1.20164194 0.25650145
v -1.01807125 1.95628730 0.44085041
v -1.07423130 1.91003081 0.25650145
v -1.01080529 1.95979732 0.44085041
v -1.85804923 1.16014895 0.25650145
v -1.84154930 1.21430296 0.44085041
v -1.81581573 1.24890129 0.43137672
v -1.80703594 1.23674181 0.25650145
v -1.07680468 1.91166041 0.29078718
v -1.08210272 1.91491962 0.36107293
v -1.09466683 1.91466901 0.44085041
v -1.09133659 1.89950093 0.25650145
v -1.12342807 1.89724438 0.44085041
v -1.81626980 1.24952813 0.44085041
v -1.78069679 1.29728892 0.43137672
v -1.78902229 1.26156231 0.25650145
v -1.10935024 1.88834410 0.25650145
v -1.18624850 1.83958045 0.25650145
v -1.21395009 1.83983127 0.44085041
v -1.75859603 1.32887866 0.44085041
v -1.75511450 1.33238869 0.43137672
v -1.74633471 1.32022910 0.25650145
v -1.19987225 1.83093100 0.25650145
v -1.23771586 1.81024716 0.29078718
v -1.24437635 1.82052643 0.44085041
v -1.75254112 1.33715219 0.44085041
v -1.72801838 1.37037164 0.44085041
v -1.72650465 1.37112379 0.43137672
v -1.71938998 1.37112379 0.36107293
v -1.70879389 1.37112379 0.25650145
v -1.21289044 1.82265746 0.25650145
v -1.24906903 1.81751783 0.44085041
v -1.23196363 1.81049777 0.25650145
v -1.28691264 1.77339238 0.25650145
v -1.69441327 1.41437168 0.44085041
v -1.69395909 1.41387035 0.43137672
v -1.69032616 1.40960817 0.36107293
v -1.68805547 1.40710101 0.31864885
v -1.68563348 1.40409252 0.27176763
v -1.68472522 1.40308965 0.25650145
v -1.28918323 1.77514729 0.29078718
v -1.29372451 1.77853201 0.36107293
v -1.30719688 1.77640098 0.44085041
v -1.32203158 1.74656604 0.25650145
v -1.32430217 1.74844647 0.29078718
v -1.32899485 1.75220711 0.36107293
v -1.66201900 1.44959686 0.44085041
v -1.65248245 1.44169945 0.28882026
v -1.65006046 1.44032046 0.25650145
v -1.33414150 1.75634388 0.44085041
v -1.34398094 1.72864019 0.25650145
v -1.38212734 1.69730106 0.25650145
v -1.36396240 1.73152327 0.43834215
v -1.65732642 1.45461108 0.44085041
v -1.60192334 1.49171658 0.25650145
v -1.61660665 1.47604707 0.25650145
v -1.36290274 1.73265155 0.44085041
v -1.47764472 1.61820115 0.25650145
v -1.44646159 1.66257732 0.43137672
v -1.44706706 1.66307875 0.44085041
v -1.59390042 1.52205284 0.44085041
v -1.58330422 1.51152296 0.25650145
v -1.51291495 1.58360282 0.25650145
v -1.52396532 1.59463423 0.44085041
v -1.48400241 1.62371691 0.36107293
v -1.48884638 1.62785357 0.44085041
v -1.55863019 1.55940905 0.44085041
v -1.55817601 1.55890762 0.43137672
v -1.55424029 1.55477085 0.36107293
v -1.54833667 1.54850305 0.25650145
v -1.53017173 1.56655431 0.25650145
f 1 2 3
f 1 3 9
f 1 9 15
f 1 15 21
f 1 21 20
f 1 20 30
f 1 30 36
f 1 36 45
f 1 45 54
f 1 54 61
f 1 61 69
f 1 69 78
f 1 78 76
f 1 76 85
f 1 85 87
f 1 87 93
f 1 93 99
f 1 99 106
f 1 106 117
f 1 117 124
f 1 124 131
f 1 131 134
f 1 134 140
f 1 140 138
f 1 138 141
f 1 141 135
f 1 135 128
f 1 128 121
f 1 121 109
f 1 109 101
f 1 101 100
f 1 100 94
f 1 94 88
f 1 88 80
f 1 80 73
f 1 73 64
f 1 64 56
f 1 56 47
f 1 47 46
f 1 46 39
f 1 39 32
f 1 32 24
f 1 24 19
f 1 19 12
f 1 12 4
f 1 4 11
f 1 11 5
f 1 5 2
f 2 5 6
f 2 6 3
f 3 6 7
f 3 7 8
f 3 8 9
f 4 10 11
f 4 12 13
f 4 13 10
f 5 11 18
f 5 18 23
f 5 23 31
f 5 31 33
f 5 33 43
f 5 43 49
f 5 49 55
f 5 55 63
f 5 63 72
f 5 72 79
f 5 79 75
f 5 75 82
f 5 82 90
f 5 90 96
f 5 96 104
f 5 104 114
f 5 114 123
f 5 123 130
f 5 130 129
f 5 129 136
f 5 136 144
f 5 144 145
f 5 145 137
f 5 137 132
f 5 132 126
f 5 126 125
f 5 125 118
f 5 118 108
f 5 108 107
f 5 107 105
f 5 105 97
f 5 97 92
f 5 92 91
f 5 91 86
f 5 86 77
f 5 77 67
f 5 67 70
f 5 70 60
f 5 60 52
f 5 52 44
f 5 44 34
f 5 34 28
f 5 28 22
f 5 22 14
f 5 14 8
f 5 8 7
f 5 7 6
f 8 14 15
f 8 15 9
f 10 13 12
f 10 12 19
f 10 19 27
f 10 27 23
f 10 23 18
f 10 18 17
f 10 17 16
f 10 16 11
f 11 16 17
f 11 17 18
f 14 20 21
f 14 21 15
f 14 22 20
f 19 24 25
f 19 25 26
f 19 26 27
f 20 22 28
f 20 28 29
f 20 29 30
f 23 27 26
f 23 26 31
f 24 32 25
f 25 32 33
f 25 33 26
f 26 33 31
f 28 34 35
f 28 35 29
f 29 36 37
f 29 37 30
f 29 35 38
f 29 38 36
f 30 37 36
f 32 39 40
f 32 40 33
f 33 41 42
f 33 42 43
f 33 40 41
f 34 44 35
f 35 45 38
f 35 44 45
f 36 38 45
f 39 46 40
f 40 46 41
f 41 46 47
f 41 47 48
f 41 48 49
f 41 49 50
f 41 50 42
f 42 50 49
f 42 49 43
f 44 51 45
f 44 52 51
f 45 51 53
f 45 53 54
f 47 55 49
f 47 49 48
f 47 56 57
f 47 57 55
f 51 52 58
f 51 58 59
f 51 59 53
f 52 60 58
f 53 59 61
f 53 61 54
f 55 57 62
f 55 62 63
f 56 64 57
f 57 64 65
f 57 65 62
f 58 60 59
f 59 60 66
f 59 66 67
f 59 67 68
f 59 68 69
f 59 69 61
f 60 70 66
f 62 65 71
f 62 71 72
f 62 72 63
f 64 73 65
f 65 73 74
f 65 74 75
f 65 75 71
f 66 70 67
f 67 76 68
f 67 77 76
f 68 76 78
f 68 78 69
f 71 75 79
f 71 79 72
f 73 80 74
f 74 80 88
f 74 88 81
f 74 81 75
f 75 81 82
f 76 77 83
f 76 83 84
f 76 84 85
f 77 86 87
f 77 87 83
f 81 88 89
f 81 89 90
f 81 90 82
f 83 87 85
f 83 85 84
f 86 91 87
f 87 91 92
f 87 92 93
f 88 94 89
f 89 94 95
f 89 95 96
f 89 96 90
f 92 97 98
f 92 98 93
f 93 98 99
f 94 100 95
f 95 100 101
f 95 101 102
f 95 102 103
f 95 103 104
f 95 104 96
f 97 105 98
f 98 106 99
f 98 105 107
f 98 107 108
f 98 108 106
f 101 109 110
f 101 110 111
f 101 111 112
f 101 112 102
f 102 112 113
f 102 113 103
f 103 113 104
f 104 113 114
f 106 108 115
f 106 115 116
f 106 116 117
f 108 118 119
f 108 119 120
f 108 120 115
f 109 121 110
f 110 121 111
f 111 121 112
f 112 121 122
f 112 122 113
f 113 122 123
f 113 123 114
f 115 120 124
f 115 124 117
f 115 117 116
f 118 125 119
f 119 125 120
f 120 125 126
f 120 126 127
f 120 127 124
f 121 128 122
f 122 128 129
f 122 129 130
f 122 130 123
f 124 127 131
f 126 132 133
f 126 133 134
f 126 134 127
f 127 134 131
f 128 135 136
f 128 136 129
f 132 137 138
f 132 138 139
f 132 139 134
f 132 134 133
f 134 139 140
f 135 141 142
f 135 142 136
f 136 142 143
f 136 143 144
f 137 145 138
f 138 140 139
f 138 145 144
f 138 144 143
f 138 143 142
f 138 142 141

