# https://github.com/mikedh/trimesh
v 1.02445891 -0.33451763 2.43889521
v 1.28444937 -0.45659855 2.43889521
v 1.02445891 -0.21269703 2.43889521
v 1.02445891 -0.27549451 2.22212896
v 1.31162994 -0.45659855 2.42204640
v 1.34547204 -0.45659855 2.43889521
v 1.09440563 -0.30217529 2.22212896
v 1.34547204 -0.18455204 2.43889521
v 1.02445891 -0.12419486 2.22212896
v 1.34547204 -0.45659855 2.40475168
v 1.12529404 -0.30692578 2.22212896
v 1.34547204 -0.18933505 2.22212896
v 1.19307253 -0.30982162 2.22212896
v 1.34547204 -0.31115567 2.22212896
f 1 2 6
f 1 6 8
f 1 8 3
f 1 3 9
f 1 9 4
f 1 4 2
f 2 5 10
f 2 10 6
f 2 4 7
f 2 7 5
f 3 8 9
f 4 9 12
f 4 12 14
f 4 14 13
f 4 13 11
f 4 11 7
f 5 7 10
f 6 10 14
f 6 14 12
f 6 12 8
f 7 11 10
f 8 12 9
f 10 11 13
f 10 13 14

