# https://github.com/mikedh/trimesh
v 2.06799825 1.52965993 1.75631556
v 2.07846212 1.52004564 1.75631556
v 1.40109587 1.52965993 1.75631556
v 1.70329950 1.52965993 1.88848803
v 1.70867550 1.52477133 1.88848803
v 2.14594914 1.43150704 1.75631556
v 1.74822687 1.48272903 1.88848803
v 1.75552279 1.47371225 1.88848803
v 1.76224268 1.46534725 1.88848803
v 1.78153830 1.44036090 1.88848803
v 1.82982567 0.97479989 1.75631556
v 1.83644969 0.97479989 1.80878349
v 1.84652948 0.97479989 1.88848803
v 1.40570379 1.52965993 1.78475568
v 1.42288755 1.52965993 1.88848803
v 1.88579294 1.29853622 1.88848803
v 1.90422462 1.27306100 1.88848803
v 1.93235221 1.23047547 1.88848803
v 1.95443202 1.19473419 1.88848803
v 2.18319661 1.37105087 1.75631556
v 1.80649805 1.40717246 1.88848803
v 2.38181782 0.97479989 1.75631556
v 2.07299016 0.97479989 1.88848803
v 1.41789564 1.52965993 1.85863759
v 1.96163186 1.18289280 1.88848803
v 2.28505115 1.16013345 1.76331561
v 2.28485921 1.18924808 1.75631556
v 2.33564242 1.08984580 1.75631556
v 2.05398244 1.01515831 1.88848803
v 1.98111964 1.14774892 1.88848803
v 2.30021902 1.16013345 1.75631556
v 2.01395101 1.08848787 1.88848803
v 2.04015878 1.04068790 1.88848803
f 1 2 6
f 1 6 20
f 1 20 27
f 1 27 31
f 1 31 28
f 1 28 22
f 1 22 11
f 1 11 3
f 1 3 14
f 1 14 24
f 1 24 15
f 1 15 4
f 1 4 5
f 1 5 2
f 2 5 7
f 2 7 8
f 2 8 9
f 2 9 10
f 2 10 6
f 3 11 12
f 3 12 13
f 3 13 14
f 4 15 13
f 4 13 23
f 4 23 29
f 4 29 33
f 4 33 32
f 4 32 30
f 4 30 25
f 4 25 19
f 4 19 18
f 4 18 17
f 4 17 16
f 4 16 21
f 4 21 10
f 4 10 9
f 4 9 8
f 4 8 7
f 4 7 5
f 6 16 17
f 6 17 18
f 6 18 19
f 6 19 20
f 6 10 21
f 6 21 16
f 11 22 23
f 11 23 13
f 11 13 12
f 13 15 24
f 13 24 14
f 19 25 20
f 20 26 27
f 20 25 26
f 22 28 23
f 23 28 29
f 25 30 26
f 26 28 31
f 26 31 27
f 26 30 32
f 26 32 33
f 26 33 29
f 26 29 28

