# https://github.com/mikedh/trimesh
v 1.13851191 1.32053545 1.11371999
v 1.13709353 1.32053545 1.10086755
v 1.13790403 1.32053545 1.11694274
v 1.15391237 0.78869878 1.23256290
v 1.14965700 0.78869878 1.22574347
v 1.14296991 0.78869878 1.21624276
v 1.11824841 0.78869878 1.18295799
v 1.09960593 0.78869878 1.16206152
v 1.03537016 0.78869878 1.10086755
v -0.60152435 1.32053545 1.10086755
v 1.12331429 1.32053545 1.13715594
v 1.11277708 1.32053545 1.15036931
v 1.09271621 1.32053545 1.17535226
v 1.05462052 1.32053545 1.21736433
v 1.04043603 1.32053545 1.23256290
v -0.91621817 0.78869878 1.23256290
v -0.91621817 0.78869878 1.10086755
v -0.91621817 0.94411066 1.10086755
v -0.61692470 1.32053545 1.11486728
v -0.72574027 1.32053545 1.23256290
v -0.91621817 1.05599679 1.23256290
v -0.91621817 1.02845476 1.19797609
v -0.71824271 1.32053545 1.22382271
v -0.69534486 1.32053545 1.19769252
v -0.68683413 1.32053545 1.18812732
v -0.66515208 1.32053545 1.16422723
v -0.65177810 1.32053545 1.15004704
v -0.62624594 1.32053545 1.12421330
v -0.91621817 1.05053006 1.22453180
v -0.91621817 1.05651750 1.23182814
v -0.91621817 1.05693396 1.23235660
f 1 2 10
f 1 10 19
f 1 19 28
f 1 28 27
f 1 27 26
f 1 26 25
f 1 25 24
f 1 24 23
f 1 23 20
f 1 20 15
f 1 15 14
f 1 14 13
f 1 13 12
f 1 12 11
f 1 11 3
f 1 3 4
f 1 4 2
f 2 4 5
f 2 5 6
f 2 6 7
f 2 7 8
f 2 8 9
f 2 9 17
f 2 17 18
f 2 18 10
f 3 11 4
f 4 11 12
f 4 12 13
f 4 13 14
f 4 14 15
f 4 15 20
f 4 20 21
f 4 21 16
f 4 16 17
f 4 17 9
f 4 9 8
f 4 8 7
f 4 7 6
f 4 6 5
f 10 18 19
f 16 21 31
f 16 31 30
f 16 30 29
f 16 29 22
f 16 22 18
f 16 18 17
f 18 22 20
f 18 20 23
f 18 23 24
f 18 24 25
f 18 25 26
f 18 26 27
f 18 27 28
f 18 28 19
f 20 22 29
f 20 29 30
f 20 30 31
f 20 31 21

