# https://github.com/mikedh/trimesh
v -0.90267006 -1.05582496 -1.07141037
v -0.85567389 -1.16024032 -0.95009665
v -0.90267006 -1.05582496 -1.09434971
v -0.91370158 -1.05582496 -1.05299272
v -0.85567389 -1.87565742 -0.95009665
v -0.85567389 -1.18495971 -1.20287040
v -0.90491226 -1.05582496 -1.39664157
v -0.94823129 -1.05582496 -0.99895303
v -0.99334400 -1.05582496 -0.95009665
v -0.87890292 -1.86040845 -0.97485565
v -0.85567389 -1.87132347 -0.97485565
v -0.91262537 -1.84885140 -0.95009665
v -0.93092159 -1.83592982 -0.97485565
v -0.85567389 -1.22436619 -1.51343359
v -0.90634730 -1.05582496 -1.43507598
v -1.77192014 -1.05582496 -0.95009665
v -0.92096628 -1.83127486 -1.02801318
v -0.85567389 -1.86418062 -1.01522005
v -0.95083222 -1.83079333 -0.95009665
v -0.96607898 -1.81915603 -0.97485565
v -0.85567389 -1.70173894 -1.51343359
v -1.01504840 -1.08487831 -1.51343359
v -1.05666334 -1.05582496 -1.51343359
v -1.75963305 -1.05582496 -1.01841838
v -1.76295135 -1.06393108 -0.97485565
v -1.76519365 -1.06786365 -0.95009665
v -0.89092107 -1.81714946 -1.18577622
v -0.85567389 -1.83368270 -1.18605187
v -0.85567389 -1.84893145 -1.10080139
v -0.85567389 -1.85848214 -1.04725789
v -0.97065306 -1.82132289 -0.95009665
v -0.98832150 -1.76008629 -1.23165480
v -0.94921781 -1.78881861 -1.18577622
v -0.94634783 -1.81522335 -1.04891222
v -0.85567389 -1.70502948 -1.50896700
v -0.86437358 -1.69772612 -1.51343359
v -1.56635661 -1.05582496 -1.51343359
v -1.75909474 -1.05710914 -1.01742578
v -1.74922921 -1.05582496 -1.07245808
v -1.75792885 -1.08022334 -0.95009665
v -0.87405979 -1.81161170 -1.25365676
v -0.85567389 -1.82726193 -1.22040577
v -1.00069838 -1.80430834 -0.95009665
v -0.99558619 -1.76458074 -1.18577622
v -1.01486904 -1.73769437 -1.25542130
v -0.97872502 -1.75462878 -1.27847087
v -0.95289505 -1.77292741 -1.25542130
v -1.03074369 -1.74250984 -1.18577622
v -1.11899606 -1.68360072 -1.20099553
v -1.10939948 -1.67750107 -1.25602782
v -0.85567389 -1.73039091 -1.47362071
v -0.91065223 -1.68576769 -1.49997872
v -0.86858887 -1.69571955 -1.51343359
v -1.56788134 -1.08126665 -1.51343359
v -1.61972064 -1.05582496 -1.46375005
v -1.74420671 -1.10301653 -0.95009665
v -1.73721117 -1.05582496 -1.13443845
v -1.70483397 -1.09386722 -1.18224702
v -0.85567389 -1.81787175 -1.26429926
v -0.85567389 -1.82397150 -1.23650736
v -1.01738018 -1.79467739 -0.95009665
v -1.01953270 -1.78889887 -0.97485565
v -1.06249299 -1.76265443 -0.97485565
v -1.05639429 -1.75880222 -1.01571635
v -1.06338983 -1.69291065 -1.30510484
v -1.02303047 -1.70960419 -1.32765811
v -0.96294005 -1.74620165 -1.32633475
v -0.92778256 -1.76458074 -1.32633475
v -0.85567389 -1.80791978 -1.29865306
v -1.08383856 -1.73649056 -1.04157827
v -1.12608128 -1.68809517 -1.15412435
v -1.18814495 -1.68271792 -0.97485565
v -1.17765153 -1.67581573 -1.04516247
v -1.15379471 -1.66465985 -1.18081333
v -1.20052183 -1.62116019 -1.23766539
v -1.16572318 -1.63978005 -1.25906073
v -1.19289840 -1.61530141 -1.28453657
v -0.85567389 -1.75254206 -1.44257526
v -0.94921781 -1.69965222 -1.44979899
v -0.98724529 -1.68921873 -1.43452446
v -0.94921781 -1.67421054 -1.48492484
v -0.92383626 -1.66746896 -1.51343359
v -0.90123512 -1.68014957 -1.51343359
v -1.58743323 -1.09755902 -1.47433755
v -1.62815123 -1.07059240 -1.44698673
v -1.63433972 -1.05582496 -1.44864106
v -1.55604267 -1.09779979 -1.51343359
v -1.72142610 -1.13704575 -0.95009665
v -1.68384714 -1.11995094 -1.20331149
v -1.68860059 -1.12661226 -1.15644031
v -1.72752491 -1.05582496 -1.18428732
v -1.71936337 -1.05582496 -1.22591996
v -1.70115684 -1.07604991 -1.25602782
v -1.04634929 -1.77702059 -0.95009665
v -1.06608045 -1.76498201 -0.95009665
v -1.13720259 -1.71987717 -0.95009665
v -1.15307724 -1.70518999 -0.97485565
v -1.08805391 -1.66835176 -1.32765811
v -1.04877075 -1.68368097 -1.35197602
v -1.14617128 -1.63127266 -1.32633475
v -0.99971186 -1.69708398 -1.39664157
v -0.94249132 -1.73199610 -1.39002446
v -0.91459852 -1.75799967 -1.36217744
v -0.87890292 -1.78801607 -1.32633475
v -0.85567389 -1.79828905 -1.32809930
v -1.14249414 -1.69852866 -1.04516247
v -1.19182220 -1.68512555 -0.95009665
v -1.20760716 -1.62669795 -1.18577622
v -1.16706843 -1.66883328 -1.11546929
v -1.27523143 -1.55478709 -1.25602782
v -1.22653117 -1.59427393 -1.25906073
v -1.24276466 -1.59812624 -1.18577622
v -1.32025446 -1.53392012 -1.18577622
v -1.31038893 -1.52565360 -1.25602782
v -1.26841515 -1.54908882 -1.29644743
v -1.23182272 -1.56802959 -1.32247468
v -1.20697938 -1.55639229 -1.39664157
v -1.18132878 -1.60679413 -1.32633475
v -0.85567389 -1.75872196 -1.43226372
v -1.07074421 -1.62709933 -1.44582881
v -1.09244862 -1.59636064 -1.46832685
v -1.04303078 -1.60968339 -1.49269988
v -0.99235747 -1.62549414 -1.51343359
v -0.89621262 -1.74885025 -1.40904862
v -1.11765070 -1.61225164 -1.42051829
v -0.94733435 -1.65334356 -1.51343359
v -1.54635640 -1.12444539 -1.50163305
v -1.53344142 -1.16016006 -1.48547636
v -1.54797081 -1.19691803 -1.43347676
v -1.61146942 -1.11746295 -1.41913972
v -1.64851028 -1.05582496 -1.42559140
v -1.54258958 -1.11641954 -1.51343359
v -1.69972179 -1.14194148 -1.04516247
v -1.70662775 -1.15149217 -0.97485565
v -1.70779364 -1.15654840 -0.95009665
v -1.67774843 -1.11120279 -1.25602782
v -1.63927254 -1.16481502 -1.25613815
v -1.61998969 -1.19924552 -1.23281283
v -1.62492251 -1.20614771 -1.18577622
v -1.63200784 -1.21577865 -1.11546929
v -1.61703002 -1.26553836 -1.00965064
v -1.71317498 -1.05582496 -1.25486990
v -1.70169494 -1.05582496 -1.29832230
v -1.69389214 -1.06473362 -1.30819275
v -1.17863816 -1.69355268 -0.95009665
v -1.13218009 -1.62188258 -1.37364701
v -0.87522573 -1.76618583 -1.39002446
v -0.85567389 -1.78199657 -1.37221333
v -1.20805558 -1.67276596 -0.95009665
v -1.23262998 -1.65398559 -0.95009665
v -1.26527612 -1.61682635 -1.00849272
v -1.26061235 -1.61297393 -1.04516247
v -1.33442512 -1.54563778 -1.07466382
v -1.36177981 -1.49876723 -1.18577622
v -1.35218323 -1.49050071 -1.25602782
v -1.25612806 -1.53889610 -1.34331861
v -1.34321444 -1.48279598 -1.30576647
v -1.29980583 -1.51088617 -1.32451498
v -1.19693438 -1.54812567 -1.43364229
v -1.28455896 -1.49210580 -1.39664157
v -1.15747196 -1.59379229 -1.39691722
v -0.85567389 -1.76177163 -1.42459880
v -1.15397408 -1.55944206 -1.46104822
v -1.12644012 -1.54788490 -1.50350803
v -1.08078921 -1.56931376 -1.51343359
v -0.99791808 -1.62196284 -1.51343359
v -1.52850860 -1.13576168 -1.51343359
v -1.51227522 -1.15791283 -1.51343359
v -1.48465147 -1.19547346 -1.51343359
v -1.48249895 -1.20285707 -1.50940809
v -1.50599704 -1.22332277 -1.46005562
v -1.48267832 -1.27236030 -1.43970789
v -1.52886734 -1.24290568 -1.39664157
v -1.54007823 -1.25711133 -1.34657205
v -1.55586319 -1.20775279 -1.39664157
v -1.62151442 -1.13110672 -1.37226854
v -1.63891380 -1.09234228 -1.39609016
v -1.66294999 -1.05582496 -1.39647613
v -1.69505803 -1.17420510 -0.95009665
v -1.68115652 -1.18664505 -0.97485565
v -1.61416004 -1.19130002 -1.27968401
v -1.59487730 -1.22581087 -1.25613815
v -1.59936170 -1.24130059 -1.18577622
v -1.61694034 -1.28118859 -0.95009665
v -1.62285968 -1.27348386 -0.95009665
v -1.65263594 -1.23255245 -0.95009665
v -1.68357809 -1.19001595 -0.95009665
v -1.56420420 -1.28688697 -1.18577622
v -1.69721054 -1.05582496 -1.31287988
v -1.68250188 -1.05582496 -1.35136940
v -1.66886932 -1.08889124 -1.32947787
v -1.63102132 -1.14418871 -1.32633475
v -0.85567389 -1.77453270 -1.39195444
v -1.26132993 -1.63151342 -0.95009665
v -1.27110577 -1.62156146 -0.96162143
v -1.33514259 -1.57091885 -0.95009665
v -1.34698136 -1.55599101 -0.97485565
v -1.34034445 -1.55053340 -1.02779264
v -1.30698074 -1.57380822 -1.04880189
v -1.38213876 -1.52621538 -0.97485565
v -1.38518821 -1.52886388 -0.95009665
v -1.40832756 -1.47862254 -1.09021399
v -1.40285654 -1.47324529 -1.13708528
v -1.39693720 -1.46754702 -1.18577622
v -1.38734062 -1.45831735 -1.25602782
v -1.41352943 -1.41409540 -1.30725537
v -1.37299070 -1.44338940 -1.32997417
v -1.35765415 -1.42741815 -1.39664157
v -1.33119640 -1.47252300 -1.35263775
v -1.31962667 -1.46265129 -1.39664157
v -1.27200271 -1.48175257 -1.43882572
v -1.24850463 -1.46241053 -1.48569679
v -1.17334661 -1.52862312 -1.48051337
v -1.20168783 -1.48175257 -1.50819505
v -1.13621597 -1.53127162 -1.51343359
v -1.10204510 -1.55566989 -1.51343359
v -1.47550341 -1.20678974 -1.51343359
v -1.44913524 -1.23736792 -1.51343359
v -1.46231927 -1.24972762 -1.48657917
v -1.49370984 -1.28447923 -1.39664157
v -1.43810372 -1.29740071 -1.46391559
v -1.41388816 -1.34419090 -1.44130711
v -1.39281165 -1.39210476 -1.39664157
v -1.46106370 -1.31963201 -1.39664157
v -1.55030259 -1.26987231 -1.29970087
v -1.56770197 -1.23239194 -1.32440477
v -1.67873496 -1.05582496 -1.36046800
v -1.55640140 -1.27733628 -1.25602782
v -1.59846475 -1.30454356 -0.95009665
v -1.53406920 -1.32203975 -1.18577622
v -1.54608735 -1.33520210 -1.07736585
v -1.55128922 -1.34082011 -1.03043946
v -1.57236574 -1.33584413 -0.95009665
v -1.27245113 -1.62276538 -0.95009665
v -1.27953646 -1.61690660 -0.95009665
v -1.35003072 -1.55855926 -0.95009665
v -1.36240760 -1.54812567 -0.95009665
v -1.41047997 -1.50607069 -0.95009665
v -1.43074934 -1.43239413 -1.18577622
v -1.41335006 -1.48351827 -1.04516247
v -1.45891119 -1.45783582 -0.95009665
v -1.45622057 -1.45502681 -0.97485565
v -1.44850745 -1.44676030 -1.04516247
v -1.42204970 -1.42316446 -1.25602782
v -1.40276686 -1.40269875 -1.35412655
v -1.48240927 -1.34226469 -1.30416736
v -1.34491853 -1.41505845 -1.44285101
v -1.29774300 -1.43873444 -1.46424645
v -1.27711490 -1.41457693 -1.51343359
v -1.23621743 -1.44868640 -1.51343359
v -1.20680001 -1.47300453 -1.51343359
v -1.18931095 -1.48745094 -1.51343359
v -1.41666846 -1.27300233 -1.51343359
v -1.41326027 -1.27669424 -1.51343359
v -1.39343943 -1.32236087 -1.48817818
v -1.47164680 -1.33086815 -1.35103864
v -1.51128859 -1.30037023 -1.32534215
v -1.36913409 -1.36915106 -1.46551460
v -1.52536957 -1.31248916 -1.25602782
v -1.49021207 -1.35053131 -1.25602782
v -1.49891171 -1.35984113 -1.18577622
v -1.55738792 -1.34724067 -0.97485565
v -1.52232021 -1.36698409 -1.05040101
v -1.48922555 -1.41987393 -0.97485565
v -1.55998886 -1.35012993 -0.95009665
v -1.42375380 -1.49371099 -0.95009665
v -1.42106307 -1.49106250 -0.97485565
v -1.46590683 -1.39499402 -1.18577622
v -1.43613057 -1.48119079 -0.95009665
v -1.48034644 -1.43504263 -0.95009665
v -1.52707366 -1.38528282 -0.95009665
v -1.32330391 -1.39419148 -1.48972229
v -1.31209292 -1.38263432 -1.51343359
v -1.38133160 -1.31072346 -1.51343359
v -1.34734010 -1.34691965 -1.51343359
v -1.54841923 -1.36248963 -0.95009665
v -1.34617421 -1.34812357 -1.51343359
f 1 2 3
f 1 3 7
f 1 7 15
f 1 15 23
f 1 23 37
f 1 37 55
f 1 55 86
f 1 86 131
f 1 131 178
f 1 178 227
f 1 227 190
f 1 190 189
f 1 189 143
f 1 143 142
f 1 142 92
f 1 92 91
f 1 91 57
f 1 57 39
f 1 39 24
f 1 24 16
f 1 16 9
f 1 9 8
f 1 8 4
f 1 4 2
f 2 5 11
f 2 11 18
f 2 18 30
f 2 30 29
f 2 29 28
f 2 28 42
f 2 42 60
f 2 60 59
f 2 59 69
f 2 69 105
f 2 105 148
f 2 148 193
f 2 193 162
f 2 162 119
f 2 119 78
f 2 78 51
f 2 51 35
f 2 35 21
f 2 21 14
f 2 14 6
f 2 6 7
f 2 7 3
f 2 4 8
f 2 8 9
f 2 9 16
f 2 16 26
f 2 26 40
f 2 40 56
f 2 56 88
f 2 88 135
f 2 135 179
f 2 179 187
f 2 187 186
f 2 186 185
f 2 185 184
f 2 184 229
f 2 229 233
f 2 233 265
f 2 265 276
f 2 276 271
f 2 271 270
f 2 270 241
f 2 241 269
f 2 269 266
f 2 266 238
f 2 238 201
f 2 201 237
f 2 237 236
f 2 236 196
f 2 196 235
f 2 235 234
f 2 234 194
f 2 194 150
f 2 150 149
f 2 149 107
f 2 107 145
f 2 145 96
f 2 96 95
f 2 95 94
f 2 94 61
f 2 61 43
f 2 43 31
f 2 31 19
f 2 19 12
f 2 12 5
f 5 10 11
f 5 12 13
f 5 13 10
f 6 14 15
f 6 15 7
f 10 13 17
f 10 17 11
f 11 17 18
f 12 19 13
f 13 19 20
f 13 20 17
f 14 21 36
f 14 36 53
f 14 53 83
f 14 83 82
f 14 82 126
f 14 126 123
f 14 123 166
f 14 166 165
f 14 165 216
f 14 216 215
f 14 215 252
f 14 252 251
f 14 251 250
f 14 250 249
f 14 249 273
f 14 273 277
f 14 277 275
f 14 275 274
f 14 274 254
f 14 254 253
f 14 253 218
f 14 218 217
f 14 217 169
f 14 169 168
f 14 168 167
f 14 167 132
f 14 132 87
f 14 87 54
f 14 54 37
f 14 37 23
f 14 23 22
f 14 22 15
f 15 22 23
f 16 24 25
f 16 25 26
f 17 20 27
f 17 27 28
f 17 28 29
f 17 29 30
f 17 30 18
f 19 31 20
f 20 31 32
f 20 32 33
f 20 33 34
f 20 34 27
f 21 35 36
f 24 38 25
f 24 39 38
f 25 38 40
f 25 40 26
f 27 41 42
f 27 42 28
f 27 34 33
f 27 33 41
f 31 43 44
f 31 44 32
f 32 45 46
f 32 46 47
f 32 47 33
f 32 44 48
f 32 48 49
f 32 49 50
f 32 50 45
f 33 47 41
f 35 51 52
f 35 52 36
f 36 52 53
f 37 54 55
f 38 39 56
f 38 56 40
f 39 57 58
f 39 58 56
f 41 59 60
f 41 60 42
f 41 47 59
f 43 61 44
f 44 61 62
f 44 62 63
f 44 63 64
f 44 64 48
f 45 50 46
f 46 65 66
f 46 66 67
f 46 67 68
f 46 68 69
f 46 69 59
f 46 59 47
f 46 50 65
f 48 64 70
f 48 70 49
f 49 71 72
f 49 72 73
f 49 73 74
f 49 74 75
f 49 75 76
f 49 76 50
f 49 70 71
f 50 76 77
f 50 77 65
f 51 78 52
f 52 79 80
f 52 80 81
f 52 81 82
f 52 82 83
f 52 83 53
f 52 78 79
f 54 84 85
f 54 85 86
f 54 86 55
f 54 87 84
f 56 58 89
f 56 89 90
f 56 90 88
f 57 91 58
f 58 92 93
f 58 93 89
f 58 91 92
f 61 94 62
f 62 94 95
f 62 95 63
f 63 95 96
f 63 96 97
f 63 97 64
f 64 97 70
f 65 98 99
f 65 99 66
f 65 77 100
f 65 100 98
f 66 99 101
f 66 101 67
f 67 101 80
f 67 80 102
f 67 102 103
f 67 103 68
f 68 103 104
f 68 104 69
f 69 104 105
f 70 97 106
f 70 106 71
f 71 106 107
f 71 107 72
f 72 107 108
f 72 108 75
f 72 75 73
f 73 109 74
f 73 75 109
f 74 109 75
f 75 110 111
f 75 111 77
f 75 77 76
f 75 108 112
f 75 112 113
f 75 113 114
f 75 114 110
f 77 111 110
f 77 110 114
f 77 114 115
f 77 115 116
f 77 116 117
f 77 117 118
f 77 118 100
f 78 119 80
f 78 80 79
f 80 120 121
f 80 121 122
f 80 122 123
f 80 123 81
f 80 119 124
f 80 124 102
f 80 101 125
f 80 125 120
f 81 123 126
f 81 126 82
f 84 87 127
f 84 127 128
f 84 128 129
f 84 129 85
f 85 130 131
f 85 131 86
f 85 129 130
f 87 132 127
f 88 90 133
f 88 133 134
f 88 134 135
f 89 93 136
f 89 136 137
f 89 137 138
f 89 138 139
f 89 139 90
f 90 139 140
f 90 140 141
f 90 141 133
f 92 142 93
f 93 142 143
f 93 143 144
f 93 144 136
f 96 145 97
f 97 145 107
f 97 107 106
f 98 100 146
f 98 146 99
f 99 146 101
f 100 118 146
f 101 146 125
f 102 124 103
f 103 124 147
f 103 147 148
f 103 148 105
f 103 105 104
f 107 149 108
f 108 149 150
f 108 150 151
f 108 151 152
f 108 152 112
f 112 152 153
f 112 153 113
f 113 153 154
f 113 154 155
f 113 155 114
f 114 155 115
f 115 156 117
f 115 117 116
f 115 155 157
f 115 157 158
f 115 158 156
f 117 159 118
f 117 156 160
f 117 160 159
f 118 161 146
f 118 159 161
f 119 162 124
f 120 125 163
f 120 163 121
f 121 163 164
f 121 164 122
f 122 165 166
f 122 166 123
f 122 164 165
f 124 162 147
f 125 146 161
f 125 161 159
f 125 159 163
f 127 132 167
f 127 167 128
f 128 167 168
f 128 168 169
f 128 169 170
f 128 170 129
f 129 170 171
f 129 171 172
f 129 172 173
f 129 173 174
f 129 174 175
f 129 175 130
f 130 176 177
f 130 177 178
f 130 178 131
f 130 175 176
f 133 179 134
f 133 141 180
f 133 180 179
f 134 179 135
f 136 181 137
f 136 144 181
f 137 181 182
f 137 182 138
f 138 182 183
f 138 183 139
f 139 141 140
f 139 183 141
f 141 184 185
f 141 185 186
f 141 186 187
f 141 187 180
f 141 183 188
f 141 188 184
f 143 189 144
f 144 189 190
f 144 190 191
f 144 191 192
f 144 192 181
f 147 162 193
f 147 193 148
f 150 194 151
f 151 194 195
f 151 195 196
f 151 196 197
f 151 197 198
f 151 198 199
f 151 199 152
f 152 199 153
f 153 199 198
f 153 198 200
f 153 200 154
f 154 200 201
f 154 201 202
f 154 202 203
f 154 203 204
f 154 204 155
f 155 204 205
f 155 205 157
f 156 158 160
f 157 205 206
f 157 206 207
f 157 207 208
f 157 208 209
f 157 209 158
f 158 209 160
f 159 160 210
f 159 210 211
f 159 211 212
f 159 212 213
f 159 213 164
f 159 164 163
f 160 209 210
f 164 213 212
f 164 212 214
f 164 214 215
f 164 215 216
f 164 216 165
f 169 217 170
f 170 172 171
f 170 217 218
f 170 218 219
f 170 219 172
f 172 220 173
f 172 219 221
f 172 221 222
f 172 222 223
f 172 223 224
f 172 224 220
f 173 220 174
f 174 220 225
f 174 225 175
f 175 225 226
f 175 226 192
f 175 192 176
f 176 192 191
f 176 191 177
f 177 191 227
f 177 227 178
f 179 180 187
f 181 192 225
f 181 225 182
f 182 225 228
f 182 228 183
f 183 228 188
f 184 188 229
f 188 228 230
f 188 230 231
f 188 231 232
f 188 232 233
f 188 233 229
f 190 227 191
f 192 226 225
f 194 234 195
f 195 234 235
f 195 235 196
f 196 236 197
f 197 236 237
f 197 237 198
f 198 237 201
f 198 201 200
f 201 238 202
f 202 239 203
f 202 238 240
f 202 240 241
f 202 241 242
f 202 242 243
f 202 243 239
f 203 239 204
f 204 239 244
f 204 244 205
f 205 244 206
f 206 245 208
f 206 208 207
f 206 244 246
f 206 246 256
f 206 256 245
f 208 245 223
f 208 223 247
f 208 247 210
f 208 210 209
f 210 247 211
f 211 247 248
f 211 248 212
f 212 248 249
f 212 249 250
f 212 250 214
f 214 250 251
f 214 251 252
f 214 252 215
f 218 253 219
f 219 253 254
f 219 254 255
f 219 255 221
f 220 224 256
f 220 256 246
f 220 246 257
f 220 257 225
f 221 255 222
f 222 255 258
f 222 258 247
f 222 247 223
f 223 245 224
f 224 245 256
f 225 257 246
f 225 246 259
f 225 259 228
f 228 259 230
f 230 259 260
f 230 260 261
f 230 261 231
f 231 261 232
f 232 262 233
f 232 261 263
f 232 263 242
f 232 242 264
f 232 264 262
f 233 262 265
f 238 266 267
f 238 267 240
f 239 243 268
f 239 268 244
f 240 267 269
f 240 269 241
f 241 270 242
f 242 270 271
f 242 271 264
f 242 263 243
f 243 263 268
f 244 268 261
f 244 261 260
f 244 260 246
f 246 260 259
f 247 272 248
f 247 258 272
f 248 272 249
f 249 272 273
f 254 274 255
f 255 274 275
f 255 275 258
f 258 275 272
f 261 268 263
f 262 264 271
f 262 271 276
f 262 276 265
f 266 269 267
f 272 275 277
f 272 277 273

