# https://github.com/mikedh/trimesh
v 1.05146985 1.01540064 0.64236191
v 1.05146985 1.01540064 0.62100900
v 1.04976314 1.01540064 0.67697182
v 1.06668791 0.99900581 0.64236191
v 0.00839088 1.01540064 0.62100900
v 1.06668791 0.99900581 0.62100900
v 1.37076516 0.50350666 0.62097527
v 1.04791415 1.01540064 0.71266121
v 1.19312596 0.84108216 0.71266121
v 1.10181754 0.95624101 0.64236191
v 1.09115062 0.96927784 0.62100900
v 1.06483902 0.99703056 0.71266121
v 0.00839088 0.00652601 0.62100900
v 0.00839088 1.01540064 0.96555657
v 1.37076516 0.50350666 0.64236191
v 1.41172601 0.37017522 0.62097527
v 1.37076516 0.00642727 0.62097527
v 1.18573041 0.85392144 0.62100900
v 1.19469050 0.84285991 0.62100900
v 1.21559761 0.80769990 0.62100900
v 1.33051549 0.60286326 0.62100900
v 1.34388466 0.57846855 0.62100900
v 1.36336950 0.52720999 0.62100900
v 1.06014550 0.99140102 0.75378160
v 1.01463351 1.01540064 0.77739462
v 1.01463351 1.01530195 0.77776567
v 1.19469050 0.84305740 0.64236191
v 1.12443135 0.91377240 0.74730488
v 1.20791749 0.79377414 0.76440745
v 1.21602423 0.80592215 0.71266121
v 0.00839088 0.00652601 0.96555657
v 0.87610628 1.01540064 0.96555657
v 1.41058820 0.36543453 0.71266121
v 1.41172601 0.37017522 0.64236191
v 1.36336950 0.52720999 0.64236191
v 1.36052497 0.52720999 0.71266121
v 1.42751297 0.31644758 0.62097527
v 1.37076516 0.00642727 0.86671927
v 1.46107816 0.00642727 0.62097527
v 1.21716204 0.80779864 0.64236191
v 1.25115386 0.74755259 0.71266121
v 1.32468427 0.61362856 0.64236191
v 1.34388466 0.57846855 0.64236191
v 1.01434906 1.01540064 0.77786687
v 1.18914373 0.76256472 0.81122865
v 1.26793646 0.70765191 0.75128536
v 1.29823039 0.00652601 0.96555657
v 1.07522138 0.72849113 0.96555657
v 1.12116010 0.76789797 0.88459771
v 1.40831268 0.35763217 0.75054324
v 1.42481072 0.31644758 0.71266121
v 1.42751297 0.31644758 0.64236191
v 1.34260467 0.57599947 0.71266121
v 1.33947569 0.56987609 0.75327559
v 1.44116669 0.24612759 0.62097527
v 1.40745922 0.00642727 0.81989801
v 1.46107816 0.03526635 0.62097527
v 1.46107816 0.00642727 0.64236191
v 1.27035425 0.71229383 0.71266121
v 1.09228843 0.70123224 0.96555657
v 1.10594204 0.67920786 0.96555657
v 1.22384663 0.48661799 0.96555657
v 1.29823039 0.03516761 0.96555657
v 1.41414380 0.31644758 0.75938126
v 1.23522473 0.46024798 0.96555657
v 1.24745608 0.42024856 0.96555657
v 1.43803761 0.24612759 0.71266121
v 1.44116669 0.24612759 0.64236191
v 1.45510466 0.10558637 0.62097527
v 1.41542389 0.00642727 0.80748430
v 1.40745922 0.01413085 0.81989801
v 1.46107816 0.03526635 0.64236191
v 1.45937144 0.05659940 0.62097527
v 1.45866026 0.00642727 0.71266121
v 1.29567032 0.06074749 0.96555657
v 1.40305026 0.10558637 0.81389360
v 1.39963683 0.17580759 0.80920469
v 1.39579677 0.24612759 0.80441463
v 1.42054404 0.24612759 0.76929872
v 1.27433659 0.24593004 0.96555657
v 1.33293329 0.26202859 0.88469887
v 1.45197568 0.10558637 0.71266121
v 1.45510466 0.10558637 0.64236191
v 1.42694406 0.00642727 0.78923487
v 1.42694406 0.03664906 0.78923487
v 1.45866026 0.03526635 0.71266121
v 1.28386559 0.17580759 0.96555657
v 1.31245291 0.17580759 0.92706736
v 1.37076516 0.18489389 0.84695180
v 1.37076516 0.24336219 0.83818124
v 1.33634672 0.21521443 0.88915162
v 1.42751297 0.10558637 0.77877765
v 1.28258560 0.18617780 0.96555657
f 1 2 5
f 1 5 14
f 1 14 32
f 1 32 44
f 1 44 25
f 1 25 8
f 1 8 3
f 1 3 4
f 1 4 6
f 1 6 2
f 2 6 7
f 2 7 5
f 3 8 4
f 4 9 10
f 4 10 11
f 4 11 6
f 4 8 12
f 4 12 9
f 5 13 31
f 5 31 14
f 5 7 17
f 5 17 13
f 6 11 7
f 7 15 34
f 7 34 16
f 7 16 37
f 7 37 55
f 7 55 69
f 7 69 73
f 7 73 57
f 7 57 39
f 7 39 17
f 7 11 18
f 7 18 19
f 7 19 20
f 7 20 21
f 7 21 22
f 7 22 23
f 7 23 35
f 7 35 15
f 8 24 12
f 8 25 26
f 8 26 24
f 9 27 10
f 9 12 24
f 9 24 28
f 9 28 29
f 9 29 30
f 9 30 27
f 10 27 11
f 11 27 18
f 13 17 38
f 13 38 31
f 14 31 47
f 14 47 63
f 14 63 75
f 14 75 87
f 14 87 93
f 14 93 80
f 14 80 66
f 14 66 65
f 14 65 62
f 14 62 61
f 14 61 60
f 14 60 48
f 14 48 32
f 15 33 34
f 15 35 36
f 15 36 33
f 16 34 52
f 16 52 37
f 17 39 58
f 17 58 74
f 17 74 84
f 17 84 70
f 17 70 56
f 17 56 38
f 18 27 19
f 19 27 40
f 19 40 20
f 20 40 21
f 21 40 41
f 21 41 42
f 21 42 22
f 22 42 43
f 22 43 35
f 22 35 23
f 24 26 32
f 24 32 29
f 24 29 28
f 25 44 26
f 26 44 32
f 27 30 40
f 29 32 45
f 29 45 46
f 29 46 30
f 30 46 41
f 30 41 40
f 31 38 47
f 32 48 49
f 32 49 45
f 33 50 51
f 33 51 52
f 33 52 34
f 33 36 50
f 35 43 53
f 35 53 36
f 36 53 54
f 36 54 50
f 37 52 68
f 37 68 55
f 38 56 47
f 39 57 72
f 39 72 58
f 41 46 59
f 41 59 43
f 41 43 42
f 43 59 53
f 45 49 48
f 45 48 60
f 45 60 61
f 45 61 62
f 45 62 46
f 46 62 54
f 46 54 53
f 46 53 59
f 47 56 71
f 47 71 63
f 50 64 51
f 50 54 65
f 50 65 66
f 50 66 64
f 51 64 67
f 51 67 68
f 51 68 52
f 54 62 65
f 55 68 83
f 55 83 69
f 56 70 71
f 57 73 72
f 58 72 86
f 58 86 74
f 63 71 76
f 63 76 77
f 63 77 75
f 64 78 79
f 64 79 67
f 64 66 78
f 66 80 81
f 66 81 78
f 67 79 82
f 67 82 83
f 67 83 68
f 69 83 73
f 70 84 85
f 70 85 71
f 71 85 76
f 72 73 83
f 72 83 86
f 74 86 85
f 74 85 84
f 75 77 88
f 75 88 87
f 76 85 77
f 77 85 79
f 77 79 78
f 77 78 89
f 77 89 88
f 78 90 91
f 78 91 88
f 78 88 89
f 78 81 90
f 79 85 92
f 79 92 86
f 79 86 82
f 80 93 91
f 80 91 90
f 80 90 81
f 82 86 83
f 85 86 92
f 87 88 91
f 87 91 93

