# https://github.com/mikedh/trimesh
v 0.03484672 2.21316124 0.52917574
v 0.10536643 2.20874893 0.52917574
v 0.09586637 2.20213077 0.44085041
v 0.03484672 2.20594128 0.44085041
v -0.03494222 2.21316124 0.52917574
v 0.17552076 2.20433682 0.52917574
v 0.16602070 2.19771867 0.44085041
v -0.03494222 2.20594128 0.44085041
v -0.13286596 2.20704431 0.52917574
v 0.17552076 2.19711686 0.44085041
v 0.24604047 2.19962382 0.52917574
v -0.10546193 2.20152897 0.44085041
v -0.17561626 2.19711686 0.44085041
v -0.17561626 2.20433682 0.52917574
v 0.24604047 2.19240386 0.44085041
v 0.31948329 2.18979674 0.52917574
v 0.30852168 2.18468246 0.44085041
v 0.29792545 2.18608639 0.44085041
v -0.18511632 2.19651527 0.44085041
v -0.24577058 2.19962382 0.52917574
v 0.35054118 2.18398050 0.52917574
v 0.32240637 2.18668799 0.49698434
v 0.37027208 2.18027036 0.52917574
v 0.45686881 2.15640421 0.44085041
v -0.24577058 2.19240386 0.44085041
v -0.30825179 2.18468246 0.44085041
v -0.27354001 2.19601384 0.52917574
v 0.45686881 2.16372455 0.52917574
v 0.52702314 2.14948516 0.52917574
v 0.52702314 2.14717894 0.50169675
v 0.52702314 2.14206466 0.44085041
v -0.33857891 2.17896680 0.44085041
v -0.32213648 2.18668799 0.49699299
v -0.31957879 2.18979674 0.52917574
v 0.57013886 2.13795325 0.52917574
v 0.59754285 2.12822634 0.50169675
v 0.60265828 2.12140765 0.44085041
v -0.34332895 2.17806410 0.44085041
v -0.45696431 2.16372455 0.52917574
v -0.39411774 2.17565751 0.52917574
v 0.59754285 2.13053276 0.52917574
v 0.62604306 2.12130728 0.52917574
v 0.64431240 2.11308445 0.50169675
v 0.62458150 2.11428785 0.44085041
v -0.45696431 2.15640421 0.44085041
v -0.52711863 2.14948516 0.52917574
v 0.73821689 2.08490657 0.52917574
v 0.73821689 2.07728555 0.44085041
v -0.52711863 2.14206466 0.44085041
v -0.52711863 2.14717894 0.50169675
v -0.55452268 2.14216503 0.52917574
v 0.80837121 2.06003798 0.52917574
v 0.80837121 2.05763119 0.50169675
v 0.81275587 2.05061176 0.44085041
v -0.60238839 2.12140765 0.44085041
v -0.59763835 2.12822634 0.50169675
v -0.59763835 2.13053276 0.52917574
v 0.83321754 2.05021070 0.52917574
v 0.84490995 2.03958129 0.45939744
v 0.82152518 2.04710215 0.44085041
v -0.63636942 2.11047734 0.44085041
v -0.64440790 2.11308445 0.50169675
v -0.70250447 2.09653885 0.52917574
v 0.84892922 2.04148665 0.50169675
v 0.85148694 2.04268983 0.52917574
v 0.86537163 2.03627221 0.52917574
v 0.87377555 2.02443940 0.44085041
v 0.86500624 2.02845065 0.44085041
v -0.73794700 2.07728555 0.44085041
v -0.73794700 2.08490657 0.52917574
v 0.92639131 2.00759289 0.52917574
v 0.97644930 1.98402786 0.52917574
v 0.99398792 1.97329808 0.50169675
v 0.98850704 1.97069097 0.44402373
v 0.94100672 1.99275191 0.44085041
v -0.74744709 2.07397647 0.44085041
v -0.76571643 2.07517966 0.52917574
v 1.01043032 1.96798348 0.52917574
v 0.99289170 1.96828417 0.44085041
v 1.01773808 1.95635121 0.44085041
v -0.81285137 2.05061176 0.44085041
v -0.80846671 2.05763119 0.50169675
v -0.80846671 2.06003798 0.52917574
v 1.03162272 1.95775513 0.52917574
v 1.02906505 1.95645158 0.50169675
v 1.09154623 1.91634052 0.44085041
v -0.84281313 2.03877916 0.44085041
v -0.84500545 2.03958129 0.45938879
v -0.84902472 2.04148665 0.50169675
v -0.85158244 2.04268983 0.52917574
v 1.06852684 1.93749918 0.52917574
v 1.08971934 1.92325979 0.50169675
v 1.09446934 1.91463590 0.44085041
v -0.86510174 2.02845065 0.44085041
v -0.98860260 1.97069097 0.44404967
v -0.94914080 1.99445653 0.50169675
v -0.87314027 2.03266223 0.52917574
v 1.08971934 1.92576674 0.52917574
v 1.12991191 1.90149954 0.52917574
v 1.09812321 1.91242985 0.44085041
v -0.99298725 1.96828417 0.44085041
v -1.01783353 1.95635121 0.44085041
v -1.01819897 1.96427313 0.52917574
v -0.99408336 1.97329808 0.50169675
v -0.99664113 1.97450148 0.52917574
v 1.12479648 1.89849136 0.46532038
v 1.22052791 1.84404075 0.52917574
v 1.15366208 1.87793450 0.44085041
v -1.09456489 1.91463590 0.44085041
v -1.02916050 1.95645158 0.50169675
v -1.03171827 1.95775513 0.52917574
v 1.25560505 1.82177907 0.52917574
v 1.20627783 1.84454218 0.44085041
v -1.09821877 1.91242985 0.44085041
v -1.10662264 1.91553840 0.52917574
v -1.08944945 1.92576674 0.52917574
v -1.05291066 1.94602270 0.52917574
v 1.25341272 1.82047551 0.50169675
v 1.30054771 1.78989105 0.52917574
v 1.30054771 1.78718356 0.50169675
v 1.30383615 1.77876020 0.44085041
v 1.24866273 1.81746733 0.44085041
v -1.12306504 1.89728796 0.44085041
v -1.12781503 1.90019598 0.50169675
v -1.12964202 1.90149954 0.52917574
v 1.33964406 1.76101120 0.52917574
v 1.30858624 1.77535075 0.44085041
v 1.30566314 1.77745665 0.44085041
v -1.15193063 1.87903753 0.44085041
v -1.16508460 1.87923806 0.52917574
v -1.15119986 1.88796211 0.52917574
v 1.33562485 1.75770202 0.46641850
v 1.35352880 1.74967983 0.52917574
v 1.36120190 1.73383598 0.44085041
v -1.21368104 1.83982897 0.44085041
v -1.25570060 1.82177907 0.52917574
v 1.37325975 1.73052690 0.50169675
v 1.40614456 1.69693405 0.44085041
v 1.41747153 1.69693405 0.52917574
v -1.24875817 1.81746733 0.44085041
v -1.25350827 1.82047551 0.50169675
v -1.25533516 1.81305502 0.44085041
v -1.30064316 1.78718356 0.50169675
v -1.30064316 1.78989105 0.52917574
v 1.44706790 1.66314057 0.44085041
v 1.45254867 1.66785357 0.52917574
v -1.30539325 1.77745665 0.44085041
v -1.30831635 1.77535075 0.44085041
v -1.31708556 1.77785771 0.52917574
v 1.48324126 1.63275653 0.44085041
v 1.47776038 1.64639433 0.52917574
v 1.49237590 1.63125244 0.50169675
v -1.33389340 1.75639836 0.44085041
v -1.33572029 1.75770202 0.46643579
v -1.33973961 1.76101120 0.52917574
v 1.48872202 1.62794326 0.44085041
v 1.49383745 1.63265626 0.52917574
v 1.49347212 1.62353105 0.44085041
v 1.50772219 1.62002133 0.52917574
v -1.36604744 1.73002547 0.44085041
v -1.36129745 1.74336236 0.52917574
v 1.52928003 1.59996591 0.52917574
v 1.52379916 1.59475147 0.44085041
v -1.45264422 1.65842756 0.44085041
v -1.41756708 1.69693405 0.52917574
v 1.56362639 1.56486887 0.52917574
v 1.55851096 1.55955416 0.44085041
v -1.48881757 1.62804352 0.44085041
v -1.45264422 1.66785357 0.52917574
v 1.56326105 1.55454036 0.44085041
v 1.64547308 1.47762764 0.52917574
v 1.63158844 1.48193958 0.44085041
v 1.62245369 1.49166650 0.44085041
v -1.52389471 1.59475147 0.44085041
v -1.52754859 1.59836145 0.50169675
v -1.49247145 1.63125244 0.50169675
v -1.49393300 1.63265626 0.52917574
v 1.66666558 1.45476447 0.52917574
v 1.66520403 1.45316001 0.50169675
v 1.66191548 1.44955003 0.44085041
v -1.52864470 1.59003846 0.44085041
v -1.55860651 1.55955416 0.44085041
v -1.54252944 1.58622795 0.52917574
v -1.52901014 1.59996591 0.52917574
v -1.51549084 1.61260084 0.52917574
v 1.68639642 1.43340538 0.52917574
v 1.69005030 1.41916609 0.44085041
v -1.66201103 1.44955003 0.44085041
v -1.59879908 1.52736513 0.52917574
v -1.56335650 1.56486887 0.52917574
v 1.69881961 1.41966742 0.52917574
v 1.69443496 1.41435272 0.44085041
v -1.69416507 1.41435272 0.44085041
v -1.69891516 1.41966742 0.52917574
v -1.66529947 1.45316001 0.50169675
v -1.65324172 1.46940492 0.52917574
v 1.71270435 1.40211885 0.52917574
v 1.72805064 1.37033099 0.44085041
v -1.72778076 1.37033099 0.44085041
v -1.73691540 1.37053152 0.52917574
v -1.66676102 1.45476447 0.52917574
v 1.73681985 1.37053152 0.52917574
v 1.75947380 1.33844286 0.51888626
v 1.75545458 1.33302789 0.44085041
v -1.75262703 1.33713920 0.44085041
v -1.75993479 1.33914483 0.52917574
v 1.75983924 1.33914483 0.52917574
v 1.78505106 1.30454922 0.52917574
v 1.81939742 1.25370859 0.50169675
v 1.77518564 1.30605331 0.44085041
v -1.81072366 1.25711804 0.44085041
v -1.78003107 1.30735686 0.49795277
v -1.78514640 1.30454922 0.52917574
v 1.82049353 1.25561385 0.52917574
v 1.83803215 1.21911288 0.44085041
v 1.81610887 1.24949702 0.44085041
v 1.78578173 1.29141285 0.44085041
v 1.84460903 1.21851128 0.50169675
v -1.81620443 1.24949702 0.44085041
v -1.82058908 1.25561385 0.52917574
v 1.84570535 1.22041654 0.52917574
v 1.84132069 1.21429971 0.44085041
v 1.85958999 1.19935835 0.52917574
v 1.86653230 1.18872894 0.52917574
v 1.84607058 1.20697938 0.44085041
v -1.84141604 1.21429971 0.44085041
v -1.83045450 1.24187589 0.52917574
v 1.86032066 1.18872894 0.46634069
v -1.86626241 1.18872894 0.52917574
v 1.85739755 1.18872894 0.44085041
v -1.85749310 1.18872894 0.44085041
v -1.84580069 1.22041654 0.52917574
f 1 2 3
f 1 3 4
f 1 4 8
f 1 8 5
f 1 5 9
f 1 9 14
f 1 14 20
f 1 20 27
f 1 27 34
f 1 34 40
f 1 40 39
f 1 39 46
f 1 46 51
f 1 51 57
f 1 57 63
f 1 63 70
f 1 70 77
f 1 77 83
f 1 83 90
f 1 90 97
f 1 97 105
f 1 105 103
f 1 103 111
f 1 111 117
f 1 117 116
f 1 116 115
f 1 115 125
f 1 125 131
f 1 131 130
f 1 130 136
f 1 136 144
f 1 144 149
f 1 149 155
f 1 155 161
f 1 161 165
f 1 165 169
f 1 169 177
f 1 177 185
f 1 185 184
f 1 184 183
f 1 183 190
f 1 190 189
f 1 189 196
f 1 196 201
f 1 201 194
f 1 194 200
f 1 200 206
f 1 206 213
f 1 213 220
f 1 220 227
f 1 227 232
f 1 232 229
f 1 229 224
f 1 224 223
f 1 223 221
f 1 221 214
f 1 214 208
f 1 208 207
f 1 207 202
f 1 202 197
f 1 197 191
f 1 191 186
f 1 186 178
f 1 178 171
f 1 171 166
f 1 166 162
f 1 162 159
f 1 159 157
f 1 157 151
f 1 151 146
f 1 146 139
f 1 139 133
f 1 133 126
f 1 126 119
f 1 119 112
f 1 112 107
f 1 107 99
f 1 99 98
f 1 98 91
f 1 91 84
f 1 84 78
f 1 78 72
f 1 72 71
f 1 71 66
f 1 66 65
f 1 65 58
f 1 58 52
f 1 52 47
f 1 47 42
f 1 42 41
f 1 41 35
f 1 35 29
f 1 29 28
f 1 28 23
f 1 23 21
f 1 21 16
f 1 16 11
f 1 11 6
f 1 6 2
f 2 6 7
f 2 7 3
f 3 7 10
f 3 10 15
f 3 15 18
f 3 18 17
f 3 17 24
f 3 24 31
f 3 31 37
f 3 37 44
f 3 44 48
f 3 48 54
f 3 54 60
f 3 60 68
f 3 68 67
f 3 67 75
f 3 75 79
f 3 79 80
f 3 80 86
f 3 86 93
f 3 93 100
f 3 100 108
f 3 108 113
f 3 113 122
f 3 122 121
f 3 121 128
f 3 128 127
f 3 127 134
f 3 134 138
f 3 138 145
f 3 145 150
f 3 150 156
f 3 156 158
f 3 158 163
f 3 163 167
f 3 167 170
f 3 170 173
f 3 173 172
f 3 172 180
f 3 180 187
f 3 187 192
f 3 192 198
f 3 198 204
f 3 204 210
f 3 210 217
f 3 217 216
f 3 216 215
f 3 215 222
f 3 222 225
f 3 225 230
f 3 230 231
f 3 231 226
f 3 226 219
f 3 219 211
f 3 211 205
f 3 205 199
f 3 199 193
f 3 193 188
f 3 188 182
f 3 182 181
f 3 181 174
f 3 174 168
f 3 168 164
f 3 164 160
f 3 160 153
f 3 153 148
f 3 148 147
f 3 147 142
f 3 142 140
f 3 140 135
f 3 135 129
f 3 129 123
f 3 123 114
f 3 114 109
f 3 109 102
f 3 102 101
f 3 101 94
f 3 94 87
f 3 87 81
f 3 81 76
f 3 76 69
f 3 69 61
f 3 61 55
f 3 55 49
f 3 49 45
f 3 45 38
f 3 38 32
f 3 32 26
f 3 26 25
f 3 25 19
f 3 19 13
f 3 13 12
f 3 12 8
f 3 8 4
f 5 8 9
f 6 10 7
f 6 11 15
f 6 15 10
f 8 12 9
f 9 12 13
f 9 13 19
f 9 19 14
f 11 16 17
f 11 17 18
f 11 18 15
f 14 19 20
f 16 21 22
f 16 22 17
f 17 22 23
f 17 23 24
f 19 25 20
f 20 25 26
f 20 26 27
f 21 23 22
f 23 28 24
f 24 28 29
f 24 29 30
f 24 30 31
f 26 32 33
f 26 33 34
f 26 34 27
f 29 35 30
f 30 35 31
f 31 35 36
f 31 36 37
f 32 38 39
f 32 39 40
f 32 40 33
f 33 40 34
f 35 41 36
f 36 41 42
f 36 42 43
f 36 43 37
f 37 43 44
f 38 45 39
f 39 45 46
f 42 47 43
f 43 47 44
f 44 47 48
f 45 49 50
f 45 50 46
f 46 50 51
f 47 52 48
f 48 52 53
f 48 53 54
f 49 55 56
f 49 56 51
f 49 51 50
f 51 56 57
f 52 58 59
f 52 59 54
f 52 54 53
f 54 59 60
f 55 61 56
f 56 61 62
f 56 62 57
f 57 62 63
f 58 64 59
f 58 65 64
f 59 64 66
f 59 66 67
f 59 67 68
f 59 68 60
f 61 69 63
f 61 63 62
f 63 69 70
f 64 65 66
f 66 71 67
f 67 71 72
f 67 72 73
f 67 73 74
f 67 74 75
f 69 76 70
f 70 76 77
f 72 78 73
f 73 78 74
f 74 79 75
f 74 78 80
f 74 80 79
f 76 81 82
f 76 82 83
f 76 83 77
f 78 84 80
f 80 84 85
f 80 85 86
f 81 87 88
f 81 88 83
f 81 83 82
f 83 88 89
f 83 89 90
f 84 91 92
f 84 92 86
f 84 86 85
f 86 92 93
f 87 94 88
f 88 94 95
f 88 95 96
f 88 96 97
f 88 97 89
f 89 97 90
f 91 98 92
f 92 98 99
f 92 99 100
f 92 100 93
f 94 101 95
f 95 101 102
f 95 102 103
f 95 103 104
f 95 104 96
f 96 104 97
f 97 104 105
f 99 106 100
f 99 107 108
f 99 108 106
f 100 106 108
f 102 109 110
f 102 110 111
f 102 111 103
f 103 105 104
f 107 112 113
f 107 113 108
f 109 114 115
f 109 115 116
f 109 116 117
f 109 117 111
f 109 111 110
f 112 118 113
f 112 119 120
f 112 120 121
f 112 121 118
f 113 118 122
f 114 123 124
f 114 124 115
f 115 124 125
f 118 121 122
f 119 126 127
f 119 127 120
f 120 127 128
f 120 128 121
f 123 129 124
f 124 129 130
f 124 130 131
f 124 131 125
f 126 132 127
f 126 133 132
f 127 132 134
f 129 135 136
f 129 136 130
f 132 133 137
f 132 137 138
f 132 138 134
f 133 139 137
f 135 140 141
f 135 141 136
f 136 142 143
f 136 143 144
f 136 141 142
f 137 139 138
f 138 139 145
f 139 146 145
f 140 142 141
f 142 147 143
f 143 147 148
f 143 148 149
f 143 149 144
f 145 146 150
f 146 151 152
f 146 152 150
f 148 153 154
f 148 154 149
f 149 154 155
f 150 152 156
f 151 157 152
f 152 158 156
f 152 157 159
f 152 159 158
f 153 160 154
f 154 160 161
f 154 161 155
f 158 159 162
f 158 162 163
f 160 164 165
f 160 165 161
f 162 166 167
f 162 167 163
f 164 168 169
f 164 169 165
f 166 170 167
f 166 171 172
f 166 172 173
f 166 173 170
f 168 174 175
f 168 175 176
f 168 176 169
f 169 176 177
f 171 178 179
f 171 179 180
f 171 180 172
f 174 181 175
f 175 181 182
f 175 182 183
f 175 183 184
f 175 184 176
f 176 184 185
f 176 185 177
f 178 186 179
f 179 186 187
f 179 187 180
f 182 188 189
f 182 189 190
f 182 190 183
f 186 191 192
f 186 192 187
f 188 193 194
f 188 194 195
f 188 195 196
f 188 196 189
f 191 197 192
f 192 197 198
f 193 199 200
f 193 200 194
f 194 201 195
f 195 201 196
f 197 202 198
f 198 202 203
f 198 203 204
f 199 205 200
f 200 205 206
f 202 207 203
f 203 207 208
f 203 208 209
f 203 209 210
f 203 210 204
f 205 211 212
f 205 212 206
f 206 212 213
f 208 214 209
f 209 215 216
f 209 216 217
f 209 217 210
f 209 214 221
f 209 221 218
f 209 218 215
f 211 219 220
f 211 220 212
f 212 220 213
f 215 218 222
f 218 221 223
f 218 223 224
f 218 224 225
f 218 225 222
f 219 226 227
f 219 227 220
f 224 228 225
f 224 229 231
f 224 231 230
f 224 230 228
f 225 228 230
f 226 231 229
f 226 229 232
f 226 232 227

