# https://github.com/mikedh/trimesh
v 1.87900882 0.03512635 -1.55131659
v 1.87762145 0.10166006 -1.55131659
v 1.87900882 -0.03518651 -1.55131659
v 1.26070350 0.03512635 -2.47908113
v 1.82351176 0.10166006 -1.63224129
v 1.46652770 0.10166006 -1.55131659
v 1.87769081 -0.09901588 -1.55131659
v 1.26070350 -0.03518651 -2.47908113
v 1.22553228 0.03512635 -2.51609998
v 1.22372866 0.10166006 -2.51562180
v 1.22560164 0.10166006 -2.51361293
v 1.25883041 0.10166006 -2.47630722
v 1.26014843 0.10166006 -2.47439410
v 1.28428970 0.10166006 -2.43833181
v 1.45841132 0.10166006 -2.17805281
v 1.76357515 0.10166006 -1.72187077
v 1.45737074 -0.25253922 -1.55131659
v 1.17038212 0.10166006 -1.66734703
v 1.17038212 0.09271493 -1.62851083
v 1.17038212 0.09222953 -1.62640640
v 1.17038212 0.09073868 -1.62009313
v 1.17038212 0.04330871 -1.61913657
v 1.17038212 0.03512635 -1.61904081
v 1.87755188 -0.10546469 -1.55131659
v 1.39965391 -0.10546469 -2.26567341
v 1.25876105 -0.10546469 -2.47621146
v 1.22358983 -0.10546469 -2.51552604
v 1.22553228 -0.03518651 -2.51609998
v 1.17038212 -0.17574287 -2.52843946
v 1.17038212 0.09448315 -2.52824835
v 1.17038212 0.10166006 -2.52815259
v 1.86201291 -0.25253922 -1.55131659
v 1.17038212 -0.00096620 -1.64171131
v 1.17038212 -0.02936178 -1.67796471
v 1.17038212 -0.12623264 -1.80174316
v 1.17038212 -0.15376145 -1.83694445
v 1.17038212 -0.18891787 -1.88257231
v 1.17038212 -0.21578792 -1.91777360
v 1.17038212 -0.23652119 -1.95947948
v 1.22421416 -0.25253922 -1.96120128
v 1.87269597 -0.16437077 -1.55131659
v 1.33812174 -0.15778328 -2.34908516
v 1.25459872 -0.17574287 -2.46999394
v 1.21942761 -0.17574287 -2.51380424
v 1.87172474 -0.17574287 -1.55131659
v 1.17038212 -0.24605574 -2.52576110
v 1.86603632 -0.22074586 -1.55131659
v 1.74775854 -0.25253922 -1.72139239
v 1.55601658 -0.24605574 -2.00807256
v 1.17038212 -0.25253922 -2.23123737
v 1.33513871 -0.20465852 -2.34468500
v 1.24863287 -0.24605574 -2.46157624
v 1.21353111 -0.24605574 -2.50902146
v 1.17038212 -0.24730388 -2.52557000
v 1.53458090 -0.25253922 -2.03839531
v 1.47360361 -0.24605574 -2.13060759
v 1.17038212 -0.25253922 -2.52470899
v 1.39070502 -0.24605574 -2.25266424
v 1.35553380 -0.24605574 -2.30441386
v 1.25147708 -0.25253922 -2.45545428
v 1.24814726 -0.25253922 -2.46014130
v 1.21276796 -0.25253922 -2.50816045
v 1.39320244 -0.25253922 -2.24730752
v 1.47519916 -0.25253922 -2.12649429
f 1 2 6
f 1 6 17
f 1 17 32
f 1 32 47
f 1 47 45
f 1 45 41
f 1 41 24
f 1 24 7
f 1 7 3
f 1 3 8
f 1 8 4
f 1 4 2
f 2 5 16
f 2 16 15
f 2 15 14
f 2 14 13
f 2 13 12
f 2 12 11
f 2 11 10
f 2 10 31
f 2 31 18
f 2 18 6
f 2 4 5
f 3 7 8
f 4 8 28
f 4 28 9
f 4 9 10
f 4 10 11
f 4 11 12
f 4 12 13
f 4 13 14
f 4 14 15
f 4 15 16
f 4 16 5
f 6 18 19
f 6 19 20
f 6 20 21
f 6 21 22
f 6 22 23
f 6 23 17
f 7 24 8
f 8 25 26
f 8 26 27
f 8 27 28
f 8 24 25
f 9 28 29
f 9 29 30
f 9 30 31
f 9 31 10
f 17 23 33
f 17 33 34
f 17 34 35
f 17 35 36
f 17 36 37
f 17 37 38
f 17 38 39
f 17 39 40
f 17 40 50
f 17 50 57
f 17 57 62
f 17 62 61
f 17 61 60
f 17 60 63
f 17 63 64
f 17 64 55
f 17 55 48
f 17 48 32
f 18 31 30
f 18 30 29
f 18 29 46
f 18 46 54
f 18 54 57
f 18 57 50
f 18 50 39
f 18 39 38
f 18 38 37
f 18 37 36
f 18 36 35
f 18 35 34
f 18 34 33
f 18 33 23
f 18 23 22
f 18 22 21
f 18 21 20
f 18 20 19
f 24 41 25
f 25 41 26
f 26 42 43
f 26 43 44
f 26 44 27
f 26 41 45
f 26 45 42
f 27 44 46
f 27 46 29
f 27 29 28
f 32 48 49
f 32 49 42
f 32 42 47
f 39 50 40
f 42 49 51
f 42 51 43
f 42 45 47
f 43 52 53
f 43 53 44
f 43 51 52
f 44 53 46
f 46 53 54
f 48 55 49
f 49 55 56
f 49 56 51
f 51 58 59
f 51 59 52
f 51 56 58
f 52 60 61
f 52 61 62
f 52 62 53
f 52 59 63
f 52 63 60
f 53 62 57
f 53 57 54
f 55 64 56
f 56 64 63
f 56 63 58
f 58 63 59

