# https://github.com/mikedh/trimesh
v -2.24649405 -0.01473737 0.96559031
v -2.24452688 -0.01473737 0.94076116
v -1.85213911 -0.01473737 0.96559031
v -2.24649405 0.10546693 0.96559031
v -2.24314265 0.03529270 0.92355618
v -2.24314265 -0.01473737 0.92355618
v -1.78117999 -0.01473737 0.76577654
v -1.50229769 1.08229183 0.96552283
v -1.50237051 1.08229183 0.96559031
v -2.24430833 0.14360867 0.96559031
v -2.24306994 0.10546693 0.92355618
v -2.22762484 -0.01473737 0.73305334
v -2.22594935 0.03529270 0.71264353
v -1.74905173 -0.01473737 0.67523116
v -1.50229769 0.85756925 0.62098491
v -1.50229769 1.23155650 0.96559031
v -1.72981844 -0.01473737 0.62098491
v -2.24241428 0.17349462 0.96559031
v -2.21837254 0.10546693 0.62098491
v -2.22012116 0.10546693 0.64233933
v -2.22186958 -0.01473737 0.66274914
v -2.22019388 0.03529270 0.64233933
v -1.50229769 1.63493429 0.62098491
v -1.50229769 1.67208537 0.96559031
v -2.21844546 -0.01473737 0.62098491
v -2.21523990 0.15450629 0.62098491
v -2.23330761 0.24614558 0.96559031
v -2.20504046 0.24614558 0.62098491
v -2.21385566 0.17580623 0.62098491
v -2.21844546 0.03529270 0.62098491
v -2.21895549 -0.01473737 0.62715847
v -1.53493587 1.60537858 0.62098491
v -1.50229769 1.63708084 0.63943810
v -1.50229769 1.63741107 0.64233933
v -1.51322570 1.66250869 0.96559031
v -2.22798924 0.28825006 0.96559031
v -2.22099537 0.31648488 0.92355618
v -2.19884789 0.29518494 0.62098491
v -1.54047279 1.61082739 0.71264353
v -1.56881265 1.57020893 0.62098491
v -1.54681100 1.61710179 0.81826856
v -1.55271211 1.62288084 0.92355618
v -1.55504347 1.62519250 0.96559031
v -2.22441949 0.31648488 0.96559031
v -2.19615234 0.31648488 0.62098491
v -2.21531282 0.38682418 0.96559031
v -1.57952210 1.55881595 0.62098491
v -1.57398528 1.57565774 0.71264353
v -1.58790020 1.58589489 0.92355618
v -1.59023156 1.58837167 0.96559031
v -2.20606030 0.38682418 0.85325198
v -2.19447664 0.38682418 0.71264353
v -2.18864846 0.38682418 0.64233933
v -2.18682712 0.38698930 0.62098491
v -2.20729890 0.42876359 0.96559031
v -2.18085309 0.42678222 0.62098491
v -1.60516652 1.53404856 0.64233933
v -1.68122536 1.46981855 0.78294778
v -1.62694961 1.50829058 0.62098491
v -1.66221062 1.50614403 0.91792240
v -1.60997476 1.56740201 0.96559031
v -2.20183490 0.45716353 0.96559031
v -2.18172730 0.43041475 0.64233933
v -2.17211081 0.46096116 0.62098491
v -1.67335718 1.46139771 0.64233933
v -1.70373702 1.42490711 0.62098491
v -1.68515939 1.47394641 0.85325198
v -1.64771276 1.48616499 0.62098491
v -1.69142479 1.48055106 0.96559031
v -1.66082639 1.51324393 0.96559031
v -2.18536997 0.52205402 0.96559031
v -2.18456868 0.51148663 0.92355618
v -2.17065366 0.52122842 0.78750201
v -2.14471788 0.59767701 0.71264353
v -2.15506315 0.52733771 0.62098491
v -1.67219150 1.46007676 0.62098491
v -1.73885230 1.38049092 0.62098491
v -1.74358773 1.38693044 0.71264353
v -1.75648280 1.40443271 0.96559031
v -1.70482978 1.42622796 0.64233933
v -1.70089564 1.46965343 0.96559031
v -2.17728335 0.55359116 0.96559031
v -2.16242120 0.59767701 0.92355618
v -2.15477168 0.63978154 0.96559031
v -2.14726779 0.66801636 0.96559031
v -2.13699544 0.59767701 0.62098491
v -1.75684699 1.35605378 0.62098491
v -1.76937777 1.35176080 0.71264353
v -1.77644456 1.36150259 0.85325198
v -1.77943157 1.37289557 0.96559031
v -1.74169358 1.42193498 0.96559031
v -1.72639432 1.43993260 0.96559031
v -2.17269355 0.57142366 0.96559031
v -2.16686536 0.59404450 0.96559031
v -2.13320714 0.71012089 0.96559031
v -2.11040400 0.70599297 0.66484073
v -2.10843703 0.70037904 0.62098491
v -2.10952979 0.69674648 0.62098491
v -2.11462961 0.67924422 0.62098491
v -2.11768933 0.66867683 0.62098491
v -1.76471527 1.34532127 0.62098491
v -1.77389465 1.33277246 0.62098491
v -1.80507589 1.29380519 0.64868155
v -1.81724249 1.32088413 0.96559031
v -2.12308042 0.74017196 0.96559031
v -2.11856354 0.72679756 0.85325198
v -2.10727135 0.76840673 0.91141153
v -2.10166172 0.75420679 0.78294778
v -2.08009697 0.80869501 0.78294778
v -2.06778494 0.80869501 0.64233933
v -2.09525059 0.73455803 0.62098491
v -2.10697988 0.70417672 0.62098491
v -1.80041338 1.29628186 0.62098491
v -1.81155994 1.28092614 0.62098491
v -1.82583914 1.26243316 0.62948621
v -1.82824321 1.26573543 0.67634443
v -1.83713133 1.27795401 0.85325198
v -1.84274097 1.28571448 0.96559031
v -2.11455669 0.76180214 0.96559031
v -2.10931124 0.77352536 0.95830350
v -2.10413871 0.78822066 0.96559031
v -2.06457937 0.87886919 0.92355618
v -2.06589068 0.80869501 0.62098491
v -2.03157680 0.89521562 0.62098491
v -1.82540204 1.26177269 0.62098491
v -1.83829701 1.24377507 0.62098491
v -1.84740368 1.23106114 0.62098491
v -1.86408716 1.23040066 0.78294778
v -1.87785634 1.23667507 0.96559031
v -1.85694746 1.26590055 0.96559031
v -2.06822204 0.87886919 0.96559031
v -2.03980927 0.91585514 0.80878896
v -2.03769646 0.91090169 0.76196446
v -2.00731672 0.94904337 0.62098491
v -1.89636116 1.19192864 0.83790244
v -1.89869231 1.19572637 0.88476068
v -1.88565171 1.17343577 0.62098491
v -1.88674446 1.17525197 0.64233933
v -1.90051364 1.19853339 0.92355618
v -1.90240790 1.20150542 0.96559031
v -2.04665729 0.93137598 0.96559031
v -2.04483596 0.92724812 0.92355618
v -2.03070259 0.96654563 0.96559031
v -2.02880834 0.96241777 0.92355618
v -1.98735475 0.98867122 0.62098491
v -1.90575909 1.13843124 0.62098491
v -1.90677914 1.14024744 0.64233933
v -1.92586669 1.16006137 0.96559031
v -1.98057944 1.00584325 0.64233933
v -1.97955960 1.00402694 0.62098491
v -2.00316403 1.01938277 0.96559031
v -1.94160305 1.07321041 0.62098491
v -1.98371208 1.02466646 0.78682729
v -1.97628111 1.06842207 0.96559031
v -1.98385792 1.01178742 0.71264353
f 1 2 6
f 1 6 12
f 1 12 21
f 1 21 31
f 1 31 25
f 1 25 17
f 1 17 14
f 1 14 7
f 1 7 3
f 1 3 9
f 1 9 16
f 1 16 24
f 1 24 35
f 1 35 43
f 1 43 50
f 1 50 61
f 1 61 70
f 1 70 69
f 1 69 81
f 1 81 92
f 1 92 91
f 1 91 79
f 1 79 90
f 1 90 104
f 1 104 118
f 1 118 130
f 1 130 129
f 1 129 140
f 1 140 148
f 1 148 154
f 1 154 151
f 1 151 143
f 1 143 141
f 1 141 131
f 1 131 121
f 1 121 119
f 1 119 105
f 1 105 95
f 1 95 85
f 1 85 84
f 1 84 94
f 1 94 93
f 1 93 82
f 1 82 71
f 1 71 62
f 1 62 55
f 1 55 46
f 1 46 44
f 1 44 36
f 1 36 27
f 1 27 18
f 1 18 10
f 1 10 4
f 1 4 2
f 2 5 6
f 2 4 5
f 3 7 8
f 3 8 9
f 4 10 11
f 4 11 5
f 5 12 6
f 5 11 13
f 5 13 12
f 7 14 8
f 8 15 23
f 8 23 33
f 8 33 34
f 8 34 24
f 8 24 16
f 8 16 9
f 8 14 17
f 8 17 15
f 10 18 19
f 10 19 20
f 10 20 11
f 11 20 13
f 12 13 22
f 12 22 21
f 13 20 22
f 15 17 25
f 15 25 30
f 15 30 19
f 15 19 26
f 15 26 29
f 15 29 28
f 15 28 38
f 15 38 45
f 15 45 54
f 15 54 56
f 15 56 64
f 15 64 75
f 15 75 86
f 15 86 100
f 15 100 99
f 15 99 98
f 15 98 97
f 15 97 112
f 15 112 111
f 15 111 123
f 15 123 124
f 15 124 134
f 15 134 145
f 15 145 150
f 15 150 152
f 15 152 146
f 15 146 137
f 15 137 127
f 15 127 126
f 15 126 125
f 15 125 114
f 15 114 113
f 15 113 102
f 15 102 101
f 15 101 87
f 15 87 77
f 15 77 66
f 15 66 76
f 15 76 68
f 15 68 59
f 15 59 47
f 15 47 40
f 15 40 32
f 15 32 23
f 18 26 19
f 18 27 28
f 18 28 29
f 18 29 26
f 19 30 22
f 19 22 20
f 21 22 30
f 21 30 31
f 23 32 33
f 24 34 35
f 25 31 30
f 27 36 37
f 27 37 28
f 28 37 38
f 32 39 33
f 32 40 39
f 33 39 34
f 34 39 41
f 34 41 35
f 35 41 42
f 35 42 43
f 36 44 37
f 37 45 38
f 37 44 46
f 37 46 45
f 39 40 41
f 40 47 48
f 40 48 41
f 41 49 50
f 41 50 42
f 41 48 49
f 42 50 43
f 45 46 51
f 45 51 52
f 45 52 53
f 45 53 54
f 46 55 56
f 46 56 51
f 47 57 58
f 47 58 48
f 47 59 57
f 48 60 61
f 48 61 49
f 48 58 60
f 49 61 50
f 51 56 52
f 52 56 53
f 53 56 54
f 55 62 56
f 56 62 63
f 56 63 64
f 57 59 58
f 58 65 66
f 58 66 67
f 58 67 60
f 58 59 65
f 59 68 65
f 60 69 70
f 60 70 61
f 60 67 69
f 62 71 72
f 62 72 63
f 63 72 73
f 63 73 64
f 64 73 74
f 64 74 75
f 65 76 66
f 65 68 76
f 66 77 78
f 66 78 79
f 66 79 80
f 66 80 69
f 66 69 67
f 69 80 81
f 71 82 72
f 72 82 73
f 73 82 74
f 74 82 83
f 74 83 84
f 74 84 85
f 74 85 86
f 74 86 75
f 77 87 78
f 78 87 88
f 78 88 79
f 79 88 89
f 79 89 90
f 79 91 80
f 80 91 92
f 80 92 81
f 82 93 83
f 83 93 94
f 83 94 84
f 85 95 96
f 85 96 97
f 85 97 98
f 85 98 99
f 85 99 100
f 85 100 86
f 87 101 88
f 88 101 102
f 88 102 103
f 88 103 89
f 89 103 104
f 89 104 90
f 95 105 106
f 95 106 96
f 96 106 105
f 96 105 107
f 96 107 108
f 96 108 109
f 96 109 110
f 96 110 111
f 96 111 112
f 96 112 97
f 102 113 103
f 103 114 115
f 103 115 116
f 103 116 104
f 103 113 114
f 104 116 117
f 104 117 118
f 105 119 120
f 105 120 107
f 107 109 108
f 107 120 121
f 107 121 122
f 107 122 109
f 109 122 110
f 110 123 111
f 110 122 124
f 110 124 123
f 114 125 115
f 115 125 126
f 115 126 127
f 115 127 116
f 116 127 128
f 116 128 129
f 116 129 117
f 117 129 130
f 117 130 118
f 119 121 120
f 121 131 122
f 122 131 132
f 122 132 133
f 122 133 124
f 124 133 134
f 127 135 136
f 127 136 128
f 127 137 138
f 127 138 135
f 128 136 129
f 129 136 139
f 129 139 140
f 131 141 142
f 131 142 132
f 132 142 143
f 132 143 144
f 132 144 134
f 132 134 133
f 134 144 143
f 134 143 145
f 135 138 146
f 135 146 147
f 135 147 136
f 136 147 148
f 136 148 139
f 137 146 138
f 139 148 140
f 141 143 142
f 143 149 150
f 143 150 145
f 143 151 149
f 146 152 147
f 147 152 153
f 147 153 154
f 147 154 148
f 149 155 153
f 149 153 152
f 149 152 150
f 149 151 155
f 151 154 153
f 151 153 155

