# https://github.com/mikedh/trimesh
v -0.47217120 -0.91102113 -0.95009665
v -0.47217120 -0.91102113 -1.35539490
v -0.59232364 -0.91102113 -0.95009665
v -0.47217120 -2.00774355 -0.95009665
v -0.56001146 -0.91102113 -1.28883772
v -0.47217120 -0.95031623 -1.37419852
v -0.72130396 -1.30654971 -1.51343359
v -0.59488419 -0.91102113 -1.23457738
v -0.64958321 -0.96180413 -1.20259464
v -0.64787612 -0.96373673 -0.95009665
v -0.52733352 -1.99475261 -0.95009665
v -0.47217120 -2.00699193 -0.95544551
v -0.59488419 -0.91102113 -1.25453903
v -0.47217120 -0.95987163 -1.37816870
v -0.72130396 -1.06283371 -1.24119449
v -0.71423188 -1.03996519 -1.23308859
v -0.64958321 -0.96180413 -1.23838223
v -0.47217120 -1.01688189 -1.40110805
v -0.47217120 -1.07518052 -1.42129024
v -0.52443153 -1.38310024 -1.51343359
v -0.72130396 -1.67083556 -1.51343359
v -0.71423188 -1.03996519 -1.20524157
v -0.70657450 -1.03942834 -0.95009665
v -0.56210871 -1.98433819 -0.95009665
v -0.56881503 -1.97070291 -1.02205780
v -0.55606087 -1.96673063 -1.06892898
v -0.52733352 -1.99067263 -0.97485565
v -0.49589931 -1.96973671 -1.15721226
v -0.47217120 -2.00387856 -0.97485565
v -0.72130396 -1.05564025 -1.20220867
v -0.47217120 -1.41391373 -1.51343359
v -0.51523779 -1.83402865 -1.51343359
v -0.72130396 -1.80031636 -1.45465155
v -0.72130396 -1.06176002 -0.95009665
v -0.71815811 -1.05521080 -0.95009665
v -0.58832423 -1.97639322 -0.95009665
v -0.58098389 -1.97467540 -0.97485565
v -0.59442084 -1.95846338 -1.04538312
v -0.59761551 -1.94547244 -1.11546929
v -0.59761551 -1.93344769 -1.18577622
v -0.53050378 -1.97811104 -1.04538312
v -0.52255377 -1.95749719 -1.18268820
v -0.47217120 -1.97864788 -1.13173642
v -0.52733352 -1.94225158 -1.25602782
v -0.47760938 -1.96587151 -1.20408354
v -0.47217120 -1.84616089 -1.51343359
v -0.51089698 -1.83585397 -1.51343359
v -0.51487198 -1.83542441 -1.51260653
v -0.72130396 -1.80675830 -1.44808955
v -0.72130396 -1.93226672 -0.95009665
v -0.66687326 -1.95084068 -0.95009665
v -0.66794621 -1.93452139 -1.04516247
v -0.66794621 -1.92260392 -1.11546929
v -0.69781976 -1.89662183 -1.21086608
v -0.59761551 -1.92002719 -1.25602782
v -0.47217120 -1.96769683 -1.19884500
v -0.47217120 -1.93677605 -1.32633475
v -0.47217120 -1.95631621 -1.25459414
v -0.63582917 -1.89930606 -1.29402115
v -0.52733352 -1.92281870 -1.32633475
v -0.47217120 -1.96458325 -1.21627005
v -0.47217120 -1.96630107 -1.20700612
v -0.47217120 -1.88717381 -1.45365895
v -0.49094884 -1.89801759 -1.43110569
v -0.70391636 -1.82833834 -1.43237394
v -0.72130396 -1.82533226 -1.42007710
v -0.72130396 -1.93087096 -0.95880918
v -0.72130396 -1.92818695 -0.97485565
v -0.70937895 -1.90059432 -1.16399480
v -0.66794621 -1.94633135 -0.97485565
v -0.72130396 -1.89833965 -1.15158775
v -0.72130396 -1.89425988 -1.17458220
v -0.72130396 -1.89050217 -1.19564667
v -0.72130396 -1.88234242 -1.23705877
v -0.68384627 -1.89211250 -1.25602782
v -0.47217120 -1.90821723 -1.41219174
v -0.59129940 -1.90435202 -1.32098589
v -0.72130396 -1.87826264 -1.25602782
v -0.72130396 -1.85700466 -1.32865070
v -0.66272753 -1.88105416 -1.32098589
v -0.52733352 -1.90445952 -1.37932674
v -0.47217120 -1.89995019 -1.43430403
v -0.56364506 -1.89866172 -1.36256342
v -0.72130396 -1.83574647 -1.39145814
v -0.72130396 -1.83445821 -1.39520778
v -0.72130396 -1.90488887 -1.11364964
v -0.72076743 -1.90478158 -1.11546929
v -0.72130396 -1.90467409 -1.11491789
f 1 2 5
f 1 5 13
f 1 13 8
f 1 8 3
f 1 3 10
f 1 10 23
f 1 23 35
f 1 35 34
f 1 34 50
f 1 50 51
f 1 51 36
f 1 36 24
f 1 24 11
f 1 11 4
f 1 4 12
f 1 12 29
f 1 29 43
f 1 43 56
f 1 56 62
f 1 62 61
f 1 61 58
f 1 58 57
f 1 57 76
f 1 76 82
f 1 82 63
f 1 63 46
f 1 46 31
f 1 31 19
f 1 19 18
f 1 18 14
f 1 14 6
f 1 6 2
f 2 6 7
f 2 7 5
f 3 8 9
f 3 9 10
f 4 11 12
f 5 7 13
f 6 14 7
f 7 15 16
f 7 16 17
f 7 17 13
f 7 14 18
f 7 18 19
f 7 19 20
f 7 20 31
f 7 31 46
f 7 46 47
f 7 47 32
f 7 32 21
f 7 21 33
f 7 33 49
f 7 49 66
f 7 66 85
f 7 85 84
f 7 84 79
f 7 79 78
f 7 78 74
f 7 74 73
f 7 73 72
f 7 72 71
f 7 71 88
f 7 88 86
f 7 86 68
f 7 68 67
f 7 67 50
f 7 50 34
f 7 34 30
f 7 30 15
f 8 13 17
f 8 17 9
f 9 17 16
f 9 16 22
f 9 22 10
f 10 22 23
f 11 24 25
f 11 25 26
f 11 26 27
f 11 27 28
f 11 28 12
f 12 28 29
f 15 30 16
f 16 30 22
f 19 31 20
f 21 32 33
f 22 30 34
f 22 34 35
f 22 35 23
f 24 36 37
f 24 37 25
f 25 37 38
f 25 38 39
f 25 39 40
f 25 40 26
f 26 28 41
f 26 41 27
f 26 40 42
f 26 42 28
f 27 41 28
f 28 43 29
f 28 42 44
f 28 44 45
f 28 45 43
f 32 47 48
f 32 48 33
f 33 48 49
f 36 51 37
f 37 51 38
f 38 51 52
f 38 52 53
f 38 53 54
f 38 54 39
f 39 54 40
f 40 44 42
f 40 54 55
f 40 55 44
f 43 45 56
f 44 57 58
f 44 58 45
f 44 55 59
f 44 59 60
f 44 60 57
f 45 58 61
f 45 61 62
f 45 62 56
f 46 63 64
f 46 64 48
f 46 48 47
f 48 65 49
f 48 64 65
f 49 65 66
f 50 67 51
f 51 67 68
f 51 68 69
f 51 69 70
f 51 70 52
f 52 70 54
f 52 54 53
f 54 70 69
f 54 69 71
f 54 71 72
f 54 72 73
f 54 73 74
f 54 74 75
f 54 75 55
f 55 75 59
f 57 60 64
f 57 64 76
f 59 77 60
f 59 75 78
f 59 78 79
f 59 79 80
f 59 80 77
f 60 77 81
f 60 81 64
f 63 82 64
f 64 82 76
f 64 81 77
f 64 77 83
f 64 83 65
f 65 84 85
f 65 85 66
f 65 83 77
f 65 77 80
f 65 80 79
f 65 79 84
f 68 86 87
f 68 87 69
f 69 87 71
f 71 87 88
f 74 78 75
f 86 88 87

