# https://github.com/mikedh/trimesh
v 0.76809656 1.24582281 -0.95009665
v 0.66912960 1.24582281 -0.95009665
v 0.76809656 1.03005126 -0.95009665
v 0.76809656 1.24582281 -1.36284295
v 0.50040613 1.03005126 -1.01687218
v 0.53120485 1.03005126 -0.99206435
v 0.58349105 1.03005126 -0.95339484
v 0.58853597 1.03005126 -0.95009665
v 0.59289574 1.24582281 -1.02007470
v 0.76809656 1.03005126 -1.27111627
v 0.76809656 1.06245077 -1.28947116
v 0.54777204 1.03005126 -1.42335674
v 0.73698646 1.24582281 -1.38224942
v 0.46506078 1.03005126 -1.05224361
v 0.55730125 1.24582281 -1.06218583
v 0.48938210 1.13098822 -1.07676457
v 0.75825597 1.03005126 -1.27967227
v 0.76809656 1.05867012 -1.28775041
v 0.51320519 1.03005126 -1.43841355
v 0.55614903 1.06481628 -1.42923606
v 0.66411585 1.24582281 -1.42354805
v 0.46082558 1.03005126 -1.09822644
v 0.55241207 1.24582281 -1.06945137
v 0.48938210 1.13098822 -1.08742384
v 0.44998841 1.03005126 -1.40103450
v 0.50626072 1.03005126 -1.43827023
v 0.59943543 1.24582281 -1.43788781
v 0.57869533 1.16011407 -1.43755318
v 0.56832528 1.11168369 -1.43458963
v 0.62285368 1.24582281 -1.43506759
v 0.55241207 1.24582281 -1.09645791
v 0.55443624 1.24582281 -1.40543204
v 0.49118835 1.12714418 -1.43272534
v 0.46428228 1.03005126 -1.43731409
v 0.55477884 1.23042560 -1.43635816
v 0.55733242 1.24582281 -1.43501982
v 0.48455521 1.08982349 -1.43659725
f 1 2 8
f 1 8 3
f 1 3 10
f 1 10 18
f 1 18 11
f 1 11 4
f 1 4 13
f 1 13 21
f 1 21 30
f 1 30 27
f 1 27 36
f 1 36 32
f 1 32 31
f 1 31 23
f 1 23 15
f 1 15 9
f 1 9 2
f 2 5 6
f 2 6 7
f 2 7 8
f 2 9 5
f 3 8 7
f 3 7 6
f 3 6 5
f 3 5 14
f 3 14 22
f 3 22 25
f 3 25 34
f 3 34 26
f 3 26 19
f 3 19 12
f 3 12 17
f 3 17 10
f 4 11 12
f 4 12 13
f 5 9 14
f 9 15 16
f 9 16 14
f 10 17 18
f 11 18 12
f 12 19 20
f 12 20 21
f 12 21 13
f 12 18 17
f 14 16 22
f 15 23 16
f 16 23 31
f 16 31 24
f 16 24 25
f 16 25 22
f 19 26 27
f 19 27 28
f 19 28 29
f 19 29 20
f 20 29 21
f 21 29 28
f 21 28 30
f 24 31 32
f 24 32 33
f 24 33 25
f 25 33 34
f 26 34 27
f 27 34 35
f 27 35 36
f 27 30 28
f 32 36 33
f 33 36 37
f 33 37 34
f 34 37 35
f 35 37 36

