# https://github.com/mikedh/trimesh
v -2.28482422 -0.11038728 1.23256290
v -1.93857245 -0.11038728 1.23256290
v -2.25737135 -0.11038728 1.10086755
v -2.26939694 -1.17072179 1.23256290
v -1.89803980 -0.11038728 1.10086755
v -1.79536678 -0.67907968 1.23256290
v -2.25646089 -0.13130822 1.10086755
v -2.25114294 -1.20006210 1.16862310
v -2.26642648 -1.22544784 1.23256290
v -1.79536678 -0.57766412 1.10086755
v -1.79536678 -0.66389924 1.21671978
v -1.79536678 -0.59794721 1.13461641
v -1.79536678 -0.59769210 1.13424258
v -1.79536678 -1.40238287 1.23256290
v -2.25377792 -0.17136416 1.10086755
v -2.14444526 -1.23042298 1.12149329
v -2.19278753 -1.30071220 1.16233225
v -2.18263042 -1.34038542 1.16761761
v -2.24103361 -1.24687901 1.19091182
v -2.24975347 -0.20389369 1.10086755
v -2.23552393 -0.31640751 1.10086755
v -2.23121198 -0.35008512 1.10086755
v -2.22646880 -0.38682434 1.10086755
v -2.25143043 -1.25861521 1.23256290
v -1.79536678 -1.37112903 1.10086755
v -2.00104808 -1.41335362 1.23256290
v -2.07411225 -1.23042298 1.10124137
v -2.14444526 -1.30071220 1.14115221
v -2.21022704 -1.33757903 1.23256290
v -2.23039750 -1.30173277 1.23256290
v -2.22546259 -1.29420625 1.21053202
v -2.14444526 -1.34663625 1.16386630
v -2.14051678 -1.38235490 1.20932024
v -2.15254237 -1.39192235 1.23256290
v -2.17256908 -1.38095160 1.23256290
v -2.19633276 -1.36041339 1.23256290
v -2.19087106 -1.35148378 1.20479551
v -2.24553729 -1.27162701 1.23256290
v -2.21314951 -0.45711355 1.10086755
v -2.07411225 -1.41360874 1.23256290
v -2.07411225 -1.38707482 1.19560413
v -2.07411225 -1.30071220 1.12654660
v -1.99424489 -1.14916291 1.10086755
v -2.19537453 -0.52740288 1.10086755
v -2.19020032 -0.54768597 1.10086755
v -2.18301368 -0.57575059 1.10086755
v -2.17395855 -0.61083145 1.10086755
v -2.16595742 -0.64106477 1.10086755
v -2.15872279 -0.66798137 1.10086755
v -2.13548611 -0.73827058 1.10086755
v -2.11761537 -1.40531687 1.23256290
f 1 2 5
f 1 5 3
f 1 3 4
f 1 4 9
f 1 9 24
f 1 24 38
f 1 38 30
f 1 30 29
f 1 29 36
f 1 36 35
f 1 35 34
f 1 34 51
f 1 51 40
f 1 40 26
f 1 26 14
f 1 14 6
f 1 6 2
f 2 6 5
f 3 5 10
f 3 10 25
f 3 25 43
f 3 43 50
f 3 50 49
f 3 49 48
f 3 48 47
f 3 47 46
f 3 46 45
f 3 45 44
f 3 44 39
f 3 39 23
f 3 23 22
f 3 22 21
f 3 21 20
f 3 20 15
f 3 15 7
f 3 7 8
f 3 8 4
f 4 8 9
f 5 6 11
f 5 11 12
f 5 12 13
f 5 13 10
f 6 14 25
f 6 25 10
f 6 10 13
f 6 13 12
f 6 12 11
f 7 15 8
f 8 16 17
f 8 17 18
f 8 18 19
f 8 19 9
f 8 15 20
f 8 20 21
f 8 21 22
f 8 22 23
f 8 23 16
f 9 19 24
f 14 26 25
f 16 27 28
f 16 28 18
f 16 18 17
f 16 23 27
f 18 29 30
f 18 30 31
f 18 31 19
f 18 28 25
f 18 25 32
f 18 32 33
f 18 33 34
f 18 34 35
f 18 35 36
f 18 36 37
f 18 37 29
f 19 31 38
f 19 38 24
f 23 39 27
f 25 26 40
f 25 40 41
f 25 41 32
f 25 28 42
f 25 42 27
f 25 27 43
f 27 42 28
f 27 39 44
f 27 44 45
f 27 45 46
f 27 46 47
f 27 47 48
f 27 48 49
f 27 49 50
f 27 50 43
f 29 37 36
f 30 38 31
f 32 41 33
f 33 41 51
f 33 51 34
f 40 51 41

