# https://github.com/mikedh/trimesh
v 0.74635946 1.79302767 1.23259663
v 0.96613367 1.58305057 1.23259663
v 0.96509215 1.58305057 1.23371286
v 0.87030800 1.58305057 1.33640526
v 0.85976194 1.58305057 1.34821009
v 0.80716195 1.58305057 1.41383030
v 0.80664113 1.58305057 1.41464217
v 0.76575897 1.58305057 1.48888774
v 0.76341540 1.58305057 1.49460414
v 0.75794705 1.58305057 1.55268149
v 0.76627973 1.58305057 1.57700160
v 0.76667031 1.58305057 1.57811773
v 0.77630498 1.60292600 1.57811773
v 0.77916936 1.61192863 1.57338230
v 0.86874561 1.79302767 1.55633453
v 1.72857356 1.79302767 1.23259663
v 1.63730463 1.58305057 1.23259663
v 2.07620222 1.58305057 1.57811773
v 0.83359215 1.70635252 1.57811773
v 0.88163524 1.79302767 1.57811773
v 1.86280770 1.79302767 1.29236519
v 1.90876769 1.76891804 1.30139643
v 1.97764229 1.69710336 1.30227588
v 2.00211967 1.64867864 1.29595066
v 2.05628195 1.58305057 1.29821695
v 2.00381214 1.58305057 1.28174416
v 2.00277051 1.58305057 1.28147365
v 1.72219386 1.75629809 1.23259663
v 1.70461710 1.69747331 1.23259663
v 2.07646268 1.58305057 1.48604646
v 2.04521523 1.62572013 1.57811773
v 1.89691959 1.79302767 1.57811773
v 1.89249282 1.79302767 1.32737402
v 1.98232953 1.70203618 1.34543649
v 2.04300184 1.62280153 1.30569224
v 1.89691959 1.79302767 1.34543649
v 2.05680287 1.58305057 1.29845373
v 1.71294972 1.72425480 1.23259663
v 2.07646268 1.58305057 1.41572456
v 2.04534535 1.62584344 1.48604646
v 2.01748304 1.66088758 1.57811773
v 1.94938940 1.73720373 1.57811773
v 1.89704971 1.79302767 1.52267882
v 1.98245965 1.70213896 1.41572456
v 2.01748304 1.66090822 1.34543649
v 1.89704971 1.79302767 1.38210258
v 2.04521523 1.62574066 1.34543649
v 2.07555138 1.58305057 1.34543649
v 2.07542105 1.58305057 1.34442168
v 2.04534535 1.62584344 1.41572456
v 2.01761317 1.66101089 1.48604646
v 1.98232953 1.70203618 1.57811773
v 1.98245965 1.70213896 1.48604646
v 2.01761317 1.66101089 1.41572456
f 1 2 3
f 1 3 4
f 1 4 5
f 1 5 6
f 1 6 7
f 1 7 8
f 1 8 9
f 1 9 10
f 1 10 11
f 1 11 12
f 1 12 13
f 1 13 14
f 1 14 15
f 1 15 20
f 1 20 32
f 1 32 43
f 1 43 46
f 1 46 36
f 1 36 33
f 1 33 21
f 1 21 16
f 1 16 28
f 1 28 38
f 1 38 29
f 1 29 17
f 1 17 2
f 2 17 27
f 2 27 26
f 2 26 25
f 2 25 37
f 2 37 49
f 2 49 48
f 2 48 39
f 2 39 30
f 2 30 18
f 2 18 12
f 2 12 11
f 2 11 10
f 2 10 9
f 2 9 8
f 2 8 7
f 2 7 6
f 2 6 5
f 2 5 4
f 2 4 3
f 12 18 31
f 12 31 41
f 12 41 52
f 12 52 42
f 12 42 32
f 12 32 20
f 12 20 19
f 12 19 13
f 13 19 15
f 13 15 14
f 15 19 20
f 16 21 22
f 16 22 23
f 16 23 24
f 16 24 25
f 16 25 26
f 16 26 27
f 16 27 28
f 17 29 27
f 18 30 31
f 21 33 22
f 22 33 23
f 23 34 35
f 23 35 24
f 23 33 36
f 23 36 34
f 24 35 25
f 25 35 37
f 27 29 38
f 27 38 28
f 30 39 50
f 30 50 40
f 30 40 31
f 31 40 51
f 31 51 41
f 32 42 43
f 34 44 54
f 34 54 45
f 34 45 35
f 34 36 46
f 34 46 44
f 35 45 47
f 35 47 48
f 35 48 49
f 35 49 37
f 39 48 47
f 39 47 50
f 40 50 54
f 40 54 51
f 41 51 52
f 42 52 53
f 42 53 43
f 43 53 44
f 43 44 46
f 44 53 51
f 44 51 54
f 45 54 50
f 45 50 47
f 51 53 52

