# https://github.com/mikedh/trimesh
v -0.77642609 -0.91102102 -2.52913891
v -0.79977179 -0.88767852 -2.53023963
v -0.69975173 -0.91102102 -2.52115831
v -0.79977179 -0.91102102 -2.51991992
v -0.79977179 -0.87813935 -2.52879484
v -0.69316652 -0.91102102 -2.51861259
v -0.79977179 -0.80771708 -2.51386564
v -0.79977179 -0.91102102 -2.19353960
v -0.69316652 -0.88543590 -2.50616017
v -0.69316652 -0.91102102 -1.82739397
v -0.79977179 -0.80541123 -2.51269598
v -0.79887427 -0.91102102 -1.95762964
v -0.79977179 -0.80768549 -2.37661262
v -0.75107671 -0.82415791 -2.49914263
v -0.69316652 -0.87000585 -2.47272406
v -0.69316652 -0.89669645 -1.83764494
v -0.75772452 -0.91102102 -1.89818776
v -0.79977179 -0.77349298 -2.46894016
v -0.77820023 -0.91102102 -1.92178548
v -0.69791494 -0.78126331 -1.93375659
v -0.69316652 -0.76886558 -1.94098032
v -0.69316652 -0.74967671 -1.96726143
v -0.70933212 -0.76411176 -1.98060838
v -0.79977179 -0.77104502 -2.45132778
v -0.69316652 -0.75425676 -2.00654521
v -0.69316652 -0.85906108 -1.86509551
v -0.69316652 -0.82981192 -1.88683585
v -0.77694790 -0.91102102 -1.92006557
v -0.77643652 -0.90963124 -1.92061603
v -0.69316652 -0.77710967 -1.93100447
v -0.69316652 -0.81528205 -1.89805009
v -0.71351698 -0.82813778 -1.91194730
f 1 2 3
f 1 3 6
f 1 6 10
f 1 10 17
f 1 17 28
f 1 28 19
f 1 19 12
f 1 12 8
f 1 8 4
f 1 4 2
f 2 5 3
f 2 4 8
f 2 8 13
f 2 13 24
f 2 24 18
f 2 18 11
f 2 11 7
f 2 7 5
f 3 5 7
f 3 7 6
f 6 7 9
f 6 9 15
f 6 15 25
f 6 25 22
f 6 22 21
f 6 21 30
f 6 30 31
f 6 31 27
f 6 27 26
f 6 26 16
f 6 16 10
f 7 11 9
f 8 12 13
f 9 14 15
f 9 11 14
f 10 16 17
f 11 18 14
f 12 19 20
f 12 20 21
f 12 21 22
f 12 22 23
f 12 23 24
f 12 24 13
f 14 18 25
f 14 25 15
f 16 26 17
f 17 26 27
f 17 27 28
f 18 24 25
f 19 28 29
f 19 29 30
f 19 30 20
f 20 30 21
f 22 24 23
f 22 25 24
f 27 31 28
f 28 32 29
f 28 31 32
f 29 32 30
f 30 32 31

