# https://github.com/mikedh/trimesh
v -1.54738588 -0.12687076 1.48842298
v -1.35961064 -0.47068304 1.33220112
v -1.36606074 -0.47068304 1.40258379
v -1.37319553 -0.47068304 1.48602163
v -1.54738588 -0.12643816 1.51862555
v -1.54738588 -0.09507435 1.41570654
v -1.34732292 -0.47068304 1.27859392
v -1.34577336 -0.45262182 1.23259663
v -1.36854716 -0.47068304 1.55603227
v -1.54738588 -0.12589740 1.55457794
v -1.54738588 -0.07344413 1.37640588
v -1.33935929 -0.46138202 1.23259663
v -1.33071099 -0.47068304 1.23259663
v -1.35182712 -0.43055902 1.23259663
v -1.54738588 -0.06068229 1.35854813
v -1.54738588 -0.03018369 1.31684613
v -1.54738588 -0.01287952 1.29347545
v -1.54738588 0.00042306 1.27609115
v -1.36000699 -0.47068304 1.57811773
v -1.54738588 -0.10761987 1.57794863
v -1.17925840 -0.47068304 1.23259663
v -1.44418335 0.01491531 1.23259663
v -1.54738588 0.00042306 1.54084638
v -1.37564590 0.63418846 1.53695687
v -1.37240283 0.63418846 1.48602163
v -1.44418335 0.24365487 1.23259663
v -1.17925840 -0.47068304 1.57811773
v -1.54738588 -0.10697096 1.57811773
v -1.17925840 0.00042306 1.23259663
v -1.54738588 -0.00671491 1.54896359
v -1.37528560 0.63418846 1.55616753
v -1.36851112 0.63418846 1.47377823
v -1.34433203 0.63418846 1.41577422
v -1.29420814 0.63418846 1.31028476
v -1.24775981 0.63418846 1.23405096
v -1.24675087 0.63418846 1.23259663
v -1.17925840 0.00042306 1.57811773
v -1.54738588 -0.03548310 1.57811773
v -1.21197767 0.63418846 1.23259663
v -1.54738588 -0.02347832 1.56628021
v -1.35788098 0.63418846 1.57811773
v -1.21197767 0.63418846 1.57811773
f 1 2 3
f 1 3 4
f 1 4 5
f 1 5 10
f 1 10 20
f 1 20 28
f 1 28 38
f 1 38 40
f 1 40 30
f 1 30 23
f 1 23 18
f 1 18 17
f 1 17 16
f 1 16 15
f 1 15 11
f 1 11 6
f 1 6 2
f 2 7 13
f 2 13 21
f 2 21 27
f 2 27 19
f 2 19 9
f 2 9 4
f 2 4 3
f 2 6 8
f 2 8 7
f 4 9 10
f 4 10 5
f 6 11 8
f 7 8 12
f 7 12 13
f 8 14 22
f 8 22 26
f 8 26 36
f 8 36 39
f 8 39 29
f 8 29 21
f 8 21 13
f 8 13 12
f 8 11 15
f 8 15 16
f 8 16 17
f 8 17 18
f 8 18 14
f 9 19 10
f 10 19 20
f 14 18 22
f 18 23 24
f 18 24 25
f 18 25 26
f 18 26 22
f 19 27 37
f 19 37 42
f 19 42 41
f 19 41 38
f 19 38 28
f 19 28 20
f 21 29 37
f 21 37 27
f 23 30 31
f 23 31 24
f 24 31 41
f 24 41 42
f 24 42 39
f 24 39 36
f 24 36 35
f 24 35 34
f 24 34 33
f 24 33 32
f 24 32 25
f 25 32 26
f 26 32 33
f 26 33 34
f 26 34 35
f 26 35 36
f 29 39 42
f 29 42 37
f 30 40 31
f 31 40 38
f 31 38 41

