# https://github.com/mikedh/trimesh
v -1.56634959 -1.05574481 -1.51343359
v -1.61962561 -1.05574481 -1.46375005
v -1.71169803 -0.91102102 -1.45647121
v -1.56634959 -1.03041534 -1.51343359
v -1.05669048 -1.05574481 -1.51343359
v -1.63432620 -1.05574481 -1.44864106
v -1.68892862 -0.98703784 -1.43375251
v -1.74010462 -0.91102102 -1.40645691
v -1.43028573 -0.91102102 -1.51343359
v -1.54733821 -1.01286320 -1.51343359
v -1.07945988 -1.02717122 -1.51343359
v -0.76113025 -0.91102102 -1.43628901
v -0.76654627 -0.92068245 -1.43568260
v -0.83772829 -0.99021114 -1.43529641
v -0.90636815 -1.05574481 -1.43507598
v -1.64858477 -1.05574481 -1.42559140
v -1.67610699 -1.03574188 -1.39664157
v -1.68483900 -1.05017740 -1.35506403
v -1.69633424 -1.00058093 -1.39664157
v -1.74518894 -0.91102102 -1.39664157
v -1.18369073 -0.91102102 -1.51343359
v -0.75538263 -0.91102102 -1.39664157
v -0.72144954 -1.05574481 -1.20237410
v -1.66295376 -1.05574481 -1.39647613
v -1.67875979 -1.05574481 -1.36046800
v -1.68251781 -1.05574481 -1.35136940
v -1.69721840 -1.05574481 -1.31287988
v -1.70915577 -1.02384213 -1.32947787
v -1.74739960 -0.95177767 -1.33317240
v -1.75756844 -0.91381180 -1.36118485
v -1.75602097 -0.91102102 -1.36912531
v -0.75847751 -0.91102102 -1.08155668
v -0.76013545 -0.91102102 -1.06683357
v -0.99335615 -1.05574481 -0.95009665
v -1.70163972 -1.05574481 -1.29832230
v -1.75358935 -0.97693721 -1.27345298
v -1.76652152 -0.93006069 -1.31431367
v -1.76011059 -0.91102102 -1.35837259
v -0.77859417 -0.91102102 -1.05304794
v -1.77182690 -1.05574481 -0.95009665
v -0.80921127 -0.91102102 -1.03143206
v -0.82369084 -0.91102102 -1.02161661
v -0.83861255 -0.91102102 -1.01213214
v -0.84248116 -0.91102102 -1.00970575
v -0.84679185 -0.91102102 -1.00727958
v -0.94903320 -0.91102102 -0.95009665
v -1.71313496 -1.05574481 -1.25486990
v -1.73811503 -1.01384061 -1.25238851
v -1.75900547 -0.98662704 -1.22663691
v -1.77226903 -0.95177767 -1.25238851
v -1.79349097 -0.91102102 -1.25470446
v -1.78232744 -0.91102102 -1.29429680
v -1.77359543 -0.91102102 -1.32241957
v -1.77602715 -1.04827917 -0.95009665
v -1.76972687 -1.05574481 -0.96195230
v -1.85052522 -0.91102102 -0.95009665
v -1.71932471 -1.05574481 -1.22591996
v -1.74353104 -1.02882869 -1.18577622
v -1.76287403 -0.99368188 -1.18577622
v -1.78730132 -0.94919948 -1.18577622
v -1.80786006 -0.91102102 -1.18577622
v -1.80377044 -0.91102102 -1.20590320
v -1.79194371 -1.01949299 -0.95009665
v -1.78752239 -1.01949299 -0.97485565
v -1.75966846 -1.05574481 -1.01841838
v -1.83560335 -0.91102102 -1.03556768
v -1.83173480 -0.92078167 -1.03005349
v -1.83670869 -0.92991894 -0.97485565
v -1.83891935 -0.93395638 -0.95009665
v -1.72750406 -1.05574481 -1.18428732
v -1.75005239 -1.04065762 -1.11546929
v -1.73723076 -1.05574481 -1.13443845
v -1.80034402 -0.94919948 -1.11546929
v -1.82742411 -0.91283429 -1.07692466
v -1.81957637 -0.91102102 -1.12368562
v -1.81968700 -0.96911733 -0.95009665
v -1.75159986 -1.05574481 -1.06027157
v -1.81404992 -0.94621037 -1.05012536
v -1.82797688 -0.91102102 -1.07857889
v -1.83217693 -0.94632362 -0.95009665
v -1.82642942 -0.91102102 -1.08701576
f 1 2 3
f 1 3 4
f 1 4 10
f 1 10 9
f 1 9 21
f 1 21 11
f 1 11 5
f 1 5 15
f 1 15 23
f 1 23 34
f 1 34 40
f 1 40 55
f 1 55 65
f 1 65 77
f 1 77 72
f 1 72 70
f 1 70 57
f 1 57 47
f 1 47 35
f 1 35 27
f 1 27 26
f 1 26 25
f 1 25 24
f 1 24 16
f 1 16 6
f 1 6 2
f 2 6 3
f 3 6 7
f 3 7 8
f 3 8 20
f 3 20 31
f 3 31 38
f 3 38 53
f 3 53 52
f 3 52 51
f 3 51 62
f 3 62 61
f 3 61 75
f 3 75 81
f 3 81 79
f 3 79 66
f 3 66 56
f 3 56 46
f 3 46 45
f 3 45 44
f 3 44 43
f 3 43 42
f 3 42 41
f 3 41 39
f 3 39 33
f 3 33 32
f 3 32 22
f 3 22 12
f 3 12 21
f 3 21 9
f 3 9 10
f 3 10 4
f 5 11 12
f 5 12 13
f 5 13 14
f 5 14 15
f 6 16 7
f 7 16 17
f 7 17 18
f 7 18 19
f 7 19 20
f 7 20 8
f 11 21 12
f 12 22 23
f 12 23 13
f 13 23 14
f 14 23 15
f 16 24 17
f 17 24 18
f 18 24 25
f 18 25 26
f 18 26 27
f 18 27 28
f 18 28 19
f 19 28 29
f 19 29 30
f 19 30 31
f 19 31 20
f 22 32 23
f 23 32 33
f 23 33 34
f 27 35 36
f 27 36 37
f 27 37 28
f 28 37 29
f 29 37 30
f 30 37 38
f 30 38 31
f 33 39 34
f 34 39 41
f 34 41 42
f 34 42 43
f 34 43 44
f 34 44 45
f 34 45 46
f 34 46 56
f 34 56 69
f 34 69 80
f 34 80 76
f 34 76 63
f 34 63 54
f 34 54 40
f 35 47 48
f 35 48 36
f 36 49 50
f 36 50 51
f 36 51 52
f 36 52 37
f 36 48 49
f 37 52 53
f 37 53 38
f 40 54 55
f 47 57 48
f 48 57 58
f 48 58 49
f 49 58 59
f 49 59 60
f 49 60 61
f 49 61 62
f 49 62 50
f 50 62 51
f 54 63 64
f 54 64 65
f 54 65 55
f 56 66 67
f 56 67 68
f 56 68 69
f 57 70 58
f 58 71 59
f 58 70 72
f 58 72 71
f 59 71 73
f 59 73 60
f 60 73 74
f 60 74 61
f 61 74 75
f 63 76 64
f 64 76 67
f 64 67 65
f 65 71 77
f 65 67 78
f 65 78 71
f 66 79 74
f 66 74 67
f 67 74 73
f 67 73 78
f 67 76 68
f 68 76 80
f 68 80 69
f 71 72 77
f 71 78 73
f 74 81 75
f 74 79 81

