# https://github.com/mikedh/trimesh
v 0.58118164 1.97103964 2.43889542
v 0.61504527 1.96010954 2.43889542
v 0.62086770 1.96479384 2.42972023
v 0.58118164 1.97793586 2.42922550
v 0.58118164 0.81557116 2.43889542
v 0.63831260 1.95256249 2.43889542
v 0.66796004 1.98170949 2.38364604
v 0.59764500 2.02829245 2.34946752
v 0.59751116 1.99042747 2.40380183
v 0.66796004 1.95711666 2.41881380
v 0.58118164 2.03076483 2.35315252
v 0.58118164 0.81544104 2.19682704
v 0.60699207 0.81544104 2.18624205
v 0.80908093 1.09754195 2.43889542
v 0.66731314 1.94306376 2.43889542
v 0.71817550 1.97351181 2.37197290
v 0.74026055 1.99237935 2.33443104
v 0.59764500 2.05262503 2.31432469
v 0.58118164 2.11612364 2.23016467
v 0.76504480 1.96583463 2.36099230
v 0.58118164 0.81544104 2.18624205
v 0.80908093 1.71925671 2.18624205
v 0.80908093 1.71873621 2.18634096
v 0.80908093 1.51158478 2.24670964
v 0.80908093 1.51106428 2.24688273
v 0.80908093 1.43767636 2.27856351
v 0.80908093 1.11146472 2.42944803
v 0.80908093 1.11107434 2.42964605
v 0.80908093 1.88932392 2.43889542
v 0.69979369 1.93213366 2.43889542
v 0.74465521 2.09335277 2.18624205
v 0.73825277 2.05405620 2.24614095
v 0.66796004 2.10063936 2.21181408
v 0.60105812 2.13434055 2.19450218
v 0.58118164 2.14149723 2.19180664
v 0.73872125 1.91873118 2.43889542
v 0.78182048 1.90233603 2.43889542
v 0.80908093 1.95620578 2.34778595
v 0.80908093 1.98873584 2.30205793
v 0.80908093 2.01840335 2.26013874
v 0.80908093 2.06264426 2.19756882
v 0.78947215 2.04520810 2.23335494
v 0.58118164 2.14462002 2.18624205
v 0.80908093 2.06381538 2.18624205
v 0.80908093 1.91248538 2.40770936
v 0.80861245 1.88958417 2.43889542
v 0.69736212 2.10870692 2.18624205
v 0.80908093 2.06537689 2.19353766
v 0.80908093 2.06941056 2.18631623
v 0.63195480 2.12991650 2.18624205
v 0.80908093 1.91821068 2.39994397
v 0.80908093 1.91938180 2.39833636
f 1 2 3
f 1 3 4
f 1 4 11
f 1 11 19
f 1 19 35
f 1 35 43
f 1 43 21
f 1 21 12
f 1 12 5
f 1 5 14
f 1 14 29
f 1 29 46
f 1 46 37
f 1 37 36
f 1 36 30
f 1 30 15
f 1 15 6
f 1 6 2
f 2 6 3
f 3 7 8
f 3 8 9
f 3 9 4
f 3 6 10
f 3 10 7
f 4 9 8
f 4 8 11
f 5 12 13
f 5 13 14
f 6 15 10
f 7 10 16
f 7 16 8
f 8 16 17
f 8 17 18
f 8 18 19
f 8 19 11
f 10 15 20
f 10 20 16
f 12 21 13
f 13 22 23
f 13 23 24
f 13 24 25
f 13 25 26
f 13 26 27
f 13 27 28
f 13 28 14
f 13 21 43
f 13 43 50
f 13 50 47
f 13 47 31
f 13 31 44
f 13 44 22
f 14 28 27
f 14 27 26
f 14 26 25
f 14 25 24
f 14 24 23
f 14 23 22
f 14 22 44
f 14 44 49
f 14 49 48
f 14 48 41
f 14 41 40
f 14 40 39
f 14 39 38
f 14 38 52
f 14 52 51
f 14 51 45
f 14 45 29
f 15 30 20
f 16 20 17
f 17 31 32
f 17 32 33
f 17 33 18
f 17 20 31
f 18 33 34
f 18 34 19
f 19 34 35
f 20 30 36
f 20 36 37
f 20 37 38
f 20 38 39
f 20 39 40
f 20 40 41
f 20 41 42
f 20 42 31
f 29 45 46
f 31 47 34
f 31 34 33
f 31 33 32
f 31 42 41
f 31 41 48
f 31 48 49
f 31 49 44
f 34 47 50
f 34 50 43
f 34 43 35
f 37 46 45
f 37 45 51
f 37 51 52
f 37 52 38

