# https://github.com/mikedh/trimesh
v 0.10540224 -1.30077014 3.32996883
v -0.10545988 -1.30077014 3.32996883
v 0.03511487 -1.37108073 3.32543330
v 0.17575700 -1.30077014 3.32979428
v 0.37651068 -1.24061770 3.32831156
v -0.17574725 -1.30077014 3.32979428
v -0.03510512 -1.37108073 3.32543330
v 0.37651068 -1.23045955 3.32796268
v 0.03511487 -1.44139132 3.31208802
v 0.10540224 -1.37108073 3.32508420
v 0.24604437 -1.30077014 3.32909650
v 0.31633173 -1.30077014 3.32804984
v 0.37651068 -1.30077014 3.32682885
v -0.24603460 -1.30077014 3.32909650
v -0.10545988 -1.37108073 3.32508420
v -0.31180689 -1.23045955 3.32534592
v -0.03510512 -1.44139132 3.31208802
v 0.37651068 -1.17030711 3.31758304
v 0.10540224 -1.44139132 3.31043076
v 0.17575700 -1.37108073 3.32429926
v 0.03511487 -1.49487123 3.29115441
v 0.37651068 -1.31092829 3.32578198
v -0.31180689 -1.30077014 3.32804984
v -0.17574725 -1.37108073 3.32429926
v 0.37651068 -1.16014895 3.31531538
v -0.31180689 -1.16014895 3.30929693
v -0.10545988 -1.44139132 3.31043076
v -0.03510512 -1.49487123 3.29115441
v 0.17575700 -1.44139132 3.30807572
v 0.31633173 -1.37108073 3.32054868
v 0.24604437 -1.37108073 3.32264200
v 0.10540224 -1.49268026 3.28993341
v 0.03511487 -1.53002652 3.26647022
v 0.37651068 -1.37108073 3.31749587
v -0.31180689 -1.37108073 3.32072323
v -0.24603460 -1.37108073 3.32264200
v 0.37651068 -1.09272647 3.29316056
v -0.31180689 -1.10218748 3.28853766
v -0.17574725 -1.44139132 3.30807572
v -0.10545988 -1.49268026 3.28993341
v -0.03510512 -1.53002652 3.26647022
v 0.24604437 -1.44139132 3.30371454
v 0.17575700 -1.48979215 3.28810160
v 0.10540224 -1.52783556 3.26472579
v 0.03511487 -1.57225269 3.23131922
v 0.37651068 -1.38263317 3.31365812
v -0.31180689 -1.44696837 3.29569015
v -0.24603460 -1.44139132 3.30371454
v 0.37651068 -1.08635264 3.29080553
v 0.37651068 -1.07649330 3.28714211
v 0.37651068 -1.05488224 3.27894317
v -0.31180689 -1.06703219 3.26926131
v -0.17574725 -1.48979215 3.28810160
v -0.10545988 -1.52783556 3.26472579
v -0.03510512 -1.57225269 3.23131922
v 0.37651068 -1.43651141 3.29490499
v 0.24604437 -1.48471297 3.28461274
v 0.17575700 -1.52494745 3.26254530
v 0.10540224 -1.57006172 3.22957479
v 0.17575700 -1.56747242 3.22739430
v 0.03511487 -1.60740798 3.19904669
v -0.31180689 -1.45891915 3.29002058
v -0.24603460 -1.48471297 3.28461274
v 0.37651068 -1.03864906 3.26210903
v -0.31180689 -1.06504039 3.26699365
v -0.17574725 -1.52494745 3.26254530
v -0.17574725 -1.56747242 3.22739430
v -0.10545988 -1.57006172 3.22957479
v -0.03510512 -1.60740798 3.19895952
v 0.37651068 -1.44437907 3.29080553
v 0.24604437 -1.51986837 3.25835845
v 0.29793439 -1.47973353 3.28112366
v 0.24604437 -1.56269204 3.22320745
v 0.10540224 -1.60521702 3.19686599
v 0.17575700 -1.60262771 3.19442379
v -0.03510512 -1.64176660 3.16380852
v 0.03511487 -1.64176660 3.16380852
v -0.31180689 -1.49716183 3.26559811
v -0.29792462 -1.47973353 3.28112366
v -0.24603460 -1.51986837 3.25835845
v -0.31180689 -1.03864906 3.23533152
v 0.37651068 -1.03864906 2.53466656
v -0.24603460 -1.56269204 3.22320745
v -0.17574725 -1.60262771 3.19442379
v -0.10545988 -1.60521702 3.19686599
v 0.34477015 -1.47515233 3.27798368
v 0.37651068 -1.47106920 3.27519259
v 0.31936427 -1.50662283 3.25722462
v 0.31633173 -1.55601951 3.21727638
v 0.24604437 -1.59784734 3.18988826
v 0.10540224 -1.63937647 3.16171499
v 0.17575700 -1.63688670 3.15927279
v 0.24604437 -1.63220596 3.15473726
v -0.10545988 -1.63937647 3.16171499
v -0.03510512 -1.67692190 3.12045837
v 0.03511487 -1.67692190 3.12045837
v -0.31180689 -1.50791749 3.25731179
v -0.31180689 -1.55641785 3.21762526
v -0.31180689 -1.03864906 2.83454030
v 0.04185383 -1.03864906 2.43889542
v 0.37651068 -1.31471271 2.43889542
v -0.24603460 -1.59784734 3.18988826
v -0.24603460 -1.63220596 3.15473726
v -0.17574725 -1.63688670 3.15927279
v 0.37651068 -1.51568550 3.23934382
v 0.37651068 -1.53799371 3.22128868
v 0.36822174 -1.55064163 3.21239176
v 0.31633173 -1.59117481 3.18334638
v 0.37651068 -1.62065352 3.14243864
v 0.10540224 -1.67453176 3.11592285
v 0.17575700 -1.67204199 3.11129994
v -0.10545988 -1.67453176 3.11592285
v -0.17574725 -2.04719791 2.43889542
v -0.10545988 -2.05167937 2.43889542
v -0.05040256 -2.05506535 2.43889542
v -0.03510512 -2.05596177 2.43889542
v 0.03511487 -2.05596177 2.43889542
v 0.10540224 -2.05167937 2.43889542
v 0.17575700 -2.04729744 2.43889542
v -0.31180689 -1.59157315 3.18378243
v -0.07607800 -1.03864906 2.43889542
v -0.31180689 -1.11134979 2.69908264
v 0.37651068 -2.01941229 2.43889542
v -0.31180689 -1.62403950 3.15089930
v -0.31180689 -1.62623057 3.14863143
v -0.17574725 -1.67204199 3.11129994
v 0.37651068 -1.54974532 3.21143227
v 0.37651068 -1.56119822 3.20044224
v 0.24510091 -1.66985103 3.09847810
v 0.37651068 -1.64017315 3.10850885
v 0.22104283 -1.68927102 3.07187514
v 0.24604437 -2.04142169 2.43889542
v -0.18275577 -2.04669983 2.43889542
v -0.31180689 -1.29648774 2.47125533
v -0.31180689 -1.29359963 2.47439531
v -0.31180689 -1.26541567 2.50544684
v -0.31180689 -1.24081687 2.53623665
v -0.31180689 -1.13913540 2.66393164
v -0.31180689 -1.32746027 2.43889542
v 0.34241153 -2.02598519 2.43889542
v -0.31180689 -1.65491250 3.10283929
v -0.24509117 -1.66985103 3.09847810
v -0.22103306 -1.68927102 3.07187514
v -0.24603460 -2.04142169 2.43889542
v 0.28634336 -2.03674095 2.43889542
v 0.32482282 -2.02937117 2.43889542
v -0.31180689 -2.03166167 2.43889542
v -0.28640099 -2.03674095 2.43889542
v -0.28040333 -2.03763716 2.43889542
f 1 2 7
f 1 7 3
f 1 3 4
f 1 4 5
f 1 5 2
f 2 6 7
f 2 5 8
f 2 8 6
f 3 7 17
f 3 17 9
f 3 9 10
f 3 10 4
f 4 10 11
f 4 11 5
f 5 11 12
f 5 12 13
f 5 13 22
f 5 22 34
f 5 34 46
f 5 46 56
f 5 56 70
f 5 70 87
f 5 87 105
f 5 105 106
f 5 106 127
f 5 127 128
f 5 128 109
f 5 109 130
f 5 130 123
f 5 123 101
f 5 101 82
f 5 82 64
f 5 64 51
f 5 51 50
f 5 50 49
f 5 49 37
f 5 37 25
f 5 25 18
f 5 18 8
f 6 14 15
f 6 15 7
f 6 8 16
f 6 16 14
f 7 15 17
f 8 18 16
f 9 19 31
f 9 31 20
f 9 20 10
f 9 17 28
f 9 28 21
f 9 21 19
f 10 20 11
f 11 20 12
f 12 20 13
f 13 20 22
f 14 23 24
f 14 24 15
f 14 16 23
f 15 24 17
f 16 18 25
f 16 25 26
f 16 26 38
f 16 38 52
f 16 52 65
f 16 65 81
f 16 81 99
f 16 99 122
f 16 122 138
f 16 138 137
f 16 137 136
f 16 136 135
f 16 135 134
f 16 134 139
f 16 139 147
f 16 147 141
f 16 141 125
f 16 125 124
f 16 124 120
f 16 120 98
f 16 98 97
f 16 97 78
f 16 78 62
f 16 62 47
f 16 47 35
f 16 35 23
f 17 24 27
f 17 27 28
f 19 29 30
f 19 30 31
f 19 21 32
f 19 32 29
f 20 31 22
f 21 28 41
f 21 41 33
f 21 33 32
f 22 31 30
f 22 30 34
f 23 35 36
f 23 36 24
f 24 36 27
f 25 37 26
f 26 37 38
f 27 36 35
f 27 35 39
f 27 39 40
f 27 40 28
f 28 40 41
f 29 42 34
f 29 34 30
f 29 32 43
f 29 43 42
f 32 33 44
f 32 44 43
f 33 41 55
f 33 55 45
f 33 45 59
f 33 59 44
f 34 42 46
f 35 47 48
f 35 48 39
f 37 49 38
f 38 49 50
f 38 50 51
f 38 51 52
f 39 48 53
f 39 53 40
f 40 53 54
f 40 54 41
f 41 54 68
f 41 68 55
f 42 56 46
f 42 43 57
f 42 57 56
f 43 44 58
f 43 58 57
f 44 59 60
f 44 60 58
f 45 55 61
f 45 61 59
f 47 62 63
f 47 63 48
f 48 63 53
f 51 64 52
f 52 64 65
f 53 63 66
f 53 66 54
f 54 66 67
f 54 67 68
f 55 68 69
f 55 69 61
f 56 57 70
f 57 58 71
f 57 71 72
f 57 72 70
f 58 60 73
f 58 73 71
f 59 61 74
f 59 74 60
f 60 74 75
f 60 75 73
f 61 69 76
f 61 76 77
f 61 77 74
f 62 78 79
f 62 79 63
f 63 79 80
f 63 80 66
f 64 81 65
f 64 82 100
f 64 100 121
f 64 121 99
f 64 99 81
f 66 80 83
f 66 83 67
f 67 83 84
f 67 84 85
f 67 85 68
f 68 85 69
f 69 85 76
f 70 86 87
f 70 72 86
f 71 88 86
f 71 86 72
f 71 73 89
f 71 89 88
f 73 75 90
f 73 90 89
f 74 77 91
f 74 91 92
f 74 92 75
f 75 92 93
f 75 93 90
f 76 85 94
f 76 94 95
f 76 95 96
f 76 96 77
f 77 96 91
f 78 97 80
f 78 80 79
f 80 97 98
f 80 98 83
f 82 101 100
f 83 98 102
f 83 102 84
f 84 103 104
f 84 104 85
f 84 102 103
f 85 104 94
f 86 88 105
f 86 105 87
f 88 89 106
f 88 106 105
f 89 107 106
f 89 90 108
f 89 108 107
f 90 93 109
f 90 109 108
f 91 96 92
f 92 96 110
f 92 110 111
f 92 111 93
f 93 111 109
f 94 104 95
f 95 104 112
f 95 112 113
f 95 113 114
f 95 114 115
f 95 115 116
f 95 116 117
f 95 117 96
f 96 117 118
f 96 118 119
f 96 119 110
f 98 120 102
f 99 121 122
f 100 101 123
f 100 123 140
f 100 140 146
f 100 146 145
f 100 145 132
f 100 132 119
f 100 119 118
f 100 118 117
f 100 117 116
f 100 116 115
f 100 115 114
f 100 114 113
f 100 113 133
f 100 133 144
f 100 144 149
f 100 149 148
f 100 148 147
f 100 147 139
f 100 139 121
f 102 120 124
f 102 124 103
f 103 124 125
f 103 125 126
f 103 126 104
f 104 126 112
f 106 107 127
f 107 108 128
f 107 128 127
f 108 109 128
f 109 111 129
f 109 129 130
f 110 119 111
f 111 131 129
f 111 119 132
f 111 132 131
f 112 126 133
f 112 133 113
f 121 134 135
f 121 135 136
f 121 136 137
f 121 137 138
f 121 138 122
f 121 139 134
f 123 130 140
f 125 141 142
f 125 142 126
f 126 142 143
f 126 143 144
f 126 144 133
f 129 131 145
f 129 145 130
f 130 145 146
f 130 146 140
f 131 132 145
f 141 147 148
f 141 148 142
f 142 148 143
f 143 148 149
f 143 149 144

