# https://github.com/mikedh/trimesh
v -0.59541071 -1.54888358 2.18852815
v -0.59541071 -1.41866299 1.88911760
v -0.59127992 -1.55367097 2.18852815
v -0.59541071 1.34437551 2.18852815
v -0.59541071 -1.41834385 1.88853025
v -0.42910470 -1.47834731 1.88853025
v -0.56386624 -1.54696858 2.15278687
v -0.24611441 -1.51792424 1.90791336
v -0.04745920 -1.54122358 1.90250960
v -0.04745920 -1.54345771 1.92145215
v -0.04745920 -1.54728771 1.95416849
v -0.04745920 -1.54824510 1.97822123
v -0.04745920 -1.54792597 2.04852910
v -0.04745920 -1.52590337 2.08568017
v -0.04745920 -1.52079664 2.09402076
v -0.04745920 -1.51696664 2.09968886
v -0.56177396 -1.54760684 2.18852815
v -0.08034488 1.70248208 2.18852815
v -0.59541071 1.41778417 2.09713371
v -0.59541071 1.41810330 1.88853025
v -0.40748492 -1.48441165 1.88853025
v -0.35056533 -1.49558251 1.88853025
v -0.31644578 -1.50866838 1.90791336
v -0.27760527 -1.50483838 1.88853025
v -0.04745920 -1.53994684 1.90051257
v -0.04745920 -1.44132385 2.11936564
v -0.04745920 -1.15662593 2.18033424
v -0.04745920 -1.10396314 2.18852815
v -0.04745920 1.70695055 2.18852815
v -0.07621406 1.69354556 2.13980599
v -0.59541071 1.42416764 1.90791336
v -0.59541071 1.43023177 1.97822123
v -0.59541071 1.42991264 2.04852910
v -0.59541071 1.41874177 2.09551856
v -0.42942658 1.47874523 1.88853025
v -0.06376792 -1.52718011 1.88853025
v -0.04745920 -1.53803184 1.89801620
v -0.04745920 1.69960969 2.15948277
v -0.05690109 1.69354556 2.13980599
v -0.04745920 1.54162150 1.90209838
v -0.31644578 1.49981043 1.88853025
v -0.38666985 1.48768196 1.88853025
v -0.04745920 -1.52877598 1.88853025
v -0.04745920 1.53045063 1.89096785
v -0.04745920 1.52789716 1.88853025
f 1 2 3
f 1 3 17
f 1 17 28
f 1 28 29
f 1 29 18
f 1 18 4
f 1 4 19
f 1 19 34
f 1 34 33
f 1 33 32
f 1 32 31
f 1 31 20
f 1 20 5
f 1 5 2
f 2 5 6
f 2 6 3
f 3 6 7
f 3 7 8
f 3 8 9
f 3 9 10
f 3 10 11
f 3 11 12
f 3 12 13
f 3 13 14
f 3 14 15
f 3 15 16
f 3 16 17
f 4 18 19
f 5 20 35
f 5 35 42
f 5 42 41
f 5 41 45
f 5 45 43
f 5 43 36
f 5 36 24
f 5 24 22
f 5 22 21
f 5 21 6
f 6 21 7
f 7 21 22
f 7 22 23
f 7 23 8
f 8 23 22
f 8 22 9
f 9 22 24
f 9 24 25
f 9 25 37
f 9 37 43
f 9 43 45
f 9 45 44
f 9 44 40
f 9 40 38
f 9 38 29
f 9 29 28
f 9 28 27
f 9 27 26
f 9 26 16
f 9 16 15
f 9 15 14
f 9 14 13
f 9 13 12
f 9 12 11
f 9 11 10
f 16 26 17
f 17 26 27
f 17 27 28
f 18 29 30
f 18 30 31
f 18 31 32
f 18 32 33
f 18 33 34
f 18 34 19
f 20 31 30
f 20 30 35
f 24 36 37
f 24 37 25
f 29 38 30
f 30 38 39
f 30 39 40
f 30 40 41
f 30 41 42
f 30 42 35
f 36 43 37
f 38 40 39
f 40 44 41
f 41 44 45

