# https://github.com/mikedh/trimesh
v -0.53505533 2.55516414 1.58345538
v -0.53505533 2.55516414 1.57813522
v -0.54913112 2.55255367 1.57813522
v -0.53505533 2.55508724 1.69697436
v -0.53505533 1.97812194 1.57813522
v -0.59771960 2.54326386 1.57813522
v -0.59771960 2.54318717 1.69697436
v -0.63913479 2.53289931 1.73512222
v -0.53505533 2.55447307 1.70180607
v -0.53505533 2.00445585 1.75631546
v -1.00970635 1.77098244 1.57813522
v -0.61152466 2.54034641 1.57813522
v -0.64224774 2.53382066 1.69697436
v -0.67743713 2.52291843 1.69697436
v -0.73834188 2.50387824 1.69697436
v -0.80858531 2.48176700 1.69697436
v -0.85351949 2.46395514 1.73702350
v -0.80858531 2.47124886 1.74494270
v -0.59771960 2.53712199 1.74094821
v -0.53505533 2.54311047 1.74721025
v -0.53505533 2.52291843 1.75631546
v -1.07819037 1.77098244 1.75631546
v -1.91772852 1.77098244 1.57813522
v -0.64238305 2.53382066 1.57813522
v -0.66660960 2.52675723 1.57813522
v -0.67743713 2.52353260 1.62667907
v -0.73834188 2.50456930 1.62667907
v -0.73834188 2.50464600 1.57813522
v -0.76013225 2.49758277 1.57813522
v -0.85852722 2.46564425 1.57813522
v -0.85839190 2.46556756 1.69697436
v -0.89358130 2.45343700 1.69697436
v -0.94920765 2.43378263 1.69697436
v -1.00632278 2.40084607 1.74370420
v -0.73834188 2.48199729 1.75183263
v -0.94920765 2.41174809 1.75136169
v -0.53505533 2.53980894 1.74888480
v -0.53505533 2.53858061 1.74949530
v -0.56956807 2.51508745 1.75631546
v -1.87238836 1.77098244 1.75631546
v -1.91759316 1.77098244 1.69697436
v -1.84599619 1.84722033 1.69697436
v -1.84599619 1.84729703 1.57813522
v -0.67757245 2.52353260 1.57813522
v -0.69638529 2.51769770 1.57813522
v -0.89371667 2.45412785 1.57813522
v -0.89358130 2.45405116 1.62667907
v -0.94920765 2.43439680 1.62667907
v -1.01728568 2.40598989 1.69697436
v -1.19675166 2.32084628 1.73320356
v -1.16020878 2.32944502 1.74223898
v -1.08982998 2.34579827 1.75195479
v -0.76080897 2.46395514 1.75631546
v -1.11716938 2.32222821 1.75631546
v -0.94920765 2.39831229 1.75631546
v -1.74056331 1.92245997 1.75631546
v -1.87996747 1.77098244 1.75422235
v -1.90757771 1.77098244 1.74021565
v -1.83990566 1.84084797 1.74323326
v -1.81216027 1.88238328 1.69697436
v -1.82271697 1.87155795 1.57813522
v -0.94920765 2.43447349 1.57813522
v -0.97032126 2.42572115 1.57813522
v -1.01742094 2.40606658 1.57813522
v -1.19742837 2.32123016 1.69697436
v -1.23248235 2.30387887 1.69697436
v -1.29568802 2.26871593 1.69697436
v -1.41627945 2.18602898 1.74012838
v -1.28567257 2.26242046 1.74464609
v -1.22436178 2.28552974 1.74869286
v -1.19052576 2.28529946 1.75631546
v -1.65976307 1.99293945 1.75631546
v -1.77060967 1.91009912 1.74344259
v -1.90514158 1.77098244 1.74326815
v -1.88443385 1.77098244 1.75298385
v -1.81229564 1.88238328 1.57813522
v -1.77710608 1.91593401 1.69697436
v -1.17171302 2.33343742 1.57813522
v -1.19756363 2.32123016 1.57813522
v -1.22179019 2.30925319 1.57813522
v -1.23261772 2.30387887 1.57813522
v -1.25210727 2.29305375 1.57813522
v -1.29582339 2.26871593 1.57813522
v -1.32004994 2.25359122 1.57813522
v -1.33087737 2.24675828 1.62667907
v -1.42142244 2.18925361 1.69697436
v -1.45661189 2.16698878 1.69697436
v -1.51061408 2.13190253 1.69697436
v -1.54580353 2.10856296 1.69697436
v -1.62146078 2.04261314 1.73665722
v -1.49924519 2.12437853 1.74565786
v -1.44037064 2.14648976 1.75342001
v -1.30462067 2.22111523 1.75631546
v -1.64040888 2.00906220 1.75631546
v -1.69657657 1.97635613 1.74070399
v -1.77710608 1.91601070 1.57813522
v -1.73636766 1.95109716 1.69697436
v -1.74908997 1.94027183 1.57813522
v -1.34332906 2.23892709 1.57813522
v -1.44578436 2.17389862 1.57813522
v -1.45661189 2.16698878 1.57813522
v -1.47339448 2.15624035 1.57813522
v -1.38663908 2.21144175 1.57813522
v -1.51074944 2.13190253 1.57813522
v -1.54580353 2.10871656 1.57813522
v -1.55703704 2.09950344 1.57813522
v -1.58194031 2.07900442 1.57813522
v -1.58194031 2.07877413 1.69697436
v -1.62362618 2.04437895 1.69697436
v -1.62227275 2.02126967 1.75631546
v -1.58194031 2.04744999 1.75631546
v -1.42791896 2.14610588 1.75631546
v -1.30665081 2.21988690 1.75631546
v -1.72554023 1.96015648 1.57813522
v -1.73636766 1.95117385 1.57813522
v -1.67194393 2.00453254 1.57813522
f 1 2 3
f 1 3 4
f 1 4 9
f 1 9 20
f 1 20 37
f 1 37 38
f 1 38 21
f 1 21 10
f 1 10 5
f 1 5 2
f 2 5 11
f 2 11 23
f 2 23 43
f 2 43 61
f 2 61 76
f 2 76 96
f 2 96 98
f 2 98 115
f 2 115 114
f 2 114 116
f 2 116 107
f 2 107 106
f 2 106 105
f 2 105 104
f 2 104 102
f 2 102 101
f 2 101 100
f 2 100 103
f 2 103 99
f 2 99 84
f 2 84 83
f 2 83 82
f 2 82 81
f 2 81 80
f 2 80 79
f 2 79 78
f 2 78 64
f 2 64 63
f 2 63 62
f 2 62 46
f 2 46 30
f 2 30 29
f 2 29 28
f 2 28 45
f 2 45 44
f 2 44 25
f 2 25 24
f 2 24 12
f 2 12 6
f 2 6 3
f 3 6 7
f 3 7 4
f 4 7 8
f 4 8 9
f 5 10 11
f 6 12 13
f 6 13 7
f 7 13 8
f 8 13 14
f 8 14 15
f 8 15 16
f 8 16 17
f 8 17 18
f 8 18 19
f 8 19 9
f 9 19 20
f 10 21 39
f 10 39 53
f 10 53 55
f 10 55 54
f 10 54 71
f 10 71 93
f 10 93 113
f 10 113 112
f 10 112 111
f 10 111 110
f 10 110 94
f 10 94 72
f 10 72 56
f 10 56 40
f 10 40 22
f 10 22 11
f 11 22 40
f 11 40 57
f 11 57 75
f 11 75 74
f 11 74 58
f 11 58 41
f 11 41 23
f 12 24 13
f 13 24 25
f 13 25 26
f 13 26 14
f 14 26 27
f 14 27 15
f 15 27 16
f 16 27 28
f 16 28 29
f 16 29 30
f 16 30 31
f 16 31 17
f 17 31 32
f 17 32 33
f 17 33 34
f 17 34 18
f 18 35 19
f 18 34 36
f 18 36 35
f 19 35 20
f 20 35 37
f 21 38 39
f 23 41 42
f 23 42 43
f 25 44 26
f 26 44 45
f 26 45 28
f 26 28 27
f 30 46 31
f 31 46 47
f 31 47 32
f 32 47 48
f 32 48 33
f 33 48 49
f 33 49 34
f 34 49 50
f 34 50 51
f 34 51 52
f 34 52 36
f 35 53 39
f 35 39 38
f 35 38 37
f 35 36 53
f 36 52 54
f 36 54 55
f 36 55 53
f 40 56 57
f 41 58 42
f 42 59 60
f 42 60 61
f 42 61 43
f 42 58 59
f 46 62 48
f 46 48 47
f 48 62 63
f 48 63 49
f 49 63 64
f 49 64 65
f 49 65 50
f 50 65 66
f 50 66 67
f 50 67 68
f 50 68 69
f 50 69 51
f 51 69 70
f 51 70 52
f 52 70 54
f 54 70 71
f 56 72 73
f 56 73 59
f 56 59 74
f 56 74 75
f 56 75 57
f 58 74 59
f 59 73 60
f 60 76 61
f 60 73 77
f 60 77 76
f 64 78 65
f 65 78 79
f 65 79 80
f 65 80 66
f 66 80 81
f 66 81 82
f 66 82 67
f 67 82 83
f 67 83 84
f 67 84 85
f 67 85 86
f 67 86 68
f 68 86 87
f 68 87 88
f 68 88 89
f 68 89 90
f 68 90 91
f 68 91 69
f 69 91 92
f 69 92 93
f 69 93 71
f 69 71 70
f 72 94 90
f 72 90 95
f 72 95 73
f 73 95 77
f 76 77 96
f 77 95 90
f 77 90 97
f 77 97 98
f 77 98 96
f 84 99 85
f 85 99 87
f 85 87 86
f 87 100 101
f 87 101 102
f 87 102 88
f 87 99 103
f 87 103 100
f 88 102 104
f 88 104 105
f 88 105 89
f 89 105 106
f 89 106 107
f 89 107 108
f 89 108 90
f 90 109 97
f 90 94 91
f 90 108 109
f 91 94 110
f 91 110 92
f 92 110 111
f 92 111 112
f 92 112 113
f 92 113 93
f 97 114 115
f 97 115 98
f 97 109 107
f 97 107 116
f 97 116 114
f 107 109 108

