# https://github.com/mikedh/trimesh
v 0.79834754 1.03005126 -1.19797122
v 0.79819509 1.03005126 -1.24520134
v 0.75110222 1.03005126 -1.18144940
v 0.79979536 0.66533292 -1.22996390
v 0.79979536 0.66918895 -1.23250355
v 0.79979536 0.72456615 -1.27237771
v 0.79979536 0.76194845 -1.30040053
v 0.79979536 0.77933642 -1.31376970
v 0.79979536 0.79615306 -1.32713897
v 0.79979536 0.80240133 -1.33215969
v 0.79979536 0.83910524 -1.38292194
v 0.79979536 0.84403239 -1.39667059
v 0.75826519 1.03005126 -1.27970444
v 0.79979536 0.80297259 -1.43736207
v 0.73822401 1.03005126 -1.18101156
v 0.73822401 1.01948283 -1.17949364
v 0.79979536 0.66533292 -1.38496529
v 0.38891357 0.66533292 -1.14466942
v 0.54771876 1.03005126 -1.42335066
v 0.50999873 1.01948283 -1.43858810
v 0.51312299 1.03005126 -1.43841292
v 0.79979536 0.77144576 -1.43744966
v 0.08738180 0.66533292 -1.44284996
v 0.32071267 1.03005126 -1.19207472
v 0.03137326 0.75620010 -1.14466942
v 0.11542419 0.75923495 -1.14466942
v 0.17150893 0.75362940 -1.14466942
v 0.20534267 0.74816665 -1.14466942
v 0.24763485 0.73224255 -1.14466942
v 0.38677991 0.66997447 -1.14466942
v 0.76542821 0.66533292 -1.40662454
v 0.79979536 0.66808215 -1.38697940
v 0.02131456 0.66533292 -1.14466942
v 0.09408758 0.87887966 -1.44086498
v 0.05865362 0.87887966 -1.44086498
v 0.06116827 0.94918125 -1.43955136
v 0.06383534 1.01948283 -1.43774155
v 0.06421637 1.03005126 -1.43739141
v 0.79979536 0.74777392 -1.43277919
v 0.79408022 0.75355800 -1.43750812
v 0.05629135 0.66533292 -1.44284996
v 0.72305981 0.68400621 -1.43777068
v 0.66781326 0.66533292 -1.43791673
v 0.24755863 1.03005126 -1.19732897
v 0.02131456 0.75430779 -1.14466942
v 0.02832516 0.75562884 -1.14466942
v 0.74432020 0.66533292 -1.41981863
v 0.79979536 0.72478041 -1.42410962
v 0.02131456 0.66533292 -1.32629242
v 0.05354806 0.66533292 -1.44282063
v 0.05674854 0.80857814 -1.44139030
v 0.03411652 0.66533292 -1.39956048
v 0.03304969 0.66533292 -1.39667059
v 0.02131456 0.66697530 -1.32544587
v 0.02131456 0.74527461 -1.25334548
v 0.06200649 1.03005126 -1.39667059
v 0.76992413 0.70667838 -1.43047319
v 0.74142455 0.66533292 -1.42095707
v 0.67070897 0.66533292 -1.43733295
v 0.24115766 1.03005126 -1.19945990
v 0.17928156 1.03005126 -1.24663167
v 0.13531292 1.03005126 -1.28583447
v 0.10018377 1.03005126 -1.32337340
v 0.06810268 1.03005126 -1.35860623
v 0.06322573 1.03005126 -1.38756318
v 0.02131456 0.75645003 -1.19709544
v 0.20999100 1.03005126 -1.22009754
v 0.02131456 0.74909497 -1.24339153
v 0.02131456 0.75645003 -1.19867171
f 1 2 13
f 1 13 19
f 1 19 21
f 1 21 38
f 1 38 56
f 1 56 65
f 1 65 64
f 1 64 63
f 1 63 62
f 1 62 61
f 1 61 67
f 1 67 60
f 1 60 44
f 1 44 24
f 1 24 15
f 1 15 3
f 1 3 4
f 1 4 5
f 1 5 6
f 1 6 7
f 1 7 8
f 1 8 9
f 1 9 10
f 1 10 11
f 1 11 12
f 1 12 2
f 2 12 14
f 2 14 13
f 3 15 16
f 3 16 4
f 4 17 32
f 4 32 48
f 4 48 39
f 4 39 22
f 4 22 14
f 4 14 12
f 4 12 11
f 4 11 10
f 4 10 9
f 4 9 8
f 4 8 7
f 4 7 6
f 4 6 5
f 4 16 18
f 4 18 33
f 4 33 49
f 4 49 53
f 4 53 52
f 4 52 50
f 4 50 41
f 4 41 23
f 4 23 43
f 4 43 59
f 4 59 58
f 4 58 47
f 4 47 31
f 4 31 17
f 13 14 19
f 14 20 21
f 14 21 19
f 14 22 23
f 14 23 20
f 15 24 25
f 15 25 26
f 15 26 16
f 16 26 27
f 16 27 28
f 16 28 29
f 16 29 30
f 16 30 18
f 17 31 32
f 18 30 29
f 18 29 28
f 18 28 27
f 18 27 26
f 18 26 25
f 18 25 46
f 18 46 45
f 18 45 33
f 20 23 34
f 20 34 35
f 20 35 21
f 21 35 36
f 21 36 37
f 21 37 38
f 22 39 40
f 22 40 23
f 23 41 35
f 23 35 34
f 23 40 42
f 23 42 43
f 24 44 45
f 24 45 46
f 24 46 25
f 31 47 32
f 32 47 48
f 33 45 66
f 33 66 69
f 33 69 68
f 33 68 55
f 33 55 54
f 33 54 49
f 35 41 50
f 35 50 51
f 35 51 52
f 35 52 36
f 36 52 53
f 36 53 37
f 37 53 38
f 38 53 49
f 38 49 54
f 38 54 55
f 38 55 56
f 39 48 40
f 40 48 57
f 40 57 42
f 42 57 47
f 42 47 58
f 42 58 59
f 42 59 43
f 44 60 45
f 45 61 62
f 45 62 63
f 45 63 64
f 45 64 65
f 45 65 56
f 45 56 66
f 45 60 67
f 45 67 61
f 47 57 48
f 50 52 51
f 55 68 56
f 56 68 69
f 56 69 66

