# https://github.com/mikedh/trimesh
v 2.02002876 -0.90163178 0.52917574
v 1.99902244 -0.94921792 0.52917574
v 2.01222397 -0.90163178 0.44085041
v 1.43982374 -0.90163178 0.52917574
v 1.99105169 -0.94921792 0.44085041
v 1.98905895 -0.96909502 0.52917574
v 1.97120790 -0.98900031 0.44085041
v 1.98806258 -0.95524045 0.44085041
v 1.40578184 -0.90163178 0.44085041
v 1.43783100 -0.90163178 0.52413476
v 1.17180679 -1.19045682 0.44085041
v 1.19837602 -1.19045682 0.50379789
v 1.21124543 -1.19045682 0.52917574
v 1.97527615 -0.99646480 0.52917574
v 1.97403085 -0.99414633 0.50169675
v 1.96356907 -1.01786862 0.52917574
v 1.91101188 -1.09847954 0.44085041
v 1.42911303 -0.90163178 0.50169675
v 1.85654514 -1.19045682 0.44085041
v 1.86509715 -1.19045682 0.52917574
v 1.95601363 -1.03161014 0.52917574
v 1.90021819 -1.12836581 0.50169675
v 1.89739525 -1.12321979 0.44085041
v 1.87763444 -1.15675344 0.44085041
v 1.87979314 -1.16351105 0.50169675
v 1.88112163 -1.16582962 0.52917574
v 1.86252315 -1.19045682 0.50169675
v 1.86376866 -1.19045682 0.51470993
v 1.91441609 -1.10718808 0.52917574
v 1.90146370 -1.13068428 0.52917574
v 1.88062334 -1.15191848 0.44085041
v 1.87946101 -1.15381294 0.44085041
f 1 2 3
f 1 3 9
f 1 9 18
f 1 18 10
f 1 10 4
f 1 4 13
f 1 13 20
f 1 20 26
f 1 26 30
f 1 30 29
f 1 29 21
f 1 21 16
f 1 16 14
f 1 14 6
f 1 6 2
f 2 5 3
f 2 6 7
f 2 7 8
f 2 8 5
f 3 5 8
f 3 8 7
f 3 7 17
f 3 17 23
f 3 23 31
f 3 31 32
f 3 32 24
f 3 24 19
f 3 19 11
f 3 11 9
f 4 10 11
f 4 11 12
f 4 12 13
f 6 14 15
f 6 15 7
f 7 15 16
f 7 16 17
f 9 11 18
f 10 18 11
f 11 19 27
f 11 27 28
f 11 28 20
f 11 20 13
f 11 13 12
f 14 16 15
f 16 21 17
f 17 22 23
f 17 21 22
f 19 24 25
f 19 25 26
f 19 26 27
f 20 28 26
f 21 29 22
f 22 29 30
f 22 30 26
f 22 26 23
f 23 26 25
f 23 25 31
f 24 32 25
f 25 32 31
f 26 28 27

