# https://github.com/mikedh/trimesh
v 0.45715358 -2.22964084 1.23256290
v 0.45715358 -2.21105431 1.10094487
v 0.73902362 -2.42894705 1.23256290
v 0.45715358 -1.88888807 1.23256290
v 0.49371385 -2.20401874 1.10086755
v 0.80852900 -2.28508530 1.10354890
v 0.80852900 -2.35533597 1.13140654
v 0.76450507 -2.39817944 1.16670234
v 0.45715358 -2.08273384 1.10086755
v 0.80852900 -2.43535252 1.20479551
v 0.80852900 -2.44879377 1.23256290
v 0.45715358 -1.88815300 1.23249846
v 0.51954518 -1.37613131 1.23256290
v 0.56502689 -2.19278271 1.10086755
v 0.87885075 -2.28508530 1.10799631
v 0.87885075 -2.35533597 1.13457774
v 0.80293126 -2.14395389 1.10086755
v 0.81196930 -2.14132854 1.10086755
v 0.81750874 -2.13870341 1.10086755
v 1.05278923 -1.99841204 1.10086755
v 0.87885075 -2.40080479 1.16364717
v 0.80852900 -2.40385005 1.16327330
v 0.45715358 -1.84520454 1.10086755
v 0.87885075 -2.42684681 1.20479551
v 0.87838431 -2.43640274 1.23256290
v 0.45756176 -1.37613131 1.13487425
v 0.75453404 -1.37613131 1.23256290
v 0.97669477 -2.38158816 1.17447564
v 0.95162146 -2.35701628 1.15748518
v 0.92981364 -2.39418915 1.16720508
v 1.05278923 -2.02329908 1.23256290
v 1.02532526 -2.28508530 1.23256290
v 1.01261364 -2.35901132 1.23256290
v 1.05278923 -1.58110791 1.10086755
v 0.45756176 -1.37613131 1.10086755
v 0.95162146 -2.40374487 1.20067037
v 0.95057197 -2.41330079 1.23256290
v 0.73319261 -1.37613131 1.20837919
v 1.05278923 -1.62825684 1.23256290
v 0.98928968 -2.39513439 1.22136050
v 0.99243846 -2.39649934 1.23256290
v 0.62998411 -1.37613131 1.10086755
v 0.63074213 -1.37613131 1.10147344
v 0.66660274 -1.37613131 1.13710440
v 0.70088896 -1.37613131 1.17228416
f 1 2 3
f 1 3 11
f 1 11 25
f 1 25 37
f 1 37 41
f 1 41 33
f 1 33 32
f 1 32 31
f 1 31 39
f 1 39 27
f 1 27 13
f 1 13 4
f 1 4 12
f 1 12 23
f 1 23 9
f 1 9 2
f 2 5 6
f 2 6 7
f 2 7 8
f 2 8 3
f 2 9 5
f 3 8 10
f 3 10 11
f 4 13 12
f 5 14 6
f 5 9 23
f 5 23 35
f 5 35 42
f 5 42 34
f 5 34 20
f 5 20 19
f 5 19 18
f 5 18 17
f 5 17 14
f 6 15 16
f 6 16 7
f 6 14 17
f 6 17 18
f 6 18 19
f 6 19 20
f 6 20 15
f 7 16 21
f 7 21 22
f 7 22 8
f 8 22 10
f 10 22 21
f 10 21 24
f 10 24 11
f 11 24 25
f 12 13 26
f 12 26 23
f 13 27 38
f 13 38 45
f 13 45 44
f 13 44 43
f 13 43 42
f 13 42 35
f 13 35 26
f 15 28 29
f 15 29 16
f 15 20 28
f 16 29 28
f 16 28 30
f 16 30 21
f 20 31 32
f 20 32 33
f 20 33 28
f 20 34 39
f 20 39 31
f 21 30 24
f 23 26 35
f 24 30 36
f 24 36 25
f 25 36 37
f 27 34 38
f 27 39 34
f 28 33 40
f 28 40 36
f 28 36 30
f 33 41 40
f 34 42 43
f 34 43 44
f 34 44 45
f 34 45 38
f 36 40 37
f 37 40 41

