# https://github.com/mikedh/trimesh
v 1.46189149 -0.21993807 -1.55122104
v 1.43271756 -0.21993807 -0.95009665
v 1.22192576 -0.14567710 -1.22888749
v 1.22192576 -0.14287540 -1.23212375
v 1.22192576 -0.10997896 -1.26860544
v 1.22192576 -0.07906575 -1.29796734
v 1.22192576 -0.07409194 -1.30220395
v 1.22192576 0.03514314 -1.39181949
v 1.22192576 0.04058915 -1.39599723
v 1.22192576 0.08245736 -1.42659479
v 1.22192576 0.10166006 -1.43353815
v 1.46649355 0.10166006 -1.55122104
v 1.85882118 -0.21993807 -1.55122104
v 1.22192576 -0.13406104 -0.95009665
v 1.22192576 -0.14567710 -1.20917561
v 2.05005417 -0.21993807 -0.95009665
v 1.22192576 0.10166006 -1.00393666
v 1.87764031 0.10166006 -1.55122104
v 1.87172348 -0.17577184 -1.55122104
v 1.86621736 -0.21993807 -1.55104460
v 1.22192576 0.03696897 -0.95009665
v 2.04865715 -0.21993807 -0.95892286
v 2.05251942 -0.20048353 -0.95009665
v 1.22192576 0.08957180 -0.99305098
v 1.42819765 0.10166006 -0.95009665
v 1.90443102 0.10166006 -1.51115001
v 1.87887304 0.04049471 -1.55122104
v 1.87755817 -0.10544586 -1.55122104
v 1.90147251 -0.17577184 -1.50679573
v 1.89900725 -0.21587717 -1.50302985
v 1.89555568 -0.21993807 -1.50738413
v 1.22192576 0.04279274 -0.95450981
v 2.05169781 -0.17577184 -0.97486896
v 2.05564243 -0.17577184 -0.95009665
v 2.04619169 -0.21993807 -0.97433934
v 2.03986375 -0.21801780 -1.01546951
v 1.22192576 0.08466095 -0.98881436
v 1.22192576 0.04704252 -0.95792261
v 1.22192576 0.04587777 -0.95698114
v 2.06081978 0.10166006 -0.95009665
v 1.90599252 0.10166006 -1.50873755
v 1.90500642 0.03514314 -1.51209147
v 1.88158513 0.03514314 -1.54727873
v 1.87895518 0.03514314 -1.55122104
v 1.87772245 -0.09902397 -1.55122104
v 1.90434888 -0.10544586 -1.51115001
v 1.93245447 -0.10544586 -1.46696002
v 1.92678407 -0.17577184 -1.46696002
v 1.91914125 -0.21993807 -1.47025526
v 1.90147251 -0.21993807 -1.49820495
v 2.04183616 -0.16887776 -1.04141860
v 2.03895979 -0.14082920 -1.08048938
v 2.06073764 -0.10544586 -0.95009665
v 2.04011038 -0.21993807 -1.01235090
v 2.03928856 -0.21993807 -1.01747010
v 2.03197451 -0.21993807 -1.06248380
v 2.06139497 0.03514314 -0.95009665
v 2.05753249 0.03514314 -0.97486896
v 2.05712158 0.10166006 -0.97351553
v 1.93253661 0.10166006 -1.46696002
v 1.93368720 0.03514314 -1.46696002
v 1.90500642 -0.03518284 -1.51209147
v 1.88158513 -0.03518284 -1.54727873
v 1.87895518 -0.03518284 -1.55122104
v 1.93368720 -0.03518284 -1.46696002
v 1.96220370 -0.03518284 -1.41406159
v 1.96162830 -0.10544586 -1.41253172
v 1.95875213 -0.17577184 -1.40435280
v 1.95653330 -0.21993807 -1.39458502
v 2.03090606 -0.16887776 -1.10855673
v 2.01734642 -0.17577184 -1.18575673
v 2.02268826 -0.10544586 -1.18575673
v 2.03370029 -0.10544586 -1.11808898
v 2.04553415 -0.10544586 -1.04518448
v 2.05687516 -0.10544586 -0.97486896
v 2.06123069 -0.05986304 -0.95009665
v 2.01184030 -0.21993807 -1.18575673
v 2.06139497 -0.03518284 -0.95009665
v 2.05753249 -0.03518284 -0.97486896
v 2.04627383 0.03514314 -1.04518448
v 2.04561629 0.10166006 -1.04518448
v 1.93409811 0.10166006 -1.46407672
v 1.96220370 0.03514314 -1.41406159
v 1.97444846 -0.03518284 -1.37893322
v 1.97395541 -0.10544586 -1.37734447
v 1.97124353 -0.17577184 -1.36916555
v 1.96886020 -0.21288659 -1.36222228
v 1.96540864 -0.21993807 -1.36940086
v 2.00460861 -0.17577184 -1.25601347
v 2.02351008 -0.03518284 -1.18575673
v 2.00986810 -0.10544586 -1.25601347
v 2.01077206 -0.03518284 -1.25601347
v 2.03411121 -0.03518284 -1.12050154
v 2.04627383 -0.03518284 -1.04518448
v 2.00707407 -0.21993807 -1.21194114
v 2.03411121 0.03514314 -1.12050154
v 2.02351008 0.03514314 -1.18575673
v 2.03402906 0.10166006 -1.11632380
v 1.96162830 0.10166006 -1.41259050
v 1.97395541 0.10166006 -1.37746224
v 1.97444846 0.03514314 -1.37893322
v 1.99203507 -0.03518284 -1.32632898
v 1.99104876 -0.10544586 -1.32632898
v 1.98570713 -0.17577184 -1.32632898
v 1.97091476 -0.21993807 -1.35357252
v 1.99902034 -0.21993807 -1.25601347
v 2.01077206 0.03514314 -1.25601347
v 2.02268826 0.10166006 -1.18575673
v 1.97494151 0.10166006 -1.37457895
v 1.99113111 0.10166006 -1.32632898
v 1.99203507 0.03514314 -1.32632898
v 1.97954367 -0.21993807 -1.32785885
v 1.97502366 -0.21993807 -1.34133352
v 1.99195272 -0.21993807 -1.28219788
v 2.00995024 0.10166006 -1.25601347
f 1 2 3
f 1 3 4
f 1 4 5
f 1 5 6
f 1 6 7
f 1 7 8
f 1 8 9
f 1 9 10
f 1 10 11
f 1 11 12
f 1 12 18
f 1 18 27
f 1 27 44
f 1 44 64
f 1 64 45
f 1 45 28
f 1 28 19
f 1 19 13
f 1 13 20
f 1 20 31
f 1 31 50
f 1 50 49
f 1 49 69
f 1 69 88
f 1 88 105
f 1 105 113
f 1 113 112
f 1 112 114
f 1 114 106
f 1 106 95
f 1 95 77
f 1 77 56
f 1 56 55
f 1 55 54
f 1 54 35
f 1 35 22
f 1 22 16
f 1 16 2
f 2 14 15
f 2 15 3
f 2 16 23
f 2 23 34
f 2 34 53
f 2 53 76
f 2 76 78
f 2 78 57
f 2 57 40
f 2 40 25
f 2 25 21
f 2 21 14
f 3 15 14
f 3 14 21
f 3 21 32
f 3 32 39
f 3 39 38
f 3 38 37
f 3 37 24
f 3 24 17
f 3 17 11
f 3 11 10
f 3 10 9
f 3 9 8
f 3 8 7
f 3 7 6
f 3 6 5
f 3 5 4
f 11 17 25
f 11 25 40
f 11 40 59
f 11 59 81
f 11 81 98
f 11 98 108
f 11 108 115
f 11 115 110
f 11 110 109
f 11 109 100
f 11 100 99
f 11 99 82
f 11 82 60
f 11 60 41
f 11 41 26
f 11 26 18
f 11 18 12
f 13 19 20
f 16 22 23
f 17 24 25
f 18 26 27
f 19 28 29
f 19 29 30
f 19 30 20
f 20 30 31
f 21 25 32
f 22 33 34
f 22 34 23
f 22 35 36
f 22 36 33
f 24 37 25
f 25 37 38
f 25 38 39
f 25 39 32
f 26 41 42
f 26 42 27
f 27 43 44
f 27 42 43
f 28 45 46
f 28 46 29
f 29 46 47
f 29 47 48
f 29 48 30
f 30 48 49
f 30 49 50
f 30 50 31
f 33 51 52
f 33 52 34
f 33 36 51
f 34 52 53
f 35 54 36
f 36 54 55
f 36 55 56
f 36 56 51
f 40 57 58
f 40 58 59
f 41 60 61
f 41 61 42
f 42 61 65
f 42 65 62
f 42 62 63
f 42 63 43
f 43 63 64
f 43 64 44
f 45 64 46
f 46 62 47
f 46 64 63
f 46 63 62
f 47 62 65
f 47 65 66
f 47 66 67
f 47 67 48
f 48 67 68
f 48 68 49
f 49 68 69
f 51 56 70
f 51 70 52
f 52 70 71
f 52 71 72
f 52 72 73
f 52 73 74
f 52 74 75
f 52 75 53
f 53 75 76
f 56 77 70
f 57 78 79
f 57 79 58
f 58 79 94
f 58 94 80
f 58 80 59
f 59 80 81
f 60 82 61
f 61 82 83
f 61 83 66
f 61 66 65
f 66 83 101
f 66 101 84
f 66 84 85
f 66 85 67
f 67 85 86
f 67 86 68
f 68 86 69
f 69 86 87
f 69 87 88
f 70 77 71
f 71 77 89
f 71 89 72
f 72 90 73
f 72 89 91
f 72 91 92
f 72 92 90
f 73 90 93
f 73 93 74
f 74 94 75
f 74 93 94
f 75 94 79
f 75 79 76
f 76 79 78
f 77 95 89
f 80 94 93
f 80 93 96
f 80 96 81
f 81 96 97
f 81 97 98
f 82 99 83
f 83 99 100
f 83 100 101
f 84 101 111
f 84 111 102
f 84 102 103
f 84 103 85
f 85 103 104
f 85 104 86
f 86 104 105
f 86 105 87
f 87 105 88
f 89 95 106
f 89 106 104
f 89 104 103
f 89 103 91
f 90 92 107
f 90 107 97
f 90 97 96
f 90 96 93
f 91 103 102
f 91 102 92
f 92 102 111
f 92 111 107
f 97 107 115
f 97 115 108
f 97 108 98
f 100 109 101
f 101 109 110
f 101 110 111
f 104 112 113
f 104 113 105
f 104 106 114
f 104 114 112
f 107 111 115
f 110 115 111

