# https://github.com/mikedh/trimesh
v 0.87377801 -1.43244746 1.57811794
v 0.87718264 -1.44136659 1.57811794
v 0.87377801 -1.36786521 1.59858333
v 0.87377801 -1.27555276 1.57811794
v 0.90245130 -1.44136659 1.59731267
v 0.90213217 -1.48794850 1.57811794
v 0.91247901 -1.47931319 1.59265194
v 0.87377801 -1.30539116 1.59892645
v 1.08805642 -1.68972237 1.61692009
v 1.14516360 -1.68972237 1.62549023
v 0.87377801 -1.29647202 1.59875955
v 0.91606982 -1.33251326 1.59335684
v 0.91750612 -1.33016189 1.57811794
v 1.04132260 -1.68972237 1.60062384
v 0.92567185 -1.52840865 1.57811794
v 1.14548283 -1.68972237 1.62500336
v 1.14548283 -1.67188421 1.61781054
v 1.14548283 -1.65903261 1.57811794
v 1.00036081 -1.65635687 1.57811794
v 1.03092264 -1.68972237 1.58851517
v 1.14548283 -1.68972237 1.57811794
v 1.02201210 -1.68972237 1.57811794
f 1 2 3
f 1 3 8
f 1 8 11
f 1 11 4
f 1 4 13
f 1 13 18
f 1 18 21
f 1 21 22
f 1 22 19
f 1 19 15
f 1 15 6
f 1 6 2
f 2 5 3
f 2 6 7
f 2 7 5
f 3 5 9
f 3 9 10
f 3 10 8
f 4 11 12
f 4 12 13
f 5 7 14
f 5 14 9
f 6 15 14
f 6 14 7
f 8 10 11
f 9 14 20
f 9 20 22
f 9 22 21
f 9 21 16
f 9 16 10
f 10 16 17
f 10 17 12
f 10 12 11
f 12 17 18
f 12 18 13
f 14 15 19
f 14 19 20
f 16 21 18
f 16 18 17
f 19 22 20

