# https://github.com/mikedh/trimesh
v 0.48313756 -1.23891109 1.57811773
v 0.48313756 -1.35785447 1.57811773
v 0.48313756 -1.23891109 1.23259663
v -0.59870376 -1.23891109 1.57811773
v 0.48313756 -1.36406989 1.55582723
v 0.10734228 -1.58589143 1.57811773
v 0.12407724 -1.58589143 1.55633453
v 0.48313756 -1.32966402 1.23259663
v -0.59870376 -1.23891109 1.23259663
v -0.59870376 -1.33998918 1.57811773
v 0.48313756 -1.36875702 1.48604646
v 0.03743673 -1.58589143 1.57811773
v 0.12513642 -1.58589143 1.48993629
v 0.48313756 -1.35038222 1.27782050
v 0.45263335 -1.34576309 1.23259663
v -0.59870376 -1.26261829 1.23259663
v -0.59870376 -1.34929544 1.55589481
v 0.12513642 -1.58589143 1.48604646
v 0.02525622 -1.58589143 1.56621137
v 0.09600911 -1.58589143 1.41961438
v 0.09420851 -1.58589143 1.41572456
v 0.07249543 -1.58589143 1.37733331
v 0.04876991 -1.58589143 1.34411732
v 0.01413488 -1.58589143 1.29683010
v 0.01212245 -1.58589143 1.29419177
v -0.01319183 -1.58589143 1.26100962
v -0.01764037 -1.58589143 1.25529312
v -0.03543451 -1.58589143 1.23259663
v -0.59870376 -1.26686381 1.23926016
v -0.23551266 -1.58589143 1.23259663
v -0.59870376 -1.35048416 1.48604646
v -0.22153156 -1.58589143 1.25133561
v -0.22057830 -1.58589143 1.25258720
v -0.19505218 -1.58589143 1.28580319
v -0.04231915 -1.58589143 1.48401695
v -0.00884922 -1.58589143 1.52741435
v -0.00694270 -1.58589143 1.52984964
v 0.02229053 -1.58589143 1.56306574
v 0.02409113 -1.58589143 1.56499373
v -0.59870376 -1.26750910 1.24071469
v -0.59870376 -1.33740783 1.44559187
v -0.59870376 -1.28180810 1.27450566
f 1 2 5
f 1 5 11
f 1 11 14
f 1 14 8
f 1 8 3
f 1 3 9
f 1 9 4
f 1 4 10
f 1 10 12
f 1 12 6
f 1 6 2
f 2 6 7
f 2 7 5
f 3 8 15
f 3 15 28
f 3 28 30
f 3 30 16
f 3 16 9
f 4 9 16
f 4 16 29
f 4 29 40
f 4 40 42
f 4 42 41
f 4 41 31
f 4 31 17
f 4 17 10
f 5 7 11
f 6 12 19
f 6 19 39
f 6 39 38
f 6 38 37
f 6 37 36
f 6 36 35
f 6 35 34
f 6 34 33
f 6 33 32
f 6 32 30
f 6 30 28
f 6 28 27
f 6 27 26
f 6 26 25
f 6 25 24
f 6 24 23
f 6 23 22
f 6 22 21
f 6 21 20
f 6 20 18
f 6 18 13
f 6 13 7
f 7 13 11
f 8 14 15
f 10 17 12
f 11 13 18
f 11 18 14
f 12 17 19
f 14 18 20
f 14 20 21
f 14 21 22
f 14 22 23
f 14 23 24
f 14 24 25
f 14 25 26
f 14 26 27
f 14 27 28
f 14 28 15
f 16 30 29
f 17 31 30
f 17 30 32
f 17 32 33
f 17 33 34
f 17 34 35
f 17 35 36
f 17 36 37
f 17 37 38
f 17 38 39
f 17 39 19
f 29 30 40
f 30 31 41
f 30 41 42
f 30 42 40

