# https://github.com/mikedh/trimesh
v 0.79888417 -1.08747956 0.05117550
v 0.71584650 -1.14522740 0.25646430
v 1.05338758 -0.84210524 0.05117550
v 1.88081235 -1.08747956 0.05117550
v 1.86669470 -1.14522740 0.25646430
v 0.71558982 -1.14522740 0.26249099
v 1.06378335 -0.82926894 0.07985947
v 1.06763367 -0.82926894 0.05117550
v 1.89736864 -1.12320470 0.44085041
v 1.88876968 -1.10764645 0.25646430
v 1.86823483 -1.14522740 0.27195060
v 1.91623491 -1.02305058 0.05117550
v 1.89993552 -1.08747956 0.25646430
v 0.71481980 -1.14522740 0.29075539
v 1.06352666 -0.82926894 0.15015812
v 2.00774335 -0.82926894 0.05117550
v 1.88440598 -1.14522740 0.44085041
v 1.88363592 -1.14522740 0.43249698
v 1.87478028 -1.14522740 0.34003691
v 1.91276972 -1.09462450 0.43737934
v 1.97116558 -0.98899580 0.44085041
v 1.95435281 -0.95234270 0.05117550
v 1.95768976 -0.96357056 0.15015812
v 0.71481980 -1.14522740 0.43135266
v 1.06404004 -0.82926894 0.25646430
v 2.01031023 -0.82926894 0.07985947
v 1.99952932 -0.85020910 0.05117550
v 0.71764332 -1.14522740 0.44085041
v 1.97142227 -0.91971071 0.05117550
v 1.97270571 -0.92224699 0.07985947
v 1.99105882 -0.94921865 0.44085041
v 0.71520484 -1.14522740 0.43310727
v 1.03067098 -0.87090184 0.43947725
v 1.03105601 -0.87090184 0.44085041
v 2.02583956 -0.82926894 0.25646430
v 2.00299472 -0.87891288 0.22045675
v 1.98708004 -0.88138735 0.05117550
v 2.02250261 -0.87829431 0.44085041
v 2.02545463 -0.87090184 0.44085041
f 1 2 3
f 1 3 8
f 1 8 16
f 1 16 27
f 1 27 37
f 1 37 29
f 1 29 22
f 1 22 12
f 1 12 4
f 1 4 5
f 1 5 2
f 2 5 11
f 2 11 19
f 2 19 18
f 2 18 17
f 2 17 28
f 2 28 32
f 2 32 24
f 2 24 14
f 2 14 6
f 2 6 7
f 2 7 3
f 3 7 8
f 4 9 10
f 4 10 11
f 4 11 5
f 4 12 13
f 4 13 9
f 6 14 7
f 7 15 25
f 7 25 35
f 7 35 26
f 7 26 16
f 7 16 8
f 7 14 15
f 9 17 18
f 9 18 19
f 9 19 10
f 9 13 20
f 9 20 21
f 9 21 31
f 9 31 38
f 9 38 39
f 9 39 34
f 9 34 28
f 9 28 17
f 10 19 11
f 12 22 23
f 12 23 21
f 12 21 13
f 13 21 20
f 14 24 15
f 15 24 25
f 16 26 27
f 21 23 29
f 21 29 30
f 21 30 31
f 22 29 23
f 24 32 33
f 24 33 25
f 25 33 34
f 25 34 39
f 25 39 35
f 26 35 27
f 27 36 37
f 27 35 36
f 28 34 32
f 29 37 36
f 29 36 38
f 29 38 31
f 29 31 30
f 32 34 33
f 35 39 36
f 36 39 38

