# https://github.com/mikedh/trimesh
v 0.00519076 2.19081323 0.25650144
v 0.00519076 1.61202785 0.25650144
v 0.00519076 2.18023704 0.10711500
v -0.03526614 2.19081323 0.25650144
v 0.00519076 1.37902445 0.21565736
v -0.10257008 1.37157776 0.25650144
v 0.00519076 2.17419324 0.05117550
v -0.01046995 2.18023704 0.10711500
v -0.07124860 2.18865474 0.25650144
v 0.00519076 1.36747672 0.19129564
v -0.16689103 1.34006461 0.25650144
v -0.79760890 1.08839064 0.25650144
v 0.00519076 1.35204389 0.05117550
v -0.03470688 2.17419324 0.05117550
v -0.03452038 2.18217949 0.14906462
v -0.10909541 2.17753899 0.14906462
v -0.14526425 2.18401424 0.25650144
v 0.00519076 1.35431029 0.15015004
v 0.00519076 1.35204389 0.07983873
v 0.00519076 1.35301522 0.12020040
v -1.89945420 1.08839064 0.25650144
v -0.79760890 1.08839064 0.05117550
v -0.10555311 2.16976856 0.05117550
v -0.17584002 2.17343784 0.15015004
v -0.17584002 2.18207158 0.25650144
v -1.88882731 1.10770858 0.25650144
v -1.88714930 1.10468679 0.22044126
v -1.88957306 1.08839064 0.15015004
v -1.88025119 1.08839064 0.05117550
v -0.17584002 2.16534367 0.05117550
v -0.21312751 2.17969726 0.25650144
v -1.85806494 1.16015859 0.25650144
v -1.85470935 1.16015859 0.22044126
v -1.84408224 1.15141694 0.05117550
v -0.21741556 2.16242979 0.05117550
v -0.24612693 2.16275353 0.07983873
v -0.23978804 2.17775481 0.25650144
v -1.83252310 1.20160066 0.25650144
v -1.82860802 1.19620455 0.17897407
v -1.82226897 1.18659958 0.05117550
v -0.24612693 2.16037922 0.05117550
v -0.25134719 2.17689129 0.25650144
v -1.75943964 1.30229183 0.25650144
v -1.76969376 1.25977063 0.05117550
v -1.79374409 1.23052377 0.07983873
v -1.80455748 1.21131364 0.05117550
v -0.28788891 2.15476728 0.05117550
v -0.31361725 2.16847338 0.25650144
v -1.72662671 1.34697152 0.25650144
v -1.74452469 1.31772477 0.22044126
v -1.73744009 1.30801168 0.07983873
v -1.78889677 1.23311391 0.05117550
v -1.73781287 1.30347898 0.05117550
v -0.31641385 2.15088217 0.05117550
v -0.38688720 2.13749980 0.05117550
v -0.45717411 2.12649175 0.07983873
v -0.38688720 2.15152965 0.22044126
v -0.42286961 2.14764454 0.25650144
v -1.70872872 1.37103819 0.25650144
v -1.70928799 1.36542625 0.22044126
v -1.70220339 1.35592910 0.07983873
v -1.71581332 1.33358925 0.05117550
v -0.45717411 2.12400952 0.05117550
v -0.51012231 2.11332542 0.05117550
v -0.45717411 2.14106117 0.25650144
v -1.68467829 1.40309091 0.25650144
v -1.70071187 1.35398655 0.05117550
v -0.52447799 2.10997967 0.05117550
v -0.55039282 2.10641831 0.07983873
v -0.55878255 2.10836097 0.12552701
v -0.52746103 2.12649175 0.25650144
v -0.49315652 2.13361469 0.25650144
v -1.67330553 1.38916908 0.05117550
v -1.65018734 1.44021611 0.25650144
v -1.63974683 1.43039521 0.07983873
v -1.63806882 1.42866849 0.05117550
v -0.54517262 2.10512334 0.05117550
v -0.59774794 2.08969040 0.05117550
v -0.56605359 2.11041154 0.17238112
v -0.57239248 2.11246190 0.22044126
v -0.57705341 2.11397291 0.25650144
v -1.60190008 1.49169489 0.25650144
v -1.57356148 1.51781203 0.22182820
v -1.53851127 1.53810131 0.07983873
v -1.60506940 1.46385102 0.05117550
v -1.62464539 1.44302208 0.05117550
v -0.70606809 2.05450797 0.05117550
v -0.59774794 2.09217263 0.07983873
v -0.74484709 2.04997517 0.14530583
v -0.73832176 2.05850099 0.22044126
v -0.63857772 2.09400738 0.25650144
v -1.56181606 1.53432411 0.25650144
v -1.54783315 1.54803011 0.24618992
v -1.54522310 1.54522414 0.19931571
v -1.50178306 1.57188096 0.05117550
v -1.53683337 1.53637458 0.05117550
v -0.76367728 2.03572949 0.05117550
v -0.76740601 2.03702446 0.07983873
v -0.77262627 2.03864338 0.11863255
v -0.73832176 2.06152279 0.25650144
v -1.54839241 1.54856979 0.25650144
v -1.51296943 1.58364441 0.25650144
v -1.47773272 1.61828738 0.25650144
v -1.46468206 1.60695558 0.05117550
v -0.80860868 2.01803015 0.05117550
v -0.80432062 2.02817490 0.14530583
v -0.77784652 2.04069395 0.16548668
v -0.78791415 2.04457906 0.25650144
v -1.42012349 1.66588095 0.25650144
v -1.36270075 1.70958931 0.22044126
v -1.43130976 1.63803708 0.07983873
v -1.42944536 1.63652618 0.05117550
v -0.85037071 1.99968354 0.05117550
v -0.82296436 2.03044130 0.25650144
v -0.80506638 2.03767215 0.25650144
v -1.38209025 1.69728619 0.25650144
v -1.36493802 1.71142395 0.25650144
v -1.34405700 1.72858361 0.25650144
v -1.32205745 1.74660659 0.25650144
v -1.35188736 1.70063183 0.05117550
v -0.88113286 1.98597744 0.05117550
v -0.87889559 1.99590635 0.15015004
v -0.84981139 2.01846202 0.25650144
v -1.31963369 1.74477184 0.22044126
v -1.31515924 1.74099465 0.15015004
v -1.28682075 1.77347913 0.25650144
v -1.28458348 1.77175230 0.22044126
v -1.27339732 1.76355022 0.05117550
v -1.30863391 1.73581437 0.05117550
v -0.91599669 1.96957327 0.05117550
v -0.91879323 1.97086845 0.07983873
v -0.93221677 1.97712787 0.22044126
v -0.87889559 2.00540340 0.25650144
v -1.23182167 1.81049631 0.25650144
v -1.23033026 1.79171783 0.05117550
v -0.92923374 1.96331385 0.05117550
v -0.94880962 1.95403242 0.05117550
v -0.96726698 1.96061579 0.22044126
v -0.93557257 1.97874658 0.25650144
v -0.90965774 1.99094189 0.25650144
v -1.21280505 1.82269141 0.25650144
v -1.22510995 1.81092796 0.21563726
v -1.19173765 1.82582133 0.15015004
v -1.16339915 1.83423924 0.05117550
v -1.02189318 1.91895790 0.05117550
v -1.01946942 1.92921056 0.15015004
v -1.01946942 1.93557789 0.22044126
v -1.01946942 1.93881552 0.25650144
v -0.97062289 1.96223471 0.25650144
v -1.10914583 1.88841598 0.25650144
v -1.10653578 1.88668915 0.22044126
v -1.09106146 1.88010598 0.05117550
v -1.05843491 1.90071920 0.05117550
v -1.06067208 1.90201417 0.07983873
v -1.07409562 1.91010834 0.25650144
f 1 2 5
f 1 5 10
f 1 10 18
f 1 18 20
f 1 20 19
f 1 19 13
f 1 13 7
f 1 7 3
f 1 3 8
f 1 8 4
f 1 4 9
f 1 9 17
f 1 17 25
f 1 25 31
f 1 31 37
f 1 37 42
f 1 42 48
f 1 48 58
f 1 58 65
f 1 65 72
f 1 72 71
f 1 71 81
f 1 81 91
f 1 91 100
f 1 100 108
f 1 108 115
f 1 115 114
f 1 114 123
f 1 123 133
f 1 133 140
f 1 140 139
f 1 139 149
f 1 149 148
f 1 148 155
f 1 155 150
f 1 150 141
f 1 141 134
f 1 134 126
f 1 126 119
f 1 119 118
f 1 118 117
f 1 117 116
f 1 116 109
f 1 109 103
f 1 103 102
f 1 102 101
f 1 101 92
f 1 92 82
f 1 82 74
f 1 74 66
f 1 66 59
f 1 59 49
f 1 49 43
f 1 43 38
f 1 38 32
f 1 32 26
f 1 26 21
f 1 21 12
f 1 12 11
f 1 11 6
f 1 6 2
f 2 6 5
f 3 7 14
f 3 14 8
f 4 8 9
f 5 6 11
f 5 11 12
f 5 12 10
f 7 13 22
f 7 22 29
f 7 29 34
f 7 34 40
f 7 40 46
f 7 46 52
f 7 52 44
f 7 44 53
f 7 53 62
f 7 62 67
f 7 67 73
f 7 73 76
f 7 76 86
f 7 86 85
f 7 85 96
f 7 96 95
f 7 95 104
f 7 104 112
f 7 112 120
f 7 120 129
f 7 129 128
f 7 128 135
f 7 135 144
f 7 144 152
f 7 152 153
f 7 153 145
f 7 145 137
f 7 137 136
f 7 136 130
f 7 130 121
f 7 121 113
f 7 113 105
f 7 105 97
f 7 97 87
f 7 87 78
f 7 78 77
f 7 77 68
f 7 68 64
f 7 64 63
f 7 63 55
f 7 55 54
f 7 54 47
f 7 47 41
f 7 41 35
f 7 35 30
f 7 30 23
f 7 23 14
f 8 14 15
f 8 15 9
f 9 16 17
f 9 15 14
f 9 14 16
f 10 12 18
f 12 19 20
f 12 20 18
f 12 21 28
f 12 28 29
f 12 29 22
f 12 22 13
f 12 13 19
f 14 23 16
f 16 23 24
f 16 24 17
f 17 24 25
f 21 26 27
f 21 27 28
f 23 30 24
f 24 30 31
f 24 31 25
f 26 32 33
f 26 33 34
f 26 34 27
f 27 29 28
f 27 34 29
f 30 35 31
f 31 35 36
f 31 36 37
f 32 38 33
f 33 38 39
f 33 39 34
f 34 39 40
f 35 41 36
f 36 41 42
f 36 42 37
f 38 43 44
f 38 44 39
f 39 44 45
f 39 45 46
f 39 46 40
f 41 47 42
f 42 47 48
f 43 49 50
f 43 50 51
f 43 51 44
f 44 52 45
f 44 51 53
f 45 52 46
f 47 54 48
f 48 54 55
f 48 55 56
f 48 56 57
f 48 57 58
f 49 59 60
f 49 60 61
f 49 61 62
f 49 62 50
f 50 62 51
f 51 62 53
f 55 63 56
f 56 63 64
f 56 64 65
f 56 65 58
f 56 58 57
f 59 61 60
f 59 66 61
f 61 67 62
f 61 66 67
f 64 68 69
f 64 69 70
f 64 70 71
f 64 71 72
f 64 72 65
f 66 73 67
f 66 74 75
f 66 75 76
f 66 76 73
f 68 77 69
f 69 77 78
f 69 78 70
f 70 79 71
f 70 78 79
f 71 79 80
f 71 80 81
f 74 82 83
f 74 83 75
f 75 83 84
f 75 84 85
f 75 85 86
f 75 86 76
f 78 87 88
f 78 88 79
f 79 88 87
f 79 87 89
f 79 89 80
f 80 89 90
f 80 90 91
f 80 91 81
f 82 92 93
f 82 93 83
f 83 93 94
f 83 94 84
f 84 94 95
f 84 95 96
f 84 96 85
f 87 97 98
f 87 98 89
f 89 98 99
f 89 99 90
f 90 99 100
f 90 100 91
f 92 101 93
f 93 101 102
f 93 102 95
f 93 95 94
f 95 102 103
f 95 103 104
f 97 105 98
f 98 105 99
f 99 105 106
f 99 106 107
f 99 107 100
f 100 107 108
f 103 109 110
f 103 110 111
f 103 111 112
f 103 112 104
f 105 113 114
f 105 114 106
f 106 114 107
f 107 114 115
f 107 115 108
f 109 116 110
f 110 116 117
f 110 117 118
f 110 118 119
f 110 119 120
f 110 120 111
f 111 120 112
f 113 121 114
f 114 121 122
f 114 122 123
f 119 124 125
f 119 125 120
f 119 126 127
f 119 127 128
f 119 128 124
f 120 125 129
f 121 130 131
f 121 131 122
f 122 131 132
f 122 132 133
f 122 133 123
f 124 128 125
f 125 128 129
f 126 134 127
f 127 134 128
f 128 134 135
f 130 136 131
f 131 136 137
f 131 137 138
f 131 138 132
f 132 139 140
f 132 140 133
f 132 138 149
f 132 149 139
f 134 141 142
f 134 142 135
f 135 142 143
f 135 143 144
f 137 145 146
f 137 146 138
f 138 146 147
f 138 147 148
f 138 148 149
f 141 143 142
f 141 150 151
f 141 151 143
f 143 151 144
f 144 151 152
f 145 153 146
f 146 153 147
f 147 153 148
f 148 153 154
f 148 154 155
f 150 155 151
f 151 155 154
f 151 154 153
f 151 153 152

