# https://github.com/mikedh/trimesh
v 0.11047724 -1.59808988 2.11647082
v 0.08716465 -1.59808988 2.18623535
v 0.11959201 -1.59808988 2.11647082
v 0.12881647 -1.63391037 2.13215856
v 0.11321075 -1.65496059 2.18623535
v 0.18056127 -1.59808988 2.18623535
v 0.15797091 -1.63391037 2.13215856
v 0.17795574 -1.59808988 2.11819200
v 0.16503782 -1.65496059 2.18623535
v 0.16537608 -1.65448189 2.18623535
v 0.18001273 -1.59808988 2.12319815
f 1 2 6
f 1 6 11
f 1 11 8
f 1 8 3
f 1 3 7
f 1 7 4
f 1 4 5
f 1 5 2
f 2 5 9
f 2 9 10
f 2 10 6
f 3 8 7
f 4 7 9
f 4 9 5
f 6 10 11
f 7 8 11
f 7 11 9
f 9 11 10

