# https://github.com/mikedh/trimesh
v -1.06539797 0.97479989 1.57812684
v -0.75804915 0.97479989 1.57812684
v -1.06470596 0.97479989 1.58281994
v -1.01812971 1.52221607 1.57812684
v -0.75804915 0.97479989 1.67085397
v -0.75804915 1.27307881 1.57812684
v -1.05862821 0.97479989 1.59527435
v -1.01677576 1.52221607 1.58033269
v -0.92293136 1.52221607 1.57812684
v -0.75804915 0.99971898 1.67043646
v -0.78296195 0.97479989 1.67053631
v -0.75804915 1.26707671 1.58431775
v -1.01822002 0.97479989 1.62639220
v -1.00504144 1.52221607 1.59944098
v -0.92600030 1.52221607 1.58030545
v -0.75804915 1.15116277 1.65742833
v -0.75804915 1.22859955 1.61234014
v -0.75804915 1.26284313 1.58866594
v -0.75804915 1.00695361 1.67028213
v -0.80859694 0.97479989 1.67008244
v -0.97146326 0.97479989 1.65776423
v -0.99700793 1.52221607 1.59930478
v -0.96704036 0.97479989 1.65945261
v -0.93565859 0.97479989 1.66466317
v -0.92542867 0.99468160 1.66382804
v -0.85381919 1.06204353 1.66375533
v -0.77877972 1.12817293 1.66310177
v -0.75804915 1.13315677 1.66377356
v -0.93150642 1.52221607 1.58418154
v -0.95632902 1.52221607 1.59843330
v -0.75804915 1.01954716 1.67000983
v -0.80859694 1.01954716 1.66911111
v -0.85327763 0.97479989 1.66926544
v -0.92263046 0.97479989 1.66571612
v -0.87788958 1.01868971 1.66567987
v -0.80477580 1.08723062 1.66517152
v -0.75804915 1.12281401 1.66463593
v -0.75804915 1.07002842 1.66851203
v -0.87852145 0.97479989 1.66799457
v -0.75804915 1.08905258 1.66735012
f 1 2 5
f 1 5 11
f 1 11 20
f 1 20 33
f 1 33 39
f 1 39 34
f 1 34 24
f 1 24 23
f 1 23 21
f 1 21 13
f 1 13 7
f 1 7 3
f 1 3 4
f 1 4 9
f 1 9 6
f 1 6 2
f 2 6 12
f 2 12 18
f 2 18 17
f 2 17 16
f 2 16 28
f 2 28 37
f 2 37 40
f 2 40 38
f 2 38 31
f 2 31 19
f 2 19 10
f 2 10 5
f 3 7 4
f 4 8 14
f 4 14 22
f 4 22 30
f 4 30 29
f 4 29 15
f 4 15 9
f 4 7 8
f 5 10 11
f 6 9 12
f 7 13 14
f 7 14 8
f 9 15 16
f 9 16 17
f 9 17 18
f 9 18 12
f 10 19 11
f 11 19 20
f 13 21 14
f 14 21 23
f 14 23 24
f 14 24 25
f 14 25 26
f 14 26 27
f 14 27 28
f 14 28 22
f 15 29 16
f 16 29 30
f 16 30 28
f 19 31 20
f 20 31 32
f 20 32 33
f 22 28 30
f 24 34 35
f 24 35 25
f 25 35 26
f 26 35 36
f 26 36 27
f 27 36 28
f 28 36 37
f 31 38 32
f 32 35 33
f 32 38 36
f 32 36 35
f 33 35 39
f 34 39 35
f 36 38 40
f 36 40 37

