# https://github.com/mikedh/trimesh
v 1.34078753 -0.60865499 1.57811783
v 1.32079727 -0.60865499 1.60580863
v 1.70092372 -0.83650577 1.59704016
v 1.70623350 -0.83353091 1.57811783
v -1.30291773 -0.60865499 1.57811783
v 1.23552668 -0.60865499 1.65642934
v 1.72122619 -0.87292879 1.59893703
v 1.75589672 -0.87292879 1.57811783
v 1.20835250 -0.60865499 1.66465846
v -1.43504054 -0.87292879 1.57811783
v -1.28573868 -0.60865499 1.61537671
v 1.20085616 -0.64613861 1.66373794
v 1.12807926 -0.77876704 1.66309633
v 1.08716168 -0.80473913 1.66516984
v 1.06186164 -0.85378603 1.66375649
v 1.02750355 -0.87292879 1.66528142
v 1.16025100 -0.60865499 1.66850805
v -1.41223907 -0.87292879 1.58965718
v -1.24388403 -0.60865499 1.65009711
v 1.16150029 -0.66892886 1.66580213
v 1.08966046 -0.73828263 1.66827556
v 1.13776196 -0.73828263 1.66441665
v 1.01938246 -0.80856766 1.66911237
v 1.02313063 -0.87292879 1.66564404
v 1.14900659 -0.60865499 1.66913102
v -1.36726121 -0.87292879 1.59850936
v -1.06178579 -0.85378603 1.66375649
v -1.12800341 -0.77876704 1.66309633
v -1.20078030 -0.64613861 1.66373794
v -1.20858887 -0.60865499 1.66465846
v 1.01938246 -0.73828263 1.67035840
v 0.94910445 -0.80856766 1.67063730
v 0.94910445 -0.87292879 1.66945643
v 0.95503898 -0.87292879 1.66932631
v 1.01844549 -0.87292879 1.66592304
v 1.08966046 -0.66797173 1.66980982
v 1.08966046 -0.60865499 1.67060011
v -1.02742770 -0.87292879 1.66528142
v -1.08708583 -0.80473913 1.66516984
v -1.13768611 -0.73828263 1.66441665
v -1.08958461 -0.73828263 1.66827556
v -1.16142443 -0.66892886 1.66580213
v -1.16017515 -0.60865499 1.66850805
v -1.16923321 -0.60865499 1.66780127
v 1.07872848 -0.60865499 1.67082327
v 1.01938246 -0.66797173 1.67126038
v 0.94910445 -0.73828263 1.67152073
v 0.87882634 -0.87292879 1.67080473
v 0.88476097 -0.87292879 1.67072102
v -1.01868185 -0.87292879 1.66592304
v -1.01930650 -0.80856766 1.66911237
v -1.08958461 -0.66797173 1.66980982
v -1.08958461 -0.60865499 1.67060011
v 1.01938246 -0.60865499 1.67166951
v 1.00845036 -0.60865499 1.67177176
v 0.94910445 -0.66797173 1.67192054
v 0.87882634 -0.80856766 1.67160434
v 0.81448281 -0.87292879 1.67160434
v -0.94902859 -0.87292879 1.66945643
v -0.94902859 -0.80856766 1.67063730
v -1.01930650 -0.73828263 1.67035840
v -1.01930650 -0.66797173 1.67126038
v -1.01930650 -0.60865499 1.67166951
v 0.94910445 -0.60865499 1.67204144
v 0.93817225 -0.60865499 1.67207864
v 0.86758182 -0.60865499 1.67231102
v 0.80854822 -0.60865499 1.67249698
v 0.80854822 -0.66797173 1.67235753
v 0.87882634 -0.73828263 1.67196705
v 0.80854822 -0.80856766 1.67198560
v 0.80854822 -0.87292879 1.67164153
v -0.87875043 -0.87292879 1.67080473
v -0.94902859 -0.73828263 1.67152073
v -0.94902859 -0.66797173 1.67192054
v -0.94902859 -0.60865499 1.67204144
v 0.73795779 -0.60865499 1.67271093
v 0.73795779 -0.66797173 1.67256215
v 0.80854822 -0.73828263 1.67217157
v 0.74420475 -0.87292879 1.67196705
v 0.73795779 -0.73828263 1.67237618
v 0.66767973 -0.73828263 1.67256215
v 0.73795779 -0.87292879 1.67198560
v -0.80847232 -0.87292879 1.67164153
v -0.87875043 -0.80856766 1.67160434
v -0.87875043 -0.60865499 1.67227382
v -0.87875043 -0.73828263 1.67196705
v -0.80847232 -0.66797173 1.67235753
v -0.74912640 -0.60865499 1.67268295
v -0.80847232 -0.60865499 1.67249698
v 0.66767973 -0.60865499 1.67290611
v 0.66767973 -0.66797173 1.67275734
v 0.66767973 -0.80856766 1.67235753
v 0.59740167 -0.73828263 1.67273880
v 0.67361431 -0.87292879 1.67214370
v -0.73819431 -0.87292879 1.67198560
v -0.80847232 -0.80856766 1.67198560
v -0.73819431 -0.73828263 1.67237618
v -0.73819431 -0.66797173 1.67256215
v -0.67884834 -0.60865499 1.67287825
v 0.65674759 -0.60865499 1.67293409
v 0.59740167 -0.66797173 1.67293409
v 0.59740167 -0.80856766 1.67252496
v 0.52712356 -0.73828263 1.67290611
v 0.59740167 -0.87292879 1.67232034
v -0.73225968 -0.87292879 1.67200425
v -0.66791620 -0.73828263 1.67256215
v -0.66791620 -0.66797173 1.67275734
v -0.66791620 -0.60865499 1.67290611
v 0.59740167 -0.60865499 1.67304567
v 0.52712356 -0.66797173 1.67306421
v 0.52712356 -0.80856766 1.67268295
v 0.45684545 -0.73828263 1.67301770
v 0.38656739 -0.80856766 1.67294331
v 0.45684545 -0.80856766 1.67282251
v 0.52712356 -0.87292879 1.67246912
v -0.66198162 -0.87292879 1.67217157
v -0.66791620 -0.80856766 1.67235753
v -0.59763809 -0.73828263 1.67273880
v -0.59763809 -0.66797173 1.67293409
v -0.59763809 -0.60865499 1.67304567
v 0.58646947 -0.60865499 1.67306421
v 0.45684545 -0.66797173 1.67310141
v 0.38656739 -0.73828263 1.67308286
v 0.52712356 -0.60865499 1.67310141
v 0.31628933 -0.80856766 1.67301770
v 0.38656739 -0.87292879 1.67272015
v 0.39250199 -0.87292879 1.67271093
v 0.25194582 -0.87292879 1.67289689
v 0.31628933 -0.87292879 1.67282251
v 0.46278008 -0.87292879 1.67259002
v -0.59763809 -0.87292879 1.67232034
v -0.59763809 -0.80856766 1.67252496
v -0.52704765 -0.73828263 1.67290611
v -0.52704765 -0.66797173 1.67306421
v -0.52704765 -0.60865499 1.67310141
v 0.31628933 -0.73828263 1.67311073
v 0.24601121 -0.80856766 1.67306421
v 0.44591335 -0.60865499 1.67311073
v 0.17573314 -0.87292879 1.67296196
v -0.52704765 -0.87292879 1.67246912
v -0.52704765 -0.80856766 1.67268295
v -0.45676959 -0.80856766 1.67282251
v -0.38649153 -0.80856766 1.67294331
v -0.45676959 -0.73828263 1.67301770
v -0.38649153 -0.73828263 1.67308286
v -0.45676959 -0.66797173 1.67310141
v -0.31621342 -0.73828263 1.67311073
v -0.38649153 -0.66797173 1.67311073
v -0.38649153 -0.60865499 1.67311073
v 0.10576741 -0.80856766 1.67311073
v 0.17573314 -0.80856766 1.67309219
v 0.11170200 -0.87292879 1.67298983
v -0.45676959 -0.87292879 1.67259935
v -0.38649153 -0.87292879 1.67272015
v -0.38055690 -0.87292879 1.67272947
v -0.31621342 -0.87292879 1.67282251
v -0.24000075 -0.87292879 1.67290611
v -0.31621342 -0.80856766 1.67301770
v -0.24593533 -0.80856766 1.67306421
v -0.17565727 -0.80856766 1.67309219
v -0.10537919 -0.80856766 1.67311073
v 0.04111158 -0.87292879 1.67299915
v -0.17565727 -0.87292879 1.67296196
v -0.10537919 -0.87292879 1.67298983
v -0.03510110 -0.87292879 1.67299915
f 1 2 3
f 1 3 4
f 1 4 8
f 1 8 10
f 1 10 5
f 1 5 11
f 1 11 19
f 1 19 30
f 1 30 44
f 1 44 43
f 1 43 53
f 1 53 63
f 1 63 75
f 1 75 85
f 1 85 89
f 1 89 88
f 1 88 99
f 1 99 108
f 1 108 120
f 1 120 135
f 1 135 149
f 1 149 138
f 1 138 124
f 1 124 121
f 1 121 109
f 1 109 100
f 1 100 90
f 1 90 76
f 1 76 67
f 1 67 66
f 1 66 65
f 1 65 64
f 1 64 55
f 1 55 54
f 1 54 45
f 1 45 37
f 1 37 25
f 1 25 17
f 1 17 9
f 1 9 6
f 1 6 2
f 2 6 3
f 3 7 8
f 3 8 4
f 3 6 9
f 3 9 7
f 5 10 11
f 7 9 12
f 7 12 13
f 7 13 14
f 7 14 15
f 7 15 16
f 7 16 24
f 7 24 35
f 7 35 34
f 7 34 33
f 7 33 49
f 7 49 48
f 7 48 58
f 7 58 71
f 7 71 79
f 7 79 82
f 7 82 94
f 7 94 104
f 7 104 115
f 7 115 130
f 7 130 127
f 7 127 126
f 7 126 129
f 7 129 128
f 7 128 139
f 7 139 152
f 7 152 162
f 7 162 165
f 7 165 164
f 7 164 163
f 7 163 157
f 7 157 156
f 7 156 155
f 7 155 154
f 7 154 153
f 7 153 140
f 7 140 131
f 7 131 116
f 7 116 105
f 7 105 95
f 7 95 83
f 7 83 72
f 7 72 59
f 7 59 50
f 7 50 38
f 7 38 26
f 7 26 18
f 7 18 10
f 7 10 8
f 9 17 12
f 10 18 19
f 10 19 11
f 12 17 20
f 12 20 21
f 12 21 22
f 12 22 13
f 13 22 14
f 14 21 23
f 14 23 24
f 14 24 16
f 14 16 15
f 14 22 21
f 17 25 21
f 17 21 20
f 18 26 27
f 18 27 28
f 18 28 29
f 18 29 30
f 18 30 19
f 21 25 23
f 23 31 32
f 23 32 33
f 23 33 34
f 23 34 35
f 23 35 24
f 23 25 36
f 23 36 31
f 25 37 36
f 26 38 27
f 27 38 39
f 27 39 28
f 28 39 40
f 28 40 29
f 29 40 41
f 29 41 42
f 29 42 43
f 29 43 44
f 29 44 30
f 31 36 37
f 31 37 45
f 31 45 46
f 31 46 32
f 32 47 48
f 32 48 49
f 32 49 33
f 32 46 47
f 38 50 39
f 39 50 51
f 39 51 41
f 39 41 40
f 41 52 43
f 41 43 42
f 41 51 52
f 43 52 53
f 45 54 46
f 46 54 47
f 47 54 55
f 47 55 56
f 47 56 57
f 47 57 48
f 48 57 58
f 50 59 51
f 51 59 60
f 51 60 61
f 51 61 52
f 52 61 53
f 53 61 62
f 53 62 63
f 55 64 56
f 56 64 65
f 56 65 66
f 56 66 67
f 56 67 68
f 56 68 69
f 56 69 57
f 57 69 70
f 57 70 71
f 57 71 58
f 59 72 60
f 60 72 73
f 60 73 62
f 60 62 61
f 62 73 63
f 63 73 74
f 63 74 75
f 67 76 68
f 68 76 77
f 68 77 80
f 68 80 78
f 68 78 69
f 69 78 70
f 70 79 71
f 70 78 80
f 70 80 81
f 70 81 82
f 70 82 79
f 72 83 84
f 72 84 73
f 73 84 74
f 74 85 75
f 74 84 86
f 74 86 87
f 74 87 88
f 74 88 89
f 74 89 85
f 76 90 91
f 76 91 77
f 77 91 80
f 80 91 81
f 81 92 82
f 81 91 101
f 81 101 93
f 81 93 92
f 82 92 94
f 83 95 96
f 83 96 84
f 84 96 86
f 86 96 97
f 86 97 98
f 86 98 87
f 87 98 88
f 88 98 107
f 88 107 99
f 90 100 91
f 91 100 101
f 92 93 103
f 92 103 102
f 92 102 94
f 93 101 103
f 94 102 104
f 95 105 96
f 96 105 97
f 97 105 106
f 97 106 107
f 97 107 98
f 99 107 108
f 100 109 101
f 101 109 110
f 101 110 103
f 102 103 111
f 102 111 104
f 103 110 112
f 103 112 113
f 103 113 114
f 103 114 111
f 104 111 115
f 105 116 132
f 105 132 117
f 105 117 106
f 106 117 118
f 106 118 119
f 106 119 107
f 107 119 108
f 108 119 120
f 109 121 110
f 110 122 123
f 110 123 112
f 110 121 124
f 110 124 122
f 111 114 115
f 112 123 125
f 112 125 113
f 113 126 127
f 113 127 130
f 113 130 114
f 113 125 128
f 113 128 129
f 113 129 126
f 114 130 115
f 116 131 132
f 117 132 118
f 118 132 133
f 118 133 119
f 119 133 134
f 119 134 120
f 120 134 135
f 122 124 136
f 122 136 123
f 123 136 151
f 123 151 137
f 123 137 125
f 124 138 136
f 125 137 139
f 125 139 128
f 131 140 141
f 131 141 132
f 132 141 133
f 133 141 142
f 133 142 143
f 133 143 144
f 133 144 134
f 134 144 145
f 134 145 146
f 134 146 135
f 135 146 147
f 135 147 148
f 135 148 149
f 136 138 149
f 136 149 148
f 136 148 147
f 136 147 161
f 136 161 150
f 136 150 151
f 137 151 152
f 137 152 139
f 140 153 142
f 140 142 141
f 142 153 154
f 142 154 143
f 143 154 155
f 143 155 156
f 143 156 157
f 143 157 158
f 143 158 144
f 144 158 145
f 145 158 159
f 145 159 160
f 145 160 147
f 145 147 146
f 147 160 161
f 150 161 165
f 150 165 162
f 150 162 152
f 150 152 151
f 157 163 158
f 158 163 159
f 159 163 164
f 159 164 160
f 160 164 161
f 161 164 165

