# https://github.com/mikedh/trimesh
v 1.47538848 0.26890980 -1.50295966
v 1.64001777 0.26890980 -1.50295966
v 1.47641900 0.24972256 -1.50295966
v 1.18348705 0.11614870 -1.43942585
v 1.18348705 0.15072501 -1.43942585
v 1.18348705 0.15892705 -1.39667310
v 1.42815521 0.26890980 -0.95009665
v 1.91508683 0.26890980 -1.46334563
v 1.85883647 0.23692018 -1.50295966
v 1.48629501 0.10167643 -1.50295966
v 1.18348705 0.10167643 -1.43412235
v 1.18348705 0.15545633 -1.06125369
v 1.18348705 0.13494303 -1.03776681
v 1.18348705 0.12421980 -1.02607744
v 1.18348705 0.10167643 -1.00443055
v 1.42824113 0.10167643 -0.95009665
v 2.04381884 0.26890980 -0.95009665
v 1.95089831 0.26890980 -1.39256022
v 1.95871316 0.17578955 -1.40435783
v 1.92676647 0.17578955 -1.46697154
v 1.89902758 0.21303438 -1.50295966
v 1.90967668 0.10167643 -1.50295966
v 2.06082292 0.10167643 -0.95009665
v 2.04699654 0.24425455 -0.95009665
v 2.04004039 0.26890980 -0.97412477
v 1.96523995 0.26890980 -1.35170163
v 1.96893291 0.21287066 -1.36225445
v 1.97125149 0.17578955 -1.36918147
v 1.96163312 0.10547459 -1.41252952
v 1.93252026 0.10547459 -1.46697154
v 1.90452385 0.16892995 -1.50295966
v 1.90392267 0.17578955 -1.50295966
v 1.90959077 0.10547459 -1.50295966
v 1.93252026 0.10167643 -1.46697154
v 2.05687244 0.10167643 -0.97482831
v 2.05687244 0.10547459 -0.97482831
v 2.06073701 0.10547459 -0.95009665
v 2.05558439 0.17578955 -0.95009665
v 2.05171981 0.17578955 -0.97482831
v 2.04330379 0.24330501 -0.97412477
v 2.03669108 0.26890980 -0.99528469
v 1.97133740 0.26890980 -1.33389699
v 1.97580315 0.26890980 -1.32069232
v 1.98567905 0.17578955 -1.32632060
v 1.97399963 0.10547459 -1.37735327
v 1.96232020 0.10167643 -1.41068954
v 1.96163312 0.10167643 -1.41258369
v 1.93406605 0.10167643 -1.46410334
v 2.04622354 0.10167643 -1.04133855
v 2.04553645 0.10547459 -1.04518091
v 2.03900987 0.14085308 -1.08046539
v 2.04184370 0.16888083 -1.04139261
v 2.03986857 0.21801126 -1.01547045
v 2.02896193 0.26890980 -1.04274562
v 1.98868492 0.26890980 -1.27279847
v 2.00457235 0.17578955 -1.25602217
v 1.99108941 0.10547459 -1.32632060
v 1.97399963 0.10167643 -1.37746150
v 2.03402886 0.10167643 -1.11634518
v 2.02269287 0.10547459 -1.18577779
v 2.03368521 0.10547459 -1.11813110
v 2.01736842 0.17578955 -1.18577779
v 2.00852284 0.24607177 -1.18577779
v 2.01711069 0.26890980 -1.11547935
v 1.99280702 0.26890980 -1.25602217
v 2.00148078 0.26890980 -1.20861529
v 2.00989701 0.10547459 -1.25602217
v 2.00998271 0.10167643 -1.25602217
v 1.99211993 0.10167643 -1.32253241
v 1.99108941 0.10167643 -1.32632060
v 2.02329405 0.10167643 -1.18226011
v 2.02269287 0.10167643 -1.18577779
v 2.01066980 0.10167643 -1.25223386
v 2.00560309 0.26890980 -1.18577779
f 1 2 9
f 1 9 21
f 1 21 32
f 1 32 31
f 1 31 33
f 1 33 22
f 1 22 10
f 1 10 3
f 1 3 4
f 1 4 5
f 1 5 6
f 1 6 7
f 1 7 17
f 1 17 25
f 1 25 41
f 1 41 54
f 1 54 64
f 1 64 74
f 1 74 66
f 1 66 65
f 1 65 55
f 1 55 43
f 1 43 42
f 1 42 26
f 1 26 18
f 1 18 8
f 1 8 2
f 2 8 9
f 3 10 4
f 4 11 15
f 4 15 14
f 4 14 13
f 4 13 12
f 4 12 6
f 4 6 5
f 4 10 11
f 6 12 7
f 7 12 13
f 7 13 14
f 7 14 15
f 7 15 16
f 7 16 23
f 7 23 37
f 7 37 38
f 7 38 24
f 7 24 17
f 8 18 19
f 8 19 20
f 8 20 21
f 8 21 9
f 10 22 34
f 10 34 48
f 10 48 47
f 10 47 46
f 10 46 58
f 10 58 70
f 10 70 69
f 10 69 68
f 10 68 73
f 10 73 72
f 10 72 71
f 10 71 59
f 10 59 49
f 10 49 35
f 10 35 23
f 10 23 16
f 10 16 15
f 10 15 11
f 17 24 25
f 18 26 27
f 18 27 28
f 18 28 19
f 19 28 29
f 19 29 20
f 20 29 30
f 20 30 31
f 20 31 32
f 20 32 21
f 22 33 30
f 22 30 34
f 23 35 36
f 23 36 37
f 24 38 39
f 24 39 40
f 24 40 41
f 24 41 25
f 26 42 27
f 27 42 43
f 27 43 44
f 27 44 28
f 28 44 45
f 28 45 29
f 29 45 46
f 29 46 47
f 29 47 30
f 30 48 34
f 30 33 31
f 30 47 48
f 35 49 36
f 36 49 50
f 36 50 51
f 36 51 37
f 37 51 38
f 38 51 39
f 39 51 52
f 39 52 53
f 39 53 41
f 39 41 40
f 41 53 54
f 43 55 44
f 44 55 56
f 44 56 57
f 44 57 45
f 45 58 46
f 45 57 58
f 49 59 60
f 49 60 61
f 49 61 50
f 50 61 51
f 51 53 52
f 51 61 60
f 51 60 62
f 51 62 63
f 51 63 53
f 53 63 64
f 53 64 54
f 55 65 56
f 56 65 66
f 56 66 63
f 56 63 62
f 56 62 60
f 56 60 67
f 56 67 57
f 57 67 68
f 57 68 69
f 57 69 70
f 57 70 58
f 59 71 60
f 60 71 72
f 60 72 73
f 60 73 68
f 60 68 67
f 63 66 74
f 63 74 64

