# https://github.com/mikedh/trimesh
v -0.59546436 1.26965176 2.18852815
v -0.55463531 1.26965176 2.18852815
v -0.59546436 1.26965176 2.43889542
v -0.59546436 2.13989989 2.18852815
v -0.54164237 1.26965176 2.18879783
v -0.17541423 1.88496567 2.18852815
v -0.42922877 1.26965176 2.43889542
v -0.59546436 1.96649657 2.43889542
v -0.59546436 2.13962288 2.18911633
v -0.59484762 2.14017690 2.18852815
v -0.17541423 1.72218076 2.25070330
v -0.17541423 1.65385358 2.27913200
v -0.17541423 1.61895131 2.29550284
v -0.17541423 1.58174073 2.31498622
v -0.17541423 1.51646060 2.34919847
v -0.17541423 1.44111598 2.38872889
v -0.17541423 1.38017556 2.42122563
v -0.17541423 1.35118267 2.43889542
v -0.17541423 1.88441164 2.18860170
v -0.17541423 2.21284379 2.18852815
v -0.58086785 1.97129801 2.43889542
v -0.59546436 1.96889729 2.43553794
v -0.59546436 2.12918918 2.20453146
v -0.57988107 2.11487729 2.23249435
v -0.53350122 2.15688930 2.18852815
v -0.17541423 2.04221040 2.43889542
v -0.24609414 2.20813476 2.18852815
v -0.17578428 2.21247437 2.18916537
v -0.17541423 2.16132131 2.26685370
v -0.57498817 1.97314470 2.43889542
v -0.59546436 2.02863735 2.34995827
v -0.59546436 1.98893365 2.40696235
v -0.59546436 2.09724144 2.25080136
v -0.50323918 2.04184119 2.36919648
v -0.55011246 2.03565469 2.36012878
v -0.52951286 2.15790495 2.18852815
v -0.17541423 2.04738126 2.43867477
v -0.17578428 2.04728885 2.43889542
v -0.30760504 2.19991697 2.18852815
v -0.31188118 2.19705463 2.19289039
v -0.24609414 2.20776534 2.18916537
v -0.17578428 2.10296632 2.35534977
v -0.17541423 2.12632684 2.31993663
v -0.57227445 1.97397574 2.43889542
v -0.45698270 2.04664241 2.37630350
v -0.52692250 2.01737261 2.39561547
v -0.52721031 1.98736397 2.43889542
v -0.45698270 2.00398417 2.43889542
v -0.45698270 2.02282027 2.41144716
v -0.51314835 2.16122912 2.18852815
v -0.17541423 2.07341930 2.39985512
v -0.24555965 2.04147177 2.43889542
v -0.24609414 2.10019618 2.35128152
v -0.24609414 2.06751002 2.40007577
v -0.31184005 2.19927053 2.18852815
v -0.33104165 2.19631600 2.18852815
v -0.38667281 2.18578989 2.18852815
v -0.33227517 2.17591001 2.21881926
v -0.28540192 2.18034223 2.22548519
v -0.24609414 2.15873599 2.26320202
v -0.17541423 2.10296632 2.35534977
v -0.31068878 2.05606067 2.40353132
v -0.31640405 2.09521014 2.34388031
v -0.39242915 2.09244022 2.32638213
v -0.45698270 2.07785131 2.32976413
v -0.38667281 2.02956080 2.42137272
v -0.41644143 2.01183255 2.43889542
v -0.45698270 2.16399904 2.20102688
v -0.45698270 2.17230904 2.18852815
v -0.28342830 2.03934807 2.43583192
v -0.28642983 2.03667054 2.43889542
v -0.38667281 2.17073937 2.21105051
v -0.31640405 2.11875548 2.30876137
v -0.33030155 2.03491605 2.42928857
v -0.32483301 2.02937599 2.43889542
f 1 2 5
f 1 5 7
f 1 7 3
f 1 3 8
f 1 8 22
f 1 22 32
f 1 32 31
f 1 31 33
f 1 33 23
f 1 23 9
f 1 9 4
f 1 4 10
f 1 10 25
f 1 25 36
f 1 36 50
f 1 50 69
f 1 69 57
f 1 57 56
f 1 56 55
f 1 55 39
f 1 39 27
f 1 27 20
f 1 20 6
f 1 6 2
f 2 6 5
f 3 7 18
f 3 18 26
f 3 26 38
f 3 38 52
f 3 52 71
f 3 71 75
f 3 75 67
f 3 67 48
f 3 48 47
f 3 47 44
f 3 44 30
f 3 30 21
f 3 21 8
f 4 9 10
f 5 11 12
f 5 12 13
f 5 13 14
f 5 14 15
f 5 15 16
f 5 16 17
f 5 17 18
f 5 18 7
f 5 6 19
f 5 19 11
f 6 20 29
f 6 29 43
f 6 43 61
f 6 61 51
f 6 51 37
f 6 37 26
f 6 26 18
f 6 18 17
f 6 17 16
f 6 16 15
f 6 15 14
f 6 14 13
f 6 13 12
f 6 12 11
f 6 11 19
f 8 21 22
f 9 23 24
f 9 24 25
f 9 25 10
f 20 27 28
f 20 28 29
f 21 30 31
f 21 31 32
f 21 32 22
f 23 33 24
f 24 34 25
f 24 33 31
f 24 31 35
f 24 35 34
f 25 34 36
f 26 37 38
f 27 39 40
f 27 40 41
f 27 41 28
f 28 41 29
f 29 41 42
f 29 42 43
f 30 44 35
f 30 35 31
f 34 45 36
f 34 35 46
f 34 46 47
f 34 47 48
f 34 48 49
f 34 49 45
f 35 44 47
f 35 47 46
f 36 45 50
f 37 51 38
f 38 51 53
f 38 53 54
f 38 54 52
f 39 55 40
f 40 55 56
f 40 56 57
f 40 57 58
f 40 58 59
f 40 59 41
f 41 59 60
f 41 60 42
f 42 51 61
f 42 61 43
f 42 60 51
f 45 62 63
f 45 63 64
f 45 64 65
f 45 65 50
f 45 49 66
f 45 66 62
f 48 67 49
f 49 67 66
f 50 68 69
f 50 65 68
f 51 60 53
f 52 54 70
f 52 70 71
f 53 60 59
f 53 59 54
f 54 59 70
f 57 69 68
f 57 68 72
f 57 72 58
f 58 72 73
f 58 73 59
f 59 73 63
f 59 63 70
f 62 66 74
f 62 74 70
f 62 70 63
f 63 73 64
f 64 73 65
f 65 73 72
f 65 72 68
f 66 67 75
f 66 75 74
f 70 74 75
f 70 75 71

