# https://github.com/mikedh/trimesh
v 0.58118169 -0.45706122 2.18624205
v 0.90092626 -0.45706122 2.18624205
v 0.58118169 -0.45706122 2.43889542
v 0.58118169 -0.01012604 2.18624205
v 0.65038952 -0.45706122 2.43889542
v 1.02441554 -0.32313379 2.18624205
v 1.02441554 -0.33450953 2.43889542
v 0.58118169 -0.01012604 2.43889542
v 1.00931566 -0.01012604 2.18624205
v 1.02441554 -0.05007238 2.18624205
v 1.02441554 -0.21270167 2.43889542
v 0.62678509 -0.01012604 2.43889542
f 1 2 5
f 1 5 3
f 1 3 8
f 1 8 4
f 1 4 9
f 1 9 10
f 1 10 6
f 1 6 2
f 2 6 7
f 2 7 5
f 3 5 7
f 3 7 11
f 3 11 12
f 3 12 8
f 4 8 12
f 4 12 9
f 6 10 11
f 6 11 7
f 9 12 11
f 9 11 10

