# https://github.com/mikedh/trimesh
v 0.94918722 0.87900445 3.32842639
v 0.95277457 0.87900445 3.32838302
v 0.94918722 0.94908664 3.32829647
v 0.87888532 0.94908664 3.32829647
v 0.95277457 0.22139046 3.27490740
v 0.95277457 0.94908664 3.32803643
v 0.87888532 1.01943243 3.32799306
v 0.86853596 1.01943243 3.32807981
v 0.86853596 0.94908664 3.32734306
v 0.95105926 0.22139046 3.27443070
v 0.95277457 0.22139046 3.12163055
v 0.95277457 1.01943243 3.32209950
v 0.94918722 1.01943243 3.32266274
v 0.87888532 1.08977812 3.32157941
v 0.86853596 1.08977812 3.32235954
v 0.86853596 0.22139046 3.24578617
v 0.90568672 0.22139046 3.26091003
v 0.92716891 0.22139046 3.26775701
v 0.94926978 0.22139046 3.11846710
v 0.95277457 0.22903097 3.10511994
v 0.95277457 1.08964642 3.30987883
v 0.94918722 1.08977812 3.31083224
v 0.86853596 1.15999211 3.30931558
v 0.86853596 0.22139046 3.04887063
v 0.94829667 0.22139046 3.11760044
v 0.86853596 0.26473076 2.95301316
v 0.86853596 0.26947321 2.94295936
v 0.86853596 0.29463432 2.89009037
v 0.86853596 0.29674204 2.88571347
v 0.95277457 0.26394037 3.03353009
v 0.95277457 1.15380069 3.28873127
v 0.94493206 1.15775264 3.28977144
v 0.87888532 1.15999211 3.30762542
v 0.86853596 1.21663756 3.28977144
v 0.86853596 0.23087525 3.02763632
v 0.87303031 0.29911327 2.88571347
v 0.95277457 0.33389091 2.89394719
v 0.86853596 1.56704883 2.88571347
v 0.95277457 1.16605184 3.28223109
v 0.91865849 1.19898527 3.28106101
v 0.87888532 1.21321250 3.28838469
v 0.86853596 1.25194216 3.27083392
v 0.93900277 0.33507650 2.88571347
v 0.95277457 0.34324401 2.88571347
v 0.86853596 1.55822263 2.90278754
v 0.87627119 1.56296508 2.88571347
v 0.95277457 1.22177510 3.24968616
v 0.94997069 1.23099650 3.24522271
v 0.87888532 1.24838540 3.26875380
v 0.86853596 1.30239607 3.23633899
v 0.95277457 1.50434365 2.88571347
v 0.88122737 1.56006701 2.88571347
v 0.86853596 1.53029515 2.95275312
v 0.90888632 1.54360020 2.88571347
v 0.95277457 1.23020611 3.24422592
v 0.93440941 1.28066002 3.22043501
v 0.87811845 1.30279127 3.23183218
v 0.86853596 1.31859929 3.22472516
v 0.95006960 1.51751700 2.88571347
v 0.95277457 1.51567272 2.88606005
v 0.86853596 1.48484708 3.03400680
v 0.94240038 1.52239114 2.88571347
v 0.89320968 1.46324272 3.04466722
v 0.95277457 1.23389466 3.24175585
v 0.95277457 1.30094699 3.19378385
v 0.95277457 1.30279127 3.19231035
v 0.90105209 1.32755718 3.20171415
v 0.86853596 1.35851453 3.19291697
v 0.93012942 1.41634567 3.08583563
v 0.94553407 1.43900380 3.02880640
v 0.95277457 1.43030940 3.03595679
v 0.86853596 1.45033287 3.09333260
v 0.95277457 1.31833589 3.17969973
v 0.95277457 1.35192790 3.15239857
v 0.94918722 1.35311360 3.15343873
v 0.88092227 1.37221487 3.17471620
v 0.86853596 1.37563993 3.17848648
v 0.90766584 1.40198663 3.13263776
v 0.95277457 1.38947197 3.10503319
v 0.86853596 1.44335095 3.10429644
v 0.95277457 1.38841819 3.10667997
v 0.86853596 1.39922026 3.15807547
v 0.86853596 1.42741124 3.12574741
f 1 2 3
f 1 3 4
f 1 4 5
f 1 5 2
f 2 6 3
f 2 5 11
f 2 11 20
f 2 20 30
f 2 30 37
f 2 37 44
f 2 44 51
f 2 51 60
f 2 60 71
f 2 71 79
f 2 79 81
f 2 81 74
f 2 74 73
f 2 73 66
f 2 66 65
f 2 65 64
f 2 64 55
f 2 55 47
f 2 47 39
f 2 39 31
f 2 31 21
f 2 21 12
f 2 12 6
f 3 6 7
f 3 7 8
f 3 8 4
f 4 9 5
f 4 8 9
f 5 10 18
f 5 18 17
f 5 17 16
f 5 16 24
f 5 24 25
f 5 25 19
f 5 19 11
f 5 9 10
f 6 12 13
f 6 13 7
f 7 13 14
f 7 14 15
f 7 15 8
f 8 15 23
f 8 23 34
f 8 34 42
f 8 42 50
f 8 50 58
f 8 58 68
f 8 68 77
f 8 77 82
f 8 82 83
f 8 83 80
f 8 80 72
f 8 72 61
f 8 61 53
f 8 53 45
f 8 45 38
f 8 38 29
f 8 29 28
f 8 28 27
f 8 27 26
f 8 26 35
f 8 35 24
f 8 24 16
f 8 16 9
f 9 16 17
f 9 17 18
f 9 18 10
f 11 19 20
f 12 21 22
f 12 22 13
f 13 22 14
f 14 22 23
f 14 23 15
f 19 25 26
f 19 26 20
f 20 26 27
f 20 27 28
f 20 28 29
f 20 29 30
f 21 31 32
f 21 32 33
f 21 33 22
f 22 33 23
f 23 33 34
f 24 35 25
f 25 35 26
f 29 36 37
f 29 37 30
f 29 38 46
f 29 46 52
f 29 52 54
f 29 54 62
f 29 62 59
f 29 59 51
f 29 51 44
f 29 44 43
f 29 43 36
f 31 39 40
f 31 40 32
f 32 40 41
f 32 41 33
f 33 41 34
f 34 41 42
f 36 43 37
f 37 43 44
f 38 45 46
f 39 47 40
f 40 47 48
f 40 48 49
f 40 49 42
f 40 42 41
f 42 49 50
f 45 52 46
f 45 53 54
f 45 54 52
f 47 55 48
f 48 55 56
f 48 56 49
f 49 56 57
f 49 57 50
f 50 57 58
f 51 59 60
f 53 61 54
f 54 60 62
f 54 61 63
f 54 63 60
f 55 64 56
f 56 65 66
f 56 66 67
f 56 67 58
f 56 58 57
f 56 64 65
f 58 67 68
f 59 62 60
f 60 63 69
f 60 69 70
f 60 70 71
f 61 72 69
f 61 69 63
f 66 73 67
f 67 73 74
f 67 74 75
f 67 75 76
f 67 76 77
f 67 77 68
f 69 71 70
f 69 72 78
f 69 78 79
f 69 79 71
f 72 80 78
f 74 81 78
f 74 78 75
f 75 78 82
f 75 82 76
f 76 82 77
f 78 81 79
f 78 80 83
f 78 83 82

