# https://github.com/mikedh/trimesh
v -0.71474762 -1.14528513 0.44085041
v -0.00025187 -1.35199988 0.44085041
v -0.71474762 -1.14528513 0.25650145
v -1.87428157 -1.14528513 0.44085041
v -0.00025187 -2.20595679 0.44085041
v -0.00025187 -1.35199988 0.43137672
v -0.00025187 -1.35397251 0.39647746
v -0.00025187 -1.35687958 0.36107293
v -0.00025187 -1.36809267 0.32599321
v -0.16697987 -1.34006000 0.25650145
v -1.86671984 -1.14528513 0.25650145
v -1.88442547 -1.14528513 0.44056169
v -1.88184329 -1.14974962 0.44085041
v -0.00025187 -2.19370553 0.29078718
v -0.03529422 -2.20595679 0.44085041
v -0.00025187 -1.38169358 0.29795110
v -0.13433510 -1.35594513 0.25650145
v -1.85805153 -1.16013198 0.25650145
v -1.86782643 -1.14528513 0.26676913
v -1.88368767 -1.14528513 0.43251356
v -1.87944572 -1.15390252 0.44085041
v -0.00025187 -2.19090228 0.25650145
v -0.03529422 -2.19370553 0.29078718
v -0.10556348 -2.19505519 0.36107293
v -0.17583269 -2.19713174 0.44085041
v -0.00025187 -1.61208034 0.25650145
v -0.10261251 -1.37151888 0.25650145
v -1.84643204 -1.17913194 0.25650145
v -1.86819543 -1.16013198 0.36107293
v -1.87686375 -1.14528513 0.36107293
v -1.84163689 -1.21432842 0.44085041
v -0.03529422 -2.19090228 0.25650145
v -0.17583269 -2.18488048 0.29078718
v -0.17583269 -2.18207723 0.25650145
v -0.24610184 -2.19235566 0.44085041
v -0.24610184 -2.19162897 0.43137672
v -0.21013730 -2.17989675 0.25650145
v -1.83241518 -1.20155812 0.25650145
v -1.81618515 -1.24952499 0.44085041
v -1.81231198 -1.24391850 0.36107293
v -1.81581614 -1.24879820 0.43137672
v -0.29829658 -2.18602248 0.44085041
v -0.29110365 -2.18145406 0.36107293
v -0.28280413 -2.17979302 0.32272705
v -0.25882777 -2.17792412 0.27584582
v -0.21308827 -2.17968930 0.25650145
v -1.80696323 -1.23675459 0.25650145
v -1.78058929 -1.29863397 0.44085041
v -1.77358076 -1.28752481 0.29078718
v -1.75513755 -1.33237695 0.43137672
v -0.30862482 -2.18467282 0.44085041
v -0.30641165 -2.18436124 0.43137672
v -0.35030686 -2.16151996 0.25650145
v -0.31360458 -2.16847611 0.25650145
v -0.27893102 -2.17335591 0.25650145
v -0.25126599 -2.17688585 0.25650145
v -1.74628463 -1.32022952 0.25650145
v -1.75550634 -1.33299992 0.44085041
v -1.70884460 -1.37110357 0.25650145
v -1.72802581 -1.37027295 0.44085041
v -0.31692434 -2.18311530 0.44085041
v -0.45709391 -2.15560188 0.43137672
v -0.45709391 -2.14978773 0.36107293
v -0.45709391 -2.14397359 0.29078718
v -0.45709391 -2.14106641 0.25650145
v -1.69261456 -1.39259519 0.25650145
v -1.68560603 -1.40411976 0.27176763
v -1.68818811 -1.40713066 0.31864885
v -1.69390555 -1.41387926 0.43137672
v -1.69427445 -1.41439840 0.44085041
v -0.37778744 -2.17148701 0.44085041
v -0.45709391 -2.15632857 0.44085041
v -0.51795696 -2.14397359 0.44085041
v -0.52736306 -2.14127406 0.43137672
v -0.49139852 -2.13400633 0.25650145
v -1.68468384 -1.40308148 0.25650145
v -1.65019478 -1.44025068 0.25650145
v -1.66199857 -1.44959487 0.44085041
v -1.69003238 -1.41917427 0.44085041
v -0.52736306 -2.14200075 0.44085041
v -0.52736306 -2.13535619 0.36107293
v -0.59043934 -2.12476597 0.44085041
v -0.59080824 -2.11843279 0.36107293
v -0.58158653 -2.11542168 0.29078718
v -0.57697573 -2.11396830 0.25650145
v -0.54931065 -2.12113210 0.25650145
v -0.52736306 -2.12943811 0.29078718
v -0.52736306 -2.12653094 0.25650145
v -1.61386134 -1.47897730 0.25650145
v -1.55871568 -1.55954515 0.44085041
v -1.55428933 -1.55487301 0.36107293
v -1.55816249 -1.55902601 0.43137672
v -0.60279642 -2.12133976 0.44085041
v -0.60390301 -2.11988617 0.42780379
v -0.62474400 -2.11427967 0.44085041
v -0.59505020 -2.10815394 0.25650145
v -1.55926908 -1.53711898 0.25650145
v -1.55410493 -1.56432102 0.44085041
v -1.54838738 -1.54864355 0.25650145
v -1.52385783 -1.59474162 0.44085041
v -0.66661044 -2.10067876 0.44085041
v -0.66384392 -2.10047110 0.42780379
v -0.64171194 -2.09299571 0.25650145
v -1.51297613 -1.58363236 0.25650145
v -1.49342623 -1.62360481 0.44085041
v -1.48383562 -1.61218417 0.25650145
v -1.47756488 -1.61830980 0.25650145
v -1.47977816 -1.62007487 0.29078718
v -1.48402012 -1.62381246 0.36107293
v -0.73042446 -2.07991383 0.44085041
v -0.70239054 -2.07326906 0.25650145
v -1.48881537 -1.62796547 0.44085041
v -1.47092535 -1.62391629 0.25650145
v -1.44639569 -1.66264291 0.43137672
v -1.44694899 -1.66316204 0.44085041
v -0.73835513 -2.07731824 0.44085041
v -0.73835513 -2.06153683 0.25650145
v -1.42518580 -1.66181228 0.25650145
v -1.40618919 -1.69690503 0.44085041
v -0.81305075 -2.05053150 0.44085041
v -0.81360404 -2.04980460 0.43410153
v -0.79940263 -2.04897398 0.36107293
v -0.78796774 -2.04450949 0.25650145
v -0.76048716 -2.05406144 0.25650145
v -1.38295052 -1.69659355 0.25650145
v -1.36708917 -1.71330930 0.29078718
v -1.33278462 -1.75525437 0.41952108
v -1.37741747 -1.71206336 0.35910601
v -1.36432270 -1.73147853 0.44085041
v -0.82190356 -2.04710529 0.44085041
v -0.84016248 -2.03744962 0.41248348
v -0.83462943 -2.03516541 0.36107293
v -0.82688326 -2.03205057 0.29078718
v -0.82301015 -2.03049326 0.25650145
v -1.34292841 -1.72950591 0.25650145
v -1.32208742 -1.74663697 0.25650145
v -1.30567288 -1.77747278 0.44085041
v -1.36137183 -1.73386657 0.44085041
v -1.30493509 -1.75982268 0.25650145
v -1.28686057 -1.77342360 0.25650145
v -0.86542988 -2.02841671 0.44085041
v -0.87889349 -2.00547150 0.25650145
v -0.85215066 -2.01751510 0.25650145
v -1.30382850 -1.77882265 0.44085041
v -1.26048663 -1.79148922 0.25650145
v -1.24812955 -1.81703002 0.43137672
v -1.24886734 -1.81744533 0.44085041
v -1.29368470 -1.77851106 0.36107293
v -0.87280721 -2.02436753 0.43410153
v -0.94123208 -1.99270120 0.44085041
v -0.93901890 -1.98034601 0.29078718
v -0.93569903 -1.97878870 0.25650145
v -1.23189941 -1.81059290 0.25650145
v -1.21308720 -1.83935226 0.43137672
v -1.21382489 -1.83976757 0.44085041
v -0.98328297 -1.97287062 0.44085041
v -0.98070089 -1.96695275 0.36107293
v -0.97055699 -1.96228060 0.25650145
v -1.19980793 -1.83094252 0.25650145
v -1.11718174 -1.89344497 0.36107293
v -1.15314629 -1.87797494 0.43767447
v -1.14982642 -1.88036309 0.44085041
v -1.01795642 -1.95636252 0.44085041
v -1.01943191 -1.94836809 0.36107293
v -1.01943191 -1.93881615 0.25650145
v -1.10925112 -1.88835751 0.25650145
v -1.09209869 -1.89905146 0.25650145
v -1.09818503 -1.91244472 0.44085041
v -1.12142370 -1.89614428 0.41843837
v -1.07402427 -1.91005679 0.25650145
v -1.04469936 -1.92563054 0.25650145
v -1.09154550 -1.91628625 0.44085041
v -1.08195489 -1.91493659 0.36107293
v -1.09449637 -1.91462500 0.44085041
f 1 2 6
f 1 6 3
f 1 3 11
f 1 11 19
f 1 19 30
f 1 30 20
f 1 20 12
f 1 12 4
f 1 4 13
f 1 13 21
f 1 21 31
f 1 31 39
f 1 39 48
f 1 48 58
f 1 58 60
f 1 60 70
f 1 70 79
f 1 79 78
f 1 78 90
f 1 90 98
f 1 98 100
f 1 100 105
f 1 105 112
f 1 112 115
f 1 115 119
f 1 119 129
f 1 129 138
f 1 138 137
f 1 137 144
f 1 144 147
f 1 147 155
f 1 155 162
f 1 162 168
f 1 168 174
f 1 174 172
f 1 172 163
f 1 163 156
f 1 156 150
f 1 150 141
f 1 141 130
f 1 130 120
f 1 120 116
f 1 116 110
f 1 110 101
f 1 101 95
f 1 95 93
f 1 93 82
f 1 82 80
f 1 80 73
f 1 73 72
f 1 72 71
f 1 71 61
f 1 61 51
f 1 51 42
f 1 42 35
f 1 35 25
f 1 25 15
f 1 15 5
f 1 5 2
f 2 5 14
f 2 14 22
f 2 22 26
f 2 26 16
f 2 16 9
f 2 9 8
f 2 8 7
f 2 7 6
f 3 6 7
f 3 7 8
f 3 8 9
f 3 9 10
f 3 10 17
f 3 17 27
f 3 27 26
f 3 26 22
f 3 22 32
f 3 32 34
f 3 34 37
f 3 37 46
f 3 46 56
f 3 56 55
f 3 55 54
f 3 54 53
f 3 53 65
f 3 65 75
f 3 75 88
f 3 88 86
f 3 86 85
f 3 85 96
f 3 96 103
f 3 103 111
f 3 111 117
f 3 117 124
f 3 124 123
f 3 123 134
f 3 134 143
f 3 143 142
f 3 142 152
f 3 152 158
f 3 158 165
f 3 165 171
f 3 171 170
f 3 170 167
f 3 167 166
f 3 166 159
f 3 159 153
f 3 153 145
f 3 145 140
f 3 140 139
f 3 139 136
f 3 136 135
f 3 135 125
f 3 125 118
f 3 118 113
f 3 113 107
f 3 107 106
f 3 106 104
f 3 104 99
f 3 99 97
f 3 97 89
f 3 89 77
f 3 77 76
f 3 76 66
f 3 66 59
f 3 59 57
f 3 57 47
f 3 47 38
f 3 38 28
f 3 28 18
f 3 18 11
f 4 12 13
f 5 15 23
f 5 23 14
f 9 16 10
f 10 16 17
f 11 18 19
f 12 20 21
f 12 21 13
f 14 23 32
f 14 32 22
f 15 24 23
f 15 25 24
f 16 26 27
f 16 27 17
f 18 28 29
f 18 29 19
f 19 29 30
f 20 30 29
f 20 29 21
f 21 29 31
f 23 24 32
f 24 25 33
f 24 33 34
f 24 34 32
f 25 35 36
f 25 36 37
f 25 37 33
f 28 38 29
f 29 38 31
f 31 38 40
f 31 40 41
f 31 41 39
f 33 37 34
f 35 42 43
f 35 43 44
f 35 44 36
f 36 44 45
f 36 45 46
f 36 46 37
f 38 47 40
f 39 41 48
f 40 48 41
f 40 47 49
f 40 49 50
f 40 50 48
f 42 51 52
f 42 52 43
f 43 52 53
f 43 53 54
f 43 54 44
f 44 54 55
f 44 55 56
f 44 56 45
f 45 56 46
f 47 57 49
f 48 50 58
f 49 57 50
f 50 57 59
f 50 59 60
f 50 60 58
f 51 61 52
f 52 61 62
f 52 62 63
f 52 63 53
f 53 63 64
f 53 64 65
f 59 66 67
f 59 67 68
f 59 68 60
f 60 68 69
f 60 69 70
f 61 71 62
f 62 72 73
f 62 73 74
f 62 74 63
f 62 71 72
f 63 74 64
f 64 74 75
f 64 75 65
f 66 76 67
f 67 76 77
f 67 77 68
f 68 78 79
f 68 79 69
f 68 77 78
f 69 79 70
f 73 80 74
f 74 81 75
f 74 80 82
f 74 82 83
f 74 83 84
f 74 84 85
f 74 85 86
f 74 86 81
f 75 81 87
f 75 87 88
f 77 89 78
f 78 89 91
f 78 91 92
f 78 92 90
f 81 86 87
f 82 93 83
f 83 93 94
f 83 94 95
f 83 95 84
f 84 95 96
f 84 96 85
f 86 88 87
f 89 97 91
f 90 92 98
f 91 98 92
f 91 97 99
f 91 99 100
f 91 100 98
f 93 95 94
f 95 101 102
f 95 102 96
f 96 102 103
f 99 104 100
f 100 104 106
f 100 106 107
f 100 107 108
f 100 108 109
f 100 109 105
f 101 110 102
f 102 110 111
f 102 111 103
f 105 109 112
f 107 113 108
f 108 113 114
f 108 114 109
f 109 114 115
f 109 115 112
f 110 116 117
f 110 117 111
f 113 118 114
f 114 118 119
f 114 119 115
f 116 120 121
f 116 121 122
f 116 122 123
f 116 123 124
f 116 124 117
f 118 125 126
f 118 126 127
f 118 127 128
f 118 128 119
f 119 128 129
f 120 130 121
f 121 130 131
f 121 131 123
f 121 123 122
f 123 131 132
f 123 132 133
f 123 133 134
f 125 135 126
f 126 135 136
f 126 136 127
f 127 137 138
f 127 138 129
f 127 129 128
f 127 136 139
f 127 139 140
f 127 140 137
f 130 141 131
f 131 141 142
f 131 142 132
f 132 142 143
f 132 143 133
f 133 143 134
f 137 140 144
f 140 145 146
f 140 146 147
f 140 147 148
f 140 148 144
f 141 149 142
f 141 150 149
f 142 149 151
f 142 151 152
f 144 148 147
f 145 153 146
f 146 153 154
f 146 154 155
f 146 155 147
f 149 150 156
f 149 156 151
f 151 156 157
f 151 157 158
f 151 158 152
f 153 159 160
f 153 160 154
f 154 160 161
f 154 161 155
f 155 161 162
f 156 163 157
f 157 163 158
f 158 163 164
f 158 164 165
f 159 166 160
f 160 166 167
f 160 167 168
f 160 168 169
f 160 169 162
f 160 162 161
f 162 169 168
f 163 170 171
f 163 171 164
f 163 172 173
f 163 173 170
f 164 171 165
f 167 173 168
f 167 170 173
f 168 173 174
f 172 174 173

