# https://github.com/mikedh/trimesh
v -0.35755176 2.58804832 1.48604646
v -0.35755176 2.58775328 1.57811773
v -0.35755176 2.58804832 1.41572456
v -0.38683146 2.58362155 1.48604646
v -0.38683146 2.58342479 1.57811773
v -0.35755176 2.01550644 1.57811773
v -0.35755176 2.58549066 1.34543649
v -0.38683146 2.58362155 1.41572456
v -0.45716992 2.57024253 1.48604646
v -0.45716992 2.57014426 1.55633453
v -0.45716992 2.57004577 1.57811773
v -0.66969976 1.58314884 1.27328801
v -0.63453053 1.58314884 1.23259663
v -0.35755176 1.90808123 1.23259663
v -0.96771278 1.58314884 1.57811773
v -0.95374600 1.58314884 1.57287490
v -0.94247162 1.58314884 1.56394518
v -0.92951463 1.58314884 1.55186973
v -0.88391233 1.58314884 1.50651049
v -0.87146012 1.58314884 1.49358943
v -0.86052231 1.58314884 1.48191986
v -0.80566504 1.58314884 1.42313216
v -0.73717756 1.58314884 1.34841303
v -0.35755176 2.55706028 1.29317706
v -0.45716992 2.54938708 1.29358294
v -0.52734012 2.54368127 1.29652564
v -0.59767858 2.53709035 1.30271560
v -0.63907392 2.53286013 1.30772175
v -0.38683146 2.58096540 1.34543649
v -0.45716992 2.56896370 1.34543649
v -0.52734012 2.55656848 1.34543649
v -0.59767858 2.54328775 1.34543649
v -0.45716992 2.57024253 1.41572456
v -0.52734012 2.55686352 1.48604646
v -0.59767858 2.54328775 1.57811773
v -0.54921567 2.55253502 1.57811773
v -1.64047164 1.58314884 1.23259663
v -0.35755176 2.24934361 1.23259663
v -2.07613265 1.58314884 1.57811773
v -0.35755176 2.49596951 1.27683964
v -0.38683146 2.49596951 1.27677195
v -0.45716992 2.49596951 1.27707642
v -0.38683146 2.55469938 1.29310938
v -0.52734012 2.49596951 1.27985001
v -0.59767858 2.49596951 1.28587087
v -0.73835550 2.48121318 1.29375204
v -0.80869396 2.47117908 1.29916397
v -0.64243941 2.53384392 1.34543649
v -0.85345479 2.46399768 1.30609812
v -0.80869396 2.48170519 1.34543649
v -0.59767858 2.54338623 1.41572456
v -0.52734012 2.55686352 1.41572456
v -0.64260768 2.53394220 1.41572456
v -0.59767858 2.54338623 1.48604646
v -0.64260768 2.53394220 1.48604646
v -0.64243941 2.53384392 1.57811773
v -2.00377484 1.58314884 1.28174416
v -1.71383902 1.72402169 1.23259663
v -0.38111014 2.25632825 1.23259663
v -2.06721415 1.59554406 1.57811773
v -2.07630091 1.58314884 1.55805958
v -1.58191234 2.01875286 1.23259663
v -0.80869396 2.42563147 1.28242067
v -0.94920262 2.41097363 1.29415792
v -1.00641572 2.40074255 1.30021263
v -0.67777691 2.52371113 1.41572456
v -0.73835550 2.50482327 1.41572456
v -1.01752183 2.40595637 1.34543649
v -0.94920262 2.43310791 1.34543649
v -0.85850301 2.46557175 1.34543649
v -0.67777691 2.52371113 1.48604646
v -0.67760864 2.52361285 1.55633453
v -0.66667084 2.52676079 1.57811773
v -2.05678108 1.58314884 1.29845373
v -1.71097836 1.92441143 1.23259663
v -1.73251734 1.86332066 1.23259663
v -1.72864710 1.79298241 1.23259663
v -2.04517018 1.62574517 1.57811773
v -2.04533844 1.62584355 1.48604646
v -2.07646917 1.58314884 1.48604646
v -1.63963022 1.98874862 1.23259663
v -1.28558205 2.26223083 1.29936702
v -1.16021800 2.32932244 1.30146411
v -1.19673343 2.32086221 1.30934528
v -0.80869396 2.48200022 1.41572456
v -0.73835550 2.50482327 1.48604646
v -1.01752183 2.40615333 1.41572456
v -0.94920262 2.43468199 1.41572456
v -1.19757484 2.32125572 1.34543649
v -1.08987954 2.37211542 1.41572456
v -0.89400877 2.45425861 1.41572456
v -0.69645533 2.51771028 1.57811773
v -0.67760864 2.52351458 1.57811773
v -2.07545939 1.58314884 1.34543649
v -2.04298256 1.62289237 1.30569224
v -1.69028069 1.94526688 1.23259663
v -1.97769238 1.69716539 1.30227588
v -1.83987612 1.84079265 1.30061851
v -1.77054723 1.91004862 1.29693162
v -2.02598686 1.65004381 1.57811773
v -2.01757335 1.66106181 1.48604646
v -2.04533844 1.62584355 1.41572456
v -2.07646917 1.58314884 1.41572456
v -1.66133757 1.97064759 1.23259663
v -1.69650680 1.97635341 1.29676242
v -1.62145659 2.04265798 1.30471127
v -1.41633079 2.18599021 1.30339210
v -1.29567849 2.26862519 1.34543649
v -1.23257581 2.30374497 1.34543649
v -0.80869396 2.48200022 1.48604646
v -0.73835550 2.50462651 1.57811773
v -1.01752183 2.40615333 1.48604646
v -0.94920262 2.43468199 1.48604646
v -1.23274407 2.30394173 1.41572456
v -1.19774310 2.32135400 1.41572456
v -1.08987954 2.37211542 1.48604646
v -0.89400877 2.45425861 1.48604646
v -2.04517018 1.62574517 1.34543649
v -2.01740488 1.66096333 1.34543649
v -1.98223586 1.70208416 1.34543649
v -1.67547261 1.95864589 1.23259663
v -1.84593396 1.84728550 1.34543649
v -1.81227929 1.88240528 1.34543649
v -1.77710985 1.91595119 1.34543649
v -2.01740488 1.66086505 1.57811773
v -2.01740488 1.66096333 1.55633453
v -2.00663550 1.67365379 1.57811773
v -1.98240391 1.70218244 1.48604646
v -2.01757335 1.66106181 1.41572456
v -1.73638767 1.95107097 1.34543649
v -1.65881343 2.01540816 1.34543649
v -1.62364420 2.04452709 1.34543649
v -1.58191234 2.07895832 1.34543649
v -1.54590170 2.10856925 1.34543649
v -1.51073247 2.13149057 1.34543649
v -1.42154732 2.18933491 1.34543649
v -1.33101598 2.24688422 1.41572456
v -1.29584675 2.26882195 1.41572456
v -0.80869396 2.48180346 1.57811773
v -1.01752183 2.40605485 1.55633453
v -1.05269106 2.38952790 1.55633453
v -1.04175321 2.39464343 1.57811773
v -0.94920262 2.43448523 1.57811773
v -1.23274407 2.30394173 1.48604646
v -1.19774310 2.32135400 1.48604646
v -0.91100447 2.44796251 1.57811773
v -0.89367224 2.45406185 1.57811773
v -0.85850301 2.46557175 1.57811773
v -1.98240391 1.70218244 1.41572456
v -1.94942230 1.73740070 1.41572456
v -1.88127145 1.81000137 1.41572456
v -1.84610222 1.84738378 1.41572456
v -1.81244735 1.88250376 1.41572456
v -1.77727833 1.91604947 1.41572456
v -1.73655593 1.95126773 1.41572456
v -1.98223586 1.70208416 1.57811773
v -1.95951884 1.72638269 1.57811773
v -1.94942230 1.73740070 1.48604646
v -1.62381246 2.04452709 1.41572456
v -1.58191234 2.07915508 1.41572456
v -1.54590170 2.10866753 1.41572456
v -1.51090073 2.13188409 1.41572456
v -1.45671655 2.16710214 1.41572456
v -1.42154732 2.18943340 1.41572456
v -1.33101598 2.24688422 1.48604646
v -1.29584675 2.26882195 1.48604646
v -1.01735357 2.40605485 1.57811773
v -1.16021800 2.33886475 1.57811773
v -1.23257581 2.30394173 1.55633453
v -1.19757484 2.32125572 1.57811773
v -1.88127145 1.81000137 1.48604646
v -1.84610222 1.84738378 1.48604646
v -1.81244735 1.88250376 1.48604646
v -1.77727833 1.91604947 1.48604646
v -1.73655593 1.95126773 1.48604646
v -1.93848444 1.74881212 1.57811773
v -1.62381246 2.04452709 1.48604646
v -1.58191234 2.07915508 1.48604646
v -1.54590170 2.10866753 1.55633453
v -1.51090073 2.13188409 1.48604646
v -1.45671655 2.16710214 1.48604646
v -1.42154732 2.18943340 1.48604646
v -1.33101598 2.24678594 1.55633453
v -1.29584675 2.26872347 1.55633453
v -1.25209554 2.29302211 1.57811773
v -1.23257581 2.30384325 1.57811773
v -1.87033360 1.82141279 1.57811773
v -1.84593396 1.84728550 1.57811773
v -1.82271215 1.87158414 1.57811773
v -1.81227929 1.88250376 1.55633453
v -1.77710985 1.91604947 1.55633453
v -1.73638767 1.95116925 1.57811773
v -1.65881343 2.01540816 1.57811773
v -1.59486934 2.06833394 1.57811773
v -1.58191234 2.07905680 1.55633453
v -1.53496384 2.11584893 1.57811773
v -1.51073247 2.13188409 1.57811773
v -1.54590170 2.10856925 1.57811773
v -1.45671655 2.16700387 1.55633453
v -1.42154732 2.18933491 1.55633453
v -1.44577870 2.17389003 1.57811773
v -1.34329993 2.23891599 1.57811773
v -1.33084772 2.24678594 1.57811773
v -1.32007813 2.25357383 1.57811773
v -1.29567849 2.26872347 1.57811773
v -1.81227929 1.88240528 1.57811773
v -1.77710985 1.91595119 1.57811773
v -1.45654829 2.16700387 1.57811773
f 1 2 6
f 1 6 14
f 1 14 38
f 1 38 40
f 1 40 24
f 1 24 7
f 1 7 3
f 1 3 8
f 1 8 4
f 1 4 5
f 1 5 2
f 2 5 11
f 2 11 36
f 2 36 35
f 2 35 56
f 2 56 73
f 2 73 93
f 2 93 92
f 2 92 111
f 2 111 139
f 2 139 148
f 2 148 147
f 2 147 146
f 2 146 143
f 2 143 167
f 2 167 142
f 2 142 168
f 2 168 170
f 2 170 186
f 2 186 185
f 2 185 205
f 2 205 204
f 2 204 203
f 2 203 202
f 2 202 201
f 2 201 208
f 2 208 197
f 2 197 196
f 2 196 198
f 2 198 194
f 2 194 193
f 2 193 192
f 2 192 207
f 2 207 206
f 2 206 189
f 2 189 188
f 2 188 187
f 2 187 176
f 2 176 157
f 2 157 156
f 2 156 127
f 2 127 125
f 2 125 100
f 2 100 78
f 2 78 60
f 2 60 39
f 2 39 15
f 2 15 6
f 3 7 8
f 4 8 33
f 4 33 9
f 4 9 10
f 4 10 5
f 5 10 11
f 6 12 13
f 6 13 14
f 6 15 16
f 6 16 17
f 6 17 18
f 6 18 19
f 6 19 20
f 6 20 21
f 6 21 22
f 6 22 23
f 6 23 12
f 7 24 25
f 7 25 26
f 7 26 27
f 7 27 28
f 7 28 29
f 7 29 8
f 8 29 30
f 8 30 31
f 8 31 32
f 8 32 33
f 9 33 52
f 9 52 34
f 9 34 10
f 10 34 35
f 10 35 36
f 10 36 11
f 12 23 22
f 12 22 21
f 12 21 20
f 12 20 19
f 12 19 18
f 12 18 17
f 12 17 16
f 12 16 15
f 12 15 39
f 12 39 61
f 12 61 80
f 12 80 103
f 12 103 94
f 12 94 74
f 12 74 57
f 12 57 37
f 12 37 13
f 13 37 58
f 13 58 77
f 13 77 76
f 13 76 75
f 13 75 96
f 13 96 121
f 13 121 104
f 13 104 81
f 13 81 62
f 13 62 59
f 13 59 38
f 13 38 14
f 24 40 41
f 24 41 42
f 24 42 43
f 24 43 25
f 25 43 42
f 25 42 44
f 25 44 26
f 26 44 45
f 26 45 46
f 26 46 27
f 27 46 47
f 27 47 28
f 28 48 32
f 28 32 31
f 28 31 30
f 28 30 29
f 28 47 49
f 28 49 50
f 28 50 48
f 32 51 52
f 32 52 33
f 32 48 53
f 32 53 51
f 34 52 51
f 34 51 54
f 34 54 35
f 35 54 55
f 35 55 56
f 37 57 58
f 38 59 40
f 39 60 61
f 40 59 41
f 41 59 42
f 42 59 62
f 42 62 44
f 44 63 45
f 44 62 63
f 45 63 46
f 46 63 64
f 46 64 47
f 47 64 65
f 47 65 49
f 48 66 53
f 48 50 67
f 48 67 66
f 49 65 68
f 49 68 69
f 49 69 70
f 49 70 50
f 50 70 67
f 51 53 55
f 51 55 54
f 53 66 71
f 53 71 55
f 55 71 56
f 56 71 72
f 56 72 73
f 57 74 75
f 57 75 76
f 57 76 77
f 57 77 58
f 60 78 79
f 60 79 61
f 61 79 80
f 62 81 82
f 62 82 83
f 62 83 65
f 62 65 64
f 62 64 63
f 65 83 84
f 65 84 68
f 66 67 86
f 66 86 71
f 67 70 85
f 67 85 110
f 67 110 86
f 68 87 88
f 68 88 69
f 68 84 89
f 68 89 90
f 68 90 87
f 69 88 70
f 70 88 91
f 70 91 85
f 71 86 92
f 71 92 72
f 72 92 93
f 72 93 73
f 74 94 95
f 74 95 75
f 75 95 97
f 75 97 98
f 75 98 99
f 75 99 96
f 78 100 101
f 78 101 79
f 79 101 129
f 79 129 102
f 79 102 103
f 79 103 80
f 81 104 105
f 81 105 106
f 81 106 107
f 81 107 82
f 82 107 84
f 82 84 83
f 84 107 108
f 84 108 109
f 84 109 89
f 85 91 117
f 85 117 110
f 86 110 139
f 86 139 111
f 86 111 92
f 87 112 113
f 87 113 88
f 87 90 116
f 87 116 112
f 88 113 117
f 88 117 91
f 89 109 114
f 89 114 115
f 89 115 90
f 90 115 145
f 90 145 116
f 94 103 118
f 94 118 95
f 95 118 119
f 95 119 120
f 95 120 97
f 96 99 121
f 97 120 122
f 97 122 98
f 98 122 123
f 98 123 99
f 99 123 124
f 99 124 105
f 99 105 121
f 100 125 126
f 100 126 101
f 101 126 127
f 101 127 128
f 101 128 149
f 101 149 129
f 102 129 119
f 102 119 118
f 102 118 103
f 104 121 105
f 105 124 106
f 106 124 130
f 106 130 131
f 106 131 132
f 106 132 133
f 106 133 134
f 106 134 107
f 107 135 136
f 107 136 108
f 107 134 135
f 108 136 137
f 108 137 138
f 108 138 114
f 108 114 109
f 110 117 139
f 112 140 113
f 112 116 141
f 112 141 142
f 112 142 140
f 113 143 117
f 113 140 143
f 114 138 166
f 114 166 144
f 114 144 145
f 114 145 115
f 116 145 141
f 117 143 146
f 117 146 147
f 117 147 148
f 117 148 139
f 119 129 149
f 119 149 120
f 120 149 150
f 120 150 151
f 120 151 122
f 122 151 152
f 122 152 153
f 122 153 123
f 123 153 154
f 123 154 124
f 124 154 155
f 124 155 130
f 125 127 126
f 127 156 128
f 128 156 157
f 128 157 158
f 128 158 150
f 128 150 149
f 130 155 131
f 131 155 132
f 132 159 160
f 132 160 133
f 132 155 159
f 133 160 134
f 134 160 161
f 134 161 162
f 134 162 135
f 135 163 136
f 135 162 163
f 136 163 164
f 136 164 137
f 137 165 166
f 137 166 138
f 137 164 182
f 137 182 165
f 140 167 143
f 140 142 167
f 141 145 142
f 142 145 168
f 144 169 145
f 144 166 169
f 145 170 168
f 145 169 170
f 150 158 171
f 150 171 151
f 151 171 172
f 151 172 152
f 152 172 173
f 152 173 153
f 153 173 174
f 153 174 154
f 154 174 175
f 154 175 155
f 155 175 177
f 155 177 159
f 157 176 158
f 158 176 187
f 158 187 171
f 159 177 178
f 159 178 160
f 160 178 179
f 160 179 161
f 161 179 180
f 161 180 162
f 162 180 181
f 162 181 163
f 163 181 182
f 163 182 164
f 165 183 184
f 165 184 166
f 165 182 200
f 165 200 183
f 166 184 169
f 169 184 185
f 169 185 186
f 169 186 170
f 171 187 172
f 172 187 188
f 172 188 189
f 172 189 173
f 173 190 191
f 173 191 174
f 173 189 190
f 174 191 175
f 175 192 193
f 175 193 194
f 175 194 177
f 175 191 192
f 177 194 178
f 178 194 195
f 178 195 179
f 179 196 197
f 179 197 180
f 179 195 194
f 179 194 198
f 179 198 196
f 180 197 181
f 181 197 199
f 181 199 200
f 181 200 182
f 183 200 201
f 183 201 202
f 183 202 203
f 183 203 204
f 183 204 184
f 184 205 185
f 184 204 205
f 189 206 190
f 190 206 207
f 190 207 191
f 191 207 192
f 197 208 199
f 199 208 201
f 199 201 200

