# https://github.com/mikedh/trimesh
v -1.24670676 0.45741488 2.43889542
v -1.24720118 0.45741488 2.43844365
v -1.35544967 0.45741488 2.43889542
v -1.03975848 0.38558511 2.43889542
v -1.03975848 0.33759726 2.21913713
v -1.25674977 0.45741488 2.42988220
v -1.35544967 0.45741488 2.39028012
v -1.35544967 0.14677100 2.43889542
v -1.03975848 0.26759215 2.43889542
v -1.03975848 0.18460174 2.21913713
v -1.09056076 0.34024298 2.21913713
v -1.28932016 0.45741488 2.41402850
v -1.35544967 0.35061298 2.21913713
v -1.16231436 0.34337526 2.21913713
v -1.35544967 0.23541779 2.21913713
f 1 2 6
f 1 6 12
f 1 12 7
f 1 7 3
f 1 3 8
f 1 8 9
f 1 9 4
f 1 4 5
f 1 5 2
f 2 5 6
f 3 7 13
f 3 13 15
f 3 15 8
f 4 9 10
f 4 10 5
f 5 10 15
f 5 15 13
f 5 13 14
f 5 14 11
f 5 11 7
f 5 7 12
f 5 12 6
f 7 11 14
f 7 14 13
f 8 10 9
f 8 15 10

