# https://github.com/mikedh/trimesh
v -1.49588059 -1.23891109 1.23259663
v -1.62922638 -1.23891109 1.57811773
v -1.14622849 -1.47092189 1.23259663
v -2.26033615 -1.23891109 1.23259663
v -1.29445299 -1.58589143 1.57811773
v -2.29753333 -1.23891109 1.57811773
v -1.14622849 -1.50379947 1.26686127
v -1.14622849 -1.58589143 1.23259663
v -2.24556998 -1.27175472 1.23259663
v -2.27589125 -1.23891109 1.26625245
v -1.14622849 -1.58589143 1.34990130
v -1.14622849 -1.58347992 1.34861597
v -2.07412545 -1.58589143 1.57811773
v -2.29764585 -1.23891109 1.48604646
v -2.26642291 -1.29559771 1.57811773
v -1.63260796 -1.58589143 1.23259663
v -2.23035307 -1.30174524 1.23259663
v -2.25830716 -1.28116282 1.27514832
v -2.28152729 -1.23891109 1.28005296
v -2.13149916 -1.50702610 1.57811773
v -2.07423819 -1.58589143 1.55914207
v -2.24714824 -1.33092064 1.48604646
v -2.29764585 -1.23891109 1.40787713
v -2.24703551 -1.33075081 1.57811773
v -1.99984405 -1.58589143 1.28137212
v -2.11763485 -1.40547256 1.23259663
v -2.23982141 -1.31631591 1.27514832
v -2.21017654 -1.33764556 1.23259663
v -2.29516614 -1.23891109 1.33515366
v -2.16655461 -1.45866078 1.57811773
v -2.16666714 -1.45869473 1.55633453
v -2.07435092 -1.58589143 1.48604646
v -2.10602479 -1.54231508 1.48604646
v -2.22415358 -1.37106658 1.48604646
v -2.22404085 -1.37106658 1.55633453
v -2.23114221 -1.35856765 1.57811773
v -2.24714824 -1.33092064 1.41572456
v -2.29753333 -1.23891109 1.34543649
v -2.00367656 -1.58589143 1.28235309
v -2.17252864 -1.38101813 1.23259663
v -2.15246483 -1.39205656 1.23259663
v -2.18752007 -1.41763173 1.29645806
v -2.24703551 -1.33078475 1.34543649
v -2.19631222 -1.36050370 1.23259663
v -2.19169079 -1.42350758 1.57811773
v -2.16666714 -1.45879667 1.48604646
v -2.19169079 -1.42354153 1.55633453
v -2.07435092 -1.58589143 1.40943308
v -2.10602479 -1.54231508 1.41572456
v -2.22415358 -1.37106658 1.41572456
v -2.19169079 -1.42360953 1.48604646
v -2.22392811 -1.37106658 1.57811773
v -2.22404085 -1.37106658 1.34543649
v -2.05394891 -1.58589143 1.29811543
v -2.05586517 -1.58589143 1.29896103
v -2.19169079 -1.42350758 1.34543649
v -2.07311106 -1.58589143 1.34164809
v -2.13127370 -1.50695810 1.34543649
v -2.16644188 -1.45866078 1.34543649
v -2.16666714 -1.45879667 1.41572456
v -2.07356200 -1.58589143 1.34543649
v -2.19169079 -1.42360953 1.41572456
f 1 2 3
f 1 3 8
f 1 8 16
f 1 16 26
f 1 26 41
f 1 41 40
f 1 40 44
f 1 44 28
f 1 28 17
f 1 17 9
f 1 9 4
f 1 4 10
f 1 10 19
f 1 19 29
f 1 29 38
f 1 38 23
f 1 23 14
f 1 14 6
f 1 6 2
f 2 5 3
f 2 6 15
f 2 15 24
f 2 24 36
f 2 36 52
f 2 52 45
f 2 45 30
f 2 30 20
f 2 20 13
f 2 13 5
f 3 5 7
f 3 7 12
f 3 12 11
f 3 11 8
f 4 9 10
f 5 11 12
f 5 12 7
f 5 13 21
f 5 21 32
f 5 32 48
f 5 48 61
f 5 61 57
f 5 57 55
f 5 55 54
f 5 54 39
f 5 39 25
f 5 25 16
f 5 16 8
f 5 8 11
f 6 14 15
f 9 17 18
f 9 18 10
f 10 18 19
f 13 20 21
f 14 22 15
f 14 23 37
f 14 37 22
f 15 22 24
f 16 25 26
f 17 27 18
f 17 28 27
f 18 29 19
f 18 27 29
f 20 30 31
f 20 31 21
f 21 31 33
f 21 33 32
f 22 34 35
f 22 35 36
f 22 36 24
f 22 37 50
f 22 50 34
f 23 38 37
f 25 39 40
f 25 40 41
f 25 41 26
f 27 28 42
f 27 42 43
f 27 43 38
f 27 38 29
f 28 44 42
f 30 45 31
f 31 46 33
f 31 45 47
f 31 47 46
f 32 33 49
f 32 49 48
f 33 46 60
f 33 60 49
f 34 50 62
f 34 62 51
f 34 51 47
f 34 47 45
f 34 45 35
f 35 45 52
f 35 52 36
f 37 38 43
f 37 43 53
f 37 53 50
f 39 54 40
f 40 54 55
f 40 55 44
f 42 56 53
f 42 53 43
f 42 44 55
f 42 55 57
f 42 57 58
f 42 58 59
f 42 59 56
f 46 47 51
f 46 51 62
f 46 62 60
f 48 49 59
f 48 59 58
f 48 58 61
f 49 60 59
f 50 53 56
f 50 56 62
f 56 59 60
f 56 60 62
f 57 61 58

