# https://github.com/mikedh/trimesh
v 1.40041989 1.01527618 0.62098491
v 1.49985611 1.01527618 0.84918284
v 1.64729012 1.11643148 1.10086755
v 1.64729012 1.11643148 0.96558350
v 1.97328970 1.01527618 0.62098491
v 1.72994385 0.00655776 0.62098491
v 1.64729012 0.58874551 1.10086755
v 1.55070701 1.01527618 0.96558350
v 1.96238118 1.11643148 1.10086755
v 1.94987826 1.11643148 0.96558350
v 1.97396107 1.01527618 0.62751425
v 1.97949925 1.00393988 0.62098491
v 2.21839790 0.00655776 0.62098491
v 1.85212025 0.00296061 0.96558350
v 1.85749059 0.00296061 0.98080291
v 1.89986637 0.00296061 1.10086755
v 1.96229715 1.11643148 1.09969318
v 1.97245070 1.09811892 1.10086755
v 1.95130482 1.11643148 0.98033322
v 2.01742772 1.01625725 1.10086755
v 2.03093749 0.99129541 1.10086755
v 2.03697920 0.97995911 1.10086755
v 2.00727439 0.94900209 0.62098491
v 2.21915308 0.00655776 0.62981595
v 2.24650851 0.00296061 0.96558350
v 2.21839790 0.05669935 0.62098491
v 2.25758508 0.00296061 1.10086755
v 2.05124436 0.94791205 1.10086755
v 2.03974829 0.91575603 0.80883249
v 2.03530098 0.97636202 1.06413415
v 2.03244807 0.89755243 0.64240489
v 2.02338541 0.91314001 0.62098491
v 2.25255022 0.00296061 1.03923816
v 2.24793507 0.00296061 0.98282279
v 2.25758508 0.10564195 1.10086755
v 2.21831408 0.10564195 0.62098491
v 2.06769127 0.90856184 1.10086755
v 2.04662921 0.93134350 0.96558350
v 2.08002635 0.87869485 1.10086755
v 2.07683776 0.87869485 1.06413415
v 2.10830481 0.80751555 1.10086755
v 2.04545452 0.86005525 0.62098491
v 2.03144102 0.89515444 0.62098491
v 2.25045250 0.14553723 1.02176397
v 2.25607450 0.17180708 1.10086755
v 2.21369872 0.17594919 0.62098491
v 2.09051537 0.85231599 1.10086755
v 2.11552121 0.78909398 1.10086755
v 2.12307329 0.73993335 0.96558350
v 2.11275212 0.76620325 0.96558350
v 2.11031871 0.70570627 0.66490527
v 2.08682325 0.75530290 0.62098491
v 2.24189336 0.31656375 1.10086755
v 2.21109747 0.19742290 0.62098491
v 2.23434128 0.38687101 1.10086755
v 2.13540858 0.73808032 1.10086755
v 2.13230380 0.73808032 1.06413415
v 2.10696228 0.70396220 0.62098491
v 2.09513052 0.73426520 0.62098491
v 2.20295804 0.54852319 1.10086755
v 2.20497194 0.24625648 0.62098491
v 2.19599330 0.31656375 0.62098491
v 2.18684682 0.38708899 0.62098491
v 2.22435558 0.45717825 1.10086755
v 2.10947950 0.69633196 0.62098491
v 2.20866407 0.52726751 1.10086755
v 2.13196812 0.61588737 0.62098491
v 2.11753511 0.66842706 0.62098491
v 2.18407773 0.40638262 0.62098491
v 2.18080511 0.42698429 0.62098491
v 2.17207834 0.46099337 0.62098491
v 2.13683514 0.59746579 0.62098491
f 1 2 3
f 1 3 4
f 1 4 10
f 1 10 5
f 1 5 12
f 1 12 23
f 1 23 32
f 1 32 43
f 1 43 42
f 1 42 52
f 1 52 59
f 1 59 58
f 1 58 65
f 1 65 68
f 1 68 67
f 1 67 72
f 1 72 71
f 1 71 70
f 1 70 69
f 1 69 63
f 1 63 62
f 1 62 61
f 1 61 54
f 1 54 46
f 1 46 36
f 1 36 26
f 1 26 13
f 1 13 6
f 1 6 7
f 1 7 2
f 2 8 3
f 2 7 8
f 3 9 17
f 3 17 19
f 3 19 10
f 3 10 4
f 3 8 7
f 3 7 16
f 3 16 27
f 3 27 35
f 3 35 45
f 3 45 53
f 3 53 55
f 3 55 64
f 3 64 66
f 3 66 60
f 3 60 56
f 3 56 48
f 3 48 41
f 3 41 47
f 3 47 39
f 3 39 37
f 3 37 28
f 3 28 22
f 3 22 21
f 3 21 20
f 3 20 18
f 3 18 9
f 5 11 12
f 5 10 11
f 6 13 25
f 6 25 14
f 6 14 7
f 7 14 15
f 7 15 16
f 9 18 17
f 10 19 11
f 11 19 20
f 11 20 12
f 12 20 21
f 12 21 22
f 12 22 23
f 13 24 25
f 13 26 24
f 14 25 34
f 14 34 33
f 14 33 27
f 14 27 16
f 14 16 15
f 17 18 20
f 17 20 19
f 22 28 29
f 22 29 30
f 22 30 23
f 23 30 29
f 23 29 31
f 23 31 32
f 24 27 33
f 24 33 34
f 24 34 25
f 24 26 35
f 24 35 27
f 26 36 35
f 28 37 38
f 28 38 29
f 29 38 37
f 29 37 39
f 29 39 40
f 29 40 31
f 31 40 41
f 31 41 42
f 31 42 43
f 31 43 32
f 35 36 44
f 35 44 45
f 36 45 44
f 36 46 45
f 39 47 40
f 40 47 41
f 41 48 49
f 41 49 50
f 41 50 51
f 41 51 42
f 42 51 52
f 45 46 53
f 46 54 55
f 46 55 53
f 48 56 57
f 48 57 49
f 49 57 51
f 49 51 50
f 51 58 59
f 51 59 52
f 51 57 56
f 51 56 60
f 51 60 58
f 54 61 55
f 55 61 62
f 55 62 63
f 55 63 64
f 58 60 65
f 60 66 67
f 60 67 68
f 60 68 65
f 63 69 64
f 64 69 70
f 64 70 66
f 66 70 71
f 66 71 72
f 66 72 67

