# https://github.com/mikedh/trimesh
v 2.29775858 -1.23891109 1.48604646
v 2.29775858 -1.23891109 1.41572456
v 2.29752830 -1.23891109 1.57811773
v 2.25298418 -1.31988220 1.57811773
v 2.24711409 -1.33092064 1.48604646
v 2.29752830 -1.23891109 1.34543649
v 2.24711409 -1.33092064 1.41572456
v 2.24711409 -1.33078475 1.34543649
v 1.63120760 -1.23891109 1.57811773
v 2.24699905 -1.33075081 1.57811773
v 2.22420890 -1.37106658 1.48604646
v 2.26345853 -1.28904252 1.27514832
v 2.28993158 -1.23891109 1.27998527
v 2.22420890 -1.37106658 1.41572456
v 2.22397882 -1.37106658 1.34543649
v 1.48525924 -1.23891109 1.23259663
v 1.12199994 -1.58589143 1.23259663
v 1.29522724 -1.58589143 1.57811773
v 2.23986269 -1.34324975 1.57811773
v 2.19175030 -1.42360953 1.48604646
v 2.22397882 -1.37106658 1.57811773
v 2.19163526 -1.42350758 1.57811773
v 2.24262508 -1.32419572 1.27514832
v 2.25873924 -1.28021181 1.23259663
v 2.27473836 -1.23891109 1.23259663
v 2.19175030 -1.42360953 1.41572456
v 2.19163526 -1.42350758 1.34543649
v 1.63742302 -1.58589143 1.23259663
v 2.07411686 -1.58589143 1.57811773
v 2.16665834 -1.45869473 1.55633453
v 2.16665834 -1.45879667 1.48604646
v 2.17437009 -1.44775824 1.57811773
v 2.18760662 -1.41763173 1.29760813
v 2.23479829 -1.31536491 1.23259663
v 2.16665834 -1.45879667 1.41572456
v 2.16642805 -1.45866078 1.34543649
v 2.14444380 -1.38441459 1.23259663
v 2.00367510 -1.58589143 1.28235309
v 2.07423211 -1.58589143 1.56262601
v 2.07699449 -1.58195152 1.57811773
v 2.16654309 -1.45866078 1.57811773
v 2.15572362 -1.47363912 1.57811773
v 2.07722478 -1.58195152 1.48604646
v 2.13155239 -1.50716199 1.48604646
v 2.22052558 -1.33520021 1.23259663
v 2.13120706 -1.50695810 1.34543649
v 2.07354146 -1.58589143 1.34543649
v 2.05581593 -1.58589143 1.29896103
v 2.13155239 -1.50716199 1.41572456
v 2.07722478 -1.58195152 1.41572456
v 2.19934701 -1.36053765 1.23259663
v 2.07434715 -1.58589143 1.49230411
v 2.11382686 -1.53131059 1.57811773
v 2.07434715 -1.58589143 1.41572456
f 1 2 6
f 1 6 13
f 1 13 25
f 1 25 16
f 1 16 9
f 1 9 3
f 1 3 4
f 1 4 5
f 1 5 7
f 1 7 2
f 2 7 8
f 2 8 6
f 3 9 18
f 3 18 29
f 3 29 40
f 3 40 53
f 3 53 42
f 3 42 41
f 3 41 32
f 3 32 22
f 3 22 21
f 3 21 19
f 3 19 10
f 3 10 4
f 4 10 5
f 5 10 11
f 5 11 14
f 5 14 7
f 6 12 13
f 6 8 12
f 7 14 8
f 8 14 15
f 8 15 12
f 9 16 17
f 9 17 18
f 10 19 11
f 11 20 26
f 11 26 14
f 11 19 21
f 11 21 22
f 11 22 20
f 12 15 23
f 12 23 24
f 12 24 13
f 13 24 25
f 14 26 27
f 14 27 15
f 15 27 23
f 16 25 24
f 16 24 34
f 16 34 45
f 16 45 51
f 16 51 37
f 16 37 28
f 16 28 17
f 17 28 38
f 17 38 48
f 17 48 47
f 17 47 54
f 17 54 52
f 17 52 39
f 17 39 29
f 17 29 18
f 20 22 30
f 20 30 31
f 20 31 35
f 20 35 26
f 22 32 30
f 23 27 33
f 23 33 24
f 24 33 34
f 26 35 27
f 27 35 36
f 27 36 33
f 28 37 38
f 29 39 40
f 30 32 41
f 30 41 42
f 30 42 39
f 30 39 43
f 30 43 44
f 30 44 31
f 31 44 49
f 31 49 35
f 33 45 34
f 33 36 46
f 33 46 47
f 33 47 48
f 33 48 45
f 35 49 36
f 36 49 50
f 36 50 46
f 37 51 38
f 38 51 48
f 39 52 43
f 39 42 53
f 39 53 40
f 43 52 54
f 43 54 50
f 43 50 49
f 43 49 44
f 45 48 51
f 46 50 54
f 46 54 47

