# https://github.com/mikedh/trimesh
v -1.46016917 0.03528657 0.64237097
v -1.45871642 0.03528657 0.71266831
v -1.45510403 0.10552016 0.64237097
v -1.45510403 0.10552016 0.62098491
v -1.45832374 0.03528657 0.62098491
v -1.45667454 -0.01463731 0.64237097
v -1.45871642 -0.01463731 0.71266831
v -1.44972468 -0.01463731 0.73449284
v -1.42702956 0.03658720 0.78927353
v -1.41415061 0.31642102 0.75813894
v -1.43405800 0.24608738 0.71266831
v -1.44120420 0.24608738 0.64237097
v -1.44823264 0.17585380 0.64237097
v -1.44823264 0.17585380 0.62098491
v -1.44909647 -0.01463731 0.62098491
v -1.42702956 -0.01463731 0.78927353
v -1.31532059 0.22157567 0.96559031
v -1.40833940 0.35914147 0.75122389
v -1.42483063 0.31642102 0.71266831
v -1.31084437 0.24908883 0.96559031
v -1.43174131 0.29511084 0.62098491
v -1.44120420 0.24608738 0.62098491
v -1.42754000 0.31642102 0.64237097
v -1.35847283 -0.01463731 0.62098491
v -1.40814306 -0.01463731 0.81895759
v -1.40751475 -0.01393702 0.81990210
v -1.29824024 -0.01463731 0.96559031
v -1.41061670 0.36654502 0.71266831
v -1.33950786 0.56994231 0.75328153
v -1.36051460 0.52732189 0.71266831
v -1.29274323 0.30281453 0.96559031
v -1.42754000 0.31642102 0.62098491
v -1.41179464 0.36854598 0.64237097
v -1.41658496 0.35273841 0.62098491
v -1.35811944 -0.01373691 0.62098491
v -1.05903786 -0.01463731 0.79632350
v -1.40680797 -0.01463731 0.82074540
v -1.05903786 -0.01463731 0.96559031
v -1.20003853 0.50190975 0.96478074
v -1.19909611 0.50251003 0.96559031
v -1.17922802 0.54252920 0.96559031
v -1.27397450 0.57824628 0.82813268
v -1.24998357 0.66798922 0.79939307
v -1.26800623 0.70770817 0.75129136
v -1.34264899 0.57624532 0.71266831
v -1.34398398 0.57864645 0.64237097
v -1.34394479 0.57864645 0.62101864
v -1.41179464 0.36714530 0.62098491
v -1.27715502 0.47669772 0.62098491
v -1.05903786 0.85727976 0.62101864
v -1.05903786 0.75062876 0.96559031
v -1.10619517 0.67939467 0.96559031
v -1.20211959 0.71581209 0.82620998
v -1.18927993 0.76263444 0.81119926
v -1.20812714 0.79384941 0.76441308
v -1.19344195 0.84117205 0.71266831
v -1.21617647 0.80595520 0.71266831
v -1.25127938 0.74742718 0.71266831
v -1.27044069 0.71231044 0.71266831
v -1.32556874 0.61366324 0.64237097
v -1.33844768 0.58925156 0.62101864
v -1.36459814 0.47669772 0.62098491
v -1.05903786 1.00715142 0.62101864
v -1.05903786 0.80855645 0.91671277
v -1.12139070 0.76803705 0.88459996
v -1.07537214 0.72881833 0.96559031
v -1.16780193 0.81846121 0.79099386
v -1.15138918 0.85757988 0.77540969
v -1.14243673 0.87879003 0.76687548
v -1.12704486 0.91650807 0.75038059
v -1.18009185 0.85757988 0.71266831
v -1.19473776 0.84307296 0.64237097
v -1.21782556 0.80785611 0.64237097
v -1.25300705 0.74972831 0.64237097
v -1.27173639 0.71461152 0.64237097
v -1.26604293 0.72531663 0.62101864
v -1.32556874 0.61366324 0.62101864
v -1.25300705 0.74972831 0.62101864
v -1.22850568 0.79014765 0.62101864
v -1.21782556 0.80725582 0.62101864
v -1.06649817 0.99894745 0.62101864
v -1.05903786 1.00725147 0.62580858
v -1.05903786 0.91790875 0.82162243
v -1.11852438 0.85757988 0.81119926
v -1.12449265 0.84297290 0.81750714
v -1.10882586 0.81515957 0.85795174
v -1.10980756 0.87879003 0.80195670
v -1.05903786 0.95412611 0.79001562
v -1.06056919 0.99144398 0.75486695
v -1.06516318 0.99704659 0.71270202
v -1.12947931 0.91940949 0.71270202
v -1.16273679 0.87879003 0.71270202
v -1.18178023 0.85757988 0.67087443
v -1.06677309 0.99894745 0.64237097
v -1.05903786 1.00725147 0.64237097
v -1.05903786 0.99224432 0.75564278
v -1.05903786 0.99364500 0.75264062
v -1.05903786 1.00354971 0.71270202
v -1.05903786 1.00435006 0.69880447
f 1 2 3
f 1 3 4
f 1 4 5
f 1 5 6
f 1 6 7
f 1 7 2
f 2 7 8
f 2 8 9
f 2 9 10
f 2 10 11
f 2 11 12
f 2 12 13
f 2 13 3
f 3 13 14
f 3 14 4
f 4 14 22
f 4 22 21
f 4 21 32
f 4 32 34
f 4 34 48
f 4 48 62
f 4 62 49
f 4 49 35
f 4 35 24
f 4 24 15
f 4 15 5
f 5 15 6
f 6 15 24
f 6 24 36
f 6 36 38
f 6 38 27
f 6 27 37
f 6 37 25
f 6 25 16
f 6 16 8
f 6 8 7
f 8 16 9
f 9 16 17
f 9 17 10
f 10 18 19
f 10 19 11
f 10 17 20
f 10 20 18
f 11 19 12
f 12 21 22
f 12 22 14
f 12 14 13
f 12 19 23
f 12 23 21
f 16 25 17
f 17 25 26
f 17 26 27
f 17 27 38
f 17 38 51
f 17 51 66
f 17 66 52
f 17 52 41
f 17 41 40
f 17 40 31
f 17 31 20
f 18 28 19
f 18 20 29
f 18 29 30
f 18 30 28
f 19 28 23
f 20 31 29
f 21 23 32
f 23 28 33
f 23 33 34
f 23 34 32
f 24 35 36
f 25 37 26
f 26 37 27
f 28 30 33
f 29 39 40
f 29 40 41
f 29 41 42
f 29 42 43
f 29 43 44
f 29 44 45
f 29 45 30
f 29 31 39
f 30 45 46
f 30 46 33
f 31 40 39
f 33 46 47
f 33 47 34
f 34 47 48
f 35 49 50
f 35 50 36
f 36 50 63
f 36 63 82
f 36 82 95
f 36 95 99
f 36 99 98
f 36 98 97
f 36 97 96
f 36 96 88
f 36 88 83
f 36 83 64
f 36 64 51
f 36 51 38
f 41 52 43
f 41 43 42
f 43 52 53
f 43 53 54
f 43 54 44
f 44 54 55
f 44 55 56
f 44 56 57
f 44 57 58
f 44 58 59
f 44 59 45
f 45 59 60
f 45 60 46
f 46 60 61
f 46 61 47
f 47 61 62
f 47 62 48
f 49 62 63
f 49 63 50
f 51 64 65
f 51 65 66
f 52 66 54
f 52 54 53
f 54 66 65
f 54 65 67
f 54 67 55
f 55 67 68
f 55 68 69
f 55 69 70
f 55 70 56
f 56 71 72
f 56 72 73
f 56 73 57
f 56 70 71
f 57 73 74
f 57 74 58
f 58 74 59
f 59 75 60
f 59 74 75
f 60 75 76
f 60 76 77
f 60 77 61
f 61 77 62
f 62 77 76
f 62 76 78
f 62 78 79
f 62 79 80
f 62 80 81
f 62 81 63
f 63 81 82
f 64 83 84
f 64 84 85
f 64 85 86
f 64 86 65
f 65 86 85
f 65 85 67
f 67 85 68
f 68 85 69
f 69 85 84
f 69 84 70
f 70 87 88
f 70 88 89
f 70 89 90
f 70 90 91
f 70 91 92
f 70 92 71
f 70 84 87
f 71 93 72
f 71 92 93
f 72 80 73
f 72 93 94
f 72 94 81
f 72 81 80
f 73 80 79
f 73 79 78
f 73 78 74
f 74 78 76
f 74 76 75
f 81 94 82
f 82 94 95
f 83 88 87
f 83 87 84
f 88 96 89
f 89 96 97
f 89 97 90
f 90 97 98
f 90 98 99
f 90 99 94
f 90 94 91
f 91 94 93
f 91 93 92
f 94 99 95

