# https://github.com/mikedh/trimesh
v -0.59541071 -1.79988743 2.18849882
v -0.59541071 -2.00167377 1.88855949
v -0.59541071 -2.13912647 2.18849882
v -0.04754146 -1.89177870 2.18849882
v 0.32758275 -1.87267061 2.18623765
v 0.32758275 -2.06303065 1.88853015
v -0.59541071 -2.22155988 1.88855949
v -0.04745112 -2.08890797 1.88853015
v -0.59541071 -2.17316565 2.12715429
v -0.55457349 -2.17796666 2.14985371
v -0.55683224 -2.15045680 2.18849882
v -0.04754146 -2.22079170 2.18849882
v 0.32758275 -2.19798688 2.18623765
v 0.32758275 -2.26851351 1.88853015
v -0.52719816 -2.21013337 2.04851338
v -0.59541071 -2.19222575 2.05030475
v -0.04745112 -2.28973398 1.88853015
v -0.33575107 -2.26798546 1.88855949
v -0.36827628 -2.25310236 1.96455745
v -0.34984532 -2.24959757 2.01145419
v -0.38661689 -2.23706699 2.04851338
v -0.45699789 -2.22362428 2.04851338
v -0.59541071 -2.17681439 2.11655338
v -0.58185862 -2.18569623 2.10298641
v -0.52963753 -2.19150555 2.12336620
v -0.38661689 -2.22031143 2.11881454
v -0.31117646 -2.23649096 2.11297064
v -0.50768303 -2.18257552 2.15851658
v -0.52963753 -2.16039493 2.18482807
v -0.52945680 -2.15789845 2.18849882
v -0.03597694 -2.22295207 2.18623765
v -0.03516381 -2.22300005 2.18623765
v 0.03512681 -2.22300005 2.18623765
v 0.10062899 -2.21891923 2.18623765
v 0.17155204 -2.21435835 2.18623765
v 0.24238473 -2.20960533 2.18623765
v 0.24599867 -2.20926922 2.18623765
v 0.30526684 -2.20134751 2.18623765
v -0.10554478 -2.21723892 2.18849882
v 0.32758275 -2.19909116 2.18403537
v 0.32758275 -2.25804733 1.98191241
v 0.31637961 -2.27067409 1.88853015
v -0.59541071 -2.18886491 2.06804149
v -0.28425279 -2.25046193 2.08563135
v -0.03516381 -2.29035821 1.88853015
v -0.04754146 -2.28973398 1.88855949
v -0.05467894 -2.28934989 1.88855949
v -0.19516983 -2.28152436 1.88855949
v -0.24603568 -2.27830769 1.88855949
v -0.26546043 -2.27677133 1.88855949
v -0.31641662 -2.27062611 1.88855949
v -0.32237960 -2.25867156 1.98411490
v -0.29988296 -2.25329451 2.04851338
v -0.33493794 -2.24681298 2.04851338
v -0.24603568 -2.24047581 2.12562737
v -0.38661689 -2.19419397 2.17584230
v -0.45699789 -2.18742473 2.16582873
v -0.45699789 -2.17234948 2.18849882
v -0.47190524 -2.16946892 2.18849882
v -0.52575253 -2.15871462 2.18849882
v -0.03516381 -2.24714908 2.14641807
v 0.03512681 -2.24714908 2.14641807
v 0.10541743 -2.24494072 2.13998703
v 0.17570804 -2.24273216 2.13302732
v 0.24599867 -2.24047581 2.12562737
v -0.17574505 -2.21277401 2.18849882
v 0.32758275 -2.22732101 2.12662562
v 0.32758275 -2.25699124 1.98919513
v 0.29984598 -2.25329451 2.04848405
v 0.32243295 -2.25862357 1.98411490
v 0.24599867 -2.26923370 1.97824177
v 0.24599867 -2.27643522 1.90791137
v 0.24599867 -2.27835567 1.88853015
v -0.24603568 -2.25180614 2.09047678
v -0.24603568 -2.26918572 1.97824177
v -0.24603568 -2.25891169 2.04851338
v -0.10554478 -2.26774554 2.04851338
v -0.03516381 -2.27216246 2.04848405
v 0.03512681 -2.29031022 1.88853015
v 0.03512681 -2.28949406 1.90791137
v -0.03516381 -2.28949406 1.90791137
v -0.04745112 -2.28944607 1.89569532
v -0.04754146 -2.28877386 1.90794071
v -0.17574505 -2.28080416 1.90794071
v -0.24603568 -2.27638724 1.90794071
v -0.24603568 -2.20811695 2.18849882
v -0.31180889 -2.19923512 2.18849882
v -0.33096263 -2.19635455 2.18849882
v -0.17574505 -2.24273216 2.13302732
v -0.37062531 -2.18881693 2.18849882
v -0.04754146 -2.24676499 2.14530226
v -0.03516381 -2.25843142 2.11126749
v 0.03512681 -2.25843142 2.11126749
v 0.10541743 -2.25622306 2.10483645
v 0.17570804 -2.25401450 2.09787695
v 0.24599867 -2.25180614 2.09047678
v 0.28421578 -2.25041374 2.08566089
v 0.31104909 -2.23653895 2.11300019
v 0.32758275 -2.23303416 2.11423355
v 0.32758275 -2.25123011 2.02801625
v 0.32758275 -2.24734123 2.05394606
v 0.24599867 -2.25891169 2.04848405
v 0.10541743 -2.27806755 1.97824177
v 0.17570804 -2.28080416 1.90791137
v -0.17574505 -2.25406269 2.09787695
v -0.17574505 -2.27365063 1.97824177
v -0.10554478 -2.27806755 1.97824177
v -0.04745112 -2.28171630 1.97824177
v -0.03516381 -2.28243649 1.97824177
v 0.03512681 -2.27216246 2.04848405
v -0.04754146 -2.25804733 2.11015168
v -0.10554478 -2.25627105 2.10480712
v 0.03512681 -2.28243649 1.97824177
v -0.10554478 -2.24494072 2.13995770
f 1 2 7
f 1 7 16
f 1 16 43
f 1 43 23
f 1 23 9
f 1 9 3
f 1 3 11
f 1 11 30
f 1 30 60
f 1 60 59
f 1 59 58
f 1 58 90
f 1 90 88
f 1 88 87
f 1 87 86
f 1 86 66
f 1 66 39
f 1 39 12
f 1 12 4
f 1 4 5
f 1 5 6
f 1 6 2
f 2 6 8
f 2 8 17
f 2 17 7
f 3 9 10
f 3 10 11
f 4 12 13
f 4 13 5
f 5 13 40
f 5 40 67
f 5 67 99
f 5 99 101
f 5 101 100
f 5 100 68
f 5 68 41
f 5 41 14
f 5 14 6
f 6 14 42
f 6 42 73
f 6 73 79
f 6 79 45
f 6 45 17
f 6 17 8
f 7 15 16
f 7 17 18
f 7 18 19
f 7 19 20
f 7 20 21
f 7 21 22
f 7 22 15
f 9 23 24
f 9 24 10
f 10 25 26
f 10 26 27
f 10 27 28
f 10 28 29
f 10 29 30
f 10 30 11
f 10 24 25
f 12 31 32
f 12 32 33
f 12 33 34
f 12 34 35
f 12 35 36
f 12 36 37
f 12 37 38
f 12 38 13
f 12 39 31
f 13 38 40
f 14 41 42
f 15 25 24
f 15 24 43
f 15 43 16
f 15 22 44
f 15 44 25
f 17 45 46
f 17 46 47
f 17 47 48
f 17 48 49
f 17 49 50
f 17 50 51
f 17 51 18
f 18 51 52
f 18 52 19
f 19 52 20
f 20 52 53
f 20 53 54
f 20 54 21
f 21 54 44
f 21 44 22
f 23 43 24
f 25 44 26
f 26 44 27
f 27 44 55
f 27 55 56
f 27 56 57
f 27 57 28
f 28 57 58
f 28 58 59
f 28 59 60
f 28 60 29
f 29 60 30
f 31 39 61
f 31 61 32
f 32 61 62
f 32 62 33
f 33 62 34
f 34 62 35
f 35 62 36
f 36 62 63
f 36 63 64
f 36 64 65
f 36 65 37
f 37 65 38
f 38 65 40
f 39 66 61
f 40 65 67
f 41 68 69
f 41 69 70
f 41 70 42
f 42 70 71
f 42 71 72
f 42 72 73
f 44 74 55
f 44 54 53
f 44 53 75
f 44 75 76
f 44 76 77
f 44 77 78
f 44 78 74
f 45 79 80
f 45 80 81
f 45 81 82
f 45 82 46
f 46 82 47
f 47 82 48
f 48 83 84
f 48 84 85
f 48 85 49
f 48 82 81
f 48 81 83
f 49 85 50
f 50 85 75
f 50 75 51
f 51 75 52
f 52 75 53
f 55 86 87
f 55 87 88
f 55 88 56
f 55 74 105
f 55 105 89
f 55 89 86
f 56 88 90
f 56 90 58
f 56 58 57
f 61 91 111
f 61 111 92
f 61 92 93
f 61 93 62
f 61 66 86
f 61 86 91
f 62 93 94
f 62 94 63
f 63 94 95
f 63 95 64
f 64 95 96
f 64 96 65
f 65 97 98
f 65 98 67
f 65 96 97
f 67 98 99
f 68 100 69
f 69 97 71
f 69 71 70
f 69 100 101
f 69 101 97
f 71 97 102
f 71 102 110
f 71 110 103
f 71 103 72
f 72 103 113
f 72 113 104
f 72 104 73
f 73 104 80
f 73 80 79
f 74 78 105
f 75 85 106
f 75 106 76
f 76 106 107
f 76 107 77
f 77 107 108
f 77 108 78
f 78 108 109
f 78 109 113
f 78 113 110
f 78 110 93
f 78 93 92
f 78 92 111
f 78 111 112
f 78 112 105
f 80 113 109
f 80 109 81
f 80 104 113
f 81 109 83
f 83 109 108
f 83 108 84
f 84 107 85
f 84 108 107
f 85 107 106
f 86 89 114
f 86 114 91
f 89 105 112
f 89 112 114
f 91 114 112
f 91 112 111
f 93 110 94
f 94 110 95
f 95 110 96
f 96 110 97
f 97 110 102
f 97 101 99
f 97 99 98
f 103 110 113

