# https://github.com/mikedh/trimesh
v -0.69011995 -0.75619429 -0.35577440
v -0.69128672 -0.75619429 -0.35510005
v -0.89780975 -0.97730066 -0.20267524
v -0.81911582 -0.97730066 -0.31405276
v -0.81030004 -0.97730066 -0.34195714
v -0.81017039 -0.97730066 -0.35129352
v -0.81017039 -0.97730066 -0.35577440
v -2.00108118 -0.75619429 -0.35577440
v -1.08994240 -0.75619429 -0.20267524
v -1.91759043 -0.97730066 -0.20267524
v -1.90345917 -0.97730066 -0.35577440
v -1.97061490 -0.83309988 -0.35577440
v -1.97981964 -0.81355422 -0.33973914
v -2.00237762 -0.75619429 -0.34147755
v -2.01443442 -0.75619429 -0.20267524
v -1.93224011 -0.94996263 -0.20267524
v -1.91058965 -0.96418358 -0.35577440
v -1.90747817 -0.97730066 -0.31265905
v -1.96413274 -0.84907412 -0.35577440
v -1.96931847 -0.84548101 -0.31478710
v -1.97126301 -0.85026458 -0.27171674
v -2.00847087 -0.75619429 -0.27171674
v -2.01300849 -0.75619429 -0.21932493
v -1.97424479 -0.85788371 -0.20267524
v -1.92627656 -0.94918345 -0.27171674
v -1.91564568 -0.95472466 -0.35577440
v -1.93262902 -0.94918345 -0.20267524
v -1.95389077 -0.87420427 -0.35577440
v -1.96024323 -0.89238629 -0.20267524
v -1.95946541 -0.89418279 -0.20267524
v -1.95687254 -0.88539483 -0.27171674
v -1.94688999 -0.88896636 -0.35577440
v -1.95998403 -0.89301397 -0.20267524
f 1 2 3
f 1 3 4
f 1 4 5
f 1 5 6
f 1 6 7
f 1 7 11
f 1 11 17
f 1 17 26
f 1 26 32
f 1 32 28
f 1 28 19
f 1 19 12
f 1 12 8
f 1 8 14
f 1 14 22
f 1 22 23
f 1 23 15
f 1 15 9
f 1 9 2
f 2 9 3
f 3 9 15
f 3 15 24
f 3 24 29
f 3 29 33
f 3 33 30
f 3 30 27
f 3 27 16
f 3 16 10
f 3 10 18
f 3 18 11
f 3 11 7
f 3 7 6
f 3 6 5
f 3 5 4
f 8 12 13
f 8 13 14
f 10 16 17
f 10 17 18
f 11 18 17
f 12 19 20
f 12 20 21
f 12 21 13
f 13 21 14
f 14 21 22
f 15 23 24
f 16 25 26
f 16 26 17
f 16 27 25
f 19 28 20
f 20 28 21
f 21 24 22
f 21 28 29
f 21 29 24
f 22 24 23
f 25 27 30
f 25 30 26
f 26 30 31
f 26 31 32
f 28 32 31
f 28 31 33
f 28 33 29
f 30 33 31

