# https://github.com/mikedh/trimesh
v 0.93745991 0.05072315 -0.95009665
v 0.93949257 0.05065497 -0.95009665
v 1.22192566 0.08952251 -0.99307644
v 1.22192566 0.10009175 -1.00253682
v 1.22192566 0.10159191 -1.00392943
v 1.18528146 0.10159191 -1.00436161
v 1.11686607 0.10159191 -1.00594637
v 1.04839483 0.10159191 -1.00772318
v 0.97984020 0.10159191 -1.00969213
v 0.93745991 0.08577213 -0.99235614
v 0.93745991 -0.43853058 -0.95009665
v 1.21087119 0.03749456 -0.95009665
v 1.22192566 0.04274510 -0.95451473
v 1.22192566 0.04588178 -0.95696385
v 1.22192566 0.08468113 -0.98880253
v 1.22192566 0.10159191 -1.43353543
v 0.93745991 0.10159191 -1.01166098
v 0.93745991 0.09886436 -1.00829952
v 0.93745991 -0.59495538 -1.02357048
v 1.03828708 -0.49533172 -0.95009665
v 1.22192566 0.03694905 -0.95009665
v 1.16010946 0.10159191 -1.43502401
v 1.22192566 -0.26846801 -1.43896192
v 0.93745991 0.10159191 -1.43747313
v 0.93745991 -0.59495538 -1.43737716
v 0.95853863 -0.59495538 -1.03720880
v 1.22192566 -0.58186312 -0.95009665
v 1.19589044 -0.57381689 -0.95009665
v 1.08980054 0.10159191 -1.43627267
v 1.22192566 -0.30351699 -1.43896192
v 0.94921058 -0.19475606 -1.44069064
v 1.02859704 0.10159191 -1.43723300
v 0.94921058 0.10159191 -1.43752112
v 0.93745991 -0.19168758 -1.44021037
v 0.94514516 -0.59495538 -1.43737716
v 0.93745991 -0.58725007 -1.43761729
v 0.96655810 -0.59495538 -1.04253922
v 1.22192566 -0.58377247 -1.19697841
v 1.22192566 -0.33440647 -1.42791678
v 0.94759554 -0.59495538 -1.43728098
v 0.94921058 -0.23055512 -1.44069064
v 0.93745991 -0.22919135 -1.44030655
v 1.00501221 -0.59495538 -1.39343684
v 1.22192566 -0.58377247 -1.24355979
v 1.22192566 -0.33870235 -1.42556363
v 0.99696498 -0.59495538 -1.41735191
v 1.22192566 -0.57988568 -1.24725757
v 1.22192566 -0.38977568 -1.39026742
v 1.22192566 -0.54101815 -1.28322610
v 1.22192566 -0.54647325 -1.27856799
f 1 2 3
f 1 3 4
f 1 4 5
f 1 5 6
f 1 6 7
f 1 7 8
f 1 8 9
f 1 9 10
f 1 10 18
f 1 18 17
f 1 17 24
f 1 24 34
f 1 34 42
f 1 42 36
f 1 36 25
f 1 25 19
f 1 19 11
f 1 11 20
f 1 20 28
f 1 28 27
f 1 27 21
f 1 21 12
f 1 12 2
f 2 12 13
f 2 13 14
f 2 14 15
f 2 15 3
f 3 15 14
f 3 14 13
f 3 13 21
f 3 21 27
f 3 27 38
f 3 38 44
f 3 44 47
f 3 47 50
f 3 50 49
f 3 49 48
f 3 48 45
f 3 45 39
f 3 39 30
f 3 30 23
f 3 23 16
f 3 16 5
f 3 5 4
f 5 16 22
f 5 22 29
f 5 29 32
f 5 32 33
f 5 33 24
f 5 24 17
f 5 17 9
f 5 9 8
f 5 8 7
f 5 7 6
f 9 17 18
f 9 18 10
f 11 19 20
f 12 21 13
f 16 23 22
f 19 25 35
f 19 35 40
f 19 40 46
f 19 46 43
f 19 43 37
f 19 37 26
f 19 26 27
f 19 27 28
f 19 28 20
f 22 23 29
f 23 30 41
f 23 41 31
f 23 31 32
f 23 32 29
f 24 33 31
f 24 31 34
f 25 36 35
f 26 37 27
f 27 37 38
f 30 39 40
f 30 40 35
f 30 35 36
f 30 36 41
f 31 41 42
f 31 42 34
f 31 33 32
f 36 42 41
f 37 43 38
f 38 43 44
f 39 45 46
f 39 46 40
f 43 46 44
f 44 46 47
f 45 48 46
f 46 49 50
f 46 50 47
f 46 48 49

