# https://github.com/mikedh/trimesh
v 0.37660966 0.03496989 3.48111905
v 0.37660966 0.10078265 3.48071107
v 0.37660966 -0.59676404 3.45990255
v 0.38673298 -0.59744960 3.46217566
v 0.45702660 -0.66771844 3.45867841
v 0.59761388 -0.38664311 3.46287511
v 0.69976430 -0.10522500 3.46491521
v 0.59761388 0.59746333 3.45250008
v 0.37660966 0.30576199 3.46398254
v 0.37660966 -0.66291958 3.44911934
v 0.38511956 -0.66771844 3.45203364
v 0.45304054 -0.74175777 3.44777869
v 0.52735191 -0.73798728 3.44270779
v 0.69976430 -0.45896857 3.45477319
v 0.69976430 0.19915901 3.45302457
v 0.65920781 0.59746333 3.44241632
v 0.69976430 1.23022570 3.31814754
v 0.66793920 1.23022570 3.32170304
v 0.59761388 1.30049438 3.31488352
v 0.52735191 1.30049438 3.32112031
v 0.38673298 1.37076327 3.31704012
v 0.37660966 1.37076327 3.31750656
v 0.37660966 -1.37074944 3.31750656
v 0.38673298 -1.37074944 3.31704012
v 0.52735191 -1.30048076 3.32112031
v 0.59761388 -1.30048076 3.31488352
v 0.69976430 -1.23021187 3.31814754
v 0.69976430 0.24886137 3.44923585
v 0.69976430 1.30049438 3.29774701
v 0.66793920 1.30049438 3.30450828
v 0.52735191 1.37076327 3.30165223
v 0.45702660 1.37076327 3.31057031
v 0.38673298 1.43417660 3.29494921
v 0.37660966 1.43623325 3.29489096
v 0.37660966 -1.38240393 3.31365958
v 0.38673298 -1.43416298 3.29494921
v 0.45702660 -1.37074944 3.31057031
v 0.52735191 -1.37074944 3.30165223
v 0.66793920 -1.30048076 3.30450828
v 0.69976430 -1.26860259 3.30870498
v 0.69976430 1.33888531 3.28090197
v 0.66793920 1.34642629 3.28550664
v 0.59087555 1.37144889 3.29069426
v 0.45702660 1.42389335 3.29016978
v 0.37660966 1.47085348 3.27518987
v 0.37660966 -1.43621963 3.29489096
v 0.37660966 -1.44410341 3.29081076
v 0.45702660 -1.42387973 3.29016978
v 0.59087555 -1.37143506 3.29069426
v 0.66793920 -1.34641246 3.28550664
v 0.69976430 -1.30048076 3.29774701
v 0.69976430 1.37659041 3.25379841
v 0.66793920 1.38138933 3.26190033
v 0.60979348 1.39510026 3.27175087
v 0.56290999 1.40641193 3.27909509
v 0.52735191 1.41223907 3.28305857
v 0.45702660 1.45885639 3.26662151
v 0.38673298 1.46948245 3.27425720
v 0.38970668 1.51747080 3.23526300
v 0.37660966 1.50513090 3.24773637
v 0.37660966 -1.47083986 3.27518987
v 0.52735191 -1.41222524 3.28305857
v 0.38673298 -1.46946862 3.27425720
v 0.45702660 -1.45884256 3.26662151
v 0.56290999 -1.40639810 3.27909509
v 0.69976430 -1.33887148 3.28090197
v 0.69976430 -1.32378931 3.28807143
v 0.69976430 1.40127021 3.23555447
v 0.66793920 1.42800665 3.22675310
v 0.59416567 1.43966093 3.24318995
v 0.57853781 1.48285057 3.21462924
v 0.52735191 1.44754492 3.25752866
v 0.45702660 1.50341706 3.23147428
v 0.37660966 1.53769469 3.22127401
v 0.41514146 1.54489286 3.20711026
v 0.37660966 -1.51540053 3.23934319
v 0.38970668 -1.51745718 3.23526300
v 0.45702660 -1.50340344 3.23147428
v 0.52735191 -1.44753109 3.25752866
v 0.57853781 -1.48283694 3.21462924
v 0.59416567 -1.43964731 3.24318995
v 0.66793920 -1.42833563 3.22675310
v 0.60979348 -1.39508664 3.27175087
v 0.69976430 -1.34469862 3.27699674
v 0.69976430 1.42080848 3.22080778
v 0.62542135 1.47325294 3.20576962
v 0.63130548 1.54626389 3.13757330
v 0.52735191 1.52706863 3.19014851
v 0.52735191 1.49176278 3.22238144
v 0.37660966 1.56100325 3.20046549
v 0.45702660 1.53838010 3.20093172
v 0.42061437 1.61653278 3.13798128
v 0.37660966 -1.53768086 3.22127401
v 0.37660966 -1.54967795 3.21142347
v 0.41514146 -1.54487924 3.20711026
v 0.52735191 -1.49174895 3.22238144
v 0.62542135 -1.47323911 3.20576962
v 0.52735191 -1.52705480 3.19014851
v 0.63130548 -1.54625027 3.13757330
v 0.69976430 -1.42079465 3.22080778
v 0.66793920 -1.38137550 3.26190033
v 0.69976430 -1.37657679 3.25379841
v 0.69976430 1.45337206 3.19248008
v 0.66793920 1.46331250 3.19690979
v 0.69976430 1.54626389 3.07951900
v 0.69976430 1.54969178 3.07357368
v 0.66793920 1.55688995 3.08715469
v 0.66233972 1.59151018 3.02711875
v 0.63516502 1.61790381 2.99984023
v 0.59761388 1.60624953 3.04740279
v 0.55291319 1.61379051 3.06185801
v 0.50609298 1.62133170 3.07707093
v 0.45702660 1.61036283 3.12725653
v 0.58445363 1.55346227 3.14590844
v 0.69976430 1.47325294 3.17435265
v 0.69976430 1.49416224 3.15511779
v 0.69976430 1.52843966 3.11035303
v 0.37660966 1.57745644 3.18461117
v 0.45702660 1.62921549 3.09210909
v 0.42168997 1.68714448 2.99768363
v 0.39362946 1.67617562 3.03137370
v 0.37660966 1.67720384 3.03626985
v 0.39299675 1.63641366 3.11000330
v 0.37660966 1.64018436 3.10854615
v 0.37660966 1.62304554 3.13792302
v 0.37660966 1.61550456 3.14724909
v 0.37660966 1.58534023 3.17691722
v 0.37660966 -1.58532661 3.17691722
v 0.42058272 -1.61686176 3.13798128
v 0.45702660 -1.53836648 3.20093172
v 0.66793920 -1.46329867 3.19690979
v 0.69976430 -1.43553401 3.20833420
v 0.58445363 -1.55344844 3.14590844
v 0.59761388 -1.60623591 3.04740279
v 0.63516502 -1.61789019 2.99984023
v 0.66233972 -1.59149656 3.02711875
v 0.66793920 -1.55687633 3.08715469
v 0.69976430 -1.54967795 3.07357368
v 0.69976430 -1.52842604 3.11035303
v 0.69976430 -1.51334388 3.13343486
v 0.69976430 -1.49414841 3.15511779
v 0.69976430 -1.45335823 3.19248008
v 0.50606134 -1.62131787 3.07707093
v 0.55291319 -1.61377689 3.06185801
v 0.69976430 1.62133170 2.93788070
v 0.69976430 1.64806814 2.88629641
v 0.66306736 1.66383572 2.88687936
v 0.66192850 1.66486394 2.88571347
v 0.61532967 1.68234557 2.88571347
v 0.58559249 1.69228600 2.88571347
v 0.52864892 1.63469982 3.03621160
v 0.53823444 1.70771098 2.88571347
v 0.45702660 1.65903680 3.03288911
v 0.45702660 1.73239077 2.88571347
v 0.39587559 1.74712992 2.88571347
v 0.45702660 1.68200276 2.98701713
v 0.38888418 1.74850116 2.88571347
v 0.37660966 1.75090062 2.88571347
v 0.37660966 -1.62063246 3.14246945
v 0.37660966 -1.64017053 3.10854615
v 0.37660966 -1.64565485 3.09793790
v 0.39296511 -1.63640004 3.11000330
v 0.37660966 -1.67719022 3.03621160
v 0.39362946 -1.67616179 3.03137370
v 0.42165835 -1.68713065 2.99768363
v 0.45702660 -1.65902318 3.03288911
v 0.45702660 -1.62920166 3.09205084
v 0.59761388 -1.62440295 3.01225556
v 0.59761388 -1.67719022 2.90751311
v 0.59761388 -1.68815908 2.88571347
v 0.66192850 -1.66485032 2.88571347
v 0.66306736 -1.66382189 2.88687936
v 0.69976430 -1.64839712 2.88571347
v 0.66233972 -1.62714501 2.95874768
v 0.69976430 -1.62131787 2.93788070
v 0.50647257 -1.69192957 2.93665677
v 0.52902855 -1.71043942 2.88571347
v 0.52864892 -1.63468620 3.03621160
v 0.69976430 1.64806814 2.88571347
v 0.66357350 1.66417853 2.88571347
v 0.37660966 -1.75088679 2.88571347
v 0.38885254 -1.74848733 2.88571347
v 0.39584394 -1.74711630 2.88571347
v 0.45702660 -1.68198914 2.98701713
v 0.45022504 -1.73409078 2.88571347
v 0.45702660 -1.73237694 2.88571347
v 0.66357350 -1.66416470 2.88571347
f 1 2 9
f 1 9 22
f 1 22 34
f 1 34 45
f 1 45 60
f 1 60 74
f 1 74 90
f 1 90 118
f 1 118 127
f 1 127 126
f 1 126 125
f 1 125 124
f 1 124 122
f 1 122 158
f 1 158 181
f 1 181 163
f 1 163 161
f 1 161 160
f 1 160 159
f 1 159 128
f 1 128 94
f 1 94 93
f 1 93 76
f 1 76 61
f 1 61 47
f 1 47 46
f 1 46 35
f 1 35 23
f 1 23 10
f 1 10 3
f 1 3 4
f 1 4 5
f 1 5 6
f 1 6 7
f 1 7 2
f 2 8 9
f 2 7 8
f 3 10 11
f 3 11 4
f 4 11 5
f 5 11 12
f 5 12 13
f 5 13 14
f 5 14 6
f 6 14 7
f 7 14 27
f 7 27 40
f 7 40 51
f 7 51 67
f 7 67 66
f 7 66 84
f 7 84 102
f 7 102 100
f 7 100 132
f 7 132 142
f 7 142 141
f 7 141 140
f 7 140 139
f 7 139 138
f 7 138 175
f 7 175 173
f 7 173 179
f 7 179 146
f 7 146 145
f 7 145 106
f 7 106 105
f 7 105 117
f 7 117 116
f 7 116 115
f 7 115 103
f 7 103 85
f 7 85 68
f 7 68 52
f 7 52 41
f 7 41 29
f 7 29 17
f 7 17 28
f 7 28 15
f 7 15 8
f 8 15 16
f 8 16 17
f 8 17 18
f 8 18 19
f 8 19 20
f 8 20 21
f 8 21 22
f 8 22 9
f 10 23 11
f 11 23 12
f 12 23 24
f 12 24 25
f 12 25 13
f 13 25 26
f 13 26 27
f 13 27 14
f 15 28 16
f 16 28 17
f 17 29 30
f 17 30 19
f 17 19 18
f 19 30 31
f 19 31 32
f 19 32 21
f 19 21 20
f 21 32 33
f 21 33 34
f 21 34 22
f 23 35 24
f 24 35 36
f 24 36 37
f 24 37 26
f 24 26 25
f 26 37 38
f 26 38 39
f 26 39 40
f 26 40 27
f 29 41 42
f 29 42 30
f 30 42 43
f 30 43 31
f 31 43 44
f 31 44 32
f 32 44 33
f 33 44 45
f 33 45 34
f 35 46 36
f 36 46 47
f 36 47 48
f 36 48 37
f 37 48 38
f 38 49 39
f 38 48 49
f 39 49 50
f 39 50 51
f 39 51 40
f 41 52 53
f 41 53 54
f 41 54 55
f 41 55 42
f 42 55 43
f 43 55 56
f 43 56 44
f 44 56 57
f 44 57 58
f 44 58 45
f 45 58 59
f 45 59 60
f 47 61 48
f 48 62 49
f 48 61 63
f 48 63 64
f 48 64 62
f 49 62 65
f 49 65 50
f 50 66 67
f 50 67 51
f 50 65 66
f 52 68 53
f 53 68 69
f 53 69 54
f 54 69 70
f 54 70 55
f 55 70 71
f 55 71 72
f 55 72 57
f 55 57 56
f 57 73 58
f 57 72 73
f 58 73 59
f 59 74 60
f 59 73 75
f 59 75 74
f 61 76 77
f 61 77 63
f 62 64 65
f 63 78 64
f 63 77 78
f 64 79 65
f 64 78 79
f 65 79 80
f 65 80 81
f 65 81 82
f 65 82 83
f 65 83 84
f 65 84 66
f 68 85 69
f 69 85 86
f 69 86 71
f 69 71 70
f 71 86 87
f 71 87 88
f 71 88 89
f 71 89 72
f 72 89 73
f 73 89 75
f 74 75 90
f 75 89 91
f 75 91 92
f 75 92 90
f 76 93 77
f 77 93 94
f 77 94 95
f 77 95 78
f 78 96 79
f 78 95 96
f 79 96 80
f 80 97 82
f 80 82 81
f 80 96 98
f 80 98 99
f 80 99 97
f 82 97 100
f 82 100 101
f 82 101 83
f 83 101 84
f 84 101 102
f 85 103 86
f 86 103 104
f 86 104 87
f 87 105 106
f 87 106 107
f 87 107 108
f 87 108 109
f 87 109 110
f 87 110 111
f 87 111 112
f 87 112 113
f 87 113 92
f 87 92 114
f 87 114 88
f 87 104 103
f 87 103 115
f 87 115 116
f 87 116 117
f 87 117 105
f 88 91 89
f 88 114 92
f 88 92 91
f 90 92 118
f 92 112 119
f 92 119 120
f 92 120 121
f 92 121 122
f 92 122 123
f 92 123 124
f 92 124 125
f 92 125 126
f 92 126 127
f 92 127 118
f 92 113 112
f 94 128 129
f 94 129 95
f 95 130 96
f 95 129 130
f 96 130 98
f 97 131 132
f 97 132 100
f 97 99 131
f 98 133 99
f 98 130 129
f 98 129 133
f 99 134 135
f 99 135 136
f 99 136 137
f 99 137 138
f 99 138 139
f 99 139 140
f 99 140 141
f 99 141 142
f 99 142 131
f 99 133 129
f 99 129 143
f 99 143 144
f 99 144 134
f 100 102 101
f 106 108 107
f 106 145 108
f 108 145 109
f 109 145 146
f 109 146 147
f 109 147 148
f 109 148 149
f 109 149 150
f 109 150 111
f 109 111 110
f 111 150 151
f 111 151 112
f 112 151 152
f 112 152 119
f 119 152 153
f 119 153 120
f 120 154 155
f 120 155 122
f 120 122 121
f 120 153 156
f 120 156 154
f 122 124 123
f 122 155 157
f 122 157 158
f 128 159 129
f 129 159 160
f 129 160 161
f 129 161 162
f 129 162 163
f 129 163 164
f 129 164 165
f 129 165 166
f 129 166 167
f 129 167 143
f 131 142 132
f 134 144 168
f 134 168 135
f 135 168 169
f 135 169 170
f 135 170 171
f 135 171 172
f 135 172 173
f 135 173 174
f 135 174 175
f 135 175 136
f 136 138 137
f 136 175 138
f 143 168 144
f 143 167 166
f 143 166 176
f 143 176 177
f 143 177 178
f 143 178 168
f 146 179 180
f 146 180 147
f 147 180 148
f 148 180 179
f 148 179 173
f 148 173 187
f 148 187 171
f 148 171 170
f 148 170 177
f 148 177 186
f 148 186 185
f 148 185 183
f 148 183 182
f 148 182 181
f 148 181 158
f 148 158 157
f 148 157 155
f 148 155 154
f 148 154 152
f 148 152 150
f 148 150 149
f 150 152 151
f 152 154 156
f 152 156 153
f 161 163 162
f 163 181 182
f 163 182 183
f 163 183 165
f 163 165 164
f 165 184 166
f 165 183 185
f 165 185 186
f 165 186 184
f 166 184 176
f 168 178 177
f 168 177 169
f 169 177 170
f 171 187 172
f 172 187 173
f 173 175 174
f 176 184 177
f 177 184 186

