# https://github.com/mikedh/trimesh
v -2.21851105 -0.03477909 0.62094221
v -2.21851105 0.03477909 0.62094221
v -2.21069327 -0.10520674 0.52918440
v -2.21416788 -0.10520674 0.57201370
v -2.21807667 -0.10520674 0.62094221
v -2.21807667 0.10520674 0.62094221
v -2.21416788 0.10520674 0.57201370
v -2.21069327 0.10520674 0.52918440
v -2.20808741 -0.14824586 0.52918440
v -2.21677374 -0.12650893 0.62094221
v -2.21373350 0.17563438 0.62094221
v -2.20982472 0.17563438 0.57201370
v -2.20635010 0.17563438 0.52918440
v -2.20635010 -0.17563438 0.52918440
v -2.20982472 -0.17563438 0.57201370
v -2.21373350 -0.17563438 0.62094221
v -2.20504717 0.24606203 0.62094221
v -2.18810868 0.31953287 0.52918440
v -2.19201746 -0.28910116 0.52918440
v -2.20504717 -0.24606203 0.62094221
v -2.21112764 -0.19693658 0.62094221
v -2.19201746 0.31605495 0.57201370
v -2.18680575 0.38648260 0.62094221
v -2.18159382 0.36909307 0.52918440
v -2.18810868 -0.31953287 0.52918440
v -2.19201746 -0.31605495 0.57201370
v -2.18680575 -0.38648260 0.62094221
v -2.18072506 0.42647854 0.62094221
v -2.17985651 0.42343537 0.60173729
v -2.17725066 0.40039424 0.52918440
v -2.18159382 -0.36909307 0.52918440
v -2.17725066 -0.40039424 0.52918440
v -2.17985651 -0.42343537 0.60173729
v -2.18072506 -0.42647854 0.62094221
v -2.17811921 0.43691226 0.62094221
v -2.16595826 0.45473657 0.52918440
v -2.17073580 -0.43299963 0.52918440
v -2.16595826 -0.45473657 0.52918440
v -2.14945414 -0.54864011 0.62094221
v -2.14250491 0.57602860 0.62094221
v -2.14728246 0.52690317 0.52918440
v -2.14728246 -0.52690317 0.52918440
v -2.13685882 -0.59733079 0.62094221
v -2.13685882 0.59733079 0.62094221
v -2.11470840 0.65167312 0.52918440
v -2.12904103 0.59733079 0.52918440
v -2.12904103 -0.59733079 0.52918440
v -2.11470840 -0.65167312 0.52918440
v -2.11644570 -0.65775946 0.57201370
v -2.11731425 -0.66819321 0.62094221
v -2.12252618 0.65036893 0.62094221
v -2.10949647 0.69645119 0.62094221
v -2.10428476 0.68688698 0.52918440
v -2.10428476 -0.68688698 0.52918440
v -2.10949647 -0.69645119 0.62094221
v -2.10819354 0.69992911 0.61795997
v -2.10689061 0.70384177 0.62094221
v -2.08560895 0.73818614 0.52918440
v -2.09212360 -0.72036186 0.52918440
v -2.10819354 -0.69992911 0.61794200
v -2.10689061 -0.70384177 0.62094221
v -2.09516384 0.73427348 0.62094221
v -2.04825735 0.83252438 0.52918440
v -2.08560895 -0.73818614 0.52918440
v -2.09516384 -0.73427348 0.62094221
v -2.07431655 0.78687682 0.62094221
v -2.05086321 0.84600130 0.62094221
v -2.03131886 0.89512678 0.62094221
v -2.04130812 0.84991391 0.52918440
v -2.08691188 -0.75514092 0.62094221
v -2.04130812 -0.84991391 0.52918440
v -2.01524891 0.93077533 0.62094221
v -2.00265358 0.94903436 0.57201370
v -1.99874480 0.94903436 0.52918440
v -2.01742060 0.90729946 0.52918440
v -2.02871279 0.88121511 0.52918440
v -2.03566202 -0.88425828 0.62094221
v -2.02871279 -0.88121511 0.52918440
v -2.03131886 -0.89512678 0.62094221
v -2.00699675 0.94903436 0.62094221
v -1.97529145 0.99642080 0.52918440
v -2.00916844 -0.92599318 0.52918440
v -2.02350107 -0.91295100 0.62094221
v -1.98701802 0.98859558 0.62094221
v -1.96356467 1.01772299 0.52918440
v -1.97920024 1.00381143 0.62094221
v -1.97355414 1.01467982 0.62094221
v -1.91318357 1.12466877 0.62094221
v -1.99874480 -0.94903436 0.52918440
v -2.00265358 -0.94903436 0.57201370
v -2.00699675 -0.94903436 0.62094221
v -1.90145679 1.13032031 0.52918440
v -1.88538705 1.17335939 0.62094221
v -1.88321537 1.16944683 0.57201370
v -1.98528071 -0.97642289 0.52918440
v -1.97529145 -0.99642080 0.52918440
v -1.97920024 -1.00381143 0.62094221
v -1.88886146 1.15205720 0.52918440
v -1.84716669 1.23117964 0.62094221
v -1.84803545 1.22335441 0.57201370
v -1.88104368 1.16553417 0.52918440
v -1.84586376 1.22031124 0.52918440
v -1.90145679 -1.13032031 0.52918440
v -1.95791858 -1.03511252 0.57201370
v -1.96009005 -1.03902519 0.62094221
v -1.83804598 1.24378712 0.62094221
v -1.82067311 1.25552500 0.52918440
v -1.88104368 -1.16553417 0.52918440
v -1.88321537 -1.16944683 0.57201370
v -1.90319410 -1.13423297 0.57201370
v -1.92795037 -1.08945490 0.57201370
v -1.92491014 -1.10293177 0.62094221
v -1.80026000 1.29595571 0.62094221
v -1.76464570 1.34508114 0.62094221
v -1.76203984 1.34203797 0.57201370
v -1.75986815 1.33899480 0.52918440
v -1.84586376 -1.22031124 0.52918440
v -1.88538705 -1.17335939 0.62094221
v -1.87496320 -1.18987954 0.62094221
v -1.90536579 -1.13814563 0.62094221
v -1.73858649 1.38029500 0.62094221
v -1.73684919 1.37029600 0.52918440
v -1.84803545 -1.22335441 0.57201370
v -1.82067311 -1.25552500 0.52918440
v -1.84716669 -1.23117964 0.62094221
v -1.71426449 1.41116140 0.62094221
v -1.69862893 1.41942153 0.52918440
v -1.82067311 -1.26813248 0.62094221
v -1.75986815 -1.33899480 0.52918440
v -1.76203984 -1.34203797 0.57201370
v -1.78940198 -1.31117157 0.62094221
v -1.70340647 1.42463837 0.62094221
v -1.70080062 1.42202990 0.57201370
v -1.69385149 1.43550677 0.62094221
v -1.66692352 1.45463528 0.52918440
v -1.73684919 -1.37029600 0.52918440
v -1.76464570 -1.34508114 0.62094221
v -1.74640428 -1.36986130 0.62094221
v -1.67170107 1.45985213 0.62094221
v -1.66909511 1.45724376 0.57201370
v -1.63695543 1.49723967 0.62094221
v -1.60394699 1.53245354 0.62094221
v -1.59873517 1.52723669 0.52918440
v -1.71252729 -1.40203189 0.52918440
v -1.73858649 -1.38029500 0.62094221
v -1.56876707 1.56984108 0.62094221
v -1.56355515 1.56462412 0.52918440
v -1.69862893 -1.41942153 0.52918440
v -1.70080062 -1.42202990 0.57201370
v -1.72772847 -1.39420667 0.62094221
v -1.55834333 1.58070947 0.62094221
v -1.53488998 1.60505483 0.62094221
v -1.53184974 1.60244646 0.57201370
v -1.52924378 1.59983798 0.52918440
v -1.68646798 -1.43333309 0.52918440
v -1.70340647 -1.42463837 0.62094221
v -1.68169043 -1.44941843 0.62094221
v -1.49970996 1.63722553 0.62094221
v -1.49406386 1.63244337 0.52918440
v -1.66692352 -1.45463528 0.52918440
v -1.61393635 -1.52201973 0.62094221
v -1.48711473 1.64809402 0.62094221
v -1.45540933 1.66983091 0.57201370
v -1.46887321 1.65374556 0.52918440
v -1.59873517 -1.52723669 0.52918440
v -1.56355515 -1.56462412 0.52918440
v -1.56876707 -1.56984108 0.62094221
v -1.45844957 1.67243928 0.62094221
v -1.43890511 1.67896042 0.52918440
v -1.45236899 1.66765723 0.52918440
v -1.37505992 1.73199851 0.52918440
v -1.52924378 -1.59983798 0.52918440
v -1.53184974 -1.60244646 0.57201370
v -1.53488998 -1.60505483 0.62094221
v -1.42326954 1.70156680 0.62094221
v -1.34552610 1.76590819 0.62094221
v -1.34248586 1.76329961 0.57201370
v -1.33987990 1.76069123 0.52918440
v -1.49406386 -1.63244337 0.52918440
v -1.52403196 -1.61505384 0.62094221
v -1.29601355 1.80199144 0.62094221
v -1.30035671 1.79416611 0.57201370
v -1.30035671 1.78981875 0.52918440
v -1.49970996 -1.63722553 0.62094221
v -1.45236899 -1.66765723 0.52918440
v -1.45540933 -1.66983091 0.57201370
v -1.45844957 -1.67243928 0.62094221
v -1.28211529 1.81199034 0.62094221
v -1.26257083 1.82590200 0.62094221
v -1.25866194 1.82372843 0.57201370
v -1.25562170 1.82155465 0.52918440
v -1.43108733 -1.68548146 0.52918440
v -1.37505992 -1.73199851 0.52918440
v -1.42326954 -1.70156680 0.62094221
v -1.24346065 1.83807469 0.62094221
v -1.18656470 1.86546322 0.52918440
v -1.33987990 -1.76069123 0.52918440
v -1.34248586 -1.76329961 0.57201370
v -1.34552610 -1.76590819 0.62094221
v -1.13661776 1.90589404 0.62094221
v -1.12966863 1.90154647 0.52918440
v -1.32337568 -1.77286392 0.52918440
v -1.30035671 -1.78981875 0.52918440
v -1.30035671 -1.79416611 0.57201370
v -1.31034608 -1.79155774 0.62094221
v -1.08971107 1.93415196 0.62094221
v -1.08971107 1.92980461 0.57201370
v -1.10664956 1.91545814 0.52918440
v -1.25562170 -1.82155465 0.52918440
v -1.26517669 -1.82416302 0.62094221
v -1.29601355 -1.80199144 0.62094221
v -1.04063279 1.96197530 0.62094221
v -1.08971107 1.92545725 0.52918440
v -1.25996487 -1.82764099 0.62094221
v -1.25866194 -1.82372843 0.57201370
v -1.14356689 -1.89285176 0.52918440
v -0.98981731 1.98588587 0.62094221
v -0.90946790 2.01544798 0.52918440
v -1.01804820 1.96414887 0.52918440
v -1.03151208 1.95762794 0.52918440
v -1.05279384 1.94588985 0.52918440
v -1.16137404 -1.89024339 0.62094221
v -1.12966863 -1.90154647 0.52918440
v -1.13661776 -1.90589404 0.62094221
v -0.89556964 2.03022924 0.62094221
v -0.85170324 2.04240192 0.52918440
v -0.86038967 2.04674928 0.62094221
v -0.85561213 2.04457550 0.57201370
v -1.08971107 -1.92545725 0.52918440
v -1.08971107 -1.92980461 0.57201370
v -1.10274067 -1.92632664 0.62094221
v -0.80827116 2.06805147 0.62094221
v -0.82694696 2.05240082 0.52918440
v -1.03194646 -1.95762794 0.52918440
v -1.08971107 -1.93415196 0.62094221
v -1.04063279 -1.96197530 0.62094221
v -0.76570773 2.07500720 0.52918440
v -0.80827116 2.06370412 0.57201370
v -0.72314426 2.09761358 0.62094221
v -0.73791117 2.08848407 0.57201370
v -0.80827116 2.05979135 0.52918440
v -0.92640639 -2.00762286 0.52918440
v -0.91337679 -2.02196912 0.62094221
v -0.73791117 2.08457151 0.52918440
v -0.68275241 2.10283054 0.52918440
v -0.59762551 2.13847920 0.62094221
v -0.86516722 -2.03631558 0.52918440
v -0.86038967 -2.04674928 0.62094221
v -0.64800677 2.11413383 0.52918440
v -0.52726558 2.15717281 0.62094221
v -0.52726558 2.14934749 0.52918440
v -0.55462776 2.14195696 0.52918440
v -0.59762551 2.13413163 0.57201370
v -0.85170324 -2.04240192 0.52918440
v -0.85561213 -2.04457550 0.57201370
v -0.83302743 -2.05022725 0.52918440
v -0.80827116 -2.06805147 0.62094221
v -0.59762551 2.13021907 0.52918440
v -0.50554948 2.16152017 0.62094221
v -0.45690558 2.16369395 0.52918440
v -0.80827116 -2.05979135 0.52918440
v -0.80827116 -2.06370412 0.57201370
v -0.75962721 -2.08500631 0.62094221
v -0.73791117 -2.08848407 0.57201370
v -0.45690558 2.16717192 0.57201370
v -0.43909841 2.17456245 0.62094221
v -0.42129126 2.17804021 0.62094221
v -0.38480831 2.18499615 0.62094221
v -0.40695868 2.17673602 0.57201370
v -0.37916214 2.17847501 0.52918440
v -0.73791117 -2.08457151 0.52918440
v -0.73791117 -2.09239684 0.62094221
v -0.71880104 -2.09109265 0.52918440
v -0.68448972 -2.11022107 0.62094221
v -0.31618560 2.19803822 0.62094221
v -0.31966017 2.18977830 0.52918440
v -0.66147070 -2.10978627 0.52918440
v -0.59762551 -2.13847920 0.62094221
v -0.27318783 2.19586464 0.52918440
v -0.24582561 2.20716773 0.62094221
v -0.64800677 -2.11413383 0.52918440
v -0.59762551 -2.13413163 0.57201370
v -0.52726558 -2.14934749 0.52918440
v -0.54854729 -2.15152127 0.62094221
v -0.24582561 2.19934240 0.52918440
v -0.03474567 2.22021001 0.62094221
v -0.17546564 2.20760253 0.57201370
v -0.17546564 2.20412456 0.52918440
v -0.20282785 2.20238557 0.52918440
v -0.59762551 -2.13021907 0.52918440
v -0.45690558 -2.16369395 0.52918440
v -0.52726558 -2.15717281 0.62094221
v 0.03474567 2.22064460 0.62094221
v -0.03474567 2.21629724 0.57201370
v -0.03474567 2.21281948 0.52918440
v -0.45690558 -2.16717192 0.57201370
v -0.47514706 -2.16760651 0.62094221
v -0.37004140 -2.18021399 0.52918440
v -0.40695868 -2.17673602 0.57201370
v -0.38480831 -2.18499615 0.62094221
v -0.42129126 -2.17804021 0.62094221
v 0.24582561 2.20716773 0.62094221
v 0.17546564 2.20412456 0.52918440
v 0.14810342 2.20586354 0.52918440
v 0.07774344 2.21021090 0.52918440
v 0.03474567 2.21281948 0.52918440
v -0.31966017 -2.18977830 0.52918440
v -0.31618560 -2.19803822 0.62094221
v 0.31618560 2.19803822 0.62094221
v 0.31966017 2.18977830 0.52918440
v 0.24582561 2.19934240 0.52918440
v -0.24582561 -2.19934240 0.52918440
v -0.24582561 -2.20716773 0.62094221
v 0.38480831 2.18499615 0.62094221
v 0.37004140 2.18021399 0.52918440
v -0.17546564 -2.20412456 0.52918440
v -0.03474567 -2.22064460 0.62094221
v 0.42129126 2.17804021 0.62094221
v 0.45690558 2.16369395 0.52918440
v 0.40695868 2.17673602 0.57201370
v -0.14810342 -2.20586354 0.52918440
v -0.03474567 -2.21281948 0.52918440
v 0.03474567 -2.21281948 0.52918440
v 0.03474567 -2.21629724 0.57201370
v 0.03474567 -2.22021001 0.62094221
v -0.07774344 -2.21021090 0.52918440
v 0.47514706 2.16760651 0.62094221
v 0.45690558 2.16717192 0.57201370
v 0.52726558 2.15717281 0.62094221
v 0.52726558 2.14934749 0.52918440
v 0.17546564 -2.20412456 0.52918440
v 0.17546564 -2.20760253 0.57201370
v 0.24582561 -2.20716773 0.62094221
v 0.54854729 2.15152127 0.62094221
v 0.59762551 2.13847920 0.62094221
v 0.59762551 2.13413163 0.57201370
v 0.59762551 2.13021907 0.52918440
v 0.20282785 -2.20238557 0.52918440
v 0.24582561 -2.19934240 0.52918440
v 0.27318783 -2.19586464 0.52918440
v 0.31618560 -2.19803822 0.62094221
v 0.68448972 2.11022107 0.62094221
v 0.66147070 2.10978627 0.52918440
v 0.64800677 2.11413383 0.52918440
v 0.31966017 -2.18977830 0.52918440
v 0.37916214 -2.17847501 0.52918440
v 0.38480831 -2.18499615 0.62094221
v 0.73791117 2.09239684 0.62094221
v 0.73791117 2.08848407 0.57201370
v 0.71880104 2.09109265 0.52918440
v 0.40695868 -2.17673602 0.57201370
v 0.45690558 -2.16369395 0.52918440
v 0.42129126 -2.17804021 0.62094221
v 0.75962721 2.08500631 0.62094221
v 0.80827116 2.06805147 0.62094221
v 0.80827116 2.06370412 0.57201370
v 0.73791117 2.08457151 0.52918440
v 0.52726558 -2.14934749 0.52918440
v 0.52726558 -2.15717281 0.62094221
v 0.50554948 -2.16152017 0.62094221
v 0.45690558 -2.16717192 0.57201370
v 0.43909841 -2.17456245 0.62094221
v 0.86038967 2.04674928 0.62094221
v 0.83302743 2.05022725 0.52918440
v 0.80827116 2.05979135 0.52918440
v 0.55462776 -2.14195696 0.52918440
v 0.59762551 -2.13847920 0.62094221
v 0.91337679 2.02196912 0.62094221
v 0.86516722 2.03631558 0.52918440
v 0.85561213 2.04457550 0.57201370
v 0.85170324 2.04240192 0.52918440
v 0.59762551 -2.13021907 0.52918440
v 0.59762551 -2.13413163 0.57201370
v 0.68318674 -2.10283054 0.52918440
v 0.72314426 -2.09761358 0.62094221
v 1.04063279 1.96197530 0.62094221
v 0.92640639 2.00762286 0.52918440
v 0.64800677 -2.11413383 0.52918440
v 0.73791117 -2.08457151 0.52918440
v 0.73791117 -2.08848407 0.57201370
v 0.80827116 -2.06805147 0.62094221
v 1.08971107 1.93415196 0.62094221
v 1.08971107 1.92980461 0.57201370
v 1.03194646 1.95762794 0.52918440
v 0.76570773 -2.07500720 0.52918440
v 0.80827116 -2.06370412 0.57201370
v 0.82694696 -2.05240082 0.52918440
v 0.85170324 -2.04240192 0.52918440
v 0.85561213 -2.04457550 0.57201370
v 0.86038967 -2.04674928 0.62094221
v 1.10274067 1.92632664 0.62094221
v 1.13661776 1.90589404 0.62094221
v 1.12966863 1.90154647 0.52918440
v 1.08971107 1.92545725 0.52918440
v 0.80827116 -2.05979135 0.52918440
v 0.90946790 -2.01544798 0.52918440
v 0.89556964 -2.03022924 0.62094221
v 1.16137404 1.89024339 0.62094221
v 1.14356689 1.89285176 0.52918440
v 0.98981731 -1.98588587 0.62094221
v 1.03194646 -1.95762794 0.52918440
v 1.04063279 -1.96197530 0.62094221
v 1.25996487 1.82764099 0.62094221
v 1.25562170 1.82155465 0.52918440
v 1.08971107 -1.92545725 0.52918440
v 1.08971107 -1.92980461 0.57201370
v 1.08971107 -1.93415196 0.62094221
v 1.26517669 1.82416302 0.62094221
v 1.25866194 1.82372843 0.57201370
v 1.30035671 1.78981875 0.52918440
v 1.10664956 -1.91545814 0.52918440
v 1.12966863 -1.90154647 0.52918440
v 1.13661776 -1.90589404 0.62094221
v 1.29601355 1.80199144 0.62094221
v 1.30035671 1.79416611 0.57201370
v 1.34248586 1.76329961 0.57201370
v 1.32337568 1.77286392 0.52918440
v 1.18656470 -1.86546322 0.52918440
v 1.24346065 -1.83807469 0.62094221
v 1.31034608 1.79155774 0.62094221
v 1.34552610 1.76590819 0.62094221
v 1.33987990 1.76069123 0.52918440
v 1.37505992 1.73199851 0.52918440
v 1.25562170 -1.82155465 0.52918440
v 1.25866194 -1.82372843 0.57201370
v 1.26257083 -1.82590200 0.62094221
v 1.42326954 1.70156680 0.62094221
v 1.45844957 1.67243928 0.62094221
v 1.45540933 1.66983091 0.57201370
v 1.45236899 1.66765723 0.52918440
v 1.30035671 -1.78981875 0.52918440
v 1.30035671 -1.79416611 0.57201370
v 1.28211529 -1.81199034 0.62094221
v 1.49970996 1.63722553 0.62094221
v 1.49406386 1.63244337 0.52918440
v 1.34248586 -1.76329961 0.57201370
v 1.33987990 -1.76069123 0.52918440
v 1.29601355 -1.80199144 0.62094221
v 1.34552610 -1.76590819 0.62094221
v 1.52403196 1.61505384 0.62094221
v 1.53184974 1.60244646 0.57201370
v 1.52924378 1.59983798 0.52918440
v 1.37505992 -1.73199851 0.52918440
v 1.42326954 -1.70156680 0.62094221
v 1.53488998 1.60505483 0.62094221
v 1.56355515 1.56462412 0.52918440
v 1.43890511 -1.67896042 0.52918440
v 1.45540933 -1.66983091 0.57201370
v 1.45844957 -1.67243928 0.62094221
v 1.56876707 1.56984108 0.62094221
v 1.61393635 1.52201973 0.62094221
v 1.59873517 1.52723669 0.52918440
v 1.45236899 -1.66765723 0.52918440
v 1.46887321 -1.65374556 0.52918440
v 1.49406386 -1.63244337 0.52918440
v 1.48711473 -1.64809402 0.62094221
v 1.68169043 1.44941843 0.62094221
v 1.66692352 1.45463528 0.52918440
v 1.49970996 -1.63722553 0.62094221
v 1.52924378 -1.59983798 0.52918440
v 1.53184974 -1.60244646 0.57201370
v 1.53488998 -1.60505483 0.62094221
v 1.70340647 1.42463837 0.62094221
v 1.70080062 1.42202990 0.57201370
v 1.68646798 1.43333309 0.52918440
v 1.56355515 -1.56462412 0.52918440
v 1.55834333 -1.58070947 0.62094221
v 1.72772847 1.39420667 0.62094221
v 1.71252729 1.40203189 0.52918440
v 1.69862893 1.41942153 0.52918440
v 1.59873517 -1.52723669 0.52918440
v 1.56876707 -1.56984108 0.62094221
v 1.73858649 1.38029500 0.62094221
v 1.73684919 1.37029600 0.52918440
v 1.60394699 -1.53245354 0.62094221
v 1.66692352 -1.45463528 0.52918440
v 1.74640428 1.36986130 0.62094221
v 1.76203984 1.34203797 0.57201370
v 1.75986815 1.33899480 0.52918440
v 1.63695543 -1.49723967 0.62094221
v 1.69385149 -1.43550677 0.62094221
v 1.66909511 -1.45724376 0.57201370
v 1.69862893 -1.41942153 0.52918440
v 1.76464570 1.34508114 0.62094221
v 1.78940198 1.31117157 0.62094221
v 1.82067311 1.25552500 0.52918440
v 1.67170107 -1.45985213 0.62094221
v 1.70080062 -1.42202990 0.57201370
v 1.70340647 -1.42463837 0.62094221
v 1.73684919 -1.37029600 0.52918440
v 1.73858649 -1.38029500 0.62094221
v 1.71426449 -1.41116140 0.62094221
v 1.82067311 1.26813248 0.62094221
v 1.84803545 1.22335441 0.57201370
v 1.84586376 1.22031124 0.52918440
v 1.75986815 -1.33899480 0.52918440
v 1.76203984 -1.34203797 0.57201370
v 1.76464570 -1.34508114 0.62094221
v 1.84716669 1.23117964 0.62094221
v 1.87496320 1.18987954 0.62094221
v 1.88321537 1.16944683 0.57201370
v 1.88104368 1.16553417 0.52918440
v 1.82067311 -1.25552500 0.52918440
v 1.80026000 -1.29595571 0.62094221
v 1.88538705 1.17335939 0.62094221
v 1.90319410 1.13423297 0.57201370
v 1.90145679 1.13032031 0.52918440
v 1.84586376 -1.22031124 0.52918440
v 1.84803545 -1.22335441 0.57201370
v 1.84716669 -1.23117964 0.62094221
v 1.83804598 -1.24378712 0.62094221
v 1.90536579 1.13814563 0.62094221
v 1.92491014 1.10293177 0.62094221
v 1.92795037 1.08945490 0.57201370
v 1.95791858 1.03511252 0.57201370
v 1.97529145 0.99642080 0.52918440
v 1.88104368 -1.16553417 0.52918440
v 1.88321537 -1.16944683 0.57201370
v 1.88538705 -1.17335939 0.62094221
v 1.96009005 1.03902519 0.62094221
v 1.97920024 1.00381143 0.62094221
v 2.00699675 0.94903436 0.62094221
v 1.98528071 0.97642289 0.52918440
v 1.88886146 -1.15205720 0.52918440
v 1.90145679 -1.13032031 0.52918440
v 1.91318357 -1.12466877 0.62094221
v 2.02350107 0.91295100 0.62094221
v 2.00265358 0.94903436 0.57201370
v 1.99874480 0.94903436 0.52918440
v 1.96356467 -1.01772299 0.52918440
v 1.97529145 -0.99642080 0.52918440
v 1.97355414 -1.01467982 0.62094221
v 2.03131886 0.89512678 0.62094221
v 2.00916844 0.92599318 0.52918440
v 1.97920024 -1.00381143 0.62094221
v 1.99874480 -0.94903436 0.52918440
v 2.00265358 -0.94903436 0.57201370
v 2.00699675 -0.94903436 0.62094221
v 1.98701802 -0.98859558 0.62094221
v 2.03566202 0.88425828 0.62094221
v 2.04130812 0.84991391 0.52918440
v 2.02871279 0.88121511 0.52918440
v 2.01742060 -0.90729946 0.52918440
v 2.03131886 -0.89512678 0.62094221
v 2.01524891 -0.93077533 0.62094221
v 2.08691188 0.75514092 0.62094221
v 2.08560895 0.73818614 0.52918440
v 2.02871279 -0.88121511 0.52918440
v 2.04130812 -0.84991391 0.52918440
v 2.04825735 -0.83252438 0.52918440
v 2.05086321 -0.84600130 0.62094221
v 2.09516384 0.73427348 0.62094221
v 2.10819354 0.69992911 0.61794200
v 2.09212360 0.72036186 0.52918440
v 2.08560895 -0.73818614 0.52918440
v 2.09516384 -0.73427348 0.62094221
v 2.07431655 -0.78687682 0.62094221
v 2.10689061 0.70384177 0.62094221
v 2.10949647 0.69645119 0.62094221
v 2.10428476 0.68688698 0.52918440
v 2.10428476 -0.68688698 0.52918440
v 2.10819354 -0.69992911 0.61796895
v 2.10689061 -0.70384177 0.62094221
v 2.11731425 0.66819321 0.62094221
v 2.11644570 0.65775946 0.57201370
v 2.11470840 0.65167312 0.52918440
v 2.11470840 -0.65167312 0.52918440
v 2.10949647 -0.69645119 0.62094221
v 2.13685882 0.59733079 0.62094221
v 2.12904103 0.59733079 0.52918440
v 2.12252618 -0.65036893 0.62094221
v 2.12904103 -0.59733079 0.52918440
v 2.14250491 -0.57602860 0.62094221
v 2.13685882 -0.59733079 0.62094221
v 2.14945414 0.54864011 0.62094221
v 2.16595826 0.45473657 0.52918440
v 2.14728246 0.52690317 0.52918440
v 2.14728246 -0.52690317 0.52918440
v 2.16595826 -0.45473657 0.52918440
v 2.17811921 -0.43691226 0.62094221
v 2.18072506 0.42647854 0.62094221
v 2.17985651 0.42343537 0.60172831
v 2.17073580 0.43299963 0.52918440
v 2.17725066 -0.40039424 0.52918440
v 2.17985651 -0.42343537 0.60173729
v 2.18072506 -0.42647854 0.62094221
v 2.18680575 0.38648260 0.62094221
v 2.17725066 0.40039424 0.52918440
v 2.18159382 -0.36909307 0.52918440
v 2.18680575 -0.38648260 0.62094221
v 2.20504717 0.24606203 0.62094221
v 2.19201746 0.31605495 0.57201370
v 2.18810868 0.31953287 0.52918440
v 2.18159382 0.36909307 0.52918440
v 2.18810868 -0.31953287 0.52918440
v 2.19201746 -0.31605495 0.57201370
v 2.20504717 -0.24606203 0.62094221
v 2.21112764 0.19693658 0.62094221
v 2.20982472 0.17563438 0.57201370
v 2.20635010 0.17563438 0.52918440
v 2.19201746 0.28910116 0.52918440
v 2.20635010 -0.17563438 0.52918440
v 2.20982472 -0.17563438 0.57201370
v 2.21373350 -0.17563438 0.62094221
v 2.21373350 0.17563438 0.62094221
v 2.21677374 0.12650893 0.62094221
v 2.20808741 0.14824586 0.52918440
v 2.21069327 -0.10520674 0.52918440
v 2.21416788 -0.10520674 0.57201370
v 2.21807667 -0.10520674 0.62094221
v 2.21807667 0.10520674 0.62094221
v 2.21416788 0.10520674 0.57201370
v 2.21069327 0.10520674 0.52918440
v 2.21851105 -0.03477909 0.62094221
v 2.21851105 0.03477909 0.62094221
f 1 2 8
f 1 8 3
f 1 3 4
f 1 4 5
f 1 5 10
f 1 10 16
f 1 16 21
f 1 21 20
f 1 20 27
f 1 27 34
f 1 34 39
f 1 39 43
f 1 43 50
f 1 50 55
f 1 55 61
f 1 61 65
f 1 65 70
f 1 70 77
f 1 77 79
f 1 79 83
f 1 83 91
f 1 91 97
f 1 97 105
f 1 105 112
f 1 112 120
f 1 120 118
f 1 118 119
f 1 119 125
f 1 125 128
f 1 128 131
f 1 131 137
f 1 137 138
f 1 138 145
f 1 145 150
f 1 150 156
f 1 156 157
f 1 157 161
f 1 161 167
f 1 167 174
f 1 174 180
f 1 180 184
f 1 184 187
f 1 187 194
f 1 194 199
f 1 199 205
f 1 205 211
f 1 211 210
f 1 210 214
f 1 214 222
f 1 222 224
f 1 224 231
f 1 231 235
f 1 235 236
f 1 236 243
f 1 243 248
f 1 248 257
f 1 257 263
f 1 263 272
f 1 272 274
f 1 274 278
f 1 278 284
f 1 284 292
f 1 292 297
f 1 297 301
f 1 301 300
f 1 300 308
f 1 308 313
f 1 313 317
f 1 317 325
f 1 325 333
f 1 333 341
f 1 341 347
f 1 347 353
f 1 353 362
f 1 362 360
f 1 360 359
f 1 359 367
f 1 367 375
f 1 375 381
f 1 381 390
f 1 390 397
f 1 397 400
f 1 400 402
f 1 402 407
f 1 407 413
f 1 413 419
f 1 419 426
f 1 426 433
f 1 433 438
f 1 438 439
f 1 439 444
f 1 444 449
f 1 449 456
f 1 456 459
f 1 459 462
f 1 462 467
f 1 467 472
f 1 472 475
f 1 475 480
f 1 480 487
f 1 487 481
f 1 481 489
f 1 489 492
f 1 492 491
f 1 491 498
f 1 498 504
f 1 504 511
f 1 511 510
f 1 510 519
f 1 519 526
f 1 526 532
f 1 532 535
f 1 535 539
f 1 539 538
f 1 538 545
f 1 545 544
f 1 544 551
f 1 551 557
f 1 557 556
f 1 556 563
f 1 563 568
f 1 568 571
f 1 571 574
f 1 574 573
f 1 573 580
f 1 580 586
f 1 586 590
f 1 590 597
f 1 597 604
f 1 604 610
f 1 610 614
f 1 614 615
f 1 615 611
f 1 611 606
f 1 606 605
f 1 605 598
f 1 598 591
f 1 591 587
f 1 587 581
f 1 581 575
f 1 575 569
f 1 569 564
f 1 564 559
f 1 559 558
f 1 558 552
f 1 552 546
f 1 546 540
f 1 540 533
f 1 533 527
f 1 527 522
f 1 522 521
f 1 521 520
f 1 520 513
f 1 513 512
f 1 512 505
f 1 505 500
f 1 500 499
f 1 499 493
f 1 493 485
f 1 485 484
f 1 484 477
f 1 477 473
f 1 473 468
f 1 468 463
f 1 463 457
f 1 457 451
f 1 451 450
f 1 450 445
f 1 445 440
f 1 440 434
f 1 434 428
f 1 428 427
f 1 427 421
f 1 421 420
f 1 420 414
f 1 414 408
f 1 408 403
f 1 403 398
f 1 398 392
f 1 392 391
f 1 391 382
f 1 382 376
f 1 376 368
f 1 368 363
f 1 363 355
f 1 355 354
f 1 354 348
f 1 348 342
f 1 342 335
f 1 335 334
f 1 334 329
f 1 329 327
f 1 327 318
f 1 318 314
f 1 314 309
f 1 309 302
f 1 302 293
f 1 293 286
f 1 286 280
f 1 280 275
f 1 275 268
f 1 268 267
f 1 267 266
f 1 266 259
f 1 259 250
f 1 250 246
f 1 246 239
f 1 239 232
f 1 232 227
f 1 227 225
f 1 225 217
f 1 217 212
f 1 212 206
f 1 206 200
f 1 200 195
f 1 195 189
f 1 189 188
f 1 188 181
f 1 181 176
f 1 176 175
f 1 175 168
f 1 168 162
f 1 162 158
f 1 158 152
f 1 152 151
f 1 151 146
f 1 146 142
f 1 142 141
f 1 141 139
f 1 139 134
f 1 134 132
f 1 132 126
f 1 126 121
f 1 121 114
f 1 114 113
f 1 113 106
f 1 106 99
f 1 99 93
f 1 93 88
f 1 88 87
f 1 87 86
f 1 86 84
f 1 84 80
f 1 80 72
f 1 72 68
f 1 68 67
f 1 67 66
f 1 66 62
f 1 62 57
f 1 57 52
f 1 52 51
f 1 51 44
f 1 44 40
f 1 40 35
f 1 35 28
f 1 28 23
f 1 23 17
f 1 17 11
f 1 11 6
f 1 6 2
f 2 6 7
f 2 7 8
f 3 9 4
f 3 8 13
f 3 13 18
f 3 18 24
f 3 24 30
f 3 30 36
f 3 36 41
f 3 41 46
f 3 46 45
f 3 45 53
f 3 53 58
f 3 58 63
f 3 63 69
f 3 69 76
f 3 76 75
f 3 75 74
f 3 74 81
f 3 81 85
f 3 85 92
f 3 92 98
f 3 98 101
f 3 101 102
f 3 102 107
f 3 107 116
f 3 116 122
f 3 122 127
f 3 127 135
f 3 135 143
f 3 143 147
f 3 147 154
f 3 154 159
f 3 159 164
f 3 164 170
f 3 170 169
f 3 169 171
f 3 171 178
f 3 178 183
f 3 183 191
f 3 191 196
f 3 196 201
f 3 201 208
f 3 208 213
f 3 213 221
f 3 221 220
f 3 220 219
f 3 219 218
f 3 218 226
f 3 226 233
f 3 233 241
f 3 241 237
f 3 237 244
f 3 244 245
f 3 245 249
f 3 249 258
f 3 258 252
f 3 252 251
f 3 251 260
f 3 260 270
f 3 270 276
f 3 276 279
f 3 279 285
f 3 285 289
f 3 289 288
f 3 288 295
f 3 295 306
f 3 306 305
f 3 305 304
f 3 304 303
f 3 303 311
f 3 311 310
f 3 310 315
f 3 315 319
f 3 319 330
f 3 330 337
f 3 337 344
f 3 344 343
f 3 343 350
f 3 350 357
f 3 357 365
f 3 365 364
f 3 364 371
f 3 371 369
f 3 369 377
f 3 377 384
f 3 384 394
f 3 394 393
f 3 393 399
f 3 399 404
f 3 404 410
f 3 410 417
f 3 417 422
f 3 422 423
f 3 423 430
f 3 430 435
f 3 435 442
f 3 442 446
f 3 446 452
f 3 452 458
f 3 458 465
f 3 465 470
f 3 470 469
f 3 469 474
f 3 474 479
f 3 479 486
f 3 486 495
f 3 495 502
f 3 502 507
f 3 507 516
f 3 516 523
f 3 523 529
f 3 529 534
f 3 534 542
f 3 542 541
f 3 541 547
f 3 547 554
f 3 554 560
f 3 560 566
f 3 566 570
f 3 570 577
f 3 577 576
f 3 576 583
f 3 583 588
f 3 588 594
f 3 594 593
f 3 593 601
f 3 601 600
f 3 600 607
f 3 607 613
f 3 613 608
f 3 608 602
f 3 602 595
f 3 595 589
f 3 589 584
f 3 584 579
f 3 579 578
f 3 578 572
f 3 572 567
f 3 567 561
f 3 561 555
f 3 555 550
f 3 550 549
f 3 549 548
f 3 548 543
f 3 543 536
f 3 536 531
f 3 531 530
f 3 530 525
f 3 525 524
f 3 524 517
f 3 517 508
f 3 508 503
f 3 503 496
f 3 496 490
f 3 490 483
f 3 483 476
f 3 476 471
f 3 471 466
f 3 466 460
f 3 460 455
f 3 455 454
f 3 454 453
f 3 453 447
f 3 447 443
f 3 443 437
f 3 437 431
f 3 431 424
f 3 424 418
f 3 418 412
f 3 412 411
f 3 411 405
f 3 405 401
f 3 401 396
f 3 396 388
f 3 388 387
f 3 387 395
f 3 395 385
f 3 385 379
f 3 379 374
f 3 374 378
f 3 378 372
f 3 372 366
f 3 366 358
f 3 358 352
f 3 352 346
f 3 346 345
f 3 345 340
f 3 340 339
f 3 339 338
f 3 338 331
f 3 331 323
f 3 323 322
f 3 322 326
f 3 326 321
f 3 321 316
f 3 316 312
f 3 312 307
f 3 307 298
f 3 298 291
f 3 291 283
f 3 283 290
f 3 290 281
f 3 281 277
f 3 277 273
f 3 273 271
f 3 271 261
f 3 261 256
f 3 256 254
f 3 254 247
f 3 247 242
f 3 242 234
f 3 234 229
f 3 229 223
f 3 223 216
f 3 216 209
f 3 209 203
f 3 203 202
f 3 202 197
f 3 197 193
f 3 193 192
f 3 192 185
f 3 185 179
f 3 179 172
f 3 172 166
f 3 166 165
f 3 165 160
f 3 160 155
f 3 155 148
f 3 148 144
f 3 144 136
f 3 136 129
f 3 129 124
f 3 124 117
f 3 117 108
f 3 108 103
f 3 103 96
f 3 96 95
f 3 95 89
f 3 89 82
f 3 82 78
f 3 78 71
f 3 71 64
f 3 64 59
f 3 59 54
f 3 54 48
f 3 48 47
f 3 47 42
f 3 42 38
f 3 38 37
f 3 37 32
f 3 32 31
f 3 31 25
f 3 25 19
f 3 19 14
f 3 14 9
f 4 9 10
f 4 10 5
f 6 11 12
f 6 12 7
f 7 12 13
f 7 13 8
f 9 14 15
f 9 15 10
f 10 15 16
f 11 17 12
f 12 17 13
f 13 17 18
f 14 19 20
f 14 20 15
f 15 20 21
f 15 21 16
f 17 22 18
f 17 23 22
f 18 22 23
f 18 23 24
f 19 25 20
f 20 25 26
f 20 26 27
f 23 28 29
f 23 29 30
f 23 30 24
f 25 31 27
f 25 27 26
f 27 31 32
f 27 32 33
f 27 33 34
f 28 35 36
f 28 36 29
f 29 36 30
f 32 37 33
f 33 37 38
f 33 38 34
f 34 38 39
f 35 40 36
f 36 40 41
f 38 42 43
f 38 43 39
f 40 44 45
f 40 45 46
f 40 46 41
f 42 47 43
f 43 47 48
f 43 48 49
f 43 49 50
f 44 51 45
f 45 51 52
f 45 52 53
f 48 54 55
f 48 55 49
f 49 55 50
f 52 56 53
f 52 57 56
f 53 56 58
f 54 59 60
f 54 60 55
f 55 60 61
f 56 57 62
f 56 62 58
f 58 62 63
f 59 64 60
f 60 64 65
f 60 65 61
f 62 66 63
f 63 66 67
f 63 67 68
f 63 68 69
f 64 70 65
f 64 71 70
f 68 72 73
f 68 73 74
f 68 74 75
f 68 75 76
f 68 76 69
f 70 71 77
f 71 78 79
f 71 79 77
f 72 80 73
f 73 80 81
f 73 81 74
f 78 82 79
f 79 82 83
f 80 84 81
f 81 84 86
f 81 86 87
f 81 87 88
f 81 88 85
f 82 89 83
f 83 89 90
f 83 90 91
f 85 88 92
f 88 93 94
f 88 94 92
f 89 95 90
f 90 95 91
f 91 95 96
f 91 96 97
f 92 94 98
f 93 99 100
f 93 100 94
f 94 101 98
f 94 100 102
f 94 102 101
f 96 103 104
f 96 104 105
f 96 105 97
f 99 106 107
f 99 107 100
f 100 107 102
f 103 108 109
f 103 109 110
f 103 110 111
f 103 111 104
f 104 111 112
f 104 112 105
f 106 113 107
f 107 113 114
f 107 114 115
f 107 115 116
f 108 117 109
f 109 118 120
f 109 120 110
f 109 117 119
f 109 119 118
f 110 120 112
f 110 112 111
f 114 121 115
f 115 121 122
f 115 122 116
f 117 123 119
f 117 124 123
f 119 123 125
f 121 126 127
f 121 127 122
f 123 124 128
f 123 128 125
f 124 129 130
f 124 130 131
f 124 131 128
f 126 132 133
f 126 133 127
f 127 133 134
f 127 134 135
f 129 136 130
f 130 137 131
f 130 136 138
f 130 138 137
f 132 134 133
f 134 139 140
f 134 140 135
f 135 140 141
f 135 141 142
f 135 142 143
f 136 144 145
f 136 145 138
f 139 141 140
f 142 146 147
f 142 147 143
f 144 148 149
f 144 149 150
f 144 150 145
f 146 151 147
f 147 151 152
f 147 152 153
f 147 153 154
f 148 155 149
f 149 156 150
f 149 155 157
f 149 157 156
f 152 158 159
f 152 159 153
f 153 159 154
f 155 160 157
f 157 160 161
f 158 162 159
f 159 162 163
f 159 163 164
f 160 165 161
f 161 165 166
f 161 166 167
f 162 168 163
f 163 169 170
f 163 170 164
f 163 168 171
f 163 171 169
f 166 172 173
f 166 173 174
f 166 174 167
f 168 175 171
f 171 175 176
f 171 176 177
f 171 177 178
f 172 179 173
f 173 179 180
f 173 180 174
f 176 181 182
f 176 182 177
f 177 182 183
f 177 183 178
f 179 184 180
f 179 185 186
f 179 186 187
f 179 187 184
f 181 188 182
f 182 188 189
f 182 189 190
f 182 190 191
f 182 191 183
f 185 192 186
f 186 192 193
f 186 193 187
f 187 193 194
f 189 195 190
f 190 195 196
f 190 196 191
f 193 197 198
f 193 198 199
f 193 199 194
f 195 200 196
f 196 200 201
f 197 202 198
f 198 202 203
f 198 203 204
f 198 204 199
f 199 204 205
f 200 206 207
f 200 207 201
f 201 207 208
f 203 209 210
f 203 210 204
f 204 211 205
f 204 210 211
f 206 212 207
f 207 213 208
f 207 212 213
f 209 214 215
f 209 215 210
f 209 216 214
f 210 215 214
f 212 217 218
f 212 218 219
f 212 219 220
f 212 220 221
f 212 221 213
f 214 216 222
f 216 223 224
f 216 224 222
f 217 225 218
f 218 225 227
f 218 227 228
f 218 228 226
f 223 229 230
f 223 230 224
f 224 230 231
f 226 228 232
f 226 232 233
f 227 232 228
f 229 234 230
f 230 235 231
f 230 234 236
f 230 236 235
f 232 237 238
f 232 238 233
f 232 239 240
f 232 240 237
f 233 238 241
f 234 242 236
f 236 242 243
f 237 241 238
f 237 240 244
f 239 245 240
f 239 246 245
f 240 245 244
f 242 247 243
f 243 247 248
f 245 246 249
f 246 250 251
f 246 251 252
f 246 252 253
f 246 253 249
f 247 254 255
f 247 255 248
f 248 255 256
f 248 256 257
f 249 253 258
f 250 259 260
f 250 260 251
f 252 258 253
f 254 256 255
f 256 261 262
f 256 262 257
f 257 262 264
f 257 264 263
f 259 265 260
f 259 266 265
f 260 265 267
f 260 267 268
f 260 268 269
f 260 269 270
f 261 271 264
f 261 264 262
f 263 264 272
f 264 273 274
f 264 274 272
f 264 271 273
f 265 266 267
f 268 275 270
f 268 270 269
f 270 275 276
f 273 277 274
f 274 277 278
f 275 279 276
f 275 280 279
f 277 281 278
f 278 281 282
f 278 282 283
f 278 283 284
f 279 280 285
f 280 286 294
f 280 294 287
f 280 287 288
f 280 288 289
f 280 289 285
f 281 290 282
f 282 290 283
f 283 291 292
f 283 292 284
f 286 293 294
f 287 294 295
f 287 295 288
f 291 296 297
f 291 297 292
f 291 298 299
f 291 299 300
f 291 300 301
f 291 301 296
f 293 302 303
f 293 303 304
f 293 304 305
f 293 305 306
f 293 306 295
f 293 295 294
f 296 301 297
f 298 307 308
f 298 308 300
f 298 300 299
f 302 309 310
f 302 310 311
f 302 311 303
f 307 312 313
f 307 313 308
f 309 314 315
f 309 315 310
f 312 316 313
f 313 316 317
f 314 318 319
f 314 319 320
f 314 320 315
f 315 320 319
f 316 321 317
f 317 322 323
f 317 323 324
f 317 324 325
f 317 321 326
f 317 326 322
f 318 327 328
f 318 328 319
f 319 328 327
f 319 327 329
f 319 329 330
f 323 331 332
f 323 332 324
f 324 332 333
f 324 333 325
f 329 334 330
f 330 334 335
f 330 335 336
f 330 336 337
f 331 338 333
f 331 333 332
f 333 338 339
f 333 339 340
f 333 340 341
f 335 342 343
f 335 343 344
f 335 344 336
f 336 344 337
f 340 345 341
f 341 345 346
f 341 346 347
f 342 348 349
f 342 349 350
f 342 350 343
f 346 351 347
f 346 352 351
f 347 351 352
f 347 352 353
f 348 354 349
f 349 354 355
f 349 355 356
f 349 356 365
f 349 365 357
f 349 357 350
f 352 358 359
f 352 359 360
f 352 360 361
f 352 361 353
f 353 361 362
f 355 363 364
f 355 364 356
f 356 364 365
f 358 366 367
f 358 367 359
f 360 362 361
f 363 368 369
f 363 369 370
f 363 370 364
f 364 370 371
f 366 372 373
f 366 373 367
f 367 373 374
f 367 374 375
f 368 376 377
f 368 377 369
f 369 371 370
f 372 378 373
f 373 378 374
f 374 379 380
f 374 380 375
f 375 380 381
f 376 382 383
f 376 383 384
f 376 384 377
f 379 385 380
f 380 385 381
f 381 385 386
f 381 386 387
f 381 387 388
f 381 388 389
f 381 389 390
f 382 391 383
f 383 391 392
f 383 392 393
f 383 393 394
f 383 394 384
f 385 395 386
f 386 395 387
f 388 396 389
f 389 396 390
f 390 396 397
f 392 398 399
f 392 399 393
f 396 400 397
f 396 401 402
f 396 402 400
f 398 403 399
f 399 403 404
f 401 405 406
f 401 406 402
f 402 406 407
f 403 408 409
f 403 409 404
f 404 409 408
f 404 408 410
f 405 411 406
f 406 411 412
f 406 412 413
f 406 413 407
f 408 414 415
f 408 415 410
f 410 415 416
f 410 416 417
f 412 418 413
f 413 418 419
f 414 420 415
f 415 420 421
f 415 421 416
f 416 422 417
f 416 421 423
f 416 423 422
f 418 424 425
f 418 425 419
f 419 425 426
f 421 427 423
f 423 427 428
f 423 428 429
f 423 429 430
f 424 431 432
f 424 432 425
f 425 432 426
f 426 432 433
f 428 434 435
f 428 435 429
f 429 435 430
f 431 436 432
f 431 437 436
f 432 438 433
f 432 436 439
f 432 439 438
f 434 440 435
f 435 440 441
f 435 441 442
f 436 437 443
f 436 443 439
f 439 443 444
f 440 445 441
f 441 445 446
f 441 446 442
f 443 447 448
f 443 448 449
f 443 449 444
f 445 450 446
f 446 450 451
f 446 451 452
f 447 453 448
f 448 453 454
f 448 454 455
f 448 455 456
f 448 456 449
f 451 457 458
f 451 458 452
f 455 459 456
f 455 460 461
f 455 461 462
f 455 462 459
f 457 463 464
f 457 464 465
f 457 465 458
f 460 466 461
f 461 466 462
f 462 466 467
f 463 468 464
f 464 468 469
f 464 469 470
f 464 470 465
f 466 471 475
f 466 475 472
f 466 472 467
f 468 473 469
f 469 473 474
f 471 476 475
f 473 477 474
f 474 477 478
f 474 478 479
f 475 476 480
f 476 481 482
f 476 482 480
f 476 483 481
f 477 484 478
f 478 484 485
f 478 485 486
f 478 486 479
f 480 482 487
f 481 487 482
f 481 483 488
f 481 488 489
f 483 490 491
f 483 491 492
f 483 492 488
f 485 493 486
f 486 493 494
f 486 494 495
f 488 492 489
f 490 496 497
f 490 497 491
f 491 497 498
f 493 499 494
f 494 499 500
f 494 500 495
f 495 500 501
f 495 501 502
f 496 503 497
f 497 503 498
f 498 503 504
f 500 505 501
f 501 505 512
f 501 512 506
f 501 506 507
f 501 507 502
f 503 508 509
f 503 509 510
f 503 510 511
f 503 511 504
f 506 512 513
f 506 513 514
f 506 514 507
f 507 514 515
f 507 515 516
f 508 517 518
f 508 518 509
f 509 518 519
f 509 519 510
f 513 520 515
f 513 515 514
f 515 520 516
f 516 520 521
f 516 521 522
f 516 522 523
f 517 524 518
f 518 524 525
f 518 525 526
f 518 526 519
f 522 527 528
f 522 528 523
f 523 528 529
f 525 530 526
f 526 530 531
f 526 531 532
f 527 533 534
f 527 534 529
f 527 529 528
f 531 535 532
f 531 536 537
f 531 537 538
f 531 538 539
f 531 539 535
f 533 540 541
f 533 541 542
f 533 542 534
f 536 543 544
f 536 544 537
f 537 544 545
f 537 545 538
f 540 546 541
f 541 546 547
f 543 548 544
f 544 548 549
f 544 549 550
f 544 550 551
f 546 552 547
f 547 552 553
f 547 553 554
f 550 555 556
f 550 556 557
f 550 557 551
f 552 558 553
f 553 559 560
f 553 560 554
f 553 558 559
f 555 561 562
f 555 562 556
f 556 562 563
f 559 564 565
f 559 565 566
f 559 566 560
f 561 567 568
f 561 568 562
f 562 568 563
f 564 569 565
f 565 569 566
f 566 569 570
f 567 571 568
f 567 572 573
f 567 573 574
f 567 574 571
f 569 575 576
f 569 576 577
f 569 577 570
f 572 578 573
f 573 578 579
f 573 579 580
f 575 581 576
f 576 581 582
f 576 582 583
f 579 584 585
f 579 585 586
f 579 586 580
f 581 587 582
f 582 587 588
f 582 588 583
f 584 589 590
f 584 590 585
f 585 590 586
f 587 591 592
f 587 592 593
f 587 593 594
f 587 594 588
f 589 595 590
f 590 595 596
f 590 596 597
f 591 598 599
f 591 599 600
f 591 600 601
f 591 601 593
f 591 593 592
f 595 602 597
f 595 597 596
f 597 602 603
f 597 603 604
f 598 605 599
f 599 605 606
f 599 606 607
f 599 607 600
f 602 608 609
f 602 609 603
f 603 609 610
f 603 610 604
f 606 611 612
f 606 612 607
f 607 612 613
f 608 614 609
f 608 613 615
f 608 615 614
f 609 614 610
f 611 615 612
f 612 615 613

