# https://github.com/mikedh/trimesh
v 0.48578407 -0.45199592 -0.95009676
v -0.58620032 -0.45199592 -0.95009676
v 0.48578407 -0.59495538 -0.95009676
v 0.48578407 -0.45199592 -2.02224783
v -0.58620032 -0.59495538 -0.95009676
v -0.58620032 -0.45199592 -1.68409149
v 0.48578407 -0.59495538 -1.43888083
v 0.48578407 -0.46019701 -2.02249970
v 0.03510149 -0.45199592 -2.23660268
v -0.58620032 -0.59495538 -1.40021634
v -0.48903343 -0.45199592 -1.95915050
v -0.50592739 -0.47178491 -2.00826827
v -0.56867668 -0.55326412 -2.00197113
v -0.58242281 -0.59495538 -2.01053530
v -0.58557075 -0.59495538 -1.95776522
v 0.45902646 -0.59495538 -1.67792029
v 0.48578407 -0.51466574 -1.99579993
v 0.48578407 -0.49181184 -2.01834366
v 0.17571026 -0.59495538 -2.02993046
v 0.17298203 -0.59495538 -2.03030826
v -0.03520289 -0.45199592 -2.23660268
v 0.48578407 -0.51157286 -2.01003136
v 0.23174390 -0.59495538 -2.01204652
v -0.46311524 -0.45199592 -2.02048475
v -0.52733352 -0.59495538 -2.02527047
v 0.45829191 -0.59495538 -1.68056512
v 0.43604633 -0.59495538 -1.74315872
v 0.29764113 -0.59495538 -1.94416325
v 0.26721089 -0.59495538 -1.98093862
v 0.23331787 -0.59495538 -2.01103904
v 0.43457729 -0.59495538 -1.74605521
v 0.41778815 -0.59495538 -1.77565189
v 0.38767272 -0.59495538 -1.82073935
v 0.35808193 -0.59495538 -1.86242658
v 0.34003362 -0.59495538 -1.88761514
v 0.33793499 -0.59495538 -1.89051184
f 1 2 5
f 1 5 3
f 1 3 7
f 1 7 17
f 1 17 22
f 1 22 18
f 1 18 8
f 1 8 4
f 1 4 9
f 1 9 21
f 1 21 24
f 1 24 11
f 1 11 6
f 1 6 2
f 2 6 10
f 2 10 5
f 3 5 10
f 3 10 15
f 3 15 14
f 3 14 25
f 3 25 20
f 3 20 19
f 3 19 23
f 3 23 30
f 3 30 29
f 3 29 28
f 3 28 36
f 3 36 35
f 3 35 34
f 3 34 33
f 3 33 32
f 3 32 31
f 3 31 27
f 3 27 26
f 3 26 16
f 3 16 7
f 4 8 9
f 6 11 12
f 6 12 13
f 6 13 14
f 6 14 15
f 6 15 10
f 7 16 17
f 8 18 9
f 9 19 20
f 9 20 21
f 9 18 22
f 9 22 23
f 9 23 19
f 11 24 12
f 12 24 21
f 12 21 14
f 12 14 13
f 14 21 25
f 16 26 17
f 17 26 27
f 17 27 22
f 20 25 21
f 22 28 29
f 22 29 30
f 22 30 23
f 22 27 31
f 22 31 32
f 22 32 33
f 22 33 34
f 22 34 35
f 22 35 36
f 22 36 28

