# https://github.com/mikedh/trimesh
v 1.02445891 -0.89384103 2.43889542
v 1.02445891 -0.89384103 2.39774273
v 0.98225380 -0.89384103 2.43889542
v 1.02445891 -1.78221554 2.43889542
v 0.82893216 -1.28751014 2.18624205
v 0.77395020 -1.20661121 2.18624205
v 1.01575299 -0.89384103 2.40251588
v 1.02445891 -1.59934912 2.18624205
v 0.77395020 -1.12047427 2.43889542
v 1.02100106 -1.78431075 2.43889542
v 1.02445891 -1.81026833 2.40303533
v 0.77395020 -2.08288010 2.18624205
v 1.02445891 -1.97218248 2.18624205
v 0.77395020 -1.90548460 2.43889542
v 0.99201414 -1.80083980 2.43889542
v 0.97148788 -1.82179206 2.42704920
v 1.00444760 -1.83925210 2.38018379
v 1.02445891 -1.83354859 2.37259126
v 0.80399164 -2.07228756 2.18624205
v 0.77395020 -2.08066839 2.18953123
v 1.02445891 -1.95611903 2.20820326
v 1.01948063 -1.95774864 2.20958833
v 1.02288934 -1.97299718 2.18624205
v 0.77395020 -1.96391796 2.35832128
v 0.77998306 -1.90315659 2.43889542
v 0.96690196 -1.81492434 2.43889542
v 0.93411396 -1.83075498 2.43889542
v 0.94850925 -1.85100863 2.40219444
v 0.94917140 -1.88825714 2.35102567
v 0.99409866 -1.90315659 2.30121704
v 1.01832794 -1.92061663 2.26097963
v 1.02445891 -1.89535767 2.29100315
v 0.83400856 -2.06018194 2.18624205
v 0.81120160 -2.06460494 2.19371095
v 0.78949818 -2.04516598 2.23335494
v 0.77395020 -2.06122943 2.21797208
v 1.02445891 -1.91258491 2.26758270
v 1.01948063 -1.97474329 2.18624205
v 0.83638733 -2.03597026 2.22017310
v 0.80857756 -1.95635183 2.34790958
v 0.78474065 -1.90106118 2.43889542
v 0.82795124 -1.89093446 2.42519434
v 0.88438002 -1.88208782 2.40108157
v 0.86458951 -1.90816170 2.37830420
v 0.85097890 -1.97206598 2.29931293
v 0.95414968 -1.95192862 2.26021292
v 0.98088047 -1.96706087 2.22207742
v 0.87888679 -2.04097557 2.18624205
v 0.96756411 -1.99930385 2.18624205
v 0.87888679 -2.02619263 2.20674422
v 0.80614971 -1.91875423 2.40108157
v 0.93570794 -2.01431959 2.18624205
f 1 2 7
f 1 7 3
f 1 3 9
f 1 9 14
f 1 14 25
f 1 25 41
f 1 41 27
f 1 27 26
f 1 26 15
f 1 15 10
f 1 10 4
f 1 4 11
f 1 11 18
f 1 18 32
f 1 32 37
f 1 37 21
f 1 21 13
f 1 13 8
f 1 8 2
f 2 5 6
f 2 6 7
f 2 8 5
f 3 7 6
f 3 6 9
f 4 10 11
f 5 8 13
f 5 13 23
f 5 23 38
f 5 38 49
f 5 49 52
f 5 52 48
f 5 48 33
f 5 33 19
f 5 19 12
f 5 12 6
f 6 12 20
f 6 20 36
f 6 36 24
f 6 24 14
f 6 14 9
f 10 15 16
f 10 16 11
f 11 16 17
f 11 17 18
f 12 19 20
f 13 21 22
f 13 22 23
f 14 24 25
f 15 26 16
f 16 26 27
f 16 27 28
f 16 28 29
f 16 29 30
f 16 30 31
f 16 31 32
f 16 32 17
f 17 32 18
f 19 33 34
f 19 34 35
f 19 35 36
f 19 36 20
f 21 37 22
f 22 38 23
f 22 37 31
f 22 31 30
f 22 30 38
f 24 36 35
f 24 35 34
f 24 34 39
f 24 39 40
f 24 40 25
f 25 40 41
f 27 41 42
f 27 42 43
f 27 43 28
f 28 43 44
f 28 44 29
f 29 44 45
f 29 45 46
f 29 46 47
f 29 47 30
f 30 47 38
f 31 37 32
f 33 48 39
f 33 39 34
f 38 47 49
f 39 48 50
f 39 50 45
f 39 45 40
f 40 45 51
f 40 51 41
f 41 51 42
f 42 51 44
f 42 44 43
f 44 51 45
f 45 50 47
f 45 47 46
f 47 50 52
f 47 52 49
f 48 52 50

