# https://github.com/mikedh/trimesh
v -1.48751370 -0.59497052 -1.96666088
v -1.48611732 -0.59870738 -1.96666088
v -1.49070544 -0.59497052 -1.96222698
v -1.16206228 -0.59497052 -1.96666088
v -1.51115207 -0.59497052 -1.93378026
v -1.46267843 -0.65566839 -1.96666088
v -1.48531938 -0.65447322 -1.93637083
v -1.53967769 -0.68535167 -1.84385659
v -1.70035869 -0.73825806 -1.59057628
v -1.75850718 -0.74949897 -1.50329304
v -1.66654687 -0.66967792 -1.67576683
v -1.71242723 -0.66967792 -1.61174940
v -1.64051480 -0.59802658 -1.75159171
v -1.13952106 -0.59497052 -1.95714539
v -1.13892261 -0.59524282 -1.96666088
v -1.67831619 -0.59497052 -1.70047722
v -1.47574439 -0.70132795 -1.92296939
v -1.45519801 -0.67315762 -1.96666088
v -1.69796500 -0.74949897 -1.58728815
v -1.74374561 -0.74949897 -1.52381846
v -1.77416622 -0.74949897 -1.48042620
v -1.81306487 -0.67400484 -1.46777199
v -1.76439174 -0.71990647 -1.51146348
v -1.67781748 -0.59764835 -1.69972999
v -1.77466493 -0.66795323 -1.52581141
v -0.95679755 -0.59497052 -1.81331760
v -0.88059623 -0.59497052 -1.75303650
v -0.87720506 -0.59497052 -1.75029633
v -1.06990259 -0.74949897 -1.96666088
v -1.75681157 -0.63052384 -1.57129616
v -1.70285224 -0.59764835 -1.66460749
v -1.75162500 -0.59497052 -1.59730172
v -1.45160730 -0.68044982 -1.96666088
v -1.42557523 -0.73240311 -1.96666088
v -1.42856738 -0.73650310 -1.95983570
v -1.42557523 -0.74949897 -1.95435556
v -1.78164685 -0.74949897 -1.46931631
v -1.78324271 -0.74129903 -1.47185721
v -1.79820356 -0.72781902 -1.45770855
v -1.82323831 -0.66554770 -1.45770855
v -1.82054529 -0.61062908 -1.49168528
v -0.87371415 -0.59497052 -1.74685880
v -0.82763431 -0.59497052 -1.67800871
v -0.90204028 -0.64011570 -1.63317166
v -1.08077423 -0.74949897 -1.67795905
v -1.41619962 -0.74949897 -1.96666088
v -1.76339432 -0.59497052 -1.58071190
v -1.74145156 -0.60330665 -1.60731550
v -1.42158556 -0.73975587 -1.96666088
v -1.41989006 -0.74285729 -1.96666088
v -1.78793037 -0.74949897 -1.45770855
v -1.83979523 -0.61904086 -1.45770855
v -1.84218882 -0.59497052 -1.46647681
v -1.83839885 -0.59497052 -1.47225576
v -1.82313857 -0.59497052 -1.49542161
v -0.83421716 -0.59497052 -1.65015981
v -1.03429542 -0.71541317 -1.62933558
v -1.08117320 -0.74949897 -1.67432225
v -0.86264303 -0.59497052 -1.62280920
v -1.28883172 -0.74949897 -1.45770855
v -1.84657746 -0.59497052 -1.45770855
v -1.10461208 -0.74949897 -1.62265980
v -1.10062252 -0.74949897 -1.62729297
v -1.28813353 -0.66889119 -1.45770855
v -1.28803379 -0.72899905 -1.45770855
v -1.37470789 -0.59497052 -1.45770855
v -1.37211461 -0.59615060 -1.45770855
v -1.36064452 -0.60220221 -1.45770855
f 1 2 3
f 1 3 5
f 1 5 16
f 1 16 32
f 1 32 47
f 1 47 55
f 1 55 54
f 1 54 53
f 1 53 61
f 1 61 66
f 1 66 59
f 1 59 56
f 1 56 43
f 1 43 42
f 1 42 28
f 1 28 27
f 1 27 26
f 1 26 14
f 1 14 4
f 1 4 15
f 1 15 29
f 1 29 46
f 1 46 50
f 1 50 49
f 1 49 34
f 1 34 33
f 1 33 18
f 1 18 6
f 1 6 2
f 2 5 3
f 2 6 7
f 2 7 8
f 2 8 9
f 2 9 10
f 2 10 11
f 2 11 12
f 2 12 13
f 2 13 5
f 4 14 15
f 5 13 16
f 6 17 7
f 6 18 17
f 7 17 8
f 8 17 9
f 9 19 20
f 9 20 10
f 9 17 19
f 10 20 19
f 10 19 36
f 10 36 46
f 10 46 29
f 10 29 45
f 10 45 58
f 10 58 63
f 10 63 62
f 10 62 60
f 10 60 51
f 10 51 37
f 10 37 21
f 10 21 22
f 10 22 23
f 10 23 11
f 11 23 12
f 12 24 13
f 12 23 25
f 12 25 24
f 13 24 16
f 14 26 15
f 15 26 27
f 15 27 28
f 15 28 29
f 16 24 30
f 16 30 31
f 16 31 32
f 17 18 33
f 17 33 34
f 17 34 35
f 17 35 36
f 17 36 19
f 21 37 38
f 21 38 22
f 22 39 40
f 22 40 41
f 22 41 25
f 22 25 23
f 22 38 39
f 24 25 30
f 25 41 30
f 28 42 29
f 29 42 43
f 29 43 44
f 29 44 45
f 30 41 47
f 30 47 48
f 30 48 31
f 31 48 32
f 32 48 47
f 34 49 35
f 35 49 50
f 35 50 36
f 36 50 46
f 37 51 39
f 37 39 38
f 39 51 60
f 39 60 65
f 39 65 64
f 39 64 68
f 39 68 67
f 39 67 66
f 39 66 61
f 39 61 52
f 39 52 40
f 40 52 41
f 41 52 53
f 41 53 54
f 41 54 55
f 41 55 47
f 43 56 44
f 44 57 58
f 44 58 45
f 44 56 59
f 44 59 60
f 44 60 57
f 52 61 53
f 57 60 62
f 57 62 63
f 57 63 58
f 59 64 65
f 59 65 60
f 59 66 67
f 59 67 68
f 59 68 64

