# https://github.com/mikedh/trimesh
v 0.07647004 1.18722171 -2.52463586
v 0.14573994 1.18722171 -2.52463586
v -0.10546112 1.18722171 -2.52426350
v -0.03513401 1.22568640 -2.51606939
v 0.03519309 1.22568640 -2.51606939
v 0.10547422 1.22345856 -2.51560378
v 0.21404456 1.18722171 -2.52277366
v -0.11281558 1.18722171 -2.52398419
v -0.10546112 1.22345856 -2.51560378
v -0.03513401 1.26080922 -2.47928962
v 0.03519309 1.26080922 -2.47928962
v 0.10547422 1.25864685 -2.47593758
v 0.17575537 1.21952682 -2.51364855
v 0.28064847 1.18722171 -2.51727991
v -0.11644685 1.18722171 -2.52379790
v -0.11644685 1.22286870 -2.51532467
v -0.10546112 1.25864685 -2.47593758
v -0.10546112 1.28210575 -2.44083373
v -0.03513401 1.31945652 -2.39148357
v 0.03519309 1.31945652 -2.39148357
v 0.10547422 1.28210575 -2.44083373
v 0.15842639 1.33839394 -2.34948937
v 0.17575537 1.25471523 -2.47025754
v 0.17575537 1.70200684 -1.80533428
v 0.17575537 1.67848246 -1.84043813
v 0.21808951 1.75895036 -1.71492112
v 0.21546949 1.61800041 -1.92535754
v 0.24608246 1.21336725 -2.50908600
v 0.34775798 1.18722171 -2.50564072
v -0.11644685 1.18722171 -2.24212954
v -0.11644685 1.25799162 -2.47509942
v -0.11644685 1.26172669 -2.46960587
v -0.11644685 1.32161888 -2.38012370
v -0.11644685 1.34022879 -2.35228297
v -0.11644685 1.62586377 -1.92489193
v -0.10546112 1.34075295 -2.35302769
v -0.03513401 1.48366872 -2.14557095
v 0.10547422 1.34075295 -2.35302769
v 0.03519309 1.48366872 -2.14557095
v 0.20531112 1.33511755 -2.34464749
v 0.24608246 1.24855555 -2.46131871
v 0.21110277 1.47659177 -2.13495600
v 0.10547422 1.62212869 -1.93159621
v 0.03519309 1.60083215 -1.97005210
v 0.17575537 1.85658663 -1.57348189
v 0.22309974 1.85173763 -1.57348189
v 0.24566877 1.84937861 -1.57348189
v 0.24608246 1.83902517 -1.58884547
v 0.24608246 1.81536961 -1.62404236
v 0.31636361 1.83738697 -1.57348189
v 0.31636361 1.83306204 -1.57990664
v 0.31636361 1.80921014 -1.61510353
v 0.35313594 1.82958910 -1.57478523
v 0.24608246 1.55607682 -2.00804239
v 0.31636361 1.20537282 -2.49996088
v 0.35313594 1.20026169 -2.49325661
v 0.35313594 1.18722171 -2.50396459
v -0.10435794 1.18722171 -1.67795507
v -0.11644685 1.34848524 -1.67991051
v -0.11644685 1.65266454 -1.88131485
v -0.03513401 1.62402892 -1.93485521
v -0.10546112 1.62212869 -1.93159621
v -0.03513401 1.60083215 -1.97005210
v 0.29080683 1.26788627 -2.41951079
v 0.31636361 1.49041816 -2.08504720
v 0.29751776 1.40936039 -2.20981929
v 0.34440251 1.40483901 -2.20320826
v 0.03519309 1.62402892 -1.93485521
v -0.11644685 1.68870473 -1.80840700
v -0.11644685 1.79997062 -1.57348189
v 0.35313594 1.83037550 -1.57348189
v 0.35313594 1.68765629 -1.78391830
v 0.34872326 1.54624765 -1.99360980
v 0.31512252 1.24351000 -2.44623424
v 0.33769155 1.26225086 -2.41131688
v 0.35313594 1.25989185 -2.40796464
v 0.35313594 1.18722171 -2.13039344
v -0.09093605 1.18722171 -1.62003844
v -0.11644685 1.45385369 -1.57348189
v 0.35313594 1.54572348 -1.99286488
v 0.35313594 1.40359402 -2.20143910
v 0.35313594 1.42620103 -1.57348189
v 0.35313594 1.22614509 -2.03262433
v 0.22981070 1.18722171 -1.93438961
v -0.03513401 1.18722171 -1.61901420
v -0.10628849 1.45136361 -1.57348189
v 0.00090287 1.18722171 -1.64182698
v 0.01202651 1.18722171 -1.65560789
v 0.20108230 1.18722171 -1.89490948
v 0.21730809 1.18722171 -1.91651174
v 0.35313594 1.25347013 -1.96744478
f 1 2 7
f 1 7 14
f 1 14 29
f 1 29 57
f 1 57 77
f 1 77 84
f 1 84 90
f 1 90 89
f 1 89 88
f 1 88 87
f 1 87 85
f 1 85 78
f 1 78 58
f 1 58 30
f 1 30 15
f 1 15 8
f 1 8 3
f 1 3 4
f 1 4 5
f 1 5 2
f 2 5 6
f 2 6 7
f 3 8 9
f 3 9 4
f 4 9 10
f 4 10 11
f 4 11 5
f 5 11 6
f 6 11 12
f 6 12 13
f 6 13 7
f 7 13 14
f 8 15 16
f 8 16 9
f 9 16 17
f 9 17 10
f 10 17 18
f 10 18 36
f 10 36 19
f 10 19 20
f 10 20 11
f 11 20 38
f 11 38 21
f 11 21 12
f 12 22 23
f 12 23 13
f 12 21 24
f 12 24 25
f 12 25 26
f 12 26 27
f 12 27 22
f 13 23 28
f 13 28 14
f 14 28 29
f 15 30 59
f 15 59 79
f 15 79 70
f 15 70 69
f 15 69 60
f 15 60 35
f 15 35 34
f 15 34 33
f 15 33 32
f 15 32 31
f 15 31 16
f 16 31 17
f 17 31 32
f 17 32 33
f 17 33 34
f 17 34 35
f 17 35 18
f 18 35 36
f 19 36 37
f 19 37 39
f 19 39 20
f 20 39 38
f 21 38 24
f 22 27 23
f 23 40 41
f 23 41 28
f 23 27 42
f 23 42 40
f 24 26 25
f 24 38 43
f 24 43 44
f 24 44 45
f 24 45 26
f 26 45 46
f 26 46 47
f 26 47 48
f 26 48 27
f 27 48 49
f 27 49 50
f 27 50 51
f 27 51 52
f 27 52 53
f 27 53 54
f 27 54 41
f 27 41 42
f 28 55 29
f 28 41 55
f 29 55 56
f 29 56 57
f 30 58 59
f 35 60 61
f 35 61 62
f 35 62 36
f 36 62 37
f 37 63 44
f 37 44 39
f 37 62 63
f 38 39 43
f 39 44 43
f 40 42 41
f 41 64 55
f 41 54 53
f 41 53 65
f 41 65 66
f 41 66 67
f 41 67 64
f 44 63 61
f 44 61 68
f 44 68 45
f 45 68 61
f 45 61 60
f 45 60 69
f 45 69 70
f 45 70 79
f 45 79 86
f 45 86 82
f 45 82 71
f 45 71 50
f 45 50 47
f 45 47 46
f 47 50 48
f 48 50 49
f 50 71 53
f 50 53 51
f 51 53 52
f 53 71 82
f 53 82 91
f 53 91 83
f 53 83 77
f 53 77 57
f 53 57 56
f 53 56 76
f 53 76 81
f 53 81 80
f 53 80 72
f 53 72 73
f 53 73 65
f 55 64 74
f 55 74 75
f 55 75 56
f 56 75 76
f 58 78 79
f 58 79 59
f 61 63 62
f 64 67 74
f 65 73 67
f 65 67 66
f 67 73 80
f 67 80 81
f 67 81 75
f 67 75 74
f 72 80 73
f 75 81 76
f 77 83 84
f 78 85 86
f 78 86 79
f 82 86 85
f 82 85 87
f 82 87 88
f 82 88 89
f 82 89 90
f 82 90 84
f 82 84 91
f 83 91 84

