# https://github.com/mikedh/trimesh
v -2.49555378 0.27118825 1.23259663
v -2.48580151 0.25690239 1.23259663
v -2.56628136 0.00044588 1.28739298
v -2.60574661 0.00044588 1.30423771
v -2.60574661 0.10548278 1.30423771
v -2.60428841 0.17577243 1.30623338
v -2.56691941 0.27118825 1.28570177
v -1.90494230 0.27118825 1.23259663
v -2.28510291 0.00044588 1.23259663
v -2.60802516 0.00044588 1.32507388
v -2.61021278 0.10548278 1.34543649
v -2.60729617 0.17577243 1.34543649
v -2.60237425 0.21828547 1.30890556
v -2.59562974 0.27118825 1.34543649
v -1.91296292 0.27118825 1.25992713
v -1.67936149 0.24160935 1.23259663
v -1.92116584 0.00044588 1.23259663
v -2.61021278 0.00044588 1.34543649
v -2.61039508 0.10548278 1.41572456
v -2.60738732 0.17577243 1.41572456
v -2.60292115 0.22239367 1.34543649
v -2.59599434 0.27118825 1.36174008
v -2.02980932 0.27118825 1.57811773
v -1.67936149 0.23421461 1.24227053
v -1.67936149 0.03961937 1.23259663
v -1.67936149 0.01669307 1.26111104
v -1.67936149 0.00707197 1.27345711
v -1.67936149 0.00044588 1.28198095
v -2.61039508 0.00044588 1.41572456
v -2.61039508 0.10548278 1.48604646
v -2.60738732 0.17577243 1.48604646
v -2.60292115 0.22281772 1.41572456
v -2.59854635 0.25798908 1.41572456
v -2.59681470 0.27118825 1.41572456
v -2.02753077 0.00044588 1.57811773
v -1.67936149 0.00044588 1.53661469
v -1.67936149 0.00685994 1.52961286
v -1.67936149 0.19591577 1.29131665
v -1.67936149 0.22361286 1.25613883
v -2.59654124 0.27118825 1.57811773
v -2.61039508 0.00044588 1.48604646
v -2.61021278 0.10548278 1.57811773
v -2.60930127 0.12724289 1.57811773
v -2.60729617 0.17577243 1.55633453
v -2.60292115 0.22281772 1.48604646
v -2.60292115 0.22236716 1.55633453
v -2.59854635 0.25798908 1.48604646
v -2.59681470 0.27118825 1.50191033
v -2.61021278 0.00044588 1.57811773
v -2.59663239 0.27118825 1.57263811
v -2.59836404 0.25737947 1.57811773
v -2.60720502 0.17577243 1.57811773
v -2.60592891 0.19003179 1.57811773
v -2.60283021 0.22223465 1.57811773
f 1 2 3
f 1 3 4
f 1 4 5
f 1 5 6
f 1 6 7
f 1 7 14
f 1 14 22
f 1 22 34
f 1 34 48
f 1 48 50
f 1 50 40
f 1 40 23
f 1 23 15
f 1 15 8
f 1 8 16
f 1 16 25
f 1 25 17
f 1 17 9
f 1 9 2
f 2 9 3
f 3 9 17
f 3 17 28
f 3 28 36
f 3 36 35
f 3 35 49
f 3 49 41
f 3 41 29
f 3 29 18
f 3 18 10
f 3 10 4
f 4 10 5
f 5 10 11
f 5 11 6
f 6 11 12
f 6 12 13
f 6 13 7
f 7 13 14
f 8 15 16
f 10 18 11
f 11 18 29
f 11 29 19
f 11 19 12
f 12 20 21
f 12 21 13
f 12 19 20
f 13 21 14
f 14 21 22
f 15 23 16
f 16 24 39
f 16 39 38
f 16 38 37
f 16 37 36
f 16 36 28
f 16 28 27
f 16 27 26
f 16 26 25
f 16 23 24
f 17 25 26
f 17 26 27
f 17 27 28
f 19 29 41
f 19 41 30
f 19 30 31
f 19 31 20
f 20 31 45
f 20 45 32
f 20 32 21
f 21 32 33
f 21 33 34
f 21 34 22
f 23 35 36
f 23 36 37
f 23 37 38
f 23 38 39
f 23 39 24
f 23 40 51
f 23 51 54
f 23 54 53
f 23 53 52
f 23 52 43
f 23 43 42
f 23 42 49
f 23 49 35
f 30 41 49
f 30 49 42
f 30 42 43
f 30 43 44
f 30 44 31
f 31 44 46
f 31 46 45
f 32 45 47
f 32 47 33
f 33 47 48
f 33 48 34
f 40 50 51
f 43 52 44
f 44 52 53
f 44 53 46
f 45 46 47
f 46 54 51
f 46 51 50
f 46 50 47
f 46 53 54
f 47 50 48

