# https://github.com/mikedh/trimesh
v -2.08540109 -0.03514196 -0.79789286
v -2.08540109 0.03514196 -0.79789286
v -2.07968543 -0.03514196 -0.83420063
v -2.06784591 -0.10542587 -0.90450703
v -2.08458451 -0.10542587 -0.79789286
v -2.07968543 0.03514196 -0.83420063
v -2.08499290 0.07110116 -0.79789286
v -2.06784591 0.10542587 -0.90450703
v -2.06131367 -0.03514196 -0.95008178
v -2.06090548 -0.08049960 -0.95008178
v -2.06049709 -0.10542587 -0.95008178
v -2.05559801 -0.17570978 -0.95008178
v -2.07396976 -0.17570978 -0.83420063
v -2.07968543 -0.17570978 -0.79789286
v -2.06131367 0.03514196 -0.95008178
v -2.08458451 0.10542587 -0.79789286
v -2.08213497 0.14138508 -0.79789286
v -2.07396976 0.17570978 -0.83420063
v -2.05559801 0.17570978 -0.95008178
v -2.05886413 0.12994351 -0.95008178
v -2.06049709 0.10542587 -0.95008178
v -2.05396505 -0.24599369 -0.90450703
v -2.03600148 -0.33057956 -0.95008178
v -2.03763444 -0.34120389 -0.93148832
v -2.06172186 -0.31627759 -0.79789286
v -2.07968543 0.17570978 -0.79789286
v -2.06621275 0.28236153 -0.79789286
v -2.05396505 0.24599369 -0.90450703
v -2.03763444 0.34120389 -0.93148832
v -2.04375849 0.26928546 -0.95008178
v -2.03110240 -0.36040936 -0.95008178
v -2.02661151 -0.38697015 -0.95008178
v -2.04130895 -0.36449562 -0.88461746
v -2.05641459 -0.35060232 -0.79789286
v -2.06172186 0.31627759 -0.79789286
v -2.05641459 0.35264545 -0.79789286
v -2.04130895 0.36449562 -0.88461746
v -2.02661151 0.38697015 -0.95008178
v -2.03600148 0.33057956 -0.95008178
v -2.03355194 -0.38737878 -0.90663754
v -2.01068929 -0.45684545 -0.95008178
v -2.03681806 -0.41148779 -0.85730834
v -2.04498326 -0.38737878 -0.83400702
v -2.05069893 -0.38697015 -0.79789286
v -2.05069893 0.38697015 -0.79789286
v -2.04498326 0.38737878 -0.83400702
v -2.03681806 0.41148779 -0.85730834
v -2.03355194 0.38737878 -0.90663754
v -2.01068929 0.45684545 -0.95008178
v -1.99925796 -0.50220305 -0.95008178
v -2.04171714 -0.43273642 -0.79789286
v -2.04498326 -0.41761719 -0.79789286
v -2.04171714 0.43273642 -0.79789286
v -2.00456523 0.48136306 -0.95008178
v -2.03314354 -0.46665251 -0.79789286
v -1.97639531 -0.59169245 -0.95008178
v -2.03314354 0.46665251 -0.79789286
v -1.98537710 0.55655051 -0.95008178
v -2.01762972 -0.52712932 -0.79789286
v -1.97027125 -0.61498424 -0.95008178
v -1.96822990 -0.63132932 -0.93737330
v -2.01762972 0.52712932 -0.79789286
v -1.97639531 0.59169245 -0.95008178
v -1.99354230 -0.59741325 -0.83420063
v -1.99925796 -0.59741325 -0.79789286
v -1.96700513 -0.62724305 -0.95008178
v -1.99109276 -0.62479131 -0.79789286
v -1.96128947 -0.64358817 -0.95008178
v -1.95230789 -0.66728852 -0.95008178
v -1.96659694 -0.69752697 -0.79789286
v -1.97884485 -0.66401951 -0.79789286
v -2.00823975 0.56349718 -0.79789286
v -1.96822990 0.63132932 -0.93737330
v -1.97067965 0.61334971 -0.95008178
v -1.91311463 -0.76781090 -0.95008178
v -1.93801863 -0.76985404 -0.79789286
v -1.99925796 0.59741325 -0.79789286
v -1.99354230 0.59741325 -0.83420063
v -1.96700513 0.62724305 -0.95008178
v -1.97884485 0.66401951 -0.79789286
v -1.96659694 0.69752697 -0.79789286
v -1.95230789 0.66728852 -0.95008178
v -1.89066017 -0.82420144 -0.95008178
v -1.89760081 -0.84218104 -0.86620275
v -1.90168330 -0.85157950 -0.81933188
v -1.91188986 -0.83482577 -0.79789286
v -1.94250952 0.69262344 -0.95008178
v -1.90944032 0.84095517 -0.79789286
v -1.90168330 0.85157950 -0.81931701
v -1.89760081 0.84218104 -0.86618787
v -1.89555945 0.81194264 -0.95008178
v -1.91638075 0.75922971 -0.95008178
v -1.87351318 -0.86302104 -0.95008178
v -1.90331647 -0.85566577 -0.79789286
v -1.88698586 -0.87650577 -0.83934068
v -1.88902721 -0.88794736 -0.79789286
v -1.90331647 0.85566577 -0.79789286
v -1.89760081 0.86874184 -0.79789286
v -1.88902721 0.88794736 -0.79789286
v -1.88698586 0.87650577 -0.83934068
v -1.89066017 0.82420144 -0.95008178
v -1.86616456 -0.87854890 -0.95008178
v -1.84983415 -0.91164776 -0.95008178
v -1.83881102 -0.93371363 -0.95008178
v -1.85636619 -0.95169323 -0.79789286
v -1.86616456 0.87854890 -0.95008178
v -1.85636619 0.95169323 -0.79789286
v -1.83881102 0.93371363 -0.95008178
v -1.81962268 -0.96885551 -0.95008178
v -1.83146240 -0.99051278 -0.81827412
v -1.81554018 -1.02606337 -0.79789286
v -1.81554018 1.02606337 -0.79789286
v -1.83146240 0.99051278 -0.81827412
v -1.81962268 0.96885551 -0.95008178
v -1.77593873 -1.04812924 -0.95008178
v -1.79390230 -1.06488302 -0.79789286
v -1.76491559 1.06774337 -0.95008178
v -1.79186095 1.01911676 -0.95008178
v -1.77879645 1.09144377 -0.79789286
v -1.77226442 1.09307829 -0.82961188
v -1.76491559 -1.06774337 -0.95008178
v -1.77226442 -1.09307829 -0.82961188
v -1.75838355 -1.12576844 -0.80312217
v -1.77879645 -1.09144377 -0.79789286
v -1.75389256 1.11882183 -0.84999314
v -1.74409429 1.10288536 -0.95008178
v -1.75879174 1.12658576 -0.79789286
v -1.75838355 1.12576844 -0.80312217
v -1.74409429 -1.10288536 -0.95008178
v -1.75389256 -1.11882183 -0.84999314
v -1.75879174 -1.12658576 -0.79789286
v -1.76205786 -1.12086496 -0.79789286
v -1.70775896 -1.15641555 -0.95008178
v -1.65264369 -1.23242023 -0.95008178
v -1.68489631 -1.22833396 -0.79789286
v -1.70775896 1.15641555 -0.95008178
v -1.71796552 1.18297630 -0.79789286
v -1.72123164 -1.13680143 -0.95008178
v -1.62284050 -1.27328301 -0.95008178
v -1.65550152 -1.26878803 -0.79789286
v -1.65264369 1.23242023 -0.95008178
v -1.65305188 1.27205709 -0.79789286
v -1.63386364 1.28881077 -0.83420063
v -1.59834479 -1.30433863 -0.95008178
v -1.61140918 -1.32885634 -0.79789286
v -1.61957449 -1.31782336 -0.79789286
v -1.63386364 -1.28881077 -0.83420063
v -1.62284050 1.27328301 -0.95008178
v -1.62202403 1.31455430 -0.79789286
v -1.59997785 -1.31455430 -0.90450703
v -1.57221612 -1.33539435 -0.95008178
v -1.55996822 -1.34969629 -0.95008178
v -1.60038614 -1.34111515 -0.79789286
v -1.61140918 1.32885634 -0.79789286
v -1.59834479 1.30433863 -0.95008178
v -1.54812860 -1.36236370 -0.95008178
v -1.56486740 -1.35500848 -0.90450703
v -1.57670691 -1.36685868 -0.79789286
v -1.59997785 1.31455430 -0.90450703
v -1.57670691 1.36685868 -0.79789286
v -1.56486740 1.35500848 -0.90450703
v -1.55996822 1.34969629 -0.95008178
v -1.48035723 -1.43469081 -0.95008178
v -1.50444465 -1.43591663 -0.83420063
v -1.53955510 -1.39832290 -0.83420063
v -1.50893554 -1.43918569 -0.79789286
v -1.56037651 1.38442957 -0.79789286
v -1.51465121 1.39832290 -0.95008178
v -1.45871935 -1.45757389 -0.95008178
v -1.47137545 -1.47105862 -0.83420063
v -1.47749940 -1.47269315 -0.79789286
v -1.50893554 1.43918569 -0.79789286
v -1.50444465 1.43591663 -0.83420063
v -1.47055886 1.44531509 -0.95008178
v -1.42360879 -1.49353309 -0.95008178
v -1.42850798 -1.49843668 -0.90450703
v -1.43626489 -1.50579200 -0.83420063
v -1.47260022 -1.47759663 -0.79789286
v -1.47504976 1.47514489 -0.79789286
v -1.47137545 1.47105862 -0.83420063
v -1.45871935 1.45757389 -0.95008178
v -1.38523222 -1.52867508 -0.95008178
v -1.39952137 -1.54093389 -0.83420063
v -1.40850316 -1.54052528 -0.79789286
v -1.43993930 -1.50987827 -0.79789286
v -1.43993930 1.50987827 -0.79789286
v -1.43626489 1.50579200 -0.83420063
v -1.42850798 1.49843668 -0.90450703
v -1.42360879 1.49353309 -0.95008178
v -1.44647144 1.47024141 -0.95008178
v -1.36236957 -1.54788061 -0.95008178
v -1.39952137 -1.54828921 -0.79789286
v -1.34971347 -1.55850488 -0.95008178
v -1.33501602 -1.57076369 -0.95008178
v -1.27949235 -1.61693856 -0.95008178
v -1.34685553 -1.59201234 -0.79789286
v -1.40360397 1.54461155 -0.79789286
v -1.39952137 1.54093389 -0.83420063
v -1.38523222 1.52867508 -0.95008178
v -1.30929554 -1.62306807 -0.79789286
v -1.23254228 -1.65371508 -0.95008178
v -1.24723973 -1.67332921 -0.79789286
v -1.29092368 -1.63818722 -0.79789286
v -1.38727346 1.55850488 -0.79789286
v -1.28929072 1.60876602 -0.95008178
v -1.34971347 1.55850488 -0.95008178
v -1.20804657 -1.67251189 -0.95008178
v -1.22641833 -1.66679120 -0.90887230
v -1.20028966 -1.69090020 -0.88835694
v -1.23009274 -1.68599662 -0.79789286
v -1.35175472 1.58792608 -0.79789286
v -1.28643289 1.63450955 -0.83420063
v -1.27214363 1.62265936 -0.95008178
v -1.29092368 1.63818722 -0.79789286
v -1.19171606 -1.68477080 -0.95008178
v -1.19375742 -1.68640522 -0.93522791
v -1.15987173 -1.72685940 -0.83420063
v -1.17905997 -1.72113861 -0.79789286
v -1.21212917 -1.69907274 -0.79789286
v -1.24723973 1.67332921 -0.79789286
v -1.23254228 1.65371508 -0.95008178
v -1.15783038 -1.70642796 -0.95008178
v -1.07821929 -1.75709781 -0.95008178
v -1.11822903 -1.75342014 -0.83420063
v -1.12353640 -1.75668920 -0.79789286
v -1.21212917 1.69907274 -0.79789286
v -1.20028966 1.69090020 -0.88834206
v -1.22641833 1.66679120 -0.90887230
v -1.19375742 1.68640522 -0.93522791
v -1.19171606 1.68477080 -0.95008178
v -1.06597149 -1.76486174 -0.95008178
v -1.05903105 -1.79714328 -0.79789286
v -1.18926652 1.71419189 -0.79789286
v -1.15987173 1.72685940 -0.83420063
v -1.17987655 1.69253462 -0.95008178
v -1.01698006 -1.79469143 -0.95008178
v -1.03126922 -1.81430556 -0.79789286
v -1.15783038 1.73462333 -0.79789286
v -1.13945862 1.74647353 -0.79789286
v -1.12353640 1.75668920 -0.79789286
v -1.11822903 1.75342014 -0.83420063
v -1.06597149 1.76486174 -0.95008178
v -1.00064955 -1.80408999 -0.95008178
v -0.98472744 -1.82819900 -0.87141729
v -1.01453052 -1.82411273 -0.79789286
v -1.10598112 1.76772219 -0.79789286
v -1.06474672 1.79346561 -0.79789286
v -1.03126922 1.81430556 -0.79789286
v -1.01698006 1.79469143 -0.95008178
v -0.97043828 -1.82125228 -0.95008178
v -0.97615395 -1.82411273 -0.91828826
v -0.96921341 -1.84822173 -0.79789286
v -0.99615877 -1.83473690 -0.79789286
v -0.94880040 -1.85802869 -0.79789286
v -0.99615877 1.83473690 -0.79789286
v -0.98472744 1.82819900 -0.87141729
v -0.97615395 1.82411273 -0.91827338
v -0.97043828 1.82125228 -0.95008178
v -0.91246508 -1.84863034 -0.95008178
v -0.92103857 -1.87110492 -0.79789286
v -0.79039481 -1.90624670 -0.95008178
v -0.84142753 -1.89725695 -0.86347640
v -0.85000103 -1.90134322 -0.81660543
v -0.94880040 1.85802869 -0.79789286
v -0.91532291 1.87396516 -0.79789286
v -0.96104821 1.82574715 -0.95008178
v -0.85326710 -1.90297785 -0.79789286
v -0.73813726 -1.92626964 -0.95008178
v -0.73813726 -1.93403336 -0.90450703
v -0.73813726 -1.94588356 -0.83420063
v -0.73650425 -1.95242167 -0.79789286
v -0.81080787 -1.92259198 -0.79789286
v -0.81407399 -1.91441944 -0.83770186
v -0.90225852 1.85353382 -0.95008178
v -0.85326710 1.90297785 -0.79789286
v -0.85000103 1.90134322 -0.81660543
v -0.79039481 1.90624670 -0.95008178
v -0.71200854 -1.93525939 -0.95008178
v -0.66669148 -1.95078725 -0.95008178
v -0.68669630 -1.96345466 -0.83420063
v -0.69608632 -1.96631511 -0.79789286
v -0.81080787 1.92259198 -0.79789286
v -0.81407399 1.91441944 -0.83770186
v -0.77447259 1.93771103 -0.79789286
v -0.73813726 1.94588356 -0.83420063
v -0.73813726 1.93403336 -0.90450703
v -0.73813726 1.92626964 -0.95008178
v -0.60626873 -1.97040138 -0.95008178
v -0.60136960 -1.97939113 -0.90547543
v -0.65158579 -1.97489625 -0.83420063
v -0.66220059 -1.97734789 -0.79789286
v -0.73650425 1.95242167 -0.79789286
v -0.69608632 1.96631511 -0.79789286
v -0.68669630 1.96345466 -0.83420063
v -0.66669148 1.95078725 -0.95008178
v -0.58830521 -1.97612207 -0.95008178
v -0.59728695 -1.99246714 -0.83420063
v -0.59728695 -1.99818804 -0.79789286
v -0.66220059 1.97734789 -0.79789286
v -0.65158579 1.97489625 -0.83420063
v -0.60136960 1.97939113 -0.90549031
v -0.58830521 1.97612207 -0.95008178
v -0.56176820 -1.98429461 -0.95008178
v -0.52420810 -2.02025381 -0.79789286
v -0.56095167 -2.00922082 -0.79789286
v -0.63688835 1.98552043 -0.79789286
v -0.59728695 1.99246714 -0.83420063
v -0.52706593 1.99451038 -0.95008178
v -0.52706593 -1.99451038 -0.95008178
v -0.45684492 -2.01126406 -0.95008178
v -0.49318020 -2.02760913 -0.79789286
v -0.59728695 1.99818804 -0.79789286
v -0.52420810 2.02025381 -0.79789286
v -0.48134063 2.00554316 -0.95008178
v -0.43153268 -2.01616754 -0.95008178
v -0.45684492 -2.01861939 -0.90450703
v -0.46664319 -2.03373864 -0.79789286
v -0.46664319 2.03373864 -0.79789286
v -0.45684492 2.01126406 -0.95008178
v -0.29680632 -2.04191118 -0.95008178
v -0.34130685 -2.03700749 -0.92770411
v -0.38580738 -2.04926629 -0.79789286
v -0.38580738 2.04926629 -0.79789286
v -0.45684492 2.01861939 -0.90450703
v -0.34130685 2.03700749 -0.92770411
v -0.29680632 2.04191118 -0.95008178
v -0.24618186 -2.04844908 -0.95008178
v -0.24577359 -2.05580440 -0.90450703
v -0.24577359 -2.07255808 -0.79789286
v -0.28006757 -2.06765460 -0.79789286
v -0.31599461 -2.06234252 -0.79789286
v -0.31599461 -2.05662162 -0.83420063
v -0.35110511 -2.05580440 -0.79789286
v -0.31599461 2.06234252 -0.79789286
v -0.31599461 2.05662162 -0.83420063
v -0.24577359 2.07255808 -0.79789286
v -0.24577359 2.05580440 -0.90450703
v -0.24618186 2.04844908 -0.95008178
v -0.17555256 -2.05416998 -0.95008178
v -0.17555256 -2.06152531 -0.90450703
v -0.17555256 -2.07827898 -0.79789286
v -0.21188786 2.07541853 -0.79789286
v -0.17555256 2.06152531 -0.90450703
v -0.17555256 2.05416998 -0.95008178
v -0.15064859 -2.05580440 -0.95008178
v -0.10533154 -2.06602018 -0.90450703
v -0.13921727 -2.08073062 -0.79789286
v -0.17555256 2.07827898 -0.79789286
v -0.10533154 2.06602018 -0.90450703
v -0.03511051 2.06315973 -0.95008178
v -0.08042757 -2.06029928 -0.95008178
v -0.03511051 -2.06315973 -0.95008178
v -0.03511051 -2.08154804 -0.83420063
v -0.03511051 -2.08726873 -0.79789286
v -0.03511051 2.08726873 -0.79789286
v -0.03511051 2.08154804 -0.83420063
v 0.03511051 2.06315973 -0.95008178
v 0.03511051 -2.06315973 -0.95008178
v 0.03511051 -2.08154804 -0.83420063
v 0.03511051 -2.08726873 -0.79789286
v 0.03511051 2.08726873 -0.79789286
v 0.03511051 2.08154804 -0.83420063
v 0.10533154 2.06602018 -0.90450703
v 0.08042757 2.06029928 -0.95008178
v 0.10533154 -2.06602018 -0.90450703
v 0.17555256 -2.05416998 -0.95008178
v 0.17555256 -2.07827898 -0.79789286
v 0.13921727 2.08073062 -0.79789286
v 0.17555256 2.06152531 -0.90450703
v 0.15064859 2.05580440 -0.95008178
v 0.17555256 -2.06152531 -0.90450703
v 0.24618186 -2.04844908 -0.95008178
v 0.21188786 -2.07541853 -0.79789286
v 0.17555256 2.07827898 -0.79789286
v 0.24577359 2.05580440 -0.90450703
v 0.24618186 2.04844908 -0.95008178
v 0.17555256 2.05416998 -0.95008178
v 0.24577359 -2.05580440 -0.90450703
v 0.29680632 -2.04191118 -0.95008178
v 0.24577359 -2.07255808 -0.79789286
v 0.24577359 2.07255808 -0.79789286
v 0.29680632 2.04191118 -0.95008178
v 0.34130685 -2.03700749 -0.92770411
v 0.38580738 -2.04926629 -0.79789286
v 0.31599461 -2.05662162 -0.83420063
v 0.31599461 -2.06234252 -0.79789286
v 0.45684492 -2.01126406 -0.95008178
v 0.28006757 2.06765460 -0.79789286
v 0.31599461 2.06234252 -0.79789286
v 0.31599461 2.05662162 -0.83420063
v 0.35110511 2.05580440 -0.79789286
v 0.38580738 2.04926629 -0.79789286
v 0.34130685 2.03700749 -0.92770411
v 0.43153268 2.01616754 -0.95008178
v 0.45684492 -2.01861939 -0.90450703
v 0.46664319 -2.03373864 -0.79789286
v 0.48134063 -2.00554316 -0.95008178
v 0.46664319 2.03373864 -0.79789286
v 0.45684492 2.01861939 -0.90450703
v 0.45684492 2.01126406 -0.95008178
v 0.52420810 -2.02025381 -0.79789286
v 0.52706593 -1.99451038 -0.95008178
v 0.49318020 2.02760913 -0.79789286
v 0.52420810 2.02025381 -0.79789286
v 0.52706593 1.99451038 -0.95008178
v 0.59728695 -1.99246714 -0.83420063
v 0.59728695 -1.99818804 -0.79789286
v 0.58830521 -1.97612207 -0.95008178
v 0.56095167 2.00922082 -0.79789286
v 0.59728695 1.99246714 -0.83420063
v 0.56176820 1.98429461 -0.95008178
v 0.60136960 -1.97939113 -0.90549031
v 0.65158579 -1.97489625 -0.83420063
v 0.66220059 -1.97734789 -0.79789286
v 0.63688835 -1.98552043 -0.79789286
v 0.66669148 -1.95078725 -0.95008178
v 0.59728695 1.99818804 -0.79789286
v 0.66220059 1.97734789 -0.79789286
v 0.65158579 1.97489625 -0.83420063
v 0.60136960 1.97939113 -0.90547543
v 0.58830521 1.97612207 -0.95008178
v 0.68669630 -1.96345466 -0.83420063
v 0.69608632 -1.96631511 -0.79789286
v 0.73813726 -1.92626964 -0.95008178
v 0.73813726 -1.93403336 -0.90450703
v 0.73813726 -1.94588356 -0.83420063
v 0.69608632 1.96631511 -0.79789286
v 0.68669630 1.96345466 -0.83420063
v 0.66669148 1.95078725 -0.95008178
v 0.60626873 1.97040138 -0.95008178
v 0.73650425 -1.95242167 -0.79789286
v 0.79039481 -1.90624670 -0.95008178
v 0.77447259 -1.93771103 -0.79789286
v 0.73650425 1.95242167 -0.79789286
v 0.73813726 1.94588356 -0.83420063
v 0.73813726 1.93403336 -0.90450703
v 0.71200854 1.93525939 -0.95008178
v 0.85000103 -1.90134322 -0.81660543
v 0.81407399 -1.91441944 -0.83770186
v 0.81080787 -1.92259198 -0.79789286
v 0.90225852 -1.85353382 -0.95008178
v 0.91532291 -1.87396516 -0.79789286
v 0.81080787 1.92259198 -0.79789286
v 0.79039481 1.90624670 -0.95008178
v 0.73813726 1.92626964 -0.95008178
v 0.85326710 -1.90297785 -0.79789286
v 0.96104821 -1.82574715 -0.95008178
v 0.97615395 -1.82411273 -0.91827338
v 0.98472744 -1.82819900 -0.87141729
v 0.94880040 -1.85802869 -0.79789286
v 0.85326710 1.90297785 -0.79789286
v 0.81407399 1.91441944 -0.83770186
v 0.85000103 1.90134322 -0.81660543
v 0.84142753 1.89725695 -0.86347640
v 0.94880040 1.85802869 -0.79789286
v 0.91246508 1.84863034 -0.95008178
v 0.97043828 -1.82125228 -0.95008178
v 1.01698006 -1.79469143 -0.95008178
v 0.99615877 -1.83473690 -0.79789286
v 1.03126922 -1.81430556 -0.79789286
v 0.92103857 1.87110492 -0.79789286
v 0.96921341 1.84822173 -0.79789286
v 0.98472744 1.82819900 -0.87141729
v 0.97615395 1.82411273 -0.91828826
v 0.97043828 1.82125228 -0.95008178
v 1.06597149 -1.76486174 -0.95008178
v 1.06474672 -1.79346561 -0.79789286
v 0.99615877 1.83473690 -0.79789286
v 1.01453052 1.82411273 -0.79789286
v 1.03126922 1.81430556 -0.79789286
v 1.01698006 1.79469143 -0.95008178
v 1.00064955 1.80408999 -0.95008178
v 1.11822903 -1.75342014 -0.83420063
v 1.10598112 -1.76772219 -0.79789286
v 1.17987655 -1.69253462 -0.95008178
v 1.05903105 1.79714328 -0.79789286
v 1.06597149 1.76486174 -0.95008178
v 1.12353640 -1.75668920 -0.79789286
v 1.15987173 -1.72685940 -0.83420063
v 1.19171606 -1.68477080 -0.95008178
v 1.19375742 -1.68640522 -0.93522791
v 1.12353640 1.75668920 -0.79789286
v 1.11822903 1.75342014 -0.83420063
v 1.07821929 1.75709781 -0.95008178
v 1.13945862 -1.74647353 -0.79789286
v 1.20028966 -1.69090020 -0.88834206
v 1.18926652 -1.71419189 -0.79789286
v 1.15783038 -1.73462333 -0.79789286
v 1.23254228 -1.65371508 -0.95008178
v 1.22641833 -1.66679120 -0.90887230
v 1.17905997 1.72113861 -0.79789286
v 1.15987173 1.72685940 -0.83420063
v 1.19375742 1.68640522 -0.93522791
v 1.15783038 1.70642796 -0.95008178
v 1.24723973 -1.67332921 -0.79789286
v 1.21212917 -1.69907274 -0.79789286
v 1.27214363 -1.62265936 -0.95008178
v 1.21212917 1.69907274 -0.79789286
v 1.20028966 1.69090020 -0.88835694
v 1.20804657 1.67251189 -0.95008178
v 1.19171606 1.68477080 -0.95008178
v 1.28643289 -1.63450955 -0.83420063
v 1.29092368 -1.63818722 -0.79789286
v 1.28929072 -1.60876602 -0.95008178
v 1.23009274 1.68599662 -0.79789286
v 1.24723973 1.67332921 -0.79789286
v 1.22641833 1.66679120 -0.90887230
v 1.23254228 1.65371508 -0.95008178
v 1.35175472 -1.58792608 -0.79789286
v 1.34971347 -1.55850488 -0.95008178
v 1.39952137 -1.54093389 -0.83420063
v 1.38727346 -1.55850488 -0.79789286
v 1.29092368 1.63818722 -0.79789286
v 1.27949235 1.61693856 -0.95008178
v 1.38523222 -1.52867508 -0.95008178
v 1.40360397 -1.54461155 -0.79789286
v 1.42360879 -1.49353309 -0.95008178
v 1.42850798 -1.49843668 -0.90450703
v 1.43626489 -1.50579200 -0.83420063
v 1.43993930 -1.50987827 -0.79789286
v 1.30929554 1.62306807 -0.79789286
v 1.34685553 1.59201234 -0.79789286
v 1.39952137 1.54093389 -0.83420063
v 1.33501602 1.57076369 -0.95008178
v 1.44647144 -1.47024141 -0.95008178
v 1.47137545 -1.47105862 -0.83420063
v 1.47504976 -1.47514489 -0.79789286
v 1.39952137 1.54828921 -0.79789286
v 1.40850316 1.54052528 -0.79789286
v 1.42360879 1.49353309 -0.95008178
v 1.38523222 1.52867508 -0.95008178
v 1.36236957 1.54788061 -0.95008178
v 1.34971347 1.55850488 -0.95008178
v 1.45871935 -1.45757389 -0.95008178
v 1.47055886 -1.44531509 -0.95008178
v 1.50444465 -1.43591663 -0.83420063
v 1.50893554 -1.43918569 -0.79789286
v 1.43993930 1.50987827 -0.79789286
v 1.43626489 1.50579200 -0.83420063
v 1.42850798 1.49843668 -0.90450703
v 1.47137545 1.47105862 -0.83420063
v 1.45871935 1.45757389 -0.95008178
v 1.51465121 -1.39832290 -0.95008178
v 1.56037651 -1.38442957 -0.79789286
v 1.47260022 1.47759663 -0.79789286
v 1.47749940 1.47269315 -0.79789286
v 1.50444465 1.43591663 -0.83420063
v 1.48035723 1.43469081 -0.95008178
v 1.55996822 -1.34969629 -0.95008178
v 1.56486740 -1.35500848 -0.90450703
v 1.57670691 -1.36685868 -0.79789286
v 1.50893554 1.43918569 -0.79789286
v 1.57670691 1.36685868 -0.79789286
v 1.53955510 1.39832290 -0.83420063
v 1.56486740 1.35500848 -0.90450703
v 1.54812860 1.36236370 -0.95008178
v 1.59834479 -1.30433863 -0.95008178
v 1.59997785 -1.31455430 -0.90450703
v 1.61140918 -1.32885634 -0.79789286
v 1.60038614 1.34111515 -0.79789286
v 1.55996822 1.34969629 -0.95008178
v 1.62284050 -1.27328301 -0.95008178
v 1.62202403 -1.31455430 -0.79789286
v 1.61140918 1.32885634 -0.79789286
v 1.57221612 1.33539435 -0.95008178
v 1.63386364 -1.28881077 -0.83420063
v 1.65264369 -1.23242023 -0.95008178
v 1.65305188 -1.27205709 -0.79789286
v 1.61957449 1.31782336 -0.79789286
v 1.62284050 1.27328301 -0.95008178
v 1.59834479 1.30433863 -0.95008178
v 1.59997785 1.31455430 -0.90450703
v 1.71796552 -1.18297630 -0.79789286
v 1.70775896 -1.15641555 -0.95008178
v 1.65550152 1.26878803 -0.79789286
v 1.63386364 1.28881077 -0.83420063
v 1.65264369 1.23242023 -0.95008178
v 1.75838355 -1.12576844 -0.80312217
v 1.75879174 -1.12658576 -0.79789286
v 1.74409429 -1.10288536 -0.95008178
v 1.75389256 -1.11882183 -0.84999314
v 1.68489631 1.22833396 -0.79789286
v 1.75838355 1.12576844 -0.80312217
v 1.70775896 1.15641555 -0.95008178
v 1.77226442 -1.09307829 -0.82961188
v 1.77879645 -1.09144377 -0.79789286
v 1.76491559 -1.06774337 -0.95008178
v 1.75879174 1.12658576 -0.79789286
v 1.76205786 1.12086496 -0.79789286
v 1.77879645 1.09144377 -0.79789286
v 1.79390230 1.06488302 -0.79789286
v 1.77226442 1.09307829 -0.82961188
v 1.75389256 1.11882183 -0.84999314
v 1.72123164 1.13680143 -0.95008178
v 1.81554018 -1.02606337 -0.79789286
v 1.79186095 -1.01911676 -0.95008178
v 1.81554018 1.02606337 -0.79789286
v 1.77593873 1.04812924 -0.95008178
v 1.76491559 1.06774337 -0.95008178
v 1.74409429 1.10288536 -0.95008178
v 1.81962268 -0.96885551 -0.95008178
v 1.83146240 -0.99051278 -0.81827412
v 1.85636619 -0.95169323 -0.79789286
v 1.85636619 0.95169323 -0.79789286
v 1.83146240 0.99051278 -0.81825914
v 1.81962268 0.96885551 -0.95008178
v 1.83881102 -0.93371363 -0.95008178
v 1.88902721 -0.88794736 -0.79789286
v 1.88902721 0.88794736 -0.79789286
v 1.83881102 0.93371363 -0.95008178
v 1.86616456 -0.87854890 -0.95008178
v 1.88698586 -0.87650577 -0.83934068
v 1.90168330 -0.85157950 -0.81931701
v 1.89760081 -0.86874184 -0.79789286
v 1.90331647 0.85566577 -0.79789286
v 1.90168330 0.85157950 -0.81933188
v 1.88698586 0.87650577 -0.83934068
v 1.87351318 0.86302104 -0.95008178
v 1.86616456 0.87854890 -0.95008178
v 1.84983415 0.91164776 -0.95008178
v 1.89066017 -0.82420144 -0.95008178
v 1.89760081 -0.84218104 -0.86618787
v 1.90944032 -0.84095517 -0.79789286
v 1.90331647 -0.85566577 -0.79789286
v 1.96659694 -0.69752697 -0.79789286
v 1.91188986 0.83482577 -0.79789286
v 1.93801863 0.76985404 -0.79789286
v 1.89760081 0.84218104 -0.86620275
v 1.89066017 0.82420144 -0.95008178
v 1.89555945 -0.81194264 -0.95008178
v 1.91638075 -0.75922971 -0.95008178
v 1.94250952 -0.69262344 -0.95008178
v 1.95230789 -0.66728852 -0.95008178
v 1.96822990 -0.63132932 -0.93735842
v 1.97884485 -0.66401951 -0.79789286
v 1.96659694 0.69752697 -0.79789286
v 1.91311463 0.76781090 -0.95008178
v 1.96700513 -0.62724305 -0.95008178
v 1.97067965 -0.61334971 -0.95008178
v 1.97639531 -0.59169245 -0.95008178
v 2.01762972 -0.52712932 -0.79789286
v 2.00823975 -0.56349718 -0.79789286
v 1.99354230 -0.59741325 -0.83420063
v 1.99925796 -0.59741325 -0.79789286
v 1.97884485 0.66401951 -0.79789286
v 1.96822990 0.63132932 -0.93737330
v 1.95230789 0.66728852 -0.95008178
v 1.98537710 -0.55655051 -0.95008178
v 2.03314354 -0.46665251 -0.79789286
v 1.99109276 0.62479131 -0.79789286
v 1.99925796 0.59741325 -0.79789286
v 1.99354230 0.59741325 -0.83420063
v 2.01762972 0.52712932 -0.79789286
v 1.97639531 0.59169245 -0.95008178
v 1.97027125 0.61498424 -0.95008178
v 1.96700513 0.62724305 -0.95008178
v 1.96128947 0.64358817 -0.95008178
v 2.00456523 -0.48136306 -0.95008178
v 2.04171714 -0.43273642 -0.79789286
v 2.03314354 0.46665251 -0.79789286
v 1.99925796 0.50220305 -0.95008178
v 2.01068929 -0.45684545 -0.95008178
v 2.03681806 -0.41148779 -0.85730834
v 2.05069893 -0.38697015 -0.79789286
v 2.04171714 0.43273642 -0.79789286
v 2.01068929 0.45684545 -0.95008178
v 2.02661151 -0.38697015 -0.95008178
v 2.03355194 -0.38737878 -0.90663754
v 2.04130895 -0.36449562 -0.88461746
v 2.04498326 -0.38737878 -0.83400702
v 2.05641459 -0.35264545 -0.79789286
v 2.04498326 0.41761719 -0.79789286
v 2.03681806 0.41148779 -0.85730834
v 2.02661151 0.38697015 -0.95008178
v 2.03600148 -0.33057956 -0.95008178
v 2.03763444 -0.34120389 -0.93148832
v 2.06172186 -0.31627759 -0.79789286
v 2.05069893 0.38697015 -0.79789286
v 2.04498326 0.38737878 -0.83400702
v 2.04130895 0.36449562 -0.88461746
v 2.03355194 0.38737878 -0.90663754
v 2.03763444 0.34120389 -0.93148832
v 2.03110240 0.36040936 -0.95008178
v 2.04375849 -0.26928546 -0.95008178
v 2.05559801 -0.17570978 -0.95008178
v 2.05396505 -0.24599369 -0.90450703
v 2.06621275 -0.28236153 -0.79789286
v 2.05641459 0.35060232 -0.79789286
v 2.06172186 0.31627759 -0.79789286
v 2.03600148 0.33057956 -0.95008178
v 2.07968543 0.17570978 -0.79789286
v 2.07396976 0.17570978 -0.83420063
v 2.05396505 0.24599369 -0.90450703
v 2.05559801 0.17570978 -0.95008178
v 2.05886413 -0.12994351 -0.95008178
v 2.06784591 -0.10542587 -0.90450703
v 2.07396976 -0.17570978 -0.83420063
v 2.07968543 -0.17570978 -0.79789286
v 2.08458451 0.10542587 -0.79789286
v 2.06784591 0.10542587 -0.90450703
v 2.06049709 0.10542587 -0.95008178
v 2.06049709 -0.10542587 -0.95008178
v 2.06131367 -0.03514196 -0.95008178
v 2.07968543 -0.03514196 -0.83420063
v 2.08540109 -0.03514196 -0.79789286
v 2.08499290 -0.07110116 -0.79789286
v 2.08458451 -0.10542587 -0.79789286
v 2.08213497 -0.14138508 -0.79789286
v 2.08540109 0.03514196 -0.79789286
v 2.06090548 0.08049960 -0.95008178
v 2.07968543 0.03514196 -0.83420063
v 2.06131367 0.03514196 -0.95008178
f 1 2 6
f 1 6 3
f 1 3 4
f 1 4 5
f 1 5 14
f 1 14 25
f 1 25 34
f 1 34 44
f 1 44 52
f 1 52 51
f 1 51 55
f 1 55 59
f 1 59 65
f 1 65 67
f 1 67 71
f 1 71 70
f 1 70 76
f 1 76 86
f 1 86 94
f 1 94 96
f 1 96 105
f 1 105 111
f 1 111 116
f 1 116 124
f 1 124 132
f 1 132 131
f 1 131 135
f 1 135 140
f 1 140 146
f 1 146 145
f 1 145 153
f 1 153 158
f 1 158 166
f 1 166 171
f 1 171 178
f 1 178 185
f 1 185 184
f 1 184 192
f 1 192 196
f 1 196 200
f 1 200 203
f 1 203 202
f 1 202 210
f 1 210 219
f 1 219 218
f 1 218 225
f 1 225 232
f 1 232 237
f 1 237 245
f 1 245 253
f 1 253 252
f 1 252 254
f 1 254 260
f 1 260 267
f 1 267 272
f 1 272 271
f 1 271 281
f 1 281 291
f 1 291 298
f 1 298 305
f 1 305 304
f 1 304 311
f 1 311 317
f 1 317 322
f 1 322 333
f 1 333 331
f 1 331 330
f 1 330 329
f 1 329 341
f 1 341 347
f 1 347 354
f 1 354 360
f 1 360 367
f 1 367 373
f 1 373 380
f 1 380 386
f 1 386 384
f 1 384 396
f 1 396 401
f 1 401 407
f 1 407 415
f 1 415 414
f 1 414 423
f 1 423 431
f 1 431 433
f 1 433 440
f 1 440 446
f 1 446 442
f 1 442 450
f 1 450 459
f 1 459 460
f 1 460 467
f 1 467 474
f 1 474 478
f 1 478 485
f 1 485 488
f 1 488 487
f 1 487 496
f 1 496 495
f 1 495 503
f 1 503 509
f 1 509 512
f 1 512 516
f 1 516 520
f 1 520 527
f 1 527 537
f 1 537 544
f 1 544 551
f 1 551 559
f 1 559 563
f 1 563 568
f 1 568 573
f 1 573 579
f 1 579 586
f 1 586 595
f 1 595 603
f 1 603 608
f 1 608 614
f 1 614 624
f 1 624 623
f 1 623 625
f 1 625 635
f 1 635 644
f 1 644 642
f 1 642 641
f 1 641 649
f 1 649 659
f 1 659 664
f 1 664 671
f 1 671 677
f 1 677 687
f 1 687 698
f 1 698 708
f 1 708 707
f 1 707 706
f 1 706 705
f 1 705 709
f 1 709 699
f 1 699 691
f 1 691 689
f 1 689 688
f 1 688 678
f 1 678 672
f 1 672 665
f 1 665 660
f 1 660 653
f 1 653 651
f 1 651 650
f 1 650 645
f 1 645 636
f 1 636 627
f 1 627 626
f 1 626 615
f 1 615 609
f 1 609 604
f 1 604 597
f 1 597 591
f 1 591 590
f 1 590 589
f 1 589 588
f 1 588 582
f 1 582 575
f 1 575 569
f 1 569 564
f 1 564 560
f 1 560 553
f 1 553 552
f 1 552 546
f 1 546 545
f 1 545 538
f 1 538 529
f 1 529 528
f 1 528 522
f 1 522 521
f 1 521 513
f 1 513 506
f 1 506 505
f 1 505 498
f 1 498 491
f 1 491 482
f 1 482 476
f 1 476 470
f 1 470 469
f 1 469 468
f 1 468 462
f 1 462 455
f 1 455 461
f 1 461 451
f 1 451 443
f 1 443 434
f 1 434 427
f 1 427 418
f 1 418 417
f 1 417 409
f 1 409 404
f 1 404 403
f 1 403 398
f 1 398 392
f 1 392 391
f 1 391 389
f 1 389 388
f 1 388 381
f 1 381 374
f 1 374 368
f 1 368 361
f 1 361 355
f 1 355 348
f 1 348 342
f 1 342 336
f 1 336 334
f 1 334 323
f 1 323 318
f 1 318 313
f 1 313 312
f 1 312 306
f 1 306 299
f 1 299 293
f 1 293 292
f 1 292 284
f 1 284 282
f 1 282 275
f 1 275 265
f 1 265 264
f 1 264 255
f 1 255 248
f 1 248 247
f 1 247 246
f 1 246 240
f 1 240 239
f 1 239 238
f 1 238 233
f 1 233 226
f 1 226 220
f 1 220 214
f 1 214 211
f 1 211 204
f 1 204 197
f 1 197 186
f 1 186 179
f 1 179 172
f 1 172 167
f 1 167 160
f 1 160 154
f 1 154 149
f 1 149 142
f 1 142 137
f 1 137 127
f 1 127 119
f 1 119 112
f 1 112 107
f 1 107 99
f 1 99 98
f 1 98 97
f 1 97 88
f 1 88 81
f 1 81 80
f 1 80 77
f 1 77 72
f 1 72 62
f 1 62 57
f 1 57 53
f 1 53 45
f 1 45 36
f 1 36 35
f 1 35 27
f 1 27 26
f 1 26 17
f 1 17 16
f 1 16 7
f 1 7 2
f 2 7 8
f 2 8 6
f 3 6 15
f 3 15 9
f 3 9 10
f 3 10 4
f 4 10 11
f 4 11 12
f 4 12 13
f 4 13 14
f 4 14 5
f 6 8 15
f 7 16 8
f 8 16 17
f 8 17 18
f 8 18 19
f 8 19 20
f 8 20 21
f 8 21 15
f 9 15 21
f 9 21 20
f 9 20 19
f 9 19 30
f 9 30 39
f 9 39 38
f 9 38 49
f 9 49 54
f 9 54 58
f 9 58 63
f 9 63 74
f 9 74 79
f 9 79 82
f 9 82 87
f 9 87 92
f 9 92 91
f 9 91 101
f 9 101 106
f 9 106 108
f 9 108 114
f 9 114 118
f 9 118 117
f 9 117 126
f 9 126 136
f 9 136 141
f 9 141 148
f 9 148 155
f 9 155 162
f 9 162 168
f 9 168 174
f 9 174 181
f 9 181 190
f 9 190 189
f 9 189 199
f 9 199 206
f 9 206 205
f 9 205 213
f 9 213 221
f 9 221 230
f 9 230 235
f 9 235 242
f 9 242 249
f 9 249 258
f 9 258 266
f 9 266 274
f 9 274 277
f 9 277 287
f 9 287 295
f 9 295 302
f 9 302 308
f 9 308 314
f 9 314 319
f 9 319 326
f 9 326 338
f 9 338 344
f 9 344 350
f 9 350 357
f 9 357 364
f 9 364 370
f 9 370 377
f 9 377 376
f 9 376 382
f 9 382 394
f 9 394 400
f 9 400 405
f 9 405 411
f 9 411 421
f 9 421 430
f 9 430 429
f 9 429 437
f 9 437 445
f 9 445 444
f 9 444 456
f 9 456 465
f 9 465 472
f 9 472 471
f 9 471 477
f 9 477 484
f 9 484 494
f 9 494 501
f 9 501 500
f 9 500 508
f 9 508 514
f 9 514 524
f 9 524 533
f 9 533 532
f 9 532 531
f 9 531 530
f 9 530 542
f 9 542 548
f 9 548 556
f 9 556 561
f 9 561 565
f 9 565 571
f 9 571 570
f 9 570 577
f 9 577 584
f 9 584 594
f 9 594 600
f 9 600 599
f 9 599 598
f 9 598 606
f 9 606 610
f 9 610 620
f 9 620 619
f 9 619 618
f 9 618 629
f 9 629 637
f 9 637 647
f 9 647 657
f 9 657 656
f 9 656 655
f 9 655 654
f 9 654 661
f 9 661 666
f 9 666 674
f 9 674 683
f 9 683 690
f 9 690 694
f 9 694 701
f 9 701 710
f 9 710 712
f 9 712 703
f 9 703 702
f 9 702 695
f 9 695 685
f 9 685 684
f 9 684 675
f 9 675 667
f 9 667 662
f 9 662 658
f 9 658 648
f 9 648 640
f 9 640 639
f 9 639 638
f 9 638 633
f 9 633 632
f 9 632 631
f 9 631 630
f 9 630 621
f 9 621 611
f 9 611 607
f 9 607 601
f 9 601 596
f 9 596 587
f 9 587 580
f 9 580 574
f 9 574 567
f 9 567 562
f 9 562 557
f 9 557 549
f 9 549 543
f 9 543 535
f 9 535 534
f 9 534 525
f 9 525 517
f 9 517 515
f 9 515 510
f 9 510 504
f 9 504 497
f 9 497 489
f 9 489 480
f 9 480 475
f 9 475 466
f 9 466 458
f 9 458 457
f 9 457 447
f 9 447 441
f 9 441 432
f 9 432 424
f 9 424 416
f 9 416 408
f 9 408 402
f 9 402 397
f 9 397 387
f 9 387 379
f 9 379 372
f 9 372 366
f 9 366 358
f 9 358 352
f 9 352 351
f 9 351 345
f 9 345 339
f 9 339 327
f 9 327 320
f 9 320 315
f 9 315 310
f 9 310 309
f 9 309 303
f 9 303 296
f 9 296 288
f 9 288 279
f 9 279 278
f 9 278 268
f 9 268 261
f 9 261 259
f 9 259 250
f 9 250 243
f 9 243 236
f 9 236 231
f 9 231 223
f 9 223 222
f 9 222 215
f 9 215 207
f 9 207 201
f 9 201 195
f 9 195 194
f 9 194 193
f 9 193 191
f 9 191 182
f 9 182 175
f 9 175 169
f 9 169 163
f 9 163 156
f 9 156 152
f 9 152 151
f 9 151 144
f 9 144 139
f 9 139 134
f 9 134 133
f 9 133 138
f 9 138 129
f 9 129 121
f 9 121 115
f 9 115 109
f 9 109 104
f 9 104 103
f 9 103 102
f 9 102 93
f 9 93 83
f 9 83 75
f 9 75 69
f 9 69 68
f 9 68 66
f 9 66 60
f 9 60 56
f 9 56 50
f 9 50 41
f 9 41 32
f 9 32 31
f 9 31 23
f 9 23 12
f 9 12 11
f 9 11 10
f 12 22 13
f 12 23 24
f 12 24 22
f 13 22 24
f 13 24 14
f 14 24 25
f 17 26 18
f 18 26 27
f 18 27 28
f 18 28 19
f 19 28 29
f 19 29 30
f 23 31 24
f 24 31 32
f 24 32 33
f 24 33 25
f 25 33 34
f 27 35 29
f 27 29 28
f 29 35 36
f 29 36 37
f 29 37 38
f 29 38 39
f 29 39 30
f 32 40 33
f 32 41 42
f 32 42 40
f 33 40 42
f 33 42 43
f 33 43 44
f 33 44 34
f 36 45 37
f 37 45 46
f 37 46 47
f 37 47 48
f 37 48 38
f 38 48 47
f 38 47 49
f 41 50 51
f 41 51 42
f 42 51 52
f 42 52 43
f 43 52 44
f 45 53 47
f 45 47 46
f 47 53 49
f 49 53 54
f 50 55 51
f 50 56 55
f 53 57 54
f 54 57 58
f 55 56 59
f 56 60 61
f 56 61 59
f 57 62 63
f 57 63 58
f 59 61 64
f 59 64 65
f 60 66 61
f 61 67 65
f 61 65 64
f 61 66 68
f 61 68 69
f 61 69 70
f 61 70 71
f 61 71 67
f 62 72 73
f 62 73 63
f 63 73 74
f 69 75 70
f 70 75 76
f 72 77 78
f 72 78 73
f 73 79 74
f 73 78 77
f 73 77 80
f 73 80 81
f 73 81 82
f 73 82 79
f 75 83 76
f 76 83 84
f 76 84 85
f 76 85 86
f 81 87 82
f 81 88 89
f 81 89 90
f 81 90 91
f 81 91 92
f 81 92 87
f 83 93 84
f 84 93 85
f 85 94 86
f 85 93 95
f 85 95 96
f 85 96 94
f 88 97 89
f 89 97 98
f 89 98 99
f 89 99 100
f 89 100 90
f 90 100 101
f 90 101 91
f 93 102 96
f 93 96 95
f 96 103 104
f 96 104 105
f 96 102 103
f 99 106 100
f 99 107 108
f 99 108 106
f 100 106 101
f 104 109 105
f 105 109 110
f 105 110 111
f 107 112 113
f 107 113 114
f 107 114 108
f 109 115 110
f 110 115 111
f 111 115 116
f 112 117 118
f 112 118 114
f 112 114 113
f 112 119 120
f 112 120 117
f 115 121 116
f 116 121 122
f 116 122 123
f 116 123 124
f 117 120 125
f 117 125 126
f 119 127 128
f 119 128 120
f 120 128 125
f 121 129 130
f 121 130 122
f 122 130 123
f 123 131 132
f 123 132 124
f 123 130 133
f 123 133 134
f 123 134 135
f 123 135 131
f 125 128 136
f 125 136 126
f 127 137 128
f 128 137 136
f 129 138 130
f 130 138 133
f 134 139 140
f 134 140 135
f 136 137 141
f 137 142 143
f 137 143 141
f 139 144 145
f 139 145 146
f 139 146 147
f 139 147 140
f 140 147 146
f 141 143 148
f 142 149 143
f 143 149 148
f 144 150 145
f 144 151 150
f 145 150 151
f 145 151 152
f 145 152 153
f 148 149 154
f 148 154 155
f 152 156 157
f 152 157 153
f 153 157 158
f 154 159 155
f 154 160 161
f 154 161 162
f 154 162 159
f 155 159 162
f 156 163 164
f 156 164 157
f 157 164 165
f 157 165 158
f 158 165 164
f 158 164 166
f 160 167 161
f 161 167 168
f 161 168 162
f 163 169 170
f 163 170 164
f 164 170 171
f 164 171 166
f 167 172 173
f 167 173 168
f 168 173 174
f 169 175 170
f 170 175 176
f 170 176 177
f 170 177 178
f 170 178 171
f 172 179 180
f 172 180 173
f 173 180 174
f 174 180 181
f 175 182 183
f 175 183 184
f 175 184 176
f 176 184 177
f 177 185 178
f 177 184 185
f 179 186 187
f 179 187 180
f 180 187 188
f 180 188 189
f 180 189 190
f 180 190 181
f 182 191 183
f 183 192 184
f 183 191 193
f 183 193 194
f 183 194 195
f 183 195 196
f 183 196 192
f 186 197 198
f 186 198 187
f 187 198 188
f 188 198 189
f 189 198 199
f 195 200 196
f 195 201 202
f 195 202 203
f 195 203 200
f 197 204 198
f 198 204 205
f 198 205 206
f 198 206 199
f 201 207 208
f 201 208 202
f 202 208 207
f 202 207 209
f 202 209 210
f 204 211 205
f 205 212 213
f 205 211 214
f 205 214 212
f 207 215 216
f 207 216 209
f 209 216 217
f 209 217 218
f 209 218 219
f 209 219 210
f 212 214 220
f 212 220 213
f 213 220 221
f 215 222 216
f 216 222 223
f 216 223 224
f 216 224 217
f 217 224 225
f 217 225 218
f 220 226 227
f 220 227 228
f 220 228 221
f 221 228 229
f 221 229 230
f 223 231 224
f 224 231 232
f 224 232 225
f 226 233 227
f 227 229 228
f 227 233 234
f 227 234 229
f 229 234 235
f 229 235 230
f 231 236 237
f 231 237 232
f 233 238 234
f 234 238 239
f 234 239 240
f 234 240 241
f 234 241 235
f 235 241 242
f 236 243 244
f 236 244 237
f 237 244 245
f 240 246 241
f 241 246 242
f 242 246 247
f 242 247 248
f 242 248 249
f 243 250 251
f 243 251 244
f 244 252 253
f 244 253 245
f 244 251 254
f 244 254 252
f 248 255 256
f 248 256 249
f 249 256 257
f 249 257 258
f 250 259 251
f 251 259 254
f 254 259 261
f 254 261 262
f 254 262 263
f 254 263 260
f 255 264 256
f 256 264 265
f 256 265 257
f 257 265 266
f 257 266 258
f 260 263 267
f 261 268 269
f 261 269 270
f 261 270 271
f 261 271 272
f 261 272 273
f 261 273 263
f 261 263 262
f 263 273 267
f 265 274 266
f 265 275 276
f 265 276 277
f 265 277 274
f 267 273 272
f 268 278 269
f 269 278 279
f 269 279 270
f 270 279 280
f 270 280 281
f 270 281 271
f 275 282 283
f 275 283 276
f 276 283 277
f 277 283 282
f 277 282 284
f 277 284 285
f 277 285 286
f 277 286 287
f 279 288 289
f 279 289 290
f 279 290 280
f 280 290 281
f 281 290 291
f 284 292 285
f 285 292 293
f 285 293 294
f 285 294 295
f 285 295 286
f 286 295 287
f 288 296 289
f 289 297 290
f 289 296 297
f 290 297 291
f 291 297 298
f 293 299 300
f 293 300 294
f 294 300 295
f 295 300 301
f 295 301 302
f 296 303 297
f 297 303 304
f 297 304 305
f 297 305 298
f 299 306 307
f 299 307 300
f 300 307 301
f 301 307 302
f 302 307 308
f 303 309 304
f 304 310 311
f 304 309 310
f 306 312 307
f 307 312 313
f 307 313 308
f 308 313 314
f 310 315 316
f 310 316 317
f 310 317 311
f 313 318 314
f 314 318 319
f 315 320 321
f 315 321 316
f 316 321 322
f 316 322 317
f 318 323 324
f 318 324 319
f 319 324 325
f 319 325 326
f 320 327 328
f 320 328 329
f 320 329 330
f 320 330 331
f 320 331 332
f 320 332 333
f 320 333 322
f 320 322 321
f 323 326 325
f 323 325 324
f 323 334 335
f 323 335 326
f 326 335 334
f 326 334 336
f 326 336 337
f 326 337 338
f 327 339 340
f 327 340 328
f 328 340 341
f 328 341 329
f 331 333 332
f 336 342 337
f 337 342 343
f 337 343 338
f 338 343 344
f 339 345 340
f 340 346 347
f 340 347 341
f 340 345 351
f 340 351 346
f 342 348 343
f 343 348 355
f 343 355 349
f 343 349 350
f 343 350 344
f 346 351 352
f 346 352 353
f 346 353 347
f 347 353 354
f 349 355 356
f 349 356 350
f 350 356 362
f 350 362 357
f 352 358 359
f 352 359 353
f 353 359 360
f 353 360 354
f 355 361 362
f 355 362 356
f 357 362 363
f 357 363 364
f 358 365 359
f 358 366 371
f 358 371 365
f 359 365 360
f 360 365 371
f 360 371 367
f 361 368 362
f 362 368 363
f 363 369 370
f 363 370 364
f 363 368 369
f 366 372 371
f 367 371 373
f 368 374 369
f 369 375 376
f 369 376 377
f 369 377 370
f 369 374 381
f 369 381 375
f 371 372 378
f 371 378 373
f 372 379 378
f 373 378 380
f 375 381 382
f 375 382 376
f 378 379 380
f 379 383 384
f 379 384 385
f 379 385 386
f 379 386 380
f 379 387 383
f 381 388 382
f 382 388 389
f 382 389 390
f 382 390 391
f 382 391 392
f 382 392 393
f 382 393 394
f 383 387 395
f 383 395 384
f 384 386 385
f 384 395 396
f 387 397 396
f 387 396 395
f 389 391 390
f 392 398 399
f 392 399 393
f 393 399 394
f 394 399 400
f 396 397 401
f 397 402 401
f 398 403 400
f 398 400 399
f 400 403 404
f 400 404 405
f 401 402 406
f 401 406 407
f 402 408 406
f 404 409 410
f 404 410 411
f 404 411 405
f 406 408 412
f 406 412 413
f 406 413 414
f 406 414 415
f 406 415 407
f 408 416 412
f 409 417 410
f 410 418 419
f 410 419 420
f 410 420 421
f 410 421 411
f 410 417 418
f 412 416 413
f 413 416 422
f 413 422 423
f 413 423 414
f 416 424 425
f 416 425 426
f 416 426 422
f 418 427 419
f 419 427 428
f 419 428 429
f 419 429 420
f 420 429 430
f 420 430 421
f 422 426 423
f 423 426 431
f 424 432 425
f 425 432 426
f 426 433 431
f 426 432 433
f 427 434 435
f 427 435 428
f 428 435 429
f 429 435 436
f 429 436 437
f 432 438 439
f 432 439 440
f 432 440 433
f 432 441 442
f 432 442 438
f 434 443 444
f 434 444 435
f 435 444 436
f 436 444 445
f 436 445 437
f 438 446 439
f 438 442 446
f 439 446 440
f 441 447 442
f 442 447 448
f 442 448 449
f 442 449 450
f 443 451 452
f 443 452 444
f 444 452 453
f 444 453 454
f 444 454 455
f 444 455 456
f 447 457 448
f 448 457 458
f 448 458 449
f 449 459 450
f 449 458 460
f 449 460 459
f 451 461 453
f 451 453 452
f 453 461 455
f 453 455 454
f 455 462 463
f 455 463 464
f 455 464 456
f 456 464 465
f 458 466 460
f 460 466 467
f 462 468 463
f 463 469 470
f 463 470 471
f 463 471 472
f 463 472 464
f 463 468 469
f 464 472 465
f 466 473 474
f 466 474 467
f 466 475 473
f 470 476 477
f 470 477 471
f 473 478 474
f 473 475 479
f 473 479 478
f 475 480 481
f 475 481 479
f 476 482 483
f 476 483 477
f 477 483 484
f 478 479 485
f 479 481 486
f 479 486 487
f 479 487 488
f 479 488 485
f 480 489 481
f 481 489 490
f 481 490 486
f 482 491 492
f 482 492 483
f 483 492 493
f 483 493 484
f 484 493 494
f 486 490 495
f 486 495 496
f 486 496 487
f 489 495 490
f 489 497 495
f 491 498 499
f 491 499 492
f 492 499 493
f 493 499 500
f 493 500 501
f 493 501 494
f 495 497 502
f 495 502 503
f 497 504 502
f 498 505 499
f 499 505 506
f 499 506 500
f 500 506 507
f 500 507 508
f 502 504 503
f 503 504 509
f 504 510 511
f 504 511 512
f 504 512 509
f 506 513 514
f 506 514 508
f 506 508 507
f 510 515 511
f 511 516 512
f 511 515 517
f 511 517 518
f 511 518 519
f 511 519 520
f 511 520 516
f 513 521 514
f 514 521 522
f 514 522 523
f 514 523 524
f 517 525 526
f 517 526 518
f 518 526 519
f 519 526 527
f 519 527 520
f 522 528 523
f 523 528 529
f 523 529 530
f 523 530 531
f 523 531 532
f 523 532 533
f 523 533 524
f 525 534 526
f 526 534 535
f 526 535 536
f 526 536 537
f 526 537 527
f 529 538 539
f 529 539 540
f 529 540 530
f 530 540 541
f 530 541 542
f 535 543 536
f 536 543 544
f 536 544 537
f 538 545 539
f 539 545 541
f 539 541 540
f 541 546 547
f 541 547 548
f 541 548 542
f 541 545 546
f 543 549 550
f 543 550 544
f 544 550 551
f 546 552 547
f 547 552 553
f 547 553 554
f 547 554 555
f 547 555 556
f 547 556 548
f 549 557 558
f 549 558 559
f 549 559 550
f 550 559 551
f 553 560 555
f 553 555 554
f 555 560 561
f 555 561 556
f 557 562 559
f 557 559 558
f 559 562 563
f 560 564 561
f 561 564 565
f 562 566 563
f 562 567 566
f 563 566 568
f 564 569 570
f 564 570 571
f 564 571 572
f 564 572 565
f 565 572 571
f 566 567 573
f 566 573 568
f 567 574 573
f 569 575 576
f 569 576 570
f 570 576 575
f 570 575 577
f 573 574 578
f 573 578 579
f 574 580 581
f 574 581 578
f 575 582 577
f 577 582 583
f 577 583 584
f 578 581 585
f 578 585 586
f 578 586 579
f 580 587 581
f 581 587 585
f 582 588 583
f 583 588 589
f 583 589 590
f 583 590 591
f 583 591 592
f 583 592 593
f 583 593 584
f 584 593 594
f 585 587 595
f 585 595 586
f 587 596 595
f 591 597 598
f 591 598 599
f 591 599 592
f 592 599 593
f 593 599 600
f 593 600 594
f 595 596 601
f 595 601 602
f 595 602 603
f 597 604 605
f 597 605 598
f 598 605 606
f 601 607 603
f 601 603 602
f 603 607 608
f 604 609 610
f 604 610 606
f 604 606 605
f 607 611 608
f 608 611 612
f 608 612 613
f 608 613 614
f 609 615 616
f 609 616 617
f 609 617 618
f 609 618 619
f 609 619 620
f 609 620 610
f 611 621 612
f 612 621 622
f 612 622 613
f 613 623 624
f 613 624 614
f 613 622 625
f 613 625 623
f 615 626 616
f 616 626 627
f 616 627 628
f 616 628 618
f 616 618 617
f 618 628 629
f 621 630 622
f 622 630 625
f 625 630 631
f 625 631 632
f 625 632 633
f 625 633 634
f 625 634 635
f 627 636 637
f 627 637 629
f 627 629 628
f 633 638 634
f 634 638 639
f 634 639 640
f 634 640 641
f 634 641 642
f 634 642 643
f 634 643 644
f 634 644 635
f 636 645 646
f 636 646 647
f 636 647 637
f 640 648 649
f 640 649 641
f 642 644 643
f 645 650 646
f 646 650 651
f 646 651 652
f 646 652 653
f 646 653 654
f 646 654 655
f 646 655 656
f 646 656 657
f 646 657 647
f 648 658 649
f 649 658 659
f 651 653 652
f 653 660 654
f 654 660 661
f 658 662 659
f 659 662 663
f 659 663 664
f 660 665 661
f 661 665 666
f 662 667 663
f 663 667 668
f 663 668 669
f 663 669 670
f 663 670 664
f 664 670 669
f 664 669 671
f 665 672 673
f 665 673 666
f 666 673 674
f 667 675 676
f 667 676 669
f 667 669 668
f 669 676 671
f 671 676 677
f 672 678 679
f 672 679 673
f 673 679 680
f 673 680 681
f 673 681 674
f 674 680 682
f 674 682 683
f 674 681 680
f 675 684 676
f 676 684 685
f 676 685 686
f 676 686 687
f 676 687 677
f 678 688 680
f 678 680 679
f 680 688 689
f 680 689 682
f 682 690 683
f 682 689 691
f 682 691 692
f 682 692 693
f 682 693 694
f 682 694 690
f 685 695 696
f 685 696 697
f 685 697 686
f 686 697 687
f 687 697 698
f 691 699 700
f 691 700 692
f 692 700 694
f 692 694 693
f 694 700 701
f 695 702 696
f 696 702 703
f 696 703 704
f 696 704 705
f 696 705 706
f 696 706 707
f 696 707 708
f 696 708 697
f 697 708 698
f 699 709 700
f 700 710 701
f 700 709 711
f 700 711 710
f 703 712 711
f 703 711 704
f 704 711 709
f 704 709 705
f 710 711 712

