# https://github.com/mikedh/trimesh
v 0.03693011 -0.91102102 -1.39667803
v 0.00892081 -1.16008243 -1.43896004
v 0.01141273 -1.08985303 -1.44013745
v 0.01375514 -1.01953783 -1.44070049
v 0.01599789 -0.94922273 -1.44070049
v 0.01729369 -0.91102102 -1.44047020
v 0.02965365 -0.91102102 -1.37023892
v 0.00069743 -1.27322968 -1.36071778
v 0.00333889 -1.29826884 -1.39624291
v 0.00164436 -1.34903288 -1.41766549
v 0.00164436 -1.34903288 -1.43343170
v 0.00368775 -1.30071272 -1.43524885
v 0.00637904 -1.23039752 -1.43737318
v -0.03244523 -1.34903288 -1.43535131
v -0.03518636 -1.30071272 -1.43642626
v -0.02716234 -1.16008243 -1.43896004
v -0.02332477 -1.08985303 -1.44013745
v -0.02013510 -1.01953783 -1.44070049
v -0.01719462 -0.94922273 -1.44070049
v -0.01569946 -0.91102102 -1.44047020
v 0.01963610 -0.91102102 -1.33507210
v -0.00179450 -1.32009217 -1.37254241
v -0.00752593 -0.91102102 -1.29995651
v -0.04565246 -0.91102102 -1.25844226
v -0.07660223 -0.91102102 -1.22647483
v -0.03663167 -1.34903288 -1.33537929
v -0.02337461 -1.34903288 -1.35122230
v -0.00433626 -1.34903288 -1.38516047
v -0.07425982 -1.34903288 -1.43396918
v -0.47212139 -1.24227391 -1.43714289
v -0.47212139 -1.23039752 -1.43750121
v -0.44132115 -1.08985303 -1.43847390
v -0.37274320 -0.94922273 -1.43939525
v -0.32365219 -0.91102102 -1.43808981
v -0.08647027 -0.91102102 -1.21861734
v -0.07964239 -1.34903288 -1.29847202
v -0.10939603 -1.34903288 -1.41162525
v -0.47212139 -1.27974674 -1.40067073
v -0.47212139 -1.16998651 -1.43547913
v -0.47212139 -1.14700547 -1.43271507
v -0.47212139 -1.08985303 -1.42511354
v -0.42960904 -1.03651635 -1.43563273
v -0.36407128 -0.91102102 -1.43732205
v -0.10869829 -0.91102102 -1.20134106
v -0.11477860 -1.34903288 -1.27180263
v -0.28338259 -1.34903288 -1.29261093
v -0.31856864 -1.34903288 -1.26215356
v -0.35604725 -1.34903288 -1.22667955
v -0.35604725 -1.34903288 -1.21134845
v -0.47212139 -1.26311124 -1.37008543
v -0.47212139 -1.07518974 -1.42132545
v -0.41799667 -0.98965387 -1.43043715
v -0.39621719 -0.91102102 -1.41733274
v -0.13720597 -0.91102102 -1.19066817
v -0.17578105 -1.01953783 -1.18281068
v -0.17578105 -1.08985303 -1.19097526
v -0.23000544 -1.34903288 -1.19911437
v -0.20089970 -1.34903288 -1.21488058
v -0.16576349 -1.34903288 -1.23666137
v -0.34637859 -1.34903288 -1.20223685
v -0.47212139 -0.91102102 -1.20768849
v -0.47212139 -0.91668053 -1.20981282
v -0.47212139 -0.92885709 -1.21495728
v -0.47212139 -1.22911125 -1.34446532
v -0.47212139 -1.23039752 -1.34541234
v -0.47212139 -1.01687959 -1.40113152
v -0.45462803 -1.01567912 -1.41349362
v -0.40787943 -0.94922273 -1.42296354
v -0.47212139 -0.95985571 -1.37817321
v -0.47212139 -0.95025169 -1.37418050
v -0.44530820 -0.91102102 -1.37799405
v -0.17872153 -0.91102102 -1.18746889
v -0.17578105 -0.94922273 -1.18066068
v -0.24605349 -1.23039752 -1.17925309
v -0.24605349 -1.30071272 -1.18449990
v -0.24605349 -1.34903288 -1.19071941
v -0.31752203 -1.34903288 -1.18688019
v -0.47212139 -0.91102102 -1.35539417
v -0.29434709 -1.34903288 -1.18265709
f 1 2 3
f 1 3 4
f 1 4 5
f 1 5 6
f 1 6 20
f 1 20 34
f 1 34 43
f 1 43 53
f 1 53 71
f 1 71 78
f 1 78 61
f 1 61 72
f 1 72 54
f 1 54 44
f 1 44 35
f 1 35 25
f 1 25 24
f 1 24 23
f 1 23 21
f 1 21 7
f 1 7 8
f 1 8 9
f 1 9 10
f 1 10 11
f 1 11 12
f 1 12 13
f 1 13 2
f 2 13 14
f 2 14 15
f 2 15 16
f 2 16 17
f 2 17 3
f 3 17 18
f 3 18 4
f 4 18 19
f 4 19 5
f 5 19 20
f 5 20 6
f 7 21 8
f 8 22 9
f 8 21 23
f 8 23 24
f 8 24 25
f 8 25 26
f 8 26 27
f 8 27 22
f 9 22 10
f 10 22 28
f 10 28 27
f 10 27 26
f 10 26 36
f 10 36 45
f 10 45 59
f 10 59 58
f 10 58 57
f 10 57 76
f 10 76 79
f 10 79 77
f 10 77 60
f 10 60 49
f 10 49 48
f 10 48 47
f 10 47 46
f 10 46 37
f 10 37 29
f 10 29 14
f 10 14 11
f 11 14 12
f 12 14 13
f 14 29 30
f 14 30 31
f 14 31 15
f 15 31 16
f 16 31 17
f 17 31 18
f 18 31 32
f 18 32 33
f 18 33 19
f 19 33 20
f 20 33 34
f 22 27 28
f 25 35 36
f 25 36 26
f 29 37 38
f 29 38 30
f 30 38 50
f 30 50 65
f 30 65 64
f 30 64 63
f 30 63 62
f 30 62 61
f 30 61 78
f 30 78 70
f 30 70 69
f 30 69 66
f 30 66 51
f 30 51 41
f 30 41 40
f 30 40 39
f 30 39 31
f 31 39 32
f 32 39 40
f 32 40 41
f 32 41 42
f 32 42 33
f 33 42 43
f 33 43 34
f 35 44 36
f 36 44 45
f 37 46 38
f 38 46 47
f 38 47 48
f 38 48 49
f 38 49 50
f 41 51 52
f 41 52 42
f 42 52 43
f 43 52 53
f 44 54 55
f 44 55 56
f 44 56 57
f 44 57 58
f 44 58 59
f 44 59 45
f 49 60 61
f 49 61 62
f 49 62 63
f 49 63 64
f 49 64 65
f 49 65 50
f 51 66 67
f 51 67 52
f 52 67 68
f 52 68 53
f 53 68 67
f 53 67 66
f 53 66 69
f 53 69 70
f 53 70 71
f 54 72 73
f 54 73 55
f 55 73 74
f 55 74 75
f 55 75 56
f 56 75 76
f 56 76 57
f 60 77 61
f 61 77 79
f 61 79 74
f 61 74 73
f 61 73 72
f 70 78 71
f 74 79 75
f 75 79 76

