# https://github.com/mikedh/trimesh
v -0.56942951 1.76112519 0.96559031
v -0.59433545 1.76112519 1.08334465
v -0.38075298 1.34511885 1.23256290
v -0.38075298 1.34451517 1.23096881
v -0.38075298 1.34313544 1.22746706
v -0.38075298 1.32308536 1.19229227
v -0.38075298 1.32067071 1.18933926
v -0.40261488 1.32067071 1.11015689
v -0.40554826 1.32067071 1.10085362
v -0.52315977 1.43972065 1.04030394
v -0.52498618 1.43972065 1.03972901
v -0.57800819 1.75090607 0.96559031
v -0.83271317 1.76112519 0.96559031
v -0.59854179 1.76112519 1.10085362
v -0.38075298 1.32067071 1.23256290
v -0.66933008 1.73055414 1.20318964
v -0.70458585 1.73055414 1.23256290
v -0.60169654 1.32067071 1.10085362
v -0.60324625 1.73245143 0.96559031
v -0.83271317 1.65462271 0.96559031
v -0.66944077 1.70653723 0.96559031
v -0.63739507 1.71817925 0.96559031
v -0.94617370 1.73055414 1.10095818
v -0.83271317 1.76112519 1.10085362
v -0.72583896 1.32067071 1.23256290
v -0.78439564 1.73055414 1.23256290
v -0.61702753 1.32067071 1.11486078
v -0.94617370 1.64742192 1.10111497
v -0.62627041 1.32067071 1.12419020
v -0.65184054 1.32067071 1.15003557
v -0.66523443 1.32067071 1.16422566
v -0.68681961 1.32067071 1.18811103
v -0.94617370 1.73055414 1.23253670
v -0.94611838 1.65526946 1.23256290
v -0.94617370 1.65522639 1.23253670
v -0.69534298 1.32067071 1.19767560
f 1 2 3
f 1 3 4
f 1 4 5
f 1 5 6
f 1 6 7
f 1 7 8
f 1 8 9
f 1 9 10
f 1 10 11
f 1 11 12
f 1 12 19
f 1 19 22
f 1 22 21
f 1 21 20
f 1 20 13
f 1 13 24
f 1 24 14
f 1 14 2
f 2 14 3
f 3 15 7
f 3 7 6
f 3 6 5
f 3 5 4
f 3 14 16
f 3 16 17
f 3 17 26
f 3 26 34
f 3 34 25
f 3 25 15
f 7 15 25
f 7 25 36
f 7 36 32
f 7 32 31
f 7 31 30
f 7 30 29
f 7 29 27
f 7 27 18
f 7 18 9
f 7 9 8
f 9 18 11
f 9 11 10
f 11 19 12
f 11 18 20
f 11 20 21
f 11 21 22
f 11 22 19
f 13 20 23
f 13 23 33
f 13 33 24
f 14 24 26
f 14 26 17
f 14 17 16
f 18 27 20
f 20 28 23
f 20 27 29
f 20 29 30
f 20 30 31
f 20 31 32
f 20 32 28
f 23 28 35
f 23 35 33
f 24 33 26
f 25 34 35
f 25 35 28
f 25 28 36
f 26 33 34
f 28 32 36
f 33 35 34

