# https://github.com/mikedh/trimesh
v -0.48154085 0.10166008 -2.09779382
v -0.65865007 0.10166008 -2.01105643
v -0.65865007 0.10838874 -2.01599993
v -0.65865007 0.16323439 -2.01858421
v -0.65865007 0.16572259 -2.01869652
v -0.65865007 0.17662162 -2.01858421
v -0.48108903 0.10660144 -2.09779382
v 0.47753725 0.10166008 -2.09779382
v -0.65865007 0.10166008 -0.95020897
v -0.65865007 0.45964613 -1.96768764
v -0.62679751 0.45964613 -1.98881025
v -0.59212112 0.45964613 -2.00644987
v -0.45815969 0.17595577 -2.09779382
v -0.48086309 0.10810839 -2.09779382
v 0.47945749 0.10169512 -2.09779382
v 0.47957043 0.10166008 -2.09768150
v -0.65865007 0.45964613 -0.95020897
v 0.49527079 0.10166008 -0.95020897
v -0.52988442 0.45964613 -2.02487611
v -0.40970315 0.26444473 -2.09779382
v -0.43172886 0.22803285 -2.09779382
v 0.47911860 0.10414828 -2.09779382
v 0.47979631 0.45964613 -2.01577531
v 0.48103879 0.10166008 -2.09476029
v 0.49527079 0.45964613 -0.95020897
v 0.49527079 0.10166008 -2.06330099
v -0.16098217 0.45964613 -2.09779382
v -0.17566596 0.45480991 -2.09779382
v -0.22751106 0.43139975 -2.09779382
v -0.26410763 0.41002223 -2.09779382
v -0.31821179 0.37480187 -2.09779382
v -0.34949958 0.35051559 -2.09779382
v -0.37333251 0.31816891 -2.09779382
v 0.45607632 0.17350261 -2.09779382
v 0.45528567 0.17578054 -2.09779382
v 0.43258227 0.22578994 -2.09779382
v 0.43156568 0.22789266 -2.09779382
v 0.41055653 0.26314807 -2.09779382
v 0.37486361 0.31816891 -2.09779382
v 0.31816155 0.37332997 -2.09779382
v 0.46206282 0.45964613 -2.02105596
v 0.49436715 0.45964613 -1.95914882
v 0.49527079 0.45964613 -1.43490457
v 0.49527079 0.17578054 -2.03824611
v 0.17143651 0.45964613 -2.09779382
v 0.26281492 0.41012736 -2.09779382
v 0.22576658 0.43287165 -2.09779382
v 0.17584165 0.45796398 -2.09779382
v 0.17346964 0.45901535 -2.09779382
v 0.49527079 0.40522103 -1.67781426
v 0.49527079 0.38549063 -1.74702434
v 0.49527079 0.36008292 -1.80230242
v 0.49527079 0.34147393 -1.83735703
v 0.49527079 0.30776052 -1.89128693
v 0.49527079 0.22943465 -2.01116875
v 0.49527079 0.20441241 -2.02588715
f 1 2 3
f 1 3 4
f 1 4 5
f 1 5 6
f 1 6 7
f 1 7 14
f 1 14 13
f 1 13 21
f 1 21 20
f 1 20 33
f 1 33 32
f 1 32 31
f 1 31 30
f 1 30 29
f 1 29 28
f 1 28 27
f 1 27 45
f 1 45 49
f 1 49 48
f 1 48 47
f 1 47 46
f 1 46 40
f 1 40 39
f 1 39 38
f 1 38 37
f 1 37 36
f 1 36 35
f 1 35 34
f 1 34 22
f 1 22 15
f 1 15 8
f 1 8 16
f 1 16 24
f 1 24 26
f 1 26 18
f 1 18 9
f 1 9 2
f 2 9 17
f 2 17 10
f 2 10 6
f 2 6 5
f 2 5 4
f 2 4 3
f 6 10 11
f 6 11 12
f 6 12 13
f 6 13 14
f 6 14 7
f 8 15 16
f 9 18 25
f 9 25 17
f 10 17 25
f 10 25 43
f 10 43 42
f 10 42 23
f 10 23 41
f 10 41 45
f 10 45 27
f 10 27 19
f 10 19 12
f 10 12 11
f 12 19 20
f 12 20 21
f 12 21 13
f 15 22 16
f 16 22 23
f 16 23 24
f 18 26 44
f 18 44 56
f 18 56 55
f 18 55 54
f 18 54 53
f 18 53 52
f 18 52 51
f 18 51 50
f 18 50 43
f 18 43 25
f 19 27 28
f 19 28 29
f 19 29 30
f 19 30 31
f 19 31 32
f 19 32 33
f 19 33 20
f 22 34 23
f 23 34 35
f 23 35 36
f 23 36 37
f 23 37 38
f 23 38 39
f 23 39 40
f 23 40 41
f 23 42 26
f 23 26 24
f 26 42 44
f 40 46 41
f 41 46 47
f 41 47 48
f 41 48 49
f 41 49 45
f 42 43 50
f 42 50 51
f 42 51 52
f 42 52 53
f 42 53 54
f 42 54 55
f 42 55 56
f 42 56 44

