# https://github.com/mikedh/trimesh
v -0.64966152 -0.01473731 0.62098491
v 0.00824873 -0.01473731 0.62098491
v -0.64966152 -0.01473731 0.96559031
v -0.64966152 1.30643383 0.62098491
v 0.00824873 -0.01473731 0.96559031
v 0.00824873 1.36759417 0.62098491
v -0.64966152 1.12146446 0.96559031
v -0.64966152 1.30643383 0.64233933
v -0.61372631 1.32564795 0.62098491
v 0.00824873 1.29817989 0.96559031
v -0.51397075 1.36759417 0.62098491
v 0.00824873 1.36759417 0.87116537
v -0.46019675 1.23526056 0.96559031
v -0.64966152 1.25488056 0.80528050
v -0.64966152 1.30359224 0.71264353
v -0.61372631 1.32564795 0.64233933
v -0.58925428 1.33836711 0.62098491
v -0.03515687 1.29817989 0.96559031
v -0.52730151 1.36339957 0.62098491
v -0.51397075 1.36759417 0.62904764
v -0.03599406 1.36759417 0.87116537
v -0.38813316 1.25163308 0.96559031
v -0.24291121 1.36759417 0.84249046
v -0.52730151 1.34662095 0.76115479
v -0.56999868 1.33944961 0.75326076
v -0.64966152 1.28397225 0.76921753
v -0.64966152 1.26313450 0.79519365
v -0.61134351 1.32402421 0.71264353
v -0.64966152 1.29303806 0.74759324
v -0.57618109 1.34269708 0.71264353
v -0.57856389 1.34391483 0.64233933
v -0.57856389 1.34391483 0.62098491
v -0.11836164 1.36759417 0.86033637
v -0.17071883 1.36759417 0.85325198
v -0.17580643 1.28410761 0.96559031
v -0.52730151 1.36339957 0.64233933
v -0.56297914 1.34986843 0.62098491
v -0.51384193 1.36759417 0.63825736
v -0.35219798 1.25758678 0.96559031
v -0.26203799 1.33295466 0.88472694
v -0.27833120 1.36759417 0.82548790
v -0.21515482 1.33647276 0.88918002
v -0.17580643 1.36759417 0.85254352
v -0.47552392 1.36759417 0.72542920
v -0.49316951 1.36759417 0.71264353
v -0.52730151 1.36042261 0.71264353
v -0.17484043 1.36759417 0.85267847
v -0.17580643 1.33850237 0.89194628
v -0.24587360 1.27436519 0.96559031
v -0.51377755 1.36759417 0.64233933
v -0.50682234 1.36759417 0.69216625
f 1 2 5
f 1 5 3
f 1 3 7
f 1 7 14
f 1 14 27
f 1 27 26
f 1 26 29
f 1 29 15
f 1 15 8
f 1 8 4
f 1 4 9
f 1 9 17
f 1 17 32
f 1 32 37
f 1 37 19
f 1 19 11
f 1 11 6
f 1 6 2
f 2 6 12
f 2 12 10
f 2 10 5
f 3 5 10
f 3 10 18
f 3 18 35
f 3 35 49
f 3 49 39
f 3 39 22
f 3 22 13
f 3 13 7
f 4 8 16
f 4 16 9
f 6 11 20
f 6 20 38
f 6 38 50
f 6 50 51
f 6 51 45
f 6 45 44
f 6 44 41
f 6 41 23
f 6 23 43
f 6 43 47
f 6 47 34
f 6 34 33
f 6 33 21
f 6 21 12
f 7 13 14
f 8 15 16
f 9 16 17
f 10 12 21
f 10 21 18
f 11 19 36
f 11 36 20
f 13 22 23
f 13 23 24
f 13 24 25
f 13 25 26
f 13 26 27
f 13 27 14
f 15 25 28
f 15 28 16
f 15 29 25
f 16 28 30
f 16 30 31
f 16 31 17
f 17 31 32
f 18 21 33
f 18 33 34
f 18 34 35
f 19 37 36
f 20 36 38
f 22 39 40
f 22 40 23
f 23 41 24
f 23 40 42
f 23 42 43
f 24 41 44
f 24 44 45
f 24 45 46
f 24 46 25
f 25 46 30
f 25 30 28
f 25 29 26
f 30 46 36
f 30 36 31
f 31 36 37
f 31 37 32
f 34 47 48
f 34 48 35
f 35 48 42
f 35 42 49
f 36 46 50
f 36 50 38
f 39 49 40
f 40 49 42
f 42 48 43
f 43 48 47
f 45 51 46
f 46 51 50

