# https://github.com/mikedh/trimesh
v -1.41267555 -0.77379305 1.23256290
v -1.41267555 -0.76943542 1.22772877
v -0.98541201 -1.10073986 1.10086755
v -0.98427934 -1.10073986 1.10971083
v -0.98241850 -1.10073986 1.12380082
v -0.92537995 -1.10073986 1.23256290
v -1.41267555 0.17106578 1.23256290
v -1.41267555 -0.76196522 1.21945262
v -0.58614196 -1.10073986 1.10086755
v -1.41267555 -0.74428573 1.19994845
v -1.41267555 -0.71004718 1.16238384
v -1.41267555 -0.67468811 1.12716537
v -1.41267555 -0.64667477 1.10086755
v -0.58614196 -1.10073986 1.23256290
v -0.58614196 0.17106578 1.23256290
v -1.41267555 0.17106578 1.10086755
v -0.58614196 0.17106578 1.10086755
f 1 2 3
f 1 3 4
f 1 4 5
f 1 5 6
f 1 6 14
f 1 14 15
f 1 15 7
f 1 7 16
f 1 16 13
f 1 13 12
f 1 12 11
f 1 11 10
f 1 10 8
f 1 8 2
f 2 8 3
f 3 9 14
f 3 14 6
f 3 6 5
f 3 5 4
f 3 8 10
f 3 10 11
f 3 11 12
f 3 12 13
f 3 13 16
f 3 16 17
f 3 17 9
f 7 15 17
f 7 17 16
f 9 17 15
f 9 15 14

