# https://github.com/mikedh/trimesh
v 0.79982292 0.66533292 -1.38498949
v 0.79982292 0.66808215 -1.38694210
v 1.08170396 0.99331162 -1.57348168
v 0.94822783 0.66533292 -1.30017109
v 0.79982292 0.66533292 -0.95009665
v 0.79982292 0.72478041 -1.42410355
v 0.79982292 0.74777392 -1.43276851
v 1.05612356 1.02048255 -1.57348168
v 1.08170396 1.03005126 -1.57348168
v 1.08170396 0.68586285 -1.23957777
v 1.01644217 0.66533292 -1.26093486
v 1.02375485 0.66533292 -0.95009665
v 0.79982292 0.69189680 -0.95009665
v 0.79982292 0.77144576 -1.43740608
v 1.04718285 1.03005126 -1.57348168
v 1.08170396 1.03005126 -0.95009665
v 1.02038825 0.66533292 -1.25825001
v 1.08170396 0.68561287 -1.20174506
v 1.02284419 0.66533292 -1.19234786
v 1.07750947 0.68875483 -0.95009665
v 1.01622142 1.03005126 -0.95009665
v 0.79982292 0.70564293 -0.95985992
v 0.79982292 0.80297259 -1.43734510
v 0.82783164 0.85870685 -1.43716196
v 0.79982292 0.84403239 -1.39664439
v 0.99088943 1.03005126 -1.39664439
v 1.08170396 0.70153697 -0.95009665
v 0.99831243 1.03005126 -1.03558632
v 0.96475709 1.00512976 -1.06579141
v 0.82305771 0.86395534 -1.06359468
v 0.79982292 0.81329109 -1.04052899
v 0.79982292 0.81197004 -1.03936960
v 0.79982292 0.80882807 -1.03668464
v 0.79982292 0.77487339 -1.00940852
v 0.96475709 1.00512976 -1.09843734
v 0.99792604 1.03005126 -1.04370207
f 1 2 3
f 1 3 4
f 1 4 11
f 1 11 17
f 1 17 19
f 1 19 12
f 1 12 5
f 1 5 13
f 1 13 22
f 1 22 34
f 1 34 33
f 1 33 32
f 1 32 31
f 1 31 25
f 1 25 23
f 1 23 14
f 1 14 7
f 1 7 6
f 1 6 2
f 2 6 3
f 3 6 7
f 3 7 8
f 3 8 15
f 3 15 9
f 3 9 16
f 3 16 27
f 3 27 18
f 3 18 10
f 3 10 11
f 3 11 4
f 5 12 20
f 5 20 27
f 5 27 16
f 5 16 21
f 5 21 13
f 7 14 15
f 7 15 8
f 9 15 26
f 9 26 36
f 9 36 28
f 9 28 21
f 9 21 16
f 10 17 11
f 10 18 19
f 10 19 17
f 12 19 18
f 12 18 20
f 13 21 22
f 14 23 15
f 15 23 24
f 15 24 25
f 15 25 26
f 18 27 20
f 21 28 29
f 21 29 30
f 21 30 31
f 21 31 32
f 21 32 33
f 21 33 34
f 21 34 22
f 23 25 24
f 25 31 30
f 25 30 29
f 25 29 35
f 25 35 26
f 26 35 29
f 26 29 36
f 28 36 29

