# https://github.com/mikedh/trimesh
v 0.00824870 2.25040954 0.96552283
v 0.00824870 2.24987836 0.95918059
v 0.00229380 2.25005542 0.95692032
v -0.00240742 2.25005542 0.95692032
v -0.00836233 2.25040954 0.96559031
v -0.00470583 2.25040954 0.96559031
v 0.00824870 1.92367321 0.96559031
v 0.00824870 2.24917032 0.95098296
v 0.00824870 2.22060961 0.62098491
v -0.03521166 2.22238002 0.64233933
v -0.02957018 2.24922941 0.96559031
v -0.03521166 2.22060961 0.62098491
v 0.00824870 1.85380580 0.96559031
v 0.00824870 1.72038520 0.62098491
v -0.10552136 2.21624297 0.62098491
v -0.15441428 2.21317445 0.62098491
v -0.17583106 2.21931150 0.71264353
v -0.21782883 2.23725034 0.96559031
v -0.05683739 1.64762633 0.69115419
v -0.04179341 1.64762633 0.64233933
v 0.00824870 1.74174669 0.69388674
v -0.84685513 1.64762633 0.96559031
v 0.00824870 1.72168341 0.63231995
v -0.04210683 1.64762633 0.64021400
v -0.04544991 1.64762633 0.62098491
v -0.17583106 2.21181725 0.62098491
v -0.24614076 2.23542104 0.96559031
v 0.00824870 1.72286355 0.64233933
v 0.00824870 1.73165602 0.66794435
v -1.05903786 1.64762633 0.96559031
v -1.05903786 1.64762633 0.62098491
v -0.24614076 2.20715558 0.62098491
v -0.24614076 2.20892578 0.64233933
v -0.24614076 2.22621568 0.85325198
v -0.31645046 2.22656959 0.96559031
v -1.05903786 1.98350904 0.96559031
v -1.05903786 1.95164386 0.62098491
v -0.29503368 2.20084146 0.62098491
v -0.31645046 2.19983839 0.64233933
v -0.38676016 2.21329242 0.96559031
v -1.01944291 2.00310033 0.96559031
v -1.05903786 1.98268281 0.95573960
v -1.05903786 1.95247008 0.62894644
v -1.04065081 1.96197048 0.62098491
v -0.31645046 2.19806797 0.62098491
v -0.38529754 2.18502695 0.62098491
v -0.38676016 2.19234414 0.71264353
v -0.45706987 2.19057372 0.85325198
v -0.42875793 2.20526719 0.96559031
v -1.01944291 1.99300965 0.85325198
v -1.05339638 1.96810753 0.75410414
v -1.05747081 1.97023186 0.80096238
v -0.94276048 2.03921417 0.96559031
v -1.05903786 1.97105808 0.81971917
v -1.05903786 1.96073125 0.71264353
v -1.04274025 1.96297376 0.64233933
v -1.00554821 1.97867031 0.62098491
v -0.41778836 2.17883081 0.62098491
v -0.49447087 2.18007004 0.81266852
v -0.45706987 2.19983839 0.96559031
v -1.05903786 1.96527516 0.75872586
v -1.05903786 1.96916970 0.79974793
v -0.87882356 2.06925005 0.96559031
v -0.88342032 2.05125212 0.78895261
v -0.87119714 2.04186948 0.62098491
v -0.45445804 2.17180866 0.62098491
v -0.48433708 2.17812277 0.76584401
v -0.52800636 2.18614800 0.96559031
v -0.50648514 2.19033778 0.96559031
v -0.50596275 2.16154112 0.62098491
v -0.55725856 2.18042416 0.96559031
v -0.86043645 2.04688527 0.62098491
v -0.86252590 2.04782947 0.64233933
v -0.80903625 2.09816468 0.96559031
v -0.52727506 2.15723337 0.62098491
v -0.52727506 2.15906267 0.64233933
v -0.56112402 2.17930291 0.96181196
v -0.56164641 2.17947997 0.96559031
v -0.80851386 2.06995809 0.64233933
v -0.80851386 2.06806991 0.62098491
v -0.77570962 2.11008465 0.96559031
v -0.80203662 2.09739755 0.92831288
v -0.80851386 2.08848722 0.85325198
v -0.57616800 2.14419214 0.62098491
v -0.59758476 2.13846830 0.62098491
v -0.56572078 2.17818186 0.96559031
v -0.78709710 2.07562305 0.62098491
v -0.74217408 2.11781485 0.92831288
v -0.73820416 2.09462406 0.64233933
v -0.73820416 2.09279476 0.62098491
v -0.66789446 2.14513633 0.96559031
v -0.59758476 2.14029760 0.64233933
v -0.64303011 2.12371596 0.62098491
v -0.67478963 2.12070631 0.70620010
v -0.59758476 2.16437350 0.92355618
v -0.59507744 2.16874013 0.96559031
f 1 2 3
f 1 3 4
f 1 4 5
f 1 5 6
f 1 6 7
f 1 7 13
f 1 13 21
f 1 21 29
f 1 29 28
f 1 28 23
f 1 23 14
f 1 14 9
f 1 9 8
f 1 8 2
f 2 8 3
f 3 8 9
f 3 9 12
f 3 12 4
f 4 10 11
f 4 11 5
f 4 12 10
f 5 11 18
f 5 18 27
f 5 27 35
f 5 35 40
f 5 40 49
f 5 49 60
f 5 60 69
f 5 69 68
f 5 68 71
f 5 71 78
f 5 78 86
f 5 86 96
f 5 96 91
f 5 91 81
f 5 81 74
f 5 74 63
f 5 63 53
f 5 53 41
f 5 41 36
f 5 36 30
f 5 30 22
f 5 22 13
f 5 13 7
f 5 7 6
f 9 14 25
f 9 25 31
f 9 31 37
f 9 37 44
f 9 44 57
f 9 57 65
f 9 65 72
f 9 72 80
f 9 80 87
f 9 87 90
f 9 90 93
f 9 93 85
f 9 85 84
f 9 84 75
f 9 75 70
f 9 70 66
f 9 66 58
f 9 58 46
f 9 46 45
f 9 45 38
f 9 38 32
f 9 32 26
f 9 26 16
f 9 16 15
f 9 15 12
f 10 12 15
f 10 15 11
f 11 15 16
f 11 16 17
f 11 17 18
f 13 19 20
f 13 20 21
f 13 22 19
f 14 23 20
f 14 20 24
f 14 24 25
f 16 26 17
f 17 26 27
f 17 27 18
f 19 22 30
f 19 30 31
f 19 31 25
f 19 25 24
f 19 24 20
f 20 23 28
f 20 28 29
f 20 29 21
f 26 32 33
f 26 33 34
f 26 34 27
f 27 34 35
f 30 36 42
f 30 42 54
f 30 54 62
f 30 62 61
f 30 61 55
f 30 55 43
f 30 43 37
f 30 37 31
f 32 38 33
f 33 38 35
f 33 35 34
f 35 38 39
f 35 39 40
f 36 41 42
f 37 43 44
f 38 45 39
f 39 45 46
f 39 46 47
f 39 47 40
f 40 47 48
f 40 48 49
f 41 50 51
f 41 51 52
f 41 52 42
f 41 53 50
f 42 52 54
f 43 55 51
f 43 51 56
f 43 56 44
f 44 56 57
f 46 58 47
f 47 58 48
f 48 58 59
f 48 59 49
f 49 59 60
f 50 53 57
f 50 57 51
f 51 55 61
f 51 61 52
f 51 57 56
f 52 61 62
f 52 62 54
f 53 63 64
f 53 64 57
f 57 64 65
f 58 66 67
f 58 67 59
f 59 68 69
f 59 69 60
f 59 67 66
f 59 66 70
f 59 70 71
f 59 71 68
f 63 72 73
f 63 73 64
f 63 74 72
f 64 73 65
f 65 73 72
f 70 75 76
f 70 76 71
f 71 77 78
f 71 76 77
f 72 74 79
f 72 79 80
f 74 81 82
f 74 82 83
f 74 83 79
f 75 84 77
f 75 77 76
f 77 84 85
f 77 85 78
f 78 85 86
f 79 83 82
f 79 82 81
f 79 81 87
f 79 87 80
f 81 88 89
f 81 89 90
f 81 90 87
f 81 91 88
f 85 92 86
f 85 93 94
f 85 94 92
f 86 92 95
f 86 95 96
f 88 91 94
f 88 94 89
f 89 94 90
f 90 94 93
f 91 96 95
f 91 95 94
f 92 94 95

