# https://github.com/mikedh/trimesh
v 0.75335516 -0.45710392 2.26619218
v 0.58118169 -0.45710392 2.26619218
v 0.65038952 -0.45710392 2.43889542
v 1.02441554 -0.73872765 2.43889542
v 1.02441554 -0.67728951 2.26624289
v 1.02441554 -0.67728951 2.26619218
v 0.58118169 -0.59665455 2.26619218
v 0.58118169 -0.45710392 2.43889542
v 1.02441554 -0.89384093 2.43889542
v 1.02441554 -0.81021314 2.26619218
v 0.98223997 -0.89384093 2.43889542
v 0.63689505 -0.61042148 2.43889542
v 0.60786680 -0.58635072 2.43889542
v 0.58118169 -0.56240825 2.43889542
v 1.02419856 -0.81380452 2.26619218
v 1.01573748 -0.89384093 2.40251546
v 1.02441554 -0.89384093 2.39774818
f 1 2 8
f 1 8 3
f 1 3 4
f 1 4 5
f 1 5 6
f 1 6 10
f 1 10 15
f 1 15 7
f 1 7 2
f 2 7 14
f 2 14 8
f 3 8 14
f 3 14 13
f 3 13 12
f 3 12 11
f 3 11 9
f 3 9 4
f 4 9 17
f 4 17 10
f 4 10 6
f 4 6 5
f 7 11 12
f 7 12 13
f 7 13 14
f 7 15 16
f 7 16 11
f 9 11 16
f 9 16 17
f 10 17 15
f 15 17 16

