# https://github.com/mikedh/trimesh
v -0.79678362 -1.11399106 1.10086755
v -0.81883006 -1.11399106 1.08356063
v -0.99528823 -1.11399106 1.10086755
v -0.84750345 -1.19015110 1.10086755
v -1.14372279 -1.43563281 0.96559031
v -0.87890554 -1.11399106 1.05027099
v -0.99195316 -1.11399106 1.06418805
v -1.23922854 -1.37137367 0.96559031
v -1.23922854 -1.38954007 1.06785597
v -1.23922854 -1.40345604 1.10086755
v -0.90545654 -1.27613424 1.10086755
v -1.23922854 -1.43563281 0.96559031
v -1.16022512 -1.42373179 0.96559031
v -0.93755169 -1.11399106 1.03038194
v -0.93746505 -1.11411699 1.03039519
v -0.98970080 -1.39930010 1.10086755
v -1.01659838 -1.43563281 1.10086755
v -0.99173660 -1.11399106 1.06363188
v -1.22580144 -1.37974852 0.96559031
v -0.97168254 -1.11399106 1.02873997
v -0.95998793 -1.11399106 1.02839570
v -1.23922854 -1.43563281 1.10086755
f 1 2 6
f 1 6 14
f 1 14 21
f 1 21 20
f 1 20 18
f 1 18 7
f 1 7 3
f 1 3 10
f 1 10 22
f 1 22 17
f 1 17 16
f 1 16 11
f 1 11 4
f 1 4 5
f 1 5 2
f 2 5 6
f 3 7 8
f 3 8 9
f 3 9 10
f 4 11 5
f 5 12 8
f 5 8 19
f 5 19 13
f 5 13 14
f 5 14 15
f 5 15 6
f 5 11 16
f 5 16 17
f 5 17 22
f 5 22 12
f 6 15 14
f 7 18 8
f 8 12 22
f 8 22 10
f 8 10 9
f 8 18 20
f 8 20 21
f 8 21 14
f 8 14 19
f 13 19 14

