# https://github.com/mikedh/trimesh
v -0.04736938 1.33725634 2.18624205
v -0.04291773 1.19249776 2.18624205
v -0.04736938 1.36065981 2.43889542
v -0.04736938 2.22225136 2.18624205
v 0.12284254 1.19249776 2.18624205
v 0.05053053 1.19249776 2.43889542
v -0.04736938 2.05529962 2.43889542
v -0.04736938 2.22043548 2.18916034
v -0.03513641 2.22124263 2.18916034
v -0.03614979 2.22295752 2.18624205
v 0.32229777 1.60700179 2.28942048
v 0.32229777 1.60397549 2.29092897
v 0.32229777 1.56725617 2.30989771
v 0.32229777 1.37115113 2.41159217
v 0.32229777 1.36711599 2.41369429
v 0.32229777 1.33190988 2.43246522
v 0.32229777 1.32888358 2.43491371
v 0.32229777 1.32515112 2.43889542
v 0.16891521 1.19249776 2.43889542
v 0.32229777 1.87362004 2.18624205
v 0.32229777 1.71665526 2.24500335
v 0.32229777 1.65229564 2.26995701
v 0.32229777 1.64795792 2.27178715
v -0.03513641 2.05600577 2.43889542
v -0.03513641 2.08203208 2.40006759
v -0.04736938 2.07587869 2.40815464
v -0.04736938 2.21519002 2.19714848
v -0.04736938 2.15920327 2.28224830
v -0.03513641 2.18886093 2.23837534
v 0.03518503 2.22124263 2.18916034
v 0.03518503 2.22295752 2.18624205
v 0.32229777 2.02977789 2.43889542
v 0.32229777 2.19864610 2.18624205
v 0.03518503 2.05600577 2.43889542
v 0.03518503 2.08203208 2.40006759
v -0.03513641 2.10735223 2.36203100
v -0.04736938 2.10220757 2.36865901
v -0.04736938 2.12611541 2.33242782
v -0.03513641 2.13055413 2.32686324
v 0.03518503 2.18886093 2.23837534
v 0.17575554 2.21246620 2.18916034
v 0.10547029 2.21851901 2.18624205
v 0.32229777 2.04349699 2.41883853
v 0.28639509 2.03673844 2.43889542
v 0.31176582 2.20036098 2.18624205
v 0.32229777 2.19662863 2.19052047
v 0.05049433 2.05509804 2.43889542
v 0.03518503 2.10735223 2.36203100
v 0.11694322 2.05096211 2.43889542
v 0.17575554 2.07325586 2.40006759
v 0.03518503 2.13055413 2.32686324
v 0.10547029 2.12833467 2.32354934
v 0.24607698 2.20772511 2.18916034
v 0.17575554 2.21397950 2.18624205
v 0.17575554 2.12611541 2.32018599
v 0.32229777 2.06125143 2.39254925
v 0.31064386 2.05610677 2.40352985
v 0.28339116 2.03936106 2.43582878
v 0.28042337 2.03764617 2.43889542
v 0.31183819 2.19703200 2.19289479
v 0.24607698 2.20923821 2.18624205
v 0.32229777 2.19582148 2.19175719
v 0.10547029 2.10513298 2.35869238
v 0.17575554 2.04722955 2.43889542
v 0.17575554 2.10291373 2.35532882
v 0.18277683 2.04672518 2.43889542
v 0.24607698 2.10019011 2.35127293
v 0.24607698 2.15869869 2.26320538
v 0.24607698 2.18200138 2.22803761
v 0.28534553 2.18038728 2.22549043
v 0.32229777 2.09494445 2.34251808
v 0.31636225 2.09514623 2.34387842
v 0.31636225 2.11875150 2.30876011
v 0.24607698 2.06750583 2.40006759
v 0.24549792 2.04147952 2.43889542
v 0.32229777 2.16666797 2.23548178
v 0.32229777 2.11986102 2.30542149
v 0.32229777 2.15879969 2.24725382
f 1 2 3
f 1 3 7
f 1 7 26
f 1 26 37
f 1 37 38
f 1 38 28
f 1 28 27
f 1 27 8
f 1 8 4
f 1 4 10
f 1 10 31
f 1 31 42
f 1 42 54
f 1 54 61
f 1 61 45
f 1 45 33
f 1 33 20
f 1 20 5
f 1 5 2
f 2 5 19
f 2 19 6
f 2 6 3
f 3 6 19
f 3 19 18
f 3 18 32
f 3 32 44
f 3 44 59
f 3 59 75
f 3 75 66
f 3 66 64
f 3 64 49
f 3 49 47
f 3 47 34
f 3 34 24
f 3 24 7
f 4 8 9
f 4 9 10
f 5 11 12
f 5 12 13
f 5 13 14
f 5 14 15
f 5 15 16
f 5 16 17
f 5 17 18
f 5 18 19
f 5 20 21
f 5 21 22
f 5 22 23
f 5 23 11
f 7 24 25
f 7 25 26
f 8 27 9
f 9 27 28
f 9 28 29
f 9 29 40
f 9 40 30
f 9 30 31
f 9 31 10
f 11 23 22
f 11 22 21
f 11 21 20
f 11 20 33
f 11 33 46
f 11 46 62
f 11 62 76
f 11 76 78
f 11 78 77
f 11 77 71
f 11 71 56
f 11 56 43
f 11 43 32
f 11 32 18
f 11 18 17
f 11 17 16
f 11 16 15
f 11 15 14
f 11 14 13
f 11 13 12
f 24 34 35
f 24 35 25
f 25 35 48
f 25 48 36
f 25 36 37
f 25 37 26
f 28 38 39
f 28 39 29
f 29 39 51
f 29 51 40
f 30 41 31
f 30 40 41
f 31 41 42
f 32 43 44
f 33 45 46
f 34 47 35
f 35 47 49
f 35 49 50
f 35 50 48
f 36 48 51
f 36 51 39
f 36 39 38
f 36 38 37
f 40 51 52
f 40 52 41
f 41 53 61
f 41 61 54
f 41 54 42
f 41 52 55
f 41 55 53
f 43 56 57
f 43 57 44
f 44 58 59
f 44 57 58
f 45 60 46
f 45 61 60
f 46 60 62
f 48 50 63
f 48 63 52
f 48 52 51
f 49 64 50
f 50 65 63
f 50 64 66
f 50 66 67
f 50 67 68
f 50 68 65
f 52 63 65
f 52 65 55
f 53 69 70
f 53 70 60
f 53 60 61
f 53 55 65
f 53 65 69
f 56 71 57
f 57 71 72
f 57 72 73
f 57 73 70
f 57 70 58
f 58 70 59
f 59 70 74
f 59 74 75
f 60 70 62
f 62 70 76
f 65 68 69
f 66 75 74
f 66 74 67
f 67 74 70
f 67 70 68
f 68 70 69
f 70 73 77
f 70 77 78
f 70 78 76
f 71 77 73
f 71 73 72

