# https://github.com/mikedh/trimesh
v 2.07218950 0.95853287 1.23256290
v 2.07629484 0.94918994 1.23256290
v 2.05125254 0.94802625 1.10086755
v 2.04659988 0.95853287 1.10086755
v 1.65563867 0.95853287 1.23256290
v 2.13609546 0.80979500 1.23256290
v 2.06767388 0.90874299 1.10086755
v 1.63990168 0.95853287 1.10086755
v 1.44154743 0.78871533 1.23256290
v 2.14047445 0.78871533 1.23256290
v 2.11577412 0.78871533 1.10086755
v 2.11556898 0.78928057 1.10086755
v 2.10831612 0.80761718 1.10086755
v 2.08005820 0.87886908 1.10086755
v 1.65611768 0.78871533 1.10086755
v 1.44230000 0.78871533 1.23209876
f 1 2 3
f 1 3 4
f 1 4 8
f 1 8 5
f 1 5 9
f 1 9 10
f 1 10 6
f 1 6 2
f 2 6 3
f 3 6 7
f 3 7 14
f 3 14 13
f 3 13 12
f 3 12 11
f 3 11 15
f 3 15 8
f 3 8 4
f 5 8 9
f 6 10 11
f 6 11 12
f 6 12 13
f 6 13 14
f 6 14 7
f 8 15 16
f 8 16 9
f 9 16 15
f 9 15 11
f 9 11 10

