# https://github.com/mikedh/trimesh
v 1.37178521 -0.97162555 1.10086755
v 1.37178521 -0.97837110 1.09505445
v 1.37178521 -1.11399095 1.10086755
v 1.55633236 -1.06294015 1.10086755
v 1.55633236 -1.00706718 0.96559031
v 1.37178521 -0.97910974 1.09457775
v 1.55633236 -1.11399095 1.10086755
v 1.37178521 -1.11399095 1.02892537
v 1.55633236 -1.11399095 0.96559031
v 1.46248712 -1.10168469 0.96559031
v 1.37178521 -1.01225165 1.07356315
v 1.37178521 -1.00873953 1.07573478
v 1.37178521 -1.08512766 1.03781055
v 1.45347296 -1.11399095 0.96559031
v 1.37178521 -1.01515056 1.07204036
f 1 2 6
f 1 6 12
f 1 12 11
f 1 11 15
f 1 15 13
f 1 13 8
f 1 8 3
f 1 3 7
f 1 7 4
f 1 4 5
f 1 5 2
f 2 5 6
f 3 8 14
f 3 14 9
f 3 9 7
f 4 7 9
f 4 9 5
f 5 9 14
f 5 14 10
f 5 10 11
f 5 11 12
f 5 12 6
f 8 13 14
f 10 14 15
f 10 15 11
f 13 15 14

