# https://github.com/mikedh/trimesh
v -2.58633175 -0.35469849 1.41572456
v -2.58633175 -0.35469849 1.48604646
v -2.58344595 -0.35469849 1.34543649
v -2.57152325 -0.45708925 1.34543649
v -2.58223103 -0.38672266 1.41572456
v -2.58223103 -0.38672266 1.48604646
v -2.58200305 -0.38672266 1.57811773
v -2.58473693 -0.36499816 1.57811773
v -2.58602792 -0.35469849 1.57811773
v -2.56954874 -0.35469849 1.31692209
v -2.55056345 -0.45708925 1.29310938
v -2.54494396 -0.52736925 1.29601834
v -2.57311807 -0.45708925 1.41572456
v -2.53621069 -0.59764924 1.30413629
v -2.53150230 -0.63434718 1.30968359
v -2.55906894 -0.52736925 1.34543649
v -2.57311807 -0.45708925 1.48604646
v -2.57296615 -0.45708925 1.57811773
v -2.57577589 -0.43527818 1.57811773
v -2.01684981 -0.35469849 1.57811773
v -2.55587951 -0.35469849 1.29317706
v -2.49596197 -0.45708925 1.27663670
v -2.26639211 -1.22549551 1.23259663
v -2.47257211 -0.80848929 1.29801401
v -2.55952449 -0.52736925 1.41572456
v -2.53180613 -0.63538578 1.34543649
v -2.54145049 -0.59764924 1.34543649
v -2.46497791 -0.85410201 1.30511726
v -2.48464673 -0.80848929 1.34543649
v -2.50545462 -0.73829583 1.41572456
v -2.55952449 -0.52736925 1.48604646
v -2.56354936 -0.50564472 1.57811773
v -1.91060830 -0.35469849 1.23570853
v -1.81051789 -0.95095344 1.57811773
v -2.52436385 -0.35469849 1.28424724
v -2.49596197 -0.38672266 1.27673811
v -2.26935377 -1.17070827 1.23259663
v -2.26039273 -1.23891109 1.23259663
v -2.32061390 -1.19598138 1.30968359
v -2.39944088 -1.00703900 1.30088913
v -2.54160240 -0.59764924 1.41572456
v -2.52284509 -0.67069891 1.41572456
v -2.39002409 -1.05369037 1.34543649
v -2.40399736 -1.01855037 1.34543649
v -2.46710434 -0.85946827 1.34543649
v -2.48495056 -0.80848929 1.41572456
v -2.50545462 -0.73829583 1.48604646
v -2.55937278 -0.52736925 1.55633453
v -2.54160240 -0.59764924 1.48604646
v -2.54699433 -0.57592472 1.57811773
v -2.55929671 -0.52736925 1.57811773
v -1.90969680 -0.35469849 1.23259663
v -1.81051789 -1.23891109 1.57811773
v -1.81051789 -0.66403439 1.23912490
v -2.49596197 -0.35469849 1.27683964
v -2.25044454 -0.35469849 1.23259663
v -1.81051789 -1.23891109 1.23259663
v -2.27588476 -1.23891109 1.26625245
v -2.34066241 -1.16006241 1.34543649
v -2.37460812 -1.08978242 1.34543649
v -2.28158030 -1.23891109 1.28005296
v -2.29517368 -1.23891109 1.33515366
v -2.29752788 -1.23891109 1.34543649
v -2.32091773 -1.19650073 1.34543649
v -2.52284509 -0.67069891 1.48604646
v -2.39025186 -1.05386345 1.41572456
v -2.37513973 -1.08978242 1.41572456
v -2.43171572 -0.94913588 1.41572456
v -2.46710434 -0.85964135 1.41572456
v -2.48495056 -0.80848929 1.48604646
v -2.50530270 -0.73829583 1.55633453
v -2.51069441 -0.71726374 1.57811773
v -2.53180613 -0.63538578 1.55633453
v -2.48479865 -0.80848929 1.57811773
v -2.53476779 -0.62370132 1.57811773
v -2.54145049 -0.59764924 1.57811773
v -1.81051789 -0.65944716 1.23259663
v -2.29752788 -1.23891109 1.57811773
v -2.34096624 -1.16006241 1.41572456
v -2.29775565 -1.23891109 1.41572456
v -2.32099359 -1.19658727 1.41572456
v -2.39025186 -1.05386345 1.48604646
v -2.37513973 -1.08978242 1.48604646
v -2.43171572 -0.94913588 1.48604646
v -2.46710434 -0.85964135 1.48604646
v -2.46710434 -0.85946827 1.55633453
v -2.50522664 -0.73829583 1.57811773
v -2.49110165 -0.78685136 1.57811773
v -2.46702827 -0.85938167 1.57811773
v -2.29760394 -1.23891109 1.55991999
v -2.30155275 -1.23164073 1.57811773
v -2.34096624 -1.16006241 1.48604646
v -2.29775565 -1.23891109 1.48604646
v -2.32099359 -1.19658727 1.48604646
v -2.39017601 -1.05369037 1.57811773
v -2.34089018 -1.16006241 1.55633453
v -2.37498781 -1.08978242 1.55633453
v -2.43824671 -0.93225826 1.57811773
v -2.46277563 -0.87028721 1.57811773
v -2.32706903 -1.18524898 1.57811773
v -2.37491196 -1.08978242 1.57811773
v -2.34081432 -1.16006241 1.57811773
v -2.35137019 -1.13833799 1.57811773
f 1 2 9
f 1 9 20
f 1 20 33
f 1 33 52
f 1 52 56
f 1 56 55
f 1 55 35
f 1 35 21
f 1 21 10
f 1 10 3
f 1 3 4
f 1 4 5
f 1 5 6
f 1 6 2
f 2 6 7
f 2 7 8
f 2 8 9
f 3 10 11
f 3 11 12
f 3 12 4
f 4 13 5
f 4 12 14
f 4 14 15
f 4 15 16
f 4 16 13
f 5 13 17
f 5 17 6
f 6 17 18
f 6 18 19
f 6 19 7
f 7 19 18
f 7 18 32
f 7 32 51
f 7 51 50
f 7 50 76
f 7 76 75
f 7 75 72
f 7 72 87
f 7 87 88
f 7 88 74
f 7 74 89
f 7 89 99
f 7 99 98
f 7 98 95
f 7 95 101
f 7 101 103
f 7 103 102
f 7 102 100
f 7 100 91
f 7 91 78
f 7 78 53
f 7 53 34
f 7 34 20
f 7 20 9
f 7 9 8
f 10 21 11
f 11 21 22
f 11 22 23
f 11 23 12
f 12 23 24
f 12 24 14
f 13 16 25
f 13 25 31
f 13 31 17
f 14 24 15
f 15 26 27
f 15 27 16
f 15 24 28
f 15 28 29
f 15 29 30
f 15 30 26
f 16 27 25
f 17 31 18
f 18 31 32
f 20 34 33
f 21 35 22
f 22 35 36
f 22 36 37
f 22 37 23
f 23 37 56
f 23 56 52
f 23 52 77
f 23 77 57
f 23 57 38
f 23 38 39
f 23 39 40
f 23 40 28
f 23 28 24
f 25 27 41
f 25 41 49
f 25 49 31
f 26 41 27
f 26 30 42
f 26 42 41
f 28 40 43
f 28 43 44
f 28 44 45
f 28 45 29
f 29 45 46
f 29 46 30
f 30 46 70
f 30 70 47
f 30 47 65
f 30 65 42
f 31 48 32
f 31 49 50
f 31 50 48
f 32 48 51
f 33 34 52
f 34 53 57
f 34 57 77
f 34 77 54
f 34 54 52
f 35 55 36
f 36 55 37
f 37 55 56
f 38 57 53
f 38 53 78
f 38 78 90
f 38 90 93
f 38 93 80
f 38 80 63
f 38 63 62
f 38 62 61
f 38 61 58
f 38 58 39
f 39 59 60
f 39 60 40
f 39 58 61
f 39 61 62
f 39 62 63
f 39 63 64
f 39 64 59
f 40 60 43
f 41 42 65
f 41 65 49
f 43 66 44
f 43 60 67
f 43 67 66
f 44 66 45
f 45 68 69
f 45 69 46
f 45 66 68
f 46 69 85
f 46 85 70
f 47 71 72
f 47 72 73
f 47 73 65
f 47 70 74
f 47 74 71
f 48 50 51
f 49 73 75
f 49 75 76
f 49 76 50
f 49 65 73
f 52 54 77
f 59 64 79
f 59 79 67
f 59 67 60
f 63 80 64
f 64 80 81
f 64 81 79
f 66 67 83
f 66 83 82
f 66 82 84
f 66 84 68
f 67 79 92
f 67 92 83
f 68 84 85
f 68 85 69
f 70 85 86
f 70 86 74
f 71 87 72
f 71 74 88
f 71 88 87
f 72 75 73
f 74 86 89
f 78 91 90
f 79 81 94
f 79 94 92
f 80 93 94
f 80 94 81
f 82 83 95
f 82 95 84
f 83 92 96
f 83 96 97
f 83 97 95
f 84 86 85
f 84 95 86
f 86 98 99
f 86 99 89
f 86 95 98
f 90 91 100
f 90 100 93
f 92 94 96
f 93 100 94
f 94 100 96
f 95 97 101
f 96 100 102
f 96 102 103
f 96 103 97
f 97 103 101

