# https://github.com/mikedh/trimesh
v 0.87377791 -0.87292884 1.67086969
v 0.87377791 -0.87889695 1.67079540
v 0.87377791 -0.87292884 1.57811783
v 0.81432596 -0.87292884 1.67160340
v 0.80838075 -0.87889695 1.67160340
v 0.87377791 -0.88398546 1.67073034
v 0.87377791 -1.43242064 1.57811783
v -1.15076024 -0.87292884 1.57811783
v 0.80838075 -0.87292884 1.67164059
v 0.66787586 -0.94919466 1.67191928
v 0.73822737 -0.94919466 1.67151989
v 0.87377791 -0.94919466 1.66943925
v 0.80838075 -0.94919466 1.67063751
v 0.87377791 -1.36783975 1.59858899
v 0.29610284 -1.33837633 1.66310471
v 0.09059716 -1.51465456 1.60024227
v 0.09198436 -1.51465456 1.59848683
v 0.10783824 -1.51465456 1.57811783
v -0.83110672 -1.51465456 1.57811783
v -1.11667434 -0.87292884 1.62141937
v 0.74417263 -0.87292884 1.67196569
v 0.73822737 -0.87889695 1.67196569
v 0.66787586 -0.87889695 1.67214213
v 0.59752436 -0.87889695 1.67230002
v 0.59752436 -0.94919466 1.67206784
v 0.52717285 -1.01955512 1.67196569
v 0.59752436 -1.01955512 1.67174274
v 0.66787586 -1.01955512 1.67125975
v 0.87377791 -0.95434602 1.66932788
v 0.73822737 -1.01955512 1.67035882
v 0.80838075 -1.01955512 1.66911425
v 0.87377791 -1.05329056 1.66136782
v 0.85376240 -1.06202278 1.66375491
v 0.77865478 -1.12817418 1.66310471
v 0.64607684 -1.20085919 1.66373637
v 0.50616648 -1.26983763 1.66364344
v 0.45682135 -1.27561720 1.66476731
v 0.24596498 -1.34126612 1.66421936
v 0.03510865 -1.38235165 1.65306421
v 0.05789856 -1.51465456 1.60024227
v -0.83031403 -1.51465456 1.57887019
v -1.09447908 -0.87292884 1.63674491
v -0.82932316 -1.51465456 1.57974325
v 0.73822737 -0.87292884 1.67198424
v 0.66787586 -0.87292884 1.67216078
v 0.59752436 -0.87292884 1.67231866
v 0.52717285 -0.87889695 1.67244869
v 0.46296474 -0.87292884 1.67258803
v 0.45682135 -0.94919466 1.67233721
v 0.45682135 -1.01955512 1.67208639
v 0.38666802 -1.08985282 1.67193782
v 0.45682135 -1.08985282 1.67176139
v 0.52717285 -1.08985282 1.67137122
v 0.59752436 -1.08985282 1.67074888
v 0.87377791 -1.01873843 1.66588197
v 0.66787586 -1.08985282 1.66981087
v 0.59752436 -1.16015053 1.66900278
v 0.73822737 -1.08985282 1.66827829
v 0.80461539 -1.08721438 1.66516670
v 0.87377791 -1.02608862 1.66535246
v 0.73822737 -1.13791158 1.66441434
v 0.66886673 -1.16159542 1.66579836
v 0.59752436 -1.21084783 1.66493453
v 0.45682135 -1.23038547 1.66874273
v 0.24596498 -1.30068318 1.66804611
v 0.17561348 -1.34396742 1.66475809
v 0.10546015 -1.34591490 1.66486947
v 0.03510865 -1.34723418 1.66493453
v -0.03524287 -1.34723418 1.66493453
v -0.10559437 -1.34591490 1.66486947
v -0.79404832 -1.51465456 1.59968499
v -1.08219220 -0.87292884 1.64295866
v -0.79682276 -1.51465456 1.59899770
v -1.04136849 -0.90069618 1.65816341
v 0.52717285 -0.87292884 1.67246723
v 0.39261323 -0.87292884 1.67270873
v 0.38666802 -0.87889695 1.67269940
v 0.45682135 -0.87889695 1.67257871
v 0.38666802 -0.94919466 1.67244869
v 0.31631651 -0.87889695 1.67280166
v 0.31631651 -1.01955512 1.67228147
v 0.31631651 -1.08985282 1.67202143
v 0.17561348 -1.16015053 1.67187276
v 0.24596498 -1.16015053 1.67174274
v 0.31631651 -1.16015053 1.67148270
v 0.38666802 -1.16015053 1.67113905
v 0.45682135 -1.16015053 1.67066538
v 0.52717285 -1.16015053 1.66993157
v 0.87377791 -1.02250777 1.66564969
v 0.38666802 -1.23038547 1.66945790
v 0.17561348 -1.30068318 1.66876128
v 0.10546015 -1.30068318 1.66900278
v 0.03510865 -1.30068318 1.66912347
v -0.10559437 -1.30068318 1.66900278
v -0.03524287 -1.30068318 1.66912347
v -0.17574772 -1.30068318 1.66876128
v -0.17574772 -1.34396742 1.66475809
v -0.24590105 -1.34126612 1.66421936
v -0.29603887 -1.33837633 1.66310471
v -0.50610257 -1.26983763 1.66364344
v -0.64601288 -1.20085919 1.66373637
v -0.77859081 -1.12817418 1.66310471
v -0.85369844 -1.06202278 1.66375491
v -0.92523893 -0.99467773 1.66382920
v -0.99459967 -0.92544795 1.66382920
v -1.02749643 -0.87292884 1.66527818
v 0.38666802 -0.87292884 1.67271805
v 0.31631651 -0.87292884 1.67282020
v 0.24596498 -0.87889695 1.67288516
v 0.24596498 -1.01955512 1.67235575
v 0.24596498 -1.08985282 1.67208639
v 0.17561348 -1.01955512 1.67241149
v 0.10546015 -1.08985282 1.67217932
v 0.10546015 -1.16015053 1.67190063
v 0.03510865 -1.23038547 1.67099038
v 0.10546015 -1.23038547 1.67091610
v 0.17561348 -1.23038547 1.67077675
v 0.24596498 -1.23038547 1.67050739
v 0.31631651 -1.23038547 1.67004304
v -0.10559437 -1.23038547 1.67091610
v -0.17574772 -1.23038547 1.67077675
v -0.03524287 -1.23038547 1.67099038
v -0.24590105 -1.23038547 1.67050739
v -0.31625255 -1.23038547 1.67004304
v -0.38660406 -1.23038547 1.66945790
v -0.45695556 -1.23038547 1.66874273
v -0.24590105 -1.30068318 1.66804611
v -0.45695556 -1.27561720 1.66476731
v -0.59746045 -1.21084783 1.66493453
v -0.59746045 -1.16015053 1.66900278
v -0.66880282 -1.16159542 1.66579836
v -0.73816346 -1.08985282 1.66827829
v -0.73816346 -1.13791158 1.66441434
v -0.80474966 -1.08721438 1.66516670
v -0.87787559 -1.01867567 1.66567756
v -0.94882157 -0.94900617 1.66574262
v -1.01857855 -0.87789178 1.66567756
v -1.01857855 -0.87292884 1.66591906
v 0.24596498 -0.87292884 1.67290381
v 0.17561348 -0.87889695 1.67295022
v 0.10546015 -1.01955512 1.67244869
v 0.03510865 -1.01955512 1.67246723
v 0.03510865 -1.16015053 1.67191928
v -0.17574772 -1.16015053 1.67187276
v -0.24590105 -1.16015053 1.67174274
v -0.31625255 -1.16015053 1.67148270
v -0.03524287 -1.16015053 1.67191928
v -0.10559437 -1.16015053 1.67190063
v -0.38660406 -1.16015053 1.67113905
v -0.45695556 -1.16015053 1.67066538
v -0.52730712 -1.16015053 1.66993157
v -0.59746045 -1.08985282 1.67074888
v -0.66781195 -1.08985282 1.66981087
v -0.80851496 -1.01955512 1.66911425
v -0.87886646 -0.94919466 1.66934642
v -0.94901979 -0.87889695 1.66934642
v -0.94901979 -0.87292884 1.66945790
v 0.18155870 -0.87292884 1.67295955
v 0.10546015 -0.87889695 1.67297809
v 0.10546015 -0.94919466 1.67271805
v 0.03510865 -0.94919466 1.67273660
v -0.03524287 -1.01955512 1.67246723
v -0.10559437 -1.08985282 1.67217932
v -0.17574772 -1.01955512 1.67241149
v -0.24590105 -1.08985282 1.67208639
v -0.31625255 -1.08985282 1.67202143
v -0.38660406 -1.08985282 1.67193782
v -0.45695556 -1.08985282 1.67176139
v -0.52730712 -1.08985282 1.67137122
v -0.66781195 -1.01955512 1.67126907
v -0.73816346 -1.01955512 1.67035882
v -0.80851496 -0.94919466 1.67063751
v -0.87886646 -0.87889695 1.67073034
v -0.87886646 -0.87292884 1.67080462
v 0.11140534 -0.87292884 1.67298742
v 0.04105384 -0.87292884 1.67300596
v 0.03510865 -0.87889695 1.67298742
v -0.03524287 -0.94919466 1.67273660
v -0.10559437 -1.01955512 1.67244869
v -0.17574772 -0.87889695 1.67295022
v -0.24590105 -1.01955512 1.67235575
v -0.24590105 -0.87889695 1.67288516
v -0.31625255 -1.01955512 1.67228147
v -0.38660406 -0.94919466 1.67244869
v -0.45695556 -1.01955512 1.67208639
v -0.52730712 -1.01955512 1.67196569
v -0.31625255 -0.87889695 1.67280166
v -0.59746045 -1.01955512 1.67174274
v -0.73816346 -0.94919466 1.67151989
v -0.80851496 -0.87889695 1.67160340
v -0.80851496 -0.87292884 1.67164059
v -0.03524287 -0.87292884 1.67300596
v -0.03524287 -0.87889695 1.67298742
v -0.10559437 -0.87889695 1.67297809
v -0.10559437 -0.94919466 1.67271805
v -0.17574772 -0.87292884 1.67295955
v -0.24590105 -0.87292884 1.67290381
v -0.38660406 -0.87889695 1.67269940
v -0.45695556 -0.94919466 1.67233721
v -0.45695556 -0.87889695 1.67257871
v -0.52730712 -0.87889695 1.67244869
v -0.59746045 -0.94919466 1.67206784
v -0.66781195 -0.94919466 1.67191928
v -0.31625255 -0.87292884 1.67282020
v -0.38065887 -0.87292884 1.67272727
v -0.73816346 -0.87889695 1.67196569
v -0.73816346 -0.87292884 1.67198424
v -0.10559437 -0.87292884 1.67298742
v -0.38660406 -0.87292884 1.67271805
v -0.45695556 -0.87292884 1.67259725
v -0.52730712 -0.87292884 1.67246723
v -0.59746045 -0.87889695 1.67230002
v -0.66781195 -0.87889695 1.67214213
v -0.73221824 -0.87292884 1.67200289
v -0.59746045 -0.87292884 1.67231866
v -0.66781195 -0.87292884 1.67216078
f 1 2 6
f 1 6 12
f 1 12 29
f 1 29 55
f 1 55 89
f 1 89 60
f 1 60 32
f 1 32 14
f 1 14 7
f 1 7 3
f 1 3 8
f 1 8 20
f 1 20 42
f 1 42 72
f 1 72 106
f 1 106 138
f 1 138 157
f 1 157 174
f 1 174 191
f 1 191 207
f 1 207 214
f 1 214 216
f 1 216 215
f 1 215 211
f 1 211 210
f 1 210 209
f 1 209 205
f 1 205 204
f 1 204 197
f 1 197 196
f 1 196 208
f 1 208 192
f 1 192 176
f 1 176 175
f 1 175 158
f 1 158 139
f 1 139 108
f 1 108 107
f 1 107 76
f 1 76 48
f 1 48 75
f 1 75 46
f 1 46 45
f 1 45 44
f 1 44 21
f 1 21 9
f 1 9 4
f 1 4 5
f 1 5 2
f 2 5 6
f 3 7 18
f 3 18 19
f 3 19 8
f 4 9 5
f 5 9 10
f 5 10 11
f 5 11 6
f 6 11 13
f 6 13 12
f 7 14 15
f 7 15 16
f 7 16 17
f 7 17 18
f 8 19 20
f 9 21 22
f 9 22 10
f 10 23 24
f 10 24 47
f 10 47 25
f 10 25 26
f 10 26 27
f 10 27 11
f 10 22 23
f 11 27 28
f 11 28 13
f 12 13 29
f 13 28 30
f 13 30 31
f 13 31 29
f 14 32 33
f 14 33 34
f 14 34 35
f 14 35 36
f 14 36 15
f 15 36 37
f 15 37 38
f 15 38 16
f 16 38 39
f 16 39 40
f 16 40 71
f 16 71 73
f 16 73 43
f 16 43 41
f 16 41 19
f 16 19 18
f 16 18 17
f 19 41 20
f 20 41 43
f 20 43 42
f 21 44 22
f 22 44 45
f 22 45 23
f 23 45 46
f 23 46 24
f 24 46 75
f 24 75 47
f 25 47 26
f 26 47 48
f 26 48 49
f 26 49 50
f 26 50 51
f 26 51 52
f 26 52 27
f 27 52 53
f 27 53 28
f 28 53 54
f 28 54 30
f 29 31 55
f 30 54 56
f 30 56 31
f 31 56 57
f 31 57 58
f 31 58 59
f 31 59 55
f 32 60 33
f 33 60 59
f 33 59 34
f 34 59 61
f 34 61 35
f 35 61 58
f 35 58 62
f 35 62 57
f 35 57 63
f 35 63 36
f 36 64 37
f 36 63 64
f 37 64 65
f 37 65 38
f 38 65 66
f 38 66 39
f 39 66 67
f 39 67 68
f 39 68 69
f 39 69 70
f 39 70 71
f 39 71 40
f 42 43 73
f 42 73 74
f 42 74 72
f 47 75 48
f 48 76 77
f 48 77 78
f 48 78 49
f 49 78 77
f 49 77 50
f 50 77 79
f 50 79 51
f 51 79 80
f 51 80 81
f 51 81 82
f 51 82 83
f 51 83 84
f 51 84 52
f 52 84 85
f 52 85 86
f 52 86 53
f 53 86 87
f 53 87 54
f 54 57 56
f 54 87 88
f 54 88 57
f 55 59 89
f 57 62 58
f 57 88 64
f 57 64 63
f 58 61 59
f 59 60 89
f 64 88 87
f 64 87 90
f 64 90 65
f 65 90 91
f 65 91 66
f 66 91 67
f 67 91 92
f 67 92 68
f 68 92 93
f 68 93 95
f 68 95 69
f 69 94 70
f 69 95 94
f 70 94 96
f 70 96 97
f 70 97 71
f 71 97 98
f 71 98 99
f 71 99 100
f 71 100 101
f 71 101 102
f 71 102 103
f 71 103 104
f 71 104 105
f 71 105 74
f 71 74 73
f 72 74 106
f 74 105 106
f 76 107 77
f 77 107 108
f 77 108 80
f 77 80 79
f 80 108 139
f 80 139 109
f 80 109 81
f 81 109 82
f 82 109 110
f 82 110 111
f 82 111 83
f 83 112 141
f 83 141 113
f 83 113 114
f 83 114 115
f 83 115 116
f 83 116 84
f 83 111 110
f 83 110 112
f 84 116 117
f 84 117 85
f 85 117 118
f 85 118 86
f 86 118 119
f 86 119 87
f 87 119 90
f 90 119 91
f 91 117 92
f 91 119 118
f 91 118 117
f 92 117 116
f 92 116 93
f 93 115 122
f 93 122 95
f 93 116 115
f 94 120 121
f 94 121 96
f 94 95 120
f 95 122 120
f 96 121 123
f 96 123 124
f 96 124 125
f 96 125 126
f 96 126 127
f 96 127 97
f 97 127 98
f 98 127 128
f 98 128 99
f 99 128 100
f 100 128 126
f 100 126 129
f 100 129 101
f 101 129 130
f 101 130 131
f 101 131 132
f 101 132 133
f 101 133 102
f 102 133 134
f 102 134 103
f 103 135 104
f 103 134 135
f 104 135 136
f 104 136 105
f 105 136 137
f 105 137 106
f 106 137 138
f 109 139 140
f 109 140 110
f 110 140 112
f 112 140 141
f 113 141 142
f 113 142 143
f 113 143 114
f 114 143 115
f 115 143 147
f 115 147 122
f 120 144 145
f 120 145 121
f 120 122 144
f 121 145 146
f 121 146 123
f 122 147 148
f 122 148 144
f 123 146 149
f 123 149 124
f 124 149 150
f 124 150 125
f 125 150 126
f 126 150 151
f 126 151 130
f 126 130 129
f 126 128 127
f 130 151 152
f 130 152 153
f 130 153 154
f 130 154 132
f 130 132 131
f 132 154 134
f 132 134 133
f 134 154 135
f 135 154 155
f 135 155 136
f 136 155 156
f 136 156 137
f 137 156 138
f 138 156 157
f 139 158 140
f 140 158 175
f 140 175 159
f 140 159 160
f 140 160 141
f 141 160 161
f 141 161 142
f 142 161 178
f 142 178 162
f 142 162 147
f 142 147 143
f 144 148 163
f 144 163 179
f 144 179 164
f 144 164 181
f 144 181 165
f 144 165 166
f 144 166 167
f 144 167 145
f 145 167 168
f 145 168 146
f 146 168 149
f 147 162 163
f 147 163 148
f 149 168 169
f 149 169 150
f 150 169 152
f 150 152 151
f 152 170 171
f 152 171 153
f 152 169 170
f 153 171 154
f 154 171 172
f 154 172 155
f 155 173 156
f 155 172 173
f 156 173 157
f 157 173 174
f 159 175 176
f 159 176 177
f 159 177 161
f 159 161 160
f 161 177 193
f 161 193 178
f 162 178 195
f 162 195 179
f 162 179 163
f 164 179 180
f 164 180 181
f 165 181 166
f 166 181 182
f 166 182 183
f 166 183 167
f 167 184 185
f 167 185 186
f 167 186 168
f 167 183 187
f 167 187 184
f 168 186 188
f 168 188 169
f 169 188 170
f 170 188 189
f 170 189 172
f 170 172 171
f 172 189 173
f 173 189 190
f 173 190 174
f 174 190 191
f 176 192 193
f 176 193 177
f 178 193 194
f 178 194 195
f 179 195 180
f 180 195 194
f 180 194 208
f 180 208 196
f 180 196 197
f 180 197 182
f 180 182 181
f 182 197 204
f 182 204 187
f 182 187 183
f 184 198 185
f 184 187 198
f 185 198 199
f 185 199 186
f 186 199 200
f 186 200 201
f 186 201 202
f 186 202 203
f 186 203 188
f 187 204 205
f 187 205 198
f 188 203 189
f 189 203 190
f 190 203 191
f 191 203 206
f 191 206 207
f 192 208 194
f 192 194 193
f 198 209 210
f 198 210 200
f 198 200 199
f 198 205 209
f 200 210 211
f 200 211 201
f 201 211 215
f 201 215 212
f 201 212 203
f 201 203 202
f 203 212 213
f 203 213 214
f 203 214 206
f 206 214 207
f 212 215 216
f 212 216 213
f 213 216 214

