# https://github.com/mikedh/trimesh
v -0.22078062 -0.59495538 -1.66158024
v -0.22078062 -0.59495538 -1.68225088
v -0.24307947 -0.59495538 -1.61692507
v -0.22078062 -0.59509996 -1.65913615
v -0.24769302 -0.59495538 -1.74571261
v -0.22078062 -0.59707636 -1.67794271
v -0.49369017 -1.05202996 -1.70698096
v -0.47701041 -1.01944375 -1.62690825
v -0.48848516 -1.06147797 -1.63709867
v -0.26792168 -0.65492169 -1.62715677
v -0.24514966 -0.59495538 -1.61634506
v -0.52592592 -1.08741198 -1.62297307
v -0.22078062 -0.59712455 -1.66510138
v -0.24852110 -0.59495538 -1.74699668
v -0.66882786 -1.08741198 -2.03845649
v -0.48848516 -1.06147797 -1.66013043
v -0.50776743 -1.08741198 -1.68125661
v -0.31813848 -0.59495538 -1.61746359
v -0.45701832 -0.87883137 -1.61568228
v -0.52728632 -1.01944375 -1.61530951
v -0.52574850 -1.08683354 -1.62293158
v -0.59696284 -1.08741198 -1.62272455
v -0.29329624 -0.59495538 -1.81455934
v -0.82497900 -1.08741198 -2.03845649
v -0.73229383 -1.02175750 -2.03845649
v -0.52728632 -0.59765480 -2.02569793
v -0.49706164 -0.59495538 -2.01712329
v -0.46098127 -0.59495538 -2.00606306
v -0.45571707 -0.59495538 -2.00175489
v -0.40916748 -0.59495538 -1.96066213
v -0.40408073 -0.59495538 -1.95531840
v -0.36344595 -0.59495538 -1.90888213
v -0.33629695 -0.59495538 -1.87363013
v -0.29915193 -0.59495538 -1.82309271
v -0.31985378 -0.59495538 -1.61808488
v -0.59915134 -1.08741198 -1.62342861
v -0.82497900 -1.08741198 -1.77798199
v -0.82497900 -0.94178632 -2.03845649
v -0.80770770 -0.94704067 -2.03845649
v -0.80924558 -0.94655862 -2.03845649
v -0.52728632 -0.59495538 -2.02528367
v -0.35268100 -0.59495538 -1.64244240
v -0.35954220 -0.61891299 -1.63444756
v -0.37332369 -0.66798508 -1.62429862
v -0.57649760 -1.01944375 -1.63121643
v -0.63097304 -1.08741198 -1.64505203
v -0.54106786 -0.59495538 -1.88767297
v -0.56596919 -0.59495538 -1.92093642
v -0.82497900 -1.00773006 -1.87375439
v -0.38160445 -0.59495538 -1.67976551
v -0.82497900 -0.94135246 -2.03220147
v -0.64670646 -0.68201263 -2.00705712
v -0.58241238 -0.59495538 -2.01057826
v -0.58324049 -0.59765480 -2.01111678
v -0.58554728 -0.59495538 -1.95776249
v -0.82497900 -0.94742623 -1.95407582
v -0.69313771 -0.74969164 -1.96716567
f 1 2 5
f 1 5 14
f 1 14 23
f 1 23 34
f 1 34 33
f 1 33 32
f 1 32 31
f 1 31 30
f 1 30 29
f 1 29 28
f 1 28 27
f 1 27 41
f 1 41 53
f 1 53 55
f 1 55 48
f 1 48 47
f 1 47 50
f 1 50 42
f 1 42 35
f 1 35 18
f 1 18 11
f 1 11 3
f 1 3 4
f 1 4 13
f 1 13 6
f 1 6 2
f 2 6 7
f 2 7 5
f 3 8 9
f 3 9 10
f 3 10 4
f 3 11 12
f 3 12 8
f 4 10 9
f 4 9 13
f 5 7 15
f 5 15 14
f 6 13 16
f 6 16 17
f 6 17 7
f 7 17 15
f 8 12 9
f 9 17 16
f 9 16 13
f 9 12 17
f 11 18 19
f 11 19 20
f 11 20 21
f 11 21 12
f 12 21 20
f 12 20 22
f 12 22 36
f 12 36 46
f 12 46 37
f 12 37 24
f 12 24 15
f 12 15 17
f 14 15 23
f 15 24 38
f 15 38 40
f 15 40 39
f 15 39 25
f 15 25 26
f 15 26 27
f 15 27 28
f 15 28 29
f 15 29 30
f 15 30 31
f 15 31 32
f 15 32 33
f 15 33 34
f 15 34 23
f 18 35 36
f 18 36 22
f 18 22 19
f 19 22 20
f 24 37 49
f 24 49 56
f 24 56 51
f 24 51 38
f 25 39 26
f 26 39 40
f 26 40 38
f 26 38 41
f 26 41 27
f 35 42 43
f 35 43 44
f 35 44 36
f 36 45 46
f 36 44 45
f 37 47 48
f 37 48 49
f 37 46 45
f 37 45 44
f 37 44 43
f 37 43 42
f 37 42 50
f 37 50 47
f 38 51 52
f 38 52 53
f 38 53 54
f 38 54 41
f 41 54 53
f 48 55 49
f 49 55 56
f 51 56 57
f 51 57 52
f 52 57 55
f 52 55 53
f 55 57 56

