# https://github.com/mikedh/trimesh
v 0.10223552 -0.59495538 -1.45308565
v 0.24631020 -0.91102102 -1.39621871
v 0.21137506 -0.91102102 -1.36111392
v 0.17637422 -0.91102102 -1.32507362
v 0.14209575 -0.91102102 -1.28932868
v 0.12180446 -0.91102102 -1.25767031
v 0.10223552 -0.72409180 -1.33221270
v 0.10223552 -0.59495538 -0.95009665
v 0.18248131 -0.59495538 -1.45229777
v 0.70092689 -0.91102102 -1.43777340
v 0.33220340 -0.91102102 -1.43826583
v 0.31657451 -0.91102102 -1.43826583
v 0.28341238 -0.91095910 -1.43122513
v 0.28341238 -0.91102102 -1.43117589
v 0.11996576 -0.91102102 -1.21980827
v 0.10223552 -0.86015844 -0.95009665
v 0.77309559 -0.59495538 -0.95009665
v 0.52447810 -0.59495538 -1.43954591
v 0.52671076 -0.59987457 -1.43969364
v 0.66822443 -0.80948152 -1.43920122
v 0.73527105 -0.91102102 -1.43733022
v 0.11353035 -0.91102102 -0.95009665
v 0.77309559 -0.76511599 -0.95009665
v 0.77309559 -0.59495538 -1.37430895
v 0.56801568 -0.62477989 -1.43600089
v 0.58331624 -0.66796974 -1.43885652
v 0.64497811 -0.75097723 -1.43792113
v 0.73507403 -0.88555880 -1.43718271
v 0.75405194 -0.91102102 -1.43669028
v 0.62448983 -0.91102102 -0.95009665
v 0.70079551 -0.91102102 -1.01203481
v 0.77237320 -0.91102102 -1.07801030
v 0.77309559 -0.77944045 -1.21306302
v 0.77309559 -0.70543601 -1.29243052
v 0.77158521 -0.91102102 -1.42950186
v 0.77033750 -0.91102102 -1.43255456
v 0.70946366 -0.83355155 -1.43629635
v 0.77237320 -0.91102102 -1.08406626
v 0.77309559 -0.77944045 -1.22364864
v 0.77309559 -0.70701391 -1.29119957
v 0.77309559 -0.77888354 -1.22734128
f 1 2 3
f 1 3 4
f 1 4 5
f 1 5 6
f 1 6 7
f 1 7 16
f 1 16 8
f 1 8 17
f 1 17 24
f 1 24 18
f 1 18 9
f 1 9 10
f 1 10 11
f 1 11 12
f 1 12 13
f 1 13 2
f 2 13 14
f 2 14 12
f 2 12 11
f 2 11 10
f 2 10 21
f 2 21 29
f 2 29 36
f 2 36 35
f 2 35 38
f 2 38 32
f 2 32 31
f 2 31 30
f 2 30 22
f 2 22 15
f 2 15 6
f 2 6 5
f 2 5 4
f 2 4 3
f 6 15 7
f 7 15 16
f 8 16 22
f 8 22 30
f 8 30 23
f 8 23 17
f 9 18 19
f 9 19 20
f 9 20 21
f 9 21 10
f 12 14 13
f 15 22 16
f 17 23 33
f 17 33 39
f 17 39 41
f 17 41 40
f 17 40 34
f 17 34 24
f 18 24 25
f 18 25 26
f 18 26 19
f 19 26 20
f 20 26 27
f 20 27 28
f 20 28 29
f 20 29 21
f 23 30 31
f 23 31 32
f 23 32 33
f 24 34 35
f 24 35 36
f 24 36 37
f 24 37 25
f 25 27 26
f 25 37 27
f 27 37 28
f 28 37 29
f 29 37 36
f 32 38 39
f 32 39 33
f 34 40 35
f 35 40 41
f 35 41 38
f 38 41 39

