# https://github.com/mikedh/trimesh
v -0.65868689 0.26359793 -1.67795235
v -0.65868689 0.26572147 -1.66199199
v -0.92481754 0.41598020 -1.63434090
v -1.03500534 0.47724766 -1.67547850
v -1.03500534 0.48066890 -1.69076036
v -0.91652850 0.42046318 -1.71573833
v -0.65868689 0.27567055 -1.71725457
v -0.65868689 0.27614244 -1.62548295
v -0.78880502 0.34275805 -1.63130842
v -1.03500534 0.48118013 -1.63063013
v -1.03500534 0.48888774 -1.71625694
v -0.65868689 0.29073182 -1.75017270
v -0.65868689 0.28538369 -1.74003781
v -0.65868689 0.31204567 -1.61854022
v -0.67419642 0.31000078 -1.61858003
v -0.73826084 0.32816870 -1.62189183
v -1.01949571 0.47693309 -1.62687934
v -1.03500534 0.52695378 -1.61702397
v -1.03500534 0.51016222 -1.75232720
v -1.00520195 0.48059027 -1.73253643
v -0.65868689 0.29501820 -1.75719506
v -0.66797052 0.37331316 -1.62424603
v -0.73380321 0.39234620 -1.61997662
v -0.87887830 0.45703492 -1.61566740
v -0.65868689 0.37067843 -1.62620105
v -1.01949571 0.52730769 -1.61522841
v -0.94861601 0.45412492 -1.62153268
v -1.03500534 0.58165411 -1.62939321
v -1.03500534 0.51708338 -1.76226261
v -0.97970882 0.49490436 -1.77941987
v -1.02498486 0.50469613 -1.75288584
v -0.71151512 0.34669049 -1.79023284
v -0.65868689 0.33029220 -1.81110107
v -0.95325787 0.52805487 -1.62496413
v -0.75424927 0.43245712 -1.63262517
v -1.01949571 0.57650258 -1.63114874
v -0.65868689 0.40520529 -1.66306945
v -0.66797052 0.40846921 -1.66031629
v -0.70738910 0.41951938 -1.64575253
v -1.03500534 0.61602367 -1.66103439
v -1.03500534 0.54972266 -1.80611335
v -0.65868689 0.38766659 -1.88687252
v -0.65868689 0.38570036 -1.88435865
v -0.65868689 0.35656094 -1.84705147
v -0.65868689 0.33359546 -1.81592891
v -0.84354893 0.49226964 -1.64268002
v -0.97945087 0.56521647 -1.64008653
v -0.65868689 0.58967630 -1.89628890
v -0.69876856 0.63564655 -1.92038910
v -0.73826084 0.64862366 -1.90502719
v -0.78350006 0.66529719 -1.88986498
v -0.79760974 0.66529719 -1.87897218
v -0.80744593 0.66529719 -1.87175012
v -0.87685209 0.66529719 -1.82099646
v -0.87983612 0.66529719 -1.81884174
v -0.95336830 0.66529719 -1.76804805
v -0.98202970 0.66529719 -1.74881592
v -1.01636433 0.66529719 -1.72603268
v -1.03500534 0.66529719 -1.71414225
v -0.88057297 0.66529719 -1.81832292
v -1.03500534 0.66529719 -1.93970086
v -0.65868689 0.41963738 -1.92637402
v -0.65868689 0.62845022 -1.95913269
v -0.68399583 0.64539903 -1.95913269
v -0.71431496 0.66529719 -1.95849421
v -0.73899764 0.66529719 -1.93148138
v -0.91899680 0.66529719 -1.99536241
v -0.85474824 0.62561884 -1.99923285
v -0.77300077 0.56277835 -1.99404565
v -0.65868689 0.48932029 -1.99604069
v -0.65868689 0.45416426 -1.96256414
v -0.65868689 0.45093963 -1.95921231
v -0.65868689 0.44134446 -1.94923730
v -0.65868689 0.62923668 -1.97333729
v -0.68200645 0.64673606 -2.00705335
v -0.71239928 0.66529719 -1.98119761
v -0.87792044 0.66529719 -2.01064447
v -0.87733105 0.66529719 -2.01084396
v -0.80858798 0.61008569 -2.00717300
v -0.72610372 0.54748114 -2.00382138
v -0.65868689 0.50917916 -2.00737248
v -0.65868689 0.60237807 -2.01619062
v -0.72949294 0.66529719 -2.01251966
v -0.80641441 0.66529719 -2.02285404
v -0.65868689 0.52561675 -2.01399609
v -0.66793364 0.52534151 -2.01224034
v -0.65868689 0.51731932 -2.01156206
v -0.65868689 0.59923212 -2.01702857
v -0.73501892 0.66529719 -2.01387644
f 1 2 3
f 1 3 4
f 1 4 5
f 1 5 6
f 1 6 7
f 1 7 13
f 1 13 12
f 1 12 21
f 1 21 33
f 1 33 45
f 1 45 44
f 1 44 43
f 1 43 42
f 1 42 62
f 1 62 73
f 1 73 72
f 1 72 71
f 1 71 70
f 1 70 81
f 1 81 87
f 1 87 85
f 1 85 88
f 1 88 82
f 1 82 74
f 1 74 63
f 1 63 48
f 1 48 37
f 1 37 25
f 1 25 14
f 1 14 8
f 1 8 2
f 2 8 9
f 2 9 3
f 3 9 10
f 3 10 4
f 4 10 18
f 4 18 28
f 4 28 40
f 4 40 59
f 4 59 61
f 4 61 41
f 4 41 29
f 4 29 19
f 4 19 11
f 4 11 5
f 5 11 6
f 6 11 12
f 6 12 13
f 6 13 7
f 8 14 15
f 8 15 16
f 8 16 17
f 8 17 10
f 8 10 9
f 10 17 18
f 11 19 20
f 11 20 12
f 12 20 21
f 14 22 23
f 14 23 24
f 14 24 15
f 14 25 22
f 15 24 26
f 15 26 16
f 16 26 18
f 16 18 27
f 16 27 17
f 17 27 18
f 18 26 28
f 19 29 30
f 19 30 31
f 19 31 20
f 20 31 30
f 20 30 21
f 21 30 32
f 21 32 33
f 22 34 24
f 22 24 23
f 22 25 35
f 22 35 36
f 22 36 28
f 22 28 34
f 24 34 26
f 25 37 38
f 25 38 39
f 25 39 35
f 26 34 28
f 28 36 40
f 29 41 30
f 30 33 32
f 30 41 42
f 30 42 43
f 30 43 44
f 30 44 45
f 30 45 33
f 35 46 47
f 35 47 36
f 35 39 46
f 36 47 40
f 37 48 49
f 37 49 50
f 37 50 51
f 37 51 52
f 37 52 53
f 37 53 54
f 37 54 38
f 38 54 55
f 38 55 39
f 39 56 57
f 39 57 58
f 39 58 59
f 39 59 40
f 39 40 46
f 39 55 60
f 39 60 56
f 40 47 46
f 41 61 62
f 41 62 42
f 48 63 49
f 49 63 64
f 49 64 65
f 49 65 66
f 49 66 51
f 49 51 50
f 51 66 65
f 51 65 76
f 51 76 83
f 51 83 89
f 51 89 84
f 51 84 78
f 51 78 77
f 51 77 67
f 51 67 61
f 51 61 59
f 51 59 58
f 51 58 57
f 51 57 56
f 51 56 60
f 51 60 55
f 51 55 54
f 51 54 53
f 51 53 52
f 61 67 68
f 61 68 69
f 61 69 70
f 61 70 71
f 61 71 72
f 61 72 73
f 61 73 62
f 63 74 75
f 63 75 64
f 64 75 76
f 64 76 65
f 67 77 68
f 68 77 78
f 68 78 79
f 68 79 80
f 68 80 70
f 68 70 69
f 70 80 81
f 74 82 75
f 75 82 83
f 75 83 76
f 78 84 85
f 78 85 86
f 78 86 87
f 78 87 79
f 79 87 80
f 80 87 81
f 82 88 89
f 82 89 83
f 84 88 85
f 84 89 88
f 85 87 86

