# https://github.com/mikedh/trimesh
v -12.21747563 14.17147030 0.40399140
v -12.21747563 14.10209679 0.14381038
v -12.49882907 14.14328758 0.40399140
v -12.49882907 14.10426675 0.66921902
v -11.93863371 14.11727313 0.68477941
v -11.65728027 14.12377632 0.68477941
v -10.81321827 14.13678272 0.68477941
v -10.25302292 14.14328758 0.68477941
v -8.84625236 14.15412567 0.68477941
v -3.22922422 14.15846224 0.68477941
v -0.70206349 14.15846224 0.68477941
v 2.94800053 14.16063053 0.40399140
v -12.21747563 14.01971774 0.00334625
v -12.49882907 14.08258722 0.18754770
v 2.94800053 14.09125702 0.17254805
v -12.64955442 14.05657110 0.24263991
v -12.66965170 14.08041893 0.40399140
v -12.66965170 14.07825065 0.62113600
v -12.29534983 14.01755029 0.82131838
v -12.10694313 14.04573301 0.82608461
v -12.20742782 14.09993018 0.71043304
v -11.09457172 14.06957917 0.84192539
v -10.25302292 14.08258722 0.85496246
v -9.97166948 14.08692212 0.85930817
v -9.69031437 14.09125702 0.86351367
v -9.12760748 14.09776189 0.87178451
v -8.84625236 14.09993018 0.87584984
v -8.56741213 14.10209679 0.87963480
v -8.28605702 14.10209679 0.88145720
v -7.72335013 14.10209679 0.88145720
v -1.26225915 14.09342699 0.87949463
v 2.66664667 14.14979077 0.68477941
v 3.51070825 14.15846224 0.40399140
v 12.49895966 14.07825065 0.21179951
v -5.47754315 13.87447002 -0.08538997
v -5.75638464 13.87447002 -0.08538997
v -9.12760748 13.87663748 -0.08342742
v -9.40896092 13.87663748 -0.08258637
v -9.69031437 13.87663748 -0.08090417
v -11.65728027 13.87880576 -0.06716609
v -11.93863371 13.87880576 -0.06520354
v -12.21747563 13.87880576 -0.06324098
v -12.41090538 13.83978410 -0.04726006
v 3.22935439 14.00454307 0.03306519
v 2.94800053 14.00454307 0.03208392
v 3.51070825 13.86363026 -0.08216579
v 2.66664667 13.86579855 -0.08258637
v -12.57921648 13.62299543 0.06769063
v -12.65709069 13.90482021 0.22189273
v -12.70230829 13.90482021 0.40399140
v -12.68472423 13.90482021 0.66108837
v -12.49631754 13.91565998 0.80393558
v -12.40085757 13.82894433 0.83000977
v -10.81321827 12.21820648 1.17374028
v -10.53186483 12.21820648 1.19392676
v -11.93863371 14.05006791 0.82874812
v -8.56741213 13.90482021 0.94047455
v -11.65728027 14.05657110 0.83323400
v -8.28605702 13.90482021 0.94439968
v -6.88180008 13.90482021 0.94580153
v -6.60044622 13.90482021 0.94608191
v 0.42083993 13.90482021 0.95196962
v 1.26238943 13.90482021 0.95253034
v 1.54374329 13.90482021 0.95267055
v 2.10645111 13.90482021 0.95281072
v -1.54361301 14.09342699 0.87977500
v 2.66664667 13.90482021 0.95239017
v -0.70206349 14.09125702 0.87879370
v 5.47767332 14.07174746 0.86000909
v 3.22935439 14.14762248 0.68477941
v 12.49895966 14.11943976 0.40399140
v 12.67229382 14.06741088 0.22918224
v 12.49895966 13.96118483 0.07133538
v 3.51070825 14.00454307 0.03516797
v -4.07077385 13.62299543 -0.15323898
v -4.63348157 13.62299543 -0.15351933
v 3.22935439 13.62299543 -0.14959412
v -4.91483543 13.62299543 -0.15351933
v -5.47754315 13.62299543 -0.15337921
v -6.03773850 13.62299543 -0.15323898
v -8.56741213 13.87447002 -0.08454892
v -8.28605702 13.62299543 -0.15211748
v -8.56741213 13.62299543 -0.15155678
v -8.84625236 13.62299543 -0.15071573
v -9.12760748 13.62299543 -0.14959412
v -9.40896092 13.62299543 -0.14791203
v -10.25302292 13.62299543 -0.13683743
v -11.65728027 13.62299543 -0.11721170
v -11.93863371 13.62299543 -0.11314636
v -12.21747563 13.62299543 -0.10880079
v -9.69031437 13.62299543 -0.14468774
v -12.43853892 13.62299543 -0.06183913
v 12.21760621 13.82244031 -0.06029716
v 9.97179840 13.83328007 -0.06702597
v 6.88193067 13.84845558 -0.07599768
v 5.47767332 13.85495878 -0.08020324
v 4.91496560 13.85712707 -0.08118451
v 4.07090402 13.86146281 -0.08174532
v 5.19631946 13.62299543 -0.14791203
v 4.91496560 13.62299543 -0.14833250
v 3.79206211 13.62299543 -0.14917365
v -12.58172801 13.06151334 0.05493388
v -12.70984457 9.97227894 0.15067936
v -12.69226050 11.37489962 0.16708086
v -12.68472423 11.93855000 0.17521153
v -12.67718796 12.50003125 0.18460382
v -12.66965170 13.06151334 0.19539796
v -12.66211543 13.62299543 0.20815471
v -12.71738083 13.34117066 0.40399140
v -12.74752590 11.93855000 0.40399140
v -12.76259844 11.09524312 0.40399140
v -12.76762318 10.81341835 0.40399140
v -12.78269571 9.69045417 0.40399140
v -12.68723576 13.62299543 0.66417240
v -12.63950662 10.95649861 0.82524351
v -12.62945714 11.37489962 0.82272021
v -12.62192088 11.65672521 0.82089783
v -12.61438462 11.93855000 0.81893525
v -12.59931208 12.50003125 0.81472975
v -12.59177581 12.77968857 0.81248679
v -12.58423954 13.06151334 0.80996349
v -12.57670327 13.34117066 0.80744018
v -12.56665548 13.62299543 0.80463650
v -12.42597792 13.62299543 0.83281345
v -10.81321827 11.93855000 1.17724486
v -12.49882907 4.91460687 0.93991382
v -10.81321827 11.65672521 1.18004857
v -10.81321827 11.37489962 1.18271204
v -10.81321827 11.09524312 1.18523535
v -10.81321827 10.81341835 1.18775865
v -10.81321827 10.53376103 1.19000161
v -10.81321827 10.25193626 1.19210433
v -10.81321827 9.97227894 1.19406694
v -10.81321827 9.69045417 1.19588932
v -10.53186483 11.93855000 1.19560897
v -6.31909236 11.93855000 1.20682363
v -6.03773850 11.93855000 1.20738438
v 2.66664667 12.21820648 1.21607580
v 2.94800053 12.21820648 1.21635615
v 3.79206211 12.21820648 1.21593557
v 5.19631946 12.21820648 1.21523465
v 5.47767332 12.21820648 1.21481412
v 2.94800053 13.90482021 0.95154907
v -0.13935574 14.08909041 0.87781242
v 2.94800053 14.07825065 0.87108359
v 2.38529281 14.08041893 0.87192469
v 5.19631946 13.90482021 0.93949327
v 5.47767332 13.90482021 0.93781105
v 6.60057681 14.06524425 0.85089713
v 5.75651523 14.13244780 0.68477941
v 5.47767332 14.13461610 0.68477941
v 5.19631946 14.13678272 0.68477941
v 12.21760621 14.08692212 0.64903255
v 12.49895966 14.08475384 0.62982739
v 12.66978229 14.06957917 0.58959465
v 12.68736635 14.08041893 0.40399140
v 12.76021750 13.90482021 0.40399140
v 12.71499990 13.89831617 0.13063311
v 12.67731855 13.80076160 -0.04515728
v 12.49895966 13.82027286 -0.05945611
v 5.19631946 13.34117066 -0.15169690
v -0.98090529 13.34117066 -0.15422026
v -1.82496687 13.34117066 -0.15422026
v -9.40896092 7.72418395 -0.15450061
v -7.16315478 13.62299543 -0.15267828
v -9.40896092 8.00384127 -0.15436038
v -9.40896092 8.56749083 -0.15379968
v -9.40896092 9.69045417 -0.15267828
v -9.69031437 8.56749083 -0.15211748
v -9.69031437 9.12897208 -0.15141655
v -9.69031437 9.97227894 -0.15015493
v -9.69031437 11.93855000 -0.14721110
v -10.25302292 11.93855000 -0.13936079
v -11.65728027 13.06151334 -0.11805285
v -11.93863371 13.34117066 -0.11356705
v -12.21747563 -5.75788445 -0.10417465
v -12.49882907 -5.75788445 -0.08482927
v -12.49882907 -5.47605967 -0.08468904
v -11.65728027 12.77968857 -0.11847332
v -11.65728027 12.50003125 -0.11847332
v -11.93863371 -5.75788445 -0.10936149
v -12.66713849 -5.47605967 -0.04249380
v -12.65206595 1.26605846 -0.02833525
v -12.64452969 4.35312479 -0.02160644
v -12.64452969 4.63494955 -0.02076534
v -12.64201816 5.19643164 -0.01880274
v -12.63950662 5.60182584 -0.01726076
v -12.61187308 8.00384127 -0.00730772
v -12.60936155 8.28566521 -0.00534512
v -12.58675275 11.37489962 0.02661679
v -12.58423954 12.21820648 0.03937348
v 5.75651523 13.62299543 -0.14566902
v 5.47767332 13.62299543 -0.14707087
v 5.47767332 13.34117066 -0.15141655
v -12.71738083 9.40862940 0.14535240
v -12.72742862 8.28566521 0.13511901
v -12.72994183 8.00384127 0.13315641
v -12.79274351 8.56749083 0.40399140
v -12.70733303 11.37489962 0.68225610
v -12.70481983 11.65672521 0.68043371
v -12.70230829 11.93855000 0.67847115
v -12.69979677 12.21820648 0.67650857
v -12.69728356 12.50003125 0.67426563
v -12.69477203 12.77968857 0.67202269
v -12.69226050 13.06151334 0.66949938
v -12.68974729 13.34117066 0.66697608
v -12.49882907 4.63494955 0.94327823
v -12.67718796 5.47608855 0.86393423
v -12.67969949 4.91460687 0.86898083
v -10.81321827 9.40862940 1.19757152
v -10.81321827 9.12897208 1.19911355
v -10.81321827 8.84714815 1.20037517
v -10.81321827 8.56749083 1.20121627
v -10.53186483 9.40862940 1.20079575
v 2.94800053 -2.10500092 1.26303735
v 3.51070825 -1.82534360 1.26261677
v 4.07090402 -1.82534360 1.26289712
v 7.44212561 -6.03754177 1.27761642
v 7.72348072 -5.75788445 1.27579405
v 7.72348072 12.21820648 1.20710404
v 8.56754105 12.21820648 1.20416015
v 11.37605575 13.62299543 0.93654939
v 11.65741086 13.62299543 0.93402609
v 12.21760621 13.87447002 0.87542929
v 8.28618760 14.05440449 0.83701896
v 9.60252127 14.04573301 0.82608461
v 9.78841644 14.04356472 0.82384169
v 11.93625111 14.01755029 0.79272088
v 12.21760621 14.01321455 0.78949665
v 12.51152066 13.91999572 0.76776818
v 12.69239109 13.90482021 0.63164977
v 12.78784937 13.62299543 0.40399140
v 12.78282630 13.62299543 0.12306314
v 12.69992736 13.62299543 -0.06239983
v 12.49895966 13.62299543 -0.10838011
v 11.09470231 13.62299543 -0.11623053
v 6.88193067 13.62299543 -0.13950091
v 6.03786909 12.50003125 -0.15225760
v -0.42070960 12.21820648 -0.15436038
v 8.56754105 9.69045417 -0.15393991
v 9.12773807 9.12897208 -0.15422026
v 9.40909152 8.84714815 -0.15436038
v 9.40909152 8.56749083 -0.15450061
v -0.98090529 12.21820648 -0.15436038
v -9.40896092 6.31939499 -0.15450061
v 2.10645111 8.84714815 -0.15450061
v -9.97166948 9.12897208 -0.14749145
v -9.40896092 -7.72415549 -0.15253806
v -9.69031437 -7.72415549 -0.14805215
v -10.25302292 9.97227894 -0.14230461
v -12.21747563 -6.03754177 -0.10305315
v -12.49882907 -7.97563009 -0.07992289
v -12.49882907 -6.88084863 -0.08258637
v -12.49882907 -6.60119131 -0.08314717
v -11.37592516 -6.31936654 -0.11903413
v -10.25302292 -7.44233071 -0.13809905
v -9.97166948 -7.72415549 -0.14286531
v -11.37592516 -6.60119131 -0.11833320
v -12.66965170 -7.97563009 -0.04333490
v -12.66965170 -7.72415549 -0.04347508
v -12.66713849 -6.03754177 -0.04305455
v -11.37592516 -6.03754177 -0.11917425
v -10.25302292 -7.16267339 -0.13851974
v -12.76008691 0.98423348 0.12306314
v -12.75757370 2.10719725 0.12306314
v -12.75255064 4.07130002 0.12306314
v -12.65457916 0.42275159 -0.02987728
v -12.65206595 1.54571536 -0.02749415
v -12.75003744 4.63494955 0.12306314
v 6.03786909 13.34117066 -0.14931388
v 11.93625111 13.34117066 -0.11875378
v 11.37605575 13.34117066 -0.12169761
v 6.88193067 13.34117066 -0.14496809
v 5.75651523 13.34117066 -0.15057550
v 6.60057681 11.93855000 -0.15253806
v 6.03786909 13.06151334 -0.15071573
v 6.88193067 11.93855000 -0.15211748
v -12.82037705 5.19643164 0.40399140
v -12.80781605 6.88087709 0.40399140
v -12.80530452 7.16270186 0.40399140
v -12.75757370 4.91460687 0.68477941
v -12.67969949 4.63494955 0.87122379
v -12.49882907 4.35312479 0.94496043
v -12.76008691 4.35312479 0.68477941
v -12.49882907 4.07130002 0.94538098
v -10.81321827 8.28566521 1.20149668
v 2.66664667 -2.10500092 1.26191585
v 7.44212561 -6.31936654 1.25308426
v 12.21760621 -7.97563009 0.98084747
v -10.53186483 -6.31936654 1.19602949
v -4.30439774 -7.97563009 1.21481412
v 8.28618760 -5.19640319 1.27074744
v 8.00483416 -5.47605967 1.27327074
v 8.56754105 -4.63492110 1.26584101
v 8.84638297 12.21820648 1.19771169
v 12.21760621 13.62299543 0.92589545
v 11.93625111 13.62299543 0.93038131
v 12.42610851 13.83544836 0.85804652
v 12.59944267 13.62299543 0.79159941
v 12.70243889 13.62299543 0.65113532
v 12.79789884 12.50003125 0.40399140
v 12.79036257 13.06151334 0.12306314
v 12.78784937 13.34117066 0.12306314
v 12.70495042 13.34117066 0.65141568
v 12.70243889 13.34117066 -0.06618492
v 12.49895966 13.34117066 -0.11566972
v 5.19631946 8.84714815 -0.15450061
v 8.56754105 9.97227894 -0.15351933
v 9.40909152 9.12897208 -0.15379968
v 9.69044496 8.84714815 -0.15379968
v 9.69044496 8.56749083 -0.15408014
v 9.69044496 4.63494955 -0.15422026
v 9.40909152 -7.97563009 -0.15450061
v -9.12760748 -7.97563009 -0.15450061
v -9.40896092 -7.97563009 -0.15239783
v -9.43910600 -7.97563009 -0.15197736
v -9.69031437 -7.97563009 -0.14763157
v -11.96877879 -7.97563009 -0.09884769
v -12.21747563 -6.60119131 -0.10024944
v -10.00181288 -7.97563009 -0.14132334
v -11.37592516 -6.88084863 -0.11707157
v -12.21747563 -7.72415549 -0.09464224
v -12.21747563 -7.97563009 -0.09338051
v -9.72045944 -7.97563009 -0.14707087
v -12.75255064 -7.97563009 0.12306314
v -12.76008691 0.70240871 0.12306314
v -12.83293638 0.98423348 0.40399140
v -12.83042485 2.38902203 0.40399140
v -12.82791331 3.79164269 0.40399140
v -12.82540012 4.35312479 0.40399140
v 6.60057681 13.06151334 -0.14791203
v 7.44212561 11.65672521 -0.15099598
v 6.60057681 12.50003125 -0.15085585
v 12.21760621 13.06151334 -0.11875378
v 11.37605575 11.93855000 -0.12912734
v 11.09470231 13.06151334 -0.12464143
v 9.40909152 9.40862940 -0.15267828
v -12.67969949 4.35312479 0.87290599
v -12.76008691 -0.70021196 0.68477941
v -12.67969949 4.07130002 0.87332654
v -12.49882907 -5.19640319 0.94482023
v -12.21747563 -7.97563009 0.98841738
v -10.81321827 8.00384127 1.20093592
v 12.49895966 -7.97563009 0.93346536
v 12.21760621 -7.72415549 0.98547352
v 8.56754105 -4.91457758 1.26682228
v -10.81321827 -6.31936654 1.16659089
v 12.21760621 4.35312479 0.99766952
v 12.45876679 13.62299543 0.87416764
v 12.65219654 4.63494955 0.83954226
v 12.80041037 12.21820648 0.40399140
v 12.79538563 11.93855000 0.12306314
v 12.82301917 7.72418395 0.40399140
v 12.74263176 4.63494955 0.68477941
v 12.79789884 11.37489962 0.12306314
v 12.80041037 10.53376103 0.12306314
v 12.80543511 8.84714815 0.12306314
v 12.70243889 11.93855000 -0.06940910
v 12.49895966 9.12897208 -0.13277210
v 12.49895966 9.69045417 -0.13109000
v 12.49895966 9.97227894 -0.13010862
v 12.49895966 10.53376103 -0.12814607
v 12.49895966 11.09524312 -0.12590306
v 12.49895966 11.65672521 -0.12352004
v 12.49895966 11.93855000 -0.12225841
v 12.49895966 13.06151334 -0.11707157
v 9.69044496 9.12897208 -0.15267828
v 9.97179840 8.84714815 -0.15225760
v 9.97179840 8.56749083 -0.15281841
v 12.21760621 4.63494955 -0.14679052
v 12.21760621 4.35312479 -0.14693064
v 11.93625111 4.35312479 -0.14791203
v 11.65741086 4.35312479 -0.14875307
v 11.37605575 4.35312479 -0.14959412
v 9.97179840 4.35312479 -0.15365946
v 9.69044496 1.54571536 -0.15422026
v 9.97179840 1.82754034 -0.15365946
v 11.37605575 3.79164269 -0.14959412
v 11.65741086 4.07130002 -0.14875307
v 9.66029988 -7.97563009 -0.15351933
v -11.65728027 -7.97563009 -0.10557651
v -12.78269571 -7.97563009 0.40399140
v -12.80530452 -5.75788445 0.40399140
v -12.80781605 -5.19640319 0.40399140
v -12.75506217 -4.63492110 0.68477941
v -12.75757370 -2.94830737 0.68477941
v 9.97179840 11.93855000 -0.13641696
v 7.72348072 11.93855000 -0.14805215
v 9.40909152 9.97227894 -0.14973435
v 10.81334887 10.53376103 -0.13936079
v 10.81334887 10.81341835 -0.13795893
v 9.97179840 9.40862940 -0.14973435
v 9.97179840 9.97227894 -0.14679052
v 9.97179840 10.53376103 -0.14384669
v -12.67969949 2.95050411 0.87122379
v -12.67969949 3.50981791 0.87234526
v -12.67969949 3.79164269 0.87290599
v -12.49882907 -7.97563009 0.93206351
v -12.66965170 -5.19640319 0.86365385
v 12.66224602 -7.97563009 0.85552321
v 12.49895966 -6.60119131 0.95855825
v 12.21760621 -6.60119131 1.00257593
v 8.84638297 -4.63492110 1.24719655
v 12.21760621 -6.31936654 1.00650108
v 12.49895966 -6.31936654 0.96206283
v 12.49895966 4.35312479 0.92701690
v 12.65219654 4.35312479 0.84080391
v 12.67480536 -6.31936654 0.87094341
v 12.67480536 -6.03754177 0.86954158
v 12.82553070 6.88087709 0.40399140
v 12.76524056 -5.75788445 0.68477941
v 12.82804391 5.75791332 0.40399140
v 12.80543511 8.28566521 0.12306314
v 12.70243889 11.09524312 -0.07109130
v 12.83055544 -6.31936654 0.40399140
v 12.49895966 8.84714815 -0.13333290
v 12.21760621 5.19643164 -0.14566902
v 12.21760621 8.84714815 -0.13795893
v 12.21760621 9.12897208 -0.13683743
v 12.21760621 9.97227894 -0.13305255
v 11.65741086 9.40862940 -0.13922066
v 11.65741086 10.81341835 -0.13277210
v 10.53199542 9.40862940 -0.14636995
v 9.97179840 9.12897208 -0.15113620
v 10.25315351 8.84714815 -0.15057550
v 12.49895966 8.56749083 -0.13347302
v 12.21760621 4.07130002 -0.14679052
v 9.69044496 -7.97563009 -0.15337921
v -12.72240557 -7.97563009 0.65435953
v -12.74250117 -6.03754177 0.68477941
v -12.75003744 -5.47605967 0.68477941
v -12.75255064 -5.19640319 0.68477941
v -12.67969949 2.66867914 0.87052286
v 9.12773807 11.09524312 -0.14524855
v -12.65960222 -7.72415549 0.85271953
v -12.65709069 -7.97563009 0.85187843
v 12.67229382 -6.60119131 0.86926121
v 12.74514496 -7.97563009 0.68477941
v 12.76021750 -6.88084863 0.68477941
v 12.76272903 -6.60119131 0.68477941
v 12.76524056 -6.31936654 0.68477941
v 12.78784937 -1.26386193 0.12306314
v 12.69992736 8.28566521 -0.07291373
v 12.69992736 8.56749083 -0.07333420
v 12.69992736 8.84714815 -0.07347443
v 12.69992736 9.12897208 -0.07347443
v 12.69992736 9.40862940 -0.07333420
v 12.82804391 -6.60119131 0.40399140
v 12.77026530 -6.60119131 0.12306314
v 11.37605575 8.84714815 -0.14342612
v 11.65741086 8.84714815 -0.14160369
v 11.65741086 9.12897208 -0.14048229
v 10.53199542 9.12897208 -0.14763157
v 12.49895966 7.72418395 -0.13277210
v 12.49895966 7.16270186 -0.13207117
v 12.49895966 6.88087709 -0.13165070
v 12.21760621 3.79164269 -0.14636995
v 9.94165333 -7.97563009 -0.15071573
v -12.71486930 -7.97563009 0.68477941
v -12.66462696 -7.97563009 0.83379473
v 12.80794664 -7.97563009 0.40399140
v 12.82553070 -6.88084863 0.40399140
v 12.68485482 -1.26386193 -0.05819438
v 12.49895966 4.35312479 -0.12702467
v 12.49895966 6.60122018 -0.13123012
v 12.76775377 -6.88084863 0.12306314
v 12.66978229 -7.72415549 -0.04571803
v 12.67229382 -6.88084863 -0.04697971
v 12.21760621 1.26605846 -0.14188414
v 12.21760621 -4.63492110 -0.13024885
v 12.21760621 -4.91457758 -0.12968815
v 12.21760621 -7.44233071 -0.12436119
v 10.25315351 -7.97563009 -0.14665040
v 12.75519276 -7.97563009 0.12306314
v 12.49895966 -7.44233071 -0.09870747
v 12.49895966 -4.91457758 -0.10501570
v 12.67731855 -7.97563009 -0.02693340
v 12.66726908 -7.97563009 -0.04515728
v 12.64968501 -7.97563009 -0.05076464
v 12.49895966 -7.72415549 -0.09730572
v 12.49895966 -7.97563009 -0.09604399
v 12.46881458 -7.97563009 -0.09870747
v 12.21760621 -7.97563009 -0.12071633
v 12.18746114 -7.97563009 -0.12113691
f 1 2 3
f 1 3 4
f 1 4 5
f 1 5 6
f 1 6 7
f 1 7 8
f 1 8 9
f 1 9 10
f 1 10 11
f 1 11 12
f 1 12 2
f 2 13 14
f 2 14 3
f 2 12 15
f 2 15 13
f 3 14 16
f 3 16 17
f 3 17 18
f 3 18 4
f 4 18 19
f 4 19 20
f 4 20 21
f 4 21 5
f 5 21 22
f 5 22 6
f 6 22 23
f 6 23 24
f 6 24 25
f 6 25 26
f 6 26 7
f 7 26 27
f 7 27 28
f 7 28 8
f 8 28 9
f 9 28 29
f 9 29 10
f 10 29 30
f 10 30 11
f 11 30 31
f 11 31 32
f 11 32 12
f 12 32 70
f 12 70 33
f 12 33 34
f 12 34 15
f 13 35 36
f 13 36 37
f 13 37 38
f 13 38 39
f 13 39 40
f 13 40 41
f 13 41 42
f 13 42 43
f 13 43 14
f 13 15 44
f 13 44 45
f 13 45 46
f 13 46 47
f 13 47 35
f 14 43 16
f 15 34 44
f 16 48 49
f 16 49 50
f 16 50 17
f 16 43 48
f 17 50 18
f 18 50 51
f 18 51 52
f 18 52 19
f 19 52 53
f 19 53 54
f 19 54 55
f 19 55 20
f 20 56 21
f 20 55 57
f 20 57 56
f 21 56 58
f 21 58 22
f 22 58 57
f 22 57 23
f 23 57 24
f 24 57 25
f 25 57 26
f 26 57 27
f 27 57 28
f 28 57 59
f 28 59 29
f 29 59 60
f 29 60 61
f 29 61 62
f 29 62 63
f 29 63 64
f 29 64 65
f 29 65 30
f 30 66 31
f 30 65 67
f 30 67 66
f 31 68 69
f 31 69 70
f 31 70 32
f 31 66 67
f 31 67 68
f 33 70 71
f 33 71 34
f 34 71 72
f 34 72 73
f 34 73 74
f 34 74 44
f 35 75 76
f 35 76 78
f 35 78 36
f 35 47 77
f 35 77 75
f 36 78 79
f 36 79 80
f 36 80 81
f 36 81 37
f 37 81 82
f 37 82 83
f 37 83 38
f 38 83 84
f 38 84 85
f 38 85 86
f 38 86 39
f 39 86 40
f 40 86 41
f 41 86 42
f 42 87 88
f 42 88 89
f 42 89 90
f 42 90 43
f 42 86 91
f 42 91 87
f 43 90 92
f 43 92 48
f 44 74 93
f 44 93 94
f 44 94 95
f 44 95 96
f 44 96 97
f 44 97 98
f 44 98 46
f 44 46 45
f 46 98 99
f 46 99 100
f 46 100 47
f 47 100 101
f 47 101 77
f 48 102 103
f 48 103 104
f 48 104 105
f 48 105 106
f 48 106 107
f 48 107 108
f 48 108 49
f 48 92 102
f 49 108 50
f 50 109 51
f 50 108 109
f 51 109 110
f 51 110 111
f 51 111 112
f 51 112 113
f 51 113 114
f 51 114 115
f 51 115 116
f 51 116 117
f 51 117 118
f 51 118 119
f 51 119 120
f 51 120 121
f 51 121 122
f 51 122 123
f 51 123 52
f 52 123 53
f 53 123 124
f 53 124 54
f 54 125 55
f 54 124 122
f 54 122 121
f 54 121 120
f 54 120 126
f 54 126 125
f 55 59 57
f 55 125 127
f 55 127 128
f 55 128 129
f 55 129 130
f 55 130 131
f 55 131 132
f 55 132 133
f 55 133 134
f 55 134 135
f 55 135 136
f 55 136 137
f 55 137 138
f 55 138 59
f 56 57 58
f 59 138 60
f 60 138 139
f 60 139 61
f 61 139 62
f 62 139 63
f 63 139 64
f 64 139 65
f 65 139 140
f 65 140 141
f 65 141 67
f 67 141 142
f 67 142 143
f 67 143 68
f 68 144 145
f 68 145 146
f 68 146 69
f 68 143 144
f 69 147 148
f 69 148 149
f 69 149 150
f 69 150 151
f 69 151 152
f 69 152 70
f 69 146 145
f 69 145 147
f 70 152 71
f 71 153 154
f 71 154 155
f 71 155 156
f 71 156 72
f 71 152 151
f 71 151 150
f 71 150 153
f 72 156 157
f 72 157 158
f 72 158 159
f 72 159 73
f 73 159 160
f 73 160 93
f 73 93 74
f 75 77 161
f 75 161 76
f 76 161 162
f 76 162 163
f 76 163 78
f 77 101 161
f 78 163 164
f 78 164 79
f 79 164 80
f 80 164 165
f 80 165 81
f 81 165 82
f 82 164 166
f 82 166 83
f 82 165 164
f 83 166 84
f 84 166 167
f 84 167 168
f 84 168 85
f 85 168 86
f 86 168 169
f 86 169 170
f 86 170 171
f 86 171 172
f 86 172 91
f 87 173 174
f 87 174 88
f 87 91 172
f 87 172 173
f 88 174 89
f 89 175 90
f 89 174 179
f 89 179 175
f 90 176 177
f 90 177 178
f 90 178 92
f 90 175 179
f 90 179 180
f 90 180 181
f 90 181 176
f 92 178 182
f 92 182 183
f 92 183 184
f 92 184 185
f 92 185 186
f 92 186 187
f 92 187 188
f 92 188 189
f 92 189 190
f 92 190 191
f 92 191 102
f 93 160 192
f 93 192 193
f 93 193 94
f 94 193 96
f 94 96 95
f 96 193 99
f 96 99 97
f 97 99 98
f 99 193 194
f 99 194 100
f 100 194 161
f 100 161 101
f 102 191 195
f 102 195 103
f 103 195 104
f 104 195 112
f 104 112 105
f 105 112 111
f 105 111 110
f 105 110 106
f 106 110 107
f 107 110 108
f 108 110 109
f 112 195 113
f 113 195 196
f 113 196 197
f 113 197 198
f 113 198 199
f 113 199 200
f 113 200 201
f 113 201 202
f 113 202 203
f 113 203 204
f 113 204 205
f 113 205 206
f 113 206 114
f 114 206 115
f 115 207 126
f 115 126 116
f 115 206 205
f 115 205 204
f 115 204 203
f 115 203 202
f 115 202 201
f 115 201 200
f 115 200 199
f 115 199 208
f 115 208 209
f 115 209 207
f 116 126 117
f 117 126 118
f 118 126 119
f 119 126 120
f 122 124 123
f 125 126 207
f 125 207 127
f 127 207 128
f 128 207 129
f 129 207 130
f 130 207 131
f 131 207 132
f 132 207 133
f 133 207 134
f 134 210 135
f 134 207 283
f 134 283 210
f 135 210 211
f 135 211 212
f 135 212 213
f 135 213 214
f 135 214 215
f 135 215 136
f 136 215 137
f 137 215 138
f 138 215 139
f 139 215 216
f 139 216 217
f 139 217 218
f 139 218 140
f 140 218 141
f 141 218 142
f 142 218 219
f 142 219 220
f 142 220 143
f 143 220 221
f 143 221 147
f 143 147 145
f 143 145 144
f 147 221 148
f 148 221 222
f 148 222 223
f 148 223 224
f 148 224 225
f 148 225 149
f 149 225 153
f 149 153 150
f 153 225 226
f 153 226 227
f 153 227 228
f 153 228 229
f 153 229 154
f 154 229 155
f 155 230 231
f 155 231 157
f 155 157 156
f 155 229 230
f 157 232 233
f 157 233 158
f 157 231 232
f 158 233 159
f 159 233 234
f 159 234 235
f 159 235 160
f 160 235 236
f 160 236 237
f 160 237 192
f 161 194 238
f 161 238 162
f 162 239 244
f 162 244 163
f 162 238 240
f 162 240 241
f 162 241 242
f 162 242 243
f 162 243 239
f 163 244 164
f 164 245 169
f 164 169 166
f 164 244 246
f 164 246 307
f 164 307 243
f 164 243 313
f 164 313 314
f 164 314 245
f 166 169 167
f 167 169 168
f 169 247 170
f 169 245 248
f 169 248 249
f 169 249 247
f 170 247 250
f 170 250 171
f 171 250 173
f 171 173 172
f 173 250 174
f 174 250 179
f 176 251 252
f 176 252 253
f 176 253 254
f 176 254 177
f 176 181 255
f 176 255 256
f 176 256 257
f 176 257 258
f 176 258 251
f 177 254 259
f 177 259 260
f 177 260 178
f 178 260 261
f 178 261 182
f 179 250 247
f 179 247 180
f 180 247 181
f 181 262 263
f 181 263 255
f 181 247 262
f 182 261 260
f 182 260 264
f 182 264 265
f 182 265 266
f 182 266 267
f 182 267 183
f 183 267 268
f 183 268 185
f 183 185 184
f 185 268 266
f 185 266 269
f 185 269 186
f 186 269 197
f 186 197 187
f 187 197 196
f 187 196 189
f 187 189 188
f 189 196 191
f 189 191 190
f 191 196 195
f 192 270 193
f 192 237 306
f 192 306 271
f 192 271 272
f 192 272 273
f 192 273 270
f 193 270 274
f 193 274 194
f 194 275 238
f 194 274 276
f 194 276 277
f 194 277 275
f 197 269 278
f 197 278 279
f 197 279 280
f 197 280 198
f 198 280 199
f 199 280 279
f 199 279 281
f 199 281 209
f 199 209 208
f 207 209 282
f 207 282 338
f 207 338 283
f 209 281 284
f 209 284 282
f 210 283 211
f 211 283 212
f 212 283 213
f 213 283 285
f 213 285 286
f 213 286 215
f 213 215 214
f 215 287 218
f 215 218 216
f 215 286 287
f 216 218 217
f 218 288 289
f 218 289 219
f 218 287 290
f 218 290 291
f 218 291 288
f 219 289 292
f 219 292 293
f 219 293 221
f 219 221 220
f 221 293 292
f 221 292 294
f 221 294 295
f 221 295 296
f 221 296 297
f 221 297 223
f 221 223 222
f 223 297 224
f 224 297 296
f 224 296 298
f 224 298 229
f 224 229 227
f 224 227 226
f 224 226 225
f 227 229 228
f 229 298 230
f 230 299 231
f 230 298 299
f 231 299 300
f 231 300 232
f 232 301 302
f 232 302 303
f 232 303 233
f 232 300 304
f 232 304 301
f 233 303 234
f 234 303 305
f 234 305 306
f 234 306 235
f 235 306 236
f 236 306 237
f 238 275 240
f 239 243 307
f 239 307 246
f 239 246 244
f 240 275 308
f 240 308 241
f 241 308 242
f 242 308 309
f 242 309 310
f 242 310 311
f 242 311 243
f 243 311 312
f 243 312 376
f 243 376 313
f 245 314 248
f 247 249 263
f 247 263 262
f 248 315 316
f 248 316 249
f 248 314 315
f 249 316 317
f 249 317 257
f 249 257 263
f 251 318 319
f 251 319 252
f 251 258 320
f 251 320 321
f 251 321 318
f 252 259 253
f 252 319 322
f 252 322 323
f 252 323 318
f 252 318 381
f 252 381 320
f 252 320 324
f 252 324 317
f 252 317 316
f 252 316 315
f 252 315 314
f 252 314 313
f 252 313 380
f 252 380 428
f 252 428 458
f 252 458 473
f 252 473 484
f 252 484 483
f 252 483 482
f 252 482 481
f 252 481 479
f 252 479 478
f 252 478 477
f 252 477 474
f 252 474 461
f 252 461 438
f 252 438 400
f 252 400 344
f 252 344 289
f 252 289 291
f 252 291 342
f 252 342 398
f 252 398 436
f 252 436 460
f 252 460 459
f 252 459 429
f 252 429 382
f 252 382 325
f 252 325 259
f 253 259 254
f 255 263 256
f 256 263 257
f 257 317 324
f 257 324 258
f 258 324 320
f 259 325 326
f 259 326 260
f 260 326 264
f 264 326 327
f 264 327 328
f 264 328 329
f 264 329 265
f 265 329 266
f 266 329 269
f 266 268 267
f 269 329 330
f 269 330 278
f 270 331 332
f 270 332 333
f 270 333 276
f 270 276 274
f 270 273 331
f 271 306 334
f 271 334 335
f 271 335 272
f 272 335 336
f 272 336 331
f 272 331 273
f 275 277 308
f 276 333 277
f 277 337 309
f 277 309 308
f 277 333 337
f 278 330 281
f 278 281 279
f 281 330 329
f 281 329 284
f 282 284 338
f 283 338 340
f 283 340 285
f 284 339 340
f 284 340 338
f 284 329 328
f 284 328 327
f 284 327 339
f 285 340 341
f 285 341 342
f 285 342 286
f 286 342 343
f 286 343 290
f 286 290 287
f 288 291 289
f 289 344 345
f 289 345 346
f 289 346 292
f 290 343 347
f 290 347 342
f 290 342 291
f 292 346 294
f 294 346 295
f 295 346 348
f 295 348 296
f 296 348 349
f 296 349 298
f 298 349 299
f 299 350 300
f 299 349 350
f 300 350 304
f 301 351 302
f 301 304 351
f 302 352 305
f 302 305 303
f 302 351 353
f 302 353 352
f 304 354 351
f 304 350 354
f 305 352 355
f 305 355 356
f 305 356 357
f 305 357 358
f 305 358 359
f 305 359 360
f 305 360 361
f 305 361 362
f 305 362 363
f 305 363 364
f 305 364 365
f 305 365 366
f 305 366 306
f 306 366 334
f 309 337 367
f 309 367 310
f 310 367 424
f 310 424 368
f 310 368 369
f 310 369 370
f 310 370 311
f 311 370 371
f 311 371 372
f 311 372 373
f 311 373 374
f 311 374 375
f 311 375 312
f 312 375 377
f 312 377 376
f 313 376 377
f 313 377 378
f 313 378 379
f 313 379 372
f 313 372 371
f 313 371 380
f 318 323 322
f 318 322 319
f 318 321 381
f 320 381 321
f 325 382 383
f 325 383 384
f 325 384 327
f 325 327 326
f 327 384 385
f 327 385 386
f 327 386 339
f 331 336 387
f 331 387 388
f 331 388 332
f 332 388 389
f 332 389 337
f 332 337 333
f 334 366 390
f 334 390 391
f 334 391 335
f 335 391 392
f 335 392 367
f 335 367 393
f 335 393 394
f 335 394 387
f 335 387 336
f 337 389 367
f 339 386 395
f 339 395 396
f 339 396 397
f 339 397 340
f 340 397 341
f 341 398 342
f 341 397 399
f 341 399 398
f 342 347 343
f 344 400 401
f 344 401 345
f 345 401 402
f 345 402 346
f 346 403 348
f 346 402 404
f 346 404 403
f 348 404 405
f 348 405 406
f 348 406 349
f 348 403 404
f 349 406 350
f 350 406 407
f 350 407 408
f 350 408 409
f 350 409 354
f 351 354 353
f 352 353 355
f 353 410 357
f 353 357 356
f 353 356 355
f 353 354 410
f 354 411 412
f 354 412 410
f 354 409 408
f 354 408 411
f 357 413 414
f 357 414 358
f 357 410 412
f 357 412 415
f 357 415 413
f 358 414 359
f 359 414 416
f 359 416 370
f 359 370 417
f 359 417 418
f 359 418 360
f 360 418 361
f 361 418 362
f 362 418 419
f 362 419 363
f 363 419 364
f 364 419 365
f 365 419 420
f 365 420 421
f 365 421 422
f 365 422 366
f 366 422 423
f 366 423 390
f 367 392 424
f 367 389 393
f 368 424 425
f 368 425 369
f 369 425 370
f 370 425 417
f 370 416 426
f 370 426 371
f 371 426 427
f 371 427 428
f 371 428 380
f 372 379 373
f 373 379 378
f 373 378 374
f 374 378 377
f 374 377 375
f 382 429 430
f 382 430 431
f 382 431 383
f 383 431 432
f 383 432 385
f 383 385 384
f 385 433 386
f 385 432 399
f 385 399 433
f 386 433 395
f 387 394 389
f 387 389 434
f 387 434 388
f 388 434 389
f 389 394 393
f 390 423 424
f 390 424 392
f 390 392 391
f 395 433 399
f 395 399 396
f 396 399 397
f 398 399 435
f 398 435 436
f 399 432 435
f 400 437 401
f 400 438 439
f 400 439 437
f 401 405 404
f 401 404 402
f 401 437 405
f 405 437 408
f 405 408 406
f 406 408 407
f 408 437 439
f 408 439 440
f 408 440 441
f 408 441 411
f 411 441 415
f 411 415 412
f 413 442 443
f 413 443 444
f 413 444 414
f 413 415 442
f 414 444 445
f 414 445 446
f 414 446 447
f 414 447 416
f 415 448 449
f 415 449 442
f 415 441 440
f 415 440 448
f 416 447 446
f 416 446 426
f 417 425 450
f 417 450 451
f 417 451 418
f 418 451 452
f 418 452 419
f 419 452 420
f 420 452 421
f 421 452 453
f 421 453 423
f 421 423 422
f 423 453 424
f 424 453 425
f 425 453 452
f 425 452 450
f 426 446 445
f 426 445 444
f 426 444 454
f 426 454 427
f 427 454 455
f 427 455 456
f 427 456 465
f 427 465 457
f 427 457 428
f 428 457 458
f 429 459 430
f 430 459 460
f 430 460 431
f 431 460 435
f 431 435 432
f 435 460 436
f 438 461 462
f 438 462 439
f 439 462 448
f 439 448 440
f 442 449 463
f 442 463 443
f 443 463 464
f 443 464 465
f 443 465 456
f 443 456 455
f 443 455 444
f 444 455 454
f 448 462 466
f 448 466 449
f 449 466 467
f 449 467 468
f 449 468 463
f 450 452 451
f 457 465 469
f 457 469 458
f 458 469 470
f 458 470 471
f 458 471 472
f 458 472 473
f 461 474 462
f 462 474 466
f 463 468 467
f 463 467 475
f 463 475 476
f 463 476 464
f 464 476 472
f 464 472 471
f 464 471 470
f 464 470 469
f 464 469 465
f 466 474 477
f 466 477 467
f 467 478 479
f 467 479 475
f 467 477 478
f 472 476 475
f 472 475 480
f 472 480 481
f 472 481 482
f 472 482 483
f 472 483 484
f 472 484 473
f 475 479 480
f 479 481 480

