# https://github.com/mikedh/trimesh
v 0.27748973 0.37445341 0.33072078
v 0.20214071 0.37445341 0.33072078
v 0.28488336 0.37372114 0.33072078
v 0.27748973 0.37445341 0.03758222
v 0.20214071 0.37445341 0.03758222
v 0.19605628 -0.26810073 0.13242212
v 0.19605628 -0.29409580 0.33072078
v 0.28677649 0.37298887 0.33072078
v 0.28488336 0.37372114 0.03758222
v 0.28488336 0.37203694 0.03102798
v 0.27748973 0.37240303 0.03050363
v 0.20214071 0.37240303 0.03050363
v 0.19605628 -0.26810073 0.02598121
v 0.19605628 -0.29519419 0.33072078
v 0.28989407 0.37174407 0.33072078
v 0.28989407 0.37174407 0.03758222
v 0.28945139 0.37130467 0.03230604
v 0.28480800 0.36676469 0.02735758
v 0.27747090 0.36866857 0.02676771
v 0.20213130 0.36866857 0.02676771
v 0.20213130 0.37042598 0.02857014
v 0.23810104 -0.29182581 -0.00266084
v 0.19605628 -0.35838783 0.02598121
v 0.20213130 0.36500729 0.02621061
v 0.20213130 0.36024762 0.02601398
v 0.20213130 0.35922247 0.02598121
v 0.19605628 -0.37354551 0.33068800
v 0.19610337 -0.37354551 0.33072078
v 0.29105255 0.36852211 0.33072078
v 0.29173071 0.36661825 0.03758222
v 0.29015779 0.36661825 0.03112630
v 0.28653161 0.35922247 0.02696434
v 0.28227440 0.36427502 0.02627615
v 0.27747090 0.36500729 0.02621061
v 0.24247127 -0.28443003 -0.00357845
v 0.24180256 -0.29182581 -0.00361123
v 0.24260313 -0.29922159 -0.00354568
v 0.19605628 -0.36409941 0.02621061
v 0.25529002 -0.28443003 -0.00407001
v 0.24788698 -0.28443003 -0.00400447
v 0.19605628 -0.37354551 0.03751667
v 0.23153624 -0.37361872 0.33072078
v 0.29173071 0.36661825 0.33072078
v 0.29206976 0.36200503 0.33072078
v 0.29226756 0.35922247 0.03758222
v 0.29041209 0.35922247 0.03066749
v 0.27205519 -0.29182581 -0.00230035
v 0.26779796 -0.28443003 -0.00354568
v 0.26268366 -0.28443003 -0.00400447
v 0.24788698 -0.29182581 -0.00407001
v 0.24788698 -0.29922159 -0.00400447
v 0.24364861 -0.30346868 -0.00338182
v 0.19605628 -0.36783392 0.02676771
v 0.26268366 -0.29182581 -0.00407001
v 0.23151741 -0.37354551 0.03751667
v 0.23153624 -0.37361872 0.04338272
v 0.19605628 -0.37156843 0.03043809
v 0.27748032 -0.37361872 0.33072078
v 0.29226756 0.35922247 0.33072078
v 0.29227698 -0.26810073 0.04502129
v 0.29227698 -0.32140892 0.04498852
v 0.29226756 0.08528572 0.03758222
v 0.29225814 -0.26810073 0.03751667
v 0.29042151 -0.32140892 0.03070026
v 0.29041209 0.08528572 0.03066749
v 0.27503147 -0.29182581 0.00140278
v 0.29015779 -0.36578361 0.03115907
v 0.27137704 -0.29922159 -0.00098952
v 0.26682784 -0.30339544 -0.00338182
v 0.26767552 -0.29922159 -0.00354568
v 0.26835367 -0.29182581 -0.00361123
v 0.25529002 -0.29922159 -0.00407001
v 0.25529002 -0.30493318 -0.00361123
v 0.24788698 -0.30434737 -0.00354568
v 0.23153624 -0.36783392 0.02673494
v 0.25529002 -0.30859445 -0.00233313
v 0.26268366 -0.29922159 -0.00397169
v 0.23151741 -0.37156843 0.03043809
v 0.27748032 -0.37354551 0.03754944
v 0.27748032 -0.37361872 0.04498852
v 0.28488336 -0.37288645 0.33072078
v 0.29227698 -0.26810073 0.14851279
v 0.29227698 -0.32880470 0.33072078
v 0.29227698 -0.32140892 0.31869373
v 0.29227698 -0.31401314 0.29647485
v 0.29227698 -0.35838783 0.04498852
v 0.29225814 -0.35838783 0.03754944
v 0.29225814 -0.32140892 0.03751667
v 0.29042151 -0.35838783 0.03070026
v 0.29173071 -0.36578361 0.03754944
v 0.28945139 -0.37039685 0.03227327
v 0.28478916 -0.36585683 0.02732481
v 0.27748032 -0.36783392 0.02673494
v 0.26268366 -0.30427415 -0.00354568
v 0.27748032 -0.37149522 0.03043809
v 0.28488336 -0.37288645 0.03754944
v 0.28488336 -0.37120225 0.03106075
v 0.28990349 -0.37083616 0.33072078
v 0.29227698 -0.35838783 0.33072078
v 0.29173071 -0.36578361 0.33072078
v 0.28990349 -0.37083616 0.04498852
v 0.28989407 -0.37083616 0.03754944
f 1 2 7
f 1 7 14
f 1 14 28
f 1 28 42
f 1 42 58
f 1 58 81
f 1 81 98
f 1 98 100
f 1 100 99
f 1 99 83
f 1 83 59
f 1 59 44
f 1 44 43
f 1 43 29
f 1 29 15
f 1 15 8
f 1 8 3
f 1 3 9
f 1 9 4
f 1 4 5
f 1 5 2
f 2 5 13
f 2 13 6
f 2 6 7
f 3 8 9
f 4 9 10
f 4 10 11
f 4 11 12
f 4 12 5
f 5 12 13
f 6 13 23
f 6 23 38
f 6 38 53
f 6 53 57
f 6 57 41
f 6 41 27
f 6 27 14
f 6 14 7
f 8 15 16
f 8 16 9
f 9 16 17
f 9 17 10
f 10 17 18
f 10 18 19
f 10 19 11
f 11 19 20
f 11 20 12
f 12 20 21
f 12 21 13
f 13 22 23
f 13 21 20
f 13 20 24
f 13 24 25
f 13 25 26
f 13 26 22
f 14 27 28
f 15 29 16
f 16 29 30
f 16 30 17
f 17 30 31
f 17 31 18
f 18 31 32
f 18 32 33
f 18 33 19
f 19 33 34
f 19 34 24
f 19 24 20
f 22 35 36
f 22 36 37
f 22 37 38
f 22 38 23
f 22 26 35
f 24 34 39
f 24 39 40
f 24 40 25
f 25 40 35
f 25 35 26
f 27 41 56
f 27 56 42
f 27 42 28
f 29 43 30
f 30 43 44
f 30 44 45
f 30 45 31
f 31 45 46
f 31 46 32
f 32 46 47
f 32 47 48
f 32 48 33
f 33 48 49
f 33 49 34
f 34 49 39
f 35 40 36
f 36 50 51
f 36 51 37
f 36 40 50
f 37 51 52
f 37 52 38
f 38 52 53
f 39 49 54
f 39 54 72
f 39 72 50
f 39 50 40
f 41 55 56
f 41 57 78
f 41 78 55
f 42 56 80
f 42 80 58
f 44 59 45
f 45 59 82
f 45 82 60
f 45 60 61
f 45 61 86
f 45 86 62
f 45 62 88
f 45 88 63
f 45 63 46
f 46 63 64
f 46 64 89
f 46 89 65
f 46 65 66
f 46 66 47
f 47 66 67
f 47 67 68
f 47 68 69
f 47 69 70
f 47 70 71
f 47 71 48
f 48 71 49
f 49 71 54
f 50 72 51
f 51 72 73
f 51 73 74
f 51 74 52
f 52 74 53
f 53 75 57
f 53 74 76
f 53 76 75
f 54 71 77
f 54 77 72
f 55 78 79
f 55 79 56
f 56 79 80
f 57 75 93
f 57 93 78
f 58 80 96
f 58 96 81
f 59 83 84
f 59 84 85
f 59 85 82
f 60 82 85
f 60 85 84
f 60 84 83
f 60 83 99
f 60 99 86
f 60 86 61
f 62 86 87
f 62 87 88
f 63 88 89
f 63 89 64
f 65 89 66
f 66 89 67
f 67 90 91
f 67 91 92
f 67 92 69
f 67 69 68
f 67 89 87
f 67 87 90
f 69 92 93
f 69 93 94
f 69 94 77
f 69 77 70
f 70 77 71
f 72 77 73
f 73 77 94
f 73 94 76
f 73 76 74
f 75 76 93
f 76 94 93
f 78 93 95
f 78 95 79
f 79 96 80
f 79 95 97
f 79 97 96
f 81 96 101
f 81 101 98
f 86 99 100
f 86 100 90
f 86 90 87
f 87 89 88
f 90 100 98
f 90 98 101
f 90 101 102
f 90 102 91
f 91 102 96
f 91 96 97
f 91 97 92
f 92 97 93
f 93 97 95
f 96 102 101

