# https://github.com/mikedh/trimesh
v 0.28540456 10.73290348 15.35469381
v 0.28645867 10.73375738 15.35469381
v 0.28621064 10.73362306 15.35479910
v 0.28540456 10.73319131 15.35514005
v 0.28540456 10.75086431 15.35469381
v 0.28540456 10.73450575 15.35716819
v 0.28914561 10.73606005 15.35469381
v 0.28748522 10.73544601 15.35599242
v 0.28540456 10.73481278 15.35763950
v 0.28540456 10.77067686 15.38030001
v 0.34371818 10.83092047 15.35469381
v 0.28961411 10.73648221 15.35469381
v 0.28950387 10.73659734 15.35501971
v 0.28540456 10.73558033 15.35877516
v 0.28540456 10.73492791 15.35780997
v 0.29073022 10.73847786 15.35613531
v 0.28783659 10.73826678 15.35957488
v 0.28675492 10.73607924 15.35780997
v 0.28540456 10.75406885 15.38030001
v 0.33105508 10.83090128 15.38030001
v 0.33191628 10.83092047 15.37896379
v 0.35578876 10.83092047 15.35469381
v 0.29017217 10.73699072 15.35469381
v 0.28698228 10.73900555 15.36166319
v 0.28540456 10.73658775 15.36018407
v 0.29221837 10.73893839 15.35469381
v 0.29267998 10.73966758 15.35509492
v 0.29387188 10.74160565 15.35614284
v 0.29169477 10.74065580 15.35780997
v 0.29101958 10.74132741 15.35965260
v 0.28903538 10.74016648 15.36065789
v 0.28813973 10.74108755 15.36306208
v 0.28540456 10.75239942 15.37854513
v 0.28611419 10.75467331 15.38030001
v 0.33388670 10.83092047 15.38030001
v 0.35485866 10.82762957 15.35469381
v 0.35022884 10.83092047 15.36855234
v 0.35009794 10.82996103 15.36821641
v 0.28605907 10.74001297 15.36401473
v 0.28540456 10.73895758 15.36338046
v 0.28540456 10.73834353 15.36257823
v 0.29341716 10.74012811 15.35469381
v 0.29699976 10.74474304 15.35613030
v 0.29482265 10.74378360 15.35780997
v 0.29022728 10.74211416 15.36173840
v 0.29651749 10.74836015 15.36172085
v 0.29442305 10.74732395 15.36314230
v 0.28722342 10.74193187 15.36515038
v 0.29362386 10.74811069 15.36523061
v 0.29153630 10.74711287 15.36647908
v 0.28540456 10.75135362 15.37743454
v 0.28639666 10.75165105 15.37683538
v 0.28769879 10.75404967 15.37817911
v 0.28827752 10.75658260 15.38030001
v 0.34462071 10.83092047 15.38030001
v 0.35385278 10.82764876 15.35721582
v 0.35355653 10.82579703 15.35651387
v 0.35387345 10.82474164 15.35469381
v 0.34954678 10.83092047 15.37015931
v 0.34849956 10.82764876 15.37033480
v 0.34979480 10.82757200 15.36718604
v 0.28540456 10.73968676 15.36430303
v 0.29532558 10.74206618 15.35469381
v 0.29651060 10.74329428 15.35469381
v 0.29845347 10.74533790 15.35469381
v 0.29896330 10.74587518 15.35469381
v 0.29941112 10.74635491 15.35469381
v 0.30032744 10.75079714 15.35955483
v 0.29961781 10.75156470 15.36164313
v 0.29753026 10.75045174 15.36313728
v 0.29559428 10.74928122 15.36418520
v 0.28738877 10.74493493 15.36846210
v 0.28625887 10.74297766 15.36734148
v 0.28540456 10.74114511 15.36608298
v 0.29062688 10.74797637 15.36856488
v 0.29266621 10.74908933 15.36753451
v 0.29675862 10.75126727 15.36522560
v 0.29467108 10.75020229 15.36650665
v 0.28540456 10.74987608 15.37583008
v 0.28553546 10.75009675 15.37595042
v 0.28762301 10.75097944 15.37498022
v 0.28980013 10.75796421 15.38030001
v 0.34486184 10.83092047 15.37985628
v 0.34453114 10.83062304 15.38030001
v 0.34482051 10.83078615 15.37986129
v 0.34866491 10.82451137 15.36720610
v 0.35378389 10.82451137 15.35469381
v 0.35019440 10.82647824 15.36532838
v 0.34778993 10.83092047 15.37404011
v 0.34790705 10.83069979 15.37364651
v 0.34707341 10.82959643 15.37480974
v 0.34749367 10.82764876 15.37257854
v 0.34721809 10.82598892 15.37198439
v 0.30169158 10.74888785 15.35469381
v 0.30089238 10.75018310 15.35780997
v 0.30308329 10.75122889 15.35581192
v 0.30262168 10.75236104 15.35810580
v 0.30633517 10.75735975 15.35915120
v 0.30111974 10.75256252 15.36073561
v 0.30057546 10.75365629 15.36301194
v 0.28540456 10.74406183 15.36940973
v 0.28540456 10.74256509 15.36772003
v 0.29076467 10.75097944 15.37184901
v 0.28750589 10.74794759 15.37172868
v 0.29378921 10.75108498 15.36858995
v 0.29170165 10.75005837 15.36976071
v 0.29979694 10.75451979 15.36510024
v 0.29770939 10.75335886 15.36644398
v 0.29688264 10.75427034 15.36852978
v 0.29578030 10.75221712 15.36751697
v 0.28540456 10.74851367 15.37432590
v 0.28652067 10.74902217 15.37384707
v 0.28867712 10.75003918 15.37289191
v 0.28953143 10.75160308 15.37374930
v 0.28996548 10.75811772 15.38030001
v 0.34491008 10.83092047 15.37976602
v 0.34445536 10.83038318 15.38030001
v 0.34437957 10.82764876 15.37877076
v 0.34551636 10.82764876 15.37659972
v 0.34654290 10.83069979 15.37651699
v 0.34753502 10.82477042 15.37007408
v 0.34721809 10.82287072 15.36885569
v 0.35016684 10.82012670 15.35902335
v 0.35063534 10.82221830 15.36013143
v 0.35252997 10.82151790 15.35469381
v 0.35312937 10.82371503 15.35549854
v 0.34725253 10.83092047 15.37519582
v 0.34674960 10.82764876 15.37414539
v 0.34408332 10.82599851 15.37823426
v 0.34604686 10.82477042 15.37320278
v 0.34672893 10.82390692 15.37094399
v 0.30217386 10.74943473 15.35469381
v 0.30486769 10.75254334 15.35469381
v 0.30607337 10.75452939 15.35555119
v 0.30695524 10.75661139 15.35706290
v 0.30810581 10.75868379 15.35790273
v 0.31006934 10.76285738 15.36016653
v 0.30944928 10.76365372 15.36225483
v 0.30575645 10.75806015 15.36094368
v 0.30356556 10.75693760 15.36282391
v 0.30419251 10.75623720 15.36094368
v 0.30282148 10.75466371 15.36094368
v 0.30282148 10.75779150 15.36491222
v 0.30073392 10.75660179 15.36632365
v 0.29279711 10.75207321 15.37079859
v 0.29407857 10.76019012 15.37831198
v 0.29199791 10.75912513 15.37933232
v 0.29154319 10.75958567 15.38030001
v 0.29388566 10.75411683 15.37183648
v 0.29699287 10.75728300 15.37180138
v 0.29881862 10.75543127 15.36742922
v 0.29784030 10.75635233 15.36971307
v 0.34661869 10.83092047 15.37648190
v 0.34353904 10.82764876 15.38030001
v 0.34672204 10.83092047 15.37627382
v 0.34446913 10.82161384 15.37320027
v 0.34599863 10.82165222 15.37007408
v 0.34677026 10.82058724 15.36720610
v 0.34714920 10.81987725 15.36556905
v 0.34759013 10.82215113 15.36720610
v 0.34707341 10.81688378 15.36225985
v 0.35058710 10.81933036 15.35693504
v 0.35246797 10.82139317 15.35469381
v 0.34235403 10.82469366 15.38030001
v 0.34201644 10.82393570 15.38030001
v 0.34358038 10.82390692 15.37725404
v 0.34445536 10.82478002 15.37636657
v 0.34411777 10.82281315 15.37516824
v 0.30735484 10.75546965 15.35469381
v 0.30829872 10.75662098 15.35469381
v 0.30904279 10.75792583 15.35525286
v 0.30774066 10.75593977 15.35469381
v 0.31119924 10.76034363 15.35469381
v 0.31210866 10.76174442 15.35497960
v 0.31582216 10.76977498 15.35929911
v 0.31369327 10.76815352 15.36084090
v 0.33131689 10.80443976 15.37780808
v 0.30900145 10.76483384 15.36437322
v 0.30668654 10.76320278 15.36594760
v 0.30715504 10.76205144 15.36379411
v 0.32842325 10.80097616 15.37822925
v 0.32783074 10.80182048 15.38030001
v 0.30371713 10.75988310 15.36616320
v 0.30386870 10.76284778 15.36948494
v 0.30308329 10.76374966 15.37157324
v 0.30014143 10.76352899 15.37495014
v 0.29714444 10.76338507 15.37823677
v 0.29753715 10.76577409 15.38030001
v 0.29615924 10.76432533 15.38030001
v 0.29298313 10.76101524 15.38030001
v 0.30099573 10.76260792 15.37286434
v 0.34355971 10.82073115 15.37406768
v 0.34408332 10.81975252 15.37197937
v 0.34674271 10.81806389 15.36434565
v 0.34450358 10.81590514 15.36655930
v 0.34506854 10.81496488 15.36417768
v 0.34435891 10.81302680 15.36320247
v 0.34373195 10.81093521 15.36175594
v 0.34750745 10.81613541 15.36017154
v 0.35093848 10.81835173 15.35469381
v 0.34114835 10.82218951 15.38030001
v 0.34129992 10.82164263 15.37944263
v 0.34286386 10.82161384 15.37636657
v 0.30983509 10.75855906 15.35469381
v 0.31216378 10.76161010 15.35469381
v 0.31640088 10.76901702 15.35721081
v 0.33189561 10.80366261 15.37571978
v 0.33301861 10.80583096 15.37646936
v 0.33205407 10.80652176 15.37906157
v 0.33084150 10.80558150 15.37995656
v 0.33037301 10.80522651 15.38030001
v 0.32885730 10.80319248 15.38030001
v 0.30595625 10.76409506 15.36803340
v 0.32633570 10.79994956 15.38030001
v 0.30317285 10.76679111 15.37481977
v 0.30208429 10.76468992 15.37384205
v 0.30108530 10.76562058 15.37604568
v 0.30018275 10.76661841 15.37813399
v 0.29912176 10.76757785 15.38030001
v 0.34094166 10.81978130 15.37820920
v 0.34127236 10.81295964 15.36946488
v 0.34349770 10.81496488 15.36744426
v 0.34388352 10.81382314 15.36529077
v 0.34328412 10.81198101 15.36417768
v 0.34415910 10.81024441 15.35966764
v 0.34475162 10.81198101 15.36080580
v 0.34152038 10.80894916 15.36380163
v 0.34094855 10.80725094 15.36257322
v 0.35078690 10.81808308 15.35469381
v 0.34687361 10.81405341 15.35862474
v 0.34729388 10.81336261 15.35653643
v 0.34918163 10.81531028 15.35469381
v 0.34035604 10.82076953 15.38030001
v 0.31693139 10.76804798 15.35469381
v 0.31560169 10.76692543 15.35571916
v 0.31858489 10.77036024 15.35469381
v 0.33790334 10.80712621 15.36899858
v 0.33452743 10.80433422 15.37165598
v 0.33239166 10.80260722 15.37332812
v 0.33405895 10.80501543 15.37346601
v 0.33469968 10.80721256 15.37512813
v 0.33414162 10.80806647 15.37721644
v 0.33100685 10.80610920 15.38030001
v 0.33313573 10.80878605 15.37980865
v 0.33294972 10.80893956 15.38030001
v 0.33250879 10.80828714 15.38030001
v 0.29974183 10.76829743 15.38030001
v 0.29961092 10.76785609 15.38001672
v 0.33900568 10.81854362 15.38030001
v 0.33481680 10.81015806 15.37846491
v 0.33811693 10.81304599 15.37562451
v 0.33863365 10.81199060 15.37340083
v 0.33844762 10.80895875 15.37015931
v 0.34014247 10.81194263 15.37044010
v 0.34063852 10.81087764 15.36821140
v 0.34180286 10.81194263 15.36718354
v 0.34115524 10.81006212 15.36612560
v 0.34451737 10.80973590 15.35780997
v 0.34667381 10.81124223 15.35469381
v 0.34765903 10.81279654 15.35469381
v 0.34497897 10.80869970 15.35469381
v 0.33735217 10.80798012 15.37108689
v 0.33514750 10.80657933 15.37346601
v 0.33520951 10.80900673 15.37634401
v 0.33385225 10.81032117 15.38030001
v 0.33452055 10.81136696 15.38030001
v 0.33800669 10.81006212 15.37231280
f 1 2 3
f 1 3 4
f 1 4 6
f 1 6 9
f 1 9 15
f 1 15 14
f 1 14 25
f 1 25 41
f 1 41 40
f 1 40 62
f 1 62 74
f 1 74 102
f 1 102 101
f 1 101 111
f 1 111 79
f 1 79 51
f 1 51 33
f 1 33 19
f 1 19 10
f 1 10 5
f 1 5 11
f 1 11 22
f 1 22 36
f 1 36 58
f 1 58 87
f 1 87 125
f 1 125 163
f 1 163 200
f 1 200 229
f 1 229 232
f 1 232 260
f 1 260 259
f 1 259 261
f 1 261 236
f 1 236 234
f 1 234 205
f 1 205 173
f 1 173 204
f 1 204 170
f 1 170 172
f 1 172 169
f 1 169 133
f 1 133 132
f 1 132 94
f 1 94 67
f 1 67 66
f 1 66 65
f 1 65 64
f 1 64 63
f 1 63 42
f 1 42 26
f 1 26 23
f 1 23 12
f 1 12 7
f 1 7 2
f 2 6 3
f 2 7 8
f 2 8 9
f 2 9 6
f 3 6 4
f 5 10 11
f 7 12 13
f 7 13 8
f 8 14 15
f 8 15 9
f 8 13 16
f 8 16 17
f 8 17 18
f 8 18 14
f 10 19 34
f 10 34 54
f 10 54 82
f 10 82 115
f 10 115 148
f 10 148 190
f 10 190 189
f 10 189 188
f 10 188 219
f 10 219 247
f 10 247 214
f 10 214 182
f 10 182 212
f 10 212 211
f 10 211 243
f 10 243 246
f 10 246 245
f 10 245 265
f 10 265 266
f 10 266 249
f 10 249 233
f 10 233 201
f 10 201 165
f 10 165 164
f 10 164 154
f 10 154 117
f 10 117 84
f 10 84 55
f 10 55 35
f 10 35 20
f 10 20 11
f 11 20 21
f 11 21 35
f 11 35 55
f 11 55 83
f 11 83 116
f 11 116 153
f 11 153 155
f 11 155 127
f 11 127 89
f 11 89 59
f 11 59 37
f 11 37 22
f 12 23 13
f 13 23 16
f 14 18 17
f 14 17 24
f 14 24 25
f 16 23 26
f 16 26 27
f 16 27 28
f 16 28 29
f 16 29 30
f 16 30 31
f 16 31 17
f 17 31 32
f 17 32 24
f 19 33 34
f 20 35 21
f 22 37 38
f 22 38 36
f 24 39 40
f 24 40 41
f 24 41 25
f 24 32 39
f 26 42 27
f 27 42 43
f 27 43 28
f 28 43 44
f 28 44 30
f 28 30 29
f 30 45 32
f 30 32 31
f 30 44 46
f 30 46 47
f 30 47 45
f 32 48 39
f 32 45 49
f 32 49 50
f 32 50 48
f 33 51 52
f 33 52 53
f 33 53 34
f 34 53 54
f 36 38 56
f 36 56 57
f 36 57 58
f 37 59 38
f 38 60 61
f 38 61 56
f 38 59 60
f 39 62 40
f 39 48 62
f 42 63 43
f 43 63 64
f 43 64 65
f 43 65 66
f 43 66 67
f 43 67 68
f 43 68 69
f 43 69 70
f 43 70 46
f 43 46 44
f 45 47 49
f 46 70 71
f 46 71 47
f 47 71 49
f 48 72 73
f 48 73 74
f 48 74 62
f 48 50 75
f 48 75 72
f 49 76 50
f 49 71 77
f 49 77 78
f 49 78 76
f 50 76 75
f 51 79 80
f 51 80 81
f 51 81 52
f 52 81 53
f 53 81 82
f 53 82 54
f 55 84 85
f 55 85 83
f 56 61 57
f 57 86 87
f 57 87 58
f 57 61 88
f 57 88 86
f 59 89 90
f 59 90 91
f 59 91 60
f 60 92 93
f 60 93 88
f 60 88 61
f 60 91 92
f 67 94 95
f 67 95 68
f 68 95 96
f 68 96 97
f 68 97 98
f 68 98 99
f 68 99 69
f 69 99 100
f 69 100 70
f 70 100 77
f 70 77 71
f 72 101 102
f 72 102 73
f 72 75 103
f 72 103 104
f 72 104 101
f 73 102 74
f 75 76 105
f 75 105 106
f 75 106 103
f 76 78 105
f 77 100 107
f 77 107 108
f 77 108 109
f 77 109 110
f 77 110 78
f 78 110 105
f 79 111 112
f 79 112 81
f 79 81 80
f 81 112 101
f 81 101 104
f 81 104 113
f 81 113 103
f 81 103 114
f 81 114 115
f 81 115 82
f 83 85 116
f 84 117 85
f 85 117 118
f 85 118 119
f 85 119 120
f 85 120 116
f 86 88 93
f 86 93 121
f 86 121 122
f 86 122 123
f 86 123 124
f 86 124 87
f 87 124 126
f 87 126 125
f 89 127 91
f 89 91 90
f 91 119 128
f 91 128 92
f 91 127 120
f 91 120 119
f 92 128 93
f 93 128 129
f 93 129 130
f 93 130 131
f 93 131 122
f 93 122 121
f 94 132 96
f 94 96 95
f 96 132 133
f 96 133 134
f 96 134 135
f 96 135 98
f 96 98 97
f 98 135 136
f 98 136 137
f 98 137 138
f 98 138 139
f 98 139 140
f 98 140 141
f 98 141 142
f 98 142 99
f 99 142 100
f 100 142 140
f 100 140 143
f 100 143 144
f 100 144 107
f 101 112 111
f 103 113 104
f 103 106 105
f 103 105 145
f 103 145 146
f 103 146 147
f 103 147 148
f 103 148 114
f 105 149 145
f 105 110 150
f 105 150 149
f 107 144 108
f 108 144 151
f 108 151 109
f 109 151 152
f 109 152 150
f 109 150 110
f 114 148 115
f 116 120 153
f 117 154 118
f 118 154 129
f 118 129 119
f 119 129 128
f 120 127 155
f 120 155 153
f 122 131 156
f 122 156 157
f 122 157 158
f 122 158 159
f 122 159 160
f 122 160 123
f 123 160 159
f 123 159 161
f 123 161 162
f 123 162 125
f 123 125 124
f 124 125 126
f 125 162 163
f 129 154 164
f 129 164 165
f 129 165 166
f 129 166 167
f 129 167 130
f 130 167 168
f 130 168 131
f 131 168 156
f 133 169 134
f 134 169 135
f 135 170 171
f 135 171 136
f 135 169 172
f 135 172 170
f 136 171 137
f 137 171 173
f 137 173 174
f 137 174 175
f 137 175 176
f 137 176 177
f 137 177 138
f 138 178 179
f 138 179 180
f 138 180 139
f 138 177 181
f 138 181 182
f 138 182 178
f 139 180 179
f 139 179 140
f 140 142 141
f 140 179 183
f 140 183 143
f 143 183 184
f 143 184 144
f 144 184 185
f 144 185 151
f 145 149 146
f 146 150 186
f 146 186 187
f 146 187 188
f 146 188 189
f 146 189 190
f 146 190 148
f 146 148 147
f 146 149 150
f 150 152 191
f 150 191 186
f 151 185 152
f 152 185 191
f 156 192 193
f 156 193 157
f 156 168 192
f 157 193 158
f 158 193 194
f 158 194 159
f 159 194 161
f 161 194 193
f 161 193 195
f 161 195 196
f 161 196 197
f 161 197 198
f 161 198 199
f 161 199 162
f 162 199 200
f 162 200 163
f 165 168 166
f 165 201 168
f 166 168 167
f 168 201 202
f 168 202 203
f 168 203 192
f 170 204 171
f 171 204 173
f 173 205 174
f 174 205 206
f 174 206 175
f 175 206 207
f 175 207 177
f 175 177 176
f 177 207 208
f 177 208 209
f 177 209 210
f 177 210 211
f 177 211 212
f 177 212 182
f 177 182 181
f 178 182 179
f 179 213 184
f 179 184 183
f 179 182 214
f 179 214 213
f 184 213 185
f 185 215 216
f 185 216 186
f 185 186 191
f 185 213 214
f 185 214 215
f 186 216 215
f 186 215 217
f 186 217 218
f 186 218 188
f 186 188 187
f 188 218 219
f 192 220 193
f 192 203 220
f 193 220 221
f 193 221 222
f 193 222 195
f 195 222 223
f 195 223 196
f 196 223 197
f 197 223 224
f 197 224 198
f 198 225 226
f 198 226 199
f 198 224 227
f 198 227 228
f 198 228 225
f 199 229 200
f 199 226 230
f 199 230 231
f 199 231 232
f 199 232 229
f 201 233 220
f 201 220 202
f 202 220 203
f 205 234 235
f 205 235 206
f 206 235 234
f 206 234 236
f 206 236 237
f 206 237 238
f 206 238 239
f 206 239 207
f 207 239 238
f 207 238 240
f 207 240 208
f 208 240 241
f 208 241 242
f 208 242 209
f 209 243 210
f 209 242 244
f 209 244 245
f 209 245 246
f 209 246 243
f 210 243 211
f 214 247 215
f 215 247 218
f 215 218 217
f 218 247 248
f 218 248 219
f 219 248 247
f 220 233 249
f 220 249 250
f 220 250 251
f 220 251 252
f 220 252 253
f 220 253 254
f 220 254 221
f 221 254 255
f 221 255 256
f 221 256 222
f 222 256 223
f 223 256 257
f 223 257 224
f 224 257 227
f 225 258 259
f 225 259 260
f 225 260 231
f 225 231 226
f 225 228 236
f 225 236 258
f 226 231 230
f 227 237 228
f 227 257 237
f 228 237 236
f 231 260 232
f 236 261 258
f 237 257 255
f 237 255 253
f 237 253 262
f 237 262 241
f 237 241 263
f 237 263 240
f 237 240 238
f 240 263 241
f 241 262 242
f 242 262 264
f 242 264 250
f 242 250 244
f 244 250 245
f 245 250 265
f 249 266 250
f 250 267 251
f 250 266 265
f 250 264 262
f 250 262 267
f 251 267 252
f 252 267 253
f 253 255 254
f 253 267 262
f 255 257 256
f 258 261 259

