# https://github.com/mikedh/trimesh
v 0.21095684 10.86394900 15.14540884
v 0.21063026 10.86394900 15.14541280
v 0.21031674 10.86523603 15.14551558
v 0.21095684 10.86523603 15.14551162
v 0.21408547 10.86523603 15.14555905
v 0.21408547 10.86394900 15.14546815
v 0.21031674 10.86394900 15.14541674
v 0.21031674 10.86586814 15.14557092
v 0.21095684 10.86836726 15.14581998
v 0.21408547 10.86836726 15.14589903
v 0.21722063 10.86523603 15.14564208
v 0.21537219 10.86394900 15.14549977
v 0.21031674 10.86394900 15.15591231
v 0.21031674 10.86836726 15.14581998
v 0.21095684 10.87118895 15.14619947
v 0.21031674 10.86893095 15.14589507
v 0.21408547 10.87096739 15.14625481
v 0.21722063 10.86836726 15.14600576
v 0.22034926 10.86523603 15.14577252
v 0.21850735 10.86394900 15.14560255
v 0.21722063 10.86394900 15.14555116
v 0.21031674 10.88835046 15.16856629
v 0.27704341 10.86394900 15.17256686
v 0.27704341 10.88721005 15.18477414
v 0.21095684 10.87275294 15.14647619
v 0.21408547 10.87253464 15.14650386
v 0.21031674 10.87117918 15.14619947
v 0.21031674 10.87274643 15.14647619
v 0.21722063 10.87053729 15.14631806
v 0.21962425 10.87020169 15.14636945
v 0.22053867 10.86862793 15.14618761
v 0.22034926 10.86394900 15.14568162
v 0.22348442 10.86772212 15.14628248
v 0.22348442 10.86523603 15.14599391
v 0.22477114 10.86394900 15.14596229
v 0.22163598 10.86394900 15.14574882
v 0.21031674 10.89028589 15.16954667
v 0.27704341 10.86394900 15.16060863
v 0.27704341 10.89028589 15.18579405
v 0.21095684 10.87462973 15.14697428
v 0.21408547 10.87462973 15.14702567
v 0.21031674 10.87462973 15.14697428
v 0.21722063 10.87462973 15.14720356
v 0.21722063 10.87210128 15.14659478
v 0.22053867 10.87134535 15.14665013
v 0.22171436 10.86984653 15.14643271
v 0.22348442 10.86928610 15.14651572
v 0.22546349 10.86706720 15.14638132
v 0.22755360 10.86633734 15.14648014
v 0.22654773 10.86527187 15.14625877
v 0.22888604 10.86425202 15.14634574
v 0.22657386 10.86394900 15.14611646
v 0.21031674 10.89341712 15.17009615
v 0.27671683 10.86394900 15.16045447
v 0.27704341 10.86523603 15.16069165
v 0.27704341 10.89290231 15.18497970
v 0.21095684 10.87776096 15.14791908
v 0.21031674 10.87526510 15.14715612
v 0.21408547 10.87776096 15.14798628
v 0.21722063 10.87776096 15.14814837
v 0.22034926 10.87462973 15.14742098
v 0.22348442 10.87149849 15.14693475
v 0.22661305 10.87149849 15.14729844
v 0.22654773 10.86821413 15.14666989
v 0.22985924 10.86527187 15.14659874
v 0.22947388 10.86394900 15.14637736
v 0.22902320 10.86394900 15.14632993
v 0.23056465 10.86394900 15.14650781
v 0.21031674 10.89540795 15.16930949
v 0.27671683 10.86523603 15.16054143
v 0.27414339 10.86394900 15.15934759
v 0.27704341 10.86836726 15.16096838
v 0.27704341 10.89311084 15.18471484
v 0.21031674 10.89587063 15.16911183
v 0.21095684 10.88076838 15.14898642
v 0.21031674 10.87776096 15.14791118
v 0.21031674 10.87838004 15.14812860
v 0.21408547 10.88060220 15.14902991
v 0.21722063 10.88037412 15.14910502
v 0.22034926 10.88010042 15.14922757
v 0.22034926 10.87776096 15.14838160
v 0.22348442 10.87462973 15.14770561
v 0.22661305 10.87462973 15.14807721
v 0.22974167 10.87462973 15.14852391
v 0.22974167 10.87149849 15.14775700
v 0.22974167 10.86836726 15.14711660
v 0.23287684 10.86523603 15.14701382
v 0.23280499 10.86394900 15.14685569
v 0.27671683 10.86836726 15.16082210
v 0.27045304 10.86394900 15.15780981
v 0.27704341 10.87151479 15.16145856
v 0.27704341 10.89445326 15.18299918
v 0.21031674 10.89719024 15.16677157
v 0.21095684 10.88233562 15.14959917
v 0.21031674 10.88077489 15.14898248
v 0.21408547 10.88216945 15.14967823
v 0.21722063 10.88193485 15.14978496
v 0.22034926 10.88166116 15.14990355
v 0.22348442 10.87968988 15.14939756
v 0.22348442 10.87776096 15.14869785
v 0.22974167 10.87701807 15.14925128
v 0.22645629 10.87791410 15.14912083
v 0.23199507 10.87651629 15.14942523
v 0.23408518 10.87594609 15.14961498
v 0.23297481 10.87479264 15.14911688
v 0.23287684 10.87149849 15.14829859
v 0.23287684 10.86836726 15.14760283
v 0.23600547 10.86836726 15.14817208
v 0.23600547 10.86523603 15.14759888
v 0.23600547 10.86394900 15.14745261
v 0.23416356 10.86394900 15.14710869
v 0.27692584 10.87158321 15.16141903
v 0.26726563 10.86394900 15.15651319
v 0.27334653 10.86831513 15.15945433
v 0.27358167 10.87149849 15.16005125
v 0.27704341 10.87169074 15.16149018
v 0.27704341 10.89516357 15.18146141
v 0.21095684 10.89723260 15.16677157
v 0.21031674 10.89721956 15.16364464
v 0.21095684 10.88402343 15.15050047
v 0.21408547 10.88402343 15.15065465
v 0.21031674 10.88234213 15.14959917
v 0.21031674 10.88267774 15.14976914
v 0.21722063 10.88402343 15.15086812
v 0.22034926 10.88402343 15.15112903
v 0.22348442 10.88402343 15.15150457
v 0.22348442 10.88125386 15.15008935
v 0.22645629 10.88062175 15.15021190
v 0.22739031 10.87905777 15.14965055
v 0.22974167 10.87858205 15.14983635
v 0.23297481 10.87764040 15.15005377
v 0.23600547 10.87776096 15.15071395
v 0.23914062 10.87776096 15.15139784
v 0.24688708 10.87613181 15.15269842
v 0.23914062 10.87462973 15.15039374
v 0.23624713 10.87479264 15.14977706
v 0.23535884 10.87385751 15.14935012
v 0.23624713 10.87174287 15.14902200
v 0.23857891 10.87086313 15.14931454
v 0.24066248 10.86988564 15.14955963
v 0.23942802 10.86865074 15.14900619
v 0.24148546 10.86779706 15.14934616
v 0.23914062 10.86523603 15.14834998
v 0.23729872 10.86394900 15.14776096
v 0.27600489 10.87462973 15.16171552
v 0.26563926 10.86394900 15.15585697
v 0.27183121 10.86932194 15.15900761
v 0.27131521 10.87149849 15.15920923
v 0.26746811 10.87463624 15.15838302
v 0.26861113 10.87568216 15.15905506
v 0.27358167 10.87462973 15.16075490
v 0.27704341 10.87367178 15.16192898
v 0.27704341 10.89532975 15.17928719
v 0.27671683 10.89533627 15.17929905
v 0.22348442 10.89713159 15.16677157
v 0.21408547 10.89722934 15.16677157
v 0.21095684 10.89721305 15.16364464
v 0.21031674 10.89590321 15.16065213
v 0.21095684 10.88656816 15.15201848
v 0.21408547 10.88646064 15.15209359
v 0.21031674 10.88402343 15.15048862
v 0.21031674 10.88455453 15.15079697
v 0.21031674 10.88658445 15.15200662
v 0.21722063 10.88631401 15.15220428
v 0.22034926 10.88610222 15.15234264
v 0.22348442 10.88582527 15.15252844
v 0.22524795 10.88563628 15.15265098
v 0.22642363 10.88420915 15.15201058
v 0.22974167 10.88351838 15.15208964
v 0.22974167 10.88088894 15.15080882
v 0.23287684 10.88088894 15.15139389
v 0.23914062 10.88003851 15.15235054
v 0.24112623 10.87955955 15.15257587
v 0.25166167 10.87776096 15.15446152
v 0.25477724 10.87785871 15.15527586
v 0.25714167 10.87687796 15.15556049
v 0.25479030 10.87462973 15.15428362
v 0.25137428 10.87434300 15.15332697
v 0.25014634 10.87311135 15.15267075
v 0.24226925 10.87462973 15.15115670
v 0.24226925 10.87149849 15.15034631
v 0.23744894 10.87295170 15.14957940
v 0.24242601 10.86865074 15.14975333
v 0.25085175 10.87149849 15.15249286
v 0.25314434 10.86981395 15.15270237
v 0.24356904 10.86626891 15.14962288
v 0.24242601 10.86522951 15.14919199
v 0.24407197 10.86418034 15.14948452
v 0.23914062 10.86394900 15.14820766
v 0.27541704 10.87658797 15.16196852
v 0.27704341 10.87462973 15.16215036
v 0.26528003 10.86394900 15.15572257
v 0.26379735 10.86523603 15.15536283
v 0.26731788 10.87149849 15.15774657
v 0.26418925 10.87462973 15.15716941
v 0.26652756 10.87710604 15.15863207
v 0.27704341 10.89514728 15.17729877
v 0.27671683 10.89516683 15.17723946
v 0.24226925 10.89631050 15.16677157
v 0.23287684 10.89678946 15.16677157
v 0.22974167 10.89693609 15.16677157
v 0.21408547 10.89714462 15.16364464
v 0.21095684 10.89589669 15.16065607
v 0.21031674 10.89508863 15.15940294
v 0.21095684 10.88813215 15.15310955
v 0.21408547 10.88802462 15.15318070
v 0.21031674 10.88690376 15.15222404
v 0.21031674 10.88815169 15.15309373
v 0.21722063 10.88788126 15.15328348
v 0.22034926 10.88766947 15.15342580
v 0.22348442 10.88738926 15.15358787
v 0.22642363 10.88687118 15.15364717
v 0.22974167 10.88715465 15.15433502
v 0.22974167 10.88508238 15.15297910
v 0.23287684 10.88459037 15.15324396
v 0.23287684 10.88302312 15.15238216
v 0.23483631 10.88263213 15.15259169
v 0.23914062 10.88160251 15.15308978
v 0.24980017 10.88230304 15.15588860
v 0.24866368 10.88111050 15.15508611
v 0.25166167 10.88021446 15.15541817
v 0.25372565 10.87962145 15.15568699
v 0.25581576 10.87896653 15.15595976
v 0.26105409 10.87776096 15.15705082
v 0.26441786 10.87799556 15.15816956
v 0.25923178 10.87585811 15.15590046
v 0.25808222 10.87474051 15.15526400
v 0.25479030 10.87149849 15.15354044
v 0.25241934 10.87149849 15.15289212
v 0.25482296 10.86860837 15.15296328
v 0.25379750 10.86772538 15.15252448
v 0.25166167 10.86523603 15.15162317
v 0.24411769 10.86394900 15.14947266
v 0.25441800 10.86523603 15.15235449
v 0.25166167 10.86394900 15.15147295
v 0.27463979 10.87867328 15.16227686
v 0.27656008 10.87768276 15.16279472
v 0.27704341 10.87623933 15.16259706
v 0.27704341 10.87511196 15.16227686
v 0.27045304 10.87776096 15.16035959
v 0.27359473 10.87768276 15.16157320
v 0.26258902 10.86394900 15.15474219
v 0.26105409 10.86523603 15.15436664
v 0.25792546 10.86836726 15.15386459
v 0.25792546 10.87149849 15.15448523
v 0.26002210 10.87376953 15.15563955
v 0.26106062 10.87474051 15.15619299
v 0.26561314 10.87919461 15.15899576
v 0.26746811 10.87799556 15.15928829
v 0.27704341 10.89436528 15.17575309
v 0.27671683 10.89441416 15.17567402
v 0.27416951 10.89476280 15.17512059
v 0.27208594 10.89499740 15.17457505
v 0.24539788 10.89602702 15.16677157
v 0.22974167 10.89626163 15.16364464
v 0.22661305 10.89651577 15.16364464
v 0.22348442 10.89676666 15.16364464
v 0.22034926 10.89692632 15.16364464
v 0.21408547 10.89583153 15.16075490
v 0.21095684 10.89487359 15.15909063
v 0.21031674 10.89487684 15.15908273
v 0.21408547 10.89006758 15.15474614
v 0.21722063 10.88993399 15.15484892
v 0.21031674 10.89016533 15.15465918
v 0.21095684 10.89015230 15.15467499
v 0.22034926 10.88975478 15.15499124
v 0.22348442 10.88955277 15.15515331
v 0.22661305 10.88930189 15.15535888
v 0.22974167 10.88899560 15.15560397
v 0.23156399 10.88879358 15.15575419
v 0.23271355 10.88731758 15.15497543
v 0.23600547 10.88654536 15.15515331
v 0.23914062 10.88601751 15.15553281
v 0.24539788 10.88479891 15.15626810
v 0.24866368 10.88390613 15.15650133
v 0.23592709 10.88381489 15.15349695
v 0.24771006 10.88278527 15.15563560
v 0.25166167 10.88402343 15.15733149
v 0.25574392 10.88531371 15.15910645
v 0.25473805 10.88417005 15.15820908
v 0.25792546 10.88317626 15.15854905
v 0.25166167 10.88177845 15.15612974
v 0.25477724 10.88075208 15.15648552
v 0.25792546 10.88088894 15.15743032
v 0.26352303 10.87995706 15.15863998
v 0.25792546 10.86523603 15.15335464
v 0.25598558 10.86523603 15.15278934
v 0.25625337 10.86394900 15.15271028
v 0.27684093 10.88104534 15.16430086
v 0.27704341 10.88095736 15.16435225
v 0.27704341 10.87769579 15.16302795
v 0.27255621 10.87977459 15.16187364
v 0.26105409 10.86394900 15.15420456
v 0.25921218 10.86394900 15.15360764
v 0.26731788 10.88088894 15.16036354
v 0.27037466 10.88084657 15.16147437
v 0.27704341 10.89261883 15.17315588
v 0.27648823 10.89268400 15.17297799
v 0.27330734 10.89387329 15.17333377
v 0.25501891 10.89430990 15.16686644
v 0.25166167 10.89453798 15.16594537
v 0.24727245 10.89504953 15.16511126
v 0.25413061 10.89516357 15.16797728
v 0.25166167 10.89538514 15.16751476
v 0.24539788 10.89521896 15.16485035
v 0.24226925 10.89544379 15.16448271
v 0.24840241 10.89553828 15.16664112
v 0.23317076 10.89577939 15.16333235
v 0.22661305 10.89538514 15.16152576
v 0.22348442 10.89553828 15.16129648
v 0.22034926 10.89566535 15.16107906
v 0.21722063 10.89575658 15.16089326
v 0.21408547 10.89479538 15.15918947
v 0.21408547 10.89322814 15.15756472
v 0.21095684 10.89330634 15.15749356
v 0.21031674 10.89330959 15.15748171
v 0.21408547 10.89163157 15.15599928
v 0.21722063 10.89149798 15.15612183
v 0.21031674 10.89172932 15.15591627
v 0.21095684 10.89171628 15.15592812
v 0.22034926 10.89132203 15.15627205
v 0.22348442 10.89111676 15.15644994
v 0.22661305 10.89086913 15.15664364
v 0.22974167 10.89056284 15.15687688
v 0.23467955 10.89190526 15.15889693
v 0.24226925 10.89096036 15.15964803
v 0.24226925 10.88939638 15.15845813
v 0.24473819 10.88903470 15.15871904
v 0.24562649 10.88743487 15.15792051
v 0.24852651 10.88676040 15.15818537
v 0.25166167 10.88615110 15.15858068
v 0.25365381 10.88576662 15.15883764
v 0.25799731 10.88736644 15.16109092
v 0.26105409 10.88651277 15.16147437
v 0.25792546 10.88474351 15.15941875
v 0.25473805 10.88694613 15.15989312
v 0.25984575 10.88264842 15.15884158
v 0.26192932 10.88204238 15.15914993
v 0.26095611 10.88095410 15.15834349
v 0.26928389 10.88275595 15.16190922
v 0.25786668 10.86394900 15.15319256
v 0.27704341 10.88124735 15.16448666
v 0.27359473 10.88084657 15.16281449
v 0.27704341 10.89149146 15.17181181
v 0.27529295 10.89190852 15.17140464
v 0.27358167 10.89219526 15.17104096
v 0.27045304 10.89264490 15.17041240
v 0.25792546 10.89350510 15.16677157
v 0.25792546 10.89216268 15.16487802
v 0.25479030 10.89259929 15.16440760
v 0.24539788 10.89397104 15.16328491
v 0.24226925 10.89430990 15.16291727
v 0.23914062 10.89459337 15.16260102
v 0.23441176 10.89498111 15.16208316
v 0.22034926 10.89452495 15.15951362
v 0.21722063 10.89467808 15.15932782
v 0.21722063 10.89311084 15.15768727
v 0.22034926 10.89295770 15.15783749
v 0.22348442 10.89277523 15.15801538
v 0.22661305 10.89257974 15.15821304
v 0.22974167 10.89236143 15.15844232
v 0.23287684 10.89208773 15.15872300
v 0.24226925 10.89274591 15.16121347
v 0.24539788 10.89240704 15.16155739
v 0.24779497 10.89209751 15.16184992
v 0.24562649 10.89016207 15.15980615
v 0.25166167 10.88991444 15.16116999
v 0.24682830 10.88866651 15.15897995
v 0.25166167 10.88771834 15.15960455
v 0.25909462 10.88855572 15.16219780
v 0.26544332 10.88542124 15.16217803
v 0.26095611 10.88382467 15.15984173
v 0.25479030 10.88937682 15.16157320
v 0.25700451 10.88896954 15.16189340
v 0.26731788 10.88333918 15.16158111
v 0.26731788 10.88490643 15.16250219
v 0.27238639 10.88582200 15.16504801
v 0.27447650 10.88507585 15.16551448
v 0.27704341 10.88254415 15.16515078
v 0.27704341 10.89099620 15.17136511
v 0.27509700 10.88868932 15.16836073
v 0.27300689 10.88923020 15.16789821
v 0.27045304 10.89135787 15.16884696
v 0.26851316 10.89172932 15.16847933
v 0.25961061 10.89189549 15.16516265
v 0.25479030 10.89094081 15.16283820
v 0.24987855 10.89177819 15.16214245
v 0.22974167 10.89392867 15.16018960
v 0.22661305 10.89414372 15.15996032
v 0.22348442 10.89433923 15.15972709
v 0.24871593 10.89055633 15.16090117
v 0.25799731 10.89012297 15.16313469
v 0.26081895 10.89036409 15.16430086
v 0.26418925 10.88936378 15.16467246
v 0.26622057 10.88892391 15.16504010
v 0.26830415 10.88844820 15.16541960
v 0.26728522 10.88730454 15.16419413
v 0.26105409 10.88807676 15.16254172
v 0.27045304 10.88634334 15.16465269
v 0.27045304 10.88791059 15.16581886
v 0.27671683 10.88661378 15.16758987
v 0.27704341 10.88650626 15.16766497
v 0.27684093 10.88402994 15.16594141
v 0.27704341 10.88370085 15.16583467
v 0.27704341 10.89013275 15.17060216
v 0.27671683 10.88817776 15.16875604
v 0.27704341 10.88782913 15.16864931
v 0.27045304 10.88979388 15.16738430
v 0.27704341 10.88402994 15.16604420
v 0.27704341 10.88809305 15.16885883
f 1 2 3
f 1 3 4
f 1 4 5
f 1 5 6
f 1 6 12
f 1 12 21
f 1 21 20
f 1 20 32
f 1 32 36
f 1 36 35
f 1 35 52
f 1 52 67
f 1 67 66
f 1 66 68
f 1 68 88
f 1 88 111
f 1 111 110
f 1 110 144
f 1 144 189
f 1 189 233
f 1 233 235
f 1 235 288
f 1 288 341
f 1 341 294
f 1 294 293
f 1 293 242
f 1 242 192
f 1 192 146
f 1 146 113
f 1 113 90
f 1 90 71
f 1 71 54
f 1 54 38
f 1 38 23
f 1 23 13
f 1 13 7
f 1 7 2
f 2 7 3
f 3 7 13
f 3 13 22
f 3 22 37
f 3 37 53
f 3 53 69
f 3 69 74
f 3 74 93
f 3 93 119
f 3 119 158
f 3 158 204
f 3 204 261
f 3 261 316
f 3 316 319
f 3 319 264
f 3 264 208
f 3 208 207
f 3 207 163
f 3 163 162
f 3 162 161
f 3 161 123
f 3 123 122
f 3 122 95
f 3 95 77
f 3 77 76
f 3 76 58
f 3 58 42
f 3 42 28
f 3 28 27
f 3 27 16
f 3 16 14
f 3 14 8
f 3 8 4
f 4 9 5
f 4 8 9
f 5 10 11
f 5 11 12
f 5 12 6
f 5 9 10
f 8 14 9
f 9 15 10
f 9 14 16
f 9 16 15
f 10 17 18
f 10 18 11
f 10 15 17
f 11 18 19
f 11 19 20
f 11 20 21
f 11 21 12
f 13 23 24
f 13 24 22
f 15 25 26
f 15 26 17
f 15 16 27
f 15 27 28
f 15 28 25
f 17 26 29
f 17 29 18
f 18 29 30
f 18 30 31
f 18 31 19
f 19 32 20
f 19 31 33
f 19 33 34
f 19 34 35
f 19 35 36
f 19 36 32
f 22 24 37
f 23 38 55
f 23 55 72
f 23 72 91
f 23 91 116
f 23 116 152
f 23 152 191
f 23 191 239
f 23 239 238
f 23 238 291
f 23 291 290
f 23 290 342
f 23 342 379
f 23 379 404
f 23 404 409
f 23 409 402
f 23 402 407
f 23 407 410
f 23 410 405
f 23 405 380
f 23 380 344
f 23 344 297
f 23 297 250
f 23 250 197
f 23 197 153
f 23 153 117
f 23 117 92
f 23 92 73
f 23 73 56
f 23 56 39
f 23 39 24
f 24 39 37
f 25 40 41
f 25 41 26
f 25 28 42
f 25 42 40
f 26 41 43
f 26 43 44
f 26 44 30
f 26 30 29
f 30 44 45
f 30 45 46
f 30 46 31
f 31 46 33
f 33 47 48
f 33 48 49
f 33 49 50
f 33 50 34
f 33 46 47
f 34 50 51
f 34 51 35
f 35 51 52
f 37 39 53
f 38 54 55
f 39 56 53
f 40 57 41
f 40 42 58
f 40 58 57
f 41 59 60
f 41 60 43
f 41 57 59
f 43 60 61
f 43 61 44
f 44 61 45
f 45 62 46
f 45 61 62
f 46 62 47
f 47 62 63
f 47 63 64
f 47 64 49
f 47 49 48
f 49 51 50
f 49 64 65
f 49 65 51
f 51 66 67
f 51 67 52
f 51 65 68
f 51 68 66
f 53 56 69
f 54 70 55
f 54 71 70
f 55 70 72
f 56 73 74
f 56 74 69
f 57 75 59
f 57 58 76
f 57 76 77
f 57 77 75
f 59 78 79
f 59 79 60
f 59 75 78
f 60 79 80
f 60 80 81
f 60 81 61
f 61 81 82
f 61 82 62
f 62 82 63
f 63 82 83
f 63 83 84
f 63 84 85
f 63 85 86
f 63 86 64
f 64 86 65
f 65 87 68
f 65 86 87
f 68 87 88
f 70 89 72
f 70 71 89
f 71 90 89
f 72 89 91
f 73 92 74
f 74 92 93
f 75 94 78
f 75 77 95
f 75 95 94
f 78 96 79
f 78 94 96
f 79 97 98
f 79 98 80
f 79 96 97
f 80 98 99
f 80 99 100
f 80 100 81
f 81 100 82
f 82 100 83
f 83 101 84
f 83 100 102
f 83 102 101
f 84 101 103
f 84 103 104
f 84 104 105
f 84 105 85
f 85 105 106
f 85 106 107
f 85 107 86
f 86 107 87
f 87 107 108
f 87 108 109
f 87 109 110
f 87 110 111
f 87 111 88
f 89 112 91
f 89 90 113
f 89 113 114
f 89 114 115
f 89 115 112
f 91 112 116
f 92 117 93
f 93 118 119
f 93 117 118
f 94 120 121
f 94 121 96
f 94 95 122
f 94 122 123
f 94 123 120
f 96 121 124
f 96 124 97
f 97 124 98
f 98 125 126
f 98 126 127
f 98 127 99
f 98 124 125
f 99 127 128
f 99 128 129
f 99 129 100
f 100 129 102
f 101 130 103
f 101 102 129
f 101 129 130
f 103 131 104
f 103 130 131
f 104 131 132
f 104 132 133
f 104 133 134
f 104 134 135
f 104 135 136
f 104 136 137
f 104 137 105
f 105 137 106
f 106 137 138
f 106 138 108
f 106 108 107
f 108 138 139
f 108 139 140
f 108 140 141
f 108 141 109
f 109 141 142
f 109 142 143
f 109 143 144
f 109 144 110
f 112 145 116
f 112 115 145
f 113 146 114
f 114 146 147
f 114 147 115
f 115 147 148
f 115 148 149
f 115 149 150
f 115 150 151
f 115 151 145
f 116 145 152
f 117 153 154
f 117 154 155
f 117 155 156
f 117 156 118
f 118 156 119
f 119 156 157
f 119 157 158
f 120 159 160
f 120 160 121
f 120 123 161
f 120 161 162
f 120 162 163
f 120 163 159
f 121 160 164
f 121 164 124
f 124 164 125
f 125 165 166
f 125 166 126
f 125 164 165
f 126 166 167
f 126 167 168
f 126 168 169
f 126 169 127
f 127 169 170
f 127 170 128
f 128 170 129
f 129 170 130
f 130 170 171
f 130 171 131
f 131 171 132
f 132 171 172
f 132 172 173
f 132 173 133
f 133 173 174
f 133 174 134
f 134 174 175
f 134 175 176
f 134 176 177
f 134 177 178
f 134 178 179
f 134 179 180
f 134 180 135
f 135 180 179
f 135 179 181
f 135 181 140
f 135 140 139
f 135 139 182
f 135 182 136
f 136 182 137
f 137 182 138
f 138 182 139
f 140 183 142
f 140 142 141
f 140 181 179
f 140 179 184
f 140 184 185
f 140 185 183
f 142 186 143
f 142 183 185
f 142 185 186
f 143 186 187
f 143 187 188
f 143 188 189
f 143 189 144
f 145 190 191
f 145 191 152
f 145 151 190
f 146 192 193
f 146 193 147
f 147 194 148
f 147 193 194
f 148 194 195
f 148 195 149
f 149 195 150
f 150 195 196
f 150 196 190
f 150 190 151
f 153 197 198
f 153 198 199
f 153 199 200
f 153 200 201
f 153 201 155
f 153 155 154
f 155 201 202
f 155 202 157
f 155 157 156
f 157 202 203
f 157 203 158
f 158 203 204
f 159 205 206
f 159 206 160
f 159 163 207
f 159 207 208
f 159 208 205
f 160 206 209
f 160 209 164
f 164 209 165
f 165 210 211
f 165 211 166
f 165 209 210
f 166 211 212
f 166 212 167
f 167 212 213
f 167 213 214
f 167 214 169
f 167 169 168
f 169 214 215
f 169 215 216
f 169 216 170
f 170 216 171
f 171 216 217
f 171 217 172
f 172 217 173
f 173 217 218
f 173 218 219
f 173 219 220
f 173 220 221
f 173 221 222
f 173 222 174
f 174 222 175
f 175 222 223
f 175 223 176
f 176 223 224
f 176 224 225
f 176 225 226
f 176 226 227
f 176 227 177
f 177 228 229
f 177 229 179
f 177 179 178
f 177 227 228
f 179 229 185
f 179 185 184
f 185 229 228
f 185 228 230
f 185 230 231
f 185 231 186
f 186 188 187
f 186 231 232
f 186 232 188
f 188 233 189
f 188 232 234
f 188 234 235
f 188 235 233
f 190 236 237
f 190 237 238
f 190 238 239
f 190 239 191
f 190 196 240
f 190 240 241
f 190 241 236
f 192 242 193
f 193 242 243
f 193 243 194
f 194 243 195
f 195 243 244
f 195 244 245
f 195 245 246
f 195 246 247
f 195 247 226
f 195 226 225
f 195 225 196
f 196 225 248
f 196 248 249
f 196 249 240
f 197 250 251
f 197 251 252
f 197 252 253
f 197 253 254
f 197 254 198
f 198 254 199
f 199 254 255
f 199 255 256
f 199 256 257
f 199 257 200
f 200 257 258
f 200 258 201
f 201 258 202
f 202 258 203
f 203 258 259
f 203 259 260
f 203 260 204
f 204 260 261
f 205 262 206
f 205 208 262
f 206 262 263
f 206 263 209
f 208 264 265
f 208 265 262
f 209 263 266
f 209 266 210
f 210 266 267
f 210 267 211
f 211 267 268
f 211 268 212
f 212 268 269
f 212 269 213
f 213 269 270
f 213 270 271
f 213 271 214
f 214 271 215
f 215 271 272
f 215 272 273
f 215 273 274
f 215 274 275
f 215 275 276
f 215 276 217
f 215 217 216
f 217 276 277
f 217 277 218
f 218 277 219
f 219 277 275
f 219 275 278
f 219 278 279
f 219 279 280
f 219 280 281
f 219 281 282
f 219 282 221
f 219 221 220
f 221 282 222
f 222 282 283
f 222 283 223
f 223 284 285
f 223 285 224
f 223 283 284
f 224 285 225
f 225 285 248
f 226 247 227
f 227 247 246
f 227 246 245
f 227 245 228
f 228 245 230
f 230 245 244
f 230 244 286
f 230 286 231
f 231 286 287
f 231 287 234
f 231 234 232
f 234 287 288
f 234 288 235
f 236 289 290
f 236 290 291
f 236 291 237
f 236 241 240
f 236 240 249
f 236 249 248
f 236 248 292
f 236 292 289
f 237 291 238
f 242 293 243
f 243 293 294
f 243 294 286
f 243 286 244
f 248 295 296
f 248 296 292
f 248 285 295
f 250 297 298
f 250 298 251
f 251 298 299
f 251 299 253
f 251 253 252
f 253 299 300
f 253 300 301
f 253 301 302
f 253 302 303
f 253 303 304
f 253 304 254
f 254 305 306
f 254 306 255
f 254 304 307
f 254 307 305
f 255 308 309
f 255 309 310
f 255 310 256
f 255 306 308
f 256 310 257
f 257 310 311
f 257 311 312
f 257 312 258
f 258 312 259
f 259 313 260
f 259 312 313
f 260 313 314
f 260 314 315
f 260 315 316
f 260 316 261
f 262 317 263
f 262 265 320
f 262 320 317
f 263 318 266
f 263 317 318
f 264 319 320
f 264 320 265
f 266 321 267
f 266 318 321
f 267 321 322
f 267 322 323
f 267 323 268
f 268 323 324
f 268 324 269
f 269 324 270
f 270 324 325
f 270 325 326
f 270 326 327
f 270 327 328
f 270 328 271
f 271 328 272
f 272 328 273
f 273 328 329
f 273 329 330
f 273 330 274
f 274 330 275
f 275 330 331
f 275 331 332
f 275 332 279
f 275 279 278
f 275 277 276
f 279 333 334
f 279 334 335
f 279 335 281
f 279 281 280
f 279 332 336
f 279 336 333
f 281 335 337
f 281 337 284
f 281 284 283
f 281 283 282
f 284 337 338
f 284 338 339
f 284 339 285
f 285 339 338
f 285 338 340
f 285 340 295
f 286 341 288
f 286 288 287
f 286 294 341
f 289 342 290
f 289 292 343
f 289 343 342
f 292 296 340
f 292 340 343
f 295 340 296
f 297 344 345
f 297 345 298
f 298 345 346
f 298 346 299
f 299 346 347
f 299 347 348
f 299 348 300
f 300 348 301
f 301 348 349
f 301 349 302
f 302 307 304
f 302 304 303
f 302 349 350
f 302 350 351
f 302 351 352
f 302 352 305
f 302 305 307
f 305 352 353
f 305 353 354
f 305 354 306
f 306 354 308
f 308 354 309
f 309 354 355
f 309 355 310
f 310 355 356
f 310 356 311
f 311 356 312
f 312 356 313
f 313 356 357
f 313 357 314
f 314 357 317
f 314 317 320
f 314 320 315
f 315 320 319
f 315 319 316
f 317 357 318
f 318 357 358
f 318 358 321
f 321 358 359
f 321 359 322
f 322 359 360
f 322 360 323
f 323 360 361
f 323 361 324
f 324 361 362
f 324 362 325
f 325 362 363
f 325 363 364
f 325 364 326
f 326 364 365
f 326 365 366
f 326 366 328
f 326 328 327
f 328 366 367
f 328 367 368
f 328 368 329
f 329 368 330
f 330 368 331
f 331 368 332
f 332 368 369
f 332 369 336
f 333 370 334
f 333 336 370
f 334 370 371
f 334 371 335
f 335 372 337
f 335 371 372
f 336 369 373
f 336 373 374
f 336 374 370
f 337 372 338
f 338 372 375
f 338 375 340
f 340 375 376
f 340 376 377
f 340 377 378
f 340 378 379
f 340 379 342
f 340 342 343
f 344 380 381
f 344 381 382
f 344 382 345
f 345 382 383
f 345 383 384
f 345 384 346
f 346 384 385
f 346 385 347
f 347 385 349
f 347 349 348
f 349 385 386
f 349 386 387
f 349 387 365
f 349 365 350
f 350 365 351
f 351 364 352
f 351 365 364
f 352 364 363
f 352 363 353
f 353 363 354
f 354 362 361
f 354 361 388
f 354 388 389
f 354 389 390
f 354 390 355
f 354 363 362
f 355 358 356
f 355 390 360
f 355 360 359
f 355 359 358
f 356 358 357
f 360 389 388
f 360 388 361
f 360 390 389
f 365 387 391
f 365 391 366
f 366 391 367
f 367 373 368
f 367 391 387
f 367 387 373
f 368 373 369
f 370 374 392
f 370 392 385
f 370 385 393
f 370 393 394
f 370 394 395
f 370 395 396
f 370 396 397
f 370 397 398
f 370 398 371
f 371 397 399
f 371 399 376
f 371 376 375
f 371 375 372
f 371 398 397
f 373 387 386
f 373 386 374
f 374 386 392
f 376 399 377
f 377 399 400
f 377 400 381
f 377 381 401
f 377 401 402
f 377 402 378
f 378 402 403
f 378 403 404
f 378 404 379
f 380 405 381
f 381 405 406
f 381 406 407
f 381 407 402
f 381 402 401
f 381 400 382
f 382 400 396
f 382 396 408
f 382 408 383
f 383 408 385
f 383 385 384
f 385 394 393
f 385 392 386
f 385 408 395
f 385 395 394
f 395 408 396
f 396 400 399
f 396 399 397
f 402 409 403
f 403 409 404
f 405 410 406
f 406 410 407

