# https://github.com/mikedh/trimesh
v 0.16248095 10.71088813 15.26306120
v 0.16248095 10.71126015 15.26232865
v 0.16500011 10.70981857 15.26155799
v 0.17731024 10.70017922 15.26306120
v 0.16248095 10.72638682 15.26306120
v 0.16248095 10.71210384 15.26067300
v 0.16248095 10.71369822 15.25767927
v 0.17773166 10.70055125 15.26183746
v 0.17881798 10.69926909 15.26306120
v 0.16248095 10.75936388 15.21980251
v 0.21031206 10.71521288 15.26306120
v 0.16248095 10.71570448 15.25421976
v 0.17879457 10.70123549 15.25974989
v 0.17975915 10.70007293 15.26076615
v 0.17961868 10.69883729 15.26306120
v 0.16248095 10.71645517 15.25297061
v 0.16248095 10.71648838 15.25291556
v 0.16248095 10.71651496 15.25287322
v 0.16248095 10.71762438 15.25115829
v 0.21031206 10.74381869 15.21980251
v 0.16248095 10.74313444 15.21980251
v 0.21031206 10.69150314 15.26306120
v 0.17783467 10.70692876 15.25269961
v 0.18424961 10.70076382 15.25595587
v 0.18303217 10.70018587 15.25777243
v 0.16557605 10.71650167 15.24979481
v 0.18509245 10.69790059 15.25979224
v 0.18151975 10.69800687 15.26306120
v 0.16248095 10.71849465 15.24987526
v 0.21031206 10.72608787 15.21980251
v 0.16248095 10.74232396 15.22065786
v 0.17023975 10.73930129 15.21980251
v 0.17023975 10.73796599 15.22114906
v 0.16861963 10.73836459 15.22155556
v 0.16653126 10.73888276 15.22208909
v 0.16868050 10.73526219 15.22471442
v 0.18334122 10.69746213 15.26306120
v 0.21031206 10.69150314 15.26305696
v 0.17484259 10.71328634 15.24655125
v 0.16254651 10.72282604 15.24362105
v 0.16463487 10.72220157 15.24275722
v 0.19630221 10.69734920 15.25239050
v 0.16248095 10.72283933 15.24365915
v 0.16248095 10.72291240 15.24355753
v 0.21031206 10.69305102 15.25450346
v 0.18399208 10.69758836 15.26187980
v 0.18190371 10.69793380 15.26289182
v 0.18206759 10.69784080 15.26306120
v 0.21031206 10.69668487 15.24846097
v 0.20781632 10.72639346 15.21980251
v 0.16710720 10.73566078 15.22515903
v 0.16464424 10.73787963 15.22417665
v 0.16248095 10.73999882 15.22314769
v 0.17337230 10.73782649 15.21980251
v 0.17337230 10.73722195 15.22041227
v 0.17337230 10.73565414 15.22199593
v 0.16993071 10.73617231 15.22314769
v 0.17076887 10.73477059 15.22419358
v 0.17506735 10.73218637 15.22477371
v 0.17523592 10.72912384 15.22798762
v 0.16890994 10.73223952 15.22797491
v 0.16710720 10.73269790 15.22847457
v 0.16710720 10.73425906 15.22672576
v 0.21031206 10.69224719 15.25758611
v 0.21031206 10.69168915 15.26072381
v 0.17650486 10.71284789 15.24602619
v 0.16374521 10.72344386 15.24180448
v 0.16596001 10.72297219 15.24067390
v 0.16682158 10.72414804 15.23860327
v 0.16559946 10.72589522 15.23727790
v 0.16965913 10.72323792 15.23784531
v 0.17448205 10.71622265 15.24321878
v 0.20303555 10.69766143 15.24972282
v 0.21031206 10.69494434 15.25043844
v 0.21031206 10.69485798 15.25059088
v 0.21031206 10.69437967 15.25144622
v 0.21031206 10.69415380 15.25188660
v 0.21031206 10.69332340 15.25382596
v 0.17650486 10.71414332 15.24445946
v 0.17174750 10.72271310 15.23720592
v 0.17148528 10.72570921 15.23392425
v 0.18377668 10.72872524 15.22443918
v 0.18589783 10.72832000 15.22403268
v 0.18902570 10.72620081 15.22507011
v 0.19072542 10.72590186 15.22475253
v 0.16248095 10.72556970 15.23999639
v 0.21031206 10.69629957 15.24885054
v 0.19529080 10.72834658 15.22091616
v 0.19842335 10.72632038 15.22204252
v 0.19842335 10.72788155 15.22046731
v 0.20062410 10.72601480 15.22172493
v 0.20146225 10.72772875 15.21980251
v 0.20178534 10.72764903 15.21980251
v 0.20468377 10.72697807 15.21980251
v 0.16248095 10.73759397 15.22576032
v 0.16500011 10.73184756 15.23064259
v 0.16478940 10.73486360 15.22739480
v 0.17600852 10.73664399 15.21980251
v 0.17500179 10.73528877 15.22161061
v 0.17715572 10.73174127 15.22429522
v 0.16248095 10.72624067 15.23913681
v 0.16248095 10.72780847 15.23713393
v 0.16397933 10.72635360 15.23787072
v 0.16248095 10.73253182 15.23144289
v 0.16291174 10.73240560 15.23130739
v 0.16768314 10.72532390 15.23661733
v 0.17057221 10.72447356 15.23586785
v 0.17963741 10.73510275 15.21980251
v 0.18589783 10.73254510 15.21980251
v 0.18902570 10.73136925 15.21980251
v 0.19166659 10.73052556 15.21980251
v 0.19656442 10.72908397 15.21980251
v 0.19529080 10.72945600 15.21980251
v 0.19842335 10.72854587 15.21980251
v 0.16248095 10.73566078 15.22788176
v 0.16248095 10.73548142 15.22808501
v 0.16270103 10.73542163 15.22801726
v 0.16248095 10.73285734 15.23107026
f 1 2 3
f 1 3 4
f 1 4 9
f 1 9 15
f 1 15 28
f 1 28 48
f 1 48 37
f 1 37 22
f 1 22 11
f 1 11 5
f 1 5 10
f 1 10 21
f 1 21 31
f 1 31 53
f 1 53 95
f 1 95 115
f 1 115 116
f 1 116 118
f 1 118 104
f 1 104 102
f 1 102 101
f 1 101 86
f 1 86 44
f 1 44 43
f 1 43 29
f 1 29 19
f 1 19 18
f 1 18 17
f 1 17 16
f 1 16 12
f 1 12 7
f 1 7 6
f 1 6 2
f 2 6 3
f 3 6 7
f 3 7 4
f 4 8 9
f 4 7 8
f 5 11 10
f 7 12 8
f 8 13 14
f 8 14 15
f 8 15 9
f 8 12 16
f 8 16 17
f 8 17 18
f 8 18 19
f 8 19 13
f 10 20 30
f 10 30 50
f 10 50 94
f 10 94 93
f 10 93 92
f 10 92 114
f 10 114 112
f 10 112 113
f 10 113 111
f 10 111 110
f 10 110 109
f 10 109 108
f 10 108 98
f 10 98 54
f 10 54 32
f 10 32 21
f 10 11 20
f 11 22 38
f 11 38 65
f 11 65 64
f 11 64 45
f 11 45 78
f 11 78 77
f 11 77 76
f 11 76 75
f 11 75 74
f 11 74 87
f 11 87 49
f 11 49 30
f 11 30 20
f 13 23 24
f 13 24 25
f 13 25 14
f 13 19 26
f 13 26 23
f 14 25 27
f 14 27 15
f 15 27 28
f 19 29 26
f 21 32 33
f 21 33 34
f 21 34 35
f 21 35 36
f 21 36 31
f 22 37 38
f 23 39 24
f 23 26 40
f 23 40 41
f 23 41 39
f 24 42 27
f 24 27 25
f 24 39 42
f 26 29 43
f 26 43 44
f 26 44 40
f 27 42 45
f 27 45 46
f 27 46 47
f 27 47 28
f 28 47 48
f 30 49 50
f 31 51 52
f 31 52 53
f 31 36 51
f 32 54 33
f 33 54 55
f 33 55 56
f 33 56 57
f 33 57 34
f 34 57 36
f 34 36 35
f 36 58 59
f 36 59 60
f 36 60 61
f 36 61 62
f 36 62 63
f 36 63 51
f 36 57 58
f 37 48 47
f 37 47 46
f 37 46 64
f 37 64 65
f 37 65 38
f 39 66 42
f 39 41 67
f 39 67 68
f 39 68 69
f 39 69 70
f 39 70 71
f 39 71 72
f 39 72 66
f 40 44 41
f 41 44 67
f 42 73 74
f 42 74 75
f 42 75 76
f 42 76 77
f 42 77 78
f 42 78 45
f 42 66 79
f 42 79 72
f 42 72 80
f 42 80 81
f 42 81 60
f 42 60 82
f 42 82 83
f 42 83 84
f 42 84 85
f 42 85 73
f 44 86 67
f 45 64 46
f 49 87 88
f 49 88 89
f 49 89 90
f 49 90 91
f 49 91 92
f 49 92 93
f 49 93 94
f 49 94 50
f 51 95 52
f 51 63 96
f 51 96 97
f 51 97 95
f 52 95 53
f 54 98 99
f 54 99 55
f 55 99 56
f 56 99 59
f 56 59 58
f 56 58 57
f 59 99 100
f 59 100 82
f 59 82 60
f 60 81 61
f 61 81 62
f 62 81 96
f 62 96 63
f 66 72 79
f 67 86 68
f 68 86 101
f 68 101 102
f 68 102 103
f 68 103 70
f 68 70 69
f 70 103 102
f 70 102 104
f 70 104 105
f 70 105 106
f 70 106 71
f 71 80 72
f 71 106 96
f 71 96 80
f 73 87 74
f 73 85 87
f 80 96 107
f 80 107 81
f 81 107 96
f 82 100 99
f 82 99 98
f 82 98 108
f 82 108 109
f 82 109 83
f 83 109 110
f 83 110 85
f 83 85 84
f 85 110 111
f 85 111 88
f 85 88 87
f 88 112 90
f 88 90 89
f 88 111 113
f 88 113 112
f 90 112 114
f 90 114 91
f 91 114 92
f 95 97 115
f 96 106 105
f 96 105 116
f 96 116 115
f 96 115 117
f 96 117 97
f 97 117 115
f 104 118 105
f 105 118 116

