# https://github.com/mikedh/trimesh
v 0.21095684 10.85583697 15.14507884
v 0.21095684 10.85896919 15.14512308
v 0.21408547 10.85583697 15.14511423
v 0.21408547 10.85270475 15.14517321
v 0.21095684 10.85270475 15.14518796
v 0.21031674 10.85333865 15.14517911
v 0.21031674 10.85583697 15.14509358
v 0.21031674 10.85647087 15.14509653
v 0.21095684 10.86209854 15.14526761
v 0.21408547 10.86209854 15.14533545
v 0.21408547 10.85896919 15.14519976
v 0.21031674 10.85896919 15.14513192
v 0.22034926 10.85896919 15.14536494
v 0.22034926 10.85583697 15.14528236
v 0.21722063 10.85270475 15.14528826
v 0.21408547 10.84957253 15.14539148
v 0.21095684 10.84957253 15.14541803
v 0.21031674 10.84957253 15.14543867
v 0.21031674 10.85270475 15.14521155
v 0.21031674 10.86209854 15.14528236
v 0.21031674 10.86273531 15.14532365
v 0.21031674 10.86394574 15.14541508
v 0.21063026 10.86394574 15.14541213
v 0.21095684 10.86394574 15.14540918
v 0.21408547 10.86394574 15.14546818
v 0.21537219 10.86394574 15.14550063
v 0.21722063 10.86209854 15.14541803
v 0.22348442 10.85896919 15.14547998
v 0.22348442 10.85583697 15.14540328
v 0.22034926 10.85270475 15.14540918
v 0.21722063 10.84957253 15.14550947
v 0.21933033 10.84151253 15.14638843
v 0.21722063 10.84132895 15.14636484
v 0.21408547 10.84644319 15.14574542
v 0.21095684 10.84644319 15.14572772
v 0.21031674 10.84644319 15.14574542
v 0.21031674 10.86394574 15.15591247
v 0.21722063 10.86394574 15.14555076
v 0.21850735 10.86394574 15.14560385
v 0.22034926 10.86209854 15.14554782
v 0.22034926 10.86394574 15.14568054
v 0.22163598 10.86394574 15.14574837
v 0.22348442 10.86209854 15.14571298
v 0.22661305 10.86209854 15.14591355
v 0.22661305 10.85896919 15.14569528
v 0.22348442 10.85270475 15.14554782
v 0.22661305 10.85583697 15.14564809
v 0.22661305 10.85270475 15.14573067
v 0.22034926 10.84957253 15.14565399
v 0.21722063 10.83704940 15.14699013
v 0.21722063 10.83976285 15.14657130
v 0.22348442 10.84957253 15.14580148
v 0.22661305 10.84957253 15.14595189
v 0.22142044 10.84206325 15.14644742
v 0.22036232 10.84035372 15.14661260
v 0.21408547 10.84126585 15.14635599
v 0.21095684 10.84331097 15.14610823
v 0.21031674 10.84394774 15.14604924
v 0.21031674 10.83464287 15.15934277
v 0.27704341 10.86394574 15.17256553
v 0.22477114 10.86394574 15.14596074
v 0.22657386 10.86394574 15.14611412
v 0.22902320 10.86394574 15.14632944
v 0.23097615 10.86316842 15.14645332
v 0.22985924 10.86211575 15.14624389
v 0.22974167 10.85896919 15.14604924
v 0.22974167 10.85583697 15.14599908
v 0.22974167 10.85270475 15.14601680
v 0.22983965 10.84952664 15.14622030
v 0.22034926 10.83704940 15.14715531
v 0.21722063 10.83464287 15.14744141
v 0.21408547 10.83464287 15.14734113
v 0.21095684 10.83464287 15.14724379
v 0.21408547 10.83969974 15.14656245
v 0.22885338 10.84755897 15.14633829
v 0.22348442 10.84272009 15.14651526
v 0.22348442 10.84018162 15.14688101
v 0.21031674 10.83464287 15.14725264
v 0.21031674 10.84327368 15.14613182
v 0.27704341 10.83464287 15.17521126
v 0.27704341 10.86394574 15.16060517
v 0.22947388 10.86394574 15.14637663
v 0.23056465 10.86394574 15.14650641
v 0.23280499 10.86394574 15.14685445
v 0.23270701 10.86211575 15.14663324
v 0.23155746 10.86108028 15.14637958
v 0.23182525 10.85896919 15.14634124
v 0.23204079 10.85583697 15.14631765
v 0.23359531 10.85270475 15.14653296
v 0.23174034 10.85053916 15.14636189
v 0.23094349 10.84845389 15.14646216
v 0.22348442 10.83704940 15.14745616
v 0.22034926 10.83464287 15.14763903
v 0.22974167 10.84331097 15.14709926
v 0.22661305 10.84018162 15.14719660
v 0.27704341 10.83464287 15.16281733
v 0.27704341 10.86209854 15.16048129
v 0.27472470 10.85896919 15.15914516
v 0.27671683 10.86394574 15.16045180
v 0.23600547 10.86394574 15.14745026
v 0.23600547 10.86209854 15.14724379
v 0.23339283 10.85896919 15.14658015
v 0.23360184 10.85583697 15.14653886
v 0.23600547 10.85270475 15.14693704
v 0.23600547 10.84957253 15.14712876
v 0.23281805 10.84952664 15.14662439
v 0.23287684 10.84644319 15.14702847
v 0.22348442 10.83464287 15.14794283
v 0.22661305 10.83704940 15.14780420
v 0.22974167 10.84018162 15.14758594
v 0.22974167 10.83704940 15.14819059
v 0.27704341 10.83521941 15.16264331
v 0.27582201 10.83464287 15.16215958
v 0.27549542 10.83495265 15.16188822
v 0.27704341 10.85896919 15.16028957
v 0.27671683 10.85896919 15.16012735
v 0.27490758 10.85583697 15.15905962
v 0.27315712 10.85896919 15.15841662
v 0.27414339 10.86394574 15.15934572
v 0.27045304 10.85896919 15.15721616
v 0.27045304 10.86209854 15.15755241
v 0.23914062 10.86394574 15.14820534
v 0.23914062 10.86209854 15.14799888
v 0.23914062 10.85896919 15.14779535
v 0.23600547 10.85896919 15.14707567
v 0.23600547 10.85583697 15.14699013
v 0.23914062 10.85270475 15.14760069
v 0.23914062 10.84957253 15.14774816
v 0.23914062 10.84644319 15.14811981
v 0.23600547 10.84644319 15.14753874
v 0.23287684 10.84331097 15.14752105
v 0.22661305 10.83464287 15.14831152
v 0.23287684 10.84018162 15.14804017
v 0.23287684 10.83704940 15.14864187
v 0.22974167 10.83464287 15.14872151
v 0.27704341 10.83704940 15.16209763
v 0.27495330 10.83464287 15.16172305
v 0.27365352 10.83464287 15.16109185
v 0.27358167 10.83704940 15.16031907
v 0.27607674 10.83704940 15.16159327
v 0.27704341 10.85583697 15.16014210
v 0.27671683 10.85583697 15.15996808
v 0.27490758 10.85270475 15.15906257
v 0.27334000 10.85270475 15.15832813
v 0.27334000 10.85583697 15.15833109
v 0.27045304 10.85583697 15.15704509
v 0.27045304 10.86394574 15.15780902
v 0.26791879 10.85896919 15.15618088
v 0.26719378 10.86235095 15.15624871
v 0.24429405 10.86394574 15.14951788
v 0.24852651 10.86209854 15.15042929
v 0.24852651 10.85896919 15.15012844
v 0.24226925 10.85583697 15.14841181
v 0.23914062 10.85583697 15.14768032
v 0.25166167 10.85270475 15.15068000
v 0.25166167 10.84957253 15.15075373
v 0.24467941 10.84644319 15.14934976
v 0.24226925 10.84644319 15.14878935
v 0.25166167 10.84644319 15.15098085
v 0.24419607 10.84431489 15.14945890
v 0.24235416 10.84328802 15.14923178
v 0.23914062 10.84331097 15.14859763
v 0.23600547 10.84331097 15.14803132
v 0.23600547 10.84018162 15.14857108
v 0.23600547 10.83700638 15.14920228
v 0.23496041 10.83507886 15.14945004
v 0.23270701 10.83464287 15.14916688
v 0.27704341 10.84004681 15.16143695
v 0.27311140 10.83464287 15.16083819
v 0.27128255 10.83704940 15.15923659
v 0.27181814 10.83914615 15.15902718
v 0.27704341 10.85270475 15.16015095
v 0.27671683 10.85270475 15.15997988
v 0.27671683 10.84957253 15.16016864
v 0.27468551 10.84957253 15.15916581
v 0.27311793 10.84957253 15.15842547
v 0.27045304 10.84957253 15.15720436
v 0.27045304 10.85270475 15.15703329
v 0.26818005 10.85270475 15.15608354
v 0.26812126 10.85583697 15.15609534
v 0.26571764 10.86356426 15.15582693
v 0.26726563 10.86394574 15.15651417
v 0.26635773 10.85896919 15.15559392
v 0.26606382 10.86147611 15.15569420
v 0.25166167 10.86394574 15.15147343
v 0.25166167 10.86209854 15.15125811
v 0.25166167 10.85896919 15.15095136
v 0.25166167 10.85583697 15.15074784
v 0.25479030 10.85270475 15.15147638
v 0.25479030 10.84957253 15.15155306
v 0.25479030 10.84644319 15.15179787
v 0.25166167 10.84331097 15.15139084
v 0.24539788 10.84018162 15.15041749
v 0.24344494 10.84222961 15.14962997
v 0.24852651 10.84018162 15.15115782
v 0.24136136 10.84101918 15.14941760
v 0.23926473 10.84005828 15.14919639
v 0.24038816 10.83893103 15.14960932
v 0.24226925 10.83704940 15.15036734
v 0.23537843 10.83464287 15.14963586
v 0.23403946 10.83464287 15.14939400
v 0.24226925 10.83464287 15.15092776
v 0.27704341 10.84021030 15.16141039
v 0.27336613 10.84018736 15.15959938
v 0.27693891 10.84014147 15.16136910
v 0.26970844 10.83464287 15.15927789
v 0.26914672 10.83519933 15.15884725
v 0.26971497 10.83704940 15.15861719
v 0.26731788 10.84018162 15.15701560
v 0.27217738 10.84123430 15.15886790
v 0.26552169 10.84243900 15.15589772
v 0.26706968 10.84341423 15.15640209
v 0.27704341 10.85230319 15.16017454
v 0.27704341 10.84957253 15.16033971
v 0.27704341 10.84913942 15.16037216
v 0.27671683 10.84644319 15.16044590
v 0.27435893 10.84644319 15.15931918
v 0.27279135 10.84644319 15.15857884
v 0.27045304 10.84644319 15.15749931
v 0.26768365 10.84644319 15.15630180
v 0.26802983 10.84957253 15.15616023
v 0.26646224 10.84957253 15.15553493
v 0.26661247 10.85270475 15.15549068
v 0.26656022 10.85583697 15.15552018
v 0.26448317 10.86235095 15.15521048
v 0.26528003 10.86394574 15.15572075
v 0.26563926 10.86394574 15.15585938
v 0.26418925 10.85896919 15.15480934
v 0.26105409 10.86209854 15.15396873
v 0.25591373 10.86394574 15.15261784
v 0.25633176 10.86358720 15.15268863
v 0.25479030 10.85896919 15.15183621
v 0.25479030 10.85583697 15.15159435
v 0.25667140 10.86149906 15.15259130
v 0.25754010 10.85270475 15.15229340
v 0.25745519 10.84957253 15.15232879
v 0.25493400 10.84330237 15.15226389
v 0.25705023 10.84644319 15.15246741
v 0.25663874 10.84433783 15.15259425
v 0.25166167 10.84018162 15.15194240
v 0.24539788 10.83704940 15.15100739
v 0.24235416 10.84005828 15.14978629
v 0.24852651 10.83704940 15.15173299
v 0.24539788 10.83464287 15.15155896
v 0.24467288 10.83464287 15.15141148
v 0.27704341 10.84331097 15.16095912
v 0.27671683 10.84331097 15.16079690
v 0.26819965 10.83464287 15.15869388
v 0.26731788 10.83704940 15.15770579
v 0.26141986 10.83464287 15.15619268
v 0.26002210 10.83481784 15.15563226
v 0.26210568 10.83620612 15.15599505
v 0.26400636 10.83716987 15.15644338
v 0.26495998 10.84018162 15.15609829
v 0.27045304 10.84331097 15.15785326
v 0.27243864 10.84331097 15.15874697
v 0.27400622 10.84331097 15.15949025
v 0.26586134 10.84452714 15.15577090
v 0.26339240 10.84018162 15.15554378
v 0.26105409 10.84331097 15.15420764
v 0.26435907 10.84341423 15.15535500
v 0.26105409 10.84644319 15.15377701
v 0.26418925 10.84644319 15.15492142
v 0.27704341 10.84644319 15.16061107
v 0.26611607 10.84644319 15.15566471
v 0.26418925 10.84957253 15.15467661
v 0.26418925 10.85270475 15.15460288
v 0.26418925 10.85583697 15.15466776
v 0.26105409 10.86394574 15.15420174
v 0.26258902 10.86394574 15.15474445
v 0.26105409 10.85583697 15.15357939
v 0.26105409 10.85896919 15.15373866
v 0.25857209 10.85896919 15.15295704
v 0.25780136 10.86236529 15.15299538
v 0.25921218 10.86394574 15.15360593
v 0.25625337 10.86394574 15.15271223
v 0.25786668 10.86394574 15.15319300
v 0.25700451 10.85896919 15.15248806
v 0.25733762 10.85583697 15.15237303
v 0.25890520 10.85583697 15.15286560
v 0.25910768 10.85270475 15.15280956
v 0.25902277 10.84957253 15.15283316
v 0.25861781 10.84644319 15.15295409
v 0.25381057 10.84018162 15.15251755
v 0.25607049 10.84224969 15.15276237
v 0.25778177 10.84330237 15.15313106
v 0.25153104 10.83734484 15.15244972
v 0.24842201 10.83464287 15.15224915
v 0.24779497 10.83464287 15.15210462
v 0.25040108 10.83517351 15.15259719
v 0.24946053 10.83464287 15.15249396
v 0.26284375 10.83829426 15.15573549
v 0.26020498 10.83464287 15.15575024
v 0.25966940 10.83464287 15.15556737
v 0.25801690 10.83464287 15.15503941
v 0.25473152 10.83464287 15.15399527
v 0.25792546 10.83704940 15.15441410
v 0.26106062 10.83716987 15.15540220
v 0.26105409 10.84018162 15.15476510
v 0.26105409 10.84957253 15.15354104
v 0.26105409 10.85270475 15.15348500
v 0.25537814 10.84018162 15.15295999
v 0.25324885 10.83858683 15.15267683
v 0.25792546 10.84018162 15.15374751
v 0.25248465 10.83649868 15.15288625
v 0.25414368 10.83464287 15.15381535
v 0.25093014 10.83464287 15.15288035
v 0.25448985 10.83734484 15.15329918
f 1 2 3
f 1 3 4
f 1 4 5
f 1 5 6
f 1 6 7
f 1 7 8
f 1 8 2
f 2 9 10
f 2 10 11
f 2 11 3
f 2 8 12
f 2 12 9
f 3 11 13
f 3 13 14
f 3 14 4
f 4 14 15
f 4 15 16
f 4 16 5
f 5 16 17
f 5 17 18
f 5 18 19
f 5 19 6
f 6 19 18
f 6 18 36
f 6 36 58
f 6 58 79
f 6 79 78
f 6 78 59
f 6 59 37
f 6 37 22
f 6 22 21
f 6 21 20
f 6 20 12
f 6 12 8
f 6 8 7
f 9 12 20
f 9 20 21
f 9 21 22
f 9 22 23
f 9 23 24
f 9 24 25
f 9 25 10
f 10 25 26
f 10 26 27
f 10 27 11
f 11 27 13
f 13 27 28
f 13 28 14
f 14 28 29
f 14 29 15
f 15 29 30
f 15 30 31
f 15 31 16
f 16 31 32
f 16 32 33
f 16 33 34
f 16 34 35
f 16 35 17
f 17 35 36
f 17 36 18
f 22 37 60
f 22 60 81
f 22 81 99
f 22 99 119
f 22 119 147
f 22 147 182
f 22 182 227
f 22 227 226
f 22 226 270
f 22 270 269
f 22 269 275
f 22 275 277
f 22 277 276
f 22 276 230
f 22 230 185
f 22 185 150
f 22 150 122
f 22 122 100
f 22 100 84
f 22 84 83
f 22 83 82
f 22 82 63
f 22 63 62
f 22 62 61
f 22 61 42
f 22 42 41
f 22 41 39
f 22 39 38
f 22 38 26
f 22 26 25
f 22 25 24
f 22 24 23
f 26 38 27
f 27 38 39
f 27 39 40
f 27 40 28
f 28 40 41
f 28 41 42
f 28 42 43
f 28 43 44
f 28 44 45
f 28 45 29
f 29 46 30
f 29 45 47
f 29 47 48
f 29 48 46
f 30 46 31
f 31 46 49
f 31 49 32
f 32 50 51
f 32 51 33
f 32 49 52
f 32 52 53
f 32 53 54
f 32 54 55
f 32 55 50
f 33 51 74
f 33 74 56
f 33 56 35
f 33 35 34
f 35 56 57
f 35 57 36
f 36 57 58
f 37 59 60
f 39 41 40
f 42 61 44
f 42 44 43
f 44 61 62
f 44 62 63
f 44 63 64
f 44 64 65
f 44 65 45
f 45 65 66
f 45 66 67
f 45 67 47
f 46 52 49
f 46 48 53
f 46 53 52
f 47 67 68
f 47 68 48
f 48 68 69
f 48 69 53
f 50 55 70
f 50 70 71
f 50 71 72
f 50 72 73
f 50 73 51
f 51 73 74
f 53 69 75
f 53 75 76
f 53 76 54
f 54 76 77
f 54 77 55
f 55 77 70
f 56 74 73
f 56 73 57
f 57 73 78
f 57 78 79
f 57 79 58
f 59 78 73
f 59 73 72
f 59 72 71
f 59 71 93
f 59 93 108
f 59 108 132
f 59 132 135
f 59 135 167
f 59 167 201
f 59 201 200
f 59 200 202
f 59 202 245
f 59 245 244
f 59 244 289
f 59 289 288
f 59 288 291
f 59 291 307
f 59 307 306
f 59 306 296
f 59 296 295
f 59 295 294
f 59 294 293
f 59 293 250
f 59 250 248
f 59 248 206
f 59 206 169
f 59 169 138
f 59 138 137
f 59 137 113
f 59 113 96
f 59 96 80
f 59 80 60
f 60 80 96
f 60 96 112
f 60 112 136
f 60 136 168
f 60 168 203
f 60 203 246
f 60 246 264
f 60 264 215
f 60 215 214
f 60 214 213
f 60 213 172
f 60 172 141
f 60 141 115
f 60 115 97
f 60 97 81
f 63 82 64
f 64 83 84
f 64 84 85
f 64 85 86
f 64 86 65
f 64 82 83
f 65 86 66
f 66 86 87
f 66 87 88
f 66 88 67
f 67 88 89
f 67 89 68
f 68 89 90
f 68 90 69
f 69 90 91
f 69 91 75
f 70 77 92
f 70 92 93
f 70 93 71
f 75 91 94
f 75 94 95
f 75 95 77
f 75 77 76
f 77 95 92
f 81 97 98
f 81 98 99
f 84 100 101
f 84 101 85
f 85 101 102
f 85 102 86
f 86 102 87
f 87 102 103
f 87 103 88
f 88 103 89
f 89 103 104
f 89 104 105
f 89 105 90
f 90 105 106
f 90 106 91
f 91 106 107
f 91 107 94
f 92 108 93
f 92 95 109
f 92 109 108
f 94 110 95
f 94 107 110
f 95 110 111
f 95 111 109
f 96 113 114
f 96 114 112
f 97 115 116
f 97 116 98
f 98 116 117
f 98 117 145
f 98 145 118
f 98 118 99
f 99 118 120
f 99 120 121
f 99 121 119
f 100 122 123
f 100 123 101
f 101 123 124
f 101 124 125
f 101 125 102
f 102 125 126
f 102 126 103
f 103 126 104
f 104 126 127
f 104 127 128
f 104 128 105
f 105 128 129
f 105 129 130
f 105 130 107
f 105 107 106
f 107 131 110
f 107 130 163
f 107 163 131
f 108 109 132
f 109 111 132
f 110 131 133
f 110 133 134
f 110 134 111
f 111 135 132
f 111 134 135
f 112 114 136
f 113 137 114
f 114 137 138
f 114 138 139
f 114 139 140
f 114 140 136
f 115 141 142
f 115 142 117
f 115 117 116
f 117 142 143
f 117 143 144
f 117 144 145
f 118 145 146
f 118 146 120
f 119 121 147
f 120 146 148
f 120 148 121
f 121 148 149
f 121 149 147
f 122 150 123
f 123 150 151
f 123 151 152
f 123 152 124
f 124 153 154
f 124 154 125
f 124 152 153
f 125 154 126
f 126 154 127
f 127 154 153
f 127 153 155
f 127 155 156
f 127 156 128
f 128 157 158
f 128 158 129
f 128 156 159
f 128 159 157
f 129 158 160
f 129 160 161
f 129 161 162
f 129 162 130
f 130 162 163
f 131 163 133
f 133 163 164
f 133 164 134
f 134 164 165
f 134 165 166
f 134 166 167
f 134 167 135
f 136 140 168
f 138 169 170
f 138 170 139
f 139 170 171
f 139 171 168
f 139 168 140
f 141 172 142
f 142 172 173
f 142 173 143
f 143 173 174
f 143 174 175
f 143 175 176
f 143 176 144
f 144 176 177
f 144 177 178
f 144 178 145
f 145 178 146
f 146 178 179
f 146 179 180
f 146 180 148
f 147 149 181
f 147 181 182
f 148 180 183
f 148 183 184
f 148 184 149
f 149 184 181
f 150 185 186
f 150 186 151
f 151 186 187
f 151 187 152
f 152 187 188
f 152 188 153
f 153 188 155
f 155 188 189
f 155 189 156
f 156 189 190
f 156 190 159
f 157 160 158
f 157 159 160
f 159 190 191
f 159 191 192
f 159 192 160
f 160 193 194
f 160 194 161
f 160 192 195
f 160 195 193
f 161 194 196
f 161 196 162
f 162 196 197
f 162 197 164
f 162 164 163
f 164 197 198
f 164 198 165
f 165 198 199
f 165 199 166
f 166 200 201
f 166 201 167
f 166 199 202
f 166 202 200
f 168 171 204
f 168 204 205
f 168 205 203
f 169 206 170
f 170 206 207
f 170 207 208
f 170 208 209
f 170 209 171
f 171 210 204
f 171 209 211
f 171 211 212
f 171 212 210
f 172 213 173
f 173 213 174
f 174 213 214
f 174 214 215
f 174 215 216
f 174 216 175
f 175 216 217
f 175 217 218
f 175 218 176
f 176 218 219
f 176 219 177
f 177 219 220
f 177 220 221
f 177 221 178
f 178 221 179
f 179 221 222
f 179 222 223
f 179 223 180
f 180 223 224
f 180 224 183
f 181 184 225
f 181 225 226
f 181 226 227
f 181 227 182
f 183 224 228
f 183 228 184
f 184 228 229
f 184 229 225
f 185 230 186
f 186 230 231
f 186 231 187
f 187 232 233
f 187 233 188
f 187 231 234
f 187 234 232
f 188 233 189
f 189 233 235
f 189 235 236
f 189 236 190
f 190 236 191
f 191 237 192
f 191 236 238
f 191 238 239
f 191 239 237
f 192 237 240
f 192 240 195
f 193 241 242
f 193 242 194
f 193 195 243
f 193 243 241
f 194 242 196
f 195 240 243
f 196 242 198
f 196 198 197
f 198 242 199
f 199 242 241
f 199 241 244
f 199 244 245
f 199 245 202
f 203 205 204
f 203 204 247
f 203 247 246
f 204 210 247
f 206 248 207
f 207 249 208
f 207 248 250
f 207 250 251
f 207 251 252
f 207 252 253
f 207 253 249
f 208 249 254
f 208 254 209
f 209 254 211
f 210 255 256
f 210 256 257
f 210 257 247
f 210 212 255
f 211 258 212
f 211 254 259
f 211 259 260
f 211 260 261
f 211 261 262
f 211 262 263
f 211 263 258
f 212 258 220
f 212 220 255
f 215 264 216
f 216 247 257
f 216 257 217
f 216 264 246
f 216 246 247
f 217 257 256
f 217 256 218
f 218 256 219
f 219 256 255
f 219 255 220
f 220 258 265
f 220 265 221
f 221 265 222
f 222 265 263
f 222 263 266
f 222 266 223
f 223 266 267
f 223 267 224
f 224 267 268
f 224 268 228
f 225 229 269
f 225 269 270
f 225 270 226
f 228 268 271
f 228 271 272
f 228 272 229
f 229 272 273
f 229 273 274
f 229 274 275
f 229 275 269
f 230 276 231
f 231 276 277
f 231 277 274
f 231 274 234
f 232 234 278
f 232 278 233
f 233 278 273
f 233 273 279
f 233 279 235
f 234 274 278
f 235 279 280
f 235 280 281
f 235 281 282
f 235 282 236
f 236 282 283
f 236 283 238
f 237 284 240
f 237 239 285
f 237 285 284
f 238 283 239
f 239 283 260
f 239 260 286
f 239 286 285
f 240 284 287
f 240 287 243
f 241 243 288
f 241 288 289
f 241 289 244
f 243 287 290
f 243 290 291
f 243 291 288
f 249 253 292
f 249 292 254
f 250 293 251
f 251 293 294
f 251 294 295
f 251 295 296
f 251 296 297
f 251 297 298
f 251 298 252
f 252 298 292
f 252 292 253
f 254 292 259
f 258 263 265
f 259 292 299
f 259 299 260
f 260 262 261
f 260 299 286
f 260 283 262
f 262 300 266
f 262 266 263
f 262 283 282
f 262 282 300
f 266 300 267
f 267 300 301
f 267 301 268
f 268 301 271
f 271 301 281
f 271 281 280
f 271 280 272
f 272 280 273
f 273 280 279
f 273 278 274
f 274 277 275
f 281 301 282
f 282 301 300
f 284 285 302
f 284 302 303
f 284 303 287
f 285 286 299
f 285 299 304
f 285 304 302
f 287 303 305
f 287 305 290
f 290 305 306
f 290 306 307
f 290 307 291
f 292 298 297
f 292 297 304
f 292 304 299
f 296 306 297
f 297 306 308
f 297 308 302
f 297 302 304
f 302 308 305
f 302 305 303
f 305 308 306

