# https://github.com/mikedh/trimesh
v 0.27704341 10.85583710 15.16013932
v 0.27704341 10.85270496 15.16015247
v 0.27704341 10.85896924 15.16029705
v 0.28092526 10.86169100 15.16232128
v 0.27947482 10.85583710 15.16142089
v 0.27704341 10.84957282 15.16034306
v 0.27942578 10.85270496 15.16143403
v 0.27926461 10.84957282 15.16151947
v 0.27704341 10.86169100 15.16047450
v 0.27935570 10.86169100 15.16155891
v 0.28118451 10.86169100 15.16245930
v 0.28298530 10.86169100 15.16341884
v 0.28298530 10.85896924 15.16335968
v 0.28542371 10.85896924 15.16470041
v 0.28104437 10.85583710 15.16228842
v 0.27704341 10.84913861 15.16037592
v 0.27906141 10.84644333 15.16164435
v 0.28298530 10.85583710 15.16336625
v 0.28538166 10.85583710 15.16472670
v 0.28099532 10.85270496 15.16232785
v 0.28298530 10.85270496 15.16347141
v 0.28298530 10.84957282 15.16367515
v 0.28063097 10.84644333 15.16253817
v 0.27704341 10.86169100 15.17212696
v 0.28330761 10.86169100 15.16359628
v 0.28537466 10.86169100 15.16473984
v 0.28924949 10.86169100 15.16694809
v 0.28699326 10.85896924 15.16561394
v 0.27704341 10.84644333 15.16061909
v 0.28032266 10.84331120 15.16270904
v 0.27876012 10.84331120 15.16182180
v 0.27704341 10.84594293 15.16067167
v 0.28523452 10.85270496 15.16479242
v 0.28924949 10.85896924 15.16694151
v 0.28694421 10.85583710 15.16565337
v 0.28505935 10.84957282 15.16489100
v 0.28298530 10.84644333 15.16393146
v 0.27704341 10.83464287 15.17521588
v 0.33236315 10.83464287 15.22727404
v 0.33748522 10.86169100 15.22727404
v 0.29121844 10.86169100 15.16809822
v 0.27964299 10.84013934 15.16284048
v 0.27846583 10.84115868 15.16197953
v 0.28464594 10.84447350 15.16514731
v 0.28320251 10.84338268 15.16442437
v 0.28250181 10.84018170 15.16454267
v 0.27704341 10.84290876 15.16101999
v 0.27704341 10.84331120 15.16096742
v 0.28924949 10.85583710 15.16704010
v 0.29109933 10.85583710 15.16816394
v 0.29120443 10.85896924 15.16810479
v 0.29096619 10.85353102 15.16824938
v 0.30085998 10.85583710 15.17419719
v 0.28482111 10.84644333 15.16503559
v 0.27704341 10.83464287 15.16282077
v 0.34509475 10.83464287 15.22727404
v 0.34861924 10.86169100 15.22727404
v 0.29142165 10.86169100 15.16822309
v 0.27813650 10.83906970 15.16215697
v 0.27704341 10.84004667 15.16144060
v 0.27704341 10.84021083 15.16141432
v 0.28439369 10.84238453 15.16531819
v 0.30060773 10.85270496 15.17434836
v 0.30036950 10.85040418 15.17449951
v 0.30013827 10.84831521 15.17465067
v 0.28192725 10.83704956 15.16489757
v 0.28406436 10.84018170 15.16552193
v 0.29276697 10.85896924 15.16907747
v 0.29864579 10.85896924 15.17276446
v 0.30088100 10.85896924 15.17417747
v 0.30242253 10.85583710 15.17522245
v 0.27704341 10.83704956 15.16210440
v 0.27765302 10.83704956 15.16241987
v 0.27949584 10.83464287 15.16413520
v 0.34470236 10.83464287 15.22647881
v 0.34463229 10.84353624 15.22302184
v 0.34549415 10.83682452 15.22727404
v 0.34861924 10.86101321 15.22727404
v 0.34809372 10.86169100 15.22627507
v 0.29311031 10.86169100 15.16928121
v 0.27985320 10.83704956 15.16366858
v 0.29385305 10.84219919 15.17153546
v 0.30217027 10.85270496 15.17539332
v 0.30450358 10.85270496 15.17695750
v 0.30606613 10.85270496 15.17800905
v 0.30572280 10.84957282 15.17825222
v 0.30377487 10.84644333 15.17743727
v 0.30177789 10.84644333 15.17607683
v 0.29990003 10.84644333 15.17481498
v 0.28349680 10.83704956 15.16588339
v 0.28154187 10.83523064 15.16513417
v 0.28772899 10.83850046 15.16830853
v 0.29541560 10.86169100 15.17077309
v 0.30244354 10.85896924 15.17520274
v 0.30473482 10.85896924 15.17677349
v 0.30630436 10.85896924 15.17785789
v 0.30467876 10.85583710 15.17678663
v 0.28071505 10.83464287 15.16483185
v 0.34438004 10.83464287 15.22582817
v 0.34402268 10.83560131 15.22475033
v 0.34387554 10.84264134 15.22189800
v 0.34407174 10.84473032 15.22152339
v 0.34655219 10.84644333 15.22601876
v 0.34672737 10.84359979 15.22727404
v 0.34860522 10.85896924 15.22727404
v 0.34721084 10.85896924 15.22465175
v 0.34634899 10.85896924 15.22308757
v 0.34720383 10.86169100 15.22466489
v 0.29351671 10.84018170 15.17175892
v 0.30351561 10.84434112 15.17761472
v 0.30128741 10.84018170 15.17699694
v 0.29897512 10.84018170 15.17543276
v 0.30078991 10.83704956 15.17734527
v 0.29678195 10.83637442 15.17480183
v 0.30624831 10.85583710 15.17789732
v 0.30804209 10.85583710 15.17917890
v 0.30804209 10.85270496 15.17942207
v 0.30966770 10.85083839 15.18082195
v 0.30824529 10.84970521 15.17999385
v 0.30534441 10.84644333 15.17852825
v 0.28545874 10.83464287 15.16780904
v 0.28484213 10.83464287 15.16740814
v 0.29821837 10.83464287 15.17619513
v 0.28288720 10.83464287 15.16615943
v 0.28215147 10.83464287 15.16569281
v 0.30228940 10.86169100 15.17528818
v 0.30466474 10.86169100 15.17685235
v 0.30623430 10.86169100 15.17790389
v 0.30804209 10.85896924 15.17911975
v 0.30998301 10.85583710 15.18058535
v 0.34392459 10.83464287 15.22493435
v 0.34083454 10.83589520 15.21859220
v 0.34418385 10.84644333 15.22131308
v 0.34512277 10.84644333 15.22314014
v 0.34103774 10.83798418 15.21823073
v 0.34318185 10.84353624 15.22029440
v 0.34152822 10.84331120 15.21738949
v 0.34335002 10.84644333 15.21974891
v 0.34356023 10.84957282 15.21937429
v 0.34794657 10.85208277 15.22727404
v 0.34760323 10.84957282 15.22727404
v 0.34715479 10.84644333 15.22727404
v 0.34699363 10.84532339 15.22727404
v 0.34841603 10.85597478 15.22727404
v 0.34718982 10.85728271 15.22468461
v 0.34477944 10.85896924 15.22029440
v 0.34400167 10.86169100 15.21893395
v 0.30942946 10.84874942 15.18099282
v 0.30755861 10.84644333 15.18009243
v 0.30713819 10.84331120 15.18038161
v 0.30670376 10.84018170 15.18069707
v 0.30647954 10.83859313 15.18086137
v 0.30042555 10.83492088 15.17758844
v 0.30980783 10.85270496 15.18071679
v 0.31137739 10.85270496 15.18189320
v 0.31343743 10.85270496 15.18345738
v 0.31315014 10.84957282 15.18368083
v 0.31089391 10.84970521 15.18193921
v 0.29999813 10.83464287 15.17737812
v 0.30804209 10.86169100 15.17923804
v 0.31000403 10.85896924 15.18056562
v 0.31155256 10.85583710 15.18179463
v 0.34121992 10.83464287 15.21984749
v 0.34068739 10.83464287 15.21886167
v 0.33953125 10.83464287 15.21692288
v 0.33913185 10.83464287 15.21625908
v 0.33845218 10.83704956 15.21420856
v 0.33771645 10.83892673 15.21228292
v 0.33866238 10.84005461 15.21349877
v 0.34438004 10.84957282 15.22094504
v 0.34803065 10.85270496 15.22727404
v 0.34124094 10.84018170 15.21786926
v 0.34033704 10.84018170 15.21630508
v 0.34061732 10.84331120 15.21581874
v 0.34080651 10.84556697 15.21549671
v 0.34164034 10.84654394 15.21667971
v 0.34219388 10.84957282 15.21687686
v 0.34252320 10.85270496 15.21687686
v 0.34371439 10.85270496 15.21905882
v 0.34455521 10.85270496 15.22062300
v 0.34707771 10.85519373 15.22489492
v 0.34470936 10.85583710 15.22040613
v 0.34382650 10.85583710 15.21884195
v 0.34271239 10.85583710 15.21687686
v 0.34136706 10.85583710 15.21451746
v 0.34388255 10.85896924 15.21873022
v 0.34295763 10.86169100 15.21712003
v 0.31266666 10.84520954 15.18405544
v 0.30912816 10.84644333 15.18121627
v 0.31240040 10.84331120 15.18424604
v 0.31037540 10.84018170 15.18342452
v 0.30996199 10.83758438 15.18372684
v 0.30959762 10.83549806 15.18400287
v 0.30608015 10.83650416 15.18115055
v 0.30074087 10.83464287 15.17789075
v 0.31499997 10.85270496 15.18467981
v 0.31471268 10.84957282 15.18490983
v 0.30991994 10.86169100 15.18063135
v 0.31148950 10.86169100 15.18180777
v 0.31157358 10.85896924 15.18178805
v 0.31353552 10.85583710 15.18336537
v 0.33817190 10.83464287 15.21467519
v 0.33793367 10.84101306 15.21194774
v 0.33749223 10.83704956 15.21263782
v 0.33468945 10.83535243 15.20899684
v 0.33488565 10.83704956 15.20871423
v 0.33695970 10.84005461 15.21079104
v 0.33939811 10.84331120 15.21374851
v 0.34097467 10.84765330 15.21521411
v 0.34111481 10.84957282 15.21497751
v 0.34128298 10.85270496 15.21466862
v 0.34046316 10.85583710 15.21295329
v 0.34281049 10.85896924 15.21687686
v 0.34281749 10.86169100 15.21687686
v 0.31607904 10.84399958 15.18695378
v 0.31581978 10.84191325 15.18717065
v 0.31457955 10.84309939 15.18596795
v 0.31194494 10.84018170 15.18461408
v 0.31552549 10.84018170 15.18739411
v 0.31052254 10.83464287 15.18500184
v 0.30942246 10.83464287 15.18413431
v 0.30570177 10.83464287 15.18142658
v 0.31888181 10.83904852 15.19035816
v 0.31852446 10.83704956 15.19064733
v 0.30420229 10.83464287 15.18034875
v 0.30177789 10.83464287 15.17862683
v 0.31509807 10.85583710 15.18461408
v 0.31691987 10.85270496 15.18625056
v 0.31664660 10.84957282 15.18647401
v 0.31633129 10.84644333 15.18674347
v 0.31349348 10.86169100 15.18337852
v 0.31352852 10.85896924 15.18335223
v 0.33794768 10.83464287 15.21431372
v 0.33812985 10.84331120 15.21165199
v 0.33523599 10.84018170 15.20822132
v 0.33709984 10.84331120 15.21008125
v 0.33717691 10.83464287 15.21311102
v 0.33508885 10.83464287 15.20991036
v 0.33393972 10.83464287 15.20826733
v 0.33185165 10.83464287 15.20550044
v 0.33372249 10.83704956 15.20715005
v 0.33410087 10.84018170 15.20665714
v 0.34007078 10.84654394 15.21400483
v 0.34016887 10.84957282 15.21341333
v 0.34036507 10.85270496 15.21309787
v 0.33904076 10.85583710 15.21061359
v 0.34049820 10.85896924 15.21289413
v 0.34140910 10.85896924 15.21445831
v 0.34062433 10.86169100 15.21309130
v 0.31789383 10.84644333 15.18806447
v 0.31938631 10.84331120 15.18991782
v 0.31913406 10.84113749 15.19014128
v 0.31648544 10.83464287 15.18977981
v 0.32094886 10.84331120 15.19131113
v 0.32062654 10.83989841 15.19175146
v 0.32211201 10.83866197 15.19340765
v 0.32030422 10.83704956 15.19221151
v 0.31986979 10.83464287 15.19261899
v 0.31945638 10.83464287 15.19225752
v 0.31804799 10.83464287 15.19105481
v 0.31509107 10.85896924 15.18463380
v 0.31698294 10.85583710 15.18617826
v 0.31848242 10.85270496 15.18758471
v 0.31821616 10.84957282 15.18779501
v 0.31369669 10.86169100 15.18354282
v 0.33837509 10.84644333 15.21128395
v 0.33443020 10.84331120 15.20621681
v 0.33553028 10.84331120 15.20778099
v 0.33477354 10.84725880 15.20574361
v 0.33733807 10.84644333 15.20971978
v 0.33155735 10.83464287 15.20513897
v 0.33091272 10.83704956 15.20354193
v 0.33215295 10.83704956 15.20510611
v 0.33253833 10.84018170 15.20460662
v 0.33150830 10.84180205 15.20279928
v 0.33859932 10.84957282 15.21093563
v 0.33864837 10.85268908 15.21036385
v 0.33786359 10.85372430 15.20893111
v 0.33910382 10.85896924 15.21061359
v 0.33791965 10.85583710 15.20884567
v 0.33795468 10.85896924 15.20879310
v 0.34050521 10.86169100 15.21288756
v 0.31970863 10.84644333 15.18962865
v 0.32127819 10.84644333 15.19103509
v 0.32267957 10.84331120 15.19287530
v 0.32237828 10.84074829 15.19315133
v 0.32186676 10.83704956 15.19363767
v 0.32380768 10.83972101 15.19483381
v 0.32523710 10.83869109 15.19654257
v 0.32343632 10.83704956 15.19519528
v 0.32143233 10.83464287 15.19402543
v 0.32106797 10.83464287 15.19369683
v 0.31530127 10.86169100 15.18487697
v 0.31695491 10.85896924 15.18619797
v 0.31854547 10.85583710 15.18753212
v 0.32018511 10.85270496 15.18914888
v 0.31999592 10.84957282 15.18935919
v 0.33756930 10.84957282 15.20937145
v 0.33459837 10.84517247 15.20598678
v 0.33270649 10.84303319 15.20404800
v 0.33171151 10.84389102 15.20254953
v 0.33494170 10.84957282 15.20552016
v 0.33629404 10.84957282 15.20748523
v 0.33370147 10.84630831 15.20456062
v 0.33374352 10.84957282 15.20394941
v 0.33018400 10.83464287 15.20349593
v 0.32830614 10.83891349 15.19974979
v 0.33131211 10.84018170 15.20304245
v 0.32959541 10.84004667 15.20096564
v 0.32858642 10.84100247 15.19943432
v 0.33060441 10.84303319 15.20139284
v 0.33513790 10.85270496 15.20527699
v 0.33681957 10.85583710 15.20727492
v 0.33909681 10.86169100 15.21061359
v 0.33686160 10.85896924 15.20722892
v 0.33700174 10.86169100 15.20744581
v 0.33794067 10.86169100 15.20880624
v 0.32155846 10.84957282 15.19079849
v 0.32296685 10.84644333 15.19259927
v 0.32453641 10.84644333 15.19410430
v 0.32424212 10.84331120 15.19440004
v 0.32550337 10.84077742 15.19627311
v 0.32305094 10.83464287 15.19558960
v 0.32268657 10.83464287 15.19522814
v 0.32500588 10.83704956 15.19679231
v 0.31691987 10.86169100 15.18623741
v 0.31848242 10.86169100 15.18759128
v 0.31851746 10.85896924 15.18755842
v 0.32022714 10.85896924 15.18912260
v 0.32179670 10.85896924 15.19057505
v 0.32023415 10.85583710 15.18909630
v 0.32174765 10.85270496 15.19062762
v 0.33065346 10.84644333 15.20070276
v 0.33193573 10.84644333 15.20226693
v 0.33392570 10.85270496 15.20370624
v 0.33218097 10.84957282 15.20198432
v 0.32867050 10.83464287 15.20172801
v 0.32800484 10.83704956 15.20008498
v 0.32604991 10.83464287 15.19877054
v 0.32462049 10.83464287 15.19720636
v 0.32735319 10.84331120 15.19760726
v 0.32881765 10.84331120 15.19917801
v 0.32579065 10.84331120 15.19597079
v 0.33525702 10.85583710 15.20513240
v 0.33529205 10.85896924 15.20508639
v 0.33549525 10.86169100 15.20538214
v 0.33685459 10.86169100 15.20724206
v 0.32317006 10.84957282 15.19236267
v 0.32473260 10.84957282 15.19391370
v 0.32628814 10.84957282 15.19547788
v 0.32607793 10.84644333 15.19566847
v 0.32020612 10.86169100 15.18915545
v 0.32176867 10.86169100 15.19059476
v 0.32198588 10.86169100 15.19079849
v 0.32342230 10.86169100 15.19215894
v 0.32342931 10.85896924 15.19213922
v 0.32179670 10.85583710 15.19057505
v 0.32340829 10.85583710 15.19213922
v 0.32497785 10.85583710 15.19368367
v 0.32331720 10.85270496 15.19219179
v 0.33087068 10.84957282 15.20042015
v 0.32908391 10.84644333 15.19888227
v 0.33236315 10.85270496 15.20180031
v 0.33401679 10.85583710 15.20356823
v 0.32761946 10.83464287 15.20053188
v 0.32764047 10.84644333 15.19731809
v 0.33405883 10.85896924 15.20352221
v 0.33529205 10.86169100 15.20510611
v 0.32643528 10.85270496 15.19533329
v 0.32800484 10.85270496 15.19691718
v 0.32785770 10.84957282 15.19708149
v 0.32498485 10.86169100 15.19365739
v 0.32499887 10.85896924 15.19365739
v 0.32656141 10.85896924 15.19521499
v 0.32813097 10.85896924 15.19679231
v 0.32651937 10.85583710 15.19524128
v 0.32930813 10.84957282 15.19864567
v 0.33101081 10.85270496 15.20023613
v 0.33245424 10.85583710 15.20170173
v 0.33248928 10.85896924 15.20165572
v 0.33267847 10.86169100 15.20189889
v 0.33403781 10.86169100 15.20354193
v 0.32808892 10.85583710 15.19683832
v 0.32944826 10.85270496 15.19848793
v 0.32518805 10.86169100 15.19385456
v 0.32657542 10.86169100 15.19521499
v 0.32814498 10.86169100 15.19677917
v 0.32956738 10.85896924 15.19835649
v 0.33109489 10.85583710 15.20013755
v 0.33112993 10.85896924 15.20008498
v 0.33113694 10.86169100 15.20009155
v 0.33131211 10.86169100 15.20029528
v 0.32952535 10.85583710 15.19840250
v 0.32977760 10.86169100 15.19857337
f 1 2 6
f 1 6 16
f 1 16 29
f 1 29 32
f 1 32 48
f 1 48 47
f 1 47 61
f 1 61 60
f 1 60 72
f 1 72 55
f 1 55 38
f 1 38 24
f 1 24 9
f 1 9 3
f 1 3 4
f 1 4 5
f 1 5 2
f 2 5 7
f 2 7 8
f 2 8 6
f 3 9 10
f 3 10 4
f 4 11 5
f 4 10 9
f 4 9 24
f 4 24 40
f 4 40 57
f 4 57 79
f 4 79 108
f 4 108 147
f 4 147 187
f 4 187 214
f 4 214 249
f 4 249 282
f 4 282 314
f 4 314 317
f 4 317 316
f 4 316 347
f 4 347 346
f 4 346 368
f 4 368 382
f 4 382 381
f 4 381 392
f 4 392 391
f 4 391 394
f 4 394 387
f 4 387 386
f 4 386 385
f 4 385 372
f 4 372 355
f 4 355 354
f 4 354 353
f 4 353 352
f 4 352 327
f 4 327 326
f 4 326 293
f 4 293 265
f 4 265 231
f 4 231 199
f 4 199 198
f 4 198 160
f 4 160 128
f 4 128 127
f 4 127 126
f 4 126 93
f 4 93 80
f 4 80 58
f 4 58 41
f 4 41 27
f 4 27 26
f 4 26 25
f 4 25 12
f 4 12 11
f 5 11 12
f 5 12 13
f 5 13 14
f 5 14 15
f 5 15 7
f 6 8 17
f 6 17 16
f 7 15 18
f 7 18 19
f 7 19 20
f 7 20 8
f 8 20 21
f 8 21 22
f 8 22 23
f 8 23 17
f 12 25 14
f 12 14 13
f 14 26 27
f 14 27 28
f 14 28 19
f 14 19 18
f 14 18 15
f 14 25 26
f 16 17 29
f 17 23 30
f 17 30 31
f 17 31 32
f 17 32 29
f 19 33 21
f 19 21 20
f 19 28 34
f 19 34 35
f 19 35 33
f 21 33 36
f 21 36 22
f 22 36 23
f 23 36 37
f 23 37 30
f 24 38 39
f 24 39 40
f 27 41 28
f 28 41 34
f 30 42 43
f 30 43 31
f 30 37 44
f 30 44 45
f 30 45 46
f 30 46 42
f 31 43 47
f 31 47 48
f 31 48 32
f 33 35 49
f 33 49 50
f 33 50 36
f 34 41 51
f 34 51 35
f 35 51 49
f 36 50 52
f 36 52 53
f 36 53 54
f 36 54 37
f 37 54 44
f 38 55 74
f 38 74 98
f 38 98 125
f 38 125 124
f 38 124 122
f 38 122 121
f 38 121 123
f 38 123 159
f 38 159 195
f 38 195 226
f 38 226 225
f 38 225 222
f 38 222 221
f 38 221 220
f 38 220 253
f 38 253 260
f 38 260 259
f 38 259 258
f 38 258 292
f 38 292 291
f 38 291 324
f 38 324 323
f 38 323 340
f 38 340 339
f 38 339 365
f 38 365 337
f 38 337 306
f 38 306 271
f 38 271 240
f 38 240 239
f 38 239 238
f 38 238 237
f 38 237 233
f 38 233 202
f 38 202 166
f 38 166 165
f 38 165 164
f 38 164 163
f 38 163 131
f 38 131 99
f 38 99 75
f 38 75 56
f 38 56 39
f 39 56 77
f 39 77 104
f 39 104 143
f 39 143 142
f 39 142 141
f 39 141 140
f 39 140 171
f 39 171 144
f 39 144 105
f 39 105 78
f 39 78 57
f 39 57 40
f 41 58 51
f 42 46 59
f 42 59 43
f 43 59 60
f 43 60 61
f 43 61 47
f 44 62 45
f 44 54 63
f 44 63 64
f 44 64 65
f 44 65 62
f 45 62 46
f 46 66 59
f 46 62 67
f 46 67 66
f 49 51 50
f 50 51 53
f 50 53 52
f 51 58 68
f 51 68 53
f 53 69 70
f 53 70 94
f 53 94 71
f 53 71 63
f 53 63 54
f 53 68 69
f 55 72 73
f 55 73 74
f 56 75 76
f 56 76 77
f 57 78 79
f 58 80 68
f 59 73 72
f 59 72 60
f 59 66 81
f 59 81 73
f 62 65 82
f 62 82 67
f 63 71 83
f 63 83 64
f 64 83 84
f 64 84 85
f 64 85 65
f 65 85 86
f 65 86 87
f 65 87 88
f 65 88 89
f 65 89 82
f 66 67 90
f 66 90 91
f 66 91 81
f 67 82 92
f 67 92 90
f 68 80 69
f 69 80 70
f 70 93 94
f 70 80 93
f 71 94 95
f 71 95 96
f 71 96 97
f 71 97 85
f 71 85 84
f 71 84 83
f 73 81 74
f 74 81 91
f 74 91 98
f 75 99 76
f 76 99 100
f 76 100 101
f 76 101 102
f 76 102 103
f 76 103 104
f 76 104 77
f 78 105 79
f 79 105 106
f 79 106 107
f 79 107 108
f 82 109 92
f 82 89 110
f 82 110 111
f 82 111 112
f 82 112 113
f 82 113 114
f 82 114 109
f 85 97 115
f 85 115 116
f 85 116 117
f 85 117 118
f 85 118 119
f 85 119 86
f 86 119 120
f 86 120 110
f 86 110 87
f 87 110 88
f 88 110 89
f 90 121 122
f 90 122 91
f 90 92 114
f 90 114 123
f 90 123 121
f 91 122 124
f 91 124 125
f 91 125 98
f 92 109 114
f 93 126 94
f 94 126 127
f 94 127 128
f 94 128 95
f 95 128 96
f 96 115 97
f 96 128 129
f 96 129 130
f 96 130 116
f 96 116 115
f 99 131 100
f 100 131 132
f 100 132 101
f 101 132 102
f 102 133 134
f 102 134 103
f 102 132 135
f 102 135 136
f 102 136 137
f 102 137 138
f 102 138 139
f 102 139 133
f 103 140 141
f 103 141 142
f 103 142 143
f 103 143 104
f 103 134 140
f 105 144 145
f 105 145 106
f 106 145 107
f 107 146 147
f 107 147 108
f 107 145 146
f 110 120 148
f 110 148 149
f 110 149 150
f 110 150 151
f 110 151 152
f 110 152 111
f 111 113 112
f 111 152 113
f 113 152 153
f 113 153 114
f 114 153 123
f 116 130 117
f 117 130 154
f 117 154 118
f 118 148 119
f 118 154 155
f 118 155 156
f 118 156 157
f 118 157 158
f 118 158 148
f 119 148 120
f 123 153 159
f 128 160 161
f 128 161 129
f 129 161 130
f 130 161 162
f 130 162 156
f 130 156 155
f 130 155 154
f 131 163 132
f 132 163 164
f 132 164 165
f 132 165 166
f 132 166 167
f 132 167 168
f 132 168 169
f 132 169 135
f 133 170 171
f 133 171 134
f 133 139 170
f 134 171 140
f 135 172 136
f 135 169 173
f 135 173 172
f 136 172 137
f 137 172 173
f 137 173 174
f 137 174 175
f 137 175 176
f 137 176 138
f 138 176 177
f 138 177 139
f 139 177 178
f 139 178 179
f 139 179 180
f 139 180 181
f 139 181 144
f 139 144 170
f 144 181 145
f 144 171 170
f 145 181 180
f 145 180 179
f 145 179 178
f 145 178 182
f 145 182 183
f 145 183 146
f 146 183 184
f 146 184 185
f 146 185 186
f 146 186 147
f 147 186 187
f 148 158 188
f 148 188 189
f 148 189 150
f 148 150 149
f 150 189 188
f 150 188 151
f 151 188 190
f 151 190 152
f 152 190 191
f 152 191 192
f 152 192 193
f 152 193 194
f 152 194 153
f 153 195 159
f 153 194 195
f 156 162 196
f 156 196 157
f 157 188 158
f 157 196 197
f 157 197 188
f 160 198 161
f 161 198 199
f 161 199 200
f 161 200 162
f 162 200 201
f 162 201 196
f 166 202 167
f 167 202 168
f 168 203 169
f 168 202 204
f 168 204 205
f 168 205 206
f 168 206 207
f 168 207 203
f 169 203 173
f 173 203 174
f 174 203 208
f 174 208 175
f 175 209 176
f 175 208 209
f 176 209 177
f 177 209 210
f 177 210 211
f 177 211 178
f 178 211 182
f 182 211 183
f 183 211 184
f 184 211 185
f 185 211 212
f 185 212 186
f 186 212 213
f 186 213 214
f 186 214 187
f 188 197 215
f 188 215 216
f 188 216 217
f 188 217 190
f 190 218 191
f 190 217 216
f 190 216 218
f 191 218 192
f 192 218 216
f 192 216 219
f 192 219 193
f 193 220 221
f 193 221 222
f 193 222 194
f 193 219 223
f 193 223 224
f 193 224 220
f 194 222 225
f 194 225 226
f 194 226 195
f 196 227 228
f 196 228 229
f 196 229 197
f 196 201 227
f 197 229 230
f 197 230 215
f 199 231 200
f 200 231 232
f 200 232 227
f 200 227 201
f 202 233 204
f 203 234 208
f 203 207 235
f 203 235 236
f 203 236 234
f 204 237 205
f 204 233 237
f 205 237 238
f 205 238 239
f 205 239 240
f 205 240 241
f 205 241 206
f 206 241 242
f 206 242 235
f 206 235 207
f 208 234 243
f 208 243 209
f 209 243 244
f 209 244 210
f 210 244 245
f 210 245 211
f 211 245 212
f 212 245 246
f 212 246 247
f 212 247 248
f 212 248 213
f 213 248 249
f 213 249 214
f 215 230 250
f 215 250 251
f 215 251 252
f 215 252 223
f 215 223 216
f 216 223 219
f 220 224 253
f 223 252 254
f 223 254 255
f 223 255 256
f 223 256 257
f 223 257 224
f 224 257 258
f 224 258 259
f 224 259 260
f 224 260 253
f 227 261 262
f 227 262 228
f 227 232 261
f 228 262 263
f 228 263 264
f 228 264 229
f 229 264 230
f 230 264 250
f 231 265 232
f 232 265 261
f 234 266 244
f 234 244 243
f 234 236 266
f 235 242 267
f 235 267 268
f 235 268 236
f 236 268 269
f 236 269 270
f 236 270 266
f 240 271 272
f 240 272 273
f 240 273 241
f 241 273 274
f 241 274 242
f 242 274 275
f 242 275 267
f 244 266 276
f 244 276 277
f 244 277 245
f 245 277 278
f 245 278 246
f 246 279 247
f 246 278 280
f 246 280 281
f 246 281 279
f 247 279 282
f 247 282 249
f 247 249 248
f 250 264 283
f 250 283 251
f 251 283 254
f 251 254 252
f 254 283 284
f 254 284 285
f 254 285 286
f 254 286 255
f 255 286 256
f 256 287 257
f 256 286 288
f 256 288 289
f 256 289 290
f 256 290 287
f 257 287 291
f 257 291 292
f 257 292 258
f 261 293 294
f 261 294 262
f 261 265 293
f 262 294 295
f 262 295 263
f 263 295 296
f 263 296 297
f 263 297 264
f 264 297 283
f 266 270 298
f 266 298 276
f 267 299 268
f 267 275 300
f 267 300 301
f 267 301 299
f 268 299 269
f 269 302 303
f 269 303 298
f 269 298 270
f 269 299 304
f 269 304 305
f 269 305 302
f 271 306 307
f 271 307 272
f 272 308 273
f 272 307 309
f 272 309 308
f 273 308 274
f 274 308 275
f 275 308 310
f 275 310 311
f 275 311 301
f 275 301 300
f 276 298 278
f 276 278 277
f 278 298 303
f 278 303 302
f 278 302 312
f 278 312 313
f 278 313 280
f 279 314 282
f 279 281 314
f 280 313 315
f 280 315 281
f 281 315 316
f 281 316 317
f 281 317 314
f 283 297 284
f 284 297 318
f 284 318 319
f 284 319 285
f 285 319 320
f 285 320 321
f 285 321 286
f 286 321 322
f 286 322 288
f 287 290 323
f 287 323 324
f 287 324 291
f 288 322 289
f 289 325 290
f 289 322 310
f 289 310 307
f 289 307 325
f 290 325 323
f 293 326 294
f 294 326 327
f 294 327 328
f 294 328 295
f 295 328 329
f 295 329 330
f 295 330 331
f 295 331 296
f 296 331 357
f 296 357 332
f 296 332 318
f 296 318 297
f 299 301 304
f 301 311 333
f 301 333 334
f 301 334 304
f 302 305 312
f 304 334 305
f 305 335 312
f 305 334 336
f 305 336 335
f 306 337 307
f 307 337 338
f 307 338 339
f 307 339 340
f 307 340 325
f 307 310 309
f 308 309 310
f 310 341 342
f 310 342 311
f 310 322 343
f 310 343 341
f 311 342 333
f 312 335 344
f 312 344 313
f 313 344 315
f 315 344 345
f 315 345 346
f 315 346 347
f 315 347 316
f 318 332 348
f 318 348 320
f 318 320 319
f 320 348 349
f 320 349 350
f 320 350 351
f 320 351 343
f 320 343 321
f 321 343 322
f 323 325 340
f 327 352 328
f 328 352 329
f 329 352 353
f 329 353 330
f 330 353 354
f 330 354 355
f 330 355 356
f 330 356 357
f 330 357 331
f 332 357 358
f 332 358 359
f 332 359 360
f 332 360 349
f 332 349 348
f 333 361 336
f 333 336 334
f 333 342 362
f 333 362 361
f 335 336 363
f 335 363 364
f 335 364 344
f 336 361 363
f 337 365 338
f 338 365 339
f 341 366 342
f 341 343 351
f 341 351 366
f 342 366 362
f 344 364 367
f 344 367 345
f 345 368 346
f 345 367 368
f 349 360 350
f 350 369 370
f 350 370 371
f 350 371 351
f 350 360 369
f 351 371 366
f 355 372 356
f 356 372 373
f 356 373 357
f 357 373 358
f 358 373 359
f 359 373 374
f 359 374 375
f 359 375 376
f 359 376 370
f 359 370 369
f 359 369 360
f 361 362 377
f 361 377 378
f 361 378 363
f 362 366 377
f 363 379 364
f 363 378 379
f 364 379 367
f 366 371 377
f 367 379 380
f 367 380 381
f 367 381 382
f 367 382 368
f 370 376 383
f 370 383 384
f 370 384 377
f 370 377 371
f 372 385 373
f 373 385 386
f 373 386 387
f 373 387 374
f 374 387 375
f 375 383 376
f 375 387 388
f 375 388 393
f 375 393 383
f 377 384 378
f 378 389 379
f 378 384 389
f 379 389 390
f 379 390 380
f 380 390 391
f 380 391 392
f 380 392 381
f 383 393 384
f 384 393 389
f 387 394 388
f 388 394 390
f 388 390 389
f 388 389 393
f 390 394 391

