# https://github.com/mikedh/trimesh
v 0.07590184 10.83729093 15.21979964
v 0.09042125 10.83729093 15.21979964
v 0.07839902 10.83729093 15.21611515
v 0.07842343 10.83704681 15.21615833
v 0.07595878 10.83703778 15.21979964
v 0.11951703 10.83729093 15.19039571
v 0.15899194 10.76176248 15.21979964
v 0.15899194 10.79481634 15.19039571
v 0.08012345 10.83729093 15.21364251
v 0.08015599 10.83723668 15.21360797
v 0.08119716 10.83631449 15.21247097
v 0.08043255 10.83390960 15.21452909
v 0.07766695 10.83487698 15.21816753
v 0.07607266 10.83661285 15.21979964
v 0.10036116 10.83729093 15.19039571
v 0.15899194 10.74492815 15.21979964
v 0.15899194 10.77702367 15.19039571
v 0.08019666 10.83729093 15.21353889
v 0.08107515 10.83729093 15.21230689
v 0.08157133 10.83390960 15.21296319
v 0.08218139 10.83729093 15.21088203
v 0.08389769 10.83704681 15.20876633
v 0.08410918 10.83545560 15.20903979
v 0.08687478 10.82764419 15.20858210
v 0.08427186 10.82660447 15.21239037
v 0.08077419 10.83168550 15.21502420
v 0.07874878 10.83386439 15.21702476
v 0.07687794 10.83384631 15.21979964
v 0.10014154 10.83729093 15.19059433
v 0.10036929 10.83725476 15.19039571
v 0.15725937 10.74585033 15.21979964
v 0.15899194 10.74545252 15.21924121
v 0.15899194 10.77658066 15.19076704
v 0.15770674 10.77769270 15.19039571
v 0.08374314 10.83729093 15.20888435
v 0.08514221 10.83704681 15.20720043
v 0.08386515 10.83729093 15.20872891
v 0.08671210 10.83704681 15.20525743
v 0.08703746 10.83480465 15.20566618
v 0.08639486 10.83078141 15.20798049
v 0.08814370 10.82764419 15.20701620
v 0.08716760 10.82583599 15.20894768
v 0.08752551 10.82374752 15.20940823
v 0.08463789 10.82451600 15.21287971
v 0.08349912 10.82451600 15.21444562
v 0.08141678 10.82764419 15.21595971
v 0.08110769 10.82959704 15.21550491
v 0.07986316 10.82435326 15.21979964
v 0.09853098 10.83729093 15.19216887
v 0.10017407 10.83704681 15.19062887
v 0.09897836 10.83390960 15.19262943
v 0.09856352 10.83704681 15.19219478
v 0.10137792 10.83390960 15.19039571
v 0.15716176 10.74590457 15.21979964
v 0.15616126 10.74780319 15.21845538
v 0.15824360 10.74722456 15.21787680
v 0.15899194 10.74640183 15.21828842
v 0.15899194 10.77371467 15.19323967
v 0.15770674 10.77690614 15.19105776
v 0.15639715 10.77837982 15.19039571
v 0.08502019 10.83729093 15.20728390
v 0.08667956 10.83729093 15.20522001
v 0.08802982 10.83704681 15.20369440
v 0.09360170 10.82950663 15.19975949
v 0.09256866 10.82764419 15.20166506
v 0.08970545 10.82764419 15.20510487
v 0.08766379 10.83078141 15.20641459
v 0.09009589 10.82528449 15.20555968
v 0.09047007 10.82319602 15.20603175
v 0.09082796 10.82138782 15.20648655
v 0.08801356 10.82138782 15.21001848
v 0.08680157 10.82138782 15.21158439
v 0.08388956 10.82237329 15.21499253
v 0.08106701 10.82320506 15.21856188
v 0.08179095 10.82435326 15.21697006
v 0.07990384 10.82424477 15.21979964
v 0.09696923 10.83729093 15.19373766
v 0.09699363 10.83704681 15.19376068
v 0.10064585 10.83390960 15.19106352
v 0.09947454 10.83078141 15.19309287
v 0.09741660 10.83390960 15.19419246
v 0.10278513 10.82944334 15.19039571
v 0.15699094 10.74601306 15.21979964
v 0.15457511 10.74756812 15.21979964
v 0.15457511 10.74833660 15.21900805
v 0.15256598 10.75059685 15.21812434
v 0.15457511 10.74990974 15.21743639
v 0.15617753 10.75094945 15.21533507
v 0.15899194 10.74861687 15.21611803
v 0.15899194 10.74702565 15.21767530
v 0.15899194 10.77011635 15.19635422
v 0.14770990 10.78274662 15.19072387
v 0.14792139 10.78300881 15.19039571
v 0.08799729 10.83729093 15.20365699
v 0.09297537 10.83390960 15.19904849
v 0.09330074 10.83159510 15.19940831
v 0.08943703 10.83729093 15.20201624
v 0.09496823 10.83041073 15.19796906
v 0.09665200 10.82923540 15.19653268
v 0.09391893 10.82764419 15.20009915
v 0.09594433 10.83390960 15.19575837
v 0.09310552 10.82451600 15.20231848
v 0.09135669 10.82435326 15.20445145
v 0.09344715 10.82279821 15.20271859
v 0.09258494 10.82160480 15.20430177
v 0.09390266 10.82070974 15.20321945
v 0.09311365 10.81825059 15.20545605
v 0.09142176 10.81816923 15.20755736
v 0.09007963 10.81915469 15.20865119
v 0.08716760 10.81962483 15.21207085
v 0.08512594 10.82135165 15.21386704
v 0.08431252 10.82029386 15.21559990
v 0.08144931 10.82138782 15.21913470
v 0.08100194 10.82138782 15.21979964
v 0.09539121 10.83729093 15.19546476
v 0.09437445 10.83390960 15.19748259
v 0.09088490 10.83729093 15.20040427
v 0.09096624 10.83729093 15.20031504
v 0.10147553 10.83052826 15.19129093
v 0.09973483 10.82910883 15.19335482
v 0.10305355 10.82863869 15.19039571
v 0.15129705 10.74988261 15.21979964
v 0.15047551 10.75136534 15.21888715
v 0.14341509 10.76329944 15.21203056
v 0.14693716 10.76046057 15.21231841
v 0.13986861 10.78491646 15.19296910
v 0.15457511 10.75150095 15.21587048
v 0.15857709 10.75676281 15.20866270
v 0.15899194 10.75635596 15.20882390
v 0.15826800 10.75037987 15.21480544
v 0.15899194 10.74959330 15.21517676
v 0.14352896 10.78219512 15.19334618
v 0.15899194 10.76981800 15.19661904
v 0.14705104 10.78348798 15.19039571
v 0.09875060 10.82789734 15.19486603
v 0.09695296 10.82764419 15.19685220
v 0.09548882 10.82764419 15.19841810
v 0.09454525 10.82451600 15.20075257
v 0.09521226 10.82169521 15.20136857
v 0.09700176 10.82058317 15.20001568
v 0.09606634 10.81825059 15.20217743
v 0.09450459 10.81825059 15.20389302
v 0.09351222 10.81668650 15.20591661
v 0.09056767 10.81706622 15.20927007
v 0.08885951 10.81835004 15.21067190
v 0.08764752 10.81753636 15.21271564
v 0.08646807 10.81844950 15.21375477
v 0.08476805 10.81825059 15.21630513
v 0.08239288 10.81834100 15.21979964
v 0.10321624 10.82764419 15.19055403
v 0.10124778 10.82789734 15.19235021
v 0.10014154 10.82702036 15.19376068
v 0.10338705 10.82764419 15.19039571
v 0.14803527 10.75229656 15.21979964
v 0.14696157 10.75422229 15.21861369
v 0.12747220 10.78499783 15.20240484
v 0.12985550 10.78406660 15.20148659
v 0.13430486 10.78544988 15.19659313
v 0.12196540 10.79497004 15.19672554
v 0.13756665 10.78945503 15.19039571
v 0.13806283 10.78907531 15.19039571
v 0.13973033 10.78787286 15.19039571
v 0.14111313 10.78698684 15.19039571
v 0.14230884 10.78384962 15.19252869
v 0.15899194 10.75664527 15.20855620
v 0.14204855 10.78639918 15.19039571
v 0.14546489 10.78439208 15.19039571
v 0.09611515 10.82451600 15.19909743
v 0.09652185 10.82267164 15.19952921
v 0.09917358 10.82451600 15.19588502
v 0.09961282 10.82259931 15.19634846
v 0.10219947 10.81825059 15.19576700
v 0.09755488 10.81825059 15.20061152
v 0.09958842 10.81637911 15.19946875
v 0.09652998 10.81648760 15.20265814
v 0.09715631 10.81439913 15.20338064
v 0.09416295 10.81459803 15.20665350
v 0.09324380 10.81314243 15.20874042
v 0.09283709 10.81542980 15.20761205
v 0.09110453 10.81512241 15.20993212
v 0.08984374 10.81512241 15.21149803
v 0.08818438 10.81501392 15.21375477
v 0.08688291 10.81598130 15.21480255
v 0.08368620 10.81568295 15.21979964
v 0.08256369 10.81798841 15.21979964
v 0.10394017 10.82451600 15.19119594
v 0.10227268 10.82451600 15.19276184
v 0.10071093 10.82451600 15.19431911
v 0.09760369 10.82451600 15.19753152
v 0.10368802 10.82699323 15.19039571
v 0.14487109 10.75477379 15.21979964
v 0.12538987 10.78582056 15.20327702
v 0.12408027 10.78790903 15.20217167
v 0.11853280 10.79473497 15.19963283
v 0.12209554 10.79825192 15.19368584
v 0.12418602 10.79737494 15.19292304
v 0.12749660 10.79746535 15.19039571
v 0.13066078 10.79490675 15.19039571
v 0.13097801 10.79465361 15.19039571
v 0.10320810 10.82047468 15.19367433
v 0.10376936 10.81825059 15.19420110
v 0.10267939 10.81628870 15.19627937
v 0.10144299 10.81528515 15.19820221
v 0.10021474 10.81429064 15.20011642
v 0.09924678 10.81273559 15.20220334
v 0.09031552 10.81344079 15.21209388
v 0.09993818 10.81064712 15.20296614
v 0.09394333 10.81105396 15.20956079
v 0.09211316 10.81224738 15.21082734
v 0.08743603 10.81389284 15.21558263
v 0.08576040 10.81528515 15.21701037
v 0.08464603 10.81458899 15.21920666
v 0.08397903 10.81511337 15.21979964
v 0.10484307 10.82451600 15.19039571
v 0.10533111 10.81825059 15.19279926
v 0.14199161 10.75708828 15.21979964
v 0.12198980 10.78875888 15.20304962
v 0.11221258 10.79154350 15.20895631
v 0.11212311 10.79460840 15.20575541
v 0.11212311 10.79771850 15.20261208
v 0.11535235 10.79780891 15.19958677
v 0.11871175 10.78863230 15.20605190
v 0.12678080 10.79806206 15.19039571
v 0.11571839 10.80443596 15.19362251
v 0.11769498 10.80642498 15.19039571
v 0.11874428 10.80542143 15.19039571
v 0.12232330 10.80163325 15.19073537
v 0.12321805 10.80121736 15.19039571
v 0.12413720 10.80037655 15.19039571
v 0.12586165 10.79884863 15.19039571
v 0.10584356 10.81641527 15.19322816
v 0.10333825 10.81420023 15.19693567
v 0.10230522 10.81267230 15.19902259
v 0.10111764 10.81165971 15.20098861
v 0.09099064 10.81135232 15.21294880
v 0.09016910 10.81009562 15.21503572
v 0.08969732 10.81223833 15.21389582
v 0.10302915 10.81058383 15.19977388
v 0.10220761 10.80885700 15.20205654
v 0.10285834 10.80723867 15.20273874
v 0.10051571 10.80860385 15.20414921
v 0.09685535 10.80754606 15.20928158
v 0.09602567 10.80963453 15.20835470
v 0.09307298 10.80985151 15.21164771
v 0.08791595 10.81177724 15.21672828
v 0.08734656 10.81058383 15.21859354
v 0.08571160 10.81194902 15.21979964
v 0.10813738 10.81844046 15.19039571
v 0.14016957 10.75855292 15.21979964
v 0.13628959 10.76167207 15.21979964
v 0.13587475 10.76200658 15.21979964
v 0.11242407 10.78860518 15.21231265
v 0.10916228 10.79162487 15.21216872
v 0.10596557 10.79468977 15.21209100
v 0.10902400 10.79463552 15.20889299
v 0.11003263 10.79558483 15.20680319
v 0.13557379 10.76225069 15.21979964
v 0.10895080 10.79767330 15.20570648
v 0.11108194 10.79665166 15.20469037
v 0.11003263 10.79876726 15.20361956
v 0.10899960 10.80085573 15.20262360
v 0.11112260 10.79985217 15.20157295
v 0.11326188 10.79884863 15.20052229
v 0.11222072 10.80093709 15.19958677
v 0.10926803 10.80739236 15.19660176
v 0.11462028 10.80958932 15.19039571
v 0.12254292 10.80185023 15.19039571
v 0.10900773 10.81692157 15.19039571
v 0.10934123 10.81639719 15.19039571
v 0.11020345 10.81512241 15.19039571
v 0.11088671 10.81417311 15.19039571
v 0.10869050 10.81296161 15.19296910
v 0.10660003 10.81432680 15.19389885
v 0.10542058 10.81278079 15.19598577
v 0.10422487 10.81167779 15.19787406
v 0.09199115 10.80892933 15.21383249
v 0.09090930 10.80800715 15.21602592
v 0.08955904 10.80897454 15.21699310
v 0.10626654 10.81069232 15.19672554
v 0.10533924 10.80885700 15.19901395
v 0.10602251 10.80727483 15.19964435
v 0.10376936 10.80885700 15.20049063
v 0.10490814 10.80620799 15.20164491
v 0.10588423 10.80399295 15.20263799
v 0.10379376 10.80515020 15.20374910
v 0.10283393 10.80406528 15.20583313
v 0.09982431 10.80420993 15.20910312
v 0.09893769 10.80629840 15.20810140
v 0.09387826 10.80776304 15.21262928
v 0.09495196 10.80869427 15.21046465
v 0.09788838 10.80534006 15.21023724
v 0.09596873 10.80647018 15.21137137
v 0.09016097 10.80700360 15.21811571
v 0.08787527 10.80864002 15.21979964
v 0.08767192 10.80894741 15.21979964
v 0.08582547 10.81176820 15.21979964
v 0.10311862 10.79183282 15.21869429
v 0.13253976 10.76491778 15.21979964
v 0.10296408 10.79482538 15.21537537
v 0.10280953 10.80091901 15.20893329
v 0.10589236 10.79773658 15.20887859
v 0.10694167 10.79564811 15.21000409
v 0.10794217 10.79666071 15.20784232
v 0.10686032 10.79874918 15.20679167
v 0.10585983 10.80083764 15.20574102
v 0.11013024 10.80200393 15.20053381
v 0.10911348 10.80409240 15.19960117
v 0.10788522 10.80602717 15.19903410
v 0.10742971 10.80860385 15.19730988
v 0.10835700 10.80948083 15.19582169
v 0.10957712 10.81087315 15.19373477
v 0.11367672 10.81065616 15.19039571
v 0.11178147 10.81297065 15.19039571
v 0.11309920 10.81133423 15.19039571
v 0.11286331 10.81111725 15.19074977
v 0.09299164 10.80670525 15.21471620
v 0.09306485 10.80361323 15.21787392
v 0.09098251 10.80491513 15.21925848
v 0.10702301 10.80518636 15.20055107
v 0.10376936 10.80197681 15.20684637
v 0.09981617 10.80107271 15.21222917
v 0.09683908 10.80438171 15.21241627
v 0.08970545 10.80608142 15.21979964
v 0.10428995 10.78997037 15.21979964
v 0.10118271 10.79289965 15.21979964
v 0.09998699 10.79499716 15.21872308
v 0.10207746 10.79392128 15.21746517
v 0.10098748 10.79595551 15.21646633
v 0.09598500 10.80335104 15.21450319
v 0.09685535 10.80127161 15.21557687
v 0.09395147 10.80152476 15.21901093
v 0.09268255 10.80235653 15.21979964
v 0.09162511 10.80364035 15.21979964
v 0.09017723 10.80547567 15.21979964
v 0.09894582 10.80012341 15.21431896
v 0.09789652 10.80221187 15.21336618
v 0.09990565 10.79803494 15.21546461
v 0.09979177 10.79442758 15.21979964
v 0.09822188 10.79615441 15.21979964
v 0.09484622 10.79988834 15.21979964
f 1 2 6
f 1 6 15
f 1 15 29
f 1 29 49
f 1 49 77
f 1 77 115
f 1 115 118
f 1 118 117
f 1 117 97
f 1 97 94
f 1 94 62
f 1 62 61
f 1 61 37
f 1 37 35
f 1 35 21
f 1 21 19
f 1 19 18
f 1 18 9
f 1 9 3
f 1 3 4
f 1 4 5
f 1 5 14
f 1 14 28
f 1 28 48
f 1 48 76
f 1 76 114
f 1 114 149
f 1 149 185
f 1 185 184
f 1 184 213
f 1 213 247
f 1 247 296
f 1 296 295
f 1 295 294
f 1 294 323
f 1 323 334
f 1 334 333
f 1 333 332
f 1 332 340
f 1 340 339
f 1 339 338
f 1 338 325
f 1 325 324
f 1 324 298
f 1 298 257
f 1 257 251
f 1 251 250
f 1 250 249
f 1 249 216
f 1 216 191
f 1 191 154
f 1 154 122
f 1 122 84
f 1 84 83
f 1 83 54
f 1 54 31
f 1 31 16
f 1 16 7
f 1 7 2
f 2 7 8
f 2 8 6
f 3 9 10
f 3 10 4
f 4 11 12
f 4 12 13
f 4 13 14
f 4 14 5
f 4 10 11
f 6 8 17
f 6 17 34
f 6 34 60
f 6 60 93
f 6 93 134
f 6 134 167
f 6 167 166
f 6 166 163
f 6 163 162
f 6 162 161
f 6 161 160
f 6 160 199
f 6 199 198
f 6 198 197
f 6 197 223
f 6 223 230
f 6 230 229
f 6 229 228
f 6 228 267
f 6 267 226
f 6 226 225
f 6 225 266
f 6 266 312
f 6 312 314
f 6 314 313
f 6 313 271
f 6 271 270
f 6 270 269
f 6 269 268
f 6 268 248
f 6 248 214
f 6 214 190
f 6 190 153
f 6 153 121
f 6 121 82
f 6 82 53
f 6 53 30
f 6 30 15
f 7 16 32
f 7 32 57
f 7 57 90
f 7 90 89
f 7 89 131
f 7 131 129
f 7 129 165
f 7 165 133
f 7 133 91
f 7 91 58
f 7 58 33
f 7 33 17
f 7 17 8
f 9 18 10
f 10 18 19
f 10 19 11
f 11 20 12
f 11 19 21
f 11 21 22
f 11 22 23
f 11 23 24
f 11 24 25
f 11 25 20
f 12 20 25
f 12 25 26
f 12 26 27
f 12 27 13
f 13 27 28
f 13 28 14
f 15 30 29
f 16 31 32
f 17 33 34
f 21 35 22
f 22 36 23
f 22 35 37
f 22 37 36
f 23 36 38
f 23 38 39
f 23 39 40
f 23 40 24
f 24 40 67
f 24 67 41
f 24 41 42
f 24 42 25
f 25 42 43
f 25 43 44
f 25 44 45
f 25 45 46
f 25 46 47
f 25 47 26
f 26 28 27
f 26 47 48
f 26 48 28
f 29 30 50
f 29 50 51
f 29 51 52
f 29 52 49
f 30 53 50
f 31 54 55
f 31 55 56
f 31 56 57
f 31 57 32
f 33 58 59
f 33 59 34
f 34 59 60
f 36 37 61
f 36 61 62
f 36 62 38
f 38 62 94
f 38 94 63
f 38 63 39
f 39 63 64
f 39 64 65
f 39 65 66
f 39 66 67
f 39 67 40
f 41 66 68
f 41 68 42
f 41 67 66
f 42 68 43
f 43 69 70
f 43 70 71
f 43 71 72
f 43 72 44
f 43 68 69
f 44 72 73
f 44 73 45
f 45 73 74
f 45 74 75
f 45 75 46
f 46 75 74
f 46 74 48
f 46 48 47
f 48 74 76
f 49 52 78
f 49 78 77
f 50 53 79
f 50 79 51
f 51 79 80
f 51 80 81
f 51 81 78
f 51 78 52
f 53 82 79
f 54 83 55
f 55 83 84
f 55 84 85
f 55 85 86
f 55 86 87
f 55 87 88
f 55 88 56
f 56 89 90
f 56 90 57
f 56 88 89
f 58 91 59
f 59 91 60
f 60 91 92
f 60 92 93
f 63 95 96
f 63 96 64
f 63 94 97
f 63 97 95
f 64 98 99
f 64 99 100
f 64 100 65
f 64 96 101
f 64 101 98
f 65 100 102
f 65 102 103
f 65 103 68
f 65 68 66
f 68 103 69
f 69 103 102
f 69 102 104
f 69 104 105
f 69 105 70
f 70 106 107
f 70 107 108
f 70 108 109
f 70 109 71
f 70 105 106
f 71 109 110
f 71 110 72
f 72 110 111
f 72 111 73
f 73 111 112
f 73 112 74
f 74 112 113
f 74 113 114
f 74 114 76
f 77 78 115
f 78 81 101
f 78 101 116
f 78 116 117
f 78 117 118
f 78 118 115
f 79 82 119
f 79 119 80
f 80 119 120
f 80 120 81
f 81 120 99
f 81 99 101
f 82 121 120
f 82 120 119
f 84 122 86
f 84 86 85
f 86 122 123
f 86 123 124
f 86 124 125
f 86 125 126
f 86 126 87
f 87 126 127
f 87 127 88
f 88 128 129
f 88 129 130
f 88 130 131
f 88 131 89
f 88 127 126
f 88 126 132
f 88 132 128
f 91 133 92
f 92 132 134
f 92 134 93
f 92 133 132
f 95 116 96
f 95 97 116
f 96 116 101
f 97 117 116
f 98 101 99
f 99 120 135
f 99 135 136
f 99 136 137
f 99 137 100
f 100 137 138
f 100 138 102
f 102 138 104
f 104 139 106
f 104 106 105
f 104 138 139
f 106 139 140
f 106 140 141
f 106 141 142
f 106 142 107
f 107 142 143
f 107 143 108
f 108 143 144
f 108 144 109
f 109 144 145
f 109 145 110
f 110 145 146
f 110 146 147
f 110 147 112
f 110 112 111
f 112 114 113
f 112 147 148
f 112 148 114
f 114 148 149
f 120 121 150
f 120 150 151
f 120 151 152
f 120 152 135
f 121 153 150
f 122 154 155
f 122 155 123
f 123 155 124
f 124 155 156
f 124 156 157
f 124 157 158
f 124 158 126
f 124 126 125
f 126 158 159
f 126 159 160
f 126 160 161
f 126 161 162
f 126 162 163
f 126 163 164
f 126 164 132
f 128 133 165
f 128 165 129
f 128 132 133
f 129 131 130
f 132 164 166
f 132 166 167
f 132 167 134
f 135 152 136
f 136 152 138
f 136 138 137
f 138 152 168
f 138 168 169
f 138 169 139
f 139 169 140
f 140 169 170
f 140 170 171
f 140 171 172
f 140 172 173
f 140 173 141
f 141 173 174
f 141 174 175
f 141 175 142
f 142 175 143
f 143 175 176
f 143 176 177
f 143 177 178
f 143 178 179
f 143 179 180
f 143 180 144
f 144 146 145
f 144 180 181
f 144 181 146
f 146 181 182
f 146 182 183
f 146 183 147
f 147 183 148
f 148 183 184
f 148 184 185
f 148 185 149
f 150 153 186
f 150 186 187
f 150 187 152
f 150 152 151
f 152 187 188
f 152 188 170
f 152 170 189
f 152 189 168
f 153 190 186
f 154 191 155
f 155 191 192
f 155 192 156
f 156 192 193
f 156 193 194
f 156 194 158
f 156 158 157
f 158 194 159
f 159 194 195
f 159 195 196
f 159 196 197
f 159 197 198
f 159 198 199
f 159 199 160
f 163 166 164
f 168 189 169
f 169 189 170
f 170 188 200
f 170 200 172
f 170 172 171
f 172 201 202
f 172 202 173
f 172 200 201
f 173 202 174
f 174 202 203
f 174 203 204
f 174 204 175
f 175 204 205
f 175 205 176
f 176 178 177
f 176 205 178
f 178 206 180
f 178 180 179
f 178 205 207
f 178 207 208
f 178 208 209
f 178 209 206
f 180 206 181
f 181 206 182
f 182 206 210
f 182 210 183
f 183 210 211
f 183 211 184
f 184 211 212
f 184 212 213
f 186 214 215
f 186 215 200
f 186 200 187
f 186 190 214
f 187 200 188
f 191 216 217
f 191 217 192
f 192 217 194
f 192 194 193
f 194 218 219
f 194 219 220
f 194 220 221
f 194 221 195
f 194 217 222
f 194 222 218
f 195 223 197
f 195 197 196
f 195 221 224
f 195 224 225
f 195 225 226
f 195 226 227
f 195 227 228
f 195 228 229
f 195 229 230
f 195 230 223
f 200 215 201
f 201 215 231
f 201 231 202
f 202 231 232
f 202 232 203
f 203 232 204
f 204 232 233
f 204 233 205
f 205 233 234
f 205 234 207
f 206 209 235
f 206 235 236
f 206 236 237
f 206 237 210
f 207 234 238
f 207 238 239
f 207 239 240
f 207 240 241
f 207 241 242
f 207 242 243
f 207 243 208
f 208 243 244
f 208 244 235
f 208 235 209
f 210 212 211
f 210 237 236
f 210 236 245
f 210 245 246
f 210 246 247
f 210 247 212
f 212 247 213
f 214 248 215
f 215 248 231
f 216 249 217
f 217 249 250
f 217 250 251
f 217 251 222
f 218 252 253
f 218 253 254
f 218 254 255
f 218 255 256
f 218 256 219
f 218 222 257
f 218 257 252
f 219 256 258
f 219 258 259
f 219 259 220
f 220 259 258
f 220 258 260
f 220 260 261
f 220 261 262
f 220 262 263
f 220 263 221
f 221 263 264
f 221 264 224
f 222 251 257
f 224 264 265
f 224 265 266
f 224 266 225
f 226 267 227
f 227 267 228
f 231 268 269
f 231 269 270
f 231 270 271
f 231 271 272
f 231 272 273
f 231 273 232
f 231 248 268
f 232 273 274
f 232 274 275
f 232 275 238
f 232 238 233
f 233 238 234
f 235 244 236
f 236 244 276
f 236 276 277
f 236 277 278
f 236 278 246
f 236 246 245
f 238 275 279
f 238 279 280
f 238 280 281
f 238 281 282
f 238 282 240
f 238 240 239
f 240 281 283
f 240 283 284
f 240 284 285
f 240 285 286
f 240 286 287
f 240 287 288
f 240 288 242
f 240 242 241
f 240 282 281
f 242 289 290
f 242 290 243
f 242 288 287
f 242 287 291
f 242 291 292
f 242 292 289
f 243 290 244
f 244 290 289
f 244 289 276
f 246 278 293
f 246 293 294
f 246 294 295
f 246 295 296
f 246 296 247
f 252 297 253
f 252 257 298
f 252 298 297
f 253 297 254
f 254 299 300
f 254 300 301
f 254 301 302
f 254 302 255
f 254 297 299
f 255 302 303
f 255 303 256
f 256 303 258
f 258 301 304
f 258 304 305
f 258 305 284
f 258 284 261
f 258 261 260
f 258 303 301
f 261 284 262
f 262 284 306
f 262 306 263
f 263 306 264
f 264 306 307
f 264 307 265
f 265 307 308
f 265 308 281
f 265 281 309
f 265 309 279
f 265 279 310
f 265 310 311
f 265 311 312
f 265 312 266
f 271 313 272
f 272 314 315
f 272 315 311
f 272 311 279
f 272 279 274
f 272 274 273
f 272 313 314
f 274 279 275
f 276 289 277
f 277 289 316
f 277 316 317
f 277 317 318
f 277 318 293
f 277 293 278
f 279 311 310
f 279 309 280
f 280 309 281
f 281 308 319
f 281 319 284
f 281 284 283
f 284 305 320
f 284 320 285
f 284 319 307
f 284 307 306
f 285 320 286
f 286 320 300
f 286 300 287
f 287 300 321
f 287 321 291
f 289 292 316
f 291 321 322
f 291 322 292
f 292 322 316
f 293 318 323
f 293 323 294
f 297 324 325
f 297 325 326
f 297 326 327
f 297 327 299
f 297 298 324
f 299 327 326
f 299 326 328
f 299 328 321
f 299 321 300
f 300 320 305
f 300 305 304
f 300 304 301
f 301 303 302
f 307 319 308
f 311 315 312
f 312 315 314
f 316 322 329
f 316 329 330
f 316 330 317
f 317 330 331
f 317 331 332
f 317 332 333
f 317 333 318
f 318 333 334
f 318 334 323
f 321 335 330
f 321 330 336
f 321 336 322
f 321 328 337
f 321 337 335
f 322 336 330
f 322 330 329
f 325 338 326
f 326 337 328
f 326 338 339
f 326 339 340
f 326 340 331
f 326 331 330
f 326 330 337
f 330 335 337
f 331 340 332

