# https://github.com/mikedh/trimesh
v 0.21721573 10.68751070 15.33275117
v 0.21408379 10.68755082 15.33275117
v 0.24853127 10.68790382 15.32336362
v 0.24863440 10.68802015 15.32666180
v 0.24766044 10.68816858 15.32865326
v 0.21721573 10.68783162 15.33545349
v 0.24853127 10.68815253 15.32097491
v 0.21050498 10.68814852 15.33640479
v 0.21050498 10.68812446 15.33599187
v 0.21095186 10.68791987 15.33275117
v 0.21050498 10.68800411 15.33227552
v 0.21050498 10.68816457 15.33035201
v 0.21050498 10.69208379 15.30225729
v 0.24952433 10.69019438 15.30225729
v 0.24952433 10.68817259 15.32098536
v 0.24952433 10.68797603 15.32336362
v 0.24952433 10.68799208 15.32454490
v 0.24952433 10.68804823 15.32622274
v 0.24952433 10.68834108 15.32791104
v 0.24863440 10.68860985 15.32966206
v 0.23042716 10.69151015 15.34655549
v 0.22034767 10.69075599 15.34816015
v 0.22034767 10.68794393 15.33519737
v 0.21733795 10.69083221 15.34868807
v 0.21392338 10.69082017 15.34869852
v 0.21050498 10.68831299 15.33737177
v 0.24952433 10.68892675 15.31396560
v 0.21050498 10.68798806 15.33275117
v 0.21050498 10.70644894 15.30225729
v 0.24952433 10.71560316 15.30225729
v 0.24952433 10.68841328 15.32819329
v 0.24853127 10.68963277 15.33275117
v 0.23287159 10.69172677 15.34602234
v 0.23287159 10.69307464 15.34841104
v 0.22952959 10.69228838 15.34811834
v 0.22034767 10.69159039 15.34972823
v 0.21846468 10.69145800 15.34991640
v 0.21637545 10.69135370 15.35006275
v 0.21095186 10.69080413 15.34805039
v 0.21050498 10.69069983 15.34765314
v 0.21050498 10.69008607 15.34528012
v 0.21485914 10.69135370 15.35006275
v 0.21276991 10.69146202 15.34993731
v 0.21050498 10.72008400 15.35565556
v 0.24952433 10.72848806 15.35565556
v 0.24952433 10.69001787 15.33270413
v 0.24952433 10.69045914 15.33374429
v 0.24952433 10.69415373 15.34173103
v 0.24735107 10.69442650 15.34392111
v 0.24110629 10.69440244 15.34704159
v 0.23913547 10.69410558 15.34743883
v 0.23573235 10.69383681 15.34845808
v 0.23450631 10.69453080 15.35000526
v 0.23287159 10.69433424 15.35018297
v 0.22974348 10.69400530 15.35051227
v 0.22347960 10.69348381 15.35103496
v 0.22034767 10.69315887 15.35121790
v 0.22034767 10.69518869 15.35278598
v 0.21050498 10.69083622 15.34797198
v 0.21721573 10.69526490 15.35277030
v 0.21392338 10.69269755 15.35087292
v 0.21095186 10.69177892 15.34961847
v 0.21050498 10.69167062 15.34931530
v 0.21095186 10.69334341 15.35071612
v 0.21050498 10.69343968 15.35065862
v 0.21050498 10.70223287 15.35565556
v 0.24952433 10.71096588 15.35565556
v 0.24952433 10.69490387 15.34318412
v 0.24943648 10.69487579 15.34321025
v 0.24829447 10.69620761 15.34515467
v 0.24539934 10.69545345 15.34593871
v 0.24319552 10.69485573 15.34647708
v 0.24198094 10.69624772 15.34828037
v 0.23913547 10.69567006 15.34900691
v 0.24076254 10.69764372 15.35000526
v 0.23913547 10.69723455 15.35028228
v 0.23573235 10.69609929 15.35064294
v 0.23603026 10.70416640 15.35565556
v 0.23336048 10.70303516 15.35565556
v 0.23287159 10.69826550 15.35278598
v 0.23287159 10.69611935 15.35142698
v 0.22969382 10.69636405 15.35222670
v 0.22661154 10.69571820 15.35233646
v 0.22347960 10.69534113 15.35259781
v 0.22347960 10.69690962 15.35353343
v 0.22347960 10.70051194 15.35565556
v 0.22237961 10.70047182 15.35565556
v 0.22034767 10.70042769 15.35565556
v 0.21408379 10.69560989 15.35260304
v 0.21935079 10.70051194 15.35565556
v 0.21721573 10.70074059 15.35565556
v 0.21660462 10.70086495 15.35565556
v 0.21408379 10.70137842 15.35565556
v 0.21050498 10.69187520 15.34953483
v 0.21095186 10.70211653 15.35565556
v 0.23917748 10.70574693 15.35565556
v 0.24714864 10.69753942 15.34694228
v 0.24952433 10.69654056 15.34477833
v 0.24952433 10.69498410 15.34326775
v 0.24539934 10.69702194 15.34735520
v 0.23276465 10.70282256 15.35565556
v 0.23069833 10.69785633 15.35301073
v 0.22661154 10.69728670 15.35334526
v 0.22661154 10.70101738 15.35565556
v 0.22590494 10.70089302 15.35565556
v 0.22988479 10.70189188 15.35565556
v 0.22974348 10.70184776 15.35565556
f 1 2 3
f 1 3 4
f 1 4 5
f 1 5 6
f 1 6 2
f 2 7 3
f 2 6 8
f 2 8 9
f 2 9 10
f 2 10 11
f 2 11 12
f 2 12 13
f 2 13 14
f 2 14 7
f 3 7 15
f 3 15 16
f 3 16 17
f 3 17 18
f 3 18 4
f 4 18 5
f 5 18 19
f 5 19 20
f 5 20 21
f 5 21 22
f 5 22 23
f 5 23 6
f 6 23 22
f 6 22 24
f 6 24 25
f 6 25 26
f 6 26 8
f 7 14 27
f 7 27 15
f 8 26 41
f 8 41 40
f 8 40 59
f 8 59 63
f 8 63 94
f 8 94 65
f 8 65 66
f 8 66 44
f 8 44 29
f 8 29 13
f 8 13 12
f 8 12 11
f 8 11 28
f 8 28 9
f 9 28 10
f 10 28 11
f 13 29 30
f 13 30 14
f 14 30 45
f 14 45 67
f 14 67 98
f 14 98 99
f 14 99 68
f 14 68 48
f 14 48 47
f 14 47 46
f 14 46 31
f 14 31 19
f 14 19 18
f 14 18 17
f 14 17 16
f 14 16 15
f 14 15 27
f 19 31 20
f 20 31 32
f 20 32 21
f 21 33 34
f 21 34 35
f 21 35 36
f 21 36 22
f 21 32 33
f 22 36 37
f 22 37 38
f 22 38 24
f 24 38 25
f 25 39 40
f 25 40 41
f 25 41 26
f 25 38 42
f 25 42 43
f 25 43 39
f 29 44 30
f 30 44 45
f 31 46 32
f 32 46 47
f 32 47 48
f 32 48 49
f 32 49 33
f 33 49 50
f 33 50 51
f 33 51 34
f 34 51 52
f 34 52 53
f 34 53 54
f 34 54 36
f 34 36 35
f 36 54 55
f 36 55 37
f 37 55 56
f 37 56 57
f 37 57 38
f 38 57 58
f 38 58 42
f 39 59 40
f 39 43 59
f 42 58 60
f 42 60 61
f 42 61 43
f 43 62 63
f 43 63 59
f 43 61 64
f 43 64 65
f 43 65 62
f 44 66 95
f 44 95 93
f 44 93 92
f 44 92 91
f 44 91 90
f 44 90 88
f 44 88 87
f 44 87 86
f 44 86 105
f 44 105 104
f 44 104 107
f 44 107 106
f 44 106 101
f 44 101 79
f 44 79 78
f 44 78 96
f 44 96 67
f 44 67 45
f 48 68 69
f 48 69 49
f 49 69 70
f 49 70 71
f 49 71 72
f 49 72 50
f 50 72 73
f 50 73 74
f 50 74 53
f 50 53 51
f 51 53 52
f 53 75 76
f 53 76 77
f 53 77 78
f 53 78 79
f 53 79 80
f 53 80 81
f 53 81 82
f 53 82 54
f 53 74 75
f 54 82 83
f 54 83 55
f 55 83 84
f 55 84 56
f 56 84 57
f 57 84 58
f 58 84 85
f 58 85 86
f 58 86 87
f 58 87 88
f 58 88 60
f 60 89 61
f 60 88 90
f 60 90 91
f 60 91 92
f 60 92 93
f 60 93 89
f 61 89 64
f 62 94 63
f 62 65 94
f 64 89 66
f 64 66 65
f 66 89 95
f 67 96 76
f 67 76 75
f 67 75 97
f 67 97 98
f 68 99 69
f 69 99 70
f 70 99 98
f 70 98 97
f 70 97 71
f 71 97 100
f 71 100 72
f 72 100 73
f 73 100 75
f 73 75 74
f 75 100 97
f 76 96 78
f 76 78 77
f 79 101 80
f 80 102 81
f 80 101 102
f 81 102 82
f 82 102 103
f 82 103 83
f 83 103 84
f 84 103 104
f 84 104 105
f 84 105 85
f 85 105 86
f 89 93 95
f 101 106 102
f 102 106 107
f 102 107 103
f 103 107 104

