# https://github.com/mikedh/trimesh
v 0.29443043 10.73361847 15.26292188
v 0.29443043 10.73479200 15.26043089
v 0.29500176 10.73415939 15.26292188
v 0.29443043 10.75243167 15.26292188
v 0.29443043 10.73567215 15.25864116
v 0.29537650 10.73697404 15.25787014
v 0.29768024 10.73781752 15.26072395
v 0.29980582 10.73881685 15.26292188
v 0.29764952 10.73671733 15.26292188
v 0.29443043 10.77604904 15.22728061
v 0.34445534 10.82728111 15.26292188
v 0.29443043 10.73634143 15.25736426
v 0.29443043 10.73790920 15.25443370
v 0.29668502 10.73880768 15.25680258
v 0.29720720 10.73826676 15.25888886
v 0.29924678 10.73936695 15.26072395
v 0.30034029 10.74140229 15.25889583
v 0.30075803 10.74093471 15.26072395
v 0.30130479 10.74042129 15.26292188
v 0.29443043 10.75920700 15.22728061
v 0.32901722 10.82728111 15.22728061
v 0.35718426 10.82728111 15.26292188
v 0.29443043 10.73910107 15.25246255
v 0.29602155 10.73947697 15.25446161
v 0.29756352 10.74104474 15.25446161
v 0.29979968 10.74197073 15.25680955
v 0.30283447 10.74208991 15.26292188
v 0.30158738 10.74330929 15.25796434
v 0.30335665 10.74464785 15.25912261
v 0.30373753 10.74422611 15.26072395
v 0.29473759 10.75950038 15.22728061
v 0.29443043 10.75669490 15.22994603
v 0.34297480 10.82728111 15.22728061
v 0.35659450 10.82728111 15.26072395
v 0.35715354 10.82718943 15.26292188
v 0.29443043 10.73979786 15.25139498
v 0.29642086 10.74218159 15.25078445
v 0.29709048 10.74152148 15.25287422
v 0.29932051 10.74305257 15.25418949
v 0.30074575 10.74406108 15.25505121
v 0.30406928 10.74347431 15.26292188
v 0.30283447 10.74526212 15.25703632
v 0.30543923 10.74630730 15.26061929
v 0.30410613 10.74627063 15.25788409
v 0.30964739 10.75400861 15.25594085
v 0.30583240 10.74555550 15.26292188
v 0.29626728 10.76115066 15.22728061
v 0.29667888 10.75761173 15.23144272
v 0.29459630 10.75653904 15.23028444
v 0.29443043 10.75046968 15.23667935
v 0.34346627 10.82728111 15.22818769
v 0.34362599 10.82708858 15.22863426
v 0.34185058 10.82471401 15.22728061
v 0.35633648 10.82665768 15.26072395
v 0.35607846 10.82728111 15.25905632
v 0.35701839 10.82684104 15.26292188
v 0.35656379 10.82609841 15.26231832
v 0.29443043 10.74104474 15.24952849
v 0.29744064 10.74427195 15.24922846
v 0.29790754 10.74318093 15.25162873
v 0.30016828 10.74471202 15.25296493
v 0.30194983 10.74603225 15.25414762
v 0.30370682 10.74734331 15.25533032
v 0.30912521 10.75463205 15.25385108
v 0.30678461 10.74740749 15.26158917
v 0.30999142 10.75671324 15.25215902
v 0.31039073 10.75565889 15.25472327
v 0.31257160 10.75742836 15.25642579
v 0.31171769 10.75573224 15.25752126
v 0.31001599 10.75356854 15.25759104
v 0.30706720 10.74705909 15.26292188
v 0.29763109 10.75970208 15.23034375
v 0.30073346 10.76601899 15.22728061
v 0.30280990 10.76718336 15.22844237
v 0.30369453 10.76616569 15.23052866
v 0.30060445 10.75989462 15.23363366
v 0.29749594 10.75362354 15.23676657
v 0.29650687 10.75153319 15.23800858
v 0.29443043 10.75042383 15.23673518
v 0.34381029 10.82728111 15.22883660
v 0.34417889 10.82579586 15.23072054
v 0.34303009 10.82465900 15.22957273
v 0.34368128 10.82370550 15.23168344
v 0.34115024 10.82326543 15.22728061
v 0.35539041 10.82451231 15.26072395
v 0.35427234 10.82431977 15.25745498
v 0.35563001 10.82728111 15.25765384
v 0.35694467 10.82665768 15.26292188
v 0.35664364 10.82594255 15.26292188
v 0.35636106 10.82532828 15.26292188
v 0.35597403 10.82450314 15.26292188
v 0.29443043 10.74131978 15.24913077
v 0.29443043 10.74501458 15.24382087
v 0.29701676 10.74785673 15.24359061
v 0.29982425 10.74823263 15.24721893
v 0.30047544 10.74749000 15.24930521
v 0.29967067 10.74525295 15.25132870
v 0.30943237 10.75738252 15.25007274
v 0.31053817 10.75244084 15.26089490
v 0.31272518 10.75407279 15.26292188
v 0.31020643 10.75958289 15.24819578
v 0.31118322 10.75875775 15.25133916
v 0.31212315 10.75800596 15.25446161
v 0.31286648 10.76014216 15.25260559
v 0.31629444 10.75973876 15.26130657
v 0.31300163 10.75684160 15.25851556
v 0.30225700 10.76770595 15.22728061
v 0.30351023 10.76915453 15.22728061
v 0.30639759 10.76355274 15.23734920
v 0.30356552 10.76317684 15.23380461
v 0.30268703 10.76109565 15.23500126
v 0.29958466 10.75479708 15.23808882
v 0.30365767 10.76932873 15.22728061
v 0.30609042 10.77229923 15.22728061
v 0.30650817 10.77281265 15.22728061
v 0.30663717 10.77264762 15.22762251
v 0.30949995 10.77297768 15.23112523
v 0.29843587 10.75272506 15.23909358
v 0.29728092 10.75070805 15.24009486
v 0.29534578 10.74952535 15.23903428
v 0.29443043 10.74898442 15.23854585
v 0.34437547 10.82728111 15.22992859
v 0.34462735 10.82465900 15.23265332
v 0.34567785 10.82728111 15.23255563
v 0.34421575 10.82266032 15.23377321
v 0.34105195 10.82273367 15.22758763
v 0.34096594 10.82289870 15.22728061
v 0.35395903 10.82139511 15.26096468
v 0.35369486 10.82244029 15.25840392
v 0.35334469 10.82315541 15.25631764
v 0.35376244 10.82540163 15.25446161
v 0.35454878 10.82728111 15.25446161
v 0.35347370 10.82601590 15.25280794
v 0.35445049 10.82138594 15.26292188
v 0.35347370 10.81976316 15.26217179
v 0.29443043 10.74640815 15.24193693
v 0.29486661 10.74684822 15.24193693
v 0.29643315 10.74846183 15.24193693
v 0.29790754 10.75002043 15.24193693
v 0.30034029 10.75391693 15.24017859
v 0.30310477 10.75432950 15.24389064
v 0.30971496 10.76018800 15.24645837
v 0.30887333 10.75801513 15.24819578
v 0.31345624 10.75623649 15.26072395
v 0.31404600 10.75582392 15.26292188
v 0.31238116 10.76083894 15.25051930
v 0.31583984 10.76036219 15.25921680
v 0.31591970 10.76651408 15.24966106
v 0.32226573 10.77578316 15.24948663
v 0.32247461 10.77236341 15.25526054
v 0.32219201 10.76963128 15.25901097
v 0.31649717 10.75914282 15.26292188
v 0.31548967 10.75774925 15.26292188
v 0.31747395 10.76183828 15.26064720
v 0.31908350 10.76332353 15.26207410
v 0.30822829 10.76480879 15.23856329
v 0.30714092 10.76266342 15.23943548
v 0.30344880 10.76020634 15.23709103
v 0.30411842 10.76203998 15.23589787
v 0.31131837 10.77422456 15.23232537
v 0.30682147 10.77321605 15.22728061
v 0.31032315 10.77506804 15.23004372
v 0.31241187 10.77642494 15.23143573
v 0.29443043 10.74729747 15.24073679
v 0.29443043 10.74797592 15.23984018
v 0.34617546 10.82476902 15.23591881
v 0.34678979 10.82728111 15.23497684
v 0.34686351 10.82365966 15.23880401
v 0.34568400 10.82138594 15.23880401
v 0.34454135 10.82152346 15.23595718
v 0.34396387 10.81683849 15.24060073
v 0.34355227 10.81755362 15.23880401
v 0.34359527 10.82056997 15.23509894
v 0.34138369 10.81593084 15.23629559
v 0.34086151 10.81676515 15.23420931
v 0.34068950 10.82242195 15.22728061
v 0.33758713 10.81388633 15.23134154
v 0.33494550 10.81307952 15.22728061
v 0.35316653 10.82034993 15.26008202
v 0.35038976 10.81968065 15.25268234
v 0.35301295 10.82383386 15.25446161
v 0.35367643 10.82728111 15.25197412
v 0.35061706 10.82545664 15.24583737
v 0.35021161 10.82632762 15.24375458
v 0.35291466 10.82728111 15.24989481
v 0.35355357 10.81959814 15.26292188
v 0.35154470 10.81609587 15.26292188
v 0.35104095 10.81523406 15.26292188
v 0.34986144 10.81430806 15.26072395
v 0.35047578 10.81639842 15.25865860
v 0.30262560 10.75547553 15.24166132
v 0.30330136 10.75724500 15.24042978
v 0.30398326 10.75641986 15.24251956
v 0.31183441 10.76188412 15.24811554
v 0.30626243 10.76057307 15.24069493
v 0.30922965 10.76396531 15.24099496
v 0.31575997 10.77300518 15.24056235
v 0.31630673 10.77222589 15.24264864
v 0.31892991 10.77295018 15.24677237
v 0.32174355 10.77655329 15.24740034
v 0.32525138 10.78225593 15.24665375
v 0.32504865 10.77945045 15.25024718
v 0.32551554 10.77874450 15.25233346
v 0.32595171 10.77807522 15.25446161
v 0.32524523 10.77601237 15.25607691
v 0.32563840 10.77541643 15.25816320
v 0.32878992 10.77850612 15.26124727
v 0.32807115 10.77648911 15.26292188
v 0.32249918 10.76916370 15.26072395
v 0.31809443 10.76145322 15.26292188
v 0.31923094 10.76310350 15.26292188
v 0.31312450 10.77547144 15.23352551
v 0.30994841 10.77730509 15.22728061
v 0.31136751 10.77730509 15.22916106
v 0.31241187 10.77955130 15.22828189
v 0.31317365 10.77850612 15.23037166
v 0.31419343 10.77771766 15.23271263
v 0.34722596 10.82597922 15.23712941
v 0.34695566 10.82728111 15.23534316
v 0.34717068 10.82296288 15.24038443
v 0.34675907 10.82123008 15.24163341
v 0.34073249 10.81384048 15.23765970
v 0.34416046 10.81337290 15.24636069
v 0.32864862 10.78179752 15.25536171
v 0.32823702 10.78249430 15.25327543
v 0.32622202 10.78055981 15.25130427
v 0.32572441 10.78152247 15.24874003
v 0.34036389 10.81497735 15.23541991
v 0.33814617 10.81301534 15.23342782
v 0.33428202 10.81099834 15.22856448
v 0.31870262 10.77960631 15.23779576
v 0.33393186 10.81156676 15.22728061
v 0.35112082 10.81813122 15.25760499
v 0.34760070 10.82217441 15.24247420
v 0.34975086 10.82444813 15.24490587
v 0.35010103 10.82336628 15.24718753
v 0.35012561 10.81700353 15.25657231
v 0.33175713 10.78497890 15.25851556
v 0.33137010 10.78561150 15.25642928
v 0.34991673 10.82728111 15.24214277
v 0.35096109 10.82728111 15.24470352
v 0.35112082 10.82728111 15.24512566
v 0.33098308 10.78118325 15.26292188
v 0.31520094 10.77374781 15.23880401
v 0.31587056 10.77598486 15.23723756
v 0.32191557 10.77944128 15.24392204
v 0.31911422 10.77581983 15.24329057
v 0.31958111 10.77515055 15.24506985
v 0.31849374 10.77358278 15.24506985
v 0.32121522 10.77758013 15.24500705
v 0.32759812 10.78072484 15.25437439
v 0.32810801 10.77956964 15.25759104
v 0.32651075 10.77725008 15.25730845
v 0.32907251 10.78112824 15.25759104
v 0.33063290 10.78060565 15.26292188
v 0.32898651 10.77790102 15.26292188
v 0.31594427 10.77900121 15.23398603
v 0.31521322 10.77692002 15.23514779
v 0.31050131 10.77802938 15.22728061
v 0.31194498 10.77993637 15.22728061
v 0.31317979 10.78162332 15.22728061
v 0.31421187 10.78080735 15.22954482
v 0.31598728 10.78206340 15.23080776
v 0.31525623 10.77999138 15.23189974
v 0.31636202 10.77780017 15.23598509
f 1 2 3
f 1 3 9
f 1 9 8
f 1 8 19
f 1 19 27
f 1 27 41
f 1 41 46
f 1 46 71
f 1 71 100
f 1 100 145
f 1 145 153
f 1 153 152
f 1 152 210
f 1 210 211
f 1 211 208
f 1 208 256
f 1 256 255
f 1 255 243
f 1 243 188
f 1 188 187
f 1 187 186
f 1 186 134
f 1 134 91
f 1 91 90
f 1 90 89
f 1 89 88
f 1 88 56
f 1 56 35
f 1 35 22
f 1 22 11
f 1 11 4
f 1 4 10
f 1 10 20
f 1 20 32
f 1 32 50
f 1 50 79
f 1 79 121
f 1 121 165
f 1 165 164
f 1 164 136
f 1 136 93
f 1 93 92
f 1 92 58
f 1 58 36
f 1 36 23
f 1 23 13
f 1 13 12
f 1 12 5
f 1 5 2
f 2 5 6
f 2 6 7
f 2 7 8
f 2 8 9
f 2 9 3
f 4 11 10
f 5 12 6
f 6 13 14
f 6 14 15
f 6 15 7
f 6 12 13
f 7 15 8
f 8 15 16
f 8 16 17
f 8 17 18
f 8 18 19
f 10 11 21
f 10 21 33
f 10 33 53
f 10 53 84
f 10 84 127
f 10 127 176
f 10 176 178
f 10 178 232
f 10 232 261
f 10 261 260
f 10 260 259
f 10 259 213
f 10 213 161
f 10 161 115
f 10 115 114
f 10 114 113
f 10 113 108
f 10 108 107
f 10 107 73
f 10 73 47
f 10 47 31
f 10 31 20
f 11 22 34
f 11 34 55
f 11 55 87
f 11 87 132
f 11 132 182
f 11 182 185
f 11 185 242
f 11 242 241
f 11 241 240
f 11 240 219
f 11 219 167
f 11 167 124
f 11 124 122
f 11 122 80
f 11 80 51
f 11 51 33
f 11 33 21
f 13 23 24
f 13 24 14
f 14 24 25
f 14 25 26
f 14 26 17
f 14 17 16
f 14 16 15
f 17 27 18
f 17 26 28
f 17 28 29
f 17 29 30
f 17 30 27
f 18 27 19
f 20 31 32
f 22 35 34
f 23 36 37
f 23 37 38
f 23 38 24
f 24 38 25
f 25 38 39
f 25 39 26
f 26 39 40
f 26 40 28
f 27 30 41
f 28 40 42
f 28 42 29
f 29 43 30
f 29 42 44
f 29 44 45
f 29 45 43
f 30 43 46
f 30 46 41
f 31 47 48
f 31 48 49
f 31 49 32
f 32 49 50
f 33 51 52
f 33 52 53
f 34 54 55
f 34 35 56
f 34 56 57
f 34 57 54
f 36 58 37
f 37 58 59
f 37 59 60
f 37 60 38
f 38 60 61
f 38 61 39
f 39 61 40
f 40 61 62
f 40 62 63
f 40 63 42
f 42 63 64
f 42 64 45
f 42 45 44
f 43 65 46
f 43 45 65
f 45 64 66
f 45 66 67
f 45 67 68
f 45 68 69
f 45 69 70
f 45 70 65
f 46 65 71
f 47 72 48
f 47 73 72
f 48 72 73
f 48 73 74
f 48 74 75
f 48 75 76
f 48 76 77
f 48 77 50
f 48 50 49
f 50 78 79
f 50 77 78
f 51 80 52
f 52 80 81
f 52 81 53
f 53 81 82
f 53 82 83
f 53 83 84
f 54 57 85
f 54 85 86
f 54 86 55
f 55 86 87
f 56 88 57
f 57 89 90
f 57 90 91
f 57 91 85
f 57 88 89
f 58 92 59
f 59 93 94
f 59 94 95
f 59 95 96
f 59 96 97
f 59 97 60
f 59 92 93
f 60 97 61
f 61 97 96
f 61 96 98
f 61 98 62
f 62 66 63
f 62 98 66
f 63 66 64
f 65 70 99
f 65 99 100
f 65 100 71
f 66 98 101
f 66 101 102
f 66 102 103
f 66 103 67
f 67 103 68
f 68 103 104
f 68 104 105
f 68 105 106
f 68 106 100
f 68 100 69
f 69 100 70
f 70 100 99
f 73 107 74
f 74 107 108
f 74 108 75
f 75 109 110
f 75 110 111
f 75 111 112
f 75 112 76
f 75 108 113
f 75 113 114
f 75 114 115
f 75 115 116
f 75 116 117
f 75 117 109
f 76 112 77
f 77 112 118
f 77 118 78
f 78 118 119
f 78 119 120
f 78 120 79
f 79 120 121
f 80 122 81
f 81 123 83
f 81 83 82
f 81 122 124
f 81 124 123
f 83 123 125
f 83 125 126
f 83 126 84
f 84 126 127
f 85 91 128
f 85 128 129
f 85 129 86
f 86 129 130
f 86 130 131
f 86 131 87
f 87 131 133
f 87 133 132
f 91 134 135
f 91 135 128
f 93 136 137
f 93 137 138
f 93 138 94
f 94 138 119
f 94 119 139
f 94 139 140
f 94 140 95
f 95 140 141
f 95 141 96
f 96 141 142
f 96 142 143
f 96 143 98
f 98 143 142
f 98 142 101
f 100 106 144
f 100 144 145
f 101 142 146
f 101 146 102
f 102 146 104
f 102 104 103
f 104 147 105
f 104 146 148
f 104 148 149
f 104 149 150
f 104 150 151
f 104 151 147
f 105 152 153
f 105 153 106
f 105 147 154
f 105 154 151
f 105 151 155
f 105 155 152
f 106 153 144
f 109 156 157
f 109 157 158
f 109 158 159
f 109 159 110
f 109 117 160
f 109 160 156
f 110 159 158
f 110 158 111
f 111 158 112
f 112 140 118
f 112 158 140
f 115 161 116
f 116 161 162
f 116 162 117
f 117 162 163
f 117 163 160
f 118 140 119
f 119 138 137
f 119 137 164
f 119 164 165
f 119 165 120
f 119 140 139
f 120 165 121
f 123 166 125
f 123 124 166
f 124 167 166
f 125 166 168
f 125 168 169
f 125 169 170
f 125 170 171
f 125 171 172
f 125 172 173
f 125 173 174
f 125 174 175
f 125 175 126
f 126 176 127
f 126 175 177
f 126 177 178
f 126 178 176
f 128 179 129
f 128 135 179
f 129 179 180
f 129 180 130
f 130 181 133
f 130 133 131
f 130 180 181
f 132 133 182
f 133 183 184
f 133 184 185
f 133 185 182
f 133 181 180
f 133 180 183
f 134 186 135
f 135 186 187
f 135 187 188
f 135 188 189
f 135 189 190
f 135 190 179
f 136 164 137
f 140 191 141
f 140 158 192
f 140 192 191
f 141 191 193
f 141 193 142
f 142 194 146
f 142 193 195
f 142 195 196
f 142 196 197
f 142 197 194
f 144 153 145
f 146 194 197
f 146 197 198
f 146 198 148
f 147 151 154
f 148 198 199
f 148 199 149
f 149 199 200
f 149 200 201
f 149 201 202
f 149 202 203
f 149 203 150
f 150 203 204
f 150 204 205
f 150 205 151
f 151 205 206
f 151 206 207
f 151 207 208
f 151 208 209
f 151 209 155
f 152 155 210
f 155 211 210
f 155 209 211
f 156 196 157
f 156 160 212
f 156 212 196
f 157 195 192
f 157 192 158
f 157 196 195
f 160 163 212
f 161 163 162
f 161 213 163
f 163 213 214
f 163 214 215
f 163 215 216
f 163 216 217
f 163 217 212
f 166 167 218
f 166 218 184
f 166 184 168
f 167 219 218
f 168 220 169
f 168 184 220
f 169 220 221
f 169 221 171
f 169 171 170
f 171 222 174
f 171 174 172
f 171 221 180
f 171 180 223
f 171 223 224
f 171 224 225
f 171 225 226
f 171 226 227
f 171 227 201
f 171 201 222
f 172 174 173
f 174 222 228
f 174 228 175
f 175 228 229
f 175 229 177
f 177 229 178
f 178 229 230
f 178 230 231
f 178 231 232
f 179 190 233
f 179 233 180
f 180 221 234
f 180 234 235
f 180 235 236
f 180 236 183
f 180 233 190
f 180 190 237
f 180 237 238
f 180 238 239
f 180 239 223
f 183 236 235
f 183 235 184
f 184 240 241
f 184 241 242
f 184 242 185
f 184 235 220
f 184 218 240
f 188 243 189
f 189 243 190
f 190 243 238
f 190 238 237
f 191 192 193
f 192 195 193
f 196 212 244
f 196 244 197
f 197 244 245
f 197 245 231
f 197 231 246
f 197 246 247
f 197 247 248
f 197 248 198
f 198 248 249
f 198 249 199
f 199 249 248
f 199 248 200
f 200 248 250
f 200 250 201
f 201 227 202
f 201 250 246
f 201 246 231
f 201 231 230
f 201 230 229
f 201 229 228
f 201 228 222
f 202 227 203
f 203 227 226
f 203 226 251
f 203 251 204
f 204 251 252
f 204 252 205
f 205 252 253
f 205 253 206
f 206 253 207
f 207 253 252
f 207 252 254
f 207 254 238
f 207 238 243
f 207 243 255
f 207 255 256
f 207 256 208
f 208 211 209
f 212 217 257
f 212 257 258
f 212 258 245
f 212 245 244
f 213 259 214
f 214 259 215
f 215 259 260
f 215 260 261
f 215 261 216
f 216 261 262
f 216 262 263
f 216 263 264
f 216 264 217
f 217 264 257
f 218 219 240
f 220 235 234
f 220 234 221
f 223 239 224
f 224 254 252
f 224 252 251
f 224 251 225
f 224 239 254
f 225 251 226
f 231 245 265
f 231 265 232
f 232 265 257
f 232 257 263
f 232 263 261
f 238 254 239
f 245 258 265
f 246 250 247
f 247 250 248
f 257 265 258
f 257 264 263
f 261 263 262

