# https://github.com/mikedh/trimesh
v 0.35578460 10.83092047 15.35469130
v 0.34371722 10.83092047 15.35469130
v 0.35578460 10.83089752 15.35469130
v 0.35583739 10.83092047 15.35456299
v 0.35246750 10.83092047 15.30225728
v 0.31920412 10.78881539 15.35468617
v 0.31997840 10.78992463 15.35469130
v 0.35649289 10.83092047 15.35287438
v 0.35588139 10.83092047 15.35445521
v 0.35486074 10.82763866 15.35469130
v 0.35486954 10.82764631 15.35467591
v 0.35636092 10.82997953 15.35253050
v 0.36414333 10.83092047 15.30225728
v 0.31920412 10.77290359 15.30225728
v 0.31920412 10.78840230 15.35469130
v 0.35699442 10.83092047 15.35150399
v 0.35387529 10.82474700 15.35469130
v 0.35498832 10.82451750 15.35154506
v 0.35643570 10.82655237 15.34953823
v 0.35605295 10.82761571 15.35150913
v 0.35674366 10.82864080 15.35044156
v 0.36368581 10.83092047 15.31696201
v 0.36410815 10.83078277 15.30225728
v 0.31920412 10.75276904 15.30225728
v 0.31920412 10.77218450 15.35469130
v 0.35804146 10.83092047 15.34841421
v 0.35801066 10.83078277 15.34841421
v 0.35378291 10.82451750 15.35469130
v 0.35356733 10.82266622 15.35340817
v 0.35390168 10.82466285 15.35454246
v 0.35391488 10.82200068 15.35154506
v 0.35603536 10.82453280 15.34846040
v 0.35807226 10.82764631 15.34527823
v 0.35709120 10.82761571 15.34846040
v 0.35676565 10.82558848 15.34744929
v 0.36368141 10.83092047 15.31710059
v 0.36364621 10.83078277 15.31710059
v 0.36302151 10.82873260 15.31710059
v 0.36306550 10.82858725 15.31396974
v 0.36324148 10.82817415 15.30225728
v 0.31956486 10.75327393 15.30225728
v 0.31956486 10.75328158 15.30457206
v 0.31920412 10.75277669 15.30383297
v 0.31920412 10.77128946 15.35467591
v 0.31960445 10.77190910 15.35469130
v 0.35876735 10.83092047 15.34607890
v 0.35267867 10.82186298 15.35469130
v 0.35252909 10.82151108 15.35469130
v 0.35259508 10.82152639 15.35454246
v 0.35316699 10.82043245 15.35154506
v 0.35635651 10.82350006 15.34606350
v 0.35442080 10.82110564 15.34866570
v 0.35905770 10.82790641 15.34191128
v 0.35948444 10.83006368 15.34279921
v 0.35911929 10.83092047 15.34492408
v 0.35907531 10.83092047 15.34507293
v 0.35702081 10.82453280 15.34512425
v 0.35780829 10.82451750 15.34214738
v 0.36351864 10.83092047 15.32023144
v 0.36347905 10.83078277 15.32023144
v 0.36293352 10.82896974 15.32023144
v 0.36233962 10.82740151 15.32023144
v 0.36241440 10.82716437 15.31710059
v 0.36248479 10.82702667 15.31396974
v 0.36262997 10.82661357 15.30225728
v 0.32072189 10.75490336 15.30225728
v 0.32113103 10.75548475 15.30225728
v 0.32222646 10.75705298 15.30225728
v 0.32113103 10.75553065 15.30457206
v 0.31950767 10.75336573 15.30770291
v 0.31920412 10.75294498 15.30770291
v 0.31920412 10.75278434 15.30457206
v 0.31920412 10.77060862 15.35364426
v 0.34500182 10.80873574 15.35469130
v 0.35247190 10.82138869 15.35469130
v 0.35094093 10.81835167 15.35469130
v 0.35096732 10.81827518 15.35451680
v 0.35204077 10.81825223 15.35154506
v 0.35294703 10.81821398 15.34866570
v 0.35374330 10.81923141 15.34778804
v 0.35574941 10.82160288 15.34512425
v 0.35665127 10.82278862 15.34397969
v 0.35994197 10.82849545 15.33901653
v 0.35973521 10.82911509 15.34071027
v 0.35943605 10.82692722 15.33901653
v 0.36061947 10.83078277 15.33901653
v 0.35994197 10.83092047 15.34187535
v 0.35959443 10.83092047 15.34324061
v 0.35688884 10.82223783 15.34214738
v 0.35855618 10.82451750 15.33901653
v 0.35964722 10.82626168 15.33714315
v 0.36329426 10.83092047 15.32295168
v 0.36318869 10.83060682 15.32322884
v 0.36286753 10.82913804 15.32209968
v 0.36232201 10.82791406 15.32322884
v 0.36098461 10.82451750 15.32336229
v 0.36117379 10.82451750 15.32023144
v 0.36132337 10.82451750 15.31710059
v 0.36143335 10.82451750 15.31396974
v 0.36151694 10.82451750 15.31083376
v 0.36238360 10.82603983 15.30225728
v 0.32337029 10.75875891 15.30225728
v 0.32333509 10.75875891 15.30457206
v 0.32125860 10.75592845 15.30754893
v 0.31939768 10.75347283 15.31083376
v 0.31920412 10.75318978 15.31083376
v 0.31920412 10.76640882 15.34715673
v 0.34703432 10.81064822 15.35266908
v 0.34666917 10.81122961 15.35467591
v 0.34667357 10.81124491 15.35469130
v 0.31920412 10.76470289 15.34433897
v 0.31920412 10.76294341 15.34138776
v 0.31928330 10.76301991 15.34131591
v 0.31920412 10.76273686 15.34101822
v 0.35078696 10.81808393 15.35469130
v 0.35041741 10.81650805 15.35336711
v 0.35075176 10.81595725 15.35154506
v 0.35120929 10.81496276 15.34844500
v 0.35321099 10.81714299 15.34604811
v 0.35404247 10.81821398 15.34511398
v 0.35617614 10.82066960 15.34214738
v 0.36026753 10.82744741 15.33601399
v 0.36133216 10.83078277 15.33588568
v 0.36137176 10.83092047 15.33587542
v 0.36068546 10.83092047 15.33888308
v 0.36065466 10.83092047 15.33901653
v 0.35645770 10.82008055 15.33992499
v 0.35920728 10.82461695 15.33601399
v 0.35716159 10.82122804 15.33893441
v 0.35984959 10.82573383 15.33505421
v 0.36096262 10.82764631 15.33275483
v 0.36326787 10.83092047 15.32324424
v 0.36277075 10.82945169 15.32418862
v 0.36299951 10.83092047 15.32586696
v 0.36188208 10.82764631 15.32649313
v 0.36067666 10.82451750 15.32649313
v 0.35986718 10.82262032 15.32649313
v 0.36001236 10.82231432 15.32336229
v 0.36010915 10.82209248 15.32023144
v 0.36017954 10.82193948 15.31710059
v 0.36165771 10.82451750 15.30457206
v 0.36030272 10.82172528 15.30770291
v 0.36170171 10.82451750 15.30225728
v 0.32483967 10.76100034 15.30225728
v 0.32483527 10.76100034 15.30457206
v 0.32475168 10.76111508 15.30770291
v 0.31920412 10.75351108 15.31372851
v 0.35050980 10.81326449 15.34741850
v 0.35014905 10.81381528 15.34950744
v 0.34980150 10.81439668 15.35154506
v 0.34766342 10.81279784 15.35467591
v 0.31920412 10.76163528 15.33901653
v 0.31920412 10.76103858 15.33787711
v 0.31920412 10.76063314 15.33707643
v 0.34765903 10.81280549 15.35469130
v 0.34918120 10.81531466 15.35469130
v 0.34908881 10.81516166 15.35469130
v 0.35247630 10.81536056 15.34511398
v 0.35351455 10.81656160 15.34395916
v 0.35490913 10.81825223 15.34214738
v 0.36194807 10.83078277 15.33275483
v 0.36198767 10.83092047 15.33275483
v 0.35664247 10.81969806 15.33783604
v 0.35780389 10.82138869 15.33588568
v 0.35941405 10.82364541 15.33275483
v 0.35374330 10.81618675 15.34214738
v 0.35576700 10.81848937 15.33893441
v 0.36005195 10.82521364 15.33275483
v 0.36145975 10.82764631 15.32962398
v 0.36248039 10.83087457 15.32970610
v 0.36292913 10.83092047 15.32649313
v 0.36263877 10.82990303 15.32649313
v 0.36020594 10.82434920 15.32952133
v 0.35975720 10.82284982 15.32841784
v 0.35907531 10.82105209 15.32649313
v 0.35924688 10.82075375 15.32336229
v 0.35936126 10.82053190 15.32023144
v 0.35943605 10.82037125 15.31710059
v 0.36033792 10.82164878 15.30457206
v 0.36135856 10.82376781 15.30225728
v 0.32509483 10.76140578 15.30225728
v 0.32581192 10.76256092 15.30225728
v 0.32580752 10.76256857 15.30457206
v 0.32721091 10.76502418 15.30770291
v 0.32575913 10.76268331 15.30770291
v 0.32566234 10.76285161 15.31083376
v 0.31920412 10.75390887 15.31698254
v 0.32553477 10.76304286 15.31396974
v 0.35084414 10.81279784 15.34527823
v 0.32014558 10.76161233 15.33612178
v 0.31920412 10.75966925 15.33494129
v 0.31928770 10.75992170 15.33523385
v 0.35280625 10.81461852 15.34214738
v 0.36201406 10.83092047 15.33260599
v 0.35681405 10.81936911 15.33588568
v 0.35960762 10.82318641 15.33050165
v 0.35594738 10.81780853 15.33588568
v 0.35408645 10.81565126 15.33901653
v 0.36278834 10.83092047 15.32758123
v 0.36249798 10.83092047 15.32967018
v 0.36248919 10.83092047 15.32973177
v 0.35705601 10.81894072 15.33275483
v 0.35895652 10.82164113 15.32952133
v 0.35737276 10.81799213 15.32658039
v 0.35791388 10.81825223 15.32336229
v 0.35817784 10.81825223 15.32023144
v 0.35849019 10.81825223 15.31083376
v 0.35856939 10.81825223 15.30770291
v 0.35957682 10.82008055 15.30457206
v 0.35831862 10.81825223 15.31710059
v 0.35714399 10.81568186 15.31083376
v 0.36034671 10.82164113 15.30225728
v 0.33087556 10.77079986 15.30225728
v 0.33086676 10.77083046 15.30457206
v 0.32701734 10.76502418 15.31083376
v 0.33175542 10.77246754 15.30770291
v 0.33168503 10.77258994 15.31083376
v 0.32281158 10.75934796 15.31710059
v 0.31920412 10.75392417 15.31710059
v 0.32539838 10.76323411 15.31641283
v 0.33159265 10.77274294 15.31300482
v 0.33074797 10.77153426 15.31401593
v 0.32205049 10.76357835 15.33402770
v 0.32135539 10.76201012 15.33289341
v 0.32165015 10.76107684 15.32962398
v 0.31965284 10.75936325 15.33275483
v 0.31920412 10.75817752 15.33159488
v 0.35310981 10.81408303 15.33901653
v 0.32536318 10.76642412 15.32846403
v 0.32811717 10.77015727 15.32649313
v 0.32832394 10.76982833 15.32448118
v 0.35618934 10.81737249 15.33275483
v 0.35424483 10.81492452 15.33581382
v 0.35652369 10.81676815 15.32767875
v 0.35680964 10.81628620 15.32336229
v 0.35607936 10.81443492 15.32023144
v 0.35695482 10.81600315 15.32023144
v 0.35702081 10.81585016 15.31710059
v 0.35862217 10.81825223 15.30457206
v 0.35717479 10.81562831 15.30770291
v 0.35958123 10.82007290 15.30225728
v 0.35708240 10.81575071 15.31396974
v 0.35622454 10.81418248 15.31396974
v 0.35626413 10.81411363 15.31083376
v 0.33180381 10.77236809 15.30225728
v 0.35628612 10.81406008 15.30770291
v 0.35617174 10.81428958 15.31710059
v 0.35462757 10.81198695 15.32023144
v 0.32454051 10.76207132 15.31731615
v 0.32259600 10.75963865 15.32023144
v 0.31920412 10.75454381 15.32090893
v 0.31920412 10.75424547 15.31934351
v 0.31920412 10.75416897 15.31889698
v 0.32885186 10.76898684 15.31710059
v 0.32986371 10.77128181 15.32023144
v 0.32864949 10.76931578 15.32023144
v 0.32401260 10.76188772 15.32023144
v 0.33147827 10.77292654 15.31509376
v 0.35347935 10.81037282 15.32204322
v 0.33025525 10.77128181 15.31710059
v 0.31920412 10.75769558 15.33048625
v 0.31920412 10.75693823 15.32873092
v 0.32194490 10.76061019 15.32714497
v 0.32215607 10.76028125 15.32505602
v 0.32132020 10.75847586 15.32336229
v 0.32848672 10.76956823 15.32239224
v 0.32924341 10.77103701 15.32340848
v 0.35352335 10.81343279 15.33472573
v 0.35483875 10.81512341 15.33275483
v 0.35718359 10.81562066 15.30457206
v 0.35823063 10.81756374 15.30225728
v 0.35860457 10.81825223 15.30225728
v 0.35933046 10.81959861 15.30225728
v 0.35716599 10.81568186 15.30225728
v 0.35627733 10.81405243 15.30457206
v 0.31975403 10.75601260 15.32336229
v 0.31920412 10.75478096 15.32193544
v 0.33232293 10.77467837 15.31710059
v 0.31920412 10.75687704 15.32856668
v 0.31944608 10.75649454 15.32649313
v 0.31920412 10.75577545 15.32539990
v 0.31920412 10.75515581 15.32336229
v 0.31920412 10.75611970 15.32649313
f 1 2 7
f 1 7 15
f 1 15 25
f 1 25 45
f 1 45 74
f 1 74 110
f 1 110 155
f 1 155 157
f 1 157 156
f 1 156 115
f 1 115 76
f 1 76 75
f 1 75 48
f 1 48 47
f 1 47 28
f 1 28 17
f 1 17 10
f 1 10 3
f 1 3 4
f 1 4 9
f 1 9 8
f 1 8 16
f 1 16 26
f 1 26 46
f 1 46 56
f 1 56 55
f 1 55 88
f 1 88 87
f 1 87 126
f 1 126 125
f 1 125 124
f 1 124 162
f 1 162 194
f 1 194 201
f 1 201 200
f 1 200 199
f 1 199 171
f 1 171 134
f 1 134 132
f 1 132 92
f 1 92 59
f 1 59 36
f 1 36 22
f 1 22 13
f 1 13 5
f 1 5 2
f 2 5 6
f 2 6 7
f 3 8 9
f 3 9 4
f 3 10 11
f 3 11 12
f 3 12 8
f 5 13 23
f 5 23 40
f 5 40 65
f 5 65 101
f 5 101 143
f 5 143 180
f 5 180 212
f 5 212 241
f 5 241 273
f 5 273 272
f 5 272 271
f 5 271 274
f 5 274 245
f 5 245 213
f 5 213 182
f 5 182 181
f 5 181 144
f 5 144 102
f 5 102 68
f 5 68 67
f 5 67 66
f 5 66 41
f 5 41 24
f 5 24 14
f 5 14 6
f 6 14 24
f 6 24 43
f 6 43 72
f 6 72 71
f 6 71 106
f 6 106 147
f 6 147 187
f 6 187 219
f 6 219 253
f 6 253 252
f 6 252 251
f 6 251 277
f 6 277 282
f 6 282 281
f 6 281 283
f 6 283 279
f 6 279 262
f 6 262 261
f 6 261 227
f 6 227 191
f 6 191 154
f 6 154 153
f 6 153 152
f 6 152 114
f 6 114 112
f 6 112 111
f 6 111 107
f 6 107 73
f 6 73 44
f 6 44 25
f 6 25 15
f 6 15 7
f 8 12 16
f 10 17 11
f 11 17 18
f 11 18 19
f 11 19 20
f 11 20 12
f 12 20 21
f 12 21 16
f 13 22 23
f 16 21 27
f 16 27 26
f 17 28 29
f 17 29 30
f 17 30 18
f 18 30 29
f 18 29 31
f 18 31 32
f 18 32 19
f 19 33 34
f 19 34 21
f 19 21 20
f 19 32 35
f 19 35 33
f 21 34 27
f 22 36 37
f 22 37 23
f 23 37 38
f 23 38 39
f 23 39 40
f 24 41 42
f 24 42 43
f 25 44 45
f 26 27 46
f 27 34 46
f 28 47 29
f 29 47 48
f 29 48 49
f 29 49 50
f 29 50 31
f 31 51 32
f 31 50 52
f 31 52 51
f 32 51 35
f 33 53 54
f 33 54 55
f 33 55 56
f 33 56 34
f 33 35 57
f 33 57 58
f 33 58 53
f 34 56 46
f 35 51 57
f 36 59 37
f 37 60 61
f 37 61 38
f 37 59 60
f 38 61 62
f 38 62 63
f 38 63 64
f 38 64 39
f 39 64 40
f 40 64 65
f 41 66 42
f 42 66 67
f 42 67 68
f 42 68 69
f 42 69 70
f 42 70 71
f 42 71 72
f 42 72 43
f 44 73 74
f 44 74 45
f 48 75 49
f 49 75 50
f 50 76 77
f 50 77 78
f 50 78 79
f 50 79 80
f 50 80 52
f 50 75 76
f 51 52 81
f 51 81 82
f 51 82 57
f 52 80 81
f 53 83 84
f 53 84 54
f 53 58 85
f 53 85 83
f 54 84 86
f 54 86 87
f 54 87 88
f 54 88 55
f 57 82 58
f 58 82 89
f 58 89 90
f 58 90 91
f 58 91 85
f 59 92 93
f 59 93 94
f 59 94 60
f 60 94 61
f 61 94 62
f 62 94 95
f 62 95 96
f 62 96 97
f 62 97 63
f 63 97 98
f 63 98 64
f 64 98 99
f 64 99 65
f 65 99 100
f 65 100 101
f 68 102 103
f 68 103 69
f 69 103 70
f 70 104 105
f 70 105 106
f 70 106 71
f 70 103 104
f 73 107 74
f 74 108 109
f 74 109 110
f 74 107 111
f 74 111 112
f 74 112 113
f 74 113 114
f 74 114 108
f 76 115 116
f 76 116 77
f 77 116 78
f 78 116 117
f 78 117 118
f 78 118 119
f 78 119 79
f 79 119 80
f 80 119 120
f 80 120 81
f 81 120 121
f 81 121 82
f 82 121 89
f 83 85 91
f 83 91 122
f 83 122 123
f 83 123 86
f 83 86 84
f 86 123 124
f 86 124 125
f 86 125 126
f 86 126 87
f 89 121 127
f 89 127 90
f 90 128 91
f 90 127 129
f 90 129 128
f 91 128 130
f 91 130 131
f 91 131 122
f 92 132 93
f 93 133 94
f 93 132 134
f 93 134 133
f 94 133 95
f 95 135 136
f 95 136 96
f 95 133 135
f 96 136 137
f 96 137 138
f 96 138 139
f 96 139 97
f 97 139 98
f 98 139 140
f 98 140 99
f 99 140 100
f 100 141 101
f 100 140 142
f 100 142 179
f 100 179 141
f 101 141 143
f 102 144 145
f 102 145 103
f 103 145 146
f 103 146 104
f 104 146 105
f 105 147 106
f 105 146 147
f 108 148 149
f 108 149 150
f 108 150 151
f 108 151 110
f 108 110 109
f 108 114 152
f 108 152 153
f 108 153 154
f 108 154 148
f 110 151 155
f 112 114 113
f 115 156 116
f 116 156 157
f 116 157 151
f 116 151 150
f 116 150 117
f 117 150 149
f 117 149 118
f 118 158 119
f 118 149 148
f 118 148 158
f 119 159 120
f 119 158 159
f 120 159 121
f 121 159 160
f 121 160 127
f 122 131 161
f 122 161 123
f 123 161 162
f 123 162 124
f 127 163 164
f 127 164 165
f 127 165 129
f 127 160 166
f 127 166 167
f 127 167 163
f 128 165 130
f 128 129 165
f 130 165 168
f 130 168 131
f 131 169 170
f 131 170 161
f 131 168 169
f 133 134 171
f 133 171 172
f 133 172 135
f 135 172 169
f 135 169 173
f 135 173 136
f 136 173 174
f 136 174 137
f 137 174 175
f 137 175 176
f 137 176 138
f 138 176 177
f 138 177 139
f 139 177 178
f 139 178 140
f 140 178 142
f 141 179 180
f 141 180 143
f 142 178 179
f 144 181 145
f 145 181 182
f 145 182 183
f 145 183 184
f 145 184 185
f 145 185 146
f 146 185 186
f 146 186 147
f 147 186 188
f 147 188 187
f 148 189 158
f 148 154 190
f 148 190 189
f 151 157 155
f 154 191 192
f 154 192 190
f 158 189 193
f 158 193 159
f 159 193 166
f 159 166 160
f 161 170 194
f 161 194 162
f 163 195 196
f 163 196 164
f 163 167 197
f 163 197 195
f 164 196 165
f 165 196 168
f 166 193 198
f 166 198 167
f 167 198 197
f 168 196 173
f 168 173 169
f 169 172 170
f 170 172 199
f 170 199 200
f 170 200 201
f 170 201 194
f 171 199 172
f 173 196 174
f 174 196 195
f 174 195 202
f 174 202 203
f 174 203 175
f 175 202 204
f 175 204 205
f 175 205 176
f 175 203 202
f 176 205 206
f 176 206 177
f 177 206 178
f 178 207 208
f 178 208 209
f 178 209 179
f 178 206 210
f 178 210 211
f 178 211 207
f 179 212 180
f 179 209 212
f 182 213 183
f 183 213 214
f 183 214 184
f 184 215 185
f 184 214 216
f 184 216 217
f 184 217 215
f 185 215 186
f 186 215 188
f 187 218 219
f 187 188 218
f 188 220 218
f 188 215 217
f 188 217 221
f 188 221 222
f 188 222 220
f 189 190 223
f 189 223 224
f 189 224 225
f 189 225 193
f 190 192 226
f 190 226 224
f 190 224 223
f 191 227 192
f 192 227 226
f 193 228 198
f 193 225 229
f 193 229 230
f 193 230 231
f 193 231 228
f 195 197 232
f 195 232 202
f 197 198 233
f 197 233 232
f 198 228 231
f 198 231 233
f 202 232 204
f 204 232 234
f 204 234 235
f 204 235 205
f 205 235 236
f 205 236 237
f 205 237 206
f 206 237 238
f 206 238 210
f 207 211 208
f 208 239 209
f 208 211 240
f 208 240 239
f 209 239 241
f 209 241 212
f 210 238 242
f 210 242 211
f 211 242 243
f 211 243 244
f 211 244 240
f 213 245 214
f 214 245 246
f 214 246 244
f 214 244 216
f 216 244 243
f 216 243 247
f 216 247 217
f 217 247 248
f 217 248 221
f 218 249 250
f 218 250 251
f 218 251 252
f 218 252 253
f 218 253 219
f 218 220 249
f 220 254 255
f 220 255 256
f 220 256 257
f 220 257 249
f 220 222 254
f 221 258 222
f 221 248 259
f 221 259 258
f 222 258 260
f 222 260 254
f 224 226 261
f 224 261 262
f 224 262 225
f 225 262 263
f 225 263 229
f 226 227 261
f 229 263 231
f 229 231 230
f 231 263 264
f 231 264 265
f 231 265 250
f 231 250 257
f 231 257 266
f 231 266 267
f 231 267 268
f 231 268 233
f 232 233 268
f 232 268 269
f 232 269 259
f 232 259 234
f 234 259 235
f 235 259 236
f 236 259 248
f 236 248 247
f 236 247 237
f 237 247 238
f 238 247 242
f 239 240 270
f 239 270 271
f 239 271 272
f 239 272 273
f 239 273 241
f 240 244 246
f 240 246 270
f 242 247 243
f 245 274 275
f 245 275 246
f 246 275 270
f 249 257 250
f 250 265 276
f 250 276 277
f 250 277 251
f 254 260 255
f 255 267 266
f 255 266 256
f 255 260 259
f 255 259 268
f 255 268 267
f 256 266 257
f 258 259 278
f 258 278 260
f 259 269 268
f 259 260 278
f 262 279 263
f 263 279 280
f 263 280 264
f 264 280 281
f 264 281 276
f 264 276 265
f 270 274 271
f 270 275 274
f 276 281 282
f 276 282 277
f 279 283 280
f 280 283 281

