# https://github.com/mikedh/trimesh
v 0.36762692 10.85583739 15.29830149
v 0.36760803 10.85270392 15.29830149
v 0.36755511 10.85270392 15.29516767
v 0.36756267 10.85583739 15.29516767
v 0.36758535 10.85750916 15.29830149
v 0.36754378 10.85750916 15.30143530
v 0.36754757 10.85583739 15.30143530
v 0.36745687 10.84957341 15.29830149
v 0.36752489 10.85270392 15.30143530
v 0.36740397 10.84957341 15.30225729
v 0.36742286 10.84957341 15.30143530
v 0.36738129 10.84957341 15.29516767
v 0.36732082 10.85270392 15.29204120
v 0.36735861 10.85583739 15.29204120
v 0.36733972 10.85750916 15.29204120
v 0.36743419 10.85750916 15.29350169
v 0.36750600 10.85750916 15.29516767
v 0.36753245 10.85750916 15.30181694
v 0.36752110 10.85583739 15.30225729
v 0.36751733 10.85501777 15.30225729
v 0.36714698 10.84643994 15.29830149
v 0.36717722 10.84643994 15.30143530
v 0.36749844 10.85270392 15.30225729
v 0.36747576 10.85188726 15.30225729
v 0.36715075 10.84643994 15.30225729
v 0.36700338 10.84643994 15.29516767
v 0.36712053 10.84957341 15.29204120
v 0.36700338 10.85270392 15.28890739
v 0.36677664 10.85583739 15.28577357
v 0.36708273 10.85583739 15.28890739
v 0.36709408 10.85750916 15.28890739
v 0.36722256 10.85750916 15.29036788
v 0.36751356 10.85750916 15.30225729
v 0.36677664 10.84330943 15.30143530
v 0.36671618 10.84330943 15.29830149
v 0.36675396 10.84330943 15.30225729
v 0.36653856 10.84330943 15.29516767
v 0.36673130 10.84643994 15.29204120
v 0.36677287 10.84957341 15.28890739
v 0.36664059 10.85270392 15.28577357
v 0.36639496 10.85583739 15.28264710
v 0.36642518 10.85750916 15.28264710
v 0.36660279 10.85750916 15.28410759
v 0.36679553 10.85750916 15.28577357
v 0.36693913 10.85750916 15.28723406
v 0.35763138 10.85750916 15.30225729
v 0.36619467 10.83987712 15.30136191
v 0.36597170 10.83860479 15.29981335
v 0.36617955 10.83998363 15.29858038
v 0.36662926 10.84252237 15.30225729
v 0.36614177 10.84081508 15.29516767
v 0.36604350 10.84135952 15.29287786
v 0.36622868 10.84313190 15.29191643
v 0.36593769 10.84197201 15.29079355
v 0.36629293 10.84622690 15.28871657
v 0.36611909 10.84712936 15.28650749
v 0.36629293 10.84941067 15.28559009
v 0.36593391 10.85156179 15.28131137
v 0.36619090 10.85264474 15.28247096
v 0.36602082 10.85365076 15.28073158
v 0.36607374 10.85583739 15.28035729
v 0.36609264 10.85750916 15.28023986
v 0.36624001 10.85750916 15.28130403
v 0.35082534 10.82728407 15.30225729
v 0.33738332 10.85750916 15.22728061
v 0.32902031 10.82728407 15.22728061
v 0.36597170 10.83860479 15.30026838
v 0.36599060 10.83876457 15.30225729
v 0.36568072 10.83735614 15.29858038
v 0.36593391 10.83880600 15.29772170
v 0.36493247 10.83391791 15.30143530
v 0.36492491 10.83391791 15.29830149
v 0.36585077 10.83924983 15.29516767
v 0.36542752 10.83704841 15.29516767
v 0.36572985 10.84026177 15.29191643
v 0.36510631 10.83704841 15.29204120
v 0.36470950 10.83704841 15.28890739
v 0.36426359 10.83704841 15.28577357
v 0.36486067 10.84018188 15.28577357
v 0.36439963 10.84018188 15.28264710
v 0.36494759 10.84330943 15.28264710
v 0.36495892 10.84643994 15.27951329
v 0.36495892 10.84957341 15.27637947
v 0.36608885 10.85034568 15.28340303
v 0.36541996 10.84957341 15.27951329
v 0.36529148 10.85270392 15.27637947
v 0.36577519 10.85264474 15.27961603
v 0.36584699 10.85583739 15.27879405
v 0.36597170 10.85750916 15.27940320
v 0.36288801 10.82728407 15.30225729
v 0.34850879 10.85750916 15.22728061
v 0.34298006 10.82728407 15.22728061
v 0.36593769 10.83849827 15.30225729
v 0.36413509 10.83078444 15.30143530
v 0.36491358 10.83391791 15.30225729
v 0.36410108 10.83078444 15.29830149
v 0.36471706 10.83391791 15.29516767
v 0.36438829 10.83391791 15.29204120
v 0.36399149 10.83391791 15.28890739
v 0.36276330 10.83271363 15.28170769
v 0.36297870 10.83480262 15.28022518
v 0.36379876 10.83704841 15.28264710
v 0.36391969 10.84018188 15.27951329
v 0.36446387 10.84330943 15.27951329
v 0.36400283 10.84643994 15.27324566
v 0.36447143 10.84957341 15.27324566
v 0.36479264 10.85270392 15.27324566
v 0.36546909 10.85583739 15.27637947
v 0.36586589 10.85750916 15.27867662
v 0.36323946 10.82818357 15.30225729
v 0.36291824 10.82728407 15.30143530
v 0.34841809 10.85597645 15.22728061
v 0.35012244 10.85750916 15.23028966
v 0.35037941 10.85678127 15.23084744
v 0.34315012 10.82765689 15.22728061
v 0.34347512 10.82728407 15.22819067
v 0.36410486 10.83078444 15.30225729
v 0.36388946 10.83013348 15.30225729
v 0.36325458 10.82814511 15.30143530
v 0.36324324 10.82812143 15.29830149
v 0.36313365 10.82833448 15.29516767
v 0.36386678 10.83078444 15.29516767
v 0.36354556 10.83078444 15.29204120
v 0.36287667 10.82910379 15.29019174
v 0.36316388 10.83070159 15.28905417
v 0.36288801 10.83216328 15.28379934
v 0.36243831 10.83098565 15.28270581
v 0.36192436 10.83078444 15.27951329
v 0.36141041 10.83078444 15.27637947
v 0.36111564 10.83391791 15.27011918
v 0.36262348 10.83382026 15.27931513
v 0.36299004 10.83790058 15.27637947
v 0.36323946 10.83682650 15.27931513
v 0.36343219 10.84018188 15.27637947
v 0.36396882 10.84330943 15.27637947
v 0.36346998 10.84330943 15.27324566
v 0.36346620 10.84643994 15.27011918
v 0.36391969 10.84957341 15.27011918
v 0.36493625 10.85583739 15.27324566
v 0.36422201 10.85270392 15.27011918
v 0.36549555 10.85750916 15.27637947
v 0.36293336 10.82728407 15.29973262
v 0.34828961 10.85485799 15.22728061
v 0.34963872 10.85577525 15.22964382
v 0.35026604 10.85469230 15.23106761
v 0.35039831 10.85750916 15.23081074
v 0.35116167 10.85750916 15.23242535
v 0.35189858 10.85750916 15.23400326
v 0.35257125 10.85583739 15.23567659
v 0.35098406 10.85577525 15.23228591
v 0.34356203 10.82865108 15.22728061
v 0.34381523 10.82728407 15.22883651
v 0.36292958 10.82728407 15.29830149
v 0.36285022 10.82728407 15.29636396
v 0.36277842 10.82728407 15.29516767
v 0.36249500 10.82728407 15.29222468
v 0.36297870 10.82878127 15.29204120
v 0.36247610 10.82728407 15.29204120
v 0.36244209 10.82728407 15.29174763
v 0.36230982 10.82789656 15.28905417
v 0.36179965 10.82765393 15.28577357
v 0.36138396 10.82765393 15.28264710
v 0.36090402 10.82765393 15.27951329
v 0.36008775 10.82828122 15.27324566
v 0.36087379 10.83078444 15.27324566
v 0.36053745 10.83391791 15.26698537
v 0.36117233 10.83704841 15.26698537
v 0.36285400 10.83855153 15.27474284
v 0.36299004 10.84043339 15.27352454
v 0.36299760 10.84355206 15.27036137
v 0.36286156 10.84475929 15.26843118
v 0.36301272 10.84643994 15.26778534
v 0.36280487 10.84829517 15.26556158
v 0.36320545 10.84943138 15.26675786
v 0.36494003 10.85750916 15.27324566
v 0.36432405 10.85583739 15.27011918
v 0.36355312 10.85270392 15.26698537
v 0.34803263 10.85270392 15.22728061
v 0.35014134 10.85270392 15.23131714
v 0.34914745 10.85270392 15.22940897
v 0.35091981 10.85270392 15.23288038
v 0.35273375 10.85750916 15.23583071
v 0.35341020 10.85750916 15.23732056
v 0.35402240 10.85583739 15.23903058
v 0.35681132 10.85270392 15.24611285
v 0.35320991 10.85270392 15.23779027
v 0.35225381 10.85270392 15.23567659
v 0.34390592 10.82961567 15.22728061
v 0.34406465 10.82918664 15.22782371
v 0.34446900 10.82794686 15.22957042
v 0.34437830 10.82728407 15.22993005
v 0.36170895 10.82728407 15.28614787
v 0.36128193 10.82728407 15.28294800
v 0.36123658 10.82728407 15.28264710
v 0.36082088 10.82728407 15.27992428
v 0.36075664 10.82728407 15.27951329
v 0.36029937 10.82744089 15.27630608
v 0.35967961 10.82728407 15.27324566
v 0.35985722 10.82884637 15.27106593
v 0.36022002 10.83064537 15.27006047
v 0.35993281 10.83171353 15.26698537
v 0.35974385 10.83225797 15.26528269
v 0.35995171 10.83391791 15.26455611
v 0.36286156 10.84164357 15.27157233
v 0.36028048 10.83675548 15.26355799
v 0.36098338 10.84018188 15.26385889
v 0.36155401 10.84330943 15.26385889
v 0.36267639 10.84643994 15.26621476
v 0.36208308 10.84643994 15.26385889
v 0.36252901 10.84943138 15.26396164
v 0.36292580 10.85038119 15.26506251
v 0.36431271 10.85750916 15.27011918
v 0.36364760 10.85583739 15.26698537
v 0.36302028 10.85270392 15.26469556
v 0.34794949 10.85208255 15.22728061
v 0.34993726 10.84957341 15.23171346
v 0.35071952 10.84957341 15.23328403
v 0.35189102 10.84957341 15.23567659
v 0.35537151 10.85750916 15.24193688
v 0.35526948 10.85583739 15.24193688
v 0.35625581 10.85583739 15.24427072
v 0.35690959 10.85583739 15.24583396
v 0.35783166 10.85583739 15.24820451
v 0.35760493 10.85270392 15.24820451
v 0.35667906 10.85054689 15.24642110
v 0.35304741 10.84957341 15.23817190
v 0.34423092 10.83078444 15.22728061
v 0.34428383 10.83078444 15.22738336
v 0.34530039 10.83078444 15.22940897
v 0.34748467 10.83136438 15.23352622
v 0.34673642 10.83050631 15.23250608
v 0.34716723 10.82927540 15.23415005
v 0.34582946 10.82765393 15.23254278
v 0.34568207 10.82728407 15.23255746
v 0.36027670 10.82728407 15.27655561
v 0.36020868 10.82728407 15.27616664
v 0.35929037 10.82728407 15.27149160
v 0.35916188 10.82774270 15.27006047
v 0.35836829 10.82765393 15.26698537
v 0.35960403 10.82950619 15.26897428
v 0.35896915 10.83104186 15.26409375
v 0.35795259 10.83078444 15.26073242
v 0.35885579 10.83391791 15.26073242
v 0.35952090 10.83391791 15.26299288
v 0.35970228 10.83551867 15.26231768
v 0.36008775 10.84028545 15.26067371
v 0.36064327 10.84330943 15.26073242
v 0.36116855 10.84643994 15.26073242
v 0.36164093 10.84957341 15.26073242
v 0.36263104 10.85270392 15.26313232
v 0.36394992 10.85750916 15.26844586
v 0.36306941 10.85583739 15.26452676
v 0.36363248 10.85750916 15.26698537
v 0.34760560 10.84957341 15.22728061
v 0.34970296 10.84643994 15.23219784
v 0.34673642 10.84359940 15.22728061
v 0.34700095 10.84532148 15.22728061
v 0.34716346 10.84643994 15.22728061
v 0.35048522 10.84643994 15.23376841
v 0.35141487 10.84643994 15.23567659
v 0.35291892 10.84624466 15.23894985
v 0.35582878 10.85750916 15.24302307
v 0.35693604 10.85750916 15.24575323
v 0.35736684 10.85750916 15.24685410
v 0.35659970 10.85750916 15.24491657
v 0.35788457 10.85750916 15.24820451
v 0.35895026 10.85583739 15.25133098
v 0.36005374 10.85270392 15.25508128
v 0.35988745 10.84957341 15.25554365
v 0.35836451 10.84957341 15.25133098
v 0.35713254 10.84953199 15.24799901
v 0.35657702 10.84174418 15.24976774
v 0.35497093 10.84330943 15.24507069
v 0.35341398 10.84506997 15.24043970
v 0.35356513 10.84715599 15.24008741
v 0.34426493 10.83092350 15.22728061
v 0.34433673 10.83121939 15.22728061
v 0.34480534 10.83320186 15.22728061
v 0.34496783 10.83391791 15.22728061
v 0.34602219 10.83391791 15.22940897
v 0.34776810 10.83391791 15.23293909
v 0.34910966 10.83391791 15.23567659
v 0.35008842 10.83391791 15.23775357
v 0.35050790 10.83169578 15.23989660
v 0.34811199 10.83050631 15.23538303
v 0.34688758 10.82765393 15.23483993
v 0.34973320 10.83070455 15.23883976
v 0.35019046 10.82960680 15.24065987
v 0.34587481 10.82728407 15.23297579
v 0.35896160 10.82728407 15.27006781
v 0.35821335 10.82728407 15.26701473
v 0.35734417 10.82728407 15.26349928
v 0.35738951 10.82735212 15.26356533
v 0.35698516 10.82822795 15.26073242
v 0.35669417 10.82892625 15.25880223
v 0.35701540 10.83087321 15.25769402
v 0.35670173 10.83197687 15.25566107
v 0.35786190 10.83391791 15.25759861
v 0.35851189 10.83704841 15.25759861
v 0.35942642 10.83675548 15.26067371
v 0.35977409 10.84140095 15.25896369
v 0.35993281 10.84330943 15.25845729
v 0.35960781 10.84554932 15.25633627
v 0.36012932 10.84653167 15.25746650
v 0.36193570 10.85270392 15.26073242
v 0.36061682 10.84957341 15.25759861
v 0.36092291 10.85270392 15.25759861
v 0.36266505 10.85583739 15.26296352
v 0.36306185 10.85750916 15.26457079
v 0.34951780 10.84355206 15.23283634
v 0.34529661 10.83571396 15.22728061
v 0.35015645 10.84267031 15.23444361
v 0.35840608 10.85750916 15.24966500
v 0.35898427 10.85750916 15.25133098
v 0.36014066 10.85583739 15.25479506
v 0.35975897 10.84763533 15.25588125
v 0.35917700 10.84653167 15.25469231
v 0.35793748 10.84643994 15.25133098
v 0.35695871 10.84643994 15.24882100
v 0.35505030 10.83704841 15.24820451
v 0.35442298 10.84018188 15.24507069
v 0.35389769 10.84330943 15.24238457
v 0.35856857 10.84330943 15.25446480
v 0.35658080 10.83545061 15.25287954
v 0.35325148 10.84330943 15.24082133
v 0.35025848 10.83577017 15.23735726
v 0.35232939 10.84330943 15.23881041
v 0.35362182 10.84018188 15.24308913
v 0.34992215 10.84018188 15.23492066
v 0.35076866 10.83391791 15.23932415
v 0.35345176 10.83231715 15.24661191
v 0.34696316 10.82728407 15.23534633
v 0.34679689 10.82728407 15.23497937
v 0.35255991 10.83107737 15.24537160
v 0.35313810 10.83022817 15.24748527
v 0.35062504 10.82842028 15.24275152
v 0.34985034 10.82748823 15.24179743
v 0.35659592 10.82728407 15.26073242
v 0.35607819 10.82728407 15.25905910
v 0.35586657 10.82779004 15.25769402
v 0.35470640 10.82765393 15.25446480
v 0.35634651 10.82988789 15.25671791
v 0.35594215 10.83087321 15.25455286
v 0.35475931 10.83078444 15.25133098
v 0.35635029 10.83336459 15.25356942
v 0.35688691 10.83421084 15.25455286
v 0.35941886 10.84330943 15.25689405
v 0.36104006 10.85583739 15.25759861
v 0.36199994 10.85583739 15.26073242
v 0.36264993 10.85750916 15.26300756
v 0.35066283 10.84018188 15.23649124
v 0.35928281 10.85750916 15.25221902
v 0.35985722 10.85750916 15.25394372
v 0.36013310 10.85750916 15.25478038
v 0.36055257 10.85750916 15.25608674
v 0.35442676 10.83391791 15.24820451
v 0.35345932 10.83853970 15.24346342
v 0.35583256 10.83421084 15.25163922
v 0.35374652 10.83107737 15.24840266
v 0.34991459 10.82728407 15.24214971
v 0.35351223 10.82905053 15.24957692
v 0.35112766 10.82748823 15.24490923
v 0.35096516 10.82728407 15.24470373
v 0.35563227 10.82728407 15.25765732
v 0.35455147 10.82728407 15.25446480
v 0.35367850 10.82728407 15.25197682
v 0.35376920 10.82786401 15.25159519
v 0.36101739 10.85750916 15.25759861
v 0.36196971 10.85750916 15.26073242
v 0.36227958 10.85750916 15.26176724
v 0.36146332 10.85750916 15.25905910
v 0.35260527 10.82786401 15.24840266
v 0.35291514 10.82728407 15.24989985
v 0.35333084 10.82728407 15.25103007
f 1 2 3
f 1 3 4
f 1 4 5
f 1 5 6
f 1 6 7
f 1 7 2
f 2 8 3
f 2 7 9
f 2 9 10
f 2 10 11
f 2 11 8
f 3 8 12
f 3 12 13
f 3 13 14
f 3 14 4
f 4 14 15
f 4 15 16
f 4 16 17
f 4 17 5
f 5 17 16
f 5 16 15
f 5 15 32
f 5 32 31
f 5 31 45
f 5 45 44
f 5 44 43
f 5 43 42
f 5 42 63
f 5 63 62
f 5 62 89
f 5 89 109
f 5 109 141
f 5 141 175
f 5 175 212
f 5 212 251
f 5 251 253
f 5 253 309
f 5 309 350
f 5 350 370
f 5 370 369
f 5 369 371
f 5 371 368
f 5 368 355
f 5 355 354
f 5 354 353
f 5 353 352
f 5 352 314
f 5 314 313
f 5 313 266
f 5 266 264
f 5 264 263
f 5 263 265
f 5 265 262
f 5 262 219
f 5 219 183
f 5 183 182
f 5 182 148
f 5 148 147
f 5 147 146
f 5 146 113
f 5 113 91
f 5 91 65
f 5 65 46
f 5 46 33
f 5 33 18
f 5 18 6
f 6 18 7
f 7 18 19
f 7 19 20
f 7 20 9
f 8 21 12
f 8 11 22
f 8 22 21
f 9 20 23
f 9 23 24
f 9 24 10
f 10 24 23
f 10 23 20
f 10 20 19
f 10 19 33
f 10 33 46
f 10 46 64
f 10 64 90
f 10 90 110
f 10 110 118
f 10 118 117
f 10 117 95
f 10 95 93
f 10 93 68
f 10 68 50
f 10 50 36
f 10 36 25
f 10 25 22
f 10 22 11
f 12 26 27
f 12 27 13
f 12 21 26
f 13 27 28
f 13 28 29
f 13 29 30
f 13 30 14
f 14 30 31
f 14 31 32
f 14 32 15
f 18 33 19
f 21 22 34
f 21 34 35
f 21 35 26
f 22 25 36
f 22 36 34
f 26 37 38
f 26 38 27
f 26 35 37
f 27 38 39
f 27 39 28
f 28 39 40
f 28 40 29
f 29 40 41
f 29 41 42
f 29 42 43
f 29 43 44
f 29 44 45
f 29 45 30
f 30 45 31
f 34 47 48
f 34 48 49
f 34 49 35
f 34 36 50
f 34 50 47
f 35 51 37
f 35 49 51
f 37 51 52
f 37 52 53
f 37 53 38
f 38 53 54
f 38 54 55
f 38 55 39
f 39 55 56
f 39 56 57
f 39 57 58
f 39 58 59
f 39 59 40
f 40 59 60
f 40 60 41
f 41 60 61
f 41 61 62
f 41 62 63
f 41 63 42
f 46 65 66
f 46 66 64
f 47 67 48
f 47 50 68
f 47 68 67
f 48 69 70
f 48 70 49
f 48 67 71
f 48 71 72
f 48 72 69
f 49 70 51
f 51 73 52
f 51 70 73
f 52 74 75
f 52 75 54
f 52 54 53
f 52 73 74
f 54 56 55
f 54 75 76
f 54 76 77
f 54 77 78
f 54 78 79
f 54 79 80
f 54 80 81
f 54 81 56
f 56 81 82
f 56 82 83
f 56 83 57
f 57 84 58
f 57 83 85
f 57 85 84
f 58 85 83
f 58 83 86
f 58 86 87
f 58 87 60
f 58 60 59
f 58 84 85
f 60 87 86
f 60 86 88
f 60 88 61
f 61 88 89
f 61 89 62
f 64 66 92
f 64 92 116
f 64 116 152
f 64 152 191
f 64 191 234
f 64 234 289
f 64 289 333
f 64 333 332
f 64 332 360
f 64 360 363
f 64 363 373
f 64 373 374
f 64 374 366
f 64 366 365
f 64 365 364
f 64 364 339
f 64 339 338
f 64 338 292
f 64 292 291
f 64 291 290
f 64 290 237
f 64 237 198
f 64 198 236
f 64 236 235
f 64 235 196
f 64 196 195
f 64 195 194
f 64 194 193
f 64 193 192
f 64 192 159
f 64 159 158
f 64 158 156
f 64 156 155
f 64 155 154
f 64 154 153
f 64 153 142
f 64 142 111
f 64 111 90
f 65 91 112
f 65 112 143
f 65 143 178
f 65 178 215
f 65 215 254
f 65 254 258
f 65 258 257
f 65 257 256
f 65 256 311
f 65 311 279
f 65 279 278
f 65 278 277
f 65 277 276
f 65 276 227
f 65 227 188
f 65 188 151
f 65 151 115
f 65 115 92
f 65 92 66
f 67 68 93
f 67 93 71
f 69 72 74
f 69 74 70
f 70 74 73
f 71 94 72
f 71 93 95
f 71 95 94
f 72 94 96
f 72 96 97
f 72 97 74
f 74 97 76
f 74 76 75
f 76 97 98
f 76 98 99
f 76 99 77
f 77 99 100
f 77 100 78
f 78 100 101
f 78 101 102
f 78 102 80
f 78 80 79
f 80 102 103
f 80 103 81
f 81 103 104
f 81 104 105
f 81 105 82
f 82 105 83
f 83 105 106
f 83 106 86
f 86 106 107
f 86 107 108
f 86 108 88
f 88 109 89
f 88 108 109
f 90 111 110
f 91 113 114
f 91 114 112
f 92 115 116
f 94 95 117
f 94 117 118
f 94 118 110
f 94 110 119
f 94 119 120
f 94 120 96
f 96 120 121
f 96 121 122
f 96 122 97
f 97 122 123
f 97 123 98
f 98 123 124
f 98 124 125
f 98 125 126
f 98 126 99
f 99 126 100
f 100 127 128
f 100 128 129
f 100 129 130
f 100 130 131
f 100 131 101
f 100 126 127
f 101 131 132
f 101 132 133
f 101 133 102
f 102 133 103
f 103 133 134
f 103 134 104
f 104 134 135
f 104 135 105
f 105 135 136
f 105 136 137
f 105 137 106
f 106 137 138
f 106 138 107
f 107 139 108
f 107 138 140
f 107 140 139
f 108 139 141
f 108 141 109
f 110 111 119
f 111 142 119
f 112 114 144
f 112 144 145
f 112 145 143
f 113 146 114
f 114 145 144
f 114 146 147
f 114 147 148
f 114 148 149
f 114 149 150
f 114 150 145
f 115 151 116
f 116 151 152
f 119 142 120
f 120 142 153
f 120 153 154
f 120 154 121
f 121 154 155
f 121 155 156
f 121 156 157
f 121 157 122
f 122 157 123
f 123 157 124
f 124 157 158
f 124 158 159
f 124 159 160
f 124 160 161
f 124 161 162
f 124 162 127
f 124 127 125
f 125 127 126
f 127 162 128
f 128 162 163
f 128 163 164
f 128 164 129
f 129 164 165
f 129 165 130
f 130 166 167
f 130 167 168
f 130 168 132
f 130 132 131
f 130 165 166
f 132 168 134
f 132 134 133
f 134 168 136
f 134 136 135
f 136 168 169
f 136 169 170
f 136 170 137
f 137 170 171
f 137 171 172
f 137 172 138
f 138 172 173
f 138 173 174
f 138 174 140
f 139 175 141
f 139 140 176
f 139 176 175
f 140 174 177
f 140 177 176
f 143 145 178
f 145 179 180
f 145 180 178
f 145 150 181
f 145 181 179
f 148 182 149
f 149 182 183
f 149 183 184
f 149 184 185
f 149 185 186
f 149 186 187
f 149 187 150
f 150 187 181
f 151 188 189
f 151 189 152
f 152 189 190
f 152 190 191
f 156 158 157
f 159 192 161
f 159 161 160
f 161 192 162
f 162 192 193
f 162 193 194
f 162 194 195
f 162 195 163
f 163 195 196
f 163 196 197
f 163 197 164
f 164 197 198
f 164 198 199
f 164 199 165
f 165 199 200
f 165 200 201
f 165 201 166
f 166 201 202
f 166 202 203
f 166 203 167
f 167 171 170
f 167 170 204
f 167 204 169
f 167 169 168
f 167 203 205
f 167 205 206
f 167 206 207
f 167 207 208
f 167 208 171
f 169 204 170
f 171 208 172
f 172 208 173
f 173 208 209
f 173 209 210
f 173 210 211
f 173 211 174
f 174 211 177
f 175 176 212
f 176 177 213
f 176 213 212
f 177 211 214
f 177 214 213
f 178 180 216
f 178 216 215
f 179 216 180
f 179 181 217
f 179 217 216
f 181 187 218
f 181 218 217
f 183 219 220
f 183 220 184
f 184 220 185
f 185 220 221
f 185 221 222
f 185 222 223
f 185 223 224
f 185 224 225
f 185 225 226
f 185 226 186
f 186 226 187
f 187 226 218
f 188 227 228
f 188 228 189
f 189 229 230
f 189 230 231
f 189 231 232
f 189 232 233
f 189 233 190
f 189 228 229
f 190 233 191
f 191 233 234
f 196 235 197
f 197 235 236
f 197 236 198
f 198 237 199
f 199 237 238
f 199 238 239
f 199 239 240
f 199 240 202
f 199 202 201
f 199 201 200
f 202 241 242
f 202 242 243
f 202 243 244
f 202 244 203
f 202 240 241
f 203 244 245
f 203 245 205
f 205 245 207
f 205 207 206
f 207 209 208
f 207 245 246
f 207 246 247
f 207 247 209
f 209 247 248
f 209 248 249
f 209 249 210
f 210 249 250
f 210 250 211
f 211 250 214
f 212 213 251
f 213 214 252
f 213 252 253
f 213 253 251
f 214 250 252
f 215 216 254
f 216 255 256
f 216 256 257
f 216 257 258
f 216 258 254
f 216 217 259
f 216 259 255
f 217 218 259
f 218 260 259
f 218 226 261
f 218 261 260
f 219 262 221
f 219 221 220
f 221 262 222
f 222 263 264
f 222 264 223
f 222 262 265
f 222 265 263
f 223 264 266
f 223 266 267
f 223 267 224
f 224 267 268
f 224 268 269
f 224 269 270
f 224 270 225
f 225 270 271
f 225 271 272
f 225 272 273
f 225 273 274
f 225 274 275
f 225 275 226
f 226 275 261
f 227 276 228
f 228 276 277
f 228 277 229
f 229 277 278
f 229 278 230
f 230 232 231
f 230 278 279
f 230 279 280
f 230 280 281
f 230 281 282
f 230 282 283
f 230 283 284
f 230 284 285
f 230 285 232
f 232 286 233
f 232 285 287
f 232 287 288
f 232 288 286
f 233 286 289
f 233 289 234
f 237 290 238
f 238 290 291
f 238 291 239
f 239 291 292
f 239 292 293
f 239 293 240
f 240 293 241
f 241 293 294
f 241 294 242
f 242 294 295
f 242 295 296
f 242 296 297
f 242 297 243
f 243 297 298
f 243 298 245
f 243 245 244
f 245 298 299
f 245 299 300
f 245 300 301
f 245 301 246
f 246 301 247
f 247 301 248
f 248 301 302
f 248 302 303
f 248 303 304
f 248 304 249
f 249 305 250
f 249 304 306
f 249 306 307
f 249 307 305
f 250 308 252
f 250 305 308
f 252 308 309
f 252 309 253
f 255 259 310
f 255 310 256
f 256 310 311
f 259 260 312
f 259 312 310
f 260 261 274
f 260 274 312
f 261 275 274
f 266 313 267
f 267 314 315
f 267 315 307
f 267 307 268
f 267 313 314
f 268 307 306
f 268 306 269
f 269 306 316
f 269 316 270
f 270 316 317
f 270 317 318
f 270 318 271
f 271 319 272
f 271 318 319
f 272 320 321
f 272 321 322
f 272 322 273
f 272 319 318
f 272 318 323
f 272 323 324
f 272 324 320
f 273 322 274
f 274 325 283
f 274 283 326
f 274 326 327
f 274 327 312
f 274 322 328
f 274 328 325
f 279 311 310
f 279 310 312
f 279 312 280
f 280 312 281
f 281 312 329
f 281 329 282
f 282 329 326
f 282 326 283
f 283 325 330
f 283 330 284
f 284 288 287
f 284 287 285
f 284 330 331
f 284 331 288
f 286 332 333
f 286 333 289
f 286 288 332
f 288 331 334
f 288 334 335
f 288 335 336
f 288 336 337
f 288 337 332
f 292 338 294
f 292 294 293
f 294 338 295
f 295 338 339
f 295 339 340
f 295 340 341
f 295 341 342
f 295 342 296
f 296 342 297
f 297 343 344
f 297 344 345
f 297 345 298
f 297 342 343
f 298 345 346
f 298 346 324
f 298 324 299
f 299 347 301
f 299 301 300
f 299 324 347
f 301 347 302
f 302 347 303
f 303 306 304
f 303 347 323
f 303 323 317
f 303 317 316
f 303 316 306
f 305 307 315
f 305 315 348
f 305 348 349
f 305 349 308
f 308 349 350
f 308 350 309
f 312 327 351
f 312 351 326
f 312 326 329
f 314 352 315
f 315 352 353
f 315 353 354
f 315 354 355
f 315 355 348
f 317 323 318
f 320 356 357
f 320 357 321
f 320 324 356
f 321 357 328
f 321 328 322
f 323 347 324
f 324 346 345
f 324 345 358
f 324 358 356
f 325 328 330
f 326 351 327
f 328 357 330
f 330 357 331
f 331 357 356
f 331 356 358
f 331 358 345
f 331 345 344
f 331 344 359
f 331 359 335
f 331 335 334
f 332 337 360
f 335 359 344
f 335 344 361
f 335 361 362
f 335 362 336
f 336 362 363
f 336 363 360
f 336 360 337
f 339 364 340
f 340 364 365
f 340 365 341
f 341 365 366
f 341 366 367
f 341 367 361
f 341 361 342
f 342 361 343
f 343 361 344
f 348 355 368
f 348 368 349
f 349 369 370
f 349 370 350
f 349 368 371
f 349 371 369
f 361 372 362
f 361 367 366
f 361 366 372
f 362 372 363
f 363 372 373
f 366 374 372
f 372 374 373

