# https://github.com/mikedh/trimesh
v 0.06689027 10.89225821 15.30225729
v 0.06845027 10.89219473 15.30225729
v 0.06908285 10.89215239 15.28890851
v 0.06717001 10.89210477 15.28577923
v 0.06657777 10.89211536 15.28861028
v 0.06523198 10.89190372 15.29204199
v 0.06517906 10.89193547 15.30225729
v 0.06903748 10.89216827 15.30225729
v 0.06917609 10.89203600 15.27951648
v 0.06786559 10.89203600 15.27951648
v 0.07315297 10.89073974 15.25934630
v 0.06532775 10.89185081 15.28736697
v 0.06526474 10.89188785 15.28945456
v 0.06365181 10.89085613 15.29517126
v 0.06363669 10.89086143 15.29830474
v 0.06402481 10.89112068 15.30225729
v 0.06944576 10.89184023 15.30225729
v 0.07582438 10.88947521 15.25934630
v 0.07443827 10.89020536 15.25934630
v 0.06912317 10.89198309 15.27751710
v 0.06810753 10.89198309 15.27751710
v 0.07140143 10.89071857 15.25934630
v 0.06630054 10.89150691 15.27951648
v 0.06401221 10.88974505 15.27638720
v 0.06376018 10.89027943 15.28264575
v 0.06376018 10.89055456 15.28577923
v 0.06403741 10.89094608 15.28861028
v 0.06366946 10.89079793 15.29204199
v 0.06159786 10.88929003 15.29517126
v 0.06362157 10.89082967 15.30143822
v 0.06158777 10.88929532 15.29830474
v 0.06361653 10.89081381 15.30225729
v 0.07060253 10.89087729 15.30225729
v 0.07159296 10.88971860 15.30225729
v 0.07193823 10.88931120 15.30225729
v 0.07693831 10.88715253 15.25934630
v 0.07002036 10.89065509 15.26072822
v 0.07002036 10.89045932 15.25934630
v 0.06689027 10.89053868 15.27012445
v 0.06689027 10.89010483 15.26699097
v 0.06433478 10.88950696 15.27325372
v 0.06244464 10.88848053 15.27638720
v 0.06226570 10.88864984 15.27841598
v 0.06349052 10.88974505 15.27948288
v 0.06211449 10.88879799 15.28050356
v 0.06199352 10.88891438 15.28264575
v 0.06184735 10.88905195 15.28577923
v 0.06174906 10.88915248 15.28890851
v 0.06166085 10.88923184 15.29204199
v 0.06003029 10.88763929 15.29517126
v 0.06002273 10.88766574 15.29830474
v 0.06005045 10.88763929 15.30143822
v 0.06161550 10.88926358 15.30143822
v 0.06163062 10.88924771 15.30225729
v 0.07200628 10.88872391 15.30225729
v 0.07199368 10.88698851 15.30225729
v 0.07665353 10.88401504 15.25934630
v 0.06861913 10.88977680 15.25934630
v 0.06751528 10.88943289 15.26072822
v 0.06672646 10.88953871 15.26405491
v 0.06469013 10.88925300 15.27012445
v 0.06505557 10.88895142 15.26699097
v 0.06277227 10.88814192 15.27325372
v 0.06133827 10.88657582 15.27325372
v 0.06104593 10.88691444 15.27638720
v 0.06104089 10.88742765 15.27948288
v 0.05910789 10.88552294 15.28152846
v 0.06018150 10.88688269 15.28260375
v 0.06028231 10.88733771 15.28577923
v 0.06018402 10.88744881 15.28890851
v 0.06009582 10.88754405 15.29204199
v 0.05866434 10.88607319 15.29517126
v 0.05863914 10.88609964 15.29830474
v 0.05866434 10.88607319 15.30143822
v 0.06006305 10.88761283 15.30225729
v 0.06047384 10.88805198 15.30225729
v 0.06479850 10.83820671 15.30225729
v 0.06973053 10.83820671 15.25934630
v 0.06773958 10.88927417 15.25934630
v 0.06527230 10.88876625 15.26522682
v 0.06312761 10.88774511 15.27012445
v 0.06168353 10.88617900 15.27012445
v 0.05977323 10.88460762 15.27325372
v 0.05948088 10.88501502 15.27638720
v 0.05924398 10.88534834 15.27951648
v 0.05900457 10.88566050 15.28361604
v 0.05814265 10.88378225 15.27951648
v 0.05814770 10.88429546 15.28260375
v 0.05891384 10.88577161 15.28577923
v 0.05882563 10.88588272 15.28890851
v 0.05874247 10.88597796 15.29204199
v 0.05746221 10.88402033 15.28890851
v 0.05732107 10.88402033 15.29204199
v 0.05719002 10.88402033 15.29517126
v 0.05713962 10.88402033 15.29830474
v 0.05718750 10.88402033 15.30143822
v 0.05722531 10.88402033 15.30225729
v 0.05868702 10.88604673 15.30225729
v 0.05260325 10.83820671 15.30225729
v 0.05736896 10.83820671 15.25934630
v 0.06617453 10.88780859 15.25934630
v 0.06595023 10.88807314 15.26072822
v 0.06557221 10.88847524 15.26313923
v 0.06197336 10.88585098 15.26774704
v 0.05995468 10.88385102 15.27001524
v 0.05890376 10.88269761 15.27098553
v 0.05867694 10.88304153 15.27325372
v 0.05838208 10.88344892 15.27638720
v 0.05765374 10.88402033 15.28577923
v 0.05657761 10.88127437 15.27951648
v 0.05639616 10.88164473 15.28264575
v 0.05623739 10.88192515 15.28577923
v 0.05613154 10.88210504 15.28890851
v 0.05607610 10.88220028 15.29204199
v 0.05602317 10.88227964 15.29517126
v 0.05599545 10.88232726 15.29830474
v 0.05602065 10.88228493 15.30143822
v 0.05603577 10.88225318 15.30225729
v 0.05636340 10.88273994 15.30225729
v 0.05260829 10.83820671 15.30191286
v 0.05228572 10.84018020 15.30225729
v 0.05553929 10.83820671 15.26699097
v 0.05724799 10.83880458 15.25934630
v 0.06539580 10.88693560 15.25934630
v 0.06477834 10.88624250 15.25934630
v 0.06455908 10.88650704 15.26072822
v 0.06429950 10.88732183 15.26405491
v 0.06225814 10.88550178 15.26565946
v 0.06107617 10.88428487 15.26681876
v 0.05914065 10.88231138 15.26889794
v 0.05827371 10.88111564 15.27001524
v 0.05748741 10.88088814 15.27325372
v 0.05673134 10.88065005 15.27652161
v 0.05587196 10.87944373 15.27765571
v 0.05573335 10.87970827 15.27951648
v 0.05554181 10.88007864 15.28264575
v 0.05539060 10.88035906 15.28577923
v 0.05529483 10.88053895 15.28890851
v 0.05526206 10.88063417 15.29204199
v 0.05526459 10.88071883 15.29517126
v 0.05526711 10.88076115 15.29830474
v 0.05526711 10.88071883 15.30143822
v 0.05582911 10.88184579 15.30225729
v 0.05261585 10.83820671 15.30143822
v 0.05230084 10.84018020 15.30143822
v 0.05187744 10.84331240 15.30225729
v 0.05187744 10.84331240 15.30143822
v 0.05546620 10.83820671 15.26740261
v 0.05462698 10.84018020 15.27012445
v 0.05518898 10.84018020 15.26699097
v 0.05665070 10.84018020 15.26072822
v 0.05697580 10.84018020 15.25934630
v 0.05714718 10.83931250 15.25934630
v 0.06251773 10.88513671 15.26386169
v 0.06318809 10.88415260 15.25934630
v 0.06299404 10.88449122 15.26072822
v 0.06141388 10.88357590 15.26386169
v 0.06187003 10.88292512 15.26072822
v 0.06206913 10.88263413 15.25934630
v 0.05939519 10.88185636 15.26699097
v 0.05909277 10.87926385 15.26241677
v 0.05657761 10.87758135 15.27018745
v 0.05630796 10.87844905 15.27325372
v 0.05563758 10.87688296 15.27325372
v 0.05543092 10.87786176 15.27652161
v 0.05492689 10.87775595 15.27951648
v 0.05456397 10.87775595 15.28264575
v 0.05428423 10.87775595 15.28577923
v 0.05410025 10.87775595 15.28890851
v 0.05398936 10.87775595 15.29204199
v 0.05394400 10.87775595 15.29517126
v 0.05395408 10.87775595 15.29830474
v 0.05397424 10.87775595 15.30143822
v 0.05431951 10.87850196 15.30225729
v 0.05527467 10.88068709 15.30225729
v 0.05273935 10.83820671 15.29523007
v 0.05162794 10.84644459 15.30225729
v 0.05161282 10.84644459 15.30143822
v 0.05168338 10.84644459 15.29830474
v 0.05198328 10.84331240 15.29830474
v 0.05276707 10.83845009 15.29313408
v 0.05506046 10.83820671 15.27008665
v 0.05314762 10.83820671 15.28890851
v 0.05292584 10.83950827 15.28890851
v 0.05319803 10.84331240 15.27951648
v 0.05279983 10.84489437 15.28109582
v 0.05308966 10.84644459 15.27638720
v 0.05347525 10.84644459 15.27325372
v 0.05396416 10.84644459 15.27012445
v 0.05452869 10.84644459 15.26699097
v 0.05518394 10.84644459 15.26386169
v 0.05618194 10.84319071 15.26081643
v 0.05673386 10.84182038 15.25934630
v 0.06102829 10.88090401 15.25934630
v 0.06058473 10.88088814 15.26072822
v 0.05970770 10.88080877 15.26362227
v 0.05934479 10.87876121 15.26072822
v 0.05880547 10.87677184 15.25934630
v 0.05862654 10.87719512 15.26072822
v 0.05829387 10.87803636 15.26362227
v 0.05583919 10.87641735 15.27127535
v 0.05488908 10.87462375 15.27325372
v 0.05435984 10.87462375 15.27638720
v 0.05391880 10.87462375 15.27951648
v 0.05357102 10.87462375 15.28264575
v 0.05321063 10.87433276 15.28601445
v 0.05317030 10.87479835 15.28890851
v 0.05309218 10.87504702 15.29204199
v 0.05304429 10.87518458 15.29517126
v 0.05305185 10.87517929 15.29830474
v 0.05307201 10.87508934 15.30143822
v 0.05399692 10.87775595 15.30225729
v 0.05279983 10.83820671 15.29341131
v 0.05157502 10.84726468 15.30225729
v 0.05139356 10.85039687 15.30225729
v 0.05126250 10.85270898 15.30225729
v 0.05126250 10.85270898 15.30143822
v 0.05193288 10.84644459 15.29204199
v 0.05152210 10.84957679 15.29830474
v 0.05164054 10.84957679 15.29517126
v 0.05226304 10.84331240 15.29204199
v 0.05283763 10.83892627 15.29104650
v 0.05293340 10.83820671 15.29148754
v 0.05282755 10.83820671 15.29291986
v 0.05242684 10.84331240 15.28890851
v 0.05303169 10.83820671 15.29023163
v 0.05277463 10.84158228 15.28708135
v 0.05231092 10.84644459 15.28577923
v 0.05259569 10.84613772 15.28233913
v 0.05270659 10.85015349 15.27693325
v 0.05285275 10.84613772 15.27924345
v 0.05280235 10.85119579 15.27484567
v 0.05316274 10.84957679 15.27325372
v 0.05365671 10.84957679 15.27012445
v 0.05425147 10.84957679 15.26699097
v 0.05492689 10.84957679 15.26386169
v 0.05573083 10.84644459 15.26142968
v 0.05608618 10.84644459 15.25986294
v 0.05627771 10.84573562 15.25934630
v 0.05652720 10.84324890 15.25934630
v 0.05953381 10.87827445 15.25934630
v 0.05806957 10.87464492 15.25934630
v 0.05768650 10.87462375 15.26072822
v 0.05607357 10.87576129 15.26918777
v 0.05550653 10.87468195 15.27018745
v 0.05466982 10.87149156 15.27012445
v 0.05410529 10.87149156 15.27325372
v 0.05363402 10.87149156 15.27638720
v 0.05315014 10.87124818 15.27972650
v 0.05298381 10.87207355 15.28264575
v 0.05287292 10.87267142 15.28512817
v 0.05278975 10.87309999 15.28721576
v 0.05275447 10.87323226 15.28890851
v 0.05269399 10.87348092 15.29204199
v 0.05266877 10.87361849 15.29517126
v 0.05266625 10.87361320 15.29830474
v 0.05268643 10.87352325 15.30143822
v 0.05270407 10.87345976 15.30225729
v 0.05296365 10.87451265 15.30225729
v 0.05307201 10.87494121 15.30225729
v 0.05333160 10.87578775 15.30225729
v 0.05124234 10.85352906 15.30225729
v 0.05119698 10.85584117 15.30143822
v 0.05130030 10.85584117 15.29830474
v 0.05140868 10.85584117 15.29517126
v 0.05209670 10.84644459 15.28890851
v 0.05178420 10.84957679 15.29204199
v 0.05193288 10.84957679 15.28890851
v 0.05210678 10.84957679 15.28577923
v 0.05263349 10.85242856 15.27608898
v 0.05275699 10.85328568 15.27451804
v 0.05295356 10.85242856 15.27338814
v 0.05349289 10.85270898 15.27012445
v 0.05411538 10.85270898 15.26699097
v 0.05481096 10.85270898 15.26386169
v 0.05560733 10.84957679 15.26100124
v 0.05599797 10.84957679 15.25943451
v 0.05621723 10.84644459 15.25934630
v 0.05720514 10.87149156 15.25934630
v 0.05681703 10.87149156 15.26072822
v 0.05598033 10.87286718 15.26562585
v 0.05573083 10.87367668 15.26771344
v 0.05694052 10.87462375 15.26386169
v 0.05572074 10.87078258 15.26455056
v 0.05473787 10.86836465 15.26699097
v 0.05407757 10.86836465 15.27012445
v 0.05542336 10.87169261 15.26679776
v 0.05351557 10.86836465 15.27325372
v 0.05277715 10.87004186 15.28090260
v 0.05269147 10.87050746 15.28264575
v 0.05259821 10.87157092 15.28601445
v 0.05239660 10.87149156 15.28890851
v 0.05226808 10.87149156 15.29204199
v 0.05223532 10.87149156 15.29517126
v 0.05226052 10.87149156 15.29830474
v 0.05231848 10.87149156 15.30143822
v 0.05245457 10.87208943 15.30225729
v 0.05119446 10.85584117 15.30225729
v 0.05119194 10.85666126 15.30225729
v 0.05138348 10.86210556 15.29517126
v 0.05135072 10.85897337 15.29517126
v 0.05147672 10.85897337 15.29204199
v 0.05239156 10.85270898 15.27951648
v 0.05231344 10.85584117 15.27951648
v 0.05253017 10.85584117 15.27638720
v 0.05273683 10.85584117 15.27434582
v 0.05294852 10.85584117 15.27277908
v 0.05340720 10.85584117 15.27012445
v 0.05407757 10.85584117 15.26699097
v 0.05481600 10.85584117 15.26386169
v 0.05556197 10.85270898 15.26090463
v 0.05602317 10.84957679 15.25934630
v 0.05603073 10.84942864 15.25934630
v 0.05597529 10.85270898 15.25934630
v 0.05598033 10.85237566 15.25934630
v 0.05666582 10.86843873 15.25934630
v 0.05597277 10.86964504 15.26246297
v 0.05615422 10.87169261 15.26364748
v 0.05551661 10.86850751 15.26364748
v 0.05436992 10.86523246 15.26699097
v 0.05369451 10.86523246 15.27012445
v 0.05306949 10.86501025 15.27351835
v 0.05288300 10.86589911 15.27563533
v 0.05305689 10.86816360 15.27656362
v 0.05290316 10.86907892 15.27881922
v 0.05268391 10.86816360 15.27972650
v 0.05241676 10.86836465 15.28264575
v 0.05214710 10.86836465 15.28577923
v 0.05191020 10.86836465 15.28890851
v 0.05177916 10.86836465 15.29204199
v 0.05174890 10.86836465 15.29517126
v 0.05180436 10.86836465 15.29830474
v 0.05236132 10.87156564 15.30225729
v 0.05189508 10.86836465 15.30225729
v 0.05122722 10.85897337 15.30225729
v 0.05147924 10.86210556 15.29204199
v 0.05132552 10.86210556 15.30225729
v 0.05149184 10.86523246 15.29517126
v 0.05156494 10.86523246 15.29204199
v 0.05167330 10.85897337 15.28890851
v 0.05162794 10.86210556 15.28890851
v 0.05184972 10.86210556 15.28577923
v 0.05230084 10.86210556 15.27951648
v 0.05254781 10.85897337 15.27638720
v 0.05274943 10.85897337 15.27445083
v 0.05297121 10.85897337 15.27288829
v 0.05346265 10.85897337 15.27012445
v 0.05411538 10.85897337 15.26699097
v 0.05484876 10.85897337 15.26386169
v 0.05556449 10.85584117 15.26098024
v 0.05597529 10.85273014 15.25934630
v 0.05625755 10.86850751 15.26081643
v 0.05651208 10.86701019 15.25934630
v 0.05582155 10.86756045 15.26192113
v 0.05510834 10.86523246 15.26386169
v 0.05419098 10.86210556 15.26699097
v 0.05355338 10.86210556 15.27012445
v 0.05301405 10.86210556 15.27306891
v 0.05278723 10.86381451 15.27473645
v 0.05269903 10.86501025 15.27656362
v 0.05241424 10.86523246 15.27951648
v 0.05216222 10.86523246 15.28264575
v 0.05192784 10.86523246 15.28577923
v 0.05169850 10.86523246 15.28890851
v 0.05149688 10.86523246 15.29830474
v 0.05156242 10.86523246 15.30225729
v 0.05257301 10.86210556 15.27638720
v 0.05277211 10.86210556 15.27463565
v 0.05492941 10.86210556 15.26386169
v 0.05558969 10.85897337 15.26104324
v 0.05605089 10.85897337 15.25934630
v 0.05633820 10.86523246 15.25934630
v 0.05572327 10.86523246 15.26155149
v 0.05613910 10.86210556 15.25934630
v 0.05628023 10.86440180 15.25934630
f 1 2 3
f 1 3 4
f 1 4 5
f 1 5 6
f 1 6 7
f 1 7 16
f 1 16 32
f 1 32 54
f 1 54 76
f 1 76 75
f 1 75 98
f 1 98 97
f 1 97 119
f 1 119 118
f 1 118 143
f 1 143 175
f 1 175 174
f 1 174 212
f 1 212 261
f 1 261 260
f 1 260 259
f 1 259 258
f 1 258 297
f 1 297 333
f 1 333 334
f 1 334 366
f 1 366 337
f 1 337 335
f 1 335 299
f 1 299 298
f 1 298 262
f 1 262 216
f 1 216 215
f 1 215 214
f 1 214 177
f 1 177 146
f 1 146 121
f 1 121 99
f 1 99 77
f 1 77 56
f 1 56 55
f 1 55 35
f 1 35 34
f 1 34 33
f 1 33 17
f 1 17 8
f 1 8 2
f 2 8 3
f 3 9 10
f 3 10 4
f 3 8 11
f 3 11 9
f 4 10 5
f 5 10 12
f 5 12 13
f 5 13 6
f 6 13 14
f 6 14 7
f 7 14 15
f 7 15 16
f 8 17 18
f 8 18 19
f 8 19 11
f 9 20 21
f 9 21 10
f 9 11 20
f 10 21 12
f 11 22 21
f 11 21 20
f 11 19 18
f 11 18 36
f 11 36 57
f 11 57 78
f 11 78 100
f 11 100 123
f 11 123 153
f 11 153 152
f 11 152 193
f 11 193 240
f 11 240 239
f 11 239 278
f 11 278 313
f 11 313 312
f 11 312 315
f 11 315 314
f 11 314 351
f 11 351 371
f 11 371 374
f 11 374 375
f 11 375 372
f 11 372 353
f 11 353 316
f 11 316 279
f 11 279 242
f 11 242 198
f 11 198 241
f 11 241 194
f 11 194 159
f 11 159 155
f 11 155 125
f 11 125 124
f 11 124 101
f 11 101 79
f 11 79 58
f 11 58 38
f 11 38 22
f 12 21 23
f 12 23 24
f 12 24 25
f 12 25 26
f 12 26 27
f 12 27 13
f 13 27 28
f 13 28 14
f 14 28 29
f 14 29 15
f 15 30 16
f 15 29 31
f 15 31 30
f 16 30 32
f 17 33 18
f 18 33 34
f 18 34 35
f 18 35 36
f 21 22 37
f 21 37 23
f 22 38 37
f 23 37 39
f 23 39 40
f 23 40 41
f 23 41 24
f 24 41 42
f 24 42 43
f 24 43 44
f 24 44 25
f 25 44 45
f 25 45 46
f 25 46 26
f 26 46 47
f 26 47 27
f 27 47 48
f 27 48 49
f 27 49 28
f 28 49 29
f 29 49 50
f 29 50 51
f 29 51 31
f 30 31 32
f 31 51 52
f 31 52 53
f 31 53 32
f 32 53 54
f 35 55 36
f 36 55 56
f 36 56 57
f 37 38 40
f 37 40 39
f 38 58 40
f 40 58 59
f 40 59 60
f 40 60 61
f 40 61 41
f 41 61 42
f 42 61 62
f 42 62 63
f 42 63 64
f 42 64 65
f 42 65 43
f 43 45 44
f 43 65 66
f 43 66 45
f 45 66 67
f 45 67 68
f 45 68 46
f 46 68 69
f 46 69 47
f 47 69 70
f 47 70 48
f 48 70 71
f 48 71 49
f 49 71 50
f 50 71 72
f 50 72 73
f 50 73 51
f 51 73 74
f 51 74 52
f 52 75 76
f 52 76 53
f 52 74 75
f 53 76 54
f 56 77 57
f 57 77 78
f 58 79 59
f 59 79 80
f 59 80 60
f 60 80 62
f 60 62 61
f 62 80 63
f 63 80 81
f 63 81 82
f 63 82 64
f 64 82 83
f 64 83 84
f 64 84 65
f 65 84 85
f 65 85 66
f 66 85 67
f 67 86 68
f 67 85 87
f 67 87 88
f 67 88 86
f 68 86 69
f 69 86 89
f 69 89 70
f 70 89 90
f 70 90 71
f 71 90 91
f 71 91 72
f 72 91 92
f 72 92 93
f 72 93 94
f 72 94 95
f 72 95 73
f 73 95 74
f 74 95 96
f 74 96 97
f 74 97 98
f 74 98 75
f 77 99 120
f 77 120 144
f 77 144 176
f 77 176 213
f 77 213 224
f 77 224 223
f 77 223 226
f 77 226 183
f 77 183 182
f 77 182 148
f 77 148 122
f 77 122 100
f 77 100 78
f 79 101 102
f 79 102 103
f 79 103 80
f 80 103 104
f 80 104 82
f 80 82 81
f 82 104 83
f 83 104 105
f 83 105 106
f 83 106 107
f 83 107 108
f 83 108 84
f 84 108 87
f 84 87 85
f 86 88 109
f 86 109 89
f 87 108 110
f 87 110 111
f 87 111 112
f 87 112 88
f 88 112 109
f 89 109 92
f 89 92 90
f 90 92 91
f 92 109 113
f 92 113 93
f 93 113 94
f 94 113 114
f 94 114 115
f 94 115 116
f 94 116 95
f 95 116 96
f 96 116 117
f 96 117 118
f 96 118 119
f 96 119 97
f 99 121 120
f 100 122 123
f 101 124 102
f 102 124 125
f 102 125 126
f 102 126 103
f 103 126 127
f 103 127 104
f 104 127 128
f 104 128 129
f 104 129 105
f 105 129 130
f 105 130 106
f 106 130 131
f 106 131 132
f 106 132 133
f 106 133 107
f 107 133 110
f 107 110 108
f 109 112 113
f 110 133 134
f 110 134 135
f 110 135 136
f 110 136 111
f 111 136 112
f 112 136 137
f 112 137 113
f 113 137 138
f 113 138 114
f 114 138 115
f 115 138 139
f 115 139 116
f 116 139 140
f 116 140 141
f 116 141 142
f 116 142 117
f 117 142 143
f 117 143 118
f 120 121 144
f 121 145 144
f 121 146 147
f 121 147 145
f 122 148 149
f 122 149 150
f 122 150 151
f 122 151 152
f 122 152 153
f 122 153 123
f 125 154 126
f 125 155 156
f 125 156 154
f 126 154 128
f 126 128 127
f 128 154 157
f 128 157 129
f 129 157 130
f 130 157 158
f 130 158 159
f 130 159 160
f 130 160 161
f 130 161 131
f 131 161 162
f 131 162 163
f 131 163 132
f 132 163 134
f 132 134 133
f 134 163 164
f 134 164 165
f 134 165 166
f 134 166 135
f 135 166 167
f 135 167 136
f 136 167 168
f 136 168 137
f 137 168 169
f 137 169 138
f 138 169 170
f 138 170 139
f 139 170 171
f 139 171 140
f 140 171 141
f 141 171 172
f 141 172 142
f 142 172 173
f 142 173 174
f 142 174 175
f 142 175 143
f 144 145 176
f 145 147 176
f 146 177 178
f 146 178 147
f 147 178 179
f 147 179 180
f 147 180 181
f 147 181 176
f 148 182 149
f 149 182 183
f 149 183 184
f 149 184 185
f 149 185 186
f 149 186 187
f 149 187 188
f 149 188 189
f 149 189 150
f 150 189 190
f 150 190 191
f 150 191 192
f 150 192 151
f 151 192 152
f 152 192 193
f 154 156 159
f 154 159 158
f 154 158 157
f 155 159 156
f 159 194 195
f 159 195 160
f 160 195 196
f 160 196 161
f 161 196 195
f 161 195 194
f 161 194 197
f 161 197 198
f 161 198 199
f 161 199 200
f 161 200 162
f 162 200 201
f 162 201 163
f 163 201 164
f 164 201 202
f 164 202 203
f 164 203 165
f 165 203 166
f 166 203 204
f 166 204 167
f 167 204 205
f 167 205 168
f 168 205 206
f 168 206 207
f 168 207 169
f 169 207 208
f 169 208 170
f 170 208 209
f 170 209 171
f 171 209 210
f 171 210 172
f 172 210 173
f 173 210 211
f 173 211 212
f 173 212 174
f 176 181 213
f 177 214 178
f 178 214 215
f 178 215 216
f 178 216 217
f 178 217 179
f 179 218 180
f 179 217 219
f 179 219 220
f 179 220 218
f 180 218 221
f 180 221 181
f 181 222 223
f 181 223 224
f 181 224 213
f 181 221 225
f 181 225 222
f 183 226 222
f 183 222 184
f 184 222 227
f 184 227 186
f 184 186 185
f 186 227 225
f 186 225 228
f 186 228 229
f 186 229 230
f 186 230 231
f 186 231 187
f 187 231 232
f 187 232 188
f 188 232 233
f 188 233 189
f 189 233 234
f 189 234 190
f 190 234 235
f 190 235 191
f 191 235 236
f 191 236 237
f 191 237 192
f 192 237 238
f 192 238 239
f 192 239 240
f 192 240 193
f 194 241 197
f 197 241 198
f 198 242 243
f 198 243 199
f 199 243 244
f 199 244 201
f 199 201 200
f 201 244 245
f 201 245 202
f 202 245 246
f 202 246 247
f 202 247 203
f 203 247 248
f 203 248 204
f 204 248 249
f 204 249 250
f 204 250 205
f 205 250 251
f 205 251 252
f 205 252 206
f 206 252 207
f 207 252 208
f 208 252 253
f 208 253 254
f 208 254 209
f 209 254 255
f 209 255 256
f 209 256 210
f 210 256 257
f 210 257 211
f 211 257 258
f 211 258 259
f 211 259 260
f 211 260 261
f 211 261 212
f 216 262 217
f 217 262 263
f 217 263 264
f 217 264 265
f 217 265 220
f 217 220 219
f 218 266 225
f 218 225 221
f 218 220 267
f 218 267 268
f 218 268 266
f 220 265 267
f 222 226 223
f 222 225 227
f 225 266 228
f 228 266 269
f 228 269 230
f 228 230 229
f 230 270 232
f 230 232 231
f 230 269 270
f 232 270 271
f 232 271 272
f 232 272 234
f 232 234 233
f 234 272 273
f 234 273 235
f 235 273 274
f 235 274 236
f 236 274 275
f 236 275 276
f 236 276 238
f 236 238 237
f 238 276 277
f 238 277 278
f 238 278 239
f 242 279 280
f 242 280 243
f 243 280 281
f 243 281 282
f 243 282 283
f 243 283 244
f 244 283 282
f 244 282 245
f 245 282 246
f 246 284 285
f 246 285 286
f 246 286 247
f 246 282 287
f 246 287 284
f 247 286 288
f 247 288 248
f 248 288 289
f 248 289 249
f 249 289 250
f 250 289 290
f 250 290 251
f 251 290 291
f 251 291 252
f 252 291 292
f 252 292 293
f 252 293 253
f 253 293 254
f 254 293 255
f 255 293 294
f 255 294 256
f 256 294 295
f 256 295 257
f 257 295 296
f 257 296 297
f 257 297 258
f 262 298 263
f 263 298 299
f 263 299 300
f 263 300 301
f 263 301 264
f 264 301 265
f 265 268 267
f 265 301 302
f 265 302 268
f 266 268 269
f 268 302 269
f 269 302 303
f 269 303 270
f 270 303 304
f 270 304 305
f 270 305 271
f 271 305 306
f 271 306 307
f 271 307 272
f 272 307 273
f 273 307 308
f 273 308 274
f 274 308 309
f 274 309 275
f 275 309 310
f 275 310 311
f 275 311 277
f 275 277 276
f 277 312 313
f 277 313 278
f 277 311 314
f 277 314 315
f 277 315 312
f 279 316 317
f 279 317 280
f 280 317 284
f 280 284 318
f 280 318 281
f 281 318 284
f 281 284 287
f 281 287 282
f 284 317 285
f 285 317 319
f 285 319 320
f 285 320 321
f 285 321 286
f 286 321 288
f 288 321 322
f 288 322 323
f 288 323 324
f 288 324 289
f 289 324 325
f 289 325 323
f 289 323 326
f 289 326 327
f 289 327 328
f 289 328 290
f 290 328 329
f 290 329 291
f 291 329 292
f 292 329 330
f 292 330 293
f 293 330 294
f 294 330 331
f 294 331 295
f 295 331 332
f 295 332 296
f 296 333 297
f 296 332 334
f 296 334 333
f 299 335 300
f 300 336 301
f 300 335 337
f 300 337 338
f 300 338 339
f 300 339 336
f 301 336 302
f 302 340 304
f 302 304 303
f 302 336 341
f 302 341 340
f 304 340 341
f 304 341 305
f 305 341 342
f 305 342 343
f 305 343 344
f 305 344 306
f 306 344 345
f 306 345 307
f 307 345 346
f 307 346 308
f 308 346 347
f 308 347 348
f 308 348 309
f 309 348 349
f 309 349 310
f 310 349 350
f 310 350 311
f 311 350 351
f 311 351 314
f 316 352 317
f 316 353 354
f 316 354 352
f 317 352 354
f 317 354 319
f 319 354 355
f 319 355 320
f 320 355 369
f 320 369 356
f 320 356 321
f 321 356 357
f 321 357 358
f 321 358 359
f 321 359 322
f 322 359 323
f 323 359 360
f 323 360 361
f 323 361 326
f 323 325 324
f 326 361 327
f 327 361 328
f 328 361 362
f 328 362 329
f 329 362 363
f 329 363 364
f 329 364 339
f 329 339 330
f 330 339 338
f 330 338 331
f 331 338 365
f 331 365 366
f 331 366 332
f 332 366 334
f 336 339 364
f 336 364 341
f 337 366 365
f 337 365 338
f 341 364 342
f 342 364 343
f 343 364 363
f 343 363 362
f 343 362 361
f 343 361 367
f 343 367 344
f 344 367 345
f 345 367 368
f 345 368 346
f 346 368 359
f 346 359 358
f 346 358 347
f 347 358 357
f 347 357 356
f 347 356 348
f 348 356 349
f 349 356 369
f 349 369 370
f 349 370 350
f 350 370 371
f 350 371 351
f 353 372 354
f 354 372 373
f 354 373 355
f 355 373 369
f 359 361 360
f 359 368 367
f 359 367 361
f 369 373 374
f 369 374 370
f 370 374 371
f 372 375 373
f 373 375 374

