# https://github.com/mikedh/trimesh
v 0.17236759 -7.00779511 16.38273002
v -0.02465522 -6.99556962 16.38273002
v 0.19009019 -7.00732470 16.38273002
v 0.17236759 -4.18639831 25.31619962
v -0.02465522 -4.18075546 25.31619962
v -0.02465522 -5.80446921 16.38273002
v 0.51701604 -6.99509922 16.38273002
v 0.49401434 -4.15583308 25.31619962
v -0.02465522 -2.92194245 25.31619962
v 1.90126617 -5.48847297 16.38273002
v -0.02465522 -5.46966383 17.40759555
v 1.90126617 -2.29747318 25.00314395
v 0.85167197 -6.94008198 16.38273002
v 0.83941696 -4.09000057 25.31619962
v 1.90126617 -2.20436701 25.31619962
v -0.02465522 -2.95109672 25.18240750
v 1.90126617 -6.73929263 16.38273002
v 1.90145464 -2.58854727 24.30532565
v -0.02465522 -2.99482852 24.98565462
v 1.56661023 -6.80371393 16.38273002
v 1.20574740 -4.00723953 25.31619962
v 1.89617564 -6.74070284 16.38273002
v 1.90126617 -3.71287386 25.31619962
v 1.90126617 -6.73741153 16.38885149
v 1.90126617 -6.61891280 16.74300702
v 1.90126617 -6.71342943 16.46055691
v 1.55303541 -3.87745538 25.31619962
v 1.88316649 -3.72321899 25.31619962
v 1.57170076 -3.87040182 25.31619962
f 1 2 6
f 1 6 10
f 1 10 17
f 1 17 22
f 1 22 20
f 1 20 13
f 1 13 7
f 1 7 3
f 1 3 4
f 1 4 5
f 1 5 2
f 2 5 9
f 2 9 16
f 2 16 19
f 2 19 11
f 2 11 6
f 3 7 4
f 4 8 14
f 4 14 21
f 4 21 27
f 4 27 29
f 4 29 28
f 4 28 23
f 4 23 15
f 4 15 9
f 4 9 5
f 4 7 8
f 6 11 12
f 6 12 10
f 7 13 8
f 8 13 14
f 9 15 16
f 10 12 18
f 10 18 17
f 11 19 12
f 12 19 15
f 12 15 18
f 13 20 14
f 14 20 22
f 14 22 21
f 15 19 16
f 15 23 18
f 17 18 24
f 17 24 22
f 18 23 25
f 18 25 26
f 18 26 24
f 21 22 24
f 21 24 26
f 21 26 25
f 21 25 27
f 23 28 25
f 25 28 29
f 25 29 27

