# https://github.com/mikedh/trimesh
v 1.90193557 -6.73953504 16.38273002
v 2.22909322 -6.64031381 16.38273002
v 2.25785976 -6.63134525 16.38447915
v 2.15449551 -6.58313610 16.64856538
v 2.05161887 -6.54445684 16.87854802
v 1.90193557 -6.71374886 16.46055691
v 1.90193557 -5.48834356 16.38273002
v 2.25980995 -6.63078445 16.38273002
v 2.38413973 -6.53492696 16.50865204
v 1.90193557 -3.71301970 25.31619962
v 2.58843044 -6.48559675 16.38273002
v 1.90193557 -6.55903179 16.92052220
v 1.90193557 -6.61901244 16.74300702
v 5.68789628 -1.01275612 16.38273002
v 1.90193557 -5.47601126 16.41595953
v 2.75907899 -1.01275612 25.13606098
v 2.81661208 -1.01275612 24.96029520
v 2.92095130 -1.01275612 24.64723901
v 2.25054610 -3.52074444 25.31619962
v 1.90193557 -2.20452723 25.31619962
v 3.29198993 -6.15430043 16.38273002
v 3.64498896 -5.97659960 16.38273002
v 6.88243644 -1.01275612 16.38273002
v 1.90193557 -2.29758179 25.00314395
v 1.90193557 -2.26170520 25.12381907
v 2.74932778 -1.01275612 25.19115216
v 2.27833767 -3.50168520 25.31619962
v 3.77858234 -5.85047163 16.52439223
v 2.73128767 -1.01275612 25.31619962
v 3.66644184 -5.96426729 16.38273002
v 6.84879403 -1.20671325 16.41071263
v 6.84196797 -1.32891746 16.38273002
v 4.04381890 -1.01275612 25.31619962
v 2.57819161 -3.27577548 25.31619962
v 3.94630548 -5.77367389 16.38273002
v 3.95898236 -5.75965923 16.39409787
v 2.58257961 -3.27241201 25.31619962
v 6.81612736 -1.52735914 16.38273002
v 4.00140050 -1.18877509 25.31619962
v 6.57136819 -1.78522105 16.95637491
v 3.96239514 -5.76078081 16.38273002
v 4.06966003 -5.67221054 16.38273002
v 4.37146442 -5.42275704 16.38273002
v 2.59233108 -3.26456426 25.31619962
v 6.72641496 -1.89565324 16.38273002
v 3.99701251 -1.20615272 25.31619962
v 4.75859296 -5.10211116 16.38273002
v 2.86780647 -3.02688252 25.31619962
v 4.98287345 -4.91039668 16.38273002
v 6.72202619 -1.90798579 16.38273002
v 3.85708069 -1.56884108 25.31619962
v 6.60110970 -2.22470754 16.38273002
v 2.91851350 -2.98147657 25.31619962
v 5.05454600 -4.84088565 16.38273002
v 3.11646602 -2.78976184 25.31619962
v 3.73421375 -1.86145851 25.31619962
v 6.20130479 -3.09695384 16.53750923
v 6.29101719 -3.00782329 16.38273002
v 6.30320621 -2.96129601 16.40196797
v 6.31685781 -2.94335784 16.38273002
v 6.46312807 -2.57394254 16.38273002
v 6.58794546 -2.25834173 16.38273002
v 5.18033861 -4.70410673 16.38273002
v 5.11402953 -4.76184524 16.43082515
v 3.12329182 -2.78303490 25.31619962
v 3.72494989 -1.88332069 25.31619962
v 6.17790146 -3.27689681 16.38273002
v 5.23787170 -4.63123300 16.38273002
v 3.13206807 -2.77126288 25.31619962
v 3.55137592 -2.19387629 25.31619962
v 6.16473722 -3.30716753 16.38273002
v 5.55625284 -4.19342799 16.38273002
v 3.27053705 -2.58459323 25.31619962
v 3.54357490 -2.20564830 25.31619962
v 5.96727206 -3.62781316 16.38273002
v 3.42070796 -2.37718247 25.31619962
f 1 2 3
f 1 3 4
f 1 4 5
f 1 5 6
f 1 6 13
f 1 13 12
f 1 12 10
f 1 10 20
f 1 20 25
f 1 25 24
f 1 24 15
f 1 15 7
f 1 7 14
f 1 14 23
f 1 23 32
f 1 32 38
f 1 38 45
f 1 45 50
f 1 50 52
f 1 52 62
f 1 62 61
f 1 61 60
f 1 60 58
f 1 58 67
f 1 67 71
f 1 71 75
f 1 75 72
f 1 72 68
f 1 68 63
f 1 63 54
f 1 54 49
f 1 49 47
f 1 47 43
f 1 43 42
f 1 42 41
f 1 41 35
f 1 35 30
f 1 30 22
f 1 22 21
f 1 21 11
f 1 11 8
f 1 8 2
f 2 8 3
f 3 9 10
f 3 10 4
f 3 8 11
f 3 11 9
f 4 10 5
f 5 12 13
f 5 13 6
f 5 10 12
f 7 15 16
f 7 16 17
f 7 17 18
f 7 18 14
f 9 11 10
f 10 19 27
f 10 27 34
f 10 34 37
f 10 37 44
f 10 44 48
f 10 48 53
f 10 53 55
f 10 55 65
f 10 65 69
f 10 69 73
f 10 73 76
f 10 76 74
f 10 74 70
f 10 70 66
f 10 66 56
f 10 56 51
f 10 51 46
f 10 46 39
f 10 39 33
f 10 33 29
f 10 29 20
f 10 11 21
f 10 21 22
f 10 22 19
f 14 18 17
f 14 17 16
f 14 16 26
f 14 26 29
f 14 29 33
f 14 33 23
f 15 24 16
f 16 24 25
f 16 25 20
f 16 20 26
f 19 22 28
f 19 28 27
f 20 29 26
f 22 30 28
f 23 31 32
f 23 33 31
f 27 28 34
f 28 30 35
f 28 35 36
f 28 36 37
f 28 37 34
f 31 33 32
f 32 33 38
f 33 39 40
f 33 40 38
f 35 41 36
f 36 41 42
f 36 42 43
f 36 43 44
f 36 44 37
f 38 40 45
f 39 46 40
f 40 46 45
f 43 47 44
f 44 47 49
f 44 49 48
f 45 46 50
f 46 51 52
f 46 52 50
f 48 49 53
f 49 54 55
f 49 55 53
f 51 56 57
f 51 57 58
f 51 58 59
f 51 59 60
f 51 60 61
f 51 61 62
f 51 62 52
f 54 63 64
f 54 64 55
f 55 64 65
f 56 66 67
f 56 67 57
f 57 67 58
f 58 60 59
f 63 68 65
f 63 65 64
f 65 68 69
f 66 70 71
f 66 71 67
f 68 72 73
f 68 73 69
f 70 74 75
f 70 75 71
f 72 75 73
f 73 75 76
f 74 76 75

