# https://github.com/mikedh/trimesh
v 0.03792138 -0.03722592 0.04001099
v 0.04886355 -0.03722592 0.04001099
v 0.03792138 -0.03722592 0.04003351
v 0.03792138 -0.03656282 0.03072981
v 0.04957832 -0.03705142 0.04001099
v 0.04952081 -0.03700256 0.04100766
v 0.04886355 -0.03713518 0.04100766
v 0.04786593 -0.03656282 0.03072981
v 0.04886355 -0.03647906 0.03072981
v 0.03792138 -0.03713518 0.04100766
v 0.03792138 0.03254617 0.03072981
v 0.04933068 -0.03624174 0.03072981
v 0.04954077 -0.03613006 0.03072981
v 0.04985179 -0.03637436 0.04001099
v 0.04942927 -0.03692578 0.04155266
v 0.04972268 -0.03637436 0.04100766
v 0.04886355 -0.03695370 0.04157626
v 0.03792138 -0.03695370 0.04157626
v 0.03792138 0.03399103 0.03931364
v 0.04817578 0.03254617 0.03072981
v 0.04959710 -0.03589972 0.03072981
v 0.04972034 -0.03537621 0.03072981
v 0.04991048 -0.03537621 0.04001099
v 0.04947739 -0.03637436 0.04158699
v 0.04886355 -0.03637436 0.04166745
v 0.04976611 -0.03537621 0.04100766
v 0.03792138 -0.03637436 0.04166745
v 0.03792138 0.03406781 0.03999489
v 0.04886355 0.03399103 0.03931364
v 0.04886355 0.03253221 0.03072981
v 0.04991048 -0.03139063 0.03072981
v 0.04991048 0.03241356 0.04001099
v 0.04949265 -0.03537621 0.04159772
v 0.04886355 -0.03537621 0.04168891
v 0.03792138 -0.03634644 0.04166853
v 0.04976611 0.03241356 0.04100766
v 0.03792138 0.03406781 0.04001099
v 0.04886355 0.03406781 0.04001099
v 0.04944100 0.03396311 0.03937908
v 0.04910299 0.03243449 0.03072981
v 0.04991048 0.03141541 0.03072981
v 0.04975555 0.03341169 0.04001099
v 0.04963114 0.03341169 0.04100766
v 0.04949265 0.03241356 0.04159772
v 0.03792138 -0.03537621 0.04168891
v 0.04886355 0.03241356 0.04168891
v 0.04943396 0.03341169 0.04155695
v 0.03792138 0.03399801 0.04100766
v 0.04886355 0.03399801 0.04100766
v 0.04942927 0.03395613 0.04100766
v 0.04948091 0.03399103 0.04001099
v 0.04963584 0.03221113 0.03072981
v 0.04937175 0.03391425 0.04151297
v 0.03792138 0.03241356 0.04168891
v 0.04886355 0.03341169 0.04160738
v 0.03792138 0.03392123 0.04150438
v 0.04886355 0.03391425 0.04151618
v 0.03792138 0.03341169 0.04160738
v 0.03792138 0.03391425 0.04151618
f 1 2 3
f 1 3 10
f 1 10 18
f 1 18 27
f 1 27 35
f 1 35 45
f 1 45 54
f 1 54 58
f 1 58 59
f 1 59 56
f 1 56 48
f 1 48 37
f 1 37 28
f 1 28 19
f 1 19 11
f 1 11 4
f 1 4 8
f 1 8 2
f 2 5 6
f 2 6 7
f 2 7 3
f 2 8 9
f 2 9 5
f 3 7 10
f 4 11 20
f 4 20 30
f 4 30 40
f 4 40 52
f 4 52 41
f 4 41 31
f 4 31 22
f 4 22 21
f 4 21 13
f 4 13 12
f 4 12 9
f 4 9 8
f 5 9 12
f 5 12 13
f 5 13 14
f 5 14 6
f 6 15 7
f 6 14 16
f 6 16 15
f 7 15 17
f 7 17 18
f 7 18 10
f 11 19 29
f 11 29 20
f 13 21 14
f 14 21 22
f 14 22 23
f 14 23 16
f 15 16 24
f 15 24 25
f 15 25 17
f 16 23 26
f 16 26 24
f 17 25 27
f 17 27 18
f 19 28 29
f 20 29 30
f 22 31 23
f 23 31 41
f 23 41 32
f 23 32 36
f 23 36 26
f 24 26 33
f 24 33 34
f 24 34 25
f 25 34 35
f 25 35 27
f 26 36 44
f 26 44 33
f 28 37 38
f 28 38 29
f 29 38 39
f 29 39 30
f 30 39 40
f 32 41 42
f 32 42 43
f 32 43 36
f 33 44 46
f 33 46 34
f 34 45 35
f 34 46 54
f 34 54 45
f 36 43 47
f 36 47 44
f 37 48 49
f 37 49 38
f 38 49 50
f 38 50 51
f 38 51 39
f 39 51 52
f 39 52 40
f 41 52 42
f 42 52 51
f 42 51 50
f 42 50 43
f 43 50 53
f 43 53 47
f 44 47 46
f 46 47 55
f 46 55 58
f 46 58 54
f 47 53 55
f 48 56 49
f 49 56 57
f 49 57 53
f 49 53 50
f 53 57 55
f 55 57 59
f 55 59 58
f 56 59 57

