# https://github.com/mikedh/trimesh
v -0.05065690 -0.01942509 0.03303321
v -0.05044217 -0.02043170 0.03072981
v -0.05065269 -0.02042295 0.03303321
v -0.04990742 -0.02359159 0.04001099
v -0.05065690 0.01546497 0.03303321
v -0.05043795 -0.02054112 0.03072981
v -0.05044217 0.01646283 0.03072981
v -0.05038742 -0.02142081 0.03072981
v -0.05057690 -0.02142081 0.03303321
v -0.05041690 -0.02203353 0.03303321
v -0.04991163 -0.02359159 0.03402988
v -0.04978532 -0.02359159 0.04083171
v -0.04990742 0.02111950 0.04001099
v -0.05065269 0.01646283 0.03303321
v -0.05043795 0.01699239 0.03072981
v -0.05032006 -0.02184534 0.03072981
v -0.05026953 -0.02210356 0.03072981
v -0.04991163 -0.02359159 0.03072981
v -0.04975584 -0.02359159 0.04100766
v -0.04975584 0.02111950 0.04100766
v -0.04980637 0.02111950 0.04067937
v -0.04990742 0.02111950 0.03072981
v -0.05062743 0.01745631 0.03303321
v -0.05042953 0.01745631 0.03072981
v -0.00802499 -0.02359159 0.03072981
v -0.04946953 -0.02359159 0.04159772
v -0.04956637 0.02111950 0.04140246
v -0.00818499 0.02111950 0.03072981
v -0.00802499 -0.02359159 0.03901324
v -0.00764604 0.02111513 0.03072981
v -0.00764183 0.02111950 0.03073088
v -0.04883794 -0.02359159 0.04168891
v -0.04946953 0.02111950 0.04159772
v -0.00804183 -0.02359159 0.04001099
v -0.00764183 0.02111950 0.03901324
v -0.01195344 -0.02359159 0.04168891
v -0.04883794 0.02111950 0.04168891
v -0.00824815 -0.02359159 0.04071584
v -0.00766709 0.02111950 0.04001099
v -0.01095554 -0.02359159 0.04163956
v -0.01095554 0.02111950 0.04164063
v -0.01128396 0.02111950 0.04165673
v -0.01195344 0.02111950 0.04168891
v -0.00896394 -0.02359159 0.04101624
v -0.00805025 0.02111950 0.04080596
v -0.00826499 0.02111950 0.04090144
v -0.01037027 -0.02359159 0.04154944
v -0.01037027 0.02111950 0.04154944
f 1 2 3
f 1 3 4
f 1 4 13
f 1 13 5
f 1 5 7
f 1 7 2
f 2 6 3
f 2 7 15
f 2 15 24
f 2 24 22
f 2 22 28
f 2 28 30
f 2 30 25
f 2 25 18
f 2 18 17
f 2 17 16
f 2 16 8
f 2 8 6
f 3 6 8
f 3 8 9
f 3 9 4
f 4 9 10
f 4 10 11
f 4 11 18
f 4 18 25
f 4 25 29
f 4 29 34
f 4 34 38
f 4 38 44
f 4 44 47
f 4 47 40
f 4 40 36
f 4 36 32
f 4 32 26
f 4 26 19
f 4 19 12
f 4 12 13
f 5 13 14
f 5 14 7
f 7 14 15
f 8 16 9
f 9 16 17
f 9 17 18
f 9 18 10
f 10 18 11
f 12 19 20
f 12 20 21
f 12 21 13
f 13 21 20
f 13 20 27
f 13 27 33
f 13 33 37
f 13 37 43
f 13 43 42
f 13 42 41
f 13 41 48
f 13 48 46
f 13 46 45
f 13 45 39
f 13 39 35
f 13 35 31
f 13 31 28
f 13 28 22
f 13 22 23
f 13 23 14
f 14 23 24
f 14 24 15
f 19 26 27
f 19 27 20
f 22 24 23
f 25 30 31
f 25 31 35
f 25 35 29
f 26 32 37
f 26 37 33
f 26 33 27
f 28 31 30
f 29 35 34
f 32 36 43
f 32 43 37
f 34 35 39
f 34 39 38
f 36 40 41
f 36 41 42
f 36 42 43
f 38 39 45
f 38 45 46
f 38 46 44
f 40 47 41
f 41 47 48
f 44 46 47
f 46 48 47

