# https://github.com/mikedh/trimesh
v -0.05066181 -0.02042117 0.03004042
v -0.05065759 -0.02042117 0.02705027
v -0.05059013 -0.02141729 0.03004042
v -0.05040881 -0.02141729 0.03068015
v -0.05043833 -0.02053914 0.03072874
v -0.05044255 -0.02042991 0.03072874
v -0.05066181 0.01646147 0.03004042
v -0.05065759 0.00051045 0.02704926
v -0.05060278 -0.02042117 0.02625769
v -0.05055217 -0.02141729 0.02630121
v -0.05045098 -0.02205516 0.02641256
v -0.05045098 -0.02205516 0.02688123
v -0.04991125 -0.02418720 0.03004042
v -0.04990282 -0.02418720 0.03072874
v -0.05036243 -0.02196778 0.03059614
v -0.05038773 -0.02141729 0.03072874
v -0.05044255 0.01646147 0.03072874
v -0.05043833 0.01699011 0.03072874
v -0.05043411 0.01745759 0.03072165
v -0.05064494 0.01745759 0.03004042
v -0.05065759 0.01646147 0.02704926
v -0.04990282 -0.02418720 0.02106896
v -0.05060278 0.01646147 0.02625769
v -0.04990703 -0.00247791 0.02038773
v -0.04990282 -0.00365753 0.02038773
v -0.04991125 -0.02418720 0.02528290
v -0.00765679 -0.02418720 0.03072874
v -0.05042989 0.01745759 0.03072874
v -0.05039616 0.01805176 0.03065181
v -0.04990703 0.02044594 0.03072874
v -0.05048049 0.01813914 0.03004042
v -0.05049736 0.01813477 0.02637207
v -0.05064072 0.01745759 0.02704926
v -0.05059013 0.01745759 0.02627085
v -0.00770739 -0.02418720 0.02106896
v -0.04990703 0.02044594 0.02038773
v -0.00772004 -0.00365753 0.02038773
v -0.00758933 -0.02418720 0.02106997
v -0.00767788 0.02044594 0.02038773
v -0.00805315 0.02044594 0.03072874
v -0.05033291 0.01812603 0.03072874
f 1 2 3
f 1 3 4
f 1 4 5
f 1 5 6
f 1 6 17
f 1 17 7
f 1 7 21
f 1 21 8
f 1 8 2
f 2 9 10
f 2 10 3
f 2 8 9
f 3 10 11
f 3 11 12
f 3 12 13
f 3 13 14
f 3 14 15
f 3 15 4
f 4 15 16
f 4 16 5
f 5 16 14
f 5 14 27
f 5 27 40
f 5 40 30
f 5 30 41
f 5 41 28
f 5 28 18
f 5 18 17
f 5 17 6
f 7 17 18
f 7 18 19
f 7 19 20
f 7 20 33
f 7 33 21
f 8 21 23
f 8 23 9
f 9 22 10
f 9 23 36
f 9 36 24
f 9 24 25
f 9 25 22
f 10 22 11
f 11 22 26
f 11 26 13
f 11 13 12
f 13 26 22
f 13 22 35
f 13 35 38
f 13 38 27
f 13 27 14
f 14 16 15
f 18 28 19
f 19 28 29
f 19 29 20
f 20 29 30
f 20 30 31
f 20 31 32
f 20 32 33
f 21 33 34
f 21 34 23
f 22 25 37
f 22 37 35
f 23 34 36
f 24 36 39
f 24 39 37
f 24 37 25
f 27 38 39
f 27 39 40
f 28 41 29
f 29 41 30
f 30 40 39
f 30 39 36
f 30 36 32
f 30 32 31
f 32 36 33
f 33 36 34
f 35 37 38
f 37 39 38

