# https://github.com/mikedh/trimesh
v -0.00759084 -0.02418844 0.02106958
v -0.00770848 -0.02418844 0.02106864
v -0.00765895 -0.02418844 0.03072874
v 0.01334374 -0.02451243 0.02106958
v 0.01334374 -0.02451243 0.02106864
v -0.04990580 -0.02418844 0.02106864
v 0.01334374 -0.02465835 0.03072874
v -0.04990580 -0.02418844 0.03072874
v 0.01334374 -0.03656323 0.02106864
v -0.04990580 -0.03039500 0.02106864
v -0.04991199 -0.02418844 0.02627881
v 0.01334374 -0.03656323 0.03072874
v -0.04991199 -0.02418844 0.02705041
v -0.04990580 -0.03070292 0.03072874
v -0.02889692 -0.03682045 0.02106864
v -0.04989961 -0.03139048 0.02106864
v -0.02889692 -0.03682045 0.03072874
v -0.04989961 -0.03139048 0.03072874
v -0.04484707 -0.03682045 0.02106864
v -0.04972004 -0.03537856 0.02106864
v -0.04484707 -0.03682045 0.03072874
v -0.04972004 -0.03537856 0.03072874
v -0.04883462 -0.03648904 0.02106864
v -0.04952810 -0.03614649 0.02106864
v -0.04883462 -0.03648904 0.03072874
v -0.04952810 -0.03614649 0.03072874
v -0.04905133 -0.03638269 0.03072874
f 1 2 6
f 1 6 11
f 1 11 13
f 1 13 8
f 1 8 3
f 1 3 4
f 1 4 5
f 1 5 2
f 2 5 9
f 2 9 15
f 2 15 19
f 2 19 23
f 2 23 24
f 2 24 20
f 2 20 16
f 2 16 10
f 2 10 6
f 3 7 4
f 3 8 14
f 3 14 18
f 3 18 22
f 3 22 26
f 3 26 27
f 3 27 25
f 3 25 21
f 3 21 17
f 3 17 12
f 3 12 7
f 4 7 12
f 4 12 9
f 4 9 5
f 6 10 11
f 8 13 14
f 9 12 17
f 9 17 15
f 10 14 11
f 10 16 14
f 11 14 13
f 14 16 18
f 15 17 21
f 15 21 19
f 16 20 22
f 16 22 18
f 19 21 25
f 19 25 23
f 20 24 26
f 20 26 22
f 23 25 27
f 23 27 24
f 24 27 26

