# https://github.com/mikedh/trimesh
v 0.03791792 -0.02354563 0.03901324
v 0.03791792 -0.02356305 0.03980607
v 0.03791792 -0.02354563 0.03072981
v 0.01446560 -0.02465777 0.04001099
v 0.03791792 -0.02357109 0.04001099
v 0.03791792 -0.03656294 0.03072981
v 0.01446560 -0.02465777 0.03072981
v 0.01446560 -0.02478506 0.04069224
v 0.03791792 -0.02377744 0.04037361
v 0.03791792 -0.03723289 0.04001099
v 0.01446560 -0.03656294 0.03072981
v 0.01446560 -0.02540946 0.04100015
v 0.03791792 -0.02432949 0.04082420
v 0.03791792 -0.03713508 0.04100766
v 0.01446560 -0.03723289 0.04001099
v 0.01446560 -0.02678154 0.04157090
v 0.03791792 -0.02678020 0.04157090
v 0.03791792 -0.03713106 0.04102053
v 0.01446560 -0.03713508 0.04100766
v 0.01446560 -0.02709374 0.04161703
v 0.03791792 -0.02738852 0.04165995
v 0.03791792 -0.03695553 0.04157626
v 0.01446560 -0.03695553 0.04157626
v 0.01446560 -0.02740460 0.04166209
v 0.03791792 -0.02740460 0.04166209
v 0.03791792 -0.03694213 0.04157841
v 0.01446560 -0.03637535 0.04166745
v 0.01446560 -0.02840150 0.04168891
v 0.03791792 -0.02840150 0.04168891
v 0.03791792 -0.03637535 0.04166745
v 0.01446560 -0.03587958 0.04167818
v 0.03791792 -0.03635257 0.04166853
v 0.01446560 -0.03537845 0.04168891
v 0.03791792 -0.03537845 0.04168891
f 1 2 5
f 1 5 9
f 1 9 13
f 1 13 17
f 1 17 21
f 1 21 25
f 1 25 29
f 1 29 34
f 1 34 32
f 1 32 30
f 1 30 26
f 1 26 22
f 1 22 18
f 1 18 14
f 1 14 10
f 1 10 6
f 1 6 3
f 1 3 7
f 1 7 4
f 1 4 2
f 2 4 5
f 3 6 11
f 3 11 7
f 4 7 11
f 4 11 15
f 4 15 19
f 4 19 23
f 4 23 27
f 4 27 31
f 4 31 33
f 4 33 28
f 4 28 24
f 4 24 20
f 4 20 16
f 4 16 12
f 4 12 8
f 4 8 5
f 5 8 9
f 6 10 15
f 6 15 11
f 8 12 13
f 8 13 9
f 10 14 19
f 10 19 15
f 12 16 13
f 13 16 17
f 14 18 19
f 16 20 17
f 17 20 21
f 18 22 23
f 18 23 19
f 20 24 21
f 21 24 25
f 22 26 23
f 23 26 27
f 24 28 29
f 24 29 25
f 26 30 27
f 27 30 32
f 27 32 31
f 28 33 34
f 28 34 29
f 31 32 33
f 32 34 33

