# https://github.com/mikedh/trimesh
v 0.03686025 -0.02345204 0.02018511
v 0.03796906 -0.02345204 0.03072874
v 0.03769314 0.02085351 0.03072874
v 0.03769314 0.03255210 0.03072874
v 0.03696756 -0.00030154 0.02018511
v 0.03769314 0.03255210 0.01928079
v 0.03769314 -0.00030154 0.01928079
v 0.04991048 -0.02345204 0.02018511
v 0.04991048 -0.02345204 0.03072874
v 0.04786531 0.03255210 0.03072874
v 0.04786531 0.03255210 0.01928079
v 0.04990920 -0.00030154 0.01928079
v 0.04991048 -0.00030154 0.02018511
v 0.04991048 -0.00030154 0.03072874
v 0.04886171 0.03253017 0.03072874
v 0.04886171 0.03253017 0.01928079
v 0.04990920 0.03141184 0.01928079
v 0.04990920 0.03141184 0.03072874
v 0.04947615 0.03227800 0.01928079
v 0.04963455 0.03221222 0.03072874
v 0.04969203 0.03204776 0.01928079
v 0.04982361 0.03166402 0.03072874
v 0.04963455 0.03221222 0.01928079
f 1 2 3
f 1 3 4
f 1 4 5
f 1 5 6
f 1 6 7
f 1 7 12
f 1 12 8
f 1 8 9
f 1 9 2
f 2 9 14
f 2 14 18
f 2 18 22
f 2 22 20
f 2 20 15
f 2 15 10
f 2 10 4
f 2 4 3
f 4 10 11
f 4 11 6
f 4 6 5
f 6 11 16
f 6 16 19
f 6 19 23
f 6 23 21
f 6 21 17
f 6 17 12
f 6 12 7
f 8 12 17
f 8 17 13
f 8 13 14
f 8 14 9
f 10 15 16
f 10 16 11
f 13 17 18
f 13 18 14
f 15 19 16
f 15 20 19
f 17 21 22
f 17 22 18
f 19 20 23
f 20 22 21
f 20 21 23

