# https://github.com/mikedh/trimesh
v 0.04910146 -0.70095683 0.00999498
v 0.04910146 -0.70095683 -0.01904126
v 0.04869358 -0.70095683 0.03140793
v 0.07449222 -0.75789953 0.00346808
v 0.04869358 -0.70095683 -0.04376549
v 0.07449222 -0.75789953 -0.00347825
v 0.07449222 -0.77201576 0.03140793
v 0.07449222 -0.77173788 0.03093699
v 0.07449222 -0.76215661 0.01369626
v -0.26639655 -0.70095683 0.03140793
v 0.07449222 -0.75841082 -0.00615671
v 0.07449222 -0.76329035 -0.01865863
v 0.07449222 -0.77307166 -0.03567125
v 0.07449222 -0.77689529 -0.03953441
v 0.07449222 -0.78206379 -0.04369926
v 0.07449222 -0.78215272 -0.04376549
v -0.27275273 -0.70095683 -0.04376549
v 0.07449222 -0.81450880 0.03140793
v -0.26989755 -0.70810384 -0.04376549
v -0.26401723 -0.70528061 0.03140793
v 0.07449222 -0.80960704 -0.04376549
v 0.07449222 -0.81450880 -0.03919592
v -0.15636993 -0.81450880 0.03140793
v -0.26921773 -0.70913757 -0.04376549
v -0.26897982 -0.70949323 -0.04376549
v -0.26823205 -0.71043802 -0.04376549
v -0.25599551 -0.71500636 0.03140793
v 0.05409804 -0.81450880 -0.04376549
v -0.16585323 -0.80580569 0.03140793
v -0.16921827 -0.81049622 -0.04376549
v -0.16364387 -0.81450880 -0.04376549
v -0.26027829 -0.71984143 -0.04376549
v -0.24627429 -0.72626592 0.03140793
v -0.20609775 -0.76603580 0.03140793
v -0.24025801 -0.74030430 -0.04376549
v -0.22618602 -0.74616201 0.03140793
f 1 2 5
f 1 5 17
f 1 17 10
f 1 10 3
f 1 3 4
f 1 4 6
f 1 6 2
f 2 6 5
f 3 7 8
f 3 8 9
f 3 9 4
f 3 10 20
f 3 20 27
f 3 27 33
f 3 33 36
f 3 36 34
f 3 34 29
f 3 29 23
f 3 23 18
f 3 18 7
f 4 9 8
f 4 8 7
f 4 7 18
f 4 18 22
f 4 22 21
f 4 21 16
f 4 16 15
f 4 15 14
f 4 14 13
f 4 13 12
f 4 12 11
f 4 11 6
f 5 6 11
f 5 11 12
f 5 12 13
f 5 13 14
f 5 14 15
f 5 15 16
f 5 16 21
f 5 21 28
f 5 28 31
f 5 31 30
f 5 30 35
f 5 35 32
f 5 32 26
f 5 26 25
f 5 25 24
f 5 24 19
f 5 19 17
f 10 17 19
f 10 19 20
f 18 23 31
f 18 31 28
f 18 28 22
f 19 24 20
f 20 24 25
f 20 25 26
f 20 26 27
f 21 22 28
f 23 29 30
f 23 30 31
f 26 32 27
f 27 32 33
f 29 34 35
f 29 35 30
f 32 35 33
f 33 35 36
f 34 36 35

