# https://github.com/mikedh/trimesh
v 0.01006502 -0.40999723 -0.33723901
v 0.01006502 -0.42999826 -0.33327768
v -0.00998676 -0.42999826 -0.33321170
v -0.00998676 -0.40999723 -0.33704094
v -0.00998676 -0.38999618 -0.33294759
v 0.01006502 -0.38999618 -0.33301364
v 0.60997701 -0.40999723 -0.33723901
v -0.00998676 -0.44276027 -0.32469485
v 0.60997701 -0.42999826 -0.33327768
v -0.02275994 -0.44183976 -0.32311038
v -0.02589971 -0.42999826 -0.32654349
v -0.02768368 -0.40999723 -0.32845811
v -0.02582836 -0.38999618 -0.32641147
v -0.00998676 -0.37743873 -0.32443081
v -0.02261722 -0.37829105 -0.32291232
v 0.01006502 -0.37742735 -0.32443081
v 0.60997701 -0.38999618 -0.33301364
v 0.62724579 -0.38999618 -0.32647745
v 0.62945795 -0.40999723 -0.32859014
v 0.62738848 -0.42999826 -0.32660953
v 0.01006502 -0.44553313 -0.30997203
v -0.00998676 -0.44552178 -0.30997203
v 0.60997701 -0.44276027 -0.32469485
v 0.62353516 -0.44183976 -0.32311038
v -0.02418712 -0.44276027 -0.30997203
v -0.08997977 -0.44661272 -0.07566092
v -0.03189385 -0.42999826 -0.30997203
v -0.03539041 -0.40999723 -0.30997203
v -0.03160840 -0.38999618 -0.30997203
v 0.09005804 -0.33052722 -0.16993995
v -0.08997977 -0.41813401 -0.06272067
v -0.08997977 -0.41545204 -0.04997847
v -0.02390167 -0.37743873 -0.30997203
v 0.06914997 -0.33577750 -0.16914770
v 0.60997701 -0.37742735 -0.32443081
v 0.62332106 -0.37829105 -0.32291232
v 0.63445300 -0.38999618 -0.30997203
v 0.63894862 -0.40999723 -0.30997203
v 0.63480980 -0.42999826 -0.30997203
v 0.27002451 -0.44661272 -0.12775206
v 0.25211349 -0.44661272 -0.12768605
v 0.23263258 -0.44661272 -0.12728992
v 0.60997701 -0.44553313 -0.30997203
v -0.00998676 -0.44661272 -0.10041907
v 0.62531913 -0.44276027 -0.30997203
v -0.08997977 -0.44661272 -0.07473662
v -0.08997977 -0.43000961 -0.07070929
v 0.09005804 -0.33052722 0.16993990
v 0.60997701 -0.37485904 -0.30997203
v -0.08997977 -0.41464517 -0.02997389
v 0.01513150 -0.35414208 -0.16993995
v 0.03004545 -0.34795994 -0.16993995
v 0.06914997 -0.33577750 0.16914765
v 0.62503368 -0.37742735 -0.30997203
v 0.63452435 -0.38999618 -0.28996746
v 0.63901997 -0.40999723 -0.28996746
v 0.63480980 -0.42999826 0.30997201
v 0.28993356 -0.44661272 -0.12636561
v 0.60997701 -0.44553313 0.30997201
v 0.38819438 -0.44661272 -0.00996931
v 0.38762352 -0.44661272 -0.02990787
v 0.38334200 -0.44661272 -0.04997847
v 0.36785719 -0.44661272 -0.06985101
v 0.34994617 -0.44661272 -0.08919538
v 0.34916121 -0.44661272 -0.08992162
v 0.32982305 -0.44661272 -0.10708727
v 0.30998534 -0.44661272 -0.11996150
v 0.62531913 -0.44276027 0.30997201
v -0.08655456 -0.44661272 0.07559485
v -0.08997977 -0.44659001 0.07566087
v -0.02261722 -0.37829105 0.32291224
v -0.00998676 -0.37743873 0.32443073
v 0.01006502 -0.37742735 0.32443073
v 0.60997701 -0.37742735 0.32443073
v 0.60997701 -0.37485904 0.30997201
v -0.08997977 -0.41463382 -0.00996931
v 0.01513150 -0.35414208 0.16993990
v 0.03004545 -0.34795994 0.16993990
v -0.02390167 -0.37743873 0.30997201
v 0.62503368 -0.37742735 0.30997201
v 0.63452435 -0.38999618 0.28996738
v 0.63901997 -0.40999723 0.28996738
v 0.63894862 -0.40999723 0.30997201
v 0.62738848 -0.42999826 0.32660945
v 0.62353516 -0.44183976 0.32311030
v 0.30606061 -0.44661272 0.12610147
v 0.31969011 -0.44661272 0.11969737
v 0.34652096 -0.44661272 0.10655904
v 0.36664409 -0.44661272 0.08668650
v 0.38298521 -0.44661272 0.06298470
v 0.38726673 -0.44661272 0.04740358
v 0.38790897 -0.44661272 0.02766308
v 0.38819438 -0.44661272 0.00996926
v 0.60997701 -0.44276027 0.32469483
v 0.01006502 -0.44553313 0.30997201
v 0.27002451 -0.44661272 0.12775201
v 0.28779280 -0.44661272 0.12755395
v -0.00998676 -0.44661272 0.10041902
v -0.00998676 -0.44552178 0.30997201
v -0.03189385 -0.42999826 0.30997201
v -0.03539041 -0.40999723 0.30997201
v -0.08997977 -0.42999826 0.07070924
v -0.02418712 -0.44276027 0.30997201
v -0.02275994 -0.44183976 0.32311030
v -0.08997977 -0.41544069 0.04997842
v -0.08997977 -0.41811127 0.06265460
v -0.03160840 -0.38999618 0.30997201
v -0.02582836 -0.38999618 0.32641139
v -0.00998676 -0.38999618 0.33294751
v 0.01006502 -0.38999618 0.33301356
v 0.60997701 -0.38999618 0.33301356
v 0.62332106 -0.37829105 0.32291224
v -0.08997977 -0.41463382 0.00996926
v -0.08997977 -0.41464517 0.02997384
v 0.63445300 -0.38999618 0.30997201
v 0.62945795 -0.40999723 0.32859012
v 0.62724579 -0.38999618 0.32647743
v 0.60997701 -0.40999723 0.33723893
v 0.60997701 -0.42999826 0.33327766
v -0.00998676 -0.44276027 0.32469483
v 0.25018680 -0.44661272 0.12755395
v -0.02589971 -0.42999826 0.32654341
v -0.02768368 -0.40999723 0.32845809
v -0.00998676 -0.42999826 0.33321162
v -0.00998676 -0.40999723 0.33704086
v 0.01006502 -0.40999723 0.33723893
v 0.01006502 -0.42999826 0.33327766
f 1 2 3
f 1 3 4
f 1 4 5
f 1 5 6
f 1 6 17
f 1 17 7
f 1 7 9
f 1 9 2
f 2 8 3
f 2 9 23
f 2 23 8
f 3 8 10
f 3 10 11
f 3 11 4
f 4 11 12
f 4 12 13
f 4 13 5
f 5 14 6
f 5 13 15
f 5 15 14
f 6 14 16
f 6 16 35
f 6 35 17
f 7 17 18
f 7 18 19
f 7 19 20
f 7 20 9
f 8 21 22
f 8 22 10
f 8 23 43
f 8 43 21
f 9 20 24
f 9 24 23
f 10 22 25
f 10 25 26
f 10 26 27
f 10 27 11
f 11 27 28
f 11 28 12
f 12 28 13
f 13 28 29
f 13 29 15
f 14 15 30
f 14 30 16
f 15 29 31
f 15 31 32
f 15 32 33
f 15 33 34
f 15 34 30
f 16 30 35
f 17 35 36
f 17 36 18
f 18 37 38
f 18 38 19
f 18 36 37
f 19 38 20
f 20 38 39
f 20 39 24
f 21 40 41
f 21 41 42
f 21 42 22
f 21 43 40
f 22 42 44
f 22 44 26
f 22 26 25
f 23 24 43
f 24 39 45
f 24 45 43
f 26 46 70
f 26 70 102
f 26 102 106
f 26 106 105
f 26 105 114
f 26 114 113
f 26 113 76
f 26 76 50
f 26 50 32
f 26 32 31
f 26 31 47
f 26 47 28
f 26 28 27
f 26 44 42
f 26 42 41
f 26 41 40
f 26 40 58
f 26 58 67
f 26 67 66
f 26 66 65
f 26 65 64
f 26 64 63
f 26 63 62
f 26 62 61
f 26 61 60
f 26 60 93
f 26 93 92
f 26 92 91
f 26 91 90
f 26 90 89
f 26 89 88
f 26 88 87
f 26 87 86
f 26 86 97
f 26 97 96
f 26 96 121
f 26 121 98
f 26 98 69
f 26 69 46
f 28 47 31
f 28 31 29
f 30 34 53
f 30 53 48
f 30 48 75
f 30 75 49
f 30 49 35
f 32 50 33
f 33 50 51
f 33 51 52
f 33 52 34
f 34 52 78
f 34 78 53
f 35 49 36
f 36 54 37
f 36 49 54
f 37 54 55
f 37 55 56
f 37 56 38
f 38 56 39
f 39 56 82
f 39 82 57
f 39 57 68
f 39 68 45
f 40 43 58
f 43 45 68
f 43 68 59
f 43 59 93
f 43 93 60
f 43 60 61
f 43 61 62
f 43 62 63
f 43 63 64
f 43 64 65
f 43 65 66
f 43 66 67
f 43 67 58
f 46 69 70
f 48 53 71
f 48 71 72
f 48 72 73
f 48 73 74
f 48 74 75
f 49 75 80
f 49 80 54
f 50 76 51
f 51 77 78
f 51 78 52
f 51 76 113
f 51 113 77
f 53 78 79
f 53 79 71
f 54 80 81
f 54 81 55
f 55 81 82
f 55 82 56
f 57 82 83
f 57 83 84
f 57 84 85
f 57 85 68
f 59 86 87
f 59 87 88
f 59 88 89
f 59 89 90
f 59 90 91
f 59 91 92
f 59 92 93
f 59 68 85
f 59 85 94
f 59 94 120
f 59 120 95
f 59 95 96
f 59 96 97
f 59 97 86
f 69 98 99
f 69 99 70
f 70 100 101
f 70 101 102
f 70 99 103
f 70 103 104
f 70 104 100
f 71 79 105
f 71 105 106
f 71 106 107
f 71 107 108
f 71 108 109
f 71 109 72
f 72 109 110
f 72 110 73
f 73 110 111
f 73 111 74
f 74 111 112
f 74 112 75
f 75 112 80
f 77 113 114
f 77 114 79
f 77 79 78
f 79 114 105
f 80 112 115
f 80 115 81
f 81 115 83
f 81 83 82
f 83 116 84
f 83 115 117
f 83 117 116
f 84 116 118
f 84 118 119
f 84 119 85
f 85 119 94
f 94 119 127
f 94 127 120
f 95 120 99
f 95 99 98
f 95 98 121
f 95 121 96
f 99 120 104
f 99 104 103
f 100 122 101
f 100 104 122
f 101 106 102
f 101 122 123
f 101 123 108
f 101 108 107
f 101 107 106
f 104 120 124
f 104 124 122
f 108 123 125
f 108 125 109
f 109 125 126
f 109 126 110
f 110 126 118
f 110 118 111
f 111 118 117
f 111 117 112
f 112 117 115
f 116 117 118
f 118 126 127
f 118 127 119
f 120 127 124
f 122 124 125
f 122 125 123
f 124 127 126
f 124 126 125

