# https://github.com/mikedh/trimesh
v 0.19000830 -0.79000277 -0.12688492
v 0.17001705 -0.80838294 -0.12375557
v 0.17001705 -0.79000277 -0.12601567
v 0.17001705 -0.77746756 -0.12224056
v 0.19000830 -0.77684624 -0.12268761
v 0.20999955 -0.79000277 -0.12671108
v 0.20999955 -0.80999405 -0.12482352
v 0.17001705 -0.81838215 -0.11836611
v 0.15430786 -0.80524010 -0.12233990
v 0.18978423 -0.81156189 -0.12363138
v 0.19628202 -0.82052798 -0.12050203
v 0.15306306 -0.79000277 -0.12276212
v 0.15644889 -0.77852238 -0.12132162
v 0.17001705 -0.77158649 -0.10999631
v 0.19000830 -0.77105183 -0.10999631
v 0.20999955 -0.77140588 -0.10999631
v 0.20999955 -0.77711357 -0.12241441
v 0.22401583 -0.77845735 -0.12127195
v 0.22707801 -0.79000277 -0.12308499
v 0.22481249 -0.80999405 -0.12226539
v 0.22102834 -0.82019562 -0.12017916
v 0.20999955 -0.82054240 -0.12052686
v 0.17001705 -0.82362742 -0.10835712
v 0.15000090 -0.82255096 -0.10530227
v 0.13650742 -0.82099033 -0.10177552
v 0.14858183 -0.81114281 -0.11590733
v 0.14305499 -0.79000277 -0.11831644
v 0.12991005 -0.81086106 -0.10624604
v 0.11723815 -0.80476321 -0.10247094
v 0.20999955 -0.82391644 -0.10999631
v 0.18978423 -0.82308556 -0.11151132
v 0.13000965 -0.77667285 -0.10463169
v 0.14987642 -0.77480156 -0.11096492
v 0.11858252 -0.77884031 -0.10120429
v 0.13000965 -0.77128304 -0.08997833
v 0.07451712 -0.75841553 -0.00613130
v 0.07451712 -0.75790251 -0.00347383
v 0.24998206 -0.77046663 -0.08997833
v 0.24998206 -0.77457035 -0.10656891
v 0.26621404 -0.77650667 -0.10321603
v 0.24998206 -0.79000277 -0.11352305
v 0.24998206 -0.80999405 -0.11267862
v 0.26564145 -0.82224751 -0.10271930
v 0.24998206 -0.82350464 -0.10574932
v 0.22859664 -0.82294829 -0.11096492
v 0.15000090 -0.82513745 -0.08997833
v 0.07451712 -0.83170486 -0.00998091
v 0.12991005 -0.82282550 -0.09037571
v 0.11586888 -0.82129378 -0.08396796
v 0.12316333 -0.81810040 -0.09730501
v 0.13000965 -0.79000277 -0.11108911
v 0.11686471 -0.79000277 -0.10276898
v 0.10989391 -0.81157632 -0.09015218
v 0.09759544 -0.80505944 -0.08299935
v 0.10685664 -0.79000277 -0.09340573
v 0.24998206 -0.82499296 -0.08997833
v 0.09871575 -0.77872468 -0.08153402
v 0.11116359 -0.77657891 -0.08891037
v 0.07451712 -0.76329953 -0.01864875
v 0.07451712 -0.75790251 0.00345547
v 0.30998069 -0.77022100 -0.00998091
v 0.28998944 -0.77034379 -0.04999204
v 0.29180685 -0.77360947 -0.07182306
v 0.27174091 -0.77368892 -0.09176653
v 0.28635466 -0.77628268 -0.08627773
v 0.27933410 -0.79000277 -0.09949059
v 0.26935092 -0.79000277 -0.10483038
v 0.26890278 -0.80999405 -0.10445784
v 0.27891088 -0.80999405 -0.09906838
v 0.28580696 -0.82241369 -0.08570650
v 0.27136746 -0.82368524 -0.09141883
v 0.07451712 -0.83170486 0.00998740
v 0.07451712 -0.82461000 -0.02768913
v 0.10254968 -0.81839664 -0.07691448
v 0.30998069 -0.82494236 -0.02999889
v 0.30998069 -0.82503630 -0.00998091
v 0.09722200 -0.79000277 -0.08339674
v 0.07451712 -0.80712576 -0.04703653
v 0.07451712 -0.79028452 -0.04986786
v 0.07451712 -0.78207702 -0.04368364
v 0.07451712 -0.77690400 -0.03953599
v 0.07451712 -0.77307481 -0.03566155
v 0.07451712 -0.76216526 0.01368799
v 0.09871575 -0.77872468 0.08154050
v 0.11116359 -0.77657891 0.08891686
v 0.13000965 -0.77128304 0.08998481
v 0.17001705 -0.77158649 0.10997796
v 0.19000830 -0.77103020 0.10997796
v 0.20999955 -0.77139140 0.10997796
v 0.24998206 -0.77046663 0.08998481
v 0.28998944 -0.77034379 0.04999852
v 0.30998069 -0.77022100 0.00998740
v 0.32439530 -0.77476544 -0.00998091
v 0.30998069 -0.77111686 -0.02999889
v 0.31050351 -0.77444757 -0.04934630
v 0.30418000 -0.77620322 -0.06635910
v 0.28959114 -0.79000277 -0.08948160
v 0.29959920 -0.79000277 -0.07959680
v 0.28919280 -0.80999405 -0.08908423
v 0.29920086 -0.80999405 -0.07917458
v 0.30353272 -0.82241369 -0.06581270
v 0.29148320 -0.82357688 -0.07147535
v 0.15000090 -0.82513745 0.08998481
v 0.15000090 -0.82255096 0.10525908
v 0.12991005 -0.82281823 0.09038219
v 0.07451712 -0.83053447 0.01500431
v 0.30998069 -0.82503630 0.00998740
v 0.30998069 -0.82494236 0.02998054
v 0.24998206 -0.82499296 0.08998481
v 0.20999955 -0.82391644 0.10997796
v 0.07451712 -0.81666989 -0.03737525
v 0.31010518 -0.82337458 -0.04902343
v 0.32212982 -0.82220412 -0.02999889
v 0.32362354 -0.82331676 -0.00998091
v 0.07451712 -0.77174545 0.03092432
v 0.09722200 -0.79000277 0.08337838
v 0.10688154 -0.79000277 0.09338737
v 0.11858252 -0.77884031 0.10121078
v 0.07451712 -0.77690400 0.03954248
v 0.07451712 -0.77946163 0.04227446
v 0.07451712 -0.79028452 0.04984950
v 0.13000965 -0.77667285 0.10461334
v 0.14987642 -0.77480156 0.11097140
v 0.15644889 -0.77852238 0.12132811
v 0.17001705 -0.77746756 0.12224705
v 0.19000830 -0.77683175 0.12271893
v 0.20999955 -0.77709187 0.12244573
v 0.24998206 -0.77457035 0.10657540
v 0.27174091 -0.77368892 0.09174818
v 0.29180685 -0.77360947 0.07180471
v 0.30998069 -0.77111686 0.02998054
v 0.32439530 -0.77476544 0.00998740
v 0.32262772 -0.77639104 -0.02999889
v 0.32882676 -0.79000277 -0.00998091
v 0.32108420 -0.77834178 -0.04224314
v 0.30644551 -0.79000277 -0.06958781
v 0.30597249 -0.80999405 -0.06916559
v 0.32081032 -0.82091809 -0.04172158
v 0.17001705 -0.82362742 0.10821458
v 0.13650742 -0.82098312 0.10175717
v 0.17001705 -0.81823767 0.11822358
v 0.11589378 -0.82129378 0.08397445
v 0.07451712 -0.82461000 0.02769561
v 0.10254968 -0.81838215 0.07689613
v 0.32362354 -0.82331676 0.00998740
v 0.32212982 -0.82220412 0.02998054
v 0.31010518 -0.82337458 0.04902991
v 0.29148320 -0.82357688 0.07148184
v 0.27136746 -0.82368524 0.09142531
v 0.24998206 -0.82350464 0.10573096
v 0.22859664 -0.82294829 0.11094657
v 0.20999955 -0.82054240 0.12050850
v 0.19665545 -0.82052798 0.12050850
v 0.18998340 -0.82308556 0.11141845
v 0.32803011 -0.80999405 -0.00998091
v 0.07451712 -0.79952521 0.04930311
v 0.09759544 -0.80505223 0.08298100
v 0.11726304 -0.80475599 0.10247742
v 0.11686471 -0.79000277 0.10277546
v 0.13000965 -0.79000277 0.11102108
v 0.14320436 -0.79000277 0.11822358
v 0.15318754 -0.79000277 0.12276860
v 0.17001705 -0.79000277 0.12597247
v 0.19000830 -0.79000277 0.12684174
v 0.20999955 -0.79000277 0.12671756
v 0.22401583 -0.77845735 0.12127843
v 0.26621404 -0.77650667 0.10322251
v 0.28635466 -0.77628268 0.08625939
v 0.30418000 -0.77620322 0.06636558
v 0.31050351 -0.77444757 0.04935278
v 0.32262772 -0.77639104 0.02998054
v 0.32882676 -0.79000277 0.00998740
v 0.32479364 -0.80999405 -0.02999889
v 0.32529158 -0.79000277 -0.02999889
v 0.32163191 -0.79000277 -0.04338561
v 0.31645358 -0.79000277 -0.05339460
v 0.31595567 -0.80999405 -0.05299722
v 0.32143271 -0.80999405 -0.04298823
v 0.14870632 -0.81112839 0.11583930
v 0.12318822 -0.81808592 0.09731149
v 0.17001705 -0.80823840 0.12373721
v 0.15448213 -0.80521120 0.12234638
v 0.07451712 -0.82247145 0.03127203
v 0.10989391 -0.81156910 0.09013383
v 0.07451712 -0.81400389 0.04128102
v 0.32803011 -0.80999405 0.00998740
v 0.32081032 -0.82091809 0.04172807
v 0.30353272 -0.82241369 0.06581919
v 0.28580696 -0.82241369 0.08571298
v 0.26564145 -0.82224751 0.10270095
v 0.22102834 -0.82019562 0.12018563
v 0.20999955 -0.80999405 0.12478033
v 0.18998340 -0.81146074 0.12358819
v 0.07451712 -0.80712576 0.04704302
v 0.12991005 -0.81084658 0.10615318
v 0.22481249 -0.80999405 0.12224705
v 0.22707801 -0.79000277 0.12309147
v 0.24998206 -0.79000277 0.11350470
v 0.26935092 -0.79000277 0.10483686
v 0.27933410 -0.79000277 0.09949708
v 0.28959114 -0.79000277 0.08948809
v 0.29959920 -0.79000277 0.07957844
v 0.30644551 -0.79000277 0.06959429
v 0.32108420 -0.77834178 0.04224962
v 0.32529158 -0.79000277 0.02998054
v 0.32479364 -0.80999405 0.02998054
v 0.32143271 -0.80999405 0.04299471
v 0.31595567 -0.80999405 0.05297887
v 0.30597249 -0.80999405 0.06917207
v 0.29920086 -0.80999405 0.07915623
v 0.28919280 -0.80999405 0.08906587
v 0.27891088 -0.80999405 0.09907486
v 0.26890278 -0.80999405 0.10443948
v 0.24998206 -0.80999405 0.11268510
v 0.31645358 -0.79000277 0.05337625
v 0.32163191 -0.79000277 0.04339209
f 1 2 3
f 1 3 4
f 1 4 5
f 1 5 6
f 1 6 7
f 1 7 2
f 2 8 9
f 2 9 3
f 2 7 10
f 2 10 11
f 2 11 8
f 3 9 12
f 3 12 13
f 3 13 4
f 4 14 5
f 4 13 14
f 5 15 16
f 5 16 17
f 5 17 6
f 5 14 15
f 6 17 18
f 6 18 19
f 6 19 20
f 6 20 7
f 7 20 21
f 7 21 22
f 7 22 11
f 7 11 10
f 8 23 24
f 8 24 25
f 8 25 26
f 8 26 9
f 8 11 23
f 9 27 12
f 9 26 28
f 9 28 29
f 9 29 27
f 11 22 30
f 11 30 31
f 11 31 23
f 12 27 13
f 13 32 33
f 13 33 14
f 13 27 34
f 13 34 32
f 14 33 35
f 14 35 36
f 14 36 37
f 14 37 15
f 15 37 16
f 16 38 39
f 16 39 17
f 16 37 38
f 17 39 18
f 18 39 40
f 18 40 19
f 19 40 41
f 19 41 42
f 19 42 20
f 20 42 43
f 20 43 21
f 21 44 45
f 21 45 22
f 21 43 44
f 22 45 30
f 23 31 30
f 23 30 46
f 23 46 24
f 24 46 47
f 24 47 48
f 24 48 25
f 25 48 49
f 25 49 50
f 25 50 26
f 26 50 28
f 27 29 51
f 27 51 34
f 28 50 29
f 29 52 51
f 29 50 53
f 29 53 54
f 29 54 55
f 29 55 52
f 30 45 44
f 30 44 56
f 30 56 47
f 30 47 46
f 32 35 33
f 32 34 35
f 34 52 55
f 34 55 57
f 34 57 58
f 34 58 35
f 34 51 52
f 35 58 36
f 36 58 59
f 36 59 82
f 36 82 81
f 36 81 80
f 36 80 79
f 36 79 78
f 36 78 111
f 36 111 73
f 36 73 47
f 36 47 72
f 36 72 106
f 36 106 143
f 36 143 183
f 36 183 185
f 36 185 194
f 36 194 156
f 36 156 121
f 36 121 120
f 36 120 119
f 36 119 115
f 36 115 83
f 36 83 60
f 36 60 37
f 37 60 92
f 37 92 61
f 37 61 62
f 37 62 38
f 38 62 63
f 38 63 64
f 38 64 39
f 39 64 40
f 40 64 65
f 40 65 66
f 40 66 67
f 40 67 41
f 41 67 68
f 41 68 42
f 42 68 43
f 43 68 69
f 43 69 70
f 43 70 71
f 43 71 44
f 44 71 56
f 47 73 74
f 47 74 49
f 47 49 48
f 47 56 75
f 47 75 76
f 47 76 107
f 47 107 72
f 49 74 50
f 50 74 53
f 53 74 54
f 54 77 55
f 54 74 78
f 54 78 79
f 54 79 77
f 55 77 57
f 56 71 75
f 57 77 79
f 57 79 80
f 57 80 81
f 57 81 82
f 57 82 59
f 57 59 58
f 60 83 84
f 60 84 85
f 60 85 86
f 60 86 87
f 60 87 88
f 60 88 89
f 60 89 90
f 60 90 91
f 60 91 92
f 61 92 132
f 61 132 93
f 61 93 94
f 61 94 62
f 62 94 63
f 63 94 95
f 63 95 96
f 63 96 65
f 63 65 64
f 65 97 66
f 65 96 98
f 65 98 97
f 66 97 99
f 66 99 69
f 66 69 68
f 66 68 67
f 69 99 70
f 70 99 100
f 70 100 101
f 70 101 102
f 70 102 71
f 71 102 75
f 72 103 104
f 72 104 105
f 72 105 106
f 72 107 108
f 72 108 109
f 72 109 110
f 72 110 103
f 73 111 74
f 74 111 78
f 75 102 112
f 75 112 113
f 75 113 114
f 75 114 76
f 76 114 145
f 76 145 107
f 83 115 84
f 84 116 117
f 84 117 118
f 84 118 85
f 84 115 119
f 84 119 120
f 84 120 121
f 84 121 116
f 85 118 86
f 86 122 123
f 86 123 87
f 86 118 122
f 87 123 124
f 87 124 125
f 87 125 126
f 87 126 88
f 88 126 89
f 89 126 127
f 89 127 128
f 89 128 90
f 90 128 129
f 90 129 130
f 90 130 91
f 91 130 131
f 91 131 92
f 92 131 132
f 93 133 94
f 93 132 172
f 93 172 134
f 93 134 133
f 94 133 95
f 95 133 135
f 95 135 96
f 96 135 136
f 96 136 98
f 97 98 99
f 98 136 100
f 98 100 99
f 100 136 137
f 100 137 138
f 100 138 101
f 101 138 112
f 101 112 102
f 103 139 104
f 103 110 139
f 104 140 105
f 104 139 141
f 104 141 140
f 105 140 142
f 105 142 106
f 106 142 144
f 106 144 143
f 107 145 108
f 108 145 146
f 108 146 147
f 108 147 148
f 108 148 149
f 108 149 109
f 109 149 150
f 109 150 110
f 110 150 151
f 110 151 152
f 110 152 153
f 110 153 154
f 110 154 139
f 112 138 113
f 113 138 155
f 113 155 114
f 114 155 186
f 114 186 145
f 116 121 156
f 116 156 157
f 116 157 117
f 117 157 158
f 117 158 159
f 117 159 118
f 118 159 160
f 118 160 161
f 118 161 124
f 118 124 122
f 122 124 123
f 124 161 162
f 124 162 163
f 124 163 125
f 125 163 164
f 125 164 126
f 126 164 165
f 126 165 127
f 127 165 166
f 127 166 128
f 128 166 167
f 128 167 129
f 129 167 168
f 129 168 130
f 130 169 170
f 130 170 131
f 130 168 169
f 131 170 171
f 131 171 132
f 132 171 172
f 133 134 135
f 134 172 186
f 134 186 155
f 134 155 173
f 134 173 174
f 134 174 135
f 135 174 175
f 135 175 176
f 135 176 136
f 136 176 137
f 137 176 177
f 137 177 138
f 138 177 178
f 138 178 173
f 138 173 155
f 139 154 153
f 139 153 141
f 140 141 179
f 140 179 180
f 140 180 142
f 141 181 182
f 141 182 179
f 141 153 181
f 142 180 144
f 143 144 183
f 144 180 184
f 144 184 157
f 144 157 185
f 144 185 183
f 145 186 146
f 146 186 187
f 146 187 147
f 147 188 148
f 147 187 188
f 148 188 189
f 148 189 149
f 149 189 190
f 149 190 150
f 150 191 151
f 150 190 191
f 151 191 152
f 152 191 192
f 152 192 153
f 153 192 193
f 153 193 181
f 156 194 157
f 157 184 158
f 157 194 185
f 158 180 195
f 158 195 182
f 158 182 161
f 158 161 160
f 158 160 159
f 158 184 180
f 161 182 162
f 162 182 163
f 163 182 181
f 163 181 164
f 164 181 192
f 164 192 165
f 165 192 196
f 165 196 197
f 165 197 166
f 166 197 167
f 167 198 199
f 167 199 200
f 167 200 168
f 167 197 198
f 168 200 201
f 168 201 202
f 168 202 169
f 169 202 203
f 169 203 204
f 169 204 170
f 170 204 171
f 171 204 172
f 172 204 205
f 172 205 206
f 172 206 186
f 173 178 174
f 174 178 175
f 175 178 176
f 176 178 177
f 179 195 180
f 179 182 195
f 181 193 192
f 186 206 187
f 187 206 207
f 187 207 208
f 187 208 209
f 187 209 210
f 187 210 188
f 188 210 189
f 189 211 212
f 189 212 190
f 189 210 211
f 190 212 213
f 190 213 214
f 190 214 196
f 190 196 191
f 191 196 192
f 196 214 197
f 197 214 198
f 198 214 213
f 198 213 199
f 199 213 200
f 200 213 212
f 200 212 211
f 200 211 201
f 201 211 210
f 201 210 202
f 202 210 203
f 203 210 209
f 203 209 215
f 203 215 204
f 204 215 216
f 204 216 205
f 205 216 207
f 205 207 206
f 207 216 215
f 207 215 208
f 208 215 209

