# https://github.com/mikedh/trimesh
v -4.82095208 -8.38501183 9.93256558
v -11.17212457 -10.06216271 9.93256558
v -11.17212457 -9.98368987 10.04086478
v -11.17212457 -9.81255234 10.30016433
v -11.46907819 -9.85429331 10.36328763
v -11.17212457 -9.62054353 10.65291144
v -10.42670981 -9.34672300 10.89488305
v -10.77517566 -9.38095066 11.04402811
v -11.14485271 -9.42436109 11.19936005
v -10.95395429 -9.34505353 11.38996732
v -11.14485271 -9.31666973 11.71981598
v -10.65094000 -9.22233556 11.69258593
v -10.13278615 -9.12466171 11.69258593
v -10.13278615 -9.07874632 12.21180448
v -3.56647410 -8.38501183 16.25415638
v 4.79671094 -8.38501183 9.93256558
v -11.60240370 -10.24248379 9.93256558
v -11.57210266 -9.77665445 10.65291144
v -13.43563917 -10.95541855 10.44807045
v -13.62653759 -10.83604024 10.79462913
v -13.78713497 -10.74754915 11.16160996
v -13.26898034 -10.47289390 11.13994888
v -11.29939019 -9.38178539 11.56510195
v -11.45089694 -9.34588827 11.91104116
v -10.13278615 -9.14052306 12.73164095
v -10.65094000 -9.17642018 12.21180448
v -11.43877637 -9.35089740 12.48781249
v -11.27514904 -9.38679452 12.83375171
v -11.12970219 -9.43604881 13.20877782
v -4.41491333 -8.61709138 16.25415638
v 3.56647410 -8.38501183 16.25415638
v 10.13278615 -9.07874632 12.21180448
v 10.13278615 -9.12466171 11.69258593
v 10.65094000 -9.22233556 11.69258593
v 11.14485271 -9.31666973 11.71981598
v 10.95395429 -9.34505353 11.38996732
v 10.77517566 -9.38095066 11.04402811
v 10.42670981 -9.34672300 10.89488305
v 11.17212457 -9.62054353 10.65291144
v 11.17212457 -9.81255234 10.30016433
v 11.17212457 -9.98368987 10.04086478
v 11.17212457 -10.06216271 9.93256558
v -13.37503554 -11.52309616 9.93256558
v -13.38412616 -11.52560034 9.93504189
v -13.67804905 -11.30186882 10.28098110
v -13.45381887 -10.41779574 11.54901139
v -14.02348495 -11.43794397 10.39732558
v -14.56285000 -11.42041317 10.89797727
v -13.97197349 -10.95124492 10.98090481
v -14.11438963 -10.86275383 11.32746194
v -11.45089694 -9.34505353 12.21180448
v -11.17212457 -9.28244208 12.21180448
v -13.52957302 -10.38189862 11.89557007
v -13.53260219 -10.38022839 12.21180448
v -13.52048240 -10.38690776 12.50328359
v -13.44169907 -10.42280410 12.84984226
v -11.66603728 -9.69150304 13.25085950
v -11.54180162 -9.79418603 13.77007805
v -11.17212457 -9.65560592 13.77007805
v -4.76943946 -8.73480100 16.25415638
v -11.43574642 -9.87098940 14.03432865
v 4.41491333 -8.62961382 16.25415638
v 11.17212457 -9.65560592 13.77007805
v 11.12970219 -9.43604881 13.20877782
v 11.27514904 -9.38679452 12.83375171
v 11.43877637 -9.35089740 12.48781249
v 10.13278615 -9.14052306 12.73164095
v 10.65094000 -9.17642018 12.21180448
v 11.45089694 -9.34588827 11.91104116
v 11.29939019 -9.38178539 11.56510195
v 11.14485271 -9.42436109 11.19936005
v 11.57210266 -9.77665445 10.65291144
v 11.46907819 -9.85429331 10.36328763
v 11.32363133 -10.11726085 9.93256558
v -13.38109544 -11.52810452 9.93256558
v -13.66895843 -11.79023811 9.93256558
v -13.80531466 -11.65499690 10.10893914
v -14.20226357 -10.81016062 11.69258593
v -13.72956206 -10.53383514 11.70991386
v -14.18408233 -11.78439424 10.28283794
v -14.53254895 -11.97890646 10.40598877
v -14.32952919 -11.64330996 10.49881688
v -14.66890519 -11.69256424 10.78163279
v -15.04161296 -12.02732601 10.97409691
v -14.92949786 -11.68672039 11.15727682
v -14.65678384 -11.33776594 11.17274946
v -14.28710835 -11.06811981 11.16160996
v -14.45982553 -10.97211540 11.69258593
v -14.23862606 -10.78761990 12.21180448
v -13.79319487 -10.52799204 12.21180448
v -14.18711305 -10.81850866 12.73164095
v -13.72350216 -10.54301868 12.69884192
v -14.10529900 -10.86776295 13.07696147
v -13.25988972 -10.49626857 13.26385584
v -13.77198445 -10.76341050 13.24962212
v -6.48752873 -9.92107842 16.25415638
v -11.52968105 -10.33097488 14.62347686
v -11.17212457 -10.53884426 14.95703920
v -11.48422871 -10.86859769 15.09813742
v -11.30545009 -11.51641679 15.55856505
v -13.60229645 -10.85273633 13.60360584
v 4.49066670 -8.65549267 16.25415638
v 11.43574642 -9.87098940 14.03432865
v 11.54180162 -9.79418603 13.77007805
v 11.66603728 -9.69150304 13.25085950
v 13.44169907 -10.42280410 12.84984226
v 13.52048240 -10.38690776 12.50328359
v 13.53260219 -10.38022839 12.21180448
v 11.45089694 -9.34505353 12.21180448
v 11.17212457 -9.28244208 12.21180448
v 13.52957302 -10.38189862 11.89557007
v 13.45381887 -10.41779574 11.54901139
v 13.26898034 -10.47289390 11.13994888
v 11.60240370 -10.24248379 9.93256558
v 13.78713497 -10.74754915 11.16160996
v 13.62653759 -10.83604024 10.79462913
v 13.43563917 -10.95541855 10.44807045
v -13.95379225 -12.20430820 9.93256558
v -14.49921719 -10.94707051 12.21180448
v -14.32952919 -12.17592363 10.19124721
v -14.62951353 -12.32535673 10.33234544
v -14.83556247 -12.17592363 10.63125191
v -15.09615514 -12.37377630 10.85651505
v -15.16281867 -12.20514293 11.15727682
v -15.10827494 -11.85618847 11.32065558
v -15.02343171 -11.51140843 11.69258593
v -14.76283904 -11.23174404 11.69258593
v -14.44770573 -10.98213290 12.73164095
v -14.66587447 -11.32691371 13.15741270
v -14.32346929 -11.14742735 13.28984696
v -13.94773235 -10.96710626 13.42228200
v -6.85720577 -10.17820287 16.25415638
v -13.40230741 -10.97795927 13.95016452
v -13.63865739 -11.32440876 14.11663595
v -13.55078344 -11.91045191 14.57334990
v -11.49028861 -11.86286706 15.61673729
v -11.14788343 -11.69089401 15.65015500
v -14.54163958 -11.43794397 13.50397061
v 4.75125860 -8.74732345 16.25415638
v 11.52968105 -10.33097488 14.62347686
v 13.60229645 -10.85273633 13.60360584
v 13.77198445 -10.76341050 13.24962212
v 14.10529900 -10.86776295 13.07696147
v 13.25988972 -10.49626857 13.26385584
v 14.18711305 -10.81850866 12.73164095
v 13.72350216 -10.54301868 12.69884192
v 14.23862606 -10.78761990 12.21180448
v 13.79319487 -10.52799204 12.21180448
v 14.20226357 -10.81016062 11.69258593
v 13.72956206 -10.53383514 11.70991386
v 14.11438963 -10.86275383 11.32746194
v 13.67804905 -11.30186882 10.28098110
v 13.38412616 -11.52560034 9.93504189
v 13.38715688 -11.53227892 9.93256558
v 13.97197349 -10.95124492 10.98090481
v 14.56285000 -11.42041317 10.89797727
v 14.02348495 -11.43794397 10.39732558
v -14.06893806 -12.45224912 9.93256558
v -14.78102028 -11.20669914 12.21180448
v -14.75071924 -11.24176153 12.73164095
v -14.13257087 -12.59834254 9.93256558
v -14.26589638 -12.70019003 9.99197520
v -14.69920623 -12.73107879 10.27603004
v -14.95979891 -12.73107879 10.53966118
v -15.12342546 -12.73107879 10.79958019
v -15.27493376 -12.73107879 11.17274946
v -15.42644052 -12.73107879 11.69258593
v -15.31129470 -12.21182152 11.69258593
v -15.15069733 -11.77103706 11.69258593
v -15.04161296 -11.47885023 12.21180448
v -15.17190775 -11.73847886 12.21180448
v -15.01131037 -11.52810452 12.73164095
v -14.84768381 -11.65583163 13.29356064
v -10.01461116 -12.86047535 16.13409900
v -9.61160235 -12.76363622 16.15328300
v -6.98750133 -10.66156225 16.25415638
v -11.17212457 -12.21182152 15.77949582
v -11.17212457 -12.73107879 15.88470080
v -10.65094000 -12.73107879 15.98990578
v -13.98712401 -11.47634604 13.99657857
v -13.76895372 -11.69339898 14.28929583
v -14.15075057 -11.82279554 14.11539780
v -14.49618647 -12.03400460 13.99224620
v -14.59921248 -12.38045487 14.06527084
v -13.88712872 -12.21182152 14.45948095
v -13.62653759 -12.21182152 14.61666973
v -11.55695214 -12.21182152 15.65696290
v -14.68405571 -11.78439424 13.64568829
v -14.34771043 -11.62995277 13.82082370
v 6.57540268 -9.98035098 16.25415638
v 11.30545009 -11.51641679 15.55856505
v 11.48422871 -10.86859769 15.09813742
v 11.17212457 -10.53884426 14.95703920
v 13.63865739 -11.32440876 14.11663595
v 13.40230741 -10.97795927 13.95016452
v 14.54163958 -11.43794397 13.50397061
v 13.94773235 -10.96710626 13.42228200
v 14.32346929 -11.14742735 13.28984696
v 14.66587447 -11.32691371 13.15741270
v 14.44770573 -10.98213290 12.73164095
v 14.49921719 -10.94707051 12.21180448
v 14.45982553 -10.97211540 11.69258593
v 14.65678384 -11.33776594 11.17274946
v 14.28710835 -11.06811981 11.16160996
v 13.80531466 -11.65499690 10.10893914
v 13.66895843 -11.79023811 9.93256558
v 14.92949786 -11.68672039 11.15727682
v 15.04161296 -12.02732601 10.97409691
v 14.66890519 -11.69256424 10.78163279
v 14.53254895 -11.97890646 10.40598877
v 14.32952919 -11.64330996 10.49881688
v 14.18408233 -11.78439424 10.28283794
v -14.18711305 -12.76196677 9.93256558
v -14.69920623 -13.25033606 10.27541058
v -14.95979891 -13.25033606 10.53842381
v -14.19014378 -13.11008649 9.93256558
v -15.12342546 -13.25033606 10.79834281
v -15.27493376 -13.25033606 11.17274946
v -15.42644052 -13.25033606 11.69258593
v -15.47492281 -12.73107879 12.21180448
v -15.35674627 -12.21182152 12.21180448
v -15.14160670 -11.78856788 12.73164095
v -15.10221504 -11.87371928 13.08376937
v -15.02949161 -12.06322314 13.42970858
v -10.01461116 -13.12344366 16.13409900
v -7.50868591 -12.73107879 16.25415638
v -11.17212457 -13.25033606 15.88531949
v -11.62058495 -12.73107879 15.70956539
v -14.81435205 -12.22183900 13.76574568
v -15.08403380 -12.40967341 13.53986385
v -14.91434579 -12.73107879 13.84310269
v -14.65678384 -12.73107879 14.10920936
v -14.23862606 -12.77615867 14.38583684
v -13.97197349 -12.63340493 14.51765319
v -13.78713497 -12.77615867 14.65008745
v 6.85720577 -10.17820287 16.25415638
v 11.14788343 -11.69089401 15.65015500
v 11.49028861 -11.86286706 15.61673729
v 13.55078344 -11.91045191 14.57334990
v 13.76895372 -11.69339898 14.28929583
v 13.98712401 -11.47634604 13.99657857
v 14.34771043 -11.62995277 13.82082370
v 14.68405571 -11.78439424 13.64568829
v 14.84768381 -11.65583163 13.29356064
v 15.01131037 -11.52810452 12.73164095
v 14.75071924 -11.24176153 12.73164095
v 14.78102028 -11.20669914 12.21180448
v 14.76283904 -11.23174404 11.69258593
v 15.02343171 -11.51140843 11.69258593
v 13.94470162 -12.19178575 9.93256558
v 15.10827494 -11.85618847 11.32065558
v 14.83556247 -12.17592363 10.63125191
v 15.16281867 -12.20514293 11.15727682
v 15.09615514 -12.37377630 10.85651505
v 14.62951353 -12.32535673 10.33234544
v 14.32952919 -12.17592363 10.19124721
v -14.19014378 -13.22195225 9.93256558
v -14.26589638 -13.28289349 9.99135729
v -14.63254425 -13.66106647 10.33172598
v -15.09615514 -13.61014195 10.85527767
v -14.83556247 -13.80883012 10.62939507
v -15.16584785 -13.77794058 11.15603944
v -15.47492281 -13.25033606 12.21180448
v -15.31432543 -13.77042805 11.69258593
v -15.40825928 -12.73107879 12.73164095
v -15.29614418 -12.21182152 12.73164095
v -15.14766660 -12.22684814 13.25395372
v -6.95720029 -16.91352073 16.25415638
v -7.50868591 -13.25033606 16.25415638
v -10.65094000 -13.25033606 15.99114393
v -11.17212457 -13.77042805 15.78135266
v -11.62058495 -13.25033606 15.71018408
v -11.55998209 -13.77042805 15.65820028
v -11.49028861 -14.12355614 15.61735598
v -14.03257557 -12.97901969 14.55169037
v -15.24463117 -12.73107879 13.25085950
v -15.10524576 -12.73107879 13.58318369
v -14.91737652 -13.25033606 13.84372138
v -14.65678384 -13.25033606 14.10982883
v 6.90265733 -10.28422477 16.25415638
v 10.01461116 -12.86047535 16.13409900
v 10.65094000 -12.73107879 15.98990578
v 11.17212457 -12.73107879 15.88470080
v 11.17212457 -12.21182152 15.77949582
v 11.55695214 -12.21182152 15.65696290
v 13.62653759 -12.21182152 14.61666973
v 13.88712872 -12.21182152 14.45948095
v 14.59921248 -12.38045487 14.06527084
v 14.49618647 -12.03400460 13.99224620
v 14.15075057 -11.82279554 14.11539780
v 14.81435205 -12.22183900 13.76574568
v 15.02949161 -12.06322314 13.42970858
v 15.10221504 -11.87371928 13.08376937
v 15.04161296 -11.47885023 12.21180448
v 15.14160670 -11.78856788 12.73164095
v 15.17190775 -11.73847886 12.21180448
v 15.15069733 -11.77103706 11.69258593
v 13.95682297 -12.21098679 9.93256558
v 15.31129470 -12.21182152 11.69258593
v 14.95979891 -12.73107879 10.53966118
v 15.42644052 -12.73107879 11.69258593
v 15.27493376 -12.73107879 11.17274946
v 15.12342546 -12.73107879 10.79958019
v 14.26589638 -12.70019003 9.99197520
v 14.13257087 -12.59834254 9.93256558
v 13.98106411 -12.26191054 9.93256558
v 14.69920623 -12.73107879 10.27603004
v -14.13560004 -13.38474097 9.93256558
v -13.96591204 -13.77126278 9.93256558
v -14.33255991 -13.80883012 10.18877091
v -14.53557968 -14.00751674 10.40413193
v -15.04161296 -13.95659222 10.97224007
v -15.10827494 -14.12856450 11.31879874
v -15.35977699 -13.77042805 12.21180448
v -15.29917491 -13.77042805 12.73164095
v -15.40825928 -13.25033606 12.73164095
v -15.15069733 -14.21622163 11.69258593
v -11.31454071 -14.47000641 15.56104058
v -11.48725866 -15.11699079 15.10061373
v -11.53271100 -15.65461358 14.62657108
v -11.44483705 -16.11459908 14.03989763
v -11.55089147 -16.19307111 13.77007805
v -11.17212457 -16.33666113 13.77007805
v -11.13879281 -16.55204383 13.21867916
v -11.29029957 -16.59879473 12.85046173
v -11.44483705 -16.63469107 12.50390305
v -10.65094000 -16.75406936 12.73164095
v -10.13278615 -16.85174322 12.73164095
v -10.13278615 -16.91352073 12.21304186
v 6.95720029 -16.91352073 16.25415638
v -14.03257557 -13.00239437 14.55169037
v -13.78713497 -13.20525616 14.65070691
v -13.62956677 -13.77042805 14.61790711
v -13.55381416 -14.07513734 14.57520674
v -15.24463117 -13.25033606 13.25085950
v -15.10524576 -13.25033606 13.58380315
v -15.08403380 -13.57341088 13.53986385
v -14.59921248 -13.60513359 14.06650899
v -14.23862606 -13.20525616 14.38707499
v 7.50868591 -12.73107879 16.25415638
v 9.61160235 -12.76363622 16.15328300
v 10.01461116 -13.12344366 16.13409900
v 11.17212457 -13.25033606 15.88531949
v 11.62058495 -12.73107879 15.70956539
v 13.78713497 -12.77615867 14.65008745
v 13.97197349 -12.63340493 14.51765319
v 14.23862606 -12.77615867 14.38583684
v 14.65678384 -12.73107879 14.10920936
v 14.91434579 -12.73107879 13.84310269
v 15.08403380 -12.40967341 13.53986385
v 15.14766660 -12.22684814 13.25395372
v 15.29614418 -12.21182152 12.73164095
v 15.35674627 -12.21182152 12.21180448
v 15.47492281 -12.73107879 12.21180448
v 14.95979891 -13.25033606 10.53842381
v 15.42644052 -13.25033606 11.69258593
v 15.27493376 -13.25033606 11.17274946
v 15.12342546 -13.25033606 10.79834281
v 14.18711305 -12.76196677 9.93256558
v 14.69920623 -13.25033606 10.27541058
v 14.19014378 -13.22195225 9.93256558
v -13.67501988 -14.19618510 9.93256558
v -14.56588072 -14.56434135 10.89364568
v -14.67193591 -14.28968531 10.77668328
v -14.18711305 -14.20119501 10.28098110
v -14.02651568 -14.54764373 10.39484927
v -14.33255991 -14.34060984 10.49324790
v -14.93555776 -14.29719786 11.15603944
v -15.02646089 -14.47584949 11.69258593
v -15.17190775 -14.24961380 12.21180448
v -15.14463743 -14.19952399 12.73164095
v -15.10221504 -14.11270314 13.08686359
v -15.14766660 -13.75623615 13.25581056
v -13.64168811 -14.66117894 14.11849202
v -13.40836730 -15.00762921 13.95511480
v -13.60532562 -15.13285215 13.60855690
v -13.77501362 -15.22468291 13.25333503
v -13.26595117 -15.49182486 13.26880612
v -13.44775897 -15.56278436 12.86593282
v -13.52654230 -15.59868072 12.51999361
v -11.46301752 -16.64220515 12.21180448
v -11.17212457 -16.70982421 12.21180448
v -10.65094000 -16.81584688 12.21180448
v -10.13278615 -16.91352073 12.20994764
v 10.13278615 -16.91352073 12.21304186
v 10.13278615 -16.85174322 12.73164095
v 10.65094000 -16.75406936 12.73164095
v 11.44483705 -16.63469107 12.50390305
v 11.29029957 -16.59879473 12.85046173
v 11.13879281 -16.55204383 13.21867916
v 11.17212457 -16.33666113 13.77007805
v 11.55089147 -16.19307111 13.77007805
v 11.44483705 -16.11459908 14.03989763
v 11.53271100 -15.65461358 14.62657108
v 11.48725866 -15.11699079 15.10061373
v 11.31454071 -14.47000641 15.56104058
v 11.49028861 -14.12355614 15.61735598
v 11.17212457 -13.77042805 15.78135266
v 10.65094000 -13.25033606 15.99114393
v 7.50868591 -13.25033606 16.25415638
v -13.97500267 -13.34884464 14.51827188
v -13.89015944 -13.77042805 14.46133702
v -14.49921719 -13.95158386 13.99410304
v -14.15378129 -14.16279292 14.11725464
v -13.77198445 -14.29218950 14.29115267
v -15.03252233 -13.91986115 13.43280280
v -14.81435205 -13.76207923 13.76698383
v 11.55998209 -13.77042805 15.65820028
v 11.62058495 -13.25033606 15.71018408
v 14.03257557 -12.97901969 14.55169037
v 14.65678384 -13.25033606 14.10982883
v 14.91737652 -13.25033606 13.84372138
v 15.10524576 -12.73107879 13.58318369
v 15.24463117 -12.73107879 13.25085950
v 15.40825928 -12.73107879 12.73164095
v 15.47492281 -13.25033606 12.21180448
v 14.83556247 -13.80883012 10.62939507
v 14.63254425 -13.66106647 10.33172598
v 15.09615514 -13.61014195 10.85527767
v 15.31432543 -13.77042805 11.69258593
v 15.16584785 -13.77794058 11.15603944
v 14.26589638 -13.28289349 9.99135729
v 14.13560004 -13.38474097 9.93256558
v -13.39018606 -14.45915341 9.93256558
v -13.80834539 -14.33059157 10.10646438
v -14.29013752 -14.92080835 11.15789628
v -14.65981457 -14.64949276 11.17274946
v -13.44472824 -15.03100465 10.44312094
v -13.62956677 -15.14954823 10.78967807
v -13.97803339 -15.03434355 10.97409691
v -13.68107978 -14.68455438 10.27912426
v -14.76586976 -14.75467915 11.69258593
v -15.04464213 -14.50924321 12.21180448
v -15.01434109 -14.45915341 12.73164095
v -14.85071299 -14.33059157 13.29789224
v -13.99015319 -14.50924321 13.99905332
v -14.54769948 -14.54847845 13.50892166
v -13.95379225 -15.01848220 13.42847043
v -14.11135890 -15.11782551 13.08253122
v -14.19620368 -15.16875004 12.73164095
v -13.72653134 -15.44507397 12.70812457
v -14.24468596 -15.19963802 12.21180448
v -13.80228549 -15.45926587 12.21180448
v -13.54169282 -15.60702953 12.21180448
v -11.45695762 -16.63970098 11.89495061
v -10.13278615 -16.86760613 11.69258593
v -9.90552602 -16.91352073 11.91908644
v 10.13278615 -16.91352073 12.20994764
v 10.65094000 -16.81584688 12.21180448
v 11.17212457 -16.70982421 12.21180448
v 11.46301752 -16.64220515 12.21180448
v 13.52654230 -15.59868072 12.51999361
v 13.44775897 -15.56278436 12.86593282
v 13.26595117 -15.49182486 13.26880612
v 13.77501362 -15.22468291 13.25333503
v 13.60532562 -15.13285215 13.60855690
v 13.40836730 -15.00762921 13.95511480
v 13.64168811 -14.66117894 14.11849202
v 13.55381416 -14.07513734 14.57520674
v 13.62956677 -13.77042805 14.61790711
v -14.68405571 -14.20202973 13.64816382
v -14.35074116 -14.35563646 13.82391792
v 13.78713497 -13.20525616 14.65070691
v 14.03257557 -13.00239437 14.55169037
v 14.23862606 -13.20525616 14.38707499
v 14.59921248 -13.60513359 14.06650899
v 15.08403380 -13.57341088 13.53986385
v 15.10524576 -13.25033606 13.58380315
v 15.24463117 -13.25033606 13.25085950
v 15.40825928 -13.25033606 12.73164095
v 15.29917491 -13.77042805 12.73164095
v 15.35977699 -13.77042805 12.21180448
v 15.04161296 -13.95659222 10.97224007
v 14.53557968 -14.00751674 10.40413193
v 14.33255991 -13.80883012 10.18877091
v 13.96591204 -13.77126278 9.93256558
v 14.07196724 -13.53417409 9.93256558
v 15.15069733 -14.21622163 11.69258593
v 15.10827494 -14.12856450 11.31879874
v -11.60846437 -15.74477490 9.93256558
v -14.12044952 -15.12283387 11.32065558
v -14.46891615 -15.01430857 11.69258593
v -11.47513809 -16.13129516 10.35833811
v -13.79016414 -15.24137900 11.15789628
v -14.78405101 -14.77972406 12.21180448
v -14.50527709 -15.03935192 12.21180448
v -14.75374842 -14.74466090 12.73164095
v -14.66890519 -14.65867475 13.16236376
v -14.32952919 -14.83816112 13.29541671
v -14.45679480 -15.00429030 12.73164095
v -14.20832347 -15.17709730 11.69258593
v -13.53563292 -15.60369062 11.87886160
v -11.57513261 -16.21060347 10.65291144
v -11.31454071 -16.60380308 11.54839348
v -11.15394333 -16.67142369 11.70991386
v -10.65094000 -16.76993228 11.69258593
v -13.45987876 -15.56779273 11.53292239
v -9.72674739 -16.91352073 11.69258593
v -10.62972958 -16.66975423 11.18945793
v -10.13278615 -16.75991400 11.17274946
v -7.02689377 -16.91352073 9.93256558
v 9.72674739 -16.91352073 11.69258593
v 10.13278615 -16.86760613 11.69258593
v 11.45695762 -16.63970098 11.89495061
v 13.54169282 -15.60702953 12.21180448
v 13.80228549 -15.45926587 12.21180448
v 14.24468596 -15.19963802 12.21180448
v 14.19620368 -15.16875004 12.73164095
v 13.72653134 -15.44507397 12.70812457
v 14.11135890 -15.11782551 13.08253122
v 13.95379225 -15.01848220 13.42847043
v 14.54769948 -14.54847845 13.50892166
v 13.99015319 -14.50924321 13.99905332
v 13.77198445 -14.29218950 14.29115267
v 14.15378129 -14.16279292 14.11725464
v 14.49921719 -13.95158386 13.99410304
v 13.89015944 -13.77042805 14.46133702
v 13.97500267 -13.34884464 14.51827188
v 14.81435205 -13.76207923 13.76698383
v 15.03252233 -13.91986115 13.43280280
v 15.14766660 -13.75623615 13.25581056
v 15.10221504 -14.11270314 13.08686359
v 15.14463743 -14.19952399 12.73164095
v 15.17190775 -14.24961380 12.21180448
v 14.93555776 -14.29719786 11.15603944
v 14.56588072 -14.56434135 10.89364568
v 14.67193591 -14.28968531 10.77668328
v 14.33255991 -14.34060984 10.49324790
v 14.02651568 -14.54764373 10.39484927
v 14.18711305 -14.20119501 10.28098110
v 13.67501988 -14.19618510 9.93256558
v 15.02646089 -14.47584949 11.69258593
v -11.31454071 -15.87667565 9.93256558
v -11.17212457 -15.93010436 9.93256558
v -11.17212457 -16.00356805 10.03281950
v -11.17212457 -16.17470559 10.29273851
v -11.17212457 -16.37172276 10.65291144
v -13.27201107 -15.51519876 11.13437991
v -13.73259278 -15.45425752 11.70063120
v -11.15394333 -16.56373157 11.18945793
v -10.96910481 -16.64053416 11.37387676
v -10.79032696 -16.60463782 11.02731809
v -10.44489106 -16.63886470 10.88621986
v -10.13278615 -16.55371330 10.55513228
v -10.65094000 -16.23648310 10.19867303
v -10.61760901 -16.06951919 9.93256558
v 7.03598362 -16.91352073 9.93256558
v 10.13278615 -16.75991400 11.17274946
v 10.62972958 -16.66975423 11.18945793
v 10.65094000 -16.76993228 11.69258593
v 11.15394333 -16.67142369 11.70991386
v 11.31454071 -16.60380308 11.54839348
v 11.57513261 -16.21060347 10.65291144
v 13.45987876 -15.56779273 11.53292239
v 13.53563292 -15.60369062 11.87886160
v 14.20832347 -15.17709730 11.69258593
v 14.50527709 -15.03935192 12.21180448
v 14.45679480 -15.00429030 12.73164095
v 14.66890519 -14.65867475 13.16236376
v 14.32952919 -14.83816112 13.29541671
v 14.85071299 -14.33059157 13.29789224
v 14.68405571 -14.20202973 13.64816382
v 14.35074116 -14.35563646 13.82391792
v 15.01434109 -14.45915341 12.73164095
v 15.04464213 -14.50924321 12.21180448
v 14.65981457 -14.64949276 11.17274946
v 14.29013752 -14.92080835 11.15789628
v 13.97803339 -15.03434355 10.97409691
v 13.62956677 -15.14954823 10.78967807
v 13.44472824 -15.03100465 10.44312094
v 13.68107978 -14.68455438 10.27912426
v 13.39018606 -14.45998813 9.93256558
v 13.80834539 -14.33059157 10.10646438
v 14.76586976 -14.75467915 11.69258593
v -10.66306057 -16.05866620 9.93256558
v -10.62972958 -16.50863341 10.68880469
v 10.61760901 -16.06951919 9.93256558
v 10.65094000 -16.23648310 10.19867303
v 11.17212457 -16.17470559 10.29273851
v 10.13278615 -16.55371330 10.55513228
v 10.44489106 -16.63886470 10.88621986
v 10.79032696 -16.60463782 11.02731809
v 10.96910481 -16.64053416 11.37387676
v 11.15394333 -16.56373157 11.18945793
v 11.17212457 -16.37172276 10.65291144
v 11.47513809 -16.13129516 10.35833811
v 13.27201107 -15.51519876 11.13437991
v 13.79016414 -15.24137900 11.15789628
v 14.12044952 -15.12283387 11.32065558
v 13.73259278 -15.45425752 11.70063120
v 14.46891615 -15.01430857 11.69258593
v 14.78405101 -14.77972406 12.21180448
v 14.75374842 -14.74466090 12.73164095
v 11.60846437 -15.74477490 9.93256558
v 10.64185015 -16.06367455 9.93256558
v 11.17212457 -16.00356805 10.03281950
v 10.62972958 -16.50863341 10.68880469
v 11.17212457 -15.93010436 9.93256558
f 1 2 3
f 1 3 4
f 1 4 5
f 1 5 6
f 1 6 7
f 1 7 8
f 1 8 9
f 1 9 10
f 1 10 11
f 1 11 12
f 1 12 13
f 1 13 14
f 1 14 15
f 1 15 31
f 1 31 16
f 1 16 42
f 1 42 74
f 1 74 114
f 1 114 154
f 1 154 206
f 1 206 250
f 1 250 298
f 1 298 306
f 1 306 305
f 1 305 359
f 1 359 361
f 1 361 423
f 1 423 477
f 1 477 476
f 1 476 531
f 1 531 572
f 1 572 594
f 1 594 598
f 1 598 595
f 1 595 577
f 1 577 547
f 1 547 501
f 1 501 546
f 1 546 575
f 1 575 534
f 1 534 533
f 1 533 480
f 1 480 424
f 1 424 362
f 1 362 309
f 1 309 308
f 1 308 257
f 1 257 216
f 1 216 213
f 1 213 161
f 1 161 158
f 1 158 118
f 1 118 76
f 1 76 75
f 1 75 43
f 1 43 17
f 1 17 2
f 2 17 5
f 2 5 3
f 3 5 4
f 5 18 6
f 5 17 19
f 5 19 20
f 5 20 21
f 5 21 22
f 5 22 18
f 6 18 9
f 6 9 8
f 6 8 7
f 9 11 10
f 9 18 23
f 9 23 11
f 11 23 24
f 11 24 12
f 12 24 13
f 13 24 14
f 14 25 15
f 14 24 26
f 14 26 27
f 14 27 25
f 15 25 27
f 15 27 28
f 15 28 29
f 15 29 30
f 15 30 60
f 15 60 96
f 15 96 132
f 15 132 176
f 15 176 226
f 15 226 269
f 15 269 268
f 15 268 330
f 15 330 400
f 15 400 340
f 15 340 280
f 15 280 236
f 15 236 190
f 15 190 139
f 15 139 102
f 15 102 62
f 15 62 31
f 16 31 32
f 16 32 33
f 16 33 34
f 16 34 35
f 16 35 36
f 16 36 37
f 16 37 38
f 16 38 39
f 16 39 40
f 16 40 41
f 16 41 42
f 17 43 44
f 17 44 45
f 17 45 19
f 18 24 23
f 18 22 46
f 18 46 24
f 19 45 47
f 19 47 48
f 19 48 20
f 20 48 49
f 20 49 21
f 21 49 50
f 21 50 22
f 22 50 46
f 24 51 52
f 24 52 26
f 24 46 53
f 24 53 54
f 24 54 51
f 26 52 27
f 27 52 51
f 27 51 54
f 27 54 55
f 27 55 56
f 27 56 57
f 27 57 58
f 27 58 29
f 27 29 28
f 29 58 59
f 29 59 30
f 30 59 61
f 30 61 60
f 31 62 63
f 31 63 64
f 31 64 65
f 31 65 66
f 31 66 67
f 31 67 32
f 32 67 66
f 32 66 68
f 32 68 69
f 32 69 33
f 33 69 34
f 34 69 35
f 35 69 70
f 35 70 71
f 35 71 36
f 36 71 37
f 37 71 39
f 37 39 38
f 39 71 72
f 39 72 73
f 39 73 40
f 40 73 41
f 41 73 42
f 42 73 74
f 43 75 44
f 44 75 76
f 44 76 77
f 44 77 47
f 44 47 45
f 46 50 78
f 46 78 79
f 46 79 53
f 47 80 81
f 47 81 82
f 47 82 48
f 47 77 80
f 48 82 81
f 48 81 83
f 48 83 84
f 48 84 85
f 48 85 86
f 48 86 87
f 48 87 49
f 49 87 50
f 50 87 86
f 50 86 88
f 50 88 78
f 53 79 78
f 53 78 89
f 53 89 90
f 53 90 54
f 54 90 55
f 55 90 89
f 55 89 91
f 55 91 92
f 55 92 56
f 56 92 91
f 56 91 93
f 56 93 94
f 56 94 58
f 56 58 57
f 58 61 59
f 58 94 93
f 58 93 95
f 58 95 61
f 60 61 97
f 60 97 98
f 60 98 99
f 60 99 100
f 60 100 96
f 61 95 101
f 61 101 97
f 62 102 103
f 62 103 63
f 63 103 104
f 63 104 64
f 64 104 66
f 64 66 65
f 66 104 105
f 66 105 106
f 66 106 107
f 66 107 108
f 66 108 109
f 66 109 110
f 66 110 68
f 68 110 69
f 69 72 70
f 69 110 109
f 69 109 108
f 69 108 111
f 69 111 112
f 69 112 72
f 70 72 71
f 72 112 113
f 72 113 73
f 73 114 74
f 73 113 115
f 73 115 116
f 73 116 117
f 73 117 114
f 76 118 81
f 76 81 80
f 76 80 77
f 78 88 119
f 78 119 89
f 81 118 120
f 81 120 121
f 81 121 122
f 81 122 84
f 81 84 83
f 84 122 123
f 84 123 124
f 84 124 125
f 84 125 85
f 85 125 126
f 85 126 86
f 86 126 127
f 86 127 88
f 88 127 119
f 89 119 91
f 91 119 128
f 91 128 93
f 93 128 129
f 93 129 130
f 93 130 131
f 93 131 101
f 93 101 95
f 96 100 132
f 97 101 133
f 97 133 134
f 97 134 99
f 97 99 98
f 99 134 135
f 99 135 100
f 100 135 136
f 100 136 137
f 100 137 132
f 101 131 138
f 101 138 133
f 102 139 103
f 103 140 141
f 103 141 142
f 103 142 104
f 103 139 140
f 104 142 143
f 104 143 144
f 104 144 106
f 104 106 105
f 106 144 143
f 106 143 145
f 106 145 146
f 106 146 107
f 107 146 145
f 107 145 147
f 107 147 148
f 107 148 108
f 108 148 111
f 111 148 147
f 111 147 149
f 111 149 150
f 111 150 112
f 112 150 149
f 112 149 151
f 112 151 113
f 113 151 115
f 114 117 152
f 114 152 153
f 114 153 154
f 115 155 116
f 115 151 155
f 116 155 156
f 116 156 117
f 117 156 157
f 117 157 152
f 118 158 121
f 118 121 120
f 119 127 159
f 119 159 160
f 119 160 128
f 121 158 161
f 121 161 162
f 121 162 163
f 121 163 164
f 121 164 122
f 122 164 123
f 123 165 166
f 123 166 124
f 123 164 165
f 124 166 167
f 124 167 168
f 124 168 125
f 125 168 169
f 125 169 126
f 126 170 127
f 126 169 171
f 126 171 170
f 127 170 159
f 128 160 129
f 129 138 130
f 129 160 172
f 129 172 173
f 129 173 138
f 130 138 131
f 132 174 175
f 132 175 176
f 132 137 136
f 132 136 177
f 132 177 178
f 132 178 179
f 132 179 174
f 133 138 180
f 133 180 134
f 134 180 181
f 134 181 135
f 135 181 182
f 135 182 183
f 135 183 184
f 135 184 185
f 135 185 186
f 135 186 136
f 136 187 178
f 136 178 177
f 136 186 187
f 138 173 188
f 138 188 189
f 138 189 180
f 139 190 191
f 139 191 192
f 139 192 193
f 139 193 140
f 140 193 192
f 140 192 194
f 140 194 195
f 140 195 141
f 141 195 196
f 141 196 197
f 141 197 143
f 141 143 142
f 143 198 199
f 143 199 200
f 143 200 145
f 143 197 198
f 145 200 201
f 145 201 147
f 147 201 149
f 149 201 202
f 149 202 151
f 151 202 203
f 151 203 204
f 151 204 155
f 152 157 153
f 153 157 205
f 153 205 206
f 153 206 154
f 155 204 156
f 156 204 203
f 156 203 207
f 156 207 208
f 156 208 209
f 156 209 210
f 156 210 211
f 156 211 157
f 157 211 210
f 157 210 212
f 157 212 205
f 159 170 160
f 160 170 172
f 161 213 162
f 162 213 163
f 163 214 215
f 163 215 164
f 163 213 216
f 163 216 214
f 164 215 217
f 164 217 165
f 165 217 166
f 166 218 219
f 166 219 167
f 166 217 218
f 167 219 263
f 167 263 220
f 167 220 168
f 168 220 221
f 168 221 169
f 169 221 171
f 170 171 172
f 171 221 222
f 171 222 172
f 172 222 223
f 172 223 173
f 173 223 224
f 173 224 188
f 174 225 269
f 174 269 226
f 174 226 175
f 174 179 178
f 174 178 227
f 174 227 225
f 175 226 176
f 178 187 228
f 178 228 272
f 178 272 227
f 180 189 182
f 180 182 181
f 182 189 183
f 183 189 188
f 183 188 229
f 183 229 184
f 184 229 230
f 184 230 231
f 184 231 232
f 184 232 233
f 184 233 234
f 184 234 185
f 185 234 186
f 186 234 235
f 186 235 187
f 187 235 228
f 188 224 229
f 190 236 191
f 191 237 238
f 191 238 239
f 191 239 192
f 191 236 237
f 192 239 194
f 194 239 240
f 194 240 241
f 194 241 195
f 195 241 196
f 196 242 243
f 196 243 244
f 196 244 199
f 196 199 198
f 196 198 197
f 196 241 242
f 199 244 245
f 199 245 246
f 199 246 200
f 200 246 201
f 201 246 247
f 201 247 248
f 201 248 202
f 202 248 203
f 203 248 249
f 203 249 207
f 205 212 206
f 206 212 210
f 206 210 250
f 207 249 251
f 207 251 208
f 208 252 210
f 208 210 209
f 208 251 253
f 208 253 254
f 208 254 252
f 210 252 255
f 210 255 256
f 210 256 250
f 214 216 257
f 214 257 258
f 214 258 259
f 214 259 215
f 215 260 217
f 215 259 261
f 215 261 260
f 217 260 218
f 218 260 262
f 218 262 219
f 219 262 264
f 219 264 263
f 220 263 316
f 220 316 265
f 220 265 266
f 220 266 221
f 221 266 222
f 222 266 223
f 223 266 267
f 223 267 224
f 224 230 229
f 224 267 230
f 225 268 269
f 225 227 270
f 225 270 268
f 227 271 268
f 227 268 270
f 227 272 273
f 227 273 274
f 227 274 271
f 228 235 275
f 228 275 272
f 230 267 276
f 230 276 277
f 230 277 231
f 231 277 278
f 231 278 232
f 232 279 275
f 232 275 233
f 232 278 279
f 233 275 234
f 234 275 235
f 236 280 281
f 236 281 282
f 236 282 283
f 236 283 284
f 236 284 238
f 236 238 237
f 238 284 283
f 238 283 285
f 238 285 286
f 238 286 239
f 239 286 287
f 239 287 288
f 239 288 289
f 239 289 290
f 239 290 240
f 240 290 241
f 241 290 242
f 242 290 289
f 242 289 243
f 243 291 292
f 243 292 244
f 243 289 291
f 244 292 293
f 244 293 245
f 245 294 246
f 245 293 295
f 245 295 296
f 245 296 294
f 246 294 247
f 247 294 248
f 248 294 249
f 249 294 296
f 249 296 297
f 249 297 251
f 250 256 298
f 251 297 299
f 251 299 253
f 252 254 300
f 252 300 255
f 253 299 301
f 253 301 302
f 253 302 254
f 254 302 303
f 254 303 300
f 255 304 305
f 255 305 306
f 255 306 298
f 255 298 256
f 255 300 307
f 255 307 304
f 257 308 258
f 258 308 259
f 259 308 309
f 259 309 310
f 259 310 311
f 259 311 261
f 260 261 312
f 260 312 262
f 261 311 312
f 262 313 264
f 262 312 313
f 263 264 314
f 263 314 315
f 263 315 316
f 264 313 317
f 264 317 314
f 265 316 335
f 265 335 276
f 265 276 267
f 265 267 266
f 268 271 274
f 268 274 318
f 268 318 319
f 268 319 320
f 268 320 321
f 268 321 322
f 268 322 323
f 268 323 324
f 268 324 325
f 268 325 326
f 268 326 327
f 268 327 328
f 268 328 329
f 268 329 384
f 268 384 447
f 268 447 498
f 268 498 501
f 268 501 547
f 268 547 502
f 268 502 448
f 268 448 385
f 268 385 330
f 272 275 331
f 272 331 332
f 272 332 273
f 273 332 333
f 273 333 274
f 274 333 334
f 274 334 318
f 275 279 331
f 276 335 336
f 276 336 277
f 277 336 278
f 278 336 337
f 278 337 338
f 278 338 279
f 279 338 339
f 279 339 331
f 280 340 341
f 280 341 281
f 281 341 340
f 281 340 400
f 281 400 342
f 281 342 343
f 281 343 283
f 281 283 282
f 283 343 409
f 283 409 344
f 283 344 285
f 285 344 345
f 285 345 286
f 286 345 346
f 286 346 287
f 287 346 288
f 288 347 348
f 288 348 349
f 288 349 350
f 288 350 291
f 288 291 289
f 288 346 347
f 291 350 292
f 292 350 351
f 292 351 293
f 293 351 352
f 293 352 295
f 295 352 353
f 295 353 296
f 296 353 297
f 297 353 299
f 299 353 354
f 299 354 301
f 300 355 307
f 300 303 358
f 300 358 355
f 301 354 416
f 301 416 356
f 301 356 357
f 301 357 302
f 302 357 358
f 302 358 303
f 304 359 305
f 304 307 359
f 307 355 360
f 307 360 361
f 307 361 359
f 309 362 311
f 309 311 310
f 311 363 364
f 311 364 312
f 311 362 365
f 311 365 366
f 311 366 367
f 311 367 363
f 312 364 363
f 312 363 368
f 312 368 313
f 313 368 369
f 313 369 317
f 314 317 370
f 314 370 371
f 314 371 315
f 315 371 372
f 315 372 373
f 315 373 316
f 316 373 335
f 317 369 370
f 318 334 319
f 319 334 374
f 319 374 320
f 320 374 375
f 320 375 376
f 320 376 321
f 321 376 377
f 321 377 322
f 322 326 325
f 322 325 324
f 322 324 323
f 322 377 378
f 322 378 379
f 322 379 326
f 326 379 380
f 326 380 381
f 326 381 382
f 326 382 383
f 326 383 329
f 326 329 328
f 326 328 327
f 329 383 384
f 330 385 386
f 330 386 387
f 330 387 388
f 330 388 389
f 330 389 390
f 330 390 391
f 330 391 392
f 330 392 393
f 330 393 394
f 330 394 395
f 330 395 396
f 330 396 397
f 330 397 398
f 330 398 343
f 330 343 399
f 330 399 342
f 330 342 400
f 331 339 401
f 331 401 332
f 332 401 333
f 333 401 402
f 333 402 334
f 334 402 338
f 334 338 403
f 334 403 404
f 334 404 405
f 334 405 374
f 335 373 337
f 335 337 336
f 337 406 407
f 337 407 338
f 337 373 406
f 338 407 403
f 338 402 401
f 338 401 339
f 342 399 343
f 343 398 397
f 343 397 408
f 343 408 409
f 344 409 410
f 344 410 345
f 345 410 346
f 346 410 347
f 347 410 348
f 348 410 411
f 348 411 412
f 348 412 349
f 349 412 413
f 349 413 350
f 350 413 414
f 350 414 351
f 351 414 415
f 351 415 352
f 352 415 354
f 352 354 353
f 354 415 470
f 354 470 416
f 355 417 418
f 355 418 360
f 355 358 419
f 355 419 417
f 356 416 420
f 356 420 421
f 356 421 357
f 357 421 419
f 357 419 358
f 360 418 422
f 360 422 361
f 361 422 423
f 362 424 425
f 362 425 365
f 363 426 427
f 363 427 368
f 363 367 366
f 363 366 428
f 363 428 429
f 363 429 430
f 363 430 426
f 365 425 366
f 366 425 424
f 366 424 431
f 366 431 428
f 368 427 369
f 369 427 432
f 369 432 433
f 369 433 370
f 370 433 371
f 371 433 434
f 371 434 372
f 372 434 435
f 372 435 406
f 372 406 373
f 374 405 436
f 374 436 375
f 375 436 437
f 375 437 376
f 376 437 438
f 376 438 439
f 376 439 377
f 377 439 378
f 378 439 379
f 379 439 440
f 379 440 441
f 379 441 380
f 380 441 440
f 380 440 442
f 380 442 443
f 380 443 444
f 380 444 381
f 381 444 445
f 381 445 382
f 382 445 383
f 383 445 384
f 384 445 446
f 384 446 447
f 385 448 449
f 385 449 388
f 385 388 386
f 386 388 387
f 388 449 450
f 388 450 451
f 388 451 452
f 388 452 453
f 388 453 392
f 388 392 389
f 389 392 390
f 390 392 391
f 392 453 454
f 392 454 455
f 392 455 393
f 393 455 456
f 393 456 394
f 394 456 457
f 394 457 458
f 394 458 395
f 395 458 459
f 395 459 396
f 396 459 397
f 397 459 460
f 397 460 408
f 403 407 461
f 403 461 462
f 403 462 404
f 404 462 436
f 404 436 405
f 406 435 461
f 406 461 407
f 408 460 463
f 408 463 409
f 409 463 464
f 409 464 410
f 410 464 411
f 411 464 465
f 411 465 466
f 411 466 412
f 412 467 468
f 412 468 413
f 412 466 467
f 413 468 414
f 414 469 470
f 414 470 415
f 414 468 469
f 416 470 471
f 416 471 472
f 416 472 420
f 417 419 473
f 417 473 474
f 417 474 418
f 418 474 475
f 418 475 476
f 418 476 477
f 418 477 423
f 418 423 422
f 419 421 473
f 420 472 478
f 420 478 479
f 420 479 421
f 421 479 473
f 424 480 431
f 426 481 427
f 426 430 481
f 427 481 482
f 427 482 432
f 428 431 480
f 428 480 483
f 428 483 429
f 429 484 430
f 429 483 484
f 430 484 481
f 432 485 433
f 432 482 486
f 432 486 485
f 433 485 487
f 433 487 434
f 434 487 488
f 434 488 435
f 435 488 437
f 435 437 461
f 436 462 437
f 437 462 461
f 437 488 489
f 437 489 438
f 438 489 439
f 439 489 488
f 439 488 490
f 439 490 440
f 440 490 486
f 440 486 442
f 442 486 491
f 442 491 492
f 442 492 443
f 443 492 444
f 444 492 445
f 445 493 494
f 445 494 495
f 445 495 496
f 445 496 446
f 445 492 497
f 445 497 493
f 446 498 447
f 446 496 499
f 446 499 500
f 446 500 501
f 446 501 498
f 448 502 503
f 448 503 504
f 448 504 449
f 449 504 450
f 450 504 451
f 451 504 505
f 451 505 452
f 452 505 506
f 452 506 507
f 452 507 508
f 452 508 509
f 452 509 453
f 453 509 508
f 453 508 510
f 453 510 454
f 454 510 455
f 455 510 456
f 456 510 511
f 456 511 512
f 456 512 457
f 457 512 513
f 457 513 458
f 458 513 514
f 458 514 459
f 459 514 515
f 459 515 516
f 459 516 466
f 459 466 517
f 459 517 460
f 460 517 518
f 460 518 463
f 463 518 464
f 464 518 465
f 465 518 466
f 466 516 519
f 466 519 467
f 466 518 517
f 467 519 520
f 467 520 521
f 467 521 469
f 467 469 468
f 469 521 470
f 470 521 471
f 471 521 522
f 471 522 523
f 471 523 472
f 472 524 478
f 472 523 524
f 473 525 526
f 473 526 527
f 473 527 474
f 473 479 525
f 474 527 526
f 474 526 528
f 474 528 529
f 474 529 530
f 474 530 531
f 474 531 476
f 474 476 475
f 478 524 532
f 478 532 479
f 479 532 525
f 480 533 483
f 481 491 482
f 481 484 497
f 481 497 491
f 482 491 486
f 483 533 534
f 483 534 535
f 483 535 536
f 483 536 537
f 483 537 493
f 483 493 538
f 483 538 484
f 484 538 497
f 485 486 487
f 486 490 487
f 487 490 488
f 491 497 539
f 491 539 492
f 492 539 497
f 493 537 540
f 493 540 494
f 493 497 538
f 494 540 495
f 495 540 541
f 495 541 496
f 496 541 542
f 496 542 499
f 499 542 500
f 500 542 543
f 500 543 501
f 501 543 544
f 501 544 536
f 501 536 545
f 501 545 546
f 502 547 503
f 503 547 548
f 503 548 549
f 503 549 550
f 503 550 504
f 504 550 551
f 504 551 552
f 504 552 553
f 504 553 554
f 504 554 555
f 504 555 505
f 505 555 506
f 506 555 507
f 507 555 556
f 507 556 557
f 507 557 508
f 508 557 558
f 508 558 510
f 510 558 559
f 510 559 560
f 510 560 511
f 511 560 512
f 512 560 559
f 512 559 561
f 512 561 562
f 512 562 563
f 512 563 513
f 513 563 515
f 513 515 514
f 515 563 516
f 516 563 562
f 516 562 519
f 519 562 520
f 520 562 561
f 520 561 522
f 520 522 521
f 522 561 564
f 522 564 523
f 523 564 565
f 523 565 524
f 524 565 532
f 525 532 566
f 525 566 526
f 526 529 528
f 526 566 567
f 526 567 568
f 526 568 569
f 526 569 570
f 526 570 529
f 529 570 571
f 529 571 572
f 529 572 573
f 529 573 530
f 530 573 531
f 531 573 572
f 532 565 574
f 532 574 566
f 534 575 535
f 535 575 546
f 535 546 536
f 536 546 545
f 536 544 537
f 537 576 543
f 537 543 542
f 537 542 540
f 537 544 576
f 540 542 541
f 543 576 544
f 547 577 578
f 547 578 579
f 547 579 580
f 547 580 581
f 547 581 548
f 548 581 582
f 548 582 549
f 549 582 550
f 550 582 583
f 550 583 551
f 551 583 584
f 551 584 552
f 552 584 553
f 553 584 585
f 553 585 586
f 553 586 587
f 553 587 554
f 554 587 588
f 554 588 589
f 554 589 556
f 554 556 590
f 554 590 555
f 555 590 556
f 556 589 591
f 556 591 557
f 557 591 574
f 557 574 592
f 557 592 593
f 557 593 558
f 558 593 559
f 559 593 564
f 559 564 561
f 564 593 565
f 565 593 592
f 565 592 574
f 566 591 589
f 566 589 567
f 566 574 591
f 567 589 568
f 568 588 569
f 568 589 588
f 569 588 586
f 569 586 570
f 570 586 594
f 570 594 571
f 571 594 572
f 577 595 596
f 577 596 579
f 577 579 578
f 579 585 580
f 579 596 586
f 579 586 585
f 580 585 597
f 580 597 581
f 581 597 585
f 581 585 582
f 582 585 584
f 582 584 583
f 586 596 598
f 586 598 594
f 586 588 587
f 595 598 596

