# https://github.com/mikedh/trimesh
v -0.25937845 6.31183270 15.32933967
v -0.25937845 6.27361105 14.99986501
v -0.56027744 6.24369796 15.05262391
v -0.58015665 6.24785222 15.32933967
v -0.56027744 6.24369796 15.64374046
v -0.23588483 6.27028686 15.82947333
v 0.25928824 6.31183270 15.32933967
v -0.04251433 5.72354865 10.75491844
v 0.25928824 6.27361105 14.99986501
v -0.84039356 6.19384355 15.32933967
v -0.77894877 5.57980145 10.75491844
v -1.29851901 6.09579569 15.32933967
v -0.39311134 6.20132125 15.98990346
v -1.29851901 6.03680112 15.84885401
v -0.04612873 6.24286709 16.11964770
v 0.23579462 6.27028686 15.82947333
v 0.56018723 6.24369796 15.64374046
v 0.58006644 6.24785222 15.32933967
v 0.56018723 6.24369796 15.05262391
v 0.04242412 5.72354865 10.75491844
v -1.29851901 5.43605347 10.75491844
v -1.81808940 5.88973049 15.32933967
v -1.84158293 5.82575001 15.82516652
v -1.68435640 5.78337408 16.16756163
v -0.29552248 5.95786525 16.25423691
v -0.23769204 5.96451209 16.25423691
v 0.04603852 6.24286709 16.11964770
v -1.29851901 5.84652293 16.21278399
v -1.30213348 5.78503579 16.25423691
v 0.39302113 6.20132125 15.98990346
v 1.29842880 6.03680112 15.84885401
v 1.29842880 6.09579569 15.32933967
v 0.84030336 6.19384355 15.32933967
v 0.77885856 5.57980145 10.75491844
v 0.68759489 5.59891188 10.75491844
v -1.37261426 5.40364857 10.75491844
v -1.67170599 5.26987163 10.75491844
v -2.09097668 5.72437951 15.05531548
v -2.09730198 5.72853378 15.32933967
v -2.09097668 5.72437951 15.63566421
v -2.03043538 5.68034109 15.98236691
v -1.80363171 5.55819767 16.25423691
v -2.63675142 5.22084808 16.13364524
v 0.23760183 5.96451209 16.25423691
v 1.21981563 5.80331615 16.25423691
v 1.29842880 5.84652293 16.21278399
v 1.68426619 5.78337408 16.16756163
v 1.84149272 5.82575001 15.82516652
v 1.29842880 5.43605347 10.75491844
v 1.19632201 5.46430486 10.75491844
v 1.81799919 5.88973049 15.32933967
v -2.00874913 5.04801864 10.75491844
v -2.32229836 4.83946049 10.75491844
v -2.37380363 4.80456224 10.75491844
v -2.58253542 4.66081465 10.75491844
v -2.74879779 5.29812263 15.32933967
v -2.35753885 5.55736681 15.32933967
v -2.70271419 5.26571735 15.84885401
v -1.98706270 5.43771518 16.25423691
v -2.96295125 5.04303350 15.84885401
v -3.14367131 4.71731667 16.13472156
v -2.82921825 4.90842609 16.19232622
v -2.69638908 4.90925694 16.25423691
v -2.33133439 5.20672277 16.25423691
v 1.30204327 5.78503579 16.25423691
v 1.58577377 5.69114298 16.25423691
v 1.80354150 5.55819767 16.25423691
v 2.63666121 5.22084808 16.13364524
v 2.03034517 5.68034109 15.98236691
v 2.09088647 5.72437951 15.63566421
v 1.67161578 5.26987163 10.75491844
v 2.09721177 5.72853378 15.32933967
v 2.09088647 5.72437951 15.05531548
v -2.61777572 4.61012940 10.75491844
v -3.64697643 4.17140932 15.05316207
v -3.22138103 4.82865859 15.32933967
v -3.00903486 5.08873362 15.32933967
v -3.18885128 4.78295885 15.84885401
v -3.60360394 4.11075264 15.98882714
v -3.70661448 3.76509412 16.16809978
v -3.48432863 3.88225242 16.25423691
v -3.35782496 4.07336145 16.25423691
v -3.13102090 4.41071104 16.25423691
v -2.83012189 4.77631124 16.25423691
v 2.23998061 5.27319543 16.25423691
v 2.70262398 5.26571735 15.84885401
v 2.50744642 5.09538046 16.25423691
v 2.76677965 4.84610770 16.25423691
v 3.14358110 4.71731667 16.13472156
v 2.96286104 5.04303350 15.84885401
v 2.74870758 5.29812263 15.32933967
v 2.35744864 5.55736681 15.32933967
v 1.88034758 5.13277165 10.75491844
v 2.58244522 4.66081465 10.75491844
v 2.32220815 4.83946049 10.75491844
v -2.76235184 4.40074000 10.75491844
v -3.81685337 3.89720897 15.32933967
v -3.65149464 4.17888701 15.32933967
v -3.48071406 4.43896205 15.32933967
v -2.81385711 4.32429671 10.75491844
v -3.02258891 4.01270517 10.75491844
v -3.05602211 3.96201992 10.75491844
v -3.19336929 3.75346137 10.75491844
v -3.64697643 4.17140932 15.64212521
v -3.75089061 3.92130531 15.82893517
v -4.34997810 2.46804411 16.25423691
v 3.00894465 5.08873362 15.32933967
v 3.01888413 4.58769477 16.25423691
v 3.19689346 4.31931079 16.25423691
v 3.48423881 3.88225242 16.25423691
v 3.70652388 3.76509412 16.16809978
v 3.60351412 4.11075264 15.98882714
v 3.18876107 4.78295885 15.84885401
v 3.22129082 4.82865859 15.32933967
v 3.64688661 4.17140932 15.05316207
v 2.72702134 4.45225650 10.75491844
v -4.02468172 3.37705928 15.32933967
v -4.61021458 1.87311283 16.25423691
v -3.36324603 3.37705928 10.75491844
v 3.61435705 3.66787789 16.25423691
v 4.38332070 2.38661509 16.25423691
v 3.75080079 3.92130531 15.82893517
v 3.64688661 4.17140932 15.64212521
v 3.48062424 4.43896205 15.32933967
v 3.65140482 4.17888701 15.32933967
v 3.81676355 3.89720897 15.32933967
v 3.19327908 3.75346137 10.75491844
v 3.02249870 4.01270517 10.75491844
v 2.76226163 4.40074000 10.75491844
v -4.61563643 1.81910357 16.25423691
v -3.50872619 2.85774084 10.75491844
v -3.52679825 2.77132612 10.75491844
v -3.65059100 2.14731298 10.75491844
v 4.61554661 1.81910357 16.25423691
v 4.02459190 3.37705928 15.32933967
v 3.36315621 3.37705928 10.75491844
v 3.32972301 3.45184127 10.75491844
v -4.37708581 1.42525246 16.25423691
v -3.65059100 2.00688919 10.75491844
v -3.60089302 1.74681454 10.75491844
v -3.51233998 1.29978513 10.75491844
v -3.48523227 1.19758319 10.75491844
v -3.37137881 0.77963564 10.75491844
v -3.82769707 0.26031701 15.32933967
v -3.65149464 -0.02136142 15.66635087
v -3.60812215 0.03846421 16.01251464
v 3.51225016 1.29978513 10.75491844
v 3.53032222 1.38536881 10.75491844
v 3.61074248 1.79749999 10.75491844
v 3.65050118 2.00688919 10.75491844
v 3.65050118 2.14731298 10.75491844
v 3.64056112 2.19882947 10.75491844
v 3.50863559 2.85774084 10.75491844
v 4.60108834 1.78254363 16.25423691
v 3.19237544 -1.60258242 13.40148274
v 3.27912139 -1.29846975 13.34441702
v -3.14818932 -0.56726896 16.13849022
v -3.02620328 -0.44097087 16.25423691
v -3.33794561 0.70319195 10.75491844
v -3.19969459 0.39326252 10.75491844
v -3.65149464 -0.02136142 15.04508660
v -3.65872378 -0.03299416 15.32933967
v -3.48794320 -0.29223796 15.32933967
v -3.22860978 -0.68442726 15.32933967
v -3.19608022 -0.63789648 15.84885401
v 3.39930034 0.88183749 10.75491844
v 4.34446642 1.36708884 16.25423691
v 3.60803156 0.03846421 16.01251464
v 3.19237544 -1.60258242 13.55922130
v 0.25928824 -2.17674117 15.32933967
v 0.09935095 -1.57765523 10.75491844
v 0.15085619 -1.56768419 10.75491844
v 0.77885856 -1.44554076 10.75491844
v 1.29842880 -1.30179317 10.75491844
v 1.37613852 -1.26689494 10.75491844
v 1.68878421 -1.12314773 10.75491844
v 1.73938583 -1.09074226 10.75491844
v 1.94811763 -0.95281123 10.75491844
v 2.48214561 -0.59635082 10.75491844
v 2.59690271 -0.51907627 10.75491844
v 2.67461243 -0.40357988 10.75491844
v 3.02972744 0.13318787 10.75491844
v 3.19960438 0.39326252 10.75491844
v 3.37128822 0.77963564 10.75491844
v -2.97740875 -0.89797112 15.84885401
v -2.64759455 -1.07080038 16.13902838
v -2.83554355 -0.75588563 16.20093985
v -2.78042391 -0.70104552 16.25423691
v -3.16716484 0.34174622 10.75491844
v -3.02981765 0.13318787 10.75491844
v -2.97650530 0.05258952 10.75491844
v -2.67470264 -0.40357988 10.75491844
v -2.59970385 -0.52073818 10.85720730
v -3.02349235 -0.94367125 15.32933967
v 3.14267746 -0.25484696 16.25423691
v 3.14809912 -0.56726896 16.13849022
v 3.19599001 -0.63789648 15.84885401
v 2.97731854 -0.89797112 15.84885401
v 2.64750434 -1.07080038 16.13902838
v 2.04209213 -1.53112425 16.01843671
v 1.84872147 -1.68234992 15.84670060
v 1.29842880 -1.90004826 15.84885401
v 1.29842880 -1.96070454 15.32933967
v 0.89361581 -2.04795012 15.32933967
v 0.63337884 -2.10195918 15.32933967
v -0.25937845 -2.17674117 15.32933967
v 0.59542762 -2.09365025 15.68465523
v 0.25838465 -2.12605553 15.85423792
v -0.09944116 -1.57765523 10.75491844
v -2.71807552 -1.11899307 15.84885401
v -2.04218234 -1.53112425 16.01843671
v -1.69610336 -1.63332638 16.17079213
v -1.80272807 -1.42393699 16.25423691
v -2.24729957 -1.13062581 16.25423691
v -2.52109048 -0.94948762 16.25423691
v -2.48223582 -0.59635082 10.75491844
v -2.76415913 -1.15139854 15.32933967
v 2.83454970 -0.63955819 16.25423691
v 2.83545334 -0.75588563 16.20093985
v 2.33305147 -1.06664572 16.25423691
v 2.02763444 -1.27437341 16.25423691
v 1.80263786 -1.42393699 16.25423691
v 1.69601315 -1.63332638 16.17079213
v 2.71888876 -0.75588563 16.25423691
v 0.43006875 -2.05293564 16.03081900
v -0.25757124 -2.12605553 15.85423792
v -0.59551783 -2.09365025 15.68465523
v -0.63346905 -2.10195918 15.32933967
v -0.59551783 -2.09365025 15.03862637
v 0.08398975 -2.09198854 16.12718502
v -0.69852832 -1.46215864 10.75491844
v -2.10181999 -1.57433181 15.67227294
v -1.84881168 -1.68234992 15.84670060
v -1.29851901 -1.90004826 15.84885401
v -0.43015896 -2.05293564 16.03081900
v -0.08407996 -2.09198854 16.12718502
v -1.29851901 -1.69896819 16.21601371
v -1.60303240 -1.54441870 16.25423691
v -1.94820784 -0.95281123 10.75491844
v -2.10181999 -1.57433181 15.04293319
v -2.37380363 -1.41147339 15.32933967
v 1.30294682 -1.64246617 16.25423691
v 1.29842880 -1.69896819 16.21601371
v -1.29851901 -1.96070454 15.32933967
v -0.89370602 -2.04795012 15.32933967
v -0.77894877 -1.44554076 10.75491844
v 0.29723946 -1.82194285 16.25423691
v 0.25838465 -1.82692837 16.25423691
v -2.11447040 -1.58180989 15.32933967
v -1.81808940 -1.75463895 15.32933967
v -0.25847486 -1.82692837 16.25423691
v -1.22623105 -1.65908444 16.25423691
v -1.30303703 -1.64246617 16.25423691
v -1.68797077 -1.12314773 10.75491844
v -1.29851901 -1.30179317 10.75491844
v -1.19641222 -1.33004418 10.75491844
f 1 2 3
f 1 3 4
f 1 4 5
f 1 5 6
f 1 6 16
f 1 16 7
f 1 7 9
f 1 9 2
f 2 8 3
f 2 9 20
f 2 20 8
f 3 10 4
f 3 8 11
f 3 11 12
f 3 12 10
f 4 10 5
f 5 13 6
f 5 10 12
f 5 12 14
f 5 14 13
f 6 13 15
f 6 15 27
f 6 27 16
f 7 16 17
f 7 17 18
f 7 18 19
f 7 19 9
f 8 20 35
f 8 35 34
f 8 34 50
f 8 50 49
f 8 49 71
f 8 71 93
f 8 93 95
f 8 95 94
f 8 94 116
f 8 116 129
f 8 129 128
f 8 128 127
f 8 127 137
f 8 137 136
f 8 136 153
f 8 153 152
f 8 152 151
f 8 151 150
f 8 150 149
f 8 149 148
f 8 148 147
f 8 147 166
f 8 166 184
f 8 184 183
f 8 183 182
f 8 182 181
f 8 181 180
f 8 180 179
f 8 179 178
f 8 178 177
f 8 177 176
f 8 176 175
f 8 175 174
f 8 174 173
f 8 173 172
f 8 172 171
f 8 171 209
f 8 209 231
f 8 231 246
f 8 246 256
f 8 256 255
f 8 255 254
f 8 254 239
f 8 239 216
f 8 216 192
f 8 192 191
f 8 191 190
f 8 190 189
f 8 189 160
f 8 160 159
f 8 159 143
f 8 143 142
f 8 142 141
f 8 141 140
f 8 140 139
f 8 139 133
f 8 133 132
f 8 132 131
f 8 131 119
f 8 119 103
f 8 103 102
f 8 102 101
f 8 101 100
f 8 100 96
f 8 96 74
f 8 74 55
f 8 55 54
f 8 54 53
f 8 53 52
f 8 52 37
f 8 37 36
f 8 36 21
f 8 21 11
f 9 19 20
f 11 21 12
f 12 22 23
f 12 23 14
f 12 21 22
f 13 14 15
f 14 23 24
f 14 24 15
f 15 25 26
f 15 26 44
f 15 44 27
f 15 24 28
f 15 28 29
f 15 29 25
f 16 30 17
f 16 27 30
f 17 30 31
f 17 31 32
f 17 32 33
f 17 33 18
f 18 33 19
f 19 33 32
f 19 32 34
f 19 34 35
f 19 35 20
f 21 36 22
f 22 36 37
f 22 37 38
f 22 38 39
f 22 39 40
f 22 40 23
f 23 40 41
f 23 41 24
f 24 42 29
f 24 29 28
f 24 41 43
f 24 43 42
f 25 29 42
f 25 42 59
f 25 59 64
f 25 64 63
f 25 63 84
f 25 84 83
f 25 83 82
f 25 82 81
f 25 81 106
f 25 106 118
f 25 118 130
f 25 130 138
f 25 138 158
f 25 158 188
f 25 188 215
f 25 215 214
f 25 214 213
f 25 213 238
f 25 238 253
f 25 253 252
f 25 252 251
f 25 251 248
f 25 248 247
f 25 247 242
f 25 242 222
f 25 222 221
f 25 221 220
f 25 220 224
f 25 224 218
f 25 218 195
f 25 195 167
f 25 167 154
f 25 154 134
f 25 134 121
f 25 121 120
f 25 120 110
f 25 110 109
f 25 109 108
f 25 108 88
f 25 88 87
f 25 87 85
f 25 85 67
f 25 67 66
f 25 66 65
f 25 65 45
f 25 45 44
f 25 44 26
f 27 44 45
f 27 45 46
f 27 46 47
f 27 47 31
f 27 31 30
f 31 47 48
f 31 48 32
f 32 49 50
f 32 50 34
f 32 48 51
f 32 51 49
f 37 52 38
f 38 52 53
f 38 53 54
f 38 54 55
f 38 55 56
f 38 56 57
f 38 57 39
f 39 57 40
f 40 57 56
f 40 56 58
f 40 58 41
f 41 58 43
f 42 43 59
f 43 58 60
f 43 60 61
f 43 61 62
f 43 62 63
f 43 63 64
f 43 64 59
f 45 65 46
f 46 65 66
f 46 66 47
f 47 66 67
f 47 67 68
f 47 68 69
f 47 69 48
f 48 69 70
f 48 70 51
f 49 51 71
f 51 70 72
f 51 72 73
f 51 73 71
f 55 74 75
f 55 75 76
f 55 76 77
f 55 77 56
f 56 77 58
f 58 77 60
f 60 77 78
f 60 78 61
f 61 78 79
f 61 79 80
f 61 80 81
f 61 81 82
f 61 82 83
f 61 83 84
f 61 84 62
f 62 84 63
f 67 85 68
f 68 86 69
f 68 85 87
f 68 87 88
f 68 88 89
f 68 89 90
f 68 90 86
f 69 86 70
f 70 86 91
f 70 91 92
f 70 92 72
f 71 73 93
f 72 92 73
f 73 94 95
f 73 95 93
f 73 92 91
f 73 91 94
f 74 96 75
f 75 97 98
f 75 98 99
f 75 99 76
f 75 96 100
f 75 100 101
f 75 101 102
f 75 102 103
f 75 103 97
f 76 99 104
f 76 104 78
f 76 78 77
f 78 104 79
f 79 104 105
f 79 105 106
f 79 106 80
f 80 106 81
f 86 90 107
f 86 107 91
f 88 108 89
f 89 108 109
f 89 109 110
f 89 110 111
f 89 111 112
f 89 112 113
f 89 113 90
f 90 113 107
f 91 107 94
f 94 107 114
f 94 114 115
f 94 115 116
f 97 117 118
f 97 118 106
f 97 106 105
f 97 105 104
f 97 104 98
f 97 103 119
f 97 119 117
f 98 104 99
f 107 113 114
f 110 120 111
f 111 120 121
f 111 121 112
f 112 121 122
f 112 122 123
f 112 123 113
f 113 123 114
f 114 123 124
f 114 124 115
f 115 124 125
f 115 125 126
f 115 126 127
f 115 127 128
f 115 128 129
f 115 129 116
f 117 119 118
f 118 119 131
f 118 131 132
f 118 132 133
f 118 133 130
f 121 134 126
f 121 126 122
f 122 126 123
f 123 126 125
f 123 125 124
f 126 134 135
f 126 135 136
f 126 136 137
f 126 137 127
f 130 133 139
f 130 139 140
f 130 140 141
f 130 141 142
f 130 142 143
f 130 143 144
f 130 144 145
f 130 145 146
f 130 146 138
f 134 147 148
f 134 148 149
f 134 149 150
f 134 150 151
f 134 151 152
f 134 152 153
f 134 153 136
f 134 136 135
f 134 154 155
f 134 155 156
f 134 156 147
f 138 146 157
f 138 157 158
f 143 159 144
f 144 159 160
f 144 160 161
f 144 161 162
f 144 162 145
f 145 162 163
f 145 163 164
f 145 164 165
f 145 165 146
f 146 165 157
f 147 156 166
f 154 167 168
f 154 168 169
f 154 169 155
f 155 170 171
f 155 171 172
f 155 172 173
f 155 173 174
f 155 174 175
f 155 175 176
f 155 176 177
f 155 177 178
f 155 178 179
f 155 179 180
f 155 180 181
f 155 181 182
f 155 182 183
f 155 183 184
f 155 184 156
f 155 169 170
f 156 184 166
f 157 165 185
f 157 185 186
f 157 186 187
f 157 187 188
f 157 188 158
f 160 189 161
f 161 163 162
f 161 189 190
f 161 190 191
f 161 191 192
f 161 192 164
f 161 164 163
f 164 192 193
f 164 193 194
f 164 194 165
f 165 194 185
f 167 195 196
f 167 196 168
f 168 196 197
f 168 197 169
f 169 197 198
f 169 198 199
f 169 199 200
f 169 200 201
f 169 201 202
f 169 202 203
f 169 203 204
f 169 204 205
f 169 205 170
f 170 206 209
f 170 209 171
f 170 205 207
f 170 207 208
f 170 208 226
f 170 226 206
f 185 194 210
f 185 210 186
f 186 188 187
f 186 210 211
f 186 211 212
f 186 212 213
f 186 213 214
f 186 214 215
f 186 215 188
f 192 216 193
f 193 217 194
f 193 216 217
f 194 217 210
f 195 218 196
f 196 198 197
f 196 218 219
f 196 219 199
f 196 199 198
f 199 220 221
f 199 221 222
f 199 222 223
f 199 223 200
f 199 219 224
f 199 224 220
f 200 223 201
f 201 223 202
f 202 225 207
f 202 207 203
f 202 223 225
f 203 207 204
f 204 207 205
f 206 226 227
f 206 227 228
f 206 228 229
f 206 229 209
f 207 225 208
f 208 225 230
f 208 230 236
f 208 236 226
f 209 229 231
f 210 217 232
f 210 232 211
f 211 232 233
f 211 233 212
f 212 233 234
f 212 234 235
f 212 235 236
f 212 236 237
f 212 237 238
f 212 238 213
f 216 239 240
f 216 240 217
f 217 240 241
f 217 241 232
f 218 224 219
f 222 242 223
f 223 242 243
f 223 243 230
f 223 230 225
f 226 236 235
f 226 235 227
f 227 235 234
f 227 234 244
f 227 244 245
f 227 245 228
f 228 245 229
f 229 245 244
f 229 244 246
f 229 246 231
f 230 243 242
f 230 242 247
f 230 247 248
f 230 248 251
f 230 251 236
f 232 241 249
f 232 249 250
f 232 250 233
f 233 250 244
f 233 244 234
f 236 251 252
f 236 252 253
f 236 253 237
f 237 253 238
f 239 254 240
f 240 249 241
f 240 254 250
f 240 250 249
f 244 250 255
f 244 255 256
f 244 256 246
f 250 254 255

