# https://github.com/mikedh/trimesh
v 7.28901110 -17.44827388 21.70901985
v 7.28539498 -17.90113244 21.70901985
v 8.90697924 -20.00610705 19.27767410
v 8.90336312 -19.48651682 19.27447070
v 8.89432516 -18.96731220 19.26752961
v 8.86539932 -18.44772353 19.24724219
v 8.84189844 -18.17809134 19.23122520
v 8.91420993 -18.08281480 18.96748256
v 8.98471413 -18.01569596 18.44747109
v 8.57253881 -17.82706943 18.44747109
v 7.29081838 -17.44827388 21.56753833
v -7.29077812 -17.44827388 21.70901985
v 7.28178041 -18.06969921 21.70901985
v 8.88347836 -20.32549761 19.26165710
v 9.06787241 -20.00610705 18.96748256
v 9.06425630 -19.48651682 18.96748256
v 9.05340950 -18.96731220 18.96748256
v 9.02086910 -18.44772353 18.96748256
v 9.15283798 -18.44772353 18.44747109
v 9.12933710 -18.44772353 17.92799391
v 8.95398101 -18.08127234 17.92799391
v 6.95999407 -17.44827388 16.25477507
v 7.11365656 -17.44827388 18.49018230
v 7.28178041 -17.44827388 21.28350750
v -7.29077812 -17.44827388 21.56753833
v -8.57249700 -17.82706943 18.44747109
v -8.98467231 -18.01569596 18.44747109
v -8.91416966 -18.08281480 18.96748256
v -8.84185817 -18.17809134 19.23122520
v -8.86535906 -18.44772353 19.24724219
v -8.89428334 -18.96731220 19.26752961
v -8.90513014 -19.48651682 19.27447070
v -8.90693743 -20.00610705 19.27767410
v -7.29077812 -17.55203860 21.70901985
v 7.27093361 -18.16420607 21.70901985
v 8.57253881 -20.59705789 18.96748256
v 8.88166952 -20.81847262 18.31559977
v 8.95036644 -20.42771834 18.96748256
v 6.95276339 -19.34302282 21.70901985
v 6.82621790 -19.72143120 21.70901985
v 6.79729361 -19.78816442 21.70901985
v 9.17091547 -20.00610705 18.44747109
v 9.17091547 -18.96731220 18.44747109
v 9.18718567 -18.96731220 16.88850527
v 9.18899295 -18.96731220 17.92799391
v 9.22514947 -19.48651682 16.25477507
v 9.14741458 -18.96731220 16.36902809
v 8.95578984 -18.60819082 16.36902809
v 8.89432516 -18.14453192 17.53985377
v 8.93590353 -18.62747780 16.25477507
v -6.96176109 -17.44827388 16.25477507
v -7.28354743 -17.44827388 21.30753260
v -8.95394075 -18.08127234 17.92799391
v -7.11361474 -17.44827388 18.48324199
v -9.12929529 -18.44772353 17.92799391
v -9.15279617 -18.44772353 18.44747109
v -9.02082883 -18.44772353 18.96748256
v -9.05336923 -18.96731220 18.96748256
v -9.06421603 -19.48651682 18.96748256
v -9.06783060 -20.00610705 18.96748256
v -8.88343654 -20.32549761 19.26165710
v -7.28173860 -18.06969921 21.70901985
v -7.28535472 -17.90113244 21.70901985
v 8.57253881 -20.76253974 18.64394390
v 8.90336312 -21.34886163 16.27559755
v 8.93951964 -20.86977501 17.92799391
v 8.99736821 -20.56735618 18.47256399
v 8.57253881 -20.83891644 18.38447168
v 9.12029758 -20.52569573 17.92799391
v 6.62193907 -19.82905209 21.70901985
v 9.17633887 -20.52569573 17.40851673
v 9.20345587 -20.52569573 16.88850527
v 9.19441635 -20.00610705 17.92799391
v 9.19441635 -19.48651682 17.92799391
v 9.16549207 -19.08110605 16.25477507
v 9.20526315 -19.48651682 17.40851673
v 9.21610995 -19.48651682 16.88850527
v 9.22876559 -19.60030911 16.25477507
v 9.12029758 -18.95844149 16.25477507
v 8.96844393 -18.67530810 16.25477507
v -8.93586326 -18.62747780 16.25477507
v -8.89428334 -18.14491908 17.53985377
v -8.95574803 -18.60819082 16.36902809
v -9.14737277 -18.96731220 16.36902809
v -9.18714540 -18.96731220 16.88850527
v -9.19075997 -18.96731220 17.40851673
v -9.18895269 -18.96731220 17.92799391
v -9.17087520 -18.96731220 18.44747109
v -9.17087520 -20.00610705 18.44747109
v -8.95032463 -20.42771834 18.96748256
v -8.88162926 -20.81847262 18.31559977
v -8.57249700 -20.59744351 18.96748256
v -6.79725180 -19.78816442 21.70901985
v -6.89848912 -19.49153138 21.70901985
v -7.22569732 -18.28879870 21.70901985
v 8.05370433 -20.76793990 18.65034993
v 6.49539320 -19.84062521 21.70901985
v 5.97475104 -20.21479181 20.61133690
v 5.45591694 -20.22173444 20.61934540
v 8.88709292 -21.35542021 16.25477507
v 8.90517196 -21.35117689 16.25477507
v 8.99013753 -20.93689385 17.40851673
v 8.57253881 -21.36660615 16.34286738
v 8.57253881 -21.38820838 16.25477507
v 8.05370433 -20.84354538 18.39034497
v 9.06967970 -21.08115907 16.25477507
v 9.21249539 -20.63987519 16.25477507
v 9.22334219 -20.52569573 16.36902809
v 9.22695675 -20.52569573 16.25477507
v 9.23418744 -20.11989933 16.25477507
v -9.12025732 -18.95844149 16.25477507
v -9.22510766 -19.48651682 16.25477507
v -9.21606969 -19.48651682 16.88850527
v -9.20522289 -19.48651682 17.40851673
v -9.19437609 -19.48651682 17.92799391
v -9.17629860 -20.52569573 17.40851673
v -9.12025732 -20.52569573 17.92799391
v -9.19437609 -20.00610705 17.92799391
v -9.20341406 -20.52569573 16.88850527
v -8.99732795 -20.56735618 18.47256399
v -8.93947783 -20.86977501 17.92799391
v -8.90693743 -21.35117689 16.25477507
v -8.90332286 -21.34886163 16.27559755
v -8.57249700 -20.83891644 18.38447168
v -8.57249700 -20.76331096 18.64394390
v -6.49535216 -19.84062521 21.70901985
v 6.18264637 -19.84911029 21.70901985
v 5.97475104 -19.85335363 21.70901985
v 5.45591694 -20.07978291 21.04539127
v 0.42665788 -19.89925739 21.70901985
v 0.25853383 -19.90041425 21.70901985
v 0.25853383 -19.94477400 21.56486845
v -0.25849279 -19.94477400 21.56486845
v -5.97471000 -20.29078136 20.35186507
v -6.49535216 -20.77411131 18.66476561
v 6.49539320 -20.77411131 18.66476561
v 7.01422807 -20.77256885 18.66102792
v 9.01002230 -21.18222294 16.25477507
v 7.01422807 -20.84393101 18.40102219
v 6.49539320 -20.84393101 18.40529339
v -8.57249700 -21.36660615 16.34340167
v -8.57249700 -21.38859246 16.25477507
v -9.23414717 -20.00610705 16.25477507
v -9.06963943 -21.08115907 16.25477507
v -8.99009571 -20.93689385 17.40851673
v -9.22691649 -20.52569573 16.25477507
v -9.22330037 -20.52569573 16.36902809
v -8.05366406 -20.84315978 18.39034497
v -8.05366406 -20.76832553 18.65034993
v -5.97471000 -20.21479181 20.61133690
v -5.97471000 -19.85335363 21.70901985
v 5.65296547 -19.85644009 21.70901985
v -0.25849279 -19.90041425 21.70901985
v -7.01418626 -20.77256885 18.66049441
v -7.01418626 -20.84354538 18.40048868
v -6.49535216 -20.84354538 18.40529339
v -5.45587590 -20.07978291 21.04539127
v -5.45587590 -19.85798257 21.70901985
v -0.61281871 -19.89771338 21.70901985
f 1 2 3
f 1 3 4
f 1 4 5
f 1 5 6
f 1 6 7
f 1 7 8
f 1 8 9
f 1 9 10
f 1 10 11
f 1 11 24
f 1 24 23
f 1 23 22
f 1 22 51
f 1 51 54
f 1 54 52
f 1 52 25
f 1 25 12
f 1 12 34
f 1 34 63
f 1 63 62
f 1 62 95
f 1 95 94
f 1 94 93
f 1 93 126
f 1 126 151
f 1 151 158
f 1 158 159
f 1 159 153
f 1 153 131
f 1 131 130
f 1 130 152
f 1 152 128
f 1 128 127
f 1 127 97
f 1 97 70
f 1 70 41
f 1 41 40
f 1 40 39
f 1 39 35
f 1 35 13
f 1 13 2
f 2 13 3
f 3 14 15
f 3 15 16
f 3 16 4
f 3 13 14
f 4 16 17
f 4 17 5
f 5 17 18
f 5 18 6
f 6 18 7
f 7 18 8
f 8 18 19
f 8 19 9
f 9 19 20
f 9 20 21
f 9 21 10
f 10 21 22
f 10 22 23
f 10 23 24
f 10 24 11
f 12 25 26
f 12 26 27
f 12 27 28
f 12 28 29
f 12 29 30
f 12 30 31
f 12 31 32
f 12 32 33
f 12 33 34
f 13 35 14
f 14 36 37
f 14 37 38
f 14 38 15
f 14 35 39
f 14 39 40
f 14 40 41
f 14 41 36
f 15 42 43
f 15 43 16
f 15 38 42
f 16 43 17
f 17 43 19
f 17 19 18
f 19 44 20
f 19 43 45
f 19 45 46
f 19 46 44
f 20 44 47
f 20 47 21
f 21 48 49
f 21 49 22
f 21 47 48
f 22 49 50
f 22 50 80
f 22 80 79
f 22 79 75
f 22 75 46
f 22 46 78
f 22 78 110
f 22 110 109
f 22 109 107
f 22 107 106
f 22 106 138
f 22 138 101
f 22 101 100
f 22 100 104
f 22 104 142
f 22 142 122
f 22 122 144
f 22 144 146
f 22 146 143
f 22 143 112
f 22 112 111
f 22 111 81
f 22 81 51
f 25 52 26
f 26 53 27
f 26 52 54
f 26 54 51
f 26 51 53
f 27 53 55
f 27 55 56
f 27 56 28
f 28 56 57
f 28 57 29
f 29 57 30
f 30 57 31
f 31 57 58
f 31 58 32
f 32 58 59
f 32 59 60
f 32 60 33
f 33 60 61
f 33 61 62
f 33 62 63
f 33 63 34
f 36 64 37
f 36 41 64
f 37 65 66
f 37 66 67
f 37 67 38
f 37 64 68
f 37 68 65
f 38 67 69
f 38 69 42
f 41 70 64
f 42 69 71
f 42 71 72
f 42 72 73
f 42 73 74
f 42 74 43
f 43 74 45
f 44 75 47
f 44 46 75
f 45 74 76
f 45 76 77
f 45 77 78
f 45 78 46
f 47 79 48
f 47 75 79
f 48 80 50
f 48 50 49
f 48 79 80
f 51 81 82
f 51 82 53
f 53 82 83
f 53 83 84
f 53 84 55
f 55 84 85
f 55 85 56
f 56 85 86
f 56 86 87
f 56 87 88
f 56 88 58
f 56 58 57
f 58 88 59
f 59 88 60
f 60 88 89
f 60 89 90
f 60 90 61
f 61 90 91
f 61 91 92
f 61 92 93
f 61 93 94
f 61 94 95
f 61 95 62
f 64 96 68
f 64 70 97
f 64 97 98
f 64 98 99
f 64 99 96
f 65 100 101
f 65 101 102
f 65 102 66
f 65 68 103
f 65 103 104
f 65 104 100
f 66 102 69
f 66 69 67
f 68 96 105
f 68 105 103
f 69 106 71
f 69 102 106
f 71 106 107
f 71 107 72
f 72 107 108
f 72 108 73
f 73 108 109
f 73 109 110
f 73 110 74
f 74 110 76
f 76 110 77
f 77 110 78
f 81 111 83
f 81 83 82
f 83 111 84
f 84 111 112
f 84 112 85
f 85 112 86
f 86 112 87
f 87 112 113
f 87 113 114
f 87 114 115
f 87 115 88
f 88 115 118
f 88 118 89
f 89 116 117
f 89 117 90
f 89 118 119
f 89 119 116
f 90 120 91
f 90 117 120
f 91 120 121
f 91 121 122
f 91 122 123
f 91 123 124
f 91 124 125
f 91 125 92
f 92 125 93
f 93 125 126
f 96 99 105
f 97 127 98
f 98 127 128
f 98 128 99
f 99 128 129
f 99 129 130
f 99 130 131
f 99 131 132
f 99 132 133
f 99 133 134
f 99 134 135
f 99 135 136
f 99 136 137
f 99 137 105
f 101 138 102
f 102 138 106
f 103 105 139
f 103 139 140
f 103 140 141
f 103 141 142
f 103 142 104
f 105 137 136
f 105 136 139
f 107 109 108
f 112 143 113
f 113 143 114
f 114 143 115
f 115 143 118
f 116 144 117
f 116 119 144
f 117 144 145
f 117 145 121
f 117 121 120
f 118 143 146
f 118 146 147
f 118 147 119
f 119 147 144
f 121 145 122
f 122 142 123
f 122 145 144
f 123 142 141
f 123 141 124
f 124 148 149
f 124 149 125
f 124 141 148
f 125 149 150
f 125 150 126
f 126 150 151
f 128 152 129
f 129 152 130
f 131 153 133
f 131 133 132
f 133 153 150
f 133 150 134
f 134 150 149
f 134 149 154
f 134 154 135
f 135 154 148
f 135 148 155
f 135 155 156
f 135 156 140
f 135 140 136
f 136 140 139
f 140 156 141
f 141 156 155
f 141 155 148
f 144 147 146
f 148 154 149
f 150 153 157
f 150 157 151
f 151 157 158
f 153 159 157
f 157 159 158

