# https://github.com/mikedh/trimesh
v 0.20967754 -1.72021287 9.18585227
v -0.20750855 -1.72021287 9.18585227
v 3.92510572 -6.34241329 8.75602071
v 4.41642598 -6.34241329 8.75209951
v 4.47166312 -6.34241329 8.75053072
v 5.97469607 -6.34241329 8.66660430
v 6.12877901 -6.34241329 8.65640638
v 6.49508928 -6.34241329 8.62111092
v 3.89603354 -1.72021287 8.76386466
v -3.89677186 -1.72021287 8.76386466
v -5.62075416 -6.34241329 8.65248518
v -4.41571088 -6.34241329 8.73170523
v -3.89677186 -6.34241329 8.74503918
v -3.37637943 -6.34241329 8.75053072
v -2.85744022 -6.34241329 8.75523709
v 6.59974913 -6.34241329 8.58189271
v 6.78581109 -5.06832193 8.33952464
v 3.99487896 -1.72021287 8.72778403
v -4.31831888 -1.72021287 8.60934577
v -5.62075416 -5.97547853 8.58032392
v -5.62075416 -6.34241329 1.17358229
v -4.41571088 -1.72021287 8.57326513
v 6.85413091 -6.34241329 8.44933533
v 6.84976989 -5.97547853 8.42188227
v 6.82215112 -5.45606910 8.37795768
v 6.81197567 -2.85811756 7.84694455
v 6.77708905 -2.50928081 7.81243271
v 4.41642598 -1.72021287 8.57326513
v -5.62075416 -2.85811756 7.93636096
v 5.97469607 -6.34241329 1.17358229
v -5.62075416 -1.72021287 1.17358229
v -5.62075416 -1.72021287 7.69713048
v -5.62075416 -1.75143188 7.70418926
v 8.61299905 -6.34241329 3.94003053
v 8.87610287 -6.25780546 4.21769561
v 9.01128832 -5.99810094 4.40201997
v 8.95605079 -5.83974447 4.80047728
v 9.00983491 -5.43797149 4.95891892
v 9.08832941 -4.93620747 4.93695586
v 8.87028844 -4.62763853 5.21462094
v 6.56340832 -1.72021287 7.61869405
v 6.49508928 -1.72021287 7.64928469
v 9.00692730 -4.43942046 4.95578134
v 6.85703774 -1.72021287 7.44456605
v 5.97469607 -1.72021287 1.17358229
v 6.39624308 -1.72021287 1.20574017
v 6.49508928 -6.34241329 1.21358413
v 8.62172109 -6.34241329 3.89767473
v 8.89645301 -6.26821165 3.89767473
v 9.09414385 -5.97547853 3.89767473
v 9.22206145 -5.45606910 4.41770788
v 9.22933007 -4.93620747 4.41770788
v 9.22060803 -4.41679805 4.41770788
v 8.95459738 -4.04081448 4.79498728
v 9.00111287 -3.87974321 4.38711724
v 6.95879076 -1.72021287 7.01473448
v 6.49508928 -1.72021287 1.21358413
v 6.85703774 -6.34241329 1.40653761
v 8.57375141 -6.34241329 3.80982711
v 8.87464868 -6.25690064 3.58157661
v 9.00983491 -5.99583874 3.39646707
v 9.22060803 -5.45606910 3.37842675
v 9.22933007 -5.45606910 3.89767473
v 9.22933007 -4.41679805 3.89767473
v 9.06943269 -3.89738862 3.89767473
v 8.86011298 -3.62456310 4.19416530
v 6.95879076 -1.72021287 1.81911248
v 8.87174185 -3.61868130 3.89767473
v 6.85703774 -1.72021287 1.40653761
v 8.87755629 -4.93620747 2.57602371
v 8.86447400 -5.24025200 2.58308249
v 8.95459738 -5.83612487 2.99957856
v 9.22933007 -4.93620747 3.37842675
v 9.00402047 -5.43073229 2.83878450
v 9.07524712 -4.93620747 2.85839361
v 9.21915461 -4.41679805 3.37842675
v 8.99820604 -3.88245801 3.41058619
v 8.85720537 -3.62546790 3.60510847
v 8.95169055 -4.04488668 3.00585372
v 8.99965945 -4.44665966 2.84270725
v 8.86156640 -4.63940214 2.58465128
f 1 2 3
f 1 3 4
f 1 4 5
f 1 5 6
f 1 6 7
f 1 7 8
f 1 8 9
f 1 9 18
f 1 18 28
f 1 28 42
f 1 42 41
f 1 41 44
f 1 44 56
f 1 56 67
f 1 67 69
f 1 69 57
f 1 57 46
f 1 46 45
f 1 45 31
f 1 31 32
f 1 32 22
f 1 22 19
f 1 19 10
f 1 10 2
f 2 10 11
f 2 11 12
f 2 12 13
f 2 13 14
f 2 14 15
f 2 15 3
f 3 15 14
f 3 14 13
f 3 13 12
f 3 12 11
f 3 11 21
f 3 21 30
f 3 30 47
f 3 47 58
f 3 58 59
f 3 59 48
f 3 48 34
f 3 34 23
f 3 23 16
f 3 16 8
f 3 8 7
f 3 7 6
f 3 6 5
f 3 5 4
f 8 16 17
f 8 17 9
f 9 17 18
f 10 19 11
f 11 20 29
f 11 29 33
f 11 33 32
f 11 32 31
f 11 31 21
f 11 19 22
f 11 22 20
f 16 23 24
f 16 24 25
f 16 25 17
f 17 25 26
f 17 26 27
f 17 27 28
f 17 28 18
f 20 22 29
f 21 31 45
f 21 45 30
f 22 32 33
f 22 33 29
f 23 34 35
f 23 35 36
f 23 36 37
f 23 37 38
f 23 38 39
f 23 39 24
f 24 39 40
f 24 40 25
f 25 40 26
f 26 40 27
f 27 41 42
f 27 42 28
f 27 40 43
f 27 43 44
f 27 44 41
f 30 45 46
f 30 46 47
f 34 48 35
f 35 48 49
f 35 49 50
f 35 50 36
f 36 50 51
f 36 51 37
f 37 51 38
f 38 51 39
f 39 51 52
f 39 52 53
f 39 53 43
f 39 43 40
f 43 54 44
f 43 53 54
f 44 54 55
f 44 55 56
f 46 57 47
f 47 57 69
f 47 69 58
f 48 59 60
f 48 60 49
f 49 60 50
f 50 60 61
f 50 61 62
f 50 62 63
f 50 63 51
f 51 63 52
f 52 63 73
f 52 73 64
f 52 64 53
f 53 64 65
f 53 65 55
f 53 55 54
f 55 65 66
f 55 66 56
f 56 66 68
f 56 68 67
f 58 70 71
f 58 71 72
f 58 72 60
f 58 60 59
f 58 69 70
f 60 72 61
f 61 72 62
f 62 73 63
f 62 72 74
f 62 74 75
f 62 75 73
f 64 73 76
f 64 76 65
f 65 76 77
f 65 77 78
f 65 78 68
f 65 68 66
f 67 68 78
f 67 78 69
f 69 78 77
f 69 77 79
f 69 79 80
f 69 80 81
f 69 81 70
f 70 81 75
f 70 75 71
f 71 75 74
f 71 74 72
f 73 75 76
f 75 81 80
f 75 80 76
f 76 80 79
f 76 79 77

