# https://github.com/mikedh/trimesh
v 6.00003753 -0.79687531 39.73564547
v 6.79849770 -4.85827939 35.98637088
v 6.00003753 1.38195286 39.73564547
v 5.99868904 -1.31669107 39.73564547
v 6.49502926 -4.85827939 36.23773046
v 6.84435578 -4.85827939 35.64770417
v 5.99599127 -1.83528532 39.73564547
v 5.87865023 -2.35937692 39.73564547
v 5.86920884 -2.39236159 39.73564547
v 5.85437270 -2.43084380 39.73564547
v 5.78963260 -2.69227875 39.60750022
v 5.75726255 -3.16994739 39.04211772
v 6.84975053 -4.85827939 35.59560189
v 6.76343066 -4.04709855 35.89131890
v 6.74994262 -3.70075823 35.68431676
v 6.67441303 -2.85781364 35.59560189
v 6.61641656 -2.33799769 35.59560189
v 6.55302534 -1.81818194 35.59560189
v 6.48963413 -1.29958788 35.59560189
v 6.42489403 -0.77977213 35.59560189
v 6.44242794 -0.77977213 35.07598379
v 6.38982661 -0.25995637 34.55636646
v 6.31429662 0.25924863 34.55636646
v 6.25630016 0.65628775 34.55636646
v 6.21583760 0.91589025 34.55636646
v 6.13895912 1.38195286 34.55636646
v -5.99979594 1.38195286 39.73564547
v 5.32566242 -3.68060090 38.50771380
v 4.93587334 -3.72885631 38.55770370
v 4.41660446 -3.78077661 38.60769438
v 5.98250401 -4.85827939 36.36094633
v 5.45514262 -2.68494895 39.73564547
v 5.45514262 -2.74297756 39.66664346
v 5.45514262 -3.00258025 39.35191590
v 5.45514262 -3.21514865 39.09210685
v 6.84705277 -4.41665015 34.55636646
v 6.83221663 -4.41665015 35.07598379
v 6.81333461 -4.41665015 35.59560189
v 6.86323779 -4.85827939 35.07598379
v 6.75533815 -3.63662095 35.33790521
v 6.72971173 -3.42893895 35.54490735
v 6.83221663 -3.89683420 33.51713102
v 6.71892146 -2.85781364 34.03674835
v 6.66632051 -2.33799769 34.03674835
v 6.58809315 -1.81818194 34.55636646
v 6.50716803 -1.29958788 35.07598379
v 6.45861296 -0.77977213 34.55636646
v 6.60427818 -1.81818194 34.03674835
v 6.53144557 -1.29958788 34.03674835
v 6.25225390 0.63063287 34.23670952
v 5.93125156 1.38195286 34.09730010
v -6.13062463 1.38195286 35.07387142
v -6.36530748 -0.25995637 35.07598379
v -6.42330356 -0.77977213 35.59560189
v -6.48939254 -1.29958788 35.59560189
v -6.55278375 -1.81818194 35.59560189
v -6.61617497 -2.33799769 35.59560189
v -6.67417144 -2.85781364 35.59560189
v -6.74970103 -3.70075823 35.68431676
v -6.76453718 -4.04709855 35.89131890
v -6.84950894 -4.85827939 35.59560189
v -6.79825611 -4.85827939 35.98637088
v -5.99979594 -0.77977213 39.73564547
v 3.89598669 -3.81559393 38.66613377
v 1.56939216 -4.15765840 38.45420302
v 1.29829330 -4.16621009 38.46828497
v 0.77902432 -4.18209158 38.49222412
v 0.25975533 -4.19675156 38.51475477
v 2.41505871 -4.85827939 36.44402873
v 2.33817985 -3.15101176 39.73564547
v 3.52508040 -3.62745870 38.96185078
v 6.85919192 -4.41665015 34.03674835
v 6.87402807 -4.85827939 34.55636646
v 6.86863332 -4.41665015 33.51713102
v 6.85919192 -4.41665015 32.99751368
v 6.75668703 -3.10642106 33.25380186
v 6.75668703 -3.10642106 33.36786439
v 6.77691792 -3.33364964 33.53121296
v 6.75398927 -3.13146499 33.71427595
v 6.23741776 0.00697612 33.77553157
v 3.80966682 0.13280690 32.54337593
v 2.92893265 1.38195286 32.54337593
v -6.12657837 1.38195286 34.55636646
v -6.29786962 0.25924863 34.55636646
v -6.37609737 -0.25995637 34.55636646
v -6.43679121 -0.77977213 35.07598379
v -6.59864106 -1.81818194 34.03674835
v -6.66473004 -2.33799769 34.03674835
v -6.71867986 -2.85781364 34.03674835
v -6.74970103 -3.17788814 34.03674835
v -6.75509656 -3.63662095 35.33790521
v -6.72947014 -3.42893895 35.54490735
v -6.83197503 -4.41665015 35.07598379
v -6.81444113 -4.41665015 35.59560189
v -6.85220593 -4.85827939 35.51744810
v -6.75509656 -4.85827939 36.02509585
v -5.75836946 -3.16994739 39.04211772
v -5.78939101 -2.69227875 39.60750022
v -5.85547960 -2.43084380 39.73564547
v -5.87840826 -2.35937692 39.73564547
v -5.99709856 -1.81818194 39.73564547
v -5.99844706 -1.29958788 39.73564547
v 1.81756228 -3.22797619 39.73564547
v 1.30368824 -3.28783724 39.73564547
v 1.29829330 -3.28844818 39.73564547
v 1.29829330 -3.54988333 39.36529476
v 3.36188167 -3.79726905 38.75836951
v 0.77902432 -3.56881877 39.39204937
v 0.25975533 -3.58592215 39.41739626
v 0.25975533 -4.02205443 38.77456383
v 0.25975533 -4.85827939 36.48134597
v -0.25951362 -4.19675156 38.51475477
v 6.88077170 -4.85827939 34.03674835
v 6.89021309 -4.85827939 33.07637135
v 6.88751533 -4.85827939 32.99751368
v 6.84705277 -4.85827939 32.61096866
v 6.84030914 -4.85827939 32.55182541
v 6.83896026 -4.85827939 32.54337593
v 6.82277523 -4.73733540 32.54337593
v 6.76747653 -4.12223014 32.72291804
v -2.92869087 1.38195286 32.54337593
v -6.09690608 1.38195286 34.48806986
v -6.21964226 -0.00951631 33.78609264
v -6.24391980 0.58054482 34.25994480
v -6.52176259 -1.29958788 34.03674835
v -6.75644466 -3.10642106 33.25380186
v -6.75374768 -3.13146499 33.71427595
v -6.75644466 -3.10642106 33.36786439
v -6.83197503 -3.89683420 33.51713102
v -6.84816006 -4.41665015 34.55636646
v -6.86569396 -4.85827939 34.99782999
v -6.49478729 -4.85827939 36.23773046
v -5.32676932 -3.68182240 38.50912230
v -5.45624952 -3.21637035 39.09351613
v -5.45624952 -3.00319081 39.35332518
v -5.45624952 -2.74358850 39.66734810
v -5.45624952 -2.68678140 39.73564547
v -5.65586456 -2.62569846 39.73564547
v 0.81274305 -3.32570889 39.73564547
v 0.25975533 -3.36541261 39.73564547
v -0.25951362 -3.58592215 39.41739626
v -0.25951362 -4.02205443 38.77456383
v -0.25951362 -4.85827939 36.48134597
v -2.18283184 -4.85827939 36.44614110
v -0.77878258 -4.18209158 38.49222412
v -5.98226203 -4.85827939 36.36094633
v -6.83602090 -4.85827939 32.54337593
v -3.65971376 0.24397789 32.54337593
v -5.92156858 1.38195286 34.09378000
v -6.70114596 -4.53392924 32.54337593
v -6.82253364 -4.73733540 32.54337593
v -6.76723494 -4.12223014 32.72291804
v -6.85895033 -4.41665015 32.99751368
v -6.77667633 -3.33364964 33.53121296
v -6.86973983 -4.41665015 33.51713102
v -6.86029844 -4.41665015 34.03674835
v -6.87378648 -4.85827939 34.55636646
v -6.41925730 -4.85827939 36.26519049
v -4.93563175 -3.73313215 38.56192844
v -4.41636287 -3.78749585 38.61684773
v -3.59767104 -3.63417755 38.96959639
v -2.61982711 -3.12169179 39.73564547
v -0.25951362 -3.36541261 39.73564547
v -0.77878258 -3.56881877 39.39204937
v -1.57589411 -4.15765840 38.45490689
v -1.29805151 -4.16682065 38.46828497
v -3.89709399 -3.82231317 38.67739948
v -6.88862262 -4.85827939 32.99751368
v -6.88187899 -4.85827939 33.95859455
v -6.87513536 -4.85827939 34.47821266
v -1.29805151 -3.28905913 39.73564547
v -1.74313920 -3.24141428 39.73564547
v -1.81866918 -3.23225203 39.73564547
v -2.18283184 -3.18399643 39.73564547
v -0.81250136 -3.32570889 39.73564547
v -1.29805151 -3.55049427 39.36599785
v -3.40614851 -3.80398828 38.76329811
v -1.28456406 -3.29028063 39.73564547
v -0.89477517 -3.31960060 39.73564547
f 1 2 3
f 1 3 27
f 1 27 63
f 1 63 102
f 1 102 101
f 1 101 100
f 1 100 99
f 1 99 138
f 1 138 137
f 1 137 162
f 1 162 174
f 1 174 173
f 1 173 172
f 1 172 171
f 1 171 178
f 1 178 179
f 1 179 175
f 1 175 163
f 1 163 140
f 1 140 139
f 1 139 105
f 1 105 104
f 1 104 103
f 1 103 70
f 1 70 32
f 1 32 10
f 1 10 9
f 1 9 8
f 1 8 7
f 1 7 4
f 1 4 2
f 2 5 31
f 2 31 69
f 2 69 111
f 2 111 143
f 2 143 144
f 2 144 146
f 2 146 158
f 2 158 132
f 2 132 96
f 2 96 62
f 2 62 61
f 2 61 95
f 2 95 131
f 2 131 157
f 2 157 170
f 2 170 169
f 2 169 168
f 2 168 147
f 2 147 118
f 2 118 117
f 2 117 116
f 2 116 115
f 2 115 114
f 2 114 113
f 2 113 73
f 2 73 39
f 2 39 13
f 2 13 6
f 2 6 3
f 2 4 7
f 2 7 8
f 2 8 9
f 2 9 10
f 2 10 11
f 2 11 12
f 2 12 5
f 3 6 13
f 3 13 14
f 3 14 15
f 3 15 16
f 3 16 17
f 3 17 18
f 3 18 19
f 3 19 20
f 3 20 21
f 3 21 22
f 3 22 23
f 3 23 24
f 3 24 25
f 3 25 26
f 3 26 51
f 3 51 82
f 3 82 121
f 3 121 149
f 3 149 122
f 3 122 83
f 3 83 52
f 3 52 27
f 5 12 28
f 5 28 29
f 5 29 30
f 5 30 31
f 10 32 11
f 11 32 33
f 11 33 12
f 12 33 34
f 12 34 35
f 12 35 28
f 13 36 37
f 13 37 38
f 13 38 15
f 13 15 14
f 13 39 36
f 15 40 41
f 15 41 16
f 15 38 37
f 15 37 40
f 16 41 40
f 16 40 42
f 16 42 43
f 16 43 44
f 16 44 17
f 17 44 45
f 17 45 18
f 18 45 46
f 18 46 19
f 19 46 21
f 19 21 20
f 21 46 45
f 21 45 48
f 21 48 47
f 21 47 22
f 22 47 48
f 22 48 49
f 22 49 23
f 23 49 24
f 24 49 50
f 24 50 25
f 25 50 26
f 26 50 51
f 27 52 53
f 27 53 54
f 27 54 55
f 27 55 56
f 27 56 57
f 27 57 58
f 27 58 59
f 27 59 60
f 27 60 61
f 27 61 62
f 27 62 63
f 28 35 29
f 29 35 30
f 30 64 31
f 30 35 34
f 30 34 64
f 31 64 65
f 31 65 66
f 31 66 67
f 31 67 68
f 31 68 69
f 32 70 71
f 32 71 33
f 33 71 64
f 33 64 34
f 36 72 42
f 36 42 37
f 36 39 72
f 37 42 40
f 39 73 72
f 42 72 74
f 42 74 75
f 42 75 76
f 42 76 77
f 42 77 78
f 42 78 79
f 42 79 43
f 43 79 44
f 44 48 45
f 44 79 77
f 44 77 76
f 44 76 48
f 48 76 49
f 49 76 50
f 50 80 51
f 50 76 80
f 51 80 81
f 51 81 82
f 52 83 84
f 52 84 85
f 52 85 53
f 53 85 86
f 53 86 54
f 54 86 87
f 54 87 88
f 54 88 55
f 55 88 56
f 56 88 57
f 57 88 58
f 58 88 89
f 58 89 90
f 58 90 91
f 58 91 92
f 58 92 59
f 59 92 91
f 59 91 93
f 59 93 94
f 59 94 60
f 60 94 61
f 61 94 95
f 62 96 97
f 62 97 98
f 62 98 99
f 62 99 100
f 62 100 101
f 62 101 102
f 62 102 63
f 64 71 103
f 64 103 104
f 64 104 105
f 64 105 106
f 64 106 107
f 64 107 65
f 65 107 106
f 65 106 108
f 65 108 66
f 66 108 109
f 66 109 67
f 67 109 110
f 67 110 68
f 68 111 69
f 68 110 142
f 68 142 112
f 68 112 143
f 68 143 111
f 70 103 71
f 72 73 74
f 73 113 74
f 74 113 114
f 74 114 75
f 75 114 115
f 75 115 116
f 75 116 117
f 75 117 76
f 76 117 118
f 76 118 119
f 76 119 120
f 76 120 80
f 77 79 78
f 80 120 119
f 80 119 81
f 81 119 118
f 81 118 147
f 81 147 151
f 81 151 150
f 81 150 148
f 81 148 121
f 81 121 82
f 83 122 123
f 83 123 124
f 83 124 84
f 84 124 85
f 85 124 125
f 85 125 87
f 85 87 86
f 87 125 126
f 87 126 88
f 88 127 89
f 88 126 128
f 88 128 127
f 89 127 90
f 90 127 129
f 90 129 91
f 91 129 130
f 91 130 93
f 93 130 95
f 93 95 94
f 95 130 131
f 96 132 97
f 97 133 134
f 97 134 135
f 97 135 136
f 97 136 98
f 97 132 133
f 98 136 137
f 98 137 138
f 98 138 99
f 105 139 106
f 106 139 108
f 108 139 140
f 108 140 109
f 109 140 163
f 109 163 141
f 109 141 142
f 109 142 110
f 112 144 143
f 112 142 145
f 112 145 146
f 112 146 144
f 121 148 149
f 122 149 123
f 123 150 151
f 123 151 152
f 123 152 126
f 123 126 124
f 123 149 148
f 123 148 150
f 124 126 125
f 126 152 151
f 126 151 147
f 126 147 153
f 126 153 129
f 126 129 128
f 127 128 154
f 127 154 129
f 128 129 154
f 129 153 155
f 129 155 156
f 129 156 130
f 130 156 131
f 131 156 157
f 132 158 133
f 133 158 159
f 133 159 134
f 134 159 160
f 134 160 135
f 135 160 161
f 135 161 136
f 136 161 137
f 137 161 162
f 141 164 165
f 141 165 166
f 141 166 142
f 141 163 164
f 142 166 145
f 145 166 146
f 146 166 165
f 146 165 167
f 146 167 158
f 147 168 153
f 153 168 155
f 155 168 169
f 155 169 170
f 155 170 157
f 155 157 156
f 158 167 160
f 158 160 159
f 160 167 161
f 161 167 171
f 161 171 172
f 161 172 173
f 161 173 174
f 161 174 162
f 163 175 176
f 163 176 164
f 164 176 165
f 165 176 177
f 165 177 167
f 167 177 178
f 167 178 171
f 175 179 176
f 176 179 178
f 176 178 177

