# https://github.com/mikedh/trimesh
v -5.96959788 4.44546989 17.27104314
v -5.35337604 4.44546989 17.03199694
v -6.61811079 0.39637551 16.48088843
v -6.77956613 0.57393960 16.59081217
v -6.34229094 3.74908564 17.27104314
v 5.92159646 4.44546989 17.27104314
v -6.49432811 0.39637551 16.43572569
v -3.10241796 4.44546989 16.25477507
v -3.13067284 4.41059102 16.25477507
v -6.78629350 0.39637551 16.58016824
v -7.35542375 0.53311582 17.27104314
v -7.22491369 0.98970897 17.27104314
v 5.93370541 4.41693277 17.27104314
v 4.38373303 2.38762946 16.25477507
v 3.61412862 3.66783453 16.25477507
v 3.48361896 3.88225900 16.25477507
v 3.19703555 4.31982727 16.25477507
v 3.10823511 4.44546989 16.25477507
v -6.15123533 0.39637551 16.35713827
v -3.35805571 4.07369519 16.25477507
v -3.48452918 3.88225900 16.25477507
v -7.35676953 0.39637551 17.27104314
v 6.34138071 3.37651842 17.27104314
v 4.61515248 1.81886973 16.25477507
v -5.97497947 0.39637551 16.32838898
v -4.34966140 2.46848450 16.25477507
v 6.33330756 0.39637551 17.27104314
v 6.37501679 2.85769864 17.27104314
v 4.60035234 1.78240561 16.25477507
v 6.38712652 2.33848222 17.27104314
v 6.38847153 1.81886973 17.27104314
v 6.38712652 1.44630221 17.27104314
v 6.37636257 0.92668962 17.27104314
v 6.34407151 0.40430251 17.27104314
v -4.61068111 1.87316935 16.25477507
v -4.61471730 1.81886973 16.25477507
v -4.37657049 1.42489937 16.25477507
v -3.57198422 0.39637551 16.25477507
v 3.54551030 0.39637551 16.25477507
v 4.34471460 1.36703260 16.25477507
f 1 2 3
f 1 3 4
f 1 4 5
f 1 5 12
f 1 12 11
f 1 11 22
f 1 22 27
f 1 27 34
f 1 34 33
f 1 33 32
f 1 32 31
f 1 31 30
f 1 30 28
f 1 28 23
f 1 23 13
f 1 13 6
f 1 6 18
f 1 18 8
f 1 8 2
f 2 7 3
f 2 8 9
f 2 9 7
f 3 10 4
f 3 7 19
f 3 19 25
f 3 25 38
f 3 38 39
f 3 39 27
f 3 27 22
f 3 22 10
f 4 10 11
f 4 11 12
f 4 12 5
f 6 13 14
f 6 14 15
f 6 15 16
f 6 16 17
f 6 17 18
f 7 9 20
f 7 20 21
f 7 21 19
f 8 18 17
f 8 17 16
f 8 16 15
f 8 15 14
f 8 14 24
f 8 24 29
f 8 29 40
f 8 40 39
f 8 39 38
f 8 38 37
f 8 37 36
f 8 36 35
f 8 35 26
f 8 26 21
f 8 21 20
f 8 20 9
f 10 22 11
f 13 23 24
f 13 24 14
f 19 21 26
f 19 26 25
f 23 28 24
f 24 28 30
f 24 30 31
f 24 31 32
f 24 32 33
f 24 33 34
f 24 34 29
f 25 26 35
f 25 35 36
f 25 36 37
f 25 37 38
f 27 39 34
f 29 34 40
f 34 39 40

