# https://github.com/mikedh/trimesh
v 0.67378013 -2.50720367 32.54267207
v 0.67378013 0.63306891 32.54267207
v -1.05246611 -2.50720367 32.54267207
v 0.67378013 -2.50720367 27.93516899
v -1.05246611 0.63306891 32.54267207
v 0.67378013 0.63306891 28.48702958
v -1.05246611 -2.50720367 28.24335696
v 0.26029886 -2.50720367 27.80103295
v -1.05246611 0.63306891 28.31529832
v -0.96662690 -2.50720367 28.13799750
v -0.26031239 -2.50720367 27.80103295
v -0.65503745 -2.50720367 27.92495792
v -0.69390165 -2.50720367 27.94073855
v -0.75101509 -2.50720367 27.97230001
f 1 2 5
f 1 5 3
f 1 3 7
f 1 7 10
f 1 10 14
f 1 14 13
f 1 13 12
f 1 12 11
f 1 11 8
f 1 8 4
f 1 4 6
f 1 6 2
f 2 6 9
f 2 9 5
f 3 5 9
f 3 9 7
f 4 8 6
f 6 8 9
f 7 9 10
f 8 11 9
f 9 11 12
f 9 12 13
f 9 13 14
f 9 14 10

