# https://github.com/mikedh/trimesh
v 0.05767328 0.59796568 12.80295083
v 0.05767328 0.83563575 12.80295083
v 0.06775139 0.59796568 12.80295083
v 0.05767328 0.59726438 12.81303409
v 0.05767328 0.80038573 13.30544102
v 0.33411233 0.96988116 12.80295083
v 0.09003342 0.59722746 12.82159259
v 0.06775139 0.59671069 12.82159259
v 0.62826669 0.61188110 12.80295083
v 0.05767328 0.59671069 12.82159259
v 0.05767328 0.59693213 13.30544102
v 0.11522866 0.82518995 13.30544102
v 0.46205690 0.96988116 13.30544102
v 0.74133035 0.96988116 12.80295083
v 0.09003342 0.59630466 12.84387409
v 0.05767328 0.59349942 12.91071865
v 0.64692697 0.61254548 12.80295083
v 0.64692697 0.61169658 12.82159259
v 0.05767328 0.59409003 13.14573217
v 0.06145258 0.59689521 13.30544102
v 0.82203383 0.96988116 13.30544102
v 0.74896764 0.96988116 12.82218280
v 0.74794405 0.95722066 12.80865648
v 0.74369239 0.96283115 12.80295083
v 0.06775139 0.59368400 12.91071865
v 0.05767328 0.59301956 12.93300019
v 0.65054872 0.61291465 12.80295083
v 0.66920894 0.61247171 12.84387409
v 0.66920894 0.61199185 12.86615562
v 0.64692697 0.61136439 12.84387409
v 0.06775139 0.59324106 12.93300019
v 0.09003342 0.59427455 12.91071865
v 0.12829870 0.59689521 13.30544102
v 0.11231545 0.59678452 13.30544102
v 0.09003342 0.59674761 13.30544102
v 0.05767328 0.59290887 12.99984475
v 0.33206521 0.59840862 13.30544102
v 0.31253890 0.59826095 13.30544102
v 0.83667856 0.91156173 13.30544102
v 0.82219132 0.96988116 13.30283412
v 0.75739235 0.96988116 12.84387409
v 0.75046359 0.94234552 12.80295083
v 0.74904639 0.94673794 12.80295083
v 0.75857330 0.96630078 12.84387409
v 0.05767328 0.59287196 12.95528172
v 0.66920894 0.61590442 12.80295083
v 0.66920894 0.61398505 12.82159259
v 0.69149103 0.61505545 12.86615562
v 0.69149103 0.61424340 12.88843716
v 0.69149103 0.61398505 12.91071865
v 0.66920894 0.61213952 12.88843716
v 0.42418529 0.60080777 13.30544102
v 0.41788645 0.60051250 13.30544102
v 0.40190326 0.59981121 13.30544102
v 0.09003342 0.59390544 12.93300019
v 0.05767328 0.59283504 12.98981069
v 0.33537203 0.59844547 13.30544102
v 0.84785892 0.86117818 13.30544102
v 0.85022103 0.85490331 13.28945538
v 0.85155954 0.85490331 13.26717385
v 0.84659922 0.87716067 13.26717385
v 0.84762281 0.87716067 13.24489233
v 0.84321358 0.89945492 13.22261080
v 0.82282117 0.96988116 13.28945538
v 0.76526582 0.96988116 12.86600805
v 0.75707736 0.94400653 12.82159259
v 0.75676243 0.92156462 12.80295083
v 0.76833646 0.95124109 12.85848251
v 0.76550206 0.94389578 12.84441517
v 0.76786410 0.92747038 12.83733230
v 0.06775139 0.59301956 12.97756323
v 0.05767328 0.59279812 12.97756323
v 0.67267332 0.61667955 12.80295083
v 0.69149103 0.61656879 12.84387409
v 0.70912766 0.61918952 12.86615562
v 0.71495408 0.61896802 12.89006032
v 0.71377306 0.61786070 12.91071865
v 0.71377306 0.61749159 12.93300019
v 0.73046492 0.62011225 12.99984475
v 0.69149103 0.61428032 12.93300019
v 0.66920894 0.61243479 12.91071865
v 0.44646732 0.60261646 13.30544102
v 0.39560442 0.59966360 13.30544102
v 0.34789097 0.59866697 13.30544102
v 0.84919750 0.85490331 13.30544102
v 0.85463018 0.83260906 13.28945538
v 0.85596870 0.83260906 13.26717385
v 0.85250439 0.85490331 13.24489233
v 0.84825266 0.87716067 13.22261080
v 0.84297734 0.89945492 13.20032929
v 0.83841075 0.91746750 13.22261080
v 0.82352977 0.96988116 13.26717385
v 0.76723419 0.96988116 12.87186127
v 0.77006865 0.91263216 12.83118398
v 0.76455722 0.92071565 12.82287142
v 0.75825844 0.91654473 12.80295083
v 0.77077725 0.95954608 12.87333686
v 0.77298186 0.94389578 12.86600805
v 0.77943813 0.92174920 12.86615562
v 0.77235194 0.92071565 12.84441517
v 0.68495601 0.61981698 12.80295083
v 0.70330124 0.62073978 12.83128231
v 0.69172721 0.61889418 12.82296982
v 0.70542717 0.62014917 12.84387409
v 0.72314255 0.62151491 12.88371523
v 0.72518966 0.62092430 12.89856959
v 0.72605569 0.62066595 12.91071865
v 0.74125160 0.62206854 12.97756323
v 0.74156652 0.62195785 12.99984475
v 0.72826030 0.62040753 13.02212628
v 0.71377306 0.61811905 12.99984475
v 0.69149103 0.61487093 12.95528172
v 0.49095263 0.60700888 13.30544102
v 0.71377306 0.61874658 13.02212628
v 0.85360659 0.83260906 13.30544102
v 0.85825199 0.81880433 13.26717385
v 0.85856692 0.82101900 13.25261462
v 0.85714972 0.83065278 13.24503989
v 0.85281924 0.85490331 13.22261080
v 0.84801641 0.87716067 13.20032929
v 0.84644172 0.87716067 13.15576624
v 0.84116647 0.89945492 13.15576624
v 0.83825326 0.91672928 13.20032929
v 0.82337234 0.96988116 13.22261080
v 0.82360852 0.96988116 13.24489233
v 0.77235194 0.96988116 12.88799448
v 0.77817836 0.89945492 12.84387409
v 0.77187959 0.89945492 12.82611775
v 0.76943880 0.88808633 12.81062398
v 0.76321870 0.89945492 12.80295083
v 0.79227200 0.91226306 12.89793014
v 0.78550073 0.89945492 12.86615562
v 0.69582144 0.62332353 12.80295083
v 0.69928576 0.62203162 12.81642796
v 0.71196213 0.62590727 12.82296982
v 0.71652878 0.62398797 12.84387409
v 0.73605509 0.62815889 12.86615562
v 0.72022934 0.62240079 12.86615562
v 0.73400798 0.62439393 12.89006032
v 0.73723611 0.62387722 12.91071865
v 0.73873213 0.62313901 12.93300019
v 0.73999183 0.62247456 12.95528172
v 0.75833712 0.62786362 12.95528172
v 0.75833712 0.62738376 12.97756323
v 0.75833712 0.62694082 12.99984475
v 0.73944073 0.62247456 13.02212628
v 0.75833712 0.62705157 13.02212628
v 0.72597701 0.62077670 13.03609527
v 0.50693588 0.60863291 13.30544102
v 0.51323473 0.60929735 13.30544102
v 0.85699222 0.80950277 13.30544102
v 0.85754339 0.81378444 13.28945538
v 0.85903927 0.80267420 13.28945538
v 0.85966926 0.80765720 13.26717385
v 0.85864567 0.82194177 13.23776028
v 0.85974801 0.81227107 13.24503989
v 0.85714972 0.83065278 13.22206976
v 0.85628362 0.83260906 13.20032929
v 0.85218939 0.85490331 13.20032929
v 0.85848817 0.82046534 13.20032929
v 0.85148079 0.85490331 13.17804776
v 0.85061470 0.85490331 13.15576624
v 0.85329173 0.83260906 13.13348472
v 0.84455210 0.87716067 13.13348472
v 0.83904060 0.90133740 13.13235342
v 0.83620621 0.91001147 13.12418845
v 0.83667856 0.91193087 13.13904280
v 0.83722973 0.91344421 13.15576624
v 0.82077412 0.96988116 13.15576624
v 0.82258499 0.96988116 13.19998498
v 0.77928070 0.96988116 12.91057112
v 0.78384729 0.87716067 12.84387409
v 0.77479273 0.87926459 12.81947755
v 0.77124974 0.87324807 12.80575449
v 0.76959629 0.87564730 12.80295083
v 0.76786410 0.88243895 12.80295083
v 0.76424223 0.89580074 12.80295083
v 0.79132715 0.86379888 12.85656424
v 0.79038231 0.89945492 12.88174776
v 0.79235075 0.93485258 12.91991657
v 0.79400419 0.92053113 12.91180078
v 0.81376661 0.93149370 12.98990907
v 0.81431785 0.84482662 12.92094949
v 0.80990863 0.85331613 12.91239102
v 0.69747489 0.62402482 12.80295083
v 0.71345814 0.63089030 12.80295083
v 0.73605509 0.63225598 12.84387409
v 0.75833712 0.63410158 12.88843716
v 0.75833712 0.63125941 12.91071865
v 0.75833712 0.62934004 12.93300019
v 0.77880822 0.63749737 12.95528172
v 0.78061915 0.63602094 13.02212628
v 0.78061915 0.63616854 13.06664014
v 0.75833712 0.63026284 13.08892166
v 0.78061915 0.63650080 13.08892166
v 0.73605509 0.62616569 13.08892166
v 0.74715670 0.64270184 13.30544102
v 0.73747229 0.64104083 13.30544102
v 0.71377306 0.63731285 13.30544102
v 0.52921791 0.61143822 13.30544102
v 0.85777957 0.80381844 13.30544102
v 0.86037786 0.78805745 13.28945538
v 0.85864567 0.79949985 13.30116179
v 0.86140145 0.78805745 13.26717385
v 0.85864567 0.82194177 13.22910344
v 0.85974801 0.81234490 13.22206976
v 0.86171631 0.78805745 13.24489233
v 0.86187380 0.78805745 13.22261080
v 0.85565377 0.83260906 13.17804776
v 0.85856692 0.79916766 13.12286041
v 0.85817331 0.81681113 13.17804776
v 0.85478768 0.83260906 13.15576624
v 0.85990537 0.80931818 13.20032929
v 0.85557503 0.81035170 13.11120319
v 0.85108712 0.83260906 13.11120319
v 0.84848884 0.83260906 13.08892166
v 0.83888317 0.87852638 13.08818386
v 0.83801708 0.89580074 13.11120319
v 0.82723040 0.94400653 13.13348472
v 0.83392285 0.92030966 13.13235342
v 0.83549754 0.90691095 13.11120319
v 0.81644365 0.94459711 13.02301163
v 0.81439653 0.95603950 13.03097987
v 0.81502645 0.95836493 13.04440781
v 0.81329426 0.96988116 13.06177067
v 0.81959304 0.96988116 13.13348472
v 0.78620933 0.96988116 12.93422984
v 0.77195834 0.86582896 12.80295083
v 0.78101289 0.85490331 12.82159259
v 0.79266560 0.84896063 12.85228499
v 0.77904446 0.83260906 12.80295083
v 0.80723159 0.83260906 12.88843716
v 0.80022422 0.83260906 12.86615562
v 0.81187706 0.94459711 12.99831997
v 0.81534137 0.93758399 13.00476341
v 0.83896186 0.83316272 13.02173279
v 0.83730841 0.82607580 13.00623901
v 0.83573372 0.81754934 12.99138467
v 0.82486835 0.83260906 12.95528172
v 0.81951429 0.83260906 12.93300019
v 0.81534137 0.83260906 12.91691618
v 0.81234942 0.83260906 12.90580003
v 0.71747362 0.63277275 12.80295083
v 0.74865271 0.64222198 12.82975755
v 0.75164467 0.64041337 12.84387409
v 0.75873080 0.63875236 12.86777876
v 0.76991115 0.64292328 12.87623885
v 0.77187959 0.64137302 12.88843716
v 0.77439912 0.63952749 12.91071865
v 0.77660367 0.63834633 12.93300019
v 0.78990996 0.64476881 12.95528172
v 0.79116966 0.64369841 12.97756323
v 0.79227200 0.64292328 13.00510772
v 0.79274435 0.64255417 13.02212628
v 0.79392544 0.64177904 13.06664014
v 0.79384669 0.64181596 13.08892166
v 0.74967624 0.64321855 13.30544102
v 0.74849528 0.64296019 13.30544102
v 0.76928130 0.64329238 13.23220219
v 0.78061915 0.64930890 13.26717385
v 0.85848817 0.79651008 13.30544102
v 0.85919677 0.78805745 13.30544102
v 0.85943301 0.76886369 13.30544102
v 0.86061410 0.76580009 13.28945538
v 0.86140145 0.76580009 13.26717385
v 0.86179505 0.78805745 13.20032929
v 0.86171631 0.76580009 13.24489233
v 0.86195255 0.76580009 13.22261080
v 0.86203130 0.76580009 13.20032929
v 0.85951176 0.78403413 13.11120319
v 0.85809456 0.79518126 13.11120319
v 0.85297674 0.81035170 13.08892166
v 0.84581187 0.83260906 13.06664014
v 0.83699355 0.89140832 13.09511918
v 0.84116647 0.85490331 13.06664014
v 0.81321551 0.95242224 13.01612552
v 0.84297734 0.83260906 13.04440781
v 0.80817644 0.96988116 13.02281489
v 0.81108965 0.96988116 13.04440781
v 0.80274375 0.96988116 12.99507366
v 0.80526329 0.96630078 12.99984475
v 0.77447787 0.85457112 12.80295083
v 0.77534397 0.85043708 12.80295083
v 0.79416162 0.83260906 12.84790737
v 0.78534324 0.83260906 12.82159259
v 0.78282377 0.81053625 12.80295083
v 0.81353044 0.81780773 12.90137321
v 0.81116840 0.81035170 12.88966681
v 0.80384603 0.81035170 12.86615562
v 0.79148465 0.81980093 12.83344656
v 0.84707157 0.81035170 13.04440781
v 0.84321358 0.81035170 13.02212628
v 0.83848950 0.81020406 12.99925452
v 0.83683606 0.80271112 12.98626925
v 0.83400159 0.81020406 12.97835023
v 0.82872634 0.81035170 12.95528172
v 0.82321491 0.81035170 12.93300019
v 0.73093727 0.63989659 12.80295083
v 0.74471591 0.64510106 12.81490320
v 0.76274628 0.64938274 12.84387409
v 0.76644684 0.64565469 12.86138450
v 0.77384796 0.66052983 12.84387409
v 0.77668242 0.65362749 12.86777876
v 0.78455589 0.65528850 12.88696153
v 0.78557948 0.64964109 12.91071865
v 0.78770534 0.64687276 12.93300019
v 0.80069664 0.65591597 12.95528172
v 0.81416035 0.66536519 12.98730217
v 0.80471212 0.65683876 12.97894046
v 0.81479021 0.66462698 12.99984475
v 0.81557755 0.66370418 13.02212628
v 0.80392478 0.65255709 13.02212628
v 0.80439720 0.65185573 13.04440781
v 0.80502705 0.65133902 13.06664014
v 0.80494830 0.65130210 13.08892166
v 0.81557755 0.66407329 13.20032929
v 0.81290059 0.66650943 13.26717385
v 0.80172016 0.65912724 13.26717385
v 0.75810095 0.64550709 13.30544102
v 0.80006672 0.66034531 13.28945538
v 0.78061915 0.65130210 13.28945538
v 0.85943301 0.76580009 13.30544102
v 0.85903927 0.75882392 13.30544102
v 0.85880316 0.75343493 13.30347355
v 0.85927552 0.75107262 13.28945538
v 0.85966926 0.74885792 13.26717385
v 0.85990537 0.74778752 13.24489233
v 0.86006286 0.74645869 13.22261080
v 0.86006286 0.74620034 13.20032929
v 0.85982675 0.74730766 13.17804776
v 0.85888191 0.75214302 13.11636778
v 0.85951176 0.76469277 13.10987515
v 0.85880316 0.77905117 13.09856223
v 0.85659855 0.78709777 13.09024970
v 0.80731034 0.96988116 13.01794542
v 0.80392478 0.96988116 12.99964801
v 0.78345368 0.80559017 12.80295083
v 0.81683732 0.81035170 12.90958737
v 0.81455396 0.80293259 12.89793014
v 0.80628682 0.78805745 12.86615562
v 0.79904320 0.78805745 12.84387409
v 0.79258692 0.80496271 12.83024943
v 0.84959111 0.78805745 13.04440781
v 0.84573312 0.78805745 13.02212628
v 0.84124521 0.78805745 12.99984475
v 0.83534011 0.78805745 12.97116896
v 0.83171823 0.78805745 12.95528172
v 0.82620681 0.78805745 12.93300019
v 0.74180277 0.64798008 12.80295083
v 0.74361371 0.64971493 12.80295083
v 0.75786470 0.65451337 12.82257628
v 0.77077725 0.66388877 12.83024943
v 0.79140590 0.66621416 12.87850143
v 0.79337427 0.66329816 12.89335578
v 0.79550013 0.66078825 12.91071865
v 0.79817710 0.65801992 12.93300019
v 0.81329426 0.66662018 12.97244782
v 0.83534011 0.68983723 13.04440781
v 0.82644305 0.67669687 13.04440781
v 0.81628615 0.66300289 13.04440781
v 0.81675864 0.66248611 13.06664014
v 0.81683732 0.66244926 13.08892166
v 0.82234882 0.67880082 13.28945538
v 0.83659981 0.68747492 13.15060165
v 0.82589188 0.67669687 13.20032929
v 0.83408028 0.69127674 13.26717385
v 0.82289992 0.67765659 13.26717385
v 0.81124714 0.66765367 13.28945538
v 0.78061915 0.65296311 13.30544102
v 0.80148399 0.66351966 13.30544102
v 0.79833453 0.66148954 13.30544102
v 0.85817331 0.75133098 13.30544102
v 0.85699222 0.73992547 13.28945538
v 0.85754339 0.73771083 13.26717385
v 0.85801581 0.73531160 13.22261080
v 0.85809456 0.73505318 13.20032929
v 0.85793707 0.73616057 13.17804776
v 0.85770082 0.74022074 13.13348472
v 0.85762207 0.74424406 13.10987515
v 0.85848817 0.75649853 13.10151344
v 0.85880316 0.77137367 13.09856223
v 0.85407908 0.76580009 13.06664014
v 0.85061470 0.76580009 13.04440781
v 0.78550073 0.78805745 12.80295083
v 0.81990803 0.78805745 12.91071865
v 0.81534137 0.78805745 12.89542162
v 0.80754659 0.76580009 12.86615562
v 0.80053914 0.76580009 12.84387409
v 0.84691414 0.76580009 13.02212628
v 0.84258373 0.76580009 12.99984475
v 0.83833200 0.76580009 12.97918638
v 0.83596996 0.76580009 12.96802103
v 0.83305675 0.76580009 12.95528172
v 0.82762400 0.76580009 12.93300019
v 0.75290438 0.65912724 12.80295083
v 0.77424163 0.67725056 12.82233037
v 0.78502838 0.67795186 12.84495618
v 0.78935872 0.67042200 12.86615562
v 0.76408480 0.67573722 12.80295083
v 0.76495089 0.67725056 12.80295083
v 0.79242943 0.68625685 12.85312117
v 0.79447654 0.68156915 12.86615562
v 0.81384536 0.68847149 12.92252345
v 0.81581380 0.68430057 12.93737781
v 0.81014487 0.67680762 12.93118028
v 0.81179831 0.66927776 12.95528172
v 0.81801834 0.68042492 12.95528172
v 0.81904193 0.67510969 12.97894046
v 0.83400159 0.69293775 13.02212628
v 0.84030044 0.70098432 13.04440781
v 0.84148139 0.69976625 13.06664014
v 0.83581247 0.68861916 13.06664014
v 0.82746657 0.67669687 13.06664014
v 0.83659981 0.68747492 13.13348472
v 0.82132523 0.68009266 13.30544102
v 0.81825459 0.67695522 13.30544102
v 0.83345043 0.69219953 13.28945538
v 0.83250558 0.69334377 13.30544102
v 0.84400093 0.69899112 13.13348472
v 0.84218999 0.69681340 13.15714346
v 0.84093029 0.70238697 13.26717385
v 0.80943627 0.66894557 13.30544102
v 0.85644112 0.74365345 13.30544102
v 0.85045720 0.72652675 13.30544102
v 0.84982735 0.72124851 13.28945538
v 0.85100837 0.72124851 13.26717385
v 0.85274050 0.72124851 13.20032929
v 0.85384284 0.72124851 13.15576624
v 0.85400033 0.72124851 13.13348472
v 0.85305549 0.72124851 13.11120319
v 0.85155954 0.72124851 13.08892166
v 0.85596870 0.74354276 13.08892166
v 0.85321298 0.74354276 13.06664014
v 0.85738596 0.76469277 13.09024970
v 0.84612679 0.74354276 13.02212628
v 0.78581572 0.78263151 12.80295083
v 0.82124648 0.76580009 12.91071865
v 0.80014547 0.74354276 12.84387409
v 0.79431905 0.76580009 12.82542913
v 0.84218999 0.74354276 12.99984475
v 0.83817451 0.74354276 12.97992420
v 0.83581247 0.74354276 12.96875885
v 0.83274183 0.74354276 12.95528172
v 0.82715165 0.74354276 12.93300019
v 0.76998990 0.68688431 12.80295083
v 0.77416288 0.69574299 12.80295083
v 0.78959496 0.69456184 12.83826682
v 0.79392544 0.70076288 12.84495618
v 0.80022422 0.69899112 12.86615562
v 0.80675924 0.69899112 12.88843716
v 0.81581380 0.70330971 12.91568652
v 0.81849076 0.69710867 12.93118028
v 0.82526196 0.69899112 12.95528172
v 0.83124588 0.70113199 12.97967826
v 0.83266308 0.69681340 12.99984475
v 0.83872568 0.70408484 13.02212628
v 0.84951236 0.72124851 13.06664014
v 0.84030044 0.70330971 13.28945538
v 0.83967052 0.70449086 13.30544102
v 0.83770215 0.70135342 13.30544102
v 0.84841015 0.72124851 13.30544102
v 0.84234749 0.70954766 13.30544102
v 0.84644172 0.72124851 13.04440781
v 0.84313483 0.72124851 13.02212628
v 0.83636364 0.70999060 12.98853185
v 0.83967052 0.72124851 12.99984475
v 0.83707230 0.72124851 12.98474447
v 0.78660307 0.76580009 12.80295083
v 0.82061663 0.74354276 12.91071865
v 0.80699548 0.74354276 12.86615562
v 0.80479087 0.72124851 12.86615562
v 0.79778343 0.72124851 12.84387409
v 0.79408287 0.74354276 12.82611775
v 0.83471019 0.72124851 12.97362831
v 0.83037978 0.72124851 12.95528172
v 0.82455336 0.72124851 12.93300019
v 0.81479021 0.72737572 12.89719236
v 0.77565883 0.69924954 12.80295083
v 0.79195701 0.70940006 12.83221687
v 0.81368793 0.71250058 12.90083216
v 0.83715098 0.70792364 12.99984475
v 0.78644558 0.76063254 12.80295083
v 0.81746724 0.72047338 12.90924306
v 0.79282310 0.72124851 12.82965915
v 0.79014613 0.74354276 12.81500157
v 0.78180024 0.71818484 12.80295083
v 0.78258759 0.72124851 12.80295083
v 0.78865012 0.72124851 12.81854300
v 0.78573698 0.74354276 12.80295083
v 0.78518581 0.73929800 12.80295083
f 1 2 6
f 1 6 14
f 1 14 24
f 1 24 43
f 1 43 42
f 1 42 67
f 1 67 96
f 1 96 130
f 1 130 177
f 1 177 176
f 1 176 175
f 1 175 228
f 1 228 282
f 1 282 283
f 1 283 231
f 1 231 286
f 1 286 337
f 1 337 384
f 1 384 436
f 1 436 468
f 1 468 482
f 1 482 489
f 1 489 490
f 1 490 487
f 1 487 486
f 1 486 478
f 1 478 446
f 1 446 445
f 1 445 400
f 1 400 399
f 1 399 395
f 1 395 350
f 1 350 349
f 1 349 298
f 1 298 243
f 1 243 186
f 1 186 185
f 1 185 133
f 1 133 101
f 1 101 73
f 1 73 46
f 1 46 27
f 1 27 17
f 1 17 9
f 1 9 3
f 1 3 4
f 1 4 10
f 1 10 16
f 1 16 26
f 1 26 45
f 1 45 72
f 1 72 56
f 1 56 36
f 1 36 19
f 1 19 11
f 1 11 5
f 1 5 2
f 2 5 6
f 3 7 8
f 3 8 4
f 3 9 7
f 4 8 10
f 5 11 20
f 5 20 35
f 5 35 34
f 5 34 33
f 5 33 38
f 5 38 37
f 5 37 57
f 5 57 84
f 5 84 83
f 5 83 54
f 5 54 53
f 5 53 52
f 5 52 82
f 5 82 113
f 5 113 149
f 5 149 150
f 5 150 200
f 5 200 199
f 5 199 198
f 5 198 197
f 5 197 258
f 5 258 257
f 5 257 319
f 5 319 369
f 5 369 371
f 5 371 370
f 5 370 422
f 5 422 416
f 5 416 415
f 5 415 418
f 5 418 460
f 5 460 459
f 5 459 462
f 5 462 461
f 5 461 424
f 5 424 423
f 5 423 372
f 5 372 323
f 5 323 322
f 5 322 263
f 5 263 262
f 5 262 261
f 5 261 201
f 5 201 151
f 5 151 115
f 5 115 85
f 5 85 58
f 5 58 39
f 5 39 21
f 5 21 13
f 5 13 12
f 5 12 6
f 6 12 13
f 6 13 21
f 6 21 40
f 6 40 64
f 6 64 92
f 6 92 125
f 6 125 124
f 6 124 170
f 6 170 169
f 6 169 226
f 6 226 225
f 6 225 279
f 6 279 278
f 6 278 335
f 6 335 336
f 6 336 280
f 6 280 227
f 6 227 171
f 6 171 126
f 6 126 93
f 6 93 65
f 6 65 41
f 6 41 22
f 6 22 14
f 7 15 8
f 7 9 15
f 8 16 10
f 8 15 16
f 9 17 18
f 9 18 15
f 11 19 20
f 14 22 23
f 14 23 24
f 15 25 16
f 15 18 25
f 16 25 26
f 17 27 28
f 17 28 18
f 18 28 29
f 18 29 30
f 18 30 31
f 18 31 32
f 18 32 25
f 19 33 34
f 19 34 35
f 19 35 20
f 19 36 37
f 19 37 38
f 19 38 33
f 21 39 40
f 22 41 23
f 23 42 43
f 23 43 24
f 23 41 44
f 23 44 42
f 25 31 26
f 25 32 31
f 26 31 45
f 27 46 47
f 27 47 28
f 28 48 49
f 28 49 29
f 28 47 74
f 28 74 48
f 29 49 50
f 29 50 51
f 29 51 52
f 29 52 53
f 29 53 54
f 29 54 30
f 30 54 55
f 30 55 31
f 31 55 54
f 31 54 45
f 36 56 57
f 36 57 37
f 39 58 59
f 39 59 60
f 39 60 61
f 39 61 62
f 39 62 63
f 39 63 64
f 39 64 40
f 41 65 44
f 42 66 67
f 42 44 66
f 44 65 68
f 44 68 69
f 44 69 70
f 44 70 66
f 45 54 71
f 45 71 72
f 46 73 74
f 46 74 47
f 48 74 75
f 48 75 76
f 48 76 77
f 48 77 49
f 49 77 78
f 49 78 50
f 50 78 79
f 50 79 80
f 50 80 81
f 50 81 51
f 51 81 52
f 52 81 80
f 52 80 82
f 54 83 71
f 56 72 57
f 57 72 84
f 58 85 59
f 59 85 115
f 59 115 86
f 59 86 87
f 59 87 60
f 60 87 88
f 60 88 62
f 60 62 61
f 62 89 63
f 62 88 89
f 63 89 120
f 63 120 90
f 63 90 91
f 63 91 92
f 63 92 64
f 65 93 68
f 66 70 94
f 66 94 95
f 66 95 67
f 67 95 96
f 68 94 70
f 68 70 69
f 68 93 97
f 68 97 98
f 68 98 99
f 68 99 100
f 68 100 94
f 71 83 72
f 72 83 84
f 73 101 102
f 73 102 103
f 73 103 74
f 74 103 102
f 74 102 104
f 74 104 75
f 75 104 105
f 75 105 106
f 75 106 76
f 76 106 77
f 77 106 107
f 77 107 108
f 77 108 78
f 78 108 109
f 78 109 79
f 79 109 110
f 79 110 111
f 79 111 80
f 80 111 112
f 80 112 82
f 82 112 111
f 82 111 114
f 82 114 113
f 86 115 116
f 86 116 87
f 87 116 117
f 87 117 118
f 87 118 88
f 88 118 119
f 88 119 89
f 89 119 120
f 90 120 121
f 90 121 122
f 90 122 123
f 90 123 91
f 91 123 124
f 91 124 125
f 91 125 92
f 93 126 97
f 94 100 127
f 94 127 128
f 94 128 129
f 94 129 96
f 94 96 95
f 96 129 130
f 97 126 131
f 97 131 98
f 98 131 99
f 99 127 100
f 99 131 132
f 99 132 127
f 101 133 134
f 101 134 102
f 102 134 135
f 102 135 136
f 102 136 137
f 102 137 138
f 102 138 105
f 102 105 104
f 105 138 139
f 105 139 106
f 106 139 140
f 106 140 141
f 106 141 142
f 106 142 107
f 107 142 108
f 108 142 143
f 108 143 144
f 108 144 145
f 108 145 109
f 109 146 110
f 109 145 147
f 109 147 146
f 110 148 114
f 110 114 111
f 110 146 148
f 113 114 149
f 114 148 150
f 114 150 149
f 115 151 152
f 115 152 116
f 116 152 153
f 116 153 154
f 116 154 117
f 117 155 118
f 117 154 156
f 117 156 155
f 118 155 205
f 118 205 157
f 118 157 119
f 119 158 209
f 119 209 159
f 119 159 120
f 119 157 160
f 119 160 158
f 120 159 161
f 120 161 121
f 121 161 162
f 121 162 163
f 121 163 164
f 121 164 165
f 121 165 122
f 122 165 166
f 122 166 167
f 122 167 168
f 122 168 123
f 123 168 169
f 123 169 170
f 123 170 124
f 126 171 131
f 127 132 172
f 127 172 173
f 127 173 129
f 127 129 128
f 129 173 174
f 129 174 175
f 129 175 176
f 129 176 177
f 129 177 130
f 131 178 179
f 131 179 132
f 131 171 180
f 131 180 181
f 131 181 182
f 131 182 183
f 131 183 184
f 131 184 178
f 132 179 178
f 132 178 172
f 133 185 135
f 133 135 134
f 135 185 186
f 135 186 187
f 135 187 136
f 136 187 137
f 137 139 138
f 137 187 188
f 137 188 189
f 137 189 139
f 139 189 190
f 139 190 140
f 140 190 143
f 140 143 141
f 141 143 142
f 143 190 191
f 143 191 192
f 143 192 144
f 144 192 145
f 145 192 193
f 145 193 147
f 146 147 194
f 146 194 148
f 147 193 195
f 147 195 194
f 148 194 196
f 148 196 197
f 148 197 198
f 148 198 199
f 148 199 200
f 148 200 150
f 151 201 152
f 152 201 153
f 153 202 154
f 153 201 203
f 153 203 202
f 154 202 204
f 154 204 156
f 155 156 206
f 155 206 205
f 156 204 207
f 156 207 208
f 156 208 206
f 157 205 160
f 158 160 209
f 159 209 161
f 160 210 211
f 160 211 212
f 160 212 209
f 160 205 213
f 160 213 210
f 161 209 212
f 161 212 162
f 162 212 163
f 163 212 210
f 163 210 214
f 163 214 164
f 164 214 215
f 164 215 216
f 164 216 217
f 164 217 218
f 164 218 165
f 165 218 166
f 166 219 220
f 166 220 167
f 166 218 221
f 166 221 222
f 166 222 223
f 166 223 224
f 166 224 225
f 166 225 219
f 167 220 168
f 168 220 219
f 168 219 169
f 169 219 226
f 171 227 180
f 172 178 173
f 173 228 174
f 173 178 229
f 173 229 228
f 174 228 175
f 178 230 231
f 178 231 229
f 178 184 183
f 178 183 232
f 178 232 233
f 178 233 230
f 180 227 182
f 180 182 181
f 182 227 234
f 182 234 235
f 182 235 236
f 182 236 237
f 182 237 238
f 182 238 239
f 182 239 183
f 183 240 241
f 183 241 242
f 183 242 232
f 183 239 240
f 186 243 187
f 187 243 244
f 187 244 245
f 187 245 246
f 187 246 188
f 188 246 247
f 188 247 248
f 188 248 249
f 188 249 189
f 189 249 250
f 189 250 191
f 189 191 190
f 191 250 251
f 191 251 252
f 191 252 253
f 191 253 192
f 192 253 254
f 192 254 255
f 192 255 256
f 192 256 193
f 193 256 195
f 194 257 258
f 194 258 197
f 194 197 196
f 194 195 259
f 194 259 257
f 195 260 259
f 195 256 260
f 201 261 203
f 202 262 263
f 202 263 264
f 202 264 204
f 202 203 262
f 203 261 262
f 204 264 265
f 204 265 267
f 204 267 207
f 205 206 213
f 206 208 266
f 206 266 213
f 207 267 268
f 207 268 208
f 208 268 269
f 208 269 266
f 210 213 266
f 210 266 270
f 210 270 271
f 210 271 214
f 210 212 211
f 214 272 216
f 214 216 215
f 214 271 272
f 216 272 273
f 216 273 217
f 217 274 218
f 217 273 275
f 217 275 222
f 217 222 274
f 218 274 222
f 218 222 221
f 219 225 226
f 222 235 276
f 222 276 223
f 222 275 277
f 222 277 235
f 223 276 278
f 223 278 279
f 223 279 225
f 223 225 224
f 227 280 281
f 227 281 234
f 228 229 282
f 229 231 283
f 229 283 282
f 230 284 285
f 230 285 231
f 230 233 284
f 231 285 286
f 232 242 287
f 232 287 288
f 232 288 289
f 232 289 233
f 233 289 290
f 233 290 284
f 234 281 276
f 234 276 235
f 235 277 236
f 236 277 291
f 236 291 292
f 236 292 237
f 237 292 238
f 238 292 293
f 238 293 294
f 238 294 295
f 238 295 296
f 238 296 239
f 239 296 240
f 240 296 297
f 240 297 241
f 241 287 242
f 241 297 287
f 243 298 244
f 244 299 300
f 244 300 301
f 244 301 247
f 244 247 245
f 244 298 299
f 245 247 246
f 247 302 303
f 247 303 304
f 247 304 248
f 247 301 302
f 248 304 305
f 248 305 306
f 248 306 249
f 249 306 251
f 249 251 250
f 251 306 307
f 251 307 308
f 251 308 309
f 251 309 252
f 252 309 310
f 252 310 311
f 252 311 312
f 252 312 253
f 253 312 313
f 253 313 314
f 253 314 254
f 254 314 255
f 255 314 315
f 255 315 256
f 256 315 316
f 256 316 317
f 256 317 318
f 256 318 260
f 257 259 319
f 259 260 319
f 260 318 320
f 260 320 321
f 260 321 319
f 263 322 264
f 264 322 323
f 264 323 324
f 264 324 325
f 264 325 265
f 265 325 326
f 265 326 327
f 265 327 267
f 266 269 270
f 267 327 328
f 267 328 268
f 268 328 269
f 269 328 329
f 269 329 330
f 269 330 331
f 269 331 332
f 269 332 270
f 270 332 333
f 270 333 271
f 271 333 334
f 271 334 272
f 272 291 277
f 272 277 273
f 272 334 291
f 273 277 275
f 276 281 335
f 276 335 278
f 280 336 281
f 281 336 335
f 284 290 285
f 285 290 286
f 286 290 289
f 286 289 337
f 287 297 338
f 287 338 339
f 287 339 288
f 288 340 289
f 288 339 340
f 289 341 342
f 289 342 337
f 289 340 341
f 291 343 344
f 291 344 292
f 291 334 333
f 291 333 343
f 292 344 345
f 292 345 294
f 292 294 293
f 294 346 347
f 294 347 296
f 294 296 295
f 294 345 346
f 296 347 348
f 296 348 297
f 297 348 338
f 298 349 299
f 299 349 350
f 299 350 351
f 299 351 300
f 300 351 302
f 300 302 301
f 302 351 352
f 302 352 353
f 302 353 303
f 303 353 304
f 304 353 354
f 304 354 305
f 305 354 355
f 305 355 356
f 305 356 306
f 306 356 307
f 307 356 357
f 307 357 308
f 308 310 309
f 308 357 358
f 308 358 310
f 310 358 359
f 310 359 311
f 311 360 312
f 311 359 360
f 312 360 313
f 313 360 314
f 314 360 361
f 314 361 362
f 314 362 315
f 315 362 316
f 316 363 317
f 316 362 364
f 316 364 365
f 316 365 366
f 316 366 367
f 316 367 363
f 317 368 318
f 317 363 368
f 318 368 320
f 319 321 369
f 320 368 370
f 320 370 371
f 320 371 369
f 320 369 321
f 323 372 324
f 324 372 373
f 324 373 325
f 325 373 374
f 325 374 326
f 326 374 375
f 326 375 327
f 327 375 328
f 328 375 376
f 328 376 329
f 329 376 377
f 329 377 330
f 330 377 378
f 330 378 331
f 331 378 379
f 331 379 380
f 331 380 332
f 332 380 381
f 332 381 333
f 333 381 382
f 333 382 383
f 333 383 343
f 337 342 384
f 338 348 339
f 339 348 385
f 339 385 386
f 339 386 340
f 340 387 388
f 340 388 341
f 340 386 387
f 341 388 384
f 341 384 342
f 343 383 389
f 343 389 344
f 344 389 390
f 344 390 345
f 345 391 346
f 345 390 391
f 346 391 392
f 346 392 347
f 347 393 394
f 347 394 348
f 347 392 393
f 348 394 385
f 350 395 351
f 351 395 352
f 352 396 397
f 352 397 398
f 352 398 353
f 352 395 399
f 352 399 400
f 352 400 396
f 353 398 401
f 353 401 402
f 353 402 403
f 353 403 404
f 353 404 405
f 353 405 406
f 353 406 354
f 354 406 355
f 355 406 356
f 356 406 357
f 357 406 407
f 357 407 408
f 357 408 358
f 358 409 410
f 358 410 411
f 358 411 412
f 358 412 359
f 358 408 409
f 359 412 413
f 359 413 360
f 360 413 361
f 361 413 414
f 361 414 362
f 362 414 364
f 363 415 416
f 363 416 368
f 363 367 417
f 363 417 418
f 363 418 415
f 364 414 419
f 364 419 420
f 364 420 366
f 364 366 365
f 366 420 421
f 366 421 458
f 366 458 417
f 366 417 367
f 368 422 370
f 368 416 422
f 372 423 373
f 373 423 424
f 373 424 425
f 373 425 374
f 374 425 426
f 374 426 375
f 375 426 427
f 375 427 428
f 375 428 376
f 376 428 429
f 376 429 377
f 377 429 378
f 378 429 379
f 379 429 430
f 379 430 431
f 379 431 432
f 379 432 380
f 380 432 433
f 380 433 434
f 380 434 381
f 381 434 382
f 382 433 383
f 382 434 433
f 383 433 435
f 383 435 389
f 384 388 436
f 385 437 386
f 385 394 437
f 386 437 387
f 387 438 388
f 387 437 470
f 387 470 438
f 388 438 439
f 388 439 436
f 389 435 440
f 389 440 390
f 390 440 441
f 390 441 391
f 391 441 442
f 391 442 392
f 392 442 443
f 392 443 393
f 393 443 394
f 394 443 444
f 394 444 437
f 396 400 445
f 396 445 397
f 397 445 446
f 397 446 447
f 397 447 401
f 397 401 398
f 401 448 449
f 401 449 403
f 401 403 402
f 401 447 448
f 403 449 450
f 403 450 451
f 403 451 452
f 403 452 453
f 403 453 404
f 404 407 405
f 404 453 454
f 404 454 407
f 405 407 406
f 407 454 455
f 407 455 408
f 408 455 409
f 409 455 456
f 409 456 410
f 410 456 457
f 410 457 431
f 410 431 411
f 411 431 430
f 411 430 419
f 411 419 412
f 412 419 414
f 412 414 413
f 417 458 459
f 417 459 460
f 417 460 418
f 419 430 429
f 419 429 428
f 419 428 427
f 419 427 426
f 419 426 420
f 420 426 421
f 421 426 458
f 424 461 425
f 425 461 462
f 425 462 459
f 425 459 458
f 425 458 426
f 431 457 432
f 432 457 433
f 433 457 463
f 433 463 464
f 433 464 465
f 433 465 466
f 433 466 435
f 435 466 467
f 435 467 440
f 436 439 468
f 437 469 470
f 437 444 469
f 438 470 471
f 438 471 472
f 438 472 473
f 438 473 439
f 439 473 468
f 440 467 441
f 441 467 442
f 442 474 443
f 442 467 474
f 443 475 444
f 443 474 475
f 444 476 477
f 444 477 469
f 444 475 476
f 446 478 447
f 447 479 448
f 447 478 479
f 448 479 449
f 449 480 451
f 449 451 450
f 449 479 480
f 451 480 476
f 451 476 452
f 452 476 453
f 453 476 475
f 453 475 465
f 453 465 454
f 454 465 455
f 455 465 481
f 455 481 456
f 456 481 457
f 457 481 465
f 457 465 463
f 463 465 464
f 465 474 467
f 465 467 466
f 465 475 474
f 468 473 482
f 469 477 471
f 469 471 470
f 471 477 483
f 471 483 480
f 471 480 479
f 471 479 472
f 472 479 484
f 472 484 473
f 473 484 485
f 473 485 482
f 476 480 483
f 476 483 477
f 478 486 479
f 479 486 487
f 479 487 488
f 479 488 484
f 482 485 489
f 484 488 490
f 484 490 489
f 484 489 485
f 487 490 488

