# https://github.com/mikedh/trimesh
v 0.28091749 1.01347767 14.25414188
v 0.28091749 1.07479425 14.23889544
v 0.26036121 1.11681513 14.23790107
v 0.27725648 1.01347767 14.25570435
v 0.28091749 1.01347767 13.84442935
v 0.28091749 1.09030571 14.23501275
v 0.20890229 1.21483100 14.23539155
v 0.24751354 1.12345727 14.24168900
v 0.27457323 1.01347767 14.25684076
v 0.28091749 1.10000284 14.23255059
v 0.28091749 1.12396971 14.22634789
v 0.26220309 1.21483100 14.21110145
v 0.25071976 1.21483100 14.21640459
v 0.21047131 1.21483100 14.23468130
v 0.04861331 1.01347767 14.00172335
v 0.04861331 1.12302366 14.03723525
v 0.04861331 1.21483100 14.06843837
v 0.28091749 1.21483100 13.92776398
v 0.20003398 1.21483100 14.23899013
v 0.20137558 1.14584738 14.25546765
v 0.20881132 1.12625603 14.25712487
v 0.26472715 1.01347767 14.26077072
v 0.26727394 1.21483100 14.20863928
v 0.28091749 1.21483100 14.20163157
v 0.04861331 1.01347767 14.32810125
v 0.04861331 1.21483100 14.28259872
v 0.18141054 1.21483100 14.24632923
v 0.19396261 1.13928409 14.26001318
v 0.24605823 1.01347767 14.26801520
v 0.07112517 1.01347767 14.32346109
v 0.08999873 1.05543942 14.31048739
v 0.06771428 1.05543942 14.31498552
v 0.06468995 1.21483100 14.27966307
v 0.04890891 1.21483100 14.28255138
v 0.17909113 1.21483100 14.24718151
v 0.18911915 1.15412541 14.25821387
v 0.17909113 1.12225499 14.26948300
v 0.16485636 1.10000284 14.27985243
v 0.22290967 1.01347767 14.27634861
v 0.08999873 1.01347767 14.31948372
v 0.11228322 1.01347767 14.31384919
v 0.13456767 1.10000284 14.28965377
v 0.11228322 1.10000284 14.29524096
v 0.08999873 1.21483100 14.27445461
v 0.07044300 1.21483100 14.27847932
v 0.15953536 1.21483100 14.25381042
v 0.14909807 1.11484418 14.28198321
v 0.15373686 1.10000284 14.28364037
v 0.13763748 1.01347767 14.30622597
v 0.15400973 1.01347767 14.30063878
v 0.13536355 1.01347767 14.30693616
v 0.11228322 1.21483100 14.26877274
v 0.15637462 1.21483100 14.25485207
v 0.15121281 1.21483100 14.25650930
v 0.13454493 1.21483100 14.26185978
f 1 2 3
f 1 3 4
f 1 4 9
f 1 9 22
f 1 22 29
f 1 29 39
f 1 39 50
f 1 50 49
f 1 49 51
f 1 51 41
f 1 41 40
f 1 40 30
f 1 30 25
f 1 25 15
f 1 15 5
f 1 5 18
f 1 18 24
f 1 24 11
f 1 11 10
f 1 10 6
f 1 6 2
f 2 6 3
f 3 7 8
f 3 8 9
f 3 9 4
f 3 6 10
f 3 10 11
f 3 11 12
f 3 12 13
f 3 13 14
f 3 14 7
f 5 15 16
f 5 16 17
f 5 17 18
f 7 14 13
f 7 13 12
f 7 12 23
f 7 23 24
f 7 24 18
f 7 18 17
f 7 17 26
f 7 26 34
f 7 34 33
f 7 33 45
f 7 45 44
f 7 44 52
f 7 52 55
f 7 55 54
f 7 54 53
f 7 53 46
f 7 46 35
f 7 35 27
f 7 27 19
f 7 19 20
f 7 20 8
f 8 20 21
f 8 21 9
f 9 21 22
f 11 23 12
f 11 24 23
f 15 25 26
f 15 26 17
f 15 17 16
f 19 27 28
f 19 28 20
f 20 28 21
f 21 28 22
f 22 28 29
f 25 30 31
f 25 31 32
f 25 32 33
f 25 33 34
f 25 34 26
f 27 35 36
f 27 36 28
f 28 36 37
f 28 37 29
f 29 37 38
f 29 38 39
f 30 40 31
f 31 40 41
f 31 41 42
f 31 42 43
f 31 43 44
f 31 44 45
f 31 45 33
f 31 33 32
f 35 46 47
f 35 47 37
f 35 37 36
f 37 47 38
f 38 47 48
f 38 48 49
f 38 49 50
f 38 50 39
f 41 51 42
f 42 51 49
f 42 49 48
f 42 48 47
f 42 47 52
f 42 52 44
f 42 44 43
f 46 53 47
f 47 54 55
f 47 55 52
f 47 53 54

