# https://github.com/mikedh/trimesh
v 0.64936312 1.14857107 12.73790439
v 0.61771080 1.25511044 12.73225127
v 0.62017583 1.25532279 12.73790439
v 0.39200073 1.14857107 12.73790439
v 0.62649917 1.14857107 12.68788986
v 0.62185490 1.16683277 12.68788986
v 0.61667480 1.18706347 12.68836102
v 0.61424549 1.24715715 12.71992429
v 0.61192343 1.26198271 12.72467453
v 0.61596029 1.26823724 12.73790439
v 0.38699924 1.14857107 12.73052393
v 0.39668073 1.34578184 12.73790439
v 0.28439724 1.34578184 12.62916012
v 0.28439724 1.34504829 12.62900309
v 0.61363822 1.17828010 12.67658361
v 0.61681769 1.14857107 12.66739725
v 0.61142325 1.19312496 12.68121606
v 0.60638603 1.18706347 12.66775062
v 0.59202462 1.31367911 12.71996356
v 0.59795495 1.32186405 12.73790439
v 0.38571311 1.14857107 12.72852176
v 0.28439724 1.32277134 12.62283963
v 0.28439724 1.29983806 12.61628356
v 0.58909514 1.34578184 12.73790439
v 0.28439724 1.34578184 12.42348816
v 0.61195915 1.14857107 12.65770056
v 0.60949406 1.16683277 12.66256859
v 0.59502547 1.18910971 12.64812166
v 0.56330179 1.34578184 12.68871432
v 0.56901772 1.34578184 12.69915689
v 0.57398349 1.34578184 12.70869656
v 0.59373941 1.33325348 12.73790439
v 0.59252473 1.20339474 12.65240081
v 0.37563868 1.14857107 12.71262237
v 0.28439724 1.29479969 12.61459546
v 0.37424545 1.14857107 12.71038463
v 0.29014897 1.34578184 12.41504772
v 0.28439724 1.34576254 12.41155372
v 0.60470696 1.14857107 12.64435291
v 0.59774062 1.16764353 12.64172262
v 0.59063132 1.17559682 12.63320369
v 0.58827346 1.18910971 12.63701168
v 0.55169117 1.34578184 12.66861426
v 0.28439724 1.27821746 12.60902082
v 0.28439724 1.14857107 12.56140106
v 0.33123265 1.34578184 12.43974092
v 0.30258126 1.31298416 12.40888419
v 0.28439724 1.33740386 12.40809904
v 0.59352508 1.14857107 12.62456691
v 0.58830919 1.14857107 12.61538062
v 0.58613000 1.14857107 12.61200441
v 0.57101836 1.18331848 12.60709720
v 0.57673436 1.19009421 12.61958122
v 0.54468911 1.34578184 12.65750429
v 0.28439724 1.14857107 12.33688529
v 0.33344755 1.34578184 12.44111490
v 0.33984234 1.32277134 12.43546177
v 0.31276286 1.25698294 12.39204261
v 0.30029484 1.26510997 12.38792049
v 0.28439724 1.33458546 12.40696058
v 0.57680580 1.14857107 12.59802864
v 0.56923212 1.14857107 12.58735051
v 0.54154530 1.14857107 12.54942738
v 0.54797574 1.20322100 12.58597648
v 0.50721363 1.34578184 12.60328915
v 0.52182510 1.32674799 12.61361403
v 0.52932734 1.32070580 12.62103374
v 0.52704099 1.34045390 12.62845345
v 0.53239971 1.34578184 12.63936715
v 0.28439724 1.15970955 12.33994736
v 0.28843418 1.14857107 12.33896593
v 0.34934515 1.34578184 12.45120420
v 0.34445082 1.30873726 12.43279224
v 0.32512364 1.22447483 12.38638942
v 0.30265270 1.20200485 12.36416947
v 0.28439724 1.27812094 12.38454436
v 0.53925888 1.14857107 12.54644379
v 0.49871110 1.34578184 12.59217917
v 0.51246518 1.34578184 12.61066968
v 0.51957447 1.34578184 12.62068044
v 0.51982453 1.34578184 12.62103374
v 0.52064620 1.34578184 12.62221151
v 0.28439724 1.16173648 12.34057549
v 0.29811560 1.14857107 12.34489388
v 0.34966672 1.34578184 12.45143978
v 0.34988105 1.34504829 12.45128268
v 0.36145594 1.23368289 12.41430180
v 0.34680868 1.24574796 12.40904122
v 0.35030971 1.23368289 12.40672500
v 0.36592154 1.21671458 12.41123966
v 0.28439724 1.16374411 12.34120361
v 0.28439724 1.17364711 12.34457982
v 0.28439724 1.18910971 12.35027225
v 0.29004180 1.21022840 12.36095037
v 0.28439724 1.22196530 12.36275626
v 0.52957746 1.14857107 12.53392053
v 0.49828237 1.34578184 12.59166884
v 0.52246816 1.14857107 12.52516603
v 0.36463541 1.14857107 12.38972639
v 0.36088432 1.34578184 12.45991946
v 0.36577865 1.32856258 12.45615072
v 0.35795491 1.32178684 12.44759248
v 0.37206620 1.25101798 12.42898425
v 0.37956844 1.23173317 12.42658954
v 0.39103617 1.22300771 12.43153599
v 0.36913679 1.20186972 12.40896274
v 0.52157504 1.14857107 12.52410605
v 0.48752922 1.34578184 12.57894931
v 0.37874677 1.14857107 12.39961935
v 0.38646334 1.34578184 12.47935209
v 0.39450148 1.31808044 12.47342415
v 0.41922310 1.21140595 12.44916279
v 0.43401325 1.19667692 12.45512998
v 0.40471880 1.21140595 12.43801358
v 0.39357264 1.21140595 12.42980865
v 0.39153628 1.14857107 12.40884495
v 0.41693676 1.27443386 12.47299230
v 0.38406976 1.14857107 12.40342741
v 0.52046759 1.14857107 12.52292835
v 0.45709153 1.19876176 12.47680035
v 0.47966969 1.28891194 12.54326392
v 0.47766912 1.34578184 12.56780010
v 0.40203944 1.34578184 12.49187535
v 0.41025619 1.30049440 12.47876321
v 0.45398350 1.14857107 12.45709290
v 0.45198287 1.14857107 12.45540480
v 0.43665689 1.18183206 12.45289230
v 0.42561789 1.18920623 12.44661105
v 0.44298023 1.21140595 12.46934134
v 0.41147081 1.34578184 12.49988394
v 0.42343864 1.34578184 12.51079764
v 0.42665390 1.34578184 12.51378123
v 0.50764236 1.14857107 12.50954139
v 0.43472776 1.34578184 12.52139728
v 0.44555242 1.34578184 12.53282131
v 0.46491533 1.34578184 12.55374577
v 0.48513564 1.14857107 12.48696814
v 0.46752324 1.14857107 12.46977319
f 1 2 3
f 1 3 10
f 1 10 20
f 1 20 32
f 1 32 24
f 1 24 12
f 1 12 4
f 1 4 11
f 1 11 21
f 1 21 34
f 1 34 36
f 1 36 45
f 1 45 55
f 1 55 71
f 1 71 84
f 1 84 99
f 1 99 109
f 1 109 118
f 1 118 116
f 1 116 126
f 1 126 125
f 1 125 138
f 1 138 137
f 1 137 133
f 1 133 119
f 1 119 107
f 1 107 98
f 1 98 96
f 1 96 77
f 1 77 63
f 1 63 62
f 1 62 61
f 1 61 51
f 1 51 50
f 1 50 49
f 1 49 39
f 1 39 26
f 1 26 16
f 1 16 5
f 1 5 6
f 1 6 7
f 1 7 2
f 2 8 9
f 2 9 10
f 2 10 3
f 2 7 8
f 4 12 13
f 4 13 14
f 4 14 11
f 5 15 6
f 5 16 15
f 6 15 7
f 7 15 8
f 8 15 17
f 8 17 18
f 8 18 9
f 9 19 20
f 9 20 10
f 9 18 19
f 11 14 22
f 11 22 23
f 11 23 21
f 12 24 31
f 12 31 30
f 12 30 29
f 12 29 43
f 12 43 54
f 12 54 69
f 12 69 82
f 12 82 81
f 12 81 80
f 12 80 79
f 12 79 65
f 12 65 78
f 12 78 97
f 12 97 108
f 12 108 122
f 12 122 136
f 12 136 135
f 12 135 134
f 12 134 132
f 12 132 131
f 12 131 130
f 12 130 123
f 12 123 110
f 12 110 100
f 12 100 85
f 12 85 72
f 12 72 56
f 12 56 46
f 12 46 37
f 12 37 25
f 12 25 13
f 13 25 38
f 13 38 48
f 13 48 60
f 13 60 76
f 13 76 95
f 13 95 93
f 13 93 92
f 13 92 91
f 13 91 83
f 13 83 70
f 13 70 55
f 13 55 45
f 13 45 44
f 13 44 35
f 13 35 23
f 13 23 22
f 13 22 14
f 15 16 26
f 15 26 27
f 15 27 18
f 15 18 17
f 18 27 28
f 18 28 19
f 19 29 30
f 19 30 31
f 19 31 24
f 19 24 32
f 19 32 20
f 19 28 33
f 19 33 29
f 21 23 34
f 23 35 36
f 23 36 34
f 25 37 38
f 26 39 27
f 27 39 40
f 27 40 28
f 28 40 41
f 28 41 42
f 28 42 43
f 28 43 33
f 29 33 43
f 35 44 36
f 36 44 45
f 37 46 38
f 38 46 47
f 38 47 48
f 39 49 40
f 40 49 41
f 41 49 50
f 41 50 51
f 41 51 52
f 41 52 53
f 41 53 42
f 42 53 54
f 42 54 43
f 46 56 57
f 46 57 47
f 47 58 59
f 47 59 48
f 47 57 58
f 48 59 60
f 51 61 52
f 52 61 62
f 52 62 63
f 52 63 64
f 52 64 65
f 52 65 66
f 52 66 67
f 52 67 68
f 52 68 54
f 52 54 53
f 54 68 69
f 55 70 71
f 56 72 57
f 57 72 73
f 57 73 74
f 57 74 58
f 58 74 75
f 58 75 59
f 59 76 60
f 59 75 76
f 63 77 78
f 63 78 65
f 63 65 64
f 65 79 66
f 66 79 80
f 66 80 81
f 66 81 67
f 67 81 68
f 68 81 82
f 68 82 69
f 70 83 75
f 70 75 71
f 71 75 84
f 72 85 86
f 72 86 87
f 72 87 73
f 73 87 88
f 73 88 74
f 74 88 89
f 74 89 90
f 74 90 75
f 75 83 91
f 75 91 92
f 75 92 93
f 75 93 94
f 75 94 76
f 75 90 84
f 76 94 95
f 77 96 78
f 78 96 98
f 78 98 97
f 84 90 99
f 85 100 86
f 86 100 101
f 86 101 102
f 86 102 87
f 87 102 103
f 87 103 104
f 87 104 105
f 87 105 90
f 87 90 89
f 87 89 88
f 90 105 106
f 90 106 99
f 93 95 94
f 97 98 107
f 97 107 108
f 99 106 109
f 100 110 101
f 101 105 104
f 101 104 102
f 101 110 111
f 101 111 105
f 102 104 103
f 105 112 113
f 105 113 114
f 105 114 115
f 105 115 116
f 105 116 106
f 105 111 117
f 105 117 112
f 106 116 118
f 106 118 109
f 107 119 120
f 107 120 121
f 107 121 122
f 107 122 108
f 110 123 111
f 111 123 124
f 111 124 117
f 112 117 113
f 113 125 126
f 113 126 127
f 113 127 116
f 113 116 128
f 113 128 114
f 113 117 129
f 113 129 120
f 113 120 125
f 114 128 116
f 114 116 115
f 116 127 126
f 117 124 130
f 117 130 131
f 117 131 132
f 117 132 120
f 117 120 129
f 119 133 120
f 120 132 134
f 120 134 135
f 120 135 136
f 120 136 121
f 120 133 137
f 120 137 138
f 120 138 125
f 121 136 122
f 123 130 124

