# https://github.com/mikedh/trimesh
v -1.00614205 1.16823344 13.64227320
v -1.00903727 1.27762144 13.64227320
v -1.25336168 1.16823344 13.64227320
v -1.10895453 1.16823344 13.30544101
v -1.10371095 1.44086282 13.30544101
v -1.01077444 1.32277502 13.64227320
v -1.22804460 1.42922750 13.64227320
v -1.23640855 1.44086282 13.61477534
v -1.27858229 1.18912898 13.56258219
v -1.25696463 1.16823344 13.63172246
v -1.33478173 1.16823344 13.30544101
v -1.29752988 1.44086282 13.30544101
v -1.01752990 1.44086282 13.64227320
v -1.01717607 1.43501847 13.64227320
v -1.01186815 1.34505825 13.64227320
v -1.01125695 1.33465051 13.64227320
v -1.22756209 1.43416451 13.64227320
v -1.22685435 1.44086282 13.64227320
v -1.25847658 1.44086282 13.54715173
v -1.27816411 1.21362719 13.55631767
v -1.28186354 1.18912898 13.55143795
v -1.28260341 1.16823344 13.55499884
v -1.27941870 1.16823344 13.56545065
v -1.29695089 1.44086282 13.31843161
v -1.29740120 1.44086282 13.31177146
v -1.29749774 1.44086282 13.30735334
v -1.33133966 1.16823344 13.33541169
v -1.29067787 1.44086282 13.40085921
v -1.29209334 1.44086282 13.38526391
v -1.29260799 1.44086282 13.37860375
v -1.26127532 1.44086282 13.53805172
v -1.26233689 1.44086282 13.53452383
v -1.28099499 1.20767611 13.54856949
v -1.30351333 1.16823344 13.48206690
v -1.32866959 1.16823344 13.35631533
v -1.32445545 1.19758860 13.36393164
v -1.28980932 1.44086282 13.40755234
v -1.26671186 1.44086282 13.51892851
v -1.30718062 1.16823344 13.46891145
v -1.32850878 1.16823344 13.35753526
v -1.32522752 1.18275091 13.37013020
v -1.32329733 1.18974276 13.37797730
v -1.28755750 1.44086282 13.42314764
v -1.26851337 1.44086282 13.51223539
v -1.30747018 1.16823344 13.46779044
v -1.32587092 1.16823344 13.37388890
v -1.32577438 1.16823344 13.37448237
v -1.32365124 1.16823344 13.38638492
v -1.31692791 1.21141221 13.40085921
v -1.28369719 1.44086282 13.44579875
v -1.28639938 1.44086282 13.43003859
v -1.27240581 1.44086282 13.49664009
v -1.28099499 1.44086282 13.45997629
v -1.31216684 1.16823344 13.44543607
v -1.31895451 1.18912898 13.40085921
v -1.28276430 1.44086282 13.45100817
f 1 2 6
f 1 6 16
f 1 16 15
f 1 15 14
f 1 14 13
f 1 13 18
f 1 18 17
f 1 17 7
f 1 7 3
f 1 3 10
f 1 10 23
f 1 23 22
f 1 22 34
f 1 34 39
f 1 39 45
f 1 45 54
f 1 54 48
f 1 48 47
f 1 47 46
f 1 46 40
f 1 40 35
f 1 35 27
f 1 27 11
f 1 11 4
f 1 4 5
f 1 5 2
f 2 5 6
f 3 7 8
f 3 8 9
f 3 9 10
f 4 11 12
f 4 12 5
f 5 12 26
f 5 26 25
f 5 25 24
f 5 24 30
f 5 30 29
f 5 29 28
f 5 28 37
f 5 37 43
f 5 43 51
f 5 51 50
f 5 50 56
f 5 56 53
f 5 53 52
f 5 52 44
f 5 44 38
f 5 38 32
f 5 32 31
f 5 31 19
f 5 19 8
f 5 8 18
f 5 18 13
f 5 13 14
f 5 14 15
f 5 15 16
f 5 16 6
f 7 17 8
f 8 17 18
f 8 19 9
f 9 19 20
f 9 20 21
f 9 21 22
f 9 22 23
f 9 23 10
f 11 24 25
f 11 25 26
f 11 26 12
f 11 27 28
f 11 28 29
f 11 29 30
f 11 30 24
f 19 31 20
f 20 31 32
f 20 32 33
f 20 33 21
f 21 33 34
f 21 34 22
f 27 35 36
f 27 36 28
f 28 36 37
f 32 38 34
f 32 34 33
f 34 38 39
f 35 40 36
f 36 40 41
f 36 41 42
f 36 42 43
f 36 43 37
f 38 44 39
f 39 44 45
f 40 46 41
f 41 46 47
f 41 47 42
f 42 48 49
f 42 49 50
f 42 50 51
f 42 51 43
f 42 47 48
f 44 52 45
f 45 53 54
f 45 52 53
f 48 54 55
f 48 55 49
f 49 55 54
f 49 54 53
f 49 53 56
f 49 56 50

