# https://github.com/mikedh/trimesh
v -9.64668385 -0.54710480 94.60247160
v -9.62675668 0.00124224 94.60247160
v -9.56059895 0.00124224 93.50708740
v -9.57972920 -0.54710480 93.50708740
v -9.64269842 -1.64086684 94.60247160
v -9.64668385 -0.54710480 107.72378058
v -9.62675668 0.00124224 107.72378058
v -7.09921375 0.00124224 70.29037341
v -9.57175833 -1.64086684 93.50708740
v -7.09921375 -0.54710480 70.29037341
v -9.35893808 -2.73379101 94.60247160
v -9.64269842 -1.64086684 107.72378058
v -9.61240879 -1.64086684 108.81916479
v -9.61001802 -0.54710480 108.81916479
v -9.59088858 0.00124224 108.81916479
v -5.06267213 0.00124224 70.29037341
v -9.28241790 -2.73379101 93.50708740
v -6.93182712 -1.64086684 70.29037341
v -8.88467462 -3.56364268 93.50708740
v -8.92293430 -3.64323485 94.60247160
v -9.35893808 -2.73379101 107.72378058
v -9.34538711 -2.73379101 108.81916479
v -9.04090186 -2.73379101 109.61933837
v -9.16524726 -1.64086684 109.66595435
v -9.16126182 -0.54710480 109.66595435
v -9.15169711 0.00124224 109.66595435
v -2.71686371 -4.27787640 70.29037341
v -4.53819308 0.00124224 85.88989263
v -1.50370669 -4.27787640 86.57742126
v -6.73415087 -2.27467073 70.29037341
v -6.67357242 -2.46820510 70.29037341
v -6.49662067 -2.88711046 70.29037341
v -6.44241925 -3.01487660 70.29037341
v -8.62243530 -4.11031418 93.50708740
v -8.66069498 -4.18990635 94.60247160
v -8.92293430 -3.64323485 108.81916479
v -8.86474744 -3.52259009 109.50280821
v -8.14976650 -4.27787640 109.66206914
v -8.20237326 -2.73379101 109.91843420
v -8.20237326 -1.64086684 109.96504366
v -8.20237326 0.00124224 109.94950935
v -5.69874293 -4.27787640 70.29037341
v -4.62666916 0.00124224 86.90758897
v -1.50370669 -4.27787640 86.60461120
v -5.99047414 -3.82755325 70.29037341
v -8.54192968 -4.27787640 93.50708740
v -8.61844986 -4.27787640 94.60247160
v -8.66069498 -4.18990635 107.72378058
v -8.61844986 -4.27787640 107.72378058
v -8.61685520 -4.27787640 107.85584506
v -8.60489971 -4.27787640 108.81916479
v -8.56584229 -4.27787640 108.91627217
v -7.10877846 -4.27787640 109.88347385
v -7.79028290 0.00124224 109.80190404
v -6.10923944 -4.27787640 109.63099400
v -7.07689580 0.00124224 108.81916479
v -5.58555732 -4.27787640 108.81916479
v -7.37022167 0.00124224 109.65041352
v -5.65171505 -4.27787640 108.97065205
v -7.21797905 0.00124224 109.23478752
f 1 2 3
f 1 3 4
f 1 4 5
f 1 5 12
f 1 12 6
f 1 6 7
f 1 7 2
f 2 7 15
f 2 15 26
f 2 26 41
f 2 41 54
f 2 54 58
f 2 58 60
f 2 60 56
f 2 56 43
f 2 43 28
f 2 28 16
f 2 16 8
f 2 8 3
f 3 8 4
f 4 9 5
f 4 8 10
f 4 10 9
f 5 9 11
f 5 11 21
f 5 21 12
f 6 12 13
f 6 13 14
f 6 14 15
f 6 15 7
f 8 16 27
f 8 27 42
f 8 42 45
f 8 45 33
f 8 33 32
f 8 32 31
f 8 31 30
f 8 30 18
f 8 18 10
f 9 17 11
f 9 10 18
f 9 18 17
f 11 17 19
f 11 19 20
f 11 20 36
f 11 36 21
f 12 21 22
f 12 22 13
f 13 22 23
f 13 23 24
f 13 24 14
f 14 24 25
f 14 25 26
f 14 26 15
f 16 28 29
f 16 29 27
f 17 18 30
f 17 30 31
f 17 31 32
f 17 32 33
f 17 33 19
f 19 34 35
f 19 35 20
f 19 33 34
f 20 35 48
f 20 48 36
f 21 36 22
f 22 36 37
f 22 37 23
f 23 37 38
f 23 38 39
f 23 39 24
f 24 39 40
f 24 40 25
f 25 40 26
f 26 40 41
f 27 29 44
f 27 44 57
f 27 57 59
f 27 59 55
f 27 55 53
f 27 53 38
f 27 38 52
f 27 52 51
f 27 51 50
f 27 50 49
f 27 49 47
f 27 47 46
f 27 46 42
f 28 43 44
f 28 44 29
f 33 45 46
f 33 46 34
f 34 46 47
f 34 47 35
f 35 47 49
f 35 49 48
f 36 48 49
f 36 49 50
f 36 50 51
f 36 51 37
f 37 51 52
f 37 52 38
f 38 53 39
f 39 53 40
f 40 53 41
f 41 53 55
f 41 55 54
f 42 46 45
f 43 56 44
f 44 56 57
f 54 55 58
f 55 59 58
f 56 60 57
f 57 60 58
f 57 58 59

