# https://github.com/mikedh/trimesh
v 29.59622718 -0.47678543 6.03161595
v 29.03654536 -0.47678543 6.32862902
v 5.64882355 -0.47678543 6.03161595
v 29.59042870 0.04432625 6.03161595
v 29.00174798 -0.47678543 6.34522916
v 29.58462696 0.54777359 6.03161595
v 29.02784602 0.54777359 6.32484486
v 7.02917733 -0.47678543 9.00641412
v -0.02918795 7.02192027 9.00641412
v -0.02918795 5.64995456 6.03161595
v 27.88818283 -0.47678543 6.87315461
v 28.48266202 0.54777359 6.58458666
v 27.88818283 0.54777359 6.86674989
v 29.55273045 1.64298993 6.03161595
v 29.01334493 1.64298993 6.31756335
v 14.26153768 -0.47678543 9.00641412
v -0.02918795 14.23210201 9.00641412
v -0.02918795 29.59752768 6.03161595
v 26.79492049 -0.47678543 7.30994065
v 26.79492049 0.54777359 7.30557305
v 27.88818283 1.64298993 6.85219014
v 26.79492049 1.64298993 7.29363386
v 29.51792981 2.19648703 6.03161595
v 29.48023155 2.72348682 6.03161595
v 28.87995062 2.70876654 6.34493581
v 28.45076551 2.32602873 6.56973682
v 19.13917514 -0.47678543 8.95924079
v 14.26153768 0.54777359 9.00641412
v 0.54789256 14.23210201 9.00641412
v -0.02918795 19.13702557 8.95924079
v -0.02918795 29.57397524 6.04530218
v 0.55079342 29.60047418 6.03161595
v 25.95684820 -0.47678543 7.57142949
v 25.95104810 0.54777359 7.56997254
v 25.93654865 1.64298993 7.56531485
v 27.98098128 2.70876654 6.77065618
v 26.79492049 2.73526304 7.26073019
v 25.88725018 2.73526304 7.55250214
v 29.35843419 3.83048101 6.03161595
v 28.98144842 3.83048101 6.23049818
v 28.40726552 3.05617405 6.54964260
v 20.07584436 -0.47678543 8.85441188
v 19.13917514 1.64298993 8.95924079
v 14.25573757 1.13365530 9.00641412
v 1.10467513 14.22915714 9.00641412
v 1.64115652 19.13702557 8.95924079
v -0.02918795 19.58159017 8.90974024
v -0.02918795 29.30311887 6.18914940
v -0.02918795 29.03814247 6.32979589
v 0.54789256 29.03814247 6.32979589
v 1.12787393 29.57103199 6.03161595
v 25.92204919 -0.47678543 7.58162164
v 25.40586737 0.54777359 7.72837951
v 25.38846704 1.64298993 7.72372182
v 27.80698785 3.83048101 6.78230528
v 26.79492049 3.83048101 7.20394813
v 25.81185205 3.83048101 7.53037080
v 25.34206782 2.73526304 7.71003559
v 29.21053880 4.92275412 6.03161595
v 28.98144842 4.92275412 6.15391526
v 28.27677208 4.92275412 6.48790951
v 28.35506945 3.83048101 6.52489070
v 23.51222937 -0.47678543 8.20389377
v 20.07584436 0.54777359 8.85441188
v 19.13917514 2.73526304 8.95836727
v 13.55976057 4.81087675 9.00641412
v 4.81365132 13.56083944 9.00641412
v 2.73442048 19.13702557 8.95603679
v 1.64115652 20.04970721 8.85441188
v 0.54789256 20.07326129 8.85441188
v 5.70972141 13.36652689 9.00641412
v 6.01711079 18.04475409 8.95924079
v -0.02918795 20.07031642 8.85441188
v -0.02918795 28.49053674 6.58924434
v 2.19213817 29.51215088 6.03161595
v 0.54789256 28.49053674 6.58924434
v 1.64115652 28.46109456 6.57439450
v 2.69382136 28.87621534 6.34813981
v 1.64115652 29.00575704 6.31494279
v 25.40876660 -0.47678543 7.72983646
v 24.60549333 1.64298993 7.94910300
v 24.60549333 0.54777359 7.95871172
v 24.65769103 -0.47678543 7.94648244
v 27.72869047 4.92275412 6.74532410
v 26.79492049 4.92275412 7.14308857
v 25.62045992 4.96985982 7.53328470
v 24.60549333 2.73526304 7.92144045
v 25.19997416 4.63717340 7.66927024
v 24.60549333 3.83048101 7.87630424
v 29.01914667 6.01797128 6.03161595
v 28.98144842 6.01797128 6.05200026
v 28.17237341 6.01797128 6.44044609
v 23.58182739 -0.47678543 8.18846050
v 23.51222937 0.54777359 8.20273016
v 20.00624634 2.73526304 8.85324827
v 19.13917514 3.83048101 8.93565575
v 18.04301031 7.11024438 8.94177039
v 18.04301031 6.01797128 8.95924079
v 13.37126687 5.71766947 9.00641412
v 3.83058368 19.13702557 8.93390871
v 2.73442048 20.00848881 8.85091780
v 7.11037476 18.04475409 8.94293399
v 0.54789256 23.51200773 8.20476729
v -0.02918795 23.51200773 8.20476729
v 7.90204863 12.27719702 9.00641412
v 9.29690187 16.94953612 8.94497438
v 10.39016583 15.85726301 8.95924079
v -0.02918795 27.88698989 6.87519500
v 2.71702097 29.47976546 6.03161595
v 0.54789256 27.88698989 6.87519500
v 1.64115652 27.88698989 6.84607550
v 3.03311051 28.41987615 6.55517707
v 3.83058368 28.98220460 6.23923338
v 23.51222937 2.73526304 8.17273714
v 23.51222937 1.64298993 8.19457514
v 24.60549333 -0.47678543 7.96104219
v 27.62429181 6.01797128 6.69465668
v 26.79492049 6.01797128 7.05718701
v 25.69875729 6.01797128 7.44330563
v 25.13327537 5.36731790 7.65034289
v 24.70408863 4.96985982 7.79302650
v 23.51222937 4.92275412 8.09761117
v 23.51222937 3.83048101 8.13925003
v 23.51222937 6.01797128 8.04228280
v 28.98144842 6.17401029 6.03161595
v 28.73785370 7.11024438 6.03161595
v 27.80698785 8.20840641 6.34930341
v 28.03317736 7.11024438 6.37813283
v 19.93084820 3.83048101 8.83053675
v 18.90138216 7.11024438 8.83665139
v 17.88351633 9.29773465 8.84247268
v 16.94974798 9.29773465 8.94730159
v 16.94974798 8.20546154 8.95924079
v 15.85648402 10.39000856 8.95924079
v 12.25480330 7.88160729 9.00641412
v 7.11037476 18.90443948 8.83810509
v 4.92384765 19.13702557 8.89197649
v 3.83058368 19.92899849 8.82907980
v 3.83058368 23.51200773 8.13895995
v 2.73442048 23.51200773 8.17273714
v 1.64115652 23.51200773 8.19253801
v 9.29690187 17.88577021 8.84014547
v 0.54789256 24.60722570 7.96249915
v -0.02918795 24.60722570 7.96249915
v 9.16060668 11.34685104 9.00641412
v 10.44526440 17.01725021 8.86402060
v 11.48632903 15.85726301 8.92254969
v 12.57959300 13.67271680 8.95924079
v 13.67285696 13.67271680 8.94584790
v 12.57959300 14.76204504 8.93681936
v 10.26547005 10.26341092 9.00641412
v -0.02918795 26.79471515 7.31168769
v 3.83058368 29.37377620 6.03161595
v 0.54789256 26.79471515 7.31168769
v 1.64115652 26.79471515 7.28839274
v 2.73442048 26.79471515 7.26043684
v 2.69382136 27.98708940 6.76803562
v 3.83058368 27.81632929 6.78550602
v 3.83058368 28.36393828 6.52955164
v 4.92384765 28.98220460 6.14867414
v 4.92384765 29.20301610 6.03161595
v 4.92384765 28.26972525 6.48528895
v 6.01711079 28.17256897 6.44073944
v 27.48799662 7.11024438 6.62942952
v 26.79492049 7.11024438 6.94216595
v 25.69875729 8.20546154 7.24529692
v 25.69875729 7.11024438 7.35303647
v 24.90998184 7.11024438 7.58715285
v 25.05207876 6.01797128 7.62733803
v 24.50689640 6.01797128 7.78079396
v 22.41896540 7.11024438 8.20418386
v 23.51222937 7.11024438 7.97356156
v 28.13177429 9.29773465 6.03161595
v 27.88818283 9.29773465 6.15653582
v 27.29370363 8.57642231 6.54090740
v 22.41896540 8.20546154 8.13109501
v 21.32570144 9.29773465 8.24698959
v 21.32570144 10.39000856 8.16370859
v 17.67182301 10.11914813 8.80345438
v 17.01644514 10.44594725 8.86577090
v 15.85648402 11.48522572 8.92342647
v 14.76612092 12.57749883 8.93769288
v 11.34423374 9.15936078 9.00641412
v 14.76612092 11.48522572 8.95924079
v 7.99774551 18.73956911 8.79762982
v 10.39016583 21.32451665 8.16458211
v 8.20363791 22.41973462 8.13167844
v 7.11037476 22.41973462 8.20302025
v 6.01711079 22.41973462 8.25514462
v 4.92384765 23.51200773 8.09819134
v 2.73442048 24.60722570 7.92056693
v 1.64115652 24.60722570 7.94560892
v 10.11757465 17.66790521 8.80025038
v 12.57959300 20.23224354 8.14507459
v 0.54789256 25.41097322 7.73070998
v -0.02918795 25.41097322 7.73070998
v 11.48632903 16.68456461 8.81743069
v 13.66415680 14.77087802 8.84655020
v 12.52449442 15.83665381 8.82791619
v 14.77771951 13.66977193 8.84713363
v -0.02918795 25.95858221 7.57230301
v 0.54789256 25.95858221 7.57230301
v 1.64115652 25.92914165 7.56327447
v 2.73442048 25.88792325 7.55191871
v 3.83058368 25.81431941 7.53182775
v 3.83058368 26.79471515 7.20860582
v 4.92384765 27.72211626 6.74124659
v 4.92384765 26.79471515 7.13726401
v 6.01711079 26.79471515 7.05718701
v 6.01711079 28.98220460 6.05083339
v 6.01711079 29.01753653 6.03161595
v 6.01711079 27.62495998 6.69436334
v 7.11037476 28.04008403 6.38279052
v 26.87321786 8.20840641 6.77560721
v 24.73888927 8.20546154 7.54201990
v 25.69875729 9.29773465 7.10698090
v 24.60549333 10.39000856 7.33964033
v 24.50979564 9.22413244 7.50154464
v 24.36190024 7.11024438 7.74031870
v 24.19370691 8.20546154 7.69285528
v 23.51222937 8.20546154 7.87921815
v 22.41896540 9.29773465 8.04344967
v 27.88818283 9.97783020 6.03161595
v 26.70792378 11.43517597 6.32280447
v 26.95731371 10.39000856 6.39239924
v 27.16610779 9.29773465 6.48499887
v 26.62092706 9.29773465 6.72901731
v 21.32570144 11.48522572 8.05422200
v 20.23243911 12.57749883 8.14449115
v 16.68585696 11.48522572 8.81830421
v 15.84198456 12.53039313 8.82936989
v 11.48632903 21.32451665 8.05538560
v 9.29690187 22.41973462 8.04228280
v 7.11037476 23.51200773 7.97065091
v 6.01711079 23.51200773 8.04461328
v 3.83058368 24.60722570 7.87688767
v 1.64115652 25.38153266 7.72168470
v 13.67285696 19.13702557 8.19952617
v 14.76612092 19.13702557 8.06819832
v 13.67285696 20.23224354 8.00704866
v 12.57959300 21.32451665 7.91765302
v -0.02918795 25.67005662 7.65587410
v 14.42103166 14.41463834 8.80141725
v 15.85648402 18.04475409 8.10343246
v 14.76612092 18.04475409 8.23767096
v 18.04301031 14.76204504 8.23650735
v 18.04301031 15.85726301 8.10226885
v 5.36173292 25.13422549 7.65004954
v 4.96734600 25.61706362 7.53153766
v 6.01711079 25.69949718 7.44446924
v 7.11037476 25.69949718 7.35332656
v 7.11037476 26.79471515 6.94595337
v 6.17660559 28.98220460 6.03161595
v 7.11037476 28.75550662 6.03161595
v 7.11037476 27.49541828 6.63292360
v 8.19493856 27.80749631 6.34493581
v 9.29690187 27.88698989 6.15595564
v 24.08351139 8.81195327 7.66198874
v 25.69875729 10.39000856 6.94187586
v 24.60549333 11.48522572 7.18035984
v 23.76742104 10.39000856 7.57900108
v 23.51222937 12.57749883 7.35157952
v 23.45713079 11.48228167 7.52629328
v 23.94141448 9.54209858 7.62355386
v 23.54992762 9.22413244 7.76245005
v 22.41896540 10.39000856 7.93308630
v 27.72578961 10.39000856 6.03161595
v 26.79492049 12.57749883 6.05258043
v 26.13664175 11.76491833 6.51557532
v 26.28453714 11.03477301 6.57905219
v 21.32570144 12.57749883 7.91998350
v 20.23243911 13.67271680 8.00530162
v 19.13917514 14.76204504 8.06936518
v 19.13917514 13.67271680 8.20039969
v 10.39016583 22.41973462 7.93279621
v 8.20363791 23.51200773 7.87921815
v 8.20363791 24.19504653 7.69285528
v 7.11037476 24.35697365 7.73886501
v 6.01711079 24.50712456 7.78254100
v 4.96734600 24.70438198 7.79244307
v 15.85648402 19.13702557 7.89319447
v 14.82121786 20.30290250 7.80700282
v 14.49932903 20.98299806 7.70333752
v 13.62645773 21.33923774 7.75837253
v 13.96284765 21.71019851 7.61772931
v 13.23207164 21.93395161 7.67130737
v 12.57959300 22.11943281 7.71819062
v 11.48342979 22.46978438 7.78254100
v 16.94974798 16.94953612 8.11537165
v 16.94974798 18.04475409 7.91648942
v 19.13917514 15.85726301 7.89115734
v 18.04301031 16.94953612 7.91852654
v 6.01711079 25.05473354 7.62821155
v 7.11037476 24.90458264 7.58657268
v 8.20363791 25.69949718 7.24209292
v 8.20363791 24.73971064 7.54172655
v 8.19493856 26.86831898 6.77298665
v 9.29690187 25.69949718 7.10931138
v 9.29690187 28.12840732 6.03161595
v 8.55452727 27.28344140 6.53595637
v 9.29690187 27.16567755 6.48528895
v 10.39016583 26.96253202 6.39676683
v 10.39016583 27.74567196 6.03161595
v 10.01027837 27.88698989 6.03161595
v 25.74225402 11.43517597 6.74328371
v 24.60549333 12.57749883 6.97944048
v 23.51222937 13.67271680 7.16317953
v 23.05694459 11.11426496 7.67946239
v 23.21933944 10.39000856 7.72343174
v 22.67125784 12.57749883 7.58016469
v 22.35226825 13.63149840 7.50882288
v 22.86555083 11.84441027 7.62995859
v 22.46826387 11.48228167 7.78108731
v 26.83551961 12.57749883 6.03161595
v 26.82101853 12.60988425 6.03161595
v 25.69875729 14.75321369 6.03161595
v 25.62625840 13.63149840 6.32746541
v 25.93654865 12.57749883 6.43142080
v 25.38846704 12.57749883 6.66145967
v 22.12607548 12.57749883 7.72051783
v 21.94338107 13.23992843 7.67421801
v 21.33440079 13.63149840 7.75866588
v 20.30783561 14.82681589 7.80816643
v 11.12094184 23.05566690 7.67975248
v 10.39016583 23.21759403 7.72255822
v 9.23600400 23.55028126 7.76419709
v 8.83001769 24.09200214 7.66460930
v 16.43646539 19.71407674 7.66198874
v 15.85648402 19.93194173 7.71381976
v 15.22720418 20.71802492 7.64131434
v 14.82121786 21.33923774 7.56444133
v 14.76612092 22.41973462 7.29450738
v 13.62645773 22.34613079 7.50911297
v 12.57959300 22.66704180 7.58016469
v 11.84881698 22.87018570 7.63112219
v 17.97341392 17.97998324 7.72663247
v 18.29240351 18.30089262 7.59676157
v 17.56162750 18.65124419 7.66839672
v 19.93084820 15.85726301 7.71352967
v 19.70175620 16.42547957 7.65965826
v 19.06957712 16.85532308 7.71731710
v 18.65779070 17.57074731 7.67043385
v 9.23600400 24.51595591 7.50299833
v 10.39016583 24.60722570 7.33585616
v 9.29690187 26.61806856 6.72959748
v 10.39016583 25.69949718 6.94216595
v 11.48632903 24.60722570 7.17919623
v 10.39016583 26.41492303 6.63641768
v 11.75312011 26.12934068 6.51033094
v 11.42543117 26.70639186 6.31785670
v 12.57959300 26.79471515 6.05141682
v 12.57959300 26.83299032 6.03161595
v 24.63739147 13.63149840 6.74386715
v 23.51222937 14.76204504 6.92615250
v 22.41896540 15.85726301 7.05340284
v 22.41896540 14.76204504 7.29042987
v 21.70269047 13.97007374 7.61510875
v 21.32570144 15.85726301 7.38535997
v 21.33440079 14.82681589 7.56356781
v 24.79108698 14.76204504 6.41715114
v 25.02307985 13.97007374 6.50713021
v 25.04047855 15.79543540 6.03161595
v 24.50399716 15.75716187 6.27941856
v 20.97481370 14.50590651 7.70246400
v 20.72542213 15.23016208 7.64277130
v 11.48342979 23.45606986 7.52716680
v 10.39016583 23.76225815 7.57667061
v 9.56079289 23.93890799 7.62355386
v 17.16434053 19.38138951 7.59035684
v 16.85985039 20.13803214 7.48174377
v 15.85648402 20.47955072 7.58744620
v 15.85648402 21.32451665 7.38128246
v 16.94974798 21.32451665 7.14774625
v 15.85648402 22.41973462 7.05281941
v 14.76612092 23.51200773 6.92789954
v 13.67285696 23.51200773 7.15852184
v 12.57959300 23.51200773 7.35390999
v 17.97341392 19.06342337 7.49717704
v 19.06957712 17.97998324 7.49863073
v 20.47892981 15.85726301 7.58889989
v 20.13384218 16.85532308 7.48028681
v 19.38856671 17.15268165 7.59035684
v 11.42543117 25.73777234 6.74153667
v 12.57959300 24.60722570 6.98439151
v 12.57959300 25.93502813 6.43142080
v 13.63515789 25.63178309 6.32950254
v 13.66705685 26.26182726 6.03161595
v 12.65209026 26.79766002 6.03161595
v 24.24300538 14.76204504 6.63932832
v 24.07191118 15.32731836 6.56711626
v 23.48032959 15.75716187 6.68388110
v 22.45086355 16.95247936 6.75959051
v 21.32570144 16.94953612 7.14774625
v 24.61129344 16.43725743 6.03161595
v 23.82251798 16.05746368 6.46927551
v 23.51222937 18.04475409 6.03277956
v 23.48032959 16.95247936 6.36328299
v 18.04301031 20.23224354 7.19404607
v 18.10680986 21.39223237 6.80618041
v 17.78202016 22.09882361 6.64981382
v 16.94684711 22.44623194 6.75784347
v 15.76658643 23.47962230 6.68737518
v 15.34030056 24.08022592 6.57090042
v 14.76612092 24.24509628 6.63903824
v 13.63515789 24.63372139 6.74270354
v 19.13917514 19.13702557 7.21472046
v 20.23243911 18.04475409 7.19404607
v 12.57959300 25.38741915 6.66408023
v 13.24657109 25.21960554 6.59041121
v 13.97444623 25.01646001 6.50508982
v 14.76612092 24.79270527 6.41278354
v 14.74872060 25.68477771 6.03161595
v 23.09174360 16.59035157 6.61224921
v 22.83655193 17.32049689 6.51440846
v 22.10577592 17.77389284 6.64835687
v 21.38949936 18.10069196 6.80385319
v 23.51222937 18.04769733 6.03161595
v 22.59875894 19.13113909 6.03161595
v 22.41896540 19.13702557 6.10324784
v 22.45086355 18.10069196 6.42210217
v 19.22037175 20.31762360 6.82685480
v 18.51279617 21.80146667 6.53799675
v 18.91298237 21.07426623 6.66553718
v 18.10680986 22.44623194 6.42355913
v 17.30933506 22.82896893 6.50945742
v 16.94684711 23.47962230 6.36036908
v 16.57856068 23.09394044 6.61137569
v 16.07107657 23.82408576 6.47131263
v 15.76658643 24.51006943 6.28174903
v 20.32233506 19.22829536 6.82860184
v 15.79848620 25.04590056 6.03161595
v 21.79548567 18.50403816 6.53479276
v 21.06761053 18.92504868 6.66582727
v 22.42186464 19.33722786 6.03161595
v 21.32570144 20.23224354 6.15391526
v 21.38949936 19.22829536 6.45558928
v 19.64085752 20.73863412 6.54847899
v 20.02074579 20.01143368 6.67601942
v 19.22037175 21.39223237 6.45471576
v 19.13917514 22.41973462 6.11052935
v 18.04591118 23.49434176 6.03161595
v 18.02271238 23.51200773 6.03161595
v 16.45096484 24.61605705 6.03161595
v 16.12617514 24.83392368 6.03161595
v 20.74862093 19.65224913 6.55226316
v 21.63019158 20.23224354 6.03161595
v 21.48229618 20.39122743 6.03161595
v 21.33150155 20.55020968 6.03161595
v 20.53692925 21.33040476 6.03161595
v 20.23243911 21.32451665 6.14634367
v 20.32233506 20.31762360 6.46956559
v 20.23243911 21.61598710 6.03161595
v 19.35376770 22.41973462 6.03161595
v 19.24067131 22.51983577 6.03161595
v 19.13047417 22.61404717 6.03161595
f 1 2 5
f 1 5 11
f 1 11 19
f 1 19 33
f 1 33 52
f 1 52 80
f 1 80 83
f 1 83 116
f 1 116 93
f 1 93 63
f 1 63 42
f 1 42 27
f 1 27 16
f 1 16 8
f 1 8 3
f 1 3 10
f 1 10 18
f 1 18 32
f 1 32 51
f 1 51 75
f 1 75 109
f 1 109 153
f 1 153 161
f 1 161 211
f 1 211 253
f 1 253 254
f 1 254 299
f 1 299 304
f 1 304 303
f 1 303 352
f 1 352 388
f 1 388 387
f 1 387 412
f 1 412 431
f 1 431 444
f 1 444 443
f 1 443 442
f 1 442 441
f 1 441 455
f 1 455 454
f 1 454 453
f 1 453 452
f 1 452 449
f 1 449 448
f 1 448 447
f 1 447 446
f 1 446 434
f 1 434 418
f 1 418 417
f 1 417 394
f 1 394 362
f 1 362 316
f 1 316 315
f 1 315 314
f 1 314 267
f 1 267 223
f 1 223 173
f 1 173 126
f 1 126 125
f 1 125 90
f 1 90 59
f 1 59 39
f 1 39 24
f 1 24 23
f 1 23 14
f 1 14 6
f 1 6 4
f 1 4 2
f 2 4 6
f 2 6 7
f 2 7 5
f 3 8 9
f 3 9 10
f 5 7 12
f 5 12 13
f 5 13 11
f 6 14 15
f 6 15 7
f 7 15 12
f 8 16 28
f 8 28 44
f 8 44 66
f 8 66 99
f 8 99 135
f 8 135 183
f 8 183 151
f 8 151 145
f 8 145 105
f 8 105 71
f 8 71 67
f 8 67 45
f 8 45 29
f 8 29 17
f 8 17 9
f 9 17 30
f 9 30 47
f 9 47 73
f 9 73 104
f 9 104 144
f 9 144 196
f 9 196 242
f 9 242 201
f 9 201 152
f 9 152 108
f 9 108 74
f 9 74 49
f 9 49 48
f 9 48 31
f 9 31 18
f 9 18 10
f 11 13 20
f 11 20 19
f 12 15 21
f 12 21 13
f 13 21 22
f 13 22 20
f 14 23 15
f 15 23 24
f 15 24 25
f 15 25 26
f 15 26 21
f 16 27 43
f 16 43 28
f 17 29 46
f 17 46 30
f 18 31 32
f 19 20 34
f 19 34 33
f 20 22 35
f 20 35 34
f 21 26 36
f 21 36 37
f 21 37 22
f 22 37 38
f 22 38 35
f 24 39 40
f 24 40 25
f 25 40 41
f 25 41 26
f 26 41 36
f 27 42 64
f 27 64 43
f 28 43 44
f 29 45 46
f 30 46 47
f 31 48 32
f 32 48 49
f 32 49 50
f 32 50 51
f 33 34 52
f 34 35 53
f 34 53 52
f 35 38 54
f 35 54 53
f 36 41 55
f 36 55 56
f 36 56 37
f 37 56 57
f 37 57 38
f 38 57 58
f 38 58 54
f 39 59 60
f 39 60 40
f 40 60 61
f 40 61 62
f 40 62 41
f 41 62 55
f 42 63 64
f 43 64 65
f 43 65 44
f 44 65 66
f 45 67 46
f 46 68 69
f 46 69 70
f 46 70 47
f 46 67 71
f 46 71 72
f 46 72 68
f 47 70 73
f 49 74 76
f 49 76 50
f 50 75 51
f 50 76 77
f 50 77 78
f 50 78 79
f 50 79 75
f 52 53 80
f 53 54 81
f 53 81 82
f 53 82 83
f 53 83 80
f 54 58 81
f 55 62 61
f 55 61 84
f 55 84 85
f 55 85 56
f 56 85 86
f 56 86 57
f 57 87 58
f 57 86 88
f 57 88 89
f 57 89 87
f 58 87 81
f 59 90 91
f 59 91 60
f 60 91 92
f 60 92 61
f 61 92 84
f 63 93 94
f 63 94 64
f 64 94 95
f 64 95 65
f 65 95 96
f 65 96 97
f 65 97 98
f 65 98 99
f 65 99 66
f 68 100 101
f 68 101 69
f 68 72 102
f 68 102 100
f 69 101 103
f 69 103 70
f 70 103 104
f 70 104 73
f 71 105 72
f 72 106 102
f 72 105 107
f 72 107 106
f 74 108 110
f 74 110 76
f 75 79 109
f 76 110 77
f 77 110 111
f 77 111 112
f 77 112 78
f 78 113 109
f 78 109 79
f 78 112 113
f 81 87 114
f 81 114 115
f 81 115 82
f 82 115 94
f 82 94 116
f 82 116 83
f 84 92 117
f 84 117 118
f 84 118 85
f 85 118 119
f 85 119 86
f 86 119 120
f 86 120 121
f 86 121 88
f 87 89 122
f 87 122 123
f 87 123 114
f 88 121 89
f 89 121 124
f 89 124 122
f 90 125 91
f 91 125 126
f 91 126 127
f 91 127 128
f 91 128 92
f 92 128 117
f 93 116 94
f 94 115 95
f 95 114 123
f 95 123 129
f 95 129 96
f 95 115 114
f 96 129 130
f 96 130 97
f 97 130 131
f 97 131 132
f 97 132 98
f 98 132 133
f 98 133 99
f 99 133 134
f 99 134 135
f 100 136 137
f 100 137 138
f 100 138 101
f 100 102 136
f 101 138 139
f 101 139 140
f 101 140 141
f 101 141 103
f 102 106 142
f 102 142 136
f 103 141 143
f 103 143 144
f 103 144 104
f 105 145 107
f 106 146 142
f 106 107 147
f 106 147 146
f 107 148 149
f 107 149 150
f 107 150 147
f 107 145 151
f 107 151 148
f 108 152 154
f 108 154 110
f 109 113 153
f 110 154 155
f 110 155 156
f 110 156 111
f 111 157 112
f 111 156 157
f 112 157 158
f 112 158 159
f 112 159 113
f 113 160 161
f 113 161 153
f 113 159 162
f 113 162 163
f 113 163 160
f 117 128 164
f 117 164 165
f 117 165 118
f 118 165 166
f 118 166 167
f 118 167 119
f 119 167 168
f 119 168 169
f 119 169 120
f 120 169 170
f 120 170 121
f 121 170 124
f 122 129 123
f 122 124 171
f 122 171 129
f 124 170 172
f 124 172 171
f 126 173 174
f 126 174 127
f 127 174 175
f 127 175 164
f 127 164 128
f 129 171 130
f 130 171 176
f 130 176 177
f 130 177 178
f 130 178 131
f 131 178 179
f 131 179 180
f 131 180 132
f 132 180 181
f 132 181 182
f 132 182 134
f 132 134 133
f 134 151 183
f 134 183 135
f 134 182 149
f 134 149 184
f 134 184 151
f 136 138 137
f 136 142 185
f 136 185 186
f 136 186 187
f 136 187 188
f 136 188 138
f 138 188 189
f 138 189 190
f 138 190 139
f 139 190 191
f 139 191 140
f 140 191 192
f 140 192 141
f 141 192 143
f 142 146 193
f 142 193 194
f 142 194 186
f 142 186 185
f 143 192 195
f 143 195 196
f 143 196 144
f 146 147 197
f 146 197 193
f 147 150 198
f 147 198 199
f 147 199 197
f 148 151 184
f 148 184 149
f 149 200 198
f 149 198 150
f 149 182 200
f 152 201 202
f 152 202 154
f 154 202 203
f 154 203 155
f 155 203 204
f 155 204 156
f 156 204 205
f 156 205 206
f 156 206 158
f 156 158 157
f 158 207 162
f 158 162 159
f 158 206 208
f 158 208 209
f 158 209 207
f 160 210 161
f 160 163 210
f 161 210 211
f 162 207 163
f 163 207 212
f 163 212 213
f 163 213 210
f 164 175 214
f 164 214 165
f 165 214 166
f 166 215 167
f 166 214 216
f 166 216 217
f 166 217 218
f 166 218 215
f 167 215 168
f 168 215 219
f 168 219 170
f 168 170 169
f 170 219 172
f 171 172 176
f 172 219 220
f 172 220 221
f 172 221 222
f 172 222 176
f 173 223 174
f 174 223 224
f 174 224 225
f 174 225 226
f 174 226 175
f 175 226 227
f 175 227 214
f 176 222 178
f 176 178 177
f 178 222 228
f 178 228 229
f 178 229 179
f 179 229 230
f 179 230 180
f 180 230 181
f 181 230 231
f 181 231 200
f 181 200 182
f 186 232 233
f 186 233 187
f 186 194 232
f 187 233 234
f 187 234 235
f 187 235 188
f 188 235 190
f 188 190 189
f 190 235 236
f 190 236 191
f 191 236 205
f 191 205 204
f 191 204 192
f 192 204 237
f 192 237 195
f 193 197 194
f 194 197 238
f 194 238 239
f 194 239 240
f 194 240 241
f 194 241 232
f 195 237 203
f 195 203 202
f 195 202 242
f 195 242 196
f 197 199 238
f 198 200 243
f 198 243 244
f 198 244 245
f 198 245 199
f 199 245 238
f 200 246 247
f 200 247 243
f 200 231 246
f 201 242 202
f 203 237 204
f 205 248 249
f 205 249 250
f 205 250 206
f 205 236 248
f 206 250 208
f 207 209 212
f 208 250 209
f 209 250 251
f 209 251 295
f 209 295 252
f 209 252 212
f 210 253 211
f 210 213 254
f 210 254 253
f 212 255 213
f 212 252 255
f 213 255 256
f 213 256 257
f 213 257 254
f 214 227 216
f 215 218 258
f 215 258 220
f 215 220 219
f 216 227 259
f 216 259 260
f 216 260 217
f 217 261 218
f 217 260 262
f 217 262 263
f 217 263 261
f 218 261 264
f 218 264 258
f 220 258 221
f 221 258 265
f 221 265 266
f 221 266 222
f 222 266 228
f 223 267 224
f 224 268 269
f 224 269 270
f 224 270 225
f 224 267 268
f 225 227 226
f 225 270 227
f 227 270 259
f 228 271 229
f 228 266 271
f 229 271 272
f 229 272 273
f 229 273 274
f 229 274 230
f 230 274 231
f 231 274 246
f 232 241 275
f 232 275 233
f 233 275 276
f 233 276 234
f 234 276 277
f 234 277 278
f 234 278 279
f 234 279 235
f 235 279 280
f 235 280 236
f 236 280 248
f 238 245 239
f 239 281 240
f 239 245 244
f 239 244 281
f 240 281 282
f 240 282 283
f 240 283 284
f 240 284 241
f 241 284 285
f 241 285 286
f 241 286 287
f 241 287 288
f 241 288 275
f 243 247 289
f 243 289 244
f 244 289 290
f 244 290 281
f 246 274 273
f 246 273 247
f 247 273 291
f 247 291 292
f 247 292 289
f 248 280 279
f 248 279 293
f 248 293 250
f 248 250 249
f 250 293 294
f 250 294 251
f 251 294 296
f 251 296 295
f 252 297 255
f 252 295 298
f 252 298 297
f 254 257 299
f 255 300 256
f 255 297 300
f 256 300 257
f 257 300 301
f 257 301 302
f 257 302 303
f 257 303 304
f 257 304 299
f 258 264 265
f 259 270 305
f 259 305 260
f 260 305 306
f 260 306 307
f 260 307 262
f 261 263 308
f 261 308 309
f 261 309 265
f 261 265 264
f 262 310 263
f 262 307 311
f 262 311 310
f 263 310 312
f 263 312 308
f 265 309 266
f 266 309 308
f 266 308 313
f 266 313 271
f 267 314 268
f 268 314 315
f 268 315 316
f 268 316 317
f 268 317 318
f 268 318 269
f 269 318 319
f 269 319 305
f 269 305 270
f 271 320 321
f 271 321 322
f 271 322 272
f 271 313 320
f 272 322 323
f 272 323 273
f 273 323 291
f 275 288 324
f 275 324 325
f 275 325 326
f 275 326 276
f 276 326 327
f 276 327 277
f 277 327 296
f 277 296 278
f 278 296 294
f 278 294 279
f 279 294 293
f 281 328 329
f 281 329 282
f 281 290 328
f 282 330 283
f 282 329 330
f 283 330 331
f 283 331 285
f 283 285 284
f 285 331 332
f 285 332 333
f 285 333 286
f 286 333 334
f 286 334 287
f 287 334 335
f 287 335 288
f 288 335 324
f 289 292 290
f 290 292 336
f 290 336 337
f 290 337 338
f 290 338 328
f 291 339 340
f 291 340 341
f 291 341 342
f 291 342 292
f 291 323 339
f 292 342 336
f 295 296 343
f 295 343 344
f 295 344 298
f 296 327 343
f 297 298 345
f 297 345 301
f 297 301 300
f 298 346 345
f 298 344 347
f 298 347 346
f 301 345 302
f 302 345 348
f 302 348 349
f 302 349 350
f 302 350 303
f 303 350 351
f 303 351 352
f 305 319 306
f 306 319 353
f 306 353 307
f 307 353 354
f 307 354 355
f 307 355 356
f 307 356 311
f 308 312 313
f 310 320 312
f 310 311 321
f 310 321 320
f 311 357 321
f 311 356 358
f 311 358 359
f 311 359 357
f 312 320 313
f 316 360 361
f 316 361 317
f 316 362 363
f 316 363 360
f 317 361 318
f 318 361 353
f 318 353 319
f 321 357 322
f 322 357 364
f 322 364 323
f 323 365 339
f 323 364 365
f 324 335 366
f 324 366 367
f 324 367 325
f 325 367 368
f 325 368 326
f 326 368 327
f 327 368 343
f 328 338 369
f 328 369 370
f 328 370 371
f 328 371 329
f 329 371 330
f 330 371 331
f 331 371 372
f 331 372 332
f 332 372 373
f 332 373 374
f 332 374 375
f 332 375 376
f 332 376 377
f 332 377 333
f 333 377 334
f 334 377 366
f 334 366 335
f 336 342 337
f 337 378 338
f 337 342 379
f 337 379 378
f 338 378 369
f 339 380 340
f 339 365 380
f 340 380 381
f 340 381 382
f 340 382 341
f 341 382 342
f 342 382 379
f 343 368 367
f 343 367 344
f 344 367 366
f 344 366 377
f 344 377 347
f 345 346 348
f 346 383 348
f 346 347 384
f 346 384 383
f 347 377 384
f 348 383 349
f 349 383 385
f 349 385 351
f 349 351 350
f 351 385 386
f 351 386 387
f 351 387 388
f 351 388 352
f 353 361 360
f 353 360 389
f 353 389 354
f 354 389 390
f 354 390 391
f 354 391 355
f 355 358 356
f 355 391 392
f 355 392 393
f 355 393 358
f 357 359 364
f 358 380 365
f 358 365 359
f 358 393 381
f 358 381 380
f 359 365 364
f 360 363 390
f 360 390 389
f 362 394 363
f 363 395 390
f 363 394 396
f 363 396 397
f 363 397 395
f 369 378 370
f 370 378 398
f 370 398 373
f 370 373 372
f 370 372 371
f 373 399 400
f 373 400 401
f 373 401 374
f 373 398 399
f 374 401 402
f 374 402 375
f 375 402 403
f 375 403 404
f 375 404 405
f 375 405 384
f 375 384 376
f 376 384 377
f 378 379 406
f 378 406 398
f 379 382 381
f 379 381 407
f 379 407 406
f 381 393 407
f 383 384 408
f 383 408 385
f 384 405 409
f 384 409 408
f 385 408 409
f 385 409 386
f 386 409 405
f 386 405 410
f 386 410 411
f 386 411 412
f 386 412 387
f 390 395 391
f 391 395 397
f 391 397 413
f 391 413 392
f 392 413 414
f 392 414 415
f 392 415 416
f 392 416 393
f 393 416 407
f 394 417 396
f 396 417 418
f 396 418 419
f 396 419 420
f 396 420 414
f 396 414 397
f 397 414 413
f 398 406 421
f 398 421 399
f 399 422 400
f 399 421 423
f 399 423 422
f 400 422 424
f 400 424 425
f 400 425 401
f 401 425 426
f 401 426 427
f 401 427 402
f 402 427 428
f 402 428 403
f 403 428 429
f 403 429 411
f 403 411 404
f 404 411 405
f 405 411 410
f 406 407 430
f 406 430 421
f 407 416 430
f 411 429 412
f 412 429 431
f 414 420 415
f 415 420 432
f 415 432 433
f 415 433 416
f 416 433 430
f 418 434 419
f 419 434 435
f 419 435 436
f 419 436 420
f 420 436 432
f 421 437 423
f 421 430 438
f 421 438 437
f 422 423 439
f 422 439 440
f 422 440 424
f 423 437 439
f 424 441 442
f 424 442 425
f 424 440 441
f 425 442 426
f 426 442 429
f 426 429 428
f 426 428 427
f 429 442 443
f 429 443 444
f 429 444 431
f 430 433 445
f 430 445 438
f 432 436 433
f 433 436 445
f 434 446 435
f 435 445 436
f 435 446 447
f 435 447 448
f 435 448 449
f 435 449 450
f 435 450 451
f 435 451 445
f 437 438 451
f 437 451 450
f 437 450 439
f 438 445 451
f 439 450 440
f 440 450 452
f 440 452 453
f 440 453 454
f 440 454 455
f 440 455 441
f 449 452 450

