# https://github.com/mikedh/trimesh
v -0.02179726 -5.05578542 41.94049782
v 5.07417782 -0.47109858 41.94049782
v -0.02179726 -7.08198373 41.94049782
v -0.02179726 -5.05578542 70.28648983
v 7.09612465 -0.47109858 41.94049782
v 5.07417782 -0.47109858 70.28648983
v 0.54744154 -7.08651674 41.94049782
v -0.02179726 -7.08198373 70.28648983
v 7.09612465 -0.54686258 41.94049782
v 7.09612465 -0.47109858 70.28648983
v 1.64063053 -6.90714367 41.94049782
v 0.54744154 -7.08651674 70.28648983
v 6.91009424 -1.64058225 41.94049782
v 7.09612465 -0.54686258 70.28648983
v 2.34782415 -6.70057413 41.94049782
v 2.27954354 -6.72064838 70.28648983
v 1.64063053 -6.90714367 70.28648983
v 6.87525693 -1.76491278 41.94049782
v 6.91009424 -1.64058225 70.28648983
v 2.47393472 -6.66366384 41.94049782
v 2.47393472 -6.66366384 70.28648983
v 6.67877606 -2.46038640 41.94049782
v 6.67877606 -2.46038640 70.28648983
v 3.02087757 -6.45838869 41.94049782
v 3.02087757 -6.45838869 70.28648983
v 6.64324205 -2.54327342 41.94049782
v 6.62373290 -2.58795474 70.28648983
v 3.82770522 -5.98308344 41.94049782
v 3.82770522 -5.98308344 70.28648983
v 6.44258018 -3.00692244 41.94049782
v 6.44258018 -3.00692244 70.28648983
v 4.46522483 -5.53950889 41.94049782
v 4.46522483 -5.53950889 70.28648983
v 5.96322146 -3.82737439 41.94049782
v 5.96322146 -3.82737439 70.28648983
v 4.92925540 -5.08557269 41.94049782
v 4.88466392 -5.12895901 70.28648983
v 5.89842413 -3.92321224 41.94049782
v 5.53542119 -4.45744505 70.28648983
v 5.01216768 -5.00398088 41.94049782
v 5.01216768 -5.00398088 70.28648983
v 5.53542119 -4.45744505 41.94049782
v 5.41349142 -4.58501318 70.28648983
f 1 2 5
f 1 5 9
f 1 9 13
f 1 13 18
f 1 18 22
f 1 22 26
f 1 26 30
f 1 30 34
f 1 34 38
f 1 38 42
f 1 42 40
f 1 40 36
f 1 36 32
f 1 32 28
f 1 28 24
f 1 24 20
f 1 20 15
f 1 15 11
f 1 11 7
f 1 7 3
f 1 3 8
f 1 8 4
f 1 4 6
f 1 6 2
f 2 6 10
f 2 10 5
f 3 7 12
f 3 12 8
f 4 8 12
f 4 12 17
f 4 17 16
f 4 16 21
f 4 21 25
f 4 25 29
f 4 29 33
f 4 33 37
f 4 37 41
f 4 41 43
f 4 43 39
f 4 39 35
f 4 35 31
f 4 31 27
f 4 27 23
f 4 23 19
f 4 19 14
f 4 14 10
f 4 10 6
f 5 10 14
f 5 14 9
f 7 11 17
f 7 17 12
f 9 14 19
f 9 19 13
f 11 15 16
f 11 16 17
f 13 19 18
f 15 20 16
f 16 20 21
f 18 19 23
f 18 23 22
f 20 24 25
f 20 25 21
f 22 23 26
f 23 27 26
f 24 28 29
f 24 29 25
f 26 27 31
f 26 31 30
f 28 32 33
f 28 33 29
f 30 31 35
f 30 35 34
f 32 36 33
f 33 36 37
f 34 35 38
f 35 39 38
f 36 40 41
f 36 41 37
f 38 39 42
f 39 43 42
f 40 42 43
f 40 43 41

