# https://github.com/mikedh/trimesh
v 5.89410827 0.01560032 11.53241536
v 5.89410827 0.01560032 11.58439957
v 5.89557296 0.01560032 11.48345913
v -0.70260377 -5.84983947 11.48345913
v -0.70260377 -5.84844485 11.58439957
v 8.98595078 0.01560032 11.58439957
v 6.12405587 0.01560032 10.38978611
v -0.70260377 -6.08133325 10.38978611
v -0.70260377 -8.94990423 11.58439957
v 8.98595078 -0.54779437 11.58439957
v 12.03238980 0.01560032 10.93864019
v 6.45652758 0.01560032 9.75134409
v -0.70260377 -6.37139768 9.84244113
v -0.70260377 -11.80592406 10.91845471
v -0.54588762 -11.82544788 10.92753866
v -0.54588762 -8.96663882 11.58439957
v 8.80433604 -1.64111455 11.58439957
v 12.03238980 -0.07783372 10.93864019
v 14.26009865 0.01560032 9.00641412
v 7.02773505 0.01560032 9.00641412
v -0.70260377 -6.43415218 9.73721458
v -0.70260377 -14.22824125 9.00641412
v 0.54819364 -11.82544788 10.92753866
v 0.54819364 -8.96803303 11.58439957
v 8.48211638 -2.73443474 11.58439957
v 10.94563161 -4.42880223 10.94091199
v 13.38424663 -4.92246973 9.00641412
v 14.26009865 -0.54779437 9.00641412
v -0.70260377 -7.00451914 9.00641412
v 0.54819364 -14.22824125 9.00641412
v 4.92159132 -13.38036142 9.00641412
v 1.64081061 -11.69017697 10.86495487
v 4.42654509 -10.94549227 10.94091199
v 1.64081061 -8.79232107 11.58439957
v 8.13206957 -3.77057889 11.58439957
v 9.85154954 -6.58336805 10.94091199
v 8.12181712 -3.79568037 11.58439957
v 12.27258986 -7.10771508 9.00641412
v 7.10828955 -12.29401391 9.00641412
v 3.80993374 -8.11178468 11.58439957
v 3.78942883 -8.12154659 11.58439957
v 2.73489228 -8.46042017 11.58439957
v 6.58248638 -9.85356711 10.94091199
v 9.36089698 -10.38907067 9.00641412
v 11.38941558 -8.19406259 9.00641412
v 7.45101412 -4.99498574 11.58439957
v 7.13611833 -5.37569538 11.58439957
v 6.55905209 -6.07017713 11.58439957
v 8.76918502 -7.68226629 10.94091199
v 8.41034922 -8.41161143 10.72818382
v 9.29498860 -10.45461400 9.00641412
v 4.99189338 -7.43403833 11.58439957
v 7.68242682 -8.76721960 10.94091199
v 6.07279361 -6.55408272 11.58439957
f 1 2 6
f 1 6 11
f 1 11 19
f 1 19 20
f 1 20 12
f 1 12 7
f 1 7 3
f 1 3 4
f 1 4 5
f 1 5 2
f 2 5 9
f 2 9 16
f 2 16 24
f 2 24 34
f 2 34 42
f 2 42 41
f 2 41 40
f 2 40 52
f 2 52 54
f 2 54 48
f 2 48 47
f 2 47 46
f 2 46 37
f 2 37 35
f 2 35 25
f 2 25 17
f 2 17 10
f 2 10 6
f 3 7 4
f 4 8 13
f 4 13 21
f 4 21 29
f 4 29 22
f 4 22 14
f 4 14 9
f 4 9 5
f 4 7 8
f 6 10 18
f 6 18 11
f 7 12 8
f 8 12 13
f 9 14 15
f 9 15 16
f 10 17 18
f 11 18 28
f 11 28 19
f 12 20 21
f 12 21 13
f 14 22 15
f 15 23 24
f 15 24 16
f 15 22 30
f 15 30 23
f 17 25 26
f 17 26 18
f 18 26 27
f 18 27 28
f 19 28 27
f 19 27 38
f 19 38 45
f 19 45 44
f 19 44 51
f 19 51 39
f 19 39 31
f 19 31 30
f 19 30 22
f 19 22 29
f 19 29 20
f 20 29 21
f 23 30 31
f 23 31 32
f 23 32 33
f 23 33 34
f 23 34 24
f 25 35 26
f 26 36 27
f 26 35 37
f 26 37 36
f 27 36 38
f 31 33 32
f 31 39 33
f 33 40 41
f 33 41 42
f 33 42 34
f 33 39 43
f 33 43 40
f 36 44 45
f 36 45 38
f 36 37 46
f 36 46 47
f 36 47 48
f 36 48 49
f 36 49 50
f 36 50 44
f 39 51 43
f 40 43 52
f 43 51 50
f 43 50 53
f 43 53 54
f 43 54 52
f 44 50 51
f 48 54 53
f 48 53 49
f 49 53 50

