# https://github.com/mikedh/trimesh
v -3.56994025 8.18703532 11.58439957
v -2.73400939 8.46250700 11.58439957
v -3.56994025 4.67034923 11.58439957
v -3.56994025 7.72454645 20.34955922
v -3.49794616 7.76245575 20.34955922
v -2.73400939 8.04761519 20.34955922
v -1.64009996 8.79315792 11.58439957
v 3.24016285 4.86747546 11.58439957
v 3.24016285 4.86326350 12.15415946
v 3.24016285 4.86073624 12.57804478
v -3.56994025 4.66529471 12.57804478
v -3.56994025 4.66529471 20.34955922
v -1.75742349 8.30497436 20.34955922
v -0.54619049 8.96795969 11.58439957
v -1.64009996 8.33572275 20.34955922
v 3.24016285 8.25358662 11.58439957
v 3.24016285 4.86073624 20.34955922
v 0.54638579 8.96795969 11.58439957
v -0.66418071 8.46545595 20.34955922
v -0.54619049 8.48104078 20.34955922
v 2.79353321 8.45155622 11.58439957
v 3.24016285 8.27591109 11.58526005
v 3.24016285 7.84669746 20.34955922
v 1.02234639 8.91235998 11.58439957
v 0.54638579 8.47935567 20.34955922
v 1.92427170 8.74177018 11.58439957
v 2.73353820 8.04129684 20.34955922
v 1.52297160 8.35383526 20.34955922
v 1.64029522 8.33867170 20.34955922
v 2.61621458 8.07330906 20.34955922
f 1 2 7
f 1 7 14
f 1 14 18
f 1 18 24
f 1 24 26
f 1 26 21
f 1 21 16
f 1 16 8
f 1 8 3
f 1 3 11
f 1 11 12
f 1 12 4
f 1 4 5
f 1 5 6
f 1 6 2
f 2 6 7
f 3 8 9
f 3 9 10
f 3 10 11
f 4 12 17
f 4 17 23
f 4 23 27
f 4 27 30
f 4 30 29
f 4 29 28
f 4 28 25
f 4 25 20
f 4 20 19
f 4 19 15
f 4 15 13
f 4 13 6
f 4 6 5
f 6 13 7
f 7 13 15
f 7 15 14
f 8 16 22
f 8 22 23
f 8 23 17
f 8 17 10
f 8 10 9
f 10 17 12
f 10 12 11
f 14 15 19
f 14 19 20
f 14 20 18
f 16 21 22
f 18 20 25
f 18 25 24
f 21 26 27
f 21 27 23
f 21 23 22
f 24 25 28
f 24 28 29
f 24 29 26
f 26 29 30
f 26 30 27

