# https://github.com/mikedh/trimesh
v -9.24009863 -0.89737844 20.34970916
v -9.24009863 -1.72302171 19.95135800
v -9.24009863 0.89806822 20.34970916
v -9.60025448 -0.84564638 20.34970916
v -19.13900240 -0.54629030 20.30009127
v -19.13900240 -1.56506658 19.93859743
v -9.24009863 -1.73060920 19.94710448
v -19.13900240 -2.11204670 19.63381069
v -10.16744677 0.54215178 20.34970916
v -9.24009863 1.72302171 19.95135800
v -19.13900240 1.56506658 19.93859743
v -19.13900240 0.54629030 20.30009127
v -10.16744677 -0.54215178 20.34970916
v -20.05664648 -0.54629030 19.99246884
v -19.91646446 -1.40711144 19.85425061
v -9.24009863 -2.16515826 19.66996072
v -19.95097013 -2.47279149 18.92145519
v -19.13900240 -2.61695140 19.08660587
v -9.24009863 1.74854284 19.93505446
v -19.13900240 2.11204670 19.63381069
v -19.91646446 1.40711144 19.85425061
v -20.05664648 0.54629030 19.99246884
v -20.22378376 -0.54629030 19.13905943
v -20.09869930 -1.71888309 19.22695249
v -9.24009863 -2.53555964 19.22624194
v -20.06419363 -2.79628904 18.04111008
v -19.80863364 -3.34395893 17.67323760
v -19.13900240 -3.16393133 18.31046060
v -18.04559339 -3.16600064 18.31612870
v -16.95110715 -3.16738018 18.32180006
v -15.85769814 -3.16875972 18.32605358
v -9.24009863 -3.14875677 18.38488580
v -18.04559339 -2.61902072 19.08802371
v -9.24009863 2.51279760 19.25175980
v -9.53879111 2.14584488 19.65223935
v -19.13900240 2.61695140 19.08660587
v -19.95097013 2.47279149 18.92145519
v -20.09869930 1.71888309 19.22695249
v -20.22378376 0.54629030 19.13905943
v -20.25613333 -2.73352089 16.95166777
v -9.24009863 -2.54383669 19.21490248
v -16.95110715 -2.62040006 19.09015210
v -13.67196062 -2.62522845 19.09440562
v -12.57747438 -2.62660800 19.09582346
v -11.48406538 -2.62798754 19.09582346
v -19.89921244 -3.39707049 16.95166777
v -19.13900240 -3.51364018 16.95166777
v -19.13900240 -3.37637757 17.76396633
v -18.04559339 -3.37913665 17.76963769
v -16.95110715 -3.38120596 17.77530579
v -9.24009863 -3.39362164 17.79728068
v -14.76429077 -3.17013927 18.32747142
v -13.67196062 -3.17151881 18.32817871
v -11.48406538 -3.17427789 18.32817871
v -9.24009863 2.53555964 19.22624194
v -18.04559339 2.61902072 19.08802371
v -15.85769814 3.16875972 18.32605358
v -16.95110715 3.16738018 18.32180006
v -18.04559339 3.16600064 18.31612870
v -19.13900240 3.16393133 18.31046060
v -19.80863364 3.34395893 17.67323760
v -20.06419363 2.79628904 18.04111008
v -20.25613333 2.73352089 16.95166777
v -20.24642846 -1.64025051 14.76498665
v -20.08575947 -2.82732833 15.79134322
v -19.84853199 -3.37223914 16.11101892
v -19.13900240 -3.41776322 15.96145797
v -9.24009863 -3.52260680 16.95166777
v -9.24009863 -3.51432995 17.01120728
v -9.24009863 3.18738334 18.31400357
v -11.48406538 2.62798754 19.09582346
v -12.57747438 2.62660800 19.09582346
v -13.67196062 2.62522845 19.09440562
v -16.95110715 2.62040006 19.09015210
v -16.95110715 3.38120596 17.77530579
v -14.76429077 3.17013927 18.32747142
v -9.24009863 3.39362164 17.79728068
v -18.04559339 3.37913665 17.76963769
v -19.13900240 3.37637757 17.76396633
v -19.13900240 3.51364018 16.95166777
v -19.89921244 3.39707049 16.95166777
v -20.24642846 1.64025051 14.76498665
v -19.84853199 3.37223914 16.11101892
v -20.08575947 2.82732833 15.79134322
v -20.08468223 -0.54629030 13.80241985
v -19.95851890 -1.64025051 13.98033108
v -19.96714654 -2.49210467 14.76498665
v -19.78922390 -2.25620662 14.15611719
v -19.13900240 -3.24325378 15.41425641
v -18.04559339 -3.24739241 15.40858505
v -16.95110715 -3.25084126 15.40220640
v -13.67196062 -3.25911831 15.38235989
v -9.24009863 -3.28188055 15.40078855
v -9.24009863 -3.42121208 15.91680415
v -9.24009863 -3.42810979 15.97776150
v -13.67196062 3.17151881 18.32817871
v -9.24009863 3.52260680 16.95166777
v -19.13900240 3.41776322 15.96145797
v -19.96714654 2.49210467 14.76498665
v -19.95851890 1.64025051 13.98033108
v -20.08468223 0.54629030 13.80241985
v -19.78922390 2.25620662 14.15611719
v -19.13900240 3.24325378 15.41425641
v -19.13900240 -0.54629030 13.38138650
v -19.13900240 -1.64025051 13.74004466
v -19.13900240 -2.29207411 14.12280283
v -19.13900240 -2.80111744 14.76498665
v -18.04559339 -2.80939448 14.76498665
v -16.95110715 -2.81629220 14.76498665
v -15.85769814 -2.82249993 14.76498665
v -12.57747438 -3.26118763 15.37668853
v -9.24009863 -2.85284945 14.76498665
v -11.48406538 -3.26187740 15.37456340
v -9.24009863 3.42121208 15.91680415
v -13.67196062 3.25911831 15.38235989
v -16.95110715 3.25084126 15.40220640
v -18.04559339 3.24739241 15.40858505
v -12.57747438 3.26118763 15.37668853
v -19.13900240 1.64025051 13.74004466
v -19.13900240 0.54629030 13.38138650
v -19.13900240 2.80111744 14.76498665
v -19.13900240 2.29207411 14.12280283
v -18.04559339 2.80939448 14.76498665
v -9.24009863 -0.45455217 13.10920030
v -9.24009863 -1.70094945 13.70035165
v -9.24009863 -2.33001091 14.06964198
v -9.24009863 3.26118763 15.37598124
v -10.39065800 3.26187740 15.37598124
v -11.48406538 3.26187740 15.37456340
v -9.24009863 2.82663856 14.70402604
v -9.24009863 3.24601287 15.33203471
v -9.24009863 2.33001091 14.06964198
v -9.24009863 1.64025051 13.67483379
v -9.24009863 0.58905545 13.14818602
v -9.24009863 0.45455217 13.10920030
f 1 2 7
f 1 7 16
f 1 16 25
f 1 25 41
f 1 41 32
f 1 32 51
f 1 51 69
f 1 69 68
f 1 68 95
f 1 95 94
f 1 94 93
f 1 93 112
f 1 112 126
f 1 126 125
f 1 125 124
f 1 124 135
f 1 135 134
f 1 134 133
f 1 133 132
f 1 132 130
f 1 130 131
f 1 131 127
f 1 127 114
f 1 114 97
f 1 97 77
f 1 77 70
f 1 70 55
f 1 55 34
f 1 34 19
f 1 19 10
f 1 10 3
f 1 3 9
f 1 9 13
f 1 13 4
f 1 4 5
f 1 5 6
f 1 6 2
f 2 6 8
f 2 8 7
f 3 10 11
f 3 11 12
f 3 12 9
f 4 13 5
f 5 12 22
f 5 22 14
f 5 14 15
f 5 15 6
f 5 13 9
f 5 9 12
f 6 15 8
f 7 8 16
f 8 15 17
f 8 17 18
f 8 18 16
f 10 19 20
f 10 20 11
f 11 20 21
f 11 21 12
f 12 21 22
f 14 22 39
f 14 39 23
f 14 23 24
f 14 24 15
f 15 24 17
f 16 18 25
f 17 24 26
f 17 26 27
f 17 27 28
f 17 28 18
f 18 28 29
f 18 29 30
f 18 30 31
f 18 31 32
f 18 32 33
f 18 33 25
f 19 34 35
f 19 35 20
f 20 36 37
f 20 37 21
f 20 35 36
f 21 37 38
f 21 38 22
f 22 38 39
f 23 39 63
f 23 63 40
f 23 40 24
f 24 40 26
f 25 33 42
f 25 42 43
f 25 43 44
f 25 44 45
f 25 45 41
f 26 40 46
f 26 46 27
f 27 46 47
f 27 47 48
f 27 48 28
f 28 48 49
f 28 49 29
f 29 49 50
f 29 50 30
f 30 50 31
f 31 50 51
f 31 51 52
f 31 52 32
f 32 41 45
f 32 45 44
f 32 44 43
f 32 43 42
f 32 42 33
f 32 52 53
f 32 53 54
f 32 54 51
f 34 55 36
f 34 36 35
f 36 56 57
f 36 57 58
f 36 58 59
f 36 59 60
f 36 60 37
f 36 55 56
f 37 61 62
f 37 62 38
f 37 60 61
f 38 63 39
f 38 62 63
f 40 63 82
f 40 82 64
f 40 64 65
f 40 65 66
f 40 66 46
f 46 66 47
f 47 50 49
f 47 49 48
f 47 66 67
f 47 67 68
f 47 68 69
f 47 69 51
f 47 51 50
f 51 54 53
f 51 53 52
f 55 70 71
f 55 71 72
f 55 72 73
f 55 73 74
f 55 74 56
f 56 74 57
f 57 75 58
f 57 74 73
f 57 73 76
f 57 76 70
f 57 70 77
f 57 77 75
f 58 75 59
f 59 78 60
f 59 75 78
f 60 79 61
f 60 78 79
f 61 80 81
f 61 81 62
f 61 79 80
f 62 81 63
f 63 81 83
f 63 83 84
f 63 84 82
f 64 85 86
f 64 86 87
f 64 87 65
f 64 82 101
f 64 101 85
f 65 87 66
f 66 87 88
f 66 88 89
f 66 89 67
f 67 89 90
f 67 90 91
f 67 91 92
f 67 92 93
f 67 93 94
f 67 94 95
f 67 95 68
f 70 76 96
f 70 96 72
f 70 72 71
f 72 96 76
f 72 76 73
f 75 80 78
f 75 77 80
f 77 97 80
f 78 80 79
f 80 98 83
f 80 83 81
f 80 97 98
f 82 84 99
f 82 99 100
f 82 100 101
f 83 102 99
f 83 99 84
f 83 98 103
f 83 103 102
f 85 101 120
f 85 120 104
f 85 104 86
f 86 104 105
f 86 105 88
f 86 88 87
f 88 105 106
f 88 106 107
f 88 107 89
f 89 107 108
f 89 108 90
f 90 108 91
f 91 108 92
f 92 108 109
f 92 109 110
f 92 110 111
f 92 111 93
f 93 111 113
f 93 113 112
f 97 114 98
f 98 115 116
f 98 116 117
f 98 117 103
f 98 114 118
f 98 118 115
f 99 102 100
f 100 102 119
f 100 119 120
f 100 120 101
f 102 103 121
f 102 121 122
f 102 122 119
f 103 117 123
f 103 123 121
f 104 124 105
f 104 120 135
f 104 135 124
f 105 124 125
f 105 125 126
f 105 126 106
f 106 126 107
f 107 126 108
f 108 126 109
f 109 126 110
f 110 126 112
f 110 112 111
f 111 112 113
f 114 127 128
f 114 128 129
f 114 129 118
f 115 118 130
f 115 130 116
f 116 130 123
f 116 123 117
f 118 129 131
f 118 131 130
f 119 122 132
f 119 132 133
f 119 133 134
f 119 134 120
f 120 134 135
f 121 123 132
f 121 132 122
f 123 130 132
f 127 131 128
f 128 131 129

