# https://github.com/mikedh/trimesh
v -0.22383867 8.48064476 20.35041645
v 0.54764484 8.47898410 20.35041645
v -0.22383867 5.87447933 20.35041645
v -0.22383867 8.48064476 24.60883585
v 1.64086439 8.33867170 20.35041645
v 0.54764484 8.47898410 24.60883585
v 5.89085131 -0.00122472 20.35041645
v -0.22383867 5.06166090 26.79616233
v -0.22383867 8.45573722 25.70144304
v 0.54764484 8.45490689 25.70144304
v 2.73493730 8.04144025 20.35041645
v 1.64086439 8.33867170 24.60883585
v 1.64086439 8.32621752 25.70144304
v 8.49460804 -0.00122472 20.35041645
v 5.07499022 -0.00122472 26.79616233
v -0.22383867 5.05833997 27.88876952
v -0.22383867 7.08000690 41.94049782
v 0.54764484 7.08581923 41.94049782
v 3.40571830 7.78323200 20.35041645
v 2.73493730 8.04144025 25.70144304
v 0.71320661 7.05925103 41.94049782
v 1.64086439 6.90648364 41.94049782
v 8.49460804 0.54757273 20.35041645
v 8.49460804 -0.00122472 24.60883585
v 5.07413667 -0.00122472 27.88876952
v -0.22383867 5.05833997 41.94049782
v 3.48679248 7.75168261 20.35041645
v 3.48679248 7.75168261 25.70144304
v 1.76716930 6.86995307 41.94049782
v 2.47379355 6.66321975 41.94049782
v 2.55657443 6.63250069 41.94049782
v 3.02082990 6.45814709 41.94049782
v 8.34611455 1.64101677 20.35041645
v 8.49460804 0.54757273 24.60883585
v 8.47156570 -0.00122472 25.70144304
v 5.07413667 -0.00122472 41.94049782
v 3.97494344 7.51505975 20.35041645
v 4.03297548 7.48351036 25.70144304
v 4.03297548 7.48683169 24.60883585
v 3.14372120 6.38591547 41.94049782
v 8.05254096 2.73446041 20.35041645
v 8.34611455 1.64101677 24.60883585
v 8.33331324 1.64101677 25.70144304
v 8.47156570 0.54757273 25.70144304
v 7.09586716 -0.00122472 41.94049782
v 4.03297548 7.48683169 20.35041645
v 4.88638652 6.93720351 25.70144304
v 3.82815665 5.98324234 41.94049782
v 4.88723966 6.93969451 24.60883585
v 4.79592465 6.99864243 20.35041645
v 8.02011153 2.81665562 20.35041645
v 8.05254096 2.73446041 25.70144304
v 6.90982371 1.64101677 41.94049782
v 7.09586716 0.54757273 41.94049782
v 5.43342266 6.52954920 25.70144304
v 5.43427622 6.53370005 24.60883585
v 3.92544575 5.91599190 41.94049782
v 4.46565467 5.53988698 41.94049782
v 5.37539063 6.57770361 20.35041645
v 4.88723966 6.93969451 20.35041645
v 7.74787318 3.49663302 20.35041645
v 7.74787318 3.49663302 25.70144304
v 6.67940268 2.46047685 41.94049782
v 5.99667393 5.98324234 25.70144304
v 5.99838064 5.98656326 24.60883585
v 5.93778834 6.04551160 20.35041645
v 5.43427622 6.53370005 20.35041645
v 5.01183767 5.00437363 41.94049782
v 7.72056428 3.55558136 20.35041645
v 7.49099640 4.04377021 25.70144304
v 6.44215442 3.00678350 41.94049782
v 6.54285693 5.44689866 25.70144304
v 6.54541719 5.44689866 24.60883585
v 6.48653160 5.50501626 20.35041645
v 5.99838064 5.98656326 20.35041645
v 5.53583228 4.45723645 41.94049782
v 7.49099640 4.04377021 20.35041645
v 6.94396025 4.90059181 25.70144304
v 5.96339095 3.82790445 41.94049782
v 6.90128978 4.95953974 20.35041645
v 6.54541719 5.44689866 20.35041645
v 6.94396025 4.90059181 20.35041645
f 1 2 5
f 1 5 11
f 1 11 19
f 1 19 27
f 1 27 37
f 1 37 46
f 1 46 50
f 1 50 60
f 1 60 59
f 1 59 67
f 1 67 66
f 1 66 75
f 1 75 74
f 1 74 81
f 1 81 80
f 1 80 82
f 1 82 77
f 1 77 69
f 1 69 61
f 1 61 51
f 1 51 41
f 1 41 33
f 1 33 23
f 1 23 14
f 1 14 7
f 1 7 3
f 1 3 8
f 1 8 16
f 1 16 26
f 1 26 17
f 1 17 9
f 1 9 4
f 1 4 6
f 1 6 2
f 2 6 12
f 2 12 5
f 3 7 8
f 4 9 10
f 4 10 6
f 5 12 20
f 5 20 11
f 6 10 13
f 6 13 12
f 7 14 24
f 7 24 35
f 7 35 45
f 7 45 36
f 7 36 25
f 7 25 15
f 7 15 8
f 8 15 16
f 9 17 18
f 9 18 10
f 10 18 13
f 11 20 19
f 12 13 20
f 13 18 21
f 13 21 22
f 13 22 20
f 14 23 34
f 14 34 24
f 15 25 16
f 16 25 36
f 16 36 26
f 17 26 36
f 17 36 45
f 17 45 54
f 17 54 53
f 17 53 63
f 17 63 71
f 17 71 79
f 17 79 76
f 17 76 68
f 17 68 58
f 17 58 57
f 17 57 48
f 17 48 40
f 17 40 32
f 17 32 31
f 17 31 30
f 17 30 29
f 17 29 22
f 17 22 21
f 17 21 18
f 19 20 28
f 19 28 27
f 20 22 29
f 20 29 30
f 20 30 31
f 20 31 32
f 20 32 28
f 23 33 42
f 23 42 34
f 24 34 44
f 24 44 35
f 27 28 37
f 28 38 39
f 28 39 37
f 28 32 38
f 32 40 38
f 33 41 52
f 33 52 42
f 34 42 43
f 34 43 44
f 35 44 54
f 35 54 45
f 37 39 46
f 38 47 39
f 38 40 48
f 38 48 47
f 39 49 50
f 39 50 46
f 39 47 49
f 41 51 52
f 42 52 43
f 43 52 53
f 43 53 54
f 43 54 44
f 47 55 56
f 47 56 49
f 47 48 57
f 47 57 58
f 47 58 55
f 49 59 60
f 49 60 50
f 49 56 59
f 51 61 62
f 51 62 52
f 52 62 63
f 52 63 53
f 55 64 56
f 55 58 64
f 56 64 65
f 56 65 66
f 56 66 67
f 56 67 59
f 58 68 64
f 61 69 62
f 62 69 70
f 62 70 71
f 62 71 63
f 64 72 65
f 64 68 72
f 65 73 74
f 65 74 75
f 65 75 66
f 65 72 73
f 68 76 72
f 69 77 70
f 70 77 82
f 70 82 78
f 70 78 79
f 70 79 71
f 72 78 73
f 72 76 78
f 73 78 80
f 73 80 81
f 73 81 74
f 76 79 78
f 78 82 80

