# https://github.com/mikedh/trimesh
v -0.54144235 32.53781529 4.31145314
v -2.73269137 32.49322992 4.31145314
v -0.19109729 30.63335934 5.47579653
v 0.19109729 30.63335934 5.47579653
v 0.54144235 32.53144642 4.31145314
v -3.82194586 32.44864130 4.31145314
v -2.73269137 30.00915765 5.75294680
v -1.63706678 30.04100201 5.76776404
v -0.55418213 30.17476138 5.72432272
v 0.55418213 30.17476138 5.72432272
v 1.63706678 30.04100201 5.76793353
v 2.73269137 30.00915765 5.75294680
v 3.67543774 32.46775117 4.31145314
v 2.58618325 32.49959880 4.31145314
v 1.49692876 32.51870542 4.31145314
v -4.91757044 32.32762293 4.31145314
v -3.82194586 29.95183127 5.72482793
v -2.71358149 29.47412669 6.03161595
v -1.63706678 29.54418755 6.03161595
v -3.82194586 29.37221495 6.03161595
v -3.35694236 29.41680032 6.03161595
v -1.11473416 29.56966630 6.03161595
v -0.54781224 29.59514506 6.03161595
v 0.54781224 29.59514506 6.03161595
v 1.12110415 29.56966630 6.03161595
v 1.63706678 29.54418755 6.03161595
v 2.19124897 29.51234319 6.03161595
v 2.71358149 29.47412669 6.03161595
v 3.82194586 29.37221495 6.03161595
v 3.82194586 29.95183127 5.72482793
v 4.75195286 32.37220830 4.31145314
v -5.99408515 32.12380270 4.31145314
v -6.01319462 29.77348653 5.62514888
v -4.91757044 29.86266053 5.67869435
v -4.91757044 29.20023908 6.03161595
v 4.22962013 29.30851970 6.03161595
v 4.91757044 29.20023908 6.03161595
v 4.91757044 29.86266053 5.67869435
v 6.01319462 29.77348653 5.62514888
v 5.79024781 32.13654045 4.31145314
v -7.10881921 29.65246817 5.55257828
v -9.29369869 31.28303978 4.31145314
v -7.10881921 28.97731224 5.91998141
v -6.01319462 29.01552873 6.03161595
v 6.01319462 29.01552873 6.03161595
v 7.10881921 28.97731224 5.91998141
v 7.10881921 29.65246817 5.55257828
v 9.15993036 31.33399402 4.31145314
v -10.35110352 31.00278656 4.31145314
v -7.79039942 29.56966630 5.49482166
v -9.29369869 28.79896750 5.68593348
v -8.97520290 28.21935118 6.03161595
v -7.10881921 28.75438213 6.03161595
v 7.10881921 28.75438213 6.03161595
v 9.29369869 28.12380831 6.03161595
v 9.29369869 28.79896750 5.68593348
v 7.79039942 29.56966630 5.49482166
v 10.12178661 31.05374080 4.31145314
v -10.38932246 28.62062276 5.58338941
v -12.65701033 30.02826426 4.31145314
v -12.57420194 27.62062498 5.63524977
v -11.45309779 27.93909470 5.71388286
v -10.38932246 27.88814045 5.96493835
v -10.00712816 27.88814045 6.03161595
v -9.29369869 28.12380831 6.03161595
v 9.52938528 28.04737531 6.03161595
v 10.00712816 27.88814045 6.03161595
v 10.38932246 27.88814045 5.96493835
v 10.38932246 28.62062276 5.58338941
v 12.56783226 30.06011189 4.31145314
v -13.34496105 27.44865237 5.53776103
v -14.85463000 28.95820236 4.31145314
v -12.57420194 26.83081792 6.03161595
v -12.64427095 26.79897030 6.03161595
v -10.58042043 27.66521035 6.03161595
v -10.38932246 27.74164334 6.03161595
v 10.38932246 27.74164334 6.03161595
v 12.60605120 26.81807855 6.03161595
v 11.45309779 27.93909470 5.71388286
v 12.57420194 27.62062498 5.63524977
v 13.34496105 27.44865237 5.53776103
v 13.29400192 29.71616342 4.31145314
v -13.69530609 26.85629505 5.74890840
v -14.75908061 26.52508595 5.62312805
v -16.98854954 27.79896972 4.31145314
v -14.72086086 25.69706077 6.03161595
v 12.64427095 26.79897030 6.03161595
v 13.69530609 26.85629505 5.74890840
v 15.51072984 28.63973264 4.31145314
v 14.79092987 28.99004998 4.31145314
v -15.45977071 26.32763297 5.51822743
v -15.83559613 25.73527727 5.70984446
v -19.07788045 26.55056307 4.31145314
v -15.79737638 25.04101146 6.03161595
v 14.74634124 25.68432303 6.03161595
v 14.75908061 26.52508595 5.62312805
v 16.85478039 27.87540271 4.31145314
v -16.75286213 25.39132880 5.59871186
v -19.09698869 23.50598272 5.67246237
v -18.02047480 23.51235159 6.03161595
v -18.03958468 24.38496214 5.63306271
v -20.23083385 25.54419479 4.31145314
v -19.86774780 23.13018663 5.55072368
v -16.45347621 24.61426112 6.03161595
v 15.79737638 25.04101146 6.03161595
v 15.83559613 25.73527727 5.70984446
v 15.45977071 26.32763297 5.51822743
v 18.85493241 26.69068968 4.31145314
v -17.04587917 24.70343186 5.81373466
v -19.12883958 22.61426392 6.03161595
v -18.04595355 23.49324335 6.03161595
v -22.46030115 23.43591860 4.31145314
v -20.99522245 22.06649360 5.56436428
v -20.23083385 22.42955031 5.70933925
v 16.12224104 24.83082073 6.03161595
v 16.75286213 25.39132880 5.59871186
v 18.03958468 24.38496214 5.63306271
v 18.70842552 24.14292379 5.51620660
v 19.09698869 23.50598272 5.67246237
v 19.86774780 23.13018663 5.55072368
v 20.02699570 25.69706077 4.31145314
v -19.35178598 22.41681257 6.03161595
v -23.54318717 22.35948782 4.31145314
v -22.07810685 20.99643169 5.56992156
v -21.72139293 21.72891563 5.39935050
v -21.34556750 21.34675066 5.72701825
v -20.23083385 21.61426614 6.03161595
v 16.45347621 24.61426112 6.03161595
v 17.04587917 24.70343186 5.81373466
v 18.02047480 23.51235159 6.03161595
v 18.04595355 23.49324335 6.03161595
v 19.12883958 22.61426392 6.03161595
v 20.23083385 22.42955031 5.70933925
v 20.99522245 22.06649360 5.56436428
v 21.19269010 24.62062999 4.31145314
v -25.69621659 20.02828153 4.31145314
v -21.63221404 20.23210176 6.03161595
v -23.12277312 19.86267617 5.54718723
v -22.42845189 20.23210176 5.71085487
v -21.32645762 20.55057311 6.03161595
v -20.53658864 21.32764241 6.03161595
v 19.23712671 22.51872268 6.03161595
v 20.23083385 21.61426614 6.03161595
v 21.34556750 21.34675066 5.72701825
v 19.35178598 22.41681257 6.03161595
v 22.07810685 20.99643169 5.56992156
v 21.72139293 21.72891563 5.39935050
v 22.35201401 23.53782871 4.31145314
v -26.68355159 18.85630788 4.31145314
v -24.15469838 18.71618127 5.52378471
v -23.49859691 19.10471511 5.67263186
v -22.42208302 19.33401409 6.03161595
v 20.53658864 21.32764241 6.03161595
v 21.32645762 20.55057311 6.03161595
v 21.63221404 20.23210176 6.03161595
v 22.42845189 20.23210176 5.71085487
v 23.12277312 19.86267617 5.54718723
v 25.54333756 20.23210176 4.31145314
v 23.44763778 22.46139794 4.31145314
v -26.33957705 15.46777906 5.52361523
v -25.72806584 15.84357352 5.71186203
v -25.38408967 16.74803169 5.59265263
v -24.39675466 18.04102208 5.64013561
v -27.87472475 16.83720243 4.31145314
v -23.51133629 18.04102208 6.03161595
v -22.59407029 19.13019223 6.03161595
v 22.42208302 19.33401409 6.03161595
v 23.49859691 19.10471511 5.67263186
v 26.54978408 19.07923799 4.31145314
v -26.53067420 14.76077387 5.62683073
v -25.68347558 14.77351162 6.03161595
v -25.04011512 15.79261928 6.03161595
v -24.70250945 17.04739317 5.81002872
v -28.98946003 14.77988212 4.31145314
v -24.60696169 16.43592922 6.03161595
v 23.51133629 18.04739258 6.03161595
v 24.15469838 18.71618127 5.52378471
v 26.33957705 15.46777906 5.52361523
v 27.79191637 16.98369955 4.31145314
v 24.39675466 18.04102208 5.64013561
v 25.38408967 16.74803169 5.59265263
v 25.72806584 15.84357352 5.71186203
v -27.45431070 13.33402412 5.53506551
v -26.85553886 13.68434146 5.74419204
v -26.83642899 12.57606388 6.03161595
v -30.06597555 12.59517213 4.31145314
v 24.60696169 16.43592922 6.03161595
v 24.70250945 17.04739317 5.81002872
v 26.53067420 14.76077387 5.62683073
v 28.63274448 15.50599556 4.31145314
v 25.69621659 14.76077387 6.02858471
v 25.04011512 15.79261928 6.03161595
v 25.68984608 14.76077387 6.03161595
v -27.62629960 12.57606388 5.63626018
v -27.93842326 11.44867723 5.71371663
v -27.88746576 10.38498420 5.95601411
v -27.64540948 10.60154461 6.03161595
v -31.05967943 10.10473016 4.31145314
v -28.61363460 10.38498420 5.57884254
v 26.85553886 13.68434146 5.74419204
v 27.45431070 13.33402412 5.53506551
v 29.74747976 13.33402412 4.31145314
v 26.83642899 12.57606388 6.03161595
v -28.80473338 9.29581404 5.68677441
v -27.88746576 9.97734211 6.03161595
v -31.34632434 9.15568662 4.31145314
v 27.62629960 12.57606388 5.63609395
v 30.04049354 12.67160512 4.31145314
v 27.78554750 10.23211821 6.03161595
v 27.88746576 10.38498420 5.95601411
v 27.93842326 11.44867723 5.71371663
v -29.05315854 8.16842739 5.71960963
v -28.97671903 7.10473518 5.91105716
v -28.65822323 7.41046715 6.03161595
v -28.12952204 9.29581404 6.03161595
v -32.14893596 5.83722110 4.31145314
v -29.65193037 7.10473518 5.54819764
v 30.99598092 10.35313739 4.31145314
v 27.88746576 9.97734211 6.03161595
v 28.80473338 9.29581404 5.68677441
v 28.61363460 10.38498420 5.57884254
v -28.97671903 6.16843060 6.03161595
v -29.77295851 6.00919533 5.62666450
v -32.37188236 4.74805095 4.31145314
v 31.30173571 9.29581404 4.31145314
v 28.12952204 9.29581404 6.03161595
v 28.97671903 7.10473518 5.91105716
v 29.05315854 8.16842739 5.71960963
v -29.01493878 6.00919533 6.03161595
v -29.86850790 4.92002518 5.68105089
v -29.02767979 5.95187059 6.03161595
v -32.46105962 3.67161935 4.31145314
v -30.00864592 2.72894591 5.75294680
v -29.94494415 3.82448534 5.72062004
v 32.14256383 6.01556461 4.31145314
v 29.65193037 7.10473518 5.54819764
v 28.73466274 7.10473518 6.03161595
v 29.00856991 6.05378111 6.03161595
v -29.25062619 4.60792352 6.03161595
v -29.20603756 4.92002518 6.03161595
v -32.50564825 2.58244940 4.31145314
v -30.59467675 1.63977565 5.45070891
v -30.04686568 1.63977565 5.77045957
v -29.47994147 2.71620714 6.03161595
v -29.40987409 3.37225687 6.03161595
v -29.35254445 3.82448534 6.03161595
v 32.33366261 4.92002518 4.31145314
v 29.77295851 6.00919533 5.62666450
v 29.86850790 4.92002518 5.68105089
v 29.20603756 4.92002518 6.03161595
v -32.51838925 1.63977565 4.31145314
v -30.62015550 -0.22646330 5.46737749
v -30.05960342 0.54423607 5.77786819
v -29.58185973 0.54423607 6.03161595
v -29.56912198 1.06015882 6.03161595
v -29.55001211 1.63977565 6.03161595
v 32.44194974 3.82448534 4.31145314
v 29.94494415 3.82448534 5.72062004
v 30.00864592 2.72894591 5.75294680
v 29.30158369 4.21938927 6.03161595
v -32.53113026 0.54423607 4.31145314
v -30.62015550 -0.95257673 5.46889311
v -30.18063156 -0.57041177 5.71944014
v -32.53749913 -0.54493414 4.31145314
v -29.59460074 -0.55767295 6.03161595
v -29.58823186 0.00283568 6.03161595
v 32.49291050 2.72894591 4.31145314
v 30.04686568 1.63977565 5.77045957
v 30.59467675 1.63977565 5.45070891
v 29.35254445 3.82448534 6.03161595
v 29.47994147 2.71620714 6.03161595
v 29.51816122 2.19391495 6.03161595
v -30.62015550 -1.09907334 5.46889311
v -30.16152168 -1.53219367 5.71085487
v -32.51838925 -1.64047378 4.31145314
v -29.55638098 -1.58951841 6.03161595
v 32.51838925 1.63977565 4.31145314
v 30.62015550 -0.22646330 5.46737749
v 29.55001211 1.63977565 6.03161595
v 29.58185973 0.54423607 6.03161595
v 30.05960342 0.54423607 5.77786819
v -32.48653837 -2.72964403 4.31145314
v -32.44831861 -3.82518367 4.31145314
v -30.00227379 -2.72964403 5.74873891
v -29.37165433 -3.82518367 6.03161595
v 32.53113026 0.54423607 4.31145314
v 30.18063156 -0.57041177 5.71944014
v 30.62015550 -0.95257673 5.46889311
v 32.53749913 -0.54493414 4.31145314
v 29.58823186 0.04105218 6.03161595
v 29.59460074 -0.55767295 6.03161595
v -32.34640035 -4.92072310 4.31145314
v -29.95131629 -3.82518367 5.72482793
v -29.31432470 -4.23282616 6.03161595
v 30.16152168 -1.53219367 5.71085487
v 30.62015550 -1.09907334 5.46889311
v 32.52475813 -1.50034655 4.31145314
v 29.55638098 -1.58951841 6.03161595
v -32.12345395 -5.99078501 4.31145314
v -29.76658964 -6.00989325 5.62110722
v -29.87487677 -4.92072310 5.68290223
v -29.21240643 -4.92072310 6.03161595
v 30.00227379 -2.72964403 5.74873891
v 32.38462011 -4.74874887 4.31145314
v 32.46742849 -3.67231768 4.31145314
v 32.49927938 -2.58314732 4.31145314
v 29.37165433 -3.82518367 6.03161595
v -31.28262583 -9.29014268 4.31145314
v -29.57549086 -7.81243787 5.50121987
v -29.65829924 -7.10543269 5.55291400
v -28.97671903 -7.10543269 5.91998141
v -28.99582890 -6.03537119 6.03161595
v 29.95131629 -3.82518367 5.72482793
v 32.34640035 -4.92072310 4.31145314
v 29.87487677 -4.92072310 5.68290223
v 29.76658964 -6.00989325 5.62110722
v 29.65829924 -7.10543269 5.55291400
v 29.21240643 -4.92072310 6.03161595
v -30.98323992 -10.33472747 4.31145314
v -29.04678967 -8.18823397 5.72701825
v -28.44164570 -8.19460284 6.03161595
v -28.75377262 -7.10543269 6.03161595
v 32.14256383 -5.78696396 4.31145314
v 29.00856991 -5.97804645 6.03161595
v 28.97671903 -7.10543269 5.91998141
v 29.57549086 -7.81243787 5.50121987
v 31.33358660 -9.16275463 4.31145314
v -30.03412467 -12.65319438 4.31145314
v -28.49897534 -11.08631802 5.50980840
v -28.62000348 -10.38568252 5.58355890
v -28.79199238 -9.29014268 5.68172233
v -28.11041216 -9.29014268 6.03161595
v 28.75377262 -7.10543269 6.03161595
v 28.44164570 -8.19460284 6.03161595
v 29.04678967 -8.18823397 5.72701825
v 28.79199238 -9.29014268 5.68172233
v 31.04056955 -10.08632024 4.31145314
v -28.69007412 -15.74873142 4.31145314
v -27.61992747 -12.57676139 5.63053667
v -27.93842326 -11.46211412 5.72011484
v -27.88746576 -10.38568252 5.96510458
v -27.88746576 -9.99077900 6.03161595
v 28.20596155 -8.99078040 6.03161595
v 27.88746576 -9.99077900 6.03161595
v 27.88746576 -10.38568252 5.96510458
v 28.62000348 -10.38568252 5.58355890
v 30.06597555 -12.56402283 4.31145314
v 28.49897534 -11.08631802 5.50980840
v -26.55615295 -19.08630437 4.31145314
v -25.32676166 -16.94618056 5.56335386
v -25.72806584 -15.83153329 5.70613852
v -26.53067420 -14.76147138 5.62649501
v -26.86190937 -13.69777835 5.74604338
v -26.81732074 -12.57676139 6.03161595
v -27.30143330 -11.44300587 6.03161595
v -27.74095561 -10.38568252 6.03161595
v 27.74095561 -10.38568252 6.03161595
v 27.93842326 -11.46211412 5.72011484
v 27.66451935 -10.58313469 6.03161595
v 27.30143330 -11.44300587 6.03161595
v 28.79836125 -15.48121595 4.31145314
v 27.61992747 -12.57676139 5.63053667
v -25.53696869 -20.22643040 4.31145314
v -23.12914199 -19.87611306 5.55544003
v -23.50496742 -19.09267488 5.67061103
v -24.54326155 -17.93344060 5.59955605
v -24.60696169 -16.94618056 5.90263813
v -25.69621659 -14.76147138 6.02336640
v -25.69621659 -14.72962376 6.03161595
v -26.26313754 -13.66593154 6.03161595
v 26.81732074 -12.57676139 6.03161595
v 26.69629097 -18.86974477 4.31145314
v 26.86190937 -13.69777835 5.74604338
v 26.53067420 -14.76147138 5.62649501
v 25.72806584 -15.83153329 5.70613852
v -24.49867292 -21.34744817 4.31145314
v -22.07173797 -20.98439146 5.56385907
v -22.42845189 -20.23916977 5.71371663
v -22.52400128 -19.24554086 6.03161595
v -22.61954904 -19.13089137 6.03161595
v -23.51133629 -18.04172122 6.01915525
v -23.51133629 -18.00350472 6.03161595
v -24.28846590 -16.94618056 6.03161595
v -24.42860391 -16.74872921 6.03161595
v -24.56874193 -16.54490735 6.03161595
v -25.67710671 -14.76147138 6.03161595
v 26.26313754 -13.66593154 6.03161595
v 25.32676166 -16.94618056 5.56335386
v 24.60696169 -16.94618056 5.90263813
v 24.54326155 -17.93344060 5.59955605
v 23.50496742 -19.09267488 5.67061103
v 23.12914199 -19.87611306 5.55544003
v 25.68984608 -20.02261017 4.31145314
v 25.69621659 -14.72962376 6.03161595
v 25.69621659 -14.76147138 6.02336640
v -23.43489841 -22.44935770 4.31145314
v -20.98885195 -22.08630099 5.56823645
v -21.34556750 -21.34107930 5.72348180
v -22.42208302 -19.36019035 6.03161595
v -21.47296614 -20.37929638 6.03161595
v -21.61310416 -20.23280090 6.03161595
v 24.56874193 -16.54490735 6.03161595
v 24.28846590 -16.94618056 6.03161595
v 23.51133629 -18.00350472 6.03161595
v 23.51133629 -18.04172122 6.01915525
v 22.61954904 -19.13089137 6.03161595
v 22.42208302 -19.36019035 6.03161595
v 22.42845189 -20.23916977 5.71371663
v 22.07173797 -20.98439146 5.56385907
v 24.62607157 -21.20095106 4.31145314
v 25.65799683 -14.79331901 6.03161595
v -22.35838288 -23.55126560 4.31145314
v -20.60665765 -22.81241442 5.39295229
v -20.23720272 -22.43661833 5.71354714
v -20.39008175 -21.48120591 6.03161595
v -21.21816886 -24.62132751 4.31145314
v -20.54295914 -21.32833993 6.03161595
v 21.61310416 -20.23280090 6.03161595
v 21.34556750 -21.34107930 5.72348180
v 22.45393227 -23.45572436 4.31145314
v 23.53681667 -22.34107709 4.31145314
v 20.98885195 -22.08630099 5.56823645
v -20.02699570 -25.69138941 4.31145314
v -19.87411830 -23.11814639 5.54870285
v -20.23083385 -21.62770303 6.03161595
v -19.09061982 -23.49394086 5.66741029
v -19.23712671 -22.51305132 6.03161595
v -19.34541548 -22.41751008 6.03161595
v 20.54295914 -21.32833993 6.03161595
v 21.35193800 -24.50667802 4.31145314
v 20.23720272 -22.43661833 5.71354714
v 19.09061982 -26.56399996 4.31145314
v 20.23083385 -25.53852343 4.31145314
v -18.86767342 -26.69775770 4.31145314
v -18.70205502 -24.14999180 5.51587088
v -18.02684530 -23.51304911 6.03161595
v 20.23083385 -21.62770303 6.03161595
v 19.34541548 -22.41751008 6.03161595
v 19.12883958 -22.60222369 6.03161595
v 19.09061982 -23.49394086 5.66741029
v 19.87411830 -23.11814639 5.54870285
v 18.70205502 -24.14999180 5.51587088
v 18.03958468 -24.39202853 5.63845050
v 17.05224805 -24.71049988 5.81373466
v 16.75923263 -25.37928857 5.59130324
v 15.83559613 -25.72323704 5.70815935
v 15.45977071 -26.34106985 5.52378471
v 16.97581016 -27.78055735 4.31145314
v -15.52983972 -28.65953677 4.31145314
v -15.45977071 -26.34106985 5.52378471
v -15.83559613 -25.72323704 5.70815935
v -16.75923263 -25.37928857 5.59130324
v -17.05224805 -24.71049988 5.81373466
v -18.03958468 -24.39202853 5.63845050
v -17.01402829 -24.22642480 6.03161595
v 18.02684530 -23.51304911 6.03161595
v 17.01402829 -24.22642480 6.03161595
v 16.44073684 -24.60858976 6.03161595
v 14.75908061 -25.69775991 6.03161595
v 14.75908061 -26.53215234 5.62952626
v 14.86736938 -28.95889987 4.31145314
v -14.75908061 -26.53215234 5.62952626
v -13.31948148 -29.73597081 4.31145314
v -12.57420194 -27.62769136 5.63272699
v -13.33222086 -27.44298101 5.53068813
v -14.75908061 -25.69775991 6.03161595
v -16.44073684 -24.60858976 6.03161595
v 12.57420194 -26.81877606 6.03161595
v 13.68256672 -26.85699256 5.74301540
v 13.33222086 -27.44298101 5.53068813
v 12.66975052 -30.04170278 4.31145314
v 12.57420194 -27.62769136 5.63272699
v -13.68256672 -26.85699256 5.74301540
v -12.58694132 -30.06717827 4.31145314
v -12.57420194 -26.81877606 6.03161595
v -11.45946748 -27.94616434 5.71674787
v 11.44672810 -27.30285277 6.03161595
v 11.45946748 -27.94616434 5.71674787
v 10.33836333 -30.97800532 4.31145314
v -11.08364287 -28.48756417 5.50223028
v -10.08993736 -31.04806944 4.31145314
v -11.44672810 -27.30285277 6.03161595
v -10.38932246 -28.60858253 5.57733018
v -10.38932246 -27.88246909 5.95567839
v 10.60589999 -27.64043237 6.03161595
v 10.38932246 -27.88246909 5.95567839
v 10.38932246 -28.60858253 5.57733018
v 11.08364287 -28.48756417 5.50223028
v 9.29369869 -28.79966501 5.68408214
v 9.29369869 -31.29010616 4.31145314
v -9.15993036 -31.34106367 4.31145314
v -9.29369869 -28.79966501 5.68408214
v -10.38932246 -27.72323423 6.03161595
v -9.29369869 -28.11813695 6.03161595
v -9.95616903 -27.88246909 6.03161595
v 10.38932246 -27.72323423 6.03161595
v 9.95616903 -27.88246909 6.03161595
v 9.29369869 -28.11813695 6.03161595
v 8.18533391 -29.05444274 5.72280710
v 8.54204865 -29.47482421 5.43471176
v 6.01319462 -32.14361009 4.31145314
v 7.80950930 -29.56399494 5.49364502
v -7.80950930 -29.56399494 5.49364502
v -8.18533391 -29.05444274 5.72280710
v -5.81572778 -32.16271671 4.31145314
v -7.10881921 -29.64679681 5.54651579
v -8.19170360 -28.44297880 6.03161595
v 8.19170360 -28.44297880 6.03161595
v 7.10881921 -28.97800975 5.90987726
v 7.10881921 -29.64679681 5.54651579
v 6.01319462 -29.77418731 5.62430795
v 4.91757044 -32.35379920 4.31145314
v -7.10881921 -28.97800975 5.90987726
v -4.91757044 -32.35379920 4.31145314
v -6.01319462 -29.77418731 5.62430795
v -7.10881921 -28.73596976 6.03161595
v 7.10881921 -28.73596976 6.03161595
v 6.01319462 -29.00985737 6.03161595
v 4.91757044 -29.87609579 5.68391265
v 3.82194586 -32.44296994 4.31145314
v 3.82194586 -29.93979104 5.72078627
v 2.73269137 -30.00348628 5.75025453
v -6.01319462 -29.00985737 6.03161595
v -4.74558276 -32.38564682 4.31145314
v -4.91757044 -29.87609579 5.68391265
v 4.91757044 -29.22004647 6.03161595
v 4.60544475 -29.25826297 6.03161595
v 3.82194586 -29.35380584 6.03161595
v 2.73269137 -32.49392744 4.31145314
v 1.63706678 -30.04807165 5.77197519
v 1.63706678 -30.59584035 5.45407587
v 3.36968234 -29.40476008 6.03161595
v 2.70721160 -29.46845533 6.03161595
v 1.63706678 -29.55762607 6.03161595
v -4.91757044 -29.22004647 6.03161595
v -3.67543774 -32.46207981 4.31145314
v -1.63706678 -30.04807165 5.77197519
v -2.73269137 -30.00348628 5.75025453
v -3.82194586 -29.93979104 5.72078627
v -3.82194586 -29.35380584 6.03161595
v 0.54144235 -30.60857810 5.46266114
v 1.63706678 -32.51940293 4.31145314
v 0.54144235 -29.58310482 6.03161595
v 0.54144235 -30.06080940 5.77870912
v -2.58618325 -32.50029631 4.31145314
v -1.63706678 -30.59584035 5.45407587
v -0.54144235 -30.60857810 5.46266114
v -0.54144235 -30.06080940 5.77870912
v -1.12747404 -29.57036382 6.03161595
v -1.63706678 -29.55762607 6.03161595
v -2.19124897 -29.51304070 6.03161595
v -2.70721160 -29.46845533 6.03161595
v 0.54144235 -32.53214393 4.31145314
v -0.54144235 -29.58310482 6.03161595
v -1.49692876 -32.52577506 4.31145314
v -0.54144235 -32.53214393 4.31145314
f 1 2 3
f 1 3 4
f 1 4 5
f 1 5 15
f 1 15 14
f 1 14 13
f 1 13 31
f 1 31 40
f 1 40 48
f 1 48 58
f 1 58 70
f 1 70 82
f 1 82 90
f 1 90 89
f 1 89 97
f 1 97 108
f 1 108 121
f 1 121 135
f 1 135 148
f 1 148 159
f 1 159 158
f 1 158 169
f 1 169 179
f 1 179 190
f 1 190 202
f 1 202 208
f 1 208 218
f 1 218 225
f 1 225 235
f 1 235 247
f 1 247 257
f 1 257 267
f 1 267 277
f 1 277 286
f 1 286 289
f 1 289 297
f 1 297 306
f 1 306 305
f 1 305 304
f 1 304 314
f 1 314 323
f 1 323 327
f 1 327 337
f 1 337 347
f 1 347 361
f 1 361 372
f 1 372 393
f 1 393 410
f 1 410 421
f 1 421 420
f 1 420 430
f 1 430 433
f 1 433 432
f 1 432 448
f 1 448 461
f 1 461 471
f 1 471 479
f 1 479 490
f 1 490 501
f 1 501 512
f 1 512 520
f 1 520 529
f 1 529 542
f 1 542 553
f 1 553 556
f 1 556 555
f 1 555 545
f 1 545 536
f 1 536 524
f 1 524 514
f 1 514 505
f 1 505 491
f 1 491 481
f 1 481 474
f 1 474 463
f 1 463 449
f 1 449 434
f 1 434 423
f 1 423 416
f 1 416 412
f 1 412 396
f 1 396 376
f 1 376 363
f 1 363 349
f 1 349 338
f 1 338 328
f 1 328 319
f 1 319 308
f 1 308 299
f 1 299 292
f 1 292 283
f 1 283 282
f 1 282 275
f 1 275 264
f 1 264 261
f 1 261 251
f 1 251 241
f 1 241 232
f 1 232 224
f 1 224 216
f 1 216 206
f 1 206 198
f 1 198 186
f 1 186 174
f 1 174 164
f 1 164 149
f 1 149 136
f 1 136 123
f 1 123 112
f 1 112 102
f 1 102 93
f 1 93 85
f 1 85 72
f 1 72 60
f 1 60 49
f 1 49 42
f 1 42 32
f 1 32 16
f 1 16 6
f 1 6 2
f 2 6 3
f 3 6 7
f 3 7 8
f 3 8 9
f 3 9 10
f 3 10 4
f 4 10 11
f 4 11 12
f 4 12 13
f 4 13 14
f 4 14 15
f 4 15 5
f 6 16 17
f 6 17 7
f 7 18 19
f 7 19 8
f 7 17 20
f 7 20 21
f 7 21 18
f 8 19 22
f 8 22 9
f 9 22 23
f 9 23 24
f 9 24 10
f 10 24 25
f 10 25 11
f 11 25 26
f 11 26 12
f 12 26 27
f 12 27 28
f 12 28 29
f 12 29 30
f 12 30 31
f 12 31 13
f 16 32 33
f 16 33 34
f 16 34 17
f 17 34 35
f 17 35 20
f 18 21 20
f 18 20 35
f 18 35 44
f 18 44 53
f 18 53 52
f 18 52 65
f 18 65 64
f 18 64 76
f 18 76 75
f 18 75 73
f 18 73 74
f 18 74 86
f 18 86 94
f 18 94 104
f 18 104 100
f 18 100 111
f 18 111 110
f 18 110 122
f 18 122 127
f 18 127 141
f 18 141 140
f 18 140 137
f 18 137 152
f 18 152 166
f 18 166 165
f 18 165 175
f 18 175 172
f 18 172 171
f 18 171 185
f 18 185 197
f 18 197 205
f 18 205 215
f 18 215 214
f 18 214 222
f 18 222 229
f 18 229 231
f 18 231 240
f 18 240 239
f 18 239 246
f 18 246 245
f 18 245 244
f 18 244 256
f 18 256 255
f 18 255 254
f 18 254 266
f 18 266 265
f 18 265 276
f 18 276 285
f 18 285 294
f 18 294 302
f 18 302 312
f 18 312 322
f 18 322 321
f 18 321 332
f 18 332 342
f 18 342 356
f 18 356 355
f 18 355 354
f 18 354 370
f 18 370 369
f 18 369 386
f 18 386 385
f 18 385 384
f 18 384 383
f 18 383 382
f 18 382 380
f 18 380 379
f 18 379 399
f 18 399 401
f 18 401 400
f 18 400 417
f 18 417 415
f 18 415 425
f 18 425 428
f 18 428 427
f 18 427 436
f 18 436 455
f 18 455 467
f 18 467 466
f 18 466 475
f 18 475 482
f 18 482 493
f 18 493 495
f 18 495 494
f 18 494 507
f 18 507 516
f 18 516 523
f 18 523 535
f 18 535 540
f 18 540 552
f 18 552 551
f 18 551 550
f 18 550 549
f 18 549 554
f 18 554 543
f 18 543 534
f 18 534 533
f 18 533 532
f 18 532 528
f 18 528 527
f 18 527 526
f 18 526 518
f 18 518 517
f 18 517 508
f 18 508 498
f 18 498 497
f 18 497 496
f 18 496 485
f 18 485 477
f 18 477 468
f 18 468 459
f 18 459 458
f 18 458 457
f 18 457 456
f 18 456 439
f 18 439 438
f 18 438 437
f 18 437 429
f 18 429 418
f 18 418 407
f 18 407 406
f 18 406 404
f 18 404 403
f 18 403 402
f 18 402 411
f 18 411 394
f 18 394 387
f 18 387 371
f 18 371 360
f 18 360 359
f 18 359 357
f 18 357 344
f 18 344 343
f 18 343 334
f 18 334 333
f 18 333 324
f 18 324 318
f 18 318 307
f 18 307 298
f 18 298 291
f 18 291 290
f 18 290 280
f 18 280 279
f 18 279 272
f 18 272 271
f 18 271 270
f 18 270 260
f 18 260 250
f 18 250 238
f 18 238 237
f 18 237 226
f 18 226 219
f 18 219 209
f 18 209 203
f 18 203 193
f 18 193 192
f 18 192 187
f 18 187 176
f 18 176 167
f 18 167 155
f 18 155 154
f 18 154 153
f 18 153 143
f 18 143 145
f 18 145 142
f 18 142 132
f 18 132 131
f 18 131 130
f 18 130 128
f 18 128 115
f 18 115 105
f 18 105 95
f 18 95 87
f 18 87 78
f 18 78 77
f 18 77 67
f 18 67 66
f 18 66 55
f 18 55 54
f 18 54 45
f 18 45 37
f 18 37 36
f 18 36 29
f 18 29 28
f 18 28 27
f 18 27 26
f 18 26 25
f 18 25 24
f 18 24 23
f 18 23 22
f 18 22 19
f 29 36 30
f 30 36 37
f 30 37 38
f 30 38 31
f 31 38 39
f 31 39 40
f 32 41 33
f 32 42 41
f 33 41 43
f 33 43 44
f 33 44 34
f 34 44 35
f 37 45 38
f 38 45 39
f 39 45 46
f 39 46 47
f 39 47 40
f 40 47 48
f 41 42 49
f 41 49 50
f 41 50 43
f 43 50 51
f 43 51 52
f 43 52 53
f 43 53 44
f 45 54 46
f 46 54 55
f 46 55 56
f 46 56 57
f 46 57 47
f 47 57 48
f 48 57 56
f 48 56 58
f 49 59 51
f 49 51 50
f 49 60 61
f 49 61 62
f 49 62 59
f 51 59 63
f 51 63 64
f 51 64 65
f 51 65 52
f 55 66 56
f 56 66 67
f 56 67 68
f 56 68 69
f 56 69 58
f 58 69 70
f 59 62 63
f 60 71 61
f 60 72 71
f 61 73 62
f 61 71 74
f 61 74 73
f 62 73 63
f 63 73 75
f 63 75 76
f 63 76 64
f 67 77 68
f 68 77 78
f 68 78 79
f 68 79 69
f 69 79 80
f 69 80 70
f 70 80 81
f 70 81 82
f 71 83 74
f 71 72 84
f 71 84 83
f 72 85 84
f 74 83 86
f 78 87 88
f 78 88 81
f 78 81 80
f 78 80 79
f 81 88 89
f 81 89 90
f 81 90 82
f 83 84 86
f 84 85 91
f 84 91 92
f 84 92 86
f 85 93 92
f 85 92 91
f 86 92 94
f 87 95 88
f 88 95 96
f 88 96 89
f 89 96 97
f 92 98 94
f 92 93 98
f 93 99 100
f 93 100 101
f 93 101 98
f 93 102 103
f 93 103 99
f 94 98 104
f 95 105 106
f 95 106 96
f 96 106 107
f 96 107 97
f 97 107 106
f 97 106 108
f 98 101 109
f 98 109 104
f 99 110 111
f 99 111 100
f 99 103 110
f 100 109 101
f 100 104 109
f 102 112 113
f 102 113 103
f 103 113 114
f 103 114 110
f 105 115 116
f 105 116 106
f 106 116 108
f 108 116 117
f 108 117 118
f 108 118 119
f 108 119 120
f 108 120 121
f 110 114 122
f 112 123 124
f 112 124 125
f 112 125 113
f 113 125 124
f 113 124 126
f 113 126 114
f 114 127 122
f 114 126 127
f 115 128 116
f 116 128 129
f 116 129 117
f 117 129 130
f 117 130 119
f 117 119 118
f 119 130 131
f 119 131 132
f 119 132 120
f 120 133 134
f 120 134 121
f 120 132 133
f 121 134 135
f 123 136 124
f 124 137 126
f 124 136 138
f 124 138 139
f 124 139 137
f 126 140 141
f 126 141 127
f 126 137 140
f 128 130 129
f 132 142 133
f 133 143 144
f 133 144 134
f 133 142 145
f 133 145 143
f 134 144 146
f 134 146 147
f 134 147 148
f 134 148 135
f 136 149 150
f 136 150 151
f 136 151 138
f 137 139 152
f 138 151 139
f 139 151 152
f 143 153 144
f 144 153 154
f 144 154 155
f 144 155 146
f 146 156 157
f 146 157 158
f 146 158 159
f 146 159 147
f 146 155 156
f 147 159 148
f 149 160 161
f 149 161 162
f 149 162 163
f 149 163 150
f 149 164 160
f 150 165 151
f 150 163 165
f 151 165 166
f 151 166 152
f 155 167 156
f 156 167 168
f 156 168 157
f 157 168 169
f 157 169 158
f 160 170 171
f 160 171 161
f 160 164 170
f 161 171 172
f 161 172 173
f 161 173 162
f 162 173 163
f 163 173 165
f 164 174 170
f 165 173 175
f 167 176 168
f 168 176 177
f 168 177 169
f 169 178 179
f 169 177 180
f 169 180 181
f 169 181 182
f 169 182 178
f 170 183 184
f 170 184 171
f 170 174 183
f 171 184 185
f 172 175 173
f 174 186 183
f 176 187 188
f 176 188 180
f 176 180 177
f 178 189 190
f 178 190 179
f 178 182 191
f 178 191 189
f 180 188 181
f 181 188 182
f 182 188 192
f 182 192 193
f 182 193 191
f 183 194 185
f 183 185 184
f 183 186 194
f 185 194 195
f 185 195 196
f 185 196 197
f 186 198 199
f 186 199 195
f 186 195 194
f 187 192 188
f 189 191 200
f 189 200 201
f 189 201 190
f 190 201 202
f 191 193 203
f 191 203 200
f 195 199 196
f 196 199 204
f 196 204 205
f 196 205 197
f 198 206 204
f 198 204 199
f 200 203 201
f 201 203 207
f 201 207 202
f 202 207 208
f 203 209 210
f 203 210 211
f 203 211 207
f 204 212 213
f 204 213 214
f 204 214 215
f 204 215 205
f 204 206 212
f 206 216 217
f 206 217 212
f 207 211 218
f 207 218 208
f 209 219 210
f 210 219 220
f 210 220 221
f 210 221 211
f 211 221 218
f 212 217 213
f 213 222 214
f 213 217 223
f 213 223 222
f 216 224 223
f 216 223 217
f 218 221 220
f 218 220 225
f 219 226 220
f 220 226 227
f 220 227 228
f 220 228 225
f 222 223 229
f 223 230 231
f 223 231 229
f 223 224 230
f 224 232 233
f 224 233 234
f 224 234 230
f 225 228 236
f 225 236 235
f 226 237 227
f 227 237 238
f 227 238 236
f 227 236 228
f 230 234 239
f 230 239 240
f 230 240 231
f 232 241 242
f 232 242 243
f 232 243 233
f 233 243 244
f 233 244 245
f 233 245 234
f 234 245 246
f 234 246 239
f 235 236 248
f 235 248 249
f 235 249 247
f 236 238 248
f 238 250 249
f 238 249 248
f 241 251 252
f 241 252 242
f 242 252 243
f 243 253 254
f 243 254 255
f 243 255 256
f 243 256 244
f 243 252 253
f 247 249 258
f 247 258 259
f 247 259 257
f 249 250 258
f 250 260 258
f 251 261 252
f 252 262 263
f 252 263 253
f 252 261 264
f 252 264 262
f 253 263 265
f 253 265 266
f 253 266 254
f 257 259 268
f 257 268 269
f 257 269 267
f 258 260 270
f 258 270 271
f 258 271 259
f 259 271 272
f 259 272 268
f 262 273 263
f 262 264 273
f 263 274 265
f 263 273 274
f 264 275 273
f 265 274 276
f 267 269 278
f 267 278 277
f 268 272 279
f 268 279 280
f 268 280 281
f 268 281 278
f 268 278 269
f 273 275 282
f 273 282 283
f 273 283 274
f 274 283 284
f 274 284 276
f 276 284 285
f 277 278 286
f 278 281 287
f 278 287 288
f 278 288 289
f 278 289 286
f 280 290 281
f 281 290 291
f 281 291 287
f 283 292 293
f 283 293 284
f 284 293 285
f 285 293 294
f 287 295 296
f 287 296 288
f 287 291 295
f 288 296 289
f 289 296 297
f 291 298 295
f 292 299 300
f 292 300 301
f 292 301 293
f 293 301 294
f 294 301 302
f 295 298 303
f 295 303 304
f 295 304 305
f 295 305 296
f 296 305 306
f 296 306 297
f 298 307 303
f 299 308 309
f 299 309 310
f 299 310 300
f 300 310 311
f 300 311 312
f 300 312 301
f 301 312 302
f 303 307 313
f 303 313 304
f 304 313 315
f 304 315 316
f 304 316 317
f 304 317 314
f 307 318 315
f 307 315 313
f 308 319 309
f 309 320 311
f 309 311 310
f 309 319 320
f 311 321 322
f 311 322 312
f 311 320 321
f 314 317 323
f 315 318 324
f 315 324 316
f 316 324 325
f 316 325 317
f 317 325 326
f 317 326 327
f 317 327 323
f 319 328 329
f 319 329 330
f 319 330 331
f 319 331 320
f 320 331 332
f 320 332 321
f 324 333 325
f 325 333 334
f 325 334 335
f 325 335 326
f 326 335 336
f 326 336 327
f 327 336 337
f 328 338 329
f 329 338 339
f 329 339 340
f 329 340 341
f 329 341 330
f 330 341 331
f 331 341 342
f 331 342 332
f 334 343 335
f 335 343 336
f 336 343 344
f 336 344 345
f 336 345 346
f 336 346 337
f 337 346 348
f 337 348 347
f 338 349 350
f 338 350 351
f 338 351 352
f 338 352 353
f 338 353 339
f 339 353 354
f 339 354 340
f 340 354 355
f 340 355 341
f 341 355 356
f 341 356 342
f 344 357 345
f 345 358 348
f 345 348 346
f 345 357 359
f 345 359 360
f 345 360 358
f 347 348 361
f 348 358 362
f 348 362 361
f 349 363 364
f 349 364 365
f 349 365 366
f 349 366 367
f 349 367 350
f 350 367 351
f 351 367 368
f 351 368 352
f 352 368 353
f 353 368 369
f 353 369 370
f 353 370 354
f 358 360 371
f 358 371 362
f 361 362 373
f 361 373 374
f 361 374 375
f 361 375 372
f 362 371 373
f 363 376 364
f 364 377 378
f 364 378 379
f 364 379 380
f 364 380 365
f 364 376 377
f 365 380 381
f 365 381 367
f 365 367 366
f 367 381 382
f 367 382 383
f 367 383 384
f 367 384 385
f 367 385 368
f 368 385 386
f 368 386 369
f 371 387 373
f 372 375 388
f 372 388 389
f 372 389 390
f 372 390 391
f 372 391 392
f 372 392 393
f 373 387 394
f 373 394 395
f 373 395 374
f 374 395 375
f 375 395 389
f 375 389 388
f 376 396 377
f 377 397 398
f 377 398 378
f 377 396 397
f 378 399 379
f 378 398 400
f 378 400 401
f 378 401 399
f 380 382 381
f 389 395 402
f 389 402 403
f 389 403 404
f 389 404 405
f 389 405 391
f 389 391 390
f 391 405 406
f 391 406 392
f 392 406 407
f 392 407 408
f 392 408 409
f 392 409 410
f 392 410 393
f 394 411 395
f 395 411 402
f 396 412 397
f 397 413 414
f 397 414 415
f 397 415 398
f 397 412 416
f 397 416 413
f 398 415 417
f 398 417 400
f 404 406 405
f 407 418 408
f 408 418 419
f 408 419 409
f 409 420 421
f 409 421 410
f 409 419 422
f 409 422 420
f 413 416 423
f 413 423 424
f 413 424 414
f 414 425 415
f 414 424 426
f 414 426 427
f 414 427 428
f 414 428 425
f 418 429 419
f 419 429 422
f 420 422 430
f 422 429 431
f 422 431 432
f 422 432 433
f 422 433 430
f 423 434 424
f 424 434 435
f 424 435 426
f 426 435 436
f 426 436 427
f 429 437 431
f 431 437 438
f 431 438 439
f 431 439 440
f 431 440 441
f 431 441 432
f 432 440 442
f 432 442 443
f 432 443 444
f 432 444 445
f 432 445 446
f 432 446 447
f 432 447 448
f 432 441 440
f 434 449 450
f 434 450 451
f 434 451 452
f 434 452 453
f 434 453 454
f 434 454 435
f 435 454 436
f 436 454 453
f 436 453 455
f 439 456 440
f 440 456 442
f 442 456 443
f 443 456 444
f 444 456 457
f 444 457 458
f 444 458 459
f 444 459 446
f 444 446 445
f 446 459 447
f 447 459 460
f 447 460 461
f 447 461 448
f 449 462 450
f 449 463 464
f 449 464 465
f 449 465 462
f 450 462 466
f 450 466 451
f 451 466 453
f 451 453 452
f 453 466 467
f 453 467 455
f 459 468 469
f 459 469 460
f 460 469 470
f 460 470 461
f 461 470 472
f 461 472 471
f 462 465 473
f 462 473 466
f 463 474 464
f 464 475 473
f 464 473 465
f 464 474 476
f 464 476 475
f 466 473 475
f 468 477 478
f 468 478 472
f 468 472 469
f 469 472 470
f 471 472 478
f 471 478 479
f 474 480 476
f 474 481 480
f 475 476 482
f 476 480 483
f 476 483 484
f 476 484 482
f 477 485 478
f 478 485 486
f 478 486 487
f 478 487 488
f 478 488 479
f 479 487 489
f 479 489 490
f 479 488 487
f 480 481 483
f 481 491 492
f 481 492 483
f 482 484 493
f 483 492 484
f 484 492 494
f 484 494 495
f 484 495 493
f 485 496 486
f 486 496 497
f 486 497 498
f 486 498 489
f 486 489 487
f 489 498 499
f 489 499 500
f 489 500 490
f 490 500 499
f 490 499 502
f 490 502 501
f 491 503 504
f 491 504 492
f 491 505 506
f 491 506 503
f 492 504 494
f 494 504 507
f 498 508 499
f 499 508 509
f 499 509 510
f 499 510 502
f 501 510 511
f 501 511 512
f 501 502 510
f 503 506 504
f 504 506 513
f 504 513 507
f 505 514 515
f 505 515 506
f 506 515 513
f 507 513 516
f 508 517 509
f 509 517 518
f 509 518 511
f 509 511 510
f 511 518 519
f 511 519 512
f 512 519 521
f 512 521 522
f 512 522 520
f 513 515 523
f 513 523 516
f 514 524 525
f 514 525 515
f 515 525 523
f 518 526 519
f 519 526 527
f 519 527 528
f 519 528 521
f 520 522 530
f 520 530 531
f 520 531 529
f 521 528 532
f 521 532 522
f 522 533 534
f 522 534 530
f 522 532 533
f 523 525 535
f 524 536 537
f 524 537 538
f 524 538 539
f 524 539 525
f 525 539 540
f 525 540 535
f 529 531 541
f 529 541 542
f 530 534 543
f 530 543 544
f 530 544 541
f 530 541 531
f 536 545 546
f 536 546 537
f 537 546 547
f 537 547 548
f 537 548 549
f 537 549 550
f 537 550 538
f 538 550 551
f 538 551 552
f 538 552 540
f 538 540 539
f 541 553 542
f 541 544 548
f 541 548 547
f 541 547 556
f 541 556 553
f 543 554 548
f 543 548 544
f 545 555 547
f 545 547 546
f 547 555 556
f 548 554 549

