# https://github.com/mikedh/trimesh
v 0.02095494 -0.06358888 0.00530373
v 0.02096182 -0.06358635 0.00530373
v 0.02095494 -0.06358888 0.01167957
v 0.02095494 -0.06036793 0.00530373
v 0.02123691 -0.06342175 0.00530373
v 0.02095494 -0.06355596 0.01218929
v 0.02161400 -0.06319386 0.01167957
v 0.02232693 -0.06275832 0.01245702
v 0.02095494 -0.06110986 0.01275994
v 0.02970379 -0.03772507 0.00530373
v 0.02233495 -0.06276085 0.00530373
v 0.02233495 -0.06276085 0.01167957
v 0.02095494 -0.06349519 0.01303540
v 0.02303184 -0.06233545 0.01167957
v 0.02287825 -0.06233292 0.01298305
v 0.02222263 -0.06266970 0.01338722
v 0.02169997 -0.06305459 0.01298305
v 0.02095494 -0.06114532 0.01307401
v 0.03055885 -0.03772507 0.01311434
v 0.03265752 -0.03772507 0.00530373
v 0.02095494 -0.06126939 0.01372103
v 0.02273383 -0.06251776 0.00530373
v 0.02095494 -0.06329008 0.01361119
v 0.02303184 -0.06233545 0.00530373
v 0.02398432 -0.06163909 0.01167957
v 0.02393732 -0.06159098 0.01307401
v 0.02382844 -0.06147957 0.01388493
v 0.02129307 -0.06296343 0.01393985
v 0.03073765 -0.03772507 0.01360519
v 0.02095494 -0.06130991 0.01381028
v 0.03265752 -0.03772507 0.01167957
v 0.03265981 -0.03799095 0.00530373
v 0.02095494 -0.06310017 0.01395616
v 0.02398432 -0.06163909 0.00530373
v 0.02438434 -0.06107695 0.00530373
v 0.02468235 -0.06065660 0.01167957
v 0.02510070 -0.05996025 0.01237807
v 0.02467432 -0.06051733 0.01293585
v 0.02300891 -0.06173785 0.01399992
v 0.02501245 -0.05985643 0.01330828
v 0.02652885 -0.05722802 0.01380770
v 0.02530587 -0.05892458 0.01393642
v 0.02408060 -0.06065660 0.01400164
v 0.03080069 -0.03772507 0.01364895
v 0.02095494 -0.06161377 0.01395873
v 0.03256926 -0.03772507 0.01307401
v 0.03266210 -0.03834799 0.01167957
v 0.03266210 -0.03834799 0.00530373
v 0.02095494 -0.06275579 0.01399906
v 0.02468235 -0.06065660 0.00530373
v 0.02486115 -0.06036034 0.00530373
v 0.02539184 -0.05933986 0.01293585
v 0.02621594 -0.05810162 0.01167957
v 0.02886478 -0.05368548 0.01167957
v 0.02928314 -0.05298659 0.01237807
v 0.02658960 -0.05732930 0.01307401
v 0.02297682 -0.06062622 0.01407029
v 0.02811976 -0.05477179 0.01307401
v 0.02957313 -0.05236620 0.01293585
v 0.02919489 -0.05288277 0.01330828
v 0.02801087 -0.05459200 0.01388579
v 0.02948831 -0.05195346 0.01393642
v 0.02826303 -0.05368548 0.01400164
v 0.02971869 -0.05089500 0.01402223
v 0.02722459 -0.05506552 0.01402052
v 0.03127063 -0.03772507 0.01396731
v 0.02095494 -0.06210502 0.01399134
v 0.03227584 -0.03772507 0.01397675
v 0.03257384 -0.03834799 0.01307401
v 0.03236409 -0.03974323 0.01307401
v 0.03207984 -0.04188293 0.01245874
v 0.03244432 -0.03974323 0.01167957
v 0.03256926 -0.03894305 0.00530373
v 0.02952269 -0.05258904 0.00530373
v 0.02970150 -0.05229024 0.01167957
v 0.03108151 -0.04392641 0.01406256
v 0.03026313 -0.04392641 0.01406256
v 0.03035597 -0.04253117 0.01404369
v 0.03039838 -0.05092792 0.01167957
v 0.03068493 -0.05022397 0.01245874
v 0.03035712 -0.05076839 0.01298391
v 0.03058865 -0.04995049 0.01338808
v 0.03071129 -0.04902118 0.01381285
v 0.03078350 -0.04810959 0.01389008
v 0.03089010 -0.04671435 0.01398190
v 0.03098867 -0.04532165 0.01403940
v 0.03137379 -0.03974323 0.01401365
v 0.03227813 -0.03834799 0.01397933
v 0.03217841 -0.03974323 0.01389008
v 0.03210620 -0.04065481 0.01381285
v 0.03214861 -0.04112580 0.01298391
v 0.03075370 -0.04949217 0.01298391
v 0.03081674 -0.04950483 0.01167957
v 0.03151477 -0.04532165 0.01167957
v 0.03244432 -0.03974323 0.00530373
v 0.02970150 -0.05229024 0.00530373
v 0.03039838 -0.05092792 0.00530373
v 0.03052217 -0.05063419 0.00530373
v 0.03068951 -0.05023410 0.01167957
v 0.03076287 -0.04981629 0.00530373
v 0.03081674 -0.04950483 0.00530373
v 0.03095084 -0.04870466 0.00530373
v 0.03151477 -0.04532165 0.00530373
v 0.03068951 -0.05023410 0.00530373
f 1 2 3
f 1 3 6
f 1 6 13
f 1 13 23
f 1 23 33
f 1 33 49
f 1 49 67
f 1 67 45
f 1 45 30
f 1 30 21
f 1 21 18
f 1 18 9
f 1 9 4
f 1 4 10
f 1 10 20
f 1 20 32
f 1 32 48
f 1 48 73
f 1 73 95
f 1 95 103
f 1 103 102
f 1 102 101
f 1 101 100
f 1 100 104
f 1 104 98
f 1 98 97
f 1 97 96
f 1 96 74
f 1 74 51
f 1 51 50
f 1 50 35
f 1 35 34
f 1 34 24
f 1 24 22
f 1 22 11
f 1 11 5
f 1 5 2
f 2 5 3
f 3 5 7
f 3 7 8
f 3 8 6
f 4 9 10
f 5 11 12
f 5 12 7
f 6 8 13
f 7 12 8
f 8 14 15
f 8 15 16
f 8 16 17
f 8 17 13
f 8 12 14
f 9 18 10
f 10 19 29
f 10 29 44
f 10 44 66
f 10 66 68
f 10 68 46
f 10 46 31
f 10 31 20
f 10 18 21
f 10 21 19
f 11 22 12
f 12 22 14
f 13 17 16
f 13 16 23
f 14 22 24
f 14 24 34
f 14 34 25
f 14 25 26
f 14 26 15
f 15 26 27
f 15 27 16
f 16 27 28
f 16 28 23
f 19 21 30
f 19 30 29
f 20 31 32
f 23 28 33
f 25 35 36
f 25 36 26
f 25 34 35
f 26 36 37
f 26 37 38
f 26 38 27
f 27 39 28
f 27 38 40
f 27 40 41
f 27 41 42
f 27 42 43
f 27 43 39
f 28 39 33
f 29 30 45
f 29 45 44
f 31 46 69
f 31 69 47
f 31 47 32
f 32 47 48
f 33 39 49
f 35 50 36
f 36 50 51
f 36 51 37
f 37 52 38
f 37 51 53
f 37 53 54
f 37 54 55
f 37 55 56
f 37 56 52
f 38 52 41
f 38 41 40
f 39 43 57
f 39 57 49
f 41 56 58
f 41 58 59
f 41 59 60
f 41 60 61
f 41 61 42
f 41 52 56
f 42 61 62
f 42 62 63
f 42 63 43
f 43 63 64
f 43 64 65
f 43 65 57
f 44 45 66
f 45 67 66
f 46 68 69
f 47 69 70
f 47 70 71
f 47 71 72
f 47 72 73
f 47 73 48
f 49 57 67
f 51 74 53
f 53 74 54
f 54 74 75
f 54 75 55
f 55 59 58
f 55 58 56
f 55 75 59
f 57 65 64
f 57 64 76
f 57 76 77
f 57 77 78
f 57 78 67
f 59 75 79
f 59 79 80
f 59 80 81
f 59 81 62
f 59 62 60
f 60 62 61
f 62 81 82
f 62 82 83
f 62 83 64
f 62 64 63
f 64 83 84
f 64 84 85
f 64 85 86
f 64 86 76
f 66 78 87
f 66 87 68
f 66 67 78
f 68 87 76
f 68 76 88
f 68 88 69
f 69 88 89
f 69 89 90
f 69 90 70
f 70 90 91
f 70 91 71
f 71 91 92
f 71 92 80
f 71 80 93
f 71 93 94
f 71 94 72
f 72 95 73
f 72 94 103
f 72 103 95
f 74 96 75
f 75 96 97
f 75 97 79
f 76 87 77
f 76 86 88
f 77 87 78
f 79 97 98
f 79 98 99
f 79 99 80
f 80 92 82
f 80 82 81
f 80 99 93
f 82 92 83
f 83 92 91
f 83 91 90
f 83 90 89
f 83 89 84
f 84 89 85
f 85 89 88
f 85 88 86
f 93 99 100
f 93 100 101
f 93 101 102
f 93 102 94
f 94 102 103
f 98 104 99
f 99 104 100

