# https://github.com/mikedh/trimesh
v 0.01874661 -0.01735446 0.00460153
v 0.02295441 -0.01735446 0.00530775
v 0.02622804 -0.01735446 0.00460153
v 0.02723846 -0.03772254 0.00460153
v 0.02970594 -0.03772254 0.00530775
v 0.02622804 -0.01735446 0.00530775
v 0.02659299 -0.01796255 0.00460153
v 0.03265821 -0.03772254 0.00460153
v 0.03265821 -0.03772254 0.00530775
v 0.02659299 -0.01796255 0.00530775
v 0.02966101 -0.02307650 0.00460153
v 0.03265140 -0.03695096 0.00460153
v 0.03265140 -0.03695096 0.00530775
v 0.02966101 -0.02307650 0.00530775
v 0.03030511 -0.02430066 0.00460153
v 0.03242126 -0.03555733 0.00460153
v 0.03252067 -0.03615745 0.00530775
v 0.03035822 -0.02440234 0.00530775
v 0.03035822 -0.02440234 0.00460153
v 0.03218977 -0.03416171 0.00460153
v 0.03242126 -0.03555733 0.00530775
v 0.03054069 -0.02479909 0.00530775
v 0.03038273 -0.02445417 0.00460153
v 0.03218977 -0.03416171 0.00530775
v 0.03149256 -0.02997884 0.00460153
v 0.03067823 -0.02509816 0.00530775
v 0.03067823 -0.02509816 0.00460153
v 0.03149256 -0.02997884 0.00530775
v 0.03079534 -0.02579796 0.00460153
v 0.03112761 -0.02778971 0.00530775
v 0.03072861 -0.02539921 0.00530775
v 0.03079534 -0.02579796 0.00530775
f 1 2 6
f 1 6 3
f 1 3 7
f 1 7 11
f 1 11 15
f 1 15 19
f 1 19 23
f 1 23 27
f 1 27 29
f 1 29 25
f 1 25 20
f 1 20 16
f 1 16 12
f 1 12 8
f 1 8 4
f 1 4 5
f 1 5 2
f 2 5 9
f 2 9 13
f 2 13 17
f 2 17 21
f 2 21 24
f 2 24 28
f 2 28 30
f 2 30 32
f 2 32 31
f 2 31 26
f 2 26 22
f 2 22 18
f 2 18 14
f 2 14 10
f 2 10 6
f 3 6 10
f 3 10 7
f 4 8 9
f 4 9 5
f 7 10 14
f 7 14 11
f 8 12 13
f 8 13 9
f 11 14 15
f 12 16 17
f 12 17 13
f 14 18 15
f 15 18 19
f 16 20 24
f 16 24 21
f 16 21 17
f 18 22 23
f 18 23 19
f 20 25 28
f 20 28 24
f 22 26 23
f 23 26 27
f 25 29 30
f 25 30 28
f 26 31 27
f 27 31 29
f 29 31 32
f 29 32 30

