# https://github.com/mikedh/trimesh
v 0.02095380 -0.05539715 0.00459745
v 0.02095380 -0.06036970 0.00530367
v 0.02095380 -0.06359138 0.00459745
v -0.00003016 -0.06491407 0.00459745
v -0.00003016 -0.06738349 0.00530367
v 0.02095380 -0.06307814 0.00530367
v 0.02095380 -0.06359138 0.00529454
v 0.01536013 -0.06694650 0.00459745
v -0.00003016 -0.07037640 0.00459745
v -0.00003016 -0.07037787 0.00530367
v 0.02094764 -0.06359431 0.00530367
v 0.01536013 -0.06694650 0.00530367
v 0.01464115 -0.06737762 0.00459745
v 0.00069909 -0.07037640 0.00459745
v 0.00069909 -0.07037787 0.00530367
v 0.01464115 -0.06737762 0.00530367
v 0.01390163 -0.06776915 0.00530367
v 0.01334904 -0.06806096 0.00459745
v 0.00209186 -0.07015057 0.00459745
v 0.00209186 -0.07015057 0.00530367
v 0.01334904 -0.06806096 0.00530367
v 0.01265266 -0.06836744 0.00459745
v 0.00442546 -0.06976198 0.00459745
v 0.00442546 -0.06976198 0.00530367
v 0.01265266 -0.06836744 0.00530367
v 0.01219456 -0.06845689 0.00530367
v 0.01185151 -0.06852287 0.00459745
v 0.00767115 -0.06922088 0.00459745
v 0.00767115 -0.06922088 0.00530367
v 0.01185151 -0.06852287 0.00530367
v 0.01174058 -0.06854194 0.00459745
v 0.00895504 -0.06900679 0.00459745
v 0.01045874 -0.06875603 0.00530367
v 0.01045874 -0.06875603 0.00459745
f 1 2 6
f 1 6 7
f 1 7 3
f 1 3 8
f 1 8 13
f 1 13 18
f 1 18 22
f 1 22 27
f 1 27 31
f 1 31 34
f 1 34 32
f 1 32 28
f 1 28 23
f 1 23 19
f 1 19 14
f 1 14 9
f 1 9 4
f 1 4 5
f 1 5 2
f 2 5 10
f 2 10 15
f 2 15 20
f 2 20 24
f 2 24 29
f 2 29 33
f 2 33 30
f 2 30 26
f 2 26 25
f 2 25 21
f 2 21 17
f 2 17 16
f 2 16 12
f 2 12 11
f 2 11 6
f 3 7 12
f 3 12 8
f 4 9 10
f 4 10 5
f 6 11 7
f 7 11 12
f 8 12 16
f 8 16 13
f 9 14 15
f 9 15 10
f 13 16 17
f 13 17 18
f 14 19 15
f 15 19 20
f 17 21 18
f 18 21 25
f 18 25 22
f 19 23 24
f 19 24 20
f 22 25 26
f 22 26 27
f 23 28 29
f 23 29 24
f 26 30 27
f 27 30 31
f 28 32 29
f 29 32 33
f 30 33 31
f 31 33 34
f 32 34 33

