# https://github.com/mikedh/trimesh
v 0.00069892 -0.00505793 0.00530775
v 0.00149384 -0.00518673 0.00530775
v 0.00080405 -0.00507478 0.00460153
v 0.00069892 -0.00505793 0.00460153
v 0.00003221 -0.00505793 0.00530775
v 0.00209387 -0.00528424 0.00460153
v 0.00209387 -0.00528424 0.00530775
v 0.00003221 -0.00505793 0.00460153
v 0.00003221 -0.00796624 0.00530775
v 0.00906610 -0.00644588 0.00460153
v 0.00906610 -0.00644588 0.00530775
v 0.00003221 -0.01045805 0.00460153
v 0.02294900 -0.01734723 0.00530775
v 0.01168934 -0.00688405 0.00460153
v 0.01168934 -0.00688405 0.00530775
v 0.01874618 -0.01735446 0.00460153
v 0.02294900 -0.01735446 0.00530339
v 0.02354904 -0.01735446 0.00530775
v 0.01233297 -0.00699480 0.00460153
v 0.01238681 -0.00700684 0.00530775
v 0.01238681 -0.00700443 0.00470800
v 0.02622869 -0.01735446 0.00460153
v 0.02622869 -0.01735446 0.00530775
v 0.01238681 -0.00700443 0.00460153
v 0.01287915 -0.00719583 0.00530775
v 0.01245349 -0.00702971 0.00460153
v 0.02617484 -0.01726417 0.00460153
v 0.02617484 -0.01726417 0.00530775
v 0.01324584 -0.00733908 0.00530775
v 0.01324584 -0.00733667 0.00470800
v 0.01324584 -0.00733667 0.00460153
v 0.02529786 -0.01580279 0.00530775
v 0.02505939 -0.01540555 0.00460153
v 0.01455105 -0.00800235 0.00530775
v 0.01334585 -0.00738723 0.00460153
v 0.02505939 -0.01540555 0.00530775
v 0.02502349 -0.01534656 0.00460153
v 0.01455105 -0.00800235 0.00460153
v 0.01485107 -0.00818172 0.00530775
v 0.02459013 -0.01464115 0.00530775
v 0.02459013 -0.01464115 0.00460153
v 0.01524853 -0.00842006 0.00460153
v 0.01569727 -0.00868850 0.00530775
v 0.02393368 -0.01372027 0.00530775
v 0.02393368 -0.01372027 0.00460153
v 0.01603576 -0.00889194 0.00460153
v 0.02222075 -0.01260197 0.00530775
v 0.02222075 -0.01260197 0.00460153
v 0.02300798 -0.01307505 0.00530775
v 0.02300798 -0.01307505 0.00460153
v 0.02266950 -0.01287161 0.00530775
f 1 2 3
f 1 3 4
f 1 4 8
f 1 8 5
f 1 5 9
f 1 9 13
f 1 13 18
f 1 18 23
f 1 23 28
f 1 28 32
f 1 32 36
f 1 36 40
f 1 40 44
f 1 44 49
f 1 49 51
f 1 51 47
f 1 47 43
f 1 43 39
f 1 39 34
f 1 34 29
f 1 29 25
f 1 25 20
f 1 20 15
f 1 15 11
f 1 11 7
f 1 7 2
f 2 6 3
f 2 7 6
f 3 6 10
f 3 10 14
f 3 14 19
f 3 19 24
f 3 24 26
f 3 26 31
f 3 31 35
f 3 35 38
f 3 38 42
f 3 42 46
f 3 46 48
f 3 48 50
f 3 50 45
f 3 45 41
f 3 41 37
f 3 37 33
f 3 33 27
f 3 27 22
f 3 22 16
f 3 16 12
f 3 12 8
f 3 8 4
f 5 8 12
f 5 12 9
f 6 7 11
f 6 11 10
f 9 12 13
f 10 11 15
f 10 15 14
f 12 16 13
f 13 16 17
f 13 17 18
f 14 15 19
f 15 20 21
f 15 21 19
f 16 22 23
f 16 23 18
f 16 18 17
f 19 21 24
f 20 25 21
f 21 26 24
f 21 25 26
f 22 27 28
f 22 28 23
f 25 29 30
f 25 30 26
f 26 30 31
f 27 32 28
f 27 33 32
f 29 34 30
f 30 34 35
f 30 35 31
f 32 33 36
f 33 37 36
f 34 38 35
f 34 39 38
f 36 37 40
f 37 41 40
f 38 39 42
f 39 43 42
f 40 41 45
f 40 45 44
f 42 43 46
f 43 47 48
f 43 48 46
f 44 45 50
f 44 50 49
f 47 51 48
f 48 51 50
f 49 50 51

