# https://github.com/mikedh/trimesh
v 0.21031674 10.85583651 15.14509140
v 0.21031674 10.85646979 15.14509713
v 0.21031674 10.85333951 15.14517723
v 0.20781375 10.85583651 15.14514290
v 0.20781375 10.85896958 15.14516293
v 0.21031674 10.85896958 15.14513146
v 0.21031674 10.85270346 15.14521155
v 0.20781375 10.85270346 15.14530597
v 0.20468182 10.85583651 15.14532314
v 0.20468182 10.85896958 15.14532314
v 0.20781375 10.86209986 15.14533173
v 0.21031674 10.86209986 15.14528023
v 0.20154990 10.86209986 15.14561496
v 0.20468182 10.86209986 15.14546904
v 0.21031674 10.84957596 15.14544045
v 0.20781375 10.84957596 15.14552627
v 0.20468182 10.84957596 15.14568362
v 0.20468182 10.85270346 15.14548907
v 0.20154990 10.85896958 15.14553772
v 0.20154990 10.85270346 15.14569793
v 0.19841798 10.85583651 15.14581809
v 0.20781375 10.86523291 15.14553772
v 0.20468182 10.86523291 15.14564929
v 0.21031674 10.86273314 15.14532314
v 0.20154990 10.86523291 15.14581236
v 0.19841798 10.86209986 15.14586959
v 0.19841798 10.86523291 15.14605269
v 0.21031674 10.84644290 15.14574656
v 0.20781375 10.84644290 15.14581809
v 0.20468182 10.84644290 15.14598975
v 0.20154990 10.84957596 15.14591251
v 0.19841798 10.85896958 15.14580665
v 0.19841798 10.85270346 15.14594683
v 0.19529241 10.85583651 15.14612422
v 0.20781375 10.86566621 15.14557490
v 0.20996734 10.86566621 15.14555487
v 0.21031674 10.86523291 15.14551483
v 0.20468182 10.86566621 15.14568649
v 0.20112427 10.86566621 15.14588389
v 0.20154990 10.86566621 15.14585242
v 0.19529241 10.85896958 15.14613279
v 0.19513359 10.86202764 15.14624724
v 0.19604204 10.86523291 15.14631018
v 0.19615639 10.86566621 15.14632735
v 0.19799870 10.86566621 15.14612993
v 0.19844339 10.86566621 15.14608988
v 0.21031674 10.84394589 15.14604696
v 0.20780739 10.84311541 15.14623294
v 0.20468182 10.83729370 15.14707120
v 0.20444042 10.83729370 15.14708264
v 0.20154990 10.84017956 15.14690813
v 0.19841798 10.84331261 15.14675649
v 0.19529241 10.84331261 15.14702256
v 0.18902857 10.84644290 15.14741738
v 0.18902857 10.84957596 15.14717706
v 0.19530512 10.85283122 15.14627298
v 0.19352634 10.85396168 15.14639315
v 0.18589665 10.85583651 15.14726575
v 0.18589665 10.85896958 15.14726003
v 0.21031674 10.86566621 15.14555202
v 0.19356446 10.86093607 15.14639601
v 0.18902857 10.86209986 15.14699396
v 0.19216049 10.86523291 15.14679655
v 0.19216049 10.86566621 15.14683374
v 0.21031674 10.84327373 15.14613279
v 0.20884290 10.84157665 15.14639315
v 0.20781375 10.83729370 15.14698537
v 0.20154990 10.83729370 15.14725717
v 0.19841798 10.84017956 15.14711411
v 0.19529241 10.84017956 15.14739735
v 0.18878081 10.83729370 15.14843590
v 0.18902857 10.84017956 15.14807827
v 0.18589665 10.84017956 15.14842731
v 0.18589665 10.84331261 15.14808399
v 0.18589665 10.84644290 15.14778359
v 0.18589665 10.84957596 15.14755471
v 0.18589665 10.85270346 15.14739735
v 0.18276473 10.85270346 15.14781220
v 0.18276473 10.85583651 15.14769203
v 0.18589665 10.86209986 15.14741738
v 0.17963280 10.85583651 15.14819557
v 0.17963280 10.85896958 15.14827568
v 0.17963280 10.86209986 15.14841015
v 0.21031674 10.86566621 15.15619489
v 0.18902857 10.86523291 15.14722569
v 0.18902857 10.86566621 15.14726575
v 0.21031674 10.84143778 15.14637598
v 0.21013251 10.83729370 15.14694246
v 0.20130850 10.83729370 15.14727433
v 0.19817657 10.83729370 15.14753468
v 0.18902857 10.83729370 15.14841015
v 0.18589665 10.83729370 15.14881926
v 0.18276473 10.84017956 15.14885074
v 0.18276473 10.84331261 15.14849883
v 0.18276473 10.84644290 15.14821846
v 0.18276473 10.84957596 15.14800102
v 0.17963280 10.85270346 15.14828998
v 0.17963280 10.86523291 15.14860756
v 0.18276473 10.86523291 15.14813549
v 0.17650723 10.85270346 15.14885360
v 0.17650723 10.85583651 15.14876777
v 0.17650723 10.85896958 15.14881926
v 0.17650723 10.86209986 15.14896232
v 0.21031674 10.83729370 15.15850371
v 0.14541672 10.86566621 15.17232801
v 0.18276473 10.86566621 15.14818699
v 0.21031674 10.83729370 15.14693960
v 0.18564889 10.83729370 15.14885360
v 0.18075725 10.83817973 15.14946299
v 0.17967727 10.84038509 15.14935141
v 0.17963280 10.84331261 15.14901095
v 0.17963280 10.84644290 15.14872199
v 0.17963280 10.84957596 15.14849883
v 0.17641830 10.86513293 15.14924555
v 0.17923893 10.86566621 15.14874488
v 0.17960104 10.86566621 15.14867336
v 0.17650723 10.84957596 15.14907103
v 0.17235887 10.85270346 15.14965467
v 0.17376919 10.85583651 15.14931135
v 0.17220005 10.85583651 15.14963179
v 0.17397247 10.85896958 15.14933997
v 0.17438541 10.86209986 15.14942293
v 0.17472846 10.86402469 15.14950018
v 0.14541672 10.83729370 15.17431926
v 0.14541672 10.86566621 15.15855234
v 0.18249156 10.83729370 15.14934283
v 0.18124006 10.83729370 15.14955168
v 0.17986786 10.83729370 15.14982634
v 0.17866718 10.83947684 15.14967184
v 0.17794296 10.84156554 15.14952593
v 0.17743474 10.84331261 15.14941721
v 0.17638018 10.84670398 15.14932280
v 0.17355954 10.86513293 15.14992361
v 0.17451246 10.86566621 15.14977197
v 0.17582113 10.86566621 15.14946299
v 0.17662794 10.86566621 15.14927416
v 0.17294332 10.84957596 15.14978056
v 0.17024339 10.84957596 15.15034417
v 0.17024339 10.85270346 15.15010671
v 0.17240334 10.85896958 15.14968329
v 0.17024339 10.85583651 15.15008096
v 0.17281627 10.86209986 15.14978628
v 0.17024339 10.86209986 15.15040426
v 0.17024339 10.86523291 15.15073899
v 0.14541672 10.83729370 15.16021745
v 0.14541672 10.86523291 15.15848369
v 0.14559460 10.86566621 15.15848082
v 0.17651994 10.83729370 15.15056161
v 0.17625948 10.83729370 15.15061883
v 0.17337531 10.84017956 15.15074757
v 0.17674864 10.84038509 15.14996080
v 0.17337531 10.84331261 15.15030698
v 0.17586560 10.84331261 15.14974909
v 0.17525574 10.84583462 15.14961748
v 0.17024339 10.86566621 15.15081337
v 0.16711147 10.84957596 15.15103653
v 0.16711147 10.85270346 15.15085057
v 0.17024339 10.85896958 15.15019541
v 0.16711147 10.85583651 15.15086201
v 0.16711147 10.86209986 15.15117959
v 0.16711147 10.86523291 15.15153434
v 0.14541672 10.84004623 15.15952795
v 0.14762749 10.83729370 15.15929620
v 0.14541672 10.86480796 15.15843504
v 0.14801501 10.86566621 15.15751953
v 0.14831994 10.86523291 15.15733071
v 0.17312755 10.83729370 15.15134838
v 0.17024339 10.84017956 15.15148284
v 0.17024339 10.84331261 15.15103081
v 0.16711147 10.84644290 15.15139129
v 0.16671760 10.86566621 15.15170887
v 0.16373814 10.84630124 15.15225532
v 0.16397955 10.84957596 15.15183761
v 0.16397955 10.85270346 15.15170028
v 0.16711147 10.85896958 15.15097645
v 0.16397955 10.85583651 15.15173175
v 0.16397955 10.85896958 15.15185191
v 0.16397955 10.86209986 15.15206363
v 0.16392237 10.86493294 15.15237834
v 0.14541672 10.84027677 15.15947359
v 0.14644587 10.84122668 15.15882128
v 0.14707480 10.83913798 15.15907019
v 0.14900604 10.83729370 15.15874118
v 0.14541672 10.86230539 15.15815181
v 0.14831994 10.86566621 15.15739937
v 0.15125493 10.86566621 15.15635797
v 0.15158527 10.86536346 15.15619489
v 0.15086741 10.86209986 15.15610620
v 0.14831994 10.86209986 15.15700741
v 0.17005281 10.83729370 15.15209510
v 0.16711147 10.84331261 15.15176608
v 0.16508493 10.84120724 15.15256430
v 0.16450683 10.84331261 15.15241267
v 0.16298851 10.86566621 15.15275026
v 0.16294405 10.84331261 15.15281893
v 0.16253747 10.84516245 15.15271307
v 0.16096833 10.84630124 15.15301061
v 0.16209277 10.84725116 15.15259577
v 0.16011070 10.84957596 15.15290762
v 0.15990741 10.85270346 15.15286184
v 0.16159725 10.85583651 15.15243842
v 0.16002812 10.85583651 15.15291048
v 0.16185137 10.85896958 15.15250422
v 0.16240406 10.86368861 15.15267874
v 0.14541672 10.84225437 15.15903586
v 0.14592494 10.84331261 15.15861243
v 0.14831994 10.84331261 15.15764542
v 0.14819924 10.84018233 15.15837211
v 0.14541672 10.84331261 15.15882128
v 0.14918392 10.83729370 15.15867251
v 0.14541672 10.85896958 15.15798301
v 0.15157256 10.86566621 15.15624639
v 0.15200455 10.86566621 15.15610334
v 0.15272242 10.86440521 15.15573142
v 0.15062600 10.85896958 15.15604613
v 0.14831994 10.85896958 15.15687867
v 0.16962082 10.83729370 15.15220381
v 0.16401767 10.84017123 15.15308786
v 0.16084763 10.84017956 15.15402627
v 0.16084763 10.84331261 15.15342546
v 0.16822321 10.83729370 15.15255572
v 0.15771570 10.84644290 15.15390324
v 0.15771570 10.84957596 15.15360284
v 0.15771570 10.85270346 15.15354276
v 0.15458378 10.85583651 15.15464710
v 0.14541672 10.84388757 15.15872115
v 0.14831994 10.84644290 15.15712758
v 0.15277959 10.84446807 15.15572855
v 0.15162339 10.84337927 15.15637228
v 0.15145186 10.84017956 15.15714761
v 0.15145186 10.83729370 15.15785140
v 0.14541672 10.85873626 15.15798015
v 0.14831994 10.85583651 15.15682717
v 0.14831994 10.85270346 15.15678426
v 0.15203632 10.85583651 15.15547106
v 0.15047354 10.85583651 15.15602037
v 0.16664136 10.83729370 15.15299631
v 0.15771570 10.84331261 15.15436673
v 0.16397955 10.83729370 15.15379453
v 0.16373179 10.83729370 15.15386891
v 0.16084763 10.83729370 15.15476727
v 0.15683902 10.83729370 15.15602037
v 0.15624821 10.83874079 15.15584585
v 0.15746160 10.83994346 15.15516207
v 0.15549223 10.84082950 15.15558836
v 0.15458378 10.84644290 15.15485595
v 0.15458378 10.84957596 15.15459274
v 0.15458378 10.85270346 15.15455268
v 0.14541672 10.84657344 15.15828628
v 0.14831994 10.84957596 15.15683003
v 0.15082929 10.84644290 15.15616056
v 0.14541672 10.84957596 15.15800018
v 0.15450120 10.84337927 15.15537379
v 0.15340852 10.84238214 15.15594884
v 0.15239843 10.84644290 15.15558836
v 0.15450120 10.83994346 15.15614340
v 0.15457743 10.83729370 15.15676995
v 0.14541672 10.85560321 15.15794582
v 0.15040365 10.85270346 15.15600035
v 0.14541672 10.85247292 15.15793438
v 0.14541672 10.85270346 15.15793151
v 0.15196644 10.85270346 15.15543673
v 0.15203632 10.84957596 15.15546534
v 0.15047354 10.84957596 15.15602323
f 1 2 6
f 1 6 12
f 1 12 24
f 1 24 37
f 1 37 60
f 1 60 84
f 1 84 104
f 1 104 107
f 1 107 87
f 1 87 65
f 1 65 47
f 1 47 28
f 1 28 15
f 1 15 7
f 1 7 3
f 1 3 4
f 1 4 5
f 1 5 2
f 2 5 6
f 3 7 8
f 3 8 4
f 4 8 9
f 4 9 10
f 4 10 5
f 5 11 12
f 5 12 6
f 5 10 13
f 5 13 14
f 5 14 11
f 7 15 16
f 7 16 8
f 8 16 17
f 8 17 18
f 8 18 9
f 9 19 10
f 9 18 20
f 9 20 21
f 9 21 19
f 10 19 13
f 11 22 12
f 11 14 23
f 11 23 22
f 12 22 24
f 13 25 23
f 13 23 14
f 13 19 26
f 13 26 27
f 13 27 25
f 15 28 29
f 15 29 16
f 16 29 17
f 17 29 30
f 17 30 31
f 17 31 20
f 17 20 18
f 19 21 32
f 19 32 26
f 20 31 33
f 20 33 21
f 21 33 34
f 21 34 32
f 22 35 36
f 22 36 37
f 22 37 24
f 22 23 38
f 22 38 35
f 23 25 38
f 25 27 39
f 25 39 40
f 25 40 38
f 26 32 41
f 26 41 42
f 26 42 43
f 26 43 27
f 27 43 44
f 27 44 45
f 27 45 46
f 27 46 39
f 28 47 29
f 29 47 48
f 29 48 49
f 29 49 50
f 29 50 30
f 30 50 51
f 30 51 52
f 30 52 31
f 31 52 53
f 31 53 33
f 32 34 41
f 33 53 54
f 33 54 55
f 33 55 56
f 33 56 57
f 33 57 34
f 34 57 58
f 34 58 59
f 34 59 41
f 35 38 40
f 35 40 39
f 35 39 46
f 35 46 45
f 35 45 44
f 35 44 64
f 35 64 86
f 35 86 106
f 35 106 116
f 35 116 115
f 35 115 136
f 35 136 135
f 35 135 134
f 35 134 155
f 35 155 171
f 35 171 194
f 35 194 213
f 35 213 212
f 35 212 186
f 35 186 185
f 35 185 165
f 35 165 147
f 35 147 125
f 35 125 105
f 35 105 84
f 35 84 60
f 35 60 36
f 36 60 37
f 41 59 61
f 41 61 42
f 42 61 62
f 42 62 43
f 43 62 63
f 43 63 44
f 44 63 64
f 47 65 66
f 47 66 48
f 48 66 49
f 49 66 67
f 49 67 88
f 49 88 107
f 49 107 104
f 49 104 124
f 49 124 145
f 49 145 163
f 49 163 183
f 49 183 210
f 49 210 231
f 49 231 257
f 49 257 242
f 49 242 241
f 49 241 240
f 49 240 239
f 49 239 237
f 49 237 221
f 49 221 217
f 49 217 190
f 49 190 167
f 49 167 149
f 49 149 148
f 49 148 128
f 49 128 127
f 49 127 126
f 49 126 108
f 49 108 92
f 49 92 71
f 49 71 91
f 49 91 90
f 49 90 89
f 49 89 68
f 49 68 50
f 50 68 51
f 51 68 69
f 51 69 52
f 52 69 53
f 53 69 70
f 53 70 71
f 53 71 72
f 53 72 73
f 53 73 74
f 53 74 54
f 54 74 75
f 54 75 55
f 55 75 76
f 55 76 57
f 55 57 56
f 57 76 77
f 57 77 58
f 58 77 78
f 58 78 79
f 58 79 59
f 59 80 62
f 59 62 61
f 59 79 81
f 59 81 82
f 59 82 83
f 59 83 80
f 62 80 63
f 63 80 85
f 63 85 64
f 64 85 86
f 65 87 66
f 66 87 67
f 67 87 88
f 68 89 69
f 69 90 70
f 69 89 90
f 70 90 91
f 70 91 71
f 71 92 73
f 71 73 72
f 73 92 93
f 73 93 94
f 73 94 74
f 74 94 75
f 75 94 95
f 75 95 76
f 76 95 96
f 76 96 78
f 76 78 77
f 78 96 97
f 78 97 79
f 79 97 81
f 80 83 98
f 80 98 99
f 80 99 85
f 81 97 100
f 81 100 101
f 81 101 102
f 81 102 82
f 82 102 83
f 83 102 103
f 83 103 98
f 84 105 104
f 85 99 86
f 86 99 106
f 87 107 88
f 92 108 93
f 93 109 110
f 93 110 111
f 93 111 94
f 93 108 109
f 94 111 112
f 94 112 95
f 95 112 113
f 95 113 96
f 96 113 97
f 97 113 100
f 98 103 114
f 98 114 115
f 98 115 116
f 98 116 106
f 98 106 99
f 100 113 117
f 100 117 118
f 100 118 101
f 101 118 119
f 101 119 102
f 102 119 120
f 102 120 121
f 102 121 103
f 103 121 122
f 103 122 123
f 103 123 114
f 104 105 124
f 105 125 146
f 105 146 164
f 105 164 184
f 105 184 211
f 105 211 232
f 105 232 258
f 105 258 261
f 105 261 260
f 105 260 252
f 105 252 249
f 105 249 226
f 105 226 209
f 105 209 205
f 105 205 180
f 105 180 162
f 105 162 145
f 105 145 124
f 108 126 109
f 109 126 127
f 109 127 128
f 109 128 129
f 109 129 110
f 110 129 130
f 110 130 111
f 111 130 131
f 111 131 112
f 112 131 132
f 112 132 117
f 112 117 113
f 114 123 133
f 114 133 134
f 114 134 135
f 114 135 136
f 114 136 115
f 117 132 137
f 117 137 118
f 118 137 138
f 118 138 139
f 118 139 120
f 118 120 119
f 120 140 121
f 120 139 141
f 120 141 140
f 121 140 122
f 122 140 142
f 122 142 123
f 123 142 143
f 123 143 144
f 123 144 133
f 125 147 146
f 128 148 129
f 129 148 149
f 129 149 150
f 129 150 151
f 129 151 130
f 130 151 150
f 130 150 152
f 130 152 153
f 130 153 131
f 131 153 154
f 131 154 132
f 132 154 137
f 133 144 134
f 134 144 155
f 137 154 138
f 138 156 139
f 138 154 156
f 139 156 157
f 139 157 141
f 140 141 158
f 140 158 142
f 141 157 159
f 141 159 175
f 141 175 158
f 142 158 143
f 143 158 160
f 143 160 144
f 144 160 161
f 144 161 155
f 145 162 163
f 146 147 165
f 146 165 166
f 146 166 164
f 149 167 150
f 150 167 168
f 150 168 191
f 150 191 169
f 150 169 152
f 152 169 170
f 152 170 156
f 152 156 153
f 153 156 154
f 155 161 171
f 156 170 172
f 156 172 173
f 156 173 157
f 157 173 174
f 157 174 159
f 158 175 160
f 159 174 176
f 159 176 175
f 160 175 177
f 160 177 178
f 160 178 179
f 160 179 161
f 161 179 171
f 162 180 181
f 162 181 182
f 162 182 163
f 163 182 183
f 164 166 184
f 165 185 166
f 166 185 186
f 166 186 187
f 166 187 188
f 166 188 189
f 166 189 184
f 167 190 168
f 168 190 192
f 168 192 191
f 169 191 170
f 170 191 193
f 170 193 172
f 171 179 194
f 172 195 196
f 172 196 197
f 172 197 198
f 172 198 173
f 172 193 195
f 173 198 199
f 173 199 174
f 174 199 200
f 174 200 176
f 175 176 177
f 176 200 201
f 176 201 177
f 177 201 202
f 177 202 203
f 177 203 178
f 178 204 179
f 178 203 188
f 178 188 204
f 179 204 194
f 180 205 181
f 181 206 207
f 181 207 208
f 181 208 183
f 181 183 182
f 181 205 209
f 181 209 206
f 183 208 210
f 184 189 211
f 186 212 187
f 187 212 213
f 187 213 204
f 187 204 214
f 187 214 188
f 188 215 189
f 188 214 204
f 188 203 202
f 188 202 215
f 189 215 216
f 189 216 211
f 190 217 192
f 191 192 193
f 192 218 219
f 192 219 220
f 192 220 195
f 192 195 193
f 192 217 221
f 192 221 218
f 194 204 213
f 195 220 222
f 195 222 197
f 195 197 196
f 197 222 198
f 198 222 199
f 199 222 223
f 199 223 200
f 200 202 201
f 200 223 224
f 200 224 202
f 202 224 225
f 202 225 215
f 206 209 226
f 206 226 207
f 207 226 227
f 207 227 228
f 207 228 229
f 207 229 208
f 208 229 230
f 208 230 210
f 210 230 231
f 211 216 233
f 211 233 234
f 211 234 232
f 215 225 235
f 215 235 236
f 215 236 216
f 216 236 233
f 218 221 237
f 218 237 219
f 219 238 220
f 219 237 239
f 219 239 240
f 219 240 241
f 219 241 242
f 219 242 243
f 219 243 244
f 219 244 245
f 219 245 238
f 220 238 222
f 222 238 246
f 222 246 223
f 223 246 247
f 223 247 224
f 224 247 248
f 224 248 225
f 225 248 235
f 226 249 227
f 227 250 251
f 227 251 228
f 227 249 252
f 227 252 250
f 228 246 238
f 228 238 253
f 228 253 254
f 228 254 229
f 228 251 255
f 228 255 246
f 229 254 230
f 230 254 245
f 230 245 256
f 230 256 231
f 231 256 257
f 232 234 258
f 233 236 259
f 233 259 234
f 234 259 250
f 234 250 260
f 234 260 261
f 234 261 258
f 235 262 236
f 235 248 262
f 236 262 259
f 238 245 253
f 242 257 243
f 243 245 244
f 243 257 245
f 245 257 256
f 245 254 253
f 246 255 247
f 247 255 263
f 247 263 262
f 247 262 248
f 250 259 264
f 250 264 251
f 250 252 260
f 251 264 255
f 255 264 263
f 259 262 264
f 262 263 264

