# https://github.com/mikedh/trimesh
v 0.12691975 10.80882515 15.40498895
v 0.12691975 10.78739340 15.40498895
v 0.17063346 10.77729654 15.40498895
v 0.12691975 10.75979898 15.35372249
v 0.12691975 10.78720081 15.40480830
v 0.12724066 10.78713662 15.40498895
v 0.17063346 10.75948718 15.40498895
v 0.17063346 10.72712404 15.35372249
v 0.12691975 10.74519934 15.35372249
v 0.12691975 10.78665975 15.40429644
v 0.12820771 10.78636629 15.40498895
v 0.17035105 10.75960640 15.40498895
v 0.17063346 10.75089430 15.39767234
v 0.17063346 10.71513803 15.35372249
v 0.12750168 10.74463077 15.35372249
v 0.12691975 10.74547447 15.35421930
v 0.12691975 10.78431207 15.40198804
v 0.12768140 10.78514659 15.40343329
v 0.12894797 10.78577937 15.40498895
v 0.16883630 10.76028503 15.40498895
v 0.16710333 10.75809325 15.40247481
v 0.16710333 10.75625912 15.40090912
v 0.17063346 10.75019734 15.39707517
v 0.17063346 10.71565159 15.35464084
v 0.17035533 10.71577998 15.35465087
v 0.16838274 10.71614680 15.35372249
v 0.12832324 10.74499759 15.35567459
v 0.12793813 10.74421809 15.35372249
v 0.12691975 10.74589631 15.35493189
v 0.12691975 10.78347754 15.40114497
v 0.12768996 10.78201941 15.40030692
v 0.13016747 10.78482562 15.40498895
v 0.14004328 10.75994571 15.38792689
v 0.13110455 10.77911232 15.40007608
v 0.13458334 10.77936910 15.40295657
v 0.16688938 10.76119292 15.40498895
v 0.16485261 10.75679102 15.40043238
v 0.16873789 10.75096767 15.39691960
v 0.16996594 10.74938115 15.39603138
v 0.17063346 10.74916106 15.39612673
v 0.17063346 10.71591753 15.35510251
v 0.16939257 10.71682542 15.35566957
v 0.16794628 10.71634856 15.35372249
v 0.13041137 10.74402551 15.35726538
v 0.12789962 10.74773961 15.35946839
v 0.12737332 10.74721688 15.35781237
v 0.13094623 10.74139354 15.35372249
v 0.13154529 10.74193460 15.35556921
v 0.12691975 10.74765707 15.35781237
v 0.12691975 10.78117571 15.39877134
v 0.13460045 10.76375152 15.38723939
v 0.13571726 10.78062547 15.40498895
v 0.13344086 10.76278861 15.38515180
v 0.13907623 10.75888192 15.38585938
v 0.14019732 10.75696526 15.38471522
v 0.14143821 10.75785481 15.38680281
v 0.14245660 10.75903782 15.38882015
v 0.14347499 10.76022083 15.39079734
v 0.16638875 10.76144969 15.40498895
v 0.16260188 10.75416822 15.39685437
v 0.16469001 10.75359047 15.39739132
v 0.16855817 10.74773044 15.39387854
v 0.16460014 10.76239427 15.40498895
v 0.16404816 10.76268773 15.40498895
v 0.15785225 10.76612672 15.40498895
v 0.15678251 10.76673198 15.40498895
v 0.15535334 10.76607169 15.40367417
v 0.16276448 10.75741462 15.39989040
v 0.17023552 10.74731776 15.39425993
v 0.17063346 10.74743698 15.39454597
v 0.17063346 10.71726562 15.35736072
v 0.16732584 10.71901720 15.35770698
v 0.16508795 10.71939321 15.35659293
v 0.16706482 10.71731147 15.35465087
v 0.16401393 10.71879711 15.35469101
v 0.16655562 10.71701801 15.35372249
v 0.13110884 10.74467662 15.35935297
v 0.12691975 10.74925276 15.36032149
v 0.12962404 10.74693259 15.36068281
v 0.12691975 10.75203146 15.36452177
v 0.12691975 10.75146288 15.36366365
v 0.13360774 10.73903668 15.35372249
v 0.13363342 10.74102671 15.35707468
v 0.13237112 10.74284250 15.35821383
v 0.12691975 10.78045123 15.39801359
v 0.12804083 10.76664944 15.38435391
v 0.13758716 10.77925905 15.40498895
v 0.13135274 10.76367816 15.38417325
v 0.13025732 10.76273358 15.38208565
v 0.13149394 10.76065185 15.38091640
v 0.13357779 10.75979898 15.38188994
v 0.13374467 10.75680019 15.37861804
v 0.13601678 10.75580059 15.37952635
v 0.13715499 10.75391144 15.37835207
v 0.14614505 10.74731776 15.37873346
v 0.13487431 10.75771725 15.38070062
v 0.14736455 10.74823482 15.38081603
v 0.14352634 10.75713033 15.38762078
v 0.14712065 10.76056932 15.39357745
v 0.14518657 10.76124794 15.39293511
v 0.14360336 10.76656690 15.39696476
v 0.15651722 10.74805141 15.38729961
v 0.16084323 10.75625912 15.39780282
v 0.15877222 10.75689189 15.39723576
v 0.16084323 10.75469094 15.39635756
v 0.16084323 10.74829902 15.39020518
v 0.16455736 10.74721688 15.39124898
v 0.16647005 10.74830819 15.39333657
v 0.16748844 10.74642821 15.39205691
v 0.16850254 10.74458491 15.39078228
v 0.17023552 10.74414472 15.39121386
v 0.17023552 10.74575875 15.39277955
v 0.17063346 10.74565788 15.39286987
v 0.15447188 10.76811674 15.40498895
v 0.16084323 10.75799237 15.39936851
v 0.14937994 10.76624593 15.40039725
v 0.15306838 10.76348557 15.40005601
v 0.17063346 10.74718937 15.39431513
v 0.17063346 10.71907223 15.36021611
v 0.17023552 10.71915477 15.36008062
v 0.16851966 10.71953993 15.35949348
v 0.16643154 10.72006266 15.35868053
v 0.16401393 10.72066792 15.35770698
v 0.16299982 10.71991593 15.35574485
v 0.16397970 10.71829272 15.35372249
v 0.16202422 10.71927398 15.35372249
v 0.13439079 10.74166865 15.35916228
v 0.13326115 10.74381458 15.36094375
v 0.13169505 10.74519934 15.36094375
v 0.13072801 10.74744615 15.36297113
v 0.12829329 10.75121528 15.36520927
v 0.12691975 10.75304940 15.36599212
v 0.13428809 10.73844977 15.35372249
v 0.13488287 10.73893581 15.35535343
v 0.12691975 10.76720885 15.38381193
v 0.12691975 10.76588828 15.38236165
v 0.12701816 10.76571404 15.38226631
v 0.12816920 10.76362313 15.38108702
v 0.13943566 10.77799351 15.40498895
v 0.14729609 10.76696124 15.39972481
v 0.13042420 10.75974396 15.37883382
v 0.13165654 10.75766223 15.37761439
v 0.13283753 10.75576391 15.37643008
v 0.13506686 10.75471846 15.37733337
v 0.14081348 10.74806975 15.37471384
v 0.14290161 10.74723522 15.37568738
v 0.14521224 10.74622646 15.37658063
v 0.14637184 10.74437399 15.37538629
v 0.14756138 10.74522686 15.37747388
v 0.14964523 10.74450238 15.37836713
v 0.15144667 10.74524520 15.38063538
v 0.14944840 10.74749200 15.38160390
v 0.15305555 10.74469496 15.38126266
v 0.14920450 10.75989069 15.39425993
v 0.14821178 10.76180735 15.39545929
v 0.15860535 10.74737278 15.38799213
v 0.15763402 10.74618060 15.38604506
v 0.15668410 10.75753384 15.39663356
v 0.15870376 10.75370052 15.39417463
v 0.16084323 10.74673084 15.38863949
v 0.15863958 10.75051831 15.39107334
v 0.16641442 10.74512598 15.39021021
v 0.16872933 10.73843143 15.38438903
v 0.17063346 10.73822050 15.38517690
v 0.17063346 10.74248484 15.38966321
v 0.17063346 10.74405302 15.39130418
v 0.14493839 10.77430691 15.40498895
v 0.14930291 10.76303621 15.39732106
v 0.15086473 10.76096365 15.39634752
v 0.15295286 10.76028503 15.39698986
v 0.14289305 10.77563665 15.40498895
v 0.14205438 10.77620523 15.40498895
v 0.17063346 10.71928316 15.36053728
v 0.17063346 10.72009935 15.36177679
v 0.17023552 10.72019105 15.36164631
v 0.16783931 10.72232781 15.36309659
v 0.16575119 10.72284136 15.36235389
v 0.16163912 10.72546415 15.36312168
v 0.16192153 10.71932901 15.35372249
v 0.15888347 10.72878392 15.36595699
v 0.15955099 10.72602357 15.36227359
v 0.15629899 10.72596855 15.35923253
v 0.13567875 10.73988039 15.35795288
v 0.13778399 10.73874322 15.35883107
v 0.13665863 10.74098086 15.36094375
v 0.13730903 10.74149441 15.36256465
v 0.13509253 10.74224640 15.36094375
v 0.13396717 10.74443818 15.36282560
v 0.12691975 10.75652507 15.37093008
v 0.12691975 10.75599317 15.37018236
v 0.12691975 10.75366383 15.36687031
v 0.13479301 10.73804626 15.35372249
v 0.13587130 10.73761524 15.35446018
v 0.13697099 10.73809211 15.35674348
v 0.12691975 10.76427425 15.38049988
v 0.12720644 10.76272441 15.37900444
v 0.12833608 10.76065185 15.37777999
v 0.12948283 10.75872602 15.37665089
v 0.13062959 10.75680936 15.37552680
v 0.14001760 10.74429146 15.36924395
v 0.13977370 10.74720771 15.37262625
v 0.14109162 10.74512598 15.37133154
v 0.14199875 10.74618060 15.37351950
v 0.14428371 10.74514432 15.37441275
v 0.14986345 10.74152192 15.37505006
v 0.15144667 10.74389712 15.37907470
v 0.15144667 10.74099003 15.37567233
v 0.15514368 10.74404385 15.38198529
v 0.15666270 10.74498842 15.38407288
v 0.15328661 10.74171451 15.37795563
v 0.15445476 10.73988039 15.37670107
v 0.15537474 10.74102671 15.37873848
v 0.15701785 10.73893581 15.37753410
v 0.15684242 10.74195294 15.38082105
v 0.15757840 10.74928028 15.38920655
v 0.15874655 10.74433730 15.38479049
v 0.16084323 10.74516266 15.38701357
v 0.16249063 10.74471330 15.38751039
v 0.16471568 10.74108173 15.38490089
v 0.16262755 10.74165948 15.38428867
v 0.16710333 10.73887161 15.38389222
v 0.15910598 10.73830304 15.37828182
v 0.16522915 10.73510248 15.37836211
v 0.16710333 10.73460727 15.37893921
v 0.16902886 10.73545097 15.38108200
v 0.16992316 10.73667983 15.38304915
v 0.17063346 10.73765192 15.38454962
v 0.17063346 10.72205269 15.36460708
v 0.17032538 10.72185093 15.36411529
v 0.16933694 10.72306145 15.36518418
v 0.16508367 10.72564757 15.36596201
v 0.16299982 10.72616112 15.36521429
v 0.15617062 10.72274965 15.35372249
v 0.16027413 10.72953592 15.36804960
v 0.15845986 10.73161765 15.36941958
v 0.15762974 10.73051717 15.36726675
v 0.15679535 10.72940753 15.36504869
v 0.15778807 10.72816949 15.36403500
v 0.16112564 10.72840793 15.36708609
v 0.15749282 10.72647293 15.36111438
v 0.15567427 10.72871973 15.36296110
v 0.15460881 10.72807779 15.36092368
v 0.15252068 10.72869222 15.35986483
v 0.15436063 10.72642707 15.35803819
v 0.15525921 10.72534494 15.35714494
v 0.15552878 10.72313482 15.35372249
v 0.14036848 10.73517585 15.35639722
v 0.14217847 10.73450639 15.35759156
v 0.14121571 10.73582696 15.35848481
v 0.14633760 10.73494658 15.36295607
v 0.14037275 10.74144856 15.36577131
v 0.13828463 10.74225557 15.36465225
v 0.13695387 10.74434648 15.36607743
v 0.13487003 10.74519934 15.36491320
v 0.14329955 10.73501995 15.35972934
v 0.14675266 10.73214037 15.35937806
v 0.12763433 10.75690106 15.37229504
v 0.12691975 10.75807491 15.37296247
v 0.13782250 10.73563438 15.35372249
v 0.12691975 10.76322880 15.37928045
v 0.12691975 10.76243095 15.37833200
v 0.12739043 10.75978981 15.37569240
v 0.12854147 10.75769891 15.37438765
v 0.13576433 10.74619894 15.36723163
v 0.13792948 10.74511681 15.36816502
v 0.13915326 10.74327351 15.36696566
v 0.14139114 10.74220055 15.36785891
v 0.14696233 10.73855981 15.36857150
v 0.14228544 10.74327351 15.37011712
v 0.14904618 10.73780782 15.36950991
v 0.15059515 10.73572609 15.36817004
v 0.15232813 10.73792704 15.37252087
v 0.15353051 10.73874322 15.37460846
v 0.15561864 10.73807377 15.37544651
v 0.15939267 10.73533175 15.37495471
v 0.16084323 10.74373204 15.38544788
v 0.16084323 10.74216386 15.38371658
v 0.16682520 10.73288319 15.37667598
v 0.16936261 10.73247052 15.37776996
v 0.17063346 10.73564355 15.38225126
v 0.17063346 10.72355667 15.36671977
v 0.16872078 10.72589518 15.36874212
v 0.16710333 10.72627117 15.36821018
v 0.16401393 10.72695897 15.36708609
v 0.16236226 10.72898568 15.36880736
v 0.16109569 10.73069142 15.37015727
v 0.15637173 10.73228710 15.36857652
v 0.15771104 10.73585448 15.37428227
v 0.15476713 10.73695495 15.37331375
v 0.15516935 10.73149843 15.36648893
v 0.15308122 10.73218622 15.36558062
v 0.14983778 10.73211286 15.36254960
v 0.15358614 10.72936167 15.36195243
v 0.15146378 10.73004030 15.36092368
v 0.14906757 10.73159931 15.36094375
v 0.15043256 10.72936167 15.35877086
v 0.15317108 10.72597771 15.35607605
v 0.15225539 10.72536328 15.35398846
v 0.15219120 10.72526241 15.35372249
v 0.14378735 10.73225959 15.35602085
v 0.14497262 10.73269061 15.35812350
v 0.14859261 10.73390114 15.36379914
v 0.14734316 10.73569857 15.36504367
v 0.14593110 10.73778948 15.36648391
v 0.14384298 10.73857815 15.36540498
v 0.14750576 10.73268144 15.36094375
v 0.14587548 10.73154428 15.35729047
v 0.12691975 10.75857929 15.37360481
v 0.14091618 10.73323168 15.35372249
v 0.12691975 10.76060600 15.37613401
v 0.12691975 10.75929460 15.37451311
v 0.14942701 10.73494658 15.36608245
v 0.15391562 10.73583614 15.37114085
v 0.16191297 10.73184691 15.37225992
v 0.16768527 10.73161765 15.37568236
v 0.17033821 10.73114078 15.37667598
v 0.17063346 10.73136087 15.37711758
v 0.17063346 10.73314914 15.37928547
v 0.17063346 10.73424961 15.38060527
v 0.17063346 10.72644541 15.37066913
v 0.16995311 10.72653712 15.37039313
v 0.16811316 10.72872890 15.37227999
v 0.16708194 10.72790355 15.37045334
v 0.16397114 10.72859134 15.36933428
v 0.16397114 10.72976518 15.37089997
v 0.15144667 10.73271812 15.36484294
v 0.15069357 10.72628034 15.35372249
v 0.14152807 10.73276397 15.35372249
v 0.14296579 10.73168184 15.35372249
v 0.14617500 10.72939836 15.35372249
v 0.16397114 10.73132419 15.37292232
v 0.17023552 10.72945338 15.37446794
v 0.17063346 10.72949924 15.37475900
v 0.17063346 10.72814198 15.37297753
v 0.17023552 10.72825203 15.37290225
f 1 2 6
f 1 6 11
f 1 11 19
f 1 19 32
f 1 32 52
f 1 52 87
f 1 87 139
f 1 139 172
f 1 172 171
f 1 171 167
f 1 167 114
f 1 114 66
f 1 66 65
f 1 65 64
f 1 64 63
f 1 63 59
f 1 59 36
f 1 36 20
f 1 20 12
f 1 12 7
f 1 7 3
f 1 3 4
f 1 4 9
f 1 9 16
f 1 16 29
f 1 29 49
f 1 49 78
f 1 78 81
f 1 81 80
f 1 80 132
f 1 132 191
f 1 191 190
f 1 190 189
f 1 189 258
f 1 258 308
f 1 308 311
f 1 311 310
f 1 310 261
f 1 261 260
f 1 260 195
f 1 195 136
f 1 136 135
f 1 135 85
f 1 85 50
f 1 50 30
f 1 30 17
f 1 17 10
f 1 10 5
f 1 5 2
f 2 5 6
f 3 7 13
f 3 13 23
f 3 23 40
f 3 40 70
f 3 70 118
f 3 118 113
f 3 113 166
f 3 166 165
f 3 165 164
f 3 164 227
f 3 227 280
f 3 280 319
f 3 319 318
f 3 318 317
f 3 317 333
f 3 333 334
f 3 334 320
f 3 320 281
f 3 281 228
f 3 228 174
f 3 174 173
f 3 173 119
f 3 119 71
f 3 71 41
f 3 41 24
f 3 24 14
f 3 14 8
f 3 8 4
f 4 8 14
f 4 14 26
f 4 26 43
f 4 43 76
f 4 76 125
f 4 125 126
f 4 126 179
f 4 179 233
f 4 233 246
f 4 246 299
f 4 299 327
f 4 327 330
f 4 330 329
f 4 329 328
f 4 328 309
f 4 309 259
f 4 259 192
f 4 192 133
f 4 133 82
f 4 82 47
f 4 47 28
f 4 28 15
f 4 15 9
f 5 10 11
f 5 11 6
f 7 12 13
f 9 15 16
f 10 17 18
f 10 18 11
f 11 18 19
f 12 20 21
f 12 21 13
f 13 22 23
f 13 21 22
f 14 24 25
f 14 25 26
f 15 27 16
f 15 28 27
f 16 27 29
f 17 30 31
f 17 31 18
f 18 32 19
f 18 31 33
f 18 33 34
f 18 34 35
f 18 35 32
f 20 36 21
f 21 36 37
f 21 37 22
f 22 37 23
f 23 37 38
f 23 38 39
f 23 39 40
f 24 41 25
f 25 41 42
f 25 42 43
f 25 43 26
f 27 44 45
f 27 45 46
f 27 46 29
f 27 28 47
f 27 47 48
f 27 48 44
f 29 46 49
f 30 50 31
f 31 50 51
f 31 51 33
f 32 35 52
f 33 51 53
f 33 53 54
f 33 54 55
f 33 55 56
f 33 56 57
f 33 57 58
f 33 58 34
f 34 58 35
f 35 58 52
f 36 59 37
f 37 60 61
f 37 61 62
f 37 62 38
f 37 59 63
f 37 63 64
f 37 64 65
f 37 65 66
f 37 66 67
f 37 67 68
f 37 68 60
f 38 62 39
f 39 62 69
f 39 69 40
f 40 69 70
f 41 71 42
f 42 71 72
f 42 72 73
f 42 73 74
f 42 74 43
f 43 74 75
f 43 75 76
f 44 77 45
f 44 48 77
f 45 78 49
f 45 49 46
f 45 77 79
f 45 79 80
f 45 80 81
f 45 81 78
f 47 82 48
f 48 82 83
f 48 83 84
f 48 84 77
f 50 85 51
f 51 86 53
f 51 85 86
f 52 58 87
f 53 86 88
f 53 88 89
f 53 89 90
f 53 90 91
f 53 91 55
f 53 55 54
f 55 92 93
f 55 93 94
f 55 94 95
f 55 95 56
f 55 91 96
f 55 96 92
f 56 95 97
f 56 97 98
f 56 98 57
f 57 98 58
f 58 99 100
f 58 100 101
f 58 101 87
f 58 98 102
f 58 102 99
f 60 68 103
f 60 103 104
f 60 104 105
f 60 105 106
f 60 106 107
f 60 107 108
f 60 108 62
f 60 62 61
f 62 108 109
f 62 109 110
f 62 110 111
f 62 111 112
f 62 112 113
f 62 113 69
f 66 114 67
f 67 115 68
f 67 114 116
f 67 116 117
f 67 117 104
f 67 104 103
f 67 103 115
f 68 115 103
f 69 118 70
f 69 113 118
f 71 119 120
f 71 120 121
f 71 121 72
f 72 121 73
f 73 121 122
f 73 122 123
f 73 123 124
f 73 124 75
f 73 75 74
f 75 125 76
f 75 124 126
f 75 126 125
f 77 84 127
f 77 127 128
f 77 128 129
f 77 129 79
f 79 129 130
f 79 130 131
f 79 131 80
f 80 131 132
f 82 133 83
f 83 127 84
f 83 133 134
f 83 134 127
f 85 135 86
f 86 135 136
f 86 136 137
f 86 137 138
f 86 138 89
f 86 89 88
f 87 101 140
f 87 140 116
f 87 116 139
f 89 138 90
f 90 138 141
f 90 141 142
f 90 142 92
f 90 92 91
f 91 92 96
f 92 143 144
f 92 144 145
f 92 145 94
f 92 94 93
f 92 142 143
f 94 145 146
f 94 146 95
f 95 146 147
f 95 147 148
f 95 148 149
f 95 149 150
f 95 150 97
f 97 150 151
f 97 151 152
f 97 152 98
f 98 152 153
f 98 153 102
f 99 154 155
f 99 155 101
f 99 101 100
f 99 102 156
f 99 156 154
f 101 155 140
f 102 153 157
f 102 157 156
f 104 117 158
f 104 158 105
f 105 158 159
f 105 159 106
f 106 156 160
f 106 160 107
f 106 159 161
f 106 161 156
f 107 160 162
f 107 162 109
f 107 109 108
f 109 162 110
f 110 162 163
f 110 163 164
f 110 164 111
f 111 165 166
f 111 166 113
f 111 113 112
f 111 164 165
f 114 167 116
f 116 140 155
f 116 155 168
f 116 168 169
f 116 169 170
f 116 170 117
f 116 167 171
f 116 171 172
f 116 172 139
f 117 170 158
f 119 173 120
f 120 173 174
f 120 174 175
f 120 175 121
f 121 175 176
f 121 176 177
f 121 177 122
f 122 177 178
f 122 178 123
f 123 178 124
f 124 179 126
f 124 178 180
f 124 180 181
f 124 181 182
f 124 182 179
f 127 134 183
f 127 183 184
f 127 184 185
f 127 185 186
f 127 186 187
f 127 187 188
f 127 188 128
f 128 188 129
f 129 188 130
f 130 188 131
f 131 189 190
f 131 190 191
f 131 191 132
f 131 188 189
f 133 192 193
f 133 193 134
f 134 193 194
f 134 194 183
f 136 195 137
f 137 195 138
f 138 195 196
f 138 196 197
f 138 197 141
f 141 197 142
f 142 197 198
f 142 198 199
f 142 199 143
f 143 199 200
f 143 200 144
f 144 200 201
f 144 201 145
f 145 201 202
f 145 202 203
f 145 203 146
f 146 203 204
f 146 204 147
f 147 204 148
f 148 204 205
f 148 205 149
f 149 205 150
f 150 206 153
f 150 153 151
f 150 205 207
f 150 207 206
f 151 153 152
f 153 208 209
f 153 209 157
f 153 206 210
f 153 210 211
f 153 211 212
f 153 212 213
f 153 213 214
f 153 214 208
f 154 169 155
f 154 156 215
f 154 215 169
f 155 169 168
f 156 157 216
f 156 216 217
f 156 217 160
f 156 161 215
f 157 209 216
f 158 170 161
f 158 161 159
f 160 217 218
f 160 218 162
f 161 170 169
f 161 169 215
f 162 218 163
f 163 219 220
f 163 220 221
f 163 221 222
f 163 222 223
f 163 223 224
f 163 224 225
f 163 225 226
f 163 226 227
f 163 227 164
f 163 218 219
f 174 228 229
f 174 229 175
f 175 229 176
f 176 230 231
f 176 231 177
f 176 229 230
f 177 231 232
f 177 232 178
f 178 232 180
f 179 182 233
f 180 234 235
f 180 235 236
f 180 236 237
f 180 237 238
f 180 238 181
f 180 232 239
f 180 239 234
f 181 240 182
f 181 238 240
f 182 240 241
f 182 241 242
f 182 242 243
f 182 243 244
f 182 244 245
f 182 245 246
f 182 246 233
f 183 194 184
f 184 186 185
f 184 194 247
f 184 247 248
f 184 248 249
f 184 249 186
f 186 250 251
f 186 251 252
f 186 252 253
f 186 253 254
f 186 254 188
f 186 188 187
f 186 249 255
f 186 255 256
f 186 256 250
f 188 254 257
f 188 257 189
f 189 257 258
f 192 259 193
f 193 259 247
f 193 247 194
f 195 260 196
f 196 260 261
f 196 261 262
f 196 262 197
f 197 262 263
f 197 263 198
f 198 263 199
f 199 264 265
f 199 265 200
f 199 263 264
f 200 265 266
f 200 266 267
f 200 267 268
f 200 268 269
f 200 269 204
f 200 204 202
f 200 202 201
f 202 204 203
f 204 269 268
f 204 268 205
f 205 268 270
f 205 270 271
f 205 271 272
f 205 272 273
f 205 273 207
f 206 207 210
f 207 273 274
f 207 274 211
f 207 211 210
f 208 216 209
f 208 214 216
f 211 213 212
f 211 274 213
f 213 222 214
f 213 274 275
f 213 275 222
f 214 222 216
f 216 276 217
f 216 222 277
f 216 277 220
f 216 220 276
f 217 276 220
f 217 220 218
f 218 220 219
f 220 277 222
f 220 222 221
f 222 275 223
f 223 275 278
f 223 278 279
f 223 279 224
f 224 279 225
f 225 280 226
f 225 279 280
f 226 280 227
f 228 281 230
f 228 230 229
f 230 281 282
f 230 282 283
f 230 283 231
f 231 283 284
f 231 284 232
f 232 284 285
f 232 285 239
f 234 239 285
f 234 285 286
f 234 286 275
f 234 275 235
f 235 287 236
f 235 275 288
f 235 288 289
f 235 289 287
f 236 287 290
f 236 290 237
f 237 241 238
f 237 290 291
f 237 291 292
f 237 292 241
f 238 241 240
f 241 292 293
f 241 293 242
f 242 293 243
f 243 293 294
f 243 294 295
f 243 295 296
f 243 296 297
f 243 297 244
f 244 297 245
f 245 297 246
f 246 297 298
f 246 298 299
f 247 259 300
f 247 300 248
f 248 255 249
f 248 300 301
f 248 301 255
f 250 302 303
f 250 303 304
f 250 304 305
f 250 305 251
f 250 256 306
f 250 306 292
f 250 292 302
f 251 305 304
f 251 304 267
f 251 267 266
f 251 266 252
f 252 266 253
f 253 266 265
f 253 265 264
f 253 264 254
f 254 264 263
f 254 263 257
f 255 301 256
f 256 296 295
f 256 295 292
f 256 292 306
f 256 301 300
f 256 300 307
f 256 307 298
f 256 298 297
f 256 297 296
f 257 263 258
f 258 263 308
f 259 309 300
f 261 310 262
f 262 310 311
f 262 311 263
f 263 311 308
f 267 304 268
f 268 304 303
f 268 303 312
f 268 312 270
f 270 312 271
f 271 313 272
f 271 312 291
f 271 291 290
f 271 290 287
f 271 287 313
f 272 313 273
f 273 313 287
f 273 287 289
f 273 289 274
f 274 289 288
f 274 288 275
f 275 286 314
f 275 314 315
f 275 315 278
f 278 315 279
f 279 315 316
f 279 316 317
f 279 317 318
f 279 318 319
f 279 319 280
f 281 320 321
f 281 321 322
f 281 322 282
f 282 322 283
f 283 322 323
f 283 323 324
f 283 324 285
f 283 285 284
f 285 325 314
f 285 314 286
f 285 324 322
f 285 322 325
f 291 326 292
f 291 312 326
f 292 326 312
f 292 312 302
f 292 295 294
f 292 294 293
f 298 327 299
f 298 307 300
f 298 300 327
f 300 328 329
f 300 329 330
f 300 330 327
f 300 309 328
f 302 312 303
f 314 325 322
f 314 322 331
f 314 331 315
f 315 331 322
f 315 322 316
f 316 322 332
f 316 332 333
f 316 333 317
f 320 334 335
f 320 335 321
f 321 335 322
f 322 324 323
f 322 335 332
f 332 335 333
f 333 335 334

