# https://github.com/mikedh/trimesh
v 0.16670370 10.84916324 15.45454300
v 0.16249009 10.84644422 15.45330490
v 0.16670370 10.84644422 15.45452172
v 0.16670370 10.84957800 15.45453874
v 0.16084281 10.84644422 15.45275180
v 0.16084281 10.84331555 15.45267946
v 0.16264197 10.84331555 15.45325810
v 0.16260303 10.84957800 15.45326660
v 0.16670370 10.84600897 15.45450896
v 0.16670370 10.85897425 15.45421113
v 0.16466310 10.85897425 15.45358996
v 0.16309760 10.85897425 15.45310493
v 0.16084281 10.84957800 15.45266670
v 0.15770792 10.85270667 15.45148817
v 0.15509875 10.85270667 15.45056492
v 0.15770792 10.84957800 15.45156475
v 0.15353325 10.85270667 15.45000756
v 0.15770792 10.84644422 15.45163282
v 0.15770792 10.84331555 15.45158177
v 0.15852571 10.84099594 15.45170516
v 0.16084281 10.84099594 15.45251354
v 0.16131012 10.84099594 15.45266670
v 0.16289510 10.84099594 15.45318151
v 0.16420746 10.84331555 15.45369632
v 0.16446059 10.84099594 15.45363676
v 0.16084281 10.85584046 15.45247524
v 0.16670370 10.84331555 15.45438132
v 0.16670370 10.86210291 15.45399414
v 0.16502916 10.86210291 15.45349636
v 0.16346366 10.86210291 15.45297729
v 0.16084281 10.85897425 15.45232633
v 0.15370849 10.85584046 15.44995650
v 0.15144591 10.85270667 15.44918216
v 0.15349431 10.84957800 15.45001181
v 0.15144591 10.85584046 15.44906303
v 0.15507538 10.84644422 15.45061597
v 0.15516495 10.84331555 15.45059044
v 0.15599054 10.84099594 15.45077764
v 0.15770792 10.84099594 15.45141583
v 0.16521609 10.84099594 15.45384524
v 0.16670370 10.84099594 15.45424517
v 0.16670370 10.86510356 15.45368782
v 0.16534849 10.86420234 15.45338573
v 0.16084281 10.86210291 15.45205828
v 0.16417242 10.86524182 15.45288794
v 0.15881000 10.87149403 15.45035218
v 0.15678497 10.86836024 15.44997778
v 0.15550765 10.85897425 15.45042025
v 0.15586203 10.86210291 15.45030113
v 0.15394215 10.85897425 15.44985013
v 0.14831491 10.85270667 15.44788449
v 0.15144591 10.84957800 15.44917365
v 0.14661311 10.85584046 15.44712291
v 0.15350988 10.84644422 15.44999053
v 0.14671047 10.85757633 15.44708037
v 0.15359945 10.84331555 15.44995224
v 0.15417191 10.84099594 15.45006287
v 0.15532851 10.84099594 15.45051811
v 0.16670370 10.84099594 15.44269383
v 0.16670370 10.86542616 15.45365378
v 0.16573402 10.86628641 15.45326660
v 0.16397381 10.86836024 15.45244546
v 0.16084281 10.87149403 15.45104994
v 0.15913322 10.87327087 15.45024581
v 0.15724449 10.87149403 15.44980334
v 0.15457691 10.86836024 15.44915663
v 0.15487288 10.86498579 15.44962890
v 0.15429653 10.86210291 15.44971399
v 0.14656638 10.85270667 15.44714418
v 0.14831491 10.84957800 15.44784195
v 0.14504761 10.85584046 15.44645068
v 0.14669489 10.84702796 15.44708887
v 0.15144591 10.84331555 15.44903324
v 0.14547598 10.85876430 15.44645068
v 0.14205291 10.85897425 15.44496581
v 0.15144591 10.86210291 15.44856949
v 0.15144591 10.86523669 15.44826741
v 0.14687013 10.84099594 15.44701229
v 0.14727904 10.84099594 15.44718673
v 0.15200669 10.84099594 15.44916513
v 0.12692364 10.84099594 15.42248432
v 0.12692364 10.88724489 15.41132441
v 0.16670370 10.88712200 15.43278905
v 0.16670370 10.86727468 15.45342403
v 0.16620134 10.86836024 15.45313471
v 0.16397381 10.87149403 15.45203701
v 0.15457691 10.87149403 15.44877371
v 0.16397381 10.87462781 15.45147966
v 0.16087786 10.87443836 15.45056492
v 0.15986145 10.87536006 15.44999479
v 0.15793768 10.87443836 15.44954380
v 0.15457691 10.87462781 15.44818657
v 0.15114995 10.86862139 15.44773558
v 0.14500088 10.85270667 15.44645068
v 0.14506319 10.84957800 15.44642941
v 0.14662869 10.84957800 15.44711441
v 0.14205291 10.85584046 15.44511047
v 0.14546430 10.84616771 15.44653151
v 0.14518781 10.86210291 15.44597841
v 0.14181147 10.86217460 15.44454886
v 0.14018366 10.85897425 15.44409786
v 0.14033164 10.86117609 15.44401277
v 0.14924565 10.86523669 15.44733990
v 0.14958055 10.86775089 15.44719524
v 0.14205291 10.84331555 15.44493177
v 0.14029659 10.84099594 15.44402128
v 0.12692364 10.84099594 15.43644378
v 0.12692364 10.88965668 15.41108189
v 0.12692364 10.89045037 15.41109040
v 0.16670370 10.88757261 15.43281457
v 0.16670370 10.86836024 15.45327937
v 0.16670370 10.87154523 15.45280711
v 0.16670370 10.86887742 15.45320279
v 0.15180030 10.87149403 15.44759943
v 0.14990768 10.86983497 15.44705059
v 0.16670370 10.87462781 15.45224124
v 0.16670370 10.87735196 15.45154348
v 0.16194878 10.87670165 15.45035218
v 0.15770792 10.87775648 15.44852694
v 0.15254021 10.87462781 15.44728459
v 0.15298026 10.87623567 15.44707611
v 0.14205291 10.85270667 15.44510621
v 0.14205291 10.84644422 15.44499560
v 0.14005515 10.85584046 15.44415743
v 0.14060424 10.86326528 15.44387662
v 0.13405406 10.85897425 15.44088987
v 0.13435392 10.86284027 15.44073245
v 0.14017977 10.84331555 15.44407659
v 0.13896864 10.84099594 15.44334905
v 0.13861427 10.84331555 15.44333203
v 0.12725465 10.84099594 15.43666077
v 0.12692364 10.84331555 15.43671182
v 0.12692364 10.89217087 15.41200941
v 0.12811140 10.89193533 15.41251996
v 0.16670370 10.89030187 15.43298476
v 0.15023479 10.87149403 15.44689742
v 0.14094304 10.86523669 15.44373622
v 0.16670370 10.87775648 15.45143286
v 0.16399718 10.87775137 15.45065425
v 0.16296909 10.87878572 15.45002032
v 0.16087786 10.87775137 15.44965867
v 0.15475995 10.87746973 15.44742074
v 0.15770792 10.88024508 15.44752710
v 0.15592433 10.87952308 15.44715695
v 0.15097081 10.87462781 15.44654003
v 0.14831491 10.87149403 15.44599969
v 0.14032385 10.87640465 15.44088136
v 0.13980202 10.87462781 15.44112813
v 0.14831491 10.87462781 15.44525513
v 0.15383700 10.87832486 15.44668894
v 0.15173799 10.87746973 15.44601671
v 0.14005515 10.85270667 15.44414892
v 0.13394113 10.85584046 15.44094944
v 0.13848575 10.85270667 15.44334479
v 0.13892191 10.86523669 15.44274489
v 0.13248856 10.85897425 15.44003469
v 0.13237563 10.85584046 15.44010276
v 0.13468104 10.86523669 15.44056652
v 0.13265991 10.86523669 15.43949861
v 0.13017146 10.86523669 15.43816690
v 0.12860597 10.86523669 15.43730746
v 0.12989497 10.86210291 15.43834134
v 0.13295198 10.86191857 15.44004320
v 0.13579091 10.84331555 15.44189397
v 0.13436950 10.84099594 15.44099623
v 0.12838399 10.84099594 15.43739256
v 0.12995339 10.84099594 15.43838389
v 0.12819707 10.84331555 15.43751594
v 0.12692364 10.84644422 15.43685222
v 0.12692364 10.89289288 15.41419629
v 0.16670370 10.89216576 15.43406543
v 0.13892191 10.86836024 15.44218754
v 0.16505642 10.87963061 15.45033941
v 0.16670370 10.88014266 15.45057767
v 0.16054295 10.88119238 15.44810574
v 0.15930067 10.88243668 15.44705484
v 0.15770792 10.88181197 15.44673999
v 0.14953772 10.87963572 15.44409361
v 0.15475995 10.88069569 15.44605075
v 0.13765238 10.87249766 15.44065586
v 0.13711886 10.87041359 15.44091965
v 0.13422931 10.87618447 15.43766485
v 0.13823652 10.87462781 15.44035804
v 0.14745038 10.87838119 15.44359157
v 0.14116502 10.87849384 15.44046866
v 0.13913610 10.87757214 15.43981345
v 0.13633611 10.87775648 15.43824774
v 0.13397618 10.84644422 15.44093667
v 0.13579091 10.84644422 15.44191098
v 0.13675280 10.86836024 15.44111112
v 0.12970805 10.85897425 15.43846899
v 0.12959122 10.85584046 15.43853705
v 0.12957175 10.85270667 15.43853281
v 0.13241068 10.84644422 15.44007298
v 0.13518730 10.86836024 15.44029847
v 0.13265991 10.86836024 15.43894551
v 0.13069330 10.86836024 15.43788184
v 0.12692364 10.86523669 15.43624807
v 0.12832947 10.86210291 15.43745638
v 0.12912390 10.86836024 15.43699262
v 0.12692364 10.86820151 15.43566093
v 0.13399175 10.84331555 15.44092816
v 0.13409690 10.84119052 15.44086860
v 0.13386714 10.84099594 15.44071543
v 0.12976256 10.84331555 15.43849026
v 0.12810749 10.84644422 15.43757976
v 0.12805298 10.84957800 15.43761380
v 0.12692364 10.84743761 15.43687349
v 0.12692364 10.89303113 15.41731494
v 0.12952891 10.89312842 15.41731494
v 0.16670370 10.89281095 15.43609915
v 0.16670370 10.88140233 15.44996926
v 0.16399718 10.88076226 15.44944594
v 0.16670370 10.88169932 15.44982035
v 0.16138801 10.88298970 15.44740797
v 0.16054295 10.88402918 15.44640814
v 0.15753657 10.88425960 15.44511898
v 0.15457691 10.88331742 15.44451056
v 0.15272324 10.88268759 15.44408085
v 0.14325235 10.87970230 15.44097922
v 0.15158611 10.88076226 15.44451907
v 0.14429212 10.88179149 15.44046441
v 0.14527738 10.88080322 15.44143872
v 0.13596226 10.87147354 15.44002618
v 0.13547937 10.87493505 15.43876256
v 0.13104768 10.87001419 15.43769464
v 0.12830611 10.87558536 15.43432922
v 0.12772586 10.87349617 15.43467810
v 0.13367632 10.87409528 15.43798821
v 0.13477061 10.87775648 15.43737128
v 0.13703319 10.87967670 15.43783929
v 0.12814255 10.85897425 15.43755849
v 0.12802182 10.85584046 15.43763082
v 0.12800625 10.85270667 15.43763933
v 0.13242236 10.84331555 15.44005597
v 0.12692364 10.86210291 15.43655865
v 0.12724686 10.87149403 15.43498018
v 0.12692364 10.87037775 15.43507804
v 0.12967300 10.84644422 15.43850728
v 0.12692364 10.84957800 15.43691604
v 0.12952891 10.89283143 15.42044634
v 0.13265991 10.89330764 15.42044634
v 0.12692364 10.89226305 15.42031445
v 0.16397381 10.89293384 15.43609915
v 0.16670370 10.89264709 15.43924332
v 0.16670370 10.88402405 15.44844185
v 0.16428146 10.88402918 15.44767176
v 0.16553152 10.88559095 15.44706335
v 0.16344419 10.88507890 15.44669745
v 0.15846730 10.88596475 15.44425529
v 0.15637607 10.88545781 15.44383408
v 0.15457691 10.88487919 15.44342989
v 0.14637946 10.88274904 15.44098347
v 0.14831491 10.88498672 15.44039633
v 0.14356389 10.88562679 15.43769464
v 0.14214637 10.88080322 15.43988577
v 0.13901537 10.88078786 15.43831582
v 0.14011746 10.88275415 15.43786057
v 0.13264434 10.87123288 15.43824774
v 0.13158899 10.87210337 15.43737980
v 0.12981320 10.87123288 15.43659695
v 0.12692364 10.87478143 15.43374208
v 0.13235226 10.87806371 15.43578856
v 0.13110220 10.87931314 15.43452919
v 0.12692364 10.87774112 15.43253377
v 0.12692364 10.87270760 15.43441431
v 0.12692364 10.87424889 15.43392078
v 0.13803012 10.88176589 15.43730322
v 0.13591164 10.88078786 15.43663949
v 0.13333752 10.88089027 15.43509080
v 0.12692364 10.85897425 15.43677139
v 0.12692364 10.85584046 15.43690327
v 0.12692364 10.85372054 15.43693306
v 0.12692364 10.85270667 15.43694157
v 0.12692364 10.85059700 15.43693306
v 0.12692364 10.87149403 15.43477596
v 0.13259371 10.89256003 15.42370540
v 0.13579091 10.89312842 15.42357776
v 0.14205291 10.89317450 15.42670917
v 0.12692364 10.89214015 15.42065057
v 0.12952891 10.89214527 15.42259068
v 0.14518781 10.89282119 15.42984059
v 0.15144591 10.89268293 15.43296774
v 0.15457691 10.89232961 15.43550350
v 0.16421136 10.89233474 15.43931991
v 0.16670370 10.89200190 15.44105155
v 0.16670370 10.88583162 15.44725481
v 0.16670370 10.88699398 15.44629751
v 0.16504474 10.88892956 15.44412765
v 0.16084281 10.88647169 15.44468500
v 0.16084281 10.88803346 15.44329374
v 0.15732628 10.88733194 15.44252790
v 0.15457691 10.88833557 15.44044313
v 0.15457691 10.88676867 15.44186418
v 0.14959224 10.88885275 15.43779250
v 0.14750490 10.88833557 15.43732449
v 0.15203785 10.88613373 15.44127279
v 0.14518781 10.88610813 15.43809458
v 0.14995051 10.88553974 15.44076648
v 0.14518781 10.88767501 15.43677990
v 0.14114554 10.88833557 15.43419308
v 0.13948269 10.88624638 15.43507379
v 0.13739535 10.88556022 15.43451643
v 0.14147266 10.88484334 15.43716281
v 0.13407743 10.88259030 15.43462279
v 0.13875446 10.88415719 15.43618850
v 0.13579091 10.88331742 15.43511208
v 0.13177202 10.88089027 15.43411650
v 0.12826716 10.88207312 15.43120632
v 0.12692364 10.88047038 15.43116377
v 0.12692364 10.87966645 15.43158498
v 0.13892191 10.89283143 15.42670917
v 0.13359454 10.89209919 15.42555191
v 0.13605572 10.89228865 15.42664110
v 0.12692364 10.89160762 15.42167169
v 0.12790500 10.89187389 15.42205035
v 0.14225542 10.89236034 15.42986611
v 0.14857972 10.89229377 15.43297624
v 0.15144591 10.89206334 15.43489083
v 0.16084281 10.89221696 15.43835837
v 0.16541469 10.89187900 15.44084307
v 0.16670370 10.89076272 15.44263002
v 0.16670370 10.88741387 15.44594437
v 0.16670370 10.88920607 15.44439994
v 0.16332736 10.89160249 15.44042186
v 0.16084281 10.88963107 15.44172804
v 0.15827259 10.88913950 15.44121748
v 0.15618525 10.88869913 15.44078351
v 0.15144591 10.88925216 15.43820094
v 0.14865372 10.89017386 15.43595024
v 0.14518781 10.88938529 15.43521419
v 0.14323677 10.88892444 15.43473341
v 0.13705655 10.88889371 15.43158498
v 0.13592332 10.88714760 15.43237635
v 0.13356338 10.88610300 15.43181899
v 0.13579091 10.88488431 15.43404416
v 0.13277674 10.88392164 15.43289966
v 0.13035839 10.88316892 15.43189982
v 0.12692364 10.88128455 15.43073406
v 0.12692364 10.88387044 15.42912155
v 0.13150720 10.89164346 15.42483288
v 0.13727463 10.89188412 15.42832593
v 0.13892191 10.89210431 15.42873437
v 0.12692364 10.89042476 15.42313528
v 0.12952891 10.89107508 15.42415639
v 0.14343538 10.89191485 15.43149989
v 0.14518781 10.89211455 15.43187855
v 0.15862307 10.89200702 15.43792439
v 0.14979863 10.89187389 15.43457174
v 0.16084281 10.89119797 15.43992407
v 0.15457691 10.88984614 15.43887743
v 0.14771130 10.89148984 15.43402715
v 0.14518781 10.89095218 15.43344001
v 0.14229046 10.89020970 15.43284436
v 0.13892191 10.88936481 15.43206576
v 0.13121124 10.88863769 15.42819830
v 0.13496922 10.88819219 15.43094679
v 0.13892191 10.89093170 15.43030008
v 0.13612192 10.89012265 15.42963636
v 0.13330247 10.88926752 15.42886202
v 0.12952891 10.88641536 15.42896838
v 0.13147605 10.88525299 15.43116803
v 0.13238731 10.88736778 15.43001503
v 0.12940040 10.88413671 15.43058514
v 0.12692364 10.88434153 15.42878969
v 0.13518730 10.89135158 15.42764094
v 0.12952891 10.88950818 15.42604119
v 0.13240289 10.89045548 15.42687510
v 0.14134805 10.89148984 15.43092126
v 0.12692364 10.89019434 15.42341608
v 0.12761682 10.88893468 15.42537747
v 0.12692364 10.88869401 15.42513921
v 0.12692364 10.88706055 15.42662833
v 0.12692364 10.88668163 15.42696019
v 0.12779207 10.88572920 15.42838975
v 0.12692364 10.88532468 15.42809618
v 0.12692364 10.88985126 15.42381601
f 1 2 3
f 1 3 9
f 1 9 27
f 1 27 41
f 1 41 59
f 1 59 83
f 1 83 110
f 1 110 135
f 1 135 171
f 1 171 211
f 1 211 245
f 1 245 286
f 1 286 322
f 1 322 324
f 1 324 323
f 1 323 288
f 1 288 287
f 1 287 246
f 1 246 214
f 1 214 212
f 1 212 174
f 1 174 138
f 1 138 117
f 1 117 116
f 1 116 112
f 1 112 113
f 1 113 111
f 1 111 84
f 1 84 60
f 1 60 42
f 1 42 28
f 1 28 10
f 1 10 4
f 1 4 2
f 2 5 6
f 2 6 7
f 2 7 3
f 2 4 8
f 2 8 5
f 3 7 9
f 4 10 11
f 4 11 12
f 4 12 8
f 5 8 13
f 5 13 14
f 5 14 15
f 5 15 16
f 5 16 17
f 5 17 18
f 5 18 19
f 5 19 6
f 6 19 20
f 6 20 21
f 6 21 22
f 6 22 23
f 6 23 7
f 7 24 9
f 7 23 25
f 7 25 24
f 8 12 26
f 8 26 13
f 9 24 27
f 10 28 29
f 10 29 11
f 11 29 12
f 12 29 30
f 12 30 31
f 12 31 26
f 13 26 14
f 14 26 32
f 14 32 15
f 15 17 16
f 15 32 17
f 17 33 34
f 17 34 18
f 17 32 35
f 17 35 33
f 18 34 36
f 18 36 19
f 19 36 37
f 19 37 38
f 19 38 39
f 19 39 20
f 20 39 38
f 20 38 58
f 20 58 57
f 20 57 80
f 20 80 79
f 20 79 78
f 20 78 106
f 20 106 129
f 20 129 165
f 20 165 204
f 20 204 167
f 20 167 166
f 20 166 131
f 20 131 107
f 20 107 81
f 20 81 59
f 20 59 41
f 20 41 40
f 20 40 25
f 20 25 23
f 20 23 22
f 20 22 21
f 24 25 40
f 24 40 27
f 26 31 32
f 27 40 41
f 28 42 43
f 28 43 29
f 29 43 30
f 30 44 31
f 30 43 45
f 30 45 46
f 30 46 47
f 30 47 44
f 31 48 32
f 31 44 49
f 31 49 48
f 32 48 50
f 32 50 35
f 33 51 52
f 33 52 34
f 33 35 53
f 33 53 51
f 34 52 54
f 34 54 36
f 35 50 55
f 35 55 53
f 36 54 37
f 37 54 56
f 37 56 57
f 37 57 58
f 37 58 38
f 42 60 43
f 43 60 61
f 43 61 45
f 44 47 49
f 45 61 62
f 45 62 63
f 45 63 46
f 46 63 64
f 46 64 65
f 46 65 47
f 47 66 67
f 47 67 49
f 47 65 66
f 48 49 50
f 49 67 68
f 49 68 50
f 50 68 55
f 51 69 52
f 51 53 69
f 52 70 54
f 52 69 70
f 53 71 69
f 53 55 71
f 54 70 72
f 54 72 73
f 54 73 56
f 55 74 75
f 55 75 71
f 55 68 76
f 55 76 77
f 55 77 74
f 56 73 78
f 56 78 79
f 56 79 80
f 56 80 57
f 59 81 82
f 59 82 83
f 60 84 61
f 61 84 85
f 61 85 86
f 61 86 62
f 62 86 63
f 63 86 64
f 64 87 65
f 64 86 88
f 64 88 89
f 64 89 90
f 64 90 91
f 64 91 92
f 64 92 87
f 65 87 66
f 66 87 93
f 66 93 77
f 66 77 68
f 66 68 67
f 68 77 76
f 69 94 95
f 69 95 96
f 69 96 70
f 69 71 94
f 70 96 72
f 71 75 97
f 71 97 94
f 72 96 95
f 72 95 98
f 72 98 78
f 72 78 73
f 74 77 99
f 74 99 100
f 74 100 75
f 75 101 97
f 75 100 102
f 75 102 101
f 77 103 100
f 77 100 99
f 77 93 104
f 77 104 103
f 78 105 106
f 78 98 105
f 81 107 132
f 81 132 169
f 81 169 208
f 81 208 240
f 81 240 275
f 81 275 274
f 81 274 273
f 81 273 272
f 81 272 271
f 81 271 236
f 81 236 198
f 81 198 201
f 81 201 238
f 81 238 276
f 81 276 266
f 81 266 267
f 81 267 262
f 81 262 265
f 81 265 311
f 81 311 310
f 81 310 339
f 81 339 340
f 81 340 365
f 81 365 376
f 81 376 374
f 81 374 373
f 81 373 372
f 81 372 377
f 81 377 370
f 81 370 344
f 81 344 315
f 81 315 280
f 81 280 243
f 81 243 209
f 81 209 170
f 81 170 133
f 81 133 109
f 81 109 108
f 81 108 82
f 82 108 83
f 83 108 109
f 83 109 110
f 84 111 85
f 85 111 86
f 86 112 88
f 86 111 113
f 86 113 112
f 87 114 115
f 87 115 93
f 87 92 114
f 88 116 117
f 88 117 118
f 88 118 89
f 88 112 116
f 89 118 90
f 90 118 119
f 90 119 91
f 91 119 92
f 92 120 114
f 92 119 121
f 92 121 120
f 93 115 104
f 94 122 95
f 94 97 122
f 95 123 105
f 95 105 98
f 95 122 123
f 97 124 122
f 97 101 124
f 100 103 104
f 100 104 125
f 100 125 102
f 101 102 126
f 101 126 124
f 102 125 127
f 102 127 126
f 104 115 125
f 105 128 106
f 105 123 128
f 106 128 130
f 106 130 129
f 107 131 132
f 109 133 134
f 109 134 135
f 109 135 110
f 114 136 115
f 114 120 136
f 115 136 137
f 115 137 125
f 117 138 118
f 118 138 139
f 118 139 140
f 118 140 141
f 118 141 119
f 119 142 121
f 119 141 140
f 119 140 143
f 119 143 144
f 119 144 142
f 120 121 145
f 120 145 146
f 120 146 136
f 121 147 148
f 121 148 149
f 121 149 145
f 121 142 150
f 121 150 151
f 121 151 147
f 122 152 130
f 122 130 128
f 122 128 123
f 122 124 152
f 124 153 154
f 124 154 152
f 124 126 153
f 125 137 155
f 125 155 127
f 126 156 157
f 126 157 153
f 126 127 163
f 126 163 156
f 127 155 158
f 127 158 159
f 127 159 160
f 127 160 161
f 127 161 162
f 127 162 163
f 129 130 164
f 129 164 165
f 130 152 164
f 131 166 132
f 132 166 167
f 132 167 168
f 132 168 169
f 133 170 171
f 133 171 134
f 134 171 135
f 136 146 137
f 137 172 155
f 137 146 172
f 138 173 140
f 138 140 139
f 138 174 173
f 140 173 175
f 140 175 143
f 142 144 150
f 143 175 176
f 143 176 177
f 143 177 144
f 144 178 150
f 144 177 179
f 144 179 178
f 145 149 180
f 145 180 181
f 145 181 146
f 146 181 172
f 147 182 183
f 147 183 148
f 147 151 184
f 147 184 185
f 147 185 186
f 147 186 187
f 147 187 182
f 148 183 180
f 148 180 149
f 150 178 184
f 150 184 151
f 152 154 164
f 153 157 188
f 153 188 189
f 153 189 154
f 154 189 164
f 155 172 190
f 155 190 158
f 156 163 162
f 156 162 191
f 156 191 192
f 156 192 157
f 157 192 193
f 157 193 194
f 157 194 188
f 158 190 195
f 158 195 159
f 159 195 160
f 160 195 196
f 160 196 197
f 160 197 161
f 161 198 199
f 161 199 162
f 161 197 200
f 161 200 201
f 161 201 198
f 162 199 191
f 164 189 202
f 164 202 203
f 164 203 165
f 165 203 204
f 167 204 205
f 167 205 168
f 168 205 169
f 169 206 207
f 169 207 208
f 169 205 206
f 170 209 210
f 170 210 211
f 170 211 171
f 172 181 190
f 173 174 212
f 173 212 213
f 173 213 175
f 175 213 176
f 176 213 214
f 176 214 215
f 176 215 216
f 176 216 217
f 176 217 218
f 176 218 177
f 177 218 219
f 177 219 179
f 178 220 185
f 178 185 184
f 178 179 221
f 178 221 222
f 178 222 223
f 178 223 220
f 179 219 221
f 180 224 181
f 180 183 225
f 180 225 224
f 181 224 226
f 181 226 197
f 181 197 196
f 181 196 195
f 181 195 190
f 182 227 228
f 182 228 229
f 182 229 225
f 182 225 183
f 182 187 230
f 182 230 227
f 185 220 231
f 185 231 186
f 186 231 187
f 187 231 230
f 188 194 202
f 188 202 189
f 191 232 233
f 191 233 192
f 191 199 232
f 192 233 234
f 192 234 193
f 193 234 235
f 193 235 194
f 194 235 202
f 197 226 200
f 198 236 199
f 199 236 232
f 200 226 237
f 200 237 238
f 200 238 201
f 202 235 203
f 203 235 205
f 203 205 204
f 205 235 239
f 205 239 206
f 206 239 207
f 207 234 240
f 207 240 208
f 207 239 234
f 209 241 242
f 209 242 210
f 209 243 241
f 210 242 211
f 211 242 244
f 211 244 245
f 212 214 213
f 214 246 215
f 215 246 247
f 215 247 248
f 215 248 249
f 215 249 216
f 216 249 250
f 216 250 251
f 216 251 217
f 217 251 218
f 218 251 252
f 218 252 219
f 219 253 221
f 219 252 254
f 219 254 255
f 219 255 253
f 220 223 222
f 220 222 256
f 220 256 257
f 220 257 231
f 221 253 222
f 222 253 258
f 222 258 257
f 222 257 256
f 224 259 226
f 224 225 259
f 225 229 259
f 226 259 229
f 226 229 260
f 226 260 261
f 226 261 237
f 227 262 228
f 227 230 263
f 227 263 264
f 227 264 265
f 227 265 262
f 228 266 237
f 228 237 261
f 228 261 260
f 228 260 229
f 228 262 267
f 228 267 266
f 230 231 264
f 230 264 263
f 231 257 268
f 231 268 269
f 231 269 270
f 231 270 264
f 232 271 233
f 232 236 271
f 233 272 273
f 233 273 274
f 233 274 234
f 233 271 272
f 234 274 275
f 234 275 240
f 234 239 235
f 237 276 238
f 237 266 276
f 241 277 278
f 241 278 242
f 241 243 277
f 242 278 279
f 242 279 244
f 243 280 281
f 243 281 277
f 244 279 245
f 245 279 282
f 245 282 283
f 245 283 284
f 245 284 285
f 245 285 286
f 246 287 248
f 246 248 247
f 248 287 288
f 248 288 289
f 248 289 290
f 248 290 250
f 248 250 249
f 250 290 289
f 250 289 291
f 250 291 292
f 250 292 251
f 251 292 293
f 251 293 294
f 251 294 295
f 251 295 296
f 251 296 297
f 251 297 298
f 251 298 299
f 251 299 252
f 252 299 255
f 252 255 254
f 253 255 258
f 255 299 298
f 255 298 300
f 255 300 301
f 255 301 302
f 255 302 303
f 255 303 304
f 255 304 258
f 257 258 268
f 258 305 268
f 258 304 306
f 258 306 307
f 258 307 305
f 264 270 308
f 264 308 309
f 264 309 310
f 264 310 311
f 264 311 265
f 268 305 269
f 269 305 270
f 270 305 308
f 277 312 278
f 277 281 313
f 277 313 314
f 277 314 312
f 278 312 279
f 279 312 282
f 280 315 316
f 280 316 281
f 281 316 313
f 282 312 317
f 282 317 318
f 282 318 284
f 282 284 283
f 284 318 319
f 284 319 320
f 284 320 285
f 285 320 286
f 286 320 321
f 286 321 322
f 288 323 289
f 289 323 324
f 289 324 322
f 289 322 325
f 289 325 326
f 289 326 327
f 289 327 291
f 291 327 292
f 292 327 328
f 292 328 293
f 293 328 295
f 293 295 294
f 295 328 329
f 295 329 330
f 295 330 331
f 295 331 296
f 296 331 332
f 296 332 300
f 296 300 298
f 296 298 297
f 300 332 301
f 301 332 333
f 301 333 302
f 302 333 303
f 303 333 334
f 303 334 335
f 303 335 336
f 303 336 305
f 303 305 307
f 303 307 306
f 303 306 304
f 305 309 308
f 305 336 337
f 305 337 338
f 305 338 309
f 309 339 310
f 309 338 340
f 309 340 339
f 312 314 317
f 313 316 341
f 313 341 342
f 313 342 314
f 314 342 343
f 314 343 317
f 315 344 316
f 316 344 345
f 316 345 341
f 317 343 346
f 317 346 347
f 317 347 318
f 318 347 319
f 319 348 320
f 319 347 349
f 319 349 348
f 320 348 321
f 321 325 322
f 321 348 325
f 325 348 349
f 325 349 350
f 325 350 326
f 326 350 349
f 326 349 351
f 326 351 327
f 327 351 329
f 327 329 328
f 329 351 349
f 329 349 330
f 330 349 352
f 330 352 331
f 331 352 353
f 331 353 346
f 331 346 354
f 331 354 332
f 332 354 355
f 332 355 333
f 333 356 357
f 333 357 334
f 333 355 358
f 333 358 342
f 333 342 359
f 333 359 360
f 333 360 356
f 334 357 335
f 335 361 362
f 335 362 336
f 335 357 363
f 335 363 361
f 336 362 337
f 337 362 338
f 338 362 364
f 338 364 340
f 340 364 365
f 341 366 342
f 341 345 367
f 341 367 368
f 341 368 366
f 342 358 369
f 342 369 346
f 342 346 343
f 342 366 359
f 344 370 345
f 345 370 367
f 346 369 354
f 346 353 352
f 346 352 349
f 346 349 347
f 354 369 355
f 355 369 358
f 356 360 368
f 356 368 367
f 356 367 371
f 356 371 372
f 356 372 373
f 356 373 374
f 356 374 375
f 356 375 361
f 356 361 363
f 356 363 357
f 359 366 360
f 360 366 368
f 361 375 362
f 362 375 364
f 364 375 365
f 365 375 376
f 367 370 371
f 370 377 371
f 371 377 372
f 374 376 375

