# https://github.com/mikedh/trimesh
v 0.31899131 10.78850722 15.35469130
v 0.31919972 10.78838978 15.35469130
v 0.31919972 10.78880084 15.35468617
v 0.28540786 10.75086553 15.35469130
v 0.31919972 10.77217478 15.35469130
v 0.31919972 10.77290148 15.30225728
v 0.28540786 10.73625075 15.30225728
v 0.28540786 10.73290352 15.35469130
v 0.31857781 10.77034702 15.35469130
v 0.31919972 10.77128659 15.35467591
v 0.31919972 10.75276670 15.30225728
v 0.28540786 10.71381842 15.30225728
v 0.28540786 10.73249245 15.35404461
v 0.28624149 10.73358617 15.35469130
v 0.31692377 10.76804212 15.35469130
v 0.31586519 10.76344702 15.34998476
v 0.31857449 10.77033234 15.35467591
v 0.31915341 10.76635383 15.34720293
v 0.31894500 10.76978914 15.35299757
v 0.31919972 10.77059659 15.35364426
v 0.31919972 10.75276670 15.30356608
v 0.31602729 10.74838447 15.30225728
v 0.30042647 10.72878554 15.30225728
v 0.30040661 10.72880756 15.30457206
v 0.30036362 10.72885160 15.30770291
v 0.30030076 10.72891767 15.30986371
v 0.29676113 10.72617235 15.31396974
v 0.29519311 10.72469692 15.31396974
v 0.29351592 10.72312607 15.31396974
v 0.29324797 10.72336097 15.31710059
v 0.28540786 10.71391384 15.30286293
v 0.28540786 10.73201533 15.35328499
v 0.28828257 10.73476064 15.35390089
v 0.28645321 10.73376235 15.35469130
v 0.31215686 10.76159723 15.35469130
v 0.31251743 10.76059893 15.35268448
v 0.31419462 10.76202298 15.35133462
v 0.31303019 10.75992362 15.35059553
v 0.31338746 10.75882255 15.34812165
v 0.31510434 10.76138436 15.34841421
v 0.31607691 10.76002638 15.34417986
v 0.31887223 10.76363053 15.34340485
v 0.31919972 10.76469489 15.34433897
v 0.31919972 10.76640521 15.34715673
v 0.31919972 10.76647861 15.34727478
v 0.31919972 10.75278138 15.30457206
v 0.31572956 10.74797341 15.30225728
v 0.30205734 10.73065735 15.30225728
v 0.30335410 10.73211809 15.30770291
v 0.30335079 10.73211809 15.30940691
v 0.30323501 10.73225022 15.31149586
v 0.29998318 10.72923330 15.31396974
v 0.29841847 10.72773586 15.31396974
v 0.29492184 10.72493182 15.31710059
v 0.29452488 10.72532086 15.32023144
v 0.29282454 10.72375735 15.32023144
v 0.28540786 10.71720235 15.32083708
v 0.28540786 10.73161894 15.35261776
v 0.28702220 10.73267596 15.35219689
v 0.29036995 10.73567085 15.35242272
v 0.28914597 10.73605990 15.35469130
v 0.28777312 10.73205936 15.35011308
v 0.30983128 10.75855096 15.35469130
v 0.30962618 10.75714894 15.35316180
v 0.31168711 10.75882255 15.35160152
v 0.31274900 10.75716361 15.34687958
v 0.31310627 10.75668649 15.34527823
v 0.31289124 10.75382372 15.34094636
v 0.31535244 10.75786830 15.34214738
v 0.31650034 10.75943915 15.34214738
v 0.31817753 10.76193489 15.34227569
v 0.31919972 10.76293319 15.34138776
v 0.31919972 10.75294287 15.30770291
v 0.31571633 10.74799543 15.30457206
v 0.31026464 10.74063298 15.30457206
v 0.31027457 10.74063298 15.30225728
v 0.30623542 10.73554607 15.30225728
v 0.30624865 10.73553139 15.30457206
v 0.30334417 10.73212543 15.30535221
v 0.30622219 10.73556809 15.30770291
v 0.30747925 10.73713894 15.30770291
v 0.30734693 10.73729309 15.31083376
v 0.30610310 10.73572958 15.31083376
v 0.30430682 10.73346139 15.31060279
v 0.30301668 10.73250713 15.31396974
v 0.30145527 10.73079681 15.31396974
v 0.30590130 10.73598649 15.31396974
v 0.30433659 10.73407064 15.31396974
v 0.29970531 10.72952692 15.31710059
v 0.29813728 10.72800746 15.31710059
v 0.29775355 10.72835980 15.32023144
v 0.29609290 10.72679628 15.32023144
v 0.29059821 10.72293522 15.32427588
v 0.29737974 10.72871948 15.32265399
v 0.28540786 10.71760607 15.32236144
v 0.28540786 10.73088490 15.35137568
v 0.29102826 10.73506894 15.35033378
v 0.29229856 10.73689671 15.35142701
v 0.29357216 10.73876852 15.35252024
v 0.29148478 10.73775553 15.35404461
v 0.29017147 10.73699213 15.35469130
v 0.28540786 10.73051054 15.35071358
v 0.28540786 10.72958564 15.34906091
v 0.28612902 10.72990862 15.34858358
v 0.28718429 10.72940948 15.34602758
v 0.28830903 10.73160426 15.34841421
v 0.28987706 10.73296224 15.34841421
v 0.30829303 10.75661308 15.35469130
v 0.30773728 10.75593042 15.35469130
v 0.30735024 10.75546064 15.35469130
v 0.30342026 10.74770181 15.35012334
v 0.30637767 10.75103436 15.34981026
v 0.30692680 10.75036638 15.34772644
v 0.30912998 10.75149681 15.34527823
v 0.30985775 10.75372830 15.34733637
v 0.30955672 10.75098298 15.34362555
v 0.31123721 10.75239968 15.34228596
v 0.31004962 10.75038107 15.34153661
v 0.31213370 10.75173904 15.33901653
v 0.31574279 10.75734713 15.34027913
v 0.31866051 10.76081915 15.33901653
v 0.31701640 10.75853627 15.33914484
v 0.31919972 10.76272766 15.34101822
v 0.31919972 10.75318511 15.31083376
v 0.31829992 10.75190053 15.31083376
v 0.31564686 10.74809085 15.30770291
v 0.31021171 10.74070638 15.30770291
v 0.30904396 10.73913554 15.30770291
v 0.30909028 10.73906947 15.30457206
v 0.30908367 10.73906947 15.30225728
v 0.30751895 10.73711692 15.30225728
v 0.30752226 10.73709490 15.30457206
v 0.30891495 10.73928968 15.31083376
v 0.31355616 10.74679160 15.32023144
v 0.30269910 10.73287415 15.31710059
v 0.30113770 10.73109043 15.31710059
v 0.30402895 10.73444501 15.31710059
v 0.31330144 10.74711458 15.32336229
v 0.29931827 10.72992330 15.32023144
v 0.30078374 10.73148681 15.32023144
v 0.29381364 10.72599618 15.32453250
v 0.29191813 10.72486575 15.32649313
v 0.28540786 10.71787033 15.32318778
v 0.30045293 10.73185384 15.32260267
v 0.29875258 10.73046649 15.32367024
v 0.29700924 10.72907182 15.32474294
v 0.29348284 10.72631916 15.32649313
v 0.29161378 10.73452575 15.34841421
v 0.29318181 10.73598649 15.34841421
v 0.29422054 10.73812990 15.35043130
v 0.29341668 10.74013383 15.35469130
v 0.29221916 10.73893000 15.35469130
v 0.29639725 10.73909883 15.34841421
v 0.29792226 10.74066234 15.34841421
v 0.29732350 10.74127894 15.35036971
v 0.29667181 10.74196160 15.35245865
v 0.29766423 10.74405362 15.35403947
v 0.29532544 10.74206436 15.35469130
v 0.29458443 10.74086053 15.35404974
v 0.28540786 10.72897639 15.34793175
v 0.28540786 10.72869745 15.34740823
v 0.29051551 10.73239703 15.34633553
v 0.28540786 10.72712660 15.34444675
v 0.28540786 10.72635586 15.34294292
v 0.28613894 10.72670086 15.34240400
v 0.30479642 10.75245841 15.35469130
v 0.30281158 10.74842851 15.35220716
v 0.30072419 10.74721734 15.35391116
v 0.30160083 10.74641723 15.35124737
v 0.30039008 10.74446468 15.35028245
v 0.30004273 10.74171203 15.34654083
v 0.30183239 10.74301862 15.34539628
v 0.30362536 10.74433255 15.34424658
v 0.30387678 10.74718064 15.34841421
v 0.30605679 10.74828170 15.34605837
v 0.30559366 10.74933873 15.34862464
v 0.30742302 10.74933873 15.34511912
v 0.30659931 10.74764309 15.34396943
v 0.30877601 10.74934607 15.34240914
v 0.30703597 10.74712192 15.34214738
v 0.30621226 10.74496383 15.33997118
v 0.31056898 10.74975713 15.33901653
v 0.31252735 10.75120319 15.33685060
v 0.31614307 10.75679660 15.33819019
v 0.31919972 10.76162659 15.33901653
v 0.31895493 10.76037138 15.33732279
v 0.31919972 10.75353011 15.31396974
v 0.31818745 10.75206936 15.31396974
v 0.31662274 10.74990394 15.31396974
v 0.31673191 10.74976447 15.31083376
v 0.31010255 10.74086053 15.31083376
v 0.30867347 10.73855564 15.30225728
v 0.31276554 10.74461883 15.31271227
v 0.31265306 10.74476564 15.31480121
v 0.31512088 10.74878819 15.32023144
v 0.30911344 10.74212309 15.32336229
v 0.30234514 10.73329256 15.32023144
v 0.31486616 10.74912585 15.32336229
v 0.31293425 10.74755500 15.32649313
v 0.30874624 10.74254883 15.32649313
v 0.30717822 10.74072106 15.32649313
v 0.29016816 10.72329491 15.32649313
v 0.28540786 10.71897140 15.32635456
v 0.29285101 10.72690639 15.32962398
v 0.29128628 10.72546033 15.32962398
v 0.30012874 10.73222086 15.32469161
v 0.30672502 10.74124224 15.32962398
v 0.30532240 10.73967138 15.32962398
v 0.29981117 10.73255117 15.32649313
v 0.29824314 10.73096564 15.32649313
v 0.29667181 10.72940213 15.32649313
v 0.29510379 10.72788267 15.32649313
v 0.29375410 10.73545064 15.34651517
v 0.29483253 10.73755001 15.34841421
v 0.29693976 10.73854096 15.34660755
v 0.29948697 10.74229926 15.34841421
v 0.29975162 10.74513266 15.35237139
v 0.29650641 10.74329755 15.35469130
v 0.29896430 10.74587404 15.35469130
v 0.29845155 10.74533086 15.35469130
v 0.29110765 10.73187586 15.34424658
v 0.29436279 10.73490011 15.34443135
v 0.28720083 10.72627512 15.33972482
v 0.28540786 10.72578331 15.34177783
v 0.30196140 10.74919192 15.35469130
v 0.30169345 10.74888362 15.35469130
v 0.29940758 10.74635117 15.35469130
v 0.29751206 10.73795373 15.34451861
v 0.30060510 10.74112479 15.34445702
v 0.30570944 10.74555107 15.34214738
v 0.30273549 10.74218915 15.34214738
v 0.30414473 10.74375266 15.34214738
v 0.30318208 10.74169734 15.34022781
v 0.30492212 10.74307734 15.33905759
v 0.30664231 10.74445734 15.33788224
v 0.30756195 10.74609426 15.33896007
v 0.30997023 10.74734213 15.33531084
v 0.31287470 10.75074075 15.33476165
v 0.31612322 10.75370628 15.33188743
v 0.31040689 10.74678426 15.33275483
v 0.31919972 10.76103202 15.33787711
v 0.31919972 10.75982819 15.33530570
v 0.31919972 10.76062830 15.33707643
v 0.31919972 10.75375032 15.31578666
v 0.31914348 10.75383106 15.31710059
v 0.31905086 10.75397053 15.31913821
v 0.31802536 10.75226755 15.31710059
v 0.31544838 10.74834042 15.31396974
v 0.31646065 10.75013883 15.31710059
v 0.31628201 10.75035904 15.32023144
v 0.31603391 10.75068936 15.32336229
v 0.31463129 10.74966904 15.32620058
v 0.31587181 10.75091691 15.32496364
v 0.31273907 10.74778989 15.32808422
v 0.30978167 10.74445000 15.32869499
v 0.30848159 10.74328287 15.32969071
v 0.28540786 10.71902278 15.32649313
v 0.29042289 10.72620905 15.33343746
v 0.29446865 10.72847724 15.32962398
v 0.29482260 10.73129597 15.33588568
v 0.28540786 10.72029267 15.32984981
v 0.28540786 10.71963203 15.32810475
v 0.30345996 10.73827671 15.33152302
v 0.30948063 10.74480968 15.33078394
v 0.30647029 10.74152851 15.33119967
v 0.30172984 10.73688202 15.33263165
v 0.29998980 10.73548734 15.33374028
v 0.29564962 10.73669852 15.34551946
v 0.29432640 10.73177309 15.33817993
v 0.29324797 10.73276405 15.34214738
v 0.29497477 10.73432756 15.34214738
v 0.29653949 10.73578096 15.34214738
v 0.28540786 10.72402894 15.33814913
v 0.28540786 10.72306735 15.33610638
v 0.28777643 10.72579064 15.33764101
v 0.29965900 10.73896670 15.34214738
v 0.29809428 10.73735181 15.34214738
v 0.30117408 10.74053756 15.34214738
v 0.30362867 10.74122756 15.33814400
v 0.30008573 10.73852628 15.34030480
v 0.29747237 10.73487075 15.33830824
v 0.29955644 10.73594979 15.33588568
v 0.30913990 10.74521340 15.33275483
v 0.30407195 10.74072841 15.33588568
v 0.30563666 10.74246809 15.33588568
v 0.30701282 10.74403160 15.33588568
v 0.31321213 10.75032234 15.33275483
v 0.31527636 10.75168032 15.32962398
v 0.31646065 10.75324383 15.32962398
v 0.31815437 10.75576159 15.32970097
v 0.31919972 10.75816925 15.33159488
v 0.31919972 10.75391915 15.31710059
v 0.31919972 10.75416138 15.31889698
v 0.31919972 10.75424213 15.31934351
v 0.31919972 10.75453574 15.32090893
v 0.31892184 10.75416138 15.32122715
v 0.31803528 10.75275202 15.32020064
v 0.31734389 10.75248777 15.32336229
v 0.31563032 10.75123989 15.32705258
v 0.31665581 10.75236298 15.32620058
v 0.28981089 10.72675958 15.33588568
v 0.28824618 10.72538692 15.33588568
v 0.28540786 10.72138639 15.33239042
v 0.28540786 10.72048352 15.33031174
v 0.29799173 10.73437894 15.33588568
v 0.29638732 10.73281543 15.33588568
v 0.30478649 10.74010447 15.33240582
v 0.30308284 10.73868043 15.33361196
v 0.30735685 10.74303330 15.33244688
v 0.30611302 10.74193958 15.33328861
v 0.30104838 10.73751330 15.33588568
v 0.29698277 10.73536256 15.34039718
v 0.30260979 10.73916490 15.33588568
v 0.31841240 10.75492479 15.32649313
v 0.31919972 10.75691404 15.32868986
v 0.31888545 10.75734713 15.33079933
v 0.31919972 10.75477064 15.32193544
v 0.31873990 10.75444032 15.32336229
v 0.31919972 10.75576893 15.32539990
v 0.31919972 10.75611394 15.32649313
v 0.31919972 10.75514500 15.32336229
f 1 2 3
f 1 3 4
f 1 4 8
f 1 8 14
f 1 14 34
f 1 34 61
f 1 61 101
f 1 101 152
f 1 152 151
f 1 151 158
f 1 158 218
f 1 218 220
f 1 220 219
f 1 219 227
f 1 227 226
f 1 226 225
f 1 225 166
f 1 166 110
f 1 110 109
f 1 109 108
f 1 108 63
f 1 63 35
f 1 35 15
f 1 15 9
f 1 9 5
f 1 5 2
f 2 5 10
f 2 10 20
f 2 20 45
f 2 45 44
f 2 44 43
f 2 43 72
f 2 72 123
f 2 123 185
f 2 185 241
f 2 241 243
f 2 243 242
f 2 242 291
f 2 291 315
f 2 315 320
f 2 320 319
f 2 319 321
f 2 321 317
f 2 317 295
f 2 295 294
f 2 294 293
f 2 293 292
f 2 292 244
f 2 244 187
f 2 187 124
f 2 124 73
f 2 73 46
f 2 46 21
f 2 21 11
f 2 11 6
f 2 6 3
f 3 6 7
f 3 7 4
f 4 7 12
f 4 12 31
f 4 31 57
f 4 57 95
f 4 95 143
f 4 143 203
f 4 203 257
f 4 257 262
f 4 262 261
f 4 261 304
f 4 304 303
f 4 303 274
f 4 274 273
f 4 273 224
f 4 224 164
f 4 164 163
f 4 163 161
f 4 161 160
f 4 160 103
f 4 103 102
f 4 102 96
f 4 96 58
f 4 58 32
f 4 32 13
f 4 13 8
f 5 9 10
f 6 11 22
f 6 22 47
f 6 47 76
f 6 76 130
f 6 130 192
f 6 192 131
f 6 131 77
f 6 77 48
f 6 48 23
f 6 23 12
f 6 12 7
f 8 13 14
f 9 15 16
f 9 16 17
f 9 17 18
f 9 18 19
f 9 19 20
f 9 20 10
f 11 21 22
f 12 23 24
f 12 24 25
f 12 25 26
f 12 26 27
f 12 27 28
f 12 28 29
f 12 29 30
f 12 30 31
f 13 32 33
f 13 33 14
f 14 33 34
f 15 35 36
f 15 36 37
f 15 37 16
f 16 18 17
f 16 37 38
f 16 38 39
f 16 39 40
f 16 40 41
f 16 41 18
f 18 42 43
f 18 43 44
f 18 44 45
f 18 45 20
f 18 20 19
f 18 41 42
f 21 46 47
f 21 47 22
f 23 48 49
f 23 49 50
f 23 50 24
f 24 50 25
f 25 50 26
f 26 50 51
f 26 51 52
f 26 52 53
f 26 53 27
f 27 53 54
f 27 54 28
f 28 54 30
f 28 30 29
f 30 54 55
f 30 55 56
f 30 56 57
f 30 57 31
f 32 58 59
f 32 59 33
f 33 60 61
f 33 61 34
f 33 59 62
f 33 62 60
f 35 63 64
f 35 64 36
f 36 64 65
f 36 65 66
f 36 66 38
f 36 38 37
f 38 66 39
f 39 41 40
f 39 66 41
f 41 66 67
f 41 67 68
f 41 68 69
f 41 69 70
f 41 70 71
f 41 71 42
f 42 72 43
f 42 71 72
f 46 73 74
f 46 74 47
f 47 74 75
f 47 75 76
f 48 77 78
f 48 78 79
f 48 79 49
f 49 79 78
f 49 78 50
f 50 78 80
f 50 80 81
f 50 81 82
f 50 82 83
f 50 83 84
f 50 84 51
f 51 85 86
f 51 86 52
f 51 84 83
f 51 83 87
f 51 87 88
f 51 88 85
f 52 86 89
f 52 89 90
f 52 90 53
f 53 90 54
f 54 90 91
f 54 91 92
f 54 92 55
f 55 93 56
f 55 92 94
f 55 94 93
f 56 93 95
f 56 95 57
f 58 96 59
f 59 96 62
f 60 62 97
f 60 97 98
f 60 98 99
f 60 99 100
f 60 100 61
f 61 100 101
f 62 96 102
f 62 102 103
f 62 103 104
f 62 104 105
f 62 105 106
f 62 106 107
f 62 107 97
f 63 108 64
f 64 66 65
f 64 108 109
f 64 109 110
f 64 110 111
f 64 111 112
f 64 112 113
f 64 113 114
f 64 114 115
f 64 115 66
f 66 115 116
f 66 116 117
f 66 117 67
f 67 117 68
f 68 117 118
f 68 118 119
f 68 119 120
f 68 120 69
f 69 120 70
f 70 121 71
f 70 120 122
f 70 122 121
f 71 121 72
f 72 121 123
f 73 124 125
f 73 125 74
f 74 126 127
f 74 127 75
f 74 125 126
f 75 127 128
f 75 128 129
f 75 129 76
f 76 129 130
f 77 131 78
f 78 131 132
f 78 132 80
f 80 132 81
f 81 132 129
f 81 129 128
f 81 128 133
f 81 133 82
f 82 87 83
f 82 133 134
f 82 134 87
f 85 135 136
f 85 136 86
f 85 88 137
f 85 137 135
f 86 136 89
f 87 134 138
f 87 138 88
f 88 138 137
f 89 139 91
f 89 91 90
f 89 136 140
f 89 140 139
f 91 139 94
f 91 94 92
f 93 94 141
f 93 141 142
f 93 142 143
f 93 143 95
f 94 139 144
f 94 144 145
f 94 145 146
f 94 146 147
f 94 147 141
f 97 107 148
f 97 148 149
f 97 149 150
f 97 150 98
f 98 150 99
f 99 151 152
f 99 152 100
f 99 150 153
f 99 153 154
f 99 154 155
f 99 155 156
f 99 156 157
f 99 157 158
f 99 158 159
f 99 159 151
f 100 152 101
f 103 160 104
f 104 160 161
f 104 161 105
f 105 162 106
f 105 161 163
f 105 163 164
f 105 164 165
f 105 165 162
f 106 162 107
f 107 162 148
f 110 166 111
f 111 167 168
f 111 168 169
f 111 169 170
f 111 170 171
f 111 171 172
f 111 172 173
f 111 173 174
f 111 174 175
f 111 175 176
f 111 176 112
f 111 166 167
f 112 176 113
f 113 176 175
f 113 175 177
f 113 177 114
f 114 177 116
f 114 116 115
f 116 118 117
f 116 177 178
f 116 178 179
f 116 179 118
f 118 179 180
f 118 180 181
f 118 181 182
f 118 182 119
f 119 182 183
f 119 183 184
f 119 184 120
f 120 184 122
f 121 185 123
f 121 122 184
f 121 184 186
f 121 186 185
f 124 187 188
f 124 188 125
f 125 188 189
f 125 189 190
f 125 190 126
f 126 190 127
f 127 190 189
f 127 189 128
f 128 189 191
f 128 191 133
f 129 132 130
f 130 132 192
f 131 192 132
f 133 191 193
f 133 193 194
f 133 194 195
f 133 195 134
f 134 195 138
f 135 140 136
f 135 137 196
f 135 196 197
f 135 197 140
f 137 138 196
f 138 195 198
f 138 198 199
f 138 199 200
f 138 200 196
f 139 140 144
f 140 197 201
f 140 201 144
f 141 147 142
f 142 202 203
f 142 203 143
f 142 147 204
f 142 204 205
f 142 205 202
f 144 206 145
f 144 201 207
f 144 207 208
f 144 208 206
f 145 206 146
f 146 206 209
f 146 209 210
f 146 210 211
f 146 211 212
f 146 212 147
f 147 212 204
f 148 213 149
f 148 162 213
f 149 213 214
f 149 214 150
f 150 214 215
f 150 215 153
f 151 159 158
f 153 215 154
f 154 215 171
f 154 171 216
f 154 216 155
f 155 216 217
f 155 217 156
f 156 217 157
f 157 218 158
f 157 217 219
f 157 219 220
f 157 220 218
f 162 221 222
f 162 222 213
f 162 165 223
f 162 223 221
f 164 224 165
f 165 224 223
f 166 225 168
f 166 168 167
f 168 225 226
f 168 226 227
f 168 227 219
f 168 219 217
f 168 217 169
f 169 217 170
f 170 217 216
f 170 216 171
f 171 215 228
f 171 228 229
f 171 229 172
f 172 229 173
f 173 230 178
f 173 178 175
f 173 175 174
f 173 229 231
f 173 231 232
f 173 232 230
f 175 178 177
f 178 230 180
f 178 180 179
f 180 230 181
f 181 230 232
f 181 232 233
f 181 233 234
f 181 234 235
f 181 235 236
f 181 236 182
f 182 236 235
f 182 235 237
f 182 237 183
f 183 238 239
f 183 239 184
f 183 237 240
f 183 240 238
f 184 239 186
f 185 186 241
f 186 242 243
f 186 243 241
f 186 239 242
f 187 244 188
f 188 244 245
f 188 245 246
f 188 246 247
f 188 247 189
f 189 195 248
f 189 248 193
f 189 193 191
f 189 247 249
f 189 249 195
f 193 248 195
f 193 195 194
f 195 249 250
f 195 250 251
f 195 251 198
f 196 200 197
f 197 200 201
f 198 252 199
f 198 251 253
f 198 253 252
f 199 252 254
f 199 254 200
f 200 254 255
f 200 255 201
f 201 255 256
f 201 256 207
f 202 205 257
f 202 257 203
f 204 258 205
f 204 212 211
f 204 211 259
f 204 259 260
f 204 260 258
f 205 258 261
f 205 261 262
f 205 262 257
f 206 208 263
f 206 263 209
f 207 256 264
f 207 264 265
f 207 265 208
f 208 265 263
f 209 263 266
f 209 266 267
f 209 267 210
f 210 267 211
f 211 267 259
f 213 222 268
f 213 268 215
f 213 215 214
f 215 268 228
f 221 269 270
f 221 270 222
f 221 223 269
f 222 271 272
f 222 272 268
f 222 270 269
f 222 269 271
f 223 224 273
f 223 273 274
f 223 274 275
f 223 275 269
f 228 276 229
f 228 268 272
f 228 272 277
f 228 277 276
f 229 276 278
f 229 278 231
f 231 278 233
f 231 233 232
f 233 279 234
f 233 278 276
f 233 276 280
f 233 280 281
f 233 281 282
f 233 282 279
f 234 279 235
f 235 283 237
f 235 279 284
f 235 284 285
f 235 285 286
f 235 286 283
f 237 283 240
f 238 287 239
f 238 240 287
f 239 287 288
f 239 288 289
f 239 289 290
f 239 290 242
f 240 283 264
f 240 264 254
f 240 254 287
f 242 290 291
f 244 292 245
f 245 292 293
f 245 293 246
f 246 293 294
f 246 294 295
f 246 295 296
f 246 296 297
f 246 297 250
f 246 250 247
f 247 250 249
f 250 297 296
f 250 296 251
f 251 296 298
f 251 298 253
f 252 253 299
f 252 299 254
f 253 298 300
f 253 300 299
f 254 264 255
f 254 299 288
f 254 288 287
f 255 264 256
f 258 301 302
f 258 302 303
f 258 303 304
f 258 304 261
f 258 260 269
f 258 269 301
f 259 267 305
f 259 305 306
f 259 306 260
f 260 306 281
f 260 281 269
f 263 265 307
f 263 307 308
f 263 308 266
f 264 283 309
f 264 309 310
f 264 310 265
f 265 310 307
f 266 308 267
f 267 308 311
f 267 311 282
f 267 282 281
f 267 281 305
f 269 281 312
f 269 312 272
f 269 272 271
f 269 275 302
f 269 302 301
f 272 312 277
f 274 302 275
f 274 303 302
f 276 277 312
f 276 312 280
f 279 282 311
f 279 311 313
f 279 313 308
f 279 308 284
f 280 312 281
f 281 306 305
f 283 286 310
f 283 310 309
f 284 308 285
f 285 308 310
f 285 310 286
f 288 299 289
f 289 314 315
f 289 315 290
f 289 299 300
f 289 300 314
f 290 315 316
f 290 316 291
f 291 316 315
f 295 317 296
f 296 317 318
f 296 318 298
f 298 318 300
f 300 318 314
f 307 310 308
f 308 313 311
f 314 318 319
f 314 319 320
f 314 320 315
f 317 321 318
f 318 321 319

