# https://github.com/mikedh/trimesh
v 0.28540456 10.83092047 15.43959306
v 0.28543354 10.83092047 15.43958145
v 0.28540456 10.83092047 15.42287098
v 0.28540456 10.83077752 15.43955823
v 0.28611755 10.83077752 15.43916354
v 0.28611175 10.83092047 15.43920417
v 0.33096632 10.83092047 15.38044763
v 0.33105328 10.83090542 15.38030252
v 0.28540456 10.77067484 15.38030252
v 0.28540456 10.82779082 15.43869340
v 0.28615812 10.82784348 15.43829290
v 0.28778699 10.82900958 15.43772408
v 0.28821014 10.83077752 15.43796787
v 0.28832607 10.83092047 15.43793884
v 0.33388784 10.83092047 15.38030252
v 0.28540456 10.75406366 15.38030252
v 0.28540456 10.82578213 15.43807814
v 0.28723051 10.82692566 15.43741065
v 0.28899849 10.82784348 15.43665030
v 0.29254024 10.83076248 15.43539658
v 0.28977524 10.83077752 15.43704499
v 0.28980422 10.83092047 15.43706820
v 0.34461746 10.83092047 15.38030252
v 0.28611755 10.75467304 15.38030252
v 0.28540456 10.75453010 15.38080169
v 0.28540456 10.82530065 15.43792723
v 0.28615812 10.82421731 15.43713786
v 0.28936368 10.82453329 15.43536755
v 0.29109108 10.82559406 15.43470587
v 0.29161278 10.82764788 15.43501930
v 0.29400101 10.83092047 15.43456657
v 0.29278951 10.83092047 15.43529210
v 0.34406098 10.83092047 15.38131826
v 0.34453051 10.83061954 15.38030252
v 0.28827970 10.75658393 15.38030252
v 0.28776380 10.75711807 15.38137632
v 0.28783336 10.76018001 15.38457446
v 0.28540456 10.75756946 15.38402306
v 0.28540456 10.82484174 15.43777632
v 0.28540456 10.82364555 15.43737583
v 0.29048243 10.82351013 15.43432860
v 0.29223303 10.82453329 15.43358564
v 0.29689934 10.82642160 15.43128716
v 0.29742104 10.82851305 15.43163542
v 0.29536902 10.83076248 15.43366691
v 0.29520091 10.83092047 15.43382362
v 0.34334219 10.83092047 15.38257779
v 0.34322047 10.83078505 15.38271709
v 0.34120903 10.82835506 15.38490530
v 0.34387549 10.82974685 15.38099323
v 0.34445515 10.83038632 15.38030252
v 0.28979843 10.75796067 15.38030252
v 0.28985060 10.75805847 15.38036056
v 0.28884197 10.75911924 15.38247332
v 0.28778119 10.76335479 15.38766232
v 0.28665663 10.76126335 15.38666399
v 0.28540456 10.76069158 15.38720959
v 0.28540456 10.75983394 15.38636217
v 0.28581612 10.75960825 15.38577014
v 0.28540456 10.75884088 15.38534062
v 0.29099254 10.76014991 15.38147499
v 0.29413433 10.76638663 15.38461509
v 0.30979111 10.80710960 15.40966048
v 0.30660874 10.80402510 15.40960824
v 0.30342058 10.80095564 15.40955601
v 0.28540456 10.82138860 15.43651680
v 0.28611755 10.82138860 15.43611050
v 0.29477776 10.82451824 15.43193724
v 0.28822174 10.82138860 15.43486258
v 0.28979263 10.82138860 15.43389327
v 0.29418650 10.82258478 15.43157157
v 0.29634286 10.82451824 15.43089828
v 0.29986723 10.82354775 15.42802516
v 0.30046428 10.82563167 15.42845468
v 0.30098019 10.82764788 15.42883195
v 0.29853979 10.82754256 15.43052680
v 0.29953103 10.83077752 15.43093890
v 0.29796592 10.83077752 15.43200108
v 0.29800070 10.83092047 15.43201850
v 0.34166116 10.83092047 15.38542768
v 0.34157421 10.83077752 15.38550894
v 0.33841503 10.82792624 15.38914821
v 0.34024678 10.82744476 15.38596749
v 0.34084963 10.82627114 15.38431907
v 0.34192202 10.82744476 15.38311179
v 0.34060617 10.83077752 15.38707610
v 0.34352190 10.82764788 15.38034316
v 0.34362044 10.82788863 15.38030252
v 0.28996074 10.75811113 15.38030252
v 0.29154322 10.75958568 15.38030252
v 0.28540456 10.76154170 15.38801639
v 0.29298079 10.76101508 15.38030252
v 0.29307934 10.76121068 15.38040119
v 0.29516034 10.76537852 15.38248493
v 0.31290972 10.80710208 15.40654940
v 0.31188371 10.80815532 15.40863893
v 0.30979691 10.80397244 15.40654359
v 0.31288654 10.81024677 15.40963726
v 0.31077075 10.80926123 15.41068784
v 0.30965779 10.81036714 15.41266128
v 0.30860280 10.80827570 15.41173841
v 0.30651600 10.80725254 15.41264387
v 0.30000635 10.80120391 15.41245813
v 0.28540456 10.76853826 15.39454618
v 0.28540456 10.76731198 15.39342016
v 0.28540456 10.82072656 15.43623819
v 0.28769424 10.81980121 15.43454335
v 0.29241852 10.82147888 15.43224487
v 0.29139830 10.81899623 15.43180374
v 0.29713700 10.81974102 15.42831537
v 0.29764711 10.82138860 15.42866944
v 0.30381476 10.82451824 15.42550031
v 0.30161202 10.82456338 15.42716033
v 0.29921220 10.82138860 15.42753761
v 0.30171637 10.82168200 15.42581374
v 0.30335682 10.82292332 15.42515205
v 0.30604647 10.82692566 15.42481541
v 0.30254529 10.82764788 15.42769432
v 0.30307278 10.82979199 15.42807740
v 0.30208155 10.83092047 15.42916861
v 0.29961798 10.83092047 15.43091569
v 0.29956001 10.83092047 15.43095632
v 0.29809925 10.83092047 15.43195465
v 0.34159160 10.83092047 15.38554377
v 0.33780058 10.82916004 15.39072117
v 0.33746438 10.82706860 15.39021039
v 0.33813680 10.82523294 15.38812087
v 0.33769624 10.82314902 15.38741274
v 0.34046126 10.82451824 15.38362257
v 0.34133075 10.82451824 15.38205541
v 0.34235676 10.82469127 15.38030252
v 0.34062356 10.83092047 15.38710511
v 0.33705282 10.83092047 15.39267721
v 0.33618911 10.83092047 15.39402380
v 0.34349291 10.82752751 15.38030252
v 0.34353928 10.82764788 15.38030252
v 0.29326483 10.76130848 15.38030252
v 0.29718917 10.76646186 15.38142855
v 0.31285755 10.80402510 15.40336286
v 0.31589500 10.80725254 15.40326418
v 0.31499652 10.80830579 15.40534791
v 0.31394153 10.80927628 15.40751290
v 0.31588341 10.81039723 15.40638107
v 0.31650945 10.81199215 15.40707178
v 0.31511245 10.81199215 15.40863893
v 0.31575588 10.81372248 15.40937026
v 0.31355315 10.81199215 15.41028154
v 0.31259670 10.81376009 15.41248715
v 0.31188950 10.81199215 15.41184869
v 0.31032441 10.81199215 15.41325912
v 0.30931579 10.81391808 15.41551698
v 0.30817964 10.81181159 15.41491334
v 0.30625515 10.81064550 15.41558083
v 0.30775069 10.80913334 15.41318947
v 0.30509003 10.80869699 15.41491334
v 0.30304959 10.80754595 15.41553440
v 0.30490453 10.80653784 15.41326492
v 0.29058097 10.80750833 15.42496632
v 0.28540456 10.77203654 15.39765146
v 0.28540456 10.77043410 15.39624102
v 0.28540456 10.81852226 15.43530952
v 0.28596104 10.81855988 15.43500770
v 0.28690589 10.81771729 15.43404999
v 0.28916659 10.81835675 15.43292396
v 0.29063894 10.81691231 15.43128716
v 0.30063239 10.81923697 15.42544807
v 0.30271919 10.82083941 15.42467030
v 0.29420968 10.81637816 15.42846049
v 0.29985564 10.81714552 15.42488506
v 0.30537985 10.82451824 15.42430463
v 0.30476541 10.82161429 15.42346882
v 0.30680004 10.82239670 15.42226153
v 0.30740289 10.82451824 15.42273748
v 0.30947809 10.82634637 15.42190167
v 0.30802313 10.82767797 15.42356169
v 0.30656817 10.82901710 15.42521590
v 0.30496249 10.82784348 15.42597626
v 0.30471904 10.83081514 15.42719515
v 0.30332784 10.83092047 15.42826314
v 0.33435736 10.83019824 15.39652544
v 0.33497181 10.82764788 15.39432562
v 0.33468778 10.82598526 15.39388450
v 0.33530222 10.82477403 15.39223028
v 0.33710499 10.82432264 15.38914821
v 0.33497181 10.82241175 15.39116810
v 0.33563844 10.82137355 15.38915983
v 0.33727889 10.82114786 15.38622286
v 0.33828171 10.82203559 15.38532901
v 0.34095977 10.82287066 15.38138211
v 0.34202056 10.82393896 15.38030252
v 0.33515730 10.83092047 15.39561997
v 0.29615737 10.76432528 15.38030252
v 0.29618635 10.76437042 15.38032574
v 0.29753697 10.76577725 15.38030252
v 0.31577907 10.80111363 15.39686788
v 0.31671233 10.80320507 15.39797650
v 0.31885130 10.80746319 15.39991512
v 0.31823685 10.80864433 15.40189438
v 0.31889187 10.81056274 15.40309586
v 0.31819628 10.81175893 15.40494742
v 0.31878753 10.81388799 15.40609666
v 0.31759922 10.81485095 15.40811074
v 0.31849770 10.81753673 15.40894075
v 0.31641090 10.81581392 15.41004356
v 0.31536750 10.81746150 15.41212729
v 0.31452119 10.81478325 15.41126245
v 0.31328651 10.81585154 15.41314884
v 0.31217934 10.81754425 15.41523837
v 0.31134462 10.81488105 15.41433291
v 0.30586677 10.81424910 15.41841911
v 0.30722899 10.81273694 15.41632958
v 0.31009254 10.81600200 15.41615544
v 0.30675366 10.81633302 15.41910402
v 0.30502046 10.81186425 15.41739756
v 0.30033096 10.81343660 15.42209901
v 0.29374015 10.81063797 15.42498373
v 0.30416835 10.80963739 15.41637020
v 0.28848838 10.80667326 15.42563961
v 0.29165335 10.80959225 15.42570346
v 0.28754932 10.81369238 15.43131038
v 0.28634941 10.81178150 15.43077058
v 0.28540456 10.81123230 15.43100856
v 0.28706240 10.80458934 15.42473414
v 0.28540456 10.80401758 15.42525653
v 0.28540456 10.81752168 15.43485678
v 0.28540456 10.81677689 15.43450852
v 0.28855215 10.81577631 15.43196045
v 0.28945642 10.81488857 15.43079960
v 0.29227940 10.81524968 15.42909315
v 0.30616820 10.82031278 15.42177397
v 0.30408140 10.81880815 15.42258077
v 0.29776304 10.81590420 15.42562220
v 0.29684137 10.81382028 15.42497212
v 0.29874268 10.81496380 15.42431044
v 0.30106134 10.81512179 15.42266783
v 0.30331044 10.81672422 15.42198873
v 0.30503785 10.81796555 15.42136767
v 0.30818544 10.82114033 15.42055508
v 0.30896799 10.82451824 15.42148956
v 0.31117651 10.82478155 15.41973667
v 0.31277639 10.82600783 15.41891247
v 0.31107218 10.82748990 15.42097879
v 0.30996501 10.82843030 15.42230797
v 0.31013891 10.82197541 15.41933618
v 0.30852164 10.83077752 15.42429302
v 0.30695655 10.83077752 15.42550031
v 0.30474802 10.83092047 15.42720676
v 0.30460890 10.83092047 15.42731124
v 0.33151121 10.82925032 15.40007764
v 0.33237491 10.82764788 15.39812742
v 0.33394001 10.82764788 15.39589277
v 0.33446751 10.83092047 15.39668215
v 0.33190538 10.82515771 15.39748314
v 0.33308211 10.82452576 15.39538199
v 0.33425882 10.82390134 15.39325764
v 0.33206769 10.82138860 15.39463905
v 0.33159815 10.81969588 15.39394254
v 0.33434577 10.82032783 15.39022200
v 0.33146484 10.82307379 15.39688530
v 0.33501239 10.81924449 15.38813828
v 0.33771363 10.81994415 15.38429585
v 0.34035691 10.82077170 15.38030252
v 0.34115106 10.82218605 15.38030252
v 0.29911946 10.76757529 15.38030252
v 0.31872957 10.80134685 15.39344917
v 0.31664277 10.80018828 15.39477835
v 0.31772095 10.80227972 15.39574186
v 0.31879913 10.80438621 15.39670536
v 0.31965124 10.80647766 15.39782559
v 0.31969181 10.80954711 15.40101213
v 0.32177861 10.81087872 15.39960170
v 0.32254957 10.81296263 15.40064065
v 0.31962805 10.81264666 15.40401293
v 0.32171485 10.81418139 15.40273019
v 0.32239306 10.81626531 15.40354859
v 0.32152356 10.81766462 15.40563812
v 0.31943676 10.81597191 15.40685122
v 0.31726301 10.81854484 15.41086777
v 0.32216119 10.81975607 15.40639849
v 0.31910635 10.81962065 15.40960824
v 0.31602833 10.81955294 15.41277737
v 0.31410963 10.81855236 15.41400788
v 0.31284595 10.81963570 15.41584783
v 0.31114753 10.81845456 15.41666042
v 0.30485816 10.81521959 15.41982955
v 0.30377997 10.81308301 15.41921430
v 0.30956504 10.81988396 15.41884282
v 0.30900277 10.81825143 15.41837848
v 0.30743767 10.81825143 15.41965542
v 0.29475457 10.81272189 15.42570346
v 0.29116643 10.81321090 15.42851852
v 0.28540456 10.80749328 15.42813545
v 0.28540456 10.80639490 15.42725320
v 0.28586829 10.80589085 15.42655669
v 0.28618131 10.81505408 15.43301683
v 0.28546252 10.81269180 15.43198367
v 0.28540456 10.81267676 15.43200689
v 0.28540456 10.80485265 15.42595884
v 0.28540456 10.81582144 15.43396873
v 0.29325323 10.81429424 15.42779300
v 0.31222571 10.82391638 15.41843652
v 0.31332708 10.82138860 15.41627153
v 0.31549503 10.82372831 15.41540670
v 0.31598195 10.82581975 15.41585943
v 0.31470668 10.82764788 15.41780386
v 0.31314159 10.82764788 15.41923751
v 0.31201704 10.83077752 15.42137928
v 0.31045193 10.83077752 15.42272587
v 0.31117651 10.82111024 15.41802442
v 0.30863758 10.83092047 15.42424078
v 0.30704929 10.83092047 15.42547129
v 0.32861288 10.82858076 15.40350215
v 0.32823609 10.82649684 15.40303201
v 0.33121558 10.82764788 15.39968876
v 0.33309370 10.83077000 15.39852791
v 0.33276908 10.83092047 15.39903288
v 0.33176626 10.83092047 15.40039688
v 0.33324441 10.83092047 15.39837700
v 0.32903023 10.82451824 15.40093087
v 0.33074605 10.82427750 15.39852791
v 0.33100110 10.82138860 15.39620620
v 0.32879837 10.81914669 15.39752376
v 0.32988235 10.81837933 15.39529493
v 0.32887952 10.81592677 15.39455199
v 0.33096632 10.81760444 15.39291519
v 0.32858969 10.82256221 15.40036205
v 0.32803321 10.82047829 15.39960749
v 0.32818972 10.81384285 15.39349561
v 0.33433998 10.81716057 15.38702966
v 0.33562683 10.81822134 15.38599070
v 0.33762668 10.81694240 15.38100484
v 0.33827591 10.81902632 15.38220632
v 0.33900629 10.81854484 15.38030252
v 0.33152859 10.81041228 15.38444676
v 0.33421825 10.81110441 15.38055791
v 0.33451967 10.81136020 15.38030252
v 0.29973970 10.76829752 15.38030252
v 0.32504793 10.80127914 15.38413334
v 0.32526821 10.80728264 15.39070957
v 0.32246842 10.80686886 15.39431981
v 0.32173804 10.80780926 15.39640935
v 0.32533776 10.81031448 15.39394254
v 0.32536675 10.81340650 15.39711166
v 0.32464217 10.81452746 15.39919540
v 0.32530298 10.81661138 15.40015310
v 0.32351761 10.81540015 15.40144165
v 0.32457260 10.81825143 15.40235292
v 0.32511749 10.82006452 15.40304942
v 0.32285099 10.81852979 15.40467462
v 0.32570295 10.82214844 15.40372853
v 0.32257275 10.82138860 15.40687443
v 0.32116416 10.82138860 15.40844159
v 0.31959907 10.82138860 15.41011321
v 0.31809773 10.82138860 15.41168036
v 0.31653263 10.82138860 15.41326492
v 0.31489217 10.82138860 15.41482628
v 0.28540456 10.81482086 15.43335348
v 0.31867740 10.82360794 15.41228981
v 0.31917591 10.82569186 15.41278897
v 0.31637612 10.82764788 15.41623671
v 0.31533272 10.83077752 15.41839009
v 0.31377343 10.83077752 15.41981213
v 0.31390095 10.83092047 15.41974248
v 0.31204022 10.83092047 15.42140250
v 0.31048672 10.83092047 15.42273748
v 0.32555803 10.82764788 15.40669450
v 0.32728544 10.82758017 15.40463979
v 0.32894328 10.83077752 15.40392587
v 0.32766802 10.83077752 15.40549302
v 0.32526240 10.82606049 15.40636366
v 0.32606234 10.82481917 15.40477909
v 0.32782453 10.82451824 15.40249802
v 0.33312268 10.83092047 15.39854531
v 0.32903023 10.83092047 15.40386202
v 0.32743615 10.81816115 15.39855112
v 0.32815494 10.81705524 15.39664152
v 0.32756948 10.81497885 15.39551550
v 0.32686808 10.82131337 15.40170284
v 0.32580729 10.81825143 15.40079156
v 0.32587685 10.81221784 15.39514983
v 0.32576672 10.80910324 15.39195748
v 0.32869982 10.80685381 15.38492271
v 0.33844982 10.81764958 15.38030252
v 0.33250823 10.80828322 15.38030252
v 0.33294878 10.80893774 15.38030252
v 0.33090256 10.80816285 15.38286800
v 0.33143005 10.80742558 15.38115575
v 0.33385306 10.81032200 15.38030252
v 0.30550159 10.77515113 15.38030252
v 0.32572614 10.80047416 15.38204380
v 0.32683330 10.80258817 15.38287961
v 0.32794626 10.80476989 15.38371543
v 0.32585946 10.80337058 15.38531740
v 0.32456101 10.80822303 15.39279910
v 0.32477548 10.82397657 15.40581806
v 0.32177281 10.82372078 15.40909166
v 0.32047436 10.82470632 15.41094902
v 0.32224814 10.82581223 15.40961985
v 0.32111779 10.82764788 15.41155267
v 0.31955269 10.82764788 15.41318367
v 0.31794122 10.82764788 15.41474501
v 0.31699057 10.83077752 15.41682874
v 0.31543126 10.83092047 15.41834366
v 0.31535591 10.83092047 15.41841330
v 0.32416104 10.82764788 15.40826165
v 0.32610292 10.83077752 15.40732136
v 0.32471752 10.83077752 15.40888851
v 0.32896067 10.83092047 15.40394909
v 0.32774337 10.83092047 15.40544658
v 0.32768541 10.83092047 15.40551624
v 0.32618987 10.83092047 15.40726912
v 0.32926790 10.80577800 15.38274612
v 0.33101269 10.80611654 15.38030252
v 0.32634059 10.79994754 15.38030252
v 0.32779555 10.80176814 15.38030252
v 0.32783612 10.80182081 15.38030252
v 0.32858390 10.80389720 15.38162589
v 0.33036927 10.80522881 15.38030252
v 0.32259594 10.82764788 15.40998551
v 0.32315242 10.83077752 15.41055433
v 0.32165689 10.83077752 15.41212149
v 0.32009178 10.83077752 15.41375249
v 0.31856146 10.83077752 15.41531964
v 0.31712969 10.83092047 15.41674168
v 0.31701376 10.83092047 15.41685196
v 0.32611451 10.83092047 15.40735619
v 0.32474071 10.83092047 15.40891173
v 0.32327415 10.83092047 15.41047308
v 0.32886213 10.80319755 15.38030252
v 0.32168007 10.83092047 15.41214470
v 0.32011497 10.83092047 15.41377570
v 0.31858465 10.83092047 15.41534285
f 1 2 6
f 1 6 14
f 1 14 22
f 1 22 32
f 1 32 31
f 1 31 46
f 1 46 79
f 1 79 123
f 1 123 122
f 1 122 121
f 1 121 120
f 1 120 179
f 1 179 248
f 1 248 247
f 1 247 311
f 1 311 310
f 1 310 365
f 1 365 364
f 1 364 363
f 1 363 404
f 1 404 403
f 1 403 425
f 1 425 424
f 1 424 432
f 1 432 431
f 1 431 430
f 1 430 428
f 1 428 427
f 1 427 426
f 1 426 411
f 1 411 410
f 1 410 409
f 1 409 408
f 1 408 374
f 1 374 317
f 1 317 316
f 1 316 373
f 1 373 318
f 1 318 252
f 1 252 191
f 1 191 134
f 1 134 133
f 1 133 132
f 1 132 124
f 1 124 80
f 1 80 47
f 1 47 33
f 1 33 23
f 1 23 15
f 1 15 7
f 1 7 3
f 1 3 9
f 1 9 16
f 1 16 25
f 1 25 38
f 1 38 60
f 1 60 58
f 1 58 57
f 1 57 91
f 1 91 105
f 1 105 104
f 1 104 160
f 1 160 159
f 1 159 224
f 1 224 298
f 1 298 293
f 1 293 292
f 1 292 222
f 1 222 297
f 1 297 357
f 1 357 299
f 1 299 226
f 1 226 225
f 1 225 161
f 1 161 106
f 1 106 66
f 1 66 40
f 1 40 39
f 1 39 26
f 1 26 17
f 1 17 10
f 1 10 4
f 1 4 2
f 2 4 5
f 2 5 6
f 3 7 8
f 3 8 9
f 4 10 11
f 4 11 5
f 5 11 12
f 5 12 13
f 5 13 6
f 6 13 14
f 7 15 8
f 8 15 23
f 8 23 34
f 8 34 51
f 8 51 88
f 8 88 136
f 8 136 135
f 8 135 131
f 8 131 190
f 8 190 263
f 8 263 262
f 8 262 333
f 8 333 383
f 8 383 336
f 8 336 388
f 8 388 385
f 8 385 384
f 8 384 413
f 8 413 418
f 8 418 429
f 8 429 416
f 8 416 415
f 8 415 414
f 8 414 389
f 8 389 337
f 8 337 264
f 8 264 194
f 8 194 192
f 8 192 137
f 8 137 92
f 8 92 90
f 8 90 89
f 8 89 52
f 8 52 35
f 8 35 24
f 8 24 16
f 8 16 9
f 10 17 11
f 11 17 18
f 11 18 12
f 12 18 19
f 12 19 20
f 12 20 21
f 12 21 22
f 12 22 13
f 13 22 14
f 16 24 25
f 17 26 18
f 18 26 27
f 18 27 28
f 18 28 29
f 18 29 19
f 19 29 30
f 19 30 31
f 19 31 20
f 20 31 32
f 20 32 22
f 20 22 21
f 23 33 34
f 24 35 36
f 24 36 37
f 24 37 25
f 25 37 38
f 26 39 27
f 27 39 40
f 27 40 28
f 28 40 41
f 28 41 29
f 29 41 42
f 29 42 43
f 29 43 44
f 29 44 45
f 29 45 46
f 29 46 31
f 29 31 30
f 33 47 48
f 33 48 49
f 33 49 50
f 33 50 34
f 34 50 51
f 35 52 53
f 35 53 36
f 36 53 54
f 36 54 37
f 37 55 56
f 37 56 57
f 37 57 58
f 37 58 59
f 37 59 60
f 37 60 38
f 37 54 61
f 37 61 62
f 37 62 63
f 37 63 64
f 37 64 65
f 37 65 55
f 40 66 67
f 40 67 41
f 41 68 42
f 41 67 69
f 41 69 70
f 41 70 71
f 41 71 68
f 42 68 43
f 43 68 71
f 43 71 72
f 43 72 73
f 43 73 74
f 43 74 75
f 43 75 76
f 43 76 77
f 43 77 44
f 44 77 78
f 44 78 45
f 45 78 46
f 46 78 79
f 47 80 81
f 47 81 48
f 48 81 49
f 49 82 83
f 49 83 84
f 49 84 85
f 49 85 50
f 49 81 86
f 49 86 82
f 50 85 87
f 50 87 51
f 51 87 88
f 52 89 53
f 53 89 90
f 53 90 61
f 53 61 54
f 55 91 56
f 55 65 91
f 56 91 57
f 58 60 59
f 61 90 92
f 61 92 93
f 61 93 62
f 62 93 94
f 62 94 95
f 62 95 96
f 62 96 97
f 62 97 63
f 63 97 96
f 63 96 98
f 63 98 99
f 63 99 100
f 63 100 101
f 63 101 102
f 63 102 64
f 64 102 65
f 65 102 103
f 65 103 104
f 65 104 105
f 65 105 91
f 66 106 67
f 67 106 107
f 67 107 69
f 69 107 70
f 70 108 71
f 70 107 108
f 71 108 109
f 71 109 110
f 71 110 111
f 71 111 72
f 72 111 73
f 73 112 113
f 73 113 74
f 73 111 110
f 73 110 114
f 73 114 115
f 73 115 116
f 73 116 112
f 74 113 112
f 74 112 117
f 74 117 118
f 74 118 75
f 75 118 119
f 75 119 77
f 75 77 76
f 77 120 121
f 77 121 122
f 77 122 123
f 77 123 78
f 77 119 120
f 78 123 79
f 80 124 81
f 81 124 86
f 82 86 125
f 82 125 126
f 82 126 83
f 83 126 127
f 83 127 84
f 84 127 128
f 84 128 129
f 84 129 130
f 84 130 131
f 84 131 87
f 84 87 85
f 86 124 132
f 86 132 133
f 86 133 134
f 86 134 125
f 87 131 135
f 87 135 136
f 87 136 88
f 92 137 93
f 93 137 138
f 93 138 94
f 94 138 95
f 95 139 140
f 95 140 141
f 95 141 142
f 95 142 98
f 95 98 96
f 95 138 139
f 98 100 99
f 98 142 143
f 98 143 144
f 98 144 145
f 98 145 146
f 98 146 147
f 98 147 148
f 98 148 149
f 98 149 100
f 100 149 150
f 100 150 151
f 100 151 152
f 100 152 153
f 100 153 154
f 100 154 102
f 100 102 101
f 102 154 153
f 102 153 155
f 102 155 156
f 102 156 157
f 102 157 103
f 103 157 156
f 103 156 158
f 103 158 159
f 103 159 160
f 103 160 104
f 106 161 107
f 107 161 162
f 107 162 163
f 107 163 164
f 107 164 109
f 107 109 108
f 109 164 165
f 109 165 110
f 110 166 167
f 110 167 115
f 110 115 114
f 110 165 168
f 110 168 169
f 110 169 166
f 112 116 170
f 112 170 117
f 115 167 116
f 116 167 171
f 116 171 172
f 116 172 170
f 117 170 173
f 117 173 174
f 117 174 175
f 117 175 176
f 117 176 177
f 117 177 118
f 118 177 176
f 118 176 119
f 119 176 178
f 119 178 179
f 119 179 120
f 125 180 126
f 125 134 180
f 126 180 181
f 126 181 182
f 126 182 127
f 127 182 183
f 127 183 184
f 127 184 128
f 128 184 185
f 128 185 186
f 128 186 187
f 128 187 188
f 128 188 189
f 128 189 129
f 129 189 130
f 130 189 131
f 131 189 190
f 134 191 180
f 137 192 193
f 137 193 138
f 138 193 194
f 138 194 139
f 139 195 140
f 139 194 195
f 140 195 196
f 140 196 197
f 140 197 198
f 140 198 199
f 140 199 141
f 141 199 142
f 142 199 143
f 143 199 200
f 143 200 144
f 144 200 201
f 144 201 146
f 144 146 145
f 146 148 147
f 146 201 202
f 146 202 203
f 146 203 204
f 146 204 205
f 146 205 206
f 146 206 148
f 148 150 149
f 148 206 207
f 148 207 208
f 148 208 209
f 148 209 151
f 148 151 150
f 151 210 211
f 151 211 152
f 151 209 212
f 151 212 213
f 151 213 210
f 152 211 153
f 153 211 214
f 153 214 215
f 153 215 216
f 153 216 158
f 153 158 217
f 153 217 155
f 155 217 158
f 155 158 156
f 158 218 159
f 158 216 219
f 158 219 220
f 158 220 221
f 158 221 222
f 158 222 218
f 159 218 223
f 159 223 224
f 161 225 162
f 162 225 163
f 163 225 226
f 163 226 165
f 163 165 164
f 165 226 227
f 165 227 228
f 165 228 229
f 165 229 168
f 166 230 167
f 166 169 231
f 166 231 230
f 167 230 171
f 168 232 169
f 168 229 233
f 168 233 232
f 169 232 233
f 169 233 234
f 169 234 235
f 169 235 236
f 169 236 237
f 169 237 231
f 170 172 173
f 171 230 172
f 172 230 238
f 172 238 239
f 172 239 173
f 173 239 174
f 174 240 241
f 174 241 242
f 174 242 243
f 174 243 175
f 174 239 244
f 174 244 240
f 175 243 176
f 176 243 245
f 176 245 246
f 176 246 178
f 178 246 247
f 178 247 248
f 178 248 179
f 180 249 250
f 180 250 251
f 180 251 181
f 180 191 252
f 180 252 249
f 181 251 182
f 182 253 254
f 182 254 255
f 182 255 183
f 182 251 253
f 183 255 185
f 183 185 184
f 185 256 257
f 185 257 258
f 185 258 186
f 185 255 259
f 185 259 256
f 186 258 260
f 186 260 187
f 187 260 261
f 187 261 188
f 188 261 189
f 189 261 262
f 189 262 263
f 189 263 190
f 192 194 193
f 194 264 265
f 194 265 266
f 194 266 195
f 195 266 267
f 195 267 268
f 195 268 196
f 196 268 197
f 197 268 269
f 197 269 270
f 197 270 199
f 197 199 198
f 199 270 271
f 199 271 272
f 199 272 273
f 199 273 201
f 199 201 200
f 201 273 274
f 201 274 275
f 201 275 276
f 201 276 277
f 201 277 202
f 202 277 203
f 203 278 204
f 203 277 279
f 203 279 280
f 203 280 278
f 204 278 281
f 204 281 205
f 205 207 206
f 205 281 207
f 207 281 282
f 207 282 208
f 208 212 209
f 208 282 283
f 208 283 284
f 208 284 212
f 210 213 285
f 210 285 235
f 210 235 215
f 210 215 286
f 210 286 211
f 211 286 214
f 212 284 287
f 212 287 288
f 212 288 213
f 213 288 289
f 213 289 237
f 213 237 236
f 213 236 235
f 213 235 285
f 214 286 215
f 215 235 234
f 215 234 233
f 215 233 216
f 216 233 290
f 216 290 291
f 216 291 219
f 218 292 293
f 218 293 294
f 218 294 224
f 218 224 223
f 218 222 292
f 219 291 220
f 220 291 228
f 220 228 227
f 220 227 295
f 220 295 296
f 220 296 221
f 221 296 222
f 222 296 297
f 224 294 298
f 226 299 227
f 227 299 295
f 228 291 229
f 229 291 300
f 229 300 233
f 230 231 289
f 230 289 287
f 230 287 238
f 231 237 289
f 233 300 290
f 238 287 239
f 239 287 244
f 240 301 241
f 240 244 301
f 241 301 302
f 241 302 303
f 241 303 304
f 241 304 305
f 241 305 306
f 241 306 242
f 242 306 243
f 243 306 307
f 243 307 308
f 243 308 245
f 244 287 309
f 244 309 301
f 245 308 310
f 245 310 311
f 245 311 246
f 246 311 247
f 249 312 313
f 249 313 314
f 249 314 250
f 249 252 315
f 249 315 316
f 249 316 317
f 249 317 312
f 250 314 253
f 250 253 251
f 252 318 315
f 253 314 313
f 253 313 319
f 253 319 320
f 253 320 259
f 253 259 254
f 254 259 255
f 256 259 321
f 256 321 257
f 257 260 258
f 257 321 322
f 257 322 323
f 257 323 324
f 257 324 325
f 257 325 260
f 259 320 319
f 259 319 326
f 259 326 327
f 259 327 322
f 259 322 321
f 260 325 324
f 260 324 328
f 260 328 329
f 260 329 330
f 260 330 261
f 261 331 332
f 261 332 333
f 261 333 262
f 261 330 334
f 261 334 335
f 261 335 336
f 261 336 331
f 264 337 265
f 265 338 339
f 265 339 340
f 265 340 341
f 265 341 268
f 265 268 267
f 265 267 266
f 265 337 338
f 268 341 269
f 269 341 271
f 269 271 270
f 271 342 343
f 271 343 272
f 271 341 342
f 272 343 344
f 272 344 345
f 272 345 346
f 272 346 274
f 272 274 273
f 274 346 275
f 275 346 345
f 275 345 347
f 275 347 348
f 275 348 349
f 275 349 276
f 276 349 279
f 276 279 277
f 278 280 281
f 279 348 350
f 279 350 351
f 279 351 352
f 279 352 280
f 279 349 348
f 280 352 353
f 280 353 354
f 280 354 281
f 281 354 355
f 281 355 356
f 281 356 283
f 281 283 282
f 283 356 302
f 283 302 309
f 283 309 287
f 283 287 284
f 287 289 288
f 290 300 291
f 293 298 294
f 295 357 296
f 295 299 357
f 296 357 297
f 301 309 302
f 302 356 303
f 303 358 359
f 303 359 304
f 303 356 355
f 303 355 358
f 304 359 360
f 304 360 305
f 305 360 361
f 305 361 306
f 306 361 362
f 306 362 307
f 307 362 363
f 307 363 364
f 307 364 308
f 308 364 365
f 308 365 310
f 312 366 367
f 312 367 313
f 312 317 368
f 312 368 369
f 312 369 366
f 313 370 371
f 313 371 372
f 313 372 319
f 313 367 370
f 315 318 373
f 315 373 316
f 317 374 368
f 319 372 326
f 322 327 375
f 322 375 376
f 322 376 323
f 323 376 324
f 324 376 377
f 324 377 328
f 326 350 378
f 326 378 327
f 326 372 350
f 327 378 348
f 327 348 379
f 327 379 345
f 327 345 375
f 328 334 329
f 328 377 343
f 328 343 380
f 328 380 342
f 328 342 381
f 328 381 339
f 328 339 382
f 328 382 334
f 329 334 330
f 331 383 332
f 331 336 383
f 332 383 333
f 334 384 385
f 334 385 335
f 334 382 386
f 334 386 387
f 334 387 384
f 335 385 388
f 335 388 336
f 337 389 390
f 337 390 338
f 338 390 391
f 338 391 392
f 338 392 393
f 338 393 339
f 339 394 340
f 339 393 392
f 339 392 382
f 339 381 342
f 339 342 394
f 340 394 341
f 341 394 342
f 342 380 343
f 343 377 344
f 344 377 376
f 344 376 345
f 345 376 375
f 345 379 347
f 347 379 348
f 348 378 350
f 350 372 371
f 350 371 395
f 350 395 351
f 351 395 396
f 351 396 352
f 352 396 353
f 353 396 358
f 353 358 354
f 354 358 355
f 358 396 397
f 358 397 359
f 359 397 398
f 359 398 399
f 359 399 400
f 359 400 401
f 359 401 360
f 360 401 402
f 360 402 361
f 361 402 403
f 361 403 404
f 361 404 363
f 361 363 362
f 366 405 370
f 366 370 367
f 366 369 406
f 366 406 407
f 366 407 405
f 368 374 408
f 368 408 409
f 368 409 369
f 369 409 410
f 369 410 411
f 369 411 406
f 370 405 398
f 370 398 396
f 370 396 395
f 370 395 371
f 382 392 412
f 382 412 387
f 382 387 386
f 384 387 413
f 387 412 413
f 389 414 390
f 390 414 415
f 390 415 416
f 390 416 391
f 391 416 417
f 391 417 392
f 392 418 413
f 392 413 412
f 392 417 418
f 396 398 397
f 398 405 419
f 398 419 399
f 399 419 420
f 399 420 421
f 399 421 422
f 399 422 400
f 400 422 423
f 400 423 401
f 401 423 402
f 402 423 424
f 402 424 425
f 402 425 403
f 405 407 419
f 406 411 426
f 406 426 427
f 406 427 407
f 407 420 419
f 407 427 428
f 407 428 420
f 416 429 417
f 417 429 418
f 420 428 430
f 420 430 421
f 421 430 431
f 421 431 422
f 422 431 432
f 422 432 423
f 423 432 424

