# https://github.com/mikedh/trimesh
v 0.12691975 10.75979374 15.35371745
v 0.12691975 10.74546798 15.30226232
v 0.12691975 10.74519664 15.35371745
v 0.16848187 10.72813277 15.35371745
v 0.16848187 10.71579893 15.30226232
v 0.12691975 10.73223994 15.30226232
v 0.12694822 10.74516580 15.35371745
v 0.12691975 10.74396942 15.35154621
v 0.16848187 10.71610728 15.35371745
v 0.16848187 10.69679866 15.30226232
v 0.12750152 10.73172192 15.30226232
v 0.12747304 10.73169108 15.30457463
v 0.12691975 10.73218444 15.30457463
v 0.12750152 10.74462311 15.35371745
v 0.12691975 10.74261270 15.34886615
v 0.12818907 10.74174316 15.34953113
v 0.13031274 10.74080579 15.35154621
v 0.13087010 10.74131148 15.35347565
v 0.12766426 10.74438877 15.35358144
v 0.16838016 10.71614428 15.35371745
v 0.16848187 10.71495407 15.35157643
v 0.16848187 10.69732900 15.30457463
v 0.14082125 10.72298956 15.32649369
v 0.14056088 10.72279222 15.32461966
v 0.13324194 10.72823144 15.32336528
v 0.13167563 10.72947099 15.32336528
v 0.13293275 10.72796010 15.32023182
v 0.13136644 10.72923048 15.32023182
v 0.12781478 10.73199943 15.31929481
v 0.13105317 10.72896531 15.31581375
v 0.13097181 10.72889747 15.31396995
v 0.13086196 10.72880496 15.31083650
v 0.13080094 10.72875563 15.30770305
v 0.13080501 10.72875563 15.30457463
v 0.13086196 10.72879880 15.30226232
v 0.12796531 10.73131490 15.30226232
v 0.12923870 10.73012469 15.30457463
v 0.12744863 10.73167258 15.30770305
v 0.12691975 10.73214743 15.30770305
v 0.12770901 10.74442577 15.35371745
v 0.12691975 10.74223035 15.34805508
v 0.12765612 10.74124981 15.34744047
v 0.12953569 10.73996709 15.34839260
v 0.13143153 10.73869054 15.34933969
v 0.13204992 10.73923939 15.35154621
v 0.13412070 10.73830819 15.35326406
v 0.13094740 10.74138548 15.35371745
v 0.13058531 10.74172466 15.35371745
v 0.16816861 10.71624295 15.35371745
v 0.16807911 10.71619978 15.35357640
v 0.16848187 10.71286965 15.34768732
v 0.16848187 10.69964160 15.31396995
v 0.14995467 10.71652663 15.32778838
v 0.14644369 10.71936958 15.32889668
v 0.14131759 10.72336574 15.32962211
v 0.13396204 10.72879263 15.32880600
v 0.13363657 10.72853979 15.32649369
v 0.13207026 10.72979167 15.32649369
v 0.13016628 10.73135807 15.32649369
v 0.12982047 10.73103739 15.32336528
v 0.12825416 10.73238794 15.32336528
v 0.12691975 10.73417018 15.32649369
v 0.12691975 10.73355349 15.32321918
v 0.12691975 10.73297997 15.32004543
v 0.12691975 10.73259762 15.31709837
v 0.12768866 10.73188843 15.31709837
v 0.12940550 10.73021719 15.31396995
v 0.12929565 10.73013085 15.31083650
v 0.12746491 10.73169725 15.31083650
v 0.12923463 10.73010619 15.30770305
v 0.12929565 10.73015552 15.30226232
v 0.12691975 10.73218444 15.31083650
v 0.12691975 10.73215977 15.30876600
v 0.12691975 10.74095380 15.34527930
v 0.13040224 10.73773467 15.34527930
v 0.13088231 10.73819718 15.34725408
v 0.13211501 10.73616827 15.34527930
v 0.13414105 10.73518772 15.34700219
v 0.13473095 10.73568108 15.34909284
v 0.13361623 10.73785800 15.35154621
v 0.13681801 10.73481155 15.35079558
v 0.13751776 10.73538507 15.35288120
v 0.13479198 10.73803685 15.35371745
v 0.13428750 10.73844386 15.35371745
v 0.13360809 10.73902972 15.35371745
v 0.16794485 10.71634779 15.35371745
v 0.16655348 10.71701382 15.35371745
v 0.16599205 10.71668697 15.35269984
v 0.16848187 10.71166093 15.34539013
v 0.16848187 10.70046180 15.31709837
v 0.16848187 10.70096749 15.31889683
v 0.15034116 10.71678564 15.32962211
v 0.14805069 10.71845687 15.32981354
v 0.14369757 10.72279839 15.33412078
v 0.14331107 10.72251471 15.33203013
v 0.13433226 10.72908248 15.33089161
v 0.13281477 10.72998901 15.32975812
v 0.13063007 10.73174042 15.32962211
v 0.12859997 10.73268396 15.32649369
v 0.12691975 10.73433052 15.32709318
v 0.12906376 10.73310331 15.32962211
v 0.12691975 10.73236328 15.31396995
v 0.12756254 10.73178359 15.31396995
v 0.12691975 10.74054061 15.34434229
v 0.13149663 10.73562558 15.34279571
v 0.13368132 10.73479921 15.34527930
v 0.13747708 10.73222144 15.34662940
v 0.13578058 10.73437986 15.34819613
v 0.13801817 10.73264696 15.34841275
v 0.14020694 10.73192543 15.35036738
v 0.13886031 10.73365217 15.35162177
v 0.14091483 10.73322665 15.35371745
v 0.13782289 10.73563174 15.35371745
v 0.16398229 10.71829037 15.35371745
v 0.16390499 10.71717415 15.35161169
v 0.16202542 10.71927091 15.35371745
v 0.16281468 10.71668697 15.34954120
v 0.16848187 10.71052621 15.34307278
v 0.16848187 10.70148551 15.32060461
v 0.14875858 10.71881455 15.33275556
v 0.14934848 10.71923390 15.33534998
v 0.14412474 10.72309440 15.33588398
v 0.13774152 10.72928598 15.33973278
v 0.13727366 10.72893447 15.33764717
v 0.13469434 10.72935999 15.33275556
v 0.13132169 10.73232011 15.33368754
v 0.13095961 10.73201177 15.33159689
v 0.12691975 10.73500888 15.32962211
v 0.12691975 10.73965258 15.34232721
v 0.12907597 10.73627927 15.33901743
v 0.13064227 10.73486705 15.33901743
v 0.13432005 10.73220910 15.34035746
v 0.13475943 10.73256678 15.34215088
v 0.12691975 10.73936273 15.34166223
v 0.12779444 10.73824035 15.34093680
v 0.13584568 10.73307247 15.34546066
v 0.13692785 10.73178975 15.34453875
v 0.14036967 10.72890980 15.34392415
v 0.14097178 10.72935382 15.34601480
v 0.13958448 10.73146291 15.34841275
v 0.14296527 10.73167258 15.35371745
v 0.14152507 10.73275796 15.35371745
v 0.14306291 10.72858296 15.34766717
v 0.15015401 10.72292789 15.34644301
v 0.14940137 10.72553650 15.35063438
v 0.14833954 10.72678838 15.35162681
v 0.16188710 10.71930791 15.35365197
v 0.16192371 10.71932641 15.35371745
v 0.16084153 10.71878989 15.35150087
v 0.15888466 10.71937574 15.35042783
v 0.16084967 10.71727899 15.34846313
v 0.16189523 10.71618744 15.34745055
v 0.16848187 10.70976151 15.34144560
v 0.16848187 10.70239822 15.32336528
v 0.15143961 10.71802519 15.33589405
v 0.15031675 10.71989377 15.33901743
v 0.14805476 10.72152800 15.33922398
v 0.14683832 10.72280455 15.34040784
v 0.14630130 10.72243454 15.33832223
v 0.14522726 10.72352608 15.33922398
v 0.14281474 10.72523432 15.33901743
v 0.13990181 10.72857062 15.34215088
v 0.13833550 10.72974234 15.34215088
v 0.13632167 10.73130873 15.34215088
v 0.13179361 10.73269629 15.33588398
v 0.12997506 10.73426269 15.33588398
v 0.12806702 10.73536040 15.33400995
v 0.12691975 10.73621760 15.33341550
v 0.12840876 10.73568725 15.33588398
v 0.12738354 10.73784567 15.33901743
v 0.12691975 10.73888171 15.34049348
v 0.12691975 10.73827735 15.33901743
v 0.14730618 10.72315607 15.34215088
v 0.14949088 10.72245920 15.34435236
v 0.14542661 10.72992735 15.35371745
v 0.15129722 10.72170684 15.34534983
v 0.15242415 10.72236670 15.34841275
v 0.15299778 10.72273055 15.34999459
v 0.15085784 10.72340891 15.34841275
v 0.15017029 10.72607302 15.35272503
v 0.14617518 10.72939699 15.35371745
v 0.16181793 10.71938808 15.35371745
v 0.15595139 10.72261955 15.35329933
v 0.15980004 10.71993077 15.35251848
v 0.15477564 10.72227420 15.35123891
v 0.15679761 10.72000477 15.34914825
v 0.15778621 10.71896873 15.34822636
v 0.15980818 10.71678564 15.34616593
v 0.16084967 10.71573726 15.34518358
v 0.16290011 10.71360968 15.34308790
v 0.16848187 10.70864530 15.33906277
v 0.16848187 10.70411879 15.32826193
v 0.15353480 10.71681647 15.33644316
v 0.15187899 10.71885156 15.33901743
v 0.14886842 10.72202752 15.34215088
v 0.12691975 10.73639028 15.33392431
v 0.12691975 10.73740782 15.33673031
v 0.12691975 10.73709330 15.33588398
v 0.15147622 10.72035012 15.34231209
v 0.15315645 10.71970876 15.34346573
v 0.15534928 10.71909207 15.34527930
v 0.15598394 10.71950525 15.34706265
v 0.15386027 10.72327324 15.35208524
v 0.15219225 10.72526515 15.35371745
v 0.15069510 10.72628270 15.35371745
v 0.14722074 10.72867546 15.35371745
v 0.15552829 10.72313140 15.35371745
v 0.15785945 10.71750100 15.34518358
v 0.15900265 10.71631695 15.34407529
v 0.16848187 10.70675823 15.33493689
v 0.16848187 10.70476014 15.32996467
v 0.15621584 10.71652663 15.34045318
v 0.15458036 10.71714949 15.33925420
v 0.15435254 10.71846921 15.34231209
v 0.15677727 10.71685348 15.34215088
v 0.15834357 10.71590377 15.34215088
v 0.16848187 10.70586402 15.33284624
v 0.16848187 10.70517950 15.33106793
f 1 2 6
f 1 6 13
f 1 13 39
f 1 39 73
f 1 73 72
f 1 72 102
f 1 102 65
f 1 65 64
f 1 64 63
f 1 63 62
f 1 62 100
f 1 100 128
f 1 128 168
f 1 168 196
f 1 196 198
f 1 198 197
f 1 197 172
f 1 172 171
f 1 171 134
f 1 134 129
f 1 129 104
f 1 104 74
f 1 74 41
f 1 41 15
f 1 15 8
f 1 8 3
f 1 3 7
f 1 7 14
f 1 14 40
f 1 40 48
f 1 48 47
f 1 47 85
f 1 85 84
f 1 84 83
f 1 83 113
f 1 113 112
f 1 112 142
f 1 142 141
f 1 141 175
f 1 175 181
f 1 181 206
f 1 206 205
f 1 205 204
f 1 204 207
f 1 207 182
f 1 182 148
f 1 148 116
f 1 116 114
f 1 114 87
f 1 87 86
f 1 86 49
f 1 49 20
f 1 20 9
f 1 9 4
f 1 4 5
f 1 5 2
f 2 5 10
f 2 10 35
f 2 35 71
f 2 71 36
f 2 36 11
f 2 11 6
f 3 8 7
f 4 9 21
f 4 21 51
f 4 51 89
f 4 89 118
f 4 118 153
f 4 153 191
f 4 191 210
f 4 210 217
f 4 217 218
f 4 218 211
f 4 211 192
f 4 192 154
f 4 154 119
f 4 119 91
f 4 91 90
f 4 90 52
f 4 52 22
f 4 22 10
f 4 10 5
f 6 11 12
f 6 12 13
f 7 8 14
f 8 15 16
f 8 16 17
f 8 17 18
f 8 18 19
f 8 19 14
f 9 20 21
f 10 22 23
f 10 23 24
f 10 24 25
f 10 25 26
f 10 26 27
f 10 27 28
f 10 28 29
f 10 29 30
f 10 30 31
f 10 31 32
f 10 32 33
f 10 33 34
f 10 34 35
f 11 36 37
f 11 37 12
f 12 38 13
f 12 37 38
f 13 38 39
f 14 19 40
f 15 41 42
f 15 42 16
f 16 42 43
f 16 43 44
f 16 44 17
f 17 44 45
f 17 45 18
f 18 45 46
f 18 46 47
f 18 47 48
f 18 48 40
f 18 40 19
f 20 49 50
f 20 50 51
f 20 51 21
f 22 52 53
f 22 53 54
f 22 54 23
f 23 54 55
f 23 55 56
f 23 56 57
f 23 57 24
f 24 57 25
f 25 57 26
f 26 28 27
f 26 57 58
f 26 58 59
f 26 59 60
f 26 60 29
f 26 29 28
f 29 60 61
f 29 61 62
f 29 62 63
f 29 63 64
f 29 64 65
f 29 65 66
f 29 66 30
f 30 66 31
f 31 66 67
f 31 67 32
f 32 67 68
f 32 68 33
f 33 68 69
f 33 69 70
f 33 70 34
f 34 70 37
f 34 37 36
f 34 36 71
f 34 71 35
f 37 70 38
f 38 70 69
f 38 69 72
f 38 72 73
f 38 73 39
f 41 74 42
f 42 74 75
f 42 75 76
f 42 76 43
f 43 76 44
f 44 76 77
f 44 77 78
f 44 78 79
f 44 79 80
f 44 80 45
f 45 80 46
f 46 80 79
f 46 79 81
f 46 81 82
f 46 82 83
f 46 83 84
f 46 84 85
f 46 85 47
f 49 86 50
f 50 86 87
f 50 87 88
f 50 88 51
f 51 88 89
f 52 90 53
f 53 90 91
f 53 91 92
f 53 92 93
f 53 93 54
f 54 93 94
f 54 94 95
f 54 95 55
f 55 95 94
f 55 94 96
f 55 96 56
f 56 96 97
f 56 97 98
f 56 98 59
f 56 59 58
f 56 58 57
f 59 98 99
f 59 99 60
f 60 99 61
f 61 99 62
f 62 99 101
f 62 101 100
f 65 102 66
f 66 102 103
f 66 103 67
f 67 103 68
f 68 103 69
f 69 103 72
f 72 103 102
f 74 104 105
f 74 105 75
f 75 105 77
f 75 77 76
f 77 105 106
f 77 106 78
f 78 106 107
f 78 107 108
f 78 108 79
f 79 108 109
f 79 109 81
f 81 109 110
f 81 110 111
f 81 111 82
f 82 111 112
f 82 112 113
f 82 113 83
f 87 114 88
f 88 115 89
f 88 114 116
f 88 116 115
f 89 115 117
f 89 117 118
f 91 119 120
f 91 120 92
f 92 120 93
f 93 120 94
f 94 120 121
f 94 121 122
f 94 122 123
f 94 123 124
f 94 124 125
f 94 125 96
f 96 125 126
f 96 126 127
f 96 127 97
f 97 127 98
f 98 127 101
f 98 101 99
f 100 101 128
f 101 127 128
f 104 129 105
f 105 130 131
f 105 131 132
f 105 132 133
f 105 133 106
f 105 129 134
f 105 134 135
f 105 135 130
f 106 133 136
f 106 136 107
f 107 109 108
f 107 136 133
f 107 133 137
f 107 137 138
f 107 138 139
f 107 139 140
f 107 140 109
f 109 140 110
f 110 141 142
f 110 142 112
f 110 112 111
f 110 140 143
f 110 143 144
f 110 144 145
f 110 145 146
f 110 146 141
f 115 116 147
f 115 147 117
f 116 148 147
f 117 147 149
f 117 149 150
f 117 150 151
f 117 151 152
f 117 152 118
f 118 152 153
f 119 154 121
f 119 121 120
f 121 154 155
f 121 155 156
f 121 156 157
f 121 157 158
f 121 158 159
f 121 159 122
f 122 159 158
f 122 158 160
f 122 160 161
f 122 161 123
f 123 162 163
f 123 163 164
f 123 164 132
f 123 132 124
f 123 161 162
f 124 132 126
f 124 126 125
f 126 132 165
f 126 165 166
f 126 166 167
f 126 167 128
f 126 128 127
f 128 167 168
f 130 169 166
f 130 166 131
f 130 135 170
f 130 170 169
f 131 166 165
f 131 165 132
f 132 164 133
f 133 164 137
f 134 171 135
f 135 171 172
f 135 172 170
f 137 164 163
f 137 163 138
f 138 163 162
f 138 162 160
f 138 160 158
f 138 158 173
f 138 173 174
f 138 174 139
f 139 143 140
f 139 174 143
f 141 146 175
f 143 174 144
f 144 174 176
f 144 176 177
f 144 177 178
f 144 178 179
f 144 179 145
f 145 179 178
f 145 178 180
f 145 180 146
f 146 180 181
f 146 181 175
f 147 148 182
f 147 182 183
f 147 183 184
f 147 184 149
f 149 184 150
f 150 184 183
f 150 183 185
f 150 185 178
f 150 178 186
f 150 186 187
f 150 187 188
f 150 188 151
f 151 188 152
f 152 188 189
f 152 189 190
f 152 190 191
f 152 191 153
f 154 192 193
f 154 193 155
f 155 193 156
f 156 193 194
f 156 194 195
f 156 195 157
f 157 195 158
f 158 195 173
f 160 162 161
f 166 169 167
f 167 169 196
f 167 196 168
f 169 170 172
f 169 172 197
f 169 197 198
f 169 198 196
f 173 195 174
f 174 195 199
f 174 199 200
f 174 200 176
f 176 200 201
f 176 201 177
f 177 201 202
f 177 202 178
f 178 202 186
f 178 185 203
f 178 203 180
f 180 203 204
f 180 204 205
f 180 205 206
f 180 206 181
f 182 207 183
f 183 207 204
f 183 204 203
f 183 203 185
f 186 202 187
f 187 202 188
f 188 202 208
f 188 208 209
f 188 209 189
f 189 209 190
f 190 209 210
f 190 210 191
f 192 211 212
f 192 212 213
f 192 213 193
f 193 213 194
f 194 199 195
f 194 213 199
f 199 214 200
f 199 213 212
f 199 212 214
f 200 214 215
f 200 215 201
f 201 215 208
f 201 208 202
f 208 215 209
f 209 215 216
f 209 216 217
f 209 217 210
f 211 218 212
f 212 215 214
f 212 218 217
f 212 217 215
f 215 217 216

