# https://github.com/mikedh/trimesh
v -0.00060142 0.00421825 0.02061765
v -0.00060142 0.00181403 0.02061765
v 0.00060142 0.00301614 0.02061765
v 0.00060142 0.08479531 0.02061361
v -0.00060142 0.08479531 0.02061361
v -0.00236530 0.08479531 0.02044408
v 0.00060142 0.00181403 0.02061765
v -0.00236530 0.00181403 0.02044408
v -0.00157417 0.00113562 0.02048445
v -0.00060142 0.00104040 0.02053288
v 0.00236530 0.08479531 0.02044408
v 0.00060142 0.10404097 0.02024630
v -0.00060142 0.10404097 0.02024630
v -0.00300708 0.10404097 0.02001220
v -0.00300708 0.08479531 0.02037950
v 0.00236530 0.00181403 0.02044408
v 0.00060142 0.00104040 0.02053288
v 0.00157417 0.00113562 0.02048445
v -0.00300708 0.00181403 0.02037950
v -0.00541274 0.00073094 0.01955205
v -0.00431082 0.00049290 0.01967718
v -0.00300708 0.00061192 0.01998394
v -0.00420991 0.00181403 0.02018172
v -0.00060142 0.00044530 0.02013732
v 0.00300708 0.08479531 0.02037950
v 0.00300708 0.10404097 0.02001220
v 0.00060142 0.10524308 0.02008889
v -0.00060142 0.10524308 0.02008889
v -0.00300708 0.10524308 0.01985074
v -0.00420991 0.10524308 0.01966911
v -0.00420991 0.10404097 0.01980634
v -0.00420991 0.08479531 0.02018172
v 0.00300708 0.00181403 0.02037950
v 0.00060142 0.00044530 0.02013732
v 0.00300708 0.00061192 0.01998394
v 0.00431082 0.00049290 0.01967718
v 0.00541274 0.00073094 0.01955205
v 0.00420991 0.00181403 0.02018172
v -0.00541274 0.00012394 0.01914035
v -0.00478307 0.00001682 0.01923722
v -0.00661557 0.00099279 0.01937042
v -0.00397984 -0.00007839 0.01933813
v -0.00300708 -0.00014981 0.01941885
v -0.00541274 0.00181403 0.01986285
v -0.00727753 0.00115942 0.01926547
v -0.00060142 -0.00024502 0.01953591
v 0.00420991 0.08479531 0.02018172
v 0.00420991 0.10404097 0.01980634
v 0.00420991 0.10524308 0.01966911
v 0.00300708 0.10524308 0.01985074
v 0.00420991 0.10596911 0.01939060
v 0.00300708 0.10601671 0.01946729
v 0.00060142 0.10607623 0.01958838
v -0.00060142 0.10607623 0.01958838
v -0.00300708 0.10601671 0.01946729
v -0.00420991 0.10596911 0.01939060
v -0.00505754 0.10590960 0.01930584
v -0.00544099 0.10520737 0.01937445
v -0.00606663 0.10477890 0.01926144
v -0.00541274 0.10404097 0.01947940
v -0.00541274 0.08479531 0.01986285
v 0.00060142 -0.00024502 0.01953591
v 0.00300708 -0.00014981 0.01941885
v 0.00397984 -0.00007839 0.01933813
v 0.00478307 0.00001682 0.01923722
v 0.00541274 0.00012394 0.01914035
v 0.00661557 0.00099279 0.01937042
v 0.00727753 0.00115942 0.01926547
v 0.00541274 0.00181403 0.01986285
v -0.00661557 0.00038578 0.01895871
v -0.00754797 -0.00012600 0.01819180
v -0.00661557 -0.00024502 0.01835729
v -0.00541274 -0.00030453 0.01853893
v -0.00431082 -0.00031643 0.01875689
v -0.00300708 -0.00048307 0.01864388
v -0.00661557 0.00181403 0.01949554
v -0.00971145 0.00112371 0.01809089
v -0.00902123 0.00086187 0.01827657
v -0.00781436 0.00060002 0.01864791
v -0.00730982 0.00181403 0.01927758
v -0.00791124 0.00181403 0.01903944
v -0.00902123 0.00181403 0.01851067
v -0.00180425 -0.00053068 0.01864388
v -0.00060142 -0.00056639 0.01864388
v 0.00541274 0.08479531 0.01986285
v 0.00541274 0.10404097 0.01947940
v 0.00606663 0.10477890 0.01926144
v 0.00544099 0.10520737 0.01937445
v 0.00505754 0.10590960 0.01930584
v 0.00033502 0.12037062 0.00487186
v -0.00033502 0.12037062 0.00487186
v -0.00851669 0.10588579 0.01809089
v -0.00586077 0.10557634 0.01918071
v -0.00113825 0.12025160 0.00479113
v -0.00652677 0.10520737 0.01901118
v -0.00781840 0.10524308 0.01853086
v -0.00781840 0.10404097 0.01867213
v -0.00670033 0.10404097 0.01908787
v -0.00661557 0.08479531 0.01949554
v 0.00060142 -0.00056639 0.01864388
v 0.00180425 -0.00053068 0.01864388
v 0.00300708 -0.00048307 0.01864388
v 0.00431082 -0.00031643 0.01875689
v 0.00541274 -0.00030453 0.01853893
v 0.00661557 -0.00024502 0.01835729
v 0.00754797 -0.00012600 0.01819180
v 0.00661557 0.00038578 0.01895871
v 0.00781436 0.00060002 0.01864791
v 0.00902123 0.00086187 0.01827657
v 0.00971145 0.00112371 0.01809089
v 0.00902123 0.00181403 0.01851067
v 0.00791124 0.00181403 0.01903944
v 0.00730982 0.00181403 0.01927758
v 0.00661557 0.00181403 0.01949554
v -0.00835120 0.00004062 0.01800613
v -0.00990923 -0.00011410 0.01699301
v -0.00902123 -0.00025692 0.01722712
v -0.00789509 -0.00034024 0.01753792
v -0.00661557 -0.00056639 0.01744104
v -0.00541274 -0.00063780 0.01744104
v -0.01118471 0.00087377 0.01707374
v -0.01070842 0.00006443 0.01677505
v -0.00975988 0.00181403 0.01811511
v -0.01036130 0.00181403 0.01779221
v -0.01136635 0.00181403 0.01719079
v -0.00902123 0.00026676 0.01782853
v -0.00730982 0.08479531 0.01927758
v -0.00791124 0.08479531 0.01903944
v -0.00902123 0.08479531 0.01851067
v -0.00420991 -0.00064970 0.01744104
v 0.00661557 0.08479531 0.01949554
v 0.00670033 0.10404097 0.01908787
v 0.00652677 0.10520737 0.01901118
v 0.00586077 0.10557634 0.01918071
v 0.00781840 0.10404097 0.01867213
v 0.00781840 0.10524308 0.01853086
v 0.00851669 0.10588579 0.01809089
v 0.00113825 0.12025160 0.00479113
v 0.00180425 0.12059676 0.00406863
v 0.00068214 0.12059676 0.00431485
v -0.00068214 0.12059676 0.00431485
v -0.00180425 0.12059676 0.00406863
v -0.01086988 0.10587389 0.01686788
v -0.00866603 0.10524308 0.01817162
v -0.00274471 0.12048964 0.00383856
v -0.00876694 0.10404097 0.01822813
v 0.00420991 -0.00064970 0.01744104
v 0.00541274 -0.00063780 0.01744104
v 0.00661557 -0.00056639 0.01744104
v 0.00789509 -0.00034024 0.01753792
v 0.00902123 -0.00025692 0.01722712
v 0.00990923 -0.00011410 0.01699301
v 0.00835120 0.00004062 0.01800613
v 0.00902123 0.00026676 0.01782853
v 0.01070842 0.00006443 0.01677505
v 0.01118471 0.00087377 0.01707374
v 0.01136635 0.00181403 0.01719079
v 0.01036130 0.00181403 0.01779221
v 0.00975988 0.00181403 0.01811511
v 0.00902123 0.08479531 0.01851067
v 0.00791124 0.08479531 0.01903944
v 0.00730982 0.08479531 0.01927758
v -0.01142689 -0.00017361 0.01591127
v -0.01027250 -0.00032833 0.01631894
v -0.00902123 -0.00057829 0.01623821
v -0.00781840 -0.00064970 0.01623821
v -0.01196776 0.00181403 0.01679119
v -0.01327957 0.00114752 0.01567716
v -0.01253285 0.00068334 0.01590319
v -0.01151973 0.00052861 0.01656112
v -0.01206464 -0.00001889 0.01566909
v -0.00975988 0.08479531 0.01811511
v -0.01036130 0.08479531 0.01779221
v -0.01136635 0.08479531 0.01719079
v -0.00936836 0.10404097 0.01790926
v -0.01022406 0.10404097 0.01745315
v -0.01744105 -0.00066160 0.00060141
v 0.00876694 0.10404097 0.01822813
v 0.00866603 0.10524308 0.01817162
v 0.01086988 0.10587389 0.01686788
v 0.00274471 0.12048964 0.00383856
v 0.00180425 0.12093001 0.00300707
v -0.00180425 0.12093001 0.00300707
v -0.01216554 0.10592150 0.01574578
v -0.01365092 0.10524308 0.01476898
v -0.01232296 0.10524308 0.01587494
v -0.01156816 0.10524308 0.01647636
v -0.01096675 0.10524308 0.01693246
v -0.00309184 0.12065627 0.00309183
v -0.00383856 0.12048964 0.00274471
v -0.00354795 0.12018019 0.00354794
v -0.01344507 0.10594530 0.01459946
v 0.01744105 -0.00066160 0.00060141
v 0.00781840 -0.00064970 0.01623821
v 0.00902123 -0.00057829 0.01623821
v 0.01027250 -0.00032833 0.01631894
v 0.01142689 -0.00017361 0.01591127
v 0.01151973 0.00052861 0.01656112
v 0.01206464 -0.00001889 0.01566909
v 0.01327957 0.00114752 0.01567716
v 0.01196776 0.00181403 0.01679119
v 0.01253285 0.00068334 0.01590319
v 0.01136635 0.08479531 0.01719079
v 0.01036130 0.08479531 0.01779221
v 0.00975988 0.08479531 0.01811511
v 0.01022406 0.10404097 0.01745315
v 0.00936836 0.10404097 0.01790926
v -0.01335627 -0.00006649 0.01453487
v -0.01253285 -0.00018551 0.01497484
v -0.01142689 -0.00049498 0.01503538
v -0.01022406 -0.00064970 0.01503538
v -0.01262972 0.00181403 0.01625436
v -0.01196776 0.08479531 0.01679119
v -0.01454699 0.00104040 0.01454698
v -0.01371954 0.00069524 0.01494255
v -0.01390924 0.00181403 0.01520491
v -0.01460350 0.00181403 0.01460349
v -0.01286787 0.00033817 0.01533811
v -0.01415950 0.00024296 0.01415949
v -0.01104748 0.10404097 0.01698494
v -0.01503538 -0.00064970 0.01022406
v -0.01623822 -0.00064970 0.00781839
v -0.01744105 -0.00064970 0.00420990
v -0.01864388 -0.00056639 0.00060141
v -0.01744105 -0.00066160 -0.00420992
v 0.01096675 0.10524308 0.01693246
v 0.01156816 0.10524308 0.01647636
v 0.01232296 0.10524308 0.01587494
v 0.01365092 0.10524308 0.01476898
v 0.01216554 0.10592150 0.01574578
v 0.00354795 0.12018019 0.00354794
v 0.00383856 0.12048964 0.00274471
v 0.00309184 0.12065627 0.00309183
v 0.01344507 0.10594530 0.01459946
v 0.00300708 0.12093001 0.00180424
v -0.00300708 0.12093001 0.00180424
v -0.01425233 0.10524308 0.01425233
v -0.01434921 0.10404097 0.01434920
v -0.01374779 0.10404097 0.01486182
v -0.01301721 0.10404097 0.01546323
v -0.01241580 0.10404097 0.01595567
v -0.01164889 0.10404097 0.01655708
v -0.00406864 0.12059676 0.00180424
v -0.00479114 0.12025160 0.00113824
v -0.01809090 0.10588579 0.00851668
v -0.01686789 0.10587389 0.01086987
v -0.01574578 0.10592150 0.01216554
v -0.01459946 0.10594530 0.01344506
v 0.01744105 -0.00066160 -0.00420992
v 0.01864388 -0.00056639 0.00060141
v 0.01744105 -0.00064970 0.00420990
v 0.01623822 -0.00064970 0.00781839
v 0.01503538 -0.00064970 0.01022406
v 0.01022406 -0.00064970 0.01503538
v 0.01142689 -0.00049498 0.01503538
v 0.01253285 -0.00018551 0.01497484
v 0.01335627 -0.00006649 0.01453487
v 0.01415950 0.00024296 0.01415949
v 0.01286787 0.00033817 0.01533811
v 0.01371954 0.00069524 0.01494255
v 0.01454699 0.00104040 0.01454698
v 0.01460350 0.00181403 0.01460349
v 0.01390924 0.00181403 0.01520491
v 0.01262972 0.00181403 0.01625436
v 0.01196776 0.08479531 0.01679119
v 0.01104748 0.10404097 0.01698494
v -0.01453488 -0.00006649 0.01335626
v -0.01378815 -0.00022122 0.01378815
v -0.01262972 -0.00054258 0.01383255
v -0.01262972 0.08479531 0.01625436
v -0.01567716 0.00114752 0.01327957
v -0.01494255 0.00069524 0.01371953
v -0.01390924 0.08479531 0.01520491
v -0.01520491 0.00181403 0.01390924
v -0.01460350 0.08479531 0.01460349
v -0.01533811 0.00033817 0.01286786
v -0.01566909 -0.00001889 0.01206463
v -0.01383255 -0.00054258 0.01262972
v -0.01503538 -0.00049498 0.01142689
v -0.01623822 -0.00057829 0.00902123
v -0.01744105 -0.00063780 0.00541273
v -0.01864388 -0.00053068 0.00180424
v -0.01953591 -0.00024502 0.00060141
v -0.01864388 -0.00056639 -0.00060142
v -0.01623822 -0.00066160 -0.00781841
v -0.01744105 -0.00063780 -0.00541275
v 0.01164889 0.10404097 0.01655708
v 0.01241580 0.10404097 0.01595567
v 0.01301721 0.10404097 0.01546323
v 0.01374779 0.10404097 0.01486182
v 0.01434921 0.10404097 0.01434920
v 0.01425233 0.10524308 0.01425233
v 0.01459946 0.10594530 0.01344506
v 0.00479114 0.12025160 0.00113824
v 0.00406864 0.12059676 0.00180424
v 0.01574578 0.10592150 0.01216554
v 0.01686789 0.10587389 0.01086987
v 0.01809090 0.10588579 0.00851668
v 0.00300708 0.12093001 -0.00180425
v 0.00431485 0.12059676 0.00068213
v -0.00300708 0.12093001 -0.00180425
v -0.00431485 0.12059676 0.00068213
v -0.01476899 0.10524308 0.01365091
v -0.01486182 0.10404097 0.01374779
v -0.01520491 0.08479531 0.01390924
v -0.00487187 0.12037062 0.00033501
v -0.01930584 0.10590960 0.00505753
v -0.01918071 0.10557634 0.00586077
v -0.01853086 0.10524308 0.00781839
v -0.01817162 0.10524308 0.00866603
v -0.01693247 0.10524308 0.01096674
v -0.01647636 0.10524308 0.01156816
v -0.01587494 0.10524308 0.01232296
v 0.01623822 -0.00066160 -0.00781841
v 0.01744105 -0.00063780 -0.00541275
v 0.01864388 -0.00056639 -0.00060142
v 0.01953591 -0.00024502 0.00060141
v 0.01864388 -0.00053068 0.00180424
v 0.01744105 -0.00063780 0.00541273
v 0.01623822 -0.00057829 0.00902123
v 0.01503538 -0.00049498 0.01142689
v 0.01383255 -0.00054258 0.01262972
v 0.01262972 -0.00054258 0.01383255
v 0.01378815 -0.00022122 0.01378815
v 0.01453488 -0.00006649 0.01335626
v 0.01533811 0.00033817 0.01286786
v 0.01494255 0.00069524 0.01371953
v 0.01566909 -0.00001889 0.01206463
v 0.01567716 0.00114752 0.01327957
v 0.01520491 0.00181403 0.01390924
v 0.01460350 0.08479531 0.01460349
v 0.01390924 0.08479531 0.01520491
v 0.01262972 0.08479531 0.01625436
v -0.01591127 -0.00017361 0.01142689
v -0.01497484 -0.00018551 0.01253285
v -0.01707374 0.00087377 0.01118471
v -0.01590320 0.00068334 0.01253285
v -0.01625436 0.00181403 0.01262972
v -0.01679119 0.00181403 0.01196776
v -0.01656112 0.00052861 0.01151972
v -0.01677505 0.00006443 0.01070842
v -0.01631894 -0.00032833 0.01027249
v -0.01722712 -0.00025692 0.00902123
v -0.01753792 -0.00034024 0.00789509
v -0.01744105 -0.00056639 0.00661556
v -0.01864388 -0.00048307 0.00300707
v -0.01953591 -0.00024502 -0.00060142
v -0.01941885 -0.00014981 0.00300707
v -0.02013732 0.00044530 0.00060141
v -0.01864388 -0.00053068 -0.00180425
v -0.01383255 -0.00066160 -0.01142690
v -0.01744105 -0.00056639 -0.00661558
v -0.01623822 -0.00057829 -0.00902124
v -0.01503538 -0.00064970 -0.01022407
v -0.01864388 -0.00048307 -0.00300709
v 0.01486182 0.10404097 0.01374779
v 0.01476899 0.10524308 0.01365091
v 0.01520491 0.08479531 0.01390924
v 0.00487187 0.12037062 0.00033501
v 0.01930584 0.10590960 0.00505753
v 0.01587494 0.10524308 0.01232296
v 0.01647636 0.10524308 0.01156816
v 0.01693247 0.10524308 0.01096674
v 0.01817162 0.10524308 0.00866603
v 0.01853086 0.10524308 0.00781839
v 0.01918071 0.10557634 0.00586077
v 0.00309184 0.12065627 -0.00309185
v 0.00180425 0.12093001 -0.00300709
v 0.00431485 0.12059676 -0.00068215
v 0.00406864 0.12059676 -0.00180425
v 0.00383856 0.12048964 -0.00274472
v -0.00180425 0.12093001 -0.00300709
v -0.00309184 0.12065627 -0.00309185
v -0.00383856 0.12048964 -0.00274472
v -0.00406864 0.12059676 -0.00180425
v -0.00431485 0.12059676 -0.00068215
v -0.01546324 0.10404097 0.01301721
v -0.01625436 0.08479531 0.01262972
v -0.00487187 0.12037062 -0.00033502
v -0.01958838 0.10607623 0.00060141
v -0.01946729 0.10601671 0.00300707
v -0.01939060 0.10596911 0.00420990
v -0.01985074 0.10524308 0.00300707
v -0.01966911 0.10524308 0.00420990
v -0.01937446 0.10520737 0.00544099
v -0.01926144 0.10477890 0.00606662
v -0.01901118 0.10520737 0.00652676
v -0.01867213 0.10404097 0.00781839
v -0.01822813 0.10404097 0.00876694
v -0.01790926 0.10404097 0.00936835
v -0.01745316 0.10404097 0.01022406
v -0.01698494 0.10404097 0.01104747
v -0.01655709 0.10404097 0.01164889
v -0.01595567 0.10404097 0.01241579
v 0.01383255 -0.00066160 -0.01142690
v 0.01503538 -0.00064970 -0.01022407
v 0.01623822 -0.00057829 -0.00902124
v 0.01744105 -0.00056639 -0.00661558
v 0.01864388 -0.00048307 -0.00300709
v 0.01864388 -0.00053068 -0.00180425
v 0.01953591 -0.00024502 -0.00060142
v 0.01941885 -0.00014981 0.00300707
v 0.01864388 -0.00048307 0.00300707
v 0.02013732 0.00044530 0.00060141
v 0.01744105 -0.00056639 0.00661556
v 0.01753792 -0.00034024 0.00789509
v 0.01722712 -0.00025692 0.00902123
v 0.01631894 -0.00032833 0.01027249
v 0.01591127 -0.00017361 0.01142689
v 0.01497484 -0.00018551 0.01253285
v 0.01590320 0.00068334 0.01253285
v 0.01677505 0.00006443 0.01070842
v 0.01656112 0.00052861 0.01151972
v 0.01707374 0.00087377 0.01118471
v 0.01679119 0.00181403 0.01196776
v 0.01625436 0.00181403 0.01262972
v -0.01699301 -0.00011410 0.00990922
v -0.01719079 0.00181403 0.01136634
v -0.01809090 0.00112371 0.00971144
v -0.01679119 0.08479531 0.01196776
v -0.01827657 0.00086187 0.00902123
v -0.01782854 0.00026676 0.00902123
v -0.01800613 0.00004062 0.00835119
v -0.01819181 -0.00012600 0.00754796
v -0.01835730 -0.00024502 0.00661556
v -0.01853893 -0.00030453 0.00541273
v -0.01875689 -0.00031643 0.00431081
v -0.01941885 -0.00014981 -0.00300709
v -0.02013732 0.00044530 -0.00060142
v -0.01933813 -0.00007839 0.00397983
v -0.01998394 0.00061192 0.00300707
v -0.02053289 0.00104040 0.00060141
v -0.01383255 -0.00054258 -0.01262974
v -0.01142689 -0.00066160 -0.01383257
v -0.01853893 -0.00030453 -0.00541275
v -0.01835730 -0.00024502 -0.00661558
v -0.01753792 -0.00034024 -0.00789510
v -0.01722712 -0.00025692 -0.00902124
v -0.01631894 -0.00032833 -0.01027251
v -0.01503538 -0.00049498 -0.01142690
v -0.01875689 -0.00031643 -0.00431083
v 0.01546324 0.10404097 0.01301721
v 0.01625436 0.08479531 0.01262972
v 0.00487187 0.12037062 -0.00033502
v 0.01939060 0.10596911 0.00420990
v 0.01946729 0.10601671 0.00300707
v 0.01958838 0.10607623 0.00060141
v 0.01937446 0.10520737 0.00544099
v 0.01966911 0.10524308 0.00420990
v 0.01985074 0.10524308 0.00300707
v 0.01595567 0.10404097 0.01241579
v 0.01655709 0.10404097 0.01164889
v 0.01698494 0.10404097 0.01104747
v 0.01745316 0.10404097 0.01022406
v 0.01790926 0.10404097 0.00936835
v 0.01822813 0.10404097 0.00876694
v 0.01867213 0.10404097 0.00781839
v 0.01926144 0.10477890 0.00606662
v 0.01901118 0.10520737 0.00652676
v 0.00274471 0.12048964 -0.00383857
v 0.00180425 0.12059676 -0.00406865
v 0.00068214 0.12059676 -0.00431486
v 0.00479114 0.12025160 -0.00113826
v 0.00354795 0.12018019 -0.00354796
v 0.01809090 0.10588579 -0.00851670
v 0.01686789 0.10587389 -0.01086989
v 0.01574578 0.10592150 -0.01216556
v 0.01459946 0.10594530 -0.01344508
v -0.00068214 0.12059676 -0.00431486
v -0.00180425 0.12059676 -0.00406865
v -0.00274471 0.12048964 -0.00383857
v -0.00479114 0.12025160 -0.00113826
v -0.00354795 0.12018019 -0.00354796
v -0.01459946 0.10594530 -0.01344508
v -0.01574578 0.10592150 -0.01216556
v -0.01686789 0.10587389 -0.01086989
v -0.01809090 0.10588579 -0.00851670
v -0.01930584 0.10590960 -0.00505755
v -0.01939060 0.10596911 -0.00420992
v -0.01946729 0.10601671 -0.00300709
v -0.01958838 0.10607623 -0.00060142
v -0.02008889 0.10524308 0.00060141
v -0.02001220 0.10404097 0.00300707
v -0.01980634 0.10404097 0.00420990
v -0.01947940 0.10404097 0.00541273
v -0.01908787 0.10404097 0.00670033
v -0.01927758 0.08479531 0.00730981
v -0.01903944 0.08479531 0.00791123
v -0.01851068 0.08479531 0.00902123
v -0.01811512 0.08479531 0.00975988
v -0.01779221 0.08479531 0.01036129
v -0.01719079 0.08479531 0.01136634
v 0.01142689 -0.00066160 -0.01383257
v 0.01383255 -0.00054258 -0.01262974
v 0.01503538 -0.00049498 -0.01142690
v 0.01631894 -0.00032833 -0.01027251
v 0.01722712 -0.00025692 -0.00902124
v 0.01753792 -0.00034024 -0.00789510
v 0.01835730 -0.00024502 -0.00661558
v 0.01853893 -0.00030453 -0.00541275
v 0.01875689 -0.00031643 -0.00431083
v 0.01941885 -0.00014981 -0.00300709
v 0.02013732 0.00044530 -0.00060142
v 0.01933813 -0.00007839 0.00397983
v 0.01853893 -0.00030453 0.00541273
v 0.01875689 -0.00031643 0.00431081
v 0.01998394 0.00061192 0.00300707
v 0.02053289 0.00104040 0.00060141
v 0.01835730 -0.00024502 0.00661556
v 0.01819181 -0.00012600 0.00754796
v 0.01699301 -0.00011410 0.00990922
v 0.01782854 0.00026676 0.00902123
v 0.01827657 0.00086187 0.00902123
v 0.01809090 0.00112371 0.00971144
v 0.01800613 0.00004062 0.00835119
v 0.01719079 0.00181403 0.01136634
v 0.01679119 0.08479531 0.01196776
v -0.01779221 0.00181403 0.01036129
v -0.01926547 0.00115942 0.00727752
v -0.01811512 0.00181403 0.00975988
v -0.01851068 0.00181403 0.00902123
v -0.01864791 0.00060002 0.00781436
v -0.01895871 0.00038578 0.00661556
v -0.01914035 0.00012394 0.00541273
v -0.01923722 0.00001682 0.00478306
v -0.01933813 -0.00007839 -0.00397985
v -0.01998394 0.00061192 -0.00300709
v -0.02053289 0.00104040 -0.00060142
v -0.01967718 0.00049290 0.00431081
v -0.02048445 0.00113562 0.00157417
v -0.02061765 0.00181403 0.00060141
v -0.01262972 -0.00054258 -0.01383257
v -0.01378815 -0.00022122 -0.01378817
v -0.00781840 -0.00066160 -0.01623823
v -0.01022406 -0.00064970 -0.01503540
v -0.01923722 0.00001682 -0.00478308
v -0.01819181 -0.00012600 -0.00754798
v -0.01699301 -0.00011410 -0.00990924
v -0.01591127 -0.00017361 -0.01142690
v -0.01497484 -0.00018551 -0.01253286
v 0.01958838 0.10607623 -0.00060142
v 0.01946729 0.10601671 -0.00300709
v 0.01939060 0.10596911 -0.00420992
v 0.01930584 0.10590960 -0.00505755
v 0.02008889 0.10524308 0.00060141
v 0.01980634 0.10404097 0.00420990
v 0.02001220 0.10404097 0.00300707
v 0.01719079 0.08479531 0.01136634
v 0.01779221 0.08479531 0.01036129
v 0.01811512 0.08479531 0.00975988
v 0.01851068 0.08479531 0.00902123
v 0.01903944 0.08479531 0.00791123
v 0.01908787 0.10404097 0.00670033
v 0.01927758 0.08479531 0.00730981
v 0.01947940 0.10404097 0.00541273
v 0.00113825 0.12025160 -0.00479115
v 0.01344507 0.10594530 -0.01459947
v 0.01216554 0.10592150 -0.01574579
v 0.01086988 0.10587389 -0.01686790
v 0.00851669 0.10588579 -0.01809091
v 0.00033502 0.12037062 -0.00487188
v 0.01918071 0.10557634 -0.00586078
v 0.01853086 0.10524308 -0.00781841
v 0.01817162 0.10524308 -0.00866604
v 0.01693247 0.10524308 -0.01096676
v 0.01647636 0.10524308 -0.01156818
v 0.01587494 0.10524308 -0.01232297
v 0.01476899 0.10524308 -0.01365093
v 0.01425233 0.10524308 -0.01425235
v -0.00033502 0.12037062 -0.00487188
v -0.00113825 0.12025160 -0.00479115
v -0.00851669 0.10588579 -0.01809091
v -0.01086988 0.10587389 -0.01686790
v -0.01216554 0.10592150 -0.01574579
v -0.01344507 0.10594530 -0.01459947
v -0.01425233 0.10524308 -0.01425235
v -0.01476899 0.10524308 -0.01365093
v -0.01587494 0.10524308 -0.01232297
v -0.01647636 0.10524308 -0.01156818
v -0.01693247 0.10524308 -0.01096676
v -0.01817162 0.10524308 -0.00866604
v -0.01853086 0.10524308 -0.00781841
v -0.01918071 0.10557634 -0.00586078
v -0.01937446 0.10520737 -0.00544100
v -0.01966911 0.10524308 -0.00420992
v -0.01985074 0.10524308 -0.00300709
v -0.02008889 0.10524308 -0.00060142
v -0.02024631 0.10404097 0.00060141
v -0.02061765 0.08479531 0.00060141
v -0.02044409 0.08479531 0.00236529
v -0.02037951 0.08479531 0.00300707
v -0.02018172 0.08479531 0.00420990
v -0.01986285 0.08479531 0.00541273
v -0.01949555 0.08479531 0.00661556
v -0.01927758 0.00181403 0.00730981
v -0.01903944 0.00181403 0.00791123
v 0.00781840 -0.00066160 -0.01623823
v 0.01022406 -0.00064970 -0.01503540
v 0.01262972 -0.00054258 -0.01383257
v 0.01378815 -0.00022122 -0.01378817
v 0.01497484 -0.00018551 -0.01253286
v 0.01591127 -0.00017361 -0.01142690
v 0.01699301 -0.00011410 -0.00990924
v 0.01819181 -0.00012600 -0.00754798
v 0.01923722 0.00001682 -0.00478308
v 0.01933813 -0.00007839 -0.00397985
v 0.01998394 0.00061192 -0.00300709
v 0.02053289 0.00104040 -0.00060142
v 0.01923722 0.00001682 0.00478306
v 0.01967718 0.00049290 0.00431081
v 0.02048445 0.00113562 0.00157417
v 0.02061765 0.00181403 0.00060141
v 0.01914035 0.00012394 0.00541273
v 0.01895871 0.00038578 0.00661556
v 0.01864791 0.00060002 0.00781436
v 0.01926547 0.00115942 0.00727752
v 0.01851068 0.00181403 0.00902123
v 0.01811512 0.00181403 0.00975988
v 0.01779221 0.00181403 0.01036129
v -0.01937042 0.00099279 0.00661556
v -0.01949555 0.00181403 0.00661556
v -0.01986285 0.00181403 0.00541273
v -0.02018172 0.00181403 0.00420990
v -0.01955205 0.00073094 0.00541273
v -0.01967718 0.00049290 -0.00431083
v -0.02048445 0.00113562 -0.00157418
v -0.02061361 0.00181403 -0.00060142
v -0.02037951 0.00181403 0.00300707
v -0.02044409 0.00181403 0.00236529
v -0.02061765 0.02707024 -0.00060142
v -0.01142689 -0.00049498 -0.01503540
v -0.01453488 -0.00006649 -0.01335628
v -0.01335627 -0.00006649 -0.01453489
v -0.01253285 -0.00018551 -0.01497485
v -0.00902123 -0.00057829 -0.01623823
v -0.00661557 -0.00056639 -0.01744106
v -0.00541274 -0.00063780 -0.01744106
v -0.00420991 -0.00066160 -0.01744106
v -0.01955205 0.00073094 -0.00541275
v -0.01914035 0.00012394 -0.00541275
v -0.01895871 0.00038578 -0.00661558
v -0.01800613 0.00004062 -0.00835121
v -0.01677505 0.00006443 -0.01070843
v -0.01566909 -0.00001889 -0.01206465
v 0.02008889 0.10524308 -0.00060142
v 0.01985074 0.10524308 -0.00300709
v 0.01966911 0.10524308 -0.00420992
v 0.01937446 0.10520737 -0.00544100
v 0.02024631 0.10404097 0.00060141
v 0.01986285 0.08479531 0.00541273
v 0.02018172 0.08479531 0.00420990
v 0.02037951 0.08479531 0.00300707
v 0.02044409 0.08479531 0.00236529
v 0.02061765 0.08479531 0.00060141
v 0.01903944 0.00181403 0.00791123
v 0.01949555 0.08479531 0.00661556
v 0.01927758 0.00181403 0.00730981
v 0.00505754 0.10590960 -0.01930585
v 0.01365092 0.10524308 -0.01476900
v 0.01232296 0.10524308 -0.01587496
v 0.01156816 0.10524308 -0.01647637
v 0.01096675 0.10524308 -0.01693248
v 0.00866603 0.10524308 -0.01817164
v 0.00781840 0.10524308 -0.01853087
v 0.00586077 0.10557634 -0.01918073
v 0.00420991 0.10596911 -0.01939062
v 0.00300708 0.10601671 -0.01946731
v 0.00060142 0.10607623 -0.01958840
v 0.01926144 0.10477890 -0.00606664
v 0.01901118 0.10520737 -0.00652678
v 0.01867213 0.10404097 -0.00781841
v 0.01822813 0.10404097 -0.00876695
v 0.01790926 0.10404097 -0.00936837
v 0.01745316 0.10404097 -0.01022407
v 0.01698494 0.10404097 -0.01104749
v 0.01655709 0.10404097 -0.01164890
v 0.01595567 0.10404097 -0.01241581
v 0.01546324 0.10404097 -0.01301722
v 0.01486182 0.10404097 -0.01374780
v 0.01434921 0.10404097 -0.01434922
v -0.00060142 0.10607623 -0.01958840
v -0.00300708 0.10601671 -0.01946731
v -0.00420991 0.10596911 -0.01939062
v -0.00505754 0.10590960 -0.01930585
v -0.00586077 0.10557634 -0.01918073
v -0.00781840 0.10524308 -0.01853087
v -0.00866603 0.10524308 -0.01817164
v -0.01096675 0.10524308 -0.01693248
v -0.01156816 0.10524308 -0.01647637
v -0.01232296 0.10524308 -0.01587496
v -0.01365092 0.10524308 -0.01476900
v -0.01434921 0.10404097 -0.01434922
v -0.01486182 0.10404097 -0.01374780
v -0.01546324 0.10404097 -0.01301722
v -0.01595567 0.10404097 -0.01241581
v -0.01655709 0.10404097 -0.01164890
v -0.01698494 0.10404097 -0.01104749
v -0.01745316 0.10404097 -0.01022407
v -0.01790926 0.10404097 -0.00936837
v -0.01822813 0.10404097 -0.00876695
v -0.01867213 0.10404097 -0.00781841
v -0.01926144 0.10477890 -0.00606664
v -0.01901118 0.10520737 -0.00652678
v -0.01980634 0.10404097 -0.00420992
v -0.02001220 0.10404097 -0.00300709
v -0.02024631 0.10404097 -0.00060142
v -0.02061765 0.08479531 -0.00060142
v 0.00420991 -0.00066160 -0.01744106
v 0.00541274 -0.00063780 -0.01744106
v 0.00661557 -0.00056639 -0.01744106
v 0.00902123 -0.00057829 -0.01623823
v 0.01142689 -0.00049498 -0.01503540
v 0.01253285 -0.00018551 -0.01497485
v 0.01335627 -0.00006649 -0.01453489
v 0.01453488 -0.00006649 -0.01335628
v 0.01566909 -0.00001889 -0.01206465
v 0.01677505 0.00006443 -0.01070843
v 0.01800613 0.00004062 -0.00835121
v 0.01895871 0.00038578 -0.00661558
v 0.01914035 0.00012394 -0.00541275
v 0.01955205 0.00073094 -0.00541275
v 0.01967718 0.00049290 -0.00431083
v 0.02048445 0.00113562 -0.00157418
v 0.02061361 0.00181403 -0.00060142
v 0.01955205 0.00073094 0.00541273
v 0.02044409 0.00181403 0.00236529
v 0.02037951 0.00181403 0.00300707
v 0.02018172 0.00181403 0.00420990
v 0.02061765 0.02707024 -0.00060142
v 0.01937042 0.00099279 0.00661556
v 0.01986285 0.00181403 0.00541273
v 0.01949555 0.00181403 0.00661556
v -0.02044409 0.00181403 -0.00236531
v -0.02037951 0.00181403 -0.00300709
v -0.02018172 0.00181403 -0.00420992
v -0.01142689 -0.00017361 -0.01591128
v -0.01027250 -0.00032833 -0.01631896
v -0.01415950 0.00024296 -0.01415951
v -0.01206464 -0.00001889 -0.01566910
v -0.00902123 -0.00025692 -0.01722713
v -0.00789509 -0.00034024 -0.01753793
v -0.00300708 -0.00048307 -0.01864389
v -0.00661557 -0.00024502 -0.01835731
v -0.00541274 -0.00030453 -0.01853895
v -0.00180425 -0.00053068 -0.01864389
v -0.00060142 -0.00056639 -0.01864389
v -0.01937042 0.00099279 -0.00661558
v -0.01926547 0.00115942 -0.00727754
v -0.01864791 0.00060002 -0.00781437
v -0.01827657 0.00086187 -0.00902124
v -0.01782854 0.00026676 -0.00902124
v -0.01809090 0.00112371 -0.00971146
v -0.01707374 0.00087377 -0.01118472
v -0.01656112 0.00052861 -0.01151974
v -0.01590320 0.00068334 -0.01253286
v -0.01533811 0.00033817 -0.01286788
v 0.02024631 0.10404097 -0.00060142
v 0.02001220 0.10404097 -0.00300709
v 0.01980634 0.10404097 -0.00420992
v 0.02061765 0.08479531 -0.00060142
v 0.00544099 0.10520737 -0.01937447
v 0.00420991 0.10524308 -0.01966912
v 0.00300708 0.10524308 -0.01985076
v 0.01374779 0.10404097 -0.01486183
v 0.01301721 0.10404097 -0.01546325
v 0.01241580 0.10404097 -0.01595569
v 0.01164889 0.10404097 -0.01655710
v 0.01104748 0.10404097 -0.01698495
v 0.01022406 0.10404097 -0.01745317
v 0.00936836 0.10404097 -0.01790928
v 0.00876694 0.10404097 -0.01822815
v 0.00781840 0.10404097 -0.01867215
v 0.00606663 0.10477890 -0.01926145
v 0.00652677 0.10520737 -0.01901120
v 0.00060142 0.10524308 -0.02008890
v 0.01947940 0.10404097 -0.00541275
v 0.01908787 0.10404097 -0.00670034
v 0.01927758 0.08479531 -0.00730983
v 0.01903944 0.08479531 -0.00791125
v 0.01851068 0.08479531 -0.00902124
v 0.01811512 0.08479531 -0.00975989
v 0.01779221 0.08479531 -0.01036131
v 0.01719079 0.08479531 -0.01136636
v 0.01679119 0.08479531 -0.01196777
v 0.01625436 0.08479531 -0.01262974
v 0.01520491 0.08479531 -0.01390926
v 0.01460350 0.08479531 -0.01460351
v 0.01390924 0.08479531 -0.01520492
v -0.00060142 0.10524308 -0.02008890
v -0.00300708 0.10524308 -0.01985076
v -0.00420991 0.10524308 -0.01966912
v -0.00544099 0.10520737 -0.01937447
v -0.00606663 0.10477890 -0.01926145
v -0.00652677 0.10520737 -0.01901120
v -0.00781840 0.10404097 -0.01867215
v -0.00876694 0.10404097 -0.01822815
v -0.00936836 0.10404097 -0.01790928
v -0.01022406 0.10404097 -0.01745317
v -0.01104748 0.10404097 -0.01698495
v -0.01164889 0.10404097 -0.01655710
v -0.01241580 0.10404097 -0.01595569
v -0.01301721 0.10404097 -0.01546325
v -0.01374779 0.10404097 -0.01486183
v -0.01390924 0.08479531 -0.01520492
v -0.01460350 0.08479531 -0.01460351
v -0.01520491 0.08479531 -0.01390926
v -0.01625436 0.08479531 -0.01262974
v -0.01679119 0.08479531 -0.01196777
v -0.01719079 0.08479531 -0.01136636
v -0.01779221 0.08479531 -0.01036131
v -0.01811512 0.08479531 -0.00975989
v -0.01851068 0.08479531 -0.00902124
v -0.01903944 0.08479531 -0.00791125
v -0.01908787 0.10404097 -0.00670034
v -0.01927758 0.08479531 -0.00730983
v -0.01947940 0.10404097 -0.00541275
v -0.01986285 0.08479531 -0.00541275
v -0.02018172 0.08479531 -0.00420992
v -0.02037951 0.08479531 -0.00300709
v -0.02044409 0.08479531 -0.00236531
v 0.00060142 -0.00056639 -0.01864389
v 0.00180425 -0.00053068 -0.01864389
v 0.00300708 -0.00048307 -0.01864389
v 0.00789509 -0.00034024 -0.01753793
v 0.00541274 -0.00030453 -0.01853895
v 0.00661557 -0.00024502 -0.01835731
v 0.00902123 -0.00025692 -0.01722713
v 0.01027250 -0.00032833 -0.01631896
v 0.01142689 -0.00017361 -0.01591128
v 0.01206464 -0.00001889 -0.01566910
v 0.01415950 0.00024296 -0.01415951
v 0.01533811 0.00033817 -0.01286788
v 0.01590320 0.00068334 -0.01253286
v 0.01656112 0.00052861 -0.01151974
v 0.01707374 0.00087377 -0.01118472
v 0.01809090 0.00112371 -0.00971146
v 0.01827657 0.00086187 -0.00902124
v 0.01782854 0.00026676 -0.00902124
v 0.01864791 0.00060002 -0.00781437
v 0.01926547 0.00115942 -0.00727754
v 0.01937042 0.00099279 -0.00661558
v 0.02018172 0.00181403 -0.00420992
v 0.02037951 0.00181403 -0.00300709
v 0.02044409 0.00181403 -0.00236531
v -0.01986285 0.00181403 -0.00541275
v -0.01070842 0.00006443 -0.01677506
v -0.00990923 -0.00011410 -0.01699303
v -0.01494255 0.00069524 -0.01371955
v -0.01454699 0.00104040 -0.01454700
v -0.01371954 0.00069524 -0.01494256
v -0.01286787 0.00033817 -0.01533812
v -0.01253285 0.00068334 -0.01590321
v -0.01151973 0.00052861 -0.01656114
v -0.00754797 -0.00012600 -0.01819182
v -0.00431082 -0.00031643 -0.01875691
v -0.00300708 -0.00014981 -0.01941887
v -0.00060142 -0.00024502 -0.01953592
v -0.00478307 0.00001682 -0.01923723
v -0.00397984 -0.00007839 -0.01933814
v -0.01949555 0.00181403 -0.00661558
v -0.01927758 0.00181403 -0.00730983
v -0.01903944 0.00181403 -0.00791125
v -0.01851068 0.00181403 -0.00902124
v -0.01811512 0.00181403 -0.00975989
v -0.01779221 0.00181403 -0.01036131
v -0.01719079 0.00181403 -0.01136636
v -0.01679119 0.00181403 -0.01196777
v -0.01567716 0.00114752 -0.01327959
v 0.02044409 0.08479531 -0.00236531
v 0.02037951 0.08479531 -0.00300709
v 0.02018172 0.08479531 -0.00420992
v 0.01986285 0.08479531 -0.00541275
v 0.00420991 0.10404097 -0.01980636
v 0.00300708 0.10404097 -0.02001221
v 0.01262972 0.08479531 -0.01625437
v 0.01196776 0.08479531 -0.01679121
v 0.01136635 0.08479531 -0.01719081
v 0.01036130 0.08479531 -0.01779222
v 0.00975988 0.08479531 -0.01811513
v 0.00902123 0.08479531 -0.01851069
v 0.00791124 0.08479531 -0.01903945
v 0.00670033 0.10404097 -0.01908789
v 0.00730982 0.08479531 -0.01927760
v 0.00541274 0.10404097 -0.01947941
v 0.00060142 0.10404097 -0.02024632
v 0.01949555 0.08479531 -0.00661558
v 0.01927758 0.00181403 -0.00730983
v 0.01903944 0.00181403 -0.00791125
v 0.01851068 0.00181403 -0.00902124
v 0.01811512 0.00181403 -0.00975989
v 0.01779221 0.00181403 -0.01036131
v 0.01719079 0.00181403 -0.01136636
v 0.01679119 0.00181403 -0.01196777
v 0.01625436 0.00181403 -0.01262974
v 0.01520491 0.00181403 -0.01390926
v 0.01460350 0.00181403 -0.01460351
v 0.01390924 0.00181403 -0.01520492
v -0.00060142 0.10404097 -0.02024632
v -0.00300708 0.10404097 -0.02001221
v -0.00420991 0.10404097 -0.01980636
v -0.00541274 0.10404097 -0.01947941
v -0.00670033 0.10404097 -0.01908789
v -0.00730982 0.08479531 -0.01927760
v -0.00791124 0.08479531 -0.01903945
v -0.00902123 0.08479531 -0.01851069
v -0.00975988 0.08479531 -0.01811513
v -0.01036130 0.08479531 -0.01779222
v -0.01136635 0.08479531 -0.01719081
v -0.01196776 0.08479531 -0.01679121
v -0.01262972 0.08479531 -0.01625437
v -0.01390924 0.00181403 -0.01520492
v -0.01460350 0.00181403 -0.01460351
v -0.01520491 0.00181403 -0.01390926
v -0.01625436 0.00181403 -0.01262974
v -0.01949555 0.08479531 -0.00661558
v 0.00060142 -0.00024502 -0.01953592
v 0.00300708 -0.00014981 -0.01941887
v 0.00431082 -0.00031643 -0.01875691
v 0.00397984 -0.00007839 -0.01933814
v 0.00478307 0.00001682 -0.01923723
v 0.00754797 -0.00012600 -0.01819182
v 0.00990923 -0.00011410 -0.01699303
v 0.01070842 0.00006443 -0.01677506
v 0.01151973 0.00052861 -0.01656114
v 0.01253285 0.00068334 -0.01590321
v 0.01286787 0.00033817 -0.01533812
v 0.01371954 0.00069524 -0.01494256
v 0.01454699 0.00104040 -0.01454700
v 0.01494255 0.00069524 -0.01371955
v 0.01567716 0.00114752 -0.01327959
v 0.01949555 0.00181403 -0.00661558
v 0.01986285 0.00181403 -0.00541275
v -0.01118471 0.00087377 -0.01707375
v -0.00971145 0.00112371 -0.01809091
v -0.00902123 0.00086187 -0.01827658
v -0.00902123 0.00026676 -0.01782855
v -0.00835120 0.00004062 -0.01800615
v -0.01327957 0.00114752 -0.01567718
v -0.00661557 0.00038578 -0.01895873
v -0.00541274 0.00012394 -0.01914036
v -0.00300708 0.00061192 -0.01998396
v -0.00060142 0.00044530 -0.02013734
v -0.00541274 0.00073094 -0.01955207
v -0.00431082 0.00049290 -0.01967720
v 0.00541274 0.08479531 -0.01986287
v 0.00420991 0.08479531 -0.02018174
v 0.00300708 0.08479531 -0.02037952
v 0.00236530 0.08479531 -0.02044410
v 0.00060142 0.08479531 -0.02061766
v 0.01262972 0.00181403 -0.01625437
v 0.01196776 0.00181403 -0.01679121
v 0.01136635 0.00181403 -0.01719081
v 0.01036130 0.00181403 -0.01779222
v 0.00975988 0.00181403 -0.01811513
v 0.00902123 0.00181403 -0.01851069
v 0.00791124 0.00181403 -0.01903945
v 0.00661557 0.08479531 -0.01949556
v 0.00730982 0.00181403 -0.01927760
v 0.01327957 0.00114752 -0.01567718
v -0.00060142 0.08479531 -0.02061766
v -0.00236530 0.08479531 -0.02044410
v -0.00300708 0.08479531 -0.02037952
v -0.00420991 0.08479531 -0.02018174
v -0.00541274 0.08479531 -0.01986287
v -0.00661557 0.08479531 -0.01949556
v -0.00730982 0.00181403 -0.01927760
v -0.00791124 0.00181403 -0.01903945
v -0.00902123 0.00181403 -0.01851069
v -0.00975988 0.00181403 -0.01811513
v -0.01036130 0.00181403 -0.01779222
v -0.01136635 0.00181403 -0.01719081
v -0.01196776 0.00181403 -0.01679121
v -0.01262972 0.00181403 -0.01625437
v 0.00060142 0.00044530 -0.02013734
v 0.00300708 0.00061192 -0.01998396
v 0.00431082 0.00049290 -0.01967720
v 0.00541274 0.00073094 -0.01955207
v 0.00541274 0.00012394 -0.01914036
v 0.00661557 0.00038578 -0.01895873
v 0.00835120 0.00004062 -0.01800615
v 0.00902123 0.00026676 -0.01782855
v 0.00902123 0.00086187 -0.01827658
v 0.00971145 0.00112371 -0.01809091
v 0.01118471 0.00087377 -0.01707375
v -0.00727753 0.00115942 -0.01926549
v -0.00781436 0.00060002 -0.01864793
v -0.00661557 0.00099279 -0.01937043
v -0.00157417 0.00113562 -0.02048446
v -0.00060142 0.00104040 -0.02053290
v -0.00420991 0.00181403 -0.02018174
v 0.00541274 0.00181403 -0.01986287
v 0.00420991 0.00181403 -0.02018174
v 0.00300708 0.00181403 -0.02037952
v 0.00236530 0.00181403 -0.02044410
v 0.00060142 0.07998687 -0.02061766
v 0.00727753 0.00115942 -0.01926549
v 0.00661557 0.00181403 -0.01949556
v -0.00060142 0.08118898 -0.02061766
v -0.00236530 0.00181403 -0.02044410
v -0.00300708 0.00181403 -0.02037952
v -0.00541274 0.00181403 -0.01986287
v -0.00661557 0.00181403 -0.01949556
v 0.00060142 0.00104040 -0.02053290
v 0.00157417 0.00113562 -0.02048446
v 0.00661557 0.00099279 -0.01937043
v 0.00781436 0.00060002 -0.01864793
v -0.00060142 0.00181403 -0.02061363
v 0.00060142 0.00181403 -0.02061363
f 1 2 7
f 1 7 3
f 1 3 4
f 1 4 5
f 1 5 6
f 1 6 8
f 1 8 2
f 2 8 9
f 2 9 10
f 2 10 17
f 2 17 7
f 3 7 16
f 3 16 11
f 3 11 4
f 4 11 12
f 4 12 13
f 4 13 5
f 5 13 6
f 6 13 14
f 6 14 15
f 6 15 19
f 6 19 8
f 7 17 18
f 7 18 16
f 8 19 9
f 9 20 21
f 9 21 22
f 9 22 10
f 9 19 23
f 9 23 20
f 10 22 24
f 10 24 34
f 10 34 17
f 11 25 26
f 11 26 12
f 11 16 33
f 11 33 25
f 12 26 27
f 12 27 28
f 12 28 13
f 13 28 14
f 14 28 29
f 14 29 30
f 14 30 31
f 14 31 32
f 14 32 15
f 15 32 23
f 15 23 19
f 16 18 33
f 17 34 35
f 17 35 18
f 18 35 36
f 18 36 37
f 18 37 38
f 18 38 33
f 20 39 40
f 20 40 21
f 20 23 41
f 20 41 70
f 20 70 39
f 21 40 42
f 21 42 22
f 22 42 43
f 22 43 24
f 23 44 45
f 23 45 41
f 23 32 61
f 23 61 44
f 24 43 46
f 24 46 62
f 24 62 34
f 25 47 26
f 25 33 38
f 25 38 47
f 26 48 49
f 26 49 50
f 26 50 27
f 26 47 48
f 27 50 51
f 27 51 52
f 27 52 53
f 27 53 54
f 27 54 28
f 28 54 55
f 28 55 56
f 28 56 29
f 29 56 57
f 29 57 30
f 30 57 58
f 30 58 31
f 31 58 59
f 31 59 60
f 31 60 61
f 31 61 32
f 34 62 63
f 34 63 35
f 35 63 64
f 35 64 36
f 36 64 65
f 36 65 37
f 37 65 66
f 37 66 107
f 37 107 67
f 37 67 38
f 38 67 68
f 38 68 69
f 38 69 85
f 38 85 47
f 39 70 71
f 39 71 40
f 40 71 72
f 40 72 42
f 41 45 70
f 42 72 73
f 42 73 43
f 43 73 74
f 43 74 75
f 43 75 46
f 44 76 45
f 44 61 99
f 44 99 76
f 45 77 78
f 45 78 79
f 45 79 70
f 45 76 80
f 45 80 81
f 45 81 82
f 45 82 77
f 46 75 83
f 46 83 84
f 46 84 100
f 46 100 62
f 47 85 48
f 48 86 87
f 48 87 88
f 48 88 49
f 48 85 86
f 49 89 50
f 49 88 89
f 50 89 51
f 51 89 90
f 51 90 52
f 52 90 53
f 53 90 91
f 53 91 54
f 54 91 55
f 55 91 56
f 56 91 57
f 57 92 93
f 57 93 58
f 57 91 94
f 57 94 92
f 58 93 59
f 59 93 95
f 59 95 96
f 59 96 97
f 59 97 98
f 59 98 60
f 60 98 61
f 61 98 99
f 62 100 101
f 62 101 102
f 62 102 63
f 63 102 103
f 63 103 104
f 63 104 64
f 64 104 105
f 64 105 65
f 65 105 106
f 65 106 66
f 66 106 107
f 67 107 68
f 68 107 108
f 68 108 109
f 68 109 110
f 68 110 111
f 68 111 112
f 68 112 113
f 68 113 114
f 68 114 69
f 69 114 131
f 69 131 85
f 70 79 115
f 70 115 71
f 71 115 116
f 71 116 117
f 71 117 72
f 72 117 118
f 72 118 119
f 72 119 73
f 73 119 75
f 73 75 74
f 75 119 120
f 75 120 83
f 76 99 127
f 76 127 80
f 77 121 122
f 77 122 78
f 77 82 123
f 77 123 124
f 77 124 125
f 77 125 121
f 78 122 126
f 78 126 115
f 78 115 79
f 80 127 128
f 80 128 81
f 81 128 129
f 81 129 82
f 82 129 172
f 82 172 123
f 83 120 84
f 84 120 130
f 84 130 147
f 84 147 100
f 85 131 132
f 85 132 86
f 86 132 87
f 87 133 134
f 87 134 88
f 87 132 135
f 87 135 136
f 87 136 133
f 88 134 89
f 89 134 137
f 89 137 138
f 89 138 90
f 90 138 139
f 90 139 140
f 90 140 141
f 90 141 91
f 91 141 142
f 91 142 94
f 92 143 144
f 92 144 96
f 92 96 93
f 92 94 145
f 92 145 143
f 93 96 95
f 94 142 145
f 96 144 97
f 97 144 146
f 97 146 128
f 97 128 127
f 97 127 98
f 98 127 99
f 100 147 148
f 100 148 101
f 101 148 102
f 102 148 149
f 102 149 104
f 102 104 103
f 104 149 105
f 105 149 150
f 105 150 151
f 105 151 106
f 106 152 153
f 106 153 107
f 106 151 152
f 107 153 108
f 108 153 109
f 109 153 154
f 109 154 155
f 109 155 110
f 110 155 156
f 110 156 157
f 110 157 158
f 110 158 159
f 110 159 111
f 111 159 205
f 111 205 160
f 111 160 161
f 111 161 112
f 112 161 162
f 112 162 113
f 113 162 131
f 113 131 114
f 115 126 122
f 115 122 116
f 116 163 164
f 116 164 117
f 116 122 163
f 117 164 165
f 117 165 118
f 118 165 119
f 119 165 166
f 119 166 120
f 120 166 130
f 121 125 167
f 121 167 168
f 121 168 169
f 121 169 170
f 121 170 122
f 122 170 171
f 122 171 163
f 123 172 173
f 123 173 124
f 124 173 174
f 124 174 125
f 125 174 213
f 125 213 167
f 128 146 129
f 129 146 175
f 129 175 176
f 129 176 172
f 130 166 177
f 130 177 193
f 130 193 147
f 131 162 132
f 132 162 135
f 133 136 134
f 134 136 137
f 135 178 179
f 135 179 136
f 135 162 161
f 135 161 178
f 136 179 137
f 137 179 180
f 137 180 181
f 137 181 138
f 138 181 139
f 139 182 140
f 139 181 182
f 140 182 183
f 140 183 141
f 141 183 142
f 142 183 145
f 143 184 185
f 143 185 186
f 143 186 187
f 143 187 188
f 143 188 144
f 143 145 184
f 144 188 176
f 144 176 175
f 144 175 146
f 145 183 189
f 145 189 190
f 145 190 191
f 145 191 192
f 145 192 184
f 147 193 194
f 147 194 148
f 148 194 195
f 148 195 149
f 149 195 150
f 150 195 151
f 151 195 196
f 151 196 152
f 152 196 197
f 152 197 155
f 152 155 153
f 153 155 154
f 155 198 156
f 155 197 199
f 155 199 198
f 156 200 201
f 156 201 157
f 156 198 202
f 156 202 200
f 157 201 265
f 157 265 203
f 157 203 204
f 157 204 158
f 158 204 205
f 158 205 159
f 160 205 206
f 160 206 207
f 160 207 178
f 160 178 161
f 163 171 208
f 163 208 209
f 163 209 210
f 163 210 164
f 164 210 165
f 165 210 211
f 165 211 166
f 166 211 177
f 167 212 168
f 167 213 270
f 167 270 212
f 168 214 215
f 168 215 169
f 168 212 216
f 168 216 217
f 168 217 214
f 169 215 218
f 169 218 171
f 169 171 170
f 171 218 219
f 171 219 208
f 172 176 173
f 173 176 220
f 173 220 174
f 174 220 213
f 176 188 220
f 177 221 222
f 177 222 223
f 177 223 224
f 177 224 284
f 177 284 225
f 177 225 285
f 177 285 351
f 177 351 434
f 177 434 534
f 177 534 638
f 177 638 708
f 177 708 597
f 177 597 493
f 177 493 395
f 177 395 314
f 177 314 249
f 177 249 193
f 177 211 221
f 178 207 179
f 179 207 206
f 179 206 226
f 179 226 180
f 180 226 227
f 180 227 228
f 180 228 229
f 180 229 230
f 180 230 181
f 181 231 232
f 181 232 233
f 181 233 182
f 181 230 234
f 181 234 231
f 182 235 299
f 182 299 368
f 182 368 372
f 182 372 301
f 182 301 236
f 182 236 183
f 182 233 235
f 183 236 189
f 184 192 237
f 184 237 185
f 185 237 238
f 185 238 239
f 185 239 186
f 186 239 240
f 186 240 241
f 186 241 187
f 187 241 242
f 187 242 188
f 188 242 220
f 189 236 190
f 190 236 243
f 190 243 244
f 190 244 245
f 190 245 246
f 190 246 247
f 190 247 248
f 190 248 191
f 191 248 192
f 192 248 237
f 193 249 316
f 193 316 250
f 193 250 251
f 193 251 252
f 193 252 253
f 193 253 254
f 193 254 194
f 194 254 195
f 195 255 196
f 195 254 255
f 196 255 197
f 197 256 257
f 197 257 199
f 197 255 256
f 198 199 202
f 199 257 258
f 199 258 259
f 199 259 202
f 200 202 260
f 200 260 261
f 200 261 262
f 200 262 263
f 200 263 264
f 200 264 201
f 201 264 333
f 201 333 265
f 202 259 260
f 203 265 266
f 203 266 204
f 204 266 206
f 204 206 205
f 206 266 226
f 208 219 267
f 208 267 268
f 208 268 209
f 209 268 210
f 210 269 211
f 210 268 269
f 211 269 278
f 211 278 221
f 212 270 273
f 212 273 216
f 213 220 242
f 213 242 241
f 213 241 270
f 214 217 271
f 214 271 272
f 214 272 219
f 214 219 215
f 215 219 218
f 216 273 275
f 216 275 217
f 217 274 271
f 217 275 305
f 217 305 274
f 219 272 276
f 219 276 277
f 219 277 267
f 221 278 279
f 221 279 280
f 221 280 222
f 222 280 345
f 222 345 281
f 222 281 223
f 223 281 224
f 224 282 283
f 224 283 347
f 224 347 284
f 224 281 282
f 225 284 286
f 225 286 285
f 226 266 287
f 226 287 227
f 227 287 288
f 227 288 228
f 228 288 289
f 228 289 290
f 228 290 229
f 229 290 291
f 229 291 292
f 229 292 230
f 230 292 234
f 231 234 293
f 231 293 232
f 232 294 295
f 232 295 235
f 232 235 233
f 232 293 296
f 232 296 297
f 232 297 298
f 232 298 294
f 234 292 293
f 235 295 300
f 235 300 369
f 235 369 299
f 236 301 376
f 236 376 302
f 236 302 243
f 237 248 247
f 237 247 303
f 237 303 238
f 238 303 304
f 238 304 305
f 238 305 275
f 238 275 273
f 238 273 239
f 239 273 240
f 240 273 270
f 240 270 241
f 243 302 306
f 243 306 244
f 244 306 307
f 244 307 245
f 245 307 308
f 245 308 309
f 245 309 310
f 245 310 246
f 246 310 311
f 246 311 312
f 246 312 313
f 246 313 303
f 246 303 247
f 249 314 315
f 249 315 316
f 250 316 401
f 250 401 317
f 250 317 318
f 250 318 319
f 250 319 251
f 251 319 252
f 252 319 405
f 252 405 320
f 252 320 253
f 253 320 321
f 253 321 322
f 253 322 323
f 253 323 254
f 254 323 255
f 255 323 324
f 255 324 256
f 256 324 257
f 257 325 258
f 257 324 325
f 258 326 327
f 258 327 261
f 258 261 260
f 258 260 259
f 258 325 328
f 258 328 326
f 261 329 262
f 261 327 329
f 262 329 330
f 262 330 358
f 262 358 331
f 262 331 332
f 262 332 263
f 263 332 333
f 263 333 264
f 265 333 288
f 265 288 287
f 265 287 266
f 267 277 334
f 267 334 335
f 267 335 268
f 268 335 279
f 268 279 278
f 268 278 269
f 271 336 337
f 271 337 272
f 271 274 338
f 271 338 339
f 271 339 336
f 272 337 276
f 274 305 378
f 274 378 338
f 276 337 277
f 277 337 340
f 277 340 341
f 277 341 334
f 279 335 334
f 279 334 342
f 279 342 280
f 280 342 343
f 280 343 344
f 280 344 345
f 281 345 346
f 281 346 282
f 282 346 283
f 283 346 348
f 283 348 349
f 283 349 429
f 283 429 347
f 284 347 350
f 284 350 286
f 285 286 352
f 285 352 353
f 285 353 354
f 285 354 351
f 286 350 355
f 286 355 352
f 288 333 289
f 289 333 332
f 289 332 290
f 290 332 291
f 291 356 357
f 291 357 292
f 291 332 331
f 291 331 358
f 291 358 356
f 292 357 296
f 292 296 293
f 294 359 295
f 294 298 360
f 294 360 359
f 295 359 300
f 296 357 297
f 297 357 361
f 297 361 362
f 297 362 363
f 297 363 364
f 297 364 298
f 298 364 365
f 298 365 366
f 298 366 360
f 299 367 368
f 299 369 370
f 299 370 371
f 299 371 367
f 300 359 444
f 300 444 369
f 301 372 373
f 301 373 374
f 301 374 375
f 301 375 376
f 302 376 379
f 302 379 306
f 303 313 304
f 304 313 377
f 304 377 305
f 305 377 378
f 306 379 481
f 306 481 380
f 306 380 381
f 306 381 382
f 306 382 307
f 307 382 383
f 307 383 384
f 307 384 385
f 307 385 308
f 308 385 386
f 308 386 387
f 308 387 309
f 309 387 386
f 309 386 388
f 309 388 310
f 310 388 389
f 310 389 390
f 310 390 391
f 310 391 311
f 311 391 392
f 311 392 393
f 311 393 312
f 312 393 394
f 312 394 313
f 313 394 377
f 314 395 396
f 314 396 397
f 314 397 398
f 314 398 315
f 315 398 399
f 315 399 400
f 315 400 316
f 316 400 401
f 317 402 403
f 317 403 318
f 317 401 503
f 317 503 404
f 317 404 402
f 318 403 319
f 319 403 405
f 320 405 406
f 320 406 407
f 320 407 408
f 320 408 321
f 321 408 409
f 321 409 410
f 321 410 324
f 321 324 322
f 322 324 323
f 324 410 325
f 325 410 409
f 325 409 328
f 326 411 327
f 326 328 411
f 327 411 329
f 328 409 412
f 328 412 413
f 328 413 411
f 329 411 414
f 329 414 415
f 329 415 416
f 329 416 330
f 330 416 443
f 330 443 358
f 334 341 417
f 334 417 342
f 336 339 418
f 336 418 419
f 336 419 341
f 336 341 340
f 336 340 337
f 338 378 420
f 338 420 339
f 339 420 492
f 339 492 418
f 341 419 421
f 341 421 422
f 341 422 423
f 341 423 417
f 342 417 343
f 343 417 424
f 343 424 425
f 343 425 344
f 344 425 345
f 345 425 426
f 345 426 346
f 346 426 427
f 346 427 348
f 347 428 355
f 347 355 350
f 347 429 428
f 348 427 426
f 348 426 430
f 348 430 431
f 348 431 349
f 349 431 432
f 349 432 528
f 349 528 429
f 351 354 433
f 351 433 532
f 351 532 434
f 352 355 435
f 352 435 436
f 352 436 437
f 352 437 353
f 353 437 438
f 353 438 439
f 353 439 440
f 353 440 354
f 354 440 433
f 355 428 441
f 355 441 435
f 356 442 361
f 356 361 357
f 356 358 442
f 358 443 442
f 359 360 445
f 359 445 446
f 359 446 447
f 359 447 541
f 359 541 444
f 360 366 448
f 360 448 449
f 360 449 450
f 360 450 445
f 361 442 451
f 361 451 362
f 362 451 452
f 362 452 363
f 363 452 453
f 363 453 454
f 363 454 364
f 364 454 455
f 364 455 456
f 364 456 457
f 364 457 365
f 365 457 458
f 365 458 459
f 365 459 366
f 366 459 458
f 366 458 448
f 367 371 460
f 367 460 368
f 368 460 461
f 368 461 462
f 368 462 469
f 368 469 372
f 369 444 370
f 370 444 463
f 370 463 371
f 371 464 460
f 371 463 465
f 371 465 466
f 371 466 467
f 371 467 468
f 371 468 464
f 372 469 470
f 372 470 471
f 372 471 373
f 373 471 374
f 374 472 375
f 374 471 473
f 374 473 474
f 374 474 475
f 374 475 476
f 374 476 477
f 374 477 472
f 375 472 379
f 375 379 376
f 377 394 378
f 378 394 420
f 379 472 478
f 379 478 479
f 379 479 480
f 379 480 481
f 380 481 587
f 380 587 482
f 380 482 381
f 381 482 382
f 382 482 383
f 383 482 483
f 383 483 384
f 384 483 484
f 384 484 385
f 385 484 386
f 386 484 485
f 386 485 486
f 386 486 388
f 388 486 487
f 388 487 488
f 388 488 389
f 389 488 489
f 389 489 390
f 390 489 391
f 391 489 490
f 391 490 491
f 391 491 392
f 392 491 492
f 392 492 420
f 392 420 393
f 393 420 394
f 395 493 599
f 395 599 494
f 395 494 396
f 396 494 495
f 396 495 397
f 397 495 496
f 397 496 497
f 397 497 498
f 397 498 398
f 398 498 499
f 398 499 500
f 398 500 399
f 399 500 501
f 399 501 502
f 399 502 401
f 399 401 400
f 401 502 503
f 402 504 505
f 402 505 506
f 402 506 403
f 402 404 507
f 402 507 504
f 403 506 505
f 403 505 405
f 404 503 608
f 404 608 508
f 404 508 507
f 405 505 509
f 405 509 406
f 406 509 407
f 407 509 510
f 407 510 511
f 407 511 408
f 408 511 409
f 409 511 412
f 411 413 414
f 412 512 513
f 412 513 514
f 412 514 414
f 412 414 413
f 412 511 515
f 412 515 512
f 414 514 516
f 414 516 415
f 415 516 548
f 415 548 517
f 415 517 443
f 415 443 416
f 417 423 424
f 418 518 419
f 418 492 491
f 418 491 518
f 419 519 421
f 419 518 520
f 419 520 521
f 419 521 519
f 421 522 423
f 421 423 422
f 421 519 522
f 423 522 523
f 423 523 424
f 424 523 524
f 424 524 525
f 424 525 425
f 425 525 430
f 425 430 426
f 428 526 435
f 428 435 441
f 428 429 527
f 428 527 526
f 429 528 527
f 430 525 529
f 430 529 431
f 431 529 530
f 431 530 432
f 432 530 531
f 432 531 528
f 433 440 533
f 433 533 532
f 434 532 535
f 434 535 534
f 435 526 436
f 436 438 437
f 436 526 536
f 436 536 537
f 436 537 438
f 438 537 538
f 438 538 439
f 439 538 539
f 439 539 440
f 440 539 540
f 440 540 533
f 442 443 451
f 443 517 451
f 444 541 542
f 444 542 543
f 444 543 544
f 444 544 463
f 445 450 545
f 445 545 446
f 446 545 447
f 447 545 645
f 447 645 541
f 448 458 546
f 448 546 449
f 449 546 547
f 449 547 450
f 450 547 545
f 451 517 452
f 452 517 453
f 453 517 548
f 453 548 549
f 453 549 454
f 454 549 550
f 454 550 551
f 454 551 455
f 455 551 456
f 456 551 552
f 456 552 457
f 457 553 458
f 457 552 554
f 457 554 553
f 458 553 555
f 458 555 546
f 460 556 461
f 460 464 557
f 460 557 558
f 460 558 559
f 460 559 560
f 460 560 556
f 461 556 561
f 461 561 462
f 462 561 570
f 462 570 469
f 463 544 465
f 464 468 557
f 465 544 562
f 465 562 563
f 465 563 564
f 465 564 466
f 466 564 565
f 466 565 566
f 466 566 567
f 466 567 568
f 466 568 467
f 467 568 569
f 467 569 468
f 468 569 557
f 469 570 470
f 470 570 571
f 470 571 471
f 471 571 572
f 471 572 573
f 471 573 574
f 471 574 575
f 471 575 473
f 472 477 478
f 473 575 474
f 474 575 576
f 474 576 475
f 475 576 577
f 475 577 476
f 476 577 578
f 476 578 579
f 476 579 580
f 476 580 581
f 476 581 477
f 477 581 582
f 477 582 583
f 477 583 478
f 478 583 584
f 478 584 585
f 478 585 586
f 478 586 479
f 479 586 587
f 479 587 480
f 480 587 481
f 482 587 706
f 482 706 588
f 482 588 483
f 483 588 589
f 483 589 590
f 483 590 591
f 483 591 592
f 483 592 484
f 484 592 593
f 484 593 485
f 485 593 486
f 486 593 594
f 486 594 487
f 487 594 621
f 487 621 595
f 487 595 596
f 487 596 488
f 488 596 521
f 488 521 489
f 489 521 520
f 489 520 490
f 490 520 518
f 490 518 491
f 493 597 598
f 493 598 599
f 494 599 600
f 494 600 495
f 495 600 601
f 495 601 602
f 495 602 496
f 496 602 603
f 496 603 497
f 497 603 604
f 497 604 499
f 497 499 498
f 499 604 605
f 499 605 606
f 499 606 500
f 500 606 502
f 500 502 501
f 502 606 607
f 502 607 503
f 503 607 608
f 504 609 509
f 504 509 505
f 504 507 610
f 504 610 609
f 507 508 611
f 507 611 610
f 508 608 612
f 508 612 611
f 509 609 510
f 510 609 613
f 510 613 614
f 510 614 515
f 510 515 511
f 512 515 513
f 513 515 615
f 513 615 616
f 513 616 514
f 514 616 617
f 514 617 618
f 514 618 619
f 514 619 516
f 515 614 615
f 516 619 549
f 516 549 548
f 519 620 523
f 519 523 522
f 519 521 596
f 519 596 595
f 519 595 621
f 519 621 622
f 519 622 623
f 519 623 620
f 523 620 624
f 523 624 524
f 524 624 525
f 525 624 529
f 526 527 625
f 526 625 536
f 527 528 626
f 527 626 625
f 528 531 627
f 528 627 626
f 529 624 530
f 530 624 623
f 530 623 628
f 530 628 629
f 530 629 531
f 531 630 627
f 531 629 590
f 531 590 589
f 531 589 707
f 531 707 630
f 532 631 535
f 532 533 631
f 533 540 632
f 533 632 633
f 533 633 634
f 533 634 631
f 534 535 635
f 534 635 636
f 534 636 637
f 534 637 638
f 535 631 635
f 536 625 639
f 536 639 640
f 536 640 537
f 537 640 641
f 537 641 642
f 537 642 538
f 538 642 643
f 538 643 539
f 539 643 644
f 539 644 632
f 539 632 540
f 541 645 542
f 542 645 543
f 543 645 646
f 543 646 544
f 544 646 647
f 544 647 648
f 544 648 562
f 545 547 649
f 545 649 757
f 545 757 645
f 546 555 650
f 546 650 651
f 546 651 547
f 547 651 652
f 547 652 653
f 547 653 654
f 547 654 649
f 549 619 618
f 549 618 550
f 550 618 617
f 550 617 551
f 551 617 655
f 551 655 552
f 552 655 657
f 552 657 554
f 553 554 656
f 553 656 650
f 553 650 555
f 554 657 732
f 554 732 656
f 556 560 658
f 556 658 561
f 557 569 558
f 558 569 659
f 558 659 559
f 559 659 660
f 559 660 661
f 559 661 662
f 559 662 663
f 559 663 560
f 560 663 664
f 560 664 665
f 560 665 658
f 561 658 666
f 561 666 667
f 561 667 668
f 561 668 681
f 561 681 570
f 562 648 669
f 562 669 670
f 562 670 563
f 563 670 669
f 563 669 671
f 563 671 564
f 564 671 672
f 564 672 673
f 564 673 674
f 564 674 565
f 565 674 675
f 565 675 676
f 565 676 566
f 566 676 677
f 566 677 567
f 567 677 678
f 567 678 679
f 567 679 568
f 568 679 680
f 568 680 569
f 569 680 659
f 570 681 682
f 570 682 683
f 570 683 684
f 570 684 571
f 571 684 572
f 572 684 685
f 572 685 686
f 572 686 687
f 572 687 573
f 573 687 688
f 573 688 689
f 573 689 690
f 573 690 691
f 573 691 574
f 574 691 576
f 574 576 575
f 576 691 692
f 576 692 577
f 577 692 693
f 577 693 578
f 578 693 694
f 578 694 695
f 578 695 579
f 579 695 696
f 579 696 580
f 580 696 697
f 580 697 698
f 580 698 581
f 581 698 699
f 581 699 700
f 581 700 701
f 581 701 582
f 582 701 702
f 582 702 703
f 582 703 583
f 583 703 702
f 583 702 584
f 584 702 704
f 584 704 585
f 585 704 705
f 585 705 586
f 586 705 587
f 587 705 706
f 588 706 707
f 588 707 589
f 590 629 628
f 590 628 591
f 591 628 623
f 591 623 592
f 592 623 622
f 592 622 593
f 593 622 621
f 593 621 594
f 597 708 709
f 597 709 710
f 597 710 711
f 597 711 598
f 598 711 712
f 598 712 599
f 599 712 600
f 600 713 714
f 600 714 715
f 600 715 601
f 600 712 713
f 601 715 602
f 602 715 716
f 602 716 717
f 602 717 603
f 603 718 604
f 603 717 718
f 604 718 719
f 604 719 720
f 604 720 605
f 605 720 721
f 605 721 722
f 605 722 606
f 606 722 607
f 607 722 723
f 607 723 608
f 608 723 724
f 608 724 612
f 609 610 725
f 609 725 613
f 610 611 725
f 611 612 726
f 611 726 727
f 611 727 728
f 611 728 725
f 612 724 729
f 612 729 760
f 612 760 654
f 612 654 653
f 612 653 726
f 613 725 730
f 613 730 614
f 614 730 616
f 614 616 615
f 616 730 728
f 616 728 731
f 616 731 732
f 616 732 657
f 616 657 655
f 616 655 617
f 620 623 624
f 625 626 639
f 626 627 733
f 626 733 734
f 626 734 735
f 626 735 639
f 627 630 733
f 630 707 820
f 630 820 733
f 631 634 736
f 631 736 737
f 631 737 635
f 632 644 738
f 632 738 633
f 633 738 739
f 633 739 736
f 633 736 634
f 635 737 740
f 635 740 741
f 635 741 636
f 636 742 637
f 636 741 743
f 636 743 744
f 636 744 742
f 637 742 745
f 637 745 746
f 637 746 638
f 638 746 821
f 638 821 708
f 639 735 747
f 639 747 641
f 639 641 640
f 641 747 748
f 641 748 749
f 641 749 642
f 642 749 750
f 642 750 751
f 642 751 643
f 643 751 750
f 643 750 752
f 643 752 753
f 643 753 754
f 643 754 644
f 644 754 755
f 644 755 756
f 644 756 738
f 645 757 758
f 645 758 646
f 646 758 647
f 647 758 759
f 647 759 648
f 648 759 669
f 649 654 760
f 649 760 757
f 650 656 732
f 650 732 731
f 650 731 728
f 650 728 651
f 651 728 727
f 651 727 652
f 652 727 726
f 652 726 653
f 658 665 761
f 658 761 762
f 658 762 763
f 658 763 666
f 659 680 764
f 659 764 660
f 660 764 765
f 660 765 766
f 660 766 661
f 661 766 767
f 661 767 662
f 662 767 768
f 662 768 769
f 662 769 663
f 663 769 770
f 663 770 771
f 663 771 772
f 663 772 664
f 664 772 773
f 664 773 774
f 664 774 665
f 665 774 773
f 665 773 761
f 666 763 775
f 666 775 667
f 667 775 668
f 668 775 789
f 668 789 681
f 669 759 776
f 669 776 777
f 669 777 671
f 671 777 778
f 671 778 779
f 671 779 672
f 672 779 780
f 672 780 673
f 673 780 674
f 674 780 781
f 674 781 782
f 674 782 675
f 675 782 783
f 675 783 784
f 675 784 676
f 676 784 677
f 677 784 785
f 677 785 678
f 678 785 786
f 678 786 679
f 679 786 680
f 680 786 787
f 680 787 788
f 680 788 764
f 681 789 682
f 682 789 683
f 683 789 790
f 683 790 684
f 684 790 791
f 684 791 792
f 684 792 685
f 685 792 793
f 685 793 794
f 685 794 686
f 686 794 793
f 686 793 795
f 686 795 687
f 687 795 796
f 687 796 797
f 687 797 798
f 687 798 688
f 688 798 799
f 688 799 800
f 688 800 689
f 689 800 801
f 689 801 690
f 690 801 802
f 690 802 803
f 690 803 691
f 691 803 692
f 692 803 804
f 692 804 805
f 692 805 806
f 692 806 693
f 693 806 694
f 694 806 807
f 694 807 695
f 695 807 808
f 695 808 696
f 696 808 697
f 697 808 809
f 697 809 810
f 697 810 698
f 698 810 811
f 698 811 812
f 698 812 699
f 699 812 700
f 700 812 813
f 700 813 701
f 701 814 702
f 701 813 815
f 701 815 814
f 702 814 816
f 702 816 704
f 704 816 817
f 704 817 818
f 704 818 705
f 705 818 819
f 705 819 820
f 705 820 707
f 705 707 706
f 708 821 709
f 709 821 822
f 709 822 823
f 709 823 710
f 710 824 711
f 710 823 825
f 710 825 826
f 710 826 824
f 711 824 827
f 711 827 828
f 711 828 712
f 712 828 829
f 712 829 713
f 713 829 714
f 714 830 831
f 714 831 715
f 714 829 830
f 715 831 716
f 716 831 832
f 716 832 833
f 716 833 834
f 716 834 717
f 717 834 835
f 717 835 836
f 717 836 837
f 717 837 838
f 717 838 718
f 718 838 837
f 718 837 839
f 718 839 719
f 719 839 840
f 719 840 841
f 719 841 721
f 719 721 720
f 721 841 842
f 721 842 723
f 721 723 722
f 723 842 843
f 723 843 844
f 723 844 724
f 724 844 729
f 725 728 730
f 729 844 869
f 729 869 760
f 733 820 819
f 733 819 734
f 734 819 818
f 734 818 735
f 735 845 748
f 735 748 747
f 735 818 817
f 735 817 845
f 736 739 846
f 736 846 847
f 736 847 737
f 737 847 740
f 738 756 848
f 738 848 849
f 738 849 850
f 738 850 851
f 738 851 739
f 739 851 852
f 739 852 853
f 739 853 846
f 740 847 854
f 740 854 743
f 740 743 741
f 742 744 855
f 742 855 856
f 742 856 857
f 742 857 745
f 743 854 858
f 743 858 859
f 743 859 744
f 744 859 856
f 744 856 855
f 745 857 746
f 746 857 916
f 746 916 821
f 748 752 750
f 748 750 749
f 748 845 860
f 748 860 861
f 748 861 862
f 748 862 863
f 748 863 752
f 752 863 864
f 752 864 865
f 752 865 866
f 752 866 753
f 753 866 867
f 753 867 868
f 753 868 755
f 753 755 754
f 755 848 756
f 755 868 848
f 757 760 758
f 758 760 869
f 758 869 870
f 758 870 871
f 758 871 759
f 759 871 872
f 759 872 776
f 761 773 873
f 761 873 762
f 762 873 874
f 762 874 763
f 763 874 775
f 764 788 765
f 765 788 875
f 765 875 766
f 766 875 876
f 766 876 767
f 767 876 768
f 768 876 877
f 768 877 878
f 768 878 769
f 769 878 879
f 769 879 880
f 769 880 770
f 770 880 771
f 771 880 881
f 771 881 772
f 772 882 773
f 772 881 883
f 772 883 882
f 773 882 884
f 773 884 873
f 775 874 885
f 775 885 898
f 775 898 789
f 776 872 777
f 777 872 886
f 777 886 778
f 778 886 931
f 778 931 887
f 778 887 888
f 778 888 779
f 779 888 889
f 779 889 780
f 780 889 890
f 780 890 781
f 781 890 891
f 781 891 782
f 782 891 892
f 782 892 783
f 783 892 893
f 783 893 784
f 784 893 894
f 784 894 785
f 785 894 895
f 785 895 786
f 786 895 896
f 786 896 787
f 787 896 897
f 787 897 788
f 788 897 950
f 788 950 875
f 789 898 899
f 789 899 790
f 790 899 791
f 791 899 900
f 791 900 792
f 792 900 793
f 793 900 901
f 793 901 902
f 793 902 795
f 795 902 903
f 795 903 904
f 795 904 796
f 796 904 905
f 796 905 797
f 797 905 798
f 798 905 906
f 798 906 907
f 798 907 799
f 799 907 908
f 799 908 909
f 799 909 800
f 800 909 801
f 801 909 910
f 801 910 802
f 802 910 804
f 802 804 803
f 804 910 973
f 804 973 911
f 804 911 912
f 804 912 805
f 805 912 913
f 805 913 806
f 806 913 914
f 806 914 807
f 807 914 867
f 807 867 808
f 808 867 866
f 808 866 809
f 809 866 865
f 809 865 810
f 810 865 864
f 810 864 811
f 811 864 863
f 811 863 812
f 812 863 862
f 812 862 813
f 813 862 861
f 813 861 815
f 814 815 915
f 814 915 817
f 814 817 816
f 815 861 860
f 815 860 915
f 817 915 860
f 817 860 845
f 821 916 822
f 822 916 823
f 823 916 917
f 823 917 918
f 823 918 825
f 824 826 827
f 825 917 919
f 825 919 826
f 825 918 917
f 826 919 920
f 826 920 921
f 826 921 827
f 827 921 922
f 827 922 828
f 828 922 829
f 829 922 923
f 829 923 830
f 830 923 924
f 830 924 925
f 830 925 926
f 830 926 831
f 831 926 927
f 831 927 928
f 831 928 929
f 831 929 832
f 832 929 833
f 833 929 930
f 833 930 835
f 833 835 834
f 835 930 893
f 835 893 892
f 835 892 836
f 836 840 837
f 836 892 891
f 836 891 890
f 836 890 889
f 836 889 840
f 837 840 839
f 840 889 888
f 840 888 887
f 840 887 931
f 840 931 932
f 840 932 842
f 840 842 841
f 842 932 872
f 842 872 871
f 842 871 870
f 842 870 843
f 843 870 869
f 843 869 844
f 846 853 933
f 846 933 934
f 846 934 935
f 846 935 936
f 846 936 937
f 846 937 847
f 847 937 854
f 848 868 849
f 849 868 912
f 849 912 938
f 849 938 850
f 850 852 851
f 850 938 852
f 852 938 933
f 852 933 853
f 854 937 939
f 854 939 940
f 854 940 858
f 856 859 941
f 856 941 942
f 856 942 857
f 857 942 974
f 857 974 916
f 858 940 943
f 858 943 944
f 858 944 859
f 859 944 941
f 867 914 868
f 868 914 913
f 868 913 912
f 872 932 931
f 872 931 886
f 873 884 945
f 873 945 946
f 873 946 874
f 874 946 947
f 874 947 948
f 874 948 949
f 874 949 885
f 875 950 951
f 875 951 876
f 876 951 952
f 876 952 877
f 877 952 953
f 877 953 878
f 878 953 954
f 878 954 879
f 879 954 955
f 879 955 880
f 880 955 956
f 880 956 881
f 881 956 958
f 881 958 883
f 882 883 957
f 882 957 945
f 882 945 884
f 883 958 997
f 883 997 957
f 885 949 960
f 885 960 898
f 893 930 894
f 894 930 895
f 895 930 896
f 896 930 928
f 896 928 959
f 896 959 897
f 897 959 950
f 898 960 899
f 899 960 961
f 899 961 962
f 899 962 963
f 899 963 900
f 900 963 964
f 900 964 901
f 901 964 902
f 902 964 965
f 902 965 903
f 903 965 1002
f 903 1002 966
f 903 966 967
f 903 967 904
f 904 967 968
f 904 968 905
f 905 968 969
f 905 969 906
f 906 969 970
f 906 970 907
f 907 970 971
f 907 971 908
f 908 971 972
f 908 972 909
f 909 972 973
f 909 973 910
f 911 973 938
f 911 938 912
f 916 974 917
f 917 974 975
f 917 975 919
f 919 975 976
f 919 976 920
f 920 976 977
f 920 977 978
f 920 978 921
f 921 978 979
f 921 979 980
f 921 980 922
f 922 980 923
f 923 981 982
f 923 982 983
f 923 983 984
f 923 984 924
f 923 980 981
f 924 984 925
f 925 927 926
f 925 984 959
f 925 959 927
f 927 959 928
f 928 930 929
f 933 938 972
f 933 972 971
f 933 971 934
f 934 985 935
f 934 971 970
f 934 970 969
f 934 969 968
f 934 968 985
f 935 986 937
f 935 937 936
f 935 985 986
f 937 986 939
f 938 973 972
f 939 986 985
f 939 985 987
f 939 987 943
f 939 943 940
f 941 944 988
f 941 988 989
f 941 989 942
f 942 989 1003
f 942 1003 974
f 943 987 990
f 943 990 988
f 943 988 944
f 945 957 997
f 945 997 991
f 945 991 992
f 945 992 946
f 946 992 993
f 946 993 947
f 947 993 994
f 947 994 948
f 948 994 995
f 948 995 949
f 949 995 998
f 949 998 960
f 950 959 951
f 951 959 984
f 951 984 952
f 952 984 983
f 952 983 953
f 953 983 954
f 954 983 955
f 955 983 996
f 955 996 956
f 956 996 958
f 958 996 997
f 960 998 999
f 960 999 961
f 961 999 1000
f 961 1000 962
f 962 1000 990
f 962 990 963
f 963 990 1001
f 963 1001 964
f 964 1001 1002
f 964 1002 965
f 966 1002 985
f 966 985 967
f 967 985 968
f 974 1003 975
f 975 1003 1004
f 975 1004 976
f 976 1004 977
f 977 1004 992
f 977 992 1005
f 977 1005 979
f 977 979 978
f 979 1005 996
f 979 996 1006
f 979 1006 980
f 980 1006 982
f 980 982 981
f 982 1006 996
f 982 996 983
f 985 1002 1001
f 985 1001 990
f 985 990 987
f 988 990 1000
f 988 1000 999
f 988 999 1007
f 988 1007 989
f 989 1007 1008
f 989 1008 1003
f 991 997 996
f 991 996 992
f 992 996 1005
f 992 1004 993
f 993 1004 994
f 994 1004 1008
f 994 1008 995
f 995 1008 1007
f 995 1007 998
f 998 1007 999
f 1003 1008 1004

