# https://github.com/mikedh/trimesh
v -0.49481429 -0.05663657 0.82695251
v -0.88305796 -0.05663657 0.82695251
v -0.50254790 -0.05663657 1.08622313
v -0.00003816 -0.49452010 0.82695251
v -0.88775029 -0.06420312 0.82695251
v -0.81510669 -0.05663657 1.08622313
v -0.00003816 -0.50192393 1.08622313
v -0.00003816 -0.88212266 0.82695251
v -0.86107381 -0.21821902 0.82695251
v -0.79981327 -0.13628876 1.08622313
v -0.00003816 -0.81500004 1.08622313
v -0.06416614 -0.88773656 0.82695251
v -0.79798850 -0.14572660 1.08622313
v -0.84465074 -0.28273808 0.82695251
v -0.78669222 -0.20227231 1.08622313
v -0.05660633 -0.81500004 1.08622313
v -0.21822974 -0.86105022 0.82695251
v -0.83987155 -0.29656942 0.82695251
v -0.76522938 -0.28273808 1.08622313
v -0.13620152 -0.79978555 1.08622313
v -0.15166870 -0.79677528 1.08622313
v -0.20215429 -0.78668649 1.08622313
v -0.28270531 -0.84461535 0.82695251
v -0.79086315 -0.40998628 0.82695251
v -0.71344036 -0.39192421 1.08622313
v -0.28270531 -0.76520731 1.08622313
v -0.29652150 -0.83981510 0.82695251
v -0.68302732 -0.56025958 0.82695251
v -0.63514858 -0.50875822 1.08622313
v -0.63949331 -0.50233071 1.08622313
v -0.67581511 -0.44846992 1.08622313
v -0.70944323 -0.39794488 1.08622313
v -0.39193145 -0.71346185 1.08622313
v -0.41000545 -0.79083594 0.82695251
v -0.63931951 -0.62014109 0.82695251
v -0.58692224 -0.57352141 1.08622313
v -0.44832582 -0.67579186 1.08622313
v -0.50237410 -0.63950494 1.08622313
v -0.50880426 -0.63511147 1.08622313
v -0.56024568 -0.68303297 0.82695251
v -0.62011586 -0.63934222 0.82695251
v -0.58118720 -0.58116929 1.08622313
v -0.57354053 -0.58694591 1.08622313
f 1 2 6
f 1 6 3
f 1 3 4
f 1 4 8
f 1 8 12
f 1 12 17
f 1 17 23
f 1 23 27
f 1 27 34
f 1 34 40
f 1 40 41
f 1 41 35
f 1 35 28
f 1 28 24
f 1 24 18
f 1 18 14
f 1 14 9
f 1 9 5
f 1 5 2
f 2 5 6
f 3 6 10
f 3 10 13
f 3 13 15
f 3 15 19
f 3 19 25
f 3 25 32
f 3 32 31
f 3 31 30
f 3 30 29
f 3 29 36
f 3 36 42
f 3 42 43
f 3 43 39
f 3 39 38
f 3 38 37
f 3 37 33
f 3 33 26
f 3 26 22
f 3 22 21
f 3 21 20
f 3 20 16
f 3 16 11
f 3 11 7
f 3 7 4
f 4 7 11
f 4 11 8
f 5 9 6
f 6 9 10
f 8 11 12
f 9 13 10
f 9 14 15
f 9 15 13
f 11 16 12
f 12 16 17
f 14 18 19
f 14 19 15
f 16 20 17
f 17 20 21
f 17 21 22
f 17 22 23
f 18 24 19
f 19 24 25
f 22 26 23
f 23 26 27
f 24 28 29
f 24 29 30
f 24 30 31
f 24 31 32
f 24 32 25
f 26 33 34
f 26 34 27
f 28 35 29
f 29 35 36
f 33 37 34
f 34 37 38
f 34 38 39
f 34 39 40
f 35 41 42
f 35 42 36
f 39 43 41
f 39 41 40
f 41 43 42

