# https://github.com/mikedh/trimesh
v 26.52129095 35.52513534 21.97378334
v 27.87089852 30.74417523 21.97378334
v 26.19899621 36.35946829 21.97554294
v 29.97252539 36.35946829 21.97378334
v 27.86754166 30.73422511 21.99668170
v 27.88096908 30.71049670 21.97378334
v 27.48146144 30.75182896 23.68061841
v 26.97787559 32.50775738 23.68061841
v 25.92370268 36.35946829 23.62425100
v 35.79396653 36.35946829 21.97378334
v 28.60277669 28.53969819 21.97378334
v 27.18266469 30.75182896 25.43853554
v 28.25362188 28.53969819 23.67005034
v 28.24690817 28.53969819 23.70880080
v 26.68915464 32.50775738 25.43853554
v 25.06761040 36.35946829 35.97899339
v 26.55486473 32.50775738 27.19469176
v 44.49255183 36.35946829 24.95766345
v 38.72818770 28.53969819 21.97378334
v 27.78696667 28.53969819 26.65745226
v 27.71646748 28.53969819 27.19469176
v 27.56539067 28.99437137 27.19469176
v 26.99801672 30.75182896 27.19469176
v 28.10926140 28.53969819 24.52258676
v 28.01525899 28.53969819 25.09153179
v 27.93132714 28.53969819 25.63053220
v 25.16161281 36.02267257 35.97899339
v 25.17504023 36.35946829 37.73691052
v 26.90065745 30.75182896 28.95260890
v 27.31024089 28.99437137 30.70876512
v 48.36679713 36.35946829 26.40908951
v 50.07898693 36.35946829 27.05729899
v 51.04587114 36.35946829 27.50470465
v 51.46216829 36.35946829 27.71783876
v 52.17390010 36.35946829 28.11944770
v 52.37868920 36.35946829 28.25683917
v 52.84198755 33.22957023 29.75054144
v 54.75225275 28.53969819 33.08494712
v 27.60231870 28.53969819 28.30968345
v 27.38409956 28.99437137 28.95260890
v 26.38364418 31.71552389 35.97899339
v 25.76591479 34.26521497 37.73691052
v 25.26904265 36.02267257 37.73691052
v 25.22539829 36.35946829 38.02226414
v 27.45795822 28.53969819 30.70876512
v 27.34717153 28.53969819 34.22283716
v 53.06020931 36.35946829 28.85572880
v 54.47024551 31.63591773 31.58772303
v 53.05013875 34.26521497 29.53036108
v 54.94025757 28.53969819 33.26637570
v 27.54189007 28.53969819 28.95260890
v 27.36395581 28.53969819 35.52454147
v 27.37066952 28.53969819 35.97899339
v 26.44743228 31.93520413 37.73691052
v 26.28292806 33.12393927 38.87832369
v 25.49397811 36.35946829 39.46840616
v 53.95658909 36.35946829 30.03413284
v 54.67167775 34.26521497 31.30765475
v 54.55417735 32.80627919 31.45561559
v 56.65916108 28.53969819 35.10003417
v 56.44429618 28.53969819 34.83934112
v 55.86685428 28.53969819 34.18760852
v 27.49153201 28.53969819 37.28245926
v 27.53853322 28.53969819 37.70696591
v 26.09828009 34.24607933 39.47545176
v 27.87761223 28.53969819 39.40323290
v 27.96825778 28.53969819 39.77137411
v 28.01525899 28.53969819 39.94751800
v 25.76255793 36.02267257 39.96689389
v 25.70212669 36.35946829 39.96689389
v 26.16206819 34.49790891 39.96689389
v 54.60789227 36.35946829 31.07690501
v 54.70525154 36.02267257 31.21429779
v 57.42125095 28.53969819 36.22911836
v 28.02197270 28.53969819 39.96689389
v 55.48413092 36.35946829 39.96689389
v 55.11147812 36.35946829 32.25530905
v 59.35837622 28.53969819 39.95104048
v 58.65000127 28.53969819 38.41154214
v 58.03562349 28.53969819 37.28598173
v 59.36508993 28.53969819 39.96689389
v 56.27643772 35.22201814 39.96689389
v 55.50763414 36.35946829 39.88058318
v 55.18198255 36.35946829 32.46492003
v 55.60835026 36.35946829 33.88464056
v 56.23950708 35.17532853 35.06656774
v 58.10277107 31.65505337 39.96689389
v 56.40065183 34.99927432 39.96689389
v 56.30664942 35.27407034 39.49306609
v 55.64527567 36.35946829 39.28521667
v 55.74263494 36.15279914 39.49306609
v 55.60163655 36.35946829 39.49306609
v 55.68556317 36.35946829 34.33733158
v 55.81313937 36.35946829 35.68835573
v 58.01212551 31.86325432 39.96689389
v 56.99824009 33.85799861 39.96689389
v 55.80978251 36.35946829 35.97899339
v 55.76949501 36.35946829 37.52377641
f 1 2 3
f 1 3 4
f 1 4 10
f 1 10 19
f 1 19 11
f 1 11 6
f 1 6 2
f 2 5 3
f 2 6 5
f 3 5 7
f 3 7 8
f 3 8 9
f 3 9 16
f 3 16 28
f 3 28 44
f 3 44 56
f 3 56 70
f 3 70 76
f 3 76 83
f 3 83 92
f 3 92 90
f 3 90 98
f 3 98 97
f 3 97 94
f 3 94 93
f 3 93 85
f 3 85 84
f 3 84 77
f 3 77 72
f 3 72 57
f 3 57 47
f 3 47 36
f 3 36 35
f 3 35 34
f 3 34 33
f 3 33 32
f 3 32 31
f 3 31 18
f 3 18 10
f 3 10 4
f 5 6 11
f 5 11 7
f 7 12 8
f 7 11 13
f 7 13 14
f 7 14 12
f 8 12 15
f 8 15 9
f 9 15 17
f 9 17 16
f 10 18 19
f 11 19 38
f 11 38 50
f 11 50 62
f 11 62 61
f 11 61 60
f 11 60 74
f 11 74 80
f 11 80 79
f 11 79 78
f 11 78 81
f 11 81 75
f 11 75 68
f 11 68 67
f 11 67 66
f 11 66 64
f 11 64 63
f 11 63 53
f 11 53 52
f 11 52 46
f 11 46 45
f 11 45 51
f 11 51 39
f 11 39 21
f 11 21 20
f 11 20 26
f 11 26 25
f 11 25 24
f 11 24 14
f 11 14 13
f 12 20 21
f 12 21 22
f 12 22 23
f 12 23 15
f 12 14 24
f 12 24 25
f 12 25 26
f 12 26 20
f 15 23 17
f 16 27 43
f 16 43 28
f 16 17 23
f 16 23 29
f 16 29 30
f 16 30 27
f 18 31 19
f 19 31 32
f 19 32 33
f 19 33 34
f 19 34 35
f 19 35 36
f 19 36 37
f 19 37 38
f 21 39 40
f 21 40 22
f 22 40 23
f 23 40 29
f 27 41 42
f 27 42 43
f 27 30 41
f 28 43 44
f 29 40 30
f 30 40 45
f 30 45 46
f 30 46 41
f 36 47 48
f 36 48 49
f 36 49 37
f 37 49 48
f 37 48 38
f 38 48 50
f 39 51 40
f 40 51 45
f 41 46 52
f 41 52 53
f 41 53 54
f 41 54 42
f 42 55 43
f 42 54 55
f 43 55 44
f 44 55 56
f 47 57 58
f 47 58 59
f 47 59 48
f 48 59 58
f 48 58 60
f 48 60 61
f 48 61 62
f 48 62 50
f 53 63 54
f 54 63 64
f 54 64 55
f 55 65 56
f 55 64 66
f 55 66 67
f 55 67 68
f 55 68 65
f 56 69 70
f 56 65 71
f 56 71 69
f 57 72 73
f 57 73 58
f 58 73 74
f 58 74 60
f 65 68 71
f 68 75 71
f 69 71 75
f 69 75 81
f 69 81 87
f 69 87 95
f 69 95 96
f 69 96 88
f 69 88 82
f 69 82 76
f 69 76 70
f 72 77 78
f 72 78 73
f 73 78 79
f 73 79 80
f 73 80 74
f 76 82 83
f 77 84 81
f 77 81 78
f 81 84 85
f 81 85 86
f 81 86 87
f 82 88 89
f 82 89 90
f 82 90 91
f 82 91 92
f 82 92 83
f 85 93 86
f 86 94 87
f 86 93 94
f 87 94 95
f 88 96 89
f 89 96 95
f 89 95 97
f 89 97 98
f 89 98 90
f 90 92 91
f 94 97 95

