# https://github.com/mikedh/trimesh
v -30.18039903 12.53834036 48.18129410
v -30.18039903 23.46174021 40.72977061
v -37.99618908 23.53614351 40.91120966
v -37.99618908 22.08194451 41.82075240
v -37.99618908 21.93314052 41.91147193
v -31.59345430 12.30837484 48.18129410
v -30.18039903 -36.43772333 48.18129410
v -30.18039903 24.23956959 40.19170891
v -37.99618908 24.27338689 40.37314797
v -37.99618908 10.82712069 48.18129410
v -35.83261749 11.39527232 48.18129410
v -34.36600965 11.74022190 48.17973023
v -34.37518994 11.73345844 48.18129410
v -30.75189442 -36.76238253 48.18129410
v -30.18039903 -37.10056865 47.60647589
v -37.99618908 24.44248126 40.19170891
v -30.18039903 -44.56771186 40.19170891
v -37.99618908 -35.26760015 48.18129410
v -31.90559468 -37.10733211 48.18129410
v -32.50845912 -38.41272974 47.16617278
v -32.60409021 -44.65563947 41.48602786
v -32.36692396 -44.65563947 41.41094967
v -30.75189442 -37.23584309 47.73786292
v -30.95080772 -44.65563947 40.69848796
v -30.88960403 -44.65563947 40.65312721
v -30.50248691 -44.65563947 40.36454505
v -30.28444582 -44.65563947 40.20187570
v -30.18039903 -44.51360418 40.25662033
v -37.99618908 -44.65563947 40.19170891
v -30.27603012 -44.65563947 40.19170891
v -37.99618908 -44.65563947 42.98837660
v -37.73071474 -35.51785866 48.18129410
v -32.50845912 -37.25613348 48.18129410
v -32.50845912 -37.53344583 47.95371302
v -33.74554921 -37.19525971 48.18129410
v -34.26502121 -37.14791287 48.18129410
v -36.05754249 -36.56623432 48.18129410
v -36.49515383 -36.38361303 48.18129410
v -37.45835649 -35.73429725 48.18129410
f 1 2 3
f 1 3 4
f 1 4 5
f 1 5 6
f 1 6 13
f 1 13 11
f 1 11 10
f 1 10 18
f 1 18 32
f 1 32 39
f 1 39 38
f 1 38 37
f 1 37 36
f 1 36 35
f 1 35 33
f 1 33 19
f 1 19 14
f 1 14 7
f 1 7 15
f 1 15 28
f 1 28 17
f 1 17 8
f 1 8 2
f 2 8 3
f 3 8 9
f 3 9 16
f 3 16 29
f 3 29 31
f 3 31 18
f 3 18 10
f 3 10 5
f 3 5 4
f 5 10 11
f 5 11 12
f 5 12 6
f 6 12 13
f 7 14 15
f 8 16 9
f 8 17 30
f 8 30 29
f 8 29 16
f 11 13 12
f 14 19 20
f 14 20 21
f 14 21 22
f 14 22 23
f 14 23 15
f 15 23 22
f 15 22 24
f 15 24 25
f 15 25 26
f 15 26 27
f 15 27 28
f 17 28 27
f 17 27 30
f 18 31 32
f 19 33 34
f 19 34 31
f 19 31 20
f 20 31 21
f 21 31 29
f 21 29 30
f 21 30 27
f 21 27 26
f 21 26 25
f 21 25 24
f 21 24 22
f 31 34 33
f 31 33 35
f 31 35 36
f 31 36 37
f 31 37 38
f 31 38 39
f 31 39 32

