# https://github.com/mikedh/trimesh
v 51.54735176 25.06868920 14.87934529
v 53.59667244 23.79746236 14.87934529
v 51.54735176 28.05689237 6.10800108
v 51.54735176 13.15989662 14.87934529
v 54.77686095 23.04628620 14.87934529
v 51.54735176 28.09266304 5.28127473
v 57.13722751 21.48614465 14.87934529
v 63.68201066 17.14691994 14.87934529
v 64.62283080 16.50030117 14.87934529
v 51.54735176 -0.01736819 10.15786593
v 55.28502910 10.11941344 14.87934529
v 51.54735176 27.78723899 4.69031377
v 63.38376379 15.94723706 4.94779397
v 64.62283080 14.38159414 4.17070299
v 64.62283080 13.80101272 2.80885940
v 64.62283080 13.70745937 2.59325609
v 64.62283080 2.68467357 14.87934529
v 51.54735176 -0.01736819 -0.96491592
v 64.62283080 -0.01736819 13.04131794
v 64.18890100 3.00385496 14.87934529
v 64.15690352 3.02861897 14.87934529
v 60.52162335 5.92602144 14.87934529
v 51.54735176 27.58362295 4.48712454
v 64.62283080 13.64967669 2.48312925
v 64.62283080 12.83521124 1.27949512
v 64.62283080 12.65911120 1.05614120
v 64.62283080 11.78961507 0.03397624
v 64.62283080 -0.01736819 -0.96491592
v 51.54735176 15.22632496 -0.96491592
v 51.54735176 19.71688569 -0.27313671
v 64.62283080 11.15400296 -0.45616124
v 64.62283080 7.90990309 -0.96491592
v 51.54735176 16.98182657 -0.92458653
v 64.13769980 9.66540405 -0.94940421
v 64.62283080 9.18112797 -0.95405982
v 51.54735176 19.46924563 -0.38326355
v 64.62283080 10.79629890 -0.58334991
v 51.54735176 18.51720150 -0.63143516
v 64.62283080 9.66540405 -0.91838603
v 51.54735176 18.91617890 -0.53682003
f 1 2 3
f 1 3 6
f 1 6 12
f 1 12 23
f 1 23 30
f 1 30 36
f 1 36 40
f 1 40 38
f 1 38 33
f 1 33 29
f 1 29 18
f 1 18 10
f 1 10 4
f 1 4 11
f 1 11 22
f 1 22 21
f 1 21 20
f 1 20 17
f 1 17 9
f 1 9 8
f 1 8 7
f 1 7 5
f 1 5 2
f 2 5 3
f 3 5 7
f 3 7 8
f 3 8 9
f 3 9 6
f 4 10 11
f 6 9 13
f 6 13 14
f 6 14 15
f 6 15 16
f 6 16 12
f 9 14 13
f 9 17 19
f 9 19 28
f 9 28 32
f 9 32 35
f 9 35 39
f 9 39 37
f 9 37 31
f 9 31 27
f 9 27 26
f 9 26 25
f 9 25 24
f 9 24 16
f 9 16 15
f 9 15 14
f 10 18 28
f 10 28 19
f 10 19 17
f 10 17 20
f 10 20 21
f 10 21 22
f 10 22 11
f 12 16 24
f 12 24 25
f 12 25 26
f 12 26 27
f 12 27 23
f 18 29 32
f 18 32 28
f 23 27 31
f 23 31 30
f 29 33 34
f 29 34 35
f 29 35 32
f 30 31 36
f 31 37 36
f 33 38 39
f 33 39 34
f 34 39 35
f 36 37 39
f 36 39 40
f 38 40 39

