# https://github.com/mikedh/trimesh
v 30.95209861 -52.87864064 9.43577291
v 20.88122079 -52.71584626 11.37273583
v 20.88122079 -52.41336273 9.84012206
v 20.88122079 -52.32723662 9.61186116
v 20.88122079 -51.76533262 8.30751091
v 20.88122079 -51.57523303 7.95207443
v 20.88122079 -51.12466035 7.18739753
v 20.88122079 -50.77911376 6.87109381
v 20.88122079 -50.09957844 6.28739643
v 24.98588591 -47.54212627 5.15261186
v 27.23591091 -46.33639738 4.91619973
v 28.42599717 -46.04441907 5.04989262
v 30.95209861 -51.88086394 9.03794632
v 30.95209861 -52.87864064 16.21350662
v 20.88122079 -52.87864064 12.43578006
v 20.88122079 -48.28783510 6.08685184
v 21.96580832 -48.32249293 5.75261173
v 24.18033498 -47.54212627 5.15261186
v 25.53508257 -46.69559657 4.92598227
v 25.47986728 -45.13592110 4.90641720
v 27.23591091 -45.07395282 4.91619973
v 28.42599717 -45.31866808 5.04989262
v 30.95209861 -46.56641264 7.15968122
v 30.95209861 -48.30148771 7.65207319
v 30.95209861 -51.03433424 15.97546318
v 30.00061876 -52.87864064 16.89502935
v 20.88122079 -52.87864064 21.56134579
v 24.22963518 -45.40164157 5.03848142
v 24.00680233 -46.56641264 5.02869888
v 20.88122079 -42.14995409 9.78631812
v 30.95209861 -42.14995409 7.16620378
v 30.95209861 -50.07962060 15.83035383
v 28.59263019 -52.87864064 17.84557703
v 23.11152492 -52.87864064 20.71351734
v 23.72283649 -51.83675350 20.31079948
v 20.88122079 -52.85028281 21.55645452
v 20.88122079 -42.14995409 16.89666064
v 30.95209861 -42.14995409 13.69774020
v 30.95209861 -44.60447492 14.53415482
v 28.27316862 -50.58691418 17.63361860
v 28.44768842 -51.83675350 17.75101165
v 27.23591091 -51.83675350 18.44068563
v 27.15801721 -52.87864064 18.65916399
v 23.72283649 -52.87864064 20.45427754
v 21.96580832 -50.07962060 20.42656123
v 22.03876886 -51.68131174 20.89775683
v 25.37831063 -52.87864064 19.63416802
v 25.13871445 -51.83675350 19.60808038
v 24.88432926 -50.64992983 19.43525210
v 23.76030392 -50.07016799 19.72710210
v 20.88122079 -51.68131174 21.28906348
v 20.88122079 -42.74756592 17.23416072
v 24.75319458 -42.14995409 15.99991952
v 30.63263704 -42.14995409 13.83795828
v 28.47628191 -45.20418937 15.99991952
v 30.95209861 -42.90616030 13.97002251
v 30.95209861 -43.42815386 14.15752459
v 27.34141094 -50.03235755 18.00209760
v 20.88122079 -49.97564188 20.74286495
v 21.06757206 -50.99127119 21.03634362
v 22.70529834 -47.51797367 19.25916647
v 20.88122079 -51.17612340 21.15047407
v 27.12548033 -46.62627568 17.08416011
v 26.46585309 -47.25224796 17.58959720
v 20.88122079 -43.59409823 17.69231382
v 25.05687737 -42.14995409 15.92655050
v 28.95645881 -42.14995409 14.54067738
v 27.33648040 -44.69480103 16.29666078
v 20.88122079 -49.40323789 20.51949531
v 20.88122079 -50.70559288 20.99721348
v 22.05750388 -46.62417568 18.96894777
v 20.88122079 -46.26287649 19.06351315
v 20.88122079 -46.82268050 19.33742675
v 20.88122079 -47.77634153 19.80047112
v 20.88122079 -48.27522988 20.03036331
v 25.90285457 -46.08012952 17.40046644
v 27.28718281 -42.14995409 15.19285250
v 26.32485732 -42.14995409 15.54828898
v 26.12765912 -42.33585368 15.69991828
v 26.01230061 -42.14995409 15.64285436
v 28.16865574 -42.14995409 14.85861239
f 1 2 3
f 1 3 4
f 1 4 5
f 1 5 6
f 1 6 7
f 1 7 8
f 1 8 9
f 1 9 10
f 1 10 11
f 1 11 12
f 1 12 13
f 1 13 24
f 1 24 23
f 1 23 31
f 1 31 38
f 1 38 56
f 1 56 57
f 1 57 39
f 1 39 32
f 1 32 25
f 1 25 14
f 1 14 26
f 1 26 33
f 1 33 43
f 1 43 47
f 1 47 44
f 1 44 34
f 1 34 27
f 1 27 15
f 1 15 2
f 2 15 27
f 2 27 36
f 2 36 51
f 2 51 62
f 2 62 70
f 2 70 59
f 2 59 69
f 2 69 75
f 2 75 74
f 2 74 73
f 2 73 72
f 2 72 65
f 2 65 52
f 2 52 37
f 2 37 30
f 2 30 16
f 2 16 9
f 2 9 8
f 2 8 7
f 2 7 6
f 2 6 5
f 2 5 4
f 2 4 3
f 9 16 17
f 9 17 18
f 9 18 10
f 10 18 19
f 10 19 11
f 11 19 20
f 11 20 21
f 11 21 22
f 11 22 12
f 12 22 23
f 12 23 24
f 12 24 13
f 14 25 26
f 16 28 29
f 16 29 17
f 16 30 28
f 17 29 18
f 18 29 19
f 19 29 20
f 20 31 21
f 20 29 28
f 20 28 30
f 20 30 31
f 21 31 22
f 22 31 23
f 25 32 33
f 25 33 26
f 27 34 35
f 27 35 36
f 30 37 53
f 30 53 66
f 30 66 80
f 30 80 78
f 30 78 77
f 30 77 81
f 30 81 67
f 30 67 54
f 30 54 38
f 30 38 31
f 32 39 40
f 32 40 41
f 32 41 33
f 33 41 42
f 33 42 43
f 34 44 35
f 35 45 46
f 35 46 36
f 35 44 47
f 35 47 48
f 35 48 49
f 35 49 50
f 35 50 45
f 36 46 51
f 37 52 53
f 38 54 55
f 38 55 56
f 39 57 55
f 39 55 58
f 39 58 40
f 40 58 48
f 40 48 42
f 40 42 41
f 42 48 43
f 43 48 47
f 45 59 60
f 45 60 46
f 45 50 61
f 45 61 59
f 46 60 62
f 46 62 51
f 48 58 49
f 49 58 55
f 49 55 63
f 49 63 64
f 49 64 50
f 50 64 61
f 52 65 53
f 53 65 66
f 54 67 68
f 54 68 55
f 55 57 56
f 55 68 64
f 55 64 63
f 59 70 60
f 59 61 69
f 60 70 62
f 61 71 72
f 61 72 73
f 61 73 74
f 61 74 75
f 61 75 69
f 61 64 76
f 61 76 68
f 61 68 77
f 61 77 78
f 61 78 79
f 61 79 66
f 61 66 71
f 64 68 76
f 65 72 71
f 65 71 66
f 66 79 80
f 67 81 68
f 68 81 77
f 78 80 79

