# https://github.com/mikedh/trimesh
v 64.62410861 -23.05252073 6.10564971
v 64.62410861 -22.89836463 5.03057108
v 66.34712309 -22.79559564 6.10564971
v 64.62410861 11.85652174 6.10564971
v 64.62410861 -22.65978965 4.12855639
v 67.65284541 -22.25237691 4.35008002
v 74.23305098 -21.22833845 4.85612198
v 72.92508727 -21.58436669 6.10564971
v 64.62410861 12.22356058 6.00388620
v 86.87521818 -8.05165231 6.10564971
v 64.62410861 -21.89634866 2.55020874
v 69.41175363 -21.39717621 2.94202337
v 71.16842045 -21.23935034 3.17739599
v 69.41175363 -21.94773446 4.35008002
v 72.25652325 -21.13290898 3.37883871
v 72.87572946 -21.32743898 4.30231422
v 73.42763098 -20.99343453 3.68482049
v 74.76476424 -20.89066293 4.30231422
v 76.43842091 -20.45021711 4.35008002
v 78.19508773 -20.18227881 6.10564971
v 74.36990698 -21.27238342 6.10564971
v 64.62410861 13.17786051 5.73113519
v 87.54378220 -9.82811987 6.10564971
v 86.29639374 -10.20616929 3.07701503
v 84.51055737 -8.63157389 1.44051418
v 82.66639761 -6.91016255 -0.12814257
v 81.11837425 -4.94650615 -0.30189778
v 72.17126647 5.41866436 -0.17798742
v 70.49312701 7.24284665 -0.23682926
v 70.67484755 7.44471749 0.83617555
v 69.84026323 8.32561043 0.83617555
v 64.96512527 14.01470848 3.95687761
v 64.62410861 14.44414371 4.80973873
v 65.02569530 14.06609428 5.12887037
v 65.02569530 14.06609428 5.23686317
v 64.62410861 14.34871424 5.37531642
v 64.62410861 13.66602237 5.58783781
v 64.62410861 -21.23567928 1.53535450
v 65.57984345 -21.18062371 1.60873399
v 66.75095117 -21.08152317 1.72157355
v 71.16842045 -20.69246185 2.29960721
v 72.87572946 -20.61171404 2.71288791
v 76.43842091 -19.79688855 2.73711906
v 77.76881952 -19.55097274 3.06247738
v 78.28931533 -19.75284358 4.28293244
v 79.48959260 -19.48123552 4.82427637
v 79.79022227 -19.62070996 6.10564971
v 87.04347989 -11.42106800 6.10564971
v 86.55663641 -11.52750806 4.30300549
v 86.29639374 -11.01732502 3.07701503
v 84.82240449 -9.66295187 1.16569198
v 82.95132180 -7.90483704 -0.33720499
v 79.98764829 -4.37392573 -0.55803472
v 79.42452932 -3.09663129 -0.33443466
v 81.70617474 -6.25316358 -0.43411912
v 69.37137187 7.85947106 -0.46665600
v 68.75889508 9.00830230 -0.24790531
v 71.11457461 6.06098167 -0.42512212
v 68.96080913 9.20650338 0.83617555
v 66.93267695 10.65997576 -0.17590837
v 64.62410861 14.38174732 4.17009289
v 64.62410861 -20.68512233 0.95316797
v 72.92508727 -19.68310636 1.34844419
v 74.36093092 -19.52527918 1.49174156
v 74.84103974 -19.98407773 2.42767568
v 76.43842091 -19.22063805 1.85933552
v 78.28931533 -18.99307366 2.52390378
v 79.50529284 -17.79652768 1.43636132
v 80.03476471 -18.21495232 2.48582626
v 81.25523024 -17.90296904 2.99879140
v 80.02578865 -19.09951502 4.28293244
v 80.66967638 -19.26835278 6.10564971
v 83.83077591 -16.64402667 6.10564971
v 86.20665417 -12.38270745 4.85681325
v 86.02941642 -12.18817744 3.68551176
v 85.65474741 -11.52750806 2.53290078
v 84.71920607 -11.42106800 1.35536738
v 84.08653579 -9.66295187 0.28721193
v 83.20708168 -9.66295187 -0.47842332
v 81.70841614 -7.90483704 -0.79963402
v 79.95175455 -6.14672222 -0.92977631
v 71.16842045 4.39095614 -0.83701503
v 69.41175363 6.14907097 -0.88131923
v 67.65284541 7.90718579 -0.88893369
v 67.57207665 9.62125695 -0.42996625
v 65.89617859 10.94993655 -0.37320347
v 64.62410861 12.65666557 1.05492623
v 64.62410861 12.83284416 1.27852630
v 64.62410861 13.64399988 2.48167339
v 64.62410861 13.70639628 2.59312517
v 64.62410861 13.79815598 2.80703695
v 64.62410861 -19.50692777 -0.19667793
v 65.38914686 -19.43719054 -0.14960340
v 75.63973032 -17.59465684 -0.06376008
v 78.19508773 -18.07914763 1.18161215
v 80.67640580 -17.44417050 1.82818119
v 78.19508773 -17.16155054 0.30244085
v 79.26523843 -16.02740226 -0.18283155
v 81.78694350 -18.20761149 4.31200511
v 82.42634320 -17.07713166 3.70143456
v 82.77632544 -17.77450519 4.87273605
v 81.70841614 -18.78019092 6.10564971
v 83.01413846 -17.96169568 6.10564971
v 84.37145998 -12.31664130 1.69249826
v 81.10940343 -16.27331807 1.42044114
v 83.00740904 -10.91455406 -0.31574416
v 81.70841614 -9.66295187 -0.92908503
v 78.19508773 -4.39227781 -0.95400745
v 79.95175455 -7.90483704 -0.96577477
v 65.89617859 7.90718579 -0.96577477
v 64.62410861 9.17714006 -0.95400745
v 64.62410861 9.66163086 -0.91800898
v 65.89617859 9.66163086 -0.83493598
v 76.43842091 -2.63783323 -0.96162191
v 74.68175409 -0.87971824 -0.96577477
v 72.92508727 0.87839658 -0.96577477
v 64.62410861 10.79578044 -0.58364842
v 64.62410861 11.14813762 -0.45627122
v 64.62410861 11.78678452 0.03315405
v 64.62410861 -18.48289062 -0.63141421
v 69.41175363 -18.08648846 -0.41404607
v 71.16842045 -17.93967319 -0.33028180
v 76.30829434 -16.76147863 -0.40574034
v 78.19508773 -16.28065890 -0.35451296
v 78.19508773 -14.93362658 -0.74632759
v 76.43842091 -13.17551176 -0.96577477
v 79.95175455 -9.66295187 -0.95539000
v 76.43842091 -14.93362658 -0.94154887
v 64.62410861 7.90718579 -0.96577477
v 64.62410861 -16.69174141 -0.96577477
v 65.89617859 -16.69174141 -0.96577477
v 67.65284541 -16.69174141 -0.93392916
v 69.41175363 -16.69174141 -0.87578383
v 71.16842045 -16.69174141 -0.79201956
v 74.68175409 -16.69174141 -0.56634045
v 74.68175409 -14.93362658 -0.96577477
f 1 2 3
f 1 3 8
f 1 8 21
f 1 21 20
f 1 20 47
f 1 47 72
f 1 72 102
f 1 102 103
f 1 103 73
f 1 73 48
f 1 48 23
f 1 23 10
f 1 10 4
f 1 4 9
f 1 9 22
f 1 22 37
f 1 37 36
f 1 36 33
f 1 33 61
f 1 61 91
f 1 91 90
f 1 90 89
f 1 89 88
f 1 88 87
f 1 87 119
f 1 119 118
f 1 118 117
f 1 117 112
f 1 112 111
f 1 111 129
f 1 129 130
f 1 130 120
f 1 120 92
f 1 92 62
f 1 62 38
f 1 38 11
f 1 11 5
f 1 5 2
f 2 5 6
f 2 6 7
f 2 7 3
f 3 7 8
f 4 10 9
f 5 11 12
f 5 12 13
f 5 13 6
f 6 14 7
f 6 13 15
f 6 15 14
f 7 16 17
f 7 17 18
f 7 18 19
f 7 19 20
f 7 20 21
f 7 21 8
f 7 14 16
f 9 10 22
f 10 23 24
f 10 24 25
f 10 25 26
f 10 26 27
f 10 27 28
f 10 28 29
f 10 29 30
f 10 30 31
f 10 31 32
f 10 32 33
f 10 33 34
f 10 34 35
f 10 35 36
f 10 36 37
f 10 37 22
f 11 38 39
f 11 39 40
f 11 40 12
f 12 40 41
f 12 41 13
f 13 41 42
f 13 42 15
f 14 15 16
f 15 17 16
f 15 42 43
f 15 43 17
f 17 43 18
f 18 43 19
f 19 43 44
f 19 44 45
f 19 45 46
f 19 46 20
f 20 46 47
f 23 48 49
f 23 49 50
f 23 50 24
f 24 50 51
f 24 51 25
f 25 51 26
f 26 51 52
f 26 52 27
f 27 53 54
f 27 54 29
f 27 29 28
f 27 52 55
f 27 55 53
f 29 56 57
f 29 57 31
f 29 31 30
f 29 54 58
f 29 58 56
f 31 57 59
f 31 59 32
f 32 59 57
f 32 57 60
f 32 60 61
f 32 61 33
f 33 36 35
f 33 35 34
f 38 62 39
f 39 62 63
f 39 63 40
f 40 63 64
f 40 64 41
f 41 64 42
f 42 64 65
f 42 65 43
f 43 65 64
f 43 64 66
f 43 66 44
f 44 66 67
f 44 67 68
f 44 68 69
f 44 69 70
f 44 70 71
f 44 71 46
f 44 46 45
f 46 71 72
f 46 72 47
f 48 73 74
f 48 74 49
f 49 74 75
f 49 75 50
f 50 75 76
f 50 76 77
f 50 77 78
f 50 78 51
f 51 78 52
f 52 78 79
f 52 79 80
f 52 80 55
f 53 55 80
f 53 80 81
f 53 81 82
f 53 82 56
f 53 56 58
f 53 58 54
f 56 82 83
f 56 83 84
f 56 84 85
f 56 85 57
f 57 85 60
f 60 85 86
f 60 86 87
f 60 87 88
f 60 88 89
f 60 89 90
f 60 90 91
f 60 91 61
f 62 92 93
f 62 93 63
f 63 93 94
f 63 94 64
f 64 94 95
f 64 95 66
f 66 95 68
f 66 68 67
f 68 96 69
f 68 95 97
f 68 97 98
f 68 98 96
f 69 96 70
f 70 99 71
f 70 96 100
f 70 100 101
f 70 101 99
f 71 99 102
f 71 102 72
f 73 103 74
f 74 103 75
f 75 103 101
f 75 101 100
f 75 100 76
f 76 100 96
f 76 96 104
f 76 104 77
f 77 104 96
f 77 96 105
f 77 105 106
f 77 106 78
f 78 106 79
f 79 106 107
f 79 107 80
f 80 107 81
f 81 108 83
f 81 83 82
f 81 107 109
f 81 109 108
f 83 108 84
f 84 110 111
f 84 111 112
f 84 112 113
f 84 113 85
f 84 108 114
f 84 114 115
f 84 115 116
f 84 116 110
f 85 113 86
f 86 113 117
f 86 117 118
f 86 118 119
f 86 119 87
f 92 120 121
f 92 121 122
f 92 122 94
f 92 94 93
f 94 122 123
f 94 123 124
f 94 124 97
f 94 97 95
f 96 98 105
f 97 124 98
f 98 124 125
f 98 125 106
f 98 106 105
f 99 101 102
f 101 103 102
f 106 125 107
f 107 126 127
f 107 127 109
f 107 125 128
f 107 128 126
f 108 109 114
f 109 127 126
f 109 126 136
f 109 136 131
f 109 131 130
f 109 130 129
f 109 129 110
f 109 110 116
f 109 116 115
f 109 115 114
f 110 129 111
f 112 117 113
f 120 130 131
f 120 131 132
f 120 132 133
f 120 133 134
f 120 134 135
f 120 135 121
f 121 135 123
f 121 123 122
f 123 135 128
f 123 128 124
f 124 128 125
f 126 128 136
f 128 135 134
f 128 134 133
f 128 133 132
f 128 132 131
f 128 131 136

