# https://github.com/mikedh/trimesh
v -30.18039903 -50.30518449 40.19170891
v -30.18039903 -50.32040817 40.60758644
v -29.81154037 -50.45541030 40.19170891
v -30.18039903 -56.32947708 40.19170891
v -30.18039903 -50.34882884 40.83475479
v -15.97850399 -56.28481153 40.19170891
v -30.18039903 -56.75477646 43.00901065
v -29.63284937 -56.60658257 40.19170891
v -26.81640354 -58.23471484 41.25217134
v -30.18039903 -50.40161159 41.25217134
v -15.93588083 -56.30308308 40.19170891
v -25.47867588 -58.83460735 41.25217134
v -28.99349157 -57.25925782 43.00901065
v -30.18039903 -56.53349635 44.28125771
v -26.60492429 -58.13320795 40.19170891
v -30.18039903 -50.61781714 42.22648377
v -30.18039903 -50.72034000 42.59415856
v -15.94735751 -56.30917360 40.22196381
v -15.88178100 -56.34368480 40.19170891
v -22.91305414 -59.76743073 40.54861499
v -23.58847850 -59.47103772 41.18140507
v -26.75902541 -58.19004929 42.52236715
v -26.40328257 -58.22354976 40.19170891
v -22.91305414 -59.76743073 40.30503681
v -30.18039903 -55.39766441 44.99507004
v -25.47867588 -58.44482987 42.75261253
v -28.99349157 -56.73244631 44.45407028
v -30.18039903 -51.05428684 43.39617196
v -15.27193446 -57.48053793 40.76655330
v -13.99158362 -58.03069033 40.19170891
v -30.08531519 -51.15071918 43.47770629
v -30.18039903 -51.24308768 43.67410718
v -30.18039903 -51.99624863 44.59714051
v -21.96385758 -59.84051696 40.87013794
v -21.96385758 -59.62329545 41.74855776
v -16.69491104 -60.54596972 40.19170891
v -23.02617125 -59.68115275 40.19170891
v -22.60649368 -59.79077685 40.19170891
v -30.18039903 -53.59291234 45.43043393
v -28.99349157 -55.35300410 45.11916681
v -23.72126542 -58.66915262 42.71056347
v -27.23608372 -56.83293724 44.33766570
v -14.78668039 -58.75441465 40.89167536
v -14.09978328 -58.09463815 40.33529170
v -13.74239868 -58.36057857 40.19170891
v -15.00799584 -60.67488133 40.19170891
v -16.69491104 -60.19882587 40.87885542
v -14.93750189 -60.24653406 40.72655515
v -27.23608372 -55.35300410 44.66482945
v -16.69491104 -58.86607066 41.53831181
v -21.96385758 -58.74528149 42.49159938
v -13.82108838 -60.04555219 40.49118188
v -13.82108838 -59.26599725 40.49118188
v -13.46534555 -58.96656160 40.19170891
v -13.43255730 -60.41705811 40.19170891
f 1 2 3
f 1 3 6
f 1 6 11
f 1 11 19
f 1 19 30
f 1 30 45
f 1 45 54
f 1 54 55
f 1 55 46
f 1 46 36
f 1 36 38
f 1 38 37
f 1 37 23
f 1 23 15
f 1 15 8
f 1 8 4
f 1 4 7
f 1 7 14
f 1 14 25
f 1 25 39
f 1 39 33
f 1 33 32
f 1 32 28
f 1 28 17
f 1 17 16
f 1 16 10
f 1 10 5
f 1 5 2
f 2 5 6
f 2 6 3
f 4 8 9
f 4 9 7
f 5 10 6
f 6 10 11
f 7 12 13
f 7 13 14
f 7 9 12
f 8 15 9
f 9 15 12
f 10 16 11
f 11 16 17
f 11 17 18
f 11 18 19
f 12 20 21
f 12 21 22
f 12 22 13
f 12 15 23
f 12 23 24
f 12 24 20
f 13 22 14
f 14 22 26
f 14 26 27
f 14 27 25
f 17 28 18
f 18 29 30
f 18 30 19
f 18 28 31
f 18 31 32
f 18 32 33
f 18 33 29
f 20 34 35
f 20 35 21
f 20 24 36
f 20 36 34
f 21 35 26
f 21 26 22
f 23 37 24
f 24 37 38
f 24 38 36
f 25 27 40
f 25 40 39
f 26 35 27
f 27 35 41
f 27 41 42
f 27 42 40
f 28 32 31
f 29 43 44
f 29 44 30
f 29 33 39
f 29 39 43
f 30 44 45
f 34 36 35
f 35 36 46
f 35 46 47
f 35 47 48
f 35 48 41
f 39 40 49
f 39 49 43
f 40 42 50
f 40 50 49
f 41 48 51
f 41 51 42
f 42 51 48
f 42 48 50
f 43 52 53
f 43 53 44
f 43 49 50
f 43 50 52
f 44 53 54
f 44 54 45
f 46 55 48
f 46 48 47
f 48 55 52
f 48 52 50
f 52 55 53
f 53 55 54

