# https://github.com/mikedh/trimesh
v -42.40475038 1.16034949 85.81588613
v -42.40475038 3.38192599 84.15405702
v -48.57738872 5.88322678 84.16414591
v -48.57738872 4.96702925 84.55185742
v -48.57738872 4.37514921 84.74211150
v -48.35380961 -7.88000757 85.81588613
v -42.40475038 -11.50831219 85.81588613
v -42.40475038 11.36825121 77.94633928
v -48.32299043 7.33860212 82.88426247
v -48.57738872 7.24941504 82.95921303
v -45.42671586 10.86150424 79.28963900
v -46.56576850 11.03987905 79.50007086
v -48.57738872 -8.29351214 85.81588613
v -48.57618423 -8.26108066 85.81588613
v -42.45550906 -11.57317647 85.81588613
v -42.40475038 -11.56506713 85.60113121
v -42.40475038 12.56011802 76.88265353
v -45.14754179 12.68579061 77.64078168
v -46.56576850 11.91958977 78.64969728
v -48.32299043 9.13045765 81.09992385
v -48.57738872 7.32644072 82.87993941
v -44.80914881 14.47359343 75.91697643
v -44.80914881 15.35330415 75.10551828
v -48.57738872 -16.37713183 85.81588613
v -42.59328413 -11.74749727 85.81588613
v -42.52076873 -11.82046828 85.18171025
v -42.40475038 -11.65020085 85.18171025
v -42.40475038 13.20875300 76.30180503
v -43.63021454 16.13572106 74.05480434
v -46.56576850 12.77903367 77.77193993
v -44.80914881 16.24517757 74.22776092
v -48.32299043 10.01016968 80.18613399
v -48.57738872 8.04399334 82.14054889
v -43.35889582 17.86676633 72.33676492
v -48.57738872 -16.94874243 84.92083391
v -48.50729801 -16.35686239 85.81588613
v -43.47189510 -12.82585289 85.81588613
v -43.39938232 -12.90693194 85.18171025
v -45.19165222 -16.45415620 79.90940293
v -45.58503269 -17.71494327 76.06543216
v -42.40475038 -11.73938793 83.63374449
v -42.40475038 17.83433419 71.81933530
v -42.63981140 18.74242368 71.09147384
v -47.75014130 12.55200868 77.57159957
v -48.32299043 10.80474799 79.30837664
v -46.56576850 13.65874438 76.78608504
v -44.80914881 17.12083493 73.21163935
v -48.57738872 9.73044573 80.37206238
v -42.94073957 18.78701853 71.09147384
v -44.80914881 17.84649690 72.33388200
v -46.44672845 -15.32715367 85.81588613
v -47.70059496 -15.98389800 85.81588613
v -48.57738872 -17.48386753 83.93209611
v -43.97283631 -13.38935546 85.81588613
v -45.35722216 -16.21497374 81.66779793
v -47.67823338 -20.81217615 74.63997591
v -47.03347633 -19.93651879 74.63997591
v -48.57738872 -22.62835514 71.12462344
v -48.17010952 -21.96350409 71.12462344
v -45.58866186 -17.72305000 74.63997591
v -42.40475038 -11.74749727 83.42475540
v -42.40475038 18.53972673 71.09147384
v -48.57738872 10.72772231 79.22910301
v -46.56576850 14.40872915 75.90832769
v -47.54227290 14.15332800 75.64889412
v -46.05818166 16.06680341 74.08939670
v -44.74509625 18.67350604 71.09147384
v -45.77960982 17.64379732 72.11047833
v -44.79404035 18.65729259 71.09147384
v -45.99715079 -15.07580589 85.81588613
v -46.95310558 -16.12984002 84.83147140
v -48.57738872 -18.78519086 81.41412757
v -45.17654900 -14.50014192 85.81588613
v -45.51856591 -15.99200472 82.98371388
v -48.57738872 -22.31214568 72.90896467
v -48.57738872 -22.62430177 71.09147384
v -48.17252897 -21.96350409 71.09147384
v -47.56523672 -20.78379999 71.12462344
v -45.65815033 -17.63386292 73.68006464
v -42.40475038 -11.22453488 80.25963916
v -42.40475038 -11.50425883 81.66779793
v -42.40475038 -11.56506713 81.98488717
v -42.40475038 6.25619182 71.09147384
v -48.57738872 11.32770973 78.40467567
v -47.22925796 15.63708146 73.37883011
v -47.78156272 14.43710793 74.63997591
v -48.57738872 14.66818367 72.59187542
v -48.57738872 14.00738598 73.77375022
v -48.57738872 13.48037022 74.71492385
v -48.57738872 12.51552317 76.43728895
v -45.99835527 17.91541454 71.09147384
v -46.01104429 17.89109175 71.12462344
v -48.57738872 15.37357358 71.22551500
v -47.53381530 15.90869869 72.20704682
v -45.78202927 -15.74471292 84.15549978
v -48.57738872 -20.41894232 77.88292038
v -48.57738872 -21.75675115 74.61114937
v -47.27880954 -19.48652741 77.63357571
v -48.57738872 15.43438450 71.09147384
v -47.56765093 -20.77163728 71.09147384
v -47.20569189 -19.91219600 71.09147384
v -46.72106887 -18.44871197 71.12462344
v -45.52642126 -16.69334128 73.29091036
v -44.68104369 -14.93391723 74.63997591
v -42.40475038 -9.86645334 78.05299667
v -42.81867521 -11.41912511 78.15388823
v -42.40475038 -11.15967059 80.08812534
v -42.40475038 5.72512139 71.09867982
v -42.42166819 5.70485196 71.09147384
v -48.57738872 15.21546886 71.53251536
v -46.02071685 17.89514511 71.09147384
v -46.03823953 17.87892904 71.09147384
v -48.57738872 -21.05136123 76.39693338
v -46.73194591 -18.44871197 71.09147384
v -45.70044880 -15.72849685 72.04417913
v -43.86527556 -12.55423698 75.35342542
v -42.40475038 -9.68402451 77.89301189
v -42.40475038 -10.94075626 79.73788649
v -42.40475038 -7.90433103 76.85815006
v -42.57817567 -7.90433103 76.39693338
v -45.94820145 -15.05959243 71.18804234
v -45.99533358 -15.05148309 71.09147384
v -46.30170289 -16.68928792 71.09147384
v -46.28780415 -16.69334128 71.12462344
v -42.88152067 -9.66375508 76.39693338
f 1 2 3
f 1 3 4
f 1 4 5
f 1 5 6
f 1 6 14
f 1 14 13
f 1 13 24
f 1 24 36
f 1 36 52
f 1 52 51
f 1 51 70
f 1 70 73
f 1 73 54
f 1 54 37
f 1 37 25
f 1 25 15
f 1 15 7
f 1 7 16
f 1 16 27
f 1 27 41
f 1 41 61
f 1 61 82
f 1 82 81
f 1 81 80
f 1 80 107
f 1 107 118
f 1 118 105
f 1 105 117
f 1 117 119
f 1 119 108
f 1 108 83
f 1 83 62
f 1 62 42
f 1 42 28
f 1 28 17
f 1 17 8
f 1 8 2
f 2 8 3
f 3 9 10
f 3 10 21
f 3 21 33
f 3 33 48
f 3 48 63
f 3 63 84
f 3 84 90
f 3 90 89
f 3 89 88
f 3 88 87
f 3 87 110
f 3 110 93
f 3 93 99
f 3 99 76
f 3 76 58
f 3 58 75
f 3 75 97
f 3 97 113
f 3 113 96
f 3 96 72
f 3 72 53
f 3 53 35
f 3 35 24
f 3 24 13
f 3 13 5
f 3 5 4
f 3 8 11
f 3 11 12
f 3 12 9
f 5 13 14
f 5 14 6
f 7 15 16
f 8 17 18
f 8 18 12
f 8 12 11
f 9 12 10
f 10 12 19
f 10 19 20
f 10 20 21
f 12 18 22
f 12 22 23
f 12 23 19
f 15 25 16
f 16 25 26
f 16 26 27
f 17 28 18
f 18 28 29
f 18 29 22
f 19 30 20
f 19 23 31
f 19 31 30
f 20 30 32
f 20 32 33
f 20 33 21
f 22 29 23
f 23 29 34
f 23 34 31
f 24 35 36
f 25 37 38
f 25 38 26
f 26 38 39
f 26 39 40
f 26 40 27
f 27 40 41
f 28 42 43
f 28 43 34
f 28 34 29
f 30 44 45
f 30 45 32
f 30 31 46
f 30 46 44
f 31 34 47
f 31 47 46
f 32 45 48
f 32 48 33
f 34 43 49
f 34 49 50
f 34 50 47
f 35 51 52
f 35 52 36
f 35 53 51
f 37 54 55
f 37 55 38
f 38 55 39
f 39 55 56
f 39 56 40
f 40 56 57
f 40 57 58
f 40 58 59
f 40 59 60
f 40 60 61
f 40 61 41
f 42 62 43
f 43 62 83
f 43 83 109
f 43 109 122
f 43 122 123
f 43 123 114
f 43 114 101
f 43 101 100
f 43 100 77
f 43 77 76
f 43 76 99
f 43 99 112
f 43 112 111
f 43 111 91
f 43 91 69
f 43 69 67
f 43 67 49
f 44 63 45
f 44 46 64
f 44 64 65
f 44 65 63
f 45 63 48
f 46 47 64
f 47 50 66
f 47 66 64
f 49 67 50
f 50 68 66
f 50 67 69
f 50 69 68
f 51 53 71
f 51 71 70
f 53 72 71
f 54 73 74
f 54 74 55
f 55 74 75
f 55 75 56
f 56 75 58
f 56 58 57
f 58 76 77
f 58 77 59
f 59 77 60
f 60 77 78
f 60 78 79
f 60 79 80
f 60 80 81
f 60 81 82
f 60 82 61
f 63 65 84
f 64 66 65
f 65 66 68
f 65 68 85
f 65 85 86
f 65 86 87
f 65 87 88
f 65 88 89
f 65 89 90
f 65 90 84
f 68 69 91
f 68 91 92
f 68 92 93
f 68 93 94
f 68 94 85
f 70 71 72
f 70 72 95
f 70 95 73
f 72 96 95
f 73 95 74
f 74 95 97
f 74 97 98
f 74 98 75
f 75 98 97
f 77 100 78
f 78 100 101
f 78 101 79
f 79 101 102
f 79 102 103
f 79 103 104
f 79 104 105
f 79 105 106
f 79 106 107
f 79 107 80
f 83 108 109
f 85 94 93
f 85 93 86
f 86 93 110
f 86 110 87
f 91 111 92
f 92 111 112
f 92 112 99
f 92 99 93
f 95 96 113
f 95 113 97
f 101 114 102
f 102 114 103
f 103 115 116
f 103 116 104
f 103 114 115
f 104 116 105
f 105 118 106
f 105 116 117
f 106 118 107
f 108 119 120
f 108 120 115
f 108 115 121
f 108 121 122
f 108 122 109
f 114 123 124
f 114 124 115
f 115 124 121
f 115 120 125
f 115 125 116
f 116 125 117
f 117 125 119
f 119 125 120
f 121 124 123
f 121 123 122

