# https://github.com/mikedh/trimesh
v -33.06315191 41.66137196 30.35815445
v -41.32158859 41.66137196 30.35815445
v -21.62320226 39.54607677 30.35815445
v -21.62320226 39.58192861 30.28149928
v -21.62320226 40.11075634 29.11326399
v -21.62320226 40.41550221 28.10447409
v -29.00624081 41.66137196 27.60774465
v -41.32158859 41.66137196 -0.96646604
v -41.32158859 -49.90576588 30.35815445
v -21.62320226 -49.90576588 30.35815445
v -21.62320226 40.63061325 27.12634625
v -27.68157399 41.66137196 26.63881543
v -21.62320226 41.66137196 -0.96646604
v -41.32158859 -23.71555720 -0.96646604
v -41.32158859 -49.90576588 15.44400391
v -21.62320226 -49.90576588 1.69502245
v -21.62320226 40.90847286 25.50430974
v -26.81388982 41.66137196 25.57176629
v -21.62320226 41.66137196 17.05377558
v -21.62320226 -43.04898898 -0.96646604
v -37.77950435 -43.04898898 -0.96646604
v -37.77950435 -44.80576054 -0.96033363
v -39.31819816 -44.80576054 -0.49733378
v -41.32158859 -25.47232876 -0.82542053
v -41.14419635 -49.90576588 6.11652937
v -41.32158859 -43.54195963 7.58831913
v -21.69454459 -49.90576588 1.66436038
v -21.62320226 -49.58309409 1.36999928
v -21.62320226 -44.80576054 -0.96339722
v -21.96642104 -44.80576054 -0.96646604
v -36.02099414 -46.56252686 -0.96646604
v -37.77950435 -46.56252686 -0.82542053
v -39.03668319 -46.56252686 -0.36242067
v -40.19745327 -44.80576054 0.55131943
v -41.32158859 -29.02171848 -0.39614633
v -41.32158859 -27.22910031 -0.62305088
v -40.84532628 -49.90576588 4.26452473
v -41.32158859 -42.66357385 6.53046992
v -41.32158859 -42.65461351 6.52127130
v -41.32158859 -40.79924677 4.87470513
v -41.32158859 -40.78132085 4.85937409
v -41.32158859 -39.68782403 3.93950419
v -41.32158859 -38.83632451 3.24653882
v -41.32158859 -38.08342541 2.86325511
v -41.32158859 -32.48147860 0.64637447
v -21.96642104 -49.90576588 1.55397693
v -21.96642104 -49.64583743 1.30561156
v -21.62320226 -48.83019499 0.72302702
v -21.62320226 -46.58045278 -0.65984536
v -21.96642104 -46.56252686 -0.71810068
v -23.72300145 -46.56252686 -0.88980825
v -25.48150905 -46.56252686 -0.94806880
v -27.23809208 -46.56252686 -0.96646604
v -34.26441373 -48.31929842 -0.87447984
v -36.02099414 -48.31929842 -0.77636123
v -37.73515563 -48.28344134 -0.36242067
v -38.78216446 -47.68291517 -0.16924703
v -39.97571231 -46.58045278 0.91006826
v -40.48860938 -46.01577845 1.54477569
v -41.32158859 -29.35335585 -0.33175337
v -40.72385107 -49.90576588 3.89657729
v -41.32158859 -30.74263820 0.04845628
v -23.55524773 -49.90576588 1.05111377
v -23.72300145 -48.96464200 0.14657490
v -21.96642104 -48.62404429 0.42867116
v -23.72300145 -49.90576588 0.99898564
v -21.62320226 -47.67395483 -0.20297268
v -21.96642104 -47.74565851 -0.25510082
v -23.72300145 -48.08625622 -0.42680840
v -28.99467249 -48.31929842 -0.82542053
v -30.75125290 -48.31929842 -0.86221501
v -34.26441373 -49.76235853 -0.41147998
v -36.02099414 -49.61894593 -0.31642495
v -37.12006302 -49.40383489 -0.14471737
v -38.29240403 -48.84812091 0.17110455
v -39.04825151 -49.90576588 1.32400880
v -39.27963623 -48.28344134 0.79048357
v -40.22059253 -48.31929842 2.09056575
v -40.51946260 -49.52931633 3.21280793
v -40.45968858 -49.90576588 3.33851979
v -25.01103090 -49.14390120 -0.00367186
v -25.33303760 -49.90576588 0.62797199
v -28.99467249 -49.60998559 -0.36242067
v -30.75125290 -49.69961519 -0.39921516
v -34.26441373 -49.90576588 -0.31948854
v -36.02099414 -49.90576588 -0.13245254
v -36.62066145 -49.90576588 0.03926028
v -37.61560761 -49.90576588 0.39494027
v -37.79300247 -49.90576588 0.48999530
v -39.98535345 -49.90576588 2.55663442
v -40.15117738 -49.90576588 2.82032821
v -28.19254388 -49.90576588 0.05152510
v -28.99467249 -49.90576588 -0.10792289
v -30.75125290 -49.90576588 -0.23977240
v -33.98482594 -49.90576588 -0.31336137
f 1 2 9
f 1 9 10
f 1 10 3
f 1 3 4
f 1 4 5
f 1 5 6
f 1 6 7
f 1 7 12
f 1 12 18
f 1 18 19
f 1 19 13
f 1 13 8
f 1 8 2
f 2 8 14
f 2 14 24
f 2 24 36
f 2 36 35
f 2 35 60
f 2 60 62
f 2 62 45
f 2 45 44
f 2 44 43
f 2 43 42
f 2 42 41
f 2 41 40
f 2 40 39
f 2 39 38
f 2 38 26
f 2 26 15
f 2 15 9
f 3 10 16
f 3 16 28
f 3 28 48
f 3 48 67
f 3 67 49
f 3 49 29
f 3 29 20
f 3 20 13
f 3 13 19
f 3 19 17
f 3 17 11
f 3 11 6
f 3 6 5
f 3 5 4
f 6 11 7
f 7 11 12
f 8 13 20
f 8 20 30
f 8 30 53
f 8 53 31
f 8 31 21
f 8 21 14
f 9 15 25
f 9 25 37
f 9 37 61
f 9 61 80
f 9 80 91
f 9 91 90
f 9 90 76
f 9 76 89
f 9 89 88
f 9 88 87
f 9 87 86
f 9 86 85
f 9 85 95
f 9 95 94
f 9 94 93
f 9 93 92
f 9 92 82
f 9 82 66
f 9 66 63
f 9 63 46
f 9 46 27
f 9 27 16
f 9 16 10
f 11 17 12
f 12 17 18
f 14 21 22
f 14 22 23
f 14 23 24
f 15 26 25
f 16 27 28
f 17 19 18
f 20 29 30
f 21 31 22
f 22 31 32
f 22 32 23
f 23 32 33
f 23 33 34
f 23 34 35
f 23 35 36
f 23 36 24
f 25 26 38
f 25 38 39
f 25 39 40
f 25 40 41
f 25 41 42
f 25 42 43
f 25 43 44
f 25 44 45
f 25 45 37
f 27 46 28
f 28 47 48
f 28 46 47
f 29 49 50
f 29 50 51
f 29 51 52
f 29 52 53
f 29 53 30
f 31 53 54
f 31 54 55
f 31 55 32
f 32 55 56
f 32 56 57
f 32 57 33
f 33 57 58
f 33 58 34
f 34 58 59
f 34 59 60
f 34 60 35
f 37 59 61
f 37 45 62
f 37 62 59
f 46 63 47
f 47 64 65
f 47 65 48
f 47 63 66
f 47 66 64
f 48 65 67
f 49 67 68
f 49 68 69
f 49 69 50
f 50 69 51
f 51 69 70
f 51 70 52
f 52 70 71
f 52 71 53
f 53 71 54
f 54 71 72
f 54 72 55
f 55 72 73
f 55 73 74
f 55 74 56
f 56 74 57
f 57 74 75
f 57 75 76
f 57 76 77
f 57 77 58
f 58 77 78
f 58 78 59
f 59 78 79
f 59 79 61
f 59 62 60
f 61 79 80
f 64 69 68
f 64 68 65
f 64 66 81
f 64 81 69
f 65 68 67
f 66 82 81
f 69 81 83
f 69 83 70
f 70 83 84
f 70 84 71
f 71 84 72
f 72 84 85
f 72 85 86
f 72 86 73
f 73 86 74
f 74 86 87
f 74 87 88
f 74 88 75
f 75 88 89
f 75 89 76
f 76 90 77
f 77 90 78
f 78 90 91
f 78 91 79
f 79 91 80
f 81 82 92
f 81 92 93
f 81 93 83
f 83 93 94
f 83 94 84
f 84 94 95
f 84 95 85

