# https://github.com/mikedh/trimesh
v -21.62566229 53.59372406 19.64474132
v -21.62566229 52.78315094 19.49449719
v -21.62566229 54.41677149 19.52822547
v -22.97919361 53.59372406 22.51166829
v -23.05548220 51.83718817 22.35222292
v -22.64203916 51.83718817 21.47528252
v -21.62566229 41.66314989 17.05377558
v -21.62566229 55.35204575 19.37797871
v -23.71256169 55.35204575 23.67683475
v -23.54521644 53.59372406 23.67683475
v -23.70025496 51.83718817 23.67683475
v -26.97334043 52.34847227 30.35815445
v -27.04224761 51.83718817 30.35815445
v -26.81337922 41.66314989 25.57176629
v -21.62566229 41.66314989 -0.96646604
v -21.62566229 57.06939390 18.40291708
v -22.76509068 56.41915381 21.20851991
v -24.50499156 56.35680324 24.69789210
v -24.37209990 55.35204575 24.90332796
v -26.55743867 53.59372406 29.50267618
v -27.09392799 53.65607987 30.35815445
v -27.71901261 50.46544421 30.35815445
v -27.68209768 41.66314989 26.63881543
v -44.80796004 41.66314989 -0.96646604
v -21.62566229 46.56756476 -0.96646604
v -21.62566229 57.12640283 18.33852674
v -22.71586903 58.17926127 19.53129167
v -24.57389873 58.01001504 22.83975504
v -26.10216063 56.44587772 26.67560992
v -26.22274557 54.77306944 28.38043532
v -27.31541495 54.01237258 30.35815445
v -33.06669206 41.66314989 30.35815445
v -29.00609941 41.66314989 27.60774465
v -44.80796004 43.05270456 -0.96646604
v -46.56508770 41.66314989 -0.95727004
v -21.62566229 48.32410589 -0.89287708
v -28.99625403 46.56756476 -0.96646604
v -21.62566229 58.30040132 16.92499491
v -21.62566229 58.67450998 16.44972761
v -21.62566229 58.82237394 16.20443106
v -22.43285892 58.50170788 18.40598329
v -22.68633813 59.82178455 16.09711120
v -23.27697179 59.65076300 17.26841269
v -23.80853841 59.41204401 18.31399708
v -25.48199608 58.52130437 21.91988513
v -25.48199608 58.09018679 23.06665697
v -27.23912375 56.50644775 26.91477667
v -27.73131933 54.70893308 30.22630623
v -27.64026268 54.46309190 30.35815445
v -42.98438654 41.66314989 30.35815445
v -37.77944151 44.80924308 -0.96646604
v -46.56508770 43.05270456 -0.92353915
v -39.53657179 44.80924308 -0.94500521
v -46.76443043 41.66314989 -0.94500521
v -30.75338432 46.56756476 -0.92967156
v -32.51051461 46.56756476 -0.84995018
v -34.26518355 46.56756476 -0.77022880
v -25.48199608 48.32410589 -0.69970343
v -21.62566229 49.88646266 -0.42067599
v -21.62566229 59.32475007 15.22017081
v -21.62566229 59.45657863 14.89208406
v -22.42301616 59.86097754 14.89208406
v -23.80853841 59.81643767 16.67049712
v -24.44838849 59.76655617 17.66702220
v -26.67802622 58.10087531 23.11878248
v -25.48199608 59.10740811 20.16293552
v -27.23912375 57.16559581 25.43685319
v -28.99625403 55.33601559 28.95075372
v -28.99625403 54.71071363 30.24776969
v -28.99625403 54.64658251 30.35815445
v -27.91589137 54.63411344 30.35815445
v -40.70553239 45.28668107 30.35815445
v -46.76443043 41.66314989 27.00369667
v -46.76443043 43.05270456 -0.91127432
v -41.29370208 44.80924308 -0.82542053
v -36.02231384 46.56756476 -0.66904136
v -30.75338432 48.09964175 -0.46667172
v -34.26518355 47.80391382 -0.31029254
v -36.02231384 47.66673838 -0.20910510
v -21.62566229 50.75761104 0.12511407
v -21.62566229 59.57059649 12.84383956
v -23.72486579 59.85028902 14.98713647
v -22.44270168 59.82178455 13.71158395
v -23.13915744 59.82178455 13.71158395
v -24.67233942 59.76655617 17.66702220
v -27.25389181 58.25051982 21.84322996
v -28.99625403 57.27248624 23.67683475
v -27.25389181 57.75526588 23.69523199
v -25.34664308 59.48864419 18.31399708
v -27.23912375 58.62462847 20.16293552
v -28.44992196 56.38174661 26.75533260
v -30.00278945 54.55394693 29.98714080
v -33.60810406 54.59135413 26.54376302
v -30.37931756 54.13351786 30.35815445
v -40.05829828 46.24689870 30.35815445
v -39.72852786 46.72433669 30.35815445
v -46.76443043 42.35436351 26.47630516
v -46.76443043 44.51352039 -0.44827447
v -46.56508770 44.53667797 -0.46053929
v -39.53657179 46.35022804 -0.48200012
v -37.25525630 47.52600184 -0.10792289
v -36.02231384 48.54500895 0.57891268
v -34.26518355 48.68396494 0.39800910
v -25.48199608 51.40428480 1.32093997
v -21.62566229 51.40072370 0.71996343
v -21.62566229 59.18757462 11.03783064
v -24.65264866 59.76833672 15.63411135
v -24.69448628 59.77724993 16.64903367
v -21.96527416 59.28199599 11.38124842
v -23.72486579 59.46370606 13.13206562
v -24.31057676 59.65967098 14.46587607
v -27.23912375 58.79208893 18.40598329
v -30.75338432 57.08899039 21.91988513
v -30.83213687 56.60977185 23.72283047
v -30.29810628 56.40312365 24.91559279
v -29.01840352 56.65253116 25.47671387
v -30.75338432 57.29208273 20.16293552
v -33.49243920 52.77424297 29.91048432
v -33.97971210 54.80156866 25.43685319
v -40.28716666 52.64419495 22.56379381
v -39.11574734 52.94705030 23.35794924
v -38.63585848 52.70298443 24.52924810
v -34.22088459 53.91260958 27.15394211
v -34.15197741 53.02186994 28.83117166
v -31.46952560 56.15905777 24.33607706
v -32.72954023 52.88469973 30.35815445
v -39.17480914 47.37635733 30.35815445
v -46.76443043 47.21068266 22.60058829
v -46.76443043 46.08656567 23.57564992
v -46.76443043 45.39179096 0.23856110
v -45.27061949 45.58240900 0.05765228
v -44.09920279 45.73026772 -0.08032441
v -38.42667561 47.38882640 0.00552938
v -41.29370208 46.09903474 -0.36548426
v -36.02231384 49.43931491 1.45892190
v -34.26518355 49.62458607 1.27494949
v -25.48199608 52.28255536 2.18868437
v -21.62566229 53.86985550 3.05642876
v -21.62566229 58.40194487 9.26248116
v -42.47742550 52.82947135 13.13819803
v -41.29370208 53.41558033 14.89208406
v -45.95230718 51.08005764 10.07196762
v -46.27469618 51.19763659 11.38124842
v -41.29370208 53.45655386 16.64903367
v -22.00957312 58.44826005 9.52311136
v -23.72240445 58.81881284 11.38124842
v -27.81499196 57.91916524 12.53415005
v -26.01848539 57.89600242 10.84772319
v -27.23174233 57.71785344 11.41191049
v -43.72267468 50.90012812 7.19584204
v -44.87440586 50.74335619 7.81522106
v -45.50441580 50.91081664 8.90066614
v -36.02231384 55.28969518 20.16293552
v -37.15681823 54.61451695 21.38329632
v -31.85343774 56.34611472 23.16477559
v -35.22742001 52.77246242 28.16886574
v -34.66139979 52.38588470 29.34016592
v -33.92064769 52.18457290 30.35815445
v -40.97623839 53.01652830 20.16293552
v -41.85480222 52.55690625 20.16293552
v -43.05083237 51.89419186 20.16293552
v -44.26162534 51.17447377 20.16293552
v -43.94908172 50.97316721 21.06440557
v -42.29531481 51.06046115 22.92867504
v -35.45136832 51.21366676 30.27229935
v -38.69246155 47.94108927 30.35815445
v -46.76443043 48.12101879 21.69604941
v -38.05507020 48.61626749 30.35815445
v -46.76443043 46.28075004 1.11857032
v -46.56508770 47.18573929 2.06603609
v -35.59164401 51.11568430 3.26799965
v -21.62566229 54.86035814 4.08055232
v -21.62566229 58.20776050 8.86387165
v -46.49126308 51.27423678 13.13819803
v -42.63000530 52.90607677 14.89208406
v -46.76443043 50.11449314 7.86121416
v -46.54786353 50.69169414 9.54150859
v -46.76443043 50.60796653 9.55070722
v -46.76443043 50.99276370 11.38124842
v -46.76443043 51.16735158 13.13819803
v -42.53895126 52.89360247 16.64903367
v -41.44628187 53.17686133 18.51330314
v -39.53657179 54.02484689 18.40598329
v -43.50857175 52.54087085 14.89208406
v -44.80796004 51.97079728 14.89208406
v -46.76443043 51.13171969 14.19298104
v -23.72240445 58.22735699 10.04743797
v -26.16122243 56.18222059 7.07625997
v -25.45246518 57.60206027 9.71321880
v -24.84706607 58.05277435 10.35712748
v -46.76443043 49.36627059 5.88349504
v -46.55278622 49.52126197 6.09813213
v -46.76443043 49.48741587 6.19318454
v -45.95969122 49.29323150 5.08320981
v -46.56508770 50.18575168 7.86734657
v -37.40537474 54.70537199 20.16293552
v -42.13289226 52.69229591 19.17254285
v -35.19296642 51.32946516 30.35815445
v -34.32916803 51.91022725 30.35815445
v -45.85879180 51.05155318 17.80500412
v -46.76443043 50.34074307 18.38145363
v -46.76443043 50.21782247 18.64515004
v -46.76443043 49.56045496 19.94216601
v -46.76443043 48.95296895 20.74245123
v -35.54980639 51.06758858 30.35815445
v -37.09529509 49.61389756 30.35815445
v -36.31024663 50.38527769 30.35815445
v -46.76443043 47.15901537 2.10283058
v -23.72240445 54.93874411 4.71219617
v -46.76443043 47.23027915 2.20094919
v -46.76443043 47.77362881 2.98283979
v -24.98980311 56.31404916 6.87388770
v -23.72240445 55.81701467 5.78844262
v -21.96527416 55.99338310 5.54007725
v -21.62566229 56.02366811 5.49715035
v -21.62566229 57.93519540 8.37634215
v -46.35837142 51.26711459 14.89208406
v -46.76443043 51.07114967 14.89208406
v -42.35191788 52.80809431 18.00124137
v -46.07535870 51.16913213 16.64903367
v -46.76443043 48.85676703 4.82564582
v -46.76443043 48.65189938 4.43009990
v -46.76443043 50.75404471 16.84833974
v -21.62566229 57.59493285 7.82748588
v -23.72240445 56.44053608 6.66845184
v -21.62566229 56.64540374 6.34342867
v -46.76443043 50.97494776 15.60958170
v -46.76443043 50.79323769 16.64903367
v -21.96527416 56.62580725 6.41701764
f 1 2 7
f 1 7 15
f 1 15 25
f 1 25 36
f 1 36 59
f 1 59 80
f 1 80 105
f 1 105 138
f 1 138 172
f 1 172 215
f 1 215 226
f 1 226 224
f 1 224 216
f 1 216 173
f 1 173 139
f 1 139 106
f 1 106 81
f 1 81 61
f 1 61 60
f 1 60 40
f 1 40 39
f 1 39 38
f 1 38 26
f 1 26 16
f 1 16 8
f 1 8 3
f 1 3 4
f 1 4 5
f 1 5 6
f 1 6 2
f 2 6 7
f 3 8 4
f 4 9 10
f 4 10 5
f 4 8 9
f 5 10 11
f 5 11 7
f 5 7 6
f 7 11 12
f 7 12 13
f 7 13 14
f 7 14 23
f 7 23 33
f 7 33 32
f 7 32 50
f 7 50 73
f 7 73 54
f 7 54 35
f 7 35 24
f 7 24 15
f 8 16 17
f 8 17 9
f 9 17 18
f 9 18 19
f 9 19 20
f 9 20 10
f 10 20 12
f 10 12 11
f 12 20 21
f 12 21 31
f 12 31 49
f 12 49 71
f 12 71 70
f 12 70 94
f 12 94 126
f 12 126 158
f 12 158 199
f 12 199 198
f 12 198 205
f 12 205 207
f 12 207 206
f 12 206 168
f 12 168 166
f 12 166 127
f 12 127 96
f 12 96 95
f 12 95 72
f 12 72 50
f 12 50 32
f 12 32 22
f 12 22 13
f 13 22 23
f 13 23 14
f 15 24 34
f 15 34 51
f 15 51 37
f 15 37 25
f 16 26 27
f 16 27 18
f 16 18 17
f 18 27 28
f 18 28 29
f 18 29 30
f 18 30 20
f 18 20 19
f 20 30 21
f 21 30 31
f 22 32 33
f 22 33 23
f 24 35 34
f 25 37 36
f 26 38 27
f 27 38 39
f 27 39 40
f 27 40 41
f 27 41 42
f 27 42 28
f 28 43 44
f 28 44 45
f 28 45 46
f 28 46 29
f 28 42 43
f 29 47 48
f 29 48 49
f 29 49 30
f 29 46 47
f 30 49 31
f 34 35 52
f 34 52 53
f 34 53 51
f 35 54 74
f 35 74 52
f 36 37 55
f 36 55 56
f 36 56 57
f 36 57 58
f 36 58 59
f 37 51 53
f 37 53 55
f 40 60 41
f 41 60 42
f 42 60 61
f 42 61 62
f 42 62 63
f 42 63 64
f 42 64 43
f 43 64 44
f 44 64 45
f 45 65 46
f 45 64 66
f 45 66 65
f 46 65 67
f 46 67 47
f 47 67 68
f 47 68 69
f 47 69 48
f 48 69 70
f 48 70 71
f 48 71 49
f 50 72 73
f 52 74 53
f 53 74 75
f 53 75 76
f 53 76 57
f 53 57 56
f 53 56 55
f 54 73 97
f 54 97 129
f 54 129 128
f 54 128 167
f 54 167 204
f 54 204 203
f 54 203 202
f 54 202 201
f 54 201 223
f 54 223 228
f 54 228 227
f 54 227 218
f 54 218 186
f 54 186 180
f 54 180 179
f 54 179 178
f 54 178 176
f 54 176 193
f 54 193 191
f 54 191 221
f 54 221 222
f 54 222 211
f 54 211 210
f 54 210 208
f 54 208 169
f 54 169 130
f 54 130 98
f 54 98 74
f 57 76 59
f 57 59 58
f 59 77 78
f 59 78 79
f 59 79 80
f 59 76 77
f 61 81 62
f 62 82 63
f 62 81 83
f 62 83 84
f 62 84 82
f 63 85 64
f 63 82 85
f 64 85 66
f 65 66 86
f 65 86 87
f 65 87 88
f 65 88 67
f 66 85 89
f 66 89 90
f 66 90 86
f 67 91 68
f 67 88 91
f 68 92 69
f 68 91 93
f 68 93 92
f 69 92 70
f 70 92 94
f 72 95 73
f 73 95 96
f 73 96 97
f 74 98 99
f 74 99 75
f 75 99 100
f 75 100 76
f 76 100 77
f 77 100 78
f 78 100 79
f 79 101 102
f 79 102 103
f 79 103 104
f 79 104 80
f 79 100 101
f 80 104 105
f 81 106 83
f 82 84 107
f 82 107 108
f 82 108 85
f 83 106 109
f 83 109 84
f 84 110 111
f 84 111 107
f 84 109 110
f 85 112 89
f 85 108 112
f 86 113 87
f 86 90 113
f 87 114 115
f 87 115 116
f 87 116 91
f 87 91 88
f 87 113 114
f 89 112 90
f 90 112 117
f 90 117 113
f 91 116 115
f 91 115 93
f 92 118 94
f 92 93 118
f 93 119 120
f 93 120 121
f 93 121 122
f 93 122 123
f 93 123 124
f 93 124 118
f 93 115 125
f 93 125 119
f 94 118 126
f 96 127 128
f 96 128 129
f 96 129 97
f 98 130 131
f 98 131 132
f 98 132 133
f 98 133 134
f 98 134 100
f 98 100 99
f 100 134 101
f 101 134 133
f 101 133 102
f 102 135 136
f 102 136 104
f 102 104 103
f 102 133 135
f 104 136 137
f 104 137 138
f 104 138 105
f 106 139 109
f 107 140 141
f 107 141 108
f 107 111 142
f 107 142 143
f 107 143 140
f 108 141 144
f 108 144 112
f 109 139 145
f 109 145 146
f 109 146 110
f 110 147 111
f 110 146 148
f 110 148 149
f 110 149 150
f 110 150 151
f 110 151 152
f 110 152 147
f 111 147 152
f 111 152 142
f 112 153 117
f 112 144 153
f 113 154 155
f 113 155 114
f 113 117 153
f 113 153 154
f 114 155 119
f 114 119 125
f 114 125 115
f 118 124 156
f 118 156 157
f 118 157 158
f 118 158 126
f 119 155 154
f 119 154 120
f 120 122 121
f 120 154 159
f 120 159 160
f 120 160 161
f 120 161 162
f 120 162 163
f 120 163 122
f 122 163 164
f 122 164 165
f 122 165 156
f 122 156 123
f 123 156 124
f 127 166 128
f 128 166 168
f 128 168 167
f 130 169 133
f 130 133 131
f 131 133 132
f 133 169 135
f 135 169 170
f 135 170 171
f 135 171 172
f 135 172 136
f 136 172 137
f 137 172 138
f 139 173 145
f 140 174 175
f 140 175 141
f 140 143 174
f 141 175 144
f 142 152 176
f 142 176 177
f 142 177 178
f 142 178 179
f 142 179 143
f 143 179 180
f 143 180 174
f 144 181 182
f 144 182 183
f 144 183 153
f 144 175 184
f 144 184 185
f 144 185 186
f 144 186 181
f 145 187 146
f 145 173 188
f 145 188 187
f 146 187 189
f 146 189 190
f 146 190 148
f 148 190 189
f 148 189 150
f 148 150 149
f 150 191 192
f 150 192 193
f 150 193 151
f 150 189 194
f 150 194 191
f 151 193 195
f 151 195 152
f 152 195 176
f 153 183 196
f 153 196 154
f 154 196 182
f 154 182 197
f 154 197 159
f 156 165 157
f 157 165 198
f 157 198 199
f 157 199 158
f 159 197 160
f 160 197 200
f 160 200 161
f 161 200 201
f 161 201 162
f 162 201 163
f 163 201 202
f 163 202 203
f 163 203 164
f 164 203 204
f 164 204 205
f 164 205 165
f 165 205 198
f 167 168 206
f 167 206 207
f 167 207 204
f 169 208 170
f 170 208 171
f 171 209 172
f 171 208 210
f 171 210 211
f 171 211 188
f 171 188 212
f 171 212 213
f 171 213 209
f 172 209 214
f 172 214 215
f 173 216 188
f 174 180 175
f 175 180 184
f 176 178 177
f 176 195 193
f 180 186 185
f 180 185 184
f 181 186 217
f 181 217 218
f 181 218 219
f 181 219 182
f 182 196 183
f 182 219 220
f 182 220 200
f 182 200 197
f 186 218 217
f 187 188 189
f 188 216 212
f 188 211 194
f 188 194 189
f 191 193 192
f 191 194 221
f 194 211 222
f 194 222 221
f 200 223 201
f 200 220 223
f 204 207 205
f 209 213 214
f 212 216 224
f 212 224 225
f 212 225 213
f 213 225 226
f 213 226 214
f 214 226 215
f 218 227 219
f 219 227 220
f 220 227 228
f 220 228 223
f 224 226 229
f 224 229 225
f 225 229 226

