# https://github.com/mikedh/trimesh
v -51.44582915 16.73972322 48.18129410
v -46.30052459 16.73972322 48.18129410
v -51.44582915 16.73972322 57.15747979
v -51.44582915 19.51730993 48.18129410
v -43.17288625 16.73972322 56.83941189
v -43.42173604 20.40779819 48.18129410
v -43.07978982 16.73972322 57.15747979
v -51.44582915 18.14005151 57.15747979
v -51.44582915 19.50808250 48.28145904
v -37.31504602 38.38829173 48.18129410
v -43.14781981 16.73972322 56.91146055
v -38.82068188 26.58585411 48.18129410
v -38.16901736 23.54296458 57.15747979
v -51.44582915 19.30737557 50.03873891
v -40.80790861 28.81899533 57.15747979
v -38.71326514 31.67501907 56.23754376
v -36.85494217 38.61437408 49.08277855
v -36.57923493 39.27877999 48.18129410
v -37.27745029 28.62059787 48.28145904
v -38.20661308 27.41405464 48.18129410
v -38.09561430 23.65600575 57.15747979
v -36.66338149 29.52262042 48.18129410
v -36.64905856 29.49955186 48.28145904
v -39.71941041 29.86174394 57.15747979
v -39.16799854 30.34620724 57.15747979
v -37.78052293 31.12596118 57.15747979
v -37.78052293 31.88956714 56.42030121
v -37.32578953 33.64286139 54.72364734
v -35.68409106 39.05500450 49.54142883
v -35.90071556 39.95241333 48.18129410
v -37.29177322 28.64828014 48.18129410
v -37.16645151 25.08863133 57.15747979
v -36.63115359 29.56876015 48.18129410
v -35.82552411 30.82374997 48.18129410
v -37.57821874 31.13749808 57.15747979
v -36.56491462 31.92878630 56.44753835
v -34.61349522 39.05500450 49.54142883
v -34.20888946 40.30538061 48.18129410
v -35.23651651 31.81805199 48.18129410
v -35.22577562 31.80421085 48.28145904
v -36.71171811 25.96066474 57.15747979
v -36.31069177 30.64150050 57.15747979
v -35.04495582 35.28311447 52.78888195
v -33.67538256 40.11851481 48.18129410
v -34.82295826 32.69700597 48.18129410
v -36.21938636 27.14875313 57.15747979
v -34.81579679 32.68316483 48.28145904
v -34.13548640 34.26343442 48.28145904
v -36.28383693 30.58613334 57.15747979
v -33.17768037 39.16112511 48.18129410
v -34.78894195 32.77313483 48.18129410
v -35.86491086 28.90204738 57.15747979
v -33.42115971 36.34201107 48.18129410
v -35.08971302 31.33589554 54.59185085
v -34.11042259 34.34879333 48.18129410
v -35.87923117 28.98509681 57.15747979
v -35.08971302 31.88033971 54.59185085
v -33.43548264 37.77925036 49.06696310
v -33.15619597 37.82308324 48.18129410
v -33.16156642 37.75156809 48.18129410
v -33.15798699 37.77925036 48.18832334
v -33.15798699 37.77925036 48.18129410
f 1 2 5
f 1 5 11
f 1 11 7
f 1 7 3
f 1 3 8
f 1 8 14
f 1 14 9
f 1 9 4
f 1 4 10
f 1 10 18
f 1 18 30
f 1 30 38
f 1 38 44
f 1 44 50
f 1 50 59
f 1 59 62
f 1 62 60
f 1 60 53
f 1 53 55
f 1 55 51
f 1 51 45
f 1 45 39
f 1 39 34
f 1 34 33
f 1 33 22
f 1 22 31
f 1 31 20
f 1 20 12
f 1 12 6
f 1 6 2
f 2 6 5
f 3 7 13
f 3 13 21
f 3 21 32
f 3 32 41
f 3 41 46
f 3 46 52
f 3 52 56
f 3 56 49
f 3 49 42
f 3 42 35
f 3 35 26
f 3 26 25
f 3 25 24
f 3 24 15
f 3 15 8
f 4 9 10
f 5 6 11
f 6 12 11
f 7 11 13
f 8 15 16
f 8 16 17
f 8 17 18
f 8 18 10
f 8 10 14
f 9 14 10
f 11 12 19
f 11 19 13
f 12 20 19
f 13 19 22
f 13 22 23
f 13 23 21
f 15 24 16
f 16 24 25
f 16 25 26
f 16 26 27
f 16 27 28
f 16 28 29
f 16 29 17
f 17 29 30
f 17 30 18
f 19 20 31
f 19 31 22
f 21 23 32
f 22 33 23
f 23 33 34
f 23 34 32
f 26 35 27
f 27 35 36
f 27 36 29
f 27 29 28
f 29 37 38
f 29 38 30
f 29 36 37
f 32 34 39
f 32 39 40
f 32 40 41
f 35 42 36
f 36 43 44
f 36 44 37
f 36 42 43
f 37 44 38
f 39 45 40
f 40 45 41
f 41 45 47
f 41 47 48
f 41 48 46
f 42 49 50
f 42 50 44
f 42 44 43
f 45 51 47
f 46 48 53
f 46 53 54
f 46 54 52
f 47 51 55
f 47 55 48
f 48 55 53
f 49 56 57
f 49 57 50
f 50 57 58
f 50 58 59
f 52 54 57
f 52 57 56
f 53 60 54
f 54 60 61
f 54 61 57
f 57 61 59
f 57 59 58
f 59 61 62
f 60 62 61

