# https://github.com/mikedh/trimesh
v 34.58816432 59.68902906 21.97192948
v 34.82679429 59.59200495 21.97192948
v 34.58816432 59.87297004 21.52709121
v 34.58816432 40.21954515 21.97192948
v 35.21457126 59.78201027 21.13044292
v 38.55411042 57.95068092 21.97192948
v 34.58816432 60.18425681 20.16477366
v 34.58816432 40.21954515 18.64305266
v 42.52913469 40.21954515 21.97192948
v 35.41299753 59.86286282 20.16477366
v 34.58816432 60.50362412 18.40765910
v 39.27778498 57.62322784 21.97192948
v 39.37116420 57.58077750 21.97192948
v 39.45027548 57.57471316 21.88296235
v 38.80571220 58.05781225 21.27131038
v 34.58816432 43.34856865 13.38839370
v 41.34765266 40.21954515 21.23053061
v 46.00874005 41.97608366 21.97192948
v 35.70609915 60.03265370 18.40765910
v 34.58816432 60.54405301 18.09812407
v 36.12370290 60.09531848 16.62459566
v 39.46194592 57.53832716 21.97192948
v 41.08827146 56.66511544 21.97192948
v 41.09864576 56.67117978 21.92188563
v 39.86009720 57.70812327 20.16477366
v 36.99522572 59.80020327 16.02221040
v 34.58816432 43.43144526 13.24938273
v 34.58816432 43.70230313 12.83790615
v 34.91498374 44.12274267 12.51910443
v 46.95418961 42.66535963 21.97192948
v 34.58816432 44.45626009 11.92227813
v 34.58816432 51.60773849 4.29699877
v 34.58816432 51.75125058 4.15242620
v 34.58816432 60.70373666 16.64498555
v 41.10512905 56.65500822 21.97192948
v 41.97665187 56.09712092 21.92188563
v 42.12839114 56.19616647 20.83573619
v 41.44362415 56.74394655 20.21481752
v 40.05852608 57.79504016 18.40765910
v 37.94715857 59.33934008 14.89343256
v 37.06914985 59.83254115 14.89343256
v 36.02384301 60.27319514 14.89343256
v 34.58816432 60.73001544 16.32803769
v 39.34003867 58.38122768 16.65054452
v 47.57151577 43.78315568 21.97192948
v 34.97334641 53.17426906 3.66310305
v 34.58816432 53.48959872 3.18490047
v 41.95979166 56.09509947 21.97192948
v 43.33451542 55.00761986 21.97192948
v 42.22695751 56.28712624 19.66247610
v 40.21804477 57.86174259 16.65054452
v 37.95104697 59.28880396 13.13631799
v 37.07174473 59.83860549 13.13631799
v 39.35300786 58.46005879 14.89343256
v 36.02384301 60.31159735 13.13631799
v 34.58816432 60.86746844 13.13631799
v 34.58816432 60.81693233 14.89343256
v 47.78680486 44.80999195 21.97192948
v 35.72555162 53.69375415 4.28958592
v 36.87591074 54.64984510 5.26267063
v 38.60858207 55.35124974 7.05870849
v 35.18604062 54.34462267 3.43327108
v 34.58816432 53.88578092 3.04033052
v 44.42780799 53.87365225 21.97192948
v 42.22695751 56.28712624 18.82469465
v 40.23231010 57.82334038 14.89343256
v 36.99911674 59.80828905 11.99827345
v 39.22590822 58.40952267 13.13631799
v 36.11721962 60.12361347 11.39959329
v 34.58816432 60.74012267 11.38291114
v 47.83738287 45.24660305 21.97192948
v 37.60866347 55.28252062 5.95217178
v 36.97577324 55.82222016 5.16999577
v 36.97577324 56.30531924 5.16999577
v 38.91984003 56.62468655 8.20602234
v 39.10918812 55.35124974 7.93726447
v 47.81533551 46.56653309 21.97192948
v 35.18604062 54.56899255 3.43327108
v 34.58816432 54.99144830 3.14783367
v 44.57436273 53.68364693 21.97192948
v 42.12320399 56.14967324 16.65054452
v 40.10391694 57.66567294 13.13631799
v 36.76567392 59.65668594 10.82686199
v 39.04045115 58.29431080 11.38105726
v 38.83943000 58.17909369 10.15033788
v 35.56214191 59.96595126 9.62394532
v 34.58816432 60.36819780 9.62394532
v 36.44144677 59.53136685 9.62394532
v 34.58816432 55.53316928 3.39619904
v 34.58816432 55.87679392 3.59637967
v 36.02384301 56.70756054 4.89938665
v 35.10563058 57.96280959 5.25340393
v 36.02384301 57.58482039 5.60371348
v 37.02246024 58.08206959 6.87521002
v 37.35446943 56.97841841 6.21721931
v 40.38534550 56.00413970 10.58034786
v 38.27268186 57.17044518 7.71855044
v 38.50482854 57.79706160 8.97892904
v 39.25703637 57.17044518 9.58687590
v 40.05463506 55.39167339 9.74442289
v 47.73752036 47.06984139 21.97192948
v 45.50294946 52.37584556 21.97192948
v 45.49905844 52.36775978 21.92188563
v 43.73526158 54.09600069 18.40765910
v 42.65753046 55.27039195 16.65054452
v 41.93385589 55.77774837 14.89343256
v 40.79127882 56.78841309 13.13631799
v 39.99886728 57.11991430 11.25131300
v 40.59933584 56.54383400 11.75175671
v 37.86415627 58.63591400 9.58687590
v 37.31686061 58.35090601 7.86497688
v 35.25218270 59.77998883 8.63232460
v 34.58816432 60.26510936 9.29958199
v 35.91230745 59.22816586 7.97433389
v 34.58816432 57.13204297 4.40264805
v 34.58816432 58.08409103 5.13478022
v 34.58816432 58.54091134 5.77608877
v 34.58816432 58.69250921 6.00406950
v 36.02384301 58.36909902 6.48226946
v 34.58816432 57.41705096 4.59726709
v 42.20750242 54.54271377 13.91664013
v 47.44442136 48.32509043 21.97192948
v 46.05413353 51.46017826 21.97192948
v 46.82190544 50.02705256 21.97192948
v 44.20344335 53.21874084 18.40765910
v 42.37610190 54.89846708 14.89343256
v 34.58816432 59.53338829 7.47574404
v 34.58816432 59.84062693 8.18192473
v 34.58816432 59.91946327 8.36356934
v 34.58816432 59.37976373 7.19401174
f 1 2 3
f 1 3 7
f 1 7 11
f 1 11 20
f 1 20 34
f 1 34 43
f 1 43 57
f 1 57 56
f 1 56 70
f 1 70 87
f 1 87 113
f 1 113 129
f 1 129 128
f 1 128 127
f 1 127 130
f 1 130 118
f 1 118 117
f 1 117 116
f 1 116 120
f 1 120 115
f 1 115 90
f 1 90 89
f 1 89 79
f 1 79 63
f 1 63 47
f 1 47 33
f 1 33 32
f 1 32 31
f 1 31 28
f 1 28 27
f 1 27 16
f 1 16 8
f 1 8 4
f 1 4 9
f 1 9 18
f 1 18 30
f 1 30 45
f 1 45 58
f 1 58 71
f 1 71 77
f 1 77 101
f 1 101 122
f 1 122 124
f 1 124 123
f 1 123 102
f 1 102 80
f 1 80 64
f 1 64 49
f 1 49 48
f 1 48 35
f 1 35 23
f 1 23 22
f 1 22 13
f 1 13 12
f 1 12 6
f 1 6 2
f 2 5 3
f 2 6 5
f 3 5 7
f 4 8 17
f 4 17 9
f 5 10 11
f 5 11 7
f 5 6 12
f 5 12 13
f 5 13 14
f 5 14 15
f 5 15 10
f 8 16 17
f 9 17 18
f 10 19 11
f 10 15 19
f 11 19 21
f 11 21 20
f 13 22 14
f 14 22 23
f 14 23 24
f 14 24 15
f 15 24 25
f 15 25 26
f 15 26 19
f 16 27 17
f 17 27 28
f 17 28 29
f 17 29 18
f 18 29 31
f 18 31 32
f 18 32 33
f 18 33 30
f 19 26 21
f 20 21 34
f 21 26 34
f 23 35 24
f 24 35 36
f 24 36 37
f 24 37 38
f 24 38 25
f 25 39 26
f 25 38 39
f 26 40 41
f 26 41 42
f 26 42 43
f 26 43 34
f 26 39 44
f 26 44 40
f 28 31 29
f 30 33 46
f 30 46 45
f 33 47 46
f 35 48 36
f 36 48 49
f 36 49 37
f 37 50 38
f 37 49 50
f 38 50 51
f 38 51 39
f 39 51 44
f 40 52 53
f 40 53 41
f 40 44 51
f 40 51 54
f 40 54 52
f 41 53 55
f 41 55 42
f 42 55 56
f 42 56 57
f 42 57 43
f 45 46 59
f 45 59 60
f 45 60 61
f 45 61 58
f 46 47 62
f 46 62 59
f 47 63 62
f 49 64 50
f 50 64 65
f 50 65 51
f 51 66 54
f 51 65 66
f 52 67 53
f 52 54 68
f 52 68 67
f 53 67 55
f 54 66 68
f 55 69 70
f 55 70 56
f 55 67 69
f 58 61 71
f 59 62 60
f 60 62 72
f 60 72 61
f 61 72 73
f 61 73 74
f 61 74 75
f 61 75 76
f 61 76 77
f 61 77 71
f 62 63 78
f 62 78 74
f 62 74 73
f 62 73 72
f 63 79 78
f 64 80 81
f 64 81 65
f 65 81 66
f 66 82 68
f 66 81 82
f 67 83 69
f 67 68 84
f 67 84 85
f 67 85 83
f 68 82 84
f 69 86 87
f 69 87 70
f 69 83 88
f 69 88 86
f 74 78 79
f 74 79 89
f 74 89 90
f 74 90 91
f 74 91 92
f 74 92 93
f 74 93 94
f 74 94 95
f 74 95 75
f 75 96 76
f 75 95 97
f 75 97 98
f 75 98 99
f 75 99 96
f 76 96 100
f 76 100 77
f 77 100 101
f 80 102 81
f 81 102 103
f 81 103 104
f 81 104 105
f 81 105 106
f 81 106 107
f 81 107 82
f 82 108 85
f 82 85 84
f 82 107 109
f 82 109 108
f 83 85 110
f 83 110 88
f 85 111 110
f 85 108 109
f 85 109 99
f 85 99 98
f 85 98 94
f 85 94 111
f 86 88 112
f 86 112 87
f 87 112 113
f 88 114 112
f 88 110 111
f 88 111 114
f 90 115 91
f 91 115 92
f 92 116 117
f 92 117 118
f 92 118 119
f 92 119 94
f 92 94 93
f 92 115 120
f 92 120 116
f 94 98 97
f 94 97 95
f 94 119 114
f 94 114 111
f 96 99 109
f 96 109 121
f 96 121 122
f 96 122 101
f 96 101 100
f 102 123 103
f 103 123 104
f 104 123 124
f 104 124 105
f 105 124 125
f 105 125 106
f 106 125 124
f 106 124 126
f 106 126 109
f 106 109 107
f 109 126 121
f 112 114 127
f 112 127 128
f 112 128 129
f 112 129 113
f 114 119 127
f 118 130 119
f 119 130 127
f 121 126 124
f 121 124 122

