# https://github.com/mikedh/trimesh
v 42.54539003 -16.69274820 17.59436541
v 46.56560092 -14.93578157 17.09473342
v 48.32257148 -13.17881493 16.88216489
v 44.80963584 -14.93578157 17.30548735
v 42.37229467 -15.68073629 17.55257754
v 42.00008963 -15.68073629 17.55257754
v 41.36674117 -16.82979141 17.58528200
v 42.47034783 -17.81720690 17.59254820
v 50.08053706 -14.93578157 16.57511740
v 48.32257148 -11.42184830 16.73318285
v 46.56560092 -13.17881493 17.05113096
v 50.08053706 -13.17881493 16.56058500
v 44.80963584 -13.17881493 17.12743788
v 43.05267052 -13.17881493 17.12925508
v 41.36674117 -15.03065854 17.31093897
v 41.32672075 -15.07282478 17.31275617
v 41.32672075 -16.05672630 17.50534067
v 41.32672075 -16.85438915 17.58346479
v 41.32672075 -17.37796557 17.58346479
v 41.32672075 -17.80315105 17.58164759
v 41.32672075 -18.65703729 17.41995034
v 41.32672075 -20.20668278 17.05294816
v 43.05267052 -20.20668278 16.88579669
v 43.05467102 -18.42160314 17.33819181
v 51.45629248 -17.92613972 15.87926912
v 51.54734652 -17.71881727 15.90107035
v 51.54734652 -16.77005537 16.07730523
v 51.54734652 -14.93578157 16.25535471
v 46.56560092 -11.42184830 16.81494139
v 50.08053706 -11.42184830 16.37163229
v 50.08053706 -9.66488101 16.15179495
v 49.96847780 -7.99576277 15.89198694
v 49.30911502 -6.95563851 15.79569338
v 48.32257148 -9.66488101 16.41342015
v 51.54734652 -13.11205096 16.15542936
v 51.54734652 -11.55537755 16.00644732
v 51.35524120 -9.66488101 15.87381751
v 43.05267052 -11.42184830 16.55331617
v 41.32672075 -13.17881493 16.82221021
v 47.35303740 -6.93806870 15.79569338
v 41.32672075 -15.03065854 17.30185294
v 41.32672075 -21.93202375 16.51334551
v 41.32672075 -21.96716468 16.50062768
v 44.80963584 -21.62279771 16.02643396
v 44.80963584 -20.20668278 16.56785120
v 51.54734652 -18.02452935 15.83021505
v 51.54734652 -17.88748614 15.86836851
v 51.54734652 -18.67109314 15.63581335
v 48.32257148 -7.90791438 16.03370016
v 48.32257148 -6.90644370 15.80841382
v 51.07408234 -8.63881260 15.81022841
v 50.48075691 -7.46867239 15.66124898
v 51.54734652 -6.43206274 15.16161699
v 51.54734652 8.01020484 11.26631409
v 51.54734652 -10.73663093 15.92650599
v 51.54734652 -9.66488101 15.81931182
v 41.32672075 -13.14718927 16.81130698
v 41.32672075 -23.19704093 15.99009770
v 51.54734652 -20.18559900 14.98719931
v 50.58781492 -19.09627862 15.69940244
v 43.62398524 -22.74374244 15.71938647
v 44.80963584 -22.50128168 15.56495543
v 51.54734652 -8.17497353 15.56313821
v 51.54734652 8.01020484 -0.96646604
v 41.35073196 8.01020484 8.54287043
v 41.32672075 8.00669088 8.53923864
v 41.34372760 -11.41833434 16.14634595
v 41.32672075 -12.04732831 16.38616732
v 41.32672075 -23.21109678 15.98282888
v 51.54734652 -21.47521261 14.26046378
v 41.32672075 -24.06498171 15.47411348
v 41.32672075 -24.08606548 15.46139567
v 51.54734652 -22.35369527 13.63547342
v 42.94961350 8.01020484 -0.96646604
v 51.54734652 -18.44971483 -0.96646604
v 41.32672075 8.01020484 7.04942870
v 41.32672075 -11.42536226 16.14452874
v 41.32672075 -25.22809268 14.58204630
v 43.05267052 -24.91535267 14.31678667
v 51.54734652 -23.28840133 12.75793863
v 41.32672075 8.00669088 -0.96646604
v 41.32672075 8.01020484 4.31508703
v 51.54734652 -20.20668278 -0.70847524
v 46.56560092 -20.20668278 -0.93921320
v 44.80963584 -20.20668278 -0.96646604
v 41.32672075 -26.09251949 13.69542810
v 51.54734652 -23.43247377 12.57262034
v 43.92915269 -26.35606665 12.25467485
v 41.32672075 -20.20668278 -0.96646604
v 51.54734652 -21.34519601 -0.24699933
v 46.56560092 -21.64739544 -0.47773728
v 44.80963584 -21.73875715 -0.50317292
v 43.05267052 -21.80903639 -0.50317292
v 41.32672075 -21.84417470 -0.50317292
v 41.32672075 -26.11008930 13.67362688
v 51.54734652 -24.16688399 11.59697741
v 41.32672075 -26.70042970 12.79790930
v 41.32672075 -27.43132857 11.36442225
v 41.32672075 -27.48755196 11.23906126
v 51.54734652 -25.17187191 9.62207312
v 51.54734652 -24.82750362 10.50505690
v 51.54734652 -24.72208738 10.71944525
v 51.54734652 -22.22367868 0.48700503
v 50.08053706 -22.30098584 0.37617645
v 48.32257148 -22.40289074 0.29986953
v 46.56560092 -22.52587941 0.25263266
v 44.80963584 -22.61724243 0.17996016
v 43.05267052 -22.68751905 0.10547044
v 41.32672075 -22.72265867 0.06913157
v 41.32672075 -21.86174451 -0.49226969
v 41.32672075 -27.88462706 9.67657881
v 51.54734652 -25.61111193 7.86519159
v 51.54734652 -23.22515263 1.36453719
v 50.08053706 -23.32354095 1.25371385
v 48.32257148 -23.41139000 1.17740693
v 41.32672075 -22.74022848 0.08548117
v 46.56560092 -23.50275040 1.13198203
v 46.56560092 -24.38123568 1.96772895
v 44.80963584 -24.42340322 1.90595443
v 41.32672075 -27.88814102 9.62207312
v 51.54734652 -25.58300023 6.10830744
v 51.54734652 -24.10363267 2.38378520
v 50.08053706 -24.20202361 2.23662298
v 41.32672075 -26.11008930 3.76821817
v 46.56560092 -25.02428550 2.84526111
v 41.32672075 -26.76016705 4.64756754
v 41.32672075 -27.82488970 7.94513030
v 51.54734652 -25.51272099 5.81761217
v 44.80963584 -26.80584856 6.10830744
v 46.88878069 -26.30687118 5.59777483
v 51.54734652 -24.62018248 3.11597235
v 50.08053706 -24.83804551 3.11597235
v 43.05267052 -26.61609722 4.83652025
v 41.32672075 -27.40321687 6.10830744
v 51.54734652 -24.72208738 3.26131736
v 43.05267052 -27.11507722 6.10830744
v 51.54734652 -25.14024625 4.35142328
v 50.08053706 -25.40027420 4.35142328
f 1 2 3
f 1 3 4
f 1 4 5
f 1 5 6
f 1 6 7
f 1 7 8
f 1 8 2
f 2 8 9
f 2 9 3
f 3 10 11
f 3 11 4
f 3 9 12
f 3 12 10
f 4 11 5
f 5 11 13
f 5 13 14
f 5 14 6
f 6 15 16
f 6 16 17
f 6 17 18
f 6 18 7
f 6 14 15
f 7 18 19
f 7 19 8
f 8 19 20
f 8 20 21
f 8 21 22
f 8 22 23
f 8 23 24
f 8 24 25
f 8 25 26
f 8 26 27
f 8 27 9
f 9 28 12
f 9 27 28
f 10 29 11
f 10 12 30
f 10 30 31
f 10 31 32
f 10 32 33
f 10 33 34
f 10 34 29
f 11 29 13
f 12 28 35
f 12 35 36
f 12 36 37
f 12 37 30
f 13 29 14
f 14 38 39
f 14 39 15
f 14 29 40
f 14 40 38
f 15 41 16
f 15 39 41
f 16 41 39
f 16 39 57
f 16 57 68
f 16 68 77
f 16 77 66
f 16 66 76
f 16 76 82
f 16 82 81
f 16 81 89
f 16 89 94
f 16 94 110
f 16 110 109
f 16 109 116
f 16 116 124
f 16 124 126
f 16 126 134
f 16 134 127
f 16 127 120
f 16 120 111
f 16 111 99
f 16 99 98
f 16 98 97
f 16 97 95
f 16 95 86
f 16 86 78
f 16 78 72
f 16 72 71
f 16 71 69
f 16 69 58
f 16 58 43
f 16 43 42
f 16 42 22
f 16 22 21
f 16 21 20
f 16 20 19
f 16 19 18
f 16 18 17
f 22 42 23
f 23 42 43
f 23 43 44
f 23 44 45
f 23 45 24
f 24 45 25
f 25 46 47
f 25 47 26
f 25 45 48
f 25 48 46
f 26 47 46
f 26 46 48
f 26 48 59
f 26 59 70
f 26 70 73
f 26 73 80
f 26 80 87
f 26 87 96
f 26 96 102
f 26 102 101
f 26 101 100
f 26 100 112
f 26 112 121
f 26 121 128
f 26 128 137
f 26 137 135
f 26 135 131
f 26 131 122
f 26 122 113
f 26 113 103
f 26 103 90
f 26 90 83
f 26 83 75
f 26 75 64
f 26 64 54
f 26 54 53
f 26 53 63
f 26 63 56
f 26 56 55
f 26 55 36
f 26 36 35
f 26 35 28
f 26 28 27
f 29 34 49
f 29 49 50
f 29 50 40
f 30 37 51
f 30 51 31
f 31 51 32
f 32 51 33
f 33 50 49
f 33 49 34
f 33 51 52
f 33 52 53
f 33 53 54
f 33 54 50
f 36 55 37
f 37 56 51
f 37 55 56
f 38 57 39
f 38 40 54
f 38 54 57
f 40 50 54
f 43 58 44
f 44 59 60
f 44 60 45
f 44 58 61
f 44 61 62
f 44 62 59
f 45 60 48
f 48 60 59
f 51 56 63
f 51 63 53
f 51 53 52
f 54 64 74
f 54 74 82
f 54 82 76
f 54 76 65
f 54 65 66
f 54 66 67
f 54 67 68
f 54 68 57
f 58 69 61
f 59 62 70
f 61 69 71
f 61 71 72
f 61 72 62
f 62 72 73
f 62 73 70
f 64 75 85
f 64 85 89
f 64 89 81
f 64 81 74
f 65 76 66
f 66 77 67
f 67 77 68
f 72 78 79
f 72 79 73
f 73 79 80
f 74 81 82
f 75 83 84
f 75 84 85
f 78 86 79
f 79 86 80
f 80 86 88
f 80 88 87
f 83 90 91
f 83 91 84
f 84 91 92
f 84 92 85
f 85 92 93
f 85 93 94
f 85 94 89
f 86 95 88
f 87 88 96
f 88 95 97
f 88 97 98
f 88 98 99
f 88 99 100
f 88 100 101
f 88 101 102
f 88 102 96
f 90 103 104
f 90 104 91
f 91 104 105
f 91 105 106
f 91 106 107
f 91 107 108
f 91 108 92
f 92 108 109
f 92 109 93
f 93 110 94
f 93 109 110
f 99 111 100
f 100 111 112
f 103 113 114
f 103 114 104
f 104 114 105
f 105 114 106
f 106 114 115
f 106 115 107
f 107 115 108
f 108 116 109
f 108 115 117
f 108 117 118
f 108 118 119
f 108 119 116
f 111 120 112
f 112 120 121
f 113 122 123
f 113 123 114
f 114 123 118
f 114 118 115
f 115 118 117
f 116 119 124
f 118 123 125
f 118 125 126
f 118 126 124
f 118 124 119
f 120 127 121
f 121 127 129
f 121 129 130
f 121 130 128
f 122 131 132
f 122 132 123
f 123 132 125
f 125 132 126
f 126 133 134
f 126 132 135
f 126 135 133
f 127 134 136
f 127 136 129
f 128 130 137
f 129 136 130
f 130 136 138
f 130 138 137
f 131 135 132
f 133 138 134
f 133 135 138
f 134 138 136
f 135 137 138

