# https://github.com/mikedh/trimesh
v 0.06162096 0.06830590 -0.04402282
v 0.06184699 0.09723225 -0.04073463
v 0.06452314 0.09723225 -0.04093418
v 0.06931490 0.09723225 -0.04126386
v 0.07578830 0.09723225 -0.04059581
v 0.06931490 0.06830590 -0.04293833
v 0.05356538 0.06830590 -0.04331139
v 0.05815823 0.09723225 -0.04000585
v 0.07700884 0.09723225 -0.04037024
v 0.07766884 0.06830590 -0.04152414
v 0.07700884 0.06830590 -0.04164561
v 0.07000203 0.06830590 -0.04283422
v 0.05030155 0.06830590 -0.04197529
v 0.05613304 0.09723225 -0.03908619
v 0.07963076 0.09723225 -0.03984968
v 0.08197239 0.06830590 -0.04069993
v 0.04622404 0.06830590 -0.04011864
v 0.05413497 0.09723225 -0.03814051
v 0.08469375 0.09723225 -0.03825330
v 0.08629401 0.06830590 -0.03897341
v 0.04371062 0.09723225 -0.03114768
v 0.04755307 0.09723225 -0.03427970
v 0.04104351 0.06830590 -0.03558977
v 0.08713483 0.09723225 -0.03711675
v 0.09303864 0.06830590 -0.03591946
v 0.04132378 0.09723225 -0.02851885
v 0.03807804 0.06830590 -0.02931704
v 0.03512161 0.09723225 -0.01852413
v 0.03643257 0.09723225 -0.02115295
v 0.03765311 0.09723225 -0.02315710
v 0.04028406 0.09723225 -0.02729554
v 0.09288495 0.09723225 -0.03436646
v 0.09397892 0.09723225 -0.03372444
v 0.09623918 0.09723225 -0.03239702
v 0.09733315 0.06830590 -0.03333402
v 0.03297888 0.06830590 -0.01371764
v 0.03455203 0.09723225 -0.01730082
v 0.10013589 0.09723225 -0.02863164
v 0.11764841 0.06830590 -0.01398659
v 0.10152820 0.06830590 -0.02939513
v 0.03284326 0.06830590 -0.01315370
v 0.03191203 0.09723225 -0.00790473
v 0.03323203 0.09723225 -0.01315370
v 0.03363887 0.09723225 -0.01448113
v 0.10403257 0.09723225 -0.02481421
v 0.12294647 0.06830590 -0.00590926
v 0.10426764 0.09723225 -0.02449320
v 0.10645558 0.09723225 -0.02133515
v 0.03127916 0.06830590 -0.00603940
v 0.03117067 0.06830590 -0.00551017
v 0.03144190 0.09723225 -0.00545811
v 0.12302784 0.06830590 -0.00479006
v 0.10771229 0.09723225 -0.01932232
v 0.11053310 0.09723225 -0.01435966
v 0.11103940 0.09723225 -0.01313635
v 0.11210624 0.09723225 -0.01050753
v 0.11254021 0.09723225 -0.00868557
v 0.11320926 0.09723225 -0.00545811
v 0.03097177 0.06830590 0.00163016
v 0.03125204 0.09723225 -0.00020914
v 0.12331716 0.06830590 0.00278407
v 0.11333583 0.09723225 -0.00302016
v 0.11358898 0.09723225 0.00222881
v 0.03096272 0.06830590 0.00222881
v 0.03127916 0.09723225 0.00222881
v 0.12279277 0.06830590 0.00402473
v 0.11240460 0.09723225 0.00894401
v 0.11124735 0.09723225 0.01259660
v 0.03210190 0.06830590 0.00992440
v 0.03335860 0.09723225 0.01041893
v 0.11964649 0.06830590 0.00992440
v 0.10877010 0.09723225 0.01740309
v 0.03373833 0.06830590 0.01542497
v 0.03460627 0.09723225 0.01375050
v 0.11504458 0.06830590 0.01521674
v 0.10517175 0.09723225 0.02310320
v 0.10417724 0.09723225 0.02432652
v 0.10204354 0.09723225 0.02694666
v 0.04089885 0.06830590 0.03257737
v 0.03469669 0.09723225 0.01394137
v 0.10258600 0.06830590 0.02846496
v 0.09819205 0.09723225 0.03089423
v 0.04107967 0.06830590 0.03290706
v 0.03634215 0.09723225 0.01722957
v 0.09914136 0.06830590 0.03165772
v 0.09311097 0.09723225 0.03474637
v 0.04044680 0.09723225 0.02410094
v 0.04324952 0.06830590 0.03629936
v 0.09355398 0.06830590 0.03577881
v 0.08925948 0.09723225 0.03728843
v 0.04350267 0.09723225 0.02794440
v 0.04649526 0.06830590 0.03900627
v 0.04735417 0.09723225 0.03148420
v 0.04613363 0.09723225 0.03036500
v 0.09006414 0.06830590 0.03786972
v 0.08469375 0.09723225 0.03912773
v 0.04670321 0.06830590 0.03914508
v 0.05288729 0.09723225 0.03532766
v 0.08469375 0.06830590 0.03986519
v 0.07700884 0.09723225 0.04082823
v 0.05276976 0.06830590 0.04249401
v 0.05551824 0.09723225 0.03673317
v 0.06908888 0.06830590 0.04323147
v 0.07456776 0.09723225 0.04081955
v 0.06162096 0.06830590 0.04461095
v 0.05401743 0.06830590 0.04297119
v 0.05673879 0.09723225 0.03736651
v 0.06931490 0.09723225 0.04061132
v 0.05875495 0.06830590 0.04432464
v 0.06162096 0.09723225 0.03898892
v 0.06687382 0.09723225 0.04017753
f 1 2 3
f 1 3 4
f 1 4 5
f 1 5 6
f 1 6 12
f 1 12 11
f 1 11 10
f 1 10 16
f 1 16 20
f 1 20 25
f 1 25 35
f 1 35 40
f 1 40 39
f 1 39 46
f 1 46 52
f 1 52 61
f 1 61 66
f 1 66 71
f 1 71 75
f 1 75 81
f 1 81 85
f 1 85 89
f 1 89 95
f 1 95 99
f 1 99 103
f 1 103 105
f 1 105 109
f 1 109 106
f 1 106 101
f 1 101 97
f 1 97 92
f 1 92 88
f 1 88 83
f 1 83 79
f 1 79 73
f 1 73 69
f 1 69 64
f 1 64 59
f 1 59 50
f 1 50 49
f 1 49 41
f 1 41 36
f 1 36 27
f 1 27 23
f 1 23 17
f 1 17 13
f 1 13 7
f 1 7 2
f 2 8 14
f 2 14 18
f 2 18 22
f 2 22 21
f 2 21 26
f 2 26 31
f 2 31 30
f 2 30 29
f 2 29 28
f 2 28 37
f 2 37 44
f 2 44 43
f 2 43 42
f 2 42 51
f 2 51 60
f 2 60 65
f 2 65 70
f 2 70 74
f 2 74 80
f 2 80 84
f 2 84 87
f 2 87 91
f 2 91 94
f 2 94 93
f 2 93 98
f 2 98 102
f 2 102 107
f 2 107 110
f 2 110 111
f 2 111 108
f 2 108 104
f 2 104 100
f 2 100 96
f 2 96 90
f 2 90 86
f 2 86 82
f 2 82 78
f 2 78 77
f 2 77 76
f 2 76 72
f 2 72 68
f 2 68 67
f 2 67 63
f 2 63 62
f 2 62 58
f 2 58 57
f 2 57 56
f 2 56 55
f 2 55 54
f 2 54 53
f 2 53 48
f 2 48 47
f 2 47 45
f 2 45 38
f 2 38 34
f 2 34 33
f 2 33 32
f 2 32 24
f 2 24 19
f 2 19 15
f 2 15 9
f 2 9 5
f 2 5 4
f 2 4 3
f 2 7 8
f 5 9 10
f 5 10 11
f 5 11 12
f 5 12 6
f 7 13 8
f 8 13 14
f 9 15 16
f 9 16 10
f 13 17 14
f 14 17 18
f 15 19 16
f 16 19 20
f 17 21 22
f 17 22 18
f 17 23 21
f 19 24 25
f 19 25 20
f 21 23 26
f 23 27 28
f 23 28 29
f 23 29 30
f 23 30 31
f 23 31 26
f 24 32 25
f 25 32 33
f 25 33 34
f 25 34 35
f 27 36 37
f 27 37 28
f 34 38 39
f 34 39 40
f 34 40 35
f 36 41 42
f 36 42 43
f 36 43 44
f 36 44 37
f 38 45 39
f 39 45 47
f 39 47 48
f 39 48 46
f 41 49 42
f 42 49 50
f 42 50 51
f 46 48 53
f 46 53 54
f 46 54 55
f 46 55 56
f 46 56 57
f 46 57 58
f 46 58 52
f 50 59 60
f 50 60 51
f 52 58 62
f 52 62 63
f 52 63 61
f 59 64 60
f 60 64 65
f 61 63 67
f 61 67 68
f 61 68 66
f 64 69 65
f 65 69 70
f 66 68 72
f 66 72 71
f 69 73 70
f 70 73 74
f 71 72 76
f 71 76 77
f 71 77 78
f 71 78 75
f 73 79 74
f 74 79 80
f 75 78 81
f 78 82 81
f 79 83 84
f 79 84 80
f 81 82 85
f 82 86 85
f 83 87 84
f 83 88 87
f 85 86 89
f 86 90 89
f 87 88 91
f 88 92 93
f 88 93 94
f 88 94 91
f 89 90 95
f 90 96 95
f 92 97 98
f 92 98 93
f 95 96 99
f 96 100 99
f 97 101 98
f 98 101 102
f 99 100 103
f 100 104 105
f 100 105 103
f 101 106 107
f 101 107 102
f 104 108 105
f 105 108 109
f 106 109 110
f 106 110 107
f 108 111 109
f 109 111 110

