# https://github.com/mikedh/trimesh
v 0.07017443 0.18432402 0.04844766
v 0.07017443 0.19083102 0.04684920
v 0.06930903 0.19091202 0.04689115
v 0.02413262 0.18506073 0.04818668
v 0.02413262 0.18432402 0.04834047
v 0.02413262 0.17806774 0.04640182
v 0.07017443 0.16201046 0.03943480
v 0.07017443 0.20141117 0.04074898
v 0.02413262 0.19011360 0.04649036
v 0.02413262 0.17551045 0.04135947
v 0.05391669 0.16201046 0.03313419
v 0.05970854 0.16201046 0.03608876
v 0.06009166 0.16201046 0.03625187
v 0.06355775 0.16201046 0.03756139
v 0.06413017 0.16201046 0.03775246
v 0.06930903 0.16201046 0.03929965
v 0.07007527 0.16201046 0.03942082
v 0.07017443 0.16201046 0.02362734
v 0.06930903 0.20141117 0.04065111
v 0.07017443 0.20141117 0.02488094
v 0.02413262 0.19049931 0.04580531
v 0.06282306 0.20141117 0.03954664
v 0.06175033 0.20141117 0.03923441
v 0.02413262 0.17519802 0.04070704
v 0.04897672 0.16201046 0.03005845
v 0.07017443 0.16201431 0.02357608
v 0.04856205 0.16201046 0.00084355
v 0.07017443 0.20139188 0.02358540
v 0.07010682 0.20141117 0.02358540
v 0.04816090 0.20141117 0.03336254
v 0.02413262 0.19255903 0.04070704
v 0.02413262 0.17494731 0.03301302
v 0.03297589 0.16201046 0.00084355
v 0.03310660 0.16201046 0.00223229
v 0.03420187 0.16201046 0.00741445
v 0.03555856 0.16201046 0.01126379
v 0.03860097 0.16201046 0.01762499
v 0.03888944 0.16201046 0.01810033
v 0.04157126 0.16201046 0.02247627
v 0.04513201 0.16201046 0.02631629
v 0.04551513 0.16201046 0.02669843
v 0.04858909 0.16893787 0.00084355
v 0.07017443 0.16893787 0.02354812
v 0.07017443 0.17671773 0.02354812
v 0.04859810 0.17802531 0.00084355
v 0.04854402 0.20111031 0.00084355
v 0.04853951 0.20141117 0.00084355
v 0.04676364 0.20141117 0.03247243
v 0.02413262 0.19279431 0.03972839
v 0.03988554 0.20141117 0.02529104
v 0.03929960 0.20141117 0.02464793
v 0.02413262 0.17537930 0.00223229
v 0.02413262 0.17541018 0.00084355
v 0.04859810 0.17663287 0.00084355
v 0.03124961 0.20141117 0.00084355
v 0.03369255 0.20141117 0.01410186
v 0.03193020 0.20141117 0.01051816
v 0.02413262 0.19518960 0.02473182
v 0.02413262 0.19472288 0.00084355
v 0.03127214 0.20141117 0.00223229
v 0.02413262 0.19538632 0.01090030
v 0.02413262 0.19564474 0.01762499
v 0.03164174 0.20141117 0.00960010
v 0.02413262 0.19523203 0.02429842
v 0.02413262 0.19559074 0.01930267
f 1 2 3
f 1 3 4
f 1 4 5
f 1 5 6
f 1 6 7
f 1 7 18
f 1 18 26
f 1 26 43
f 1 43 44
f 1 44 28
f 1 28 20
f 1 20 8
f 1 8 2
f 2 8 3
f 3 9 4
f 3 8 9
f 4 9 21
f 4 21 31
f 4 31 49
f 4 49 58
f 4 58 64
f 4 64 65
f 4 65 62
f 4 62 61
f 4 61 59
f 4 59 53
f 4 53 52
f 4 52 32
f 4 32 24
f 4 24 10
f 4 10 6
f 4 6 5
f 6 10 11
f 6 11 12
f 6 12 13
f 6 13 14
f 6 14 15
f 6 15 16
f 6 16 17
f 6 17 7
f 7 17 16
f 7 16 15
f 7 15 14
f 7 14 13
f 7 13 12
f 7 12 11
f 7 11 25
f 7 25 41
f 7 41 40
f 7 40 39
f 7 39 38
f 7 38 37
f 7 37 36
f 7 36 35
f 7 35 34
f 7 34 33
f 7 33 27
f 7 27 18
f 8 19 9
f 8 20 29
f 8 29 47
f 8 47 55
f 8 55 60
f 8 60 63
f 8 63 57
f 8 57 56
f 8 56 51
f 8 51 50
f 8 50 48
f 8 48 30
f 8 30 23
f 8 23 22
f 8 22 19
f 9 19 22
f 9 22 23
f 9 23 21
f 10 24 25
f 10 25 11
f 18 27 26
f 20 28 29
f 21 23 30
f 21 30 31
f 24 32 33
f 24 33 34
f 24 34 35
f 24 35 36
f 24 36 37
f 24 37 38
f 24 38 39
f 24 39 40
f 24 40 41
f 24 41 25
f 26 27 42
f 26 42 43
f 27 33 53
f 27 53 59
f 27 59 55
f 27 55 47
f 27 47 46
f 27 46 45
f 27 45 54
f 27 54 42
f 28 44 45
f 28 45 46
f 28 46 47
f 28 47 29
f 30 48 31
f 31 48 50
f 31 50 51
f 31 51 49
f 32 52 33
f 33 52 53
f 42 54 43
f 43 54 45
f 43 45 44
f 49 51 56
f 49 56 57
f 49 57 58
f 55 59 61
f 55 61 62
f 55 62 60
f 57 63 58
f 58 63 64
f 60 62 65
f 60 65 63
f 63 65 64

