# https://github.com/mikedh/trimesh
v -0.03073668 0.33825807 0.03545522
v -0.02304072 0.33825807 0.03411376
v -0.03842590 0.33825807 0.03492697
v -0.03842590 0.29976033 0.03489917
v -0.03073668 0.29976033 0.03539961
v -0.01608605 0.33824487 0.03101380
v -0.01605910 0.33825807 0.03099990
v -0.02304072 0.29976033 0.03402340
v -0.04612186 0.33825807 0.03304337
v -0.04612186 0.29976033 0.03293216
v -0.03842590 0.24589517 0.02764973
v -0.03073668 0.24589517 0.02822662
v -0.01635561 0.29976033 0.03093040
v -0.01223807 0.33824487 0.02854635
v -0.01223807 0.33825807 0.02854635
v -0.01733951 0.29206342 0.03033265
v -0.02304072 0.24589517 0.02644728
v -0.05171524 0.33825807 0.03047861
v -0.05168155 0.29976033 0.03033960
v -0.05110873 0.29339685 0.02994341
v -0.04612186 0.24589517 0.02486254
v -0.03508335 0.21110725 0.02158882
v -0.03340533 0.21110725 0.02158882
v -0.01694191 0.24589517 0.02316660
v -0.01250763 0.29976033 0.02818492
v -0.01244698 0.30745723 0.02827528
v -0.00898313 0.33825807 0.02467488
v -0.02876215 0.21512074 0.02117874
v -0.02304072 0.21512074 0.01894761
v -0.01761581 0.23995417 0.02262446
v -0.05556322 0.33825807 0.02740645
v -0.05552953 0.29976033 0.02737170
v -0.05052918 0.24124798 0.02192940
v -0.04994288 0.21152973 0.01373467
v -0.04481449 0.21009069 0.01554182
v -0.03796091 0.20943057 0.01791197
v -0.03842590 0.20535108 0.00992576
v -0.03111406 0.20482299 0.00936276
v -0.03080407 0.20929854 0.01823170
v -0.02304072 0.20945698 0.01629944
v -0.01814819 0.21023591 0.01484677
v -0.01309393 0.24589517 0.01975387
v -0.00946834 0.29976033 0.02433430
v -0.00938073 0.30745723 0.02442466
v -0.01000072 0.24589517 0.01591020
v -0.00515536 0.33825807 0.01930208
v -0.05957968 0.33825807 0.02356279
v -0.05954598 0.29976033 0.02352803
v -0.05773993 0.24190809 0.01388759
v -0.05888556 0.29206342 0.02279822
v -0.05850817 0.24035023 0.00992576
v -0.05398629 0.21512074 0.00222452
v -0.05102113 0.21038113 0.00860515
v -0.04687663 0.20854603 0.01066947
v -0.04249627 0.20342355 0.00006985
v -0.02879584 0.20339715 0.00642267
v -0.02652479 0.20339715 0.00642267
v -0.01662517 0.20936456 0.00992576
v -0.01134852 0.21101484 -0.00010392
v -0.01399696 0.21512074 0.00992576
v -0.01040506 0.24005978 0.01531246
v -0.00562036 0.29976033 0.01837071
v -0.00703555 0.24589517 0.00992576
v -0.00355822 0.29504713 0.01422122
v -0.00269562 0.33825807 0.01542366
v -0.06342092 0.33825807 0.01817609
v -0.06342092 0.33824487 0.01817609
v -0.06339396 0.29976033 0.01816219
v -0.05934381 0.24589517 0.00992576
v -0.06556393 0.29517915 0.01413086
v -0.06119704 0.24589517 0.00222452
v -0.05344717 0.21512074 -0.00546281
v -0.05145916 0.21005108 -0.00546281
v -0.05167481 0.20987946 0.00222452
v -0.06087357 0.24589517 -0.00546281
v -0.04548839 0.20558871 0.00247474
v -0.04249627 0.20342355 -0.00217519
v -0.03837873 0.20341035 -0.00539330
v -0.02879584 0.20339715 0.00375365
v -0.02652479 0.20339715 0.00375365
v -0.02359332 0.20470417 0.00160592
v -0.01469108 0.20916653 0.00236354
v -0.01172591 0.21512074 0.00449041
v -0.01134852 0.21101484 -0.00225860
v -0.00518232 0.24589517 0.00222452
v -0.00338974 0.29976033 0.01452009
v -0.00198803 0.29976033 0.00992576
v -0.00075479 0.33825807 0.00989101
v -0.06567175 0.33825807 0.01433242
v -0.06566501 0.29976033 0.01431157
v -0.06694542 0.29976033 0.00992576
v -0.06832693 0.29976033 0.00222452
v -0.06804389 0.29976033 -0.00546281
v -0.05850143 0.24037664 -0.01091901
v -0.05073135 0.21059236 -0.01047417
v -0.06602892 0.29358168 -0.01096767
v -0.04618251 0.20911372 -0.01308759
v -0.04028587 0.20414967 -0.00730471
v -0.03515748 0.20341035 -0.00956365
v -0.03287969 0.20341035 -0.00956365
v -0.02304072 0.20519265 -0.00546281
v -0.01498759 0.20927214 -0.00508053
v -0.01730581 0.20994546 -0.01182954
v -0.01239981 0.21512074 -0.00642894
v -0.01102505 0.24112915 -0.01756376
v -0.00832270 0.24589517 -0.01315710
v -0.00553949 0.24589517 -0.00546281
v -0.00088956 0.29976033 -0.00546281
v -0.00059979 0.29976033 0.00222452
v 0.00042454 0.33825807 0.00218977
v -0.06699260 0.33825807 0.00992576
v -0.06842127 0.33825807 0.00223147
v -0.06827302 0.33825807 -0.00546281
v -0.06655456 0.33825807 -0.01205891
v -0.06636587 0.29976033 -0.01180173
v -0.05891251 0.24589517 -0.01172528
v -0.05673581 0.24589517 -0.01557590
v -0.04827161 0.21512074 -0.01511021
v -0.04364864 0.21032833 -0.01793214
v -0.06474177 0.29976033 -0.01564540
v -0.03800808 0.20572074 -0.01254545
v -0.03842590 0.20966822 -0.01875926
v -0.03073668 0.20949658 -0.01900948
v -0.03048060 0.20528507 -0.01254545
v -0.02230617 0.20829518 -0.01390081
v -0.02438178 0.21011709 -0.01826577
v -0.01924665 0.21344406 -0.01695906
v -0.01895014 0.24169686 -0.02486186
v -0.01114635 0.29491511 -0.02503563
v -0.00757467 0.29976033 -0.02085138
v -0.00430625 0.29976033 -0.01591647
v -0.00268215 0.29976033 -0.01207281
v -0.00200150 0.33825807 -0.01380350
v 0.00018194 0.33825807 -0.00549061
v -0.06484285 0.33825807 -0.01593038
v -0.05288783 0.24589517 -0.01994086
v -0.05797579 0.29500752 -0.02499392
v -0.04379690 0.24060107 -0.02542486
v -0.03842590 0.21512074 -0.02072627
v -0.04840639 0.24589517 -0.02378452
v -0.06166877 0.33825807 -0.02085138
v -0.06135878 0.29976033 -0.02085138
v -0.03073668 0.21512074 -0.02126147
v -0.02304072 0.24016540 -0.02564728
v -0.02304072 0.24589517 -0.02651610
v -0.02505569 0.29364769 -0.03306354
v -0.02409201 0.29976033 -0.03341802
v -0.02024403 0.29976033 -0.03197230
v -0.01534476 0.29976033 -0.02866383
v -0.01092397 0.29976033 -0.02524414
v -0.00612578 0.33825807 -0.02081663
v -0.00213629 0.33825807 -0.01420663
v -0.05813079 0.29976033 -0.02513988
v -0.05381782 0.29976033 -0.02851092
v -0.04881073 0.29976033 -0.03191670
v -0.03842590 0.24589517 -0.02764904
v -0.03842590 0.23905641 -0.02617552
v -0.04406646 0.29371370 -0.03304964
v -0.05836666 0.33825807 -0.02533450
v -0.03073668 0.24589517 -0.02820509
v -0.03073668 0.29976033 -0.03494020
v -0.03077037 0.33825807 -0.03555184
v -0.02257573 0.33825807 -0.03357788
v -0.02242073 0.33825807 -0.03352228
v -0.02211747 0.33825807 -0.03339022
v -0.01961730 0.33626453 -0.03222252
v -0.01655105 0.33825807 -0.03036672
v -0.01601866 0.33825807 -0.03002614
v -0.01039158 0.33825807 -0.02578629
v -0.05833970 0.33824487 -0.02535535
v -0.05384477 0.33825807 -0.02883759
v -0.04916116 0.33825807 -0.03204181
v -0.04534013 0.33825807 -0.03362654
v -0.04496275 0.29976033 -0.03337632
v -0.03842590 0.29976033 -0.03489849
v -0.03845959 0.33825807 -0.03536418
v -0.04531317 0.33824487 -0.03363349
f 1 2 7
f 1 7 15
f 1 15 27
f 1 27 46
f 1 46 65
f 1 65 88
f 1 88 110
f 1 110 134
f 1 134 133
f 1 133 152
f 1 152 151
f 1 151 169
f 1 169 168
f 1 168 167
f 1 167 165
f 1 165 164
f 1 164 163
f 1 163 162
f 1 162 176
f 1 176 173
f 1 173 172
f 1 172 171
f 1 171 159
f 1 159 141
f 1 141 135
f 1 135 114
f 1 114 113
f 1 113 112
f 1 112 111
f 1 111 89
f 1 89 66
f 1 66 47
f 1 47 31
f 1 31 18
f 1 18 9
f 1 9 3
f 1 3 4
f 1 4 5
f 1 5 2
f 2 6 7
f 2 5 8
f 2 8 6
f 3 9 4
f 4 9 10
f 4 10 11
f 4 11 12
f 4 12 5
f 5 12 8
f 6 8 13
f 6 13 7
f 7 14 15
f 7 13 14
f 8 16 13
f 8 12 17
f 8 17 16
f 9 18 10
f 10 18 19
f 10 19 20
f 10 20 21
f 10 21 11
f 11 21 22
f 11 22 12
f 12 22 23
f 12 23 17
f 13 16 24
f 13 24 25
f 13 25 26
f 13 26 14
f 14 27 15
f 14 26 27
f 16 17 24
f 17 23 28
f 17 28 29
f 17 29 30
f 17 30 24
f 18 31 32
f 18 32 19
f 19 32 20
f 20 32 33
f 20 33 21
f 21 33 22
f 22 33 34
f 22 34 35
f 22 35 36
f 22 36 37
f 22 37 38
f 22 38 39
f 22 39 23
f 23 39 40
f 23 40 41
f 23 41 29
f 23 29 28
f 24 30 42
f 24 42 25
f 25 43 44
f 25 44 27
f 25 27 26
f 25 42 45
f 25 45 43
f 27 44 46
f 29 41 30
f 30 41 42
f 31 47 48
f 31 48 32
f 32 48 33
f 33 49 34
f 33 48 50
f 33 50 49
f 34 51 52
f 34 52 53
f 34 53 54
f 34 54 35
f 34 49 51
f 35 54 37
f 35 37 36
f 37 54 55
f 37 55 56
f 37 56 38
f 38 56 57
f 38 57 39
f 39 57 40
f 40 57 41
f 41 57 58
f 41 58 59
f 41 59 60
f 41 60 61
f 41 61 42
f 42 61 45
f 43 62 46
f 43 46 44
f 43 45 62
f 45 61 63
f 45 63 64
f 45 64 62
f 46 62 65
f 47 66 67
f 47 67 68
f 47 68 48
f 48 68 49
f 48 49 50
f 49 69 51
f 49 68 70
f 49 70 69
f 51 69 71
f 51 71 52
f 52 72 73
f 52 73 74
f 52 74 53
f 52 71 75
f 52 75 72
f 53 74 76
f 53 76 54
f 54 76 55
f 55 77 78
f 55 78 56
f 55 76 74
f 55 74 77
f 56 79 80
f 56 80 57
f 56 78 79
f 57 80 81
f 57 81 82
f 57 82 58
f 58 82 59
f 59 83 60
f 59 82 84
f 59 84 85
f 59 85 63
f 59 63 83
f 60 83 61
f 61 83 63
f 62 64 86
f 62 86 65
f 63 85 87
f 63 87 64
f 64 87 86
f 65 86 88
f 66 89 67
f 67 89 90
f 67 90 68
f 68 90 70
f 69 70 71
f 70 90 91
f 70 91 71
f 71 91 92
f 71 92 93
f 71 93 75
f 72 94 95
f 72 95 73
f 72 75 94
f 73 77 74
f 73 95 77
f 75 93 96
f 75 96 94
f 77 97 98
f 77 98 99
f 77 99 78
f 77 95 97
f 78 99 79
f 79 99 100
f 79 100 80
f 80 100 101
f 80 101 81
f 81 101 82
f 82 101 84
f 84 101 102
f 84 102 103
f 84 103 104
f 84 104 105
f 84 105 106
f 84 106 107
f 84 107 85
f 85 107 108
f 85 108 109
f 85 109 87
f 86 87 88
f 87 109 88
f 88 109 110
f 89 111 90
f 90 111 91
f 91 111 112
f 91 112 92
f 92 112 113
f 92 113 93
f 93 113 114
f 93 114 115
f 93 115 96
f 94 96 116
f 94 116 117
f 94 117 95
f 95 118 119
f 95 119 97
f 95 117 118
f 96 115 120
f 96 120 116
f 97 119 98
f 98 119 121
f 98 121 99
f 99 121 122
f 99 122 123
f 99 123 124
f 99 124 100
f 100 124 125
f 100 125 101
f 101 125 103
f 101 103 102
f 103 125 126
f 103 126 127
f 103 127 104
f 104 127 105
f 105 127 128
f 105 128 129
f 105 129 130
f 105 130 131
f 105 131 106
f 106 131 132
f 106 132 107
f 107 132 108
f 108 132 133
f 108 133 134
f 108 134 109
f 109 134 110
f 114 135 120
f 114 120 115
f 116 120 117
f 117 136 118
f 117 120 137
f 117 137 136
f 118 136 119
f 119 138 139
f 119 139 122
f 119 122 121
f 119 136 140
f 119 140 138
f 120 135 141
f 120 141 142
f 120 142 137
f 122 139 143
f 122 143 123
f 123 143 126
f 123 126 124
f 124 126 125
f 126 143 144
f 126 144 128
f 126 128 127
f 128 144 145
f 128 145 146
f 128 146 147
f 128 147 148
f 128 148 149
f 128 149 129
f 129 149 150
f 129 150 130
f 130 150 151
f 130 151 131
f 131 151 152
f 131 152 132
f 132 152 133
f 136 137 140
f 137 142 153
f 137 153 154
f 137 154 155
f 137 155 140
f 138 156 157
f 138 157 139
f 138 140 155
f 138 155 158
f 138 158 156
f 139 157 143
f 141 159 142
f 142 159 153
f 143 160 144
f 143 157 160
f 144 160 145
f 145 160 146
f 146 161 147
f 146 160 161
f 147 161 162
f 147 162 163
f 147 163 164
f 147 164 148
f 148 164 165
f 148 165 166
f 148 166 167
f 148 167 168
f 148 168 149
f 149 168 169
f 149 169 150
f 150 169 151
f 153 159 154
f 154 159 170
f 154 170 171
f 154 171 172
f 154 172 155
f 155 172 173
f 155 173 174
f 155 174 158
f 156 160 157
f 156 158 175
f 156 175 160
f 158 174 175
f 159 171 170
f 160 175 161
f 161 175 162
f 162 175 176
f 165 167 166
f 173 176 177
f 173 177 174
f 174 177 176
f 174 176 175

