# https://github.com/mikedh/trimesh
v -1.59244238 -0.10312145 3.94649390
v -1.59244238 0.10318186 3.94649390
v -1.16754059 -0.10312145 3.94649390
v -1.65184611 -0.10312145 20.52638573
v -1.66059165 -0.05654793 20.52638573
v -1.66026165 -0.05206311 20.39670104
v -1.55267482 0.30948513 3.94649390
v -1.66026165 0.05229604 20.39670104
v -1.66059165 0.05660841 20.52638573
v -1.64112041 0.15976003 20.52638573
v -1.16770567 -0.10312145 4.02364786
v 0.02515441 1.16695468 3.94649390
v 0.02515441 1.19938369 20.52638573
v -1.57066098 -0.10312145 20.65935230
v -1.65382626 -0.02308403 20.63308754
v -1.50845202 0.51578841 3.94649390
v -1.61125347 0.30948513 20.52638573
v -1.65382626 0.02331697 20.63308754
v -1.20351292 -0.10312145 20.52638573
v 0.02515441 1.59180836 3.94649390
v 0.02515441 1.21904799 20.64950302
v -1.22100401 -0.10312145 20.64786148
v -1.56109036 -0.10312145 20.67412746
v -1.56241052 -0.09639411 20.67412746
v -1.48073047 0.60272560 3.94649390
v -1.56620575 0.51578841 20.52638573
v -1.56241052 0.09645459 20.67412746
v -1.52297296 0.30948513 20.68069364
v -1.49987156 0.51578841 20.67084437
v -1.47313985 0.67172335 20.65278611
v -0.10322367 1.59198096 3.94649390
v 0.02515441 1.65908121 20.39998413
v 0.02515441 1.29494558 20.68397674
v 0.02515441 1.34082913 20.70367531
v -1.34179162 -0.10312145 20.70203377
v -1.34080146 0.30948513 20.71516614
v -1.46439431 0.65378391 3.94649390
v -1.49294109 0.70553223 20.52638573
v -1.34080146 0.51578841 20.71516614
v -1.35515747 0.73313136 20.68233520
v -1.28915328 0.92822250 20.66099386
v -1.24823072 1.04793358 20.63801219
v -1.43337244 0.80851135 20.52638573
v -0.30948663 1.55213471 3.94649390
v -0.15074662 1.63976183 20.52638573
v -0.04646009 1.65908121 20.39998413
v 0.02515441 1.65873630 20.52638573
v -0.30948663 1.34082913 20.71680770
v 0.02515441 1.56179432 20.67412746
v -1.43997275 0.69190516 3.94649390
v -0.51574960 1.34082913 20.71516614
v -0.92827561 1.13452582 20.70859996
v -1.13453858 0.92822250 20.70859996
v -1.12348288 1.12383117 20.66099386
v -1.04741306 1.24785453 20.63637065
v -1.16737567 1.16798971 20.52638573
v -1.26044149 1.06483806 20.52638573
v -1.35284732 0.92822250 20.52638573
v -1.22628432 1.01429723 3.94649390
v -1.33337608 0.85404992 3.94649390
v -1.39822519 0.75693556 3.94649390
v -0.51574960 1.50814861 3.94649390
v -0.30948663 1.60836785 20.52638573
v -0.01692323 1.65287131 20.63144600
v -0.04761517 1.65873630 20.52638573
v 0.02515441 1.65683869 20.56085823
v -0.09282797 1.56196678 20.67412746
v -0.30948663 1.52143070 20.68069364
v 0.02515441 1.64217666 20.63637065
v 0.01624386 1.65287131 20.63144600
v -0.51574960 1.49848900 20.67084437
v -0.73273826 1.35480104 20.68233520
v -0.92827561 1.28856322 20.66099386
v -0.80765300 1.43276854 20.52638573
v -0.92827561 1.35169624 20.52638573
v -1.06424415 1.25975667 20.52638573
v -0.67118938 1.47226974 20.65278611
v -1.01408097 1.22612032 3.94649390
v -1.12298780 1.12296859 3.94649390
v -1.16127028 1.08277742 3.94649390
v -0.60254507 1.48054941 3.94649390
v -0.51574960 1.56351918 20.52638573
v 0.02515441 1.65459631 20.60025659
v -0.70452148 1.49176173 20.52638573
v -0.65353329 1.46433498 3.94649390
v -0.75666482 1.39826976 3.94649390
v -0.91094952 1.29511803 3.94649390
f 1 2 7
f 1 7 16
f 1 16 25
f 1 25 37
f 1 37 50
f 1 50 61
f 1 61 60
f 1 60 59
f 1 59 80
f 1 80 79
f 1 79 78
f 1 78 87
f 1 87 86
f 1 86 85
f 1 85 81
f 1 81 62
f 1 62 44
f 1 44 31
f 1 31 20
f 1 20 12
f 1 12 3
f 1 3 11
f 1 11 19
f 1 19 22
f 1 22 35
f 1 35 23
f 1 23 14
f 1 14 4
f 1 4 5
f 1 5 6
f 1 6 8
f 1 8 2
f 2 8 9
f 2 9 10
f 2 10 7
f 3 12 13
f 3 13 11
f 4 14 15
f 4 15 5
f 5 15 18
f 5 18 9
f 5 9 8
f 5 8 6
f 7 10 17
f 7 17 16
f 9 18 10
f 10 18 17
f 11 13 19
f 12 20 32
f 12 32 47
f 12 47 66
f 12 66 83
f 12 83 69
f 12 69 49
f 12 49 34
f 12 34 33
f 12 33 21
f 12 21 13
f 13 21 22
f 13 22 19
f 14 23 15
f 15 23 24
f 15 24 27
f 15 27 18
f 16 17 26
f 16 26 25
f 17 18 26
f 18 27 28
f 18 28 29
f 18 29 30
f 18 30 26
f 20 31 32
f 21 33 22
f 22 33 34
f 22 34 35
f 23 35 36
f 23 36 24
f 24 36 39
f 24 39 27
f 25 26 37
f 26 30 38
f 26 38 37
f 27 39 28
f 28 39 29
f 29 39 40
f 29 40 30
f 30 40 41
f 30 41 42
f 30 42 43
f 30 43 38
f 31 44 45
f 31 45 46
f 31 46 32
f 32 46 65
f 32 65 47
f 34 48 35
f 34 49 48
f 35 48 36
f 36 48 39
f 37 38 43
f 37 43 50
f 39 48 51
f 39 51 52
f 39 52 53
f 39 53 40
f 40 53 41
f 41 54 42
f 41 53 54
f 42 55 56
f 42 56 57
f 42 57 58
f 42 58 43
f 42 54 55
f 43 58 59
f 43 59 60
f 43 60 61
f 43 61 50
f 44 62 63
f 44 63 45
f 45 63 64
f 45 64 65
f 45 65 46
f 47 65 66
f 48 49 67
f 48 67 68
f 48 68 51
f 49 69 70
f 49 70 67
f 51 68 71
f 51 71 72
f 51 72 52
f 52 72 73
f 52 73 54
f 52 54 53
f 54 73 55
f 55 74 75
f 55 75 76
f 55 76 56
f 55 73 77
f 55 77 74
f 56 76 78
f 56 78 79
f 56 79 80
f 56 80 59
f 56 59 57
f 57 59 58
f 62 81 82
f 62 82 63
f 63 82 64
f 64 70 66
f 64 66 65
f 64 82 77
f 64 77 71
f 64 71 68
f 64 68 67
f 64 67 70
f 66 70 83
f 69 83 70
f 71 77 72
f 72 77 73
f 74 77 84
f 74 84 85
f 74 85 86
f 74 86 87
f 74 87 78
f 74 78 75
f 75 78 76
f 77 82 84
f 81 85 82
f 82 85 84

