# https://github.com/mikedh/trimesh
v 1.20825685 0.17908132 -4.06279417
v 1.20841838 0.17908132 -4.05750136
v 1.26883960 0.53361334 -4.06279417
v 2.82185980 0.17908132 -4.06279417
v 1.37885804 0.28649132 -3.36955973
v 1.37514232 0.37593350 -3.36955973
v 1.37514232 0.37771700 -3.36955973
v 1.49404612 0.17908132 -3.63420489
v 1.33750013 0.62331964 -4.06279417
v 1.37691941 0.38775782 -3.36955973
v 1.39242863 0.47402907 -3.36955973
v 1.39194382 0.76270146 -3.68591221
v 1.39194382 0.76270146 -3.72927349
v 2.78486395 0.47990824 -4.06279417
v 2.85869412 0.39746832 -3.36955973
v 2.84980866 0.26746660 -3.36955973
v 2.83979225 0.26046454 -3.36955973
v 2.59374534 0.17908132 -3.62083699
v 1.47142854 0.26290866 -3.36955973
v 1.99680270 0.17908132 -3.36955973
v 1.46092752 0.79592854 -3.77215947
v 1.50050835 0.77822505 -3.87632118
v 1.59921790 0.80649781 -3.91588215
v 1.73815441 0.80709224 -4.05505828
v 1.74574748 0.80702626 -4.06279417
v 1.45963504 0.54741931 -3.36955973
v 1.52845720 0.76270146 -3.54694002
v 1.47756759 0.78661432 -3.63508681
v 1.60971891 0.83450623 -3.62836894
v 2.84011553 0.51201233 -3.36955973
v 2.75723816 0.59775534 -4.06279417
v 2.22427103 0.17908132 -3.36955973
v 1.60971891 0.84685901 -3.76707019
v 1.74849389 0.84857653 -3.90590711
v 1.88726897 0.84857653 -4.04467619
v 1.88613802 0.84349004 -4.06279417
v 1.66707065 0.76270146 -3.40783132
v 1.73346938 0.78139577 -3.36955973
v 1.61634257 0.78661432 -3.49624989
v 1.75430997 0.79189896 -3.36955973
v 1.74849389 0.83549706 -3.48953202
v 2.69390880 0.79057782 -3.76707019
v 2.68663890 0.77822505 -3.65958346
v 2.72072692 0.60019946 -3.36955973
v 2.67226064 0.77214774 -3.85820321
v 2.44253062 0.79460730 -4.06279417
v 1.88726897 0.84804808 -3.48953202
v 2.02604405 0.85386116 -3.76707019
v 1.90536295 0.84837839 -4.06279417
v 1.88726897 0.83734675 -3.36955973
v 2.58114416 0.84197076 -3.76707019
v 2.59019115 0.80570503 -3.61934408
v 2.54980266 0.77822505 -3.52081479
v 2.41102758 0.77822505 -3.38197786
v 2.38081702 0.78694463 -3.36955973
v 2.58033628 0.79817452 -3.90502477
v 2.32168819 0.83483654 -4.06279417
v 2.02604405 0.84712323 -3.36955973
v 2.16465739 0.84804808 -3.36955973
v 2.18355925 0.84804808 -3.36955973
v 2.44236908 0.84712323 -3.62836894
v 2.44236908 0.84712323 -3.76707019
v 2.30359400 0.84884076 -3.90590711
v 2.16465739 0.84851045 -4.04467619
v 2.16465739 0.84784993 -4.06279417
v 2.44236908 0.84362220 -3.90590711
v 2.31118718 0.81422646 -3.36955973
v 2.34075159 0.80636564 -3.36955973
v 2.30343247 0.83919633 -4.06279417
v 2.30359400 0.84520756 -4.04467619
f 1 2 3
f 1 3 9
f 1 9 25
f 1 25 36
f 1 36 49
f 1 49 65
f 1 65 69
f 1 69 57
f 1 57 46
f 1 46 31
f 1 31 14
f 1 14 4
f 1 4 18
f 1 18 32
f 1 32 20
f 1 20 8
f 1 8 2
f 2 5 6
f 2 6 7
f 2 7 3
f 2 8 5
f 3 7 10
f 3 10 11
f 3 11 12
f 3 12 13
f 3 13 9
f 4 14 15
f 4 15 16
f 4 16 17
f 4 17 18
f 5 8 19
f 5 19 20
f 5 20 32
f 5 32 17
f 5 17 16
f 5 16 15
f 5 15 30
f 5 30 44
f 5 44 55
f 5 55 68
f 5 68 67
f 5 67 60
f 5 60 59
f 5 59 58
f 5 58 50
f 5 50 40
f 5 40 38
f 5 38 26
f 5 26 11
f 5 11 10
f 5 10 7
f 5 7 6
f 8 20 19
f 9 13 21
f 9 21 22
f 9 22 23
f 9 23 24
f 9 24 25
f 11 26 12
f 12 26 27
f 12 27 28
f 12 28 29
f 12 29 21
f 12 21 13
f 14 30 15
f 14 31 30
f 17 32 18
f 21 29 33
f 21 33 23
f 21 23 22
f 23 33 34
f 23 34 24
f 24 34 35
f 24 35 25
f 25 35 36
f 26 37 27
f 26 38 37
f 27 37 38
f 27 38 28
f 28 39 40
f 28 40 41
f 28 41 29
f 28 38 39
f 29 41 33
f 30 31 42
f 30 42 43
f 30 43 44
f 31 45 42
f 31 46 45
f 33 41 47
f 33 47 48
f 33 48 34
f 34 48 35
f 35 48 49
f 35 49 36
f 38 40 39
f 40 50 41
f 41 50 47
f 42 45 51
f 42 51 43
f 43 51 52
f 43 52 53
f 43 53 44
f 44 53 54
f 44 54 55
f 45 46 56
f 45 56 51
f 46 51 56
f 46 57 51
f 47 50 58
f 47 58 48
f 48 58 59
f 48 59 60
f 48 60 61
f 48 61 62
f 48 62 63
f 48 63 64
f 48 64 49
f 49 64 65
f 51 57 66
f 51 66 63
f 51 63 62
f 51 62 61
f 51 61 52
f 52 61 60
f 52 60 67
f 52 67 68
f 52 68 53
f 53 68 55
f 53 55 54
f 57 69 70
f 57 70 66
f 63 66 70
f 63 70 64
f 64 70 65
f 65 70 69

