# https://github.com/mikedh/trimesh
v 5.74779038 0.16938923 1.47178647
v 5.96867052 0.16938923 1.47178647
v 5.74003215 0.16938923 1.50741496
v 5.62581101 0.28771121 1.47178647
v 6.08080557 0.72704257 1.47178647
v 6.01860985 0.16938923 1.50800040
v 5.76115538 0.16938923 2.20150154
v 5.62581101 0.19003199 1.99659599
v 5.62581101 0.19773561 1.92943695
v 5.62581101 0.84955277 1.47178647
v 6.08080557 0.76795414 1.47178647
v 6.29184138 0.81380194 1.94499312
v 6.24105446 0.16938923 1.90100111
v 5.78990654 0.16938923 2.32227054
v 5.62581101 0.27252816 2.07312199
v 5.77367279 0.84798210 1.47178647
v 5.62581101 0.84955277 1.47412821
v 5.93705103 0.92135372 2.30805256
v 6.06124722 0.93332044 2.21137048
v 6.20004692 0.93339521 2.07262022
v 6.28832071 0.92157803 1.96121838
v 6.07956707 0.76862727 1.47178647
v 6.29184138 0.81380194 2.03607153
v 6.24894299 0.16938923 1.92374982
v 5.91312442 0.16938923 2.32620136
v 5.89943386 0.82569400 2.31139805
v 5.82406839 0.67506181 2.29283105
v 5.62581101 0.39750659 2.12631373
v 5.91247249 0.83885744 1.47178647
v 5.62581101 0.84947800 1.50741496
v 5.62581101 0.80101245 1.93478973
v 5.62581101 0.79510380 1.94532777
v 5.83234825 0.78725064 2.28563830
v 6.02160890 0.92135372 2.30805256
v 5.62581101 0.84835615 1.64624899
v 5.62581101 0.84828138 1.65528161
v 5.62581101 0.84514003 1.78499946
v 5.62581101 0.84491562 1.79403197
v 6.16040859 0.92135372 2.17172760
v 6.28832071 0.92157803 2.03306070
v 6.18922469 0.16938923 2.05028951
v 6.22847210 0.81380194 2.10548875
v 6.02336903 0.81380194 2.31047807
v 5.62581101 0.42031838 2.11661212
f 1 2 6
f 1 6 13
f 1 13 24
f 1 24 41
f 1 41 25
f 1 25 14
f 1 14 7
f 1 7 3
f 1 3 4
f 1 4 10
f 1 10 16
f 1 16 29
f 1 29 22
f 1 22 11
f 1 11 5
f 1 5 2
f 2 5 6
f 3 7 8
f 3 8 9
f 3 9 4
f 4 9 8
f 4 8 15
f 4 15 28
f 4 28 44
f 4 44 32
f 4 32 31
f 4 31 38
f 4 38 37
f 4 37 36
f 4 36 35
f 4 35 30
f 4 30 17
f 4 17 10
f 5 11 12
f 5 12 13
f 5 13 6
f 7 14 8
f 8 14 15
f 10 17 18
f 10 18 19
f 10 19 20
f 10 20 21
f 10 21 16
f 11 22 21
f 11 21 12
f 12 21 40
f 12 40 23
f 12 23 24
f 12 24 13
f 14 25 26
f 14 26 27
f 14 27 28
f 14 28 15
f 16 21 29
f 17 30 18
f 18 31 32
f 18 32 33
f 18 33 26
f 18 26 34
f 18 34 19
f 18 30 35
f 18 35 36
f 18 36 37
f 18 37 38
f 18 38 31
f 19 34 39
f 19 39 20
f 20 39 40
f 20 40 21
f 21 22 29
f 23 41 24
f 23 40 42
f 23 42 41
f 25 43 34
f 25 34 26
f 25 41 43
f 26 33 27
f 27 33 28
f 28 33 44
f 32 44 33
f 34 43 39
f 39 42 40
f 39 43 42
f 41 42 43

