# https://github.com/mikedh/trimesh
v 1.99057461 2.61830887 -4.18355034
v 2.01298888 2.61830887 -4.32225076
v 2.05110617 2.46878659 -4.33279086
v 2.03084211 2.48730665 -4.18355034
v 2.05188799 2.48567253 -4.04472045
v 2.07892844 2.50541816 -3.95956030
v 2.04563280 2.62784124 -4.03359874
v 2.23100689 3.80059697 -4.23334034
v 2.23100689 3.80059697 -4.25610126
v 2.06798212 2.61830887 -4.42254184
v 2.07352043 2.47954454 -4.41646391
v 2.09378449 2.40954959 -4.39363804
v 2.09378449 2.40954959 -4.38600764
v 2.16480651 2.42330349 -4.04472045
v 2.16480651 2.48471925 -3.93472983
v 2.30365791 2.61830887 -3.88254762
v 2.15399029 2.62784124 -3.92962152
v 2.07892844 2.58780523 -3.95956030
v 2.29603454 3.80059697 -4.20663475
v 2.25544107 3.80059697 -4.25965793
v 2.21589024 2.57187253 -4.53809332
v 2.16767360 2.61830887 -4.49438167
v 2.21589024 2.51603997 -4.53809332
v 2.30365791 2.49656668 -4.54307257
v 2.30365791 2.43528706 -4.46108065
v 2.10075635 2.40954959 -4.39363804
v 2.10075635 2.40954959 -4.38600764
v 2.50857939 2.40982194 -3.97469122
v 2.30365791 2.48648956 -3.91681868
v 2.45436797 2.46865039 -3.93886852
v 2.44237901 2.61830887 -3.91093434
v 2.38093512 3.80059697 -4.23722008
v 2.29629514 3.80059697 -4.26140358
v 2.30365791 2.58712435 -4.54307257
v 2.39774593 2.51195464 -4.53958044
v 2.44335629 2.47464218 -4.46864611
v 2.44237901 2.42194171 -4.32225076
v 2.51248870 2.40982194 -3.97811841
v 2.51248870 2.40982194 -3.97469122
v 2.52956011 2.47954454 -3.95949576
v 2.53073305 2.61830887 -3.95839625
v 2.38093512 3.80059697 -4.26049849
v 2.60129901 2.60836795 -4.05564816
v 2.65270850 2.55553128 -4.10912389
v 2.65616174 2.56601689 -4.18355034
v 2.34392541 3.80059697 -4.26166212
v 2.39774593 2.57677489 -4.53958044
v 2.54878174 2.61830887 -4.43055985
v 2.54578435 2.50296696 -4.42739161
v 2.58768085 2.48145101 -4.31817702
v 2.58116526 2.45925417 -4.18355034
v 2.65616174 2.52066998 -4.18355034
v 2.65270850 2.53701123 -4.10912389
v 2.65583599 2.56519985 -4.26916305
v 2.61810961 2.61422354 -4.31817702
v 2.44335629 2.62116856 -4.50188260
v 2.65583599 2.52325733 -4.26916305
f 1 2 3
f 1 3 4
f 1 4 5
f 1 5 6
f 1 6 7
f 1 7 8
f 1 8 9
f 1 9 2
f 2 10 11
f 2 11 3
f 2 9 10
f 3 11 12
f 3 12 4
f 4 12 13
f 4 13 5
f 5 13 14
f 5 14 6
f 6 14 15
f 6 15 16
f 6 16 17
f 6 17 18
f 6 18 7
f 7 18 8
f 8 19 32
f 8 32 42
f 8 42 46
f 8 46 33
f 8 33 20
f 8 20 9
f 8 18 17
f 8 17 19
f 9 20 21
f 9 21 22
f 9 22 10
f 10 22 21
f 10 21 23
f 10 23 11
f 11 23 12
f 12 24 25
f 12 25 26
f 12 26 27
f 12 27 13
f 12 23 24
f 13 27 39
f 13 39 28
f 13 28 14
f 14 28 15
f 15 29 16
f 15 28 29
f 16 29 30
f 16 30 31
f 16 31 19
f 16 19 17
f 19 31 32
f 20 33 34
f 20 34 21
f 21 34 24
f 21 24 23
f 24 34 47
f 24 47 35
f 24 35 25
f 25 35 36
f 25 36 37
f 25 37 26
f 26 37 38
f 26 38 39
f 26 39 27
f 28 39 29
f 29 39 30
f 30 40 31
f 30 39 40
f 31 40 41
f 31 41 32
f 32 41 43
f 32 43 44
f 32 44 45
f 32 45 42
f 33 46 34
f 34 46 42
f 34 42 47
f 35 47 48
f 35 48 49
f 35 49 36
f 36 49 50
f 36 50 37
f 37 50 51
f 37 51 38
f 38 51 39
f 39 51 52
f 39 52 53
f 39 53 40
f 40 53 41
f 41 53 44
f 41 44 43
f 42 45 54
f 42 54 55
f 42 55 48
f 42 48 56
f 42 56 47
f 44 53 52
f 44 52 45
f 45 52 57
f 45 57 54
f 47 56 48
f 48 55 54
f 48 54 57
f 48 57 49
f 49 57 50
f 50 57 51
f 51 57 52

