# https://github.com/mikedh/trimesh
v 3.60685726 -0.04436269 2.82517025
v 3.60685726 0.07634984 2.82517025
v 3.60685726 0.16060346 5.05685313
v 2.94294856 0.25900287 3.35955087
v 2.88244534 0.25900287 4.25550113
v 2.68926876 0.25900287 4.54082441
v 1.75865694 0.25900287 4.66185733
v 2.58101386 0.25900287 4.56114224
v 0.82187571 0.19892365 5.05685313
v 1.63602232 0.25900287 4.66535277
v 1.34517221 0.25900287 4.40712021
v 0.44980676 0.19892365 5.05685313
v 0.36040416 -0.11914593 5.05685313
v 0.29642468 0.02698344 5.05685313
v 0.28624340 -0.03277726 5.05685313
v 0.28678559 -0.09595936 5.05685313
v 0.21991438 -0.12824794 4.14451772
v 0.21991438 -0.01892497 4.19236268
v 0.21991438 0.19892365 4.09623552
v 0.21991438 -0.04433725 2.82517025
v 0.21991438 -0.12947693 4.00906537
v 0.36040416 -0.14043918 4.14451772
v 2.58101386 -0.07134730 3.03424716
v 2.85856960 -0.06971396 3.31192411
v 3.60685726 -0.06605491 5.05685313
v 2.51074325 -0.05024310 2.82517025
v 2.58101386 0.09235773 2.82517025
v 2.65128467 0.09212898 2.82517025
v 2.58074250 0.25900287 3.03752419
v 0.21991438 0.07631323 2.82517025
v 1.65609961 0.25900287 3.08668025
v 1.36796270 0.25900287 3.44104060
v 0.26160345 0.19892365 3.35015660
v 0.36040416 0.19892365 3.30821005
v 0.24780752 0.19892365 3.45065328
v 0.21991438 0.19892365 3.76568865
v 2.66973399 0.25900287 3.08449550
v 0.33419788 0.08953428 5.05685313
f 2 3 1
f 4 3 2
f 5 3 4
f 5 6 3
f 5 4 6
f 6 4 7
f 8 6 7
f 8 3 6
f 8 7 3
f 7 9 3
f 7 10 9
f 7 4 10
f 10 4 11
f 10 11 12
f 10 12 9
f 9 12 3
f 12 13 3
f 14 13 12
f 15 13 14
f 16 13 15
f 16 17 13
f 16 18 17
f 16 15 18
f 18 15 19
f 18 19 17
f 17 19 20
f 21 17 20
f 21 22 17
f 21 20 22
f 22 20 23
f 24 22 23
f 24 25 22
f 24 1 25
f 24 23 1
f 26 1 23
f 26 20 1
f 26 23 20
f 2 1 20
f 27 2 20
f 28 2 27
f 28 29 2
f 28 27 29
f 30 29 27
f 31 29 30
f 31 32 29
f 31 33 32
f 31 34 33
f 31 30 34
f 34 30 33
f 35 33 30
f 35 32 33
f 35 36 32
f 35 30 36
f 36 30 19
f 11 36 19
f 11 32 36
f 11 4 32
f 32 4 29
f 37 29 4
f 37 2 29
f 37 4 2
f 11 19 12
f 38 12 19
f 38 14 12
f 38 19 14
f 15 14 19
f 30 20 19
f 30 27 20
f 25 1 3
f 25 3 13
f 22 25 13
f 22 13 17

