# https://github.com/mikedh/trimesh
v 3.60712863 -0.04435069 0.59568112
v 3.60712863 -0.04998580 4.90190987
v 3.60712863 0.09276043 4.90190987
v 6.58915507 -0.06085767 4.90190987
v 4.94093958 -0.07223151 4.56094120
v 5.77351312 -0.07199262 4.56094120
v 6.05113484 -0.07330682 4.28329755
v 4.80227474 -0.07466880 3.86704284
v 6.18987331 -0.07479228 1.92384837
v 4.66330668 -0.07433829 1.09100616
v 4.52465674 -0.07326297 3.45053869
v 4.52465301 -0.07139529 4.28329755
v 4.94088994 -0.06838859 0.67458495
v 5.77364011 -0.07395606 0.81357917
v 5.77364011 -0.06372910 0.67458495
v 6.50374961 -0.04853220 0.59568112
v 5.77364011 -0.05507922 0.59568112
v 4.94088994 -0.05990604 0.59568112
v 4.94088994 0.12405830 0.59568112
v 6.50374961 0.09548046 0.59568112
v 6.58915507 0.13481475 3.46443835
v 6.17626343 0.16931456 0.96577085
v 5.88478692 0.16931456 0.70238385
v 5.77364011 0.16931456 0.67935850
v 6.04617214 0.16943804 4.41205767
v 4.94088994 0.16931456 0.66026439
v 5.77364011 0.10976938 0.59568112
v 3.60712863 0.07634074 0.59568112
v 4.81556611 0.16931456 0.68581680
v 4.55130897 0.16931456 0.97868755
v 4.38515589 0.16931456 3.45053869
v 3.60712863 0.07634074 3.46401704
v 4.52552873 0.16943804 4.41374624
v 5.78723346 0.16943804 4.69392316
v 6.58915507 0.16107504 4.90190987
v 4.81716284 0.16943804 4.68210277
v 6.24884909 0.16931456 1.92384837
v 6.58915507 -0.05794259 3.46443835
v 6.05122337 -0.07209210 1.09100616
f 2 3 1
f 2 4 3
f 5 4 2
f 6 4 5
f 6 7 4
f 6 5 7
f 8 7 5
f 8 9 7
f 8 10 9
f 8 11 10
f 8 12 11
f 8 5 12
f 12 5 2
f 12 2 11
f 10 11 2
f 10 2 1
f 13 10 1
f 13 14 10
f 15 14 13
f 15 16 14
f 17 16 15
f 17 18 16
f 17 15 18
f 15 13 18
f 13 1 18
f 18 1 16
f 19 16 1
f 20 16 19
f 20 21 16
f 20 22 21
f 20 23 22
f 24 23 20
f 24 25 23
f 24 26 25
f 24 19 26
f 27 19 24
f 27 20 19
f 27 24 20
f 28 26 19
f 28 29 26
f 28 30 29
f 28 31 30
f 28 3 31
f 28 32 3
f 28 1 32
f 28 19 1
f 32 1 3
f 31 3 33
f 31 33 30
f 29 30 33
f 29 33 26
f 25 26 33
f 34 25 33
f 34 35 25
f 36 35 34
f 36 3 35
f 36 33 3
f 36 34 33
f 35 3 4
f 21 35 4
f 21 22 35
f 37 35 22
f 37 25 35
f 37 22 25
f 23 25 22
f 38 21 4
f 38 16 21
f 9 16 38
f 39 16 9
f 39 14 16
f 39 9 14
f 9 10 14
f 9 38 4
f 9 4 7

