# https://github.com/mikedh/trimesh
v 0.21991438 2.34279847 -3.21374137
v -0.46601127 1.93145579 -2.83058044
v -0.47242986 1.78549866 -2.78374398
v -0.36393092 1.78549866 -2.83351847
v -0.36973235 1.69031356 -2.83827145
v 0.21991438 1.32795439 -3.38224923
v 0.21991438 2.34279847 -3.65540464
v -0.56241362 2.34279847 -3.02112406
v -0.50810245 2.01133972 -2.85278891
v -0.61117024 1.92420264 -2.80958193
v -0.47242986 1.67948353 -2.81753189
v -0.61117024 1.78549866 -2.77276933
v 0.21991438 1.32795439 -3.61012356
v -0.61117024 1.68117262 -2.81424824
v -1.04109270 1.32795439 -3.47860101
v 0.08265516 2.34279847 -3.65557755
v -0.61376240 2.34279847 -3.01948203
v -0.61117024 2.01382368 -2.85106063
v -0.69127923 2.00279493 -2.85857873
v -0.72053324 1.92420264 -2.84120948
v -0.76163691 1.79364604 -2.82496353
v -0.82964933 1.70362758 -2.85469010
v -0.75003410 1.68912128 -2.83403700
v -1.04109270 1.32795439 -3.61012356
v -0.85964395 1.79364604 -2.92269818
v -0.91247385 1.78549866 -3.07314535
v -1.04109270 2.34279847 -3.39253245
v -1.04109270 2.34279847 -3.65557755
v -0.78990346 1.92420264 -2.89426782
v -0.81557780 1.84531228 -2.86868924
v -0.82964933 1.75280986 -2.85469010
f 1 2 3
f 1 3 4
f 1 4 5
f 1 5 6
f 1 6 13
f 1 13 7
f 1 7 16
f 1 16 28
f 1 28 27
f 1 27 17
f 1 17 8
f 1 8 9
f 1 9 2
f 2 9 10
f 2 10 3
f 3 11 5
f 3 5 4
f 3 10 12
f 3 12 11
f 5 11 6
f 6 11 14
f 6 14 15
f 6 15 24
f 6 24 13
f 7 13 16
f 8 17 9
f 9 17 18
f 9 18 10
f 10 18 19
f 10 19 20
f 10 20 12
f 11 12 14
f 12 20 21
f 12 21 22
f 12 22 23
f 12 23 14
f 13 24 28
f 13 28 16
f 14 23 15
f 15 23 22
f 15 22 25
f 15 25 26
f 15 26 27
f 15 27 28
f 15 28 24
f 17 19 18
f 17 27 19
f 19 29 30
f 19 30 20
f 19 27 29
f 20 30 21
f 21 30 31
f 21 31 22
f 22 31 25
f 25 31 27
f 25 27 26
f 27 31 30
f 27 30 29

