# https://github.com/mikedh/trimesh
v -6.68733992 -0.01891980 -2.71163796
v -6.67449365 -0.12262752 -2.71163796
v -6.68733992 -0.01891980 -1.96273208
v -6.66097104 0.06202618 -2.71163796
v -6.67449365 -0.12262752 -1.96273208
v -6.61702360 -0.12385092 -2.71163796
v -6.57916031 -0.13511804 -1.96273208
v -6.66299964 -0.10746267 -1.82391957
v -6.66502824 -0.02537851 -1.82021791
v -6.65691467 0.05741695 -1.86395604
v -6.66097104 0.06145719 -1.96273208
v -6.66097104 0.06202618 -2.10154460
v -6.57916031 0.12974201 -2.71163796
v -6.57916031 -0.12279836 -1.82391957
v -6.57916031 -0.12464764 -2.71163796
v -4.08089282 -0.12655400 -1.82391957
v -3.98555947 -0.12399322 -1.71657141
v -6.65082971 -0.09098900 -1.75310086
v -6.65082971 -0.07593771 -1.75310086
v -6.57916031 0.00805261 -1.77326522
v -6.57916031 0.06697689 -1.84262288
v -6.45137353 0.15554810 -1.96117361
v -6.53250835 0.15554810 -2.04913695
v -6.54400236 0.15554810 -2.10154460
v -6.57916031 0.12823421 -2.10154460
v -6.57916031 0.12974201 -2.24025970
v -6.54603095 0.15554810 -2.24025970
v -6.54941140 0.15267439 -2.71163796
v -6.57916031 -0.09420398 -1.75134755
v 0.21991417 -0.05784228 -2.71163796
v -4.05993298 -0.11431953 -1.71657141
v 0.21991417 -0.04435607 -1.71657141
v -6.57916031 -0.06134186 -1.75134755
v -6.44055545 0.01644602 -1.76498516
v -6.44055545 0.07949574 -1.83444023
v -6.30195059 0.15554810 -1.92386462
v -6.54535462 0.15554810 -2.71163796
v -4.07210333 -0.10399143 -1.71657141
v -4.08697778 -0.01866374 -1.71657141
v 0.21991417 0.12888863 -2.71163796
v 0.21991417 0.07633764 -1.71657141
v -4.00854791 0.06191242 -1.71657141
v -3.55419411 0.15554810 -1.71657141
v -5.69749875 0.15554810 -2.71163796
v -3.40003866 0.15554810 -1.95114004
v -3.31079070 0.15554810 -1.72416956
v -3.30876231 0.15554810 -1.71657141
v -3.56095541 0.15554810 -2.08576381
v -3.54540462 0.15554810 -2.08011402
f 1 2 5
f 1 5 3
f 1 3 12
f 1 12 4
f 1 4 13
f 1 13 28
f 1 28 37
f 1 37 44
f 1 44 40
f 1 40 30
f 1 30 15
f 1 15 6
f 1 6 2
f 2 6 7
f 2 7 5
f 3 5 8
f 3 8 9
f 3 9 10
f 3 10 11
f 3 11 12
f 4 12 26
f 4 26 13
f 5 7 14
f 5 14 8
f 6 15 7
f 7 15 16
f 7 16 17
f 7 17 14
f 8 18 9
f 8 14 18
f 9 18 19
f 9 19 10
f 10 19 20
f 10 20 21
f 10 21 22
f 10 22 23
f 10 23 24
f 10 24 11
f 11 24 25
f 11 25 26
f 11 26 12
f 13 26 27
f 13 27 28
f 14 29 18
f 14 17 29
f 15 30 16
f 16 30 17
f 17 31 29
f 17 30 32
f 17 32 41
f 17 41 47
f 17 47 43
f 17 43 42
f 17 42 39
f 17 39 38
f 17 38 31
f 18 29 33
f 18 33 19
f 19 33 20
f 20 33 34
f 20 34 35
f 20 35 21
f 21 35 36
f 21 36 22
f 22 36 43
f 22 43 47
f 22 47 46
f 22 46 45
f 22 45 49
f 22 49 48
f 22 48 44
f 22 44 37
f 22 37 27
f 22 27 24
f 22 24 23
f 24 27 25
f 25 27 26
f 27 37 28
f 29 31 38
f 29 38 39
f 29 39 33
f 30 40 41
f 30 41 32
f 33 39 42
f 33 42 43
f 33 43 34
f 34 43 35
f 35 43 36
f 40 45 46
f 40 46 47
f 40 47 41
f 40 44 48
f 40 48 49
f 40 49 45

