# https://github.com/mikedh/trimesh
v 0.54757936 2.89598644 0.06097091
v 0.54841289 3.79589426 0.06097091
v 0.73637418 2.89598644 0.06097091
v 0.54688472 2.89598644 4.00540902
v 0.54737098 3.79589426 4.35046838
v 1.25649768 3.79589426 0.06097091
v 0.73637418 2.89598644 4.35467160
v 0.54737098 2.89598644 4.35467160
v 0.54737098 3.79589426 4.35467160
v 1.25649768 3.79589426 1.37774499
v 1.25642819 3.79589426 4.35467160
f 1 2 6
f 1 6 3
f 1 3 7
f 1 7 8
f 1 8 4
f 1 4 5
f 1 5 2
f 2 5 9
f 2 9 11
f 2 11 10
f 2 10 6
f 3 6 10
f 3 10 7
f 4 8 9
f 4 9 5
f 7 11 9
f 7 9 8
f 7 10 11

