# https://github.com/mikedh/trimesh
v 0.36680385 2.48080606 5.05552196
v 0.41960598 2.55896703 4.35473986
v 0.41960598 2.52123998 4.35473986
v 0.46313603 2.05853380 5.05552196
v 0.46313603 3.78687250 5.05552196
v 0.54736571 3.78687250 4.35473986
v 0.54365687 2.05853380 4.35473986
v 0.81918448 2.05853380 5.05552196
v 1.36389568 3.78687250 5.05552196
v 1.24394408 3.78687250 4.35473986
v 0.67356381 2.05853380 4.35473986
v 0.96119398 2.47962179 5.05552196
f 1 2 3
f 1 3 4
f 1 4 8
f 1 8 12
f 1 12 9
f 1 9 5
f 1 5 2
f 2 5 6
f 2 6 10
f 2 10 11
f 2 11 7
f 2 7 3
f 3 7 4
f 4 7 11
f 4 11 8
f 5 9 10
f 5 10 6
f 8 11 12
f 9 12 10
f 10 12 11

