# https://github.com/mikedh/trimesh
v -3.28421520 2.34279847 -1.71657121
v -3.37193634 1.32795439 -1.71657121
v -3.39421906 1.32795439 -1.82390819
v -3.28872804 2.34279847 -1.72906524
v -3.57643092 2.34279847 -1.71657121
v -3.51804420 1.32795439 -1.71657121
v -3.42496386 1.32795439 -1.88904050
v -3.32567818 2.34279847 -1.82390819
v -6.16321832 2.34279847 -1.90368123
v -6.16547443 1.32795439 -1.95477364
v -3.43793857 1.32795439 -1.91651881
v -3.39421906 2.34279847 -1.95052306
v -6.16547443 2.34279847 -2.14652061
v -6.16547443 2.34240105 -1.90406759
v -6.16547443 1.32795439 -2.10234069
v -3.49322283 1.32795439 -1.96529265
v -3.51663361 1.32795439 -1.98590149
v -3.53553216 2.34279847 -2.07447602
v -6.16547443 2.34279847 -2.15519344
v -4.08132137 1.32795439 -2.09997930
v -3.53778828 2.34279847 -2.07619333
v -3.58602125 1.32795439 -2.03768079
v -3.94254691 2.34279847 -2.15059952
v -3.94254691 1.32795439 -2.09976461
v -3.65992112 2.34279847 -2.12166139
v -3.66499841 1.32795439 -2.06494442
v -3.66499841 2.34279847 -2.12342173
v -3.82661941 2.34279847 -2.14497496
v -3.80377245 1.32795439 -2.09306681
v -3.90136604 1.32795439 -2.09778959
v -3.80377245 2.34279847 -2.14330046
f 1 2 3
f 1 3 4
f 1 4 8
f 1 8 12
f 1 12 18
f 1 18 21
f 1 21 25
f 1 25 27
f 1 27 31
f 1 31 28
f 1 28 23
f 1 23 19
f 1 19 13
f 1 13 9
f 1 9 5
f 1 5 6
f 1 6 2
f 2 6 10
f 2 10 15
f 2 15 20
f 2 20 24
f 2 24 30
f 2 30 29
f 2 29 26
f 2 26 22
f 2 22 17
f 2 17 16
f 2 16 11
f 2 11 7
f 2 7 3
f 3 7 8
f 3 8 4
f 5 9 6
f 6 9 10
f 7 11 8
f 8 11 12
f 9 13 14
f 9 14 10
f 10 14 13
f 10 13 19
f 10 19 15
f 11 16 12
f 12 16 17
f 12 17 18
f 15 19 20
f 17 21 18
f 17 22 21
f 19 23 24
f 19 24 20
f 21 22 25
f 22 26 27
f 22 27 25
f 23 28 29
f 23 29 30
f 23 30 24
f 26 29 27
f 27 29 31
f 28 31 29

