# https://github.com/mikedh/trimesh
v 0.21991417 -0.00960020 -3.81186522
v 0.21991417 -0.00829158 -3.81186522
v 0.21991417 -0.12416200 -3.77492852
v -3.80333852 -0.12547062 -3.74692982
v -3.80333852 -0.01890160 -3.77568221
v 0.21991417 0.34039477 -3.61102907
v -4.21959696 0.34039477 -3.62459759
v 0.21991417 -0.12462923 -3.77223641
v -3.79061966 -0.13444480 -3.61565960
v -5.46895015 -0.13103271 -3.59961407
v -5.60770268 -0.12991107 -3.59842975
v -5.68632946 -0.12925666 -3.59778361
v -5.68632946 -0.06737181 -3.61479794
v -5.68632946 -0.01890160 -3.62405900
v -5.68632946 0.05761303 -3.60650609
v -5.03361321 0.34039477 -3.56321596
v 0.21991417 0.34039477 -2.82071439
v 0.21991417 -0.12182481 -3.63224330
v -3.94613832 -0.13706246 -3.49332696
v -5.46895015 -0.13103271 -3.49128098
v -5.60770268 -0.12991107 -3.49138895
v -5.68632946 -0.12925666 -3.49149650
v -5.68632946 0.09687513 -3.58916869
v -5.10298969 0.34039477 -3.55266262
v 0.21991417 0.12889276 -2.71173517
v -3.52583303 0.34039477 -2.82932932
v -5.68632946 0.14712160 -2.71173517
v 0.21991417 -0.06690437 -2.79723867
v -3.94209147 -0.12878922 -3.35225709
v -5.68632946 -0.06470762 -2.71173517
v -5.68632946 0.23934110 -3.48600431
v -5.68632946 0.34025454 -3.35064174
v -5.14461565 0.34039477 -3.48331220
v 0.21991417 -0.05783669 -2.71173517
v -3.62353790 0.34039477 -2.84709775
v -5.68632946 0.19933111 -2.79551577
v -5.14461565 0.34039477 -3.39737808
v -5.68632946 0.30842388 -3.20364926
f 1 2 6
f 1 6 17
f 1 17 25
f 1 25 34
f 1 34 28
f 1 28 18
f 1 18 8
f 1 8 3
f 1 3 4
f 1 4 5
f 1 5 2
f 2 5 7
f 2 7 6
f 3 8 4
f 4 9 10
f 4 10 11
f 4 11 12
f 4 12 13
f 4 13 5
f 4 8 9
f 5 13 14
f 5 14 15
f 5 15 16
f 5 16 7
f 6 7 16
f 6 16 24
f 6 24 33
f 6 33 37
f 6 37 35
f 6 35 26
f 6 26 17
f 8 18 19
f 8 19 9
f 9 19 10
f 10 20 21
f 10 21 11
f 10 19 20
f 11 21 22
f 11 22 12
f 12 22 30
f 12 30 27
f 12 27 36
f 12 36 38
f 12 38 32
f 12 32 31
f 12 31 23
f 12 23 15
f 12 15 14
f 12 14 13
f 15 23 16
f 16 23 24
f 17 26 27
f 17 27 25
f 18 28 29
f 18 29 19
f 19 29 20
f 20 30 21
f 20 29 30
f 21 30 22
f 23 31 24
f 24 31 32
f 24 32 33
f 25 27 30
f 25 30 34
f 26 35 36
f 26 36 27
f 28 34 30
f 28 30 29
f 32 37 33
f 32 38 35
f 32 35 37
f 35 38 36

