# https://github.com/mikedh/trimesh
v -1.66220540 0.85782332 2.18086953
v -1.66257397 0.85735692 2.20139440
v -1.66220540 0.90705632 2.18086953
v -1.55072290 0.25889924 2.18086953
v -1.65649314 0.87234668 2.34020195
v -1.66257397 0.90792243 2.20139440
v -1.53782409 0.25889924 2.47900951
v -1.58278562 0.93883466 2.20139440
v -1.58241716 0.93470404 2.18086953
v 0.13146540 0.25889924 2.18086953
v -1.65299211 0.88094081 2.41732900
v -1.65649314 0.89459817 2.34020195
v -1.58278562 0.93403783 2.34020195
v -1.52123998 0.25889924 2.55613656
v -0.74989149 0.93776865 3.17294137
v -0.61132149 0.93943426 3.17294137
v 0.20554133 0.93636964 2.18086953
v 0.11230143 0.93636964 2.18086953
v 0.15007651 0.26682728 2.18086953
v 0.16739778 0.25889924 2.21208011
v -1.61484835 0.82631149 2.46980511
v -1.54961739 0.81385334 2.56364824
v -1.65299211 0.88580424 2.41732900
v -1.58794523 0.91458456 2.46980511
v -0.88883008 0.90845533 3.25535833
v -0.96972393 0.25889924 3.12162910
v -0.95995768 0.87221348 3.24488421
v -0.74989149 0.92197949 3.26160028
v -0.47256719 0.92877481 3.17294137
v 0.20701552 0.93583664 2.20139440
v 0.21991432 0.88453843 2.20139440
v 0.21991432 0.87894221 2.18086953
v 0.16260674 0.28195014 2.18086953
v 0.21991432 0.76628584 2.18086953
v 0.16887186 0.25889924 2.21990908
v -1.54501064 0.90405841 2.55804085
v -0.95995768 0.88846905 3.24488421
v -0.88883008 0.84569827 3.25535833
v -0.88883008 0.25889924 3.15685985
v -0.74989149 0.83450592 3.26160028
v -0.61132149 0.91305225 3.25546402
v -0.47256719 0.89952809 3.24890459
v -0.40088670 0.88846905 3.24424944
v 0.20056612 0.91691626 2.34020195
v 0.21991432 0.87521139 2.27037500
v 0.21991432 0.75389429 2.20139440
v 0.17937525 0.25889924 2.33999036
v -0.47256719 0.25889924 3.14416416
v -0.61132149 0.85129449 3.25546402
v -0.47256719 0.86641746 3.24890459
v -0.40088670 0.87747660 3.24424944
v 0.18324485 0.81385334 2.42156097
v 0.17568984 0.89506447 2.41510722
v 0.21991432 0.85515851 2.34020195
v 0.21991432 0.74176924 2.27354903
v 0.16776625 0.25889924 2.42441751
v 0.21991432 0.75236209 2.34020195
v 0.21991432 0.78300781 2.35913981
v -0.38632947 0.25889924 3.12131161
v 0.21991432 0.81385334 2.36146748
f 1 2 6
f 1 6 3
f 1 3 9
f 1 9 18
f 1 18 17
f 1 17 32
f 1 32 34
f 1 34 33
f 1 33 19
f 1 19 10
f 1 10 4
f 1 4 2
f 2 5 12
f 2 12 6
f 2 4 7
f 2 7 5
f 3 6 8
f 3 8 9
f 4 10 20
f 4 20 35
f 4 35 47
f 4 47 56
f 4 56 59
f 4 59 48
f 4 48 39
f 4 39 26
f 4 26 14
f 4 14 7
f 5 11 23
f 5 23 12
f 5 7 11
f 6 12 13
f 6 13 8
f 7 14 11
f 8 13 15
f 8 15 16
f 8 16 17
f 8 17 18
f 8 18 9
f 10 19 20
f 11 21 22
f 11 22 23
f 11 14 21
f 12 23 24
f 12 24 13
f 13 24 25
f 13 25 15
f 14 22 21
f 14 26 27
f 14 27 22
f 15 25 28
f 15 28 16
f 16 28 29
f 16 29 30
f 16 30 17
f 17 30 31
f 17 31 32
f 19 33 20
f 20 34 35
f 20 33 34
f 22 36 23
f 22 27 37
f 22 37 36
f 23 36 24
f 24 36 25
f 25 36 37
f 25 37 27
f 25 27 38
f 25 38 40
f 25 40 28
f 26 39 27
f 27 39 38
f 28 40 49
f 28 49 41
f 28 41 29
f 29 41 42
f 29 42 43
f 29 43 44
f 29 44 30
f 30 44 45
f 30 45 31
f 31 45 54
f 31 54 60
f 31 60 58
f 31 58 57
f 31 57 55
f 31 55 46
f 31 46 34
f 31 34 32
f 34 46 47
f 34 47 35
f 38 39 40
f 39 48 40
f 40 48 49
f 41 49 50
f 41 50 42
f 42 50 51
f 42 51 43
f 43 51 52
f 43 52 53
f 43 53 44
f 44 53 54
f 44 54 45
f 46 55 47
f 47 55 57
f 47 57 58
f 47 58 56
f 48 59 51
f 48 51 50
f 48 50 49
f 51 59 56
f 51 56 52
f 52 56 60
f 52 60 53
f 53 60 54
f 56 58 60

