# https://github.com/mikedh/trimesh
v 0.19688458 0.93937304 2.06255355
v 0.20554376 0.93633179 2.18076384
v 0.21991438 0.87892887 2.18076384
v 0.21991438 0.86820851 2.14117847
v 0.18251386 0.92865278 1.92380659
v 0.10255426 0.93937304 2.06255355
v 0.11231890 0.93633179 2.18076384
v 0.21991438 0.76625171 2.18076384
v 0.21991438 0.81384672 2.10159309
v 0.21291336 0.81384672 2.06255355
v 0.16519549 0.90599569 1.84433832
v 0.10531783 0.92865278 1.92380659
v -1.58249451 0.93465915 2.18076384
v 0.16261610 0.28193773 2.18076384
v 0.11471401 0.16272182 1.92380659
v 0.17993458 0.80114968 1.91224847
v 0.16519549 0.83901287 1.84433832
v 0.12724227 0.90599569 1.84433832
v 0.06312711 0.16272182 1.80797734
v -0.38328368 0.36655951 1.67404221
v -0.41257766 0.43916875 1.67404221
v -0.45697922 0.49299816 1.67404221
v -0.63734909 0.65197793 1.67404221
v -0.72504681 0.67501517 1.67404221
v -0.74991905 0.68109755 1.67404221
v -0.64803496 0.74496323 1.71531408
v -0.74991905 0.74519126 1.71521490
v -1.58028359 0.90888492 2.05203702
v -1.66042758 0.90219414 2.06255355
v -1.66226993 0.90706015 2.18076384
v 0.15008784 0.26688375 2.18076384
v 0.08505155 0.16272182 2.06081720
v 0.11324008 0.16272182 1.91825070
v -0.83043141 0.74488711 1.71536361
v -1.02756700 0.79514331 1.78669661
v -1.65434768 0.88812860 1.99127030
v -0.47245530 0.16272182 1.76199293
v -0.47245530 0.28026509 1.67404221
v -0.38475758 0.30740793 1.67404221
v -0.75692013 0.68109755 1.67404221
v -1.66042758 0.86068152 2.06255355
v -1.66226993 0.85786841 2.18076384
v 0.08781513 0.24034899 2.18076384
v -0.58742036 0.16272182 2.18076384
v -0.81090212 0.65547534 1.67404221
v -1.16629885 0.77932891 1.80589393
v -1.00508985 0.50531514 1.67404221
v -1.05888761 0.39750390 1.67404221
v -1.56554461 0.16272182 1.94310309
v -1.65434768 0.87543146 1.99127030
v -1.02848822 0.16272182 1.76422525
v -1.01724965 0.28285006 1.67404221
v -1.59704941 0.16272182 2.06255355
v -1.59520696 0.16272182 2.08155242
v -1.57475645 0.16272182 2.18076384
v -0.85419820 0.62894069 1.67404221
v -1.14676956 0.16272182 1.80078459
v -1.57272992 0.16272182 1.96497919
f 1 2 3
f 1 3 4
f 1 4 5
f 1 5 12
f 1 12 6
f 1 6 7
f 1 7 2
f 2 7 13
f 2 13 30
f 2 30 42
f 2 42 55
f 2 55 44
f 2 44 43
f 2 43 31
f 2 31 14
f 2 14 8
f 2 8 3
f 3 8 9
f 3 9 4
f 4 9 5
f 5 9 10
f 5 10 11
f 5 11 18
f 5 18 12
f 6 12 13
f 6 13 7
f 8 14 9
f 9 14 15
f 9 15 10
f 10 16 17
f 10 17 11
f 10 15 16
f 11 17 19
f 11 19 20
f 11 20 21
f 11 21 22
f 11 22 23
f 11 23 24
f 11 24 25
f 11 25 26
f 11 26 27
f 11 27 18
f 12 18 28
f 12 28 13
f 13 28 29
f 13 29 30
f 14 31 15
f 15 31 32
f 15 32 44
f 15 44 55
f 15 55 54
f 15 54 53
f 15 53 58
f 15 58 49
f 15 49 57
f 15 57 51
f 15 51 37
f 15 37 19
f 15 19 33
f 15 33 16
f 16 33 17
f 17 33 19
f 18 27 34
f 18 34 35
f 18 35 36
f 18 36 28
f 19 37 38
f 19 38 39
f 19 39 20
f 20 39 38
f 20 38 52
f 20 52 48
f 20 48 47
f 20 47 56
f 20 56 45
f 20 45 40
f 20 40 25
f 20 25 24
f 20 24 23
f 20 23 22
f 20 22 21
f 25 40 27
f 25 27 26
f 27 40 34
f 28 36 29
f 29 36 50
f 29 50 41
f 29 41 42
f 29 42 30
f 31 43 32
f 32 43 44
f 34 40 45
f 34 45 46
f 34 46 35
f 35 46 36
f 36 46 47
f 36 47 48
f 36 48 49
f 36 49 50
f 37 51 52
f 37 52 38
f 41 50 53
f 41 53 42
f 42 53 54
f 42 54 55
f 45 56 46
f 46 56 47
f 48 52 49
f 49 58 50
f 49 52 57
f 50 58 53
f 51 57 52

