mtllib material.mtl
usemtl material_0
v -0.49860096 -0.00000000 4.00187707
v -0.49860096 -0.00000000 3.95187640
v 0.36123276 -0.00000000 3.95187640
v 0.36123276 -0.00000000 4.00187707
v -0.49860096 1.79998779 4.00187707
v 0.36123276 1.79998779 4.00187707
v 0.36123276 1.79998779 3.95187640
v -0.49860096 1.79998779 3.95187640
v -0.44860125 0.05000019 3.98187661
v 0.31123257 0.05000019 3.98187661
v 0.31123257 1.74998784 3.98187661
v -0.44860125 1.74998784 3.98187661
v 0.36123276 -0.00000000 4.00187707
v 0.36123276 -0.00000000 3.95187640
v 0.36123276 1.79998779 3.95187640
v 0.36123276 1.79998779 4.00187707
v 0.31123257 0.05000019 3.97187686
v -0.44860125 0.05000019 3.97187686
v -0.44860125 1.74998784 3.97187686
v 0.31123257 1.74998784 3.97187686
v -0.49860096 -0.00000000 3.95187640
v -0.49860096 -0.00000000 4.00187707
v -0.49860096 1.79998779 4.00187707
v -0.49860096 1.79998779 3.95187640
v -1.34614992 -0.00000000 4.00187707
v -1.34614992 -0.00000000 3.95187640
v -0.50488520 -0.00000000 3.95187640
v -0.50488520 -0.00000000 4.00187707
v -1.34614992 1.79998779 4.00187707
v -0.50488520 1.79998779 4.00187707
v -0.50488520 1.79998779 3.95187640
v -1.34614992 1.79998779 3.95187640
v -1.29615021 0.05000019 3.98187661
v -0.55488539 0.05000019 3.98187661
v -0.55488539 1.74998784 3.98187661
v -1.29615021 1.74998784 3.98187661
v -0.50488520 -0.00000000 4.00187707
v -0.50488520 -0.00000000 3.95187640
v -0.50488520 1.79998779 3.95187640
v -0.50488520 1.79998779 4.00187707
v -0.55488539 0.05000019 3.97187686
v -1.29615021 0.05000019 3.97187686
v -1.29615021 1.74998784 3.97187686
v -0.55488539 1.74998784 3.97187686
v -1.34614992 -0.00000000 3.95187640
v -1.34614992 -0.00000000 4.00187707
v -1.34614992 1.79998779 4.00187707
v -1.34614992 1.79998779 3.95187640
v -5.08056259 0.00000000 -3.44114757
v -5.08056259 0.00000000 -3.49114752
v -4.33056259 0.00000000 -3.49114752
v -4.33056259 0.00000000 -3.44114757
v -5.08056259 2.00000000 -3.44114757
v -4.33056259 2.00000000 -3.44114757
v -4.33056259 2.00000000 -3.49114752
v -5.08056259 2.00000000 -3.49114752
v -5.08056259 0.00000000 -3.44114757
v -4.33056259 0.00000000 -3.44114757
v -4.33056259 2.00000000 -3.44114757
v -5.08056259 2.00000000 -3.44114757
v -4.33056259 0.00000000 -3.44114757
v -4.33056259 0.00000000 -3.49114752
v -4.33056259 2.00000000 -3.49114752
v -4.33056259 2.00000000 -3.44114757
v -4.33056259 0.00000000 -3.49114752
v -5.08056259 0.00000000 -3.49114752
v -5.08056259 2.00000000 -3.49114752
v -4.33056259 2.00000000 -3.49114752
v -5.08056259 0.00000000 -3.49114752
v -5.08056259 0.00000000 -3.44114757
v -5.08056259 2.00000000 -3.44114757
v -5.08056259 2.00000000 -3.49114752
v -5.81559467 0.00000000 -3.46426773
v -5.76559448 0.00000000 -3.46426773
v -5.76835442 0.00000000 -2.71426773
v -5.81835365 0.00000000 -2.71426773
v -5.81559467 2.00000000 -3.46426773
v -5.81835365 2.00000000 -2.71426773
v -5.76835442 2.00000000 -2.71426773
v -5.76559448 2.00000000 -3.46426773
v -5.81559467 0.00000000 -3.46426773
v -5.81835365 0.00000000 -2.71426773
v -5.81835365 2.00000000 -2.71426773
v -5.81559467 2.00000000 -3.46426773
v -5.81835365 0.00000000 -2.71426773
v -5.76835442 0.00000000 -2.71426773
v -5.76835442 2.00000000 -2.71426773
v -5.81835365 2.00000000 -2.71426773
v -5.76835442 0.00000000 -2.71426773
v -5.76559448 0.00000000 -3.46426773
v -5.76559448 2.00000000 -3.46426773
v -5.76835442 2.00000000 -2.71426773
v -5.76559448 0.00000000 -3.46426773
v -5.81559467 0.00000000 -3.46426773
v -5.81559467 2.00000000 -3.46426773
v -5.76559448 2.00000000 -3.46426773
v -1.34614992 1.79998779 4.00187707
v -1.34614992 1.79998779 3.95187640
v 0.36566257 1.79998779 3.95187640
v 0.36566257 1.79998779 4.00187707
v -1.34614992 2.00000000 4.00187707
v 0.36566257 2.00000000 4.00187707
v 0.36566257 2.00000000 3.95187640
v -1.34614992 2.00000000 3.95187640
v -1.29615021 1.84998798 3.98187661
v 0.31566286 1.84998798 3.98187661
v 0.31566286 1.95000005 3.98187661
v -1.29615021 1.95000005 3.98187661
v 0.36566257 1.79998779 4.00187707
v 0.36566257 1.79998779 3.95187640
v 0.36566257 2.00000000 3.95187640
v 0.36566257 2.00000000 4.00187707
v 0.31566286 1.84998798 3.97187686
v -1.29615021 1.84998798 3.97187686
v -1.29615021 1.95000005 3.97187686
v 0.31566286 1.95000005 3.97187686
v -1.34614992 1.79998779 3.95187640
v -1.34614992 1.79998779 4.00187707
v -1.34614992 2.00000000 4.00187707
v -1.34614992 2.00000000 3.95187640
v -0.49860096 -0.00000000 4.00187707
v 0.36123276 -0.00000000 4.00187707
v 0.31123257 0.05000019 4.00187707
v -0.44860125 0.05000019 4.00187707
v 0.36123276 1.79998779 4.00187707
v 0.31123257 1.74998784 4.00187707
v -0.49860096 1.79998779 4.00187707
v -0.44860125 1.74998784 4.00187707
v 0.36123276 -0.00000000 3.95187640
v -0.49860096 -0.00000000 3.95187640
v -0.44860125 0.05000019 3.95187640
v 0.31123257 0.05000019 3.95187640
v -0.49860096 1.79998779 3.95187640
v -0.44860125 1.74998784 3.95187640
v 0.36123276 1.79998779 3.95187640
v 0.31123257 1.74998784 3.95187640
v -1.34614992 -0.00000000 4.00187707
v -0.50488520 -0.00000000 4.00187707
v -0.55488539 0.05000019 4.00187707
v -1.29615021 0.05000019 4.00187707
v -0.50488520 1.79998779 4.00187707
v -0.55488539 1.74998784 4.00187707
v -1.34614992 1.79998779 4.00187707
v -1.29615021 1.74998784 4.00187707
v -0.50488520 -0.00000000 3.95187640
v -1.34614992 -0.00000000 3.95187640
v -1.29615021 0.05000019 3.95187640
v -0.55488539 0.05000019 3.95187640
v -1.34614992 1.79998779 3.95187640
v -1.29615021 1.74998784 3.95187640
v -0.50488520 1.79998779 3.95187640
v -0.55488539 1.74998784 3.95187640
v -1.34614992 1.79998779 4.00187707
v 0.36566257 1.79998779 4.00187707
v 0.31566286 1.84998798 4.00187707
v -1.29615021 1.84998798 4.00187707
v 0.36566257 2.00000000 4.00187707
v 0.31566286 1.95000005 4.00187707
v -1.34614992 2.00000000 4.00187707
v -1.29615021 1.95000005 4.00187707
v 0.36566257 1.79998779 3.95187640
v -1.34614992 1.79998779 3.95187640
v -1.29615021 1.84998798 3.95187640
v 0.31566286 1.84998798 3.95187640
v -1.34614992 2.00000000 3.95187640
v -1.29615021 1.95000005 3.95187640
v 0.36566257 2.00000000 3.95187640
v 0.31566286 1.95000005 3.95187640
v -0.44860125 0.05000019 4.00187707
v 0.31123257 0.05000019 4.00187707
v 0.31123257 0.05000019 3.98187661
v -0.44860125 0.05000019 3.98187661
v 0.31123257 0.05000019 4.00187707
v 0.31123257 1.74998784 4.00187707
v 0.31123257 1.74998784 3.98187661
v 0.31123257 0.05000019 3.98187661
v 0.31123257 1.74998784 4.00187707
v -0.44860125 1.74998784 4.00187707
v -0.44860125 1.74998784 3.98187661
v 0.31123257 1.74998784 3.98187661
v -0.44860125 1.74998784 4.00187707
v -0.44860125 0.05000019 4.00187707
v -0.44860125 0.05000019 3.98187661
v -0.44860125 1.74998784 3.98187661
v 0.31123257 0.05000019 3.95187640
v -0.44860125 0.05000019 3.95187640
v -0.44860125 0.05000019 3.97187686
v 0.31123257 0.05000019 3.97187686
v -0.44860125 0.05000019 3.95187640
v -0.44860125 1.74998784 3.95187640
v -0.44860125 1.74998784 3.97187686
v -0.44860125 0.05000019 3.97187686
v -0.44860125 1.74998784 3.95187640
v 0.31123257 1.74998784 3.95187640
v 0.31123257 1.74998784 3.97187686
v -0.44860125 1.74998784 3.97187686
v 0.31123257 1.74998784 3.95187640
v 0.31123257 0.05000019 3.95187640
v 0.31123257 0.05000019 3.97187686
v 0.31123257 1.74998784 3.97187686
v -1.29615021 0.05000019 4.00187707
v -0.55488539 0.05000019 4.00187707
v -0.55488539 0.05000019 3.98187661
v -1.29615021 0.05000019 3.98187661
v -0.55488539 0.05000019 4.00187707
v -0.55488539 1.74998784 4.00187707
v -0.55488539 1.74998784 3.98187661
v -0.55488539 0.05000019 3.98187661
v -0.55488539 1.74998784 4.00187707
v -1.29615021 1.74998784 4.00187707
v -1.29615021 1.74998784 3.98187661
v -0.55488539 1.74998784 3.98187661
v -1.29615021 1.74998784 4.00187707
v -1.29615021 0.05000019 4.00187707
v -1.29615021 0.05000019 3.98187661
v -1.29615021 1.74998784 3.98187661
v -0.55488539 0.05000019 3.95187640
v -1.29615021 0.05000019 3.95187640
v -1.29615021 0.05000019 3.97187686
v -0.55488539 0.05000019 3.97187686
v -1.29615021 0.05000019 3.95187640
v -1.29615021 1.74998784 3.95187640
v -1.29615021 1.74998784 3.97187686
v -1.29615021 0.05000019 3.97187686
v -1.29615021 1.74998784 3.95187640
v -0.55488539 1.74998784 3.95187640
v -0.55488539 1.74998784 3.97187686
v -1.29615021 1.74998784 3.97187686
v -0.55488539 1.74998784 3.95187640
v -0.55488539 0.05000019 3.95187640
v -0.55488539 0.05000019 3.97187686
v -0.55488539 1.74998784 3.97187686
v -1.29615021 1.84998798 4.00187707
v 0.31566286 1.84998798 4.00187707
v 0.31566286 1.84998798 3.98187661
v -1.29615021 1.84998798 3.98187661
v 0.31566286 1.84998798 4.00187707
v 0.31566286 1.95000005 4.00187707
v 0.31566286 1.95000005 3.98187661
v 0.31566286 1.84998798 3.98187661
v 0.31566286 1.95000005 4.00187707
v -1.29615021 1.95000005 4.00187707
v -1.29615021 1.95000005 3.98187661
v 0.31566286 1.95000005 3.98187661
v -1.29615021 1.95000005 4.00187707
v -1.29615021 1.84998798 4.00187707
v -1.29615021 1.84998798 3.98187661
v -1.29615021 1.95000005 3.98187661
v 0.31566286 1.84998798 3.95187640
v -1.29615021 1.84998798 3.95187640
v -1.29615021 1.84998798 3.97187686
v 0.31566286 1.84998798 3.97187686
v -1.29615021 1.84998798 3.95187640
v -1.29615021 1.95000005 3.95187640
v -1.29615021 1.95000005 3.97187686
v -1.29615021 1.84998798 3.97187686
v -1.29615021 1.95000005 3.95187640
v 0.31566286 1.95000005 3.95187640
v 0.31566286 1.95000005 3.97187686
v -1.29615021 1.95000005 3.97187686
v 0.31566286 1.95000005 3.95187640
v 0.31566286 1.84998798 3.95187640
v 0.31566286 1.84998798 3.97187686
v 0.31566286 1.95000005 3.97187686
v -6.13003635 -0.00000000 2.10325980
v -6.13003635 -0.00000000 2.05325961
v -5.91958237 -0.00000000 2.05325961
v -5.91958237 -0.00000000 2.10325980
v -6.13003635 2.38105571 2.10325980
v -5.91958237 2.38105571 2.10325980
v -5.91958237 2.38105571 2.05325961
v -6.13003635 2.38105571 2.05325961
v -6.08003616 0.05000019 2.08325982
v -5.96958256 0.05000019 2.08325982
v -5.96958256 2.33105564 2.08325982
v -6.08003616 2.33105564 2.08325982
v -5.91958237 -0.00000000 2.10325980
v -5.91958237 -0.00000000 2.05325961
v -5.91958237 2.38105571 2.05325961
v -5.91958237 2.38105571 2.10325980
v -5.96958256 0.05000019 2.07325959
v -6.08003616 0.05000019 2.07325959
v -6.08003616 2.33105564 2.07325959
v -5.96958256 2.33105564 2.07325959
v -6.13003635 -0.00000000 2.05325961
v -6.13003635 -0.00000000 2.10325980
v -6.13003635 2.38105571 2.10325980
v -6.13003635 2.38105571 2.05325961
v -6.74828434 -0.00000000 2.10325980
v -6.74828434 -0.00000000 2.05325961
v -6.13632011 -0.00000000 2.05325961
v -6.13632011 -0.00000000 2.10325980
v -6.74828434 2.38105571 2.10325980
v -6.13632011 2.38105571 2.10325980
v -6.13632011 2.38105571 2.05325961
v -6.74828434 2.38105571 2.05325961
v -6.69828510 0.05000019 2.08325982
v -6.18632126 0.05000019 2.08325982
v -6.18632126 2.33105564 2.08325982
v -6.69828510 2.33105564 2.08325982
v -6.13632011 -0.00000000 2.10325980
v -6.13632011 -0.00000000 2.05325961
v -6.13632011 2.38105571 2.05325961
v -6.13632011 2.38105571 2.10325980
v -6.18632126 0.05000019 2.07325959
v -6.69828510 0.05000019 2.07325959
v -6.69828510 2.33105564 2.07325959
v -6.18632126 2.33105564 2.07325959
v -6.74828434 -0.00000000 2.05325961
v -6.74828434 -0.00000000 2.10325980
v -6.74828434 2.38105571 2.10325980
v -6.74828434 2.38105571 2.05325961
v -6.74828434 2.38105571 2.10325980
v -6.74828434 2.38105571 2.05325961
v -5.91515255 2.38105571 2.05325961
v -5.91515255 2.38105571 2.10325980
v -6.74828434 2.58106780 2.10325980
v -5.91515255 2.58106780 2.10325980
v -5.91515255 2.58106780 2.05325961
v -6.74828434 2.58106780 2.05325961
v -6.69828510 2.43105567 2.08325982
v -5.96515179 2.43105567 2.08325982
v -5.96515179 2.53106785 2.08325982
v -6.69828510 2.53106785 2.08325982
v -5.91515255 2.38105571 2.10325980
v -5.91515255 2.38105571 2.05325961
v -5.91515255 2.58106780 2.05325961
v -5.91515255 2.58106780 2.10325980
v -5.96515179 2.43105567 2.07325959
v -6.69828510 2.43105567 2.07325959
v -6.69828510 2.53106785 2.07325959
v -5.96515179 2.53106785 2.07325959
v -6.74828434 2.38105571 2.05325961
v -6.74828434 2.38105571 2.10325980
v -6.74828434 2.58106780 2.10325980
v -6.74828434 2.58106780 2.05325961
v -6.13003635 -0.00000000 2.10325980
v -5.91958237 -0.00000000 2.10325980
v -5.96958256 0.05000019 2.10325980
v -6.08003616 0.05000019 2.10325980
v -5.91958237 2.38105571 2.10325980
v -5.96958256 2.33105564 2.10325980
v -6.13003635 2.38105571 2.10325980
v -6.08003616 2.33105564 2.10325980
v -5.91958237 -0.00000000 2.05325961
v -6.13003635 -0.00000000 2.05325961
v -6.08003616 0.05000019 2.05325961
v -5.96958256 0.05000019 2.05325961
v -6.13003635 2.38105571 2.05325961
v -6.08003616 2.33105564 2.05325961
v -5.91958237 2.38105571 2.05325961
v -5.96958256 2.33105564 2.05325961
v -6.74828434 -0.00000000 2.10325980
v -6.13632011 -0.00000000 2.10325980
v -6.18632126 0.05000019 2.10325980
v -6.69828510 0.05000019 2.10325980
v -6.13632011 2.38105571 2.10325980
v -6.18632126 2.33105564 2.10325980
v -6.74828434 2.38105571 2.10325980
v -6.69828510 2.33105564 2.10325980
v -6.13632011 -0.00000000 2.05325961
v -6.74828434 -0.00000000 2.05325961
v -6.69828510 0.05000019 2.05325961
v -6.18632126 0.05000019 2.05325961
v -6.74828434 2.38105571 2.05325961
v -6.69828510 2.33105564 2.05325961
v -6.13632011 2.38105571 2.05325961
v -6.18632126 2.33105564 2.05325961
v -6.74828434 2.38105571 2.10325980
v -5.91515255 2.38105571 2.10325980
v -5.96515179 2.43105567 2.10325980
v -6.69828510 2.43105567 2.10325980
v -5.91515255 2.58106780 2.10325980
v -5.96515179 2.53106785 2.10325980
v -6.74828434 2.58106780 2.10325980
v -6.69828510 2.53106785 2.10325980
v -5.91515255 2.38105571 2.05325961
v -6.74828434 2.38105571 2.05325961
v -6.69828510 2.43105567 2.05325961
v -5.96515179 2.43105567 2.05325961
v -6.74828434 2.58106780 2.05325961
v -6.69828510 2.53106785 2.05325961
v -5.91515255 2.58106780 2.05325961
v -5.96515179 2.53106785 2.05325961
v -6.08003616 0.05000019 2.10325980
v -5.96958256 0.05000019 2.10325980
v -5.96958256 0.05000019 2.08325982
v -6.08003616 0.05000019 2.08325982
v -5.96958256 0.05000019 2.10325980
v -5.96958256 2.33105564 2.10325980
v -5.96958256 2.33105564 2.08325982
v -5.96958256 0.05000019 2.08325982
v -5.96958256 2.33105564 2.10325980
v -6.08003616 2.33105564 2.10325980
v -6.08003616 2.33105564 2.08325982
v -5.96958256 2.33105564 2.08325982
v -6.08003616 2.33105564 2.10325980
v -6.08003616 0.05000019 2.10325980
v -6.08003616 0.05000019 2.08325982
v -6.08003616 2.33105564 2.08325982
v -5.96958256 0.05000019 2.05325961
v -6.08003616 0.05000019 2.05325961
v -6.08003616 0.05000019 2.07325959
v -5.96958256 0.05000019 2.07325959
v -6.08003616 0.05000019 2.05325961
v -6.08003616 2.33105564 2.05325961
v -6.08003616 2.33105564 2.07325959
v -6.08003616 0.05000019 2.07325959
v -6.08003616 2.33105564 2.05325961
v -5.96958256 2.33105564 2.05325961
v -5.96958256 2.33105564 2.07325959
v -6.08003616 2.33105564 2.07325959
v -5.96958256 2.33105564 2.05325961
v -5.96958256 0.05000019 2.05325961
v -5.96958256 0.05000019 2.07325959
v -5.96958256 2.33105564 2.07325959
v -6.69828510 0.05000019 2.10325980
v -6.18632126 0.05000019 2.10325980
v -6.18632126 0.05000019 2.08325982
v -6.69828510 0.05000019 2.08325982
v -6.18632126 0.05000019 2.10325980
v -6.18632126 2.33105564 2.10325980
v -6.18632126 2.33105564 2.08325982
v -6.18632126 0.05000019 2.08325982
v -6.18632126 2.33105564 2.10325980
v -6.69828510 2.33105564 2.10325980
v -6.69828510 2.33105564 2.08325982
v -6.18632126 2.33105564 2.08325982
v -6.69828510 2.33105564 2.10325980
v -6.69828510 0.05000019 2.10325980
v -6.69828510 0.05000019 2.08325982
v -6.69828510 2.33105564 2.08325982
v -6.18632126 0.05000019 2.05325961
v -6.69828510 0.05000019 2.05325961
v -6.69828510 0.05000019 2.07325959
v -6.18632126 0.05000019 2.07325959
v -6.69828510 0.05000019 2.05325961
v -6.69828510 2.33105564 2.05325961
v -6.69828510 2.33105564 2.07325959
v -6.69828510 0.05000019 2.07325959
v -6.69828510 2.33105564 2.05325961
v -6.18632126 2.33105564 2.05325961
v -6.18632126 2.33105564 2.07325959
v -6.69828510 2.33105564 2.07325959
v -6.18632126 2.33105564 2.05325961
v -6.18632126 0.05000019 2.05325961
v -6.18632126 0.05000019 2.07325959
v -6.18632126 2.33105564 2.07325959
v -6.69828510 2.43105567 2.10325980
v -5.96515179 2.43105567 2.10325980
v -5.96515179 2.43105567 2.08325982
v -6.69828510 2.43105567 2.08325982
v -5.96515179 2.43105567 2.10325980
v -5.96515179 2.53106785 2.10325980
v -5.96515179 2.53106785 2.08325982
v -5.96515179 2.43105567 2.08325982
v -5.96515179 2.53106785 2.10325980
v -6.69828510 2.53106785 2.10325980
v -6.69828510 2.53106785 2.08325982
v -5.96515179 2.53106785 2.08325982
v -6.69828510 2.53106785 2.10325980
v -6.69828510 2.43105567 2.10325980
v -6.69828510 2.43105567 2.08325982
v -6.69828510 2.53106785 2.08325982
v -5.96515179 2.43105567 2.05325961
v -6.69828510 2.43105567 2.05325961
v -6.69828510 2.43105567 2.07325959
v -5.96515179 2.43105567 2.07325959
v -6.69828510 2.43105567 2.05325961
v -6.69828510 2.53106785 2.05325961
v -6.69828510 2.53106785 2.07325959
v -6.69828510 2.43105567 2.07325959
v -6.69828510 2.53106785 2.05325961
v -5.96515179 2.53106785 2.05325961
v -5.96515179 2.53106785 2.07325959
v -6.69828510 2.53106785 2.07325959
v -5.96515179 2.53106785 2.05325961
v -5.96515179 2.43105567 2.05325961
v -5.96515179 2.43105567 2.07325959
v -5.96515179 2.53106785 2.07325959
vt 0.68003023 0.38281411
vt 0.68003023 0.37394416
vt 0.52749658 0.37394416
vt 0.52749658 0.38281411
vt 0.68003023 0.38328701
vt 0.52749658 0.38328701
vt 0.52749658 0.39215696
vt 0.68003023 0.39215696
vt 0.84830123 0.35174179
vt 0.98309499 0.35174179
vt 0.98309499 0.05016559
vt 0.84830123 0.05016559
vt 0.42823926 0.79386562
vt 0.42823926 0.78499568
vt 0.10892317 0.78499568
vt 0.10892317 0.79386562
vt 0.71017629 0.39460808
vt 0.84496999 0.39460808
vt 0.84496999 0.09303182
vt 0.71017629 0.09303182
vt 0.42823926 0.82189405
vt 0.42823926 0.81302404
vt 0.10892317 0.81302410
vt 0.10892317 0.82189405
vt 0.68003023 0.37347132
vt 0.68003023 0.36460137
vt 0.53079063 0.36460137
vt 0.53079063 0.37347132
vt 0.68003023 0.35525858
vt 0.53079063 0.35525858
vt 0.53079063 0.36412853
vt 0.68003023 0.36412853
vt 0.85306412 0.65656912
vt 0.98456371 0.65656912
vt 0.98456371 0.35499293
vt 0.85306412 0.35499293
vt 0.42823926 0.81255120
vt 0.42823926 0.80368125
vt 0.10892317 0.80368125
vt 0.10892317 0.81255126
vt 0.65453297 0.23743147
vt 0.65453297 0.10593182
vt 0.35295668 0.10593182
vt 0.35295668 0.23743147
vt 0.42823926 0.80320841
vt 0.42823926 0.79433846
vt 0.10892317 0.79433846
vt 0.10892317 0.80320841
vt 0.85101587 0.82134300
vt 0.85988587 0.82134300
vt 0.85988587 0.68829370
vt 0.85101587 0.68829370
vt 0.86971825 0.95486516
vt 0.86971825 0.82181585
vt 0.86084819 0.82181585
vt 0.86084819 0.95486516
vt 0.83635390 0.84708631
vt 0.83635390 0.71403700
vt 0.48155570 0.71403700
vt 0.48155570 0.84708631
vt 0.37434980 0.41842270
vt 0.37434980 0.40955275
vt 0.01955172 0.40955275
vt 0.01955172 0.41842270
vt 0.37434980 0.40413392
vt 0.37434980 0.27108467
vt 0.01955172 0.27108467
vt 0.01955172 0.40413392
vt 0.81730217 0.70896137
vt 0.81730217 0.70009136
vt 0.46250400 0.70009136
vt 0.46250400 0.70896137
vt 0.21307039 0.89681393
vt 0.21307039 0.90568393
vt 0.34611967 0.90519440
vt 0.34611967 0.89632440
vt 0.85150534 0.82181585
vt 0.85101587 0.95486516
vt 0.85988587 0.95486516
vt 0.86037534 0.82181585
vt 0.83635390 0.98521119
vt 0.83635390 0.85216188
vt 0.48155570 0.85216188
vt 0.48155570 0.98521119
vt 0.37434980 0.43271154
vt 0.37434980 0.42384154
vt 0.01955172 0.42384154
vt 0.01955172 0.43271154
vt 0.81730217 0.69467258
vt 0.81730217 0.56162333
vt 0.46250400 0.56162333
vt 0.46250400 0.69467258
vt 0.37434980 0.26600903
vt 0.37434980 0.25713909
vt 0.01955172 0.25713909
vt 0.01955172 0.26600903
vt 0.42823926 0.93144137
vt 0.42823926 0.92257142
vt 0.12456539 0.92257142
vt 0.12456539 0.93144137
vt 0.35295668 0.25172031
vt 0.65663064 0.25172031
vt 0.65663064 0.24285030
vt 0.35295668 0.24285030
vt 0.01955172 0.07549196
vt 0.30548573 0.07549196
vt 0.30548573 0.05774999
vt 0.01955172 0.05774999
vt 0.31328472 0.16354710
vt 0.30441478 0.16354710
vt 0.30441478 0.19902909
vt 0.31328472 0.19902909
vt 0.01955172 0.05644017
vt 0.30548573 0.05644017
vt 0.30548573 0.03869820
vt 0.01955172 0.03869820
vt 0.18275481 0.21724403
vt 0.18275481 0.20837402
vt 0.14727284 0.20837402
vt 0.14727284 0.21724403
vt 0.83877534 0.98044831
vt 0.99130905 0.98044831
vt 0.98243910 0.97157830
vt 0.84764534 0.97157830
vt 0.99130905 0.66113216
vt 0.98243910 0.67000210
vt 0.83877534 0.66113216
vt 0.84764534 0.67000210
vt 0.33886784 0.25172031
vt 0.33886784 0.09918660
vt 0.32999790 0.10805660
vt 0.32999790 0.24285030
vt 0.01955172 0.09918660
vt 0.02842166 0.10805660
vt 0.01955172 0.25172031
vt 0.02842166 0.24285030
vt 0.75324267 0.55654764
vt 0.75324267 0.40730804
vt 0.74437267 0.41617799
vt 0.74437267 0.54767776
vt 0.43392646 0.40730804
vt 0.44279641 0.41617805
vt 0.43392646 0.55654764
vt 0.44279641 0.54767776
vt 0.70561332 0.40413392
vt 0.70561332 0.25489438
vt 0.69674337 0.26376432
vt 0.69674337 0.39526391
vt 0.38629717 0.25489438
vt 0.39516711 0.26376438
vt 0.38629717 0.40413392
vt 0.39516711 0.39526397
vt 0.42823926 0.88661659
vt 0.12456539 0.88661659
vt 0.13343534 0.89548653
vt 0.41936937 0.89548653
vt 0.12456539 0.92209858
vt 0.13343534 0.91322863
vt 0.42823926 0.92209858
vt 0.41936937 0.91322863
vt 0.42823926 0.85066175
vt 0.12456539 0.85066175
vt 0.13343532 0.85953176
vt 0.41936934 0.85953170
vt 0.12456539 0.88614374
vt 0.13343532 0.87727380
vt 0.42823926 0.88614374
vt 0.41936934 0.87727380
vt 0.34611967 0.86439037
vt 0.21132593 0.86439037
vt 0.21132593 0.86793840
vt 0.34611967 0.86793840
vt 0.65453297 0.09099555
vt 0.35295668 0.09099561
vt 0.35295668 0.09454364
vt 0.65453297 0.09454352
vt 0.21132593 0.87195921
vt 0.34611967 0.87195921
vt 0.34611967 0.86841124
vt 0.21132593 0.86841124
vt 0.65453291 0.09575850
vt 0.35295665 0.09575856
vt 0.35295665 0.09930658
vt 0.65453291 0.09930646
vt 0.21132593 0.87598002
vt 0.34611967 0.87598002
vt 0.34611967 0.87243205
vt 0.21132593 0.87243211
vt 0.32112795 0.09099555
vt 0.01955172 0.09099561
vt 0.01955172 0.09454364
vt 0.32112795 0.09454352
vt 0.34611967 0.86036956
vt 0.21132593 0.86036956
vt 0.21132593 0.86391759
vt 0.34611967 0.86391759
vt 0.32112795 0.08623266
vt 0.01955171 0.08623272
vt 0.01955171 0.08978075
vt 0.32112795 0.08978069
vt 0.87373906 0.95486516
vt 0.87373906 0.82336551
vt 0.87019110 0.82336551
vt 0.87019110 0.95486516
vt 0.65453297 0.10052145
vt 0.35295668 0.10052150
vt 0.35295668 0.10406953
vt 0.65453297 0.10406941
vt 0.21462002 0.90970474
vt 0.34611967 0.90970474
vt 0.34611967 0.90615678
vt 0.21462002 0.90615678
vt 0.32112795 0.08146971
vt 0.01955171 0.08146977
vt 0.01955171 0.08501780
vt 0.32112795 0.08501774
vt 0.86084819 0.68984342
vt 0.86084819 0.82134300
vt 0.86439621 0.82134300
vt 0.86439621 0.68984342
vt 0.42823926 0.84664094
vt 0.12666306 0.84664094
vt 0.12666306 0.85018897
vt 0.42823926 0.85018891
vt 0.87775987 0.95486516
vt 0.87775987 0.82336551
vt 0.87421191 0.82336551
vt 0.87421191 0.95486516
vt 0.32112795 0.07670677
vt 0.01955171 0.07670683
vt 0.01955171 0.08025485
vt 0.32112795 0.08025479
vt 0.98997420 0.65656912
vt 0.98997414 0.37063509
vt 0.98642617 0.37063509
vt 0.98642623 0.65656912
vt 0.63207722 0.52636528
vt 0.64981925 0.52636528
vt 0.64981925 0.52281731
vt 0.63207722 0.52281731
vt 0.99118912 0.37063509
vt 0.99118918 0.65656912
vt 0.99473715 0.65656912
vt 0.99473709 0.37063509
vt 0.66941166 0.52813929
vt 0.65166962 0.52813929
vt 0.65166962 0.53168726
vt 0.66941166 0.53168726
vt 0.98642617 0.05628181
vt 0.98642623 0.34221584
vt 0.98997420 0.34221584
vt 0.98997414 0.05628181
vt 0.57938969 0.50104707
vt 0.56164759 0.50104707
vt 0.56164759 0.50459504
vt 0.57938969 0.50459504
vt 0.99950004 0.65656912
vt 0.99949992 0.37063509
vt 0.99595195 0.37063509
vt 0.99595207 0.65656912
vt 0.68762666 0.52813929
vt 0.66988456 0.52813929
vt 0.66988456 0.53168726
vt 0.68762666 0.53168726
vt 0.68762666 0.52766645
vt 0.68762666 0.51879656
vt 0.65029216 0.51879656
vt 0.65029216 0.52766645
vt 0.68762666 0.46415603
vt 0.65029216 0.46415603
vt 0.65029216 0.47302598
vt 0.68762666 0.47302598
vt 0.04812928 0.68936688
vt 0.04812929 0.70896137
vt 0.45278642 0.70896137
vt 0.45278642 0.68936682
vt 0.46576336 0.99949998
vt 0.46576336 0.99063003
vt 0.04336637 0.99063003
vt 0.04336637 0.99949998
vt 0.45278639 0.67562091
vt 0.45278642 0.65602636
vt 0.04812928 0.65602636
vt 0.04812928 0.67562091
vt 0.89442694 0.99949998
vt 0.89442694 0.99063003
vt 0.47202981 0.99063003
vt 0.47202981 0.99949998
vt 0.52702373 0.39215696
vt 0.52702373 0.38328701
vt 0.41846183 0.38328701
vt 0.41846183 0.39215696
vt 0.52702373 0.37394416
vt 0.41846183 0.37394416
vt 0.41846183 0.38281411
vt 0.52702373 0.38281411
vt 0.04812929 0.56098419
vt 0.04812928 0.65180624
vt 0.45278642 0.65180618
vt 0.45278642 0.56098413
vt 0.00050000 0.57083648
vt 0.00936995 0.57083648
vt 0.00936995 0.14843941
vt 0.00050000 0.14843941
vt 0.42420885 0.55654764
vt 0.42420882 0.46572554
vt 0.01955172 0.46572554
vt 0.01955172 0.55654764
vt 0.47052631 0.72325021
vt 0.47052631 0.71438026
vt 0.04812928 0.71438026
vt 0.04812928 0.72325021
vt 0.72765952 0.50861585
vt 0.72765952 0.49974591
vt 0.57986253 0.49974591
vt 0.57986253 0.50861585
vt 0.72765952 0.49040306
vt 0.57986253 0.49040312
vt 0.57986253 0.49927306
vt 0.72765952 0.49927300
vt 0.31328472 0.19950193
vt 0.18322766 0.19950193
vt 0.18322766 0.21724403
vt 0.31328472 0.21724403
vt 0.57938969 0.53652906
vt 0.57938969 0.52765906
vt 0.54390770 0.52765906
vt 0.54390770 0.53652906
vt 0.31328472 0.22173774
vt 0.18322766 0.22173774
vt 0.18322766 0.23947984
vt 0.31328472 0.23947972
vt 0.18275481 0.23545897
vt 0.18275481 0.22658896
vt 0.14727284 0.22658896
vt 0.14727284 0.23545897
vt 0.47052631 0.98521119
vt 0.47052631 0.94787669
vt 0.46165633 0.95674670
vt 0.46165633 0.97634119
vt 0.04812928 0.94787669
vt 0.05699922 0.95674670
vt 0.04812928 0.98521119
vt 0.05699922 0.97634125
vt 0.00050000 0.99473709
vt 0.03783451 0.99473709
vt 0.02896452 0.98586714
vt 0.00936999 0.98586708
vt 0.03783451 0.57234007
vt 0.02896452 0.58121002
vt 0.00050000 0.57234007
vt 0.00936999 0.58121002
vt 0.47052631 0.83279747
vt 0.47052631 0.72423559
vt 0.46165633 0.73310566
vt 0.46165633 0.82392764
vt 0.04812928 0.72423559
vt 0.05699922 0.73310566
vt 0.04812928 0.83279753
vt 0.05699922 0.82392770
vt 0.47052631 0.94234484
vt 0.47052631 0.83378297
vt 0.46165633 0.84265280
vt 0.46165633 0.93347484
vt 0.04812928 0.83378297
vt 0.05699922 0.84265280
vt 0.04812928 0.94234484
vt 0.05699922 0.93347490
vt 0.72765952 0.50908875
vt 0.57986253 0.50908875
vt 0.58873242 0.51795864
vt 0.71878952 0.51795864
vt 0.57986253 0.54457068
vt 0.58873242 0.53570074
vt 0.72765952 0.54457068
vt 0.71878952 0.53570074
vt 0.72765952 0.45444822
vt 0.57986253 0.45444822
vt 0.58873254 0.46331823
vt 0.71878958 0.46331823
vt 0.57986253 0.48993027
vt 0.58873254 0.48106033
vt 0.72765952 0.48993027
vt 0.71878958 0.48106033
vt 0.64981925 0.46415603
vt 0.63022476 0.46415603
vt 0.63022476 0.46770406
vt 0.64981925 0.46770406
vt 0.42420882 0.44821525
vt 0.01955172 0.44821525
vt 0.01955172 0.45176327
vt 0.42420882 0.45176327
vt 0.63022476 0.47574568
vt 0.64981925 0.47574568
vt 0.64981925 0.47219771
vt 0.63022476 0.47219771
vt 0.01955172 0.45652622
vt 0.42420885 0.45652622
vt 0.42420885 0.45297819
vt 0.01955172 0.45297819
vt 0.63022476 0.47172481
vt 0.64981925 0.47172481
vt 0.64981925 0.46817690
vt 0.63022476 0.46817690
vt 0.45278642 0.67683589
vt 0.04812928 0.67683589
vt 0.04812928 0.68038380
vt 0.45278642 0.68038380
vt 0.68762666 0.47349888
vt 0.66803217 0.47349888
vt 0.66803217 0.47704685
vt 0.68762666 0.47704685
vt 0.01955172 0.43747449
vt 0.42420882 0.43747449
vt 0.42420882 0.43392646
vt 0.01955172 0.43392646
vt 0.53031778 0.36992335
vt 0.43949571 0.36992335
vt 0.43949571 0.37347132
vt 0.53031778 0.37347132
vt 0.42420885 0.45774114
vt 0.01955172 0.45774114
vt 0.01955172 0.46128911
vt 0.42420885 0.46128911
vt 0.48856759 0.54457068
vt 0.57938969 0.54457068
vt 0.57938969 0.54102266
vt 0.48856759 0.54102266
vt 0.01955172 0.44700038
vt 0.42420882 0.44700038
vt 0.42420882 0.44345236
vt 0.01955172 0.44345236
vt 0.48856759 0.50861585
vt 0.57938969 0.50861585
vt 0.57938969 0.50506788
vt 0.48856759 0.50506788
vt 0.42420882 0.43868941
vt 0.01955172 0.43868941
vt 0.01955172 0.44223744
vt 0.42420882 0.44223744
vt 0.57938969 0.53700185
vt 0.48856759 0.53700191
vt 0.48856759 0.54054987
vt 0.57938969 0.54054987
vt 0.04812928 0.68514675
vt 0.45278642 0.68514675
vt 0.45278642 0.68159878
vt 0.04812928 0.68159878
vt 0.86841702 0.82134300
vt 0.86841702 0.69128597
vt 0.86486906 0.69128597
vt 0.86486906 0.82134300
vt 0.63207722 0.52234447
vt 0.64981925 0.52234447
vt 0.64981925 0.51879656
vt 0.63207722 0.51879656
vt 0.18322766 0.22126490
vt 0.31328472 0.22126490
vt 0.31328472 0.21771687
vt 0.18322766 0.21771687
vt 0.12905788 0.23545897
vt 0.14679998 0.23545897
vt 0.14679998 0.23191100
vt 0.12905788 0.23191100
vt 0.05269774 0.23947984
vt 0.18275481 0.23947984
vt 0.18275481 0.23593181
vt 0.05269774 0.23593181
vt 0.63207722 0.53038609
vt 0.64981925 0.53038609
vt 0.64981925 0.52683818
vt 0.63207722 0.52683818
vt 0.87373906 0.82289267
vt 0.87373906 0.69283557
vt 0.87019110 0.69283557
vt 0.87019110 0.82289267
vt 0.56164759 0.49927306
vt 0.57938969 0.49927306
vt 0.57938969 0.49572504
vt 0.56164759 0.49572504
f 1/1 2/2 3/3
f 3/3 4/4 1/1
f 5/5 6/6 7/7
f 7/7 8/8 5/5
f 9/9 10/10 11/11
f 11/11 12/12 9/9
f 13/13 14/14 15/15
f 15/15 16/16 13/13
f 17/17 18/18 19/19
f 19/19 20/20 17/17
f 21/21 22/22 23/23
f 23/23 24/24 21/21
f 25/25 26/26 27/27
f 27/27 28/28 25/25
f 29/29 30/30 31/31
f 31/31 32/32 29/29
f 33/33 34/34 35/35
f 35/35 36/36 33/33
f 37/37 38/38 39/39
f 39/39 40/40 37/37
f 41/41 42/42 43/43
f 43/43 44/44 41/41
f 45/45 46/46 47/47
f 47/47 48/48 45/45
f 49/49 50/50 51/51
f 51/51 52/52 49/49
f 53/53 54/54 55/55
f 55/55 56/56 53/53
f 57/57 58/58 59/59
f 59/59 60/60 57/57
f 61/61 62/62 63/63
f 63/63 64/64 61/61
f 65/65 66/66 67/67
f 67/67 68/68 65/65
f 69/69 70/70 71/71
f 71/71 72/72 69/69
f 73/73 74/74 75/75
f 75/75 76/76 73/73
f 77/77 78/78 79/79
f 79/79 80/80 77/77
f 81/81 82/82 83/83
f 83/83 84/84 81/81
f 85/85 86/86 87/87
f 87/87 88/88 85/85
f 89/89 90/90 91/91
f 91/91 92/92 89/89
f 93/93 94/94 95/95
f 95/95 96/96 93/93
f 97/97 98/98 99/99
f 99/99 100/100 97/97
f 101/101 102/102 103/103
f 103/103 104/104 101/101
f 105/105 106/106 107/107
f 107/107 108/108 105/105
f 109/109 110/110 111/111
f 111/111 112/112 109/109
f 113/113 114/114 115/115
f 115/115 116/116 113/113
f 117/117 118/118 119/119
f 119/119 120/120 117/117
f 121/121 122/122 123/123
f 123/123 124/124 121/121
f 122/122 125/125 126/126
f 126/126 123/123 122/122
f 125/125 127/127 128/128
f 128/128 126/126 125/125
f 127/127 121/121 124/124
f 124/124 128/128 127/127
f 129/129 130/130 131/131
f 131/131 132/132 129/129
f 130/130 133/133 134/134
f 134/134 131/131 130/130
f 133/133 135/135 136/136
f 136/136 134/134 133/133
f 135/135 129/129 132/132
f 132/132 136/136 135/135
f 137/137 138/138 139/139
f 139/139 140/140 137/137
f 138/138 141/141 142/142
f 142/142 139/139 138/138
f 141/141 143/143 144/144
f 144/144 142/142 141/141
f 143/143 137/137 140/140
f 140/140 144/144 143/143
f 145/145 146/146 147/147
f 147/147 148/148 145/145
f 146/146 149/149 150/150
f 150/150 147/147 146/146
f 149/149 151/151 152/152
f 152/152 150/150 149/149
f 151/151 145/145 148/148
f 148/148 152/152 151/151
f 153/153 154/154 155/155
f 155/155 156/156 153/153
f 154/154 157/157 158/158
f 158/158 155/155 154/154
f 157/157 159/159 160/160
f 160/160 158/158 157/157
f 159/159 153/153 156/156
f 156/156 160/160 159/159
f 161/161 162/162 163/163
f 163/163 164/164 161/161
f 162/162 165/165 166/166
f 166/166 163/163 162/162
f 165/165 167/167 168/168
f 168/168 166/166 165/165
f 167/167 161/161 164/164
f 164/164 168/168 167/167
f 169/169 170/170 171/171
f 171/171 172/172 169/169
f 173/173 174/174 175/175
f 175/175 176/176 173/173
f 177/177 178/178 179/179
f 179/179 180/180 177/177
f 181/181 182/182 183/183
f 183/183 184/184 181/181
f 185/185 186/186 187/187
f 187/187 188/188 185/185
f 189/189 190/190 191/191
f 191/191 192/192 189/189
f 193/193 194/194 195/195
f 195/195 196/196 193/193
f 197/197 198/198 199/199
f 199/199 200/200 197/197
f 201/201 202/202 203/203
f 203/203 204/204 201/201
f 205/205 206/206 207/207
f 207/207 208/208 205/205
f 209/209 210/210 211/211
f 211/211 212/212 209/209
f 213/213 214/214 215/215
f 215/215 216/216 213/213
f 217/217 218/218 219/219
f 219/219 220/220 217/217
f 221/221 222/222 223/223
f 223/223 224/224 221/221
f 225/225 226/226 227/227
f 227/227 228/228 225/225
f 229/229 230/230 231/231
f 231/231 232/232 229/229
f 233/233 234/234 235/235
f 235/235 236/236 233/233
f 237/237 238/238 239/239
f 239/239 240/240 237/237
f 241/241 242/242 243/243
f 243/243 244/244 241/241
f 245/245 246/246 247/247
f 247/247 248/248 245/245
f 249/249 250/250 251/251
f 251/251 252/252 249/249
f 253/253 254/254 255/255
f 255/255 256/256 253/253
f 257/257 258/258 259/259
f 259/259 260/260 257/257
f 261/261 262/262 263/263
f 263/263 264/264 261/261
f 265/265 266/266 267/267
f 267/267 268/268 265/265
f 269/269 270/270 271/271
f 271/271 272/272 269/269
f 273/273 274/274 275/275
f 275/275 276/276 273/273
f 277/277 278/278 279/279
f 279/279 280/280 277/277
f 281/281 282/282 283/283
f 283/283 284/284 281/281
f 285/285 286/286 287/287
f 287/287 288/288 285/285
f 289/289 290/290 291/291
f 291/291 292/292 289/289
f 293/293 294/294 295/295
f 295/295 296/296 293/293
f 297/297 298/298 299/299
f 299/299 300/300 297/297
f 301/301 302/302 303/303
f 303/303 304/304 301/301
f 305/305 306/306 307/307
f 307/307 308/308 305/305
f 309/309 310/310 311/311
f 311/311 312/312 309/309
f 313/313 314/314 315/315
f 315/315 316/316 313/313
f 317/317 318/318 319/319
f 319/319 320/320 317/317
f 321/321 322/322 323/323
f 323/323 324/324 321/321
f 325/325 326/326 327/327
f 327/327 328/328 325/325
f 329/329 330/330 331/331
f 331/331 332/332 329/329
f 333/333 334/334 335/335
f 335/335 336/336 333/333
f 337/337 338/338 339/339
f 339/339 340/340 337/337
f 338/338 341/341 342/342
f 342/342 339/339 338/338
f 341/341 343/343 344/344
f 344/344 342/342 341/341
f 343/343 337/337 340/340
f 340/340 344/344 343/343
f 345/345 346/346 347/347
f 347/347 348/348 345/345
f 346/346 349/349 350/350
f 350/350 347/347 346/346
f 349/349 351/351 352/352
f 352/352 350/350 349/349
f 351/351 345/345 348/348
f 348/348 352/352 351/351
f 353/353 354/354 355/355
f 355/355 356/356 353/353
f 354/354 357/357 358/358
f 358/358 355/355 354/354
f 357/357 359/359 360/360
f 360/360 358/358 357/357
f 359/359 353/353 356/356
f 356/356 360/360 359/359
f 361/361 362/362 363/363
f 363/363 364/364 361/361
f 362/362 365/365 366/366
f 366/366 363/363 362/362
f 365/365 367/367 368/368
f 368/368 366/366 365/365
f 367/367 361/361 364/364
f 364/364 368/368 367/367
f 369/369 370/370 371/371
f 371/371 372/372 369/369
f 370/370 373/373 374/374
f 374/374 371/371 370/370
f 373/373 375/375 376/376
f 376/376 374/374 373/373
f 375/375 369/369 372/372
f 372/372 376/376 375/375
f 377/377 378/378 379/379
f 379/379 380/380 377/377
f 378/378 381/381 382/382
f 382/382 379/379 378/378
f 381/381 383/383 384/384
f 384/384 382/382 381/381
f 383/383 377/377 380/380
f 380/380 384/384 383/383
f 385/385 386/386 387/387
f 387/387 388/388 385/385
f 389/389 390/390 391/391
f 391/391 392/392 389/389
f 393/393 394/394 395/395
f 395/395 396/396 393/393
f 397/397 398/398 399/399
f 399/399 400/400 397/397
f 401/401 402/402 403/403
f 403/403 404/404 401/401
f 405/405 406/406 407/407
f 407/407 408/408 405/405
f 409/409 410/410 411/411
f 411/411 412/412 409/409
f 413/413 414/414 415/415
f 415/415 416/416 413/413
f 417/417 418/418 419/419
f 419/419 420/420 417/417
f 421/421 422/422 423/423
f 423/423 424/424 421/421
f 425/425 426/426 427/427
f 427/427 428/428 425/425
f 429/429 430/430 431/431
f 431/431 432/432 429/429
f 433/433 434/434 435/435
f 435/435 436/436 433/433
f 437/437 438/438 439/439
f 439/439 440/440 437/437
f 441/441 442/442 443/443
f 443/443 444/444 441/441
f 445/445 446/446 447/447
f 447/447 448/448 445/445
f 449/449 450/450 451/451
f 451/451 452/452 449/449
f 453/453 454/454 455/455
f 455/455 456/456 453/453
f 457/457 458/458 459/459
f 459/459 460/460 457/457
f 461/461 462/462 463/463
f 463/463 464/464 461/461
f 465/465 466/466 467/467
f 467/467 468/468 465/465
f 469/469 470/470 471/471
f 471/471 472/472 469/469
f 473/473 474/474 475/475
f 475/475 476/476 473/473
f 477/477 478/478 479/479
f 479/479 480/480 477/477

