# https://github.com/mikedh/trimesh
v -4.06146105 2.50696919 -1.71657121
v -3.63776580 2.48735768 0.26591886
v -4.06146105 2.59055334 -1.71657121
v -3.99817906 2.46594194 -1.71657121
v -3.50407773 2.25637360 0.26591886
v -3.63776580 2.60985103 0.26591886
v -3.94830798 2.61365566 -1.71657121
v -3.53969981 2.25637360 -1.71657121
v -3.34105358 2.25637360 0.26591886
v -3.53215627 2.62781518 0.26591886
v -3.80330460 2.62118648 -1.68493993
v -3.80330460 2.61361644 -1.71657121
v -3.52586985 2.62887418 0.26591886
v -3.35488333 2.25637360 -1.71657121
v -3.34105358 2.25637360 -0.95431388
v 0.21991417 2.34682177 0.26591886
v -2.97058214 2.65707550 0.25796249
v -0.61155097 2.65001538 -1.40743775
v 0.21991417 2.61208675 -1.71657121
v -2.97058214 2.65444756 0.26591886
v -3.35236889 2.25637360 -1.70104668
v 0.21991417 2.44307495 -1.71657121
v 0.21991417 2.34686099 0.25796249
v -3.34231070 2.25637360 -1.40743775
v -3.34314878 2.25637360 -1.50854168
v -3.34356803 2.25637360 -1.54618884
v -3.34733980 2.25637360 -1.63603724
v -3.34985424 2.25637360 -1.68493993
v 0.21991417 2.61200831 0.26591886
v 0.21991417 2.61204753 -0.29548908
v 0.21991417 2.61208675 -1.12818931
f 1 2 6
f 1 6 3
f 1 3 7
f 1 7 12
f 1 12 19
f 1 19 22
f 1 22 14
f 1 14 8
f 1 8 4
f 1 4 5
f 1 5 2
f 2 5 9
f 2 9 16
f 2 16 29
f 2 29 20
f 2 20 13
f 2 13 10
f 2 10 6
f 3 6 7
f 4 8 5
f 5 8 14
f 5 14 21
f 5 21 28
f 5 28 27
f 5 27 26
f 5 26 25
f 5 25 24
f 5 24 15
f 5 15 9
f 6 10 7
f 7 11 12
f 7 10 13
f 7 13 11
f 9 15 16
f 11 13 17
f 11 17 18
f 11 18 19
f 11 19 12
f 13 20 17
f 14 22 23
f 14 23 16
f 14 16 21
f 15 24 16
f 16 24 25
f 16 25 26
f 16 26 27
f 16 27 28
f 16 28 21
f 16 23 22
f 16 22 19
f 16 19 31
f 16 31 30
f 16 30 29
f 17 20 29
f 17 29 18
f 18 29 30
f 18 30 31
f 18 31 19

