# https://github.com/mikedh/trimesh
v 4.66297244 0.93547903 4.56351418
v 4.51884396 0.92783063 4.42396948
v 4.56133283 0.91733282 4.51890902
v 4.70896006 0.91200899 4.65044440
v 4.80210224 0.92753072 4.67114486
v 5.92547098 0.92873055 4.57417259
v 6.06010179 0.93465429 4.43025383
v 4.52450906 0.91335867 4.33506775
v 4.44353061 0.90818479 4.33913405
v 4.44353061 0.90818479 4.37887165
v 6.14424641 0.91950734 4.32397789
v 4.49884920 0.81385437 4.44762722
v 4.52534217 0.16951291 4.41380415
v 4.70896006 0.84722241 4.65044440
v 4.79243827 0.80613089 4.67952400
v 5.83782761 0.88921364 4.77132136
v 5.84599206 0.88921364 4.77132136
v 5.87898325 0.91553319 4.69979343
v 6.01961257 0.92160698 4.53677590
v 6.14424641 0.91950734 4.38934515
v 5.07969542 0.84872214 4.14204650
v 4.94089862 0.84137364 4.14204650
v 4.59682336 0.45017981 4.14204650
v 4.58399322 0.39746563 4.14204650
v 4.54600334 0.16951291 4.16434908
v 4.44269749 0.81385437 4.33580697
v 4.85208873 0.80973016 4.14204650
v 4.80593440 0.79308358 4.14204650
v 4.44269749 0.81385437 4.37825571
v 6.14491282 0.81385437 4.31621511
v 6.03860751 0.16951291 4.16206939
v 5.99261989 0.39746563 4.14204650
v 5.90714245 0.53401232 4.14204650
v 5.72535750 0.76241500 4.14204650
v 5.66803927 0.79938231 4.14204650
v 5.65337661 0.80650588 4.14204650
v 5.49858433 0.84849711 4.14204650
v 5.08236106 0.84872214 4.14204650
v 4.81726502 0.16951291 4.68217309
v 4.49934932 0.16951291 4.28873762
v 5.83782761 0.87624141 4.77132136
v 5.84599206 0.87624141 4.77132136
v 6.14491282 0.81385437 4.38928352
v 4.64830979 0.26624298 4.14204650
v 4.53234050 0.16951291 4.19281233
v 4.65047572 0.16951291 4.15424498
v 4.49834949 0.16951291 4.28343944
v 4.45019553 0.72319810 4.34381629
v 4.45019553 0.72319810 4.36069700
v 6.08742788 0.16951291 4.28343944
v 6.08559536 0.16951291 4.27734000
v 6.01744663 0.16951291 4.15295145
v 5.98195610 0.33177923 4.14204650
v 4.93773287 0.16951291 4.68525363
v 5.78717430 0.16951291 4.69400216
v 6.04627225 0.16951291 4.41214041
v 5.21599246 0.25192077 4.14204650
v 5.32712976 0.16951291 4.14592789
v 5.21249330 0.16951291 4.14629729
v 5.91930577 0.26519311 4.14204650
v 5.92247193 0.26736773 4.14204650
v 5.35712190 0.16951291 4.14598953
f 1 2 3
f 1 3 4
f 1 4 5
f 1 5 6
f 1 6 7
f 1 7 2
f 2 8 9
f 2 9 10
f 2 10 3
f 2 7 11
f 2 11 8
f 3 10 12
f 3 12 13
f 3 13 14
f 3 14 4
f 4 14 15
f 4 15 5
f 5 15 16
f 5 16 17
f 5 17 18
f 5 18 6
f 6 18 7
f 7 18 19
f 7 19 20
f 7 20 11
f 8 21 22
f 8 22 9
f 8 11 21
f 9 23 24
f 9 24 25
f 9 25 26
f 9 26 29
f 9 29 10
f 9 22 27
f 9 27 28
f 9 28 23
f 10 29 12
f 11 20 43
f 11 43 30
f 11 30 31
f 11 31 32
f 11 32 33
f 11 33 34
f 11 34 35
f 11 35 36
f 11 36 37
f 11 37 38
f 11 38 21
f 12 29 13
f 13 39 14
f 13 29 40
f 13 40 47
f 13 47 45
f 13 45 25
f 13 25 46
f 13 46 59
f 13 59 58
f 13 58 62
f 13 62 52
f 13 52 31
f 13 31 51
f 13 51 50
f 13 50 56
f 13 56 55
f 13 55 54
f 13 54 39
f 14 39 15
f 15 39 16
f 16 41 42
f 16 42 17
f 16 39 41
f 17 42 43
f 17 43 20
f 17 20 19
f 17 19 18
f 21 38 37
f 21 37 36
f 21 36 35
f 21 35 34
f 21 34 33
f 21 33 32
f 21 32 53
f 21 53 61
f 21 61 60
f 21 60 57
f 21 57 44
f 21 44 24
f 21 24 23
f 21 23 28
f 21 28 27
f 21 27 22
f 24 44 25
f 25 45 26
f 25 44 46
f 26 45 47
f 26 47 48
f 26 48 49
f 26 49 29
f 29 49 47
f 29 47 40
f 30 43 50
f 30 50 51
f 30 51 31
f 31 52 32
f 32 52 53
f 39 54 41
f 41 55 42
f 41 54 55
f 42 55 56
f 42 56 43
f 43 56 50
f 44 57 58
f 44 58 59
f 44 59 46
f 47 49 48
f 52 60 61
f 52 61 53
f 52 62 60
f 57 60 58
f 58 60 62

