mtllib material.mtl
usemtl material_0
v 0.38366175 0.09136248 0.24649453
v 0.62470102 0.09136248 0.24649453
v 0.62470102 0.09136248 0.19649124
v 0.33365870 0.09136248 0.19649124
v 0.38366175 -0.00863743 0.24649453
v 0.62470102 -0.00863743 0.24649453
v 0.62470102 0.09136248 0.24649453
v 0.38366175 0.09136248 0.24649453
v 0.33365870 -0.00863743 0.19649124
v 0.62470102 -0.00863743 0.19649124
v 0.62470102 -0.00863743 0.24649453
v 0.38366175 -0.00863743 0.24649453
v 0.33365870 0.09136248 0.19649124
v 0.62470102 0.09136248 0.19649124
v 0.62470102 -0.00863743 0.19649124
v 0.33365870 -0.00863743 0.19649124
v 0.38366175 0.09136248 1.49525428
v 0.33365870 0.09136248 1.54525733
v 0.38366175 -0.00863743 1.49525428
v 0.38366175 -0.00863743 0.24649453
v 0.38366175 0.09136248 0.24649453
v 0.38366175 0.09136248 1.49525428
v 0.33365870 -0.00863743 1.54525733
v 0.38366175 -0.00863743 1.49525428
v 0.33365870 0.09136248 1.54525733
v 0.33365870 0.09136248 0.19649124
v 0.33365870 -0.00863743 0.19649124
v 0.33365870 -0.00863743 1.54525733
v 0.62470102 0.09136248 1.49525428
v 0.62470102 0.09136248 1.54525733
v 0.62470102 -0.00863743 1.49525428
v 0.38366175 -0.00863743 1.49525428
v 0.38366175 0.09136248 1.49525428
v 0.62470102 0.09136248 1.49525428
v 0.62470102 -0.00863743 1.54525733
v 0.62470102 -0.00863743 1.49525428
v 0.62470102 0.09136248 1.54525733
v 0.33365870 0.09136248 1.54525733
v 0.33365870 -0.00863743 1.54525733
v 0.62470102 -0.00863743 1.54525733
v 0.62470102 -0.00863743 0.24649453
v 0.62470102 -0.00863743 0.19649124
v 0.62470102 0.09136248 0.19649124
v 0.62470102 0.09136248 0.24649453
v 0.62470102 -0.00863743 1.49525428
v 0.62470102 0.09136248 1.49525428
v 0.62470102 0.09136248 1.54525733
v 0.62470102 -0.00863743 1.54525733
v -3.37795734 0.09136248 1.77715659
v -5.90158844 0.09136248 1.77715659
v -5.90158844 0.09136248 1.82715964
v -3.42796040 0.09136248 1.82715964
v -3.37795734 -0.00863743 1.77715659
v -5.90158844 -0.00863743 1.77715659
v -5.90158844 0.09136248 1.77715659
v -3.37795734 0.09136248 1.77715659
v -3.42796040 -0.00863743 1.82715964
v -5.90158844 -0.00863743 1.82715964
v -5.90158844 -0.00863743 1.77715659
v -3.37795734 -0.00863743 1.77715659
v -3.42796040 0.09136248 1.82715964
v -5.90158844 0.09136248 1.82715964
v -5.90158844 -0.00863743 1.82715964
v -3.42796040 -0.00863743 1.82715964
v -3.37796116 0.09136248 3.85114646
v -3.42795658 0.09136248 3.90114236
v -3.37796116 -0.00863743 3.85114646
v -3.37795734 -0.00863743 1.77715659
v -3.37795734 0.09136248 1.77715659
v -3.37796116 0.09136248 3.85114646
v -3.42795658 -0.00863743 3.90114236
v -3.37796116 -0.00863743 3.85114646
v -3.42795658 0.09136248 3.90114236
v -3.42796040 0.09136248 1.82715964
v -3.42796040 -0.00863743 1.82715964
v -3.42795658 -0.00863743 3.90114236
v -1.31314278 0.09136248 3.85163474
v -1.31314993 0.09136248 3.90163779
v -1.31314278 -0.00863743 3.85163474
v -3.37796116 -0.00863743 3.85114646
v -3.37796116 0.09136248 3.85114646
v -1.31314278 0.09136248 3.85163474
v -1.31314993 -0.00863743 3.90163779
v -1.31314278 -0.00863743 3.85163474
v -1.31314993 0.09136248 3.90163779
v -3.42795658 0.09136248 3.90114236
v -3.42795658 -0.00863743 3.90114236
v -1.31314993 -0.00863743 3.90163779
v -5.90158844 -0.00863743 1.77715659
v -5.90158844 -0.00863743 1.82715964
v -5.90158844 0.09136248 1.82715964
v -5.90158844 0.09136248 1.77715659
v -1.31314278 -0.00863743 3.85163474
v -1.31314278 0.09136248 3.85163474
v -1.31314993 0.09136248 3.90163779
v -1.31314993 -0.00863743 3.90163779
v 5.64290476 0.09136248 -4.97842026
v 5.64290476 0.09136248 -5.35048676
v 5.59290171 0.09136248 -5.35048676
v 5.59290171 0.09136248 -4.92841721
v 5.64290476 -0.00863743 -4.97842026
v 5.64290476 -0.00863743 -5.35048676
v 5.64290476 0.09136248 -5.35048676
v 5.64290476 0.09136248 -4.97842026
v 5.59290171 -0.00863743 -4.92841721
v 5.59290171 -0.00863743 -5.35048676
v 5.64290476 -0.00863743 -5.35048676
v 5.64290476 -0.00863743 -4.97842026
v 5.59290171 0.09136248 -4.92841721
v 5.59290171 0.09136248 -5.35048676
v 5.59290171 -0.00863743 -5.35048676
v 5.59290171 -0.00863743 -4.92841721
v 6.75036860 0.09136868 -4.97839737
v 6.70036554 0.09135675 -4.92839813
v 6.75037622 -0.00863123 -4.97843933
v 5.64290476 -0.00863743 -4.97842026
v 5.64290476 0.09136248 -4.97842026
v 6.75036860 0.09136868 -4.97839737
v 6.70037317 -0.00864363 -4.92844009
v 6.75037622 -0.00863123 -4.97843933
v 6.70036554 0.09135675 -4.92839813
v 5.59290171 0.09136248 -4.92841721
v 5.59290171 -0.00863743 -4.92841721
v 6.70037317 -0.00864363 -4.92844009
v 6.75035667 0.09136868 -2.26527023
v 6.70035791 0.09135628 -2.26527023
v 6.75038338 -0.00863123 -2.26529336
v 6.75037622 -0.00863123 -4.97843933
v 6.75036860 0.09136868 -4.97839737
v 6.75035667 0.09136868 -2.26527023
v 6.70038462 -0.00864363 -2.26529336
v 6.75038338 -0.00863123 -2.26529336
v 6.70035791 0.09135628 -2.26527023
v 6.70036554 0.09135675 -4.92839813
v 6.70037317 -0.00864363 -4.92844009
v 6.70038462 -0.00864363 -2.26529336
v 6.75035667 0.09136868 -0.25168610
v 6.70035791 0.09135675 -0.25168610
v 6.75038338 -0.00863075 -0.25170946
v 6.75035667 0.09136868 -0.25168610
v 6.70038462 -0.00864363 -0.25170946
v 6.75038338 -0.00863075 -0.25170946
v 6.70035791 0.09135675 -0.25168610
v 6.70038462 -0.00864363 -0.25170946
v 5.64290476 -0.00863743 -5.35048676
v 5.59290171 -0.00863743 -5.35048676
v 5.59290171 0.09136248 -5.35048676
v 5.64290476 0.09136248 -5.35048676
v 6.75038338 -0.00863075 -0.25170946
v 6.75035667 0.09136868 -0.25168610
v 6.70035791 0.09135675 -0.25168610
v 6.70038462 -0.00864363 -0.25170946
v -6.75037098 0.09136248 0.97156167
v -6.75037479 0.09136248 1.99811578
v -6.70037174 0.09136248 1.99811578
v -6.70037556 0.09136248 1.02187753
v -6.75037098 -0.00863743 0.97156167
v -6.75037479 -0.00863743 1.99811578
v -6.75037479 0.09136248 1.99811578
v -6.75037098 0.09136248 0.97156167
v -6.70037556 -0.00863743 1.02187753
v -6.70037174 -0.00863743 1.99811578
v -6.75037479 -0.00863743 1.99811578
v -6.75037098 -0.00863743 0.97156167
v -6.70037556 0.09136248 1.02187753
v -6.70037174 0.09136248 1.99811578
v -6.70037174 -0.00863743 1.99811578
v -6.70037556 -0.00863743 1.02187753
v -3.70495415 0.09136248 0.99063849
v -3.70223713 0.09136248 1.04065728
v -3.70495415 -0.00863743 0.99063849
v -6.75037098 -0.00863743 0.97156167
v -6.75037098 0.09136248 0.97156167
v -3.70495415 0.09136248 0.99063849
v -3.70223713 -0.00863743 1.04065728
v -3.70495415 -0.00863743 0.99063849
v -3.70223713 0.09136248 1.04065728
v -6.70037556 0.09136248 1.02187753
v -6.70037556 -0.00863743 1.02187753
v -3.70223713 -0.00863743 1.04065728
v -3.63665199 0.09136248 0.98276114
v -3.62516975 0.09136248 1.03176522
v -3.63665199 -0.00863743 0.98276114
v -3.63665199 0.09136248 0.98276114
v -3.62516975 -0.00863743 1.03176522
v -3.63665199 -0.00863743 0.98276114
v -3.62516975 0.09136248 1.03176522
v -3.62516975 -0.00863743 1.03176522
v -3.57524586 0.09136248 0.96079993
v -3.55308247 0.09136248 1.00596642
v -3.57524586 -0.00863743 0.96079993
v -3.57524586 0.09136248 0.96079993
v -3.55308247 -0.00863743 1.00596642
v -3.57524586 -0.00863743 0.96079993
v -3.55308247 0.09136248 1.00596642
v -3.55308247 -0.00863743 1.00596642
v -3.52100086 0.09136248 0.92629266
v -3.48952961 0.09136248 0.96553063
v -3.52100086 -0.00863743 0.92629266
v -3.52100086 0.09136248 0.92629266
v -3.48952961 -0.00863743 0.96553063
v -3.52100086 -0.00863743 0.92629266
v -3.48952961 0.09136248 0.96553063
v -3.48952961 -0.00863743 0.96553063
v -3.47574711 0.09136248 0.88103509
v -3.43650913 0.09136248 0.91250587
v -3.47574711 -0.00863743 0.88103509
v -3.47574711 0.09136248 0.88103509
v -3.43650913 -0.00863743 0.91250587
v -3.47574711 -0.00863743 0.88103509
v -3.43650913 0.09136248 0.91250587
v -3.43650913 -0.00863743 0.91250587
v -3.44124699 0.09136248 0.82678962
v -3.39608097 0.09136248 0.84895301
v -3.44124699 -0.00863743 0.82678962
v -3.44124699 0.09136248 0.82678962
v -3.39608097 -0.00863743 0.84895301
v -3.44124699 -0.00863743 0.82678962
v -3.39608097 0.09136248 0.84895301
v -3.39608097 -0.00863743 0.84895301
v -3.41927433 0.09136248 0.76538444
v -3.37027073 0.09136248 0.77686667
v -3.41927433 -0.00863743 0.76538444
v -3.41927433 0.09136248 0.76538444
v -3.37027073 -0.00863743 0.77686667
v -3.41927433 -0.00863743 0.76538444
v -3.37027073 0.09136248 0.77686667
v -3.37027073 -0.00863743 0.77686667
v -3.41139698 0.09136248 0.69709802
v -3.36137867 0.09136248 0.69978333
v -3.41139698 -0.00863743 0.69709802
v -3.41139698 0.09136248 0.69709802
v -3.36137867 -0.00863743 0.69978333
v -3.41139698 -0.00863743 0.69709802
v -3.36137867 0.09136248 0.69978333
v -3.36137867 -0.00863743 0.69978333
v -3.42795658 0.09136248 -1.54383469
v -3.37796116 0.09136248 -1.54517770
v -3.42795658 -0.00863743 -1.54383469
v -3.42795658 0.09136248 -1.54383469
v -3.37796116 -0.00863743 -1.54517770
v -3.42795658 -0.00863743 -1.54383469
v -3.37796116 0.09136248 -1.54517770
v -3.37796116 -0.00863743 -1.54517770
v -3.43175983 0.09136248 -1.62416863
v -3.38193989 0.09136248 -1.62921178
v -3.43175983 -0.00863743 -1.62416863
v -3.43175983 0.09136248 -1.62416863
v -3.38193989 -0.00863743 -1.62921178
v -3.43175983 -0.00863743 -1.62416863
v -3.38193989 0.09136248 -1.62921178
v -3.38193989 -0.00863743 -1.62921178
v -3.44314289 0.09136248 -1.69658649
v -3.39425373 0.09136248 -1.70755005
v -3.44314289 -0.00863743 -1.69658649
v -3.44314289 0.09136248 -1.69658649
v -3.39425373 -0.00863743 -1.70755005
v -3.44314289 -0.00863743 -1.69658649
v -3.39425373 0.09136248 -1.70755005
v -3.39425373 -0.00863743 -1.70755005
v -3.46194553 0.09136248 -1.76064336
v -3.41504765 0.09136248 -1.77838910
v -3.46194553 -0.00863743 -1.76064336
v -3.46194553 0.09136248 -1.76064336
v -3.41504765 -0.00863743 -1.77838910
v -3.46194553 -0.00863743 -1.76064336
v -3.41504765 0.09136248 -1.77838910
v -3.41504765 -0.00863743 -1.77838910
v -3.48798466 0.09136248 -1.81650567
v -3.44451237 0.09136248 -1.84156823
v -3.48798466 -0.00863743 -1.81650567
v -3.48798466 0.09136248 -1.81650567
v -3.44451237 -0.00863743 -1.84156823
v -3.48798466 -0.00863743 -1.81650567
v -3.44451237 0.09136248 -1.84156823
v -3.44451237 -0.00863743 -1.84156823
v -3.52120686 0.09136248 -1.86451757
v -3.48270893 0.09136248 -1.89673650
v -3.52120686 -0.00863743 -1.86451757
v -3.52120686 0.09136248 -1.86451757
v -3.48270893 -0.00863743 -1.89673650
v -3.52120686 -0.00863743 -1.86451757
v -3.48270893 0.09136248 -1.89673650
v -3.48270893 -0.00863743 -1.89673650
v -3.56118488 0.09136248 -1.90450275
v -3.53005028 0.09136248 -1.94407678
v -3.56118488 -0.00863743 -1.90450275
v -3.56118488 0.09136248 -1.90450275
v -3.53005028 -0.00863743 -1.94407678
v -3.56118488 -0.00863743 -1.90450275
v -3.53005028 0.09136248 -1.94407678
v -3.53005028 -0.00863743 -1.94407678
v -3.63835716 0.09136248 -1.95156145
v -3.61567402 0.09136248 -1.99628496
v -3.63835716 -0.00863743 -1.95156145
v -3.63835716 0.09136248 -1.95156145
v -3.61567402 -0.00863743 -1.99628496
v -3.63835716 -0.00863743 -1.95156145
v -3.61567402 0.09136248 -1.99628496
v -3.61567402 -0.00863743 -1.99628496
v -3.66831303 0.09136248 -1.96404266
v -3.65047550 0.09136248 -2.01078081
v -3.66831303 -0.00863743 -1.96404266
v -3.66831303 0.09136248 -1.96404266
v -3.65047550 -0.00863743 -2.01078081
v -3.66831303 -0.00863743 -1.96404266
v -3.65047550 0.09136248 -2.01078081
v -3.65047550 -0.00863743 -2.01078081
v -3.70059299 0.09136248 -1.97519350
v -3.68571568 0.09136248 -2.02295303
v -3.70059299 -0.00863743 -1.97519350
v -3.70059299 0.09136248 -1.97519350
v -3.68571568 -0.00863743 -2.02295303
v -3.70059299 -0.00863743 -1.97519350
v -3.68571568 0.09136248 -2.02295303
v -3.68571568 -0.00863743 -2.02295303
v -3.73415947 0.09136248 -1.98440981
v -3.72249317 0.09136248 -2.03305483
v -3.73415947 -0.00863743 -1.98440981
v -3.73415947 0.09136248 -1.98440981
v -3.72249317 -0.00863743 -2.03305483
v -3.73415947 -0.00863743 -1.98440981
v -3.72249317 0.09136248 -2.03305483
v -3.72249317 -0.00863743 -2.03305483
v -3.76906681 0.09136248 -1.99153519
v -3.76073551 0.09136248 -2.04086685
v -3.76906681 -0.00863743 -1.99153519
v -3.76906681 0.09136248 -1.99153519
v -3.76073551 -0.00863743 -2.04086685
v -3.76906681 -0.00863743 -1.99153519
v -3.76073551 0.09136248 -2.04086685
v -3.76073551 -0.00863743 -2.04086685
v -3.80536366 0.09136248 -1.99640322
v -3.80044270 0.09136248 -2.04619241
v -3.80536366 -0.00863743 -1.99640322
v -3.80536366 0.09136248 -1.99640322
v -3.80044270 -0.00863743 -2.04619241
v -3.80536366 -0.00863743 -1.99640322
v -3.80044270 0.09136248 -2.04619241
v -3.80044270 -0.00863743 -2.04619241
v -3.84318256 0.09136248 -1.99883699
v -3.84148884 0.09136248 -2.04884005
v -3.84318256 -0.00863743 -1.99883699
v -3.84318256 0.09136248 -1.99883699
v -3.84148884 -0.00863743 -2.04884005
v -3.84318256 -0.00863743 -1.99883699
v -3.84148884 0.09136248 -2.04884005
v -3.84148884 -0.00863743 -2.04884005
v -3.88322926 0.09136248 -1.99865341
v -3.88322926 0.09136248 -2.04865646
v -3.88322926 -0.00863743 -1.99865341
v -3.88322926 0.09136248 -1.99865341
v -3.88322926 -0.00863743 -2.04865646
v -3.88322926 -0.00863743 -1.99865341
v -3.88322926 0.09136248 -2.04865646
v -3.88322926 -0.00863743 -2.04865646
v -6.44833565 0.09136248 -1.99865341
v -6.39833260 0.09136248 -2.04865646
v -6.44833565 -0.00863743 -1.99865341
v -6.44833565 0.09136248 -1.99865341
v -6.39833260 -0.00863743 -2.04865646
v -6.44833565 -0.00863743 -1.99865341
v -6.39833260 0.09136248 -2.04865646
v -6.39833260 -0.00863743 -2.04865646
v -6.44833565 0.09136248 -3.23666811
v -6.39833260 0.09136248 -3.18666506
v -6.44833565 -0.00863743 -3.23666811
v -6.44833565 -0.00863743 -1.99865341
v -6.44833565 0.09136248 -1.99865341
v -6.44833565 0.09136248 -3.23666811
v -6.39833260 -0.00863743 -3.18666506
v -6.44833565 -0.00863743 -3.23666811
v -6.39833260 0.09136248 -3.18666506
v -6.39833260 0.09136248 -2.04865646
v -6.39833260 -0.00863743 -2.04865646
v -6.39833260 -0.00863743 -3.18666506
v -5.86438847 0.09136868 -3.23664474
v -5.81438541 0.09135675 -3.18664551
v -5.86439705 -0.00863075 -3.23668694
v -6.44833565 -0.00863743 -3.23666811
v -6.44833565 0.09136248 -3.23666811
v -5.86438847 0.09136868 -3.23664474
v -5.81439400 -0.00864363 -3.18668771
v -5.86439705 -0.00863075 -3.23668694
v -5.81438541 0.09135675 -3.18664551
v -6.39833260 0.09136248 -3.18666506
v -6.39833260 -0.00863743 -3.18666506
v -5.81439400 -0.00864363 -3.18668771
v -5.86438465 0.09137487 -3.38764620
v -5.81438541 0.09135056 -3.33764315
v -5.86439705 -0.00862551 -3.38772964
v -5.86439705 -0.00863075 -3.23668694
v -5.86438847 0.09136868 -3.23664474
v -5.86438465 0.09137487 -3.38764620
v -5.81439686 -0.00864935 -3.33772659
v -5.86439705 -0.00862551 -3.38772964
v -5.81438541 0.09135056 -3.33764315
v -5.81438541 0.09135675 -3.18664551
v -5.81439400 -0.00864363 -3.18668771
v -5.81439686 -0.00864935 -3.33772659
v -4.30424213 0.09137487 -3.38768005
v -4.35424519 0.09135056 -3.33768082
v -4.30415821 -0.00862551 -3.38769150
v -5.86439705 -0.00862551 -3.38772964
v -5.86438465 0.09137487 -3.38764620
v -4.30424213 0.09137487 -3.38768005
v -4.35416126 -0.00864935 -3.33769202
v -4.30415821 -0.00862551 -3.38769150
v -4.35424519 0.09135056 -3.33768082
v -5.81438541 0.09135056 -3.33764315
v -5.81439686 -0.00864935 -3.33772659
v -4.35416126 -0.00864935 -3.33769202
v -4.30424595 0.09138060 -3.23663712
v -4.35424519 0.09134436 -3.18663788
v -4.30415821 -0.00861883 -3.23669434
v -4.30415821 -0.00862551 -3.38769150
v -4.30424213 0.09137487 -3.38768005
v -4.30424595 0.09138060 -3.23663712
v -4.35415745 -0.00865555 -3.18669510
v -4.30415821 -0.00861883 -3.23669434
v -4.35424519 0.09134436 -3.18663788
v -4.35424519 0.09135056 -3.33768082
v -4.35416126 -0.00864935 -3.33769202
v -4.35415745 -0.00865555 -3.18669510
v -3.69976521 0.09138060 -3.23662210
v -3.64976597 0.09134436 -3.18662286
v -3.69982243 -0.00861883 -3.23670959
v -4.30415821 -0.00861883 -3.23669434
v -4.30424595 0.09138060 -3.23663712
v -3.69976521 0.09138060 -3.23662210
v -3.64982319 -0.00865555 -3.18671012
v -3.69982243 -0.00861883 -3.23670959
v -3.64976597 0.09134436 -3.18662286
v -4.35424519 0.09134436 -3.18663788
v -4.35415745 -0.00865555 -3.18669510
v -3.64982319 -0.00865555 -3.18671012
v -3.69976139 0.09138727 -3.55877686
v -3.64976215 0.09133816 -3.50877762
v -3.69982624 -0.00861263 -3.55891085
v -3.69982243 -0.00861883 -3.23670959
v -3.69976521 0.09138060 -3.23662210
v -3.69976139 0.09138727 -3.55877686
v -3.64982700 -0.00866175 -3.50891137
v -3.69982624 -0.00861263 -3.55891085
v -3.64976215 0.09133816 -3.50877762
v -3.64976597 0.09134436 -3.18662286
v -3.64982319 -0.00865555 -3.18671012
v -3.64982700 -0.00866175 -3.50891137
v -1.88797474 0.09138727 -3.55881143
v -1.93797398 0.09133816 -3.50881219
v -1.88784122 -0.00861263 -3.55887628
v -3.69982624 -0.00861263 -3.55891085
v -3.69976139 0.09138727 -3.55877686
v -1.88797474 0.09138727 -3.55881143
v -1.93784094 -0.00866175 -3.50887680
v -1.88784122 -0.00861263 -3.55887628
v -1.93797398 0.09133816 -3.50881219
v -3.64976215 0.09133816 -3.50877762
v -3.64982700 -0.00866175 -3.50891137
v -1.93784094 -0.00866175 -3.50887680
v -1.88797903 0.09139299 -3.23661447
v -1.93797779 0.09133196 -3.18661523
v -1.88783789 -0.00860691 -3.23671699
v -1.88784122 -0.00861263 -3.55887628
v -1.88797474 0.09138727 -3.55881143
v -1.88797903 0.09139299 -3.23661447
v -1.93783712 -0.00866795 -3.18671846
v -1.88783789 -0.00860691 -3.23671699
v -1.93797779 0.09133196 -3.18661523
v -1.93797398 0.09133816 -3.50881219
v -1.93784094 -0.00866175 -3.50887680
v -1.93783712 -0.00866795 -3.18671846
v -1.68615484 0.09139299 -3.23659515
v -1.63615561 0.09133196 -3.18659592
v -1.68625784 -0.00860691 -3.23673654
v -1.88783789 -0.00860691 -3.23671699
v -1.88797903 0.09139299 -3.23661447
v -1.68615484 0.09139299 -3.23659515
v -1.63625860 -0.00866795 -3.18673730
v -1.68625784 -0.00860691 -3.23673654
v -1.63615561 0.09133196 -3.18659592
v -1.93797779 0.09133196 -3.18661523
v -1.93783712 -0.00866795 -3.18671846
v -1.63625860 -0.00866795 -3.18673730
v -1.68615103 0.09139919 -3.55875421
v -1.63615179 0.09132624 -3.50875497
v -1.68626165 -0.00860071 -3.55893326
v -1.68625784 -0.00860691 -3.23673654
v -1.68615484 0.09139299 -3.23659515
v -1.68615103 0.09139919 -3.55875421
v -1.63626242 -0.00867414 -3.50893402
v -1.68626165 -0.00860071 -3.55893326
v -1.63615179 0.09132624 -3.50875497
v -1.63615561 0.09133196 -3.18659592
v -1.63625860 -0.00866795 -3.18673730
v -1.63626242 -0.00867414 -3.50893402
v 0.38387918 0.09139919 -3.55878806
v 0.33387995 0.09132624 -3.50878954
v 0.38405848 -0.00860071 -3.55889893
v -1.68626165 -0.00860071 -3.55893326
v -1.68615103 0.09139919 -3.55875421
v 0.38387918 0.09139919 -3.55878806
v 0.33405924 -0.00867414 -3.50889945
v 0.38405848 -0.00860071 -3.55889893
v 0.33387995 0.09132624 -3.50878954
v -1.63615179 0.09132624 -3.50875497
v -1.63626242 -0.00867414 -3.50893402
v 0.33405924 -0.00867414 -3.50889945
v 0.38387537 0.09140539 -2.80366516
v 0.33387613 0.09132004 -2.75366569
v 0.38406229 -0.00859451 -2.80382156
v 0.38405848 -0.00860071 -3.55889893
v 0.38387918 0.09139919 -3.55878806
v 0.38387537 0.09140539 -2.80366516
v 0.33406305 -0.00867987 -2.75382233
v 0.38406229 -0.00859451 -2.80382156
v 0.33387613 0.09132004 -2.75366569
v 0.33387995 0.09132624 -3.50878954
v 0.33405924 -0.00867414 -3.50889945
v 0.33406305 -0.00867987 -2.75382233
v 0.60000086 0.09140539 -2.80364990
v 0.65000010 0.09132004 -2.75365067
v 0.59984446 -0.00859451 -2.80383682
v 0.38406229 -0.00859451 -2.80382156
v 0.38387537 0.09140539 -2.80366516
v 0.60000086 0.09140539 -2.80364990
v 0.64984369 -0.00867987 -2.75383735
v 0.59984446 -0.00859451 -2.80383682
v 0.65000010 0.09132004 -2.75365067
v 0.33387613 0.09132004 -2.75366569
v 0.33406305 -0.00867987 -2.75382233
v 0.64984369 -0.00867987 -2.75383735
v 0.60000086 0.09141111 -5.17966080
v 0.65000391 0.09131384 -5.12966156
v 0.59984064 -0.00858831 -5.17989349
v 0.59984446 -0.00859451 -2.80383682
v 0.60000086 0.09140539 -2.80364990
v 0.60000086 0.09141111 -5.17966080
v 0.64984369 -0.00868607 -5.12989473
v 0.59984064 -0.00858831 -5.17989349
v 0.65000391 0.09131384 -5.12966156
v 0.65000010 0.09132004 -2.75365067
v 0.64984369 -0.00867987 -2.75383735
v 0.64984369 -0.00868607 -5.12989473
v 1.78730631 0.09141779 -5.17964172
v 1.83730936 0.09130764 -5.12964249
v 1.78713846 -0.00858212 -5.17991257
v 0.59984064 -0.00858831 -5.17989349
v 0.60000086 0.09141111 -5.17966080
v 1.78730631 0.09141779 -5.17964172
v 1.83714151 -0.00869179 -5.12991333
v 1.78713846 -0.00858212 -5.17991257
v 1.83730936 0.09130764 -5.12964249
v 0.65000391 0.09131384 -5.12966156
v 0.64984369 -0.00868607 -5.12989473
v 1.83714151 -0.00869179 -5.12991333
v 1.78733301 0.09141779 -5.35609818
v 1.83733201 0.09130764 -5.35609818
v 1.78711557 -0.00858212 -5.35617447
v 1.78713846 -0.00858212 -5.17991257
v 1.78730631 0.09141779 -5.17964172
v 1.78733301 0.09141779 -5.35609818
v 1.83711481 -0.00869179 -5.35617447
v 1.78711557 -0.00858212 -5.35617447
v 1.83733201 0.09130764 -5.35609818
v 1.83730936 0.09130764 -5.12964249
v 1.83714151 -0.00869179 -5.12991333
v 1.83711481 -0.00869179 -5.35617447
v -6.75037479 -0.00863743 1.99811578
v -6.70037174 -0.00863743 1.99811578
v -6.70037174 0.09136248 1.99811578
v -6.75037479 0.09136248 1.99811578
v 1.78711557 -0.00858212 -5.35617447
v 1.78733301 0.09141779 -5.35609818
v 1.83733201 0.09130764 -5.35609818
v 1.83711481 -0.00869179 -5.35617447
v 6.75037241 0.09136248 1.19062781
v 6.75037241 0.09136248 1.15780616
v 6.70036936 0.09136248 1.15780616
v 6.70036936 0.09136248 1.19062781
v 6.75037241 -0.00863743 1.19062781
v 6.75037241 -0.00863743 1.15780616
v 6.75037241 0.09136248 1.15780616
v 6.75037241 0.09136248 1.19062781
v 6.70036936 -0.00863743 1.19062781
v 6.70036936 -0.00863743 1.15780616
v 6.75037241 -0.00863743 1.15780616
v 6.75037241 -0.00863743 1.19062781
v 6.70036936 0.09136248 1.19062781
v 6.70036936 0.09136248 1.15780616
v 6.70036936 -0.00863743 1.15780616
v 6.70036936 -0.00863743 1.19062781
v 6.75037241 0.09136248 3.01018500
v 6.70036936 0.09136248 3.01018500
v 6.75037241 -0.00863743 3.01018500
v 6.75037241 0.09136248 3.01018500
v 6.70036936 -0.00863743 3.01018500
v 6.75037241 -0.00863743 3.01018500
v 6.70036936 0.09136248 3.01018500
v 6.70036936 -0.00863743 3.01018500
v 6.75037241 0.09136248 3.07071280
v 6.70036936 0.09136248 3.07071280
v 6.75037241 -0.00863743 3.07071280
v 6.75037241 0.09136248 3.07071280
v 6.70036936 -0.00863743 3.07071280
v 6.75037241 -0.00863743 3.07071280
v 6.70036936 0.09136248 3.07071280
v 6.70036936 -0.00863743 3.07071280
v 6.75037241 -0.00863743 1.15780616
v 6.70036936 -0.00863743 1.15780616
v 6.70036936 0.09136248 1.15780616
v 6.75037241 0.09136248 1.15780616
v 6.75037241 -0.00863743 3.07071280
v 6.75037241 0.09136248 3.07071280
v 6.70036936 0.09136248 3.07071280
v 6.70036936 -0.00863743 3.07071280
v 0.33365107 0.09136248 3.33859277
v 0.33365870 0.09136248 3.86731696
v 0.38366175 0.09136248 3.86731696
v 0.38366938 0.09136248 3.38925147
v 0.33365107 -0.00863743 3.33859277
v 0.33365870 -0.00863743 3.86731696
v 0.33365870 0.09136248 3.86731696
v 0.33365107 0.09136248 3.33859277
v 0.38366938 -0.00863743 3.38925147
v 0.38366175 -0.00863743 3.86731696
v 0.33365870 -0.00863743 3.86731696
v 0.33365107 -0.00863743 3.33859277
v 0.38366938 0.09136248 3.38925147
v 0.38366175 0.09136248 3.86731696
v 0.38366175 -0.00863743 3.86731696
v 0.38366938 -0.00863743 3.38925147
v 0.64786768 0.09136248 3.34281135
v 0.59787989 0.09136248 3.39215827
v 0.64786768 -0.00863743 3.34281135
v 0.33365107 -0.00863743 3.33859277
v 0.33365107 0.09136248 3.33859277
v 0.64786768 0.09136248 3.34281135
v 0.59787989 -0.00863743 3.39215827
v 0.64786768 -0.00863743 3.34281135
v 0.59787989 0.09136248 3.39215827
v 0.38366938 0.09136248 3.38925147
v 0.38366938 -0.00863743 3.38925147
v 0.59787989 -0.00863743 3.39215827
v 0.64787531 0.09136248 5.15477753
v 0.59787226 0.09136248 5.15477753
v 0.64787531 -0.00863743 5.15477753
v 0.64786768 -0.00863743 3.34281135
v 0.64786768 0.09136248 3.34281135
v 0.64787531 0.09136248 5.15477753
v 0.59787226 -0.00863743 5.15477753
v 0.64787531 -0.00863743 5.15477753
v 0.59787226 0.09136248 5.15477753
v 0.59787989 0.09136248 3.39215827
v 0.59787989 -0.00863743 3.39215827
v 0.59787226 -0.00863743 5.15477753
v 0.33365870 -0.00863743 3.86731696
v 0.38366175 -0.00863743 3.86731696
v 0.38366175 0.09136248 3.86731696
v 0.33365870 0.09136248 3.86731696
v 0.64787531 -0.00863743 5.15477753
v 0.64787531 0.09136248 5.15477753
v 0.59787226 0.09136248 5.15477753
v 0.59787226 -0.00863743 5.15477753
vt -3.26988602 3.16864562
vt -3.02884674 3.16864562
vt -3.02884674 3.16864562
vt -3.31988907 3.16864562
vt -3.26988602 3.26864576
vt -3.02884674 3.26864576
vt -3.02884674 3.16864562
vt -3.26988602 3.16864562
vt -3.31988907 3.26864576
vt -3.02884674 3.26864576
vt -3.02884674 3.26864576
vt -3.26988602 3.26864576
vt -3.31988907 3.16864562
vt -3.02884674 3.16864562
vt -3.02884674 3.26864576
vt -3.31988907 3.26864576
vt -3.26988602 3.16864538
vt -3.31988907 3.16864538
vt -3.26988602 3.26864552
vt -3.26988602 3.26864576
vt -3.26988602 3.16864562
vt -3.26988602 3.16864538
vt -3.31988907 3.26864552
vt -3.26988602 3.26864552
vt -3.31988907 3.16864538
vt -3.31988907 3.16864562
vt -3.31988907 3.26864576
vt -3.31988907 3.26864552
vt -3.02884674 3.16864538
vt -3.02884674 3.16864538
vt -3.02884674 3.26864552
vt -3.26988602 3.26864552
vt -3.26988602 3.16864538
vt -3.02884674 3.16864538
vt -3.02884674 3.26864552
vt -3.02884674 3.26864552
vt -3.02884674 3.16864538
vt -3.31988907 3.16864538
vt -3.31988907 3.26864552
vt -3.02884674 3.26864552
vt -3.02884674 3.26864576
vt -3.02884674 3.26864576
vt -3.02884674 3.16864562
vt -3.02884674 3.16864562
vt -3.02884674 3.26864552
vt -3.02884674 3.16864538
vt -3.02884674 3.16864538
vt -3.02884674 3.26864552
vt -7.03150558 3.16864538
vt -9.55513763 3.16864538
vt -9.55513763 3.16864538
vt -7.08150864 3.16864538
vt -7.03150558 3.26864552
vt -9.55513763 3.26864552
vt -9.55513763 3.16864538
vt -7.03150558 3.16864538
vt -7.08150864 3.26864552
vt -9.55513763 3.26864552
vt -9.55513763 3.26864552
vt -7.03150558 3.26864552
vt -7.08150864 3.16864538
vt -9.55513763 3.16864538
vt -9.55513763 3.26864552
vt -7.08150864 3.26864552
vt -7.03150940 3.16864514
vt -7.08150482 3.16864514
vt -7.03150940 3.26864505
vt -7.03150558 3.26864552
vt -7.03150558 3.16864538
vt -7.03150940 3.16864514
vt -7.08150482 3.26864505
vt -7.03150940 3.26864505
vt -7.08150482 3.16864514
vt -7.08150864 3.16864538
vt -7.08150864 3.26864552
vt -7.08150482 3.26864505
vt -4.96669006 3.16864514
vt -4.96669769 3.16864514
vt -4.96669006 3.26864505
vt -7.03150940 3.26864505
vt -7.03150940 3.16864514
vt -4.96669006 3.16864514
vt -4.96669769 3.26864505
vt -4.96669006 3.26864505
vt -4.96669769 3.16864514
vt -7.08150482 3.16864514
vt -7.08150482 3.26864505
vt -4.96669769 3.26864505
vt -9.55513763 3.26864552
vt -9.55513763 3.26864552
vt -9.55513763 3.16864538
vt -9.55513763 3.16864538
vt -4.96669006 3.26864505
vt -4.96669006 3.16864514
vt -4.96669769 3.16864514
vt -4.96669769 3.26864505
vt 1.98935699 3.16864657
vt 1.98935699 3.16864657
vt 1.93935394 3.16864657
vt 1.93935394 3.16864657
vt 1.98935699 3.26864648
vt 1.98935699 3.26864648
vt 1.98935699 3.16864657
vt 1.98935699 3.16864657
vt 1.93935394 3.26864648
vt 1.93935394 3.26864648
vt 1.98935699 3.26864648
vt 1.98935699 3.26864648
vt 1.93935394 3.16864657
vt 1.93935394 3.16864657
vt 1.93935394 3.26864648
vt 1.93935394 3.26864648
vt 3.09682083 3.16864038
vt 3.04681778 3.16865253
vt 3.09682846 3.26864052
vt 1.98935699 3.26864648
vt 1.98935699 3.16864657
vt 3.09682083 3.16864038
vt 3.04682541 3.26865268
vt 3.09682846 3.26864052
vt 3.04681778 3.16865253
vt 1.93935394 3.16864657
vt 1.93935394 3.26864648
vt 3.04682541 3.26865268
vt 3.09680939 3.16863990
vt 3.04681015 3.16865230
vt 3.09683609 3.26864004
vt 3.09682846 3.26864052
vt 3.09682083 3.16864038
vt 3.09680939 3.16863990
vt 3.04683685 3.26865220
vt 3.09683609 3.26864004
vt 3.04681015 3.16865230
vt 3.04681778 3.16865253
vt 3.04682541 3.26865268
vt 3.04683685 3.26865220
vt 3.09680939 3.16863966
vt 3.04681015 3.16865182
vt 3.09683609 3.26863956
vt 3.09680939 3.16863966
vt 3.04683685 3.26865196
vt 3.09683609 3.26863956
vt 3.04681015 3.16865182
vt 3.04683685 3.26865196
vt 1.98935699 3.26864648
vt 1.93935394 3.26864648
vt 1.93935394 3.16864657
vt 1.98935699 3.16864657
vt 3.09683609 3.26863956
vt 3.09680939 3.16863966
vt 3.04681015 3.16865182
vt 3.04683685 3.26865196
vt -10.40391922 3.16864562
vt -10.40392303 3.16864538
vt -10.35391998 3.16864538
vt -10.35392380 3.16864562
vt -10.40391922 3.26864552
vt -10.40392303 3.26864529
vt -10.40392303 3.16864538
vt -10.40391922 3.16864562
vt -10.35392380 3.26864552
vt -10.35391998 3.26864529
vt -10.40392303 3.26864529
vt -10.40391922 3.26864552
vt -10.35392380 3.16864562
vt -10.35391998 3.16864538
vt -10.35391998 3.26864529
vt -10.35392380 3.26864552
vt -7.35850143 3.16864562
vt -7.35578537 3.16864562
vt -7.35850143 3.26864552
vt -10.40391922 3.26864552
vt -10.40391922 3.16864562
vt -7.35850143 3.16864562
vt -7.35578537 3.26864552
vt -7.35850143 3.26864552
vt -7.35578537 3.16864562
vt -10.35392380 3.16864562
vt -10.35392380 3.26864552
vt -7.35578537 3.26864552
vt -7.29019928 3.16864562
vt -7.27871704 3.16864562
vt -7.29019928 3.26864552
vt -7.29019928 3.16864562
vt -7.27871704 3.26864552
vt -7.29019928 3.26864552
vt -7.27871704 3.16864562
vt -7.27871704 3.26864552
vt -7.22879410 3.16864562
vt -7.20663071 3.16864562
vt -7.22879410 3.26864552
vt -7.22879410 3.16864562
vt -7.20663071 3.26864552
vt -7.22879410 3.26864552
vt -7.20663071 3.16864562
vt -7.20663071 3.26864552
vt -7.17454910 3.16864562
vt -7.14307785 3.16864562
vt -7.17454910 3.26864552
vt -7.17454910 3.16864562
vt -7.14307785 3.26864552
vt -7.17454910 3.26864552
vt -7.14307785 3.16864562
vt -7.14307785 3.26864552
vt -7.12929535 3.16864562
vt -7.09005737 3.16864562
vt -7.12929535 3.26864552
vt -7.12929535 3.16864562
vt -7.09005737 3.26864552
vt -7.12929535 3.26864552
vt -7.09005737 3.16864562
vt -7.09005737 3.26864552
vt -7.09479523 3.16864562
vt -7.04962921 3.16864562
vt -7.09479523 3.26864552
vt -7.09479523 3.16864562
vt -7.04962921 3.26864552
vt -7.09479523 3.26864552
vt -7.04962921 3.16864562
vt -7.04962921 3.26864552
vt -7.07282257 3.16864562
vt -7.02381897 3.16864562
vt -7.07282257 3.26864552
vt -7.07282257 3.16864562
vt -7.02381897 3.26864552
vt -7.07282257 3.26864552
vt -7.02381897 3.16864562
vt -7.02381897 3.26864552
vt -7.06494522 3.16864562
vt -7.01492691 3.16864562
vt -7.06494522 3.26864552
vt -7.06494522 3.16864562
vt -7.01492691 3.26864552
vt -7.06494522 3.26864552
vt -7.01492691 3.16864562
vt -7.01492691 3.26864552
vt -7.08150482 3.16864586
vt -7.03150940 3.16864586
vt -7.08150482 3.26864600
vt -7.08150482 3.16864586
vt -7.03150940 3.26864600
vt -7.08150482 3.26864600
vt -7.03150940 3.16864586
vt -7.03150940 3.26864600
vt -7.08530807 3.16864586
vt -7.03548813 3.16864586
vt -7.08530807 3.26864600
vt -7.08530807 3.16864586
vt -7.03548813 3.26864600
vt -7.08530807 3.26864600
vt -7.03548813 3.16864586
vt -7.03548813 3.26864600
vt -7.09669113 3.16864610
vt -7.04780197 3.16864610
vt -7.09669113 3.26864600
vt -7.09669113 3.16864610
vt -7.04780197 3.26864600
vt -7.09669113 3.26864600
vt -7.04780197 3.16864610
vt -7.04780197 3.26864600
vt -7.11549377 3.16864610
vt -7.06859589 3.16864610
vt -7.11549377 3.26864600
vt -7.11549377 3.16864610
vt -7.06859589 3.26864600
vt -7.11549377 3.26864600
vt -7.06859589 3.16864610
vt -7.06859589 3.26864600
vt -7.14153290 3.16864610
vt -7.09806061 3.16864610
vt -7.14153290 3.26864600
vt -7.14153290 3.16864610
vt -7.09806061 3.26864600
vt -7.14153290 3.26864600
vt -7.09806061 3.16864610
vt -7.09806061 3.26864600
vt -7.17475510 3.16864610
vt -7.13625717 3.16864610
vt -7.17475510 3.26864600
vt -7.17475510 3.16864610
vt -7.13625717 3.26864600
vt -7.17475510 3.26864600
vt -7.13625717 3.16864610
vt -7.13625717 3.26864600
vt -7.21473312 3.16864610
vt -7.18359756 3.16864610
vt -7.21473312 3.26864600
vt -7.21473312 3.16864610
vt -7.18359756 3.26864600
vt -7.21473312 3.26864600
vt -7.18359756 3.16864610
vt -7.18359756 3.26864600
vt -7.29190445 3.16864610
vt -7.26922226 3.16864610
vt -7.29190445 3.26864600
vt -7.29190445 3.16864610
vt -7.26922226 3.26864600
vt -7.29190445 3.26864600
vt -7.26922226 3.16864610
vt -7.26922226 3.26864600
vt -7.32186127 3.16864610
vt -7.30402374 3.16864610
vt -7.32186127 3.26864600
vt -7.32186127 3.16864610
vt -7.30402374 3.26864600
vt -7.32186127 3.26864600
vt -7.30402374 3.16864610
vt -7.30402374 3.26864600
vt -7.35414124 3.16864610
vt -7.33926392 3.16864610
vt -7.35414124 3.26864600
vt -7.35414124 3.16864610
vt -7.33926392 3.26864600
vt -7.35414124 3.26864600
vt -7.33926392 3.16864610
vt -7.33926392 3.26864600
vt -7.38770676 3.16864610
vt -7.37604141 3.16864610
vt -7.38770676 3.26864600
vt -7.38770676 3.16864610
vt -7.37604141 3.26864600
vt -7.38770676 3.26864600
vt -7.37604141 3.16864610
vt -7.37604141 3.26864600
vt -7.42261505 3.16864610
vt -7.41428375 3.16864610
vt -7.42261505 3.26864600
vt -7.42261505 3.16864610
vt -7.41428375 3.26864600
vt -7.42261505 3.26864600
vt -7.41428375 3.16864610
vt -7.41428375 3.26864600
vt -7.45891190 3.16864610
vt -7.45399094 3.16864610
vt -7.45891190 3.26864600
vt -7.45891190 3.16864610
vt -7.45399094 3.26864600
vt -7.45891190 3.26864600
vt -7.45399094 3.16864610
vt -7.45399094 3.26864600
vt -7.49673080 3.16864610
vt -7.49503708 3.16864610
vt -7.49673080 3.26864600
vt -7.49673080 3.16864610
vt -7.49503708 3.26864600
vt -7.49673080 3.26864600
vt -7.49503708 3.16864610
vt -7.49503708 3.26864600
vt -7.53677750 3.16864610
vt -7.53677750 3.16864610
vt -7.53677750 3.26864600
vt -7.53677750 3.16864610
vt -7.53677750 3.26864600
vt -7.53677750 3.26864600
vt -7.53677750 3.16864610
vt -7.53677750 3.26864600
vt -10.10188293 3.16864610
vt -10.05187988 3.16864610
vt -10.10188293 3.26864600
vt -10.10188293 3.16864610
vt -10.05187988 3.26864600
vt -10.10188293 3.26864600
vt -10.05187988 3.16864610
vt -10.05187988 3.26864600
vt -10.10188293 3.16864634
vt -10.05187988 3.16864634
vt -10.10188293 3.26864624
vt -10.10188293 3.26864600
vt -10.10188293 3.16864610
vt -10.10188293 3.16864634
vt -10.05187988 3.26864624
vt -10.10188293 3.26864624
vt -10.05187988 3.16864634
vt -10.05187988 3.16864610
vt -10.05187988 3.26864600
vt -10.05187988 3.26864624
vt -9.51793671 3.16864014
vt -9.46793365 3.16865230
vt -9.51794434 3.26864004
vt -10.10188293 3.26864624
vt -10.10188293 3.16864634
vt -9.51793671 3.16864014
vt -9.46794128 3.26865244
vt -9.51794434 3.26864004
vt -9.46793365 3.16865230
vt -10.05187988 3.16864634
vt -10.05187988 3.26864624
vt -9.46794128 3.26865244
vt -9.51793289 3.16863418
vt -9.46793365 3.16865849
vt -9.51794434 3.26863408
vt -9.51794434 3.26864004
vt -9.51793671 3.16864014
vt -9.51793289 3.16863418
vt -9.46794510 3.26865840
vt -9.51794434 3.26863408
vt -9.46793365 3.16865849
vt -9.46793365 3.16865230
vt -9.46794128 3.26865244
vt -9.46794510 3.26865840
vt -7.95779037 3.16863418
vt -8.00779343 3.16865849
vt -7.95770645 3.26863408
vt -9.51794434 3.26863408
vt -9.51793289 3.16863418
vt -7.95779037 3.16863418
vt -8.00770950 3.26865840
vt -7.95770645 3.26863408
vt -8.00779343 3.16865849
vt -9.46793365 3.16865849
vt -9.46794510 3.26865840
vt -8.00770950 3.26865840
vt -7.95779419 3.16862798
vt -8.00779343 3.16866446
vt -7.95770645 3.26862788
vt -7.95770645 3.26863408
vt -7.95779037 3.16863418
vt -7.95779419 3.16862798
vt -8.00770569 3.26866460
vt -7.95770645 3.26862788
vt -8.00779343 3.16866446
vt -8.00779343 3.16865849
vt -8.00770950 3.26865840
vt -8.00770569 3.26866460
vt -7.35331345 3.16862798
vt -7.30331421 3.16866446
vt -7.35337067 3.26862788
vt -7.95770645 3.26862788
vt -7.95779419 3.16862798
vt -7.35331345 3.16862798
vt -7.30337143 3.26866460
vt -7.35337067 3.26862788
vt -7.30331421 3.16866446
vt -8.00779343 3.16866446
vt -8.00770569 3.26866460
vt -7.30337143 3.26866460
vt -7.35330963 3.16862202
vt -7.30331039 3.16867065
vt -7.35337448 3.26862192
vt -7.35337067 3.26862788
vt -7.35331345 3.16862798
vt -7.35330963 3.16862202
vt -7.30337524 3.26867056
vt -7.35337448 3.26862192
vt -7.30331039 3.16867065
vt -7.30331421 3.16866446
vt -7.30337143 3.26866460
vt -7.30337524 3.26867056
vt -5.54152298 3.16862202
vt -5.59152222 3.16867065
vt -5.54138947 3.26862192
vt -7.35337448 3.26862192
vt -7.35330963 3.16862202
vt -5.54152298 3.16862202
vt -5.59138870 3.26867056
vt -5.54138947 3.26862192
vt -5.59152222 3.16867065
vt -7.30331039 3.16867065
vt -7.30337524 3.26867056
vt -5.59138870 3.26867056
vt -5.54152679 3.16861582
vt -5.59152603 3.16867685
vt -5.54138565 3.26861572
vt -5.54138947 3.26862192
vt -5.54152298 3.16862202
vt -5.54152679 3.16861582
vt -5.59138489 3.26867676
vt -5.54138565 3.26861572
vt -5.59152603 3.16867685
vt -5.59152222 3.16867065
vt -5.59138870 3.26867056
vt -5.59138489 3.26867676
vt -5.33970261 3.16861582
vt -5.28970337 3.16867685
vt -5.33980560 3.26861572
vt -5.54138565 3.26861572
vt -5.54152679 3.16861582
vt -5.33970261 3.16861582
vt -5.28980637 3.26867676
vt -5.33980560 3.26861572
vt -5.28970337 3.16867685
vt -5.59152603 3.16867685
vt -5.59138489 3.26867676
vt -5.28980637 3.26867676
vt -5.33969879 3.16860962
vt -5.28969955 3.16868305
vt -5.33980942 3.26860952
vt -5.33980560 3.26861572
vt -5.33970261 3.16861582
vt -5.33969879 3.16860962
vt -5.28981018 3.26868296
vt -5.33980942 3.26860952
vt -5.28969955 3.16868305
vt -5.28970337 3.16867685
vt -5.28980637 3.26867676
vt -5.28981018 3.26868296
vt -3.26966858 3.16860962
vt -3.31966782 3.16868305
vt -3.26948929 3.26860952
vt -5.33980942 3.26860952
vt -5.33969879 3.16860962
vt -3.26966858 3.16860962
vt -3.31948853 3.26868296
vt -3.26948929 3.26860952
vt -3.31966782 3.16868305
vt -5.28969955 3.16868305
vt -5.28981018 3.26868296
vt -3.31948853 3.26868296
vt -3.26967239 3.16860342
vt -3.31967163 3.16868901
vt -3.26948547 3.26860332
vt -3.26948929 3.26860952
vt -3.26966858 3.16860962
vt -3.26967239 3.16860342
vt -3.31948471 3.26868892
vt -3.26948547 3.26860332
vt -3.31967163 3.16868901
vt -3.31966782 3.16868305
vt -3.31948853 3.26868296
vt -3.31948471 3.26868892
vt -3.05354691 3.16860342
vt -3.00354767 3.16868901
vt -3.05370331 3.26860332
vt -3.26948547 3.26860332
vt -3.26967239 3.16860342
vt -3.05354691 3.16860342
vt -3.00370407 3.26868892
vt -3.05370331 3.26860332
vt -3.00354767 3.16868901
vt -3.31967163 3.16868901
vt -3.31948471 3.26868892
vt -3.00370407 3.26868892
vt -3.05354691 3.16859794
vt -3.00354385 3.16869545
vt -3.05370712 3.26859760
vt -3.05370331 3.26860332
vt -3.05354691 3.16860342
vt -3.05354691 3.16859794
vt -3.00370407 3.26869535
vt -3.05370712 3.26859760
vt -3.00354385 3.16869545
vt -3.00354767 3.16868901
vt -3.00370407 3.26868892
vt -3.00370407 3.26869535
vt -1.86624146 3.16859174
vt -1.81623840 3.16870165
vt -1.86640930 3.26859140
vt -3.05370712 3.26859760
vt -3.05354691 3.16859794
vt -1.86624146 3.16859174
vt -1.81640625 3.26870131
vt -1.86640930 3.26859140
vt -1.81623840 3.16870165
vt -3.00354385 3.16869545
vt -3.00370407 3.26869535
vt -1.81640625 3.26870131
vt -1.86621475 3.16859174
vt -1.81621552 3.16870165
vt -1.86643219 3.26859140
vt -1.86640930 3.26859140
vt -1.86624146 3.16859174
vt -1.86621475 3.16859174
vt -1.81643295 3.26870131
vt -1.86643219 3.26859140
vt -1.81621552 3.16870165
vt -1.81623840 3.16870165
vt -1.81640625 3.26870131
vt -1.81643295 3.26870131
vt -10.40392303 3.26864529
vt -10.35391998 3.26864529
vt -10.35391998 3.16864538
vt -10.40392303 3.16864538
vt -1.86643219 3.26859140
vt -1.86621475 3.16859174
vt -1.81621552 3.16870165
vt -1.81643295 3.26870131
vt 3.09682465 3.16864562
vt 3.09682465 3.16864562
vt 3.04682159 3.16864562
vt 3.04682159 3.16864562
vt 3.09682465 3.26864552
vt 3.09682465 3.26864552
vt 3.09682465 3.16864562
vt 3.09682465 3.16864562
vt 3.04682159 3.26864552
vt 3.04682159 3.26864552
vt 3.09682465 3.26864552
vt 3.09682465 3.26864552
vt 3.04682159 3.16864562
vt 3.04682159 3.16864562
vt 3.04682159 3.26864552
vt 3.04682159 3.26864552
vt 3.09682465 3.16864514
vt 3.04682159 3.16864514
vt 3.09682465 3.26864529
vt 3.09682465 3.16864514
vt 3.04682159 3.26864529
vt 3.09682465 3.26864529
vt 3.04682159 3.16864514
vt 3.04682159 3.26864529
vt 3.09682465 3.16864514
vt 3.04682159 3.16864514
vt 3.09682465 3.26864529
vt 3.09682465 3.16864514
vt 3.04682159 3.26864529
vt 3.09682465 3.26864529
vt 3.04682159 3.16864514
vt 3.04682159 3.26864529
vt 3.09682465 3.26864552
vt 3.04682159 3.26864552
vt 3.04682159 3.16864562
vt 3.09682465 3.16864562
vt 3.09682465 3.26864529
vt 3.09682465 3.16864514
vt 3.04682159 3.16864514
vt 3.04682159 3.26864529
vt -3.31989670 3.16864514
vt -3.31988907 3.16864514
vt -3.26988602 3.16864514
vt -3.26987839 3.16864514
vt -3.31989670 3.26864505
vt -3.31988907 3.26864505
vt -3.31988907 3.16864514
vt -3.31989670 3.16864514
vt -3.26987839 3.26864505
vt -3.26988602 3.26864505
vt -3.31988907 3.26864505
vt -3.31989670 3.26864505
vt -3.26987839 3.16864514
vt -3.26988602 3.16864514
vt -3.26988602 3.26864505
vt -3.26987839 3.26864505
vt -3.00568008 3.16864514
vt -3.05566788 3.16864514
vt -3.00568008 3.26864505
vt -3.31989670 3.26864505
vt -3.31989670 3.16864514
vt -3.00568008 3.16864514
vt -3.05566788 3.26864505
vt -3.00568008 3.26864505
vt -3.05566788 3.16864514
vt -3.26987839 3.16864514
vt -3.26987839 3.26864505
vt -3.05566788 3.26864505
vt -3.00567245 3.16864491
vt -3.05567551 3.16864491
vt -3.00567245 3.26864481
vt -3.00568008 3.26864505
vt -3.00568008 3.16864514
vt -3.00567245 3.16864491
vt -3.05567551 3.26864481
vt -3.00567245 3.26864481
vt -3.05567551 3.16864491
vt -3.05566788 3.16864514
vt -3.05566788 3.26864505
vt -3.05567551 3.26864481
vt -3.31988907 3.26864505
vt -3.26988602 3.26864505
vt -3.26988602 3.16864514
vt -3.31988907 3.16864514
vt -3.00567245 3.26864481
vt -3.00567245 3.16864491
vt -3.05567551 3.16864491
vt -3.05567551 3.26864481
f 1/1 2/2 3/3
f 3/3 4/4 1/1
f 5/5 6/6 7/7
f 7/7 8/8 5/5
f 9/9 10/10 11/11
f 11/11 12/12 9/9
f 13/13 14/14 15/15
f 15/15 16/16 13/13
f 17/17 1/1 4/4
f 4/4 18/18 17/17
f 19/19 20/20 21/21
f 21/21 22/22 19/19
f 23/23 9/9 12/12
f 12/12 24/24 23/23
f 25/25 26/26 27/27
f 27/27 28/28 25/25
f 29/29 17/17 18/18
f 18/18 30/30 29/29
f 31/31 32/32 33/33
f 33/33 34/34 31/31
f 35/35 23/23 24/24
f 24/24 36/36 35/35
f 37/37 38/38 39/39
f 39/39 40/40 37/37
f 41/41 42/42 43/43
f 43/43 44/44 41/41
f 45/45 46/46 47/47
f 48/48 45/45 47/47
f 49/49 50/50 51/51
f 51/51 52/52 49/49
f 53/53 54/54 55/55
f 55/55 56/56 53/53
f 57/57 58/58 59/59
f 59/59 60/60 57/57
f 61/61 62/62 63/63
f 63/63 64/64 61/61
f 65/65 49/49 52/52
f 52/52 66/66 65/65
f 67/67 68/68 69/69
f 69/69 70/70 67/67
f 71/71 57/57 60/60
f 60/60 72/72 71/71
f 73/73 74/74 75/75
f 75/75 76/76 73/73
f 77/77 65/65 66/66
f 66/66 78/78 77/77
f 79/79 80/80 81/81
f 81/81 82/82 79/79
f 83/83 71/71 72/72
f 72/72 84/84 83/83
f 85/85 86/86 87/87
f 87/87 88/88 85/85
f 89/89 90/90 91/91
f 91/91 92/92 89/89
f 93/93 94/94 95/95
f 96/96 93/93 95/95
f 97/97 98/98 99/99
f 99/99 100/100 97/97
f 101/101 102/102 103/103
f 103/103 104/104 101/101
f 105/105 106/106 107/107
f 107/107 108/108 105/105
f 109/109 110/110 111/111
f 111/111 112/112 109/109
f 113/113 97/97 100/100
f 100/100 114/114 113/113
f 115/115 116/116 117/117
f 117/117 118/118 115/115
f 119/119 105/105 108/108
f 108/108 120/120 119/119
f 121/121 122/122 123/123
f 123/123 124/124 121/121
f 125/125 113/113 114/114
f 114/114 126/126 125/125
f 127/127 128/128 129/129
f 129/129 130/130 127/127
f 131/131 119/119 120/120
f 120/120 132/132 131/131
f 133/133 134/134 135/135
f 135/135 136/136 133/133
f 137/137 125/125 126/126
f 126/126 138/138 137/137
f 139/139 127/127 130/130
f 130/130 140/140 139/139
f 141/141 131/131 132/132
f 132/132 142/142 141/141
f 143/143 133/133 136/136
f 136/136 144/144 143/143
f 145/145 146/146 147/147
f 147/147 148/148 145/145
f 149/149 150/150 151/151
f 152/152 149/149 151/151
f 153/153 154/154 155/155
f 155/155 156/156 153/153
f 157/157 158/158 159/159
f 159/159 160/160 157/157
f 161/161 162/162 163/163
f 163/163 164/164 161/161
f 165/165 166/166 167/167
f 167/167 168/168 165/165
f 169/169 153/153 156/156
f 156/156 170/170 169/169
f 171/171 172/172 173/173
f 173/173 174/174 171/171
f 175/175 161/161 164/164
f 164/164 176/176 175/175
f 177/177 178/178 179/179
f 179/179 180/180 177/177
f 181/181 169/169 170/170
f 170/170 182/182 181/181
f 183/183 171/171 174/174
f 174/174 184/184 183/183
f 185/185 175/175 176/176
f 176/176 186/186 185/185
f 187/187 177/177 180/180
f 180/180 188/188 187/187
f 189/189 181/181 182/182
f 182/182 190/190 189/189
f 191/191 183/183 184/184
f 184/184 192/192 191/191
f 193/193 185/185 186/186
f 186/186 194/194 193/193
f 195/195 187/187 188/188
f 188/188 196/196 195/195
f 197/197 189/189 190/190
f 190/190 198/198 197/197
f 199/199 191/191 192/192
f 192/192 200/200 199/199
f 201/201 193/193 194/194
f 194/194 202/202 201/201
f 203/203 195/195 196/196
f 196/196 204/204 203/203
f 205/205 197/197 198/198
f 198/198 206/206 205/205
f 207/207 199/199 200/200
f 200/200 208/208 207/207
f 209/209 201/201 202/202
f 202/202 210/210 209/209
f 211/211 203/203 204/204
f 204/204 212/212 211/211
f 213/213 205/205 206/206
f 206/206 214/214 213/213
f 215/215 207/207 208/208
f 208/208 216/216 215/215
f 217/217 209/209 210/210
f 210/210 218/218 217/217
f 219/219 211/211 212/212
f 212/212 220/220 219/219
f 221/221 213/213 214/214
f 214/214 222/222 221/221
f 223/223 215/215 216/216
f 216/216 224/224 223/223
f 225/225 217/217 218/218
f 218/218 226/226 225/225
f 227/227 219/219 220/220
f 220/220 228/228 227/227
f 229/229 221/221 222/222
f 222/222 230/230 229/229
f 231/231 223/223 224/224
f 224/224 232/232 231/231
f 233/233 225/225 226/226
f 226/226 234/234 233/233
f 235/235 227/227 228/228
f 228/228 236/236 235/235
f 237/237 229/229 230/230
f 230/230 238/238 237/237
f 239/239 231/231 232/232
f 232/232 240/240 239/239
f 241/241 233/233 234/234
f 234/234 242/242 241/241
f 243/243 235/235 236/236
f 236/236 244/244 243/243
f 245/245 237/237 238/238
f 238/238 246/246 245/245
f 247/247 239/239 240/240
f 240/240 248/248 247/247
f 249/249 241/241 242/242
f 242/242 250/250 249/249
f 251/251 243/243 244/244
f 244/244 252/252 251/251
f 253/253 245/245 246/246
f 246/246 254/254 253/253
f 255/255 247/247 248/248
f 248/248 256/256 255/255
f 257/257 249/249 250/250
f 250/250 258/258 257/257
f 259/259 251/251 252/252
f 252/252 260/260 259/259
f 261/261 253/253 254/254
f 254/254 262/262 261/261
f 263/263 255/255 256/256
f 256/256 264/264 263/263
f 265/265 257/257 258/258
f 258/258 266/266 265/265
f 267/267 259/259 260/260
f 260/260 268/268 267/267
f 269/269 261/261 262/262
f 262/262 270/270 269/269
f 271/271 263/263 264/264
f 264/264 272/272 271/271
f 273/273 265/265 266/266
f 266/266 274/274 273/273
f 275/275 267/267 268/268
f 268/268 276/276 275/275
f 277/277 269/269 270/270
f 270/270 278/278 277/277
f 279/279 271/271 272/272
f 272/272 280/280 279/279
f 281/281 273/273 274/274
f 274/274 282/282 281/281
f 283/283 275/275 276/276
f 276/276 284/284 283/283
f 285/285 277/277 278/278
f 278/278 286/286 285/285
f 287/287 279/279 280/280
f 280/280 288/288 287/287
f 289/289 281/281 282/282
f 282/282 290/290 289/289
f 291/291 283/283 284/284
f 284/284 292/292 291/291
f 293/293 285/285 286/286
f 286/286 294/294 293/293
f 295/295 287/287 288/288
f 288/288 296/296 295/295
f 297/297 289/289 290/290
f 290/290 298/298 297/297
f 299/299 291/291 292/292
f 292/292 300/300 299/299
f 301/301 293/293 294/294
f 294/294 302/302 301/301
f 303/303 295/295 296/296
f 296/296 304/304 303/303
f 305/305 297/297 298/298
f 298/298 306/306 305/305
f 307/307 299/299 300/300
f 300/300 308/308 307/307
f 309/309 301/301 302/302
f 302/302 310/310 309/309
f 311/311 303/303 304/304
f 304/304 312/312 311/311
f 313/313 305/305 306/306
f 306/306 314/314 313/313
f 315/315 307/307 308/308
f 308/308 316/316 315/315
f 317/317 309/309 310/310
f 310/310 318/318 317/317
f 319/319 311/311 312/312
f 312/312 320/320 319/319
f 321/321 313/313 314/314
f 314/314 322/322 321/321
f 323/323 315/315 316/316
f 316/316 324/324 323/323
f 325/325 317/317 318/318
f 318/318 326/326 325/325
f 327/327 319/319 320/320
f 320/320 328/328 327/327
f 329/329 321/321 322/322
f 322/322 330/330 329/329
f 331/331 323/323 324/324
f 324/324 332/332 331/331
f 333/333 325/325 326/326
f 326/326 334/334 333/333
f 335/335 327/327 328/328
f 328/328 336/336 335/335
f 337/337 329/329 330/330
f 330/330 338/338 337/337
f 339/339 331/331 332/332
f 332/332 340/340 339/339
f 341/341 333/333 334/334
f 334/334 342/342 341/341
f 343/343 335/335 336/336
f 336/336 344/344 343/343
f 345/345 337/337 338/338
f 338/338 346/346 345/345
f 347/347 339/339 340/340
f 340/340 348/348 347/347
f 349/349 341/341 342/342
f 342/342 350/350 349/349
f 351/351 343/343 344/344
f 344/344 352/352 351/351
f 353/353 345/345 346/346
f 346/346 354/354 353/353
f 355/355 347/347 348/348
f 348/348 356/356 355/355
f 357/357 349/349 350/350
f 350/350 358/358 357/357
f 359/359 351/351 352/352
f 352/352 360/360 359/359
f 361/361 353/353 354/354
f 354/354 362/362 361/361
f 363/363 355/355 356/356
f 356/356 364/364 363/363
f 365/365 357/357 358/358
f 358/358 366/366 365/365
f 367/367 368/368 369/369
f 369/369 370/370 367/367
f 371/371 361/361 362/362
f 362/362 372/372 371/371
f 373/373 374/374 375/375
f 375/375 376/376 373/373
f 377/377 365/365 366/366
f 366/366 378/378 377/377
f 379/379 380/380 381/381
f 381/381 382/382 379/379
f 383/383 371/371 372/372
f 372/372 384/384 383/383
f 385/385 386/386 387/387
f 387/387 388/388 385/385
f 389/389 377/377 378/378
f 378/378 390/390 389/389
f 391/391 392/392 393/393
f 393/393 394/394 391/391
f 395/395 383/383 384/384
f 384/384 396/396 395/395
f 397/397 398/398 399/399
f 399/399 400/400 397/397
f 401/401 389/389 390/390
f 390/390 402/402 401/401
f 403/403 404/404 405/405
f 405/405 406/406 403/403
f 407/407 395/395 396/396
f 396/396 408/408 407/407
f 409/409 410/410 411/411
f 411/411 412/412 409/409
f 413/413 401/401 402/402
f 402/402 414/414 413/413
f 415/415 416/416 417/417
f 417/417 418/418 415/415
f 419/419 407/407 408/408
f 408/408 420/420 419/419
f 421/421 422/422 423/423
f 423/423 424/424 421/421
f 425/425 413/413 414/414
f 414/414 426/426 425/425
f 427/427 428/428 429/429
f 429/429 430/430 427/427
f 431/431 419/419 420/420
f 420/420 432/432 431/431
f 433/433 434/434 435/435
f 435/435 436/436 433/433
f 437/437 425/425 426/426
f 426/426 438/438 437/437
f 439/439 440/440 441/441
f 441/441 442/442 439/439
f 443/443 431/431 432/432
f 432/432 444/444 443/443
f 445/445 446/446 447/447
f 447/447 448/448 445/445
f 449/449 437/437 438/438
f 438/438 450/450 449/449
f 451/451 452/452 453/453
f 453/453 454/454 451/451
f 455/455 443/443 444/444
f 444/444 456/456 455/455
f 457/457 458/458 459/459
f 459/459 460/460 457/457
f 461/461 449/449 450/450
f 450/450 462/462 461/461
f 463/463 464/464 465/465
f 465/465 466/466 463/463
f 467/467 455/455 456/456
f 456/456 468/468 467/467
f 469/469 470/470 471/471
f 471/471 472/472 469/469
f 473/473 461/461 462/462
f 462/462 474/474 473/473
f 475/475 476/476 477/477
f 477/477 478/478 475/475
f 479/479 467/467 468/468
f 468/468 480/480 479/479
f 481/481 482/482 483/483
f 483/483 484/484 481/481
f 485/485 473/473 474/474
f 474/474 486/486 485/485
f 487/487 488/488 489/489
f 489/489 490/490 487/487
f 491/491 479/479 480/480
f 480/480 492/492 491/491
f 493/493 494/494 495/495
f 495/495 496/496 493/493
f 497/497 485/485 486/486
f 486/486 498/498 497/497
f 499/499 500/500 501/501
f 501/501 502/502 499/499
f 503/503 491/491 492/492
f 492/492 504/504 503/503
f 505/505 506/506 507/507
f 507/507 508/508 505/505
f 509/509 497/497 498/498
f 498/498 510/510 509/509
f 511/511 512/512 513/513
f 513/513 514/514 511/511
f 515/515 503/503 504/504
f 504/504 516/516 515/515
f 517/517 518/518 519/519
f 519/519 520/520 517/517
f 521/521 509/509 510/510
f 510/510 522/522 521/521
f 523/523 524/524 525/525
f 525/525 526/526 523/523
f 527/527 515/515 516/516
f 516/516 528/528 527/527
f 529/529 530/530 531/531
f 531/531 532/532 529/529
f 533/533 521/521 522/522
f 522/522 534/534 533/533
f 535/535 536/536 537/537
f 537/537 538/538 535/535
f 539/539 527/527 528/528
f 528/528 540/540 539/539
f 541/541 542/542 543/543
f 543/543 544/544 541/541
f 545/545 533/533 534/534
f 534/534 546/546 545/545
f 547/547 548/548 549/549
f 549/549 550/550 547/547
f 551/551 539/539 540/540
f 540/540 552/552 551/551
f 553/553 554/554 555/555
f 555/555 556/556 553/553
f 557/557 545/545 546/546
f 546/546 558/558 557/557
f 559/559 560/560 561/561
f 561/561 562/562 559/559
f 563/563 551/551 552/552
f 552/552 564/564 563/563
f 565/565 566/566 567/567
f 567/567 568/568 565/565
f 569/569 570/570 571/571
f 571/571 572/572 569/569
f 573/573 574/574 575/575
f 576/576 573/573 575/575
f 577/577 578/578 579/579
f 579/579 580/580 577/577
f 581/581 582/582 583/583
f 583/583 584/584 581/581
f 585/585 586/586 587/587
f 587/587 588/588 585/585
f 589/589 590/590 591/591
f 591/591 592/592 589/589
f 593/593 577/577 580/580
f 580/580 594/594 593/593
f 595/595 581/581 584/584
f 584/584 596/596 595/595
f 597/597 585/585 588/588
f 588/588 598/598 597/597
f 599/599 589/589 592/592
f 592/592 600/600 599/599
f 601/601 593/593 594/594
f 594/594 602/602 601/601
f 603/603 595/595 596/596
f 596/596 604/604 603/603
f 605/605 597/597 598/598
f 598/598 606/606 605/605
f 607/607 599/599 600/600
f 600/600 608/608 607/607
f 609/609 610/610 611/611
f 611/611 612/612 609/609
f 613/613 614/614 615/615
f 616/616 613/613 615/615
f 617/617 618/618 619/619
f 619/619 620/620 617/617
f 621/621 622/622 623/623
f 623/623 624/624 621/621
f 625/625 626/626 627/627
f 627/627 628/628 625/625
f 629/629 630/630 631/631
f 631/631 632/632 629/629
f 633/633 617/617 620/620
f 620/620 634/634 633/633
f 635/635 636/636 637/637
f 637/637 638/638 635/635
f 639/639 625/625 628/628
f 628/628 640/640 639/639
f 641/641 642/642 643/643
f 643/643 644/644 641/641
f 645/645 633/633 634/634
f 634/634 646/646 645/645
f 647/647 648/648 649/649
f 649/649 650/650 647/647
f 651/651 639/639 640/640
f 640/640 652/652 651/651
f 653/653 654/654 655/655
f 655/655 656/656 653/653
f 657/657 658/658 659/659
f 659/659 660/660 657/657
f 661/661 662/662 663/663
f 664/664 661/661 663/663

