# https://github.com/mikedh/trimesh
v 2.11621158 0.17915516 -1.42217208
v 2.11621158 0.17915516 -0.82389921
v 2.11621158 0.85183846 -1.42217208
v 2.69872279 0.17915516 -1.42217208
v 2.11621158 0.71841120 -0.74609221
v 2.58391466 0.17915516 -0.59589716
v 2.11621158 0.85220827 -1.40745182
v 2.70895410 0.93223499 -0.72352654
v 2.86695164 0.93467580 -0.84654575
v 2.86183609 0.92535652 -0.98525579
v 2.95970394 0.92483882 -0.99107911
v 2.16485201 0.85183846 -1.42217208
v 2.71440513 0.71175466 -1.42217208
v 2.79550065 0.73505261 -1.35269571
v 2.97136093 0.17915516 -1.10601031
v 2.11621158 0.77972561 -0.74609221
v 2.60437707 0.17915516 -0.59589716
v 2.61200872 0.81382211 -0.60665434
v 2.11621158 0.85087690 -1.26866092
v 2.62928448 0.91662908 -0.61813935
v 2.71994013 0.91544570 -0.62016133
v 2.82024011 0.91943960 -0.71349741
v 2.11621158 0.84673511 -0.99107911
v 2.95156928 0.91551964 -0.88892717
v 2.97287038 0.81382211 -0.99107911
v 2.94687297 0.90649633 -1.07187875
v 2.58114706 0.84547779 -1.40745182
v 2.44243796 0.84754868 -1.42217208
v 2.17952812 0.85169058 -1.42217208
v 2.71440513 0.78882297 -1.42217208
v 2.79550065 0.75820278 -1.35269571
v 2.95475613 0.81382211 -1.08085646
v 2.97261887 0.17915516 -1.02512979
v 2.11621158 0.83075928 -0.85228831
v 2.69536841 0.17915516 -0.60002209
v 2.72371397 0.82217973 -0.61053655
v 2.79373948 0.89281332 -0.63811684
v 2.79373948 0.87395303 -0.63811684
v 2.97261887 0.17915516 -1.00927723
v 2.58148254 0.84111397 -1.42217208
f 1 2 5
f 1 5 16
f 1 16 34
f 1 34 23
f 1 23 19
f 1 19 7
f 1 7 3
f 1 3 12
f 1 12 29
f 1 29 28
f 1 28 40
f 1 40 30
f 1 30 13
f 1 13 4
f 1 4 15
f 1 15 33
f 1 33 39
f 1 39 35
f 1 35 17
f 1 17 6
f 1 6 2
f 2 6 5
f 3 7 8
f 3 8 9
f 3 9 10
f 3 10 11
f 3 11 12
f 4 13 14
f 4 14 15
f 5 6 16
f 6 17 18
f 6 18 16
f 7 19 8
f 8 20 21
f 8 21 22
f 8 22 9
f 8 19 23
f 8 23 20
f 9 22 24
f 9 24 11
f 9 11 10
f 11 24 25
f 11 25 26
f 11 26 27
f 11 27 28
f 11 28 29
f 11 29 12
f 13 30 31
f 13 31 14
f 14 31 15
f 15 32 25
f 15 25 33
f 15 31 32
f 16 18 20
f 16 20 34
f 17 35 36
f 17 36 18
f 18 36 21
f 18 21 20
f 20 23 34
f 21 36 37
f 21 37 22
f 22 37 24
f 24 38 39
f 24 39 25
f 24 37 38
f 25 39 33
f 25 32 26
f 26 32 31
f 26 31 30
f 26 30 40
f 26 40 27
f 27 40 28
f 35 39 38
f 35 38 36
f 36 38 37

