# https://github.com/mikedh/trimesh
v 5.38884521 4.61885967 4.36512815
v 5.38884521 3.99741750 4.36512815
v 5.38884521 3.99741750 0.06097091
v 5.15434609 3.99650362 1.50397588
v 5.37937277 3.99868000 -3.06212891
v 4.80978932 3.99770706 -1.40489280
v 4.94069055 4.01917219 -3.06212891
v 3.62687353 4.19964997 -3.06212891
v 4.81172153 3.99650362 1.50650377
v 4.94082417 4.01916805 4.36512815
v 3.64655929 4.19962991 4.36512815
v 3.62687353 4.19964997 0.06097091
v 3.64655929 4.61885967 4.36512815
v 3.62687353 4.61892048 0.06097091
v 3.62687353 4.61892048 -3.06212891
v 5.37937277 4.61892048 -3.06212891
v 5.38884521 4.61885967 0.06097091
f 2 3 1
f 4 3 2
f 4 5 3
f 6 5 4
f 6 7 5
f 6 8 7
f 6 9 8
f 6 4 9
f 4 2 9
f 9 2 10
f 11 9 10
f 11 12 9
f 11 13 12
f 11 10 13
f 13 10 1
f 13 1 14
f 13 14 12
f 8 12 14
f 8 9 12
f 15 8 14
f 15 16 8
f 15 14 16
f 14 1 16
f 17 16 1
f 17 3 16
f 17 1 3
f 5 16 3
f 5 7 16
f 8 16 7
f 2 1 10

