# https://github.com/mikedh/trimesh
v 0.54855659 0.93675476 -4.81327734
v 0.54855659 2.05853375 -4.81327734
v 0.67238053 0.93675476 -4.81327734
v 0.21991438 0.93675476 -3.61030971
v 0.69132159 2.05853375 -4.81327734
v 0.21991438 2.05853375 -3.61030971
v 0.69132159 0.93686449 -4.81327734
v 0.69108601 0.93675476 -4.81286409
v 0.21991438 0.93675476 -3.35347573
v 0.70098060 2.05853375 -3.48964123
v 0.21991438 2.05853375 -3.38240311
v 0.70098060 0.93675476 -3.48964123
v 0.25044629 0.93675476 -2.95386409
v 0.70126334 2.05853375 -3.35078983
v 0.70102775 0.93675476 -3.47373096
v 0.25275504 0.93675476 -2.93423480
v 0.28682075 2.05853375 -2.83278215
v 0.70126334 0.93675476 -3.35078983
v 0.70126334 2.05853375 -2.93444142
v 0.26849219 0.93675476 -2.83422873
v 0.31028510 2.05853375 -2.76562932
v 0.70126334 0.93675476 -2.93444142
v 0.67129684 2.05853375 -2.79558981
v 0.27513570 0.93675476 -2.82017829
v 0.31108607 2.05853375 -2.76335645
v 0.67129684 0.93675476 -2.79558981
v 0.66912941 2.05853375 -2.79290370
v 0.30448969 0.93675476 -2.75881072
v 0.31108607 0.93675476 -2.75075238
v 0.38048967 2.05853375 -2.71438633
v 0.60495582 0.93675476 -2.71438633
v 0.60495582 2.05853375 -2.71438633
v 0.37252686 0.93675476 -2.71707265
v 0.38048967 0.93675476 -2.71438633
v 0.49913072 2.05853375 -2.70240213
v 0.59279964 0.93675476 -2.71294017
v 0.60146916 2.05853375 -2.71397308
v 0.49913072 0.93675476 -2.70240213
f 1 2 5
f 1 5 7
f 1 7 3
f 1 3 8
f 1 8 12
f 1 12 15
f 1 15 18
f 1 18 22
f 1 22 26
f 1 26 31
f 1 31 36
f 1 36 38
f 1 38 34
f 1 34 33
f 1 33 29
f 1 29 28
f 1 28 24
f 1 24 20
f 1 20 16
f 1 16 13
f 1 13 9
f 1 9 4
f 1 4 6
f 1 6 2
f 2 6 11
f 2 11 17
f 2 17 21
f 2 21 25
f 2 25 30
f 2 30 35
f 2 35 37
f 2 37 32
f 2 32 27
f 2 27 23
f 2 23 19
f 2 19 14
f 2 14 10
f 2 10 5
f 3 7 8
f 4 9 11
f 4 11 6
f 5 10 12
f 5 12 7
f 7 12 8
f 9 13 11
f 10 14 15
f 10 15 12
f 11 13 16
f 11 16 17
f 14 18 15
f 14 19 22
f 14 22 18
f 16 20 17
f 17 20 21
f 19 23 26
f 19 26 22
f 20 24 25
f 20 25 21
f 23 27 26
f 24 28 25
f 25 28 29
f 25 29 30
f 26 27 31
f 27 32 31
f 29 33 30
f 30 33 34
f 30 34 38
f 30 38 35
f 31 32 36
f 32 37 36
f 35 38 36
f 35 36 37

