# https://github.com/mikedh/trimesh
v 4.53039423 0.93628050 3.31768704
v 4.66920261 0.93620542 3.17888921
v 4.53120045 0.92719638 3.17978582
v 4.41286668 0.92366795 3.31175244
v 4.41060974 0.91766189 3.40849679
v 4.48815521 0.91766189 3.40849679
v 5.91299618 0.93087508 3.31768704
v 4.66323760 0.92359287 3.06391479
v 5.78692404 0.92862279 3.15967710
v 5.63473494 0.92637061 3.05640062
v 4.44317569 0.90264689 3.23054875
v 4.58198407 0.90264689 3.09162310
v 4.40287137 0.81540974 3.30598889
v 4.39867973 0.81383327 3.43253344
v 4.52313942 0.73688141 3.46429750
v 5.20476733 0.84709148 3.46429750
v 5.21830979 0.84709148 3.46429750
v 5.99441104 0.90257181 3.39073601
v 6.00295564 0.91518437 3.31175244
v 5.91235128 0.92832258 3.19852843
v 4.78157137 0.81383327 3.05055165
v 4.65743393 0.81540974 3.05396705
v 5.63473494 0.81383327 3.02817998
v 5.74952156 0.92051471 3.07159959
v 4.44317569 0.86278209 3.23054875
v 4.58198407 0.86278209 3.09162310
v 4.38513727 0.16931456 3.45055027
v 4.40738525 0.16931456 3.33331291
v 4.38787819 0.16931456 3.46429750
v 4.42528067 0.67531984 3.46429750
v 5.35711818 0.84101034 3.46429750
v 5.49286339 0.79799240 3.46429750
v 5.86011696 0.63057517 3.46429750
v 5.92524885 0.55504982 3.46429750
v 6.00295564 0.81383327 3.40102543
v 6.03213618 0.16931456 3.43774206
v 6.00811484 0.80895331 3.30504946
v 5.99731330 0.90647575 3.22926806
v 4.80204598 0.16931456 3.03735914
v 4.68467977 0.16931456 3.05588830
v 4.78124872 0.16931456 3.03868265
v 5.63151044 0.16931456 3.04444641
v 5.99731330 0.85189617 3.22926806
v 5.74629748 0.81383327 3.07377690
v 5.94169315 0.16931456 3.46429750
v 5.96345755 0.42914903 3.46429750
v 6.03213618 0.16931456 3.42267112
v 5.96329623 0.39746749 3.46429750
v 6.03116904 0.16931456 3.32891548
f 1 2 3
f 1 3 4
f 1 4 5
f 1 5 6
f 1 6 7
f 1 7 2
f 2 8 3
f 2 7 9
f 2 9 10
f 2 10 8
f 3 11 4
f 3 8 12
f 3 12 11
f 4 13 14
f 4 14 5
f 4 11 13
f 5 14 15
f 5 15 16
f 5 16 17
f 5 17 6
f 6 17 18
f 6 18 7
f 7 18 19
f 7 19 20
f 7 20 9
f 8 21 22
f 8 22 12
f 8 10 23
f 8 23 21
f 9 20 10
f 10 20 24
f 10 24 23
f 11 25 13
f 11 12 26
f 11 26 25
f 12 22 26
f 13 27 14
f 13 25 28
f 13 28 27
f 14 27 29
f 14 29 30
f 14 30 15
f 15 30 29
f 15 29 45
f 15 45 48
f 15 48 46
f 15 46 34
f 15 34 33
f 15 33 32
f 15 32 31
f 15 31 17
f 15 17 16
f 17 31 18
f 18 31 32
f 18 32 33
f 18 33 34
f 18 34 35
f 18 35 19
f 19 35 36
f 19 36 37
f 19 37 38
f 19 38 20
f 20 38 24
f 21 39 22
f 21 23 39
f 22 40 26
f 22 39 41
f 22 41 40
f 23 24 42
f 23 42 39
f 24 38 43
f 24 43 44
f 24 44 42
f 25 26 28
f 26 40 28
f 27 28 40
f 27 40 41
f 27 41 39
f 27 39 42
f 27 42 49
f 27 49 47
f 27 47 36
f 27 36 45
f 27 45 29
f 34 46 35
f 35 46 36
f 36 47 37
f 36 46 48
f 36 48 45
f 37 47 49
f 37 49 38
f 38 49 43
f 42 44 43
f 42 43 49

