# https://github.com/mikedh/trimesh
v -6.36416425 3.66583842 4.90079770
v -6.36416425 1.69112668 4.90079770
v -6.36416425 4.25493644 0.60627271
v -8.53681272 0.84190726 4.90079770
v -6.36416425 1.69112668 0.88624047
v -6.52495902 1.48200964 4.90079770
v -6.36416425 1.73703049 0.60627271
v -8.53681272 1.03444797 0.60627271
v -8.53681272 -0.08721883 4.90079770
v -6.36416425 1.73278005 0.61720252
v -6.52495902 1.48200964 0.88624047
v -6.68979560 1.27076728 4.90079770
v -6.36501461 1.73363024 0.60627271
v -8.53681272 -0.05789143 0.60627271
v -8.53681272 -0.08721883 1.80769690
v -8.30838149 0.00756404 4.90079770
v -6.54282488 1.50368634 0.60627271
v -6.63300659 1.38807687 0.60627271
v -6.75530443 1.18703545 0.88624047
v -6.75530443 1.18703545 4.90079770
v -8.34283732 0.02414028 0.60627271
v -8.30838149 0.00756404 0.88624047
v -8.53681272 -0.08636864 0.88161666
v -8.53681272 -0.08679382 0.88624047
v -8.06016954 0.14272507 4.90079770
v -6.77295753 1.20956226 0.60627271
v -6.94545080 0.95709163 0.88624047
v -6.94545080 0.95709163 4.90079770
v -8.06016954 0.17587773 0.60627271
v -8.06016954 0.14272507 0.88624047
v -7.70582488 0.36544329 4.90079770
v -6.96820882 0.97919343 0.60627271
v -7.11050014 0.82490583 4.90079770
v -7.17579620 0.77262653 0.88624047
v -7.19855422 0.79047797 0.60627271
v -7.72751978 0.38244455 0.60627271
v -7.70582488 0.36544329 0.88624047
v -7.26087299 0.70717123 4.90079770
v -7.17579620 0.77262653 4.90079770
v -7.37976801 0.65021656 0.60627271
f 1 2 5
f 1 5 10
f 1 10 7
f 1 7 3
f 1 3 4
f 1 4 9
f 1 9 16
f 1 16 25
f 1 25 31
f 1 31 38
f 1 38 39
f 1 39 33
f 1 33 28
f 1 28 20
f 1 20 12
f 1 12 6
f 1 6 2
f 2 6 11
f 2 11 5
f 3 7 13
f 3 13 17
f 3 17 18
f 3 18 26
f 3 26 32
f 3 32 35
f 3 35 40
f 3 40 36
f 3 36 29
f 3 29 21
f 3 21 14
f 3 14 8
f 3 8 4
f 4 8 14
f 4 14 23
f 4 23 24
f 4 24 15
f 4 15 9
f 5 11 10
f 6 12 11
f 7 10 13
f 9 15 22
f 9 22 16
f 10 11 17
f 10 17 13
f 11 18 17
f 11 12 19
f 11 19 18
f 12 20 19
f 14 21 22
f 14 22 23
f 15 24 22
f 16 22 30
f 16 30 25
f 18 19 26
f 19 20 28
f 19 28 27
f 19 27 26
f 21 29 22
f 22 24 23
f 22 29 30
f 25 30 37
f 25 37 31
f 26 27 32
f 27 28 33
f 27 33 34
f 27 34 35
f 27 35 32
f 29 36 30
f 30 36 37
f 31 37 38
f 33 39 34
f 34 40 35
f 34 39 38
f 34 38 37
f 34 37 36
f 34 36 40

