# https://github.com/mikedh/trimesh
v 21.41712283 -10.15990849 0.11340194
v 21.07094893 -10.15587561 0.12715737
v 21.41712283 -9.90256217 -0.10209197
v 21.86780146 -9.93445593 -0.00007587
v 21.70726337 -10.14561155 0.15466685
v 21.41712283 -10.15990849 0.24751358
v 20.18265391 -9.73649707 0.07557623
v 20.49651401 -9.82961078 -0.00122204
v 20.93309817 -9.94362049 -0.01726981
v 21.07094893 -10.15587561 0.23948901
v 20.49651401 -9.44175880 -0.21671664
v 20.95681911 -9.44175880 -0.23505675
v 21.41712283 -9.44175880 -0.23505675
v 21.87777109 -9.44175880 -0.23276440
v 22.33841935 -9.44175880 -0.17889093
v 22.33841935 -9.79185233 0.03545750
v 21.70726337 -10.14561155 0.22114958
v 22.60208951 -9.70167131 0.12257268
v 21.41712283 -9.25773107 11.31681899
v 19.75707025 -9.28375876 0.09276949
v 20.03174091 -9.43919261 -0.02414684
v 20.18265391 -9.73649707 0.27846157
v 21.09226222 -9.24746631 11.30077157
v 20.03586575 -8.98132193 -0.20296190
v 20.03586575 -8.52051856 -0.23276440
v 20.49651401 -8.98132193 -0.23505675
v 20.95681911 -8.98132193 -0.23620292
v 21.87777109 -8.98132193 -0.23620292
v 22.33841935 -8.98132193 -0.23505675
v 22.79906761 -8.52051856 -0.21442429
v 22.84272643 -9.02201376 -0.04821849
v 22.70590654 -9.44175880 0.03431133
v 22.60208951 -9.70167131 0.24178204
v 21.69763690 -9.23683506 11.28701648
v 23.08439560 -8.89590679 0.07443006
v 21.41712283 -8.98132193 11.44863760
v 19.68900415 -8.98132193 0.01253270
v 19.75707025 -9.28375876 0.26356066
v 20.84853132 -9.14922023 11.01879492
v 20.57833004 -8.91863529 11.01879492
v 20.94616177 -9.00844981 11.38788641
v 20.61889490 -8.87317828 11.34776767
v 19.62334433 -8.52051856 -0.01612364
v 19.62300116 -8.06044819 -0.01612364
v 20.03586575 -8.06044819 -0.23276440
v 20.49651401 -8.52051856 -0.23620292
v 22.33841935 -8.52051856 -0.23620292
v 22.79906761 -8.06044819 -0.21442429
v 23.13458554 -8.06044819 0.00107030
v 23.13389647 -8.52051856 0.00221647
v 23.08439560 -8.89590679 0.27960775
v 22.16619168 -8.82515439 11.31567282
v 21.92761787 -9.07333614 11.01879492
v 21.86195804 -8.97985593 11.36954630
v 21.87777109 -8.52051856 11.47156240
v 21.87777109 -8.06044819 11.47385474
v 21.41712283 -7.60001132 11.45322229
v 20.53639116 -8.52051856 11.39132492
v 19.68900415 -8.98132193 0.33921277
v 20.37310089 -8.52051856 11.01879492
v 19.62334433 -8.52051856 0.39537927
v 19.68591018 -7.60001132 0.01023967
v 20.03586575 -7.60001132 -0.20525424
v 19.62300116 -8.06044819 0.39537927
v 20.49651401 -7.13920795 -0.22015584
v 20.49651401 -7.60001132 -0.23505675
v 20.49651401 -8.06044819 -0.23620292
v 22.33841935 -8.06044819 -0.23620292
v 22.33841935 -7.60001132 -0.23505675
v 22.33841935 -7.13920795 -0.18576795
v 22.84444500 -7.55528731 -0.04936466
v 23.08508193 -7.67882809 0.07443006
v 23.13458554 -8.06044819 0.34035894
v 23.13389647 -8.52051856 0.33921277
v 22.34048245 -8.52051856 11.01879492
v 22.24663368 -8.52051856 11.37986253
v 22.24869679 -8.06044819 11.38215487
v 21.86642742 -7.59854532 11.37413133
v 20.93997382 -7.57031794 11.38903258
v 20.53570346 -8.06044819 11.39017875
v 21.70554342 -7.33973301 11.29274768
v 21.41712283 -7.31700381 11.32484253
v 21.08229397 -7.32946825 11.30650276
v 20.37069461 -8.06044819 11.01879492
v 20.02933464 -7.13957445 -0.02873221
v 19.68591018 -7.60001132 0.34150511
v 19.75431944 -7.29317581 0.08933097
v 20.17818590 -6.84043750 0.07213703
v 20.49651401 -6.74512410 -0.00466124
v 20.92003593 -6.63478007 -0.02300066
v 21.41712283 -6.67877108 -0.11813974
v 20.95681911 -7.13920795 -0.23505675
v 20.95681911 -7.60001132 -0.23620292
v 21.87777109 -7.60001132 -0.23620292
v 21.87777109 -7.13920795 -0.23391058
v 21.87948966 -6.64394533 -0.00695358
v 22.33841935 -6.78251605 0.02857978
v 22.60655889 -6.87526326 0.11454811
v 22.71140679 -7.13920795 0.02857978
v 23.08508193 -7.67882809 0.27960775
v 22.34426413 -8.06044819 11.01879492
v 22.16894249 -7.75141299 11.31796516
v 20.61786403 -7.70412279 11.34776767
v 21.41712283 -7.29024312 11.01879492
v 21.93964923 -7.50103224 11.01879492
v 22.60655889 -6.87526326 0.24751358
v 21.72685809 -6.43132302 0.22917347
v 20.83306282 -7.42588115 11.01879492
v 21.04929247 -6.42105827 0.24636741
v 20.17818590 -6.84043750 0.28190077
v 20.57592377 -7.65646609 11.01879492
v 19.75431944 -7.29317581 0.26699986
v 21.04929247 -6.42105827 0.11798731
v 21.41712283 -7.13920795 -0.23505675
v 21.41712283 -6.41482639 0.09735486
v 21.72685809 -6.43132302 0.14205897
v 21.41712283 -6.41482639 0.25897529
f 1 2 3
f 1 3 4
f 1 4 5
f 1 5 17
f 1 17 6
f 1 6 10
f 1 10 2
f 2 7 8
f 2 8 9
f 2 9 3
f 2 10 22
f 2 22 7
f 3 9 11
f 3 11 12
f 3 12 13
f 3 13 14
f 3 14 15
f 3 15 4
f 4 15 16
f 4 16 5
f 5 16 18
f 5 18 33
f 5 33 17
f 6 17 19
f 6 19 10
f 7 20 21
f 7 21 11
f 7 11 8
f 7 22 38
f 7 38 20
f 8 11 9
f 10 19 23
f 10 23 22
f 11 24 25
f 11 25 26
f 11 26 12
f 11 21 24
f 12 27 28
f 12 28 13
f 12 26 27
f 13 28 29
f 13 29 14
f 14 29 15
f 15 29 30
f 15 30 31
f 15 31 32
f 15 32 18
f 15 18 16
f 17 33 34
f 17 34 19
f 18 32 35
f 18 35 51
f 18 51 33
f 19 34 36
f 19 36 23
f 20 37 21
f 20 38 59
f 20 59 37
f 21 37 24
f 22 23 39
f 22 39 40
f 22 40 38
f 23 36 41
f 23 41 42
f 23 42 39
f 24 37 43
f 24 43 25
f 25 43 44
f 25 44 45
f 25 45 67
f 25 67 46
f 25 46 26
f 26 46 27
f 27 46 67
f 27 67 93
f 27 93 94
f 27 94 68
f 27 68 47
f 27 47 28
f 28 47 29
f 29 47 30
f 30 48 49
f 30 49 50
f 30 50 31
f 30 47 68
f 30 68 48
f 31 50 35
f 31 35 32
f 33 51 52
f 33 52 53
f 33 53 34
f 34 53 52
f 34 52 54
f 34 54 36
f 35 50 74
f 35 74 51
f 36 55 56
f 36 56 57
f 36 57 58
f 36 58 41
f 36 54 55
f 37 59 61
f 37 61 43
f 38 40 60
f 38 60 59
f 39 42 40
f 40 42 60
f 41 58 42
f 42 58 60
f 43 61 64
f 43 64 44
f 44 62 63
f 44 63 45
f 44 64 86
f 44 86 62
f 45 63 65
f 45 65 66
f 45 66 67
f 48 68 69
f 48 69 70
f 48 70 71
f 48 71 49
f 49 71 72
f 49 72 100
f 49 100 73
f 49 73 74
f 49 74 50
f 51 74 75
f 51 75 52
f 52 75 76
f 52 76 54
f 54 76 55
f 55 76 77
f 55 77 56
f 56 77 78
f 56 78 57
f 57 79 80
f 57 80 58
f 57 78 81
f 57 81 82
f 57 82 83
f 57 83 79
f 58 80 84
f 58 84 60
f 59 60 61
f 60 84 61
f 61 84 64
f 62 85 63
f 62 86 112
f 62 112 87
f 62 87 85
f 63 85 65
f 64 84 86
f 65 85 88
f 65 88 89
f 65 89 90
f 65 90 91
f 65 91 92
f 65 92 66
f 66 92 67
f 67 92 93
f 68 94 69
f 69 95 70
f 69 94 114
f 69 114 95
f 70 91 96
f 70 96 97
f 70 97 98
f 70 98 99
f 70 99 71
f 70 95 91
f 71 99 72
f 72 99 98
f 72 98 106
f 72 106 100
f 73 100 101
f 73 101 74
f 74 101 75
f 75 101 76
f 76 101 77
f 77 101 102
f 77 102 78
f 78 102 81
f 79 103 80
f 79 83 103
f 80 103 84
f 81 104 82
f 81 102 105
f 81 105 106
f 81 106 107
f 81 107 104
f 82 104 83
f 83 108 103
f 83 104 109
f 83 109 110
f 83 110 108
f 84 103 111
f 84 111 112
f 84 112 86
f 85 87 88
f 87 112 110
f 87 110 88
f 88 113 89
f 88 110 109
f 88 109 113
f 89 113 90
f 90 113 91
f 91 95 114
f 91 114 92
f 91 113 115
f 91 115 96
f 92 114 94
f 92 94 93
f 96 115 116
f 96 116 97
f 97 116 98
f 98 116 107
f 98 107 106
f 100 106 102
f 100 102 101
f 102 106 105
f 103 108 111
f 104 117 109
f 104 107 117
f 107 116 115
f 107 115 117
f 108 110 111
f 109 117 115
f 109 115 113
f 110 112 111

