# https://github.com/mikedh/trimesh
v -19.64471802 2.04038872 9.06068190
v -20.03584379 2.03180359 9.06068190
v -20.95687127 1.61181918 9.08627240
v -19.64471802 1.68977221 9.06068190
v -19.64471802 2.18839631 8.76762892
v -19.64471802 2.21380837 8.71562226
v -20.03584379 2.19766829 8.71562226
v -20.49635753 1.99162531 9.05490334
v -22.79892485 -0.69071189 9.08462144
v -22.79892485 -1.29441814 9.08214481
v -21.40115879 1.61937413 9.04086961
v -21.90378849 1.17981560 9.05655431
v -22.35705183 0.70145234 9.05737962
v -22.51999208 -1.29441814 9.00042006
v -19.64471802 1.65302781 9.00537331
v -19.64471802 2.16229758 0.88656785
v -20.49635753 2.11799841 8.71562226
v -20.03584379 2.14615750 0.88656785
v -20.95687127 1.92363111 9.01775573
v -22.71124069 0.23030055 9.04499720
v -22.82999364 -0.21681287 9.04747382
v -23.08924658 -0.69071189 9.01115152
v -23.11203274 -1.15121829 9.02931284
v -23.10996002 -1.29441814 9.02766153
v -21.23649311 1.86593906 8.97235294
v -21.76777434 1.47067970 9.01032621
v -22.21586002 1.04554422 9.01775573
v -22.63046102 0.55516178 9.00124572
v -22.40572773 -1.29441814 8.71562226
v -19.64471802 1.46552862 8.71314564
v -19.64471802 2.14787453 0.65295070
v -20.03584379 2.13207795 0.65295070
v -20.95687127 1.97582857 8.71562226
v -20.49635753 2.06236672 0.88656785
v -20.49635753 2.04863051 0.65295070
v -23.05990460 -0.36138645 8.98143377
v -23.17140852 -1.15121829 8.71562226
v -23.16726583 -1.29441814 8.71562226
v -21.45673780 1.72926381 8.71562226
v -21.80229537 1.49883896 8.71562226
v -20.92787245 1.92534814 0.88656785
v -21.15812932 1.82988151 0.88656785
v -21.41703910 1.67878321 0.88656785
v -22.03255224 1.31374364 8.71562226
v -22.24969060 1.08331879 8.71562226
v -22.48029338 0.80481730 8.71562226
v -22.64461452 0.57473587 8.71562226
v -22.82239871 0.23030055 8.71562226
v -19.64471802 1.38448505 8.39367650
v -22.31666268 -1.29441814 8.25499253
v -19.64471802 1.07404682 0.65295070
v -20.91095716 1.91848003 0.65295070
v -22.97670904 -0.13336543 8.71562226
v -23.06025051 -0.36344690 8.71562226
v -23.12238808 -0.69071189 8.71562226
v -23.06266639 -0.69071189 0.88656785
v -23.11030593 -1.15121829 0.88656785
v -23.10616324 -1.29441814 0.88656785
v -21.75085905 1.46072105 0.88656785
v -21.14121403 1.82198323 0.65295070
v -21.41703910 1.66298663 0.65295070
v -21.74015779 1.45282276 0.65295070
v -21.98111592 1.27047465 0.88656785
v -22.21275369 1.04004980 0.88656785
v -22.44301056 0.75708398 0.88656785
v -22.61423618 0.52700256 0.88656785
v -22.76129612 0.23030055 0.88656785
v -19.64471802 1.36319389 8.19885828
v -22.29284291 -1.29441814 7.79436280
v -19.64471802 1.35941650 8.12951630
v -22.20895554 -1.29441814 0.65295070
v -19.64471802 1.34499345 7.79436280
v -22.94633070 -0.22574142 0.88656785
v -23.03021670 -0.45753983 0.65295070
v -23.09753196 -1.15121829 0.65295070
v -23.09235428 -1.29441814 0.65295070
v -21.97041466 1.26120267 0.65295070
v -22.20446831 1.03112125 0.65295070
v -22.43506972 0.74678183 0.65295070
v -22.60698579 0.51635698 0.65295070
v -22.74679671 0.23030055 0.65295070
f 1 2 3
f 1 3 4
f 1 4 15
f 1 15 30
f 1 30 49
f 1 49 68
f 1 68 70
f 1 70 72
f 1 72 51
f 1 51 31
f 1 31 16
f 1 16 6
f 1 6 5
f 1 5 2
f 2 5 6
f 2 6 7
f 2 7 8
f 2 8 3
f 3 9 10
f 3 10 4
f 3 8 11
f 3 11 12
f 3 12 13
f 3 13 9
f 4 10 14
f 4 14 15
f 6 16 18
f 6 18 7
f 7 17 8
f 7 18 17
f 8 19 11
f 8 17 19
f 9 13 20
f 9 20 21
f 9 21 22
f 9 22 23
f 9 23 10
f 10 23 24
f 10 24 38
f 10 38 58
f 10 58 76
f 10 76 71
f 10 71 69
f 10 69 50
f 10 50 29
f 10 29 14
f 11 19 25
f 11 25 26
f 11 26 12
f 12 26 27
f 12 27 13
f 13 27 28
f 13 28 20
f 14 29 30
f 14 30 15
f 16 31 32
f 16 32 18
f 17 33 25
f 17 25 19
f 17 18 34
f 17 34 33
f 18 32 35
f 18 35 34
f 20 28 36
f 20 36 22
f 20 22 21
f 22 36 37
f 22 37 23
f 23 37 24
f 24 37 38
f 25 39 40
f 25 40 26
f 25 33 41
f 25 41 42
f 25 42 43
f 25 43 39
f 26 40 44
f 26 44 27
f 27 44 45
f 27 45 28
f 28 45 46
f 28 46 47
f 28 47 48
f 28 48 36
f 29 49 30
f 29 50 49
f 31 51 71
f 31 71 76
f 31 76 75
f 31 75 74
f 31 74 81
f 31 81 80
f 31 80 79
f 31 79 78
f 31 78 77
f 31 77 62
f 31 62 61
f 31 61 60
f 31 60 52
f 31 52 35
f 31 35 32
f 33 34 41
f 34 35 52
f 34 52 41
f 36 48 53
f 36 53 54
f 36 54 55
f 36 55 37
f 37 55 56
f 37 56 57
f 37 57 58
f 37 58 38
f 39 43 59
f 39 59 40
f 40 59 44
f 41 52 42
f 42 52 60
f 42 60 61
f 42 61 43
f 43 61 62
f 43 62 59
f 44 59 63
f 44 63 64
f 44 64 45
f 45 64 46
f 46 64 65
f 46 65 66
f 46 66 47
f 47 66 48
f 48 66 67
f 48 67 53
f 49 50 68
f 50 69 70
f 50 70 68
f 51 72 69
f 51 69 71
f 53 67 73
f 53 73 74
f 53 74 54
f 54 74 55
f 55 74 56
f 56 74 57
f 57 74 75
f 57 75 58
f 58 75 76
f 59 62 63
f 62 77 63
f 63 77 78
f 63 78 64
f 64 78 65
f 65 78 79
f 65 79 80
f 65 80 66
f 66 80 67
f 67 80 81
f 67 81 74
f 67 74 73
f 69 72 70

