# https://github.com/mikedh/trimesh
v -4.80694656 -1.15175131 4.41391860
v -4.80694656 -0.68468793 4.28184742
v -5.99000318 -0.90227574 1.12352536
v -5.11867904 -1.15175131 3.56183160
v -6.00151706 -1.48938752 1.15540470
v -4.80694656 -1.61193707 4.37839553
v -5.09480231 -0.69094039 3.49670712
v -4.80694656 -0.23263055 4.05413889
v -5.53028216 0.00871690 2.04665712
v -5.54712950 -0.23075481 2.09265427
v -5.65160575 -0.23075481 1.80756307
v -5.91594817 -1.15175131 1.38129171
v -5.71220698 -0.69094039 1.80756307
v -5.81850166 -0.23075481 1.34713580
v -5.94188527 -0.25826583 0.85847224
v -5.96794385 -0.59527679 0.99282066
v -6.00600154 -0.72595455 0.85847224
v -6.04502901 -1.15175131 0.88625282
v -5.99982045 -1.15175131 1.15085021
v -6.02684813 -1.63006923 0.90765740
v -5.97982216 -1.79638639 1.07570668
v -5.85364999 -2.07212274 1.34713580
v -5.68651215 -2.07212274 1.80756307
v -5.74723452 -1.61193707 1.80756307
v -5.24218414 -1.61193707 3.18884485
v -5.11225534 -1.61193707 3.54407075
v -4.80694656 -1.91018231 4.27182837
v -4.80694656 0.22818037 3.67340965
v -5.10437730 0.09250064 3.05677367
v -5.04474551 -0.10758010 3.36372518
v -5.52907010 0.46515092 1.58258613
v -5.57500582 0.57707111 1.34713580
v -5.70626816 0.23005611 1.34713580
v -5.82553105 0.23005611 0.88625282
v -5.99157831 -0.43021021 0.68586915
v -5.99157831 -0.43021021 0.64260428
v -6.00878941 -0.69094039 0.59023112
v -6.03266615 -1.15175131 0.52237367
v -6.02624278 -1.61193707 0.54013520
v -6.00321366 -1.96145305 0.60617045
v -6.00321366 -1.96145305 0.76875517
v -5.96358085 -2.09775803 0.90765740
v -5.89898003 -2.53293366 0.88625282
v -5.77898964 -2.53293366 1.34713580
v -5.54203899 -2.36849224 2.07899149
v -5.06668302 -2.30346607 3.41974138
v -4.80694656 -2.06774585 4.21535645
v -4.80694656 0.69086703 3.18520112
v -5.38217282 0.64772467 1.76475323
v -5.47961967 0.80716394 1.34713580
v -5.52543426 0.91783364 1.10849679
v -5.76929317 0.23005611 0.42582556
v -5.62869845 0.73463464 0.92769549
v -5.54894759 0.97410635 0.80154528
v -5.54894759 0.97410635 0.59205264
v -5.89946458 -0.25826583 0.46362519
v -5.92176619 -0.69094039 0.35978963
v -5.94564293 -1.15175131 0.29193286
v -5.93921888 -1.61193707 0.31014943
v -5.92103868 -2.09775803 0.44176489
v -5.84249987 -2.53293366 0.42582556
v -5.76299060 -2.99374424 0.88625282
v -5.63051654 -3.00374853 1.35487761
v -5.56567345 -2.85681419 1.67594692
v -5.50543564 -2.67549111 1.98289843
v -4.80694656 -2.52730627 3.91614675
v -4.80694656 0.86218617 2.98026365
v -5.09831700 0.98723653 2.11815760
v -5.03807953 0.85218205 2.42556484
v -5.45768216 1.13667186 0.92769549
v -5.32726847 1.15105270 1.34713580
v -5.14425273 1.49181523 1.34713580
v -5.60385228 0.23005611 0.12069557
v -5.60542775 0.67836193 0.43356736
v -5.48677055 0.82342053 0.28510113
v -5.55015965 0.51642166 0.17124721
v -5.18291610 1.63749908 0.84389871
v -5.40956459 1.13667186 0.43356736
v -5.15455489 1.68814441 0.79926804
v -5.12570878 1.68814441 0.53558140
v -5.15794845 1.60185968 0.47045623
v -5.66105960 -0.23075481 0.07287690
v -5.69148152 -0.69094039 0.05602612
v -5.71535826 -1.15175131 0.04464059
v -5.70893455 -1.61193707 0.04782860
v -5.67863411 -2.07212274 0.06285785
v -5.64021301 -2.53293366 0.09018271
v -5.58700493 -2.90808476 0.13800138
v -5.67148290 -3.03438596 0.38392717
v -5.58567174 -3.36514420 0.50962234
v -5.59718595 -3.39390589 0.88625282
v -5.56191614 -3.30887165 1.20686710
v -5.44204688 -3.45893189 1.35487761
v -5.50204208 -3.16381305 1.51381861
v -5.44810717 -3.00374853 1.82077011
v -5.07807610 -2.79116277 2.98800546
v -4.80694656 -2.99311899 3.46573853
v -4.80694656 1.16043141 2.58222860
v -5.01783863 1.29423540 1.93143672
v -5.08619676 1.40928198 1.62402949
v -5.15261566 1.14480024 1.78980153
v -4.99990070 1.68814441 1.34713580
v -5.07977305 1.68814441 1.11259555
v -5.29684655 0.23005611 -0.05873924
v -5.18327986 1.15105270 0.09746947
v -5.31866292 0.67836193 0.05921413
v -5.10898291 1.44179516 0.15576292
v -5.14061655 1.68814441 0.88078757
v -5.06256230 1.68814441 0.39758925
v -5.29684655 -0.23075481 -0.12204221
v -5.29684655 -0.69094039 -0.14800058
v -5.29684655 -1.15175131 -0.16576212
v -5.29684655 -1.61193707 -0.16120832
v -5.29684655 -2.07212274 -0.13798154
v -5.29684655 -2.53293366 -0.09927115
v -5.34060043 -3.03438596 0.02460250
v -5.24363881 -3.45392991 0.05875909
v -5.15285794 -3.83220758 0.11887405
v -5.52325242 -3.21508362 0.20267083
v -5.48095287 -3.49269589 0.38392717
v -5.24824443 -3.95725829 0.38347145
v -5.13528377 -4.23487022 0.50871158
v -5.35381160 -3.91474083 0.88625282
v -5.50143605 -3.62399872 0.88625282
v -5.20545999 -3.93537432 1.35578837
v -5.07128898 -3.69277655 2.05030016
v -5.26666724 -3.45392991 1.80756307
v -4.93869345 -2.96435765 3.16060923
v -5.11540662 -3.42016659 2.22882422
v -4.80694656 -3.44142498 2.96386860
v -4.80694656 1.44804762 2.16233325
v -4.80694656 1.59185539 1.93371327
v -4.93069393 1.68814441 1.50106659
v -4.98681067 1.68814441 1.37764867
v -4.83627756 1.15105270 -0.08515334
v -4.83627756 0.69086703 -0.16712860
v -4.83930737 1.60185968 0.06559013
v -4.93045165 1.68814441 0.22999569
v -4.80694656 1.68814441 0.09063775
v -4.80694656 1.67626472 0.07925290
v -4.83627756 0.23005611 -0.20583899
v -4.83627756 -0.23075481 -0.22223404
v -4.83627756 -0.69094039 -0.23134233
v -4.83627756 -1.15175131 -0.23771834
v -4.83627756 -1.61193707 -0.23589613
v -4.83627756 -2.07212274 -0.22769860
v -4.83627756 -2.53293366 -0.21676880
v -4.83627756 -2.99374424 -0.19217622
v -4.83627756 -3.45392991 -0.14116954
v -4.88003145 -3.95725829 0.01549422
v -4.80694656 -4.17922292 0.06103564
v -4.80694656 -4.32803300 0.12115061
v -5.06280457 -4.13920645 0.20176007
v -4.96196450 -4.38305471 0.38347145
v -4.80694656 -4.60064261 0.40943051
v -4.80694656 -4.64378498 0.59751789
v -4.80694656 -4.69943262 0.88625282
v -5.14910062 -4.25300272 0.88625282
v -5.10777086 -4.19923082 1.20777786
v -5.03807953 -4.10294214 1.51472937
v -4.80694656 -3.89035621 2.35178711
v -4.80694656 -3.62712496 2.71247757
v -4.80694656 1.68814441 1.77203999
v -4.80694656 1.60248492 0.05192736
v -4.80694656 1.15105270 -0.09289514
v -4.80694656 0.69086703 -0.17168240
v -4.80694656 0.23005611 -0.20857127
v -4.80694656 -0.23075481 -0.22405556
v -4.80694656 -0.69094039 -0.23225309
v -4.80694656 -1.15175131 -0.23862910
v -4.80694656 -1.18113816 -0.23862910
v -4.80694656 -1.64132384 -0.23680758
v -4.80694656 -2.10150951 -0.22952081
v -4.80694656 -2.56232043 -0.21859100
v -4.80694656 -3.02313152 -0.19445346
v -4.80694656 -3.48331719 -0.14390182
v -4.80694656 -4.01790756 0.00183144
v -4.80694656 -4.50935591 0.28009161
v -4.80694656 -4.50622968 1.35168960
v -4.91590729 -4.36179632 1.35578837
v -4.80694656 -4.36742354 1.58486338
f 1 2 3
f 1 3 4
f 1 4 5
f 1 5 6
f 1 6 27
f 1 27 47
f 1 47 66
f 1 66 97
f 1 97 130
f 1 130 162
f 1 162 161
f 1 161 181
f 1 181 179
f 1 179 157
f 1 157 156
f 1 156 155
f 1 155 178
f 1 178 152
f 1 152 151
f 1 151 177
f 1 177 176
f 1 176 175
f 1 175 174
f 1 174 173
f 1 173 172
f 1 172 171
f 1 171 170
f 1 170 169
f 1 169 168
f 1 168 167
f 1 167 166
f 1 166 165
f 1 165 164
f 1 164 140
f 1 140 139
f 1 139 163
f 1 163 132
f 1 132 131
f 1 131 98
f 1 98 67
f 1 67 48
f 1 48 28
f 1 28 8
f 1 8 2
f 2 7 3
f 2 8 9
f 2 9 10
f 2 10 11
f 2 11 7
f 3 12 4
f 3 7 13
f 3 13 11
f 3 11 14
f 3 14 15
f 3 15 16
f 3 16 17
f 3 17 18
f 3 18 19
f 3 19 12
f 4 12 5
f 5 19 18
f 5 18 20
f 5 20 21
f 5 21 22
f 5 22 23
f 5 23 24
f 5 24 25
f 5 25 26
f 5 26 6
f 5 12 19
f 6 26 27
f 7 11 13
f 8 28 29
f 8 29 30
f 8 30 9
f 9 14 11
f 9 11 10
f 9 30 29
f 9 29 31
f 9 31 32
f 9 32 33
f 9 33 14
f 14 33 34
f 14 34 15
f 15 35 16
f 15 34 35
f 16 35 17
f 17 35 18
f 18 35 36
f 18 36 37
f 18 37 38
f 18 38 39
f 18 39 20
f 20 39 40
f 20 40 41
f 20 41 21
f 21 41 42
f 21 42 43
f 21 43 44
f 21 44 22
f 22 45 46
f 22 46 23
f 22 44 45
f 23 46 24
f 24 46 47
f 24 47 25
f 25 47 26
f 26 47 27
f 28 48 49
f 28 49 31
f 28 31 29
f 31 49 32
f 32 49 50
f 32 50 51
f 32 51 33
f 33 51 34
f 34 52 36
f 34 36 35
f 34 51 53
f 34 53 54
f 34 54 55
f 34 55 52
f 36 56 57
f 36 57 37
f 36 52 56
f 37 57 58
f 37 58 38
f 38 58 39
f 39 59 40
f 39 58 59
f 40 59 60
f 40 60 61
f 40 61 43
f 40 43 41
f 41 43 42
f 43 61 62
f 43 62 44
f 44 62 63
f 44 63 64
f 44 64 65
f 44 65 46
f 44 46 45
f 46 66 47
f 46 65 66
f 48 67 68
f 48 68 69
f 48 69 49
f 49 69 50
f 50 69 51
f 51 70 54
f 51 54 53
f 51 69 68
f 51 68 71
f 51 71 72
f 51 72 70
f 52 73 56
f 52 55 74
f 52 74 75
f 52 75 76
f 52 76 73
f 54 70 77
f 54 77 55
f 55 78 75
f 55 75 74
f 55 77 79
f 55 79 80
f 55 80 81
f 55 81 78
f 56 73 57
f 57 73 82
f 57 82 58
f 58 82 83
f 58 83 84
f 58 84 85
f 58 85 59
f 59 85 86
f 59 86 87
f 59 87 61
f 59 61 60
f 61 87 88
f 61 88 89
f 61 89 90
f 61 90 62
f 62 90 91
f 62 91 92
f 62 92 63
f 63 92 93
f 63 93 94
f 63 94 64
f 64 94 95
f 64 95 96
f 64 96 66
f 64 66 65
f 66 96 97
f 67 98 99
f 67 99 100
f 67 100 68
f 68 100 101
f 68 101 71
f 70 72 77
f 71 100 72
f 71 101 100
f 72 100 102
f 72 102 103
f 72 103 77
f 73 104 82
f 73 76 105
f 73 105 106
f 73 106 104
f 75 78 107
f 75 107 76
f 76 107 105
f 77 103 108
f 77 108 79
f 78 81 107
f 79 108 103
f 79 103 102
f 79 102 134
f 79 134 133
f 79 133 163
f 79 163 139
f 79 139 138
f 79 138 109
f 79 109 80
f 80 109 81
f 81 109 107
f 82 110 83
f 82 104 110
f 83 110 111
f 83 111 84
f 84 111 112
f 84 112 113
f 84 113 85
f 85 113 114
f 85 114 86
f 86 114 115
f 86 115 87
f 87 115 116
f 87 116 88
f 88 116 117
f 88 117 118
f 88 118 119
f 88 119 89
f 89 119 90
f 90 119 120
f 90 120 121
f 90 121 122
f 90 122 123
f 90 123 124
f 90 124 91
f 91 124 92
f 92 124 125
f 92 125 93
f 93 125 126
f 93 126 127
f 93 127 95
f 93 95 94
f 95 128 96
f 95 127 129
f 95 129 128
f 96 128 97
f 97 128 129
f 97 129 126
f 97 126 130
f 98 131 100
f 98 100 99
f 100 131 132
f 100 132 133
f 100 133 134
f 100 134 102
f 104 106 105
f 104 105 135
f 104 135 136
f 104 136 110
f 105 107 137
f 105 137 135
f 107 109 138
f 107 138 139
f 107 139 140
f 107 140 137
f 110 136 141
f 110 141 111
f 111 141 112
f 112 141 142
f 112 142 143
f 112 143 144
f 112 144 145
f 112 145 113
f 113 145 146
f 113 146 147
f 113 147 114
f 114 147 148
f 114 148 115
f 115 148 149
f 115 149 117
f 115 117 116
f 117 149 150
f 117 150 118
f 118 150 151
f 118 151 152
f 118 152 153
f 118 153 119
f 119 153 120
f 120 153 121
f 121 153 122
f 122 153 154
f 122 154 155
f 122 155 156
f 122 156 157
f 122 157 158
f 122 158 123
f 123 125 124
f 123 158 159
f 123 159 125
f 125 159 126
f 126 159 160
f 126 160 161
f 126 161 162
f 126 162 130
f 126 129 127
f 132 163 133
f 135 137 164
f 135 164 165
f 135 165 136
f 136 166 141
f 136 165 166
f 137 140 164
f 141 166 167
f 141 167 142
f 142 167 168
f 142 168 143
f 143 168 169
f 143 169 170
f 143 170 144
f 144 170 171
f 144 171 172
f 144 172 145
f 145 172 173
f 145 173 146
f 146 173 174
f 146 174 147
f 147 174 175
f 147 175 148
f 148 175 176
f 148 176 149
f 149 176 177
f 149 177 150
f 150 177 151
f 152 178 153
f 153 178 155
f 153 155 154
f 157 179 159
f 157 159 158
f 159 179 180
f 159 180 181
f 159 181 160
f 160 181 161
f 179 181 180

