# https://github.com/mikedh/trimesh
v -4.05116677 -1.28695241 6.46417898
v -4.05498482 -1.11765967 6.46417898
v -3.24846465 -1.28695241 6.46417898
v -2.63729066 -1.28695241 10.55315498
v -2.64238117 -1.15118621 10.55315498
v -4.04703094 -1.04297169 6.46417898
v -0.80472370 1.29592351 6.46417898
v -3.20201383 -1.28695241 6.58585569
v -1.86990331 -1.28695241 10.55315498
v -2.55297982 -0.69110837 10.55315498
v -4.00885246 -0.69077645 6.46417898
v -0.80472370 2.10421330 6.46417898
v -0.80472370 0.79368837 7.79501739
v -2.17183140 -1.28695241 9.33198568
v -2.22241787 -1.28695241 9.18909563
v -0.80472370 -0.10588666 10.55315498
v -1.94912364 -1.28695241 10.09966927
v -2.39517555 -0.31468105 10.55315498
v -3.73714881 0.16597753 6.46417898
v -3.89336268 -0.23202636 6.46417898
v -3.70374272 -0.41094553 7.15621484
v -1.15182972 2.07832150 6.46417898
v -0.80472370 0.68414606 10.55315498
v -0.80472370 0.27319625 9.17668781
v -2.06938583 -1.28695241 9.63697780
v -0.80472370 -0.03285844 10.22134598
v -2.03311620 -1.28695241 9.76986151
v -0.80472370 0.11817724 9.63137426
v -0.80472370 0.04083372 9.92275783
v -2.39263029 -0.30870599 10.55315498
v -3.68179011 0.28746996 6.46417898
v -1.20496145 2.06736715 6.46417898
v -1.31058859 1.83168519 7.07856620
v -1.15151152 0.63767354 10.55315498
v -2.24437048 -0.07899900 10.55315498
v -3.62993101 0.34821617 6.52381660
v -3.53703006 0.52647147 6.46417898
v -1.64974081 1.96413179 6.46417898
v -1.52725149 1.88877996 6.77157283
v -1.49448163 0.52215617 10.55315498
v -1.83426991 1.83898808 6.63668769
v -2.01848124 0.15834277 10.55315498
v -3.20487720 0.89725574 6.60386705
v -3.38367991 0.74721593 6.46417898
v -3.43744803 0.67717518 6.46417898
v -1.66246674 1.95981649 6.46417898
v -1.49989025 0.51983251 10.55315498
v -2.09579255 1.79649876 6.46417898
v -2.10915505 1.79085576 6.46417898
v -2.01402696 0.16265807 10.55315498
v -2.74641748 0.90522249 7.53685486
v -2.82372896 0.97825067 7.22946101
v -3.03943734 1.13194193 6.46417898
v -1.72991549 0.39269699 10.55315498
v -2.33122658 1.40115052 7.15141190
v -2.11647253 1.78687230 6.46417898
v -2.00957285 0.16630948 10.55315498
v -2.72923709 1.35534193 6.58665629
v -2.96848900 1.19899509 6.46417898
v -3.00730371 1.16414076 6.46417898
v -2.54598045 1.53857627 6.46417898
v -2.60006669 1.49973857 6.46417898
f 1 2 6
f 1 6 11
f 1 11 20
f 1 20 19
f 1 19 31
f 1 31 37
f 1 37 45
f 1 45 44
f 1 44 53
f 1 53 60
f 1 60 59
f 1 59 62
f 1 62 61
f 1 61 56
f 1 56 49
f 1 49 48
f 1 48 46
f 1 46 38
f 1 38 32
f 1 32 22
f 1 22 12
f 1 12 7
f 1 7 3
f 1 3 8
f 1 8 15
f 1 15 14
f 1 14 25
f 1 25 27
f 1 27 17
f 1 17 9
f 1 9 4
f 1 4 5
f 1 5 2
f 2 5 6
f 3 7 8
f 4 9 16
f 4 16 23
f 4 23 34
f 4 34 40
f 4 40 47
f 4 47 54
f 4 54 57
f 4 57 50
f 4 50 42
f 4 42 35
f 4 35 30
f 4 30 18
f 4 18 10
f 4 10 5
f 5 10 11
f 5 11 6
f 7 12 23
f 7 23 16
f 7 16 26
f 7 26 29
f 7 29 28
f 7 28 24
f 7 24 13
f 7 13 14
f 7 14 15
f 7 15 8
f 9 17 16
f 10 18 19
f 10 19 20
f 10 20 21
f 10 21 11
f 11 21 20
f 12 22 23
f 13 24 14
f 14 24 25
f 16 17 26
f 17 27 28
f 17 28 29
f 17 29 26
f 18 30 19
f 19 30 31
f 22 32 33
f 22 33 34
f 22 34 23
f 24 28 25
f 25 28 27
f 30 35 36
f 30 36 31
f 31 36 37
f 32 38 39
f 32 39 33
f 33 39 34
f 34 39 38
f 34 38 41
f 34 41 40
f 35 42 43
f 35 43 44
f 35 44 45
f 35 45 37
f 35 37 36
f 38 46 41
f 40 41 48
f 40 48 49
f 40 49 47
f 41 46 48
f 42 50 51
f 42 51 52
f 42 52 43
f 43 52 53
f 43 53 44
f 47 49 55
f 47 55 54
f 49 56 55
f 50 57 58
f 50 58 51
f 51 58 52
f 52 58 59
f 52 59 60
f 52 60 53
f 54 55 61
f 54 61 58
f 54 58 57
f 55 56 61
f 58 61 62
f 58 62 59

