# https://github.com/mikedh/trimesh
v 10.23155997 -1.15150140 20.62478185
v 10.17635776 -0.85675919 20.53988833
v 9.91174389 -0.69855458 20.66639543
v 9.90248393 -1.15150140 20.80122359
v 9.90248393 -1.61201446 20.75295263
v 10.20021939 -1.61201446 20.56652205
v 10.20484938 -1.60376031 20.27189565
v 10.22977963 -1.14359111 20.21862958
v 10.17635776 -0.85675919 20.36344660
v 9.76430098 -0.31817558 20.59149074
v 9.78388884 -0.28997394 20.23028209
v 9.61578945 -0.05988934 20.23028209
v 9.48152339 -0.19092407 20.68304029
v 8.52065102 0.23003792 20.71133769
v 7.13917432 -2.07252751 20.75295263
v 7.60002230 -2.53304056 20.74629385
v 8.98114348 -2.53304056 20.74296515
v 9.42703427 -2.52581814 20.63143926
v 9.88574571 -2.02816142 20.60147684
v 9.72120769 -2.36761357 20.54488205
v 10.13468929 -1.84519423 20.46498364
v 10.13468929 -1.84519423 20.45499616
v 10.02179211 -1.61201446 3.79613370
v 10.03568137 -1.15150140 3.79613370
v 9.93524932 -0.69098827 3.79613370
v 9.81985940 -0.43854869 3.79613370
v 9.76608132 -0.32127093 3.79613370
v 9.35473695 0.09865925 20.59481943
v 9.38536512 0.12135816 20.23028209
v 9.58622990 -0.09084239 3.79613370
v 9.35580557 0.10209845 3.79613370
v 8.94481672 0.24345087 20.62977559
v 8.52065102 0.48488497 20.51492100
v 8.14064723 0.48798015 20.52157841
v 8.01635354 0.27577959 20.65640794
v 7.60002230 0.17294659 20.65474292
v 7.12314783 -0.21878178 20.66805909
v 6.72996650 -1.15150140 20.67971160
v 6.73851405 -1.61201446 20.67804657
v 6.82078238 -2.07252751 20.59814814
v 7.17122731 -2.50483891 20.58982569
v 8.06051476 -2.91032425 20.67138916
v 8.52065102 -2.91479535 20.67471786
v 7.60002230 -2.83844439 20.58483195
v 8.98114348 -2.85701614 20.61146432
v 9.26392039 -2.79751750 20.52324344
v 9.26392039 -2.79751750 20.31517426
v 9.70090742 -2.33975578 3.79613370
v 9.85654168 -2.07252751 3.79613370
v 9.96943885 -1.75818182 3.79613370
v 8.76710185 0.46562518 20.47330745
v 8.76710185 0.46562518 20.43668625
v 8.98114348 0.28953656 3.79613370
v 8.52065102 0.48488497 20.33847791
v 7.26631696 0.07802388 20.57983823
v 8.14064723 0.48798015 20.32183166
v 7.60002230 0.29297576 20.23028209
v 6.84678125 -0.36460521 20.56319334
v 6.78160734 -0.69098827 20.64642048
v 6.59320769 -1.15150140 20.23028209
v 6.61137072 -1.61201446 20.23028209
v 6.88773799 -2.33287738 20.50160483
v 7.34609322 -2.77894558 20.49161736
v 8.06051476 -3.01625243 20.23028209
v 8.52065102 -3.02519463 20.23028209
v 9.02494918 -2.87524404 20.18866853
v 8.98114348 -2.86527029 3.79613370
v 9.05664596 -2.83431732 3.79613370
v 9.21833434 -2.76794011 3.79613370
v 9.44875868 -2.57018423 3.79613370
v 8.83690573 0.33046345 3.79613370
v 8.52741755 0.41781989 3.79613370
v 8.29770562 0.46149810 3.79613370
v 7.24993426 0.09109289 20.23028209
v 7.01986613 -0.12764221 20.23028209
v 8.28524118 0.46149810 3.79613370
v 8.12818210 0.42813766 3.79613370
v 8.05517306 0.41231706 3.79613370
v 7.91022289 0.36141642 3.79613370
v 7.60002230 0.25204887 3.79613370
v 7.49780991 0.19426983 3.79613370
v 7.27913829 0.06976965 3.79613370
v 6.84215126 -0.35807066 20.23028209
v 6.69969454 -0.69098827 20.23028209
v 6.62810963 -1.15150140 3.79613370
v 6.79656522 -2.10348048 20.22528836
v 6.64128716 -1.46550324 3.79613370
v 6.64769749 -1.61201446 3.79613370
v 6.75240331 -1.90538092 3.79613370
v 6.80119520 -2.04191839 3.79613370
v 6.88773799 -2.33287738 20.37509774
v 7.34609322 -2.77894558 20.39840139
v 7.57722928 -2.85667229 20.23860453
v 7.64810178 -2.85116947 3.79613370
v 8.06051476 -2.98461159 3.79613370
v 8.20688975 -2.98770694 3.79613370
v 8.52065102 -2.99424149 3.79613370
v 7.04871396 -0.16169061 3.79613370
v 6.86352015 -0.39211907 3.79613370
v 6.73637682 -0.69098827 3.79613370
v 6.84179506 -2.11517400 3.79613370
v 6.92905026 -2.27234684 3.79613370
v 7.15947459 -2.50552679 3.79613370
v 7.24174291 -2.57878240 3.79613370
v 7.41803365 -2.73561139 3.79613370
v 7.57509273 -2.81471367 3.79613370
f 1 2 3
f 1 3 4
f 1 4 5
f 1 5 6
f 1 6 7
f 1 7 8
f 1 8 9
f 1 9 2
f 2 10 3
f 2 9 11
f 2 11 12
f 2 12 10
f 3 13 4
f 3 10 13
f 4 13 14
f 4 14 15
f 4 15 16
f 4 16 17
f 4 17 5
f 5 17 18
f 5 18 19
f 5 19 6
f 6 19 20
f 6 20 21
f 6 21 7
f 7 21 22
f 7 22 23
f 7 23 8
f 8 23 24
f 8 24 9
f 9 24 25
f 9 25 26
f 9 26 27
f 9 27 11
f 10 28 13
f 10 12 28
f 11 27 12
f 12 29 28
f 12 27 30
f 12 30 31
f 12 31 29
f 13 28 32
f 13 32 14
f 14 32 33
f 14 33 34
f 14 34 35
f 14 35 36
f 14 36 37
f 14 37 15
f 15 38 39
f 15 39 40
f 15 40 41
f 15 41 16
f 15 37 38
f 16 42 43
f 16 43 17
f 16 41 44
f 16 44 42
f 17 43 45
f 17 45 18
f 18 45 46
f 18 46 20
f 18 20 19
f 20 22 21
f 20 46 47
f 20 47 48
f 20 48 22
f 22 48 49
f 22 49 50
f 22 50 23
f 23 50 49
f 23 49 48
f 23 48 70
f 23 70 69
f 23 69 68
f 23 68 67
f 23 67 97
f 23 97 96
f 23 96 95
f 23 95 94
f 23 94 106
f 23 106 105
f 23 105 104
f 23 104 103
f 23 103 102
f 23 102 101
f 23 101 90
f 23 90 89
f 23 89 88
f 23 88 87
f 23 87 85
f 23 85 100
f 23 100 99
f 23 99 98
f 23 98 82
f 23 82 81
f 23 81 80
f 23 80 79
f 23 79 78
f 23 78 77
f 23 77 76
f 23 76 73
f 23 73 72
f 23 72 71
f 23 71 53
f 23 53 31
f 23 31 30
f 23 30 27
f 23 27 26
f 23 26 25
f 23 25 24
f 28 29 51
f 28 51 32
f 29 52 51
f 29 31 52
f 31 53 52
f 32 51 33
f 33 51 52
f 33 52 54
f 33 54 56
f 33 56 34
f 34 55 36
f 34 36 35
f 34 56 57
f 34 57 55
f 36 55 37
f 37 55 58
f 37 58 59
f 37 59 38
f 38 59 60
f 38 60 39
f 39 60 61
f 39 61 40
f 40 62 41
f 40 61 62
f 41 62 63
f 41 63 44
f 42 44 64
f 42 64 65
f 42 65 43
f 43 65 45
f 44 63 64
f 45 65 46
f 46 65 66
f 46 66 47
f 47 66 67
f 47 67 68
f 47 68 69
f 47 69 70
f 47 70 48
f 52 53 71
f 52 71 72
f 52 72 73
f 52 73 54
f 54 73 56
f 55 57 74
f 55 74 75
f 55 75 58
f 56 73 76
f 56 76 77
f 56 77 78
f 56 78 79
f 56 79 80
f 56 80 57
f 57 80 81
f 57 81 82
f 57 82 74
f 58 75 83
f 58 83 84
f 58 84 59
f 59 84 60
f 60 84 85
f 60 85 61
f 61 86 62
f 61 85 87
f 61 87 88
f 61 88 89
f 61 89 90
f 61 90 86
f 62 86 91
f 62 91 92
f 62 92 63
f 63 92 93
f 63 93 64
f 64 93 94
f 64 94 95
f 64 95 96
f 64 96 97
f 64 97 65
f 65 97 67
f 65 67 66
f 74 82 75
f 75 82 98
f 75 98 99
f 75 99 83
f 83 99 84
f 84 99 100
f 84 100 85
f 86 90 91
f 90 101 91
f 91 101 102
f 91 102 103
f 91 103 92
f 92 103 104
f 92 104 105
f 92 105 106
f 92 106 94
f 92 94 93

