# https://github.com/mikedh/trimesh
v -0.72251269 -3.27086064 10.55363387
v -1.00113352 -3.24443247 10.55363387
v -0.35024117 -3.24948454 10.55363387
v -0.37200234 -3.24248878 14.99400143
v -0.69064814 -3.24948454 15.01795160
v -0.98675559 -3.23976817 14.98585846
v -1.17172549 -3.20401243 10.55363387
v -0.34441228 -3.24870762 10.55363387
v 0.22992735 -3.01434958 14.70372500
v 0.53652676 -2.82507554 15.08261727
v 0.27189531 -2.91718618 15.20715804
v -0.22317146 -3.10995845 15.15446780
v -0.69064814 -3.10490569 15.24835260
v -0.11358840 -3.19818275 10.55363387
v -1.14452408 -3.10140815 15.14919884
v -1.63337321 -2.90164012 15.18799811
v -1.89722765 -2.81030675 15.05004474
v -1.61200072 -2.97937077 14.70372500
v -1.19853843 -3.19546213 10.55363387
v 0.54157841 -2.82896206 14.70372500
v 0.23031589 -3.05632416 10.55363387
v 0.77201373 -2.60432057 14.70372500
v 0.97019582 -2.37384939 15.06633101
v 0.71372483 -2.56428934 15.22775549
v 0.45297938 -2.75511809 15.38965869
v 0.14599132 -2.81924585 15.42558395
v -0.23055469 -2.86199770 15.43755904
v -0.69064814 -2.87482315 15.43420632
v -1.15113009 -2.85772237 15.43803810
v -1.49425720 -2.81613661 15.42606301
v -1.80124525 -2.71936201 15.35708650
v -2.06859689 -2.53358585 15.18895588
v -2.33322826 -2.34742105 15.02082561
v -2.15058982 -2.59460437 10.55363387
v -1.92015451 -2.82973950 10.55363387
v -1.61200072 -3.02134535 10.55363387
v 0.56450535 -2.85500193 10.55363387
v 0.56994563 -2.85150405 10.55363387
v 0.79960385 -2.63385833 10.55363387
v 1.12368993 -2.07264333 14.70372500
v 1.04908019 -2.10256972 15.19757825
v 0.89092298 -2.27590889 15.37337277
v 0.99117985 -2.40416442 10.55363387
v 0.99428858 -2.39872319 10.55363387
v 1.16410345 -2.07225469 10.55363387
v 0.96825282 -1.96887297 15.42558395
v 0.58354638 -2.44808216 15.42175217
v 0.99817458 -1.61170080 15.43995433
v -0.69064814 0.23012595 15.44618140
v -2.37169894 -1.15153563 15.44139116
v -2.36548148 -1.61170080 15.43803810
v -2.08064318 -2.07847301 15.43564315
v -1.93297807 -2.41232608 15.42318900
v -2.23996613 -2.23587766 15.32834608
v -2.33789135 -1.92884174 15.42079405
v -2.39967753 -2.07847301 15.17027466
v -2.58697906 -1.61170080 14.70372500
v -2.41871856 -2.11656124 14.66205138
v -2.48788810 -2.07186606 10.55363387
v -2.48555647 -2.07691848 10.55363387
v -2.34488609 -2.36452165 10.55363387
v 1.26630331 -1.61170080 14.70372500
v 1.19285930 -1.61170080 15.16404758
v 1.31254583 -1.57050367 10.55363387
v 1.00089468 -1.15153563 15.43995433
v 1.20607150 -1.15153563 15.16404758
v -0.69064814 0.49946245 15.42702113
v -1.61200072 0.11197534 15.43276914
v -1.62326992 -0.21993430 15.43947527
v 0.24780255 -0.21410453 15.44091210
v 0.67797433 -0.25335849 15.43707998
v 0.22992735 0.13723778 15.43516409
v -2.05149886 -0.27045917 15.42750019
v -2.34022299 -0.69098179 15.42175217
v -2.54423391 -1.15153563 15.16404758
v -2.52907889 -1.61170080 15.16404758
v -2.60679736 -1.15153563 14.70372500
v -2.62467265 -1.61170080 10.55363387
v -2.62350675 -1.61636459 10.55363387
v 1.28767580 -1.15153563 14.70372500
v 1.32731222 -1.19195558 10.55363387
v 0.97680192 -0.69098179 15.43133197
v 1.13651349 -0.69098179 15.16404758
v -0.33042297 0.48741427 15.41696193
v -0.69064814 0.62266539 15.16404758
v -1.02328328 0.48547092 15.41552510
v -1.88440392 0.03968591 15.41983594
v 0.94416023 -0.42203388 15.41312981
v 0.51593129 0.05017956 15.42414678
v -2.30874704 -0.45040556 15.39971789
v -2.46729271 -0.69098179 15.16404758
v -2.51470096 -0.69098179 14.70372500
v -2.55278301 -0.69137047 10.55363387
v -2.64254777 -1.15153563 10.55363387
v 1.19557940 -0.69098179 14.70372500
v 1.23094136 -0.69098179 10.55363387
v 1.00011741 -0.33070042 15.16404758
v -0.02304636 0.43999847 15.38247350
v -0.19830156 0.55698308 15.20284720
v -0.69064814 0.66425132 14.70372500
v -1.15113009 0.60012356 14.70372500
v -1.16667384 0.54921005 15.19087211
v -0.23055469 0.61683570 14.70372500
v -1.33027125 0.41667938 15.36187674
v -1.61588655 0.34089207 15.19087211
v -1.96212256 0.11352997 15.16404758
v -2.19255788 -0.14414699 15.16404758
v 0.83535427 -0.10061779 15.16404758
v 0.60530759 0.13140801 15.16404758
v 0.24780255 0.36926375 15.20284720
v -2.35382365 -0.37422953 15.16404758
v -2.37286468 -0.34236005 14.70372500
v -2.39501443 -0.31515427 10.55363387
v 1.02110143 -0.29688760 14.70372500
v 1.22860989 -0.68554065 10.55363387
v 0.86838459 -0.06641634 14.70372500
v 0.10635491 0.51073336 15.07543209
v -0.69064814 0.69961877 10.55363387
v -1.14607845 0.63821162 10.55363387
v -0.23055469 0.65414632 10.55363387
v -1.46472425 0.50218306 15.05483498
v -1.15113009 0.63743435 10.55363387
v -1.69088493 0.37081829 14.70372500
v -1.99087842 0.14073566 14.70372500
v -2.22092510 -0.11227742 14.70372500
v 0.63794936 0.16211167 14.70372500
v 0.34067614 0.39258284 14.70372500
v -2.24385196 -0.07924196 10.55363387
v -2.39229434 -0.30932450 10.55363387
v 1.01566124 -0.22110029 10.55363387
v 0.89403171 -0.03493549 10.55363387
v 0.37914682 0.41823391 10.55363387
v 0.11024082 0.51267670 14.70372500
v 0.15182024 0.53249792 10.55363387
v -1.49969757 0.52006110 10.55363387
v -1.72935578 0.39219421 10.55363387
v -2.00914218 0.16599818 10.55363387
v -2.01380527 0.16211167 10.55363387
v -2.01807974 0.15783635 10.55363387
v 0.70711882 0.14889741 10.55363387
v 0.38186692 0.41667938 10.55363387
f 1 2 7
f 1 7 19
f 1 19 36
f 1 36 35
f 1 35 34
f 1 34 61
f 1 61 60
f 1 60 59
f 1 59 79
f 1 79 78
f 1 78 94
f 1 94 93
f 1 93 113
f 1 113 129
f 1 129 128
f 1 128 139
f 1 139 138
f 1 138 137
f 1 137 136
f 1 136 135
f 1 135 122
f 1 122 119
f 1 119 118
f 1 118 120
f 1 120 134
f 1 134 132
f 1 132 141
f 1 141 140
f 1 140 131
f 1 131 130
f 1 130 115
f 1 115 96
f 1 96 81
f 1 81 64
f 1 64 45
f 1 45 44
f 1 44 43
f 1 43 39
f 1 39 38
f 1 38 37
f 1 37 21
f 1 21 14
f 1 14 8
f 1 8 3
f 1 3 4
f 1 4 5
f 1 5 6
f 1 6 2
f 2 6 7
f 3 8 4
f 4 9 10
f 4 10 11
f 4 11 12
f 4 12 13
f 4 13 5
f 4 8 14
f 4 14 9
f 5 13 6
f 6 13 15
f 6 15 16
f 6 16 17
f 6 17 18
f 6 18 19
f 6 19 7
f 9 20 10
f 9 14 21
f 9 21 20
f 10 20 22
f 10 22 23
f 10 23 24
f 10 24 25
f 10 25 11
f 11 25 12
f 12 25 26
f 12 26 13
f 13 26 27
f 13 27 28
f 13 28 29
f 13 29 30
f 13 30 15
f 15 30 16
f 16 30 31
f 16 31 17
f 17 31 32
f 17 32 33
f 17 33 34
f 17 34 35
f 17 35 36
f 17 36 18
f 18 36 19
f 20 21 37
f 20 37 38
f 20 38 39
f 20 39 22
f 22 39 23
f 23 40 41
f 23 41 42
f 23 42 24
f 23 39 43
f 23 43 44
f 23 44 45
f 23 45 40
f 24 42 25
f 25 42 46
f 25 46 47
f 25 47 26
f 26 47 46
f 26 46 48
f 26 48 27
f 27 48 49
f 27 49 29
f 27 29 28
f 29 49 50
f 29 50 51
f 29 51 52
f 29 52 30
f 30 52 53
f 30 53 31
f 31 54 32
f 31 53 55
f 31 55 54
f 32 54 33
f 33 54 56
f 33 56 57
f 33 57 58
f 33 58 59
f 33 59 60
f 33 60 61
f 33 61 34
f 40 62 41
f 40 45 62
f 41 63 46
f 41 46 42
f 41 62 63
f 45 64 62
f 46 63 48
f 48 65 49
f 48 63 66
f 48 66 65
f 49 67 68
f 49 68 69
f 49 69 50
f 49 65 70
f 49 70 71
f 49 71 72
f 49 72 67
f 50 69 68
f 50 68 73
f 50 73 74
f 50 74 75
f 50 75 51
f 51 75 76
f 51 76 55
f 51 55 52
f 52 55 53
f 54 55 56
f 55 76 56
f 56 76 57
f 57 76 77
f 57 77 78
f 57 78 79
f 57 79 59
f 57 59 58
f 62 80 63
f 62 64 80
f 63 80 66
f 64 81 80
f 65 82 71
f 65 71 70
f 65 66 82
f 66 80 83
f 66 83 82
f 67 84 85
f 67 85 86
f 67 86 68
f 67 72 84
f 68 86 87
f 68 87 73
f 71 82 88
f 71 88 89
f 71 89 72
f 72 89 84
f 73 87 90
f 73 90 74
f 74 90 91
f 74 91 75
f 75 91 77
f 75 77 76
f 77 91 92
f 77 92 93
f 77 93 94
f 77 94 78
f 80 95 83
f 80 81 96
f 80 96 95
f 82 83 88
f 83 95 97
f 83 97 88
f 84 89 98
f 84 98 99
f 84 99 85
f 85 100 101
f 85 101 102
f 85 102 86
f 85 99 103
f 85 103 100
f 86 102 104
f 86 104 87
f 87 104 105
f 87 105 106
f 87 106 107
f 87 107 90
f 88 97 108
f 88 108 89
f 89 108 109
f 89 109 110
f 89 110 98
f 90 107 111
f 90 111 91
f 91 111 92
f 92 111 112
f 92 112 93
f 93 112 113
f 95 114 97
f 95 96 115
f 95 115 114
f 97 114 116
f 97 116 108
f 98 110 117
f 98 117 99
f 99 117 103
f 100 118 119
f 100 119 101
f 100 103 120
f 100 120 118
f 101 121 102
f 101 119 122
f 101 122 121
f 102 121 104
f 103 117 120
f 104 121 105
f 105 121 106
f 106 121 123
f 106 123 124
f 106 124 125
f 106 125 107
f 107 125 111
f 108 116 109
f 109 116 126
f 109 126 127
f 109 127 117
f 109 117 110
f 111 125 112
f 112 125 128
f 112 128 129
f 112 129 113
f 114 115 130
f 114 130 131
f 114 131 116
f 116 131 126
f 117 127 132
f 117 132 133
f 117 133 120
f 120 133 134
f 121 122 135
f 121 135 136
f 121 136 123
f 123 136 124
f 124 136 137
f 124 137 138
f 124 138 139
f 124 139 128
f 124 128 125
f 126 131 140
f 126 140 141
f 126 141 127
f 127 141 132
f 132 134 133

