# https://github.com/mikedh/trimesh
v -3.41404947 0.00025992 0.38766503
v -2.96504665 0.00025992 0.38766503
v -3.41687826 0.00025992 0.40132737
v -3.41404947 0.04424127 0.38766503
v -2.62629075 1.32566745 0.38766503
v -3.02068090 0.00025992 7.98062883
v -3.41687826 0.04463048 0.40132737
v -3.42465765 0.00025992 0.49088837
v -3.40273409 0.13389048 0.38766503
v -3.10963279 1.32566745 0.38766503
v -2.68718977 1.32566745 7.98062883
v -3.02240970 0.00025992 8.07019037
v -3.40532714 0.13389048 0.40132737
v -3.39008272 0.23223219 0.38766503
v -3.42465765 0.04463048 0.49088837
v -3.39086857 0.28490598 0.43320508
v -3.42473633 0.00025992 0.57969036
v -3.13147796 1.27338287 0.38766503
v -3.11269730 1.32566745 0.40132737
v -2.68789696 1.32566745 8.01478360
v -2.68907562 1.32566745 8.07019037
v -3.02523848 0.00025992 8.10889872
v -3.35841521 0.49054135 0.40132737
v -3.32321175 0.75793217 0.40132737
v -3.38379637 0.27997591 0.38766503
v -3.42473633 0.04463048 0.57969036
v -3.41310654 0.13389048 0.49088837
v -3.40139810 0.22302075 0.49088837
v -3.38623234 0.33835819 0.49088837
v -3.36619463 0.49054135 0.49088837
v -3.34269933 0.66880189 0.49088837
v -3.33091248 0.75793217 0.49088837
v -3.42489339 0.00025992 0.75805389
v -3.20031344 1.10796638 0.38766503
v -3.11442607 1.32151584 0.40132737
v -3.29987351 0.89273039 0.44383081
v -3.12102684 1.32566745 0.49088837
v -2.69559770 1.32566745 8.14153546
v -3.02767445 0.00025992 8.14153546
v -3.30553134 0.83564547 0.38766503
v -3.32038270 0.75793217 0.38766503
v -3.30686707 0.84563536 0.40891702
v -3.41318522 0.13389048 0.57969036
v -3.42489339 0.04463048 0.75805389
v -3.40147676 0.22302075 0.57969036
v -3.38631101 0.33900688 0.66925137
v -3.36627329 0.49054135 0.57969036
v -3.34277800 0.66880189 0.57969036
v -3.33099115 0.75793217 0.57969036
v -3.31291769 0.84706250 0.49088837
v -3.42497206 0.00025992 0.89239539
v -3.22883776 1.03907534 0.38766503
v -3.27881420 0.92801924 0.40891702
v -3.29468742 0.87547521 0.38766503
v -3.30010924 0.89324936 0.49088837
v -3.28164324 0.93787937 0.49088837
v -3.12110550 1.32566745 0.57969036
v -3.20023479 1.13495207 0.66925137
v -3.13721418 1.28726486 0.75805389
v -3.12566307 1.32566745 8.14153546
v -3.42905816 0.00025992 8.14153546
v -3.29618047 0.87015590 0.38766503
v -3.41334227 0.13389048 0.75805389
v -3.41342095 0.13389048 0.84761489
v -3.42897950 0.04463048 8.14153546
v -3.41750704 0.13389048 8.14153546
v -3.40163383 0.22302075 0.75805389
v -3.36643036 0.49054135 0.75805389
v -3.34293506 0.66880189 0.75805389
v -3.31299635 0.84706250 0.57969036
v -3.33114821 0.75793217 0.75805389
v -3.30026658 0.89363857 0.75805389
v -3.27331371 0.92983560 0.38766503
v -3.29209411 0.88209184 0.38766503
v -3.12126257 1.32566745 0.75805389
v -3.30246682 0.89895788 8.14153546
v -3.13666404 1.29920080 8.14153546
v -3.12134123 1.32566745 0.84761489
v -3.37821721 0.40141108 0.84761489
v -3.40815619 0.20498711 8.14153546
v -3.35880828 0.57967162 8.14153546
v -3.33122689 0.75793217 0.84761489
v -3.33531298 0.75793217 8.14153546
v -3.31315342 0.84706250 0.75805389
v -3.31323209 0.84706250 0.84761489
v -3.31739685 0.84706250 8.14153546
v -3.32109016 0.82915859 8.14153546
f 1 2 6
f 1 6 12
f 1 12 22
f 1 22 39
f 1 39 61
f 1 61 51
f 1 51 33
f 1 33 17
f 1 17 8
f 1 8 3
f 1 3 7
f 1 7 4
f 1 4 9
f 1 9 14
f 1 14 25
f 1 25 41
f 1 41 40
f 1 40 62
f 1 62 54
f 1 54 74
f 1 74 73
f 1 73 52
f 1 52 34
f 1 34 18
f 1 18 10
f 1 10 5
f 1 5 2
f 2 5 6
f 3 8 15
f 3 15 7
f 4 7 9
f 5 10 19
f 5 19 37
f 5 37 57
f 5 57 75
f 5 75 78
f 5 78 60
f 5 60 38
f 5 38 21
f 5 21 20
f 5 20 11
f 5 11 6
f 6 11 12
f 7 13 14
f 7 14 9
f 7 15 16
f 7 16 13
f 8 17 26
f 8 26 15
f 10 18 19
f 11 20 12
f 12 20 21
f 12 21 22
f 13 16 14
f 14 16 23
f 14 23 24
f 14 24 25
f 15 26 43
f 15 43 27
f 15 27 16
f 16 27 28
f 16 28 29
f 16 29 30
f 16 30 31
f 16 31 32
f 16 32 24
f 16 24 23
f 17 33 44
f 17 44 26
f 18 34 35
f 18 35 19
f 19 35 36
f 19 36 37
f 21 38 39
f 21 39 22
f 24 40 41
f 24 41 25
f 24 32 42
f 24 42 40
f 26 44 63
f 26 63 43
f 27 43 45
f 27 45 28
f 28 45 46
f 28 46 29
f 29 46 30
f 30 46 47
f 30 47 48
f 30 48 31
f 31 48 49
f 31 49 32
f 32 49 70
f 32 70 50
f 32 50 42
f 33 51 44
f 34 52 53
f 34 53 35
f 35 53 36
f 36 53 54
f 36 54 42
f 36 42 50
f 36 50 55
f 36 55 56
f 36 56 37
f 37 56 58
f 37 58 59
f 37 59 57
f 38 60 77
f 38 77 76
f 38 76 86
f 38 86 87
f 38 87 83
f 38 83 81
f 38 81 80
f 38 80 66
f 38 66 65
f 38 65 61
f 38 61 39
f 40 42 62
f 42 54 62
f 43 63 67
f 43 67 45
f 44 64 63
f 44 51 61
f 44 61 65
f 44 65 66
f 44 66 64
f 45 67 46
f 46 67 68
f 46 68 47
f 47 68 69
f 47 69 48
f 48 69 71
f 48 71 49
f 49 71 84
f 49 84 70
f 50 70 72
f 50 72 55
f 52 73 53
f 53 73 74
f 53 74 54
f 55 72 56
f 56 72 58
f 57 59 75
f 58 72 59
f 59 72 76
f 59 76 77
f 59 77 78
f 59 78 75
f 60 78 77
f 63 64 67
f 64 79 68
f 64 68 67
f 64 66 80
f 64 80 79
f 68 79 80
f 68 80 81
f 68 81 83
f 68 83 69
f 69 82 71
f 69 83 82
f 70 84 72
f 71 82 85
f 71 85 84
f 72 84 85
f 72 85 86
f 72 86 76
f 82 83 87
f 82 87 85
f 85 87 86

