# https://github.com/mikedh/trimesh
v 1.07287997 -2.94005936 8.96212971
v 1.02547306 -2.98730216 8.95961081
v 1.07287997 -2.99092982 8.95037502
v 1.07287997 -2.89825753 8.96129043
v 0.93625755 -2.98730216 8.96464861
v 0.75794571 -3.07651980 8.96296952
v 0.84716123 -3.07651980 8.95457301
v 1.02547306 -3.05587800 8.93526109
v 1.07287997 -3.02504473 8.93861980
v -0.14397658 -3.16565080 8.96129043
v 0.04469814 -3.16565080 8.96464861
v 1.07287997 -2.85161908 8.94701631
v 0.13379453 -3.16565080 8.96548842
v 0.66873020 -3.07651980 8.96380880
v 0.31222553 -3.16565080 8.96380880
v 0.40132191 -3.16565080 8.96045062
v 0.49041830 -3.16565080 8.95625263
v 0.57963381 -3.16565080 8.95121430
v 0.75794571 -3.15571871 8.93945961
v 0.84716123 -3.13740872 8.93106257
v 1.07287997 -3.04603202 8.92854420
v -0.14397658 -3.25486844 8.95289339
v -0.14397658 -3.09681610 8.93694018
v 1.07287997 -2.81897224 8.93526109
v -0.13373288 -3.25486844 8.95289339
v 0.31222553 -3.23828590 8.93945961
v 0.49041830 -3.22653972 8.93274219
v 0.67647254 -3.17428756 8.93945961
v 0.65181619 -3.21522566 8.92266659
v 0.71125345 -3.20978444 8.91678898
v 0.90302511 -3.12574917 8.92182678
v 1.07287997 -3.05967814 8.91594917
v -0.14397658 -3.31117986 8.92854420
v -0.13373288 -3.31126623 8.92854420
v 1.07287997 -2.79124840 8.91594917
v -0.14397658 -3.05225060 8.89579770
v -0.04451737 -3.30634324 8.92434568
v 0.57963381 -3.22066689 8.92770439
v 0.49041830 -3.27110549 8.88404275
v 0.57963381 -3.26523239 8.87648578
v 0.62632602 -3.29969306 8.82862615
v 0.66884933 -3.25521367 8.87228753
v 0.75794571 -3.23906299 8.86137238
v 0.75794571 -3.20037059 8.90671312
v 0.96246243 -3.11348501 8.90839247
v 1.07287997 -3.08930219 8.88488229
v -0.14397658 -3.35574536 8.87816514
v -0.13373288 -3.35583173 8.87816514
v 1.07287997 -2.77803414 8.90335467
v 1.07287997 -2.74124167 8.86221193
v -0.14397658 -3.01917190 8.85633432
v 0.02016090 -3.30211124 8.92014716
v -0.07524849 -3.39029240 8.83030524
v 0.62632602 -3.29969306 8.82610699
v 0.75794571 -3.26048215 8.78328516
v 0.89587834 -3.21194376 8.83030524
v 1.07287997 -3.12980843 8.83870175
v -0.14397658 -3.35997737 8.87312734
v -0.13373288 -3.39279695 8.83366395
v 1.07287997 -2.71438128 8.82694680
v -0.14397658 -3.01485352 8.85045697
v -0.07524849 -3.39029240 8.81855029
v -0.04451737 -3.25884106 0.49093780
v 0.40132191 -3.20019784 0.49093780
v 0.57963381 -3.17670574 0.49093780
v 0.66873020 -3.16167791 0.49093780
v 0.89587834 -3.21194376 8.81938983
v 0.75127540 -3.13680411 0.49093780
v 1.07287997 -3.13222661 8.82442790
v -0.14397658 -3.39271058 8.83366395
v -0.13373288 -3.39279695 8.80259708
v 1.07287997 -2.69443047 8.79252121
v -0.14397658 -2.97780193 8.78328516
v -0.13373288 -3.26782331 0.49093780
v -0.04451737 -3.25106803 0.40193543
v 0.28649716 -3.21272112 0.43132295
v 0.57963381 -3.16893270 0.40193543
v 0.66873020 -3.15355939 0.40193543
v 0.74126990 -3.13265847 0.40193543
v 1.07287997 -3.00362557 0.49093780
v 0.98866725 -3.03514983 0.42880405
v -0.14397658 -3.39271058 8.80343662
v 1.07287997 -2.68372103 8.77069039
v 1.07287997 -2.67188873 8.74550112
v -0.14397658 -2.95327362 8.72115140
v -0.14397658 -3.26747782 0.49093780
v -0.14397658 -3.26661436 0.48086220
v -0.13373288 -3.26005028 0.40193543
v -0.05809622 -3.24959996 0.38766131
v -0.04451737 -3.24821799 0.38766131
v 0.23265817 -3.21228925 0.38766131
v 0.25779097 -3.20900735 0.38766131
v 0.28328110 -3.20563880 0.38766131
v 0.57963381 -3.16599629 0.38766131
v 0.65515132 -3.15304115 0.38766131
v 0.66896846 -3.15053660 0.38766131
v 0.73781564 -3.13119040 0.38766131
v 0.97961463 -3.03143606 0.38766131
v 1.07287997 -2.99516156 0.40109562
v 1.00355635 -3.02150371 0.38766131
v 1.07287997 -2.66800222 8.73542526
v -0.14397658 -2.95033694 8.71359444
v -0.14397658 -3.25970479 0.40193543
v -0.13373288 -3.25720024 0.38766131
v 1.07287997 -2.99395261 0.39521828
v 1.07287997 -2.99222515 0.38766131
v 1.07287997 -2.65470159 8.69428252
v -0.14397658 -2.93746817 8.66909325
v -0.14397658 -3.25685475 0.38766131
v 1.07287997 -2.51064087 0.38766131
v 1.07287997 -2.63552813 8.60611969
v -0.14397658 -2.92667236 8.60528014
v -0.14397658 -2.80549886 0.38766131
v -0.14397658 -2.86327862 7.98058312
v 1.07287997 -2.56997534 7.98058312
v 1.07287997 -2.57895732 8.15942794
v -0.14397658 -2.91691275 8.52635337
v -0.14397658 -2.86345137 7.99065898
v 1.07287997 -2.57109792 8.04187732
v 1.07287997 -2.57161616 8.06958576
v -0.14397658 -2.87200176 8.15942794
v -0.14397658 -2.90464859 8.42643532
v -0.14397658 -2.86491971 8.06958576
v -0.14397658 -2.86569706 8.08050117
f 1 2 3
f 1 3 9
f 1 9 21
f 1 21 32
f 1 32 46
f 1 46 57
f 1 57 69
f 1 69 80
f 1 80 99
f 1 99 105
f 1 105 106
f 1 106 110
f 1 110 115
f 1 115 119
f 1 119 120
f 1 120 116
f 1 116 111
f 1 111 107
f 1 107 101
f 1 101 84
f 1 84 83
f 1 83 72
f 1 72 60
f 1 60 50
f 1 50 49
f 1 49 35
f 1 35 24
f 1 24 12
f 1 12 4
f 1 4 5
f 1 5 2
f 2 5 6
f 2 6 7
f 2 7 8
f 2 8 9
f 2 9 3
f 4 10 11
f 4 11 5
f 4 12 10
f 5 11 13
f 5 13 14
f 5 14 6
f 6 14 13
f 6 13 15
f 6 15 16
f 6 16 17
f 6 17 18
f 6 18 19
f 6 19 7
f 7 19 8
f 8 20 21
f 8 21 9
f 8 19 20
f 10 22 11
f 10 12 23
f 10 23 36
f 10 36 51
f 10 51 61
f 10 61 73
f 10 73 85
f 10 85 102
f 10 102 108
f 10 108 112
f 10 112 117
f 10 117 122
f 10 122 121
f 10 121 124
f 10 124 123
f 10 123 118
f 10 118 114
f 10 114 113
f 10 113 109
f 10 109 103
f 10 103 87
f 10 87 86
f 10 86 82
f 10 82 70
f 10 70 58
f 10 58 47
f 10 47 33
f 10 33 22
f 11 22 13
f 12 24 23
f 13 22 25
f 13 25 15
f 15 25 16
f 16 25 26
f 16 26 17
f 17 26 18
f 18 26 27
f 18 27 28
f 18 28 19
f 19 28 29
f 19 29 30
f 19 30 20
f 20 30 31
f 20 31 21
f 21 31 32
f 22 33 34
f 22 34 25
f 23 24 35
f 23 35 36
f 25 34 26
f 26 34 27
f 27 34 37
f 27 37 38
f 27 38 28
f 28 38 29
f 29 38 39
f 29 39 40
f 29 40 41
f 29 41 42
f 29 42 30
f 30 42 43
f 30 43 44
f 30 44 31
f 31 44 45
f 31 45 32
f 32 45 46
f 33 47 48
f 33 48 34
f 34 48 37
f 35 49 36
f 36 49 50
f 36 50 51
f 37 52 38
f 37 48 53
f 37 53 52
f 38 52 39
f 39 52 53
f 39 53 41
f 39 41 40
f 41 53 62
f 41 62 54
f 41 54 55
f 41 55 56
f 41 56 43
f 41 43 42
f 43 56 44
f 44 46 45
f 44 56 46
f 46 56 57
f 47 58 48
f 48 58 59
f 48 59 53
f 50 60 51
f 51 60 61
f 53 59 71
f 53 71 62
f 54 62 63
f 54 63 64
f 54 64 65
f 54 65 66
f 54 66 55
f 55 67 56
f 55 66 68
f 55 68 67
f 56 67 69
f 56 69 57
f 58 70 59
f 59 70 82
f 59 82 71
f 60 72 61
f 61 72 73
f 62 71 74
f 62 74 63
f 63 74 88
f 63 88 75
f 63 75 76
f 63 76 64
f 64 76 65
f 65 76 77
f 65 77 66
f 66 77 78
f 66 78 79
f 66 79 68
f 67 68 80
f 67 80 69
f 68 79 81
f 68 81 80
f 71 82 74
f 72 83 73
f 73 83 84
f 73 84 85
f 74 86 87
f 74 87 88
f 74 82 86
f 75 88 89
f 75 89 90
f 75 90 91
f 75 91 92
f 75 92 76
f 76 92 77
f 77 92 93
f 77 93 94
f 77 94 95
f 77 95 78
f 78 95 96
f 78 96 97
f 78 97 79
f 79 98 81
f 79 97 98
f 80 81 99
f 81 98 100
f 81 100 99
f 84 101 102
f 84 102 85
f 87 103 88
f 88 103 109
f 88 109 104
f 88 104 89
f 89 104 109
f 89 109 113
f 89 113 110
f 89 110 106
f 89 106 100
f 89 100 98
f 89 98 97
f 89 97 96
f 89 96 95
f 89 95 94
f 89 94 93
f 89 93 92
f 89 92 91
f 89 91 90
f 99 100 105
f 100 106 105
f 101 107 102
f 102 107 108
f 107 111 108
f 108 111 112
f 110 113 114
f 110 114 115
f 111 116 112
f 112 116 117
f 114 118 115
f 115 118 119
f 116 120 121
f 116 121 122
f 116 122 117
f 118 123 119
f 119 123 120
f 120 124 121
f 120 123 124

