# https://github.com/mikedh/trimesh
v 2.57411964 -1.96249336 8.78183887
v 2.57162147 -1.96249336 8.79443284
v 2.50270199 -2.05879239 8.83473285
v 2.50270199 -2.05879239 8.79863057
v 2.42805162 -1.96249336 0.49093036
v 2.53973338 -1.96249336 8.86999532
v 2.52312800 -2.00646342 8.85404344
v 2.33782434 -2.25562709 8.84732655
v 2.23246134 -2.41078182 8.83137441
v 2.22511379 -2.31333775 8.91365404
v 2.28198332 -2.28448256 8.88007039
v 2.23246134 -2.41078182 8.81374317
v 2.26052855 -2.18096953 0.49093036
v 2.38396662 -2.02008948 0.49093036
v 2.42658194 -1.96249336 0.47497822
v 2.52004223 -1.96249336 8.88930592
v 2.47669206 -2.00646342 8.89854144
v 2.30755262 -2.21520669 8.90693715
v 2.25185857 -2.36314755 8.84984545
v 1.87904689 -2.67998413 8.83305376
v 2.19116831 -2.36898742 8.89602254
v 2.13341713 -2.40265213 8.91197469
v 2.18470258 -2.42933179 8.84900591
v 1.82805524 -2.69979356 8.85236409
v 2.49359112 -1.96249336 8.91449359
v 2.41262170 -2.05753280 8.92121021
v 2.33032983 -2.15577841 8.92624801
v 2.24803796 -2.25390947 8.93044600
v 2.16574598 -2.34322384 8.93212456
v 1.87904689 -2.67998413 8.80450765
v 1.54400118 -2.78578697 0.49093036
v 1.58867390 -2.75166435 0.49093036
v 1.99925181 -2.43654566 0.49093036
v 2.09550393 -2.36257510 0.49093036
v 2.14531997 -2.32352869 0.49093036
v 2.18690680 -2.27406253 0.49093036
v 2.22628941 -2.22551218 0.49093036
v 2.25567945 -2.17467175 0.40193437
v 2.41864680 -1.96249336 0.40277391
v 1.72195741 -2.78475634 8.84816610
v 1.62291332 -2.86674231 8.84144947
v 1.52328124 -2.94701065 8.83389331
v 2.07390233 -2.42543864 8.92960619
v 1.97573991 -2.50765343 8.92540820
v 1.87757735 -2.58986822 8.92037040
v 1.77956177 -2.67208327 8.91449359
v 2.03525457 -2.48486692 8.90609761
v 1.82805524 -2.65341875 8.89686208
v 1.58323680 -2.83662740 8.90106007
v 1.65215627 -2.81063473 8.87503286
v 2.49050534 -1.96249336 8.91617268
v 2.43216615 -2.00646342 8.93212456
v 2.27625242 -2.18520632 8.93968073
v 2.19116831 -2.27978785 8.94387872
v 2.10050027 -2.36898742 8.94303944
v 1.52328124 -2.94701065 8.80366810
v 1.47508169 -2.83044416 0.49093036
v 1.53768239 -2.78097773 0.40193437
v 1.79043612 -2.59135702 0.42124469
v 2.14355663 -2.32181133 0.43131976
v 2.22144002 -2.21921440 0.40193437
v 2.41174015 -1.96730261 0.38766131
v 2.37911723 -2.01379170 0.40193437
v 2.41497290 -1.96249336 0.38766131
v 1.55325903 -2.89262043 8.86747669
v 1.52372215 -2.85907053 8.92205002
v 1.47140792 -2.91735365 8.89098501
v 1.40337012 -2.93304083 8.90609761
v 1.47140792 -2.95788859 8.84648701
v 1.27758112 -3.04273709 8.84144947
v 1.07302687 -3.12987567 8.83893084
v 1.08610546 -3.12724223 8.83557240
v 1.72004711 -2.69486978 8.93044600
v 1.62188457 -2.77719911 8.92708729
v 2.00586452 -2.45406501 8.93884145
v 1.65083370 -2.72269461 8.94052054
v 1.68139935 -2.75441261 8.90777670
v 2.44700795 -1.96249336 8.93884145
v 2.41511987 -1.96249336 8.94975633
v 2.36309971 -2.00646342 8.95563287
v 2.27390120 -2.09566312 8.95983086
v 2.18470258 -2.18486282 8.96318957
v 2.09550393 -2.27406253 8.96486866
v 2.00630542 -2.36314755 8.96234976
v 1.91725375 -2.45234739 8.95899158
v 1.82805524 -2.54154695 8.95563287
v 1.07302687 -3.00357614 0.49093036
v 1.29315775 -2.91242986 0.49093036
v 1.38235639 -2.87544471 0.49093036
v 1.43040896 -2.85529192 0.49093036
v 1.42923336 -2.85471920 0.43971574
v 1.46391354 -2.82849745 0.40697190
v 1.53547815 -2.77926010 0.38766131
v 1.75516806 -2.61116645 0.38766131
v 1.81394802 -2.56616563 0.38766131
v 2.10196980 -2.34791854 0.40109482
v 2.11725263 -2.33303264 0.38766131
v 2.13811939 -2.31665846 0.38766131
v 2.17162399 -2.28058940 0.40109482
v 2.21967655 -2.21692432 0.38766131
v 1.84877518 -1.96249336 0.38766131
v 1.55634492 -2.80777193 8.93548327
v 1.47140792 -2.87269673 8.93212456
v 1.34400243 -2.94529303 8.91953112
v 1.07302687 -3.08934073 8.88510793
v 1.30168089 -3.00655348 8.87167468
v 1.07302687 -3.13228029 8.82465778
v 1.47140792 -2.80891710 8.95563287
v 2.36309971 -1.96249336 8.95983086
v 2.31783925 -1.96249336 8.96318957
v 1.11476073 -2.89811694 8.96402885
v 1.38235639 -2.80891710 8.96402885
v 1.64980507 -2.63063225 8.96318957
v 1.56060656 -2.71983181 8.96067067
v 1.07302687 -2.99979753 0.44979054
v 1.07302687 -2.99510283 0.40109482
v 1.41791824 -2.84990996 0.38766131
v 1.42982122 -2.84326881 0.38766131
v 1.46685248 -2.82219966 0.38766131
v 2.15560646 -2.29593295 0.38766131
v 2.17059534 -2.27749751 0.38766131
v 1.07302687 -2.51063050 0.38766131
v 1.92122147 -1.96249336 7.98087413
v 1.29315775 -2.89811694 8.95227470
v 1.37706611 -2.90120856 8.93716236
v 1.20395924 -2.97391940 8.93800217
v 1.29315775 -2.95582760 8.92792657
v 1.15326153 -3.02888181 8.91449359
v 1.09389377 -3.04170646 8.92624801
v 1.07302687 -3.05968399 8.91617268
v 1.20395924 -2.89811694 8.96234976
v 1.07302687 -2.89811694 8.96067067
v 2.27125608 -1.96249336 8.95311451
v 1.07302687 -2.93991133 8.96234976
v 1.07302687 -2.99395792 0.39521748
v 1.17633266 -2.94975864 0.38766131
v 1.07302687 -2.56982997 7.98087413
v 1.07302687 -2.99224030 0.38766131
v 1.92313176 -1.96249336 8.06987039
v 1.07302687 -2.99086604 8.95059561
v 1.07302687 -3.02498865 8.93884145
v 1.07302687 -3.04605780 8.92876638
v 1.07302687 -2.85151304 8.94723743
v 2.22379124 -1.96249336 8.94052054
v 1.07302687 -2.57097487 8.04216408
v 1.07302687 -2.57154759 8.06987039
v 1.93165491 -1.96249336 8.15886638
v 1.07302687 -2.81887896 8.93548327
v 2.20248356 -1.96249336 8.93212456
v 1.07302687 -2.57887573 8.15886638
v 1.95766498 -1.96249336 8.34189617
v 1.07302687 -2.79116867 8.91533313
v 2.17706123 -1.96249336 8.91533313
v 1.07302687 -2.58494469 8.20756237
v 1.99601895 -1.96249336 8.60468643
v 1.07302687 -2.77788611 8.90357897
v 2.15854553 -1.96249336 8.90022053
v 1.07302687 -2.58906668 8.24030621
v 1.07302687 -2.62925825 8.55766953
v 1.07302687 -2.63544149 8.60636552
v 2.00718709 -1.96249336 8.65002397
v 1.07302687 -2.74113005 8.86243916
v 2.13356395 -1.96249336 8.87671221
v 1.07302687 -2.64712097 8.66009904
v 2.01894311 -1.96249336 8.69620132
v 2.11255022 -1.96249336 8.85656208
v 1.07302687 -2.71422130 8.82717668
v 1.07302687 -2.65467847 8.69452197
v 2.03687094 -1.96249336 8.74153887
v 2.08374805 -1.96249336 8.82213915
v 1.07302687 -2.69429732 8.79275349
v 1.07302687 -2.66796102 8.73566179
v 2.04230818 -1.96249336 8.75329302
v 2.06993476 -1.96249336 8.80198901
v 1.07302687 -2.67173964 8.74573686
v 2.05847267 -1.96249336 8.78183887
f 1 2 3
f 1 3 4
f 1 4 5
f 1 5 15
f 1 15 39
f 1 39 64
f 1 64 101
f 1 101 123
f 1 123 139
f 1 139 147
f 1 147 151
f 1 151 155
f 1 155 161
f 1 161 165
f 1 165 169
f 1 169 173
f 1 173 176
f 1 176 174
f 1 174 170
f 1 170 166
f 1 166 163
f 1 163 157
f 1 157 153
f 1 153 149
f 1 149 144
f 1 144 133
f 1 133 110
f 1 110 109
f 1 109 79
f 1 79 78
f 1 78 51
f 1 51 25
f 1 25 16
f 1 16 6
f 1 6 2
f 2 6 7
f 2 7 3
f 3 8 9
f 3 9 12
f 3 12 4
f 3 7 10
f 3 10 11
f 3 11 8
f 4 12 13
f 4 13 14
f 4 14 5
f 5 14 15
f 6 16 7
f 7 16 17
f 7 17 18
f 7 18 10
f 8 11 19
f 8 19 9
f 9 20 30
f 9 30 12
f 9 19 10
f 9 10 21
f 9 21 22
f 9 22 23
f 9 23 24
f 9 24 20
f 10 22 21
f 10 19 11
f 10 18 17
f 10 17 25
f 10 25 26
f 10 26 27
f 10 27 28
f 10 28 29
f 10 29 22
f 12 30 31
f 12 31 32
f 12 32 33
f 12 33 34
f 12 34 35
f 12 35 36
f 12 36 37
f 12 37 13
f 13 37 61
f 13 61 38
f 13 38 15
f 13 15 14
f 15 38 39
f 16 25 17
f 20 40 41
f 20 41 42
f 20 42 56
f 20 56 30
f 20 24 40
f 22 29 43
f 22 43 44
f 22 44 45
f 22 45 46
f 22 46 47
f 22 47 23
f 23 47 24
f 24 47 48
f 24 48 49
f 24 49 50
f 24 50 40
f 25 51 52
f 25 52 26
f 26 52 27
f 27 52 28
f 28 52 53
f 28 53 54
f 28 54 29
f 29 54 55
f 29 55 43
f 30 56 31
f 31 57 58
f 31 58 59
f 31 59 32
f 31 56 57
f 32 59 60
f 32 60 33
f 33 60 34
f 34 60 35
f 35 60 36
f 36 60 37
f 37 60 61
f 38 61 62
f 38 62 63
f 38 63 39
f 39 63 62
f 39 62 64
f 40 50 41
f 41 50 49
f 41 49 65
f 41 65 42
f 42 65 66
f 42 66 67
f 42 67 68
f 42 68 69
f 42 69 70
f 42 70 71
f 42 71 72
f 42 72 56
f 43 73 74
f 43 74 44
f 43 55 75
f 43 75 76
f 43 76 73
f 44 74 45
f 45 66 46
f 45 74 66
f 46 66 77
f 46 77 47
f 47 77 48
f 48 77 49
f 49 77 66
f 49 66 65
f 51 78 52
f 52 78 53
f 53 78 79
f 53 79 54
f 54 79 80
f 54 80 81
f 54 81 82
f 54 82 83
f 54 83 55
f 55 83 84
f 55 84 85
f 55 85 86
f 55 86 76
f 55 76 75
f 56 72 87
f 56 87 88
f 56 88 89
f 56 89 90
f 56 90 57
f 57 90 91
f 57 91 58
f 58 91 92
f 58 92 93
f 58 93 94
f 58 94 95
f 58 95 59
f 59 95 96
f 59 96 60
f 60 96 97
f 60 97 98
f 60 98 99
f 60 99 61
f 61 99 100
f 61 100 62
f 62 100 121
f 62 121 120
f 62 120 98
f 62 98 97
f 62 97 95
f 62 95 94
f 62 94 93
f 62 93 119
f 62 119 118
f 62 118 117
f 62 117 136
f 62 136 138
f 62 138 122
f 62 122 101
f 62 101 64
f 66 68 67
f 66 74 102
f 66 102 103
f 66 103 68
f 68 103 104
f 68 104 105
f 68 105 106
f 68 106 69
f 69 71 70
f 69 106 71
f 71 107 72
f 71 106 105
f 71 105 130
f 71 130 142
f 71 142 141
f 71 141 140
f 71 140 134
f 71 134 132
f 71 132 143
f 71 143 148
f 71 148 152
f 71 152 156
f 71 156 162
f 71 162 167
f 71 167 171
f 71 171 175
f 71 175 172
f 71 172 168
f 71 168 164
f 71 164 160
f 71 160 159
f 71 159 158
f 71 158 154
f 71 154 150
f 71 150 146
f 71 146 145
f 71 145 137
f 71 137 122
f 71 122 138
f 71 138 135
f 71 135 116
f 71 116 115
f 71 115 87
f 71 87 107
f 72 107 87
f 73 76 102
f 73 102 74
f 76 86 108
f 76 108 102
f 79 109 80
f 80 109 81
f 81 109 82
f 82 110 83
f 82 109 110
f 83 110 111
f 83 111 112
f 83 112 113
f 83 113 114
f 83 114 84
f 84 114 85
f 85 114 86
f 86 114 108
f 87 115 91
f 87 91 88
f 88 91 89
f 89 91 90
f 91 116 117
f 91 117 92
f 91 115 116
f 92 117 118
f 92 118 119
f 92 119 93
f 95 97 96
f 98 120 99
f 99 120 121
f 99 121 100
f 101 122 123
f 102 108 103
f 103 108 124
f 103 124 125
f 103 125 126
f 103 126 127
f 103 127 104
f 104 128 105
f 104 127 129
f 104 129 128
f 105 128 129
f 105 129 130
f 108 114 112
f 108 112 131
f 108 131 124
f 110 132 111
f 110 133 132
f 111 132 134
f 111 134 131
f 111 131 112
f 112 114 113
f 116 135 117
f 117 135 136
f 122 137 123
f 123 137 139
f 124 131 140
f 124 140 141
f 124 141 126
f 124 126 125
f 126 141 142
f 126 142 127
f 127 142 129
f 129 142 130
f 131 134 140
f 132 133 143
f 133 144 143
f 135 138 136
f 137 145 139
f 139 145 146
f 139 146 147
f 143 144 148
f 144 149 148
f 146 150 147
f 147 150 151
f 148 149 152
f 149 153 152
f 150 154 155
f 150 155 151
f 152 153 156
f 153 157 156
f 154 158 155
f 155 158 159
f 155 159 160
f 155 160 161
f 156 157 162
f 157 163 162
f 160 164 165
f 160 165 161
f 162 163 166
f 162 166 167
f 164 168 165
f 165 168 169
f 166 170 167
f 167 170 171
f 168 172 169
f 169 172 173
f 170 174 171
f 171 174 175
f 172 175 173
f 173 175 176
f 174 176 175

