# https://github.com/mikedh/trimesh
v -0.14397648 -3.25656587 0.38766131
v -0.14397648 -3.24094566 0.31208395
v -0.13349785 -3.25720343 0.38766131
v -0.14397648 -2.80517304 0.38766131
v -0.13349785 -3.24126457 0.31208395
v -0.14397648 -3.21990628 0.23770331
v -0.13349785 -3.22022493 0.23723318
v -0.05792554 -3.24955265 0.38766131
v 2.64902490 -0.00054455 0.38766131
v -0.14397648 -0.00054455 0.28788890
v -0.04427171 -3.21576197 0.25005730
v -0.04427171 -3.23201975 0.31208395
v -0.14397648 -3.20396715 0.19311761
v -0.13349785 -3.20396715 0.19264748
v -0.04427171 -3.24795861 0.38766131
v 3.09960104 -0.00054455 0.38766131
v -0.14397648 -0.00054455 -0.04904653
v 0.01288378 -3.21193658 0.26181278
v -0.04427171 -3.19950420 0.20547160
v 0.57967634 -3.13001015 0.24009704
v 0.13386300 -3.20396715 0.29271914
v 0.18784328 -3.21129902 0.35166799
v -0.14397648 -3.19886663 0.18632100
v -0.13349785 -3.15933787 0.13592173
v -0.04427171 -3.15487491 0.14083755
v 0.45488674 -3.12204072 0.17704481
v 0.24753906 -3.20747363 0.37184470
v 0.23261515 -3.21225550 0.38766131
v 3.09325037 -0.00054455 0.35722509
v 3.09991861 -0.03114753 0.38766131
v 2.54138191 -0.00054455 -0.04904653
v -0.14397648 -2.71973986 -0.04904653
v 0.57967634 -3.15009304 0.31208395
v 0.51458252 -3.11821533 0.18452550
v 0.57967634 -3.11375211 0.19551161
v 0.64191241 -3.12490963 0.25450298
v 0.21991394 -3.19886663 0.31798308
v 0.57967634 -3.16603243 0.38766131
v -0.14397648 -3.15933787 0.13609262
v -0.13349785 -3.11917154 0.09133604
v -0.04427171 -3.11470859 0.09625212
v 0.40154157 -3.08538086 0.12861193
v 0.59491783 -3.02800054 0.09347357
v 0.57110303 -3.06179122 0.12745772
v 0.28342009 -3.20556093 0.38766131
v 3.08372463 -0.00054455 0.31208395
v 3.09991861 -0.04485505 0.38766131
v 2.58647124 -0.00054455 -0.04887538
v 2.54138191 -0.57976823 -0.04904653
v 0.31231542 -2.71973986 -0.04904653
v -0.14397648 -2.79879739 -0.04686621
v 0.67049015 -3.13319797 0.30990363
v 0.65524872 -3.15296222 0.38766131
v 0.66890248 -3.06019718 0.14750607
v 0.67049015 -3.10610159 0.22402423
v 0.70129066 -3.11789641 0.27874081
v -0.14397648 -3.11885263 0.09150692
v -0.14397648 -3.11375211 0.08671947
v -0.13349785 -3.07454226 0.05051221
v -0.04427171 -3.07007930 0.05264974
v 0.04463685 -3.06402257 0.05624046
v 0.13386300 -3.05828448 0.06102818
v 0.22308928 -3.05222775 0.06675616
v 0.31231542 -3.04648966 0.07299734
v 0.40154157 -3.04075158 0.07945219
v 0.57110303 -2.99389095 0.05859140
v 0.66890248 -2.97412670 0.05850609
v 0.66890248 -3.01875572 0.10292064
v 3.05641696 -0.00054455 0.22291281
v 3.08372463 -0.04485505 0.31208395
v 3.04022270 -0.50357974 0.38766131
v 3.03133189 -0.53195125 0.35902058
v 2.63060806 -0.00054455 -0.04870476
v 2.63060806 -0.04485505 -0.04870476
v 2.54138191 -0.66902673 -0.04900401
v 2.45215577 -0.84722488 -0.04904653
v 0.40154157 -2.71973986 -0.04870476
v -0.13349785 -2.80899843 -0.04656696
v 0.66890248 -2.63048156 -0.04904653
v -0.14397648 -2.80899843 -0.04652444
v 0.66922007 -3.15041196 0.38766131
v 0.72542299 -3.12586611 0.33815980
v 0.75812869 -3.04489562 0.16430600
v 0.80988620 -3.03437619 0.17529210
v 0.75812869 -3.07581739 0.22291281
v 0.89688964 -3.03405728 0.26091504
v 0.75622351 -3.10546403 0.30990363
v -0.14397648 -3.07422361 0.05059779
v -0.14397648 -3.06752904 0.04546803
v -0.14397648 -3.01524924 0.00601209
v -0.13349785 -3.01524924 0.00592678
v -0.04427171 -3.01078629 0.00806404
v 0.04463685 -3.00441064 0.01165476
v 0.57967634 -2.92471555 0.00639691
v 0.66890248 -2.91164560 0.01392039
v 1.11471582 -2.79433443 0.06055778
v 0.93658098 -2.87594222 0.06688453
v 0.75812869 -2.95755001 0.07410876
v 0.75812869 -3.00217903 0.11972030
v 3.04625579 -0.00054455 0.19846104
v 3.05641696 -0.04485505 0.22291281
v 3.07229338 -0.13379470 0.31208395
v 3.03196678 -0.35694086 0.26741267
v 3.03482480 -0.31231171 0.25788003
v 3.04054029 -0.22305314 0.24043908
v 3.02910930 -0.58805657 0.38766131
v 3.02466362 -0.49752301 0.31255408
v 3.02625129 -0.60909602 0.38766131
v 3.00783447 -0.74457765 0.38766131
v 2.99005280 -0.75828517 0.31208395
v 2.71983420 -0.00054455 -0.03596568
v 2.71983420 -0.04485505 -0.03596568
v 2.63060806 -0.13379470 -0.04772143
v 2.54138191 -0.75828517 -0.04729409
v 2.45215577 -0.93648332 -0.04831993
v 2.36292962 -1.11500019 -0.04896095
v 2.27370348 -1.29319841 -0.04904653
v 2.63060806 -0.22305314 -0.04622519
v 0.49076771 -2.71973986 -0.04776396
v -0.04427171 -2.80899843 -0.04524187
v -0.13349785 -2.89793808 -0.03057973
v -0.14397648 -2.88773731 -0.03237523
v 1.11471582 -2.45228334 -0.04904653
v 0.93658098 -2.54122299 -0.04844803
v 0.75812869 -2.63048156 -0.04750776
v 0.73812426 -3.13096636 0.38766131
v 0.84735484 -3.06848552 0.31208395
v 0.95849060 -3.02258111 0.31208395
v 1.16615581 -2.94543627 0.34611089
v 0.97563729 -3.02959432 0.36872412
v 1.06010050 -2.93842306 0.18756051
v 0.86926446 -3.02226219 0.20145353
v 1.25061895 -2.85426501 0.17742937
v 1.08772568 -2.94989923 0.24702229
v 1.33762239 -2.85330880 0.26754104
v 1.30205894 -2.87785492 0.30319232
v -0.14397648 -3.01014872 0.00434496
v -0.14397648 -2.97061996 -0.00847943
v -0.13349785 -2.97061996 -0.00852195
v -0.04427171 -2.96615700 -0.00715380
v 0.34279828 -2.94065467 0.00058335
v 0.40154157 -2.93682928 0.00186565
v 0.49076771 -2.93109120 0.00396040
v 0.57967634 -2.88008653 -0.00792345
v 0.66890248 -2.86701631 -0.00407627
v 0.72193014 -2.85617797 -0.00095568
v 0.78130839 -2.84470180 0.00280619
v 0.84735484 -2.83035672 0.00891900
v 1.11471582 -2.73057847 0.01597235
v 1.29316811 -2.64865203 0.01079980
v 1.28650000 -2.72229012 0.06111375
v 1.20394196 -2.77584531 0.07722935
v 0.81179139 -2.94639276 0.08535132
v 1.25252420 -2.76596319 0.08753164
v 1.06200568 -2.85012124 0.09274671
v 1.03120517 -2.90048834 0.13143327
v 3.03577729 -0.00054455 0.17336851
v 3.03577729 -0.04485505 0.17336851
v 3.02910930 -0.15706569 0.18473918
v 3.03260196 -0.09777255 0.17713012
v 2.95893489 -0.76497960 0.21461969
v 2.94210574 -0.79908906 0.17939575
v 3.02466362 -0.22305314 0.19585364
v 3.00592948 -0.75828517 0.38766131
v 2.99068798 -0.83383609 0.38766131
v 2.97100107 -0.84722488 0.31208395
v 2.95099656 -0.84722488 0.24321763
v 2.80302726 -0.00054455 -0.01177064
v 2.63060806 -0.40157014 -0.04271978
v 2.80302726 -0.04485505 -0.01177064
v 2.71983420 -0.13379470 -0.03322992
v 2.63060806 -0.66902673 -0.03733383
v 2.54138191 -0.84722488 -0.04301903
v 2.45215577 -1.02574182 -0.04507125
v 2.36292962 -1.20393998 -0.04682369
v 2.27370348 -1.38245685 -0.04793511
v 2.18447721 -1.47139663 -0.04887538
v 2.09556852 -1.56065507 -0.04904653
v 0.57967634 -2.71973986 -0.04549859
v 0.40154157 -2.80899843 -0.03600874
v 0.31231542 -2.80899843 -0.03810295
v 0.13386300 -2.80899843 -0.04169393
v -0.14397648 -2.89793808 -0.03049416
v -0.04427171 -2.89793808 -0.02792955
v 1.20394196 -2.45228334 -0.04708041
v 1.38239425 -2.27376647 -0.04904653
v 1.29316811 -2.36302477 -0.04870476
v 1.02580713 -2.54122299 -0.04541302
v 0.97976518 -3.03118810 0.38766131
v 1.11630349 -2.95786893 0.31464882
v 1.35699185 -2.86127849 0.32696002
v 1.41637004 -2.84916476 0.38013783
v 1.40747921 -2.85426501 0.38766131
v 1.31698298 -2.84470180 0.22291281
v 1.28141953 -2.80389791 0.13882838
v 1.38239425 -2.78190205 0.15968917
v 1.43605695 -2.76978858 0.17221431
v 1.38239425 -2.81696786 0.22291281
v 1.38493455 -2.84342667 0.30319232
v 0.31263287 -2.90590751 -0.01125771
v 0.49076771 -2.88646218 -0.01001820
v 0.49076771 -2.80899843 -0.03327297
v 0.57967634 -2.80899843 -0.02886981
v 0.66890248 -2.80899843 -0.02079063
v 0.75431832 -2.81250517 -0.00976147
v 0.97214443 -2.76054375 0.00109627
v 1.22204121 -2.66427224 0.00361836
v 1.02580713 -2.74938650 0.00519992
v 1.38239425 -2.69232483 0.07227074
v 1.34746584 -2.59159036 -0.00176785
v 1.40684417 -2.57055071 0.00455890
v 1.37921892 -2.62506212 0.02486371
v 1.31190239 -2.75353081 0.10014209
v 3.01609039 -0.00054455 0.15139631
v 2.99576829 -0.04485505 0.12882560
v 2.98783022 -0.13793887 0.13322849
v 2.91035265 -0.66902673 0.12489284
v 2.93448499 -0.84722488 0.19863219
v 2.84811658 -1.05761981 0.18986893
v 2.85986516 -0.99832673 0.17101731
v 2.87256650 -0.93648332 0.15789394
v 2.88399750 -0.84212436 0.13070641
v 2.85573733 -0.80865247 0.08671947
v 2.85986516 -0.75828517 0.08223074
v 2.91162274 -0.76497960 0.14045299
v 2.98751264 -0.84722488 0.38766131
v 2.95036166 -0.91034335 0.31208395
v 2.94369341 -0.89472314 0.26382195
v 2.82557193 -0.00054455 -0.00484592
v 2.71983420 -0.40157014 -0.02284231
v 2.71983420 -0.22305314 -0.02993818
v 2.84748168 -0.04485505 0.00190844
v 2.76460593 -0.62726649 -0.00010046
v 2.72650220 -0.66169480 -0.01031744
v 2.63060806 -0.75828517 -0.03297372
v 2.71983420 -0.57976823 -0.01566087
v 2.54138191 -0.93648332 -0.03703458
v 2.45215577 -1.11500019 -0.03989844
v 2.36292962 -1.29319841 -0.04212128
v 2.27370348 -1.47139663 -0.04259168
v 2.18447721 -1.56065507 -0.04494262
v 2.09556852 -1.64959472 -0.04635329
v 2.00634237 -1.73885315 -0.04763586
v 1.91711622 -1.82779281 -0.04866170
v 1.82789008 -1.91705138 -0.04904653
v 0.66890248 -2.71973986 -0.04122353
v 0.84735484 -2.63048156 -0.04340385
v 1.29316811 -2.45228334 -0.04126659
v 1.11471582 -2.54122299 -0.04032579
v 1.38239425 -2.36302477 -0.04447275
v 1.73866393 -2.00630981 -0.04904653
v 1.64943778 -2.09556825 -0.04844803
v 1.56052909 -2.18450790 -0.04733661
v 1.47162040 -2.27376647 -0.04605404
v 1.47892369 -2.79465335 0.30584277
v 1.46685753 -2.82206838 0.38766131
v 1.43002387 -2.84310776 0.38766131
v 1.41795770 -2.84980232 0.38766131
v 1.38239425 -2.73695412 0.11510374
v 1.43224657 -2.67893597 0.08556526
v 1.46399965 -2.71400178 0.13895675
v 1.53544414 -2.68977457 0.16511817
v 1.69293943 -2.58489579 0.17986588
v 1.59482247 -2.66714115 0.19384448
v 1.49892806 -2.75193676 0.22291281
v 1.45479137 -2.78126448 0.22291281
v 0.75812869 -2.71973986 -0.03451249
v 0.84735484 -2.71973986 -0.02515073
v 0.94007384 -2.72643416 -0.01236913
v 1.19695626 -2.63271290 -0.00869310
v 1.16266289 -2.67606706 -0.00035719
v 1.29316811 -2.60434139 -0.00531579
v 1.46590490 -2.62824995 0.06607236
v 1.29316811 -2.54122299 -0.02241497
v 1.38239425 -2.45228334 -0.02934021
v 1.37921892 -2.54090407 -0.00856447
v 1.44558295 -2.51093879 -0.00343525
v 1.50464369 -2.48830536 0.00229327
v 1.47384311 -2.54090407 0.01610044
v 1.85869052 -2.21861749 0.00293429
v 1.76057355 -2.30086285 0.00532828
v 2.99576829 -0.00054455 0.12882560
v 2.95131415 -0.04485505 0.07966612
v 2.97385881 -0.00054455 0.10454498
v 2.93384982 -0.31231171 0.09898788
v 2.94655114 -0.11849328 0.08496676
v 2.91575083 -0.92915139 0.22962412
v 2.85986516 -1.08535368 0.24933070
v 2.66775904 -1.49849288 0.19551161
v 2.76428835 -1.24856913 0.17849800
v 2.81033044 -1.02892958 0.13237354
v 2.83001734 -0.93648332 0.11330824
v 2.84398876 -0.86826440 0.09894509
v 2.78524534 -0.93648332 0.06816683
v 2.81191810 -0.84212436 0.05978840
v 2.80874276 -0.75828517 0.04080868
v 2.87161400 -0.57976823 0.06936383
v 2.95702964 -0.93584575 0.38766131
v 2.93924798 -0.97346182 0.37381108
v 2.85541975 -1.16409243 0.34961603
v 2.93194482 -0.95497257 0.31208395
v 2.90273191 -1.02574182 0.31208395
v 2.84748168 -1.14496561 0.29019705
v 2.76333586 -1.33559622 0.27104618
v 2.67919003 -1.52622669 0.25493059
v 2.84748168 -0.00054455 0.00190844
v 2.76079569 -0.68687842 0.00113906
v 2.87320167 -0.00054455 0.01964864
v 2.89796890 -0.04485505 0.03700402
v 2.84176619 -0.13379470 0.00400292
v 2.70967303 -0.75828517 -0.01018935
v 2.69538430 -0.84722488 -0.00582871
v 2.63060806 -0.84722488 -0.02433856
v 2.54138191 -1.02574182 -0.02857057
v 2.45215577 -1.20393998 -0.03250332
v 2.36292962 -1.38245685 -0.03579506
v 2.36292962 -1.47139663 -0.02472338
v 2.27370348 -1.56065507 -0.03040858
v 2.18447721 -1.64959472 -0.03434134
v 2.09556852 -1.73885315 -0.03814600
v 2.00634237 -1.82779281 -0.04169393
v 1.91711622 -1.91705138 -0.04434412
v 1.82789008 -2.00630981 -0.04566975
v 0.93658098 -2.63048156 -0.03759002
v 1.20394196 -2.54122299 -0.03314434
v 1.64943778 -2.18450790 -0.04088176
v 1.56052909 -2.27376647 -0.03724825
v 1.47162040 -2.36302477 -0.03344359
v 1.73866393 -2.09556825 -0.04383120
v 1.51385211 -2.76277510 0.27194393
v 1.52591827 -2.77201992 0.33140570
v 1.52909347 -2.78285826 0.38766131
v 1.53004610 -2.59700953 0.07945219
v 1.94378885 -2.30468824 0.10138160
v 1.63356112 -2.60784813 0.15904788
v 1.98760808 -2.33816000 0.16084338
v 2.04698628 -2.31552658 0.18362776
v 1.61228666 -2.68053001 0.25330598
v 1.56306938 -2.70411965 0.22329737
v 1.96633350 -2.41116079 0.25830764
v 1.02580713 -2.63048156 -0.02934021
v 1.11471582 -2.63048156 -0.01899513
v 1.56021150 -2.54313568 0.05747998
v 1.62848066 -2.51476418 0.07351026
v 1.47384311 -2.45610873 -0.01160002
v 1.82789008 -2.09556825 -0.03233217
v 1.73866393 -2.18450790 -0.02792955
v 1.64943778 -2.27376647 -0.02305599
v 1.60276066 -2.40606027 0.00041220
v 1.65483569 -2.45802142 0.04970004
v 1.82852511 -2.27217242 0.01802430
v 1.73390093 -2.35696803 0.02529132
v 1.92314930 -2.18705816 0.01178313
v 1.95680763 -2.13573458 0.00092512
v 2.95131415 -0.00054455 0.07966612
v 2.87732950 -0.49050979 0.06337912
v 2.88336258 -0.40157014 0.05816405
v 2.88907808 -0.31231171 0.05406041
v 2.65251755 -1.55778602 0.22428070
v 2.59409198 -1.61771674 0.16973474
v 2.67950788 -1.43888095 0.17315457
v 2.62965557 -1.46980259 0.13455385
v 2.57948539 -1.50040557 0.09586729
v 2.59186914 -1.44111243 0.08325685
v 2.77222668 -1.00023935 0.08107679
v 2.60393557 -1.38245685 0.07111654
v 2.70395753 -1.11500019 0.06162668
v 2.73983870 -0.84722488 0.00973117
v 2.75444502 -0.75828517 0.00323354
v 2.82303151 -0.40157014 0.01357835
v 2.94845640 -0.95752283 0.38766131
v 2.94083565 -0.97633087 0.38766131
v 2.67474488 -1.60464665 0.35790916
v 2.77127420 -1.35472303 0.33050795
v 2.68712838 -1.54567229 0.31208395
v 2.66839422 -1.58998279 0.31208395
v 2.83573283 -0.22305314 0.00643970
v 2.82969976 -0.31231171 0.00947471
v 2.89796890 -0.00054455 0.03700402
v 2.67029921 -0.96963650 0.00139552
v 2.63664088 -0.93871480 -0.01189873
v 2.54138191 -1.11500019 -0.01822548
v 2.45215577 -1.29319841 -0.02254307
v 2.45691878 -1.38150050 -0.01083037
v 2.43088119 -1.47139663 -0.00651278
v 2.41595729 -1.52782060 -0.00219520
v 2.36356454 -1.55874237 -0.00929160
v 2.09556852 -1.82779281 -0.02425298
v 2.00634237 -1.91705138 -0.02904097
v 1.91711622 -2.00630981 -0.03293067
v 1.86789895 -2.49340588 0.27856993
v 1.62498787 -2.69041214 0.31208395
v 1.53512655 -2.77903287 0.38766131
v 1.78184799 -2.58489579 0.36175635
v 1.98252763 -2.24507604 0.07526297
v 2.01459815 -2.28014185 0.12805622
v 2.04190581 -2.22084884 0.09531158
v 2.07937452 -2.25591465 0.15473057
v 2.13875271 -2.22754327 0.18059274
v 2.10160159 -2.27950455 0.21184114
v 2.06445061 -2.32891544 0.24304674
v 2.08032701 -2.34102918 0.31208395
v 1.91521096 -2.27440403 0.05995955
v 1.89742930 -2.15932421 -0.00463171
v 1.79931233 -2.24156957 -0.00296485
v 1.92314930 -2.10162511 -0.01296763
v 2.00983529 -2.18865207 0.05431687
v 1.98252763 -2.07612265 -0.00505959
v 2.04190581 -2.03914414 0.00242137
v 2.00983529 -2.10162511 0.01062892
v 2.60361773 -1.64800081 0.23137656
v 2.57249981 -1.67669097 0.20730988
v 2.49057683 -1.77519409 0.19012539
v 2.40833626 -1.87337844 0.17764304
v 2.51312150 -1.71590095 0.16366472
v 2.53757140 -1.64481298 0.13699037
v 2.50264299 -1.61293500 0.08411181
v 2.51851967 -1.56065507 0.06876533
v 2.56297408 -1.56065507 0.11005956
v 2.60901589 -1.56065507 0.15464499
v 2.54646223 -1.47107772 0.05577033
v 2.55821108 -1.29319841 0.01169755
v 2.64013406 -1.11500019 0.01704098
v 2.65886822 -1.02574182 0.00579841
v 2.75920804 -1.41465361 0.38766131
v 2.69284386 -1.57468136 0.38766131
v 2.67760237 -1.60974717 0.38766131
v 2.65759813 -1.63971246 0.38766131
v 2.59313922 -1.70378735 0.31208395
v 2.63124324 -1.64959472 0.31208395
v 2.57408748 -1.21987897 0.00400292
v 2.48994193 -1.41050957 0.00212212
v 2.58615364 -1.16058582 -0.00010046
v 2.59567965 -1.11500019 -0.00279370
v 2.47565293 -1.47139663 0.00729466
v 2.39372994 -1.58743253 0.00396040
v 2.31148964 -1.68529809 0.00182287
v 2.33435162 -1.62600495 -0.00386260
v 2.00983529 -2.00822251 -0.01142886
v 1.87996510 -2.50265071 0.33803143
v 1.75485792 -2.61103596 0.38766131
v 2.13589497 -2.31457036 0.37116089
v 2.11716068 -2.33274083 0.38766131
v 1.81360120 -2.56608776 0.38766131
v 2.06826086 -2.16123691 0.07385230
v 2.15208909 -2.24380091 0.24001173
v 2.16161496 -2.16825012 0.15938992
v 2.22099314 -2.12935893 0.19478474
v 2.23432965 -2.14657305 0.25424652
v 2.12478143 -2.30405041 0.31208395
v 2.06476806 -1.97985100 -0.00334967
v 2.22924907 -1.78348244 0.00002764
v 2.12414626 -1.94095980 0.00468699
v 2.09493347 -2.00822251 0.01648527
v 2.09715618 -2.09493068 0.05795038
v 2.58615364 -1.69454265 0.26677165
v 2.50391307 -1.79272700 0.24954438
v 2.12795676 -2.12425841 0.09992841
v 2.15081887 -2.06464661 0.07983701
v 2.42040242 -1.71080056 0.07799873
v 2.45088543 -1.64513176 0.06397761
v 2.44834526 -1.55874237 0.02174312
v 2.60901589 -1.70856908 0.38766131
v 2.60330040 -1.71653851 0.38766131
v 2.40801895 -1.96231809 0.35500225
v 2.55916358 -1.74841663 0.31208395
v 2.36356454 -1.65310133 0.01460446
v 2.20606924 -1.84277545 0.00789316
v 2.16510775 -2.25974004 0.31208395
v 2.15558188 -2.29576233 0.38766131
v 2.13811768 -2.31648279 0.38766131
v 2.33784454 -1.80898477 0.07218517
v 2.31656997 -2.04838870 0.27326929
v 2.20956215 -2.20363472 0.31208395
v 2.17971420 -1.91354477 0.02345304
v 2.36578738 -1.73980950 0.05551360
v 2.29339013 -2.09238042 0.30661216
v 2.48867158 -1.86700279 0.38766131
v 2.41182919 -1.96709983 0.38766131
v 2.21972307 -2.21670480 0.38766131
f 1 2 3
f 1 3 8
f 1 8 15
f 1 15 28
f 1 28 45
f 1 45 38
f 1 38 53
f 1 53 81
f 1 81 126
f 1 126 189
f 1 189 193
f 1 193 258
f 1 258 257
f 1 257 256
f 1 256 332
f 1 332 393
f 1 393 441
f 1 441 444
f 1 444 443
f 1 443 471
f 1 471 470
f 1 470 480
f 1 480 479
f 1 479 478
f 1 478 464
f 1 464 463
f 1 463 428
f 1 428 427
f 1 427 426
f 1 426 425
f 1 425 372
f 1 372 371
f 1 371 298
f 1 298 226
f 1 226 165
f 1 165 164
f 1 164 109
f 1 109 108
f 1 108 106
f 1 106 71
f 1 71 47
f 1 47 30
f 1 30 16
f 1 16 9
f 1 9 4
f 1 4 10
f 1 10 17
f 1 17 32
f 1 32 51
f 1 51 80
f 1 80 122
f 1 122 183
f 1 183 138
f 1 138 137
f 1 137 90
f 1 90 89
f 1 89 88
f 1 88 58
f 1 58 57
f 1 57 39
f 1 39 23
f 1 23 13
f 1 13 6
f 1 6 2
f 2 5 3
f 2 6 7
f 2 7 5
f 3 5 8
f 4 9 10
f 5 7 11
f 5 11 12
f 5 12 8
f 6 13 7
f 7 13 14
f 7 14 19
f 7 19 11
f 8 12 15
f 9 16 29
f 9 29 46
f 9 46 69
f 9 69 100
f 9 100 157
f 9 157 214
f 9 214 282
f 9 282 284
f 9 284 355
f 9 355 379
f 9 379 308
f 9 308 306
f 9 306 229
f 9 229 168
f 9 168 111
f 9 111 73
f 9 73 48
f 9 48 31
f 9 31 17
f 9 17 10
f 11 18 12
f 11 19 35
f 11 35 20
f 11 20 18
f 12 18 21
f 12 21 22
f 12 22 15
f 13 23 14
f 14 23 24
f 14 24 25
f 14 25 26
f 14 26 19
f 15 22 27
f 15 27 28
f 16 30 29
f 17 31 49
f 17 49 76
f 17 76 117
f 17 117 178
f 17 178 245
f 17 245 251
f 17 251 186
f 17 186 123
f 17 123 79
f 17 79 50
f 17 50 32
f 18 20 33
f 18 33 21
f 19 26 34
f 19 34 35
f 20 35 36
f 20 36 33
f 21 37 22
f 21 33 37
f 22 37 33
f 22 33 38
f 22 38 27
f 23 39 24
f 24 39 40
f 24 40 41
f 24 41 25
f 25 41 26
f 26 41 42
f 26 42 43
f 26 43 44
f 26 44 34
f 27 45 28
f 27 38 45
f 29 30 46
f 30 47 70
f 30 70 46
f 31 48 49
f 32 50 51
f 33 36 52
f 33 52 53
f 33 53 38
f 34 44 54
f 34 54 35
f 35 55 36
f 35 54 55
f 36 55 56
f 36 56 52
f 39 57 40
f 40 57 58
f 40 58 59
f 40 59 60
f 40 60 41
f 41 60 61
f 41 61 62
f 41 62 63
f 41 63 64
f 41 64 65
f 41 65 42
f 42 65 43
f 43 65 66
f 43 66 67
f 43 67 68
f 43 68 54
f 43 54 44
f 46 70 101
f 46 101 69
f 47 71 72
f 47 72 70
f 48 73 74
f 48 74 49
f 49 74 75
f 49 75 76
f 50 77 78
f 50 78 51
f 50 79 77
f 51 78 80
f 52 81 53
f 52 56 82
f 52 82 81
f 54 68 83
f 54 83 55
f 55 83 84
f 55 84 85
f 55 85 56
f 56 85 86
f 56 86 87
f 56 87 82
f 58 88 59
f 59 88 89
f 59 89 90
f 59 90 91
f 59 91 92
f 59 92 60
f 60 92 61
f 61 92 93
f 61 93 94
f 61 94 62
f 62 94 66
f 62 66 63
f 63 66 64
f 64 66 65
f 66 94 67
f 67 94 95
f 67 95 96
f 67 96 97
f 67 97 98
f 67 98 68
f 68 98 99
f 68 99 83
f 69 101 100
f 70 72 102
f 70 102 103
f 70 103 104
f 70 104 105
f 70 105 101
f 71 106 72
f 72 107 102
f 72 106 108
f 72 108 109
f 72 109 110
f 72 110 107
f 73 111 112
f 73 112 74
f 74 112 113
f 74 113 75
f 75 114 115
f 75 115 116
f 75 116 117
f 75 117 76
f 75 113 118
f 75 118 114
f 77 119 78
f 77 79 119
f 78 119 120
f 78 120 121
f 78 121 122
f 78 122 80
f 79 123 124
f 79 124 125
f 79 125 119
f 81 82 126
f 82 87 127
f 82 127 128
f 82 128 129
f 82 129 130
f 82 130 126
f 83 99 84
f 84 131 132
f 84 132 85
f 84 99 133
f 84 133 131
f 85 132 86
f 86 128 127
f 86 127 87
f 86 132 131
f 86 131 134
f 86 134 135
f 86 135 136
f 86 136 128
f 90 137 91
f 91 137 138
f 91 138 139
f 91 139 140
f 91 140 92
f 92 140 141
f 92 141 142
f 92 142 143
f 92 143 94
f 92 94 93
f 94 143 144
f 94 144 145
f 94 145 146
f 94 146 147
f 94 147 95
f 95 147 148
f 95 148 149
f 95 149 96
f 96 149 150
f 96 150 151
f 96 151 152
f 96 152 97
f 97 152 98
f 98 153 99
f 98 152 154
f 98 154 155
f 98 155 153
f 99 153 155
f 99 155 156
f 99 156 133
f 100 101 158
f 100 158 157
f 101 105 159
f 101 159 160
f 101 160 158
f 102 107 103
f 103 107 110
f 103 110 161
f 103 161 104
f 104 161 162
f 104 162 105
f 105 163 159
f 105 162 163
f 109 164 110
f 110 164 165
f 110 165 166
f 110 166 167
f 110 167 162
f 110 162 161
f 111 168 170
f 111 170 112
f 112 169 118
f 112 118 113
f 112 170 171
f 112 171 172
f 112 172 169
f 114 118 169
f 114 169 172
f 114 172 173
f 114 173 174
f 114 174 175
f 114 175 176
f 114 176 115
f 115 176 116
f 116 176 117
f 117 176 177
f 117 177 178
f 119 179 180
f 119 180 181
f 119 181 182
f 119 182 120
f 119 125 179
f 120 182 121
f 121 183 122
f 121 182 181
f 121 181 180
f 121 180 184
f 121 184 139
f 121 139 138
f 121 138 183
f 123 185 124
f 123 186 187
f 123 187 185
f 124 185 125
f 125 185 188
f 125 188 247
f 125 247 179
f 126 130 189
f 128 190 129
f 128 136 190
f 129 190 136
f 129 136 191
f 129 191 192
f 129 192 130
f 130 192 193
f 130 193 189
f 131 133 194
f 131 194 134
f 133 156 155
f 133 155 154
f 133 154 195
f 133 195 196
f 133 196 197
f 133 197 198
f 133 198 194
f 134 194 135
f 135 194 198
f 135 198 199
f 135 199 136
f 136 199 191
f 139 184 140
f 140 184 200
f 140 200 141
f 141 200 201
f 141 201 142
f 142 201 143
f 143 201 144
f 144 201 202
f 144 202 203
f 144 203 145
f 145 203 204
f 145 204 205
f 145 205 146
f 146 205 206
f 146 206 147
f 147 206 207
f 147 207 208
f 147 208 148
f 148 208 150
f 148 150 149
f 150 209 151
f 150 208 207
f 150 207 210
f 150 210 211
f 150 211 212
f 150 212 209
f 151 209 154
f 151 154 152
f 154 209 213
f 154 213 195
f 157 158 214
f 158 160 215
f 158 215 214
f 159 163 162
f 159 162 160
f 160 216 215
f 160 162 217
f 160 217 216
f 162 167 218
f 162 218 219
f 162 219 220
f 162 220 221
f 162 221 222
f 162 222 223
f 162 223 224
f 162 224 225
f 162 225 217
f 165 226 166
f 166 226 227
f 166 227 228
f 166 228 167
f 167 228 218
f 168 229 170
f 170 230 231
f 170 231 171
f 170 229 232
f 170 232 233
f 170 233 230
f 171 231 172
f 172 234 235
f 172 235 173
f 172 231 230
f 172 230 236
f 172 236 234
f 173 235 237
f 173 237 238
f 173 238 239
f 173 239 174
f 174 239 175
f 175 239 176
f 176 240 241
f 176 241 242
f 176 242 243
f 176 243 244
f 176 244 177
f 176 239 240
f 177 244 245
f 177 245 178
f 179 246 202
f 179 202 180
f 179 247 246
f 180 202 184
f 184 201 200
f 184 202 201
f 185 248 249
f 185 249 188
f 185 187 250
f 185 250 248
f 186 251 187
f 187 251 252
f 187 252 253
f 187 253 254
f 187 254 250
f 188 249 247
f 191 199 192
f 192 199 255
f 192 255 256
f 192 256 257
f 192 257 258
f 192 258 193
f 195 213 196
f 196 213 259
f 196 259 197
f 197 259 209
f 197 209 260
f 197 260 261
f 197 261 262
f 197 262 263
f 197 263 264
f 197 264 265
f 197 265 266
f 197 266 198
f 198 266 199
f 199 266 255
f 202 246 203
f 203 246 267
f 203 267 204
f 204 267 268
f 204 268 269
f 204 269 205
f 205 269 206
f 206 269 270
f 206 270 271
f 206 271 207
f 207 271 272
f 207 272 210
f 209 212 273
f 209 273 260
f 209 259 213
f 210 272 274
f 210 274 275
f 210 275 276
f 210 276 277
f 210 277 278
f 210 278 211
f 211 279 212
f 211 278 280
f 211 280 281
f 211 281 279
f 212 279 273
f 214 215 282
f 215 216 283
f 215 283 284
f 215 284 282
f 216 285 286
f 216 286 283
f 216 217 285
f 217 225 224
f 217 224 285
f 218 228 287
f 218 287 219
f 219 288 289
f 219 289 290
f 219 290 220
f 219 287 228
f 219 228 288
f 220 290 291
f 220 291 292
f 220 292 221
f 221 292 293
f 221 293 222
f 222 293 223
f 223 293 294
f 223 294 295
f 223 295 296
f 223 296 224
f 224 296 297
f 224 297 285
f 226 298 227
f 227 298 299
f 227 299 300
f 227 300 301
f 227 301 228
f 228 301 302
f 228 302 303
f 228 303 304
f 228 304 305
f 228 305 288
f 229 306 232
f 230 233 307
f 230 307 236
f 232 306 308
f 232 308 309
f 232 309 310
f 232 310 307
f 232 307 233
f 234 307 311
f 234 311 235
f 234 236 307
f 235 311 312
f 235 312 313
f 235 313 314
f 235 314 237
f 237 314 315
f 237 315 316
f 237 316 238
f 238 316 239
f 239 316 240
f 240 316 317
f 240 317 318
f 240 318 319
f 240 319 320
f 240 320 321
f 240 321 322
f 240 322 241
f 241 322 242
f 242 322 323
f 242 323 243
f 243 323 244
f 244 323 245
f 245 323 251
f 246 247 249
f 246 249 324
f 246 324 267
f 248 275 274
f 248 274 325
f 248 325 249
f 248 250 326
f 248 326 327
f 248 327 328
f 248 328 275
f 249 325 324
f 250 254 323
f 250 323 329
f 250 329 326
f 251 323 252
f 252 323 253
f 253 323 254
f 255 266 330
f 255 330 331
f 255 331 256
f 256 331 332
f 260 262 261
f 260 273 333
f 260 333 334
f 260 334 335
f 260 335 262
f 262 335 336
f 262 336 263
f 263 336 337
f 263 337 264
f 264 338 330
f 264 330 339
f 264 339 265
f 264 337 340
f 264 340 338
f 265 330 266
f 265 339 330
f 267 324 325
f 267 325 341
f 267 341 268
f 268 341 342
f 268 342 269
f 269 342 270
f 270 342 272
f 270 272 271
f 272 342 325
f 272 325 274
f 273 279 343
f 273 343 344
f 273 344 333
f 275 345 276
f 275 328 346
f 275 346 347
f 275 347 348
f 275 348 345
f 276 345 277
f 277 345 349
f 277 349 278
f 278 349 280
f 279 350 343
f 279 281 351
f 279 351 352
f 279 352 350
f 280 353 281
f 280 349 354
f 280 354 353
f 281 353 351
f 283 309 379
f 283 379 355
f 283 355 284
f 283 286 297
f 283 297 356
f 283 356 357
f 283 357 358
f 283 358 309
f 285 297 286
f 288 305 289
f 289 305 359
f 289 359 360
f 289 360 361
f 289 361 290
f 290 361 362
f 290 362 363
f 290 363 364
f 290 364 291
f 291 365 292
f 291 364 365
f 292 365 293
f 293 365 294
f 294 365 366
f 294 366 367
f 294 367 295
f 295 368 296
f 295 367 368
f 296 368 369
f 296 369 370
f 296 370 357
f 296 357 356
f 296 356 297
f 298 371 299
f 299 371 372
f 299 372 373
f 299 373 300
f 300 374 304
f 300 304 303
f 300 303 302
f 300 302 301
f 300 373 374
f 304 374 375
f 304 375 305
f 305 375 376
f 305 376 359
f 307 369 311
f 307 310 377
f 307 377 378
f 307 378 369
f 308 379 309
f 309 377 310
f 309 358 378
f 309 378 377
f 311 369 312
f 312 369 368
f 312 368 380
f 312 380 381
f 312 381 313
f 313 381 382
f 313 382 383
f 313 383 314
f 314 383 315
f 315 383 316
f 316 383 384
f 316 384 317
f 317 385 386
f 317 386 318
f 317 384 385
f 318 386 387
f 318 387 388
f 318 388 389
f 318 389 390
f 318 390 319
f 319 390 320
f 320 390 321
f 321 390 322
f 322 390 323
f 323 390 346
f 323 346 329
f 325 342 341
f 326 329 346
f 326 346 327
f 327 346 328
f 330 338 340
f 330 340 391
f 330 391 392
f 330 392 331
f 331 393 332
f 331 392 394
f 331 394 393
f 333 344 334
f 334 395 396
f 334 396 336
f 334 336 335
f 334 344 395
f 336 396 337
f 337 396 397
f 337 397 398
f 337 398 399
f 337 399 400
f 337 400 401
f 337 401 340
f 340 401 402
f 340 402 391
f 343 350 403
f 343 403 344
f 344 403 395
f 345 348 404
f 345 404 405
f 345 405 349
f 346 390 406
f 346 406 354
f 346 354 404
f 346 404 347
f 347 404 348
f 349 405 354
f 350 352 351
f 350 351 403
f 351 353 403
f 353 407 403
f 353 354 407
f 354 406 390
f 354 390 408
f 354 408 409
f 354 409 410
f 354 410 407
f 354 405 404
f 357 370 378
f 357 378 358
f 359 376 411
f 359 411 360
f 360 411 412
f 360 412 413
f 360 413 414
f 360 414 415
f 360 415 416
f 360 416 417
f 360 417 418
f 360 418 419
f 360 419 420
f 360 420 361
f 361 420 362
f 362 420 363
f 363 420 419
f 363 419 418
f 363 418 421
f 363 421 364
f 364 421 366
f 364 366 365
f 366 421 367
f 367 421 422
f 367 422 423
f 367 423 368
f 368 423 422
f 368 422 424
f 368 424 380
f 369 378 370
f 372 425 373
f 373 425 426
f 373 426 427
f 373 427 428
f 373 428 429
f 373 429 430
f 373 430 376
f 373 376 375
f 373 375 374
f 376 430 411
f 380 424 431
f 380 431 432
f 380 432 433
f 380 433 434
f 380 434 381
f 381 434 382
f 382 434 384
f 382 384 383
f 384 434 433
f 384 433 432
f 384 432 385
f 385 435 386
f 385 432 435
f 386 435 436
f 386 436 437
f 386 437 438
f 386 438 387
f 387 438 388
f 388 439 389
f 388 438 439
f 389 439 390
f 390 439 408
f 391 402 392
f 392 402 440
f 392 440 394
f 393 394 441
f 394 440 402
f 394 402 442
f 394 442 443
f 394 443 444
f 394 444 441
f 395 403 407
f 395 407 397
f 395 397 396
f 397 399 398
f 397 407 445
f 397 445 399
f 399 446 400
f 399 445 447
f 399 447 414
f 399 414 413
f 399 413 448
f 399 448 449
f 399 449 446
f 400 450 401
f 400 446 450
f 401 450 402
f 402 450 442
f 407 410 445
f 408 439 409
f 409 439 451
f 409 451 452
f 409 452 437
f 409 437 436
f 409 436 453
f 409 453 410
f 410 453 454
f 410 454 455
f 410 455 445
f 411 430 456
f 411 456 412
f 412 456 413
f 413 457 448
f 413 456 457
f 414 447 417
f 414 417 415
f 415 417 416
f 417 447 458
f 417 458 459
f 417 459 460
f 417 460 461
f 417 461 418
f 418 462 435
f 418 435 421
f 418 461 462
f 421 435 422
f 422 435 424
f 424 435 431
f 428 463 429
f 429 456 430
f 429 463 464
f 429 464 465
f 429 465 466
f 429 466 456
f 431 435 432
f 435 462 436
f 436 462 467
f 436 467 468
f 436 468 453
f 437 452 438
f 438 452 451
f 438 451 439
f 442 450 469
f 442 469 470
f 442 470 471
f 442 471 443
f 445 455 472
f 445 472 459
f 445 459 458
f 445 458 447
f 446 469 450
f 446 449 469
f 448 457 449
f 449 457 456
f 449 456 473
f 449 473 474
f 449 474 469
f 453 468 454
f 454 468 467
f 454 467 475
f 454 475 455
f 455 475 476
f 455 476 472
f 456 466 477
f 456 477 473
f 459 472 460
f 460 472 461
f 461 472 476
f 461 476 462
f 462 476 475
f 462 475 467
f 464 478 465
f 465 477 466
f 465 478 479
f 465 479 480
f 465 480 474
f 465 474 477
f 469 474 480
f 469 480 470
f 473 477 474

