# https://github.com/mikedh/trimesh
v 0.16375594 3.10933843 13.48671485
v 0.16375594 3.40978434 13.47102707
v -0.05103804 3.36352305 13.45353597
v -0.04804886 3.10933843 13.45245398
v -0.01260571 2.93606908 13.42919275
v 0.16375594 2.93085396 13.43478267
v 0.34097164 2.93539603 13.42991408
v 0.37726883 3.10933843 13.45335576
v 0.37983097 3.36486889 13.45389664
v 0.16375594 3.57346501 13.26311838
v -1.47260685 4.02413365 12.43310625
v -1.47516906 4.02413365 12.43238492
v 2.03370190 4.02413365 12.37432194
v 1.80011877 4.02413365 12.43310625
v -1.77750326 4.02413365 12.33609425
v -1.80013572 2.78214511 12.30742331
v -1.97180014 2.59895055 12.13611968
v -1.80013572 2.53283909 12.20842803
v -1.47260685 2.47581152 12.26811387
v -1.47260685 2.31885959 11.94642318
v 1.80011877 2.31885959 11.94642318
v 1.80011877 2.47581152 12.26811387
v 2.12722052 2.52392320 12.21762435
v 2.30443621 2.58700670 12.14838128
v 2.12722052 2.78214511 12.32581594
v 2.10501519 4.02413365 12.35196224
v -1.97991348 4.02413365 12.15721718
v -1.97564331 2.78214511 12.14910260
v -1.80013572 2.42769984 11.94642318
v -1.99870262 2.78214511 11.94642318
v -1.98119471 2.57708149 11.94642318
v -1.80013572 2.40969981 11.64456777
v -1.77451408 2.40128871 11.64456777
v -1.47260685 2.30573840 11.64456777
v 1.80011877 2.30573840 11.64456777
v 2.12722052 2.39170003 11.64456777
v 2.12722052 2.40969981 11.94642318
v 2.31084183 2.78214511 12.16731479
v 2.31681973 2.55924997 11.94642318
v 2.34286848 2.78214511 11.94642318
v 2.27796070 4.02413365 12.20842803
v -2.00297281 4.02413365 11.94642318
v -2.00809720 2.78214511 11.64456777
v -2.00681623 2.76616397 11.64456777
v -1.98589187 2.56597895 11.64456777
v 2.14216624 2.40330736 11.64456777
v 2.31553899 4.02413365 12.17597023
v 2.32194413 2.54797916 11.64456777
v 2.35311730 2.78214511 11.64456777
v 2.34713890 4.02413365 11.94642318
v 2.32194413 4.02413365 12.13070997
v 2.34970086 4.02413365 11.87952454
v -2.00809720 4.02413365 11.64456777
v 2.35354405 3.78929490 11.64456777
v 2.35354405 4.02413365 11.64456777
f 1 2 3
f 1 3 4
f 1 4 5
f 1 5 6
f 1 6 7
f 1 7 8
f 1 8 9
f 1 9 2
f 2 10 11
f 2 11 12
f 2 12 3
f 2 9 13
f 2 13 14
f 2 14 10
f 3 12 15
f 3 15 16
f 3 16 4
f 4 16 5
f 5 16 17
f 5 17 18
f 5 18 19
f 5 19 20
f 5 20 6
f 6 21 7
f 6 20 21
f 7 21 22
f 7 22 23
f 7 23 24
f 7 24 25
f 7 25 8
f 8 25 26
f 8 26 9
f 9 26 13
f 10 14 11
f 11 14 13
f 11 13 26
f 11 26 41
f 11 41 47
f 11 47 51
f 11 51 50
f 11 50 52
f 11 52 55
f 11 55 53
f 11 53 42
f 11 42 27
f 11 27 15
f 11 15 12
f 15 27 16
f 16 27 28
f 16 28 17
f 17 29 18
f 17 28 30
f 17 30 31
f 17 31 29
f 18 29 20
f 18 20 19
f 20 29 32
f 20 32 33
f 20 33 34
f 20 34 35
f 20 35 21
f 21 35 36
f 21 36 37
f 21 37 23
f 21 23 22
f 23 37 24
f 24 38 25
f 24 37 39
f 24 39 40
f 24 40 38
f 25 38 41
f 25 41 26
f 27 42 30
f 27 30 28
f 29 31 32
f 30 42 43
f 30 43 44
f 30 44 31
f 31 44 45
f 31 45 32
f 32 45 44
f 32 44 43
f 32 43 53
f 32 53 55
f 32 55 54
f 32 54 49
f 32 49 48
f 32 48 46
f 32 46 36
f 32 36 35
f 32 35 34
f 32 34 33
f 36 46 37
f 37 46 39
f 38 47 41
f 38 40 47
f 39 48 49
f 39 49 40
f 39 46 48
f 40 50 51
f 40 51 47
f 40 49 52
f 40 52 50
f 42 53 43
f 49 54 52
f 52 54 55

