# https://github.com/mikedh/trimesh
v -3.87352979 -0.16412376 9.98257606
v -3.87437841 -3.10965058 9.98257606
v -3.84977230 -0.16412376 10.30974280
v -3.74965065 -0.16412376 9.65540932
v -3.87437841 -5.72736736 9.98257606
v -3.84977230 -5.72736736 10.30974280
v -3.71316581 -0.16412376 10.54281017
v -3.61304416 -0.16412376 9.48735996
v -3.74965065 -5.72736736 9.65540932
v -3.87268166 -6.05449703 9.98257606
v -3.84892369 -6.05449703 10.30974280
v -3.74880251 -6.05449703 9.65540932
v -3.71316581 -5.72736736 10.53907088
v -3.28807359 -0.16412376 10.81285254
v -3.61219554 -6.05449703 9.48715219
v -0.78418735 -0.16412376 8.82907942
v -0.99376377 -0.30830566 8.83177988
v -1.32043134 -0.92651935 8.83177988
v -1.60212920 -2.12758168 8.84320456
v -3.61134741 -6.38230658 9.48715219
v -3.84552969 -6.38230658 9.98257606
v -3.82431758 -6.38230658 10.30974280
v -3.73352930 -6.38230658 9.65540932
v -3.70128707 -6.38230658 10.53907088
v -3.71231719 -6.05449703 10.53907088
v -3.60625617 -6.56253412 9.48860607
v -3.10904289 -0.16412376 10.86208328
v -0.79691471 -0.18520687 8.82887165
v 3.78576532 -0.16412376 8.83177988
v 1.47278901 -2.12758168 8.77735598
v -1.03279411 -0.49125344 8.82907942
v -1.33400720 -1.14619266 8.82907942
v -1.41291650 -1.80045201 8.82970271
v -1.43837110 -2.12758168 8.83011825
v -1.40697713 -2.45539123 8.82949495
v -1.33231020 -3.10965058 8.82907942
v -1.31958284 -3.31776215 8.83177988
v -3.65377162 -6.68631280 9.66662623
v -3.72504455 -6.70943625 9.98257606
v -3.71316581 -6.70943625 10.30974280
v -3.60710479 -6.87946231 10.48111593
v -3.65037762 -6.70943625 10.51206669
v -3.43655883 -6.70943625 10.57750023
v -3.43655883 -6.38230658 10.60450442
v -3.28892220 -6.87810208 9.48860607
v -3.50783176 -6.78084721 9.56504876
v -3.60965017 -6.88286314 9.78315992
v -0.99291527 -3.94345688 8.83177988
v -0.67049008 -4.27194654 8.83177988
v -2.78237508 -0.16412376 10.89926604
v 3.91219031 -0.16412376 8.84528222
v 3.95376591 -0.27430059 8.83177988
v 4.07425105 -0.50825609 8.83011825
v 4.28128234 -0.81838311 8.82907942
v 4.59607092 -1.80045201 8.82907942
v 4.59691955 -2.12758168 8.82907942
v 4.59607092 -2.45539123 8.82907942
v 4.27873648 -3.43678025 8.82928718
v 4.07170568 -3.74350669 8.82928718
v 3.08236936 -4.72353523 8.82928718
v 2.45448895 -4.95136994 8.82907942
v 1.47278901 -5.24381443 8.83157212
v 0.49024063 -4.93912785 8.82907942
v -0.16309463 -4.63512212 8.82907942
v -0.46770159 -4.39572569 8.82804108
v -0.79521771 -4.06791590 8.82804108
v -1.02261237 -3.76390968 8.82907942
v -1.36031030 -2.78252090 8.82907942
v -1.36285580 -1.47332233 8.82907942
v -3.61474140 -6.88762322 9.98257606
v -3.61304416 -6.88558311 10.30974280
v -3.43655883 -6.97467660 10.30974280
v -3.10904289 -7.06989136 10.30974280
v -3.43655883 -6.91822819 10.51206669
v -3.10904289 -6.96107476 10.53907088
v -3.10904289 -6.70943625 10.60450442
v -3.10904289 -6.88218278 9.48715219
v -2.78152644 -7.00256062 9.65540932
v -3.10904289 -6.99031902 9.65540932
v -3.41364948 -6.92094865 9.66662623
v -0.34382245 -4.59431565 8.83177988
v 0.26963393 -4.92212568 8.83177988
v 1.00018152 -5.22205071 8.83925799
v 1.21909125 -5.24109396 8.83385705
v -3.43655883 -6.98487809 9.98257606
v 3.10867271 -0.16412376 10.89947380
v 4.03182684 -0.16412376 8.97282506
v 4.17267594 -0.41032110 8.91611621
v 4.26431237 -0.62795406 8.83177988
v 4.58928293 -1.47332233 8.83261095
v 4.69449533 -1.80045201 9.00086807
v 4.70213194 -2.12758168 9.00086807
v 4.69279857 -2.45539123 9.00086807
v 4.59013155 -2.71655087 8.83177988
v 4.26346374 -3.62244825 8.83219542
v 3.95037191 -3.96658058 8.83177988
v 3.63982546 -4.28894920 8.83177988
v 3.30721877 -4.59975657 8.83177988
v 2.95594485 -4.91396429 8.83427259
v 2.78200490 -4.92416579 8.83094882
v 1.79945658 -5.24177384 8.83344152
v 3.43618865 -6.88218278 9.48715219
v 3.10867271 -6.88286314 9.48715219
v -2.78152644 -6.88286314 9.48715219
v -3.10904289 -7.08961448 9.98257606
v -2.78152644 -7.11205758 9.98257606
v -2.78152644 -7.08825376 10.30974280
v -2.78152644 -6.96855580 10.53907088
v 3.43618865 -6.70943625 10.60450442
v 3.10867271 -7.00256062 9.65540932
v 3.76370508 -6.38230658 10.60450442
v 3.43534002 -0.16412376 10.87288515
v 4.05388757 -0.16412376 9.00460688
v 4.26176698 -0.31714692 9.13443514
v 4.30419121 -0.50825609 9.01540875
v 4.58673755 -0.97004604 9.14087442
v 4.58249493 -1.30601698 8.83655752
v 4.77849562 -1.80045201 9.32803481
v 4.79376837 -2.12758168 9.32803481
v 4.66225261 -1.47332233 9.00086807
v 4.77595025 -2.45539123 9.32803481
v 4.64358589 -2.80836482 8.96929401
v 4.56976758 -2.93418383 8.83925799
v 3.93340242 -6.56321401 9.48860607
v 3.61691659 -6.87810208 9.48860607
v 1.97254803 -5.23769314 8.83634976
v 3.10867271 -7.11205758 9.98257606
v 3.10867271 -7.08825376 10.30974280
v 3.10867271 -6.96855580 10.53907088
v 3.43618865 -6.96107476 10.53907088
v 3.76370508 -6.70943625 10.57853857
v 3.43618865 -6.99099889 9.65540932
v 4.03097821 -6.38230658 10.53907088
v 3.62879534 -0.16412376 10.82323888
v 4.06152369 -0.16412376 9.01914805
v 4.36443402 -0.49125344 9.32803481
v 4.17606993 -0.16412376 9.30331556
v 4.21000940 -0.16412376 9.66496460
v 4.51631324 -0.79934011 9.32803481
v 4.59013155 -0.96324488 9.32803481
v 4.64697989 -1.14619266 9.32803481
v 4.72928343 -1.47332233 9.32803481
v 4.60794966 -1.17679739 9.01935533
v 4.65631324 -1.47332233 9.59662331
v 4.68007121 -1.80045201 9.61054069
v 4.68770734 -2.12758168 9.61303339
v 4.67922260 -2.45539123 9.61012516
v 4.17861532 -6.38230658 9.98257606
v 4.72334406 -2.78252090 9.32803481
v 4.18200930 -6.05449703 10.30974280
v 4.15740320 -6.38230658 10.30974280
v 4.60964642 -3.10965058 9.07689523
v 4.06406954 -6.38230658 9.65540932
v 3.93849318 -6.88354300 9.77942111
v 3.83497801 -6.78084721 9.56130995
v 3.98261463 -6.68699316 9.66434130
v 3.74079573 -6.92162853 9.66434130
v 3.43618865 -7.09029436 9.98257606
v 3.43618865 -7.06989136 10.30974280
v 3.76370508 -6.91958842 10.51289775
v 3.93594779 -6.88082255 10.48236203
v 3.98006926 -6.70943625 10.51289775
v 4.04285695 -6.05449703 10.53907088
v 4.04370557 -5.72736736 10.53907088
v 4.04370557 -0.49125344 10.54281017
v 4.04370557 -0.16412376 10.54301794
v 4.20746354 -0.16412376 9.98216053
v 4.58758618 -0.96868581 9.50439334
v 4.61473766 -1.14619266 9.54801538
v 4.18370606 -0.16412376 10.30932727
v 4.04455419 -6.70943625 10.30974280
v 4.05643294 -6.70943625 9.98257606
v 3.94443254 -6.88898394 9.98257606
v 3.76370508 -6.98691868 9.98257606
v 3.76370508 -6.97671670 10.30974280
v 3.94188716 -6.88694334 10.30974280
f 1 2 3
f 1 3 7
f 1 7 14
f 1 14 27
f 1 27 50
f 1 50 86
f 1 86 112
f 1 112 134
f 1 134 166
f 1 166 170
f 1 170 167
f 1 167 138
f 1 138 137
f 1 137 135
f 1 135 113
f 1 113 87
f 1 87 51
f 1 51 29
f 1 29 16
f 1 16 8
f 1 8 4
f 1 4 2
f 2 4 9
f 2 9 5
f 2 5 6
f 2 6 3
f 3 6 7
f 4 8 9
f 5 10 11
f 5 11 6
f 5 9 12
f 5 12 10
f 6 11 25
f 6 25 13
f 6 13 7
f 7 13 14
f 8 15 9
f 8 16 17
f 8 17 18
f 8 18 19
f 8 19 15
f 9 15 20
f 9 20 12
f 10 21 22
f 10 22 11
f 10 12 23
f 10 23 21
f 11 22 24
f 11 24 25
f 12 20 26
f 12 26 23
f 13 25 14
f 14 25 24
f 14 24 27
f 15 19 20
f 16 28 17
f 16 29 30
f 16 30 28
f 17 28 31
f 17 31 18
f 18 31 32
f 18 32 19
f 19 32 33
f 19 33 34
f 19 34 35
f 19 35 36
f 19 36 37
f 19 37 26
f 19 26 20
f 21 23 38
f 21 38 39
f 21 39 40
f 21 40 22
f 22 40 41
f 22 41 42
f 22 42 24
f 23 26 38
f 24 42 43
f 24 43 44
f 24 44 27
f 26 45 46
f 26 46 47
f 26 47 38
f 26 37 48
f 26 48 49
f 26 49 45
f 27 44 50
f 28 30 31
f 29 51 52
f 29 52 30
f 30 52 53
f 30 53 54
f 30 54 55
f 30 55 56
f 30 56 57
f 30 57 58
f 30 58 59
f 30 59 60
f 30 60 61
f 30 61 62
f 30 62 63
f 30 63 64
f 30 64 65
f 30 65 66
f 30 66 67
f 30 67 36
f 30 36 68
f 30 68 35
f 30 35 33
f 30 33 69
f 30 69 32
f 30 32 31
f 32 69 33
f 33 35 34
f 35 68 36
f 36 67 37
f 37 67 48
f 38 47 39
f 39 47 70
f 39 70 71
f 39 71 40
f 40 71 41
f 41 72 73
f 41 73 74
f 41 74 43
f 41 43 42
f 41 71 72
f 43 74 75
f 43 75 76
f 43 76 44
f 44 76 50
f 45 77 78
f 45 78 79
f 45 79 80
f 45 80 47
f 45 47 46
f 45 49 81
f 45 81 82
f 45 82 83
f 45 83 84
f 45 84 77
f 47 80 85
f 47 85 70
f 48 67 66
f 48 66 49
f 49 66 65
f 49 65 81
f 50 76 86
f 51 87 88
f 51 88 89
f 51 89 52
f 52 89 53
f 53 89 54
f 54 89 90
f 54 90 55
f 55 90 91
f 55 91 92
f 55 92 56
f 56 92 57
f 57 92 93
f 57 93 94
f 57 94 58
f 58 94 95
f 58 95 59
f 59 95 96
f 59 96 97
f 59 97 60
f 60 97 98
f 60 98 99
f 60 99 100
f 60 100 61
f 61 100 101
f 61 101 62
f 62 101 102
f 62 102 103
f 62 103 104
f 62 104 77
f 62 77 84
f 62 84 63
f 63 82 64
f 63 84 82
f 64 81 65
f 64 82 81
f 70 85 71
f 71 85 72
f 72 85 105
f 72 105 73
f 73 75 74
f 73 105 106
f 73 106 107
f 73 107 75
f 75 107 108
f 75 108 76
f 76 108 129
f 76 129 109
f 76 109 86
f 77 104 78
f 78 106 79
f 78 104 103
f 78 103 110
f 78 110 127
f 78 127 106
f 79 106 105
f 79 105 80
f 80 105 85
f 82 84 83
f 86 109 111
f 86 111 112
f 87 113 114
f 87 114 88
f 88 114 89
f 89 114 115
f 89 115 116
f 89 116 117
f 89 117 90
f 90 117 91
f 91 118 119
f 91 119 92
f 91 117 120
f 91 120 118
f 92 119 93
f 93 119 121
f 93 121 122
f 93 122 94
f 94 122 123
f 94 123 95
f 95 123 124
f 95 124 96
f 96 124 97
f 97 124 125
f 97 125 98
f 98 125 99
f 99 125 126
f 99 126 100
f 100 126 101
f 101 126 125
f 101 125 102
f 102 125 110
f 102 110 103
f 106 127 128
f 106 128 107
f 107 128 129
f 107 129 108
f 109 129 130
f 109 130 131
f 109 131 111
f 110 125 132
f 110 132 127
f 111 131 133
f 111 133 112
f 112 133 134
f 113 135 114
f 114 136 116
f 114 116 115
f 114 135 137
f 114 137 138
f 114 138 136
f 116 139 140
f 116 140 141
f 116 141 142
f 116 142 143
f 116 143 117
f 116 136 139
f 117 143 120
f 118 120 142
f 118 142 144
f 118 144 145
f 118 145 119
f 119 145 146
f 119 146 147
f 119 147 121
f 120 143 142
f 121 148 149
f 121 149 122
f 121 147 150
f 121 150 151
f 121 151 148
f 122 152 148
f 122 148 123
f 122 149 152
f 123 148 153
f 123 153 124
f 124 154 155
f 124 155 125
f 124 153 156
f 124 156 154
f 125 157 132
f 125 155 154
f 125 154 157
f 127 132 158
f 127 158 159
f 127 159 128
f 128 159 130
f 128 130 129
f 130 159 160
f 130 160 131
f 131 160 161
f 131 161 162
f 131 162 133
f 132 157 158
f 133 162 151
f 133 151 150
f 133 150 163
f 133 163 134
f 134 163 164
f 134 164 165
f 134 165 166
f 136 138 139
f 138 167 139
f 139 168 140
f 139 167 168
f 140 168 141
f 141 168 142
f 142 168 169
f 142 169 144
f 144 169 170
f 144 170 145
f 145 170 166
f 145 166 146
f 146 166 165
f 146 165 164
f 146 164 163
f 146 163 150
f 146 150 147
f 148 151 171
f 148 171 172
f 148 172 156
f 148 156 153
f 148 152 149
f 151 162 161
f 151 161 171
f 154 173 174
f 154 174 157
f 154 156 172
f 154 172 173
f 157 174 158
f 158 174 175
f 158 175 159
f 159 175 161
f 159 161 160
f 161 175 176
f 161 176 171
f 167 170 168
f 168 170 169
f 171 176 172
f 172 176 173
f 173 176 174
f 174 176 175

