# https://github.com/mikedh/trimesh
v -2.78160912 1.19718671 11.62677990
v -2.78160912 1.47285899 11.59841499
v -3.11416387 1.47097374 11.53724552
v -3.13529818 1.19718671 11.54341168
v 2.47586372 1.19718671 10.62414268
v 1.79956558 2.26719736 10.91593071
v -2.78160912 1.71155848 11.51060712
v -3.00911388 1.69710461 11.50320754
v -3.29504862 1.36057914 11.48988858
v -3.28696795 1.19718671 11.49284851
v 2.47586372 1.19718671 9.27446684
v 2.47586372 2.12737122 10.63080191
v 2.11222919 2.26719736 10.85106145
v -1.47252443 2.26719736 10.91420420
v -2.78160912 2.08966515 11.23756434
v -2.78160912 1.87505564 11.40109406
v -3.10919091 2.05478732 11.21265244
v -3.29318385 2.00116106 11.16776186
v -3.29504862 1.20189997 11.48988858
v -3.63941384 2.26719736 10.50821619
v -3.66862883 2.12737122 10.52696193
v -3.83273064 1.80006268 10.31015541
v -3.85013541 1.47285899 10.31015541
v -3.29629180 1.19718671 11.48100879
v 2.43918940 1.19718671 9.25300795
v 2.26141259 2.26719736 9.10699055
v 2.47586372 2.26719736 9.35191520
v 2.47586372 2.26719736 10.63080191
v -3.43615133 2.26719736 10.55853307
v -3.85013541 1.19718671 10.31015541
v -3.68106088 2.26719736 10.31015541
v -3.75192291 2.12737122 10.31015541
v -3.85572972 1.80006268 9.98284918
v -3.87437768 1.47285899 9.98284918
v 2.26762849 1.19718671 9.16421344
v 2.16755122 1.19802460 9.10699055
v 2.25146691 2.12737122 9.10699055
v -1.93747952 2.26719736 9.10699055
v -3.87437768 1.19718671 9.98284918
v -3.68914155 2.26719736 9.98284918
v -3.76621973 2.12737122 9.98284918
v -3.67049359 2.11752576 9.63408406
v -3.73949109 1.80006268 9.65554295
v -3.74943655 1.47285899 9.65554295
v 1.79956558 1.19718671 9.10699055
v -1.93561462 2.24090791 9.10699055
v -3.61268521 1.19718671 9.48708001
v -3.61268521 1.47285899 9.48708001
v -3.61144202 1.80006268 9.48708001
v -3.60646906 2.00189422 9.48880652
v -3.52876952 2.22006500 9.51075849
v -3.40072021 2.26719736 9.49768631
v -3.74943655 1.19718671 9.65554295
v -3.67111519 2.26719736 9.80304057
v -3.64252179 2.26719736 9.70240682
v -3.57538929 2.26719736 9.60867909
v -3.72830223 1.19718671 9.62890455
v 0.35683737 1.19718671 9.10699055
v -1.89956201 1.96460721 9.10699055
v -1.79886316 1.65877024 9.10699055
v -1.70002918 1.54156753 9.10699055
v -1.65465261 1.29815479 9.15706064
v -1.54587295 1.19718671 9.23426270
v -3.49768952 2.26719736 9.54874305
v -1.14494253 1.37398564 9.10699055
v -1.47252443 1.43211568 9.10699055
f 1 2 3
f 1 3 4
f 1 4 10
f 1 10 24
f 1 24 30
f 1 30 39
f 1 39 53
f 1 53 57
f 1 57 47
f 1 47 63
f 1 63 58
f 1 58 45
f 1 45 35
f 1 35 25
f 1 25 11
f 1 11 5
f 1 5 6
f 1 6 2
f 2 7 8
f 2 8 3
f 2 6 7
f 3 9 4
f 3 8 9
f 4 9 10
f 5 11 27
f 5 27 28
f 5 28 12
f 5 12 13
f 5 13 6
f 6 13 28
f 6 28 27
f 6 27 26
f 6 26 38
f 6 38 52
f 6 52 64
f 6 64 56
f 6 56 55
f 6 55 54
f 6 54 40
f 6 40 31
f 6 31 20
f 6 20 29
f 6 29 14
f 6 14 15
f 6 15 16
f 6 16 7
f 7 16 8
f 8 16 15
f 8 15 17
f 8 17 18
f 8 18 9
f 9 19 10
f 9 18 20
f 9 20 21
f 9 21 22
f 9 22 23
f 9 23 30
f 9 30 19
f 10 19 24
f 11 25 26
f 11 26 27
f 12 28 13
f 14 29 15
f 15 29 20
f 15 20 17
f 17 20 18
f 19 30 24
f 20 31 32
f 20 32 21
f 21 32 22
f 22 32 33
f 22 33 34
f 22 34 23
f 23 34 39
f 23 39 30
f 25 35 36
f 25 36 37
f 25 37 26
f 26 37 36
f 26 36 45
f 26 45 58
f 26 58 65
f 26 65 66
f 26 66 61
f 26 61 60
f 26 60 59
f 26 59 46
f 26 46 38
f 31 40 41
f 31 41 32
f 32 41 33
f 33 41 42
f 33 42 43
f 33 43 34
f 34 43 44
f 34 44 53
f 34 53 39
f 35 45 36
f 38 46 47
f 38 47 48
f 38 48 49
f 38 49 50
f 38 50 51
f 38 51 52
f 40 54 41
f 41 54 42
f 42 54 55
f 42 55 56
f 42 56 51
f 42 51 50
f 42 50 43
f 43 50 49
f 43 49 44
f 44 49 48
f 44 48 57
f 44 57 53
f 46 59 47
f 47 59 60
f 47 60 61
f 47 61 62
f 47 62 63
f 47 57 48
f 51 56 64
f 51 64 52
f 58 63 62
f 58 62 65
f 61 66 62
f 62 66 65

