# https://github.com/mikedh/trimesh
v -2.00891986 3.27641529 20.28908240
v -2.00934685 2.78187735 21.11057955
v -2.00934685 3.10917407 21.11057955
v -2.00891986 3.27641529 21.11057955
v -2.00080382 3.27641529 20.12128811
v -1.99482373 1.05219228 20.78341232
v -1.99610520 1.14561227 20.78341232
v -2.00507546 1.80020546 20.78341232
v -2.00806539 2.12750193 20.78341232
v -2.00891986 2.45458088 20.78341232
v -2.00891986 2.45458088 21.11057955
v -1.98585371 2.12750193 21.33921751
v -1.98628070 2.45458088 21.33816503
v -1.98628070 2.78187735 21.33332301
v -1.99781390 3.27641529 21.21563540
v -1.99097933 3.27641529 19.95201996
v -1.99482373 1.05219228 21.11057955
v -1.97944638 1.05219228 20.58572220
v -1.99610520 1.14561227 21.11057955
v -2.00507546 1.80020546 21.11057955
v -2.00806539 2.12750193 21.11057955
v -1.98414501 1.80020546 21.33627026
v -1.84745682 1.80020546 21.49985363
v -1.84403965 2.12750193 21.50301206
v -1.98628070 3.10917407 21.32532257
v -1.98628070 3.27641529 21.32005917
v -1.98286353 3.27641529 19.88170221
v -1.99097933 1.05219228 21.17037074
v -1.86838726 3.27641529 19.73243493
v -1.80047029 3.27641529 19.66401170
v -1.92861545 1.05219228 20.54361597
v -1.97944638 1.05219228 21.32363849
v -1.84788406 1.05219228 21.48722186
v -1.84788406 1.14561227 21.48890642
v -1.80089753 1.05219228 21.52595994
v -1.68428557 1.05219228 21.61712035
v -1.68385833 1.80020546 21.61543628
v -1.68044117 2.12750193 21.61417310
v -1.83421517 2.45458088 21.50195909
v -1.80004330 3.10917407 21.47669506
v -1.80004330 3.27641529 21.45901058
v -1.68385833 3.27641529 19.60990481
v -1.80004330 1.05219228 20.44024445
v -1.47241909 1.05219228 21.64259458
v -1.67018944 2.45458088 21.61101516
v -1.65481209 2.69847451 21.60659355
v -1.77825862 2.79733859 21.51690701
v -1.47241909 3.27641529 21.55248714
v -1.70777871 1.05219228 20.40255934
v -1.47241909 3.27641529 19.58190422
v -1.47626324 1.05219228 20.32508343
v -0.82186916 1.05219228 21.68701696
v -1.47241909 2.73876034 21.60911990
v -1.47241909 2.90229982 21.59901449
v -1.47241909 3.10917407 21.57732979
v -0.16363062 1.05219228 21.72112322
v 0.16399361 1.05219228 21.72933436
v 1.79997916 3.27641529 21.55248714
v -1.21143014 3.27641529 19.57937787
v 0.79233166 1.05219228 20.26950291
v 0.12426864 1.05219228 20.28129264
v 1.79997916 2.90229982 21.59901449
v 1.79997916 3.10917407 21.57732979
v 0.36859858 1.05219228 21.72533414
v 1.79997916 2.73876034 21.60911990
v 1.98493509 2.69847451 21.60659355
v 1.96742205 3.27641529 21.51543314
v -1.14522186 3.27641529 19.57874628
v 1.47278194 3.27641529 19.57874628
v 1.79997916 3.27641529 19.58127264
v 1.80467779 1.05219228 20.32487274
v 0.49076355 1.05219228 21.72133391
v 2.00330261 2.45458088 21.61101516
v 2.16690110 2.45458088 21.52301220
v 2.10752715 2.79733859 21.53269672
v 2.12717614 3.10917407 21.49395913
v 2.12717614 3.27641529 21.47459009
v 0.69921290 1.05219228 21.71270237
v 1.38820614 1.05219228 21.68217494
v 1.97639207 3.27641529 19.59769394
v 2.01825273 3.27641529 19.60779960
v 2.12717614 1.05219228 20.42255973
v 1.70643310 1.05219228 21.66175342
v 2.01483558 2.12750193 21.61417310
v 2.17843430 2.12750193 21.52511766
v 2.32238380 3.10917407 21.34258615
v 2.32238380 3.27641529 21.33563867
v 2.22670206 3.27641529 21.40953550
v 2.20790753 3.27641529 19.71222361
v 2.31554949 1.05219228 20.56845862
v 1.95674332 1.05219228 21.63164737
v 2.01867996 1.80020546 21.61543628
v 2.01953419 1.05219228 21.61733104
v 2.18227846 1.80020546 21.52301220
v 2.32238380 2.45458088 21.35942883
v 2.32238380 2.78187735 21.35311295
v 2.35399299 3.27641529 21.11057955
v 2.24976821 3.27641529 19.75180372
v 2.31896664 3.27641529 19.86170158
v 2.33348976 1.05219228 20.72256865
v 2.18313293 1.05219228 21.51269609
v 2.18270570 1.47290874 21.51859108
v 2.32195657 2.12750193 21.36132360
v 2.35399299 2.45458088 21.11057955
v 2.35441997 3.10917407 20.45624509
v 2.35399299 3.27641529 20.45624509
v 2.34288703 3.27641529 20.11539312
v 2.33989686 1.05219228 20.78341232
v 2.27838721 1.05219228 21.39585076
v 2.32024812 1.80020546 21.35942883
v 2.35313850 2.12750193 21.11057955
v 2.35399299 2.45458088 20.78341232
v 2.35313850 2.12750193 20.78341232
v 2.35271151 2.78187735 20.45624509
v 2.33989686 1.05219228 21.11057955
v 2.34117832 1.14561227 20.78341232
v 2.31554949 1.05219228 21.34911272
v 2.35014858 1.80020546 21.11057955
v 2.35014858 1.80020546 20.78341232
v 2.34117832 1.14561227 21.11057955
f 1 2 3
f 1 3 4
f 1 4 15
f 1 15 26
f 1 26 41
f 1 41 48
f 1 48 58
f 1 58 67
f 1 67 77
f 1 77 88
f 1 88 87
f 1 87 97
f 1 97 106
f 1 106 107
f 1 107 99
f 1 99 98
f 1 98 89
f 1 89 81
f 1 81 80
f 1 80 70
f 1 70 69
f 1 69 68
f 1 68 59
f 1 59 50
f 1 50 42
f 1 42 30
f 1 30 29
f 1 29 27
f 1 27 16
f 1 16 5
f 1 5 6
f 1 6 7
f 1 7 8
f 1 8 9
f 1 9 10
f 1 10 2
f 2 10 11
f 2 11 12
f 2 12 13
f 2 13 3
f 3 13 14
f 3 14 15
f 3 15 4
f 5 16 6
f 6 17 19
f 6 19 7
f 6 16 18
f 6 18 31
f 6 31 43
f 6 43 49
f 6 49 51
f 6 51 61
f 6 61 60
f 6 60 71
f 6 71 82
f 6 82 90
f 6 90 100
f 6 100 108
f 6 108 115
f 6 115 117
f 6 117 109
f 6 109 101
f 6 101 93
f 6 93 91
f 6 91 83
f 6 83 79
f 6 79 78
f 6 78 72
f 6 72 64
f 6 64 57
f 6 57 56
f 6 56 52
f 6 52 44
f 6 44 36
f 6 36 35
f 6 35 33
f 6 33 32
f 6 32 28
f 6 28 17
f 7 19 20
f 7 20 8
f 8 20 21
f 8 21 9
f 9 21 11
f 9 11 10
f 11 21 12
f 12 21 22
f 12 22 23
f 12 23 13
f 13 23 24
f 13 24 14
f 14 25 15
f 14 24 25
f 15 25 26
f 16 27 18
f 17 28 19
f 18 27 29
f 18 29 30
f 18 30 31
f 19 28 20
f 20 28 32
f 20 32 21
f 21 32 22
f 22 32 33
f 22 33 34
f 22 34 23
f 23 35 36
f 23 36 24
f 23 34 35
f 24 36 37
f 24 37 38
f 24 38 39
f 24 39 26
f 24 26 25
f 26 39 40
f 26 40 41
f 30 42 43
f 30 43 31
f 33 35 34
f 36 44 37
f 37 44 38
f 38 45 39
f 38 44 45
f 39 45 46
f 39 46 47
f 39 47 40
f 40 47 46
f 40 46 41
f 41 46 48
f 42 49 43
f 42 50 51
f 42 51 49
f 44 52 45
f 45 52 46
f 46 53 54
f 46 54 55
f 46 55 48
f 46 52 56
f 46 56 57
f 46 57 53
f 48 55 63
f 48 63 58
f 50 59 60
f 50 60 61
f 50 61 51
f 53 57 54
f 54 57 62
f 54 62 63
f 54 63 55
f 57 64 65
f 57 65 62
f 58 63 66
f 58 66 67
f 59 68 60
f 60 68 69
f 60 69 70
f 60 70 71
f 62 65 66
f 62 66 63
f 64 72 66
f 64 66 65
f 66 73 74
f 66 74 75
f 66 75 76
f 66 76 77
f 66 77 67
f 66 72 78
f 66 78 79
f 66 79 73
f 70 80 71
f 71 80 81
f 71 81 82
f 73 79 83
f 73 83 84
f 73 84 74
f 74 76 75
f 74 84 85
f 74 85 86
f 74 86 87
f 74 87 88
f 74 88 76
f 76 88 77
f 81 89 82
f 82 89 90
f 83 91 84
f 84 92 85
f 84 91 92
f 85 92 93
f 85 93 94
f 85 94 95
f 85 95 96
f 85 96 86
f 86 96 97
f 86 97 87
f 89 98 90
f 90 98 99
f 90 99 100
f 91 93 92
f 93 101 102
f 93 102 94
f 94 102 103
f 94 103 95
f 95 103 104
f 95 104 97
f 95 97 96
f 97 104 105
f 97 105 106
f 99 107 108
f 99 108 100
f 101 109 110
f 101 110 102
f 102 110 103
f 103 110 111
f 103 111 104
f 104 111 113
f 104 113 112
f 104 112 105
f 105 112 113
f 105 113 114
f 105 114 107
f 105 107 106
f 107 114 108
f 108 114 116
f 108 116 120
f 108 120 115
f 109 117 110
f 110 117 111
f 111 118 119
f 111 119 113
f 111 117 118
f 113 119 114
f 114 119 116
f 115 120 117
f 116 119 118
f 116 118 120
f 117 120 118

