# https://github.com/mikedh/trimesh
v 0.16379627 -1.43752114 6.76729951
v 0.09542576 -1.44420086 6.76729951
v 0.16379627 -1.55459131 7.01829131
v 0.49084695 -1.57076315 6.98879150
v 0.49084695 -1.46845861 6.76729951
v -0.16360685 -1.47197429 6.76729951
v -0.16360685 -1.57287251 6.98543310
v 0.16379627 -1.73529414 7.36426037
v 0.49084695 -1.76588010 7.36426037
v -0.16360685 -1.76939565 7.36426037
v 0.74318347 -1.60416162 6.92943096
v 0.82177429 -1.55775535 6.76729951
v -0.22810066 -1.48779449 6.76729951
v -0.40854241 -1.60556782 6.92727234
v 0.16379627 -1.88927834 7.61848961
v 0.49084695 -1.90439550 7.60350024
v -0.16360685 -1.90615334 7.60182153
v 0.71040793 -1.93498145 7.56776355
v -0.37893871 -1.93638765 7.56644477
v 0.96168718 -1.64459121 6.85627984
v 0.87322839 -1.57498186 6.76729951
v -0.48713324 -1.56197419 6.76729951
v -0.54634069 -1.58306790 6.76729951
v -0.62669369 -1.64845841 6.84836523
v 0.16379627 -2.12763728 7.77666376
v 0.49084695 -2.12763728 7.75711719
v -0.16360685 -2.12763728 7.75423871
v 0.81895488 -2.11462948 7.65398635
v 1.07023413 -2.21482478 7.59894305
v 0.92855920 -1.99650476 7.47278727
v -0.59708993 -2.00072347 7.46583248
v -0.73665038 -2.21869186 7.59678443
v -0.48924784 -2.11673884 7.65122784
v 1.09666611 -1.69099735 6.76729951
v 0.99516752 -1.62455217 6.76729951
v 1.13930955 -1.86888779 7.02800461
v 1.34089675 -1.93638765 6.91300185
v -0.75568131 -1.69380987 6.76729951
v -1.00837023 -1.94025485 6.90700591
v -0.80854514 -1.87591903 7.02452721
v 0.16379627 -2.31115275 7.84969489
v 0.49084695 -2.33716835 7.84513868
v -0.16360685 -2.34173871 7.84393890
v 0.82635581 -2.45142612 7.82199376
v -0.49629633 -2.45423852 7.81959519
v 1.16574141 -2.43806668 7.66621819
v 1.36309964 -2.53615237 7.58551240
v 1.28838541 -2.31783247 7.49833075
v 1.15728324 -2.11638745 7.37661219
v -0.82369943 -2.12166084 7.36797772
v -0.95480165 -2.32697295 7.48813755
v -1.02986820 -2.54494145 7.58107519
v -0.83462463 -2.44369172 7.66166100
v 1.14882496 -1.72791139 6.76729951
v 1.50054549 -2.02357503 6.76729951
v 1.38318782 -1.89947362 6.76729951
v 1.64257292 -2.28197312 6.88218228
v -0.86105648 -1.76588010 6.76729951
v -1.04784189 -1.90545018 6.76729951
v -1.20713826 -2.08826249 6.76729951
v -1.25647776 -2.14837972 6.76729951
v -1.30898910 -2.29111384 6.87342881
v 0.16379627 -2.47462907 7.89154751
v 0.49084695 -2.50064466 7.88243313
v 0.72274280 -2.55794925 7.86720380
v -0.16360685 -2.50556667 7.88159426
v -0.39092115 -2.56287125 7.86636395
v 0.94089408 -2.67783182 7.84789621
v 1.12591732 -2.78505847 7.80448584
v -0.79515297 -2.79103491 7.79932876
v -0.60907243 -2.68767582 7.84705734
v 1.41384888 -2.78224583 7.63359994
v 1.57772658 -2.78224583 7.42182125
v 1.64292529 -2.60716804 7.21424079
v 1.46776995 -2.46267595 7.35634576
v -1.13453851 -2.47216807 7.34519274
v -1.30969385 -2.61736319 7.20224890
v -1.24132330 -2.78224583 7.40359346
v -1.07744559 -2.78224583 7.62784395
v 1.54283656 -2.07560609 6.76729951
v 1.68451137 -2.48060551 7.00953784
v 1.75711113 -2.39728557 6.76729951
v 1.66935715 -2.24154341 6.76729951
v -1.33365885 -2.25455121 6.76729951
v -1.44678732 -2.46126963 6.76729951
v -1.34669859 -2.48693383 7.00426078
v 0.16379627 -2.78224583 7.95750290
v 0.49084695 -2.78224583 7.93843625
v 0.82635581 -2.78505847 7.88435179
v -0.16360685 -2.78224583 7.93651661
v -0.49629633 -2.79103491 7.88219317
v 1.00397818 -2.89615196 7.86108787
v 1.19182089 -3.10955011 7.82199376
v -0.67109923 -2.90599572 7.85964814
v -0.85541767 -3.10955011 7.81791648
v 1.45014863 -3.10955011 7.65830358
v 1.61367397 -3.10955011 7.48382031
v 1.78248562 -2.78224583 7.03699901
v 1.91429277 -2.78224583 6.76729951
v 1.91076856 -2.77240207 6.76729951
v 1.80222142 -2.48447283 6.76729951
v -1.56167790 -2.76748032 6.76729951
v -1.43762440 -2.78224583 7.03699901
v -1.27762330 -3.10955011 7.46571250
v -1.11374535 -3.10955011 7.65422630
v -0.16360685 -3.10955011 7.97249325
v 0.16379627 -3.10955011 7.99215980
v 0.49084695 -3.10955011 7.97465187
v 0.81789764 -3.10955011 7.91816982
v -0.49065751 -3.10955011 7.91385258
v 1.02794319 -3.10955011 7.86720380
v 1.02195189 -3.43650274 7.86552509
v 1.18547721 -3.43650274 7.81983515
v 1.44591943 -3.43650274 7.65626494
v -0.69153996 -3.10955011 7.86504518
v -1.10986876 -3.43650274 7.65194771
v -0.84977891 -3.43650274 7.81563789
v -0.68590114 -3.43650274 7.86348645
v 1.60979738 -3.43650274 7.47554577
v 1.94706831 -3.10955011 6.83265599
v 1.92134120 -2.81810518 6.76729951
v -1.60255924 -2.96787066 6.76729951
v -1.61101764 -3.10955011 6.81059088
v -1.49647944 -3.10955011 7.03699901
v -1.27339409 -3.43650274 7.45731798
v -1.48802103 -3.43650274 7.03699901
v -0.16360685 -3.43650274 7.96853595
v 0.16379627 -3.43650274 7.99012116
v 0.49084695 -3.43650274 7.97081455
v 0.81789764 -3.43650274 7.91349265
v -0.49065751 -3.43650274 7.90941537
v 0.99587239 -3.62880705 7.85880928
v 1.12098337 -3.74798658 7.79177408
v 1.39728492 -3.76380702 7.62028830
v -1.06088163 -3.76380702 7.61357346
v -0.79092389 -3.74201014 7.78517825
v -0.66334594 -3.61861190 7.85760950
v 1.56997316 -3.77962721 7.36282064
v 1.66160373 -3.68118988 7.25285499
v 1.73667034 -3.77962721 7.05966402
v 1.94319173 -3.43650274 6.82210286
v 1.96433702 -3.43650274 6.76729951
v 1.96715650 -3.31908093 6.76729951
v 1.97209044 -3.10955011 6.76729951
v 1.95658384 -3.01919857 6.76729951
v -1.62758160 -3.10955011 6.76729951
v -1.62581950 -3.19111257 6.76729951
v -1.60714081 -3.43650274 6.80015772
v -1.39850519 -3.76872877 7.05378805
v -1.32801991 -3.66290868 7.24026321
v -1.23216039 -3.76872877 7.35538594
v -0.47867507 -3.74201014 7.87523838
v -0.16360685 -3.76380702 7.92332592
v 0.16379627 -3.76380702 7.94527106
v 0.49084695 -3.76380702 7.92524458
v 0.81014428 -3.74798658 7.87727702
v 0.91375729 -3.84677555 7.84429884
v 1.15058719 -4.09181458 7.64475199
v 1.34618307 -3.98318160 7.57064203
v 0.81014428 -4.07599414 7.80472482
v -1.01295181 -3.97404112 7.56488604
v -0.47867507 -4.07353313 7.80112745
v -0.57946867 -3.83658040 7.84250015
v -0.81947035 -4.08654093 7.63839611
v 1.62636133 -3.89915838 7.18390113
v 1.88433670 -3.78279125 6.76729951
v 1.69367452 -4.01868931 6.96576656
v 1.92979937 -3.60033070 6.76729951
v -1.61982818 -3.43650274 6.76729951
v -1.61313213 -3.46954970 6.76729951
v -1.59727291 -3.54161980 6.76729951
v -1.54158973 -3.76697106 6.76729951
v -1.51797735 -3.83271308 6.76729951
v -1.36044308 -4.00954883 6.95593329
v -1.29312989 -3.88122883 7.17418686
v -0.36131745 -3.95259589 7.86060796
v -0.16360685 -4.00146279 7.87235990
v -0.16360685 -4.16529100 7.83446556
v 0.16379627 -4.03872847 7.88147428
v 0.49084695 -4.16915807 7.83554439
v 0.49084695 -4.00533012 7.87319974
v 0.69560608 -3.95681461 7.86144781
v 1.04521190 -4.30415804 7.58155510
v 1.40715282 -4.09181458 7.36054204
v 1.26336329 -4.20115010 7.46703128
v 0.78829388 -4.41525129 7.61705086
v 0.49084695 -4.41841557 7.70003525
v -1.06898743 -4.08654093 7.35418714
v -0.92977941 -4.19236103 7.45635816
v -0.71162820 -4.30029048 7.57843666
v -0.45929164 -4.41314193 7.61333351
v -0.16360685 -4.41841557 7.69643787
v 1.74583349 -4.09743937 6.76729951
v 1.62424661 -4.23665806 6.84968401
v 1.71376270 -4.15263435 6.76729951
v -1.40661098 -4.08829865 6.76729951
v -1.29066304 -4.22786897 6.83733219
v 0.16379627 -4.41841557 7.72857622
v 0.16379627 -4.20220453 7.84238017
v 0.65930620 -4.58435264 7.53142794
v 0.87745747 -4.52247794 7.42397986
v 1.30988331 -4.58259493 6.87426768
v 1.33631517 -4.28447004 7.24889768
v 0.16379627 -4.61704796 7.57759682
v 0.49084695 -4.60157916 7.55601161
v -1.00273142 -4.27849360 7.23834455
v -0.97700443 -4.57802457 6.86695295
v -0.57277261 -4.53372753 7.36426037
v -0.32959915 -4.58329821 7.52962926
v -0.16360685 -4.59982143 7.55349306
v 1.56539159 -4.36111074 6.76729951
v -1.36713914 -4.15544699 6.76729951
v -1.30687462 -4.25177521 6.76729951
v -1.19762274 -4.38572026 6.76729951
v -1.06581558 -4.35126723 7.03699901
v 0.49084695 -4.93450872 6.91635927
v 0.67164113 -4.91482071 6.88290215
v 0.88979241 -4.87474289 6.79859801
v 1.11499218 -4.62864968 7.00486067
v 1.19816459 -4.70739925 6.76729951
v 1.34124912 -4.60720444 6.76729951
v 1.51569972 -4.41771229 6.76729951
v 0.16379627 -4.73095384 7.36426037
v 0.16379627 -4.95032867 6.94346149
v -1.12854720 -4.46728247 6.76729951
v -1.00590325 -4.60122752 6.76729951
v -0.87339136 -4.69403981 6.76729951
v -0.81171699 -4.73200877 6.76729951
v -0.75885315 -4.65255591 6.98051695
v -0.34017192 -4.91376628 6.88098349
v -0.16360685 -4.93275051 6.91324181
v -0.55832320 -4.87087581 6.78996451
v 0.49084695 -4.99849278 6.76729951
v 0.55075924 -4.98724269 6.76729951
v 0.16379627 -5.02872709 6.76729951
v 0.25472200 -5.02064128 6.76729951
v 0.74917472 -4.93661759 6.76729951
v 0.86054108 -4.89794584 6.76729951
v 0.96309685 -4.84802450 6.76729951
v -0.56995320 -4.87579781 6.76729951
v -0.16360685 -4.99462570 6.76729951
v -0.53682523 -4.88845397 6.76729951
v -0.41594334 -4.93345379 6.76729951
f 1 2 3
f 1 3 4
f 1 4 5
f 1 5 12
f 1 12 21
f 1 21 35
f 1 35 34
f 1 34 54
f 1 54 56
f 1 56 55
f 1 55 80
f 1 80 83
f 1 83 82
f 1 82 101
f 1 101 100
f 1 100 99
f 1 99 121
f 1 121 145
f 1 145 144
f 1 144 143
f 1 143 142
f 1 142 168
f 1 168 166
f 1 166 193
f 1 193 195
f 1 195 211
f 1 211 222
f 1 222 221
f 1 221 220
f 1 220 239
f 1 239 238
f 1 238 237
f 1 237 234
f 1 234 233
f 1 233 236
f 1 236 235
f 1 235 241
f 1 241 243
f 1 243 242
f 1 242 240
f 1 240 228
f 1 228 227
f 1 227 226
f 1 226 225
f 1 225 214
f 1 214 213
f 1 213 212
f 1 212 196
f 1 196 173
f 1 173 172
f 1 172 171
f 1 171 170
f 1 170 169
f 1 169 147
f 1 147 146
f 1 146 122
f 1 122 102
f 1 102 85
f 1 85 84
f 1 84 61
f 1 61 60
f 1 60 59
f 1 59 58
f 1 58 38
f 1 38 23
f 1 23 22
f 1 22 13
f 1 13 6
f 1 6 2
f 2 6 7
f 2 7 3
f 3 8 9
f 3 9 4
f 3 7 10
f 3 10 8
f 4 9 11
f 4 11 5
f 5 11 12
f 6 13 14
f 6 14 7
f 7 14 10
f 8 15 16
f 8 16 9
f 8 10 17
f 8 17 15
f 9 16 18
f 9 18 11
f 10 14 19
f 10 19 17
f 11 20 21
f 11 21 12
f 11 18 20
f 13 22 14
f 14 22 23
f 14 23 24
f 14 24 19
f 15 25 26
f 15 26 16
f 15 17 27
f 15 27 25
f 16 26 18
f 17 19 27
f 18 26 28
f 18 28 29
f 18 29 30
f 18 30 20
f 19 24 31
f 19 31 32
f 19 32 33
f 19 33 27
f 20 34 35
f 20 35 21
f 20 30 36
f 20 36 37
f 20 37 34
f 23 38 24
f 24 38 39
f 24 39 40
f 24 40 31
f 25 41 42
f 25 42 26
f 25 27 43
f 25 43 41
f 26 42 44
f 26 44 28
f 27 33 45
f 27 45 43
f 28 44 29
f 29 44 46
f 29 46 47
f 29 47 48
f 29 48 30
f 30 48 49
f 30 49 37
f 30 37 36
f 31 40 39
f 31 39 50
f 31 50 32
f 32 45 33
f 32 50 51
f 32 51 52
f 32 52 53
f 32 53 45
f 34 37 54
f 37 55 56
f 37 56 54
f 37 49 48
f 37 48 57
f 37 57 55
f 38 58 39
f 39 58 59
f 39 59 60
f 39 60 61
f 39 61 62
f 39 62 51
f 39 51 50
f 41 63 42
f 41 43 63
f 42 64 65
f 42 65 44
f 42 63 64
f 43 66 63
f 43 45 67
f 43 67 66
f 44 65 68
f 44 68 69
f 44 69 46
f 45 53 70
f 45 70 71
f 45 71 67
f 46 69 47
f 47 72 73
f 47 73 74
f 47 74 75
f 47 75 48
f 47 69 72
f 48 75 57
f 51 62 76
f 51 76 52
f 52 76 77
f 52 77 78
f 52 78 79
f 52 79 70
f 52 70 53
f 55 57 80
f 57 74 81
f 57 81 82
f 57 82 83
f 57 83 80
f 57 75 74
f 61 84 62
f 62 77 76
f 62 84 85
f 62 85 86
f 62 86 77
f 63 87 64
f 63 66 87
f 64 88 65
f 64 87 88
f 65 89 68
f 65 88 89
f 66 67 90
f 66 90 87
f 67 71 91
f 67 91 90
f 68 89 92
f 68 92 69
f 69 93 72
f 69 92 93
f 70 94 71
f 70 79 95
f 70 95 94
f 71 94 91
f 72 93 96
f 72 96 97
f 72 97 73
f 73 97 98
f 73 98 74
f 74 98 99
f 74 99 100
f 74 100 101
f 74 101 81
f 77 86 85
f 77 85 102
f 77 102 103
f 77 103 78
f 78 103 104
f 78 104 79
f 79 104 105
f 79 105 95
f 81 101 82
f 87 90 106
f 87 106 107
f 87 107 108
f 87 108 88
f 88 108 89
f 89 108 109
f 89 109 92
f 90 91 106
f 91 94 110
f 91 110 106
f 92 109 111
f 92 111 93
f 93 111 112
f 93 112 113
f 93 113 114
f 93 114 96
f 94 115 110
f 94 95 115
f 95 105 116
f 95 116 117
f 95 117 118
f 95 118 115
f 96 114 97
f 97 114 119
f 97 119 120
f 97 120 98
f 98 120 99
f 99 120 121
f 102 122 103
f 103 122 123
f 103 123 124
f 103 124 104
f 104 125 116
f 104 116 105
f 104 124 126
f 104 126 125
f 106 127 128
f 106 128 107
f 106 110 127
f 107 128 108
f 108 128 129
f 108 129 109
f 109 130 112
f 109 112 111
f 109 129 130
f 110 115 118
f 110 118 131
f 110 131 127
f 112 130 132
f 112 132 113
f 113 133 134
f 113 134 114
f 113 132 133
f 114 134 119
f 116 135 117
f 116 125 135
f 117 135 136
f 117 136 137
f 117 137 118
f 118 137 131
f 119 138 139
f 119 139 140
f 119 140 141
f 119 141 120
f 119 134 138
f 120 141 142
f 120 142 143
f 120 143 144
f 120 144 145
f 120 145 121
f 122 146 123
f 123 146 147
f 123 147 148
f 123 148 126
f 123 126 124
f 125 126 149
f 125 149 150
f 125 150 151
f 125 151 135
f 126 148 149
f 127 131 137
f 127 137 152
f 127 152 153
f 127 153 154
f 127 154 128
f 128 154 129
f 129 154 155
f 129 155 156
f 129 156 130
f 130 156 132
f 132 156 157
f 132 157 133
f 133 158 159
f 133 159 134
f 133 157 160
f 133 160 158
f 134 159 138
f 135 151 161
f 135 161 136
f 136 162 163
f 136 163 137
f 136 161 164
f 136 164 162
f 137 163 152
f 138 165 140
f 138 140 139
f 138 159 165
f 140 166 141
f 140 165 167
f 140 167 166
f 141 166 168
f 141 168 142
f 147 169 148
f 148 169 170
f 148 170 171
f 148 171 172
f 148 172 149
f 149 172 173
f 149 173 174
f 149 174 175
f 149 175 151
f 149 151 150
f 151 175 161
f 152 163 176
f 152 176 153
f 153 176 177
f 153 177 154
f 154 177 178
f 154 178 179
f 154 179 180
f 154 180 181
f 154 181 155
f 155 181 182
f 155 182 156
f 156 182 157
f 157 182 160
f 158 160 183
f 158 183 159
f 159 184 167
f 159 167 165
f 159 183 185
f 159 185 184
f 160 186 183
f 160 182 180
f 160 180 187
f 160 187 186
f 161 188 189
f 161 189 190
f 161 190 164
f 161 175 174
f 161 174 188
f 162 164 190
f 162 190 191
f 162 191 192
f 162 192 178
f 162 178 176
f 162 176 163
f 166 167 193
f 167 194 195
f 167 195 193
f 167 184 194
f 173 196 174
f 174 197 188
f 174 196 197
f 176 178 177
f 178 192 198
f 178 198 199
f 178 199 179
f 179 199 180
f 180 182 181
f 180 199 198
f 180 198 187
f 183 186 200
f 183 200 201
f 183 201 202
f 183 202 185
f 184 185 194
f 185 202 203
f 185 203 194
f 186 187 200
f 187 198 204
f 187 204 205
f 187 205 200
f 188 197 189
f 189 197 206
f 189 206 207
f 189 207 190
f 190 208 209
f 190 209 191
f 190 207 208
f 191 209 192
f 192 209 210
f 192 210 204
f 192 204 198
f 194 203 202
f 194 202 211
f 194 211 195
f 196 212 197
f 197 212 213
f 197 213 214
f 197 214 207
f 197 207 215
f 197 215 206
f 200 205 216
f 200 216 217
f 200 217 218
f 200 218 201
f 201 218 219
f 201 219 202
f 202 220 221
f 202 221 222
f 202 222 211
f 202 219 220
f 204 210 223
f 204 223 205
f 205 223 224
f 205 224 216
f 206 215 207
f 207 214 225
f 207 225 226
f 207 226 227
f 207 227 228
f 207 228 229
f 207 229 208
f 208 229 209
f 209 230 231
f 209 231 210
f 209 229 232
f 209 232 230
f 210 231 224
f 210 224 223
f 216 233 234
f 216 234 217
f 216 224 235
f 216 235 236
f 216 236 233
f 217 234 237
f 217 237 218
f 218 237 238
f 218 238 239
f 218 239 219
f 219 239 220
f 224 231 235
f 228 240 229
f 229 240 232
f 230 241 231
f 230 232 242
f 230 242 243
f 230 243 241
f 231 241 235
f 232 240 242

