# https://github.com/mikedh/trimesh
v -2.03696360 0.31271445 20.78348207
v -1.99500637 1.05197452 20.78348207
v -2.03090792 0.31271445 20.69679496
v -2.03696360 0.31271445 21.11026498
v -1.97943467 1.05197452 20.58594069
v -1.99500637 1.05197452 21.11026498
v -2.01274085 0.31271445 20.53130219
v -2.01490361 0.31271445 21.37295214
v -1.97943467 1.05197452 21.32356729
v -1.99111345 1.05197452 21.17015761
v -1.92839403 1.05197452 20.54391104
v -0.69130556 0.31271445 18.62261543
v -0.78819641 0.31271445 18.70404841
v -0.86129705 0.31271445 18.77339780
v -0.93223504 0.31271445 18.84222192
v -1.02177259 0.31271445 18.94099236
v -1.09400808 0.31271445 19.04816903
v -1.15586255 0.31271445 19.14746474
v -1.66367432 0.31271445 22.61861584
v -1.84793990 1.05197452 21.48695850
v -1.56289060 0.31271445 22.80354787
v -1.79992723 1.05197452 20.44041198
v -0.60652608 0.31271445 18.57585691
v -1.80079219 1.05197452 21.52583655
v -1.39765705 0.31271445 22.98900518
v -0.65670170 0.31271445 23.72925859
v -0.51698859 0.39137298 23.72925859
v -1.70779432 1.05197452 20.40258519
v -0.49060313 0.31271445 18.51859110
v -1.68400416 1.05197452 21.61725155
v 0.99866101 0.31271445 23.72925859
v -0.16402908 0.49825308 23.72925859
v -1.47638102 1.05197452 20.32535509
v -0.16359654 0.31271445 18.40143266
v -0.22761371 0.31271445 18.42402377
v -1.47248810 1.05197452 21.64246973
v 0.16297752 0.53277025 23.72925859
v 1.72750499 0.31271445 22.99110673
v 2.18341117 1.05197452 21.51270195
v 0.99130770 0.31683914 23.72925859
v 0.12448071 1.05197452 20.28174890
v 0.16384262 0.38297889 18.52542104
v -0.16359654 0.37451243 18.54433455
v 0.16384262 0.31271445 18.36255485
v -0.82193519 1.05197452 21.68660094
v 0.48955155 0.49970037 23.72925859
v 2.01947519 1.05197452 21.61725155
v 1.95675576 1.05197452 21.63143668
v 1.70631020 1.05197452 21.66190851
v 1.38795448 1.05197452 21.68187256
v 0.69933751 1.05197452 21.71234439
v 0.49084920 1.05197452 21.72127588
v 0.36843800 1.05197452 21.72495372
v 0.16384262 1.05197452 21.72915635
v -0.16359654 1.05197452 21.72075061
v 1.86159513 0.31271445 22.84820484
v 2.27857180 1.05197452 21.39554350
v 0.82174875 0.39918819 23.72925859
v 0.84510637 0.39021518 23.72925859
v 0.97833124 0.32393070 23.72925859
v 0.16384262 1.05197452 20.28069812
v 0.49084920 0.37538077 18.54223300
v 0.79233544 1.05197452 20.26966532
v 1.80449880 1.05197452 20.32482958
v 0.49084920 0.31271445 18.39775481
v 1.89317114 0.31271445 22.80827625
v 2.31533854 1.05197452 21.34878498
v 2.12717980 1.05197452 20.42254948
v 0.81785582 0.31271445 18.51071039
v 1.93123544 0.31271445 22.74155368
v 2.35253764 0.31271445 21.39239141
v 2.37200227 0.31271445 21.21533984
v 2.33999366 1.05197452 21.11026498
v 1.99352226 0.31271445 22.62334421
v 2.31533854 1.05197452 20.56860347
v 1.02677670 0.31271445 18.61578550
v 2.38195089 0.31271445 21.11026498
v 2.33999366 1.05197452 20.78348207
v 2.33350538 1.05197452 20.72306368
v 2.38195089 0.31271445 20.78348207
v 2.34994229 0.31271445 20.51816759
v 2.16351394 0.31271445 20.19663833
v 2.05148380 0.31271445 20.01223156
v 1.50257999 0.31271445 19.14746474
v 1.35724367 0.31271445 18.93258638
v 1.19763321 0.31271445 18.76446655
f 1 2 3
f 1 3 7
f 1 7 18
f 1 18 17
f 1 17 16
f 1 16 15
f 1 15 14
f 1 14 13
f 1 13 12
f 1 12 23
f 1 23 29
f 1 29 35
f 1 35 34
f 1 34 44
f 1 44 65
f 1 65 69
f 1 69 76
f 1 76 86
f 1 86 85
f 1 85 84
f 1 84 83
f 1 83 82
f 1 82 81
f 1 81 80
f 1 80 77
f 1 77 72
f 1 72 71
f 1 71 74
f 1 74 70
f 1 70 66
f 1 66 56
f 1 56 38
f 1 38 31
f 1 31 26
f 1 26 25
f 1 25 21
f 1 21 19
f 1 19 8
f 1 8 4
f 1 4 6
f 1 6 2
f 2 5 3
f 2 6 10
f 2 10 9
f 2 9 20
f 2 20 24
f 2 24 30
f 2 30 36
f 2 36 45
f 2 45 55
f 2 55 54
f 2 54 53
f 2 53 52
f 2 52 51
f 2 51 50
f 2 50 49
f 2 49 48
f 2 48 47
f 2 47 39
f 2 39 57
f 2 57 67
f 2 67 73
f 2 73 78
f 2 78 79
f 2 79 75
f 2 75 68
f 2 68 64
f 2 64 63
f 2 63 61
f 2 61 41
f 2 41 33
f 2 33 28
f 2 28 22
f 2 22 11
f 2 11 5
f 3 5 7
f 4 8 9
f 4 9 10
f 4 10 6
f 5 11 12
f 5 12 13
f 5 13 14
f 5 14 15
f 5 15 16
f 5 16 17
f 5 17 18
f 5 18 7
f 8 19 9
f 9 19 21
f 9 21 20
f 11 22 12
f 12 22 23
f 20 21 25
f 20 25 26
f 20 26 27
f 20 27 24
f 22 28 29
f 22 29 23
f 24 27 30
f 26 31 40
f 26 40 60
f 26 60 59
f 26 59 58
f 26 58 46
f 26 46 37
f 26 37 32
f 26 32 27
f 27 32 30
f 28 33 34
f 28 34 35
f 28 35 29
f 30 32 37
f 30 37 36
f 31 38 39
f 31 39 40
f 33 41 42
f 33 42 43
f 33 43 34
f 34 43 44
f 36 37 45
f 37 46 47
f 37 47 48
f 37 48 49
f 37 49 50
f 37 50 51
f 37 51 52
f 37 52 53
f 37 53 54
f 37 54 55
f 37 55 45
f 38 56 39
f 39 47 58
f 39 58 59
f 39 59 60
f 39 60 40
f 39 56 57
f 41 61 42
f 42 62 44
f 42 44 43
f 42 61 63
f 42 63 64
f 42 64 62
f 44 62 65
f 46 58 47
f 56 66 57
f 57 66 67
f 62 64 65
f 64 68 65
f 65 68 69
f 66 70 67
f 67 71 72
f 67 72 73
f 67 70 74
f 67 74 71
f 68 75 76
f 68 76 69
f 72 77 73
f 73 77 80
f 73 80 78
f 75 79 80
f 75 80 81
f 75 81 82
f 75 82 83
f 75 83 84
f 75 84 85
f 75 85 86
f 75 86 76
f 78 80 79

