# https://github.com/mikedh/trimesh
v 28.55610681 -46.23484802 148.63251912
v 28.63935542 -46.23484802 148.57348549
v 28.55610681 -45.41203212 148.48319876
v 28.55610681 -77.42815923 148.63251912
v 30.01846862 -46.23484802 147.37197923
v 28.63935542 -77.42815923 148.57348549
v 28.55610681 -43.83599472 148.16719520
v 28.55610681 -77.52230835 148.60821116
v 31.21851575 -46.23484802 146.26075971
v 29.74515867 -43.83599472 147.11153674
v 30.01846862 -77.42815923 147.37197923
v 29.66034007 -79.20069170 147.04903054
v 28.55610681 -43.59856558 148.02481997
v 28.55610681 -79.46268272 147.47962880
v 32.20180106 -46.23484802 145.06272602
v 31.96147692 -43.83599472 144.79533839
v 30.94520760 -43.83599472 145.99337208
v 31.21851575 -77.42815923 146.26075971
v 29.29749799 -42.51375866 146.69830131
v 30.33418786 -79.66736030 145.38220215
v 31.91592586 -79.18841076 144.70852423
v 28.55610681 -42.47282099 147.08028364
v 28.55610681 -80.17497015 145.25718975
v 33.40184820 -46.23484802 143.46881795
v 33.16152406 -43.83599472 143.24657547
v 32.20180106 -77.42815923 145.06272602
v 33.82752013 -42.57106495 141.74642849
v 31.59706485 -42.51375866 144.35084987
v 30.11742604 -42.41960239 145.17037558
v 30.14569831 -80.40011835 142.79861438
v 32.54579437 -80.27730894 140.39907443
v 32.64789176 -79.56502151 142.82639491
v 34.00815439 -79.03285694 142.04506922
v 28.55610681 -42.42369723 146.67746591
v 28.55610681 -80.37146520 142.79861438
v 34.14009762 -46.23484802 142.26731348
v 34.00344264 -43.83599472 142.04506922
v 33.40184820 -77.42815923 143.46881795
v 36.25117671 -44.40500211 137.09666896
v 35.99828553 -42.80440283 136.64176273
v 44.07818627 -41.64181900 113.16029775
v 42.14460325 -40.53245020 113.16029775
v 32.45626044 -42.45235395 142.64929581
v 39.74450898 -82.30774116 113.16029775
v 42.19486785 -82.29955864 113.16029775
v 43.29909754 -81.90656852 113.16029775
v 43.90854549 -81.64457750 113.16029775
v 34.40869403 -79.37671613 140.39907443
v 36.25117671 -78.83636188 137.09666896
v 35.07154834 -77.42815923 140.39907443
v 34.14009762 -77.42815923 142.26731348
v 41.35766101 -40.49560737 113.16029775
v 28.55610681 -42.32135486 145.18773842
v 28.55610681 -79.92935133 140.34004080
v 37.93972564 -81.70189094 113.16029775
v 35.07154834 -46.23484802 140.39907443
v 35.87733936 -46.23484802 138.44749379
v 36.30458128 -46.23484802 137.24946010
v 44.30594516 -43.83599472 114.00065708
v 43.52057290 -42.41141629 115.62928903
v 44.37505674 -42.82896471 113.16029775
v 44.44731188 -79.94573068 113.16029775
v 36.30458128 -77.42815923 137.24946010
v 35.87733936 -77.42815923 138.44749379
v 39.74450898 -40.49151611 113.16029775
v 28.55610681 -42.27223468 144.38557553
v 28.55610681 -79.43812084 137.99953449
v 37.14964163 -80.69076252 113.16029775
v 28.55610681 -79.12700605 137.01679992
v 36.87476170 -46.23484802 135.59999275
v 44.59810209 -43.83599472 113.16029775
v 44.60124564 -77.42815923 113.16029775
v 44.31222868 -77.42815923 114.00065708
v 43.62110209 -77.42815923 116.00779879
v 36.87476170 -77.42815923 135.59999275
v 38.94656968 -40.78625154 113.16029775
v 28.55610681 -42.50147772 138.43013096
v 28.55610681 -42.39913535 139.70109033
v 28.55610681 -42.28042078 141.98603558
v 36.88575518 -79.81882286 113.16029775
v 28.73988461 -78.97144508 136.24241757
v 36.03755486 -79.00419664 114.88616156
v 28.55610681 -78.70536279 136.55147600
v 42.65980554 -46.23484802 118.80321133
v 44.60124564 -45.39156508 113.16029775
v 44.60281563 -75.02929878 113.16029775
v 42.65980554 -75.02929878 118.80321133
v 37.42137980 -41.62134838 113.16029775
v 28.90638184 -42.59972524 136.67301583
v 28.55610681 -42.84533691 137.99953449
v 36.53705192 -77.89073658 113.16029775
v 28.55610681 -77.42815923 136.12782287
v 44.60281563 -46.23484802 113.16029775
v 36.06425714 -42.53013086 114.94172263
v 36.53391015 -43.83599472 113.16029775
v 28.55610681 -43.83599472 136.80844593
v 36.52291489 -77.42815923 113.16029775
v 28.55610681 -77.23985386 136.12435031
v 36.52291489 -46.23484802 113.16029775
v 28.55610681 -46.23484802 136.12435031
v 28.55610681 -75.02929878 136.11393261
v 28.55610681 -48.44949078 136.11393261
f 1 2 3
f 1 3 7
f 1 7 13
f 1 13 22
f 1 22 34
f 1 34 53
f 1 53 66
f 1 66 79
f 1 79 78
f 1 78 77
f 1 77 90
f 1 90 96
f 1 96 100
f 1 100 102
f 1 102 101
f 1 101 98
f 1 98 92
f 1 92 83
f 1 83 69
f 1 69 67
f 1 67 54
f 1 54 35
f 1 35 23
f 1 23 14
f 1 14 8
f 1 8 4
f 1 4 6
f 1 6 2
f 2 5 3
f 2 6 11
f 2 11 5
f 3 5 7
f 4 8 6
f 5 9 10
f 5 10 7
f 5 11 18
f 5 18 9
f 6 8 12
f 6 12 11
f 7 10 13
f 8 14 12
f 9 15 16
f 9 16 17
f 9 17 10
f 9 18 26
f 9 26 15
f 10 17 19
f 10 19 13
f 11 12 18
f 12 14 20
f 12 20 21
f 12 21 18
f 13 19 22
f 14 23 20
f 15 24 25
f 15 25 16
f 15 26 38
f 15 38 24
f 16 25 27
f 16 27 28
f 16 28 17
f 17 28 19
f 18 21 26
f 19 28 29
f 19 29 22
f 20 23 30
f 20 30 31
f 20 31 32
f 20 32 21
f 21 32 33
f 21 33 26
f 22 29 34
f 23 35 30
f 24 36 37
f 24 37 25
f 24 38 51
f 24 51 36
f 25 37 27
f 26 33 38
f 27 37 39
f 27 39 40
f 27 40 41
f 27 41 42
f 27 42 43
f 27 43 28
f 28 43 42
f 28 42 29
f 29 42 34
f 30 35 44
f 30 44 45
f 30 45 31
f 31 45 46
f 31 46 47
f 31 47 48
f 31 48 32
f 32 48 33
f 33 48 49
f 33 49 50
f 33 50 51
f 33 51 38
f 34 42 52
f 34 52 53
f 35 54 55
f 35 55 44
f 36 56 37
f 36 51 50
f 36 50 56
f 37 56 39
f 39 56 57
f 39 57 58
f 39 58 59
f 39 59 60
f 39 60 40
f 40 60 41
f 41 60 61
f 41 61 71
f 41 71 85
f 41 85 93
f 41 93 86
f 41 86 72
f 41 72 62
f 41 62 47
f 41 47 46
f 41 46 45
f 41 45 44
f 41 44 55
f 41 55 68
f 41 68 80
f 41 80 91
f 41 91 97
f 41 97 99
f 41 99 95
f 41 95 88
f 41 88 76
f 41 76 65
f 41 65 52
f 41 52 42
f 47 62 49
f 47 49 48
f 49 62 63
f 49 63 64
f 49 64 50
f 50 64 57
f 50 57 56
f 52 65 66
f 52 66 53
f 54 67 55
f 55 67 69
f 55 69 68
f 57 64 63
f 57 63 58
f 58 70 71
f 58 71 59
f 58 63 75
f 58 75 70
f 59 71 60
f 60 71 61
f 62 72 73
f 62 73 74
f 62 74 75
f 62 75 63
f 65 76 77
f 65 77 78
f 65 78 79
f 65 79 66
f 68 69 81
f 68 81 82
f 68 82 80
f 69 83 81
f 70 84 71
f 70 75 87
f 70 87 84
f 71 84 85
f 72 86 73
f 73 86 87
f 73 87 74
f 74 87 75
f 76 88 77
f 77 89 90
f 77 88 89
f 80 82 91
f 81 83 82
f 82 83 92
f 82 92 91
f 84 93 85
f 84 87 86
f 84 86 93
f 88 94 89
f 88 95 94
f 89 94 96
f 89 96 90
f 91 92 97
f 92 98 97
f 94 95 96
f 95 99 100
f 95 100 96
f 97 98 101
f 97 101 102
f 97 102 99
f 99 102 100

