# https://github.com/mikedh/trimesh
v 44.54429698 21.01560819 98.42023063
v 44.54429698 34.69167519 97.10073578
v 45.11589718 21.01560819 98.43234706
v 42.31801343 21.01560819 99.28732621
v 43.00678682 34.69167519 97.84395981
v 46.97436047 34.69167519 97.23133790
v 46.97537970 21.01560819 98.74337244
v 42.24363398 21.01560819 99.34926200
v 40.86201382 21.01560819 100.61759281
v 40.86201382 34.69167519 100.59604931
v 48.67489529 34.69167519 99.59161746
v 48.49964333 21.01560819 99.95515156
v 40.85182500 21.01560819 100.64317393
v 40.36479306 21.01560819 102.00036990
v 40.36479306 34.69167519 102.00036990
v 48.67489529 34.69167519 100.01978028
v 48.49964333 21.01560819 101.83475959
v 40.34849238 21.01560819 102.04749453
v 39.77077675 34.69167519 103.72379112
v 48.50066614 34.69167519 101.83475959
v 48.38450861 34.69167519 102.17405724
v 48.08801365 30.56676317 103.03576875
v 48.09514475 21.01560819 103.01153230
v 39.53846884 21.01560819 104.39969528
v 39.03309774 34.69167519 105.86594987
v 48.08801365 34.69167519 103.03576875
v 46.80726242 21.01560819 106.75324249
v 38.82422519 21.01560819 106.48261207
v 38.42685771 21.01560819 107.64726746
v 38.43908501 34.69167519 107.68766063
v 47.61728239 34.69167519 104.39969528
v 46.78484631 34.69167519 106.79902154
v 46.78993893 21.01560819 106.79902154
v 38.26587152 21.01560819 109.07178330
v 38.31783485 34.69167519 108.65439224
v 46.05531764 34.69167519 108.67054987
v 46.07467604 21.01560819 108.68266809
v 39.03004360 21.01560819 110.33068883
v 38.31783485 34.69167519 108.84962398
v 44.68898249 34.69167519 109.82578087
v 44.71037936 21.01560819 109.93349480
v 46.06041384 21.01560819 108.71363509
v 39.74530649 21.01560819 110.64709830
v 39.74530649 34.69167519 110.36973554
v 42.14581919 34.69167519 110.70230174
v 42.14581919 21.01560819 110.85444826
v 44.67369747 21.01560819 109.96176886
v 40.65517974 21.01560819 110.79385894
f 1 2 3
f 1 3 7
f 1 7 12
f 1 12 17
f 1 17 23
f 1 23 27
f 1 27 33
f 1 33 37
f 1 37 42
f 1 42 41
f 1 41 47
f 1 47 46
f 1 46 48
f 1 48 43
f 1 43 38
f 1 38 34
f 1 34 29
f 1 29 28
f 1 28 24
f 1 24 18
f 1 18 14
f 1 14 13
f 1 13 9
f 1 9 8
f 1 8 4
f 1 4 2
f 2 5 10
f 2 10 15
f 2 15 19
f 2 19 25
f 2 25 30
f 2 30 35
f 2 35 39
f 2 39 44
f 2 44 45
f 2 45 40
f 2 40 36
f 2 36 32
f 2 32 31
f 2 31 26
f 2 26 21
f 2 21 20
f 2 20 16
f 2 16 11
f 2 11 6
f 2 6 3
f 2 4 5
f 3 6 7
f 4 8 5
f 5 8 9
f 5 9 10
f 6 11 12
f 6 12 7
f 9 13 10
f 10 13 14
f 10 14 15
f 11 16 17
f 11 17 12
f 14 18 15
f 15 18 19
f 16 20 17
f 17 20 21
f 17 21 22
f 17 22 23
f 18 24 19
f 19 24 25
f 21 26 22
f 22 26 27
f 22 27 23
f 24 28 25
f 25 28 29
f 25 29 30
f 26 31 27
f 27 31 32
f 27 32 33
f 29 34 35
f 29 35 30
f 32 36 37
f 32 37 33
f 34 38 39
f 34 39 35
f 36 40 41
f 36 41 42
f 36 42 37
f 38 43 44
f 38 44 39
f 40 45 46
f 40 46 47
f 40 47 41
f 43 48 44
f 44 48 45
f 45 48 46

