# https://github.com/mikedh/trimesh
v 73.34475946 119.46425724 18.03066063
v 73.34475946 119.46425724 17.99857426
v 70.91946316 119.46425724 18.03066063
v 75.22075367 118.82297325 18.03066063
v 75.22075367 118.82297325 17.99857426
v 73.34475946 119.36925698 15.59932756
v 70.94375324 119.46425724 13.19861460
v 63.74614549 119.46425724 8.40012121
v 62.14142632 119.44049645 8.40012121
v 69.00973034 118.82297325 18.03066063
v 75.23020220 118.79922676 18.03066063
v 75.91176939 116.94665003 17.99857426
v 75.05744648 118.70422650 15.59932756
v 70.94375324 119.34549618 10.79936790
v 73.52966022 118.87048054 13.05130768
v 68.54545069 119.36925698 8.40012121
v 68.54545069 119.46425724 10.79936790
v 62.14142632 119.46425724 6.00087452
v 62.14142632 118.75171948 10.38806724
v 68.25932693 116.97040367 18.03066063
v 75.91176939 116.94665003 18.03066063
v 75.91311407 116.92289639 18.03066063
v 75.92661095 114.54780388 17.99857426
v 75.57165813 116.94665003 15.59932756
v 74.79561996 118.46671868 13.75139284
v 72.86294174 118.68046570 10.79936790
v 70.90461445 118.75171948 8.45408726
v 63.74614549 119.44049645 6.00087452
v 66.14579987 119.46425724 8.40012121
v 70.07729244 118.44295788 6.91389847
v 68.32141113 118.60921192 6.06942463
v 66.14579987 119.13173485 6.00087452
v 62.14142632 118.79922676 4.02313518
v 62.14142632 116.94665003 11.04294109
v 68.24987841 116.94665003 18.03066063
v 75.92661095 114.54780388 18.03066063
v 75.92661095 -118.21180534 17.99857426
v 74.91978836 116.94665003 13.42906284
v 75.57165813 -120.61065149 15.59932756
v 74.42717028 116.94665003 12.22870636
v 72.39326191 118.41921139 9.28981352
v 63.74614549 118.77548027 4.14127397
v 71.44446802 116.94665003 7.93339538
v 70.24329615 116.94665003 6.77096891
v 67.37126541 118.18170357 4.78593397
v 66.14579987 118.46671868 4.52194023
v 62.14142632 116.94665003 3.18886804
v 68.22558832 114.59530401 18.03066063
v 62.14142632 114.54780388 11.05314779
v 75.92661095 -118.25930547 18.03066063
v 75.91176939 -120.61065149 17.99857426
v 74.44876385 114.54780388 12.22870636
v 74.91978836 -120.61065149 13.42906284
v 75.05744648 -122.36822796 15.59932756
v 74.79561996 -122.13072014 13.75139284
v 73.60119295 116.94665003 10.79936790
v 72.51743030 116.94665003 9.13375187
v 63.74614549 116.94665003 3.44993639
v 71.44446802 -120.61065149 7.93339538
v 68.58324480 116.94665003 5.57061243
v 70.24329615 -120.61065149 6.77096891
v 67.38341761 116.94665003 4.77863836
v 66.14579987 116.94665003 4.24336958
v 62.14142632 114.54780388 3.13052463
v 68.22558832 -118.21180534 18.03066063
v 62.14142632 -118.21180534 11.05314779
v 75.91176939 -120.61065149 18.03066063
v 75.90367269 -120.63440513 18.03066063
v 75.22075367 -122.48697471 17.99857426
v 73.62143469 114.54780388 10.79936790
v 74.44876385 -118.21180534 12.22870636
v 74.42717028 -120.61065149 12.22870636
v 73.34475946 -123.03325844 15.59932756
v 73.52966022 -122.53448200 13.05130768
v 72.39326191 -122.08321285 9.28981352
v 72.86294174 -122.34446716 10.79936790
v 72.51743030 -120.61065149 9.13375187
v 63.74614549 114.54780388 3.41930914
v 70.07729244 -122.10695934 6.91389847
v 68.58324480 -120.61065149 5.57061243
v 67.37126541 -121.84570503 4.78593397
v 67.38341761 -120.61065149 4.77863836
v 66.14579987 -120.61065149 4.24336958
v 62.14142632 -118.21180534 3.13052463
v 62.14142632 -119.70811319 11.05022955
v 62.14142632 -120.61065149 11.04294109
v 68.24853373 -120.58689785 18.03066063
v 75.22075367 -122.48697471 18.03066063
v 73.36770487 -123.12825870 18.03066063
v 73.62143469 -118.21180534 10.79936790
v 73.60119295 -120.61065149 10.79936790
v 70.94375324 -123.12825870 13.19861460
v 70.94375324 -123.00949764 10.79936790
v 70.90461445 -122.41572094 8.45408726
v 63.74614549 -118.21180534 3.41930914
v 68.54545069 -123.03325844 8.40012121
v 68.32141113 -122.27321338 6.06942463
v 63.74614549 -120.61065149 3.44993639
v 66.14579987 -122.13072014 4.52194023
v 62.14142632 -119.01933622 3.14073133
v 62.14142632 -121.75069761 10.67394066
v 68.24987841 -120.61065149 18.03066063
v 70.94375324 -123.12825870 18.03066063
v 68.54545069 -123.12825870 10.79936790
v 66.14579987 -123.12825870 8.40012121
v 63.74614549 -123.10449791 6.00087452
v 66.14579987 -122.79573631 6.00087452
v 63.74614549 -122.43948173 4.14127397
v 62.14142632 -121.22817468 3.41785002
v 62.14142632 -120.61065149 3.18886804
v 62.14142632 -122.41572094 10.38806724
v 68.99892998 -122.46322822 18.03066063
v 62.14142632 -123.10449791 8.40012121
v 62.14142632 -123.12825870 6.79575968
v 69.00973034 -122.48697471 18.03066063
v 62.14142632 -123.12825870 6.00087452
v 62.14142632 -122.67698955 4.64007902
v 62.14142632 -122.46322822 4.02313518
v 62.14142632 -122.86699009 9.16146087
f 1 2 7
f 1 7 17
f 1 17 29
f 1 29 18
f 1 18 8
f 1 8 3
f 1 3 10
f 1 10 20
f 1 20 35
f 1 35 48
f 1 48 65
f 1 65 87
f 1 87 102
f 1 102 112
f 1 112 115
f 1 115 103
f 1 103 89
f 1 89 88
f 1 88 68
f 1 68 67
f 1 67 50
f 1 50 36
f 1 36 22
f 1 22 21
f 1 21 11
f 1 11 4
f 1 4 5
f 1 5 2
f 2 5 6
f 2 6 7
f 3 8 9
f 3 9 10
f 4 11 5
f 5 11 12
f 5 12 13
f 5 13 6
f 6 14 7
f 6 13 15
f 6 15 14
f 7 14 16
f 7 16 17
f 8 18 9
f 9 18 33
f 9 33 47
f 9 47 64
f 9 64 84
f 9 84 100
f 9 100 110
f 9 110 109
f 9 109 118
f 9 118 117
f 9 117 116
f 9 116 114
f 9 114 113
f 9 113 119
f 9 119 111
f 9 111 101
f 9 101 86
f 9 86 85
f 9 85 66
f 9 66 49
f 9 49 34
f 9 34 19
f 9 19 10
f 10 19 20
f 11 21 12
f 12 21 22
f 12 22 23
f 12 23 24
f 12 24 13
f 13 24 25
f 13 25 15
f 14 15 26
f 14 26 27
f 14 27 16
f 15 25 26
f 16 28 29
f 16 29 17
f 16 27 30
f 16 30 31
f 16 31 32
f 16 32 28
f 18 29 28
f 18 28 33
f 19 34 35
f 19 35 20
f 22 36 23
f 23 36 50
f 23 50 37
f 23 37 39
f 23 39 24
f 24 38 25
f 24 39 53
f 24 53 38
f 25 38 40
f 25 40 41
f 25 41 26
f 26 41 27
f 27 41 30
f 28 32 42
f 28 42 33
f 30 41 43
f 30 43 44
f 30 44 45
f 30 45 31
f 31 45 46
f 31 46 32
f 32 46 42
f 33 42 47
f 34 48 35
f 34 49 48
f 37 50 51
f 37 51 39
f 38 52 40
f 38 53 71
f 38 71 52
f 39 51 54
f 39 54 55
f 39 55 53
f 40 56 41
f 40 52 56
f 41 56 57
f 41 57 43
f 42 46 58
f 42 58 47
f 43 57 77
f 43 77 59
f 43 59 61
f 43 61 44
f 44 60 45
f 44 61 80
f 44 80 60
f 45 60 62
f 45 62 63
f 45 63 58
f 45 58 46
f 47 58 64
f 48 49 66
f 48 66 65
f 50 67 51
f 51 67 68
f 51 68 69
f 51 69 54
f 52 70 56
f 52 71 90
f 52 90 70
f 53 55 72
f 53 72 71
f 54 69 73
f 54 73 74
f 54 74 55
f 55 75 72
f 55 74 76
f 55 76 75
f 56 70 57
f 57 70 90
f 57 90 77
f 58 63 78
f 58 78 64
f 59 77 75
f 59 75 79
f 59 79 61
f 60 80 82
f 60 82 62
f 61 79 81
f 61 81 80
f 62 82 83
f 62 83 63
f 63 83 95
f 63 95 78
f 64 78 95
f 64 95 84
f 65 66 85
f 65 85 86
f 65 86 87
f 68 88 69
f 69 88 89
f 69 89 73
f 71 72 91
f 71 91 90
f 72 75 91
f 73 89 92
f 73 92 93
f 73 93 74
f 74 93 76
f 75 76 94
f 75 94 79
f 75 77 91
f 76 93 94
f 77 90 91
f 79 94 96
f 79 96 97
f 79 97 81
f 80 81 82
f 81 98 83
f 81 83 82
f 81 97 99
f 81 99 98
f 83 98 95
f 84 95 100
f 86 101 102
f 86 102 87
f 89 103 114
f 89 114 116
f 89 116 105
f 89 105 104
f 89 104 92
f 92 104 96
f 92 96 93
f 93 96 94
f 95 98 100
f 96 104 105
f 96 105 106
f 96 106 107
f 96 107 97
f 97 107 99
f 98 99 108
f 98 108 109
f 98 109 110
f 98 110 100
f 99 107 108
f 101 111 102
f 102 111 112
f 103 113 114
f 103 115 113
f 105 116 106
f 106 116 117
f 106 117 118
f 106 118 108
f 106 108 107
f 108 118 109
f 111 119 115
f 111 115 112
f 113 115 119

