# https://github.com/mikedh/trimesh
v -32.48904634 -94.13015318 216.82616520
v -24.62201285 -94.13015318 216.82616520
v -32.48904634 -94.13015318 216.84232998
v -32.48904634 -36.30728793 216.82616520
v -24.41350865 -94.13015318 216.82740974
v -24.41350865 -91.83195781 216.82616520
v -32.47460890 -94.13015318 217.20045137
v -32.47460890 -36.30728793 217.20045137
v -32.48744059 -36.30728793 216.87839317
v -25.55066156 -36.30728793 216.82616520
v -20.61712611 -94.13015318 220.12138414
v -16.10541272 -77.43142795 221.39968204
v -16.10541272 -79.90510416 221.74412775
v -24.41350865 -39.03569174 216.82616520
v -31.83466244 -94.13015318 219.60037041
v -31.83466244 -36.30728793 219.60037041
v -24.41350865 -36.30728793 216.83238077
v -24.41511440 -36.58465695 216.82616520
v -20.05897629 -94.13015318 221.92070293
v -16.10541272 -81.51271295 222.58471775
v -16.10541272 -46.23595309 221.39968204
v -31.80899906 -94.13015318 219.66254043
v -31.74965787 -36.30728793 219.80180788
v -20.21615553 -36.30728793 220.17734575
v -18.92503309 -37.49601078 220.68219471
v -16.10541272 -43.83586597 221.47180128
v -16.10541272 -45.34157943 221.40217113
v -20.04454064 -94.13015318 222.00028229
v -16.10541272 -81.69950914 224.39895677
v -31.21395993 -94.13015318 221.06145906
v -31.21395993 -36.30728793 221.06145906
v -19.46874905 -36.30728793 221.99157762
v -16.10541272 -40.98859024 224.39895677
v -16.10541272 -41.25463676 223.35940409
v -16.10541272 -41.63955879 222.26887512
v -16.10541272 -42.83394289 221.78516197
v -20.82883823 -94.13015318 224.58423662
v -16.10541272 -81.08816576 226.79886865
v -16.10541272 -80.87872457 227.58474874
v -16.10541272 -80.38625669 228.38181543
v -30.35909343 -94.13015318 222.26141500
v -31.09687615 -36.30728793 221.22684049
v -19.47837102 -36.30728793 222.03882742
v -16.10541272 -41.60559487 226.91078472
v -20.90101290 -94.13015318 224.72225952
v -16.10541272 -80.13719034 228.57082891
v -30.30777025 -94.13015318 222.32234049
v -30.19389439 -36.30728793 222.45788145
v -30.35909343 -36.30728793 222.26141500
v -19.87292576 -36.30728793 223.81949234
v -16.10541272 -42.25655985 228.34078121
v -20.02048302 -36.30728793 224.31688833
v -22.32846665 -94.13015318 226.17961454
v -16.10541272 -78.08239650 229.40769243
v -29.15939140 -94.13015318 223.68395138
v -29.15939140 -36.30728793 223.68395138
v -16.10541272 -43.69435262 228.87921142
v -20.99724519 -36.30728793 226.11495542
v -22.63159919 -36.30728793 226.66332769
v -17.85524476 -41.79805231 228.36813974
v -22.45838034 -94.13015318 226.23059797
v -16.10541272 -77.43142795 229.49473190
v -25.05345869 -94.13015318 226.23805809
v -29.09363079 -94.13015318 223.73493480
v -27.60362792 -36.30728793 224.88391447
v -16.10541272 -46.23595309 229.52830601
v -25.05345869 -36.30728793 226.23805809
v -22.65565682 -36.63560104 226.73918056
v -16.10541272 -75.68231296 229.52955055
v -26.34618688 -94.13015318 225.70709514
v -19.68206334 -79.83151865 228.22638321
v -22.65565682 -82.23160934 227.14580345
v -26.21787357 -36.30728793 225.76056766
v -27.60362792 -94.13015318 224.88391447
v -27.43842888 -36.30728793 224.99457884
v -27.55230475 -94.13015318 224.91872597
v -16.10541272 -48.63604021 229.52955055
v -17.85524476 -43.83586597 228.81455231
v -22.65565682 -41.43577528 227.14580345
v -19.68206334 -43.83586597 228.22762775
v -26.40232015 -94.13015318 225.68347025
v -26.40232015 -36.30728793 225.68347025
f 1 2 5
f 1 5 11
f 1 11 19
f 1 19 28
f 1 28 37
f 1 37 45
f 1 45 53
f 1 53 61
f 1 61 63
f 1 63 70
f 1 70 81
f 1 81 76
f 1 76 74
f 1 74 64
f 1 64 55
f 1 55 47
f 1 47 41
f 1 41 30
f 1 30 22
f 1 22 15
f 1 15 7
f 1 7 3
f 1 3 4
f 1 4 10
f 1 10 18
f 1 18 14
f 1 14 6
f 1 6 2
f 2 6 5
f 3 7 8
f 3 8 9
f 3 9 4
f 4 9 8
f 4 8 16
f 4 16 23
f 4 23 31
f 4 31 42
f 4 42 49
f 4 49 48
f 4 48 56
f 4 56 65
f 4 65 75
f 4 75 82
f 4 82 73
f 4 73 67
f 4 67 59
f 4 59 58
f 4 58 52
f 4 52 50
f 4 50 43
f 4 43 32
f 4 32 24
f 4 24 17
f 4 17 10
f 5 6 12
f 5 12 13
f 5 13 11
f 6 14 21
f 6 21 12
f 7 15 16
f 7 16 8
f 10 17 18
f 11 13 20
f 11 20 19
f 12 21 27
f 12 27 26
f 12 26 36
f 12 36 35
f 12 35 34
f 12 34 33
f 12 33 44
f 12 44 51
f 12 51 57
f 12 57 66
f 12 66 77
f 12 77 69
f 12 69 62
f 12 62 54
f 12 54 46
f 12 46 40
f 12 40 39
f 12 39 38
f 12 38 29
f 12 29 20
f 12 20 13
f 14 18 21
f 15 22 16
f 16 22 23
f 17 24 25
f 17 25 26
f 17 26 27
f 17 27 18
f 18 27 21
f 19 20 28
f 20 29 28
f 22 30 31
f 22 31 23
f 24 32 25
f 25 32 33
f 25 33 34
f 25 34 35
f 25 35 36
f 25 36 26
f 28 29 38
f 28 38 39
f 28 39 40
f 28 40 37
f 30 41 42
f 30 42 31
f 32 43 44
f 32 44 33
f 37 40 45
f 40 46 45
f 41 47 48
f 41 48 49
f 41 49 42
f 43 50 44
f 44 50 52
f 44 52 51
f 45 46 53
f 46 54 53
f 47 55 48
f 48 55 56
f 51 52 58
f 51 58 59
f 51 59 60
f 51 60 57
f 53 54 61
f 54 62 63
f 54 63 61
f 55 64 56
f 56 64 65
f 57 60 66
f 59 67 68
f 59 68 60
f 60 68 66
f 62 69 63
f 63 69 71
f 63 71 72
f 63 72 79
f 63 79 67
f 63 67 73
f 63 73 70
f 64 74 65
f 65 74 76
f 65 76 75
f 66 68 78
f 66 78 67
f 66 67 79
f 66 79 80
f 66 80 77
f 67 78 68
f 69 72 71
f 69 77 79
f 69 79 72
f 70 73 82
f 70 82 81
f 75 76 81
f 75 81 82
f 77 80 79

