# https://github.com/mikedh/trimesh
v -26.32756162 119.48800373 199.27113581
v -25.05409527 119.48800373 197.99854564
v -25.05409527 119.48800373 186.00128937
v -27.45394993 119.47625923 199.27113581
v -25.05409527 119.45274163 199.27113581
v -20.25560904 119.25289917 178.76721072
v -22.65546370 119.47625923 183.60063362
v -22.65546370 119.48800373 181.20198774
v -22.65546370 119.48800373 178.80133200
v -25.05409527 119.47625923 183.60063362
v -27.45394993 119.46450043 197.99854564
v -28.52395821 119.12358094 199.27113581
v -24.14219785 119.14709854 199.27113581
v -20.21761465 119.24114037 178.76721072
v -22.62237239 119.48800373 178.76721072
v -25.05409527 119.39396191 181.20198774
v -25.26490974 118.92373848 178.76721072
v -27.45394993 119.38220310 195.59989977
v -29.32064223 118.80617905 197.99854564
v -29.40031099 118.81793785 199.27113581
v -23.19598246 118.79442024 199.27113581
v -18.42446315 118.59457779 178.76721072
v -26.97103787 118.81793785 183.60063362
v -26.78473520 118.73564053 181.20198774
v -25.38747597 118.87670326 178.76721072
v -29.15272522 118.72388172 195.59989977
v -30.18963862 116.96053314 199.27113581
v -22.51819003 116.96053314 199.27113581
v -17.75034714 116.96053314 178.76721072
v -26.52612019 118.48877716 179.23891115
v -28.66981316 118.18313408 189.50391817
v -28.77154398 118.33594132 190.79858827
v -28.96274614 118.55930138 193.19924402
v -25.63260841 118.77090264 178.76721072
v -30.00823903 116.96053314 197.99854564
v -30.23131299 114.56238079 199.27113581
v -22.49857950 114.56238079 199.27113581
v -17.71112430 114.56238079 178.76721072
v -26.43664885 118.03029824 178.76721072
v -26.66216898 116.96053314 178.85753679
v -27.31422472 116.96053314 181.20198774
v -28.67716599 116.96053314 189.45574570
v -28.89043379 116.96053314 190.79858827
v -29.65034652 116.96053314 195.59989977
v -27.71869469 116.96053314 183.60063362
v -27.74933624 114.56238079 183.60063362
v -30.03030109 114.56238079 197.99854564
v -30.23131299 100.16167927 199.27113581
v -22.49857950 100.16167927 199.27113581
v -17.73441303 13.76921821 178.76721072
v -26.62907767 116.96053314 178.76721072
v -26.63030076 116.78420115 178.76721072
v -26.66216898 -0.60796928 178.85753679
v -27.31422472 -0.60796928 181.20198774
v -27.31912780 -0.60796928 181.22406769
v -28.89043379 83.36281824 190.79858827
v -27.74933624 -0.60796928 183.60063362
v -30.03030109 100.16167927 197.99854564
v -30.17738271 99.03313446 199.27113581
v -27.75178599 -0.60796928 183.62472343
v -27.92460609 -0.60796928 186.00128937
v -22.57947314 97.76351977 199.27113581
v -21.04616511 -0.60796928 187.62112903
v -20.42107451 -0.60796928 186.00128937
v -17.88884568 -0.60796928 178.76721072
v -17.76750612 4.17658735 178.76721072
v -17.75647509 6.57474685 178.76721072
v -26.63030076 -0.60796928 178.76721072
v -30.10139036 97.76351977 199.27113581
v -27.08134818 -0.60796928 187.68937874
v -23.20701528 95.35360146 199.27113581
v -22.65546370 -0.60796928 188.10889053
v -29.81948662 96.61146450 199.27113581
v -25.05409527 -0.60796928 188.17714023
v -29.36353970 95.35360146 199.27113581
v -25.05409527 94.62475586 199.27113581
v -26.53592634 94.61299706 199.27113581
v -27.45394993 94.61299706 199.27113581
f 1 2 8
f 1 8 15
f 1 15 9
f 1 9 3
f 1 3 4
f 1 4 12
f 1 12 20
f 1 20 27
f 1 27 36
f 1 36 48
f 1 48 59
f 1 59 69
f 1 69 73
f 1 73 75
f 1 75 78
f 1 78 77
f 1 77 76
f 1 76 71
f 1 71 62
f 1 62 49
f 1 49 37
f 1 37 28
f 1 28 21
f 1 21 13
f 1 13 5
f 1 5 2
f 2 5 6
f 2 6 7
f 2 7 8
f 3 9 10
f 3 10 4
f 4 10 11
f 4 11 12
f 5 13 14
f 5 14 6
f 6 15 8
f 6 8 7
f 6 14 22
f 6 22 29
f 6 29 38
f 6 38 50
f 6 50 67
f 6 67 66
f 6 66 65
f 6 65 68
f 6 68 52
f 6 52 51
f 6 51 39
f 6 39 34
f 6 34 25
f 6 25 17
f 6 17 15
f 9 16 10
f 9 15 17
f 9 17 16
f 10 16 18
f 10 18 11
f 11 18 19
f 11 19 20
f 11 20 12
f 13 21 22
f 13 22 14
f 16 23 18
f 16 17 24
f 16 24 23
f 17 25 24
f 18 23 26
f 18 26 19
f 19 26 27
f 19 27 20
f 21 28 29
f 21 29 22
f 23 24 26
f 24 30 31
f 24 31 32
f 24 32 33
f 24 33 26
f 24 25 30
f 25 34 30
f 26 33 27
f 27 33 32
f 27 32 31
f 27 31 35
f 27 35 36
f 28 37 38
f 28 38 29
f 30 34 39
f 30 39 40
f 30 40 41
f 30 41 31
f 31 42 43
f 31 43 44
f 31 44 35
f 31 41 45
f 31 45 46
f 31 46 42
f 35 44 36
f 36 44 47
f 36 47 58
f 36 58 48
f 37 49 38
f 38 49 50
f 39 51 40
f 40 51 52
f 40 52 68
f 40 68 53
f 40 53 54
f 40 54 41
f 41 46 45
f 41 54 55
f 41 55 46
f 42 46 43
f 43 47 44
f 43 46 57
f 43 57 56
f 43 56 58
f 43 58 47
f 46 55 57
f 48 58 57
f 48 57 60
f 48 60 61
f 48 61 59
f 49 62 63
f 49 63 64
f 49 64 65
f 49 65 66
f 49 66 67
f 49 67 50
f 53 68 65
f 53 65 64
f 53 64 63
f 53 63 72
f 53 72 74
f 53 74 70
f 53 70 61
f 53 61 60
f 53 60 57
f 53 57 55
f 53 55 54
f 56 57 58
f 59 61 69
f 61 70 69
f 62 71 63
f 63 71 72
f 69 70 73
f 70 74 75
f 70 75 73
f 71 76 72
f 72 76 74
f 74 76 77
f 74 77 78
f 74 78 75

