# https://github.com/mikedh/trimesh
v 75.92121792 -101.43526745 20.40857124
v 75.92121792 -118.23058080 20.40857124
v 75.92121792 -101.43526745 18.03066063
v 75.24427843 -99.42602825 18.03066063
v 75.23036671 -99.40182400 20.40857124
v 75.04954290 -99.52527714 22.81205225
v 75.55492830 -101.43526745 22.81205225
v 75.90730619 -120.62956285 20.40857124
v 75.92121792 -118.26204490 18.03066063
v 75.55492830 -120.62956285 22.81205225
v 75.23036671 -99.40182400 18.03066063
v 73.33865118 -98.50613785 20.40857124
v 73.33865118 -98.62717342 22.81205225
v 75.21182012 -99.38971472 18.03066063
v 74.78525591 -99.83271551 24.74251318
v 48.50520086 -98.42140865 101.83286774
v 74.90581226 -101.43526745 25.11325884
v 75.04954290 -122.38220405 22.81205225
v 75.21646213 -122.48387050 20.40857124
v 75.90267134 -120.65376711 18.03066063
v 75.90730619 -120.62956285 18.03066063
v 74.90581226 -120.62956285 25.11325884
v 74.78525591 -122.13286590 24.74251318
v 70.94154310 -98.43835306 25.21553325
v 70.94154310 -98.46740675 27.60622549
v 73.33865118 -98.50371313 18.03066063
v 74.50242948 -101.43526745 26.31500292
v 48.69529796 -98.42140865 99.50609433
v 47.00295281 -98.42140865 106.17958772
v 37.70663810 -106.23323869 133.19317508
v 68.27552032 -120.62956285 44.41781092
v 74.50706434 -103.83424949 26.31500292
v 72.48088074 -101.43526745 32.19585705
v 73.33865118 -123.04307174 22.81205225
v 72.67561626 -122.37251949 30.00971365
v 73.33865118 -123.14473819 20.40857124
v 75.21646213 -122.48628807 18.03066063
v 62.66527247 -121.99971390 60.36004591
v 72.36960840 -122.11349678 31.86345625
v 74.50706434 -118.23058080 26.31500292
v 72.48088074 -120.62956285 32.19585705
v 52.95630526 -121.85447407 88.84384680
v 55.38586450 -121.89319801 81.72289657
v 70.24605703 -122.35315037 37.20736790
v 70.94154310 -98.44803762 22.81205225
v 40.86413813 -98.42140865 100.59277344
v 41.38343525 -98.42140865 99.69786155
v 42.58430672 -98.42140865 97.72905218
v 44.54557371 -98.42140865 96.11820864
v 46.76648927 -98.42140865 94.92925334
v 46.95658636 -98.42140865 94.90368473
v 47.81435323 -98.42140865 96.54009688
v 48.50520086 -98.42140865 97.97195840
v 73.31082773 -98.50371313 18.03066063
v 46.78967071 -98.42140865 106.79324138
v 36.30639446 -106.23323869 137.23306823
v 37.70663810 -118.23058080 133.19317508
v 48.50520086 -120.63198042 101.83286774
v 70.94154310 -123.03338718 30.00971365
v 66.14269924 -123.14473819 42.01432991
v 68.54444218 -123.15200519 34.80388689
v 70.94154310 -123.15200519 27.60622549
v 46.26573872 -122.36283493 106.79324138
v 66.14269924 -122.98739624 44.41781092
v 68.54444218 -123.01401806 37.20736790
v 73.33865118 -123.14715576 18.03066063
v 57.81078887 -121.93193626 74.60194635
v 38.68031573 -122.01424789 129.97148800
v 60.49072337 -122.22484779 66.01078081
v 67.80722809 -122.32652855 44.41781092
v 48.38464808 -122.12318134 101.48768711
v 36.87669110 -120.63198042 135.58387089
v 36.30639446 -120.63198042 137.23306823
v 36.25075471 -121.98277664 137.09243822
v 43.82690620 -122.34104824 113.99089742
v 70.94154310 -98.49161100 20.40857124
v 40.36802602 -98.42140865 101.99906635
v 70.94154310 -98.54971122 18.03066063
v 70.91372681 -98.55939579 18.03066063
v 69.04055071 -99.44539737 18.03066063
v 46.24719214 -98.42140865 108.28902530
v 36.28321123 -103.83424949 137.16914582
v 35.87983024 -106.23323869 138.43480873
v 56.54500437 -123.10116482 70.80495763
v 61.34385180 -123.12538337 56.39685678
v 63.74559474 -123.13505363 49.21198416
v 46.94731307 -123.04065418 99.59558534
v 51.74616051 -123.07454300 85.20026970
v 39.74672627 -123.13990307 118.79785943
v 42.14383078 -123.14958763 111.58741820
v 56.54500437 -123.15200519 68.40147662
v 70.94154310 -123.15200519 18.03066063
v 36.89523768 -122.45966625 133.19317508
v 34.94788063 -122.90266704 135.58387089
v 39.74672627 -122.96802711 121.18855524
v 42.14383078 -122.99949836 113.99089742
v 44.54557371 -123.02128505 106.79324138
v 36.51503992 -122.24179935 135.58387089
v 41.39270854 -122.30957699 121.18855524
v 35.87983024 -118.23058080 138.43480873
v 35.84737372 -120.63198042 138.43480873
v 35.04524839 -120.63198042 140.39083290
v 34.01129436 -122.13286590 142.04002666
v 34.38221884 -122.38945675 140.39083290
v 39.54271746 -98.42140865 104.38976216
v 68.28015518 -101.43526745 18.03066063
v 46.06172991 -98.42140865 108.73648214
v 36.21829998 -102.55366277 136.99016380
v 34.93397069 -103.83424949 140.39083290
v 35.07306826 -106.23323869 140.39083290
v 34.94788063 -123.11811638 133.19317508
v 37.34962177 -123.13021850 125.99551725
v 32.54613948 -123.14958763 137.98735189
v 56.54500437 -123.15200519 66.01078081
v 30.14903498 -123.14958763 142.79431033
v 69.00809956 -122.49113750 18.03066063
v 30.14903498 -123.14958763 140.39083290
v 28.56332910 -123.12538337 142.79431033
v 32.54613948 -123.04790687 140.39083290
v 35.07306826 -118.23058080 140.39083290
v 34.14111864 -120.63198042 142.25736427
v 33.39926791 -120.63198042 143.45910120
v 32.19839644 -120.63198042 145.04437971
v 31.91092980 -122.27083874 144.68641567
v 32.64814389 -122.53954601 142.81988072
v 38.43921375 -98.42140865 107.66258645
v 68.22451544 -103.80278539 18.03066063
v 28.56332910 -106.23323869 136.10803532
v 28.56332910 -103.83424949 136.28701734
v 45.44970345 -98.42140865 109.61861062
v 33.96029127 -102.43262720 141.96332264
v 34.10866213 -103.83424949 142.20622706
v 34.14111864 -106.23323869 142.25736427
v 30.32986057 -122.62185764 145.36399174
v 28.56332910 -122.98496437 145.24892855
v 68.99418783 -122.46693325 18.03066063
v 28.56332910 -122.79856872 140.32691049
v 28.56332910 -122.42819500 137.98735189
v 28.56332910 -122.20791054 137.04130101
v 28.74415469 -122.08202553 136.23587656
v 33.40390456 -118.23058080 143.45910120
v 32.20303309 -118.23058080 145.05716133
v 31.21544373 -120.63198042 146.24611664
v 29.65292108 -122.27083874 147.02597427
v 38.28620624 -98.42140865 109.17115378
v 28.79052114 -102.47135830 136.32536936
v 28.56332910 -102.35515785 137.47597265
v 28.56332910 -102.29464006 137.83393669
v 28.56332910 -102.04772663 139.50870442
v 28.56332910 -101.80322361 141.97610426
v 68.22451544 -118.23058080 18.03066063
v 28.56332910 -120.44074249 136.10803532
v 44.15146422 -98.42140865 110.80756593
v 28.56332910 -102.13729095 146.96205187
v 30.27885747 -102.13003111 145.31285095
v 31.80892539 -102.35274029 144.59692287
v 32.11957526 -103.83424949 144.98045730
v 33.32044494 -103.83424949 143.39517879
v 33.40390456 -106.23323869 143.45910120
v 28.56332910 -122.46693325 147.44786072
v 68.24306202 -120.62956285 18.03066063
v 28.56332910 -121.82784509 136.54270696
v 32.20303309 -106.23323869 145.05716133
v 31.22008037 -118.23058080 146.24611664
v 30.02384734 -118.23058080 147.37114954
v 30.01457405 -120.63198042 147.34558630
v 28.56332910 -120.72396946 148.58567524
v 38.55049324 -98.42140865 110.67972112
v 28.56332910 -101.79353904 144.37958526
v 28.56332910 -120.63198042 136.12081694
v 42.66312790 -98.42140865 111.24223757
v 28.56332910 -101.90005493 145.23614693
v 28.56332910 -102.23170471 147.35836792
v 29.56482661 -102.35274029 146.92369270
v 31.14589584 -103.83424949 146.18219423
v 31.22008037 -106.23323869 146.24611664
v 30.02384734 -106.23323869 147.37114954
v 28.56332910 -118.40729189 148.63681602
v 28.64678693 -120.63198042 148.54732323
v 28.56332910 -120.63198042 148.61124563
v 39.38043666 -98.42140865 111.06325555
v 42.14383078 -98.42140865 111.26780617
v 39.80700087 -98.42140865 111.16553175
v 28.56332910 -103.83424949 148.49618244
v 28.58187389 -103.83424949 148.48340082
v 29.94502616 -103.83424949 147.28166389
v 28.64215028 -106.23323869 148.56010485
v 28.64678693 -111.02878523 148.56010485
v 28.56332910 -106.23323869 148.62402725
f 1 2 9
f 1 9 3
f 1 3 4
f 1 4 5
f 1 5 6
f 1 6 7
f 1 7 10
f 1 10 2
f 2 8 9
f 2 10 8
f 3 9 21
f 3 21 20
f 3 20 37
f 3 37 66
f 3 66 92
f 3 92 116
f 3 116 136
f 3 136 161
f 3 161 151
f 3 151 127
f 3 127 106
f 3 106 80
f 3 80 79
f 3 79 78
f 3 78 54
f 3 54 26
f 3 26 14
f 3 14 11
f 3 11 4
f 4 11 5
f 5 12 13
f 5 13 6
f 5 11 14
f 5 14 12
f 6 15 7
f 6 13 16
f 6 16 15
f 7 15 17
f 7 17 22
f 7 22 10
f 8 10 18
f 8 18 19
f 8 19 20
f 8 20 21
f 8 21 9
f 10 22 23
f 10 23 18
f 12 24 25
f 12 25 16
f 12 16 13
f 12 14 26
f 12 26 24
f 15 27 17
f 15 16 27
f 16 28 53
f 16 53 52
f 16 52 51
f 16 51 50
f 16 50 49
f 16 49 48
f 16 48 47
f 16 47 46
f 16 46 77
f 16 77 105
f 16 105 126
f 16 126 145
f 16 145 168
f 16 168 181
f 16 181 183
f 16 183 182
f 16 182 171
f 16 171 153
f 16 153 130
f 16 130 107
f 16 107 81
f 16 81 55
f 16 55 29
f 16 29 30
f 16 30 31
f 16 31 32
f 16 32 33
f 16 33 27
f 16 25 24
f 16 24 28
f 17 27 32
f 17 32 40
f 17 40 22
f 18 34 19
f 18 23 35
f 18 35 34
f 19 36 66
f 19 66 37
f 19 37 20
f 19 34 36
f 22 38 39
f 22 39 23
f 22 40 41
f 22 41 42
f 22 42 43
f 22 43 38
f 23 39 44
f 23 44 35
f 24 26 45
f 24 45 46
f 24 46 47
f 24 47 48
f 24 48 49
f 24 49 50
f 24 50 51
f 24 51 52
f 24 52 53
f 24 53 28
f 26 54 45
f 27 33 32
f 29 55 56
f 29 56 30
f 30 56 73
f 30 73 57
f 30 57 31
f 31 41 40
f 31 40 32
f 31 57 58
f 31 58 42
f 31 42 41
f 34 35 59
f 34 59 86
f 34 86 60
f 34 60 61
f 34 61 62
f 34 62 36
f 35 44 63
f 35 63 64
f 35 64 65
f 35 65 59
f 36 62 66
f 38 43 67
f 38 67 68
f 38 68 39
f 39 69 70
f 39 70 44
f 39 68 71
f 39 71 69
f 42 58 72
f 42 72 73
f 42 73 74
f 42 74 43
f 43 74 67
f 44 70 75
f 44 75 63
f 45 54 76
f 45 76 46
f 46 76 78
f 46 78 79
f 46 79 80
f 46 80 77
f 54 78 76
f 55 81 82
f 55 82 56
f 56 82 83
f 56 83 100
f 56 100 73
f 57 73 72
f 57 72 58
f 59 84 85
f 59 85 86
f 59 65 87
f 59 87 88
f 59 88 84
f 60 86 112
f 60 112 89
f 60 89 90
f 60 90 61
f 61 91 114
f 61 114 92
f 61 92 62
f 61 90 91
f 62 92 66
f 63 75 93
f 63 93 94
f 63 94 95
f 63 95 64
f 64 95 96
f 64 96 65
f 65 96 97
f 65 97 87
f 67 74 68
f 68 74 98
f 68 98 71
f 69 71 98
f 69 98 99
f 69 99 70
f 70 99 75
f 73 100 101
f 73 101 74
f 74 101 102
f 74 102 103
f 74 103 104
f 74 104 98
f 75 99 93
f 77 80 106
f 77 106 105
f 81 107 108
f 81 108 82
f 82 108 109
f 82 109 110
f 82 110 83
f 83 110 120
f 83 120 100
f 84 88 111
f 84 111 112
f 84 112 85
f 85 112 86
f 87 97 111
f 87 111 88
f 89 112 113
f 89 113 90
f 90 113 91
f 91 113 115
f 91 115 117
f 91 117 114
f 92 114 117
f 92 117 118
f 92 118 116
f 93 99 98
f 93 98 104
f 93 104 94
f 94 104 119
f 94 119 111
f 94 111 95
f 95 111 96
f 96 111 97
f 100 120 102
f 100 102 101
f 102 120 121
f 102 121 103
f 103 121 122
f 103 122 123
f 103 123 124
f 103 124 125
f 103 125 104
f 104 125 119
f 105 106 126
f 106 127 128
f 106 128 129
f 106 129 126
f 107 130 131
f 107 131 108
f 108 131 109
f 109 131 132
f 109 132 110
f 110 132 133
f 110 133 121
f 110 121 120
f 111 119 113
f 111 113 112
f 113 119 115
f 115 134 135
f 115 135 118
f 115 118 117
f 115 119 134
f 116 118 137
f 116 137 138
f 116 138 139
f 116 139 140
f 116 140 136
f 118 135 160
f 118 160 167
f 118 167 180
f 118 180 178
f 118 178 189
f 118 189 184
f 118 184 173
f 118 173 154
f 118 154 172
f 118 172 169
f 118 169 150
f 118 150 149
f 118 149 148
f 118 148 147
f 118 147 129
f 118 129 128
f 118 128 152
f 118 152 170
f 118 170 162
f 118 162 139
f 118 139 138
f 118 138 137
f 119 125 134
f 121 133 159
f 121 159 141
f 121 141 122
f 122 141 142
f 122 142 123
f 123 142 143
f 123 143 124
f 124 143 144
f 124 144 134
f 124 134 125
f 126 129 146
f 126 146 147
f 126 147 148
f 126 148 149
f 126 149 150
f 126 150 145
f 127 151 152
f 127 152 128
f 129 147 146
f 130 153 154
f 130 154 155
f 130 155 156
f 130 156 131
f 131 156 157
f 131 157 158
f 131 158 132
f 132 158 159
f 132 159 133
f 134 144 160
f 134 160 135
f 136 140 161
f 139 162 140
f 140 162 161
f 141 159 163
f 141 163 142
f 142 163 176
f 142 176 164
f 142 164 143
f 143 164 165
f 143 165 166
f 143 166 144
f 144 166 167
f 144 167 160
f 145 150 169
f 145 169 168
f 151 161 152
f 152 161 170
f 153 171 169
f 153 169 172
f 153 172 154
f 154 173 174
f 154 174 155
f 155 174 156
f 156 174 175
f 156 175 157
f 157 175 163
f 157 163 158
f 158 163 159
f 161 162 170
f 163 175 176
f 164 176 177
f 164 177 165
f 165 177 178
f 165 178 179
f 165 179 166
f 166 179 167
f 167 179 180
f 168 169 181
f 169 171 182
f 169 182 183
f 169 183 181
f 173 184 174
f 174 184 185
f 174 185 186
f 174 186 175
f 175 186 177
f 175 177 176
f 177 186 185
f 177 185 187
f 177 187 188
f 177 188 178
f 178 188 187
f 178 187 189
f 178 180 179
f 184 189 185
f 185 189 187

