# https://github.com/mikedh/trimesh
v 75.92121792 73.76265574 20.40833521
v 75.45292568 76.16366196 22.81157303
v 75.55492830 73.76265574 22.81157303
v 75.92121792 40.17470765 20.40833521
v 75.92121792 73.76265574 18.03066063
v 75.76357555 76.16366196 18.03066063
v 75.75894070 76.16366196 20.40833521
v 74.73889303 77.56498385 24.63957357
v 74.87335396 76.16366196 25.03585386
v 74.94290543 77.72213984 22.81157303
v 75.55492830 37.77369786 22.81157303
v 74.90581226 73.76265574 25.11255073
v 75.90730619 37.77369786 20.40833521
v 75.92121792 40.14414835 18.03066063
v 75.07272434 77.78325844 18.03066063
v 75.07272434 77.78325844 20.40833521
v 48.50056243 79.28934384 101.83729875
v 74.50706434 73.76265574 26.31417322
v 73.33865118 78.14122963 22.81157303
v 75.04954290 36.02314520 22.81157303
v 74.90581226 37.77369786 25.11255073
v 74.78525591 36.27197552 24.74184084
v 75.21646213 35.91837454 20.40833521
v 75.90267134 37.74750519 18.03066063
v 75.90730619 37.77369786 18.03066063
v 73.33865118 78.20234108 18.03066063
v 73.33865118 78.20234108 20.40833521
v 48.63966179 79.28934384 99.62580490
v 47.76334834 79.28934384 103.98487556
v 68.27552032 37.77369786 44.41517877
v 74.50706434 40.17470765 26.31417322
v 48.50520086 73.76702595 101.83729875
v 73.33865118 35.36395836 22.81157303
v 48.50056243 34.69167519 101.83729875
v 72.48088074 37.77369786 32.19444084
v 47.95808387 34.69167519 103.42241454
v 73.33865118 35.26355076 20.40833521
v 73.36646748 35.26791740 18.03066063
v 75.21646213 35.91837454 18.03066063
v 70.94154310 78.20670414 18.03066063
v 46.94731307 79.28934384 97.95120704
v 47.39242387 79.28934384 98.28357029
v 46.28428531 79.28934384 108.26724577
v 36.30639446 73.76702595 137.24675464
v 37.70663810 71.36601258 133.19448042
v 37.70663810 42.57571745 133.19448042
v 48.67675495 34.69167519 100.00930178
v 36.30639446 42.57571745 137.24675464
v 46.78503227 34.69167519 106.78439545
v 73.33865118 35.25918770 18.03066063
v 69.15646505 77.78325844 18.03066063
v 40.86413813 79.28934384 100.59732783
v 41.80072617 79.28934384 99.53632283
v 42.09746432 79.28934384 99.28066003
v 44.54557371 79.28934384 97.75945949
v 45.76962662 79.28934384 97.79780793
v 46.06172991 79.28934384 108.82970679
v 36.25075471 75.17270375 137.08057213
v 35.87983024 73.76702595 138.43559193
v 48.67675495 34.69167519 99.58745646
v 35.87983024 42.57571745 138.43559193
v 46.05709505 34.69167519 108.66352606
v 36.25075471 40.74222017 137.08057213
v 70.94154310 35.25482106 18.03066063
v 46.97513294 34.69167519 97.23534870
v 68.39606953 76.16366196 18.03066063
v 40.36802602 79.28934384 102.00347948
v 45.71862531 79.28934384 109.67339742
v 34.01129436 75.36478567 142.04045224
v 35.07306826 73.76702595 140.39141941
v 35.07306826 42.57571745 140.39141941
v 44.68930435 34.69167519 109.81401312
v 36.00038123 39.14009023 136.63316178
v 33.83046698 38.91308594 141.73365760
v 31.60027993 38.85196734 144.34142637
v 29.30054319 38.85196734 146.69353771
v 28.56332910 38.80831528 147.07702923
v 34.00665772 40.17034102 142.04045224
v 69.03128099 35.90527821 18.03066063
v 44.54557371 34.69167519 97.10751462
v 43.01087093 34.69167519 97.84894156
v 40.86413813 34.69167519 100.59732783
v 68.22451544 73.79758168 18.03066063
v 38.42994046 79.28934384 107.64086950
v 38.83796167 79.28934384 106.43924880
v 40.11765075 79.28934384 102.71933961
v 44.49920726 79.28934384 111.05398404
v 30.14903498 76.73554468 142.78187918
v 32.54613948 76.60894442 140.39141941
v 32.65278053 75.89737225 142.82022762
v 34.41003871 75.71402359 140.39141941
v 31.92020309 75.52194166 144.69935465
v 32.20303309 73.76702595 145.05729008
v 33.40390456 73.76702595 143.45938730
v 34.14111864 73.76702595 142.25776839
v 34.14111864 42.57571745 142.25776839
v 42.14383078 34.69167519 110.69605398
v 33.16280258 40.17034102 143.24207473
v 31.96193111 40.17034102 144.77605867
v 30.94652367 40.17034102 145.99046278
v 29.74565220 40.17034102 147.10259962
v 28.56332910 40.17034102 148.15082121
v 28.56332910 38.65988899 145.18512058
v 38.32329941 34.69167519 108.84249019
v 39.74672627 34.69167519 110.36369073
v 33.40390456 42.57571745 143.45938730
v 69.00809956 35.91400433 18.03066063
v 40.36802602 34.69167519 102.00347948
v 28.56332910 71.36601258 136.09626579
v 28.56332910 73.76702595 136.12183261
v 68.22451544 40.17470765 18.03066063
v 38.09610915 79.28934384 109.13650322
v 28.74415469 75.30366707 136.23688149
v 28.56332910 75.45646000 137.00387168
v 28.56332910 75.69219399 137.63024974
v 28.56332910 76.19422484 139.43267989
v 44.22565055 79.28934384 111.22016477
v 28.56332910 76.73990774 144.37977838
v 28.56332910 76.51290703 145.24903583
v 30.33913386 76.00214291 145.37686634
v 29.66683102 75.53503800 147.03868437
v 31.22008037 73.76702595 146.25890541
v 32.20303309 42.57571745 145.05729008
v 31.22008037 42.57571745 146.25890541
v 30.02384734 42.57571745 147.35826063
v 28.56332910 41.75064135 148.48318624
v 28.56332910 40.40607858 148.20195484
v 28.56332910 38.61623335 142.78187918
v 38.32329941 34.69167519 108.63795924
v 68.24769688 37.77369786 18.03066063
v 39.03733206 34.69167519 105.85122275
v 28.56332910 44.96799755 136.09626579
v 68.24306202 37.79989052 18.03066063
v 28.56332910 42.57571745 136.12183261
v 38.08683586 79.28934384 111.15624952
v 28.56332910 76.71371508 141.97653699
v 42.19483566 79.28934384 112.12777245
v 42.14383078 79.28934384 112.14055586
v 39.80236602 79.28934384 112.10220563
v 39.74672627 79.28934384 112.08942222
v 28.56332910 75.97595024 147.07702923
v 28.56332910 75.79696465 147.46052790
v 28.56332910 73.76702595 148.62379837
v 28.64215028 73.76702595 148.55988312
v 30.02384734 73.76702595 147.35826063
v 28.64215028 42.57571745 148.55988312
v 28.56332910 42.57571745 148.62379837
v 28.56332910 38.71227432 140.45533466
v 38.44385219 34.69167519 107.67921972
v 28.56332910 38.83887100 138.42280674
v 28.56332910 40.63308287 136.60759497
v 28.90643370 38.93927861 136.67151022
v 28.56332910 39.46313548 137.23396945
v 28.56332910 40.17034102 136.79934072
f 1 2 3
f 1 3 11
f 1 11 4
f 1 4 14
f 1 14 5
f 1 5 6
f 1 6 7
f 1 7 2
f 2 8 9
f 2 9 3
f 2 7 10
f 2 10 8
f 3 9 12
f 3 12 21
f 3 21 11
f 4 13 14
f 4 11 13
f 5 14 25
f 5 25 24
f 5 24 39
f 5 39 38
f 5 38 50
f 5 50 64
f 5 64 79
f 5 79 107
f 5 107 130
f 5 130 133
f 5 133 111
f 5 111 83
f 5 83 66
f 5 66 51
f 5 51 40
f 5 40 26
f 5 26 15
f 5 15 6
f 6 15 16
f 6 16 7
f 7 16 10
f 8 10 17
f 8 17 9
f 9 18 12
f 9 17 18
f 10 16 19
f 10 19 17
f 11 20 13
f 11 21 22
f 11 22 20
f 12 18 31
f 12 31 21
f 13 20 23
f 13 23 24
f 13 24 25
f 13 25 14
f 15 26 27
f 15 27 16
f 16 27 19
f 17 28 42
f 17 42 41
f 17 41 56
f 17 56 55
f 17 55 54
f 17 54 53
f 17 53 52
f 17 52 67
f 17 67 86
f 17 86 85
f 17 85 84
f 17 84 112
f 17 112 135
f 17 135 140
f 17 140 139
f 17 139 138
f 17 138 137
f 17 137 117
f 17 117 87
f 17 87 68
f 17 68 57
f 17 57 43
f 17 43 29
f 17 29 18
f 17 19 27
f 17 27 28
f 18 30 31
f 18 29 32
f 18 32 30
f 20 33 23
f 20 22 34
f 20 34 33
f 21 31 35
f 21 35 36
f 21 36 34
f 21 34 22
f 23 33 37
f 23 37 38
f 23 38 39
f 23 39 24
f 26 40 41
f 26 41 42
f 26 42 28
f 26 28 27
f 29 43 44
f 29 44 45
f 29 45 32
f 30 35 31
f 30 32 36
f 30 36 35
f 32 45 46
f 32 46 36
f 33 34 37
f 34 36 49
f 34 49 62
f 34 62 72
f 34 72 97
f 34 97 105
f 34 105 104
f 34 104 129
f 34 129 149
f 34 149 131
f 34 131 108
f 34 108 82
f 34 82 81
f 34 81 80
f 34 80 65
f 34 65 60
f 34 60 47
f 34 47 37
f 36 46 48
f 36 48 49
f 37 50 38
f 37 47 50
f 40 51 52
f 40 52 53
f 40 53 54
f 40 54 55
f 40 55 56
f 40 56 41
f 43 57 58
f 43 58 59
f 43 59 44
f 44 59 61
f 44 61 48
f 44 48 46
f 44 46 45
f 47 60 50
f 48 61 49
f 49 61 63
f 49 63 62
f 50 60 65
f 50 65 64
f 51 66 67
f 51 67 52
f 57 68 58
f 58 69 70
f 58 70 59
f 58 68 69
f 59 70 71
f 59 71 61
f 61 71 63
f 62 63 73
f 62 73 74
f 62 74 75
f 62 75 76
f 62 76 77
f 62 77 72
f 63 71 78
f 63 78 74
f 63 74 73
f 64 65 80
f 64 80 81
f 64 81 82
f 64 82 79
f 66 83 84
f 66 84 85
f 66 85 86
f 66 86 67
f 68 87 88
f 68 88 89
f 68 89 90
f 68 90 91
f 68 91 69
f 69 91 90
f 69 90 92
f 69 92 93
f 69 93 94
f 69 94 95
f 69 95 70
f 70 95 96
f 70 96 71
f 71 96 78
f 72 77 97
f 74 78 98
f 74 98 99
f 74 99 100
f 74 100 75
f 75 100 76
f 76 101 102
f 76 102 77
f 76 100 101
f 77 102 127
f 77 127 126
f 77 126 147
f 77 147 143
f 77 143 142
f 77 142 141
f 77 141 119
f 77 119 118
f 77 118 136
f 77 136 116
f 77 116 115
f 77 115 114
f 77 114 110
f 77 110 109
f 77 109 132
f 77 132 134
f 77 134 151
f 77 151 154
f 77 154 153
f 77 153 150
f 77 150 148
f 77 148 128
f 77 128 103
f 77 103 104
f 77 104 105
f 77 105 97
f 78 96 106
f 78 106 98
f 79 82 107
f 82 108 107
f 83 109 110
f 83 110 84
f 83 111 132
f 83 132 109
f 84 110 113
f 84 113 114
f 84 114 115
f 84 115 116
f 84 116 112
f 87 117 118
f 87 118 88
f 88 118 119
f 88 119 120
f 88 120 89
f 89 120 90
f 90 120 92
f 92 120 121
f 92 121 122
f 92 122 93
f 93 123 106
f 93 106 94
f 93 122 124
f 93 124 123
f 94 106 96
f 94 96 95
f 98 106 123
f 98 123 99
f 99 123 124
f 99 124 100
f 100 124 101
f 101 124 125
f 101 125 126
f 101 126 127
f 101 127 102
f 103 128 104
f 104 128 129
f 107 108 130
f 108 131 130
f 110 114 113
f 111 133 134
f 111 134 132
f 112 116 136
f 112 136 118
f 112 118 135
f 117 137 118
f 118 137 138
f 118 138 139
f 118 139 140
f 118 140 135
f 119 141 120
f 120 141 121
f 121 141 142
f 121 142 143
f 121 143 144
f 121 144 145
f 121 145 122
f 122 145 125
f 122 125 124
f 125 145 144
f 125 144 146
f 125 146 126
f 126 146 147
f 128 148 129
f 129 148 150
f 129 150 149
f 130 131 133
f 131 149 151
f 131 151 134
f 131 134 133
f 143 147 146
f 143 146 144
f 149 150 152
f 149 152 153
f 149 153 154
f 149 154 151
f 150 153 152

