# https://github.com/mikedh/trimesh
v 3.74336851 22.14995551 158.49661279
v 1.34287369 22.14995551 158.53431392
v 1.34287369 33.28518200 158.71289182
v 3.74336851 33.28518200 158.68908095
v 6.01952147 22.14995551 158.52240848
v 1.10455137 22.14995551 158.55217027
v 0.85586679 33.28518200 158.74463844
v 6.14386332 33.28518200 158.72281241
v 6.14386332 22.14995551 158.52835941
v -0.76403546 33.28518200 158.94107628
v -1.04725885 22.14995551 159.01449013
v 8.63761496 33.28518200 159.57800436
v 8.65488481 33.28518200 159.58395529
v 8.48218810 22.14995551 159.80420399
v -2.14561451 22.14995551 159.38156652
v -3.45811594 33.28518200 160.06214666
v 8.30948961 33.28518200 161.29632044
v 8.18860245 22.14995551 161.43720078
v -3.45811594 22.14995551 160.04825997
v -4.06946468 22.14995551 160.36969948
v -4.70499086 33.28518200 160.77050733
v 8.15060806 33.28518200 161.44116688
v 6.78975177 33.28518200 162.48287248
v 6.54106808 22.14995551 162.63763952
v -4.70499086 22.14995551 160.77050733
v -17.85417724 33.28518200 169.09423160
v 5.50142956 33.28518200 163.35393953
v 5.34254712 22.14995551 163.45314908
v -17.85417724 22.14995551 169.09423160
v -18.06832123 33.28518200 169.23113870
v -17.73328829 22.14995551 178.76522589
v -17.74019766 33.28518200 178.76522589
v -17.73328829 23.43177068 178.76522589
v -18.64858496 22.14995551 169.60218477
v -19.46717191 33.28518200 170.12601661
v -26.62720728 22.14995551 178.76522589
v -26.63066197 33.28518200 178.76522589
v -19.46717191 22.14995551 170.12601661
v -20.66914487 33.28518200 170.95739412
v -26.63066197 23.36855281 178.76522589
v -26.44414830 22.14995551 178.24536371
v -26.23345900 33.28518200 177.65407252
v -20.66914487 22.14995551 170.95739412
v -21.40829015 22.14995551 171.54868531
v -22.16815996 33.28518200 172.15783644
v -26.23345900 22.14995551 177.65407252
v -25.54266858 33.28518200 176.39807272
v -22.16815996 22.14995551 172.15783644
v -22.32704151 33.28518200 172.31260347
v -25.54266858 22.14995551 176.39807272
v -24.52029991 33.28518200 174.77698135
v -23.37013292 22.14995551 173.33049822
v -23.37013292 33.28518200 173.33049822
v -24.36487126 22.14995551 174.53094053
v -24.36487126 33.28518200 174.53094053
f 1 2 3
f 1 3 4
f 1 4 5
f 1 5 9
f 1 9 14
f 1 14 18
f 1 18 24
f 1 24 28
f 1 28 31
f 1 31 36
f 1 36 41
f 1 41 46
f 1 46 50
f 1 50 54
f 1 54 52
f 1 52 48
f 1 48 44
f 1 44 43
f 1 43 38
f 1 38 34
f 1 34 29
f 1 29 25
f 1 25 20
f 1 20 19
f 1 19 15
f 1 15 11
f 1 11 6
f 1 6 2
f 2 6 7
f 2 7 3
f 3 7 10
f 3 10 16
f 3 16 21
f 3 21 26
f 3 26 30
f 3 30 35
f 3 35 39
f 3 39 45
f 3 45 49
f 3 49 53
f 3 53 55
f 3 55 51
f 3 51 47
f 3 47 42
f 3 42 37
f 3 37 32
f 3 32 27
f 3 27 23
f 3 23 22
f 3 22 17
f 3 17 13
f 3 13 12
f 3 12 8
f 3 8 4
f 4 8 5
f 5 8 9
f 6 10 7
f 6 11 10
f 8 12 9
f 9 12 13
f 9 13 14
f 10 11 15
f 10 15 16
f 13 17 18
f 13 18 14
f 15 19 16
f 16 19 20
f 16 20 21
f 17 22 18
f 18 23 24
f 18 22 23
f 20 25 21
f 21 25 29
f 21 29 26
f 23 27 28
f 23 28 24
f 26 29 30
f 27 31 28
f 27 32 33
f 27 33 31
f 29 34 30
f 30 34 35
f 31 33 32
f 31 32 37
f 31 37 40
f 31 40 36
f 34 38 35
f 35 38 43
f 35 43 39
f 36 40 41
f 37 42 46
f 37 46 40
f 39 43 44
f 39 44 45
f 40 46 41
f 42 47 50
f 42 50 46
f 44 48 45
f 45 48 49
f 47 51 50
f 48 52 49
f 49 52 53
f 50 51 54
f 51 55 54
f 52 54 55
f 52 55 53

