# https://github.com/mikedh/trimesh
v -0.02919781 -19.82684803 157.81049299
v 28.55610681 -17.42820573 136.12953591
v 0.00717741 -22.23003399 157.81049299
v -0.02639937 18.04717708 157.81049299
v 28.55610681 11.36459458 136.11466932
v 28.55610681 -15.02956253 136.11466932
v 28.55610681 -17.23740411 136.12741160
v 28.55610681 -18.84558511 136.55215370
v 1.16278928 -24.41515994 157.81049299
v 0.00997585 18.56506515 157.81049299
v 28.55610681 13.76323688 136.12953591
v 28.55610681 -19.33167290 137.01724696
v 1.34746295 -24.54236102 157.81049299
v 0.27299595 19.83707416 157.81049299
v 28.55610681 15.66670585 137.01724696
v 28.55610681 -19.71781802 138.00052333
v 3.74822599 -24.98756480 157.81049299
v 1.16558772 20.76836396 157.81049299
v 28.55610681 15.94836462 137.64586377
v 1.23553973 20.82742262 157.81049299
v 1.34746295 20.89556504 157.81049299
v 2.84444225 21.30896855 157.81049299
v 28.55610681 -20.30385029 140.34085262
v 6.14619058 -25.02845061 157.81049299
v 28.55610681 16.57073903 139.44677043
v 5.15007001 21.38165462 157.81049299
v 28.55610681 -20.87625336 142.80223357
v 8.60571322 -24.57870495 157.81049299
v 28.55610681 17.21128631 141.99097621
v 6.14619058 21.36802542 157.81049299
v 28.55610681 -20.60368013 145.26148844
v 27.74186325 -20.89442622 145.20202565
v 10.94491777 -24.09715903 157.81049299
v 28.55610681 17.22945738 144.39076829
v 7.57041943 21.33622515 157.81049299
v 12.38873300 -23.64741337 157.81049299
v 12.32717496 -23.67466998 157.81049299
v 28.55610681 -19.72236168 147.47864353
v 11.40100640 -23.96087241 157.81049299
v 28.55610681 16.94325674 145.26148844
v 10.59795436 20.57302046 157.81049299
v 12.29919416 20.01424659 157.81049299
v 12.43909863 -23.61106944 157.81049299
v 28.55610681 -17.53269207 148.60845613
v 27.13747394 -19.32258737 149.20309472
v 28.55610681 16.28908026 147.08575713
v 12.44189662 19.93247497 157.81049299
v 16.99718964 -21.08068418 156.03507089
v 12.89518771 -23.00232422 157.81049299
v 24.32819080 -18.96824252 151.31618547
v 28.55610681 -17.42820573 148.62969386
v 28.55610681 16.05739463 147.47864353
v 14.16831922 16.38448107 157.81049299
v 16.99718964 17.41571713 156.03507089
v 27.13747394 15.66216219 149.20309472
v 27.43687105 -17.42820573 149.40484690
v 25.62090826 -17.42820573 150.60474562
v 17.02796888 -19.82684803 156.05206179
v 15.74364495 -19.82684803 156.86756420
v 14.25785851 -19.82684803 157.81049299
v 28.55610681 13.76323688 148.62969386
v 14.25785851 16.16642285 157.81049299
v 17.02796888 16.16642285 156.05418253
v 25.62090826 13.76323688 150.60474562
v 27.43687105 13.76323688 149.40484690
v 24.32819080 15.30327547 151.31618547
v 24.42052674 -17.42820573 151.37352753
v 22.94313383 -17.42820573 152.31008339
v 22.94313383 13.76323688 152.31008339
v 24.42052674 13.76323688 151.37352753
f 1 2 3
f 1 3 9
f 1 9 13
f 1 13 17
f 1 17 24
f 1 24 28
f 1 28 33
f 1 33 39
f 1 39 37
f 1 37 36
f 1 36 43
f 1 43 49
f 1 49 60
f 1 60 62
f 1 62 53
f 1 53 47
f 1 47 42
f 1 42 41
f 1 41 35
f 1 35 30
f 1 30 26
f 1 26 22
f 1 22 21
f 1 21 20
f 1 20 18
f 1 18 14
f 1 14 10
f 1 10 4
f 1 4 5
f 1 5 6
f 1 6 7
f 1 7 2
f 2 8 3
f 2 7 6
f 2 6 5
f 2 5 11
f 2 11 15
f 2 15 19
f 2 19 25
f 2 25 29
f 2 29 34
f 2 34 40
f 2 40 46
f 2 46 52
f 2 52 61
f 2 61 51
f 2 51 44
f 2 44 38
f 2 38 31
f 2 31 27
f 2 27 23
f 2 23 16
f 2 16 12
f 2 12 8
f 3 8 9
f 4 10 11
f 4 11 5
f 8 12 13
f 8 13 9
f 10 14 11
f 11 14 15
f 12 16 17
f 12 17 13
f 14 18 15
f 15 18 20
f 15 20 21
f 15 21 22
f 15 22 19
f 16 23 24
f 16 24 17
f 19 22 25
f 22 26 25
f 23 27 24
f 24 27 28
f 25 26 29
f 26 30 29
f 27 31 32
f 27 32 33
f 27 33 28
f 29 30 35
f 29 35 34
f 31 36 37
f 31 37 32
f 31 38 36
f 32 37 39
f 32 39 33
f 34 35 41
f 34 41 42
f 34 42 40
f 36 38 43
f 38 44 45
f 38 45 43
f 40 42 46
f 42 47 46
f 43 48 49
f 43 45 48
f 44 50 45
f 44 51 50
f 45 50 48
f 46 47 52
f 47 53 54
f 47 54 55
f 47 55 52
f 48 50 56
f 48 56 57
f 48 57 58
f 48 58 59
f 48 59 60
f 48 60 49
f 50 51 56
f 51 61 65
f 51 65 56
f 52 55 61
f 53 62 54
f 54 62 63
f 54 63 64
f 54 64 65
f 54 65 66
f 54 66 55
f 55 66 61
f 56 65 64
f 56 64 57
f 57 64 70
f 57 70 67
f 57 67 58
f 58 67 59
f 59 67 60
f 60 67 68
f 60 68 69
f 60 69 62
f 61 66 65
f 62 69 70
f 62 70 63
f 63 70 64
f 67 70 69
f 67 69 68

