# https://github.com/mikedh/trimesh
v -14.55615270 -100.07055950 6.00017357
v -14.55615270 -100.15190553 5.78404474
v -14.55615270 -100.19032192 8.40823936
v 16.49533045 -108.42190695 8.39926290
v 16.49533045 -108.34734154 6.00017357
v 16.49533045 -109.06362724 4.00267887
v -14.55615270 -101.49409008 3.87105751
v -14.55615270 -101.57994938 10.02732086
v 16.49533045 -109.13141203 9.98469877
v 16.49533045 -108.76761865 9.33407354
v 16.49533045 -111.03396368 3.03945112
v -14.55615270 -101.92566108 3.66091537
v -14.55615270 -103.78528309 10.36160993
v 16.49533045 -111.03396368 10.42517471
v 16.49533045 -110.28830957 10.29280948
v 16.49533045 -113.43135786 2.84800577
v -14.55615270 -104.73203850 2.86819744
v -14.55615270 -106.23239469 10.48799562
v -13.05464315 -106.23239469 10.48799562
v 16.49533045 -112.68118334 10.48799562
v 16.49533045 -118.23067379 2.84800577
v -14.55615270 -107.13170004 2.84800577
v -14.55615270 -106.23239469 2.85398531
v -14.55615270 -120.63032818 10.48799562
v 16.49533045 -120.63032818 10.48799562
v 16.49533045 -120.63032818 2.92877245
v -14.55615270 -118.23067379 2.84800577
v -14.55615270 -122.36116123 10.04377889
v 16.49533045 -122.36116123 10.04377889
v 16.49533045 -121.21329736 3.23389339
v -14.55615270 -121.32853222 3.29372454
v -14.55615270 -120.63032818 2.92877245
v -14.55615270 -122.77465057 9.01548433
v 16.49533045 -122.81533432 8.91378212
v 16.49533045 -122.48995018 3.90471029
v -14.55615270 -122.48995018 3.90471029
v -14.55615270 -123.02094173 8.39926290
v 16.49533045 -123.02094173 8.39926290
v 16.49533045 -122.69783211 4.55982733
v -14.55615270 -122.73850155 4.68920278
v -14.55615270 -123.15200519 6.00017357
v 16.49533045 -123.11133575 6.75026226
v 16.49533045 -123.15200519 6.00017357
f 1 2 7
f 1 7 12
f 1 12 17
f 1 17 23
f 1 23 22
f 1 22 27
f 1 27 32
f 1 32 31
f 1 31 36
f 1 36 40
f 1 40 41
f 1 41 37
f 1 37 33
f 1 33 28
f 1 28 24
f 1 24 18
f 1 18 13
f 1 13 8
f 1 8 3
f 1 3 4
f 1 4 5
f 1 5 6
f 1 6 2
f 2 6 7
f 3 8 9
f 3 9 10
f 3 10 4
f 4 10 9
f 4 9 15
f 4 15 14
f 4 14 20
f 4 20 25
f 4 25 29
f 4 29 34
f 4 34 38
f 4 38 42
f 4 42 43
f 4 43 39
f 4 39 35
f 4 35 30
f 4 30 26
f 4 26 21
f 4 21 16
f 4 16 11
f 4 11 6
f 4 6 5
f 6 11 7
f 7 11 12
f 8 13 14
f 8 14 15
f 8 15 9
f 11 16 17
f 11 17 12
f 13 18 19
f 13 19 14
f 14 19 20
f 16 21 27
f 16 27 22
f 16 22 23
f 16 23 17
f 18 24 25
f 18 25 20
f 18 20 19
f 21 26 32
f 21 32 27
f 24 28 29
f 24 29 25
f 26 30 31
f 26 31 32
f 28 33 29
f 29 33 34
f 30 35 31
f 31 35 36
f 33 37 34
f 34 37 38
f 35 39 36
f 36 39 40
f 37 41 42
f 37 42 38
f 39 43 41
f 39 41 40
f 41 43 42

