# https://github.com/mikedh/trimesh
v 39.74543524 17.30256188 118.59993833
v 37.46323299 17.30256188 118.59993833
v 40.00974369 17.29745674 118.59993833
v 42.14634132 21.01426888 110.85414338
v 37.45373440 17.30256188 118.59763968
v 37.44265509 17.29234982 118.59993833
v 40.65546942 21.01426888 110.79436588
v 39.74543524 21.01426888 110.64492214
v 41.61931229 16.36825192 118.59993833
v 44.67386198 21.01426888 109.96207821
v 35.46590638 16.21508706 118.59993833
v 39.03007221 21.01426888 110.32994050
v 41.63355660 16.35804165 118.59993833
v 46.06027436 21.01426888 108.71364671
v 44.71026134 21.01426888 109.93218946
v 35.39785159 16.11297715 118.59993833
v 38.26722693 21.01426888 109.07231259
v 43.45362496 17.47614908 115.43172735
v 42.66229105 14.02992714 118.59993833
v 46.07451868 21.01426888 108.68145841
v 42.73034406 13.76444030 118.59993833
v 34.64925063 13.76444030 118.59993833
v 38.42707586 21.01426888 107.64684635
v 46.78988528 21.01426888 106.80076408
v 49.26992369 13.76444030 99.60216391
v 46.80729461 21.01426888 106.75478118
v 42.73034406 -17.43024420 118.59993833
v 50.81618857 -7.83188012 95.11194753
v 34.64766812 13.56532562 118.59993833
v 38.42549157 20.96321392 107.64224815
v 38.82432532 21.01426888 106.48348290
v 50.52656007 13.76444030 95.95113206
v 48.09558463 21.01426888 103.01178622
v 41.63355660 -20.02384555 118.59993833
v 45.80546808 -31.14365291 108.05149513
v 46.53507543 -31.14365291 106.80076408
v 47.61761856 -31.14365291 104.40046418
v 48.50074840 -22.22942781 101.83692503
v 50.81460428 15.43904889 95.11194753
v 50.52656007 -19.82983601 95.95113206
v 50.81460428 -19.82983601 95.11194753
v 38.83540463 20.96321392 106.44439775
v 39.53810763 21.01426888 104.40046418
v 40.36426020 21.01426888 102.00016427
v 42.73509335 13.76444030 95.11194753
v 34.64766812 -15.03065419 118.59993833
v 48.49916410 21.01426888 101.83462727
v 41.49270129 -20.09532284 118.59993833
v 39.74543524 -20.96326065 118.59993833
v 44.54408240 -31.14365291 108.14346003
v 48.08767033 -31.14365291 103.03477633
v 50.81302357 16.16403210 95.11194753
v 48.49916410 -31.14365291 101.83462727
v 48.49916410 -31.14365291 99.99991584
v 49.55322218 -22.31111538 95.11194753
v 40.85172129 21.01426888 100.64367282
v 42.73825836 16.16403210 95.11194753
v 42.73509335 -19.51840114 95.11194753
v 40.36426020 -31.14365291 102.00016427
v 39.53810763 -31.14365291 104.40046418
v 34.64925063 -17.43024420 118.59993833
v 48.49916410 21.01426888 99.95623159
v 50.67216825 16.96559775 95.11194753
v 37.46323299 -20.96326065 118.59993833
v 42.14634132 -31.14365291 108.17564833
v 46.94498491 -31.14365291 98.94231009
v 46.94498491 -23.32200777 95.11194753
v 40.86121631 21.01426888 100.61838317
v 43.05479121 17.76716340 95.11194753
v 42.73984265 -19.82983601 95.11194753
v 40.86121631 -31.14365291 100.61838317
v 40.71877670 -31.14365291 101.01383376
v 39.54918694 -31.14365291 105.09020585
v 35.39785159 -19.77878105 118.59993833
v 34.67932177 -17.62425375 118.59993833
v 49.55322218 18.08881033 95.11194753
v 49.46934056 18.12965501 95.11194753
v 46.97505784 21.01426888 98.74458480
v 37.44265509 -20.95815551 118.59993833
v 37.45373440 -20.96326065 118.59763968
v 40.70294809 -31.14365291 108.08368254
v 41.17933345 -31.14365291 108.13656318
v 44.54408240 -31.14365291 98.68480730
v 44.54408240 -22.86251139 95.11194753
v 42.24288297 21.01426888 99.34925842
v 42.31885385 21.01426888 99.28718138
v 44.33200550 18.34919203 95.11194753
v 42.95824957 -21.36659515 95.11194753
v 41.77758050 -31.14365291 99.86196625
v 43.02788687 -21.70355928 95.11194753
v 39.79291749 -31.14365291 106.80076408
v 40.05405736 -31.14365291 107.19161737
v 46.94815350 18.76273859 95.11194753
v 45.11542511 21.01426888 98.43190360
v 43.85562015 -31.14365291 98.93541503
v 44.54408240 21.01426888 98.42040586
v 44.54408240 18.44109166 95.11194753
v 42.14634132 -31.14365291 99.55847966
v 46.60471272 18.75763345 95.11194753
f 1 2 6
f 1 6 11
f 1 11 16
f 1 16 22
f 1 22 29
f 1 29 46
f 1 46 61
f 1 61 75
f 1 75 74
f 1 74 79
f 1 79 64
f 1 64 49
f 1 49 48
f 1 48 34
f 1 34 27
f 1 27 21
f 1 21 19
f 1 19 13
f 1 13 9
f 1 9 3
f 1 3 4
f 1 4 2
f 2 5 6
f 2 4 7
f 2 7 8
f 2 8 5
f 3 9 10
f 3 10 4
f 4 10 15
f 4 15 14
f 4 14 20
f 4 20 24
f 4 24 26
f 4 26 33
f 4 33 47
f 4 47 62
f 4 62 78
f 4 78 94
f 4 94 96
f 4 96 86
f 4 86 85
f 4 85 68
f 4 68 56
f 4 56 44
f 4 44 43
f 4 43 31
f 4 31 23
f 4 23 17
f 4 17 12
f 4 12 8
f 4 8 7
f 5 11 6
f 5 8 12
f 5 12 11
f 9 13 14
f 9 14 15
f 9 15 10
f 11 12 17
f 11 17 16
f 13 18 14
f 13 19 18
f 14 18 21
f 14 21 20
f 16 17 23
f 16 23 22
f 18 19 21
f 20 21 24
f 21 25 26
f 21 26 24
f 21 27 28
f 21 28 25
f 22 23 30
f 22 30 29
f 23 31 30
f 25 32 33
f 25 33 26
f 25 28 32
f 27 34 35
f 27 35 36
f 27 36 37
f 27 37 38
f 27 38 28
f 28 39 32
f 28 38 40
f 28 40 41
f 28 41 55
f 28 55 67
f 28 67 84
f 28 84 90
f 28 90 88
f 28 88 70
f 28 70 58
f 28 58 45
f 28 45 57
f 28 57 69
f 28 69 87
f 28 87 97
f 28 97 99
f 28 99 93
f 28 93 77
f 28 77 76
f 28 76 63
f 28 63 52
f 28 52 39
f 29 30 42
f 29 42 43
f 29 43 44
f 29 44 45
f 29 45 58
f 29 58 46
f 30 31 42
f 31 43 42
f 32 39 33
f 33 39 47
f 34 48 35
f 35 48 49
f 35 49 50
f 35 50 65
f 35 65 82
f 35 82 81
f 35 81 92
f 35 92 91
f 35 91 73
f 35 73 60
f 35 60 59
f 35 59 72
f 35 72 71
f 35 71 89
f 35 89 98
f 35 98 95
f 35 95 83
f 35 83 66
f 35 66 54
f 35 54 53
f 35 53 51
f 35 51 37
f 35 37 36
f 37 51 38
f 38 51 40
f 39 52 47
f 40 51 41
f 41 51 53
f 41 53 54
f 41 54 55
f 44 56 57
f 44 57 45
f 46 58 59
f 46 59 60
f 46 60 61
f 47 52 63
f 47 63 62
f 49 64 65
f 49 65 50
f 54 66 55
f 55 66 67
f 56 68 57
f 57 68 69
f 58 70 71
f 58 71 72
f 58 72 59
f 60 73 74
f 60 74 75
f 60 75 61
f 62 76 77
f 62 77 78
f 62 63 76
f 64 79 80
f 64 80 81
f 64 81 82
f 64 82 65
f 66 83 67
f 67 83 84
f 68 85 69
f 69 85 86
f 69 86 87
f 70 88 71
f 71 88 90
f 71 90 89
f 73 91 74
f 74 91 92
f 74 92 81
f 74 81 79
f 77 93 78
f 78 93 94
f 79 81 80
f 83 95 90
f 83 90 84
f 86 96 97
f 86 97 87
f 89 90 98
f 90 95 98
f 93 96 94
f 93 99 96
f 96 99 97

