# https://github.com/mikedh/trimesh
v 8.22460306 82.48721648 160.02354073
v 6.13959771 82.48721648 159.02576971
v 8.03014693 82.48721648 161.35946321
v 28.55610681 76.74151707 144.39322519
v 28.55610681 76.70780707 141.99273574
v 28.55610681 76.19247246 139.44613027
v 5.15111071 82.48721648 158.95062494
v 28.55610681 75.69159317 137.65098142
v 6.53931391 82.48721648 162.56179738
v 27.13549447 75.46041537 149.20672822
v 28.55610681 75.79755116 147.48255062
v 28.55610681 75.97574997 147.09012198
v 28.55610681 76.51034642 145.26157605
v 3.74130119 82.48721648 158.92557669
v 28.55610681 75.46041537 137.02059257
v 0.26809287 82.48721648 159.00489855
v 1.34300467 82.48721648 158.95062494
v 2.74201137 82.48721648 158.92557669
v 5.34016576 82.48721648 163.45102119
v 28.55610681 73.76512337 148.63478470
v 28.55610681 73.76512337 136.13136697
v -4.24761880 82.48721648 160.48276353
v -3.45358837 82.48721648 160.09868550
v -2.54612464 82.48721648 159.66451096
v -1.04989010 82.48721648 159.23450994
v -17.80555594 82.48721648 178.76405287
v 25.61765385 73.76512337 150.60944843
v 27.43258130 73.76512337 149.40711605
v 28.55610681 42.57076788 148.63478470
v 28.55610681 71.36184979 136.11466932
v -20.66838670 82.48721648 170.95307040
v -19.46383703 82.48721648 170.12646723
v -17.84876812 82.48721648 169.09112739
v -16.38494361 82.48721648 168.16432762
v -26.62631679 82.48721648 178.76405287
v -17.73533571 76.15876246 178.76405287
v 25.61765385 42.57076788 150.60944843
v -17.72993374 73.82773686 178.76405287
v 27.43258130 42.57076788 149.40711605
v 24.32667983 40.67800808 151.31915736
v 27.19491255 40.17231155 149.23177647
v 28.55610681 42.43109632 148.61390996
v 28.55610681 44.96922064 136.11466932
v -20.66838670 33.28518200 170.95307040
v -22.16462123 82.48721648 172.15540457
v -26.50208044 82.48721648 178.41337371
v -26.62631679 33.28518200 178.76405287
v -17.72993374 35.37540245 178.76405287
v -17.73533571 33.28518200 178.76405287
v 5.49681124 33.28518200 163.34665108
v 6.78778616 33.28518200 162.48247552
v 28.39406025 40.17231155 148.31332731
v 28.55610681 41.75201464 148.48449337
v 28.55610681 42.76341486 136.12719345
v -22.16462123 33.28518200 172.15540457
v 28.55610681 42.57076788 136.13136697
v -19.62588537 33.28518200 170.23501086
v -22.32666957 33.28518200 172.30987119
v -22.92624521 82.48721648 172.89851236
v -26.22659969 82.48721648 177.65356827
v -26.28601956 33.28518200 177.80803490
v 8.14898130 33.28518200 161.43878507
v 26.81680334 38.86713076 148.96876621
v 28.55610681 40.17231155 148.17138481
v 28.55610681 40.40830660 148.22148311
v 28.55610681 40.62984991 136.61981511
v -19.46383703 33.28518200 170.12646723
v -23.36377072 33.28518200 173.32850981
v -23.36377072 82.48721648 173.32850981
v -26.22659969 33.28518200 177.65356827
v -25.97812700 82.48721648 177.19016838
v 8.30562678 33.28518200 161.29684257
v 28.55610681 38.81415177 147.08177137
v 28.55610681 40.17231155 136.81185412
v -16.38494361 33.28518200 168.16432762
v -18.06483078 33.28518200 169.22889280
v -24.35765791 33.28518200 174.52667045
v -24.35765791 82.48721648 174.52667045
v -25.62702942 33.28518200 176.55977773
v -25.53520131 82.48721648 176.39696407
v 8.65132731 33.28518200 159.58101559
v 28.55610681 38.66003561 145.19478011
v 28.55610681 39.46433354 137.24185514
v -4.69594914 33.28518200 160.76664853
v -25.53520131 33.28518200 176.39696407
v -25.10847616 82.48721648 175.70812630
v 28.55610681 38.61668754 142.80263948
v 6.13959771 33.28518200 158.72101354
v 28.55610681 38.84304810 138.43583691
v 28.55610681 38.71301103 140.46477246
v 28.55610681 38.97790241 138.16865313
v -0.76360720 33.28518200 158.93810081
v -3.45358837 33.28518200 160.06111312
v 3.74130119 33.28518200 158.68761468
v 1.34300467 33.28518200 158.71266293
v 0.85686368 33.28518200 158.74606180
f 1 2 7
f 1 7 14
f 1 14 18
f 1 18 17
f 1 17 16
f 1 16 25
f 1 25 24
f 1 24 23
f 1 23 22
f 1 22 34
f 1 34 33
f 1 33 32
f 1 32 31
f 1 31 45
f 1 45 59
f 1 59 69
f 1 69 78
f 1 78 86
f 1 86 80
f 1 80 71
f 1 71 60
f 1 60 46
f 1 46 35
f 1 35 26
f 1 26 19
f 1 19 9
f 1 9 3
f 1 3 4
f 1 4 5
f 1 5 6
f 1 6 2
f 2 6 8
f 2 8 7
f 3 9 10
f 3 10 11
f 3 11 12
f 3 12 13
f 3 13 4
f 4 13 12
f 4 12 11
f 4 11 20
f 4 20 29
f 4 29 42
f 4 42 53
f 4 53 65
f 4 65 64
f 4 64 73
f 4 73 82
f 4 82 87
f 4 87 90
f 4 90 89
f 4 89 91
f 4 91 83
f 4 83 74
f 4 74 66
f 4 66 56
f 4 56 54
f 4 54 43
f 4 43 30
f 4 30 21
f 4 21 15
f 4 15 8
f 4 8 6
f 4 6 5
f 7 8 14
f 8 15 16
f 8 16 17
f 8 17 18
f 8 18 14
f 9 19 20
f 9 20 10
f 10 20 11
f 15 21 22
f 15 22 23
f 15 23 24
f 15 24 25
f 15 25 16
f 19 26 27
f 19 27 28
f 19 28 20
f 20 28 39
f 20 39 29
f 21 30 31
f 21 31 32
f 21 32 33
f 21 33 34
f 21 34 22
f 26 35 47
f 26 47 49
f 26 49 48
f 26 48 38
f 26 38 36
f 26 36 27
f 27 37 39
f 27 39 28
f 27 36 38
f 27 38 48
f 27 48 37
f 29 39 40
f 29 40 41
f 29 41 42
f 30 43 44
f 30 44 31
f 31 44 55
f 31 55 45
f 35 46 47
f 37 48 49
f 37 49 39
f 39 49 50
f 39 50 51
f 39 51 40
f 40 51 41
f 41 52 42
f 41 51 52
f 42 52 53
f 43 54 44
f 44 54 56
f 44 56 57
f 44 57 67
f 44 67 76
f 44 76 75
f 44 75 84
f 44 84 93
f 44 93 92
f 44 92 96
f 44 96 95
f 44 95 94
f 44 94 88
f 44 88 81
f 44 81 72
f 44 72 62
f 44 62 51
f 44 51 50
f 44 50 49
f 44 49 47
f 44 47 61
f 44 61 70
f 44 70 79
f 44 79 85
f 44 85 77
f 44 77 68
f 44 68 58
f 44 58 55
f 45 58 59
f 45 55 58
f 46 60 61
f 46 61 47
f 51 62 52
f 52 62 63
f 52 63 64
f 52 64 65
f 52 65 53
f 56 66 67
f 56 67 57
f 58 68 59
f 59 68 69
f 60 70 61
f 60 71 70
f 62 72 63
f 63 73 64
f 63 72 73
f 66 74 75
f 66 75 76
f 66 76 67
f 68 77 78
f 68 78 69
f 70 71 79
f 71 80 79
f 72 81 82
f 72 82 73
f 74 83 84
f 74 84 75
f 77 85 86
f 77 86 78
f 79 80 85
f 80 86 85
f 81 87 82
f 81 88 89
f 81 89 90
f 81 90 87
f 83 91 92
f 83 92 93
f 83 93 84
f 88 94 89
f 89 94 95
f 89 95 96
f 89 96 92
f 89 92 91

