# https://github.com/mikedh/trimesh
v 28.55610681 13.76712251 148.63251912
v 28.63934469 13.76712251 148.57372331
v 29.66040087 15.70764709 147.04798984
v 28.55610681 16.05978894 147.47719335
v 28.55610681 -17.43112039 148.63251912
v 30.01832735 13.76712251 147.37430203
v 28.63934469 -17.43112039 148.57372331
v 31.91616011 15.70389915 144.70794129
v 30.33463311 16.30703855 145.38408506
v 28.55610681 16.29205036 147.08620596
v 31.21834588 13.76712251 146.26307177
v 28.55610681 -17.53601622 148.60899973
v 30.01832735 -17.43112039 147.37430203
v 29.66040087 -19.37164497 147.04798984
v 32.20055830 13.76712251 145.06071257
v 34.00821698 15.56154537 142.04451847
v 32.64727127 16.22087527 142.82649326
v 32.54599821 17.11246658 140.39825368
v 30.14595938 17.22859907 142.79709625
v 28.55610681 16.94388795 145.25767612
v 31.21834588 -17.43112039 146.26307177
v 28.55610681 -19.72378683 147.47719335
v 30.33463311 -19.97103643 145.38408506
v 31.91616011 -19.36790061 144.70794129
v 33.40057683 13.76712251 143.47030210
v 32.20055830 -17.43112039 145.06071257
v 34.14001179 13.76712251 142.26793933
v 35.07228148 13.76712251 140.39825368
v 36.25010383 15.28807450 137.09984469
v 34.40914822 15.97362566 140.39825368
v 34.94603705 17.20237422 133.20172328
v 32.54599821 17.23609138 137.99941110
v 34.94603705 16.88020516 135.59762704
v 40.00692558 17.29977775 118.59993923
v 39.74472713 17.30352211 118.59993923
v 28.55610681 17.23234344 144.38750672
v 28.55610681 -20.60788941 145.25767612
v 30.14595938 -20.89259696 142.79709625
v 32.54599821 -20.77646804 140.39825368
v 32.64727127 -19.88487315 142.82649326
v 34.00821698 -19.22554683 142.04451847
v 33.40057683 -17.43112039 143.47030210
v 34.14001179 -17.43112039 142.26793933
v 35.87691915 13.76712251 138.44919252
v 35.07228148 -17.43112039 140.39825368
v 38.67649984 15.35176087 129.98562681
v 36.50952887 15.73761630 135.59762704
v 36.30282175 13.76712251 137.24977124
v 36.87439156 13.76712251 135.59762704
v 37.70122361 13.76712251 133.20172328
v 42.65945506 13.76712251 118.80278307
v 42.72882056 13.76712251 118.59993923
v 41.63146090 16.35948467 118.59993923
v 37.34468830 16.93639565 128.40109664
v 36.92294669 16.05978894 133.20172328
v 39.74472713 16.98509741 121.20162654
v 37.46122312 17.29977775 118.59993923
v 28.55610681 17.21361447 141.98866415
v 28.55610681 -20.87386799 142.79709625
v 30.14595938 -20.89634490 140.39825368
v 37.46122312 -20.96377563 118.59993923
v 39.74472713 -20.96752357 118.59993923
v 32.54599821 -20.90008926 137.99941110
v 34.94603705 -20.86637568 133.20172328
v 34.94603705 -20.54420304 135.59762704
v 34.40914822 -19.63762712 140.39825368
v 36.25010383 -18.95207238 137.09984469
v 35.87691915 -17.43112039 138.44919252
v 41.10289764 15.40795136 122.86258983
v 38.94841146 15.79381037 128.40109664
v 36.30282175 -17.43112039 137.24977124
v 36.87439156 -17.43112039 135.59762704
v 37.70122361 -17.43112039 133.20172328
v 42.65945506 -17.43112039 118.80278307
v 42.66223025 14.02935672 118.59993923
v 42.72882056 -17.43112039 118.59993923
v 41.38868523 15.84250856 121.20162654
v 37.44041276 17.29602981 118.59993923
v 35.46488893 16.21712733 118.59993923
v 28.55610681 16.57301712 139.44283116
v 37.44041276 -20.96003127 118.59993923
v 28.55610681 -20.30444574 140.33945787
v 35.39691102 -19.77998090 118.59993923
v 34.94603705 -20.60414147 123.60047000
v 41.49134588 -20.09466123 118.59993923
v 39.74472713 -20.94504666 118.87333679
v 39.74472713 -20.64909529 121.20162654
v 37.34468830 -20.60039711 128.40109664
v 41.63146090 -20.02348256 118.59993923
v 36.92294669 -19.72378683 133.20172328
v 36.50952887 -19.40161776 135.59762704
v 38.67649984 -19.01575875 129.98562681
v 41.10289764 -19.07195282 122.86258983
v 41.38868523 -19.50651002 121.20162654
v 35.39691102 16.11598301 118.59993923
v 33.61006093 15.35925317 122.00712073
v 33.33676171 15.80130267 123.60047000
v 28.55610681 15.95114875 137.64370012
v 28.55610681 -19.72004246 137.99941110
v 33.33676171 -19.46530056 123.60047000
v 33.61006093 -19.02325105 122.00712073
v 34.67967403 -17.62592387 118.59993923
v 38.94841146 -19.45780825 128.40109664
v 34.64776468 13.76712251 118.59993923
v 28.73923016 15.48287440 136.24437380
v 28.55610681 15.67018557 137.01458978
v 28.55610681 13.76712251 136.12678397
v 28.55610681 -19.33418345 137.01458978
v 28.73923016 -19.14687586 136.24437380
v 28.55610681 -18.84718013 136.55010807
v 28.55610681 -17.43112039 136.12678397
v 34.64776468 -17.43112039 118.59993923
v 28.55610681 11.36581677 136.11208546
v 28.55610681 -17.24006486 136.12384426
v 28.55610681 -15.02981645 136.11208546
f 1 2 3
f 1 3 4
f 1 4 10
f 1 10 20
f 1 20 36
f 1 36 58
f 1 58 80
f 1 80 98
f 1 98 106
f 1 106 107
f 1 107 113
f 1 113 115
f 1 115 114
f 1 114 111
f 1 111 110
f 1 110 108
f 1 108 99
f 1 99 82
f 1 82 59
f 1 59 37
f 1 37 22
f 1 22 12
f 1 12 5
f 1 5 7
f 1 7 2
f 2 6 3
f 2 7 13
f 2 13 6
f 3 8 9
f 3 9 10
f 3 10 4
f 3 6 11
f 3 11 8
f 5 12 7
f 6 13 21
f 6 21 11
f 7 12 14
f 7 14 13
f 8 11 15
f 8 15 16
f 8 16 17
f 8 17 9
f 9 17 18
f 9 18 19
f 9 19 20
f 9 20 10
f 11 21 26
f 11 26 15
f 12 22 14
f 13 14 21
f 14 22 23
f 14 23 24
f 14 24 21
f 15 25 16
f 15 26 42
f 15 42 25
f 16 25 27
f 16 27 28
f 16 28 29
f 16 29 30
f 16 30 17
f 17 30 18
f 18 31 32
f 18 32 19
f 18 30 33
f 18 33 31
f 19 32 34
f 19 34 35
f 19 35 36
f 19 36 20
f 21 24 26
f 22 37 23
f 23 37 38
f 23 38 39
f 23 39 40
f 23 40 24
f 24 40 41
f 24 41 26
f 25 42 43
f 25 43 27
f 26 41 42
f 27 43 45
f 27 45 28
f 28 44 29
f 28 45 68
f 28 68 44
f 29 46 47
f 29 47 30
f 29 44 48
f 29 48 49
f 29 49 50
f 29 50 51
f 29 51 52
f 29 52 46
f 30 47 33
f 31 33 34
f 31 34 32
f 33 53 54
f 33 54 34
f 33 47 55
f 33 55 53
f 34 54 56
f 34 56 53
f 34 53 75
f 34 75 52
f 34 52 76
f 34 76 89
f 34 89 85
f 34 85 62
f 34 62 61
f 34 61 81
f 34 81 83
f 34 83 102
f 34 102 112
f 34 112 104
f 34 104 95
f 34 95 79
f 34 79 78
f 34 78 57
f 34 57 35
f 35 57 36
f 36 57 58
f 37 59 38
f 38 59 60
f 38 60 61
f 38 61 62
f 38 62 63
f 38 63 39
f 39 63 64
f 39 64 65
f 39 65 66
f 39 66 40
f 40 66 41
f 41 66 67
f 41 67 45
f 41 45 43
f 41 43 42
f 44 68 71
f 44 71 48
f 45 67 68
f 46 69 47
f 46 52 69
f 47 70 53
f 47 53 55
f 47 69 70
f 48 71 72
f 48 72 49
f 49 72 73
f 49 73 50
f 50 73 74
f 50 74 51
f 51 74 76
f 51 76 52
f 52 75 69
f 53 56 54
f 53 70 77
f 53 77 75
f 57 78 58
f 58 78 79
f 58 79 80
f 59 81 61
f 59 61 60
f 59 82 83
f 59 83 84
f 59 84 81
f 62 85 86
f 62 86 64
f 62 64 63
f 64 87 88
f 64 88 65
f 64 86 87
f 65 88 89
f 65 89 90
f 65 90 91
f 65 91 66
f 66 91 67
f 67 91 92
f 67 92 76
f 67 76 74
f 67 74 73
f 67 73 72
f 67 72 71
f 67 71 68
f 69 75 77
f 69 77 70
f 76 92 93
f 76 93 94
f 76 94 89
f 79 95 96
f 79 96 97
f 79 97 98
f 79 98 80
f 81 84 83
f 82 99 83
f 83 99 100
f 83 100 101
f 83 101 102
f 85 89 87
f 85 87 86
f 87 89 88
f 89 94 103
f 89 103 91
f 89 91 90
f 91 103 93
f 91 93 92
f 93 103 94
f 95 104 96
f 96 105 106
f 96 106 97
f 96 104 107
f 96 107 105
f 97 106 98
f 99 108 100
f 100 108 101
f 101 108 109
f 101 109 110
f 101 110 111
f 101 111 112
f 101 112 102
f 104 113 107
f 104 112 115
f 104 115 113
f 105 107 106
f 108 110 109
f 111 114 112
f 112 114 115

