# https://github.com/mikedh/trimesh
v -1.20269336 0.36045796 0.81134767
v -1.19846584 0.34915794 0.81134767
v -1.20322183 0.36045796 1.71127634
v -1.19441449 0.41128450 0.81134767
v -1.18789711 0.32102607 0.81134767
v -1.19494296 0.33856712 1.71127634
v -1.19459068 0.41128450 1.71127634
v -1.06600365 0.53761786 0.81134767
v -1.18807320 0.32097878 1.71127634
v -0.51026150 0.07327643 0.81134767
v -1.06600365 0.53761786 1.71127634
v -1.01580197 0.55090367 0.81134767
v -0.49141381 0.06793374 1.71127634
v -0.49141381 0.06793374 0.81134767
v -1.01580197 0.55090367 1.71127634
v 0.59629076 0.55090367 0.81134767
v 0.59629076 0.06793374 1.71127634
v 0.59629076 0.06793374 0.81134767
v 0.59629076 0.55090367 1.71127634
f 1 2 3
f 1 3 4
f 1 4 8
f 1 8 12
f 1 12 16
f 1 16 18
f 1 18 14
f 1 14 10
f 1 10 5
f 1 5 2
f 2 5 3
f 3 5 6
f 3 6 9
f 3 9 13
f 3 13 17
f 3 17 19
f 3 19 15
f 3 15 11
f 3 11 7
f 3 7 4
f 4 7 8
f 5 9 6
f 5 10 9
f 7 11 8
f 8 11 15
f 8 15 12
f 9 10 13
f 10 14 13
f 12 15 19
f 12 19 16
f 13 14 18
f 13 18 17
f 16 19 17
f 16 17 18

