# https://github.com/mikedh/trimesh
v 1.01591321 -0.02389253 4.95205412
v 1.08111047 -0.02389253 4.94807192
v 1.00875212 -0.02389253 4.94958689
v 1.09842296 -0.75371413 4.86699959
v 1.14701590 -0.75371413 4.87219382
v 1.08146451 -0.02389253 4.94802874
v 0.95972633 -0.02389253 4.90760071
v 1.06564727 -0.75371413 4.85180664
v 1.10798417 -0.78981566 4.86323383
v 1.14701590 -0.79091297 4.86392646
v 1.18380495 -0.78893780 4.86258455
v 1.19151687 -0.75371413 4.86604737
v 1.14701590 -0.02389253 4.92881022
v 0.95610647 -0.02389253 4.89928999
v 1.00107955 -0.75371413 4.76255349
v 1.02952713 -0.75371413 4.81899685
v 1.03778988 -0.79760659 4.80882484
v 1.11215486 -0.98908736 4.79670519
v 1.14701590 -1.08137124 4.77333141
v 1.21248858 -1.08137124 4.77714056
v 1.26037335 -1.13459076 4.74645166
v 1.22429257 -0.75371413 4.84817076
v 1.21654129 -0.02389253 4.90171404
v 0.95382433 -0.02389253 4.89361976
v 1.00076478 -0.75371413 4.69706364
v 1.11093512 -1.11692414 4.73511099
v 1.10259365 -1.08137124 4.74645166
v 0.94961429 -0.02389253 4.84037944
v 0.94670260 -0.02389253 4.78757215
v 1.14701590 -1.13162800 4.74675461
v 1.21248858 -1.14490556 4.75528175
v 1.28614529 -0.75371413 4.76255349
v 1.26096354 -0.75371413 4.81540414
v 1.26037335 -1.13459076 4.71238649
v 1.34862756 -0.02389253 4.68130792
v 1.34740792 -0.02389253 4.69706364
v 1.25962572 -0.02389253 4.87518041
v 1.02921235 -0.75371413 4.63832613
v 1.03684556 -0.79881363 4.64897436
v 1.10259365 -1.08137124 4.71204017
v 1.11093512 -1.11692414 4.72411664
v 0.94670260 -0.02389253 4.76541019
v 0.94678132 -0.02389253 4.69459641
v 0.95850659 -0.02389253 4.63183356
v 0.95866403 -0.02389253 4.63148723
v 1.14701590 -1.13162800 4.71217006
v 1.21248858 -1.14490556 4.70333997
v 1.33816139 -0.02389253 4.74454699
v 1.33465961 -0.02389253 4.75982649
v 1.32501968 -0.02389253 4.78307037
v 1.31730776 -0.02389253 4.80155310
v 1.30491358 -0.02389253 4.82003562
v 1.28964717 -0.02389253 4.84020637
v 1.21248858 -1.08137124 4.68074537
v 1.18746416 -0.79124215 4.59525781
v 1.19674996 -0.75371413 4.59088613
v 1.22952566 -0.75371413 4.60871936
v 1.33560393 -0.02389253 4.55361794
v 1.33890901 -0.02389253 4.56041366
v 1.34150593 -0.02389253 4.56595400
v 1.34784068 -0.02389253 4.60512686
v 1.34839151 -0.02389253 4.62798126
v 1.06002069 -0.75371413 4.60555972
v 0.97546495 -0.02389253 4.59763850
v 0.99647602 -0.02389253 4.57192739
v 1.00292884 -0.02389253 4.56417943
v 1.10967603 -0.99490312 4.66109400
v 1.14701590 -1.08137124 4.68429472
v 1.14701590 -0.79431460 4.59300702
v 1.10397083 -0.79212002 4.59460854
v 1.14701590 -0.75371413 4.58209941
v 1.27827603 -0.02389253 4.51193470
v 1.09275703 -0.75371413 4.58993389
v 1.02193318 -0.02389253 4.54708200
v 1.04943644 -0.02389253 4.52807990
v 1.21248858 -0.02389253 4.50994370
v 1.08146451 -0.02389253 4.51634974
v 1.08988470 -0.02389253 4.51518108
v 1.14701590 -0.02389253 4.51046308
f 1 2 6
f 1 6 13
f 1 13 23
f 1 23 37
f 1 37 53
f 1 53 52
f 1 52 51
f 1 51 50
f 1 50 49
f 1 49 48
f 1 48 36
f 1 36 35
f 1 35 62
f 1 62 61
f 1 61 60
f 1 60 59
f 1 59 58
f 1 58 72
f 1 72 76
f 1 76 79
f 1 79 78
f 1 78 77
f 1 77 75
f 1 75 74
f 1 74 66
f 1 66 65
f 1 65 64
f 1 64 45
f 1 45 44
f 1 44 43
f 1 43 42
f 1 42 29
f 1 29 28
f 1 28 24
f 1 24 14
f 1 14 7
f 1 7 3
f 1 3 4
f 1 4 5
f 1 5 2
f 2 5 6
f 3 7 8
f 3 8 4
f 4 8 9
f 4 9 5
f 5 9 10
f 5 10 11
f 5 11 12
f 5 12 6
f 6 12 13
f 7 14 15
f 7 15 16
f 7 16 8
f 8 16 17
f 8 17 18
f 8 18 9
f 9 18 19
f 9 19 20
f 9 20 10
f 10 20 11
f 11 20 21
f 11 21 12
f 12 21 22
f 12 22 23
f 12 23 13
f 14 24 15
f 15 25 26
f 15 26 27
f 15 27 17
f 15 17 16
f 15 24 28
f 15 28 29
f 15 29 25
f 17 27 18
f 18 27 26
f 18 26 19
f 19 26 30
f 19 30 31
f 19 31 20
f 20 31 21
f 21 32 33
f 21 33 22
f 21 31 47
f 21 47 34
f 21 34 35
f 21 35 36
f 21 36 32
f 22 33 37
f 22 37 23
f 25 38 39
f 25 39 40
f 25 40 41
f 25 41 26
f 25 29 42
f 25 42 43
f 25 43 44
f 25 44 45
f 25 45 38
f 26 41 46
f 26 46 30
f 30 46 47
f 30 47 31
f 32 36 48
f 32 48 49
f 32 49 50
f 32 50 51
f 32 51 33
f 33 51 52
f 33 52 53
f 33 53 37
f 34 47 54
f 34 54 55
f 34 55 56
f 34 56 57
f 34 57 58
f 34 58 59
f 34 59 60
f 34 60 61
f 34 61 62
f 34 62 35
f 38 63 39
f 38 45 64
f 38 64 65
f 38 65 66
f 38 66 63
f 39 63 67
f 39 67 40
f 40 67 41
f 41 67 68
f 41 68 46
f 46 68 47
f 47 68 54
f 54 69 55
f 54 68 70
f 54 70 69
f 55 69 71
f 55 71 56
f 56 71 72
f 56 72 57
f 57 72 58
f 63 73 70
f 63 70 67
f 63 66 74
f 63 74 75
f 63 75 73
f 67 70 68
f 69 70 71
f 70 73 71
f 71 76 72
f 71 73 77
f 71 77 78
f 71 78 79
f 71 79 76
f 73 75 77

