# https://github.com/mikedh/trimesh
v -0.68788883 -1.00098013 2.53415689
v -0.68788883 -0.99201692 2.57664959
v -0.68788883 -0.99208050 2.49197632
v -0.55343276 -1.14604433 2.53415689
v -0.54288630 -1.13504696 2.57652474
v -0.68788883 -0.95031572 2.59050862
v -0.68788883 -0.95057004 2.47817972
v -0.54458206 -1.13580982 2.48760636
v -0.49157090 -1.15990241 2.53415689
v -0.49157090 -1.13797114 2.57706578
v -0.55712635 -0.62268170 2.66377837
v -0.68788883 -0.90104987 2.58047851
v -0.61208886 -0.62268170 2.64844187
v -0.62152032 -0.51048256 2.65231241
v -0.65703918 -0.51048256 2.59968555
v -0.55712635 -0.88477624 2.46248947
v -0.55712635 -0.95031572 2.46350913
v -0.55538411 -1.08139477 2.48065604
v -0.68788883 -0.90155841 2.48766879
v -0.62114861 -0.51048256 2.47199934
v -0.55712635 -0.51048256 2.45712065
v -0.49157090 -1.08139477 2.47701439
v -0.49157090 -1.13612762 2.48845955
v -0.45679537 -1.12182458 2.49790699
v -0.45496020 -1.12799085 2.53415689
v -0.45570357 -1.12500309 2.57084378
v -0.49157090 -1.08139477 2.58530628
v -0.49157090 -0.55714213 2.65643266
v -0.55712635 -0.55714213 2.66970903
v -0.68788883 -0.88496698 2.53392798
v -0.65843301 -0.51048256 2.58133170
v -0.55712635 -0.51048256 2.66954256
v -0.49105982 -0.51048256 2.46690105
v -0.65810779 -0.51048256 2.53415689
v -0.65476261 -0.51048256 2.51813369
v -0.45756199 -0.51048256 2.48997863
v -0.45674893 -1.08139477 2.49774052
v -0.45372903 -1.08139477 2.53415689
v -0.45059291 -0.51048256 2.59968555
v -0.45140597 -0.51048256 2.61073532
v -0.45433299 -0.51048256 2.63991004
v -0.45533191 -0.55714213 2.63795395
v -0.45714384 -0.59712697 2.63514469
v -0.46478657 -0.51048256 2.64525804
v -0.49157090 -0.51048256 2.65876331
v -0.51050346 -0.51048256 2.66259223
v -0.45633078 -0.51048256 2.49672086
v -0.45389164 -0.51048256 2.53440660
v -0.45270687 -0.51048256 2.55307259
f 1 2 6
f 1 6 12
f 1 12 30
f 1 30 19
f 1 19 7
f 1 7 3
f 1 3 4
f 1 4 2
f 2 4 5
f 2 5 6
f 3 7 8
f 3 8 4
f 4 8 9
f 4 9 5
f 5 9 10
f 5 10 11
f 5 11 6
f 6 11 13
f 6 13 14
f 6 14 15
f 6 15 12
f 7 16 17
f 7 17 18
f 7 18 8
f 7 19 20
f 7 20 21
f 7 21 16
f 8 18 22
f 8 22 23
f 8 23 9
f 9 23 24
f 9 24 25
f 9 25 26
f 9 26 10
f 10 26 27
f 10 27 11
f 11 28 29
f 11 29 13
f 11 27 26
f 11 26 28
f 12 15 31
f 12 31 30
f 13 29 14
f 14 32 46
f 14 46 45
f 14 45 44
f 14 44 41
f 14 41 40
f 14 40 39
f 14 39 49
f 14 49 48
f 14 48 47
f 14 47 36
f 14 36 33
f 14 33 21
f 14 21 20
f 14 20 35
f 14 35 34
f 14 34 31
f 14 31 15
f 14 29 32
f 16 21 33
f 16 33 17
f 17 33 22
f 17 22 18
f 19 30 34
f 19 34 35
f 19 35 20
f 22 24 23
f 22 33 24
f 24 33 36
f 24 36 37
f 24 37 38
f 24 38 25
f 25 38 26
f 26 38 39
f 26 39 40
f 26 40 41
f 26 41 42
f 26 42 43
f 26 43 28
f 28 43 42
f 28 42 44
f 28 44 45
f 28 45 29
f 29 45 46
f 29 46 32
f 30 31 34
f 36 47 37
f 37 47 38
f 38 47 48
f 38 48 49
f 38 49 39
f 41 44 42

