# https://github.com/mikedh/trimesh
v -1.76722648 -0.45627672 3.94669145
v -1.92901016 -1.08142202 3.83307500
v -1.76722648 -0.95034316 3.91294428
v -1.76722648 -0.42602776 3.94652532
v -1.96940167 0.02608418 3.81549539
v -1.94862207 -1.08142202 3.77945046
v -1.92024316 -1.13531387 3.82673527
v -1.96904539 -0.03279123 3.81519087
v -1.96857054 -0.09838857 3.81477560
v -1.96803612 -0.16387006 3.81424969
v -1.96746224 -0.22946743 3.81361291
v -1.96680925 -0.29494893 3.81286547
v -1.96639359 -0.33446959 3.81239482
v -1.76722648 -0.97120451 3.90546949
v -1.76722648 -0.41930577 3.94646995
v -1.76972007 -0.32739991 3.94334164
v -1.93348263 0.02608418 3.83639708
v -1.96940167 0.02608418 3.79143776
v -1.92032227 -1.08142202 3.72845594
v -1.91375195 -1.13519795 3.73485104
v -1.92515102 -1.14574450 3.77945046
v -1.96639359 -0.33446959 3.81164729
v -1.96421664 0.02608418 3.75865954
v -1.96172305 0.02608418 3.75359325
v -1.94058737 0.02608418 3.71392162
v -1.86795780 -1.15791366 3.77945046
v -1.86795780 -1.13740000 3.82690140
v -1.96904539 -0.03279123 3.79644866
v -1.96857054 -0.09838857 3.80065666
v -1.96803612 -0.16387006 3.80414486
v -1.96746224 -0.22946743 3.80719015
v -1.96680925 -0.29494893 3.81001394
v -1.76722648 -0.99021159 3.89522628
v -1.76722648 -0.36054630 3.94536262
v -1.76722648 -0.32531379 3.94458745
v -1.87502288 0.02608418 3.83310264
v -1.76722648 -0.31268106 3.94148679
v -1.76722648 -0.28637259 3.93500866
v -1.83615533 -0.42602776 3.66386840
v -1.81830470 -0.46751870 3.66386840
v -1.86795780 -1.08142202 3.72446935
v -1.93757928 0.02608418 3.70913223
v -1.90722128 -0.03279123 3.66386840
v -1.89985949 -0.09838857 3.66386840
v -1.86795780 -1.13461850 3.73629062
v -1.83292946 -1.12036322 3.74465124
v -1.83104940 -1.12627390 3.77945046
v -1.83192019 -1.12407185 3.81726723
v -1.76722648 -1.00064221 3.88099660
v -1.84227033 0.02608418 3.79511973
v -1.76722648 -0.23676892 3.90015407
v -1.80302677 -0.47690631 3.66386840
v -1.76722648 -0.48165805 3.66386840
v -1.90848780 0.02608418 3.66386840
v -1.76722648 -0.95034316 3.77969960
v -1.76722648 -0.97502907 3.78864161
v -1.76722648 -0.99693348 3.79675318
v -1.76722648 -1.00411908 3.81089986
v -1.77777450 0.02608418 3.66386840
v -1.76722648 -0.20663584 3.85655133
v -1.76722648 -0.14393588 3.66386840
v -1.77407378 -0.03279123 3.66386840
v -1.76722648 -0.18925140 3.82972519
v -1.76722648 -0.17406895 3.78025326
f 1 2 3
f 1 3 14
f 1 14 33
f 1 33 49
f 1 49 58
f 1 58 57
f 1 57 56
f 1 56 55
f 1 55 53
f 1 53 61
f 1 61 64
f 1 64 63
f 1 63 60
f 1 60 51
f 1 51 38
f 1 38 37
f 1 37 35
f 1 35 34
f 1 34 15
f 1 15 4
f 1 4 5
f 1 5 2
f 2 6 7
f 2 7 3
f 2 5 8
f 2 8 9
f 2 9 10
f 2 10 11
f 2 11 12
f 2 12 13
f 2 13 6
f 3 7 14
f 4 15 5
f 5 16 17
f 5 17 36
f 5 36 50
f 5 50 59
f 5 59 54
f 5 54 42
f 5 42 25
f 5 25 24
f 5 24 23
f 5 23 18
f 5 18 28
f 5 28 8
f 5 15 16
f 6 19 20
f 6 20 21
f 6 21 7
f 6 13 22
f 6 22 18
f 6 18 23
f 6 23 24
f 6 24 25
f 6 25 19
f 7 21 26
f 7 26 27
f 7 27 14
f 8 28 29
f 8 29 9
f 9 29 30
f 9 30 10
f 10 30 31
f 10 31 11
f 11 31 32
f 11 32 12
f 12 32 22
f 12 22 13
f 14 27 33
f 15 34 16
f 16 34 35
f 16 35 17
f 17 35 37
f 17 37 38
f 17 38 36
f 18 22 32
f 18 32 31
f 18 31 30
f 18 30 29
f 18 29 28
f 19 39 40
f 19 40 41
f 19 41 20
f 19 25 42
f 19 42 43
f 19 43 44
f 19 44 39
f 20 41 45
f 20 45 26
f 20 26 21
f 26 45 46
f 26 46 47
f 26 47 48
f 26 48 27
f 27 48 33
f 33 48 49
f 36 38 51
f 36 51 50
f 39 44 43
f 39 43 54
f 39 54 59
f 39 59 62
f 39 62 61
f 39 61 53
f 39 53 52
f 39 52 40
f 40 52 41
f 41 53 46
f 41 46 45
f 41 52 53
f 42 54 43
f 46 55 56
f 46 56 57
f 46 57 58
f 46 58 47
f 46 53 55
f 47 58 49
f 47 49 48
f 50 51 59
f 51 60 59
f 59 60 63
f 59 63 64
f 59 64 62
f 61 62 64

