# https://github.com/mikedh/trimesh
v 1.62103679 -1.08143091 1.28885549
v 1.63604918 -0.96702913 1.25151229
v 1.63225792 -1.01586711 1.24599793
v 1.62880292 -1.08143091 1.24206369
v 1.63146293 -1.13310118 1.24625596
v 1.62855827 -1.14136842 1.28885549
v 1.63234963 -1.13153189 1.32853659
v 1.63082088 -1.08143091 1.33037475
v 1.63482622 -1.01586711 1.32613413
v 1.63770020 -0.97740145 1.32286099
v 1.65479178 -0.78143717 1.28885549
v 1.66518724 -0.78143717 1.26715257
v 1.68004678 -0.78143717 1.23991917
v 1.67133291 -1.01586711 1.22524637
v 1.67133291 -1.08143091 1.22060268
v 1.67133291 -1.14458346 1.23696851
v 1.67133291 -1.17240881 1.28885549
v 1.67133291 -1.14201907 1.33284167
v 1.67133291 -1.08143091 1.34259674
v 1.73688606 -0.78143717 1.37461896
v 1.71799062 -0.78143717 1.36868532
v 1.68013859 -0.78143717 1.35339976
v 1.66940676 -0.78143717 1.32890743
v 1.70444585 -0.78143717 1.23319551
v 1.73688606 -0.81929038 1.22160238
v 1.73688606 -0.88481599 1.21770037
v 1.73688606 -0.95037979 1.21708762
v 1.93339258 -0.95037979 1.20992858
v 1.71979449 -1.13581861 1.24041901
v 1.72566494 -1.14523410 1.28885549
v 1.71719562 -1.13398143 1.32966531
v 1.91789099 -0.91539705 1.32297379
v 1.78482787 -0.78143717 1.34894957
v 1.89945418 -0.98184120 1.32131310
v 1.93339258 -0.95876189 1.31866872
v 1.93339258 -0.95259971 1.31928147
v 1.73688606 -0.78143717 1.22439180
v 1.93339258 -0.99255799 1.23704908
v 1.93339258 -0.89901570 1.22895490
v 1.93339258 -0.99255799 1.28521152
v 1.93339258 -0.90418277 1.30057764
v 1.79559036 -0.78143717 1.31031651
v 1.93339258 -0.90200112 1.29667563
v 1.93339258 -0.90100602 1.29467624
v 1.78436924 -0.78143717 1.24056414
v 1.80143014 -0.78143717 1.28885549
f 1 2 3
f 1 3 4
f 1 4 5
f 1 5 6
f 1 6 7
f 1 7 8
f 1 8 9
f 1 9 10
f 1 10 11
f 1 11 2
f 2 11 12
f 2 12 13
f 2 13 3
f 3 13 4
f 4 13 14
f 4 14 15
f 4 15 5
f 5 15 16
f 5 16 17
f 5 17 6
f 6 17 7
f 7 17 18
f 7 18 19
f 7 19 8
f 8 19 20
f 8 20 21
f 8 21 22
f 8 22 9
f 9 22 10
f 10 22 23
f 10 23 11
f 11 23 22
f 11 22 21
f 11 21 20
f 11 20 33
f 11 33 42
f 11 42 46
f 11 46 45
f 11 45 37
f 11 37 24
f 11 24 13
f 11 13 12
f 13 24 14
f 14 24 25
f 14 25 15
f 15 25 26
f 15 26 27
f 15 27 28
f 15 28 16
f 16 29 17
f 16 28 29
f 17 30 31
f 17 31 18
f 17 29 30
f 18 31 19
f 19 31 20
f 20 32 33
f 20 31 34
f 20 34 35
f 20 35 36
f 20 36 32
f 24 37 25
f 25 37 28
f 25 28 26
f 26 28 27
f 28 38 29
f 28 37 39
f 28 39 44
f 28 44 43
f 28 43 41
f 28 41 36
f 28 36 35
f 28 35 40
f 28 40 38
f 29 38 30
f 30 38 40
f 30 40 31
f 31 40 35
f 31 35 34
f 32 41 33
f 32 36 41
f 33 41 43
f 33 43 44
f 33 44 42
f 37 45 39
f 39 45 46
f 39 46 44
f 42 44 46

