# https://github.com/mikedh/trimesh
v 1.14701483 -0.03857983 0.63827958
v 1.20669753 -0.03857983 0.63667553
v 1.14220111 -0.03857983 0.63769281
v 1.14701483 -0.75370690 0.58565728
v 1.21237626 -0.03857983 0.63604950
v 1.07830631 -0.03857983 0.62795073
v 1.08146539 -0.75370690 0.57125970
v 1.14701483 -1.12790510 0.47626581
v 1.21248907 -1.13899487 0.48033473
v 1.25547418 -1.13065017 0.47669613
v 1.21248907 -0.75370690 0.56687766
v 1.27867782 -0.03857983 0.62755948
v 1.07781750 -0.03857983 0.62775520
v 1.03840507 -0.75370690 0.54543765
v 1.04404611 -0.79125846 0.53972542
v 1.11234091 -1.11582716 0.47129701
v 1.14701483 -1.13921452 0.43682848
v 1.21248907 -1.16029610 0.43682848
v 1.25193909 -0.75370690 0.54211196
v 1.25931017 -1.13712830 0.43682848
v 1.26705725 -1.08134995 0.43682848
v 1.33467504 -0.03857983 0.56730798
v 1.33448704 -0.03857983 0.56777755
v 1.33426143 -0.03857983 0.56832525
v 1.31775184 -0.03857983 0.60748873
v 1.00877048 -0.03857983 0.58100159
v 1.01279447 -0.75370690 0.50232265
v 1.00704054 -0.03857983 0.57951493
v 1.00587471 -0.03857983 0.57826287
v 1.00350546 -0.03857983 0.57544601
v 0.99872934 -0.75370690 0.43682848
v 1.10034423 -1.08134995 0.43682848
v 1.11211531 -1.11604671 0.43682848
v 1.11328113 -1.11505854 0.40322058
v 1.14701483 -1.12548955 0.39926906
v 1.21248907 -1.13548127 0.39582618
v 1.25378184 -1.12823453 0.39864302
v 1.28849335 -0.75370690 0.43682848
v 1.33915034 -0.03857983 0.50193140
v 0.96131016 -0.03857983 0.50138350
v 1.01790909 -0.75370690 0.37129525
v 0.95495451 -0.03857983 0.43682848
v 0.96240079 -0.03857983 0.31566038
v 0.96435633 -0.03857983 0.30572276
v 1.04667867 -0.78862327 0.33659194
v 1.08146539 -0.75370690 0.31057418
v 1.14701483 -0.75370690 0.29586349
v 1.26461279 -0.75941649 0.36499625
v 1.21880712 -0.75941649 0.31937731
v 1.24941943 -0.74140931 0.33440093
v 1.33035024 -0.03857983 0.43851086
v 1.04224097 -0.75370690 0.33236656
v 0.97597701 -0.03857983 0.27528410
v 1.01497572 -0.03857983 0.24421940
v 1.01546463 -0.03857983 0.24402367
v 1.08691841 -0.03857983 0.23858548
v 1.14844386 -0.03857983 0.25044007
v 1.08191670 -0.03857983 0.23862455
v 1.30150546 -0.03857983 0.36527010
v 1.14889517 -0.03857983 0.25063580
v 1.21884472 -0.03857983 0.28181788
v 1.21963444 -0.03857983 0.28232652
v 1.26758376 -0.03857983 0.31605162
f 1 2 5
f 1 5 12
f 1 12 25
f 1 25 24
f 1 24 23
f 1 23 22
f 1 22 39
f 1 39 51
f 1 51 59
f 1 59 63
f 1 63 62
f 1 62 61
f 1 61 60
f 1 60 57
f 1 57 56
f 1 56 58
f 1 58 55
f 1 55 54
f 1 54 53
f 1 53 44
f 1 44 43
f 1 43 42
f 1 42 40
f 1 40 30
f 1 30 29
f 1 29 28
f 1 28 26
f 1 26 13
f 1 13 6
f 1 6 3
f 1 3 4
f 1 4 2
f 2 4 5
f 3 6 4
f 4 7 8
f 4 8 9
f 4 9 10
f 4 10 11
f 4 11 12
f 4 12 5
f 4 6 7
f 6 13 7
f 7 14 15
f 7 15 16
f 7 16 8
f 7 13 14
f 8 16 17
f 8 17 18
f 8 18 9
f 9 18 10
f 10 19 11
f 10 18 20
f 10 20 21
f 10 21 22
f 10 22 23
f 10 23 24
f 10 24 25
f 10 25 19
f 11 19 25
f 11 25 12
f 13 26 14
f 14 27 15
f 14 26 28
f 14 28 29
f 14 29 30
f 14 30 27
f 15 27 16
f 16 27 31
f 16 31 32
f 16 32 33
f 16 33 17
f 17 33 34
f 17 34 35
f 17 35 18
f 18 35 36
f 18 36 37
f 18 37 20
f 20 37 21
f 21 37 38
f 21 38 39
f 21 39 22
f 27 30 40
f 27 40 31
f 31 41 34
f 31 34 32
f 31 40 42
f 31 42 43
f 31 43 44
f 31 44 41
f 32 34 33
f 34 41 45
f 34 45 46
f 34 46 47
f 34 47 35
f 35 47 36
f 36 47 37
f 37 48 38
f 37 47 49
f 37 49 50
f 37 50 48
f 38 48 51
f 38 51 39
f 41 52 45
f 41 44 53
f 41 53 52
f 45 52 46
f 46 52 54
f 46 54 55
f 46 55 47
f 47 56 57
f 47 57 49
f 47 55 58
f 47 58 56
f 48 50 59
f 48 59 51
f 49 57 60
f 49 60 61
f 49 61 50
f 50 61 62
f 50 62 63
f 50 63 59
f 52 53 54

