# https://github.com/mikedh/trimesh
v -1.62811917 -0.31618262 1.22684514
v -1.62811917 -0.31801230 1.19642190
v -1.62811917 -0.32350137 1.28945595
v -1.10668777 -0.32627747 1.33220577
v -1.10668777 -0.32627747 1.31632651
v -1.62811917 -0.32138777 1.17501128
v -1.62811917 -0.32542571 1.30242634
v -1.12558888 -0.37886530 1.39021489
v -1.10480899 -0.37886530 1.39021489
v -1.08391531 -0.35946427 1.35256737
v -1.04651166 -0.38375500 1.32924926
v -1.62811917 -0.33899065 1.32352706
v -1.04651166 -0.38375500 1.31601662
v -1.08858370 -0.36665685 1.29431985
v -1.11420260 -0.39325045 1.25607618
v -1.14699490 -0.38107355 1.25164150
v -1.21257951 -0.36820262 1.24272431
v -1.62811917 -0.36050530 1.15510266
v -1.12558888 -0.40410240 1.39021489
v -1.62811917 -0.35955890 1.32572052
v -1.62811917 -0.42602713 1.33077518
v -1.10480899 -0.40410240 1.39021489
v -1.04651166 -0.40120014 1.32924926
v -1.04651166 -0.40120014 1.31601662
v -1.11420260 -0.39328200 1.25607618
v -1.27810717 -0.42602713 1.21451854
v -1.34357779 -0.42602713 1.19968840
v -1.42925902 -0.39082138 1.18941219
v -1.62811917 -0.39940198 1.14942813
v -1.27810717 -0.63842902 1.33625897
v -1.62811917 -0.44233665 1.32951158
v -1.62811917 -0.46662736 1.32603051
v -1.23922321 -0.63842902 1.32860555
v -1.22681223 -0.63842902 1.28883596
v -1.23153756 -0.63842902 1.23776506
v -1.27810717 -0.63842902 1.21926321
v -1.62811917 -0.42602713 1.14663852
v -1.28863936 -0.63842902 1.33478081
v -1.62811917 -0.48656469 1.29076728
v -1.32183014 -0.63842902 1.32924926
v -1.31072865 -0.63842902 1.22870487
v -1.62811917 -0.48328383 1.16607025
v -1.62811917 -0.45337788 1.15569871
v -1.62811917 -0.49372569 1.26651931
v -1.32564454 -0.63842902 1.31956919
v -1.32604311 -0.63842902 1.23502322
v -1.62811917 -0.49826838 1.20033211
v -1.62811917 -0.49994036 1.22331641
v -1.33697378 -0.63842902 1.28883596
v -1.33441193 -0.63842902 1.27326679
f 1 2 6
f 1 6 18
f 1 18 29
f 1 29 37
f 1 37 43
f 1 43 42
f 1 42 47
f 1 47 48
f 1 48 44
f 1 44 39
f 1 39 32
f 1 32 31
f 1 31 21
f 1 21 20
f 1 20 12
f 1 12 7
f 1 7 3
f 1 3 4
f 1 4 5
f 1 5 2
f 2 5 6
f 3 7 4
f 4 8 9
f 4 9 10
f 4 10 11
f 4 11 13
f 4 13 5
f 4 7 12
f 4 12 8
f 5 13 14
f 5 14 15
f 5 15 16
f 5 16 17
f 5 17 6
f 6 17 18
f 8 19 22
f 8 22 9
f 8 12 20
f 8 20 21
f 8 21 19
f 9 11 10
f 9 22 23
f 9 23 11
f 11 23 24
f 11 24 13
f 13 24 25
f 13 25 15
f 13 15 14
f 15 25 26
f 15 26 27
f 15 27 16
f 16 27 28
f 16 28 18
f 16 18 17
f 18 28 27
f 18 27 29
f 19 30 22
f 19 21 31
f 19 31 32
f 19 32 30
f 22 30 33
f 22 33 23
f 23 33 34
f 23 34 24
f 24 34 35
f 24 35 25
f 25 35 36
f 25 36 26
f 26 36 27
f 27 37 29
f 27 36 37
f 30 38 40
f 30 40 45
f 30 45 49
f 30 49 50
f 30 50 46
f 30 46 41
f 30 41 36
f 30 36 35
f 30 35 34
f 30 34 33
f 30 32 38
f 32 39 40
f 32 40 38
f 36 41 42
f 36 42 43
f 36 43 37
f 39 44 40
f 40 44 45
f 41 46 42
f 42 46 47
f 44 48 49
f 44 49 45
f 46 50 47
f 47 50 49
f 47 49 48

