# https://github.com/mikedh/trimesh
v -1.43102031 -0.95034677 3.35335281
v -1.45586737 -0.98939315 3.66386831
v -1.46291068 -0.97731707 3.66386831
v -1.47167563 -0.95034677 3.66386831
v -1.45954553 -0.90444177 3.66386831
v -1.42777256 -0.93958350 3.35335281
v -1.39799518 -0.99054755 3.35335281
v -1.37870448 -0.99411262 3.35335281
v -1.40914706 -0.99745140 3.64833497
v -1.40856009 -0.99670445 3.66386831
v -1.42495522 -0.89113198 3.66386831
v -1.40292541 -0.90297045 3.35335281
v -1.30701953 -0.99747405 3.35335281
v -1.27806390 -1.00022420 3.38621299
v -1.07196990 -0.99794939 3.51917386
v -1.07196990 -0.99756459 3.52932683
v -1.35503126 -0.98980061 3.66386831
v -1.40801229 -0.89048691 3.66386831
v -1.40914706 -0.88885717 3.64833497
v -1.27806390 -0.88516758 3.38621299
v -1.34039684 -0.89731154 3.35335281
v -1.27806390 -0.99478036 3.35335281
v -1.07196990 -0.99688552 3.46363674
v -1.07196990 -0.99186037 3.53835498
v -1.34090558 -0.96138155 3.66386831
v -1.07196990 -0.95034677 3.56294703
v -1.35976587 -0.90042393 3.66386831
v -1.07196990 -0.89756049 3.54777838
v -1.07196990 -0.88461294 3.52045063
v -1.07196990 -0.89646274 3.45296703
v -1.27806390 -0.89468582 3.35335281
v -1.25396027 -0.99251687 3.35335281
v -1.10789061 -0.98633731 3.41542548
v -1.07196990 -0.99196223 3.45643239
v -1.22985664 -0.98923464 3.35335281
v -1.33734481 -0.95034677 3.66386831
v -1.07196990 -0.90876511 3.55756656
v -1.35143133 -0.90368350 3.66386831
v -1.07196990 -0.94749466 3.43181006
v -1.10456463 -0.91074576 3.41338887
v -1.22504371 -0.90538112 3.35335281
v -1.10221686 -0.95034677 3.41211210
v -1.07196990 -0.95034677 3.43159724
v -1.20727903 -0.95034677 3.35335281
v -1.21201363 -0.92782434 3.35335281
f 1 2 3
f 1 3 4
f 1 4 5
f 1 5 6
f 1 6 12
f 1 12 21
f 1 21 31
f 1 31 41
f 1 41 45
f 1 45 44
f 1 44 35
f 1 35 32
f 1 32 22
f 1 22 13
f 1 13 8
f 1 8 7
f 1 7 2
f 2 7 8
f 2 8 9
f 2 9 10
f 2 10 17
f 2 17 25
f 2 25 36
f 2 36 38
f 2 38 27
f 2 27 18
f 2 18 11
f 2 11 5
f 2 5 4
f 2 4 3
f 5 11 12
f 5 12 6
f 8 13 14
f 8 14 9
f 9 14 15
f 9 15 16
f 9 16 10
f 10 16 17
f 11 18 19
f 11 19 12
f 12 19 20
f 12 20 21
f 13 22 23
f 13 23 14
f 14 23 15
f 15 23 34
f 15 34 43
f 15 43 39
f 15 39 30
f 15 30 29
f 15 29 28
f 15 28 37
f 15 37 26
f 15 26 24
f 15 24 16
f 16 24 17
f 17 24 26
f 17 26 25
f 18 27 28
f 18 28 29
f 18 29 19
f 19 29 20
f 20 29 30
f 20 30 31
f 20 31 21
f 22 32 23
f 23 33 34
f 23 32 35
f 23 35 33
f 25 26 36
f 26 37 38
f 26 38 36
f 27 38 28
f 28 38 37
f 30 39 40
f 30 40 41
f 30 41 31
f 33 42 43
f 33 43 34
f 33 35 44
f 33 44 42
f 39 43 40
f 40 43 42
f 40 42 44
f 40 44 45
f 40 45 41

