# https://github.com/mikedh/trimesh
v 2.08409693 0.29887264 2.92724531
v 2.08395317 0.29887264 2.92337121
v 1.97435544 0.29887264 2.92724531
v 2.07600050 -0.03279591 2.92724531
v 2.08144611 0.29887264 2.85783053
v 1.95292441 0.29887264 2.46162390
v 1.92095377 -0.16003429 2.92724531
v 2.07347723 -0.03279591 2.86184136
v 2.06520520 -0.09837693 2.92724531
v 2.01633890 -0.42596169 2.46162390
v 2.05155143 -0.09837693 2.46162390
v 2.07906660 0.29887264 2.79630069
v 2.06587596 -0.03279591 2.66526490
v 2.06587596 0.29887264 2.46162390
v 1.92095377 -0.15563020 2.46162390
v 1.92095377 -0.15490953 2.46864284
v 1.92095377 -0.15482946 2.47073942
v 1.92095377 -0.15314788 2.73076001
v 1.92095377 -0.15522982 2.79630069
v 1.92095377 -0.49234348 2.92724531
v 2.00830634 -0.42596169 2.92724531
v 2.00329183 -0.49194311 2.46162390
v 2.05798697 -0.03279591 2.46162390
v 2.07652750 0.29887264 2.73076001
v 2.06883013 0.29887264 2.53418353
v 1.92095377 -0.50491517 2.46162390
v 1.93709877 -0.51900828 2.46162390
v 1.93345782 -0.49290398 2.92724531
v 1.98590120 -0.47728945 2.92724531
v 2.06873442 0.29486891 2.53418353
v 2.07128953 0.29887264 2.59571339
v 2.07144912 0.29887264 2.59972422
f 1 2 5
f 1 5 12
f 1 12 24
f 1 24 32
f 1 32 31
f 1 31 25
f 1 25 14
f 1 14 6
f 1 6 3
f 1 3 7
f 1 7 20
f 1 20 28
f 1 28 29
f 1 29 21
f 1 21 9
f 1 9 4
f 1 4 2
f 2 4 5
f 3 6 7
f 4 8 5
f 4 9 10
f 4 10 11
f 4 11 8
f 5 8 13
f 5 13 12
f 6 14 23
f 6 23 11
f 6 11 10
f 6 10 22
f 6 22 27
f 6 27 26
f 6 26 15
f 6 15 16
f 6 16 17
f 6 17 18
f 6 18 19
f 6 19 7
f 7 19 18
f 7 18 17
f 7 17 16
f 7 16 15
f 7 15 26
f 7 26 20
f 8 11 13
f 9 21 10
f 10 21 22
f 11 23 13
f 12 13 23
f 12 23 24
f 14 25 23
f 20 26 27
f 20 27 28
f 21 29 22
f 22 29 27
f 23 25 30
f 23 30 31
f 23 31 32
f 23 32 24
f 25 31 30
f 27 29 28

