# https://github.com/mikedh/trimesh
v -0.78318845 -0.95035664 1.95016605
v -0.82977726 -0.95035664 2.27787564
v -0.78318845 -0.99290148 1.93132510
v -0.78318845 -0.92788187 1.94509177
v -0.83798170 -0.90645924 2.27787564
v -0.84296770 -0.99142165 2.27787564
v -0.78318845 -0.89904852 1.93547274
v -0.78318845 -0.99981499 1.87872917
v -0.83885229 -0.90199663 2.27787564
v -0.88095627 -0.99991900 2.27787564
v -0.78318845 -0.89115230 1.90802755
v -0.88483435 -1.00076302 2.27787564
v -0.88483435 -1.00105201 1.94429756
v -0.81927758 -0.99967620 1.87872917
v -0.78318845 -0.99050829 1.83826738
v -0.88483435 -0.88475905 2.27787564
v -0.78318845 -0.88607704 1.87872917
v -0.92501247 -0.99325981 2.27787564
v -1.05267003 -0.99861263 1.87872917
v -0.88483435 -0.99939874 1.87872917
v -0.81927758 -0.99031179 1.83853210
v -0.78318845 -0.95035664 1.82714812
v -0.93340170 -0.90034336 2.27787564
v -0.88483435 -0.88294394 1.94429756
v -1.05267003 -0.88799616 1.87872917
v -0.88483435 -0.88612323 1.87872917
v -0.78318845 -0.89562643 1.85441683
v -0.92899603 -0.99246208 2.27787564
v -1.05267003 -0.98890131 1.84042944
v -0.95033828 -0.98954873 1.83954699
v -0.88483435 -0.98994183 1.83906164
v -1.05267003 -0.99284366 1.92452996
v -1.01589495 -0.95035664 1.83138400
v -1.05267003 -0.92571995 1.83504634
v -1.05267003 -0.90613548 1.83760555
v -0.78318845 -0.92951199 1.83050155
v -0.94382217 -0.94583621 2.27787564
v -1.05267003 -0.89425072 1.90749806
v -1.05267003 -0.89945314 1.93017783
v -0.95033828 -0.88667817 1.87872917
v -0.81927758 -0.90393890 1.83526697
v -0.88483435 -0.90450535 1.83592884
v -1.05267003 -0.89596171 1.86055005
v -0.78318845 -0.90363828 1.83491396
v -0.94482460 -0.95035664 2.27787564
v -1.05267003 -0.95035664 1.83209002
v -1.05267003 -0.97427656 1.93282529
v -1.01589495 -0.90575400 1.83725254
v -0.95033828 -0.90510658 1.83659067
v -1.05267003 -0.95035664 1.94319443
f 1 2 3
f 1 3 8
f 1 8 15
f 1 15 22
f 1 22 36
f 1 36 44
f 1 44 27
f 1 27 17
f 1 17 11
f 1 11 7
f 1 7 4
f 1 4 2
f 2 5 9
f 2 9 16
f 2 16 23
f 2 23 37
f 2 37 45
f 2 45 28
f 2 28 18
f 2 18 12
f 2 12 10
f 2 10 6
f 2 6 3
f 2 4 7
f 2 7 5
f 3 6 8
f 5 7 9
f 6 10 8
f 7 11 9
f 8 10 12
f 8 12 13
f 8 13 14
f 8 14 15
f 9 11 17
f 9 17 16
f 12 18 19
f 12 19 13
f 13 19 20
f 13 20 14
f 14 20 15
f 15 19 21
f 15 21 22
f 15 20 19
f 16 17 24
f 16 24 25
f 16 25 23
f 17 26 24
f 17 27 26
f 18 28 19
f 19 29 30
f 19 30 31
f 19 31 21
f 19 28 32
f 19 32 47
f 19 47 50
f 19 50 39
f 19 39 38
f 19 38 25
f 19 25 43
f 19 43 35
f 19 35 34
f 19 34 46
f 19 46 29
f 21 31 30
f 21 30 22
f 22 33 34
f 22 34 35
f 22 35 36
f 22 30 29
f 22 29 33
f 23 25 38
f 23 38 39
f 23 39 37
f 24 26 40
f 24 40 25
f 25 40 41
f 25 41 42
f 25 42 43
f 26 27 44
f 26 44 40
f 28 45 32
f 29 46 33
f 32 45 47
f 33 46 34
f 35 43 48
f 35 48 49
f 35 49 42
f 35 42 36
f 36 42 41
f 36 41 44
f 37 39 45
f 39 50 45
f 40 44 41
f 42 49 43
f 43 49 48
f 45 50 47

