# https://github.com/mikedh/trimesh
v 2.43754899 -0.09729409 0.74576228
v 2.43133749 -0.09729409 0.56789201
v 2.36256315 -0.09729409 0.74576228
v 2.43744390 -0.09833491 0.74576228
v 2.41253874 -1.08137846 0.56789201
v 2.42727170 -0.09833491 0.53141549
v 2.42728674 -0.09729409 0.53139166
v 2.32970630 -0.09729409 0.69997673
v 2.33266184 -0.09760632 0.74576228
v 2.37887165 -0.42608548 0.74576228
v 2.38758845 -1.08137846 0.61790471
v 2.37794129 -1.13498006 0.61161156
v 2.38592306 -1.14559644 0.56789201
v 2.37630599 -1.13529239 0.52355502
v 2.38445282 -1.08137846 0.51856805
v 2.42605655 -0.16390583 0.53338657
v 2.39226934 -0.09729409 0.51334356
v 2.31533333 -0.09729409 0.63443295
v 2.30160534 -0.09729409 0.56891320
v 2.28429167 -0.16557112 0.74576228
v 2.36893951 -0.47000759 0.74576228
v 2.32675056 -1.13570864 0.61135021
v 2.32675056 -1.16058402 0.56789201
v 2.35729706 -0.47458715 0.74576228
v 2.32675056 -0.48572380 0.74576228
v 2.30799673 -0.48718096 0.74576228
v 2.28429167 -0.48863807 0.74576228
v 2.32675056 -1.08137846 0.62301044
v 2.32675056 -1.13903921 0.52284266
v 2.32675056 -1.08137846 0.51189481
v 2.32675056 -0.42608548 0.50317957
v 2.32675056 -0.36051455 0.50315574
v 2.32675056 -0.29494363 0.50536433
v 2.32961625 -0.09729409 0.51709565
v 2.30145532 -0.09729409 0.56789201
v 2.28429167 -0.14943862 0.58570279
v 2.29177828 -1.12207411 0.60398843
v 2.28961793 -1.12904749 0.56789201
v 2.29036800 -1.12623728 0.53034684
v 2.28429167 -0.95034072 0.63659408
v 2.28429167 -1.03246050 0.52329387
v 2.28429167 -0.97334259 0.51970780
v 2.28429167 -0.42608548 0.50545927
v 2.28429167 -0.36051455 0.50553056
v 2.28429167 -0.29494363 0.51016125
v 2.28429167 -0.23082981 0.52141773
v 2.28429167 -0.18992604 0.53105922
v 2.28429167 -0.15495488 0.56789201
v 2.28429167 -0.17722817 0.54288567
v 2.28429167 -1.06503784 0.60807316
v 2.28429167 -1.08106623 0.56789201
v 2.28429167 -1.07409285 0.53338657
v 2.28429167 -1.06888877 0.52842324
f 1 2 7
f 1 7 17
f 1 17 34
f 1 34 35
f 1 35 19
f 1 19 18
f 1 18 8
f 1 8 3
f 1 3 9
f 1 9 20
f 1 20 27
f 1 27 26
f 1 26 25
f 1 25 24
f 1 24 21
f 1 21 10
f 1 10 4
f 1 4 5
f 1 5 2
f 2 6 7
f 2 5 6
f 3 8 9
f 4 10 11
f 4 11 5
f 5 11 12
f 5 12 13
f 5 13 14
f 5 14 15
f 5 15 16
f 5 16 6
f 6 16 15
f 6 15 7
f 7 15 17
f 8 18 9
f 9 18 19
f 9 19 20
f 10 21 11
f 11 21 12
f 12 22 23
f 12 23 13
f 12 21 24
f 12 24 25
f 12 25 26
f 12 26 27
f 12 27 28
f 12 28 22
f 13 23 14
f 14 23 29
f 14 29 30
f 14 30 15
f 15 30 31
f 15 31 17
f 17 31 32
f 17 32 33
f 17 33 34
f 19 35 20
f 20 35 36
f 20 36 48
f 20 48 49
f 20 49 47
f 20 47 46
f 20 46 45
f 20 45 44
f 20 44 43
f 20 43 42
f 20 42 41
f 20 41 53
f 20 53 52
f 20 52 51
f 20 51 50
f 20 50 40
f 20 40 27
f 22 37 23
f 22 28 27
f 22 27 37
f 23 37 38
f 23 38 39
f 23 39 29
f 27 40 37
f 29 39 30
f 30 39 41
f 30 41 42
f 30 42 43
f 30 43 31
f 31 43 32
f 32 43 44
f 32 44 33
f 33 44 34
f 34 44 45
f 34 45 46
f 34 46 47
f 34 47 35
f 35 48 36
f 35 47 49
f 35 49 48
f 37 40 50
f 37 50 38
f 38 50 51
f 38 51 52
f 38 52 39
f 39 52 53
f 39 53 41

