# https://github.com/mikedh/trimesh
v -1.76722648 -0.48156698 3.66386849
v -1.76722648 -0.14389285 3.66386849
v -1.73677453 -0.48951139 3.66386849
v -1.76722648 -0.49412778 3.71579249
v -1.76722648 -0.17402443 3.78032407
v -1.44572417 -0.19567480 4.07657177
v -1.40908143 -0.19316980 4.08607224
v -1.40908143 -0.18504644 4.04155739
v -1.34349263 -0.18085950 4.04155739
v -1.34349263 -0.17270036 3.97601010
v -1.34349263 -0.16586529 3.91058225
v -1.34349263 -0.16146365 3.84503486
v -1.34349263 -0.15877971 3.77954734
v -1.27807103 -0.15885129 3.71399995
v -1.27807103 -0.15949543 3.66386849
v -1.01605043 -0.49448562 3.66386849
v -1.76722648 -0.49960297 3.77954734
v -1.76722648 -0.18926916 3.82979824
v -1.63914428 -0.19649787 3.94374431
v -1.56418559 -0.19882395 4.00230074
v -1.48931061 -0.20444230 4.05948283
v -1.40908143 -0.21023958 4.11887576
v -1.34349263 -0.19979016 4.13064684
v -1.34349263 -0.19080794 4.09790308
v -1.29622510 -0.19248987 4.09228646
v -1.27807103 -0.17663680 3.97601010
v -1.27807103 -0.17058900 3.91058225
v -1.27807103 -0.16074793 3.77954734
v -1.21264953 -0.16414758 3.71399995
v -1.21264953 -0.16325293 3.66386849
v -1.22812651 -0.16200043 3.66386849
v -0.95079623 -0.49054918 3.66386849
v -1.20696074 -0.50930092 4.12580696
v -1.20963783 -0.50930092 4.11242264
v -1.27773643 -0.50930092 4.04544124
v -1.27915863 -0.50930092 4.04448529
v -1.34675532 -0.50947984 4.04352925
v -1.38975616 -0.50930092 4.06031933
v -1.40866313 -0.50930092 4.10280264
v -1.41853492 -0.50930092 4.17402642
v -1.76722648 -0.49942405 3.81055833
v -1.76722648 -0.20662525 3.85662663
v -1.68281441 -0.20587371 3.92313007
v -1.60576423 -0.21059745 3.98784085
v -1.40255594 -0.24681260 4.16954506
v -1.37637068 -0.26205732 4.20545561
v -1.34349263 -0.25504332 4.21543424
v -1.34349263 -0.22541272 4.17259231
v -1.29020171 -0.25275302 4.21866070
v -1.27229864 -0.23854611 4.17844801
v -1.27589593 -0.20651786 4.11128739
v -1.25263867 -0.19943230 4.06635425
v -1.23507029 -0.19274037 4.02267602
v -1.27589593 -0.18776615 4.04334994
v -1.21290053 -0.18973437 3.97117021
v -1.21264953 -0.18182573 3.91058225
v -1.09703251 -0.17627894 3.66386849
v -1.14706073 -0.17273614 3.71399995
v -1.21264953 -0.16829872 3.77954734
v -1.16253771 -0.16747565 3.66386849
v -0.91256399 -0.42599172 3.66386849
v -0.97505739 -0.46682327 3.76096462
v -1.21306783 -0.50930092 4.18669367
v -1.20712804 -0.50930092 4.17259231
v -1.31429548 -0.50930092 4.27309430
v -1.32316336 -0.50930092 4.26795575
v -1.34692262 -0.50930092 4.25253973
v -1.36030810 -0.50930092 4.24363678
v -1.39444105 -0.50930092 4.21973619
v -1.23306240 -0.50930092 4.22672726
v -1.27029074 -0.50930092 4.25953078
v -1.27915863 -0.50930092 4.26335475
v -1.30300149 -0.50930092 4.27309430
v -1.76722648 -0.49137225 3.88028822
v -1.76722648 -0.23679260 3.90024519
v -1.71862056 -0.24960389 3.95348376
v -1.60576423 -0.24337718 4.02608179
v -1.52553505 -0.24813669 4.08684906
v -1.31103278 -0.32743785 4.27094334
v -1.64374547 -0.25679682 4.01245849
v -1.56928879 -0.27100376 4.07185142
v -1.27848933 -0.29548120 4.23981281
v -1.24644788 -0.26348875 4.20414114
v -1.31078178 -0.32743785 4.27094334
v -1.19131646 -0.20283195 3.98975294
v -1.17834928 -0.19603266 3.94619414
v -1.04089719 -0.19356344 3.69565631
v -1.07770724 -0.18690730 3.71609125
v -1.08063533 -0.17957122 3.66386849
v -1.14706073 -0.16951543 3.66386849
v -1.23281150 -0.49151543 4.22750388
v -0.91624498 -0.36046807 3.66386849
v -1.23415000 -0.36046807 4.22481516
v -1.23289510 -0.42599172 4.22744431
v -1.31513207 -0.49151543 4.27369182
v -1.34775922 -0.49151543 4.25248015
v -1.39469205 -0.49151543 4.21967642
v -1.76722648 -0.45623067 3.94673189
v -1.76722648 -0.46063234 3.94547709
v -1.76722648 -0.46875567 3.93155503
v -1.26828295 -0.49151543 4.26030741
v -1.30116100 -0.49151543 4.27369182
v -1.76722648 -0.28628426 3.93508035
v -1.76229069 -0.28370768 3.93788861
v -1.31304068 -0.36046807 4.27219793
v -1.76722648 -0.32532648 3.94470036
v -1.27321884 -0.36046807 4.25755893
v -1.23841659 -0.30718313 4.21722659
v -0.98367428 -0.26356032 3.74590721
v -1.10916309 -0.25554431 3.95330455
v -1.09627961 -0.24323403 3.91058225
v -1.16680430 -0.24863766 4.04155739
v -1.30609689 -0.36046807 4.27219793
v -1.13559945 -0.21041851 3.91058225
v -1.12238127 -0.19982594 3.86355781
v -1.05344607 -0.19889551 3.73939432
v -1.00057345 -0.20898708 3.66386849
v -1.03370250 -0.19098687 3.66386849
v -1.04114819 -0.18909022 3.66386849
v -1.26619145 -0.42599172 4.26024764
v -0.92820826 -0.29487284 3.66386849
v -0.97756719 -0.30725469 3.75648326
v -1.11451728 -0.33133850 4.00833566
v -1.31613597 -0.42599172 4.27428933
v -1.76722648 -0.36046807 3.94541731
v -1.76722648 -0.41919243 3.94655257
v -1.76722648 -0.42599172 3.94661234
v -1.29906950 -0.42599172 4.27428933
v -0.97104180 -0.24885238 3.70222897
v -1.06574395 -0.20701888 3.77954734
v -0.95698702 -0.24398553 3.66386849
f 1 2 15
f 1 15 31
f 1 31 30
f 1 30 60
f 1 60 90
f 1 90 57
f 1 57 89
f 1 89 119
f 1 119 118
f 1 118 117
f 1 117 131
f 1 131 121
f 1 121 92
f 1 92 61
f 1 61 32
f 1 32 16
f 1 16 3
f 1 3 4
f 1 4 17
f 1 17 41
f 1 41 74
f 1 74 100
f 1 100 99
f 1 99 98
f 1 98 127
f 1 127 126
f 1 126 125
f 1 125 106
f 1 106 103
f 1 103 75
f 1 75 42
f 1 42 18
f 1 18 5
f 1 5 2
f 2 5 6
f 2 6 7
f 2 7 8
f 2 8 9
f 2 9 10
f 2 10 11
f 2 11 12
f 2 12 13
f 2 13 14
f 2 14 15
f 3 16 4
f 4 16 17
f 5 18 19
f 5 19 6
f 6 19 20
f 6 20 21
f 6 21 22
f 6 22 23
f 6 23 7
f 7 23 24
f 7 24 8
f 8 24 9
f 9 24 25
f 9 25 26
f 9 26 10
f 10 26 11
f 11 26 27
f 11 27 28
f 11 28 12
f 12 28 13
f 13 28 14
f 14 28 29
f 14 29 30
f 14 30 31
f 14 31 15
f 16 32 33
f 16 33 34
f 16 34 35
f 16 35 36
f 16 36 37
f 16 37 17
f 17 37 38
f 17 38 39
f 17 39 40
f 17 40 41
f 18 42 19
f 19 43 44
f 19 44 20
f 19 42 43
f 20 44 45
f 20 45 21
f 21 45 22
f 22 45 46
f 22 46 47
f 22 47 48
f 22 48 23
f 23 48 49
f 23 49 25
f 23 25 24
f 25 49 50
f 25 50 51
f 25 51 52
f 25 52 53
f 25 53 54
f 25 54 26
f 26 54 53
f 26 53 55
f 26 55 56
f 26 56 57
f 26 57 58
f 26 58 59
f 26 59 27
f 27 59 28
f 28 59 29
f 29 59 60
f 29 60 30
f 32 61 62
f 32 62 63
f 32 63 64
f 32 64 33
f 33 64 37
f 33 37 34
f 34 37 35
f 35 37 36
f 37 65 66
f 37 66 67
f 37 67 68
f 37 68 69
f 37 69 40
f 37 40 39
f 37 39 38
f 37 64 63
f 37 63 70
f 37 70 71
f 37 71 72
f 37 72 73
f 37 73 65
f 40 69 41
f 41 69 74
f 42 75 43
f 43 75 44
f 44 75 76
f 44 76 77
f 44 77 78
f 44 78 46
f 44 46 45
f 46 79 47
f 46 78 77
f 46 77 76
f 46 76 80
f 46 80 81
f 46 81 79
f 47 79 49
f 47 49 48
f 49 82 83
f 49 83 50
f 49 79 84
f 49 84 82
f 50 83 51
f 51 83 52
f 52 83 85
f 52 85 53
f 53 85 86
f 53 86 55
f 55 86 87
f 55 87 88
f 55 88 56
f 56 88 89
f 56 89 57
f 57 90 58
f 58 90 59
f 59 90 60
f 61 91 70
f 61 70 62
f 61 92 93
f 61 93 94
f 61 94 91
f 62 70 63
f 65 95 66
f 65 73 102
f 65 102 95
f 66 95 67
f 67 96 68
f 67 95 96
f 68 97 69
f 68 96 97
f 69 97 98
f 69 98 99
f 69 99 100
f 69 100 74
f 70 91 101
f 70 101 71
f 71 101 72
f 72 101 73
f 73 101 102
f 75 103 104
f 75 104 76
f 76 104 80
f 79 105 113
f 79 113 84
f 79 81 103
f 79 103 106
f 79 106 105
f 80 104 81
f 81 104 103
f 82 107 108
f 82 108 83
f 82 84 107
f 83 108 109
f 83 109 110
f 83 110 111
f 83 111 112
f 83 112 85
f 84 113 107
f 85 112 114
f 85 114 115
f 85 115 86
f 86 115 116
f 86 116 87
f 87 117 118
f 87 118 88
f 87 116 117
f 88 118 119
f 88 119 89
f 91 94 120
f 91 120 101
f 92 121 122
f 92 122 123
f 92 123 93
f 93 108 107
f 93 107 120
f 93 120 94
f 93 123 108
f 95 124 96
f 95 102 128
f 95 128 124
f 96 124 97
f 97 124 106
f 97 106 125
f 97 125 126
f 97 126 127
f 97 127 98
f 101 120 128
f 101 128 102
f 105 124 128
f 105 128 113
f 105 106 124
f 107 113 120
f 108 123 122
f 108 122 121
f 108 121 109
f 109 121 129
f 109 129 110
f 110 129 111
f 111 114 112
f 111 129 114
f 113 128 120
f 114 129 130
f 114 130 115
f 115 130 116
f 116 130 129
f 116 129 117
f 117 129 131
f 121 131 129

