# https://github.com/mikedh/trimesh
v -1.34634787 -0.88418341 4.04353413
v -1.40903914 -0.88961378 4.04353413
v -1.34170272 -0.88797906 4.04353413
v -1.47799953 -0.89937735 3.95807626
v -1.54019975 -0.88680347 3.95807626
v -1.54019975 -0.88725136 3.97606958
v -1.43853427 -0.89261454 4.04353413
v -1.30306830 -0.95256172 4.04353413
v -1.37353927 -0.91526550 4.00718781
v -1.46244003 -0.95040078 3.95807626
v -1.60613887 -0.89405891 3.95807626
v -1.60628996 -0.89812333 3.97865438
v -1.48762979 -0.89768667 4.04353413
v -1.31405815 -0.98626387 4.04353413
v -1.37652284 -0.98256900 4.00896120
v -1.47656444 -0.98067674 3.95807626
v -1.66883015 -0.90487492 3.95807626
v -1.54019975 -0.90257959 4.02784962
v -1.58476342 -0.90963355 4.01564491
v -1.53785833 -0.95035605 4.04353413
v -1.34963351 -0.99636331 4.04353413
v -1.48230480 -0.99183986 3.95807626
v -1.67128486 -0.90891698 3.95807626
v -1.68884601 -0.95035605 3.95807626
v -1.58804907 -0.95035605 4.01739321
v -1.52044827 -0.97175290 4.04353413
v -1.58128899 -0.98712605 4.01343651
v -1.37195310 -0.99695672 4.04353413
v -1.54019975 -0.99816601 3.95807626
v -1.49529620 -0.99430316 3.95807626
v -1.68563595 -0.96417272 3.95807626
v -1.47709310 -0.99401202 4.04353413
v -1.66528002 -0.98445003 3.95807626
v -1.65655619 -0.98994760 3.95807626
v -1.54019975 -0.99084338 4.02314842
v -1.39642541 -0.99668805 4.04353413
v -1.55821406 -0.99856907 3.95807626
v -1.47645105 -0.99403439 4.04353413
v -1.60417503 -0.99312747 3.97627868
v -1.62275580 -0.99434789 3.95807626
v -1.54019975 -0.99787487 3.97606958
f 1 2 7
f 1 7 13
f 1 13 20
f 1 20 26
f 1 26 32
f 1 32 38
f 1 38 36
f 1 36 28
f 1 28 21
f 1 21 14
f 1 14 8
f 1 8 3
f 1 3 4
f 1 4 5
f 1 5 6
f 1 6 2
f 2 6 7
f 3 8 9
f 3 9 4
f 4 9 10
f 4 10 16
f 4 16 22
f 4 22 30
f 4 30 29
f 4 29 37
f 4 37 40
f 4 40 34
f 4 34 33
f 4 33 31
f 4 31 24
f 4 24 23
f 4 23 17
f 4 17 11
f 4 11 5
f 5 11 6
f 6 11 12
f 6 12 13
f 6 13 7
f 8 14 15
f 8 15 10
f 8 10 9
f 10 15 16
f 11 17 12
f 12 17 18
f 12 18 13
f 13 18 19
f 13 19 20
f 14 21 22
f 14 22 15
f 15 22 16
f 17 23 19
f 17 19 18
f 19 23 24
f 19 24 25
f 19 25 20
f 20 25 27
f 20 27 26
f 21 28 29
f 21 29 30
f 21 30 22
f 24 31 25
f 25 31 27
f 26 27 32
f 27 31 33
f 27 33 34
f 27 34 35
f 27 35 32
f 28 36 37
f 28 37 29
f 32 35 39
f 32 39 40
f 32 40 41
f 32 41 38
f 34 40 39
f 34 39 35
f 36 38 41
f 36 41 37
f 37 41 40

