# https://github.com/mikedh/trimesh
v -2.98208950 -1.08144517 -0.02978159
v -2.98208950 -1.03023618 -0.00894299
v -2.91660959 -1.03905191 0.00128898
v -2.91660959 -1.08144517 -0.00869356
v -2.91660959 -1.12908060 0.00091473
v -2.98208950 -1.14113266 -0.00994133
v -3.04756940 -1.13273835 -0.00307821
v -3.04756940 -1.08144517 -0.01555648
v -3.04756940 -1.03667523 -0.00170582
v -3.04756940 -1.02022366 0.04359004
v -2.98208950 -1.01248663 0.04359004
v -1.61065803 -1.01196412 0.43939786
v -2.88279210 -1.04785084 0.01014856
v -1.61065803 -1.07672541 0.43889859
v -1.61065803 -1.08144517 0.43889859
v -1.61065803 -1.12653525 0.45237500
v -1.61065803 -1.13022680 0.45399721
v -2.91660959 -1.15878112 0.04359004
v -2.98208950 -1.17010841 0.04359004
v -3.04756940 -1.16139376 0.04359004
v -3.08337613 -1.12100644 0.00752821
v -3.08437075 -1.08144517 0.00640507
v -3.08271299 -1.04525501 0.00827673
v -3.04756940 -1.01454317 0.10910042
v -3.09050431 -1.03873167 0.04359004
v -3.22212726 -1.03783832 0.30575656
v -3.17869504 -1.02037533 0.30575656
v -3.17869504 -1.01400376 0.37126693
v -2.03039270 -1.01196412 1.10336149
v -2.03652626 -1.01196412 1.09213110
v -2.00751623 -1.01196412 0.90358583
v -2.00602410 -1.01196412 0.89485126
v -1.94004689 -1.01196412 0.63330863
v -1.88799456 -1.01196412 0.43814989
v -1.86578104 -1.01196412 0.42841699
v -1.80245621 -1.01196412 0.40982450
v -1.73830240 -1.01196412 0.41007413
v -1.67133057 -1.01196412 0.42305147
v -1.61065803 -1.01196412 0.69856958
v -1.61065803 -1.14708290 0.49841957
v -2.91660959 -1.17417068 0.10910042
v -2.98208950 -1.17334473 0.10910042
v -3.04756940 -1.17216484 0.10910042
v -1.61065803 -1.14814481 0.50241250
v -3.09183041 -1.13369918 0.04359004
v -3.17869504 -1.16157922 0.30575656
v -3.22312188 -1.13243491 0.30575656
v -3.21417030 -1.12045024 0.26981934
v -3.23373124 -1.08144517 0.30575656
v -3.21334132 -1.04623263 0.27081769
v -3.27832411 -1.04683952 0.46610103
v -3.28279990 -1.04134440 0.50241250
v -3.23124468 -1.03096095 0.37126693
v -3.24417495 -1.02484223 0.50241250
v -3.24417495 -1.02307235 0.56792307
v -3.24417495 -1.02428593 0.82996457
v -3.17869504 -1.01518365 0.43690212
v -1.99508328 -1.01196412 1.14865726
v -1.99790130 -1.01196412 1.14628634
v -1.61065803 -1.01211580 0.70143955
v -1.69321242 -1.01196412 1.15764156
v -2.91660959 -1.17543496 0.17473582
v -2.98208950 -1.17464270 0.17473582
v -3.24417495 -1.18157057 0.77705728
v -3.27865539 -1.18099747 0.79003442
v -3.17869504 -1.17189519 0.37126693
v -1.61065803 -1.14003705 1.15227594
v -1.67133057 -1.15163409 1.15764156
v -1.73697631 -1.15512327 1.15764156
v -3.04756940 -1.18173914 0.69894382
v -3.24417495 -1.16065209 0.50241250
v -3.23306829 -1.14204290 0.37126693
v -3.28379452 -1.13036167 0.50241250
v -3.27898706 -1.11980965 0.46435420
v -3.25296089 -1.08144517 0.37126693
v -3.27931873 -1.08144517 0.46310623
v -3.28959621 -1.08144517 0.50241250
v -3.29357509 -1.08144517 0.56792307
v -3.28495478 -1.03886654 0.56792307
v -3.28909929 -1.03702917 0.82996457
v -3.28711005 -1.03933846 0.88374557
v -3.25014267 -1.03303428 0.90158936
v -3.17869504 -1.02411736 0.89547514
v -3.17869504 -1.01644783 0.50241250
v -1.92794561 -1.01196412 1.18222355
v -1.61065803 -1.03986106 1.21391810
v -1.73813657 -1.01196412 1.21017469
v -3.11321514 -1.18414951 0.89547514
v -3.11321514 -1.18330676 0.82996457
v -3.24947972 -1.18155367 0.83582936
v -3.27865539 -1.18099747 0.81798557
v -3.28976224 -1.15345457 0.83582936
v -3.28561773 -1.13535108 0.56792307
v -1.61065803 -1.13696920 1.21778632
v -1.61065803 -1.13504764 1.22602202
v -1.67133057 -1.13811549 1.21578985
v -1.80245621 -1.15372422 1.15764156
v -3.17869504 -1.18140200 0.93078828
v -3.11321514 -1.18204258 0.93153698
v -3.30401860 -1.08144517 0.82996457
v -3.29025955 -1.08328244 0.90158936
v -3.27600320 -1.06266741 0.92741922
v -3.23240514 -1.04073761 0.93740176
v -3.17869504 -1.03686070 0.94214350
v -1.87290922 -1.01196412 1.20019216
v -1.88567365 -1.01196412 1.19657347
v -1.92048576 -1.01196412 1.18496873
v -1.61065803 -1.08444554 1.24498876
v -1.80245621 -1.01196412 1.21741206
v -3.17869504 -1.18268307 0.89547514
v -3.27467691 -1.17961522 0.86165922
v -3.21450177 -1.18045807 0.92941569
v -3.28594940 -1.13122132 0.89547514
v -1.61065803 -1.09251960 1.24236841
v -1.73697631 -1.13631182 1.21079858
v -3.27732949 -1.11517427 0.92854227
v -3.27732949 -1.10634164 0.92854227
v -3.25014267 -1.08328244 0.94014693
v -3.17869504 -1.08144517 0.95861460
v -1.73697631 -1.08144517 1.22689544
v -1.80245621 -1.13191240 1.20393556
v -1.80245621 -1.08144517 1.21628892
v -3.26124953 -1.16398959 0.89547514
v -3.17869504 -1.14698182 0.94725948
v -3.23953332 -1.14099788 0.93528049
v -1.86810195 -1.12215273 1.19545042
v -1.90241675 -1.11505629 1.19083350
f 1 2 3
f 1 3 4
f 1 4 5
f 1 5 6
f 1 6 7
f 1 7 8
f 1 8 9
f 1 9 2
f 2 9 10
f 2 10 11
f 2 11 12
f 2 12 3
f 3 13 4
f 3 12 13
f 4 13 12
f 4 12 14
f 4 14 15
f 4 15 5
f 5 15 16
f 5 16 17
f 5 17 6
f 6 17 18
f 6 18 19
f 6 19 20
f 6 20 7
f 7 20 21
f 7 21 8
f 8 21 22
f 8 22 23
f 8 23 9
f 9 23 10
f 10 24 11
f 10 23 25
f 10 25 26
f 10 26 27
f 10 27 28
f 10 28 24
f 11 24 28
f 11 28 29
f 11 29 30
f 11 30 31
f 11 31 32
f 11 32 33
f 11 33 34
f 11 34 35
f 11 35 36
f 11 36 37
f 11 37 38
f 11 38 12
f 12 39 60
f 12 60 86
f 12 86 108
f 12 108 114
f 12 114 95
f 12 95 94
f 12 94 67
f 12 67 44
f 12 44 40
f 12 40 17
f 12 17 16
f 12 16 15
f 12 15 14
f 12 38 37
f 12 37 36
f 12 36 35
f 12 35 34
f 12 34 33
f 12 33 32
f 12 32 31
f 12 31 30
f 12 30 29
f 12 29 59
f 12 59 58
f 12 58 85
f 12 85 107
f 12 107 106
f 12 106 105
f 12 105 109
f 12 109 87
f 12 87 61
f 12 61 39
f 17 40 19
f 17 19 18
f 19 41 42
f 19 42 43
f 19 43 20
f 19 40 44
f 19 44 41
f 20 45 21
f 20 43 46
f 20 46 45
f 21 45 47
f 21 47 48
f 21 48 49
f 21 49 22
f 22 49 23
f 23 49 50
f 23 50 26
f 23 26 25
f 26 50 51
f 26 51 52
f 26 52 53
f 26 53 27
f 27 53 28
f 28 53 54
f 28 54 55
f 28 55 56
f 28 56 57
f 28 57 58
f 28 58 59
f 28 59 29
f 39 61 60
f 41 62 63
f 41 63 42
f 41 44 62
f 42 63 43
f 43 63 64
f 43 64 65
f 43 65 66
f 43 66 46
f 44 67 68
f 44 68 69
f 44 69 70
f 44 70 62
f 45 46 47
f 46 66 71
f 46 71 72
f 46 72 47
f 47 72 73
f 47 73 74
f 47 74 48
f 48 74 49
f 49 74 75
f 49 75 51
f 49 51 50
f 51 75 76
f 51 76 77
f 51 77 52
f 52 77 78
f 52 78 79
f 52 79 54
f 52 54 53
f 54 79 55
f 55 79 80
f 55 80 56
f 56 80 81
f 56 81 82
f 56 82 83
f 56 83 84
f 56 84 57
f 57 84 58
f 58 84 83
f 58 83 85
f 60 61 86
f 61 87 86
f 62 70 88
f 62 88 89
f 62 89 64
f 62 64 63
f 64 89 88
f 64 88 65
f 65 88 90
f 65 90 91
f 65 91 92
f 65 92 93
f 65 93 73
f 65 73 71
f 65 71 66
f 67 94 68
f 68 94 69
f 69 94 95
f 69 95 96
f 69 96 97
f 69 97 98
f 69 98 99
f 69 99 88
f 69 88 70
f 71 73 72
f 73 93 100
f 73 100 78
f 73 78 77
f 73 77 74
f 74 77 76
f 74 76 75
f 78 100 79
f 79 100 80
f 80 100 81
f 81 100 101
f 81 101 102
f 81 102 103
f 81 103 82
f 82 103 83
f 83 103 104
f 83 104 105
f 83 105 106
f 83 106 107
f 83 107 85
f 86 87 108
f 87 109 108
f 88 99 98
f 88 98 110
f 88 110 90
f 90 110 91
f 91 111 92
f 91 110 112
f 91 112 111
f 92 113 100
f 92 100 93
f 92 111 113
f 95 114 115
f 95 115 96
f 96 115 112
f 96 112 98
f 96 98 97
f 98 112 110
f 100 113 101
f 101 113 116
f 101 116 117
f 101 117 102
f 102 117 118
f 102 118 103
f 103 118 119
f 103 119 109
f 103 109 104
f 104 109 105
f 108 109 120
f 108 120 121
f 108 121 114
f 109 119 122
f 109 122 120
f 111 123 116
f 111 116 113
f 111 112 123
f 112 124 125
f 112 125 116
f 112 116 123
f 112 115 121
f 112 121 126
f 112 126 124
f 114 121 115
f 116 125 118
f 116 118 117
f 118 125 119
f 119 125 124
f 119 124 122
f 120 122 121
f 121 122 126
f 122 127 126
f 122 124 127
f 124 126 127

