# https://github.com/mikedh/trimesh
v 0.24163625 0.55090367 4.30422640
v -0.68843497 0.55090367 4.30422640
v 0.24163625 0.06793374 4.30422640
v 0.24163625 0.55090367 1.71127634
v -0.68852600 0.55090367 4.30397266
v -0.68852600 0.31426497 4.30422640
v -0.49149478 0.06793374 4.30422640
v 0.24163625 0.06793374 1.71127634
v -0.68816180 0.55090367 1.71127634
v -0.68852600 0.55090367 1.71153027
v -0.68852600 0.31261016 4.30422640
v -0.55659520 0.09450536 4.30422640
v -0.52791460 0.08277982 1.71127634
v -0.49149478 0.06793374 1.71127634
v -0.68852600 0.31535242 1.71127634
v -0.59110299 0.12632511 4.30371873
v -0.59119401 0.12656152 4.30422640
v -0.68852600 0.31261016 1.71127634
v -0.55705042 0.09469449 4.30422640
v -0.55705042 0.09469449 1.71127634
v -0.59092089 0.12608872 4.30422640
v -0.59110299 0.12632511 1.71127634
v -0.57598874 0.11223554 1.71127634
f 1 2 6
f 1 6 11
f 1 11 17
f 1 17 21
f 1 21 19
f 1 19 12
f 1 12 7
f 1 7 3
f 1 3 8
f 1 8 4
f 1 4 9
f 1 9 10
f 1 10 5
f 1 5 2
f 2 5 6
f 3 7 14
f 3 14 8
f 4 8 14
f 4 14 13
f 4 13 20
f 4 20 23
f 4 23 22
f 4 22 18
f 4 18 15
f 4 15 9
f 5 10 15
f 5 15 18
f 5 18 11
f 5 11 6
f 7 12 13
f 7 13 14
f 9 15 10
f 11 16 17
f 11 18 22
f 11 22 16
f 12 19 20
f 12 20 13
f 16 21 17
f 16 22 21
f 19 21 23
f 19 23 20
f 21 22 23

