# https://github.com/mikedh/trimesh
v -1.62811927 -0.42605731 1.33079433
v -1.66880964 -0.42605731 1.32634431
v -1.65797742 -0.46411561 1.32455469
v -1.62811927 -0.44238778 1.32948834
v -1.62811927 -0.35955912 1.32571554
v -1.65593895 -0.36052789 1.32421609
v -1.70158563 -0.42605731 1.32092702
v -1.62811927 -0.46667590 1.32600581
v -1.80243219 -1.01194733 1.21751363
v -1.62811927 -0.33900764 1.32349055
v -1.64078993 -0.32759016 1.32174927
v -1.68867509 -0.36052789 1.31855689
v -1.80243219 -0.36052789 1.28876144
v -1.86790467 -0.36052789 1.27076812
v -1.90579694 -0.41021125 1.25814376
v -1.87338055 -0.42965558 1.26675351
v -1.90535725 -0.99976869 1.19211985
v -1.88549179 -1.01194733 1.19656976
v -1.87278108 -1.01194733 1.20019753
v -1.62811927 -0.48660459 1.29074463
v -1.73803910 -1.01194733 1.21025830
v -1.69315186 -1.01194733 1.15772936
v -1.64598610 -1.01194733 0.83665463
v -1.62811927 -0.32544505 1.30240164
v -1.63751239 -0.32759016 1.32174927
v -1.90100041 -0.32759016 1.25620900
v -1.73688001 -0.31748742 1.27870067
v -1.80243219 -0.31707223 1.27134856
v -1.86790467 -0.32253878 1.26230350
v -1.90475778 -0.36052789 1.25770847
v -1.92997938 -0.42965558 1.23990861
v -1.96679265 -0.72699459 1.19095900
v -1.99489205 -1.01194733 1.14873265
v -1.95332230 -0.88476344 1.18326827
v -1.93133849 -1.01194733 1.18055964
v -1.92782099 -1.01194733 1.18225256
v -1.92046622 -1.01194733 1.18505799
v -1.62811927 -0.49380109 1.26646334
v -1.64542668 -0.99340259 0.83665463
v -1.62811927 -0.49829885 1.20029422
v -1.62811927 -0.50002879 1.22326962
v -1.99049536 -1.01194733 0.83665463
v -1.62811927 -0.32350754 1.28943865
v -1.67132783 -0.30987575 1.22326962
v -1.66613147 -0.32101645 1.29306633
v -1.97210875 -0.37900345 1.19966545
v -1.97566610 -0.42605731 1.20358328
v -1.86790467 -0.31167487 1.22326962
v -1.91311166 -0.32226200 1.22326962
v -1.80243219 -0.30586233 1.22326962
v -1.97522642 -0.49158678 1.20111646
v -1.96843147 -0.68817513 1.19250680
v -1.99784993 -1.01194733 1.14626583
v -1.64035025 -0.81923402 0.83665463
v -1.63271587 -0.55711624 0.83665463
v -1.62919846 -0.43616007 0.83665463
v -1.62891865 -0.42605731 0.83665463
v -1.62811927 -0.48335234 1.16600051
v -2.00592409 -1.01194733 0.89498779
v -1.97918361 -0.68817513 0.83665463
v -1.62811927 -0.31624188 1.22680060
v -1.67792296 -0.31029093 0.83665463
v -1.73688001 -0.30510118 0.96115693
v -1.73688001 -0.30703868 1.22326962
v -1.95376199 -0.34080675 1.15772936
v -1.97794443 -0.37360609 1.15772936
v -1.99465238 -0.42605731 1.15772936
v -1.99908910 -0.49158678 1.15772936
v -2.03642195 -1.01194733 1.09218910
v -2.03026632 -1.01194733 1.10341071
v -1.86790467 -0.30613911 1.15772936
v -1.92098600 -0.31721062 1.15772936
v -1.80243219 -0.30530877 1.15772936
v -1.62863884 -0.36052789 0.83665463
v -1.62811927 -0.45339008 1.15564949
v -2.00732305 -1.01194733 0.90364599
v -2.00508476 -0.68817513 0.96115693
v -1.99321338 -0.68817513 0.89561676
v -1.97674530 -0.62271486 0.83665463
v -1.62811927 -0.31804099 1.19637629
v -1.63391500 -0.32295396 0.83665463
v -1.63703276 -0.32170843 0.83665463
v -1.67112782 -0.31160567 0.83665463
v -1.73688001 -0.30606992 0.83665463
v -1.73688001 -0.30558555 0.89561676
v -1.80243219 -0.30579314 1.02669718
v -1.80243219 -0.30544716 1.09218910
v -1.94724675 -0.34592733 1.09218910
v -1.97810441 -0.37865747 1.09218910
v -1.91447076 -0.31824858 1.09218910
v -1.90827529 -0.32219280 1.02669718
v -1.99944871 -0.42605731 1.09218910
v -2.01064073 -0.49158678 1.09218910
v -2.00688336 -0.55711624 1.02669718
v -1.80243219 -0.30641592 0.96115693
v -1.80243219 -0.30731547 0.89561676
v -1.86790467 -0.30731547 1.09218910
v -1.62811927 -0.32143163 1.17499712
v -1.62811927 -0.36052789 1.15506906
v -1.62811927 -0.39941653 1.14940986
v -1.62811927 -0.42605731 1.14660443
v -2.00184697 -0.62271486 0.96115693
v -1.99013557 -0.62271486 0.89561676
v -1.97246855 -0.56244436 0.83665463
v -1.74347513 -0.30620831 0.83665463
v -1.94105128 -0.35236265 1.02669718
v -1.97238846 -0.38509276 1.02669718
v -1.85231596 -0.31900975 0.83665463
v -1.88505211 -0.33976882 0.83665463
v -1.88868954 -0.34309026 0.83665463
v -1.98925619 -0.42605731 1.02669718
v -2.00312619 -0.49158678 1.02669718
v -1.96839143 -0.38986736 0.98456762
v -1.99832966 -0.55711624 0.96115693
v -1.80243219 -0.30863021 0.83665463
v -1.80782837 -0.30966817 0.83665463
v -1.98533904 -0.55711624 0.89561676
v -1.99205410 -0.49158678 0.96115693
v -1.96723234 -0.52224099 0.83665463
v -1.91702881 -0.37256813 0.83665463
v -1.97606575 -0.42432737 0.96212429
v -1.96327515 -0.40135404 0.94089026
v -1.96899089 -0.51068512 0.85131043
v -1.97086958 -0.44501726 0.91220731
v -1.97546628 -0.48992603 0.89247272
v -1.96243581 -0.49663816 0.83665463
v -1.94376929 -0.42584977 0.83665463
v -1.95835869 -0.42432737 0.89247272
v -1.96459421 -0.46695268 0.86852995
v -1.96023737 -0.48577424 0.83665463
f 1 2 3
f 1 3 4
f 1 4 8
f 1 8 20
f 1 20 38
f 1 38 41
f 1 41 40
f 1 40 58
f 1 58 75
f 1 75 101
f 1 101 100
f 1 100 99
f 1 99 98
f 1 98 80
f 1 80 61
f 1 61 43
f 1 43 24
f 1 24 10
f 1 10 5
f 1 5 6
f 1 6 2
f 2 7 3
f 2 6 7
f 3 8 4
f 3 7 9
f 3 9 8
f 5 10 11
f 5 11 6
f 6 11 12
f 6 12 7
f 7 12 13
f 7 13 14
f 7 14 15
f 7 15 16
f 7 16 17
f 7 17 18
f 7 18 19
f 7 19 9
f 8 9 21
f 8 21 22
f 8 22 23
f 8 23 20
f 9 19 18
f 9 18 37
f 9 37 36
f 9 36 35
f 9 35 33
f 9 33 53
f 9 53 70
f 9 70 69
f 9 69 76
f 9 76 59
f 9 59 42
f 9 42 23
f 9 23 22
f 9 22 21
f 10 24 25
f 10 25 11
f 11 26 12
f 11 25 27
f 11 27 28
f 11 28 29
f 11 29 26
f 12 26 13
f 13 26 14
f 14 26 30
f 14 30 15
f 15 30 31
f 15 31 32
f 15 32 33
f 15 33 34
f 15 34 35
f 15 35 36
f 15 36 37
f 15 37 17
f 15 17 16
f 17 37 18
f 20 23 38
f 23 39 40
f 23 40 41
f 23 41 38
f 23 42 60
f 23 60 79
f 23 79 104
f 23 104 119
f 23 119 126
f 23 126 130
f 23 130 127
f 23 127 120
f 23 120 110
f 23 110 109
f 23 109 108
f 23 108 116
f 23 116 115
f 23 115 105
f 23 105 84
f 23 84 62
f 23 62 83
f 23 83 82
f 23 82 81
f 23 81 74
f 23 74 57
f 23 57 56
f 23 56 55
f 23 55 54
f 23 54 39
f 24 43 44
f 24 44 25
f 25 44 45
f 25 45 27
f 26 46 47
f 26 47 30
f 26 29 48
f 26 48 49
f 26 49 46
f 27 45 50
f 27 50 28
f 28 50 48
f 28 48 29
f 30 47 31
f 31 47 51
f 31 51 52
f 31 52 32
f 32 52 33
f 33 35 34
f 33 52 51
f 33 51 53
f 39 54 40
f 40 54 55
f 40 55 56
f 40 56 57
f 40 57 58
f 42 59 60
f 43 61 44
f 44 61 62
f 44 62 63
f 44 63 64
f 44 64 45
f 45 64 50
f 46 49 65
f 46 65 66
f 46 66 67
f 46 67 47
f 47 67 68
f 47 68 69
f 47 69 70
f 47 70 51
f 48 50 71
f 48 71 72
f 48 72 49
f 49 72 65
f 50 73 71
f 50 64 73
f 51 70 53
f 57 74 58
f 58 74 75
f 59 76 77
f 59 77 78
f 59 78 79
f 59 79 60
f 61 80 81
f 61 81 82
f 61 82 83
f 61 83 62
f 62 84 85
f 62 85 63
f 63 85 86
f 63 86 87
f 63 87 73
f 63 73 64
f 65 88 89
f 65 89 66
f 65 72 90
f 65 90 91
f 65 91 88
f 66 89 92
f 66 92 67
f 67 92 93
f 67 93 68
f 68 93 69
f 69 77 76
f 69 93 94
f 69 94 77
f 71 73 87
f 71 87 86
f 71 86 95
f 71 95 96
f 71 96 97
f 71 97 72
f 72 97 90
f 74 81 80
f 74 80 98
f 74 98 99
f 74 99 100
f 74 100 101
f 74 101 75
f 77 102 103
f 77 103 78
f 77 94 102
f 78 103 79
f 79 103 104
f 84 105 86
f 84 86 85
f 86 105 95
f 88 106 107
f 88 107 89
f 88 91 106
f 89 107 92
f 90 97 108
f 90 108 91
f 91 108 109
f 91 109 110
f 91 110 106
f 92 111 112
f 92 112 93
f 92 107 113
f 92 113 111
f 93 112 94
f 94 112 114
f 94 114 102
f 95 105 96
f 96 115 97
f 96 105 115
f 97 115 116
f 97 116 108
f 102 114 103
f 103 114 117
f 103 117 104
f 104 117 118
f 104 118 119
f 106 110 113
f 106 113 107
f 110 120 113
f 111 121 118
f 111 118 112
f 111 113 121
f 112 118 114
f 113 120 122
f 113 122 121
f 114 118 117
f 118 123 119
f 118 121 124
f 118 124 125
f 118 125 123
f 119 123 126
f 120 127 122
f 121 122 124
f 122 127 128
f 122 128 124
f 123 125 126
f 124 128 127
f 124 127 129
f 124 129 125
f 125 129 130
f 125 130 126
f 127 130 129

