# https://github.com/mikedh/trimesh
v -0.95035488 -0.36051372 0.75653044
v -0.90671961 -0.36051372 0.74528939
v -0.69028890 -0.02601464 0.63375614
v -0.74145697 -0.02601464 0.64396584
v -0.75376667 -0.02601464 0.64473934
v -0.80622079 -0.02601464 0.64499718
v -0.81926542 -0.02601464 0.64499718
v -0.88784165 -0.02601464 0.63984066
v -1.00143105 -0.32441947 0.73621416
v -1.02030901 -0.35559180 0.74358787
v -1.04855706 -0.36659376 0.73935956
v -1.04855706 -0.38531644 0.73935956
v -1.04855706 -0.40896109 0.73899859
v -1.01585363 -0.41513762 0.74317533
v -0.95035488 -0.41899798 0.74900203
v -0.90750045 -0.41060172 0.74430981
v -0.64734266 -0.02601464 0.61060386
v -0.93000706 -0.02601464 0.62607302
v -1.04855706 -0.33696561 0.72569505
v -1.04855706 -0.42054211 0.73466715
v -0.82289402 -1.01194733 0.48819032
v -0.75376667 -1.01194733 0.49675008
v -0.75376667 -0.75369010 0.58528576
v -0.68339917 -0.75262853 0.55388314
v -0.65391092 -0.73004545 0.53686696
v -0.62635186 -0.02601464 0.58982347
v -0.95040078 -0.02601464 0.61297575
v -1.04855706 -0.33223667 0.72218868
v -1.04855706 -0.47410444 0.69805663
v -0.82385866 -1.01194733 0.48793268
v -0.71458683 -1.01194733 0.47792905
v -0.70204747 -0.80146192 0.54867526
v -0.65832035 -0.77366743 0.53052459
v -0.64316289 -0.75262853 0.50613472
v -0.58795280 -0.02601464 0.53196847
v -0.60494759 -0.02601464 0.56435069
v -0.60875995 -0.02601464 0.57141498
v -0.61349094 -0.02601464 0.57641680
v -0.97419345 -0.02601464 0.57038364
v -1.04855706 -0.32557758 0.68506250
v -1.04855706 -0.48317625 0.68691872
v -0.85440329 -1.01194733 0.45487991
v -0.71403566 -1.01194733 0.47498993
v -0.64771012 -0.79605743 0.48684977
v -0.62823503 -0.75369010 0.43683239
v -0.58101712 -0.02601464 0.50231895
v -0.97649004 -0.02601464 0.50231895
v -1.04855706 -0.32586711 0.66103358
v -1.04855706 -0.48520295 0.65819758
v -0.85821565 -1.01194733 0.43683239
v -0.71003960 -1.01194733 0.43683239
v -0.64849095 -0.79528534 0.39027001
v -0.64238201 -0.75369010 0.37846192
v -0.58230322 -0.02601464 0.30575636
v -0.57954731 -0.02601464 0.37129448
v -0.57931765 -0.02601464 0.43683239
v -0.58028219 -0.02601464 0.48489023
v -0.96661474 -0.02601464 0.44147324
v -1.04855706 -0.35674989 0.63076543
v -1.04855706 -0.48520295 0.64180021
v -0.91916712 -0.73197565 0.40011874
v -0.90175901 -0.75378664 0.37547102
v -0.85936390 -0.79335514 0.33231187
v -0.82289402 -1.01194733 0.38877456
v -0.71642411 -1.01194733 0.39862350
v -0.66107626 -0.75369010 0.34566698
v -0.62621405 -0.02601464 0.24202290
v -0.94718555 -0.02601464 0.36985060
v -1.04855706 -0.42691168 0.61225381
v -0.92591909 -0.02601464 0.33086799
v -0.86648338 -0.75369010 0.32622734
v -0.81926542 -0.75369010 0.30235313
v -0.75376667 -1.01194733 0.38279317
v -0.71895036 -1.01194733 0.39743745
v -0.70517085 -0.79837365 0.32777416
v -0.69382569 -0.75369010 0.32091612
v -0.63034792 -0.02601464 0.23898065
v -0.90759235 -0.02601464 0.31328477
v -0.87865528 -0.02601464 0.28647123
v -0.85426549 -0.02601464 0.26749571
v -0.75376667 -0.75369010 0.29704191
v -0.81563683 -0.02601464 0.24888094
v -0.76286119 -0.02601464 0.23604151
v -0.75376667 -0.02601464 0.23408215
v -0.68179150 -0.02601464 0.22975071
f 1 2 3
f 1 3 4
f 1 4 5
f 1 5 6
f 1 6 7
f 1 7 8
f 1 8 9
f 1 9 10
f 1 10 11
f 1 11 12
f 1 12 13
f 1 13 14
f 1 14 15
f 1 15 16
f 1 16 2
f 2 17 3
f 2 16 17
f 3 17 26
f 3 26 38
f 3 38 37
f 3 37 36
f 3 36 35
f 3 35 46
f 3 46 57
f 3 57 56
f 3 56 55
f 3 55 54
f 3 54 67
f 3 67 77
f 3 77 85
f 3 85 84
f 3 84 83
f 3 83 82
f 3 82 80
f 3 80 79
f 3 79 78
f 3 78 70
f 3 70 68
f 3 68 58
f 3 58 47
f 3 47 39
f 3 39 27
f 3 27 18
f 3 18 8
f 3 8 7
f 3 7 6
f 3 6 5
f 3 5 4
f 8 18 9
f 9 18 11
f 9 11 10
f 11 18 19
f 11 19 28
f 11 28 40
f 11 40 48
f 11 48 59
f 11 59 69
f 11 69 60
f 11 60 49
f 11 49 41
f 11 41 29
f 11 29 20
f 11 20 13
f 11 13 12
f 13 20 14
f 14 20 21
f 14 21 22
f 14 22 15
f 15 22 16
f 16 22 23
f 16 23 24
f 16 24 25
f 16 25 17
f 17 25 26
f 18 27 19
f 19 27 28
f 20 29 30
f 20 30 21
f 21 30 42
f 21 42 50
f 21 50 64
f 21 64 73
f 21 73 74
f 21 74 65
f 21 65 51
f 21 51 43
f 21 43 31
f 21 31 22
f 22 31 32
f 22 32 23
f 23 32 24
f 24 32 33
f 24 33 25
f 25 33 34
f 25 34 35
f 25 35 36
f 25 36 37
f 25 37 38
f 25 38 26
f 27 39 28
f 28 39 40
f 29 41 42
f 29 42 30
f 31 43 44
f 31 44 33
f 31 33 32
f 33 44 34
f 34 44 45
f 34 45 46
f 34 46 35
f 39 47 40
f 40 47 48
f 41 49 50
f 41 50 42
f 43 51 45
f 43 45 44
f 45 51 52
f 45 52 53
f 45 53 54
f 45 54 55
f 45 55 56
f 45 56 57
f 45 57 46
f 47 58 59
f 47 59 48
f 49 60 50
f 50 61 62
f 50 62 63
f 50 63 64
f 50 60 61
f 51 65 52
f 52 66 53
f 52 65 66
f 53 66 54
f 54 66 67
f 58 68 59
f 59 68 69
f 60 69 61
f 61 69 68
f 61 68 70
f 61 70 62
f 62 71 63
f 62 70 71
f 63 71 72
f 63 72 64
f 64 72 73
f 65 74 75
f 65 75 66
f 66 75 76
f 66 76 67
f 67 76 77
f 70 78 71
f 71 78 79
f 71 79 80
f 71 80 72
f 72 81 73
f 72 80 82
f 72 82 83
f 72 83 84
f 72 84 81
f 73 81 75
f 73 75 74
f 75 81 76
f 76 81 77
f 77 81 85
f 81 84 85

