# https://github.com/mikedh/trimesh
v 2.28427683 -1.00989636 1.22331865
v 2.28427683 -1.00034199 1.27115595
v 2.28427683 -1.00391174 1.20192112
v 2.34986006 -1.13935310 1.22331865
v 2.28427683 -0.95026015 1.28906635
v 2.35280681 -1.13200362 1.26645739
v 2.28427683 -0.99645717 1.18376519
v 2.35336897 -1.12990382 1.18461654
v 2.39227696 -1.16990624 1.22331865
v 2.39227696 -1.08139683 1.29135836
v 2.28427683 -0.42602830 1.31269035
v 2.39227696 -1.14344791 1.27439755
v 2.28427683 -0.97136380 1.17906663
v 2.39227696 -1.08139683 1.16726274
v 2.39227696 -1.14061308 1.17972147
v 2.28427683 -0.95026015 1.17574318
v 2.43622524 -1.13357856 1.18202978
v 2.44473577 -1.14460279 1.22331865
v 2.44012188 -1.13536339 1.27010820
v 2.44739167 -1.08139683 1.27631306
v 2.39227696 -0.42602830 1.30005161
v 2.28427683 -0.40723450 1.31278860
v 2.44240939 -1.08139683 1.17685647
v 2.28427683 -0.49521894 1.14558696
v 2.39227696 -0.88474430 1.15496778
v 2.46476159 -1.08139683 1.22331865
v 2.48230594 -0.09729409 1.22331865
v 2.45555315 -0.09729409 1.27695149
v 2.45510721 -0.09729409 1.27780284
v 2.39227696 -0.36051246 1.29975696
v 2.28427683 -0.36051246 1.31283772
v 2.39227696 -0.81922841 1.15120241
v 2.46865823 -0.09729409 1.14558696
v 2.28427683 -0.17614414 1.14558696
v 2.31457740 -0.50151853 1.14558696
v 2.48220906 -0.09729409 1.22230362
v 2.39326552 -0.09729409 1.28294344
v 2.39227696 -0.22948074 1.29479637
v 2.39227696 -0.29499659 1.29784145
v 2.28427683 -0.33919880 1.31103688
v 2.31926884 -0.50162352 1.14558696
v 2.32791512 -0.50162352 1.14558696
v 2.39425428 -0.49238411 1.14558696
v 2.39460334 -0.49206909 1.14558696
v 2.42153056 -0.44093735 1.14558696
v 2.35619930 -0.09729409 1.14558696
v 2.28427683 -0.17656410 1.15634300
v 2.35334963 -0.09729409 1.22331865
v 2.39227696 -0.09729409 1.28299256
v 2.28427683 -0.29835638 1.30715684
v 2.28427683 -0.18443859 1.20989401
v 2.35666458 -0.09729409 1.26126766
v 2.35338831 -0.09729409 1.22387525
v 2.28427683 -0.26937822 1.29775961
v 2.28427683 -0.19010824 1.23001457
v 2.28427683 -0.23221058 1.27904709
f 1 2 5
f 1 5 11
f 1 11 22
f 1 22 31
f 1 31 40
f 1 40 50
f 1 50 54
f 1 54 56
f 1 56 55
f 1 55 51
f 1 51 47
f 1 47 34
f 1 34 24
f 1 24 16
f 1 16 13
f 1 13 7
f 1 7 3
f 1 3 4
f 1 4 2
f 2 4 6
f 2 6 5
f 3 7 4
f 4 8 9
f 4 9 6
f 4 7 8
f 5 6 10
f 5 10 11
f 6 9 12
f 6 12 10
f 7 13 8
f 8 14 15
f 8 15 9
f 8 13 16
f 8 16 14
f 9 15 17
f 9 17 18
f 9 18 19
f 9 19 12
f 10 12 19
f 10 19 20
f 10 20 21
f 10 21 11
f 11 21 22
f 14 23 17
f 14 17 15
f 14 16 24
f 14 24 25
f 14 25 23
f 17 23 26
f 17 26 18
f 18 26 19
f 19 26 20
f 20 26 27
f 20 27 28
f 20 28 29
f 20 29 21
f 21 29 30
f 21 30 31
f 21 31 22
f 23 25 32
f 23 32 33
f 23 33 26
f 24 34 46
f 24 46 33
f 24 33 45
f 24 45 44
f 24 44 43
f 24 43 42
f 24 42 41
f 24 41 35
f 24 35 32
f 24 32 25
f 26 33 36
f 26 36 27
f 27 36 33
f 27 33 46
f 27 46 48
f 27 48 53
f 27 53 52
f 27 52 49
f 27 49 37
f 27 37 29
f 27 29 28
f 29 37 38
f 29 38 39
f 29 39 30
f 30 39 31
f 31 39 38
f 31 38 40
f 32 35 41
f 32 41 42
f 32 42 43
f 32 43 44
f 32 44 45
f 32 45 33
f 34 47 48
f 34 48 46
f 37 49 40
f 37 40 38
f 40 49 50
f 47 51 52
f 47 52 53
f 47 53 48
f 49 52 54
f 49 54 50
f 51 55 52
f 52 55 56
f 52 56 54

