# https://github.com/mikedh/trimesh
mtllib material.mtl

o Cube
usemtl Material
v 1.00000000 1.00000000 0.02000000
v 1.00000000 1.00000000 0.02000000
v 1.00000000 1.00000000 0.02000000
v 1.00000000 1.00000000 0.00000000
v 1.00000000 1.00000000 0.00000000
v 1.00000000 1.00000000 0.00000000
v 1.00000000 -1.00000000 0.02000000
v 1.00000000 -1.00000000 0.02000000
v 1.00000000 -1.00000000 0.02000000
v 1.00000000 -1.00000000 0.00000000
v 1.00000000 -1.00000000 0.00000000
v 1.00000000 -1.00000000 0.00000000
v -1.00000000 1.00000000 0.02000000
v -1.00000000 1.00000000 0.02000000
v -1.00000000 1.00000000 0.02000000
v -1.00000000 1.00000000 0.00000000
v -1.00000000 1.00000000 0.00000000
v -1.00000000 1.00000000 0.00000000
v -1.00000000 -1.00000000 0.02000000
v -1.00000000 -1.00000000 0.02000000
v -1.00000000 -1.00000000 0.02000000
v -1.00000000 -1.00000000 0.00000000
v -1.00000000 -1.00000000 0.00000000
v -1.00000000 -1.00000000 0.00000000
vt 0.62500000 0.50000000
vt 0.62500000 0.50000000
vt 0.62500000 0.50000000
vt 0.37500000 0.50000000
vt 0.37500000 0.50000000
vt 0.37500000 0.50000000
vt 0.62500000 0.75000000
vt 0.62500000 0.75000000
vt 0.62500000 0.75000000
vt 0.37500000 0.75000000
vt 0.37500000 0.75000000
vt 0.37500000 0.75000000
vt 0.62500000 0.25000000
vt 0.62500000 0.25000000
vt 0.87500000 0.50000000
vt 0.12500000 0.50000000
vt 0.37500000 0.25000000
vt 0.37500000 0.25000000
vt 0.62500000 1.00000000
vt 0.62500000 0.00000000
vt 0.87500000 0.75000000
vt 0.12500000 0.75000000
vt 0.37500000 1.00000000
vt 0.37500000 0.00000000
f 2/2 15/15 21/21
f 2/2 21/21 8/8
f 11/11 7/7 19/19
f 11/11 19/19 23/23
f 24/24 20/20 13/13
f 24/24 13/13 17/17
f 16/16 4/4 10/10
f 16/16 10/10 22/22
f 6/6 3/3 9/9
f 6/6 9/9 12/12
f 18/18 14/14 1/1
f 18/18 1/1 5/5

