# https://github.com/mikedh/trimesh
v -0.09682038 -0.01182318 2.33037124
v -0.09554174 -0.01182318 2.31727141
v -0.09475488 -0.02400163 2.31838234
v -0.09497127 -0.02463325 2.33037124
v -0.09491226 -0.02447534 2.35403669
v -0.09670234 -0.01182318 2.35403669
v -0.09682038 0.01182314 2.33037124
v -0.07211325 -0.01204030 2.26067105
v -0.09554174 0.01182314 2.31727141
v -0.07215259 0.01209948 2.26067105
v -0.06019245 -0.03771965 2.26067105
v -0.07577211 -0.05437866 2.31435511
v -0.07848674 -0.05818813 2.33037124
v -0.09030917 -0.03645641 2.33037124
v -0.09467620 -0.02378451 2.36593315
v -0.09023050 -0.03629851 2.35403669
v -0.09544338 -0.01182318 2.36696300
v -0.09670234 0.01182314 2.35403669
v -0.09491226 0.02447531 2.35403669
v -0.09497127 0.02463321 2.33037124
v -0.09475488 0.02400159 2.31838234
v -0.06027114 0.03777883 2.26067105
v -0.05037649 -0.04904936 2.26067105
v -0.07006744 -0.07003103 2.33037124
v -0.07840805 -0.05808944 2.35403669
v -0.07567375 -0.05424050 2.36985610
v -0.08324719 -0.03319961 2.37089765
v -0.08279475 -0.01182318 2.37347826
v -0.09544338 0.01182314 2.36696300
v -0.09467620 0.02378447 2.36593315
v -0.09023050 0.03629847 2.35403669
v -0.09030917 0.03645638 2.33037124
v -0.07848674 0.05818810 2.33037124
v -0.07577211 0.05437863 2.31435511
v -0.07006744 0.07003100 2.33037124
v -0.05440910 0.07628800 2.31422784
v -0.03715739 0.05635245 2.26067105
v -0.03698035 -0.05619458 2.26067105
v -0.02610214 -0.09559196 2.31724821
v -0.05440910 -0.07628803 2.31422784
v -0.06996908 -0.06993234 2.35403669
v -0.05824500 -0.07924876 2.33037124
v -0.05913021 -0.03546950 2.37861635
v -0.05427140 -0.07614986 2.36997188
v -0.06095963 -0.06093174 2.37332780
v -0.05913021 -0.01182318 2.37888259
v -0.08279475 0.01182314 2.37347826
v -0.08324719 0.03319958 2.37089765
v -0.07567375 0.05424046 2.36985610
v -0.07840805 0.05808940 2.35403669
v -0.06996908 0.06993230 2.35403669
v -0.05824500 0.07924872 2.33037124
v -0.02610214 0.09559192 2.31724821
v -0.03696068 0.05645114 2.26067105
v -0.01182079 -0.06493858 2.26067105
v -0.01182079 -0.09701310 2.31551236
v -0.01182079 -0.09977645 2.33037124
v -0.02775452 -0.09624332 2.33037124
v -0.03959663 -0.09107192 2.33037124
v -0.05814664 -0.07915006 2.35403669
v -0.03548534 -0.05913556 2.37869744
v -0.02592509 -0.09551300 2.36703252
v -0.03448210 -0.08355168 2.37162671
v -0.01182079 -0.05913556 2.37888259
v -0.05913021 0.01182314 2.37888259
v -0.05913021 0.03546947 2.37861635
v -0.06095963 0.06093170 2.37332780
v -0.05427140 0.07614983 2.36997188
v -0.05814664 0.07915003 2.35403669
v -0.03959663 0.09107189 2.33037124
v -0.02775452 0.09624328 2.33037124
v -0.01182079 0.09977642 2.33037124
v -0.01182079 0.09701307 2.31551236
v -0.01182079 0.06507671 2.26067105
v -0.01056183 -0.06499780 2.26067105
v 0.01182408 -0.09752630 2.31488745
v 0.01182408 -0.10082257 2.33037124
v -0.01182079 -0.09965802 2.35403669
v -0.02761682 -0.09620384 2.35403669
v -0.03945893 -0.09099296 2.35403669
v -0.01182079 -0.08280163 2.37517935
v 0.01182408 -0.08280163 2.37580433
v -0.01182079 -0.09689467 2.36867579
v 0.03546895 -0.05913556 2.37888259
v -0.01182079 0.05913553 2.37888259
v -0.03548534 0.05913553 2.37869744
v -0.03448210 0.08355164 2.37162671
v -0.02592509 0.09551296 2.36703252
v -0.03945893 0.09099292 2.35403669
v -0.02761682 0.09620381 2.35403669
v -0.01182079 0.09965799 2.35403669
v 0.01182408 0.10082253 2.33037124
v 0.01182408 0.09752626 2.31488745
v 0.01182408 0.06517541 2.26067105
v 0.01182408 -0.06509649 2.26067105
v 0.02876105 -0.09626305 2.31641501
v 0.01182408 -0.10070414 2.35403669
v 0.03182977 -0.09728944 2.33037124
v 0.03167240 -0.09723022 2.35403669
v 0.01182408 -0.09740787 2.36930064
v 0.03605909 -0.08434120 2.37226312
v 0.05913350 -0.05913556 2.37678793
v 0.05913350 -0.03546950 2.37888259
v 0.03546895 0.05913553 2.37888259
v 0.01182408 0.08280159 2.37580433
v -0.01182079 0.08280159 2.37517935
v -0.01182079 0.09689464 2.36867579
v 0.01182408 0.10070410 2.35403669
v 0.03167240 0.09723019 2.35403669
v 0.03182977 0.09728941 2.33037124
v 0.02876105 0.09626302 2.31641501
v 0.03422966 0.05858286 2.26067105
v 0.03546895 -0.05804996 2.26067105
v 0.07262799 -0.07257726 2.31685477
v 0.04365220 -0.09310495 2.33037124
v 0.05043879 -0.05017444 2.26067105
v 0.02854467 -0.09620384 2.36785409
v 0.04349483 -0.09300626 2.35403669
v 0.05913350 -0.07697886 2.37028437
v 0.07252964 -0.07247857 2.36742596
v 0.07752614 -0.05913556 2.37028437
v 0.08474549 -0.03708803 2.37273764
v 0.08279805 -0.01182318 2.37715824
v 0.05913350 0.03546947 2.37888259
v 0.05913350 0.05913553 2.37678793
v 0.03605909 0.08434117 2.37226312
v 0.01182408 0.09740783 2.36930064
v 0.02854467 0.09620381 2.36785409
v 0.04349483 0.09300622 2.35403669
v 0.04365220 0.09310492 2.33037124
v 0.07262799 0.07257722 2.31685477
v 0.05049781 0.05025335 2.26067105
v 0.03546895 0.05818810 2.26067105
v 0.08492254 -0.05913556 2.33037124
v 0.07369024 -0.07360364 2.33037124
v 0.05913350 -0.08392670 2.33037124
v 0.05962528 -0.03625903 2.26067105
v 0.06013673 -0.03546950 2.26067105
v 0.09715808 -0.03047575 2.31560494
v 0.09403034 -0.04616759 2.33037124
v 0.05913350 -0.08374906 2.35403669
v 0.07361156 -0.07354442 2.35403669
v 0.08476516 -0.05913556 2.35403669
v 0.09395165 -0.04600968 2.35403669
v 0.09707939 -0.03027836 2.36864096
v 0.09900718 -0.01182318 2.37064298
v 0.08279805 0.01182314 2.37715824
v 0.07752614 0.05913553 2.37028437
v 0.07252964 0.07247853 2.36742596
v 0.05913350 0.07697883 2.37028437
v 0.08474549 0.03708800 2.37273764
v 0.05913350 0.08374902 2.35403669
v 0.05913350 0.08392667 2.33037124
v 0.07369024 0.07360360 2.33037124
v 0.08492254 0.05913553 2.33037124
v 0.09403034 0.04616755 2.33037124
v 0.09715808 0.03047571 2.31560494
v 0.06021542 0.03546947 2.26067105
v 0.06926421 -0.01312590 2.26067105
v 0.06977566 -0.01164554 2.26067105
v 0.09914486 -0.01182318 2.31349879
v 0.10414137 -0.01182318 2.33037124
v 0.09863341 -0.03434443 2.33037124
v 0.09857440 -0.03418652 2.35403669
v 0.10400367 -0.01182318 2.35403669
v 0.09900718 0.01182314 2.37064298
v 0.09707939 0.03027833 2.36864096
v 0.09395165 0.04600965 2.35403669
v 0.08476516 0.05913553 2.35403669
v 0.07361156 0.07354439 2.35403669
v 0.09857440 0.03418649 2.35403669
v 0.09863341 0.03434439 2.33037124
v 0.10412170 0.01182314 2.33037124
v 0.09914486 0.01182314 2.31349879
v 0.06979533 0.01265215 2.26067105
v 0.10400367 0.01182314 2.35403669
f 1 2 3
f 1 3 4
f 1 4 5
f 1 5 6
f 1 6 18
f 1 18 7
f 1 7 9
f 1 9 2
f 2 8 3
f 2 9 10
f 2 10 8
f 3 8 11
f 3 11 12
f 3 12 13
f 3 13 14
f 3 14 4
f 4 14 5
f 5 15 6
f 5 14 16
f 5 16 15
f 6 15 17
f 6 17 29
f 6 29 18
f 7 18 19
f 7 19 20
f 7 20 21
f 7 21 9
f 8 10 22
f 8 22 37
f 8 37 54
f 8 54 74
f 8 74 94
f 8 94 112
f 8 112 133
f 8 133 132
f 8 132 158
f 8 158 175
f 8 175 160
f 8 160 159
f 8 159 138
f 8 138 137
f 8 137 116
f 8 116 113
f 8 113 95
f 8 95 75
f 8 75 55
f 8 55 38
f 8 38 23
f 8 23 11
f 9 21 10
f 10 21 22
f 11 23 12
f 12 24 13
f 12 23 24
f 13 25 14
f 13 24 25
f 14 25 16
f 15 16 25
f 15 25 26
f 15 26 27
f 15 27 17
f 17 27 28
f 17 28 47
f 17 47 29
f 18 29 30
f 18 30 19
f 19 30 31
f 19 31 32
f 19 32 20
f 20 32 21
f 21 32 33
f 21 33 34
f 21 34 22
f 22 34 35
f 22 35 36
f 22 36 37
f 23 38 39
f 23 39 40
f 23 40 24
f 24 41 25
f 24 40 42
f 24 42 60
f 24 60 41
f 25 41 26
f 26 43 27
f 26 41 44
f 26 44 45
f 26 45 43
f 27 43 28
f 28 43 46
f 28 46 65
f 28 65 47
f 29 47 48
f 29 48 30
f 30 48 49
f 30 49 50
f 30 50 31
f 31 50 32
f 32 50 33
f 33 50 35
f 33 35 34
f 35 50 51
f 35 51 69
f 35 69 52
f 35 52 36
f 36 52 53
f 36 53 37
f 37 53 54
f 38 55 39
f 39 56 57
f 39 57 58
f 39 58 59
f 39 59 42
f 39 42 40
f 39 55 56
f 41 60 44
f 42 59 60
f 43 45 61
f 43 61 46
f 44 60 62
f 44 62 63
f 44 63 45
f 45 63 61
f 46 61 64
f 46 64 84
f 46 84 103
f 46 103 124
f 46 124 104
f 46 104 85
f 46 85 65
f 47 65 66
f 47 66 48
f 48 66 49
f 49 66 67
f 49 67 68
f 49 68 51
f 49 51 50
f 51 68 69
f 52 69 70
f 52 70 53
f 53 70 71
f 53 71 72
f 53 72 73
f 53 73 74
f 53 74 54
f 55 75 56
f 56 76 77
f 56 77 57
f 56 75 76
f 57 78 79
f 57 79 58
f 57 77 97
f 57 97 78
f 58 79 59
f 59 80 60
f 59 79 80
f 60 80 62
f 61 63 81
f 61 81 82
f 61 82 64
f 62 79 78
f 62 78 83
f 62 83 63
f 62 80 79
f 63 83 81
f 64 82 84
f 65 85 86
f 65 86 66
f 66 86 67
f 67 86 87
f 67 87 68
f 68 87 88
f 68 88 69
f 69 88 89
f 69 89 70
f 70 90 71
f 70 89 90
f 71 90 72
f 72 91 108
f 72 108 92
f 72 92 73
f 72 90 91
f 73 92 93
f 73 93 74
f 74 93 94
f 75 95 76
f 76 96 77
f 76 95 96
f 77 96 98
f 77 98 99
f 77 99 97
f 78 97 83
f 81 83 100
f 81 100 82
f 82 100 101
f 82 101 102
f 82 102 84
f 83 97 100
f 84 102 103
f 85 104 105
f 85 105 86
f 86 105 106
f 86 106 87
f 87 106 107
f 87 107 88
f 88 107 91
f 88 91 90
f 88 90 89
f 91 107 108
f 92 108 109
f 92 109 110
f 92 110 111
f 92 111 93
f 93 111 94
f 94 111 112
f 95 113 96
f 96 114 115
f 96 115 98
f 96 113 116
f 96 116 114
f 97 99 117
f 97 117 100
f 98 115 99
f 99 115 118
f 99 118 117
f 100 117 101
f 101 119 102
f 101 117 119
f 102 119 120
f 102 120 121
f 102 121 122
f 102 122 123
f 102 123 103
f 103 123 147
f 103 147 124
f 104 125 105
f 104 124 125
f 105 126 127
f 105 127 106
f 105 125 126
f 106 127 107
f 107 127 108
f 108 127 128
f 108 128 109
f 109 128 129
f 109 129 130
f 109 130 110
f 110 130 111
f 111 130 131
f 111 131 132
f 111 132 133
f 111 133 112
f 114 134 135
f 114 135 136
f 114 136 115
f 114 116 137
f 114 137 138
f 114 138 139
f 114 139 140
f 114 140 134
f 115 136 141
f 115 141 118
f 117 118 120
f 117 120 119
f 118 141 120
f 120 142 143
f 120 143 144
f 120 144 145
f 120 145 121
f 120 141 142
f 121 145 122
f 122 145 146
f 122 146 123
f 123 146 166
f 123 166 147
f 124 147 125
f 125 148 149
f 125 149 150
f 125 150 126
f 125 147 151
f 125 151 148
f 126 150 128
f 126 128 127
f 128 150 149
f 128 149 129
f 129 149 152
f 129 152 130
f 130 153 131
f 130 152 153
f 131 153 154
f 131 154 155
f 131 155 156
f 131 156 157
f 131 157 158
f 131 158 132
f 134 143 142
f 134 142 135
f 134 140 143
f 135 142 136
f 136 142 141
f 138 159 139
f 139 159 160
f 139 160 161
f 139 161 162
f 139 162 163
f 139 163 140
f 140 163 164
f 140 164 144
f 140 144 143
f 144 164 145
f 145 165 146
f 145 164 165
f 146 165 176
f 146 176 166
f 147 166 151
f 148 151 167
f 148 167 149
f 149 167 168
f 149 168 169
f 149 169 170
f 149 170 152
f 151 166 167
f 152 170 153
f 153 170 154
f 154 170 155
f 155 170 169
f 155 169 156
f 156 168 171
f 156 171 172
f 156 172 157
f 156 169 168
f 157 172 173
f 157 173 174
f 157 174 175
f 157 175 158
f 160 175 161
f 161 175 174
f 161 174 162
f 162 165 164
f 162 164 163
f 162 174 173
f 162 173 176
f 162 176 165
f 166 176 167
f 167 176 171
f 167 171 168
f 171 176 173
f 171 173 172

