# https://github.com/mikedh/trimesh
v -1.04249779 2.47680193 0.46287281
v -1.04249779 2.48216257 1.04924350
v -1.04249779 2.60228658 0.46287281
v -0.90865898 2.49426724 0.46287281
v -1.04249779 2.48392054 1.10416897
v 0.00044469 2.65445179 1.04924350
v -1.04249779 2.60228658 1.04924350
v -0.92356400 2.62211516 0.46287281
v -0.57931946 2.54919910 0.46287281
v -0.82116860 2.52539344 1.13259349
v -1.04249779 2.50153002 1.16023435
v 0.00044469 2.65554702 1.07716929
v 0.00044469 2.65681506 1.10416897
v -0.25018410 2.60415991 0.46287281
v -0.22925584 2.60767602 0.46287281
v 0.00044469 2.64632435 0.46287281
v -1.04249779 2.60153728 1.10416897
v -0.46681724 2.69748090 1.10416897
v -0.35696933 2.71653122 1.04924350
v -0.35696933 2.71653122 0.46287281
v -0.85097857 2.52291480 1.13850633
v -0.16238745 2.63517091 1.13259349
v -1.04249779 2.51308700 1.17704678
v -0.90590248 2.51836123 1.14819488
v 0.00044469 2.67673005 1.16443745
v 0.00044469 2.77123266 0.46287281
v -1.04249779 2.59741587 1.12646690
v -0.82688556 2.63612197 1.13330589
v -0.16810445 2.74595704 1.13330589
v -0.08245170 2.76152006 1.10416897
v -0.08245170 2.76226952 1.04924350
v -0.08245170 2.76226952 0.46287281
v -0.19219748 2.63269227 1.13850633
v -1.02657190 2.52406764 1.18780394
v -1.04249779 2.52254007 1.18844507
v 0.00044469 2.69442593 1.18630791
v -0.03824709 2.68874832 1.18780394
v -0.36768868 2.63384511 1.18780394
v -0.02752774 2.77123266 0.46287281
v 0.00044469 2.77123266 1.04924350
v -1.04249779 2.58960557 1.15624492
v -0.79615676 2.63868701 1.14000235
v -0.46681724 2.69359006 1.14000235
v -0.13727354 2.74852191 1.14000235
v -0.02752774 2.77048320 1.10416897
v -0.02752774 2.77123266 1.04924350
v -0.74123276 2.57649222 1.18929996
v -0.79615676 2.57358142 1.19058228
v -0.85097857 2.57130455 1.19058228
v -1.04249779 2.53389545 1.18858756
v -0.08245170 2.68626969 1.18929996
v -0.41189329 2.63136647 1.18929996
v 0.00044469 2.71503261 1.18737651
v 0.00044469 2.77048320 1.10416897
v -1.04249779 2.56940241 1.18153486
v -0.99298458 2.58133412 1.18702031
v -0.74123276 2.64326938 1.15011837
v -0.41189329 2.69817260 1.15011837
v -0.08245170 2.75307565 1.15011837
v -0.02456715 2.75546772 1.16265644
v -0.13727354 2.68335888 1.19058228
v -0.19219748 2.68108201 1.19065350
v -0.85097857 2.58885626 1.19058228
v -1.04249779 2.54395382 1.18858756
v 0.00044469 2.74125930 1.18702031
v -0.13727354 2.70114117 1.19058228
v 0.00044469 2.75546772 1.16265644
v -1.04249779 2.56081384 1.18531054
v -0.96082648 2.58332266 1.18837385
v -0.33420345 2.69111159 1.18702031
v -0.00435348 2.74595704 1.18694905
v -0.19219748 2.69863373 1.19065350
v -0.90590248 2.58620466 1.18994110
v 0.00044469 2.74595704 1.18694905
v -0.30204537 2.69310013 1.18837385
v -0.24712144 2.69598213 1.18994110
f 1 2 5
f 1 5 11
f 1 11 23
f 1 23 35
f 1 35 50
f 1 50 64
f 1 64 68
f 1 68 55
f 1 55 41
f 1 41 27
f 1 27 17
f 1 17 7
f 1 7 3
f 1 3 8
f 1 8 20
f 1 20 32
f 1 32 39
f 1 39 26
f 1 26 16
f 1 16 15
f 1 15 14
f 1 14 9
f 1 9 4
f 1 4 2
f 2 4 6
f 2 6 5
f 3 7 8
f 4 9 6
f 5 10 11
f 5 6 12
f 5 12 13
f 5 13 10
f 6 14 15
f 6 15 16
f 6 16 26
f 6 26 40
f 6 40 54
f 6 54 67
f 6 67 74
f 6 74 65
f 6 65 53
f 6 53 36
f 6 36 25
f 6 25 13
f 6 13 12
f 6 9 14
f 7 17 18
f 7 18 19
f 7 19 8
f 8 19 20
f 10 21 11
f 10 13 22
f 10 22 33
f 10 33 21
f 11 21 24
f 11 24 25
f 11 25 23
f 13 25 22
f 17 27 28
f 17 28 29
f 17 29 18
f 18 29 30
f 18 30 31
f 18 31 19
f 19 31 32
f 19 32 20
f 21 33 25
f 21 25 24
f 22 25 33
f 23 34 35
f 23 25 34
f 25 36 37
f 25 37 38
f 25 38 34
f 26 39 46
f 26 46 40
f 27 41 28
f 28 41 42
f 28 42 29
f 29 43 44
f 29 44 45
f 29 45 30
f 29 42 43
f 30 45 46
f 30 46 31
f 31 46 39
f 31 39 32
f 34 38 35
f 35 47 48
f 35 48 49
f 35 49 50
f 35 38 37
f 35 37 51
f 35 51 52
f 35 52 47
f 36 53 37
f 37 53 51
f 40 46 45
f 40 45 54
f 41 55 56
f 41 56 57
f 41 57 42
f 42 57 58
f 42 58 43
f 43 58 44
f 44 59 45
f 44 58 59
f 45 59 60
f 45 60 67
f 45 67 54
f 47 52 61
f 47 61 48
f 48 61 62
f 48 62 49
f 49 63 64
f 49 64 50
f 49 62 72
f 49 72 63
f 51 53 61
f 51 61 52
f 53 65 66
f 53 66 61
f 55 68 56
f 56 68 64
f 56 64 69
f 56 69 75
f 56 75 70
f 56 70 59
f 56 59 58
f 56 58 57
f 59 71 60
f 59 70 71
f 60 71 74
f 60 74 67
f 61 66 72
f 61 72 62
f 63 73 64
f 63 72 73
f 64 73 69
f 65 74 66
f 66 74 71
f 66 71 72
f 69 73 76
f 69 76 75
f 70 75 71
f 71 75 76
f 71 76 72
f 72 76 73

