# https://github.com/mikedh/trimesh
v -2.60514747 1.02521231 0.35469029
v -2.60514747 1.02521231 0.40762334
v -2.59752846 1.07076129 0.35469029
v -2.09300699 1.02521231 0.35469029
v -2.43475138 1.02521231 0.40762334
v -2.59752846 1.07076129 0.40762334
v -2.59379831 1.08488944 0.35469029
v -2.02610252 1.12569134 0.35469029
v -1.79435765 1.98524490 0.40762334
v -2.58681422 1.11111114 0.40762334
v -2.58681422 1.11111114 0.35469029
v -1.91816664 1.29036842 0.35469029
v -1.79435765 2.17976050 0.40762334
v -1.81038933 1.45515850 0.35469029
v -1.79435765 1.48126737 0.35469029
v -2.57260793 1.13857616 0.40762334
v -2.57760791 1.12896910 0.35469029
v -1.79435765 2.17976050 0.35469029
v -1.80546872 2.17320514 0.35469029
v -1.80388142 2.17410924 0.40762334
v -2.57260793 1.13857616 0.35469029
v -2.54816359 1.18062139 0.40762334
v -1.83523049 2.15534709 0.35469029
v -1.90745240 2.11205862 0.40762334
v -1.85411930 2.14404474 0.40762334
v -2.54816359 1.18062139 0.35469029
v -2.44149755 1.35840936 0.40762334
v -1.90888097 2.11115435 0.35469029
v -1.96340438 2.07837721 0.35469029
v -1.96340438 2.07837721 0.40762334
v -2.11213389 1.90737075 0.40762334
v -2.07856261 1.96331798 0.35469029
v -1.97769003 2.06967425 0.35469029
v -2.00419785 2.05351183 0.40762334
v -2.07856261 1.96331798 0.40762334
v -2.05364208 2.00411996 0.35469029
v -2.00419785 2.05351183 0.35469029
v -2.01364225 2.04740843 0.40762334
v -2.05364208 2.00411996 0.40762334
v -2.03419772 2.03407156 0.35469029
v -2.01467400 2.04673031 0.35469029
v -2.03419772 2.03407156 0.40762334
f 1 2 6
f 1 6 3
f 1 3 7
f 1 7 11
f 1 11 17
f 1 17 21
f 1 21 26
f 1 26 32
f 1 32 36
f 1 36 40
f 1 40 41
f 1 41 37
f 1 37 33
f 1 33 29
f 1 29 28
f 1 28 23
f 1 23 19
f 1 19 18
f 1 18 15
f 1 15 14
f 1 14 12
f 1 12 8
f 1 8 4
f 1 4 5
f 1 5 2
f 2 5 9
f 2 9 13
f 2 13 20
f 2 20 25
f 2 25 24
f 2 24 30
f 2 30 34
f 2 34 38
f 2 38 42
f 2 42 39
f 2 39 35
f 2 35 31
f 2 31 27
f 2 27 22
f 2 22 16
f 2 16 10
f 2 10 6
f 3 6 7
f 4 8 9
f 4 9 5
f 6 10 7
f 7 10 11
f 8 12 9
f 9 12 14
f 9 14 15
f 9 15 18
f 9 18 13
f 10 16 17
f 10 17 11
f 13 18 19
f 13 19 20
f 16 21 17
f 16 22 26
f 16 26 21
f 19 23 24
f 19 24 25
f 19 25 20
f 22 27 26
f 23 28 24
f 24 28 29
f 24 29 30
f 26 27 31
f 26 31 32
f 29 33 30
f 30 33 34
f 31 35 32
f 32 35 39
f 32 39 36
f 33 37 34
f 34 37 38
f 36 39 42
f 36 42 40
f 37 41 38
f 38 41 40
f 38 40 42

