# https://github.com/mikedh/trimesh
v -2.59768735 -1.06997427 0.44534597
v -2.59752813 -1.07072627 0.38772541
v -2.59768735 -1.06997427 1.04926256
v -2.59760766 -1.06997427 0.38772541
v -2.58678574 -1.11108332 0.38772541
v -2.59752813 -1.07072627 1.04926256
v -2.59689158 -1.06997427 1.10413551
v -2.59681188 -1.07072627 1.10413551
v -2.35427472 -1.06997427 0.38772541
v -2.58678574 -1.11108332 1.04926256
v -2.57333809 -1.13723604 0.38772541
v -2.58638794 -1.11033132 1.10413551
v -2.58837729 -1.06997427 1.15029473
v -2.58423953 -1.10573585 1.14110998
v -2.58829777 -1.07072627 1.15013776
v -2.47522511 -1.06997427 1.10413551
v -2.34361203 -1.08025159 0.38772541
v -2.57262184 -1.13857289 1.04926256
v -2.57262184 -1.13857289 0.38772541
v -2.57222403 -1.13773735 1.10413551
v -2.58805902 -1.06997427 1.15068726
v -2.56601738 -1.07072627 1.17753496
v -2.52710641 -1.21034659 1.13514384
v -2.53498414 -1.17692463 1.15571137
v -2.52734516 -1.15620299 1.18758323
v -2.29777832 -1.14467244 0.38772541
v -2.49273100 -1.06997427 1.15657490
v -2.46885924 -1.09403815 1.13577184
v -1.97455455 -1.91847510 1.13577184
v -1.78485352 -1.92357195 0.38772541
v -2.54811352 -1.18060102 1.04926256
v -2.54723821 -1.18060102 1.10413551
v -2.54811352 -1.18060102 0.38772541
v -2.56609691 -1.06997427 1.17769197
v -2.10155236 -1.92357195 1.10413551
v -2.36239120 -1.48490833 1.13514384
v -2.42095665 -1.38113296 1.14275856
v -2.53339259 -1.12562187 1.18946728
v -2.36262995 -1.43076472 1.18758323
v -2.09080998 -1.87502642 1.18876077
v -2.42016087 -1.32598674 1.18876077
v -2.51986523 -1.06997427 1.18954579
v -2.14046334 -1.70031306 1.18711224
v -1.97216723 -1.92357195 1.13812693
v -2.10234798 -1.92357195 0.38772541
v -2.48477375 -1.28621454 1.04926256
v -2.48477375 -1.28621454 0.38772541
v -2.53872410 -1.06997427 1.18954579
v -2.53856488 -1.07072627 1.18962430
v -2.13895148 -1.86266042 1.04926256
v -2.10234798 -1.92357195 1.04926256
v -2.09343589 -1.92357195 1.14589862
v -2.19767599 -1.75930282 1.13514384
v -2.25624144 -1.65561107 1.14275856
v -2.36923440 -1.40018361 1.18946728
v -2.42851593 -1.29039231 1.18970280
v -2.19791474 -1.70515922 1.18758323
v -2.07752138 -1.91162355 1.17934051
v -2.04768171 -1.92357195 1.18931027
v -2.09908551 -1.83934846 1.18970280
v -2.20451919 -1.67466172 1.18946728
v -2.51978571 -1.07072627 1.18962430
v -2.02548086 -1.90819778 1.18938878
v -2.03733729 -1.87160081 1.18444317
v -1.99460683 -1.92357195 1.16819324
v -2.11873998 -1.89633299 0.38772541
v -2.13895148 -1.86266042 0.38772541
v -2.08659268 -1.92357195 1.15586839
v -2.40392808 -1.29039231 1.18970280
v -2.07433844 -1.92357195 1.17321735
v -2.03089189 -1.92357195 1.18938878
v -2.07449766 -1.83934846 1.18970280
v -2.23913334 -1.56487034 1.18970280
v -2.01887640 -1.92357195 1.18931027
f 1 2 6
f 1 6 3
f 1 3 7
f 1 7 13
f 1 13 21
f 1 21 34
f 1 34 48
f 1 48 42
f 1 42 27
f 1 27 16
f 1 16 9
f 1 9 4
f 1 4 2
f 2 5 10
f 2 10 6
f 2 4 9
f 2 9 17
f 2 17 26
f 2 26 30
f 2 30 45
f 2 45 66
f 2 66 67
f 2 67 47
f 2 47 33
f 2 33 19
f 2 19 11
f 2 11 5
f 3 6 8
f 3 8 7
f 5 11 10
f 6 10 12
f 6 12 8
f 7 8 13
f 8 12 14
f 8 14 15
f 8 15 13
f 9 16 17
f 10 11 18
f 10 18 12
f 11 19 18
f 12 18 20
f 12 20 14
f 13 15 21
f 14 22 15
f 14 20 23
f 14 23 24
f 14 24 25
f 14 25 22
f 15 22 21
f 16 26 17
f 16 27 28
f 16 28 29
f 16 29 30
f 16 30 26
f 18 19 33
f 18 33 31
f 18 31 32
f 18 32 20
f 20 32 23
f 21 22 34
f 22 25 34
f 23 32 35
f 23 35 36
f 23 36 37
f 23 37 24
f 24 37 25
f 25 38 34
f 25 37 39
f 25 39 40
f 25 40 41
f 25 41 38
f 27 42 43
f 27 43 44
f 27 44 28
f 28 44 29
f 29 44 30
f 30 44 65
f 30 65 74
f 30 74 71
f 30 71 59
f 30 59 70
f 30 70 68
f 30 68 52
f 30 52 35
f 30 35 51
f 30 51 45
f 31 33 47
f 31 47 46
f 31 46 32
f 32 46 35
f 34 38 49
f 34 49 48
f 35 50 51
f 35 52 53
f 35 53 36
f 35 46 50
f 36 53 54
f 36 54 37
f 37 54 39
f 38 41 55
f 38 55 56
f 38 56 49
f 39 54 52
f 39 52 57
f 39 57 40
f 40 57 58
f 40 58 59
f 40 59 60
f 40 60 61
f 40 61 55
f 40 55 41
f 42 48 49
f 42 49 62
f 42 62 63
f 42 63 43
f 43 63 64
f 43 64 44
f 44 64 65
f 45 51 66
f 46 47 67
f 46 67 50
f 49 56 69
f 49 69 62
f 50 67 66
f 50 66 51
f 52 68 57
f 52 54 53
f 55 61 60
f 55 60 56
f 56 60 72
f 56 72 73
f 56 73 69
f 57 68 58
f 58 68 70
f 58 70 59
f 59 71 60
f 60 71 72
f 62 69 73
f 62 73 72
f 62 72 63
f 63 72 71
f 63 71 74
f 63 74 65
f 63 65 64

