# https://github.com/mikedh/trimesh
v 2.29951354 -1.05404961 0.37781329
v 2.60032373 -1.05404961 0.37781329
v 2.46889818 -1.05404961 0.45706080
v 2.49240340 -0.90923269 0.45718510
v 2.60494161 -0.23510625 0.45718510
v 2.64511735 0.00044060 0.45718510
v 2.50334788 0.00044060 0.37781329
v 2.68847946 -0.52525620 0.45718510
v 2.60032373 -1.05404961 0.45718510
v 2.72777793 -0.28950292 0.37781329
v 2.55899352 -1.05404961 0.45718510
v 2.47933473 -1.01957430 0.45718510
v 2.77118619 0.00044060 0.45718510
v 2.77118619 0.00044060 0.37781329
v 2.75313030 -0.13735741 0.45718510
v 2.75313030 -0.13735741 0.37781329
v 2.77118619 -0.02753187 0.45718510
v 2.77118619 -0.02753187 0.37781329
v 2.76227378 -0.08244462 0.45718510
v 2.76227378 -0.08244462 0.37781329
v 2.76929289 -0.03940210 0.45718510
f 1 2 9
f 1 9 11
f 1 11 3
f 1 3 4
f 1 4 5
f 1 5 6
f 1 6 7
f 1 7 14
f 1 14 18
f 1 18 20
f 1 20 16
f 1 16 10
f 1 10 2
f 2 8 9
f 2 10 8
f 3 11 12
f 3 12 4
f 4 12 11
f 4 11 9
f 4 9 8
f 4 8 15
f 4 15 19
f 4 19 21
f 4 21 17
f 4 17 13
f 4 13 6
f 4 6 5
f 6 13 14
f 6 14 7
f 8 10 15
f 10 16 15
f 13 17 18
f 13 18 14
f 15 16 20
f 15 20 19
f 17 21 18
f 18 21 20
f 19 20 21

