# https://github.com/mikedh/trimesh
v 2.06543994 1.06293159 0.35468456
v 2.44804358 1.06293159 0.43600597
v 2.59886031 1.06293159 0.35468456
v 2.33391186 0.00064862 0.35468456
v 2.63209123 0.00044064 0.43600597
v 2.59886031 1.06293159 0.43600597
v 2.75209513 0.14354827 0.43600597
v 2.72888200 0.28280777 0.35468456
v 2.35836863 0.00044064 0.35468456
v 2.35809225 0.00044064 0.35731939
v 2.77123234 0.00044064 0.43600597
v 2.76073099 0.09165093 0.43600597
v 2.75313161 0.13730807 0.35468456
v 2.77123234 0.00044064 0.35468456
v 2.77123234 0.02748131 0.43600597
v 2.76225087 0.08239471 0.35468456
v 2.76225087 0.08239471 0.43600597
v 2.77123234 0.02748131 0.35468456
f 1 2 6
f 1 6 3
f 1 3 8
f 1 8 13
f 1 13 16
f 1 16 18
f 1 18 14
f 1 14 9
f 1 9 4
f 1 4 5
f 1 5 2
f 2 5 11
f 2 11 15
f 2 15 17
f 2 17 12
f 2 12 7
f 2 7 6
f 3 7 8
f 3 6 7
f 4 9 10
f 4 10 5
f 5 10 9
f 5 9 14
f 5 14 11
f 7 12 13
f 7 13 8
f 11 14 18
f 11 18 15
f 12 16 13
f 12 17 16
f 15 18 16
f 15 16 17

