# https://github.com/mikedh/trimesh
v -1.79435765 2.03616499 0.46287283
v -1.79435765 2.17990712 0.46287283
v -1.78449564 2.04070890 0.46287283
v -1.79435765 2.04336885 1.04926011
v -1.79435765 2.17990712 1.04926011
v -1.79318011 2.18062746 0.46287283
v -1.73422945 2.06525699 0.46287283
v -1.79435765 2.04480952 1.08511783
v -1.04257134 2.48213098 1.04926011
v -1.04257134 2.48390417 1.10411382
v -1.79435765 2.17902037 1.10411382
v -1.18056444 2.54729696 1.10411382
v -1.41430628 2.40793265 1.04926011
v -1.41430628 2.40793265 0.46287283
v -1.04257134 2.47675578 0.46287283
v -1.79435765 2.04558533 1.10411382
v -1.04257134 2.50152560 1.16024826
v -1.64400042 2.13951080 1.13577393
v -1.79435765 2.17757969 1.11065929
v -1.75932573 2.19775012 1.13513361
v -1.21037089 2.52712654 1.13513361
v -1.13773138 2.57217740 1.10411382
v -1.13854098 2.57262086 1.04926011
v -1.18056444 2.54812808 1.04926011
v -1.21294681 2.52873347 1.04926011
v -1.21294681 2.52873347 0.46287283
v -1.04257134 2.60221147 0.46287283
v -1.74769757 2.08093897 1.14260396
v -1.79435765 2.06015899 1.14381346
v -1.04257134 2.51305149 1.17703873
v -1.79435765 2.16295056 1.15683320
v -1.72591301 2.20561884 1.15569485
v -1.65562858 2.25632195 1.14274629
v -1.38118794 2.42095468 1.14274629
v -1.17688462 2.53499510 1.15569485
v -1.10571695 2.58425753 1.14110990
v -1.11027993 2.58641870 1.10411382
v -1.11108954 2.58680653 1.04926011
v -1.13854098 2.57262086 0.46287283
v -1.15200909 2.56480744 0.46287283
v -1.18056444 2.54812808 0.46287283
v -1.19094151 2.54192192 0.46287283
v -1.07075875 2.59755677 0.46287283
v -1.04257134 2.60221147 1.04926011
v -1.78589410 2.07118627 1.16017707
v -1.79435765 2.06675314 1.16067511
v -1.04257134 2.52252714 1.18842216
v -1.70037508 2.14045287 1.18714153
v -1.79435765 2.15297613 1.17106248
v -1.70515889 2.19802716 1.18756838
v -1.15620405 2.52740358 1.18756838
v -1.07075875 2.56602655 1.17753676
v -1.07075875 2.58835815 1.15007435
v -1.04257134 2.59739051 1.12652491
v -1.04257134 2.60149113 1.10411382
v -1.07075875 2.59678096 1.10411382
v -1.07075875 2.59755677 1.04926011
v -1.11108954 2.58680653 0.46287283
v -1.04257134 2.60187895 1.07593991
v -1.79435765 2.08703434 1.18571861
v -1.04257134 2.53388694 1.18856445
v -1.07075875 2.51981189 1.18963162
v -1.63369692 2.19021390 1.18934705
v -1.72959292 2.13441280 1.18906248
v -1.79435765 2.14006488 1.18628774
v -1.77088042 2.14787813 1.18920477
v -1.60050495 2.25549066 1.18877783
v -1.32599075 2.42017887 1.18877783
v -1.12566156 2.53338817 1.18941815
v -1.04257134 2.56935136 1.18152095
v -1.04257134 2.58957726 1.15626406
v -1.79435765 2.10393543 1.18870673
v -1.04257134 2.54391668 1.18856445
v -1.07075875 2.53859711 1.18963162
v -1.29037014 2.40388750 1.18970280
v -1.56481078 2.23925460 1.18970280
v -1.79435765 2.11097304 1.18892020
v -1.79435765 2.11396534 1.18892020
v -1.67469003 2.20456599 1.18941815
v -1.56481078 2.26385816 1.18970280
v -1.40017575 2.36925420 1.18941815
v -1.04257134 2.56076229 1.18529168
v -1.29037014 2.42849090 1.18970280
f 1 2 6
f 1 6 14
f 1 14 26
f 1 26 42
f 1 42 41
f 1 41 40
f 1 40 39
f 1 39 58
f 1 58 43
f 1 43 27
f 1 27 15
f 1 15 7
f 1 7 3
f 1 3 4
f 1 4 8
f 1 8 16
f 1 16 29
f 1 29 46
f 1 46 60
f 1 60 72
f 1 72 77
f 1 77 78
f 1 78 65
f 1 65 49
f 1 49 31
f 1 31 19
f 1 19 11
f 1 11 5
f 1 5 2
f 2 5 6
f 3 7 4
f 4 7 9
f 4 9 10
f 4 10 8
f 5 11 12
f 5 12 13
f 5 13 6
f 6 13 14
f 7 15 9
f 8 10 16
f 9 15 27
f 9 27 44
f 9 44 59
f 9 59 55
f 9 55 54
f 9 54 71
f 9 71 70
f 9 70 82
f 9 82 73
f 9 73 61
f 9 61 47
f 9 47 30
f 9 30 17
f 9 17 10
f 10 17 18
f 10 18 16
f 11 19 20
f 11 20 21
f 11 21 12
f 12 21 22
f 12 22 23
f 12 23 24
f 12 24 25
f 12 25 13
f 13 25 26
f 13 26 14
f 16 18 28
f 16 28 29
f 17 30 28
f 17 28 18
f 19 31 20
f 20 31 32
f 20 32 33
f 20 33 21
f 21 34 35
f 21 35 36
f 21 36 22
f 21 33 34
f 22 36 37
f 22 37 23
f 23 37 38
f 23 38 58
f 23 58 39
f 23 39 40
f 23 40 24
f 24 40 41
f 24 41 42
f 24 42 25
f 25 42 26
f 27 43 57
f 27 57 44
f 28 45 46
f 28 46 29
f 28 30 45
f 30 47 48
f 30 48 45
f 31 49 50
f 31 50 32
f 32 50 33
f 33 50 51
f 33 51 34
f 34 51 35
f 35 51 36
f 36 51 52
f 36 52 53
f 36 53 54
f 36 54 55
f 36 55 56
f 36 56 37
f 37 56 57
f 37 57 38
f 38 57 43
f 38 43 58
f 44 57 59
f 45 48 46
f 46 48 60
f 47 61 62
f 47 62 63
f 47 63 48
f 48 63 64
f 48 64 60
f 49 65 50
f 50 65 66
f 50 66 67
f 50 67 51
f 51 68 69
f 51 69 70
f 51 70 52
f 51 67 68
f 52 70 53
f 53 70 71
f 53 71 54
f 55 59 57
f 55 57 56
f 60 64 72
f 61 73 74
f 61 74 62
f 62 74 83
f 62 83 75
f 62 75 76
f 62 76 63
f 63 76 64
f 64 66 77
f 64 77 72
f 64 76 66
f 65 78 66
f 66 79 67
f 66 78 77
f 66 76 80
f 66 80 79
f 67 79 81
f 67 81 68
f 68 81 69
f 69 74 82
f 69 82 70
f 69 81 83
f 69 83 74
f 73 82 74
f 75 83 80
f 75 80 76
f 79 80 81
f 80 83 81

