# https://github.com/mikedh/trimesh
v 0.10466640 -0.02128435 0.04045447
v 0.10444185 -0.02128435 0.04853255
v 0.10887468 -0.03974211 0.05067383
v 0.10887468 -0.03974211 0.04909858
v 0.10887468 -0.04198303 0.04839213
v 0.10887468 -0.04452009 0.04839104
v 0.10466640 -0.05469925 0.04045447
v 0.02391076 -0.02128435 0.04045447
v 0.10439195 -0.02128435 0.04977541
v 0.10887468 -0.04198303 0.05154372
v 0.10438364 -0.02128435 0.04997177
v 0.10887468 -0.05544181 0.04839104
v 0.10459987 -0.05659984 0.04045447
v 0.10887468 -0.05724515 0.04839213
v 0.02391076 -0.06139991 0.04045447
v 0.02391076 -0.02128435 0.05145597
v 0.10887468 -0.04378195 0.05154482
v 0.10303633 -0.02128435 0.05085812
v 0.10084070 -0.02128435 0.05151630
v 0.10049140 -0.02128435 0.05161942
v 0.10303633 -0.04452009 0.05166000
v 0.10455829 -0.05708161 0.04045447
v 0.10887468 -0.05798771 0.04852158
v 0.02391076 -0.06383531 0.04882215
v 0.09794647 -0.06154135 0.04045447
v 0.08523016 -0.06643425 0.04839433
v 0.02391076 -0.04198303 0.05166000
v 0.08523016 -0.02128435 0.05166000
v 0.10887468 -0.05724515 0.05154482
v 0.10303633 -0.04706598 0.05166110
v 0.09829578 -0.02128435 0.05165452
v 0.09794647 -0.02128435 0.05166000
v 0.10887468 -0.05978663 0.04883970
v 0.10429215 -0.05830594 0.04045447
v 0.02391076 -0.06383531 0.04967668
v 0.08287652 -0.06643425 0.04909968
v 0.10049140 -0.06142644 0.04045447
v 0.10049140 -0.06643425 0.04839542
v 0.09950171 -0.06643425 0.04839433
v 0.02391076 -0.04706598 0.05166110
v 0.09032001 -0.04198303 0.05166110
v 0.10887468 -0.05978663 0.05102596
v 0.10303633 -0.05469925 0.05166110
v 0.10303633 -0.05724515 0.05164574
v 0.10049140 -0.06643425 0.05154372
v 0.10049140 -0.04452009 0.05166110
v 0.09794647 -0.04198303 0.05166110
v 0.10887468 -0.06021095 0.04904483
v 0.10322761 -0.05978663 0.04045447
v 0.10887468 -0.06124522 0.04954505
v 0.08287652 -0.06643425 0.05067383
v 0.08523016 -0.06643425 0.05154372
v 0.02391076 -0.06368946 0.05070016
v 0.10159753 -0.06128057 0.04045447
v 0.10204664 -0.06643425 0.04875084
v 0.02391076 -0.05496003 0.05166110
v 0.10887468 -0.06082090 0.05041056
v 0.10303633 -0.06643425 0.05084166
v 0.10356860 -0.06643425 0.05050380
v 0.10439195 -0.06643425 0.04997177
v 0.09794647 -0.05724515 0.05166110
v 0.09794647 -0.05978663 0.05166000
v 0.10049140 -0.05978663 0.05164574
v 0.09794647 -0.06643425 0.05154482
v 0.10198842 -0.06117008 0.04045447
v 0.10439195 -0.06643425 0.04968327
v 0.10887468 -0.06124522 0.05015606
v 0.08621986 -0.06643425 0.05154482
v 0.02391076 -0.05750151 0.05164574
v 0.02391076 -0.06004741 0.05145706
v 0.10303633 -0.06643425 0.04897901
v 0.08777509 -0.05978663 0.05166000
v 0.08777509 -0.05724515 0.05166110
f 1 2 3
f 1 3 4
f 1 4 5
f 1 5 6
f 1 6 12
f 1 12 7
f 1 7 13
f 1 13 22
f 1 22 34
f 1 34 49
f 1 49 65
f 1 65 54
f 1 54 37
f 1 37 25
f 1 25 15
f 1 15 8
f 1 8 16
f 1 16 28
f 1 28 32
f 1 32 31
f 1 31 20
f 1 20 19
f 1 19 18
f 1 18 11
f 1 11 9
f 1 9 2
f 2 9 3
f 3 10 17
f 3 17 29
f 3 29 42
f 3 42 57
f 3 57 67
f 3 67 50
f 3 50 48
f 3 48 33
f 3 33 23
f 3 23 14
f 3 14 12
f 3 12 6
f 3 6 5
f 3 5 4
f 3 9 11
f 3 11 10
f 7 12 14
f 7 14 13
f 8 15 24
f 8 24 35
f 8 35 53
f 8 53 70
f 8 70 69
f 8 69 56
f 8 56 40
f 8 40 27
f 8 27 16
f 10 11 18
f 10 18 19
f 10 19 20
f 10 20 21
f 10 21 17
f 13 14 22
f 14 23 22
f 15 25 26
f 15 26 24
f 16 27 28
f 17 21 30
f 17 30 43
f 17 43 29
f 20 31 21
f 21 31 32
f 21 32 30
f 22 23 33
f 22 33 34
f 24 26 36
f 24 36 51
f 24 51 35
f 25 37 38
f 25 38 39
f 25 39 26
f 26 39 38
f 26 38 55
f 26 55 71
f 26 71 66
f 26 66 60
f 26 60 59
f 26 59 58
f 26 58 45
f 26 45 64
f 26 64 68
f 26 68 52
f 26 52 51
f 26 51 36
f 27 40 28
f 28 41 47
f 28 47 32
f 28 40 41
f 29 43 44
f 29 44 45
f 29 45 42
f 30 32 46
f 30 46 47
f 30 47 41
f 30 41 40
f 30 40 56
f 30 56 73
f 30 73 61
f 30 61 43
f 32 47 46
f 33 48 34
f 34 48 50
f 34 50 49
f 35 51 52
f 35 52 53
f 37 54 38
f 38 54 55
f 42 45 58
f 42 58 59
f 42 59 60
f 42 60 57
f 43 61 62
f 43 62 63
f 43 63 44
f 44 63 45
f 45 63 62
f 45 62 64
f 49 50 66
f 49 66 65
f 50 67 60
f 50 60 66
f 52 68 69
f 52 69 70
f 52 70 53
f 54 65 71
f 54 71 55
f 56 69 72
f 56 72 73
f 57 60 67
f 61 73 72
f 61 72 62
f 62 72 68
f 62 68 64
f 65 66 71
f 68 72 69

