# https://github.com/mikedh/trimesh
v -0.09162963 0.06995764 0.06001244
v -0.09162963 0.07250550 0.06001244
v -0.09162266 -0.02127993 0.06001244
v -0.09145526 -0.02127993 0.06010549
v -0.09031837 -0.02127993 0.06072670
v -0.09031837 0.07250550 0.06072670
v -0.09031837 0.07505336 0.06071849
v -0.09160871 0.07508645 0.06001244
v -0.02047973 -0.02127993 0.06001244
v -0.08675425 -0.02127993 0.06266423
v -0.08675425 0.07250550 0.06266423
v -0.08801668 0.07505336 0.06196913
v -0.09031837 0.07759019 0.06069660
v -0.09157383 0.07767842 0.06001244
v -0.02103772 -0.02127993 0.07906206
v -0.02037511 0.04197532 0.06001244
v -0.08296693 -0.02127993 0.06472217
v -0.07698256 0.07250550 0.06797327
v -0.07824499 0.07505336 0.06727817
v -0.09056946 0.08013804 0.06053787
v -0.09151803 0.08107557 0.06001244
v -0.02112141 -0.02127993 0.08125957
v -0.02103772 0.07250550 0.07906206
v -0.02037511 0.05724041 0.06001244
v -0.07698256 -0.02127993 0.06797327
v -0.07505054 0.07250550 0.06893930
v -0.07505054 0.07505336 0.06892835
v -0.07696861 0.07505336 0.06796780
v -0.07695466 0.07759019 0.06795685
v -0.07822407 0.07759019 0.06726722
v -0.08797484 0.08013804 0.06194723
v -0.08667753 0.08268590 0.06262318
v -0.09029047 0.08268590 0.06066102
v -0.09148316 0.08268590 0.06001244
v -0.02113536 -0.02127993 0.08160712
v -0.02113536 0.07250550 0.08160712
v -0.02104469 0.07505336 0.07906206
v -0.02049368 0.07505336 0.06001244
v -0.07505054 -0.02127993 0.06893930
v -0.07309063 0.07250550 0.06985333
v -0.07308365 0.07505336 0.06985060
v -0.07505054 0.07759019 0.06890646
v -0.07505054 0.08013804 0.06888183
v -0.07689886 0.08268590 0.06792949
v -0.07820315 0.08013804 0.06725354
v -0.08014214 0.08268590 0.06616984
v -0.09130182 0.08522273 0.06001244
v -0.02142133 -0.02127993 0.08415218
v -0.02114234 0.07505336 0.08160712
v -0.02142133 0.07250550 0.08415218
v -0.02110049 0.08013804 0.07906206
v -0.02052158 0.07650928 0.06001244
v -0.02113536 0.08268590 0.07906206
v -0.07309063 -0.02127993 0.06985333
v -0.07182121 0.07250550 0.07042255
v -0.07292323 -0.02127993 0.06992996
v -0.06996591 0.07250550 0.07125175
v -0.06642969 0.07250550 0.07283078
v -0.06102422 0.07505336 0.07523079
v -0.07178634 0.07759019 0.07040613
v -0.07302785 0.08013804 0.06982597
v -0.07505054 0.08268590 0.06884899
v -0.07680121 0.08522273 0.06787475
v -0.08785626 0.08522273 0.06188155
v -0.07817525 0.08268590 0.06723712
v -0.08650316 0.08650217 0.06252740
v -0.09117627 0.08569700 0.06001244
v -0.02216066 -0.02127993 0.08601582
v -0.02143528 0.07505336 0.08415218
v -0.02119814 0.08013804 0.08160712
v -0.02228621 0.07505336 0.08630043
v -0.02227923 0.07250550 0.08631137
v -0.02054250 0.07759019 0.06001244
v -0.02123301 0.08268590 0.08160712
v -0.02107957 0.08268590 0.07651700
v -0.02126091 0.08522273 0.07906206
v -0.07182121 -0.02127993 0.07042255
v -0.06996591 -0.02127993 0.07125175
v -0.05976179 0.07250550 0.07580275
v -0.06642969 -0.02127993 0.07283078
v -0.05974784 0.07505336 0.07579727
v -0.06099632 0.07759019 0.07521711
v -0.07175844 0.08013804 0.07039245
v -0.07172356 0.08268590 0.07037603
v -0.07299298 0.08268590 0.06980681
v -0.07505054 0.08522273 0.06873953
v -0.07658500 0.08711983 0.06775982
v -0.08154407 0.08682203 0.06514361
v -0.08986501 0.08777058 0.06042841
v -0.09061828 0.08777058 0.06001244
v -0.02227923 -0.02127993 0.08631137
v -0.02149108 0.08013804 0.08415218
v -0.02231411 0.08013804 0.08624843
v -0.02230015 0.07759019 0.08627853
v -0.02416940 0.07250550 0.08758117
v -0.02417637 0.07759019 0.08752917
v -0.02391133 -0.02127993 0.08740876
v -0.02064713 0.08006084 0.06001244
v -0.02153293 0.08268590 0.08415218
v -0.02135856 0.08522273 0.08160712
v -0.02120511 0.08522273 0.07651700
v -0.02163755 0.08777058 0.07651700
v -0.02170032 0.08777058 0.07906206
v -0.05724388 0.07250550 0.07687003
v -0.05724388 0.07505336 0.07685908
v -0.05976179 -0.02127993 0.07580275
v -0.05942002 -0.02127993 0.07594779
v -0.05724388 0.07759019 0.07683445
v -0.05971994 0.07759019 0.07578359
v -0.06096145 0.08013804 0.07520343
v -0.06487431 0.08013804 0.07346020
v -0.06996591 0.08013804 0.07119154
v -0.06487431 0.08268590 0.07342736
v -0.06624834 0.08453888 0.07275141
v -0.07286743 0.08522273 0.06975208
v -0.07140272 0.08683306 0.07023646
v -0.07523886 0.08789192 0.06823873
v -0.07620835 0.08881840 0.06755183
v -0.08614744 0.08820074 0.06232215
v -0.09006727 0.08871914 0.06001244
v -0.02233503 0.08268590 0.08621559
v -0.02417637 0.08013804 0.08748538
v -0.02442747 0.07483276 0.08764684
v -0.02544579 0.07384009 0.08796703
v -0.02543881 0.07250550 0.08796977
v -0.02416940 -0.02127993 0.08758117
v -0.02078663 0.08268590 0.06001244
v -0.02167242 0.08522273 0.08415218
v -0.02241175 0.08522273 0.08609792
v -0.02181192 0.08777058 0.08160712
v -0.02116326 0.08522273 0.07397742
v -0.02159570 0.08777058 0.07397742
v -0.02243268 0.08955739 0.07651700
v -0.02246755 0.08952430 0.07906206
v -0.02253032 0.08944709 0.08160712
v -0.05545136 0.07250550 0.07758702
v -0.05724388 -0.02127993 0.07687003
v -0.05699977 -0.02127993 0.07696855
v -0.05543741 0.07505336 0.07758155
v -0.05536766 0.08013804 0.07755418
v -0.05724388 0.08013804 0.07680435
v -0.05968506 0.08013804 0.07576991
v -0.05965019 0.08268590 0.07575349
v -0.05951767 0.08522273 0.07569328
v -0.07159801 0.08522273 0.07032129
v -0.06610187 0.08623746 0.07268300
v -0.05903641 0.08777058 0.07547709
v -0.07004263 0.08771543 0.07062506
v -0.07235827 0.08771543 0.06959335
v -0.08941862 0.08928165 0.06018485
v -0.07094238 0.08853163 0.07001753
v -0.05861792 0.08909414 0.07529100
v -0.06924751 0.08932577 0.07040613
v -0.07451348 0.08942504 0.06796233
v -0.07948651 0.08941401 0.06540632
v -0.08953022 0.08936989 0.06001244
v -0.02417637 0.08268590 0.08742791
v -0.02545276 0.07384009 0.08796703
v -0.02671520 0.08268590 0.08761127
v -0.02545276 0.07250550 0.08796977
v -0.02545276 -0.02127993 0.08796703
v -0.02543881 -0.01907399 0.08796703
v -0.02527142 -0.02127993 0.08791503
v -0.02094704 0.08522273 0.06001244
v -0.02100284 0.08522273 0.06379993
v -0.02107957 0.08522273 0.06888730
v -0.02232108 0.08801323 0.08438205
v -0.02261402 0.08731836 0.08580783
v -0.02417637 0.08522273 0.08723361
v -0.02267679 0.08928165 0.08368969
v -0.02147015 0.08777058 0.06634498
v -0.02241175 0.08957945 0.07397742
v -0.02417637 0.09056109 0.07651700
v -0.02417637 0.09051697 0.07906206
v -0.02137948 0.08777058 0.06001244
v -0.02417637 0.09038462 0.08160712
v -0.05418195 0.07250550 0.07808235
v -0.05545136 -0.02127993 0.07758702
v -0.05416800 0.07505336 0.07807688
v -0.05413313 0.07759019 0.07806320
v -0.04834404 0.07623354 0.08033459
v -0.04832312 0.07759019 0.08032638
v -0.04828127 0.08013804 0.08030996
v -0.05404943 0.08268590 0.07803036
v -0.05531884 0.08268590 0.07753503
v -0.05724388 0.08268590 0.07676877
v -0.05724388 0.08522273 0.07664562
v -0.05364489 0.08683306 0.07787163
v -0.05724388 0.08777058 0.07621598
v -0.08777257 0.08965666 0.06061723
v -0.05305901 0.08852061 0.07763081
v -0.04575640 0.08898385 0.08031270
v -0.05135716 0.08924857 0.07797289
v -0.05724388 0.08938092 0.07556740
v -0.06232851 0.08954636 0.07319475
v -0.06392574 0.08921548 0.07284720
v -0.06742011 0.08966770 0.07079747
v -0.07250474 0.08977799 0.06840566
v -0.07759634 0.08977799 0.06590986
v -0.08268794 0.08972283 0.06326081
v -0.08777257 0.08999858 0.06001244
v -0.02671520 0.08522273 0.08746349
v -0.02671520 0.08013804 0.08765505
v -0.02671520 0.07759019 0.08769063
v -0.02646411 0.07483276 0.08776999
v -0.02672218 0.07250550 0.08773168
v -0.02926100 0.08268590 0.08698732
v -0.02654781 -0.02127993 0.08776452
v -0.02292789 0.08901694 0.08538639
v -0.02393226 0.08801323 0.08632779
v -0.02671520 0.08777058 0.08690796
v -0.02393226 0.08975592 0.08438205
v -0.02234898 0.08963461 0.06634498
v -0.02231411 0.08966770 0.06125487
v -0.02417637 0.09058315 0.07397742
v -0.02671520 0.09117876 0.07651700
v -0.02671520 0.09113464 0.07906206
v -0.02230713 0.08966770 0.06001244
v -0.02671520 0.09099126 0.08160712
v -0.04837194 0.07250550 0.08034554
v -0.05418195 -0.02127993 0.07808235
v -0.04732572 0.07525189 0.08073961
v -0.04452883 0.07505336 0.08182879
v -0.04452883 0.07759019 0.08180142
v -0.04452883 0.08013804 0.08176858
v -0.04452883 0.08268590 0.08173027
v -0.05388901 0.08522273 0.07796742
v -0.05515842 0.08522273 0.07747208
v -0.04635623 0.08728527 0.08055079
v -0.04475203 0.08799118 0.08097770
v -0.05218716 0.08771543 0.07819455
v -0.05457951 0.08771543 0.07726684
v -0.04452883 0.08522273 0.08159344
v -0.04070664 0.08648011 0.08287691
v -0.08526862 0.08999858 0.06138623
v -0.03831429 0.08910518 0.08292891
v -0.04405455 0.08935886 0.08064383
v -0.04198303 0.08777058 0.08205045
v -0.04961346 0.08955739 0.07830128
v -0.05470506 0.08977799 0.07604904
v -0.05959439 0.08975592 0.07402668
v -0.05724388 0.09039565 0.07397742
v -0.06232851 0.09059418 0.07143236
v -0.06742011 0.09074860 0.06888730
v -0.07250474 0.09088096 0.06634498
v -0.07523886 0.09007579 0.06655844
v -0.07759634 0.09088096 0.06379993
v -0.08268794 0.09081478 0.06125487
v -0.08524769 0.09058315 0.06001244
v -0.02926100 0.08522273 0.08683954
v -0.02926100 0.08777058 0.08632232
v -0.02926100 0.08013804 0.08702837
v -0.02926100 0.07759019 0.08706394
v -0.02926100 0.07505336 0.08709405
v -0.02926100 0.07250550 0.08710773
v -0.02891924 -0.02127993 0.08719256
v -0.02672218 -0.02127993 0.08773168
v -0.03180680 0.08268590 0.08620738
v -0.02462276 0.08939195 0.08582699
v -0.02671520 0.08952430 0.08595014
v -0.02926100 0.08929268 0.08567648
v -0.03067689 0.08909414 0.08546576
v -0.02671520 0.09045080 0.08415218
v -0.02325570 0.09019712 0.06001244
v -0.02417637 0.09064933 0.06634498
v -0.02417637 0.09067139 0.06379993
v -0.02417637 0.09069345 0.06001244
v -0.02547369 0.09095817 0.06001244
v -0.02671520 0.09118979 0.06888730
v -0.02926100 0.09132214 0.07397742
v -0.02926100 0.09131112 0.07651700
v -0.02926100 0.09126700 0.07906206
v -0.02926100 0.09106846 0.08160712
v -0.04452883 0.07250550 0.08183973
v -0.04837194 -0.02127993 0.08034554
v -0.04672589 -0.02127993 0.08098591
v -0.04248521 0.07505336 0.08260325
v -0.04244337 0.07759019 0.08258683
v -0.04239454 0.08013804 0.08257041
v -0.04233874 0.08268590 0.08255126
v -0.04185749 0.08546538 0.08255946
v -0.04092983 0.08478153 0.08295628
v -0.03689840 0.08522273 0.08433279
v -0.03470832 0.08522273 0.08510178
v -0.03343193 0.08522273 0.08554512
v -0.03319479 0.08665658 0.08546302
v -0.03689840 0.08777058 0.08384294
v -0.03890715 0.08777058 0.08313689
v -0.03237176 0.08835516 0.08519483
v -0.03689840 0.08934783 0.08317794
v -0.03416428 0.08760514 0.08483360
v -0.04198303 0.08966770 0.08100780
v -0.04707463 0.08985519 0.07878566
v -0.04961346 0.09059418 0.07651700
v -0.05470506 0.09086992 0.07397742
v -0.05978969 0.09101331 0.07143236
v -0.06487431 0.09109052 0.06888730
v -0.06996591 0.09114567 0.06634498
v -0.07505054 0.09118979 0.06379993
v -0.08014214 0.09117876 0.06125487
v -0.08268794 0.09105743 0.06001244
v -0.03180680 0.08522273 0.08605687
v -0.03163941 0.08760514 0.08565185
v -0.03180680 0.08013804 0.08624843
v -0.03180680 0.07759019 0.08628401
v -0.03180680 0.07505336 0.08631411
v -0.03180680 0.07250550 0.08632779
v -0.02926100 -0.02127993 0.08710773
v -0.03364815 0.08268590 0.08561901
v -0.02926100 0.09023021 0.08415218
v -0.03163941 0.08975592 0.08426985
v -0.03435261 0.08970078 0.08360485
v -0.03180680 0.09098022 0.08160712
v -0.02671520 0.09120082 0.06001244
v -0.02671520 0.09120082 0.06125487
v -0.02801949 0.09126700 0.06001244
v -0.02926100 0.09132214 0.06001244
v -0.03056529 0.09135523 0.06001244
v -0.03180680 0.09137729 0.06888730
v -0.03180680 0.09136626 0.07397742
v -0.03180680 0.09135523 0.07651700
v -0.03180680 0.09127803 0.07906206
v -0.03435261 0.09123391 0.07906206
v -0.03689840 0.09115670 0.07906206
v -0.04249917 0.07250550 0.08260872
v -0.04452883 -0.02127993 0.08183973
v -0.04424984 -0.02127993 0.08194646
v -0.04122975 0.07250550 0.08306300
v -0.03943723 0.07505336 0.08368421
v -0.04117395 0.07759019 0.08304111
v -0.04112513 0.08013804 0.08302469
v -0.04106933 0.08268590 0.08300553
v -0.03689840 0.08268590 0.08448057
v -0.03491756 0.08268590 0.08517567
v -0.03689840 0.09031844 0.08160712
v -0.04198303 0.09072654 0.07906206
v -0.04707463 0.09095817 0.07651700
v -0.05215926 0.09110155 0.07397742
v -0.05724388 0.09118979 0.07143236
v -0.06232851 0.09124494 0.06888730
v -0.06742011 0.09128905 0.06634498
v -0.07250474 0.09131112 0.06379993
v -0.07759634 0.09131112 0.06125487
v -0.08014214 0.09126700 0.06001244
v -0.03370395 0.08013804 0.08564090
v -0.03375974 0.07759019 0.08565732
v -0.03380160 0.07505336 0.08567374
v -0.03381554 0.07250550 0.08567921
v -0.03180680 -0.02127993 0.08632779
v -0.03498033 0.08013804 0.08519757
v -0.03435261 0.09074860 0.08160712
v -0.03943723 0.09101331 0.07906206
v -0.03180680 0.09137729 0.06001244
v -0.03435261 0.09139935 0.07397742
v -0.03435261 0.09136626 0.07651700
v -0.03689840 0.09134420 0.07651700
v -0.03943723 0.09131112 0.07651700
v -0.04198303 0.09124494 0.07651700
v -0.04452883 0.09114567 0.07651700
v -0.04249917 -0.02127993 0.08260872
v -0.03689840 0.07250550 0.08459825
v -0.03689840 0.07505336 0.08458457
v -0.04122975 -0.02127993 0.08306300
v -0.03689840 0.07759019 0.08455720
v -0.03689840 0.08013804 0.08452162
v -0.04961346 0.09122288 0.07397742
v -0.05470506 0.09128905 0.07143236
v -0.05978969 0.09133317 0.06888730
v -0.06996591 0.09135523 0.06379993
v -0.07505054 0.09136626 0.06125487
v -0.07759634 0.09135523 0.06001244
v -0.03502916 0.07759019 0.08521399
v -0.03507100 0.07505336 0.08523041
v -0.03509193 0.07250550 0.08523588
v -0.03381554 -0.02127993 0.08567921
v -0.03435261 0.09139935 0.06001244
v -0.04961346 0.09139935 0.06888730
v -0.05978969 0.09138832 0.06634498
v -0.03689840 0.09138832 0.07397742
v -0.04198303 0.09136626 0.07397742
v -0.04452883 0.09134420 0.07397742
v -0.04707463 0.09131112 0.07397742
v -0.03689840 -0.02127993 0.08459825
v -0.05215926 0.09134420 0.07143236
v -0.05724388 0.09136626 0.06888730
v -0.07250474 0.09138832 0.06125487
v -0.07505054 0.09137729 0.06001244
v -0.03509193 -0.02127993 0.08523588
v -0.05346355 0.09139935 0.06001244
v -0.05215926 0.09139935 0.06634498
v -0.04707463 0.09137729 0.07143236
v -0.07250474 0.09138832 0.06001244
f 1 2 8
f 1 8 14
f 1 14 21
f 1 21 34
f 1 34 47
f 1 47 67
f 1 67 90
f 1 90 120
f 1 120 156
f 1 156 201
f 1 201 249
f 1 249 301
f 1 301 344
f 1 344 371
f 1 371 387
f 1 387 392
f 1 392 389
f 1 389 376
f 1 376 353
f 1 353 318
f 1 318 317
f 1 317 316
f 1 316 314
f 1 314 268
f 1 268 267
f 1 267 264
f 1 264 218
f 1 218 175
f 1 175 164
f 1 164 127
f 1 127 98
f 1 98 73
f 1 73 52
f 1 52 38
f 1 38 24
f 1 24 16
f 1 16 9
f 1 9 3
f 1 3 4
f 1 4 5
f 1 5 6
f 1 6 2
f 2 6 7
f 2 7 8
f 3 9 15
f 3 15 22
f 3 22 35
f 3 35 48
f 3 48 68
f 3 68 91
f 3 91 97
f 3 97 126
f 3 126 163
f 3 163 161
f 3 161 208
f 3 208 257
f 3 257 256
f 3 256 308
f 3 308 349
f 3 349 375
f 3 375 388
f 3 388 383
f 3 383 363
f 3 363 360
f 3 360 327
f 3 327 326
f 3 326 276
f 3 276 275
f 3 275 221
f 3 221 178
f 3 178 138
f 3 138 137
f 3 137 107
f 3 107 106
f 3 106 80
f 3 80 78
f 3 78 77
f 3 77 56
f 3 56 54
f 3 54 39
f 3 39 25
f 3 25 17
f 3 17 10
f 3 10 5
f 3 5 4
f 5 10 11
f 5 11 6
f 6 11 7
f 7 12 13
f 7 13 14
f 7 14 8
f 7 11 12
f 9 16 15
f 10 17 11
f 11 18 19
f 11 19 12
f 11 17 18
f 12 19 13
f 13 20 14
f 13 19 20
f 14 20 21
f 15 16 24
f 15 24 23
f 15 23 22
f 17 25 18
f 18 26 27
f 18 27 28
f 18 28 19
f 18 25 39
f 18 39 26
f 19 28 29
f 19 29 30
f 19 30 20
f 20 30 29
f 20 29 31
f 20 31 21
f 21 32 33
f 21 33 34
f 21 31 32
f 22 23 36
f 22 36 35
f 23 24 37
f 23 37 49
f 23 49 36
f 24 38 37
f 26 40 41
f 26 41 27
f 26 39 54
f 26 54 40
f 27 41 42
f 27 42 29
f 27 29 28
f 29 42 43
f 29 43 44
f 29 44 45
f 29 45 31
f 31 45 32
f 32 45 46
f 32 46 47
f 32 47 33
f 33 47 34
f 35 36 50
f 35 50 48
f 36 49 50
f 37 38 51
f 37 51 70
f 37 70 49
f 38 52 53
f 38 53 51
f 40 55 41
f 40 54 56
f 40 56 55
f 41 55 57
f 41 57 58
f 41 58 59
f 41 59 60
f 41 60 61
f 41 61 43
f 41 43 42
f 43 61 62
f 43 62 44
f 44 62 63
f 44 63 64
f 44 64 65
f 44 65 45
f 45 65 46
f 46 65 47
f 47 65 64
f 47 64 66
f 47 66 67
f 48 50 68
f 49 69 50
f 49 70 92
f 49 92 69
f 50 69 71
f 50 71 72
f 50 72 68
f 51 53 74
f 51 74 70
f 52 73 53
f 53 73 75
f 53 75 101
f 53 101 76
f 53 76 100
f 53 100 74
f 55 56 77
f 55 77 78
f 55 78 57
f 57 78 80
f 57 80 58
f 58 79 59
f 58 80 106
f 58 106 79
f 59 79 81
f 59 81 109
f 59 109 82
f 59 82 83
f 59 83 60
f 60 83 61
f 61 83 84
f 61 84 85
f 61 85 62
f 62 85 86
f 62 86 63
f 63 86 87
f 63 87 88
f 63 88 66
f 63 66 64
f 66 88 89
f 66 89 90
f 66 90 67
f 68 72 91
f 69 92 93
f 69 93 94
f 69 94 71
f 70 74 92
f 71 95 72
f 71 94 96
f 71 96 95
f 72 95 97
f 72 97 91
f 73 98 75
f 74 99 92
f 74 100 99
f 75 98 101
f 76 101 102
f 76 102 103
f 76 103 100
f 79 104 105
f 79 105 81
f 79 106 107
f 79 107 104
f 81 105 108
f 81 108 109
f 82 109 142
f 82 142 110
f 82 110 111
f 82 111 112
f 82 112 83
f 83 112 84
f 84 113 114
f 84 114 85
f 84 112 111
f 84 111 110
f 84 110 113
f 85 114 115
f 85 115 86
f 86 115 116
f 86 116 87
f 87 116 117
f 87 117 118
f 87 118 89
f 87 89 88
f 89 118 119
f 89 119 120
f 89 120 90
f 92 99 121
f 92 121 93
f 93 121 122
f 93 122 96
f 93 96 94
f 95 96 123
f 95 123 124
f 95 124 125
f 95 125 126
f 95 126 97
f 96 122 124
f 96 124 123
f 98 127 101
f 99 100 128
f 99 128 129
f 99 129 121
f 100 103 130
f 100 130 128
f 101 127 131
f 101 131 132
f 101 132 102
f 102 132 133
f 102 133 134
f 102 134 103
f 103 134 135
f 103 135 130
f 104 136 105
f 104 107 137
f 104 137 138
f 104 138 136
f 105 136 139
f 105 139 108
f 108 140 141
f 108 141 142
f 108 142 109
f 108 139 140
f 110 142 143
f 110 143 113
f 113 143 114
f 114 143 144
f 114 144 145
f 114 145 115
f 115 145 146
f 115 146 116
f 116 146 147
f 116 147 148
f 116 148 149
f 116 149 117
f 117 149 118
f 118 150 119
f 118 149 151
f 118 151 152
f 118 152 153
f 118 153 154
f 118 154 155
f 118 155 150
f 119 150 120
f 120 150 156
f 121 157 122
f 121 129 157
f 122 157 124
f 124 158 160
f 124 160 125
f 124 157 159
f 124 159 158
f 125 160 161
f 125 161 162
f 125 162 126
f 126 162 163
f 127 164 165
f 127 165 166
f 127 166 131
f 128 130 167
f 128 167 168
f 128 168 129
f 129 169 157
f 129 168 169
f 130 135 170
f 130 170 167
f 131 166 171
f 131 171 132
f 132 171 133
f 133 172 173
f 133 173 174
f 133 174 134
f 133 171 175
f 133 175 172
f 134 174 135
f 135 174 176
f 135 176 170
f 136 177 179
f 136 179 139
f 136 138 178
f 136 178 221
f 136 221 177
f 139 179 140
f 140 180 181
f 140 181 182
f 140 182 183
f 140 183 184
f 140 184 185
f 140 185 186
f 140 186 141
f 140 179 180
f 141 186 143
f 141 143 142
f 143 186 144
f 144 186 187
f 144 187 147
f 144 147 146
f 144 146 145
f 147 187 188
f 147 188 189
f 147 189 152
f 147 152 151
f 147 151 148
f 148 151 149
f 150 155 190
f 150 190 156
f 152 189 191
f 152 191 192
f 152 192 193
f 152 193 194
f 152 194 195
f 152 195 196
f 152 196 153
f 153 195 154
f 153 196 195
f 154 195 197
f 154 197 198
f 154 198 199
f 154 199 155
f 155 199 200
f 155 200 190
f 156 190 201
f 157 169 202
f 157 202 159
f 158 159 203
f 158 203 204
f 158 204 205
f 158 205 206
f 158 206 160
f 159 207 203
f 159 202 250
f 159 250 207
f 160 206 208
f 160 208 161
f 161 163 162
f 164 175 171
f 164 171 165
f 165 171 166
f 167 170 209
f 167 209 168
f 168 209 210
f 168 210 169
f 169 210 211
f 169 211 202
f 170 176 212
f 170 212 209
f 172 213 173
f 172 175 213
f 173 213 214
f 173 214 215
f 173 215 216
f 173 216 217
f 173 217 174
f 174 217 176
f 175 218 214
f 175 214 213
f 176 217 219
f 176 219 212
f 177 220 179
f 177 221 275
f 177 275 220
f 179 222 181
f 179 181 180
f 179 220 222
f 181 222 223
f 181 223 224
f 181 224 182
f 182 224 183
f 183 225 184
f 183 224 225
f 184 225 226
f 184 226 227
f 184 227 228
f 184 228 185
f 185 228 187
f 185 187 186
f 187 228 188
f 188 229 230
f 188 230 231
f 188 231 232
f 188 232 189
f 188 228 227
f 188 227 233
f 188 233 234
f 188 234 229
f 189 232 191
f 190 200 235
f 190 235 201
f 191 232 231
f 191 231 192
f 192 236 237
f 192 237 193
f 192 231 230
f 192 230 238
f 192 238 236
f 193 237 239
f 193 239 194
f 194 239 240
f 194 240 195
f 195 240 241
f 195 241 197
f 197 241 242
f 197 242 198
f 198 242 243
f 198 243 244
f 198 244 245
f 198 245 246
f 198 246 199
f 199 235 200
f 199 246 247
f 199 247 248
f 199 248 235
f 201 235 248
f 201 248 249
f 202 211 251
f 202 251 250
f 203 207 252
f 203 252 253
f 203 253 204
f 204 253 254
f 204 254 206
f 204 206 205
f 206 254 255
f 206 255 256
f 206 256 257
f 206 257 208
f 207 258 304
f 207 304 252
f 207 250 258
f 209 212 259
f 209 259 210
f 210 259 211
f 211 259 260
f 211 260 261
f 211 261 262
f 211 262 251
f 212 219 263
f 212 263 259
f 214 218 264
f 214 264 215
f 215 264 265
f 215 265 216
f 216 265 266
f 216 266 267
f 216 267 268
f 216 268 269
f 216 269 270
f 216 270 271
f 216 271 272
f 216 272 217
f 217 272 219
f 219 272 273
f 219 273 263
f 220 274 223
f 220 223 222
f 220 275 276
f 220 276 274
f 223 277 224
f 223 274 277
f 224 278 225
f 224 277 278
f 225 279 226
f 225 278 279
f 226 279 280
f 226 280 233
f 226 233 227
f 229 234 230
f 230 234 238
f 233 281 234
f 233 280 282
f 233 282 281
f 234 283 284
f 234 284 285
f 234 285 286
f 234 286 287
f 234 287 288
f 234 288 238
f 234 281 282
f 234 282 283
f 236 289 262
f 236 262 290
f 236 290 237
f 236 238 288
f 236 288 287
f 236 287 291
f 236 291 289
f 237 290 292
f 237 292 239
f 239 292 240
f 240 292 293
f 240 293 294
f 240 294 242
f 240 242 241
f 242 294 295
f 242 295 243
f 243 295 244
f 244 295 296
f 244 296 245
f 245 247 246
f 245 296 297
f 245 297 298
f 245 298 299
f 245 299 247
f 247 299 300
f 247 300 248
f 248 300 301
f 248 301 249
f 250 302 258
f 250 251 286
f 250 286 302
f 251 303 286
f 251 262 289
f 251 289 303
f 252 304 305
f 252 305 253
f 253 305 306
f 253 306 254
f 254 306 307
f 254 307 255
f 255 307 349
f 255 349 308
f 255 308 256
f 258 309 304
f 258 302 285
f 258 285 309
f 259 263 260
f 260 263 310
f 260 310 261
f 261 310 311
f 261 311 312
f 261 312 262
f 262 312 290
f 263 273 313
f 263 313 310
f 264 267 266
f 264 266 265
f 268 314 315
f 268 315 269
f 269 315 270
f 270 315 316
f 270 316 317
f 270 317 318
f 270 318 319
f 270 319 320
f 270 320 321
f 270 321 271
f 271 321 272
f 272 322 273
f 272 321 355
f 272 355 322
f 273 322 323
f 273 323 324
f 273 324 313
f 274 325 277
f 274 276 326
f 274 326 327
f 274 327 325
f 277 325 328
f 277 328 329
f 277 329 330
f 277 330 278
f 278 330 331
f 278 331 279
f 279 331 332
f 279 332 280
f 280 332 282
f 282 332 333
f 282 333 334
f 282 334 309
f 282 309 284
f 282 284 283
f 284 309 285
f 285 302 286
f 286 303 289
f 286 289 291
f 286 291 287
f 290 312 292
f 292 312 335
f 292 335 336
f 292 336 294
f 292 294 293
f 294 336 295
f 295 336 337
f 295 337 338
f 295 338 296
f 296 338 339
f 296 339 297
f 297 339 298
f 298 339 340
f 298 340 341
f 298 341 299
f 299 341 342
f 299 342 343
f 299 343 300
f 300 343 344
f 300 344 301
f 304 345 305
f 304 309 345
f 305 345 346
f 305 346 306
f 306 347 307
f 306 346 347
f 307 347 348
f 307 348 375
f 307 375 349
f 309 334 350
f 309 350 345
f 310 312 311
f 310 313 351
f 310 351 312
f 312 351 335
f 313 352 351
f 313 324 352
f 314 316 315
f 318 353 319
f 319 353 376
f 319 376 354
f 319 354 320
f 320 354 321
f 321 354 355
f 322 355 356
f 322 356 357
f 322 357 323
f 323 357 358
f 323 358 324
f 324 358 359
f 324 359 352
f 325 327 360
f 325 360 363
f 325 363 328
f 328 361 362
f 328 362 329
f 328 363 383
f 328 383 361
f 329 362 330
f 330 364 331
f 330 362 364
f 331 365 332
f 331 364 365
f 332 365 333
f 333 365 350
f 333 350 334
f 335 351 336
f 336 351 352
f 336 352 337
f 337 352 338
f 338 352 359
f 338 359 339
f 339 366 367
f 339 367 340
f 339 359 366
f 340 367 341
f 341 367 368
f 341 368 342
f 342 368 369
f 342 369 370
f 342 370 343
f 343 370 371
f 343 371 344
f 345 350 346
f 346 350 372
f 346 372 373
f 346 373 347
f 347 373 374
f 347 374 348
f 348 374 388
f 348 388 375
f 350 365 364
f 350 364 372
f 354 376 389
f 354 389 390
f 354 390 377
f 354 377 378
f 354 378 379
f 354 379 355
f 355 380 381
f 355 381 356
f 355 379 380
f 356 381 382
f 356 382 357
f 357 382 358
f 358 366 359
f 358 382 366
f 361 374 373
f 361 373 362
f 361 383 388
f 361 388 374
f 362 373 364
f 364 373 372
f 366 382 367
f 367 382 368
f 368 384 385
f 368 385 369
f 368 382 384
f 369 385 370
f 370 385 386
f 370 386 387
f 370 387 371
f 377 390 386
f 377 386 378
f 378 386 385
f 378 385 380
f 378 380 391
f 378 391 379
f 379 391 380
f 380 385 384
f 380 384 381
f 381 384 382
f 386 390 389
f 386 389 392
f 386 392 387

