# https://github.com/mikedh/trimesh
v 0.12855101 -0.02128416 0.02308776
v 0.12856125 -0.03943963 0.02308776
v 0.12855101 -0.02128416 0.02274362
v 0.12848955 -0.02128416 0.02528779
v 0.12847930 -0.02128416 0.02563193
v 0.12856125 -0.06451450 0.02308776
v 0.12853052 -0.02128416 0.02054360
v 0.12829491 -0.02128416 0.02817610
v 0.12832565 -0.06451450 0.02781147
v 0.12847930 -0.06451450 0.02563193
v 0.12853052 -0.06451450 0.02054360
v 0.12852027 -0.06451450 0.02017897
v 0.12852027 -0.02128416 0.02019946
v 0.12829491 -0.06451450 0.02817610
v 0.12795687 -0.02128416 0.03072026
v 0.12800809 -0.06451450 0.03035564
v 0.12843832 -0.06451450 0.01800353
v 0.12843832 -0.02128416 0.01800353
v 0.12754711 -0.02128416 0.03242457
v 0.12795687 -0.06451450 0.03072026
v 0.12824369 -0.06451450 0.01545936
v 0.12824369 -0.02128416 0.01545936
v 0.12754711 -0.06451450 0.03241228
v 0.12747541 -0.02128416 0.03269496
v 0.12747541 -0.06451450 0.03269496
v 0.12820272 -0.06451450 0.01509474
v 0.12794661 -0.02128416 0.01291519
v 0.12693249 -0.02128416 0.03396910
v 0.12701444 -0.06451450 0.03378474
v 0.12794661 -0.06451450 0.01291519
v 0.12788517 -0.06451450 0.01256696
v 0.12749590 -0.02128416 0.01046525
v 0.12583640 -0.02128416 0.03517358
v 0.12693249 -0.06451450 0.03396910
v 0.12749590 -0.06451450 0.01046525
v 0.12745492 -0.06451450 0.01028499
v 0.12745492 -0.02128416 0.01029318
v 0.12566226 -0.02128416 0.03536204
v 0.12566226 -0.06451450 0.03536204
v 0.12584665 -0.06451450 0.03516129
v 0.12717834 -0.06451450 0.00919522
v 0.12717834 -0.02128416 0.00919522
v 0.12338814 -0.02128416 0.03656652
v 0.12371594 -0.06451450 0.03639445
v 0.12709639 -0.06451450 0.00899857
v 0.12709639 -0.02128416 0.00900676
v 0.12338814 -0.06451450 0.03656652
v 0.10466250 -0.02128416 0.04045447
v 0.12655347 -0.06451450 0.00782686
v 0.12655347 -0.02128416 0.00782686
v 0.12084768 -0.06451450 0.03699670
v 0.10466250 -0.05470038 0.04045447
v 0.10459080 -0.05660057 0.04045447
v 0.10456007 -0.05708303 0.04045447
v 0.10429372 -0.05830609 0.04045447
v 0.02391076 -0.02128416 0.04045447
v 0.12530373 -0.06451450 0.00607749
v 0.12530373 -0.02128416 0.00607749
v 0.11866576 -0.06451450 0.03705405
v 0.10322837 -0.05978730 0.04045447
v 0.10198888 -0.06117118 0.04045447
v 0.10159961 -0.06128122 0.04045447
v 0.10049329 -0.06142933 0.04045447
v 0.09795283 -0.06154360 0.04045447
v 0.02391076 -0.02128416 -0.00139934
v 0.02391076 -0.06139971 0.04045447
v 0.12338814 -0.06451450 0.00495084
v 0.12338814 -0.02128416 0.00495084
v 0.11830723 -0.06451450 0.03706225
v 0.11399459 -0.06451450 0.03709912
v 0.11565408 -0.06451450 0.03709912
v 0.02391076 -0.06233076 -0.00139934
v 0.09795283 -0.02128416 -0.00139934
v 0.02391076 -0.06451450 0.03141264
v 0.02474051 -0.06451450 0.03149867
v 0.03084581 -0.06451450 0.03209682
v 0.03191116 -0.06451450 0.03218695
v 0.03434918 -0.06451450 0.03239180
v 0.06742635 -0.06451450 0.03492367
v 0.07505798 -0.06451450 0.03538662
v 0.07759843 -0.06451450 0.03553820
v 0.08013889 -0.06451450 0.03567340
v 0.08267935 -0.06451450 0.03579221
v 0.10049329 -0.06451450 0.03662388
v 0.11272436 -0.06451450 0.03705815
v 0.12302961 -0.06451450 0.00484023
v 0.12084768 -0.02128416 0.00416833
v 0.02391076 -0.06451450 0.02669302
v 0.02393125 -0.06451450 -0.00139934
v 0.09977622 -0.02128416 -0.00123956
v 0.09795283 -0.06451450 -0.00139934
v 0.12084768 -0.06451450 0.00416833
v 0.09977622 -0.06451450 -0.00123956
f 1 2 3
f 1 3 7
f 1 7 13
f 1 13 18
f 1 18 22
f 1 22 27
f 1 27 32
f 1 32 37
f 1 37 42
f 1 42 46
f 1 46 50
f 1 50 58
f 1 58 68
f 1 68 87
f 1 87 90
f 1 90 73
f 1 73 65
f 1 65 56
f 1 56 48
f 1 48 43
f 1 43 38
f 1 38 33
f 1 33 28
f 1 28 24
f 1 24 19
f 1 19 15
f 1 15 8
f 1 8 5
f 1 5 4
f 1 4 2
f 2 4 5
f 2 5 10
f 2 10 6
f 2 6 11
f 2 11 7
f 2 7 3
f 5 8 9
f 5 9 10
f 6 10 9
f 6 9 14
f 6 14 16
f 6 16 20
f 6 20 23
f 6 23 25
f 6 25 29
f 6 29 34
f 6 34 40
f 6 40 39
f 6 39 44
f 6 44 47
f 6 47 51
f 6 51 59
f 6 59 69
f 6 69 71
f 6 71 70
f 6 70 85
f 6 85 84
f 6 84 83
f 6 83 82
f 6 82 81
f 6 81 80
f 6 80 79
f 6 79 78
f 6 78 77
f 6 77 76
f 6 76 75
f 6 75 74
f 6 74 88
f 6 88 89
f 6 89 91
f 6 91 93
f 6 93 92
f 6 92 86
f 6 86 67
f 6 67 57
f 6 57 49
f 6 49 45
f 6 45 41
f 6 41 36
f 6 36 35
f 6 35 31
f 6 31 30
f 6 30 26
f 6 26 21
f 6 21 17
f 6 17 12
f 6 12 11
f 7 11 12
f 7 12 13
f 8 14 9
f 8 15 16
f 8 16 14
f 12 17 18
f 12 18 13
f 15 19 20
f 15 20 16
f 17 21 22
f 17 22 18
f 19 23 20
f 19 24 25
f 19 25 23
f 21 26 22
f 22 26 27
f 24 28 29
f 24 29 25
f 26 30 27
f 27 30 31
f 27 31 32
f 28 33 34
f 28 34 29
f 31 35 32
f 32 35 36
f 32 36 37
f 33 38 39
f 33 39 40
f 33 40 34
f 36 41 42
f 36 42 37
f 38 43 44
f 38 44 39
f 41 45 42
f 42 45 46
f 43 47 44
f 43 48 52
f 43 52 47
f 45 49 50
f 45 50 46
f 47 52 53
f 47 53 54
f 47 54 55
f 47 55 51
f 48 56 66
f 48 66 64
f 48 64 63
f 48 63 62
f 48 62 61
f 48 61 60
f 48 60 55
f 48 55 54
f 48 54 53
f 48 53 52
f 49 57 58
f 49 58 50
f 51 55 60
f 51 60 61
f 51 61 62
f 51 62 63
f 51 63 64
f 51 64 59
f 56 65 72
f 56 72 88
f 56 88 74
f 56 74 66
f 57 67 68
f 57 68 58
f 59 64 69
f 64 70 71
f 64 71 69
f 64 66 70
f 65 73 91
f 65 91 89
f 65 89 72
f 66 74 75
f 66 75 76
f 66 76 77
f 66 77 78
f 66 78 79
f 66 79 80
f 66 80 81
f 66 81 82
f 66 82 83
f 66 83 84
f 66 84 85
f 66 85 70
f 67 86 68
f 68 86 87
f 72 89 88
f 73 90 93
f 73 93 91
f 86 92 87
f 87 92 93
f 87 93 90

