# https://github.com/mikedh/trimesh
v 0.10892572 0.06995842 0.09082828
v 0.11067542 0.06995842 0.09081581
v 0.11067542 0.07250086 0.09075656
v 0.10892572 0.07075422 0.09080957
v 0.10892572 -0.02127993 0.09082828
v 0.11272861 0.06995842 0.09065678
v 0.11256612 0.07250086 0.09062872
v 0.11067542 -0.02127993 0.09081581
v 0.11095473 -0.02127993 0.09079710
v 0.10892572 0.07250086 0.09076592
v 0.11225191 0.07397877 0.09056948
v 0.11067542 0.07410280 0.09060378
v 0.10892572 0.07300728 0.09071915
v 0.10892572 -0.02127993 0.07733927
v 0.11400027 0.06995842 0.09040733
v 0.11272861 -0.02127993 0.09065678
v 0.11383913 0.07250086 0.09037303
v 0.11314757 0.07491927 0.08999886
v 0.11067542 0.07537402 0.09015165
v 0.10892572 0.07451620 0.09046970
v 0.10892572 0.07411313 0.09061001
v 0.11345777 -0.02127993 0.05897352
v 0.10892572 0.07504329 0.05897352
v 0.11576339 0.06995842 0.08915696
v 0.11598899 0.07234583 0.08888257
v 0.11400027 -0.02127993 0.09040733
v 0.11424063 -0.02127993 0.09023895
v 0.11537666 0.07505363 0.08878279
v 0.11487041 0.07662456 0.08832131
v 0.11322008 0.07694495 0.08868613
v 0.11067542 0.07711031 0.08887945
v 0.10892572 0.07593211 0.08975876
v 0.10892572 0.07538435 0.09015788
v 0.12238621 -0.02127993 0.05897352
v 0.10892572 0.08430355 0.05897352
v 0.11704848 0.06995842 0.08798767
v 0.11704445 0.07139500 0.08798143
v 0.11576339 -0.02127993 0.08915696
v 0.11698806 0.07308996 0.08780058
v 0.11662684 0.07508463 0.08684955
v 0.11322008 0.07788545 0.08669365
v 0.11686988 0.07596312 0.08495062
v 0.11528938 0.07695529 0.08669365
v 0.11485699 0.07904299 0.08097189
v 0.11067542 0.07819550 0.08669365
v 0.10892572 0.07711031 0.08888569
v 0.10892572 0.07820584 0.08669365
v 0.12264269 0.04197094 0.05897352
v 0.12229356 0.04197094 0.06093170
v 0.12216465 -0.02127993 0.06021141
v 0.10892572 0.07990080 0.07906360
v 0.11322008 0.08430355 0.05897352
v 0.11735062 0.06995842 0.08669365
v 0.11704848 -0.02127993 0.08798767
v 0.11709011 -0.02127993 0.08781306
v 0.11725528 0.07234583 0.08684955
v 0.11781523 0.07250086 0.08415237
v 0.11965222 0.07657289 0.07306744
v 0.11719216 0.07425782 0.08610432
v 0.11409695 0.07880528 0.08266815
v 0.11239961 0.07892929 0.08316081
v 0.11713710 0.07646954 0.08325435
v 0.11704580 0.07887762 0.07781946
v 0.11687391 0.08137871 0.07003974
v 0.11067542 0.07868126 0.08458268
v 0.10892572 0.07877426 0.08419291
v 0.12264269 0.05723590 0.05897352
v 0.12229356 0.05723590 0.06093170
v 0.11995704 0.04197094 0.07397793
v 0.12196725 -0.02127993 0.06131211
v 0.10892572 0.07934270 0.08160798
v 0.11067542 0.07990080 0.07906360
v 0.11322008 0.08212284 0.06888915
v 0.11533234 0.08426221 0.05897352
v 0.11067542 0.07934270 0.08160798
v 0.11941991 0.05723590 0.07693703
v 0.11786626 0.06995842 0.08415237
v 0.11735062 -0.02127993 0.08669365
v 0.11829999 0.07250086 0.08160798
v 0.12211228 0.07862957 0.05993078
v 0.11947362 0.07505363 0.07472628
v 0.11910837 0.07505363 0.07651921
v 0.12220896 0.07915666 0.05897352
v 0.12192294 0.08024185 0.05897352
v 0.11961193 0.07891896 0.07028607
v 0.11704042 0.08395216 0.05999003
v 0.11576339 0.08425187 0.05897352
v 0.11322008 0.08162676 0.07109367
v 0.11954748 0.08137871 0.06501332
v 0.11740567 0.08161642 0.06834348
v 0.11882370 0.08368344 0.05897352
v 0.11752518 0.08407618 0.05897352
v 0.10892572 0.07908432 0.08278352
v 0.12238621 0.07505363 0.05897352
v 0.11995704 0.05723590 0.07397793
v 0.12215122 0.07693462 0.06013658
v 0.11965356 0.04197094 0.07566484
v 0.11786626 -0.02127993 0.08415237
v 0.12015041 -0.02127993 0.07143354
v 0.11941991 0.04197094 0.07693703
v 0.11965356 0.05723590 0.07566484
v 0.11877535 0.07250086 0.07906360
v 0.12058817 0.07505363 0.06888915
v 0.12233518 0.07774076 0.05897352
v 0.12190414 0.08030386 0.05897352
v 0.11985365 0.08167843 0.06331707
v 0.12019875 0.08202983 0.06125598
v 0.12055728 0.08241223 0.05897352
v 0.12233788 0.07767875 0.05897352
v 0.12106085 0.07505363 0.06634476
v 0.12152009 0.07505363 0.06380037
f 1 2 3
f 1 3 4
f 1 4 10
f 1 10 13
f 1 13 21
f 1 21 20
f 1 20 33
f 1 33 32
f 1 32 46
f 1 46 47
f 1 47 66
f 1 66 93
f 1 93 71
f 1 71 51
f 1 51 35
f 1 35 23
f 1 23 14
f 1 14 5
f 1 5 8
f 1 8 2
f 2 6 7
f 2 7 3
f 2 8 9
f 2 9 6
f 3 10 4
f 3 7 11
f 3 11 12
f 3 12 13
f 3 13 10
f 5 14 22
f 5 22 34
f 5 34 50
f 5 50 70
f 5 70 99
f 5 99 98
f 5 98 78
f 5 78 55
f 5 55 54
f 5 54 38
f 5 38 27
f 5 27 26
f 5 26 16
f 5 16 9
f 5 9 8
f 6 15 7
f 6 9 16
f 6 16 26
f 6 26 15
f 7 15 17
f 7 17 11
f 11 17 18
f 11 18 19
f 11 19 12
f 12 20 21
f 12 21 13
f 12 19 20
f 14 23 22
f 15 24 25
f 15 25 17
f 15 26 27
f 15 27 24
f 17 28 18
f 17 25 28
f 18 28 29
f 18 29 30
f 18 30 19
f 19 30 31
f 19 31 32
f 19 32 33
f 19 33 20
f 22 23 35
f 22 35 52
f 22 52 74
f 22 74 87
f 22 87 92
f 22 92 91
f 22 91 108
f 22 108 105
f 22 105 84
f 22 84 83
f 22 83 104
f 22 104 109
f 22 109 94
f 22 94 67
f 22 67 48
f 22 48 34
f 24 36 37
f 24 37 25
f 24 27 38
f 24 38 54
f 24 54 36
f 25 37 39
f 25 39 28
f 28 40 29
f 28 39 40
f 29 41 30
f 29 40 42
f 29 42 43
f 29 43 44
f 29 44 41
f 30 41 45
f 30 45 31
f 31 46 32
f 31 45 47
f 31 47 46
f 34 48 49
f 34 49 50
f 35 51 72
f 35 72 52
f 36 53 37
f 36 54 55
f 36 55 53
f 37 56 39
f 37 53 57
f 37 57 56
f 39 57 58
f 39 58 59
f 39 59 40
f 39 56 57
f 40 59 42
f 41 44 60
f 41 60 61
f 41 61 45
f 42 62 43
f 42 59 62
f 43 62 63
f 43 63 44
f 44 64 60
f 44 63 64
f 45 65 47
f 45 61 65
f 47 65 66
f 48 67 68
f 48 68 49
f 49 68 95
f 49 95 69
f 49 69 50
f 50 69 70
f 51 71 75
f 51 75 72
f 52 73 74
f 52 72 75
f 52 75 73
f 53 76 77
f 53 77 57
f 53 55 78
f 53 78 100
f 53 100 76
f 57 79 80
f 57 80 81
f 57 81 82
f 57 82 58
f 57 77 79
f 58 82 81
f 58 81 80
f 58 80 83
f 58 83 84
f 58 84 85
f 58 85 59
f 59 85 62
f 60 64 86
f 60 86 61
f 61 86 87
f 61 87 88
f 61 88 65
f 62 85 89
f 62 89 63
f 63 89 90
f 63 90 64
f 64 90 91
f 64 91 92
f 64 92 86
f 65 88 73
f 65 73 75
f 65 75 66
f 66 75 93
f 67 94 68
f 68 94 96
f 68 96 95
f 69 95 101
f 69 101 97
f 69 97 98
f 69 98 99
f 69 99 70
f 71 93 75
f 73 88 87
f 73 87 74
f 76 100 97
f 76 97 101
f 76 101 102
f 76 102 77
f 77 102 79
f 78 98 100
f 79 102 103
f 79 103 80
f 80 103 104
f 80 104 83
f 84 105 85
f 85 105 106
f 85 106 89
f 86 92 87
f 89 106 91
f 89 91 90
f 91 106 107
f 91 107 108
f 94 109 96
f 95 96 101
f 96 109 103
f 96 103 110
f 96 110 111
f 96 111 101
f 97 100 98
f 101 111 110
f 101 110 102
f 102 110 103
f 103 109 104
f 105 108 107
f 105 107 106

