# https://github.com/mikedh/trimesh
v -0.00116951 0.06996040 0.09083257
v -0.00116951 0.07250775 0.09077224
v -0.00381762 0.06996040 0.09083257
v -0.00116951 -0.02127993 0.09083257
v -0.00116951 0.07256962 0.09076620
v -0.00381762 0.07250775 0.09077224
v -0.00636189 0.06996040 0.09070285
v -0.00601474 -0.02127993 0.09072095
v -0.00381762 -0.02127993 0.09083257
v -0.00116951 -0.02127993 0.07863243
v -0.00116951 0.07411659 0.09061234
v -0.00381762 0.07411659 0.09061234
v -0.00576996 0.07400315 0.09057916
v -0.00651469 0.07253868 0.09062743
v -0.00768224 0.07171364 0.09053390
v -0.00770597 0.06996040 0.09054296
v -0.00636189 -0.02127993 0.09070285
v -0.00712146 -0.02127993 0.06001244
v -0.00116951 0.07481789 0.06001244
v -0.00116951 0.07416817 0.09059424
v -0.00381762 0.07539543 0.09015982
v -0.00746564 0.07340499 0.09049469
v -0.00651469 0.07493133 0.09014171
v -0.00868066 0.07253868 0.08985512
v -0.00897588 0.06996040 0.08974047
v -0.00770597 -0.02127993 0.09054296
v -0.01607016 -0.02127993 0.06001244
v -0.00116951 0.08407909 0.06001244
v -0.00116951 0.07539543 0.09015982
v -0.00116951 0.07546762 0.09010853
v -0.00381762 0.07711773 0.08888670
v -0.00636189 0.07703521 0.08879318
v -0.00826378 0.07673613 0.08845228
v -0.00902781 0.07510666 0.08892894
v -0.01039118 0.07430223 0.08825618
v -0.01052469 0.07250775 0.08843418
v -0.01055140 0.06996040 0.08846736
v -0.01033628 -0.02127993 0.08864234
v -0.00897588 -0.02127993 0.08974047
v -0.01579274 -0.02127993 0.06156310
v -0.01610131 0.04197054 0.06125538
v -0.01632236 0.04197054 0.06001244
v -0.00636189 0.08406878 0.06001244
v -0.00636189 0.08401721 0.06026284
v -0.00636189 0.08373875 0.06153595
v -0.00636189 0.08268681 0.06634481
v -0.00636189 0.08212991 0.06888801
v -0.00116951 0.07990227 0.07906385
v -0.00116951 0.07711773 0.08888670
v -0.00381762 0.07821092 0.08669647
v -0.00636189 0.07804590 0.08669647
v -0.00764812 0.07887095 0.08290128
v -0.00902781 0.07701459 0.08663312
v -0.00995798 0.07599359 0.08743862
v -0.01059590 0.07510666 0.08663312
v -0.01267434 0.07594202 0.07759765
v -0.01115817 0.07250775 0.08669647
v -0.01121602 0.06996040 0.08669647
v -0.01112553 -0.02127993 0.08693782
v -0.01055140 -0.02127993 0.08846736
v -0.01487294 -0.02127993 0.06669174
v -0.01534174 0.04197054 0.06550009
v -0.01632533 0.04451789 0.06001244
v -0.00856791 0.08405846 0.06001244
v -0.00636189 0.08100578 0.07397744
v -0.00381762 0.07868532 0.08459071
v -0.00116951 0.07936598 0.08150447
v -0.00116951 0.07821092 0.08669647
v -0.00636189 0.08042824 0.07651762
v -0.00636189 0.07892252 0.08311547
v -0.00636189 0.07861312 0.08438556
v -0.00995798 0.07876782 0.08007147
v -0.01031997 0.08398627 0.06010295
v -0.01031552 0.08146987 0.07039342
v -0.01026063 0.07642674 0.08574013
v -0.01276335 0.07892252 0.07285215
v -0.01286572 0.07669488 0.07590219
v -0.01532542 0.07904628 0.06282113
v -0.01277374 0.07425066 0.07807733
v -0.01168482 0.07250775 0.08415025
v -0.01173674 0.06996040 0.08415025
v -0.01336567 0.05724430 0.07651762
v -0.01121602 -0.02127993 0.08669647
v -0.01350215 -0.02127993 0.07432437
v -0.01336567 0.04197054 0.07651762
v -0.01534174 0.05724430 0.06550009
v -0.01632533 0.05724430 0.06001244
v -0.00890467 0.08404814 0.06001244
v -0.00890467 0.08400690 0.06021457
v -0.00116951 0.07868532 0.08459071
v -0.01252895 0.08128423 0.06733132
v -0.01293544 0.08158331 0.06563283
v -0.01041046 0.07903596 0.07837600
v -0.01022947 0.08400690 0.06001244
v -0.01037931 0.08399658 0.06001244
v -0.01176493 0.08369750 0.06001244
v -0.01522009 0.08130485 0.06001244
v -0.01525866 0.08120172 0.06001244
v -0.01586395 0.07861312 0.06001244
v -0.01601378 0.07759213 0.06001244
v -0.01539960 0.07759213 0.06324047
v -0.01514591 0.07759213 0.06451358
v -0.01563696 0.07999508 0.06001244
v -0.01445904 0.07505509 0.06888801
v -0.01256753 0.07250775 0.07949827
v -0.01217142 0.07250775 0.08160705
v -0.01493228 0.07505509 0.06634481
v -0.01521416 0.07505509 0.06478811
v -0.01544262 0.07505509 0.06351500
v -0.01173674 -0.02127993 0.08415025
v -0.01213137 -0.02127993 0.08195399
v -0.01584763 0.07505509 0.06125538
v -0.01607016 0.07505509 0.06001244
v -0.01254379 0.08332623 0.06001244
v -0.01327814 0.08187207 0.06379859
v -0.01511624 0.08141829 0.06001244
v -0.01390568 0.08251149 0.06001244
f 1 2 6
f 1 6 3
f 1 3 9
f 1 9 4
f 1 4 10
f 1 10 19
f 1 19 28
f 1 28 48
f 1 48 67
f 1 67 90
f 1 90 68
f 1 68 49
f 1 49 30
f 1 30 29
f 1 29 20
f 1 20 11
f 1 11 5
f 1 5 2
f 2 5 6
f 3 6 7
f 3 7 8
f 3 8 9
f 4 9 8
f 4 8 17
f 4 17 26
f 4 26 39
f 4 39 38
f 4 38 60
f 4 60 59
f 4 59 83
f 4 83 110
f 4 110 111
f 4 111 84
f 4 84 61
f 4 61 40
f 4 40 27
f 4 27 18
f 4 18 10
f 5 11 12
f 5 12 6
f 6 12 13
f 6 13 14
f 6 14 7
f 7 14 15
f 7 15 16
f 7 16 26
f 7 26 17
f 7 17 8
f 10 18 19
f 11 20 12
f 12 20 21
f 12 21 13
f 13 22 14
f 13 21 23
f 13 23 22
f 14 22 15
f 15 22 24
f 15 24 25
f 15 25 16
f 16 25 39
f 16 39 26
f 18 27 42
f 18 42 63
f 18 63 87
f 18 87 113
f 18 113 100
f 18 100 99
f 18 99 103
f 18 103 98
f 18 98 97
f 18 97 116
f 18 116 117
f 18 117 114
f 18 114 96
f 18 96 95
f 18 95 94
f 18 94 88
f 18 88 64
f 18 64 43
f 18 43 28
f 18 28 19
f 20 29 21
f 21 29 30
f 21 30 31
f 21 31 32
f 21 32 23
f 22 23 33
f 22 33 34
f 22 34 35
f 22 35 24
f 23 32 33
f 24 36 25
f 24 35 36
f 25 36 37
f 25 37 38
f 25 38 39
f 27 40 41
f 27 41 42
f 28 43 44
f 28 44 45
f 28 45 46
f 28 46 47
f 28 47 48
f 30 49 31
f 31 49 68
f 31 68 50
f 31 50 32
f 32 50 51
f 32 51 33
f 33 51 52
f 33 52 53
f 33 53 54
f 33 54 34
f 34 54 35
f 35 54 55
f 35 55 56
f 35 56 57
f 35 57 36
f 36 57 58
f 36 58 37
f 37 58 59
f 37 59 60
f 37 60 38
f 40 61 62
f 40 62 41
f 41 62 63
f 41 63 42
f 43 64 44
f 44 64 45
f 45 64 46
f 46 64 47
f 47 64 65
f 47 65 66
f 47 66 48
f 48 66 67
f 50 68 90
f 50 90 66
f 50 66 65
f 50 65 69
f 50 69 70
f 50 70 71
f 50 71 51
f 51 71 52
f 52 72 53
f 52 71 70
f 52 70 73
f 52 73 74
f 52 74 72
f 53 75 54
f 53 72 75
f 54 75 55
f 55 75 76
f 55 76 77
f 55 77 56
f 56 77 78
f 56 78 79
f 56 79 57
f 57 80 58
f 57 79 80
f 58 80 81
f 58 81 82
f 58 82 85
f 58 85 83
f 58 83 59
f 61 84 85
f 61 85 62
f 62 85 82
f 62 82 86
f 62 86 87
f 62 87 63
f 64 88 89
f 64 89 65
f 65 89 73
f 65 73 69
f 66 90 67
f 69 73 70
f 72 74 91
f 72 91 92
f 72 92 93
f 72 93 75
f 73 89 88
f 73 88 94
f 73 94 95
f 73 95 74
f 74 95 96
f 74 96 92
f 74 92 91
f 75 93 92
f 75 92 76
f 76 92 97
f 76 97 77
f 77 97 98
f 77 98 78
f 78 99 100
f 78 100 101
f 78 101 102
f 78 102 79
f 78 98 103
f 78 103 99
f 79 102 101
f 79 101 100
f 79 100 104
f 79 104 105
f 79 105 106
f 79 106 80
f 80 106 81
f 81 106 105
f 81 105 82
f 82 105 107
f 82 107 108
f 82 108 109
f 82 109 86
f 83 85 110
f 84 111 85
f 85 111 110
f 86 109 112
f 86 112 87
f 87 112 113
f 92 96 114
f 92 114 115
f 92 115 116
f 92 116 97
f 100 113 112
f 100 112 109
f 100 109 108
f 100 108 107
f 100 107 104
f 104 107 105
f 114 117 115
f 115 117 116

