# https://github.com/mikedh/trimesh
v -0.09032301 -0.02999205 0.08669538
v -0.08850664 -0.03014125 0.07470514
v -0.09032301 -0.02999205 0.07470514
v -0.09104851 -0.02999719 0.07470514
v -0.09286488 -0.03002292 0.08669538
v -0.09286488 -0.03028017 0.08842962
v -0.09032301 -0.03025959 0.08845626
v -0.08778114 -0.03036764 0.08828757
v -0.08624662 -0.03046539 0.08811000
v -0.08778114 -0.03020299 0.08669538
v -0.08778114 -0.03020299 0.07470514
v -0.09286488 -0.03002292 0.07470514
v -0.09540675 -0.03030590 0.08669538
v -0.09675859 -0.03051170 0.08801974
v -0.09540675 -0.03041909 0.08819287
v -0.09540675 -0.03180310 0.08911918
v -0.09286488 -0.03180310 0.08935593
v -0.09032301 -0.03180310 0.08938257
v -0.08778114 -0.03180310 0.08921388
v -0.08269218 -0.03225072 0.08883211
v -0.08484781 -0.03077924 0.08669538
v -0.08612135 -0.03042938 0.08669538
v -0.08057308 -0.03265203 0.08850213
v -0.08269218 -0.03141722 0.08669538
v -0.08612135 -0.03042938 0.07470514
v -0.09540675 -0.03030590 0.07470514
v -0.09680035 -0.03049626 0.08669538
v -0.09806868 -0.03088214 0.08669538
v -0.10049572 -0.03167447 0.08669538
v -0.10237472 -0.03275493 0.08841779
v -0.10049572 -0.03237420 0.08876256
v -0.09774507 -0.03168991 0.08873593
v -0.10049572 -0.03434989 0.08968887
v -0.09794862 -0.03434989 0.08981465
v -0.08523405 -0.03434989 0.08982205
v -0.08269218 -0.03434989 0.08975842
v -0.09540675 -0.03434989 0.08982205
v -0.07989455 -0.03409778 0.08903039
v -0.07760321 -0.03472033 0.08876848
v -0.08484781 -0.03077409 0.08415173
v -0.08015030 -0.03244108 0.08669538
v -0.07587557 -0.03527085 0.08841779
v -0.07887676 -0.03307906 0.08669538
v -0.08269218 -0.03141208 0.08415173
v -0.08484781 -0.03077409 0.07470514
v -0.09680035 -0.03049626 0.07470514
v -0.09806868 -0.03088214 0.07470514
v -0.09876808 -0.03110852 0.07470514
v -0.10049572 -0.03167447 0.07470514
v -0.10112205 -0.03193687 0.07470514
v -0.10267745 -0.03259543 0.08669538
v -0.10558468 -0.03495186 0.08862643
v -0.10314720 -0.03417496 0.08898008
v -0.10395100 -0.03327458 0.08669538
v -0.10706701 -0.03544578 0.08822838
v -0.10558468 -0.03689668 0.08955422
v -0.10303759 -0.03689668 0.08982205
v -0.08014508 -0.03689668 0.08982205
v -0.07505612 -0.03943832 0.08976138
v -0.07760321 -0.03689668 0.08969627
v -0.07504046 -0.03683494 0.08893125
v -0.08330807 -0.03122686 0.07470514
v -0.08015030 -0.03244108 0.07470514
v -0.07565114 -0.03509077 0.08669538
v -0.07760321 -0.03381995 0.08669538
v -0.07323975 -0.03764271 0.08850657
v -0.07437759 -0.03610949 0.08669538
v -0.07887676 -0.03307906 0.07470514
v -0.08269218 -0.03141208 0.07470514
v -0.10267745 -0.03259543 0.07470514
v -0.10395100 -0.03326943 0.08415173
v -0.10800129 -0.03695327 0.08874333
v -0.10558468 -0.03428300 0.08669538
v -0.10717662 -0.03535831 0.08669538
v -0.10845017 -0.03640790 0.08669538
v -0.10988551 -0.03767872 0.08669538
v -0.10972371 -0.03784336 0.08838079
v -0.10812655 -0.03943832 0.08966815
v -0.10558468 -0.03943832 0.08982205
v -0.07505612 -0.04198511 0.08982205
v -0.07251425 -0.04452676 0.08982205
v -0.06996716 -0.04707355 0.08978949
v -0.07251425 -0.04198511 0.08971551
v -0.07244117 -0.03939201 0.08894753
v -0.07565114 -0.03509077 0.07470514
v -0.07620961 -0.03472548 0.07470514
v -0.07760321 -0.03381995 0.07470514
v -0.07296312 -0.03738031 0.08669538
v -0.07083358 -0.04021008 0.08844590
v -0.07168957 -0.03868715 0.08669538
v -0.07437759 -0.03610949 0.07470514
v -0.10395100 -0.03326943 0.07470514
v -0.11061101 -0.03956695 0.08874037
v -0.10558468 -0.03428300 0.07470514
v -0.10717662 -0.03535831 0.07470514
v -0.10808480 -0.03610434 0.07470514
v -0.10845017 -0.03640790 0.07470514
v -0.10988551 -0.03767872 0.07470514
v -0.11079370 -0.03870773 0.07470514
v -0.11115906 -0.03912448 0.08669538
v -0.11211422 -0.04050334 0.08822394
v -0.11067365 -0.04198511 0.08954978
v -0.11067365 -0.04452676 0.08982205
v -0.06996716 -0.04961519 0.08982205
v -0.06996716 -0.04452676 0.08946247
v -0.06742528 -0.05470363 0.08968296
v -0.06742528 -0.05216198 0.08956901
v -0.06997759 -0.04213432 0.08873297
v -0.07296312 -0.03738031 0.07470514
v -0.06815078 -0.04193881 0.07470514
v -0.06859965 -0.04308101 0.08814848
v -0.07062481 -0.03996312 0.08669538
v -0.11260485 -0.04198511 0.08862347
v -0.11115906 -0.03912448 0.07470514
v -0.11219773 -0.04039530 0.08669538
v -0.11326250 -0.04198511 0.08669538
v -0.11428029 -0.04364181 0.08669538
v -0.11479702 -0.04521104 0.08841039
v -0.11338777 -0.04442900 0.08897416
v -0.11321552 -0.04707355 0.08967999
v -0.11321552 -0.04961519 0.08981169
v -0.11321552 -0.05216198 0.08982205
v -0.06996716 -0.06233370 0.08982205
v -0.06742528 -0.05724527 0.08969331
v -0.06765493 -0.04707355 0.08886318
v -0.06820820 -0.04452676 0.08853468
v -0.06555672 -0.05724527 0.08876552
v -0.06556715 -0.05470363 0.08875664
v -0.06570808 -0.05216198 0.08864270
v -0.06785328 -0.04240186 0.07470514
v -0.06935648 -0.04172272 0.08669538
v -0.06590642 -0.05007310 0.08836748
v -0.06661104 -0.04707355 0.08669538
v -0.06771757 -0.04452676 0.08669538
v -0.06505565 -0.04712500 0.07470514
v -0.11219773 -0.04039530 0.07470514
v -0.11295977 -0.04152721 0.07470514
v -0.11326250 -0.04198511 0.07470514
v -0.11428029 -0.04364181 0.07470514
v -0.11447341 -0.04400711 0.07470514
v -0.11495360 -0.04491778 0.08669538
v -0.11585134 -0.04707355 0.08669538
v -0.11704138 -0.05085514 0.08798866
v -0.11517281 -0.04707355 0.08875368
v -0.11576261 -0.05216198 0.08907183
v -0.11576261 -0.05470363 0.08931302
v -0.11576261 -0.05724527 0.08933818
v -0.11321552 -0.06233370 0.08982205
v -0.07251425 -0.06742214 0.08982205
v -0.06996716 -0.06487535 0.08981317
v -0.06742528 -0.05978692 0.08961341
v -0.06566632 -0.05978692 0.08868710
v -0.06495648 -0.05724527 0.08669538
v -0.06498780 -0.05470363 0.08669538
v -0.06526443 -0.05216198 0.08669538
v -0.06616739 -0.04839068 0.08669538
v -0.06578638 -0.04966150 0.08669538
v -0.06500346 -0.04724848 0.07470514
v -0.11495360 -0.04491778 0.07470514
v -0.11559559 -0.04645100 0.07470514
v -0.11585134 -0.04707355 0.07470514
v -0.11643070 -0.04885373 0.07470514
v -0.11666036 -0.04956889 0.08669538
v -0.11704660 -0.05083971 0.08669538
v -0.11720840 -0.05216198 0.08669538
v -0.11748503 -0.05470363 0.08669538
v -0.11711967 -0.05216198 0.08814552
v -0.11586700 -0.04985186 0.08871373
v -0.11726059 -0.05470363 0.08838671
v -0.11727103 -0.05724527 0.08841187
v -0.11576261 -0.05978692 0.08915321
v -0.11321552 -0.06487535 0.08974510
v -0.11067365 -0.06742214 0.08982205
v -0.07505612 -0.06996378 0.08982205
v -0.07505612 -0.07251058 0.08980725
v -0.07251425 -0.06996378 0.08977618
v -0.06996716 -0.06742214 0.08959565
v -0.06742528 -0.06233370 0.08930562
v -0.06518092 -0.05978692 0.08669538
v -0.06590121 -0.06233370 0.08837931
v -0.06429883 -0.06234399 0.07470514
v -0.06419444 -0.06116064 0.07470514
v -0.06419444 -0.05978692 0.07477469
v -0.06419444 -0.05724527 0.07488862
v -0.06419444 -0.05491457 0.07487679
v -0.06419444 -0.05470363 0.07487383
v -0.06419444 -0.05124617 0.07470514
v -0.06435103 -0.04964092 0.07470514
v -0.06435624 -0.04961519 0.07470514
v -0.11666036 -0.04956889 0.07470514
v -0.11704660 -0.05083971 0.07470514
v -0.11720840 -0.05216198 0.07470514
v -0.11740674 -0.05397303 0.07470514
v -0.11748503 -0.05470363 0.07470514
v -0.11751635 -0.05724527 0.08669538
v -0.11716143 -0.05978692 0.08822690
v -0.11589831 -0.06217935 0.08876700
v -0.11527721 -0.06487535 0.08881879
v -0.11067365 -0.06996378 0.08967408
v -0.11344518 -0.06763823 0.08902004
v -0.10812655 -0.07251058 0.08974806
v -0.10558468 -0.07251058 0.08982205
v -0.08014508 -0.07505222 0.08982205
v -0.08269218 -0.07759901 0.08981169
v -0.07760321 -0.07505222 0.08977470
v -0.07489953 -0.07523230 0.08903187
v -0.07233679 -0.07267007 0.08903187
v -0.06988364 -0.06993806 0.08886910
v -0.06806728 -0.06742214 0.08866934
v -0.06730002 -0.06472100 0.08876552
v -0.06610476 -0.06376916 0.08807153
v -0.06565589 -0.06233370 0.08669538
v -0.06496170 -0.06488049 0.07470514
v -0.11751635 -0.05724527 0.07470514
v -0.11729191 -0.05978692 0.08669538
v -0.11707792 -0.06122752 0.08806413
v -0.11488052 -0.06693336 0.08848585
v -0.11278752 -0.06996378 0.08874628
v -0.11071018 -0.07249514 0.08890314
v -0.10814744 -0.07510367 0.08892089
v -0.10558468 -0.07505222 0.08969627
v -0.10049572 -0.07759901 0.08978210
v -0.10303759 -0.07505222 0.08982205
v -0.08523405 -0.07759901 0.08982205
v -0.09032301 -0.08014065 0.08967408
v -0.08778114 -0.08014065 0.08958973
v -0.08014508 -0.07759901 0.08958529
v -0.07306229 -0.07450170 0.08856724
v -0.07763975 -0.07767619 0.08886170
v -0.07564069 -0.07688385 0.08852285
v -0.07067700 -0.07193433 0.08852433
v -0.06849005 -0.06907369 0.08829645
v -0.06744094 -0.06742214 0.08669538
v -0.06647534 -0.06512231 0.08669538
v -0.06839088 -0.06926406 0.08669538
v -0.06912160 -0.07053489 0.08669538
v -0.06776455 -0.06975284 0.07470514
v -0.11729191 -0.05978692 0.07470514
v -0.11715620 -0.06087252 0.07470514
v -0.11709879 -0.06130984 0.08669538
v -0.11674909 -0.06258581 0.08669538
v -0.11606534 -0.06487535 0.08669538
v -0.11507886 -0.06732439 0.08669538
v -0.11443687 -0.06860035 0.08669538
v -0.11226036 -0.07164107 0.08838819
v -0.10988551 -0.07429075 0.08848881
v -0.10730710 -0.07669863 0.08841926
v -0.10540201 -0.07756300 0.08868562
v -0.10303759 -0.07759901 0.08941364
v -0.09540675 -0.08014065 0.08953202
v -0.09286488 -0.08014065 0.08966076
v -0.09794862 -0.07759901 0.08982205
v -0.09032301 -0.08197743 0.08874777
v -0.08778114 -0.08187453 0.08866342
v -0.08523405 -0.08014065 0.08927011
v -0.08014508 -0.07947694 0.08865750
v -0.07402267 -0.07613267 0.08669538
v -0.07270215 -0.07485671 0.08669538
v -0.07142860 -0.07354987 0.08669538
v -0.07851139 -0.07906534 0.08828313
v -0.07529621 -0.07716168 0.08669538
v -0.07039515 -0.07227905 0.08669538
v -0.07140250 -0.07360132 0.07470514
v -0.11709879 -0.06130984 0.07470514
v -0.11699962 -0.06167514 0.07470514
v -0.11607056 -0.06487535 0.08415173
v -0.11674909 -0.06258581 0.07470514
v -0.11489619 -0.06768968 0.07470514
v -0.11536594 -0.06662466 0.07470514
v -0.11507886 -0.06732439 0.07470514
v -0.11387317 -0.06957276 0.07470514
v -0.11364351 -0.06996378 0.08415173
v -0.11363830 -0.06996378 0.08669538
v -0.11443687 -0.06860035 0.07470514
v -0.11242216 -0.07184172 0.08669538
v -0.11139915 -0.07311769 0.08669538
v -0.11012561 -0.07454286 0.08669538
v -0.10880508 -0.07581368 0.08669538
v -0.10753676 -0.07688385 0.08669538
v -0.10443119 -0.07893672 0.08809521
v -0.10303759 -0.07931230 0.08848585
v -0.10049572 -0.07986282 0.08885431
v -0.09540675 -0.08181793 0.08860571
v -0.09286488 -0.08196199 0.08873297
v -0.09032301 -0.08254338 0.08669538
v -0.08778114 -0.08233243 0.08669538
v -0.08523405 -0.08163786 0.08834380
v -0.08287485 -0.08025899 0.08874628
v -0.08384567 -0.08144749 0.08804194
v -0.07402267 -0.07613267 0.07906442
v -0.07176787 -0.07397176 0.07470514
v -0.07529099 -0.07716168 0.07470514
v -0.08014508 -0.08008920 0.08669538
v -0.07832871 -0.07916310 0.08669538
v -0.07705517 -0.07843251 0.08669538
v -0.11607056 -0.06487535 0.07470514
v -0.11364351 -0.06996378 0.07470514
v -0.11277187 -0.07130663 0.07470514
v -0.11242216 -0.07184172 0.07470514
v -0.11212987 -0.07220701 0.07470514
v -0.11139915 -0.07311769 0.07470514
v -0.10974980 -0.07490815 0.07470514
v -0.11012561 -0.07454286 0.07470514
v -0.10880508 -0.07581368 0.07470514
v -0.10576214 -0.07815467 0.08669538
v -0.10753676 -0.07688385 0.07470514
v -0.10448860 -0.07897273 0.08669538
v -0.10303759 -0.07974963 0.08669538
v -0.10049572 -0.08086095 0.08669538
v -0.09740580 -0.08163271 0.08833640
v -0.09540675 -0.08222953 0.08669538
v -0.09286488 -0.08251251 0.08669538
v -0.09213416 -0.08252280 0.07470514
v -0.09032301 -0.08254338 0.07470514
v -0.08778114 -0.08233243 0.07470514
v -0.08705042 -0.08219866 0.07470514
v -0.08523405 -0.08186424 0.08669538
v -0.08378826 -0.08146807 0.08669538
v -0.08251472 -0.08106676 0.08669538
v -0.07438281 -0.07641565 0.07470514
v -0.07402267 -0.07611724 0.07470514
v -0.07267605 -0.07484127 0.07470514
v -0.07705517 -0.07843251 0.07470514
v -0.08183619 -0.08078893 0.07470514
v -0.08014508 -0.08008920 0.07470514
v -0.07742053 -0.07864345 0.07470514
v -0.07832871 -0.07916310 0.07470514
v -0.10576214 -0.07815467 0.07470514
v -0.10448860 -0.07897273 0.07470514
v -0.10231209 -0.08006862 0.07470514
v -0.10049572 -0.08086610 0.08415173
v -0.10303759 -0.07974963 0.07470514
v -0.09903950 -0.08136002 0.08415173
v -0.09903950 -0.08134973 0.08669538
v -0.09777116 -0.08174076 0.08669538
v -0.09540675 -0.08222953 0.07470514
v -0.09286488 -0.08251251 0.07470514
v -0.08523405 -0.08186424 0.07470514
v -0.08378826 -0.08146807 0.07470514
v -0.08288008 -0.08118510 0.07470514
v -0.08251472 -0.08106676 0.07470514
v -0.10049572 -0.08086610 0.07470514
v -0.09903950 -0.08136002 0.07470514
v -0.09813131 -0.08163271 0.07470514
v -0.09777116 -0.08174076 0.07470514
f 1 2 3
f 1 3 4
f 1 4 5
f 1 5 6
f 1 6 7
f 1 7 8
f 1 8 9
f 1 9 10
f 1 10 2
f 2 10 11
f 2 11 25
f 2 25 45
f 2 45 62
f 2 62 69
f 2 69 63
f 2 63 68
f 2 68 87
f 2 87 86
f 2 86 85
f 2 85 91
f 2 91 109
f 2 109 110
f 2 110 130
f 2 130 135
f 2 135 158
f 2 158 189
f 2 189 188
f 2 188 187
f 2 187 182
f 2 182 181
f 2 181 213
f 2 213 237
f 2 237 263
f 2 263 291
f 2 291 322
f 2 322 321
f 2 321 320
f 2 320 292
f 2 292 323
f 2 323 326
f 2 326 327
f 2 327 325
f 2 325 324
f 2 324 341
f 2 341 340
f 2 340 339
f 2 339 338
f 2 338 316
f 2 316 315
f 2 315 314
f 2 314 313
f 2 313 337
f 2 337 336
f 2 336 345
f 2 345 344
f 2 344 343
f 2 343 342
f 2 342 330
f 2 330 332
f 2 332 329
f 2 329 328
f 2 328 306
f 2 306 304
f 2 304 302
f 2 302 303
f 2 303 301
f 2 301 300
f 2 300 299
f 2 299 298
f 2 298 297
f 2 297 271
f 2 271 274
f 2 274 268
f 2 268 270
f 2 270 269
f 2 269 296
f 2 296 267
f 2 267 265
f 2 265 264
f 2 264 239
f 2 239 238
f 2 238 214
f 2 214 194
f 2 194 193
f 2 193 192
f 2 192 191
f 2 191 190
f 2 190 162
f 2 162 161
f 2 161 160
f 2 160 159
f 2 159 140
f 2 140 139
f 2 139 138
f 2 138 137
f 2 137 136
f 2 136 114
f 2 114 99
f 2 99 98
f 2 98 97
f 2 97 96
f 2 96 95
f 2 95 94
f 2 94 92
f 2 92 70
f 2 70 50
f 2 50 49
f 2 49 48
f 2 48 47
f 2 47 46
f 2 46 26
f 2 26 12
f 2 12 4
f 2 4 3
f 4 12 5
f 5 12 26
f 5 26 13
f 5 13 14
f 5 14 15
f 5 15 6
f 6 15 16
f 6 16 17
f 6 17 7
f 7 17 18
f 7 18 19
f 7 19 8
f 8 19 20
f 8 20 9
f 9 21 22
f 9 22 10
f 9 20 23
f 9 23 24
f 9 24 21
f 10 22 25
f 10 25 11
f 13 26 46
f 13 46 27
f 13 27 14
f 14 27 28
f 14 28 29
f 14 29 30
f 14 30 31
f 14 31 15
f 15 31 32
f 15 32 16
f 16 32 31
f 16 31 33
f 16 33 17
f 17 33 34
f 17 34 18
f 18 35 36
f 18 36 19
f 18 34 37
f 18 37 35
f 19 36 20
f 20 36 38
f 20 38 39
f 20 39 23
f 21 40 22
f 21 24 44
f 21 44 40
f 22 40 45
f 22 45 25
f 23 41 24
f 23 39 42
f 23 42 43
f 23 43 41
f 24 41 44
f 27 46 47
f 27 47 28
f 28 47 48
f 28 48 29
f 29 48 49
f 29 49 50
f 29 50 51
f 29 51 30
f 30 52 53
f 30 53 31
f 30 51 54
f 30 54 55
f 30 55 52
f 31 53 33
f 33 53 56
f 33 56 57
f 33 57 34
f 34 57 37
f 35 58 36
f 35 37 57
f 35 57 79
f 35 79 103
f 35 103 122
f 35 122 148
f 35 148 173
f 35 173 202
f 35 202 223
f 35 223 252
f 35 252 224
f 35 224 203
f 35 203 174
f 35 174 149
f 35 149 123
f 35 123 104
f 35 104 81
f 35 81 80
f 35 80 58
f 36 58 59
f 36 59 60
f 36 60 38
f 38 60 39
f 39 60 61
f 39 61 42
f 40 44 62
f 40 62 45
f 41 63 69
f 41 69 44
f 41 43 68
f 41 68 63
f 42 64 65
f 42 65 43
f 42 61 66
f 42 66 67
f 42 67 64
f 43 65 87
f 43 87 68
f 44 69 62
f 50 70 51
f 51 70 92
f 51 92 71
f 51 71 54
f 52 56 53
f 52 55 72
f 52 72 56
f 54 71 73
f 54 73 55
f 55 74 75
f 55 75 76
f 55 76 77
f 55 77 72
f 55 73 74
f 56 72 78
f 56 78 57
f 57 78 79
f 58 80 59
f 59 80 81
f 59 81 82
f 59 82 83
f 59 83 84
f 59 84 61
f 59 61 60
f 61 84 66
f 64 85 86
f 64 86 65
f 64 67 91
f 64 91 85
f 65 86 87
f 66 88 67
f 66 84 89
f 66 89 90
f 66 90 88
f 67 88 109
f 67 109 91
f 71 92 94
f 71 94 73
f 72 77 93
f 72 93 78
f 73 94 95
f 73 95 74
f 74 95 96
f 74 96 75
f 75 97 98
f 75 98 76
f 75 96 97
f 76 98 99
f 76 99 100
f 76 100 101
f 76 101 77
f 77 101 93
f 78 93 102
f 78 102 103
f 78 103 79
f 81 104 82
f 82 105 83
f 82 104 106
f 82 106 107
f 82 107 105
f 83 105 84
f 84 105 108
f 84 108 89
f 88 90 110
f 88 110 109
f 89 108 111
f 89 111 112
f 89 112 90
f 90 112 110
f 93 101 113
f 93 113 102
f 99 114 100
f 100 114 136
f 100 136 115
f 100 115 101
f 101 115 116
f 101 116 117
f 101 117 118
f 101 118 113
f 102 113 119
f 102 119 120
f 102 120 103
f 103 120 121
f 103 121 122
f 104 123 124
f 104 124 106
f 105 107 125
f 105 125 126
f 105 126 108
f 106 124 127
f 106 127 128
f 106 128 107
f 107 128 129
f 107 129 125
f 108 126 111
f 110 112 131
f 110 131 111
f 110 111 130
f 111 131 112
f 111 126 132
f 111 132 133
f 111 133 134
f 111 134 135
f 111 135 130
f 113 118 119
f 115 136 137
f 115 137 116
f 116 137 138
f 116 138 139
f 116 139 117
f 117 139 140
f 117 140 141
f 117 141 118
f 118 141 142
f 118 142 143
f 118 143 144
f 118 144 119
f 119 144 120
f 120 144 145
f 120 145 146
f 120 146 121
f 121 146 147
f 121 147 122
f 122 147 148
f 123 149 150
f 123 150 124
f 124 151 127
f 124 150 151
f 125 129 132
f 125 132 126
f 127 151 152
f 127 152 153
f 127 153 128
f 128 153 154
f 128 154 129
f 129 154 155
f 129 155 132
f 132 156 133
f 132 155 157
f 132 157 156
f 133 156 158
f 133 158 135
f 133 135 134
f 140 159 141
f 141 159 160
f 141 160 142
f 142 160 161
f 142 161 162
f 142 162 163
f 142 163 143
f 143 163 164
f 143 164 165
f 143 165 166
f 143 166 167
f 143 167 168
f 143 168 144
f 144 168 145
f 145 168 169
f 145 169 146
f 146 169 170
f 146 170 147
f 147 170 171
f 147 171 172
f 147 172 148
f 148 172 173
f 149 174 175
f 149 175 150
f 150 175 176
f 150 176 177
f 150 177 151
f 151 178 152
f 151 177 178
f 152 179 153
f 152 178 180
f 152 180 179
f 153 181 182
f 153 182 183
f 153 183 184
f 153 184 185
f 153 185 186
f 153 186 187
f 153 187 154
f 153 179 181
f 154 187 188
f 154 188 155
f 155 188 189
f 155 189 157
f 156 157 158
f 157 189 158
f 162 190 163
f 163 190 191
f 163 191 164
f 164 191 192
f 164 192 165
f 165 192 193
f 165 193 166
f 166 193 194
f 166 194 214
f 166 214 195
f 166 195 169
f 166 169 167
f 167 169 168
f 169 195 170
f 170 195 196
f 170 196 171
f 171 196 197
f 171 197 198
f 171 198 172
f 172 199 173
f 172 198 200
f 172 200 199
f 173 199 201
f 173 201 202
f 174 203 175
f 175 203 204
f 175 204 205
f 175 205 206
f 175 206 207
f 175 207 176
f 176 207 177
f 177 207 208
f 177 208 209
f 177 209 178
f 178 210 180
f 178 209 210
f 179 180 211
f 179 211 212
f 179 212 181
f 180 210 209
f 180 209 211
f 181 212 211
f 181 211 213
f 182 187 186
f 182 186 185
f 182 185 184
f 182 184 183
f 195 215 216
f 195 216 196
f 195 214 238
f 195 238 215
f 196 216 198
f 196 198 197
f 198 217 200
f 198 216 217
f 199 200 218
f 199 218 219
f 199 219 201
f 200 217 218
f 201 219 220
f 201 220 221
f 201 221 222
f 201 222 223
f 201 223 202
f 203 224 204
f 204 224 225
f 204 225 226
f 204 226 227
f 204 227 205
f 205 227 206
f 206 228 207
f 206 227 229
f 206 229 230
f 206 230 228
f 207 228 231
f 207 231 208
f 208 232 209
f 208 231 232
f 209 232 211
f 211 232 233
f 211 233 234
f 211 234 213
f 213 234 233
f 213 233 235
f 213 235 236
f 213 236 237
f 215 239 240
f 215 240 216
f 215 238 239
f 216 240 241
f 216 241 242
f 216 242 217
f 217 242 243
f 217 243 244
f 217 244 245
f 217 245 218
f 218 245 219
f 219 245 246
f 219 246 220
f 220 246 247
f 220 247 248
f 220 248 249
f 220 249 221
f 221 249 222
f 222 249 250
f 222 250 251
f 222 251 252
f 222 252 223
f 224 252 225
f 225 252 251
f 225 251 253
f 225 253 226
f 226 254 255
f 226 255 227
f 226 253 254
f 227 256 229
f 227 255 256
f 228 230 257
f 228 257 258
f 228 258 259
f 228 259 231
f 229 256 260
f 229 260 230
f 230 260 261
f 230 261 257
f 231 259 262
f 231 262 232
f 232 262 236
f 232 236 235
f 232 235 233
f 236 262 237
f 237 262 259
f 237 259 263
f 239 264 240
f 240 264 265
f 240 265 241
f 241 266 242
f 241 265 267
f 241 267 296
f 241 296 266
f 242 266 243
f 243 268 244
f 243 266 269
f 243 269 270
f 243 270 268
f 244 271 272
f 244 272 273
f 244 273 245
f 244 268 274
f 244 274 271
f 245 273 275
f 245 275 276
f 245 276 246
f 246 277 278
f 246 278 247
f 246 276 277
f 247 278 279
f 247 279 280
f 247 280 248
f 248 280 281
f 248 281 249
f 249 281 282
f 249 282 250
f 250 283 284
f 250 284 251
f 250 282 283
f 251 284 253
f 253 285 254
f 253 284 285
f 254 286 287
f 254 287 255
f 254 285 286
f 255 287 288
f 255 288 256
f 256 288 287
f 256 287 289
f 256 289 260
f 257 290 291
f 257 291 258
f 257 261 292
f 257 292 290
f 258 291 263
f 258 263 259
f 260 293 294
f 260 294 295
f 260 295 261
f 260 289 293
f 261 295 292
f 266 296 269
f 271 297 272
f 272 297 298
f 272 298 275
f 272 275 273
f 275 298 299
f 275 299 300
f 275 300 276
f 276 300 301
f 276 301 303
f 276 303 277
f 277 302 278
f 277 303 302
f 278 302 304
f 278 304 306
f 278 306 279
f 279 305 280
f 279 306 328
f 279 328 305
f 280 307 308
f 280 308 309
f 280 309 310
f 280 310 281
f 280 305 307
f 281 310 282
f 282 310 283
f 283 311 312
f 283 312 284
f 283 310 311
f 284 312 285
f 285 312 313
f 285 313 314
f 285 314 315
f 285 315 286
f 286 315 316
f 286 316 317
f 286 317 289
f 286 289 287
f 289 317 318
f 289 318 319
f 289 319 293
f 290 292 320
f 290 320 321
f 290 321 322
f 290 322 291
f 292 295 323
f 293 319 324
f 293 324 325
f 293 325 327
f 293 327 294
f 294 326 295
f 294 327 326
f 295 326 323
f 305 328 329
f 305 329 307
f 307 329 332
f 307 332 308
f 308 330 331
f 308 331 309
f 308 332 330
f 309 331 333
f 309 333 334
f 309 334 310
f 310 335 311
f 310 334 335
f 311 336 337
f 311 337 312
f 311 335 345
f 311 345 336
f 312 337 313
f 316 338 317
f 317 338 339
f 317 339 318
f 318 339 340
f 318 340 319
f 319 341 324
f 319 340 341
f 330 342 331
f 331 342 343
f 331 343 333
f 333 343 344
f 333 344 335
f 333 335 334
f 335 344 345

