# https://github.com/mikedh/trimesh
v 0.07758280 0.03427113 0.04464888
v 0.10445434 0.03427113 0.04464888
v 0.07758280 0.03427113 0.05119984
v 0.07758280 0.06023560 0.04464888
v 0.10445105 0.03427113 0.04853251
v 0.10460868 0.03943892 0.04464888
v 0.11113035 0.04198097 0.04840140
v 0.11113035 0.04156950 0.04852701
v 0.11113035 0.03972486 0.04910290
v 0.11113035 0.03963768 0.04946326
v 0.11113035 0.03963768 0.05076397
v 0.08523412 0.03427113 0.05166041
v 0.07758280 0.04198097 0.05166041
v 0.07758280 0.06137935 0.04465781
v 0.07760250 0.06138284 0.04464888
v 0.10439194 0.03427113 0.04997188
v 0.10468091 0.04198097 0.04464888
v 0.11113035 0.05724372 0.04840140
v 0.10049733 0.03427113 0.05161991
v 0.10296019 0.03427113 0.05088272
v 0.10303900 0.03427113 0.05085870
v 0.10435253 0.03427113 0.04999933
v 0.11113035 0.04198097 0.05165148
v 0.09024194 0.03427113 0.05166109
v 0.07758280 0.05469819 0.05166041
v 0.07758280 0.06138284 0.04853251
v 0.08288290 0.06989120 0.04910290
v 0.08268915 0.06152929 0.04464888
v 0.08295186 0.06989120 0.04908231
v 0.08523412 0.06989120 0.04840140
v 0.10468091 0.05469819 0.04464888
v 0.10464152 0.05590121 0.04464888
v 0.10451344 0.05718793 0.04464888
v 0.10429671 0.05832470 0.04464888
v 0.11113035 0.05978926 0.04884413
v 0.09795236 0.03427113 0.05166109
v 0.10303900 0.04452650 0.05166041
v 0.11113035 0.05724372 0.05165148
v 0.09032404 0.04198097 0.05166109
v 0.08777907 0.05978926 0.05166041
v 0.08523412 0.06989120 0.05154441
v 0.07758280 0.05724372 0.05163021
v 0.07758280 0.06123638 0.05014210
v 0.08288290 0.06989120 0.05067474
v 0.08523412 0.06159206 0.04464888
v 0.10049733 0.06989120 0.04840140
v 0.10323603 0.05969162 0.04464888
v 0.10438866 0.06989120 0.04968359
v 0.11113035 0.06126428 0.04954562
v 0.09795236 0.04198097 0.05166109
v 0.10303900 0.05469819 0.05166041
v 0.11113035 0.05786442 0.05157804
v 0.10049733 0.06989120 0.05154441
v 0.09795236 0.05978926 0.05166041
v 0.10049733 0.05724372 0.05166041
v 0.07758280 0.05978926 0.05103991
v 0.09674720 0.06159206 0.04464888
v 0.10057286 0.06989120 0.04841856
v 0.10186340 0.06114572 0.04464888
v 0.10119350 0.06132356 0.04464888
v 0.10049733 0.06141073 0.04464888
v 0.09929217 0.06151883 0.04464888
v 0.09795236 0.06158857 0.04464888
v 0.10303900 0.06989120 0.04898141
v 0.10308170 0.06989120 0.04900269
v 0.11113035 0.06131310 0.05028624
v 0.10438866 0.06989120 0.04997188
v 0.11113035 0.05978926 0.05117581
v 0.10296347 0.06989120 0.05086282
v 0.11113035 0.06012402 0.05100284
v 0.10434925 0.06989120 0.04999796
v 0.10303900 0.06989120 0.05084154
f 1 2 5
f 1 5 16
f 1 16 22
f 1 22 21
f 1 21 20
f 1 20 19
f 1 19 36
f 1 36 24
f 1 24 12
f 1 12 3
f 1 3 13
f 1 13 25
f 1 25 42
f 1 42 56
f 1 56 43
f 1 43 26
f 1 26 14
f 1 14 4
f 1 4 15
f 1 15 28
f 1 28 45
f 1 45 57
f 1 57 63
f 1 63 62
f 1 62 61
f 1 61 60
f 1 60 59
f 1 59 47
f 1 47 34
f 1 34 33
f 1 33 32
f 1 32 31
f 1 31 17
f 1 17 6
f 1 6 2
f 2 6 7
f 2 7 8
f 2 8 9
f 2 9 10
f 2 10 11
f 2 11 5
f 3 12 13
f 4 14 15
f 5 11 16
f 6 17 7
f 7 17 31
f 7 31 18
f 7 18 35
f 7 35 49
f 7 49 66
f 7 66 70
f 7 70 68
f 7 68 52
f 7 52 38
f 7 38 23
f 7 23 11
f 7 11 10
f 7 10 9
f 7 9 8
f 11 19 20
f 11 20 21
f 11 21 22
f 11 22 16
f 11 23 19
f 12 24 13
f 13 24 25
f 14 26 27
f 14 27 15
f 15 27 29
f 15 29 30
f 15 30 28
f 18 31 32
f 18 32 33
f 18 33 34
f 18 34 35
f 19 23 36
f 23 37 36
f 23 38 51
f 23 51 37
f 24 36 50
f 24 50 39
f 24 39 25
f 25 40 41
f 25 41 42
f 25 39 40
f 26 43 44
f 26 44 27
f 27 44 41
f 27 41 53
f 27 53 69
f 27 69 72
f 27 72 71
f 27 71 67
f 27 67 48
f 27 48 65
f 27 65 64
f 27 64 58
f 27 58 46
f 27 46 30
f 27 30 29
f 28 30 45
f 30 46 57
f 30 57 45
f 34 47 35
f 35 47 48
f 35 48 49
f 36 37 51
f 36 51 50
f 38 52 53
f 38 53 54
f 38 54 55
f 38 55 51
f 39 50 54
f 39 54 40
f 40 54 53
f 40 53 41
f 41 44 42
f 42 44 56
f 43 56 44
f 46 58 59
f 46 59 60
f 46 60 61
f 46 61 62
f 46 62 63
f 46 63 57
f 47 59 64
f 47 64 65
f 47 65 48
f 48 66 49
f 48 67 66
f 50 51 55
f 50 55 54
f 52 68 53
f 53 68 69
f 58 64 59
f 66 67 70
f 67 71 70
f 68 70 72
f 68 72 69
f 70 71 72

