# https://github.com/mikedh/trimesh
v -0.01956592 -0.02128680 0.05362193
v -0.01965281 -0.02128680 0.05616563
v -0.01889979 -0.04198080 0.05362193
v -0.02051202 -0.02128680 0.04919031
v -0.01902529 -0.04198080 0.05616563
v -0.02048306 -0.02128680 0.06001244
v -0.01901564 -0.04452722 0.05616563
v -0.01889013 -0.05470606 0.05362193
v -0.02047341 -0.04198080 0.04919031
v -0.10739886 -0.02128680 0.04919031
v -0.02037687 -0.04198080 0.06001244
v -0.09162407 -0.02128680 0.06001244
v -0.01901564 -0.05470606 0.05616563
v -0.01889979 -0.05723876 0.05362193
v -0.02051202 -0.07345764 0.04919031
v -0.02047341 -0.05723876 0.04919031
v -0.11585585 -0.04707365 0.04919031
v -0.11585585 -0.04707365 0.06001244
v -0.11539246 -0.04596860 0.06001244
v -0.11494837 -0.04491845 0.06001244
v -0.11428224 -0.04364181 0.06001244
v -0.11376091 -0.04279071 0.06001244
v -0.11325889 -0.04198080 0.06001244
v -0.11271827 -0.04117088 0.06001244
v -0.11219695 -0.04039529 0.06001244
v -0.11115431 -0.03912551 0.06001244
v -0.11050748 -0.03838423 0.06001244
v -0.10987996 -0.03767727 0.06001244
v -0.10672308 -0.02128680 0.04971685
v -0.02037687 -0.05723876 0.06001244
v -0.09163373 -0.02128680 0.06000714
v -0.01902529 -0.05723876 0.05616563
v -0.01974935 -0.07759644 0.05616563
v -0.01963350 -0.07759644 0.05362193
v -0.02067614 -0.08268243 0.04919031
v -0.02058925 -0.08017718 0.04919031
v -0.02054098 -0.07759644 0.04919031
v -0.02052168 -0.07594916 0.04919031
v -0.11645440 -0.04892684 0.04919031
v -0.11665714 -0.04957203 0.06001244
v -0.10545839 -0.02128680 0.05060254
v -0.09290807 -0.02128680 0.05923375
v -0.09488716 -0.02128680 0.05796137
v -0.09616150 -0.02128680 0.05707569
v -0.10235943 -0.02128680 0.05276061
v -0.02049271 -0.07505001 0.06001244
v -0.02054098 -0.07759644 0.06001244
v -0.02057960 -0.07867404 0.06001244
v -0.02069545 -0.08144697 0.06001244
v -0.02085957 -0.08398653 0.06001244
v -0.02095611 -0.08522885 0.06001244
v -0.02092715 -0.08522885 0.05870933
v -0.02004863 -0.08028014 0.05355306
v -0.02082095 -0.08522885 0.04919031
v -0.11676334 -0.04989462 0.04919031
v -0.11685987 -0.05021722 0.06001244
v -0.02116850 -0.08653296 0.06001244
v -0.02084992 -0.08522885 0.05362193
v -0.02125539 -0.08777528 0.04919031
v -0.11704330 -0.05084181 0.04919031
v -0.11704330 -0.05084181 0.06001244
v -0.02138089 -0.08777528 0.06001244
v -0.02136158 -0.08777528 0.05870933
v -0.02127470 -0.08777528 0.05107822
v -0.02224976 -0.08972456 0.04919031
v -0.02230768 -0.08966966 0.06001244
v -0.02227872 -0.08969025 0.05616563
v -0.11716881 -0.05182332 0.04919031
v -0.11720742 -0.05215964 0.06001244
v -0.02185394 -0.08874306 0.06001244
v -0.02225941 -0.08971771 0.05107822
v -0.02417092 -0.09069921 0.06001244
v -0.02417092 -0.09074725 0.05107822
v -0.02417092 -0.09075412 0.04919031
v -0.11720742 -0.05215964 0.04919031
v -0.11734258 -0.05340196 0.06001244
v -0.02671960 -0.09120026 0.06001244
v -0.02671960 -0.09120712 0.05362193
v -0.02671960 -0.09120712 0.04919031
v -0.11741016 -0.05404715 0.04919031
v -0.11747774 -0.05470606 0.06001244
v -0.02926828 -0.09133067 0.06001244
v -0.02926828 -0.09133067 0.04919031
v -0.11747774 -0.05470606 0.04919031
v -0.11749704 -0.05594839 0.06001244
v -0.03180731 -0.09137872 0.06001244
v -0.03180731 -0.09137872 0.04919031
v -0.11750670 -0.05658671 0.04919031
v -0.11750670 -0.05723876 0.06001244
v -0.03305269 -0.09138557 0.06001244
v -0.03369951 -0.09139244 0.04919031
v -0.11750670 -0.05723876 0.04919031
v -0.11729431 -0.05978519 0.06001244
v -0.03435599 -0.09139244 0.06001244
v -0.07250897 -0.09139931 0.05107822
v -0.07250897 -0.09139931 0.04919031
v -0.11729431 -0.05978519 0.04919031
v -0.11710122 -0.06130893 0.06001244
v -0.07374470 -0.09139244 0.06001244
v -0.07504800 -0.09139931 0.05107822
v -0.07694020 -0.09139931 0.04919031
v -0.11710122 -0.06130893 0.04919031
v -0.11674403 -0.06258557 0.06001244
v -0.07629338 -0.09137872 0.06001244
v -0.08777209 -0.09138557 0.05362193
v -0.09475200 -0.09139244 0.04919031
v -0.11674403 -0.06258557 0.04919031
v -0.11641579 -0.06370435 0.06001244
v -0.07883241 -0.09133753 0.06001244
v -0.08013571 -0.09136499 0.05870933
v -0.09032077 -0.09136499 0.05362193
v -0.09729103 -0.09135813 0.04919031
v -0.11606824 -0.06487804 0.04919031
v -0.11606824 -0.06487804 0.06001244
v -0.08138108 -0.09123458 0.06001244
v -0.08268438 -0.09130321 0.05870933
v -0.08777209 -0.09129635 0.05616563
v -0.09540848 -0.09133753 0.05107822
v -0.09983971 -0.09122771 0.04919031
v -0.11533453 -0.06669005 0.04919031
v -0.11558554 -0.06607232 0.06001244
v -0.08392976 -0.09098063 0.06001244
v -0.08522341 -0.09114535 0.05870933
v -0.09032077 -0.09111790 0.05616563
v -0.09285980 -0.09126890 0.05362193
v -0.09794750 -0.09114535 0.05107822
v -0.10237873 -0.09078844 0.04919031
v -0.11507387 -0.06732837 0.04919031
v -0.11507387 -0.06732837 0.06001244
v -0.08655568 -0.09038348 0.06001244
v -0.08777209 -0.09074725 0.05870933
v -0.09285980 -0.09058939 0.05616563
v -0.09540848 -0.09093944 0.05362193
v -0.10049619 -0.09051390 0.05107822
v -0.10487915 -0.08989615 0.04919031
v -0.10673273 -0.08774783 0.04919031
v -0.11443670 -0.06859815 0.06001244
v -0.08861200 -0.08975203 0.06001244
v -0.09029181 -0.08993734 0.05880362
v -0.09285980 -0.08952552 0.05793065
v -0.09521539 -0.08972456 0.05611478
v -0.09798613 -0.09003343 0.05372151
v -0.09716552 -0.08941570 0.05523227
v -0.10522669 -0.08973143 0.04919031
v -0.10655896 -0.08806355 0.04919031
v -0.11364507 -0.06996403 0.06001244
v -0.08952913 -0.08937452 0.06001244
v -0.09424034 -0.08914115 0.05751429
v -0.10470538 -0.08936079 0.05008235
v -0.10880836 -0.07581188 0.06001244
v -0.11012132 -0.07454210 0.06001244
v -0.11077780 -0.07381455 0.06001244
v -0.11139566 -0.07311446 0.06001244
v -0.11189768 -0.07249672 0.06001244
v -0.11241899 -0.07184468 0.06001244
v -0.11304651 -0.07088376 0.06001244
v -0.10575767 -0.07815240 0.06001244
v -0.10662654 -0.07753467 0.06001244
v -0.10753402 -0.07688262 0.06001244
f 1 2 3
f 1 3 4
f 1 4 10
f 1 10 29
f 1 29 41
f 1 41 45
f 1 45 44
f 1 44 43
f 1 43 42
f 1 42 31
f 1 31 12
f 1 12 6
f 1 6 2
f 2 5 3
f 2 6 5
f 3 5 7
f 3 7 8
f 3 8 9
f 3 9 4
f 4 9 16
f 4 16 15
f 4 15 38
f 4 38 37
f 4 37 36
f 4 36 35
f 4 35 54
f 4 54 59
f 4 59 65
f 4 65 74
f 4 74 79
f 4 79 83
f 4 83 87
f 4 87 91
f 4 91 96
f 4 96 101
f 4 101 106
f 4 106 112
f 4 112 119
f 4 119 127
f 4 127 135
f 4 135 144
f 4 144 145
f 4 145 136
f 4 136 128
f 4 128 120
f 4 120 113
f 4 113 107
f 4 107 102
f 4 102 97
f 4 97 92
f 4 92 88
f 4 88 84
f 4 84 80
f 4 80 75
f 4 75 68
f 4 68 60
f 4 60 55
f 4 55 39
f 4 39 17
f 4 17 10
f 5 11 7
f 5 6 11
f 6 12 28
f 6 28 27
f 6 27 26
f 6 26 25
f 6 25 24
f 6 24 23
f 6 23 22
f 6 22 21
f 6 21 20
f 6 20 19
f 6 19 18
f 6 18 40
f 6 40 56
f 6 56 61
f 6 61 69
f 6 69 76
f 6 76 81
f 6 81 85
f 6 85 89
f 6 89 93
f 6 93 98
f 6 98 103
f 6 103 108
f 6 108 114
f 6 114 121
f 6 121 129
f 6 129 137
f 6 137 146
f 6 146 156
f 6 156 155
f 6 155 154
f 6 154 153
f 6 153 152
f 6 152 151
f 6 151 150
f 6 150 159
f 6 159 158
f 6 158 157
f 6 157 147
f 6 147 138
f 6 138 130
f 6 130 122
f 6 122 115
f 6 115 109
f 6 109 104
f 6 104 99
f 6 99 94
f 6 94 90
f 6 90 86
f 6 86 82
f 6 82 77
f 6 77 72
f 6 72 66
f 6 66 70
f 6 70 62
f 6 62 57
f 6 57 51
f 6 51 50
f 6 50 49
f 6 49 48
f 6 48 47
f 6 47 46
f 6 46 30
f 6 30 11
f 7 13 8
f 7 11 30
f 7 30 13
f 8 13 32
f 8 32 14
f 8 14 15
f 8 15 16
f 8 16 9
f 10 17 18
f 10 18 19
f 10 19 20
f 10 20 21
f 10 21 22
f 10 22 23
f 10 23 24
f 10 24 25
f 10 25 26
f 10 26 27
f 10 27 28
f 10 28 29
f 12 31 28
f 13 30 32
f 14 32 33
f 14 33 34
f 14 34 35
f 14 35 36
f 14 36 37
f 14 37 38
f 14 38 15
f 17 39 18
f 18 39 40
f 28 41 29
f 28 31 42
f 28 42 43
f 28 43 44
f 28 44 45
f 28 45 41
f 30 46 32
f 32 46 47
f 32 47 33
f 33 47 48
f 33 48 49
f 33 49 50
f 33 50 51
f 33 51 34
f 34 51 52
f 34 52 53
f 34 53 54
f 34 54 35
f 39 55 40
f 40 55 56
f 51 57 52
f 52 57 58
f 52 58 53
f 53 58 54
f 54 58 59
f 55 60 56
f 56 60 61
f 57 62 58
f 58 62 63
f 58 63 64
f 58 64 59
f 59 64 66
f 59 66 67
f 59 67 65
f 60 68 61
f 61 68 69
f 62 70 63
f 63 70 66
f 63 66 64
f 65 67 71
f 65 71 72
f 65 72 73
f 65 73 74
f 66 72 67
f 67 72 71
f 68 75 69
f 69 75 76
f 72 77 73
f 73 77 74
f 74 77 78
f 74 78 79
f 75 80 76
f 76 80 81
f 77 82 78
f 78 82 83
f 78 83 79
f 80 84 81
f 81 84 85
f 82 86 87
f 82 87 83
f 84 88 85
f 85 88 89
f 86 90 91
f 86 91 87
f 88 92 89
f 89 92 97
f 89 97 93
f 90 94 91
f 91 94 95
f 91 95 96
f 93 97 102
f 93 102 98
f 94 99 100
f 94 100 95
f 95 100 101
f 95 101 96
f 98 102 107
f 98 107 103
f 99 104 105
f 99 105 106
f 99 106 100
f 100 106 101
f 103 107 108
f 104 109 110
f 104 110 111
f 104 111 105
f 105 111 106
f 106 111 112
f 107 113 108
f 108 113 114
f 109 115 116
f 109 116 111
f 109 111 110
f 111 116 117
f 111 117 125
f 111 125 118
f 111 118 112
f 112 118 119
f 113 120 121
f 113 121 114
f 115 122 123
f 115 123 117
f 115 117 116
f 117 124 125
f 117 123 124
f 118 125 119
f 119 125 126
f 119 126 127
f 120 128 129
f 120 129 121
f 122 130 131
f 122 131 124
f 122 124 123
f 124 131 132
f 124 132 133
f 124 133 126
f 124 126 125
f 126 133 127
f 127 133 132
f 127 132 134
f 127 134 135
f 128 136 129
f 129 136 137
f 130 138 139
f 130 139 131
f 131 139 132
f 132 139 140
f 132 140 141
f 132 141 142
f 132 142 134
f 134 142 135
f 135 142 141
f 135 141 143
f 135 143 144
f 136 145 137
f 137 145 146
f 138 147 140
f 138 140 139
f 140 147 148
f 140 148 143
f 140 143 141
f 143 148 149
f 143 149 144
f 144 149 150
f 144 150 151
f 144 151 152
f 144 152 153
f 144 153 154
f 144 154 155
f 144 155 145
f 145 155 156
f 145 156 146
f 147 157 148
f 148 157 158
f 148 158 159
f 148 159 149
f 149 159 150

