# https://github.com/mikedh/trimesh
v -0.77377947 1.90199578 14.20754677
v -0.77377947 1.91013166 14.20700164
v -0.83473576 1.89142509 14.16953772
v -0.83473576 1.88946532 14.16953772
v -0.77377947 1.88851513 14.20744764
v -0.77377947 1.92432495 14.20581232
v -0.84360600 1.90015483 14.16284772
v -0.86172474 1.90199578 14.15060752
v -0.86252351 1.87972600 14.15115265
v -0.86277569 1.85745622 14.15100398
v -0.77377947 1.87972600 14.20734857
v -0.77377947 1.94594147 14.20145144
v -0.79072114 1.93756803 14.19218460
v -0.85819350 1.93816189 14.14798108
v -0.83187719 1.92432495 14.16775374
v -0.84574999 1.92432495 14.15863550
v -0.86000112 1.92432495 14.14922000
v -0.87114143 1.92432495 14.14183622
v -0.87286506 1.90199578 14.14248041
v -0.88644358 1.92432495 14.13068627
v -0.87366376 1.87972600 14.14297601
v -0.87391601 1.85745622 14.14337240
v -0.77377947 1.85745622 14.20625832
v -0.77377947 1.86606721 14.20670431
v -0.86172474 1.83518644 14.15040932
v -0.77377947 1.96446996 14.19495964
v -0.78824085 1.95241455 14.19069789
v -0.85478834 1.95300841 14.14575111
v -0.86660127 1.94600090 14.13985397
v -0.88308052 1.94659476 14.12796070
v -0.92074729 1.94659476 14.10055653
v -0.92390020 1.91428870 14.10273698
v -0.93684820 1.94754492 14.08811807
v -0.92280722 1.92913522 14.10194405
v -0.92411041 1.90199578 14.10293517
v -0.88795699 1.85745622 14.13227199
v -0.88720031 1.83518644 14.13142953
v -0.87286506 1.83518644 14.14257954
v -0.84574999 1.83518644 14.16022128
v -0.78159869 1.44092220 14.16438397
v -0.77377947 1.44092220 14.16909172
v -0.84974369 1.44092220 14.12013092
v -0.81068957 1.44092220 14.14609797
v -0.80736851 1.44092220 14.14822888
v -0.79954928 1.44092220 14.15323396
v -0.79412626 1.44092220 14.15660372
v -0.81396860 1.96019413 14.17062797
v -0.77377947 1.97521880 14.18975636
v -0.78008528 1.97082425 14.18797232
v -0.83553453 1.98074171 14.14773329
v -0.85041630 1.96886451 14.14297601
v -0.91637525 1.96886451 14.09763277
v -0.93201370 1.96886451 14.08653229
v -0.94559228 1.95562144 14.07999102
v -0.93525073 1.90199578 14.09386654
v -0.93277044 1.92272151 14.09480806
v -0.94819867 1.92432495 14.08222100
v -0.94710569 1.94071549 14.08127941
v -0.92427853 1.87972600 14.10303431
v -0.92360592 1.84837012 14.10253871
v -0.92411041 1.86327607 14.10293517
v -0.89834057 1.83518644 14.12231136
v -0.90834581 1.44092220 14.07478768
v -0.89195069 1.44092220 14.08816767
v -0.88871372 1.44092220 14.09079411
v -0.87656449 1.44092220 14.10060607
v -0.86542417 1.44092220 14.10898091
v -0.77377947 1.44092220 13.94396124
v -0.77377947 1.99095611 14.17726837
v -0.79378996 1.98293902 14.17186682
v -0.90212412 1.98074171 14.10308384
v -0.92146193 2.00022035 14.07914857
v -0.92776781 1.98537383 14.08326165
v -0.94315402 1.96886451 14.07810791
v -0.97031112 1.94196258 14.06002017
v -0.95509304 1.96886451 14.06695790
v -0.94861903 1.90199578 14.08271653
v -0.93541885 1.87972600 14.09386654
v -0.95933899 1.92432495 14.07250811
v -0.97182453 1.92432495 14.06135816
v -0.93289653 1.85650603 14.09530366
v -0.94836685 1.85745622 14.08241920
v -0.94727381 1.83518644 14.08142814
v -0.94555025 1.80573094 14.07999102
v -0.92213461 1.44092220 14.06338994
v -0.98695848 1.44092220 13.70128814
v -0.95366369 1.87972600 13.70128814
v -0.95299107 1.89124688 13.70128814
v -0.95244462 1.90241150 13.70128814
v -0.95265477 1.91482320 13.70128814
v -0.95286499 1.92355294 13.70128814
v -0.77377947 1.83518644 13.96769831
v -0.77377947 2.00069543 14.16785280
v -0.87971740 2.00259581 14.10298477
v -0.93508255 1.99214384 14.07384616
v -0.91389495 2.01441365 14.07003033
v -0.93487233 2.00722793 14.06304301
v -0.94643301 2.00271459 14.05848392
v -0.95000635 1.99113426 14.06200235
v -0.99204517 1.94071549 14.03752195
v -0.98296478 1.92432495 14.05005948
v -0.96804104 1.95680916 14.05779013
v -0.98010615 1.94879201 14.04768084
v -0.96623335 1.96886451 14.05575835
v -0.97237098 1.90199578 14.06160596
v -0.94861903 1.87972600 14.08276613
v -0.98351130 1.90199578 14.05070374
v -0.95950711 1.85745622 14.07226037
v -0.97064742 1.83518644 14.06031750
v -0.96972257 1.81291666 14.05937591
v -0.95841413 1.83518644 14.07146745
v -0.97207671 1.87972600 14.06140769
v -0.97451497 1.44092220 14.01883956
v -1.20186116 1.44092220 13.70128814
v -0.95341151 1.93596458 13.70128814
v -0.95412615 1.94659476 13.70128814
v -0.95505101 1.95805625 13.70128814
v -0.77377947 1.84154076 13.96863990
v -0.77377947 2.00473369 14.16205486
v -0.90632798 2.02646900 14.06091216
v -0.92116766 2.02332160 14.05590702
v -0.93558704 2.01868941 14.04787904
v -0.95135158 2.00699036 14.04693752
v -0.96757858 2.00122994 14.03489551
v -0.97232895 1.98638342 14.04044572
v -0.98990124 1.95556201 14.03504418
v -0.99881344 1.94754492 14.02642154
v -1.01087862 1.94659476 14.01081158
v -1.01234993 1.93257961 14.01289289
v -1.01361116 1.91773309 14.01447867
v -0.99326430 1.92432495 14.03890954
v -0.99385285 1.90199578 14.03955373
v -0.97640672 1.96886451 14.04465794
v -0.98321702 1.87972600 14.05055508
v -0.99381082 1.87972600 14.03940507
v -0.97144613 1.85745622 14.06111036
v -0.98178774 1.83518644 14.04956395
v -0.98086288 1.81291666 14.04882063
v -0.98565529 1.44092220 14.00887893
v -1.19589158 1.44092220 13.71352834
v -1.17138296 1.74604793 13.77354002
v -1.17920219 1.74604793 13.75733540
v -1.18777808 1.74604793 13.73800874
v -1.20316428 1.65702817 13.70128814
v -0.95610195 1.96886451 13.70128814
v -0.77377947 1.85745622 13.97111767
v -0.77377947 2.00704978 14.15779311
v -0.81598643 2.02575642 14.10511562
v -0.89031119 2.02866631 14.06448013
v -0.89031119 2.03620832 14.04693752
v -0.91330640 2.02979461 14.04787904
v -0.94344829 2.02302467 14.03256641
v -0.92860855 2.02688472 14.04104038
v -0.97291750 2.00693100 14.02002888
v -0.95837210 2.01500751 14.02627287
v -0.99292799 2.00461490 13.99455735
v -0.98775725 1.99808247 14.00942399
v -1.01293848 1.98014785 13.99138585
v -0.99275987 1.98323595 14.01641132
v -0.98754704 1.96886451 14.03182308
v -0.99616503 1.96886451 14.02067314
v -1.00730528 1.96886451 14.00585603
v -1.01890799 1.94659476 13.99971116
v -1.03261267 1.92432495 13.98761963
v -1.03425223 1.90597461 13.99009740
v -1.03513499 1.89112816 13.99128672
v -1.00499317 1.90199578 14.02642154
v -1.01487232 1.87972600 14.01591579
v -1.01487232 1.85745622 14.01591579
v -0.99355857 1.85745622 14.03885994
v -0.99318024 1.83518644 14.03841394
v -1.00469889 1.85745622 14.02706573
v -0.99238154 1.81291666 14.03767062
v -0.99347451 1.44092220 14.00109868
v -1.19425208 1.44092220 13.71669991
v -1.14906030 1.76831771 13.81794174
v -1.16566563 1.74604793 13.78469000
v -1.15700568 1.76831771 13.80193531
v -1.14889218 1.79064685 13.81769394
v -1.17890791 1.76831771 13.75733540
v -1.18777808 1.76831771 13.73781055
v -1.20320638 1.66777707 13.70128814
v -0.95841413 1.98038542 13.70128814
v -0.77377947 1.96886451 13.99985983
v -0.77377947 2.01738297 14.13559222
v -0.80123081 2.02664721 14.10784119
v -0.86803056 2.03911821 14.04693752
v -0.89031119 2.04095923 14.02463756
v -0.91259176 2.03709912 14.02463756
v -0.96400530 2.02177752 14.00630203
v -0.94916556 2.02617207 14.01769977
v -0.93558704 2.02943832 14.02493489
v -0.99734206 2.00805937 13.98008718
v -1.01209775 2.00134872 13.96759918
v -1.00848238 1.99612274 13.98008718
v -1.01621755 1.98495812 13.98008718
v -1.03605985 1.98157315 13.94856992
v -1.03206621 1.97373414 13.96338703
v -1.03563948 1.95888768 13.96982922
v -1.01525066 1.96886451 13.99470602
v -1.03004831 1.94659476 13.98350654
v -1.04043189 1.92432495 13.97646962
v -1.05380026 1.90199578 13.96368436
v -1.04114660 1.89997662 13.98162343
v -1.05497736 1.87972600 13.96561700
v -1.04408929 1.87972600 13.98008718
v -1.03534521 1.87972600 13.99153452
v -1.02601257 1.87972600 14.00268446
v -1.03542927 1.86315728 13.99163358
v -1.05476714 1.81291666 13.96576567
v -1.01432580 1.83518644 14.01532113
v -1.00432056 1.83518644 14.02642154
v -1.00352179 1.81291666 14.02577735
v -1.01331688 1.79818889 14.01403267
v -1.00797789 1.44092220 13.98598431
v -1.00465686 1.44092220 13.98950274
v -0.99683764 1.44092220 13.99772892
v -1.19076287 1.44092220 13.72338990
v -1.14317491 1.76831771 13.82909169
v -1.14304876 1.79064685 13.82884389
v -1.15654321 1.79064685 13.80193531
v -1.12509820 1.83518644 13.85922143
v -1.12459371 1.84926092 13.85832943
v -1.15524002 1.81291666 13.80193531
v -1.16482490 1.81291666 13.78216266
v -1.16991158 1.81291666 13.77101268
v -1.17752059 1.79064685 13.75733540
v -1.18693735 1.79064685 13.73637343
v -1.19122526 1.80323670 13.72428189
v -1.19160360 1.79064685 13.72522345
v -1.19210809 1.76831771 13.72671010
v -1.20278595 1.71237599 13.70128814
v -1.20303819 1.69010621 13.70128814
v -0.96106254 1.99208448 13.70128814
v -0.77377947 1.98626463 14.00744181
v -0.77377947 2.02314339 14.12018052
v -0.77377947 2.02617207 14.10972430
v -0.77895024 2.02640964 14.10868358
v -0.80123081 2.03009154 14.09148783
v -0.84574999 2.03953400 14.04693752
v -0.86803056 2.04214695 14.02463756
v -0.89031119 2.04285960 14.00238713
v -0.91259176 2.04078108 14.00238713
v -0.93487233 2.03543631 14.00238713
v -0.96841937 2.02462805 13.99143539
v -0.95681666 2.02747858 14.00025622
v -1.01600733 2.00514941 13.95278214
v -0.98203992 2.01922392 13.98008718
v -1.05594425 2.02373725 13.83285791
v -1.03484078 2.00194259 13.92389132
v -1.03172990 1.99766676 13.93558639
v -1.05884491 1.98210759 13.90476286
v -1.07767836 1.97616902 13.87587204
v -1.07360060 1.96880515 13.89083781
v -1.05871882 1.96025349 13.92686462
v -1.08057902 1.93768681 13.90382134
v -1.05535570 1.94659476 13.94292058
v -1.07683756 1.92432495 13.91938177
v -1.05733157 1.93525200 13.94663727
v -1.03744717 1.94659476 13.97240606
v -1.05943346 1.92040548 13.94980877
v -1.06136730 1.90199578 13.95258388
v -1.07410502 1.87972600 13.93826237
v -1.06296477 1.87972600 13.95446699
v -1.06359535 1.85745622 13.95516078
v -1.05535570 1.85745622 13.96631079
v -1.05506142 1.83518644 13.96606300
v -1.06351123 1.81291666 13.95461565
v -1.06292274 1.79064685 13.95382280
v -1.05405250 1.79064685 13.96492321
v -1.01377928 1.81291666 14.01462733
v -1.04652756 1.44092220 13.94168173
v -1.03870833 1.44092220 13.95094856
v -1.03584970 1.44092220 13.95431832
v -1.02912345 1.44092220 13.96204897
v -1.02580242 1.44092220 13.96586480
v -1.01798320 1.44092220 13.97483430
v -1.16738926 1.44092220 13.76595804
v -1.13342185 1.76831771 13.84648563
v -1.13333779 1.79064685 13.84648563
v -1.12547653 1.81291666 13.85981609
v -1.11883435 1.83518644 13.87032184
v -1.10706351 1.85745622 13.88836004
v -1.11904456 1.85698114 13.86695207
v -1.12366885 1.86410744 13.85639672
v -1.14649594 1.84635103 13.81308526
v -1.15313806 1.83518644 13.80193531
v -1.16923897 1.82705053 13.76957560
v -1.17596515 1.81291666 13.75733540
v -1.18660104 1.81155076 13.73305320
v -1.19042656 1.81808322 13.72195279
v -1.19761521 1.81226340 13.70128814
v -1.19870818 1.80032681 13.70128814
v -1.19954898 1.79064685 13.70128814
v -1.19576549 1.79064685 13.71278502
v -1.19702665 1.76831771 13.71278502
v -1.20207131 1.73464577 13.70128814
v -0.96366900 1.99980464 13.70128814
v -0.96614929 2.00586206 13.70128814
v -0.77377947 1.99552887 14.01437954
v -0.77377947 2.02836938 14.09158696
v -0.77895024 2.02902267 14.09148783
v -0.84574999 2.04089980 14.02463756
v -0.86803056 2.04202817 14.00238713
v -1.04963843 2.04755109 13.70128814
v -1.05535570 2.04755109 13.70128814
v -1.06225006 2.04743230 13.70128814
v -1.05976977 2.04731358 13.70708615
v -0.91259176 2.04250325 13.98008718
v -1.06679029 2.04660086 13.70128814
v -1.07225531 2.04541314 13.70128814
v -1.06771515 2.04475991 13.71382567
v -1.06851385 2.04119673 13.73508498
v -1.06851385 2.03626775 13.75733540
v -1.05960165 2.02593450 13.81799127
v -1.06023223 2.00509005 13.86873606
v -1.05199257 2.02118365 13.84648563
v -1.07780445 2.02332160 13.78726687
v -1.07435727 2.02053043 13.80193531
v -1.06763102 2.01714540 13.82492906
v -1.06855594 2.00853438 13.84425565
v -1.08141982 2.02581578 13.77244980
v -1.05737360 2.00229888 13.87988607
v -1.07183494 1.99042167 13.86858739
v -1.06153542 1.99018410 13.88880604
v -1.08129367 1.98252330 13.86105494
v -1.08486700 1.96880515 13.86858739
v -1.08146185 1.96132250 13.88325583
v -1.07751018 1.95253333 13.89812247
v -1.08411027 1.94570397 13.89083781
v -1.10294372 1.93786496 13.85966742
v -1.09192949 1.92432495 13.89103601
v -1.08297526 1.92432495 13.90823176
v -1.07910764 1.90983472 13.92349486
v -1.08032678 1.89498820 13.92547704
v -1.07360060 1.90223335 13.93400061
v -1.08133570 1.87972600 13.92711242
v -1.08217649 1.85745622 13.92830174
v -1.07473560 1.85745622 13.93945169
v -1.07465154 1.81291666 13.93955082
v -1.06355326 1.83518644 13.95491298
v -1.07406299 1.79064685 13.93915436
v -1.08495106 1.44092220 13.89356332
v -1.07902358 1.44092220 13.90134357
v -1.07620698 1.44092220 13.90501066
v -1.06645398 1.44092220 13.91730039
v -1.05632258 1.44092220 13.92978839
v -1.15927576 1.44092220 13.77963536
v -1.12560262 1.76831771 13.85966742
v -1.12564465 1.79064685 13.85991522
v -1.11891847 1.81291666 13.87096603
v -1.10769410 1.83518644 13.88920243
v -1.10033727 1.85745622 13.89946045
v -1.09003775 1.87972600 13.91328644
v -1.09945451 1.87972600 13.89762687
v -1.10555011 1.87972600 13.88647693
v -1.11479868 1.87972600 13.86873606
v -1.12232363 1.87972600 13.85347295
v -1.15015334 1.85525891 13.80277774
v -1.16432041 1.83477072 13.77804957
v -1.16036880 1.85745622 13.77963536
v -1.17272818 1.83477072 13.75857425
v -1.18227103 1.83518644 13.73508498
v -1.18887112 1.83518644 13.71714590
v -1.19391578 1.83518644 13.70128814
v -1.19500875 1.82841640 13.70128814
v -1.20064196 1.76831771 13.70128814
v -0.96917604 2.00995968 13.70128814
v -0.77377947 2.00788115 14.02756133
v -0.77377947 1.99831998 14.01655998
v -0.77377947 2.02712222 14.07052593
v -0.82351145 2.03603017 14.02463756
v -1.02395271 2.04363155 13.70128814
v -1.04001152 2.04660086 13.70128814
v -1.04598103 2.04725415 13.70128814
v -1.08982760 2.03846499 13.70128814
v -1.09079448 2.03561452 13.71278502
v -1.08490903 2.02819123 13.75733540
v -1.07965417 2.00229888 13.83533569
v -1.09979075 2.02266831 13.74063518
v -1.08200837 2.00479312 13.82418567
v -1.07599677 1.99742918 13.85020232
v -1.10260735 1.98109807 13.81467104
v -1.09945451 1.97480315 13.82948815
v -1.09567095 1.96797372 13.84569277
v -1.08360584 1.99042167 13.84425565
v -1.09979075 1.95271148 13.85258096
v -1.09562892 1.94582269 13.86774493
v -1.10580235 1.94582269 13.84569277
v -1.14569724 1.93341105 13.76665183
v -1.12396313 1.91203203 13.83474102
v -1.10529786 1.92432495 13.86437517
v -1.09974872 1.92432495 13.87552518
v -1.10172459 1.91238832 13.87944007
v -1.09823531 1.90377737 13.89093688
v -1.10374242 1.89754180 13.88340450
v -1.08541346 1.90223335 13.91497129
v -1.09171934 1.85745622 13.91328644
v -1.10079973 1.83518644 13.90035244
v -1.10100994 1.81291666 13.90064977
v -1.08234468 1.83518644 13.92840087
v -1.08242874 1.81291666 13.92845041
v -1.08217649 1.79064685 13.92800441
v -1.09852958 1.44092220 13.87527738
v -1.09516652 1.44092220 13.87983647
v -1.12493001 1.44092220 13.83642587
v -1.10063154 1.79064685 13.90010465
v -1.10777816 1.81291666 13.88949983
v -1.12051594 1.90359922 13.84608923
v -1.12560262 1.89718551 13.83840812
v -1.14889218 1.87972600 13.79583998
v -1.15599676 1.87972600 13.77963536
v -1.16692680 1.85745622 13.76338113
v -1.17121478 1.85745622 13.75223119
v -1.17756269 1.85745622 13.73508498
v -1.17020586 1.90199578 13.72760212
v -1.18033719 1.87972600 13.71278502
v -1.18407872 1.87984475 13.70128814
v -1.18706344 1.86648289 13.70128814
v -1.19118324 1.84682610 13.70198194
v -1.19093099 1.84884523 13.70128814
v -0.97371627 2.01589831 13.70128814
v -0.98023230 2.02320275 13.70128814
v -0.77377947 2.01851127 14.04599593
v -1.00167207 2.03626775 13.70128814
v -0.77377947 2.02444990 14.05848392
v -1.10714757 2.02848816 13.70128814
v -1.09171934 2.03015097 13.73394519
v -1.10260735 2.02510313 13.72581811
v -1.10702148 2.00799994 13.75733540
v -1.10370039 2.00437740 13.77274713
v -1.12181913 1.99879512 13.73954499
v -1.11908659 1.99131247 13.75892115
v -1.10538199 1.98513626 13.80193531
v -1.11828789 2.01851127 13.70128814
v -1.11622796 2.01625460 13.71278502
v -1.11223426 2.01263206 13.73265677
v -1.12375291 1.97913827 13.76734559
v -1.13182438 1.97058674 13.75892115
v -1.14569724 1.95579958 13.74390585
v -1.10559214 1.96797372 13.82294682
v -1.10298575 1.95995656 13.83776393
v -1.14321688 1.94766364 13.75847515
v -1.15191899 1.92527511 13.75847515
v -1.14838769 1.91856446 13.77294536
v -1.14876602 1.94095306 13.75183473
v -1.14506659 1.90840949 13.78781200
v -1.15032146 1.90140192 13.78008135
v -1.14721058 1.89356297 13.79237109
v -1.10836671 1.90377737 13.87071830
v -1.09201362 1.79064685 13.91328644
v -1.09260210 1.81291666 13.91328644
v -1.11442028 1.44092220 13.85253143
v -1.10660105 1.44092220 13.86412737
v -1.10416279 1.44092220 13.86749720
v -1.11811971 1.44092220 13.84688209
v -1.16495099 1.87942907 13.75649294
v -1.15923373 1.90199578 13.75733540
v -1.16953325 1.87182766 13.74851450
v -1.17239188 1.87942907 13.73572920
v -1.16612809 1.90199578 13.73875207
v -1.16881861 1.91327912 13.72403410
v -1.18151430 1.89089059 13.70128814
v -0.98561326 2.02813187 13.70128814
v -0.77377947 2.02237138 14.05347885
v -1.10508771 2.02694414 13.71278502
v -1.11290687 2.02367789 13.70128814
v -1.12446762 2.00265523 13.72467836
v -1.12904981 1.99131247 13.73330099
v -1.12677973 1.98394860 13.75252852
v -1.12324848 2.01310714 13.70128814
v -1.14178759 1.96868637 13.73592743
v -1.15170878 1.94766364 13.73592743
v -1.14826160 1.96114429 13.72903921
v -1.15986431 1.94659476 13.71278502
v -1.16860839 1.93495507 13.70128814
v -1.16251279 1.92212764 13.73290453
v -1.16865042 1.93483628 13.70128814
v -1.17050013 1.91850510 13.71278502
v -1.17646964 1.91001294 13.70128814
v -1.17869769 1.90199578 13.70128814
v -1.12644342 2.00509005 13.71278502
v -1.13405243 1.99938899 13.70128814
v -1.13951751 1.99137183 13.70128814
v -1.13804613 1.98905580 13.71085237
v -1.14430992 1.97599087 13.71694767
v -1.12833517 2.00734672 13.70128814
v -1.15839293 1.95764053 13.70128814
v -1.16339555 1.94701042 13.70128814
v -1.15006928 1.96868637 13.71085237
v -1.17247594 1.92289972 13.70128814
v -1.14628579 1.98115743 13.70128814
v -1.14662203 1.98020728 13.70208103
v -1.14729471 1.97943520 13.70128814
v -1.15288588 1.96874572 13.70128814
v -1.14674819 1.98038542 13.70128814
f 1 2 3
f 1 3 4
f 1 4 5
f 1 5 11
f 1 11 24
f 1 24 23
f 1 23 41
f 1 41 68
f 1 68 92
f 1 92 118
f 1 118 146
f 1 146 184
f 1 184 235
f 1 235 300
f 1 300 370
f 1 370 369
f 1 369 424
f 1 424 465
f 1 465 426
f 1 426 371
f 1 371 301
f 1 301 237
f 1 237 236
f 1 236 185
f 1 185 147
f 1 147 119
f 1 119 93
f 1 93 69
f 1 69 48
f 1 48 26
f 1 26 12
f 1 12 6
f 1 6 2
f 2 6 3
f 3 7 8
f 3 8 9
f 3 9 10
f 3 10 4
f 3 6 7
f 4 11 5
f 4 10 11
f 6 12 13
f 6 13 14
f 6 14 15
f 6 15 7
f 7 15 16
f 7 16 17
f 7 17 18
f 7 18 8
f 8 19 9
f 8 18 20
f 8 20 19
f 9 19 21
f 9 21 22
f 9 22 10
f 10 23 24
f 10 24 11
f 10 22 25
f 10 25 23
f 12 26 27
f 12 27 13
f 13 27 14
f 14 18 17
f 14 17 16
f 14 16 15
f 14 27 28
f 14 28 29
f 14 29 30
f 14 30 18
f 18 30 31
f 18 31 20
f 19 32 21
f 19 20 32
f 20 31 33
f 20 33 34
f 20 34 32
f 21 32 35
f 21 35 22
f 22 35 36
f 22 36 37
f 22 37 38
f 22 38 25
f 23 25 39
f 23 39 40
f 23 40 41
f 25 38 42
f 25 42 43
f 25 43 44
f 25 44 45
f 25 45 46
f 25 46 40
f 25 40 39
f 26 47 27
f 26 48 49
f 26 49 50
f 26 50 47
f 27 47 28
f 28 47 51
f 28 51 52
f 28 52 29
f 29 52 53
f 29 53 30
f 30 53 31
f 31 53 54
f 31 54 33
f 32 55 35
f 32 34 56
f 32 56 57
f 32 57 55
f 33 54 58
f 33 58 34
f 34 58 56
f 35 55 59
f 35 59 36
f 36 60 37
f 36 59 61
f 36 61 60
f 37 60 62
f 37 62 63
f 37 63 64
f 37 64 65
f 37 65 66
f 37 66 38
f 38 66 67
f 38 67 42
f 40 46 45
f 40 45 44
f 40 44 43
f 40 43 42
f 40 42 67
f 40 67 66
f 40 66 65
f 40 65 64
f 40 64 63
f 40 63 85
f 40 85 113
f 40 113 139
f 40 139 174
f 40 174 217
f 40 217 216
f 40 216 215
f 40 215 277
f 40 277 276
f 40 276 275
f 40 275 274
f 40 274 273
f 40 273 272
f 40 272 347
f 40 347 346
f 40 346 345
f 40 345 344
f 40 344 343
f 40 343 405
f 40 405 404
f 40 404 455
f 40 455 454
f 40 454 453
f 40 453 456
f 40 456 406
f 40 406 348
f 40 348 278
f 40 278 218
f 40 218 175
f 40 175 140
f 40 140 114
f 40 114 86
f 40 86 68
f 40 68 41
f 47 50 51
f 48 69 70
f 48 70 50
f 48 50 49
f 50 71 51
f 50 70 72
f 50 72 71
f 51 71 52
f 52 71 73
f 52 73 53
f 53 73 74
f 53 74 54
f 54 75 58
f 54 74 76
f 54 76 75
f 55 57 77
f 55 77 78
f 55 78 59
f 56 58 57
f 57 58 79
f 57 79 77
f 58 75 80
f 58 80 79
f 59 78 61
f 60 61 81
f 60 81 82
f 60 82 83
f 60 83 84
f 60 84 85
f 60 85 62
f 61 78 82
f 61 82 81
f 62 85 63
f 68 86 87
f 68 87 88
f 68 88 89
f 68 89 90
f 68 90 91
f 68 91 92
f 69 93 94
f 69 94 70
f 70 94 72
f 71 72 73
f 72 95 73
f 72 94 96
f 72 96 97
f 72 97 98
f 72 98 95
f 73 95 99
f 73 99 74
f 74 99 76
f 75 100 101
f 75 101 80
f 75 76 102
f 75 102 103
f 75 103 100
f 76 99 104
f 76 104 102
f 77 105 106
f 77 106 78
f 77 79 105
f 78 106 82
f 79 80 105
f 80 101 107
f 80 107 105
f 82 108 109
f 82 109 110
f 82 110 111
f 82 111 83
f 82 106 112
f 82 112 108
f 83 111 110
f 83 110 113
f 83 113 84
f 84 113 85
f 86 114 144
f 86 144 182
f 86 182 233
f 86 233 232
f 86 232 297
f 86 297 367
f 86 367 294
f 86 294 293
f 86 293 292
f 86 292 366
f 86 366 365
f 86 365 421
f 86 421 419
f 86 419 418
f 86 418 463
f 86 463 481
f 86 481 480
f 86 480 491
f 86 491 478
f 86 478 476
f 86 476 489
f 86 489 488
f 86 488 495
f 86 495 494
f 86 494 496
f 86 496 492
f 86 492 484
f 86 484 483
f 86 483 487
f 86 487 471
f 86 471 435
f 86 435 467
f 86 467 427
f 86 427 376
f 86 376 311
f 86 311 310
f 86 310 307
f 86 307 306
f 86 306 305
f 86 305 375
f 86 375 374
f 86 374 373
f 86 373 425
f 86 425 464
f 86 464 423
f 86 423 422
f 86 422 368
f 86 368 299
f 86 299 298
f 86 298 234
f 86 234 183
f 86 183 145
f 86 145 117
f 86 117 116
f 86 116 115
f 86 115 91
f 86 91 90
f 86 90 89
f 86 89 88
f 86 88 87
f 91 115 92
f 92 115 116
f 92 116 117
f 92 117 118
f 93 119 120
f 93 120 121
f 93 121 96
f 93 96 94
f 95 98 99
f 96 121 97
f 97 121 98
f 98 121 122
f 98 122 123
f 98 123 124
f 98 124 125
f 98 125 99
f 99 125 104
f 100 103 126
f 100 126 127
f 100 127 128
f 100 128 129
f 100 129 130
f 100 130 131
f 100 131 101
f 101 131 132
f 101 132 107
f 102 104 103
f 103 104 126
f 104 125 133
f 104 133 126
f 105 107 134
f 105 134 112
f 105 112 106
f 107 132 135
f 107 135 134
f 108 112 136
f 108 136 109
f 109 137 138
f 109 138 110
f 109 136 137
f 110 138 139
f 110 139 113
f 112 134 136
f 114 140 141
f 114 141 142
f 114 142 143
f 114 143 144
f 117 145 118
f 118 145 146
f 119 147 148
f 119 148 120
f 120 148 149
f 120 149 150
f 120 150 151
f 120 151 121
f 121 152 122
f 121 151 153
f 121 153 152
f 122 152 123
f 123 154 124
f 123 152 155
f 123 155 154
f 124 154 156
f 124 156 157
f 124 157 158
f 124 158 159
f 124 159 125
f 125 159 160
f 125 160 133
f 126 128 127
f 126 133 160
f 126 160 161
f 126 161 162
f 126 162 128
f 128 162 163
f 128 163 164
f 128 164 129
f 129 164 165
f 129 165 130
f 130 165 166
f 130 166 131
f 131 166 167
f 131 167 132
f 132 167 168
f 132 168 169
f 132 169 135
f 134 135 170
f 134 170 171
f 134 171 136
f 135 169 172
f 135 172 170
f 136 171 137
f 137 171 173
f 137 173 138
f 138 173 139
f 139 173 174
f 140 175 176
f 140 176 177
f 140 177 141
f 141 177 176
f 141 176 178
f 141 178 179
f 141 179 180
f 141 180 142
f 142 180 181
f 142 181 143
f 143 182 144
f 143 181 182
f 145 183 184
f 145 184 146
f 147 185 186
f 147 186 148
f 148 186 187
f 148 187 150
f 148 150 149
f 150 187 188
f 150 188 189
f 150 189 151
f 151 189 153
f 152 190 155
f 152 153 191
f 152 191 190
f 153 189 192
f 153 192 191
f 154 155 190
f 154 190 156
f 156 193 194
f 156 194 195
f 156 195 158
f 156 158 157
f 156 190 193
f 158 195 196
f 158 196 197
f 158 197 198
f 158 198 199
f 158 199 200
f 158 200 162
f 158 162 159
f 159 162 161
f 159 161 160
f 162 200 163
f 163 200 199
f 163 199 201
f 163 201 202
f 163 202 164
f 164 202 203
f 164 203 165
f 165 203 204
f 165 204 166
f 166 204 205
f 166 205 206
f 166 206 207
f 166 207 208
f 166 208 168
f 166 168 167
f 168 208 209
f 168 209 169
f 169 209 210
f 169 210 211
f 169 211 212
f 169 212 172
f 170 172 171
f 171 172 212
f 171 212 213
f 171 213 173
f 173 213 214
f 173 214 215
f 173 215 216
f 173 216 217
f 173 217 174
f 175 218 176
f 176 219 220
f 176 220 179
f 176 179 178
f 176 218 219
f 179 221 180
f 179 220 222
f 179 222 223
f 179 223 224
f 179 224 221
f 180 221 225
f 180 225 226
f 180 226 227
f 180 227 181
f 181 227 226
f 181 226 228
f 181 228 229
f 181 229 230
f 181 230 231
f 181 231 232
f 181 232 233
f 181 233 182
f 183 234 184
f 184 234 235
f 185 236 186
f 186 236 237
f 186 237 238
f 186 238 239
f 186 239 240
f 186 240 187
f 187 240 241
f 187 241 188
f 188 241 242
f 188 242 243
f 188 243 189
f 189 244 192
f 189 243 244
f 190 191 245
f 190 245 193
f 191 192 244
f 191 244 246
f 191 246 245
f 193 247 194
f 193 245 248
f 193 248 249
f 193 249 247
f 194 247 250
f 194 250 251
f 194 251 197
f 194 197 196
f 194 196 195
f 197 251 252
f 197 252 253
f 197 253 254
f 197 254 255
f 197 255 198
f 198 255 199
f 199 255 256
f 199 256 257
f 199 257 258
f 199 258 259
f 199 259 260
f 199 260 201
f 201 260 261
f 201 261 202
f 202 261 203
f 203 261 262
f 203 262 263
f 203 263 264
f 203 264 205
f 203 205 204
f 205 264 265
f 205 265 266
f 205 266 206
f 206 266 207
f 207 266 209
f 207 209 208
f 209 266 267
f 209 267 210
f 210 267 268
f 210 268 269
f 210 269 270
f 210 270 271
f 210 271 211
f 211 271 212
f 212 271 213
f 213 271 214
f 214 271 270
f 214 270 272
f 214 272 273
f 214 273 274
f 214 274 275
f 214 275 276
f 214 276 277
f 214 277 215
f 218 278 219
f 219 279 280
f 219 280 220
f 219 278 279
f 220 280 281
f 220 281 222
f 221 224 225
f 222 281 282
f 222 282 283
f 222 283 223
f 223 283 284
f 223 284 285
f 223 285 286
f 223 286 287
f 223 287 225
f 223 225 224
f 225 287 288
f 225 288 226
f 226 288 289
f 226 289 228
f 228 289 229
f 229 289 290
f 229 290 291
f 229 291 292
f 229 292 293
f 229 293 294
f 229 294 295
f 229 295 296
f 229 296 230
f 230 296 231
f 231 296 232
f 232 296 297
f 234 298 235
f 235 298 299
f 235 299 300
f 237 301 302
f 237 302 240
f 237 240 239
f 237 239 238
f 240 303 241
f 240 302 303
f 241 303 304
f 241 304 305
f 241 305 242
f 242 305 306
f 242 306 307
f 242 307 308
f 242 308 309
f 242 309 243
f 243 309 308
f 243 308 310
f 243 310 311
f 243 311 312
f 243 312 244
f 244 312 313
f 244 313 246
f 245 249 248
f 245 246 314
f 245 314 315
f 245 315 249
f 246 313 314
f 247 316 250
f 247 249 317
f 247 317 316
f 249 318 319
f 249 319 320
f 249 320 321
f 249 321 316
f 249 316 317
f 249 315 322
f 249 322 318
f 250 316 323
f 250 323 324
f 250 324 325
f 250 325 251
f 251 325 252
f 252 326 253
f 252 325 326
f 253 326 327
f 253 327 328
f 253 328 254
f 254 328 255
f 255 328 329
f 255 329 256
f 256 329 330
f 256 330 331
f 256 331 332
f 256 332 333
f 256 333 258
f 256 258 257
f 258 333 334
f 258 334 259
f 259 334 261
f 259 261 260
f 261 334 262
f 262 335 263
f 262 334 336
f 262 336 335
f 263 335 337
f 263 337 338
f 263 338 339
f 263 339 264
f 264 339 265
f 265 339 340
f 265 340 341
f 265 341 266
f 266 341 268
f 266 268 267
f 268 341 340
f 268 340 342
f 268 342 269
f 269 342 343
f 269 343 344
f 269 344 345
f 269 345 346
f 269 346 270
f 270 346 347
f 270 347 272
f 278 348 349
f 278 349 279
f 279 349 350
f 279 350 280
f 280 350 281
f 281 351 282
f 281 350 351
f 282 352 283
f 282 351 352
f 283 352 353
f 283 353 354
f 283 354 355
f 283 355 284
f 284 355 356
f 284 356 285
f 285 356 357
f 285 357 358
f 285 358 359
f 285 359 286
f 286 359 287
f 287 360 288
f 287 359 360
f 288 360 361
f 288 361 362
f 288 362 291
f 288 291 290
f 288 290 289
f 291 362 363
f 291 363 364
f 291 364 365
f 291 365 366
f 291 366 292
f 294 367 296
f 294 296 295
f 296 367 297
f 299 368 369
f 299 369 370
f 299 370 300
f 301 371 372
f 301 372 303
f 301 303 302
f 303 372 373
f 303 373 374
f 303 374 375
f 303 375 304
f 304 375 305
f 307 310 308
f 311 313 312
f 311 376 313
f 313 376 377
f 313 377 314
f 314 377 378
f 314 378 315
f 315 378 322
f 316 321 379
f 316 379 323
f 318 380 319
f 318 322 380
f 319 380 381
f 319 381 321
f 319 321 320
f 321 381 379
f 322 378 380
f 323 379 382
f 323 382 324
f 324 382 326
f 324 326 325
f 326 383 384
f 326 384 385
f 326 385 327
f 326 382 379
f 326 379 386
f 326 386 383
f 327 385 387
f 327 387 328
f 328 387 388
f 328 388 330
f 328 330 329
f 330 388 331
f 331 388 387
f 331 387 389
f 331 389 390
f 331 390 391
f 331 391 392
f 331 392 393
f 331 393 332
f 332 393 394
f 332 394 333
f 333 394 395
f 333 395 334
f 334 395 396
f 334 396 397
f 334 397 355
f 334 355 335
f 334 335 336
f 335 355 354
f 335 354 337
f 337 354 398
f 337 398 338
f 338 398 399
f 338 399 400
f 338 400 401
f 338 401 339
f 339 401 402
f 339 402 340
f 340 402 403
f 340 403 342
f 342 403 404
f 342 404 405
f 342 405 343
f 348 406 349
f 349 407 400
f 349 400 350
f 349 406 407
f 350 400 408
f 350 408 351
f 351 408 352
f 352 399 353
f 352 408 400
f 352 400 399
f 353 398 354
f 353 399 398
f 355 397 396
f 355 396 356
f 356 396 357
f 357 396 358
f 358 396 409
f 358 409 410
f 358 410 411
f 358 411 359
f 359 411 361
f 359 361 360
f 361 411 412
f 361 412 413
f 361 413 363
f 361 363 362
f 363 413 414
f 363 414 415
f 363 415 364
f 364 415 416
f 364 416 417
f 364 417 418
f 364 418 419
f 364 419 420
f 364 420 365
f 365 420 421
f 368 422 369
f 369 422 423
f 369 423 424
f 371 425 372
f 371 426 425
f 372 425 373
f 376 427 377
f 377 427 428
f 377 428 378
f 378 428 429
f 378 429 380
f 379 381 430
f 379 430 431
f 379 431 432
f 379 432 433
f 379 433 434
f 379 434 383
f 379 383 386
f 380 429 435
f 380 435 436
f 380 436 437
f 380 437 430
f 380 430 381
f 383 434 438
f 383 438 439
f 383 439 384
f 384 439 440
f 384 440 441
f 384 441 442
f 384 442 385
f 385 442 387
f 387 442 443
f 387 443 389
f 389 443 390
f 390 444 445
f 390 445 391
f 390 443 446
f 390 446 444
f 391 445 447
f 391 447 448
f 391 448 449
f 391 449 411
f 391 411 410
f 391 410 409
f 391 409 396
f 391 396 450
f 391 450 394
f 391 394 392
f 392 394 393
f 394 450 396
f 394 396 395
f 400 407 451
f 400 451 452
f 400 452 401
f 401 452 402
f 402 452 403
f 403 452 451
f 403 451 453
f 403 453 454
f 403 454 455
f 403 455 404
f 406 456 407
f 407 456 451
f 411 449 412
f 412 457 414
f 412 414 413
f 412 449 448
f 412 448 458
f 412 458 457
f 414 457 459
f 414 459 415
f 415 459 460
f 415 460 416
f 416 461 462
f 416 462 417
f 416 460 459
f 416 459 457
f 416 457 461
f 417 462 463
f 417 463 418
f 419 421 420
f 423 464 424
f 424 464 465
f 425 426 464
f 426 465 464
f 427 466 428
f 427 467 466
f 428 466 429
f 429 467 435
f 429 466 467
f 430 437 468
f 430 468 432
f 430 432 431
f 432 469 470
f 432 470 433
f 432 468 469
f 433 470 434
f 434 470 438
f 435 471 468
f 435 468 436
f 436 468 437
f 438 470 439
f 439 470 472
f 439 472 440
f 440 473 446
f 440 446 443
f 440 443 442
f 440 442 441
f 440 472 474
f 440 474 475
f 440 475 476
f 440 476 473
f 444 446 477
f 444 477 462
f 444 462 445
f 445 462 458
f 445 458 448
f 445 448 447
f 446 473 476
f 446 476 477
f 451 456 453
f 457 458 461
f 458 462 461
f 462 477 476
f 462 476 478
f 462 478 479
f 462 479 480
f 462 480 481
f 462 481 463
f 468 471 482
f 468 482 483
f 468 483 484
f 468 484 485
f 468 485 469
f 469 485 486
f 469 486 470
f 470 486 472
f 471 487 482
f 472 486 474
f 474 488 489
f 474 489 475
f 474 486 490
f 474 490 488
f 475 489 476
f 478 491 479
f 479 491 480
f 482 487 483
f 484 492 485
f 485 492 486
f 486 492 493
f 486 493 494
f 486 494 490
f 488 490 495
f 490 494 495
f 492 496 493
f 493 496 494

