# https://github.com/mikedh/trimesh
v -0.19961184 1.10173069 12.18991026
v -0.19961184 1.10223236 12.19007712
v -0.19870079 1.10173069 12.18991026
v -0.22217792 1.10173069 12.19111166
v -0.17736114 1.15617397 12.20873316
v -0.16320478 1.15607843 12.20876655
v -0.24418333 1.20846724 12.22822355
v -0.22189759 1.20975725 12.22778970
v -0.18401883 1.10173069 12.19041083
v -0.22512131 1.10173069 12.19137872
v -0.26307015 1.16455906 12.21457359
v -0.26307015 1.16682852 12.21530782
v -0.19961184 1.33808955 12.27404605
v -0.17736114 1.33789843 12.27417958
v -0.15507539 1.34578184 12.27781732
v -0.13278964 1.16682852 12.21444013
v -0.14834762 1.15457340 12.20913367
v -0.11050388 1.10173069 12.19404858
v -0.17736114 1.10173069 12.19064449
v -0.26307015 1.18911706 12.22298389
v -0.26307015 1.34578184 12.28055398
v -0.24025880 1.33610675 12.27488041
v -0.22189759 1.33775510 12.27421291
v -0.22189759 1.22088958 12.23179456
v -0.24593536 1.10173069 12.19411538
v -0.26307015 1.14891170 12.20970097
v -0.19961184 1.34578184 12.27721655
v -0.17736114 1.34578184 12.27731668
v -0.15269264 1.34578184 12.27805091
v -0.11050388 1.16682852 12.21620890
v -0.13278964 1.18911706 12.22251664
v -0.13278964 1.15292506 12.20966764
v -0.11050388 1.15058393 12.21046860
v -0.08821815 1.10173069 12.19591755
v -0.26307015 1.34578184 12.47118620
v -0.24768739 1.34578184 12.27931918
v -0.22189759 1.34578184 12.27755034
v -0.21545014 1.34578184 12.27745021
v -0.26307015 1.10173069 12.19655165
v -0.13335029 1.34578184 12.28002001
v -0.11050388 1.20378497 12.22985886
v -0.09571681 1.20163495 12.23069322
v -0.08821815 1.16682852 12.21884550
v -0.08821815 1.14726333 12.21173680
v -0.06610760 1.10173069 12.19875434
v -0.26307015 1.34504127 12.47101935
v 0.09490341 1.30048809 12.52361676
v 0.09490341 1.34504127 12.53069200
v 0.09490341 1.34578184 12.53079213
v -0.26307015 1.10173069 12.40687452
v -0.08089469 1.19881604 12.23172783
v -0.06600247 1.34578184 12.29046607
v -0.06600247 1.18469758 12.22865746
v -0.06600247 1.16682852 12.22214953
v -0.04371672 1.12724426 12.21106930
v -0.06120193 1.13087542 12.20980110
v -0.04550379 1.10173069 12.20175798
v -0.26307015 1.32277662 12.46574628
v 0.09490341 1.28326404 12.51964524
v 0.09490341 1.29812307 12.52308279
v 0.09490341 1.34578184 12.32607610
v -0.26307015 1.19659435 12.43277272
v -0.22018061 1.10173069 12.41468405
v -0.04343641 1.34578184 12.29420394
v -0.04911297 1.18097088 12.22999239
v -0.04371672 1.10173069 12.20202497
v -0.04371672 1.14456387 12.21751050
v -0.03082184 1.11288691 12.20833264
v 0.09490341 1.10173069 12.47192043
v 0.09490341 1.34561461 12.32600937
v 0.08964735 1.34578184 12.32454091
v -0.02808868 1.34578184 12.29744124
v -0.01018299 1.22258571 12.25345431
v -0.02398894 1.10173069 12.20619675
v 0.00467418 1.21790344 12.25518976
v 0.03141006 1.19805159 12.25412181
v 0.04542624 1.21140560 12.26229839
v 0.07380904 1.10677130 12.23236194
v 0.09490341 1.10173069 12.23650032
v 0.09490341 1.27091337 12.29644003
v 0.08996271 1.27275283 12.29567240
v 0.08645865 1.34578184 12.32363982
v 0.04542624 1.34578184 12.31329389
v 0.06890336 1.27989568 12.29320273
v 0.06767696 1.25593490 12.28395814
v 0.08519723 1.10173069 12.23376366
v 0.08996271 1.25593490 12.28956498
v 0.06767696 1.21140560 12.26793863
v 0.09003279 1.10173069 12.23509859
v 0.09444789 1.10173069 12.23636679
v 0.07713791 1.28844798 12.29840906
v 0.07633197 1.34578184 12.32086977
v 0.06753679 1.34578184 12.31860035
f 1 2 3
f 1 3 9
f 1 9 19
f 1 19 18
f 1 18 34
f 1 34 45
f 1 45 57
f 1 57 66
f 1 66 74
f 1 74 86
f 1 86 89
f 1 89 90
f 1 90 79
f 1 79 69
f 1 69 63
f 1 63 50
f 1 50 39
f 1 39 25
f 1 25 10
f 1 10 4
f 1 4 2
f 2 5 6
f 2 6 3
f 2 4 7
f 2 7 8
f 2 8 5
f 3 6 9
f 4 10 11
f 4 11 12
f 4 12 7
f 5 8 13
f 5 13 6
f 6 14 15
f 6 15 16
f 6 16 17
f 6 17 18
f 6 18 19
f 6 19 9
f 6 13 14
f 7 12 20
f 7 20 21
f 7 21 22
f 7 22 23
f 7 23 24
f 7 24 8
f 8 24 13
f 10 25 26
f 10 26 11
f 11 26 39
f 11 39 50
f 11 50 62
f 11 62 58
f 11 58 46
f 11 46 35
f 11 35 21
f 11 21 20
f 11 20 12
f 13 24 23
f 13 23 27
f 13 27 28
f 13 28 14
f 14 28 15
f 15 28 27
f 15 27 38
f 15 38 37
f 15 37 36
f 15 36 21
f 15 21 35
f 15 35 49
f 15 49 61
f 15 61 71
f 15 71 82
f 15 82 92
f 15 92 93
f 15 93 83
f 15 83 72
f 15 72 64
f 15 64 52
f 15 52 40
f 15 40 29
f 15 29 30
f 15 30 31
f 15 31 16
f 16 32 17
f 16 31 30
f 16 30 33
f 16 33 32
f 17 32 18
f 18 32 33
f 18 33 34
f 21 36 22
f 22 36 23
f 23 37 38
f 23 38 27
f 23 36 37
f 25 39 26
f 29 40 41
f 29 41 30
f 30 41 42
f 30 42 43
f 30 43 44
f 30 44 33
f 33 44 34
f 34 44 45
f 35 46 47
f 35 47 48
f 35 48 49
f 40 51 42
f 40 42 41
f 40 52 51
f 42 51 43
f 43 51 53
f 43 53 54
f 43 54 55
f 43 55 44
f 44 55 56
f 44 56 45
f 45 56 57
f 46 58 59
f 46 59 60
f 46 60 47
f 47 60 59
f 47 59 69
f 47 69 79
f 47 79 80
f 47 80 70
f 47 70 61
f 47 61 49
f 47 49 48
f 50 63 62
f 51 52 53
f 52 64 65
f 52 65 53
f 53 65 55
f 53 55 54
f 55 66 57
f 55 57 56
f 55 65 67
f 55 67 68
f 55 68 66
f 58 62 59
f 59 62 69
f 61 70 71
f 62 63 69
f 64 72 73
f 64 73 65
f 65 73 67
f 66 68 74
f 67 73 68
f 68 73 75
f 68 75 76
f 68 76 77
f 68 77 78
f 68 78 74
f 70 80 81
f 70 81 71
f 71 81 82
f 72 83 73
f 73 83 84
f 73 84 85
f 73 85 75
f 74 78 86
f 75 85 77
f 75 77 76
f 77 85 87
f 77 87 88
f 77 88 78
f 78 88 87
f 78 87 89
f 78 89 86
f 79 90 87
f 79 87 80
f 80 87 81
f 81 87 85
f 81 85 84
f 81 84 91
f 81 91 92
f 81 92 82
f 83 93 91
f 83 91 84
f 87 90 89
f 91 93 92

