# https://github.com/mikedh/trimesh
v 0.46055850 0.96767369 13.30544101
v 0.41544539 0.96767369 13.58920747
v 0.53815150 1.20508116 13.30544101
v 0.82257942 0.96767369 13.30544101
v 0.51659128 1.21483100 13.58920747
v 0.54054269 1.21483100 13.31513506
v 0.54086146 1.21483100 13.31174631
v 0.54141940 1.21483100 13.30655208
v 0.54153899 1.21483100 13.30544101
v 0.77993711 0.96767369 13.58920747
v 0.82142369 0.97263329 13.30544101
v 0.81349305 0.99658453 13.35630009
v 0.82234032 0.96767369 13.31038525
v 0.72342620 1.21483100 13.58920747
v 0.75574661 1.21483100 13.30544101
v 0.78013644 0.96767369 13.58856863
v 0.81723916 0.98990722 13.30544101
v 0.81285537 1.00759241 13.30544101
v 0.81197865 1.01105201 13.30544101
v 0.80974688 1.01088267 13.35630009
v 0.80819264 1.01088267 13.37860476
v 0.81269595 0.99239910 13.37860476
v 0.81393141 0.97696386 13.40954796
v 0.81644212 0.96825434 13.40163161
v 0.82094543 0.96767369 13.33402320
v 0.81612328 0.99447971 13.30544101
v 0.81444945 1.00127800 13.30544101
v 0.76945593 1.06643016 13.54543146
v 0.72486086 1.21483100 13.58295773
v 0.75586619 1.21483100 13.31174631
v 0.78272682 0.96767369 13.57906900
v 0.75550751 1.21483100 13.33402320
v 0.75510899 1.21483100 13.35630009
v 0.75411269 1.21483100 13.37860476
v 0.75184108 1.21483100 13.42010310
v 0.75164182 1.21483100 13.42315853
v 0.80906936 0.98860077 13.42315853
v 0.81293505 0.97195589 13.42315853
v 0.81385167 0.96767369 13.42315853
v 0.81652180 0.96767369 13.40213159
v 0.74968905 1.21483100 13.44243554
v 0.74948979 1.21483100 13.44432436
v 0.75869574 1.16680758 13.46768455
v 0.81656170 0.96767369 13.40160384
v 0.78308551 0.96767369 13.57770794
v 0.78822650 0.96767369 13.55670875
v 0.78866486 0.96767369 13.55479218
v 0.79376595 0.96767369 13.53248751
v 0.77914007 1.03316456 13.53451520
v 0.75490973 1.16680758 13.48996143
v 0.73936722 1.21483100 13.51223832
v 0.73518269 1.21483100 13.53451520
v 0.73127716 1.21483100 13.55334779
v 0.72637527 1.21483100 13.57604132
v 0.80237418 0.96767369 13.48860037
v 0.74295398 1.21483100 13.48846149
v 0.79818965 0.96767369 13.51223832
f 1 2 3
f 1 3 9
f 1 9 15
f 1 15 19
f 1 19 18
f 1 18 27
f 1 27 26
f 1 26 17
f 1 17 11
f 1 11 4
f 1 4 13
f 1 13 25
f 1 25 44
f 1 44 40
f 1 40 39
f 1 39 55
f 1 55 57
f 1 57 48
f 1 48 47
f 1 47 46
f 1 46 45
f 1 45 31
f 1 31 16
f 1 16 10
f 1 10 2
f 2 5 6
f 2 6 7
f 2 7 8
f 2 8 9
f 2 9 3
f 2 10 14
f 2 14 5
f 4 11 12
f 4 12 13
f 5 14 29
f 5 29 54
f 5 54 53
f 5 53 52
f 5 52 51
f 5 51 56
f 5 56 42
f 5 42 41
f 5 41 36
f 5 36 35
f 5 35 34
f 5 34 33
f 5 33 32
f 5 32 30
f 5 30 15
f 5 15 9
f 5 9 8
f 5 8 7
f 5 7 6
f 10 16 14
f 11 17 12
f 12 18 19
f 12 19 20
f 12 20 21
f 12 21 22
f 12 22 23
f 12 23 24
f 12 24 25
f 12 25 13
f 12 17 26
f 12 26 27
f 12 27 18
f 14 16 28
f 14 28 29
f 15 30 19
f 16 31 28
f 19 30 32
f 19 32 33
f 19 33 34
f 19 34 20
f 20 34 35
f 20 35 36
f 20 36 21
f 21 23 22
f 21 36 23
f 23 37 38
f 23 38 39
f 23 39 40
f 23 40 24
f 23 36 41
f 23 41 42
f 23 42 43
f 23 43 37
f 24 40 44
f 24 44 25
f 28 31 45
f 28 45 46
f 28 46 47
f 28 47 48
f 28 48 49
f 28 49 37
f 28 37 50
f 28 50 51
f 28 51 52
f 28 52 53
f 28 53 54
f 28 54 29
f 37 49 38
f 37 43 50
f 38 49 55
f 38 55 39
f 42 56 43
f 43 56 51
f 43 51 50
f 48 57 49
f 49 57 55

