# https://github.com/mikedh/trimesh
v 0.10285975 1.34578184 12.32838469
v 0.11228421 1.34578184 12.33115063
v 0.10285975 1.34578184 12.53358549
v 0.10285975 1.99115710 12.46523867
v 0.13384622 1.34578184 12.33876694
v 0.11228421 1.99115710 12.46844556
v 0.39663664 1.34578184 12.73790439
v 0.10285975 1.43477182 12.55050183
v 0.10285975 2.01209165 12.47169255
v 0.11228421 2.00892626 12.47349639
v 0.12485016 2.00374662 12.47570113
v 0.14436545 1.34578184 12.34313632
v 0.15179080 1.94655420 12.47389730
v 0.16292880 1.94655420 12.47822658
v 0.16687948 1.93238195 12.47674338
v 0.10285975 1.59016259 12.57796085
v 0.10285975 1.56807695 12.57443325
v 0.10285975 1.54563163 12.57078542
v 0.10285975 1.53520030 12.56902162
v 0.58907668 1.34578184 12.73790439
v 0.39235277 1.36736391 12.73790439
v 0.10285975 1.70188568 12.59535818
v 0.10285975 1.67929646 12.59203104
v 0.10285975 2.02381786 12.47658303
v 0.11228421 2.02007700 12.47810633
v 0.13317985 2.01209165 12.48235540
v 0.16592753 2.02252297 12.49943210
v 0.15783581 2.01446571 12.49305843
v 0.17263887 2.00770334 12.49654591
v 0.18748954 1.99662457 12.49983301
v 0.17968343 1.99000602 12.49498257
v 0.15683625 1.99115710 12.48584296
v 0.15616985 1.34578184 12.34826743
v 0.19115464 1.98180481 12.49818946
v 0.18044498 1.34578184 12.35909063
v 0.57422598 1.34578184 12.70920274
v 0.52315292 1.85742030 12.73790439
v 0.30938884 1.85742030 12.73790439
v 0.10285975 1.94756132 12.62249649
v 0.10285975 1.82900396 12.61019002
v 0.13303706 2.03561612 12.49402047
v 0.15107683 2.02813433 12.49642567
v 0.10285975 2.03568803 12.48411920
v 0.12461216 2.04734233 12.49810925
v 0.15783581 2.03561612 12.50440278
v 0.19591445 2.02870980 12.51787175
v 0.21076515 2.02266685 12.52180018
v 0.20257821 2.01453762 12.51390321
v 0.17968343 2.01446571 12.50251874
v 0.21733370 2.00784716 12.51835273
v 0.23218440 1.99734393 12.52232127
v 0.22433065 1.99036577 12.51622820
v 0.19972230 1.99000602 12.50404204
v 0.20514855 1.96885561 12.50187740
v 0.19139261 1.34578184 12.36426177
v 0.56899017 1.34578184 12.69918123
v 0.52058266 1.87713193 12.73790439
v 0.29192027 1.96885561 12.73790439
v 0.10285975 1.96885561 12.62466113
v 0.13946283 2.04302593 12.50119590
v 0.10285975 2.05079549 12.49498257
v 0.11228421 2.04942862 12.49634552
v 0.11228421 2.06057936 12.50744932
v 0.12456458 2.06942795 12.52039713
v 0.13203751 2.05705429 12.51077646
v 0.15683625 2.05158682 12.51638855
v 0.17030654 2.04813373 12.51967558
v 0.17830308 2.03597579 12.51442430
v 0.18515725 2.04352956 12.52356398
v 0.20257821 2.03597579 12.52705146
v 0.22894770 2.04252237 12.54633290
v 0.23822938 2.02763070 12.54104152
v 0.25308004 2.02029279 12.54557125
v 0.25993421 2.00540119 12.54144236
v 0.22433065 2.01453762 12.52556827
v 0.26407528 1.99115710 12.53903723
v 0.23603987 1.98245232 12.52015663
v 0.22371189 1.96885561 12.51081656
v 0.23665863 1.34578184 12.38618883
v 0.56308798 1.34578184 12.68835796
v 0.51658437 1.88036923 12.73401606
v 0.48612145 1.94655420 12.71441392
v 0.51929746 1.88331876 12.73790439
v 0.55166435 1.34578184 12.66863557
v 0.54466739 1.34578184 12.65749167
v 0.54433421 1.34578184 12.65697058
v 0.53238702 1.34578184 12.63937273
v 0.52596129 1.34578184 12.62995251
v 0.51958310 1.34578184 12.62069259
v 0.50701716 1.34578184 12.60301466
v 0.49830667 1.34578184 12.59167023
v 0.48721622 1.34578184 12.57860218
v 0.29125390 1.97367557 12.73790439
v 0.28901678 1.99115710 12.73790439
v 0.10285975 1.99115710 12.62566327
v 0.10285975 2.06194623 12.50632693
v 0.11228421 2.07072291 12.51859329
v 0.11228421 2.07619032 12.53198204
v 0.13303706 2.07244946 12.53182169
v 0.15302836 2.07108259 12.53907727
v 0.16787903 2.06906828 12.54316605
v 0.13941525 2.06669422 12.52428552
v 0.20138826 2.05086740 12.53895702
v 0.21409700 2.04770201 12.54228415
v 0.25584074 2.04583158 12.56633582
v 0.24703507 2.03669522 12.55338802
v 0.24099007 2.05043574 12.56116475
v 0.26421804 2.03093997 12.56044320
v 0.28606569 2.00935798 12.56088415
v 0.27906874 2.02417761 12.56561428
v 0.30091636 2.00108479 12.56585484
v 0.27521328 1.99115710 12.54573160
v 0.27840237 1.97770427 12.54364711
v 0.25003377 1.96885561 12.52492686
v 0.23889575 1.96885561 12.51859329
v 0.24660667 1.34578184 12.39135997
v 0.50387560 1.87972175 12.71934453
v 0.47569743 1.94655420 12.70327002
v 0.47284152 1.96885561 12.70647691
v 0.48312278 1.96885561 12.71762081
v 0.49725944 1.94655420 12.72748204
v 0.47731575 1.34578184 12.56741818
v 0.46489262 1.34578184 12.55374883
v 0.46389307 1.34578184 12.55266647
v 0.44552009 1.34578184 12.53282384
v 0.50539877 1.94655420 12.73790439
v 0.28911200 1.99381886 12.73790439
v 0.10285975 2.01338661 12.62514218
v 0.10285975 2.07137036 12.51743080
v 0.10285975 2.07417607 12.52424542
v 0.10285975 2.07734140 12.53198204
v 0.13456020 2.07777298 12.55422981
v 0.15902576 2.07360054 12.55202507
v 0.17911224 2.07165813 12.55807811
v 0.19453410 2.07014738 12.56300869
v 0.20938480 2.06827695 12.56797937
v 0.20176905 2.06288138 12.55503157
v 0.22237912 2.05345725 12.55394922
v 0.30362948 2.02626383 12.58601811
v 0.26826393 2.05050772 12.58261083
v 0.27968750 2.04705463 12.58738106
v 0.24741583 2.05604710 12.57483410
v 0.31176881 2.01230751 12.58172893
v 0.29230106 2.01540092 12.56930222
v 0.32561989 2.00410630 12.58629870
v 0.32961818 1.99115710 12.58313192
v 0.31267315 1.99259588 12.57098581
v 0.30515259 1.98619319 12.56304879
v 0.29230106 1.99259588 12.55715610
v 0.30919848 1.96885561 12.56036299
v 0.28963558 1.96971892 12.54833719
v 0.28159147 1.96281267 12.54184321
v 0.26988225 1.96971892 12.53671224
v 0.28016351 1.34578184 12.40895776
v 0.26926349 1.34578184 12.40314528
v 0.44242621 1.94655420 12.66943733
v 0.43952269 1.96885561 12.67240372
v 0.46170353 1.96885561 12.69497220
v 0.43466767 1.34578184 12.52139934
v 0.45927602 1.98338754 12.69737733
v 0.48083803 1.98230844 12.72014626
v 0.49554591 1.97007860 12.73329451
v 0.50030578 1.96633774 12.73790439
v 0.29006395 2.01338661 12.73790439
v 0.29058753 2.01590448 12.73790439
v 0.10285975 2.02410563 12.62309779
v 0.10285975 2.08072258 12.55422981
v 0.11228421 2.07985934 12.55422981
v 0.17911224 2.07539899 12.57647765
v 0.20176905 2.07187392 12.57583624
v 0.21842847 2.07043515 12.58281122
v 0.23327914 2.06870860 12.58970605
v 0.22499702 2.06611868 12.57583624
v 0.43595280 2.04719845 12.72082770
v 0.45080351 2.04072385 12.72724148
v 0.43561962 2.02489703 12.69874028
v 0.31848012 2.01892599 12.59247199
v 0.26826393 2.05935631 12.59876552
v 0.34903826 2.00540119 12.60734394
v 0.35365531 1.99115710 12.60337540
v 0.34075617 1.99115710 12.59223150
v 0.34470685 1.97633740 12.58894440
v 0.32033647 1.96885561 12.56789923
v 0.32304956 1.95382013 12.56597508
v 0.34932384 1.34578184 12.45120852
v 0.33342604 1.34578184 12.44110679
v 0.33123650 1.34578184 12.43974391
v 0.43143097 1.94655420 12.65829336
v 0.42838470 1.96885561 12.66125976
v 0.43699997 1.98345945 12.67500931
v 0.42662356 1.34578184 12.51378296
v 0.39777895 1.94655420 12.62538267
v 0.40891694 1.94655420 12.63616584
v 0.42029297 1.94655420 12.64730981
v 0.45551570 1.99827914 12.70110538
v 0.47750618 1.99720004 12.72383420
v 0.48716861 1.99029379 12.73173114
v 0.49216645 1.99065347 12.73790439
v 0.49811624 1.97353176 12.73790439
v 0.48431270 2.00907021 12.73790439
v 0.29629935 2.03029253 12.73790439
v 0.10285975 2.03525637 12.62085294
v 0.40187245 2.06244979 12.73790439
v 0.20138826 2.07446378 12.59876552
v 0.10285975 2.07698165 12.57647765
v 0.37959640 2.06273756 12.73790439
v 0.22499702 2.07151425 12.59776338
v 0.24013330 2.07000349 12.60453789
v 0.40187245 2.06187426 12.73245269
v 0.42414844 2.05892473 12.73790439
v 0.42414844 2.05727009 12.73245269
v 0.44494893 2.05194650 12.73790439
v 0.44456814 2.05021995 12.73377553
v 0.45166024 2.04906888 12.73790439
v 0.46332185 2.03906921 12.73790439
v 0.45860965 2.02590422 12.72022643
v 0.41044011 1.99791947 12.65685027
v 0.38697414 1.99640871 12.63540419
v 0.39168640 1.98158902 12.63135550
v 0.36812522 1.97935891 12.61019002
v 0.37159989 1.96446724 12.60718359
v 0.34780073 1.96151771 12.58637891
v 0.33642470 1.96892759 12.58000524
v 0.35008542 1.94655420 12.58457501
v 0.38645059 1.34578184 12.47934897
v 0.41724670 1.96885561 12.65039638
v 0.41462876 1.98302786 12.65296193
v 0.43304935 1.99827914 12.67885754
v 0.42338685 1.34578184 12.51077646
v 0.38587937 1.94655420 12.61427881
v 0.40539466 1.96885561 12.63925248
v 0.46213193 2.01338661 12.71649842
v 0.47331753 2.01338661 12.72816348
v 0.48231359 2.01338661 12.73790439
v 0.30410549 2.04007640 12.73790439
v 0.10285975 2.05101128 12.61335687
v 0.10285975 2.07137036 12.59130949
v 0.35732041 2.06108293 12.73790439
v 0.47155639 2.03036444 12.73790439
v 0.46622536 2.03309817 12.73501821
v 0.39425667 1.96885561 12.62891027
v 0.37474138 1.94655420 12.60461810
v 0.36122348 1.94655420 12.59347413
v 0.40201521 1.34578184 12.49189593
v 0.41143967 1.34578184 12.49987305
v 0.31648101 2.05050772 12.73790439
v 0.10285975 2.06122681 12.60305470
v 0.33518718 2.05691034 12.73790439
f 1 2 5
f 1 5 12
f 1 12 33
f 1 33 35
f 1 35 55
f 1 55 79
f 1 79 116
f 1 116 155
f 1 155 154
f 1 154 187
f 1 187 186
f 1 186 185
f 1 185 225
f 1 225 244
f 1 244 245
f 1 245 229
f 1 229 191
f 1 191 159
f 1 159 125
f 1 125 124
f 1 124 123
f 1 123 122
f 1 122 92
f 1 92 91
f 1 91 90
f 1 90 89
f 1 89 88
f 1 88 87
f 1 87 86
f 1 86 85
f 1 85 84
f 1 84 80
f 1 80 56
f 1 56 36
f 1 36 20
f 1 20 7
f 1 7 3
f 1 3 8
f 1 8 19
f 1 19 18
f 1 18 17
f 1 17 16
f 1 16 23
f 1 23 22
f 1 22 40
f 1 40 39
f 1 39 59
f 1 59 95
f 1 95 128
f 1 128 166
f 1 166 202
f 1 202 236
f 1 236 247
f 1 247 237
f 1 237 205
f 1 205 167
f 1 167 131
f 1 131 130
f 1 130 129
f 1 129 96
f 1 96 61
f 1 61 43
f 1 43 24
f 1 24 9
f 1 9 4
f 1 4 2
f 2 4 6
f 2 6 5
f 3 7 8
f 4 9 10
f 4 10 11
f 4 11 6
f 5 6 11
f 5 11 13
f 5 13 14
f 5 14 15
f 5 15 12
f 7 16 17
f 7 17 18
f 7 18 19
f 7 19 8
f 7 20 37
f 7 37 57
f 7 57 83
f 7 83 126
f 7 126 163
f 7 163 199
f 7 199 198
f 7 198 200
f 7 200 234
f 7 234 239
f 7 239 215
f 7 215 214
f 7 214 212
f 7 212 210
f 7 210 203
f 7 203 206
f 7 206 238
f 7 238 248
f 7 248 246
f 7 246 235
f 7 235 201
f 7 201 165
f 7 165 164
f 7 164 127
f 7 127 94
f 7 94 93
f 7 93 58
f 7 58 38
f 7 38 21
f 7 21 22
f 7 22 23
f 7 23 16
f 9 24 25
f 9 25 10
f 10 25 11
f 11 25 26
f 11 26 27
f 11 27 28
f 11 28 29
f 11 29 30
f 11 30 31
f 11 31 32
f 11 32 14
f 11 14 13
f 12 15 33
f 14 32 31
f 14 31 15
f 15 31 30
f 15 30 34
f 15 34 35
f 15 35 33
f 20 36 37
f 21 38 39
f 21 39 40
f 21 40 22
f 24 41 42
f 24 42 25
f 24 43 44
f 24 44 41
f 25 42 27
f 25 27 26
f 27 42 45
f 27 45 46
f 27 46 47
f 27 47 48
f 27 48 49
f 27 49 29
f 27 29 28
f 29 50 30
f 29 49 50
f 30 50 51
f 30 51 52
f 30 52 53
f 30 53 34
f 34 53 54
f 34 54 35
f 35 54 55
f 36 56 37
f 37 56 57
f 38 58 59
f 38 59 39
f 41 60 42
f 41 44 60
f 42 60 45
f 43 61 62
f 43 62 44
f 44 62 63
f 44 63 64
f 44 64 65
f 44 65 66
f 44 66 60
f 45 60 67
f 45 67 68
f 45 68 46
f 46 68 69
f 46 69 70
f 46 70 71
f 46 71 47
f 47 71 72
f 47 72 73
f 47 73 74
f 47 74 75
f 47 75 50
f 47 50 48
f 48 50 49
f 50 74 51
f 50 75 74
f 51 74 76
f 51 76 77
f 51 77 52
f 52 77 78
f 52 78 53
f 53 78 54
f 54 78 55
f 55 78 79
f 56 80 57
f 57 81 82
f 57 82 83
f 57 80 84
f 57 84 85
f 57 85 86
f 57 86 87
f 57 87 88
f 57 88 89
f 57 89 90
f 57 90 91
f 57 91 92
f 57 92 81
f 58 93 59
f 59 93 94
f 59 94 95
f 60 66 67
f 61 96 63
f 61 63 62
f 63 96 64
f 64 97 98
f 64 98 99
f 64 99 100
f 64 100 101
f 64 101 102
f 64 102 65
f 64 96 97
f 65 102 66
f 66 103 67
f 66 102 103
f 67 103 104
f 67 104 69
f 67 69 68
f 69 104 70
f 70 104 71
f 71 105 106
f 71 106 72
f 71 104 107
f 71 107 105
f 72 106 108
f 72 108 73
f 73 109 74
f 73 108 110
f 73 110 109
f 74 109 111
f 74 111 112
f 74 112 76
f 76 113 77
f 76 112 113
f 77 113 114
f 77 114 115
f 77 115 78
f 78 115 79
f 79 115 116
f 81 117 82
f 81 92 117
f 82 118 119
f 82 119 120
f 82 120 121
f 82 121 83
f 82 117 92
f 82 92 122
f 82 122 123
f 82 123 124
f 82 124 125
f 82 125 118
f 83 121 126
f 94 127 95
f 95 127 128
f 96 129 97
f 97 129 130
f 97 130 131
f 97 131 98
f 98 131 132
f 98 132 133
f 98 133 100
f 98 100 99
f 100 133 134
f 100 134 135
f 100 135 101
f 101 135 136
f 101 136 137
f 101 137 138
f 101 138 103
f 101 103 102
f 103 138 104
f 104 138 107
f 105 139 110
f 105 110 108
f 105 108 106
f 105 107 140
f 105 140 141
f 105 141 139
f 107 138 137
f 107 137 136
f 107 136 142
f 107 142 140
f 109 110 111
f 110 139 143
f 110 143 144
f 110 144 111
f 111 145 146
f 111 146 147
f 111 147 148
f 111 148 149
f 111 149 112
f 111 144 145
f 112 149 148
f 112 148 113
f 113 150 151
f 113 151 152
f 113 152 153
f 113 153 114
f 113 148 150
f 114 153 152
f 114 152 154
f 114 154 115
f 115 154 155
f 115 155 116
f 118 156 157
f 118 157 158
f 118 158 119
f 118 125 159
f 118 159 156
f 119 158 160
f 119 160 161
f 119 161 120
f 120 161 162
f 120 162 121
f 121 162 163
f 121 163 126
f 127 164 128
f 128 164 165
f 128 165 166
f 131 167 168
f 131 168 132
f 132 168 169
f 132 169 170
f 132 170 133
f 133 170 134
f 134 170 135
f 135 170 171
f 135 171 136
f 136 171 172
f 136 172 173
f 136 173 142
f 139 141 174
f 139 174 175
f 139 175 176
f 139 176 177
f 139 177 145
f 139 145 143
f 140 174 141
f 140 142 178
f 140 178 174
f 142 173 178
f 143 145 144
f 145 179 180
f 145 180 181
f 145 181 146
f 145 177 179
f 146 181 182
f 146 182 183
f 146 183 147
f 147 183 148
f 148 183 150
f 150 183 184
f 150 184 185
f 150 185 186
f 150 186 151
f 151 186 187
f 151 187 152
f 152 187 154
f 156 188 157
f 156 159 188
f 157 188 189
f 157 189 190
f 157 190 160
f 157 160 158
f 159 191 192
f 159 192 193
f 159 193 194
f 159 194 188
f 160 190 195
f 160 195 196
f 160 196 161
f 161 197 198
f 161 198 199
f 161 199 162
f 161 196 200
f 161 200 197
f 162 199 163
f 165 201 202
f 165 202 166
f 167 203 204
f 167 204 169
f 167 169 168
f 167 205 206
f 167 206 203
f 169 204 203
f 169 203 207
f 169 207 171
f 169 171 170
f 171 207 208
f 171 208 209
f 171 209 210
f 171 210 172
f 172 210 211
f 172 211 173
f 173 211 212
f 173 212 178
f 174 178 213
f 174 213 214
f 174 214 175
f 175 215 216
f 175 216 176
f 175 214 215
f 176 216 217
f 176 217 179
f 176 179 177
f 178 212 213
f 179 217 218
f 179 218 180
f 180 218 219
f 180 219 181
f 181 219 220
f 181 220 182
f 182 220 221
f 182 221 222
f 182 222 223
f 182 223 183
f 183 223 222
f 183 222 184
f 184 222 224
f 184 224 185
f 185 224 225
f 188 194 189
f 189 194 193
f 189 193 226
f 189 226 227
f 189 227 190
f 190 227 228
f 190 228 195
f 191 229 230
f 191 230 192
f 192 230 231
f 192 231 226
f 192 226 193
f 195 228 216
f 195 216 232
f 195 232 233
f 195 233 196
f 196 233 234
f 196 234 200
f 197 200 198
f 201 235 202
f 202 235 236
f 203 210 209
f 203 209 207
f 205 237 238
f 205 238 206
f 207 209 208
f 210 212 211
f 212 214 213
f 215 239 240
f 215 240 216
f 216 240 239
f 216 239 234
f 216 234 233
f 216 233 232
f 216 228 217
f 217 228 227
f 217 227 219
f 217 219 218
f 219 227 241
f 219 241 221
f 219 221 220
f 221 230 242
f 221 242 222
f 221 241 230
f 222 242 243
f 222 243 224
f 224 243 225
f 225 243 244
f 226 231 227
f 227 231 241
f 229 245 230
f 230 241 231
f 230 245 242
f 235 246 236
f 236 246 247
f 237 247 246
f 237 246 248
f 237 248 238
f 242 245 244
f 242 244 243

