# https://github.com/mikedh/trimesh
v 0.24004718 0.01132736 0.66176495
v 0.23961520 0.01023298 0.66174438
v 0.23823284 0.00743340 0.65923215
v 0.23939303 0.01132736 0.65885388
v 0.23949178 0.01132736 0.66832720
v 0.23845499 0.00692439 0.66597943
v 0.23845499 0.00692439 0.66404282
v 0.23206160 -0.00361219 0.65641974
v 0.23831924 0.01132736 0.65546994
v 0.23699860 0.00415027 0.66174438
v 0.23116061 -0.00731951 0.65817543
v 0.23945474 0.01132736 0.66870138
v 0.23931899 0.01096257 0.66868083
v 0.23772680 0.00863807 0.67079421
v 0.23638146 0.00415027 0.66868083
v 0.23256765 -0.00377338 0.66895631
v 0.23138278 -0.00774369 0.66643995
v 0.23335756 -0.00361219 0.66190062
v 0.23386361 0.00290318 0.65397329
v 0.23108655 0.00003574 0.65109099
v 0.23724543 0.01023298 0.65429400
v 0.23740589 0.01132736 0.65371836
v 0.23014853 -0.00361219 0.65280557
v 0.23134574 -0.00768430 0.66190062
v 0.22938329 -0.01129830 0.66190062
v 0.22576695 -0.01774581 0.66190062
v 0.22370575 -0.02135981 0.66190062
v 0.21733705 -0.02991123 0.65696661
v 0.22502641 -0.01645631 0.65612371
v 0.22371810 -0.01416574 0.65130891
v 0.23828220 0.01132736 0.67220864
v 0.23182710 -0.00146585 0.67373408
v 0.23061754 -0.00628452 0.67125475
v 0.22911175 -0.01042449 0.66895631
v 0.22537200 -0.01704167 0.66911666
v 0.22327376 -0.02064718 0.66911666
v 0.22502641 -0.00935556 0.64997262
v 0.22653219 -0.00361219 0.64878846
v 0.23214800 0.00484592 0.65001372
v 0.23343163 0.01082683 0.64893237
v 0.23356738 0.01132736 0.64888301
v 0.22043501 -0.02527921 0.66911666
v 0.22127429 -0.02527921 0.66190062
v 0.21057338 -0.03764824 0.65467640
v 0.21426377 -0.03238843 0.65460649
v 0.21596703 -0.02784125 0.65215181
v 0.21886751 -0.02537253 0.65460649
v 0.21785543 -0.03069172 0.66190062
v 0.21541162 -0.03429724 0.66190062
v 0.21180763 -0.03934496 0.66190062
v 0.20243970 -0.05082322 0.65787118
v 0.22269367 -0.01854326 0.65410075
v 0.21748515 -0.02302258 0.65026044
v 0.23578904 0.01132736 0.67572003
v 0.23299964 0.00360732 0.67513619
v 0.22576695 -0.01084019 0.67502927
v 0.22448332 -0.01550615 0.67354906
v 0.22983997 0.00360732 0.67875035
v 0.22366873 -0.00684443 0.67979060
v 0.21676929 -0.02907136 0.67288707
v 0.21896626 -0.01805970 0.64910093
v 0.22754427 0.00349703 0.64716024
v 0.22023753 -0.01078080 0.64720546
v 0.22122492 -0.00361219 0.64517840
v 0.22830951 0.01082683 0.64532230
v 0.22840824 0.01132736 0.64525650
v 0.21743578 -0.03006394 0.66911666
v 0.20787038 -0.04126224 0.65467640
v 0.20949957 -0.03618059 0.65100875
v 0.21499199 -0.03366097 0.66911666
v 0.21138798 -0.03877656 0.66911666
v 0.20269889 -0.05115407 0.66695802
v 0.20915399 -0.04295047 0.66190062
v 0.19977372 -0.05481897 0.66190062
v 0.19615737 -0.05911165 0.66190062
v 0.19563899 -0.05851780 0.65713107
v 0.19829263 -0.05379246 0.65509167
v 0.20094626 -0.04897380 0.65305639
v 0.20398249 -0.04671717 0.65514923
v 0.20606838 -0.04693775 0.66190062
v 0.20273591 -0.05120498 0.66190062
v 0.21075851 -0.03249872 0.64995206
v 0.21335042 -0.02537253 0.64836495
v 0.23494975 0.01132736 0.67668627
v 0.23083971 0.00776426 0.67974950
v 0.22250854 -0.01084019 0.67863934
v 0.22027455 -0.01809363 0.67649714
v 0.21795416 -0.02527921 0.67427272
v 0.21746047 -0.01585397 0.68048138
v 0.21601640 -0.02067264 0.67944523
v 0.22486595 -0.00203425 0.68060061
v 0.21455998 -0.02527921 0.67788278
v 0.21241241 -0.03157401 0.67576526
v 0.21032652 -0.03733435 0.67382454
v 0.21289375 -0.01838207 0.64524417
v 0.21520181 -0.01221452 0.64443415
v 0.22265665 0.00213966 0.64431083
v 0.21674460 -0.00739586 0.64380508
v 0.22398965 0.00695833 0.64379275
v 0.22469316 0.01082683 0.64354604
v 0.22479189 0.01132736 0.64352549
v 0.20285933 -0.04415513 0.65047836
v 0.20548828 -0.03903955 0.64959847
v 0.20184725 -0.05009363 0.67177281
v 0.20872200 -0.04239055 0.66911666
v 0.20482179 -0.04738737 0.66926468
v 0.19966263 -0.05380094 0.66926468
v 0.19568836 -0.05856871 0.66911666
v 0.19245465 -0.06218270 0.66911666
v 0.19292366 -0.06272565 0.66190062
v 0.18931964 -0.06662809 0.66190062
v 0.18866551 -0.06593244 0.65680625
v 0.19139319 -0.06139373 0.65456126
v 0.19412086 -0.05676171 0.65231627
v 0.20529080 -0.03204061 0.64620219
v 0.20748775 -0.02527921 0.64468086
v 0.23158024 0.01132736 0.68029225
v 0.21890453 -0.01084019 0.68120093
v 0.21338747 -0.01818695 0.68170664
v 0.21094366 -0.02527921 0.68081031
v 0.20968472 -0.02926648 0.68012364
v 0.22622362 0.00360732 0.68130782
v 0.22086700 -0.00411272 0.68192047
v 0.20793209 -0.03407666 0.67863934
v 0.20583387 -0.03975217 0.67653003
v 0.20372330 -0.04528345 0.67442075
v 0.20894417 -0.02100349 0.64398188
v 0.21760857 -0.00361219 0.64353371
v 0.21038823 -0.01618483 0.64352549
v 0.21289375 -0.01022089 0.64332401
v 0.22026222 0.00417572 0.64327878
v 0.22027455 0.01082683 0.64278126
v 0.22027455 0.01132736 0.64276893
v 0.19613268 -0.05194304 0.65010007
v 0.19856416 -0.04671717 0.64888301
v 0.19839136 -0.03970126 0.64549087
v 0.19500952 -0.05779670 0.67275551
v 0.18885063 -0.06613605 0.66911666
v 0.18583907 -0.07023360 0.66190062
v 0.18151921 -0.07318588 0.65670346
v 0.18429627 -0.06876595 0.65434747
v 0.18708567 -0.06426966 0.65199145
v 0.18930731 -0.05945100 0.64986982
v 0.20065004 -0.03414453 0.64444652
v 0.20252609 -0.02933435 0.64372695
v 0.22964248 0.01132736 0.68127906
v 0.21305421 -0.01084019 0.68349525
v 0.20582154 -0.02527921 0.68291961
v 0.20564875 -0.03199819 0.68112689
v 0.20311852 -0.03734284 0.68050193
v 0.20127951 -0.04216150 0.67923553
v 0.22806265 0.01043659 0.68185468
v 0.22027455 0.00360732 0.68366382
v 0.19915660 -0.04765036 0.67703577
v 0.19654000 -0.05416574 0.67432616
v 0.20388376 -0.02527921 0.64341035
v 0.20625353 -0.01838207 0.64306087
v 0.21305421 -0.00361219 0.64278537
v 0.20582154 -0.01084019 0.64257158
v 0.21305421 0.00360732 0.64259213
v 0.21249881 0.01126797 0.64305676
v 0.21248645 0.01132736 0.64306909
v 0.19157832 -0.05427602 0.64841428
v 0.19147959 -0.04726860 0.64499335
v 0.19394807 -0.04210211 0.64416691
v 0.19183751 -0.05482746 0.67830630
v 0.19082544 -0.06067263 0.67434673
v 0.18803604 -0.06527920 0.67304744
v 0.18535773 -0.06974155 0.66911666
v 0.18174138 -0.07340646 0.66911666
v 0.18222274 -0.07389002 0.66190062
v 0.18075399 -0.07533222 0.66190062
v 0.17810035 -0.07533222 0.65490252
v 0.17749557 -0.07533222 0.65400208
v 0.17992704 -0.07159097 0.65188866
v 0.18227210 -0.06677231 0.64977527
v 0.18446907 -0.06167369 0.64816346
v 0.19583647 -0.03728345 0.64357481
v 0.19839136 -0.03204061 0.64330346
v 0.22863041 0.01132736 0.68176422
v 0.21305421 -0.00361219 0.68435869
v 0.20582154 -0.01805970 0.68416546
v 0.19860118 -0.03249872 0.68354868
v 0.19876164 -0.03973520 0.68159153
v 0.19646594 -0.04520710 0.68074864
v 0.19454051 -0.05001727 0.67964670
v 0.22798858 0.01132736 0.68203970
v 0.22078060 0.01132736 0.68431759
v 0.22027455 0.01082683 0.68438337
v 0.19860118 -0.02527921 0.64268670
v 0.19138084 -0.03249872 0.64260859
v 0.15527913 -0.06860476 0.64260035
v 0.14808347 -0.07533222 0.64260035
v 0.21243710 0.01132736 0.64307731
v 0.14108529 -0.07533222 0.64315955
v 0.18454311 -0.05473414 0.64469730
v 0.18719676 -0.04989850 0.64399421
v 0.18767810 -0.05766945 0.67989341
v 0.18596251 -0.06138525 0.67834329
v 0.18063055 -0.06508408 0.68000031
v 0.18316076 -0.06758673 0.67548978
v 0.18088974 -0.07254961 0.67311323
v 0.17976658 -0.07533222 0.66911666
v 0.18023560 -0.07533222 0.66572863
v 0.17648349 -0.07533222 0.65292070
v 0.17512581 -0.07393244 0.64976292
v 0.17728575 -0.06895258 0.64808125
v 0.17752025 -0.06203848 0.64456574
v 0.18913451 -0.04508833 0.64348026
v 0.19147959 -0.03970126 0.64315544
v 0.22027455 0.01132736 0.68439981
v 0.20582154 -0.01084019 0.68456839
v 0.19860118 -0.02527921 0.68445739
v 0.19138084 -0.03971823 0.68392697
v 0.19183751 -0.04734496 0.68189580
v 0.18972696 -0.05285927 0.68090899
v 0.18454311 -0.04726860 0.64306498
v 0.17752025 -0.05473414 0.64301154
v 0.17037397 -0.06203848 0.64300740
v 0.16306723 -0.06917316 0.64300740
v 0.15556300 -0.07533222 0.64299096
v 0.14048051 -0.07533222 0.64329113
v 0.13396370 -0.07533222 0.64483299
v 0.20864796 0.00915557 0.64355426
v 0.20616713 0.01132736 0.64529351
v 0.18030965 -0.05751675 0.64389965
v 0.18234616 -0.06138525 0.68076508
v 0.17821143 -0.06989426 0.67792801
v 0.17627366 -0.06793456 0.68064996
v 0.17341021 -0.07228662 0.67999620
v 0.17566888 -0.07533222 0.67521019
v 0.17910009 -0.07533222 0.67062975
v 0.17186741 -0.07533222 0.64875556
v 0.17004072 -0.07533222 0.64775643
v 0.17037397 -0.06917316 0.64455751
v 0.17321273 -0.06487199 0.64387088
v 0.18238318 -0.05269808 0.64341857
v 0.21354791 0.01132736 0.68426412
v 0.21305421 0.00360732 0.68457252
v 0.19138084 -0.03249872 0.68451494
v 0.14856483 -0.07533222 0.68450672
v 0.17695251 -0.05416574 0.68425179
v 0.18416050 -0.04693775 0.68414489
v 0.17695251 -0.06138525 0.68273459
v 0.18482699 -0.05482746 0.68206849
v 0.17550843 -0.06006181 0.64338569
v 0.16839918 -0.06714559 0.64339391
v 0.16103072 -0.07401727 0.64341035
v 0.15775996 -0.07533222 0.64318832
v 0.13313675 -0.07533222 0.64518251
v 0.20606838 0.01132736 0.64535107
v 0.12627434 -0.07533222 0.64824981
v 0.16973216 -0.06860476 0.68272637
v 0.16973216 -0.07396637 0.68076097
v 0.16876944 -0.07533222 0.68053070
v 0.17129965 -0.07533222 0.67901350
v 0.16363498 -0.07533222 0.64455751
v 0.16584429 -0.07196425 0.64390376
v 0.21305421 0.01132736 0.68418190
v 0.14134450 -0.07533222 0.68382418
v 0.16973216 -0.06138525 0.68428878
v 0.15578517 -0.07533222 0.68411200
v 0.16251182 -0.06860476 0.68424357
v 0.16226497 -0.07533222 0.64420392
v 0.20600667 0.01132736 0.64539219
v 0.12605218 -0.07533222 0.64839784
v 0.16407931 -0.07533222 0.68214251
v 0.16612816 -0.07533222 0.68145997
v 0.20600667 0.01132736 0.68178477
v 0.12839724 -0.07533222 0.68027577
v 0.13328486 -0.07533222 0.68186703
v 0.20031679 0.01132736 0.64935175
v 0.11921445 -0.07533222 0.65326196
v 0.20563639 0.01132736 0.68162442
v 0.12539802 -0.07533222 0.67861055
v 0.19658936 0.01132736 0.65436391
v 0.11759759 -0.07533222 0.65470518
v 0.20236563 0.01132736 0.67979471
v 0.12294187 -0.07533222 0.67693709
v 0.19414555 0.01132736 0.66190062
v 0.11395656 -0.07533222 0.66190062
v 0.19990949 0.01132736 0.67719202
v 0.12055978 -0.07533222 0.67522663
v 0.12112753 -0.07533222 0.67566247
v 0.19456520 0.01132736 0.66582319
v 0.11522783 -0.07533222 0.66910022
v 0.19492312 0.01132736 0.66911666
v 0.19928002 0.01132736 0.67651359
v 0.11646208 -0.07533222 0.67079010
v 0.19895912 0.01132736 0.67615177
v 0.19540448 0.01132736 0.67044473
f 1 2 3
f 1 3 4
f 1 4 9
f 1 9 22
f 1 22 41
f 1 41 66
f 1 66 101
f 1 101 133
f 1 133 162
f 1 162 194
f 1 194 225
f 1 225 251
f 1 251 265
f 1 265 272
f 1 272 276
f 1 276 280
f 1 280 285
f 1 285 287
f 1 287 291
f 1 291 290
f 1 290 288
f 1 288 282
f 1 282 278
f 1 278 274
f 1 274 269
f 1 269 259
f 1 259 238
f 1 238 211
f 1 211 188
f 1 188 187
f 1 187 180
f 1 180 146
f 1 146 117
f 1 117 84
f 1 84 54
f 1 54 31
f 1 31 12
f 1 12 5
f 1 5 6
f 1 6 7
f 1 7 2
f 2 7 3
f 3 8 9
f 3 9 4
f 3 7 10
f 3 10 11
f 3 11 8
f 5 12 6
f 6 12 13
f 6 13 14
f 6 14 15
f 6 15 16
f 6 16 17
f 6 17 7
f 7 17 18
f 7 18 10
f 8 19 9
f 8 11 20
f 8 20 19
f 9 19 21
f 9 21 22
f 10 18 11
f 11 23 20
f 11 18 24
f 11 24 25
f 11 25 26
f 11 26 27
f 11 27 28
f 11 28 29
f 11 29 30
f 11 30 23
f 12 31 14
f 12 14 13
f 14 31 32
f 14 32 33
f 14 33 15
f 15 33 16
f 16 33 17
f 17 33 34
f 17 34 35
f 17 35 36
f 17 36 27
f 17 27 26
f 17 26 25
f 17 25 24
f 17 24 18
f 19 20 21
f 20 23 30
f 20 30 37
f 20 37 38
f 20 38 39
f 20 39 22
f 20 22 21
f 22 39 40
f 22 40 41
f 27 36 42
f 27 42 43
f 27 43 28
f 28 44 45
f 28 45 46
f 28 46 47
f 28 47 29
f 28 43 48
f 28 48 49
f 28 49 50
f 28 50 51
f 28 51 44
f 29 47 52
f 29 52 30
f 30 52 46
f 30 46 53
f 30 53 37
f 31 54 55
f 31 55 32
f 32 56 57
f 32 57 33
f 32 55 58
f 32 58 59
f 32 59 56
f 33 57 35
f 33 35 34
f 35 57 36
f 36 60 42
f 36 57 60
f 37 53 61
f 37 61 38
f 38 62 40
f 38 40 39
f 38 61 63
f 38 63 64
f 38 64 62
f 40 62 65
f 40 65 41
f 41 65 66
f 42 60 67
f 42 67 43
f 43 67 48
f 44 68 69
f 44 69 45
f 44 51 68
f 45 69 46
f 46 52 47
f 46 69 53
f 48 67 49
f 49 67 70
f 49 70 71
f 49 71 50
f 50 71 72
f 50 72 73
f 50 73 51
f 51 74 75
f 51 75 76
f 51 76 77
f 51 77 78
f 51 78 79
f 51 79 68
f 51 73 80
f 51 80 81
f 51 81 74
f 53 69 82
f 53 82 83
f 53 83 61
f 54 84 85
f 54 85 55
f 55 85 58
f 56 59 86
f 56 86 57
f 57 86 87
f 57 87 88
f 57 88 60
f 58 85 59
f 59 89 90
f 59 90 86
f 59 85 91
f 59 91 89
f 60 88 92
f 60 92 93
f 60 93 94
f 60 94 71
f 60 71 70
f 60 70 67
f 61 83 95
f 61 95 96
f 61 96 63
f 62 64 65
f 63 96 64
f 64 97 65
f 64 96 98
f 64 98 97
f 65 97 99
f 65 99 66
f 66 99 100
f 66 100 101
f 68 79 69
f 69 79 78
f 69 78 102
f 69 102 103
f 69 103 82
f 71 94 104
f 71 104 105
f 71 105 72
f 72 81 80
f 72 80 73
f 72 105 106
f 72 106 104
f 72 104 107
f 72 107 108
f 72 108 109
f 72 109 110
f 72 110 75
f 72 75 74
f 72 74 81
f 75 110 76
f 76 110 111
f 76 111 112
f 76 112 113
f 76 113 114
f 76 114 77
f 77 114 78
f 78 114 102
f 82 103 115
f 82 115 83
f 83 115 116
f 83 116 95
f 84 117 85
f 85 117 91
f 86 90 87
f 87 90 88
f 88 90 92
f 89 91 118
f 89 118 119
f 89 119 120
f 89 120 121
f 89 121 90
f 90 121 92
f 91 117 122
f 91 122 123
f 91 123 118
f 92 121 124
f 92 124 93
f 93 124 94
f 94 124 125
f 94 125 126
f 94 126 104
f 95 116 127
f 95 127 96
f 96 127 98
f 97 98 99
f 98 128 99
f 98 127 129
f 98 129 130
f 98 130 128
f 99 128 131
f 99 131 100
f 100 131 101
f 101 131 132
f 101 132 133
f 102 114 134
f 102 134 135
f 102 135 103
f 103 135 136
f 103 136 115
f 104 106 105
f 104 126 137
f 104 137 107
f 107 137 108
f 108 137 109
f 109 138 110
f 109 137 138
f 110 138 111
f 111 138 139
f 111 139 112
f 112 139 140
f 112 140 141
f 112 141 142
f 112 142 113
f 113 142 114
f 114 142 143
f 114 143 134
f 115 136 144
f 115 144 116
f 116 144 145
f 116 145 127
f 117 146 122
f 118 123 147
f 118 147 119
f 119 147 148
f 119 148 120
f 120 148 149
f 120 149 121
f 121 149 150
f 121 150 151
f 121 151 124
f 122 146 152
f 122 152 153
f 122 153 123
f 123 153 147
f 124 151 125
f 125 151 126
f 126 151 154
f 126 154 155
f 126 155 137
f 127 145 129
f 128 130 131
f 129 145 156
f 129 156 157
f 129 157 130
f 130 157 158
f 130 158 131
f 131 158 132
f 132 158 159
f 132 159 133
f 133 159 160
f 133 160 161
f 133 161 162
f 134 143 163
f 134 163 135
f 135 163 164
f 135 164 136
f 136 164 165
f 136 165 144
f 137 155 166
f 137 166 167
f 137 167 168
f 137 168 138
f 138 168 169
f 138 169 139
f 139 169 170
f 139 170 171
f 139 171 140
f 140 171 172
f 140 172 173
f 140 173 174
f 140 174 175
f 140 175 141
f 141 175 142
f 142 175 176
f 142 176 143
f 143 176 177
f 143 177 163
f 144 165 145
f 145 165 178
f 145 178 179
f 145 179 156
f 146 180 152
f 147 153 181
f 147 181 182
f 147 182 148
f 148 182 183
f 148 183 184
f 148 184 149
f 149 184 150
f 150 184 185
f 150 185 186
f 150 186 151
f 151 186 154
f 152 180 187
f 152 187 153
f 153 188 189
f 153 189 181
f 153 187 188
f 154 186 155
f 155 186 166
f 156 179 157
f 157 179 190
f 157 190 158
f 158 190 159
f 159 190 191
f 159 191 192
f 159 192 193
f 159 193 160
f 160 193 161
f 161 194 162
f 161 193 195
f 161 195 194
f 163 177 196
f 163 196 164
f 164 196 197
f 164 197 165
f 165 197 178
f 166 186 198
f 166 198 167
f 167 198 199
f 167 199 168
f 168 199 200
f 168 200 201
f 168 201 202
f 168 202 169
f 169 202 170
f 170 202 203
f 170 203 204
f 170 204 172
f 170 172 171
f 172 204 203
f 172 203 232
f 172 232 231
f 172 231 256
f 172 256 255
f 172 255 268
f 172 268 267
f 172 267 262
f 172 262 241
f 172 241 260
f 172 260 271
f 172 271 270
f 172 270 275
f 172 275 279
f 172 279 284
f 172 284 283
f 172 283 289
f 172 289 286
f 172 286 281
f 172 281 277
f 172 277 273
f 172 273 266
f 172 266 252
f 172 252 250
f 172 250 223
f 172 223 222
f 172 222 195
f 172 195 193
f 172 193 221
f 172 221 249
f 172 249 264
f 172 264 257
f 172 257 234
f 172 234 233
f 172 233 205
f 172 205 174
f 172 174 173
f 174 205 175
f 175 205 206
f 175 206 176
f 176 206 207
f 176 207 177
f 177 207 208
f 177 208 196
f 178 197 209
f 178 209 179
f 179 209 210
f 179 210 190
f 181 189 211
f 181 211 212
f 181 212 213
f 181 213 182
f 182 213 214
f 182 214 183
f 183 214 215
f 183 215 184
f 184 215 185
f 185 215 216
f 185 216 198
f 185 198 186
f 188 211 189
f 190 210 217
f 190 217 218
f 190 218 191
f 191 218 219
f 191 219 192
f 192 219 220
f 192 220 193
f 193 220 221
f 194 195 222
f 194 222 223
f 194 223 224
f 194 224 225
f 196 208 226
f 196 226 197
f 197 226 209
f 198 227 200
f 198 200 199
f 198 216 227
f 200 228 201
f 200 227 229
f 200 229 230
f 200 230 228
f 201 228 202
f 202 228 231
f 202 231 232
f 202 232 203
f 205 233 206
f 206 233 207
f 207 233 234
f 207 234 235
f 207 235 208
f 208 235 236
f 208 236 226
f 209 226 237
f 209 237 210
f 210 237 217
f 211 238 239
f 211 239 212
f 212 240 213
f 212 239 241
f 212 241 240
f 213 240 242
f 213 242 243
f 213 243 214
f 214 243 244
f 214 244 215
f 215 244 245
f 215 245 216
f 216 245 227
f 217 237 218
f 218 237 246
f 218 246 219
f 219 246 247
f 219 247 220
f 220 248 249
f 220 249 221
f 220 247 248
f 223 250 225
f 223 225 224
f 225 250 252
f 225 252 251
f 226 236 246
f 226 246 237
f 227 245 244
f 227 244 229
f 228 230 231
f 229 244 253
f 229 253 254
f 229 254 230
f 230 254 255
f 230 255 256
f 230 256 231
f 234 257 235
f 235 257 258
f 235 258 236
f 236 258 247
f 236 247 246
f 238 259 260
f 238 260 241
f 238 241 239
f 240 241 261
f 240 261 242
f 241 262 263
f 241 263 261
f 242 261 244
f 242 244 243
f 244 261 253
f 247 258 248
f 248 264 249
f 248 258 264
f 251 252 266
f 251 266 265
f 253 261 263
f 253 263 262
f 253 262 267
f 253 267 254
f 254 267 268
f 254 268 255
f 257 264 258
f 259 269 270
f 259 270 271
f 259 271 260
f 265 266 272
f 266 273 272
f 269 274 270
f 270 274 275
f 272 273 277
f 272 277 276
f 274 278 275
f 275 278 279
f 276 277 281
f 276 281 280
f 278 282 283
f 278 283 284
f 278 284 279
f 280 281 285
f 281 286 287
f 281 287 285
f 282 288 283
f 283 288 289
f 286 289 290
f 286 290 291
f 286 291 287
f 288 290 289

