# https://github.com/mikedh/trimesh
v 0.08041095 0.13864913 0.01364195
v 0.08041095 0.13343911 0.01361803
v 0.08041095 0.13864913 0.03071471
v 0.10972406 0.13864913 0.01363929
v 0.08041095 0.12750898 0.01360741
v 0.10972406 0.13343911 0.01361538
v 0.08041095 0.13050951 0.03967479
v 0.09078536 0.13864913 0.03211199
v 0.13416786 0.13864913 0.01363929
v 0.08041095 0.08291565 0.01360741
v 0.15682400 0.12785268 0.01360741
v 0.15682400 0.13343911 0.01361538
v 0.08041095 0.12750898 0.04074267
v 0.10972406 0.13049314 0.03965885
v 0.09685142 0.13864913 0.03236434
v 0.15682400 0.13864913 0.01364195
v 0.08041095 0.08291565 0.03656413
v 0.15682400 0.08291565 0.01360741
v 0.09192976 0.12750898 0.04072939
v 0.13172199 0.13047677 0.03964557
v 0.12751090 0.13048224 0.03964823
v 0.08041095 0.12239171 0.04071345
v 0.10379263 0.12211894 0.04069751
v 0.12751090 0.12215712 0.04068157
v 0.13344233 0.12216804 0.04067626
v 0.09827257 0.13864913 0.03236169
v 0.15682400 0.13864913 0.02992310
v 0.08041095 0.08309569 0.03663586
v 0.13629211 0.08291565 0.03633037
v 0.15682400 0.08291565 0.03453995
v 0.10972406 0.12750898 0.04070814
v 0.13567877 0.13047132 0.03964292
v 0.08041095 0.12208075 0.04071079
v 0.08599831 0.12208620 0.04070814
v 0.14530520 0.09193361 0.03824830
v 0.13937377 0.12242990 0.04033093
v 0.13937377 0.12642879 0.04033093
v 0.13359940 0.12810363 0.04047172
v 0.12751090 0.12750898 0.04068423
v 0.11565550 0.12750898 0.04070017
v 0.10972406 0.13864913 0.03198979
v 0.15682400 0.10238637 0.03427430
v 0.15643506 0.13864913 0.02994435
v 0.14314355 0.12508128 0.03987137
v 0.08041095 0.08599802 0.03778608
v 0.13937377 0.08291565 0.03630912
v 0.13937377 0.08599802 0.03743278
v 0.15682400 0.08599802 0.03462495
v 0.14314355 0.12330279 0.03987137
v 0.14530520 0.08599802 0.03686962
v 0.14530520 0.08291565 0.03584159
v 0.15682400 0.09786375 0.03476574
v 0.15682400 0.09193361 0.03474715
f 1 2 5
f 1 5 10
f 1 10 17
f 1 17 28
f 1 28 45
f 1 45 33
f 1 33 22
f 1 22 13
f 1 13 7
f 1 7 3
f 1 3 8
f 1 8 15
f 1 15 26
f 1 26 41
f 1 41 43
f 1 43 27
f 1 27 16
f 1 16 9
f 1 9 4
f 1 4 6
f 1 6 2
f 2 6 5
f 3 7 8
f 4 9 12
f 4 12 6
f 5 6 11
f 5 11 18
f 5 18 10
f 6 12 11
f 7 13 14
f 7 14 15
f 7 15 8
f 9 16 12
f 10 18 30
f 10 30 51
f 10 51 46
f 10 46 29
f 10 29 17
f 11 12 16
f 11 16 27
f 11 27 42
f 11 42 52
f 11 52 53
f 11 53 48
f 11 48 30
f 11 30 18
f 13 19 20
f 13 20 21
f 13 21 14
f 13 22 23
f 13 23 24
f 13 24 25
f 13 25 19
f 14 21 15
f 15 21 20
f 15 20 26
f 17 29 28
f 19 31 32
f 19 32 20
f 19 25 31
f 20 32 26
f 22 33 34
f 22 34 23
f 23 34 35
f 23 35 24
f 24 35 25
f 25 35 36
f 25 36 37
f 25 37 38
f 25 38 39
f 25 39 40
f 25 40 31
f 26 32 41
f 27 43 32
f 27 32 44
f 27 44 42
f 28 29 45
f 29 46 47
f 29 47 45
f 30 48 49
f 30 49 35
f 30 35 50
f 30 50 51
f 31 40 38
f 31 38 32
f 32 38 37
f 32 37 44
f 32 43 41
f 33 45 35
f 33 35 34
f 35 47 50
f 35 49 36
f 35 45 47
f 36 49 44
f 36 44 37
f 38 40 39
f 42 44 52
f 44 49 52
f 46 51 47
f 47 51 50
f 48 53 49
f 49 53 52

