# https://github.com/mikedh/trimesh
v 0.24006553 0.16207182 0.04247436
v 0.23454180 0.16207182 0.04177279
v 0.26392059 0.16207182 0.04209326
v 0.26985134 0.18207679 0.04132818
v 0.26602437 0.18207679 0.04099039
v 0.26504120 0.18207679 0.04084892
v 0.23460523 0.16322531 0.04127044
v 0.22068228 0.17889441 0.02852103
v 0.23215258 0.16207182 0.04078541
v 0.26830787 0.16207182 0.04144366
v 0.26945489 0.16207182 0.04116650
v 0.27331885 0.18207679 0.04012426
v 0.26210227 0.18207679 0.03631329
v 0.22068228 0.18170274 0.01888968
v 0.22068228 0.18113872 0.02481977
v 0.22068228 0.17495999 0.02932652
v 0.23101084 0.16207182 0.03976626
v 0.27041163 0.16207182 0.04045916
v 0.27326600 0.18089001 0.04006652
v 0.27419103 0.16207182 0.03605346
v 0.27440246 0.18207679 0.03741328
v 0.26347129 0.18207679 0.03008006
v 0.24020296 0.18173408 0.01888968
v 0.25798986 0.17949564 0.01489394
v 0.22068228 0.17945647 0.01493436
v 0.27001520 0.18207679 0.02873756
v 0.22068228 0.16309998 0.02977114
v 0.22068228 0.16207182 0.02978557
v 0.27237798 0.16207182 0.03894055
v 0.27415932 0.16207182 0.03183541
v 0.27468260 0.18207679 0.03667707
v 0.25798986 0.18174387 0.01888968
v 0.26392059 0.17913529 0.01512779
v 0.25798986 0.17495999 0.01383726
v 0.22068228 0.17495999 0.01392387
v 0.27417517 0.18207679 0.03186139
v 0.26392059 0.18082733 0.01888968
v 0.22068228 0.16207182 0.01382282
v 0.27432316 0.18207679 0.03281991
v 0.26746214 0.16207182 0.01518553
v 0.26722426 0.17848901 0.01556374
v 0.26392059 0.17495999 0.01431651
v 0.25902062 0.16207182 0.01353989
v 0.25798986 0.16207182 0.01347060
v 0.23427221 0.16207182 0.01297979
v 0.22936694 0.16207182 0.01324540
v 0.26739342 0.17495999 0.01537608
v 0.26392059 0.16207182 0.01397584
f 1 2 9
f 1 9 17
f 1 17 28
f 1 28 38
f 1 38 46
f 1 46 45
f 1 45 44
f 1 44 43
f 1 43 48
f 1 48 40
f 1 40 30
f 1 30 20
f 1 20 29
f 1 29 18
f 1 18 11
f 1 11 10
f 1 10 3
f 1 3 4
f 1 4 5
f 1 5 2
f 2 5 6
f 2 6 7
f 2 7 8
f 2 8 9
f 3 10 4
f 4 10 11
f 4 11 12
f 4 12 21
f 4 21 31
f 4 31 39
f 4 39 36
f 4 36 26
f 4 26 22
f 4 22 13
f 4 13 6
f 4 6 5
f 6 13 14
f 6 14 15
f 6 15 8
f 6 8 7
f 8 15 14
f 8 14 25
f 8 25 35
f 8 35 38
f 8 38 28
f 8 28 27
f 8 27 16
f 8 16 9
f 9 16 17
f 11 18 19
f 11 19 12
f 12 19 20
f 12 20 21
f 13 22 14
f 14 23 24
f 14 24 25
f 14 22 26
f 14 26 23
f 16 27 17
f 17 27 28
f 18 29 19
f 19 29 20
f 20 30 31
f 20 31 21
f 23 26 32
f 23 32 24
f 24 32 33
f 24 33 34
f 24 34 25
f 25 34 35
f 26 36 37
f 26 37 32
f 30 36 39
f 30 39 31
f 30 40 36
f 32 37 33
f 33 37 41
f 33 41 42
f 33 42 34
f 34 42 43
f 34 43 44
f 34 44 45
f 34 45 35
f 35 45 46
f 35 46 38
f 36 40 47
f 36 47 41
f 36 41 37
f 40 48 47
f 41 47 42
f 42 47 48
f 42 48 43

