# https://github.com/mikedh/trimesh
v 0.16270107 0.24427004 0.08443482
v 0.16270107 0.24703094 0.07934876
v 0.16270107 0.24653950 0.08975165
v 0.16053195 0.24300854 0.08746428
v 0.13327261 0.22558228 0.09598705
v 0.13327261 0.22599234 0.09429924
v 0.16270107 0.25205818 0.07777181
v 0.13327261 0.22803328 0.09083086
v 0.13327261 0.22833692 0.09068606
v 0.13331294 0.23439401 0.08783081
v 0.13519975 0.23645373 0.08681721
v 0.16270107 0.25152290 0.09144399
v 0.16017763 0.24904372 0.09303904
v 0.15479375 0.24279256 0.09336710
v 0.13668615 0.23097574 0.09917037
v 0.13327261 0.22866872 0.10016586
v 0.15336784 0.25002350 0.08086688
v 0.15704351 0.25202375 0.08003882
v 0.15893898 0.25558914 0.08052073
v 0.16270107 0.25239625 0.07789172
v 0.13525160 0.24020069 0.08673350
v 0.13327261 0.23439401 0.08784438
v 0.16270107 0.25162621 0.09141458
v 0.16017763 0.24916581 0.09303904
v 0.13808325 0.23904561 0.09955725
v 0.13787008 0.23426880 0.09956856
v 0.13330430 0.22873448 0.10017265
v 0.13327261 0.22870004 0.10017717
v 0.13607546 0.24349374 0.08688735
v 0.15314315 0.25547019 0.08596199
v 0.15704351 0.25614319 0.08404115
v 0.16270107 0.25629345 0.07958858
v 0.14202394 0.24933796 0.08684210
v 0.13327261 0.24049180 0.08851634
v 0.16270107 0.25610250 0.08896657
v 0.15716738 0.25014246 0.09356393
v 0.15123618 0.24612943 0.09567483
v 0.13344545 0.23925221 0.09985590
v 0.13344545 0.23426880 0.10084687
v 0.14530786 0.24612943 0.09674046
v 0.13327261 0.23409977 0.10088306
v 0.13327261 0.22873448 0.10018396
v 0.13485695 0.24438274 0.09005709
v 0.13327261 0.24151852 0.08878784
v 0.14530786 0.25161994 0.09005709
v 0.15314315 0.25547019 0.08819054
v 0.16270107 0.25756121 0.08412260
v 0.14152848 0.24959777 0.09005709
v 0.16270107 0.25635293 0.07978994
v 0.13856144 0.24735023 0.09005709
v 0.16270107 0.25629658 0.08876974
v 0.15123618 0.25095632 0.09434449
v 0.13327261 0.23920525 0.09984459
v 0.13327261 0.23911447 0.09987626
v 0.14530786 0.25028331 0.09424494
v 0.13327261 0.24226980 0.08979690
v 0.13467835 0.24446099 0.09490333
v 0.14157457 0.24952265 0.09359561
v 0.15716738 0.25599921 0.08888286
v 0.16270107 0.25754870 0.08444613
v 0.13327261 0.24244823 0.09648480
v 0.13327261 0.24263605 0.09625629
f 1 2 7
f 1 7 20
f 1 20 32
f 1 32 49
f 1 49 47
f 1 47 60
f 1 60 51
f 1 51 35
f 1 35 23
f 1 23 12
f 1 12 3
f 1 3 4
f 1 4 5
f 1 5 6
f 1 6 2
f 2 6 8
f 2 8 9
f 2 9 10
f 2 10 11
f 2 11 7
f 3 12 13
f 3 13 14
f 3 14 15
f 3 15 16
f 3 16 5
f 3 5 4
f 5 16 28
f 5 28 42
f 5 42 41
f 5 41 54
f 5 54 53
f 5 53 61
f 5 61 62
f 5 62 56
f 5 56 44
f 5 44 34
f 5 34 22
f 5 22 9
f 5 9 8
f 5 8 6
f 7 17 18
f 7 18 19
f 7 19 20
f 7 11 21
f 7 21 17
f 9 22 10
f 10 22 11
f 11 22 21
f 12 23 24
f 12 24 13
f 13 24 25
f 13 25 26
f 13 26 27
f 13 27 15
f 13 15 14
f 15 27 16
f 16 27 28
f 17 29 19
f 17 19 18
f 17 21 29
f 19 30 31
f 19 31 32
f 19 32 20
f 19 29 33
f 19 33 30
f 21 22 34
f 21 34 29
f 23 35 36
f 23 36 24
f 24 37 25
f 24 36 37
f 25 38 39
f 25 39 26
f 25 37 40
f 25 40 38
f 26 39 41
f 26 41 42
f 26 42 27
f 27 42 28
f 29 43 33
f 29 34 44
f 29 44 43
f 30 45 46
f 30 46 47
f 30 47 31
f 30 33 48
f 30 48 45
f 31 47 49
f 31 49 32
f 33 43 50
f 33 50 48
f 35 51 52
f 35 52 36
f 36 52 40
f 36 40 37
f 38 53 54
f 38 54 41
f 38 41 39
f 38 40 55
f 38 55 53
f 40 52 55
f 43 44 56
f 43 56 57
f 43 57 50
f 45 48 58
f 45 58 46
f 46 58 55
f 46 55 59
f 46 59 60
f 46 60 47
f 48 50 57
f 48 57 58
f 51 60 59
f 51 59 52
f 52 59 55
f 53 55 58
f 53 58 61
f 56 62 57
f 57 62 58
f 58 62 61

