# https://github.com/mikedh/trimesh
v 1.65715397 13.49666712 -6.01757396
v 1.65715397 11.19760220 -6.01757396
v 1.65715397 13.50474408 -6.02541668
v 1.65676212 13.50474408 -6.01757396
v 1.63246207 13.50474408 -5.80856273
v 1.63246207 11.19760220 -5.80856273
v 1.61090563 10.98875365 -5.80856273
v 1.62540726 10.98875365 -6.01757396
v 1.65715397 11.19760220 -8.31669681
v 1.65715397 13.50474408 -8.31669681
v 1.56504929 13.50474408 -5.65954907
v 1.56504929 11.19760220 -5.66033403
v 1.55956222 10.98875365 -5.66621561
v 1.54310100 10.86413677 -5.68268540
v 1.55603489 10.85173280 -5.80856273
v 1.55838650 10.84942512 -6.01757396
v 1.62540726 10.98875365 -8.31669681
v 1.60894604 10.98875365 -8.52570803
v 1.63990889 11.19760220 -8.52570803
v 1.63990889 13.50474408 -8.52570803
v 1.41846574 13.50474408 -5.58700339
v 1.41807372 11.19760220 -5.58896392
v 1.41807372 10.98875365 -5.61092405
v 1.41807372 10.80240528 -5.80856273
v 1.41807372 10.85057896 -5.66856861
v 1.24013546 10.55807555 -7.27164068
v 1.27736925 10.55807555 -7.46810380
v 1.27972085 10.55807555 -7.48065191
v 1.55838650 10.84942512 -8.31669681
v 1.55015581 10.85663668 -8.52570803
v 1.53565418 10.87048301 -8.69668120
v 1.52154456 10.88577170 -8.83628346
v 1.56230584 10.96884952 -8.75393391
v 1.60228308 11.19760220 -8.73471864
v 1.60228308 13.50474408 -8.73471864
v 1.21740314 13.50474408 -5.55994540
v 1.20917261 11.19760220 -5.56112221
v 1.20917261 10.98875365 -5.59327745
v 1.20917261 10.78509743 -5.80856273
v 0.77647659 10.55807555 -6.79597367
v 1.00497455 10.55807555 -6.91165528
v 1.09002442 10.55807555 -6.97361399
v 1.14881465 10.55807555 -7.05870841
v 1.20917261 10.84711735 -5.66464756
v 1.25934014 10.55807555 -7.68966313
v 1.54231713 11.02510016 -8.87549771
v 1.43845444 10.82836714 -8.75393391
v 1.38319154 10.84048267 -8.94372986
v 1.33772721 10.86384833 -9.08176345
v 1.36829805 10.98875365 -9.12372256
v 1.48195917 10.96884952 -8.94451420
v 1.55211556 11.19760220 -8.89353617
v 1.55211556 13.50474408 -8.89353617
v 1.20917261 13.50474408 -5.55916169
v 0.99987933 13.50474408 -5.55876921
v -1.92591369 11.19760220 -5.56112221
v -1.92591369 10.98875365 -5.59327745
v -1.92591369 10.78509743 -5.80856273
v 0.58207695 10.55807555 -6.74499564
v 0.61656720 10.55807555 -6.75362270
v -1.92591369 10.84711735 -5.66464756
v 1.16605974 10.55807555 -7.91710529
v 1.49097373 11.19760220 -8.99823771
v 1.16527587 10.55807555 -7.91867334
v 1.20917261 10.77875119 -8.94372986
v 1.20682101 10.83702107 -9.15195675
v 1.13548890 10.86673297 -9.27783409
v 1.28207246 10.98875365 -9.22803225
v 1.30872396 11.19760220 -9.25312910
v 1.38632701 11.19760220 -9.14842756
v 1.49097373 13.50474408 -8.99823771
v -1.91493938 13.50474408 -5.55876921
v -2.13520681 11.19760220 -5.60072832
v -2.13520681 10.98875365 -5.62190412
v -1.92591369 13.50474408 -5.55916169
v -2.13520681 10.85519440 -5.67327462
v -2.13520681 10.81250157 -5.80856273
v -1.65430285 10.55807555 -6.92263534
v -1.50811115 10.55807555 -6.85165771
v -1.30900830 10.55807555 -6.79166014
v -1.28431639 10.55807555 -6.78460175
v 1.02026005 10.55807555 -8.07670654
v 0.99987933 10.78134739 -9.15274109
v 0.99987933 10.84279043 -9.31508781
v 0.84428130 10.91606048 -9.45351326
v 0.99243267 10.98702285 -9.41390715
v 1.17781775 10.98875365 -9.30606827
v 1.20446941 11.19760220 -9.32410673
v 1.30872396 13.50474408 -9.25312910
v 1.38632701 13.50474408 -9.14842756
v -2.13520681 13.50474408 -5.59876779
v -2.26846462 11.19760220 -5.67209781
v -2.26376141 10.98875365 -5.67719567
v -2.25278727 10.87048301 -5.68935193
v -1.90984432 10.55807555 -7.27164068
v -1.85183796 10.55807555 -7.13047038
v -1.75894941 10.55807555 -7.02576883
v -1.66057379 10.55807555 -6.92851754
v 1.01790844 10.55807555 -8.07827521
v 0.79097814 10.76375102 -9.15274109
v 0.58207695 10.80990537 -9.36175231
v 0.78117980 10.83500183 -9.37508476
v 0.84898450 10.55807555 -8.18023189
v 0.83840229 10.55807555 -8.18650594
v 0.74002667 10.55807555 -8.23552344
v 0.70514448 10.88000234 -9.46998305
v 0.78117980 10.98702285 -9.48880584
v 0.91757307 11.05538902 -9.47625710
v 1.19819846 13.50474408 -9.32802840
v 1.20446941 13.50474408 -9.32410673
v 1.03319378 11.19760220 -9.42841641
v -2.26376141 13.50474408 -5.66778428
v -2.32215963 11.19760220 -5.80856273
v -2.26846462 13.50474408 -5.67170595
v -2.30217093 10.98875365 -5.80856273
v -2.26101780 10.86182908 -5.80856273
v -1.91219592 10.55807555 -7.28458190
v 0.37278375 10.80240528 -9.36175231
v 0.73375573 10.55807555 -8.23787645
v 0.58991563 10.55807555 -8.27003169
v 0.58207695 10.55807555 -8.27120850
v 0.37278375 10.86413677 -9.48488479
v 0.58207695 10.87105997 -9.47821825
v 0.58207695 10.98875365 -9.52096170
v 0.58207695 11.19760220 -9.55115641
v 0.79097814 11.19760220 -9.51704002
v 0.92893923 11.19760220 -9.48135559
v 1.03319378 13.50474408 -9.42841641
v -2.32215963 13.50474408 -5.80856273
v -2.34685154 11.19760220 -6.01757396
v -2.31628070 10.98875365 -6.01757396
v -2.26258553 10.86009828 -6.01757396
v -1.94041516 10.55807555 -7.48065191
v -1.08991676 10.80240528 -9.36175231
v -1.29254708 10.55807555 -8.24062131
v -1.08991676 10.86413677 -9.48488479
v 0.37278375 10.98875365 -9.53429414
v 0.37278375 11.19760220 -9.56488134
v 0.57423827 13.50474408 -9.55194074
v 0.58207695 13.50474408 -9.55115641
v 0.79097814 13.50474408 -9.51704002
v 0.92893923 13.50474408 -9.48135559
v -2.34685154 13.50474408 -6.01757396
v -2.34685154 11.19760220 -8.31669681
v -2.31628070 10.98875365 -8.31669681
v -2.26258553 10.86009828 -8.31669681
v -1.92317007 10.55807555 -7.68966313
v -1.50811115 10.76548182 -9.15274109
v -1.29881802 10.81163617 -9.36175231
v -1.38778716 10.55807555 -8.21552446
v -1.08991676 10.98875365 -9.53429414
v -1.29881802 10.87250225 -9.47704206
v -1.08991676 11.19760220 -9.56488134
v 0.37278375 13.50474408 -9.56488134
v -2.34685154 13.50474408 -8.31669681
v -2.33039032 13.50474408 -8.51786468
v -2.32960645 11.19760220 -8.52570803
v -2.29903546 10.98875365 -8.52570803
v -2.25435500 10.86875221 -8.52570803
v -2.24377271 10.87971390 -8.65119289
v -2.14814070 10.83529034 -8.72648405
v -1.91964274 10.55807555 -7.69907453
v -1.71701242 10.78653979 -9.15274109
v -1.49713700 10.55807555 -8.16650634
v -1.49282573 10.83730959 -9.37351671
v -1.29881802 10.98875365 -9.51821621
v -1.41287100 10.88202166 -9.46802252
v -1.08991676 13.50474408 -9.56488134
v -1.29881802 11.19760220 -9.54841155
v -2.32960645 13.50474408 -8.52570803
v -2.29198065 11.19760220 -8.73471864
v -2.25004365 11.05394666 -8.85941978
v -2.26297755 10.98586893 -8.72648405
v -2.22652762 10.91461812 -8.79040267
v -2.08464727 10.84682891 -8.94372986
v -1.86242025 10.55807555 -7.85004871
v -1.92591369 10.78596283 -8.94372986
v -1.91807485 10.84423271 -9.14529022
v -1.71701242 10.84769431 -9.30881313
v -1.67546728 10.55807555 -8.05592322
v -1.78011384 10.55807555 -7.95475025
v -1.49282573 10.99077290 -9.48566912
v -1.62882707 11.06173519 -9.47429658
v -1.55239983 10.92240673 -9.45076840
v -1.29881802 13.50474408 -9.54841155
v -1.50811115 11.19760220 -9.51155030
v -1.30665670 13.50474408 -9.54723474
v -2.29198065 13.50474408 -8.73471864
v -2.25553073 11.19760220 -8.86922303
v -2.19399704 11.19760220 -8.97392520
v -2.08974233 11.19760220 -9.13352644
v -2.07171338 10.98875365 -9.10764463
v -2.18106314 10.98586893 -8.93471094
v -2.04623760 10.87048301 -9.07078401
v -1.85771705 10.55807555 -7.85632339
v -1.84321542 10.87134841 -9.27195189
v -1.70603827 10.99077290 -9.40528009
v -1.88044921 10.98875365 -9.29704873
v -1.90670885 11.19760220 -9.31469533
v -1.74170433 11.19760220 -9.41939687
v -1.63705769 11.19760220 -9.47861011
v -1.51281435 13.50474408 -9.51037411
v -1.50811115 13.50474408 -9.51155030
v -2.25553073 13.50474408 -8.86922303
v -2.19634864 13.50474408 -8.97000352
v -2.19399704 13.50474408 -8.97392520
v -2.09366167 13.50474408 -9.12764424
v -2.08974233 13.50474408 -9.13352644
v -2.01409887 13.50474408 -9.23430630
v -2.01096340 11.19760220 -9.23822798
v -1.98470391 10.98875365 -9.21234680
v -1.91062819 13.50474408 -9.31195047
v -1.90670885 13.50474408 -9.31469533
v -1.74797527 13.50474408 -9.41547582
v -1.74170433 13.50474408 -9.41939687
v -1.63705769 13.50474408 -9.47861011
v -2.01096340 13.50474408 -9.23822798
f 1 2 9
f 1 9 10
f 1 10 3
f 1 3 4
f 1 4 5
f 1 5 6
f 1 6 2
f 2 6 7
f 2 7 8
f 2 8 17
f 2 17 9
f 3 10 20
f 3 20 35
f 3 35 53
f 3 53 71
f 3 71 90
f 3 90 89
f 3 89 110
f 3 110 109
f 3 109 128
f 3 128 142
f 3 142 141
f 3 141 140
f 3 140 139
f 3 139 154
f 3 154 168
f 3 168 185
f 3 185 187
f 3 187 203
f 3 203 202
f 3 202 216
f 3 216 215
f 3 215 214
f 3 214 213
f 3 213 212
f 3 212 217
f 3 217 209
f 3 209 208
f 3 208 207
f 3 207 206
f 3 206 205
f 3 205 204
f 3 204 188
f 3 188 170
f 3 170 156
f 3 156 155
f 3 155 143
f 3 143 129
f 3 129 114
f 3 114 112
f 3 112 91
f 3 91 75
f 3 75 72
f 3 72 55
f 3 55 54
f 3 54 36
f 3 36 21
f 3 21 11
f 3 11 5
f 3 5 4
f 5 11 6
f 6 11 12
f 6 12 13
f 6 13 7
f 7 13 14
f 7 14 15
f 7 15 8
f 8 15 16
f 8 16 29
f 8 29 17
f 9 17 18
f 9 18 19
f 9 19 20
f 9 20 10
f 11 21 12
f 12 21 22
f 12 22 13
f 13 22 23
f 13 23 14
f 14 24 15
f 14 23 25
f 14 25 24
f 15 24 26
f 15 26 27
f 15 27 28
f 15 28 16
f 16 28 29
f 17 29 30
f 17 30 18
f 18 30 31
f 18 31 32
f 18 32 33
f 18 33 34
f 18 34 19
f 19 34 35
f 19 35 20
f 21 36 22
f 22 36 37
f 22 37 23
f 23 37 38
f 23 38 25
f 24 25 39
f 24 39 40
f 24 40 41
f 24 41 42
f 24 42 43
f 24 43 26
f 25 38 44
f 25 44 39
f 26 43 42
f 26 42 41
f 26 41 40
f 26 40 60
f 26 60 59
f 26 59 81
f 26 81 80
f 26 80 79
f 26 79 78
f 26 78 98
f 26 98 97
f 26 97 96
f 26 96 95
f 26 95 117
f 26 117 133
f 26 133 147
f 26 147 162
f 26 162 176
f 26 176 195
f 26 195 181
f 26 181 180
f 26 180 164
f 26 164 150
f 26 150 135
f 26 135 121
f 26 121 120
f 26 120 119
f 26 119 105
f 26 105 104
f 26 104 103
f 26 103 99
f 26 99 82
f 26 82 64
f 26 64 62
f 26 62 45
f 26 45 28
f 26 28 27
f 28 45 30
f 28 30 29
f 30 45 31
f 31 45 32
f 32 46 33
f 32 45 47
f 32 47 48
f 32 48 49
f 32 49 50
f 32 50 51
f 32 51 46
f 33 46 34
f 34 46 52
f 34 52 53
f 34 53 35
f 36 54 37
f 37 54 55
f 37 55 72
f 37 72 56
f 37 56 57
f 37 57 38
f 38 57 61
f 38 61 44
f 39 44 61
f 39 61 58
f 39 58 59
f 39 59 60
f 39 60 40
f 45 62 47
f 46 51 50
f 46 50 63
f 46 63 52
f 47 62 48
f 48 62 64
f 48 64 65
f 48 65 66
f 48 66 49
f 49 66 67
f 49 67 68
f 49 68 50
f 50 68 69
f 50 69 70
f 50 70 63
f 52 63 71
f 52 71 53
f 56 73 74
f 56 74 57
f 56 72 75
f 56 75 91
f 56 91 73
f 57 74 76
f 57 76 61
f 58 61 76
f 58 76 77
f 58 77 78
f 58 78 79
f 58 79 80
f 58 80 81
f 58 81 59
f 63 70 90
f 63 90 71
f 64 82 65
f 65 82 83
f 65 83 66
f 66 83 84
f 66 84 67
f 67 84 85
f 67 85 86
f 67 86 87
f 67 87 68
f 68 87 69
f 69 87 88
f 69 88 110
f 69 110 89
f 69 89 90
f 69 90 70
f 73 91 92
f 73 92 93
f 73 93 74
f 74 93 94
f 74 94 76
f 76 94 77
f 77 94 95
f 77 95 96
f 77 96 97
f 77 97 98
f 77 98 78
f 82 99 83
f 83 100 101
f 83 101 102
f 83 102 84
f 83 99 103
f 83 103 104
f 83 104 105
f 83 105 100
f 84 102 106
f 84 106 85
f 85 106 107
f 85 107 108
f 85 108 86
f 86 108 87
f 87 108 88
f 88 109 110
f 88 108 111
f 88 111 109
f 91 112 92
f 92 113 93
f 92 112 114
f 92 114 113
f 93 113 115
f 93 115 94
f 94 115 116
f 94 116 95
f 95 116 117
f 100 118 101
f 100 105 119
f 100 119 120
f 100 120 121
f 100 121 118
f 101 118 122
f 101 122 123
f 101 123 102
f 102 123 106
f 106 123 124
f 106 124 107
f 107 124 125
f 107 125 108
f 108 125 126
f 108 126 127
f 108 127 111
f 109 111 128
f 111 127 142
f 111 142 128
f 113 114 129
f 113 129 143
f 113 143 130
f 113 130 115
f 115 130 131
f 115 131 116
f 116 131 132
f 116 132 133
f 116 133 117
f 118 134 136
f 118 136 122
f 118 121 134
f 121 135 134
f 122 136 151
f 122 151 137
f 122 137 123
f 123 137 124
f 124 137 138
f 124 138 125
f 125 139 140
f 125 140 141
f 125 141 126
f 125 138 139
f 126 141 142
f 126 142 127
f 130 143 155
f 130 155 144
f 130 144 145
f 130 145 131
f 131 145 146
f 131 146 132
f 132 146 133
f 133 146 147
f 134 148 149
f 134 149 136
f 134 135 148
f 135 150 148
f 136 149 152
f 136 152 151
f 137 151 153
f 137 153 138
f 138 153 168
f 138 168 154
f 138 154 139
f 144 155 156
f 144 156 157
f 144 157 158
f 144 158 145
f 145 158 159
f 145 159 146
f 146 159 147
f 147 159 160
f 147 160 161
f 147 161 162
f 148 163 149
f 148 150 164
f 148 164 163
f 149 165 152
f 149 163 165
f 151 152 166
f 151 166 153
f 152 165 167
f 152 167 166
f 153 166 169
f 153 169 185
f 153 185 168
f 156 170 157
f 157 171 172
f 157 172 158
f 157 170 188
f 157 188 171
f 158 172 173
f 158 173 160
f 158 160 159
f 160 173 174
f 160 174 175
f 160 175 161
f 161 176 162
f 161 175 176
f 163 177 178
f 163 178 179
f 163 179 165
f 163 164 180
f 163 180 181
f 163 181 177
f 165 179 167
f 166 182 183
f 166 183 169
f 166 167 182
f 167 179 184
f 167 184 182
f 169 186 187
f 169 187 185
f 169 183 186
f 171 189 172
f 171 188 204
f 171 204 189
f 172 174 173
f 172 189 190
f 172 190 191
f 172 191 192
f 172 192 193
f 172 193 174
f 174 193 194
f 174 194 175
f 175 194 177
f 175 177 176
f 176 177 195
f 177 194 178
f 177 181 195
f 178 194 196
f 178 196 179
f 179 196 184
f 182 184 183
f 183 184 197
f 183 197 198
f 183 198 199
f 183 199 200
f 183 200 201
f 183 201 186
f 184 196 197
f 186 201 202
f 186 202 203
f 186 203 187
f 189 204 205
f 189 205 190
f 190 205 206
f 190 206 207
f 190 207 191
f 191 207 208
f 191 208 209
f 191 209 210
f 191 210 192
f 192 210 211
f 192 211 194
f 192 194 193
f 194 211 196
f 196 198 197
f 196 211 198
f 198 211 210
f 198 210 199
f 199 210 212
f 199 212 213
f 199 213 214
f 199 214 200
f 200 214 215
f 200 215 216
f 200 216 201
f 201 216 202
f 209 217 210
f 210 217 212

