# https://github.com/mikedh/trimesh
v 2.11633111 15.49658678 -0.31542178
v 2.08578504 15.49658678 -0.16414214
v 2.08578504 13.49716613 -0.16414214
v 2.11583833 13.49716613 -0.31542178
v -2.91689961 15.49658678 -0.31542178
v 2.06361434 15.49658678 -0.07341075
v 2.02961912 13.28812718 -0.16414214
v 2.03356073 14.33301011 0.04477649
v 2.03306795 13.49716613 0.04477649
v 1.96113653 13.35354937 0.18060087
v 2.05967273 13.28812718 -0.31542178
v -2.91640683 14.96324187 -0.31542178
v -2.90064101 15.49658678 -0.22978152
v 2.03356073 15.49658678 0.04477649
v 1.97985840 13.28563494 0.03095769
v 1.94438547 13.17971391 -0.04795499
v 2.00695596 15.49658678 0.11096133
v 1.97148271 14.33301011 0.19678346
v 1.97099025 13.49716613 0.19641980
v 1.73154726 13.18376361 0.35824538
v 1.91728792 13.21429379 0.09132406
v 1.90250735 13.49716613 0.30097003
v 1.54334303 13.35417235 0.80699315
v 1.49900163 13.21491709 0.74099014
v 2.03947283 13.25448177 -0.31542178
v -2.91591405 14.75108770 -0.31542178
v -2.86763136 15.49658678 -0.05704632
v -2.87649951 15.49658678 -0.10341210
v 1.82663463 13.09217304 0.01986627
v 1.73548856 12.97067496 -0.05159157
v 1.74780555 12.95821376 -0.16414214
v 1.95719524 13.16725239 -0.16414214
v 1.97148271 15.49658678 0.19732892
v 1.97148271 15.16916528 0.19732892
v 1.97148271 14.54204875 0.19696526
v 1.11027618 15.49658678 1.54211774
v 1.77785915 13.14419893 0.21878444
v 1.54580630 13.16413717 0.60189287
v 1.59211850 13.12457249 0.46297743
v 0.90532088 12.31396272 0.06605021
v 1.03883754 12.31396272 -0.13395896
v 1.72809843 13.49716613 0.56189103
v 1.55368921 13.49716613 0.82244841
v 1.46894803 13.49716613 0.92699864
v 1.34725589 13.34825308 1.00991153
v 1.42312860 13.28158524 0.88572403
v 1.35957287 13.14451042 0.82517578
v 1.97197549 13.15229894 -0.31542178
v -2.91492880 14.33301011 -0.31542178
v -2.84792424 15.49658678 0.00204726
v -2.86713858 15.16916528 -0.05868274
v -2.82969484 13.49716613 0.04477649
v -2.83068040 13.91493222 0.04477649
v -2.83117287 14.12397117 0.04477649
v 1.27975854 12.46381023 -0.31542178
v 1.52067955 12.76693214 -0.06486491
v 1.12160792 12.33078558 -0.23905469
v 1.11076896 12.31396272 -0.25705545
v 1.12752002 12.31396272 -0.31542178
v 1.48422106 12.66630693 -0.31542178
v 1.68720587 12.86755735 -0.31542178
v 1.76307859 12.94326000 -0.31542178
v 1.89659524 13.07659630 -0.31542178
v 0.49541013 13.49716613 1.54211774
v 0.58212204 13.49716613 1.51720747
v 0.74224339 13.49716613 1.44084026
v 0.72352153 13.34763010 1.42829433
v 1.10682735 13.38937553 1.19573819
v 1.36449973 13.49716613 1.02227566
v -1.91084468 15.49658678 1.54211774
v 1.06199348 12.31396272 -0.16959690
v 1.41130440 13.08469601 0.66189562
v 1.10190049 12.76724363 0.56443662
v 0.86689174 12.31396272 0.12150729
v 1.28419262 13.20868633 0.96445491
v 1.20437829 13.08282706 0.87754182
v -2.91443602 14.18378558 -0.31542178
v -2.83265089 15.16916528 0.04586745
v -2.83265089 15.37820392 0.04695841
v -2.83265089 15.49658678 0.04750391
v -2.86664611 14.91090418 -0.06086466
v -2.76810960 13.28812718 0.04477649
v -2.65824198 13.39155628 0.35915450
v -2.72918784 13.49716613 0.25387696
v -2.86516808 14.12397117 -0.06850141
v -2.86368975 13.49716613 -0.07468350
v -2.87847032 13.36538759 -0.20978059
v -2.73017340 13.91493222 0.25387696
v 1.09500314 12.31396272 -0.22505402
v 1.10781290 12.31396272 -0.25050970
v -1.91527875 12.31396272 -0.31542178
v 0.37273251 13.36663355 1.54211774
v 0.37273251 13.28812718 1.52084398
v 0.58015131 13.28189673 1.45702285
v 0.64814128 13.20837484 1.38411039
v 0.79249689 13.28189673 1.33938119
v -2.73017340 15.49658678 0.25387696
v -2.41436461 13.49716613 0.72517122
v -2.30991631 13.49716613 0.87154156
v -2.22960921 13.49716613 0.97609180
v -2.12466813 13.49716613 1.04845868
v -1.84975222 13.35697608 1.21319353
v -1.60341149 13.49716613 1.39720190
v -1.49896312 13.49716613 1.46265944
v -1.31075896 13.49716613 1.54211774
v 1.12456397 12.96226345 0.79062876
v 0.66538512 12.31396272 0.33533524
v 0.92749150 12.52923227 0.39224692
v 0.75061900 12.31396272 0.25387696
v 0.90137942 13.18033689 1.19810194
v 1.14476386 13.16071014 1.01227524
v -2.91345078 13.91493222 -0.31542178
v -2.77500726 15.49658678 0.16405469
v -2.88635322 14.33301011 -0.17105156
v -2.82624601 13.29280017 -0.14977788
v -2.68238317 13.15915237 0.04477649
v -2.66070525 13.18127136 0.15350873
v -2.68780281 13.30837691 0.23551249
v -2.47250102 13.34949936 0.60280200
v -2.91197275 13.55884980 -0.31542178
v -2.91147997 13.49716613 -0.31542178
v -2.83511448 13.24513578 -0.31542178
v -2.88881650 13.34451487 -0.31542178
v -1.86748853 12.31396272 -0.19650725
v -2.47890590 12.94450627 -0.00504396
v -2.39465750 12.81459668 -0.16414214
v -2.50403265 12.91927175 -0.16414214
v -2.12614615 12.51677090 -0.31542178
v 0.27961579 13.29186570 1.54211774
v 0.37273251 13.15292193 1.43393092
v 0.50871252 13.17005612 1.41683924
v 0.49935158 12.96226345 1.20701144
v 0.79101887 13.14918341 1.23501271
v -2.27641387 13.28812718 0.82644862
v -2.09362927 13.32551142 1.02736683
v -1.78373290 13.21772082 1.16900967
v -1.52507519 13.26850074 1.37065522
v -1.46693886 13.32488813 1.44284035
v -1.30681751 13.48875462 1.54211774
v 0.45944442 12.31396272 0.47734173
v 0.72450685 12.31396272 0.27915085
v -2.71292956 13.12799920 -0.16414214
v -2.27838468 13.15074118 0.67171425
v -2.24192619 13.18127136 0.77971917
v -2.42815962 13.21024410 0.53661716
v -2.26311164 12.74481331 -0.02322660
v -1.79752791 12.31396272 -0.08104742
v -1.76550350 12.31396272 -0.03031785
v -2.38234051 13.28314270 0.67207789
v -2.72820259 13.11304545 -0.31542178
v -2.51930569 12.90400681 -0.31542178
v -2.33750633 12.72394059 -0.31542178
v -0.04506107 13.19061735 1.54211774
v -0.25445055 13.13859146 1.54211774
v 0.16383576 13.13204921 1.45484101
v -0.13719245 12.31396272 0.70153379
v 0.37273251 13.04824655 1.32883519
v 0.37273251 12.94481776 1.22428496
v 0.48062971 12.76350527 0.98754685
v 0.55995142 12.88251080 1.07500536
v 0.63878034 13.00151664 1.16246400
v 0.16383576 12.50493268 0.82772137
v 0.16383576 12.40056895 0.71953463
v 0.16383576 12.31396272 0.62843953
v 0.28996213 12.31396272 0.58225561
v 0.31508888 12.31396272 0.56880045
v -2.15176568 13.26850074 0.94045381
v -2.02711718 13.18594436 0.98318301
v -1.39796350 13.18563286 1.40156574
v -1.31667106 13.26850074 1.47193269
v -1.29991992 13.48190088 1.54211774
v 0.41116164 12.31396272 0.50825223
v -2.00839531 12.98687468 0.75626357
v -2.13501462 13.13890295 0.82953962
v -1.68815276 12.31396272 0.08241460
v -1.80935212 12.56630470 0.34097185
v -1.63494313 12.32829334 0.17987358
v -1.84236178 12.74917481 0.58680128
v -0.46285468 13.12955697 1.54211774
v -0.25445055 13.09061527 1.49629738
v -0.04506107 13.11117650 1.47556920
v 0.02243627 12.31396272 0.66535031
v -0.25494323 12.31396272 0.72389847
v -1.94828841 13.06631553 0.89554266
v -1.88818120 13.14606819 1.02973058
v -1.64430406 13.16538313 1.21555728
v -1.50783135 13.12675293 1.26119573
v -1.16246189 12.31396272 0.53552620
v -1.22404705 12.74886316 1.00245665
v -1.23636404 12.95572120 1.21301170
v -1.25853473 13.16476015 1.42211217
v -1.09890600 13.30370392 1.54211774
v -1.71722080 12.71116758 0.63116693
v -1.65021624 12.31396272 0.13496242
v -1.60488960 12.31396272 0.19260142
v -1.52950935 12.31396272 0.27824172
v -1.44575357 12.31396272 0.34151733
v -1.42998775 12.33234319 0.37606437
v -0.46285468 13.08656527 1.50029755
v -0.57075184 13.14731415 1.54211774
v -0.46581077 12.31396272 0.73135331
v -1.36988069 12.31396272 0.39624711
v -1.29893460 12.31396272 0.44443112
v -1.10925234 12.31396272 0.56625487
v -1.04717455 12.31396272 0.59880182
v -1.04175507 12.31396272 0.60080191
v -0.88064828 12.31396272 0.65262246
v -1.09003777 12.72861358 1.02263933
v -1.09003777 12.83141954 1.12718964
v -1.09003777 12.93609476 1.23283079
v -1.09003777 13.04045834 1.33719919
v -1.09003777 13.14513340 1.44174951
v -0.74811706 13.18625585 1.54211774
v -0.92252617 13.23983981 1.54211774
v -1.08363289 13.29809645 1.54211774
v -0.67175149 13.10369946 1.48338763
v -0.88064828 13.12426100 1.46265944
v -0.67175149 12.31396272 0.69644266
f 1 2 3
f 1 3 4
f 1 4 11
f 1 11 25
f 1 25 48
f 1 48 63
f 1 63 62
f 1 62 61
f 1 61 60
f 1 60 55
f 1 55 59
f 1 59 91
f 1 91 128
f 1 128 152
f 1 152 151
f 1 151 150
f 1 150 122
f 1 122 123
f 1 123 121
f 1 121 120
f 1 120 112
f 1 112 77
f 1 77 49
f 1 49 26
f 1 26 12
f 1 12 5
f 1 5 13
f 1 13 28
f 1 28 27
f 1 27 50
f 1 50 80
f 1 80 113
f 1 113 97
f 1 97 70
f 1 70 36
f 1 36 33
f 1 33 17
f 1 17 14
f 1 14 6
f 1 6 2
f 2 6 3
f 3 7 11
f 3 11 4
f 3 6 8
f 3 8 9
f 3 9 10
f 3 10 7
f 5 12 13
f 6 14 8
f 7 10 15
f 7 15 16
f 7 16 11
f 8 14 17
f 8 17 18
f 8 18 9
f 9 18 19
f 9 19 10
f 10 20 21
f 10 21 15
f 10 19 22
f 10 22 23
f 10 23 24
f 10 24 20
f 11 16 25
f 12 26 27
f 12 27 28
f 12 28 13
f 15 21 16
f 16 21 29
f 16 29 30
f 16 30 31
f 16 31 32
f 16 32 25
f 17 33 34
f 17 34 35
f 17 35 18
f 18 35 36
f 18 36 19
f 19 36 22
f 20 37 21
f 20 24 38
f 20 38 39
f 20 39 40
f 20 40 41
f 20 41 37
f 21 37 29
f 22 42 23
f 22 36 42
f 23 42 43
f 23 43 44
f 23 44 45
f 23 45 46
f 23 46 24
f 24 46 47
f 24 47 38
f 25 32 48
f 26 49 27
f 27 49 51
f 27 51 52
f 27 52 53
f 27 53 54
f 27 54 50
f 29 37 30
f 30 55 31
f 30 37 56
f 30 56 57
f 30 57 58
f 30 58 59
f 30 59 55
f 31 55 60
f 31 60 61
f 31 61 62
f 31 62 32
f 32 62 63
f 32 63 48
f 33 36 34
f 34 36 35
f 36 64 65
f 36 65 66
f 36 66 67
f 36 67 68
f 36 68 69
f 36 69 44
f 36 44 43
f 36 43 42
f 36 70 105
f 36 105 139
f 36 139 171
f 36 171 192
f 36 192 215
f 36 215 214
f 36 214 213
f 36 213 200
f 36 200 179
f 36 179 154
f 36 154 153
f 36 153 129
f 36 129 92
f 36 92 64
f 37 41 71
f 37 71 56
f 38 47 72
f 38 72 40
f 38 40 39
f 40 73 74
f 40 74 109
f 40 109 141
f 40 141 107
f 40 107 140
f 40 140 172
f 40 172 166
f 40 166 165
f 40 165 164
f 40 164 182
f 40 182 156
f 40 156 183
f 40 183 201
f 40 201 218
f 40 218 207
f 40 207 206
f 40 206 205
f 40 205 204
f 40 204 188
f 40 188 203
f 40 203 202
f 40 202 197
f 40 197 196
f 40 196 195
f 40 195 194
f 40 194 175
f 40 175 148
f 40 148 147
f 40 147 124
f 40 124 91
f 40 91 59
f 40 59 58
f 40 58 90
f 40 90 89
f 40 89 71
f 40 71 41
f 40 72 73
f 44 69 45
f 45 75 46
f 45 69 68
f 45 68 67
f 45 67 75
f 46 75 47
f 47 75 76
f 47 76 73
f 47 73 72
f 49 77 51
f 50 78 79
f 50 79 80
f 50 54 78
f 51 77 81
f 51 81 52
f 52 82 83
f 52 83 84
f 52 84 88
f 52 88 53
f 52 81 85
f 52 85 86
f 52 86 87
f 52 87 82
f 53 88 54
f 54 88 80
f 54 80 79
f 54 79 78
f 56 71 89
f 56 89 57
f 57 89 90
f 57 90 58
f 64 92 65
f 65 92 93
f 65 93 94
f 65 94 67
f 65 67 66
f 67 94 95
f 67 95 96
f 67 96 75
f 70 97 88
f 70 88 84
f 70 84 83
f 70 83 98
f 70 98 99
f 70 99 100
f 70 100 101
f 70 101 102
f 70 102 103
f 70 103 104
f 70 104 105
f 73 106 107
f 73 107 108
f 73 108 74
f 73 76 106
f 74 108 109
f 75 96 110
f 75 110 111
f 75 111 76
f 76 111 106
f 77 112 81
f 80 88 113
f 81 112 114
f 81 114 85
f 82 87 115
f 82 115 116
f 82 116 117
f 82 117 118
f 82 118 83
f 83 118 119
f 83 119 99
f 83 99 98
f 85 114 112
f 85 112 120
f 85 120 86
f 86 120 121
f 86 121 87
f 87 122 115
f 87 121 123
f 87 123 122
f 88 97 113
f 91 124 125
f 91 125 126
f 91 126 127
f 91 127 128
f 92 129 93
f 93 129 130
f 93 130 131
f 93 131 94
f 94 131 95
f 95 131 132
f 95 132 133
f 95 133 110
f 95 110 96
f 99 119 100
f 100 119 134
f 100 134 135
f 100 135 102
f 100 102 101
f 102 136 137
f 102 137 138
f 102 138 104
f 102 104 103
f 102 135 136
f 104 138 105
f 105 138 139
f 106 111 140
f 106 140 107
f 107 141 108
f 108 141 109
f 110 133 140
f 110 140 111
f 115 122 116
f 116 122 142
f 116 142 127
f 116 127 125
f 116 125 117
f 117 143 144
f 117 144 145
f 117 145 118
f 117 125 146
f 117 146 147
f 117 147 148
f 117 148 143
f 118 145 119
f 119 145 149
f 119 149 134
f 122 150 142
f 124 147 146
f 124 146 125
f 125 127 126
f 127 151 152
f 127 152 128
f 127 142 151
f 129 153 130
f 130 153 154
f 130 154 155
f 130 155 156
f 130 156 157
f 130 157 131
f 131 157 158
f 131 158 132
f 132 159 160
f 132 160 161
f 132 161 133
f 132 158 162
f 132 162 163
f 132 163 164
f 132 164 165
f 132 165 166
f 132 166 159
f 133 161 140
f 134 144 167
f 134 167 135
f 134 149 144
f 135 167 168
f 135 168 136
f 136 169 137
f 136 168 169
f 137 169 138
f 138 169 170
f 138 170 139
f 139 170 171
f 140 161 160
f 140 160 159
f 140 159 172
f 142 150 151
f 143 148 144
f 144 173 174
f 144 174 168
f 144 168 167
f 144 149 145
f 144 148 175
f 144 175 176
f 144 176 177
f 144 177 178
f 144 178 173
f 154 179 180
f 154 180 181
f 154 181 155
f 155 181 156
f 156 182 162
f 156 162 157
f 156 181 180
f 156 180 183
f 157 162 158
f 159 166 172
f 162 182 163
f 163 182 164
f 168 174 173
f 168 173 184
f 168 184 185
f 168 185 186
f 168 186 169
f 169 186 187
f 169 187 188
f 169 188 189
f 169 189 190
f 169 190 191
f 169 191 170
f 170 191 192
f 170 192 171
f 173 178 193
f 173 193 184
f 175 194 176
f 176 194 177
f 177 194 195
f 177 195 178
f 178 195 196
f 178 196 197
f 178 197 198
f 178 198 193
f 179 199 180
f 179 200 199
f 180 199 183
f 183 199 201
f 184 193 202
f 184 202 203
f 184 203 185
f 185 203 186
f 186 203 188
f 186 188 187
f 188 204 189
f 189 204 205
f 189 205 206
f 189 206 207
f 189 207 208
f 189 208 190
f 190 208 191
f 191 208 209
f 191 209 210
f 191 210 211
f 191 211 212
f 191 212 213
f 191 213 214
f 191 214 215
f 191 215 192
f 193 198 202
f 197 202 198
f 199 200 216
f 199 216 201
f 200 213 212
f 200 212 217
f 200 217 216
f 201 216 218
f 207 218 210
f 207 210 209
f 207 209 208
f 210 218 211
f 211 218 212
f 212 218 217
f 216 217 218

