# https://github.com/mikedh/trimesh
v -0.07707181 0.03721289 0.00461119
v -0.07707181 0.03722714 0.00375429
v -0.07707181 0.03782552 0.00497407
v -0.09300098 0.02184022 0.00498671
v -0.09172284 0.02250699 0.00455660
v -0.09172284 0.02250699 0.00385016
v -0.07707181 0.03866325 0.00240468
v -0.09302341 0.02184022 0.00304253
v -0.09305424 0.02184022 0.00301257
v -0.07707181 0.03860912 0.00522774
v -0.09303182 0.02184022 0.00500070
v -0.09300098 0.02184022 0.00496275
v -0.07707181 0.04052393 0.00073615
v -0.09520411 0.02184022 0.00101779
v -0.07707181 0.04011646 0.00566584
v -0.09521531 0.02184022 0.00567650
v -0.07707181 0.04163806 -0.00017668
v -0.09532744 0.02184022 0.00090660
v -0.07707181 0.04080603 0.00569913
v -0.09535267 0.02184022 0.00568515
v -0.07707181 0.04280633 -0.00066340
v -0.09702883 0.02184022 -0.00037643
v -0.09721942 0.02184022 -0.00050693
v -0.07707181 0.04221079 0.00572444
v -0.09730912 0.02184022 0.00572444
v -0.07707181 0.04499184 -0.00107754
v -0.09940293 0.02184022 -0.00107487
v -0.07707181 0.04708332 0.00572444
v -0.10149393 0.02184022 0.00572444
v -0.07707181 0.04708332 -0.00107754
v -0.09940293 0.02197414 -0.00107687
v -0.10149393 0.02184022 -0.00107754
v -0.07707181 0.04848809 0.00562523
v -0.07847888 0.04708332 0.00572444
v -0.10163128 0.02184022 0.00571978
v -0.10149393 0.02406847 0.00572444
v -0.07847888 0.04708332 -0.00107754
v -0.07707181 0.04923749 -0.00089044
v -0.10358774 0.02184022 -0.00105424
v -0.10149393 0.02406847 -0.00107754
v -0.08056989 0.04708332 0.00568382
v -0.07707181 0.04923749 0.00541417
v -0.08266370 0.04499184 0.00568382
v -0.09103331 0.03453158 0.00572444
v -0.10358774 0.02184022 0.00563122
v -0.10149393 0.02615995 0.00568382
v -0.10358774 0.02197414 0.00562923
v -0.09312431 0.03453158 0.00568382
v -0.08266370 0.04499184 -0.00107288
v -0.08056989 0.04708332 -0.00107288
v -0.09103331 0.03453158 -0.00107754
v -0.08056989 0.04893545 -0.00053823
v -0.07707181 0.04970195 -0.00072798
v -0.10515739 0.02184022 -0.00051958
v -0.10358774 0.02197414 -0.00105290
v -0.10149393 0.02615995 -0.00107288
v -0.09312431 0.03453158 -0.00107288
v -0.08056989 0.04894400 0.00491015
v -0.08275619 0.04717735 0.00504064
v -0.07707181 0.05059667 0.00471306
v -0.07811450 0.05049979 0.00457723
v -0.08485000 0.04508587 0.00504064
v -0.08894230 0.03871454 0.00568382
v -0.10369145 0.02184022 0.00558062
v -0.09949542 0.03043980 0.00504064
v -0.10158923 0.02834547 0.00504064
v -0.10296548 0.02771289 0.00463916
v -0.10363258 0.02600894 0.00481227
v -0.10358774 0.02406847 0.00533560
v -0.10516860 0.02184022 0.00485821
v -0.10516581 0.02197414 0.00485555
v -0.09531062 0.03462561 0.00504064
v -0.08484720 0.04508302 -0.00064276
v -0.08894230 0.03871454 -0.00107288
v -0.08275339 0.04717450 -0.00064276
v -0.07811170 0.05049694 -0.00030319
v -0.08211712 0.04851943 -0.00035845
v -0.07707181 0.05059382 -0.00040640
v -0.10519383 0.02184022 -0.00041705
v -0.10515458 0.02197414 -0.00051825
v -0.10358774 0.02406847 -0.00082719
v -0.10295987 0.02770720 -0.00035845
v -0.10158643 0.02834262 -0.00064276
v -0.09949262 0.03043695 -0.00064276
v -0.09530782 0.03462276 -0.00064276
v -0.08212273 0.04852513 0.00463916
v -0.08421373 0.04654193 0.00463916
v -0.07707181 0.05086166 0.00370702
v -0.07707181 0.05094715 0.00313109
v -0.07845646 0.05063656 0.00313109
v -0.07950197 0.05021200 0.00313109
v -0.08056989 0.04975894 0.00313109
v -0.08630752 0.04445045 0.00463916
v -0.09112861 0.03880858 0.00504064
v -0.10095296 0.02980438 0.00463916
v -0.10225353 0.02900938 0.00313109
v -0.10317570 0.02796364 0.00313109
v -0.10467248 0.02521109 0.00425897
v -0.10490793 0.02406847 0.00456192
v -0.10570117 0.02197414 0.00313109
v -0.10570396 0.02184022 0.00313109
v -0.09676814 0.03399019 0.00463916
v -0.08839573 0.04235327 -0.00035845
v -0.08420812 0.04653908 -0.00035845
v -0.08056989 0.04975039 0.00103909
v -0.07949916 0.05020915 0.00103909
v -0.07845366 0.05063371 0.00103909
v -0.07707181 0.05094145 0.00103909
v -0.08341769 0.04783842 0.00103909
v -0.08236939 0.04871889 0.00103909
v -0.10569275 0.02184022 0.00103909
v -0.10568715 0.02197414 0.00103909
v -0.10490512 0.02406847 -0.00029187
v -0.10362978 0.02600609 -0.00046498
v -0.10317290 0.02796079 0.00103909
v -0.10224793 0.02900653 0.00103909
v -0.10094736 0.02979868 -0.00035845
v -0.10467248 0.02520825 -0.00006217
v -0.09885635 0.03189301 -0.00035845
v -0.08342049 0.04784127 0.00313109
v -0.08237499 0.04872459 0.00313109
v -0.07707181 0.05094430 0.00173487
v -0.08551430 0.04574979 0.00313109
v -0.10120523 0.03005797 0.00313109
v -0.10422401 0.02630528 0.00313109
v -0.10469491 0.02525953 0.00313109
v -0.10518541 0.02406847 0.00313109
v -0.10569555 0.02184022 0.00117492
v -0.10518262 0.02406847 0.00103909
v -0.09597492 0.03528953 0.00313109
v -0.09492380 0.03633242 0.00103909
v -0.10421840 0.02630243 0.00103909
v -0.09910862 0.03214661 0.00103909
v -0.10469210 0.02525669 0.00103909
f 1 2 7
f 1 7 13
f 1 13 17
f 1 17 21
f 1 21 26
f 1 26 30
f 1 30 38
f 1 38 53
f 1 53 78
f 1 78 108
f 1 108 122
f 1 122 89
f 1 89 88
f 1 88 60
f 1 60 42
f 1 42 33
f 1 33 28
f 1 28 24
f 1 24 19
f 1 19 15
f 1 15 10
f 1 10 3
f 1 3 4
f 1 4 5
f 1 5 6
f 1 6 2
f 2 6 8
f 2 8 9
f 2 9 7
f 3 10 11
f 3 11 4
f 4 11 16
f 4 16 20
f 4 20 25
f 4 25 29
f 4 29 35
f 4 35 45
f 4 45 64
f 4 64 70
f 4 70 101
f 4 101 128
f 4 128 111
f 4 111 79
f 4 79 54
f 4 54 39
f 4 39 32
f 4 32 27
f 4 27 23
f 4 23 22
f 4 22 18
f 4 18 14
f 4 14 9
f 4 9 8
f 4 8 12
f 4 12 6
f 4 6 5
f 6 12 8
f 7 9 14
f 7 14 13
f 10 15 16
f 10 16 11
f 13 14 18
f 13 18 17
f 15 19 20
f 15 20 16
f 17 18 22
f 17 22 23
f 17 23 21
f 19 24 25
f 19 25 20
f 21 23 27
f 21 27 26
f 24 28 34
f 24 34 44
f 24 44 36
f 24 36 29
f 24 29 25
f 26 27 31
f 26 31 32
f 26 32 40
f 26 40 51
f 26 51 37
f 26 37 30
f 27 32 31
f 28 33 34
f 29 36 35
f 30 37 38
f 32 39 40
f 33 41 34
f 33 42 41
f 34 41 43
f 34 43 44
f 35 36 45
f 36 46 47
f 36 47 45
f 36 44 48
f 36 48 46
f 37 49 50
f 37 50 38
f 37 51 49
f 38 52 53
f 38 50 52
f 39 54 55
f 39 55 56
f 39 56 40
f 40 56 57
f 40 57 51
f 41 42 58
f 41 58 59
f 41 59 62
f 41 62 43
f 42 60 61
f 42 61 58
f 43 62 94
f 43 94 63
f 43 63 44
f 44 63 48
f 45 47 64
f 46 65 66
f 46 66 67
f 46 67 68
f 46 68 69
f 46 69 47
f 46 48 72
f 46 72 65
f 47 70 64
f 47 69 71
f 47 71 70
f 48 63 94
f 48 94 72
f 49 73 75
f 49 75 50
f 49 51 74
f 49 74 73
f 50 75 52
f 51 57 74
f 52 76 53
f 52 75 77
f 52 77 76
f 53 76 78
f 54 79 80
f 54 80 55
f 55 80 81
f 55 81 56
f 56 81 82
f 56 82 83
f 56 83 84
f 56 84 85
f 56 85 57
f 57 85 74
f 58 61 86
f 58 86 59
f 59 86 87
f 59 87 93
f 59 93 62
f 60 88 61
f 61 88 89
f 61 89 90
f 61 90 91
f 61 91 92
f 61 92 86
f 62 93 94
f 65 95 66
f 65 72 102
f 65 102 95
f 66 95 67
f 67 95 96
f 67 96 97
f 67 97 98
f 67 98 99
f 67 99 68
f 68 99 69
f 69 99 71
f 70 71 100
f 70 100 101
f 71 99 100
f 72 94 102
f 73 103 104
f 73 104 75
f 73 74 85
f 73 85 119
f 73 119 103
f 75 104 77
f 76 105 106
f 76 106 107
f 76 107 108
f 76 108 78
f 76 77 105
f 77 104 109
f 77 109 110
f 77 110 105
f 79 111 80
f 80 112 113
f 80 113 81
f 80 111 112
f 81 113 114
f 81 114 82
f 82 115 116
f 82 116 117
f 82 117 83
f 82 114 113
f 82 113 118
f 82 118 115
f 83 117 119
f 83 119 84
f 84 119 85
f 86 120 87
f 86 92 121
f 86 121 120
f 87 120 123
f 87 123 93
f 89 122 107
f 89 107 90
f 90 107 106
f 90 106 91
f 91 106 92
f 92 106 105
f 92 105 121
f 93 123 130
f 93 130 102
f 93 102 94
f 95 124 96
f 95 102 124
f 96 124 116
f 96 116 115
f 96 115 97
f 97 115 125
f 97 125 98
f 98 126 127
f 98 127 99
f 98 125 126
f 99 127 100
f 100 112 128
f 100 128 101
f 100 127 129
f 100 129 112
f 102 130 124
f 103 109 104
f 103 119 109
f 105 110 121
f 107 122 108
f 109 123 120
f 109 120 121
f 109 121 110
f 109 119 131
f 109 131 130
f 109 130 123
f 111 128 112
f 112 129 113
f 113 129 118
f 115 118 132
f 115 132 125
f 116 124 133
f 116 133 119
f 116 119 117
f 118 129 134
f 118 134 132
f 119 133 131
f 124 130 131
f 124 131 133
f 125 132 134
f 125 134 126
f 126 134 129
f 126 129 127

