# https://github.com/mikedh/trimesh
v -0.07098445 -0.00104603 0.02490952
v -0.07754444 -0.00220865 0.02098462
v -0.07354537 -0.00235350 0.02318301
v -0.07098445 -0.00305705 0.02402499
v -0.07098445 0.00104623 0.02490767
v -0.10385198 0.00104623 0.00600670
v -0.10385198 -0.00104603 0.00600670
v -0.09215080 -0.00217263 0.01259261
v -0.10336939 -0.00292293 0.00600670
v -0.10326966 -0.00303176 0.00600670
v -0.07098445 -0.00320957 0.02368080
v -0.10149373 -0.00370389 0.00600670
v -0.07098445 0.00305726 0.02402499
v -0.07354537 0.00235370 0.02318301
v -0.07754444 0.00220886 0.02098462
v -0.09215080 0.00217207 0.01259261
v -0.10336939 0.00292237 0.00600670
v -0.10380694 -0.00124683 0.00600670
v -0.07847745 -0.00350999 0.01777956
v -0.07220057 -0.00330230 0.02196538
v -0.07098445 -0.00325555 0.02182845
v -0.09940251 -0.00390086 0.00600670
v -0.07098445 0.00325575 0.02182845
v -0.07220057 0.00330250 0.02196538
v -0.09941216 0.00389799 0.00600670
v -0.10149373 0.00370409 0.00600670
v -0.07429178 -0.00340040 0.01987247
v -0.09730806 -0.00391465 0.00600670
v -0.09521684 -0.00389089 0.00600670
v -0.09502703 -0.00388706 0.00600670
v -0.07098445 -0.00304403 0.02089395
v -0.07429178 0.00340060 0.01987247
v -0.07098445 0.00260355 0.02032769
v -0.07223596 0.00282044 0.01983546
v -0.09316424 0.00340213 0.00600670
v -0.09521684 0.00389110 0.00600670
v -0.07847745 0.00351096 0.01777956
v -0.09731450 0.00391332 0.00600670
v -0.09221514 -0.00315592 0.00600670
v -0.07295662 -0.00237803 0.01862154
v -0.07098445 -0.00260335 0.02032769
v -0.07098445 0.00096806 0.01975404
v -0.07295662 0.00237823 0.01862154
v -0.07912412 0.00245334 0.01436169
v -0.08529159 0.00251082 0.01009815
v -0.08893676 0.00265490 0.00777022
v -0.09138188 0.00261045 0.00600670
v -0.09138188 -0.00261025 0.00600670
v -0.08767559 -0.00232898 0.00821249
v -0.08529159 -0.00251138 0.01009815
v -0.07912412 -0.00245313 0.01436169
v -0.07098445 -0.00096862 0.01975404
v -0.07098445 -0.00198027 0.02004642
v -0.08151132 -0.00221785 0.01247604
v -0.08151132 0.00221805 0.01247604
v -0.09010140 0.00104623 0.00635459
v -0.08767559 0.00232841 0.00821249
v -0.09060008 0.00104623 0.00600670
v -0.09101511 -0.00206151 0.00600670
v -0.09060008 -0.00104603 0.00600670
v -0.09010140 -0.00104603 0.00635459
f 1 2 3
f 1 3 4
f 1 4 11
f 1 11 21
f 1 21 31
f 1 31 41
f 1 41 53
f 1 53 52
f 1 52 42
f 1 42 33
f 1 33 23
f 1 23 13
f 1 13 5
f 1 5 6
f 1 6 7
f 1 7 8
f 1 8 2
f 2 8 9
f 2 9 3
f 3 9 10
f 3 10 4
f 4 10 12
f 4 12 11
f 5 13 14
f 5 14 15
f 5 15 16
f 5 16 6
f 6 16 17
f 6 17 26
f 6 26 25
f 6 25 38
f 6 38 36
f 6 36 35
f 6 35 47
f 6 47 58
f 6 58 60
f 6 60 59
f 6 59 48
f 6 48 39
f 6 39 30
f 6 30 29
f 6 29 28
f 6 28 22
f 6 22 12
f 6 12 10
f 6 10 9
f 6 9 18
f 6 18 7
f 7 18 8
f 8 18 9
f 11 19 20
f 11 20 21
f 11 12 22
f 11 22 19
f 13 23 24
f 13 24 25
f 13 25 26
f 13 26 17
f 13 17 14
f 14 17 15
f 15 17 16
f 19 27 20
f 19 22 28
f 19 28 29
f 19 29 30
f 19 30 27
f 20 27 21
f 21 27 31
f 23 32 24
f 23 33 34
f 23 34 35
f 23 35 36
f 23 36 32
f 24 32 37
f 24 37 25
f 25 37 38
f 27 30 31
f 30 39 31
f 31 40 41
f 31 39 40
f 32 36 37
f 33 42 43
f 33 43 44
f 33 44 45
f 33 45 35
f 33 35 34
f 35 45 46
f 35 46 47
f 36 38 37
f 39 48 49
f 39 49 50
f 39 50 51
f 39 51 40
f 40 52 53
f 40 53 41
f 40 51 49
f 40 49 54
f 40 54 52
f 42 55 43
f 42 52 61
f 42 61 56
f 42 56 55
f 43 55 57
f 43 57 44
f 44 57 45
f 45 57 47
f 45 47 46
f 47 57 58
f 48 59 49
f 49 59 60
f 49 60 54
f 49 51 50
f 52 54 61
f 54 60 61
f 55 56 58
f 55 58 57
f 56 61 60
f 56 60 58

