# https://github.com/mikedh/trimesh
v -0.05545446 -0.00965569 0.14333384
v -0.05545446 -0.00965569 0.12659952
v -0.05336558 -0.00959331 0.14333384
v -0.05460721 -0.00961978 0.14418163
v -0.05545446 -0.00962734 0.14542443
v -0.05754710 -0.00916043 0.14542443
v -0.05336558 -0.00959331 0.12659952
v -0.05754710 -0.00916043 0.12659952
v -0.05545446 -0.00727769 0.04919005
v -0.05336558 -0.00721720 0.04919005
v -0.05127293 -0.00903756 0.14542443
v -0.05336558 -0.00956685 0.14542443
v -0.05754710 -0.00876536 0.14691770
v -0.05890950 -0.00854041 0.14669612
v -0.05336558 -0.00895250 0.14701404
v -0.05545446 -0.00898463 0.14703331
v -0.05906611 -0.00862548 0.14542443
v -0.05127293 -0.00903756 0.12659952
v -0.05906611 -0.00862548 0.12659952
v -0.05754899 -0.00671248 0.04919005
v -0.05155409 -0.00660852 0.04919005
v -0.04992186 -0.00856310 0.14542443
v -0.05002376 -0.00849883 0.14664795
v -0.05127293 -0.00870487 0.14685990
v -0.05754710 -0.00732305 0.14745721
v -0.05961900 -0.00736086 0.14703331
v -0.06110215 -0.00669358 0.14680209
v -0.06011149 -0.00794875 0.14542443
v -0.05127293 -0.00732305 0.14740904
v -0.05336558 -0.00732305 0.14756319
v -0.05545446 -0.00732305 0.14758245
v -0.04992186 -0.00856310 0.12659952
v -0.06011149 -0.00794875 0.12659952
v -0.05864343 -0.00631552 0.04919005
v -0.05051626 -0.00610191 0.04919005
v -0.04887648 -0.00772191 0.14542443
v -0.04786884 -0.00654047 0.14672502
v -0.04926897 -0.00727202 0.14695624
v -0.05963975 -0.00523048 0.14758245
v -0.06177203 -0.00523993 0.14706221
v -0.06300234 -0.00454808 0.14675392
v -0.06235699 -0.00577489 0.14542443
v -0.06130972 -0.00690151 0.14542443
v -0.04918028 -0.00522859 0.14751501
v -0.04708952 -0.00104345 0.14754391
v -0.05545446 0.00732305 0.14758245
v -0.06173240 -0.00104534 0.14761135
v -0.04887648 -0.00772191 0.12659952
v -0.06130972 -0.00690151 0.12659952
v -0.05969070 -0.00528152 0.04919005
v -0.05050494 -0.00609246 0.04919005
v -0.04773486 -0.00667468 0.14542443
v -0.04596677 -0.00431746 0.14658051
v -0.04713858 -0.00510194 0.14691770
v -0.06173240 -0.00313791 0.14752464
v -0.06324953 -0.00313791 0.14696587
v -0.06372693 -0.00313791 0.14542443
v -0.06311555 -0.00472955 0.14542443
v -0.06423075 -0.00104534 0.14542443
v -0.06235699 -0.00577489 0.12659952
v -0.04708952 -0.00313602 0.14734160
v -0.04708952 0.00104345 0.14754391
v -0.04553655 -0.00104345 0.14698514
v -0.05963975 0.00523048 0.14758245
v -0.06173240 0.00104534 0.14761135
v -0.05336558 0.00732305 0.14756319
v -0.05545446 0.00898464 0.14703331
v -0.05754710 0.00732305 0.14745721
v -0.06348539 -0.00104534 0.14704294
v -0.04773486 -0.00667468 0.12659952
v -0.04935577 -0.00505468 0.04919005
v -0.06072854 -0.00423429 0.04919005
v -0.04668949 -0.00543085 0.14542443
v -0.04593092 -0.00438551 0.14542443
v -0.04553843 -0.00313602 0.14542443
v -0.04501197 -0.00104345 0.14542443
v -0.04578940 -0.00313602 0.14678282
v -0.06427226 -0.00104534 0.14333384
v -0.06373259 -0.00313791 0.14333384
v -0.06311555 -0.00472955 0.12659952
v -0.06423075 0.00104534 0.14542443
v -0.04918028 0.00522859 0.14751501
v -0.04553655 0.00104345 0.14698514
v -0.04708952 0.00313602 0.14734160
v -0.05961900 0.00736086 0.14703331
v -0.06177203 0.00523994 0.14706221
v -0.06173240 0.00313791 0.14752464
v -0.06348539 0.00104534 0.14704294
v -0.05127293 0.00732305 0.14740904
v -0.05336558 0.00895250 0.14701404
v -0.05754710 0.00876536 0.14691770
v -0.05545446 0.00962734 0.14542443
v -0.04668949 -0.00543085 0.12659952
v -0.04830850 -0.00383165 0.04919005
v -0.06120782 -0.00313791 0.04919005
v -0.04593092 -0.00438551 0.12659952
v -0.04553843 -0.00313602 0.12659952
v -0.04499687 -0.00104345 0.14333384
v -0.04501197 0.00104345 0.14542443
v -0.06427226 0.00104534 0.14333384
v -0.06427226 -0.00104534 0.12659952
v -0.06373259 -0.00313791 0.12659952
v -0.06324953 0.00313791 0.14696587
v -0.06300234 0.00454808 0.14675392
v -0.06372693 0.00313791 0.14542443
v -0.04713858 0.00510194 0.14691770
v -0.04926897 0.00727202 0.14695624
v -0.04578940 0.00313602 0.14678282
v -0.05890950 0.00854041 0.14669612
v -0.06110215 0.00669358 0.14680209
v -0.05002376 0.00849883 0.14664795
v -0.05127293 0.00870487 0.14685990
v -0.05336558 0.00956685 0.14542443
v -0.05545446 0.00965570 0.14333384
v -0.05754710 0.00916043 0.14542443
v -0.04788016 -0.00278442 0.04919005
v -0.06189468 -0.00106424 0.04919005
v -0.04499687 -0.00104345 0.12659952
v -0.04736502 -0.00104534 0.04919005
v -0.04499687 0.00104345 0.14333384
v -0.04553843 0.00313602 0.14542443
v -0.04596677 0.00431746 0.14658051
v -0.06373259 0.00313791 0.14333384
v -0.06427226 0.00104534 0.12659952
v -0.06190034 -0.00104534 0.04919005
v -0.06235699 0.00577489 0.14542443
v -0.06311555 0.00472955 0.14542443
v -0.04786884 0.00654047 0.14672502
v -0.05906611 0.00862548 0.14542443
v -0.06011149 0.00794875 0.14542443
v -0.06130972 0.00690152 0.14542443
v -0.04887648 0.00772191 0.14542443
v -0.04992186 0.00856310 0.14542443
v -0.05127293 0.00903756 0.14542443
v -0.05336558 0.00959332 0.14333384
v -0.05545446 0.00965570 0.12659952
v -0.05754710 0.00916043 0.12659952
v -0.04499687 0.00104345 0.12659952
v -0.04736502 0.00104534 0.04919005
v -0.04553843 0.00313602 0.12659952
v -0.04593092 0.00438552 0.14542443
v -0.04668949 0.00543086 0.14542443
v -0.04773486 0.00667468 0.14542443
v -0.06373259 0.00313791 0.12659952
v -0.06190034 0.00104534 0.04919005
v -0.06235699 0.00577489 0.12659952
v -0.06311555 0.00472955 0.12659952
v -0.05906611 0.00862548 0.12659952
v -0.06011149 0.00794875 0.12659952
v -0.06130972 0.00690152 0.12659952
v -0.04887648 0.00772191 0.12659952
v -0.04992186 0.00856310 0.12659952
v -0.05127293 0.00903756 0.12659952
v -0.05336558 0.00959332 0.12659952
v -0.05336558 0.00721720 0.04919005
v -0.05545446 0.00727769 0.04919005
v -0.05755843 0.00670870 0.04919005
v -0.04788394 0.00279577 0.04919005
v -0.04593092 0.00438552 0.12659952
v -0.04668949 0.00543086 0.12659952
v -0.04773486 0.00667468 0.12659952
v -0.06121537 0.00311901 0.04919005
v -0.06073231 0.00422295 0.04919005
v -0.06120782 0.00313791 0.04919005
v -0.05865287 0.00630607 0.04919005
v -0.05969070 0.00528152 0.04919005
v -0.04935577 0.00505469 0.04919005
v -0.05052569 0.00610570 0.04919005
v -0.05156164 0.00661230 0.04919005
v -0.04830850 0.00383166 0.04919005
f 1 2 7
f 1 7 3
f 1 3 4
f 1 4 5
f 1 5 6
f 1 6 8
f 1 8 2
f 2 8 9
f 2 9 10
f 2 10 7
f 3 7 18
f 3 18 11
f 3 11 12
f 3 12 4
f 4 12 5
f 5 13 14
f 5 14 6
f 5 12 15
f 5 15 16
f 5 16 13
f 6 17 19
f 6 19 8
f 6 14 17
f 7 10 18
f 8 19 20
f 8 20 9
f 9 20 34
f 9 34 50
f 9 50 72
f 9 72 95
f 9 95 117
f 9 117 125
f 9 125 145
f 9 145 162
f 9 162 164
f 9 164 163
f 9 163 166
f 9 166 165
f 9 165 157
f 9 157 156
f 9 156 155
f 9 155 169
f 9 169 168
f 9 168 167
f 9 167 170
f 9 170 158
f 9 158 139
f 9 139 119
f 9 119 116
f 9 116 94
f 9 94 71
f 9 71 51
f 9 51 35
f 9 35 21
f 9 21 10
f 10 21 18
f 11 18 32
f 11 32 22
f 11 22 23
f 11 23 12
f 12 23 24
f 12 24 15
f 13 16 25
f 13 25 26
f 13 26 14
f 14 26 27
f 14 27 28
f 14 28 17
f 15 29 30
f 15 30 16
f 15 24 29
f 16 30 31
f 16 31 25
f 17 28 33
f 17 33 19
f 18 21 32
f 19 33 34
f 19 34 20
f 21 35 32
f 22 32 48
f 22 48 36
f 22 36 23
f 23 37 38
f 23 38 29
f 23 29 24
f 23 36 37
f 25 31 39
f 25 39 26
f 26 39 40
f 26 40 27
f 27 41 42
f 27 42 43
f 27 43 28
f 27 40 41
f 28 43 49
f 28 49 33
f 29 44 30
f 29 38 44
f 30 44 45
f 30 45 31
f 31 45 62
f 31 62 46
f 31 46 65
f 31 65 47
f 31 47 39
f 32 35 48
f 33 49 34
f 34 49 50
f 35 51 48
f 36 48 70
f 36 70 52
f 36 52 37
f 37 52 53
f 37 53 54
f 37 54 38
f 38 54 44
f 39 47 55
f 39 55 40
f 40 56 41
f 40 55 56
f 41 57 58
f 41 58 42
f 41 56 59
f 41 59 57
f 42 58 80
f 42 80 60
f 42 60 49
f 42 49 43
f 44 54 61
f 44 61 45
f 45 61 63
f 45 63 83
f 45 83 62
f 46 64 65
f 46 62 66
f 46 66 67
f 46 67 68
f 46 68 64
f 47 65 88
f 47 88 69
f 47 69 55
f 48 51 71
f 48 71 70
f 49 60 72
f 49 72 50
f 52 70 93
f 52 93 73
f 52 73 53
f 53 73 74
f 53 74 75
f 53 75 76
f 53 76 77
f 53 77 54
f 54 77 61
f 55 69 56
f 56 69 59
f 57 59 78
f 57 78 79
f 57 79 58
f 58 79 102
f 58 102 80
f 59 81 100
f 59 100 78
f 59 69 88
f 59 88 81
f 60 80 72
f 61 77 63
f 62 82 66
f 62 83 84
f 62 84 82
f 63 77 76
f 63 76 99
f 63 99 83
f 64 68 85
f 64 85 86
f 64 86 87
f 64 87 65
f 65 87 88
f 66 82 89
f 66 89 90
f 66 90 67
f 67 91 68
f 67 90 92
f 67 92 91
f 68 91 85
f 70 71 94
f 70 94 93
f 72 80 95
f 73 93 96
f 73 96 74
f 74 96 97
f 74 97 75
f 75 97 118
f 75 118 98
f 75 98 76
f 76 98 120
f 76 120 99
f 78 100 124
f 78 124 101
f 78 101 102
f 78 102 79
f 80 102 95
f 81 88 103
f 81 103 104
f 81 104 105
f 81 105 100
f 82 84 106
f 82 106 107
f 82 107 89
f 83 108 84
f 83 99 108
f 84 108 106
f 85 91 109
f 85 109 110
f 85 110 86
f 86 110 104
f 86 104 103
f 86 103 87
f 87 103 88
f 89 107 111
f 89 111 112
f 89 112 90
f 90 112 113
f 90 113 92
f 91 92 109
f 92 113 114
f 92 114 115
f 92 115 109
f 93 94 96
f 94 116 96
f 95 102 117
f 96 116 97
f 97 116 119
f 97 119 118
f 98 118 138
f 98 138 120
f 99 120 121
f 99 121 122
f 99 122 108
f 100 105 123
f 100 123 144
f 100 144 124
f 101 124 145
f 101 145 125
f 101 125 102
f 102 125 117
f 104 110 126
f 104 126 127
f 104 127 105
f 105 127 123
f 106 108 122
f 106 122 128
f 106 128 107
f 107 128 111
f 109 115 129
f 109 129 130
f 109 130 110
f 110 130 131
f 110 131 126
f 111 128 132
f 111 132 133
f 111 133 134
f 111 134 113
f 111 113 112
f 113 134 135
f 113 135 114
f 114 135 154
f 114 154 136
f 114 136 137
f 114 137 115
f 115 137 148
f 115 148 129
f 118 119 139
f 118 139 138
f 120 138 140
f 120 140 121
f 121 140 159
f 121 159 141
f 121 141 122
f 122 141 142
f 122 142 143
f 122 143 128
f 123 127 147
f 123 147 144
f 124 144 145
f 126 131 150
f 126 150 146
f 126 146 147
f 126 147 127
f 128 143 132
f 129 148 149
f 129 149 130
f 130 149 150
f 130 150 131
f 132 143 161
f 132 161 151
f 132 151 152
f 132 152 133
f 133 152 153
f 133 153 134
f 134 153 154
f 134 154 135
f 136 154 155
f 136 155 156
f 136 156 137
f 137 156 157
f 137 157 148
f 138 139 140
f 139 158 140
f 140 158 159
f 141 159 160
f 141 160 142
f 142 160 161
f 142 161 143
f 144 147 162
f 144 162 145
f 146 150 163
f 146 163 147
f 147 163 164
f 147 164 162
f 148 157 165
f 148 165 149
f 149 165 150
f 150 165 166
f 150 166 163
f 151 161 167
f 151 167 168
f 151 168 152
f 152 168 169
f 152 169 153
f 153 169 155
f 153 155 154
f 158 170 159
f 159 170 160
f 160 170 161
f 161 170 167

