# https://github.com/mikedh/trimesh
v 0.08472227 0.01251580 0.00103905
v 0.08472227 0.01163006 0.00272790
v 0.08472227 0.01237294 0.00059536
v 0.04407222 0.00101399 0.00600485
v 0.04630736 0.00162829 0.00600485
v 0.08472227 0.01161149 0.00273694
v 0.08472227 0.01148720 -0.00037468
v 0.05127248 0.00086684 0.00145238
v 0.04904953 0.00108399 0.00296363
v 0.04708619 0.00075255 0.00355197
v 0.04501739 0.00095256 0.00517689
v 0.04335828 0.00055254 0.00584274
v 0.04328526 0.00061969 0.00600485
v 0.04857492 0.00102827 0.00600485
v 0.08472227 0.01159434 0.00274081
v 0.08472227 0.00935855 -0.00040698
v 0.08056843 0.00732420 -0.00051289
v 0.06382731 0.00104684 -0.00058974
v 0.06173823 0.00104684 -0.00053485
v 0.05755193 0.00082684 -0.00040375
v 0.05545877 0.00051968 -0.00025003
v 0.05412015 0.00020824 -0.00009891
v 0.04966206 0.00046825 0.00180500
v 0.04573132 0.00033968 0.00397177
v 0.04335828 -0.00061035 0.00584274
v 0.04328526 -0.00069179 0.00600485
v 0.04901302 0.00080969 0.00600485
v 0.08266157 0.00941713 0.00298623
v 0.08472227 0.00927998 0.00277762
v 0.08472227 0.00925855 -0.00038954
v 0.07836575 0.00521413 -0.00036047
v 0.07638213 0.00523127 -0.00052645
v 0.06591640 0.00104684 -0.00059297
v 0.05964507 -0.00069179 -0.00047156
v 0.05755193 -0.00064321 -0.00040375
v 0.05545877 -0.00043749 -0.00025003
v 0.05412015 -0.00018463 -0.00009891
v 0.04966206 -0.00047178 0.00180500
v 0.04573132 -0.00036892 0.00397177
v 0.04503361 -0.00118752 0.00528926
v 0.04472531 -0.00154753 0.00600485
v 0.04901302 -0.00085608 0.00600485
v 0.08472227 0.00913569 0.00275308
v 0.08056843 0.00732420 0.00304112
v 0.08472227 0.00835995 0.00037836
v 0.08408945 0.00812994 -0.00018610
v 0.08245875 0.00738849 -0.00029008
v 0.07638213 0.00382265 -0.00026037
v 0.07416323 0.00310834 -0.00036112
v 0.07219584 0.00313977 -0.00054002
v 0.08056843 0.00598415 -0.00020031
v 0.06382731 -0.00048464 -0.00039987
v 0.06173823 -0.00063178 -0.00046898
v 0.07010269 0.00142543 -0.00041666
v 0.05964507 -0.00149324 0.00103905
v 0.05755193 -0.00153039 0.00103905
v 0.05545877 -0.00142324 0.00103905
v 0.05340214 -0.00092608 0.00091052
v 0.05127248 -0.00085465 0.00145238
v 0.04708619 -0.00079893 0.00355197
v 0.04562585 -0.00198897 0.00600485
v 0.04638847 -0.00207898 0.00600485
v 0.07638213 0.00364693 0.00256192
v 0.07848745 0.00513841 0.00271304
v 0.08472227 0.00894568 0.00267300
v 0.08256422 0.00731563 0.00263296
v 0.08472227 0.00812708 0.00103905
v 0.08163123 0.00626702 -0.00001689
v 0.07759502 0.00410266 -0.00008406
v 0.07338033 0.00203688 -0.00006404
v 0.07219584 0.00181116 -0.00023260
v 0.06591640 -0.00028034 -0.00026295
v 0.06173823 -0.00134324 0.00103905
v 0.06736456 -0.00010605 -0.00011764
v 0.05127248 -0.00172039 0.00313089
v 0.04904953 -0.00111609 0.00296363
v 0.06382731 -0.00106323 0.00103905
v 0.06591640 -0.00038606 0.00248700
v 0.06761607 -0.00018177 0.00230036
v 0.07219584 0.00166829 0.00249992
v 0.07359532 0.00193830 0.00226741
v 0.07779784 0.00398980 0.00230358
v 0.08056843 0.00580986 0.00249217
v 0.08426388 0.00800708 0.00241467
v 0.08180565 0.00615844 0.00222285
v 0.08440992 0.00791708 0.00103905
v 0.08176915 0.00618130 0.00103905
v 0.07783030 0.00397694 0.00103905
v 0.07361155 0.00193402 0.00103905
v 0.07219584 0.00138543 0.00103905
v 0.06880057 0.00010967 0.00103905
v 0.06591640 -0.00066607 0.00103905
v 0.06775399 -0.00021606 0.00103905
f 1 2 6
f 1 6 15
f 1 15 29
f 1 29 43
f 1 43 65
f 1 65 67
f 1 67 45
f 1 45 30
f 1 30 16
f 1 16 7
f 1 7 3
f 1 3 4
f 1 4 5
f 1 5 2
f 2 5 6
f 3 7 8
f 3 8 9
f 3 9 10
f 3 10 11
f 3 11 4
f 4 11 12
f 4 12 13
f 4 13 26
f 4 26 41
f 4 41 61
f 4 61 62
f 4 62 42
f 4 42 27
f 4 27 14
f 4 14 5
f 5 14 15
f 5 15 6
f 7 16 17
f 7 17 18
f 7 18 19
f 7 19 20
f 7 20 21
f 7 21 22
f 7 22 8
f 8 22 23
f 8 23 10
f 8 10 9
f 10 24 11
f 10 23 24
f 11 24 12
f 12 25 26
f 12 26 13
f 12 24 39
f 12 39 25
f 14 27 15
f 15 28 29
f 15 27 28
f 16 30 17
f 17 30 31
f 17 31 32
f 17 32 33
f 17 33 18
f 18 33 34
f 18 34 19
f 19 34 20
f 20 34 35
f 20 35 36
f 20 36 21
f 21 36 37
f 21 37 22
f 22 37 38
f 22 38 23
f 23 38 39
f 23 39 24
f 25 40 26
f 25 39 40
f 26 40 41
f 27 42 28
f 28 42 29
f 29 42 44
f 29 44 43
f 30 45 46
f 30 46 47
f 30 47 31
f 31 48 49
f 31 49 50
f 31 50 32
f 31 47 51
f 31 51 48
f 32 50 33
f 33 52 53
f 33 53 34
f 33 50 54
f 33 54 52
f 34 55 56
f 34 56 35
f 34 53 55
f 35 56 57
f 35 57 36
f 36 57 58
f 36 58 59
f 36 59 37
f 37 59 38
f 38 59 60
f 38 60 39
f 39 60 40
f 40 61 41
f 40 60 61
f 42 62 63
f 42 63 64
f 42 64 44
f 43 44 66
f 43 66 65
f 44 64 66
f 45 67 68
f 45 68 46
f 46 68 51
f 46 51 47
f 48 51 69
f 48 69 70
f 48 70 71
f 48 71 49
f 49 71 54
f 49 54 50
f 51 68 69
f 52 54 72
f 52 72 73
f 52 73 53
f 53 73 55
f 54 71 74
f 54 74 72
f 55 62 56
f 55 73 62
f 56 62 75
f 56 75 57
f 57 75 59
f 57 59 58
f 59 76 60
f 59 75 61
f 59 61 76
f 60 76 61
f 61 75 62
f 62 73 77
f 62 77 78
f 62 78 79
f 62 79 80
f 62 80 63
f 63 80 81
f 63 81 82
f 63 82 83
f 63 83 64
f 64 83 66
f 65 66 84
f 65 84 67
f 66 83 84
f 67 84 85
f 67 85 86
f 67 86 68
f 68 86 87
f 68 87 88
f 68 88 69
f 69 88 70
f 70 88 89
f 70 89 90
f 70 90 91
f 70 91 74
f 70 74 71
f 72 74 77
f 72 77 73
f 74 92 77
f 74 91 93
f 74 93 92
f 77 92 79
f 77 79 78
f 79 92 93
f 79 93 91
f 79 91 81
f 79 81 80
f 81 91 90
f 81 90 89
f 81 89 88
f 81 88 82
f 82 88 85
f 82 85 83
f 83 85 84
f 85 88 87
f 85 87 86

