# https://github.com/mikedh/trimesh
v 0.10530333 0.03662203 0.00103885
v 0.10495401 0.03662203 -0.00032978
v 0.10492019 0.03871368 -0.00030718
v 0.10522089 0.03871368 0.00103885
v 0.10493502 0.03871368 0.00240246
v 0.10498366 0.03662203 0.00244660
v 0.10492435 0.03453037 0.00240210
v 0.10517226 0.03453037 0.00103885
v 0.10488224 0.03453037 -0.00026662
v 0.10358815 0.03662203 -0.00070011
v 0.10358815 0.03871368 -0.00071590
v 0.10358815 0.03453037 -0.00067068
v 0.10358815 0.04080697 -0.00065310
v 0.10362788 0.04271158 -0.00043815
v 0.10476481 0.04080697 -0.00015251
v 0.10464797 0.04188858 -0.00002369
v 0.10489588 0.04080697 0.00103885
v 0.10464560 0.04188207 0.00209816
v 0.10476542 0.04080697 0.00223058
v 0.10362076 0.04270832 0.00249469
v 0.10358815 0.04080697 0.00272435
v 0.10358815 0.03871368 0.00282805
v 0.10358815 0.03662203 0.00285819
v 0.10358815 0.03453037 0.00286681
v 0.10358815 0.03243709 0.00277100
v 0.10364449 0.03054549 0.00254242
v 0.10475650 0.03243709 0.00222663
v 0.10476007 0.03291690 -0.00014534
v 0.10463908 0.03137662 0.00209098
v 0.10480692 0.03230697 0.00119029
v 0.10331651 0.03034543 -0.00047368
v 0.10149635 0.02825215 -0.00062511
v 0.10134394 0.04289212 -0.00047978
v 0.10295652 0.04435758 -0.00034019
v 0.10315460 0.04455275 0.00103885
v 0.10420140 0.04294904 0.00103885
v 0.10465273 0.04190159 0.00103885
v 0.10294465 0.04434294 0.00239744
v 0.10135284 0.04291814 0.00253093
v 0.10149635 0.02825215 0.00295006
v 0.10298499 0.02825215 0.00248320
v 0.10458451 0.03152138 0.00059424
v 0.10285272 0.02805209 -0.00025766
v 0.10289603 0.02825215 -0.00028959
v 0.10463908 0.03137662 0.00198907
v 0.10294109 0.02805209 0.00244804
v 0.10325068 0.02805209 0.00103885
v 0.10333905 0.02825215 0.00103885
v 0.10149872 0.02805209 -0.00060287
v 0.09989267 0.02805209 -0.00035490
v 0.10038077 0.04402577 -0.00009331
v 0.10149635 0.04431529 -0.00032153
v 0.10149635 0.04466824 0.00103885
v 0.10149635 0.04429740 0.00237483
v 0.10038907 0.04401764 0.00215881
v 0.09979067 0.02805209 0.00256861
v 0.10127217 0.02805209 0.00292638
v 0.10150288 0.02805209 0.00291956
v 0.10284739 0.02805209 0.00249792
v 0.10426426 0.03054549 0.00119029
v 0.10322340 0.02805209 0.00085405
v 0.09975863 0.02805209 -0.00014354
v 0.10035290 0.04405993 0.00103885
v 0.09924444 0.02805209 0.00103885
f 1 2 3
f 1 3 4
f 1 4 5
f 1 5 6
f 1 6 7
f 1 7 8
f 1 8 9
f 1 9 2
f 2 10 11
f 2 11 3
f 2 9 12
f 2 12 10
f 3 11 13
f 3 13 14
f 3 14 15
f 3 15 4
f 4 15 16
f 4 16 17
f 4 17 18
f 4 18 19
f 4 19 5
f 5 19 20
f 5 20 21
f 5 21 22
f 5 22 6
f 6 22 23
f 6 23 24
f 6 24 7
f 7 24 25
f 7 25 26
f 7 26 27
f 7 27 8
f 8 28 9
f 8 27 29
f 8 29 30
f 8 30 28
f 9 28 31
f 9 31 12
f 10 12 32
f 10 32 11
f 11 32 33
f 11 33 13
f 12 31 32
f 13 33 34
f 13 34 14
f 14 16 15
f 14 34 16
f 16 34 35
f 16 35 36
f 16 36 37
f 16 37 17
f 17 37 18
f 18 37 36
f 18 36 35
f 18 35 38
f 18 38 20
f 18 20 19
f 20 38 21
f 21 38 39
f 21 39 22
f 22 39 40
f 22 40 23
f 23 40 24
f 24 40 25
f 25 40 26
f 26 29 27
f 26 40 41
f 26 41 29
f 28 30 42
f 28 42 43
f 28 43 44
f 28 44 31
f 29 45 30
f 29 41 46
f 29 46 47
f 29 47 48
f 29 48 45
f 30 45 42
f 31 44 49
f 31 49 32
f 32 49 50
f 32 50 33
f 33 51 52
f 33 52 34
f 33 50 51
f 34 52 53
f 34 53 35
f 35 53 38
f 38 53 54
f 38 54 39
f 39 54 55
f 39 55 56
f 39 56 57
f 39 57 40
f 40 57 58
f 40 58 59
f 40 59 41
f 41 59 46
f 42 45 60
f 42 60 48
f 42 48 61
f 42 61 43
f 43 61 47
f 43 47 46
f 43 46 59
f 43 59 58
f 43 58 57
f 43 57 56
f 43 56 64
f 43 64 62
f 43 62 50
f 43 50 49
f 43 49 44
f 45 48 60
f 47 61 48
f 50 62 51
f 51 63 53
f 51 53 52
f 51 62 64
f 51 64 63
f 53 63 55
f 53 55 54
f 55 63 64
f 55 64 56

