# https://github.com/mikedh/trimesh
v 0.11031620 0.20332673 -0.01485364
v 0.11031620 0.25354485 -0.01485364
v 0.14066716 0.20332673 -0.01485364
v 0.11031620 0.20332673 0.03672153
v 0.13469608 0.25354485 -0.01485364
v 0.11031620 0.25354485 0.02781845
v 0.15162314 0.21496204 -0.01485364
v 0.14068188 0.20332673 -0.01480411
v 0.14219305 0.20882241 0.03473512
v 0.14219305 0.21164890 0.03629234
v 0.13798336 0.22427225 0.04123910
v 0.13378349 0.22427225 0.04083742
v 0.13378349 0.22847512 0.04119508
v 0.12115934 0.23267798 0.03622630
v 0.11031620 0.20401001 0.03660047
v 0.14130009 0.20332673 0.01846966
v 0.13894502 0.25354485 -0.01481512
v 0.13893030 0.25353994 -0.01485364
v 0.12536902 0.23688577 0.03669402
v 0.13378349 0.23267798 0.04024865
v 0.12957380 0.24109355 0.03663349
v 0.12957380 0.24464756 0.03507628
v 0.13379821 0.24563068 0.03504876
v 0.13521125 0.24752320 0.03390424
v 0.13798336 0.24755269 0.03397577
v 0.11257315 0.25354485 0.02779093
v 0.14070151 0.20332673 -0.01472157
v 0.15334038 0.21706593 -0.01485364
v 0.15614684 0.21477525 0.01472244
v 0.15404200 0.21228302 0.01472244
v 0.14497988 0.20923041 0.03420688
v 0.14638802 0.21145719 0.03519733
v 0.14639783 0.21585668 0.03671603
v 0.14219305 0.22427225 0.04044124
v 0.14219305 0.22847512 0.04079340
v 0.13798336 0.22847512 0.04136016
v 0.13798336 0.23267798 0.04069436
v 0.14230099 0.20332673 0.01472244
v 0.15005800 0.20854222 0.01893187
v 0.14946923 0.20892564 0.02313580
v 0.14140803 0.25354485 -0.01058918
v 0.15278105 0.23907814 -0.01485364
v 0.13798336 0.24530133 0.03553298
v 0.14045618 0.24748879 0.03383270
v 0.11264674 0.25354485 0.02778543
v 0.14108911 0.20332673 -0.01061119
v 0.15198131 0.21017913 0.01472244
v 0.15216285 0.20998250 0.01893187
v 0.15490552 0.22006447 -0.01485364
v 0.15753044 0.21687914 0.01472244
v 0.15634309 0.21460811 0.01893187
v 0.15423825 0.21208639 0.01893187
v 0.15157408 0.21041016 0.02313580
v 0.14972927 0.21273526 0.03463057
v 0.15092152 0.21555192 0.03542294
v 0.15060752 0.22006447 0.03668851
v 0.15481230 0.22427225 0.03565404
v 0.15481230 0.22847512 0.03592917
v 0.15060752 0.23688577 0.03650693
v 0.14639783 0.24109355 0.03647392
v 0.14109402 0.20332673 -0.01051764
v 0.14142275 0.25354485 -0.01055616
v 0.15401746 0.23695459 -0.01485364
v 0.14296826 0.25354485 -0.00641826
v 0.14303695 0.25354485 -0.00604409
v 0.15701036 0.23913713 0.01251592
v 0.14199189 0.24556678 0.03500474
v 0.13236064 0.25354485 0.02150155
v 0.12957380 0.25354485 0.02290469
v 0.12557019 0.25354485 0.02470952
v 0.12382842 0.25354485 0.02545236
v 0.12200323 0.25354485 0.02601912
v 0.12171867 0.25354485 0.02610716
v 0.12153222 0.25354485 0.02615668
v 0.11695456 0.25354485 0.02727920
v 0.11678283 0.25354485 0.02731221
v 0.11274487 0.25354485 0.02777442
v 0.14639783 0.24439194 0.03491670
v 0.14908653 0.24364476 0.03430042
v 0.13709531 0.25354485 0.01804596
v 0.13435754 0.25354485 0.02022496
v 0.15384574 0.21251405 0.02313580
v 0.15622043 0.22427225 -0.01485364
v 0.15883064 0.22006447 0.01472244
v 0.15911520 0.22006447 0.01893187
v 0.15764328 0.21670709 0.01893187
v 0.15739797 0.21712492 0.02238745
v 0.15243760 0.21404282 0.03154916
v 0.15356116 0.21675133 0.03459206
v 0.15490552 0.22043314 0.03488369
v 0.15714774 0.22427225 0.03409682
v 0.15729003 0.22847512 0.03437195
v 0.15714283 0.23148349 0.03409682
v 0.15514593 0.23280088 0.03516432
v 0.15403218 0.23688577 0.03495522
v 0.15053392 0.24104439 0.03508178
v 0.15405671 0.23688577 -0.01485364
v 0.14364534 0.25354485 -0.00209878
v 0.15549428 0.24144256 0.01472244
v 0.15713793 0.23933867 0.01472244
v 0.15818299 0.23688577 0.01472244
v 0.15585245 0.23267798 -0.01485364
v 0.15579848 0.23281071 -0.01485364
v 0.15321771 0.23961394 0.03434994
v 0.15324715 0.24371358 0.02228841
v 0.14869402 0.24752320 0.02145202
v 0.13902352 0.25354485 0.01494254
v 0.15613212 0.21577803 0.02352648
v 0.15623025 0.22440006 -0.01485364
v 0.15989532 0.22427225 0.01472244
v 0.16018970 0.22427225 0.01893187
v 0.15959112 0.22427225 0.02313580
v 0.15695149 0.22207988 0.03372816
v 0.15813393 0.21967122 0.02352648
v 0.15985607 0.22847512 0.02313580
v 0.15670126 0.23403962 0.03154916
v 0.15536181 0.23688577 0.03154916
v 0.15924277 0.23267798 0.02313580
v 0.15775613 0.23695459 0.02311929
v 0.15711830 0.23930917 0.02170514
v 0.14363553 0.25354485 -0.00115785
v 0.15351701 0.24397411 0.01893187
v 0.15338944 0.24385122 0.01472244
v 0.15562185 0.24157037 0.01893187
v 0.15722133 0.23946647 0.01893187
v 0.15846266 0.23688577 0.01893187
v 0.15954696 0.23267798 0.01472244
v 0.15987569 0.23267798 0.01893187
v 0.15650501 0.22860292 -0.01485364
v 0.15089699 0.24607800 0.01893187
v 0.14360119 0.25354485 0.00210515
v 0.14352759 0.25354485 0.00262238
v 0.14289466 0.25354485 0.00666124
v 0.14124612 0.25354485 0.01043047
v 0.15652463 0.22847512 -0.01485364
v 0.16017989 0.22847512 0.01472244
v 0.16043503 0.22847512 0.01893187
f 1 2 5
f 1 5 18
f 1 18 42
f 1 42 63
f 1 63 97
f 1 97 103
f 1 103 102
f 1 102 129
f 1 129 135
f 1 135 109
f 1 109 83
f 1 83 49
f 1 49 28
f 1 28 7
f 1 7 3
f 1 3 8
f 1 8 27
f 1 27 46
f 1 46 61
f 1 61 38
f 1 38 16
f 1 16 4
f 1 4 15
f 1 15 6
f 1 6 2
f 2 6 26
f 2 26 45
f 2 45 77
f 2 77 76
f 2 76 75
f 2 75 74
f 2 74 73
f 2 73 72
f 2 72 71
f 2 71 70
f 2 70 69
f 2 69 68
f 2 68 81
f 2 81 80
f 2 80 107
f 2 107 134
f 2 134 133
f 2 133 132
f 2 132 131
f 2 131 121
f 2 121 98
f 2 98 65
f 2 65 64
f 2 64 62
f 2 62 41
f 2 41 17
f 2 17 5
f 3 7 8
f 4 9 10
f 4 10 11
f 4 11 12
f 4 12 13
f 4 13 14
f 4 14 15
f 4 16 9
f 5 17 18
f 6 15 14
f 6 14 19
f 6 19 20
f 6 20 21
f 6 21 22
f 6 22 23
f 6 23 24
f 6 24 25
f 6 25 26
f 7 27 8
f 7 28 29
f 7 29 30
f 7 30 27
f 9 31 32
f 9 32 10
f 9 16 31
f 10 32 33
f 10 33 34
f 10 34 11
f 11 34 35
f 11 35 36
f 11 36 13
f 11 13 12
f 13 36 37
f 13 37 20
f 13 20 19
f 13 19 14
f 16 38 39
f 16 39 40
f 16 40 31
f 17 41 18
f 18 41 42
f 20 37 21
f 21 37 43
f 21 43 23
f 21 23 22
f 23 43 24
f 24 43 25
f 25 43 44
f 25 44 45
f 25 45 26
f 27 30 47
f 27 47 48
f 27 48 46
f 28 49 50
f 28 50 29
f 29 50 51
f 29 51 52
f 29 52 30
f 30 52 47
f 31 40 53
f 31 53 54
f 31 54 32
f 32 55 33
f 32 54 55
f 33 55 34
f 34 55 56
f 34 56 57
f 34 57 35
f 35 37 36
f 35 57 58
f 35 58 59
f 35 59 60
f 35 60 37
f 37 60 43
f 38 48 39
f 38 61 48
f 39 48 40
f 40 48 53
f 41 62 42
f 42 62 64
f 42 64 65
f 42 65 66
f 42 66 63
f 43 60 67
f 43 67 44
f 44 68 69
f 44 69 70
f 44 70 71
f 44 71 72
f 44 72 73
f 44 73 74
f 44 74 75
f 44 75 76
f 44 76 77
f 44 77 45
f 44 67 78
f 44 78 79
f 44 79 80
f 44 80 81
f 44 81 68
f 46 48 61
f 47 52 48
f 48 52 82
f 48 82 53
f 49 83 84
f 49 84 50
f 50 84 85
f 50 85 86
f 50 86 51
f 51 86 87
f 51 87 82
f 51 82 52
f 53 82 88
f 53 88 54
f 54 88 89
f 54 89 55
f 55 89 56
f 56 89 90
f 56 90 57
f 57 90 91
f 57 91 92
f 57 92 58
f 58 92 93
f 58 93 94
f 58 94 59
f 59 94 95
f 59 95 96
f 59 96 60
f 60 96 78
f 60 78 67
f 63 66 97
f 65 98 66
f 66 98 99
f 66 99 100
f 66 100 101
f 66 101 102
f 66 102 103
f 66 103 97
f 78 96 79
f 79 96 104
f 79 104 105
f 79 105 106
f 79 106 80
f 80 106 107
f 82 87 108
f 82 108 89
f 82 89 88
f 83 109 110
f 83 110 84
f 84 110 111
f 84 111 85
f 85 111 112
f 85 112 113
f 85 113 114
f 85 114 87
f 85 87 86
f 87 114 113
f 87 113 89
f 87 89 108
f 89 113 90
f 90 113 91
f 91 113 112
f 91 112 115
f 91 115 92
f 92 115 93
f 93 116 117
f 93 117 104
f 93 104 95
f 93 95 94
f 93 115 118
f 93 118 119
f 93 119 120
f 93 120 116
f 95 104 96
f 98 121 122
f 98 122 123
f 98 123 99
f 99 123 124
f 99 124 100
f 100 124 125
f 100 125 126
f 100 126 101
f 101 127 102
f 101 126 128
f 101 128 127
f 102 127 129
f 104 117 120
f 104 120 105
f 105 120 124
f 105 124 122
f 105 122 106
f 106 122 130
f 106 130 131
f 106 131 132
f 106 132 133
f 106 133 134
f 106 134 107
f 109 135 110
f 110 136 111
f 110 135 136
f 111 136 137
f 111 137 115
f 111 115 112
f 115 137 128
f 115 128 118
f 116 120 117
f 118 128 126
f 118 126 119
f 119 126 120
f 120 126 125
f 120 125 124
f 121 131 122
f 122 124 123
f 122 131 130
f 127 128 136
f 127 136 135
f 127 135 129
f 128 137 136

