# https://github.com/mikedh/trimesh
v 0.19688273 0.43012896 -0.00210246
v 0.19688273 0.42962114 -0.00630781
v 0.19421721 0.42876181 -0.00630781
v 0.19384425 0.42903524 -0.00210246
v 0.19386620 0.42902546 0.00210288
v 0.19688273 0.43008989 0.00210288
v 0.20108393 0.42941607 0.00210288
v 0.20108393 0.42943561 -0.00210246
v 0.20147882 0.42900592 -0.00639600
v 0.20034900 0.42874227 -0.00951556
v 0.20108393 0.42742393 -0.01472401
v 0.19688273 0.42875203 -0.00953760
v 0.19459016 0.42845906 -0.00881007
v 0.19199046 0.42581263 -0.00594956
v 0.19173817 0.42642785 -0.00210246
v 0.19176011 0.42639855 0.00210288
v 0.19430495 0.42869345 0.00630823
v 0.19688273 0.42947467 0.00630823
v 0.20030512 0.42867392 0.00938370
v 0.20145689 0.42894735 0.00623107
v 0.20311324 0.42828329 0.00758692
v 0.20321196 0.42832235 0.00478152
v 0.20324486 0.42834188 0.00210288
v 0.20324486 0.42834188 -0.00210246
v 0.20322293 0.42833210 -0.00505117
v 0.20314615 0.42829306 -0.00785657
v 0.20529611 0.42650598 -0.01472401
v 0.20529611 0.42544154 -0.01892936
v 0.20529611 0.42435758 -0.02138753
v 0.20119363 0.42532436 -0.01908368
v 0.19688273 0.42774620 -0.01164303
v 0.19421721 0.42488491 -0.01350595
v 0.19366875 0.42625208 -0.01033127
v 0.13199985 0.33535534 -0.00737706
v 0.13060676 0.33383193 -0.00610939
v 0.19797965 0.42493375 -0.01778295
v 0.13158302 0.33589245 -0.00457166
v 0.19054252 0.42414274 -0.00431261
v 0.12981697 0.33365616 -0.00210246
v 0.12763410 0.33037498 -0.00115998
v 0.19208918 0.42578333 0.00589486
v 0.12766701 0.33037498 0.00210288
v 0.13161592 0.33585338 0.00442877
v 0.19056446 0.42410367 0.00421933
v 0.19467791 0.42839070 0.00860105
v 0.19688273 0.42864460 0.00928449
v 0.20108393 0.42713096 0.01472443
v 0.20529611 0.42638879 0.01472443
v 0.20840040 0.42476773 0.01472443
v 0.22844114 0.41148673 0.01691253
v 0.22847406 0.41150626 -0.01646017
v 0.22847406 0.41150626 -0.01718218
v 0.21361077 0.42126194 -0.01892936
v 0.20838942 0.42475796 -0.01472401
v 0.21026516 0.42337127 -0.01892936
v 0.20815907 0.42453336 -0.01892936
v 0.20769836 0.42424039 -0.02122769
v 0.20266350 0.42429899 -0.02131037
v 0.20860880 0.42030493 -0.02559288
v 0.20641497 0.42030493 -0.02559288
v 0.19518250 0.42314667 -0.01631135
v 0.13281157 0.33037498 -0.01544052
v 0.13125394 0.33037498 -0.01322486
v 0.13165981 0.33158588 -0.01264614
v 0.12981697 0.33037498 -0.01041946
v 0.12835807 0.33037498 -0.00630230
v 0.12833613 0.33037498 -0.00621962
v 0.19985537 0.42342986 -0.02058284
v 0.19856102 0.42062718 -0.02145367
v 0.12825935 0.33037498 -0.00577870
v 0.12763410 0.33037498 -0.00210246
v 0.12794124 0.33084372 -0.00210246
v 0.13069451 0.33375381 0.00602163
v 0.12852261 0.33037498 0.00629169
v 0.13207664 0.33522839 0.00723418
v 0.13110037 0.33242571 0.00957660
v 0.19384425 0.42613489 0.01021044
v 0.19434884 0.42468961 0.01325284
v 0.19822097 0.42476773 0.01752983
v 0.20142398 0.42504116 0.01892978
v 0.20304743 0.42416228 0.02111237
v 0.20394690 0.42416228 0.02111237
v 0.20532901 0.42489468 0.01924945
v 0.20675502 0.42403532 0.02086435
v 0.20808229 0.42451382 0.01805895
v 0.21358884 0.42124240 0.01892978
v 0.22665316 0.41254140 0.01856050
v 0.22826563 0.41119376 0.01971794
v 0.23333341 0.40787352 0.01472443
v 0.23360763 0.40797117 0.01051357
v 0.23571373 0.40653565 -0.00210246
v 0.23360763 0.40795163 -0.01051316
v 0.23342117 0.40792234 -0.01472401
v 0.22832049 0.41134024 -0.01998758
v 0.22668607 0.41256093 -0.01872543
v 0.22067494 0.41613508 -0.02313471
v 0.21791070 0.41792215 -0.02313471
v 0.22020327 0.41582258 -0.02537792
v 0.21791070 0.41652569 -0.02597869
v 0.21140596 0.41982641 -0.02514644
v 0.20119363 0.42201387 -0.02219222
v 0.20980445 0.41816629 -0.02653536
v 0.21370949 0.41742412 -0.02665110
v 0.21370949 0.41358630 -0.02844788
v 0.20949732 0.41358630 -0.02797939
v 0.20513157 0.41770731 -0.02598420
v 0.20360685 0.41905494 -0.02507479
v 0.13502735 0.33037498 -0.01818529
v 0.13545515 0.33221087 -0.01729242
v 0.13892142 0.33037498 -0.02213711
v 0.12863230 0.33037498 0.00658932
v 0.13005829 0.33037498 0.01022146
v 0.19541285 0.42301972 0.01605824
v 0.13066160 0.33037498 0.01141748
v 0.13181337 0.33136128 0.01238200
v 0.13148430 0.33037498 0.01285049
v 0.13478603 0.33343156 0.01459215
v 0.13298708 0.33037498 0.01490080
v 0.19709114 0.42161349 0.01867073
v 0.19876942 0.42021704 0.02121158
v 0.20023930 0.42301972 0.02033523
v 0.20142398 0.42176973 0.02177376
v 0.20712797 0.42001196 0.02533425
v 0.20786290 0.42001196 0.02533425
v 0.20936568 0.42128147 0.02339968
v 0.21295262 0.42074436 0.02217059
v 0.20949732 0.42345917 0.01924945
v 0.22067494 0.41613508 0.02209894
v 0.22545751 0.41236562 0.02218162
v 0.22900057 0.40839108 0.02181234
v 0.23296045 0.40760009 0.01724323
v 0.23775401 0.40427007 0.00630823
v 0.23574663 0.40636964 0.00630823
v 0.23570276 0.40653565 0.00210288
v 0.23805017 0.40443607 -0.00210246
v 0.23572469 0.40642823 -0.00630781
v 0.23783079 0.40432866 -0.00630781
v 0.23304821 0.40766845 -0.01744674
v 0.22928577 0.40853756 -0.02220325
v 0.22685061 0.40998286 -0.02370240
v 0.22418509 0.41142814 -0.02519604
v 0.22117952 0.41358630 -0.02605585
v 0.21791070 0.41358630 -0.02759910
v 0.21791070 0.40937739 -0.02840379
v 0.21370949 0.40937739 -0.02839828
v 0.14640242 0.33037498 -0.02579680
v 0.14216831 0.33037498 -0.02400003
v 0.13350263 0.33037498 0.01556219
v 0.13566356 0.33187885 0.01705032
v 0.20108393 0.41778543 0.02331701
v 0.20421016 0.41778543 0.02483269
v 0.13516995 0.33037498 0.01754086
v 0.13835102 0.33037498 0.02042342
v 0.13956861 0.33037498 0.02141551
v 0.20630528 0.41778543 0.02569801
v 0.20949732 0.41358630 0.02735149
v 0.20936568 0.41805888 0.02606729
v 0.21370949 0.41702373 0.02619957
v 0.21067102 0.41963111 0.02497600
v 0.21686863 0.41633039 0.02574762
v 0.21967674 0.41546126 0.02490435
v 0.21813009 0.41716045 0.02335559
v 0.22394376 0.41102776 0.02498702
v 0.22660929 0.40970941 0.02339968
v 0.22494197 0.40821531 0.02559881
v 0.22970260 0.40516849 0.02220366
v 0.23180869 0.40516849 0.02008721
v 0.23347601 0.40516849 0.01798178
v 0.23488008 0.40516849 0.01472443
v 0.23730427 0.40376226 0.00951046
v 0.23901547 0.40095958 0.00630823
v 0.23962974 0.40095958 0.00210288
v 0.23803920 0.40442632 0.00210288
v 0.23968458 0.40095958 -0.00210246
v 0.23917999 0.40095958 -0.00630781
v 0.23738105 0.40384039 -0.00976909
v 0.23515430 0.40516849 -0.01472401
v 0.23346504 0.40479740 -0.01887976
v 0.23208292 0.40595949 -0.02025214
v 0.23267526 0.40314704 -0.02106786
v 0.23062401 0.40479740 -0.02238513
v 0.22539170 0.40861569 -0.02585743
v 0.22251776 0.40976800 -0.02677787
v 0.22564399 0.40516849 -0.02596766
v 0.22212288 0.40516849 -0.02706998
v 0.16744136 0.33037498 -0.02413782
v 0.16324016 0.33037498 -0.02465039
v 0.14225606 0.33037498 0.02283199
v 0.14640242 0.33037498 0.02429807
v 0.21370949 0.40937739 0.02785856
v 0.21370949 0.41358630 0.02762707
v 0.21813009 0.41386949 0.02656885
v 0.22113565 0.41265858 0.02596257
v 0.22237517 0.40952387 0.02634287
v 0.21791070 0.40937739 0.02770975
v 0.22212288 0.40516849 0.02646964
v 0.22490906 0.40516849 0.02557676
v 0.22701515 0.40516849 0.02430909
v 0.23150156 0.40095958 0.02013682
v 0.23357473 0.40095958 0.01803690
v 0.23583439 0.40072521 0.01433862
v 0.23688743 0.39916275 0.01267963
v 0.23671192 0.40196543 0.01231587
v 0.23754559 0.40072521 0.01075608
v 0.23901547 0.39675068 0.00210288
v 0.23688743 0.39878189 0.01267963
v 0.23738105 0.39786394 0.01051357
v 0.23803920 0.39642841 0.00654523
v 0.23907031 0.39675068 -0.00210246
v 0.23812696 0.39634053 -0.00670464
v 0.23753462 0.39758074 -0.01051316
v 0.23701906 0.39853775 -0.01291070
v 0.23772109 0.40129160 -0.01090999
v 0.23682163 0.40291267 -0.01257449
v 0.23267526 0.40298103 -0.02106786
v 0.22775008 0.40516849 -0.02479921
v 0.23610862 0.40129160 -0.01447599
v 0.23701906 0.40010999 -0.01291070
v 0.22495293 0.40241463 -0.02559288
v 0.17165354 0.33037498 -0.02310715
v 0.15025262 0.33037498 0.02454058
v 0.15453061 0.33037498 0.02480514
v 0.16003715 0.33037498 0.02487128
v 0.16415061 0.33037498 0.02460121
v 0.16744136 0.33037498 0.02413272
v 0.22442642 0.40280525 0.02532874
v 0.16836278 0.33037498 0.02397289
v 0.17165354 0.33037498 0.02310757
v 0.22939546 0.40095958 0.02169660
v 0.22858374 0.39868423 0.02113442
v 0.23309209 0.39823503 0.01731488
v 0.23716166 0.39424096 0.00530512
v 0.23742492 0.39389917 0.00210288
v 0.23608668 0.39576437 0.01051357
v 0.23673386 0.39480736 0.00811052
v 0.23451809 0.39711200 0.01436067
v 0.18663749 0.33037498 0.01292214
v 0.23743589 0.39387964 -0.00210246
v 0.23718360 0.39422143 -0.00556926
v 0.23683258 0.39467064 -0.00837466
v 0.23330050 0.39810808 -0.01756248
v 0.23361862 0.40133067 -0.01895141
v 0.23620735 0.39547140 -0.01051316
v 0.18810736 0.33037498 -0.01056276
v 0.18707625 0.33037498 -0.01219419
v 0.18680203 0.33088277 -0.01316974
v 0.23168802 0.40017835 -0.02036789
v 0.23038269 0.40133067 -0.02185601
v 0.17750013 0.33037498 -0.02075370
v 0.17537210 0.33037498 -0.02176232
v 0.22602792 0.40122325 0.02378549
v 0.17275046 0.33037498 0.02274380
v 0.17536113 0.33037498 0.02176274
v 0.17628255 0.33037498 0.02137141
v 0.17750013 0.33037498 0.02075411
v 0.17790599 0.33037498 0.02049507
v 0.18024244 0.33037498 0.01890222
v 0.18114191 0.33037498 0.01828492
v 0.18217302 0.33037498 0.01755188
v 0.18264469 0.33037498 0.01720465
v 0.18466302 0.33037498 0.01515985
v 0.18500307 0.33037498 0.01478506
v 0.18595740 0.33037498 0.01373234
v 0.18680203 0.33087300 0.01317016
v 0.19018053 0.33037498 0.00580116
v 0.19087159 0.33109761 0.00516733
v 0.19053155 0.33037498 0.00426894
v 0.19090451 0.33037498 0.00210288
v 0.18810736 0.33037498 0.01056318
v 0.18868872 0.33037498 0.00948291
v 0.19042187 0.33177142 0.00797273
v 0.18979661 0.33037498 0.00699718
v 0.19090451 0.33037498 -0.00210246
v 0.19087159 0.33109761 -0.00516691
v 0.19018053 0.33037498 -0.00580074
v 0.18979661 0.33037498 -0.00700227
v 0.19042187 0.33177142 -0.00797231
v 0.18595740 0.33037498 -0.01373193
v 0.18466302 0.33037498 -0.01515943
v 0.18311636 0.33037498 -0.01670819
v 0.18274342 0.33067770 -0.01729242
v 0.18217302 0.33037498 -0.01755146
v 0.18024244 0.33037498 -0.01890180
f 1 2 3
f 1 3 4
f 1 4 5
f 1 5 6
f 1 6 7
f 1 7 8
f 1 8 9
f 1 9 2
f 2 9 10
f 2 10 11
f 2 11 12
f 2 12 13
f 2 13 3
f 3 13 14
f 3 14 15
f 3 15 4
f 4 15 5
f 5 15 16
f 5 16 17
f 5 17 6
f 6 18 19
f 6 19 20
f 6 20 7
f 6 17 18
f 7 20 21
f 7 21 22
f 7 22 23
f 7 23 8
f 8 23 24
f 8 24 25
f 8 25 26
f 8 26 9
f 9 26 27
f 9 27 10
f 10 27 11
f 11 27 28
f 11 28 29
f 11 29 30
f 11 30 31
f 11 31 12
f 12 31 13
f 13 32 33
f 13 33 34
f 13 34 35
f 13 35 14
f 13 31 30
f 13 30 36
f 13 36 32
f 14 35 37
f 14 37 38
f 14 38 15
f 15 38 37
f 15 37 39
f 15 39 40
f 15 40 16
f 16 41 17
f 16 40 42
f 16 42 43
f 16 43 44
f 16 44 41
f 17 41 45
f 17 45 18
f 18 46 19
f 18 45 46
f 19 46 47
f 19 47 48
f 19 48 21
f 19 21 20
f 21 48 49
f 21 49 22
f 22 49 23
f 23 49 50
f 23 50 51
f 23 51 52
f 23 52 24
f 24 52 25
f 25 52 53
f 25 53 54
f 25 54 26
f 26 54 55
f 26 55 27
f 27 55 56
f 27 56 57
f 27 57 28
f 28 57 29
f 29 58 30
f 29 57 59
f 29 59 60
f 29 60 58
f 30 58 36
f 32 36 61
f 32 61 62
f 32 62 63
f 32 63 64
f 32 64 65
f 32 65 33
f 33 65 34
f 34 65 66
f 34 66 35
f 35 66 67
f 35 67 37
f 36 68 69
f 36 69 61
f 36 58 68
f 37 67 70
f 37 70 71
f 37 71 72
f 37 72 39
f 39 72 40
f 40 72 71
f 40 71 70
f 40 70 67
f 40 67 66
f 40 66 65
f 40 65 63
f 40 63 62
f 40 62 108
f 40 108 110
f 40 110 147
f 40 147 146
f 40 146 187
f 40 187 186
f 40 186 220
f 40 220 250
f 40 250 249
f 40 249 283
f 40 283 282
f 40 282 280
f 40 280 279
f 40 279 278
f 40 278 245
f 40 245 244
f 40 244 276
f 40 276 275
f 40 275 273
f 40 273 268
f 40 268 267
f 40 267 265
f 40 265 272
f 40 272 270
f 40 270 269
f 40 269 237
f 40 237 263
f 40 263 262
f 40 262 261
f 40 261 260
f 40 260 259
f 40 259 258
f 40 258 257
f 40 257 256
f 40 256 255
f 40 255 254
f 40 254 253
f 40 253 252
f 40 252 228
f 40 228 227
f 40 227 225
f 40 225 224
f 40 224 223
f 40 223 222
f 40 222 221
f 40 221 189
f 40 189 188
f 40 188 154
f 40 154 153
f 40 153 152
f 40 152 148
f 40 148 118
f 40 118 116
f 40 116 114
f 40 114 112
f 40 112 111
f 40 111 74
f 40 74 42
f 41 44 43
f 41 43 73
f 41 73 74
f 41 74 45
f 42 74 43
f 43 74 73
f 45 74 75
f 45 75 76
f 45 76 77
f 45 77 78
f 45 78 79
f 45 79 80
f 45 80 47
f 45 47 46
f 47 80 81
f 47 81 82
f 47 82 83
f 47 83 48
f 48 83 84
f 48 84 85
f 48 85 49
f 49 85 86
f 49 86 50
f 50 87 88
f 50 88 89
f 50 89 90
f 50 90 51
f 50 86 87
f 51 90 91
f 51 91 52
f 52 91 92
f 52 92 93
f 52 93 94
f 52 94 95
f 52 95 53
f 53 95 96
f 53 96 97
f 53 97 55
f 53 55 54
f 55 57 56
f 55 97 57
f 57 97 98
f 57 98 99
f 57 99 100
f 57 100 59
f 58 101 68
f 58 60 101
f 59 102 60
f 59 100 103
f 59 103 102
f 60 102 104
f 60 104 105
f 60 105 106
f 60 106 107
f 60 107 101
f 61 69 108
f 61 108 109
f 61 109 62
f 62 109 108
f 63 65 64
f 68 101 69
f 69 101 107
f 69 107 110
f 69 110 108
f 74 111 75
f 75 111 76
f 76 111 112
f 76 112 78
f 76 78 77
f 78 113 79
f 78 112 114
f 78 114 115
f 78 115 116
f 78 116 117
f 78 117 118
f 78 118 113
f 79 113 119
f 79 119 120
f 79 120 121
f 79 121 81
f 79 81 80
f 81 121 122
f 81 122 123
f 81 123 124
f 81 124 82
f 82 124 84
f 82 84 83
f 84 124 125
f 84 125 126
f 84 126 127
f 84 127 85
f 85 127 86
f 86 126 128
f 86 128 87
f 86 127 126
f 87 128 88
f 88 129 130
f 88 130 131
f 88 131 89
f 88 128 129
f 89 131 132
f 89 132 133
f 89 133 90
f 90 133 134
f 90 134 91
f 91 134 135
f 91 135 136
f 91 136 92
f 92 136 93
f 93 136 137
f 93 137 138
f 93 138 94
f 94 138 139
f 94 139 140
f 94 140 98
f 94 98 96
f 94 96 95
f 96 98 97
f 98 140 141
f 98 141 142
f 98 142 143
f 98 143 99
f 99 143 103
f 99 103 100
f 102 103 104
f 103 143 104
f 104 143 144
f 104 144 145
f 104 145 146
f 104 146 105
f 105 146 106
f 106 146 107
f 107 146 147
f 107 147 110
f 113 118 148
f 113 148 149
f 113 149 119
f 114 116 115
f 116 118 117
f 119 149 120
f 120 150 151
f 120 151 123
f 120 123 122
f 120 122 121
f 120 149 152
f 120 152 153
f 120 153 154
f 120 154 150
f 123 151 155
f 123 155 156
f 123 156 157
f 123 157 124
f 124 157 158
f 124 158 159
f 124 159 125
f 125 159 126
f 126 159 160
f 126 160 161
f 126 161 162
f 126 162 128
f 128 162 161
f 128 161 129
f 129 163 164
f 129 164 130
f 129 161 163
f 130 164 165
f 130 165 166
f 130 166 167
f 130 167 168
f 130 168 131
f 131 168 169
f 131 169 170
f 131 170 132
f 132 170 171
f 132 171 172
f 132 172 173
f 132 173 133
f 133 173 134
f 134 173 135
f 135 137 136
f 135 173 174
f 135 174 137
f 137 174 175
f 137 175 176
f 137 176 138
f 138 176 177
f 138 177 178
f 138 178 179
f 138 179 139
f 139 179 180
f 139 180 181
f 139 181 182
f 139 182 140
f 140 182 141
f 141 182 142
f 142 182 143
f 143 182 183
f 143 183 144
f 144 183 182
f 144 182 184
f 144 184 185
f 144 185 186
f 144 186 187
f 144 187 146
f 144 146 145
f 148 152 149
f 150 154 188
f 150 188 151
f 151 188 155
f 155 188 189
f 155 189 156
f 156 190 191
f 156 191 157
f 156 189 190
f 157 191 158
f 158 191 192
f 158 192 160
f 158 160 159
f 160 192 193
f 160 193 161
f 161 193 163
f 163 165 164
f 163 193 165
f 165 193 194
f 165 194 195
f 165 195 196
f 165 196 197
f 165 197 198
f 165 198 166
f 166 199 167
f 166 198 199
f 167 199 200
f 167 200 168
f 168 200 201
f 168 201 202
f 168 202 203
f 168 203 169
f 169 203 170
f 170 204 171
f 170 203 204
f 171 205 172
f 171 204 206
f 171 206 207
f 171 207 208
f 171 208 205
f 172 174 173
f 172 205 209
f 172 209 174
f 174 209 175
f 175 209 210
f 175 210 211
f 175 211 212
f 175 212 213
f 175 213 214
f 175 214 176
f 176 214 177
f 177 214 178
f 178 180 179
f 178 214 180
f 180 215 216
f 180 216 181
f 180 214 217
f 180 217 218
f 180 218 212
f 180 212 215
f 181 216 182
f 182 216 184
f 184 216 219
f 184 219 185
f 185 219 220
f 185 220 186
f 189 221 190
f 190 195 191
f 190 221 222
f 190 222 223
f 190 223 195
f 191 195 192
f 192 195 193
f 193 195 194
f 195 223 224
f 195 224 225
f 195 225 196
f 196 226 197
f 196 225 227
f 196 227 228
f 196 228 226
f 197 226 198
f 198 226 229
f 198 229 199
f 199 229 230
f 199 230 231
f 199 231 200
f 200 231 206
f 200 206 202
f 200 202 201
f 202 206 204
f 202 204 203
f 205 208 232
f 205 232 233
f 205 233 209
f 206 234 235
f 206 235 207
f 206 231 236
f 206 236 237
f 206 237 234
f 207 235 208
f 208 235 232
f 209 233 238
f 209 238 239
f 209 239 210
f 210 239 240
f 210 240 211
f 211 240 212
f 212 241 242
f 212 242 215
f 212 218 213
f 212 240 243
f 212 243 244
f 212 244 245
f 212 245 246
f 212 246 241
f 213 218 214
f 214 218 217
f 215 242 241
f 215 241 247
f 215 247 248
f 215 248 219
f 215 219 216
f 219 248 249
f 219 249 250
f 219 250 220
f 226 251 229
f 226 228 252
f 226 252 253
f 226 253 254
f 226 254 255
f 226 255 251
f 229 251 255
f 229 255 230
f 230 255 256
f 230 256 257
f 230 257 258
f 230 258 259
f 230 259 260
f 230 260 231
f 231 260 261
f 231 261 262
f 231 262 263
f 231 263 264
f 231 264 237
f 231 237 236
f 232 235 265
f 232 265 266
f 232 266 267
f 232 267 268
f 232 268 233
f 233 268 238
f 234 237 269
f 234 269 235
f 235 269 270
f 235 270 271
f 235 271 272
f 235 272 265
f 237 264 263
f 238 268 273
f 238 273 239
f 239 273 274
f 239 274 240
f 240 274 275
f 240 275 276
f 240 276 277
f 240 277 244
f 240 244 243
f 241 246 278
f 241 278 279
f 241 279 280
f 241 280 281
f 241 281 247
f 244 277 276
f 245 278 246
f 247 281 282
f 247 282 283
f 247 283 248
f 248 283 249
f 265 267 266
f 270 272 271
f 273 275 274
f 280 282 281

