# https://github.com/mikedh/trimesh
v 0.13377871 0.12869263 -0.04428780
v 0.13377871 0.12869263 -0.04838191
v 0.12956979 0.12818493 -0.04428780
v 0.13798176 0.12843593 -0.04428780
v 0.13377871 0.12854431 -0.05258886
v 0.12956979 0.12818493 -0.04838191
v 0.13798176 0.12843593 -0.04838191
v 0.12536673 0.12687288 -0.04428780
v 0.14219069 0.12738629 -0.04428780
v 0.13377871 0.12586318 -0.06258058
v 0.13081253 0.12560077 -0.06258058
v 0.12956979 0.12801379 -0.05258886
v 0.13798176 0.12827049 -0.05258886
v 0.13740729 0.12566352 -0.06258058
v 0.13512697 0.12579472 -0.06258058
v 0.12536673 0.12672456 -0.05258886
v 0.12536673 0.12687288 -0.04838191
v 0.14219069 0.12738629 -0.04838191
v 0.14219069 0.12723797 -0.05258886
v 0.12276986 0.12570345 -0.04428780
v 0.14227862 0.12735206 -0.04428780
v 0.13002116 0.12541252 -0.06258058
v 0.12870807 0.12508736 -0.06258058
v 0.12303365 0.12553802 -0.05489381
v 0.13950589 0.12529843 -0.06258058
v 0.12284607 0.12565211 -0.05258886
v 0.12276986 0.12569775 -0.04838191
v 0.14543238 0.12602860 -0.04838191
v 0.14533859 0.12597156 -0.05258886
v 0.14492825 0.12573768 -0.05518753
v 0.12066540 0.12422597 -0.04838191
v 0.12066540 0.12422597 -0.04428780
v 0.14543238 0.12602860 -0.04428780
v 0.12536673 0.12374109 -0.06258058
v 0.12227745 0.12194415 -0.06258058
v 0.11850818 0.12171027 -0.05531111
v 0.11815646 0.12204684 -0.05258886
v 0.12074161 0.12415181 -0.05258886
v 0.14052588 0.12493904 -0.06258058
v 0.14747821 0.12482495 -0.04428780
v 0.14753097 0.12479072 -0.04838191
v 0.14743718 0.12468804 -0.05258886
v 0.14603616 0.12235488 -0.06258058
v 0.14363274 0.12360418 -0.06258058
v 0.14219069 0.12435147 -0.06258058
v 0.14814062 0.12088881 -0.06258058
v 0.11807439 0.12212100 -0.04838191
v 0.11813888 0.12217804 -0.04428780
v 0.12148608 0.12127102 -0.06258058
v 0.12017299 0.12014722 -0.06258058
v 0.11892439 0.11883518 -0.06258058
v 0.11817991 0.11804224 -0.06258058
v 0.11461581 0.11735200 -0.05502456
v 0.11605200 0.11971367 -0.05258886
v 0.11596993 0.11979354 -0.04838191
v 0.14753097 0.12479072 -0.04428780
v 0.15020405 0.12268574 -0.04838191
v 0.15010440 0.12258306 -0.05258886
v 0.14950060 0.12205254 -0.05581616
v 0.15220885 0.12061499 -0.05258886
v 0.14886751 0.12009588 -0.06258058
v 0.11801577 0.12206395 -0.04428780
v 0.11807439 0.12212100 -0.04428780
v 0.11741785 0.11685570 -0.06258058
v 0.09824909 0.07042069 -0.05679402
v 0.11311514 0.11488193 -0.05258886
v 0.11444581 0.11760870 -0.05258886
v 0.11615752 0.11488193 -0.06258058
v 0.11569442 0.11399202 -0.06258058
v 0.11493236 0.11252025 -0.06258058
v 0.11596993 0.11979354 -0.04428780
v 0.11439305 0.11768856 -0.04838191
v 0.11443409 0.11774561 -0.04428780
v 0.15020405 0.12268574 -0.04428780
v 0.15224989 0.12077472 -0.04428780
v 0.15230851 0.12071767 -0.04838191
v 0.15376229 0.11851572 -0.05258886
v 0.15334609 0.11793386 -0.05556900
v 0.15006336 0.11878383 -0.06258058
v 0.10028320 0.07042069 -0.06050666
v 0.09826081 0.07042069 -0.05258886
v 0.11147964 0.11067197 -0.04428780
v 0.11147964 0.11067197 -0.04838191
v 0.11162032 0.11067197 -0.05258886
v 0.11296859 0.11488193 -0.04838191
v 0.11454546 0.11120249 -0.06258058
v 0.11439305 0.11768856 -0.04428780
v 0.15230851 0.12071767 -0.04428780
v 0.15234954 0.12066634 -0.04428780
v 0.15385608 0.11861841 -0.04838191
v 0.15596054 0.11496179 -0.04838191
v 0.15605433 0.11449402 -0.05254588
v 0.15688673 0.11265145 -0.05391775
v 0.15216782 0.11606847 -0.06258058
v 0.15137645 0.11708959 -0.06258058
v 0.10433385 0.07042069 -0.06197166
v 0.11431685 0.11041526 -0.06258058
v 0.09827254 0.07042069 -0.05256200
v 0.10028907 0.07042069 -0.04906248
v 0.11146205 0.11056359 -0.04428780
v 0.11296859 0.11488193 -0.04428780
v 0.15385608 0.11861841 -0.04428780
v 0.15596054 0.11496750 -0.04428780
v 0.15695122 0.11285681 -0.04838191
v 0.15693950 0.11283399 -0.05111491
v 0.15732052 0.11101995 -0.05254588
v 0.15720915 0.10985052 -0.05516246
v 0.15455366 0.11067197 -0.06258058
v 0.15409642 0.11190985 -0.06258058
v 0.15332850 0.11396350 -0.06258058
v 0.10854277 0.07042069 -0.06216508
v 0.11364858 0.10646773 -0.06258058
v 0.11381858 0.10225777 -0.06258058
v 0.10155526 0.07042069 -0.04850549
v 0.11082896 0.10635363 -0.04428780
v 0.11082896 0.10646773 -0.04428780
v 0.15695122 0.11286252 -0.04428780
v 0.15748466 0.11072902 -0.04428780
v 0.15749638 0.11067197 -0.04838191
v 0.15801810 0.10646773 -0.05258886
v 0.15740845 0.10646773 -0.05548662
v 0.15529813 0.10646773 -0.06258058
v 0.11406478 0.10107693 -0.06258058
v 0.11448685 0.09908604 -0.06258058
v 0.11689027 0.08952522 -0.06258058
v 0.12090574 0.08529244 -0.06258058
v 0.12098781 0.08521829 -0.06258058
v 0.12536673 0.08300493 -0.06258058
v 0.11695475 0.07042069 -0.06216508
v 0.10433385 0.07042069 -0.04777299
v 0.11095206 0.10225777 -0.04428780
v 0.15749638 0.11067197 -0.04428780
v 0.15813534 0.10646773 -0.04428780
v 0.15812948 0.10646773 -0.04838191
v 0.15790086 0.10225777 -0.05258886
v 0.15734984 0.10225777 -0.05538812
v 0.15513986 0.10225777 -0.06258058
v 0.12956979 0.08307909 -0.06258058
v 0.12116367 0.07042069 -0.06168153
v 0.13798176 0.08448811 -0.06258058
v 0.14219069 0.08569177 -0.06258058
v 0.14510410 0.08702663 -0.06258058
v 0.10613935 0.07042069 -0.04760464
v 0.12132195 0.08452805 -0.04428780
v 0.11830301 0.08680415 -0.04428780
v 0.11628648 0.08929704 -0.04428780
v 0.11471546 0.09150470 -0.04428780
v 0.11357824 0.09374088 -0.04428780
v 0.11188998 0.09794514 -0.04428780
v 0.11186067 0.09805922 -0.04428780
v 0.11097551 0.10214938 -0.04428780
v 0.15801224 0.10237185 -0.04428780
v 0.15800638 0.10225777 -0.04838191
v 0.15728535 0.09892061 -0.05258886
v 0.15713294 0.09942832 -0.05502993
v 0.15409056 0.09805922 -0.06258058
v 0.12469846 0.07042069 -0.06012161
v 0.14589547 0.08759138 -0.06258058
v 0.11695475 0.07042069 -0.04760464
v 0.13363802 0.08125363 -0.04428780
v 0.12939979 0.08138484 -0.04428780
v 0.12529052 0.08231468 -0.04428780
v 0.12516742 0.08234891 -0.04428780
v 0.12330330 0.08322740 -0.04428780
v 0.15800638 0.10225777 -0.04428780
v 0.15735570 0.09886927 -0.04428780
v 0.15733811 0.09877799 -0.04838191
v 0.15668157 0.09667302 -0.04838191
v 0.15662295 0.09681563 -0.05258886
v 0.15302368 0.09541802 -0.06258058
v 0.12605844 0.07042069 -0.05679402
v 0.14720856 0.08853833 -0.06258058
v 0.14906096 0.08707797 -0.05528962
v 0.11876611 0.07042069 -0.04761897
v 0.13787039 0.08160732 -0.04428780
v 0.15733811 0.09877799 -0.04428780
v 0.15732052 0.09872094 -0.04428780
v 0.15668157 0.09667302 -0.04428780
v 0.15530399 0.09384926 -0.04838191
v 0.15518089 0.09384926 -0.05258886
v 0.15310574 0.09123658 -0.05520902
v 0.15250782 0.09462508 -0.06258058
v 0.14941854 0.08677563 -0.05258886
v 0.14950060 0.08670148 -0.04838191
v 0.12605844 0.07042069 -0.05258886
v 0.14866820 0.08985038 -0.06258058
v 0.14954750 0.09064332 -0.06258058
v 0.15152300 0.08879504 -0.05258886
v 0.12116367 0.07042069 -0.04802014
v 0.14208517 0.08264554 -0.04428780
v 0.14197966 0.08261701 -0.04428780
v 0.15530399 0.09384926 -0.04428780
v 0.15348677 0.09090001 -0.04428780
v 0.15343402 0.09082016 -0.04838191
v 0.15336953 0.09090001 -0.05258886
v 0.15165197 0.09331305 -0.06258058
v 0.15160507 0.08871517 -0.04838191
v 0.14950060 0.08670148 -0.04428780
v 0.14639960 0.08463642 -0.04428780
v 0.12575362 0.07042069 -0.05146593
v 0.12307469 0.07042069 -0.04858787
v 0.14418963 0.08337001 -0.04428780
v 0.14214379 0.08266265 -0.04428780
v 0.15343402 0.09082016 -0.04428780
v 0.15338712 0.09076311 -0.04428780
v 0.15160507 0.08871517 -0.04428780
v 0.12469846 0.07042069 -0.04939917
f 1 2 6
f 1 6 3
f 1 3 8
f 1 8 20
f 1 20 32
f 1 32 48
f 1 48 63
f 1 63 62
f 1 62 71
f 1 71 73
f 1 73 87
f 1 87 101
f 1 101 82
f 1 82 100
f 1 100 116
f 1 116 115
f 1 115 131
f 1 131 151
f 1 151 150
f 1 150 149
f 1 149 148
f 1 148 147
f 1 147 146
f 1 146 145
f 1 145 144
f 1 144 164
f 1 164 163
f 1 163 162
f 1 162 161
f 1 161 160
f 1 160 175
f 1 175 191
f 1 191 190
f 1 190 203
f 1 203 202
f 1 202 199
f 1 199 198
f 1 198 206
f 1 206 205
f 1 205 204
f 1 204 193
f 1 193 192
f 1 192 178
f 1 178 177
f 1 177 176
f 1 176 166
f 1 166 165
f 1 165 152
f 1 152 133
f 1 133 132
f 1 132 118
f 1 118 117
f 1 117 103
f 1 103 102
f 1 102 89
f 1 89 88
f 1 88 75
f 1 75 74
f 1 74 56
f 1 56 40
f 1 40 33
f 1 33 21
f 1 21 9
f 1 9 4
f 1 4 7
f 1 7 2
f 2 5 6
f 2 7 5
f 3 6 17
f 3 17 8
f 4 9 18
f 4 18 7
f 5 10 11
f 5 11 12
f 5 12 6
f 5 7 13
f 5 13 14
f 5 14 15
f 5 15 10
f 6 12 16
f 6 16 17
f 7 18 19
f 7 19 13
f 8 17 20
f 9 21 18
f 10 15 14
f 10 14 25
f 10 25 39
f 10 39 45
f 10 45 44
f 10 44 43
f 10 43 46
f 10 46 61
f 10 61 79
f 10 79 95
f 10 95 94
f 10 94 110
f 10 110 109
f 10 109 108
f 10 108 122
f 10 122 137
f 10 137 156
f 10 156 170
f 10 170 182
f 10 182 196
f 10 196 187
f 10 187 186
f 10 186 172
f 10 172 158
f 10 158 142
f 10 142 141
f 10 141 140
f 10 140 138
f 10 138 128
f 10 128 127
f 10 127 126
f 10 126 125
f 10 125 124
f 10 124 123
f 10 123 113
f 10 113 112
f 10 112 97
f 10 97 86
f 10 86 70
f 10 70 69
f 10 69 68
f 10 68 64
f 10 64 52
f 10 52 51
f 10 51 50
f 10 50 49
f 10 49 35
f 10 35 34
f 10 34 23
f 10 23 22
f 10 22 11
f 11 22 12
f 12 22 23
f 12 23 24
f 12 24 16
f 13 19 25
f 13 25 14
f 16 24 26
f 16 26 17
f 17 26 27
f 17 27 20
f 18 21 28
f 18 28 29
f 18 29 19
f 19 29 30
f 19 30 25
f 20 27 31
f 20 31 32
f 21 33 28
f 23 34 24
f 24 34 35
f 24 35 36
f 24 36 37
f 24 37 38
f 24 38 26
f 25 30 39
f 26 38 31
f 26 31 27
f 28 33 40
f 28 40 41
f 28 41 29
f 29 41 42
f 29 42 30
f 30 43 44
f 30 44 45
f 30 45 39
f 30 42 46
f 30 46 43
f 31 47 48
f 31 48 32
f 31 38 47
f 35 49 36
f 36 50 51
f 36 51 52
f 36 52 53
f 36 53 54
f 36 54 37
f 36 49 50
f 37 54 55
f 37 55 47
f 37 47 38
f 40 56 41
f 41 56 74
f 41 74 57
f 41 57 42
f 42 57 58
f 42 58 59
f 42 59 46
f 46 59 60
f 46 60 61
f 47 62 63
f 47 63 48
f 47 55 62
f 52 64 53
f 53 65 66
f 53 66 67
f 53 67 54
f 53 64 68
f 53 68 69
f 53 69 70
f 53 70 65
f 54 67 55
f 55 71 62
f 55 67 72
f 55 72 73
f 55 73 71
f 57 74 75
f 57 75 76
f 57 76 60
f 57 60 58
f 58 60 59
f 60 76 77
f 60 77 78
f 60 78 79
f 60 79 61
f 65 80 96
f 65 96 111
f 65 111 129
f 65 129 139
f 65 139 157
f 65 157 171
f 65 171 185
f 65 185 200
f 65 200 207
f 65 207 201
f 65 201 189
f 65 189 174
f 65 174 159
f 65 159 143
f 65 143 130
f 65 130 114
f 65 114 99
f 65 99 98
f 65 98 81
f 65 81 82
f 65 82 83
f 65 83 84
f 65 84 66
f 65 70 80
f 66 84 85
f 66 85 67
f 67 85 72
f 70 86 80
f 72 87 73
f 72 85 101
f 72 101 87
f 75 88 76
f 76 88 89
f 76 89 90
f 76 90 77
f 77 90 91
f 77 91 92
f 77 92 93
f 77 93 78
f 78 94 95
f 78 95 79
f 78 93 94
f 80 86 97
f 80 97 96
f 81 98 82
f 82 98 99
f 82 99 100
f 82 101 85
f 82 85 83
f 83 85 84
f 89 102 90
f 90 102 103
f 90 103 91
f 91 103 117
f 91 117 104
f 91 104 105
f 91 105 92
f 92 105 93
f 93 105 106
f 93 106 107
f 93 107 108
f 93 108 109
f 93 109 110
f 93 110 94
f 96 97 112
f 96 112 113
f 96 113 111
f 99 114 115
f 99 115 116
f 99 116 100
f 104 117 118
f 104 118 119
f 104 119 105
f 105 119 106
f 106 119 120
f 106 120 107
f 107 120 121
f 107 121 122
f 107 122 108
f 111 113 123
f 111 123 124
f 111 124 125
f 111 125 126
f 111 126 127
f 111 127 128
f 111 128 129
f 114 130 131
f 114 131 115
f 118 132 119
f 119 132 133
f 119 133 134
f 119 134 120
f 120 134 135
f 120 135 136
f 120 136 121
f 121 136 122
f 122 136 137
f 128 138 129
f 129 138 140
f 129 140 141
f 129 141 142
f 129 142 139
f 130 143 144
f 130 144 145
f 130 145 146
f 130 146 147
f 130 147 148
f 130 148 149
f 130 149 150
f 130 150 151
f 130 151 131
f 133 152 153
f 133 153 134
f 134 153 135
f 135 153 154
f 135 154 155
f 135 155 136
f 136 155 137
f 137 155 156
f 139 142 157
f 142 158 157
f 143 159 160
f 143 160 161
f 143 161 162
f 143 162 163
f 143 163 164
f 143 164 144
f 152 165 153
f 153 165 166
f 153 166 167
f 153 167 154
f 154 167 168
f 154 168 169
f 154 169 155
f 155 169 170
f 155 170 156
f 157 158 172
f 157 172 173
f 157 173 171
f 159 174 160
f 160 174 175
f 166 176 167
f 167 176 177
f 167 177 168
f 168 178 192
f 168 192 179
f 168 179 180
f 168 180 169
f 168 177 178
f 169 180 170
f 170 181 182
f 170 180 181
f 171 173 183
f 171 183 184
f 171 184 198
f 171 198 185
f 172 186 173
f 173 186 187
f 173 187 181
f 173 181 188
f 173 188 183
f 174 189 190
f 174 190 191
f 174 191 175
f 179 192 193
f 179 193 194
f 179 194 195
f 179 195 180
f 180 195 181
f 181 195 188
f 181 187 196
f 181 196 182
f 183 188 197
f 183 197 184
f 184 197 206
f 184 206 198
f 185 198 199
f 185 199 200
f 188 195 197
f 189 201 202
f 189 202 203
f 189 203 190
f 193 204 194
f 194 204 205
f 194 205 197
f 194 197 195
f 197 205 206
f 199 202 207
f 199 207 200
f 201 207 202

