# https://github.com/mikedh/trimesh
v -0.08771155 -0.02758858 0.01047426
v -0.08808207 -0.02750661 0.01047426
v -0.08771155 -0.02728643 0.00862583
v -0.08771155 -0.02714590 0.01218982
v -0.08808207 -0.02710374 0.01212744
v -0.08931636 -0.02682032 0.01169178
v -0.08941826 -0.02687420 0.01047426
v -0.08937194 -0.02685077 0.00908138
v -0.08803806 -0.02715995 0.00830134
v -0.08771155 -0.02723022 0.00829320
v -0.08771155 -0.02633079 0.01330520
v -0.08808207 -0.02629097 0.01324193
v -0.09024266 -0.02560235 0.01266707
v -0.09368155 -0.02454130 0.01161133
v -0.09373713 -0.02456941 0.01047426
v -0.09373713 -0.02457175 0.00922149
v -0.08875363 -0.02652988 0.00759542
v -0.09313504 -0.02424852 0.00773551
v -0.08771155 -0.02704752 0.00775539
v -0.08771155 -0.02521587 0.01423620
v -0.08808207 -0.02517606 0.01422445
v -0.08968456 -0.02479427 0.01404457
v -0.09116896 -0.02434690 0.01364144
v -0.10091596 -0.02036740 0.01200904
v -0.09805137 -0.02226228 0.01047426
v -0.10236561 -0.01995047 0.01047426
v -0.10125175 -0.02054774 0.01047426
v -0.10195341 -0.01972328 0.00824529
v -0.10083955 -0.02033226 0.00824529
v -0.09164833 -0.02463967 0.00703502
v -0.08771155 -0.02622070 0.00670872
v -0.10036713 -0.02007930 0.00712087
v -0.09601351 -0.02236066 0.00707659
v -0.08771155 -0.02341233 0.01468452
v -0.08808207 -0.02341233 0.01467638
v -0.09254221 -0.02286659 0.01418829
v -0.09254221 -0.02118250 0.01464384
v -0.10145784 -0.01672284 0.01456881
v -0.09914672 -0.01900420 0.01426602
v -0.10145784 -0.01823126 0.01410332
v -0.09401271 -0.02249183 0.01399305
v -0.09834780 -0.02019407 0.01393519
v -0.09983220 -0.01978183 0.01349501
v -0.10158058 -0.01943049 0.01273304
v -0.10317614 -0.01837179 0.01270412
v -0.10478789 -0.01781668 0.01126605
v -0.10390097 -0.01865051 0.01050409
v -0.10482263 -0.01786117 0.00930646
v -0.10369486 -0.01846782 0.00843602
v -0.10295382 -0.01817973 0.00688136
v -0.09031214 -0.02499804 0.00676114
v -0.08803806 -0.02572883 0.00648907
v -0.08771155 -0.02571478 0.00643303
v -0.09923009 -0.02037911 0.00689491
v -0.09477228 -0.02269326 0.00682260
v -0.10124943 -0.01893393 0.00667889
v -0.09923009 -0.01672284 0.01472608
v -0.08771155 -0.02115439 0.01427776
v -0.10591798 -0.00366240 0.01443052
v -0.10591798 -0.00557603 0.01459051
v -0.10591798 -0.00780586 0.01471977
v -0.10311592 -0.01672284 0.01410422
v -0.10264814 -0.01790333 0.01388097
v -0.10368791 -0.01226552 0.01471163
v -0.10591798 -0.01003569 0.01466824
v -0.10598746 -0.01227255 0.01431483
v -0.10385464 -0.01465931 0.01437990
v -0.10529041 -0.01402456 0.01413134
v -0.10433401 -0.01693364 0.01287947
v -0.10482263 -0.01786117 0.00978099
v -0.10535063 -0.01633168 0.01225218
v -0.10741165 -0.01387700 0.01206327
v -0.10763628 -0.01416744 0.01047426
v -0.10530431 -0.01667599 0.00843602
v -0.10444054 -0.01738569 0.00781958
v -0.10739081 -0.01384655 0.00824529
v -0.10653166 -0.01496146 0.00824529
v -0.10502642 -0.01589836 0.00697445
v -0.10369486 -0.01667599 0.00656500
v -0.10145784 -0.01672284 0.00574608
v -0.09245189 -0.02346855 0.00653607
v -0.09031214 -0.02341233 0.00593681
v -0.08808207 -0.02341233 0.00556893
v -0.08771155 -0.02378240 0.00565931
v -0.09685414 -0.02120358 0.00660386
v -0.09923009 -0.01895267 0.00610673
v -0.08771155 -0.02014019 0.01375171
v -0.10459570 -0.00366240 0.01397136
v -0.10817583 -0.00366240 0.01456340
v -0.10470684 -0.01551189 0.01373905
v -0.10792575 -0.00780586 0.01429403
v -0.10753900 -0.01003569 0.01421179
v -0.10725418 -0.01153239 0.01402288
v -0.10677713 -0.01301973 0.01355014
v -0.10606388 -0.01469444 0.01290117
v -0.10783773 -0.01227255 0.01276559
v -0.10925962 -0.01114124 0.01149112
v -0.10885205 -0.01207814 0.01063877
v -0.10928741 -0.01121150 0.00927843
v -0.10708513 -0.01345070 0.00709286
v -0.10848615 -0.01207814 0.00841975
v -0.10582999 -0.01431500 0.00672227
v -0.10591798 -0.01226552 0.00603713
v -0.10368791 -0.01449535 0.00582201
v -0.09923009 -0.01672284 0.00549481
v -0.09700234 -0.01895267 0.00567016
v -0.09477228 -0.02118250 0.00601364
v -0.10368791 -0.01226552 0.00550385
v -0.09254221 -0.02118250 0.00561322
v -0.08771155 -0.02341233 0.00555447
v -0.08771155 -0.01906510 0.01267339
v -0.10443822 -0.00366240 0.01382402
v -0.10837732 -0.00366240 0.01450192
v -0.10947962 -0.00519190 0.01403011
v -0.10925498 -0.00667689 0.01381408
v -0.10903962 -0.00780586 0.01355919
v -0.10877331 -0.01025352 0.01272220
v -0.10952592 -0.00965390 0.01199097
v -0.11115158 -0.00557603 0.01047426
v -0.11051474 -0.00780586 0.01047426
v -0.10961624 -0.01025352 0.01063877
v -0.10928741 -0.01121150 0.01000605
v -0.10904425 -0.01003569 0.00763609
v -0.11075327 -0.00557603 0.00824529
v -0.10994276 -0.00801432 0.00803017
v -0.10950509 -0.01003569 0.00875148
v -0.10925498 -0.00889735 0.00714348
v -0.10741628 -0.01226552 0.00682170
v -0.10792805 -0.01003569 0.00646286
v -0.10591798 -0.01003569 0.00561683
v -0.09477228 -0.01895267 0.00549210
v -0.10591798 -0.00780586 0.00551016
v -0.09031214 -0.02118250 0.00551198
v -0.10591798 -0.00366240 0.00565931
v -0.08771155 -0.02155258 0.00576869
v -0.08771155 -0.01828044 0.01047426
v -0.10315530 -0.00366240 0.01230190
v -0.10339845 -0.00366240 0.01260469
v -0.10957686 -0.00366240 0.01412320
v -0.11044528 -0.00366240 0.01293279
v -0.11012570 -0.00579152 0.01292467
v -0.10985707 -0.00780586 0.01244381
v -0.11057728 -0.00366240 0.01273304
v -0.11136926 -0.00366240 0.01047426
v -0.11103811 -0.00366240 0.00856347
v -0.11098021 -0.00366240 0.00824529
v -0.10978066 -0.00557603 0.00668883
v -0.10951897 -0.00741236 0.00692202
v -0.10814805 -0.00557603 0.00585094
v -0.10814805 -0.00366240 0.00572801
v -0.10783080 -0.00366240 0.00568552
v -0.10591798 -0.00557603 0.00555174
v -0.10564472 -0.00366240 0.00577863
v -0.08771155 -0.02115439 0.00591962
v -0.08771155 -0.01874890 0.00824801
v -0.10266666 -0.00366240 0.00988132
v -0.10263193 -0.00366240 0.01047426
v -0.10990570 -0.00366240 0.00657133
v -0.10967182 -0.00366240 0.00645200
v -0.10423212 -0.00366240 0.00650172
v -0.08771155 -0.01984273 0.00663189
v -0.08771155 -0.01894565 0.00793166
v -0.10310897 -0.00366240 0.00834382
v -0.10306034 -0.00366240 0.00844325
v -0.10299551 -0.00366240 0.00859511
v -0.08771155 -0.01970220 0.00675662
f 1 2 3
f 1 3 10
f 1 10 19
f 1 19 31
f 1 31 53
f 1 53 84
f 1 84 110
f 1 110 135
f 1 135 154
f 1 154 161
f 1 161 166
f 1 166 162
f 1 162 155
f 1 155 136
f 1 136 111
f 1 111 87
f 1 87 58
f 1 58 34
f 1 34 20
f 1 20 11
f 1 11 4
f 1 4 5
f 1 5 2
f 2 5 6
f 2 6 7
f 2 7 8
f 2 8 9
f 2 9 3
f 3 9 10
f 4 11 12
f 4 12 5
f 5 12 6
f 6 12 13
f 6 13 14
f 6 14 7
f 7 14 15
f 7 15 16
f 7 16 8
f 8 17 9
f 8 16 18
f 8 18 17
f 9 19 10
f 9 17 19
f 11 20 21
f 11 21 12
f 12 21 22
f 12 22 23
f 12 23 13
f 13 23 24
f 13 24 14
f 14 25 15
f 14 24 26
f 14 26 27
f 14 27 25
f 15 25 16
f 16 25 27
f 16 27 26
f 16 26 28
f 16 28 29
f 16 29 18
f 17 30 31
f 17 31 19
f 17 18 32
f 17 32 33
f 17 33 30
f 18 29 32
f 20 34 35
f 20 35 21
f 21 36 22
f 21 35 37
f 21 37 38
f 21 38 39
f 21 39 36
f 22 36 40
f 22 40 41
f 22 41 42
f 22 42 43
f 22 43 23
f 23 43 24
f 24 43 44
f 24 44 45
f 24 45 46
f 24 46 26
f 26 46 47
f 26 47 48
f 26 48 28
f 28 32 29
f 28 48 49
f 28 49 50
f 28 50 32
f 30 51 31
f 30 33 51
f 31 51 52
f 31 52 53
f 32 54 55
f 32 55 33
f 32 50 56
f 32 56 54
f 33 55 51
f 34 57 35
f 34 58 59
f 34 59 60
f 34 60 61
f 34 61 57
f 35 57 37
f 36 39 40
f 37 57 38
f 38 62 63
f 38 63 40
f 38 40 39
f 38 57 64
f 38 64 65
f 38 65 66
f 38 66 67
f 38 67 68
f 38 68 62
f 40 63 42
f 40 42 41
f 42 63 43
f 43 63 44
f 44 63 45
f 45 63 69
f 45 69 46
f 46 70 47
f 46 69 71
f 46 71 72
f 46 72 73
f 46 73 70
f 47 70 48
f 48 74 75
f 48 75 49
f 48 70 73
f 48 73 76
f 48 76 77
f 48 77 74
f 49 75 50
f 50 75 78
f 50 78 79
f 50 79 80
f 50 80 56
f 51 55 81
f 51 81 52
f 52 81 82
f 52 82 83
f 52 83 84
f 52 84 53
f 54 56 55
f 55 56 85
f 55 85 81
f 56 86 85
f 56 80 86
f 57 61 64
f 58 87 88
f 58 88 59
f 59 88 112
f 59 112 138
f 59 138 137
f 59 137 157
f 59 157 156
f 59 156 165
f 59 165 164
f 59 164 163
f 59 163 160
f 59 160 153
f 59 153 134
f 59 134 151
f 59 151 150
f 59 150 159
f 59 159 158
f 59 158 146
f 59 146 145
f 59 145 144
f 59 144 143
f 59 143 140
f 59 140 139
f 59 139 113
f 59 113 89
f 59 89 60
f 60 89 61
f 61 89 65
f 61 65 64
f 62 68 63
f 63 68 90
f 63 90 69
f 65 89 91
f 65 91 92
f 65 92 66
f 66 92 93
f 66 93 68
f 66 68 67
f 68 93 94
f 68 94 90
f 69 90 71
f 71 90 95
f 71 95 72
f 72 95 94
f 72 94 96
f 72 96 97
f 72 97 73
f 73 97 98
f 73 98 99
f 73 99 76
f 74 77 75
f 75 77 76
f 75 76 100
f 75 100 78
f 76 99 101
f 76 101 100
f 78 100 102
f 78 102 79
f 79 102 103
f 79 103 104
f 79 104 80
f 80 105 106
f 80 106 82
f 80 82 107
f 80 107 86
f 80 104 108
f 80 108 105
f 81 85 86
f 81 86 107
f 81 107 82
f 82 106 109
f 82 109 83
f 83 110 84
f 83 109 105
f 83 105 110
f 87 111 112
f 87 112 88
f 89 113 91
f 90 94 95
f 91 113 114
f 91 114 92
f 92 114 115
f 92 115 93
f 93 115 116
f 93 116 117
f 93 117 96
f 93 96 94
f 96 117 97
f 97 117 118
f 97 118 119
f 97 119 120
f 97 120 121
f 97 121 122
f 97 122 98
f 98 122 99
f 99 123 101
f 99 122 120
f 99 120 124
f 99 124 125
f 99 125 126
f 99 126 123
f 100 101 123
f 100 123 127
f 100 127 128
f 100 128 102
f 102 128 103
f 103 128 129
f 103 129 130
f 103 130 104
f 104 130 108
f 105 131 110
f 105 109 106
f 105 108 132
f 105 132 131
f 108 130 132
f 110 131 133
f 110 133 134
f 110 134 135
f 111 136 137
f 111 137 138
f 111 138 112
f 113 139 114
f 114 139 140
f 114 140 141
f 114 141 115
f 115 141 142
f 115 142 116
f 116 142 118
f 116 118 117
f 118 142 119
f 119 142 141
f 119 141 143
f 119 143 144
f 119 144 145
f 119 145 124
f 119 124 120
f 120 122 121
f 123 126 125
f 123 125 127
f 124 145 146
f 124 146 147
f 124 147 148
f 124 148 127
f 124 127 125
f 127 148 129
f 127 129 128
f 129 148 147
f 129 147 149
f 129 149 130
f 130 149 150
f 130 150 132
f 131 132 133
f 132 150 151
f 132 151 152
f 132 152 133
f 133 152 134
f 134 152 151
f 134 153 154
f 134 154 135
f 136 155 156
f 136 156 157
f 136 157 137
f 140 143 141
f 146 158 147
f 147 158 149
f 149 158 159
f 149 159 150
f 153 160 154
f 154 160 161
f 155 162 160
f 155 160 163
f 155 163 164
f 155 164 165
f 155 165 156
f 160 162 166
f 160 166 161

