# https://github.com/mikedh/trimesh
v 0.05464207 0.03466919 0.00155707
v 0.05464207 0.03454583 0.00378652
v 0.05685392 0.03432156 0.00378652
v 0.05685392 0.03443370 0.00155707
v 0.05685392 0.03396272 -0.00013587
v 0.05464207 0.03408607 -0.00022118
v 0.05240776 0.03382816 -0.00002592
v 0.05090326 0.03357024 0.00023760
v 0.05240776 0.03415335 0.00155707
v 0.05240776 0.03404121 0.00378652
v 0.05464207 0.03396272 0.00583965
v 0.05685392 0.03385059 0.00568230
v 0.05240776 0.03371602 0.00546618
v 0.05841457 0.03359268 0.00528420
v 0.08518133 0.02467783 0.00528420
v 0.07469469 0.02837833 0.00378652
v 0.07228073 0.02929785 0.00155707
v 0.05865034 0.03367117 0.00013333
v 0.07023730 0.02951091 -0.00013587
v 0.05685392 0.03232553 -0.00085628
v 0.05464207 0.03232553 -0.00094537
v 0.05240776 0.03232553 -0.00074631
v 0.04795038 0.03194426 -0.00022876
v 0.04125869 0.02972397 -0.00022876
v 0.03902438 0.02936514 -0.00002592
v 0.03751987 0.02911843 0.00023760
v 0.05079098 0.03361509 0.00155707
v 0.05095939 0.03355904 0.00378652
v 0.05112781 0.03350296 0.00506428
v 0.05464207 0.03312169 0.00695437
v 0.05685392 0.03298714 0.00679704
v 0.07692900 0.02716726 0.00568230
v 0.04571607 0.03060984 0.00658092
v 0.05240776 0.03283015 0.00658092
v 0.03902438 0.02925300 0.00546618
v 0.09187302 0.02244632 0.00528420
v 0.08660724 0.02440871 0.00378652
v 0.08362069 0.02551887 0.00155707
v 0.06534205 0.03143965 0.00013333
v 0.07692900 0.02564221 -0.00085438
v 0.08362069 0.02504788 -0.00013587
v 0.07469469 0.02564221 -0.00098139
v 0.06131130 0.03009402 -0.00098329
v 0.05908823 0.03009402 -0.00100225
v 0.05685392 0.03009402 -0.00101931
v 0.05464207 0.03009402 -0.00102690
v 0.05240776 0.03009402 -0.00101931
v 0.05017346 0.03009402 -0.00100604
v 0.04795038 0.03009402 -0.00095674
v 0.03456700 0.02564221 -0.00095674
v 0.03234392 0.02564221 -0.00074631
v 0.02787530 0.02526094 -0.00022876
v 0.01896054 0.02267060 -0.00002592
v 0.02413649 0.02465541 0.00023760
v 0.04315616 0.03095746 0.00378652
v 0.03071590 0.02692057 0.00155707
v 0.02119484 0.02363497 0.00378652
v 0.03774443 0.02903993 0.00506428
v 0.05240776 0.00399990 0.01814333
v 0.05428278 0.00413447 0.01814333
v 0.05464207 0.00415690 0.01814333
v 0.05612412 0.00412325 0.01814333
v 0.05685392 0.00410083 0.01814333
v 0.05816756 0.00397748 0.01814333
v 0.06800300 0.00276640 0.01814333
v 0.06999029 0.00251970 0.01814333
v 0.05685392 0.03187698 0.00733164
v 0.04795038 0.03100232 0.00701126
v 0.04910683 0.03119296 0.00712500
v 0.05240776 0.03172000 0.00728993
v 0.03956331 0.00248606 0.01814333
v 0.04190989 0.00277762 0.01814333
v 0.06043555 0.03127145 0.00715533
v 0.06192883 0.03104717 0.00704728
v 0.08362069 0.02407230 0.00679704
v 0.08362069 0.02493575 0.00568230
v 0.03902438 0.02837833 0.00658092
v 0.03456700 0.02655051 0.00701126
v 0.01896054 0.02255846 0.00546618
v 0.09476977 0.02168381 0.00378652
v 0.09030115 0.02270423 0.00568230
v 0.09537605 0.01987841 0.00704728
v 0.09699284 0.02041667 0.00552685
v 0.09817175 0.02013632 0.00507755
v 0.09030115 0.02328735 0.00155707
v 0.09209757 0.02251360 0.00013333
v 0.08362069 0.02341069 -0.00085438
v 0.09030115 0.02281637 -0.00013587
v 0.09476977 0.01894767 -0.00098139
v 0.09253545 0.01894767 -0.00099845
v 0.05685392 0.02786250 -0.00106101
v 0.05464207 0.02564221 -0.00111030
v 0.05240776 0.02341069 -0.00114254
v 0.04795038 0.02564221 -0.00107428
v 0.03680130 0.02564221 -0.00100604
v 0.02787530 0.02341069 -0.00095674
v 0.01896054 0.02117918 -0.00074631
v 0.01450315 0.02079793 -0.00022876
v 0.01745602 0.02242389 0.00023760
v 0.01734375 0.02245754 0.00155707
v 0.01450315 0.02140346 0.00378652
v 0.01768058 0.02234540 0.00506428
v 0.07140499 0.00227301 0.01814333
v 0.04241514 0.02897265 0.00712500
v 0.03826090 0.00202630 0.01814333
v 0.03572344 0.02674115 0.00712500
v 0.01565960 0.02004661 0.00712500
v 0.06862052 0.02881566 0.00704728
v 0.08868436 0.02212114 0.00704728
v 0.09030115 0.02184079 0.00679704
v 0.01896054 0.02168381 0.00658092
v 0.02787530 0.02431900 0.00701126
v 0.01450315 0.02070821 0.00589652
v 0.09476977 0.02178472 0.00155707
v 0.09234460 0.02260331 0.00155707
v 0.09699284 0.02082034 0.00378652
v 0.09699284 0.02095491 0.00155707
v 0.09637532 0.01838699 0.00727667
v 0.09707143 0.01905982 0.00665485
v 0.07195514 0.00199266 0.01814333
v 0.07228073 0.00177960 0.01814333
v 0.07365051 0.00088252 0.01814333
v 0.07540203 -0.00028370 0.01814333
v 0.07681673 -0.00132657 0.01814333
v 0.09839629 0.01894767 0.00548324
v 0.10040605 0.01357634 0.00510030
v 0.09873313 0.01894767 0.00378652
v 0.09822788 0.02020359 0.00378652
v 0.09825034 0.02022603 0.00022432
v 0.09699284 0.02054001 -0.00006763
v 0.09030115 0.02117918 -0.00085438
v 0.09476977 0.02095491 -0.00026100
v 0.09699284 0.01894767 -0.00074631
v 0.09699284 0.01671616 -0.00095674
v 0.09699284 0.01448465 -0.00100035
v 0.09476977 0.01671616 -0.00101172
v 0.09253545 0.01671616 -0.00102690
v 0.06131130 0.01894767 -0.00118615
v 0.05685392 0.02117918 -0.00118425
v 0.05464207 0.02117918 -0.00119182
v 0.05240776 0.02117918 -0.00118235
v 0.05017346 0.02117918 -0.00116909
v 0.04571607 0.02117918 -0.00114254
v 0.02341792 0.02117918 -0.00100604
v 0.02119484 0.02117918 -0.00095674
v 0.01450315 0.01894767 -0.00094727
v 0.01284145 0.02043908 0.00002148
v 0.01450315 0.02149317 0.00155707
v 0.01260567 0.02060729 0.00155707
v 0.01269549 0.02055122 0.00378652
v 0.01295373 0.02037180 0.00549083
v 0.03680130 0.00109557 0.01814333
v 0.01450315 0.01974384 0.00701126
v 0.02119484 0.02208748 0.00701126
v 0.09829525 0.02027088 0.00155707
v 0.09792474 0.01671616 0.00702453
v 0.07772616 -0.00217881 0.01814333
v 0.07796195 -0.00242551 0.01814333
v 0.09975484 0.01226435 0.00661693
v 0.10063062 0.01226435 0.00550221
v 0.10010291 0.01487712 0.00378652
v 0.09948540 0.01671616 0.00378652
v 0.10264036 0.00689302 0.00510030
v 0.09885663 0.01894767 0.00155707
v 0.10048464 0.01381184 0.00022054
v 0.09850858 0.01894767 -0.00004108
v 0.09886786 0.01671616 -0.00023445
v 0.09922715 0.01226435 -0.00076527
v 0.09922715 0.01003284 -0.00096054
v 0.09922715 0.00780132 -0.00100604
v 0.09699284 0.01226435 -0.00101553
v 0.09476977 0.01448465 -0.00102879
v 0.09253545 0.01448465 -0.00105155
v 0.08807808 0.01226435 -0.00110462
v 0.05908823 0.01894767 -0.00119941
v 0.05685392 0.01894767 -0.00120888
v 0.05464207 0.01894767 -0.00121268
v 0.05240776 0.01894767 -0.00120888
v 0.05017346 0.01894767 -0.00120131
v 0.04795038 0.01894767 -0.00118994
v 0.04571607 0.01894767 -0.00117666
v 0.03234392 0.01894767 -0.00109514
v 0.02119484 0.01894767 -0.00102690
v 0.01672623 0.01894767 -0.00099845
v 0.01450315 0.01671616 -0.00100225
v 0.01226884 0.01448465 -0.00093968
v 0.01226884 0.01671616 -0.00071030
v 0.01216779 0.01892525 -0.00020033
v 0.01104503 0.01816272 0.00026603
v 0.01149413 0.01935136 0.00155707
v 0.01157273 0.01918316 0.00378652
v 0.01321197 0.01816272 0.00719325
v 0.01112362 0.01793844 0.00500362
v 0.01233621 0.01879069 0.00599133
v 0.03544275 0.00020970 0.01814333
v 0.03385965 -0.00087802 0.01814333
v 0.03424139 -0.00058647 0.01814333
v 0.03474664 -0.00025006 0.01814333
v 0.09810438 0.01559480 0.00713068
v 0.10033870 0.00891147 0.00713068
v 0.10257300 0.00221694 0.00713068
v 0.10461643 -0.00334501 0.00702453
v 0.07801809 -0.00257128 0.01814333
v 0.10644655 -0.00780805 0.00661693
v 0.10732231 -0.00780805 0.00550221
v 0.10109094 0.01226435 0.00155707
v 0.10171969 0.01003284 0.00378652
v 0.10933205 -0.01317938 0.00510030
v 0.10271896 0.00711729 0.00022054
v 0.10074289 0.01226435 -0.00004488
v 0.10555956 -0.00334501 -0.00023445
v 0.10591884 -0.00780805 -0.00076527
v 0.10591884 -0.01003956 -0.00096054
v 0.09922715 0.00110679 -0.00104775
v 0.10591884 -0.01227107 -0.00100604
v 0.10591884 -0.01895439 -0.00104775
v 0.09922715 -0.01003956 -0.00111599
v 0.09699284 -0.01450258 -0.00117855
v 0.09476977 -0.00557653 -0.00115201
v 0.09476977 0.00780132 -0.00107051
v 0.09253545 0.01003284 -0.00108187
v 0.09030115 0.01003284 -0.00110652
v 0.08807808 0.01003284 -0.00112926
v 0.08584376 0.01003284 -0.00114254
v 0.08584376 0.00780132 -0.00115960
v 0.06131130 0.01671616 -0.00120320
v 0.09253545 -0.01227107 -0.00120320
v 0.09476977 -0.01895439 -0.00121647
v 0.09476977 -0.02118591 -0.00122216
v 0.01450315 -0.02118591 -0.00122216
v 0.04571607 0.01671616 -0.00119562
v 0.03010961 0.01226435 -0.00115581
v 0.02787530 0.01226435 -0.00114443
v 0.02565223 0.01003284 -0.00115201
v 0.03456700 0.01671616 -0.00113495
v 0.03234392 0.01671616 -0.00112168
v 0.02119484 0.01671616 -0.00105343
v 0.01672623 0.01671616 -0.00102310
v 0.01226884 -0.02118591 -0.00120320
v 0.01226884 0.01226435 -0.00099278
v 0.01896054 0.01448465 -0.00106291
v 0.01896054 0.01226435 -0.00107997
v 0.00111977 -0.02118591 -0.00100225
v 0.01003454 0.00780132 -0.00093968
v 0.01003454 0.01003284 -0.00071030
v 0.01044996 0.01448465 -0.00021929
v 0.01080925 0.01671616 0.00000442
v 0.01102257 0.01824121 0.00155707
v 0.00857494 0.01003284 0.00000442
v 0.00881072 0.01146818 0.00026603
v 0.01107871 0.01807301 0.00378652
v 0.01179728 0.01671616 0.00652025
v 0.01139308 0.01448465 0.00699039
v 0.01119098 0.01326236 0.00711552
v 0.03126606 -0.00485886 0.01814333
v 0.03172639 -0.00365900 0.01814333
v 0.03187235 -0.00334501 0.01814333
v 0.03255724 -0.00213395 0.01814333
v 0.03288285 -0.00165177 0.01814333
v 0.01092152 0.01671616 0.00540551
v 0.00921492 0.01249984 0.00378652
v 0.00888931 0.01124392 0.00500362
v 0.00868721 0.01003284 0.00540551
v 0.07846719 -0.00374871 0.01814333
v 0.10703039 -0.01116092 0.00713068
v 0.10907381 -0.01673410 0.00702453
v 0.11090392 -0.02118591 0.00661693
v 0.11176846 -0.02118591 0.00550221
v 0.10841138 -0.01003956 0.00378652
v 0.10722124 -0.00612600 0.00155707
v 0.11155513 -0.01987391 0.00510030
v 0.11125198 -0.01856192 0.00378652
v 0.11163372 -0.01963841 0.00022054
v 0.10743458 -0.00780805 -0.00004488
v 0.11001693 -0.01673410 -0.00023445
v 0.11037622 -0.02118591 -0.00076527
v 0.10814192 -0.01673410 -0.00096054
v 0.10814192 -0.01895439 -0.00100604
v 0.10591884 -0.02118591 -0.00106101
v 0.10145023 -0.01895439 -0.00112926
v 0.10145023 -0.01673410 -0.00111599
v 0.09922715 -0.01895439 -0.00116909
v 0.09699284 -0.01673410 -0.00119182
v 0.09476977 -0.01003956 -0.00117855
v 0.09253545 -0.00334501 -0.00116339
v 0.09030115 0.00333830 -0.00114823
v 0.08807808 0.00780132 -0.00114443
v 0.08807808 0.00556981 -0.00115581
v 0.08807808 0.00333830 -0.00116529
v 0.09253545 -0.01003956 -0.00119562
v 0.09476977 -0.01450258 -0.00120131
v 0.09699284 -0.02118591 -0.00121268
v 0.09476977 -0.02340620 -0.00122216
v 0.01450315 -0.02340620 -0.00122216
v 0.01226884 -0.02340620 -0.00120700
v 0.01450315 -0.01895439 -0.00121268
v 0.02341792 0.00780132 -0.00115391
v 0.01896054 -0.01003956 -0.00119941
v 0.02565223 0.00780132 -0.00116149
v 0.02341792 0.01003284 -0.00113874
v 0.02565223 0.01226435 -0.00113117
v 0.02119484 0.01448465 -0.00107808
v 0.02119484 0.01003284 -0.00111789
v 0.01003454 -0.02340620 -0.00116909
v 0.01003454 -0.02118591 -0.00116339
v 0.00781146 -0.02118591 -0.00112358
v 0.02341792 0.01226435 -0.00111599
v 0.02119484 0.01226435 -0.00110083
v 0.00781146 -0.02340620 -0.00112926
v 0.00111977 -0.02340620 -0.00100604
v -0.00128296 -0.02346227 -0.00023445
v -0.00123805 -0.02121954 -0.00023255
v 0.00111977 -0.01895439 -0.00094158
v 0.00557715 -0.00334501 -0.00071030
v 0.00821565 0.00780132 -0.00021929
v 0.00604871 0.00333830 0.00155707
v 0.00634063 0.00333830 0.00000442
v -0.00010405 -0.01528754 0.00026603
v 0.00209657 -0.00851451 0.00155707
v 0.00895668 0.00657904 0.00711552
v 0.00470139 -0.00557653 0.00699039
v 0.03086186 -0.00609236 0.01814333
v 0.00004191 -0.02018789 0.00711552
v -0.00127173 -0.01895439 0.00378652
v 0.00219762 -0.00882849 0.00500362
v 0.00199552 -0.01003956 0.00540551
v 0.07907348 -0.00557653 0.01814333
v 0.10925345 -0.01784423 0.00713068
v 0.10978116 -0.02118591 0.00729562
v 0.11096006 -0.02340620 0.00674205
v 0.11182459 -0.02340620 0.00562733
v 0.11221757 -0.02340620 0.00378652
v 0.11211651 -0.02118591 0.00378652
v 0.11167864 -0.01951507 0.00155707
v 0.11162249 -0.01968328 0.00378652
v 0.11222878 -0.02118591 0.00155707
v 0.11188073 -0.02118591 -0.00004488
v 0.11193687 -0.02340620 -0.00010365
v 0.11037622 -0.02340620 -0.00082404
v 0.10814192 -0.02118591 -0.00101931
v 0.10591884 -0.02340620 -0.00106101
v 0.10145023 -0.02118591 -0.00114254
v 0.09922715 -0.02118591 -0.00118235
v 0.09699284 -0.01895439 -0.00120320
v 0.09699284 -0.02340620 -0.00121268
v 0.09476977 -0.02563772 -0.00121837
v 0.05685392 -0.06355099 -0.00121457
v 0.01450315 -0.02563772 -0.00121647
v 0.05464207 -0.06355099 -0.00121457
v 0.01226884 -0.02563772 -0.00119751
v 0.01003454 -0.02563772 -0.00115770
v 0.00781146 -0.02563772 -0.00111789
v 0.00335407 -0.02563772 -0.00103637
v 0.00335407 -0.03010073 -0.00100794
v 0.00111977 -0.02563772 -0.00097570
v -0.00232713 -0.02275581 0.00026603
v -0.00232713 -0.02198207 0.00026603
v 0.00111977 -0.02786923 -0.00081078
v -0.00081139 -0.02563772 -0.00024772
v -0.00069912 -0.01895439 -0.00021929
v 0.00111977 -0.01673410 -0.00071030
v 0.00188325 -0.01003956 0.00000442
v -0.00236081 -0.02189237 0.00155707
v 0.00024401 -0.01895439 0.00699039
v 0.03032293 -0.00780805 0.01814333
v -0.00225977 -0.02220635 0.00500362
v -0.00017141 -0.02166809 0.00719325
v 0.02970541 -0.01003956 0.01814333
v -0.00193416 -0.02095042 0.00378652
v -0.00022755 -0.01673410 0.00540551
v 0.07966854 -0.00738193 0.01814333
v 0.08009521 -0.00877242 0.01814333
v 0.08024117 -0.00927703 0.01814333
v 0.08028607 -0.00943402 0.01814333
v 0.10984853 -0.02340620 0.00731078
v 0.08069026 -0.01123942 0.01814333
v 0.08107201 -0.01329151 0.01814333
v 0.08153234 -0.01598278 0.01814333
v 0.08240810 -0.02118591 0.01814333
v 0.11163372 -0.02494247 0.00526712
v 0.10951169 -0.02563772 0.00721790
v 0.10930959 -0.02696093 0.00715155
v 0.10908504 -0.02845234 0.00704159
v 0.10879312 -0.03010073 0.00678186
v 0.11234107 -0.02340620 0.00155707
v 0.11172356 -0.02524524 0.00378652
v 0.11170109 -0.02517796 0.00014090
v 0.10976993 -0.03010073 -0.00012830
v 0.10814192 -0.03010073 -0.00084489
v 0.10814192 -0.02786923 -0.00098139
v 0.10814192 -0.02563772 -0.00100414
v 0.10814192 -0.02340620 -0.00101931
v 0.10145023 -0.02340620 -0.00114254
v 0.09699284 -0.05908797 -0.00099845
v 0.09922715 -0.02340620 -0.00118235
v 0.09699284 -0.02563772 -0.00120320
v 0.09476977 -0.02786923 -0.00121078
v 0.09253545 -0.03233225 -0.00120510
v 0.05908823 -0.06355099 -0.00120700
v 0.05685392 -0.06577128 -0.00119751
v 0.05464207 -0.06577128 -0.00120131
v 0.08584376 -0.05016192 -0.00116719
v 0.08584376 -0.05239343 -0.00115960
v 0.02119484 -0.04347860 -0.00118045
v 0.02119484 -0.04571011 -0.00117286
v 0.01896054 -0.04124709 -0.00117855
v 0.01450315 -0.03010073 -0.00119751
v 0.05240776 -0.06355099 -0.00120888
v 0.01226884 -0.05016192 -0.00104775
v 0.01003454 -0.04571011 -0.00103637
v 0.01003454 -0.03233225 -0.00111789
v 0.01450315 -0.03233225 -0.00118615
v 0.01450315 -0.03901557 -0.00114633
v 0.01450315 -0.05239343 -0.00106481
v 0.00557715 -0.03233225 -0.00103637
v 0.00557715 -0.03678406 -0.00100794
v 0.01003454 -0.05239343 -0.00097570
v -0.00236081 -0.02286795 0.00155707
v -0.00045211 -0.02786923 -0.00009037
v -0.00017141 -0.02952885 0.00017693
v -0.00158610 -0.02563772 0.00155707
v -0.00208012 -0.02397810 0.00155707
v -0.00033983 -0.01673410 0.00000442
v 0.01003454 -0.05462493 -0.00081078
v -0.00230467 -0.02207178 0.00378652
v -0.00059807 -0.01895439 0.00587567
v -0.00225977 -0.02244183 0.00500362
v -0.00013773 -0.02340620 0.00718567
v 0.02769566 -0.02118591 0.01814333
v 0.02891948 -0.01398676 0.01814333
v 0.02921139 -0.01231593 0.01814333
v 0.02921139 -0.01227107 0.01813954
v 0.08231828 -0.02340620 0.01814333
v 0.11085902 -0.02786923 0.00378652
v 0.10965765 -0.03010073 0.00566714
v 0.10520027 -0.04347860 0.00566714
v 0.10048464 -0.05839271 0.00526712
v 0.10485221 -0.04034999 0.00715155
v 0.08181303 -0.02517796 0.01814333
v 0.08167829 -0.02563772 0.01814333
v 0.08127410 -0.02687121 0.01814333
v 0.10462766 -0.04183020 0.00704159
v 0.09793597 -0.06190259 0.00704159
v 0.10210143 -0.05016192 0.00678186
v 0.09850858 -0.06355099 0.00566714
v 0.11179091 -0.02541344 0.00155707
v 0.10947800 -0.03186128 0.00014090
v 0.10591884 -0.03678406 -0.00084489
v 0.10085516 -0.05685646 -0.00012830
v 0.09922715 -0.05685646 -0.00084489
v 0.09922715 -0.05462493 -0.00097950
v 0.09699284 -0.06131947 -0.00097950
v 0.09476977 -0.06131947 -0.00101553
v 0.09030115 -0.05685646 -0.00109324
v 0.08807808 -0.05239343 -0.00114443
v 0.08807808 -0.04794161 -0.00116529
v 0.08807808 -0.04571011 -0.00117478
v 0.06131130 -0.06355099 -0.00119941
v 0.05685392 -0.06800280 -0.00115960
v 0.06354561 -0.06355099 -0.00118994
v 0.05908823 -0.06577128 -0.00118425
v 0.05464207 -0.06800280 -0.00116149
v 0.05240776 -0.06577128 -0.00118803
v 0.01450315 -0.06355099 -0.00099088
v 0.04795038 -0.06355099 -0.00118803
v 0.05017346 -0.06355099 -0.00119941
v 0.08584376 -0.05462493 -0.00115013
v 0.02341792 -0.05016192 -0.00116529
v 0.02341792 -0.05239343 -0.00115770
v 0.02119484 -0.04794161 -0.00116339
v 0.01672623 -0.03678406 -0.00118235
v 0.01226884 -0.05685646 -0.00100604
v 0.01003454 -0.05016192 -0.00100794
v 0.01672623 -0.03901557 -0.00117097
v 0.01672623 -0.04347860 -0.00114443
v 0.01450315 -0.05908797 -0.00102310
v 0.01672623 -0.05685646 -0.00106291
v 0.01226884 -0.05908797 -0.00097382
v -0.00203521 -0.02374260 0.00378652
v -0.00230467 -0.02262125 0.00378652
v 0.00205166 -0.03622338 0.00017693
v 0.00846266 -0.05462493 -0.00009037
v -0.00085631 -0.02786923 0.00155707
v -0.00148505 -0.02563772 0.00378652
v 0.01226884 -0.06131947 -0.00080888
v 0.01069697 -0.06131947 -0.00009037
v -0.00010405 -0.02930457 0.00519129
v -0.00033983 -0.02786923 0.00559321
v -0.00058684 -0.02548073 0.00617141
v 0.00022155 -0.02611990 0.00701884
v -0.00001423 -0.02462849 0.00714207
v 0.02778548 -0.02340620 0.01814333
v 0.10467257 -0.04642778 0.00378652
v 0.09825034 -0.06486298 0.00526712
v 0.09895768 -0.06355099 0.00378652
v 0.09816052 -0.06041117 0.00715155
v 0.07740057 -0.03847731 0.01814333
v 0.09635286 -0.06355099 0.00726719
v 0.09594867 -0.06469478 0.00714586
v 0.09747564 -0.06355099 0.00678186
v 0.09986713 -0.05685646 0.00678186
v 0.07646866 -0.04124709 0.01814333
v 0.07599710 -0.04254787 0.01814333
v 0.10509922 -0.04548584 0.00155707
v 0.10502063 -0.04523913 0.00014090
v 0.09862085 -0.06355099 -0.00012830
v 0.09699284 -0.06355099 -0.00084300
v 0.09476977 -0.06355099 -0.00099656
v 0.09253545 -0.06131947 -0.00103637
v 0.08807808 -0.05685646 -0.00111410
v 0.08807808 -0.05462493 -0.00113117
v 0.08138638 -0.05685646 -0.00115581
v 0.05685392 -0.07246582 -0.00107808
v 0.06577992 -0.06577128 -0.00114443
v 0.06800300 -0.06577128 -0.00113117
v 0.07023730 -0.06800280 -0.00107808
v 0.06577992 -0.06355099 -0.00117666
v 0.07023730 -0.06131947 -0.00117478
v 0.05464207 -0.07692884 -0.00099845
v 0.02119484 -0.06577128 -0.00099278
v 0.01896054 -0.06577128 -0.00093589
v 0.01672623 -0.06577128 -0.00069893
v 0.01453683 -0.06589464 -0.00022498
v 0.01272918 -0.06523303 -0.00002970
v 0.01210043 -0.06365192 -0.00028565
v 0.01450315 -0.06131947 -0.00100794
v 0.01672623 -0.05908797 -0.00104775
v 0.01896054 -0.05685646 -0.00108756
v 0.01896054 -0.05908797 -0.00106861
v 0.02341792 -0.05685646 -0.00111979
v 0.02341792 -0.05462493 -0.00114254
v 0.08584376 -0.05685646 -0.00112926
v 0.08362069 -0.05685646 -0.00114254
v 0.02119484 -0.05239343 -0.00114064
v 0.01896054 -0.04571011 -0.00115581
v 0.01896054 -0.04794161 -0.00114254
v 0.00650905 -0.04960124 0.00017693
v -0.00074403 -0.02786923 0.00378652
v 0.00360108 -0.04124709 0.00155707
v 0.01097766 -0.06297909 0.00017693
v 0.00857494 -0.05462493 0.00559321
v 0.00427474 -0.04292912 0.00378652
v 0.01040505 -0.06131947 0.00378652
v 0.01104503 -0.06274361 0.00519129
v 0.00275901 -0.03455255 0.00670793
v 0.00053593 -0.02786923 0.00670793
v 0.00244463 -0.03280322 0.00701884
v 0.00220885 -0.03132302 0.00714207
v 0.02843668 -0.02579471 0.01814333
v 0.09699284 -0.06595070 0.00378652
v 0.09835138 -0.06500876 0.00378652
v 0.09681320 -0.06516575 0.00601218
v 0.09400628 -0.06700479 0.00522163
v 0.09906996 -0.06355099 0.00155707
v 0.07680550 -0.04024907 0.01814333
v 0.08933558 -0.06692629 0.00714586
v 0.09082885 -0.06669080 0.00702832
v 0.09253545 -0.06638804 0.00673637
v 0.09475854 -0.06610769 0.00598564
v 0.07535712 -0.04300763 0.01814333
v 0.07469469 -0.04346738 0.01814333
v 0.07267371 -0.04435326 0.01814333
v 0.07246038 -0.04444297 0.01814333
v 0.07041694 -0.04518307 0.01814333
v 0.10278631 -0.05193367 0.00014090
v 0.10055201 -0.05861700 0.00014090
v 0.09832894 -0.06497511 0.00014090
v 0.09699284 -0.06540124 -0.00013966
v 0.09253545 -0.06577128 -0.00082594
v 0.09030115 -0.06577128 -0.00097950
v 0.08807808 -0.06577128 -0.00100794
v 0.09253545 -0.06355099 -0.00101362
v 0.08807808 -0.05908797 -0.00109136
v 0.06131130 -0.07469734 -0.00100984
v 0.05908823 -0.07469734 -0.00102310
v 0.05685392 -0.07469734 -0.00103637
v 0.06800300 -0.06355099 -0.00116339
v 0.08138638 -0.06577128 -0.00104965
v 0.08138638 -0.06800280 -0.00100984
v 0.05464207 -0.07896973 -0.00026857
v 0.05240776 -0.07692884 -0.00093779
v 0.05685392 -0.07692884 -0.00098139
v 0.01896054 -0.06758790 -0.00021549
v 0.01672623 -0.06722906 0.00001579
v 0.05017346 -0.07692884 -0.00069893
v 0.01531154 -0.06699357 0.00027931
v 0.01413264 -0.06662353 0.00155707
v 0.01242603 -0.06551337 0.00155707
v 0.01130326 -0.06427988 0.00155707
v 0.02119484 -0.05462493 -0.00112548
v 0.02119484 -0.05685646 -0.00110652
v 0.01091029 -0.06316973 0.00155707
v 0.00867599 -0.05647518 0.00155707
v 0.01080925 -0.06131947 0.00559321
v 0.00945070 -0.05462493 0.00670793
v 0.01096643 -0.06299030 0.00378652
v 0.01135940 -0.06411166 0.00378652
v 0.01279654 -0.06517697 0.00562543
v 0.01222393 -0.06365192 0.00615247
v 0.01168500 -0.06131947 0.00670793
v 0.00690201 -0.04618108 0.00701884
v 0.00890054 -0.05138421 0.00714207
v 0.03065977 -0.03247803 0.01814333
v 0.09538728 -0.06672444 0.00378652
v 0.09699284 -0.06608527 0.00155707
v 0.09840753 -0.06508726 0.00155707
v 0.09253545 -0.06767761 0.00378652
v 0.09253545 -0.06725148 0.00562165
v 0.07394244 -0.07369932 0.00522163
v 0.08264389 -0.06915781 0.00714586
v 0.06406208 -0.07561685 0.00702832
v 0.07915207 -0.07085107 0.00673637
v 0.06577992 -0.07617754 0.00562165
v 0.05703356 -0.04964609 0.01814333
v 0.09423083 -0.06708328 0.00016367
v 0.09489327 -0.06596192 -0.00029701
v 0.09253545 -0.06737483 -0.00010554
v 0.08362069 -0.06800280 -0.00098139
v 0.06577992 -0.07469734 -0.00082594
v 0.05464207 -0.07988924 0.00155707
v 0.05240776 -0.07873423 -0.00021549
v 0.05685392 -0.07888001 -0.00025151
v 0.05908823 -0.07692884 -0.00082594
v 0.03010961 -0.07169209 0.00001579
v 0.01524418 -0.06701601 0.00155707
v 0.02869493 -0.07145660 0.00027931
v 0.01430105 -0.06658989 0.00378652
v 0.01248217 -0.06546852 0.00378652
v 0.01553609 -0.06691508 0.00497897
v 0.01452561 -0.06574887 0.00604630
v 0.01351511 -0.06456022 0.00711174
v 0.01137063 -0.05957015 0.00701884
v 0.01113485 -0.05807875 0.00714207
v 0.03289407 -0.03917256 0.01814333
v 0.09555569 -0.06676931 0.00155707
v 0.09253545 -0.06778974 0.00155707
v 0.09444416 -0.06715056 0.00155707
v 0.06863174 -0.07565049 0.00378652
v 0.06577992 -0.07671579 0.00155707
v 0.06055906 -0.07816234 0.00522163
v 0.05588834 -0.07807264 0.00714586
v 0.05737039 -0.07783715 0.00702832
v 0.05908823 -0.07753439 0.00673637
v 0.05908823 -0.07840905 0.00562165
v 0.05676409 -0.04967973 0.01814333
v 0.08755037 -0.06931479 0.00016367
v 0.06078360 -0.07824085 0.00016367
v 0.05908823 -0.07852118 -0.00010554
v 0.05464207 -0.07979954 0.00378652
v 0.05240776 -0.07938463 0.00155707
v 0.05017346 -0.07837541 0.00001579
v 0.05685392 -0.07966497 0.00155707
v 0.02862756 -0.07147903 0.00155707
v 0.04875877 -0.07813992 0.00027931
v 0.02210428 -0.06919145 0.00378652
v 0.03561117 -0.07360962 0.00497897
v 0.01672623 -0.06711692 0.00538088
v 0.01313337 -0.06306881 0.00721600
v 0.01672623 -0.06623105 0.00649561
v 0.01896054 -0.06663474 0.00698092
v 0.02020680 -0.06684780 0.00711174
v 0.03695849 -0.04421870 0.01814333
v 0.03680130 -0.04416263 0.01814333
v 0.03483646 -0.04316462 0.01814333
v 0.03366878 -0.04124709 0.01814333
v 0.06082851 -0.07825206 0.00378652
v 0.06099693 -0.07830813 0.00155707
v 0.05685392 -0.07957527 0.00378652
v 0.05565256 -0.04981430 0.01814333
v 0.05464207 -0.04988157 0.01814333
v 0.05534941 -0.07807264 0.00714586
v 0.05463084 -0.07874545 0.00622828
v 0.05671918 -0.07864454 0.00617711
v 0.05908823 -0.07893610 0.00155707
v 0.05240776 -0.07863332 0.00586620
v 0.05240776 -0.07928371 0.00378652
v 0.05017346 -0.07865574 0.00155707
v 0.04869140 -0.07816234 0.00155707
v 0.03902438 -0.07483190 0.00378652
v 0.04898332 -0.07806143 0.00497897
v 0.05017346 -0.07826326 0.00538088
v 0.02341792 -0.06934843 0.00538088
v 0.03902438 -0.07332927 0.00698092
v 0.03359019 -0.07131081 0.00711174
v 0.04864649 -0.04812104 0.01814333
v 0.04014715 -0.04528398 0.01814333
v 0.05281196 -0.04950032 0.01814333
v 0.05387859 -0.07799415 0.00711174
v 0.05240776 -0.07778108 0.00698092
v 0.05017346 -0.07854362 0.00378652
v 0.04571607 -0.07556078 0.00698092
v 0.04697357 -0.07576263 0.00711174
v 0.05033064 -0.04868172 0.01814333
f 1 2 3
f 1 3 4
f 1 4 5
f 1 5 6
f 1 6 7
f 1 7 8
f 1 8 9
f 1 9 10
f 1 10 2
f 2 11 12
f 2 12 3
f 2 10 13
f 2 13 11
f 3 12 14
f 3 14 15
f 3 15 16
f 3 16 17
f 3 17 4
f 4 17 18
f 4 18 5
f 5 18 19
f 5 19 20
f 5 20 6
f 6 20 21
f 6 21 22
f 6 22 7
f 7 22 23
f 7 23 24
f 7 24 52
f 7 52 25
f 7 25 54
f 7 54 26
f 7 26 8
f 8 26 9
f 9 26 27
f 9 27 28
f 9 28 10
f 10 28 29
f 10 29 13
f 11 30 12
f 11 13 30
f 12 31 32
f 12 32 14
f 12 30 31
f 13 33 34
f 13 34 30
f 13 29 58
f 13 58 35
f 13 35 77
f 13 77 33
f 14 32 15
f 15 36 37
f 15 37 16
f 15 32 76
f 15 76 36
f 16 37 17
f 17 37 38
f 17 38 18
f 18 38 39
f 18 39 41
f 18 41 19
f 19 40 20
f 19 41 87
f 19 87 40
f 20 40 42
f 20 42 43
f 20 43 21
f 21 43 44
f 21 44 45
f 21 45 46
f 21 46 47
f 21 47 48
f 21 48 49
f 21 49 22
f 22 49 50
f 22 50 51
f 22 51 24
f 22 24 23
f 24 51 97
f 24 97 52
f 25 52 53
f 25 53 54
f 26 54 56
f 26 56 27
f 27 55 28
f 27 56 101
f 27 101 57
f 27 57 55
f 28 55 29
f 29 55 57
f 29 57 101
f 29 101 58
f 30 59 60
f 30 60 61
f 30 61 62
f 30 62 63
f 30 63 64
f 30 64 65
f 30 65 66
f 30 66 67
f 30 67 31
f 30 34 68
f 30 68 69
f 30 69 70
f 30 70 71
f 30 71 72
f 30 72 59
f 31 67 73
f 31 73 74
f 31 74 75
f 31 75 32
f 32 75 76
f 33 68 34
f 33 77 112
f 33 112 78
f 33 78 68
f 35 58 102
f 35 102 79
f 35 79 111
f 35 111 77
f 36 80 37
f 36 76 81
f 36 81 82
f 36 82 83
f 36 83 84
f 36 84 80
f 37 80 38
f 38 80 85
f 38 85 86
f 38 86 39
f 39 86 41
f 40 87 89
f 40 89 42
f 41 86 88
f 41 88 131
f 41 131 87
f 42 89 43
f 43 89 44
f 44 89 90
f 44 90 45
f 45 90 91
f 45 91 92
f 45 92 46
f 46 92 47
f 47 92 93
f 47 93 48
f 48 93 94
f 48 94 95
f 48 95 50
f 48 50 49
f 50 95 144
f 50 144 96
f 50 96 97
f 50 97 51
f 52 97 98
f 52 98 53
f 53 98 99
f 53 99 54
f 54 99 100
f 54 100 56
f 56 100 101
f 58 101 102
f 59 72 71
f 59 71 105
f 59 105 152
f 59 152 195
f 59 195 198
f 59 198 197
f 59 197 196
f 59 196 259
f 59 259 258
f 59 258 257
f 59 257 256
f 59 256 255
f 59 255 322
f 59 322 365
f 59 365 368
f 59 368 431
f 59 431 430
f 59 430 429
f 59 429 492
f 59 492 549
f 59 549 603
f 59 603 634
f 59 634 665
f 59 665 664
f 59 664 663
f 59 663 662
f 59 662 686
f 59 686 685
f 59 685 693
f 59 693 687
f 59 687 670
f 59 670 669
f 59 669 645
f 59 645 614
f 59 614 564
f 59 564 563
f 59 563 562
f 59 562 561
f 59 561 560
f 59 560 503
f 59 503 502
f 59 502 555
f 59 555 497
f 59 497 441
f 59 441 440
f 59 440 439
f 59 439 433
f 59 433 379
f 59 379 378
f 59 378 377
f 59 377 376
f 59 376 374
f 59 374 373
f 59 373 372
f 59 372 371
f 59 371 327
f 59 327 264
f 59 264 203
f 59 203 158
f 59 158 157
f 59 157 124
f 59 124 123
f 59 123 122
f 59 122 121
f 59 121 120
f 59 120 103
f 59 103 66
f 59 66 65
f 59 65 64
f 59 64 63
f 59 63 62
f 59 62 61
f 59 61 60
f 66 103 67
f 67 103 73
f 68 78 104
f 68 104 69
f 69 104 71
f 69 71 70
f 71 104 106
f 71 106 107
f 71 107 105
f 73 103 74
f 74 103 108
f 74 108 75
f 75 109 110
f 75 110 81
f 75 81 76
f 75 108 109
f 77 111 112
f 78 112 106
f 78 106 104
f 79 102 113
f 79 113 111
f 80 114 115
f 80 115 85
f 80 84 116
f 80 116 117
f 80 117 114
f 81 110 82
f 82 118 119
f 82 119 84
f 82 84 83
f 82 110 109
f 82 109 103
f 82 103 120
f 82 120 121
f 82 121 122
f 82 122 123
f 82 123 124
f 82 124 118
f 84 125 126
f 84 126 127
f 84 127 128
f 84 128 116
f 84 119 125
f 85 115 86
f 86 115 114
f 86 114 117
f 86 117 129
f 86 129 130
f 86 130 88
f 87 131 89
f 88 130 132
f 88 132 131
f 89 131 133
f 89 133 134
f 89 134 135
f 89 135 136
f 89 136 90
f 90 136 137
f 90 137 138
f 90 138 139
f 90 139 91
f 91 139 92
f 92 139 140
f 92 140 93
f 93 140 141
f 93 141 142
f 93 142 143
f 93 143 144
f 93 144 95
f 93 95 94
f 96 144 145
f 96 145 97
f 97 145 146
f 97 146 98
f 98 146 147
f 98 147 99
f 99 147 148
f 99 148 100
f 100 148 101
f 101 148 149
f 101 149 150
f 101 150 151
f 101 151 102
f 102 151 113
f 103 109 108
f 105 107 153
f 105 153 152
f 106 112 107
f 107 112 154
f 107 154 153
f 111 154 112
f 111 113 153
f 111 153 154
f 113 151 153
f 116 128 117
f 117 128 155
f 117 155 129
f 118 156 119
f 118 124 157
f 118 157 158
f 118 158 156
f 119 156 125
f 125 156 159
f 125 159 160
f 125 160 126
f 126 161 162
f 126 162 127
f 126 160 163
f 126 163 161
f 127 164 128
f 127 162 164
f 128 164 155
f 129 155 164
f 129 164 165
f 129 165 166
f 129 166 133
f 129 133 130
f 130 133 132
f 131 132 133
f 133 166 167
f 133 167 168
f 133 168 134
f 134 168 169
f 134 169 170
f 134 170 135
f 135 170 171
f 135 171 172
f 135 172 136
f 136 172 173
f 136 173 137
f 137 173 223
f 137 223 174
f 137 174 175
f 137 175 138
f 138 175 139
f 139 175 176
f 139 176 140
f 140 176 177
f 140 177 178
f 140 178 179
f 140 179 141
f 141 179 180
f 141 180 181
f 141 181 142
f 142 181 143
f 143 181 182
f 143 182 183
f 143 183 144
f 144 183 184
f 144 184 145
f 145 184 146
f 146 185 186
f 146 186 187
f 146 187 188
f 146 188 147
f 146 184 185
f 147 149 148
f 147 188 189
f 147 189 190
f 147 190 149
f 149 190 150
f 150 190 191
f 150 191 151
f 151 192 153
f 151 191 193
f 151 193 194
f 151 194 192
f 152 153 195
f 153 192 196
f 153 196 197
f 153 197 198
f 153 198 195
f 156 199 200
f 156 200 201
f 156 201 202
f 156 202 159
f 156 158 199
f 158 203 199
f 159 202 204
f 159 204 205
f 159 205 160
f 160 205 208
f 160 208 163
f 161 206 164
f 161 164 162
f 161 163 207
f 161 207 206
f 163 208 269
f 163 269 207
f 164 206 165
f 165 206 209
f 165 209 210
f 165 210 166
f 166 210 167
f 167 210 211
f 167 211 168
f 168 211 212
f 168 212 213
f 168 213 169
f 169 213 215
f 169 215 170
f 170 214 171
f 170 215 216
f 170 216 214
f 171 214 217
f 171 217 218
f 171 218 219
f 171 219 220
f 171 220 172
f 172 220 221
f 172 221 222
f 172 222 223
f 172 223 173
f 174 223 224
f 174 224 175
f 175 224 225
f 175 225 176
f 176 225 226
f 176 226 227
f 176 227 228
f 176 228 229
f 176 229 177
f 177 230 178
f 177 229 230
f 178 231 179
f 178 230 231
f 179 232 233
f 179 233 180
f 179 231 234
f 179 234 232
f 180 233 181
f 181 235 236
f 181 236 182
f 181 233 235
f 182 236 237
f 182 237 183
f 183 237 184
f 184 237 302
f 184 302 241
f 184 241 238
f 184 238 185
f 185 239 240
f 185 240 186
f 185 238 241
f 185 241 242
f 185 242 239
f 186 240 243
f 186 243 244
f 186 244 245
f 186 245 187
f 187 245 315
f 187 315 246
f 187 246 247
f 187 247 188
f 188 247 189
f 189 248 190
f 189 247 249
f 189 249 317
f 189 317 250
f 189 250 316
f 189 316 248
f 190 248 251
f 190 251 191
f 191 251 193
f 192 194 252
f 192 252 253
f 192 253 254
f 192 254 255
f 192 255 256
f 192 256 257
f 192 257 258
f 192 258 259
f 192 259 196
f 193 260 252
f 193 252 194
f 193 251 261
f 193 261 262
f 193 262 263
f 193 263 260
f 199 203 264
f 199 264 200
f 200 264 201
f 201 265 202
f 201 264 265
f 202 265 266
f 202 266 267
f 202 267 204
f 204 267 205
f 205 267 268
f 205 268 208
f 206 207 269
f 206 269 270
f 206 270 209
f 208 268 271
f 208 271 272
f 208 272 269
f 209 270 273
f 209 273 274
f 209 274 210
f 210 274 211
f 211 274 275
f 211 275 276
f 211 276 212
f 212 276 213
f 213 276 277
f 213 277 278
f 213 278 215
f 214 216 217
f 215 278 216
f 216 278 340
f 216 340 279
f 216 279 342
f 216 342 280
f 216 280 281
f 216 281 217
f 217 282 218
f 217 281 280
f 217 280 282
f 218 283 284
f 218 284 219
f 218 282 343
f 218 343 283
f 219 284 285
f 219 285 286
f 219 286 220
f 220 286 221
f 221 286 222
f 222 286 287
f 222 287 223
f 223 287 225
f 223 225 224
f 225 287 288
f 225 288 289
f 225 289 291
f 225 291 290
f 225 290 227
f 225 227 226
f 227 290 228
f 228 290 291
f 228 291 292
f 228 292 229
f 229 292 345
f 229 345 293
f 229 293 294
f 229 294 230
f 230 294 295
f 230 295 239
f 230 239 296
f 230 296 297
f 230 297 299
f 230 299 298
f 230 298 231
f 231 298 299
f 231 299 297
f 231 297 234
f 232 234 233
f 233 234 300
f 233 300 301
f 233 301 236
f 233 236 235
f 234 297 300
f 236 301 237
f 237 301 302
f 239 242 303
f 239 303 297
f 239 297 296
f 239 295 304
f 239 304 305
f 239 305 240
f 240 305 306
f 240 306 243
f 241 302 301
f 241 301 307
f 241 307 308
f 241 308 300
f 241 300 242
f 242 300 303
f 243 306 309
f 243 309 310
f 243 310 311
f 243 311 312
f 243 312 313
f 243 313 244
f 244 313 245
f 245 313 314
f 245 314 360
f 245 360 315
f 246 315 249
f 246 249 247
f 248 261 251
f 248 316 261
f 249 315 317
f 250 317 362
f 250 362 318
f 250 318 363
f 250 363 319
f 250 319 316
f 252 260 253
f 253 320 254
f 253 260 263
f 253 263 321
f 253 321 320
f 254 320 255
f 255 320 323
f 255 323 322
f 261 316 319
f 261 319 324
f 261 324 262
f 262 324 325
f 262 325 326
f 262 326 263
f 263 326 321
f 264 327 328
f 264 328 265
f 265 328 266
f 266 328 267
f 267 328 329
f 267 329 330
f 267 330 331
f 267 331 268
f 268 331 332
f 268 332 333
f 268 333 271
f 269 272 270
f 270 272 334
f 270 334 273
f 271 333 335
f 271 335 272
f 272 335 334
f 273 334 336
f 273 336 337
f 273 337 274
f 274 337 275
f 275 337 276
f 276 337 338
f 276 338 339
f 276 339 277
f 277 339 278
f 278 339 340
f 279 340 392
f 279 392 341
f 279 341 393
f 279 393 342
f 280 342 343
f 280 343 282
f 283 344 284
f 283 343 344
f 284 291 288
f 284 288 287
f 284 287 285
f 284 344 291
f 285 287 286
f 288 291 289
f 291 344 292
f 292 344 343
f 292 343 395
f 292 395 345
f 293 345 346
f 293 346 347
f 293 347 349
f 293 349 294
f 294 348 295
f 294 349 348
f 295 350 304
f 295 348 407
f 295 407 350
f 297 303 300
f 300 307 301
f 300 308 307
f 304 350 351
f 304 351 352
f 304 352 309
f 304 309 306
f 304 306 305
f 309 352 353
f 309 353 310
f 310 353 354
f 310 354 355
f 310 355 311
f 311 356 357
f 311 357 312
f 311 355 358
f 311 358 359
f 311 359 356
f 312 357 360
f 312 360 313
f 313 360 361
f 313 361 314
f 314 361 360
f 315 360 362
f 315 362 317
f 318 362 423
f 318 423 357
f 318 357 363
f 319 363 324
f 320 321 364
f 320 364 323
f 321 326 364
f 322 323 365
f 323 364 366
f 323 366 367
f 323 367 368
f 323 368 365
f 324 363 369
f 324 369 366
f 324 366 325
f 325 366 326
f 326 366 370
f 326 370 364
f 327 371 328
f 328 371 372
f 328 372 373
f 328 373 374
f 328 374 329
f 329 375 330
f 329 374 376
f 329 376 377
f 329 377 378
f 329 378 379
f 329 379 375
f 330 380 331
f 330 375 381
f 330 381 382
f 330 382 383
f 330 383 384
f 330 384 380
f 331 380 332
f 332 385 333
f 332 380 386
f 332 386 385
f 333 385 336
f 333 336 335
f 334 335 336
f 336 385 337
f 337 385 338
f 338 385 387
f 338 387 388
f 338 388 339
f 339 388 389
f 339 389 390
f 339 390 391
f 339 391 392
f 339 392 340
f 341 392 394
f 341 394 393
f 342 393 395
f 342 395 343
f 345 396 397
f 345 397 346
f 345 395 396
f 346 397 398
f 346 398 347
f 347 399 400
f 347 400 401
f 347 401 349
f 347 398 402
f 347 402 403
f 347 403 399
f 348 404 405
f 348 405 406
f 348 406 407
f 348 349 408
f 348 408 404
f 349 401 408
f 350 409 410
f 350 410 411
f 350 411 351
f 350 407 412
f 350 412 413
f 350 413 414
f 350 414 409
f 351 411 352
f 352 411 415
f 352 415 353
f 353 415 354
f 354 415 416
f 354 416 355
f 355 416 473
f 355 473 417
f 355 417 424
f 355 424 358
f 356 418 363
f 356 363 357
f 356 359 419
f 356 419 420
f 356 420 421
f 356 421 422
f 356 422 418
f 357 423 360
f 358 419 359
f 358 424 482
f 358 482 419
f 360 423 362
f 363 418 480
f 363 480 425
f 363 425 369
f 364 370 426
f 364 426 366
f 366 369 425
f 366 425 480
f 366 480 427
f 366 427 367
f 366 426 370
f 367 427 428
f 367 428 429
f 367 429 430
f 367 430 431
f 367 431 432
f 367 432 368
f 368 432 431
f 375 379 433
f 375 433 381
f 380 434 386
f 380 384 435
f 380 435 436
f 380 436 437
f 380 437 434
f 381 433 382
f 382 438 383
f 382 433 439
f 382 439 440
f 382 440 441
f 382 441 438
f 383 438 442
f 383 442 384
f 384 442 443
f 384 443 444
f 384 444 445
f 384 445 436
f 384 436 435
f 385 386 446
f 385 446 387
f 386 434 446
f 387 446 447
f 387 447 388
f 388 448 389
f 388 447 505
f 388 505 449
f 388 449 448
f 389 448 390
f 390 448 450
f 390 450 451
f 390 451 452
f 390 452 391
f 391 452 394
f 391 394 392
f 393 394 395
f 394 452 508
f 394 508 453
f 394 453 396
f 394 396 395
f 396 453 454
f 396 454 455
f 396 455 397
f 397 455 456
f 397 456 457
f 397 457 398
f 398 457 402
f 399 458 400
f 399 403 458
f 400 459 401
f 400 458 460
f 400 460 517
f 400 517 461
f 400 461 459
f 401 462 463
f 401 463 464
f 401 464 465
f 401 465 466
f 401 466 408
f 401 459 462
f 402 457 403
f 403 457 456
f 403 456 467
f 403 467 458
f 404 468 469
f 404 469 405
f 404 408 468
f 405 469 406
f 406 469 470
f 406 470 535
f 406 535 474
f 406 474 471
f 406 471 407
f 407 471 474
f 407 474 412
f 408 466 469
f 408 469 468
f 409 472 410
f 409 414 476
f 409 476 472
f 410 472 473
f 410 473 416
f 410 416 415
f 410 415 411
f 412 474 475
f 412 475 413
f 413 475 477
f 413 477 414
f 414 477 476
f 417 473 472
f 417 472 478
f 417 478 485
f 417 485 424
f 418 422 479
f 418 479 480
f 419 481 420
f 419 482 537
f 419 537 481
f 420 483 421
f 420 481 483
f 421 484 422
f 421 483 484
f 422 484 479
f 424 485 486
f 424 486 482
f 427 480 479
f 427 479 484
f 427 484 487
f 427 487 488
f 427 488 489
f 427 489 490
f 427 490 491
f 427 491 428
f 428 491 492
f 428 492 429
f 434 437 493
f 434 493 446
f 436 445 437
f 437 445 494
f 437 494 495
f 437 495 493
f 438 496 443
f 438 443 442
f 438 441 496
f 441 497 496
f 443 498 499
f 443 499 500
f 443 500 445
f 443 445 501
f 443 501 444
f 443 496 502
f 443 502 503
f 443 503 498
f 444 501 445
f 445 500 494
f 446 504 505
f 446 505 447
f 446 493 504
f 448 449 450
f 449 506 450
f 449 505 565
f 449 565 506
f 450 506 507
f 450 507 452
f 450 452 451
f 452 507 508
f 453 508 509
f 453 509 510
f 453 510 454
f 454 510 511
f 454 511 455
f 455 511 467
f 455 467 456
f 458 512 460
f 458 467 512
f 459 513 519
f 459 519 462
f 459 461 514
f 459 514 515
f 459 515 578
f 459 578 516
f 459 516 513
f 460 512 518
f 460 518 517
f 461 517 514
f 462 519 520
f 462 520 463
f 463 520 464
f 464 520 519
f 464 519 521
f 464 521 522
f 464 522 523
f 464 523 524
f 464 524 525
f 464 525 485
f 464 485 478
f 464 478 472
f 464 472 526
f 464 526 527
f 464 527 528
f 464 528 529
f 464 529 465
f 465 529 530
f 465 530 531
f 465 531 466
f 466 531 469
f 467 511 510
f 467 510 532
f 467 532 533
f 467 533 512
f 469 531 590
f 469 590 534
f 469 534 470
f 470 534 535
f 472 476 526
f 474 535 536
f 474 536 475
f 475 536 477
f 476 477 527
f 476 527 526
f 477 536 534
f 477 534 528
f 477 528 527
f 481 537 539
f 481 539 483
f 482 486 537
f 483 538 484
f 483 539 538
f 484 538 487
f 485 525 486
f 486 525 540
f 486 540 537
f 487 541 488
f 487 538 542
f 487 542 543
f 487 543 544
f 487 544 541
f 488 545 546
f 488 546 490
f 488 490 489
f 488 541 545
f 490 546 545
f 490 545 547
f 490 547 548
f 490 548 491
f 491 548 549
f 491 549 492
f 493 495 554
f 493 554 504
f 494 550 551
f 494 551 495
f 494 500 499
f 494 499 552
f 494 552 553
f 494 553 550
f 495 551 554
f 496 497 555
f 496 555 502
f 498 503 499
f 499 556 557
f 499 557 558
f 499 558 559
f 499 559 552
f 499 503 560
f 499 560 561
f 499 561 562
f 499 562 563
f 499 563 564
f 499 564 556
f 504 554 565
f 504 565 505
f 506 565 566
f 506 566 567
f 506 567 507
f 507 567 568
f 507 568 569
f 507 569 508
f 508 569 570
f 508 570 571
f 508 571 572
f 508 572 509
f 509 572 573
f 509 573 510
f 510 573 532
f 512 533 518
f 513 574 575
f 513 575 576
f 513 576 519
f 513 516 579
f 513 579 574
f 514 517 577
f 514 577 515
f 515 577 578
f 516 578 579
f 517 518 577
f 518 533 532
f 518 532 573
f 518 573 577
f 519 580 581
f 519 581 521
f 519 576 575
f 519 575 574
f 519 574 582
f 519 582 580
f 521 581 522
f 522 583 584
f 522 584 523
f 522 581 585
f 522 585 583
f 523 584 586
f 523 586 524
f 524 586 587
f 524 587 588
f 524 588 589
f 524 589 540
f 524 540 525
f 528 534 590
f 528 590 591
f 528 591 529
f 529 591 530
f 530 591 531
f 531 591 590
f 534 536 535
f 537 540 592
f 537 592 593
f 537 593 539
f 538 539 542
f 539 593 542
f 540 589 592
f 541 544 594
f 541 594 600
f 541 600 595
f 541 595 545
f 542 593 543
f 543 592 596
f 543 596 544
f 543 593 592
f 544 596 597
f 544 597 598
f 544 598 599
f 544 599 600
f 544 600 594
f 545 601 547
f 545 595 601
f 547 601 548
f 548 601 602
f 548 602 603
f 548 603 549
f 550 604 605
f 550 605 551
f 550 553 604
f 551 606 554
f 551 605 606
f 552 559 553
f 553 607 604
f 553 559 558
f 553 558 608
f 553 608 609
f 553 609 607
f 554 606 567
f 554 567 566
f 554 566 565
f 556 610 611
f 556 611 557
f 556 564 614
f 556 614 610
f 557 611 612
f 557 612 558
f 558 612 644
f 558 644 613
f 558 613 608
f 567 606 605
f 567 605 615
f 567 615 568
f 568 616 569
f 568 615 617
f 568 617 616
f 569 618 570
f 569 616 617
f 569 617 619
f 569 619 618
f 570 618 571
f 571 618 579
f 571 579 578
f 571 578 572
f 572 578 577
f 572 577 573
f 574 579 618
f 574 618 582
f 580 620 621
f 580 621 581
f 580 582 622
f 580 622 620
f 581 621 585
f 582 623 622
f 582 618 619
f 582 619 623
f 583 585 621
f 583 621 624
f 583 624 584
f 584 624 626
f 584 626 586
f 586 625 587
f 586 626 653
f 586 653 625
f 587 627 628
f 587 628 588
f 587 625 627
f 588 628 589
f 589 597 592
f 589 628 597
f 592 597 596
f 595 600 632
f 595 632 601
f 597 628 598
f 598 628 627
f 598 627 629
f 598 629 630
f 598 630 631
f 598 631 599
f 599 631 600
f 600 631 632
f 601 632 633
f 601 633 602
f 602 633 634
f 602 634 603
f 604 635 605
f 604 607 636
f 604 636 637
f 604 637 635
f 605 635 615
f 607 609 638
f 607 638 639
f 607 639 636
f 608 613 609
f 609 613 644
f 609 644 640
f 609 640 638
f 610 614 641
f 610 641 611
f 611 641 642
f 611 642 643
f 611 643 612
f 612 643 644
f 614 645 641
f 615 637 636
f 615 636 646
f 615 646 617
f 615 635 637
f 617 646 647
f 617 647 648
f 617 648 623
f 617 623 619
f 620 649 650
f 620 650 651
f 620 651 621
f 620 622 652
f 620 652 668
f 620 668 649
f 621 651 624
f 622 623 648
f 622 648 652
f 624 651 654
f 624 654 626
f 625 653 627
f 626 654 678
f 626 678 653
f 627 655 656
f 627 656 629
f 627 653 655
f 629 657 630
f 629 656 682
f 629 682 657
f 630 657 631
f 631 658 632
f 631 657 659
f 631 659 660
f 631 660 661
f 631 661 662
f 631 662 663
f 631 663 664
f 631 664 665
f 631 665 658
f 632 658 633
f 633 658 634
f 634 658 665
f 636 639 646
f 638 640 666
f 638 666 639
f 639 666 668
f 639 668 667
f 639 667 647
f 639 647 646
f 640 644 668
f 640 668 666
f 641 645 669
f 641 669 670
f 641 670 671
f 641 671 672
f 641 672 673
f 641 673 642
f 642 673 644
f 642 644 643
f 644 673 668
f 647 667 674
f 647 674 652
f 647 652 648
f 649 668 673
f 649 673 672
f 649 672 675
f 649 675 676
f 649 676 650
f 650 676 677
f 650 677 654
f 650 654 651
f 652 674 668
f 653 678 679
f 653 679 655
f 654 677 678
f 655 679 656
f 656 679 690
f 656 690 680
f 656 680 681
f 656 681 682
f 657 660 659
f 657 682 691
f 657 691 683
f 657 683 660
f 660 683 661
f 661 683 691
f 661 691 684
f 661 684 685
f 661 685 686
f 661 686 662
f 667 668 674
f 670 687 688
f 670 688 671
f 671 688 672
f 672 688 675
f 675 688 689
f 675 689 681
f 675 681 676
f 676 681 680
f 676 680 690
f 676 690 677
f 677 690 679
f 677 679 678
f 681 689 691
f 681 691 682
f 684 691 692
f 684 692 693
f 684 693 685
f 687 693 692
f 687 692 688
f 688 692 689
f 689 692 691

