# https://github.com/mikedh/trimesh
v 0.04571324 -0.02338060 0.15790598
v 0.04574910 -0.02338060 0.15789699
v 0.05502466 -0.01449429 0.15799140
v 0.05463128 -0.01449429 0.15800037
v 0.04794275 -0.01672420 0.15804533
v 0.04571324 -0.02118279 0.15787002
v 0.04400668 -0.02338060 0.15716884
v 0.04808622 -0.02338060 0.15721828
v 0.05502466 -0.01223968 0.15746100
v 0.05463128 -0.01226561 0.15750595
v 0.05502466 -0.01611178 0.15719131
v 0.05240177 -0.01449429 0.15801835
v 0.05017226 -0.01449429 0.15790150
v 0.04794275 -0.01449429 0.15756439
v 0.04563456 -0.01692176 0.15714637
v 0.04571324 -0.01895288 0.15757335
v 0.04403446 -0.02118279 0.15711490
v 0.04398123 -0.02338060 0.15715535
v 0.04904073 -0.02338060 0.15541584
v 0.05502466 -0.01194211 0.15729469
v 0.05502466 -0.01103089 0.15670137
v 0.05463128 -0.01103212 0.15670137
v 0.05256144 -0.01217301 0.15717333
v 0.05017226 -0.01278049 0.15713737
v 0.05502466 -0.01666864 0.15541584
v 0.04794275 -0.01314968 0.15681823
v 0.04677882 -0.01334600 0.15658450
v 0.04641437 -0.01449429 0.15692162
v 0.04458402 -0.01779594 0.15655304
v 0.04439890 -0.01895288 0.15677779
v 0.04339232 -0.02118279 0.15541584
v 0.04328473 -0.02338060 0.15541584
v 0.04397197 -0.02338060 0.15713288
v 0.04912403 -0.02338060 0.15318640
v 0.05502466 -0.01085926 0.15541584
v 0.05463128 -0.01084074 0.15541584
v 0.05341066 -0.01111608 0.15658450
v 0.05502466 -0.01675260 0.15318640
v 0.04794275 -0.01284223 0.15541584
v 0.04670478 -0.01329414 0.15541584
v 0.04591224 -0.01449429 0.15541584
v 0.04491955 -0.01655998 0.15541584
v 0.04454353 -0.01767371 0.15541584
v 0.04331249 -0.02118279 0.15318640
v 0.04328357 -0.02338060 0.15538438
v 0.04932766 -0.02338060 0.14652052
v 0.05502466 -0.01079259 0.15318640
v 0.05463128 -0.01076665 0.15318640
v 0.05325563 -0.01106423 0.15541584
v 0.05502466 -0.01681310 0.15095695
v 0.04950931 -0.02338060 0.13980520
v 0.04956831 -0.02338060 0.13757574
v 0.04986103 -0.02338060 0.12646446
v 0.04991888 -0.02338060 0.12423502
v 0.04997557 -0.02338060 0.12200558
v 0.05003227 -0.02338060 0.11974017
v 0.05008549 -0.02338060 0.11754668
v 0.04794275 -0.01276568 0.15318640
v 0.04665618 -0.01325833 0.15318640
v 0.04582431 -0.01449429 0.15318640
v 0.04488136 -0.01645874 0.15318640
v 0.04404949 -0.01895288 0.15318640
v 0.04320489 -0.02338060 0.15318640
v 0.04331249 -0.02118279 0.13312135
v 0.05502466 -0.01079259 0.13312135
v 0.05315266 -0.01102842 0.15318640
v 0.05463128 -0.01076665 0.13312135
v 0.05021044 -0.02338060 0.11214385
v 0.05502466 -0.01739219 0.12908497
v 0.04794275 -0.01276568 0.13312135
v 0.04665618 -0.01325833 0.13312135
v 0.04582431 -0.01449429 0.13312135
v 0.04488136 -0.01645874 0.13312135
v 0.04404949 -0.01895288 0.13312135
v 0.04320489 -0.02338060 0.13312135
v 0.04453890 -0.01766136 0.13188527
v 0.04449725 -0.02198413 0.11212587
v 0.05502466 -0.01226067 0.11212587
v 0.05463128 -0.01221993 0.11212587
v 0.05315266 -0.01102842 0.13312135
v 0.05327414 -0.01106916 0.13184030
v 0.05021044 -0.02338060 0.11212587
v 0.05502466 -0.01774408 0.11212587
v 0.05502466 -0.01768729 0.11742082
v 0.05502466 -0.01767864 0.11814448
v 0.05502466 -0.01745022 0.12687350
v 0.04975922 -0.01361393 0.11212587
v 0.04671287 -0.01329908 0.13184030
v 0.04672329 -0.01544873 0.11212587
v 0.04624661 -0.01672420 0.11212587
v 0.04449725 -0.02274348 0.11212587
v 0.04464534 -0.02338060 0.11212587
v 0.04512896 -0.02007648 0.11212587
v 0.04486517 -0.02086917 0.11212587
v 0.05240177 -0.01273357 0.11212587
v 0.05087455 -0.01324228 0.11212587
v 0.04794275 -0.01456837 0.11212587
v 0.04722889 -0.01508325 0.11212587
f 1 2 3
f 1 3 4
f 1 4 5
f 1 5 6
f 1 6 7
f 1 7 18
f 1 18 33
f 1 33 32
f 1 32 45
f 1 45 63
f 1 63 75
f 1 75 92
f 1 92 82
f 1 82 68
f 1 68 57
f 1 57 56
f 1 56 55
f 1 55 54
f 1 54 53
f 1 53 52
f 1 52 51
f 1 51 46
f 1 46 34
f 1 34 19
f 1 19 8
f 1 8 2
f 2 8 3
f 3 9 10
f 3 10 4
f 3 8 11
f 3 11 25
f 3 25 38
f 3 38 50
f 3 50 69
f 3 69 86
f 3 86 85
f 3 85 84
f 3 84 83
f 3 83 78
f 3 78 65
f 3 65 47
f 3 47 35
f 3 35 21
f 3 21 20
f 3 20 9
f 4 10 12
f 4 12 5
f 5 12 13
f 5 13 14
f 5 14 15
f 5 15 16
f 5 16 6
f 6 16 17
f 6 17 7
f 7 17 18
f 8 19 11
f 9 20 10
f 10 13 12
f 10 20 21
f 10 21 22
f 10 22 23
f 10 23 24
f 10 24 13
f 11 19 25
f 13 24 14
f 14 24 26
f 14 26 27
f 14 27 28
f 14 28 15
f 15 28 29
f 15 29 30
f 15 30 17
f 15 17 16
f 17 30 31
f 17 31 32
f 17 32 33
f 17 33 18
f 19 34 25
f 21 35 36
f 21 36 22
f 22 36 37
f 22 37 23
f 23 37 24
f 24 37 26
f 25 34 38
f 26 37 27
f 27 37 39
f 27 39 40
f 27 40 41
f 27 41 29
f 27 29 28
f 29 41 42
f 29 42 43
f 29 43 31
f 29 31 30
f 31 43 44
f 31 44 45
f 31 45 32
f 34 46 38
f 35 47 48
f 35 48 36
f 36 49 37
f 36 48 49
f 37 49 39
f 38 46 51
f 38 51 52
f 38 52 53
f 38 53 54
f 38 54 55
f 38 55 56
f 38 56 57
f 38 57 50
f 39 49 58
f 39 58 40
f 40 58 59
f 40 59 60
f 40 60 41
f 41 60 42
f 42 60 61
f 42 61 43
f 43 61 62
f 43 62 44
f 44 63 45
f 44 62 74
f 44 74 64
f 44 64 75
f 44 75 63
f 47 65 67
f 47 67 48
f 48 66 49
f 48 67 80
f 48 80 66
f 49 66 58
f 50 57 68
f 50 68 69
f 58 66 80
f 58 80 70
f 58 70 71
f 58 71 59
f 59 71 72
f 59 72 60
f 60 72 73
f 60 73 61
f 61 73 74
f 61 74 62
f 64 74 76
f 64 76 77
f 64 77 75
f 65 78 79
f 65 79 67
f 67 79 81
f 67 81 80
f 68 82 83
f 68 83 84
f 68 84 85
f 68 85 86
f 68 86 69
f 70 80 81
f 70 81 87
f 70 87 88
f 70 88 71
f 71 88 72
f 72 88 89
f 72 89 73
f 73 89 90
f 73 90 76
f 73 76 74
f 75 77 91
f 75 91 92
f 76 90 93
f 76 93 94
f 76 94 77
f 77 94 93
f 77 93 90
f 77 90 89
f 77 89 98
f 77 98 97
f 77 97 87
f 77 87 96
f 77 96 95
f 77 95 79
f 77 79 78
f 77 78 83
f 77 83 82
f 77 82 92
f 77 92 91
f 79 95 81
f 81 95 96
f 81 96 87
f 87 97 88
f 88 97 98
f 88 98 89

