# https://github.com/mikedh/trimesh
v 0.06031437 0.02787246 0.02528324
v 0.06029150 0.02603208 0.02521878
v 0.06031437 0.02787246 0.02421744
v 0.06027320 0.03010053 0.02516099
v 0.06020916 0.03352144 0.02497650
v 0.05987865 0.03010053 0.02627569
v 0.05991295 0.02787246 0.02639794
v 0.05955156 0.00454805 0.02608342
v 0.06029150 0.02603208 0.02441305
v 0.05966936 0.00454805 0.02505652
v 0.05980088 0.00454805 0.02385403
v 0.06015083 0.02787246 0.02310386
v 0.06013596 0.03010053 0.02331168
v 0.06012338 0.03233286 0.02362175
v 0.06003875 0.03678900 0.02385403
v 0.06027320 0.03010053 0.02442527
v 0.05983518 0.03438200 0.02586560
v 0.05982146 0.03233286 0.02615455
v 0.06020916 0.03352144 0.02493539
v 0.05988552 0.03902132 0.02385403
v 0.05943491 0.03902132 0.02608342
v 0.05963848 0.03678900 0.02608342
v 0.05858291 0.03678900 0.02774603
v 0.05864581 0.03456092 0.02782049
v 0.05870642 0.03233286 0.02789495
v 0.05876360 0.03010053 0.02796941
v 0.05879791 0.02787246 0.02802498
v 0.05856118 0.00454805 0.02775825
v 0.05901749 0.00454805 0.02698695
v 0.05964992 0.00454805 0.02282824
v 0.05956072 0.02787246 0.02162463
v 0.05947723 0.03678900 0.02162463
v 0.05910440 0.00454805 0.02069219
v 0.05939946 0.03902132 0.02162463
v 0.06023088 0.03233286 0.02473534
v 0.05919018 0.04124939 0.02162463
v 0.05889398 0.04348172 0.02162463
v 0.05857948 0.04570979 0.02162463
v 0.05956643 0.04124939 0.02385403
v 0.05904838 0.04124939 0.02608342
v 0.05809687 0.04289807 0.02730926
v 0.05827871 0.04124939 0.02746930
v 0.05847541 0.03902132 0.02764156
v 0.05713736 0.02787246 0.02913968
v 0.05686174 0.00454805 0.02866624
v 0.05865724 0.00454805 0.01993980
v 0.05845025 0.03902132 0.02009317
v 0.05836905 0.04124939 0.02011318
v 0.05822953 0.04348172 0.02020542
v 0.05807742 0.04570979 0.02036990
v 0.05799280 0.04694097 0.02048326
v 0.05791045 0.04806992 0.02068997
v 0.05809229 0.04806992 0.02120343
v 0.05825469 0.04778876 0.02155017
v 0.05823753 0.04806992 0.02165575
v 0.05917760 0.04348172 0.02385403
v 0.05878190 0.04570979 0.02385403
v 0.05831987 0.04806992 0.02400406
v 0.05810144 0.04741386 0.02525435
v 0.05847884 0.04357545 0.02624679
v 0.05785784 0.04438488 0.02709810
v 0.05599830 0.04743090 0.02730037
v 0.05701384 0.04357545 0.02761711
v 0.05686174 0.04124939 0.02810055
v 0.05686174 0.03902132 0.02843174
v 0.05686174 0.03678900 0.02863956
v 0.05596857 0.02564440 0.02949976
v 0.05686174 0.03233286 0.02894407
v 0.05670278 0.03017296 0.02914190
v 0.05602231 0.02787246 0.02951643
v 0.05463166 0.00454805 0.02888184
v 0.05686174 0.00454805 0.01900293
v 0.05686174 0.04124939 0.01933189
v 0.05686174 0.04348172 0.01939079
v 0.05491185 0.04806992 0.01850837
v 0.05682858 0.04806992 0.01963084
v 0.05697039 0.04806992 0.01976198
v 0.05711906 0.04806992 0.02608897
v 0.05699326 0.04806992 0.02623679
v 0.05684116 0.04806992 0.02635904
v 0.05483408 0.04806992 0.02754820
v 0.05481121 0.04806992 0.02755487
v 0.05463166 0.04570979 0.02792384
v 0.05463166 0.04348172 0.02821724
v 0.05463166 0.04124939 0.02850842
v 0.05463166 0.03902132 0.02875626
v 0.05585306 0.02947855 0.02946197
v 0.05478147 0.02575090 0.02949643
v 0.05532355 0.02947855 0.02946197
v 0.05460078 0.02783413 0.02950976
v 0.05240271 0.00454805 0.02824947
v 0.05346058 0.02656033 0.02944641
v 0.05619043 0.00454805 0.01891735
v 0.05369388 0.04806992 0.01816384
v 0.05379795 0.04806992 0.01818607
v 0.05479863 0.04806992 0.02755487
v 0.05220258 0.04806992 0.02753042
v 0.05240271 0.04570979 0.02781493
v 0.05463166 0.03678900 0.02892962
v 0.05240271 0.04348172 0.02802053
v 0.05240271 0.04124939 0.02822280
v 0.05460078 0.03017296 0.02935973
v 0.05383797 0.02854983 0.02940307
v 0.05346058 0.02706303 0.02944641
v 0.05106238 0.00454805 0.02747485
v 0.05259141 0.02783413 0.02905855
v 0.05463166 0.00454805 0.01877953
v 0.05264173 0.04806992 0.01819163
v 0.05123964 0.04806992 0.02722924
v 0.05240271 0.03902132 0.02839506
v 0.05118360 0.04746072 0.02725703
v 0.05240271 0.03678900 0.02852287
v 0.05044710 0.00454805 0.02608342
v 0.05073530 0.02787246 0.02787050
v 0.04979981 0.02787246 0.02608342
v 0.05240271 0.03010053 0.02886073
v 0.05083708 0.03902132 0.02762711
v 0.05080735 0.03678900 0.02768379
v 0.05078447 0.03456092 0.02772935
v 0.05231809 0.00454805 0.01944080
v 0.05167079 0.04806992 0.01841612
v 0.05042423 0.04806992 0.02634571
v 0.05106581 0.04570979 0.02733816
v 0.05095716 0.04348172 0.02744151
v 0.05088397 0.04124939 0.02754376
v 0.05039450 0.04806992 0.02631348
v 0.05019093 0.00454805 0.02385403
v 0.04871335 0.04806992 0.02354285
v 0.04868591 0.04806992 0.02340948
v 0.04911706 0.04806992 0.02467310
v 0.05126366 0.00454805 0.02056661
v 0.04902900 0.04806992 0.02053550
v 0.05021266 0.04806992 0.01933634
v 0.05067926 0.00454805 0.02149794
v 0.04863216 0.04806992 0.02173466
v 0.04865388 0.04806992 0.02161907
f 1 2 9
f 1 9 3
f 1 3 16
f 1 16 4
f 1 4 5
f 1 5 6
f 1 6 7
f 1 7 8
f 1 8 2
f 2 8 10
f 2 10 11
f 2 11 9
f 3 12 13
f 3 13 14
f 3 14 15
f 3 15 16
f 3 9 11
f 3 11 12
f 4 16 19
f 4 19 5
f 5 17 18
f 5 18 6
f 5 19 15
f 5 15 20
f 5 20 21
f 5 21 22
f 5 22 17
f 6 18 22
f 6 22 23
f 6 23 7
f 7 23 24
f 7 24 25
f 7 25 26
f 7 26 27
f 7 27 28
f 7 28 29
f 7 29 8
f 8 29 28
f 8 28 45
f 8 45 71
f 8 71 91
f 8 91 105
f 8 105 113
f 8 113 127
f 8 127 134
f 8 134 131
f 8 131 120
f 8 120 107
f 8 107 93
f 8 93 72
f 8 72 46
f 8 46 33
f 8 33 30
f 8 30 11
f 8 11 10
f 11 30 12
f 12 31 32
f 12 32 13
f 12 30 33
f 12 33 31
f 13 32 34
f 13 34 15
f 13 15 14
f 15 34 20
f 15 19 35
f 15 35 16
f 16 35 19
f 17 22 18
f 20 34 36
f 20 36 37
f 20 37 38
f 20 38 39
f 20 39 21
f 21 39 40
f 21 40 41
f 21 41 42
f 21 42 43
f 21 43 22
f 22 43 23
f 23 43 44
f 23 44 24
f 24 44 25
f 25 44 26
f 26 44 27
f 27 44 28
f 28 44 45
f 31 33 46
f 31 46 47
f 31 47 32
f 32 47 34
f 34 47 48
f 34 48 49
f 34 49 36
f 36 49 50
f 36 50 51
f 36 51 37
f 37 51 52
f 37 52 38
f 38 52 53
f 38 53 54
f 38 54 55
f 38 55 39
f 39 55 56
f 39 56 40
f 40 56 57
f 40 57 58
f 40 58 59
f 40 59 60
f 40 60 41
f 41 60 59
f 41 59 61
f 41 61 62
f 41 62 63
f 41 63 64
f 41 64 65
f 41 65 42
f 42 65 43
f 43 65 66
f 43 66 44
f 44 67 45
f 44 66 68
f 44 68 69
f 44 69 70
f 44 70 67
f 45 67 71
f 46 72 47
f 47 73 74
f 47 74 48
f 47 72 73
f 48 74 75
f 48 75 76
f 48 76 49
f 49 76 50
f 50 76 51
f 51 76 77
f 51 77 52
f 52 77 76
f 52 76 75
f 52 75 95
f 52 95 94
f 52 94 108
f 52 108 121
f 52 121 133
f 52 133 132
f 52 132 136
f 52 136 135
f 52 135 129
f 52 129 128
f 52 128 130
f 52 130 126
f 52 126 122
f 52 122 109
f 52 109 97
f 52 97 96
f 52 96 82
f 52 82 81
f 52 81 80
f 52 80 79
f 52 79 78
f 52 78 58
f 52 58 55
f 52 55 53
f 53 55 54
f 55 58 57
f 55 57 56
f 58 78 59
f 59 78 61
f 61 78 79
f 61 79 80
f 61 80 62
f 62 80 81
f 62 81 64
f 62 64 63
f 64 81 82
f 64 82 65
f 65 82 83
f 65 83 84
f 65 84 85
f 65 85 86
f 65 86 66
f 66 86 87
f 66 87 68
f 67 88 71
f 67 70 88
f 68 87 69
f 69 87 70
f 70 87 89
f 70 89 90
f 70 90 88
f 71 88 92
f 71 92 91
f 72 93 94
f 72 94 95
f 72 95 75
f 72 75 73
f 73 75 74
f 82 96 83
f 83 96 97
f 83 97 84
f 84 97 85
f 85 97 98
f 85 98 86
f 86 99 87
f 86 98 100
f 86 100 101
f 86 101 99
f 87 99 89
f 88 90 92
f 89 102 103
f 89 103 90
f 89 99 102
f 90 104 92
f 90 103 104
f 91 92 106
f 91 106 105
f 92 104 106
f 93 107 94
f 94 107 108
f 97 109 98
f 98 109 100
f 99 101 110
f 99 110 103
f 99 103 102
f 100 109 101
f 101 109 111
f 101 111 110
f 103 110 104
f 104 110 112
f 104 112 106
f 105 106 114
f 105 114 115
f 105 115 113
f 106 112 116
f 106 116 117
f 106 117 118
f 106 118 119
f 106 119 114
f 107 120 121
f 107 121 108
f 109 122 111
f 110 111 123
f 110 123 124
f 110 124 125
f 110 125 112
f 111 122 126
f 111 126 123
f 112 125 116
f 113 115 128
f 113 128 129
f 113 129 127
f 114 119 130
f 114 130 115
f 115 130 128
f 116 125 117
f 117 125 130
f 117 130 118
f 118 130 119
f 120 131 132
f 120 132 133
f 120 133 121
f 123 126 124
f 124 126 130
f 124 130 125
f 127 129 135
f 127 135 136
f 127 136 134
f 131 134 132
f 132 134 136

