# https://github.com/mikedh/trimesh
v 0.05502466 -0.03444435 0.15318561
v 0.05686305 -0.03425367 0.15318561
v 0.05686305 -0.03417491 0.15541405
v 0.05502466 -0.03436282 0.15541405
v 0.05502466 -0.03444435 0.13312076
v 0.05862974 -0.03366505 0.15318561
v 0.05852512 -0.03362775 0.15541405
v 0.05686305 -0.03425367 0.13312076
v 0.05827358 -0.03354208 0.15666755
v 0.05686305 -0.03377145 0.15691463
v 0.05502466 -0.03429098 0.15567913
v 0.05502466 -0.03298940 0.11212587
v 0.05593915 -0.03289545 0.11212587
v 0.05686305 -0.03280011 0.11212587
v 0.05974405 -0.03329338 0.15318561
v 0.05862974 -0.03366505 0.13312076
v 0.06132149 -0.03276694 0.15318561
v 0.05964061 -0.03325468 0.15541405
v 0.06297886 -0.03155518 0.15690566
v 0.06132149 -0.03191166 0.15718870
v 0.06132149 -0.03268680 0.15541405
v 0.05502466 -0.03361116 0.15715725
v 0.05502466 -0.03386402 0.15701798
v 0.05686305 -0.03233309 0.15770539
v 0.05502466 -0.02748190 0.11212587
v 0.05816896 -0.03236486 0.11212587
v 0.05974405 -0.03329338 0.13534470
v 0.06015428 -0.03170303 0.11212587
v 0.06132149 -0.03276694 0.13312076
v 0.06335971 -0.03180666 0.15318561
v 0.06330445 -0.03176520 0.15541405
v 0.06441996 -0.03074826 0.15541405
v 0.06478199 -0.02934997 0.15669450
v 0.06365356 -0.03009610 0.15717523
v 0.06132149 -0.03010301 0.15797495
v 0.05502466 -0.03233309 0.15779524
v 0.05922921 -0.02032877 0.11212587
v 0.05502466 -0.02753855 0.11525736
v 0.06090774 -0.03145155 0.11212587
v 0.06202205 -0.03101908 0.11212587
v 0.06335971 -0.03180666 0.13312076
v 0.06447519 -0.03085189 0.15318561
v 0.06487719 -0.02963322 0.15541405
v 0.06502295 -0.02787292 0.15694610
v 0.06619957 -0.02564422 0.15541405
v 0.06694126 -0.02250635 0.15660014
v 0.06355131 -0.02787292 0.15772336
v 0.06355131 -0.02564422 0.15792103
v 0.06355131 -0.02341414 0.15801089
v 0.05909286 -0.03010301 0.15801988
v 0.05502466 -0.03194068 0.15780421
v 0.05924919 -0.02032877 0.11302444
v 0.06506291 -0.02032877 0.11212587
v 0.05502466 -0.02757585 0.11712637
v 0.05502466 -0.02768639 0.12157873
v 0.05502466 -0.02774304 0.12380716
v 0.05502466 -0.02808432 0.13718226
v 0.05502466 -0.02825566 0.14387204
v 0.05502466 -0.02838139 0.14872425
v 0.05502466 -0.02843942 0.15095717
v 0.05502466 -0.02849746 0.15318561
v 0.05502466 -0.02857207 0.15541405
v 0.06263916 -0.03036553 0.11212587
v 0.06447519 -0.03085189 0.13312076
v 0.06491598 -0.02973823 0.15318561
v 0.06553779 -0.02787292 0.15318561
v 0.06628066 -0.02564422 0.15318561
v 0.06539204 -0.02564422 0.15720217
v 0.06673438 -0.02386872 0.15541405
v 0.06677435 -0.02401242 0.15318561
v 0.06699769 -0.02275368 0.15541405
v 0.06694126 -0.02215538 0.15660014
v 0.06592333 -0.02331603 0.15720217
v 0.06355131 -0.02118405 0.15801988
v 0.06355131 -0.02032877 0.15797944
v 0.05502466 -0.03010301 0.15762900
v 0.06055628 -0.02032877 0.15318561
v 0.06652163 -0.02032877 0.13312076
v 0.06666504 -0.02076125 0.13312076
v 0.06703178 -0.02187629 0.13312076
v 0.06698710 -0.02201721 0.13181784
v 0.06534267 -0.02118405 0.11212587
v 0.05502466 -0.02874478 0.15657767
v 0.06064796 -0.02032877 0.15541405
v 0.06058919 -0.02032877 0.15400780
v 0.06307407 -0.02990404 0.11212587
v 0.06408377 -0.02787292 0.11212587
v 0.06491598 -0.02973823 0.13312076
v 0.06553779 -0.02787292 0.13312076
v 0.06628066 -0.02564422 0.13534470
v 0.06703178 -0.02289875 0.15318561
v 0.06677435 -0.02401242 0.13534470
v 0.06699769 -0.02197992 0.15541405
v 0.06662859 -0.02086488 0.15541405
v 0.06644759 -0.02032877 0.15541405
v 0.06625246 -0.02032877 0.15589928
v 0.06563182 -0.02032877 0.15717074
v 0.06588219 -0.02132084 0.15718870
v 0.06152249 -0.02032877 0.15728306
v 0.05502466 -0.02985568 0.15748972
v 0.06652163 -0.02032877 0.15318561
v 0.06666504 -0.02076125 0.15318561
v 0.06703178 -0.02289875 0.13312076
v 0.06703178 -0.02187629 0.15318561
v 0.06698710 -0.02269841 0.13181784
v 0.06545081 -0.02341414 0.11212587
v 0.05502466 -0.02880281 0.15684726
v 0.06096533 -0.02032877 0.15617781
v 0.06456100 -0.02644285 0.11212587
v 0.06493244 -0.02532781 0.11212587
v 0.06627949 -0.02564422 0.13312076
v 0.06677317 -0.02401242 0.13312076
v 0.06523570 -0.02420862 0.11212587
f 1 2 3
f 1 3 4
f 1 4 11
f 1 11 23
f 1 23 22
f 1 22 36
f 1 36 51
f 1 51 76
f 1 76 100
f 1 100 107
f 1 107 83
f 1 83 62
f 1 62 61
f 1 61 60
f 1 60 59
f 1 59 58
f 1 58 57
f 1 57 56
f 1 56 55
f 1 55 54
f 1 54 38
f 1 38 25
f 1 25 12
f 1 12 5
f 1 5 8
f 1 8 2
f 2 6 7
f 2 7 3
f 2 8 16
f 2 16 6
f 3 7 9
f 3 9 10
f 3 10 4
f 4 10 11
f 5 12 13
f 5 13 14
f 5 14 8
f 6 15 7
f 6 16 27
f 6 27 15
f 7 15 17
f 7 17 18
f 7 18 9
f 8 14 16
f 9 19 20
f 9 20 10
f 9 18 21
f 9 21 19
f 10 22 23
f 10 23 11
f 10 20 24
f 10 24 22
f 12 25 37
f 12 37 53
f 12 53 82
f 12 82 106
f 12 106 113
f 12 113 110
f 12 110 109
f 12 109 87
f 12 87 86
f 12 86 63
f 12 63 40
f 12 40 39
f 12 39 28
f 12 28 26
f 12 26 14
f 12 14 13
f 14 26 16
f 15 27 29
f 15 29 17
f 16 26 28
f 16 28 29
f 16 29 27
f 17 30 31
f 17 31 21
f 17 21 18
f 17 29 41
f 17 41 30
f 19 21 31
f 19 31 32
f 19 32 33
f 19 33 34
f 19 34 35
f 19 35 20
f 20 35 24
f 22 24 36
f 24 35 36
f 25 38 37
f 28 39 29
f 29 39 40
f 29 40 41
f 30 42 31
f 30 41 64
f 30 64 42
f 31 42 32
f 32 43 33
f 32 42 43
f 33 44 34
f 33 43 45
f 33 45 46
f 33 46 44
f 34 44 47
f 34 47 35
f 35 47 48
f 35 48 49
f 35 49 50
f 35 50 36
f 36 50 51
f 37 52 77
f 37 77 85
f 37 85 84
f 37 84 108
f 37 108 99
f 37 99 75
f 37 75 97
f 37 97 96
f 37 96 95
f 37 95 101
f 37 101 78
f 37 78 53
f 37 38 54
f 37 54 55
f 37 55 56
f 37 56 57
f 37 57 58
f 37 58 59
f 37 59 60
f 37 60 61
f 37 61 62
f 37 62 52
f 40 63 64
f 40 64 41
f 42 65 43
f 42 64 88
f 42 88 65
f 43 65 66
f 43 66 67
f 43 67 45
f 44 68 47
f 44 46 68
f 45 69 46
f 45 67 70
f 45 70 69
f 46 69 71
f 46 71 93
f 46 93 72
f 46 72 73
f 46 73 68
f 47 68 73
f 47 73 48
f 48 73 49
f 49 74 50
f 49 73 74
f 50 74 51
f 51 74 75
f 51 75 76
f 52 62 77
f 53 78 79
f 53 79 80
f 53 80 81
f 53 81 82
f 62 83 84
f 62 84 85
f 62 85 77
f 63 86 64
f 64 86 87
f 64 87 88
f 65 88 89
f 65 89 66
f 66 89 90
f 66 90 67
f 67 90 92
f 67 92 70
f 69 70 71
f 70 91 71
f 70 92 103
f 70 103 91
f 71 91 104
f 71 104 93
f 72 93 94
f 72 94 95
f 72 95 96
f 72 96 97
f 72 97 98
f 72 98 73
f 73 98 74
f 74 98 75
f 75 99 76
f 75 98 97
f 76 99 100
f 78 101 102
f 78 102 79
f 79 102 104
f 79 104 80
f 80 103 105
f 80 105 81
f 80 104 91
f 80 91 103
f 81 105 106
f 81 106 82
f 83 107 84
f 84 107 108
f 87 109 88
f 88 109 89
f 89 109 110
f 89 110 111
f 89 111 90
f 90 111 112
f 90 112 92
f 92 112 103
f 93 104 102
f 93 102 94
f 94 102 101
f 94 101 95
f 99 107 100
f 99 108 107
f 103 112 106
f 103 106 105
f 106 112 113
f 110 113 112
f 110 112 111

